tick,type,time,meta,track,numerator,denominator,clocks_per_click,notated_32nd_notes_per_beat,key,tempo,control,value,channel,program,port,note,velocity
0,control_change,0,0,0,,,,,,,7,100,0,,,,
0,time_signature,0,1,0,3,4,24,8,,,,,,,,,
0,set_tempo,0,1,0,,,,,,1500000,,,,,,,
0,program_change,0,0,0,,,,,,,,,0,1,,,
0,track_name,0,1,0,,,,,,,,,,,,,
0,note_on,0,0,0,,,,,,,,,0,,,50,115
0,note_on,0,0,0,,,,,,,,,0,,,46,115
0,midi_port,0,1,1,,,,,,,,,,,0,,
0,midi_port,0,1,0,,,,,,,,,,,0,,
0,key_signature,0,1,1,,,,,Bb,,,,,,,,
0,key_signature,0,1,0,,,,,Bb,,,,,,,,
0,track_name,0,1,1,,,,,,,,,,,,,
0,control_change,0,0,0,,,,,,,10,64,0,,,,
0,control_change,0,0,0,,,,,,,91,0,0,,,,
0,control_change,0,0,0,,,,,,,93,0,0,,,,
0,control_change,0,0,0,,,,,,,121,0,0,,,,
2,control_change,2,0,1,,,,,,,64,127,0,,,,
240,note_on,238,0,1,,,,,,,,,0,,,31,96
280,note_on,280,0,0,,,,,,,,,0,,,46,0
280,note_on,40,0,1,,,,,,,,,0,,,46,96
320,note_on,40,0,1,,,,,,,,,0,,,55,99
359,note_on,39,0,1,,,,,,,,,0,,,55,0
360,note_on,1,0,1,,,,,,,,,0,,,62,102
399,note_on,39,0,1,,,,,,,,,0,,,62,0
400,note_on,1,0,1,,,,,,,,,0,,,55,106
439,note_on,39,0,1,,,,,,,,,0,,,55,0
440,note_on,1,0,1,,,,,,,,,0,,,46,0
440,note_on,0,0,1,,,,,,,,,0,,,46,106
467,note_on,27,0,1,,,,,,,,,0,,,31,0
479,note_on,199,0,0,,,,,,,,,0,,,50,0
479,note_on,12,0,1,,,,,,,,,0,,,46,0
480,note_on,1,0,0,,,,,,,,,0,,,45,115
480,note_on,0,0,0,,,,,,,,,0,,,49,115
481,control_change,2,0,1,,,,,,,64,0,0,,,,
482,control_change,1,0,1,,,,,,,64,127,0,,,,
720,note_on,238,0,1,,,,,,,,,0,,,31,96
760,note_on,40,0,1,,,,,,,,,0,,,45,96
760,note_on,280,0,0,,,,,,,,,0,,,45,0
800,note_on,40,0,1,,,,,,,,,0,,,55,99
839,note_on,39,0,1,,,,,,,,,0,,,55,0
840,note_on,1,0,1,,,,,,,,,0,,,61,102
879,note_on,39,0,1,,,,,,,,,0,,,61,0
880,note_on,1,0,1,,,,,,,,,0,,,55,106
919,note_on,39,0,1,,,,,,,,,0,,,55,0
920,note_on,0,0,1,,,,,,,,,0,,,45,106
920,note_on,1,0,1,,,,,,,,,0,,,45,0
947,note_on,27,0,1,,,,,,,,,0,,,31,0
959,note_on,12,0,1,,,,,,,,,0,,,45,0
959,note_on,199,0,0,,,,,,,,,0,,,49,0
960,note_on,0,0,0,,,,,,,,,0,,,50,115
960,note_on,1,0,0,,,,,,,,,0,,,46,115
961,control_change,2,0,1,,,,,,,64,0,0,,,,
962,control_change,1,0,1,,,,,,,64,127,0,,,,
1200,note_on,238,0,1,,,,,,,,,0,,,31,96
1240,note_on,40,0,1,,,,,,,,,0,,,46,96
1240,note_on,280,0,0,,,,,,,,,0,,,46,0
1280,note_on,40,0,1,,,,,,,,,0,,,55,99
1319,note_on,39,0,1,,,,,,,,,0,,,55,0
1320,note_on,1,0,1,,,,,,,,,0,,,62,102
1359,note_on,39,0,1,,,,,,,,,0,,,62,0
1360,note_on,1,0,1,,,,,,,,,0,,,55,106
1399,note_on,39,0,1,,,,,,,,,0,,,55,0
1400,note_on,0,0,1,,,,,,,,,0,,,46,106
1400,note_on,1,0,1,,,,,,,,,0,,,46,0
1427,note_on,27,0,1,,,,,,,,,0,,,31,0
1439,note_on,12,0,1,,,,,,,,,0,,,46,0
1439,note_on,199,0,0,,,,,,,,,0,,,50,0
1440,note_on,0,0,0,,,,,,,,,0,,,46,115
1440,note_on,1,0,0,,,,,,,,,0,,,43,115
1441,control_change,2,0,1,,,,,,,64,0,0,,,,
1442,control_change,1,0,1,,,,,,,64,127,0,,,,
1680,note_on,238,0,1,,,,,,,,,0,,,31,96
1720,note_on,280,0,0,,,,,,,,,0,,,43,0
1720,note_on,40,0,1,,,,,,,,,0,,,43,96
1760,note_on,40,0,1,,,,,,,,,0,,,50,99
1799,note_on,39,0,1,,,,,,,,,0,,,50,0
1800,note_on,1,0,1,,,,,,,,,0,,,58,102
1839,note_on,39,0,1,,,,,,,,,0,,,58,0
1840,note_on,1,0,1,,,,,,,,,0,,,50,106
1879,note_on,39,0,1,,,,,,,,,0,,,50,0
1880,note_on,1,0,1,,,,,,,,,0,,,43,0
1880,note_on,0,0,1,,,,,,,,,0,,,43,106
1907,note_on,27,0,1,,,,,,,,,0,,,31,0
1919,note_on,12,0,1,,,,,,,,,0,,,43,0
1919,note_on,199,0,0,,,,,,,,,0,,,46,0
1920,note_on,1,0,0,,,,,,,,,0,,,48,115
1920,note_on,0,0,0,,,,,,,,,0,,,51,115
1921,control_change,2,0,1,,,,,,,64,0,0,,,,
1922,control_change,1,0,1,,,,,,,64,127,0,,,,
2160,note_on,238,0,1,,,,,,,,,0,,,31,96
2200,note_on,40,0,1,,,,,,,,,0,,,48,96
2200,note_on,280,0,0,,,,,,,,,0,,,48,0
2240,note_on,40,0,1,,,,,,,,,0,,,55,99
2279,note_on,39,0,1,,,,,,,,,0,,,55,0
2280,note_on,1,0,1,,,,,,,,,0,,,63,102
2319,note_on,39,0,1,,,,,,,,,0,,,63,0
2320,note_on,1,0,1,,,,,,,,,0,,,55,106
2359,note_on,39,0,1,,,,,,,,,0,,,55,0
2360,note_on,0,0,1,,,,,,,,,0,,,48,106
2360,note_on,1,0,1,,,,,,,,,0,,,48,0
2387,note_on,27,0,1,,,,,,,,,0,,,31,0
2399,note_on,199,0,0,,,,,,,,,0,,,51,0
2399,note_on,12,0,1,,,,,,,,,0,,,48,0
2400,note_on,1,0,0,,,,,,,,,0,,,46,115
2400,note_on,0,0,0,,,,,,,,,0,,,50,115
2401,control_change,2,0,1,,,,,,,64,0,0,,,,
2402,control_change,1,0,1,,,,,,,64,127,0,,,,
2640,note_on,238,0,1,,,,,,,,,0,,,31,96
2680,note_on,40,0,1,,,,,,,,,0,,,46,96
2680,note_on,280,0,0,,,,,,,,,0,,,46,0
2720,note_on,40,0,1,,,,,,,,,0,,,55,99
2759,note_on,39,0,1,,,,,,,,,0,,,55,0
2760,note_on,1,0,1,,,,,,,,,0,,,62,102
2799,note_on,39,0,1,,,,,,,,,0,,,62,0
2800,note_on,1,0,1,,,,,,,,,0,,,55,106
2839,note_on,39,0,1,,,,,,,,,0,,,55,0
2840,note_on,1,0,1,,,,,,,,,0,,,46,0
2840,note_on,0,0,1,,,,,,,,,0,,,46,106
2867,note_on,27,0,1,,,,,,,,,0,,,31,0
2879,note_on,199,0,0,,,,,,,,,0,,,50,0
2879,note_on,12,0,1,,,,,,,,,0,,,46,0
2880,note_on,0,0,0,,,,,,,,,0,,,45,115
2880,note_on,1,0,0,,,,,,,,,0,,,42,115
2880,note_on,0,0,0,,,,,,,,,0,,,48,115
2881,control_change,2,0,1,,,,,,,64,0,0,,,,
2882,control_change,1,0,1,,,,,,,64,127,0,,,,
3120,note_on,238,0,1,,,,,,,,,0,,,26,96
3160,note_on,40,0,1,,,,,,,,,0,,,45,96
3160,note_on,280,0,0,,,,,,,,,0,,,45,0
3200,note_on,40,0,1,,,,,,,,,0,,,54,99
3239,note_on,39,0,1,,,,,,,,,0,,,54,0
3240,note_on,1,0,1,,,,,,,,,0,,,60,102
3279,note_on,39,0,1,,,,,,,,,0,,,60,0
3280,note_on,1,0,1,,,,,,,,,0,,,54,106
3319,note_on,39,0,1,,,,,,,,,0,,,54,0
3320,note_on,1,0,1,,,,,,,,,0,,,45,0
3320,note_on,0,0,1,,,,,,,,,0,,,45,106
3347,note_on,27,0,1,,,,,,,,,0,,,26,0
3359,note_on,12,0,1,,,,,,,,,0,,,45,0
3359,note_on,199,0,0,,,,,,,,,0,,,42,0
3359,note_on,0,0,0,,,,,,,,,0,,,48,0
3360,note_on,0,0,0,,,,,,,,,0,,,46,115
3360,note_on,1,0,0,,,,,,,,,0,,,43,115
3361,control_change,2,0,1,,,,,,,64,0,0,,,,
3362,control_change,1,0,1,,,,,,,64,127,0,,,,
3600,note_on,238,0,1,,,,,,,,,0,,,27,96
3640,note_on,40,0,1,,,,,,,,,0,,,43,96
3640,note_on,280,0,0,,,,,,,,,0,,,43,0
3680,note_on,40,0,1,,,,,,,,,0,,,51,99
3719,note_on,39,0,1,,,,,,,,,0,,,51,0
3720,note_on,1,0,1,,,,,,,,,0,,,58,102
3759,note_on,39,0,1,,,,,,,,,0,,,58,0
3760,note_on,1,0,1,,,,,,,,,0,,,51,106
3799,note_on,39,0,1,,,,,,,,,0,,,51,0
3800,note_on,0,0,1,,,,,,,,,0,,,43,106
3800,note_on,1,0,1,,,,,,,,,0,,,43,0
3827,note_on,27,0,1,,,,,,,,,0,,,27,0
3839,note_on,199,0,0,,,,,,,,,0,,,46,0
3839,note_on,12,0,1,,,,,,,,,0,,,43,0
3840,note_on,1,0,0,,,,,,,,,0,,,36,115
3840,note_on,0,0,0,,,,,,,,,0,,,39,115
3840,note_on,0,0,0,,,,,,,,,0,,,44,115
3841,control_change,2,0,1,,,,,,,64,0,0,,,,
3842,control_change,1,0,1,,,,,,,64,127,0,,,,
4080,note_on,238,0,1,,,,,,,,,0,,,27,96
4120,note_on,280,0,0,,,,,,,,,0,,,39,0
4120,note_on,40,0,1,,,,,,,,,0,,,39,96
4160,note_on,40,0,1,,,,,,,,,0,,,48,99
4199,note_on,39,0,1,,,,,,,,,0,,,48,0
4200,note_on,1,0,1,,,,,,,,,0,,,56,102
4239,note_on,39,0,1,,,,,,,,,0,,,56,0
4240,note_on,1,0,1,,,,,,,,,0,,,48,106
4279,note_on,39,0,1,,,,,,,,,0,,,48,0
4280,note_on,1,0,1,,,,,,,,,0,,,39,0
4280,note_on,0,0,1,,,,,,,,,0,,,39,106
4307,note_on,27,0,1,,,,,,,,,0,,,27,0
4319,note_on,199,0,0,,,,,,,,,0,,,36,0
4319,note_on,0,0,0,,,,,,,,,0,,,44,0
4319,note_on,12,0,1,,,,,,,,,0,,,39,0
4320,note_on,1,0,0,,,,,,,,,0,,,36,115
4320,note_on,0,0,0,,,,,,,,,0,,,39,115
4560,note_on,241,0,1,,,,,,,,,0,,,27,96
4600,note_on,40,0,1,,,,,,,,,0,,,36,96
4600,note_on,280,0,0,,,,,,,,,0,,,36,0
4640,note_on,40,0,1,,,,,,,,,0,,,45,99
4679,note_on,39,0,1,,,,,,,,,0,,,45,0
4680,note_on,1,0,1,,,,,,,,,0,,,51,102
4719,note_on,39,0,1,,,,,,,,,0,,,51,0
4720,note_on,1,0,1,,,,,,,,,0,,,45,106
4759,note_on,39,0,1,,,,,,,,,0,,,45,0
4760,note_on,1,0,1,,,,,,,,,0,,,36,0
4760,note_on,0,0,1,,,,,,,,,0,,,36,106
4787,note_on,27,0,1,,,,,,,,,0,,,27,0
4799,note_on,199,0,0,,,,,,,,,0,,,39,0
4799,note_on,12,0,1,,,,,,,,,0,,,36,0
4800,note_on,0,0,0,,,,,,,,,0,,,43,115
4800,note_on,0,0,0,,,,,,,,,0,,,34,115
4800,set_tempo,1,1,0,,,,,,1666667,,,,,,,
4800,note_on,0,0,0,,,,,,,,,0,,,38,115
4801,control_change,2,0,1,,,,,,,64,0,0,,,,
4802,control_change,1,0,1,,,,,,,64,127,0,,,,
5040,note_on,238,0,1,,,,,,,,,0,,,26,96
5080,note_on,40,0,1,,,,,,,,,0,,,38,96
5080,note_on,280,0,0,,,,,,,,,0,,,38,0
5120,note_on,40,0,1,,,,,,,,,0,,,46,99
5159,note_on,39,0,1,,,,,,,,,0,,,46,0
5160,note_on,1,0,1,,,,,,,,,0,,,55,102
5199,note_on,39,0,1,,,,,,,,,0,,,55,0
5200,note_on,1,0,1,,,,,,,,,0,,,46,106
5239,note_on,39,0,1,,,,,,,,,0,,,46,0
5240,note_on,1,0,1,,,,,,,,,0,,,38,0
5240,note_on,0,0,1,,,,,,,,,0,,,38,106
5267,note_on,27,0,1,,,,,,,,,0,,,26,0
5279,note_on,199,0,0,,,,,,,,,0,,,34,0
5279,note_on,12,0,1,,,,,,,,,0,,,38,0
5279,note_on,0,0,0,,,,,,,,,0,,,43,0
5280,note_on,0,0,0,,,,,,,,,0,,,33,115
5280,note_on,0,0,0,,,,,,,,,0,,,38,115
5280,set_tempo,1,1,0,,,,,,1875000,,,,,,,
5280,note_on,0,0,0,,,,,,,,,0,,,42,115
5281,control_change,2,0,1,,,,,,,64,0,0,,,,
5282,control_change,1,0,1,,,,,,,64,127,0,,,,
5520,note_on,238,0,1,,,,,,,,,0,,,26,96
5560,note_on,40,0,1,,,,,,,,,0,,,38,96
5560,note_on,280,0,0,,,,,,,,,0,,,38,0
5600,note_on,40,0,1,,,,,,,,,0,,,45,99
5639,note_on,39,0,1,,,,,,,,,0,,,45,0
5640,note_on,1,0,1,,,,,,,,,0,,,54,102
5679,note_on,39,0,1,,,,,,,,,0,,,54,0
5680,note_on,1,0,1,,,,,,,,,0,,,45,106
5719,note_on,39,0,1,,,,,,,,,0,,,45,0
5720,note_on,0,0,1,,,,,,,,,0,,,38,106
5720,note_on,1,0,1,,,,,,,,,0,,,38,0
5747,note_on,27,0,1,,,,,,,,,0,,,26,0
5759,note_on,199,0,0,,,,,,,,,0,,,33,0
5759,note_on,12,0,1,,,,,,,,,0,,,38,0
5759,note_on,0,0,0,,,,,,,,,0,,,42,0
5760,set_tempo,1,1,0,,,,,,1500000,,,,,,,
5760,note_on,0,0,0,,,,,,,,,0,,,46,115
5760,note_on,0,0,0,,,,,,,,,0,,,50,115
5761,control_change,2,0,1,,,,,,,64,0,0,,,,
5762,control_change,1,0,1,,,,,,,64,127,0,,,,
6000,note_on,238,0,1,,,,,,,,,0,,,31,96
6040,note_on,280,0,0,,,,,,,,,0,,,46,0
6040,note_on,40,0,1,,,,,,,,,0,,,46,96
6080,note_on,40,0,1,,,,,,,,,0,,,55,99
6119,note_on,39,0,1,,,,,,,,,0,,,55,0
6120,note_on,1,0,1,,,,,,,,,0,,,62,102
6159,note_on,39,0,1,,,,,,,,,0,,,62,0
6160,note_on,1,0,1,,,,,,,,,0,,,55,106
6199,note_on,39,0,1,,,,,,,,,0,,,55,0
6200,note_on,1,0,1,,,,,,,,,0,,,46,0
6200,note_on,0,0,1,,,,,,,,,0,,,46,106
6227,note_on,27,0,1,,,,,,,,,0,,,31,0
6239,note_on,12,0,1,,,,,,,,,0,,,46,0
6239,note_on,199,0,0,,,,,,,,,0,,,50,0
6240,note_on,1,0,0,,,,,,,,,0,,,45,115
6240,note_on,0,0,0,,,,,,,,,0,,,49,115
6241,control_change,2,0,1,,,,,,,64,0,0,,,,
6242,control_change,1,0,1,,,,,,,64,127,0,,,,
6480,note_on,238,0,1,,,,,,,,,0,,,31,96
6520,note_on,40,0,1,,,,,,,,,0,,,45,96
6520,note_on,280,0,0,,,,,,,,,0,,,45,0
6560,note_on,40,0,1,,,,,,,,,0,,,55,99
6599,note_on,39,0,1,,,,,,,,,0,,,55,0
6600,note_on,1,0,1,,,,,,,,,0,,,61,102
6639,note_on,39,0,1,,,,,,,,,0,,,61,0
6640,note_on,1,0,1,,,,,,,,,0,,,55,106
6679,note_on,39,0,1,,,,,,,,,0,,,55,0
6680,note_on,1,0,1,,,,,,,,,0,,,45,0
6680,note_on,0,0,1,,,,,,,,,0,,,45,106
6707,note_on,27,0,1,,,,,,,,,0,,,31,0
6719,note_on,12,0,1,,,,,,,,,0,,,45,0
6719,note_on,199,0,0,,,,,,,,,0,,,49,0
6720,note_on,1,0,0,,,,,,,,,0,,,46,115
6720,note_on,0,0,0,,,,,,,,,0,,,50,115
6721,control_change,2,0,1,,,,,,,64,0,0,,,,
6722,control_change,1,0,1,,,,,,,64,127,0,,,,
6960,note_on,238,0,1,,,,,,,,,0,,,31,96
7000,note_on,40,0,1,,,,,,,,,0,,,46,96
7000,note_on,280,0,0,,,,,,,,,0,,,46,0
7040,note_on,40,0,1,,,,,,,,,0,,,55,99
7079,note_on,39,0,1,,,,,,,,,0,,,55,0
7080,note_on,1,0,1,,,,,,,,,0,,,62,102
7119,note_on,39,0,1,,,,,,,,,0,,,62,0
7120,note_on,1,0,1,,,,,,,,,0,,,55,106
7159,note_on,39,0,1,,,,,,,,,0,,,55,0
7160,note_on,1,0,1,,,,,,,,,0,,,46,0
7160,note_on,0,0,1,,,,,,,,,0,,,46,106
7187,note_on,27,0,1,,,,,,,,,0,,,31,0
7199,note_on,12,0,1,,,,,,,,,0,,,46,0
7199,note_on,199,0,0,,,,,,,,,0,,,50,0
7200,note_on,0,0,0,,,,,,,,,0,,,46,115
7200,note_on,1,0,0,,,,,,,,,0,,,43,115
7201,control_change,2,0,1,,,,,,,64,0,0,,,,
7202,control_change,1,0,1,,,,,,,64,127,0,,,,
7440,note_on,238,0,1,,,,,,,,,0,,,31,96
7480,note_on,280,0,0,,,,,,,,,0,,,43,0
7480,note_on,40,0,1,,,,,,,,,0,,,43,96
7520,note_on,40,0,1,,,,,,,,,0,,,50,99
7559,note_on,39,0,1,,,,,,,,,0,,,50,0
7560,note_on,1,0,1,,,,,,,,,0,,,58,102
7599,note_on,39,0,1,,,,,,,,,0,,,58,0
7600,note_on,1,0,1,,,,,,,,,0,,,50,106
7639,note_on,39,0,1,,,,,,,,,0,,,50,0
7640,note_on,0,0,1,,,,,,,,,0,,,43,106
7640,note_on,1,0,1,,,,,,,,,0,,,43,0
7667,note_on,27,0,1,,,,,,,,,0,,,31,0
7679,note_on,12,0,1,,,,,,,,,0,,,43,0
7679,note_on,199,0,0,,,,,,,,,0,,,46,0
7680,note_on,0,0,0,,,,,,,,,0,,,51,115
7680,note_on,1,0,0,,,,,,,,,0,,,46,115
7681,control_change,2,0,1,,,,,,,64,0,0,,,,
7682,control_change,1,0,1,,,,,,,64,127,0,,,,
7920,note_on,238,0,1,,,,,,,,,0,,,30,96
7960,note_on,40,0,1,,,,,,,,,0,,,46,96
7960,note_on,280,0,0,,,,,,,,,0,,,46,0
8000,note_on,40,0,1,,,,,,,,,0,,,54,99
8039,note_on,39,0,1,,,,,,,,,0,,,54,0
8040,note_on,1,0,1,,,,,,,,,0,,,63,102
8079,note_on,39,0,1,,,,,,,,,0,,,63,0
8080,note_on,1,0,1,,,,,,,,,0,,,54,106
8119,note_on,39,0,1,,,,,,,,,0,,,54,0
8120,note_on,0,0,1,,,,,,,,,0,,,46,106
8120,note_on,1,0,1,,,,,,,,,0,,,46,0
8147,note_on,27,0,1,,,,,,,,,0,,,30,0
8159,note_on,199,0,0,,,,,,,,,0,,,51,0
8159,note_on,12,0,1,,,,,,,,,0,,,46,0
8160,note_on,0,0,0,,,,,,,,,0,,,52,121
8160,note_on,0,0,0,,,,,,,,,0,,,49,121
8160,note_on,1,0,0,,,,,,,,,0,,,46,121
8161,control_change,2,0,1,,,,,,,64,0,0,,,,
8162,control_change,1,0,1,,,,,,,64,127,0,,,,
8400,note_on,238,0,1,,,,,,,,,0,,,30,96
8440,note_on,280,0,0,,,,,,,,,0,,,49,0
8440,note_on,40,0,1,,,,,,,,,0,,,49,96
8480,note_on,40,0,1,,,,,,,,,0,,,58,99
8519,note_on,39,0,1,,,,,,,,,0,,,58,0
8520,note_on,1,0,1,,,,,,,,,0,,,64,102
8559,note_on,39,0,1,,,,,,,,,0,,,64,0
8560,note_on,1,0,1,,,,,,,,,0,,,58,106
8599,note_on,39,0,1,,,,,,,,,0,,,58,0
8600,note_on,0,0,1,,,,,,,,,0,,,49,106
8600,note_on,1,0,1,,,,,,,,,0,,,49,0
8627,note_on,27,0,1,,,,,,,,,0,,,30,0
8639,note_on,12,0,1,,,,,,,,,0,,,49,0
8639,note_on,0,0,0,,,,,,,,,0,,,52,0
8639,note_on,199,0,0,,,,,,,,,0,,,46,0
8640,note_on,0,0,0,,,,,,,,,0,,,53,127
8640,note_on,0,0,0,,,,,,,,,0,,,50,127
8640,note_on,1,0,0,,,,,,,,,0,,,46,127
8641,control_change,2,0,1,,,,,,,64,0,0,,,,
8642,control_change,1,0,1,,,,,,,64,127,0,,,,
8880,note_on,238,0,1,,,,,,,,,0,,,29,96
8920,note_on,280,0,0,,,,,,,,,0,,,50,0
8920,note_on,40,0,1,,,,,,,,,0,,,50,96
8960,note_on,40,0,1,,,,,,,,,0,,,58,99
8999,note_on,39,0,1,,,,,,,,,0,,,58,0
9000,note_on,1,0,1,,,,,,,,,0,,,65,102
9039,note_on,39,0,1,,,,,,,,,0,,,65,0
9040,note_on,1,0,1,,,,,,,,,0,,,58,106
9079,note_on,39,0,1,,,,,,,,,0,,,58,0
9080,note_on,0,0,1,,,,,,,,,0,,,50,106
9080,note_on,1,0,1,,,,,,,,,0,,,50,0
9107,note_on,27,0,1,,,,,,,,,0,,,29,0
9119,note_on,0,0,0,,,,,,,,,0,,,53,0
9119,note_on,12,0,1,,,,,,,,,0,,,50,0
9119,note_on,199,0,0,,,,,,,,,0,,,46,0
9120,note_on,0,0,0,,,,,,,,,0,,,50,115
9120,note_on,1,0,0,,,,,,,,,0,,,41,115
9120,note_on,0,0,0,,,,,,,,,0,,,46,115
9121,control_change,2,0,1,,,,,,,64,0,0,,,,
9122,control_change,1,0,1,,,,,,,64,127,0,,,,
9360,note_on,238,0,1,,,,,,,,,0,,,29,96
9400,note_on,280,0,0,,,,,,,,,0,,,46,0
9400,note_on,40,0,1,,,,,,,,,0,,,46,96
9440,note_on,40,0,1,,,,,,,,,0,,,53,99
9479,note_on,39,0,1,,,,,,,,,0,,,53,0
9480,note_on,1,0,1,,,,,,,,,0,,,62,102
9519,note_on,39,0,1,,,,,,,,,0,,,62,0
9520,note_on,1,0,1,,,,,,,,,0,,,53,106
9559,note_on,39,0,1,,,,,,,,,0,,,53,0
9560,note_on,1,0,1,,,,,,,,,0,,,46,0
9560,note_on,0,0,1,,,,,,,,,0,,,46,106
9587,note_on,27,0,1,,,,,,,,,0,,,29,0
9599,note_on,12,0,1,,,,,,,,,0,,,46,0
9599,note_on,199,0,0,,,,,,,,,0,,,41,0
9599,note_on,0,0,0,,,,,,,,,0,,,50,0
9600,note_on,1,0,0,,,,,,,,,0,,,39,115
9601,control_change,2,0,1,,,,,,,64,0,0,,,,
9602,control_change,1,0,1,,,,,,,64,127,0,,,,
9624,note_on,24,0,0,,,,,,,,,0,,,45,114
9645,note_on,21,0,0,,,,,,,,,0,,,50,94
9840,note_on,238,0,1,,,,,,,,,0,,,29,88
9880,note_on,235,0,0,,,,,,,,,0,,,45,0
9880,note_on,40,0,1,,,,,,,,,0,,,45,85
9920,note_on,40,0,1,,,,,,,,,0,,,51,82
9959,note_on,79,0,0,,,,,,,,,0,,,50,0
9959,note_on,39,0,1,,,,,,,,,0,,,51,0
9960,note_on,1,0,0,,,,,,,,,0,,,48,77
9960,note_on,1,0,1,,,,,,,,,0,,,60,79
9999,note_on,39,0,1,,,,,,,,,0,,,60,0
10000,note_on,1,0,1,,,,,,,,,0,,,51,76
10039,note_on,39,0,1,,,,,,,,,0,,,51,0
10040,note_on,1,0,1,,,,,,,,,0,,,45,0
10040,note_on,0,0,1,,,,,,,,,0,,,45,73
10067,note_on,27,0,1,,,,,,,,,0,,,29,0
10073,note_on,113,0,0,,,,,,,,,0,,,48,0
10079,note_on,6,0,0,,,,,,,,,0,,,39,0
10079,note_on,12,0,1,,,,,,,,,0,,,45,0
10080,note_on,0,0,0,,,,,,,,,0,,,46,84
10080,note_on,0,0,0,,,,,,,,,0,,,41,84
10080,note_on,1,0,0,,,,,,,,,0,,,38,84
10081,control_change,2,0,1,,,,,,,64,0,0,,,,
10082,control_change,1,0,1,,,,,,,64,127,0,,,,
10320,note_on,238,0,1,,,,,,,,,0,,,34,70
10320,note_on,0,0,1,,,,,,,,,0,,,34,0
10320,note_on,0,0,1,,,,,,,,,0,,,34,70
10350,note_on,270,0,0,,,,,,,,,0,,,41,0
10350,note_on,30,0,1,,,,,,,,,0,,,41,70
10380,note_on,30,0,1,,,,,,,,,0,,,46,70
10380,note_on,30,0,0,,,,,,,,,0,,,46,0
10410,note_on,30,0,1,,,,,,,,,0,,,53,70
10439,note_on,29,0,1,,,,,,,,,0,,,53,0
10440,note_on,1,0,1,,,,,,,,,0,,,58,70
10469,note_on,29,0,1,,,,,,,,,0,,,58,0
10470,note_on,1,0,1,,,,,,,,,0,,,53,70
10499,note_on,29,0,1,,,,,,,,,0,,,53,0
10500,note_on,0,0,1,,,,,,,,,0,,,46,70
10500,note_on,1,0,1,,,,,,,,,0,,,46,0
10530,note_on,30,0,1,,,,,,,,,0,,,41,0
10530,note_on,0,0,1,,,,,,,,,0,,,41,70
10559,note_on,0,0,1,,,,,,,,,0,,,46,0
10559,note_on,0,0,1,,,,,,,,,0,,,34,0
10559,note_on,29,0,1,,,,,,,,,0,,,41,0
10559,note_on,179,0,0,,,,,,,,,0,,,38,0
10560,note_on,0,0,1,,,,,,,,,0,,,34,0
10560,set_tempo,1,1,0,,,,,,1666667,,,,,,,
10560,note_on,0,0,1,,,,,,,,,0,,,34,70
10560,note_on,1,0,1,,,,,,,,,0,,,34,70
10561,control_change,1,0,1,,,,,,,64,0,0,,,,
10562,control_change,1,0,1,,,,,,,64,127,0,,,,
10787,note_on,225,0,1,,,,,,,,,0,,,34,0
10800,set_tempo,240,1,0,,,,,,1500000,,,,,,,
10800,note_on,0,0,0,,,,,,,,,0,,,58,84
10800,note_on,0,0,0,,,,,,,,,0,,,46,84
11039,note_on,0,0,0,,,,,,,,,0,,,58,0
11039,note_on,239,0,0,,,,,,,,,0,,,46,0
11040,note_on,1,0,0,,,,,,,,,0,,,46,93
11040,note_on,0,0,0,,,,,,,,,0,,,50,93
11040,note_on,0,0,0,,,,,,,,,0,,,58,93
11279,note_on,239,0,0,,,,,,,,,0,,,46,0
11279,note_on,0,0,0,,,,,,,,,0,,,58,0
11279,note_on,0,0,0,,,,,,,,,0,,,50,0
11280,note_on,0,0,0,,,,,,,,,0,,,53,104
11280,note_on,0,0,0,,,,,,,,,0,,,58,104
11280,note_on,1,0,0,,,,,,,,,0,,,46,104
11519,note_on,0,0,0,,,,,,,,,0,,,58,0
11519,note_on,0,0,0,,,,,,,,,0,,,53,0
11519,note_on,239,0,0,,,,,,,,,0,,,46,0
11520,note_on,0,0,0,,,,,,,,,0,,,51,115
11520,note_on,1,0,0,,,,,,,,,0,,,46,115
11520,note_on,0,0,0,,,,,,,,,0,,,54,115
11520,note_on,0,0,0,,,,,,,,,0,,,58,115
11521,control_change,734,0,1,,,,,,,64,0,0,,,,
11522,control_change,1,0,1,,,,,,,64,127,0,,,,
11760,note_on,0,0,1,,,,,,,,,0,,,34,0
11760,note_on,0,0,1,,,,,,,,,0,,,34,115
11760,note_on,238,0,1,,,,,,,,,0,,,34,96
11794,note_on,34,0,1,,,,,,,,,0,,,39,98
11827,note_on,33,0,1,,,,,,,,,0,,,39,0
11829,note_on,2,0,1,,,,,,,,,0,,,42,101
11840,note_on,0,0,0,,,,,,,,,0,,,54,0
11840,note_on,0,0,0,,,,,,,,,0,,,51,0
11840,note_on,0,0,0,,,,,,,,,0,,,58,0
11840,note_on,320,0,0,,,,,,,,,0,,,46,0
11862,note_on,33,0,1,,,,,,,,,0,,,42,0
11863,note_on,1,0,1,,,,,,,,,0,,,54,103
11896,note_on,33,0,1,,,,,,,,,0,,,54,0
11897,note_on,1,0,1,,,,,,,,,0,,,42,106
11919,note_on,22,0,1,,,,,,,,,0,,,34,0
11930,note_on,11,0,1,,,,,,,,,0,,,42,0
11931,note_on,1,0,1,,,,,,,,,0,,,39,106
11964,note_on,33,0,1,,,,,,,,,0,,,39,0
11966,note_on,2,0,1,,,,,,,,,0,,,34,96
11997,note_on,31,0,1,,,,,,,,,0,,,34,0
12000,note_on,0,0,0,,,,,,,,,0,,,51,115
12000,note_on,0,0,0,,,,,,,,,0,,,57,115
12000,note_on,0,0,0,,,,,,,,,0,,,54,115
12000,note_on,160,0,0,,,,,,,,,0,,,45,115
12001,control_change,4,0,1,,,,,,,64,0,0,,,,
12002,control_change,1,0,1,,,,,,,64,127,0,,,,
12240,note_on,0,0,1,,,,,,,,,0,,,33,115
12240,note_on,238,0,1,,,,,,,,,0,,,33,96
12240,note_on,0,0,1,,,,,,,,,0,,,33,0
12274,note_on,34,0,1,,,,,,,,,0,,,39,98
12307,note_on,33,0,1,,,,,,,,,0,,,39,0
12309,note_on,2,0,1,,,,,,,,,0,,,42,101
12320,note_on,320,0,0,,,,,,,,,0,,,45,0
12320,note_on,0,0,0,,,,,,,,,0,,,57,0
12320,note_on,0,0,0,,,,,,,,,0,,,54,0
12320,note_on,0,0,0,,,,,,,,,0,,,51,0
12342,note_on,33,0,1,,,,,,,,,0,,,42,0
12343,note_on,1,0,1,,,,,,,,,0,,,54,103
12376,note_on,33,0,1,,,,,,,,,0,,,54,0
12377,note_on,1,0,1,,,,,,,,,0,,,42,106
12399,note_on,22,0,1,,,,,,,,,0,,,33,0
12410,note_on,11,0,1,,,,,,,,,0,,,42,0
12411,note_on,1,0,1,,,,,,,,,0,,,39,106
12444,note_on,33,0,1,,,,,,,,,0,,,39,0
12446,note_on,2,0,1,,,,,,,,,0,,,33,96
12477,note_on,31,0,1,,,,,,,,,0,,,33,0
12480,note_on,0,0,0,,,,,,,,,0,,,54,115
12480,note_on,0,0,0,,,,,,,,,0,,,58,115
12480,note_on,160,0,0,,,,,,,,,0,,,46,115
12480,note_on,0,0,0,,,,,,,,,0,,,51,115
12481,control_change,4,0,1,,,,,,,64,0,0,,,,
12482,control_change,1,0,1,,,,,,,64,127,0,,,,
12720,note_on,238,0,1,,,,,,,,,0,,,34,96
12720,note_on,0,0,1,,,,,,,,,0,,,34,0
12720,note_on,0,0,1,,,,,,,,,0,,,34,96
12754,note_on,34,0,1,,,,,,,,,0,,,39,98
12787,note_on,33,0,1,,,,,,,,,0,,,39,0
12789,note_on,2,0,1,,,,,,,,,0,,,42,101
12800,note_on,0,0,0,,,,,,,,,0,,,58,0
12800,note_on,0,0,0,,,,,,,,,0,,,54,0
12800,note_on,320,0,0,,,,,,,,,0,,,46,0
12800,note_on,0,0,0,,,,,,,,,0,,,51,0
12822,note_on,33,0,1,,,,,,,,,0,,,42,0
12823,note_on,1,0,1,,,,,,,,,0,,,54,103
12856,note_on,33,0,1,,,,,,,,,0,,,54,0
12857,note_on,1,0,1,,,,,,,,,0,,,42,106
12890,note_on,33,0,1,,,,,,,,,0,,,42,0
12891,note_on,1,0,1,,,,,,,,,0,,,39,106
12924,note_on,33,0,1,,,,,,,,,0,,,39,0
12926,note_on,0,0,1,,,,,,,,,0,,,34,96
12926,note_on,2,0,1,,,,,,,,,0,,,34,0
12959,note_on,33,0,1,,,,,,,,,0,,,34,0
12960,note_on,0,0,0,,,,,,,,,0,,,53,115
12960,note_on,160,0,0,,,,,,,,,0,,,50,115
12960,note_on,0,0,0,,,,,,,,,0,,,58,115
12960,note_on,0,0,0,,,,,,,,,0,,,62,115
12961,control_change,2,0,1,,,,,,,64,0,0,,,,
12962,control_change,1,0,1,,,,,,,64,127,0,,,,
13200,note_on,238,0,1,,,,,,,,,0,,,34,96
13200,note_on,0,0,1,,,,,,,,,0,,,34,96
13200,note_on,0,0,1,,,,,,,,,0,,,34,0
13230,note_on,30,0,1,,,,,,,,,0,,,41,98
13259,note_on,29,0,1,,,,,,,,,0,,,41,0
13260,note_on,1,0,1,,,,,,,,,0,,,46,101
13280,note_on,320,0,0,,,,,,,,,0,,,50,0
13280,note_on,0,0,0,,,,,,,,,0,,,62,0
13280,note_on,0,0,0,,,,,,,,,0,,,58,0
13280,note_on,0,0,0,,,,,,,,,0,,,53,0
13289,note_on,29,0,1,,,,,,,,,0,,,46,0
13290,note_on,1,0,1,,,,,,,,,0,,,53,103
13319,note_on,29,0,1,,,,,,,,,0,,,53,0
13320,note_on,1,0,1,,,,,,,,,0,,,58,106
13349,note_on,29,0,1,,,,,,,,,0,,,58,0
13350,note_on,1,0,1,,,,,,,,,0,,,53,106
13379,note_on,29,0,1,,,,,,,,,0,,,53,0
13380,note_on,1,0,1,,,,,,,,,0,,,46,106
13409,note_on,29,0,1,,,,,,,,,0,,,46,0
13410,note_on,1,0,1,,,,,,,,,0,,,41,106
13437,note_on,27,0,1,,,,,,,,,0,,,41,0
13439,note_on,2,0,1,,,,,,,,,0,,,34,0
13440,note_on,0,0,1,,,,,,,,,0,,,34,96
13440,note_on,0,0,1,,,,,,,,,0,,,34,0
13440,note_on,1,0,1,,,,,,,,,0,,,34,96
13441,control_change,1,0,1,,,,,,,64,0,0,,,,
13442,control_change,1,0,1,,,,,,,64,127,0,,,,
13667,note_on,225,0,1,,,,,,,,,0,,,34,0
13680,note_on,400,0,0,,,,,,,,,0,,,46,96
13680,note_on,0,0,0,,,,,,,,,0,,,58,96
13907,note_on,227,0,0,,,,,,,,,0,,,46,0
13907,note_on,0,0,0,,,,,,,,,0,,,58,0
13920,note_on,0,0,0,,,,,,,,,0,,,58,96
13920,note_on,13,0,0,,,,,,,,,0,,,46,96
13920,note_on,0,0,0,,,,,,,,,0,,,50,96
14147,note_on,0,0,0,,,,,,,,,0,,,50,0
14147,note_on,0,0,0,,,,,,,,,0,,,58,0
14147,note_on,227,0,0,,,,,,,,,0,,,46,0
14160,note_on,0,0,0,,,,,,,,,0,,,53,96
14160,note_on,13,0,0,,,,,,,,,0,,,46,96
14160,note_on,0,0,0,,,,,,,,,0,,,58,96
14387,note_on,0,0,0,,,,,,,,,0,,,53,0
14387,note_on,227,0,0,,,,,,,,,0,,,46,0
14387,note_on,0,0,0,,,,,,,,,0,,,58,0
14400,note_on,0,0,0,,,,,,,,,0,,,54,115
14400,note_on,13,0,0,,,,,,,,,0,,,46,115
14400,note_on,0,0,0,,,,,,,,,0,,,58,115
14400,note_on,0,0,0,,,,,,,,,0,,,51,115
14401,control_change,734,0,1,,,,,,,64,0,0,,,,
14402,control_change,1,0,1,,,,,,,64,127,0,,,,
14640,note_on,0,0,1,,,,,,,,,0,,,34,0
14640,note_on,238,0,1,,,,,,,,,0,,,34,96
14640,note_on,0,0,1,,,,,,,,,0,,,34,115
14674,note_on,34,0,1,,,,,,,,,0,,,39,96
14707,note_on,33,0,1,,,,,,,,,0,,,39,0
14709,note_on,2,0,1,,,,,,,,,0,,,42,96
14720,note_on,320,0,0,,,,,,,,,0,,,46,0
14720,note_on,0,0,0,,,,,,,,,0,,,51,0
14720,note_on,0,0,0,,,,,,,,,0,,,54,0
14720,note_on,0,0,0,,,,,,,,,0,,,58,0
14742,note_on,33,0,1,,,,,,,,,0,,,42,0
14743,note_on,1,0,1,,,,,,,,,0,,,54,96
14776,note_on,33,0,1,,,,,,,,,0,,,54,0
14777,note_on,1,0,1,,,,,,,,,0,,,42,96
14799,note_on,22,0,1,,,,,,,,,0,,,34,0
14810,note_on,11,0,1,,,,,,,,,0,,,42,0
14811,note_on,1,0,1,,,,,,,,,0,,,39,96
14844,note_on,33,0,1,,,,,,,,,0,,,39,0
14846,note_on,2,0,1,,,,,,,,,0,,,34,96
14877,note_on,31,0,1,,,,,,,,,0,,,34,0
14880,note_on,0,0,0,,,,,,,,,0,,,57,115
14880,note_on,160,0,0,,,,,,,,,0,,,45,115
14880,note_on,0,0,0,,,,,,,,,0,,,51,115
14880,note_on,0,0,0,,,,,,,,,0,,,54,115
14881,control_change,4,0,1,,,,,,,64,0,0,,,,
14882,control_change,1,0,1,,,,,,,64,127,0,,,,
15120,note_on,238,0,1,,,,,,,,,0,,,33,96
15120,note_on,0,0,1,,,,,,,,,0,,,33,115
15120,note_on,0,0,1,,,,,,,,,0,,,33,0
15154,note_on,34,0,1,,,,,,,,,0,,,39,96
15187,note_on,33,0,1,,,,,,,,,0,,,39,0
15189,note_on,2,0,1,,,,,,,,,0,,,42,96
15200,note_on,0,0,0,,,,,,,,,0,,,57,0
15200,note_on,0,0,0,,,,,,,,,0,,,54,0
15200,note_on,0,0,0,,,,,,,,,0,,,51,0
15200,note_on,320,0,0,,,,,,,,,0,,,45,0
15222,note_on,33,0,1,,,,,,,,,0,,,42,0
15223,note_on,1,0,1,,,,,,,,,0,,,54,96
15256,note_on,33,0,1,,,,,,,,,0,,,54,0
15257,note_on,1,0,1,,,,,,,,,0,,,42,96
15279,note_on,22,0,1,,,,,,,,,0,,,33,0
15290,note_on,11,0,1,,,,,,,,,0,,,42,0
15291,note_on,1,0,1,,,,,,,,,0,,,39,96
15324,note_on,33,0,1,,,,,,,,,0,,,39,0
15326,note_on,2,0,1,,,,,,,,,0,,,33,96
15357,note_on,31,0,1,,,,,,,,,0,,,33,0
15360,note_on,0,0,0,,,,,,,,,0,,,58,116
15360,note_on,0,0,0,,,,,,,,,0,,,54,116
15360,note_on,160,0,0,,,,,,,,,0,,,46,116
15360,note_on,0,0,0,,,,,,,,,0,,,51,116
15361,control_change,4,0,1,,,,,,,64,0,0,,,,
15362,control_change,1,0,1,,,,,,,64,127,0,,,,
15600,note_on,0,0,1,,,,,,,,,0,,,34,121
15600,note_on,0,0,1,,,,,,,,,0,,,34,0
15600,note_on,238,0,1,,,,,,,,,0,,,34,101
15634,note_on,34,0,1,,,,,,,,,0,,,39,102
15667,note_on,33,0,1,,,,,,,,,0,,,39,0
15669,note_on,2,0,1,,,,,,,,,0,,,42,102
15680,note_on,0,0,0,,,,,,,,,0,,,58,0
15680,note_on,0,0,0,,,,,,,,,0,,,54,0
15680,note_on,0,0,0,,,,,,,,,0,,,51,0
15680,note_on,320,0,0,,,,,,,,,0,,,46,0
15702,note_on,33,0,1,,,,,,,,,0,,,42,0
15703,note_on,1,0,1,,,,,,,,,0,,,54,103
15736,note_on,33,0,1,,,,,,,,,0,,,54,0
15737,note_on,1,0,1,,,,,,,,,0,,,42,104
15759,note_on,22,0,1,,,,,,,,,0,,,34,0
15770,note_on,11,0,1,,,,,,,,,0,,,42,0
15771,note_on,1,0,1,,,,,,,,,0,,,39,104
15804,note_on,33,0,1,,,,,,,,,0,,,39,0
15806,note_on,2,0,1,,,,,,,,,0,,,34,105
15837,note_on,31,0,1,,,,,,,,,0,,,34,0
15840,note_on,0,0,0,,,,,,,,,0,,,54,127
15840,note_on,0,0,0,,,,,,,,,0,,,62,127
15840,note_on,160,0,0,,,,,,,,,0,,,50,127
15841,control_change,4,0,1,,,,,,,64,0,0,,,,
15842,control_change,1,0,1,,,,,,,64,127,0,,,,
16080,note_on,0,0,1,,,,,,,,,0,,,38,0
16080,note_on,238,0,1,,,,,,,,,0,,,38,106
16080,note_on,0,0,1,,,,,,,,,0,,,38,127
16120,note_on,40,0,1,,,,,,,,,0,,,45,106
16159,note_on,39,0,1,,,,,,,,,0,,,45,0
16160,note_on,0,0,0,,,,,,,,,0,,,62,0
16160,note_on,0,0,0,,,,,,,,,0,,,54,0
16160,note_on,1,0,1,,,,,,,,,0,,,50,106
16160,note_on,320,0,0,,,,,,,,,0,,,50,0
16199,note_on,39,0,1,,,,,,,,,0,,,50,0
16200,note_on,1,0,1,,,,,,,,,0,,,57,106
16239,note_on,0,0,1,,,,,,,,,0,,,57,0
16239,note_on,39,0,1,,,,,,,,,0,,,38,0
16240,note_on,1,0,1,,,,,,,,,0,,,50,106
16279,note_on,39,0,1,,,,,,,,,0,,,50,0
16280,note_on,1,0,1,,,,,,,,,0,,,45,106
16317,note_on,37,0,1,,,,,,,,,0,,,45,0
16320,note_on,0,0,1,,,,,,,,,0,,,38,0
16320,note_on,3,0,1,,,,,,,,,0,,,38,106
16320,note_on,0,0,1,,,,,,,,,0,,,38,106
16321,control_change,1,0,1,,,,,,,64,0,0,,,,
16322,control_change,1,0,1,,,,,,,64,127,0,,,,
16547,note_on,225,0,1,,,,,,,,,0,,,38,0
16560,note_on,0,0,1,,,,,,,,,0,,,62,127
16560,note_on,13,0,1,,,,,,,,,0,,,50,127
16799,note_on,0,0,1,,,,,,,,,0,,,62,0
16799,note_on,239,0,1,,,,,,,,,0,,,50,0
16800,note_on,0,0,1,,,,,,,,,0,,,62,127
16800,set_tempo,640,1,0,,,,,,1666667,,,,,,,
16800,note_on,0,0,1,,,,,,,,,0,,,54,127
16800,note_on,1,0,1,,,,,,,,,0,,,50,127
17039,note_on,0,0,1,,,,,,,,,0,,,62,0
17039,note_on,0,0,1,,,,,,,,,0,,,54,0
17039,note_on,239,0,1,,,,,,,,,0,,,50,0
17040,note_on,0,0,1,,,,,,,,,0,,,62,127
17040,note_on,0,0,1,,,,,,,,,0,,,57,127
17040,set_tempo,240,1,0,,,,,,1875000,,,,,,,
17040,note_on,1,0,1,,,,,,,,,0,,,50,127
17279,note_on,239,0,1,,,,,,,,,0,,,50,0
17279,note_on,0,0,1,,,,,,,,,0,,,57,0
17279,note_on,0,0,1,,,,,,,,,0,,,62,0
17280,note_on,0,0,1,,,,,,,,,0,,,50,100
17280,key_signature,240,1,0,,,,,D,,,,,,,,
17280,key_signature,1,1,1,,,,,D,,,,,,,,
17280,set_tempo,0,1,0,,,,,,1500000,,,,,,,
17281,control_change,1,0,1,,,,,,,64,0,0,,,,
17282,control_change,1,0,1,,,,,,,64,127,0,,,,
17301,note_on,19,0,1,,,,,,,,,0,,,54,100
17310,note_on,30,0,0,,,,,,,,,0,,,66,84
17322,note_on,21,0,1,,,,,,,,,0,,,62,100
17339,note_on,29,0,0,,,,,,,,,0,,,66,0
17340,note_on,1,0,0,,,,,,,,,0,,,74,84
17369,note_on,29,0,0,,,,,,,,,0,,,74,0
17370,note_on,1,0,0,,,,,,,,,0,,,78,84
17399,note_on,29,0,0,,,,,,,,,0,,,78,0
17400,note_on,1,0,0,,,,,,,,,0,,,86,84
17429,note_on,29,0,0,,,,,,,,,0,,,86,0
17430,note_on,1,0,0,,,,,,,,,0,,,78,84
17459,note_on,29,0,0,,,,,,,,,0,,,78,0
17460,note_on,1,0,0,,,,,,,,,0,,,74,84
17489,note_on,29,0,0,,,,,,,,,0,,,74,0
17490,note_on,1,0,0,,,,,,,,,0,,,66,84
17517,note_on,27,0,0,,,,,,,,,0,,,66,0
17520,note_on,198,0,1,,,,,,,,,0,,,35,84
17560,note_on,40,0,1,,,,,,,,,0,,,47,84
17598,note_on,38,0,1,,,,,,,,,0,,,35,0
17599,note_on,1,0,1,,,,,,,,,0,,,47,0
17600,note_on,1,0,1,,,,,,,,,0,,,54,0
17600,note_on,0,0,1,,,,,,,,,0,,,54,84
17640,note_on,0,0,1,,,,,,,,,0,,,62,84
17640,note_on,40,0,1,,,,,,,,,0,,,62,0
17680,note_on,0,0,1,,,,,,,,,0,,,54,84
17680,note_on,40,0,1,,,,,,,,,0,,,54,0
17720,note_on,40,0,1,,,,,,,,,0,,,47,84
17757,note_on,37,0,1,,,,,,,,,0,,,47,0
17758,note_on,0,0,1,,,,,,,,,0,,,62,0
17758,note_on,1,0,1,,,,,,,,,0,,,54,0
17759,note_on,1,0,1,,,,,,,,,0,,,50,0
17760,note_on,1,0,1,,,,,,,,,0,,,49,100
17761,control_change,1,0,1,,,,,,,64,0,0,,,,
17762,control_change,1,0,1,,,,,,,64,127,0,,,,
17781,note_on,19,0,1,,,,,,,,,0,,,53,100
17790,note_on,273,0,0,,,,,,,,,0,,,65,84
17802,note_on,21,0,1,,,,,,,,,0,,,61,100
17819,note_on,29,0,0,,,,,,,,,0,,,65,0
17820,note_on,1,0,0,,,,,,,,,0,,,73,84
17849,note_on,29,0,0,,,,,,,,,0,,,73,0
17850,note_on,1,0,0,,,,,,,,,0,,,77,84
17879,note_on,29,0,0,,,,,,,,,0,,,77,0
17880,note_on,1,0,0,,,,,,,,,0,,,85,84
17909,note_on,29,0,0,,,,,,,,,0,,,85,0
17910,note_on,1,0,0,,,,,,,,,0,,,77,84
17939,note_on,29,0,0,,,,,,,,,0,,,77,0
17940,note_on,1,0,0,,,,,,,,,0,,,73,84
17969,note_on,29,0,0,,,,,,,,,0,,,73,0
17970,note_on,1,0,0,,,,,,,,,0,,,65,84
17997,note_on,27,0,0,,,,,,,,,0,,,65,0
18000,note_on,198,0,1,,,,,,,,,0,,,35,84
18040,note_on,40,0,1,,,,,,,,,0,,,47,84
18078,note_on,38,0,1,,,,,,,,,0,,,35,0
18079,note_on,1,0,1,,,,,,,,,0,,,47,0
18080,note_on,0,0,1,,,,,,,,,0,,,53,84
18080,note_on,1,0,1,,,,,,,,,0,,,53,0
18120,note_on,40,0,1,,,,,,,,,0,,,61,0
18120,note_on,0,0,1,,,,,,,,,0,,,61,84
18160,note_on,40,0,1,,,,,,,,,0,,,53,0
18160,note_on,0,0,1,,,,,,,,,0,,,53,84
18200,note_on,40,0,1,,,,,,,,,0,,,47,84
18237,note_on,37,0,1,,,,,,,,,0,,,47,0
18238,note_on,1,0,1,,,,,,,,,0,,,53,0
18238,note_on,0,0,1,,,,,,,,,0,,,61,0
18239,note_on,1,0,1,,,,,,,,,0,,,49,0
18240,note_on,1,0,1,,,,,,,,,0,,,50,100
18241,control_change,1,0,1,,,,,,,64,0,0,,,,
18242,control_change,1,0,1,,,,,,,64,127,0,,,,
18261,note_on,19,0,1,,,,,,,,,0,,,54,100
18270,note_on,273,0,0,,,,,,,,,0,,,66,84
18282,note_on,21,0,1,,,,,,,,,0,,,62,100
18299,note_on,29,0,0,,,,,,,,,0,,,66,0
18300,note_on,1,0,0,,,,,,,,,0,,,74,84
18329,note_on,29,0,0,,,,,,,,,0,,,74,0
18330,note_on,1,0,0,,,,,,,,,0,,,78,84
18359,note_on,29,0,0,,,,,,,,,0,,,78,0
18360,note_on,1,0,0,,,,,,,,,0,,,86,84
18389,note_on,29,0,0,,,,,,,,,0,,,86,0
18390,note_on,1,0,0,,,,,,,,,0,,,78,84
18419,note_on,29,0,0,,,,,,,,,0,,,78,0
18420,note_on,1,0,0,,,,,,,,,0,,,74,84
18449,note_on,29,0,0,,,,,,,,,0,,,74,0
18450,note_on,1,0,0,,,,,,,,,0,,,66,84
18477,note_on,27,0,0,,,,,,,,,0,,,66,0
18480,note_on,198,0,1,,,,,,,,,0,,,35,84
18520,note_on,40,0,1,,,,,,,,,0,,,47,84
18558,note_on,38,0,1,,,,,,,,,0,,,35,0
18559,note_on,1,0,1,,,,,,,,,0,,,47,0
18560,note_on,1,0,1,,,,,,,,,0,,,54,0
18560,note_on,0,0,1,,,,,,,,,0,,,54,84
18600,note_on,0,0,1,,,,,,,,,0,,,62,84
18600,note_on,40,0,1,,,,,,,,,0,,,62,0
18640,note_on,40,0,1,,,,,,,,,0,,,54,0
18640,note_on,0,0,1,,,,,,,,,0,,,54,84
18680,note_on,40,0,1,,,,,,,,,0,,,47,84
18718,note_on,38,0,1,,,,,,,,,0,,,54,0
18718,note_on,0,0,1,,,,,,,,,0,,,62,0
18719,note_on,1,0,1,,,,,,,,,0,,,50,0
18721,control_change,2,0,1,,,,,,,64,0,0,,,,
18722,control_change,1,0,1,,,,,,,64,127,0,,,,
18741,note_on,19,0,1,,,,,,,,,0,,,50,100
18750,note_on,273,0,0,,,,,,,,,0,,,62,84
18762,note_on,21,0,1,,,,,,,,,0,,,54,100
18779,note_on,29,0,0,,,,,,,,,0,,,62,0
18780,note_on,1,0,0,,,,,,,,,0,,,71,84
18783,note_on,21,0,1,,,,,,,,,0,,,59,100
18809,note_on,29,0,0,,,,,,,,,0,,,71,0
18810,note_on,1,0,0,,,,,,,,,0,,,74,84
18839,note_on,29,0,0,,,,,,,,,0,,,74,0
18840,note_on,1,0,0,,,,,,,,,0,,,83,84
18869,note_on,29,0,0,,,,,,,,,0,,,83,0
18870,note_on,1,0,0,,,,,,,,,0,,,74,84
18899,note_on,29,0,0,,,,,,,,,0,,,74,0
18900,note_on,1,0,0,,,,,,,,,0,,,71,84
18929,note_on,29,0,0,,,,,,,,,0,,,71,0
18930,note_on,1,0,0,,,,,,,,,0,,,62,84
18957,note_on,27,0,0,,,,,,,,,0,,,62,0
18960,note_on,177,0,1,,,,,,,,,0,,,35,84
19000,note_on,40,0,1,,,,,,,,,0,,,47,0
19000,note_on,0,0,1,,,,,,,,,0,,,47,84
19038,note_on,38,0,1,,,,,,,,,0,,,35,0
19040,note_on,0,0,1,,,,,,,,,0,,,54,84
19040,note_on,2,0,1,,,,,,,,,0,,,54,0
19080,note_on,0,0,1,,,,,,,,,0,,,59,84
19080,note_on,40,0,1,,,,,,,,,0,,,59,0
19120,note_on,0,0,1,,,,,,,,,0,,,54,84
19120,note_on,40,0,1,,,,,,,,,0,,,54,0
19160,note_on,40,0,1,,,,,,,,,0,,,47,0
19160,note_on,0,0,1,,,,,,,,,0,,,47,84
19197,note_on,37,0,1,,,,,,,,,0,,,47,0
19198,note_on,0,0,1,,,,,,,,,0,,,59,0
19198,note_on,1,0,1,,,,,,,,,0,,,50,0
19198,note_on,0,0,1,,,,,,,,,0,,,54,0
19200,note_on,2,0,1,,,,,,,,,0,,,52,100
19201,control_change,1,0,1,,,,,,,64,0,0,,,,
19202,control_change,1,0,1,,,,,,,64,127,0,,,,
19221,note_on,19,0,1,,,,,,,,,0,,,55,100
19230,note_on,273,0,0,,,,,,,,,0,,,67,84
19242,note_on,21,0,1,,,,,,,,,0,,,64,100
19259,note_on,29,0,0,,,,,,,,,0,,,67,0
19260,note_on,1,0,0,,,,,,,,,0,,,76,84
19289,note_on,29,0,0,,,,,,,,,0,,,76,0
19290,note_on,1,0,0,,,,,,,,,0,,,79,84
19319,note_on,29,0,0,,,,,,,,,0,,,79,0
19320,note_on,1,0,0,,,,,,,,,0,,,88,84
19349,note_on,29,0,0,,,,,,,,,0,,,88,0
19350,note_on,1,0,0,,,,,,,,,0,,,79,84
19379,note_on,29,0,0,,,,,,,,,0,,,79,0
19380,note_on,1,0,0,,,,,,,,,0,,,76,84
19409,note_on,29,0,0,,,,,,,,,0,,,76,0
19410,note_on,1,0,0,,,,,,,,,0,,,67,84
19437,note_on,27,0,0,,,,,,,,,0,,,67,0
19440,note_on,198,0,1,,,,,,,,,0,,,35,84
19480,note_on,40,0,1,,,,,,,,,0,,,47,84
19518,note_on,38,0,1,,,,,,,,,0,,,35,0
19519,note_on,1,0,1,,,,,,,,,0,,,47,0
19520,note_on,0,0,1,,,,,,,,,0,,,55,84
19520,note_on,1,0,1,,,,,,,,,0,,,55,0
19560,note_on,40,0,1,,,,,,,,,0,,,64,0
19560,note_on,0,0,1,,,,,,,,,0,,,64,84
19600,note_on,40,0,1,,,,,,,,,0,,,55,0
19600,note_on,0,0,1,,,,,,,,,0,,,55,84
19640,note_on,40,0,1,,,,,,,,,0,,,47,84
19677,note_on,37,0,1,,,,,,,,,0,,,47,0
19678,note_on,1,0,1,,,,,,,,,0,,,55,0
19678,note_on,0,0,1,,,,,,,,,0,,,64,0
19679,note_on,1,0,1,,,,,,,,,0,,,52,0
19680,note_on,1,0,1,,,,,,,,,0,,,50,100
19681,control_change,1,0,1,,,,,,,64,0,0,,,,
19682,control_change,1,0,1,,,,,,,64,127,0,,,,
19701,note_on,19,0,1,,,,,,,,,0,,,54,100
19710,note_on,273,0,0,,,,,,,,,0,,,66,84
19722,note_on,21,0,1,,,,,,,,,0,,,62,100
19739,note_on,29,0,0,,,,,,,,,0,,,66,0
19740,note_on,1,0,0,,,,,,,,,0,,,74,84
19769,note_on,29,0,0,,,,,,,,,0,,,74,0
19770,note_on,1,0,0,,,,,,,,,0,,,78,84
19799,note_on,29,0,0,,,,,,,,,0,,,78,0
19800,note_on,1,0,0,,,,,,,,,0,,,86,84
19829,note_on,29,0,0,,,,,,,,,0,,,86,0
19830,note_on,1,0,0,,,,,,,,,0,,,78,84
19859,note_on,29,0,0,,,,,,,,,0,,,78,0
19860,note_on,1,0,0,,,,,,,,,0,,,74,84
19889,note_on,29,0,0,,,,,,,,,0,,,74,0
19890,note_on,1,0,0,,,,,,,,,0,,,66,84
19917,note_on,27,0,0,,,,,,,,,0,,,66,0
19920,note_on,198,0,1,,,,,,,,,0,,,35,84
19960,note_on,40,0,1,,,,,,,,,0,,,47,84
19998,note_on,38,0,1,,,,,,,,,0,,,35,0
19999,note_on,1,0,1,,,,,,,,,0,,,47,0
20000,note_on,0,0,1,,,,,,,,,0,,,54,84
20000,note_on,1,0,1,,,,,,,,,0,,,54,0
20040,note_on,40,0,1,,,,,,,,,0,,,62,0
20040,note_on,0,0,1,,,,,,,,,0,,,62,84
20080,note_on,0,0,1,,,,,,,,,0,,,54,84
20080,note_on,40,0,1,,,,,,,,,0,,,54,0
20120,note_on,40,0,1,,,,,,,,,0,,,47,84
20157,note_on,37,0,1,,,,,,,,,0,,,47,0
20158,note_on,1,0,1,,,,,,,,,0,,,54,0
20158,note_on,0,0,1,,,,,,,,,0,,,62,0
20159,note_on,1,0,1,,,,,,,,,0,,,50,0
20160,note_on,1,0,1,,,,,,,,,0,,,48,100
20161,control_change,1,0,1,,,,,,,64,0,0,,,,
20162,control_change,1,0,1,,,,,,,64,127,0,,,,
20181,note_on,19,0,1,,,,,,,,,0,,,52,100
20190,note_on,273,0,0,,,,,,,,,0,,,64,84
20202,note_on,21,0,1,,,,,,,,,0,,,60,100
20219,note_on,29,0,0,,,,,,,,,0,,,64,0
20220,note_on,1,0,0,,,,,,,,,0,,,72,84
20249,note_on,29,0,0,,,,,,,,,0,,,72,0
20250,note_on,1,0,0,,,,,,,,,0,,,76,84
20279,note_on,29,0,0,,,,,,,,,0,,,76,0
20280,note_on,1,0,0,,,,,,,,,0,,,84,84
20309,note_on,29,0,0,,,,,,,,,0,,,84,0
20310,note_on,1,0,0,,,,,,,,,0,,,76,84
20339,note_on,29,0,0,,,,,,,,,0,,,76,0
20340,note_on,1,0,0,,,,,,,,,0,,,72,84
20369,note_on,29,0,0,,,,,,,,,0,,,72,0
20370,note_on,1,0,0,,,,,,,,,0,,,64,84
20397,note_on,27,0,0,,,,,,,,,0,,,64,0
20400,note_on,198,0,1,,,,,,,,,0,,,40,84
20440,note_on,40,0,1,,,,,,,,,0,,,48,0
20440,note_on,0,0,1,,,,,,,,,0,,,48,84
20478,note_on,38,0,1,,,,,,,,,0,,,40,0
20480,note_on,2,0,1,,,,,,,,,0,,,55,84
20519,note_on,39,0,1,,,,,,,,,0,,,55,0
20520,note_on,0,0,1,,,,,,,,,0,,,60,84
20520,note_on,1,0,1,,,,,,,,,0,,,60,0
20560,note_on,40,0,1,,,,,,,,,0,,,55,84
20599,note_on,39,0,1,,,,,,,,,0,,,55,0
20600,note_on,1,0,1,,,,,,,,,0,,,48,0
20600,note_on,0,0,1,,,,,,,,,0,,,48,84
20638,note_on,38,0,1,,,,,,,,,0,,,52,0
20638,note_on,0,0,1,,,,,,,,,0,,,60,0
20639,note_on,1,0,1,,,,,,,,,0,,,48,0
20640,note_on,1,0,1,,,,,,,,,0,,,43,100
20641,control_change,1,0,1,,,,,,,64,0,0,,,,
20642,control_change,1,0,1,,,,,,,64,127,0,,,,
20661,note_on,19,0,1,,,,,,,,,0,,,48,100
20670,note_on,273,0,0,,,,,,,,,0,,,60,84
20682,note_on,21,0,1,,,,,,,,,0,,,52,100
20699,note_on,29,0,0,,,,,,,,,0,,,60,0
20700,note_on,1,0,0,,,,,,,,,0,,,67,84
20703,note_on,21,0,1,,,,,,,,,0,,,55,100
20729,note_on,29,0,0,,,,,,,,,0,,,67,0
20730,note_on,1,0,0,,,,,,,,,0,,,72,84
20759,note_on,29,0,0,,,,,,,,,0,,,72,0
20760,note_on,1,0,0,,,,,,,,,0,,,79,84
20789,note_on,29,0,0,,,,,,,,,0,,,79,0
20790,note_on,1,0,0,,,,,,,,,0,,,72,84
20819,note_on,29,0,0,,,,,,,,,0,,,72,0
20820,note_on,1,0,0,,,,,,,,,0,,,67,84
20849,note_on,29,0,0,,,,,,,,,0,,,67,0
20850,note_on,1,0,0,,,,,,,,,0,,,60,84
20877,note_on,27,0,0,,,,,,,,,0,,,60,0
20880,note_on,177,0,1,,,,,,,,,0,,,28,84
20920,note_on,40,0,1,,,,,,,,,0,,,40,84
20958,note_on,38,0,1,,,,,,,,,0,,,28,0
20959,note_on,1,0,1,,,,,,,,,0,,,40,0
20960,note_on,1,0,1,,,,,,,,,0,,,48,0
20960,note_on,0,0,1,,,,,,,,,0,,,48,84
21000,note_on,0,0,1,,,,,,,,,0,,,55,84
21000,note_on,40,0,1,,,,,,,,,0,,,55,0
21040,note_on,0,0,1,,,,,,,,,0,,,48,84
21040,note_on,40,0,1,,,,,,,,,0,,,48,0
21080,note_on,40,0,1,,,,,,,,,0,,,40,84
21117,note_on,37,0,1,,,,,,,,,0,,,40,0
21118,note_on,1,0,1,,,,,,,,,0,,,48,0
21118,note_on,0,0,1,,,,,,,,,0,,,55,0
21118,note_on,0,0,1,,,,,,,,,0,,,52,0
21119,note_on,1,0,1,,,,,,,,,0,,,43,0
21120,note_on,1,0,1,,,,,,,,,0,,,47,100
21121,control_change,1,0,1,,,,,,,64,0,0,,,,
21122,control_change,1,0,1,,,,,,,64,127,0,,,,
21141,note_on,19,0,1,,,,,,,,,0,,,50,100
21150,note_on,273,0,0,,,,,,,,,0,,,62,84
21162,note_on,21,0,1,,,,,,,,,0,,,56,100
21179,note_on,29,0,0,,,,,,,,,0,,,62,0
21180,note_on,1,0,0,,,,,,,,,0,,,71,84
21183,note_on,21,0,1,,,,,,,,,0,,,59,100
21209,note_on,29,0,0,,,,,,,,,0,,,71,0
21210,note_on,1,0,0,,,,,,,,,0,,,74,84
21239,note_on,29,0,0,,,,,,,,,0,,,74,0
21240,note_on,1,0,0,,,,,,,,,0,,,83,84
21269,note_on,29,0,0,,,,,,,,,0,,,83,0
21270,note_on,1,0,0,,,,,,,,,0,,,74,84
21299,note_on,29,0,0,,,,,,,,,0,,,74,0
21300,note_on,1,0,0,,,,,,,,,0,,,71,84
21329,note_on,29,0,0,,,,,,,,,0,,,71,0
21330,note_on,1,0,0,,,,,,,,,0,,,62,84
21357,note_on,27,0,0,,,,,,,,,0,,,62,0
21360,note_on,177,0,1,,,,,,,,,0,,,29,84
21400,note_on,40,0,1,,,,,,,,,0,,,41,84
21438,note_on,38,0,1,,,,,,,,,0,,,29,0
21439,note_on,1,0,1,,,,,,,,,0,,,41,0
21440,note_on,0,0,1,,,,,,,,,0,,,47,84
21440,note_on,0,0,1,,,,,,,,,0,,,50,0
21440,note_on,0,0,1,,,,,,,,,0,,,50,84
21440,note_on,1,0,1,,,,,,,,,0,,,47,0
21480,note_on,0,0,1,,,,,,,,,0,,,56,84
21480,note_on,40,0,1,,,,,,,,,0,,,56,0
21520,note_on,40,0,1,,,,,,,,,0,,,47,0
21520,note_on,0,0,1,,,,,,,,,0,,,50,0
21520,note_on,0,0,1,,,,,,,,,0,,,50,84
21520,note_on,0,0,1,,,,,,,,,0,,,47,84
21560,note_on,40,0,1,,,,,,,,,0,,,41,84
21597,note_on,37,0,1,,,,,,,,,0,,,41,0
21598,note_on,1,0,1,,,,,,,,,0,,,50,0
21598,note_on,0,0,1,,,,,,,,,0,,,59,0
21598,note_on,0,0,1,,,,,,,,,0,,,56,0
21599,note_on,1,0,1,,,,,,,,,0,,,47,0
21600,note_on,1,0,1,,,,,,,,,0,,,47,100
21601,control_change,1,0,1,,,,,,,64,0,0,,,,
21602,control_change,1,0,1,,,,,,,64,127,0,,,,
21621,note_on,19,0,1,,,,,,,,,0,,,50,100
21630,note_on,273,0,0,,,,,,,,,0,,,62,84
21642,note_on,21,0,1,,,,,,,,,0,,,59,100
21659,note_on,29,0,0,,,,,,,,,0,,,62,0
21660,note_on,1,0,0,,,,,,,,,0,,,71,84
21689,note_on,29,0,0,,,,,,,,,0,,,71,0
21690,note_on,1,0,0,,,,,,,,,0,,,74,84
21719,note_on,29,0,0,,,,,,,,,0,,,74,0
21720,note_on,1,0,0,,,,,,,,,0,,,83,84
21749,note_on,29,0,0,,,,,,,,,0,,,83,0
21750,note_on,1,0,0,,,,,,,,,0,,,74,84
21779,note_on,29,0,0,,,,,,,,,0,,,74,0
21780,note_on,1,0,0,,,,,,,,,0,,,71,84
21809,note_on,29,0,0,,,,,,,,,0,,,71,0
21810,note_on,1,0,0,,,,,,,,,0,,,62,84
21837,note_on,27,0,0,,,,,,,,,0,,,62,0
21840,note_on,198,0,1,,,,,,,,,0,,,30,84
21880,note_on,40,0,1,,,,,,,,,0,,,42,84
21918,note_on,38,0,1,,,,,,,,,0,,,30,0
21919,note_on,1,0,1,,,,,,,,,0,,,42,0
21920,note_on,0,0,1,,,,,,,,,0,,,50,84
21920,note_on,1,0,1,,,,,,,,,0,,,50,0
21960,note_on,0,0,1,,,,,,,,,0,,,59,84
21960,note_on,40,0,1,,,,,,,,,0,,,59,0
22000,note_on,0,0,1,,,,,,,,,0,,,50,83
22000,note_on,40,0,1,,,,,,,,,0,,,50,0
22040,note_on,40,0,1,,,,,,,,,0,,,42,83
22077,note_on,37,0,1,,,,,,,,,0,,,42,0
22078,note_on,0,0,1,,,,,,,,,0,,,59,0
22078,note_on,1,0,1,,,,,,,,,0,,,50,0
22079,note_on,1,0,1,,,,,,,,,0,,,47,0
22080,note_on,1,0,1,,,,,,,,,0,,,46,98
22081,control_change,1,0,1,,,,,,,64,0,0,,,,
22082,control_change,1,0,1,,,,,,,64,127,0,,,,
22101,note_on,19,0,1,,,,,,,,,0,,,49,98
22110,note_on,273,0,0,,,,,,,,,0,,,61,82
22122,note_on,21,0,1,,,,,,,,,0,,,58,97
22139,note_on,29,0,0,,,,,,,,,0,,,61,0
22140,note_on,1,0,0,,,,,,,,,0,,,70,81
22169,note_on,29,0,0,,,,,,,,,0,,,70,0
22170,note_on,1,0,0,,,,,,,,,0,,,73,81
22199,note_on,29,0,0,,,,,,,,,0,,,73,0
22200,note_on,1,0,0,,,,,,,,,0,,,82,80
22229,note_on,29,0,0,,,,,,,,,0,,,82,0
22230,note_on,1,0,0,,,,,,,,,0,,,73,80
22259,note_on,29,0,0,,,,,,,,,0,,,73,0
22260,note_on,1,0,0,,,,,,,,,0,,,70,79
22289,note_on,29,0,0,,,,,,,,,0,,,70,0
22290,note_on,1,0,0,,,,,,,,,0,,,61,79
22317,note_on,27,0,0,,,,,,,,,0,,,61,0
22320,note_on,198,0,1,,,,,,,,,0,,,30,78
22360,note_on,40,0,1,,,,,,,,,0,,,42,78
22398,note_on,38,0,1,,,,,,,,,0,,,30,0
22399,note_on,1,0,1,,,,,,,,,0,,,42,0
22400,note_on,0,0,1,,,,,,,,,0,,,49,77
22400,note_on,1,0,1,,,,,,,,,0,,,49,0
22440,note_on,0,0,1,,,,,,,,,0,,,58,76
22440,note_on,40,0,1,,,,,,,,,0,,,58,0
22480,note_on,40,0,1,,,,,,,,,0,,,49,0
22480,note_on,0,0,1,,,,,,,,,0,,,49,76
22520,note_on,40,0,1,,,,,,,,,0,,,42,75
22557,note_on,37,0,1,,,,,,,,,0,,,42,0
22558,note_on,0,0,1,,,,,,,,,0,,,58,0
22558,note_on,1,0,1,,,,,,,,,0,,,49,0
22559,note_on,1,0,1,,,,,,,,,0,,,46,0
22560,note_on,1,0,1,,,,,,,,,0,,,46,88
22561,control_change,1,0,1,,,,,,,64,0,0,,,,
22562,control_change,1,0,1,,,,,,,64,127,0,,,,
22581,note_on,19,0,1,,,,,,,,,0,,,49,88
22590,note_on,273,0,0,,,,,,,,,0,,,58,74
22602,note_on,21,0,1,,,,,,,,,0,,,54,88
22619,note_on,29,0,0,,,,,,,,,0,,,58,0
22620,note_on,1,0,0,,,,,,,,,0,,,66,74
22649,note_on,29,0,0,,,,,,,,,0,,,66,0
22650,note_on,1,0,0,,,,,,,,,0,,,70,74
22679,note_on,29,0,0,,,,,,,,,0,,,70,0
22680,note_on,1,0,0,,,,,,,,,0,,,78,74
22709,note_on,29,0,0,,,,,,,,,0,,,78,0
22710,note_on,1,0,0,,,,,,,,,0,,,70,74
22739,note_on,29,0,0,,,,,,,,,0,,,70,0
22740,note_on,1,0,0,,,,,,,,,0,,,66,74
22769,note_on,29,0,0,,,,,,,,,0,,,66,0
22770,note_on,1,0,0,,,,,,,,,0,,,58,74
22797,note_on,27,0,0,,,,,,,,,0,,,58,0
22800,note_on,198,0,1,,,,,,,,,0,,,30,74
22840,note_on,40,0,1,,,,,,,,,0,,,42,74
22878,note_on,38,0,1,,,,,,,,,0,,,30,0
22879,note_on,1,0,1,,,,,,,,,0,,,42,0
22880,note_on,0,0,1,,,,,,,,,0,,,49,74
22880,note_on,1,0,1,,,,,,,,,0,,,49,0
22920,note_on,40,0,1,,,,,,,,,0,,,54,0
22920,note_on,0,0,1,,,,,,,,,0,,,54,74
22960,note_on,40,0,1,,,,,,,,,0,,,49,0
22960,note_on,0,0,1,,,,,,,,,0,,,49,74
23000,note_on,40,0,1,,,,,,,,,0,,,42,74
23037,note_on,37,0,1,,,,,,,,,0,,,42,0
23038,note_on,0,0,1,,,,,,,,,0,,,54,0
23038,note_on,1,0,1,,,,,,,,,0,,,49,0
23039,note_on,1,0,1,,,,,,,,,0,,,46,0
23040,note_on,1,0,1,,,,,,,,,0,,,50,100
23041,control_change,1,0,1,,,,,,,64,0,0,,,,
23042,control_change,1,0,1,,,,,,,64,127,0,,,,
23061,note_on,19,0,1,,,,,,,,,0,,,54,100
23070,note_on,273,0,0,,,,,,,,,0,,,62,84
23082,note_on,12,0,0,,,,,,,,,0,,,62,0
23082,note_on,21,0,1,,,,,,,,,0,,,62,100
23100,note_on,18,0,0,,,,,,,,,0,,,74,84
23129,note_on,29,0,0,,,,,,,,,0,,,74,0
23130,note_on,1,0,0,,,,,,,,,0,,,78,84
23159,note_on,29,0,0,,,,,,,,,0,,,78,0
23160,note_on,0,0,0,,,,,,,,,0,,,86,0
23160,note_on,0,0,0,,,,,,,,,0,,,86,84
23160,note_on,1,0,0,,,,,,,,,0,,,86,84
23190,note_on,30,0,0,,,,,,,,,0,,,78,84
23219,note_on,29,0,0,,,,,,,,,0,,,78,0
23220,note_on,1,0,0,,,,,,,,,0,,,74,84
23249,note_on,29,0,0,,,,,,,,,0,,,74,0
23250,note_on,168,0,1,,,,,,,,,0,,,62,0
23250,note_on,1,0,0,,,,,,,,,0,,,62,84
23280,note_on,30,0,1,,,,,,,,,0,,,35,84
23320,note_on,40,0,1,,,,,,,,,0,,,47,84
23358,note_on,38,0,1,,,,,,,,,0,,,35,0
23359,note_on,1,0,1,,,,,,,,,0,,,47,0
23360,note_on,1,0,1,,,,,,,,,0,,,54,0
23360,note_on,0,0,1,,,,,,,,,0,,,54,84
23399,note_on,149,0,0,,,,,,,,,0,,,86,0
23400,note_on,1,0,0,,,,,,,,,0,,,62,0
23400,note_on,40,0,1,,,,,,,,,0,,,62,84
23440,note_on,0,0,1,,,,,,,,,0,,,54,84
23440,note_on,40,0,1,,,,,,,,,0,,,54,0
23480,note_on,40,0,1,,,,,,,,,0,,,47,84
23517,note_on,37,0,1,,,,,,,,,0,,,47,0
23518,note_on,0,0,1,,,,,,,,,0,,,62,0
23518,note_on,1,0,1,,,,,,,,,0,,,54,0
23519,note_on,1,0,1,,,,,,,,,0,,,50,0
23520,note_on,1,0,1,,,,,,,,,0,,,49,100
23521,control_change,1,0,1,,,,,,,64,0,0,,,,
23522,control_change,1,0,1,,,,,,,64,127,0,,,,
23541,note_on,19,0,1,,,,,,,,,0,,,53,100
23550,note_on,150,0,0,,,,,,,,,0,,,65,84
23562,note_on,21,0,1,,,,,,,,,0,,,61,100
23579,note_on,29,0,0,,,,,,,,,0,,,65,0
23580,note_on,1,0,0,,,,,,,,,0,,,73,84
23609,note_on,29,0,0,,,,,,,,,0,,,73,0
23610,note_on,1,0,0,,,,,,,,,0,,,77,84
23639,note_on,29,0,0,,,,,,,,,0,,,77,0
23640,note_on,1,0,0,,,,,,,,,0,,,85,84
23640,note_on,0,0,0,,,,,,,,,0,,,85,84
23640,note_on,0,0,0,,,,,,,,,0,,,85,0
23670,note_on,30,0,0,,,,,,,,,0,,,77,84
23699,note_on,29,0,0,,,,,,,,,0,,,77,0
23700,note_on,1,0,0,,,,,,,,,0,,,73,84
23729,note_on,29,0,0,,,,,,,,,0,,,73,0
23730,note_on,1,0,0,,,,,,,,,0,,,65,84
23757,note_on,27,0,0,,,,,,,,,0,,,65,0
23760,note_on,198,0,1,,,,,,,,,0,,,35,84
23800,note_on,40,0,1,,,,,,,,,0,,,47,84
23838,note_on,38,0,1,,,,,,,,,0,,,35,0
23839,note_on,1,0,1,,,,,,,,,0,,,47,0
23840,note_on,1,0,1,,,,,,,,,0,,,53,0
23840,note_on,0,0,1,,,,,,,,,0,,,53,84
23879,note_on,122,0,0,,,,,,,,,0,,,85,0
23880,note_on,0,0,1,,,,,,,,,0,,,61,84
23880,note_on,40,0,1,,,,,,,,,0,,,61,0
23920,note_on,40,0,1,,,,,,,,,0,,,53,0
23920,note_on,0,0,1,,,,,,,,,0,,,53,84
23960,note_on,40,0,1,,,,,,,,,0,,,47,84
23997,note_on,37,0,1,,,,,,,,,0,,,47,0
23998,note_on,1,0,1,,,,,,,,,0,,,53,0
23998,note_on,0,0,1,,,,,,,,,0,,,61,0
23999,note_on,1,0,1,,,,,,,,,0,,,49,0
24000,note_on,1,0,1,,,,,,,,,0,,,50,102
24001,control_change,1,0,1,,,,,,,64,0,0,,,,
24002,control_change,1,0,1,,,,,,,64,127,0,,,,
24021,note_on,19,0,1,,,,,,,,,0,,,54,102
24030,note_on,151,0,0,,,,,,,,,0,,,66,85
24042,note_on,21,0,1,,,,,,,,,0,,,62,102
24059,note_on,29,0,0,,,,,,,,,0,,,66,0
24060,note_on,1,0,0,,,,,,,,,0,,,74,85
24089,note_on,29,0,0,,,,,,,,,0,,,74,0
24090,note_on,1,0,0,,,,,,,,,0,,,78,85
24119,note_on,29,0,0,,,,,,,,,0,,,78,0
24120,note_on,0,0,0,,,,,,,,,0,,,86,0
24120,note_on,0,0,0,,,,,,,,,0,,,86,85
24120,note_on,1,0,0,,,,,,,,,0,,,86,85
24150,note_on,30,0,0,,,,,,,,,0,,,78,85
24179,note_on,29,0,0,,,,,,,,,0,,,78,0
24180,note_on,1,0,0,,,,,,,,,0,,,74,85
24209,note_on,29,0,0,,,,,,,,,0,,,74,0
24210,note_on,1,0,0,,,,,,,,,0,,,66,86
24237,note_on,27,0,0,,,,,,,,,0,,,66,0
24240,note_on,198,0,1,,,,,,,,,0,,,35,86
24280,note_on,40,0,1,,,,,,,,,0,,,47,86
24318,note_on,38,0,1,,,,,,,,,0,,,35,0
24319,note_on,1,0,1,,,,,,,,,0,,,47,0
24320,note_on,0,0,1,,,,,,,,,0,,,54,86
24320,note_on,1,0,1,,,,,,,,,0,,,54,0
24359,note_on,122,0,0,,,,,,,,,0,,,86,0
24360,note_on,0,0,1,,,,,,,,,0,,,62,86
24360,note_on,40,0,1,,,,,,,,,0,,,62,0
24400,note_on,40,0,1,,,,,,,,,0,,,54,0
24400,note_on,0,0,1,,,,,,,,,0,,,54,86
24440,note_on,40,0,1,,,,,,,,,0,,,47,87
24478,note_on,0,0,1,,,,,,,,,0,,,62,0
24478,note_on,38,0,1,,,,,,,,,0,,,54,0
24479,note_on,1,0,1,,,,,,,,,0,,,50,0
24481,control_change,2,0,1,,,,,,,64,0,0,,,,
24482,control_change,1,0,1,,,,,,,64,127,0,,,,
24501,note_on,19,0,1,,,,,,,,,0,,,50,104
24510,note_on,151,0,0,,,,,,,,,0,,,62,87
24522,note_on,21,0,1,,,,,,,,,0,,,54,104
24539,note_on,29,0,0,,,,,,,,,0,,,62,0
24540,note_on,1,0,0,,,,,,,,,0,,,71,87
24543,note_on,21,0,1,,,,,,,,,0,,,59,104
24569,note_on,29,0,0,,,,,,,,,0,,,71,0
24570,note_on,1,0,0,,,,,,,,,0,,,74,87
24599,note_on,29,0,0,,,,,,,,,0,,,74,0
24600,note_on,1,0,0,,,,,,,,,0,,,83,87
24600,note_on,0,0,0,,,,,,,,,0,,,83,0
24600,note_on,0,0,0,,,,,,,,,0,,,83,87
24630,note_on,30,0,0,,,,,,,,,0,,,74,87
24659,note_on,29,0,0,,,,,,,,,0,,,74,0
24660,note_on,1,0,0,,,,,,,,,0,,,71,88
24689,note_on,29,0,0,,,,,,,,,0,,,71,0
24690,note_on,1,0,0,,,,,,,,,0,,,62,88
24717,note_on,27,0,0,,,,,,,,,0,,,62,0
24720,note_on,177,0,1,,,,,,,,,0,,,35,88
24760,note_on,40,0,1,,,,,,,,,0,,,47,0
24760,note_on,0,0,1,,,,,,,,,0,,,47,88
24798,note_on,38,0,1,,,,,,,,,0,,,35,0
24800,note_on,2,0,1,,,,,,,,,0,,,54,0
24800,note_on,0,0,1,,,,,,,,,0,,,54,88
24839,note_on,122,0,0,,,,,,,,,0,,,83,0
24840,note_on,40,0,1,,,,,,,,,0,,,62,88
24879,note_on,39,0,1,,,,,,,,,0,,,62,0
24880,note_on,1,0,1,,,,,,,,,0,,,54,0
24880,note_on,0,0,1,,,,,,,,,0,,,54,89
24920,note_on,0,0,1,,,,,,,,,0,,,47,89
24920,note_on,40,0,1,,,,,,,,,0,,,47,0
24957,note_on,37,0,1,,,,,,,,,0,,,47,0
24958,note_on,0,0,1,,,,,,,,,0,,,59,0
24958,note_on,0,0,1,,,,,,,,,0,,,54,0
24958,note_on,1,0,1,,,,,,,,,0,,,50,0
24960,note_on,2,0,1,,,,,,,,,0,,,52,106
24961,control_change,1,0,1,,,,,,,64,0,0,,,,
24962,control_change,1,0,1,,,,,,,64,127,0,,,,
24981,note_on,19,0,1,,,,,,,,,0,,,55,106
24990,note_on,151,0,0,,,,,,,,,0,,,67,89
25002,note_on,21,0,1,,,,,,,,,0,,,64,106
25019,note_on,29,0,0,,,,,,,,,0,,,67,0
25020,note_on,1,0,0,,,,,,,,,0,,,76,89
25049,note_on,29,0,0,,,,,,,,,0,,,76,0
25050,note_on,1,0,0,,,,,,,,,0,,,79,89
25079,note_on,29,0,0,,,,,,,,,0,,,79,0
25080,note_on,0,0,0,,,,,,,,,0,,,88,0
25080,note_on,1,0,0,,,,,,,,,0,,,88,89
25080,note_on,0,0,0,,,,,,,,,0,,,88,89
25110,note_on,30,0,0,,,,,,,,,0,,,79,90
25139,note_on,29,0,0,,,,,,,,,0,,,79,0
25140,note_on,1,0,0,,,,,,,,,0,,,76,90
25169,note_on,29,0,0,,,,,,,,,0,,,76,0
25170,note_on,1,0,0,,,,,,,,,0,,,67,90
25197,note_on,27,0,0,,,,,,,,,0,,,67,0
25200,note_on,198,0,1,,,,,,,,,0,,,35,90
25240,note_on,40,0,1,,,,,,,,,0,,,47,90
25278,note_on,38,0,1,,,,,,,,,0,,,35,0
25279,note_on,1,0,1,,,,,,,,,0,,,47,0
25280,note_on,1,0,1,,,,,,,,,0,,,55,0
25280,note_on,0,0,1,,,,,,,,,0,,,55,90
25319,note_on,122,0,0,,,,,,,,,0,,,88,0
25320,note_on,40,0,1,,,,,,,,,0,,,62,91
25359,note_on,39,0,1,,,,,,,,,0,,,62,0
25360,note_on,0,0,1,,,,,,,,,0,,,55,91
25360,note_on,1,0,1,,,,,,,,,0,,,55,0
25400,note_on,40,0,1,,,,,,,,,0,,,47,91
25437,note_on,37,0,1,,,,,,,,,0,,,47,0
25438,note_on,1,0,1,,,,,,,,,0,,,55,0
25438,note_on,0,0,1,,,,,,,,,0,,,64,0
25439,note_on,1,0,1,,,,,,,,,0,,,52,0
25440,note_on,1,0,1,,,,,,,,,0,,,53,109
25441,control_change,1,0,1,,,,,,,64,0,0,,,,
25442,control_change,1,0,1,,,,,,,64,127,0,,,,
25461,note_on,19,0,1,,,,,,,,,0,,,56,109
25470,note_on,151,0,0,,,,,,,,,0,,,68,91
25482,note_on,21,0,1,,,,,,,,,0,,,65,109
25499,note_on,29,0,0,,,,,,,,,0,,,68,0
25500,note_on,1,0,0,,,,,,,,,0,,,77,91
25529,note_on,29,0,0,,,,,,,,,0,,,77,0
25530,note_on,1,0,0,,,,,,,,,0,,,80,91
25559,note_on,29,0,0,,,,,,,,,0,,,80,0
25560,note_on,1,0,0,,,,,,,,,0,,,89,92
25560,note_on,0,0,0,,,,,,,,,0,,,89,92
25560,note_on,0,0,0,,,,,,,,,0,,,89,0
25590,note_on,30,0,0,,,,,,,,,0,,,80,92
25619,note_on,29,0,0,,,,,,,,,0,,,80,0
25620,note_on,1,0,0,,,,,,,,,0,,,77,92
25649,note_on,29,0,0,,,,,,,,,0,,,77,0
25650,note_on,1,0,0,,,,,,,,,0,,,68,92
25677,note_on,27,0,0,,,,,,,,,0,,,68,0
25680,note_on,198,0,1,,,,,,,,,0,,,34,92
25720,note_on,40,0,1,,,,,,,,,0,,,46,92
25758,note_on,38,0,1,,,,,,,,,0,,,34,0
25759,note_on,1,0,1,,,,,,,,,0,,,46,0
25760,note_on,0,0,1,,,,,,,,,0,,,56,92
25760,note_on,1,0,1,,,,,,,,,0,,,56,0
25799,note_on,122,0,0,,,,,,,,,0,,,89,0
25800,note_on,40,0,1,,,,,,,,,0,,,62,93
25839,note_on,39,0,1,,,,,,,,,0,,,62,0
25840,note_on,0,0,1,,,,,,,,,0,,,56,93
25840,note_on,1,0,1,,,,,,,,,0,,,56,0
25880,note_on,40,0,1,,,,,,,,,0,,,46,93
25917,note_on,37,0,1,,,,,,,,,0,,,46,0
25918,note_on,1,0,1,,,,,,,,,0,,,56,0
25918,note_on,0,0,1,,,,,,,,,0,,,65,0
25919,note_on,1,0,1,,,,,,,,,0,,,53,0
25920,note_on,1,0,1,,,,,,,,,0,,,54,111
25921,control_change,1,0,1,,,,,,,64,0,0,,,,
25922,control_change,1,0,1,,,,,,,64,127,0,,,,
25941,note_on,19,0,1,,,,,,,,,0,,,57,111
25950,note_on,151,0,0,,,,,,,,,0,,,69,93
25962,note_on,21,0,1,,,,,,,,,0,,,62,111
25979,note_on,29,0,0,,,,,,,,,0,,,69,0
25980,note_on,1,0,0,,,,,,,,,0,,,78,93
25983,note_on,21,0,1,,,,,,,,,0,,,66,111
26009,note_on,29,0,0,,,,,,,,,0,,,78,0
26010,note_on,1,0,0,,,,,,,,,0,,,81,94
26039,note_on,29,0,0,,,,,,,,,0,,,81,0
26040,note_on,1,0,0,,,,,,,,,0,,,90,94
26040,note_on,0,0,0,,,,,,,,,0,,,90,94
26040,note_on,0,0,0,,,,,,,,,0,,,90,0
26070,note_on,30,0,0,,,,,,,,,0,,,81,94
26099,note_on,29,0,0,,,,,,,,,0,,,81,0
26100,note_on,1,0,0,,,,,,,,,0,,,78,94
26129,note_on,29,0,0,,,,,,,,,0,,,78,0
26130,note_on,1,0,0,,,,,,,,,0,,,69,94
26157,note_on,27,0,0,,,,,,,,,0,,,69,0
26160,note_on,177,0,1,,,,,,,,,0,,,33,94
26200,note_on,40,0,1,,,,,,,,,0,,,45,94
26237,note_on,37,0,1,,,,,,,,,0,,,45,0
26238,note_on,1,0,1,,,,,,,,,0,,,33,0
26240,note_on,2,0,1,,,,,,,,,0,,,54,0
26240,note_on,0,0,1,,,,,,,,,0,,,54,95
26279,note_on,122,0,0,,,,,,,,,0,,,90,0
26280,note_on,40,0,1,,,,,,,,,0,,,62,0
26280,note_on,0,0,1,,,,,,,,,0,,,62,95
26320,note_on,0,0,1,,,,,,,,,0,,,54,95
26320,note_on,40,0,1,,,,,,,,,0,,,54,0
26360,note_on,40,0,1,,,,,,,,,0,,,45,95
26397,note_on,37,0,1,,,,,,,,,0,,,45,0
26398,note_on,1,0,1,,,,,,,,,0,,,57,0
26398,note_on,0,0,1,,,,,,,,,0,,,62,0
26398,note_on,0,0,1,,,,,,,,,0,,,66,0
26399,note_on,1,0,1,,,,,,,,,0,,,54,0
26400,note_on,1,0,1,,,,,,,,,0,,,55,114
26401,control_change,1,0,1,,,,,,,64,0,0,,,,
26402,control_change,1,0,1,,,,,,,64,127,0,,,,
26421,note_on,19,0,1,,,,,,,,,0,,,58,114
26430,note_on,151,0,0,,,,,,,,,0,,,70,96
26442,note_on,21,0,1,,,,,,,,,0,,,62,115
26459,note_on,29,0,0,,,,,,,,,0,,,70,0
26460,note_on,1,0,0,,,,,,,,,0,,,78,96
26463,note_on,21,0,1,,,,,,,,,0,,,66,115
26489,note_on,29,0,0,,,,,,,,,0,,,78,0
26490,note_on,1,0,0,,,,,,,,,0,,,82,96
26519,note_on,29,0,0,,,,,,,,,0,,,82,0
26520,note_on,0,0,0,,,,,,,,,0,,,90,0
26520,note_on,1,0,0,,,,,,,,,0,,,90,96
26520,note_on,0,0,0,,,,,,,,,0,,,90,96
26550,note_on,30,0,0,,,,,,,,,0,,,82,96
26579,note_on,29,0,0,,,,,,,,,0,,,82,0
26580,note_on,1,0,0,,,,,,,,,0,,,78,96
26609,note_on,29,0,0,,,,,,,,,0,,,78,0
26610,note_on,1,0,0,,,,,,,,,0,,,70,96
26637,note_on,27,0,0,,,,,,,,,0,,,70,0
26640,note_on,177,0,1,,,,,,,,,0,,,33,96
26680,note_on,40,0,1,,,,,,,,,0,,,45,96
26717,note_on,37,0,1,,,,,,,,,0,,,45,0
26718,note_on,1,0,1,,,,,,,,,0,,,33,0
26720,note_on,2,0,1,,,,,,,,,0,,,55,0
26720,note_on,0,0,1,,,,,,,,,0,,,55,96
26759,note_on,122,0,0,,,,,,,,,0,,,90,0
26760,note_on,40,0,1,,,,,,,,,0,,,58,0
26760,note_on,0,0,1,,,,,,,,,0,,,58,96
26800,note_on,40,0,1,,,,,,,,,0,,,55,0
26800,note_on,0,0,1,,,,,,,,,0,,,55,96
26840,note_on,40,0,1,,,,,,,,,0,,,45,96
26877,note_on,37,0,1,,,,,,,,,0,,,45,0
26878,note_on,0,0,1,,,,,,,,,0,,,62,0
26878,note_on,1,0,1,,,,,,,,,0,,,58,0
26878,note_on,0,0,1,,,,,,,,,0,,,66,0
26879,note_on,1,0,1,,,,,,,,,0,,,55,0
26880,note_on,1,0,1,,,,,,,,,0,,,55,115
26881,control_change,1,0,1,,,,,,,64,0,0,,,,
26882,control_change,1,0,1,,,,,,,64,127,0,,,,
26901,note_on,19,0,1,,,,,,,,,0,,,57,115
26910,note_on,151,0,0,,,,,,,,,0,,,69,96
26922,note_on,21,0,1,,,,,,,,,0,,,61,115
26939,note_on,29,0,0,,,,,,,,,0,,,69,0
26940,note_on,1,0,0,,,,,,,,,0,,,78,96
26943,note_on,21,0,1,,,,,,,,,0,,,66,115
26969,note_on,29,0,0,,,,,,,,,0,,,78,0
26970,note_on,1,0,0,,,,,,,,,0,,,81,96
26999,note_on,29,0,0,,,,,,,,,0,,,81,0
27000,note_on,0,0,0,,,,,,,,,0,,,90,0
27000,note_on,1,0,0,,,,,,,,,0,,,90,96
27000,note_on,0,0,0,,,,,,,,,0,,,90,96
27030,note_on,30,0,0,,,,,,,,,0,,,81,96
27059,note_on,29,0,0,,,,,,,,,0,,,81,0
27060,note_on,1,0,0,,,,,,,,,0,,,78,96
27089,note_on,29,0,0,,,,,,,,,0,,,78,0
27090,note_on,1,0,0,,,,,,,,,0,,,69,96
27117,note_on,27,0,0,,,,,,,,,0,,,69,0
27120,note_on,177,0,1,,,,,,,,,0,,,33,96
27150,note_on,30,0,1,,,,,,,,,0,,,45,96
27179,note_on,29,0,1,,,,,,,,,0,,,45,0
27180,note_on,0,0,1,,,,,,,,,0,,,55,96
27180,note_on,1,0,1,,,,,,,,,0,,,55,0
27198,note_on,18,0,1,,,,,,,,,0,,,33,0
27210,note_on,0,0,1,,,,,,,,,0,,,57,96
27210,note_on,12,0,1,,,,,,,,,0,,,57,0
27238,note_on,0,0,1,,,,,,,,,0,,,66,0
27238,note_on,28,0,1,,,,,,,,,0,,,61,0
27239,note_on,122,0,0,,,,,,,,,0,,,90,0
27239,note_on,0,0,1,,,,,,,,,0,,,57,0
27239,note_on,1,0,1,,,,,,,,,0,,,55,0
27240,note_on,1,0,1,,,,,,,,,0,,,64,96
27240,note_on,0,0,1,,,,,,,,,0,,,61,96
27269,note_on,29,0,1,,,,,,,,,0,,,61,0
27270,note_on,1,0,1,,,,,,,,,0,,,57,96
27299,note_on,29,0,1,,,,,,,,,0,,,57,0
27300,note_on,1,0,1,,,,,,,,,0,,,55,96
27329,note_on,29,0,1,,,,,,,,,0,,,55,0
27330,note_on,1,0,1,,,,,,,,,0,,,45,96
27357,note_on,27,0,1,,,,,,,,,0,,,45,0
27359,note_on,2,0,1,,,,,,,,,0,,,64,0
27360,note_on,0,0,1,,,,,,,,,0,,,62,96
27360,note_on,1,0,1,,,,,,,,,0,,,50,96
27360,note_on,0,0,1,,,,,,,,,0,,,54,96
27361,control_change,1,0,1,,,,,,,64,0,0,,,,
27362,control_change,1,0,1,,,,,,,64,127,0,,,,
27390,note_on,151,0,0,,,,,,,,,0,,,69,96
27419,note_on,29,0,0,,,,,,,,,0,,,69,0
27420,note_on,1,0,0,,,,,,,,,0,,,74,96
27449,note_on,29,0,0,,,,,,,,,0,,,74,0
27450,note_on,1,0,0,,,,,,,,,0,,,81,96
27479,note_on,29,0,0,,,,,,,,,0,,,81,0
27480,note_on,1,0,0,,,,,,,,,0,,,86,96
27480,note_on,0,0,0,,,,,,,,,0,,,86,0
27480,note_on,0,0,0,,,,,,,,,0,,,86,96
27510,note_on,30,0,0,,,,,,,,,0,,,81,96
27539,note_on,29,0,0,,,,,,,,,0,,,81,0
27540,note_on,1,0,0,,,,,,,,,0,,,74,96
27569,note_on,29,0,0,,,,,,,,,0,,,74,0
27570,note_on,1,0,0,,,,,,,,,0,,,69,96
27587,note_on,0,0,1,,,,,,,,,0,,,62,0
27587,note_on,225,0,1,,,,,,,,,0,,,50,0
27587,note_on,0,0,1,,,,,,,,,0,,,54,0
27597,note_on,27,0,0,,,,,,,,,0,,,69,0
27600,note_on,13,0,1,,,,,,,,,0,,,38,96
27601,control_change,1,0,1,,,,,,,64,0,0,,,,
27602,control_change,1,0,1,,,,,,,64,127,0,,,,
27629,note_on,27,0,1,,,,,,,,,0,,,38,0
27630,note_on,1,0,1,,,,,,,,,0,,,45,96
27659,note_on,29,0,1,,,,,,,,,0,,,45,0
27660,note_on,1,0,1,,,,,,,,,0,,,50,96
27689,note_on,29,0,1,,,,,,,,,0,,,50,0
27690,note_on,1,0,1,,,,,,,,,0,,,57,96
27719,note_on,29,0,1,,,,,,,,,0,,,57,0
27719,note_on,122,0,0,,,,,,,,,0,,,86,0
27720,note_on,1,0,1,,,,,,,,,0,,,62,96
27749,note_on,29,0,1,,,,,,,,,0,,,62,0
27750,note_on,1,0,1,,,,,,,,,0,,,57,96
27779,note_on,29,0,1,,,,,,,,,0,,,57,0
27780,note_on,1,0,1,,,,,,,,,0,,,50,96
27809,note_on,29,0,1,,,,,,,,,0,,,50,0
27810,note_on,1,0,1,,,,,,,,,0,,,45,96
27837,note_on,27,0,1,,,,,,,,,0,,,45,0
27840,note_on,3,0,1,,,,,,,,,0,,,38,96
28067,note_on,227,0,1,,,,,,,,,0,,,38,0
28080,note_on,0,0,0,,,,,,,,,0,,,74,115
28080,note_on,361,0,0,,,,,,,,,0,,,62,115
28080,note_on,13,0,1,,,,,,,,,0,,,50,115
28081,control_change,1,0,1,,,,,,,64,0,0,,,,
28082,control_change,1,0,1,,,,,,,64,127,0,,,,
28319,note_on,237,0,1,,,,,,,,,0,,,50,0
28319,note_on,0,0,0,,,,,,,,,0,,,74,0
28319,note_on,239,0,0,,,,,,,,,0,,,62,0
28320,note_on,1,0,1,,,,,,,,,0,,,50,115
28320,note_on,0,0,0,,,,,,,,,0,,,62,115
28320,note_on,0,0,0,,,,,,,,,0,,,74,115
28320,note_on,0,0,1,,,,,,,,,0,,,54,115
28320,note_on,0,0,0,,,,,,,,,0,,,66,115
28320,set_tempo,1,1,0,,,,,,1578947,,,,,,,
28559,note_on,0,0,0,,,,,,,,,0,,,66,0
28559,note_on,0,0,0,,,,,,,,,0,,,74,0
28559,note_on,239,0,0,,,,,,,,,0,,,62,0
28559,note_on,239,0,1,,,,,,,,,0,,,50,0
28559,note_on,0,0,1,,,,,,,,,0,,,54,0
28560,note_on,0,0,1,,,,,,,,,0,,,57,115
28560,set_tempo,1,1,0,,,,,,1666667,,,,,,,
28560,note_on,0,0,0,,,,,,,,,0,,,62,115
28560,note_on,1,0,1,,,,,,,,,0,,,50,115
28560,note_on,0,0,0,,,,,,,,,0,,,69,115
28560,note_on,0,0,0,,,,,,,,,0,,,74,115
28799,note_on,239,0,0,,,,,,,,,0,,,62,0
28799,note_on,0,0,1,,,,,,,,,0,,,57,0
28799,note_on,0,0,0,,,,,,,,,0,,,69,0
28799,note_on,0,0,0,,,,,,,,,0,,,74,0
28799,note_on,239,0,1,,,,,,,,,0,,,50,0
28800,note_on,0,0,1,,,,,,,,,0,,,50,0
28800,note_on,0,0,0,,,,,,,,,0,,,62,0
28800,note_on,0,0,0,,,,,,,,,0,,,62,96
28800,note_on,0,0,0,,,,,,,,,0,,,74,96
28800,note_on,1,0,1,,,,,,,,,0,,,50,80
28800,note_on,0,0,1,,,,,,,,,0,,,50,96
28800,note_on,0,0,0,,,,,,,,,0,,,62,80
28800,set_tempo,1,1,0,,,,,,1428571,,,,,,,
28801,control_change,1,0,1,,,,,,,64,0,0,,,,
28802,control_change,1,0,1,,,,,,,64,127,0,,,,
28840,note_on,38,0,1,,,,,,,,,0,,,53,80
28840,note_on,40,0,0,,,,,,,,,0,,,65,80
28879,note_on,39,0,0,,,,,,,,,0,,,65,0
28879,note_on,39,0,1,,,,,,,,,0,,,53,0
28880,note_on,1,0,0,,,,,,,,,0,,,70,82
28880,note_on,1,0,1,,,,,,,,,0,,,58,80
28919,note_on,39,0,1,,,,,,,,,0,,,58,0
28919,note_on,39,0,0,,,,,,,,,0,,,70,0
28920,note_on,1,0,0,,,,,,,,,0,,,74,0
28920,note_on,0,0,0,,,,,,,,,0,,,62,0
28920,note_on,0,0,0,,,,,,,,,0,,,74,85
28920,note_on,1,0,1,,,,,,,,,0,,,62,82
28960,note_on,40,0,1,,,,,,,,,0,,,65,85
28960,note_on,40,0,0,,,,,,,,,0,,,77,87
28999,note_on,39,0,0,,,,,,,,,0,,,77,0
28999,note_on,39,0,1,,,,,,,,,0,,,65,0
29000,note_on,1,0,1,,,,,,,,,0,,,70,87
29000,note_on,1,0,0,,,,,,,,,0,,,82,90
29039,note_on,39,0,1,,,,,,,,,0,,,70,0
29039,note_on,39,0,0,,,,,,,,,0,,,82,0
29040,note_on,0,0,0,,,,,,,,,0,,,74,0
29040,note_on,1,0,1,,,,,,,,,0,,,74,90
29040,note_on,1,0,0,,,,,,,,,0,,,86,90
29079,note_on,39,0,0,,,,,,,,,0,,,86,0
29080,note_on,40,0,1,,,,,,,,,0,,,70,90
29080,note_on,1,0,0,,,,,,,,,0,,,82,90
29119,note_on,39,0,0,,,,,,,,,0,,,82,0
29119,note_on,39,0,1,,,,,,,,,0,,,70,0
29120,note_on,1,0,1,,,,,,,,,0,,,65,90
29120,note_on,1,0,0,,,,,,,,,0,,,77,90
29159,note_on,39,0,1,,,,,,,,,0,,,65,0
29159,note_on,39,0,0,,,,,,,,,0,,,77,0
29160,note_on,1,0,1,,,,,,,,,0,,,74,0
29160,note_on,0,0,1,,,,,,,,,0,,,62,90
29160,note_on,0,0,1,,,,,,,,,0,,,62,0
29160,note_on,1,0,0,,,,,,,,,0,,,74,90
29200,note_on,40,0,1,,,,,,,,,0,,,58,90
29200,note_on,40,0,0,,,,,,,,,0,,,70,90
29239,note_on,39,0,1,,,,,,,,,0,,,58,0
29239,note_on,39,0,0,,,,,,,,,0,,,70,0
29240,note_on,1,0,1,,,,,,,,,0,,,53,90
29240,note_on,1,0,0,,,,,,,,,0,,,65,90
29277,note_on,37,0,1,,,,,,,,,0,,,53,0
29277,note_on,37,0,0,,,,,,,,,0,,,65,0
29279,note_on,0,0,1,,,,,,,,,0,,,50,0
29279,note_on,2,0,1,,,,,,,,,0,,,62,0
29279,note_on,2,0,0,,,,,,,,,0,,,74,0
29280,note_on,0,0,1,,,,,,,,,0,,,49,96
29280,note_on,1,0,0,,,,,,,,,0,,,61,80
29280,note_on,0,0,1,,,,,,,,,0,,,49,0
29280,note_on,0,0,0,,,,,,,,,0,,,73,96
29280,note_on,0,0,0,,,,,,,,,0,,,61,0
29280,note_on,0,0,0,,,,,,,,,0,,,61,96
29280,note_on,1,0,1,,,,,,,,,0,,,49,80
29281,control_change,1,0,1,,,,,,,64,0,0,,,,
29282,control_change,1,0,1,,,,,,,64,127,0,,,,
29320,note_on,38,0,1,,,,,,,,,0,,,53,80
29320,note_on,40,0,0,,,,,,,,,0,,,65,80
29359,note_on,39,0,0,,,,,,,,,0,,,65,0
29359,note_on,39,0,1,,,,,,,,,0,,,53,0
29360,note_on,1,0,0,,,,,,,,,0,,,70,82
29360,note_on,1,0,1,,,,,,,,,0,,,58,82
29399,note_on,39,0,0,,,,,,,,,0,,,70,0
29399,note_on,39,0,1,,,,,,,,,0,,,58,0
29400,note_on,1,0,1,,,,,,,,,0,,,61,84
29400,note_on,0,0,0,,,,,,,,,0,,,61,0
29400,note_on,1,0,0,,,,,,,,,0,,,73,0
29400,note_on,0,0,0,,,,,,,,,0,,,73,84
29440,note_on,40,0,1,,,,,,,,,0,,,65,86
29440,note_on,40,0,0,,,,,,,,,0,,,77,86
29479,note_on,39,0,0,,,,,,,,,0,,,77,0
29479,note_on,39,0,1,,,,,,,,,0,,,65,0
29480,note_on,1,0,1,,,,,,,,,0,,,70,88
29480,note_on,1,0,0,,,,,,,,,0,,,82,88
29519,note_on,39,0,1,,,,,,,,,0,,,70,0
29519,note_on,39,0,0,,,,,,,,,0,,,82,0
29520,note_on,1,0,1,,,,,,,,,0,,,73,90
29520,note_on,0,0,0,,,,,,,,,0,,,73,0
29520,note_on,1,0,0,,,,,,,,,0,,,85,90
29559,note_on,39,0,0,,,,,,,,,0,,,85,0
29560,note_on,1,0,0,,,,,,,,,0,,,82,90
29560,note_on,40,0,1,,,,,,,,,0,,,70,90
29599,note_on,39,0,1,,,,,,,,,0,,,70,0
29599,note_on,39,0,0,,,,,,,,,0,,,82,0
29600,note_on,1,0,0,,,,,,,,,0,,,77,90
29600,note_on,1,0,1,,,,,,,,,0,,,65,90
29639,note_on,39,0,0,,,,,,,,,0,,,77,0
29639,note_on,39,0,1,,,,,,,,,0,,,65,0
29640,note_on,1,0,1,,,,,,,,,0,,,73,0
29640,note_on,0,0,1,,,,,,,,,0,,,61,90
29640,note_on,0,0,1,,,,,,,,,0,,,61,0
29640,note_on,1,0,0,,,,,,,,,0,,,73,90
29680,note_on,40,0,0,,,,,,,,,0,,,70,90
29680,note_on,40,0,1,,,,,,,,,0,,,58,90
29719,note_on,39,0,0,,,,,,,,,0,,,70,0
29719,note_on,39,0,1,,,,,,,,,0,,,58,0
29720,note_on,1,0,0,,,,,,,,,0,,,65,90
29720,note_on,1,0,1,,,,,,,,,0,,,53,90
29757,note_on,37,0,1,,,,,,,,,0,,,53,0
29757,note_on,37,0,0,,,,,,,,,0,,,65,0
29759,note_on,2,0,0,,,,,,,,,0,,,73,0
29759,note_on,2,0,1,,,,,,,,,0,,,61,0
29759,note_on,0,0,1,,,,,,,,,0,,,49,0
29760,note_on,0,0,1,,,,,,,,,0,,,50,96
29760,note_on,1,0,1,,,,,,,,,0,,,50,80
29760,note_on,0,0,1,,,,,,,,,0,,,50,0
29760,note_on,0,0,0,,,,,,,,,0,,,62,0
29760,note_on,1,0,0,,,,,,,,,0,,,62,80
29760,note_on,0,0,0,,,,,,,,,0,,,74,96
29760,note_on,0,0,0,,,,,,,,,0,,,62,96
29761,control_change,1,0,1,,,,,,,64,0,0,,,,
29762,control_change,1,0,1,,,,,,,64,127,0,,,,
29800,note_on,40,0,0,,,,,,,,,0,,,65,80
29800,note_on,38,0,1,,,,,,,,,0,,,53,80
29839,note_on,39,0,0,,,,,,,,,0,,,65,0
29839,note_on,39,0,1,,,,,,,,,0,,,53,0
29840,note_on,1,0,0,,,,,,,,,0,,,70,82
29840,note_on,1,0,1,,,,,,,,,0,,,58,82
29879,note_on,39,0,1,,,,,,,,,0,,,58,0
29879,note_on,39,0,0,,,,,,,,,0,,,70,0
29880,note_on,0,0,0,,,,,,,,,0,,,62,0
29880,note_on,1,0,0,,,,,,,,,0,,,74,0
29880,note_on,1,0,1,,,,,,,,,0,,,62,84
29880,note_on,0,0,0,,,,,,,,,0,,,74,84
29920,note_on,40,0,0,,,,,,,,,0,,,77,86
29920,note_on,40,0,1,,,,,,,,,0,,,65,86
29959,note_on,39,0,1,,,,,,,,,0,,,65,0
29959,note_on,39,0,0,,,,,,,,,0,,,77,0
29960,note_on,1,0,0,,,,,,,,,0,,,82,88
29960,note_on,1,0,1,,,,,,,,,0,,,70,88
29999,note_on,39,0,1,,,,,,,,,0,,,70,0
29999,note_on,39,0,0,,,,,,,,,0,,,82,0
30000,note_on,0,0,0,,,,,,,,,0,,,74,0
30000,note_on,1,0,0,,,,,,,,,0,,,86,90
30000,note_on,1,0,1,,,,,,,,,0,,,74,90
30039,note_on,39,0,0,,,,,,,,,0,,,86,0
30040,note_on,40,0,1,,,,,,,,,0,,,70,90
30040,note_on,1,0,0,,,,,,,,,0,,,82,90
30079,note_on,39,0,0,,,,,,,,,0,,,82,0
30079,note_on,39,0,1,,,,,,,,,0,,,70,0
30080,note_on,1,0,1,,,,,,,,,0,,,65,90
30080,note_on,1,0,0,,,,,,,,,0,,,77,90
30119,note_on,39,0,0,,,,,,,,,0,,,77,0
30119,note_on,39,0,1,,,,,,,,,0,,,65,0
30120,note_on,0,0,1,,,,,,,,,0,,,62,0
30120,note_on,1,0,0,,,,,,,,,0,,,74,90
30120,note_on,1,0,1,,,,,,,,,0,,,74,0
30120,note_on,0,0,1,,,,,,,,,0,,,62,90
30160,note_on,40,0,0,,,,,,,,,0,,,70,90
30160,note_on,40,0,1,,,,,,,,,0,,,58,90
30199,note_on,39,0,0,,,,,,,,,0,,,70,0
30199,note_on,39,0,1,,,,,,,,,0,,,58,0
30200,note_on,1,0,1,,,,,,,,,0,,,53,90
30200,note_on,1,0,0,,,,,,,,,0,,,65,90
30237,note_on,37,0,1,,,,,,,,,0,,,53,0
30237,note_on,37,0,0,,,,,,,,,0,,,65,0
30239,note_on,0,0,1,,,,,,,,,0,,,50,0
30239,note_on,2,0,0,,,,,,,,,0,,,74,0
30239,note_on,2,0,1,,,,,,,,,0,,,62,0
30240,note_on,0,0,1,,,,,,,,,0,,,62,90
30240,note_on,0,0,1,,,,,,,,,0,,,50,0
30240,note_on,0,0,0,,,,,,,,,0,,,66,0
30240,note_on,1,0,1,,,,,,,,,0,,,50,90
30240,note_on,0,0,0,,,,,,,,,0,,,66,90
30240,note_on,0,0,0,,,,,,,,,0,,,78,90
30240,note_on,1,0,0,,,,,,,,,0,,,66,90
30240,note_on,0,0,1,,,,,,,,,0,,,50,90
30241,control_change,1,0,1,,,,,,,64,0,0,,,,
30242,control_change,1,0,1,,,,,,,64,127,0,,,,
30280,note_on,40,0,0,,,,,,,,,0,,,69,90
30280,note_on,38,0,1,,,,,,,,,0,,,57,90
30319,note_on,39,0,1,,,,,,,,,0,,,57,0
30319,note_on,39,0,0,,,,,,,,,0,,,69,0
30320,note_on,1,0,1,,,,,,,,,0,,,54,92
30320,note_on,1,0,0,,,,,,,,,0,,,74,92
30359,note_on,39,0,0,,,,,,,,,0,,,74,0
30359,note_on,39,0,1,,,,,,,,,0,,,54,0
30360,note_on,0,0,1,,,,,,,,,0,,,50,94
30360,note_on,0,0,0,,,,,,,,,0,,,78,94
30360,note_on,1,0,1,,,,,,,,,0,,,50,0
30360,note_on,1,0,0,,,,,,,,,0,,,78,0
30400,note_on,40,0,1,,,,,,,,,0,,,45,96
30400,note_on,40,0,0,,,,,,,,,0,,,81,96
30439,note_on,39,0,0,,,,,,,,,0,,,81,0
30439,note_on,39,0,1,,,,,,,,,0,,,45,0
30440,note_on,1,0,0,,,,,,,,,0,,,86,98
30440,note_on,1,0,1,,,,,,,,,0,,,42,98
30479,note_on,39,0,1,,,,,,,,,0,,,42,0
30479,note_on,39,0,0,,,,,,,,,0,,,86,0
30480,note_on,1,0,0,,,,,,,,,0,,,90,100
30480,note_on,1,0,1,,,,,,,,,0,,,38,100
30519,note_on,39,0,1,,,,,,,,,0,,,38,0
30519,note_on,39,0,0,,,,,,,,,0,,,90,0
30520,note_on,1,0,0,,,,,,,,,0,,,86,100
30520,note_on,1,0,1,,,,,,,,,0,,,42,100
30559,note_on,39,0,1,,,,,,,,,0,,,42,0
30559,note_on,39,0,0,,,,,,,,,0,,,86,0
30560,note_on,1,0,0,,,,,,,,,0,,,81,100
30560,note_on,1,0,1,,,,,,,,,0,,,45,100
30599,note_on,39,0,1,,,,,,,,,0,,,45,0
30599,note_on,39,0,0,,,,,,,,,0,,,81,0
30600,note_on,1,0,0,,,,,,,,,0,,,78,0
30600,note_on,0,0,1,,,,,,,,,0,,,50,100
30600,note_on,0,0,0,,,,,,,,,0,,,78,100
30600,note_on,1,0,1,,,,,,,,,0,,,50,0
30640,note_on,40,0,0,,,,,,,,,0,,,74,100
30640,note_on,40,0,1,,,,,,,,,0,,,54,100
30679,note_on,39,0,1,,,,,,,,,0,,,54,0
30679,note_on,39,0,0,,,,,,,,,0,,,74,0
30680,note_on,1,0,0,,,,,,,,,0,,,69,100
30680,note_on,1,0,1,,,,,,,,,0,,,57,100
30717,note_on,37,0,0,,,,,,,,,0,,,69,0
30717,note_on,37,0,1,,,,,,,,,0,,,57,0
30719,note_on,0,0,1,,,,,,,,,0,,,62,0
30719,note_on,0,0,0,,,,,,,,,0,,,78,0
30719,note_on,2,0,0,,,,,,,,,0,,,66,0
30719,note_on,2,0,1,,,,,,,,,0,,,50,0
30720,note_on,1,0,1,,,,,,,,,0,,,62,100
30720,note_on,1,0,0,,,,,,,,,0,,,66,100
30798,note_on,78,0,0,,,,,,,,,0,,,66,0
30798,note_on,78,0,1,,,,,,,,,0,,,62,0
30960,note_on,0,0,0,,,,,,,,,0,,,74,82
30960,note_on,162,0,0,,,,,,,,,0,,,62,82
30960,note_on,162,0,1,,,,,,,,,0,,,50,82
30961,control_change,1,0,1,,,,,,,64,0,0,,,,
30962,control_change,1,0,1,,,,,,,64,127,0,,,,
31139,note_on,179,0,0,,,,,,,,,0,,,62,0
31139,note_on,177,0,1,,,,,,,,,0,,,50,0
31139,note_on,0,0,0,,,,,,,,,0,,,74,0
31140,note_on,1,0,1,,,,,,,,,0,,,50,82
31140,note_on,1,0,0,,,,,,,,,0,,,62,82
31140,note_on,0,0,0,,,,,,,,,0,,,74,82
31199,note_on,59,0,1,,,,,,,,,0,,,50,0
31199,note_on,59,0,0,,,,,,,,,0,,,62,0
31199,note_on,0,0,0,,,,,,,,,0,,,74,0
31200,note_on,0,0,0,,,,,,,,,0,,,66,82
31200,note_on,0,0,0,,,,,,,,,0,,,74,82
31200,note_on,0,0,1,,,,,,,,,0,,,54,82
31200,note_on,1,0,1,,,,,,,,,0,,,50,82
31200,set_tempo,1,1,0,,,,,,1500000,,,,,,,
31200,note_on,0,0,0,,,,,,,,,0,,,62,82
31439,note_on,239,0,0,,,,,,,,,0,,,62,0
31439,note_on,0,0,0,,,,,,,,,0,,,66,0
31439,note_on,0,0,1,,,,,,,,,0,,,54,0
31439,note_on,0,0,0,,,,,,,,,0,,,74,0
31439,note_on,239,0,1,,,,,,,,,0,,,50,0
31440,note_on,0,0,1,,,,,,,,,0,,,57,82
31440,note_on,1,0,1,,,,,,,,,0,,,50,82
31440,set_tempo,1,1,0,,,,,,1578947,,,,,,,
31440,note_on,0,0,0,,,,,,,,,0,,,62,82
31440,note_on,0,0,0,,,,,,,,,0,,,69,82
31440,note_on,0,0,0,,,,,,,,,0,,,74,82
31679,note_on,239,0,1,,,,,,,,,0,,,50,0
31679,note_on,0,0,0,,,,,,,,,0,,,74,0
31679,note_on,0,0,1,,,,,,,,,0,,,57,0
31679,note_on,239,0,0,,,,,,,,,0,,,62,0
31679,note_on,0,0,0,,,,,,,,,0,,,69,0
31680,note_on,0,0,1,,,,,,,,,0,,,50,0
31680,note_on,0,0,1,,,,,,,,,0,,,50,96
31680,note_on,0,0,0,,,,,,,,,0,,,74,96
31680,note_on,0,0,0,,,,,,,,,0,,,62,80
31680,set_tempo,1,1,0,,,,,,1428571,,,,,,,
31680,note_on,0,0,0,,,,,,,,,0,,,62,96
31680,note_on,0,0,0,,,,,,,,,0,,,62,0
31680,note_on,1,0,1,,,,,,,,,0,,,50,80
31681,control_change,1,0,1,,,,,,,64,0,0,,,,
31682,control_change,1,0,1,,,,,,,64,127,0,,,,
31720,note_on,40,0,0,,,,,,,,,0,,,66,80
31720,note_on,38,0,1,,,,,,,,,0,,,54,80
31759,note_on,39,0,0,,,,,,,,,0,,,66,0
31759,note_on,39,0,1,,,,,,,,,0,,,54,0
31760,note_on,1,0,0,,,,,,,,,0,,,71,82
31760,note_on,1,0,1,,,,,,,,,0,,,59,82
31799,note_on,39,0,1,,,,,,,,,0,,,59,0
31799,note_on,39,0,0,,,,,,,,,0,,,71,0
31800,note_on,0,0,0,,,,,,,,,0,,,62,0
31800,note_on,1,0,1,,,,,,,,,0,,,62,84
31800,note_on,0,0,0,,,,,,,,,0,,,74,84
31800,note_on,1,0,0,,,,,,,,,0,,,74,0
31840,note_on,40,0,0,,,,,,,,,0,,,78,86
31840,note_on,40,0,1,,,,,,,,,0,,,66,86
31879,note_on,39,0,1,,,,,,,,,0,,,66,0
31879,note_on,39,0,0,,,,,,,,,0,,,78,0
31880,note_on,1,0,0,,,,,,,,,0,,,83,88
31880,note_on,1,0,1,,,,,,,,,0,,,71,88
31919,note_on,39,0,0,,,,,,,,,0,,,83,0
31919,note_on,39,0,1,,,,,,,,,0,,,71,0
31920,note_on,1,0,0,,,,,,,,,0,,,86,90
31920,note_on,1,0,1,,,,,,,,,0,,,74,90
31920,note_on,0,0,0,,,,,,,,,0,,,74,0
31959,note_on,39,0,0,,,,,,,,,0,,,86,0
31960,note_on,1,0,0,,,,,,,,,0,,,83,90
31960,note_on,40,0,1,,,,,,,,,0,,,71,90
31999,note_on,39,0,0,,,,,,,,,0,,,83,0
31999,note_on,39,0,1,,,,,,,,,0,,,71,0
32000,note_on,1,0,1,,,,,,,,,0,,,66,90
32000,note_on,1,0,0,,,,,,,,,0,,,78,90
32039,note_on,39,0,1,,,,,,,,,0,,,66,0
32039,note_on,39,0,0,,,,,,,,,0,,,78,0
32040,note_on,0,0,1,,,,,,,,,0,,,62,0
32040,note_on,1,0,1,,,,,,,,,0,,,74,0
32040,note_on,0,0,1,,,,,,,,,0,,,62,90
32040,note_on,1,0,0,,,,,,,,,0,,,74,90
32080,note_on,40,0,1,,,,,,,,,0,,,59,90
32080,note_on,40,0,0,,,,,,,,,0,,,71,90
32119,note_on,39,0,0,,,,,,,,,0,,,71,0
32119,note_on,39,0,1,,,,,,,,,0,,,59,0
32120,note_on,1,0,0,,,,,,,,,0,,,66,90
32120,note_on,1,0,1,,,,,,,,,0,,,54,90
32157,note_on,37,0,1,,,,,,,,,0,,,54,0
32157,note_on,37,0,0,,,,,,,,,0,,,66,0
32159,note_on,0,0,1,,,,,,,,,0,,,50,0
32159,note_on,2,0,0,,,,,,,,,0,,,74,0
32159,note_on,2,0,1,,,,,,,,,0,,,62,0
32160,note_on,0,0,1,,,,,,,,,0,,,49,96
32160,note_on,1,0,0,,,,,,,,,0,,,61,80
32160,note_on,0,0,0,,,,,,,,,0,,,61,96
32160,note_on,0,0,1,,,,,,,,,0,,,49,0
32160,note_on,0,0,0,,,,,,,,,0,,,73,96
32160,note_on,1,0,1,,,,,,,,,0,,,49,80
32160,note_on,0,0,0,,,,,,,,,0,,,61,0
32161,control_change,1,0,1,,,,,,,64,0,0,,,,
32162,control_change,1,0,1,,,,,,,64,127,0,,,,
32200,note_on,40,0,0,,,,,,,,,0,,,66,80
32200,note_on,38,0,1,,,,,,,,,0,,,54,80
32239,note_on,39,0,1,,,,,,,,,0,,,54,0
32239,note_on,39,0,0,,,,,,,,,0,,,66,0
32240,note_on,1,0,0,,,,,,,,,0,,,71,82
32240,note_on,1,0,1,,,,,,,,,0,,,59,82
32279,note_on,39,0,1,,,,,,,,,0,,,59,0
32279,note_on,39,0,0,,,,,,,,,0,,,71,0
32280,note_on,1,0,0,,,,,,,,,0,,,73,0
32280,note_on,0,0,0,,,,,,,,,0,,,73,84
32280,note_on,1,0,1,,,,,,,,,0,,,61,84
32280,note_on,0,0,0,,,,,,,,,0,,,61,0
32320,note_on,40,0,1,,,,,,,,,0,,,66,86
32320,note_on,40,0,0,,,,,,,,,0,,,78,86
32359,note_on,39,0,0,,,,,,,,,0,,,78,0
32359,note_on,39,0,1,,,,,,,,,0,,,66,0
32360,note_on,1,0,0,,,,,,,,,0,,,83,88
32360,note_on,1,0,1,,,,,,,,,0,,,71,88
32399,note_on,39,0,1,,,,,,,,,0,,,71,0
32399,note_on,39,0,0,,,,,,,,,0,,,83,0
32400,note_on,1,0,0,,,,,,,,,0,,,85,90
32400,note_on,0,0,0,,,,,,,,,0,,,73,0
32400,note_on,1,0,1,,,,,,,,,0,,,73,90
32439,note_on,39,0,0,,,,,,,,,0,,,85,0
32440,note_on,40,0,1,,,,,,,,,0,,,71,90
32440,note_on,1,0,0,,,,,,,,,0,,,83,90
32479,note_on,39,0,1,,,,,,,,,0,,,71,0
32479,note_on,39,0,0,,,,,,,,,0,,,83,0
32480,note_on,1,0,1,,,,,,,,,0,,,66,90
32480,note_on,1,0,0,,,,,,,,,0,,,78,90
32519,note_on,39,0,1,,,,,,,,,0,,,66,0
32519,note_on,39,0,0,,,,,,,,,0,,,78,0
32520,note_on,0,0,1,,,,,,,,,0,,,61,0
32520,note_on,0,0,1,,,,,,,,,0,,,61,90
32520,note_on,1,0,1,,,,,,,,,0,,,73,0
32520,note_on,1,0,0,,,,,,,,,0,,,73,90
32560,note_on,40,0,1,,,,,,,,,0,,,59,90
32560,note_on,40,0,0,,,,,,,,,0,,,71,90
32599,note_on,39,0,0,,,,,,,,,0,,,71,0
32599,note_on,39,0,1,,,,,,,,,0,,,59,0
32600,note_on,1,0,1,,,,,,,,,0,,,54,90
32600,note_on,1,0,0,,,,,,,,,0,,,66,90
32637,note_on,37,0,1,,,,,,,,,0,,,54,0
32637,note_on,37,0,0,,,,,,,,,0,,,66,0
32639,note_on,2,0,1,,,,,,,,,0,,,61,0
32639,note_on,2,0,0,,,,,,,,,0,,,73,0
32639,note_on,0,0,1,,,,,,,,,0,,,49,0
32640,note_on,0,0,1,,,,,,,,,0,,,50,96
32640,note_on,0,0,1,,,,,,,,,0,,,50,0
32640,note_on,0,0,0,,,,,,,,,0,,,62,0
32640,note_on,1,0,1,,,,,,,,,0,,,50,80
32640,note_on,0,0,0,,,,,,,,,0,,,74,96
32640,note_on,1,0,0,,,,,,,,,0,,,62,80
32640,note_on,0,0,0,,,,,,,,,0,,,62,96
32641,control_change,1,0,1,,,,,,,64,0,0,,,,
32642,control_change,1,0,1,,,,,,,64,127,0,,,,
32680,note_on,40,0,0,,,,,,,,,0,,,66,80
32680,note_on,38,0,1,,,,,,,,,0,,,54,80
32719,note_on,39,0,1,,,,,,,,,0,,,54,0
32719,note_on,39,0,0,,,,,,,,,0,,,66,0
32720,note_on,1,0,0,,,,,,,,,0,,,71,82
32720,note_on,1,0,1,,,,,,,,,0,,,59,82
32759,note_on,39,0,1,,,,,,,,,0,,,59,0
32759,note_on,39,0,0,,,,,,,,,0,,,71,0
32760,note_on,0,0,0,,,,,,,,,0,,,74,84
32760,note_on,0,0,0,,,,,,,,,0,,,62,0
32760,note_on,1,0,1,,,,,,,,,0,,,62,85
32760,note_on,1,0,0,,,,,,,,,0,,,74,0
32800,note_on,40,0,1,,,,,,,,,0,,,66,87
32800,note_on,40,0,0,,,,,,,,,0,,,78,86
32839,note_on,39,0,0,,,,,,,,,0,,,78,0
32839,note_on,39,0,1,,,,,,,,,0,,,66,0
32840,note_on,1,0,1,,,,,,,,,0,,,71,90
32840,note_on,1,0,0,,,,,,,,,0,,,83,88
32879,note_on,39,0,1,,,,,,,,,0,,,71,0
32879,note_on,39,0,0,,,,,,,,,0,,,83,0
32880,note_on,1,0,1,,,,,,,,,0,,,74,90
32880,note_on,0,0,0,,,,,,,,,0,,,74,0
32880,note_on,1,0,0,,,,,,,,,0,,,86,90
32919,note_on,39,0,0,,,,,,,,,0,,,86,0
32920,note_on,40,0,1,,,,,,,,,0,,,71,90
32920,note_on,1,0,0,,,,,,,,,0,,,83,90
32959,note_on,39,0,1,,,,,,,,,0,,,71,0
32959,note_on,39,0,0,,,,,,,,,0,,,83,0
32960,note_on,1,0,0,,,,,,,,,0,,,78,90
32960,note_on,1,0,1,,,,,,,,,0,,,66,90
32999,note_on,39,0,0,,,,,,,,,0,,,78,0
32999,note_on,39,0,1,,,,,,,,,0,,,66,0
33000,note_on,0,0,1,,,,,,,,,0,,,62,90
33000,note_on,0,0,1,,,,,,,,,0,,,62,0
33000,note_on,1,0,1,,,,,,,,,0,,,74,0
33000,note_on,1,0,0,,,,,,,,,0,,,74,90
33040,note_on,40,0,0,,,,,,,,,0,,,71,90
33040,note_on,40,0,1,,,,,,,,,0,,,59,90
33079,note_on,39,0,1,,,,,,,,,0,,,59,0
33079,note_on,39,0,0,,,,,,,,,0,,,71,0
33080,note_on,1,0,1,,,,,,,,,0,,,54,90
33080,note_on,1,0,0,,,,,,,,,0,,,66,90
33117,note_on,37,0,1,,,,,,,,,0,,,54,0
33117,note_on,37,0,0,,,,,,,,,0,,,66,0
33119,note_on,2,0,0,,,,,,,,,0,,,74,0
33119,note_on,2,0,1,,,,,,,,,0,,,62,0
33119,note_on,0,0,1,,,,,,,,,0,,,50,0
33120,note_on,1,0,1,,,,,,,,,0,,,54,80
33120,note_on,0,0,0,,,,,,,,,0,,,66,0
33120,note_on,0,0,1,,,,,,,,,0,,,54,0
33120,note_on,0,0,1,,,,,,,,,0,,,54,96
33120,note_on,0,0,0,,,,,,,,,0,,,78,96
33120,note_on,0,0,0,,,,,,,,,0,,,66,96
33120,note_on,1,0,0,,,,,,,,,0,,,66,80
33121,control_change,1,0,1,,,,,,,64,0,0,,,,
33122,control_change,1,0,1,,,,,,,64,127,0,,,,
33160,note_on,38,0,1,,,,,,,,,0,,,61,80
33160,note_on,40,0,0,,,,,,,,,0,,,70,80
33199,note_on,39,0,0,,,,,,,,,0,,,70,0
33199,note_on,39,0,1,,,,,,,,,0,,,61,0
33200,note_on,1,0,0,,,,,,,,,0,,,73,82
33200,note_on,1,0,1,,,,,,,,,0,,,58,82
33239,note_on,39,0,0,,,,,,,,,0,,,73,0
33239,note_on,39,0,1,,,,,,,,,0,,,58,0
33240,note_on,0,0,1,,,,,,,,,0,,,54,84
33240,note_on,1,0,0,,,,,,,,,0,,,78,0
33240,note_on,0,0,0,,,,,,,,,0,,,78,84
33240,note_on,1,0,1,,,,,,,,,0,,,54,0
33280,note_on,40,0,0,,,,,,,,,0,,,82,86
33280,note_on,40,0,1,,,,,,,,,0,,,49,86
33319,note_on,39,0,1,,,,,,,,,0,,,49,0
33319,note_on,39,0,0,,,,,,,,,0,,,82,0
33320,note_on,1,0,1,,,,,,,,,0,,,46,88
33320,note_on,1,0,0,,,,,,,,,0,,,85,88
33359,note_on,39,0,0,,,,,,,,,0,,,85,0
33359,note_on,39,0,1,,,,,,,,,0,,,46,0
33360,note_on,1,0,1,,,,,,,,,0,,,42,90
33360,note_on,1,0,0,,,,,,,,,0,,,90,90
33399,note_on,39,0,0,,,,,,,,,0,,,90,0
33399,note_on,39,0,1,,,,,,,,,0,,,42,0
33400,note_on,1,0,0,,,,,,,,,0,,,85,90
33400,note_on,1,0,1,,,,,,,,,0,,,46,90
33439,note_on,39,0,0,,,,,,,,,0,,,85,0
33439,note_on,39,0,1,,,,,,,,,0,,,46,0
33440,note_on,0,0,1,,,,,,,,,0,,,49,90
33440,note_on,1,0,0,,,,,,,,,0,,,66,0
33440,note_on,0,0,0,,,,,,,,,0,,,78,0
33440,note_on,1,0,1,,,,,,,,,0,,,54,0
33440,note_on,0,0,0,,,,,,,,,0,,,82,90
33479,note_on,39,0,0,,,,,,,,,0,,,82,0
33479,note_on,39,0,1,,,,,,,,,0,,,49,0
33480,note_on,1,0,0,,,,,,,,,0,,,78,90
33480,note_on,1,0,1,,,,,,,,,0,,,54,90
33519,note_on,39,0,1,,,,,,,,,0,,,54,0
33519,note_on,39,0,0,,,,,,,,,0,,,78,0
33520,note_on,1,0,1,,,,,,,,,0,,,58,90
33520,note_on,1,0,0,,,,,,,,,0,,,73,90
33559,note_on,39,0,1,,,,,,,,,0,,,58,0
33559,note_on,39,0,0,,,,,,,,,0,,,73,0
33560,note_on,1,0,1,,,,,,,,,0,,,61,90
33560,note_on,1,0,0,,,,,,,,,0,,,70,90
33597,note_on,37,0,0,,,,,,,,,0,,,70,0
33597,note_on,37,0,1,,,,,,,,,0,,,61,0
33600,note_on,3,0,1,,,,,,,,,0,,,66,90
33678,note_on,78,0,1,,,,,,,,,0,,,66,0
33840,note_on,0,0,0,,,,,,,,,0,,,66,108
33840,note_on,162,0,1,,,,,,,,,0,,,54,108
33840,set_tempo,243,1,0,,,,,,1363637,,,,,,,
33840,note_on,0,0,0,,,,,,,,,0,,,78,108
33841,control_change,1,0,1,,,,,,,64,0,0,,,,
33842,control_change,1,0,1,,,,,,,64,127,0,,,,
34079,note_on,237,0,1,,,,,,,,,0,,,54,0
34079,note_on,0,0,0,,,,,,,,,0,,,78,0
34079,note_on,239,0,0,,,,,,,,,0,,,66,0
34080,note_on,1,0,1,,,,,,,,,0,,,54,109
34080,note_on,1,0,0,,,,,,,,,0,,,66,109
34080,note_on,0,0,1,,,,,,,,,0,,,58,109
34080,note_on,0,0,0,,,,,,,,,0,,,78,109
34080,note_on,0,0,0,,,,,,,,,0,,,70,109
34319,note_on,0,0,0,,,,,,,,,0,,,78,0
34319,note_on,0,0,0,,,,,,,,,0,,,70,0
34319,note_on,239,0,1,,,,,,,,,0,,,54,0
34319,note_on,0,0,1,,,,,,,,,0,,,58,0
34319,note_on,239,0,0,,,,,,,,,0,,,66,0
34320,note_on,1,0,0,,,,,,,,,0,,,66,109
34320,note_on,0,0,1,,,,,,,,,0,,,61,109
34320,note_on,1,0,1,,,,,,,,,0,,,54,109
34320,note_on,0,0,0,,,,,,,,,0,,,78,109
34320,note_on,0,0,0,,,,,,,,,0,,,73,109
34559,note_on,239,0,0,,,,,,,,,0,,,66,0
34559,note_on,239,0,1,,,,,,,,,0,,,54,0
34559,note_on,0,0,1,,,,,,,,,0,,,61,0
34559,note_on,0,0,0,,,,,,,,,0,,,78,0
34559,note_on,0,0,0,,,,,,,,,0,,,73,0
34560,note_on,0,0,1,,,,,,,,,0,,,63,110
34560,note_on,0,0,1,,,,,,,,,0,,,51,0
34560,set_tempo,1,1,0,,,,,,1304348,,,,,,,
34560,note_on,0,0,0,,,,,,,,,0,,,66,0
34560,note_on,0,0,0,,,,,,,,,0,,,78,110
34560,note_on,0,0,0,,,,,,,,,0,,,66,92
34560,note_on,0,0,1,,,,,,,,,0,,,51,110
34560,note_on,1,0,1,,,,,,,,,0,,,51,92
34560,note_on,0,0,0,,,,,,,,,0,,,66,110
34561,control_change,1,0,1,,,,,,,64,0,0,,,,
34562,control_change,1,0,1,,,,,,,64,127,0,,,,
34600,note_on,40,0,0,,,,,,,,,0,,,70,92
34600,note_on,38,0,1,,,,,,,,,0,,,58,92
34639,note_on,39,0,1,,,,,,,,,0,,,58,0
34639,note_on,39,0,0,,,,,,,,,0,,,70,0
34640,note_on,1,0,1,,,,,,,,,0,,,54,92
34640,note_on,1,0,0,,,,,,,,,0,,,75,92
34679,note_on,39,0,0,,,,,,,,,0,,,75,0
34679,note_on,39,0,1,,,,,,,,,0,,,54,0
34680,note_on,0,0,1,,,,,,,,,0,,,51,92
34680,note_on,1,0,0,,,,,,,,,0,,,78,0
34680,note_on,1,0,1,,,,,,,,,0,,,51,0
34680,note_on,0,0,0,,,,,,,,,0,,,78,92
34720,note_on,40,0,1,,,,,,,,,0,,,46,92
34720,note_on,40,0,0,,,,,,,,,0,,,82,92
34759,note_on,39,0,0,,,,,,,,,0,,,82,0
34759,note_on,39,0,1,,,,,,,,,0,,,46,0
34760,note_on,1,0,0,,,,,,,,,0,,,87,92
34760,note_on,1,0,1,,,,,,,,,0,,,42,92
34799,note_on,39,0,0,,,,,,,,,0,,,87,0
34799,note_on,39,0,1,,,,,,,,,0,,,42,0
34800,note_on,1,0,1,,,,,,,,,0,,,39,92
34800,note_on,1,0,0,,,,,,,,,0,,,90,92
34839,note_on,39,0,0,,,,,,,,,0,,,90,0
34839,note_on,39,0,1,,,,,,,,,0,,,39,0
34840,note_on,1,0,1,,,,,,,,,0,,,42,92
34840,note_on,1,0,0,,,,,,,,,0,,,87,92
34879,note_on,39,0,0,,,,,,,,,0,,,87,0
34879,note_on,39,0,1,,,,,,,,,0,,,42,0
34880,note_on,1,0,0,,,,,,,,,0,,,66,0
34880,note_on,0,0,1,,,,,,,,,0,,,63,0
34880,note_on,0,0,1,,,,,,,,,0,,,46,92
34880,note_on,0,0,0,,,,,,,,,0,,,82,92
34880,note_on,0,0,0,,,,,,,,,0,,,78,0
34880,note_on,1,0,1,,,,,,,,,0,,,51,0
34919,note_on,39,0,1,,,,,,,,,0,,,46,0
34919,note_on,39,0,0,,,,,,,,,0,,,82,0
34920,note_on,1,0,0,,,,,,,,,0,,,78,92
34920,note_on,1,0,1,,,,,,,,,0,,,51,92
34959,note_on,39,0,1,,,,,,,,,0,,,51,0
34959,note_on,39,0,0,,,,,,,,,0,,,78,0
34960,note_on,1,0,1,,,,,,,,,0,,,54,92
34960,note_on,1,0,0,,,,,,,,,0,,,75,92
34999,note_on,39,0,1,,,,,,,,,0,,,54,0
34999,note_on,39,0,0,,,,,,,,,0,,,75,0
35000,note_on,1,0,0,,,,,,,,,0,,,70,92
35000,note_on,1,0,1,,,,,,,,,0,,,58,92
35037,note_on,37,0,0,,,,,,,,,0,,,70,0
35037,note_on,37,0,1,,,,,,,,,0,,,58,0
35040,note_on,3,0,1,,,,,,,,,0,,,63,92
35040,note_on,3,0,0,,,,,,,,,0,,,66,92
35118,note_on,78,0,0,,,,,,,,,0,,,66,0
35118,note_on,78,0,1,,,,,,,,,0,,,63,0
35280,note_on,162,0,1,,,,,,,,,0,,,54,111
35280,note_on,0,0,0,,,,,,,,,0,,,78,111
35280,note_on,0,0,0,,,,,,,,,0,,,66,111
35280,set_tempo,162,1,0,,,,,,1363637,,,,,,,
35281,control_change,1,0,1,,,,,,,64,0,0,,,,
35282,control_change,1,0,1,,,,,,,64,127,0,,,,
35459,note_on,179,0,0,,,,,,,,,0,,,66,0
35459,note_on,0,0,0,,,,,,,,,0,,,78,0
35459,note_on,177,0,1,,,,,,,,,0,,,54,0
35460,note_on,1,0,0,,,,,,,,,0,,,66,111
35460,note_on,0,0,0,,,,,,,,,0,,,78,111
35460,note_on,1,0,1,,,,,,,,,0,,,54,111
35519,note_on,59,0,0,,,,,,,,,0,,,66,0
35519,note_on,0,0,0,,,,,,,,,0,,,78,0
35519,note_on,59,0,1,,,,,,,,,0,,,54,0
35520,note_on,1,0,1,,,,,,,,,0,,,54,111
35520,note_on,0,0,1,,,,,,,,,0,,,58,111
35520,note_on,0,0,0,,,,,,,,,0,,,78,111
35520,note_on,1,0,0,,,,,,,,,0,,,66,111
35520,note_on,0,0,0,,,,,,,,,0,,,70,111
35759,note_on,0,0,0,,,,,,,,,0,,,70,0
35759,note_on,239,0,0,,,,,,,,,0,,,66,0
35759,note_on,0,0,1,,,,,,,,,0,,,58,0
35759,note_on,239,0,1,,,,,,,,,0,,,54,0
35759,note_on,0,0,0,,,,,,,,,0,,,78,0
35760,note_on,0,0,0,,,,,,,,,0,,,75,112
35760,note_on,1,0,1,,,,,,,,,0,,,54,112
35760,note_on,1,0,0,,,,,,,,,0,,,66,112
35760,note_on,0,0,1,,,,,,,,,0,,,63,112
35760,note_on,0,0,0,,,,,,,,,0,,,78,112
35999,note_on,0,0,0,,,,,,,,,0,,,75,0
35999,note_on,0,0,1,,,,,,,,,0,,,63,0
35999,note_on,239,0,0,,,,,,,,,0,,,66,0
35999,note_on,0,0,0,,,,,,,,,0,,,78,0
35999,note_on,239,0,1,,,,,,,,,0,,,54,0
36000,note_on,0,0,0,,,,,,,,,0,,,70,0
36000,note_on,0,0,0,,,,,,,,,0,,,70,94
36000,note_on,0,0,0,,,,,,,,,0,,,70,112
36000,note_on,0,0,0,,,,,,,,,0,,,82,112
36000,note_on,0,0,1,,,,,,,,,0,,,46,0
36000,set_tempo,1,1,0,,,,,,1250000,,,,,,,
36000,note_on,0,0,1,,,,,,,,,0,,,46,112
36000,note_on,0,0,1,,,,,,,,,0,,,58,112
36000,note_on,1,0,1,,,,,,,,,0,,,46,94
36001,control_change,1,0,1,,,,,,,64,0,0,,,,
36002,control_change,1,0,1,,,,,,,64,127,0,,,,
36044,note_on,42,0,1,,,,,,,,,0,,,50,94
36044,note_on,44,0,0,,,,,,,,,0,,,77,94
36084,note_on,40,0,0,,,,,,,,,0,,,77,0
36087,note_on,0,0,1,,,,,,,,,0,,,53,94
36087,note_on,43,0,1,,,,,,,,,0,,,50,0
36087,note_on,3,0,0,,,,,,,,,0,,,74,94
36127,note_on,40,0,0,,,,,,,,,0,,,74,0
36130,note_on,43,0,1,,,,,,,,,0,,,53,0
36131,note_on,1,0,1,,,,,,,,,0,,,58,0
36131,note_on,4,0,0,,,,,,,,,0,,,70,0
36131,note_on,0,0,0,,,,,,,,,0,,,70,94
36131,note_on,0,0,1,,,,,,,,,0,,,58,94
36175,note_on,44,0,0,,,,,,,,,0,,,74,94
36175,note_on,44,0,1,,,,,,,,,0,,,53,94
36215,note_on,40,0,0,,,,,,,,,0,,,74,0
36218,note_on,0,0,1,,,,,,,,,0,,,50,94
36218,note_on,43,0,1,,,,,,,,,0,,,53,0
36218,note_on,3,0,0,,,,,,,,,0,,,77,94
36258,note_on,40,0,0,,,,,,,,,0,,,77,0
36261,note_on,43,0,1,,,,,,,,,0,,,50,0
36262,note_on,0,0,1,,,,,,,,,0,,,46,94
36262,note_on,0,0,0,,,,,,,,,0,,,82,0
36262,note_on,1,0,1,,,,,,,,,0,,,46,0
36262,note_on,0,0,0,,,,,,,,,0,,,82,94
36262,set_tempo,4,1,0,,,,,,1153846,,,,,,,
36305,note_on,43,0,0,,,,,,,,,0,,,86,94
36305,note_on,43,0,1,,,,,,,,,0,,,41,94
36320,note_on,0,0,0,,,,,,,,,0,,,82,0
36320,note_on,15,0,1,,,,,,,,,0,,,46,0
36320,note_on,15,0,0,,,,,,,,,0,,,70,0
36320,note_on,0,0,1,,,,,,,,,0,,,58,0
36345,note_on,25,0,0,,,,,,,,,0,,,86,0
36348,note_on,28,0,1,,,,,,,,,0,,,41,0
36349,note_on,1,0,1,,,,,,,,,0,,,38,94
36349,note_on,4,0,0,,,,,,,,,0,,,89,94
36389,note_on,40,0,1,,,,,,,,,0,,,38,0
36389,note_on,40,0,0,,,,,,,,,0,,,89,0
36393,note_on,0,0,1,,,,,,,,,0,,,46,95
36393,note_on,0,0,0,,,,,,,,,0,,,82,95
36393,note_on,4,0,1,,,,,,,,,0,,,34,95
36393,set_tempo,4,1,0,,,,,,2000000,,,,,,,
36393,note_on,0,0,1,,,,,,,,,0,,,41,95
36399,note_on,6,0,0,,,,,,,,,0,,,86,95
36406,note_on,7,0,0,,,,,,,,,0,,,94,95
36420,note_on,0,0,1,,,,,,,,,0,,,46,0
36420,note_on,0,0,1,,,,,,,,,0,,,41,0
36420,note_on,27,0,1,,,,,,,,,0,,,34,0
36478,note_on,72,0,0,,,,,,,,,0,,,86,0
36478,note_on,0,0,0,,,,,,,,,0,,,94,0
36479,note_on,1,0,0,,,,,,,,,0,,,82,0
36480,note_on,60,0,1,,,,,,,,,0,,,43,95
36480,set_tempo,1,1,0,,,,,,1250000,,,,,,,
36480,note_on,0,0,0,,,,,,,,,0,,,70,95
36480,note_on,0,0,0,,,,,,,,,0,,,70,114
36480,note_on,0,0,0,,,,,,,,,0,,,82,114
36480,note_on,0,0,1,,,,,,,,,0,,,55,114
36480,note_on,0,0,0,,,,,,,,,0,,,70,0
36480,note_on,0,0,1,,,,,,,,,0,,,43,114
36480,note_on,0,0,1,,,,,,,,,0,,,43,0
36481,control_change,1,0,1,,,,,,,64,0,0,,,,
36482,control_change,1,0,1,,,,,,,64,127,0,,,,
36524,note_on,42,0,1,,,,,,,,,0,,,46,95
36524,note_on,44,0,0,,,,,,,,,0,,,79,95
36564,note_on,40,0,0,,,,,,,,,0,,,79,0
36567,note_on,0,0,1,,,,,,,,,0,,,50,95
36567,note_on,3,0,0,,,,,,,,,0,,,74,95
36567,note_on,43,0,1,,,,,,,,,0,,,46,0
36607,note_on,40,0,0,,,,,,,,,0,,,74,0
36610,note_on,43,0,1,,,,,,,,,0,,,50,0
36611,note_on,4,0,0,,,,,,,,,0,,,70,0
36611,note_on,0,0,1,,,,,,,,,0,,,55,95
36611,note_on,0,0,0,,,,,,,,,0,,,70,95
36611,note_on,1,0,1,,,,,,,,,0,,,55,0
36655,note_on,44,0,0,,,,,,,,,0,,,74,95
36655,note_on,44,0,1,,,,,,,,,0,,,50,95
36695,note_on,40,0,0,,,,,,,,,0,,,74,0
36698,note_on,43,0,1,,,,,,,,,0,,,50,0
36698,note_on,3,0,0,,,,,,,,,0,,,79,95
36698,note_on,0,0,1,,,,,,,,,0,,,46,95
36738,note_on,40,0,0,,,,,,,,,0,,,79,0
36741,note_on,43,0,1,,,,,,,,,0,,,46,0
36742,note_on,0,0,0,,,,,,,,,0,,,82,95
36742,note_on,0,0,1,,,,,,,,,0,,,43,95
36742,note_on,4,0,0,,,,,,,,,0,,,82,0
36742,note_on,1,0,1,,,,,,,,,0,,,43,0
36785,note_on,43,0,1,,,,,,,,,0,,,38,95
36785,note_on,43,0,0,,,,,,,,,0,,,86,95
36800,note_on,0,0,1,,,,,,,,,0,,,55,0
36800,note_on,15,0,0,,,,,,,,,0,,,70,0
36800,note_on,0,0,0,,,,,,,,,0,,,82,0
36800,note_on,15,0,1,,,,,,,,,0,,,43,0
36825,note_on,25,0,0,,,,,,,,,0,,,86,0
36828,note_on,28,0,1,,,,,,,,,0,,,38,0
36829,note_on,1,0,1,,,,,,,,,0,,,34,95
36829,note_on,4,0,0,,,,,,,,,0,,,91,95
36869,note_on,40,0,1,,,,,,,,,0,,,34,0
36869,note_on,40,0,0,,,,,,,,,0,,,91,0
36873,note_on,4,0,1,,,,,,,,,0,,,31,95
36873,note_on,0,0,0,,,,,,,,,0,,,82,95
36873,note_on,0,0,1,,,,,,,,,0,,,38,95
36873,note_on,0,0,1,,,,,,,,,0,,,43,95
36873,set_tempo,4,1,0,,,,,,1666667,,,,,,,
36881,note_on,8,0,0,,,,,,,,,0,,,86,95
36889,note_on,8,0,0,,,,,,,,,0,,,94,95
36900,note_on,27,0,1,,,,,,,,,0,,,31,0
36900,note_on,0,0,1,,,,,,,,,0,,,43,0
36900,note_on,0,0,1,,,,,,,,,0,,,38,0
36958,note_on,0,0,0,,,,,,,,,0,,,94,0
36958,note_on,69,0,0,,,,,,,,,0,,,86,0
36959,note_on,1,0,0,,,,,,,,,0,,,82,0
36960,note_on,0,0,1,,,,,,,,,0,,,50,96
36960,note_on,0,0,0,,,,,,,,,0,,,74,0
36960,note_on,0,0,1,,,,,,,,,0,,,62,96
36960,note_on,0,0,0,,,,,,,,,0,,,86,96
36960,note_on,0,0,0,,,,,,,,,0,,,74,96
36960,note_on,0,0,1,,,,,,,,,0,,,50,0
36960,set_tempo,1,1,0,,,,,,1250000,,,,,,,
36960,note_on,0,0,0,,,,,,,,,0,,,74,96
36960,note_on,60,0,1,,,,,,,,,0,,,50,96
36961,control_change,1,0,1,,,,,,,64,0,0,,,,
36962,control_change,1,0,1,,,,,,,64,127,0,,,,
37000,note_on,40,0,0,,,,,,,,,0,,,81,96
37000,note_on,38,0,1,,,,,,,,,0,,,54,96
37037,note_on,37,0,0,,,,,,,,,0,,,81,0
37037,note_on,37,0,1,,,,,,,,,0,,,54,0
37040,note_on,3,0,0,,,,,,,,,0,,,78,96
37040,note_on,3,0,1,,,,,,,,,0,,,57,96
37077,note_on,37,0,0,,,,,,,,,0,,,78,0
37077,note_on,37,0,1,,,,,,,,,0,,,57,0
37080,note_on,0,0,0,,,,,,,,,0,,,74,96
37080,note_on,0,0,1,,,,,,,,,0,,,62,96
37080,note_on,3,0,1,,,,,,,,,0,,,62,0
37080,note_on,3,0,0,,,,,,,,,0,,,74,0
37120,note_on,40,0,1,,,,,,,,,0,,,54,96
37120,note_on,40,0,0,,,,,,,,,0,,,81,96
37157,note_on,37,0,0,,,,,,,,,0,,,81,0
37157,note_on,37,0,1,,,,,,,,,0,,,54,0
37160,note_on,3,0,1,,,,,,,,,0,,,57,96
37160,note_on,3,0,0,,,,,,,,,0,,,78,96
37187,note_on,0,0,1,,,,,,,,,0,,,62,0
37187,note_on,27,0,1,,,,,,,,,0,,,50,0
37187,note_on,27,0,0,,,,,,,,,0,,,74,0
37187,note_on,0,0,0,,,,,,,,,0,,,86,0
37197,note_on,10,0,0,,,,,,,,,0,,,78,0
37197,note_on,10,0,1,,,,,,,,,0,,,57,0
37200,note_on,3,0,0,,,,,,,,,0,,,74,96
37200,note_on,0,0,0,,,,,,,,,0,,,86,96
37200,note_on,0,0,0,,,,,,,,,0,,,74,96
37200,note_on,0,0,1,,,,,,,,,0,,,47,0
37200,note_on,0,0,1,,,,,,,,,0,,,47,96
37200,note_on,0,0,1,,,,,,,,,0,,,59,96
37200,note_on,0,0,0,,,,,,,,,0,,,74,0
37200,note_on,3,0,1,,,,,,,,,0,,,47,96
37201,control_change,1,0,1,,,,,,,64,0,0,,,,
37202,control_change,1,0,1,,,,,,,64,127,0,,,,
37240,note_on,40,0,0,,,,,,,,,0,,,83,96
37240,note_on,38,0,1,,,,,,,,,0,,,50,96
37277,note_on,37,0,0,,,,,,,,,0,,,83,0
37277,note_on,37,0,1,,,,,,,,,0,,,50,0
37280,note_on,3,0,0,,,,,,,,,0,,,78,96
37280,note_on,3,0,1,,,,,,,,,0,,,54,96
37317,note_on,37,0,1,,,,,,,,,0,,,54,0
37317,note_on,37,0,0,,,,,,,,,0,,,78,0
37320,note_on,0,0,0,,,,,,,,,0,,,74,96
37320,note_on,3,0,0,,,,,,,,,0,,,74,0
37320,note_on,0,0,1,,,,,,,,,0,,,59,96
37320,note_on,3,0,1,,,,,,,,,0,,,59,0
37360,note_on,40,0,1,,,,,,,,,0,,,50,96
37360,note_on,40,0,0,,,,,,,,,0,,,83,96
37397,note_on,37,0,1,,,,,,,,,0,,,50,0
37397,note_on,37,0,0,,,,,,,,,0,,,83,0
37400,note_on,3,0,0,,,,,,,,,0,,,78,96
37400,note_on,3,0,1,,,,,,,,,0,,,54,96
37427,note_on,0,0,0,,,,,,,,,0,,,86,0
37427,note_on,27,0,1,,,,,,,,,0,,,47,0
37427,note_on,0,0,1,,,,,,,,,0,,,59,0
37427,note_on,27,0,0,,,,,,,,,0,,,74,0
37437,note_on,10,0,0,,,,,,,,,0,,,78,0
37437,note_on,10,0,1,,,,,,,,,0,,,54,0
37440,note_on,3,0,0,,,,,,,,,0,,,78,96
37440,note_on,0,0,0,,,,,,,,,0,,,78,0
37440,note_on,0,0,1,,,,,,,,,0,,,54,96
37440,note_on,0,0,0,,,,,,,,,0,,,90,96
37440,note_on,0,0,1,,,,,,,,,0,,,42,0
37440,note_on,0,0,1,,,,,,,,,0,,,42,96
37440,note_on,0,0,0,,,,,,,,,0,,,78,96
37440,note_on,3,0,1,,,,,,,,,0,,,42,96
37441,control_change,1,0,1,,,,,,,64,0,0,,,,
37442,control_change,1,0,1,,,,,,,64,127,0,,,,
37480,note_on,38,0,1,,,,,,,,,0,,,46,96
37480,note_on,40,0,0,,,,,,,,,0,,,85,96
37517,note_on,37,0,1,,,,,,,,,0,,,46,0
37517,note_on,37,0,0,,,,,,,,,0,,,85,0
37520,note_on,3,0,1,,,,,,,,,0,,,49,96
37520,note_on,3,0,0,,,,,,,,,0,,,82,96
37557,note_on,37,0,1,,,,,,,,,0,,,49,0
37557,note_on,37,0,0,,,,,,,,,0,,,82,0
37560,note_on,3,0,0,,,,,,,,,0,,,78,0
37560,note_on,0,0,1,,,,,,,,,0,,,54,97
37560,note_on,3,0,1,,,,,,,,,0,,,54,0
37560,note_on,0,0,0,,,,,,,,,0,,,78,97
37600,note_on,40,0,0,,,,,,,,,0,,,85,97
37600,note_on,40,0,1,,,,,,,,,0,,,46,97
37637,note_on,37,0,1,,,,,,,,,0,,,46,0
37637,note_on,37,0,0,,,,,,,,,0,,,85,0
37640,note_on,3,0,1,,,,,,,,,0,,,49,98
37640,note_on,3,0,0,,,,,,,,,0,,,82,98
37667,note_on,27,0,0,,,,,,,,,0,,,78,0
37667,note_on,0,0,1,,,,,,,,,0,,,54,0
37667,note_on,27,0,1,,,,,,,,,0,,,42,0
37667,note_on,0,0,0,,,,,,,,,0,,,90,0
37677,note_on,10,0,0,,,,,,,,,0,,,82,0
37677,note_on,10,0,1,,,,,,,,,0,,,49,0
37680,note_on,0,0,1,,,,,,,,,0,,,51,98
37680,note_on,0,0,1,,,,,,,,,0,,,39,0
37680,note_on,0,0,0,,,,,,,,,0,,,90,98
37680,note_on,0,0,0,,,,,,,,,0,,,78,98
37680,note_on,3,0,0,,,,,,,,,0,,,78,98
37680,note_on,0,0,0,,,,,,,,,0,,,78,0
37680,note_on,3,0,1,,,,,,,,,0,,,39,98
37680,note_on,0,0,1,,,,,,,,,0,,,39,98
37681,control_change,1,0,1,,,,,,,64,0,0,,,,
37682,control_change,1,0,1,,,,,,,64,127,0,,,,
37720,note_on,38,0,1,,,,,,,,,0,,,42,99
37720,note_on,40,0,0,,,,,,,,,0,,,87,99
37757,note_on,37,0,0,,,,,,,,,0,,,87,0
37757,note_on,37,0,1,,,,,,,,,0,,,42,0
37760,note_on,3,0,1,,,,,,,,,0,,,46,99
37760,note_on,3,0,0,,,,,,,,,0,,,82,99
37797,note_on,37,0,0,,,,,,,,,0,,,82,0
37797,note_on,37,0,1,,,,,,,,,0,,,46,0
37800,note_on,0,0,1,,,,,,,,,0,,,51,100
37800,note_on,0,0,0,,,,,,,,,0,,,78,100
37800,note_on,3,0,0,,,,,,,,,0,,,78,0
37800,note_on,3,0,1,,,,,,,,,0,,,51,0
37840,note_on,40,0,0,,,,,,,,,0,,,87,100
37840,note_on,40,0,1,,,,,,,,,0,,,42,100
37877,note_on,37,0,1,,,,,,,,,0,,,42,0
37877,note_on,37,0,0,,,,,,,,,0,,,87,0
37880,note_on,3,0,1,,,,,,,,,0,,,46,100
37880,note_on,3,0,0,,,,,,,,,0,,,82,100
37907,note_on,27,0,0,,,,,,,,,0,,,78,0
37907,note_on,27,0,1,,,,,,,,,0,,,39,0
37907,note_on,0,0,1,,,,,,,,,0,,,51,0
37907,note_on,0,0,0,,,,,,,,,0,,,90,0
37917,note_on,10,0,1,,,,,,,,,0,,,46,0
37917,note_on,10,0,0,,,,,,,,,0,,,82,0
37920,note_on,0,0,0,,,,,,,,,0,,,82,0
37920,note_on,0,0,0,,,,,,,,,0,,,82,101
37920,note_on,0,0,1,,,,,,,,,0,,,34,0
37920,note_on,0,0,0,,,,,,,,,0,,,82,101
37920,set_tempo,3,1,0,,,,,,1200000,,,,,,,
37920,note_on,0,0,1,,,,,,,,,0,,,34,101
37920,note_on,0,0,1,,,,,,,,,0,,,46,101
37920,note_on,3,0,1,,,,,,,,,0,,,34,101
37920,note_on,0,0,0,,,,,,,,,0,,,94,101
37921,control_change,1,0,1,,,,,,,64,0,0,,,,
37922,control_change,1,0,1,,,,,,,64,127,0,,,,
37960,note_on,40,0,0,,,,,,,,,0,,,89,101
37960,note_on,38,0,1,,,,,,,,,0,,,38,101
37997,note_on,37,0,1,,,,,,,,,0,,,38,0
37997,note_on,37,0,0,,,,,,,,,0,,,89,0
38000,note_on,3,0,0,,,,,,,,,0,,,86,102
38000,note_on,3,0,1,,,,,,,,,0,,,41,102
38037,note_on,37,0,1,,,,,,,,,0,,,41,0
38037,note_on,37,0,0,,,,,,,,,0,,,86,0
38040,note_on,0,0,1,,,,,,,,,0,,,46,102
38040,note_on,3,0,0,,,,,,,,,0,,,82,0
38040,note_on,0,0,0,,,,,,,,,0,,,82,102
38040,note_on,3,0,1,,,,,,,,,0,,,46,0
38080,note_on,40,0,0,,,,,,,,,0,,,89,103
38080,note_on,40,0,1,,,,,,,,,0,,,38,103
38117,note_on,37,0,0,,,,,,,,,0,,,89,0
38117,note_on,37,0,1,,,,,,,,,0,,,38,0
38120,note_on,3,0,1,,,,,,,,,0,,,41,103
38120,note_on,3,0,0,,,,,,,,,0,,,86,103
38147,note_on,0,0,0,,,,,,,,,0,,,94,0
38147,note_on,0,0,1,,,,,,,,,0,,,46,0
38147,note_on,27,0,1,,,,,,,,,0,,,34,0
38147,note_on,27,0,0,,,,,,,,,0,,,82,0
38157,note_on,10,0,1,,,,,,,,,0,,,41,0
38157,note_on,10,0,0,,,,,,,,,0,,,86,0
38160,note_on,0,0,0,,,,,,,,,0,,,82,0
38160,note_on,0,0,0,,,,,,,,,0,,,82,104
38160,note_on,0,0,0,,,,,,,,,0,,,82,104
38160,set_tempo,3,1,0,,,,,,1153846,,,,,,,
38160,note_on,0,0,0,,,,,,,,,0,,,94,104
38160,note_on,0,0,1,,,,,,,,,0,,,31,104
38160,note_on,0,0,1,,,,,,,,,0,,,31,0
38160,note_on,3,0,1,,,,,,,,,0,,,31,104
38160,note_on,0,0,1,,,,,,,,,0,,,43,104
38161,control_change,1,0,1,,,,,,,64,0,0,,,,
38162,control_change,1,0,1,,,,,,,64,127,0,,,,
38200,note_on,40,0,0,,,,,,,,,0,,,91,104
38200,note_on,38,0,1,,,,,,,,,0,,,34,104
38237,note_on,37,0,1,,,,,,,,,0,,,34,0
38237,note_on,37,0,0,,,,,,,,,0,,,91,0
38240,note_on,3,0,1,,,,,,,,,0,,,38,104
38240,note_on,3,0,0,,,,,,,,,0,,,86,104
38277,note_on,37,0,0,,,,,,,,,0,,,86,0
38277,note_on,37,0,1,,,,,,,,,0,,,38,0
38280,note_on,0,0,1,,,,,,,,,0,,,43,105
38280,note_on,3,0,1,,,,,,,,,0,,,43,0
38280,note_on,3,0,0,,,,,,,,,0,,,82,0
38280,note_on,0,0,0,,,,,,,,,0,,,82,105
38320,note_on,40,0,1,,,,,,,,,0,,,46,105
38320,note_on,40,0,0,,,,,,,,,0,,,91,105
38357,note_on,37,0,1,,,,,,,,,0,,,46,0
38357,note_on,37,0,0,,,,,,,,,0,,,91,0
38360,note_on,3,0,1,,,,,,,,,0,,,43,0
38360,note_on,3,0,0,,,,,,,,,0,,,86,106
38360,note_on,0,0,1,,,,,,,,,0,,,43,106
38387,note_on,0,0,0,,,,,,,,,0,,,94,0
38387,note_on,27,0,0,,,,,,,,,0,,,82,0
38387,note_on,27,0,1,,,,,,,,,0,,,31,0
38397,note_on,10,0,1,,,,,,,,,0,,,43,0
38397,note_on,10,0,0,,,,,,,,,0,,,86,0
38400,note_on,0,0,0,,,,,,,,,0,,,86,106
38400,note_on,0,0,1,,,,,,,,,0,,,38,0
38400,note_on,0,0,0,,,,,,,,,0,,,86,106
38400,note_on,0,0,0,,,,,,,,,0,,,86,0
38400,set_tempo,3,1,0,,,,,,1111111,,,,,,,
38400,note_on,0,0,1,,,,,,,,,0,,,38,106
38400,note_on,0,0,1,,,,,,,,,0,,,50,106
38400,note_on,3,0,1,,,,,,,,,0,,,38,106
38400,note_on,0,0,0,,,,,,,,,0,,,98,106
38401,control_change,1,0,1,,,,,,,64,0,0,,,,
38402,control_change,1,0,1,,,,,,,64,127,0,,,,
38440,note_on,38,0,1,,,,,,,,,0,,,42,107
38440,note_on,40,0,0,,,,,,,,,0,,,93,107
38477,note_on,37,0,0,,,,,,,,,0,,,93,0
38477,note_on,37,0,1,,,,,,,,,0,,,42,0
38480,note_on,3,0,1,,,,,,,,,0,,,45,107
38480,note_on,3,0,0,,,,,,,,,0,,,90,107
38517,note_on,37,0,1,,,,,,,,,0,,,45,0
38517,note_on,37,0,0,,,,,,,,,0,,,90,0
38520,note_on,0,0,0,,,,,,,,,0,,,86,108
38520,note_on,0,0,1,,,,,,,,,0,,,50,108
38520,note_on,3,0,0,,,,,,,,,0,,,86,0
38520,note_on,3,0,1,,,,,,,,,0,,,50,0
38560,note_on,40,0,1,,,,,,,,,0,,,54,108
38560,note_on,40,0,0,,,,,,,,,0,,,93,108
38597,note_on,37,0,0,,,,,,,,,0,,,93,0
38597,note_on,37,0,1,,,,,,,,,0,,,54,0
38600,note_on,3,0,0,,,,,,,,,0,,,90,108
38600,note_on,3,0,1,,,,,,,,,0,,,57,108
38627,note_on,27,0,1,,,,,,,,,0,,,38,0
38627,note_on,0,0,0,,,,,,,,,0,,,98,0
38627,note_on,27,0,0,,,,,,,,,0,,,86,0
38627,note_on,0,0,1,,,,,,,,,0,,,50,0
38637,note_on,10,0,0,,,,,,,,,0,,,90,0
38637,note_on,10,0,1,,,,,,,,,0,,,57,0
38640,note_on,3,0,1,,,,,,,,,0,,,50,109
38640,note_on,0,0,0,,,,,,,,,0,,,86,109
38640,note_on,0,0,0,,,,,,,,,0,,,98,109
38640,note_on,0,0,0,,,,,,,,,0,,,86,0
38640,note_on,0,0,0,,,,,,,,,0,,,86,109
38640,set_tempo,3,1,0,,,,,,1200000,,,,,,,
38640,note_on,0,0,1,,,,,,,,,0,,,62,109
38640,note_on,0,0,1,,,,,,,,,0,,,50,0
38640,note_on,0,0,1,,,,,,,,,0,,,50,109
38641,control_change,1,0,1,,,,,,,64,0,0,,,,
38642,control_change,1,0,1,,,,,,,64,127,0,,,,
38680,note_on,38,0,1,,,,,,,,,0,,,54,109
38680,note_on,40,0,0,,,,,,,,,0,,,94,109
38717,note_on,37,0,1,,,,,,,,,0,,,54,0
38717,note_on,37,0,0,,,,,,,,,0,,,94,0
38720,note_on,3,0,1,,,,,,,,,0,,,58,110
38720,note_on,3,0,0,,,,,,,,,0,,,91,110
38757,note_on,37,0,1,,,,,,,,,0,,,58,0
38757,note_on,37,0,0,,,,,,,,,0,,,91,0
38760,note_on,0,0,1,,,,,,,,,0,,,62,110
38760,note_on,3,0,1,,,,,,,,,0,,,62,0
38760,note_on,0,0,0,,,,,,,,,0,,,86,110
38760,note_on,3,0,0,,,,,,,,,0,,,86,0
38800,note_on,40,0,0,,,,,,,,,0,,,94,111
38800,note_on,40,0,1,,,,,,,,,0,,,67,111
38837,note_on,37,0,1,,,,,,,,,0,,,67,0
38837,note_on,37,0,0,,,,,,,,,0,,,94,0
38840,note_on,3,0,1,,,,,,,,,0,,,70,111
38840,note_on,3,0,0,,,,,,,,,0,,,91,111
38867,note_on,27,0,1,,,,,,,,,0,,,50,0
38867,note_on,0,0,1,,,,,,,,,0,,,62,0
38867,note_on,27,0,0,,,,,,,,,0,,,86,0
38867,note_on,0,0,0,,,,,,,,,0,,,98,0
38877,note_on,10,0,0,,,,,,,,,0,,,91,0
38877,note_on,10,0,1,,,,,,,,,0,,,70,0
38880,note_on,0,0,1,,,,,,,,,0,,,66,112
38880,note_on,0,0,0,,,,,,,,,0,,,98,112
38880,note_on,3,0,1,,,,,,,,,0,,,62,112
38880,note_on,0,0,0,,,,,,,,,0,,,93,112
38880,note_on,0,0,0,,,,,,,,,0,,,90,112
38880,note_on,0,0,0,,,,,,,,,0,,,86,112
38880,note_on,0,0,1,,,,,,,,,0,,,74,112
38880,set_tempo,3,1,0,,,,,,2000000,,,,,,,
38880,note_on,0,0,1,,,,,,,,,0,,,69,112
38881,control_change,1,0,1,,,,,,,64,0,0,,,,
38882,control_change,1,0,1,,,,,,,64,127,0,,,,
38955,note_on,0,0,1,,,,,,,,,0,,,74,0
38955,note_on,0,0,1,,,,,,,,,0,,,69,0
38955,note_on,0,0,1,,,,,,,,,0,,,66,0
38955,note_on,73,0,1,,,,,,,,,0,,,62,0
38959,note_on,0,0,0,,,,,,,,,0,,,90,0
38959,note_on,79,0,0,,,,,,,,,0,,,86,0
38959,note_on,0,0,0,,,,,,,,,0,,,93,0
38959,note_on,0,0,0,,,,,,,,,0,,,98,0
38960,note_on,5,0,1,,,,,,,,,0,,,61,112
38960,note_on,0,0,0,,,,,,,,,0,,,97,112
38960,note_on,0,0,0,,,,,,,,,0,,,85,112
38960,set_tempo,1,1,0,,,,,,1000000,,,,,,,
38960,note_on,0,0,1,,,,,,,,,0,,,73,112
39035,note_on,0,0,1,,,,,,,,,0,,,73,0
39035,note_on,75,0,1,,,,,,,,,0,,,61,0
39035,note_on,0,0,0,,,,,,,,,0,,,97,0
39035,note_on,75,0,0,,,,,,,,,0,,,85,0
39040,note_on,0,0,1,,,,,,,,,0,,,72,112
39040,note_on,5,0,0,,,,,,,,,0,,,84,112
39040,note_on,5,0,1,,,,,,,,,0,,,60,112
39040,note_on,0,0,0,,,,,,,,,0,,,96,112
39115,note_on,75,0,0,,,,,,,,,0,,,84,0
39115,note_on,75,0,1,,,,,,,,,0,,,60,0
39115,note_on,0,0,0,,,,,,,,,0,,,96,0
39115,note_on,0,0,1,,,,,,,,,0,,,72,0
39120,note_on,0,0,0,,,,,,,,,0,,,83,112
39120,note_on,0,0,0,,,,,,,,,0,,,95,112
39120,note_on,0,0,1,,,,,,,,,0,,,71,112
39120,set_tempo,5,1,0,,,,,,923077,,,,,,,
39120,note_on,5,0,1,,,,,,,,,0,,,59,112
39195,note_on,0,0,1,,,,,,,,,0,,,71,0
39195,note_on,0,0,0,,,,,,,,,0,,,95,0
39195,note_on,75,0,1,,,,,,,,,0,,,59,0
39195,note_on,75,0,0,,,,,,,,,0,,,83,0
39200,set_tempo,5,1,0,,,,,,857143,,,,,,,
39200,note_on,0,0,0,,,,,,,,,0,,,82,112
39200,note_on,0,0,0,,,,,,,,,0,,,94,112
39200,note_on,5,0,1,,,,,,,,,0,,,58,112
39200,note_on,0,0,1,,,,,,,,,0,,,70,112
39275,note_on,0,0,0,,,,,,,,,0,,,94,0
39275,note_on,0,0,1,,,,,,,,,0,,,70,0
39275,note_on,75,0,1,,,,,,,,,0,,,58,0
39275,note_on,75,0,0,,,,,,,,,0,,,82,0
39280,note_on,0,0,0,,,,,,,,,0,,,93,112
39280,note_on,0,0,1,,,,,,,,,0,,,69,112
39280,note_on,5,0,1,,,,,,,,,0,,,57,112
39280,note_on,5,0,0,,,,,,,,,0,,,81,112
39355,note_on,0,0,1,,,,,,,,,0,,,69,0
39355,note_on,0,0,0,,,,,,,,,0,,,93,0
39355,note_on,75,0,1,,,,,,,,,0,,,57,0
39355,note_on,75,0,0,,,,,,,,,0,,,81,0
39360,note_on,0,0,0,,,,,,,,,0,,,87,127
39360,note_on,0,0,0,,,,,,,,,0,,,99,127
39360,set_tempo,5,1,0,,,,,,2400000,,,,,,,
39360,note_on,0,0,1,,,,,,,,,0,,,75,127
39360,note_on,5,0,1,,,,,,,,,0,,,63,127
39412,note_on,0,0,0,,,,,,,,,0,,,99,0
39412,note_on,0,0,1,,,,,,,,,0,,,75,0
39412,note_on,52,0,0,,,,,,,,,0,,,87,0
39412,note_on,52,0,1,,,,,,,,,0,,,63,0
39440,set_tempo,28,1,0,,,,,,1000000,,,,,,,
39440,note_on,28,0,1,,,,,,,,,0,,,62,112
39440,note_on,0,0,0,,,,,,,,,0,,,98,112
39440,note_on,0,0,1,,,,,,,,,0,,,74,112
39440,note_on,0,0,0,,,,,,,,,0,,,86,112
39515,note_on,0,0,0,,,,,,,,,0,,,98,0
39515,note_on,75,0,0,,,,,,,,,0,,,86,0
39515,note_on,75,0,1,,,,,,,,,0,,,62,0
39515,note_on,0,0,1,,,,,,,,,0,,,74,0
39520,note_on,5,0,0,,,,,,,,,0,,,85,112
39520,note_on,0,0,1,,,,,,,,,0,,,73,112
39520,note_on,0,0,0,,,,,,,,,0,,,97,112
39520,note_on,5,0,1,,,,,,,,,0,,,61,112
39595,note_on,0,0,1,,,,,,,,,0,,,73,0
39595,note_on,75,0,0,,,,,,,,,0,,,85,0
39595,note_on,0,0,0,,,,,,,,,0,,,97,0
39595,note_on,75,0,1,,,,,,,,,0,,,61,0
39600,note_on,0,0,0,,,,,,,,,0,,,96,112
39600,note_on,0,0,0,,,,,,,,,0,,,84,112
39600,note_on,0,0,1,,,,,,,,,0,,,72,112
39600,set_tempo,5,1,0,,,,,,923077,,,,,,,
39600,note_on,5,0,1,,,,,,,,,0,,,60,112
39675,note_on,75,0,1,,,,,,,,,0,,,60,0
39675,note_on,0,0,1,,,,,,,,,0,,,72,0
39675,note_on,75,0,0,,,,,,,,,0,,,84,0
39675,note_on,0,0,0,,,,,,,,,0,,,96,0
39680,note_on,0,0,0,,,,,,,,,0,,,95,112
39680,note_on,5,0,1,,,,,,,,,0,,,59,112
39680,note_on,5,0,0,,,,,,,,,0,,,83,112
39680,note_on,0,0,1,,,,,,,,,0,,,71,112
39755,note_on,75,0,1,,,,,,,,,0,,,59,0
39755,note_on,0,0,1,,,,,,,,,0,,,71,0
39755,note_on,75,0,0,,,,,,,,,0,,,83,0
39755,note_on,0,0,0,,,,,,,,,0,,,95,0
39760,note_on,5,0,1,,,,,,,,,0,,,58,112
39760,note_on,0,0,0,,,,,,,,,0,,,94,112
39760,set_tempo,5,1,0,,,,,,857143,,,,,,,
39760,note_on,0,0,1,,,,,,,,,0,,,70,112
39760,note_on,0,0,0,,,,,,,,,0,,,82,112
39835,note_on,75,0,1,,,,,,,,,0,,,58,0
39835,note_on,75,0,0,,,,,,,,,0,,,82,0
39835,note_on,0,0,1,,,,,,,,,0,,,70,0
39835,note_on,0,0,0,,,,,,,,,0,,,94,0
39840,note_on,0,0,1,,,,,,,,,0,,,69,112
39840,note_on,0,0,0,,,,,,,,,0,,,93,112
39840,note_on,5,0,1,,,,,,,,,0,,,57,112
39840,note_on,5,0,0,,,,,,,,,0,,,81,112
39915,note_on,75,0,0,,,,,,,,,0,,,81,0
39915,note_on,75,0,1,,,,,,,,,0,,,57,0
39915,note_on,0,0,0,,,,,,,,,0,,,93,0
39915,note_on,0,0,1,,,,,,,,,0,,,69,0
39920,note_on,0,0,0,,,,,,,,,0,,,92,112
39920,note_on,5,0,0,,,,,,,,,0,,,80,112
39920,note_on,0,0,1,,,,,,,,,0,,,68,112
39920,note_on,5,0,1,,,,,,,,,0,,,56,112
39995,note_on,0,0,1,,,,,,,,,0,,,68,0
39995,note_on,75,0,0,,,,,,,,,0,,,80,0
39995,note_on,0,0,0,,,,,,,,,0,,,92,0
39995,note_on,75,0,1,,,,,,,,,0,,,56,0
40000,note_on,0,0,1,,,,,,,,,0,,,67,112
40000,note_on,0,0,0,,,,,,,,,0,,,91,112
40000,note_on,5,0,1,,,,,,,,,0,,,55,112
40000,note_on,5,0,0,,,,,,,,,0,,,79,112
40075,note_on,75,0,0,,,,,,,,,0,,,79,0
40075,note_on,0,0,0,,,,,,,,,0,,,91,0
40075,note_on,75,0,1,,,,,,,,,0,,,55,0
40075,note_on,0,0,1,,,,,,,,,0,,,67,0
40080,note_on,0,0,1,,,,,,,,,0,,,66,112
40080,note_on,5,0,1,,,,,,,,,0,,,54,112
40080,note_on,5,0,0,,,,,,,,,0,,,78,112
40080,note_on,0,0,0,,,,,,,,,0,,,90,112
40136,note_on,56,0,0,,,,,,,,,0,,,78,0
40136,note_on,0,0,1,,,,,,,,,0,,,66,0
40136,note_on,56,0,1,,,,,,,,,0,,,54,0
40136,note_on,0,0,0,,,,,,,,,0,,,90,0
40140,note_on,0,0,0,,,,,,,,,0,,,89,112
40140,note_on,0,0,1,,,,,,,,,0,,,65,112
40140,note_on,4,0,0,,,,,,,,,0,,,77,112
40140,note_on,4,0,1,,,,,,,,,0,,,53,112
40196,note_on,56,0,0,,,,,,,,,0,,,77,0
40196,note_on,56,0,1,,,,,,,,,0,,,53,0
40196,note_on,0,0,0,,,,,,,,,0,,,89,0
40196,note_on,0,0,1,,,,,,,,,0,,,65,0
40200,note_on,4,0,0,,,,,,,,,0,,,76,112
40200,note_on,0,0,0,,,,,,,,,0,,,88,112
40200,note_on,0,0,1,,,,,,,,,0,,,64,112
40200,note_on,4,0,1,,,,,,,,,0,,,52,112
40256,note_on,0,0,1,,,,,,,,,0,,,64,0
40256,note_on,56,0,1,,,,,,,,,0,,,52,0
40256,note_on,0,0,0,,,,,,,,,0,,,88,0
40256,note_on,56,0,0,,,,,,,,,0,,,76,0
40260,note_on,0,0,0,,,,,,,,,0,,,87,112
40260,note_on,4,0,0,,,,,,,,,0,,,75,112
40260,note_on,0,0,1,,,,,,,,,0,,,63,112
40260,note_on,4,0,1,,,,,,,,,0,,,51,112
40316,note_on,0,0,0,,,,,,,,,0,,,87,0
40316,note_on,56,0,0,,,,,,,,,0,,,75,0
40316,note_on,0,0,1,,,,,,,,,0,,,63,0
40316,note_on,56,0,1,,,,,,,,,0,,,51,0
40320,note_on,0,0,0,,,,,,,,,0,,,81,127
40320,note_on,0,0,0,,,,,,,,,0,,,86,127
40320,note_on,0,0,1,,,,,,,,,0,,,54,127
40320,note_on,0,0,1,,,,,,,,,0,,,57,127
40320,note_on,0,0,1,,,,,,,,,0,,,62,127
40320,note_on,0,0,0,,,,,,,,,0,,,78,127
40320,note_on,4,0,0,,,,,,,,,0,,,74,127
40320,note_on,4,0,1,,,,,,,,,0,,,50,127
40321,control_change,1,0,1,,,,,,,64,0,0,,,,
40322,control_change,1,0,1,,,,,,,64,127,0,,,,
40399,note_on,79,0,0,,,,,,,,,0,,,74,0
40399,note_on,0,0,1,,,,,,,,,0,,,62,0
40399,note_on,0,0,1,,,,,,,,,0,,,57,0
40399,note_on,0,0,1,,,,,,,,,0,,,54,0
40399,note_on,77,0,1,,,,,,,,,0,,,50,0
40399,note_on,0,0,0,,,,,,,,,0,,,86,0
40399,note_on,0,0,0,,,,,,,,,0,,,78,0
40399,note_on,0,0,0,,,,,,,,,0,,,81,0
40400,note_on,1,0,1,,,,,,,,,0,,,49,112
40400,note_on,0,0,1,,,,,,,,,0,,,61,112
40400,note_on,0,0,0,,,,,,,,,0,,,85,112
40400,note_on,1,0,0,,,,,,,,,0,,,73,112
40475,note_on,0,0,0,,,,,,,,,0,,,85,0
40475,note_on,75,0,1,,,,,,,,,0,,,49,0
40475,note_on,75,0,0,,,,,,,,,0,,,73,0
40475,note_on,0,0,1,,,,,,,,,0,,,61,0
40480,note_on,5,0,0,,,,,,,,,0,,,72,112
40480,note_on,5,0,1,,,,,,,,,0,,,48,112
40480,note_on,0,0,1,,,,,,,,,0,,,60,112
40480,note_on,0,0,0,,,,,,,,,0,,,84,112
40555,note_on,75,0,1,,,,,,,,,0,,,48,0
40555,note_on,0,0,0,,,,,,,,,0,,,84,0
40555,note_on,0,0,1,,,,,,,,,0,,,60,0
40555,note_on,75,0,0,,,,,,,,,0,,,72,0
40560,note_on,0,0,1,,,,,,,,,0,,,59,112
40560,note_on,0,0,0,,,,,,,,,0,,,83,112
40560,note_on,5,0,1,,,,,,,,,0,,,47,112
40560,note_on,5,0,0,,,,,,,,,0,,,71,112
40635,note_on,0,0,0,,,,,,,,,0,,,83,0
40635,note_on,75,0,1,,,,,,,,,0,,,47,0
40635,note_on,0,0,1,,,,,,,,,0,,,59,0
40635,note_on,75,0,0,,,,,,,,,0,,,71,0
40640,note_on,0,0,1,,,,,,,,,0,,,58,112
40640,note_on,5,0,0,,,,,,,,,0,,,70,112
40640,note_on,0,0,0,,,,,,,,,0,,,82,112
40640,note_on,5,0,1,,,,,,,,,0,,,46,112
40715,note_on,0,0,0,,,,,,,,,0,,,82,0
40715,note_on,75,0,1,,,,,,,,,0,,,46,0
40715,note_on,0,0,1,,,,,,,,,0,,,58,0
40715,note_on,75,0,0,,,,,,,,,0,,,70,0
40720,note_on,5,0,0,,,,,,,,,0,,,69,112
40720,note_on,0,0,0,,,,,,,,,0,,,81,112
40720,note_on,5,0,1,,,,,,,,,0,,,45,112
40720,note_on,0,0,1,,,,,,,,,0,,,57,112
40795,note_on,0,0,1,,,,,,,,,0,,,57,0
40795,note_on,75,0,0,,,,,,,,,0,,,69,0
40795,note_on,0,0,0,,,,,,,,,0,,,81,0
40795,note_on,75,0,1,,,,,,,,,0,,,45,0
40800,note_on,5,0,1,,,,,,,,,0,,,51,127
40800,set_tempo,5,1,0,,,,,,1500000,,,,,,,
40800,note_on,0,0,1,,,,,,,,,0,,,63,127
40800,note_on,0,0,0,,,,,,,,,0,,,87,127
40800,note_on,0,0,0,,,,,,,,,0,,,75,127
40852,note_on,0,0,0,,,,,,,,,0,,,87,0
40852,note_on,52,0,0,,,,,,,,,0,,,75,0
40852,note_on,52,0,1,,,,,,,,,0,,,51,0
40852,note_on,0,0,1,,,,,,,,,0,,,63,0
40880,set_tempo,28,1,0,,,,,,923077,,,,,,,
40880,note_on,28,0,1,,,,,,,,,0,,,50,112
40880,note_on,0,0,0,,,,,,,,,0,,,86,112
40880,note_on,0,0,0,,,,,,,,,0,,,74,112
40880,note_on,0,0,1,,,,,,,,,0,,,62,112
40955,note_on,0,0,0,,,,,,,,,0,,,86,0
40955,note_on,75,0,0,,,,,,,,,0,,,74,0
40955,note_on,75,0,1,,,,,,,,,0,,,50,0
40955,note_on,0,0,1,,,,,,,,,0,,,62,0
40960,note_on,5,0,1,,,,,,,,,0,,,49,112
40960,note_on,0,0,1,,,,,,,,,0,,,61,112
40960,note_on,5,0,0,,,,,,,,,0,,,73,112
40960,note_on,0,0,0,,,,,,,,,0,,,85,112
41035,note_on,75,0,1,,,,,,,,,0,,,49,0
41035,note_on,0,0,1,,,,,,,,,0,,,61,0
41035,note_on,0,0,0,,,,,,,,,0,,,85,0
41035,note_on,75,0,0,,,,,,,,,0,,,73,0
41040,note_on,0,0,0,,,,,,,,,0,,,72,112
41040,note_on,0,0,1,,,,,,,,,0,,,60,112
41040,set_tempo,5,1,0,,,,,,857143,,,,,,,
41040,note_on,5,0,1,,,,,,,,,0,,,48,112
41040,note_on,0,0,0,,,,,,,,,0,,,84,112
41115,note_on,75,0,0,,,,,,,,,0,,,72,0
41115,note_on,0,0,0,,,,,,,,,0,,,84,0
41115,note_on,75,0,1,,,,,,,,,0,,,48,0
41115,note_on,0,0,1,,,,,,,,,0,,,60,0
41120,note_on,0,0,1,,,,,,,,,0,,,59,112
41120,note_on,0,0,0,,,,,,,,,0,,,83,112
41120,note_on,5,0,0,,,,,,,,,0,,,71,112
41120,note_on,5,0,1,,,,,,,,,0,,,47,112
41195,note_on,0,0,0,,,,,,,,,0,,,83,0
41195,note_on,0,0,1,,,,,,,,,0,,,59,0
41195,note_on,75,0,1,,,,,,,,,0,,,47,0
41195,note_on,75,0,0,,,,,,,,,0,,,71,0
41200,note_on,0,0,1,,,,,,,,,0,,,58,112
41200,note_on,5,0,1,,,,,,,,,0,,,46,112
41200,note_on,5,0,0,,,,,,,,,0,,,70,112
41200,note_on,0,0,0,,,,,,,,,0,,,82,112
41275,note_on,0,0,1,,,,,,,,,0,,,58,0
41275,note_on,75,0,0,,,,,,,,,0,,,70,0
41275,note_on,0,0,0,,,,,,,,,0,,,82,0
41275,note_on,75,0,1,,,,,,,,,0,,,46,0
41280,note_on,5,0,1,,,,,,,,,0,,,45,112
41280,note_on,5,0,0,,,,,,,,,0,,,69,112
41280,note_on,0,0,1,,,,,,,,,0,,,57,112
41280,note_on,0,0,0,,,,,,,,,0,,,81,112
41355,note_on,75,0,0,,,,,,,,,0,,,69,0
41355,note_on,0,0,0,,,,,,,,,0,,,81,0
41355,note_on,75,0,1,,,,,,,,,0,,,45,0
41355,note_on,0,0,1,,,,,,,,,0,,,57,0
41360,note_on,5,0,0,,,,,,,,,0,,,68,112
41360,note_on,0,0,0,,,,,,,,,0,,,80,112
41360,note_on,5,0,1,,,,,,,,,0,,,44,112
41360,note_on,0,0,1,,,,,,,,,0,,,56,112
41435,note_on,75,0,1,,,,,,,,,0,,,44,0
41435,note_on,75,0,0,,,,,,,,,0,,,68,0
41435,note_on,0,0,0,,,,,,,,,0,,,80,0
41435,note_on,0,0,1,,,,,,,,,0,,,56,0
41440,note_on,0,0,0,,,,,,,,,0,,,79,112
41440,note_on,5,0,1,,,,,,,,,0,,,43,112
41440,note_on,5,0,0,,,,,,,,,0,,,67,112
41440,note_on,0,0,1,,,,,,,,,0,,,55,112
41515,note_on,75,0,1,,,,,,,,,0,,,43,0
41515,note_on,75,0,0,,,,,,,,,0,,,67,0
41515,note_on,0,0,1,,,,,,,,,0,,,55,0
41515,note_on,0,0,0,,,,,,,,,0,,,79,0
41520,note_on,0,0,0,,,,,,,,,0,,,78,112
41520,note_on,5,0,1,,,,,,,,,0,,,42,112
41520,note_on,5,0,0,,,,,,,,,0,,,66,112
41520,note_on,0,0,1,,,,,,,,,0,,,54,112
41576,note_on,56,0,0,,,,,,,,,0,,,66,0
41576,note_on,0,0,0,,,,,,,,,0,,,78,0
41576,note_on,56,0,1,,,,,,,,,0,,,42,0
41576,note_on,0,0,1,,,,,,,,,0,,,54,0
41580,note_on,4,0,1,,,,,,,,,0,,,41,112
41580,note_on,0,0,0,,,,,,,,,0,,,77,112
41580,note_on,4,0,0,,,,,,,,,0,,,65,112
41580,note_on,0,0,1,,,,,,,,,0,,,53,112
41636,note_on,56,0,0,,,,,,,,,0,,,65,0
41636,note_on,56,0,1,,,,,,,,,0,,,41,0
41636,note_on,0,0,0,,,,,,,,,0,,,77,0
41636,note_on,0,0,1,,,,,,,,,0,,,53,0
41640,note_on,0,0,1,,,,,,,,,0,,,52,112
41640,note_on,4,0,0,,,,,,,,,0,,,64,112
41640,note_on,0,0,0,,,,,,,,,0,,,76,112
41640,note_on,4,0,1,,,,,,,,,0,,,40,112
41696,note_on,0,0,0,,,,,,,,,0,,,76,0
41696,note_on,56,0,0,,,,,,,,,0,,,64,0
41696,note_on,0,0,1,,,,,,,,,0,,,52,0
41696,note_on,56,0,1,,,,,,,,,0,,,40,0
41700,note_on,4,0,1,,,,,,,,,0,,,39,112
41700,note_on,0,0,1,,,,,,,,,0,,,51,112
41700,note_on,0,0,0,,,,,,,,,0,,,75,112
41700,note_on,4,0,0,,,,,,,,,0,,,63,112
41756,note_on,56,0,1,,,,,,,,,0,,,39,0
41756,note_on,0,0,1,,,,,,,,,0,,,51,0
41756,note_on,56,0,0,,,,,,,,,0,,,63,0
41756,note_on,0,0,0,,,,,,,,,0,,,75,0
41760,note_on,4,0,1,,,,,,,,,0,,,38,127
41760,note_on,0,0,1,,,,,,,,,0,,,50,127
41760,note_on,0,0,1,,,,,,,,,0,,,45,127
41760,note_on,0,0,1,,,,,,,,,0,,,42,127
41760,note_on,4,0,0,,,,,,,,,0,,,62,127
41760,note_on,0,0,0,,,,,,,,,0,,,74,127
41760,note_on,0,0,0,,,,,,,,,0,,,69,127
41760,note_on,0,0,0,,,,,,,,,0,,,66,127
41761,control_change,1,0,1,,,,,,,64,0,0,,,,
41762,control_change,1,0,1,,,,,,,64,127,0,,,,
41839,note_on,0,0,0,,,,,,,,,0,,,69,0
41839,note_on,0,0,1,,,,,,,,,0,,,50,0
41839,note_on,77,0,1,,,,,,,,,0,,,38,0
41839,note_on,0,0,0,,,,,,,,,0,,,74,0
41839,note_on,0,0,0,,,,,,,,,0,,,66,0
41839,note_on,79,0,0,,,,,,,,,0,,,62,0
41839,note_on,0,0,1,,,,,,,,,0,,,45,0
41839,note_on,0,0,1,,,,,,,,,0,,,42,0
41840,note_on,0,0,1,,,,,,,,,0,,,49,112
41840,note_on,1,0,1,,,,,,,,,0,,,37,112
41840,note_on,1,0,0,,,,,,,,,0,,,61,112
41840,note_on,0,0,0,,,,,,,,,0,,,73,112
41915,note_on,0,0,1,,,,,,,,,0,,,49,0
41915,note_on,75,0,1,,,,,,,,,0,,,37,0
41915,note_on,0,0,0,,,,,,,,,0,,,73,0
41915,note_on,75,0,0,,,,,,,,,0,,,61,0
41920,note_on,0,0,1,,,,,,,,,0,,,48,112
41920,note_on,0,0,0,,,,,,,,,0,,,72,112
41920,note_on,5,0,0,,,,,,,,,0,,,60,112
41920,note_on,5,0,1,,,,,,,,,0,,,36,112
41995,note_on,0,0,0,,,,,,,,,0,,,72,0
41995,note_on,75,0,0,,,,,,,,,0,,,60,0
41995,note_on,75,0,1,,,,,,,,,0,,,36,0
41995,note_on,0,0,1,,,,,,,,,0,,,48,0
42000,note_on,0,0,1,,,,,,,,,0,,,47,112
42000,note_on,5,0,1,,,,,,,,,0,,,35,112
42000,note_on,5,0,0,,,,,,,,,0,,,59,112
42000,note_on,0,0,0,,,,,,,,,0,,,71,112
42075,note_on,0,0,0,,,,,,,,,0,,,71,0
42075,note_on,0,0,1,,,,,,,,,0,,,47,0
42075,note_on,75,0,0,,,,,,,,,0,,,59,0
42075,note_on,75,0,1,,,,,,,,,0,,,35,0
42080,note_on,5,0,0,,,,,,,,,0,,,58,112
42080,note_on,0,0,0,,,,,,,,,0,,,70,112
42080,note_on,0,0,1,,,,,,,,,0,,,46,112
42080,note_on,5,0,1,,,,,,,,,0,,,34,112
42155,note_on,0,0,0,,,,,,,,,0,,,70,0
42155,note_on,75,0,1,,,,,,,,,0,,,34,0
42155,note_on,0,0,1,,,,,,,,,0,,,46,0
42155,note_on,75,0,0,,,,,,,,,0,,,58,0
42160,note_on,5,0,1,,,,,,,,,0,,,33,112
42160,note_on,0,0,0,,,,,,,,,0,,,69,112
42160,note_on,0,0,1,,,,,,,,,0,,,45,112
42160,note_on,5,0,0,,,,,,,,,0,,,57,112
42235,note_on,75,0,1,,,,,,,,,0,,,33,0
42235,note_on,0,0,0,,,,,,,,,0,,,69,0
42235,note_on,75,0,0,,,,,,,,,0,,,57,0
42235,note_on,0,0,1,,,,,,,,,0,,,45,0
42240,note_on,5,0,1,,,,,,,,,0,,,39,127
42240,set_tempo,5,1,0,,,,,,1500000,,,,,,,
42240,note_on,0,0,0,,,,,,,,,0,,,63,127
42240,note_on,0,0,1,,,,,,,,,0,,,51,127
42240,note_on,0,0,0,,,,,,,,,0,,,75,127
42292,note_on,0,0,1,,,,,,,,,0,,,51,0
42292,note_on,0,0,0,,,,,,,,,0,,,75,0
42292,note_on,52,0,1,,,,,,,,,0,,,39,0
42292,note_on,52,0,0,,,,,,,,,0,,,63,0
42320,note_on,28,0,1,,,,,,,,,0,,,38,112
42320,note_on,0,0,1,,,,,,,,,0,,,50,112
42320,note_on,0,0,0,,,,,,,,,0,,,62,112
42320,note_on,0,0,0,,,,,,,,,0,,,74,112
42320,set_tempo,28,1,0,,,,,,923077,,,,,,,
42395,note_on,0,0,1,,,,,,,,,0,,,50,0
42395,note_on,0,0,0,,,,,,,,,0,,,74,0
42395,note_on,75,0,0,,,,,,,,,0,,,62,0
42395,note_on,75,0,1,,,,,,,,,0,,,38,0
42400,note_on,0,0,0,,,,,,,,,0,,,73,112
42400,note_on,0,0,1,,,,,,,,,0,,,49,112
42400,note_on,5,0,1,,,,,,,,,0,,,37,112
42400,note_on,5,0,0,,,,,,,,,0,,,61,112
42475,note_on,0,0,1,,,,,,,,,0,,,49,0
42475,note_on,0,0,0,,,,,,,,,0,,,73,0
42475,note_on,75,0,1,,,,,,,,,0,,,37,0
42475,note_on,75,0,0,,,,,,,,,0,,,61,0
42480,note_on,5,0,1,,,,,,,,,0,,,36,112
42480,note_on,0,0,1,,,,,,,,,0,,,48,112
42480,set_tempo,5,1,0,,,,,,857143,,,,,,,
42480,note_on,0,0,0,,,,,,,,,0,,,60,112
42480,note_on,0,0,0,,,,,,,,,0,,,72,112
42555,note_on,75,0,0,,,,,,,,,0,,,60,0
42555,note_on,0,0,1,,,,,,,,,0,,,48,0
42555,note_on,0,0,0,,,,,,,,,0,,,72,0
42555,note_on,75,0,1,,,,,,,,,0,,,36,0
42560,note_on,0,0,0,,,,,,,,,0,,,71,112
42560,note_on,5,0,0,,,,,,,,,0,,,59,112
42560,note_on,5,0,1,,,,,,,,,0,,,35,112
42560,note_on,0,0,1,,,,,,,,,0,,,47,112
42635,note_on,0,0,0,,,,,,,,,0,,,71,0
42635,note_on,75,0,1,,,,,,,,,0,,,35,0
42635,note_on,75,0,0,,,,,,,,,0,,,59,0
42635,note_on,0,0,1,,,,,,,,,0,,,47,0
42640,note_on,0,0,0,,,,,,,,,0,,,70,112
42640,note_on,5,0,0,,,,,,,,,0,,,58,112
42640,note_on,5,0,1,,,,,,,,,0,,,34,112
42640,note_on,0,0,1,,,,,,,,,0,,,46,112
42715,note_on,75,0,0,,,,,,,,,0,,,58,0
42715,note_on,75,0,1,,,,,,,,,0,,,34,0
42715,note_on,0,0,1,,,,,,,,,0,,,46,0
42715,note_on,0,0,0,,,,,,,,,0,,,70,0
42720,note_on,0,0,1,,,,,,,,,0,,,45,112
42720,note_on,5,0,1,,,,,,,,,0,,,33,112
42720,note_on,5,0,0,,,,,,,,,0,,,57,112
42720,note_on,0,0,0,,,,,,,,,0,,,69,112
42795,note_on,75,0,1,,,,,,,,,0,,,33,0
42795,note_on,75,0,0,,,,,,,,,0,,,57,0
42795,note_on,0,0,0,,,,,,,,,0,,,69,0
42795,note_on,0,0,1,,,,,,,,,0,,,45,0
42800,note_on,5,0,0,,,,,,,,,0,,,56,112
42800,note_on,5,0,1,,,,,,,,,0,,,32,112
42800,note_on,0,0,0,,,,,,,,,0,,,68,112
42800,note_on,0,0,1,,,,,,,,,0,,,44,112
42875,note_on,75,0,0,,,,,,,,,0,,,56,0
42875,note_on,0,0,0,,,,,,,,,0,,,68,0
42875,note_on,0,0,1,,,,,,,,,0,,,44,0
42875,note_on,75,0,1,,,,,,,,,0,,,32,0
42880,note_on,0,0,1,,,,,,,,,0,,,43,112
42880,note_on,5,0,0,,,,,,,,,0,,,55,112
42880,note_on,0,0,0,,,,,,,,,0,,,67,112
42880,note_on,5,0,1,,,,,,,,,0,,,31,112
42955,note_on,0,0,1,,,,,,,,,0,,,43,0
42955,note_on,75,0,1,,,,,,,,,0,,,31,0
42955,note_on,75,0,0,,,,,,,,,0,,,55,0
42955,note_on,0,0,0,,,,,,,,,0,,,67,0
42960,note_on,0,0,0,,,,,,,,,0,,,54,112
42960,note_on,5,0,0,,,,,,,,,0,,,66,112
42960,note_on,0,0,1,,,,,,,,,0,,,42,112
42960,note_on,5,0,1,,,,,,,,,0,,,30,112
43035,note_on,75,0,1,,,,,,,,,0,,,30,0
43035,note_on,0,0,1,,,,,,,,,0,,,42,0
43035,note_on,75,0,0,,,,,,,,,0,,,66,0
43035,note_on,0,0,0,,,,,,,,,0,,,54,0
43040,note_on,5,0,1,,,,,,,,,0,,,29,112
43040,note_on,5,0,0,,,,,,,,,0,,,65,112
43040,note_on,0,0,1,,,,,,,,,0,,,41,112
43040,note_on,0,0,0,,,,,,,,,0,,,53,112
43115,note_on,75,0,1,,,,,,,,,0,,,29,0
43115,note_on,0,0,0,,,,,,,,,0,,,53,0
43115,note_on,0,0,1,,,,,,,,,0,,,41,0
43115,note_on,75,0,0,,,,,,,,,0,,,65,0
43120,note_on,5,0,0,,,,,,,,,0,,,64,112
43120,note_on,5,0,1,,,,,,,,,0,,,28,112
43120,note_on,0,0,1,,,,,,,,,0,,,40,112
43120,note_on,0,0,0,,,,,,,,,0,,,52,112
43195,note_on,0,0,0,,,,,,,,,0,,,52,0
43195,note_on,0,0,1,,,,,,,,,0,,,40,0
43195,note_on,75,0,0,,,,,,,,,0,,,64,0
43195,note_on,75,0,1,,,,,,,,,0,,,28,0
43200,note_on,5,0,1,,,,,,,,,0,,,27,112
43200,note_on,0,0,0,,,,,,,,,0,,,51,112
43200,note_on,5,0,0,,,,,,,,,0,,,63,112
43200,note_on,0,0,1,,,,,,,,,0,,,39,112
43201,control_change,1,0,1,,,,,,,64,0,0,,,,
43202,control_change,1,0,1,,,,,,,64,127,0,,,,
43259,note_on,0,0,1,,,,,,,,,0,,,39,0
43259,note_on,0,0,0,,,,,,,,,0,,,51,0
43259,note_on,57,0,1,,,,,,,,,0,,,27,0
43259,note_on,59,0,0,,,,,,,,,0,,,63,0
43320,note_on,0,0,0,,,,,,,,,0,,,50,112
43320,note_on,0,0,0,,,,,,,,,0,,,54,112
43320,note_on,0,0,0,,,,,,,,,0,,,57,112
43320,note_on,61,0,1,,,,,,,,,0,,,26,112
43320,note_on,61,0,0,,,,,,,,,0,,,62,112
43320,note_on,0,0,1,,,,,,,,,0,,,30,112
43320,note_on,0,0,1,,,,,,,,,0,,,33,112
43320,note_on,0,0,1,,,,,,,,,0,,,38,112
43321,control_change,1,0,1,,,,,,,64,0,0,,,,
43379,note_on,59,0,0,,,,,,,,,0,,,50,0
43379,note_on,0,0,0,,,,,,,,,0,,,57,0
43379,note_on,0,0,0,,,,,,,,,0,,,54,0
43433,note_on,0,0,1,,,,,,,,,0,,,33,0
43433,note_on,0,0,1,,,,,,,,,0,,,38,0
43433,note_on,112,0,1,,,,,,,,,0,,,26,0
43433,note_on,54,0,0,,,,,,,,,0,,,62,0
43433,note_on,0,0,1,,,,,,,,,0,,,30,0
43440,note_on,7,0,1,,,,,,,,,0,,,39,112
43440,note_on,0,0,1,,,,,,,,,0,,,51,112
43440,note_on,0,0,0,,,,,,,,,0,,,75,112
43440,note_on,7,0,0,,,,,,,,,0,,,63,112
43442,control_change,2,0,1,,,,,,,64,127,0,,,,
43499,note_on,0,0,0,,,,,,,,,0,,,75,0
43499,note_on,0,0,1,,,,,,,,,0,,,51,0
43499,note_on,59,0,0,,,,,,,,,0,,,63,0
43499,note_on,57,0,1,,,,,,,,,0,,,39,0
43560,note_on,0,0,0,,,,,,,,,0,,,69,112
43560,note_on,0,0,0,,,,,,,,,0,,,74,112
43560,note_on,0,0,1,,,,,,,,,0,,,45,112
43560,note_on,0,0,1,,,,,,,,,0,,,50,112
43560,note_on,61,0,1,,,,,,,,,0,,,38,112
43560,note_on,0,0,0,,,,,,,,,0,,,66,112
43560,note_on,0,0,1,,,,,,,,,0,,,42,112
43560,note_on,61,0,0,,,,,,,,,0,,,62,112
43561,control_change,1,0,1,,,,,,,64,0,0,,,,
43673,note_on,0,0,0,,,,,,,,,0,,,74,0
43673,note_on,112,0,1,,,,,,,,,0,,,38,0
43673,note_on,0,0,1,,,,,,,,,0,,,50,0
43673,note_on,113,0,0,,,,,,,,,0,,,62,0
43673,note_on,0,0,1,,,,,,,,,0,,,45,0
43673,note_on,0,0,1,,,,,,,,,0,,,42,0
43673,note_on,0,0,0,,,,,,,,,0,,,69,0
43673,note_on,0,0,0,,,,,,,,,0,,,66,0
43680,note_on,0,0,1,,,,,,,,,0,,,63,112
43680,note_on,7,0,0,,,,,,,,,0,,,75,112
43680,note_on,7,0,1,,,,,,,,,0,,,51,112
43680,note_on,0,0,0,,,,,,,,,0,,,87,112
43682,control_change,2,0,1,,,,,,,64,127,0,,,,
43739,note_on,59,0,0,,,,,,,,,0,,,75,0
43739,note_on,57,0,1,,,,,,,,,0,,,51,0
43739,note_on,0,0,1,,,,,,,,,0,,,63,0
43739,note_on,0,0,0,,,,,,,,,0,,,87,0
43800,note_on,0,0,1,,,,,,,,,0,,,61,112
43800,note_on,0,0,1,,,,,,,,,0,,,57,112
43800,note_on,0,0,1,,,,,,,,,0,,,62,112
43800,note_on,61,0,1,,,,,,,,,0,,,50,112
43800,note_on,0,0,1,,,,,,,,,0,,,54,112
43800,note_on,0,0,0,,,,,,,,,0,,,85,112
43800,note_on,0,0,0,,,,,,,,,0,,,86,112
43800,note_on,0,0,0,,,,,,,,,0,,,78,112
43800,note_on,0,0,0,,,,,,,,,0,,,81,112
43800,note_on,61,0,0,,,,,,,,,0,,,74,112
43801,control_change,1,0,1,,,,,,,64,0,0,,,,
43913,note_on,112,0,1,,,,,,,,,0,,,50,0
43913,note_on,0,0,0,,,,,,,,,0,,,85,0
43913,note_on,0,0,0,,,,,,,,,0,,,86,0
43913,note_on,113,0,0,,,,,,,,,0,,,74,0
43913,note_on,0,0,1,,,,,,,,,0,,,54,0
43913,note_on,0,0,1,,,,,,,,,0,,,57,0
43913,note_on,0,0,1,,,,,,,,,0,,,62,0
43913,note_on,0,0,1,,,,,,,,,0,,,61,0
43913,note_on,0,0,0,,,,,,,,,0,,,78,0
43913,note_on,0,0,0,,,,,,,,,0,,,81,0
43920,note_on,0,0,0,,,,,,,,,0,,,99,112
43920,set_tempo,7,1,0,,,,,,1090909,,,,,,,
43920,note_on,0,0,0,,,,,,,,,0,,,87,112
43920,note_on,7,0,1,,,,,,,,,0,,,63,112
43920,note_on,0,0,1,,,,,,,,,0,,,75,112
43922,control_change,2,0,1,,,,,,,64,127,0,,,,
43979,note_on,0,0,1,,,,,,,,,0,,,75,0
43979,note_on,0,0,0,,,,,,,,,0,,,99,0
43979,note_on,57,0,1,,,,,,,,,0,,,63,0
43979,note_on,59,0,0,,,,,,,,,0,,,87,0
44040,note_on,0,0,1,,,,,,,,,0,,,73,112
44040,note_on,61,0,0,,,,,,,,,0,,,86,112
44040,note_on,61,0,1,,,,,,,,,0,,,62,112
44040,note_on,0,0,1,,,,,,,,,0,,,66,112
44040,note_on,0,0,1,,,,,,,,,0,,,69,112
44040,note_on,0,0,1,,,,,,,,,0,,,74,112
44040,note_on,0,0,0,,,,,,,,,0,,,93,112
44040,note_on,0,0,0,,,,,,,,,0,,,97,112
44040,note_on,0,0,0,,,,,,,,,0,,,90,112
44040,note_on,0,0,0,,,,,,,,,0,,,98,112
44041,control_change,1,0,1,,,,,,,64,0,0,,,,
44153,note_on,112,0,1,,,,,,,,,0,,,62,0
44153,note_on,0,0,0,,,,,,,,,0,,,98,0
44153,note_on,0,0,1,,,,,,,,,0,,,73,0
44153,note_on,0,0,1,,,,,,,,,0,,,74,0
44153,note_on,0,0,1,,,,,,,,,0,,,69,0
44153,note_on,0,0,1,,,,,,,,,0,,,66,0
44153,note_on,0,0,0,,,,,,,,,0,,,93,0
44153,note_on,0,0,0,,,,,,,,,0,,,97,0
44153,note_on,113,0,0,,,,,,,,,0,,,86,0
44153,note_on,0,0,0,,,,,,,,,0,,,90,0
44160,note_on,7,0,1,,,,,,,,,0,,,51,112
44160,set_tempo,7,1,0,,,,,,1200000,,,,,,,
44160,note_on,0,0,0,,,,,,,,,0,,,75,112
44160,note_on,0,0,1,,,,,,,,,0,,,63,112
44160,note_on,0,0,0,,,,,,,,,0,,,87,112
44162,control_change,2,0,1,,,,,,,64,127,0,,,,
44219,note_on,0,0,0,,,,,,,,,0,,,87,0
44219,note_on,57,0,1,,,,,,,,,0,,,51,0
44219,note_on,0,0,1,,,,,,,,,0,,,63,0
44219,note_on,59,0,0,,,,,,,,,0,,,75,0
44280,note_on,0,0,0,,,,,,,,,0,,,78,112
44280,note_on,0,0,0,,,,,,,,,0,,,81,112
44280,note_on,0,0,0,,,,,,,,,0,,,85,112
44280,note_on,61,0,0,,,,,,,,,0,,,74,112
44280,note_on,0,0,1,,,,,,,,,0,,,62,112
44280,note_on,0,0,1,,,,,,,,,0,,,61,112
44280,note_on,0,0,1,,,,,,,,,0,,,57,112
44280,note_on,0,0,1,,,,,,,,,0,,,54,112
44280,note_on,61,0,1,,,,,,,,,0,,,50,112
44280,note_on,0,0,0,,,,,,,,,0,,,86,112
44281,control_change,1,0,1,,,,,,,64,0,0,,,,
44393,note_on,0,0,0,,,,,,,,,0,,,78,0
44393,note_on,0,0,0,,,,,,,,,0,,,81,0
44393,note_on,0,0,0,,,,,,,,,0,,,86,0
44393,note_on,0,0,1,,,,,,,,,0,,,54,0
44393,note_on,0,0,1,,,,,,,,,0,,,57,0
44393,note_on,0,0,1,,,,,,,,,0,,,61,0
44393,note_on,0,0,1,,,,,,,,,0,,,62,0
44393,note_on,113,0,0,,,,,,,,,0,,,74,0
44393,note_on,0,0,0,,,,,,,,,0,,,85,0
44393,note_on,112,0,1,,,,,,,,,0,,,50,0
44400,set_tempo,7,1,0,,,,,,1578948,,,,,,,
44400,note_on,7,0,1,,,,,,,,,0,,,39,112
44400,note_on,0,0,1,,,,,,,,,0,,,51,112
44400,note_on,0,0,0,,,,,,,,,0,,,63,112
44400,note_on,0,0,0,,,,,,,,,0,,,75,112
44402,control_change,2,0,1,,,,,,,64,127,0,,,,
44459,note_on,57,0,1,,,,,,,,,0,,,39,0
44459,note_on,0,0,0,,,,,,,,,0,,,75,0
44459,note_on,59,0,0,,,,,,,,,0,,,63,0
44459,note_on,0,0,1,,,,,,,,,0,,,51,0
44520,note_on,0,0,1,,,,,,,,,0,,,42,112
44520,note_on,0,0,1,,,,,,,,,0,,,45,112
44520,note_on,0,0,0,,,,,,,,,0,,,62,112
44520,note_on,0,0,0,,,,,,,,,0,,,66,112
44520,note_on,0,0,0,,,,,,,,,0,,,69,112
44520,note_on,0,0,0,,,,,,,,,0,,,73,112
44520,note_on,0,0,0,,,,,,,,,0,,,74,112
44520,note_on,0,0,1,,,,,,,,,0,,,49,112
44520,note_on,0,0,1,,,,,,,,,0,,,50,112
44520,set_tempo,61,1,0,,,,,,4000000,,,,,,,
44520,note_on,61,0,1,,,,,,,,,0,,,38,112
44633,note_on,113,0,1,,,,,,,,,0,,,38,0
44633,note_on,0,0,1,,,,,,,,,0,,,50,0
44633,note_on,0,0,1,,,,,,,,,0,,,42,0
44633,note_on,0,0,1,,,,,,,,,0,,,45,0
44633,note_on,0,0,1,,,,,,,,,0,,,49,0
44639,note_on,0,0,0,,,,,,,,,0,,,74,0
44639,note_on,0,0,0,,,,,,,,,0,,,66,0
44639,note_on,0,0,0,,,,,,,,,0,,,69,0
44639,note_on,0,0,0,,,,,,,,,0,,,73,0
44639,note_on,119,0,0,,,,,,,,,0,,,62,0
44640,note_on,0,0,1,,,,,,,,,0,,,47,126
44640,note_on,0,0,1,,,,,,,,,0,,,50,126
44640,note_on,0,0,1,,,,,,,,,0,,,55,126
44640,key_signature,1,1,0,,,,,G,,,,,,,,
44640,set_tempo,0,1,0,,,,,,1333333,,,,,,,
44640,key_signature,7,1,1,,,,,G,,,,,,,,
44640,note_on,0,0,1,,,,,,,,,0,,,59,126
44640,note_on,0,0,0,,,,,,,,,0,,,62,0
44640,note_on,0,0,0,,,,,,,,,0,,,62,126
44640,note_on,0,0,0,,,,,,,,,0,,,62,127
44640,note_on,0,0,0,,,,,,,,,0,,,74,127
44641,control_change,1,0,1,,,,,,,64,0,0,,,,
44642,control_change,1,0,1,,,,,,,64,127,0,,,,
44680,note_on,40,0,0,,,,,,,,,0,,,67,126
44717,note_on,37,0,0,,,,,,,,,0,,,67,0
44720,note_on,3,0,0,,,,,,,,,0,,,71,126
44757,note_on,37,0,0,,,,,,,,,0,,,71,0
44760,note_on,3,0,0,,,,,,,,,0,,,74,0
44760,note_on,0,0,0,,,,,,,,,0,,,74,126
44800,note_on,40,0,0,,,,,,,,,0,,,79,126
44837,note_on,37,0,0,,,,,,,,,0,,,79,0
44840,note_on,3,0,0,,,,,,,,,0,,,83,126
44877,note_on,37,0,0,,,,,,,,,0,,,83,0
44880,note_on,238,0,1,,,,,,,,,0,,,31,126
44880,note_on,0,0,0,,,,,,,,,0,,,95,126
44880,note_on,0,0,0,,,,,,,,,0,,,98,0
44880,note_on,0,0,0,,,,,,,,,0,,,98,126
44880,note_on,0,0,0,,,,,,,,,0,,,98,126
44880,note_on,3,0,0,,,,,,,,,0,,,86,126
44895,note_on,15,0,1,,,,,,,,,0,,,35,126
44911,note_on,16,0,1,,,,,,,,,0,,,38,126
44920,note_on,40,0,0,,,,,,,,,0,,,91,126
44927,note_on,16,0,1,,,,,,,,,0,,,43,126
44957,note_on,37,0,0,,,,,,,,,0,,,91,0
44960,note_on,3,0,0,,,,,,,,,0,,,62,0
44960,note_on,0,0,0,,,,,,,,,0,,,86,126
44960,note_on,0,0,0,,,,,,,,,0,,,86,0
44960,note_on,0,0,0,,,,,,,,,0,,,74,0
45000,note_on,40,0,0,,,,,,,,,0,,,83,126
45037,note_on,37,0,0,,,,,,,,,0,,,83,0
45040,note_on,3,0,0,,,,,,,,,0,,,79,126
45077,note_on,37,0,0,,,,,,,,,0,,,79,0
45080,note_on,3,0,0,,,,,,,,,0,,,74,126
45095,note_on,168,0,1,,,,,,,,,0,,,47,0
45095,note_on,0,0,1,,,,,,,,,0,,,59,0
45095,note_on,0,0,1,,,,,,,,,0,,,50,0
45095,note_on,0,0,1,,,,,,,,,0,,,55,0
45107,note_on,27,0,0,,,,,,,,,0,,,86,0
45107,note_on,0,0,0,,,,,,,,,0,,,95,0
45107,note_on,0,0,0,,,,,,,,,0,,,98,0
45117,note_on,10,0,0,,,,,,,,,0,,,74,0
45118,note_on,0,0,1,,,,,,,,,0,,,38,0
45118,note_on,0,0,1,,,,,,,,,0,,,43,0
45118,note_on,23,0,1,,,,,,,,,0,,,35,0
45119,note_on,1,0,1,,,,,,,,,0,,,31,0
45120,note_on,3,0,0,,,,,,,,,0,,,61,126
45120,note_on,0,0,0,,,,,,,,,0,,,61,0
45120,note_on,0,0,0,,,,,,,,,0,,,61,127
45120,note_on,0,0,0,,,,,,,,,0,,,73,127
45120,note_on,0,0,1,,,,,,,,,0,,,58,126
45120,note_on,0,0,1,,,,,,,,,0,,,52,126
45120,note_on,0,0,1,,,,,,,,,0,,,49,126
45120,note_on,0,0,1,,,,,,,,,0,,,55,126
45120,note_on,1,0,1,,,,,,,,,0,,,46,126
45121,control_change,1,0,1,,,,,,,64,0,0,,,,
45122,control_change,1,0,1,,,,,,,64,127,0,,,,
45160,note_on,40,0,0,,,,,,,,,0,,,67,126
45197,note_on,37,0,0,,,,,,,,,0,,,67,0
45200,note_on,3,0,0,,,,,,,,,0,,,70,126
45237,note_on,37,0,0,,,,,,,,,0,,,70,0
45240,note_on,0,0,0,,,,,,,,,0,,,73,126
45240,note_on,3,0,0,,,,,,,,,0,,,73,0
45280,note_on,40,0,0,,,,,,,,,0,,,79,126
45317,note_on,37,0,0,,,,,,,,,0,,,79,0
45320,note_on,3,0,0,,,,,,,,,0,,,82,126
45357,note_on,37,0,0,,,,,,,,,0,,,82,0
45360,note_on,0,0,0,,,,,,,,,0,,,97,126
45360,note_on,0,0,0,,,,,,,,,0,,,97,126
45360,note_on,0,0,0,,,,,,,,,0,,,97,0
45360,note_on,0,0,0,,,,,,,,,0,,,94,126
45360,note_on,238,0,1,,,,,,,,,0,,,31,126
45360,note_on,3,0,0,,,,,,,,,0,,,85,126
45375,note_on,15,0,1,,,,,,,,,0,,,34,126
45391,note_on,16,0,1,,,,,,,,,0,,,37,126
45400,note_on,40,0,0,,,,,,,,,0,,,91,126
45407,note_on,16,0,1,,,,,,,,,0,,,40,126
45422,note_on,15,0,1,,,,,,,,,0,,,43,126
45437,note_on,37,0,0,,,,,,,,,0,,,91,0
45440,note_on,0,0,0,,,,,,,,,0,,,73,0
45440,note_on,0,0,0,,,,,,,,,0,,,85,0
45440,note_on,0,0,0,,,,,,,,,0,,,85,126
45440,note_on,3,0,0,,,,,,,,,0,,,61,0
45480,note_on,40,0,0,,,,,,,,,0,,,82,126
45517,note_on,37,0,0,,,,,,,,,0,,,82,0
45520,note_on,3,0,0,,,,,,,,,0,,,79,126
45557,note_on,37,0,0,,,,,,,,,0,,,79,0
45560,note_on,3,0,0,,,,,,,,,0,,,73,126
45575,note_on,153,0,1,,,,,,,,,0,,,46,0
45575,note_on,0,0,1,,,,,,,,,0,,,49,0
45575,note_on,0,0,1,,,,,,,,,0,,,58,0
45575,note_on,0,0,1,,,,,,,,,0,,,55,0
45575,note_on,0,0,1,,,,,,,,,0,,,52,0
45587,note_on,0,0,0,,,,,,,,,0,,,94,0
45587,note_on,27,0,0,,,,,,,,,0,,,85,0
45587,note_on,0,0,0,,,,,,,,,0,,,97,0
45597,note_on,10,0,0,,,,,,,,,0,,,73,0
45598,note_on,0,0,1,,,,,,,,,0,,,40,0
45598,note_on,0,0,1,,,,,,,,,0,,,37,0
45598,note_on,23,0,1,,,,,,,,,0,,,34,0
45598,note_on,0,0,1,,,,,,,,,0,,,43,0
45599,note_on,1,0,1,,,,,,,,,0,,,31,0
45600,note_on,3,0,0,,,,,,,,,0,,,62,126
45600,note_on,0,0,1,,,,,,,,,0,,,59,126
45600,note_on,0,0,0,,,,,,,,,0,,,62,127
45600,note_on,0,0,0,,,,,,,,,0,,,74,127
45600,note_on,1,0,1,,,,,,,,,0,,,47,126
45600,note_on,0,0,1,,,,,,,,,0,,,50,126
45600,note_on,0,0,0,,,,,,,,,0,,,62,0
45600,note_on,0,0,1,,,,,,,,,0,,,55,126
45601,control_change,1,0,1,,,,,,,64,0,0,,,,
45602,control_change,1,0,1,,,,,,,64,127,0,,,,
45640,note_on,40,0,0,,,,,,,,,0,,,67,126
45677,note_on,37,0,0,,,,,,,,,0,,,67,0
45680,note_on,3,0,0,,,,,,,,,0,,,71,126
45717,note_on,37,0,0,,,,,,,,,0,,,71,0
45720,note_on,3,0,0,,,,,,,,,0,,,74,0
45720,note_on,0,0,0,,,,,,,,,0,,,74,126
45760,note_on,40,0,0,,,,,,,,,0,,,79,126
45797,note_on,37,0,0,,,,,,,,,0,,,79,0
45800,note_on,3,0,0,,,,,,,,,0,,,83,126
45837,note_on,37,0,0,,,,,,,,,0,,,83,0
45840,note_on,0,0,0,,,,,,,,,0,,,95,126
45840,note_on,0,0,0,,,,,,,,,0,,,98,0
45840,note_on,0,0,0,,,,,,,,,0,,,98,126
45840,note_on,0,0,0,,,,,,,,,0,,,98,126
45840,note_on,238,0,1,,,,,,,,,0,,,31,126
45840,note_on,3,0,0,,,,,,,,,0,,,86,126
45855,note_on,15,0,1,,,,,,,,,0,,,35,126
45871,note_on,16,0,1,,,,,,,,,0,,,38,126
45880,note_on,40,0,0,,,,,,,,,0,,,91,126
45887,note_on,16,0,1,,,,,,,,,0,,,43,126
45917,note_on,37,0,0,,,,,,,,,0,,,91,0
45920,note_on,0,0,0,,,,,,,,,0,,,74,0
45920,note_on,0,0,0,,,,,,,,,0,,,86,126
45920,note_on,3,0,0,,,,,,,,,0,,,62,0
45920,note_on,0,0,0,,,,,,,,,0,,,86,0
45960,note_on,40,0,0,,,,,,,,,0,,,83,126
45997,note_on,37,0,0,,,,,,,,,0,,,83,0
46000,note_on,3,0,0,,,,,,,,,0,,,79,126
46037,note_on,37,0,0,,,,,,,,,0,,,79,0
46040,note_on,3,0,0,,,,,,,,,0,,,74,126
46055,note_on,0,0,1,,,,,,,,,0,,,55,0
46055,note_on,0,0,1,,,,,,,,,0,,,50,0
46055,note_on,0,0,1,,,,,,,,,0,,,59,0
46055,note_on,168,0,1,,,,,,,,,0,,,47,0
46067,note_on,27,0,0,,,,,,,,,0,,,86,0
46067,note_on,0,0,0,,,,,,,,,0,,,95,0
46067,note_on,0,0,0,,,,,,,,,0,,,98,0
46077,note_on,10,0,0,,,,,,,,,0,,,74,0
46078,note_on,23,0,1,,,,,,,,,0,,,35,0
46078,note_on,0,0,1,,,,,,,,,0,,,38,0
46078,note_on,0,0,1,,,,,,,,,0,,,43,0
46079,note_on,1,0,1,,,,,,,,,0,,,31,0
46080,note_on,0,0,0,,,,,,,,,0,,,71,127
46080,note_on,3,0,0,,,,,,,,,0,,,59,126
46080,note_on,1,0,1,,,,,,,,,0,,,43,126
46080,note_on,0,0,0,,,,,,,,,0,,,59,127
46080,note_on,0,0,1,,,,,,,,,0,,,55,126
46080,note_on,0,0,1,,,,,,,,,0,,,47,126
46080,note_on,0,0,0,,,,,,,,,0,,,59,0
46080,note_on,0,0,1,,,,,,,,,0,,,50,126
46081,control_change,1,0,1,,,,,,,64,0,0,,,,
46082,control_change,1,0,1,,,,,,,64,127,0,,,,
46120,note_on,40,0,0,,,,,,,,,0,,,62,126
46157,note_on,37,0,0,,,,,,,,,0,,,62,0
46160,note_on,3,0,0,,,,,,,,,0,,,67,126
46197,note_on,37,0,0,,,,,,,,,0,,,67,0
46200,note_on,0,0,0,,,,,,,,,0,,,71,126
46200,note_on,3,0,0,,,,,,,,,0,,,71,0
46240,note_on,40,0,0,,,,,,,,,0,,,74,126
46277,note_on,37,0,0,,,,,,,,,0,,,74,0
46280,note_on,3,0,0,,,,,,,,,0,,,79,126
46317,note_on,37,0,0,,,,,,,,,0,,,79,0
46320,note_on,0,0,0,,,,,,,,,0,,,95,0
46320,note_on,3,0,0,,,,,,,,,0,,,83,126
46320,note_on,0,0,0,,,,,,,,,0,,,95,126
46320,note_on,0,0,0,,,,,,,,,0,,,95,126
46320,note_on,0,0,0,,,,,,,,,0,,,91,126
46320,note_on,238,0,1,,,,,,,,,0,,,31,126
46335,note_on,15,0,1,,,,,,,,,0,,,35,126
46351,note_on,16,0,1,,,,,,,,,0,,,38,126
46360,note_on,40,0,0,,,,,,,,,0,,,86,126
46367,note_on,0,0,1,,,,,,,,,0,,,43,126
46367,note_on,16,0,1,,,,,,,,,0,,,43,0
46397,note_on,37,0,0,,,,,,,,,0,,,86,0
46400,note_on,0,0,0,,,,,,,,,0,,,71,0
46400,note_on,0,0,0,,,,,,,,,0,,,83,0
46400,note_on,0,0,0,,,,,,,,,0,,,83,126
46400,note_on,3,0,0,,,,,,,,,0,,,59,0
46440,note_on,40,0,0,,,,,,,,,0,,,79,126
46477,note_on,37,0,0,,,,,,,,,0,,,79,0
46480,note_on,3,0,0,,,,,,,,,0,,,74,126
46517,note_on,37,0,0,,,,,,,,,0,,,74,0
46520,note_on,3,0,0,,,,,,,,,0,,,71,126
46535,note_on,168,0,1,,,,,,,,,0,,,47,0
46535,note_on,0,0,1,,,,,,,,,0,,,50,0
46535,note_on,0,0,1,,,,,,,,,0,,,55,0
46547,note_on,27,0,0,,,,,,,,,0,,,83,0
46547,note_on,0,0,0,,,,,,,,,0,,,95,0
46547,note_on,0,0,0,,,,,,,,,0,,,91,0
46557,note_on,10,0,0,,,,,,,,,0,,,71,0
46558,note_on,0,0,1,,,,,,,,,0,,,38,0
46558,note_on,0,0,1,,,,,,,,,0,,,43,0
46558,note_on,23,0,1,,,,,,,,,0,,,35,0
46559,note_on,1,0,1,,,,,,,,,0,,,31,0
46560,note_on,0,0,1,,,,,,,,,0,,,55,126
46560,note_on,0,0,1,,,,,,,,,0,,,60,126
46560,note_on,1,0,1,,,,,,,,,0,,,48,126
46560,note_on,0,0,1,,,,,,,,,0,,,52,126
46560,note_on,0,0,0,,,,,,,,,0,,,64,127
46560,note_on,0,0,0,,,,,,,,,0,,,64,0
46560,note_on,3,0,0,,,,,,,,,0,,,64,126
46560,note_on,0,0,0,,,,,,,,,0,,,76,127
46561,control_change,1,0,1,,,,,,,64,0,0,,,,
46562,control_change,1,0,1,,,,,,,64,127,0,,,,
46600,note_on,40,0,0,,,,,,,,,0,,,67,126
46637,note_on,37,0,0,,,,,,,,,0,,,67,0
46640,note_on,3,0,0,,,,,,,,,0,,,72,126
46677,note_on,37,0,0,,,,,,,,,0,,,72,0
46680,note_on,0,0,0,,,,,,,,,0,,,76,126
46680,note_on,3,0,0,,,,,,,,,0,,,76,0
46720,note_on,40,0,0,,,,,,,,,0,,,79,126
46757,note_on,37,0,0,,,,,,,,,0,,,79,0
46760,note_on,3,0,0,,,,,,,,,0,,,84,126
46797,note_on,37,0,0,,,,,,,,,0,,,84,0
46800,note_on,238,0,1,,,,,,,,,0,,,31,126
46800,note_on,0,0,0,,,,,,,,,0,,,96,126
46800,note_on,0,0,0,,,,,,,,,0,,,100,0
46800,note_on,3,0,0,,,,,,,,,0,,,88,126
46800,note_on,0,0,0,,,,,,,,,0,,,100,126
46800,note_on,0,0,0,,,,,,,,,0,,,100,126
46815,note_on,15,0,1,,,,,,,,,0,,,36,126
46831,note_on,16,0,1,,,,,,,,,0,,,40,126
46840,note_on,40,0,0,,,,,,,,,0,,,91,126
46847,note_on,16,0,1,,,,,,,,,0,,,43,126
46877,note_on,37,0,0,,,,,,,,,0,,,91,0
46880,note_on,0,0,0,,,,,,,,,0,,,76,0
46880,note_on,0,0,0,,,,,,,,,0,,,88,0
46880,note_on,0,0,0,,,,,,,,,0,,,88,126
46880,note_on,3,0,0,,,,,,,,,0,,,64,0
46920,note_on,40,0,0,,,,,,,,,0,,,84,126
46957,note_on,37,0,0,,,,,,,,,0,,,84,0
46960,note_on,3,0,0,,,,,,,,,0,,,79,126
46997,note_on,37,0,0,,,,,,,,,0,,,79,0
47000,note_on,3,0,0,,,,,,,,,0,,,76,126
47015,note_on,0,0,1,,,,,,,,,0,,,60,0
47015,note_on,168,0,1,,,,,,,,,0,,,48,0
47015,note_on,0,0,1,,,,,,,,,0,,,55,0
47015,note_on,0,0,1,,,,,,,,,0,,,52,0
47027,note_on,27,0,0,,,,,,,,,0,,,88,0
47027,note_on,0,0,0,,,,,,,,,0,,,96,0
47027,note_on,0,0,0,,,,,,,,,0,,,100,0
47037,note_on,10,0,0,,,,,,,,,0,,,76,0
47038,note_on,0,0,1,,,,,,,,,0,,,43,0
47038,note_on,0,0,1,,,,,,,,,0,,,40,0
47038,note_on,23,0,1,,,,,,,,,0,,,36,0
47039,note_on,1,0,1,,,,,,,,,0,,,31,0
47040,note_on,0,0,0,,,,,,,,,0,,,74,127
47040,note_on,1,0,1,,,,,,,,,0,,,47,126
47040,note_on,0,0,1,,,,,,,,,0,,,59,126
47040,note_on,3,0,0,,,,,,,,,0,,,62,126
47040,note_on,0,0,0,,,,,,,,,0,,,62,0
47040,note_on,0,0,1,,,,,,,,,0,,,50,126
47040,note_on,0,0,1,,,,,,,,,0,,,55,126
47040,note_on,0,0,0,,,,,,,,,0,,,62,127
47041,control_change,1,0,1,,,,,,,64,0,0,,,,
47042,control_change,1,0,1,,,,,,,64,127,0,,,,
47080,note_on,40,0,0,,,,,,,,,0,,,67,126
47117,note_on,37,0,0,,,,,,,,,0,,,67,0
47120,note_on,3,0,0,,,,,,,,,0,,,71,126
47157,note_on,37,0,0,,,,,,,,,0,,,71,0
47160,note_on,3,0,0,,,,,,,,,0,,,74,0
47160,note_on,0,0,0,,,,,,,,,0,,,74,126
47200,note_on,40,0,0,,,,,,,,,0,,,79,126
47237,note_on,37,0,0,,,,,,,,,0,,,79,0
47240,note_on,3,0,0,,,,,,,,,0,,,83,126
47277,note_on,37,0,0,,,,,,,,,0,,,83,0
47280,note_on,0,0,0,,,,,,,,,0,,,98,0
47280,note_on,238,0,1,,,,,,,,,0,,,31,126
47280,note_on,0,0,0,,,,,,,,,0,,,98,126
47280,note_on,3,0,0,,,,,,,,,0,,,86,126
47280,note_on,0,0,0,,,,,,,,,0,,,98,126
47280,note_on,0,0,0,,,,,,,,,0,,,95,126
47295,note_on,15,0,1,,,,,,,,,0,,,35,126
47311,note_on,16,0,1,,,,,,,,,0,,,38,126
47320,note_on,40,0,0,,,,,,,,,0,,,91,126
47327,note_on,16,0,1,,,,,,,,,0,,,43,126
47357,note_on,37,0,0,,,,,,,,,0,,,91,0
47360,note_on,3,0,0,,,,,,,,,0,,,62,0
47360,note_on,0,0,0,,,,,,,,,0,,,74,0
47360,note_on,0,0,0,,,,,,,,,0,,,86,0
47360,note_on,0,0,0,,,,,,,,,0,,,86,126
47400,note_on,40,0,0,,,,,,,,,0,,,83,126
47437,note_on,37,0,0,,,,,,,,,0,,,83,0
47440,note_on,3,0,0,,,,,,,,,0,,,79,126
47477,note_on,37,0,0,,,,,,,,,0,,,79,0
47480,note_on,3,0,0,,,,,,,,,0,,,74,126
47495,note_on,0,0,1,,,,,,,,,0,,,50,0
47495,note_on,168,0,1,,,,,,,,,0,,,47,0
47495,note_on,0,0,1,,,,,,,,,0,,,55,0
47495,note_on,0,0,1,,,,,,,,,0,,,59,0
47507,note_on,0,0,0,,,,,,,,,0,,,95,0
47507,note_on,27,0,0,,,,,,,,,0,,,86,0
47507,note_on,0,0,0,,,,,,,,,0,,,98,0
47517,note_on,10,0,0,,,,,,,,,0,,,74,0
47518,note_on,0,0,1,,,,,,,,,0,,,43,0
47518,note_on,23,0,1,,,,,,,,,0,,,35,0
47518,note_on,0,0,1,,,,,,,,,0,,,38,0
47519,note_on,1,0,1,,,,,,,,,0,,,31,0
47520,note_on,0,0,1,,,,,,,,,0,,,54,126
47520,note_on,1,0,1,,,,,,,,,0,,,51,126
47520,note_on,0,0,0,,,,,,,,,0,,,60,0
47520,note_on,3,0,0,,,,,,,,,0,,,60,126
47520,note_on,0,0,1,,,,,,,,,0,,,57,126
47520,note_on,0,0,0,,,,,,,,,0,,,60,126
47520,note_on,0,0,0,,,,,,,,,0,,,72,126
47521,control_change,1,0,1,,,,,,,64,0,0,,,,
47522,control_change,1,0,1,,,,,,,64,127,0,,,,
47560,note_on,40,0,0,,,,,,,,,0,,,66,126
47597,note_on,37,0,0,,,,,,,,,0,,,66,0
47600,note_on,3,0,0,,,,,,,,,0,,,69,126
47637,note_on,37,0,0,,,,,,,,,0,,,69,0
47640,note_on,0,0,0,,,,,,,,,0,,,72,126
47640,note_on,3,0,0,,,,,,,,,0,,,72,0
47680,note_on,40,0,0,,,,,,,,,0,,,78,126
47717,note_on,37,0,0,,,,,,,,,0,,,78,0
47720,note_on,3,0,0,,,,,,,,,0,,,81,126
47757,note_on,37,0,0,,,,,,,,,0,,,81,0
47760,note_on,3,0,0,,,,,,,,,0,,,84,126
47760,note_on,0,0,0,,,,,,,,,0,,,93,126
47760,note_on,0,0,0,,,,,,,,,0,,,96,126
47760,note_on,0,0,0,,,,,,,,,0,,,96,0
47760,note_on,238,0,1,,,,,,,,,0,,,39,126
47760,note_on,0,0,0,,,,,,,,,0,,,96,126
47775,note_on,15,0,1,,,,,,,,,0,,,42,126
47791,note_on,16,0,1,,,,,,,,,0,,,45,126
47800,note_on,40,0,0,,,,,,,,,0,,,90,126
47807,note_on,16,0,1,,,,,,,,,0,,,48,126
47837,note_on,37,0,0,,,,,,,,,0,,,90,0
47840,note_on,0,0,0,,,,,,,,,0,,,84,126
47840,note_on,3,0,0,,,,,,,,,0,,,84,0
47880,note_on,40,0,0,,,,,,,,,0,,,81,126
47917,note_on,37,0,0,,,,,,,,,0,,,81,0
47920,note_on,3,0,0,,,,,,,,,0,,,78,126
47957,note_on,37,0,0,,,,,,,,,0,,,78,0
47960,note_on,0,0,0,,,,,,,,,0,,,72,126
47960,note_on,3,0,0,,,,,,,,,0,,,72,0
47975,note_on,15,0,0,,,,,,,,,0,,,60,0
47975,note_on,0,0,1,,,,,,,,,0,,,54,0
47975,note_on,168,0,1,,,,,,,,,0,,,51,0
47975,note_on,0,0,1,,,,,,,,,0,,,57,0
47987,note_on,0,0,0,,,,,,,,,0,,,96,0
47987,note_on,0,0,0,,,,,,,,,0,,,93,0
47987,note_on,12,0,0,,,,,,,,,0,,,84,0
47997,note_on,10,0,0,,,,,,,,,0,,,72,0
47998,note_on,23,0,1,,,,,,,,,0,,,42,0
47998,note_on,0,0,1,,,,,,,,,0,,,45,0
47998,note_on,0,0,1,,,,,,,,,0,,,48,0
47999,note_on,1,0,1,,,,,,,,,0,,,39,0
48000,note_on,0,0,0,,,,,,,,,0,,,71,126
48000,note_on,0,0,0,,,,,,,,,0,,,59,126
48000,note_on,0,0,0,,,,,,,,,0,,,59,0
48000,note_on,0,0,1,,,,,,,,,0,,,55,126
48000,note_on,3,0,0,,,,,,,,,0,,,59,126
48000,note_on,1,0,1,,,,,,,,,0,,,52,126
48001,control_change,1,0,1,,,,,,,64,0,0,,,,
48002,control_change,1,0,1,,,,,,,64,127,0,,,,
48040,note_on,40,0,0,,,,,,,,,0,,,64,126
48077,note_on,37,0,0,,,,,,,,,0,,,64,0
48080,note_on,3,0,0,,,,,,,,,0,,,67,126
48117,note_on,37,0,0,,,,,,,,,0,,,67,0
48120,note_on,0,0,0,,,,,,,,,0,,,71,126
48120,note_on,3,0,0,,,,,,,,,0,,,71,0
48160,note_on,40,0,0,,,,,,,,,0,,,76,126
48197,note_on,37,0,0,,,,,,,,,0,,,76,0
48200,note_on,3,0,0,,,,,,,,,0,,,79,126
48237,note_on,37,0,0,,,,,,,,,0,,,79,0
48240,note_on,3,0,0,,,,,,,,,0,,,83,126
48240,note_on,238,0,1,,,,,,,,,0,,,40,126
48240,note_on,0,0,0,,,,,,,,,0,,,95,126
48240,note_on,0,0,0,,,,,,,,,0,,,91,126
48240,note_on,0,0,0,,,,,,,,,0,,,95,0
48240,note_on,0,0,0,,,,,,,,,0,,,95,126
48263,note_on,23,0,1,,,,,,,,,0,,,43,126
48280,note_on,40,0,0,,,,,,,,,0,,,88,126
48287,note_on,24,0,1,,,,,,,,,0,,,47,126
48317,note_on,37,0,0,,,,,,,,,0,,,88,0
48320,note_on,3,0,0,,,,,,,,,0,,,83,0
48320,note_on,0,0,0,,,,,,,,,0,,,83,126
48360,note_on,40,0,0,,,,,,,,,0,,,79,126
48397,note_on,37,0,0,,,,,,,,,0,,,79,0
48400,note_on,3,0,0,,,,,,,,,0,,,76,126
48437,note_on,37,0,0,,,,,,,,,0,,,76,0
48440,note_on,0,0,0,,,,,,,,,0,,,71,126
48440,note_on,3,0,0,,,,,,,,,0,,,71,0
48455,note_on,15,0,0,,,,,,,,,0,,,59,0
48455,note_on,0,0,1,,,,,,,,,0,,,55,0
48455,note_on,168,0,1,,,,,,,,,0,,,52,0
48467,note_on,0,0,0,,,,,,,,,0,,,91,0
48467,note_on,0,0,0,,,,,,,,,0,,,95,0
48467,note_on,12,0,0,,,,,,,,,0,,,83,0
48477,note_on,10,0,0,,,,,,,,,0,,,71,0
48478,note_on,0,0,1,,,,,,,,,0,,,47,0
48478,note_on,23,0,1,,,,,,,,,0,,,43,0
48479,note_on,1,0,1,,,,,,,,,0,,,40,0
48480,note_on,0,0,0,,,,,,,,,0,,,69,126
48480,note_on,0,0,0,,,,,,,,,0,,,57,126
48480,note_on,0,0,0,,,,,,,,,0,,,57,0
48480,note_on,0,0,1,,,,,,,,,0,,,52,126
48480,note_on,1,0,1,,,,,,,,,0,,,48,126
48480,note_on,3,0,0,,,,,,,,,0,,,57,126
48481,control_change,1,0,1,,,,,,,64,0,0,,,,
48482,control_change,1,0,1,,,,,,,64,127,0,,,,
48520,note_on,40,0,0,,,,,,,,,0,,,60,126
48557,note_on,37,0,0,,,,,,,,,0,,,60,0
48560,note_on,3,0,0,,,,,,,,,0,,,64,126
48597,note_on,37,0,0,,,,,,,,,0,,,64,0
48600,note_on,0,0,0,,,,,,,,,0,,,69,126
48600,note_on,3,0,0,,,,,,,,,0,,,69,0
48640,note_on,40,0,0,,,,,,,,,0,,,72,126
48677,note_on,37,0,0,,,,,,,,,0,,,72,0
48680,note_on,3,0,0,,,,,,,,,0,,,76,126
48717,note_on,37,0,0,,,,,,,,,0,,,76,0
48720,note_on,3,0,0,,,,,,,,,0,,,81,126
48720,note_on,0,0,0,,,,,,,,,0,,,93,126
48720,note_on,0,0,0,,,,,,,,,0,,,93,0
48720,note_on,238,0,1,,,,,,,,,0,,,36,126
48720,note_on,0,0,0,,,,,,,,,0,,,93,126
48720,note_on,0,0,0,,,,,,,,,0,,,88,126
48743,note_on,23,0,1,,,,,,,,,0,,,40,126
48760,note_on,40,0,0,,,,,,,,,0,,,84,126
48767,note_on,24,0,1,,,,,,,,,0,,,45,126
48797,note_on,37,0,0,,,,,,,,,0,,,84,0
48800,note_on,0,0,0,,,,,,,,,0,,,81,126
48800,note_on,3,0,0,,,,,,,,,0,,,81,0
48840,note_on,40,0,0,,,,,,,,,0,,,76,126
48877,note_on,37,0,0,,,,,,,,,0,,,76,0
48880,note_on,3,0,0,,,,,,,,,0,,,72,126
48917,note_on,37,0,0,,,,,,,,,0,,,72,0
48920,note_on,3,0,0,,,,,,,,,0,,,69,0
48920,note_on,0,0,0,,,,,,,,,0,,,69,126
48935,note_on,168,0,1,,,,,,,,,0,,,48,0
48935,note_on,0,0,1,,,,,,,,,0,,,52,0
48935,note_on,15,0,0,,,,,,,,,0,,,57,0
48947,note_on,12,0,0,,,,,,,,,0,,,81,0
48947,note_on,0,0,0,,,,,,,,,0,,,93,0
48947,note_on,0,0,0,,,,,,,,,0,,,88,0
48957,note_on,10,0,0,,,,,,,,,0,,,69,0
48958,note_on,23,0,1,,,,,,,,,0,,,40,0
48958,note_on,0,0,1,,,,,,,,,0,,,45,0
48959,note_on,1,0,1,,,,,,,,,0,,,36,0
48960,note_on,0,0,1,,,,,,,,,0,,,52,126
48960,note_on,1,0,1,,,,,,,,,0,,,43,126
48960,note_on,3,0,0,,,,,,,,,0,,,52,126
48960,note_on,0,0,0,,,,,,,,,0,,,64,126
48960,note_on,0,0,0,,,,,,,,,0,,,52,0
48960,note_on,0,0,1,,,,,,,,,0,,,46,126
48961,control_change,1,0,1,,,,,,,64,0,0,,,,
48962,control_change,1,0,1,,,,,,,64,127,0,,,,
49000,note_on,40,0,0,,,,,,,,,0,,,55,126
49037,note_on,37,0,0,,,,,,,,,0,,,55,0
49040,note_on,3,0,0,,,,,,,,,0,,,58,126
49077,note_on,37,0,0,,,,,,,,,0,,,58,0
49080,note_on,0,0,0,,,,,,,,,0,,,64,126
49080,note_on,3,0,0,,,,,,,,,0,,,64,0
49120,note_on,40,0,0,,,,,,,,,0,,,67,126
49157,note_on,37,0,0,,,,,,,,,0,,,67,0
49160,note_on,3,0,0,,,,,,,,,0,,,70,126
49197,note_on,37,0,0,,,,,,,,,0,,,70,0
49200,note_on,0,0,0,,,,,,,,,0,,,82,126
49200,note_on,0,0,0,,,,,,,,,0,,,88,0
49200,note_on,3,0,0,,,,,,,,,0,,,76,126
49200,note_on,0,0,0,,,,,,,,,0,,,88,126
49200,note_on,238,0,1,,,,,,,,,0,,,24,126
49200,note_on,0,0,0,,,,,,,,,0,,,88,126
49200,note_on,0,0,1,,,,,,,,,0,,,36,126
49240,note_on,40,0,0,,,,,,,,,0,,,79,126
49277,note_on,37,0,0,,,,,,,,,0,,,79,0
49280,note_on,0,0,0,,,,,,,,,0,,,76,126
49280,note_on,3,0,0,,,,,,,,,0,,,76,0
49320,note_on,40,0,0,,,,,,,,,0,,,70,126
49357,note_on,37,0,0,,,,,,,,,0,,,70,0
49360,note_on,3,0,0,,,,,,,,,0,,,67,126
49397,note_on,37,0,0,,,,,,,,,0,,,67,0
49400,note_on,3,0,0,,,,,,,,,0,,,64,0
49400,note_on,0,0,0,,,,,,,,,0,,,64,126
49415,note_on,215,0,1,,,,,,,,,0,,,43,0
49415,note_on,0,0,1,,,,,,,,,0,,,52,0
49415,note_on,0,0,1,,,,,,,,,0,,,46,0
49427,note_on,0,0,0,,,,,,,,,0,,,88,0
49427,note_on,0,0,0,,,,,,,,,0,,,82,0
49427,note_on,12,0,1,,,,,,,,,0,,,24,0
49427,note_on,0,0,1,,,,,,,,,0,,,36,0
49427,note_on,27,0,0,,,,,,,,,0,,,76,0
49437,note_on,10,0,0,,,,,,,,,0,,,64,0
49440,note_on,0,0,1,,,,,,,,,0,,,52,126
49440,note_on,13,0,1,,,,,,,,,0,,,47,126
49440,note_on,0,0,0,,,,,,,,,0,,,67,126
49440,note_on,0,0,0,,,,,,,,,0,,,55,126
49440,note_on,0,0,0,,,,,,,,,0,,,55,0
49440,note_on,3,0,0,,,,,,,,,0,,,55,126
49441,control_change,1,0,1,,,,,,,64,0,0,,,,
49442,control_change,1,0,1,,,,,,,64,127,0,,,,
49480,note_on,40,0,0,,,,,,,,,0,,,59,126
49517,note_on,37,0,0,,,,,,,,,0,,,59,0
49520,note_on,3,0,0,,,,,,,,,0,,,64,126
49557,note_on,37,0,0,,,,,,,,,0,,,64,0
49560,note_on,0,0,0,,,,,,,,,0,,,67,126
49560,note_on,3,0,0,,,,,,,,,0,,,67,0
49600,note_on,40,0,0,,,,,,,,,0,,,71,126
49637,note_on,37,0,0,,,,,,,,,0,,,71,0
49640,note_on,3,0,0,,,,,,,,,0,,,76,126
49677,note_on,37,0,0,,,,,,,,,0,,,76,0
49680,note_on,0,0,0,,,,,,,,,0,,,91,0
49680,note_on,238,0,1,,,,,,,,,0,,,40,126
49680,note_on,0,0,0,,,,,,,,,0,,,91,126
49680,note_on,0,0,0,,,,,,,,,0,,,88,126
49680,note_on,0,0,0,,,,,,,,,0,,,91,126
49680,note_on,3,0,0,,,,,,,,,0,,,79,126
49703,note_on,23,0,1,,,,,,,,,0,,,43,126
49720,note_on,40,0,0,,,,,,,,,0,,,83,126
49727,note_on,24,0,1,,,,,,,,,0,,,47,0
49727,note_on,0,0,1,,,,,,,,,0,,,47,126
49757,note_on,37,0,0,,,,,,,,,0,,,83,0
49760,note_on,0,0,0,,,,,,,,,0,,,79,126
49760,note_on,3,0,0,,,,,,,,,0,,,79,0
49800,note_on,40,0,0,,,,,,,,,0,,,76,126
49837,note_on,37,0,0,,,,,,,,,0,,,76,0
49840,note_on,3,0,0,,,,,,,,,0,,,71,126
49877,note_on,37,0,0,,,,,,,,,0,,,71,0
49880,note_on,3,0,0,,,,,,,,,0,,,67,0
49880,note_on,0,0,0,,,,,,,,,0,,,67,126
49895,note_on,168,0,1,,,,,,,,,0,,,52,0
49895,note_on,15,0,0,,,,,,,,,0,,,55,0
49907,note_on,0,0,0,,,,,,,,,0,,,88,0
49907,note_on,12,0,0,,,,,,,,,0,,,79,0
49907,note_on,0,0,0,,,,,,,,,0,,,91,0
49917,note_on,10,0,0,,,,,,,,,0,,,67,0
49918,note_on,23,0,1,,,,,,,,,0,,,43,0
49918,note_on,0,0,1,,,,,,,,,0,,,47,0
49919,note_on,1,0,1,,,,,,,,,0,,,40,0
49920,set_tempo,3,1,0,,,,,,1428571,,,,,,,
49920,note_on,1,0,1,,,,,,,,,0,,,47,126
49920,note_on,0,0,0,,,,,,,,,0,,,54,126
49920,note_on,0,0,0,,,,,,,,,0,,,54,126
49920,note_on,0,0,0,,,,,,,,,0,,,66,126
49920,note_on,0,0,0,,,,,,,,,0,,,54,0
49920,note_on,0,0,1,,,,,,,,,0,,,51,126
49921,control_change,1,0,1,,,,,,,64,0,0,,,,
49922,control_change,1,0,1,,,,,,,64,127,0,,,,
49960,note_on,40,0,0,,,,,,,,,0,,,59,126
49997,note_on,37,0,0,,,,,,,,,0,,,59,0
50000,note_on,3,0,0,,,,,,,,,0,,,63,126
50037,note_on,37,0,0,,,,,,,,,0,,,63,0
50040,note_on,0,0,0,,,,,,,,,0,,,66,126
50040,note_on,3,0,0,,,,,,,,,0,,,66,0
50080,note_on,40,0,0,,,,,,,,,0,,,71,126
50117,note_on,37,0,0,,,,,,,,,0,,,71,0
50120,note_on,3,0,0,,,,,,,,,0,,,75,126
50157,note_on,37,0,0,,,,,,,,,0,,,75,0
50160,note_on,0,0,0,,,,,,,,,0,,,87,126
50160,note_on,0,0,0,,,,,,,,,0,,,90,126
50160,set_tempo,3,1,0,,,,,,1500000,,,,,,,
50160,note_on,0,0,0,,,,,,,,,0,,,78,126
50160,note_on,238,0,1,,,,,,,,,0,,,35,126
50160,note_on,0,0,0,,,,,,,,,0,,,90,126
50160,note_on,0,0,0,,,,,,,,,0,,,90,0
50181,note_on,21,0,1,,,,,,,,,0,,,39,126
50200,note_on,40,0,0,,,,,,,,,0,,,83,126
50202,note_on,21,0,1,,,,,,,,,0,,,42,126
50237,note_on,37,0,0,,,,,,,,,0,,,83,0
50240,note_on,0,0,0,,,,,,,,,0,,,78,126
50240,note_on,3,0,0,,,,,,,,,0,,,78,0
50280,note_on,40,0,0,,,,,,,,,0,,,75,126
50317,note_on,37,0,0,,,,,,,,,0,,,75,0
50320,note_on,3,0,0,,,,,,,,,0,,,71,126
50357,note_on,37,0,0,,,,,,,,,0,,,71,0
50360,note_on,0,0,0,,,,,,,,,0,,,66,126
50360,note_on,3,0,0,,,,,,,,,0,,,66,0
50375,note_on,15,0,0,,,,,,,,,0,,,54,0
50375,note_on,173,0,1,,,,,,,,,0,,,47,0
50375,note_on,0,0,1,,,,,,,,,0,,,51,0
50387,note_on,0,0,0,,,,,,,,,0,,,90,0
50387,note_on,0,0,0,,,,,,,,,0,,,87,0
50387,note_on,12,0,0,,,,,,,,,0,,,78,0
50397,note_on,10,0,0,,,,,,,,,0,,,66,0
50398,note_on,0,0,1,,,,,,,,,0,,,42,0
50398,note_on,23,0,1,,,,,,,,,0,,,39,0
50399,note_on,1,0,1,,,,,,,,,0,,,35,0
50400,set_tempo,3,1,0,,,,,,1333333,,,,,,,
50400,note_on,1,0,1,,,,,,,,,0,,,47,126
50400,note_on,0,0,1,,,,,,,,,0,,,59,126
50400,note_on,0,0,0,,,,,,,,,0,,,62,126
50400,note_on,0,0,0,,,,,,,,,0,,,62,126
50400,note_on,0,0,1,,,,,,,,,0,,,55,126
50400,note_on,0,0,1,,,,,,,,,0,,,50,126
50400,note_on,0,0,0,,,,,,,,,0,,,62,0
50400,note_on,0,0,0,,,,,,,,,0,,,74,126
50401,control_change,1,0,1,,,,,,,64,0,0,,,,
50402,control_change,1,0,1,,,,,,,64,127,0,,,,
50440,note_on,40,0,0,,,,,,,,,0,,,67,126
50477,note_on,37,0,0,,,,,,,,,0,,,67,0
50480,note_on,3,0,0,,,,,,,,,0,,,71,126
50517,note_on,37,0,0,,,,,,,,,0,,,71,0
50520,note_on,0,0,0,,,,,,,,,0,,,74,126
50520,note_on,3,0,0,,,,,,,,,0,,,74,0
50560,note_on,40,0,0,,,,,,,,,0,,,79,126
50597,note_on,37,0,0,,,,,,,,,0,,,79,0
50600,note_on,3,0,0,,,,,,,,,0,,,83,126
50637,note_on,37,0,0,,,,,,,,,0,,,83,0
50640,note_on,3,0,0,,,,,,,,,0,,,86,126
50640,note_on,0,0,1,,,,,,,,,0,,,43,126
50640,note_on,0,0,1,,,,,,,,,0,,,38,126
50640,note_on,0,0,1,,,,,,,,,0,,,35,126
50640,note_on,0,0,0,,,,,,,,,0,,,98,126
50640,note_on,0,0,0,,,,,,,,,0,,,98,126
50640,note_on,0,0,0,,,,,,,,,0,,,98,0
50640,note_on,0,0,0,,,,,,,,,0,,,95,126
50640,note_on,238,0,1,,,,,,,,,0,,,31,126
50680,note_on,40,0,0,,,,,,,,,0,,,91,126
50717,note_on,37,0,0,,,,,,,,,0,,,91,0
50720,note_on,3,0,0,,,,,,,,,0,,,86,0
50720,note_on,0,0,0,,,,,,,,,0,,,86,126
50760,note_on,40,0,0,,,,,,,,,0,,,83,126
50797,note_on,37,0,0,,,,,,,,,0,,,83,0
50800,note_on,3,0,0,,,,,,,,,0,,,79,126
50837,note_on,37,0,0,,,,,,,,,0,,,79,0
50840,note_on,3,0,0,,,,,,,,,0,,,74,0
50840,note_on,0,0,0,,,,,,,,,0,,,74,126
50855,note_on,215,0,1,,,,,,,,,0,,,47,0
50855,note_on,0,0,1,,,,,,,,,0,,,55,0
50855,note_on,0,0,1,,,,,,,,,0,,,50,0
50855,note_on,15,0,0,,,,,,,,,0,,,62,0
50855,note_on,0,0,1,,,,,,,,,0,,,59,0
50867,note_on,0,0,0,,,,,,,,,0,,,98,0
50867,note_on,0,0,0,,,,,,,,,0,,,95,0
50867,note_on,0,0,1,,,,,,,,,0,,,35,0
50867,note_on,0,0,1,,,,,,,,,0,,,38,0
50867,note_on,0,0,1,,,,,,,,,0,,,43,0
50867,note_on,12,0,0,,,,,,,,,0,,,86,0
50867,note_on,12,0,1,,,,,,,,,0,,,31,0
50877,note_on,10,0,0,,,,,,,,,0,,,74,0
50880,note_on,3,0,0,,,,,,,,,0,,,61,126
50880,note_on,13,0,1,,,,,,,,,0,,,46,126
50880,note_on,0,0,1,,,,,,,,,0,,,55,126
50880,note_on,0,0,1,,,,,,,,,0,,,52,126
50880,note_on,0,0,0,,,,,,,,,0,,,61,0
50880,note_on,0,0,1,,,,,,,,,0,,,49,126
50880,note_on,0,0,0,,,,,,,,,0,,,73,126
50880,note_on,0,0,1,,,,,,,,,0,,,58,126
50880,note_on,0,0,0,,,,,,,,,0,,,61,126
50881,control_change,1,0,1,,,,,,,64,0,0,,,,
50882,control_change,1,0,1,,,,,,,64,127,0,,,,
50920,note_on,40,0,0,,,,,,,,,0,,,67,126
50957,note_on,37,0,0,,,,,,,,,0,,,67,0
50960,note_on,3,0,0,,,,,,,,,0,,,70,126
50997,note_on,37,0,0,,,,,,,,,0,,,70,0
51000,note_on,3,0,0,,,,,,,,,0,,,73,0
51000,note_on,0,0,0,,,,,,,,,0,,,73,126
51040,note_on,40,0,0,,,,,,,,,0,,,79,126
51077,note_on,37,0,0,,,,,,,,,0,,,79,0
51080,note_on,3,0,0,,,,,,,,,0,,,82,126
51117,note_on,37,0,0,,,,,,,,,0,,,82,0
51120,note_on,3,0,0,,,,,,,,,0,,,85,126
51120,note_on,0,0,0,,,,,,,,,0,,,97,126
51120,note_on,0,0,0,,,,,,,,,0,,,97,126
51120,note_on,0,0,0,,,,,,,,,0,,,97,0
51120,note_on,238,0,1,,,,,,,,,0,,,31,126
51120,note_on,0,0,0,,,,,,,,,0,,,94,126
51120,note_on,0,0,1,,,,,,,,,0,,,43,126
51120,note_on,0,0,1,,,,,,,,,0,,,40,126
51120,note_on,0,0,1,,,,,,,,,0,,,37,126
51120,note_on,0,0,1,,,,,,,,,0,,,34,126
51160,note_on,40,0,0,,,,,,,,,0,,,91,126
51197,note_on,37,0,0,,,,,,,,,0,,,91,0
51200,note_on,0,0,0,,,,,,,,,0,,,85,126
51200,note_on,3,0,0,,,,,,,,,0,,,85,0
51240,note_on,40,0,0,,,,,,,,,0,,,82,126
51277,note_on,37,0,0,,,,,,,,,0,,,82,0
51280,note_on,3,0,0,,,,,,,,,0,,,79,126
51317,note_on,37,0,0,,,,,,,,,0,,,79,0
51320,note_on,3,0,0,,,,,,,,,0,,,73,0
51320,note_on,0,0,0,,,,,,,,,0,,,73,126
51335,note_on,0,0,1,,,,,,,,,0,,,52,0
51335,note_on,15,0,0,,,,,,,,,0,,,61,0
51335,note_on,0,0,1,,,,,,,,,0,,,55,0
51335,note_on,0,0,1,,,,,,,,,0,,,58,0
51335,note_on,0,0,1,,,,,,,,,0,,,49,0
51335,note_on,215,0,1,,,,,,,,,0,,,46,0
51347,note_on,0,0,1,,,,,,,,,0,,,34,0
51347,note_on,0,0,0,,,,,,,,,0,,,94,0
51347,note_on,0,0,1,,,,,,,,,0,,,43,0
51347,note_on,0,0,0,,,,,,,,,0,,,97,0
51347,note_on,0,0,1,,,,,,,,,0,,,40,0
51347,note_on,12,0,1,,,,,,,,,0,,,31,0
51347,note_on,12,0,0,,,,,,,,,0,,,85,0
51347,note_on,0,0,1,,,,,,,,,0,,,37,0
51357,note_on,10,0,0,,,,,,,,,0,,,73,0
51360,note_on,0,0,0,,,,,,,,,0,,,62,0
51360,note_on,0,0,0,,,,,,,,,0,,,62,126
51360,note_on,3,0,0,,,,,,,,,0,,,62,126
51360,note_on,0,0,0,,,,,,,,,0,,,74,126
51360,note_on,13,0,1,,,,,,,,,0,,,47,126
51360,note_on,0,0,1,,,,,,,,,0,,,59,126
51360,note_on,0,0,1,,,,,,,,,0,,,55,126
51360,note_on,0,0,1,,,,,,,,,0,,,50,126
51361,control_change,1,0,1,,,,,,,64,0,0,,,,
51362,control_change,1,0,1,,,,,,,64,127,0,,,,
51400,note_on,40,0,0,,,,,,,,,0,,,67,126
51437,note_on,37,0,0,,,,,,,,,0,,,67,0
51440,note_on,3,0,0,,,,,,,,,0,,,71,126
51477,note_on,37,0,0,,,,,,,,,0,,,71,0
51480,note_on,3,0,0,,,,,,,,,0,,,74,0
51480,note_on,0,0,0,,,,,,,,,0,,,74,126
51520,note_on,40,0,0,,,,,,,,,0,,,79,126
51557,note_on,37,0,0,,,,,,,,,0,,,79,0
51560,note_on,3,0,0,,,,,,,,,0,,,83,126
51597,note_on,37,0,0,,,,,,,,,0,,,83,0
51600,note_on,3,0,0,,,,,,,,,0,,,86,126
51600,note_on,238,0,1,,,,,,,,,0,,,31,126
51600,note_on,0,0,0,,,,,,,,,0,,,95,126
51600,note_on,0,0,1,,,,,,,,,0,,,38,126
51600,note_on,0,0,1,,,,,,,,,0,,,43,126
51600,note_on,0,0,0,,,,,,,,,0,,,98,126
51600,note_on,0,0,0,,,,,,,,,0,,,98,126
51600,note_on,0,0,1,,,,,,,,,0,,,35,126
51600,note_on,0,0,0,,,,,,,,,0,,,98,0
51640,note_on,40,0,0,,,,,,,,,0,,,91,126
51677,note_on,37,0,0,,,,,,,,,0,,,91,0
51680,note_on,0,0,0,,,,,,,,,0,,,86,126
51680,note_on,3,0,0,,,,,,,,,0,,,86,0
51720,note_on,40,0,0,,,,,,,,,0,,,83,126
51757,note_on,37,0,0,,,,,,,,,0,,,83,0
51760,note_on,3,0,0,,,,,,,,,0,,,79,126
51797,note_on,37,0,0,,,,,,,,,0,,,79,0
51800,note_on,0,0,0,,,,,,,,,0,,,74,126
51800,note_on,3,0,0,,,,,,,,,0,,,74,0
51815,note_on,15,0,0,,,,,,,,,0,,,62,0
51815,note_on,0,0,1,,,,,,,,,0,,,55,0
51815,note_on,215,0,1,,,,,,,,,0,,,47,0
51815,note_on,0,0,1,,,,,,,,,0,,,59,0
51815,note_on,0,0,1,,,,,,,,,0,,,50,0
51827,note_on,0,0,0,,,,,,,,,0,,,98,0
51827,note_on,0,0,0,,,,,,,,,0,,,95,0
51827,note_on,0,0,1,,,,,,,,,0,,,43,0
51827,note_on,0,0,1,,,,,,,,,0,,,38,0
51827,note_on,12,0,0,,,,,,,,,0,,,86,0
51827,note_on,0,0,1,,,,,,,,,0,,,35,0
51827,note_on,12,0,1,,,,,,,,,0,,,31,0
51837,note_on,10,0,0,,,,,,,,,0,,,74,0
51840,note_on,0,0,1,,,,,,,,,0,,,55,126
51840,note_on,0,0,1,,,,,,,,,0,,,47,126
51840,note_on,0,0,0,,,,,,,,,0,,,71,126
51840,note_on,0,0,0,,,,,,,,,0,,,59,126
51840,note_on,0,0,0,,,,,,,,,0,,,59,0
51840,note_on,3,0,0,,,,,,,,,0,,,59,126
51840,note_on,13,0,1,,,,,,,,,0,,,43,126
51840,note_on,0,0,1,,,,,,,,,0,,,50,126
51841,control_change,1,0,1,,,,,,,64,0,0,,,,
51842,control_change,1,0,1,,,,,,,64,127,0,,,,
51880,note_on,40,0,0,,,,,,,,,0,,,62,126
51917,note_on,37,0,0,,,,,,,,,0,,,62,0
51920,note_on,3,0,0,,,,,,,,,0,,,67,126
51957,note_on,37,0,0,,,,,,,,,0,,,67,0
51960,note_on,0,0,0,,,,,,,,,0,,,71,126
51960,note_on,3,0,0,,,,,,,,,0,,,71,0
52000,note_on,40,0,0,,,,,,,,,0,,,74,126
52037,note_on,37,0,0,,,,,,,,,0,,,74,0
52040,note_on,3,0,0,,,,,,,,,0,,,79,126
52077,note_on,37,0,0,,,,,,,,,0,,,79,0
52080,note_on,3,0,0,,,,,,,,,0,,,83,126
52080,note_on,0,0,1,,,,,,,,,0,,,35,126
52080,note_on,238,0,1,,,,,,,,,0,,,31,126
52080,note_on,0,0,1,,,,,,,,,0,,,43,0
52080,note_on,0,0,1,,,,,,,,,0,,,43,126
52080,note_on,0,0,0,,,,,,,,,0,,,91,126
52080,note_on,0,0,0,,,,,,,,,0,,,95,126
52080,note_on,0,0,0,,,,,,,,,0,,,95,126
52080,note_on,0,0,1,,,,,,,,,0,,,38,126
52080,note_on,0,0,0,,,,,,,,,0,,,95,0
52120,note_on,40,0,0,,,,,,,,,0,,,86,126
52157,note_on,37,0,0,,,,,,,,,0,,,86,0
52160,note_on,0,0,0,,,,,,,,,0,,,83,126
52160,note_on,3,0,0,,,,,,,,,0,,,83,0
52200,note_on,40,0,0,,,,,,,,,0,,,79,126
52237,note_on,37,0,0,,,,,,,,,0,,,79,0
52240,note_on,3,0,0,,,,,,,,,0,,,74,126
52277,note_on,37,0,0,,,,,,,,,0,,,74,0
52280,note_on,3,0,0,,,,,,,,,0,,,71,0
52280,note_on,0,0,0,,,,,,,,,0,,,71,126
52295,note_on,0,0,1,,,,,,,,,0,,,50,0
52295,note_on,0,0,1,,,,,,,,,0,,,55,0
52295,note_on,15,0,0,,,,,,,,,0,,,59,0
52295,note_on,215,0,1,,,,,,,,,0,,,47,0
52307,note_on,0,0,1,,,,,,,,,0,,,35,0
52307,note_on,12,0,0,,,,,,,,,0,,,83,0
52307,note_on,0,0,1,,,,,,,,,0,,,38,0
52307,note_on,0,0,0,,,,,,,,,0,,,95,0
52307,note_on,0,0,0,,,,,,,,,0,,,91,0
52307,note_on,12,0,1,,,,,,,,,0,,,31,0
52307,note_on,0,0,1,,,,,,,,,0,,,43,0
52317,note_on,10,0,0,,,,,,,,,0,,,71,0
52320,note_on,0,0,0,,,,,,,,,0,,,77,126
52320,note_on,3,0,0,,,,,,,,,0,,,65,126
52320,note_on,0,0,0,,,,,,,,,0,,,65,126
52320,note_on,0,0,0,,,,,,,,,0,,,65,0
52320,note_on,0,0,1,,,,,,,,,0,,,53,126
52320,note_on,0,0,1,,,,,,,,,0,,,59,126
52320,note_on,0,0,1,,,,,,,,,0,,,62,126
52320,note_on,0,0,1,,,,,,,,,0,,,56,126
52320,note_on,13,0,1,,,,,,,,,0,,,50,126
52321,control_change,1,0,1,,,,,,,64,0,0,,,,
52322,control_change,1,0,1,,,,,,,64,127,0,,,,
52360,note_on,40,0,0,,,,,,,,,0,,,71,126
52397,note_on,37,0,0,,,,,,,,,0,,,71,0
52400,note_on,3,0,0,,,,,,,,,0,,,74,126
52437,note_on,37,0,0,,,,,,,,,0,,,74,0
52440,note_on,3,0,0,,,,,,,,,0,,,77,0
52440,note_on,0,0,0,,,,,,,,,0,,,77,126
52480,note_on,40,0,0,,,,,,,,,0,,,83,126
52517,note_on,37,0,0,,,,,,,,,0,,,83,0
52520,note_on,3,0,0,,,,,,,,,0,,,86,126
52557,note_on,37,0,0,,,,,,,,,0,,,86,0
52560,note_on,238,0,1,,,,,,,,,0,,,32,126
52560,note_on,3,0,0,,,,,,,,,0,,,89,126
52560,note_on,0,0,1,,,,,,,,,0,,,44,126
52560,note_on,0,0,1,,,,,,,,,0,,,41,126
52560,note_on,0,0,1,,,,,,,,,0,,,38,126
52560,note_on,0,0,0,,,,,,,,,0,,,98,126
52560,note_on,0,0,0,,,,,,,,,0,,,101,126
52560,note_on,0,0,0,,,,,,,,,0,,,101,0
52560,note_on,0,0,0,,,,,,,,,0,,,101,126
52600,note_on,40,0,0,,,,,,,,,0,,,95,126
52637,note_on,37,0,0,,,,,,,,,0,,,95,0
52640,note_on,0,0,0,,,,,,,,,0,,,89,126
52640,note_on,3,0,0,,,,,,,,,0,,,89,0
52680,note_on,40,0,0,,,,,,,,,0,,,86,126
52717,note_on,37,0,0,,,,,,,,,0,,,86,0
52720,note_on,3,0,0,,,,,,,,,0,,,83,126
52757,note_on,37,0,0,,,,,,,,,0,,,83,0
52760,note_on,0,0,0,,,,,,,,,0,,,77,126
52760,note_on,3,0,0,,,,,,,,,0,,,77,0
52775,note_on,0,0,1,,,,,,,,,0,,,59,0
52775,note_on,0,0,1,,,,,,,,,0,,,62,0
52775,note_on,215,0,1,,,,,,,,,0,,,50,0
52775,note_on,0,0,1,,,,,,,,,0,,,53,0
52775,note_on,0,0,1,,,,,,,,,0,,,56,0
52775,note_on,15,0,0,,,,,,,,,0,,,65,0
52787,note_on,12,0,1,,,,,,,,,0,,,32,0
52787,note_on,0,0,1,,,,,,,,,0,,,38,0
52787,note_on,0,0,1,,,,,,,,,0,,,41,0
52787,note_on,0,0,1,,,,,,,,,0,,,44,0
52787,note_on,0,0,0,,,,,,,,,0,,,98,0
52787,note_on,0,0,0,,,,,,,,,0,,,101,0
52787,note_on,12,0,0,,,,,,,,,0,,,89,0
52797,note_on,10,0,0,,,,,,,,,0,,,77,0
52800,note_on,3,0,0,,,,,,,,,0,,,64,126
52800,note_on,0,0,0,,,,,,,,,0,,,64,0
52800,note_on,0,0,0,,,,,,,,,0,,,64,126
52800,note_on,0,0,1,,,,,,,,,0,,,57,126
52800,note_on,0,0,1,,,,,,,,,0,,,60,126
52800,note_on,13,0,1,,,,,,,,,0,,,48,126
52800,note_on,0,0,1,,,,,,,,,0,,,52,126
52800,note_on,0,0,0,,,,,,,,,0,,,76,126
52801,control_change,1,0,1,,,,,,,64,0,0,,,,
52802,control_change,1,0,1,,,,,,,64,127,0,,,,
52840,note_on,40,0,0,,,,,,,,,0,,,69,126
52877,note_on,37,0,0,,,,,,,,,0,,,69,0
52880,note_on,3,0,0,,,,,,,,,0,,,72,126
52917,note_on,37,0,0,,,,,,,,,0,,,72,0
52920,note_on,0,0,0,,,,,,,,,0,,,76,126
52920,note_on,3,0,0,,,,,,,,,0,,,76,0
52960,note_on,40,0,0,,,,,,,,,0,,,81,126
52997,note_on,37,0,0,,,,,,,,,0,,,81,0
53000,note_on,3,0,0,,,,,,,,,0,,,88,126
53027,note_on,0,0,0,,,,,,,,,0,,,76,0
53027,note_on,27,0,0,,,,,,,,,0,,,64,0
53037,note_on,10,0,0,,,,,,,,,0,,,88,0
53040,note_on,0,0,0,,,,,,,,,0,,,60,126
53040,note_on,0,0,0,,,,,,,,,0,,,60,0
53040,note_on,3,0,0,,,,,,,,,0,,,60,126
53040,note_on,0,0,1,,,,,,,,,0,,,33,126
53040,note_on,0,0,0,,,,,,,,,0,,,72,126
53040,note_on,0,0,1,,,,,,,,,0,,,40,126
53040,note_on,0,0,1,,,,,,,,,0,,,45,126
53040,note_on,238,0,1,,,,,,,,,0,,,60,0
53040,note_on,0,0,1,,,,,,,,,0,,,36,126
53080,note_on,40,0,0,,,,,,,,,0,,,64,126
53117,note_on,37,0,0,,,,,,,,,0,,,64,0
53120,note_on,3,0,0,,,,,,,,,0,,,69,126
53157,note_on,37,0,0,,,,,,,,,0,,,69,0
53160,note_on,0,0,0,,,,,,,,,0,,,72,126
53160,note_on,3,0,0,,,,,,,,,0,,,72,0
53200,note_on,40,0,0,,,,,,,,,0,,,76,126
53237,note_on,37,0,0,,,,,,,,,0,,,76,0
53240,note_on,3,0,0,,,,,,,,,0,,,84,126
53255,note_on,215,0,1,,,,,,,,,0,,,48,0
53255,note_on,0,0,1,,,,,,,,,0,,,52,0
53255,note_on,0,0,1,,,,,,,,,0,,,57,0
53267,note_on,0,0,1,,,,,,,,,0,,,45,0
53267,note_on,0,0,1,,,,,,,,,0,,,40,0
53267,note_on,0,0,1,,,,,,,,,0,,,36,0
53267,note_on,0,0,0,,,,,,,,,0,,,72,0
53267,note_on,27,0,0,,,,,,,,,0,,,60,0
53267,note_on,12,0,1,,,,,,,,,0,,,33,0
53277,note_on,10,0,0,,,,,,,,,0,,,84,0
53280,note_on,0,0,1,,,,,,,,,0,,,47,126
53280,note_on,13,0,1,,,,,,,,,0,,,38,126
53280,note_on,3,0,0,,,,,,,,,0,,,59,126
53280,note_on,0,0,0,,,,,,,,,0,,,59,0
53280,note_on,0,0,1,,,,,,,,,0,,,50,126
53280,note_on,0,0,0,,,,,,,,,0,,,71,126
53280,note_on,0,0,0,,,,,,,,,0,,,59,126
53280,note_on,0,0,1,,,,,,,,,0,,,43,126
53281,control_change,1,0,1,,,,,,,64,0,0,,,,
53282,control_change,1,0,1,,,,,,,64,127,0,,,,
53320,note_on,40,0,0,,,,,,,,,0,,,62,126
53357,note_on,37,0,0,,,,,,,,,0,,,62,0
53360,note_on,3,0,0,,,,,,,,,0,,,67,126
53397,note_on,37,0,0,,,,,,,,,0,,,67,0
53400,note_on,3,0,0,,,,,,,,,0,,,71,0
53400,note_on,0,0,0,,,,,,,,,0,,,71,126
53440,note_on,40,0,0,,,,,,,,,0,,,74,126
53477,note_on,37,0,0,,,,,,,,,0,,,74,0
53480,note_on,3,0,0,,,,,,,,,0,,,79,126
53507,note_on,0,0,1,,,,,,,,,0,,,43,0
53507,note_on,0,0,1,,,,,,,,,0,,,47,0
53507,note_on,0,0,1,,,,,,,,,0,,,50,0
53507,note_on,225,0,1,,,,,,,,,0,,,38,0
53517,note_on,37,0,0,,,,,,,,,0,,,79,0
53520,note_on,0,0,1,,,,,,,,,0,,,59,126
53520,note_on,0,0,1,,,,,,,,,0,,,62,126
53520,note_on,13,0,1,,,,,,,,,0,,,50,126
53520,note_on,3,0,0,,,,,,,,,0,,,83,126
53520,note_on,0,0,0,,,,,,,,,0,,,59,0
53520,note_on,0,0,1,,,,,,,,,0,,,55,126
53520,note_on,0,0,0,,,,,,,,,0,,,91,126
53520,note_on,0,0,0,,,,,,,,,0,,,95,126
53557,note_on,37,0,0,,,,,,,,,0,,,83,0
53557,note_on,0,0,0,,,,,,,,,0,,,95,0
53557,note_on,0,0,0,,,,,,,,,0,,,91,0
53560,note_on,3,0,0,,,,,,,,,0,,,86,126
53597,note_on,37,0,0,,,,,,,,,0,,,86,0
53600,note_on,3,0,0,,,,,,,,,0,,,83,126
53637,note_on,37,0,0,,,,,,,,,0,,,83,0
53640,note_on,3,0,0,,,,,,,,,0,,,79,126
53677,note_on,37,0,0,,,,,,,,,0,,,79,0
53680,note_on,3,0,0,,,,,,,,,0,,,74,126
53717,note_on,37,0,0,,,,,,,,,0,,,74,0
53720,note_on,0,0,0,,,,,,,,,0,,,71,126
53720,note_on,3,0,0,,,,,,,,,0,,,71,0
53747,note_on,0,0,1,,,,,,,,,0,,,62,0
53747,note_on,227,0,1,,,,,,,,,0,,,50,0
53747,note_on,0,0,1,,,,,,,,,0,,,59,0
53747,note_on,0,0,1,,,,,,,,,0,,,55,0
53757,note_on,37,0,0,,,,,,,,,0,,,71,0
53760,note_on,0,0,0,,,,,,,,,0,,,59,127
53760,set_tempo,3,1,0,,,,,,1395349,,,,,,,
53760,note_on,13,0,1,,,,,,,,,0,,,38,126
53760,note_on,0,0,1,,,,,,,,,0,,,50,126
53760,note_on,0,0,1,,,,,,,,,0,,,48,126
53760,note_on,0,0,1,,,,,,,,,0,,,42,126
53760,note_on,0,0,0,,,,,,,,,0,,,59,0
53760,note_on,0,0,0,,,,,,,,,0,,,71,127
53760,note_on,0,0,0,,,,,,,,,0,,,59,126
53761,control_change,1,0,1,,,,,,,64,0,0,,,,
53762,control_change,1,0,1,,,,,,,64,127,0,,,,
53800,note_on,40,0,0,,,,,,,,,0,,,62,126
53837,note_on,37,0,0,,,,,,,,,0,,,62,0
53840,note_on,3,0,0,,,,,,,,,0,,,66,126
53877,note_on,37,0,0,,,,,,,,,0,,,66,0
53880,note_on,3,0,0,,,,,,,,,0,,,71,0
53880,note_on,0,0,0,,,,,,,,,0,,,71,126
53920,note_on,40,0,0,,,,,,,,,0,,,74,126
53957,note_on,37,0,0,,,,,,,,,0,,,74,0
53960,note_on,3,0,0,,,,,,,,,0,,,78,126
53987,note_on,0,0,1,,,,,,,,,0,,,42,0
53987,note_on,0,0,1,,,,,,,,,0,,,48,0
53987,note_on,0,0,1,,,,,,,,,0,,,50,0
53987,note_on,225,0,1,,,,,,,,,0,,,38,0
53997,note_on,37,0,0,,,,,,,,,0,,,78,0
54000,note_on,0,0,1,,,,,,,,,0,,,62,126
54000,note_on,3,0,0,,,,,,,,,0,,,83,126
54000,note_on,13,0,1,,,,,,,,,0,,,50,126
54000,note_on,0,0,0,,,,,,,,,0,,,90,126
54000,note_on,0,0,0,,,,,,,,,0,,,95,126
54000,note_on,0,0,1,,,,,,,,,0,,,60,126
54000,note_on,0,0,1,,,,,,,,,0,,,54,126
54037,note_on,0,0,0,,,,,,,,,0,,,90,0
54037,note_on,37,0,0,,,,,,,,,0,,,83,0
54037,note_on,0,0,0,,,,,,,,,0,,,95,0
54040,note_on,3,0,0,,,,,,,,,0,,,86,126
54077,note_on,37,0,0,,,,,,,,,0,,,86,0
54080,note_on,3,0,0,,,,,,,,,0,,,59,0
54080,note_on,0,0,0,,,,,,,,,0,,,83,126
54080,note_on,0,0,0,,,,,,,,,0,,,71,0
54117,note_on,37,0,0,,,,,,,,,0,,,83,0
54120,note_on,3,0,0,,,,,,,,,0,,,78,126
54157,note_on,37,0,0,,,,,,,,,0,,,78,0
54160,note_on,3,0,0,,,,,,,,,0,,,74,126
54197,note_on,37,0,0,,,,,,,,,0,,,74,0
54200,note_on,3,0,0,,,,,,,,,0,,,71,126
54227,note_on,227,0,1,,,,,,,,,0,,,50,0
54227,note_on,0,0,1,,,,,,,,,0,,,54,0
54227,note_on,0,0,1,,,,,,,,,0,,,60,0
54227,note_on,0,0,1,,,,,,,,,0,,,62,0
54237,note_on,37,0,0,,,,,,,,,0,,,71,0
54240,note_on,0,0,1,,,,,,,,,0,,,42,126
54240,set_tempo,3,1,0,,,,,,1463415,,,,,,,
54240,note_on,0,0,1,,,,,,,,,0,,,48,126
54240,note_on,0,0,1,,,,,,,,,0,,,50,126
54240,note_on,0,0,0,,,,,,,,,0,,,57,0
54240,note_on,0,0,0,,,,,,,,,0,,,69,126
54240,note_on,0,0,0,,,,,,,,,0,,,57,126
54240,note_on,0,0,0,,,,,,,,,0,,,57,126
54240,note_on,13,0,1,,,,,,,,,0,,,38,126
54241,control_change,1,0,1,,,,,,,64,0,0,,,,
54242,control_change,1,0,1,,,,,,,64,127,0,,,,
54280,note_on,40,0,0,,,,,,,,,0,,,62,126
54317,note_on,37,0,0,,,,,,,,,0,,,62,0
54320,note_on,3,0,0,,,,,,,,,0,,,66,126
54357,note_on,37,0,0,,,,,,,,,0,,,66,0
54360,note_on,3,0,0,,,,,,,,,0,,,69,0
54360,note_on,0,0,0,,,,,,,,,0,,,69,126
54400,note_on,40,0,0,,,,,,,,,0,,,74,126
54437,note_on,37,0,0,,,,,,,,,0,,,74,0
54440,note_on,3,0,0,,,,,,,,,0,,,78,126
54467,note_on,0,0,1,,,,,,,,,0,,,50,0
54467,note_on,0,0,1,,,,,,,,,0,,,42,0
54467,note_on,225,0,1,,,,,,,,,0,,,38,0
54467,note_on,0,0,1,,,,,,,,,0,,,48,0
54477,note_on,37,0,0,,,,,,,,,0,,,78,0
54480,note_on,0,0,1,,,,,,,,,0,,,57,126
54480,note_on,0,0,0,,,,,,,,,0,,,90,126
54480,note_on,0,0,0,,,,,,,,,0,,,57,0
54480,note_on,0,0,0,,,,,,,,,0,,,93,126
54480,note_on,3,0,0,,,,,,,,,0,,,81,126
54480,note_on,0,0,1,,,,,,,,,0,,,62,126
54480,note_on,0,0,1,,,,,,,,,0,,,60,126
54480,note_on,0,0,1,,,,,,,,,0,,,54,126
54480,note_on,13,0,1,,,,,,,,,0,,,50,126
54517,note_on,0,0,0,,,,,,,,,0,,,93,0
54517,note_on,0,0,0,,,,,,,,,0,,,90,0
54517,note_on,37,0,0,,,,,,,,,0,,,81,0
54520,note_on,3,0,0,,,,,,,,,0,,,86,126
54557,note_on,37,0,0,,,,,,,,,0,,,86,0
54560,note_on,3,0,0,,,,,,,,,0,,,81,126
54597,note_on,37,0,0,,,,,,,,,0,,,81,0
54600,note_on,3,0,0,,,,,,,,,0,,,78,126
54637,note_on,37,0,0,,,,,,,,,0,,,78,0
54640,note_on,3,0,0,,,,,,,,,0,,,74,126
54677,note_on,37,0,0,,,,,,,,,0,,,74,0
54680,note_on,3,0,0,,,,,,,,,0,,,69,0
54680,note_on,0,0,0,,,,,,,,,0,,,69,126
54707,note_on,0,0,1,,,,,,,,,0,,,57,0
54707,note_on,0,0,1,,,,,,,,,0,,,54,0
54707,note_on,0,0,1,,,,,,,,,0,,,60,0
54707,note_on,227,0,1,,,,,,,,,0,,,50,0
54707,note_on,0,0,1,,,,,,,,,0,,,62,0
54717,note_on,37,0,0,,,,,,,,,0,,,69,0
54720,note_on,0,0,1,,,,,,,,,0,,,35,126
54720,note_on,0,0,1,,,,,,,,,0,,,38,126
54720,note_on,0,0,1,,,,,,,,,0,,,43,126
54720,note_on,13,0,1,,,,,,,,,0,,,31,126
54720,note_on,0,0,0,,,,,,,,,0,,,67,126
54720,note_on,0,0,0,,,,,,,,,0,,,55,126
54720,note_on,0,0,0,,,,,,,,,0,,,55,0
54720,note_on,3,0,0,,,,,,,,,0,,,55,126
54721,control_change,1,0,1,,,,,,,64,0,0,,,,
54722,control_change,1,0,1,,,,,,,64,127,0,,,,
54760,note_on,40,0,0,,,,,,,,,0,,,59,126
54797,note_on,37,0,0,,,,,,,,,0,,,59,0
54800,note_on,3,0,0,,,,,,,,,0,,,62,126
54837,note_on,37,0,0,,,,,,,,,0,,,62,0
54840,note_on,3,0,0,,,,,,,,,0,,,67,0
54840,note_on,0,0,0,,,,,,,,,0,,,67,126
54880,note_on,40,0,0,,,,,,,,,0,,,71,126
54917,note_on,37,0,0,,,,,,,,,0,,,71,0
54920,note_on,3,0,0,,,,,,,,,0,,,74,126
54947,note_on,0,0,1,,,,,,,,,0,,,35,0
54947,note_on,225,0,1,,,,,,,,,0,,,31,0
54947,note_on,0,0,1,,,,,,,,,0,,,38,0
54947,note_on,0,0,1,,,,,,,,,0,,,43,0
54957,note_on,37,0,0,,,,,,,,,0,,,74,0
54960,note_on,0,0,0,,,,,,,,,0,,,83,126
54960,note_on,0,0,1,,,,,,,,,0,,,50,126
54960,note_on,0,0,1,,,,,,,,,0,,,47,126
54960,note_on,0,0,0,,,,,,,,,0,,,55,0
54960,note_on,0,0,0,,,,,,,,,0,,,79,126
54960,note_on,0,0,0,,,,,,,,,0,,,91,126
54960,set_tempo,3,1,0,,,,,,1500000,,,,,,,
54960,note_on,13,0,1,,,,,,,,,0,,,43,126
54960,note_on,0,0,1,,,,,,,,,0,,,55,126
54997,note_on,0,0,0,,,,,,,,,0,,,91,0
54997,note_on,37,0,0,,,,,,,,,0,,,79,0
54997,note_on,0,0,0,,,,,,,,,0,,,83,0
55000,note_on,3,0,0,,,,,,,,,0,,,86,126
55037,note_on,37,0,0,,,,,,,,,0,,,86,0
55040,note_on,3,0,0,,,,,,,,,0,,,83,126
55077,note_on,37,0,0,,,,,,,,,0,,,83,0
55080,note_on,3,0,0,,,,,,,,,0,,,79,126
55117,note_on,37,0,0,,,,,,,,,0,,,79,0
55120,note_on,3,0,0,,,,,,,,,0,,,74,126
55157,note_on,37,0,0,,,,,,,,,0,,,74,0
55160,note_on,3,0,0,,,,,,,,,0,,,71,126
55175,note_on,15,0,0,,,,,,,,,0,,,67,0
55187,note_on,227,0,1,,,,,,,,,0,,,43,0
55187,note_on,0,0,1,,,,,,,,,0,,,47,0
55187,note_on,0,0,1,,,,,,,,,0,,,50,0
55187,note_on,0,0,1,,,,,,,,,0,,,55,0
55197,note_on,22,0,0,,,,,,,,,0,,,71,0
55200,note_on,0,0,1,,,,,,,,,0,,,59,126
55200,note_on,0,0,1,,,,,,,,,0,,,62,126
55200,note_on,0,0,1,,,,,,,,,0,,,67,126
55200,note_on,13,0,1,,,,,,,,,0,,,55,126
55201,control_change,1,0,1,,,,,,,64,0,0,,,,
55202,control_change,1,0,1,,,,,,,64,127,0,,,,
55427,note_on,0,0,1,,,,,,,,,0,,,59,0
55427,note_on,225,0,1,,,,,,,,,0,,,55,0
55427,note_on,0,0,1,,,,,,,,,0,,,62,0
55427,note_on,0,0,1,,,,,,,,,0,,,67,0
55440,note_on,243,0,0,,,,,,,,,0,,,55,127
55440,note_on,0,0,0,,,,,,,,,0,,,67,127
55559,note_on,119,0,0,,,,,,,,,0,,,55,0
55559,note_on,0,0,0,,,,,,,,,0,,,67,0
55620,note_on,0,0,0,,,,,,,,,0,,,67,127
55620,note_on,61,0,0,,,,,,,,,0,,,55,127
55659,note_on,0,0,0,,,,,,,,,0,,,67,0
55659,note_on,39,0,0,,,,,,,,,0,,,55,0
55680,note_on,0,0,0,,,,,,,,,0,,,67,127
55680,note_on,0,0,0,,,,,,,,,0,,,55,127
55680,set_tempo,21,1,0,,,,,,1578947,,,,,,,
55681,control_change,254,0,1,,,,,,,64,0,0,,,,
55682,control_change,1,0,1,,,,,,,64,127,0,,,,
55839,note_on,159,0,0,,,,,,,,,0,,,55,0
55839,note_on,0,0,0,,,,,,,,,0,,,67,0
55920,note_on,0,0,0,,,,,,,,,0,,,55,127
55920,note_on,0,0,0,,,,,,,,,0,,,67,127
55920,set_tempo,81,1,0,,,,,,1666667,,,,,,,
56079,note_on,0,0,0,,,,,,,,,0,,,67,0
56079,note_on,159,0,0,,,,,,,,,0,,,55,0
56160,note_on,478,0,1,,,,,,,,,0,,,39,112
56160,note_on,0,0,1,,,,,,,,,0,,,46,112
56160,note_on,0,0,0,,,,,,,,,0,,,55,112
56160,set_tempo,81,1,0,,,,,,1333333,,,,,,,
56160,note_on,0,0,1,,,,,,,,,0,,,43,112
56160,note_on,0,0,0,,,,,,,,,0,,,55,112
56160,note_on,0,0,0,,,,,,,,,0,,,55,0
56160,note_on,0,0,0,,,,,,,,,0,,,67,112
56161,control_change,1,0,1,,,,,,,64,0,0,,,,
56162,control_change,2,0,0,,,,,,,64,127,0,,,,
56196,note_on,0,0,1,,,,,,,,,0,,,43,0
56196,note_on,0,0,1,,,,,,,,,0,,,46,0
56196,note_on,35,0,1,,,,,,,,,0,,,39,0
56199,note_on,3,0,1,,,,,,,,,0,,,51,112
56200,note_on,38,0,0,,,,,,,,,0,,,58,112
56235,note_on,36,0,1,,,,,,,,,0,,,51,0
56239,note_on,4,0,1,,,,,,,,,0,,,39,112
56239,note_on,0,0,1,,,,,,,,,0,,,43,112
56239,note_on,39,0,0,,,,,,,,,0,,,58,0
56239,note_on,0,0,1,,,,,,,,,0,,,46,112
56240,note_on,1,0,0,,,,,,,,,0,,,63,112
56240,note_on,0,0,0,,,,,,,,,0,,,67,0
56240,note_on,0,0,0,,,,,,,,,0,,,67,112
56275,note_on,0,0,1,,,,,,,,,0,,,46,0
56275,note_on,0,0,1,,,,,,,,,0,,,43,0
56275,note_on,36,0,1,,,,,,,,,0,,,39,0
56279,note_on,4,0,1,,,,,,,,,0,,,51,112
56279,note_on,39,0,0,,,,,,,,,0,,,63,0
56280,note_on,0,0,0,,,,,,,,,0,,,70,112
56280,note_on,1,0,0,,,,,,,,,0,,,67,0
56280,note_on,0,0,0,,,,,,,,,0,,,67,112
56315,note_on,36,0,1,,,,,,,,,0,,,51,0
56319,note_on,39,0,0,,,,,,,,,0,,,70,0
56319,note_on,0,0,1,,,,,,,,,0,,,43,112
56319,note_on,0,0,1,,,,,,,,,0,,,46,112
56319,note_on,4,0,1,,,,,,,,,0,,,39,112
56320,note_on,0,0,0,,,,,,,,,0,,,79,112
56320,note_on,1,0,0,,,,,,,,,0,,,75,112
56355,note_on,0,0,1,,,,,,,,,0,,,43,0
56355,note_on,36,0,1,,,,,,,,,0,,,39,0
56355,note_on,0,0,1,,,,,,,,,0,,,46,0
56359,note_on,0,0,0,,,,,,,,,0,,,79,0
56359,note_on,39,0,0,,,,,,,,,0,,,75,0
56359,note_on,4,0,1,,,,,,,,,0,,,51,112
56360,note_on,0,0,0,,,,,,,,,0,,,82,112
56360,note_on,1,0,0,,,,,,,,,0,,,79,112
56395,note_on,36,0,1,,,,,,,,,0,,,51,0
56399,note_on,39,0,0,,,,,,,,,0,,,79,0
56399,note_on,4,0,1,,,,,,,,,0,,,39,112
56399,note_on,0,0,1,,,,,,,,,0,,,43,112
56399,note_on,0,0,1,,,,,,,,,0,,,46,112
56399,note_on,0,0,0,,,,,,,,,0,,,82,0
56400,note_on,0,0,0,,,,,,,,,0,,,91,112
56400,note_on,1,0,0,,,,,,,,,0,,,87,112
56435,note_on,36,0,1,,,,,,,,,0,,,39,0
56435,note_on,0,0,1,,,,,,,,,0,,,43,0
56435,note_on,0,0,1,,,,,,,,,0,,,46,0
56438,note_on,3,0,1,,,,,,,,,0,,,51,112
56439,note_on,39,0,0,,,,,,,,,0,,,87,0
56439,note_on,0,0,0,,,,,,,,,0,,,91,0
56440,note_on,1,0,0,,,,,,,,,0,,,79,112
56440,note_on,0,0,0,,,,,,,,,0,,,82,112
56474,note_on,36,0,1,,,,,,,,,0,,,51,0
56478,note_on,4,0,1,,,,,,,,,0,,,39,112
56478,note_on,0,0,1,,,,,,,,,0,,,46,112
56478,note_on,0,0,1,,,,,,,,,0,,,43,112
56479,note_on,39,0,0,,,,,,,,,0,,,79,0
56479,note_on,0,0,0,,,,,,,,,0,,,82,0
56480,note_on,0,0,0,,,,,,,,,0,,,91,112
56480,note_on,1,0,0,,,,,,,,,0,,,87,112
56514,note_on,0,0,1,,,,,,,,,0,,,43,0
56514,note_on,0,0,1,,,,,,,,,0,,,46,0
56514,note_on,36,0,1,,,,,,,,,0,,,39,0
56517,note_on,37,0,0,,,,,,,,,0,,,87,0
56517,note_on,0,0,0,,,,,,,,,0,,,91,0
56518,note_on,4,0,1,,,,,,,,,0,,,51,112
56554,note_on,36,0,1,,,,,,,,,0,,,51,0
56558,note_on,0,0,1,,,,,,,,,0,,,46,112
56558,note_on,0,0,1,,,,,,,,,0,,,43,112
56558,note_on,4,0,1,,,,,,,,,0,,,39,112
56594,note_on,0,0,1,,,,,,,,,0,,,46,0
56594,note_on,36,0,1,,,,,,,,,0,,,39,0
56594,note_on,0,0,1,,,,,,,,,0,,,43,0
56598,note_on,4,0,1,,,,,,,,,0,,,51,112
56634,note_on,36,0,1,,,,,,,,,0,,,51,0
56639,note_on,122,0,0,,,,,,,,,0,,,55,0
56639,note_on,0,0,0,,,,,,,,,0,,,67,0
56640,note_on,0,0,1,,,,,,,,,0,,,43,112
56640,note_on,0,0,1,,,,,,,,,0,,,39,112
56640,note_on,1,0,0,,,,,,,,,0,,,55,112
56640,note_on,6,0,1,,,,,,,,,0,,,36,112
56640,note_on,0,0,0,,,,,,,,,0,,,67,112
56640,note_on,0,0,0,,,,,,,,,0,,,55,112
56640,note_on,0,0,0,,,,,,,,,0,,,55,0
56641,control_change,1,0,0,,,,,,,64,0,0,,,,
56642,control_change,1,0,0,,,,,,,64,127,0,,,,
56676,note_on,36,0,1,,,,,,,,,0,,,36,0
56676,note_on,0,0,1,,,,,,,,,0,,,39,0
56676,note_on,0,0,1,,,,,,,,,0,,,43,0
56679,note_on,3,0,1,,,,,,,,,0,,,48,112
56680,note_on,38,0,0,,,,,,,,,0,,,60,112
56715,note_on,36,0,1,,,,,,,,,0,,,48,0
56719,note_on,0,0,1,,,,,,,,,0,,,39,112
56719,note_on,4,0,1,,,,,,,,,0,,,36,112
56719,note_on,39,0,0,,,,,,,,,0,,,60,0
56719,note_on,0,0,1,,,,,,,,,0,,,43,112
56720,note_on,0,0,0,,,,,,,,,0,,,67,0
56720,note_on,1,0,0,,,,,,,,,0,,,63,112
56720,note_on,0,0,0,,,,,,,,,0,,,67,112
56755,note_on,0,0,1,,,,,,,,,0,,,39,0
56755,note_on,0,0,1,,,,,,,,,0,,,43,0
56755,note_on,36,0,1,,,,,,,,,0,,,36,0
56759,note_on,4,0,1,,,,,,,,,0,,,48,112
56759,note_on,39,0,0,,,,,,,,,0,,,63,0
56760,note_on,0,0,0,,,,,,,,,0,,,67,112
56760,note_on,0,0,0,,,,,,,,,0,,,72,112
56760,note_on,1,0,0,,,,,,,,,0,,,67,0
56795,note_on,36,0,1,,,,,,,,,0,,,48,0
56799,note_on,0,0,1,,,,,,,,,0,,,39,112
56799,note_on,4,0,1,,,,,,,,,0,,,36,112
56799,note_on,39,0,0,,,,,,,,,0,,,72,0
56799,note_on,0,0,1,,,,,,,,,0,,,43,112
56800,note_on,0,0,0,,,,,,,,,0,,,79,112
56800,note_on,1,0,0,,,,,,,,,0,,,75,112
56835,note_on,36,0,1,,,,,,,,,0,,,36,0
56835,note_on,0,0,1,,,,,,,,,0,,,39,0
56835,note_on,0,0,1,,,,,,,,,0,,,43,0
56839,note_on,0,0,0,,,,,,,,,0,,,79,0
56839,note_on,39,0,0,,,,,,,,,0,,,75,0
56839,note_on,4,0,1,,,,,,,,,0,,,48,112
56840,note_on,0,0,0,,,,,,,,,0,,,84,112
56840,note_on,1,0,0,,,,,,,,,0,,,79,112
56875,note_on,36,0,1,,,,,,,,,0,,,48,0
56879,note_on,39,0,0,,,,,,,,,0,,,79,0
56879,note_on,4,0,1,,,,,,,,,0,,,36,112
56879,note_on,0,0,0,,,,,,,,,0,,,84,0
56879,note_on,0,0,1,,,,,,,,,0,,,43,112
56879,note_on,0,0,1,,,,,,,,,0,,,39,112
56880,note_on,0,0,0,,,,,,,,,0,,,91,112
56880,note_on,1,0,0,,,,,,,,,0,,,87,112
56915,note_on,0,0,1,,,,,,,,,0,,,43,0
56915,note_on,0,0,1,,,,,,,,,0,,,39,0
56915,note_on,36,0,1,,,,,,,,,0,,,36,0
56918,note_on,3,0,1,,,,,,,,,0,,,48,112
56919,note_on,39,0,0,,,,,,,,,0,,,87,0
56919,note_on,0,0,0,,,,,,,,,0,,,91,0
56920,note_on,1,0,0,,,,,,,,,0,,,79,112
56920,note_on,0,0,0,,,,,,,,,0,,,84,112
56954,note_on,36,0,1,,,,,,,,,0,,,48,0
56958,note_on,0,0,1,,,,,,,,,0,,,39,112
56958,note_on,0,0,1,,,,,,,,,0,,,43,112
56958,note_on,4,0,1,,,,,,,,,0,,,36,112
56959,note_on,39,0,0,,,,,,,,,0,,,79,0
56959,note_on,0,0,0,,,,,,,,,0,,,84,0
56960,note_on,1,0,0,,,,,,,,,0,,,87,112
56960,note_on,0,0,0,,,,,,,,,0,,,91,112
56994,note_on,36,0,1,,,,,,,,,0,,,36,0
56994,note_on,0,0,1,,,,,,,,,0,,,39,0
56994,note_on,0,0,1,,,,,,,,,0,,,43,0
56997,note_on,37,0,0,,,,,,,,,0,,,87,0
56997,note_on,0,0,0,,,,,,,,,0,,,91,0
56998,note_on,4,0,1,,,,,,,,,0,,,48,112
57034,note_on,36,0,1,,,,,,,,,0,,,48,0
57038,note_on,4,0,1,,,,,,,,,0,,,36,112
57038,note_on,0,0,1,,,,,,,,,0,,,39,112
57038,note_on,0,0,1,,,,,,,,,0,,,43,112
57074,note_on,0,0,1,,,,,,,,,0,,,39,0
57074,note_on,0,0,1,,,,,,,,,0,,,43,0
57074,note_on,36,0,1,,,,,,,,,0,,,36,0
57078,note_on,4,0,1,,,,,,,,,0,,,48,112
57114,note_on,36,0,1,,,,,,,,,0,,,48,0
57119,note_on,0,0,0,,,,,,,,,0,,,67,0
57119,note_on,122,0,0,,,,,,,,,0,,,55,0
57120,note_on,0,0,0,,,,,,,,,0,,,56,0
57120,note_on,0,0,0,,,,,,,,,0,,,56,112
57120,note_on,1,0,0,,,,,,,,,0,,,56,112
57120,note_on,0,0,1,,,,,,,,,0,,,36,112
57120,note_on,0,0,1,,,,,,,,,0,,,39,112
57120,note_on,0,0,0,,,,,,,,,0,,,68,112
57120,note_on,6,0,1,,,,,,,,,0,,,32,112
57121,control_change,1,0,0,,,,,,,64,0,0,,,,
57122,control_change,1,0,0,,,,,,,64,127,0,,,,
57156,note_on,36,0,1,,,,,,,,,0,,,32,0
57156,note_on,0,0,1,,,,,,,,,0,,,36,0
57156,note_on,0,0,1,,,,,,,,,0,,,39,0
57159,note_on,3,0,1,,,,,,,,,0,,,44,112
57160,note_on,38,0,0,,,,,,,,,0,,,60,112
57195,note_on,36,0,1,,,,,,,,,0,,,44,0
57199,note_on,0,0,1,,,,,,,,,0,,,36,112
57199,note_on,4,0,1,,,,,,,,,0,,,32,112
57199,note_on,39,0,0,,,,,,,,,0,,,60,0
57199,note_on,0,0,1,,,,,,,,,0,,,39,112
57200,note_on,0,0,0,,,,,,,,,0,,,68,112
57200,note_on,1,0,0,,,,,,,,,0,,,63,112
57200,note_on,0,0,0,,,,,,,,,0,,,68,0
57235,note_on,36,0,1,,,,,,,,,0,,,32,0
57235,note_on,0,0,1,,,,,,,,,0,,,39,0
57235,note_on,0,0,1,,,,,,,,,0,,,36,0
57239,note_on,4,0,1,,,,,,,,,0,,,44,112
57239,note_on,39,0,0,,,,,,,,,0,,,63,0
57240,note_on,0,0,0,,,,,,,,,0,,,68,112
57240,note_on,1,0,0,,,,,,,,,0,,,68,0
57240,note_on,0,0,0,,,,,,,,,0,,,72,112
57275,note_on,36,0,1,,,,,,,,,0,,,44,0
57279,note_on,0,0,1,,,,,,,,,0,,,36,112
57279,note_on,4,0,1,,,,,,,,,0,,,32,112
57279,note_on,39,0,0,,,,,,,,,0,,,72,0
57279,note_on,0,0,1,,,,,,,,,0,,,39,112
57280,note_on,0,0,0,,,,,,,,,0,,,80,112
57280,note_on,1,0,0,,,,,,,,,0,,,75,112
57315,note_on,0,0,1,,,,,,,,,0,,,39,0
57315,note_on,0,0,1,,,,,,,,,0,,,36,0
57315,note_on,36,0,1,,,,,,,,,0,,,32,0
57319,note_on,0,0,0,,,,,,,,,0,,,80,0
57319,note_on,39,0,0,,,,,,,,,0,,,75,0
57319,note_on,4,0,1,,,,,,,,,0,,,44,112
57320,note_on,0,0,0,,,,,,,,,0,,,84,112
57320,note_on,1,0,0,,,,,,,,,0,,,80,112
57355,note_on,36,0,1,,,,,,,,,0,,,44,0
57359,note_on,4,0,1,,,,,,,,,0,,,32,112
57359,note_on,0,0,0,,,,,,,,,0,,,84,0
57359,note_on,39,0,0,,,,,,,,,0,,,80,0
57359,note_on,0,0,1,,,,,,,,,0,,,36,112
57359,note_on,0,0,1,,,,,,,,,0,,,39,112
57360,note_on,1,0,0,,,,,,,,,0,,,87,112
57360,note_on,0,0,0,,,,,,,,,0,,,92,112
57395,note_on,0,0,1,,,,,,,,,0,,,36,0
57395,note_on,0,0,1,,,,,,,,,0,,,39,0
57395,note_on,36,0,1,,,,,,,,,0,,,32,0
57398,note_on,3,0,1,,,,,,,,,0,,,44,112
57399,note_on,0,0,0,,,,,,,,,0,,,92,0
57399,note_on,39,0,0,,,,,,,,,0,,,87,0
57400,note_on,0,0,0,,,,,,,,,0,,,84,112
57400,note_on,1,0,0,,,,,,,,,0,,,80,112
57434,note_on,36,0,1,,,,,,,,,0,,,44,0
57438,note_on,4,0,1,,,,,,,,,0,,,32,112
57438,note_on,0,0,1,,,,,,,,,0,,,39,112
57438,note_on,0,0,1,,,,,,,,,0,,,36,112
57439,note_on,0,0,0,,,,,,,,,0,,,84,0
57439,note_on,39,0,0,,,,,,,,,0,,,80,0
57440,note_on,1,0,0,,,,,,,,,0,,,87,112
57440,note_on,0,0,0,,,,,,,,,0,,,92,112
57474,note_on,0,0,1,,,,,,,,,0,,,39,0
57474,note_on,36,0,1,,,,,,,,,0,,,32,0
57474,note_on,0,0,1,,,,,,,,,0,,,36,0
57477,note_on,0,0,0,,,,,,,,,0,,,92,0
57477,note_on,37,0,0,,,,,,,,,0,,,87,0
57478,note_on,4,0,1,,,,,,,,,0,,,44,112
57514,note_on,36,0,1,,,,,,,,,0,,,44,0
57518,note_on,0,0,1,,,,,,,,,0,,,39,112
57518,note_on,0,0,1,,,,,,,,,0,,,36,112
57518,note_on,4,0,1,,,,,,,,,0,,,32,112
57554,note_on,36,0,1,,,,,,,,,0,,,32,0
57554,note_on,0,0,1,,,,,,,,,0,,,36,0
57554,note_on,0,0,1,,,,,,,,,0,,,39,0
57558,note_on,4,0,1,,,,,,,,,0,,,44,112
57594,note_on,36,0,1,,,,,,,,,0,,,44,0
57599,note_on,122,0,0,,,,,,,,,0,,,56,0
57599,note_on,0,0,0,,,,,,,,,0,,,68,0
57600,note_on,0,0,1,,,,,,,,,0,,,31,112
57600,note_on,0,0,1,,,,,,,,,0,,,34,112
57600,note_on,0,0,0,,,,,,,,,0,,,58,112
57600,note_on,0,0,0,,,,,,,,,0,,,58,0
57600,note_on,0,0,0,,,,,,,,,0,,,70,112
57600,note_on,6,0,1,,,,,,,,,0,,,27,112
57600,note_on,1,0,0,,,,,,,,,0,,,58,112
57601,control_change,1,0,0,,,,,,,64,0,0,,,,
57602,control_change,1,0,0,,,,,,,64,127,0,,,,
57636,note_on,36,0,1,,,,,,,,,0,,,27,0
57636,note_on,0,0,1,,,,,,,,,0,,,31,0
57636,note_on,0,0,1,,,,,,,,,0,,,34,0
57639,note_on,3,0,1,,,,,,,,,0,,,39,112
57640,note_on,38,0,0,,,,,,,,,0,,,63,112
57675,note_on,36,0,1,,,,,,,,,0,,,39,0
57679,note_on,4,0,1,,,,,,,,,0,,,27,112
57679,note_on,0,0,1,,,,,,,,,0,,,31,112
57679,note_on,0,0,1,,,,,,,,,0,,,34,112
57679,note_on,39,0,0,,,,,,,,,0,,,63,0
57680,note_on,0,0,0,,,,,,,,,0,,,70,0
57680,note_on,0,0,0,,,,,,,,,0,,,70,112
57680,note_on,1,0,0,,,,,,,,,0,,,67,112
57715,note_on,36,0,1,,,,,,,,,0,,,27,0
57715,note_on,0,0,1,,,,,,,,,0,,,31,0
57715,note_on,0,0,1,,,,,,,,,0,,,34,0
57719,note_on,4,0,1,,,,,,,,,0,,,39,112
57719,note_on,39,0,0,,,,,,,,,0,,,67,0
57720,note_on,0,0,0,,,,,,,,,0,,,70,112
57720,note_on,0,0,0,,,,,,,,,0,,,75,112
57720,note_on,1,0,0,,,,,,,,,0,,,70,0
57755,note_on,36,0,1,,,,,,,,,0,,,39,0
57759,note_on,39,0,0,,,,,,,,,0,,,75,0
57759,note_on,4,0,1,,,,,,,,,0,,,27,112
57759,note_on,0,0,1,,,,,,,,,0,,,31,112
57759,note_on,0,0,1,,,,,,,,,0,,,34,112
57760,note_on,0,0,0,,,,,,,,,0,,,82,112
57760,note_on,1,0,0,,,,,,,,,0,,,79,112
57795,note_on,36,0,1,,,,,,,,,0,,,27,0
57795,note_on,0,0,1,,,,,,,,,0,,,31,0
57795,note_on,0,0,1,,,,,,,,,0,,,34,0
57799,note_on,4,0,1,,,,,,,,,0,,,39,113
57799,note_on,39,0,0,,,,,,,,,0,,,79,0
57799,note_on,0,0,0,,,,,,,,,0,,,82,0
57800,note_on,0,0,0,,,,,,,,,0,,,87,113
57800,note_on,1,0,0,,,,,,,,,0,,,82,113
57835,note_on,36,0,1,,,,,,,,,0,,,39,0
57839,note_on,39,0,0,,,,,,,,,0,,,82,0
57839,note_on,0,0,0,,,,,,,,,0,,,87,0
57839,note_on,0,0,1,,,,,,,,,0,,,31,114
57839,note_on,0,0,1,,,,,,,,,0,,,34,114
57839,note_on,4,0,1,,,,,,,,,0,,,27,114
57840,note_on,1,0,0,,,,,,,,,0,,,91,114
57840,note_on,0,0,0,,,,,,,,,0,,,94,114
57875,note_on,36,0,1,,,,,,,,,0,,,27,0
57875,note_on,0,0,1,,,,,,,,,0,,,34,0
57875,note_on,0,0,1,,,,,,,,,0,,,31,0
57878,note_on,3,0,1,,,,,,,,,0,,,39,116
57879,note_on,0,0,0,,,,,,,,,0,,,94,0
57879,note_on,39,0,0,,,,,,,,,0,,,91,0
57880,note_on,1,0,0,,,,,,,,,0,,,82,116
57880,note_on,0,0,0,,,,,,,,,0,,,87,116
57914,note_on,36,0,1,,,,,,,,,0,,,39,0
57918,note_on,0,0,1,,,,,,,,,0,,,34,117
57918,note_on,4,0,1,,,,,,,,,0,,,27,117
57918,note_on,0,0,1,,,,,,,,,0,,,31,117
57919,note_on,0,0,0,,,,,,,,,0,,,87,0
57919,note_on,39,0,0,,,,,,,,,0,,,82,0
57920,note_on,0,0,0,,,,,,,,,0,,,94,117
57920,note_on,1,0,0,,,,,,,,,0,,,91,117
57954,note_on,0,0,1,,,,,,,,,0,,,31,0
57954,note_on,0,0,1,,,,,,,,,0,,,34,0
57954,note_on,36,0,1,,,,,,,,,0,,,27,0
57958,note_on,4,0,1,,,,,,,,,0,,,39,119
57959,note_on,0,0,0,,,,,,,,,0,,,94,0
57959,note_on,39,0,0,,,,,,,,,0,,,91,0
57960,note_on,0,0,0,,,,,,,,,0,,,87,119
57960,note_on,1,0,0,,,,,,,,,0,,,82,119
57994,note_on,36,0,1,,,,,,,,,0,,,39,0
57998,note_on,0,0,1,,,,,,,,,0,,,34,120
57998,note_on,0,0,1,,,,,,,,,0,,,31,120
57998,note_on,4,0,1,,,,,,,,,0,,,27,120
57999,note_on,0,0,0,,,,,,,,,0,,,87,0
57999,note_on,39,0,0,,,,,,,,,0,,,82,0
58000,note_on,0,0,0,,,,,,,,,0,,,94,120
58000,note_on,1,0,0,,,,,,,,,0,,,91,120
58034,note_on,0,0,1,,,,,,,,,0,,,31,0
58034,note_on,0,0,1,,,,,,,,,0,,,34,0
58034,note_on,36,0,1,,,,,,,,,0,,,27,0
58038,note_on,4,0,1,,,,,,,,,0,,,39,121
58039,note_on,0,0,0,,,,,,,,,0,,,94,0
58039,note_on,39,0,0,,,,,,,,,0,,,91,0
58040,note_on,0,0,0,,,,,,,,,0,,,87,122
58040,note_on,1,0,0,,,,,,,,,0,,,82,122
58074,note_on,36,0,1,,,,,,,,,0,,,39,0
58079,note_on,39,0,0,,,,,,,,,0,,,58,0
58079,note_on,0,0,0,,,,,,,,,0,,,70,0
58079,note_on,0,0,0,,,,,,,,,0,,,82,0
58079,note_on,0,0,0,,,,,,,,,0,,,87,0
58080,note_on,1,0,0,,,,,,,,,0,,,91,122
58080,note_on,0,0,0,,,,,,,,,0,,,94,122
58080,note_on,0,0,1,,,,,,,,,0,,,39,122
58080,note_on,0,0,1,,,,,,,,,0,,,34,122
58080,note_on,0,0,1,,,,,,,,,0,,,31,122
58080,note_on,6,0,1,,,,,,,,,0,,,27,122
58081,control_change,1,0,0,,,,,,,64,0,0,,,,
58082,control_change,1,0,0,,,,,,,64,127,0,,,,
58158,note_on,78,0,1,,,,,,,,,0,,,27,0
58158,note_on,0,0,1,,,,,,,,,0,,,39,0
58158,note_on,0,0,1,,,,,,,,,0,,,34,0
58158,note_on,0,0,1,,,,,,,,,0,,,31,0
58307,note_on,225,0,0,,,,,,,,,0,,,91,0
58307,note_on,0,0,0,,,,,,,,,0,,,94,0
58320,note_on,13,0,0,,,,,,,,,0,,,58,127
58320,note_on,0,0,0,,,,,,,,,0,,,70,127
58439,note_on,119,0,0,,,,,,,,,0,,,58,0
58439,note_on,0,0,0,,,,,,,,,0,,,70,0
58500,note_on,0,0,0,,,,,,,,,0,,,70,127
58500,note_on,61,0,0,,,,,,,,,0,,,58,127
58539,note_on,0,0,0,,,,,,,,,0,,,70,0
58539,note_on,39,0,0,,,,,,,,,0,,,58,0
58560,note_on,0,0,0,,,,,,,,,0,,,70,127
58560,note_on,21,0,0,,,,,,,,,0,,,58,127
58561,control_change,1,0,0,,,,,,,64,0,0,,,,
58562,control_change,1,0,0,,,,,,,64,127,0,,,,
58719,note_on,0,0,0,,,,,,,,,0,,,70,0
58719,note_on,157,0,0,,,,,,,,,0,,,58,0
58800,note_on,0,0,0,,,,,,,,,0,,,70,127
58800,note_on,81,0,0,,,,,,,,,0,,,58,127
58959,note_on,0,0,0,,,,,,,,,0,,,70,0
58959,note_on,159,0,0,,,,,,,,,0,,,58,0
59040,note_on,0,0,0,,,,,,,,,0,,,58,0
59040,note_on,882,0,1,,,,,,,,,0,,,42,122
59040,note_on,81,0,0,,,,,,,,,0,,,58,122
59040,note_on,0,0,0,,,,,,,,,0,,,58,122
59040,note_on,0,0,0,,,,,,,,,0,,,70,122
59040,note_on,0,0,1,,,,,,,,,0,,,46,122
59040,note_on,0,0,1,,,,,,,,,0,,,49,122
59041,control_change,1,0,0,,,,,,,64,0,0,,,,
59042,control_change,1,0,0,,,,,,,64,127,0,,,,
59076,note_on,0,0,1,,,,,,,,,0,,,46,0
59076,note_on,0,0,1,,,,,,,,,0,,,49,0
59076,note_on,36,0,1,,,,,,,,,0,,,42,0
59079,note_on,3,0,1,,,,,,,,,0,,,54,122
59080,note_on,38,0,0,,,,,,,,,0,,,61,122
59115,note_on,36,0,1,,,,,,,,,0,,,54,0
59119,note_on,39,0,0,,,,,,,,,0,,,61,0
59119,note_on,4,0,1,,,,,,,,,0,,,42,122
59119,note_on,0,0,1,,,,,,,,,0,,,46,122
59119,note_on,0,0,1,,,,,,,,,0,,,49,122
59120,note_on,0,0,0,,,,,,,,,0,,,70,0
59120,note_on,0,0,0,,,,,,,,,0,,,70,122
59120,note_on,1,0,0,,,,,,,,,0,,,66,122
59155,note_on,36,0,1,,,,,,,,,0,,,42,0
59155,note_on,0,0,1,,,,,,,,,0,,,49,0
59155,note_on,0,0,1,,,,,,,,,0,,,46,0
59159,note_on,4,0,1,,,,,,,,,0,,,54,122
59159,note_on,39,0,0,,,,,,,,,0,,,66,0
59160,note_on,1,0,0,,,,,,,,,0,,,70,0
59160,note_on,0,0,0,,,,,,,,,0,,,73,122
59160,note_on,0,0,0,,,,,,,,,0,,,70,122
59195,note_on,36,0,1,,,,,,,,,0,,,54,0
59199,note_on,0,0,1,,,,,,,,,0,,,46,122
59199,note_on,0,0,1,,,,,,,,,0,,,49,122
59199,note_on,4,0,1,,,,,,,,,0,,,42,122
59199,note_on,39,0,0,,,,,,,,,0,,,73,0
59200,note_on,0,0,0,,,,,,,,,0,,,82,122
59200,note_on,1,0,0,,,,,,,,,0,,,78,122
59235,note_on,0,0,1,,,,,,,,,0,,,46,0
59235,note_on,0,0,1,,,,,,,,,0,,,49,0
59235,note_on,36,0,1,,,,,,,,,0,,,42,0
59239,note_on,4,0,1,,,,,,,,,0,,,54,122
59239,note_on,0,0,0,,,,,,,,,0,,,82,0
59239,note_on,39,0,0,,,,,,,,,0,,,78,0
59240,note_on,0,0,0,,,,,,,,,0,,,85,122
59240,note_on,1,0,0,,,,,,,,,0,,,82,122
59275,note_on,36,0,1,,,,,,,,,0,,,54,0
59279,note_on,0,0,1,,,,,,,,,0,,,46,122
59279,note_on,4,0,1,,,,,,,,,0,,,42,122
59279,note_on,39,0,0,,,,,,,,,0,,,82,0
59279,note_on,0,0,1,,,,,,,,,0,,,49,122
59279,note_on,0,0,0,,,,,,,,,0,,,85,0
59280,note_on,0,0,0,,,,,,,,,0,,,94,122
59280,note_on,1,0,0,,,,,,,,,0,,,90,122
59315,note_on,0,0,1,,,,,,,,,0,,,46,0
59315,note_on,0,0,1,,,,,,,,,0,,,49,0
59315,note_on,36,0,1,,,,,,,,,0,,,42,0
59318,note_on,3,0,1,,,,,,,,,0,,,54,122
59319,note_on,39,0,0,,,,,,,,,0,,,90,0
59319,note_on,0,0,0,,,,,,,,,0,,,94,0
59320,note_on,1,0,0,,,,,,,,,0,,,82,122
59320,note_on,0,0,0,,,,,,,,,0,,,85,122
59354,note_on,36,0,1,,,,,,,,,0,,,54,0
59358,note_on,4,0,1,,,,,,,,,0,,,42,122
59358,note_on,0,0,1,,,,,,,,,0,,,46,122
59358,note_on,0,0,1,,,,,,,,,0,,,49,122
59359,note_on,0,0,0,,,,,,,,,0,,,85,0
59359,note_on,39,0,0,,,,,,,,,0,,,82,0
59360,note_on,0,0,0,,,,,,,,,0,,,94,122
59360,note_on,1,0,0,,,,,,,,,0,,,90,122
59394,note_on,36,0,1,,,,,,,,,0,,,42,0
59394,note_on,0,0,1,,,,,,,,,0,,,46,0
59394,note_on,0,0,1,,,,,,,,,0,,,49,0
59397,note_on,37,0,0,,,,,,,,,0,,,90,0
59397,note_on,0,0,0,,,,,,,,,0,,,94,0
59398,note_on,4,0,1,,,,,,,,,0,,,54,122
59434,note_on,36,0,1,,,,,,,,,0,,,54,0
59438,note_on,4,0,1,,,,,,,,,0,,,42,122
59438,note_on,0,0,1,,,,,,,,,0,,,49,122
59438,note_on,0,0,1,,,,,,,,,0,,,46,122
59474,note_on,0,0,1,,,,,,,,,0,,,49,0
59474,note_on,0,0,1,,,,,,,,,0,,,46,0
59474,note_on,36,0,1,,,,,,,,,0,,,42,0
59478,note_on,4,0,1,,,,,,,,,0,,,54,122
59514,note_on,36,0,1,,,,,,,,,0,,,54,0
59519,note_on,122,0,0,,,,,,,,,0,,,58,0
59519,note_on,0,0,0,,,,,,,,,0,,,70,0
59520,note_on,0,0,0,,,,,,,,,0,,,58,0
59520,note_on,0,0,0,,,,,,,,,0,,,58,122
59520,note_on,0,0,0,,,,,,,,,0,,,70,122
59520,note_on,1,0,0,,,,,,,,,0,,,58,122
59520,note_on,6,0,1,,,,,,,,,0,,,39,122
59520,note_on,0,0,1,,,,,,,,,0,,,42,122
59520,note_on,0,0,1,,,,,,,,,0,,,46,122
59521,control_change,1,0,0,,,,,,,64,0,0,,,,
59522,control_change,1,0,0,,,,,,,64,127,0,,,,
59556,note_on,36,0,1,,,,,,,,,0,,,39,0
59556,note_on,0,0,1,,,,,,,,,0,,,46,0
59556,note_on,0,0,1,,,,,,,,,0,,,42,0
59559,note_on,3,0,1,,,,,,,,,0,,,51,122
59560,note_on,38,0,0,,,,,,,,,0,,,63,122
59595,note_on,36,0,1,,,,,,,,,0,,,51,0
59599,note_on,4,0,1,,,,,,,,,0,,,39,122
59599,note_on,39,0,0,,,,,,,,,0,,,63,0
59599,note_on,0,0,1,,,,,,,,,0,,,46,122
59599,note_on,0,0,1,,,,,,,,,0,,,42,122
59600,note_on,0,0,0,,,,,,,,,0,,,70,0
59600,note_on,0,0,0,,,,,,,,,0,,,70,122
59600,note_on,1,0,0,,,,,,,,,0,,,66,122
59635,note_on,0,0,1,,,,,,,,,0,,,46,0
59635,note_on,0,0,1,,,,,,,,,0,,,42,0
59635,note_on,36,0,1,,,,,,,,,0,,,39,0
59639,note_on,4,0,1,,,,,,,,,0,,,51,122
59639,note_on,39,0,0,,,,,,,,,0,,,66,0
59640,note_on,1,0,0,,,,,,,,,0,,,70,0
59640,note_on,0,0,0,,,,,,,,,0,,,75,122
59640,note_on,0,0,0,,,,,,,,,0,,,70,122
59675,note_on,36,0,1,,,,,,,,,0,,,51,0
59679,note_on,0,0,1,,,,,,,,,0,,,46,122
59679,note_on,4,0,1,,,,,,,,,0,,,39,122
59679,note_on,0,0,1,,,,,,,,,0,,,42,122
59679,note_on,39,0,0,,,,,,,,,0,,,75,0
59680,note_on,1,0,0,,,,,,,,,0,,,78,122
59680,note_on,0,0,0,,,,,,,,,0,,,82,122
59715,note_on,0,0,1,,,,,,,,,0,,,46,0
59715,note_on,0,0,1,,,,,,,,,0,,,42,0
59715,note_on,36,0,1,,,,,,,,,0,,,39,0
59719,note_on,39,0,0,,,,,,,,,0,,,78,0
59719,note_on,4,0,1,,,,,,,,,0,,,51,122
59719,note_on,0,0,0,,,,,,,,,0,,,82,0
59720,note_on,1,0,0,,,,,,,,,0,,,82,122
59720,note_on,0,0,0,,,,,,,,,0,,,87,122
59755,note_on,36,0,1,,,,,,,,,0,,,51,0
59759,note_on,4,0,1,,,,,,,,,0,,,39,122
59759,note_on,0,0,1,,,,,,,,,0,,,42,122
59759,note_on,39,0,0,,,,,,,,,0,,,82,0
59759,note_on,0,0,0,,,,,,,,,0,,,87,0
59759,note_on,0,0,1,,,,,,,,,0,,,46,122
59760,note_on,0,0,0,,,,,,,,,0,,,94,122
59760,note_on,1,0,0,,,,,,,,,0,,,90,122
59795,note_on,36,0,1,,,,,,,,,0,,,39,0
59795,note_on,0,0,1,,,,,,,,,0,,,42,0
59795,note_on,0,0,1,,,,,,,,,0,,,46,0
59798,note_on,3,0,1,,,,,,,,,0,,,51,122
59799,note_on,39,0,0,,,,,,,,,0,,,90,0
59799,note_on,0,0,0,,,,,,,,,0,,,94,0
59800,note_on,1,0,0,,,,,,,,,0,,,82,122
59800,note_on,0,0,0,,,,,,,,,0,,,87,122
59834,note_on,36,0,1,,,,,,,,,0,,,51,0
59838,note_on,0,0,1,,,,,,,,,0,,,42,122
59838,note_on,0,0,1,,,,,,,,,0,,,46,122
59838,note_on,4,0,1,,,,,,,,,0,,,39,122
59839,note_on,39,0,0,,,,,,,,,0,,,82,0
59839,note_on,0,0,0,,,,,,,,,0,,,87,0
59840,note_on,0,0,0,,,,,,,,,0,,,94,122
59840,note_on,1,0,0,,,,,,,,,0,,,90,122
59874,note_on,0,0,1,,,,,,,,,0,,,42,0
59874,note_on,0,0,1,,,,,,,,,0,,,46,0
59874,note_on,36,0,1,,,,,,,,,0,,,39,0
59877,note_on,37,0,0,,,,,,,,,0,,,90,0
59877,note_on,0,0,0,,,,,,,,,0,,,94,0
59878,note_on,4,0,1,,,,,,,,,0,,,51,122
59914,note_on,36,0,1,,,,,,,,,0,,,51,0
59918,note_on,0,0,1,,,,,,,,,0,,,42,122
59918,note_on,4,0,1,,,,,,,,,0,,,39,122
59918,note_on,0,0,1,,,,,,,,,0,,,46,122
59954,note_on,0,0,1,,,,,,,,,0,,,42,0
59954,note_on,36,0,1,,,,,,,,,0,,,39,0
59954,note_on,0,0,1,,,,,,,,,0,,,46,0
59958,note_on,4,0,1,,,,,,,,,0,,,51,122
59994,note_on,36,0,1,,,,,,,,,0,,,51,0
59999,note_on,122,0,0,,,,,,,,,0,,,58,0
59999,note_on,0,0,0,,,,,,,,,0,,,70,0
60000,note_on,0,0,1,,,,,,,,,0,,,42,122
60000,note_on,6,0,1,,,,,,,,,0,,,35,122
60000,note_on,0,0,0,,,,,,,,,0,,,59,122
60000,note_on,0,0,0,,,,,,,,,0,,,71,122
60000,note_on,0,0,1,,,,,,,,,0,,,39,122
60000,note_on,0,0,0,,,,,,,,,0,,,59,0
60000,note_on,1,0,0,,,,,,,,,0,,,59,122
60001,control_change,1,0,0,,,,,,,64,0,0,,,,
60002,control_change,1,0,0,,,,,,,64,127,0,,,,
60036,note_on,0,0,1,,,,,,,,,0,,,39,0
60036,note_on,0,0,1,,,,,,,,,0,,,42,0
60036,note_on,36,0,1,,,,,,,,,0,,,35,0
60039,note_on,3,0,1,,,,,,,,,0,,,47,122
60040,note_on,38,0,0,,,,,,,,,0,,,63,122
60075,note_on,36,0,1,,,,,,,,,0,,,47,0
60079,note_on,39,0,0,,,,,,,,,0,,,63,0
60079,note_on,0,0,1,,,,,,,,,0,,,42,122
60079,note_on,4,0,1,,,,,,,,,0,,,35,122
60079,note_on,0,0,1,,,,,,,,,0,,,39,122
60080,note_on,0,0,0,,,,,,,,,0,,,71,0
60080,note_on,0,0,0,,,,,,,,,0,,,71,122
60080,note_on,1,0,0,,,,,,,,,0,,,66,122
60115,note_on,0,0,1,,,,,,,,,0,,,39,0
60115,note_on,36,0,1,,,,,,,,,0,,,35,0
60115,note_on,0,0,1,,,,,,,,,0,,,42,0
60119,note_on,4,0,1,,,,,,,,,0,,,47,122
60119,note_on,39,0,0,,,,,,,,,0,,,66,0
60120,note_on,0,0,0,,,,,,,,,0,,,75,122
60120,note_on,0,0,0,,,,,,,,,0,,,71,122
60120,note_on,1,0,0,,,,,,,,,0,,,71,0
60155,note_on,36,0,1,,,,,,,,,0,,,47,0
60159,note_on,0,0,1,,,,,,,,,0,,,39,122
60159,note_on,39,0,0,,,,,,,,,0,,,75,0
60159,note_on,4,0,1,,,,,,,,,0,,,35,122
60159,note_on,0,0,1,,,,,,,,,0,,,42,122
60160,note_on,0,0,0,,,,,,,,,0,,,83,122
60160,note_on,1,0,0,,,,,,,,,0,,,78,122
60195,note_on,0,0,1,,,,,,,,,0,,,39,0
60195,note_on,36,0,1,,,,,,,,,0,,,35,0
60195,note_on,0,0,1,,,,,,,,,0,,,42,0
60199,note_on,0,0,0,,,,,,,,,0,,,83,0
60199,note_on,39,0,0,,,,,,,,,0,,,78,0
60199,note_on,4,0,1,,,,,,,,,0,,,47,122
60200,note_on,0,0,0,,,,,,,,,0,,,87,122
60200,note_on,1,0,0,,,,,,,,,0,,,83,122
60235,note_on,36,0,1,,,,,,,,,0,,,47,0
60239,note_on,39,0,0,,,,,,,,,0,,,83,0
60239,note_on,4,0,1,,,,,,,,,0,,,35,122
60239,note_on,0,0,0,,,,,,,,,0,,,87,0
60239,note_on,0,0,1,,,,,,,,,0,,,39,122
60239,note_on,0,0,1,,,,,,,,,0,,,42,122
60240,note_on,1,0,0,,,,,,,,,0,,,90,122
60240,note_on,0,0,0,,,,,,,,,0,,,95,122
60275,note_on,36,0,1,,,,,,,,,0,,,35,0
60275,note_on,0,0,1,,,,,,,,,0,,,42,0
60275,note_on,0,0,1,,,,,,,,,0,,,39,0
60278,note_on,3,0,1,,,,,,,,,0,,,47,122
60279,note_on,0,0,0,,,,,,,,,0,,,95,0
60279,note_on,39,0,0,,,,,,,,,0,,,90,0
60280,note_on,1,0,0,,,,,,,,,0,,,83,122
60280,note_on,0,0,0,,,,,,,,,0,,,87,122
60314,note_on,36,0,1,,,,,,,,,0,,,47,0
60318,note_on,0,0,1,,,,,,,,,0,,,42,122
60318,note_on,0,0,1,,,,,,,,,0,,,39,122
60318,note_on,4,0,1,,,,,,,,,0,,,35,122
60319,note_on,0,0,0,,,,,,,,,0,,,87,0
60319,note_on,39,0,0,,,,,,,,,0,,,83,0
60320,note_on,1,0,0,,,,,,,,,0,,,90,122
60320,note_on,0,0,0,,,,,,,,,0,,,95,122
60354,note_on,0,0,1,,,,,,,,,0,,,42,0
60354,note_on,0,0,1,,,,,,,,,0,,,39,0
60354,note_on,36,0,1,,,,,,,,,0,,,35,0
60357,note_on,37,0,0,,,,,,,,,0,,,90,0
60357,note_on,0,0,0,,,,,,,,,0,,,95,0
60358,note_on,4,0,1,,,,,,,,,0,,,47,122
60394,note_on,36,0,1,,,,,,,,,0,,,47,0
60398,note_on,4,0,1,,,,,,,,,0,,,35,122
60398,note_on,0,0,1,,,,,,,,,0,,,42,122
60398,note_on,0,0,1,,,,,,,,,0,,,39,122
60434,note_on,36,0,1,,,,,,,,,0,,,35,0
60434,note_on,0,0,1,,,,,,,,,0,,,39,0
60434,note_on,0,0,1,,,,,,,,,0,,,42,0
60438,note_on,4,0,1,,,,,,,,,0,,,47,122
60474,note_on,36,0,1,,,,,,,,,0,,,47,0
60479,note_on,0,0,0,,,,,,,,,0,,,71,0
60479,note_on,122,0,0,,,,,,,,,0,,,59,0
60480,note_on,1,0,0,,,,,,,,,0,,,61,122
60480,note_on,0,0,0,,,,,,,,,0,,,61,122
60480,note_on,0,0,0,,,,,,,,,0,,,61,0
60480,note_on,6,0,1,,,,,,,,,0,,,30,122
60480,note_on,0,0,1,,,,,,,,,0,,,34,122
60480,note_on,0,0,1,,,,,,,,,0,,,37,122
60480,note_on,0,0,0,,,,,,,,,0,,,73,122
60481,control_change,1,0,0,,,,,,,64,0,0,,,,
60482,control_change,1,0,0,,,,,,,64,127,0,,,,
60516,note_on,0,0,1,,,,,,,,,0,,,37,0
60516,note_on,36,0,1,,,,,,,,,0,,,30,0
60516,note_on,0,0,1,,,,,,,,,0,,,34,0
60519,note_on,3,0,1,,,,,,,,,0,,,42,122
60520,note_on,38,0,0,,,,,,,,,0,,,66,122
60555,note_on,36,0,1,,,,,,,,,0,,,42,0
60559,note_on,4,0,1,,,,,,,,,0,,,30,122
60559,note_on,0,0,1,,,,,,,,,0,,,37,122
60559,note_on,0,0,1,,,,,,,,,0,,,34,122
60559,note_on,39,0,0,,,,,,,,,0,,,66,0
60560,note_on,0,0,0,,,,,,,,,0,,,73,122
60560,note_on,0,0,0,,,,,,,,,0,,,73,0
60560,note_on,1,0,0,,,,,,,,,0,,,70,122
60595,note_on,0,0,1,,,,,,,,,0,,,37,0
60595,note_on,0,0,1,,,,,,,,,0,,,34,0
60595,note_on,36,0,1,,,,,,,,,0,,,30,0
60599,note_on,39,0,0,,,,,,,,,0,,,70,0
60599,note_on,4,0,1,,,,,,,,,0,,,42,122
60600,note_on,0,0,0,,,,,,,,,0,,,78,122
60600,note_on,1,0,0,,,,,,,,,0,,,73,0
60600,note_on,0,0,0,,,,,,,,,0,,,73,122
60635,note_on,36,0,1,,,,,,,,,0,,,42,0
60639,note_on,4,0,1,,,,,,,,,0,,,30,122
60639,note_on,0,0,1,,,,,,,,,0,,,34,122
60639,note_on,0,0,1,,,,,,,,,0,,,37,122
60639,note_on,39,0,0,,,,,,,,,0,,,78,0
60640,note_on,0,0,0,,,,,,,,,0,,,85,122
60640,note_on,1,0,0,,,,,,,,,0,,,82,122
60675,note_on,0,0,1,,,,,,,,,0,,,34,0
60675,note_on,0,0,1,,,,,,,,,0,,,37,0
60675,note_on,36,0,1,,,,,,,,,0,,,30,0
60679,note_on,0,0,0,,,,,,,,,0,,,85,0
60679,note_on,4,0,1,,,,,,,,,0,,,42,122
60679,note_on,39,0,0,,,,,,,,,0,,,82,0
60680,note_on,1,0,0,,,,,,,,,0,,,85,122
60680,note_on,0,0,0,,,,,,,,,0,,,90,122
60715,note_on,36,0,1,,,,,,,,,0,,,42,0
60719,note_on,0,0,1,,,,,,,,,0,,,34,122
60719,note_on,0,0,1,,,,,,,,,0,,,37,122
60719,note_on,4,0,1,,,,,,,,,0,,,30,122
60719,note_on,0,0,0,,,,,,,,,0,,,90,0
60719,note_on,39,0,0,,,,,,,,,0,,,85,0
60720,note_on,0,0,0,,,,,,,,,0,,,97,122
60720,note_on,1,0,0,,,,,,,,,0,,,94,122
60755,note_on,0,0,1,,,,,,,,,0,,,37,0
60755,note_on,0,0,1,,,,,,,,,0,,,34,0
60755,note_on,36,0,1,,,,,,,,,0,,,30,0
60758,note_on,3,0,1,,,,,,,,,0,,,42,122
60759,note_on,0,0,0,,,,,,,,,0,,,97,0
60759,note_on,39,0,0,,,,,,,,,0,,,94,0
60760,note_on,0,0,0,,,,,,,,,0,,,90,122
60760,note_on,1,0,0,,,,,,,,,0,,,85,122
60794,note_on,36,0,1,,,,,,,,,0,,,42,0
60798,note_on,0,0,1,,,,,,,,,0,,,34,122
60798,note_on,0,0,1,,,,,,,,,0,,,37,122
60798,note_on,4,0,1,,,,,,,,,0,,,30,122
60799,note_on,0,0,0,,,,,,,,,0,,,90,0
60799,note_on,39,0,0,,,,,,,,,0,,,85,0
60800,note_on,0,0,0,,,,,,,,,0,,,97,122
60800,note_on,1,0,0,,,,,,,,,0,,,94,122
60834,note_on,0,0,1,,,,,,,,,0,,,34,0
60834,note_on,0,0,1,,,,,,,,,0,,,37,0
60834,note_on,36,0,1,,,,,,,,,0,,,30,0
60838,note_on,4,0,1,,,,,,,,,0,,,42,122
60839,note_on,0,0,0,,,,,,,,,0,,,97,0
60839,note_on,39,0,0,,,,,,,,,0,,,94,0
60840,note_on,1,0,0,,,,,,,,,0,,,85,122
60840,note_on,0,0,0,,,,,,,,,0,,,90,122
60874,note_on,36,0,1,,,,,,,,,0,,,42,0
60878,note_on,0,0,1,,,,,,,,,0,,,37,122
60878,note_on,4,0,1,,,,,,,,,0,,,30,122
60878,note_on,0,0,1,,,,,,,,,0,,,34,122
60879,note_on,0,0,0,,,,,,,,,0,,,90,0
60879,note_on,39,0,0,,,,,,,,,0,,,85,0
60880,note_on,1,0,0,,,,,,,,,0,,,94,122
60880,note_on,0,0,0,,,,,,,,,0,,,97,122
60914,note_on,0,0,1,,,,,,,,,0,,,34,0
60914,note_on,36,0,1,,,,,,,,,0,,,30,0
60914,note_on,0,0,1,,,,,,,,,0,,,37,0
60918,note_on,4,0,1,,,,,,,,,0,,,42,122
60919,note_on,0,0,0,,,,,,,,,0,,,97,0
60919,note_on,39,0,0,,,,,,,,,0,,,94,0
60920,note_on,1,0,0,,,,,,,,,0,,,85,122
60920,note_on,0,0,0,,,,,,,,,0,,,90,122
60954,note_on,36,0,1,,,,,,,,,0,,,42,0
60959,note_on,39,0,0,,,,,,,,,0,,,61,0
60959,note_on,0,0,0,,,,,,,,,0,,,73,0
60960,note_on,1,0,0,,,,,,,,,0,,,94,122
60960,note_on,0,0,0,,,,,,,,,0,,,97,122
60960,note_on,6,0,1,,,,,,,,,0,,,30,122
60961,control_change,1,0,0,,,,,,,64,0,0,,,,
60962,control_change,1,0,0,,,,,,,64,127,0,,,,
60975,note_on,15,0,1,,,,,,,,,0,,,34,122
60991,note_on,16,0,1,,,,,,,,,0,,,37,122
61007,note_on,16,0,1,,,,,,,,,0,,,42,122
61187,note_on,0,0,0,,,,,,,,,0,,,90,0
61187,note_on,0,0,0,,,,,,,,,0,,,97,0
61187,note_on,225,0,0,,,,,,,,,0,,,85,0
61187,note_on,0,0,0,,,,,,,,,0,,,94,0
61198,note_on,0,0,1,,,,,,,,,0,,,37,0
61198,note_on,0,0,1,,,,,,,,,0,,,42,0
61198,note_on,191,0,1,,,,,,,,,0,,,34,0
61199,note_on,1,0,1,,,,,,,,,0,,,30,0
61200,note_on,13,0,0,,,,,,,,,0,,,61,127
61200,note_on,0,0,0,,,,,,,,,0,,,73,127
61319,note_on,119,0,0,,,,,,,,,0,,,61,0
61319,note_on,0,0,0,,,,,,,,,0,,,73,0
61380,note_on,61,0,0,,,,,,,,,0,,,61,127
61380,note_on,0,0,0,,,,,,,,,0,,,73,127
61419,note_on,0,0,0,,,,,,,,,0,,,73,0
61419,note_on,39,0,0,,,,,,,,,0,,,61,0
61440,note_on,0,0,0,,,,,,,,,0,,,73,127
61440,note_on,21,0,0,,,,,,,,,0,,,61,127
61441,control_change,1,0,0,,,,,,,64,0,0,,,,
61442,control_change,1,0,0,,,,,,,64,127,0,,,,
61599,note_on,157,0,0,,,,,,,,,0,,,61,0
61599,note_on,0,0,0,,,,,,,,,0,,,73,0
61680,note_on,0,0,0,,,,,,,,,0,,,73,127
61680,note_on,81,0,0,,,,,,,,,0,,,61,127
61839,note_on,159,0,0,,,,,,,,,0,,,61,0
61839,note_on,0,0,0,,,,,,,,,0,,,73,0
61920,note_on,81,0,0,,,,,,,,,0,,,62,96
61920,note_on,0,0,1,,,,,,,,,0,,,60,70
61920,note_on,0,0,1,,,,,,,,,0,,,54,70
61920,note_on,0,0,1,,,,,,,,,0,,,50,70
61920,note_on,0,0,0,,,,,,,,,0,,,62,0
61920,note_on,0,0,0,,,,,,,,,0,,,62,115
61920,note_on,721,0,1,,,,,,,,,0,,,45,70
61920,note_on,0,0,0,,,,,,,,,0,,,74,115
61921,control_change,1,0,0,,,,,,,64,0,0,,,,
61922,control_change,2,0,1,,,,,,,64,127,0,,,,
61960,note_on,39,0,0,,,,,,,,,0,,,66,96
61997,note_on,37,0,0,,,,,,,,,0,,,66,0
62000,note_on,3,0,0,,,,,,,,,0,,,72,96
62037,note_on,37,0,0,,,,,,,,,0,,,72,0
62040,note_on,3,0,0,,,,,,,,,0,,,74,0
62040,note_on,0,0,0,,,,,,,,,0,,,74,96
62080,note_on,40,0,0,,,,,,,,,0,,,78,96
62117,note_on,37,0,0,,,,,,,,,0,,,78,0
62120,note_on,3,0,0,,,,,,,,,0,,,84,96
62147,note_on,0,0,1,,,,,,,,,0,,,60,0
62147,note_on,225,0,1,,,,,,,,,0,,,45,0
62147,note_on,0,0,1,,,,,,,,,0,,,54,0
62147,note_on,0,0,1,,,,,,,,,0,,,50,0
62157,note_on,37,0,0,,,,,,,,,0,,,84,0
62160,note_on,13,0,1,,,,,,,,,0,,,33,70
62160,note_on,3,0,0,,,,,,,,,0,,,86,96
62183,note_on,23,0,1,,,,,,,,,0,,,38,70
62197,note_on,37,0,0,,,,,,,,,0,,,86,0
62200,note_on,3,0,0,,,,,,,,,0,,,84,96
62207,note_on,24,0,1,,,,,,,,,0,,,42,70
62237,note_on,37,0,0,,,,,,,,,0,,,84,0
62240,note_on,3,0,0,,,,,,,,,0,,,78,96
62277,note_on,37,0,0,,,,,,,,,0,,,78,0
62280,note_on,0,0,0,,,,,,,,,0,,,74,96
62280,note_on,3,0,0,,,,,,,,,0,,,74,0
62320,note_on,40,0,0,,,,,,,,,0,,,72,96
62357,note_on,37,0,0,,,,,,,,,0,,,72,0
62360,note_on,3,0,0,,,,,,,,,0,,,66,96
62397,note_on,37,0,0,,,,,,,,,0,,,66,0
62398,note_on,191,0,1,,,,,,,,,0,,,38,0
62398,note_on,0,0,1,,,,,,,,,0,,,42,0
62399,note_on,1,0,1,,,,,,,,,0,,,33,0
62399,note_on,2,0,0,,,,,,,,,0,,,62,0
62399,note_on,0,0,0,,,,,,,,,0,,,74,0
62400,note_on,1,0,0,,,,,,,,,0,,,61,96
62400,note_on,0,0,1,,,,,,,,,0,,,50,70
62400,note_on,0,0,1,,,,,,,,,0,,,54,70
62400,note_on,0,0,1,,,,,,,,,0,,,60,70
62400,note_on,1,0,1,,,,,,,,,0,,,45,70
62400,note_on,0,0,0,,,,,,,,,0,,,61,0
62400,note_on,0,0,0,,,,,,,,,0,,,61,96
62400,note_on,0,0,0,,,,,,,,,0,,,73,96
62401,control_change,1,0,1,,,,,,,64,0,0,,,,
62402,control_change,1,0,1,,,,,,,64,127,0,,,,
62440,note_on,40,0,0,,,,,,,,,0,,,66,96
62477,note_on,37,0,0,,,,,,,,,0,,,66,0
62480,note_on,3,0,0,,,,,,,,,0,,,72,96
62517,note_on,37,0,0,,,,,,,,,0,,,72,0
62520,note_on,0,0,0,,,,,,,,,0,,,73,96
62520,note_on,3,0,0,,,,,,,,,0,,,73,0
62560,note_on,40,0,0,,,,,,,,,0,,,78,96
62597,note_on,37,0,0,,,,,,,,,0,,,78,0
62600,note_on,3,0,0,,,,,,,,,0,,,85,96
62627,note_on,225,0,1,,,,,,,,,0,,,45,0
62627,note_on,0,0,1,,,,,,,,,0,,,50,0
62627,note_on,0,0,1,,,,,,,,,0,,,54,0
62627,note_on,0,0,1,,,,,,,,,0,,,60,0
62637,note_on,37,0,0,,,,,,,,,0,,,85,0
62639,note_on,0,0,0,,,,,,,,,0,,,73,0
62639,note_on,2,0,0,,,,,,,,,0,,,61,0
62640,note_on,0,0,0,,,,,,,,,0,,,74,96
62640,note_on,1,0,0,,,,,,,,,0,,,62,96
62640,note_on,0,0,0,,,,,,,,,0,,,62,96
62640,note_on,0,0,0,,,,,,,,,0,,,62,0
62640,note_on,13,0,1,,,,,,,,,0,,,33,70
62663,note_on,23,0,1,,,,,,,,,0,,,38,70
62680,note_on,40,0,0,,,,,,,,,0,,,66,96
62687,note_on,24,0,1,,,,,,,,,0,,,42,71
62717,note_on,37,0,0,,,,,,,,,0,,,66,0
62720,note_on,3,0,0,,,,,,,,,0,,,72,96
62757,note_on,37,0,0,,,,,,,,,0,,,72,0
62760,note_on,3,0,0,,,,,,,,,0,,,74,0
62760,note_on,0,0,0,,,,,,,,,0,,,74,96
62800,note_on,40,0,0,,,,,,,,,0,,,78,96
62837,note_on,37,0,0,,,,,,,,,0,,,78,0
62840,note_on,3,0,0,,,,,,,,,0,,,86,96
62877,note_on,37,0,0,,,,,,,,,0,,,86,0
62878,note_on,191,0,1,,,,,,,,,0,,,38,0
62878,note_on,0,0,1,,,,,,,,,0,,,42,0
62879,note_on,2,0,0,,,,,,,,,0,,,62,0
62879,note_on,0,0,0,,,,,,,,,0,,,74,0
62879,note_on,1,0,1,,,,,,,,,0,,,33,0
62880,note_on,0,0,0,,,,,,,,,0,,,75,96
62880,note_on,0,0,0,,,,,,,,,0,,,63,96
62880,note_on,0,0,0,,,,,,,,,0,,,63,0
62880,note_on,0,0,1,,,,,,,,,0,,,60,78
62880,note_on,1,0,1,,,,,,,,,0,,,45,78
62880,note_on,1,0,0,,,,,,,,,0,,,63,96
62880,note_on,0,0,1,,,,,,,,,0,,,54,78
62880,note_on,0,0,1,,,,,,,,,0,,,50,78
62881,control_change,1,0,1,,,,,,,64,0,0,,,,
62882,control_change,1,0,1,,,,,,,64,127,0,,,,
62920,note_on,40,0,0,,,,,,,,,0,,,66,96
62957,note_on,37,0,0,,,,,,,,,0,,,66,0
62960,note_on,3,0,0,,,,,,,,,0,,,72,96
62997,note_on,37,0,0,,,,,,,,,0,,,72,0
63000,note_on,0,0,0,,,,,,,,,0,,,75,96
63000,note_on,3,0,0,,,,,,,,,0,,,75,0
63040,note_on,40,0,0,,,,,,,,,0,,,78,96
63077,note_on,37,0,0,,,,,,,,,0,,,78,0
63080,note_on,3,0,0,,,,,,,,,0,,,87,96
63107,note_on,0,0,1,,,,,,,,,0,,,54,0
63107,note_on,0,0,1,,,,,,,,,0,,,60,0
63107,note_on,225,0,1,,,,,,,,,0,,,45,0
63107,note_on,0,0,1,,,,,,,,,0,,,50,0
63117,note_on,37,0,0,,,,,,,,,0,,,87,0
63119,note_on,0,0,0,,,,,,,,,0,,,75,0
63119,note_on,2,0,0,,,,,,,,,0,,,63,0
63120,note_on,13,0,1,,,,,,,,,0,,,33,87
63120,note_on,1,0,0,,,,,,,,,0,,,62,96
63120,note_on,0,0,0,,,,,,,,,0,,,74,96
63120,note_on,0,0,0,,,,,,,,,0,,,62,96
63120,note_on,0,0,0,,,,,,,,,0,,,62,0
63143,note_on,23,0,1,,,,,,,,,0,,,38,88
63160,note_on,40,0,0,,,,,,,,,0,,,66,96
63167,note_on,24,0,1,,,,,,,,,0,,,42,89
63197,note_on,37,0,0,,,,,,,,,0,,,66,0
63200,note_on,3,0,0,,,,,,,,,0,,,72,96
63237,note_on,37,0,0,,,,,,,,,0,,,72,0
63240,note_on,3,0,0,,,,,,,,,0,,,74,0
63240,note_on,0,0,0,,,,,,,,,0,,,74,96
63280,note_on,40,0,0,,,,,,,,,0,,,78,96
63317,note_on,37,0,0,,,,,,,,,0,,,78,0
63320,note_on,3,0,0,,,,,,,,,0,,,86,96
63357,note_on,37,0,0,,,,,,,,,0,,,86,0
63358,note_on,191,0,1,,,,,,,,,0,,,38,0
63358,note_on,0,0,1,,,,,,,,,0,,,42,0
63359,note_on,0,0,0,,,,,,,,,0,,,74,0
63359,note_on,2,0,0,,,,,,,,,0,,,62,0
63359,note_on,1,0,1,,,,,,,,,0,,,33,0
63360,note_on,0,0,0,,,,,,,,,0,,,71,115
63360,note_on,0,0,0,,,,,,,,,0,,,83,115
63360,note_on,0,0,1,,,,,,,,,0,,,50,96
63360,note_on,0,0,1,,,,,,,,,0,,,59,96
63360,note_on,1,0,0,,,,,,,,,0,,,71,96
63360,note_on,0,0,0,,,,,,,,,0,,,71,0
63360,note_on,1,0,1,,,,,,,,,0,,,43,96
63361,control_change,1,0,1,,,,,,,64,0,0,,,,
63362,control_change,1,0,1,,,,,,,64,127,0,,,,
63400,note_on,40,0,0,,,,,,,,,0,,,74,96
63437,note_on,37,0,0,,,,,,,,,0,,,74,0
63440,note_on,3,0,0,,,,,,,,,0,,,79,96
63477,note_on,37,0,0,,,,,,,,,0,,,79,0
63480,note_on,3,0,0,,,,,,,,,0,,,83,0
63480,note_on,0,0,0,,,,,,,,,0,,,83,96
63520,note_on,40,0,0,,,,,,,,,0,,,86,96
63557,note_on,37,0,0,,,,,,,,,0,,,86,0
63560,note_on,3,0,0,,,,,,,,,0,,,91,96
63587,note_on,225,0,1,,,,,,,,,0,,,43,0
63587,note_on,0,0,1,,,,,,,,,0,,,59,0
63587,note_on,0,0,1,,,,,,,,,0,,,50,0
63597,note_on,37,0,0,,,,,,,,,0,,,91,0
63600,note_on,3,0,0,,,,,,,,,0,,,95,96
63600,note_on,0,0,1,,,,,,,,,0,,,38,96
63600,note_on,13,0,1,,,,,,,,,0,,,31,96
63637,note_on,37,0,0,,,,,,,,,0,,,95,0
63640,note_on,3,0,0,,,,,,,,,0,,,86,96
63677,note_on,37,0,0,,,,,,,,,0,,,86,0
63680,note_on,3,0,0,,,,,,,,,0,,,83,0
63680,note_on,0,0,0,,,,,,,,,0,,,83,96
63720,note_on,40,0,0,,,,,,,,,0,,,79,96
63757,note_on,37,0,0,,,,,,,,,0,,,79,0
63760,note_on,3,0,0,,,,,,,,,0,,,74,96
63797,note_on,37,0,0,,,,,,,,,0,,,74,0
63800,note_on,0,0,0,,,,,,,,,0,,,71,96
63800,note_on,3,0,0,,,,,,,,,0,,,71,0
63827,note_on,227,0,1,,,,,,,,,0,,,31,0
63827,note_on,0,0,1,,,,,,,,,0,,,38,0
63839,note_on,0,0,0,,,,,,,,,0,,,83,0
63839,note_on,39,0,0,,,,,,,,,0,,,71,0
63840,note_on,1,0,0,,,,,,,,,0,,,67,96
63840,note_on,0,0,0,,,,,,,,,0,,,71,115
63840,note_on,0,0,1,,,,,,,,,0,,,55,96
63840,note_on,0,0,0,,,,,,,,,0,,,67,0
63840,note_on,0,0,0,,,,,,,,,0,,,79,115
63840,note_on,13,0,1,,,,,,,,,0,,,40,96
63840,note_on,0,0,0,,,,,,,,,0,,,67,115
63840,note_on,0,0,1,,,,,,,,,0,,,47,96
63841,control_change,1,0,1,,,,,,,64,0,0,,,,
63842,control_change,1,0,1,,,,,,,64,127,0,,,,
63888,note_on,48,0,0,,,,,,,,,0,,,76,96
63932,note_on,44,0,0,,,,,,,,,0,,,76,0
63936,note_on,4,0,0,,,,,,,,,0,,,79,0
63936,note_on,0,0,0,,,,,,,,,0,,,79,96
63984,note_on,48,0,0,,,,,,,,,0,,,83,96
64028,note_on,44,0,0,,,,,,,,,0,,,83,0
64032,note_on,4,0,0,,,,,,,,,0,,,91,96
64067,note_on,0,0,1,,,,,,,,,0,,,47,0
64067,note_on,0,0,1,,,,,,,,,0,,,55,0
64067,note_on,225,0,1,,,,,,,,,0,,,40,0
64076,note_on,44,0,0,,,,,,,,,0,,,91,0
64079,note_on,3,0,0,,,,,,,,,0,,,67,0
64079,note_on,0,0,0,,,,,,,,,0,,,71,0
64079,note_on,0,0,0,,,,,,,,,0,,,79,0
64080,note_on,0,0,0,,,,,,,,,0,,,64,0
64080,note_on,0,0,0,,,,,,,,,0,,,64,115
64080,note_on,0,0,0,,,,,,,,,0,,,67,115
64080,note_on,1,0,0,,,,,,,,,0,,,64,96
64080,note_on,13,0,1,,,,,,,,,0,,,55,96
64080,note_on,0,0,0,,,,,,,,,0,,,76,115
64080,note_on,0,0,1,,,,,,,,,0,,,59,96
64128,note_on,48,0,0,,,,,,,,,0,,,71,96
64172,note_on,44,0,0,,,,,,,,,0,,,71,0
64176,note_on,4,0,0,,,,,,,,,0,,,76,0
64176,note_on,0,0,0,,,,,,,,,0,,,76,96
64224,note_on,48,0,0,,,,,,,,,0,,,79,96
64268,note_on,44,0,0,,,,,,,,,0,,,79,0
64272,note_on,4,0,0,,,,,,,,,0,,,88,96
64307,note_on,0,0,1,,,,,,,,,0,,,59,0
64307,note_on,227,0,1,,,,,,,,,0,,,55,0
64316,note_on,44,0,0,,,,,,,,,0,,,88,0
64319,note_on,3,0,0,,,,,,,,,0,,,64,0
64319,note_on,0,0,0,,,,,,,,,0,,,67,0
64319,note_on,0,0,0,,,,,,,,,0,,,76,0
64320,note_on,0,0,0,,,,,,,,,0,,,63,115
64320,note_on,0,0,1,,,,,,,,,0,,,43,96
64320,note_on,1,0,0,,,,,,,,,0,,,60,96
64320,note_on,13,0,1,,,,,,,,,0,,,39,96
64320,note_on,0,0,0,,,,,,,,,0,,,60,115
64320,note_on,0,0,0,,,,,,,,,0,,,60,0
64320,note_on,0,0,1,,,,,,,,,0,,,51,96
64320,note_on,0,0,0,,,,,,,,,0,,,72,115
64321,control_change,1,0,1,,,,,,,64,0,0,,,,
64322,control_change,1,0,1,,,,,,,64,127,0,,,,
64368,note_on,48,0,0,,,,,,,,,0,,,67,96
64412,note_on,44,0,0,,,,,,,,,0,,,67,0
64416,note_on,0,0,0,,,,,,,,,0,,,72,96
64416,note_on,4,0,0,,,,,,,,,0,,,72,0
64464,note_on,48,0,0,,,,,,,,,0,,,75,96
64508,note_on,44,0,0,,,,,,,,,0,,,75,0
64512,note_on,4,0,0,,,,,,,,,0,,,84,96
64547,note_on,0,0,1,,,,,,,,,0,,,43,0
64547,note_on,225,0,1,,,,,,,,,0,,,39,0
64547,note_on,0,0,1,,,,,,,,,0,,,51,0
64556,note_on,44,0,0,,,,,,,,,0,,,84,0
64559,note_on,3,0,0,,,,,,,,,0,,,60,0
64559,note_on,0,0,0,,,,,,,,,0,,,72,0
64559,note_on,0,0,0,,,,,,,,,0,,,63,0
64560,note_on,1,0,0,,,,,,,,,0,,,57,96
64560,note_on,0,0,0,,,,,,,,,0,,,60,96
64560,note_on,0,0,0,,,,,,,,,0,,,69,96
64560,note_on,13,0,1,,,,,,,,,0,,,51,96
64560,note_on,0,0,1,,,,,,,,,0,,,55,96
64560,note_on,0,0,0,,,,,,,,,0,,,57,0
64560,note_on,0,0,0,,,,,,,,,0,,,57,96
64608,note_on,48,0,0,,,,,,,,,0,,,63,96
64652,note_on,44,0,0,,,,,,,,,0,,,63,0
64656,note_on,4,0,0,,,,,,,,,0,,,69,0
64656,note_on,0,0,0,,,,,,,,,0,,,69,96
64704,note_on,48,0,0,,,,,,,,,0,,,72,96
64748,note_on,44,0,0,,,,,,,,,0,,,72,0
64752,note_on,4,0,0,,,,,,,,,0,,,81,96
64787,note_on,0,0,0,,,,,,,,,0,,,60,0
64787,note_on,227,0,1,,,,,,,,,0,,,51,0
64787,note_on,0,0,1,,,,,,,,,0,,,55,0
64787,note_on,0,0,0,,,,,,,,,0,,,69,0
64787,note_on,35,0,0,,,,,,,,,0,,,57,0
64796,note_on,9,0,0,,,,,,,,,0,,,81,0
64800,note_on,0,0,1,,,,,,,,,0,,,43,96
64800,note_on,0,0,0,,,,,,,,,0,,,55,96
64800,note_on,0,0,1,,,,,,,,,0,,,50,96
64800,note_on,0,0,0,,,,,,,,,0,,,59,96
64800,note_on,13,0,1,,,,,,,,,0,,,38,96
64800,note_on,4,0,0,,,,,,,,,0,,,55,96
64800,note_on,0,0,0,,,,,,,,,0,,,55,0
64800,note_on,0,0,0,,,,,,,,,0,,,67,96
64801,control_change,1,0,1,,,,,,,64,0,0,,,,
64802,control_change,1,0,1,,,,,,,64,127,0,,,,
64848,note_on,48,0,0,,,,,,,,,0,,,62,96
64892,note_on,44,0,0,,,,,,,,,0,,,62,0
64896,note_on,0,0,0,,,,,,,,,0,,,67,96
64896,note_on,4,0,0,,,,,,,,,0,,,67,0
64944,note_on,48,0,0,,,,,,,,,0,,,74,96
64988,note_on,44,0,0,,,,,,,,,0,,,74,0
64992,note_on,4,0,0,,,,,,,,,0,,,79,96
65027,note_on,225,0,1,,,,,,,,,0,,,38,0
65027,note_on,0,0,1,,,,,,,,,0,,,43,0
65027,note_on,0,0,1,,,,,,,,,0,,,50,0
65027,note_on,0,0,0,,,,,,,,,0,,,67,0
65027,note_on,0,0,0,,,,,,,,,0,,,59,0
65027,note_on,35,0,0,,,,,,,,,0,,,55,0
65036,note_on,9,0,0,,,,,,,,,0,,,79,0
65040,note_on,4,0,0,,,,,,,,,0,,,59,96
65040,note_on,0,0,0,,,,,,,,,0,,,62,96
65040,note_on,13,0,1,,,,,,,,,0,,,47,96
65040,note_on,0,0,1,,,,,,,,,0,,,55,96
65040,note_on,0,0,0,,,,,,,,,0,,,59,96
65040,note_on,0,0,0,,,,,,,,,0,,,71,96
65040,note_on,0,0,0,,,,,,,,,0,,,59,0
65040,note_on,0,0,1,,,,,,,,,0,,,50,96
65088,note_on,48,0,0,,,,,,,,,0,,,67,96
65132,note_on,44,0,0,,,,,,,,,0,,,67,0
65136,note_on,4,0,0,,,,,,,,,0,,,71,0
65136,note_on,0,0,0,,,,,,,,,0,,,71,96
65184,note_on,48,0,0,,,,,,,,,0,,,74,96
65228,note_on,44,0,0,,,,,,,,,0,,,74,0
65232,note_on,4,0,0,,,,,,,,,0,,,83,96
65267,note_on,35,0,0,,,,,,,,,0,,,59,0
65267,note_on,0,0,1,,,,,,,,,0,,,50,0
65267,note_on,0,0,0,,,,,,,,,0,,,62,0
65267,note_on,0,0,1,,,,,,,,,0,,,55,0
65267,note_on,227,0,1,,,,,,,,,0,,,47,0
65267,note_on,0,0,0,,,,,,,,,0,,,71,0
65276,note_on,9,0,0,,,,,,,,,0,,,83,0
65280,note_on,0,0,1,,,,,,,,,0,,,50,96
65280,note_on,0,0,0,,,,,,,,,0,,,67,96
65280,note_on,13,0,1,,,,,,,,,0,,,38,96
65280,note_on,0,0,1,,,,,,,,,0,,,46,96
65280,note_on,0,0,0,,,,,,,,,0,,,62,96
65280,note_on,0,0,0,,,,,,,,,0,,,62,0
65280,note_on,0,0,0,,,,,,,,,0,,,74,96
65280,note_on,4,0,0,,,,,,,,,0,,,62,96
65281,control_change,1,0,1,,,,,,,64,0,0,,,,
65282,control_change,1,0,1,,,,,,,64,127,0,,,,
65320,note_on,40,0,0,,,,,,,,,0,,,70,96
65357,note_on,37,0,0,,,,,,,,,0,,,70,0
65360,note_on,3,0,0,,,,,,,,,0,,,74,0
65360,note_on,0,0,0,,,,,,,,,0,,,74,96
65400,note_on,40,0,0,,,,,,,,,0,,,79,96
65437,note_on,37,0,0,,,,,,,,,0,,,79,0
65440,note_on,3,0,0,,,,,,,,,0,,,82,96
65477,note_on,37,0,0,,,,,,,,,0,,,82,0
65480,note_on,3,0,0,,,,,,,,,0,,,85,96
65507,note_on,0,0,0,,,,,,,,,0,,,67,0
65507,note_on,0,0,0,,,,,,,,,0,,,74,0
65507,note_on,225,0,1,,,,,,,,,0,,,38,0
65507,note_on,27,0,0,,,,,,,,,0,,,62,0
65507,note_on,0,0,1,,,,,,,,,0,,,46,0
65507,note_on,0,0,1,,,,,,,,,0,,,50,0
65517,note_on,10,0,0,,,,,,,,,0,,,85,0
65520,note_on,0,0,1,,,,,,,,,0,,,55,96
65520,note_on,0,0,1,,,,,,,,,0,,,58,96
65520,note_on,13,0,1,,,,,,,,,0,,,50,96
65520,note_on,3,0,0,,,,,,,,,0,,,86,96
65557,note_on,37,0,0,,,,,,,,,0,,,86,0
65560,note_on,3,0,0,,,,,,,,,0,,,98,96
65597,note_on,37,0,0,,,,,,,,,0,,,98,0
65600,note_on,3,0,0,,,,,,,,,0,,,86,96
65637,note_on,37,0,0,,,,,,,,,0,,,86,0
65640,note_on,3,0,0,,,,,,,,,0,,,98,96
65677,note_on,37,0,0,,,,,,,,,0,,,98,0
65680,note_on,3,0,0,,,,,,,,,0,,,86,96
65717,note_on,37,0,0,,,,,,,,,0,,,86,0
65720,note_on,3,0,0,,,,,,,,,0,,,98,96
65747,note_on,0,0,1,,,,,,,,,0,,,58,0
65747,note_on,0,0,1,,,,,,,,,0,,,55,0
65747,note_on,227,0,1,,,,,,,,,0,,,50,0
65757,note_on,37,0,0,,,,,,,,,0,,,98,0
65760,note_on,0,0,1,,,,,,,,,0,,,45,96
65760,note_on,13,0,1,,,,,,,,,0,,,38,96
65760,note_on,0,0,1,,,,,,,,,0,,,42,96
65760,note_on,3,0,0,,,,,,,,,0,,,86,96
65760,note_on,0,0,1,,,,,,,,,0,,,50,96
65761,control_change,1,0,1,,,,,,,64,0,0,,,,
65762,control_change,1,0,1,,,,,,,64,127,0,,,,
65787,note_on,27,0,0,,,,,,,,,0,,,86,0
65790,note_on,3,0,0,,,,,,,,,0,,,98,96
65817,note_on,27,0,0,,,,,,,,,0,,,98,0
65820,note_on,3,0,0,,,,,,,,,0,,,85,96
65847,note_on,27,0,0,,,,,,,,,0,,,85,0
65850,note_on,3,0,0,,,,,,,,,0,,,98,96
65877,note_on,27,0,0,,,,,,,,,0,,,98,0
65880,note_on,3,0,0,,,,,,,,,0,,,86,96
65907,note_on,27,0,0,,,,,,,,,0,,,86,0
65910,note_on,3,0,0,,,,,,,,,0,,,98,96
65937,note_on,27,0,0,,,,,,,,,0,,,98,0
65940,note_on,3,0,0,,,,,,,,,0,,,87,96
65967,note_on,27,0,0,,,,,,,,,0,,,87,0
65970,note_on,3,0,0,,,,,,,,,0,,,98,96
65987,note_on,0,0,1,,,,,,,,,0,,,50,0
65987,note_on,0,0,1,,,,,,,,,0,,,42,0
65987,note_on,225,0,1,,,,,,,,,0,,,38,0
65987,note_on,0,0,1,,,,,,,,,0,,,45,0
65997,note_on,27,0,0,,,,,,,,,0,,,98,0
66000,note_on,3,0,0,,,,,,,,,0,,,88,97
66000,note_on,0,0,1,,,,,,,,,0,,,62,97
66000,note_on,0,0,1,,,,,,,,,0,,,57,97
66000,note_on,13,0,1,,,,,,,,,0,,,50,97
66000,note_on,0,0,1,,,,,,,,,0,,,60,97
66027,note_on,27,0,0,,,,,,,,,0,,,88,0
66030,note_on,3,0,0,,,,,,,,,0,,,98,98
66057,note_on,27,0,0,,,,,,,,,0,,,98,0
66060,note_on,3,0,0,,,,,,,,,0,,,89,99
66087,note_on,27,0,0,,,,,,,,,0,,,89,0
66090,note_on,3,0,0,,,,,,,,,0,,,98,100
66117,note_on,27,0,0,,,,,,,,,0,,,98,0
66120,note_on,3,0,0,,,,,,,,,0,,,90,101
66147,note_on,27,0,0,,,,,,,,,0,,,90,0
66150,note_on,3,0,0,,,,,,,,,0,,,98,102
66177,note_on,27,0,0,,,,,,,,,0,,,98,0
66180,note_on,3,0,0,,,,,,,,,0,,,86,103
66207,note_on,27,0,0,,,,,,,,,0,,,86,0
66210,note_on,3,0,0,,,,,,,,,0,,,98,104
66227,note_on,0,0,1,,,,,,,,,0,,,62,0
66227,note_on,227,0,1,,,,,,,,,0,,,50,0
66227,note_on,0,0,1,,,,,,,,,0,,,57,0
66227,note_on,0,0,1,,,,,,,,,0,,,60,0
66237,note_on,27,0,0,,,,,,,,,0,,,98,0
66240,note_on,13,0,1,,,,,,,,,0,,,43,106
66240,note_on,0,0,0,,,,,,,,,0,,,95,106
66240,note_on,0,0,1,,,,,,,,,0,,,50,106
66240,note_on,0,0,1,,,,,,,,,0,,,59,106
66240,note_on,3,0,0,,,,,,,,,0,,,91,106
66241,control_change,1,0,1,,,,,,,64,0,0,,,,
66242,control_change,1,0,1,,,,,,,64,127,0,,,,
66318,note_on,76,0,1,,,,,,,,,0,,,43,0
66318,note_on,0,0,0,,,,,,,,,0,,,95,0
66318,note_on,78,0,0,,,,,,,,,0,,,91,0
66318,note_on,0,0,1,,,,,,,,,0,,,50,0
66318,note_on,0,0,1,,,,,,,,,0,,,59,0
66480,note_on,0,0,0,,,,,,,,,0,,,79,106
66480,note_on,162,0,0,,,,,,,,,0,,,67,106
66480,note_on,0,0,1,,,,,,,,,0,,,55,106
66480,note_on,162,0,1,,,,,,,,,0,,,43,106
66650,note_on,0,0,1,,,,,,,,,0,,,55,0
66650,note_on,0,0,0,,,,,,,,,0,,,79,0
66650,note_on,170,0,1,,,,,,,,,0,,,43,0
66650,note_on,170,0,0,,,,,,,,,0,,,67,0
66660,note_on,0,0,0,,,,,,,,,0,,,79,106
66660,note_on,10,0,1,,,,,,,,,0,,,43,106
66660,note_on,0,0,1,,,,,,,,,0,,,55,106
66660,note_on,10,0,0,,,,,,,,,0,,,67,106
66716,note_on,56,0,0,,,,,,,,,0,,,67,0
66716,note_on,56,0,1,,,,,,,,,0,,,43,0
66716,note_on,0,0,0,,,,,,,,,0,,,79,0
66716,note_on,0,0,1,,,,,,,,,0,,,55,0
66720,note_on,4,0,0,,,,,,,,,0,,,67,106
66720,note_on,4,0,1,,,,,,,,,0,,,43,106
66720,note_on,0,0,1,,,,,,,,,0,,,55,106
66720,note_on,0,0,0,,,,,,,,,0,,,79,106
66721,control_change,1,0,1,,,,,,,64,0,0,,,,
66722,control_change,1,0,1,,,,,,,64,127,0,,,,
66947,note_on,227,0,0,,,,,,,,,0,,,67,0
66947,note_on,0,0,0,,,,,,,,,0,,,79,0
66947,note_on,225,0,1,,,,,,,,,0,,,43,0
66947,note_on,0,0,1,,,,,,,,,0,,,55,0
66960,note_on,0,0,1,,,,,,,,,0,,,47,127
66960,note_on,0,0,0,,,,,,,,,0,,,79,127
66960,note_on,0,0,0,,,,,,,,,0,,,71,127
66960,note_on,13,0,0,,,,,,,,,0,,,67,127
66960,note_on,13,0,1,,,,,,,,,0,,,43,127
66960,note_on,0,0,1,,,,,,,,,0,,,55,127
67199,note_on,0,0,0,,,,,,,,,0,,,71,0
67199,note_on,0,0,1,,,,,,,,,0,,,55,0
67199,note_on,0,0,1,,,,,,,,,0,,,47,0
67199,note_on,239,0,0,,,,,,,,,0,,,67,0
67199,note_on,0,0,0,,,,,,,,,0,,,79,0
67199,note_on,239,0,1,,,,,,,,,0,,,43,0
67200,note_on,0,0,0,,,,,,,,,0,,,67,127
67200,note_on,0,0,1,,,,,,,,,0,,,50,127
67200,note_on,0,0,1,,,,,,,,,0,,,55,127
67200,set_tempo,1,1,0,,,,,,1499999,,,,,,,
67200,note_on,0,0,0,,,,,,,,,0,,,79,127
67200,note_on,1,0,1,,,,,,,,,0,,,43,127
67200,note_on,0,0,0,,,,,,,,,0,,,74,127
67201,control_change,1,0,1,,,,,,,64,0,0,,,,
67202,control_change,1,0,1,,,,,,,64,127,0,,,,
67439,note_on,237,0,1,,,,,,,,,0,,,43,0
67439,note_on,239,0,0,,,,,,,,,0,,,67,0
67439,note_on,0,0,1,,,,,,,,,0,,,50,0
67439,note_on,0,0,0,,,,,,,,,0,,,74,0
67439,note_on,0,0,0,,,,,,,,,0,,,79,0
67439,note_on,0,0,1,,,,,,,,,0,,,55,0
67440,set_tempo,1,1,0,,,,,,1666667,,,,,,,
67440,note_on,0,0,1,,,,,,,,,0,,,55,127
67440,note_on,0,0,0,,,,,,,,,0,,,79,127
67440,note_on,1,0,1,,,,,,,,,0,,,43,127
67440,note_on,0,0,0,,,,,,,,,0,,,67,127
67679,note_on,239,0,1,,,,,,,,,0,,,43,0
67679,note_on,239,0,0,,,,,,,,,0,,,67,0
67679,note_on,0,0,1,,,,,,,,,0,,,55,0
67679,note_on,0,0,0,,,,,,,,,0,,,79,0
67680,note_on,0,0,0,,,,,,,,,0,,,67,127
67680,note_on,0,0,0,,,,,,,,,0,,,55,127
67680,note_on,0,0,0,,,,,,,,,0,,,55,106
67680,note_on,0,0,0,,,,,,,,,0,,,55,0
67680,note_on,0,0,1,,,,,,,,,0,,,46,106
67680,note_on,0,0,1,,,,,,,,,0,,,43,106
67680,set_tempo,1,1,0,,,,,,1333333,,,,,,,
67680,note_on,1,0,1,,,,,,,,,0,,,39,106
67681,control_change,1,0,1,,,,,,,64,0,0,,,,
67682,control_change,2,0,0,,,,,,,64,127,0,,,,
67716,note_on,0,0,1,,,,,,,,,0,,,43,0
67716,note_on,0,0,1,,,,,,,,,0,,,46,0
67716,note_on,35,0,1,,,,,,,,,0,,,39,0
67719,note_on,3,0,1,,,,,,,,,0,,,51,106
67720,note_on,38,0,0,,,,,,,,,0,,,58,106
67755,note_on,36,0,1,,,,,,,,,0,,,51,0
67759,note_on,39,0,0,,,,,,,,,0,,,58,0
67759,note_on,4,0,1,,,,,,,,,0,,,39,107
67759,note_on,0,0,1,,,,,,,,,0,,,46,107
67759,note_on,0,0,1,,,,,,,,,0,,,43,107
67760,note_on,0,0,0,,,,,,,,,0,,,67,0
67760,note_on,1,0,0,,,,,,,,,0,,,63,107
67760,note_on,0,0,0,,,,,,,,,0,,,67,107
67795,note_on,0,0,1,,,,,,,,,0,,,43,0
67795,note_on,0,0,1,,,,,,,,,0,,,46,0
67795,note_on,36,0,1,,,,,,,,,0,,,39,0
67799,note_on,39,0,0,,,,,,,,,0,,,63,0
67799,note_on,4,0,1,,,,,,,,,0,,,51,108
67800,note_on,1,0,0,,,,,,,,,0,,,67,0
67800,note_on,0,0,0,,,,,,,,,0,,,70,108
67800,note_on,0,0,0,,,,,,,,,0,,,67,108
67835,note_on,36,0,1,,,,,,,,,0,,,51,0
67839,note_on,39,0,0,,,,,,,,,0,,,70,0
67839,note_on,0,0,1,,,,,,,,,0,,,46,109
67839,note_on,0,0,1,,,,,,,,,0,,,43,109
67839,note_on,4,0,1,,,,,,,,,0,,,39,109
67840,note_on,0,0,0,,,,,,,,,0,,,79,109
67840,note_on,1,0,0,,,,,,,,,0,,,75,109
67875,note_on,36,0,1,,,,,,,,,0,,,39,0
67875,note_on,0,0,1,,,,,,,,,0,,,43,0
67875,note_on,0,0,1,,,,,,,,,0,,,46,0
67879,note_on,4,0,1,,,,,,,,,0,,,51,110
67879,note_on,0,0,0,,,,,,,,,0,,,79,0
67879,note_on,39,0,0,,,,,,,,,0,,,75,0
67880,note_on,0,0,0,,,,,,,,,0,,,82,110
67880,note_on,1,0,0,,,,,,,,,0,,,79,110
67915,note_on,36,0,1,,,,,,,,,0,,,51,0
67919,note_on,4,0,1,,,,,,,,,0,,,39,111
67919,note_on,0,0,1,,,,,,,,,0,,,46,111
67919,note_on,0,0,1,,,,,,,,,0,,,43,111
67919,note_on,0,0,0,,,,,,,,,0,,,82,0
67919,note_on,39,0,0,,,,,,,,,0,,,79,0
67920,note_on,0,0,0,,,,,,,,,0,,,91,111
67920,note_on,1,0,0,,,,,,,,,0,,,87,111
67955,note_on,36,0,1,,,,,,,,,0,,,39,0
67955,note_on,0,0,1,,,,,,,,,0,,,46,0
67955,note_on,0,0,1,,,,,,,,,0,,,43,0
67958,note_on,3,0,1,,,,,,,,,0,,,51,112
67959,note_on,39,0,0,,,,,,,,,0,,,87,0
67959,note_on,0,0,0,,,,,,,,,0,,,91,0
67960,note_on,1,0,0,,,,,,,,,0,,,79,112
67960,note_on,0,0,0,,,,,,,,,0,,,82,112
67994,note_on,36,0,1,,,,,,,,,0,,,51,0
67998,note_on,0,0,1,,,,,,,,,0,,,43,113
67998,note_on,0,0,1,,,,,,,,,0,,,46,113
67998,note_on,4,0,1,,,,,,,,,0,,,39,113
67999,note_on,39,0,0,,,,,,,,,0,,,79,0
67999,note_on,0,0,0,,,,,,,,,0,,,82,0
68000,note_on,1,0,0,,,,,,,,,0,,,55,0
68000,note_on,0,0,0,,,,,,,,,0,,,87,113
68000,note_on,0,0,0,,,,,,,,,0,,,67,0
68000,note_on,0,0,0,,,,,,,,,0,,,91,113
68034,note_on,0,0,1,,,,,,,,,0,,,46,0
68034,note_on,0,0,1,,,,,,,,,0,,,43,0
68034,note_on,36,0,1,,,,,,,,,0,,,39,0
68038,note_on,4,0,1,,,,,,,,,0,,,51,114
68039,note_on,39,0,0,,,,,,,,,0,,,87,0
68039,note_on,0,0,0,,,,,,,,,0,,,91,0
68040,note_on,1,0,0,,,,,,,,,0,,,79,114
68040,note_on,0,0,0,,,,,,,,,0,,,82,114
68074,note_on,36,0,1,,,,,,,,,0,,,51,0
68078,note_on,4,0,1,,,,,,,,,0,,,39,115
68078,note_on,0,0,1,,,,,,,,,0,,,43,115
68078,note_on,0,0,1,,,,,,,,,0,,,46,115
68079,note_on,39,0,0,,,,,,,,,0,,,79,0
68079,note_on,0,0,0,,,,,,,,,0,,,82,0
68080,note_on,1,0,0,,,,,,,,,0,,,87,115
68080,note_on,0,0,0,,,,,,,,,0,,,91,115
68114,note_on,0,0,1,,,,,,,,,0,,,43,0
68114,note_on,0,0,1,,,,,,,,,0,,,46,0
68114,note_on,36,0,1,,,,,,,,,0,,,39,0
68117,note_on,37,0,0,,,,,,,,,0,,,87,0
68117,note_on,0,0,0,,,,,,,,,0,,,91,0
68118,note_on,4,0,1,,,,,,,,,0,,,51,115
68154,note_on,36,0,1,,,,,,,,,0,,,51,0
68160,note_on,0,0,0,,,,,,,,,0,,,55,127
68160,note_on,43,0,0,,,,,,,,,0,,,55,106
68160,note_on,0,0,0,,,,,,,,,0,,,67,127
68160,note_on,6,0,1,,,,,,,,,0,,,36,106
68160,note_on,0,0,1,,,,,,,,,0,,,39,106
68160,note_on,0,0,0,,,,,,,,,0,,,55,0
68160,note_on,0,0,1,,,,,,,,,0,,,43,106
68161,control_change,1,0,0,,,,,,,64,0,0,,,,
68162,control_change,1,0,0,,,,,,,64,127,0,,,,
68196,note_on,0,0,1,,,,,,,,,0,,,43,0
68196,note_on,36,0,1,,,,,,,,,0,,,36,0
68196,note_on,0,0,1,,,,,,,,,0,,,39,0
68199,note_on,3,0,1,,,,,,,,,0,,,48,106
68200,note_on,38,0,0,,,,,,,,,0,,,60,106
68235,note_on,36,0,1,,,,,,,,,0,,,48,0
68239,note_on,0,0,1,,,,,,,,,0,,,39,107
68239,note_on,0,0,1,,,,,,,,,0,,,43,107
68239,note_on,39,0,0,,,,,,,,,0,,,60,0
68239,note_on,4,0,1,,,,,,,,,0,,,36,107
68240,note_on,0,0,0,,,,,,,,,0,,,67,0
68240,note_on,0,0,0,,,,,,,,,0,,,67,107
68240,note_on,1,0,0,,,,,,,,,0,,,63,107
68275,note_on,0,0,1,,,,,,,,,0,,,43,0
68275,note_on,0,0,1,,,,,,,,,0,,,39,0
68275,note_on,36,0,1,,,,,,,,,0,,,36,0
68279,note_on,4,0,1,,,,,,,,,0,,,48,108
68279,note_on,39,0,0,,,,,,,,,0,,,63,0
68280,note_on,0,0,0,,,,,,,,,0,,,72,108
68280,note_on,1,0,0,,,,,,,,,0,,,67,0
68280,note_on,0,0,0,,,,,,,,,0,,,67,108
68315,note_on,36,0,1,,,,,,,,,0,,,48,0
68319,note_on,39,0,0,,,,,,,,,0,,,72,0
68319,note_on,4,0,1,,,,,,,,,0,,,36,109
68319,note_on,0,0,1,,,,,,,,,0,,,39,109
68319,note_on,0,0,1,,,,,,,,,0,,,43,109
68320,note_on,1,0,0,,,,,,,,,0,,,75,109
68320,note_on,0,0,0,,,,,,,,,0,,,79,109
68355,note_on,0,0,1,,,,,,,,,0,,,43,0
68355,note_on,0,0,1,,,,,,,,,0,,,39,0
68355,note_on,36,0,1,,,,,,,,,0,,,36,0
68359,note_on,4,0,1,,,,,,,,,0,,,48,110
68359,note_on,39,0,0,,,,,,,,,0,,,75,0
68359,note_on,0,0,0,,,,,,,,,0,,,79,0
68360,note_on,0,0,0,,,,,,,,,0,,,84,110
68360,note_on,1,0,0,,,,,,,,,0,,,79,110
68395,note_on,36,0,1,,,,,,,,,0,,,48,0
68399,note_on,4,0,1,,,,,,,,,0,,,36,111
68399,note_on,0,0,1,,,,,,,,,0,,,43,111
68399,note_on,39,0,0,,,,,,,,,0,,,79,0
68399,note_on,0,0,0,,,,,,,,,0,,,84,0
68399,note_on,0,0,1,,,,,,,,,0,,,39,111
68400,note_on,0,0,0,,,,,,,,,0,,,91,111
68400,note_on,1,0,0,,,,,,,,,0,,,87,111
68435,note_on,0,0,1,,,,,,,,,0,,,39,0
68435,note_on,36,0,1,,,,,,,,,0,,,36,0
68435,note_on,0,0,1,,,,,,,,,0,,,43,0
68438,note_on,3,0,1,,,,,,,,,0,,,48,112
68439,note_on,39,0,0,,,,,,,,,0,,,87,0
68439,note_on,0,0,0,,,,,,,,,0,,,91,0
68440,note_on,1,0,0,,,,,,,,,0,,,79,112
68440,note_on,0,0,0,,,,,,,,,0,,,84,112
68474,note_on,36,0,1,,,,,,,,,0,,,48,0
68478,note_on,4,0,1,,,,,,,,,0,,,36,113
68478,note_on,0,0,1,,,,,,,,,0,,,39,113
68478,note_on,0,0,1,,,,,,,,,0,,,43,113
68479,note_on,0,0,0,,,,,,,,,0,,,84,0
68479,note_on,39,0,0,,,,,,,,,0,,,79,0
68480,note_on,1,0,0,,,,,,,,,0,,,55,0
68480,note_on,0,0,0,,,,,,,,,0,,,87,113
68480,note_on,0,0,0,,,,,,,,,0,,,91,113
68480,note_on,0,0,0,,,,,,,,,0,,,67,0
68514,note_on,0,0,1,,,,,,,,,0,,,43,0
68514,note_on,36,0,1,,,,,,,,,0,,,36,0
68514,note_on,0,0,1,,,,,,,,,0,,,39,0
68518,note_on,4,0,1,,,,,,,,,0,,,48,114
68519,note_on,0,0,0,,,,,,,,,0,,,91,0
68519,note_on,39,0,0,,,,,,,,,0,,,87,0
68520,note_on,0,0,0,,,,,,,,,0,,,84,114
68520,note_on,1,0,0,,,,,,,,,0,,,79,114
68554,note_on,36,0,1,,,,,,,,,0,,,48,0
68558,note_on,0,0,1,,,,,,,,,0,,,39,115
68558,note_on,0,0,1,,,,,,,,,0,,,43,115
68558,note_on,4,0,1,,,,,,,,,0,,,36,115
68559,note_on,39,0,0,,,,,,,,,0,,,79,0
68559,note_on,0,0,0,,,,,,,,,0,,,84,0
68560,note_on,0,0,0,,,,,,,,,0,,,91,115
68560,note_on,1,0,0,,,,,,,,,0,,,87,115
68594,note_on,36,0,1,,,,,,,,,0,,,36,0
68594,note_on,0,0,1,,,,,,,,,0,,,43,0
68594,note_on,0,0,1,,,,,,,,,0,,,39,0
68597,note_on,37,0,0,,,,,,,,,0,,,87,0
68597,note_on,0,0,0,,,,,,,,,0,,,91,0
68598,note_on,4,0,1,,,,,,,,,0,,,48,115
68634,note_on,36,0,1,,,,,,,,,0,,,48,0
68640,note_on,0,0,1,,,,,,,,,0,,,36,106
68640,note_on,43,0,0,,,,,,,,,0,,,56,106
68640,note_on,0,0,0,,,,,,,,,0,,,56,0
68640,note_on,0,0,0,,,,,,,,,0,,,56,127
68640,note_on,0,0,0,,,,,,,,,0,,,68,127
68640,note_on,6,0,1,,,,,,,,,0,,,32,106
68640,note_on,0,0,1,,,,,,,,,0,,,39,106
68641,control_change,1,0,0,,,,,,,64,0,0,,,,
68642,control_change,1,0,0,,,,,,,64,127,0,,,,
68676,note_on,36,0,1,,,,,,,,,0,,,32,0
68676,note_on,0,0,1,,,,,,,,,0,,,39,0
68676,note_on,0,0,1,,,,,,,,,0,,,36,0
68679,note_on,3,0,1,,,,,,,,,0,,,44,106
68680,note_on,38,0,0,,,,,,,,,0,,,60,106
68715,note_on,36,0,1,,,,,,,,,0,,,44,0
68719,note_on,4,0,1,,,,,,,,,0,,,32,107
68719,note_on,39,0,0,,,,,,,,,0,,,60,0
68719,note_on,0,0,1,,,,,,,,,0,,,36,107
68719,note_on,0,0,1,,,,,,,,,0,,,39,107
68720,note_on,1,0,0,,,,,,,,,0,,,63,107
68720,note_on,0,0,0,,,,,,,,,0,,,68,0
68720,note_on,0,0,0,,,,,,,,,0,,,68,107
68755,note_on,36,0,1,,,,,,,,,0,,,32,0
68755,note_on,0,0,1,,,,,,,,,0,,,39,0
68755,note_on,0,0,1,,,,,,,,,0,,,36,0
68759,note_on,4,0,1,,,,,,,,,0,,,44,108
68759,note_on,39,0,0,,,,,,,,,0,,,63,0
68760,note_on,1,0,0,,,,,,,,,0,,,68,0
68760,note_on,0,0,0,,,,,,,,,0,,,68,108
68760,note_on,0,0,0,,,,,,,,,0,,,72,108
68795,note_on,36,0,1,,,,,,,,,0,,,44,0
68799,note_on,4,0,1,,,,,,,,,0,,,32,109
68799,note_on,39,0,0,,,,,,,,,0,,,72,0
68799,note_on,0,0,1,,,,,,,,,0,,,39,109
68799,note_on,0,0,1,,,,,,,,,0,,,36,109
68800,note_on,0,0,0,,,,,,,,,0,,,80,109
68800,note_on,1,0,0,,,,,,,,,0,,,75,109
68835,note_on,0,0,1,,,,,,,,,0,,,39,0
68835,note_on,36,0,1,,,,,,,,,0,,,32,0
68835,note_on,0,0,1,,,,,,,,,0,,,36,0
68839,note_on,4,0,1,,,,,,,,,0,,,44,110
68839,note_on,39,0,0,,,,,,,,,0,,,75,0
68839,note_on,0,0,0,,,,,,,,,0,,,80,0
68840,note_on,1,0,0,,,,,,,,,0,,,80,110
68840,note_on,0,0,0,,,,,,,,,0,,,84,110
68875,note_on,36,0,1,,,,,,,,,0,,,44,0
68879,note_on,4,0,1,,,,,,,,,0,,,32,111
68879,note_on,39,0,0,,,,,,,,,0,,,80,0
68879,note_on,0,0,1,,,,,,,,,0,,,39,111
68879,note_on,0,0,1,,,,,,,,,0,,,36,111
68879,note_on,0,0,0,,,,,,,,,0,,,84,0
68880,note_on,1,0,0,,,,,,,,,0,,,87,111
68880,note_on,0,0,0,,,,,,,,,0,,,92,111
68915,note_on,0,0,1,,,,,,,,,0,,,39,0
68915,note_on,0,0,1,,,,,,,,,0,,,36,0
68915,note_on,36,0,1,,,,,,,,,0,,,32,0
68918,note_on,3,0,1,,,,,,,,,0,,,44,112
68919,note_on,39,0,0,,,,,,,,,0,,,87,0
68919,note_on,0,0,0,,,,,,,,,0,,,92,0
68920,note_on,0,0,0,,,,,,,,,0,,,84,112
68920,note_on,1,0,0,,,,,,,,,0,,,80,112
68954,note_on,36,0,1,,,,,,,,,0,,,44,0
68958,note_on,4,0,1,,,,,,,,,0,,,32,113
68958,note_on,0,0,1,,,,,,,,,0,,,36,113
68958,note_on,0,0,1,,,,,,,,,0,,,39,113
68959,note_on,0,0,0,,,,,,,,,0,,,84,0
68959,note_on,39,0,0,,,,,,,,,0,,,80,0
68960,note_on,0,0,0,,,,,,,,,0,,,87,113
68960,note_on,1,0,0,,,,,,,,,0,,,56,0
68960,note_on,0,0,0,,,,,,,,,0,,,68,0
68960,note_on,0,0,0,,,,,,,,,0,,,92,113
68994,note_on,0,0,1,,,,,,,,,0,,,39,0
68994,note_on,0,0,1,,,,,,,,,0,,,36,0
68994,note_on,36,0,1,,,,,,,,,0,,,32,0
68998,note_on,4,0,1,,,,,,,,,0,,,44,114
68999,note_on,0,0,0,,,,,,,,,0,,,92,0
68999,note_on,39,0,0,,,,,,,,,0,,,87,0
69000,note_on,0,0,0,,,,,,,,,0,,,84,114
69000,note_on,1,0,0,,,,,,,,,0,,,80,114
69034,note_on,36,0,1,,,,,,,,,0,,,44,0
69038,note_on,0,0,1,,,,,,,,,0,,,39,115
69038,note_on,0,0,1,,,,,,,,,0,,,36,115
69038,note_on,4,0,1,,,,,,,,,0,,,32,115
69039,note_on,39,0,0,,,,,,,,,0,,,80,0
69039,note_on,0,0,0,,,,,,,,,0,,,84,0
69040,note_on,1,0,0,,,,,,,,,0,,,87,115
69040,note_on,0,0,0,,,,,,,,,0,,,92,115
69074,note_on,36,0,1,,,,,,,,,0,,,32,0
69074,note_on,0,0,1,,,,,,,,,0,,,39,0
69074,note_on,0,0,1,,,,,,,,,0,,,36,0
69077,note_on,0,0,0,,,,,,,,,0,,,92,0
69077,note_on,37,0,0,,,,,,,,,0,,,87,0
69078,note_on,4,0,1,,,,,,,,,0,,,44,115
69114,note_on,36,0,1,,,,,,,,,0,,,44,0
69120,note_on,0,0,1,,,,,,,,,0,,,34,106
69120,note_on,0,0,1,,,,,,,,,0,,,31,106
69120,note_on,0,0,0,,,,,,,,,0,,,58,0
69120,note_on,0,0,0,,,,,,,,,0,,,58,127
69120,note_on,0,0,0,,,,,,,,,0,,,70,127
69120,note_on,43,0,0,,,,,,,,,0,,,58,106
69120,note_on,6,0,1,,,,,,,,,0,,,27,106
69121,control_change,1,0,0,,,,,,,64,0,0,,,,
69122,control_change,1,0,0,,,,,,,64,127,0,,,,
69156,note_on,36,0,1,,,,,,,,,0,,,27,0
69156,note_on,0,0,1,,,,,,,,,0,,,31,0
69156,note_on,0,0,1,,,,,,,,,0,,,34,0
69159,note_on,3,0,1,,,,,,,,,0,,,39,106
69160,note_on,38,0,0,,,,,,,,,0,,,63,106
69195,note_on,36,0,1,,,,,,,,,0,,,39,0
69199,note_on,4,0,1,,,,,,,,,0,,,27,107
69199,note_on,0,0,1,,,,,,,,,0,,,31,107
69199,note_on,0,0,1,,,,,,,,,0,,,34,107
69199,note_on,39,0,0,,,,,,,,,0,,,63,0
69200,note_on,0,0,0,,,,,,,,,0,,,70,0
69200,note_on,0,0,0,,,,,,,,,0,,,70,107
69200,note_on,1,0,0,,,,,,,,,0,,,67,107
69235,note_on,0,0,1,,,,,,,,,0,,,31,0
69235,note_on,0,0,1,,,,,,,,,0,,,34,0
69235,note_on,36,0,1,,,,,,,,,0,,,27,0
69239,note_on,39,0,0,,,,,,,,,0,,,67,0
69239,note_on,4,0,1,,,,,,,,,0,,,39,108
69240,note_on,0,0,0,,,,,,,,,0,,,75,108
69240,note_on,0,0,0,,,,,,,,,0,,,70,108
69240,note_on,1,0,0,,,,,,,,,0,,,70,0
69275,note_on,36,0,1,,,,,,,,,0,,,39,0
69279,note_on,4,0,1,,,,,,,,,0,,,27,109
69279,note_on,0,0,1,,,,,,,,,0,,,34,109
69279,note_on,39,0,0,,,,,,,,,0,,,75,0
69279,note_on,0,0,1,,,,,,,,,0,,,31,109
69280,note_on,1,0,0,,,,,,,,,0,,,79,109
69280,note_on,0,0,0,,,,,,,,,0,,,82,109
69315,note_on,0,0,1,,,,,,,,,0,,,31,0
69315,note_on,0,0,1,,,,,,,,,0,,,34,0
69315,note_on,36,0,1,,,,,,,,,0,,,27,0
69319,note_on,4,0,1,,,,,,,,,0,,,39,110
69319,note_on,0,0,0,,,,,,,,,0,,,82,0
69319,note_on,39,0,0,,,,,,,,,0,,,79,0
69320,note_on,1,0,0,,,,,,,,,0,,,82,110
69320,note_on,0,0,0,,,,,,,,,0,,,87,110
69355,note_on,36,0,1,,,,,,,,,0,,,39,0
69359,note_on,4,0,1,,,,,,,,,0,,,27,110
69359,note_on,0,0,0,,,,,,,,,0,,,87,0
69359,note_on,0,0,1,,,,,,,,,0,,,31,110
69359,note_on,0,0,1,,,,,,,,,0,,,34,110
69359,note_on,39,0,0,,,,,,,,,0,,,82,0
69360,note_on,0,0,0,,,,,,,,,0,,,94,111
69360,note_on,1,0,0,,,,,,,,,0,,,91,111
69395,note_on,0,0,1,,,,,,,,,0,,,31,0
69395,note_on,36,0,1,,,,,,,,,0,,,27,0
69395,note_on,0,0,1,,,,,,,,,0,,,34,0
69398,note_on,3,0,1,,,,,,,,,0,,,39,111
69399,note_on,0,0,0,,,,,,,,,0,,,94,0
69399,note_on,39,0,0,,,,,,,,,0,,,91,0
69400,note_on,0,0,0,,,,,,,,,0,,,87,111
69400,note_on,1,0,0,,,,,,,,,0,,,82,111
69434,note_on,36,0,1,,,,,,,,,0,,,39,0
69438,note_on,4,0,1,,,,,,,,,0,,,27,112
69438,note_on,0,0,1,,,,,,,,,0,,,31,112
69438,note_on,0,0,1,,,,,,,,,0,,,34,112
69439,note_on,39,0,0,,,,,,,,,0,,,82,0
69439,note_on,0,0,0,,,,,,,,,0,,,87,0
69440,note_on,1,0,0,,,,,,,,,0,,,58,0
69440,note_on,0,0,0,,,,,,,,,0,,,70,0
69440,note_on,0,0,0,,,,,,,,,0,,,91,112
69440,note_on,0,0,0,,,,,,,,,0,,,94,112
69474,note_on,0,0,1,,,,,,,,,0,,,31,0
69474,note_on,0,0,1,,,,,,,,,0,,,34,0
69474,note_on,36,0,1,,,,,,,,,0,,,27,0
69478,note_on,4,0,1,,,,,,,,,0,,,39,113
69479,note_on,0,0,0,,,,,,,,,0,,,94,0
69479,note_on,39,0,0,,,,,,,,,0,,,91,0
69480,note_on,1,0,0,,,,,,,,,0,,,82,113
69480,note_on,0,0,0,,,,,,,,,0,,,87,113
69514,note_on,36,0,1,,,,,,,,,0,,,39,0
69518,note_on,0,0,1,,,,,,,,,0,,,31,114
69518,note_on,4,0,1,,,,,,,,,0,,,27,114
69518,note_on,0,0,1,,,,,,,,,0,,,34,114
69519,note_on,39,0,0,,,,,,,,,0,,,82,0
69519,note_on,0,0,0,,,,,,,,,0,,,87,0
69520,note_on,1,0,0,,,,,,,,,0,,,91,114
69520,note_on,0,0,0,,,,,,,,,0,,,94,114
69554,note_on,0,0,1,,,,,,,,,0,,,31,0
69554,note_on,36,0,1,,,,,,,,,0,,,27,0
69554,note_on,0,0,1,,,,,,,,,0,,,34,0
69558,note_on,4,0,1,,,,,,,,,0,,,39,115
69559,note_on,39,0,0,,,,,,,,,0,,,91,0
69559,note_on,0,0,0,,,,,,,,,0,,,94,0
69560,note_on,0,0,0,,,,,,,,,0,,,87,115
69560,note_on,1,0,0,,,,,,,,,0,,,82,115
69594,note_on,36,0,1,,,,,,,,,0,,,39,0
69599,note_on,39,0,0,,,,,,,,,0,,,82,0
69599,note_on,0,0,0,,,,,,,,,0,,,87,0
69600,note_on,0,0,0,,,,,,,,,0,,,94,116
69600,note_on,1,0,0,,,,,,,,,0,,,91,116
69600,note_on,6,0,1,,,,,,,,,0,,,27,116
69615,note_on,15,0,1,,,,,,,,,0,,,31,116
69631,note_on,16,0,1,,,,,,,,,0,,,34,116
69638,note_on,38,0,0,,,,,,,,,0,,,91,0
69638,note_on,0,0,0,,,,,,,,,0,,,94,0
69639,note_on,1,0,0,,,,,,,,,0,,,82,116
69639,note_on,0,0,0,,,,,,,,,0,,,87,116
69647,note_on,16,0,1,,,,,,,,,0,,,39,116
69677,note_on,0,0,0,,,,,,,,,0,,,87,0
69677,note_on,38,0,0,,,,,,,,,0,,,82,0
69679,note_on,2,0,0,,,,,,,,,0,,,91,116
69679,note_on,0,0,0,,,,,,,,,0,,,94,116
69717,note_on,0,0,0,,,,,,,,,0,,,94,0
69717,note_on,38,0,0,,,,,,,,,0,,,91,0
69719,note_on,2,0,0,,,,,,,,,0,,,82,116
69719,note_on,0,0,0,,,,,,,,,0,,,87,116
69757,note_on,38,0,0,,,,,,,,,0,,,82,0
69757,note_on,0,0,0,,,,,,,,,0,,,87,0
69759,note_on,2,0,0,,,,,,,,,0,,,91,116
69759,note_on,0,0,0,,,,,,,,,0,,,94,116
69797,note_on,38,0,0,,,,,,,,,0,,,91,0
69797,note_on,0,0,0,,,,,,,,,0,,,94,0
69799,note_on,2,0,0,,,,,,,,,0,,,82,116
69799,note_on,0,0,0,,,,,,,,,0,,,87,116
69837,note_on,0,0,0,,,,,,,,,0,,,87,0
69837,note_on,38,0,0,,,,,,,,,0,,,82,0
69838,note_on,191,0,1,,,,,,,,,0,,,31,0
69838,note_on,0,0,1,,,,,,,,,0,,,34,0
69838,note_on,0,0,1,,,,,,,,,0,,,39,0
69839,note_on,1,0,1,,,,,,,,,0,,,27,0
69839,note_on,2,0,0,,,,,,,,,0,,,91,116
69839,note_on,0,0,0,,,,,,,,,0,,,94,116
69840,note_on,0,0,1,,,,,,,,,0,,,70,127
69840,note_on,1,0,1,,,,,,,,,0,,,58,127
69841,control_change,1,0,1,,,,,,,64,0,0,,,,
69842,control_change,1,0,1,,,,,,,64,127,0,,,,
69877,note_on,0,0,0,,,,,,,,,0,,,94,0
69877,note_on,38,0,0,,,,,,,,,0,,,91,0
69878,note_on,0,0,0,,,,,,,,,0,,,87,116
69878,note_on,1,0,0,,,,,,,,,0,,,82,116
69916,note_on,38,0,0,,,,,,,,,0,,,82,0
69916,note_on,0,0,0,,,,,,,,,0,,,87,0
69918,note_on,2,0,0,,,,,,,,,0,,,91,116
69918,note_on,0,0,0,,,,,,,,,0,,,94,116
69956,note_on,38,0,0,,,,,,,,,0,,,91,0
69956,note_on,0,0,0,,,,,,,,,0,,,94,0
69958,note_on,0,0,0,,,,,,,,,0,,,87,116
69958,note_on,2,0,0,,,,,,,,,0,,,82,116
69959,note_on,0,0,1,,,,,,,,,0,,,70,0
69959,note_on,117,0,1,,,,,,,,,0,,,58,0
69996,note_on,38,0,0,,,,,,,,,0,,,82,0
69996,note_on,0,0,0,,,,,,,,,0,,,87,0
69998,note_on,2,0,0,,,,,,,,,0,,,91,116
69998,note_on,0,0,0,,,,,,,,,0,,,94,116
70020,note_on,0,0,1,,,,,,,,,0,,,70,127
70020,note_on,61,0,1,,,,,,,,,0,,,58,127
70036,note_on,0,0,0,,,,,,,,,0,,,94,0
70036,note_on,38,0,0,,,,,,,,,0,,,91,0
70038,note_on,2,0,0,,,,,,,,,0,,,82,116
70038,note_on,0,0,0,,,,,,,,,0,,,87,116
70059,note_on,39,0,1,,,,,,,,,0,,,58,0
70059,note_on,0,0,1,,,,,,,,,0,,,70,0
70076,note_on,0,0,0,,,,,,,,,0,,,87,0
70076,note_on,38,0,0,,,,,,,,,0,,,82,0
70078,note_on,2,0,0,,,,,,,,,0,,,91,116
70078,note_on,0,0,0,,,,,,,,,0,,,94,116
70080,note_on,21,0,1,,,,,,,,,0,,,58,127
70080,note_on,0,0,1,,,,,,,,,0,,,70,127
70116,note_on,38,0,0,,,,,,,,,0,,,91,0
70116,note_on,0,0,0,,,,,,,,,0,,,94,0
70117,note_on,1,0,0,,,,,,,,,0,,,82,116
70117,note_on,0,0,0,,,,,,,,,0,,,87,116
70155,note_on,38,0,0,,,,,,,,,0,,,82,0
70155,note_on,0,0,0,,,,,,,,,0,,,87,0
70157,note_on,0,0,0,,,,,,,,,0,,,94,116
70157,note_on,2,0,0,,,,,,,,,0,,,91,116
70195,note_on,0,0,0,,,,,,,,,0,,,94,0
70195,note_on,38,0,0,,,,,,,,,0,,,91,0
70197,note_on,0,0,0,,,,,,,,,0,,,87,116
70197,note_on,2,0,0,,,,,,,,,0,,,82,116
70235,note_on,38,0,0,,,,,,,,,0,,,82,0
70235,note_on,0,0,0,,,,,,,,,0,,,87,0
70237,note_on,2,0,0,,,,,,,,,0,,,91,116
70237,note_on,0,0,0,,,,,,,,,0,,,94,116
70239,note_on,0,0,1,,,,,,,,,0,,,70,0
70239,note_on,159,0,1,,,,,,,,,0,,,58,0
70275,note_on,0,0,0,,,,,,,,,0,,,94,0
70275,note_on,38,0,0,,,,,,,,,0,,,91,0
70277,note_on,0,0,0,,,,,,,,,0,,,87,116
70277,note_on,2,0,0,,,,,,,,,0,,,82,116
70315,note_on,38,0,0,,,,,,,,,0,,,82,0
70315,note_on,0,0,0,,,,,,,,,0,,,87,0
70317,note_on,2,0,0,,,,,,,,,0,,,91,116
70317,note_on,0,0,0,,,,,,,,,0,,,94,116
70320,note_on,81,0,1,,,,,,,,,0,,,58,127
70320,note_on,0,0,1,,,,,,,,,0,,,70,127
70355,note_on,0,0,0,,,,,,,,,0,,,94,0
70355,note_on,38,0,0,,,,,,,,,0,,,91,0
70356,note_on,0,0,0,,,,,,,,,0,,,87,116
70356,note_on,1,0,0,,,,,,,,,0,,,82,116
70394,note_on,0,0,0,,,,,,,,,0,,,87,0
70394,note_on,38,0,0,,,,,,,,,0,,,82,0
70396,note_on,2,0,0,,,,,,,,,0,,,91,116
70396,note_on,0,0,0,,,,,,,,,0,,,94,116
70434,note_on,38,0,0,,,,,,,,,0,,,91,0
70434,note_on,0,0,0,,,,,,,,,0,,,94,0
70436,note_on,2,0,0,,,,,,,,,0,,,82,116
70436,note_on,0,0,0,,,,,,,,,0,,,87,116
70474,note_on,0,0,0,,,,,,,,,0,,,87,0
70474,note_on,38,0,0,,,,,,,,,0,,,82,0
70476,note_on,2,0,0,,,,,,,,,0,,,91,116
70476,note_on,0,0,0,,,,,,,,,0,,,94,116
70479,note_on,159,0,1,,,,,,,,,0,,,58,0
70479,note_on,0,0,1,,,,,,,,,0,,,70,0
70514,note_on,38,0,0,,,,,,,,,0,,,91,0
70514,note_on,0,0,0,,,,,,,,,0,,,94,0
70516,note_on,2,0,0,,,,,,,,,0,,,82,116
70516,note_on,0,0,0,,,,,,,,,0,,,87,116
70554,note_on,38,0,0,,,,,,,,,0,,,82,0
70554,note_on,0,0,0,,,,,,,,,0,,,87,0
70560,note_on,6,0,0,,,,,,,,,0,,,58,116
70560,note_on,0,0,0,,,,,,,,,0,,,70,127
70560,note_on,0,0,0,,,,,,,,,0,,,58,127
70560,note_on,0,0,1,,,,,,,,,0,,,46,116
70560,note_on,0,0,0,,,,,,,,,0,,,58,0
70560,note_on,81,0,1,,,,,,,,,0,,,42,116
70560,note_on,0,0,1,,,,,,,,,0,,,49,116
70561,control_change,1,0,1,,,,,,,64,0,0,,,,
70562,control_change,2,0,0,,,,,,,64,127,0,,,,
70596,note_on,0,0,1,,,,,,,,,0,,,49,0
70596,note_on,35,0,1,,,,,,,,,0,,,42,0
70596,note_on,0,0,1,,,,,,,,,0,,,46,0
70599,note_on,3,0,1,,,,,,,,,0,,,54,116
70600,note_on,38,0,0,,,,,,,,,0,,,61,116
70635,note_on,36,0,1,,,,,,,,,0,,,54,0
70639,note_on,0,0,1,,,,,,,,,0,,,46,116
70639,note_on,39,0,0,,,,,,,,,0,,,61,0
70639,note_on,4,0,1,,,,,,,,,0,,,42,116
70639,note_on,0,0,1,,,,,,,,,0,,,49,116
70640,note_on,1,0,0,,,,,,,,,0,,,66,116
70640,note_on,0,0,0,,,,,,,,,0,,,70,116
70640,note_on,0,0,0,,,,,,,,,0,,,70,0
70675,note_on,0,0,1,,,,,,,,,0,,,46,0
70675,note_on,0,0,1,,,,,,,,,0,,,49,0
70675,note_on,36,0,1,,,,,,,,,0,,,42,0
70679,note_on,39,0,0,,,,,,,,,0,,,66,0
70679,note_on,4,0,1,,,,,,,,,0,,,54,116
70680,note_on,0,0,0,,,,,,,,,0,,,73,116
70680,note_on,0,0,0,,,,,,,,,0,,,70,116
70680,note_on,1,0,0,,,,,,,,,0,,,70,0
70715,note_on,36,0,1,,,,,,,,,0,,,54,0
70719,note_on,0,0,1,,,,,,,,,0,,,46,116
70719,note_on,0,0,1,,,,,,,,,0,,,49,116
70719,note_on,4,0,1,,,,,,,,,0,,,42,116
70719,note_on,39,0,0,,,,,,,,,0,,,73,0
70720,note_on,1,0,0,,,,,,,,,0,,,78,116
70720,note_on,0,0,0,,,,,,,,,0,,,82,116
70755,note_on,0,0,1,,,,,,,,,0,,,46,0
70755,note_on,36,0,1,,,,,,,,,0,,,42,0
70755,note_on,0,0,1,,,,,,,,,0,,,49,0
70759,note_on,0,0,0,,,,,,,,,0,,,82,0
70759,note_on,4,0,1,,,,,,,,,0,,,54,116
70759,note_on,39,0,0,,,,,,,,,0,,,78,0
70760,note_on,0,0,0,,,,,,,,,0,,,85,116
70760,note_on,1,0,0,,,,,,,,,0,,,82,116
70795,note_on,36,0,1,,,,,,,,,0,,,54,0
70799,note_on,39,0,0,,,,,,,,,0,,,82,0
70799,note_on,0,0,0,,,,,,,,,0,,,85,0
70799,note_on,4,0,1,,,,,,,,,0,,,42,116
70799,note_on,0,0,1,,,,,,,,,0,,,49,116
70799,note_on,0,0,1,,,,,,,,,0,,,46,116
70800,note_on,0,0,0,,,,,,,,,0,,,94,116
70800,note_on,1,0,0,,,,,,,,,0,,,90,116
70835,note_on,0,0,1,,,,,,,,,0,,,49,0
70835,note_on,36,0,1,,,,,,,,,0,,,42,0
70835,note_on,0,0,1,,,,,,,,,0,,,46,0
70838,note_on,3,0,1,,,,,,,,,0,,,54,116
70839,note_on,39,0,0,,,,,,,,,0,,,90,0
70839,note_on,0,0,0,,,,,,,,,0,,,94,0
70840,note_on,1,0,0,,,,,,,,,0,,,82,116
70840,note_on,0,0,0,,,,,,,,,0,,,85,116
70874,note_on,36,0,1,,,,,,,,,0,,,54,0
70878,note_on,0,0,1,,,,,,,,,0,,,46,116
70878,note_on,0,0,1,,,,,,,,,0,,,49,116
70878,note_on,4,0,1,,,,,,,,,0,,,42,116
70879,note_on,0,0,0,,,,,,,,,0,,,85,0
70879,note_on,39,0,0,,,,,,,,,0,,,82,0
70880,note_on,0,0,0,,,,,,,,,0,,,94,116
70880,note_on,1,0,0,,,,,,,,,0,,,58,0
70880,note_on,0,0,0,,,,,,,,,0,,,90,116
70880,note_on,0,0,0,,,,,,,,,0,,,70,0
70914,note_on,36,0,1,,,,,,,,,0,,,42,0
70914,note_on,0,0,1,,,,,,,,,0,,,46,0
70914,note_on,0,0,1,,,,,,,,,0,,,49,0
70918,note_on,4,0,1,,,,,,,,,0,,,54,116
70919,note_on,39,0,0,,,,,,,,,0,,,90,0
70919,note_on,0,0,0,,,,,,,,,0,,,94,0
70920,note_on,1,0,0,,,,,,,,,0,,,82,116
70920,note_on,0,0,0,,,,,,,,,0,,,85,116
70954,note_on,36,0,1,,,,,,,,,0,,,54,0
70958,note_on,0,0,1,,,,,,,,,0,,,49,116
70958,note_on,4,0,1,,,,,,,,,0,,,42,116
70958,note_on,0,0,1,,,,,,,,,0,,,46,116
70959,note_on,0,0,0,,,,,,,,,0,,,85,0
70959,note_on,39,0,0,,,,,,,,,0,,,82,0
70960,note_on,1,0,0,,,,,,,,,0,,,90,116
70960,note_on,0,0,0,,,,,,,,,0,,,94,116
70994,note_on,36,0,1,,,,,,,,,0,,,42,0
70994,note_on,0,0,1,,,,,,,,,0,,,49,0
70994,note_on,0,0,1,,,,,,,,,0,,,46,0
70997,note_on,37,0,0,,,,,,,,,0,,,90,0
70997,note_on,0,0,0,,,,,,,,,0,,,94,0
70998,note_on,4,0,1,,,,,,,,,0,,,54,116
71034,note_on,36,0,1,,,,,,,,,0,,,54,0
71040,note_on,6,0,1,,,,,,,,,0,,,39,116
71040,note_on,0,0,0,,,,,,,,,0,,,70,127
71040,note_on,0,0,0,,,,,,,,,0,,,58,127
71040,note_on,0,0,1,,,,,,,,,0,,,42,116
71040,note_on,0,0,1,,,,,,,,,0,,,46,116
71040,note_on,43,0,0,,,,,,,,,0,,,58,116
71040,note_on,0,0,0,,,,,,,,,0,,,58,0
71041,control_change,1,0,0,,,,,,,64,0,0,,,,
71042,control_change,1,0,0,,,,,,,64,127,0,,,,
71076,note_on,0,0,1,,,,,,,,,0,,,42,0
71076,note_on,36,0,1,,,,,,,,,0,,,39,0
71076,note_on,0,0,1,,,,,,,,,0,,,46,0
71079,note_on,3,0,1,,,,,,,,,0,,,51,116
71080,note_on,38,0,0,,,,,,,,,0,,,63,116
71115,note_on,36,0,1,,,,,,,,,0,,,51,0
71119,note_on,0,0,1,,,,,,,,,0,,,46,116
71119,note_on,39,0,0,,,,,,,,,0,,,63,0
71119,note_on,0,0,1,,,,,,,,,0,,,42,116
71119,note_on,4,0,1,,,,,,,,,0,,,39,116
71120,note_on,0,0,0,,,,,,,,,0,,,70,116
71120,note_on,0,0,0,,,,,,,,,0,,,70,0
71120,note_on,1,0,0,,,,,,,,,0,,,66,116
71155,note_on,0,0,1,,,,,,,,,0,,,42,0
71155,note_on,0,0,1,,,,,,,,,0,,,46,0
71155,note_on,36,0,1,,,,,,,,,0,,,39,0
71159,note_on,4,0,1,,,,,,,,,0,,,51,116
71159,note_on,39,0,0,,,,,,,,,0,,,66,0
71160,note_on,0,0,0,,,,,,,,,0,,,70,116
71160,note_on,0,0,0,,,,,,,,,0,,,75,116
71160,note_on,1,0,0,,,,,,,,,0,,,70,0
71195,note_on,36,0,1,,,,,,,,,0,,,51,0
71199,note_on,39,0,0,,,,,,,,,0,,,75,0
71199,note_on,4,0,1,,,,,,,,,0,,,39,116
71199,note_on,0,0,1,,,,,,,,,0,,,46,116
71199,note_on,0,0,1,,,,,,,,,0,,,42,116
71200,note_on,0,0,0,,,,,,,,,0,,,82,116
71200,note_on,1,0,0,,,,,,,,,0,,,78,116
71235,note_on,0,0,1,,,,,,,,,0,,,46,0
71235,note_on,0,0,1,,,,,,,,,0,,,42,0
71235,note_on,36,0,1,,,,,,,,,0,,,39,0
71239,note_on,39,0,0,,,,,,,,,0,,,78,0
71239,note_on,4,0,1,,,,,,,,,0,,,51,116
71239,note_on,0,0,0,,,,,,,,,0,,,82,0
71240,note_on,1,0,0,,,,,,,,,0,,,82,116
71240,note_on,0,0,0,,,,,,,,,0,,,87,116
71275,note_on,36,0,1,,,,,,,,,0,,,51,0
71279,note_on,39,0,0,,,,,,,,,0,,,82,0
71279,note_on,4,0,1,,,,,,,,,0,,,39,116
71279,note_on,0,0,1,,,,,,,,,0,,,42,116
71279,note_on,0,0,1,,,,,,,,,0,,,46,116
71279,note_on,0,0,0,,,,,,,,,0,,,87,0
71280,note_on,0,0,0,,,,,,,,,0,,,94,116
71280,note_on,1,0,0,,,,,,,,,0,,,90,116
71315,note_on,36,0,1,,,,,,,,,0,,,39,0
71315,note_on,0,0,1,,,,,,,,,0,,,46,0
71315,note_on,0,0,1,,,,,,,,,0,,,42,0
71318,note_on,3,0,1,,,,,,,,,0,,,51,116
71319,note_on,39,0,0,,,,,,,,,0,,,90,0
71319,note_on,0,0,0,,,,,,,,,0,,,94,0
71320,note_on,0,0,0,,,,,,,,,0,,,87,116
71320,note_on,1,0,0,,,,,,,,,0,,,82,116
71354,note_on,36,0,1,,,,,,,,,0,,,51,0
71358,note_on,4,0,1,,,,,,,,,0,,,39,116
71358,note_on,0,0,1,,,,,,,,,0,,,46,116
71358,note_on,0,0,1,,,,,,,,,0,,,42,116
71359,note_on,0,0,0,,,,,,,,,0,,,87,0
71359,note_on,39,0,0,,,,,,,,,0,,,82,0
71360,note_on,0,0,0,,,,,,,,,0,,,70,0
71360,note_on,1,0,0,,,,,,,,,0,,,58,0
71360,note_on,0,0,0,,,,,,,,,0,,,90,116
71360,note_on,0,0,0,,,,,,,,,0,,,94,116
71394,note_on,0,0,1,,,,,,,,,0,,,42,0
71394,note_on,0,0,1,,,,,,,,,0,,,46,0
71394,note_on,36,0,1,,,,,,,,,0,,,39,0
71398,note_on,4,0,1,,,,,,,,,0,,,51,116
71399,note_on,39,0,0,,,,,,,,,0,,,90,0
71399,note_on,0,0,0,,,,,,,,,0,,,94,0
71400,note_on,0,0,0,,,,,,,,,0,,,87,116
71400,note_on,1,0,0,,,,,,,,,0,,,82,116
71434,note_on,36,0,1,,,,,,,,,0,,,51,0
71438,note_on,4,0,1,,,,,,,,,0,,,39,116
71438,note_on,0,0,1,,,,,,,,,0,,,42,116
71438,note_on,0,0,1,,,,,,,,,0,,,46,116
71439,note_on,39,0,0,,,,,,,,,0,,,82,0
71439,note_on,0,0,0,,,,,,,,,0,,,87,0
71440,note_on,1,0,0,,,,,,,,,0,,,90,116
71440,note_on,0,0,0,,,,,,,,,0,,,94,116
71474,note_on,36,0,1,,,,,,,,,0,,,39,0
71474,note_on,0,0,1,,,,,,,,,0,,,42,0
71474,note_on,0,0,1,,,,,,,,,0,,,46,0
71477,note_on,0,0,0,,,,,,,,,0,,,94,0
71477,note_on,37,0,0,,,,,,,,,0,,,90,0
71478,note_on,4,0,1,,,,,,,,,0,,,51,116
71514,note_on,36,0,1,,,,,,,,,0,,,51,0
71520,note_on,0,0,0,,,,,,,,,0,,,71,127
71520,note_on,0,0,0,,,,,,,,,0,,,59,0
71520,note_on,0,0,1,,,,,,,,,0,,,39,116
71520,note_on,0,0,1,,,,,,,,,0,,,42,116
71520,note_on,43,0,0,,,,,,,,,0,,,59,116
71520,note_on,6,0,1,,,,,,,,,0,,,35,116
71520,note_on,0,0,0,,,,,,,,,0,,,59,127
71521,control_change,1,0,0,,,,,,,64,0,0,,,,
71522,control_change,1,0,0,,,,,,,64,127,0,,,,
71556,note_on,0,0,1,,,,,,,,,0,,,39,0
71556,note_on,36,0,1,,,,,,,,,0,,,35,0
71556,note_on,0,0,1,,,,,,,,,0,,,42,0
71559,note_on,3,0,1,,,,,,,,,0,,,47,116
71560,note_on,38,0,0,,,,,,,,,0,,,63,116
71595,note_on,36,0,1,,,,,,,,,0,,,47,0
71599,note_on,4,0,1,,,,,,,,,0,,,35,116
71599,note_on,39,0,0,,,,,,,,,0,,,63,0
71599,note_on,0,0,1,,,,,,,,,0,,,42,116
71599,note_on,0,0,1,,,,,,,,,0,,,39,116
71600,note_on,0,0,0,,,,,,,,,0,,,71,0
71600,note_on,0,0,0,,,,,,,,,0,,,71,116
71600,note_on,1,0,0,,,,,,,,,0,,,66,116
71635,note_on,36,0,1,,,,,,,,,0,,,35,0
71635,note_on,0,0,1,,,,,,,,,0,,,42,0
71635,note_on,0,0,1,,,,,,,,,0,,,39,0
71639,note_on,4,0,1,,,,,,,,,0,,,47,116
71639,note_on,39,0,0,,,,,,,,,0,,,66,0
71640,note_on,1,0,0,,,,,,,,,0,,,71,0
71640,note_on,0,0,0,,,,,,,,,0,,,75,116
71640,note_on,0,0,0,,,,,,,,,0,,,71,116
71675,note_on,36,0,1,,,,,,,,,0,,,47,0
71679,note_on,0,0,1,,,,,,,,,0,,,39,116
71679,note_on,4,0,1,,,,,,,,,0,,,35,116
71679,note_on,39,0,0,,,,,,,,,0,,,75,0
71679,note_on,0,0,1,,,,,,,,,0,,,42,116
71680,note_on,1,0,0,,,,,,,,,0,,,78,116
71680,note_on,0,0,0,,,,,,,,,0,,,83,116
71715,note_on,0,0,1,,,,,,,,,0,,,39,0
71715,note_on,0,0,1,,,,,,,,,0,,,42,0
71715,note_on,36,0,1,,,,,,,,,0,,,35,0
71719,note_on,4,0,1,,,,,,,,,0,,,47,116
71719,note_on,39,0,0,,,,,,,,,0,,,78,0
71719,note_on,0,0,0,,,,,,,,,0,,,83,0
71720,note_on,1,0,0,,,,,,,,,0,,,83,116
71720,note_on,0,0,0,,,,,,,,,0,,,87,116
71755,note_on,36,0,1,,,,,,,,,0,,,47,0
71759,note_on,0,0,1,,,,,,,,,0,,,42,116
71759,note_on,39,0,0,,,,,,,,,0,,,83,0
71759,note_on,0,0,0,,,,,,,,,0,,,87,0
71759,note_on,4,0,1,,,,,,,,,0,,,35,116
71759,note_on,0,0,1,,,,,,,,,0,,,39,116
71760,note_on,1,0,0,,,,,,,,,0,,,90,116
71760,note_on,0,0,0,,,,,,,,,0,,,95,116
71795,note_on,0,0,1,,,,,,,,,0,,,39,0
71795,note_on,36,0,1,,,,,,,,,0,,,35,0
71795,note_on,0,0,1,,,,,,,,,0,,,42,0
71798,note_on,3,0,1,,,,,,,,,0,,,47,116
71799,note_on,39,0,0,,,,,,,,,0,,,90,0
71799,note_on,0,0,0,,,,,,,,,0,,,95,0
71800,note_on,0,0,0,,,,,,,,,0,,,87,116
71800,note_on,1,0,0,,,,,,,,,0,,,83,116
71834,note_on,36,0,1,,,,,,,,,0,,,47,0
71838,note_on,0,0,1,,,,,,,,,0,,,42,116
71838,note_on,4,0,1,,,,,,,,,0,,,35,116
71838,note_on,0,0,1,,,,,,,,,0,,,39,116
71839,note_on,39,0,0,,,,,,,,,0,,,83,0
71839,note_on,0,0,0,,,,,,,,,0,,,87,0
71840,note_on,1,0,0,,,,,,,,,0,,,59,0
71840,note_on,0,0,0,,,,,,,,,0,,,95,116
71840,note_on,0,0,0,,,,,,,,,0,,,90,116
71840,note_on,0,0,0,,,,,,,,,0,,,71,0
71874,note_on,0,0,1,,,,,,,,,0,,,42,0
71874,note_on,36,0,1,,,,,,,,,0,,,35,0
71874,note_on,0,0,1,,,,,,,,,0,,,39,0
71878,note_on,4,0,1,,,,,,,,,0,,,47,116
71879,note_on,0,0,0,,,,,,,,,0,,,95,0
71879,note_on,39,0,0,,,,,,,,,0,,,90,0
71880,note_on,1,0,0,,,,,,,,,0,,,83,116
71880,note_on,0,0,0,,,,,,,,,0,,,87,116
71914,note_on,36,0,1,,,,,,,,,0,,,47,0
71918,note_on,0,0,1,,,,,,,,,0,,,42,116
71918,note_on,0,0,1,,,,,,,,,0,,,39,116
71918,note_on,4,0,1,,,,,,,,,0,,,35,116
71919,note_on,39,0,0,,,,,,,,,0,,,83,0
71919,note_on,0,0,0,,,,,,,,,0,,,87,0
71920,note_on,0,0,0,,,,,,,,,0,,,95,116
71920,note_on,1,0,0,,,,,,,,,0,,,90,116
71954,note_on,0,0,1,,,,,,,,,0,,,39,0
71954,note_on,0,0,1,,,,,,,,,0,,,42,0
71954,note_on,36,0,1,,,,,,,,,0,,,35,0
71957,note_on,37,0,0,,,,,,,,,0,,,90,0
71957,note_on,0,0,0,,,,,,,,,0,,,95,0
71958,note_on,4,0,1,,,,,,,,,0,,,47,116
71994,note_on,36,0,1,,,,,,,,,0,,,47,0
72000,note_on,0,0,1,,,,,,,,,0,,,34,116
72000,note_on,0,0,1,,,,,,,,,0,,,37,116
72000,note_on,0,0,0,,,,,,,,,0,,,70,127
72000,note_on,0,0,0,,,,,,,,,0,,,58,127
72000,note_on,0,0,0,,,,,,,,,0,,,58,0
72000,note_on,6,0,1,,,,,,,,,0,,,30,116
72000,note_on,43,0,0,,,,,,,,,0,,,58,116
72001,control_change,1,0,0,,,,,,,64,0,0,,,,
72002,control_change,1,0,0,,,,,,,64,127,0,,,,
72036,note_on,0,0,1,,,,,,,,,0,,,37,0
72036,note_on,36,0,1,,,,,,,,,0,,,30,0
72036,note_on,0,0,1,,,,,,,,,0,,,34,0
72039,note_on,3,0,1,,,,,,,,,0,,,42,116
72040,note_on,38,0,0,,,,,,,,,0,,,66,116
72075,note_on,36,0,1,,,,,,,,,0,,,42,0
72079,note_on,4,0,1,,,,,,,,,0,,,30,116
72079,note_on,0,0,1,,,,,,,,,0,,,34,116
72079,note_on,0,0,1,,,,,,,,,0,,,37,116
72079,note_on,39,0,0,,,,,,,,,0,,,66,0
72080,note_on,0,0,0,,,,,,,,,0,,,70,116
72080,note_on,0,0,0,,,,,,,,,0,,,73,116
72080,note_on,1,0,0,,,,,,,,,0,,,70,0
72115,note_on,0,0,1,,,,,,,,,0,,,34,0
72115,note_on,0,0,1,,,,,,,,,0,,,37,0
72115,note_on,36,0,1,,,,,,,,,0,,,30,0
72119,note_on,4,0,1,,,,,,,,,0,,,42,116
72119,note_on,39,0,0,,,,,,,,,0,,,73,0
72120,note_on,1,0,0,,,,,,,,,0,,,73,116
72120,note_on,0,0,0,,,,,,,,,0,,,78,116
72155,note_on,36,0,1,,,,,,,,,0,,,42,0
72159,note_on,0,0,1,,,,,,,,,0,,,37,116
72159,note_on,0,0,0,,,,,,,,,0,,,78,0
72159,note_on,39,0,0,,,,,,,,,0,,,73,0
72159,note_on,0,0,1,,,,,,,,,0,,,34,116
72159,note_on,4,0,1,,,,,,,,,0,,,30,116
72160,note_on,0,0,0,,,,,,,,,0,,,85,116
72160,note_on,1,0,0,,,,,,,,,0,,,82,116
72195,note_on,36,0,1,,,,,,,,,0,,,30,0
72195,note_on,0,0,1,,,,,,,,,0,,,34,0
72195,note_on,0,0,1,,,,,,,,,0,,,37,0
72199,note_on,39,0,0,,,,,,,,,0,,,82,0
72199,note_on,4,0,1,,,,,,,,,0,,,42,116
72199,note_on,0,0,0,,,,,,,,,0,,,85,0
72200,note_on,0,0,0,,,,,,,,,0,,,90,116
72200,note_on,1,0,0,,,,,,,,,0,,,85,116
72235,note_on,36,0,1,,,,,,,,,0,,,42,0
72239,note_on,4,0,1,,,,,,,,,0,,,30,116
72239,note_on,0,0,1,,,,,,,,,0,,,34,116
72239,note_on,0,0,1,,,,,,,,,0,,,37,116
72239,note_on,0,0,0,,,,,,,,,0,,,90,0
72239,note_on,39,0,0,,,,,,,,,0,,,85,0
72240,note_on,0,0,0,,,,,,,,,0,,,97,116
72240,note_on,1,0,0,,,,,,,,,0,,,94,116
72275,note_on,0,0,1,,,,,,,,,0,,,34,0
72275,note_on,36,0,1,,,,,,,,,0,,,30,0
72275,note_on,0,0,1,,,,,,,,,0,,,37,0
72278,note_on,3,0,1,,,,,,,,,0,,,42,116
72279,note_on,0,0,0,,,,,,,,,0,,,97,0
72279,note_on,39,0,0,,,,,,,,,0,,,94,0
72280,note_on,1,0,0,,,,,,,,,0,,,85,116
72280,note_on,0,0,0,,,,,,,,,0,,,90,116
72314,note_on,36,0,1,,,,,,,,,0,,,42,0
72318,note_on,0,0,1,,,,,,,,,0,,,37,116
72318,note_on,0,0,1,,,,,,,,,0,,,34,116
72318,note_on,4,0,1,,,,,,,,,0,,,30,116
72319,note_on,39,0,0,,,,,,,,,0,,,85,0
72319,note_on,0,0,0,,,,,,,,,0,,,90,0
72320,note_on,0,0,0,,,,,,,,,0,,,97,116
72320,note_on,0,0,0,,,,,,,,,0,,,94,116
72320,note_on,1,0,0,,,,,,,,,0,,,58,0
72320,note_on,0,0,0,,,,,,,,,0,,,70,0
72354,note_on,0,0,1,,,,,,,,,0,,,37,0
72354,note_on,36,0,1,,,,,,,,,0,,,30,0
72354,note_on,0,0,1,,,,,,,,,0,,,34,0
72358,note_on,4,0,1,,,,,,,,,0,,,42,116
72359,note_on,39,0,0,,,,,,,,,0,,,94,0
72359,note_on,0,0,0,,,,,,,,,0,,,97,0
72360,note_on,1,0,0,,,,,,,,,0,,,85,116
72360,note_on,0,0,0,,,,,,,,,0,,,90,116
72394,note_on,36,0,1,,,,,,,,,0,,,42,0
72398,note_on,0,0,1,,,,,,,,,0,,,37,116
72398,note_on,0,0,1,,,,,,,,,0,,,34,116
72398,note_on,4,0,1,,,,,,,,,0,,,30,116
72399,note_on,0,0,0,,,,,,,,,0,,,90,0
72399,note_on,39,0,0,,,,,,,,,0,,,85,0
72400,note_on,1,0,0,,,,,,,,,0,,,94,116
72400,note_on,0,0,0,,,,,,,,,0,,,97,116
72434,note_on,0,0,1,,,,,,,,,0,,,37,0
72434,note_on,36,0,1,,,,,,,,,0,,,30,0
72434,note_on,0,0,1,,,,,,,,,0,,,34,0
72438,note_on,4,0,1,,,,,,,,,0,,,42,116
72439,note_on,39,0,0,,,,,,,,,0,,,94,0
72439,note_on,0,0,0,,,,,,,,,0,,,97,0
72440,note_on,1,0,0,,,,,,,,,0,,,85,116
72440,note_on,0,0,0,,,,,,,,,0,,,90,116
72474,note_on,36,0,1,,,,,,,,,0,,,42,0
72479,note_on,0,0,0,,,,,,,,,0,,,90,0
72479,note_on,39,0,0,,,,,,,,,0,,,85,0
72480,note_on,6,0,1,,,,,,,,,0,,,30,116
72480,note_on,1,0,0,,,,,,,,,0,,,94,116
72480,note_on,0,0,0,,,,,,,,,0,,,97,116
72495,note_on,15,0,1,,,,,,,,,0,,,34,116
72511,note_on,16,0,1,,,,,,,,,0,,,37,116
72518,note_on,38,0,0,,,,,,,,,0,,,94,0
72518,note_on,0,0,0,,,,,,,,,0,,,97,0
72519,note_on,1,0,0,,,,,,,,,0,,,85,116
72519,note_on,0,0,0,,,,,,,,,0,,,90,116
72527,note_on,16,0,1,,,,,,,,,0,,,42,116
72557,note_on,0,0,0,,,,,,,,,0,,,90,0
72557,note_on,38,0,0,,,,,,,,,0,,,85,0
72559,note_on,2,0,0,,,,,,,,,0,,,94,116
72559,note_on,0,0,0,,,,,,,,,0,,,97,116
72597,note_on,0,0,0,,,,,,,,,0,,,97,0
72597,note_on,38,0,0,,,,,,,,,0,,,94,0
72599,note_on,2,0,0,,,,,,,,,0,,,85,116
72599,note_on,0,0,0,,,,,,,,,0,,,90,116
72637,note_on,0,0,0,,,,,,,,,0,,,90,0
72637,note_on,38,0,0,,,,,,,,,0,,,85,0
72639,note_on,0,0,0,,,,,,,,,0,,,97,116
72639,note_on,2,0,0,,,,,,,,,0,,,94,116
72677,note_on,38,0,0,,,,,,,,,0,,,94,0
72677,note_on,0,0,0,,,,,,,,,0,,,97,0
72679,note_on,0,0,0,,,,,,,,,0,,,90,116
72679,note_on,2,0,0,,,,,,,,,0,,,85,116
72717,note_on,0,0,0,,,,,,,,,0,,,90,0
72717,note_on,38,0,0,,,,,,,,,0,,,85,0
72718,note_on,191,0,1,,,,,,,,,0,,,34,0
72718,note_on,0,0,1,,,,,,,,,0,,,37,0
72718,note_on,0,0,1,,,,,,,,,0,,,42,0
72719,note_on,0,0,0,,,,,,,,,0,,,97,116
72719,note_on,2,0,0,,,,,,,,,0,,,94,116
72719,note_on,1,0,1,,,,,,,,,0,,,30,0
72720,note_on,1,0,1,,,,,,,,,0,,,61,127
72720,note_on,0,0,1,,,,,,,,,0,,,73,127
72721,control_change,1,0,1,,,,,,,64,0,0,,,,
72722,control_change,1,0,1,,,,,,,64,127,0,,,,
72757,note_on,0,0,0,,,,,,,,,0,,,97,0
72757,note_on,38,0,0,,,,,,,,,0,,,94,0
72758,note_on,1,0,0,,,,,,,,,0,,,85,116
72758,note_on,0,0,0,,,,,,,,,0,,,90,116
72796,note_on,38,0,0,,,,,,,,,0,,,85,0
72796,note_on,0,0,0,,,,,,,,,0,,,90,0
72798,note_on,0,0,0,,,,,,,,,0,,,97,116
72798,note_on,2,0,0,,,,,,,,,0,,,94,116
72836,note_on,0,0,0,,,,,,,,,0,,,97,0
72836,note_on,38,0,0,,,,,,,,,0,,,94,0
72838,note_on,0,0,0,,,,,,,,,0,,,90,116
72838,note_on,2,0,0,,,,,,,,,0,,,85,116
72839,note_on,117,0,1,,,,,,,,,0,,,61,0
72839,note_on,0,0,1,,,,,,,,,0,,,73,0
72876,note_on,0,0,0,,,,,,,,,0,,,90,0
72876,note_on,38,0,0,,,,,,,,,0,,,85,0
72878,note_on,2,0,0,,,,,,,,,0,,,94,116
72878,note_on,0,0,0,,,,,,,,,0,,,97,116
72900,note_on,61,0,1,,,,,,,,,0,,,61,127
72900,note_on,0,0,1,,,,,,,,,0,,,73,127
72916,note_on,0,0,0,,,,,,,,,0,,,97,0
72916,note_on,38,0,0,,,,,,,,,0,,,94,0
72918,note_on,2,0,0,,,,,,,,,0,,,85,116
72918,note_on,0,0,0,,,,,,,,,0,,,90,116
72939,note_on,0,0,1,,,,,,,,,0,,,73,0
72939,note_on,39,0,1,,,,,,,,,0,,,61,0
72956,note_on,0,0,0,,,,,,,,,0,,,90,0
72956,note_on,38,0,0,,,,,,,,,0,,,85,0
72958,note_on,2,0,0,,,,,,,,,0,,,94,116
72958,note_on,0,0,0,,,,,,,,,0,,,97,116
72960,note_on,0,0,1,,,,,,,,,0,,,73,127
72960,note_on,21,0,1,,,,,,,,,0,,,61,127
72996,note_on,38,0,0,,,,,,,,,0,,,94,0
72996,note_on,0,0,0,,,,,,,,,0,,,97,0
72997,note_on,0,0,0,,,,,,,,,0,,,90,116
72997,note_on,1,0,0,,,,,,,,,0,,,85,116
73035,note_on,0,0,0,,,,,,,,,0,,,90,0
73035,note_on,38,0,0,,,,,,,,,0,,,85,0
73037,note_on,0,0,0,,,,,,,,,0,,,97,116
73037,note_on,2,0,0,,,,,,,,,0,,,94,116
73075,note_on,0,0,0,,,,,,,,,0,,,97,0
73075,note_on,38,0,0,,,,,,,,,0,,,94,0
73077,note_on,0,0,0,,,,,,,,,0,,,90,116
73077,note_on,2,0,0,,,,,,,,,0,,,85,116
73115,note_on,0,0,0,,,,,,,,,0,,,90,0
73115,note_on,38,0,0,,,,,,,,,0,,,85,0
73117,note_on,0,0,0,,,,,,,,,0,,,97,116
73117,note_on,2,0,0,,,,,,,,,0,,,94,116
73119,note_on,159,0,1,,,,,,,,,0,,,61,0
73119,note_on,0,0,1,,,,,,,,,0,,,73,0
73155,note_on,38,0,0,,,,,,,,,0,,,94,0
73155,note_on,0,0,0,,,,,,,,,0,,,97,0
73157,note_on,2,0,0,,,,,,,,,0,,,85,116
73157,note_on,0,0,0,,,,,,,,,0,,,90,116
73195,note_on,0,0,0,,,,,,,,,0,,,90,0
73195,note_on,38,0,0,,,,,,,,,0,,,85,0
73197,note_on,2,0,0,,,,,,,,,0,,,94,116
73197,note_on,0,0,0,,,,,,,,,0,,,97,116
73200,note_on,0,0,1,,,,,,,,,0,,,73,127
73200,note_on,81,0,1,,,,,,,,,0,,,61,127
73235,note_on,38,0,0,,,,,,,,,0,,,94,0
73235,note_on,0,0,0,,,,,,,,,0,,,97,0
73236,note_on,0,0,0,,,,,,,,,0,,,90,116
73236,note_on,1,0,0,,,,,,,,,0,,,85,116
73274,note_on,38,0,0,,,,,,,,,0,,,85,0
73274,note_on,0,0,0,,,,,,,,,0,,,90,0
73276,note_on,0,0,0,,,,,,,,,0,,,97,116
73276,note_on,2,0,0,,,,,,,,,0,,,94,116
73314,note_on,0,0,0,,,,,,,,,0,,,97,0
73314,note_on,38,0,0,,,,,,,,,0,,,94,0
73316,note_on,2,0,0,,,,,,,,,0,,,85,116
73316,note_on,0,0,0,,,,,,,,,0,,,90,116
73354,note_on,0,0,0,,,,,,,,,0,,,90,0
73354,note_on,38,0,0,,,,,,,,,0,,,85,0
73356,note_on,2,0,0,,,,,,,,,0,,,94,116
73356,note_on,0,0,0,,,,,,,,,0,,,97,116
73359,note_on,159,0,1,,,,,,,,,0,,,61,0
73359,note_on,0,0,1,,,,,,,,,0,,,73,0
73394,note_on,38,0,0,,,,,,,,,0,,,94,0
73394,note_on,0,0,0,,,,,,,,,0,,,97,0
73396,note_on,0,0,0,,,,,,,,,0,,,90,116
73396,note_on,2,0,0,,,,,,,,,0,,,85,116
73434,note_on,0,0,0,,,,,,,,,0,,,90,0
73434,note_on,38,0,0,,,,,,,,,0,,,85,0
73440,note_on,0,0,0,,,,,,,,,0,,,62,126
73440,set_tempo,6,1,0,,,,,,1395348,,,,,,,
73440,note_on,0,0,0,,,,,,,,,0,,,66,126
73440,note_on,0,0,0,,,,,,,,,0,,,62,126
73440,note_on,81,0,1,,,,,,,,,0,,,45,126
73440,note_on,0,0,1,,,,,,,,,0,,,60,126
73440,note_on,0,0,1,,,,,,,,,0,,,54,126
73440,note_on,0,0,0,,,,,,,,,0,,,74,126
73440,note_on,0,0,0,,,,,,,,,0,,,62,0
73440,note_on,0,0,1,,,,,,,,,0,,,50,126
73441,control_change,1,0,1,,,,,,,64,0,0,,,,
73442,control_change,1,0,1,,,,,,,64,127,0,,,,
73553,note_on,0,0,1,,,,,,,,,0,,,50,0
73553,note_on,111,0,1,,,,,,,,,0,,,45,0
73553,note_on,0,0,1,,,,,,,,,0,,,60,0
73553,note_on,0,0,1,,,,,,,,,0,,,54,0
73560,note_on,0,0,1,,,,,,,,,0,,,72,126
73560,note_on,120,0,0,,,,,,,,,0,,,74,0
73560,note_on,7,0,1,,,,,,,,,0,,,62,126
73560,note_on,0,0,1,,,,,,,,,0,,,66,126
73560,note_on,0,0,0,,,,,,,,,0,,,66,0
73560,note_on,0,0,0,,,,,,,,,0,,,78,126
73560,note_on,0,0,0,,,,,,,,,0,,,86,126
73560,note_on,0,0,0,,,,,,,,,0,,,62,0
73560,note_on,0,0,0,,,,,,,,,0,,,74,126
73673,note_on,0,0,0,,,,,,,,,0,,,86,0
73673,note_on,113,0,1,,,,,,,,,0,,,72,0
73673,note_on,113,0,0,,,,,,,,,0,,,78,0
73680,note_on,0,0,0,,,,,,,,,0,,,98,126
73680,note_on,0,0,0,,,,,,,,,0,,,90,126
73680,note_on,0,0,0,,,,,,,,,0,,,74,0
73680,note_on,7,0,0,,,,,,,,,0,,,86,126
73680,note_on,0,0,1,,,,,,,,,0,,,78,126
73680,note_on,0,0,1,,,,,,,,,0,,,84,126
73680,note_on,7,0,1,,,,,,,,,0,,,74,126
73793,note_on,0,0,0,,,,,,,,,0,,,90,0
73793,note_on,0,0,1,,,,,,,,,0,,,84,0
73793,note_on,0,0,0,,,,,,,,,0,,,98,0
73793,note_on,113,0,1,,,,,,,,,0,,,78,0
73793,note_on,113,0,0,,,,,,,,,0,,,86,0
73800,note_on,0,0,0,,,,,,,,,0,,,86,126
73800,note_on,0,0,1,,,,,,,,,0,,,72,126
73800,note_on,7,0,0,,,,,,,,,0,,,74,126
73800,note_on,0,0,1,,,,,,,,,0,,,66,126
73800,note_on,0,0,1,,,,,,,,,0,,,62,0
73800,note_on,0,0,1,,,,,,,,,0,,,62,126
73800,note_on,0,0,0,,,,,,,,,0,,,78,126
73800,note_on,0,0,1,,,,,,,,,0,,,66,0
73800,note_on,7,0,1,,,,,,,,,0,,,74,0
73913,note_on,0,0,1,,,,,,,,,0,,,72,0
73913,note_on,113,0,0,,,,,,,,,0,,,74,0
73913,note_on,0,0,0,,,,,,,,,0,,,78,0
73913,note_on,113,0,1,,,,,,,,,0,,,62,0
73913,note_on,0,0,1,,,,,,,,,0,,,66,0
73913,note_on,0,0,0,,,,,,,,,0,,,86,0
73920,set_tempo,7,1,0,,,,,,1333333,,,,,,,
73920,note_on,0,0,0,,,,,,,,,0,,,73,126
73920,note_on,0,0,0,,,,,,,,,0,,,61,126
73920,note_on,0,0,0,,,,,,,,,0,,,66,126
73920,note_on,0,0,0,,,,,,,,,0,,,61,126
73920,note_on,0,0,0,,,,,,,,,0,,,61,0
73920,note_on,7,0,1,,,,,,,,,0,,,45,126
73921,control_change,1,0,1,,,,,,,64,0,0,,,,
73922,control_change,1,0,1,,,,,,,64,127,0,,,,
73930,note_on,8,0,1,,,,,,,,,0,,,50,126
73940,note_on,10,0,1,,,,,,,,,0,,,54,126
73951,note_on,11,0,1,,,,,,,,,0,,,60,126
74038,note_on,87,0,1,,,,,,,,,0,,,50,0
74038,note_on,0,0,1,,,,,,,,,0,,,60,0
74038,note_on,0,0,1,,,,,,,,,0,,,54,0
74039,note_on,1,0,1,,,,,,,,,0,,,45,0
74040,note_on,1,0,1,,,,,,,,,0,,,50,126
74040,note_on,120,0,0,,,,,,,,,0,,,73,0
74040,note_on,0,0,1,,,,,,,,,0,,,54,126
74040,note_on,0,0,0,,,,,,,,,0,,,73,126
74040,note_on,0,0,0,,,,,,,,,0,,,85,126
74147,note_on,107,0,0,,,,,,,,,0,,,61,0
74147,note_on,0,0,0,,,,,,,,,0,,,66,0
74153,note_on,6,0,0,,,,,,,,,0,,,73,0
74153,note_on,0,0,0,,,,,,,,,0,,,85,0
74153,note_on,0,0,1,,,,,,,,,0,,,54,0
74153,note_on,113,0,1,,,,,,,,,0,,,50,0
74160,note_on,0,0,0,,,,,,,,,0,,,62,126
74160,note_on,0,0,0,,,,,,,,,0,,,62,126
74160,note_on,0,0,0,,,,,,,,,0,,,66,126
74160,set_tempo,7,1,0,,,,,,1276596,,,,,,,
74160,note_on,7,0,1,,,,,,,,,0,,,45,126
74160,note_on,0,0,0,,,,,,,,,0,,,62,0
74160,note_on,0,0,0,,,,,,,,,0,,,74,126
74170,note_on,10,0,1,,,,,,,,,0,,,50,126
74181,note_on,11,0,1,,,,,,,,,0,,,54,126
74192,note_on,11,0,1,,,,,,,,,0,,,60,126
74278,note_on,0,0,1,,,,,,,,,0,,,54,0
74278,note_on,86,0,1,,,,,,,,,0,,,50,0
74278,note_on,0,0,1,,,,,,,,,0,,,60,0
74279,note_on,1,0,1,,,,,,,,,0,,,45,0
74280,note_on,120,0,0,,,,,,,,,0,,,74,0
74280,note_on,0,0,1,,,,,,,,,0,,,54,126
74280,note_on,1,0,1,,,,,,,,,0,,,50,126
74280,note_on,0,0,0,,,,,,,,,0,,,74,126
74280,note_on,0,0,0,,,,,,,,,0,,,86,126
74387,note_on,107,0,0,,,,,,,,,0,,,62,0
74387,note_on,0,0,0,,,,,,,,,0,,,66,0
74393,note_on,0,0,1,,,,,,,,,0,,,54,0
74393,note_on,6,0,0,,,,,,,,,0,,,74,0
74393,note_on,0,0,0,,,,,,,,,0,,,86,0
74393,note_on,113,0,1,,,,,,,,,0,,,50,0
74400,note_on,0,0,0,,,,,,,,,0,,,63,0
74400,note_on,0,0,0,,,,,,,,,0,,,63,126
74400,note_on,0,0,0,,,,,,,,,0,,,63,126
74400,set_tempo,7,1,0,,,,,,1224490,,,,,,,
74400,note_on,7,0,1,,,,,,,,,0,,,45,126
74400,note_on,0,0,0,,,,,,,,,0,,,66,126
74400,note_on,0,0,0,,,,,,,,,0,,,75,126
74401,control_change,1,0,1,,,,,,,64,0,0,,,,
74402,control_change,1,0,1,,,,,,,64,127,0,,,,
74411,note_on,9,0,1,,,,,,,,,0,,,50,126
74422,note_on,11,0,1,,,,,,,,,0,,,54,126
74434,note_on,12,0,1,,,,,,,,,0,,,60,126
74518,note_on,0,0,1,,,,,,,,,0,,,54,0
74518,note_on,0,0,1,,,,,,,,,0,,,60,0
74518,note_on,84,0,1,,,,,,,,,0,,,50,0
74519,note_on,1,0,1,,,,,,,,,0,,,45,0
74520,note_on,0,0,0,,,,,,,,,0,,,87,126
74520,note_on,0,0,0,,,,,,,,,0,,,75,126
74520,note_on,120,0,0,,,,,,,,,0,,,75,0
74520,note_on,0,0,1,,,,,,,,,0,,,54,126
74520,note_on,1,0,1,,,,,,,,,0,,,50,126
74627,note_on,0,0,0,,,,,,,,,0,,,66,0
74627,note_on,107,0,0,,,,,,,,,0,,,63,0
74633,note_on,0,0,1,,,,,,,,,0,,,54,0
74633,note_on,0,0,0,,,,,,,,,0,,,87,0
74633,note_on,113,0,1,,,,,,,,,0,,,50,0
74633,note_on,6,0,0,,,,,,,,,0,,,75,0
74640,note_on,0,0,0,,,,,,,,,0,,,62,0
74640,set_tempo,7,1,0,,,,,,1176471,,,,,,,
74640,note_on,0,0,0,,,,,,,,,0,,,62,126
74640,note_on,7,0,1,,,,,,,,,0,,,45,126
74640,note_on,0,0,0,,,,,,,,,0,,,66,126
74640,note_on,0,0,0,,,,,,,,,0,,,74,126
74640,note_on,0,0,0,,,,,,,,,0,,,62,126
74651,note_on,11,0,1,,,,,,,,,0,,,50,126
74663,note_on,12,0,1,,,,,,,,,0,,,54,126
74675,note_on,12,0,1,,,,,,,,,0,,,60,126
74758,note_on,83,0,1,,,,,,,,,0,,,50,0
74758,note_on,0,0,1,,,,,,,,,0,,,60,0
74758,note_on,0,0,1,,,,,,,,,0,,,54,0
74759,note_on,1,0,1,,,,,,,,,0,,,45,0
74760,note_on,0,0,1,,,,,,,,,0,,,54,126
74760,note_on,0,0,0,,,,,,,,,0,,,86,126
74760,note_on,0,0,0,,,,,,,,,0,,,74,126
74760,note_on,120,0,0,,,,,,,,,0,,,74,0
74760,note_on,1,0,1,,,,,,,,,0,,,50,126
74867,note_on,0,0,0,,,,,,,,,0,,,66,0
74867,note_on,107,0,0,,,,,,,,,0,,,62,0
74873,note_on,113,0,1,,,,,,,,,0,,,50,0
74873,note_on,0,0,0,,,,,,,,,0,,,86,0
74873,note_on,0,0,1,,,,,,,,,0,,,54,0
74873,note_on,6,0,0,,,,,,,,,0,,,74,0
74880,note_on,0,0,0,,,,,,,,,0,,,59,126
74880,note_on,0,0,0,,,,,,,,,0,,,59,0
74880,note_on,7,0,1,,,,,,,,,0,,,43,126
74880,note_on,0,0,0,,,,,,,,,0,,,62,126
74880,note_on,0,0,1,,,,,,,,,0,,,55,126
74880,note_on,0,0,0,,,,,,,,,0,,,59,126
74880,note_on,0,0,1,,,,,,,,,0,,,50,126
74880,note_on,0,0,0,,,,,,,,,0,,,71,126
74880,set_tempo,7,1,0,,,,,,1333333,,,,,,,
74881,control_change,1,0,1,,,,,,,64,0,0,,,,
74882,control_change,1,0,1,,,,,,,64,127,0,,,,
74993,note_on,111,0,1,,,,,,,,,0,,,43,0
74993,note_on,0,0,1,,,,,,,,,0,,,55,0
74993,note_on,0,0,1,,,,,,,,,0,,,50,0
75000,note_on,0,0,0,,,,,,,,,0,,,62,0
75000,note_on,0,0,0,,,,,,,,,0,,,71,126
75000,note_on,0,0,0,,,,,,,,,0,,,59,0
75000,note_on,0,0,0,,,,,,,,,0,,,74,126
75000,note_on,0,0,0,,,,,,,,,0,,,83,126
75000,note_on,0,0,1,,,,,,,,,0,,,67,126
75000,note_on,120,0,0,,,,,,,,,0,,,71,0
75000,note_on,7,0,1,,,,,,,,,0,,,59,126
75000,note_on,0,0,1,,,,,,,,,0,,,62,126
75113,note_on,113,0,0,,,,,,,,,0,,,74,0
75113,note_on,113,0,1,,,,,,,,,0,,,67,0
75113,note_on,0,0,0,,,,,,,,,0,,,83,0
75120,note_on,0,0,1,,,,,,,,,0,,,74,126
75120,note_on,0,0,1,,,,,,,,,0,,,79,126
75120,note_on,0,0,0,,,,,,,,,0,,,95,126
75120,note_on,0,0,0,,,,,,,,,0,,,86,126
75120,note_on,7,0,0,,,,,,,,,0,,,83,126
75120,note_on,7,0,1,,,,,,,,,0,,,71,126
75120,note_on,0,0,0,,,,,,,,,0,,,71,0
75233,note_on,0,0,0,,,,,,,,,0,,,86,0
75233,note_on,113,0,0,,,,,,,,,0,,,83,0
75233,note_on,113,0,1,,,,,,,,,0,,,74,0
75233,note_on,0,0,1,,,,,,,,,0,,,79,0
75233,note_on,0,0,0,,,,,,,,,0,,,95,0
75240,note_on,0,0,1,,,,,,,,,0,,,59,0
75240,note_on,0,0,1,,,,,,,,,0,,,59,126
75240,note_on,0,0,0,,,,,,,,,0,,,74,126
75240,note_on,0,0,1,,,,,,,,,0,,,62,0
75240,note_on,7,0,1,,,,,,,,,0,,,71,0
75240,note_on,0,0,1,,,,,,,,,0,,,62,126
75240,note_on,0,0,1,,,,,,,,,0,,,67,126
75240,note_on,7,0,0,,,,,,,,,0,,,71,126
75240,note_on,0,0,0,,,,,,,,,0,,,83,126
75353,note_on,0,0,0,,,,,,,,,0,,,83,0
75353,note_on,113,0,0,,,,,,,,,0,,,71,0
75353,note_on,0,0,1,,,,,,,,,0,,,62,0
75353,note_on,0,0,1,,,,,,,,,0,,,67,0
75353,note_on,0,0,0,,,,,,,,,0,,,74,0
75353,note_on,113,0,1,,,,,,,,,0,,,59,0
75360,note_on,0,0,0,,,,,,,,,0,,,67,0
75360,note_on,0,0,0,,,,,,,,,0,,,67,126
75360,note_on,0,0,0,,,,,,,,,0,,,67,126
75360,set_tempo,7,1,0,,,,,,1276596,,,,,,,
75360,note_on,0,0,0,,,,,,,,,0,,,71,126
75360,note_on,7,0,1,,,,,,,,,0,,,40,126
75360,note_on,0,0,0,,,,,,,,,0,,,79,126
75360,note_on,0,0,1,,,,,,,,,0,,,52,126
75361,control_change,1,0,1,,,,,,,64,0,0,,,,
75362,control_change,1,0,1,,,,,,,64,127,0,,,,
75480,note_on,0,0,1,,,,,,,,,0,,,67,126
75480,note_on,120,0,0,,,,,,,,,0,,,79,0
75480,note_on,118,0,1,,,,,,,,,0,,,59,126
75480,note_on,0,0,0,,,,,,,,,0,,,91,126
75480,note_on,0,0,0,,,,,,,,,0,,,83,126
75480,note_on,0,0,0,,,,,,,,,0,,,79,126
75480,note_on,0,0,0,,,,,,,,,0,,,67,0
75587,note_on,0,0,1,,,,,,,,,0,,,52,0
75587,note_on,107,0,0,,,,,,,,,0,,,71,0
75587,note_on,107,0,1,,,,,,,,,0,,,40,0
75593,note_on,0,0,0,,,,,,,,,0,,,91,0
75593,note_on,0,0,0,,,,,,,,,0,,,83,0
75593,note_on,0,0,1,,,,,,,,,0,,,67,0
75593,note_on,6,0,0,,,,,,,,,0,,,79,0
75593,note_on,6,0,1,,,,,,,,,0,,,59,0
75600,set_tempo,7,1,0,,,,,,1224490,,,,,,,
75600,note_on,0,0,1,,,,,,,,,0,,,55,126
75600,note_on,7,0,1,,,,,,,,,0,,,43,126
75600,note_on,0,0,0,,,,,,,,,0,,,67,126
75600,note_on,0,0,0,,,,,,,,,0,,,64,0
75600,note_on,0,0,0,,,,,,,,,0,,,64,126
75600,note_on,0,0,0,,,,,,,,,0,,,76,126
75600,note_on,0,0,0,,,,,,,,,0,,,64,126
75720,note_on,0,0,1,,,,,,,,,0,,,64,126
75720,note_on,120,0,1,,,,,,,,,0,,,59,126
75720,note_on,120,0,0,,,,,,,,,0,,,76,0
75720,note_on,0,0,0,,,,,,,,,0,,,79,126
75720,note_on,0,0,0,,,,,,,,,0,,,76,126
75720,note_on,0,0,0,,,,,,,,,0,,,64,0
75720,note_on,0,0,0,,,,,,,,,0,,,88,126
75827,note_on,107,0,0,,,,,,,,,0,,,67,0
75827,note_on,0,0,1,,,,,,,,,0,,,55,0
75827,note_on,107,0,1,,,,,,,,,0,,,43,0
75833,note_on,0,0,0,,,,,,,,,0,,,88,0
75833,note_on,6,0,1,,,,,,,,,0,,,59,0
75833,note_on,0,0,0,,,,,,,,,0,,,79,0
75833,note_on,0,0,1,,,,,,,,,0,,,64,0
75833,note_on,6,0,0,,,,,,,,,0,,,76,0
75840,note_on,7,0,1,,,,,,,,,0,,,33,126
75840,note_on,0,0,0,,,,,,,,,0,,,72,126
75840,set_tempo,7,1,0,,,,,,1176471,,,,,,,
75840,note_on,0,0,1,,,,,,,,,0,,,45,126
75840,note_on,0,0,0,,,,,,,,,0,,,60,126
75840,note_on,0,0,0,,,,,,,,,0,,,64,126
75840,note_on,0,0,0,,,,,,,,,0,,,60,126
75840,note_on,0,0,0,,,,,,,,,0,,,60,0
75841,control_change,1,0,1,,,,,,,64,0,0,,,,
75842,control_change,1,0,1,,,,,,,64,127,0,,,,
75960,note_on,0,0,0,,,,,,,,,0,,,60,0
75960,note_on,118,0,1,,,,,,,,,0,,,52,126
75960,note_on,0,0,0,,,,,,,,,0,,,84,126
75960,note_on,0,0,0,,,,,,,,,0,,,76,126
75960,note_on,0,0,0,,,,,,,,,0,,,72,126
75960,note_on,120,0,0,,,,,,,,,0,,,72,0
75960,note_on,0,0,1,,,,,,,,,0,,,60,126
76067,note_on,107,0,0,,,,,,,,,0,,,64,0
76067,note_on,107,0,1,,,,,,,,,0,,,33,0
76067,note_on,0,0,1,,,,,,,,,0,,,45,0
76073,note_on,0,0,1,,,,,,,,,0,,,60,0
76073,note_on,0,0,0,,,,,,,,,0,,,76,0
76073,note_on,0,0,0,,,,,,,,,0,,,84,0
76073,note_on,6,0,1,,,,,,,,,0,,,52,0
76073,note_on,6,0,0,,,,,,,,,0,,,72,0
76080,note_on,0,0,0,,,,,,,,,0,,,69,126
76080,note_on,0,0,0,,,,,,,,,0,,,60,126
76080,note_on,0,0,0,,,,,,,,,0,,,57,126
76080,note_on,0,0,0,,,,,,,,,0,,,57,126
76080,note_on,7,0,1,,,,,,,,,0,,,36,126
76080,note_on,0,0,1,,,,,,,,,0,,,48,126
76080,set_tempo,7,1,0,,,,,,1224490,,,,,,,
76080,note_on,0,0,0,,,,,,,,,0,,,57,0
76200,note_on,0,0,0,,,,,,,,,0,,,81,126
76200,note_on,0,0,0,,,,,,,,,0,,,72,126
76200,note_on,0,0,0,,,,,,,,,0,,,69,126
76200,note_on,0,0,0,,,,,,,,,0,,,57,0
76200,note_on,120,0,1,,,,,,,,,0,,,52,126
76200,note_on,0,0,1,,,,,,,,,0,,,57,126
76200,note_on,120,0,0,,,,,,,,,0,,,69,0
76307,note_on,0,0,1,,,,,,,,,0,,,48,0
76307,note_on,107,0,0,,,,,,,,,0,,,60,0
76307,note_on,107,0,1,,,,,,,,,0,,,36,0
76313,note_on,0,0,1,,,,,,,,,0,,,57,0
76313,note_on,6,0,1,,,,,,,,,0,,,52,0
76313,note_on,0,0,0,,,,,,,,,0,,,81,0
76313,note_on,0,0,0,,,,,,,,,0,,,72,0
76313,note_on,6,0,0,,,,,,,,,0,,,69,0
76320,note_on,0,0,0,,,,,,,,,0,,,59,126
76320,note_on,7,0,1,,,,,,,,,0,,,38,126
76320,note_on,0,0,0,,,,,,,,,0,,,55,126
76320,note_on,0,0,1,,,,,,,,,0,,,50,126
76320,note_on,0,0,0,,,,,,,,,0,,,67,126
76320,note_on,0,0,0,,,,,,,,,0,,,55,0
76320,note_on,0,0,1,,,,,,,,,0,,,38,126
76320,note_on,0,0,1,,,,,,,,,0,,,38,0
76320,note_on,7,0,0,,,,,,,,,0,,,55,126
76321,control_change,1,0,1,,,,,,,64,0,0,,,,
76322,control_change,1,0,1,,,,,,,64,127,0,,,,
76440,note_on,0,0,1,,,,,,,,,0,,,47,126
76440,note_on,120,0,0,,,,,,,,,0,,,67,0
76440,note_on,118,0,1,,,,,,,,,0,,,43,126
76440,note_on,0,0,0,,,,,,,,,0,,,67,126
76440,note_on,0,0,0,,,,,,,,,0,,,79,126
76440,note_on,0,0,0,,,,,,,,,0,,,71,126
76547,note_on,107,0,1,,,,,,,,,0,,,38,0
76547,note_on,107,0,0,,,,,,,,,0,,,55,0
76547,note_on,0,0,0,,,,,,,,,0,,,59,0
76547,note_on,0,0,1,,,,,,,,,0,,,50,0
76553,note_on,6,0,1,,,,,,,,,0,,,43,0
76553,note_on,0,0,0,,,,,,,,,0,,,71,0
76553,note_on,0,0,1,,,,,,,,,0,,,47,0
76553,note_on,0,0,0,,,,,,,,,0,,,79,0
76553,note_on,6,0,0,,,,,,,,,0,,,67,0
76560,note_on,0,0,1,,,,,,,,,0,,,38,0
76560,note_on,7,0,0,,,,,,,,,0,,,59,126
76560,note_on,0,0,1,,,,,,,,,0,,,50,126
76560,note_on,7,0,1,,,,,,,,,0,,,38,126
76560,note_on,0,0,1,,,,,,,,,0,,,38,126
76560,note_on,0,0,0,,,,,,,,,0,,,59,0
76560,note_on,0,0,0,,,,,,,,,0,,,59,126
76560,note_on,0,0,0,,,,,,,,,0,,,62,126
76560,note_on,0,0,0,,,,,,,,,0,,,71,126
76680,note_on,0,0,0,,,,,,,,,0,,,74,126
76680,note_on,0,0,1,,,,,,,,,0,,,47,126
76680,note_on,0,0,0,,,,,,,,,0,,,83,126
76680,note_on,120,0,0,,,,,,,,,0,,,71,0
76680,note_on,120,0,1,,,,,,,,,0,,,43,126
76680,note_on,0,0,0,,,,,,,,,0,,,71,126
76787,note_on,0,0,1,,,,,,,,,0,,,50,0
76787,note_on,0,0,0,,,,,,,,,0,,,62,0
76787,note_on,107,0,0,,,,,,,,,0,,,59,0
76787,note_on,107,0,1,,,,,,,,,0,,,38,0
76793,note_on,6,0,1,,,,,,,,,0,,,43,0
76793,note_on,0,0,0,,,,,,,,,0,,,74,0
76793,note_on,0,0,0,,,,,,,,,0,,,83,0
76793,note_on,0,0,1,,,,,,,,,0,,,47,0
76793,note_on,6,0,0,,,,,,,,,0,,,71,0
76800,note_on,0,0,0,,,,,,,,,0,,,70,126
76800,note_on,0,0,1,,,,,,,,,0,,,50,126
76800,note_on,0,0,0,,,,,,,,,0,,,67,126
76800,note_on,0,0,0,,,,,,,,,0,,,62,126
76800,note_on,0,0,0,,,,,,,,,0,,,62,126
76800,note_on,0,0,0,,,,,,,,,0,,,62,0
76800,note_on,0,0,1,,,,,,,,,0,,,46,126
76800,note_on,0,0,1,,,,,,,,,0,,,38,126
76800,note_on,0,0,0,,,,,,,,,0,,,74,126
76800,set_tempo,7,1,0,,,,,,2000000,,,,,,,
76800,note_on,0,0,1,,,,,,,,,0,,,38,0
76800,note_on,7,0,1,,,,,,,,,0,,,38,126
76800,note_on,0,0,1,,,,,,,,,0,,,43,126
76801,control_change,1,0,1,,,,,,,64,0,0,,,,
76802,control_change,1,0,1,,,,,,,64,127,0,,,,
76880,note_on,0,0,1,,,,,,,,,0,,,62,126
76880,note_on,0,0,1,,,,,,,,,0,,,58,126
76880,note_on,0,0,1,,,,,,,,,0,,,55,126
76880,note_on,0,0,1,,,,,,,,,0,,,50,126
76880,note_on,78,0,1,,,,,,,,,0,,,50,0
76880,note_on,0,0,0,,,,,,,,,0,,,82,126
76880,note_on,0,0,0,,,,,,,,,0,,,62,0
76880,note_on,0,0,0,,,,,,,,,0,,,74,126
76880,note_on,0,0,0,,,,,,,,,0,,,79,126
76880,note_on,80,0,0,,,,,,,,,0,,,74,0
76880,note_on,0,0,0,,,,,,,,,0,,,86,126
76955,note_on,0,0,1,,,,,,,,,0,,,58,0
76955,note_on,75,0,1,,,,,,,,,0,,,55,0
76955,note_on,0,0,0,,,,,,,,,0,,,82,0
76955,note_on,75,0,0,,,,,,,,,0,,,79,0
76955,note_on,0,0,0,,,,,,,,,0,,,86,0
76960,note_on,0,0,1,,,,,,,,,0,,,70,126
76960,note_on,0,0,1,,,,,,,,,0,,,74,126
76960,note_on,5,0,1,,,,,,,,,0,,,62,0
76960,note_on,0,0,0,,,,,,,,,0,,,67,0
76960,note_on,0,0,0,,,,,,,,,0,,,70,0
76960,note_on,0,0,1,,,,,,,,,0,,,67,126
76960,note_on,0,0,1,,,,,,,,,0,,,62,126
76960,note_on,0,0,0,,,,,,,,,0,,,74,0
76960,note_on,0,0,0,,,,,,,,,0,,,91,126
76960,note_on,0,0,0,,,,,,,,,0,,,94,126
76960,note_on,0,0,0,,,,,,,,,0,,,98,126
76960,note_on,5,0,0,,,,,,,,,0,,,86,126
77035,note_on,75,0,0,,,,,,,,,0,,,86,0
77035,note_on,0,0,0,,,,,,,,,0,,,98,0
77035,note_on,0,0,0,,,,,,,,,0,,,94,0
77035,note_on,0,0,0,,,,,,,,,0,,,91,0
77040,note_on,80,0,1,,,,,,,,,0,,,74,0
77040,note_on,5,0,0,,,,,,,,,0,,,74,126
77040,note_on,0,0,0,,,,,,,,,0,,,86,126
77040,note_on,0,0,0,,,,,,,,,0,,,79,126
77040,note_on,0,0,1,,,,,,,,,0,,,50,0
77040,note_on,0,0,1,,,,,,,,,0,,,50,126
77040,note_on,0,0,1,,,,,,,,,0,,,55,126
77040,note_on,0,0,1,,,,,,,,,0,,,58,126
77040,note_on,0,0,1,,,,,,,,,0,,,62,0
77040,note_on,0,0,1,,,,,,,,,0,,,62,126
77040,note_on,0,0,0,,,,,,,,,0,,,82,126
77103,note_on,63,0,1,,,,,,,,,0,,,67,0
77103,note_on,0,0,1,,,,,,,,,0,,,38,0
77103,note_on,0,0,1,,,,,,,,,0,,,43,0
77103,note_on,0,0,1,,,,,,,,,0,,,46,0
77103,note_on,0,0,1,,,,,,,,,0,,,70,0
77115,note_on,12,0,1,,,,,,,,,0,,,50,0
77115,note_on,0,0,1,,,,,,,,,0,,,62,0
77115,note_on,0,0,1,,,,,,,,,0,,,58,0
77115,note_on,0,0,0,,,,,,,,,0,,,82,0
77115,note_on,0,0,1,,,,,,,,,0,,,55,0
77115,note_on,75,0,0,,,,,,,,,0,,,74,0
77115,note_on,0,0,0,,,,,,,,,0,,,86,0
77115,note_on,0,0,0,,,,,,,,,0,,,79,0
77120,note_on,0,0,1,,,,,,,,,0,,,43,0
77120,note_on,0,0,1,,,,,,,,,0,,,38,126
77120,note_on,5,0,1,,,,,,,,,0,,,38,126
77120,note_on,0,0,1,,,,,,,,,0,,,38,0
77120,set_tempo,5,1,0,,,,,,2222222,,,,,,,
77120,note_on,0,0,0,,,,,,,,,0,,,69,126
77120,note_on,0,0,1,,,,,,,,,0,,,45,126
77120,note_on,0,0,0,,,,,,,,,0,,,67,126
77120,note_on,0,0,0,,,,,,,,,0,,,67,126
77120,note_on,0,0,0,,,,,,,,,0,,,69,0
77120,note_on,0,0,1,,,,,,,,,0,,,43,126
77120,note_on,0,0,0,,,,,,,,,0,,,67,0
77120,note_on,0,0,0,,,,,,,,,0,,,62,126
77120,note_on,0,0,0,,,,,,,,,0,,,62,0
77120,note_on,0,0,0,,,,,,,,,0,,,69,126
77120,note_on,0,0,0,,,,,,,,,0,,,62,126
77120,note_on,0,0,1,,,,,,,,,0,,,43,126
77120,note_on,0,0,1,,,,,,,,,0,,,45,0
77120,note_on,0,0,1,,,,,,,,,0,,,50,126
77120,note_on,0,0,1,,,,,,,,,0,,,45,126
77120,note_on,0,0,0,,,,,,,,,0,,,74,126
77121,control_change,1,0,1,,,,,,,64,0,0,,,,
77122,control_change,1,0,1,,,,,,,64,127,0,,,,
77200,note_on,0,0,0,,,,,,,,,0,,,81,126
77200,note_on,0,0,0,,,,,,,,,0,,,79,126
77200,note_on,0,0,0,,,,,,,,,0,,,74,126
77200,note_on,0,0,0,,,,,,,,,0,,,62,0
77200,note_on,0,0,1,,,,,,,,,0,,,57,126
77200,note_on,0,0,0,,,,,,,,,0,,,86,126
77200,note_on,0,0,1,,,,,,,,,0,,,50,126
77200,note_on,78,0,1,,,,,,,,,0,,,50,0
77200,note_on,0,0,1,,,,,,,,,0,,,62,126
77200,note_on,80,0,0,,,,,,,,,0,,,74,0
77200,note_on,0,0,1,,,,,,,,,0,,,55,126
77275,note_on,75,0,0,,,,,,,,,0,,,79,0
77275,note_on,0,0,0,,,,,,,,,0,,,86,0
77275,note_on,75,0,1,,,,,,,,,0,,,55,0
77275,note_on,0,0,1,,,,,,,,,0,,,57,0
77275,note_on,0,0,0,,,,,,,,,0,,,81,0
77280,note_on,0,0,0,,,,,,,,,0,,,67,0
77280,note_on,5,0,0,,,,,,,,,0,,,86,126
77280,note_on,0,0,1,,,,,,,,,0,,,62,126
77280,note_on,0,0,1,,,,,,,,,0,,,67,126
77280,note_on,0,0,1,,,,,,,,,0,,,69,126
77280,note_on,0,0,0,,,,,,,,,0,,,98,126
77280,note_on,0,0,1,,,,,,,,,0,,,74,126
77280,note_on,5,0,1,,,,,,,,,0,,,62,0
77280,note_on,0,0,0,,,,,,,,,0,,,91,126
77280,note_on,0,0,0,,,,,,,,,0,,,74,0
77280,note_on,0,0,0,,,,,,,,,0,,,69,0
77280,note_on,0,0,0,,,,,,,,,0,,,93,126
77355,note_on,0,0,0,,,,,,,,,0,,,93,0
77355,note_on,75,0,0,,,,,,,,,0,,,86,0
77355,note_on,0,0,0,,,,,,,,,0,,,98,0
77355,note_on,0,0,0,,,,,,,,,0,,,91,0
77360,note_on,5,0,0,,,,,,,,,0,,,74,126
77360,note_on,0,0,0,,,,,,,,,0,,,81,126
77360,note_on,0,0,0,,,,,,,,,0,,,79,126
77360,note_on,0,0,0,,,,,,,,,0,,,86,126
77360,note_on,80,0,1,,,,,,,,,0,,,74,0
77360,note_on,0,0,1,,,,,,,,,0,,,50,0
77360,note_on,0,0,1,,,,,,,,,0,,,50,126
77360,note_on,0,0,1,,,,,,,,,0,,,55,126
77360,note_on,0,0,1,,,,,,,,,0,,,57,126
77360,note_on,0,0,1,,,,,,,,,0,,,62,0
77360,note_on,0,0,1,,,,,,,,,0,,,62,126
77423,note_on,63,0,1,,,,,,,,,0,,,67,0
77423,note_on,0,0,1,,,,,,,,,0,,,38,0
77423,note_on,0,0,1,,,,,,,,,0,,,43,0
77423,note_on,0,0,1,,,,,,,,,0,,,69,0
77423,note_on,0,0,1,,,,,,,,,0,,,45,0
77435,note_on,12,0,1,,,,,,,,,0,,,50,0
77435,note_on,0,0,1,,,,,,,,,0,,,57,0
77435,note_on,0,0,1,,,,,,,,,0,,,62,0
77435,note_on,75,0,0,,,,,,,,,0,,,74,0
77435,note_on,0,0,0,,,,,,,,,0,,,86,0
77435,note_on,0,0,0,,,,,,,,,0,,,81,0
77435,note_on,0,0,0,,,,,,,,,0,,,79,0
77435,note_on,0,0,1,,,,,,,,,0,,,55,0
77440,note_on,0,0,1,,,,,,,,,0,,,50,126
77440,note_on,0,0,1,,,,,,,,,0,,,38,0
77440,note_on,0,0,1,,,,,,,,,0,,,38,126
77440,note_on,0,0,1,,,,,,,,,0,,,45,126
77440,note_on,0,0,1,,,,,,,,,0,,,45,126
77440,note_on,0,0,1,,,,,,,,,0,,,45,0
77440,note_on,0,0,1,,,,,,,,,0,,,42,126
77440,note_on,0,0,1,,,,,,,,,0,,,42,126
77440,note_on,0,0,0,,,,,,,,,0,,,74,126
77440,note_on,0,0,0,,,,,,,,,0,,,69,126
77440,note_on,0,0,0,,,,,,,,,0,,,69,126
77440,note_on,0,0,0,,,,,,,,,0,,,69,0
77440,note_on,0,0,0,,,,,,,,,0,,,66,126
77440,set_tempo,5,1,0,,,,,,2500000,,,,,,,
77440,note_on,0,0,0,,,,,,,,,0,,,66,126
77440,note_on,0,0,1,,,,,,,,,0,,,42,0
77440,note_on,0,0,0,,,,,,,,,0,,,62,126
77440,note_on,0,0,0,,,,,,,,,0,,,62,126
77440,note_on,0,0,0,,,,,,,,,0,,,62,0
77440,note_on,5,0,1,,,,,,,,,0,,,38,126
77440,note_on,0,0,0,,,,,,,,,0,,,66,0
77441,control_change,1,0,1,,,,,,,64,0,0,,,,
77442,control_change,1,0,1,,,,,,,64,127,0,,,,
77520,note_on,0,0,1,,,,,,,,,0,,,50,126
77520,note_on,0,0,0,,,,,,,,,0,,,86,126
77520,note_on,0,0,1,,,,,,,,,0,,,57,126
77520,note_on,0,0,1,,,,,,,,,0,,,62,126
77520,note_on,0,0,0,,,,,,,,,0,,,62,0
77520,note_on,0,0,0,,,,,,,,,0,,,74,126
77520,note_on,0,0,0,,,,,,,,,0,,,78,126
77520,note_on,0,0,0,,,,,,,,,0,,,81,126
77520,note_on,0,0,1,,,,,,,,,0,,,54,126
77520,note_on,80,0,0,,,,,,,,,0,,,74,0
77520,note_on,78,0,1,,,,,,,,,0,,,50,0
77595,note_on,0,0,1,,,,,,,,,0,,,57,0
77595,note_on,75,0,0,,,,,,,,,0,,,78,0
77595,note_on,0,0,0,,,,,,,,,0,,,81,0
77595,note_on,0,0,0,,,,,,,,,0,,,86,0
77595,note_on,75,0,1,,,,,,,,,0,,,54,0
77600,note_on,0,0,1,,,,,,,,,0,,,62,126
77600,note_on,5,0,0,,,,,,,,,0,,,86,126
77600,note_on,0,0,1,,,,,,,,,0,,,66,126
77600,note_on,5,0,1,,,,,,,,,0,,,62,0
77600,note_on,0,0,1,,,,,,,,,0,,,69,126
77600,note_on,0,0,0,,,,,,,,,0,,,66,0
77600,note_on,0,0,1,,,,,,,,,0,,,74,126
77600,note_on,0,0,0,,,,,,,,,0,,,74,0
77600,note_on,0,0,0,,,,,,,,,0,,,90,126
77600,note_on,0,0,0,,,,,,,,,0,,,93,126
77600,note_on,0,0,0,,,,,,,,,0,,,98,126
77600,note_on,0,0,0,,,,,,,,,0,,,69,0
77675,note_on,0,0,0,,,,,,,,,0,,,90,0
77675,note_on,0,0,0,,,,,,,,,0,,,93,0
77675,note_on,0,0,0,,,,,,,,,0,,,98,0
77675,note_on,75,0,0,,,,,,,,,0,,,86,0
77680,note_on,0,0,1,,,,,,,,,0,,,50,0
77680,note_on,0,0,1,,,,,,,,,0,,,50,126
77680,note_on,0,0,1,,,,,,,,,0,,,54,126
77680,note_on,0,0,1,,,,,,,,,0,,,57,126
77680,note_on,0,0,1,,,,,,,,,0,,,62,0
77680,note_on,0,0,1,,,,,,,,,0,,,62,126
77680,note_on,5,0,0,,,,,,,,,0,,,74,126
77680,note_on,0,0,0,,,,,,,,,0,,,78,126
77680,note_on,0,0,0,,,,,,,,,0,,,81,126
77680,note_on,80,0,1,,,,,,,,,0,,,74,0
77680,note_on,0,0,0,,,,,,,,,0,,,86,126
77743,note_on,0,0,1,,,,,,,,,0,,,38,0
77743,note_on,0,0,1,,,,,,,,,0,,,42,0
77743,note_on,63,0,1,,,,,,,,,0,,,66,0
77743,note_on,0,0,1,,,,,,,,,0,,,45,0
77743,note_on,0,0,1,,,,,,,,,0,,,69,0
77755,note_on,0,0,0,,,,,,,,,0,,,81,0
77755,note_on,0,0,1,,,,,,,,,0,,,54,0
77755,note_on,0,0,0,,,,,,,,,0,,,78,0
77755,note_on,0,0,1,,,,,,,,,0,,,62,0
77755,note_on,12,0,1,,,,,,,,,0,,,50,0
77755,note_on,0,0,0,,,,,,,,,0,,,86,0
77755,note_on,75,0,0,,,,,,,,,0,,,74,0
77755,note_on,0,0,1,,,,,,,,,0,,,57,0
77760,set_tempo,5,1,0,,,,,,1714287,,,,,,,
77760,note_on,0,0,1,,,,,,,,,0,,,38,126
77760,note_on,0,0,1,,,,,,,,,0,,,43,126
77760,note_on,0,0,0,,,,,,,,,0,,,55,126
77760,note_on,0,0,0,,,,,,,,,0,,,59,126
77760,note_on,0,0,0,,,,,,,,,0,,,62,126
77760,note_on,0,0,0,,,,,,,,,0,,,67,126
77760,note_on,0,0,1,,,,,,,,,0,,,35,126
77760,note_on,5,0,1,,,,,,,,,0,,,31,126
77761,control_change,1,0,1,,,,,,,64,0,0,,,,
77762,control_change,1,0,1,,,,,,,64,127,0,,,,
77873,note_on,0,0,0,,,,,,,,,0,,,67,0
77873,note_on,0,0,1,,,,,,,,,0,,,35,0
77873,note_on,0,0,1,,,,,,,,,0,,,38,0
77873,note_on,111,0,1,,,,,,,,,0,,,31,0
77873,note_on,0,0,0,,,,,,,,,0,,,62,0
77873,note_on,0,0,0,,,,,,,,,0,,,59,0
77873,note_on,113,0,0,,,,,,,,,0,,,55,0
77873,note_on,0,0,1,,,,,,,,,0,,,43,0
77880,note_on,7,0,0,,,,,,,,,0,,,67,126
77880,note_on,0,0,1,,,,,,,,,0,,,55,126
77880,note_on,0,0,1,,,,,,,,,0,,,50,126
77880,note_on,0,0,0,,,,,,,,,0,,,74,126
77880,note_on,7,0,1,,,,,,,,,0,,,43,126
77880,note_on,0,0,0,,,,,,,,,0,,,71,126
77880,note_on,0,0,1,,,,,,,,,0,,,47,126
77880,note_on,0,0,0,,,,,,,,,0,,,79,126
77993,note_on,0,0,1,,,,,,,,,0,,,50,0
77993,note_on,0,0,0,,,,,,,,,0,,,71,0
77993,note_on,113,0,0,,,,,,,,,0,,,67,0
77993,note_on,0,0,0,,,,,,,,,0,,,74,0
77993,note_on,113,0,1,,,,,,,,,0,,,43,0
77993,note_on,0,0,0,,,,,,,,,0,,,79,0
77993,note_on,0,0,1,,,,,,,,,0,,,47,0
77993,note_on,0,0,1,,,,,,,,,0,,,55,0
78000,note_on,0,0,0,,,,,,,,,0,,,83,126
78000,note_on,0,0,1,,,,,,,,,0,,,67,126
78000,note_on,0,0,1,,,,,,,,,0,,,62,126
78000,note_on,0,0,0,,,,,,,,,0,,,91,126
78000,note_on,0,0,0,,,,,,,,,0,,,86,126
78000,note_on,7,0,1,,,,,,,,,0,,,55,126
78000,note_on,0,0,1,,,,,,,,,0,,,59,126
78000,note_on,7,0,0,,,,,,,,,0,,,79,126
78113,note_on,0,0,0,,,,,,,,,0,,,91,0
78113,note_on,0,0,0,,,,,,,,,0,,,86,0
78113,note_on,0,0,0,,,,,,,,,0,,,83,0
78113,note_on,0,0,1,,,,,,,,,0,,,59,0
78113,note_on,0,0,1,,,,,,,,,0,,,62,0
78113,note_on,113,0,1,,,,,,,,,0,,,55,0
78113,note_on,113,0,0,,,,,,,,,0,,,79,0
78113,note_on,0,0,1,,,,,,,,,0,,,67,0
78120,note_on,0,0,1,,,,,,,,,0,,,47,126
78120,note_on,0,0,1,,,,,,,,,0,,,50,126
78120,note_on,0,0,1,,,,,,,,,0,,,55,126
78120,note_on,7,0,1,,,,,,,,,0,,,43,126
78120,note_on,0,0,0,,,,,,,,,0,,,67,126
78120,set_tempo,7,1,0,,,,,,2500000,,,,,,,
78120,note_on,0,0,0,,,,,,,,,0,,,71,126
78120,note_on,0,0,0,,,,,,,,,0,,,74,126
78120,note_on,0,0,0,,,,,,,,,0,,,79,126
78233,note_on,0,0,0,,,,,,,,,0,,,79,0
78233,note_on,113,0,0,,,,,,,,,0,,,67,0
78233,note_on,0,0,1,,,,,,,,,0,,,47,0
78233,note_on,0,0,1,,,,,,,,,0,,,55,0
78233,note_on,0,0,1,,,,,,,,,0,,,50,0
78233,note_on,0,0,0,,,,,,,,,0,,,74,0
78233,note_on,113,0,1,,,,,,,,,0,,,43,0
78233,note_on,0,0,0,,,,,,,,,0,,,71,0
78240,set_tempo,7,1,0,,,,,,1875000,,,,,,,
78240,note_on,0,0,0,,,,,,,,,0,,,59,126
78240,note_on,0,0,0,,,,,,,,,0,,,62,126
78240,note_on,0,0,0,,,,,,,,,0,,,67,126
78240,note_on,7,0,1,,,,,,,,,0,,,31,126
78240,note_on,0,0,0,,,,,,,,,0,,,55,126
78240,note_on,0,0,1,,,,,,,,,0,,,35,126
78240,note_on,0,0,1,,,,,,,,,0,,,38,126
78240,note_on,0,0,1,,,,,,,,,0,,,43,126
78241,control_change,1,0,1,,,,,,,64,0,0,,,,
78242,control_change,1,0,1,,,,,,,64,127,0,,,,
78467,note_on,225,0,1,,,,,,,,,0,,,31,0
78467,note_on,227,0,0,,,,,,,,,0,,,59,0
78467,note_on,0,0,1,,,,,,,,,0,,,35,0
78467,note_on,0,0,1,,,,,,,,,0,,,38,0
78467,note_on,0,0,0,,,,,,,,,0,,,55,0
78467,note_on,0,0,1,,,,,,,,,0,,,43,0
78467,note_on,0,0,0,,,,,,,,,0,,,67,0
78467,note_on,0,0,0,,,,,,,,,0,,,62,0
78480,set_tempo,13,1,0,,,,,,1499999,,,,,,,
78480,note_on,0,0,1,,,,,,,,,0,,,43,126
78480,note_on,13,0,1,,,,,,,,,0,,,31,126
78480,note_on,0,0,0,,,,,,,,,0,,,55,126
78480,note_on,0,0,0,,,,,,,,,0,,,67,126
78650,note_on,0,0,1,,,,,,,,,0,,,43,0
78650,note_on,0,0,0,,,,,,,,,0,,,55,0
78650,note_on,170,0,1,,,,,,,,,0,,,31,0
78650,note_on,170,0,0,,,,,,,,,0,,,67,0
78660,note_on,0,0,1,,,,,,,,,0,,,43,126
78660,note_on,0,0,0,,,,,,,,,0,,,55,126
78660,note_on,10,0,0,,,,,,,,,0,,,67,126
78660,note_on,10,0,1,,,,,,,,,0,,,31,126
78716,note_on,0,0,1,,,,,,,,,0,,,43,0
78716,note_on,56,0,1,,,,,,,,,0,,,31,0
78716,note_on,56,0,0,,,,,,,,,0,,,67,0
78716,note_on,0,0,0,,,,,,,,,0,,,55,0
78720,set_tempo,4,1,0,,,,,,1714287,,,,,,,
78720,note_on,0,0,0,,,,,,,,,0,,,67,126
78720,note_on,4,0,1,,,,,,,,,0,,,31,126
78720,note_on,0,0,1,,,,,,,,,0,,,43,126
78720,note_on,0,0,0,,,,,,,,,0,,,55,126
78721,control_change,1,0,1,,,,,,,64,0,0,,,,
78722,control_change,1,0,1,,,,,,,64,127,0,,,,
78947,note_on,225,0,1,,,,,,,,,0,,,31,0
78947,note_on,227,0,0,,,,,,,,,0,,,67,0
78947,note_on,0,0,1,,,,,,,,,0,,,43,0
78947,note_on,0,0,0,,,,,,,,,0,,,55,0
78960,note_on,0,0,0,,,,,,,,,0,,,55,126
78960,note_on,0,0,1,,,,,,,,,0,,,43,126
78960,note_on,13,0,0,,,,,,,,,0,,,67,126
78960,note_on,13,0,1,,,,,,,,,0,,,31,126
79187,note_on,227,0,1,,,,,,,,,0,,,31,0
79187,note_on,227,0,0,,,,,,,,,0,,,67,0
79187,note_on,0,0,0,,,,,,,,,0,,,55,0
79187,note_on,0,0,1,,,,,,,,,0,,,43,0
79200,note_on,0,0,1,,,,,,,,,0,,,55,127
79200,note_on,0,0,1,,,,,,,,,0,,,59,127
79200,note_on,0,0,1,,,,,,,,,0,,,62,127
79200,note_on,13,0,1,,,,,,,,,0,,,53,127
79200,set_tempo,13,1,0,,,,,,1333333,,,,,,,
79201,control_change,1,0,1,,,,,,,64,0,0,,,,
79202,control_change,1,0,1,,,,,,,64,127,0,,,,
79237,note_on,37,0,0,,,,,,,,,0,,,67,112
79271,note_on,34,0,0,,,,,,,,,0,,,67,0
79274,note_on,3,0,0,,,,,,,,,0,,,71,114
79308,note_on,34,0,0,,,,,,,,,0,,,71,0
79311,note_on,3,0,0,,,,,,,,,0,,,74,116
79345,note_on,34,0,0,,,,,,,,,0,,,74,0
79348,note_on,3,0,0,,,,,,,,,0,,,79,118
79382,note_on,34,0,0,,,,,,,,,0,,,79,0
79385,note_on,3,0,0,,,,,,,,,0,,,83,120
79419,note_on,34,0,0,,,,,,,,,0,,,83,0
79422,note_on,3,0,0,,,,,,,,,0,,,91,127
79440,note_on,238,0,1,,,,,,,,,0,,,43,112
79445,note_on,23,0,0,,,,,,,,,0,,,91,0
79458,note_on,13,0,0,,,,,,,,,0,,,83,122
79492,note_on,34,0,0,,,,,,,,,0,,,83,0
79495,note_on,3,0,0,,,,,,,,,0,,,79,122
79518,note_on,78,0,1,,,,,,,,,0,,,43,0
79520,note_on,0,0,1,,,,,,,,,0,,,55,0
79520,note_on,0,0,1,,,,,,,,,0,,,59,0
79520,note_on,0,0,1,,,,,,,,,0,,,62,0
79520,note_on,2,0,1,,,,,,,,,0,,,53,0
79529,note_on,34,0,0,,,,,,,,,0,,,79,0
79532,note_on,3,0,0,,,,,,,,,0,,,74,122
79566,note_on,34,0,0,,,,,,,,,0,,,74,0
79569,note_on,3,0,0,,,,,,,,,0,,,71,122
79603,note_on,34,0,0,,,,,,,,,0,,,71,0
79606,note_on,3,0,0,,,,,,,,,0,,,67,122
79640,note_on,34,0,0,,,,,,,,,0,,,67,0
79643,note_on,3,0,0,,,,,,,,,0,,,62,122
79677,note_on,34,0,0,,,,,,,,,0,,,62,0
79680,note_on,160,0,1,,,,,,,,,0,,,52,127
79680,note_on,0,0,1,,,,,,,,,0,,,61,127
79680,note_on,0,0,1,,,,,,,,,0,,,55,127
79680,note_on,0,0,1,,,,,,,,,0,,,58,127
79681,control_change,1,0,1,,,,,,,64,0,0,,,,
79682,control_change,1,0,1,,,,,,,64,127,0,,,,
79717,note_on,40,0,0,,,,,,,,,0,,,67,112
79751,note_on,34,0,0,,,,,,,,,0,,,67,0
79754,note_on,3,0,0,,,,,,,,,0,,,70,114
79788,note_on,34,0,0,,,,,,,,,0,,,70,0
79791,note_on,3,0,0,,,,,,,,,0,,,73,116
79825,note_on,34,0,0,,,,,,,,,0,,,73,0
79828,note_on,3,0,0,,,,,,,,,0,,,79,118
79862,note_on,34,0,0,,,,,,,,,0,,,79,0
79865,note_on,3,0,0,,,,,,,,,0,,,82,120
79899,note_on,34,0,0,,,,,,,,,0,,,82,0
79902,note_on,3,0,0,,,,,,,,,0,,,91,127
79920,note_on,238,0,1,,,,,,,,,0,,,43,112
79925,note_on,23,0,0,,,,,,,,,0,,,91,0
79938,note_on,13,0,0,,,,,,,,,0,,,82,122
79972,note_on,34,0,0,,,,,,,,,0,,,82,0
79975,note_on,3,0,0,,,,,,,,,0,,,79,122
79998,note_on,78,0,1,,,,,,,,,0,,,43,0
80000,note_on,2,0,1,,,,,,,,,0,,,52,0
80000,note_on,0,0,1,,,,,,,,,0,,,61,0
80000,note_on,0,0,1,,,,,,,,,0,,,55,0
80000,note_on,0,0,1,,,,,,,,,0,,,58,0
80009,note_on,34,0,0,,,,,,,,,0,,,79,0
80012,note_on,3,0,0,,,,,,,,,0,,,73,122
80046,note_on,34,0,0,,,,,,,,,0,,,73,0
80049,note_on,3,0,0,,,,,,,,,0,,,70,122
80083,note_on,34,0,0,,,,,,,,,0,,,70,0
80086,note_on,3,0,0,,,,,,,,,0,,,67,122
80120,note_on,34,0,0,,,,,,,,,0,,,67,0
80123,note_on,3,0,0,,,,,,,,,0,,,61,122
80157,note_on,34,0,0,,,,,,,,,0,,,61,0
80160,note_on,0,0,1,,,,,,,,,0,,,62,127
80160,note_on,0,0,1,,,,,,,,,0,,,59,127
80160,note_on,160,0,1,,,,,,,,,0,,,53,127
80160,note_on,0,0,1,,,,,,,,,0,,,55,127
80161,control_change,1,0,1,,,,,,,64,0,0,,,,
80162,control_change,1,0,1,,,,,,,64,127,0,,,,
80197,note_on,40,0,0,,,,,,,,,0,,,67,112
80231,note_on,34,0,0,,,,,,,,,0,,,67,0
80234,note_on,3,0,0,,,,,,,,,0,,,71,114
80268,note_on,34,0,0,,,,,,,,,0,,,71,0
80271,note_on,3,0,0,,,,,,,,,0,,,74,116
80305,note_on,34,0,0,,,,,,,,,0,,,74,0
80308,note_on,3,0,0,,,,,,,,,0,,,79,118
80342,note_on,34,0,0,,,,,,,,,0,,,79,0
80345,note_on,3,0,0,,,,,,,,,0,,,83,120
80379,note_on,34,0,0,,,,,,,,,0,,,83,0
80382,note_on,3,0,0,,,,,,,,,0,,,91,127
80400,note_on,238,0,1,,,,,,,,,0,,,43,112
80405,note_on,23,0,0,,,,,,,,,0,,,91,0
80418,note_on,13,0,0,,,,,,,,,0,,,83,122
80452,note_on,34,0,0,,,,,,,,,0,,,83,0
80455,note_on,3,0,0,,,,,,,,,0,,,79,122
80478,note_on,78,0,1,,,,,,,,,0,,,43,0
80480,note_on,2,0,1,,,,,,,,,0,,,53,0
80480,note_on,0,0,1,,,,,,,,,0,,,55,0
80480,note_on,0,0,1,,,,,,,,,0,,,59,0
80480,note_on,0,0,1,,,,,,,,,0,,,62,0
80489,note_on,34,0,0,,,,,,,,,0,,,79,0
80492,note_on,3,0,0,,,,,,,,,0,,,74,122
80526,note_on,34,0,0,,,,,,,,,0,,,74,0
80529,note_on,3,0,0,,,,,,,,,0,,,71,122
80563,note_on,34,0,0,,,,,,,,,0,,,71,0
80566,note_on,3,0,0,,,,,,,,,0,,,67,122
80600,note_on,34,0,0,,,,,,,,,0,,,67,0
80603,note_on,3,0,0,,,,,,,,,0,,,62,122
80637,note_on,34,0,0,,,,,,,,,0,,,62,0
80640,note_on,0,0,1,,,,,,,,,0,,,67,127
80640,note_on,160,0,1,,,,,,,,,0,,,51,127
80640,set_tempo,3,1,0,,,,,,1200000,,,,,,,
80640,note_on,0,0,1,,,,,,,,,0,,,58,127
80640,note_on,0,0,1,,,,,,,,,0,,,61,127
80641,control_change,1,0,1,,,,,,,64,0,0,,,,
80642,control_change,1,0,1,,,,,,,64,127,0,,,,
80670,note_on,30,0,0,,,,,,,,,0,,,85,122
80699,note_on,29,0,0,,,,,,,,,0,,,85,0
80700,note_on,1,0,0,,,,,,,,,0,,,91,122
80729,note_on,29,0,0,,,,,,,,,0,,,91,0
80730,note_on,1,0,0,,,,,,,,,0,,,94,122
80759,note_on,29,0,0,,,,,,,,,0,,,94,0
80760,note_on,1,0,0,,,,,,,,,0,,,99,122
80789,note_on,29,0,0,,,,,,,,,0,,,99,0
80790,note_on,1,0,0,,,,,,,,,0,,,94,122
80819,note_on,29,0,0,,,,,,,,,0,,,94,0
80820,note_on,1,0,0,,,,,,,,,0,,,91,122
80849,note_on,29,0,0,,,,,,,,,0,,,91,0
80850,note_on,1,0,0,,,,,,,,,0,,,85,122
80879,note_on,29,0,0,,,,,,,,,0,,,85,0
80880,note_on,1,0,0,,,,,,,,,0,,,97,122
80880,note_on,238,0,1,,,,,,,,,0,,,31,112
80909,note_on,29,0,0,,,,,,,,,0,,,97,0
80910,note_on,1,0,0,,,,,,,,,0,,,91,122
80939,note_on,29,0,0,,,,,,,,,0,,,91,0
80940,note_on,1,0,0,,,,,,,,,0,,,87,122
80958,note_on,78,0,1,,,,,,,,,0,,,31,0
80969,note_on,29,0,0,,,,,,,,,0,,,87,0
80970,note_on,1,0,0,,,,,,,,,0,,,82,122
80999,note_on,29,0,0,,,,,,,,,0,,,82,0
81000,note_on,1,0,0,,,,,,,,,0,,,94,122
81029,note_on,29,0,0,,,,,,,,,0,,,94,0
81030,note_on,1,0,0,,,,,,,,,0,,,87,122
81059,note_on,29,0,0,,,,,,,,,0,,,87,0
81060,note_on,1,0,0,,,,,,,,,0,,,85,122
81089,note_on,29,0,0,,,,,,,,,0,,,85,0
81090,note_on,1,0,0,,,,,,,,,0,,,79,122
81119,note_on,29,0,0,,,,,,,,,0,,,79,0
81120,note_on,162,0,1,,,,,,,,,0,,,31,112
81120,note_on,1,0,0,,,,,,,,,0,,,91,122
81149,note_on,29,0,0,,,,,,,,,0,,,91,0
81150,note_on,1,0,0,,,,,,,,,0,,,85,122
81179,note_on,29,0,0,,,,,,,,,0,,,85,0
81180,note_on,1,0,0,,,,,,,,,0,,,82,122
81198,note_on,78,0,1,,,,,,,,,0,,,31,0
81209,note_on,29,0,0,,,,,,,,,0,,,82,0
81210,note_on,1,0,0,,,,,,,,,0,,,75,122
81239,note_on,29,0,0,,,,,,,,,0,,,75,0
81240,note_on,1,0,0,,,,,,,,,0,,,87,122
81269,note_on,29,0,0,,,,,,,,,0,,,87,0
81270,note_on,1,0,0,,,,,,,,,0,,,82,122
81282,note_on,84,0,1,,,,,,,,,0,,,51,0
81282,note_on,0,0,1,,,,,,,,,0,,,67,0
81282,note_on,0,0,1,,,,,,,,,0,,,61,0
81282,note_on,0,0,1,,,,,,,,,0,,,58,0
81299,note_on,29,0,0,,,,,,,,,0,,,82,0
81300,note_on,1,0,0,,,,,,,,,0,,,79,121
81329,note_on,29,0,0,,,,,,,,,0,,,79,0
81330,note_on,1,0,0,,,,,,,,,0,,,73,121
81359,note_on,29,0,0,,,,,,,,,0,,,73,0
81360,note_on,78,0,1,,,,,,,,,0,,,31,112
81360,note_on,1,0,0,,,,,,,,,0,,,85,121
81389,note_on,29,0,0,,,,,,,,,0,,,85,0
81390,note_on,1,0,0,,,,,,,,,0,,,79,120
81419,note_on,29,0,0,,,,,,,,,0,,,79,0
81420,note_on,1,0,0,,,,,,,,,0,,,75,120
81438,note_on,78,0,1,,,,,,,,,0,,,31,0
81449,note_on,29,0,0,,,,,,,,,0,,,75,0
81450,note_on,1,0,0,,,,,,,,,0,,,70,120
81479,note_on,29,0,0,,,,,,,,,0,,,70,0
81480,note_on,1,0,0,,,,,,,,,0,,,82,119
81509,note_on,29,0,0,,,,,,,,,0,,,82,0
81510,note_on,1,0,0,,,,,,,,,0,,,75,119
81539,note_on,29,0,0,,,,,,,,,0,,,75,0
81540,note_on,1,0,0,,,,,,,,,0,,,73,118
81569,note_on,29,0,0,,,,,,,,,0,,,73,0
81570,note_on,1,0,0,,,,,,,,,0,,,67,118
81599,note_on,29,0,0,,,,,,,,,0,,,67,0
81600,note_on,162,0,1,,,,,,,,,0,,,31,112
81600,note_on,1,0,0,,,,,,,,,0,,,79,118
81629,note_on,29,0,0,,,,,,,,,0,,,79,0
81630,note_on,1,0,0,,,,,,,,,0,,,73,117
81659,note_on,29,0,0,,,,,,,,,0,,,73,0
81660,note_on,1,0,0,,,,,,,,,0,,,70,117
81678,note_on,78,0,1,,,,,,,,,0,,,31,0
81689,note_on,29,0,0,,,,,,,,,0,,,70,0
81690,note_on,1,0,0,,,,,,,,,0,,,63,117
81719,note_on,29,0,0,,,,,,,,,0,,,63,0
81720,note_on,1,0,0,,,,,,,,,0,,,75,116
81749,note_on,29,0,0,,,,,,,,,0,,,75,0
81750,note_on,1,0,0,,,,,,,,,0,,,70,116
81779,note_on,29,0,0,,,,,,,,,0,,,70,0
81780,note_on,1,0,0,,,,,,,,,0,,,67,115
81809,note_on,29,0,0,,,,,,,,,0,,,67,0
81810,note_on,1,0,0,,,,,,,,,0,,,61,115
81839,note_on,29,0,0,,,,,,,,,0,,,61,0
81840,note_on,162,0,1,,,,,,,,,0,,,31,112
81840,note_on,1,0,0,,,,,,,,,0,,,73,115
81869,note_on,29,0,0,,,,,,,,,0,,,73,0
81870,note_on,1,0,0,,,,,,,,,0,,,67,114
81899,note_on,29,0,0,,,,,,,,,0,,,67,0
81900,note_on,1,0,0,,,,,,,,,0,,,63,114
81918,note_on,78,0,1,,,,,,,,,0,,,31,0
81929,note_on,29,0,0,,,,,,,,,0,,,63,0
81930,note_on,1,0,0,,,,,,,,,0,,,58,114
81959,note_on,29,0,0,,,,,,,,,0,,,58,0
81960,note_on,1,0,0,,,,,,,,,0,,,70,113
81989,note_on,29,0,0,,,,,,,,,0,,,70,0
81990,note_on,1,0,0,,,,,,,,,0,,,63,113
82019,note_on,29,0,0,,,,,,,,,0,,,63,0
82020,note_on,1,0,0,,,,,,,,,0,,,61,112
82049,note_on,29,0,0,,,,,,,,,0,,,61,0
82050,note_on,1,0,0,,,,,,,,,0,,,55,112
82077,note_on,27,0,0,,,,,,,,,0,,,55,0
82080,note_on,162,0,1,,,,,,,,,0,,,48,127
82080,set_tempo,3,1,0,,,,,,1333333,,,,,,,
82081,control_change,1,0,1,,,,,,,64,0,0,,,,
82082,control_change,1,0,1,,,,,,,64,127,0,,,,
82103,note_on,21,0,1,,,,,,,,,0,,,55,127
82117,note_on,37,0,0,,,,,,,,,0,,,67,112
82127,note_on,24,0,1,,,,,,,,,0,,,57,127
82152,note_on,25,0,1,,,,,,,,,0,,,63,127
82153,note_on,36,0,0,,,,,,,,,0,,,67,0
82154,note_on,1,0,0,,,,,,,,,0,,,69,114
82190,note_on,36,0,0,,,,,,,,,0,,,69,0
82191,note_on,1,0,0,,,,,,,,,0,,,75,116
82227,note_on,36,0,0,,,,,,,,,0,,,75,0
82228,note_on,1,0,0,,,,,,,,,0,,,79,118
82264,note_on,36,0,0,,,,,,,,,0,,,79,0
82265,note_on,1,0,0,,,,,,,,,0,,,81,120
82301,note_on,36,0,0,,,,,,,,,0,,,81,0
82302,note_on,1,0,0,,,,,,,,,0,,,87,127
82320,note_on,168,0,1,,,,,,,,,0,,,31,112
82325,note_on,23,0,0,,,,,,,,,0,,,87,0
82338,note_on,13,0,0,,,,,,,,,0,,,81,122
82374,note_on,36,0,0,,,,,,,,,0,,,81,0
82375,note_on,1,0,0,,,,,,,,,0,,,79,122
82398,note_on,78,0,1,,,,,,,,,0,,,31,0
82411,note_on,36,0,0,,,,,,,,,0,,,79,0
82412,note_on,1,0,0,,,,,,,,,0,,,75,122
82448,note_on,36,0,0,,,,,,,,,0,,,75,0
82449,note_on,1,0,0,,,,,,,,,0,,,69,122
82485,note_on,36,0,0,,,,,,,,,0,,,69,0
82486,note_on,1,0,0,,,,,,,,,0,,,67,122
82522,note_on,36,0,0,,,,,,,,,0,,,67,0
82523,note_on,1,0,0,,,,,,,,,0,,,63,122
82523,note_on,125,0,1,,,,,,,,,0,,,63,0
82558,note_on,0,0,1,,,,,,,,,0,,,57,0
82558,note_on,35,0,1,,,,,,,,,0,,,55,0
82559,note_on,36,0,0,,,,,,,,,0,,,63,0
82559,note_on,1,0,1,,,,,,,,,0,,,48,0
82560,note_on,1,0,1,,,,,,,,,0,,,47,127
82561,control_change,1,0,1,,,,,,,64,0,0,,,,
82562,control_change,1,0,1,,,,,,,64,127,0,,,,
82583,note_on,21,0,1,,,,,,,,,0,,,55,127
82597,note_on,38,0,0,,,,,,,,,0,,,67,112
82607,note_on,24,0,1,,,,,,,,,0,,,57,127
82632,note_on,25,0,1,,,,,,,,,0,,,62,127
82633,note_on,36,0,0,,,,,,,,,0,,,67,0
82634,note_on,1,0,0,,,,,,,,,0,,,69,114
82670,note_on,36,0,0,,,,,,,,,0,,,69,0
82671,note_on,1,0,0,,,,,,,,,0,,,74,116
82707,note_on,36,0,0,,,,,,,,,0,,,74,0
82708,note_on,1,0,0,,,,,,,,,0,,,79,118
82744,note_on,36,0,0,,,,,,,,,0,,,79,0
82745,note_on,1,0,0,,,,,,,,,0,,,81,120
82781,note_on,36,0,0,,,,,,,,,0,,,81,0
82782,note_on,1,0,0,,,,,,,,,0,,,86,127
82800,note_on,168,0,1,,,,,,,,,0,,,31,112
82805,note_on,23,0,0,,,,,,,,,0,,,86,0
82818,note_on,13,0,0,,,,,,,,,0,,,81,122
82854,note_on,36,0,0,,,,,,,,,0,,,81,0
82855,note_on,1,0,0,,,,,,,,,0,,,79,122
82878,note_on,78,0,1,,,,,,,,,0,,,31,0
82891,note_on,36,0,0,,,,,,,,,0,,,79,0
82892,note_on,1,0,0,,,,,,,,,0,,,74,122
82928,note_on,36,0,0,,,,,,,,,0,,,74,0
82929,note_on,1,0,0,,,,,,,,,0,,,69,122
82965,note_on,36,0,0,,,,,,,,,0,,,69,0
82966,note_on,1,0,0,,,,,,,,,0,,,67,122
83002,note_on,36,0,0,,,,,,,,,0,,,67,0
83003,note_on,125,0,1,,,,,,,,,0,,,62,0
83003,note_on,1,0,0,,,,,,,,,0,,,62,122
83038,note_on,35,0,1,,,,,,,,,0,,,55,0
83038,note_on,0,0,1,,,,,,,,,0,,,57,0
83039,note_on,1,0,1,,,,,,,,,0,,,47,0
83039,note_on,36,0,0,,,,,,,,,0,,,62,0
83040,note_on,1,0,1,,,,,,,,,0,,,48,127
83041,control_change,1,0,1,,,,,,,64,0,0,,,,
83042,control_change,1,0,1,,,,,,,64,127,0,,,,
83063,note_on,21,0,1,,,,,,,,,0,,,55,127
83077,note_on,38,0,0,,,,,,,,,0,,,67,112
83087,note_on,24,0,1,,,,,,,,,0,,,57,127
83112,note_on,25,0,1,,,,,,,,,0,,,63,127
83113,note_on,36,0,0,,,,,,,,,0,,,67,0
83114,note_on,1,0,0,,,,,,,,,0,,,69,114
83150,note_on,36,0,0,,,,,,,,,0,,,69,0
83151,note_on,1,0,0,,,,,,,,,0,,,75,116
83187,note_on,36,0,0,,,,,,,,,0,,,75,0
83188,note_on,1,0,0,,,,,,,,,0,,,79,118
83224,note_on,36,0,0,,,,,,,,,0,,,79,0
83225,note_on,1,0,0,,,,,,,,,0,,,81,120
83261,note_on,36,0,0,,,,,,,,,0,,,81,0
83262,note_on,1,0,0,,,,,,,,,0,,,87,127
83280,note_on,168,0,1,,,,,,,,,0,,,31,112
83285,note_on,23,0,0,,,,,,,,,0,,,87,0
83298,note_on,13,0,0,,,,,,,,,0,,,81,122
83334,note_on,36,0,0,,,,,,,,,0,,,81,0
83335,note_on,1,0,0,,,,,,,,,0,,,79,122
83358,note_on,78,0,1,,,,,,,,,0,,,31,0
83371,note_on,36,0,0,,,,,,,,,0,,,79,0
83372,note_on,1,0,0,,,,,,,,,0,,,75,122
83408,note_on,36,0,0,,,,,,,,,0,,,75,0
83409,note_on,1,0,0,,,,,,,,,0,,,69,122
83445,note_on,36,0,0,,,,,,,,,0,,,69,0
83446,note_on,1,0,0,,,,,,,,,0,,,67,122
83482,note_on,36,0,0,,,,,,,,,0,,,67,0
83483,note_on,1,0,0,,,,,,,,,0,,,63,122
83483,note_on,125,0,1,,,,,,,,,0,,,63,0
83518,note_on,35,0,1,,,,,,,,,0,,,55,0
83518,note_on,0,0,1,,,,,,,,,0,,,57,0
83519,note_on,1,0,1,,,,,,,,,0,,,48,0
83519,note_on,36,0,0,,,,,,,,,0,,,63,0
83520,set_tempo,1,1,0,,,,,,1200000,,,,,,,
83520,note_on,1,0,1,,,,,,,,,0,,,55,127
83521,control_change,1,0,1,,,,,,,64,0,0,,,,
83522,control_change,1,0,1,,,,,,,64,127,0,,,,
83545,note_on,23,0,1,,,,,,,,,0,,,59,127
83550,note_on,30,0,0,,,,,,,,,0,,,79,122
83572,note_on,27,0,1,,,,,,,,,0,,,62,127
83579,note_on,29,0,0,,,,,,,,,0,,,79,0
83580,note_on,1,0,0,,,,,,,,,0,,,83,122
83599,note_on,27,0,1,,,,,,,,,0,,,67,127
83609,note_on,29,0,0,,,,,,,,,0,,,83,0
83610,note_on,1,0,0,,,,,,,,,0,,,86,122
83625,note_on,26,0,1,,,,,,,,,0,,,71,127
83639,note_on,29,0,0,,,,,,,,,0,,,86,0
83640,note_on,1,0,0,,,,,,,,,0,,,95,122
83669,note_on,29,0,0,,,,,,,,,0,,,95,0
83670,note_on,1,0,0,,,,,,,,,0,,,91,122
83699,note_on,29,0,0,,,,,,,,,0,,,91,0
83700,note_on,1,0,0,,,,,,,,,0,,,86,122
83729,note_on,29,0,0,,,,,,,,,0,,,86,0
83730,note_on,1,0,0,,,,,,,,,0,,,83,122
83759,note_on,29,0,0,,,,,,,,,0,,,83,0
83760,note_on,135,0,1,,,,,,,,,0,,,31,112
83760,note_on,1,0,0,,,,,,,,,0,,,91,122
83789,note_on,29,0,0,,,,,,,,,0,,,91,0
83790,note_on,1,0,0,,,,,,,,,0,,,86,122
83819,note_on,29,0,0,,,,,,,,,0,,,86,0
83820,note_on,1,0,0,,,,,,,,,0,,,83,122
83838,note_on,78,0,1,,,,,,,,,0,,,31,0
83849,note_on,29,0,0,,,,,,,,,0,,,83,0
83850,note_on,1,0,0,,,,,,,,,0,,,79,122
83879,note_on,29,0,0,,,,,,,,,0,,,79,0
83880,note_on,1,0,0,,,,,,,,,0,,,86,122
83909,note_on,29,0,0,,,,,,,,,0,,,86,0
83910,note_on,1,0,0,,,,,,,,,0,,,83,121
83939,note_on,29,0,0,,,,,,,,,0,,,83,0
83940,note_on,1,0,0,,,,,,,,,0,,,79,120
83969,note_on,29,0,0,,,,,,,,,0,,,79,0
83970,note_on,1,0,0,,,,,,,,,0,,,74,119
83999,note_on,29,0,0,,,,,,,,,0,,,74,0
84000,note_on,1,0,0,,,,,,,,,0,,,83,117
84000,note_on,162,0,1,,,,,,,,,0,,,31,108
84029,note_on,29,0,0,,,,,,,,,0,,,83,0
84030,note_on,1,0,0,,,,,,,,,0,,,79,116
84059,note_on,29,0,0,,,,,,,,,0,,,79,0
84060,note_on,1,0,0,,,,,,,,,0,,,74,115
84078,note_on,78,0,1,,,,,,,,,0,,,31,0
84089,note_on,29,0,0,,,,,,,,,0,,,74,0
84090,note_on,1,0,0,,,,,,,,,0,,,71,113
84090,note_on,12,0,1,,,,,,,,,0,,,71,0
84120,note_on,30,0,0,,,,,,,,,0,,,79,112
84149,note_on,29,0,0,,,,,,,,,0,,,79,0
84150,note_on,1,0,0,,,,,,,,,0,,,74,111
84179,note_on,29,0,0,,,,,,,,,0,,,74,0
84180,note_on,1,0,0,,,,,,,,,0,,,71,0
84180,note_on,0,0,0,,,,,,,,,0,,,71,109
84210,note_on,30,0,0,,,,,,,,,0,,,67,108
84210,note_on,120,0,1,,,,,,,,,0,,,67,0
84240,note_on,30,0,1,,,,,,,,,0,,,31,100
84240,note_on,30,0,0,,,,,,,,,0,,,74,107
84269,note_on,29,0,0,,,,,,,,,0,,,74,0
84270,note_on,0,0,0,,,,,,,,,0,,,71,105
84270,note_on,1,0,0,,,,,,,,,0,,,71,0
84300,note_on,0,0,0,,,,,,,,,0,,,67,104
84300,note_on,30,0,0,,,,,,,,,0,,,67,0
84318,note_on,78,0,1,,,,,,,,,0,,,31,0
84330,note_on,30,0,0,,,,,,,,,0,,,62,103
84330,note_on,12,0,1,,,,,,,,,0,,,62,0
84360,note_on,30,0,0,,,,,,,,,0,,,71,0
84360,note_on,0,0,0,,,,,,,,,0,,,71,101
84390,note_on,30,0,0,,,,,,,,,0,,,67,0
84390,note_on,0,0,0,,,,,,,,,0,,,67,100
84420,note_on,30,0,0,,,,,,,,,0,,,62,0
84420,note_on,0,0,0,,,,,,,,,0,,,62,99
84450,note_on,120,0,1,,,,,,,,,0,,,59,0
84450,note_on,30,0,0,,,,,,,,,0,,,59,98
84478,note_on,28,0,0,,,,,,,,,0,,,62,0
84478,note_on,0,0,0,,,,,,,,,0,,,71,0
84478,note_on,0,0,0,,,,,,,,,0,,,67,0
84479,note_on,1,0,0,,,,,,,,,0,,,59,0
84479,note_on,29,0,1,,,,,,,,,0,,,55,0
84480,note_on,1,0,1,,,,,,,,,0,,,31,92
84480,note_on,1,0,0,,,,,,,,,0,,,67,96
84509,note_on,29,0,0,,,,,,,,,0,,,67,0
84510,note_on,1,0,0,,,,,,,,,0,,,62,95
84539,note_on,29,0,0,,,,,,,,,0,,,62,0
84540,note_on,1,0,0,,,,,,,,,0,,,59,94
84558,note_on,78,0,1,,,,,,,,,0,,,31,0
84569,note_on,29,0,0,,,,,,,,,0,,,59,0
84570,note_on,1,0,0,,,,,,,,,0,,,55,92
84599,note_on,29,0,0,,,,,,,,,0,,,55,0
84600,note_on,1,0,0,,,,,,,,,0,,,62,91
84629,note_on,29,0,0,,,,,,,,,0,,,62,0
84630,note_on,1,0,0,,,,,,,,,0,,,59,90
84659,note_on,29,0,0,,,,,,,,,0,,,59,0
84660,note_on,1,0,0,,,,,,,,,0,,,55,88
84689,note_on,29,0,0,,,,,,,,,0,,,55,0
84690,note_on,1,0,0,,,,,,,,,0,,,50,87
84719,note_on,29,0,0,,,,,,,,,0,,,50,0
84720,note_on,1,0,0,,,,,,,,,0,,,59,86
84720,note_on,162,0,1,,,,,,,,,0,,,31,84
84759,note_on,39,0,0,,,,,,,,,0,,,59,0
84760,note_on,1,0,0,,,,,,,,,0,,,50,84
84798,note_on,78,0,1,,,,,,,,,0,,,31,0
84799,note_on,39,0,0,,,,,,,,,0,,,50,0
84800,note_on,1,0,0,,,,,,,,,0,,,47,82
84839,note_on,39,0,0,,,,,,,,,0,,,47,0
84840,note_on,1,0,0,,,,,,,,,0,,,55,80
84879,note_on,39,0,0,,,,,,,,,0,,,55,0
84880,note_on,1,0,0,,,,,,,,,0,,,50,80
84919,note_on,39,0,0,,,,,,,,,0,,,50,0
84920,note_on,1,0,0,,,,,,,,,0,,,47,80
84957,note_on,37,0,0,,,,,,,,,0,,,47,0
84960,note_on,162,0,1,,,,,,,,,0,,,41,96
84960,note_on,0,0,1,,,,,,,,,0,,,47,96
84960,note_on,0,0,1,,,,,,,,,0,,,44,96
84960,set_tempo,3,1,0,,,,,,1333333,,,,,,,
84960,note_on,0,0,1,,,,,,,,,0,,,50,96
84961,control_change,1,0,1,,,,,,,64,0,0,,,,
84962,control_change,1,0,1,,,,,,,64,127,0,,,,
84997,note_on,37,0,0,,,,,,,,,0,,,56,80
85033,note_on,36,0,0,,,,,,,,,0,,,56,0
85034,note_on,1,0,0,,,,,,,,,0,,,59,82
85070,note_on,36,0,0,,,,,,,,,0,,,59,0
85071,note_on,1,0,0,,,,,,,,,0,,,62,84
85107,note_on,36,0,0,,,,,,,,,0,,,62,0
85108,note_on,1,0,0,,,,,,,,,0,,,68,86
85144,note_on,36,0,0,,,,,,,,,0,,,68,0
85145,note_on,1,0,0,,,,,,,,,0,,,71,88
85181,note_on,36,0,0,,,,,,,,,0,,,71,0
85182,note_on,1,0,0,,,,,,,,,0,,,80,112
85200,note_on,238,0,1,,,,,,,,,0,,,31,110
85218,note_on,0,0,0,,,,,,,,,0,,,74,108
85218,note_on,36,0,0,,,,,,,,,0,,,80,0
85254,note_on,36,0,0,,,,,,,,,0,,,74,0
85255,note_on,1,0,0,,,,,,,,,0,,,71,103
85278,note_on,78,0,1,,,,,,,,,0,,,31,0
85280,note_on,2,0,1,,,,,,,,,0,,,41,0
85280,note_on,0,0,1,,,,,,,,,0,,,44,0
85280,note_on,0,0,1,,,,,,,,,0,,,47,0
85280,note_on,0,0,1,,,,,,,,,0,,,50,0
85291,note_on,36,0,0,,,,,,,,,0,,,71,0
85292,note_on,1,0,0,,,,,,,,,0,,,68,99
85328,note_on,36,0,0,,,,,,,,,0,,,68,0
85329,note_on,1,0,0,,,,,,,,,0,,,62,94
85365,note_on,36,0,0,,,,,,,,,0,,,62,0
85366,note_on,1,0,0,,,,,,,,,0,,,59,94
85402,note_on,36,0,0,,,,,,,,,0,,,59,0
85403,note_on,1,0,0,,,,,,,,,0,,,56,94
85437,note_on,34,0,0,,,,,,,,,0,,,56,0
85440,note_on,0,0,1,,,,,,,,,0,,,49,112
85440,note_on,0,0,1,,,,,,,,,0,,,44,112
85440,note_on,160,0,1,,,,,,,,,0,,,40,112
85440,note_on,0,0,1,,,,,,,,,0,,,47,112
85441,control_change,1,0,1,,,,,,,64,0,0,,,,
85442,control_change,1,0,1,,,,,,,64,127,0,,,,
85477,note_on,40,0,0,,,,,,,,,0,,,56,80
85513,note_on,36,0,0,,,,,,,,,0,,,56,0
85514,note_on,1,0,0,,,,,,,,,0,,,59,82
85550,note_on,36,0,0,,,,,,,,,0,,,59,0
85551,note_on,1,0,0,,,,,,,,,0,,,61,84
85587,note_on,36,0,0,,,,,,,,,0,,,61,0
85588,note_on,1,0,0,,,,,,,,,0,,,68,86
85624,note_on,36,0,0,,,,,,,,,0,,,68,0
85625,note_on,1,0,0,,,,,,,,,0,,,71,88
85661,note_on,36,0,0,,,,,,,,,0,,,71,0
85662,note_on,1,0,0,,,,,,,,,0,,,80,112
85680,note_on,238,0,1,,,,,,,,,0,,,31,110
85698,note_on,36,0,0,,,,,,,,,0,,,80,0
85698,note_on,0,0,0,,,,,,,,,0,,,73,108
85734,note_on,36,0,0,,,,,,,,,0,,,73,0
85735,note_on,1,0,0,,,,,,,,,0,,,71,103
85758,note_on,78,0,1,,,,,,,,,0,,,31,0
85760,note_on,0,0,1,,,,,,,,,0,,,49,0
85760,note_on,0,0,1,,,,,,,,,0,,,44,0
85760,note_on,2,0,1,,,,,,,,,0,,,40,0
85760,note_on,0,0,1,,,,,,,,,0,,,47,0
85771,note_on,36,0,0,,,,,,,,,0,,,71,0
85772,note_on,1,0,0,,,,,,,,,0,,,68,99
85808,note_on,36,0,0,,,,,,,,,0,,,68,0
85809,note_on,1,0,0,,,,,,,,,0,,,61,94
85845,note_on,36,0,0,,,,,,,,,0,,,61,0
85846,note_on,1,0,0,,,,,,,,,0,,,59,94
85882,note_on,36,0,0,,,,,,,,,0,,,59,0
85883,note_on,1,0,0,,,,,,,,,0,,,56,94
85917,note_on,34,0,0,,,,,,,,,0,,,56,0
85920,note_on,0,0,1,,,,,,,,,0,,,47,112
85920,note_on,0,0,1,,,,,,,,,0,,,44,112
85920,note_on,0,0,1,,,,,,,,,0,,,50,112
85920,note_on,160,0,1,,,,,,,,,0,,,41,112
85921,control_change,1,0,1,,,,,,,64,0,0,,,,
85922,control_change,1,0,1,,,,,,,64,127,0,,,,
85957,note_on,40,0,0,,,,,,,,,0,,,56,80
85993,note_on,36,0,0,,,,,,,,,0,,,56,0
85994,note_on,1,0,0,,,,,,,,,0,,,59,82
86030,note_on,36,0,0,,,,,,,,,0,,,59,0
86031,note_on,1,0,0,,,,,,,,,0,,,62,84
86067,note_on,36,0,0,,,,,,,,,0,,,62,0
86068,note_on,1,0,0,,,,,,,,,0,,,68,86
86104,note_on,36,0,0,,,,,,,,,0,,,68,0
86105,note_on,1,0,0,,,,,,,,,0,,,71,88
86141,note_on,36,0,0,,,,,,,,,0,,,71,0
86142,note_on,1,0,0,,,,,,,,,0,,,80,112
86160,note_on,238,0,1,,,,,,,,,0,,,31,110
86178,note_on,0,0,0,,,,,,,,,0,,,74,108
86178,note_on,36,0,0,,,,,,,,,0,,,80,0
86214,note_on,36,0,0,,,,,,,,,0,,,74,0
86215,note_on,1,0,0,,,,,,,,,0,,,71,103
86238,note_on,78,0,1,,,,,,,,,0,,,31,0
86240,note_on,2,0,1,,,,,,,,,0,,,41,0
86240,note_on,0,0,1,,,,,,,,,0,,,44,0
86240,note_on,0,0,1,,,,,,,,,0,,,47,0
86240,note_on,0,0,1,,,,,,,,,0,,,50,0
86251,note_on,36,0,0,,,,,,,,,0,,,71,0
86252,note_on,1,0,0,,,,,,,,,0,,,68,99
86288,note_on,36,0,0,,,,,,,,,0,,,68,0
86289,note_on,1,0,0,,,,,,,,,0,,,62,94
86325,note_on,36,0,0,,,,,,,,,0,,,62,0
86326,note_on,1,0,0,,,,,,,,,0,,,59,94
86362,note_on,36,0,0,,,,,,,,,0,,,59,0
86363,note_on,1,0,0,,,,,,,,,0,,,56,94
86397,note_on,34,0,0,,,,,,,,,0,,,56,0
86400,note_on,0,0,1,,,,,,,,,0,,,58,112
86400,note_on,160,0,1,,,,,,,,,0,,,43,112
86400,note_on,0,0,1,,,,,,,,,0,,,49,112
86400,note_on,0,0,1,,,,,,,,,0,,,51,112
86400,set_tempo,3,1,0,,,,,,1200000,,,,,,,
86401,control_change,1,0,1,,,,,,,64,0,0,,,,
86402,control_change,1,0,1,,,,,,,64,127,0,,,,
86430,note_on,30,0,0,,,,,,,,,0,,,73,80
86457,note_on,27,0,0,,,,,,,,,0,,,73,0
86460,note_on,3,0,0,,,,,,,,,0,,,79,80
86487,note_on,27,0,0,,,,,,,,,0,,,79,0
86490,note_on,3,0,0,,,,,,,,,0,,,82,80
86517,note_on,27,0,0,,,,,,,,,0,,,82,0
86520,note_on,3,0,0,,,,,,,,,0,,,87,80
86557,note_on,37,0,0,,,,,,,,,0,,,87,0
86560,note_on,3,0,0,,,,,,,,,0,,,79,80
86560,note_on,0,0,0,,,,,,,,,0,,,82,80
86597,note_on,37,0,0,,,,,,,,,0,,,79,0
86597,note_on,0,0,0,,,,,,,,,0,,,82,0
86600,note_on,3,0,0,,,,,,,,,0,,,73,80
86637,note_on,37,0,0,,,,,,,,,0,,,73,0
86640,note_on,3,0,0,,,,,,,,,0,,,85,80
86640,note_on,238,0,1,,,,,,,,,0,,,31,80
86677,note_on,37,0,0,,,,,,,,,0,,,85,0
86680,note_on,0,0,0,,,,,,,,,0,,,79,80
86680,note_on,3,0,0,,,,,,,,,0,,,75,80
86717,note_on,37,0,0,,,,,,,,,0,,,75,0
86717,note_on,0,0,0,,,,,,,,,0,,,79,0
86718,note_on,78,0,1,,,,,,,,,0,,,31,0
86720,note_on,3,0,0,,,,,,,,,0,,,70,80
86757,note_on,37,0,0,,,,,,,,,0,,,70,0
86760,note_on,3,0,0,,,,,,,,,0,,,82,80
86797,note_on,37,0,0,,,,,,,,,0,,,82,0
86800,note_on,0,0,0,,,,,,,,,0,,,75,80
86800,note_on,3,0,0,,,,,,,,,0,,,73,80
86837,note_on,37,0,0,,,,,,,,,0,,,73,0
86837,note_on,0,0,0,,,,,,,,,0,,,75,0
86840,note_on,3,0,0,,,,,,,,,0,,,67,80
86877,note_on,37,0,0,,,,,,,,,0,,,67,0
86880,note_on,162,0,1,,,,,,,,,0,,,31,80
86880,note_on,3,0,0,,,,,,,,,0,,,79,80
86917,note_on,37,0,0,,,,,,,,,0,,,79,0
86920,note_on,3,0,0,,,,,,,,,0,,,70,80
86920,note_on,0,0,0,,,,,,,,,0,,,73,80
86957,note_on,37,0,0,,,,,,,,,0,,,70,0
86957,note_on,0,0,0,,,,,,,,,0,,,73,0
86958,note_on,78,0,1,,,,,,,,,0,,,31,0
86960,note_on,3,0,0,,,,,,,,,0,,,63,80
86997,note_on,37,0,0,,,,,,,,,0,,,63,0
87000,note_on,3,0,0,,,,,,,,,0,,,75,80
87037,note_on,37,0,0,,,,,,,,,0,,,75,0
87040,note_on,3,0,0,,,,,,,,,0,,,67,80
87040,note_on,0,0,0,,,,,,,,,0,,,70,80
87042,note_on,84,0,1,,,,,,,,,0,,,43,0
87042,note_on,0,0,1,,,,,,,,,0,,,49,0
87042,note_on,0,0,1,,,,,,,,,0,,,51,0
87042,note_on,0,0,1,,,,,,,,,0,,,58,0
87077,note_on,0,0,0,,,,,,,,,0,,,70,0
87077,note_on,37,0,0,,,,,,,,,0,,,67,0
87080,note_on,3,0,0,,,,,,,,,0,,,61,80
87117,note_on,37,0,0,,,,,,,,,0,,,61,0
87120,note_on,78,0,1,,,,,,,,,0,,,31,80
87120,note_on,3,0,0,,,,,,,,,0,,,73,80
87157,note_on,37,0,0,,,,,,,,,0,,,73,0
87160,note_on,3,0,0,,,,,,,,,0,,,63,80
87160,note_on,0,0,0,,,,,,,,,0,,,67,80
87197,note_on,0,0,0,,,,,,,,,0,,,67,0
87197,note_on,37,0,0,,,,,,,,,0,,,63,0
87198,note_on,78,0,1,,,,,,,,,0,,,31,0
87200,note_on,3,0,0,,,,,,,,,0,,,58,80
87237,note_on,37,0,0,,,,,,,,,0,,,58,0
87240,note_on,3,0,0,,,,,,,,,0,,,70,80
87277,note_on,37,0,0,,,,,,,,,0,,,70,0
87280,note_on,0,0,0,,,,,,,,,0,,,63,80
87280,note_on,3,0,0,,,,,,,,,0,,,61,80
87317,note_on,37,0,0,,,,,,,,,0,,,61,0
87317,note_on,0,0,0,,,,,,,,,0,,,63,0
87320,note_on,3,0,0,,,,,,,,,0,,,55,80
87357,note_on,37,0,0,,,,,,,,,0,,,55,0
87360,note_on,3,0,0,,,,,,,,,0,,,67,80
87360,note_on,162,0,1,,,,,,,,,0,,,31,80
87397,note_on,37,0,0,,,,,,,,,0,,,67,0
87400,note_on,0,0,0,,,,,,,,,0,,,61,80
87400,note_on,3,0,0,,,,,,,,,0,,,58,80
87437,note_on,0,0,0,,,,,,,,,0,,,61,0
87437,note_on,37,0,0,,,,,,,,,0,,,58,0
87438,note_on,78,0,1,,,,,,,,,0,,,31,0
87440,note_on,3,0,0,,,,,,,,,0,,,51,80
87477,note_on,37,0,0,,,,,,,,,0,,,51,0
87480,note_on,3,0,0,,,,,,,,,0,,,63,80
87517,note_on,37,0,0,,,,,,,,,0,,,63,0
87520,note_on,3,0,0,,,,,,,,,0,,,55,80
87520,note_on,0,0,0,,,,,,,,,0,,,58,80
87557,note_on,0,0,0,,,,,,,,,0,,,58,0
87557,note_on,37,0,0,,,,,,,,,0,,,55,0
87560,note_on,3,0,0,,,,,,,,,0,,,49,80
87597,note_on,37,0,0,,,,,,,,,0,,,49,0
87600,note_on,3,0,0,,,,,,,,,0,,,61,80
87600,note_on,162,0,1,,,,,,,,,0,,,31,80
87637,note_on,37,0,0,,,,,,,,,0,,,61,0
87640,note_on,3,0,0,,,,,,,,,0,,,51,80
87640,note_on,0,0,0,,,,,,,,,0,,,55,80
87677,note_on,37,0,0,,,,,,,,,0,,,51,0
87677,note_on,0,0,0,,,,,,,,,0,,,55,0
87678,note_on,78,0,1,,,,,,,,,0,,,31,0
87680,note_on,3,0,0,,,,,,,,,0,,,46,80
87717,note_on,37,0,0,,,,,,,,,0,,,46,0
87720,note_on,3,0,0,,,,,,,,,0,,,58,80
87757,note_on,37,0,0,,,,,,,,,0,,,58,0
87760,note_on,0,0,0,,,,,,,,,0,,,51,80
87760,note_on,3,0,0,,,,,,,,,0,,,49,80
87797,note_on,37,0,0,,,,,,,,,0,,,49,0
87797,note_on,0,0,0,,,,,,,,,0,,,51,0
87800,note_on,3,0,0,,,,,,,,,0,,,43,80
87837,note_on,37,0,0,,,,,,,,,0,,,43,0
87840,note_on,0,0,1,,,,,,,,,0,,,45,96
87840,note_on,0,0,1,,,,,,,,,0,,,48,96
87840,note_on,0,0,1,,,,,,,,,0,,,51,96
87840,set_tempo,3,1,0,,,,,,1333333,,,,,,,
87840,note_on,162,0,1,,,,,,,,,0,,,42,96
87841,control_change,1,0,1,,,,,,,64,0,0,,,,
87842,control_change,1,0,1,,,,,,,64,127,0,,,,
87880,note_on,40,0,0,,,,,,,,,0,,,54,80
87919,note_on,39,0,0,,,,,,,,,0,,,54,0
87920,note_on,1,0,0,,,,,,,,,0,,,57,80
87959,note_on,39,0,0,,,,,,,,,0,,,57,0
87960,note_on,1,0,0,,,,,,,,,0,,,63,80
87999,note_on,39,0,0,,,,,,,,,0,,,63,0
88000,note_on,1,0,0,,,,,,,,,0,,,66,80
88039,note_on,39,0,0,,,,,,,,,0,,,66,0
88040,note_on,1,0,0,,,,,,,,,0,,,75,80
88079,note_on,39,0,0,,,,,,,,,0,,,75,0
88080,note_on,238,0,1,,,,,,,,,0,,,31,80
88080,note_on,1,0,0,,,,,,,,,0,,,69,80
88119,note_on,39,0,0,,,,,,,,,0,,,69,0
88120,note_on,1,0,0,,,,,,,,,0,,,66,80
88158,note_on,78,0,1,,,,,,,,,0,,,31,0
88159,note_on,39,0,0,,,,,,,,,0,,,66,0
88160,note_on,1,0,0,,,,,,,,,0,,,63,80
88199,note_on,39,0,0,,,,,,,,,0,,,63,0
88200,note_on,1,0,0,,,,,,,,,0,,,57,80
88239,note_on,39,0,0,,,,,,,,,0,,,57,0
88240,note_on,1,0,0,,,,,,,,,0,,,54,80
88279,note_on,39,0,0,,,,,,,,,0,,,54,0
88280,note_on,1,0,0,,,,,,,,,0,,,51,80
88280,note_on,122,0,1,,,,,,,,,0,,,51,0
88319,note_on,0,0,1,,,,,,,,,0,,,48,0
88319,note_on,39,0,0,,,,,,,,,0,,,51,0
88319,note_on,0,0,1,,,,,,,,,0,,,45,0
88319,note_on,39,0,1,,,,,,,,,0,,,42,0
88320,note_on,1,0,1,,,,,,,,,0,,,42,96
88320,note_on,0,0,1,,,,,,,,,0,,,45,96
88320,note_on,0,0,1,,,,,,,,,0,,,47,96
88320,note_on,0,0,1,,,,,,,,,0,,,50,96
88321,control_change,1,0,1,,,,,,,64,0,0,,,,
88322,control_change,1,0,1,,,,,,,64,127,0,,,,
88360,note_on,41,0,0,,,,,,,,,0,,,54,80
88399,note_on,39,0,0,,,,,,,,,0,,,54,0
88400,note_on,1,0,0,,,,,,,,,0,,,57,80
88439,note_on,39,0,0,,,,,,,,,0,,,57,0
88440,note_on,1,0,0,,,,,,,,,0,,,62,80
88479,note_on,39,0,0,,,,,,,,,0,,,62,0
88480,note_on,1,0,0,,,,,,,,,0,,,66,80
88519,note_on,39,0,0,,,,,,,,,0,,,66,0
88520,note_on,1,0,0,,,,,,,,,0,,,74,80
88559,note_on,39,0,0,,,,,,,,,0,,,74,0
88560,note_on,1,0,0,,,,,,,,,0,,,69,80
88560,note_on,238,0,1,,,,,,,,,0,,,31,80
88599,note_on,39,0,0,,,,,,,,,0,,,69,0
88600,note_on,1,0,0,,,,,,,,,0,,,66,80
88638,note_on,78,0,1,,,,,,,,,0,,,31,0
88639,note_on,39,0,0,,,,,,,,,0,,,66,0
88640,note_on,1,0,0,,,,,,,,,0,,,62,80
88679,note_on,39,0,0,,,,,,,,,0,,,62,0
88680,note_on,1,0,0,,,,,,,,,0,,,57,80
88719,note_on,39,0,0,,,,,,,,,0,,,57,0
88720,note_on,1,0,0,,,,,,,,,0,,,54,80
88759,note_on,39,0,0,,,,,,,,,0,,,54,0
88760,note_on,1,0,0,,,,,,,,,0,,,50,80
88760,note_on,122,0,1,,,,,,,,,0,,,50,0
88799,note_on,39,0,0,,,,,,,,,0,,,50,0
88799,note_on,39,0,1,,,,,,,,,0,,,42,0
88799,note_on,0,0,1,,,,,,,,,0,,,47,0
88799,note_on,0,0,1,,,,,,,,,0,,,45,0
88800,note_on,1,0,1,,,,,,,,,0,,,42,96
88800,note_on,0,0,1,,,,,,,,,0,,,45,96
88800,note_on,0,0,1,,,,,,,,,0,,,48,96
88800,note_on,0,0,1,,,,,,,,,0,,,51,96
88801,control_change,1,0,1,,,,,,,64,0,0,,,,
88802,control_change,1,0,1,,,,,,,64,127,0,,,,
88840,note_on,41,0,0,,,,,,,,,0,,,54,80
88879,note_on,39,0,0,,,,,,,,,0,,,54,0
88880,note_on,1,0,0,,,,,,,,,0,,,57,80
88919,note_on,39,0,0,,,,,,,,,0,,,57,0
88920,note_on,1,0,0,,,,,,,,,0,,,63,80
88959,note_on,39,0,0,,,,,,,,,0,,,63,0
88960,note_on,1,0,0,,,,,,,,,0,,,66,80
88999,note_on,39,0,0,,,,,,,,,0,,,66,0
89000,note_on,1,0,0,,,,,,,,,0,,,75,80
89039,note_on,39,0,0,,,,,,,,,0,,,75,0
89040,note_on,1,0,0,,,,,,,,,0,,,69,80
89040,note_on,238,0,1,,,,,,,,,0,,,31,80
89079,note_on,39,0,0,,,,,,,,,0,,,69,0
89080,note_on,1,0,0,,,,,,,,,0,,,66,80
89118,note_on,78,0,1,,,,,,,,,0,,,31,0
89119,note_on,39,0,0,,,,,,,,,0,,,66,0
89120,note_on,1,0,0,,,,,,,,,0,,,63,80
89159,note_on,39,0,0,,,,,,,,,0,,,63,0
89160,note_on,1,0,0,,,,,,,,,0,,,57,80
89199,note_on,39,0,0,,,,,,,,,0,,,57,0
89200,note_on,1,0,0,,,,,,,,,0,,,54,80
89239,note_on,39,0,0,,,,,,,,,0,,,54,0
89240,note_on,1,0,0,,,,,,,,,0,,,51,80
89240,note_on,122,0,1,,,,,,,,,0,,,51,0
89279,note_on,0,0,1,,,,,,,,,0,,,45,0
89279,note_on,0,0,1,,,,,,,,,0,,,48,0
89279,note_on,39,0,1,,,,,,,,,0,,,42,0
89279,note_on,39,0,0,,,,,,,,,0,,,51,0
89280,note_on,0,0,1,,,,,,,,,0,,,47,96
89280,note_on,1,0,1,,,,,,,,,0,,,43,96
89280,note_on,0,0,1,,,,,,,,,0,,,59,96
89280,note_on,0,0,1,,,,,,,,,0,,,50,96
89281,control_change,1,0,1,,,,,,,64,0,0,,,,
89282,control_change,3,0,0,,,,,,,64,127,0,,,,
89310,note_on,28,0,0,,,,,,,,,0,,,67,80
89339,note_on,29,0,0,,,,,,,,,0,,,67,0
89340,note_on,1,0,0,,,,,,,,,0,,,71,80
89369,note_on,29,0,0,,,,,,,,,0,,,71,0
89370,note_on,1,0,0,,,,,,,,,0,,,74,80
89399,note_on,29,0,0,,,,,,,,,0,,,74,0
89400,note_on,1,0,0,,,,,,,,,0,,,83,80
89439,note_on,39,0,0,,,,,,,,,0,,,83,0
89440,note_on,1,0,0,,,,,,,,,0,,,74,80
89440,note_on,0,0,0,,,,,,,,,0,,,79,80
89479,note_on,0,0,0,,,,,,,,,0,,,79,0
89479,note_on,39,0,0,,,,,,,,,0,,,74,0
89480,note_on,1,0,0,,,,,,,,,0,,,71,80
89519,note_on,39,0,0,,,,,,,,,0,,,71,0
89520,note_on,239,0,1,,,,,,,,,0,,,31,80
89520,note_on,1,0,0,,,,,,,,,0,,,79,80
89559,note_on,39,0,0,,,,,,,,,0,,,79,0
89560,note_on,1,0,0,,,,,,,,,0,,,71,80
89560,note_on,0,0,0,,,,,,,,,0,,,74,80
89598,note_on,78,0,1,,,,,,,,,0,,,31,0
89599,note_on,39,0,0,,,,,,,,,0,,,71,0
89599,note_on,0,0,0,,,,,,,,,0,,,74,0
89600,note_on,1,0,0,,,,,,,,,0,,,67,80
89639,note_on,39,0,0,,,,,,,,,0,,,67,0
89640,note_on,1,0,0,,,,,,,,,0,,,76,80
89679,note_on,39,0,0,,,,,,,,,0,,,76,0
89680,note_on,0,0,0,,,,,,,,,0,,,71,80
89680,note_on,1,0,0,,,,,,,,,0,,,67,80
89719,note_on,39,0,0,,,,,,,,,0,,,67,0
89719,note_on,0,0,0,,,,,,,,,0,,,71,0
89720,note_on,1,0,0,,,,,,,,,0,,,64,80
89759,note_on,39,0,0,,,,,,,,,0,,,64,0
89760,note_on,162,0,1,,,,,,,,,0,,,31,80
89760,note_on,1,0,0,,,,,,,,,0,,,74,80
89799,note_on,39,0,0,,,,,,,,,0,,,74,0
89800,note_on,0,0,0,,,,,,,,,0,,,71,80
89800,note_on,1,0,0,,,,,,,,,0,,,67,80
89838,note_on,78,0,1,,,,,,,,,0,,,31,0
89839,note_on,39,0,0,,,,,,,,,0,,,67,0
89839,note_on,0,0,0,,,,,,,,,0,,,71,0
89840,note_on,1,0,0,,,,,,,,,0,,,62,80
89879,note_on,39,0,0,,,,,,,,,0,,,62,0
89880,note_on,1,0,0,,,,,,,,,0,,,71,80
89919,note_on,39,0,0,,,,,,,,,0,,,71,0
89920,note_on,1,0,0,,,,,,,,,0,,,62,80
89920,note_on,0,0,0,,,,,,,,,0,,,67,80
89922,note_on,0,0,1,,,,,,,,,0,,,59,0
89922,note_on,0,0,1,,,,,,,,,0,,,50,0
89922,note_on,0,0,1,,,,,,,,,0,,,47,0
89922,note_on,84,0,1,,,,,,,,,0,,,43,0
89959,note_on,0,0,0,,,,,,,,,0,,,67,0
89959,note_on,39,0,0,,,,,,,,,0,,,62,0
89960,note_on,1,0,0,,,,,,,,,0,,,59,80
89999,note_on,39,0,0,,,,,,,,,0,,,59,0
90000,note_on,1,0,0,,,,,,,,,0,,,67,80
90000,note_on,78,0,1,,,,,,,,,0,,,31,80
90039,note_on,39,0,0,,,,,,,,,0,,,67,0
90040,note_on,0,0,0,,,,,,,,,0,,,62,80
90040,note_on,1,0,0,,,,,,,,,0,,,59,80
90078,note_on,78,0,1,,,,,,,,,0,,,31,0
90079,note_on,39,0,0,,,,,,,,,0,,,59,0
90079,note_on,0,0,0,,,,,,,,,0,,,62,0
90080,note_on,1,0,0,,,,,,,,,0,,,55,80
90119,note_on,39,0,0,,,,,,,,,0,,,55,0
90120,note_on,1,0,0,,,,,,,,,0,,,64,80
90159,note_on,39,0,0,,,,,,,,,0,,,64,0
90160,note_on,1,0,0,,,,,,,,,0,,,55,80
90160,note_on,0,0,0,,,,,,,,,0,,,59,80
90199,note_on,39,0,0,,,,,,,,,0,,,55,0
90199,note_on,0,0,0,,,,,,,,,0,,,59,0
90200,note_on,1,0,0,,,,,,,,,0,,,52,80
90239,note_on,39,0,0,,,,,,,,,0,,,52,0
90240,note_on,1,0,0,,,,,,,,,0,,,62,80
90240,note_on,162,0,1,,,,,,,,,0,,,31,80
90279,note_on,39,0,0,,,,,,,,,0,,,62,0
90280,note_on,0,0,0,,,,,,,,,0,,,59,80
90280,note_on,1,0,0,,,,,,,,,0,,,55,80
90318,note_on,78,0,1,,,,,,,,,0,,,31,0
90319,note_on,39,0,0,,,,,,,,,0,,,55,0
90319,note_on,0,0,0,,,,,,,,,0,,,59,0
90320,note_on,1,0,0,,,,,,,,,0,,,50,80
90359,note_on,39,0,0,,,,,,,,,0,,,50,0
90360,note_on,1,0,0,,,,,,,,,0,,,59,80
90399,note_on,39,0,0,,,,,,,,,0,,,59,0
90400,note_on,0,0,0,,,,,,,,,0,,,55,80
90400,note_on,1,0,0,,,,,,,,,0,,,50,80
90439,note_on,0,0,0,,,,,,,,,0,,,55,0
90439,note_on,39,0,0,,,,,,,,,0,,,50,0
90440,note_on,1,0,0,,,,,,,,,0,,,47,80
90479,note_on,39,0,0,,,,,,,,,0,,,47,0
90480,note_on,1,0,0,,,,,,,,,0,,,62,80
90480,note_on,162,0,1,,,,,,,,,0,,,31,80
90519,note_on,39,0,0,,,,,,,,,0,,,62,0
90520,note_on,0,0,0,,,,,,,,,0,,,59,80
90520,note_on,1,0,0,,,,,,,,,0,,,55,80
90558,note_on,78,0,1,,,,,,,,,0,,,31,0
90559,note_on,0,0,0,,,,,,,,,0,,,59,0
90559,note_on,39,0,0,,,,,,,,,0,,,55,0
90560,note_on,1,0,0,,,,,,,,,0,,,50,80
90599,note_on,39,0,0,,,,,,,,,0,,,50,0
90600,note_on,1,0,0,,,,,,,,,0,,,64,80
90639,note_on,39,0,0,,,,,,,,,0,,,64,0
90640,note_on,1,0,0,,,,,,,,,0,,,55,80
90640,note_on,0,0,0,,,,,,,,,0,,,59,80
90679,note_on,0,0,0,,,,,,,,,0,,,59,0
90679,note_on,39,0,0,,,,,,,,,0,,,55,0
90680,note_on,1,0,0,,,,,,,,,0,,,52,80
90717,note_on,37,0,0,,,,,,,,,0,,,52,0
90720,note_on,3,0,0,,,,,,,,,0,,,50,96
90720,note_on,162,0,1,,,,,,,,,0,,,35,96
90720,note_on,0,0,1,,,,,,,,,0,,,41,96
90721,control_change,1,0,0,,,,,,,64,0,0,,,,
90722,control_change,2,0,1,,,,,,,64,127,0,,,,
90758,note_on,36,0,1,,,,,,,,,0,,,35,0
90758,note_on,37,0,0,,,,,,,,,0,,,50,0
90758,note_on,0,0,1,,,,,,,,,0,,,41,0
90759,note_on,1,0,1,,,,,,,,,0,,,44,94
90759,note_on,1,0,0,,,,,,,,,0,,,62,94
90797,note_on,38,0,1,,,,,,,,,0,,,44,0
90797,note_on,38,0,0,,,,,,,,,0,,,62,0
90799,note_on,2,0,1,,,,,,,,,0,,,35,92
90799,note_on,0,0,1,,,,,,,,,0,,,41,92
90799,note_on,2,0,0,,,,,,,,,0,,,50,92
90837,note_on,0,0,1,,,,,,,,,0,,,41,0
90837,note_on,38,0,1,,,,,,,,,0,,,35,0
90837,note_on,38,0,0,,,,,,,,,0,,,50,0
90839,note_on,2,0,1,,,,,,,,,0,,,44,89
90839,note_on,2,0,0,,,,,,,,,0,,,62,89
90877,note_on,38,0,0,,,,,,,,,0,,,62,0
90877,note_on,38,0,1,,,,,,,,,0,,,44,0
90879,note_on,2,0,0,,,,,,,,,0,,,50,87
90879,note_on,0,0,1,,,,,,,,,0,,,41,87
90879,note_on,2,0,1,,,,,,,,,0,,,35,87
90917,note_on,38,0,0,,,,,,,,,0,,,50,0
90917,note_on,0,0,1,,,,,,,,,0,,,41,0
90917,note_on,38,0,1,,,,,,,,,0,,,35,0
90919,note_on,2,0,1,,,,,,,,,0,,,44,84
90919,note_on,2,0,0,,,,,,,,,0,,,62,84
90957,note_on,38,0,1,,,,,,,,,0,,,44,0
90957,note_on,38,0,0,,,,,,,,,0,,,62,0
90959,note_on,0,0,1,,,,,,,,,0,,,41,82
90959,note_on,2,0,1,,,,,,,,,0,,,35,82
90959,note_on,2,0,0,,,,,,,,,0,,,50,82
90997,note_on,0,0,1,,,,,,,,,0,,,41,0
90997,note_on,38,0,0,,,,,,,,,0,,,50,0
90997,note_on,38,0,1,,,,,,,,,0,,,35,0
90998,note_on,1,0,0,,,,,,,,,0,,,62,81
90998,note_on,1,0,1,,,,,,,,,0,,,44,81
91036,note_on,38,0,0,,,,,,,,,0,,,62,0
91036,note_on,38,0,1,,,,,,,,,0,,,44,0
91038,note_on,0,0,1,,,,,,,,,0,,,41,81
91038,note_on,2,0,1,,,,,,,,,0,,,35,81
91038,note_on,2,0,0,,,,,,,,,0,,,50,81
91076,note_on,38,0,0,,,,,,,,,0,,,50,0
91076,note_on,0,0,1,,,,,,,,,0,,,41,0
91076,note_on,38,0,1,,,,,,,,,0,,,35,0
91078,note_on,2,0,1,,,,,,,,,0,,,44,81
91078,note_on,2,0,0,,,,,,,,,0,,,62,81
91116,note_on,38,0,0,,,,,,,,,0,,,62,0
91116,note_on,38,0,1,,,,,,,,,0,,,44,0
91118,note_on,2,0,0,,,,,,,,,0,,,50,81
91118,note_on,0,0,1,,,,,,,,,0,,,41,81
91118,note_on,2,0,1,,,,,,,,,0,,,35,81
91156,note_on,38,0,0,,,,,,,,,0,,,50,0
91156,note_on,0,0,1,,,,,,,,,0,,,41,0
91156,note_on,38,0,1,,,,,,,,,0,,,35,0
91158,note_on,2,0,1,,,,,,,,,0,,,44,81
91158,note_on,2,0,0,,,,,,,,,0,,,62,81
91196,note_on,38,0,1,,,,,,,,,0,,,44,0
91196,note_on,38,0,0,,,,,,,,,0,,,62,0
91200,note_on,0,0,1,,,,,,,,,0,,,41,96
91200,note_on,4,0,1,,,,,,,,,0,,,35,96
91200,note_on,4,0,0,,,,,,,,,0,,,49,96
91201,control_change,1,0,1,,,,,,,64,0,0,,,,
91202,control_change,1,0,1,,,,,,,64,127,0,,,,
91238,note_on,38,0,0,,,,,,,,,0,,,49,0
91238,note_on,36,0,1,,,,,,,,,0,,,35,0
91238,note_on,0,0,1,,,,,,,,,0,,,41,0
91239,note_on,1,0,0,,,,,,,,,0,,,61,94
91239,note_on,1,0,1,,,,,,,,,0,,,44,94
91277,note_on,38,0,0,,,,,,,,,0,,,61,0
91277,note_on,38,0,1,,,,,,,,,0,,,44,0
91279,note_on,2,0,1,,,,,,,,,0,,,35,92
91279,note_on,2,0,0,,,,,,,,,0,,,49,92
91279,note_on,0,0,1,,,,,,,,,0,,,41,92
91317,note_on,38,0,1,,,,,,,,,0,,,35,0
91317,note_on,38,0,0,,,,,,,,,0,,,49,0
91317,note_on,0,0,1,,,,,,,,,0,,,41,0
91319,note_on,2,0,0,,,,,,,,,0,,,61,89
91319,note_on,2,0,1,,,,,,,,,0,,,44,89
91357,note_on,38,0,0,,,,,,,,,0,,,61,0
91357,note_on,38,0,1,,,,,,,,,0,,,44,0
91359,note_on,0,0,1,,,,,,,,,0,,,41,87
91359,note_on,2,0,0,,,,,,,,,0,,,49,87
91359,note_on,2,0,1,,,,,,,,,0,,,35,87
91397,note_on,0,0,1,,,,,,,,,0,,,41,0
91397,note_on,38,0,0,,,,,,,,,0,,,49,0
91397,note_on,38,0,1,,,,,,,,,0,,,35,0
91399,note_on,2,0,0,,,,,,,,,0,,,61,84
91399,note_on,2,0,1,,,,,,,,,0,,,44,84
91437,note_on,38,0,0,,,,,,,,,0,,,61,0
91437,note_on,38,0,1,,,,,,,,,0,,,44,0
91439,note_on,2,0,1,,,,,,,,,0,,,35,82
91439,note_on,2,0,0,,,,,,,,,0,,,49,82
91439,note_on,0,0,1,,,,,,,,,0,,,41,82
91477,note_on,38,0,1,,,,,,,,,0,,,35,0
91477,note_on,0,0,1,,,,,,,,,0,,,41,0
91477,note_on,38,0,0,,,,,,,,,0,,,49,0
91478,note_on,1,0,1,,,,,,,,,0,,,44,81
91478,note_on,1,0,0,,,,,,,,,0,,,61,81
91516,note_on,38,0,0,,,,,,,,,0,,,61,0
91516,note_on,38,0,1,,,,,,,,,0,,,44,0
91518,note_on,2,0,1,,,,,,,,,0,,,35,81
91518,note_on,2,0,0,,,,,,,,,0,,,49,81
91518,note_on,0,0,1,,,,,,,,,0,,,41,81
91556,note_on,38,0,0,,,,,,,,,0,,,49,0
91556,note_on,38,0,1,,,,,,,,,0,,,35,0
91556,note_on,0,0,1,,,,,,,,,0,,,41,0
91558,note_on,2,0,1,,,,,,,,,0,,,44,81
91558,note_on,2,0,0,,,,,,,,,0,,,61,81
91596,note_on,38,0,0,,,,,,,,,0,,,61,0
91596,note_on,38,0,1,,,,,,,,,0,,,44,0
91598,note_on,2,0,0,,,,,,,,,0,,,49,81
91598,note_on,2,0,1,,,,,,,,,0,,,35,81
91598,note_on,0,0,1,,,,,,,,,0,,,41,81
91636,note_on,0,0,1,,,,,,,,,0,,,41,0
91636,note_on,38,0,0,,,,,,,,,0,,,49,0
91636,note_on,38,0,1,,,,,,,,,0,,,35,0
91638,note_on,2,0,0,,,,,,,,,0,,,61,81
91638,note_on,2,0,1,,,,,,,,,0,,,44,81
91676,note_on,38,0,1,,,,,,,,,0,,,44,0
91676,note_on,38,0,0,,,,,,,,,0,,,61,0
91680,note_on,4,0,1,,,,,,,,,0,,,36,96
91680,note_on,0,0,0,,,,,,,,,0,,,51,96
91680,note_on,0,0,1,,,,,,,,,0,,,42,96
91680,note_on,0,0,0,,,,,,,,,0,,,51,0
91680,note_on,4,0,0,,,,,,,,,0,,,51,96
91681,control_change,1,0,1,,,,,,,64,0,0,,,,
91682,control_change,1,0,1,,,,,,,64,127,0,,,,
91718,note_on,0,0,1,,,,,,,,,0,,,42,0
91718,note_on,36,0,1,,,,,,,,,0,,,36,0
91719,note_on,1,0,1,,,,,,,,,0,,,45,94
91720,note_on,40,0,0,,,,,,,,,0,,,63,93
91757,note_on,38,0,1,,,,,,,,,0,,,45,0
91759,note_on,0,0,1,,,,,,,,,0,,,42,91
91759,note_on,2,0,1,,,,,,,,,0,,,36,91
91759,note_on,39,0,0,,,,,,,,,0,,,63,0
91760,note_on,0,0,0,,,,,,,,,0,,,51,90
91760,note_on,1,0,0,,,,,,,,,0,,,51,0
91797,note_on,0,0,1,,,,,,,,,0,,,42,0
91797,note_on,38,0,1,,,,,,,,,0,,,36,0
91799,note_on,2,0,1,,,,,,,,,0,,,45,88
91800,note_on,40,0,0,,,,,,,,,0,,,63,87
91837,note_on,38,0,1,,,,,,,,,0,,,45,0
91839,note_on,0,0,1,,,,,,,,,0,,,42,85
91839,note_on,2,0,1,,,,,,,,,0,,,36,85
91839,note_on,39,0,0,,,,,,,,,0,,,63,0
91840,note_on,0,0,0,,,,,,,,,0,,,51,84
91840,note_on,1,0,0,,,,,,,,,0,,,51,0
91877,note_on,0,0,1,,,,,,,,,0,,,42,0
91877,note_on,38,0,1,,,,,,,,,0,,,36,0
91879,note_on,2,0,1,,,,,,,,,0,,,45,82
91880,note_on,40,0,0,,,,,,,,,0,,,63,81
91917,note_on,38,0,1,,,,,,,,,0,,,45,0
91919,note_on,0,0,1,,,,,,,,,0,,,42,81
91919,note_on,0,0,0,,,,,,,,,0,,,63,0
91919,note_on,2,0,1,,,,,,,,,0,,,36,81
91919,note_on,39,0,0,,,,,,,,,0,,,51,0
91920,note_on,0,0,0,,,,,,,,,0,,,50,0
91920,note_on,1,0,0,,,,,,,,,0,,,50,81
91920,note_on,0,0,0,,,,,,,,,0,,,50,81
91957,note_on,0,0,1,,,,,,,,,0,,,42,0
91957,note_on,38,0,1,,,,,,,,,0,,,36,0
91958,note_on,1,0,1,,,,,,,,,0,,,45,81
91960,note_on,40,0,0,,,,,,,,,0,,,62,81
91996,note_on,38,0,1,,,,,,,,,0,,,45,0
91998,note_on,0,0,1,,,,,,,,,0,,,42,81
91998,note_on,2,0,1,,,,,,,,,0,,,36,81
91999,note_on,39,0,0,,,,,,,,,0,,,62,0
92000,note_on,0,0,0,,,,,,,,,0,,,50,81
92000,note_on,1,0,0,,,,,,,,,0,,,50,0
92036,note_on,0,0,1,,,,,,,,,0,,,42,0
92036,note_on,38,0,1,,,,,,,,,0,,,36,0
92038,note_on,2,0,1,,,,,,,,,0,,,45,81
92040,note_on,40,0,0,,,,,,,,,0,,,62,81
92076,note_on,38,0,1,,,,,,,,,0,,,45,0
92078,note_on,0,0,1,,,,,,,,,0,,,42,81
92078,note_on,2,0,1,,,,,,,,,0,,,36,81
92079,note_on,39,0,0,,,,,,,,,0,,,62,0
92080,note_on,1,0,0,,,,,,,,,0,,,50,0
92080,note_on,0,0,0,,,,,,,,,0,,,50,81
92116,note_on,38,0,1,,,,,,,,,0,,,36,0
92116,note_on,0,0,1,,,,,,,,,0,,,42,0
92118,note_on,2,0,1,,,,,,,,,0,,,45,81
92120,note_on,40,0,0,,,,,,,,,0,,,62,81
92156,note_on,38,0,1,,,,,,,,,0,,,45,0
92157,note_on,37,0,0,,,,,,,,,0,,,62,0
92159,note_on,2,0,0,,,,,,,,,0,,,50,0
92160,note_on,4,0,1,,,,,,,,,0,,,43,97
92160,note_on,0,0,1,,,,,,,,,0,,,50,97
92160,set_tempo,1,1,0,,,,,,1200000,,,,,,,
92160,note_on,0,0,1,,,,,,,,,0,,,59,97
92160,note_on,0,0,1,,,,,,,,,0,,,47,97
92161,control_change,1,0,1,,,,,,,64,0,0,,,,
92162,control_change,2,0,0,,,,,,,64,127,0,,,,
92200,note_on,38,0,0,,,,,,,,,0,,,83,96
92239,note_on,39,0,0,,,,,,,,,0,,,83,0
92240,note_on,1,0,0,,,,,,,,,0,,,86,96
92279,note_on,39,0,0,,,,,,,,,0,,,86,0
92280,note_on,1,0,0,,,,,,,,,0,,,95,95
92319,note_on,39,0,0,,,,,,,,,0,,,95,0
92320,note_on,1,0,0,,,,,,,,,0,,,86,94
92320,note_on,0,0,0,,,,,,,,,0,,,91,94
92359,note_on,39,0,0,,,,,,,,,0,,,86,0
92359,note_on,0,0,0,,,,,,,,,0,,,91,0
92360,note_on,1,0,0,,,,,,,,,0,,,83,93
92399,note_on,39,0,0,,,,,,,,,0,,,83,0
92400,note_on,1,0,0,,,,,,,,,0,,,91,92
92400,note_on,239,0,1,,,,,,,,,0,,,31,92
92439,note_on,39,0,0,,,,,,,,,0,,,91,0
92440,note_on,1,0,0,,,,,,,,,0,,,83,91
92440,note_on,0,0,0,,,,,,,,,0,,,86,91
92478,note_on,78,0,1,,,,,,,,,0,,,31,0
92479,note_on,0,0,0,,,,,,,,,0,,,86,0
92479,note_on,39,0,0,,,,,,,,,0,,,83,0
92480,note_on,1,0,0,,,,,,,,,0,,,79,90
92519,note_on,39,0,0,,,,,,,,,0,,,79,0
92520,note_on,1,0,0,,,,,,,,,0,,,88,89
92559,note_on,39,0,0,,,,,,,,,0,,,88,0
92560,note_on,1,0,0,,,,,,,,,0,,,79,88
92560,note_on,0,0,0,,,,,,,,,0,,,83,88
92599,note_on,0,0,0,,,,,,,,,0,,,83,0
92599,note_on,39,0,0,,,,,,,,,0,,,79,0
92600,note_on,1,0,0,,,,,,,,,0,,,76,87
92639,note_on,39,0,0,,,,,,,,,0,,,76,0
92640,note_on,1,0,0,,,,,,,,,0,,,86,86
92640,note_on,162,0,1,,,,,,,,,0,,,31,86
92679,note_on,39,0,0,,,,,,,,,0,,,86,0
92680,note_on,0,0,0,,,,,,,,,0,,,83,85
92680,note_on,1,0,0,,,,,,,,,0,,,79,85
92718,note_on,78,0,1,,,,,,,,,0,,,31,0
92719,note_on,39,0,0,,,,,,,,,0,,,79,0
92719,note_on,0,0,0,,,,,,,,,0,,,83,0
92720,note_on,1,0,0,,,,,,,,,0,,,74,84
92759,note_on,39,0,0,,,,,,,,,0,,,74,0
92760,note_on,1,0,0,,,,,,,,,0,,,83,83
92799,note_on,39,0,0,,,,,,,,,0,,,83,0
92800,note_on,0,0,0,,,,,,,,,0,,,79,82
92800,note_on,1,0,0,,,,,,,,,0,,,74,82
92802,note_on,0,0,1,,,,,,,,,0,,,47,0
92802,note_on,0,0,1,,,,,,,,,0,,,50,0
92802,note_on,0,0,1,,,,,,,,,0,,,59,0
92802,note_on,84,0,1,,,,,,,,,0,,,43,0
92839,note_on,39,0,0,,,,,,,,,0,,,74,0
92839,note_on,0,0,0,,,,,,,,,0,,,79,0
92840,note_on,1,0,0,,,,,,,,,0,,,71,80
92879,note_on,39,0,0,,,,,,,,,0,,,71,0
92880,note_on,78,0,1,,,,,,,,,0,,,31,80
92880,note_on,1,0,0,,,,,,,,,0,,,79,80
92919,note_on,39,0,0,,,,,,,,,0,,,79,0
92920,note_on,1,0,0,,,,,,,,,0,,,71,80
92920,note_on,0,0,0,,,,,,,,,0,,,74,80
92958,note_on,78,0,1,,,,,,,,,0,,,31,0
92959,note_on,39,0,0,,,,,,,,,0,,,71,0
92959,note_on,0,0,0,,,,,,,,,0,,,74,0
92960,note_on,1,0,0,,,,,,,,,0,,,67,80
92999,note_on,39,0,0,,,,,,,,,0,,,67,0
93000,note_on,1,0,0,,,,,,,,,0,,,76,80
93039,note_on,39,0,0,,,,,,,,,0,,,76,0
93040,note_on,1,0,0,,,,,,,,,0,,,67,80
93040,note_on,0,0,0,,,,,,,,,0,,,71,80
93079,note_on,39,0,0,,,,,,,,,0,,,67,0
93079,note_on,0,0,0,,,,,,,,,0,,,71,0
93080,note_on,1,0,0,,,,,,,,,0,,,64,80
93119,note_on,39,0,0,,,,,,,,,0,,,64,0
93120,note_on,1,0,0,,,,,,,,,0,,,74,80
93120,note_on,162,0,1,,,,,,,,,0,,,31,80
93159,note_on,39,0,0,,,,,,,,,0,,,74,0
93160,note_on,0,0,0,,,,,,,,,0,,,71,80
93160,note_on,1,0,0,,,,,,,,,0,,,67,80
93198,note_on,78,0,1,,,,,,,,,0,,,31,0
93199,note_on,0,0,0,,,,,,,,,0,,,71,0
93199,note_on,39,0,0,,,,,,,,,0,,,67,0
93200,note_on,1,0,0,,,,,,,,,0,,,62,80
93239,note_on,39,0,0,,,,,,,,,0,,,62,0
93240,note_on,1,0,0,,,,,,,,,0,,,71,79
93279,note_on,39,0,0,,,,,,,,,0,,,71,0
93280,note_on,0,0,0,,,,,,,,,0,,,67,79
93280,note_on,1,0,0,,,,,,,,,0,,,62,79
93319,note_on,39,0,0,,,,,,,,,0,,,62,0
93319,note_on,0,0,0,,,,,,,,,0,,,67,0
93320,note_on,1,0,0,,,,,,,,,0,,,59,78
93359,note_on,39,0,0,,,,,,,,,0,,,59,0
93360,note_on,162,0,1,,,,,,,,,0,,,31,78
93360,note_on,1,0,0,,,,,,,,,0,,,67,78
93399,note_on,39,0,0,,,,,,,,,0,,,67,0
93400,note_on,0,0,0,,,,,,,,,0,,,62,78
93400,note_on,1,0,0,,,,,,,,,0,,,59,78
93438,note_on,78,0,1,,,,,,,,,0,,,31,0
93439,note_on,0,0,0,,,,,,,,,0,,,62,0
93439,note_on,39,0,0,,,,,,,,,0,,,59,0
93440,note_on,1,0,0,,,,,,,,,0,,,55,77
93479,note_on,39,0,0,,,,,,,,,0,,,55,0
93480,note_on,1,0,0,,,,,,,,,0,,,64,77
93519,note_on,39,0,0,,,,,,,,,0,,,64,0
93520,note_on,0,0,0,,,,,,,,,0,,,59,76
93520,note_on,1,0,0,,,,,,,,,0,,,55,76
93559,note_on,39,0,0,,,,,,,,,0,,,55,0
93559,note_on,0,0,0,,,,,,,,,0,,,59,0
93560,note_on,1,0,0,,,,,,,,,0,,,52,76
93597,note_on,37,0,0,,,,,,,,,0,,,52,0
93600,set_tempo,3,1,0,,,,,,1333333,,,,,,,
93600,note_on,162,0,1,,,,,,,,,0,,,35,75
93600,note_on,0,0,0,,,,,,,,,0,,,50,75
93600,note_on,0,0,1,,,,,,,,,0,,,41,75
93601,control_change,1,0,0,,,,,,,64,0,0,,,,
93602,control_change,2,0,1,,,,,,,64,127,0,,,,
93638,note_on,36,0,1,,,,,,,,,0,,,35,0
93638,note_on,37,0,0,,,,,,,,,0,,,50,0
93638,note_on,0,0,1,,,,,,,,,0,,,41,0
93639,note_on,1,0,1,,,,,,,,,0,,,44,73
93639,note_on,1,0,0,,,,,,,,,0,,,62,73
93677,note_on,38,0,0,,,,,,,,,0,,,62,0
93677,note_on,38,0,1,,,,,,,,,0,,,44,0
93679,note_on,2,0,0,,,,,,,,,0,,,50,71
93679,note_on,0,0,1,,,,,,,,,0,,,41,71
93679,note_on,2,0,1,,,,,,,,,0,,,35,71
93717,note_on,0,0,1,,,,,,,,,0,,,41,0
93717,note_on,38,0,1,,,,,,,,,0,,,35,0
93717,note_on,38,0,0,,,,,,,,,0,,,50,0
93719,note_on,2,0,1,,,,,,,,,0,,,44,68
93719,note_on,2,0,0,,,,,,,,,0,,,62,68
93757,note_on,38,0,1,,,,,,,,,0,,,44,0
93757,note_on,38,0,0,,,,,,,,,0,,,62,0
93759,note_on,2,0,1,,,,,,,,,0,,,35,66
93759,note_on,2,0,0,,,,,,,,,0,,,50,66
93759,note_on,0,0,1,,,,,,,,,0,,,41,66
93797,note_on,0,0,1,,,,,,,,,0,,,41,0
93797,note_on,38,0,1,,,,,,,,,0,,,35,0
93797,note_on,38,0,0,,,,,,,,,0,,,50,0
93799,note_on,2,0,1,,,,,,,,,0,,,44,63
93799,note_on,2,0,0,,,,,,,,,0,,,62,63
93837,note_on,38,0,1,,,,,,,,,0,,,44,0
93837,note_on,38,0,0,,,,,,,,,0,,,62,0
93839,note_on,0,0,1,,,,,,,,,0,,,41,61
93839,note_on,2,0,0,,,,,,,,,0,,,50,61
93839,note_on,2,0,1,,,,,,,,,0,,,35,61
93877,note_on,38,0,0,,,,,,,,,0,,,50,0
93877,note_on,0,0,1,,,,,,,,,0,,,41,0
93877,note_on,38,0,1,,,,,,,,,0,,,35,0
93878,note_on,1,0,0,,,,,,,,,0,,,62,60
93878,note_on,1,0,1,,,,,,,,,0,,,44,60
93916,note_on,38,0,0,,,,,,,,,0,,,62,0
93916,note_on,38,0,1,,,,,,,,,0,,,44,0
93918,note_on,2,0,1,,,,,,,,,0,,,35,60
93918,note_on,0,0,1,,,,,,,,,0,,,41,60
93918,note_on,2,0,0,,,,,,,,,0,,,50,60
93956,note_on,0,0,1,,,,,,,,,0,,,41,0
93956,note_on,38,0,0,,,,,,,,,0,,,50,0
93956,note_on,38,0,1,,,,,,,,,0,,,35,0
93958,note_on,2,0,0,,,,,,,,,0,,,62,60
93958,note_on,2,0,1,,,,,,,,,0,,,44,60
93996,note_on,38,0,1,,,,,,,,,0,,,44,0
93996,note_on,38,0,0,,,,,,,,,0,,,62,0
93998,note_on,2,0,0,,,,,,,,,0,,,50,60
93998,note_on,2,0,1,,,,,,,,,0,,,35,60
93998,note_on,0,0,1,,,,,,,,,0,,,41,60
94036,note_on,38,0,1,,,,,,,,,0,,,35,0
94036,note_on,0,0,1,,,,,,,,,0,,,41,0
94036,note_on,38,0,0,,,,,,,,,0,,,50,0
94038,note_on,2,0,0,,,,,,,,,0,,,62,60
94038,note_on,2,0,1,,,,,,,,,0,,,44,60
94076,note_on,38,0,1,,,,,,,,,0,,,44,0
94076,note_on,38,0,0,,,,,,,,,0,,,62,0
94080,set_tempo,4,1,0,,,,,,1395349,,,,,,,
94080,note_on,0,0,1,,,,,,,,,0,,,41,75
94080,note_on,4,0,1,,,,,,,,,0,,,35,75
94080,note_on,0,0,0,,,,,,,,,0,,,49,75
94081,control_change,1,0,1,,,,,,,64,0,0,,,,
94082,control_change,1,0,1,,,,,,,64,127,0,,,,
94118,note_on,0,0,1,,,,,,,,,0,,,41,0
94118,note_on,38,0,0,,,,,,,,,0,,,49,0
94118,note_on,36,0,1,,,,,,,,,0,,,35,0
94119,note_on,1,0,0,,,,,,,,,0,,,61,73
94119,note_on,1,0,1,,,,,,,,,0,,,44,73
94157,note_on,38,0,0,,,,,,,,,0,,,61,0
94157,note_on,38,0,1,,,,,,,,,0,,,44,0
94159,note_on,2,0,1,,,,,,,,,0,,,35,71
94159,note_on,0,0,1,,,,,,,,,0,,,41,71
94159,note_on,2,0,0,,,,,,,,,0,,,49,71
94197,note_on,38,0,0,,,,,,,,,0,,,49,0
94197,note_on,0,0,1,,,,,,,,,0,,,41,0
94197,note_on,38,0,1,,,,,,,,,0,,,35,0
94199,note_on,2,0,1,,,,,,,,,0,,,44,68
94199,note_on,2,0,0,,,,,,,,,0,,,61,68
94237,note_on,38,0,1,,,,,,,,,0,,,44,0
94237,note_on,38,0,0,,,,,,,,,0,,,61,0
94239,note_on,0,0,1,,,,,,,,,0,,,41,66
94239,note_on,2,0,0,,,,,,,,,0,,,49,66
94239,note_on,2,0,1,,,,,,,,,0,,,35,66
94277,note_on,0,0,1,,,,,,,,,0,,,41,0
94277,note_on,38,0,0,,,,,,,,,0,,,49,0
94277,note_on,38,0,1,,,,,,,,,0,,,35,0
94279,note_on,2,0,0,,,,,,,,,0,,,61,63
94279,note_on,2,0,1,,,,,,,,,0,,,44,63
94317,note_on,38,0,0,,,,,,,,,0,,,61,0
94317,note_on,38,0,1,,,,,,,,,0,,,44,0
94319,note_on,0,0,1,,,,,,,,,0,,,41,61
94319,note_on,2,0,0,,,,,,,,,0,,,49,61
94319,note_on,2,0,1,,,,,,,,,0,,,35,61
94357,note_on,0,0,1,,,,,,,,,0,,,41,0
94357,note_on,38,0,0,,,,,,,,,0,,,49,0
94357,note_on,38,0,1,,,,,,,,,0,,,35,0
94358,note_on,1,0,0,,,,,,,,,0,,,61,60
94358,note_on,1,0,1,,,,,,,,,0,,,44,60
94396,note_on,38,0,1,,,,,,,,,0,,,44,0
94396,note_on,38,0,0,,,,,,,,,0,,,61,0
94398,note_on,2,0,1,,,,,,,,,0,,,35,60
94398,note_on,2,0,0,,,,,,,,,0,,,49,60
94398,note_on,0,0,1,,,,,,,,,0,,,41,60
94436,note_on,38,0,0,,,,,,,,,0,,,49,0
94436,note_on,38,0,1,,,,,,,,,0,,,35,0
94436,note_on,0,0,1,,,,,,,,,0,,,41,0
94438,note_on,2,0,1,,,,,,,,,0,,,44,60
94438,note_on,2,0,0,,,,,,,,,0,,,61,60
94476,note_on,38,0,0,,,,,,,,,0,,,61,0
94476,note_on,38,0,1,,,,,,,,,0,,,44,0
94478,note_on,0,0,1,,,,,,,,,0,,,41,60
94478,note_on,2,0,0,,,,,,,,,0,,,49,60
94478,note_on,2,0,1,,,,,,,,,0,,,35,60
94516,note_on,38,0,0,,,,,,,,,0,,,49,0
94516,note_on,0,0,1,,,,,,,,,0,,,41,0
94516,note_on,38,0,1,,,,,,,,,0,,,35,0
94518,note_on,2,0,1,,,,,,,,,0,,,44,60
94518,note_on,2,0,0,,,,,,,,,0,,,61,60
94556,note_on,38,0,0,,,,,,,,,0,,,61,0
94556,note_on,38,0,1,,,,,,,,,0,,,44,0
94560,note_on,4,0,1,,,,,,,,,0,,,36,75
94560,note_on,0,0,0,,,,,,,,,0,,,51,75
94560,note_on,0,0,1,,,,,,,,,0,,,42,75
94560,note_on,0,0,0,,,,,,,,,0,,,51,75
94560,set_tempo,4,1,0,,,,,,1463415,,,,,,,
94560,note_on,0,0,0,,,,,,,,,0,,,51,0
94561,control_change,1,0,1,,,,,,,64,0,0,,,,
94562,control_change,1,0,1,,,,,,,64,127,0,,,,
94598,note_on,36,0,1,,,,,,,,,0,,,36,0
94598,note_on,0,0,1,,,,,,,,,0,,,42,0
94599,note_on,1,0,1,,,,,,,,,0,,,45,73
94600,note_on,40,0,0,,,,,,,,,0,,,63,72
94637,note_on,38,0,1,,,,,,,,,0,,,45,0
94639,note_on,39,0,0,,,,,,,,,0,,,63,0
94639,note_on,2,0,1,,,,,,,,,0,,,36,70
94639,note_on,0,0,1,,,,,,,,,0,,,42,70
94640,note_on,0,0,0,,,,,,,,,0,,,51,69
94640,note_on,1,0,0,,,,,,,,,0,,,51,0
94677,note_on,38,0,1,,,,,,,,,0,,,36,0
94677,note_on,0,0,1,,,,,,,,,0,,,42,0
94679,note_on,2,0,1,,,,,,,,,0,,,45,67
94680,note_on,40,0,0,,,,,,,,,0,,,63,66
94717,note_on,38,0,1,,,,,,,,,0,,,45,0
94719,note_on,0,0,1,,,,,,,,,0,,,42,64
94719,note_on,39,0,0,,,,,,,,,0,,,63,0
94719,note_on,2,0,1,,,,,,,,,0,,,36,64
94720,note_on,1,0,0,,,,,,,,,0,,,51,0
94720,note_on,0,0,0,,,,,,,,,0,,,51,63
94757,note_on,0,0,1,,,,,,,,,0,,,42,0
94757,note_on,38,0,1,,,,,,,,,0,,,36,0
94759,note_on,2,0,1,,,,,,,,,0,,,45,61
94760,note_on,40,0,0,,,,,,,,,0,,,63,60
94797,note_on,38,0,1,,,,,,,,,0,,,45,0
94799,note_on,39,0,0,,,,,,,,,0,,,51,0
94799,note_on,0,0,0,,,,,,,,,0,,,63,0
94799,note_on,0,0,1,,,,,,,,,0,,,42,60
94799,note_on,2,0,1,,,,,,,,,0,,,36,60
94800,note_on,1,0,0,,,,,,,,,0,,,50,60
94800,note_on,0,0,0,,,,,,,,,0,,,50,60
94800,note_on,0,0,0,,,,,,,,,0,,,50,0
94837,note_on,38,0,1,,,,,,,,,0,,,36,0
94837,note_on,0,0,1,,,,,,,,,0,,,42,0
94838,note_on,1,0,1,,,,,,,,,0,,,45,60
94840,note_on,40,0,0,,,,,,,,,0,,,62,60
94876,note_on,38,0,1,,,,,,,,,0,,,45,0
94878,note_on,2,0,1,,,,,,,,,0,,,36,60
94878,note_on,0,0,1,,,,,,,,,0,,,42,60
94879,note_on,39,0,0,,,,,,,,,0,,,62,0
94880,note_on,1,0,0,,,,,,,,,0,,,50,0
94880,note_on,0,0,0,,,,,,,,,0,,,50,60
94916,note_on,38,0,1,,,,,,,,,0,,,36,0
94916,note_on,0,0,1,,,,,,,,,0,,,42,0
94918,note_on,2,0,1,,,,,,,,,0,,,45,60
94920,note_on,40,0,0,,,,,,,,,0,,,62,60
94956,note_on,38,0,1,,,,,,,,,0,,,45,0
94958,note_on,0,0,1,,,,,,,,,0,,,42,60
94958,note_on,2,0,1,,,,,,,,,0,,,36,60
94959,note_on,39,0,0,,,,,,,,,0,,,62,0
94960,note_on,1,0,0,,,,,,,,,0,,,50,0
94960,note_on,0,0,0,,,,,,,,,0,,,50,60
94996,note_on,38,0,1,,,,,,,,,0,,,36,0
94996,note_on,0,0,1,,,,,,,,,0,,,42,0
94998,note_on,2,0,1,,,,,,,,,0,,,45,60
95000,note_on,40,0,0,,,,,,,,,0,,,62,60
95036,note_on,38,0,1,,,,,,,,,0,,,45,0
95037,note_on,37,0,0,,,,,,,,,0,,,62,0
95039,note_on,2,0,0,,,,,,,,,0,,,50,0
95040,note_on,0,0,1,,,,,,,,,0,,,35,60
95040,note_on,1,0,0,,,,,,,,,0,,,55,60
95040,note_on,0,0,0,,,,,,,,,0,,,59,60
95040,note_on,4,0,1,,,,,,,,,0,,,31,60
95041,control_change,1,0,1,,,,,,,64,0,0,,,,
95042,control_change,1,0,1,,,,,,,64,127,0,,,,
95076,note_on,36,0,0,,,,,,,,,0,,,55,0
95076,note_on,0,0,0,,,,,,,,,0,,,59,0
95076,note_on,0,0,1,,,,,,,,,0,,,35,0
95076,note_on,34,0,1,,,,,,,,,0,,,31,0
95079,note_on,3,0,0,,,,,,,,,0,,,47,60
95079,note_on,0,0,0,,,,,,,,,0,,,50,60
95079,note_on,0,0,1,,,,,,,,,0,,,43,60
95079,note_on,3,0,1,,,,,,,,,0,,,38,60
95115,note_on,36,0,0,,,,,,,,,0,,,47,0
95115,note_on,36,0,1,,,,,,,,,0,,,38,0
95115,note_on,0,0,1,,,,,,,,,0,,,43,0
95115,note_on,0,0,0,,,,,,,,,0,,,50,0
95119,note_on,4,0,1,,,,,,,,,0,,,31,61
95119,note_on,4,0,0,,,,,,,,,0,,,55,61
95119,note_on,0,0,0,,,,,,,,,0,,,59,61
95119,note_on,0,0,1,,,,,,,,,0,,,35,61
95155,note_on,0,0,0,,,,,,,,,0,,,59,0
95155,note_on,36,0,1,,,,,,,,,0,,,31,0
95155,note_on,36,0,0,,,,,,,,,0,,,55,0
95155,note_on,0,0,1,,,,,,,,,0,,,35,0
95159,note_on,0,0,0,,,,,,,,,0,,,50,62
95159,note_on,4,0,0,,,,,,,,,0,,,47,62
95159,note_on,0,0,1,,,,,,,,,0,,,43,62
95159,note_on,4,0,1,,,,,,,,,0,,,38,62
95195,note_on,36,0,0,,,,,,,,,0,,,47,0
95195,note_on,0,0,1,,,,,,,,,0,,,43,0
95195,note_on,0,0,0,,,,,,,,,0,,,50,0
95195,note_on,36,0,1,,,,,,,,,0,,,38,0
95199,note_on,4,0,1,,,,,,,,,0,,,31,63
95199,note_on,0,0,0,,,,,,,,,0,,,59,63
95199,note_on,0,0,1,,,,,,,,,0,,,35,63
95199,note_on,4,0,0,,,,,,,,,0,,,55,63
95235,note_on,36,0,0,,,,,,,,,0,,,55,0
95235,note_on,0,0,0,,,,,,,,,0,,,59,0
95235,note_on,0,0,1,,,,,,,,,0,,,35,0
95235,note_on,36,0,1,,,,,,,,,0,,,31,0
95239,note_on,4,0,0,,,,,,,,,0,,,47,64
95239,note_on,0,0,1,,,,,,,,,0,,,43,64
95239,note_on,0,0,0,,,,,,,,,0,,,50,64
95239,note_on,4,0,1,,,,,,,,,0,,,38,64
95275,note_on,0,0,1,,,,,,,,,0,,,43,0
95275,note_on,36,0,1,,,,,,,,,0,,,38,0
95275,note_on,0,0,0,,,,,,,,,0,,,50,0
95275,note_on,36,0,0,,,,,,,,,0,,,47,0
95279,note_on,0,0,1,,,,,,,,,0,,,35,65
95279,note_on,4,0,1,,,,,,,,,0,,,31,65
95280,note_on,0,0,0,,,,,,,,,0,,,59,65
95280,note_on,5,0,0,,,,,,,,,0,,,55,65
95315,note_on,36,0,1,,,,,,,,,0,,,31,0
95315,note_on,0,0,1,,,,,,,,,0,,,35,0
95316,note_on,36,0,0,,,,,,,,,0,,,55,0
95316,note_on,0,0,0,,,,,,,,,0,,,59,0
95318,note_on,0,0,1,,,,,,,,,0,,,43,66
95318,note_on,3,0,1,,,,,,,,,0,,,38,66
95319,note_on,3,0,0,,,,,,,,,0,,,47,66
95319,note_on,0,0,0,,,,,,,,,0,,,50,66
95354,note_on,0,0,1,,,,,,,,,0,,,43,0
95354,note_on,36,0,1,,,,,,,,,0,,,38,0
95355,note_on,0,0,0,,,,,,,,,0,,,50,0
95355,note_on,36,0,0,,,,,,,,,0,,,47,0
95358,note_on,4,0,1,,,,,,,,,0,,,31,67
95358,note_on,0,0,1,,,,,,,,,0,,,35,67
95359,note_on,4,0,0,,,,,,,,,0,,,55,67
95359,note_on,0,0,0,,,,,,,,,0,,,59,67
95394,note_on,0,0,1,,,,,,,,,0,,,35,0
95394,note_on,36,0,1,,,,,,,,,0,,,31,0
95395,note_on,0,0,0,,,,,,,,,0,,,59,0
95395,note_on,36,0,0,,,,,,,,,0,,,55,0
95398,note_on,4,0,1,,,,,,,,,0,,,38,68
95398,note_on,0,0,1,,,,,,,,,0,,,43,68
95399,note_on,0,0,0,,,,,,,,,0,,,50,68
95399,note_on,4,0,0,,,,,,,,,0,,,47,68
95434,note_on,36,0,1,,,,,,,,,0,,,38,0
95434,note_on,0,0,1,,,,,,,,,0,,,43,0
95435,note_on,36,0,0,,,,,,,,,0,,,47,0
95435,note_on,0,0,0,,,,,,,,,0,,,50,0
95438,note_on,4,0,1,,,,,,,,,0,,,31,69
95438,note_on,0,0,1,,,,,,,,,0,,,35,69
95439,note_on,4,0,0,,,,,,,,,0,,,55,69
95439,note_on,0,0,0,,,,,,,,,0,,,59,69
95474,note_on,36,0,1,,,,,,,,,0,,,31,0
95474,note_on,0,0,1,,,,,,,,,0,,,35,0
95475,note_on,0,0,0,,,,,,,,,0,,,59,0
95475,note_on,36,0,0,,,,,,,,,0,,,55,0
95478,note_on,4,0,1,,,,,,,,,0,,,38,70
95478,note_on,0,0,1,,,,,,,,,0,,,43,70
95479,note_on,0,0,0,,,,,,,,,0,,,50,70
95479,note_on,4,0,0,,,,,,,,,0,,,47,70
95514,note_on,0,0,1,,,,,,,,,0,,,43,0
95514,note_on,36,0,1,,,,,,,,,0,,,38,0
95515,note_on,36,0,0,,,,,,,,,0,,,47,0
95515,note_on,0,0,0,,,,,,,,,0,,,50,0
95520,note_on,5,0,0,,,,,,,,,0,,,55,71
95520,note_on,0,0,0,,,,,,,,,0,,,59,71
95520,note_on,6,0,1,,,,,,,,,0,,,31,71
95520,note_on,0,0,1,,,,,,,,,0,,,35,71
95556,note_on,36,0,0,,,,,,,,,0,,,55,0
95556,note_on,0,0,0,,,,,,,,,0,,,59,0
95556,note_on,36,0,1,,,,,,,,,0,,,31,0
95556,note_on,0,0,1,,,,,,,,,0,,,35,0
95559,note_on,0,0,1,,,,,,,,,0,,,43,71
95559,note_on,3,0,1,,,,,,,,,0,,,38,71
95559,note_on,3,0,0,,,,,,,,,0,,,47,71
95559,note_on,0,0,0,,,,,,,,,0,,,50,71
95595,note_on,36,0,1,,,,,,,,,0,,,38,0
95595,note_on,0,0,0,,,,,,,,,0,,,50,0
95595,note_on,0,0,1,,,,,,,,,0,,,43,0
95595,note_on,36,0,0,,,,,,,,,0,,,47,0
95599,note_on,4,0,0,,,,,,,,,0,,,55,72
95599,note_on,4,0,1,,,,,,,,,0,,,31,72
95599,note_on,0,0,1,,,,,,,,,0,,,35,72
95599,note_on,0,0,0,,,,,,,,,0,,,59,72
95635,note_on,36,0,0,,,,,,,,,0,,,55,0
95635,note_on,36,0,1,,,,,,,,,0,,,31,0
95635,note_on,0,0,1,,,,,,,,,0,,,35,0
95635,note_on,0,0,0,,,,,,,,,0,,,59,0
95639,note_on,4,0,0,,,,,,,,,0,,,47,73
95639,note_on,4,0,1,,,,,,,,,0,,,38,73
95639,note_on,0,0,1,,,,,,,,,0,,,43,73
95639,note_on,0,0,0,,,,,,,,,0,,,50,73
95675,note_on,0,0,1,,,,,,,,,0,,,43,0
95675,note_on,36,0,0,,,,,,,,,0,,,47,0
95675,note_on,0,0,0,,,,,,,,,0,,,50,0
95675,note_on,36,0,1,,,,,,,,,0,,,38,0
95679,note_on,0,0,1,,,,,,,,,0,,,35,74
95679,note_on,4,0,0,,,,,,,,,0,,,55,74
95679,note_on,4,0,1,,,,,,,,,0,,,31,74
95679,note_on,0,0,0,,,,,,,,,0,,,59,74
95715,note_on,0,0,1,,,,,,,,,0,,,35,0
95715,note_on,36,0,0,,,,,,,,,0,,,55,0
95715,note_on,36,0,1,,,,,,,,,0,,,31,0
95715,note_on,0,0,0,,,,,,,,,0,,,59,0
95719,note_on,0,0,0,,,,,,,,,0,,,50,75
95719,note_on,0,0,1,,,,,,,,,0,,,43,75
95719,note_on,4,0,0,,,,,,,,,0,,,47,75
95719,note_on,4,0,1,,,,,,,,,0,,,38,75
95755,note_on,0,0,0,,,,,,,,,0,,,50,0
95755,note_on,36,0,1,,,,,,,,,0,,,38,0
95755,note_on,36,0,0,,,,,,,,,0,,,47,0
95755,note_on,0,0,1,,,,,,,,,0,,,43,0
95759,note_on,4,0,1,,,,,,,,,0,,,31,76
95759,note_on,0,0,1,,,,,,,,,0,,,35,76
95760,note_on,0,0,0,,,,,,,,,0,,,71,76
95760,note_on,0,0,0,,,,,,,,,0,,,67,76
95760,set_tempo,5,1,0,,,,,,1395349,,,,,,,
95795,note_on,0,0,1,,,,,,,,,0,,,35,0
95795,note_on,36,0,1,,,,,,,,,0,,,31,0
95796,note_on,36,0,0,,,,,,,,,0,,,67,0
95796,note_on,0,0,0,,,,,,,,,0,,,71,0
95798,note_on,0,0,1,,,,,,,,,0,,,43,77
95798,note_on,3,0,1,,,,,,,,,0,,,38,77
95799,note_on,3,0,0,,,,,,,,,0,,,59,77
95799,note_on,0,0,0,,,,,,,,,0,,,62,77
95834,note_on,0,0,1,,,,,,,,,0,,,43,0
95834,note_on,36,0,1,,,,,,,,,0,,,38,0
95835,note_on,36,0,0,,,,,,,,,0,,,59,0
95835,note_on,0,0,0,,,,,,,,,0,,,62,0
95838,note_on,0,0,1,,,,,,,,,0,,,35,78
95838,note_on,4,0,1,,,,,,,,,0,,,31,78
95839,note_on,4,0,0,,,,,,,,,0,,,67,78
95839,note_on,0,0,0,,,,,,,,,0,,,71,78
95874,note_on,0,0,1,,,,,,,,,0,,,35,0
95874,note_on,36,0,1,,,,,,,,,0,,,31,0
95875,note_on,36,0,0,,,,,,,,,0,,,67,0
95875,note_on,0,0,0,,,,,,,,,0,,,71,0
95878,note_on,0,0,1,,,,,,,,,0,,,43,79
95878,note_on,4,0,1,,,,,,,,,0,,,38,79
95879,note_on,4,0,0,,,,,,,,,0,,,59,79
95879,note_on,0,0,0,,,,,,,,,0,,,62,79
95914,note_on,0,0,1,,,,,,,,,0,,,43,0
95914,note_on,36,0,1,,,,,,,,,0,,,38,0
95915,note_on,36,0,0,,,,,,,,,0,,,59,0
95915,note_on,0,0,0,,,,,,,,,0,,,62,0
95918,note_on,0,0,1,,,,,,,,,0,,,35,80
95918,note_on,4,0,1,,,,,,,,,0,,,31,80
95919,note_on,4,0,0,,,,,,,,,0,,,67,80
95919,note_on,0,0,0,,,,,,,,,0,,,71,80
95954,note_on,0,0,1,,,,,,,,,0,,,35,0
95954,note_on,36,0,1,,,,,,,,,0,,,31,0
95955,note_on,36,0,0,,,,,,,,,0,,,67,0
95955,note_on,0,0,0,,,,,,,,,0,,,71,0
95958,note_on,4,0,1,,,,,,,,,0,,,38,81
95958,note_on,0,0,1,,,,,,,,,0,,,43,81
95959,note_on,0,0,0,,,,,,,,,0,,,62,81
95959,note_on,4,0,0,,,,,,,,,0,,,59,81
95994,note_on,36,0,1,,,,,,,,,0,,,38,0
95994,note_on,0,0,1,,,,,,,,,0,,,43,0
95995,note_on,36,0,0,,,,,,,,,0,,,59,0
95995,note_on,0,0,0,,,,,,,,,0,,,62,0
96000,set_tempo,5,1,0,,,,,,1333333,,,,,,,
96000,note_on,6,0,1,,,,,,,,,0,,,31,82
96000,note_on,0,0,1,,,,,,,,,0,,,35,82
96000,note_on,0,0,0,,,,,,,,,0,,,74,82
96000,note_on,0,0,0,,,,,,,,,0,,,71,82
96036,note_on,0,0,1,,,,,,,,,0,,,35,0
96036,note_on,36,0,0,,,,,,,,,0,,,71,0
96036,note_on,36,0,1,,,,,,,,,0,,,31,0
96036,note_on,0,0,0,,,,,,,,,0,,,74,0
96039,note_on,3,0,1,,,,,,,,,0,,,38,82
96039,note_on,0,0,1,,,,,,,,,0,,,43,82
96039,note_on,3,0,0,,,,,,,,,0,,,62,82
96039,note_on,0,0,0,,,,,,,,,0,,,67,82
96075,note_on,0,0,0,,,,,,,,,0,,,67,0
96075,note_on,0,0,1,,,,,,,,,0,,,43,0
96075,note_on,36,0,0,,,,,,,,,0,,,62,0
96075,note_on,36,0,1,,,,,,,,,0,,,38,0
96079,note_on,0,0,1,,,,,,,,,0,,,35,83
96079,note_on,4,0,1,,,,,,,,,0,,,31,83
96079,note_on,0,0,0,,,,,,,,,0,,,74,83
96079,note_on,4,0,0,,,,,,,,,0,,,71,83
96115,note_on,36,0,1,,,,,,,,,0,,,31,0
96115,note_on,0,0,0,,,,,,,,,0,,,74,0
96115,note_on,36,0,0,,,,,,,,,0,,,71,0
96115,note_on,0,0,1,,,,,,,,,0,,,35,0
96119,note_on,0,0,0,,,,,,,,,0,,,67,84
96119,note_on,0,0,1,,,,,,,,,0,,,43,84
96119,note_on,4,0,1,,,,,,,,,0,,,38,84
96119,note_on,4,0,0,,,,,,,,,0,,,62,84
96155,note_on,0,0,1,,,,,,,,,0,,,43,0
96155,note_on,36,0,1,,,,,,,,,0,,,38,0
96155,note_on,36,0,0,,,,,,,,,0,,,62,0
96155,note_on,0,0,0,,,,,,,,,0,,,67,0
96159,note_on,4,0,0,,,,,,,,,0,,,71,85
96159,note_on,0,0,0,,,,,,,,,0,,,74,85
96159,note_on,4,0,1,,,,,,,,,0,,,31,85
96159,note_on,0,0,1,,,,,,,,,0,,,35,85
96195,note_on,0,0,1,,,,,,,,,0,,,35,0
96195,note_on,36,0,0,,,,,,,,,0,,,71,0
96195,note_on,36,0,1,,,,,,,,,0,,,31,0
96195,note_on,0,0,0,,,,,,,,,0,,,74,0
96199,note_on,4,0,0,,,,,,,,,0,,,62,86
96199,note_on,4,0,1,,,,,,,,,0,,,38,86
96199,note_on,0,0,0,,,,,,,,,0,,,67,86
96199,note_on,0,0,1,,,,,,,,,0,,,43,86
96235,note_on,0,0,0,,,,,,,,,0,,,67,0
96235,note_on,36,0,0,,,,,,,,,0,,,62,0
96235,note_on,0,0,1,,,,,,,,,0,,,43,0
96235,note_on,36,0,1,,,,,,,,,0,,,38,0
96239,note_on,4,0,1,,,,,,,,,0,,,31,87
96239,note_on,0,0,1,,,,,,,,,0,,,35,87
96240,note_on,0,0,0,,,,,,,,,0,,,74,87
96240,note_on,0,0,0,,,,,,,,,0,,,79,87
96240,set_tempo,5,1,0,,,,,,1276596,,,,,,,
96275,note_on,0,0,1,,,,,,,,,0,,,35,0
96275,note_on,36,0,1,,,,,,,,,0,,,31,0
96276,note_on,0,0,0,,,,,,,,,0,,,79,0
96276,note_on,36,0,0,,,,,,,,,0,,,74,0
96278,note_on,3,0,1,,,,,,,,,0,,,38,88
96278,note_on,0,0,1,,,,,,,,,0,,,43,88
96279,note_on,0,0,0,,,,,,,,,0,,,71,88
96279,note_on,3,0,0,,,,,,,,,0,,,67,88
96314,note_on,36,0,1,,,,,,,,,0,,,38,0
96314,note_on,0,0,1,,,,,,,,,0,,,43,0
96315,note_on,36,0,0,,,,,,,,,0,,,67,0
96315,note_on,0,0,0,,,,,,,,,0,,,71,0
96318,note_on,0,0,1,,,,,,,,,0,,,35,89
96318,note_on,4,0,1,,,,,,,,,0,,,31,89
96319,note_on,4,0,0,,,,,,,,,0,,,74,89
96319,note_on,0,0,0,,,,,,,,,0,,,79,89
96354,note_on,36,0,1,,,,,,,,,0,,,31,0
96354,note_on,0,0,1,,,,,,,,,0,,,35,0
96355,note_on,36,0,0,,,,,,,,,0,,,74,0
96355,note_on,0,0,0,,,,,,,,,0,,,79,0
96358,note_on,4,0,1,,,,,,,,,0,,,38,90
96358,note_on,0,0,1,,,,,,,,,0,,,43,90
96359,note_on,4,0,0,,,,,,,,,0,,,67,90
96359,note_on,0,0,0,,,,,,,,,0,,,71,90
96394,note_on,0,0,1,,,,,,,,,0,,,43,0
96394,note_on,36,0,1,,,,,,,,,0,,,38,0
96395,note_on,36,0,0,,,,,,,,,0,,,67,0
96395,note_on,0,0,0,,,,,,,,,0,,,71,0
96398,note_on,0,0,1,,,,,,,,,0,,,35,91
96398,note_on,4,0,1,,,,,,,,,0,,,31,91
96399,note_on,0,0,0,,,,,,,,,0,,,79,91
96399,note_on,4,0,0,,,,,,,,,0,,,74,91
96434,note_on,0,0,1,,,,,,,,,0,,,35,0
96434,note_on,36,0,1,,,,,,,,,0,,,31,0
96435,note_on,0,0,0,,,,,,,,,0,,,79,0
96435,note_on,36,0,0,,,,,,,,,0,,,74,0
96438,note_on,0,0,1,,,,,,,,,0,,,43,92
96438,note_on,4,0,1,,,,,,,,,0,,,38,92
96439,note_on,0,0,0,,,,,,,,,0,,,71,92
96439,note_on,4,0,0,,,,,,,,,0,,,67,92
96474,note_on,0,0,1,,,,,,,,,0,,,43,0
96474,note_on,36,0,1,,,,,,,,,0,,,38,0
96475,note_on,36,0,0,,,,,,,,,0,,,67,0
96475,note_on,0,0,0,,,,,,,,,0,,,71,0
96480,note_on,6,0,1,,,,,,,,,0,,,31,93
96480,note_on,5,0,0,,,,,,,,,0,,,79,93
96480,note_on,0,0,0,,,,,,,,,0,,,83,93
96480,note_on,0,0,1,,,,,,,,,0,,,35,93
96481,control_change,1,0,1,,,,,,,64,0,0,,,,
96482,control_change,1,0,1,,,,,,,64,127,0,,,,
96516,note_on,0,0,1,,,,,,,,,0,,,35,0
96516,note_on,0,0,0,,,,,,,,,0,,,83,0
96516,note_on,34,0,1,,,,,,,,,0,,,31,0
96516,note_on,36,0,0,,,,,,,,,0,,,79,0
96519,note_on,0,0,1,,,,,,,,,0,,,43,93
96519,note_on,3,0,1,,,,,,,,,0,,,38,93
96519,note_on,3,0,0,,,,,,,,,0,,,71,93
96519,note_on,0,0,0,,,,,,,,,0,,,74,93
96555,note_on,36,0,0,,,,,,,,,0,,,71,0
96555,note_on,0,0,0,,,,,,,,,0,,,74,0
96555,note_on,36,0,1,,,,,,,,,0,,,38,0
96555,note_on,0,0,1,,,,,,,,,0,,,43,0
96559,note_on,4,0,1,,,,,,,,,0,,,31,94
96559,note_on,4,0,0,,,,,,,,,0,,,79,94
96559,note_on,0,0,0,,,,,,,,,0,,,83,94
96559,note_on,0,0,1,,,,,,,,,0,,,35,94
96595,note_on,36,0,0,,,,,,,,,0,,,79,0
96595,note_on,36,0,1,,,,,,,,,0,,,31,0
96595,note_on,0,0,1,,,,,,,,,0,,,35,0
96595,note_on,0,0,0,,,,,,,,,0,,,83,0
96599,note_on,4,0,0,,,,,,,,,0,,,71,95
96599,note_on,0,0,1,,,,,,,,,0,,,43,95
96599,note_on,0,0,0,,,,,,,,,0,,,74,95
96599,note_on,4,0,1,,,,,,,,,0,,,38,95
96635,note_on,0,0,1,,,,,,,,,0,,,43,0
96635,note_on,36,0,1,,,,,,,,,0,,,38,0
96635,note_on,36,0,0,,,,,,,,,0,,,71,0
96635,note_on,0,0,0,,,,,,,,,0,,,74,0
96639,note_on,0,0,0,,,,,,,,,0,,,83,96
96639,note_on,4,0,1,,,,,,,,,0,,,31,96
96639,note_on,4,0,0,,,,,,,,,0,,,79,96
96639,note_on,0,0,1,,,,,,,,,0,,,35,96
96675,note_on,36,0,1,,,,,,,,,0,,,31,0
96675,note_on,0,0,1,,,,,,,,,0,,,35,0
96675,note_on,36,0,0,,,,,,,,,0,,,79,0
96675,note_on,0,0,0,,,,,,,,,0,,,83,0
96679,note_on,4,0,0,,,,,,,,,0,,,71,97
96679,note_on,4,0,1,,,,,,,,,0,,,38,97
96679,note_on,0,0,0,,,,,,,,,0,,,74,97
96679,note_on,0,0,1,,,,,,,,,0,,,43,97
96715,note_on,36,0,0,,,,,,,,,0,,,71,0
96715,note_on,36,0,1,,,,,,,,,0,,,38,0
96715,note_on,0,0,1,,,,,,,,,0,,,43,0
96715,note_on,0,0,0,,,,,,,,,0,,,74,0
96719,note_on,4,0,1,,,,,,,,,0,,,31,98
96719,note_on,0,0,1,,,,,,,,,0,,,35,98
96720,note_on,5,0,0,,,,,,,,,0,,,79,98
96720,note_on,0,0,0,,,,,,,,,0,,,83,98
96755,note_on,36,0,1,,,,,,,,,0,,,31,0
96755,note_on,0,0,1,,,,,,,,,0,,,35,0
96756,note_on,36,0,0,,,,,,,,,0,,,79,0
96756,note_on,0,0,0,,,,,,,,,0,,,83,0
96758,note_on,3,0,1,,,,,,,,,0,,,38,99
96758,note_on,0,0,1,,,,,,,,,0,,,43,99
96759,note_on,3,0,0,,,,,,,,,0,,,71,99
96759,note_on,0,0,0,,,,,,,,,0,,,74,99
96794,note_on,0,0,1,,,,,,,,,0,,,43,0
96794,note_on,36,0,1,,,,,,,,,0,,,38,0
96795,note_on,0,0,0,,,,,,,,,0,,,74,0
96795,note_on,36,0,0,,,,,,,,,0,,,71,0
96798,note_on,4,0,1,,,,,,,,,0,,,31,100
96798,note_on,0,0,1,,,,,,,,,0,,,35,100
96799,note_on,0,0,0,,,,,,,,,0,,,83,100
96799,note_on,4,0,0,,,,,,,,,0,,,79,100
96834,note_on,0,0,1,,,,,,,,,0,,,35,0
96834,note_on,36,0,1,,,,,,,,,0,,,31,0
96835,note_on,0,0,0,,,,,,,,,0,,,83,0
96835,note_on,36,0,0,,,,,,,,,0,,,79,0
96838,note_on,0,0,1,,,,,,,,,0,,,43,101
96838,note_on,4,0,1,,,,,,,,,0,,,38,101
96839,note_on,0,0,0,,,,,,,,,0,,,74,101
96839,note_on,4,0,0,,,,,,,,,0,,,71,101
96874,note_on,36,0,1,,,,,,,,,0,,,38,0
96874,note_on,0,0,1,,,,,,,,,0,,,43,0
96875,note_on,0,0,0,,,,,,,,,0,,,74,0
96875,note_on,36,0,0,,,,,,,,,0,,,71,0
96878,note_on,0,0,1,,,,,,,,,0,,,35,102
96878,note_on,4,0,1,,,,,,,,,0,,,31,102
96879,note_on,0,0,0,,,,,,,,,0,,,83,102
96879,note_on,4,0,0,,,,,,,,,0,,,79,102
96914,note_on,36,0,1,,,,,,,,,0,,,31,0
96914,note_on,0,0,1,,,,,,,,,0,,,35,0
96915,note_on,36,0,0,,,,,,,,,0,,,79,0
96915,note_on,0,0,0,,,,,,,,,0,,,83,0
96918,note_on,4,0,1,,,,,,,,,0,,,38,103
96918,note_on,0,0,1,,,,,,,,,0,,,43,103
96919,note_on,4,0,0,,,,,,,,,0,,,71,103
96919,note_on,0,0,0,,,,,,,,,0,,,74,103
96954,note_on,0,0,1,,,,,,,,,0,,,43,0
96954,note_on,36,0,1,,,,,,,,,0,,,38,0
96955,note_on,36,0,0,,,,,,,,,0,,,71,0
96955,note_on,0,0,0,,,,,,,,,0,,,74,0
96960,note_on,0,0,0,,,,,,,,,0,,,83,104
96960,note_on,0,0,1,,,,,,,,,0,,,35,104
96960,note_on,6,0,1,,,,,,,,,0,,,31,104
96960,note_on,5,0,0,,,,,,,,,0,,,79,104
96996,note_on,36,0,0,,,,,,,,,0,,,79,0
96996,note_on,36,0,1,,,,,,,,,0,,,31,0
96996,note_on,0,0,1,,,,,,,,,0,,,35,0
96996,note_on,0,0,0,,,,,,,,,0,,,83,0
96999,note_on,0,0,0,,,,,,,,,0,,,74,104
96999,note_on,3,0,0,,,,,,,,,0,,,71,104
96999,note_on,0,0,1,,,,,,,,,0,,,43,104
96999,note_on,3,0,1,,,,,,,,,0,,,38,104
97035,note_on,36,0,0,,,,,,,,,0,,,71,0
97035,note_on,0,0,1,,,,,,,,,0,,,43,0
97035,note_on,0,0,0,,,,,,,,,0,,,74,0
97035,note_on,36,0,1,,,,,,,,,0,,,38,0
97039,note_on,4,0,1,,,,,,,,,0,,,31,105
97039,note_on,0,0,1,,,,,,,,,0,,,35,105
97039,note_on,4,0,0,,,,,,,,,0,,,79,105
97039,note_on,0,0,0,,,,,,,,,0,,,83,105
97075,note_on,36,0,1,,,,,,,,,0,,,31,0
97075,note_on,0,0,0,,,,,,,,,0,,,83,0
97075,note_on,36,0,0,,,,,,,,,0,,,79,0
97075,note_on,0,0,1,,,,,,,,,0,,,35,0
97079,note_on,0,0,0,,,,,,,,,0,,,74,106
97079,note_on,0,0,1,,,,,,,,,0,,,43,106
97079,note_on,4,0,0,,,,,,,,,0,,,71,106
97079,note_on,4,0,1,,,,,,,,,0,,,38,106
97115,note_on,0,0,0,,,,,,,,,0,,,74,0
97115,note_on,36,0,1,,,,,,,,,0,,,38,0
97115,note_on,0,0,1,,,,,,,,,0,,,43,0
97115,note_on,36,0,0,,,,,,,,,0,,,71,0
97119,note_on,0,0,0,,,,,,,,,0,,,83,107
97119,note_on,0,0,1,,,,,,,,,0,,,35,107
97119,note_on,4,0,0,,,,,,,,,0,,,79,107
97119,note_on,4,0,1,,,,,,,,,0,,,31,107
97155,note_on,36,0,0,,,,,,,,,0,,,79,0
97155,note_on,0,0,1,,,,,,,,,0,,,35,0
97155,note_on,36,0,1,,,,,,,,,0,,,31,0
97155,note_on,0,0,0,,,,,,,,,0,,,83,0
97159,note_on,0,0,1,,,,,,,,,0,,,43,108
97159,note_on,4,0,0,,,,,,,,,0,,,71,108
97159,note_on,4,0,1,,,,,,,,,0,,,38,108
97159,note_on,0,0,0,,,,,,,,,0,,,74,108
97195,note_on,0,0,0,,,,,,,,,0,,,74,0
97195,note_on,36,0,0,,,,,,,,,0,,,71,0
97195,note_on,36,0,1,,,,,,,,,0,,,38,0
97195,note_on,0,0,1,,,,,,,,,0,,,43,0
97199,note_on,4,0,1,,,,,,,,,0,,,31,109
97199,note_on,0,0,1,,,,,,,,,0,,,35,109
97200,note_on,0,0,0,,,,,,,,,0,,,83,109
97200,note_on,5,0,0,,,,,,,,,0,,,79,109
97235,note_on,0,0,1,,,,,,,,,0,,,35,0
97235,note_on,36,0,1,,,,,,,,,0,,,31,0
97236,note_on,36,0,0,,,,,,,,,0,,,79,0
97236,note_on,0,0,0,,,,,,,,,0,,,83,0
97238,note_on,3,0,1,,,,,,,,,0,,,38,110
97238,note_on,0,0,1,,,,,,,,,0,,,43,110
97239,note_on,0,0,0,,,,,,,,,0,,,74,110
97239,note_on,3,0,0,,,,,,,,,0,,,71,110
97274,note_on,36,0,1,,,,,,,,,0,,,38,0
97274,note_on,0,0,1,,,,,,,,,0,,,43,0
97275,note_on,36,0,0,,,,,,,,,0,,,71,0
97275,note_on,0,0,0,,,,,,,,,0,,,74,0
97278,note_on,4,0,1,,,,,,,,,0,,,31,111
97278,note_on,0,0,1,,,,,,,,,0,,,35,111
97279,note_on,4,0,0,,,,,,,,,0,,,79,111
97279,note_on,0,0,0,,,,,,,,,0,,,83,111
97314,note_on,36,0,1,,,,,,,,,0,,,31,0
97314,note_on,0,0,1,,,,,,,,,0,,,35,0
97315,note_on,36,0,0,,,,,,,,,0,,,79,0
97315,note_on,0,0,0,,,,,,,,,0,,,83,0
97318,note_on,0,0,1,,,,,,,,,0,,,43,112
97318,note_on,4,0,1,,,,,,,,,0,,,38,112
97319,note_on,0,0,0,,,,,,,,,0,,,74,112
97319,note_on,4,0,0,,,,,,,,,0,,,71,112
97354,note_on,36,0,1,,,,,,,,,0,,,38,0
97354,note_on,0,0,1,,,,,,,,,0,,,43,0
97355,note_on,0,0,0,,,,,,,,,0,,,74,0
97355,note_on,36,0,0,,,,,,,,,0,,,71,0
97358,note_on,4,0,1,,,,,,,,,0,,,31,113
97358,note_on,0,0,1,,,,,,,,,0,,,35,113
97359,note_on,0,0,0,,,,,,,,,0,,,83,113
97359,note_on,4,0,0,,,,,,,,,0,,,79,113
97394,note_on,0,0,1,,,,,,,,,0,,,35,0
97394,note_on,36,0,1,,,,,,,,,0,,,31,0
97395,note_on,0,0,0,,,,,,,,,0,,,83,0
97395,note_on,36,0,0,,,,,,,,,0,,,79,0
97398,note_on,4,0,1,,,,,,,,,0,,,38,114
97398,note_on,0,0,1,,,,,,,,,0,,,43,114
97399,note_on,4,0,0,,,,,,,,,0,,,71,114
97399,note_on,0,0,0,,,,,,,,,0,,,74,114
97434,note_on,0,0,1,,,,,,,,,0,,,43,0
97434,note_on,36,0,1,,,,,,,,,0,,,38,0
97435,note_on,36,0,0,,,,,,,,,0,,,71,0
97435,note_on,0,0,0,,,,,,,,,0,,,74,0
97440,set_tempo,5,1,0,,,,,,1224490,,,,,,,
97440,note_on,0,0,0,,,,,,,,,0,,,86,115
97440,note_on,0,0,1,,,,,,,,,0,,,35,115
97440,note_on,6,0,1,,,,,,,,,0,,,31,115
97440,note_on,0,0,0,,,,,,,,,0,,,83,115
97476,note_on,0,0,1,,,,,,,,,0,,,35,0
97476,note_on,0,0,0,,,,,,,,,0,,,86,0
97476,note_on,36,0,0,,,,,,,,,0,,,83,0
97476,note_on,36,0,1,,,,,,,,,0,,,31,0
97479,note_on,0,0,1,,,,,,,,,0,,,43,115
97479,note_on,3,0,0,,,,,,,,,0,,,74,115
97479,note_on,3,0,1,,,,,,,,,0,,,38,115
97479,note_on,0,0,0,,,,,,,,,0,,,79,115
97515,note_on,36,0,1,,,,,,,,,0,,,38,0
97515,note_on,0,0,1,,,,,,,,,0,,,43,0
97515,note_on,36,0,0,,,,,,,,,0,,,74,0
97515,note_on,0,0,0,,,,,,,,,0,,,79,0
97519,note_on,0,0,0,,,,,,,,,0,,,86,116
97519,note_on,4,0,0,,,,,,,,,0,,,83,116
97519,note_on,4,0,1,,,,,,,,,0,,,31,116
97519,note_on,0,0,1,,,,,,,,,0,,,35,116
97555,note_on,0,0,0,,,,,,,,,0,,,86,0
97555,note_on,36,0,0,,,,,,,,,0,,,83,0
97555,note_on,36,0,1,,,,,,,,,0,,,31,0
97555,note_on,0,0,1,,,,,,,,,0,,,35,0
97559,note_on,0,0,0,,,,,,,,,0,,,79,117
97559,note_on,4,0,1,,,,,,,,,0,,,38,117
97559,note_on,0,0,1,,,,,,,,,0,,,43,117
97559,note_on,4,0,0,,,,,,,,,0,,,74,117
97595,note_on,0,0,0,,,,,,,,,0,,,79,0
97595,note_on,36,0,0,,,,,,,,,0,,,74,0
97595,note_on,0,0,1,,,,,,,,,0,,,43,0
97595,note_on,36,0,1,,,,,,,,,0,,,38,0
97599,note_on,4,0,0,,,,,,,,,0,,,83,118
97599,note_on,0,0,1,,,,,,,,,0,,,35,118
97599,note_on,4,0,1,,,,,,,,,0,,,31,118
97599,note_on,0,0,0,,,,,,,,,0,,,86,118
97635,note_on,36,0,0,,,,,,,,,0,,,83,0
97635,note_on,36,0,1,,,,,,,,,0,,,31,0
97635,note_on,0,0,0,,,,,,,,,0,,,86,0
97635,note_on,0,0,1,,,,,,,,,0,,,35,0
97639,note_on,0,0,1,,,,,,,,,0,,,43,119
97639,note_on,0,0,0,,,,,,,,,0,,,79,119
97639,note_on,4,0,1,,,,,,,,,0,,,38,119
97639,note_on,4,0,0,,,,,,,,,0,,,74,119
97675,note_on,36,0,1,,,,,,,,,0,,,38,0
97675,note_on,0,0,1,,,,,,,,,0,,,43,0
97675,note_on,36,0,0,,,,,,,,,0,,,74,0
97675,note_on,0,0,0,,,,,,,,,0,,,79,0
97679,note_on,0,0,1,,,,,,,,,0,,,35,120
97679,note_on,4,0,1,,,,,,,,,0,,,31,120
97680,note_on,0,0,0,,,,,,,,,0,,,91,120
97680,note_on,0,0,0,,,,,,,,,0,,,86,120
97680,set_tempo,5,1,0,,,,,,1176471,,,,,,,
97715,note_on,0,0,1,,,,,,,,,0,,,35,0
97715,note_on,36,0,1,,,,,,,,,0,,,31,0
97716,note_on,0,0,0,,,,,,,,,0,,,91,0
97716,note_on,36,0,0,,,,,,,,,0,,,86,0
97718,note_on,0,0,1,,,,,,,,,0,,,43,121
97718,note_on,3,0,1,,,,,,,,,0,,,38,121
97719,note_on,0,0,0,,,,,,,,,0,,,83,121
97719,note_on,3,0,0,,,,,,,,,0,,,79,121
97754,note_on,36,0,1,,,,,,,,,0,,,38,0
97754,note_on,0,0,1,,,,,,,,,0,,,43,0
97755,note_on,36,0,0,,,,,,,,,0,,,79,0
97755,note_on,0,0,0,,,,,,,,,0,,,83,0
97758,note_on,4,0,1,,,,,,,,,0,,,31,122
97758,note_on,0,0,1,,,,,,,,,0,,,35,122
97759,note_on,4,0,0,,,,,,,,,0,,,86,122
97759,note_on,0,0,0,,,,,,,,,0,,,91,122
97794,note_on,36,0,1,,,,,,,,,0,,,31,0
97794,note_on,0,0,1,,,,,,,,,0,,,35,0
97795,note_on,0,0,0,,,,,,,,,0,,,91,0
97795,note_on,36,0,0,,,,,,,,,0,,,86,0
97798,note_on,4,0,1,,,,,,,,,0,,,38,123
97798,note_on,0,0,1,,,,,,,,,0,,,43,123
97799,note_on,4,0,0,,,,,,,,,0,,,79,123
97799,note_on,0,0,0,,,,,,,,,0,,,83,123
97834,note_on,0,0,1,,,,,,,,,0,,,43,0
97834,note_on,36,0,1,,,,,,,,,0,,,38,0
97835,note_on,0,0,0,,,,,,,,,0,,,83,0
97835,note_on,36,0,0,,,,,,,,,0,,,79,0
97838,note_on,4,0,1,,,,,,,,,0,,,31,124
97838,note_on,0,0,1,,,,,,,,,0,,,35,124
97839,note_on,4,0,0,,,,,,,,,0,,,86,124
97839,note_on,0,0,0,,,,,,,,,0,,,91,124
97874,note_on,36,0,1,,,,,,,,,0,,,31,0
97874,note_on,0,0,1,,,,,,,,,0,,,35,0
97875,note_on,36,0,0,,,,,,,,,0,,,86,0
97875,note_on,0,0,0,,,,,,,,,0,,,91,0
97878,note_on,4,0,1,,,,,,,,,0,,,38,125
97878,note_on,0,0,1,,,,,,,,,0,,,43,125
97879,note_on,4,0,0,,,,,,,,,0,,,79,125
97879,note_on,0,0,0,,,,,,,,,0,,,83,125
97914,note_on,36,0,1,,,,,,,,,0,,,38,0
97914,note_on,0,0,1,,,,,,,,,0,,,43,0
97915,note_on,0,0,0,,,,,,,,,0,,,83,0
97915,note_on,36,0,0,,,,,,,,,0,,,79,0
97920,note_on,0,0,0,,,,,,,,,0,,,95,126
97920,set_tempo,5,1,0,,,,,,1132075,,,,,,,
97920,note_on,0,0,0,,,,,,,,,0,,,91,126
97920,note_on,6,0,1,,,,,,,,,0,,,31,126
97921,control_change,1,0,1,,,,,,,64,0,0,,,,
97922,control_change,2,0,0,,,,,,,64,127,0,,,,
97932,note_on,11,0,1,,,,,,,,,0,,,35,126
97944,note_on,12,0,1,,,,,,,,,0,,,38,126
97956,note_on,0,0,0,,,,,,,,,0,,,95,0
97956,note_on,34,0,0,,,,,,,,,0,,,91,0
97957,note_on,13,0,1,,,,,,,,,0,,,43,126
97959,note_on,0,0,0,,,,,,,,,0,,,86,126
97959,note_on,3,0,0,,,,,,,,,0,,,83,126
97995,note_on,36,0,0,,,,,,,,,0,,,83,0
97995,note_on,0,0,0,,,,,,,,,0,,,86,0
97999,note_on,4,0,0,,,,,,,,,0,,,91,126
97999,note_on,0,0,0,,,,,,,,,0,,,95,126
98035,note_on,36,0,0,,,,,,,,,0,,,91,0
98035,note_on,0,0,0,,,,,,,,,0,,,95,0
98038,note_on,0,0,1,,,,,,,,,0,,,38,0
98038,note_on,81,0,1,,,,,,,,,0,,,35,0
98038,note_on,0,0,1,,,,,,,,,0,,,43,0
98039,note_on,4,0,0,,,,,,,,,0,,,83,126
98039,note_on,0,0,0,,,,,,,,,0,,,86,126
98039,note_on,1,0,1,,,,,,,,,0,,,31,0
98040,note_on,0,0,1,,,,,,,,,0,,,71,126
98040,note_on,1,0,1,,,,,,,,,0,,,59,126
98075,note_on,36,0,0,,,,,,,,,0,,,83,0
98075,note_on,0,0,0,,,,,,,,,0,,,86,0
98078,note_on,38,0,1,,,,,,,,,0,,,59,0
98078,note_on,0,0,1,,,,,,,,,0,,,71,0
98079,note_on,4,0,0,,,,,,,,,0,,,91,126
98079,note_on,0,0,0,,,,,,,,,0,,,95,126
98115,note_on,36,0,0,,,,,,,,,0,,,91,0
98115,note_on,0,0,0,,,,,,,,,0,,,95,0
98119,note_on,4,0,0,,,,,,,,,0,,,83,126
98119,note_on,0,0,0,,,,,,,,,0,,,86,126
98155,note_on,36,0,0,,,,,,,,,0,,,83,0
98155,note_on,0,0,0,,,,,,,,,0,,,86,0
98159,note_on,4,0,0,,,,,,,,,0,,,91,126
98159,note_on,0,0,0,,,,,,,,,0,,,95,126
98160,note_on,82,0,1,,,,,,,,,0,,,57,126
98160,note_on,0,0,1,,,,,,,,,0,,,69,126
98195,note_on,36,0,0,,,,,,,,,0,,,91,0
98195,note_on,0,0,0,,,,,,,,,0,,,95,0
98198,note_on,38,0,1,,,,,,,,,0,,,57,0
98198,note_on,0,0,1,,,,,,,,,0,,,69,0
98198,note_on,0,0,0,,,,,,,,,0,,,86,126
98198,note_on,3,0,0,,,,,,,,,0,,,83,126
98234,note_on,36,0,0,,,,,,,,,0,,,83,0
98234,note_on,0,0,0,,,,,,,,,0,,,86,0
98238,note_on,0,0,0,,,,,,,,,0,,,95,126
98238,note_on,4,0,0,,,,,,,,,0,,,91,126
98274,note_on,36,0,0,,,,,,,,,0,,,91,0
98274,note_on,0,0,0,,,,,,,,,0,,,95,0
98278,note_on,4,0,0,,,,,,,,,0,,,83,126
98278,note_on,0,0,0,,,,,,,,,0,,,86,126
98280,set_tempo,2,1,0,,,,,,1176471,,,,,,,
98280,note_on,82,0,1,,,,,,,,,0,,,55,126
98280,note_on,0,0,1,,,,,,,,,0,,,67,126
98314,note_on,34,0,0,,,,,,,,,0,,,83,0
98314,note_on,0,0,0,,,,,,,,,0,,,86,0
98318,note_on,38,0,1,,,,,,,,,0,,,55,0
98318,note_on,0,0,0,,,,,,,,,0,,,95,126
98318,note_on,0,0,1,,,,,,,,,0,,,67,0
98318,note_on,4,0,0,,,,,,,,,0,,,91,126
98354,note_on,0,0,0,,,,,,,,,0,,,95,0
98354,note_on,36,0,0,,,,,,,,,0,,,91,0
98358,note_on,0,0,0,,,,,,,,,0,,,86,126
98358,note_on,4,0,0,,,,,,,,,0,,,83,126
98394,note_on,36,0,0,,,,,,,,,0,,,83,0
98394,note_on,0,0,0,,,,,,,,,0,,,86,0
98400,note_on,82,0,1,,,,,,,,,0,,,52,126
98400,note_on,0,0,1,,,,,,,,,0,,,64,126
98400,note_on,6,0,0,,,,,,,,,0,,,91,126
98400,note_on,0,0,0,,,,,,,,,0,,,95,126
98436,note_on,36,0,0,,,,,,,,,0,,,91,0
98436,note_on,0,0,0,,,,,,,,,0,,,95,0
98438,note_on,38,0,1,,,,,,,,,0,,,52,0
98438,note_on,0,0,1,,,,,,,,,0,,,64,0
98439,note_on,3,0,0,,,,,,,,,0,,,83,126
98439,note_on,0,0,0,,,,,,,,,0,,,86,126
98475,note_on,36,0,0,,,,,,,,,0,,,83,0
98475,note_on,0,0,0,,,,,,,,,0,,,86,0
98479,note_on,4,0,0,,,,,,,,,0,,,91,126
98479,note_on,0,0,0,,,,,,,,,0,,,95,126
98515,note_on,36,0,0,,,,,,,,,0,,,91,0
98515,note_on,0,0,0,,,,,,,,,0,,,95,0
98519,note_on,4,0,0,,,,,,,,,0,,,83,126
98519,note_on,0,0,0,,,,,,,,,0,,,86,126
98520,note_on,82,0,1,,,,,,,,,0,,,50,126
98520,note_on,0,0,1,,,,,,,,,0,,,62,126
98520,set_tempo,1,1,0,,,,,,1224490,,,,,,,
98555,note_on,0,0,0,,,,,,,,,0,,,86,0
98555,note_on,35,0,0,,,,,,,,,0,,,83,0
98558,note_on,38,0,1,,,,,,,,,0,,,50,0
98558,note_on,0,0,1,,,,,,,,,0,,,62,0
98559,note_on,4,0,0,,,,,,,,,0,,,91,126
98559,note_on,0,0,0,,,,,,,,,0,,,95,126
98595,note_on,36,0,0,,,,,,,,,0,,,91,0
98595,note_on,0,0,0,,,,,,,,,0,,,95,0
98599,note_on,4,0,0,,,,,,,,,0,,,83,126
98599,note_on,0,0,0,,,,,,,,,0,,,86,126
98635,note_on,0,0,0,,,,,,,,,0,,,86,0
98635,note_on,36,0,0,,,,,,,,,0,,,83,0
98639,note_on,0,0,0,,,,,,,,,0,,,95,126
98639,note_on,4,0,0,,,,,,,,,0,,,91,126
98640,note_on,0,0,1,,,,,,,,,0,,,59,126
98640,note_on,82,0,1,,,,,,,,,0,,,47,126
98675,note_on,0,0,0,,,,,,,,,0,,,95,0
98675,note_on,36,0,0,,,,,,,,,0,,,91,0
98678,note_on,38,0,1,,,,,,,,,0,,,47,0
98678,note_on,3,0,0,,,,,,,,,0,,,83,126
98678,note_on,0,0,1,,,,,,,,,0,,,59,0
98678,note_on,0,0,0,,,,,,,,,0,,,86,126
98714,note_on,36,0,0,,,,,,,,,0,,,83,0
98714,note_on,0,0,0,,,,,,,,,0,,,86,0
98718,note_on,0,0,0,,,,,,,,,0,,,95,126
98718,note_on,4,0,0,,,,,,,,,0,,,91,126
98754,note_on,36,0,0,,,,,,,,,0,,,91,0
98754,note_on,0,0,0,,,,,,,,,0,,,95,0
98758,note_on,0,0,0,,,,,,,,,0,,,86,126
98758,note_on,4,0,0,,,,,,,,,0,,,83,126
98760,note_on,82,0,1,,,,,,,,,0,,,45,126
98760,set_tempo,2,1,0,,,,,,1276596,,,,,,,
98760,note_on,0,0,1,,,,,,,,,0,,,57,126
98794,note_on,34,0,0,,,,,,,,,0,,,83,0
98794,note_on,0,0,0,,,,,,,,,0,,,86,0
98798,note_on,0,0,1,,,,,,,,,0,,,57,0
98798,note_on,4,0,0,,,,,,,,,0,,,91,126
98798,note_on,0,0,0,,,,,,,,,0,,,95,126
98798,note_on,38,0,1,,,,,,,,,0,,,45,0
98834,note_on,0,0,0,,,,,,,,,0,,,95,0
98834,note_on,36,0,0,,,,,,,,,0,,,91,0
98838,note_on,4,0,0,,,,,,,,,0,,,83,126
98838,note_on,0,0,0,,,,,,,,,0,,,86,126
98874,note_on,0,0,0,,,,,,,,,0,,,86,0
98874,note_on,36,0,0,,,,,,,,,0,,,83,0
98880,set_tempo,6,1,0,,,,,,1333333,,,,,,,
98880,note_on,0,0,1,,,,,,,,,0,,,55,126
98880,note_on,82,0,1,,,,,,,,,0,,,43,126
98880,note_on,0,0,0,,,,,,,,,0,,,95,126
98880,note_on,0,0,0,,,,,,,,,0,,,91,126
98916,note_on,0,0,0,,,,,,,,,0,,,95,0
98916,note_on,36,0,0,,,,,,,,,0,,,91,0
98918,note_on,0,0,1,,,,,,,,,0,,,55,0
98918,note_on,38,0,1,,,,,,,,,0,,,43,0
98919,note_on,0,0,0,,,,,,,,,0,,,86,126
98919,note_on,3,0,0,,,,,,,,,0,,,83,126
98955,note_on,36,0,0,,,,,,,,,0,,,83,0
98955,note_on,0,0,0,,,,,,,,,0,,,86,0
98959,note_on,0,0,0,,,,,,,,,0,,,95,126
98959,note_on,4,0,0,,,,,,,,,0,,,91,126
98995,note_on,36,0,0,,,,,,,,,0,,,91,0
98995,note_on,0,0,0,,,,,,,,,0,,,95,0
98999,note_on,4,0,0,,,,,,,,,0,,,83,126
98999,note_on,0,0,0,,,,,,,,,0,,,86,126
99000,note_on,0,0,1,,,,,,,,,0,,,52,126
99000,note_on,82,0,1,,,,,,,,,0,,,40,126
99000,set_tempo,1,1,0,,,,,,1395349,,,,,,,
99035,note_on,35,0,0,,,,,,,,,0,,,83,0
99035,note_on,0,0,0,,,,,,,,,0,,,86,0
99038,note_on,38,0,1,,,,,,,,,0,,,40,0
99038,note_on,0,0,1,,,,,,,,,0,,,52,0
99039,note_on,0,0,0,,,,,,,,,0,,,95,126
99039,note_on,4,0,0,,,,,,,,,0,,,91,126
99075,note_on,36,0,0,,,,,,,,,0,,,91,0
99075,note_on,0,0,0,,,,,,,,,0,,,95,0
99079,note_on,4,0,0,,,,,,,,,0,,,83,126
99079,note_on,0,0,0,,,,,,,,,0,,,86,126
99115,note_on,0,0,0,,,,,,,,,0,,,86,0
99115,note_on,36,0,0,,,,,,,,,0,,,83,0
99119,note_on,4,0,0,,,,,,,,,0,,,91,126
99119,note_on,0,0,0,,,,,,,,,0,,,95,126
99120,note_on,0,0,1,,,,,,,,,0,,,50,126
99120,note_on,82,0,1,,,,,,,,,0,,,38,126
99120,set_tempo,1,1,0,,,,,,1463415,,,,,,,
99155,note_on,35,0,0,,,,,,,,,0,,,91,0
99155,note_on,0,0,0,,,,,,,,,0,,,95,0
99158,note_on,38,0,1,,,,,,,,,0,,,38,0
99158,note_on,3,0,0,,,,,,,,,0,,,83,126
99158,note_on,0,0,1,,,,,,,,,0,,,50,0
99158,note_on,0,0,0,,,,,,,,,0,,,86,126
99194,note_on,36,0,0,,,,,,,,,0,,,83,0
99194,note_on,0,0,0,,,,,,,,,0,,,86,0
99198,note_on,0,0,0,,,,,,,,,0,,,95,126
99198,note_on,4,0,0,,,,,,,,,0,,,91,126
99234,note_on,0,0,0,,,,,,,,,0,,,95,0
99234,note_on,36,0,0,,,,,,,,,0,,,91,0
99238,note_on,0,0,0,,,,,,,,,0,,,86,126
99238,note_on,4,0,0,,,,,,,,,0,,,83,126
99240,note_on,82,0,1,,,,,,,,,0,,,35,126
99240,note_on,0,0,1,,,,,,,,,0,,,47,126
99240,set_tempo,2,1,0,,,,,,1714286,,,,,,,
99274,note_on,34,0,0,,,,,,,,,0,,,83,0
99274,note_on,0,0,0,,,,,,,,,0,,,86,0
99278,note_on,38,0,1,,,,,,,,,0,,,35,0
99278,note_on,4,0,0,,,,,,,,,0,,,91,126
99278,note_on,0,0,0,,,,,,,,,0,,,95,126
99278,note_on,0,0,1,,,,,,,,,0,,,47,0
99314,note_on,36,0,0,,,,,,,,,0,,,91,0
99314,note_on,0,0,0,,,,,,,,,0,,,95,0
99318,note_on,4,0,0,,,,,,,,,0,,,83,126
99318,note_on,0,0,0,,,,,,,,,0,,,86,126
99354,note_on,0,0,0,,,,,,,,,0,,,86,0
99354,note_on,36,0,0,,,,,,,,,0,,,83,0
99360,note_on,6,0,0,,,,,,,,,0,,,91,126
99360,note_on,0,0,1,,,,,,,,,0,,,43,126
99360,note_on,82,0,1,,,,,,,,,0,,,31,126
99360,note_on,0,0,0,,,,,,,,,0,,,95,126
99361,control_change,1,0,1,,,,,,,64,0,0,,,,
99362,control_change,1,0,1,,,,,,,64,127,0,,,,
99438,note_on,78,0,0,,,,,,,,,0,,,91,0
99438,note_on,0,0,0,,,,,,,,,0,,,95,0
99587,note_on,225,0,1,,,,,,,,,0,,,31,0
99587,note_on,0,0,1,,,,,,,,,0,,,43,0
99840,note_on,0,0,1,,,,,,,,,0,,,55,126
99840,note_on,0,0,0,,,,,,,,,0,,,59,126
99840,set_tempo,402,1,0,,,,,,3428571,,,,,,,
99840,note_on,0,0,0,,,,,,,,,0,,,62,126
99840,note_on,253,0,1,,,,,,,,,0,,,43,126
99840,note_on,0,0,1,,,,,,,,,0,,,50,126
100751,note_on,911,0,1,,,,,,,,,0,,,43,0
100751,note_on,0,0,1,,,,,,,,,0,,,55,0
100751,note_on,0,0,0,,,,,,,,,0,,,62,0
100751,note_on,0,0,1,,,,,,,,,0,,,50,0
100751,note_on,911,0,0,,,,,,,,,0,,,59,0
100799,set_tempo,48,1,0,,,,,,1714286,,,,,,,
100800,end_of_track,1,1,0,,,,,,,,,,,,,
100800,control_change,49,0,1,,,,,,,64,0,0,,,,
100801,end_of_track,1,1,1,,,,,,,,,,,,,
