tick,type,numerator,denominator,clocks_per_click,notated_32nd_notes_per_beat,time,meta,track,key,tempo,control,value,channel,program,port,note,velocity
0,control_change,,,,,0,0,0,,,7,100,0,,,,
0,set_tempo,,,,,0,1,0,,500000,,,,,,,
0,program_change,,,,,0,0,0,,,,,0,0,,,
0,key_signature,,,,,0,1,0,F,,,,,,,,
0,key_signature,,,,,0,1,1,F,,,,,,,,
0,time_signature,4,4,24,8,0,1,0,,,,,,,,,
0,midi_port,,,,,0,1,0,,,,,,,0,,
0,key_signature,,,,,0,1,2,F,,,,,,,,
0,midi_port,,,,,0,1,2,,,,,,,0,,
0,control_change,,,,,0,0,0,,,121,0,0,,,,
0,control_change,,,,,0,0,0,,,93,0,0,,,,
0,control_change,,,,,0,0,0,,,91,0,0,,,,
0,control_change,,,,,0,0,0,,,10,64,0,,,,
0,midi_port,,,,,0,1,1,,,,,,,0,,
480,note_on,,,,,480,0,1,,,,,0,,,79,112
480,note_on,,,,,480,0,2,,,,,0,,,61,112
522,note_on,,,,,42,0,2,,,,,0,,,67,112
522,note_on,,,,,42,0,1,,,,,0,,,85,112
564,note_on,,,,,42,0,1,,,,,0,,,88,112
564,note_on,,,,,42,0,2,,,,,0,,,70,112
606,note_on,,,,,42,0,1,,,,,0,,,94,112
606,note_on,,,,,42,0,2,,,,,0,,,76,112
719,note_on,,,,,0,0,1,,,,,0,,,85,0
719,note_on,,,,,113,0,2,,,,,0,,,61,0
719,note_on,,,,,0,0,1,,,,,0,,,88,0
719,note_on,,,,,0,0,1,,,,,0,,,94,0
719,note_on,,,,,0,0,2,,,,,0,,,67,0
719,note_on,,,,,0,0,2,,,,,0,,,76,0
719,note_on,,,,,0,0,2,,,,,0,,,70,0
719,note_on,,,,,113,0,1,,,,,0,,,79,0
1440,note_on,,,,,721,0,1,,,,,0,,,74,112
1440,note_on,,,,,721,0,2,,,,,0,,,56,112
1482,note_on,,,,,42,0,1,,,,,0,,,80,112
1482,note_on,,,,,42,0,2,,,,,0,,,62,112
1524,note_on,,,,,42,0,1,,,,,0,,,83,112
1524,note_on,,,,,42,0,2,,,,,0,,,65,112
1566,note_on,,,,,42,0,1,,,,,0,,,89,112
1566,note_on,,,,,42,0,2,,,,,0,,,71,112
1679,note_on,,,,,0,0,1,,,,,0,,,83,0
1679,note_on,,,,,0,0,1,,,,,0,,,80,0
1679,note_on,,,,,0,0,2,,,,,0,,,71,0
1679,note_on,,,,,113,0,1,,,,,0,,,74,0
1679,note_on,,,,,113,0,2,,,,,0,,,56,0
1679,note_on,,,,,0,0,2,,,,,0,,,65,0
1679,note_on,,,,,0,0,2,,,,,0,,,62,0
1679,note_on,,,,,0,0,1,,,,,0,,,89,0
2400,note_on,,,,,721,0,1,,,,,0,,,69,112
2400,note_on,,,,,721,0,2,,,,,0,,,51,112
2442,note_on,,,,,42,0,1,,,,,0,,,75,112
2442,note_on,,,,,42,0,2,,,,,0,,,57,112
2484,note_on,,,,,42,0,1,,,,,0,,,78,112
2484,note_on,,,,,42,0,2,,,,,0,,,60,112
2526,note_on,,,,,42,0,1,,,,,0,,,84,112
2526,note_on,,,,,42,0,2,,,,,0,,,66,112
2639,note_on,,,,,113,0,2,,,,,0,,,51,0
2639,note_on,,,,,0,0,1,,,,,0,,,75,0
2639,note_on,,,,,0,0,1,,,,,0,,,78,0
2639,note_on,,,,,0,0,1,,,,,0,,,84,0
2639,note_on,,,,,113,0,1,,,,,0,,,69,0
2639,note_on,,,,,0,0,2,,,,,0,,,66,0
2639,note_on,,,,,0,0,2,,,,,0,,,60,0
2639,note_on,,,,,0,0,2,,,,,0,,,57,0
2880,note_on,,,,,241,0,2,,,,,0,,,46,112
2880,note_on,,,,,241,0,1,,,,,0,,,64,112
2922,note_on,,,,,42,0,2,,,,,0,,,52,112
2922,note_on,,,,,42,0,1,,,,,0,,,70,112
2964,note_on,,,,,42,0,2,,,,,0,,,55,112
2964,note_on,,,,,42,0,1,,,,,0,,,73,112
3006,note_on,,,,,42,0,1,,,,,0,,,79,112
3006,note_on,,,,,42,0,2,,,,,0,,,61,112
3119,note_on,,,,,113,0,2,,,,,0,,,46,0
3119,note_on,,,,,113,0,1,,,,,0,,,64,0
3119,note_on,,,,,0,0,2,,,,,0,,,52,0
3119,note_on,,,,,0,0,1,,,,,0,,,70,0
3119,note_on,,,,,0,0,1,,,,,0,,,73,0
3119,note_on,,,,,0,0,1,,,,,0,,,79,0
3119,note_on,,,,,0,0,2,,,,,0,,,55,0
3119,note_on,,,,,0,0,2,,,,,0,,,61,0
3360,note_on,,,,,241,0,2,,,,,0,,,41,112
3360,note_on,,,,,241,0,1,,,,,0,,,59,112
3402,note_on,,,,,42,0,1,,,,,0,,,65,112
3402,note_on,,,,,42,0,2,,,,,0,,,47,112
3444,note_on,,,,,42,0,2,,,,,0,,,50,112
3444,note_on,,,,,42,0,1,,,,,0,,,68,112
3486,note_on,,,,,42,0,1,,,,,0,,,74,112
3486,note_on,,,,,42,0,2,,,,,0,,,56,112
3599,note_on,,,,,0,0,2,,,,,0,,,56,0
3599,note_on,,,,,0,0,2,,,,,0,,,47,0
3599,note_on,,,,,0,0,1,,,,,0,,,74,0
3599,note_on,,,,,0,0,1,,,,,0,,,68,0
3599,note_on,,,,,0,0,1,,,,,0,,,65,0
3599,note_on,,,,,0,0,2,,,,,0,,,50,0
3599,note_on,,,,,113,0,2,,,,,0,,,41,0
3599,note_on,,,,,113,0,1,,,,,0,,,59,0
3840,note_on,,,,,241,0,2,,,,,0,,,36,112
3840,note_on,,,,,241,0,1,,,,,0,,,54,112
3882,note_on,,,,,42,0,1,,,,,0,,,60,112
3882,note_on,,,,,42,0,2,,,,,0,,,42,112
3924,note_on,,,,,42,0,1,,,,,0,,,63,112
3924,note_on,,,,,42,0,2,,,,,0,,,45,112
3966,note_on,,,,,42,0,2,,,,,0,,,51,112
3966,note_on,,,,,42,0,1,,,,,0,,,69,112
4079,note_on,,,,,0,0,1,,,,,0,,,63,0
4079,note_on,,,,,0,0,2,,,,,0,,,51,0
4079,note_on,,,,,0,0,2,,,,,0,,,45,0
4079,note_on,,,,,0,0,2,,,,,0,,,42,0
4079,note_on,,,,,0,0,1,,,,,0,,,60,0
4079,note_on,,,,,113,0,2,,,,,0,,,36,0
4079,note_on,,,,,0,0,1,,,,,0,,,69,0
4079,note_on,,,,,113,0,1,,,,,0,,,54,0
4320,note_on,,,,,241,0,1,,,,,0,,,55,112
4320,note_on,,,,,241,0,2,,,,,0,,,37,112
4362,note_on,,,,,42,0,1,,,,,0,,,61,112
4362,note_on,,,,,42,0,2,,,,,0,,,43,112
4404,note_on,,,,,42,0,1,,,,,0,,,64,112
4404,note_on,,,,,42,0,2,,,,,0,,,46,112
4446,note_on,,,,,42,0,1,,,,,0,,,70,112
4446,note_on,,,,,42,0,2,,,,,0,,,52,112
4559,note_on,,,,,113,0,2,,,,,0,,,37,0
4559,note_on,,,,,0,0,1,,,,,0,,,61,0
4559,note_on,,,,,113,0,1,,,,,0,,,55,0
4559,note_on,,,,,0,0,1,,,,,0,,,70,0
4559,note_on,,,,,0,0,1,,,,,0,,,64,0
4559,note_on,,,,,0,0,2,,,,,0,,,52,0
4559,note_on,,,,,0,0,2,,,,,0,,,46,0
4559,note_on,,,,,0,0,2,,,,,0,,,43,0
4800,note_on,,,,,241,0,2,,,,,0,,,38,112
4800,note_on,,,,,241,0,1,,,,,0,,,56,112
4842,note_on,,,,,42,0,2,,,,,0,,,44,112
4863,note_on,,,,,63,0,1,,,,,0,,,59,112
4884,note_on,,,,,42,0,2,,,,,0,,,47,112
4926,note_on,,,,,42,0,2,,,,,0,,,53,112
4927,note_on,,,,,64,0,1,,,,,0,,,65,112
5038,note_on,,,,,111,0,1,,,,,0,,,59,0
5038,note_on,,,,,0,0,1,,,,,0,,,65,0
5039,note_on,,,,,0,0,2,,,,,0,,,44,0
5039,note_on,,,,,0,0,2,,,,,0,,,47,0
5039,note_on,,,,,0,0,2,,,,,0,,,53,0
5039,note_on,,,,,113,0,2,,,,,0,,,38,0
5039,note_on,,,,,1,0,1,,,,,0,,,56,0
5280,note_on,,,,,241,0,2,,,,,0,,,34,112
5280,note_on,,,,,241,0,1,,,,,0,,,53,112
5322,note_on,,,,,42,0,2,,,,,0,,,41,112
5343,note_on,,,,,63,0,1,,,,,0,,,56,112
5364,note_on,,,,,42,0,2,,,,,0,,,44,112
5406,note_on,,,,,42,0,2,,,,,0,,,50,112
5407,note_on,,,,,64,0,1,,,,,0,,,62,112
5518,note_on,,,,,111,0,1,,,,,0,,,56,0
5518,note_on,,,,,0,0,1,,,,,0,,,62,0
5519,note_on,,,,,0,0,2,,,,,0,,,41,0
5519,note_on,,,,,1,0,1,,,,,0,,,53,0
5519,note_on,,,,,0,0,2,,,,,0,,,44,0
5519,note_on,,,,,0,0,2,,,,,0,,,50,0
5519,note_on,,,,,113,0,2,,,,,0,,,34,0
5760,note_on,,,,,241,0,2,,,,,0,,,33,112
5760,note_on,,,,,241,0,1,,,,,0,,,57,112
5802,note_on,,,,,42,0,2,,,,,0,,,38,112
5802,note_on,,,,,42,0,1,,,,,0,,,62,112
5844,note_on,,,,,42,0,2,,,,,0,,,41,112
5844,note_on,,,,,42,0,1,,,,,0,,,65,112
5886,note_on,,,,,42,0,1,,,,,0,,,69,112
5886,note_on,,,,,42,0,2,,,,,0,,,45,112
5999,note_on,,,,,0,0,2,,,,,0,,,45,0
5999,note_on,,,,,0,0,2,,,,,0,,,41,0
5999,note_on,,,,,0,0,2,,,,,0,,,38,0
5999,note_on,,,,,0,0,1,,,,,0,,,62,0
5999,note_on,,,,,0,0,1,,,,,0,,,65,0
5999,note_on,,,,,113,0,2,,,,,0,,,33,0
5999,note_on,,,,,0,0,1,,,,,0,,,69,0
5999,note_on,,,,,113,0,1,,,,,0,,,57,0
6720,note_on,,,,,0,0,2,,,,,0,,,57,112
6720,note_on,,,,,721,0,2,,,,,0,,,45,112
6720,note_on,,,,,0,0,1,,,,,0,,,74,112
6720,note_on,,,,,0,0,1,,,,,0,,,77,112
6720,note_on,,,,,0,0,1,,,,,0,,,81,112
6720,note_on,,,,,721,0,1,,,,,0,,,69,112
6720,note_on,,,,,0,0,2,,,,,0,,,50,112
6720,note_on,,,,,0,0,2,,,,,0,,,53,112
6798,note_on,,,,,78,0,1,,,,,0,,,69,0
6798,note_on,,,,,0,0,2,,,,,0,,,57,0
6798,note_on,,,,,0,0,1,,,,,0,,,81,0
6798,note_on,,,,,0,0,1,,,,,0,,,74,0
6798,note_on,,,,,0,0,2,,,,,0,,,53,0
6798,note_on,,,,,0,0,1,,,,,0,,,77,0
6798,note_on,,,,,78,0,2,,,,,0,,,45,0
6798,note_on,,,,,0,0,2,,,,,0,,,50,0
7680,note_on,,,,,0,0,1,,,,,0,,,81,112
7680,note_on,,,,,0,0,2,,,,,0,,,69,112
7680,note_on,,,,,0,0,1,,,,,0,,,85,112
7680,note_on,,,,,882,0,2,,,,,0,,,57,112
7680,note_on,,,,,0,0,2,,,,,0,,,64,112
7680,note_on,,,,,0,0,1,,,,,0,,,93,112
7680,note_on,,,,,0,0,2,,,,,0,,,61,112
7680,note_on,,,,,882,0,1,,,,,0,,,79,112
7680,note_on,,,,,0,0,1,,,,,0,,,88,112
7758,note_on,,,,,78,0,1,,,,,0,,,79,0
7758,note_on,,,,,78,0,2,,,,,0,,,57,0
7758,note_on,,,,,0,0,2,,,,,0,,,69,0
7758,note_on,,,,,0,0,1,,,,,0,,,93,0
7758,note_on,,,,,0,0,1,,,,,0,,,85,0
7758,note_on,,,,,0,0,2,,,,,0,,,64,0
7758,note_on,,,,,0,0,2,,,,,0,,,61,0
7758,note_on,,,,,0,0,1,,,,,0,,,81,0
7758,note_on,,,,,0,0,1,,,,,0,,,88,0
9600,time_signature,31,16,24,8,9600,1,0,,,,,,,,,
9602,control_change,,,,,1844,0,2,,,64,127,0,,,,
9840,set_tempo,,,,,240,1,0,,400000,,,,,,,
9840,note_on,,,,,2082,0,1,,,,,0,,,45,70
9840,note_on,,,,,238,0,2,,,,,0,,,33,70
9953,note_on,,,,,113,0,2,,,,,0,,,33,0
9953,note_on,,,,,113,0,1,,,,,0,,,45,0
9960,note_on,,,,,7,0,1,,,,,0,,,46,70
9960,note_on,,,,,7,0,2,,,,,0,,,34,70
10073,note_on,,,,,113,0,2,,,,,0,,,34,0
10073,note_on,,,,,113,0,1,,,,,0,,,46,0
10080,note_on,,,,,7,0,1,,,,,0,,,49,70
10080,note_on,,,,,7,0,2,,,,,0,,,37,70
10193,note_on,,,,,113,0,2,,,,,0,,,37,0
10193,note_on,,,,,113,0,1,,,,,0,,,49,0
10200,note_on,,,,,7,0,1,,,,,0,,,53,70
10200,note_on,,,,,7,0,2,,,,,0,,,41,70
10313,note_on,,,,,113,0,1,,,,,0,,,53,0
10313,note_on,,,,,113,0,2,,,,,0,,,41,0
10320,note_on,,,,,7,0,1,,,,,0,,,52,70
10320,note_on,,,,,7,0,2,,,,,0,,,40,70
10433,note_on,,,,,113,0,2,,,,,0,,,40,0
10433,note_on,,,,,113,0,1,,,,,0,,,52,0
10440,note_on,,,,,7,0,2,,,,,0,,,38,70
10440,note_on,,,,,7,0,1,,,,,0,,,50,70
10553,note_on,,,,,113,0,1,,,,,0,,,50,0
10553,note_on,,,,,113,0,2,,,,,0,,,38,0
10560,note_on,,,,,7,0,1,,,,,0,,,49,70
10560,note_on,,,,,7,0,2,,,,,0,,,37,70
10673,note_on,,,,,113,0,1,,,,,0,,,49,0
10673,note_on,,,,,113,0,2,,,,,0,,,37,0
10680,note_on,,,,,7,0,2,,,,,0,,,34,70
10680,note_on,,,,,7,0,1,,,,,0,,,46,70
10793,note_on,,,,,113,0,2,,,,,0,,,34,0
10793,note_on,,,,,113,0,1,,,,,0,,,46,0
10800,note_on,,,,,7,0,2,,,,,0,,,33,70
10800,note_on,,,,,7,0,1,,,,,0,,,45,70
10913,note_on,,,,,113,0,1,,,,,0,,,45,0
10913,note_on,,,,,113,0,2,,,,,0,,,33,0
10920,note_on,,,,,7,0,2,,,,,0,,,34,70
10920,note_on,,,,,7,0,1,,,,,0,,,46,70
11033,note_on,,,,,113,0,1,,,,,0,,,46,0
11033,note_on,,,,,113,0,2,,,,,0,,,34,0
11040,note_on,,,,,7,0,1,,,,,0,,,49,70
11040,note_on,,,,,7,0,2,,,,,0,,,37,70
11153,note_on,,,,,113,0,1,,,,,0,,,49,0
11153,note_on,,,,,113,0,2,,,,,0,,,37,0
11160,note_on,,,,,7,0,2,,,,,0,,,38,70
11160,note_on,,,,,7,0,1,,,,,0,,,50,70
11273,note_on,,,,,113,0,2,,,,,0,,,38,0
11273,note_on,,,,,113,0,1,,,,,0,,,50,0
11280,note_on,,,,,7,0,2,,,,,0,,,40,70
11280,note_on,,,,,7,0,1,,,,,0,,,52,70
11393,note_on,,,,,113,0,2,,,,,0,,,40,0
11393,note_on,,,,,113,0,1,,,,,0,,,52,0
11400,note_on,,,,,7,0,2,,,,,0,,,41,70
11400,note_on,,,,,7,0,1,,,,,0,,,53,70
11513,note_on,,,,,113,0,1,,,,,0,,,53,0
11513,note_on,,,,,113,0,2,,,,,0,,,41,0
11520,note_on,,,,,7,0,1,,,,,0,,,58,70
11520,note_on,,,,,7,0,2,,,,,0,,,46,70
11633,note_on,,,,,113,0,2,,,,,0,,,46,0
11633,note_on,,,,,113,0,1,,,,,0,,,58,0
11640,note_on,,,,,7,0,1,,,,,0,,,57,70
11640,note_on,,,,,7,0,2,,,,,0,,,45,70
11753,note_on,,,,,113,0,2,,,,,0,,,45,0
11753,note_on,,,,,113,0,1,,,,,0,,,57,0
11760,note_on,,,,,7,0,1,,,,,0,,,55,70
11760,note_on,,,,,7,0,2,,,,,0,,,43,70
11873,note_on,,,,,113,0,1,,,,,0,,,55,0
11873,note_on,,,,,113,0,2,,,,,0,,,43,0
11880,note_on,,,,,7,0,2,,,,,0,,,41,70
11880,note_on,,,,,7,0,1,,,,,0,,,53,70
11993,note_on,,,,,113,0,1,,,,,0,,,53,0
11993,note_on,,,,,113,0,2,,,,,0,,,41,0
12000,note_on,,,,,7,0,1,,,,,0,,,52,70
12000,note_on,,,,,7,0,2,,,,,0,,,40,70
12113,note_on,,,,,113,0,2,,,,,0,,,40,0
12113,note_on,,,,,113,0,1,,,,,0,,,52,0
12120,note_on,,,,,7,0,2,,,,,0,,,38,70
12120,note_on,,,,,7,0,1,,,,,0,,,50,70
12233,note_on,,,,,113,0,2,,,,,0,,,38,0
12233,note_on,,,,,113,0,1,,,,,0,,,50,0
12240,note_on,,,,,7,0,2,,,,,0,,,37,70
12240,note_on,,,,,7,0,1,,,,,0,,,49,70
12296,note_on,,,,,56,0,2,,,,,0,,,37,0
12296,note_on,,,,,56,0,1,,,,,0,,,49,0
12300,note_on,,,,,4,0,1,,,,,0,,,50,70
12300,note_on,,,,,4,0,2,,,,,0,,,38,70
12356,note_on,,,,,56,0,2,,,,,0,,,38,0
12356,note_on,,,,,56,0,1,,,,,0,,,50,0
12360,note_on,,,,,4,0,1,,,,,0,,,52,70
12360,note_on,,,,,4,0,2,,,,,0,,,40,70
12416,note_on,,,,,56,0,1,,,,,0,,,52,0
12416,note_on,,,,,56,0,2,,,,,0,,,40,0
12420,note_on,,,,,4,0,2,,,,,0,,,41,70
12420,note_on,,,,,4,0,1,,,,,0,,,53,70
12476,note_on,,,,,56,0,2,,,,,0,,,41,0
12476,note_on,,,,,56,0,1,,,,,0,,,53,0
12480,note_on,,,,,4,0,1,,,,,0,,,55,70
12480,note_on,,,,,4,0,2,,,,,0,,,43,70
12536,note_on,,,,,56,0,2,,,,,0,,,43,0
12536,note_on,,,,,56,0,1,,,,,0,,,55,0
12540,note_on,,,,,4,0,1,,,,,0,,,57,70
12540,note_on,,,,,4,0,2,,,,,0,,,45,70
12596,note_on,,,,,56,0,2,,,,,0,,,45,0
12596,note_on,,,,,56,0,1,,,,,0,,,57,0
12600,note_on,,,,,4,0,2,,,,,0,,,46,70
12600,note_on,,,,,4,0,1,,,,,0,,,58,70
12656,note_on,,,,,56,0,1,,,,,0,,,58,0
12656,note_on,,,,,56,0,2,,,,,0,,,46,0
12660,note_on,,,,,4,0,2,,,,,0,,,49,70
12660,note_on,,,,,4,0,1,,,,,0,,,61,70
12716,note_on,,,,,56,0,2,,,,,0,,,49,0
12716,note_on,,,,,56,0,1,,,,,0,,,61,0
12720,note_on,,,,,4,0,2,,,,,0,,,53,70
12720,note_on,,,,,4,0,1,,,,,0,,,65,70
12833,note_on,,,,,113,0,2,,,,,0,,,53,0
12833,note_on,,,,,113,0,1,,,,,0,,,65,0
12840,note_on,,,,,7,0,1,,,,,0,,,64,70
12840,note_on,,,,,7,0,2,,,,,0,,,52,70
12953,note_on,,,,,113,0,1,,,,,0,,,64,0
12953,note_on,,,,,113,0,2,,,,,0,,,52,0
12960,note_on,,,,,7,0,1,,,,,0,,,62,70
12960,note_on,,,,,7,0,2,,,,,0,,,50,70
13073,note_on,,,,,113,0,2,,,,,0,,,50,0
13073,note_on,,,,,113,0,1,,,,,0,,,62,0
13080,note_on,,,,,7,0,1,,,,,0,,,61,70
13080,note_on,,,,,7,0,2,,,,,0,,,49,70
13193,note_on,,,,,113,0,1,,,,,0,,,61,0
13193,note_on,,,,,113,0,2,,,,,0,,,49,0
13200,note_on,,,,,7,0,1,,,,,0,,,58,70
13200,note_on,,,,,7,0,2,,,,,0,,,46,70
13313,note_on,,,,,113,0,1,,,,,0,,,58,0
13313,note_on,,,,,113,0,2,,,,,0,,,46,0
13320,note_on,,,,,7,0,2,,,,,0,,,45,70
13320,note_on,,,,,7,0,1,,,,,0,,,57,70
13433,note_on,,,,,113,0,2,,,,,0,,,45,0
13433,note_on,,,,,113,0,1,,,,,0,,,57,0
13440,note_on,,,,,7,0,2,,,,,0,,,46,70
13440,note_on,,,,,7,0,1,,,,,0,,,58,70
13553,note_on,,,,,113,0,2,,,,,0,,,46,0
13553,note_on,,,,,113,0,1,,,,,0,,,58,0
13560,note_on,,,,,7,0,2,,,,,0,,,49,70
13560,note_on,,,,,7,0,1,,,,,0,,,61,70
13673,note_on,,,,,113,0,2,,,,,0,,,49,0
13673,note_on,,,,,113,0,1,,,,,0,,,61,0
13680,note_on,,,,,7,0,1,,,,,0,,,62,70
13680,note_on,,,,,7,0,2,,,,,0,,,50,70
13793,note_on,,,,,113,0,2,,,,,0,,,50,0
13793,note_on,,,,,113,0,1,,,,,0,,,62,0
13800,note_on,,,,,7,0,2,,,,,0,,,52,70
13800,note_on,,,,,7,0,1,,,,,0,,,64,70
13913,note_on,,,,,113,0,2,,,,,0,,,52,0
13913,note_on,,,,,113,0,1,,,,,0,,,64,0
13920,note_on,,,,,7,0,2,,,,,0,,,53,70
13920,note_on,,,,,7,0,1,,,,,0,,,65,70
14033,note_on,,,,,113,0,2,,,,,0,,,53,0
14033,note_on,,,,,113,0,1,,,,,0,,,65,0
14040,note_on,,,,,7,0,2,,,,,0,,,58,70
14040,note_on,,,,,7,0,1,,,,,0,,,70,70
14153,note_on,,,,,113,0,1,,,,,0,,,70,0
14153,note_on,,,,,113,0,2,,,,,0,,,58,0
14160,note_on,,,,,7,0,2,,,,,0,,,57,70
14160,note_on,,,,,7,0,1,,,,,0,,,69,70
14273,note_on,,,,,113,0,1,,,,,0,,,69,0
14273,note_on,,,,,113,0,2,,,,,0,,,57,0
14280,note_on,,,,,7,0,1,,,,,0,,,67,70
14280,note_on,,,,,7,0,2,,,,,0,,,55,70
14393,note_on,,,,,113,0,1,,,,,0,,,67,0
14393,note_on,,,,,113,0,2,,,,,0,,,55,0
14400,note_on,,,,,7,0,2,,,,,0,,,53,70
14400,note_on,,,,,7,0,1,,,,,0,,,65,70
14513,note_on,,,,,113,0,1,,,,,0,,,65,0
14513,note_on,,,,,113,0,2,,,,,0,,,53,0
14520,note_on,,,,,7,0,2,,,,,0,,,52,70
14520,note_on,,,,,7,0,1,,,,,0,,,64,70
14633,note_on,,,,,113,0,1,,,,,0,,,64,0
14633,note_on,,,,,113,0,2,,,,,0,,,52,0
14640,note_on,,,,,7,0,1,,,,,0,,,62,70
14640,note_on,,,,,7,0,2,,,,,0,,,50,70
14753,note_on,,,,,113,0,1,,,,,0,,,62,0
14753,note_on,,,,,113,0,2,,,,,0,,,50,0
14760,note_on,,,,,7,0,2,,,,,0,,,49,70
14760,note_on,,,,,7,0,1,,,,,0,,,61,70
14760,set_tempo,,,,,4920,1,0,,545456,,,,,,,
14816,note_on,,,,,56,0,2,,,,,0,,,49,0
14816,note_on,,,,,56,0,1,,,,,0,,,61,0
14820,note_on,,,,,4,0,2,,,,,0,,,50,70
14820,note_on,,,,,4,0,1,,,,,0,,,62,70
14876,note_on,,,,,56,0,2,,,,,0,,,50,0
14876,note_on,,,,,56,0,1,,,,,0,,,62,0
14880,note_on,,,,,4,0,1,,,,,0,,,64,70
14880,note_on,,,,,4,0,2,,,,,0,,,52,70
14936,note_on,,,,,56,0,2,,,,,0,,,52,0
14936,note_on,,,,,56,0,1,,,,,0,,,64,0
14940,note_on,,,,,4,0,1,,,,,0,,,65,70
14940,note_on,,,,,4,0,2,,,,,0,,,53,70
14996,note_on,,,,,56,0,1,,,,,0,,,65,0
14996,note_on,,,,,56,0,2,,,,,0,,,53,0
15000,note_on,,,,,4,0,1,,,,,0,,,67,70
15000,note_on,,,,,4,0,2,,,,,0,,,55,70
15056,note_on,,,,,56,0,1,,,,,0,,,67,0
15056,note_on,,,,,56,0,2,,,,,0,,,55,0
15060,note_on,,,,,4,0,1,,,,,0,,,69,70
15060,note_on,,,,,4,0,2,,,,,0,,,57,70
15116,note_on,,,,,56,0,2,,,,,0,,,57,0
15116,note_on,,,,,56,0,1,,,,,0,,,69,0
15120,note_on,,,,,4,0,1,,,,,0,,,70,70
15120,note_on,,,,,4,0,2,,,,,0,,,58,70
15176,note_on,,,,,56,0,1,,,,,0,,,70,0
15176,note_on,,,,,56,0,2,,,,,0,,,58,0
15180,note_on,,,,,4,0,2,,,,,0,,,61,70
15180,note_on,,,,,4,0,1,,,,,0,,,73,70
15236,note_on,,,,,56,0,2,,,,,0,,,61,0
15236,note_on,,,,,56,0,1,,,,,0,,,73,0
15240,note_on,,,,,4,0,2,,,,,0,,,65,70
15240,note_on,,,,,4,0,1,,,,,0,,,77,70
15296,note_on,,,,,56,0,1,,,,,0,,,77,0
15296,note_on,,,,,56,0,2,,,,,0,,,65,0
15300,note_on,,,,,4,0,1,,,,,0,,,76,70
15300,note_on,,,,,4,0,2,,,,,0,,,64,70
15356,note_on,,,,,56,0,2,,,,,0,,,64,0
15356,note_on,,,,,56,0,1,,,,,0,,,76,0
15360,note_on,,,,,4,0,1,,,,,0,,,74,70
15360,note_on,,,,,4,0,2,,,,,0,,,62,70
15416,note_on,,,,,56,0,1,,,,,0,,,74,0
15416,note_on,,,,,56,0,2,,,,,0,,,62,0
15420,note_on,,,,,4,0,2,,,,,0,,,61,70
15420,note_on,,,,,4,0,1,,,,,0,,,73,70
15476,note_on,,,,,56,0,1,,,,,0,,,73,0
15476,note_on,,,,,56,0,2,,,,,0,,,61,0
15480,note_on,,,,,4,0,2,,,,,0,,,58,70
15480,note_on,,,,,4,0,1,,,,,0,,,70,70
15536,note_on,,,,,56,0,2,,,,,0,,,58,0
15536,note_on,,,,,56,0,1,,,,,0,,,70,0
15540,note_on,,,,,4,0,2,,,,,0,,,57,70
15540,note_on,,,,,4,0,1,,,,,0,,,69,70
15596,note_on,,,,,56,0,2,,,,,0,,,57,0
15596,note_on,,,,,56,0,1,,,,,0,,,69,0
15600,note_on,,,,,4,0,1,,,,,0,,,70,70
15600,note_on,,,,,4,0,2,,,,,0,,,58,70
15656,note_on,,,,,56,0,1,,,,,0,,,70,0
15656,note_on,,,,,56,0,2,,,,,0,,,58,0
15660,note_on,,,,,4,0,1,,,,,0,,,73,70
15660,note_on,,,,,4,0,2,,,,,0,,,61,70
15716,note_on,,,,,56,0,1,,,,,0,,,73,0
15716,note_on,,,,,56,0,2,,,,,0,,,61,0
15720,note_on,,,,,4,0,2,,,,,0,,,62,70
15720,note_on,,,,,4,0,1,,,,,0,,,74,70
15776,note_on,,,,,56,0,1,,,,,0,,,74,0
15776,note_on,,,,,56,0,2,,,,,0,,,62,0
15780,note_on,,,,,4,0,2,,,,,0,,,64,70
15780,note_on,,,,,4,0,1,,,,,0,,,76,70
15836,note_on,,,,,56,0,1,,,,,0,,,76,0
15836,note_on,,,,,56,0,2,,,,,0,,,64,0
15840,note_on,,,,,4,0,2,,,,,0,,,65,70
15840,note_on,,,,,4,0,1,,,,,0,,,77,70
15896,note_on,,,,,56,0,1,,,,,0,,,77,0
15896,note_on,,,,,56,0,2,,,,,0,,,65,0
15900,note_on,,,,,4,0,2,,,,,0,,,70,70
15900,note_on,,,,,4,0,1,,,,,0,,,82,70
15956,note_on,,,,,56,0,1,,,,,0,,,82,0
15956,note_on,,,,,56,0,2,,,,,0,,,70,0
15960,note_on,,,,,4,0,1,,,,,0,,,81,70
15960,note_on,,,,,4,0,2,,,,,0,,,69,70
16016,note_on,,,,,56,0,1,,,,,0,,,81,0
16016,note_on,,,,,56,0,2,,,,,0,,,69,0
16020,note_on,,,,,4,0,1,,,,,0,,,79,70
16020,note_on,,,,,4,0,2,,,,,0,,,67,70
16076,note_on,,,,,56,0,2,,,,,0,,,67,0
16076,note_on,,,,,56,0,1,,,,,0,,,79,0
16080,note_on,,,,,4,0,1,,,,,0,,,77,70
16080,note_on,,,,,4,0,2,,,,,0,,,65,70
16136,note_on,,,,,56,0,2,,,,,0,,,65,0
16136,note_on,,,,,56,0,1,,,,,0,,,77,0
16140,note_on,,,,,4,0,1,,,,,0,,,76,70
16140,note_on,,,,,4,0,2,,,,,0,,,64,70
16196,note_on,,,,,56,0,2,,,,,0,,,64,0
16196,note_on,,,,,56,0,1,,,,,0,,,76,0
16200,note_on,,,,,4,0,2,,,,,0,,,62,70
16200,note_on,,,,,4,0,1,,,,,0,,,74,70
16256,note_on,,,,,56,0,2,,,,,0,,,62,0
16256,note_on,,,,,56,0,1,,,,,0,,,74,0
16260,note_on,,,,,4,0,2,,,,,0,,,61,70
16260,note_on,,,,,4,0,1,,,,,0,,,73,70
16316,note_on,,,,,56,0,1,,,,,0,,,73,0
16316,note_on,,,,,56,0,2,,,,,0,,,61,0
16320,note_on,,,,,4,0,1,,,,,0,,,74,70
16320,note_on,,,,,4,0,2,,,,,0,,,62,70
16376,note_on,,,,,56,0,2,,,,,0,,,62,0
16376,note_on,,,,,56,0,1,,,,,0,,,74,0
16380,note_on,,,,,4,0,1,,,,,0,,,76,70
16380,note_on,,,,,4,0,2,,,,,0,,,64,70
16436,note_on,,,,,56,0,2,,,,,0,,,64,0
16436,note_on,,,,,56,0,1,,,,,0,,,76,0
16440,note_on,,,,,4,0,2,,,,,0,,,65,70
16440,note_on,,,,,4,0,1,,,,,0,,,77,70
16496,note_on,,,,,56,0,2,,,,,0,,,65,0
16496,note_on,,,,,56,0,1,,,,,0,,,77,0
16500,note_on,,,,,4,0,2,,,,,0,,,67,70
16500,note_on,,,,,4,0,1,,,,,0,,,79,70
16556,note_on,,,,,56,0,2,,,,,0,,,67,0
16556,note_on,,,,,56,0,1,,,,,0,,,79,0
16560,note_on,,,,,4,0,2,,,,,0,,,69,70
16560,note_on,,,,,4,0,1,,,,,0,,,81,70
16616,note_on,,,,,56,0,2,,,,,0,,,69,0
16616,note_on,,,,,56,0,1,,,,,0,,,81,0
16620,note_on,,,,,4,0,1,,,,,0,,,82,70
16620,note_on,,,,,4,0,2,,,,,0,,,70,70
16676,note_on,,,,,56,0,2,,,,,0,,,70,0
16676,note_on,,,,,56,0,1,,,,,0,,,82,0
16680,note_on,,,,,4,0,1,,,,,0,,,85,70
16680,note_on,,,,,4,0,2,,,,,0,,,73,70
16736,note_on,,,,,56,0,2,,,,,0,,,73,0
16736,note_on,,,,,56,0,1,,,,,0,,,85,0
16740,note_on,,,,,4,0,2,,,,,0,,,77,70
16740,note_on,,,,,4,0,1,,,,,0,,,89,70
16796,note_on,,,,,56,0,2,,,,,0,,,77,0
16796,note_on,,,,,56,0,1,,,,,0,,,89,0
16800,note_on,,,,,4,0,2,,,,,0,,,76,70
16800,note_on,,,,,4,0,1,,,,,0,,,88,70
16856,note_on,,,,,56,0,1,,,,,0,,,88,0
16856,note_on,,,,,56,0,2,,,,,0,,,76,0
16860,note_on,,,,,4,0,1,,,,,0,,,86,70
16860,note_on,,,,,4,0,2,,,,,0,,,74,70
16916,note_on,,,,,56,0,2,,,,,0,,,74,0
16916,note_on,,,,,56,0,1,,,,,0,,,86,0
16920,note_on,,,,,4,0,2,,,,,0,,,73,70
16920,note_on,,,,,4,0,1,,,,,0,,,85,70
16976,note_on,,,,,56,0,2,,,,,0,,,73,0
16976,note_on,,,,,56,0,1,,,,,0,,,85,0
16980,note_on,,,,,4,0,1,,,,,0,,,82,70
16980,note_on,,,,,4,0,2,,,,,0,,,70,70
17036,note_on,,,,,56,0,2,,,,,0,,,70,0
17036,note_on,,,,,56,0,1,,,,,0,,,82,0
17040,note_on,,,,,4,0,1,,,,,0,,,81,70
17040,time_signature,47,32,24,8,2280,1,0,,,,,,,,,
17040,note_on,,,,,4,0,2,,,,,0,,,69,70
17096,note_on,,,,,56,0,2,,,,,0,,,69,0
17096,note_on,,,,,56,0,1,,,,,0,,,81,0
17100,note_on,,,,,4,0,2,,,,,0,,,70,70
17100,note_on,,,,,4,0,1,,,,,0,,,82,70
17156,note_on,,,,,56,0,1,,,,,0,,,82,0
17156,note_on,,,,,56,0,2,,,,,0,,,70,0
17160,note_on,,,,,4,0,1,,,,,0,,,85,70
17160,note_on,,,,,4,0,2,,,,,0,,,73,70
17216,note_on,,,,,56,0,1,,,,,0,,,85,0
17216,note_on,,,,,56,0,2,,,,,0,,,73,0
17220,note_on,,,,,4,0,2,,,,,0,,,74,70
17220,note_on,,,,,4,0,1,,,,,0,,,86,70
17276,note_on,,,,,56,0,1,,,,,0,,,86,0
17276,note_on,,,,,56,0,2,,,,,0,,,74,0
17280,note_on,,,,,4,0,2,,,,,0,,,76,70
17280,note_on,,,,,4,0,1,,,,,0,,,88,70
17336,note_on,,,,,56,0,2,,,,,0,,,76,0
17336,note_on,,,,,56,0,1,,,,,0,,,88,0
17340,note_on,,,,,4,0,2,,,,,0,,,77,70
17340,note_on,,,,,4,0,1,,,,,0,,,89,70
17396,note_on,,,,,56,0,2,,,,,0,,,77,0
17396,note_on,,,,,56,0,1,,,,,0,,,89,0
17400,note_on,,,,,4,0,1,,,,,0,,,91,70
17400,note_on,,,,,4,0,2,,,,,0,,,79,70
17456,note_on,,,,,56,0,2,,,,,0,,,79,0
17456,note_on,,,,,56,0,1,,,,,0,,,91,0
17460,note_on,,,,,4,0,1,,,,,0,,,93,70
17460,note_on,,,,,4,0,2,,,,,0,,,81,70
17516,note_on,,,,,56,0,2,,,,,0,,,81,0
17516,note_on,,,,,56,0,1,,,,,0,,,93,0
17520,note_on,,,,,4,0,2,,,,,0,,,82,70
17520,note_on,,,,,4,0,1,,,,,0,,,94,70
17576,note_on,,,,,56,0,2,,,,,0,,,82,0
17576,note_on,,,,,56,0,1,,,,,0,,,94,0
17580,note_on,,,,,4,0,2,,,,,0,,,85,70
17580,note_on,,,,,4,0,1,,,,,0,,,97,70
17636,note_on,,,,,56,0,1,,,,,0,,,97,0
17636,note_on,,,,,56,0,2,,,,,0,,,85,0
17640,note_on,,,,,4,0,2,,,,,0,,,89,70
17640,note_on,,,,,4,0,1,,,,,0,,,101,70
17696,note_on,,,,,56,0,2,,,,,0,,,89,0
17696,note_on,,,,,56,0,1,,,,,0,,,101,0
17700,note_on,,,,,4,0,1,,,,,0,,,100,70
17700,note_on,,,,,4,0,2,,,,,0,,,88,70
17756,note_on,,,,,56,0,2,,,,,0,,,88,0
17756,note_on,,,,,56,0,1,,,,,0,,,100,0
17760,note_on,,,,,4,0,2,,,,,0,,,86,70
17760,note_on,,,,,4,0,1,,,,,0,,,98,70
17816,note_on,,,,,56,0,1,,,,,0,,,98,0
17816,note_on,,,,,56,0,2,,,,,0,,,86,0
17820,note_on,,,,,4,0,1,,,,,0,,,97,70
17820,note_on,,,,,4,0,2,,,,,0,,,85,70
17876,note_on,,,,,56,0,2,,,,,0,,,85,0
17876,note_on,,,,,56,0,1,,,,,0,,,97,0
17880,note_on,,,,,4,0,2,,,,,0,,,82,70
17880,note_on,,,,,4,0,1,,,,,0,,,94,70
17936,note_on,,,,,56,0,1,,,,,0,,,94,0
17936,note_on,,,,,56,0,2,,,,,0,,,82,0
17940,note_on,,,,,4,0,2,,,,,0,,,81,70
17940,note_on,,,,,4,0,1,,,,,0,,,93,70
17996,note_on,,,,,56,0,1,,,,,0,,,93,0
17996,note_on,,,,,56,0,2,,,,,0,,,81,0
18000,note_on,,,,,4,0,2,,,,,0,,,79,70
18000,note_on,,,,,4,0,1,,,,,0,,,91,70
18056,note_on,,,,,56,0,2,,,,,0,,,79,0
18056,note_on,,,,,56,0,1,,,,,0,,,91,0
18060,note_on,,,,,4,0,2,,,,,0,,,77,70
18060,note_on,,,,,4,0,1,,,,,0,,,89,70
18116,note_on,,,,,56,0,1,,,,,0,,,89,0
18116,note_on,,,,,56,0,2,,,,,0,,,77,0
18120,note_on,,,,,4,0,1,,,,,0,,,88,70
18120,note_on,,,,,4,0,2,,,,,0,,,76,70
18176,note_on,,,,,56,0,1,,,,,0,,,88,0
18176,note_on,,,,,56,0,2,,,,,0,,,76,0
18180,note_on,,,,,4,0,2,,,,,0,,,74,70
18180,note_on,,,,,4,0,1,,,,,0,,,86,70
18236,note_on,,,,,56,0,1,,,,,0,,,86,0
18236,note_on,,,,,56,0,2,,,,,0,,,74,0
18240,note_on,,,,,4,0,1,,,,,0,,,85,70
18240,note_on,,,,,4,0,2,,,,,0,,,73,70
18296,note_on,,,,,56,0,2,,,,,0,,,73,0
18296,note_on,,,,,56,0,1,,,,,0,,,85,0
18300,note_on,,,,,4,0,1,,,,,0,,,82,70
18300,note_on,,,,,4,0,2,,,,,0,,,70,70
18356,note_on,,,,,56,0,2,,,,,0,,,70,0
18356,note_on,,,,,56,0,1,,,,,0,,,82,0
18360,note_on,,,,,4,0,1,,,,,0,,,81,70
18360,note_on,,,,,4,0,2,,,,,0,,,69,70
18416,note_on,,,,,56,0,1,,,,,0,,,81,0
18416,note_on,,,,,56,0,2,,,,,0,,,69,0
18420,note_on,,,,,4,0,2,,,,,0,,,67,70
18420,note_on,,,,,4,0,1,,,,,0,,,79,70
18476,note_on,,,,,56,0,2,,,,,0,,,67,0
18476,note_on,,,,,56,0,1,,,,,0,,,79,0
18480,note_on,,,,,4,0,2,,,,,0,,,65,70
18480,note_on,,,,,4,0,1,,,,,0,,,77,70
18536,note_on,,,,,56,0,1,,,,,0,,,77,0
18536,note_on,,,,,56,0,2,,,,,0,,,65,0
18540,note_on,,,,,4,0,2,,,,,0,,,64,70
18540,note_on,,,,,4,0,1,,,,,0,,,76,70
18596,note_on,,,,,56,0,1,,,,,0,,,76,0
18596,note_on,,,,,56,0,2,,,,,0,,,64,0
18600,note_on,,,,,4,0,2,,,,,0,,,62,70
18600,note_on,,,,,4,0,1,,,,,0,,,74,70
18656,note_on,,,,,56,0,1,,,,,0,,,74,0
18656,note_on,,,,,56,0,2,,,,,0,,,62,0
18660,note_on,,,,,4,0,2,,,,,0,,,61,70
18660,note_on,,,,,4,0,1,,,,,0,,,73,70
18716,note_on,,,,,56,0,2,,,,,0,,,61,0
18716,note_on,,,,,56,0,1,,,,,0,,,73,0
18720,note_on,,,,,4,0,1,,,,,0,,,70,70
18720,note_on,,,,,4,0,2,,,,,0,,,58,70
18776,note_on,,,,,56,0,1,,,,,0,,,70,0
18776,note_on,,,,,56,0,2,,,,,0,,,58,0
18780,note_on,,,,,4,0,2,,,,,0,,,57,70
18780,note_on,,,,,4,0,1,,,,,0,,,69,70
18836,note_on,,,,,56,0,2,,,,,0,,,57,0
18836,note_on,,,,,56,0,1,,,,,0,,,69,0
18840,note_on,,,,,4,0,2,,,,,0,,,55,70
18840,note_on,,,,,4,0,1,,,,,0,,,67,70
18896,note_on,,,,,56,0,2,,,,,0,,,55,0
18896,note_on,,,,,56,0,1,,,,,0,,,67,0
18900,note_on,,,,,4,0,2,,,,,0,,,53,70
18900,note_on,,,,,4,0,1,,,,,0,,,65,70
18956,note_on,,,,,56,0,1,,,,,0,,,65,0
18956,note_on,,,,,56,0,2,,,,,0,,,53,0
18960,note_on,,,,,4,0,2,,,,,0,,,52,70
18960,note_on,,,,,4,0,1,,,,,0,,,64,70
19016,note_on,,,,,56,0,2,,,,,0,,,52,0
19016,note_on,,,,,56,0,1,,,,,0,,,64,0
19020,note_on,,,,,4,0,2,,,,,0,,,50,70
19020,note_on,,,,,4,0,1,,,,,0,,,62,70
19076,note_on,,,,,56,0,1,,,,,0,,,62,0
19076,note_on,,,,,56,0,2,,,,,0,,,50,0
19080,note_on,,,,,4,0,2,,,,,0,,,49,70
19080,note_on,,,,,4,0,1,,,,,0,,,61,70
19136,note_on,,,,,56,0,2,,,,,0,,,49,0
19136,note_on,,,,,56,0,1,,,,,0,,,61,0
19140,note_on,,,,,4,0,1,,,,,0,,,58,70
19140,note_on,,,,,4,0,2,,,,,0,,,46,70
19196,note_on,,,,,56,0,2,,,,,0,,,46,0
19196,note_on,,,,,56,0,1,,,,,0,,,58,0
19200,note_on,,,,,4,0,1,,,,,0,,,57,70
19200,note_on,,,,,4,0,2,,,,,0,,,45,70
19256,note_on,,,,,56,0,1,,,,,0,,,57,0
19256,note_on,,,,,56,0,2,,,,,0,,,45,0
19260,note_on,,,,,4,0,1,,,,,0,,,55,70
19260,note_on,,,,,4,0,2,,,,,0,,,43,70
19316,note_on,,,,,56,0,2,,,,,0,,,43,0
19316,note_on,,,,,56,0,1,,,,,0,,,55,0
19320,note_on,,,,,4,0,1,,,,,0,,,53,70
19320,note_on,,,,,4,0,2,,,,,0,,,41,70
19376,note_on,,,,,56,0,2,,,,,0,,,41,0
19376,note_on,,,,,56,0,1,,,,,0,,,53,0
19380,note_on,,,,,4,0,1,,,,,0,,,52,70
19380,note_on,,,,,4,0,2,,,,,0,,,40,70
19436,note_on,,,,,56,0,2,,,,,0,,,40,0
19436,note_on,,,,,56,0,1,,,,,0,,,52,0
19440,note_on,,,,,4,0,1,,,,,0,,,50,70
19440,note_on,,,,,4,0,2,,,,,0,,,38,70
19496,note_on,,,,,56,0,2,,,,,0,,,38,0
19496,note_on,,,,,56,0,1,,,,,0,,,50,0
19500,note_on,,,,,4,0,2,,,,,0,,,37,70
19500,note_on,,,,,4,0,1,,,,,0,,,49,70
19556,note_on,,,,,56,0,2,,,,,0,,,37,0
19556,note_on,,,,,56,0,1,,,,,0,,,49,0
19560,note_on,,,,,4,0,2,,,,,0,,,34,70
19560,note_on,,,,,4,0,1,,,,,0,,,46,70
19616,note_on,,,,,56,0,1,,,,,0,,,46,0
19616,note_on,,,,,56,0,2,,,,,0,,,34,0
19620,note_on,,,,,4,0,2,,,,,0,,,33,70
19620,note_on,,,,,4,0,1,,,,,0,,,45,70
19676,note_on,,,,,56,0,1,,,,,0,,,45,0
19680,note_on,,,,,4,0,1,,,,,0,,,43,70
19736,note_on,,,,,56,0,1,,,,,0,,,43,0
19740,note_on,,,,,4,0,1,,,,,0,,,41,70
19796,note_on,,,,,56,0,1,,,,,0,,,41,0
19800,note_on,,,,,4,0,1,,,,,0,,,40,70
19847,note_on,,,,,227,0,2,,,,,0,,,33,0
19856,note_on,,,,,56,0,1,,,,,0,,,40,0
19860,note_on,,,,,0,0,2,,,,,0,,,45,112
19860,note_on,,,,,0,0,2,,,,,0,,,50,112
19860,note_on,,,,,13,0,2,,,,,0,,,38,112
19860,time_signature,4,4,24,8,2820,1,0,,,,,,,,,
19860,set_tempo,,,,,0,1,0,,500000,,,,,,,
19860,note_on,,,,,0,0,0,,,,,0,,,86,112
19860,note_on,,,,,0,0,0,,,,,0,,,77,112
19860,note_on,,,,,0,0,0,,,,,0,,,74,112
19861,control_change,,,,,1,0,2,,,64,0,0,,,,
19862,control_change,,,,,6,0,1,,,64,127,0,,,,
20100,note_on,,,,,0,0,1,,,,,0,,,56,112
20100,note_on,,,,,238,0,1,,,,,0,,,52,112
20175,note_on,,,,,315,0,0,,,,,0,,,74,0
20175,note_on,,,,,0,0,0,,,,,0,,,86,0
20175,note_on,,,,,314,0,2,,,,,0,,,38,0
20175,note_on,,,,,0,0,2,,,,,0,,,45,0
20175,note_on,,,,,0,0,0,,,,,0,,,77,0
20175,note_on,,,,,0,0,2,,,,,0,,,50,0
20213,note_on,,,,,113,0,1,,,,,0,,,52,0
20213,note_on,,,,,0,0,1,,,,,0,,,56,0
20220,note_on,,,,,0,0,1,,,,,0,,,57,112
20220,note_on,,,,,7,0,1,,,,,0,,,53,112
20333,note_on,,,,,0,0,1,,,,,0,,,57,0
20333,note_on,,,,,113,0,1,,,,,0,,,53,0
20340,note_on,,,,,0,0,1,,,,,0,,,64,112
20340,note_on,,,,,7,0,1,,,,,0,,,61,112
20453,note_on,,,,,113,0,1,,,,,0,,,61,0
20453,note_on,,,,,0,0,1,,,,,0,,,64,0
20460,note_on,,,,,7,0,1,,,,,0,,,62,112
20460,note_on,,,,,0,0,1,,,,,0,,,65,112
20573,note_on,,,,,113,0,1,,,,,0,,,62,0
20573,note_on,,,,,0,0,1,,,,,0,,,65,0
20580,note_on,,,,,7,0,1,,,,,0,,,64,112
20580,note_on,,,,,0,0,1,,,,,0,,,68,112
20693,note_on,,,,,113,0,1,,,,,0,,,64,0
20693,note_on,,,,,0,0,1,,,,,0,,,68,0
20700,note_on,,,,,0,0,1,,,,,0,,,69,112
20700,note_on,,,,,7,0,1,,,,,0,,,65,112
20813,note_on,,,,,0,0,1,,,,,0,,,69,0
20813,note_on,,,,,113,0,1,,,,,0,,,65,0
20820,note_on,,,,,0,0,2,,,,,0,,,50,112
20820,note_on,,,,,0,0,2,,,,,0,,,45,112
20820,note_on,,,,,645,0,2,,,,,0,,,38,112
20820,note_on,,,,,645,0,0,,,,,0,,,74,112
20820,note_on,,,,,0,0,0,,,,,0,,,77,112
20820,note_on,,,,,0,0,0,,,,,0,,,86,112
20977,note_on,,,,,0,0,0,,,,,0,,,77,0
20977,note_on,,,,,0,0,2,,,,,0,,,50,0
20977,note_on,,,,,157,0,0,,,,,0,,,74,0
20977,note_on,,,,,157,0,2,,,,,0,,,38,0
20977,note_on,,,,,0,0,0,,,,,0,,,86,0
20977,note_on,,,,,0,0,2,,,,,0,,,45,0
21060,note_on,,,,,0,0,1,,,,,0,,,56,112
21060,note_on,,,,,247,0,1,,,,,0,,,52,112
21173,note_on,,,,,113,0,1,,,,,0,,,52,0
21173,note_on,,,,,0,0,1,,,,,0,,,56,0
21180,note_on,,,,,0,0,1,,,,,0,,,57,112
21180,note_on,,,,,7,0,1,,,,,0,,,53,112
21293,note_on,,,,,0,0,1,,,,,0,,,57,0
21293,note_on,,,,,113,0,1,,,,,0,,,53,0
21300,note_on,,,,,0,0,1,,,,,0,,,64,112
21300,note_on,,,,,7,0,1,,,,,0,,,61,112
21413,note_on,,,,,0,0,1,,,,,0,,,64,0
21413,note_on,,,,,113,0,1,,,,,0,,,61,0
21420,note_on,,,,,0,0,1,,,,,0,,,65,112
21420,note_on,,,,,7,0,1,,,,,0,,,62,112
21533,note_on,,,,,0,0,1,,,,,0,,,65,0
21533,note_on,,,,,113,0,1,,,,,0,,,62,0
21540,note_on,,,,,7,0,1,,,,,0,,,64,112
21540,note_on,,,,,0,0,1,,,,,0,,,68,112
21653,note_on,,,,,113,0,1,,,,,0,,,64,0
21653,note_on,,,,,0,0,1,,,,,0,,,68,0
21660,note_on,,,,,7,0,1,,,,,0,,,65,112
21660,note_on,,,,,0,0,1,,,,,0,,,69,112
21720,note_on,,,,,0,0,0,,,,,0,,,84,112
21720,note_on,,,,,743,0,0,,,,,0,,,72,112
21773,note_on,,,,,113,0,1,,,,,0,,,65,0
21773,note_on,,,,,0,0,1,,,,,0,,,69,0
21779,note_on,,,,,59,0,0,,,,,0,,,72,0
21779,note_on,,,,,0,0,0,,,,,0,,,84,0
21780,note_on,,,,,0,0,2,,,,,0,,,50,112
21780,note_on,,,,,0,0,0,,,,,0,,,76,112
21780,note_on,,,,,0,0,0,,,,,0,,,82,112
21780,note_on,,,,,1,0,0,,,,,0,,,70,112
21780,note_on,,,,,803,0,2,,,,,0,,,38,112
21780,note_on,,,,,0,0,2,,,,,0,,,43,112
21781,control_change,,,,,8,0,1,,,64,0,0,,,,
21782,control_change,,,,,1,0,1,,,64,127,0,,,,
22020,note_on,,,,,0,0,1,,,,,0,,,57,112
22020,note_on,,,,,238,0,1,,,,,0,,,54,112
22095,note_on,,,,,0,0,0,,,,,0,,,82,0
22095,note_on,,,,,0,0,0,,,,,0,,,76,0
22095,note_on,,,,,0,0,2,,,,,0,,,50,0
22095,note_on,,,,,315,0,2,,,,,0,,,38,0
22095,note_on,,,,,315,0,0,,,,,0,,,70,0
22095,note_on,,,,,0,0,2,,,,,0,,,43,0
22133,note_on,,,,,113,0,1,,,,,0,,,54,0
22133,note_on,,,,,0,0,1,,,,,0,,,57,0
22140,note_on,,,,,0,0,1,,,,,0,,,58,112
22140,note_on,,,,,7,0,1,,,,,0,,,55,112
22253,note_on,,,,,113,0,1,,,,,0,,,55,0
22253,note_on,,,,,0,0,1,,,,,0,,,58,0
22260,note_on,,,,,7,0,1,,,,,0,,,63,112
22260,note_on,,,,,0,0,1,,,,,0,,,66,112
22373,note_on,,,,,0,0,1,,,,,0,,,66,0
22373,note_on,,,,,113,0,1,,,,,0,,,63,0
22380,note_on,,,,,7,0,1,,,,,0,,,64,112
22380,note_on,,,,,0,0,1,,,,,0,,,67,112
22493,note_on,,,,,113,0,1,,,,,0,,,64,0
22493,note_on,,,,,0,0,1,,,,,0,,,67,0
22500,note_on,,,,,0,0,1,,,,,0,,,69,112
22500,note_on,,,,,7,0,1,,,,,0,,,66,112
22613,note_on,,,,,113,0,1,,,,,0,,,66,0
22613,note_on,,,,,0,0,1,,,,,0,,,69,0
22620,note_on,,,,,0,0,1,,,,,0,,,70,112
22620,note_on,,,,,7,0,1,,,,,0,,,67,112
22733,note_on,,,,,0,0,1,,,,,0,,,70,0
22733,note_on,,,,,113,0,1,,,,,0,,,67,0
22740,note_on,,,,,645,0,2,,,,,0,,,38,112
22740,note_on,,,,,0,0,2,,,,,0,,,50,112
22740,note_on,,,,,0,0,2,,,,,0,,,43,112
22740,note_on,,,,,0,0,0,,,,,0,,,76,112
22740,note_on,,,,,0,0,0,,,,,0,,,82,112
22740,note_on,,,,,645,0,0,,,,,0,,,70,112
22897,note_on,,,,,0,0,2,,,,,0,,,43,0
22897,note_on,,,,,0,0,2,,,,,0,,,50,0
22897,note_on,,,,,0,0,0,,,,,0,,,82,0
22897,note_on,,,,,157,0,0,,,,,0,,,70,0
22897,note_on,,,,,0,0,0,,,,,0,,,76,0
22897,note_on,,,,,157,0,2,,,,,0,,,38,0
22980,note_on,,,,,247,0,1,,,,,0,,,54,112
22980,note_on,,,,,0,0,1,,,,,0,,,57,112
23093,note_on,,,,,113,0,1,,,,,0,,,54,0
23093,note_on,,,,,0,0,1,,,,,0,,,57,0
23100,note_on,,,,,7,0,1,,,,,0,,,55,112
23100,note_on,,,,,0,0,1,,,,,0,,,58,112
23213,note_on,,,,,0,0,1,,,,,0,,,58,0
23213,note_on,,,,,113,0,1,,,,,0,,,55,0
23220,note_on,,,,,0,0,1,,,,,0,,,66,112
23220,note_on,,,,,7,0,1,,,,,0,,,63,112
23333,note_on,,,,,0,0,1,,,,,0,,,66,0
23333,note_on,,,,,113,0,1,,,,,0,,,63,0
23340,note_on,,,,,7,0,1,,,,,0,,,64,112
23340,note_on,,,,,0,0,1,,,,,0,,,67,112
23453,note_on,,,,,113,0,1,,,,,0,,,64,0
23453,note_on,,,,,0,0,1,,,,,0,,,67,0
23460,note_on,,,,,7,0,1,,,,,0,,,66,112
23460,note_on,,,,,0,0,1,,,,,0,,,69,112
23573,note_on,,,,,113,0,1,,,,,0,,,66,0
23573,note_on,,,,,0,0,1,,,,,0,,,69,0
23580,note_on,,,,,7,0,1,,,,,0,,,67,112
23580,note_on,,,,,0,0,1,,,,,0,,,70,112
23640,note_on,,,,,743,0,0,,,,,0,,,70,112
23640,note_on,,,,,0,0,0,,,,,0,,,82,112
23640,note_on,,,,,60,0,1,,,,,0,,,70,0
23693,note_on,,,,,53,0,1,,,,,0,,,67,0
23699,note_on,,,,,0,0,0,,,,,0,,,82,0
23699,note_on,,,,,59,0,0,,,,,0,,,70,0
23700,note_on,,,,,803,0,2,,,,,0,,,37,112
23700,note_on,,,,,0,0,0,,,,,0,,,81,112
23700,note_on,,,,,1,0,0,,,,,0,,,69,112
23700,note_on,,,,,0,0,2,,,,,0,,,49,112
23700,note_on,,,,,0,0,0,,,,,0,,,76,112
23701,control_change,,,,,8,0,1,,,64,0,0,,,,
23702,control_change,,,,,1,0,1,,,64,127,0,,,,
23857,note_on,,,,,157,0,0,,,,,0,,,69,0
23857,note_on,,,,,0,0,0,,,,,0,,,81,0
23857,note_on,,,,,0,0,0,,,,,0,,,76,0
23940,note_on,,,,,0,0,1,,,,,0,,,54,112
23940,note_on,,,,,238,0,1,,,,,0,,,51,112
24053,note_on,,,,,113,0,1,,,,,0,,,51,0
24053,note_on,,,,,0,0,1,,,,,0,,,54,0
24060,note_on,,,,,0,0,1,,,,,0,,,55,112
24060,note_on,,,,,7,0,1,,,,,0,,,52,112
24155,note_on,,,,,0,0,2,,,,,0,,,49,0
24155,note_on,,,,,455,0,2,,,,,0,,,37,0
24173,note_on,,,,,113,0,1,,,,,0,,,52,0
24173,note_on,,,,,0,0,1,,,,,0,,,55,0
24180,note_on,,,,,0,0,1,,,,,0,,,63,112
24180,note_on,,,,,7,0,1,,,,,0,,,60,112
24293,note_on,,,,,0,0,1,,,,,0,,,63,0
24293,note_on,,,,,113,0,1,,,,,0,,,60,0
24300,note_on,,,,,0,0,1,,,,,0,,,64,112
24300,note_on,,,,,7,0,1,,,,,0,,,61,112
24413,note_on,,,,,113,0,1,,,,,0,,,61,0
24413,note_on,,,,,0,0,1,,,,,0,,,64,0
24420,note_on,,,,,0,0,1,,,,,0,,,66,112
24420,note_on,,,,,7,0,1,,,,,0,,,63,112
24533,note_on,,,,,113,0,1,,,,,0,,,63,0
24533,note_on,,,,,0,0,1,,,,,0,,,66,0
24540,note_on,,,,,7,0,1,,,,,0,,,64,112
24540,note_on,,,,,0,0,1,,,,,0,,,67,112
24600,note_on,,,,,0,0,0,,,,,0,,,81,112
24600,note_on,,,,,743,0,0,,,,,0,,,69,112
24653,note_on,,,,,0,0,1,,,,,0,,,67,0
24653,note_on,,,,,113,0,1,,,,,0,,,64,0
24659,note_on,,,,,0,0,0,,,,,0,,,81,0
24659,note_on,,,,,59,0,0,,,,,0,,,69,0
24660,note_on,,,,,0,0,2,,,,,0,,,45,112
24660,note_on,,,,,505,0,2,,,,,0,,,33,112
24660,note_on,,,,,0,0,0,,,,,0,,,79,112
24660,note_on,,,,,1,0,0,,,,,0,,,76,112
24660,note_on,,,,,0,0,0,,,,,0,,,88,112
24661,control_change,,,,,8,0,1,,,64,0,0,,,,
24662,control_change,,,,,1,0,1,,,64,127,0,,,,
24817,note_on,,,,,0,0,0,,,,,0,,,88,0
24817,note_on,,,,,0,0,0,,,,,0,,,79,0
24817,note_on,,,,,157,0,0,,,,,0,,,76,0
24900,note_on,,,,,238,0,1,,,,,0,,,51,112
24900,note_on,,,,,0,0,1,,,,,0,,,54,112
25013,note_on,,,,,113,0,1,,,,,0,,,51,0
25013,note_on,,,,,0,0,1,,,,,0,,,54,0
25020,note_on,,,,,0,0,1,,,,,0,,,55,112
25020,note_on,,,,,7,0,1,,,,,0,,,52,112
25115,note_on,,,,,0,0,2,,,,,0,,,45,0
25115,note_on,,,,,455,0,2,,,,,0,,,33,0
25133,note_on,,,,,0,0,1,,,,,0,,,55,0
25133,note_on,,,,,113,0,1,,,,,0,,,52,0
25140,note_on,,,,,0,0,1,,,,,0,,,63,112
25140,note_on,,,,,7,0,1,,,,,0,,,60,112
25253,note_on,,,,,0,0,1,,,,,0,,,63,0
25253,note_on,,,,,113,0,1,,,,,0,,,60,0
25260,note_on,,,,,0,0,1,,,,,0,,,64,112
25260,note_on,,,,,7,0,1,,,,,0,,,61,112
25373,note_on,,,,,113,0,1,,,,,0,,,61,0
25373,note_on,,,,,0,0,1,,,,,0,,,64,0
25380,note_on,,,,,0,0,1,,,,,0,,,66,112
25380,note_on,,,,,7,0,1,,,,,0,,,63,112
25493,note_on,,,,,113,0,1,,,,,0,,,63,0
25493,note_on,,,,,0,0,1,,,,,0,,,66,0
25500,note_on,,,,,7,0,1,,,,,0,,,64,112
25500,note_on,,,,,0,0,1,,,,,0,,,67,112
25560,note_on,,,,,60,0,1,,,,,0,,,67,0
25560,note_on,,,,,743,0,0,,,,,0,,,67,112
25560,note_on,,,,,0,0,0,,,,,0,,,79,112
25613,note_on,,,,,53,0,1,,,,,0,,,64,0
25619,note_on,,,,,0,0,0,,,,,0,,,79,0
25619,note_on,,,,,59,0,0,,,,,0,,,67,0
25620,note_on,,,,,0,0,0,,,,,0,,,69,112
25620,note_on,,,,,0,0,0,,,,,0,,,77,112
25620,note_on,,,,,1,0,0,,,,,0,,,65,112
25620,note_on,,,,,505,0,2,,,,,0,,,38,112
25620,note_on,,,,,0,0,2,,,,,0,,,50,112
25621,control_change,,,,,8,0,1,,,64,0,0,,,,
25622,control_change,,,,,1,0,1,,,64,127,0,,,,
25777,note_on,,,,,0,0,0,,,,,0,,,69,0
25777,note_on,,,,,0,0,0,,,,,0,,,77,0
25777,note_on,,,,,157,0,0,,,,,0,,,65,0
25860,note_on,,,,,0,0,1,,,,,0,,,56,112
25860,note_on,,,,,238,0,1,,,,,0,,,52,112
25973,note_on,,,,,0,0,1,,,,,0,,,56,0
25973,note_on,,,,,113,0,1,,,,,0,,,52,0
25980,note_on,,,,,0,0,1,,,,,0,,,57,112
25980,note_on,,,,,7,0,1,,,,,0,,,53,112
26075,note_on,,,,,455,0,2,,,,,0,,,38,0
26075,note_on,,,,,0,0,2,,,,,0,,,50,0
26093,note_on,,,,,0,0,1,,,,,0,,,57,0
26093,note_on,,,,,113,0,1,,,,,0,,,53,0
26100,note_on,,,,,0,0,1,,,,,0,,,64,112
26100,note_on,,,,,7,0,1,,,,,0,,,61,112
26213,note_on,,,,,113,0,1,,,,,0,,,61,0
26213,note_on,,,,,0,0,1,,,,,0,,,64,0
26220,note_on,,,,,0,0,1,,,,,0,,,65,112
26220,note_on,,,,,7,0,1,,,,,0,,,62,112
26333,note_on,,,,,0,0,1,,,,,0,,,65,0
26333,note_on,,,,,113,0,1,,,,,0,,,62,0
26340,note_on,,,,,0,0,1,,,,,0,,,68,112
26340,note_on,,,,,7,0,1,,,,,0,,,64,112
26453,note_on,,,,,0,0,1,,,,,0,,,68,0
26453,note_on,,,,,113,0,1,,,,,0,,,64,0
26460,note_on,,,,,7,0,1,,,,,0,,,65,112
26460,note_on,,,,,0,0,1,,,,,0,,,69,112
26520,note_on,,,,,743,0,0,,,,,0,,,69,112
26520,note_on,,,,,0,0,0,,,,,0,,,81,112
26520,note_on,,,,,60,0,1,,,,,0,,,69,0
26573,note_on,,,,,53,0,1,,,,,0,,,65,0
26579,note_on,,,,,59,0,0,,,,,0,,,69,0
26579,note_on,,,,,0,0,0,,,,,0,,,81,0
26580,note_on,,,,,0,0,0,,,,,0,,,65,112
26580,note_on,,,,,0,0,0,,,,,0,,,74,112
26580,note_on,,,,,0,0,2,,,,,0,,,45,112
26580,note_on,,,,,505,0,2,,,,,0,,,38,112
26580,note_on,,,,,0,0,2,,,,,0,,,50,112
26580,note_on,,,,,1,0,0,,,,,0,,,62,112
26581,control_change,,,,,8,0,1,,,64,0,0,,,,
26582,control_change,,,,,1,0,1,,,64,127,0,,,,
26737,note_on,,,,,0,0,0,,,,,0,,,65,0
26737,note_on,,,,,0,0,0,,,,,0,,,74,0
26737,note_on,,,,,157,0,0,,,,,0,,,62,0
26820,note_on,,,,,0,0,1,,,,,0,,,56,112
26820,note_on,,,,,238,0,1,,,,,0,,,52,112
26933,note_on,,,,,0,0,1,,,,,0,,,56,0
26933,note_on,,,,,113,0,1,,,,,0,,,52,0
26940,note_on,,,,,7,0,1,,,,,0,,,53,112
26940,note_on,,,,,0,0,1,,,,,0,,,57,112
27035,note_on,,,,,455,0,2,,,,,0,,,38,0
27035,note_on,,,,,0,0,2,,,,,0,,,50,0
27035,note_on,,,,,0,0,2,,,,,0,,,45,0
27053,note_on,,,,,0,0,1,,,,,0,,,57,0
27053,note_on,,,,,113,0,1,,,,,0,,,53,0
27060,note_on,,,,,7,0,1,,,,,0,,,61,112
27060,note_on,,,,,0,0,1,,,,,0,,,64,112
27173,note_on,,,,,0,0,1,,,,,0,,,64,0
27173,note_on,,,,,113,0,1,,,,,0,,,61,0
27180,note_on,,,,,7,0,1,,,,,0,,,62,112
27180,note_on,,,,,0,0,1,,,,,0,,,65,112
27293,note_on,,,,,113,0,1,,,,,0,,,62,0
27293,note_on,,,,,0,0,1,,,,,0,,,65,0
27300,note_on,,,,,7,0,1,,,,,0,,,64,112
27300,note_on,,,,,0,0,1,,,,,0,,,68,112
27413,note_on,,,,,0,0,1,,,,,0,,,68,0
27413,note_on,,,,,113,0,1,,,,,0,,,64,0
27420,note_on,,,,,0,0,1,,,,,0,,,69,112
27420,note_on,,,,,7,0,1,,,,,0,,,65,112
27533,note_on,,,,,0,0,1,,,,,0,,,69,0
27533,note_on,,,,,113,0,1,,,,,0,,,65,0
27540,note_on,,,,,803,0,0,,,,,0,,,72,112
27540,note_on,,,,,505,0,2,,,,,0,,,36,112
27540,note_on,,,,,0,0,2,,,,,0,,,48,112
27540,note_on,,,,,0,0,0,,,,,0,,,76,112
27540,note_on,,,,,0,0,0,,,,,0,,,84,112
27541,control_change,,,,,8,0,1,,,64,0,0,,,,
27542,control_change,,,,,1,0,1,,,64,127,0,,,,
27780,note_on,,,,,238,0,1,,,,,0,,,54,112
27780,note_on,,,,,0,0,1,,,,,0,,,59,112
27893,note_on,,,,,113,0,1,,,,,0,,,54,0
27893,note_on,,,,,0,0,1,,,,,0,,,59,0
27900,note_on,,,,,0,0,1,,,,,0,,,60,112
27900,note_on,,,,,7,0,1,,,,,0,,,55,112
28013,note_on,,,,,113,0,1,,,,,0,,,55,0
28013,note_on,,,,,0,0,1,,,,,0,,,60,0
28020,note_on,,,,,0,0,1,,,,,0,,,66,112
28020,note_on,,,,,7,0,1,,,,,0,,,62,112
28133,note_on,,,,,113,0,1,,,,,0,,,62,0
28133,note_on,,,,,0,0,1,,,,,0,,,66,0
28140,note_on,,,,,7,0,1,,,,,0,,,64,112
28140,note_on,,,,,0,0,1,,,,,0,,,67,112
28253,note_on,,,,,0,0,1,,,,,0,,,67,0
28253,note_on,,,,,113,0,1,,,,,0,,,64,0
28260,note_on,,,,,0,0,1,,,,,0,,,71,112
28260,note_on,,,,,7,0,1,,,,,0,,,66,112
28373,note_on,,,,,0,0,1,,,,,0,,,71,0
28373,note_on,,,,,113,0,1,,,,,0,,,66,0
28380,note_on,,,,,7,0,1,,,,,0,,,67,112
28380,note_on,,,,,840,0,0,,,,,0,,,72,0
28380,note_on,,,,,0,0,1,,,,,0,,,72,112
28451,note_on,,,,,911,0,2,,,,,0,,,36,0
28451,note_on,,,,,0,0,0,,,,,0,,,84,0
28451,note_on,,,,,71,0,0,,,,,0,,,76,0
28451,note_on,,,,,0,0,2,,,,,0,,,48,0
28493,note_on,,,,,113,0,1,,,,,0,,,67,0
28493,note_on,,,,,0,0,1,,,,,0,,,72,0
28500,note_on,,,,,0,0,0,,,,,0,,,79,112
28500,note_on,,,,,0,0,0,,,,,0,,,84,112
28500,note_on,,,,,49,0,0,,,,,0,,,72,112
28500,note_on,,,,,49,0,2,,,,,0,,,40,112
28500,note_on,,,,,0,0,2,,,,,0,,,52,112
28501,control_change,,,,,8,0,1,,,64,0,0,,,,
28502,control_change,,,,,1,0,1,,,64,127,0,,,,
28740,note_on,,,,,0,0,1,,,,,0,,,59,112
28740,note_on,,,,,238,0,1,,,,,0,,,54,112
28853,note_on,,,,,113,0,1,,,,,0,,,54,0
28853,note_on,,,,,0,0,1,,,,,0,,,59,0
28860,note_on,,,,,7,0,1,,,,,0,,,55,112
28860,note_on,,,,,0,0,1,,,,,0,,,60,112
28955,note_on,,,,,455,0,2,,,,,0,,,40,0
28955,note_on,,,,,0,0,0,,,,,0,,,84,0
28955,note_on,,,,,0,0,0,,,,,0,,,79,0
28955,note_on,,,,,455,0,0,,,,,0,,,72,0
28955,note_on,,,,,0,0,2,,,,,0,,,52,0
28973,note_on,,,,,0,0,1,,,,,0,,,60,0
28973,note_on,,,,,113,0,1,,,,,0,,,55,0
28980,note_on,,,,,0,0,1,,,,,0,,,63,112
28980,note_on,,,,,7,0,1,,,,,0,,,59,112
29093,note_on,,,,,113,0,1,,,,,0,,,59,0
29093,note_on,,,,,0,0,1,,,,,0,,,63,0
29100,note_on,,,,,0,0,1,,,,,0,,,64,112
29100,note_on,,,,,7,0,1,,,,,0,,,60,112
29213,note_on,,,,,113,0,1,,,,,0,,,60,0
29213,note_on,,,,,0,0,1,,,,,0,,,64,0
29220,note_on,,,,,7,0,1,,,,,0,,,63,112
29220,note_on,,,,,0,0,1,,,,,0,,,66,112
29333,note_on,,,,,113,0,1,,,,,0,,,63,0
29333,note_on,,,,,0,0,1,,,,,0,,,66,0
29340,note_on,,,,,0,0,1,,,,,0,,,67,112
29340,note_on,,,,,7,0,1,,,,,0,,,64,112
29400,note_on,,,,,445,0,0,,,,,0,,,70,112
29400,note_on,,,,,0,0,0,,,,,0,,,82,112
29453,note_on,,,,,113,0,1,,,,,0,,,64,0
29453,note_on,,,,,0,0,1,,,,,0,,,67,0
29459,note_on,,,,,59,0,0,,,,,0,,,70,0
29459,note_on,,,,,0,0,0,,,,,0,,,82,0
29460,note_on,,,,,0,0,0,,,,,0,,,81,112
29460,note_on,,,,,505,0,2,,,,,0,,,41,112
29460,note_on,,,,,0,0,0,,,,,0,,,77,112
29460,note_on,,,,,0,0,2,,,,,0,,,53,112
29460,note_on,,,,,1,0,0,,,,,0,,,69,112
29461,control_change,,,,,8,0,1,,,64,0,0,,,,
29462,control_change,,,,,1,0,1,,,64,127,0,,,,
29617,note_on,,,,,157,0,0,,,,,0,,,69,0
29617,note_on,,,,,0,0,0,,,,,0,,,77,0
29617,note_on,,,,,0,0,0,,,,,0,,,81,0
29700,note_on,,,,,238,0,1,,,,,0,,,56,112
29700,note_on,,,,,0,0,1,,,,,0,,,59,112
29813,note_on,,,,,113,0,1,,,,,0,,,56,0
29813,note_on,,,,,0,0,1,,,,,0,,,59,0
29820,note_on,,,,,7,0,1,,,,,0,,,57,112
29820,note_on,,,,,0,0,1,,,,,0,,,60,112
29915,note_on,,,,,0,0,2,,,,,0,,,53,0
29915,note_on,,,,,455,0,2,,,,,0,,,41,0
29933,note_on,,,,,0,0,1,,,,,0,,,60,0
29933,note_on,,,,,113,0,1,,,,,0,,,57,0
29940,note_on,,,,,7,0,1,,,,,0,,,59,112
29940,note_on,,,,,0,0,1,,,,,0,,,64,112
30053,note_on,,,,,0,0,1,,,,,0,,,64,0
30053,note_on,,,,,113,0,1,,,,,0,,,59,0
30060,note_on,,,,,0,0,1,,,,,0,,,65,112
30060,note_on,,,,,7,0,1,,,,,0,,,60,112
30173,note_on,,,,,0,0,1,,,,,0,,,65,0
30173,note_on,,,,,113,0,1,,,,,0,,,60,0
30180,note_on,,,,,7,0,1,,,,,0,,,68,112
30180,note_on,,,,,0,0,1,,,,,0,,,71,112
30293,note_on,,,,,113,0,1,,,,,0,,,68,0
30293,note_on,,,,,0,0,1,,,,,0,,,71,0
30300,note_on,,,,,7,0,1,,,,,0,,,69,112
30300,note_on,,,,,0,0,1,,,,,0,,,72,112
30360,note_on,,,,,0,0,0,,,,,0,,,84,112
30360,note_on,,,,,743,0,0,,,,,0,,,72,112
30360,note_on,,,,,60,0,1,,,,,0,,,72,0
30413,note_on,,,,,53,0,1,,,,,0,,,69,0
30419,note_on,,,,,0,0,0,,,,,0,,,84,0
30419,note_on,,,,,59,0,0,,,,,0,,,72,0
30420,note_on,,,,,1,0,0,,,,,0,,,65,112
30420,note_on,,,,,505,0,2,,,,,0,,,41,112
30420,note_on,,,,,0,0,0,,,,,0,,,77,112
30420,note_on,,,,,0,0,0,,,,,0,,,69,112
30420,note_on,,,,,0,0,2,,,,,0,,,53,112
30421,control_change,,,,,8,0,1,,,64,0,0,,,,
30422,control_change,,,,,1,0,1,,,64,127,0,,,,
30577,note_on,,,,,0,0,0,,,,,0,,,77,0
30577,note_on,,,,,0,0,0,,,,,0,,,69,0
30577,note_on,,,,,157,0,0,,,,,0,,,65,0
30660,note_on,,,,,238,0,1,,,,,0,,,56,112
30660,note_on,,,,,0,0,1,,,,,0,,,59,112
30773,note_on,,,,,113,0,1,,,,,0,,,56,0
30773,note_on,,,,,0,0,1,,,,,0,,,59,0
30780,note_on,,,,,7,0,1,,,,,0,,,57,112
30780,note_on,,,,,0,0,1,,,,,0,,,60,112
30875,note_on,,,,,455,0,2,,,,,0,,,41,0
30875,note_on,,,,,0,0,2,,,,,0,,,53,0
30893,note_on,,,,,113,0,1,,,,,0,,,57,0
30893,note_on,,,,,0,0,1,,,,,0,,,60,0
30900,note_on,,,,,7,0,1,,,,,0,,,59,112
30900,note_on,,,,,0,0,1,,,,,0,,,64,112
31013,note_on,,,,,0,0,1,,,,,0,,,64,0
31013,note_on,,,,,113,0,1,,,,,0,,,59,0
31020,note_on,,,,,7,0,1,,,,,0,,,60,112
31020,note_on,,,,,0,0,1,,,,,0,,,65,112
31133,note_on,,,,,113,0,1,,,,,0,,,60,0
31133,note_on,,,,,0,0,1,,,,,0,,,65,0
31140,note_on,,,,,0,0,1,,,,,0,,,68,112
31140,note_on,,,,,7,0,1,,,,,0,,,64,112
31253,note_on,,,,,0,0,1,,,,,0,,,68,0
31253,note_on,,,,,113,0,1,,,,,0,,,64,0
31260,note_on,,,,,7,0,1,,,,,0,,,65,112
31260,note_on,,,,,0,0,1,,,,,0,,,69,112
31373,note_on,,,,,0,0,1,,,,,0,,,69,0
31373,note_on,,,,,113,0,1,,,,,0,,,65,0
31380,note_on,,,,,803,0,0,,,,,0,,,76,112
31380,note_on,,,,,0,0,0,,,,,0,,,80,112
31380,note_on,,,,,0,0,2,,,,,0,,,52,112
31380,note_on,,,,,505,0,2,,,,,0,,,40,112
31380,note_on,,,,,0,0,0,,,,,0,,,88,112
31381,control_change,,,,,8,0,1,,,64,0,0,,,,
31382,control_change,,,,,1,0,1,,,64,127,0,,,,
31620,note_on,,,,,0,0,1,,,,,0,,,58,112
31620,note_on,,,,,238,0,1,,,,,0,,,55,112
31733,note_on,,,,,0,0,1,,,,,0,,,58,0
31733,note_on,,,,,113,0,1,,,,,0,,,55,0
31740,note_on,,,,,0,0,1,,,,,0,,,59,112
31740,note_on,,,,,7,0,1,,,,,0,,,56,112
31853,note_on,,,,,0,0,1,,,,,0,,,59,0
31853,note_on,,,,,113,0,1,,,,,0,,,56,0
31860,note_on,,,,,0,0,1,,,,,0,,,67,112
31860,note_on,,,,,7,0,1,,,,,0,,,63,112
31973,note_on,,,,,0,0,1,,,,,0,,,67,0
31973,note_on,,,,,113,0,1,,,,,0,,,63,0
31980,note_on,,,,,0,0,1,,,,,0,,,68,112
31980,note_on,,,,,7,0,1,,,,,0,,,64,112
32093,note_on,,,,,0,0,1,,,,,0,,,68,0
32093,note_on,,,,,113,0,1,,,,,0,,,64,0
32100,note_on,,,,,7,0,1,,,,,0,,,67,112
32100,note_on,,,,,0,0,1,,,,,0,,,70,112
32213,note_on,,,,,0,0,1,,,,,0,,,70,0
32213,note_on,,,,,113,0,1,,,,,0,,,67,0
32220,note_on,,,,,7,0,1,,,,,0,,,68,112
32220,note_on,,,,,0,0,1,,,,,0,,,71,112
32291,note_on,,,,,911,0,0,,,,,0,,,76,0
32291,note_on,,,,,0,0,0,,,,,0,,,88,0
32291,note_on,,,,,0,0,0,,,,,0,,,80,0
32291,note_on,,,,,0,0,2,,,,,0,,,52,0
32291,note_on,,,,,911,0,2,,,,,0,,,40,0
32333,note_on,,,,,113,0,1,,,,,0,,,68,0
32333,note_on,,,,,0,0,1,,,,,0,,,71,0
32340,note_on,,,,,0,0,0,,,,,0,,,83,112
32340,note_on,,,,,0,0,2,,,,,0,,,56,112
32340,note_on,,,,,49,0,0,,,,,0,,,76,112
32340,note_on,,,,,49,0,2,,,,,0,,,44,112
32340,note_on,,,,,0,0,0,,,,,0,,,88,112
32341,control_change,,,,,8,0,1,,,64,0,0,,,,
32342,control_change,,,,,1,0,1,,,64,127,0,,,,
32580,note_on,,,,,238,0,1,,,,,0,,,55,112
32580,note_on,,,,,0,0,1,,,,,0,,,58,112
32693,note_on,,,,,113,0,1,,,,,0,,,55,0
32693,note_on,,,,,0,0,1,,,,,0,,,58,0
32700,note_on,,,,,0,0,1,,,,,0,,,59,112
32700,note_on,,,,,360,0,2,,,,,0,,,56,0
32700,note_on,,,,,7,0,1,,,,,0,,,56,112
32795,note_on,,,,,95,0,2,,,,,0,,,44,0
32795,note_on,,,,,0,0,0,,,,,0,,,88,0
32795,note_on,,,,,0,0,0,,,,,0,,,83,0
32795,note_on,,,,,455,0,0,,,,,0,,,76,0
32813,note_on,,,,,0,0,1,,,,,0,,,59,0
32813,note_on,,,,,113,0,1,,,,,0,,,56,0
32820,note_on,,,,,0,0,1,,,,,0,,,67,112
32820,note_on,,,,,7,0,1,,,,,0,,,63,112
32933,note_on,,,,,0,0,1,,,,,0,,,67,0
32933,note_on,,,,,113,0,1,,,,,0,,,63,0
32940,note_on,,,,,7,0,1,,,,,0,,,64,112
32940,note_on,,,,,0,0,1,,,,,0,,,68,112
33053,note_on,,,,,113,0,1,,,,,0,,,64,0
33053,note_on,,,,,0,0,1,,,,,0,,,68,0
33060,note_on,,,,,7,0,1,,,,,0,,,67,112
33060,note_on,,,,,0,0,1,,,,,0,,,70,112
33173,note_on,,,,,113,0,1,,,,,0,,,67,0
33173,note_on,,,,,0,0,1,,,,,0,,,70,0
33180,note_on,,,,,7,0,1,,,,,0,,,68,112
33180,note_on,,,,,0,0,1,,,,,0,,,71,112
33240,note_on,,,,,445,0,0,,,,,0,,,74,112
33240,note_on,,,,,0,0,0,,,,,0,,,86,112
33293,note_on,,,,,113,0,1,,,,,0,,,68,0
33293,note_on,,,,,0,0,1,,,,,0,,,71,0
33299,note_on,,,,,59,0,0,,,,,0,,,74,0
33299,note_on,,,,,0,0,0,,,,,0,,,86,0
33300,note_on,,,,,505,0,2,,,,,0,,,45,112
33300,note_on,,,,,0,0,0,,,,,0,,,85,112
33300,note_on,,,,,0,0,2,,,,,0,,,57,112
33300,note_on,,,,,0,0,2,,,,,0,,,52,112
33300,note_on,,,,,0,0,0,,,,,0,,,81,112
33300,note_on,,,,,1,0,0,,,,,0,,,73,112
33301,control_change,,,,,8,0,1,,,64,0,0,,,,
33302,control_change,,,,,1,0,1,,,64,127,0,,,,
33457,note_on,,,,,157,0,0,,,,,0,,,73,0
33457,note_on,,,,,0,0,0,,,,,0,,,81,0
33457,note_on,,,,,0,0,0,,,,,0,,,85,0
33540,note_on,,,,,0,0,1,,,,,0,,,63,112
33540,note_on,,,,,238,0,1,,,,,0,,,60,112
33653,note_on,,,,,113,0,1,,,,,0,,,60,0
33653,note_on,,,,,0,0,1,,,,,0,,,63,0
33660,note_on,,,,,7,0,1,,,,,0,,,61,112
33660,note_on,,,,,0,0,1,,,,,0,,,64,112
33755,note_on,,,,,0,0,2,,,,,0,,,57,0
33755,note_on,,,,,0,0,2,,,,,0,,,52,0
33755,note_on,,,,,455,0,2,,,,,0,,,45,0
33773,note_on,,,,,113,0,1,,,,,0,,,61,0
33773,note_on,,,,,0,0,1,,,,,0,,,64,0
33780,note_on,,,,,7,0,1,,,,,0,,,68,112
33780,note_on,,,,,0,0,1,,,,,0,,,72,112
33893,note_on,,,,,113,0,1,,,,,0,,,68,0
33893,note_on,,,,,0,0,1,,,,,0,,,72,0
33900,note_on,,,,,0,0,1,,,,,0,,,73,112
33900,note_on,,,,,7,0,1,,,,,0,,,69,112
34013,note_on,,,,,0,0,1,,,,,0,,,73,0
34013,note_on,,,,,113,0,1,,,,,0,,,69,0
34020,note_on,,,,,7,0,1,,,,,0,,,72,112
34020,note_on,,,,,0,0,1,,,,,0,,,74,112
34133,note_on,,,,,113,0,1,,,,,0,,,72,0
34133,note_on,,,,,0,0,1,,,,,0,,,74,0
34140,note_on,,,,,0,0,1,,,,,0,,,76,112
34140,note_on,,,,,7,0,1,,,,,0,,,73,112
34200,note_on,,,,,0,0,0,,,,,0,,,88,112
34200,note_on,,,,,743,0,0,,,,,0,,,76,112
34200,note_on,,,,,60,0,1,,,,,0,,,76,0
34253,note_on,,,,,53,0,1,,,,,0,,,73,0
34259,note_on,,,,,59,0,0,,,,,0,,,76,0
34259,note_on,,,,,0,0,0,,,,,0,,,88,0
34260,note_on,,,,,0,0,0,,,,,0,,,73,112
34260,note_on,,,,,0,0,2,,,,,0,,,57,112
34260,note_on,,,,,0,0,2,,,,,0,,,52,112
34260,note_on,,,,,505,0,2,,,,,0,,,45,112
34260,note_on,,,,,0,0,0,,,,,0,,,81,112
34260,note_on,,,,,1,0,0,,,,,0,,,69,112
34261,control_change,,,,,8,0,1,,,64,0,0,,,,
34262,control_change,,,,,1,0,1,,,64,127,0,,,,
34417,note_on,,,,,157,0,0,,,,,0,,,69,0
34417,note_on,,,,,0,0,0,,,,,0,,,81,0
34417,note_on,,,,,0,0,0,,,,,0,,,73,0
34500,note_on,,,,,0,0,1,,,,,0,,,63,112
34500,note_on,,,,,238,0,1,,,,,0,,,60,112
34613,note_on,,,,,0,0,1,,,,,0,,,63,0
34613,note_on,,,,,113,0,1,,,,,0,,,60,0
34620,note_on,,,,,7,0,1,,,,,0,,,61,112
34620,note_on,,,,,0,0,1,,,,,0,,,64,112
34715,note_on,,,,,0,0,2,,,,,0,,,57,0
34715,note_on,,,,,455,0,2,,,,,0,,,45,0
34715,note_on,,,,,0,0,2,,,,,0,,,52,0
34733,note_on,,,,,0,0,1,,,,,0,,,64,0
34733,note_on,,,,,113,0,1,,,,,0,,,61,0
34740,note_on,,,,,7,0,1,,,,,0,,,68,112
34740,note_on,,,,,0,0,1,,,,,0,,,72,112
34853,note_on,,,,,0,0,1,,,,,0,,,72,0
34853,note_on,,,,,113,0,1,,,,,0,,,68,0
34860,note_on,,,,,0,0,1,,,,,0,,,73,112
34860,note_on,,,,,7,0,1,,,,,0,,,69,112
34973,note_on,,,,,0,0,1,,,,,0,,,73,0
34973,note_on,,,,,113,0,1,,,,,0,,,69,0
34980,note_on,,,,,7,0,1,,,,,0,,,72,112
34980,note_on,,,,,0,0,1,,,,,0,,,75,112
35093,note_on,,,,,113,0,1,,,,,0,,,72,0
35093,note_on,,,,,0,0,1,,,,,0,,,75,0
35100,note_on,,,,,0,0,1,,,,,0,,,76,112
35100,note_on,,,,,7,0,1,,,,,0,,,73,112
35160,note_on,,,,,743,0,0,,,,,0,,,69,112
35160,note_on,,,,,0,0,0,,,,,0,,,81,112
35213,note_on,,,,,0,0,1,,,,,0,,,76,0
35213,note_on,,,,,113,0,1,,,,,0,,,73,0
35219,note_on,,,,,0,0,0,,,,,0,,,81,0
35219,note_on,,,,,59,0,0,,,,,0,,,69,0
35220,note_on,,,,,0,0,0,,,,,0,,,91,112
35220,note_on,,,,,0,0,2,,,,,0,,,58,112
35220,note_on,,,,,0,0,2,,,,,0,,,52,112
35220,note_on,,,,,0,0,0,,,,,0,,,85,112
35220,note_on,,,,,505,0,2,,,,,0,,,46,112
35220,note_on,,,,,1,0,0,,,,,0,,,79,112
35221,control_change,,,,,8,0,1,,,64,0,0,,,,
35222,control_change,,,,,1,0,1,,,64,127,0,,,,
35460,note_on,,,,,0,0,1,,,,,0,,,66,112
35460,note_on,,,,,238,0,1,,,,,0,,,63,112
35535,note_on,,,,,315,0,2,,,,,0,,,46,0
35535,note_on,,,,,315,0,0,,,,,0,,,79,0
35535,note_on,,,,,0,0,2,,,,,0,,,58,0
35535,note_on,,,,,0,0,0,,,,,0,,,91,0
35535,note_on,,,,,0,0,0,,,,,0,,,85,0
35535,note_on,,,,,0,0,2,,,,,0,,,52,0
35573,note_on,,,,,113,0,1,,,,,0,,,63,0
35573,note_on,,,,,0,0,1,,,,,0,,,66,0
35580,note_on,,,,,7,0,1,,,,,0,,,64,112
35580,note_on,,,,,0,0,1,,,,,0,,,67,112
35693,note_on,,,,,113,0,1,,,,,0,,,64,0
35693,note_on,,,,,0,0,1,,,,,0,,,67,0
35700,note_on,,,,,0,0,1,,,,,0,,,75,112
35700,note_on,,,,,7,0,1,,,,,0,,,72,112
35813,note_on,,,,,0,0,1,,,,,0,,,75,0
35813,note_on,,,,,113,0,1,,,,,0,,,72,0
35820,note_on,,,,,0,0,1,,,,,0,,,76,112
35820,note_on,,,,,7,0,1,,,,,0,,,73,112
35933,note_on,,,,,113,0,1,,,,,0,,,73,0
35933,note_on,,,,,0,0,1,,,,,0,,,76,0
35940,note_on,,,,,7,0,1,,,,,0,,,75,112
35940,note_on,,,,,0,0,1,,,,,0,,,78,112
36053,note_on,,,,,113,0,1,,,,,0,,,75,0
36053,note_on,,,,,0,0,1,,,,,0,,,78,0
36060,note_on,,,,,7,0,1,,,,,0,,,76,112
36060,note_on,,,,,0,0,1,,,,,0,,,79,112
36173,note_on,,,,,113,0,1,,,,,0,,,76,0
36173,note_on,,,,,0,0,1,,,,,0,,,79,0
36180,note_on,,,,,0,0,2,,,,,0,,,57,112
36180,note_on,,,,,645,0,2,,,,,0,,,45,112
36180,note_on,,,,,645,0,0,,,,,0,,,69,112
36180,note_on,,,,,0,0,0,,,,,0,,,81,112
36181,control_change,,,,,8,0,1,,,64,0,0,,,,
36182,control_change,,,,,1,0,1,,,64,127,0,,,,
36420,note_on,,,,,238,0,1,,,,,0,,,63,112
36420,note_on,,,,,0,0,1,,,,,0,,,66,112
36533,note_on,,,,,113,0,1,,,,,0,,,63,0
36533,note_on,,,,,0,0,1,,,,,0,,,66,0
36540,note_on,,,,,7,0,1,,,,,0,,,64,112
36540,note_on,,,,,0,0,1,,,,,0,,,67,112
36635,note_on,,,,,455,0,2,,,,,0,,,45,0
36635,note_on,,,,,455,0,0,,,,,0,,,69,0
36635,note_on,,,,,0,0,2,,,,,0,,,57,0
36635,note_on,,,,,0,0,0,,,,,0,,,81,0
36653,note_on,,,,,0,0,1,,,,,0,,,67,0
36653,note_on,,,,,113,0,1,,,,,0,,,64,0
36660,note_on,,,,,0,0,1,,,,,0,,,75,112
36660,note_on,,,,,7,0,1,,,,,0,,,72,112
36773,note_on,,,,,113,0,1,,,,,0,,,72,0
36773,note_on,,,,,0,0,1,,,,,0,,,75,0
36780,note_on,,,,,0,0,1,,,,,0,,,76,112
36780,note_on,,,,,7,0,1,,,,,0,,,73,112
36893,note_on,,,,,113,0,1,,,,,0,,,73,0
36893,note_on,,,,,0,0,1,,,,,0,,,76,0
36900,note_on,,,,,7,0,1,,,,,0,,,75,112
36900,note_on,,,,,0,0,1,,,,,0,,,78,112
37013,note_on,,,,,0,0,1,,,,,0,,,78,0
37013,note_on,,,,,113,0,1,,,,,0,,,75,0
37020,note_on,,,,,0,0,1,,,,,0,,,79,112
37020,note_on,,,,,7,0,1,,,,,0,,,76,112
37080,note_on,,,,,0,0,0,,,,,0,,,81,112
37080,note_on,,,,,445,0,0,,,,,0,,,69,112
37133,note_on,,,,,113,0,1,,,,,0,,,76,0
37133,note_on,,,,,0,0,1,,,,,0,,,79,0
37139,note_on,,,,,59,0,0,,,,,0,,,69,0
37139,note_on,,,,,0,0,0,,,,,0,,,81,0
37140,note_on,,,,,0,0,2,,,,,0,,,58,112
37140,note_on,,,,,0,0,2,,,,,0,,,51,112
37140,note_on,,,,,505,0,2,,,,,0,,,46,112
37140,note_on,,,,,0,0,0,,,,,0,,,90,112
37140,note_on,,,,,0,0,0,,,,,0,,,84,112
37140,note_on,,,,,1,0,0,,,,,0,,,78,112
37141,control_change,,,,,8,0,1,,,64,0,0,,,,
37142,control_change,,,,,1,0,1,,,64,127,0,,,,
37380,note_on,,,,,238,0,1,,,,,0,,,62,112
37380,note_on,,,,,0,0,1,,,,,0,,,65,112
37455,note_on,,,,,0,0,0,,,,,0,,,90,0
37455,note_on,,,,,0,0,0,,,,,0,,,84,0
37455,note_on,,,,,315,0,0,,,,,0,,,78,0
37455,note_on,,,,,0,0,2,,,,,0,,,51,0
37455,note_on,,,,,315,0,2,,,,,0,,,46,0
37455,note_on,,,,,0,0,2,,,,,0,,,58,0
37493,note_on,,,,,0,0,1,,,,,0,,,65,0
37493,note_on,,,,,113,0,1,,,,,0,,,62,0
37500,note_on,,,,,7,0,1,,,,,0,,,63,112
37500,note_on,,,,,0,0,1,,,,,0,,,66,112
37613,note_on,,,,,0,0,1,,,,,0,,,66,0
37613,note_on,,,,,113,0,1,,,,,0,,,63,0
37620,note_on,,,,,7,0,1,,,,,0,,,71,112
37620,note_on,,,,,0,0,1,,,,,0,,,74,112
37733,note_on,,,,,113,0,1,,,,,0,,,71,0
37733,note_on,,,,,0,0,1,,,,,0,,,74,0
37740,note_on,,,,,0,0,1,,,,,0,,,75,112
37740,note_on,,,,,7,0,1,,,,,0,,,72,112
37853,note_on,,,,,113,0,1,,,,,0,,,72,0
37853,note_on,,,,,0,0,1,,,,,0,,,75,0
37860,note_on,,,,,0,0,1,,,,,0,,,77,112
37860,note_on,,,,,7,0,1,,,,,0,,,74,112
37973,note_on,,,,,0,0,1,,,,,0,,,77,0
37973,note_on,,,,,113,0,1,,,,,0,,,74,0
37980,note_on,,,,,7,0,1,,,,,0,,,75,112
37980,note_on,,,,,0,0,1,,,,,0,,,78,112
38093,note_on,,,,,0,0,1,,,,,0,,,78,0
38093,note_on,,,,,113,0,1,,,,,0,,,75,0
38100,note_on,,,,,0,0,0,,,,,0,,,81,112
38100,note_on,,,,,645,0,0,,,,,0,,,69,112
38100,note_on,,,,,645,0,2,,,,,0,,,45,112
38100,note_on,,,,,0,0,2,,,,,0,,,57,112
38101,control_change,,,,,8,0,1,,,64,0,0,,,,
38102,control_change,,,,,1,0,1,,,64,127,0,,,,
38340,note_on,,,,,0,0,1,,,,,0,,,65,112
38340,note_on,,,,,238,0,1,,,,,0,,,62,112
38453,note_on,,,,,113,0,1,,,,,0,,,62,0
38453,note_on,,,,,0,0,1,,,,,0,,,65,0
38460,note_on,,,,,0,0,1,,,,,0,,,66,112
38460,note_on,,,,,7,0,1,,,,,0,,,63,112
38555,note_on,,,,,0,0,0,,,,,0,,,81,0
38555,note_on,,,,,0,0,2,,,,,0,,,57,0
38555,note_on,,,,,455,0,0,,,,,0,,,69,0
38555,note_on,,,,,455,0,2,,,,,0,,,45,0
38573,note_on,,,,,0,0,1,,,,,0,,,66,0
38573,note_on,,,,,113,0,1,,,,,0,,,63,0
38580,note_on,,,,,0,0,1,,,,,0,,,74,112
38580,note_on,,,,,7,0,1,,,,,0,,,71,112
38693,note_on,,,,,113,0,1,,,,,0,,,71,0
38693,note_on,,,,,0,0,1,,,,,0,,,74,0
38700,note_on,,,,,7,0,1,,,,,0,,,72,112
38700,note_on,,,,,0,0,1,,,,,0,,,75,112
38813,note_on,,,,,0,0,1,,,,,0,,,75,0
38813,note_on,,,,,113,0,1,,,,,0,,,72,0
38820,note_on,,,,,7,0,1,,,,,0,,,74,112
38820,note_on,,,,,0,0,1,,,,,0,,,77,112
38933,note_on,,,,,0,0,1,,,,,0,,,77,0
38933,note_on,,,,,113,0,1,,,,,0,,,74,0
38940,note_on,,,,,0,0,1,,,,,0,,,78,112
38940,note_on,,,,,7,0,1,,,,,0,,,75,112
39000,note_on,,,,,445,0,0,,,,,0,,,69,112
39000,note_on,,,,,0,0,0,,,,,0,,,81,112
39053,note_on,,,,,113,0,1,,,,,0,,,75,0
39053,note_on,,,,,0,0,1,,,,,0,,,78,0
39059,note_on,,,,,0,0,0,,,,,0,,,81,0
39059,note_on,,,,,59,0,0,,,,,0,,,69,0
39060,note_on,,,,,0,0,2,,,,,0,,,59,112
39060,note_on,,,,,0,0,2,,,,,0,,,50,112
39060,note_on,,,,,505,0,2,,,,,0,,,47,112
39060,note_on,,,,,0,0,0,,,,,0,,,89,112
39060,note_on,,,,,1,0,0,,,,,0,,,77,112
39060,note_on,,,,,0,0,0,,,,,0,,,80,112
39061,control_change,,,,,8,0,1,,,64,0,0,,,,
39062,control_change,,,,,1,0,1,,,64,127,0,,,,
39217,note_on,,,,,0,0,0,,,,,0,,,80,0
39217,note_on,,,,,0,0,0,,,,,0,,,89,0
39217,note_on,,,,,157,0,0,,,,,0,,,77,0
39300,note_on,,,,,238,0,1,,,,,0,,,61,112
39300,note_on,,,,,0,0,1,,,,,0,,,64,112
39413,note_on,,,,,0,0,1,,,,,0,,,64,0
39413,note_on,,,,,113,0,1,,,,,0,,,61,0
39420,note_on,,,,,0,0,1,,,,,0,,,65,112
39420,note_on,,,,,7,0,1,,,,,0,,,62,112
39515,note_on,,,,,0,0,2,,,,,0,,,59,0
39515,note_on,,,,,0,0,2,,,,,0,,,50,0
39515,note_on,,,,,455,0,2,,,,,0,,,47,0
39533,note_on,,,,,0,0,1,,,,,0,,,65,0
39533,note_on,,,,,113,0,1,,,,,0,,,62,0
39540,note_on,,,,,0,0,1,,,,,0,,,70,112
39540,note_on,,,,,7,0,1,,,,,0,,,67,112
39653,note_on,,,,,0,0,1,,,,,0,,,70,0
39653,note_on,,,,,113,0,1,,,,,0,,,67,0
39660,note_on,,,,,0,0,1,,,,,0,,,71,112
39660,note_on,,,,,7,0,1,,,,,0,,,68,112
39773,note_on,,,,,113,0,1,,,,,0,,,68,0
39773,note_on,,,,,0,0,1,,,,,0,,,71,0
39780,note_on,,,,,7,0,1,,,,,0,,,73,112
39780,note_on,,,,,0,0,1,,,,,0,,,76,112
39893,note_on,,,,,113,0,1,,,,,0,,,73,0
39893,note_on,,,,,0,0,1,,,,,0,,,76,0
39900,note_on,,,,,7,0,1,,,,,0,,,74,112
39900,note_on,,,,,0,0,1,,,,,0,,,77,112
39960,note_on,,,,,743,0,0,,,,,0,,,77,112
39960,note_on,,,,,0,0,0,,,,,0,,,89,112
39960,note_on,,,,,60,0,1,,,,,0,,,77,0
40013,note_on,,,,,53,0,1,,,,,0,,,74,0
40019,note_on,,,,,59,0,0,,,,,0,,,77,0
40019,note_on,,,,,0,0,0,,,,,0,,,89,0
40020,note_on,,,,,0,0,0,,,,,0,,,88,112
40020,note_on,,,,,505,0,2,,,,,0,,,40,112
40020,note_on,,,,,0,0,0,,,,,0,,,80,112
40020,note_on,,,,,1,0,0,,,,,0,,,76,112
40020,note_on,,,,,0,0,2,,,,,0,,,47,112
40020,note_on,,,,,0,0,2,,,,,0,,,52,112
40021,control_change,,,,,8,0,1,,,64,0,0,,,,
40022,control_change,,,,,1,0,1,,,64,127,0,,,,
40177,note_on,,,,,0,0,0,,,,,0,,,88,0
40177,note_on,,,,,0,0,0,,,,,0,,,80,0
40177,note_on,,,,,157,0,0,,,,,0,,,76,0
40260,note_on,,,,,0,0,1,,,,,0,,,58,112
40260,note_on,,,,,238,0,1,,,,,0,,,53,112
40373,note_on,,,,,0,0,1,,,,,0,,,58,0
40373,note_on,,,,,113,0,1,,,,,0,,,53,0
40380,note_on,,,,,0,0,1,,,,,0,,,59,112
40380,note_on,,,,,7,0,1,,,,,0,,,56,112
40475,note_on,,,,,455,0,2,,,,,0,,,40,0
40475,note_on,,,,,0,0,2,,,,,0,,,47,0
40475,note_on,,,,,0,0,2,,,,,0,,,52,0
40493,note_on,,,,,113,0,1,,,,,0,,,56,0
40493,note_on,,,,,0,0,1,,,,,0,,,59,0
40500,note_on,,,,,0,0,1,,,,,0,,,67,112
40500,note_on,,,,,7,0,1,,,,,0,,,63,112
40613,note_on,,,,,113,0,1,,,,,0,,,63,0
40613,note_on,,,,,0,0,1,,,,,0,,,67,0
40620,note_on,,,,,7,0,1,,,,,0,,,64,112
40620,note_on,,,,,0,0,1,,,,,0,,,68,112
40733,note_on,,,,,113,0,1,,,,,0,,,64,0
40733,note_on,,,,,0,0,1,,,,,0,,,68,0
40740,note_on,,,,,0,0,1,,,,,0,,,70,112
40740,note_on,,,,,7,0,1,,,,,0,,,67,112
40853,note_on,,,,,0,0,1,,,,,0,,,70,0
40853,note_on,,,,,113,0,1,,,,,0,,,67,0
40860,note_on,,,,,0,0,1,,,,,0,,,71,112
40860,note_on,,,,,7,0,1,,,,,0,,,68,112
40920,note_on,,,,,743,0,0,,,,,0,,,74,112
40920,note_on,,,,,0,0,0,,,,,0,,,86,112
40973,note_on,,,,,0,0,1,,,,,0,,,71,0
40973,note_on,,,,,113,0,1,,,,,0,,,68,0
40979,note_on,,,,,59,0,0,,,,,0,,,74,0
40979,note_on,,,,,0,0,0,,,,,0,,,86,0
40980,note_on,,,,,0,0,0,,,,,0,,,81,112
40980,note_on,,,,,1,0,0,,,,,0,,,73,112
40980,note_on,,,,,0,0,2,,,,,0,,,57,112
40980,note_on,,,,,505,0,2,,,,,0,,,45,112
40980,note_on,,,,,0,0,2,,,,,0,,,52,112
40980,note_on,,,,,0,0,0,,,,,0,,,85,112
40981,control_change,,,,,8,0,1,,,64,0,0,,,,
40982,control_change,,,,,1,0,1,,,64,127,0,,,,
41137,note_on,,,,,157,0,0,,,,,0,,,73,0
41137,note_on,,,,,0,0,0,,,,,0,,,81,0
41137,note_on,,,,,0,0,0,,,,,0,,,85,0
41220,note_on,,,,,0,0,1,,,,,0,,,63,112
41220,note_on,,,,,238,0,1,,,,,0,,,60,112
41333,note_on,,,,,113,0,1,,,,,0,,,60,0
41333,note_on,,,,,0,0,1,,,,,0,,,63,0
41340,note_on,,,,,0,0,1,,,,,0,,,64,112
41340,note_on,,,,,7,0,1,,,,,0,,,61,112
41435,note_on,,,,,455,0,2,,,,,0,,,45,0
41435,note_on,,,,,0,0,2,,,,,0,,,57,0
41435,note_on,,,,,0,0,2,,,,,0,,,52,0
41453,note_on,,,,,0,0,1,,,,,0,,,64,0
41453,note_on,,,,,113,0,1,,,,,0,,,61,0
41460,note_on,,,,,0,0,1,,,,,0,,,72,112
41460,note_on,,,,,7,0,1,,,,,0,,,68,112
41573,note_on,,,,,0,0,1,,,,,0,,,72,0
41573,note_on,,,,,113,0,1,,,,,0,,,68,0
41580,note_on,,,,,0,0,1,,,,,0,,,73,112
41580,note_on,,,,,7,0,1,,,,,0,,,69,112
41693,note_on,,,,,0,0,1,,,,,0,,,73,0
41693,note_on,,,,,113,0,1,,,,,0,,,69,0
41700,note_on,,,,,7,0,1,,,,,0,,,72,112
41700,note_on,,,,,0,0,1,,,,,0,,,75,112
41813,note_on,,,,,113,0,1,,,,,0,,,72,0
41813,note_on,,,,,0,0,1,,,,,0,,,75,0
41820,note_on,,,,,0,0,1,,,,,0,,,76,112
41820,note_on,,,,,7,0,1,,,,,0,,,73,112
41880,note_on,,,,,60,0,1,,,,,0,,,76,0
41880,note_on,,,,,743,0,0,,,,,0,,,76,112
41880,note_on,,,,,0,0,0,,,,,0,,,88,112
41933,note_on,,,,,53,0,1,,,,,0,,,73,0
41936,note_on,,,,,56,0,0,,,,,0,,,76,0
41936,note_on,,,,,0,0,0,,,,,0,,,88,0
41940,note_on,,,,,4,0,0,,,,,0,,,69,112
41940,note_on,,,,,0,0,2,,,,,0,,,57,112
41940,note_on,,,,,505,0,2,,,,,0,,,45,112
41940,note_on,,,,,0,0,0,,,,,0,,,73,112
41940,note_on,,,,,0,0,2,,,,,0,,,52,112
41940,note_on,,,,,0,0,0,,,,,0,,,81,112
41941,control_change,,,,,8,0,1,,,64,0,0,,,,
41942,control_change,,,,,1,0,1,,,64,127,0,,,,
42180,note_on,,,,,0,0,1,,,,,0,,,60,112
42180,note_on,,,,,238,0,1,,,,,0,,,56,112
42293,note_on,,,,,0,0,1,,,,,0,,,60,0
42293,note_on,,,,,113,0,1,,,,,0,,,56,0
42300,note_on,,,,,7,0,1,,,,,0,,,57,112
42300,note_on,,,,,0,0,1,,,,,0,,,61,112
42300,note_on,,,,,360,0,2,,,,,0,,,57,0
42395,note_on,,,,,455,0,0,,,,,0,,,69,0
42395,note_on,,,,,0,0,0,,,,,0,,,73,0
42395,note_on,,,,,95,0,2,,,,,0,,,45,0
42395,note_on,,,,,0,0,0,,,,,0,,,81,0
42395,note_on,,,,,0,0,2,,,,,0,,,52,0
42413,note_on,,,,,113,0,1,,,,,0,,,57,0
42413,note_on,,,,,0,0,1,,,,,0,,,61,0
42420,note_on,,,,,7,0,1,,,,,0,,,60,112
42420,note_on,,,,,0,0,1,,,,,0,,,63,112
42533,note_on,,,,,0,0,1,,,,,0,,,63,0
42533,note_on,,,,,113,0,1,,,,,0,,,60,0
42540,note_on,,,,,0,0,1,,,,,0,,,64,112
42540,note_on,,,,,7,0,1,,,,,0,,,61,112
42653,note_on,,,,,113,0,1,,,,,0,,,61,0
42653,note_on,,,,,0,0,1,,,,,0,,,64,0
42660,note_on,,,,,7,0,1,,,,,0,,,63,112
42660,note_on,,,,,0,0,1,,,,,0,,,68,112
42773,note_on,,,,,113,0,1,,,,,0,,,63,0
42773,note_on,,,,,0,0,1,,,,,0,,,68,0
42780,note_on,,,,,0,0,1,,,,,0,,,69,112
42780,note_on,,,,,7,0,1,,,,,0,,,64,112
42893,note_on,,,,,113,0,1,,,,,0,,,64,0
42893,note_on,,,,,0,0,1,,,,,0,,,69,0
42900,note_on,,,,,505,0,0,,,,,0,,,67,112
42900,note_on,,,,,505,0,2,,,,,0,,,34,112
42900,note_on,,,,,0,0,0,,,,,0,,,73,112
42900,note_on,,,,,0,0,0,,,,,0,,,79,112
42900,note_on,,,,,0,0,2,,,,,0,,,40,112
42900,note_on,,,,,0,0,2,,,,,0,,,46,112
42901,control_change,,,,,8,0,1,,,64,0,0,,,,
42902,control_change,,,,,1,0,1,,,64,127,0,,,,
43140,note_on,,,,,238,0,1,,,,,0,,,51,112
43140,note_on,,,,,0,0,1,,,,,0,,,54,112
43215,note_on,,,,,0,0,2,,,,,0,,,46,0
43215,note_on,,,,,315,0,2,,,,,0,,,34,0
43215,note_on,,,,,0,0,0,,,,,0,,,73,0
43215,note_on,,,,,0,0,0,,,,,0,,,79,0
43215,note_on,,,,,0,0,2,,,,,0,,,40,0
43215,note_on,,,,,315,0,0,,,,,0,,,67,0
43253,note_on,,,,,113,0,1,,,,,0,,,51,0
43253,note_on,,,,,0,0,1,,,,,0,,,54,0
43260,note_on,,,,,7,0,1,,,,,0,,,52,112
43260,note_on,,,,,0,0,1,,,,,0,,,55,112
43373,note_on,,,,,113,0,1,,,,,0,,,52,0
43373,note_on,,,,,0,0,1,,,,,0,,,55,0
43380,note_on,,,,,7,0,1,,,,,0,,,60,112
43380,note_on,,,,,0,0,1,,,,,0,,,63,112
43493,note_on,,,,,113,0,1,,,,,0,,,60,0
43493,note_on,,,,,0,0,1,,,,,0,,,63,0
43500,note_on,,,,,7,0,1,,,,,0,,,61,112
43500,note_on,,,,,0,0,1,,,,,0,,,67,112
43613,note_on,,,,,113,0,1,,,,,0,,,61,0
43613,note_on,,,,,0,0,1,,,,,0,,,67,0
43620,note_on,,,,,0,0,1,,,,,0,,,66,112
43620,note_on,,,,,7,0,1,,,,,0,,,63,112
43733,note_on,,,,,113,0,1,,,,,0,,,63,0
43733,note_on,,,,,0,0,1,,,,,0,,,66,0
43740,note_on,,,,,0,0,1,,,,,0,,,67,112
43740,note_on,,,,,7,0,1,,,,,0,,,64,112
43853,note_on,,,,,113,0,1,,,,,0,,,64,0
43853,note_on,,,,,0,0,1,,,,,0,,,67,0
43860,note_on,,,,,645,0,0,,,,,0,,,57,112
43860,note_on,,,,,645,0,2,,,,,0,,,33,112
43860,note_on,,,,,0,0,0,,,,,0,,,69,112
43860,note_on,,,,,0,0,2,,,,,0,,,45,112
43861,control_change,,,,,8,0,1,,,64,0,0,,,,
43862,control_change,,,,,1,0,1,,,64,127,0,,,,
44100,note_on,,,,,0,0,1,,,,,0,,,54,112
44100,note_on,,,,,238,0,1,,,,,0,,,51,112
44213,note_on,,,,,113,0,1,,,,,0,,,51,0
44213,note_on,,,,,0,0,1,,,,,0,,,54,0
44220,note_on,,,,,0,0,1,,,,,0,,,55,112
44220,note_on,,,,,7,0,1,,,,,0,,,52,112
44315,note_on,,,,,0,0,2,,,,,0,,,45,0
44315,note_on,,,,,455,0,0,,,,,0,,,57,0
44315,note_on,,,,,0,0,0,,,,,0,,,69,0
44315,note_on,,,,,455,0,2,,,,,0,,,33,0
44333,note_on,,,,,113,0,1,,,,,0,,,52,0
44333,note_on,,,,,0,0,1,,,,,0,,,55,0
44340,note_on,,,,,7,0,1,,,,,0,,,60,112
44340,note_on,,,,,0,0,1,,,,,0,,,63,112
44453,note_on,,,,,0,0,1,,,,,0,,,63,0
44453,note_on,,,,,113,0,1,,,,,0,,,60,0
44460,note_on,,,,,0,0,1,,,,,0,,,64,112
44460,note_on,,,,,7,0,1,,,,,0,,,61,112
44573,note_on,,,,,113,0,1,,,,,0,,,61,0
44573,note_on,,,,,0,0,1,,,,,0,,,64,0
44580,note_on,,,,,0,0,1,,,,,0,,,66,112
44580,note_on,,,,,7,0,1,,,,,0,,,63,112
44693,note_on,,,,,0,0,1,,,,,0,,,66,0
44693,note_on,,,,,113,0,1,,,,,0,,,63,0
44700,note_on,,,,,7,0,1,,,,,0,,,64,112
44700,note_on,,,,,0,0,1,,,,,0,,,67,112
44760,note_on,,,,,445,0,0,,,,,0,,,57,112
44760,note_on,,,,,0,0,0,,,,,0,,,69,112
44813,note_on,,,,,0,0,1,,,,,0,,,67,0
44813,note_on,,,,,113,0,1,,,,,0,,,64,0
44819,note_on,,,,,0,0,0,,,,,0,,,69,0
44819,note_on,,,,,59,0,0,,,,,0,,,57,0
44820,note_on,,,,,1,0,0,,,,,0,,,66,112
44820,note_on,,,,,0,0,2,,,,,0,,,39,112
44820,note_on,,,,,505,0,2,,,,,0,,,34,112
44820,note_on,,,,,0,0,2,,,,,0,,,46,112
44820,note_on,,,,,0,0,0,,,,,0,,,72,112
44820,note_on,,,,,0,0,0,,,,,0,,,78,112
44821,control_change,,,,,8,0,1,,,64,0,0,,,,
44822,control_change,,,,,1,0,1,,,64,127,0,,,,
45060,note_on,,,,,0,0,1,,,,,0,,,53,112
45060,note_on,,,,,238,0,1,,,,,0,,,50,112
45135,note_on,,,,,0,0,2,,,,,0,,,46,0
45135,note_on,,,,,0,0,0,,,,,0,,,78,0
45135,note_on,,,,,0,0,0,,,,,0,,,72,0
45135,note_on,,,,,0,0,2,,,,,0,,,39,0
45135,note_on,,,,,315,0,0,,,,,0,,,66,0
45135,note_on,,,,,315,0,2,,,,,0,,,34,0
45173,note_on,,,,,0,0,1,,,,,0,,,53,0
45173,note_on,,,,,113,0,1,,,,,0,,,50,0
45180,note_on,,,,,7,0,1,,,,,0,,,51,112
45180,note_on,,,,,0,0,1,,,,,0,,,54,112
45293,note_on,,,,,0,0,1,,,,,0,,,54,0
45293,note_on,,,,,113,0,1,,,,,0,,,51,0
45300,note_on,,,,,7,0,1,,,,,0,,,59,112
45300,note_on,,,,,0,0,1,,,,,0,,,62,112
45413,note_on,,,,,0,0,1,,,,,0,,,62,0
45413,note_on,,,,,113,0,1,,,,,0,,,59,0
45420,note_on,,,,,7,0,1,,,,,0,,,60,112
45420,note_on,,,,,0,0,1,,,,,0,,,63,112
45533,note_on,,,,,113,0,1,,,,,0,,,60,0
45533,note_on,,,,,0,0,1,,,,,0,,,63,0
45540,note_on,,,,,0,0,1,,,,,0,,,65,112
45540,note_on,,,,,7,0,1,,,,,0,,,62,112
45653,note_on,,,,,113,0,1,,,,,0,,,62,0
45653,note_on,,,,,0,0,1,,,,,0,,,65,0
45660,note_on,,,,,7,0,1,,,,,0,,,63,112
45660,note_on,,,,,0,0,1,,,,,0,,,66,112
45773,note_on,,,,,0,0,1,,,,,0,,,66,0
45773,note_on,,,,,113,0,1,,,,,0,,,63,0
45780,note_on,,,,,645,0,2,,,,,0,,,33,112
45780,note_on,,,,,0,0,2,,,,,0,,,45,112
45780,note_on,,,,,0,0,0,,,,,0,,,69,112
45780,note_on,,,,,645,0,0,,,,,0,,,57,112
45781,control_change,,,,,8,0,1,,,64,0,0,,,,
45782,control_change,,,,,1,0,1,,,64,127,0,,,,
46020,note_on,,,,,238,0,1,,,,,0,,,50,112
46020,note_on,,,,,0,0,1,,,,,0,,,53,112
46133,note_on,,,,,0,0,1,,,,,0,,,53,0
46133,note_on,,,,,113,0,1,,,,,0,,,50,0
46140,note_on,,,,,0,0,1,,,,,0,,,54,112
46140,note_on,,,,,7,0,1,,,,,0,,,51,112
46235,note_on,,,,,455,0,0,,,,,0,,,57,0
46235,note_on,,,,,455,0,2,,,,,0,,,33,0
46235,note_on,,,,,0,0,0,,,,,0,,,69,0
46235,note_on,,,,,0,0,2,,,,,0,,,45,0
46253,note_on,,,,,113,0,1,,,,,0,,,51,0
46253,note_on,,,,,0,0,1,,,,,0,,,54,0
46260,note_on,,,,,7,0,1,,,,,0,,,59,112
46260,note_on,,,,,0,0,1,,,,,0,,,62,112
46373,note_on,,,,,113,0,1,,,,,0,,,59,0
46373,note_on,,,,,0,0,1,,,,,0,,,62,0
46380,note_on,,,,,7,0,1,,,,,0,,,60,112
46380,note_on,,,,,0,0,1,,,,,0,,,63,112
46493,note_on,,,,,113,0,1,,,,,0,,,60,0
46493,note_on,,,,,0,0,1,,,,,0,,,63,0
46500,note_on,,,,,7,0,1,,,,,0,,,62,112
46500,note_on,,,,,0,0,1,,,,,0,,,65,112
46613,note_on,,,,,113,0,1,,,,,0,,,62,0
46613,note_on,,,,,0,0,1,,,,,0,,,65,0
46620,note_on,,,,,0,0,1,,,,,0,,,66,112
46620,note_on,,,,,7,0,1,,,,,0,,,63,112
46680,note_on,,,,,0,0,0,,,,,0,,,69,112
46680,note_on,,,,,445,0,0,,,,,0,,,57,112
46733,note_on,,,,,0,0,1,,,,,0,,,66,0
46733,note_on,,,,,113,0,1,,,,,0,,,63,0
46739,note_on,,,,,0,0,0,,,,,0,,,69,0
46739,note_on,,,,,59,0,0,,,,,0,,,57,0
46740,note_on,,,,,0,0,2,,,,,0,,,38,112
46740,note_on,,,,,0,0,2,,,,,0,,,47,112
46740,note_on,,,,,0,0,0,,,,,0,,,68,112
46740,note_on,,,,,0,0,0,,,,,0,,,77,112
46740,note_on,,,,,1,0,0,,,,,0,,,65,112
46740,note_on,,,,,505,0,2,,,,,0,,,35,112
46741,control_change,,,,,8,0,1,,,64,0,0,,,,
46742,control_change,,,,,1,0,1,,,64,127,0,,,,
46980,note_on,,,,,238,0,1,,,,,0,,,49,112
46980,note_on,,,,,0,0,1,,,,,0,,,52,112
47093,note_on,,,,,0,0,1,,,,,0,,,52,0
47093,note_on,,,,,113,0,1,,,,,0,,,49,0
47100,note_on,,,,,0,0,1,,,,,0,,,53,112
47100,note_on,,,,,7,0,1,,,,,0,,,50,112
47195,note_on,,,,,0,0,0,,,,,0,,,77,0
47195,note_on,,,,,455,0,0,,,,,0,,,65,0
47195,note_on,,,,,0,0,2,,,,,0,,,47,0
47195,note_on,,,,,0,0,0,,,,,0,,,68,0
47195,note_on,,,,,0,0,2,,,,,0,,,38,0
47195,note_on,,,,,455,0,2,,,,,0,,,35,0
47213,note_on,,,,,113,0,1,,,,,0,,,50,0
47213,note_on,,,,,0,0,1,,,,,0,,,53,0
47220,note_on,,,,,0,0,1,,,,,0,,,58,112
47220,note_on,,,,,7,0,1,,,,,0,,,55,112
47333,note_on,,,,,113,0,1,,,,,0,,,55,0
47333,note_on,,,,,0,0,1,,,,,0,,,58,0
47340,note_on,,,,,7,0,1,,,,,0,,,56,112
47340,note_on,,,,,0,0,1,,,,,0,,,59,112
47453,note_on,,,,,113,0,1,,,,,0,,,56,0
47453,note_on,,,,,0,0,1,,,,,0,,,59,0
47460,note_on,,,,,7,0,1,,,,,0,,,61,112
47460,note_on,,,,,0,0,1,,,,,0,,,64,112
47573,note_on,,,,,113,0,1,,,,,0,,,61,0
47573,note_on,,,,,0,0,1,,,,,0,,,64,0
47580,note_on,,,,,0,0,1,,,,,0,,,65,112
47580,note_on,,,,,7,0,1,,,,,0,,,62,112
47640,note_on,,,,,0,0,0,,,,,0,,,77,112
47640,note_on,,,,,60,0,1,,,,,0,,,65,0
47640,note_on,,,,,445,0,0,,,,,0,,,65,112
47693,note_on,,,,,53,0,1,,,,,0,,,62,0
47696,note_on,,,,,56,0,0,,,,,0,,,65,0
47696,note_on,,,,,0,0,0,,,,,0,,,77,0
47700,note_on,,,,,4,0,0,,,,,0,,,64,112
47700,note_on,,,,,505,0,2,,,,,0,,,34,112
47700,note_on,,,,,0,0,0,,,,,0,,,76,112
47700,note_on,,,,,0,0,2,,,,,0,,,46,112
47700,note_on,,,,,0,0,2,,,,,0,,,38,112
47700,note_on,,,,,0,0,0,,,,,0,,,68,112
47701,control_change,,,,,8,0,1,,,64,0,0,,,,
47702,control_change,,,,,1,0,1,,,64,127,0,,,,
47940,note_on,,,,,238,0,1,,,,,0,,,49,112
47940,note_on,,,,,0,0,1,,,,,0,,,52,112
48053,note_on,,,,,113,0,1,,,,,0,,,49,0
48053,note_on,,,,,0,0,1,,,,,0,,,52,0
48060,note_on,,,,,0,0,1,,,,,0,,,53,112
48060,note_on,,,,,7,0,1,,,,,0,,,50,112
48155,note_on,,,,,0,0,0,,,,,0,,,68,0
48155,note_on,,,,,0,0,0,,,,,0,,,76,0
48155,note_on,,,,,0,0,2,,,,,0,,,38,0
48155,note_on,,,,,0,0,2,,,,,0,,,46,0
48155,note_on,,,,,455,0,2,,,,,0,,,34,0
48155,note_on,,,,,455,0,0,,,,,0,,,64,0
48173,note_on,,,,,113,0,1,,,,,0,,,50,0
48173,note_on,,,,,0,0,1,,,,,0,,,53,0
48180,note_on,,,,,0,0,1,,,,,0,,,61,112
48180,note_on,,,,,7,0,1,,,,,0,,,57,112
48293,note_on,,,,,0,0,1,,,,,0,,,61,0
48293,note_on,,,,,113,0,1,,,,,0,,,57,0
48300,note_on,,,,,7,0,1,,,,,0,,,54,112
48300,note_on,,,,,0,0,1,,,,,0,,,59,112
48413,note_on,,,,,113,0,1,,,,,0,,,54,0
48413,note_on,,,,,0,0,1,,,,,0,,,59,0
48420,note_on,,,,,0,0,1,,,,,0,,,63,112
48420,note_on,,,,,7,0,1,,,,,0,,,55,112
48533,note_on,,,,,113,0,1,,,,,0,,,55,0
48533,note_on,,,,,0,0,1,,,,,0,,,63,0
48540,note_on,,,,,7,0,1,,,,,0,,,56,112
48540,note_on,,,,,0,0,1,,,,,0,,,64,112
48600,note_on,,,,,445,0,0,,,,,0,,,62,112
48600,note_on,,,,,0,0,0,,,,,0,,,74,112
48659,note_on,,,,,119,0,1,,,,,0,,,56,0
48659,note_on,,,,,0,0,1,,,,,0,,,64,0
48659,note_on,,,,,59,0,0,,,,,0,,,62,0
48659,note_on,,,,,0,0,0,,,,,0,,,74,0
48660,note_on,,,,,0,0,2,,,,,0,,,45,112
48660,note_on,,,,,0,0,2,,,,,0,,,40,112
48660,note_on,,,,,0,0,1,,,,,0,,,61,112
48660,note_on,,,,,0,0,1,,,,,0,,,69,112
48660,note_on,,,,,505,0,2,,,,,0,,,33,112
48660,note_on,,,,,1,0,1,,,,,0,,,57,112
48661,control_change,,,,,1,0,1,,,64,0,0,,,,
48811,note_on,,,,,150,0,1,,,,,0,,,57,0
48811,note_on,,,,,0,0,2,,,,,0,,,40,0
48811,note_on,,,,,0,0,2,,,,,0,,,45,0
48811,note_on,,,,,0,0,1,,,,,0,,,69,0
48811,note_on,,,,,0,0,1,,,,,0,,,61,0
48811,note_on,,,,,151,0,2,,,,,0,,,33,0
48820,set_tempo,,,,,161,1,0,,375000,,,,,,,
48980,note_on,,,,,0,0,2,,,,,0,,,55,112
48980,note_on,,,,,169,0,1,,,,,0,,,73,112
48980,note_on,,,,,169,0,2,,,,,0,,,46,112
48980,note_on,,,,,0,0,1,,,,,0,,,64,112
49080,note_on,,,,,100,0,1,,,,,0,,,64,0
49080,note_on,,,,,100,0,2,,,,,0,,,55,0
49087,note_on,,,,,7,0,1,,,,,0,,,65,112
49087,note_on,,,,,7,0,2,,,,,0,,,56,112
49187,note_on,,,,,100,0,1,,,,,0,,,65,0
49187,note_on,,,,,100,0,2,,,,,0,,,56,0
49194,note_on,,,,,7,0,2,,,,,0,,,57,112
49194,note_on,,,,,7,0,1,,,,,0,,,66,112
49283,note_on,,,,,89,0,2,,,,,0,,,46,0
49283,note_on,,,,,89,0,1,,,,,0,,,73,0
49294,note_on,,,,,11,0,2,,,,,0,,,57,0
49294,note_on,,,,,11,0,1,,,,,0,,,66,0
49300,note_on,,,,,6,0,2,,,,,0,,,49,112
49300,note_on,,,,,0,0,1,,,,,0,,,67,112
49300,note_on,,,,,6,0,1,,,,,0,,,76,112
49300,note_on,,,,,0,0,2,,,,,0,,,58,112
49400,note_on,,,,,100,0,1,,,,,0,,,67,0
49400,note_on,,,,,100,0,2,,,,,0,,,58,0
49407,note_on,,,,,7,0,2,,,,,0,,,59,112
49407,note_on,,,,,7,0,1,,,,,0,,,68,112
49507,note_on,,,,,100,0,1,,,,,0,,,68,0
49507,note_on,,,,,100,0,2,,,,,0,,,59,0
49514,note_on,,,,,7,0,1,,,,,0,,,69,112
49514,note_on,,,,,7,0,2,,,,,0,,,60,112
49603,note_on,,,,,89,0,1,,,,,0,,,76,0
49603,note_on,,,,,89,0,2,,,,,0,,,49,0
49614,note_on,,,,,11,0,2,,,,,0,,,60,0
49614,note_on,,,,,11,0,1,,,,,0,,,69,0
49620,note_on,,,,,0,0,2,,,,,0,,,61,112
49620,note_on,,,,,6,0,1,,,,,0,,,79,112
49620,note_on,,,,,6,0,2,,,,,0,,,52,112
49620,note_on,,,,,0,0,1,,,,,0,,,70,112
49720,note_on,,,,,100,0,2,,,,,0,,,61,0
49720,note_on,,,,,100,0,1,,,,,0,,,70,0
49727,note_on,,,,,7,0,1,,,,,0,,,71,112
49727,note_on,,,,,7,0,2,,,,,0,,,62,112
49827,note_on,,,,,100,0,2,,,,,0,,,62,0
49827,note_on,,,,,100,0,1,,,,,0,,,71,0
49834,note_on,,,,,7,0,1,,,,,0,,,72,112
49834,note_on,,,,,7,0,2,,,,,0,,,63,112
49923,note_on,,,,,89,0,2,,,,,0,,,52,0
49923,note_on,,,,,89,0,1,,,,,0,,,79,0
49934,note_on,,,,,11,0,1,,,,,0,,,72,0
49934,note_on,,,,,11,0,2,,,,,0,,,63,0
49940,note_on,,,,,0,0,1,,,,,0,,,73,112
49940,note_on,,,,,0,0,2,,,,,0,,,64,112
49940,note_on,,,,,6,0,1,,,,,0,,,82,112
49940,note_on,,,,,6,0,2,,,,,0,,,55,112
50040,note_on,,,,,100,0,1,,,,,0,,,73,0
50040,note_on,,,,,100,0,2,,,,,0,,,64,0
50047,note_on,,,,,7,0,1,,,,,0,,,74,112
50047,note_on,,,,,7,0,2,,,,,0,,,62,112
50147,note_on,,,,,100,0,1,,,,,0,,,74,0
50147,note_on,,,,,100,0,2,,,,,0,,,62,0
50154,note_on,,,,,7,0,1,,,,,0,,,76,112
50154,note_on,,,,,7,0,2,,,,,0,,,61,112
50243,note_on,,,,,89,0,2,,,,,0,,,55,0
50243,note_on,,,,,89,0,1,,,,,0,,,82,0
50254,note_on,,,,,11,0,1,,,,,0,,,76,0
50254,note_on,,,,,11,0,2,,,,,0,,,61,0
50260,note_on,,,,,6,0,2,,,,,0,,,50,112
50260,note_on,,,,,0,0,1,,,,,0,,,71,112
50260,note_on,,,,,0,0,2,,,,,0,,,59,112
50260,note_on,,,,,6,0,1,,,,,0,,,83,112
50260,note_on,,,,,0,0,2,,,,,0,,,65,112
50260,note_on,,,,,0,0,2,,,,,0,,,56,112
50262,control_change,,,,,2,0,2,,,64,127,0,,,,
50360,note_on,,,,,100,0,1,,,,,0,,,71,0
50367,note_on,,,,,7,0,1,,,,,0,,,77,112
50411,note_on,,,,,149,0,2,,,,,0,,,50,0
50411,note_on,,,,,0,0,2,,,,,0,,,56,0
50411,note_on,,,,,0,0,2,,,,,0,,,59,0
50411,note_on,,,,,0,0,2,,,,,0,,,65,0
50467,note_on,,,,,100,0,1,,,,,0,,,77,0
50474,note_on,,,,,7,0,1,,,,,0,,,80,112
50563,note_on,,,,,89,0,1,,,,,0,,,83,0
50574,note_on,,,,,11,0,1,,,,,0,,,80,0
50580,note_on,,,,,0,0,1,,,,,0,,,85,112
50580,note_on,,,,,0,0,1,,,,,0,,,88,112
50580,note_on,,,,,169,0,2,,,,,0,,,45,112
50580,note_on,,,,,0,0,1,,,,,0,,,81,112
50580,note_on,,,,,6,0,1,,,,,0,,,76,112
50580,note_on,,,,,0,0,2,,,,,0,,,57,112
50580,note_on,,,,,0,0,2,,,,,0,,,52,112
50731,note_on,,,,,0,0,2,,,,,0,,,57,0
50731,note_on,,,,,0,0,2,,,,,0,,,52,0
50731,note_on,,,,,151,0,1,,,,,0,,,76,0
50731,note_on,,,,,0,0,1,,,,,0,,,81,0
50731,note_on,,,,,0,0,1,,,,,0,,,85,0
50731,note_on,,,,,0,0,1,,,,,0,,,88,0
50731,note_on,,,,,151,0,2,,,,,0,,,45,0
50741,control_change,,,,,10,0,2,,,64,0,0,,,,
50900,note_on,,,,,169,0,1,,,,,0,,,85,112
50900,note_on,,,,,0,0,2,,,,,0,,,67,112
50900,note_on,,,,,0,0,1,,,,,0,,,76,112
50900,note_on,,,,,159,0,2,,,,,0,,,58,112
51000,note_on,,,,,100,0,2,,,,,0,,,67,0
51000,note_on,,,,,100,0,1,,,,,0,,,76,0
51007,note_on,,,,,7,0,2,,,,,0,,,68,112
51007,note_on,,,,,7,0,1,,,,,0,,,77,112
51107,note_on,,,,,100,0,2,,,,,0,,,68,0
51107,note_on,,,,,100,0,1,,,,,0,,,77,0
51114,note_on,,,,,7,0,2,,,,,0,,,69,112
51114,note_on,,,,,7,0,1,,,,,0,,,78,112
51203,note_on,,,,,89,0,1,,,,,0,,,85,0
51203,note_on,,,,,89,0,2,,,,,0,,,58,0
51214,note_on,,,,,11,0,2,,,,,0,,,69,0
51214,note_on,,,,,11,0,1,,,,,0,,,78,0
51220,note_on,,,,,0,0,1,,,,,0,,,79,112
51220,note_on,,,,,6,0,1,,,,,0,,,88,112
51220,note_on,,,,,0,0,2,,,,,0,,,70,112
51220,note_on,,,,,6,0,2,,,,,0,,,61,112
51320,note_on,,,,,100,0,2,,,,,0,,,70,0
51320,note_on,,,,,100,0,1,,,,,0,,,79,0
51327,note_on,,,,,7,0,1,,,,,0,,,80,112
51327,note_on,,,,,7,0,2,,,,,0,,,71,112
51427,note_on,,,,,100,0,1,,,,,0,,,80,0
51427,note_on,,,,,100,0,2,,,,,0,,,71,0
51434,note_on,,,,,7,0,1,,,,,0,,,81,112
51434,note_on,,,,,7,0,2,,,,,0,,,72,112
51523,note_on,,,,,89,0,1,,,,,0,,,88,0
51523,note_on,,,,,89,0,2,,,,,0,,,61,0
51534,note_on,,,,,11,0,2,,,,,0,,,72,0
51534,note_on,,,,,11,0,1,,,,,0,,,81,0
51540,note_on,,,,,6,0,1,,,,,0,,,91,112
51540,note_on,,,,,0,0,2,,,,,0,,,73,112
51540,note_on,,,,,0,0,1,,,,,0,,,82,112
51540,note_on,,,,,6,0,2,,,,,0,,,64,112
51640,note_on,,,,,100,0,1,,,,,0,,,82,0
51640,note_on,,,,,100,0,2,,,,,0,,,73,0
51647,note_on,,,,,7,0,2,,,,,0,,,74,112
51647,note_on,,,,,7,0,1,,,,,0,,,83,112
51747,note_on,,,,,100,0,2,,,,,0,,,74,0
51747,note_on,,,,,100,0,1,,,,,0,,,83,0
51754,note_on,,,,,7,0,2,,,,,0,,,75,112
51754,note_on,,,,,7,0,1,,,,,0,,,84,112
51843,note_on,,,,,89,0,2,,,,,0,,,64,0
51843,note_on,,,,,89,0,1,,,,,0,,,91,0
51854,note_on,,,,,11,0,2,,,,,0,,,75,0
51854,note_on,,,,,11,0,1,,,,,0,,,84,0
51860,note_on,,,,,6,0,1,,,,,0,,,94,112
51860,note_on,,,,,0,0,1,,,,,0,,,85,112
51860,note_on,,,,,6,0,2,,,,,0,,,67,112
51860,note_on,,,,,0,0,2,,,,,0,,,76,112
51960,note_on,,,,,100,0,1,,,,,0,,,85,0
51960,note_on,,,,,100,0,2,,,,,0,,,76,0
51967,note_on,,,,,7,0,2,,,,,0,,,74,112
51967,note_on,,,,,7,0,1,,,,,0,,,86,112
52067,note_on,,,,,100,0,2,,,,,0,,,74,0
52067,note_on,,,,,100,0,1,,,,,0,,,86,0
52074,note_on,,,,,7,0,2,,,,,0,,,73,112
52074,note_on,,,,,7,0,1,,,,,0,,,88,112
52163,note_on,,,,,89,0,2,,,,,0,,,67,0
52163,note_on,,,,,89,0,1,,,,,0,,,94,0
52174,note_on,,,,,11,0,1,,,,,0,,,88,0
52174,note_on,,,,,11,0,2,,,,,0,,,73,0
52180,note_on,,,,,0,0,2,,,,,0,,,68,112
52180,note_on,,,,,0,0,2,,,,,0,,,71,112
52180,note_on,,,,,6,0,2,,,,,0,,,62,112
52180,note_on,,,,,0,0,2,,,,,0,,,77,112
52180,note_on,,,,,0,0,1,,,,,0,,,83,112
52180,note_on,,,,,6,0,1,,,,,0,,,95,112
52182,control_change,,,,,2,0,2,,,64,127,0,,,,
52280,note_on,,,,,100,0,1,,,,,0,,,83,0
52287,note_on,,,,,7,0,1,,,,,0,,,89,112
52331,note_on,,,,,0,0,2,,,,,0,,,71,0
52331,note_on,,,,,149,0,2,,,,,0,,,62,0
52331,note_on,,,,,0,0,2,,,,,0,,,77,0
52331,note_on,,,,,0,0,2,,,,,0,,,68,0
52387,note_on,,,,,100,0,1,,,,,0,,,89,0
52394,note_on,,,,,7,0,1,,,,,0,,,92,112
52483,note_on,,,,,89,0,1,,,,,0,,,95,0
52494,note_on,,,,,11,0,1,,,,,0,,,92,0
52500,note_on,,,,,0,0,2,,,,,0,,,61,112
52500,note_on,,,,,169,0,2,,,,,0,,,57,112
52500,note_on,,,,,0,0,2,,,,,0,,,64,112
52500,note_on,,,,,0,0,1,,,,,0,,,100,112
52500,note_on,,,,,0,0,1,,,,,0,,,97,112
52500,note_on,,,,,0,0,2,,,,,0,,,69,112
52500,note_on,,,,,6,0,1,,,,,0,,,88,112
52500,note_on,,,,,0,0,1,,,,,0,,,93,112
52651,note_on,,,,,0,0,1,,,,,0,,,97,0
52651,note_on,,,,,0,0,2,,,,,0,,,64,0
52651,note_on,,,,,0,0,1,,,,,0,,,100,0
52651,note_on,,,,,0,0,1,,,,,0,,,93,0
52651,note_on,,,,,151,0,2,,,,,0,,,57,0
52651,note_on,,,,,151,0,1,,,,,0,,,88,0
52651,note_on,,,,,0,0,2,,,,,0,,,69,0
52651,note_on,,,,,0,0,2,,,,,0,,,61,0
52661,control_change,,,,,10,0,2,,,64,0,0,,,,
52820,note_on,,,,,0,0,2,,,,,0,,,56,112
52820,note_on,,,,,0,0,2,,,,,0,,,62,112
52820,note_on,,,,,169,0,1,,,,,0,,,95,112
52820,note_on,,,,,0,0,2,,,,,0,,,53,112
52820,note_on,,,,,0,0,1,,,,,0,,,83,112
52820,note_on,,,,,159,0,2,,,,,0,,,50,112
52822,control_change,,,,,2,0,2,,,64,127,0,,,,
52920,note_on,,,,,100,0,1,,,,,0,,,83,0
52927,note_on,,,,,7,0,1,,,,,0,,,89,112
52971,note_on,,,,,0,0,2,,,,,0,,,53,0
52971,note_on,,,,,149,0,2,,,,,0,,,50,0
52971,note_on,,,,,0,0,2,,,,,0,,,62,0
52971,note_on,,,,,0,0,2,,,,,0,,,56,0
53027,note_on,,,,,100,0,1,,,,,0,,,89,0
53034,note_on,,,,,7,0,1,,,,,0,,,92,112
53123,note_on,,,,,89,0,1,,,,,0,,,95,0
53134,note_on,,,,,11,0,1,,,,,0,,,92,0
53140,note_on,,,,,0,0,1,,,,,0,,,97,112
53140,note_on,,,,,169,0,2,,,,,0,,,45,112
53140,note_on,,,,,0,0,1,,,,,0,,,93,112
53140,note_on,,,,,0,0,2,,,,,0,,,52,112
53140,note_on,,,,,0,0,2,,,,,0,,,57,112
53140,note_on,,,,,0,0,2,,,,,0,,,49,112
53140,note_on,,,,,6,0,1,,,,,0,,,88,112
53140,note_on,,,,,0,0,1,,,,,0,,,100,112
53291,note_on,,,,,0,0,2,,,,,0,,,52,0
53291,note_on,,,,,151,0,2,,,,,0,,,45,0
53291,note_on,,,,,0,0,2,,,,,0,,,49,0
53291,note_on,,,,,0,0,2,,,,,0,,,57,0
53291,note_on,,,,,0,0,1,,,,,0,,,100,0
53291,note_on,,,,,0,0,1,,,,,0,,,97,0
53291,note_on,,,,,0,0,1,,,,,0,,,93,0
53291,note_on,,,,,151,0,1,,,,,0,,,88,0
53301,control_change,,,,,10,0,2,,,64,0,0,,,,
53460,note_on,,,,,159,0,2,,,,,0,,,38,112
53460,note_on,,,,,169,0,1,,,,,0,,,95,112
53460,note_on,,,,,0,0,2,,,,,0,,,50,112
53460,note_on,,,,,0,0,2,,,,,0,,,44,112
53460,note_on,,,,,0,0,2,,,,,0,,,41,112
53460,note_on,,,,,0,0,1,,,,,0,,,83,112
53462,control_change,,,,,2,0,2,,,64,127,0,,,,
53560,note_on,,,,,100,0,1,,,,,0,,,83,0
53567,note_on,,,,,7,0,1,,,,,0,,,89,112
53611,note_on,,,,,0,0,2,,,,,0,,,50,0
53611,note_on,,,,,0,0,2,,,,,0,,,41,0
53611,note_on,,,,,149,0,2,,,,,0,,,38,0
53611,note_on,,,,,0,0,2,,,,,0,,,44,0
53667,note_on,,,,,100,0,1,,,,,0,,,89,0
53674,note_on,,,,,7,0,1,,,,,0,,,92,112
53763,note_on,,,,,89,0,1,,,,,0,,,95,0
53774,note_on,,,,,11,0,1,,,,,0,,,92,0
53780,note_on,,,,,6,0,1,,,,,0,,,88,112
53780,note_on,,,,,0,0,2,,,,,0,,,40,112
53780,note_on,,,,,0,0,1,,,,,0,,,100,112
53780,note_on,,,,,0,0,1,,,,,0,,,97,112
53780,note_on,,,,,0,0,1,,,,,0,,,93,112
53780,note_on,,,,,0,0,2,,,,,0,,,37,112
53780,note_on,,,,,169,0,2,,,,,0,,,33,112
53780,note_on,,,,,0,0,2,,,,,0,,,45,112
53931,note_on,,,,,151,0,2,,,,,0,,,33,0
53931,note_on,,,,,0,0,1,,,,,0,,,93,0
53931,note_on,,,,,0,0,1,,,,,0,,,97,0
53931,note_on,,,,,0,0,1,,,,,0,,,100,0
53931,note_on,,,,,151,0,1,,,,,0,,,88,0
53931,note_on,,,,,0,0,2,,,,,0,,,45,0
53931,note_on,,,,,0,0,2,,,,,0,,,40,0
53931,note_on,,,,,0,0,2,,,,,0,,,37,0
53941,control_change,,,,,10,0,2,,,64,0,0,,,,
54100,note_on,,,,,0,0,1,,,,,0,,,83,112
54100,note_on,,,,,0,0,2,,,,,0,,,50,112
54100,note_on,,,,,0,0,2,,,,,0,,,44,112
54100,note_on,,,,,169,0,1,,,,,0,,,95,112
54100,note_on,,,,,0,0,2,,,,,0,,,41,112
54100,note_on,,,,,159,0,2,,,,,0,,,38,112
54102,control_change,,,,,2,0,2,,,64,127,0,,,,
54200,note_on,,,,,100,0,1,,,,,0,,,83,0
54207,note_on,,,,,7,0,1,,,,,0,,,89,112
54251,note_on,,,,,0,0,2,,,,,0,,,41,0
54251,note_on,,,,,0,0,2,,,,,0,,,44,0
54251,note_on,,,,,0,0,2,,,,,0,,,50,0
54251,note_on,,,,,149,0,2,,,,,0,,,38,0
54307,note_on,,,,,100,0,1,,,,,0,,,89,0
54314,note_on,,,,,7,0,1,,,,,0,,,92,112
54403,note_on,,,,,89,0,1,,,,,0,,,95,0
54414,note_on,,,,,11,0,1,,,,,0,,,92,0
54420,set_tempo,,,,,5600,1,0,,750002,,,,,,,
54420,note_on,,,,,0,0,1,,,,,0,,,100,112
54420,note_on,,,,,0,0,1,,,,,0,,,97,112
54420,note_on,,,,,0,0,1,,,,,0,,,93,112
54420,note_on,,,,,169,0,2,,,,,0,,,33,112
54420,note_on,,,,,0,0,2,,,,,0,,,37,112
54420,note_on,,,,,0,0,2,,,,,0,,,40,112
54420,note_on,,,,,6,0,1,,,,,0,,,88,112
54420,note_on,,,,,0,0,2,,,,,0,,,45,112
54498,note_on,,,,,0,0,1,,,,,0,,,97,0
54498,note_on,,,,,0,0,1,,,,,0,,,93,0
54498,note_on,,,,,0,0,2,,,,,0,,,45,0
54498,note_on,,,,,0,0,2,,,,,0,,,37,0
54498,note_on,,,,,78,0,2,,,,,0,,,33,0
54498,note_on,,,,,0,0,1,,,,,0,,,100,0
54498,note_on,,,,,0,0,2,,,,,0,,,40,0
54498,note_on,,,,,78,0,1,,,,,0,,,88,0
54900,note_on,,,,,402,0,1,,,,,0,,,70,127
54900,note_on,,,,,402,0,2,,,,,0,,,46,127
54900,note_on,,,,,0,0,2,,,,,0,,,58,127
54900,set_tempo,,,,,480,1,0,,2000000,,,,,,,
54900,note_on,,,,,0,0,1,,,,,0,,,82,127
54901,control_change,,,,,1,0,2,,,64,0,0,,,,
55059,note_on,,,,,0,0,1,,,,,0,,,82,0
55059,note_on,,,,,0,0,2,,,,,0,,,58,0
55059,note_on,,,,,158,0,2,,,,,0,,,46,0
55059,note_on,,,,,159,0,1,,,,,0,,,70,0
55060,note_on,,,,,1,0,2,,,,,0,,,45,112
55060,note_on,,,,,0,0,2,,,,,0,,,57,112
55060,note_on,,,,,1,0,1,,,,,0,,,69,112
55060,note_on,,,,,0,0,1,,,,,0,,,81,112
55060,set_tempo,,,,,160,1,0,,1200000,,,,,,,
55135,note_on,,,,,75,0,1,,,,,0,,,69,0
55135,note_on,,,,,0,0,2,,,,,0,,,57,0
55135,note_on,,,,,0,0,1,,,,,0,,,81,0
55135,note_on,,,,,75,0,2,,,,,0,,,45,0
55140,note_on,,,,,0,0,2,,,,,0,,,55,112
55140,note_on,,,,,0,0,1,,,,,0,,,79,112
55140,note_on,,,,,5,0,2,,,,,0,,,43,112
55140,note_on,,,,,5,0,1,,,,,0,,,67,112
55140,set_tempo,,,,,80,1,0,,857140,,,,,,,
55215,note_on,,,,,0,0,2,,,,,0,,,55,0
55215,note_on,,,,,75,0,1,,,,,0,,,67,0
55215,note_on,,,,,75,0,2,,,,,0,,,43,0
55215,note_on,,,,,0,0,1,,,,,0,,,79,0
55220,note_on,,,,,0,0,2,,,,,0,,,53,112
55220,note_on,,,,,5,0,2,,,,,0,,,41,112
55220,note_on,,,,,5,0,1,,,,,0,,,65,112
55220,note_on,,,,,0,0,1,,,,,0,,,77,112
55295,note_on,,,,,75,0,2,,,,,0,,,41,0
55295,note_on,,,,,0,0,1,,,,,0,,,77,0
55295,note_on,,,,,0,0,2,,,,,0,,,53,0
55295,note_on,,,,,75,0,1,,,,,0,,,65,0
55300,note_on,,,,,5,0,1,,,,,0,,,64,112
55300,note_on,,,,,0,0,1,,,,,0,,,76,112
55300,note_on,,,,,5,0,2,,,,,0,,,40,112
55300,note_on,,,,,0,0,2,,,,,0,,,52,112
55375,note_on,,,,,0,0,1,,,,,0,,,76,0
55375,note_on,,,,,75,0,1,,,,,0,,,64,0
55375,note_on,,,,,75,0,2,,,,,0,,,40,0
55375,note_on,,,,,0,0,2,,,,,0,,,52,0
55380,note_on,,,,,0,0,1,,,,,0,,,74,112
55380,note_on,,,,,5,0,2,,,,,0,,,38,112
55380,note_on,,,,,5,0,1,,,,,0,,,62,112
55380,note_on,,,,,0,0,2,,,,,0,,,50,112
55380,set_tempo,,,,,240,1,0,,666667,,,,,,,
55480,note_on,,,,,0,0,2,,,,,0,,,50,0
55480,note_on,,,,,0,0,1,,,,,0,,,74,0
55480,note_on,,,,,100,0,2,,,,,0,,,38,0
55480,note_on,,,,,100,0,1,,,,,0,,,62,0
55487,note_on,,,,,7,0,2,,,,,0,,,37,112
55487,note_on,,,,,0,0,1,,,,,0,,,73,112
55487,note_on,,,,,7,0,1,,,,,0,,,61,112
55487,note_on,,,,,0,0,2,,,,,0,,,49,112
55587,note_on,,,,,0,0,1,,,,,0,,,73,0
55587,note_on,,,,,100,0,1,,,,,0,,,61,0
55587,note_on,,,,,100,0,2,,,,,0,,,37,0
55587,note_on,,,,,0,0,2,,,,,0,,,49,0
55594,note_on,,,,,0,0,2,,,,,0,,,52,112
55594,note_on,,,,,7,0,2,,,,,0,,,40,112
55594,note_on,,,,,0,0,1,,,,,0,,,76,112
55594,note_on,,,,,7,0,1,,,,,0,,,64,112
55694,note_on,,,,,0,0,2,,,,,0,,,52,0
55694,note_on,,,,,100,0,1,,,,,0,,,64,0
55694,note_on,,,,,100,0,2,,,,,0,,,40,0
55694,note_on,,,,,0,0,1,,,,,0,,,76,0
55701,set_tempo,,,,,321,1,0,,500000,,,,,,,
55701,note_on,,,,,7,0,2,,,,,0,,,36,112
55701,note_on,,,,,7,0,1,,,,,0,,,60,112
55701,note_on,,,,,0,0,2,,,,,0,,,48,112
55701,note_on,,,,,0,0,1,,,,,0,,,72,112
55801,note_on,,,,,0,0,2,,,,,0,,,48,0
55801,note_on,,,,,100,0,1,,,,,0,,,60,0
55801,note_on,,,,,0,0,1,,,,,0,,,72,0
55801,note_on,,,,,100,0,2,,,,,0,,,36,0
55808,note_on,,,,,0,0,2,,,,,0,,,52,112
55808,note_on,,,,,7,0,2,,,,,0,,,40,112
55808,note_on,,,,,7,0,1,,,,,0,,,64,112
55808,note_on,,,,,0,0,1,,,,,0,,,76,112
55908,note_on,,,,,100,0,2,,,,,0,,,40,0
55908,note_on,,,,,0,0,2,,,,,0,,,52,0
55908,note_on,,,,,0,0,1,,,,,0,,,76,0
55908,note_on,,,,,100,0,1,,,,,0,,,64,0
55915,note_on,,,,,7,0,1,,,,,0,,,59,112
55915,note_on,,,,,0,0,1,,,,,0,,,71,112
55915,note_on,,,,,7,0,2,,,,,0,,,35,112
55915,note_on,,,,,0,0,2,,,,,0,,,47,112
56015,note_on,,,,,100,0,1,,,,,0,,,59,0
56015,note_on,,,,,100,0,2,,,,,0,,,35,0
56015,note_on,,,,,0,0,1,,,,,0,,,71,0
56015,note_on,,,,,0,0,2,,,,,0,,,47,0
56022,note_on,,,,,0,0,1,,,,,0,,,76,112
56022,note_on,,,,,7,0,2,,,,,0,,,40,112
56022,note_on,,,,,0,0,2,,,,,0,,,52,112
56022,note_on,,,,,7,0,1,,,,,0,,,64,112
56122,note_on,,,,,100,0,1,,,,,0,,,64,0
56122,note_on,,,,,0,0,2,,,,,0,,,52,0
56122,note_on,,,,,100,0,2,,,,,0,,,40,0
56122,note_on,,,,,0,0,1,,,,,0,,,76,0
56129,note_on,,,,,0,0,2,,,,,0,,,46,112
56129,note_on,,,,,0,0,1,,,,,0,,,70,112
56129,note_on,,,,,7,0,1,,,,,0,,,58,112
56129,note_on,,,,,7,0,2,,,,,0,,,34,112
56229,note_on,,,,,0,0,1,,,,,0,,,70,0
56229,note_on,,,,,100,0,1,,,,,0,,,58,0
56229,note_on,,,,,100,0,2,,,,,0,,,34,0
56229,note_on,,,,,0,0,2,,,,,0,,,46,0
56236,note_on,,,,,7,0,2,,,,,0,,,40,112
56236,note_on,,,,,0,0,1,,,,,0,,,76,112
56236,note_on,,,,,0,0,2,,,,,0,,,52,112
56236,note_on,,,,,7,0,1,,,,,0,,,64,112
56336,note_on,,,,,0,0,1,,,,,0,,,76,0
56336,note_on,,,,,100,0,1,,,,,0,,,64,0
56336,note_on,,,,,100,0,2,,,,,0,,,40,0
56336,note_on,,,,,0,0,2,,,,,0,,,52,0
56340,note_on,,,,,0,0,2,,,,,0,,,45,112
56340,note_on,,,,,4,0,2,,,,,0,,,33,112
56340,note_on,,,,,4,0,1,,,,,0,,,57,112
56340,note_on,,,,,0,0,1,,,,,0,,,69,112
56567,note_on,,,,,227,0,1,,,,,0,,,57,0
56567,note_on,,,,,227,0,2,,,,,0,,,33,0
56567,note_on,,,,,0,0,2,,,,,0,,,45,0
56567,note_on,,,,,0,0,1,,,,,0,,,69,0
56820,note_on,,,,,0,0,1,,,,,0,,,85,127
56820,note_on,,,,,253,0,2,,,,,0,,,49,127
56820,note_on,,,,,0,0,2,,,,,0,,,61,127
56820,set_tempo,,,,,1119,1,0,,2000000,,,,,,,
56820,note_on,,,,,253,0,1,,,,,0,,,73,127
56979,note_on,,,,,159,0,2,,,,,0,,,49,0
56979,note_on,,,,,159,0,1,,,,,0,,,73,0
56979,note_on,,,,,0,0,1,,,,,0,,,85,0
56979,note_on,,,,,0,0,2,,,,,0,,,61,0
56980,note_on,,,,,0,0,2,,,,,0,,,58,112
56980,note_on,,,,,1,0,2,,,,,0,,,46,112
56980,note_on,,,,,1,0,1,,,,,0,,,70,112
56980,set_tempo,,,,,160,1,0,,1200000,,,,,,,
56980,note_on,,,,,0,0,1,,,,,0,,,82,112
57055,note_on,,,,,75,0,1,,,,,0,,,70,0
57055,note_on,,,,,0,0,2,,,,,0,,,58,0
57055,note_on,,,,,75,0,2,,,,,0,,,46,0
57055,note_on,,,,,0,0,1,,,,,0,,,82,0
57060,note_on,,,,,0,0,2,,,,,0,,,57,112
57060,note_on,,,,,5,0,2,,,,,0,,,45,112
57060,note_on,,,,,0,0,1,,,,,0,,,81,112
57060,set_tempo,,,,,80,1,0,,857140,,,,,,,
57060,note_on,,,,,5,0,1,,,,,0,,,69,112
57135,note_on,,,,,0,0,2,,,,,0,,,57,0
57135,note_on,,,,,0,0,1,,,,,0,,,81,0
57135,note_on,,,,,75,0,1,,,,,0,,,69,0
57135,note_on,,,,,75,0,2,,,,,0,,,45,0
57140,note_on,,,,,0,0,2,,,,,0,,,55,112
57140,note_on,,,,,5,0,2,,,,,0,,,43,112
57140,note_on,,,,,0,0,1,,,,,0,,,79,112
57140,note_on,,,,,5,0,1,,,,,0,,,67,112
57215,note_on,,,,,75,0,1,,,,,0,,,67,0
57215,note_on,,,,,0,0,2,,,,,0,,,55,0
57215,note_on,,,,,75,0,2,,,,,0,,,43,0
57215,note_on,,,,,0,0,1,,,,,0,,,79,0
57220,note_on,,,,,5,0,1,,,,,0,,,65,112
57220,note_on,,,,,0,0,1,,,,,0,,,77,112
57220,note_on,,,,,0,0,2,,,,,0,,,53,112
57220,note_on,,,,,5,0,2,,,,,0,,,41,112
57295,note_on,,,,,0,0,2,,,,,0,,,53,0
57295,note_on,,,,,75,0,2,,,,,0,,,41,0
57295,note_on,,,,,75,0,1,,,,,0,,,65,0
57295,note_on,,,,,0,0,1,,,,,0,,,77,0
57300,note_on,,,,,0,0,2,,,,,0,,,52,112
57300,note_on,,,,,5,0,2,,,,,0,,,40,112
57300,note_on,,,,,5,0,1,,,,,0,,,64,112
57300,set_tempo,,,,,240,1,0,,666667,,,,,,,
57300,note_on,,,,,0,0,1,,,,,0,,,76,112
57400,note_on,,,,,100,0,2,,,,,0,,,40,0
57400,note_on,,,,,100,0,1,,,,,0,,,64,0
57400,note_on,,,,,0,0,1,,,,,0,,,76,0
57400,note_on,,,,,0,0,2,,,,,0,,,52,0
57407,note_on,,,,,7,0,1,,,,,0,,,67,112
57407,note_on,,,,,0,0,1,,,,,0,,,79,112
57407,note_on,,,,,7,0,2,,,,,0,,,43,112
57407,note_on,,,,,0,0,2,,,,,0,,,55,112
57507,note_on,,,,,0,0,2,,,,,0,,,55,0
57507,note_on,,,,,100,0,2,,,,,0,,,43,0
57507,note_on,,,,,0,0,1,,,,,0,,,79,0
57507,note_on,,,,,100,0,1,,,,,0,,,67,0
57514,note_on,,,,,0,0,1,,,,,0,,,75,112
57514,note_on,,,,,0,0,2,,,,,0,,,51,112
57514,note_on,,,,,7,0,2,,,,,0,,,39,112
57514,note_on,,,,,7,0,1,,,,,0,,,63,112
57614,note_on,,,,,0,0,2,,,,,0,,,51,0
57614,note_on,,,,,0,0,1,,,,,0,,,75,0
57614,note_on,,,,,100,0,2,,,,,0,,,39,0
57614,note_on,,,,,100,0,1,,,,,0,,,63,0
57621,note_on,,,,,0,0,2,,,,,0,,,55,112
57621,note_on,,,,,7,0,2,,,,,0,,,43,112
57621,note_on,,,,,0,0,1,,,,,0,,,79,112
57621,note_on,,,,,7,0,1,,,,,0,,,67,112
57621,set_tempo,,,,,321,1,0,,500000,,,,,,,
57721,note_on,,,,,100,0,1,,,,,0,,,67,0
57721,note_on,,,,,0,0,1,,,,,0,,,79,0
57721,note_on,,,,,0,0,2,,,,,0,,,55,0
57721,note_on,,,,,100,0,2,,,,,0,,,43,0
57728,note_on,,,,,0,0,1,,,,,0,,,74,112
57728,note_on,,,,,0,0,2,,,,,0,,,50,112
57728,note_on,,,,,7,0,1,,,,,0,,,62,112
57728,note_on,,,,,7,0,2,,,,,0,,,38,112
57828,note_on,,,,,0,0,1,,,,,0,,,74,0
57828,note_on,,,,,100,0,1,,,,,0,,,62,0
57828,note_on,,,,,100,0,2,,,,,0,,,38,0
57828,note_on,,,,,0,0,2,,,,,0,,,50,0
57835,note_on,,,,,0,0,1,,,,,0,,,79,112
57835,note_on,,,,,0,0,2,,,,,0,,,55,112
57835,note_on,,,,,7,0,2,,,,,0,,,43,112
57835,note_on,,,,,7,0,1,,,,,0,,,67,112
57935,note_on,,,,,100,0,1,,,,,0,,,67,0
57935,note_on,,,,,0,0,1,,,,,0,,,79,0
57935,note_on,,,,,0,0,2,,,,,0,,,55,0
57935,note_on,,,,,100,0,2,,,,,0,,,43,0
57942,note_on,,,,,0,0,1,,,,,0,,,73,112
57942,note_on,,,,,0,0,2,,,,,0,,,49,112
57942,note_on,,,,,7,0,1,,,,,0,,,61,112
57942,note_on,,,,,7,0,2,,,,,0,,,37,112
58042,note_on,,,,,0,0,2,,,,,0,,,49,0
58042,note_on,,,,,0,0,1,,,,,0,,,73,0
58042,note_on,,,,,100,0,2,,,,,0,,,37,0
58042,note_on,,,,,100,0,1,,,,,0,,,61,0
58049,note_on,,,,,7,0,2,,,,,0,,,43,112
58049,note_on,,,,,0,0,1,,,,,0,,,79,112
58049,note_on,,,,,0,0,2,,,,,0,,,55,112
58049,note_on,,,,,7,0,1,,,,,0,,,67,112
58149,note_on,,,,,100,0,1,,,,,0,,,67,0
58149,note_on,,,,,100,0,2,,,,,0,,,43,0
58149,note_on,,,,,0,0,2,,,,,0,,,55,0
58149,note_on,,,,,0,0,1,,,,,0,,,79,0
58156,note_on,,,,,7,0,1,,,,,0,,,58,112
58156,note_on,,,,,7,0,2,,,,,0,,,34,112
58156,note_on,,,,,0,0,1,,,,,0,,,70,112
58156,note_on,,,,,0,0,2,,,,,0,,,46,112
58256,note_on,,,,,0,0,1,,,,,0,,,70,0
58256,note_on,,,,,100,0,1,,,,,0,,,58,0
58256,note_on,,,,,100,0,2,,,,,0,,,34,0
58256,note_on,,,,,0,0,2,,,,,0,,,46,0
58260,note_on,,,,,0,0,1,,,,,0,,,79,112
58260,note_on,,,,,4,0,2,,,,,0,,,43,112
58260,note_on,,,,,4,0,1,,,,,0,,,67,112
58260,set_tempo,,,,,639,1,0,,333333,,,,,,,
58260,note_on,,,,,0,0,2,,,,,0,,,55,112
58338,note_on,,,,,0,0,2,,,,,0,,,55,0
58338,note_on,,,,,0,0,1,,,,,0,,,79,0
58338,note_on,,,,,78,0,1,,,,,0,,,67,0
58338,note_on,,,,,78,0,2,,,,,0,,,43,0
58500,note_on,,,,,162,0,1,,,,,0,,,57,112
58500,note_on,,,,,0,0,1,,,,,0,,,69,112
58500,note_on,,,,,0,0,2,,,,,0,,,45,112
58500,note_on,,,,,162,0,2,,,,,0,,,33,112
58578,note_on,,,,,0,0,2,,,,,0,,,45,0
58578,note_on,,,,,0,0,1,,,,,0,,,69,0
58578,note_on,,,,,78,0,1,,,,,0,,,57,0
58578,note_on,,,,,78,0,2,,,,,0,,,33,0
58740,note_on,,,,,0,0,2,,,,,0,,,64,127
58740,note_on,,,,,162,0,2,,,,,0,,,52,127
58740,set_tempo,,,,,480,1,0,,1000000,,,,,,,
58740,note_on,,,,,162,0,1,,,,,0,,,76,127
58740,note_on,,,,,0,0,1,,,,,0,,,88,127
58846,note_on,,,,,106,0,2,,,,,0,,,52,0
58846,note_on,,,,,0,0,1,,,,,0,,,88,0
58846,note_on,,,,,106,0,1,,,,,0,,,76,0
58846,note_on,,,,,0,0,2,,,,,0,,,64,0
58900,note_on,,,,,0,0,1,,,,,0,,,86,112
58900,note_on,,,,,54,0,1,,,,,0,,,74,112
58900,note_on,,,,,54,0,2,,,,,0,,,50,112
58900,note_on,,,,,0,0,2,,,,,0,,,62,112
58900,set_tempo,,,,,160,1,0,,750002,,,,,,,
58975,note_on,,,,,75,0,2,,,,,0,,,50,0
58975,note_on,,,,,75,0,1,,,,,0,,,74,0
58975,note_on,,,,,0,0,1,,,,,0,,,86,0
58975,note_on,,,,,0,0,2,,,,,0,,,62,0
58980,note_on,,,,,0,0,1,,,,,0,,,85,112
58980,note_on,,,,,0,0,2,,,,,0,,,61,112
58980,note_on,,,,,5,0,1,,,,,0,,,73,112
58980,set_tempo,,,,,80,1,0,,599999,,,,,,,
58980,note_on,,,,,5,0,2,,,,,0,,,49,112
59055,note_on,,,,,0,0,1,,,,,0,,,85,0
59055,note_on,,,,,75,0,2,,,,,0,,,49,0
59055,note_on,,,,,0,0,2,,,,,0,,,61,0
59055,note_on,,,,,75,0,1,,,,,0,,,73,0
59060,note_on,,,,,5,0,1,,,,,0,,,70,112
59060,note_on,,,,,0,0,1,,,,,0,,,82,112
59060,note_on,,,,,5,0,2,,,,,0,,,46,112
59060,note_on,,,,,0,0,2,,,,,0,,,58,112
59135,note_on,,,,,0,0,1,,,,,0,,,82,0
59135,note_on,,,,,75,0,2,,,,,0,,,46,0
59135,note_on,,,,,0,0,2,,,,,0,,,58,0
59135,note_on,,,,,75,0,1,,,,,0,,,70,0
59140,note_on,,,,,0,0,2,,,,,0,,,57,112
59140,note_on,,,,,5,0,1,,,,,0,,,69,112
59140,note_on,,,,,0,0,1,,,,,0,,,81,112
59140,note_on,,,,,5,0,2,,,,,0,,,45,112
59215,note_on,,,,,0,0,2,,,,,0,,,57,0
59215,note_on,,,,,75,0,1,,,,,0,,,69,0
59215,note_on,,,,,75,0,2,,,,,0,,,45,0
59215,note_on,,,,,0,0,1,,,,,0,,,81,0
59220,note_on,,,,,5,0,2,,,,,0,,,55,112
59220,set_tempo,,,,,240,1,0,,1000000,,,,,,,
59220,note_on,,,,,0,0,1,,,,,0,,,91,112
59220,note_on,,,,,5,0,1,,,,,0,,,79,112
59220,note_on,,,,,0,0,2,,,,,0,,,67,112
59320,note_on,,,,,0,0,1,,,,,0,,,91,0
59320,note_on,,,,,100,0,2,,,,,0,,,55,0
59320,note_on,,,,,100,0,1,,,,,0,,,79,0
59320,note_on,,,,,0,0,2,,,,,0,,,67,0
59327,note_on,,,,,0,0,1,,,,,0,,,89,112
59327,note_on,,,,,7,0,2,,,,,0,,,53,112
59327,set_tempo,,,,,107,1,0,,599999,,,,,,,
59327,note_on,,,,,0,0,2,,,,,0,,,65,112
59327,note_on,,,,,7,0,1,,,,,0,,,77,112
59427,note_on,,,,,100,0,1,,,,,0,,,77,0
59427,note_on,,,,,0,0,2,,,,,0,,,65,0
59427,note_on,,,,,0,0,1,,,,,0,,,89,0
59427,note_on,,,,,100,0,2,,,,,0,,,53,0
59434,note_on,,,,,7,0,1,,,,,0,,,76,112
59434,note_on,,,,,0,0,2,,,,,0,,,64,112
59434,note_on,,,,,7,0,2,,,,,0,,,52,112
59434,note_on,,,,,0,0,1,,,,,0,,,88,112
59534,note_on,,,,,0,0,1,,,,,0,,,88,0
59534,note_on,,,,,0,0,2,,,,,0,,,64,0
59534,note_on,,,,,100,0,2,,,,,0,,,52,0
59534,note_on,,,,,100,0,1,,,,,0,,,76,0
59541,note_on,,,,,7,0,2,,,,,0,,,50,112
59541,note_on,,,,,0,0,2,,,,,0,,,62,112
59541,note_on,,,,,0,0,1,,,,,0,,,86,112
59541,note_on,,,,,7,0,1,,,,,0,,,74,112
59641,note_on,,,,,100,0,1,,,,,0,,,74,0
59641,note_on,,,,,100,0,2,,,,,0,,,50,0
59641,note_on,,,,,0,0,2,,,,,0,,,62,0
59641,note_on,,,,,0,0,1,,,,,0,,,86,0
59648,note_on,,,,,0,0,1,,,,,0,,,85,112
59648,note_on,,,,,7,0,2,,,,,0,,,49,112
59648,note_on,,,,,7,0,1,,,,,0,,,73,112
59648,note_on,,,,,0,0,2,,,,,0,,,61,112
59748,note_on,,,,,0,0,2,,,,,0,,,61,0
59748,note_on,,,,,100,0,2,,,,,0,,,49,0
59748,note_on,,,,,100,0,1,,,,,0,,,73,0
59748,note_on,,,,,0,0,1,,,,,0,,,85,0
59755,note_on,,,,,0,0,2,,,,,0,,,70,112
59755,note_on,,,,,0,0,1,,,,,0,,,94,112
59755,set_tempo,,,,,428,1,0,,750002,,,,,,,
59755,note_on,,,,,7,0,1,,,,,0,,,82,112
59755,note_on,,,,,7,0,2,,,,,0,,,58,112
59855,note_on,,,,,100,0,1,,,,,0,,,82,0
59855,note_on,,,,,100,0,2,,,,,0,,,58,0
59855,note_on,,,,,0,0,2,,,,,0,,,70,0
59855,note_on,,,,,0,0,1,,,,,0,,,94,0
59862,note_on,,,,,0,0,1,,,,,0,,,93,112
59862,set_tempo,,,,,107,1,0,,599999,,,,,,,
59862,note_on,,,,,0,0,2,,,,,0,,,69,112
59862,note_on,,,,,7,0,1,,,,,0,,,81,112
59862,note_on,,,,,7,0,2,,,,,0,,,57,112
59962,note_on,,,,,0,0,1,,,,,0,,,93,0
59962,note_on,,,,,0,0,2,,,,,0,,,69,0
59962,note_on,,,,,100,0,1,,,,,0,,,81,0
59962,note_on,,,,,100,0,2,,,,,0,,,57,0
59969,note_on,,,,,7,0,1,,,,,0,,,79,112
59969,note_on,,,,,0,0,1,,,,,0,,,91,112
59969,note_on,,,,,7,0,2,,,,,0,,,55,112
59969,note_on,,,,,0,0,2,,,,,0,,,67,112
60069,note_on,,,,,100,0,1,,,,,0,,,79,0
60069,note_on,,,,,100,0,2,,,,,0,,,55,0
60069,note_on,,,,,0,0,2,,,,,0,,,67,0
60069,note_on,,,,,0,0,1,,,,,0,,,91,0
60076,note_on,,,,,0,0,1,,,,,0,,,89,112
60076,note_on,,,,,7,0,2,,,,,0,,,53,112
60076,note_on,,,,,0,0,2,,,,,0,,,65,112
60076,note_on,,,,,7,0,1,,,,,0,,,77,112
60176,note_on,,,,,0,0,1,,,,,0,,,89,0
60176,note_on,,,,,100,0,1,,,,,0,,,77,0
60176,note_on,,,,,0,0,2,,,,,0,,,65,0
60176,note_on,,,,,100,0,2,,,,,0,,,53,0
60180,time_signature,6,4,24,8,318,1,0,,,,,,,,,
60180,note_on,,,,,0,0,2,,,,,0,,,64,112
60180,note_on,,,,,4,0,2,,,,,0,,,52,112
60180,note_on,,,,,4,0,1,,,,,0,,,76,112
60180,note_on,,,,,0,0,1,,,,,0,,,88,112
60280,note_on,,,,,0,0,2,,,,,0,,,64,0
60280,note_on,,,,,100,0,2,,,,,0,,,52,0
60280,note_on,,,,,100,0,1,,,,,0,,,76,0
60280,note_on,,,,,0,0,1,,,,,0,,,88,0
60287,set_tempo,,,,,107,1,0,,1199998,,,,,,,
60287,note_on,,,,,0,0,2,,,,,0,,,76,112
60287,note_on,,,,,0,0,1,,,,,0,,,100,112
60287,note_on,,,,,7,0,2,,,,,0,,,64,112
60287,note_on,,,,,7,0,1,,,,,0,,,88,112
60387,note_on,,,,,0,0,2,,,,,0,,,76,0
60387,note_on,,,,,100,0,2,,,,,0,,,64,0
60393,note_on,,,,,106,0,1,,,,,0,,,88,0
60393,set_tempo,,,,,106,1,0,,599999,,,,,,,
60393,note_on,,,,,0,0,1,,,,,0,,,100,0
60394,note_on,,,,,0,0,1,,,,,0,,,98,112
60394,note_on,,,,,7,0,2,,,,,0,,,62,112
60394,note_on,,,,,1,0,1,,,,,0,,,86,112
60394,note_on,,,,,0,0,2,,,,,0,,,74,112
60494,note_on,,,,,100,0,2,,,,,0,,,62,0
60494,note_on,,,,,0,0,1,,,,,0,,,98,0
60494,note_on,,,,,0,0,2,,,,,0,,,74,0
60494,note_on,,,,,100,0,1,,,,,0,,,86,0
60500,note_on,,,,,0,0,1,,,,,0,,,97,112
60500,note_on,,,,,6,0,1,,,,,0,,,85,112
60500,note_on,,,,,6,0,2,,,,,0,,,61,112
60500,note_on,,,,,0,0,2,,,,,0,,,73,112
60600,note_on,,,,,0,0,1,,,,,0,,,97,0
60600,note_on,,,,,100,0,2,,,,,0,,,61,0
60600,note_on,,,,,100,0,1,,,,,0,,,85,0
60600,note_on,,,,,0,0,2,,,,,0,,,73,0
60607,note_on,,,,,7,0,1,,,,,0,,,82,112
60607,note_on,,,,,7,0,2,,,,,0,,,58,112
60607,note_on,,,,,0,0,1,,,,,0,,,94,112
60607,note_on,,,,,0,0,2,,,,,0,,,70,112
60707,note_on,,,,,100,0,1,,,,,0,,,82,0
60707,note_on,,,,,0,0,1,,,,,0,,,94,0
60707,note_on,,,,,0,0,2,,,,,0,,,70,0
60707,note_on,,,,,100,0,2,,,,,0,,,58,0
60714,note_on,,,,,0,0,1,,,,,0,,,93,112
60714,note_on,,,,,0,0,2,,,,,0,,,69,112
60714,note_on,,,,,7,0,2,,,,,0,,,57,112
60714,note_on,,,,,7,0,1,,,,,0,,,81,112
60814,note_on,,,,,0,0,2,,,,,0,,,69,0
60814,note_on,,,,,100,0,1,,,,,0,,,81,0
60814,note_on,,,,,100,0,2,,,,,0,,,57,0
60814,note_on,,,,,0,0,1,,,,,0,,,93,0
60820,note_on,,,,,0,0,2,,,,,0,,,82,112
60820,set_tempo,,,,,427,1,0,,2399995,,,,,,,
60820,note_on,,,,,6,0,1,,,,,0,,,94,112
60820,note_on,,,,,0,0,1,,,,,0,,,106,112
60820,note_on,,,,,6,0,2,,,,,0,,,70,112
60920,note_on,,,,,100,0,2,,,,,0,,,70,0
60920,note_on,,,,,0,0,2,,,,,0,,,82,0
60926,note_on,,,,,0,0,1,,,,,0,,,106,0
60926,note_on,,,,,106,0,1,,,,,0,,,94,0
60926,set_tempo,,,,,106,1,0,,599999,,,,,,,
60927,note_on,,,,,0,0,1,,,,,0,,,105,112
60927,note_on,,,,,1,0,1,,,,,0,,,93,112
60927,note_on,,,,,7,0,2,,,,,0,,,69,112
60927,note_on,,,,,0,0,2,,,,,0,,,81,112
60927,set_tempo,,,,,1,1,0,,1799996,,,,,,,
61027,note_on,,,,,0,0,2,,,,,0,,,81,0
61027,note_on,,,,,100,0,2,,,,,0,,,69,0
61033,note_on,,,,,106,0,1,,,,,0,,,93,0
61033,note_on,,,,,0,0,1,,,,,0,,,105,0
61033,set_tempo,,,,,106,1,0,,599999,,,,,,,
61034,set_tempo,,,,,1,1,0,,899998,,,,,,,
61034,note_on,,,,,0,0,2,,,,,0,,,79,112
61034,note_on,,,,,1,0,1,,,,,0,,,91,112
61034,note_on,,,,,0,0,1,,,,,0,,,103,112
61034,note_on,,,,,7,0,2,,,,,0,,,67,112
61134,note_on,,,,,100,0,2,,,,,0,,,67,0
61134,note_on,,,,,0,0,2,,,,,0,,,79,0
61140,note_on,,,,,0,0,2,,,,,0,,,77,112
61140,set_tempo,,,,,106,1,0,,599999,,,,,,,
61140,note_on,,,,,0,0,1,,,,,0,,,101,112
61140,note_on,,,,,106,0,1,,,,,0,,,91,0
61140,note_on,,,,,0,0,1,,,,,0,,,103,0
61140,note_on,,,,,6,0,2,,,,,0,,,65,112
61140,note_on,,,,,0,0,1,,,,,0,,,89,112
61240,note_on,,,,,0,0,2,,,,,0,,,77,0
61240,note_on,,,,,0,0,1,,,,,0,,,101,0
61240,note_on,,,,,100,0,2,,,,,0,,,65,0
61240,note_on,,,,,100,0,1,,,,,0,,,89,0
61247,note_on,,,,,0,0,2,,,,,0,,,76,112
61247,note_on,,,,,0,0,1,,,,,0,,,100,112
61247,note_on,,,,,7,0,2,,,,,0,,,64,112
61247,note_on,,,,,7,0,1,,,,,0,,,88,112
61347,note_on,,,,,0,0,1,,,,,0,,,100,0
61347,note_on,,,,,100,0,2,,,,,0,,,64,0
61347,note_on,,,,,100,0,1,,,,,0,,,88,0
61347,note_on,,,,,0,0,2,,,,,0,,,76,0
61354,note_on,,,,,7,0,1,,,,,0,,,86,112
61354,note_on,,,,,0,0,1,,,,,0,,,98,112
61354,note_on,,,,,0,0,2,,,,,0,,,74,112
61354,note_on,,,,,7,0,2,,,,,0,,,62,112
61454,note_on,,,,,100,0,2,,,,,0,,,62,0
61454,note_on,,,,,0,0,2,,,,,0,,,74,0
61454,note_on,,,,,100,0,1,,,,,0,,,86,0
61454,note_on,,,,,0,0,1,,,,,0,,,98,0
61460,note_on,,,,,0,0,1,,,,,0,,,97,112
61460,note_on,,,,,6,0,1,,,,,0,,,85,112
61460,note_on,,,,,0,0,2,,,,,0,,,73,112
61460,note_on,,,,,6,0,2,,,,,0,,,61,112
61560,note_on,,,,,100,0,1,,,,,0,,,85,0
61560,note_on,,,,,0,0,2,,,,,0,,,73,0
61560,note_on,,,,,100,0,2,,,,,0,,,61,0
61560,note_on,,,,,0,0,1,,,,,0,,,97,0
61567,note_on,,,,,7,0,2,,,,,0,,,64,112
61567,note_on,,,,,7,0,1,,,,,0,,,88,112
61567,note_on,,,,,0,0,1,,,,,0,,,100,112
61567,note_on,,,,,0,0,2,,,,,0,,,76,112
61667,note_on,,,,,100,0,1,,,,,0,,,88,0
61667,note_on,,,,,100,0,2,,,,,0,,,64,0
61667,note_on,,,,,0,0,2,,,,,0,,,76,0
61667,note_on,,,,,0,0,1,,,,,0,,,100,0
61674,note_on,,,,,7,0,1,,,,,0,,,82,112
61674,note_on,,,,,0,0,1,,,,,0,,,94,112
61674,note_on,,,,,0,0,2,,,,,0,,,70,112
61674,note_on,,,,,7,0,2,,,,,0,,,58,112
61774,note_on,,,,,100,0,2,,,,,0,,,58,0
61774,note_on,,,,,0,0,1,,,,,0,,,94,0
61774,note_on,,,,,100,0,1,,,,,0,,,82,0
61774,note_on,,,,,0,0,2,,,,,0,,,70,0
61780,note_on,,,,,6,0,1,,,,,0,,,85,112
61780,note_on,,,,,0,0,1,,,,,0,,,97,112
61780,note_on,,,,,0,0,2,,,,,0,,,73,112
61780,note_on,,,,,6,0,2,,,,,0,,,61,112
61880,note_on,,,,,0,0,1,,,,,0,,,97,0
61880,note_on,,,,,100,0,2,,,,,0,,,61,0
61880,note_on,,,,,100,0,1,,,,,0,,,85,0
61880,note_on,,,,,0,0,2,,,,,0,,,73,0
61887,note_on,,,,,0,0,1,,,,,0,,,93,112
61887,note_on,,,,,7,0,1,,,,,0,,,81,112
61887,note_on,,,,,7,0,2,,,,,0,,,57,112
61887,note_on,,,,,0,0,2,,,,,0,,,69,112
61987,note_on,,,,,100,0,2,,,,,0,,,57,0
61987,note_on,,,,,0,0,1,,,,,0,,,93,0
61987,note_on,,,,,0,0,2,,,,,0,,,69,0
61987,note_on,,,,,100,0,1,,,,,0,,,81,0
61994,note_on,,,,,0,0,1,,,,,0,,,94,112
61994,note_on,,,,,0,0,2,,,,,0,,,70,112
61994,note_on,,,,,7,0,2,,,,,0,,,58,112
61994,note_on,,,,,7,0,1,,,,,0,,,82,112
62094,note_on,,,,,0,0,1,,,,,0,,,94,0
62094,note_on,,,,,0,0,2,,,,,0,,,70,0
62094,note_on,,,,,100,0,2,,,,,0,,,58,0
62094,note_on,,,,,100,0,1,,,,,0,,,82,0
62100,note_on,,,,,0,0,1,,,,,0,,,89,112
62100,note_on,,,,,6,0,2,,,,,0,,,53,112
62100,note_on,,,,,6,0,1,,,,,0,,,77,112
62100,note_on,,,,,0,0,2,,,,,0,,,65,112
62200,note_on,,,,,0,0,2,,,,,0,,,65,0
62200,note_on,,,,,100,0,2,,,,,0,,,53,0
62200,note_on,,,,,0,0,1,,,,,0,,,89,0
62200,note_on,,,,,100,0,1,,,,,0,,,77,0
62207,note_on,,,,,7,0,2,,,,,0,,,55,112
62207,note_on,,,,,7,0,1,,,,,0,,,79,112
62207,note_on,,,,,0,0,2,,,,,0,,,67,112
62207,note_on,,,,,0,0,1,,,,,0,,,91,112
62307,note_on,,,,,0,0,2,,,,,0,,,67,0
62307,note_on,,,,,100,0,1,,,,,0,,,79,0
62307,note_on,,,,,0,0,1,,,,,0,,,91,0
62307,note_on,,,,,100,0,2,,,,,0,,,55,0
62314,note_on,,,,,0,0,2,,,,,0,,,64,112
62314,note_on,,,,,7,0,1,,,,,0,,,76,112
62314,note_on,,,,,7,0,2,,,,,0,,,52,112
62314,note_on,,,,,0,0,1,,,,,0,,,88,112
62414,note_on,,,,,0,0,2,,,,,0,,,64,0
62414,note_on,,,,,100,0,1,,,,,0,,,76,0
62414,note_on,,,,,100,0,2,,,,,0,,,52,0
62414,note_on,,,,,0,0,1,,,,,0,,,88,0
62420,note_on,,,,,0,0,2,,,,,0,,,67,112
62420,note_on,,,,,6,0,2,,,,,0,,,55,112
62420,note_on,,,,,6,0,1,,,,,0,,,79,112
62420,note_on,,,,,0,0,1,,,,,0,,,91,112
62520,note_on,,,,,100,0,2,,,,,0,,,55,0
62520,note_on,,,,,0,0,2,,,,,0,,,67,0
62520,note_on,,,,,0,0,1,,,,,0,,,91,0
62520,note_on,,,,,100,0,1,,,,,0,,,79,0
62527,note_on,,,,,0,0,2,,,,,0,,,62,112
62527,note_on,,,,,7,0,1,,,,,0,,,74,112
62527,note_on,,,,,0,0,1,,,,,0,,,86,112
62527,note_on,,,,,7,0,2,,,,,0,,,50,112
62627,note_on,,,,,0,0,2,,,,,0,,,62,0
62627,note_on,,,,,100,0,2,,,,,0,,,50,0
62627,note_on,,,,,0,0,1,,,,,0,,,86,0
62627,note_on,,,,,100,0,1,,,,,0,,,74,0
62634,note_on,,,,,0,0,2,,,,,0,,,64,112
62634,note_on,,,,,0,0,1,,,,,0,,,88,112
62634,note_on,,,,,7,0,1,,,,,0,,,76,112
62634,note_on,,,,,7,0,2,,,,,0,,,52,112
62734,note_on,,,,,0,0,1,,,,,0,,,88,0
62734,note_on,,,,,0,0,2,,,,,0,,,64,0
62734,note_on,,,,,100,0,2,,,,,0,,,52,0
62734,note_on,,,,,100,0,1,,,,,0,,,76,0
62740,note_on,,,,,6,0,2,,,,,0,,,49,112
62740,note_on,,,,,0,0,2,,,,,0,,,61,112
62740,note_on,,,,,0,0,1,,,,,0,,,97,112
62740,note_on,,,,,6,0,1,,,,,0,,,85,112
62840,note_on,,,,,100,0,1,,,,,0,,,85,0
62840,note_on,,,,,100,0,2,,,,,0,,,49,0
62840,note_on,,,,,0,0,2,,,,,0,,,61,0
62840,note_on,,,,,0,0,1,,,,,0,,,97,0
62847,note_on,,,,,0,0,2,,,,,0,,,64,112
62847,note_on,,,,,7,0,1,,,,,0,,,76,112
62847,note_on,,,,,7,0,2,,,,,0,,,52,112
62847,note_on,,,,,0,0,1,,,,,0,,,88,112
62947,note_on,,,,,0,0,2,,,,,0,,,64,0
62947,note_on,,,,,100,0,1,,,,,0,,,76,0
62947,note_on,,,,,0,0,1,,,,,0,,,88,0
62947,note_on,,,,,100,0,2,,,,,0,,,52,0
62954,note_on,,,,,0,0,2,,,,,0,,,58,112
62954,note_on,,,,,7,0,1,,,,,0,,,70,112
62954,note_on,,,,,7,0,2,,,,,0,,,46,112
62954,note_on,,,,,0,0,1,,,,,0,,,82,112
63054,note_on,,,,,0,0,2,,,,,0,,,58,0
63054,note_on,,,,,100,0,1,,,,,0,,,70,0
63054,note_on,,,,,100,0,2,,,,,0,,,46,0
63054,note_on,,,,,0,0,1,,,,,0,,,82,0
63060,time_signature,4,4,24,8,1920,1,0,,,,,,,,,
63060,note_on,,,,,0,0,2,,,,,0,,,61,112
63060,note_on,,,,,6,0,2,,,,,0,,,49,112
63060,note_on,,,,,6,0,1,,,,,0,,,73,112
63060,note_on,,,,,0,0,1,,,,,0,,,85,112
63160,note_on,,,,,0,0,1,,,,,0,,,85,0
63160,note_on,,,,,100,0,1,,,,,0,,,73,0
63160,note_on,,,,,0,0,2,,,,,0,,,61,0
63160,note_on,,,,,100,0,2,,,,,0,,,49,0
63167,note_on,,,,,0,0,1,,,,,0,,,81,112
63167,note_on,,,,,7,0,1,,,,,0,,,69,112
63167,note_on,,,,,0,0,2,,,,,0,,,57,112
63167,note_on,,,,,7,0,2,,,,,0,,,45,112
63267,note_on,,,,,0,0,2,,,,,0,,,57,0
63267,note_on,,,,,100,0,1,,,,,0,,,69,0
63267,note_on,,,,,100,0,2,,,,,0,,,45,0
63267,note_on,,,,,0,0,1,,,,,0,,,81,0
63274,note_on,,,,,7,0,1,,,,,0,,,70,112
63274,note_on,,,,,0,0,1,,,,,0,,,82,112
63274,note_on,,,,,0,0,2,,,,,0,,,58,112
63274,note_on,,,,,7,0,2,,,,,0,,,46,112
63374,note_on,,,,,100,0,1,,,,,0,,,70,0
63374,note_on,,,,,100,0,2,,,,,0,,,46,0
63374,note_on,,,,,0,0,2,,,,,0,,,58,0
63374,note_on,,,,,0,0,1,,,,,0,,,82,0
63380,note_on,,,,,6,0,2,,,,,0,,,43,112
63380,note_on,,,,,6,0,1,,,,,0,,,67,112
63380,note_on,,,,,0,0,2,,,,,0,,,55,112
63380,note_on,,,,,0,0,1,,,,,0,,,79,112
63480,note_on,,,,,100,0,2,,,,,0,,,43,0
63480,note_on,,,,,100,0,1,,,,,0,,,67,0
63480,note_on,,,,,0,0,2,,,,,0,,,55,0
63480,note_on,,,,,0,0,1,,,,,0,,,79,0
63487,note_on,,,,,0,0,2,,,,,0,,,58,112
63487,note_on,,,,,0,0,1,,,,,0,,,82,112
63487,note_on,,,,,7,0,2,,,,,0,,,46,112
63487,note_on,,,,,7,0,1,,,,,0,,,70,112
63587,note_on,,,,,100,0,1,,,,,0,,,70,0
63587,note_on,,,,,100,0,2,,,,,0,,,46,0
63587,note_on,,,,,0,0,2,,,,,0,,,58,0
63587,note_on,,,,,0,0,1,,,,,0,,,82,0
63594,note_on,,,,,7,0,1,,,,,0,,,65,112
63594,note_on,,,,,7,0,2,,,,,0,,,41,112
63594,note_on,,,,,0,0,1,,,,,0,,,77,112
63594,note_on,,,,,0,0,2,,,,,0,,,53,112
63694,note_on,,,,,0,0,2,,,,,0,,,53,0
63694,note_on,,,,,100,0,2,,,,,0,,,41,0
63694,note_on,,,,,100,0,1,,,,,0,,,65,0
63694,note_on,,,,,0,0,1,,,,,0,,,77,0
63700,note_on,,,,,6,0,1,,,,,0,,,67,112
63700,note_on,,,,,6,0,2,,,,,0,,,43,112
63700,note_on,,,,,0,0,1,,,,,0,,,79,112
63700,note_on,,,,,0,0,2,,,,,0,,,55,112
63800,note_on,,,,,0,0,1,,,,,0,,,79,0
63800,note_on,,,,,0,0,2,,,,,0,,,55,0
63800,note_on,,,,,100,0,1,,,,,0,,,67,0
63800,note_on,,,,,100,0,2,,,,,0,,,43,0
63807,note_on,,,,,0,0,1,,,,,0,,,76,112
63807,note_on,,,,,7,0,2,,,,,0,,,40,112
63807,note_on,,,,,7,0,1,,,,,0,,,64,112
63807,note_on,,,,,0,0,2,,,,,0,,,52,112
63907,note_on,,,,,100,0,1,,,,,0,,,64,0
63907,note_on,,,,,0,0,1,,,,,0,,,76,0
63907,note_on,,,,,0,0,2,,,,,0,,,52,0
63907,note_on,,,,,100,0,2,,,,,0,,,40,0
63914,note_on,,,,,0,0,2,,,,,0,,,55,112
63914,note_on,,,,,7,0,2,,,,,0,,,43,112
63914,note_on,,,,,0,0,1,,,,,0,,,79,112
63914,note_on,,,,,7,0,1,,,,,0,,,67,112
64014,note_on,,,,,100,0,1,,,,,0,,,67,0
64014,note_on,,,,,100,0,2,,,,,0,,,43,0
64014,note_on,,,,,0,0,2,,,,,0,,,55,0
64014,note_on,,,,,0,0,1,,,,,0,,,79,0
64020,note_on,,,,,6,0,2,,,,,0,,,38,112
64020,note_on,,,,,6,0,1,,,,,0,,,62,112
64020,note_on,,,,,0,0,2,,,,,0,,,50,112
64020,note_on,,,,,0,0,1,,,,,0,,,74,112
64120,note_on,,,,,0,0,1,,,,,0,,,74,0
64120,note_on,,,,,100,0,2,,,,,0,,,38,0
64120,note_on,,,,,100,0,1,,,,,0,,,62,0
64120,note_on,,,,,0,0,2,,,,,0,,,50,0
64127,note_on,,,,,7,0,1,,,,,0,,,64,112
64127,note_on,,,,,0,0,2,,,,,0,,,52,112
64127,note_on,,,,,0,0,1,,,,,0,,,76,112
64127,note_on,,,,,7,0,2,,,,,0,,,40,112
64227,note_on,,,,,0,0,2,,,,,0,,,52,0
64227,note_on,,,,,0,0,1,,,,,0,,,76,0
64227,note_on,,,,,100,0,2,,,,,0,,,40,0
64227,note_on,,,,,100,0,1,,,,,0,,,64,0
64234,note_on,,,,,7,0,1,,,,,0,,,61,112
64234,note_on,,,,,0,0,2,,,,,0,,,49,112
64234,note_on,,,,,0,0,1,,,,,0,,,73,112
64234,note_on,,,,,7,0,2,,,,,0,,,37,112
64334,note_on,,,,,100,0,1,,,,,0,,,61,0
64334,note_on,,,,,0,0,2,,,,,0,,,49,0
64334,note_on,,,,,100,0,2,,,,,0,,,37,0
64334,note_on,,,,,0,0,1,,,,,0,,,73,0
64340,note_on,,,,,6,0,2,,,,,0,,,40,112
64340,note_on,,,,,0,0,2,,,,,0,,,52,112
64340,note_on,,,,,0,0,1,,,,,0,,,76,112
64340,note_on,,,,,6,0,1,,,,,0,,,64,112
64440,note_on,,,,,0,0,2,,,,,0,,,52,0
64440,note_on,,,,,100,0,2,,,,,0,,,40,0
64440,note_on,,,,,0,0,1,,,,,0,,,76,0
64440,note_on,,,,,100,0,1,,,,,0,,,64,0
64447,note_on,,,,,0,0,1,,,,,0,,,70,112
64447,note_on,,,,,7,0,2,,,,,0,,,34,112
64447,note_on,,,,,0,0,2,,,,,0,,,46,112
64447,note_on,,,,,7,0,1,,,,,0,,,58,112
64547,note_on,,,,,100,0,2,,,,,0,,,34,0
64547,note_on,,,,,0,0,2,,,,,0,,,46,0
64547,note_on,,,,,0,0,1,,,,,0,,,70,0
64547,note_on,,,,,100,0,1,,,,,0,,,58,0
64554,note_on,,,,,7,0,1,,,,,0,,,61,112
64554,note_on,,,,,7,0,2,,,,,0,,,37,112
64554,note_on,,,,,0,0,2,,,,,0,,,49,112
64554,note_on,,,,,0,0,1,,,,,0,,,73,112
64654,note_on,,,,,100,0,1,,,,,0,,,61,0
64654,note_on,,,,,100,0,2,,,,,0,,,37,0
64654,note_on,,,,,0,0,2,,,,,0,,,49,0
64654,note_on,,,,,0,0,1,,,,,0,,,73,0
64660,note_on,,,,,6,0,2,,,,,0,,,33,112
64660,note_on,,,,,0,0,1,,,,,0,,,57,112
64660,note_on,,,,,0,0,2,,,,,0,,,45,112
64660,note_on,,,,,6,0,1,,,,,0,,,69,112
64760,note_on,,,,,0,0,1,,,,,0,,,57,0
64760,note_on,,,,,100,0,2,,,,,0,,,33,0
64760,note_on,,,,,0,0,2,,,,,0,,,45,0
64760,note_on,,,,,100,0,1,,,,,0,,,69,0
64767,note_on,,,,,7,0,2,,,,,0,,,34,112
64767,note_on,,,,,7,0,1,,,,,0,,,70,112
64767,note_on,,,,,0,0,2,,,,,0,,,46,112
64767,note_on,,,,,0,0,1,,,,,0,,,58,112
64867,note_on,,,,,0,0,1,,,,,0,,,58,0
64867,note_on,,,,,100,0,2,,,,,0,,,34,0
64867,note_on,,,,,100,0,1,,,,,0,,,70,0
64867,note_on,,,,,0,0,2,,,,,0,,,46,0
64874,note_on,,,,,0,0,2,,,,,0,,,44,112
64874,note_on,,,,,7,0,2,,,,,0,,,32,112
64874,note_on,,,,,7,0,1,,,,,0,,,68,112
64874,note_on,,,,,0,0,1,,,,,0,,,56,112
64974,note_on,,,,,100,0,1,,,,,0,,,68,0
64974,note_on,,,,,0,0,2,,,,,0,,,44,0
64974,note_on,,,,,100,0,2,,,,,0,,,32,0
64974,note_on,,,,,0,0,1,,,,,0,,,56,0
64980,note_on,,,,,0,0,2,,,,,0,,,45,112
64980,note_on,,,,,0,0,1,,,,,0,,,57,112
64980,note_on,,,,,6,0,1,,,,,0,,,69,112
64980,note_on,,,,,6,0,2,,,,,0,,,33,112
65080,note_on,,,,,100,0,1,,,,,0,,,69,0
65080,note_on,,,,,100,0,2,,,,,0,,,33,0
65080,note_on,,,,,0,0,2,,,,,0,,,45,0
65080,note_on,,,,,0,0,1,,,,,0,,,57,0
65087,note_on,,,,,7,0,2,,,,,0,,,31,112
65087,note_on,,,,,0,0,2,,,,,0,,,43,112
65087,note_on,,,,,0,0,1,,,,,0,,,55,112
65087,note_on,,,,,7,0,1,,,,,0,,,67,112
65187,note_on,,,,,100,0,1,,,,,0,,,67,0
65187,note_on,,,,,0,0,1,,,,,0,,,55,0
65187,note_on,,,,,0,0,2,,,,,0,,,43,0
65187,note_on,,,,,100,0,2,,,,,0,,,31,0
65194,note_on,,,,,7,0,2,,,,,0,,,33,112
65194,note_on,,,,,7,0,1,,,,,0,,,69,112
65194,note_on,,,,,0,0,1,,,,,0,,,57,112
65194,note_on,,,,,0,0,2,,,,,0,,,45,112
65294,note_on,,,,,100,0,1,,,,,0,,,69,0
65294,note_on,,,,,0,0,2,,,,,0,,,45,0
65294,note_on,,,,,0,0,1,,,,,0,,,57,0
65294,note_on,,,,,100,0,2,,,,,0,,,33,0
65300,note_on,,,,,0,0,2,,,,,0,,,42,112
65300,note_on,,,,,6,0,1,,,,,0,,,66,112
65300,note_on,,,,,6,0,2,,,,,0,,,30,112
65300,note_on,,,,,0,0,1,,,,,0,,,54,112
65400,note_on,,,,,0,0,2,,,,,0,,,42,0
65400,note_on,,,,,100,0,2,,,,,0,,,30,0
65400,note_on,,,,,0,0,1,,,,,0,,,54,0
65400,note_on,,,,,100,0,1,,,,,0,,,66,0
65407,note_on,,,,,7,0,1,,,,,0,,,69,112
65407,note_on,,,,,7,0,2,,,,,0,,,33,112
65407,note_on,,,,,0,0,2,,,,,0,,,45,112
65407,note_on,,,,,0,0,1,,,,,0,,,57,112
65507,note_on,,,,,0,0,1,,,,,0,,,57,0
65507,note_on,,,,,100,0,2,,,,,0,,,33,0
65507,note_on,,,,,0,0,2,,,,,0,,,45,0
65507,note_on,,,,,100,0,1,,,,,0,,,69,0
65514,note_on,,,,,7,0,1,,,,,0,,,65,112
65514,note_on,,,,,0,0,2,,,,,0,,,41,112
65514,note_on,,,,,7,0,2,,,,,0,,,29,112
65514,note_on,,,,,0,0,1,,,,,0,,,53,112
65614,note_on,,,,,100,0,1,,,,,0,,,65,0
65614,note_on,,,,,100,0,2,,,,,0,,,29,0
65614,note_on,,,,,0,0,2,,,,,0,,,41,0
65614,note_on,,,,,0,0,1,,,,,0,,,53,0
65620,set_tempo,,,,,2560,1,0,,545456,,,,,,,
65620,note_on,,,,,0,0,1,,,,,0,,,57,112
65620,note_on,,,,,0,0,2,,,,,0,,,45,112
65620,note_on,,,,,6,0,1,,,,,0,,,69,112
65620,note_on,,,,,6,0,2,,,,,0,,,33,112
65720,note_on,,,,,0,0,1,,,,,0,,,57,0
65720,note_on,,,,,0,0,2,,,,,0,,,45,0
65720,note_on,,,,,100,0,1,,,,,0,,,69,0
65720,note_on,,,,,100,0,2,,,,,0,,,33,0
65727,note_on,,,,,7,0,2,,,,,0,,,28,112
65727,note_on,,,,,7,0,1,,,,,0,,,64,112
65727,note_on,,,,,0,0,2,,,,,0,,,40,112
65727,note_on,,,,,0,0,1,,,,,0,,,52,112
65827,note_on,,,,,0,0,2,,,,,0,,,40,0
65827,note_on,,,,,100,0,1,,,,,0,,,64,0
65827,note_on,,,,,0,0,1,,,,,0,,,52,0
65827,note_on,,,,,100,0,2,,,,,0,,,28,0
65834,note_on,,,,,7,0,2,,,,,0,,,33,112
65834,note_on,,,,,0,0,2,,,,,0,,,45,112
65834,note_on,,,,,7,0,1,,,,,0,,,69,112
65834,note_on,,,,,0,0,1,,,,,0,,,57,112
65934,note_on,,,,,0,0,2,,,,,0,,,45,0
65934,note_on,,,,,0,0,1,,,,,0,,,57,0
65934,note_on,,,,,100,0,1,,,,,0,,,69,0
65934,note_on,,,,,100,0,2,,,,,0,,,33,0
65940,set_tempo,,,,,320,1,0,,599999,,,,,,,
65940,note_on,,,,,0,0,1,,,,,0,,,51,112
65940,note_on,,,,,6,0,2,,,,,0,,,27,112
65940,note_on,,,,,0,0,2,,,,,0,,,39,112
65940,note_on,,,,,6,0,1,,,,,0,,,63,112
66091,note_on,,,,,0,0,2,,,,,0,,,39,0
66091,note_on,,,,,151,0,1,,,,,0,,,63,0
66091,note_on,,,,,0,0,1,,,,,0,,,51,0
66091,note_on,,,,,151,0,2,,,,,0,,,27,0
66100,note_on,,,,,9,0,2,,,,,0,,,33,112
66100,note_on,,,,,0,0,2,,,,,0,,,45,112
66100,note_on,,,,,0,0,1,,,,,0,,,57,112
66100,note_on,,,,,9,0,1,,,,,0,,,69,112
66251,note_on,,,,,0,0,1,,,,,0,,,57,0
66251,note_on,,,,,0,0,2,,,,,0,,,45,0
66251,note_on,,,,,151,0,1,,,,,0,,,69,0
66251,note_on,,,,,151,0,2,,,,,0,,,33,0
66260,note_on,,,,,9,0,2,,,,,0,,,24,112
66260,note_on,,,,,0,0,1,,,,,0,,,48,112
66260,note_on,,,,,0,0,2,,,,,0,,,36,112
66260,note_on,,,,,9,0,1,,,,,0,,,60,112
66260,set_tempo,,,,,320,1,0,,666667,,,,,,,
66411,note_on,,,,,151,0,2,,,,,0,,,24,0
66411,note_on,,,,,151,0,1,,,,,0,,,60,0
66411,note_on,,,,,0,0,2,,,,,0,,,36,0
66411,note_on,,,,,0,0,1,,,,,0,,,48,0
66420,note_on,,,,,0,0,1,,,,,0,,,57,112
66420,note_on,,,,,9,0,2,,,,,0,,,33,112
66420,note_on,,,,,9,0,1,,,,,0,,,69,112
66420,note_on,,,,,0,0,2,,,,,0,,,45,112
66571,note_on,,,,,151,0,2,,,,,0,,,33,0
66571,note_on,,,,,0,0,2,,,,,0,,,45,0
66571,note_on,,,,,0,0,1,,,,,0,,,57,0
66571,note_on,,,,,151,0,1,,,,,0,,,69,0
66580,note_on,,,,,0,0,2,,,,,0,,,37,112
66580,note_on,,,,,9,0,2,,,,,0,,,25,112
66580,note_on,,,,,9,0,1,,,,,0,,,61,112
66580,set_tempo,,,,,320,1,0,,750002,,,,,,,
66580,note_on,,,,,0,0,1,,,,,0,,,49,112
66731,note_on,,,,,0,0,1,,,,,0,,,49,0
66731,note_on,,,,,151,0,2,,,,,0,,,25,0
66731,note_on,,,,,151,0,1,,,,,0,,,61,0
66731,note_on,,,,,0,0,2,,,,,0,,,37,0
66740,note_on,,,,,9,0,2,,,,,0,,,33,112
66740,note_on,,,,,9,0,1,,,,,0,,,69,112
66740,note_on,,,,,0,0,1,,,,,0,,,57,112
66740,note_on,,,,,0,0,2,,,,,0,,,45,112
66891,note_on,,,,,0,0,2,,,,,0,,,45,0
66891,note_on,,,,,151,0,1,,,,,0,,,69,0
66891,note_on,,,,,0,0,1,,,,,0,,,57,0
66891,note_on,,,,,151,0,2,,,,,0,,,33,0
66900,note_on,,,,,0,0,1,,,,,0,,,86,112
66900,note_on,,,,,0,0,1,,,,,0,,,77,112
66900,note_on,,,,,0,0,2,,,,,0,,,50,112
66900,note_on,,,,,0,0,2,,,,,0,,,45,112
66900,set_tempo,,,,,320,1,0,,400000,,,,,,,
66900,note_on,,,,,9,0,2,,,,,0,,,38,112
66900,note_on,,,,,9,0,1,,,,,0,,,74,112
66902,control_change,,,,,2,0,2,,,64,127,0,,,,
67051,note_on,,,,,149,0,2,,,,,0,,,38,0
67051,note_on,,,,,0,0,2,,,,,0,,,45,0
67051,note_on,,,,,0,0,2,,,,,0,,,50,0
67060,note_on,,,,,9,0,2,,,,,0,,,52,112
67060,note_on,,,,,0,0,2,,,,,0,,,56,112
67211,note_on,,,,,151,0,2,,,,,0,,,52,0
67211,note_on,,,,,0,0,2,,,,,0,,,56,0
67215,note_on,,,,,0,0,1,,,,,0,,,86,0
67215,note_on,,,,,0,0,1,,,,,0,,,77,0
67215,note_on,,,,,315,0,1,,,,,0,,,74,0
67220,note_on,,,,,0,0,2,,,,,0,,,57,112
67220,note_on,,,,,9,0,2,,,,,0,,,53,112
67371,note_on,,,,,151,0,2,,,,,0,,,53,0
67371,note_on,,,,,0,0,2,,,,,0,,,57,0
67380,note_on,,,,,0,0,2,,,,,0,,,64,112
67380,note_on,,,,,9,0,2,,,,,0,,,61,112
67531,note_on,,,,,0,0,2,,,,,0,,,64,0
67531,note_on,,,,,151,0,2,,,,,0,,,61,0
67540,note_on,,,,,0,0,2,,,,,0,,,65,112
67540,note_on,,,,,9,0,2,,,,,0,,,62,112
67691,note_on,,,,,151,0,2,,,,,0,,,62,0
67691,note_on,,,,,0,0,2,,,,,0,,,65,0
67700,note_on,,,,,9,0,2,,,,,0,,,38,112
67860,note_on,,,,,0,0,2,,,,,0,,,50,112
67860,note_on,,,,,645,0,1,,,,,0,,,74,112
67860,note_on,,,,,160,0,2,,,,,0,,,45,112
67860,note_on,,,,,0,0,1,,,,,0,,,86,112
67860,note_on,,,,,0,0,1,,,,,0,,,77,112
67861,control_change,,,,,1,0,2,,,64,0,0,,,,
67862,control_change,,,,,1,0,2,,,64,127,0,,,,
67911,note_on,,,,,0,0,2,,,,,0,,,50,0
67911,note_on,,,,,0,0,2,,,,,0,,,45,0
67911,note_on,,,,,49,0,2,,,,,0,,,38,0
68017,note_on,,,,,157,0,1,,,,,0,,,74,0
68017,note_on,,,,,0,0,1,,,,,0,,,86,0
68017,note_on,,,,,0,0,1,,,,,0,,,77,0
68020,note_on,,,,,0,0,2,,,,,0,,,56,112
68020,note_on,,,,,109,0,2,,,,,0,,,52,112
68171,note_on,,,,,0,0,2,,,,,0,,,56,0
68171,note_on,,,,,151,0,2,,,,,0,,,52,0
68180,note_on,,,,,9,0,2,,,,,0,,,53,112
68180,note_on,,,,,0,0,2,,,,,0,,,57,112
68331,note_on,,,,,0,0,2,,,,,0,,,57,0
68331,note_on,,,,,151,0,2,,,,,0,,,53,0
68340,note_on,,,,,9,0,2,,,,,0,,,61,112
68340,note_on,,,,,0,0,2,,,,,0,,,64,112
68491,note_on,,,,,0,0,2,,,,,0,,,64,0
68491,note_on,,,,,151,0,2,,,,,0,,,61,0
68500,note_on,,,,,0,0,2,,,,,0,,,65,112
68500,note_on,,,,,9,0,2,,,,,0,,,62,112
68651,note_on,,,,,0,0,2,,,,,0,,,65,0
68651,note_on,,,,,151,0,2,,,,,0,,,62,0
68660,note_on,,,,,9,0,2,,,,,0,,,38,112
68700,note_on,,,,,0,0,1,,,,,0,,,84,112
68700,note_on,,,,,683,0,1,,,,,0,,,72,112
68819,note_on,,,,,0,0,1,,,,,0,,,84,0
68819,note_on,,,,,119,0,1,,,,,0,,,72,0
68820,note_on,,,,,0,0,1,,,,,0,,,82,112
68820,note_on,,,,,0,0,1,,,,,0,,,76,112
68820,note_on,,,,,160,0,2,,,,,0,,,43,112
68820,note_on,,,,,0,0,2,,,,,0,,,50,112
68820,note_on,,,,,1,0,1,,,,,0,,,70,112
68821,control_change,,,,,1,0,2,,,64,0,0,,,,
68822,control_change,,,,,1,0,2,,,64,127,0,,,,
68871,note_on,,,,,49,0,2,,,,,0,,,38,0
68871,note_on,,,,,0,0,2,,,,,0,,,43,0
68871,note_on,,,,,0,0,2,,,,,0,,,50,0
68977,note_on,,,,,0,0,1,,,,,0,,,76,0
68977,note_on,,,,,157,0,1,,,,,0,,,70,0
68977,note_on,,,,,0,0,1,,,,,0,,,82,0
68980,note_on,,,,,0,0,2,,,,,0,,,57,112
68980,note_on,,,,,109,0,2,,,,,0,,,54,112
69131,note_on,,,,,0,0,2,,,,,0,,,57,0
69131,note_on,,,,,151,0,2,,,,,0,,,54,0
69140,note_on,,,,,0,0,2,,,,,0,,,58,112
69140,note_on,,,,,9,0,2,,,,,0,,,55,112
69291,note_on,,,,,151,0,2,,,,,0,,,55,0
69291,note_on,,,,,0,0,2,,,,,0,,,58,0
69300,note_on,,,,,0,0,2,,,,,0,,,66,112
69300,note_on,,,,,9,0,2,,,,,0,,,63,112
69451,note_on,,,,,0,0,2,,,,,0,,,66,0
69451,note_on,,,,,151,0,2,,,,,0,,,63,0
69460,note_on,,,,,9,0,2,,,,,0,,,64,112
69460,note_on,,,,,0,0,2,,,,,0,,,67,112
69611,note_on,,,,,151,0,2,,,,,0,,,64,0
69611,note_on,,,,,0,0,2,,,,,0,,,67,0
69620,note_on,,,,,9,0,2,,,,,0,,,38,112
69780,note_on,,,,,0,0,1,,,,,0,,,82,112
69780,note_on,,,,,0,0,2,,,,,0,,,50,112
69780,note_on,,,,,160,0,2,,,,,0,,,43,112
69780,note_on,,,,,0,0,1,,,,,0,,,76,112
69780,note_on,,,,,803,0,1,,,,,0,,,70,112
69781,control_change,,,,,1,0,2,,,64,0,0,,,,
69782,control_change,,,,,1,0,2,,,64,127,0,,,,
69831,note_on,,,,,0,0,2,,,,,0,,,43,0
69831,note_on,,,,,49,0,2,,,,,0,,,38,0
69831,note_on,,,,,0,0,2,,,,,0,,,50,0
69940,note_on,,,,,109,0,2,,,,,0,,,54,112
69940,note_on,,,,,0,0,2,,,,,0,,,57,112
70091,note_on,,,,,151,0,2,,,,,0,,,54,0
70091,note_on,,,,,0,0,2,,,,,0,,,57,0
70100,note_on,,,,,0,0,2,,,,,0,,,58,112
70100,note_on,,,,,9,0,2,,,,,0,,,55,112
70235,note_on,,,,,455,0,1,,,,,0,,,70,0
70235,note_on,,,,,0,0,1,,,,,0,,,82,0
70235,note_on,,,,,0,0,1,,,,,0,,,76,0
70251,note_on,,,,,151,0,2,,,,,0,,,55,0
70251,note_on,,,,,0,0,2,,,,,0,,,58,0
70260,note_on,,,,,9,0,2,,,,,0,,,63,112
70260,note_on,,,,,0,0,2,,,,,0,,,66,112
70411,note_on,,,,,151,0,2,,,,,0,,,63,0
70411,note_on,,,,,0,0,2,,,,,0,,,66,0
70420,note_on,,,,,9,0,2,,,,,0,,,64,112
70420,note_on,,,,,0,0,2,,,,,0,,,67,112
70571,note_on,,,,,151,0,2,,,,,0,,,64,0
70571,note_on,,,,,0,0,2,,,,,0,,,67,0
70580,note_on,,,,,9,0,2,,,,,0,,,37,112
70620,note_on,,,,,0,0,1,,,,,0,,,82,112
70620,note_on,,,,,385,0,1,,,,,0,,,70,112
70739,note_on,,,,,0,0,1,,,,,0,,,82,0
70739,note_on,,,,,119,0,1,,,,,0,,,70,0
70740,note_on,,,,,0,0,1,,,,,0,,,81,112
70740,note_on,,,,,0,0,1,,,,,0,,,76,112
70740,note_on,,,,,1,0,1,,,,,0,,,69,112
70740,note_on,,,,,0,0,2,,,,,0,,,49,112
70740,note_on,,,,,160,0,2,,,,,0,,,45,112
70741,control_change,,,,,1,0,2,,,64,0,0,,,,
70742,control_change,,,,,1,0,2,,,64,127,0,,,,
70791,note_on,,,,,0,0,2,,,,,0,,,45,0
70791,note_on,,,,,0,0,2,,,,,0,,,49,0
70791,note_on,,,,,49,0,2,,,,,0,,,37,0
70897,note_on,,,,,157,0,1,,,,,0,,,69,0
70897,note_on,,,,,0,0,1,,,,,0,,,81,0
70897,note_on,,,,,0,0,1,,,,,0,,,76,0
70900,note_on,,,,,109,0,2,,,,,0,,,51,112
70900,note_on,,,,,0,0,2,,,,,0,,,54,112
71051,note_on,,,,,151,0,2,,,,,0,,,51,0
71051,note_on,,,,,0,0,2,,,,,0,,,54,0
71060,note_on,,,,,9,0,2,,,,,0,,,52,112
71060,note_on,,,,,0,0,2,,,,,0,,,55,112
71211,note_on,,,,,0,0,2,,,,,0,,,55,0
71211,note_on,,,,,151,0,2,,,,,0,,,52,0
71220,note_on,,,,,0,0,2,,,,,0,,,63,112
71220,note_on,,,,,9,0,2,,,,,0,,,60,112
71371,note_on,,,,,0,0,2,,,,,0,,,63,0
71371,note_on,,,,,151,0,2,,,,,0,,,60,0
71380,note_on,,,,,0,0,2,,,,,0,,,64,112
71380,note_on,,,,,9,0,2,,,,,0,,,61,112
71531,note_on,,,,,0,0,2,,,,,0,,,64,0
71531,note_on,,,,,151,0,2,,,,,0,,,61,0
71540,note_on,,,,,9,0,2,,,,,0,,,33,112
71640,note_on,,,,,0,0,1,,,,,0,,,81,112
71640,note_on,,,,,743,0,1,,,,,0,,,69,112
71640,set_tempo,,,,,4740,1,0,,600000,,,,,,,
71699,note_on,,,,,0,0,1,,,,,0,,,81,0
71699,set_tempo,,,,,59,1,0,,400000,,,,,,,
71699,note_on,,,,,159,0,2,,,,,0,,,33,0
71699,note_on,,,,,59,0,1,,,,,0,,,69,0
71700,note_on,,,,,0,0,1,,,,,0,,,79,112
71700,note_on,,,,,0,0,1,,,,,0,,,88,112
71700,note_on,,,,,1,0,1,,,,,0,,,76,112
71700,note_on,,,,,1,0,2,,,,,0,,,37,112
71700,note_on,,,,,0,0,2,,,,,0,,,45,112
71701,control_change,,,,,1,0,2,,,64,0,0,,,,
71702,control_change,,,,,1,0,2,,,64,127,0,,,,
71751,note_on,,,,,49,0,2,,,,,0,,,37,0
71751,note_on,,,,,0,0,2,,,,,0,,,45,0
71857,note_on,,,,,157,0,1,,,,,0,,,76,0
71857,note_on,,,,,0,0,1,,,,,0,,,79,0
71857,note_on,,,,,0,0,1,,,,,0,,,88,0
71860,note_on,,,,,109,0,2,,,,,0,,,51,112
71860,note_on,,,,,0,0,2,,,,,0,,,54,112
72011,note_on,,,,,0,0,2,,,,,0,,,54,0
72011,note_on,,,,,151,0,2,,,,,0,,,51,0
72020,note_on,,,,,0,0,2,,,,,0,,,55,112
72020,note_on,,,,,9,0,2,,,,,0,,,52,112
72171,note_on,,,,,0,0,2,,,,,0,,,55,0
72171,note_on,,,,,151,0,2,,,,,0,,,52,0
72180,note_on,,,,,0,0,2,,,,,0,,,63,112
72180,note_on,,,,,9,0,2,,,,,0,,,60,112
72331,note_on,,,,,151,0,2,,,,,0,,,60,0
72331,note_on,,,,,0,0,2,,,,,0,,,63,0
72340,note_on,,,,,0,0,2,,,,,0,,,64,112
72340,note_on,,,,,9,0,2,,,,,0,,,61,112
72491,note_on,,,,,0,0,2,,,,,0,,,64,0
72491,note_on,,,,,151,0,2,,,,,0,,,61,0
72500,note_on,,,,,9,0,2,,,,,0,,,38,112
72600,set_tempo,,,,,901,1,0,,600000,,,,,,,
72600,note_on,,,,,0,0,1,,,,,0,,,79,112
72600,note_on,,,,,743,0,1,,,,,0,,,67,112
72659,note_on,,,,,59,0,1,,,,,0,,,67,0
72659,set_tempo,,,,,59,1,0,,400000,,,,,,,
72659,note_on,,,,,0,0,1,,,,,0,,,79,0
72660,note_on,,,,,0,0,1,,,,,0,,,77,112
72660,note_on,,,,,0,0,1,,,,,0,,,69,112
72660,note_on,,,,,160,0,2,,,,,0,,,45,112
72660,note_on,,,,,0,0,2,,,,,0,,,50,112
72660,note_on,,,,,1,0,1,,,,,0,,,65,112
72661,control_change,,,,,1,0,2,,,64,0,0,,,,
72662,control_change,,,,,1,0,2,,,64,127,0,,,,
72703,note_on,,,,,41,0,2,,,,,0,,,38,0
72711,note_on,,,,,0,0,2,,,,,0,,,50,0
72711,note_on,,,,,8,0,2,,,,,0,,,45,0
72817,note_on,,,,,157,0,1,,,,,0,,,65,0
72817,note_on,,,,,0,0,1,,,,,0,,,69,0
72817,note_on,,,,,0,0,1,,,,,0,,,77,0
72820,note_on,,,,,0,0,2,,,,,0,,,56,112
72820,note_on,,,,,109,0,2,,,,,0,,,52,112
72971,note_on,,,,,151,0,2,,,,,0,,,52,0
72971,note_on,,,,,0,0,2,,,,,0,,,56,0
72980,note_on,,,,,0,0,2,,,,,0,,,57,112
72980,note_on,,,,,9,0,2,,,,,0,,,53,112
73131,note_on,,,,,151,0,2,,,,,0,,,53,0
73131,note_on,,,,,0,0,2,,,,,0,,,57,0
73140,note_on,,,,,9,0,2,,,,,0,,,61,112
73140,note_on,,,,,0,0,2,,,,,0,,,64,112
73291,note_on,,,,,151,0,2,,,,,0,,,61,0
73291,note_on,,,,,0,0,2,,,,,0,,,64,0
73300,note_on,,,,,0,0,2,,,,,0,,,65,112
73300,note_on,,,,,9,0,2,,,,,0,,,62,112
73451,note_on,,,,,151,0,2,,,,,0,,,62,0
73451,note_on,,,,,0,0,2,,,,,0,,,65,0
73460,note_on,,,,,9,0,2,,,,,0,,,38,112
73560,note_on,,,,,743,0,1,,,,,0,,,69,112
73560,note_on,,,,,0,0,1,,,,,0,,,81,112
73560,set_tempo,,,,,901,1,0,,600000,,,,,,,
73619,note_on,,,,,0,0,1,,,,,0,,,81,0
73619,set_tempo,,,,,59,1,0,,400000,,,,,,,
73619,note_on,,,,,59,0,1,,,,,0,,,69,0
73620,note_on,,,,,0,0,1,,,,,0,,,65,112
73620,note_on,,,,,0,0,1,,,,,0,,,74,112
73620,note_on,,,,,160,0,2,,,,,0,,,45,112
73620,note_on,,,,,0,0,2,,,,,0,,,50,112
73620,note_on,,,,,1,0,1,,,,,0,,,62,112
73621,control_change,,,,,1,0,2,,,64,0,0,,,,
73622,control_change,,,,,1,0,2,,,64,127,0,,,,
73671,note_on,,,,,0,0,2,,,,,0,,,45,0
73671,note_on,,,,,49,0,2,,,,,0,,,38,0
73671,note_on,,,,,0,0,2,,,,,0,,,50,0
73777,note_on,,,,,0,0,1,,,,,0,,,65,0
73777,note_on,,,,,157,0,1,,,,,0,,,62,0
73777,note_on,,,,,0,0,1,,,,,0,,,74,0
73780,note_on,,,,,0,0,2,,,,,0,,,56,112
73780,note_on,,,,,109,0,2,,,,,0,,,52,112
73931,note_on,,,,,0,0,2,,,,,0,,,56,0
73931,note_on,,,,,151,0,2,,,,,0,,,52,0
73940,note_on,,,,,0,0,2,,,,,0,,,57,112
73940,note_on,,,,,9,0,2,,,,,0,,,53,112
74091,note_on,,,,,151,0,2,,,,,0,,,53,0
74091,note_on,,,,,0,0,2,,,,,0,,,57,0
74100,note_on,,,,,9,0,2,,,,,0,,,61,112
74100,note_on,,,,,0,0,2,,,,,0,,,64,112
74251,note_on,,,,,151,0,2,,,,,0,,,61,0
74251,note_on,,,,,0,0,2,,,,,0,,,64,0
74260,note_on,,,,,0,0,2,,,,,0,,,65,112
74260,note_on,,,,,9,0,2,,,,,0,,,62,112
74411,note_on,,,,,0,0,2,,,,,0,,,65,0
74411,note_on,,,,,151,0,2,,,,,0,,,62,0
74420,note_on,,,,,9,0,2,,,,,0,,,36,112
74571,note_on,,,,,151,0,2,,,,,0,,,36,0
74580,note_on,,,,,0,0,1,,,,,0,,,76,112
74580,note_on,,,,,803,0,1,,,,,0,,,72,112
74580,note_on,,,,,0,0,2,,,,,0,,,48,112
74580,note_on,,,,,0,0,2,,,,,0,,,43,112
74580,note_on,,,,,9,0,2,,,,,0,,,36,112
74580,note_on,,,,,0,0,1,,,,,0,,,84,112
74581,control_change,,,,,1,0,2,,,64,0,0,,,,
74582,control_change,,,,,1,0,2,,,64,127,0,,,,
74731,note_on,,,,,149,0,2,,,,,0,,,36,0
74731,note_on,,,,,0,0,2,,,,,0,,,43,0
74731,note_on,,,,,0,0,2,,,,,0,,,48,0
74740,note_on,,,,,0,0,2,,,,,0,,,54,112
74740,note_on,,,,,9,0,2,,,,,0,,,51,112
74891,note_on,,,,,151,0,2,,,,,0,,,51,0
74891,note_on,,,,,0,0,2,,,,,0,,,54,0
74900,note_on,,,,,9,0,2,,,,,0,,,52,112
74900,note_on,,,,,0,0,2,,,,,0,,,55,112
75035,note_on,,,,,0,0,1,,,,,0,,,84,0
75035,note_on,,,,,0,0,1,,,,,0,,,76,0
75035,note_on,,,,,455,0,1,,,,,0,,,72,0
75051,note_on,,,,,151,0,2,,,,,0,,,52,0
75051,note_on,,,,,0,0,2,,,,,0,,,55,0
75060,note_on,,,,,0,0,2,,,,,0,,,63,112
75060,note_on,,,,,9,0,2,,,,,0,,,59,112
75211,note_on,,,,,151,0,2,,,,,0,,,59,0
75211,note_on,,,,,0,0,2,,,,,0,,,63,0
75220,note_on,,,,,9,0,2,,,,,0,,,60,112
75220,note_on,,,,,0,0,2,,,,,0,,,64,112
75371,note_on,,,,,151,0,2,,,,,0,,,60,0
75371,note_on,,,,,0,0,2,,,,,0,,,64,0
75380,note_on,,,,,9,0,2,,,,,0,,,40,112
75540,note_on,,,,,505,0,1,,,,,0,,,72,112
75540,note_on,,,,,160,0,2,,,,,0,,,48,112
75540,note_on,,,,,0,0,1,,,,,0,,,84,112
75540,note_on,,,,,0,0,1,,,,,0,,,79,112
75540,note_on,,,,,0,0,2,,,,,0,,,52,112
75541,control_change,,,,,1,0,2,,,64,0,0,,,,
75542,control_change,,,,,1,0,2,,,64,127,0,,,,
75683,note_on,,,,,141,0,2,,,,,0,,,40,0
75691,note_on,,,,,8,0,2,,,,,0,,,48,0
75691,note_on,,,,,0,0,2,,,,,0,,,52,0
75700,note_on,,,,,0,0,2,,,,,0,,,59,112
75700,note_on,,,,,9,0,2,,,,,0,,,54,112
75851,note_on,,,,,151,0,2,,,,,0,,,54,0
75851,note_on,,,,,0,0,2,,,,,0,,,59,0
75860,note_on,,,,,9,0,2,,,,,0,,,55,112
75860,note_on,,,,,0,0,2,,,,,0,,,60,112
75995,note_on,,,,,455,0,1,,,,,0,,,72,0
75995,note_on,,,,,0,0,1,,,,,0,,,79,0
75995,note_on,,,,,0,0,1,,,,,0,,,84,0
76011,note_on,,,,,151,0,2,,,,,0,,,55,0
76011,note_on,,,,,0,0,2,,,,,0,,,60,0
76020,note_on,,,,,0,0,2,,,,,0,,,66,112
76020,note_on,,,,,9,0,2,,,,,0,,,63,112
76171,note_on,,,,,0,0,2,,,,,0,,,66,0
76171,note_on,,,,,151,0,2,,,,,0,,,63,0
76180,note_on,,,,,9,0,2,,,,,0,,,64,112
76180,note_on,,,,,0,0,2,,,,,0,,,67,112
76331,note_on,,,,,151,0,2,,,,,0,,,64,0
76331,note_on,,,,,0,0,2,,,,,0,,,67,0
76340,note_on,,,,,9,0,2,,,,,0,,,41,112
76440,set_tempo,,,,,2821,1,0,,600000,,,,,,,
76440,note_on,,,,,0,0,1,,,,,0,,,82,112
76440,note_on,,,,,445,0,1,,,,,0,,,70,112
76499,note_on,,,,,59,0,1,,,,,0,,,70,0
76499,note_on,,,,,0,0,1,,,,,0,,,82,0
76499,set_tempo,,,,,59,1,0,,400000,,,,,,,
76500,note_on,,,,,1,0,1,,,,,0,,,68,112
76500,note_on,,,,,160,0,2,,,,,0,,,48,112
76500,note_on,,,,,0,0,1,,,,,0,,,80,112
76500,note_on,,,,,0,0,1,,,,,0,,,72,112
76500,note_on,,,,,0,0,2,,,,,0,,,53,112
76501,control_change,,,,,1,0,2,,,64,0,0,,,,
76502,control_change,,,,,1,0,2,,,64,127,0,,,,
76643,note_on,,,,,141,0,2,,,,,0,,,41,0
76651,note_on,,,,,0,0,2,,,,,0,,,53,0
76651,note_on,,,,,8,0,2,,,,,0,,,48,0
76657,note_on,,,,,0,0,1,,,,,0,,,72,0
76657,note_on,,,,,157,0,1,,,,,0,,,68,0
76657,note_on,,,,,0,0,1,,,,,0,,,80,0
76660,note_on,,,,,9,0,2,,,,,0,,,55,112
76660,note_on,,,,,0,0,2,,,,,0,,,59,112
76811,note_on,,,,,0,0,2,,,,,0,,,59,0
76811,note_on,,,,,151,0,2,,,,,0,,,55,0
76820,note_on,,,,,0,0,2,,,,,0,,,60,112
76820,note_on,,,,,9,0,2,,,,,0,,,56,112
76971,note_on,,,,,0,0,2,,,,,0,,,60,0
76971,note_on,,,,,151,0,2,,,,,0,,,56,0
76980,note_on,,,,,0,0,2,,,,,0,,,67,112
76980,note_on,,,,,9,0,2,,,,,0,,,64,112
77131,note_on,,,,,0,0,2,,,,,0,,,67,0
77131,note_on,,,,,151,0,2,,,,,0,,,64,0
77140,note_on,,,,,0,0,2,,,,,0,,,68,112
77140,note_on,,,,,9,0,2,,,,,0,,,65,112
77291,note_on,,,,,0,0,2,,,,,0,,,68,0
77291,note_on,,,,,151,0,2,,,,,0,,,65,0
77300,note_on,,,,,9,0,2,,,,,0,,,41,112
77400,note_on,,,,,743,0,1,,,,,0,,,72,112
77400,note_on,,,,,0,0,1,,,,,0,,,84,112
77400,set_tempo,,,,,901,1,0,,600000,,,,,,,
77459,note_on,,,,,0,0,1,,,,,0,,,84,0
77459,set_tempo,,,,,59,1,0,,400000,,,,,,,
77459,note_on,,,,,59,0,1,,,,,0,,,72,0
77460,note_on,,,,,0,0,1,,,,,0,,,77,112
77460,note_on,,,,,0,0,1,,,,,0,,,68,112
77460,note_on,,,,,1,0,1,,,,,0,,,65,112
77460,note_on,,,,,0,0,2,,,,,0,,,53,112
77460,note_on,,,,,160,0,2,,,,,0,,,48,112
77461,control_change,,,,,1,0,2,,,64,0,0,,,,
77462,control_change,,,,,1,0,2,,,64,127,0,,,,
77603,note_on,,,,,141,0,2,,,,,0,,,41,0
77611,note_on,,,,,0,0,2,,,,,0,,,53,0
77611,note_on,,,,,8,0,2,,,,,0,,,48,0
77617,note_on,,,,,0,0,1,,,,,0,,,68,0
77617,note_on,,,,,157,0,1,,,,,0,,,65,0
77617,note_on,,,,,0,0,1,,,,,0,,,77,0
77620,note_on,,,,,9,0,2,,,,,0,,,55,112
77620,note_on,,,,,0,0,2,,,,,0,,,59,112
77771,note_on,,,,,151,0,2,,,,,0,,,55,0
77771,note_on,,,,,0,0,2,,,,,0,,,59,0
77780,note_on,,,,,0,0,2,,,,,0,,,60,112
77780,note_on,,,,,9,0,2,,,,,0,,,56,112
77931,note_on,,,,,151,0,2,,,,,0,,,56,0
77931,note_on,,,,,0,0,2,,,,,0,,,60,0
77940,note_on,,,,,9,0,2,,,,,0,,,64,112
77940,note_on,,,,,0,0,2,,,,,0,,,67,112
78091,note_on,,,,,0,0,2,,,,,0,,,67,0
78091,note_on,,,,,151,0,2,,,,,0,,,64,0
78100,note_on,,,,,9,0,2,,,,,0,,,65,112
78100,note_on,,,,,0,0,2,,,,,0,,,68,112
78251,note_on,,,,,0,0,2,,,,,0,,,68,0
78251,note_on,,,,,151,0,2,,,,,0,,,65,0
78260,note_on,,,,,9,0,2,,,,,0,,,39,112
78420,note_on,,,,,0,0,1,,,,,0,,,87,112
78420,note_on,,,,,803,0,1,,,,,0,,,75,112
78420,note_on,,,,,160,0,2,,,,,0,,,46,112
78420,note_on,,,,,0,0,2,,,,,0,,,51,112
78420,note_on,,,,,0,0,1,,,,,0,,,79,112
78421,control_change,,,,,1,0,2,,,64,0,0,,,,
78422,control_change,,,,,1,0,2,,,64,127,0,,,,
78563,note_on,,,,,141,0,2,,,,,0,,,39,0
78571,note_on,,,,,0,0,2,,,,,0,,,51,0
78571,note_on,,,,,8,0,2,,,,,0,,,46,0
78580,note_on,,,,,0,0,2,,,,,0,,,57,112
78580,note_on,,,,,9,0,2,,,,,0,,,54,112
78731,note_on,,,,,151,0,2,,,,,0,,,54,0
78731,note_on,,,,,0,0,2,,,,,0,,,57,0
78740,note_on,,,,,0,0,2,,,,,0,,,58,112
78740,note_on,,,,,9,0,2,,,,,0,,,55,112
78875,note_on,,,,,0,0,1,,,,,0,,,87,0
78875,note_on,,,,,0,0,1,,,,,0,,,79,0
78875,note_on,,,,,455,0,1,,,,,0,,,75,0
78891,note_on,,,,,0,0,2,,,,,0,,,58,0
78891,note_on,,,,,151,0,2,,,,,0,,,55,0
78900,note_on,,,,,0,0,2,,,,,0,,,66,112
78900,note_on,,,,,9,0,2,,,,,0,,,62,112
79051,note_on,,,,,151,0,2,,,,,0,,,62,0
79051,note_on,,,,,0,0,2,,,,,0,,,66,0
79060,note_on,,,,,9,0,2,,,,,0,,,63,112
79060,note_on,,,,,0,0,2,,,,,0,,,67,112
79211,note_on,,,,,0,0,2,,,,,0,,,67,0
79211,note_on,,,,,151,0,2,,,,,0,,,63,0
79220,note_on,,,,,9,0,2,,,,,0,,,43,112
79380,note_on,,,,,0,0,2,,,,,0,,,55,112
79380,note_on,,,,,160,0,2,,,,,0,,,51,112
79380,note_on,,,,,0,0,1,,,,,0,,,87,112
79380,note_on,,,,,0,0,1,,,,,0,,,82,112
79380,note_on,,,,,505,0,1,,,,,0,,,75,112
79381,control_change,,,,,1,0,2,,,64,0,0,,,,
79382,control_change,,,,,1,0,2,,,64,127,0,,,,
79523,note_on,,,,,141,0,2,,,,,0,,,43,0
79531,note_on,,,,,8,0,2,,,,,0,,,51,0
79531,note_on,,,,,0,0,2,,,,,0,,,55,0
79540,note_on,,,,,9,0,2,,,,,0,,,57,112
79540,note_on,,,,,0,0,2,,,,,0,,,62,112
79691,note_on,,,,,151,0,2,,,,,0,,,57,0
79691,note_on,,,,,0,0,2,,,,,0,,,62,0
79700,note_on,,,,,0,0,2,,,,,0,,,63,112
79700,note_on,,,,,9,0,2,,,,,0,,,58,112
79835,note_on,,,,,0,0,1,,,,,0,,,82,0
79835,note_on,,,,,0,0,1,,,,,0,,,87,0
79835,note_on,,,,,455,0,1,,,,,0,,,75,0
79851,note_on,,,,,151,0,2,,,,,0,,,58,0
79851,note_on,,,,,0,0,2,,,,,0,,,63,0
79860,note_on,,,,,9,0,2,,,,,0,,,66,112
79860,note_on,,,,,0,0,2,,,,,0,,,69,112
80011,note_on,,,,,151,0,2,,,,,0,,,66,0
80011,note_on,,,,,0,0,2,,,,,0,,,69,0
80020,note_on,,,,,9,0,2,,,,,0,,,67,112
80020,note_on,,,,,0,0,2,,,,,0,,,70,112
80171,note_on,,,,,151,0,2,,,,,0,,,67,0
80171,note_on,,,,,0,0,2,,,,,0,,,70,0
80180,note_on,,,,,9,0,2,,,,,0,,,44,112
80280,note_on,,,,,445,0,1,,,,,0,,,73,112
80280,note_on,,,,,0,0,1,,,,,0,,,85,112
80280,set_tempo,,,,,2821,1,0,,600000,,,,,,,
80339,note_on,,,,,59,0,1,,,,,0,,,73,0
80339,set_tempo,,,,,59,1,0,,400000,,,,,,,
80339,note_on,,,,,0,0,1,,,,,0,,,85,0
80340,note_on,,,,,0,0,2,,,,,0,,,56,112
80340,note_on,,,,,160,0,2,,,,,0,,,51,112
80340,note_on,,,,,0,0,1,,,,,0,,,80,112
80340,note_on,,,,,1,0,1,,,,,0,,,72,112
80340,note_on,,,,,0,0,1,,,,,0,,,84,112
80341,control_change,,,,,1,0,2,,,64,0,0,,,,
80342,control_change,,,,,1,0,2,,,64,127,0,,,,
80483,note_on,,,,,141,0,2,,,,,0,,,44,0
80491,note_on,,,,,8,0,2,,,,,0,,,51,0
80491,note_on,,,,,0,0,2,,,,,0,,,56,0
80497,note_on,,,,,0,0,1,,,,,0,,,84,0
80497,note_on,,,,,0,0,1,,,,,0,,,80,0
80497,note_on,,,,,157,0,1,,,,,0,,,72,0
80500,note_on,,,,,9,0,2,,,,,0,,,59,112
80500,note_on,,,,,0,0,2,,,,,0,,,62,112
80651,note_on,,,,,151,0,2,,,,,0,,,59,0
80651,note_on,,,,,0,0,2,,,,,0,,,62,0
80660,note_on,,,,,0,0,2,,,,,0,,,63,112
80660,note_on,,,,,9,0,2,,,,,0,,,60,112
80811,note_on,,,,,0,0,2,,,,,0,,,63,0
80811,note_on,,,,,151,0,2,,,,,0,,,60,0
80820,note_on,,,,,0,0,2,,,,,0,,,71,112
80820,note_on,,,,,9,0,2,,,,,0,,,67,112
80971,note_on,,,,,0,0,2,,,,,0,,,71,0
80971,note_on,,,,,151,0,2,,,,,0,,,67,0
80980,note_on,,,,,9,0,2,,,,,0,,,68,112
80980,note_on,,,,,0,0,2,,,,,0,,,72,112
81131,note_on,,,,,0,0,2,,,,,0,,,72,0
81131,note_on,,,,,151,0,2,,,,,0,,,68,0
81140,note_on,,,,,9,0,2,,,,,0,,,44,112
81240,set_tempo,,,,,901,1,0,,600000,,,,,,,
81240,note_on,,,,,743,0,1,,,,,0,,,75,112
81240,note_on,,,,,0,0,1,,,,,0,,,87,112
81299,set_tempo,,,,,59,1,0,,400000,,,,,,,
81299,note_on,,,,,0,0,1,,,,,0,,,87,0
81299,note_on,,,,,59,0,1,,,,,0,,,75,0
81300,note_on,,,,,0,0,2,,,,,0,,,56,112
81300,note_on,,,,,0,0,1,,,,,0,,,72,112
81300,note_on,,,,,1,0,1,,,,,0,,,68,112
81300,note_on,,,,,0,0,1,,,,,0,,,80,112
81300,note_on,,,,,160,0,2,,,,,0,,,51,112
81301,control_change,,,,,1,0,2,,,64,0,0,,,,
81302,control_change,,,,,1,0,2,,,64,127,0,,,,
81443,note_on,,,,,141,0,2,,,,,0,,,44,0
81451,note_on,,,,,8,0,2,,,,,0,,,51,0
81451,note_on,,,,,0,0,2,,,,,0,,,56,0
81457,note_on,,,,,0,0,1,,,,,0,,,80,0
81457,note_on,,,,,0,0,1,,,,,0,,,72,0
81457,note_on,,,,,157,0,1,,,,,0,,,68,0
81460,note_on,,,,,9,0,2,,,,,0,,,59,112
81460,note_on,,,,,0,0,2,,,,,0,,,62,112
81611,note_on,,,,,0,0,2,,,,,0,,,62,0
81611,note_on,,,,,151,0,2,,,,,0,,,59,0
81620,note_on,,,,,9,0,2,,,,,0,,,63,112
81620,note_on,,,,,0,0,2,,,,,0,,,67,112
81771,note_on,,,,,151,0,2,,,,,0,,,63,0
81771,note_on,,,,,0,0,2,,,,,0,,,67,0
81780,note_on,,,,,9,0,2,,,,,0,,,67,112
81780,note_on,,,,,0,0,2,,,,,0,,,71,112
81931,note_on,,,,,0,0,2,,,,,0,,,71,0
81931,note_on,,,,,151,0,2,,,,,0,,,67,0
81940,note_on,,,,,9,0,2,,,,,0,,,68,112
81940,note_on,,,,,0,0,2,,,,,0,,,72,112
82091,note_on,,,,,0,0,2,,,,,0,,,72,0
82091,note_on,,,,,151,0,2,,,,,0,,,68,0
82100,note_on,,,,,9,0,2,,,,,0,,,44,112
82260,note_on,,,,,0,0,2,,,,,0,,,56,106
82260,note_on,,,,,803,0,1,,,,,0,,,77,106
82260,note_on,,,,,160,0,2,,,,,0,,,51,106
82260,note_on,,,,,0,0,1,,,,,0,,,83,106
82260,note_on,,,,,0,0,1,,,,,0,,,89,106
82261,control_change,,,,,1,0,2,,,64,0,0,,,,
82262,control_change,,,,,1,0,2,,,64,127,0,,,,
82403,note_on,,,,,141,0,2,,,,,0,,,44,0
82411,note_on,,,,,0,0,2,,,,,0,,,56,0
82411,note_on,,,,,8,0,2,,,,,0,,,51,0
82417,note_on,,,,,157,0,1,,,,,0,,,77,0
82417,note_on,,,,,0,0,1,,,,,0,,,89,0
82417,note_on,,,,,0,0,1,,,,,0,,,83,0
82420,note_on,,,,,0,0,2,,,,,0,,,64,106
82420,note_on,,,,,9,0,2,,,,,0,,,61,106
82571,note_on,,,,,151,0,2,,,,,0,,,61,0
82571,note_on,,,,,0,0,2,,,,,0,,,64,0
82580,note_on,,,,,9,0,2,,,,,0,,,62,106
82580,note_on,,,,,0,0,2,,,,,0,,,65,106
82731,note_on,,,,,0,0,2,,,,,0,,,65,0
82731,note_on,,,,,151,0,2,,,,,0,,,62,0
82740,note_on,,,,,9,0,2,,,,,0,,,70,106
82740,note_on,,,,,0,0,2,,,,,0,,,73,106
82891,note_on,,,,,151,0,2,,,,,0,,,70,0
82891,note_on,,,,,0,0,2,,,,,0,,,73,0
82900,note_on,,,,,9,0,2,,,,,0,,,71,106
82900,note_on,,,,,0,0,2,,,,,0,,,74,106
83051,note_on,,,,,151,0,2,,,,,0,,,71,0
83051,note_on,,,,,0,0,2,,,,,0,,,74,0
83060,note_on,,,,,9,0,2,,,,,0,,,44,106
83220,note_on,,,,,0,0,1,,,,,0,,,89,106
83220,note_on,,,,,160,0,2,,,,,0,,,51,106
83220,note_on,,,,,803,0,1,,,,,0,,,77,106
83220,note_on,,,,,0,0,2,,,,,0,,,56,106
83220,note_on,,,,,0,0,1,,,,,0,,,83,106
83221,control_change,,,,,1,0,2,,,64,0,0,,,,
83222,control_change,,,,,1,0,2,,,64,127,0,,,,
83363,note_on,,,,,141,0,2,,,,,0,,,44,0
83371,note_on,,,,,0,0,2,,,,,0,,,56,0
83371,note_on,,,,,8,0,2,,,,,0,,,51,0
83377,note_on,,,,,157,0,1,,,,,0,,,77,0
83377,note_on,,,,,0,0,1,,,,,0,,,83,0
83377,note_on,,,,,0,0,1,,,,,0,,,89,0
83380,note_on,,,,,9,0,2,,,,,0,,,61,106
83380,note_on,,,,,0,0,2,,,,,0,,,64,106
83531,note_on,,,,,0,0,2,,,,,0,,,64,0
83531,note_on,,,,,151,0,2,,,,,0,,,61,0
83540,note_on,,,,,0,0,2,,,,,0,,,70,106
83540,note_on,,,,,9,0,2,,,,,0,,,65,106
83691,note_on,,,,,151,0,2,,,,,0,,,65,0
83691,note_on,,,,,0,0,2,,,,,0,,,70,0
83700,note_on,,,,,9,0,2,,,,,0,,,70,106
83700,note_on,,,,,0,0,2,,,,,0,,,73,106
83851,note_on,,,,,151,0,2,,,,,0,,,70,0
83851,note_on,,,,,0,0,2,,,,,0,,,73,0
83860,note_on,,,,,9,0,2,,,,,0,,,71,106
83860,note_on,,,,,0,0,2,,,,,0,,,74,106
84011,note_on,,,,,0,0,2,,,,,0,,,74,0
84011,note_on,,,,,151,0,2,,,,,0,,,71,0
84020,note_on,,,,,9,0,2,,,,,0,,,44,106
84120,note_on,,,,,743,0,1,,,,,0,,,77,106
84120,note_on,,,,,0,0,1,,,,,0,,,89,106
84120,set_tempo,,,,,2821,1,0,,600000,,,,,,,
84179,set_tempo,,,,,59,1,0,,400000,,,,,,,
84179,note_on,,,,,59,0,1,,,,,0,,,77,0
84179,note_on,,,,,0,0,1,,,,,0,,,89,0
84180,note_on,,,,,160,0,2,,,,,0,,,51,106
84180,note_on,,,,,0,0,2,,,,,0,,,56,106
84180,note_on,,,,,1,0,1,,,,,0,,,80,106
84180,note_on,,,,,0,0,1,,,,,0,,,84,106
84180,note_on,,,,,0,0,1,,,,,0,,,92,106
84181,control_change,,,,,1,0,2,,,64,0,0,,,,
84182,control_change,,,,,1,0,2,,,64,127,0,,,,
84323,note_on,,,,,141,0,2,,,,,0,,,44,0
84331,note_on,,,,,0,0,2,,,,,0,,,56,0
84331,note_on,,,,,8,0,2,,,,,0,,,51,0
84337,note_on,,,,,157,0,1,,,,,0,,,80,0
84337,note_on,,,,,0,0,1,,,,,0,,,92,0
84337,note_on,,,,,0,0,1,,,,,0,,,84,0
84340,note_on,,,,,0,0,2,,,,,0,,,62,106
84340,note_on,,,,,9,0,2,,,,,0,,,59,106
84491,note_on,,,,,0,0,2,,,,,0,,,62,0
84491,note_on,,,,,151,0,2,,,,,0,,,59,0
84500,note_on,,,,,9,0,2,,,,,0,,,60,106
84500,note_on,,,,,0,0,2,,,,,0,,,63,106
84651,note_on,,,,,0,0,2,,,,,0,,,63,0
84651,note_on,,,,,151,0,2,,,,,0,,,60,0
84660,note_on,,,,,9,0,2,,,,,0,,,67,106
84660,note_on,,,,,0,0,2,,,,,0,,,71,106
84811,note_on,,,,,0,0,2,,,,,0,,,71,0
84811,note_on,,,,,151,0,2,,,,,0,,,67,0
84820,note_on,,,,,0,0,2,,,,,0,,,72,106
84820,note_on,,,,,9,0,2,,,,,0,,,68,106
84971,note_on,,,,,151,0,2,,,,,0,,,68,0
84971,note_on,,,,,0,0,2,,,,,0,,,72,0
84980,note_on,,,,,9,0,2,,,,,0,,,44,106
85140,note_on,,,,,0,0,1,,,,,0,,,87,106
85140,note_on,,,,,803,0,1,,,,,0,,,75,106
85140,note_on,,,,,160,0,2,,,,,0,,,48,106
85140,note_on,,,,,0,0,1,,,,,0,,,80,106
85140,note_on,,,,,0,0,2,,,,,0,,,56,106
85141,control_change,,,,,1,0,2,,,64,0,0,,,,
85142,control_change,,,,,1,0,2,,,64,127,0,,,,
85283,note_on,,,,,141,0,2,,,,,0,,,44,0
85291,note_on,,,,,0,0,2,,,,,0,,,56,0
85291,note_on,,,,,8,0,2,,,,,0,,,48,0
85297,note_on,,,,,0,0,1,,,,,0,,,80,0
85297,note_on,,,,,157,0,1,,,,,0,,,75,0
85297,note_on,,,,,0,0,1,,,,,0,,,87,0
85300,note_on,,,,,9,0,2,,,,,0,,,59,106
85300,note_on,,,,,0,0,2,,,,,0,,,62,106
85451,note_on,,,,,151,0,2,,,,,0,,,59,0
85451,note_on,,,,,0,0,2,,,,,0,,,62,0
85460,note_on,,,,,9,0,2,,,,,0,,,60,106
85460,note_on,,,,,0,0,2,,,,,0,,,63,106
85611,note_on,,,,,0,0,2,,,,,0,,,63,0
85611,note_on,,,,,151,0,2,,,,,0,,,60,0
85620,note_on,,,,,0,0,2,,,,,0,,,71,106
85620,note_on,,,,,9,0,2,,,,,0,,,67,106
85771,note_on,,,,,151,0,2,,,,,0,,,67,0
85771,note_on,,,,,0,0,2,,,,,0,,,71,0
85780,note_on,,,,,9,0,2,,,,,0,,,68,106
85780,note_on,,,,,0,0,2,,,,,0,,,72,106
85931,note_on,,,,,151,0,2,,,,,0,,,68,0
85931,note_on,,,,,0,0,2,,,,,0,,,72,0
85940,note_on,,,,,9,0,2,,,,,0,,,44,106
86100,note_on,,,,,0,0,2,,,,,0,,,56,106
86100,note_on,,,,,0,0,1,,,,,0,,,83,106
86100,note_on,,,,,803,0,1,,,,,0,,,77,106
86100,note_on,,,,,0,0,1,,,,,0,,,89,106
86100,note_on,,,,,160,0,2,,,,,0,,,50,106
86101,control_change,,,,,1,0,2,,,64,0,0,,,,
86102,control_change,,,,,1,0,2,,,64,127,0,,,,
86243,note_on,,,,,141,0,2,,,,,0,,,44,0
86251,note_on,,,,,0,0,2,,,,,0,,,56,0
86251,note_on,,,,,8,0,2,,,,,0,,,50,0
86257,note_on,,,,,157,0,1,,,,,0,,,77,0
86257,note_on,,,,,0,0,1,,,,,0,,,83,0
86257,note_on,,,,,0,0,1,,,,,0,,,89,0
86260,note_on,,,,,0,0,2,,,,,0,,,64,106
86260,note_on,,,,,9,0,2,,,,,0,,,61,106
86411,note_on,,,,,151,0,2,,,,,0,,,61,0
86411,note_on,,,,,0,0,2,,,,,0,,,64,0
86420,note_on,,,,,0,0,2,,,,,0,,,65,106
86420,note_on,,,,,9,0,2,,,,,0,,,62,106
86571,note_on,,,,,151,0,2,,,,,0,,,62,0
86571,note_on,,,,,0,0,2,,,,,0,,,65,0
86580,note_on,,,,,9,0,2,,,,,0,,,70,106
86580,note_on,,,,,0,0,2,,,,,0,,,73,106
86731,note_on,,,,,151,0,2,,,,,0,,,70,0
86731,note_on,,,,,0,0,2,,,,,0,,,73,0
86740,note_on,,,,,0,0,2,,,,,0,,,74,106
86740,note_on,,,,,9,0,2,,,,,0,,,71,106
86891,note_on,,,,,0,0,2,,,,,0,,,74,0
86891,note_on,,,,,151,0,2,,,,,0,,,71,0
86900,note_on,,,,,9,0,2,,,,,0,,,44,106
87060,note_on,,,,,0,0,1,,,,,0,,,89,106
87060,note_on,,,,,0,0,1,,,,,0,,,83,106
87060,note_on,,,,,160,0,2,,,,,0,,,50,106
87060,note_on,,,,,803,0,1,,,,,0,,,77,106
87060,note_on,,,,,0,0,2,,,,,0,,,56,106
87061,control_change,,,,,1,0,2,,,64,0,0,,,,
87062,control_change,,,,,1,0,2,,,64,127,0,,,,
87203,note_on,,,,,141,0,2,,,,,0,,,44,0
87211,note_on,,,,,8,0,2,,,,,0,,,50,0
87211,note_on,,,,,0,0,2,,,,,0,,,56,0
87217,note_on,,,,,0,0,1,,,,,0,,,89,0
87217,note_on,,,,,157,0,1,,,,,0,,,77,0
87217,note_on,,,,,0,0,1,,,,,0,,,83,0
87220,note_on,,,,,0,0,2,,,,,0,,,64,106
87220,note_on,,,,,9,0,2,,,,,0,,,61,106
87371,note_on,,,,,0,0,2,,,,,0,,,64,0
87371,note_on,,,,,151,0,2,,,,,0,,,61,0
87380,note_on,,,,,9,0,2,,,,,0,,,62,106
87380,note_on,,,,,0,0,2,,,,,0,,,65,106
87531,note_on,,,,,151,0,2,,,,,0,,,62,0
87531,note_on,,,,,0,0,2,,,,,0,,,65,0
87540,note_on,,,,,9,0,2,,,,,0,,,70,106
87540,note_on,,,,,0,0,2,,,,,0,,,73,106
87691,note_on,,,,,0,0,2,,,,,0,,,73,0
87691,note_on,,,,,151,0,2,,,,,0,,,70,0
87700,note_on,,,,,0,0,2,,,,,0,,,74,106
87700,note_on,,,,,9,0,2,,,,,0,,,71,106
87851,note_on,,,,,0,0,2,,,,,0,,,74,0
87851,note_on,,,,,151,0,2,,,,,0,,,71,0
87860,note_on,,,,,9,0,2,,,,,0,,,44,106
87960,note_on,,,,,0,0,1,,,,,0,,,89,106
87960,set_tempo,,,,,3781,1,0,,600000,,,,,,,
87960,note_on,,,,,743,0,1,,,,,0,,,77,106
88019,set_tempo,,,,,59,1,0,,400000,,,,,,,
88019,note_on,,,,,0,0,1,,,,,0,,,89,0
88019,note_on,,,,,59,0,1,,,,,0,,,77,0
88020,note_on,,,,,0,0,1,,,,,0,,,92,106
88020,note_on,,,,,0,0,2,,,,,0,,,56,106
88020,note_on,,,,,1,0,1,,,,,0,,,80,106
88020,note_on,,,,,160,0,2,,,,,0,,,51,106
88020,note_on,,,,,0,0,1,,,,,0,,,84,106
88021,control_change,,,,,1,0,2,,,64,0,0,,,,
88022,control_change,,,,,1,0,2,,,64,127,0,,,,
88163,note_on,,,,,141,0,2,,,,,0,,,44,0
88171,note_on,,,,,8,0,2,,,,,0,,,51,0
88171,note_on,,,,,0,0,2,,,,,0,,,56,0
88180,note_on,,,,,0,0,2,,,,,0,,,62,106
88180,note_on,,,,,9,0,2,,,,,0,,,59,106
88331,note_on,,,,,151,0,2,,,,,0,,,59,0
88331,note_on,,,,,0,0,2,,,,,0,,,62,0
88340,note_on,,,,,0,0,2,,,,,0,,,63,106
88340,note_on,,,,,9,0,2,,,,,0,,,60,106
88475,note_on,,,,,455,0,1,,,,,0,,,80,0
88475,note_on,,,,,0,0,1,,,,,0,,,84,0
88475,note_on,,,,,0,0,1,,,,,0,,,92,0
88491,note_on,,,,,151,0,2,,,,,0,,,60,0
88491,note_on,,,,,0,0,2,,,,,0,,,63,0
88500,note_on,,,,,0,0,2,,,,,0,,,71,106
88500,note_on,,,,,9,0,2,,,,,0,,,67,106
88651,note_on,,,,,0,0,2,,,,,0,,,71,0
88651,note_on,,,,,151,0,2,,,,,0,,,67,0
88660,note_on,,,,,0,0,2,,,,,0,,,72,106
88660,note_on,,,,,9,0,2,,,,,0,,,68,106
88811,note_on,,,,,0,0,2,,,,,0,,,72,0
88811,note_on,,,,,151,0,2,,,,,0,,,68,0
88820,note_on,,,,,9,0,2,,,,,0,,,44,106
88980,note_on,,,,,0,0,1,,,,,0,,,92,106
88980,note_on,,,,,160,0,2,,,,,0,,,56,106
88980,note_on,,,,,505,0,1,,,,,0,,,80,106
88981,control_change,,,,,1,0,2,,,64,0,0,,,,
88982,control_change,,,,,1,0,2,,,64,127,0,,,,
89123,note_on,,,,,141,0,2,,,,,0,,,44,0
89131,note_on,,,,,8,0,2,,,,,0,,,56,0
89140,note_on,,,,,0,0,2,,,,,0,,,64,106
89140,note_on,,,,,9,0,2,,,,,0,,,61,106
89291,note_on,,,,,0,0,2,,,,,0,,,64,0
89291,note_on,,,,,151,0,2,,,,,0,,,61,0
89300,note_on,,,,,9,0,2,,,,,0,,,62,106
89300,note_on,,,,,0,0,2,,,,,0,,,65,106
89435,note_on,,,,,0,0,1,,,,,0,,,92,0
89435,note_on,,,,,455,0,1,,,,,0,,,80,0
89451,note_on,,,,,151,0,2,,,,,0,,,62,0
89451,note_on,,,,,0,0,2,,,,,0,,,65,0
89460,note_on,,,,,9,0,2,,,,,0,,,70,106
89460,note_on,,,,,0,0,2,,,,,0,,,73,106
89611,note_on,,,,,151,0,2,,,,,0,,,70,0
89611,note_on,,,,,0,0,2,,,,,0,,,73,0
89620,note_on,,,,,0,0,2,,,,,0,,,74,106
89620,note_on,,,,,9,0,2,,,,,0,,,71,106
89771,note_on,,,,,0,0,2,,,,,0,,,74,0
89771,note_on,,,,,151,0,2,,,,,0,,,71,0
89860,note_on,,,,,89,0,2,,,,,0,,,44,106
89860,note_on,,,,,0,0,2,,,,,0,,,56,106
89880,set_tempo,,,,,1861,1,0,,600000,,,,,,,
89880,note_on,,,,,0,0,1,,,,,0,,,92,106
89880,note_on,,,,,445,0,1,,,,,0,,,80,106
89935,note_on,,,,,0,0,2,,,,,0,,,56,0
89935,note_on,,,,,75,0,2,,,,,0,,,44,0
89939,note_on,,,,,59,0,1,,,,,0,,,80,0
89939,set_tempo,,,,,59,1,0,,400000,,,,,,,
89939,note_on,,,,,0,0,1,,,,,0,,,92,0
89940,note_on,,,,,0,0,1,,,,,0,,,93,112
89940,note_on,,,,,1,0,1,,,,,0,,,81,112
89940,note_on,,,,,5,0,2,,,,,0,,,45,112
89940,note_on,,,,,0,0,2,,,,,0,,,57,112
89941,control_change,,,,,1,0,2,,,64,0,0,,,,
89942,control_change,,,,,1,0,2,,,64,127,0,,,,
90100,note_on,,,,,158,0,2,,,,,0,,,64,112
90100,note_on,,,,,0,0,2,,,,,0,,,68,112
90251,note_on,,,,,151,0,2,,,,,0,,,64,0
90251,note_on,,,,,0,0,2,,,,,0,,,68,0
90260,note_on,,,,,9,0,2,,,,,0,,,65,112
90260,note_on,,,,,0,0,2,,,,,0,,,69,112
90395,note_on,,,,,455,0,1,,,,,0,,,81,0
90395,note_on,,,,,0,0,1,,,,,0,,,93,0
90395,note_on,,,,,135,0,2,,,,,0,,,45,0
90395,note_on,,,,,0,0,2,,,,,0,,,57,0
90411,note_on,,,,,0,0,2,,,,,0,,,69,0
90411,note_on,,,,,16,0,2,,,,,0,,,65,0
90420,note_on,,,,,9,0,2,,,,,0,,,73,112
90420,note_on,,,,,0,0,2,,,,,0,,,76,112
90571,note_on,,,,,151,0,2,,,,,0,,,73,0
90571,note_on,,,,,0,0,2,,,,,0,,,76,0
90580,note_on,,,,,0,0,2,,,,,0,,,77,112
90580,note_on,,,,,9,0,2,,,,,0,,,74,112
90731,note_on,,,,,151,0,2,,,,,0,,,74,0
90731,note_on,,,,,0,0,2,,,,,0,,,77,0
90740,note_on,,,,,9,0,2,,,,,0,,,41,112
90900,note_on,,,,,0,0,1,,,,,0,,,89,112
90900,note_on,,,,,505,0,1,,,,,0,,,77,112
90900,note_on,,,,,160,0,2,,,,,0,,,53,112
90901,control_change,,,,,1,0,2,,,64,0,0,,,,
90902,control_change,,,,,1,0,2,,,64,127,0,,,,
91043,note_on,,,,,141,0,2,,,,,0,,,41,0
91051,note_on,,,,,8,0,2,,,,,0,,,53,0
91060,note_on,,,,,0,0,2,,,,,0,,,64,112
91060,note_on,,,,,9,0,2,,,,,0,,,61,112
91211,note_on,,,,,0,0,2,,,,,0,,,64,0
91211,note_on,,,,,151,0,2,,,,,0,,,61,0
91220,note_on,,,,,9,0,2,,,,,0,,,62,112
91220,note_on,,,,,0,0,2,,,,,0,,,65,112
91355,note_on,,,,,455,0,1,,,,,0,,,77,0
91355,note_on,,,,,0,0,1,,,,,0,,,89,0
91371,note_on,,,,,0,0,2,,,,,0,,,65,0
91371,note_on,,,,,151,0,2,,,,,0,,,62,0
91380,note_on,,,,,9,0,2,,,,,0,,,68,112
91380,note_on,,,,,0,0,2,,,,,0,,,73,112
91531,note_on,,,,,151,0,2,,,,,0,,,68,0
91531,note_on,,,,,0,0,2,,,,,0,,,73,0
91540,note_on,,,,,0,0,2,,,,,0,,,74,112
91540,note_on,,,,,9,0,2,,,,,0,,,69,112
91691,note_on,,,,,0,0,2,,,,,0,,,74,0
91691,note_on,,,,,151,0,2,,,,,0,,,69,0
91700,note_on,,,,,9,0,2,,,,,0,,,38,112
91860,note_on,,,,,505,0,1,,,,,0,,,74,112
91860,note_on,,,,,0,0,1,,,,,0,,,86,112
91860,note_on,,,,,160,0,2,,,,,0,,,50,112
91861,control_change,,,,,1,0,2,,,64,0,0,,,,
91862,control_change,,,,,1,0,2,,,64,127,0,,,,
92003,note_on,,,,,141,0,2,,,,,0,,,38,0
92011,note_on,,,,,8,0,2,,,,,0,,,50,0
92020,note_on,,,,,0,0,2,,,,,0,,,61,112
92020,note_on,,,,,9,0,2,,,,,0,,,56,112
92171,note_on,,,,,151,0,2,,,,,0,,,56,0
92171,note_on,,,,,0,0,2,,,,,0,,,61,0
92180,note_on,,,,,9,0,2,,,,,0,,,57,112
92180,note_on,,,,,0,0,2,,,,,0,,,62,112
92315,note_on,,,,,0,0,1,,,,,0,,,86,0
92315,note_on,,,,,455,0,1,,,,,0,,,74,0
92331,note_on,,,,,151,0,2,,,,,0,,,57,0
92331,note_on,,,,,0,0,2,,,,,0,,,62,0
92340,note_on,,,,,9,0,2,,,,,0,,,64,112
92340,note_on,,,,,0,0,2,,,,,0,,,68,112
92491,note_on,,,,,151,0,2,,,,,0,,,64,0
92491,note_on,,,,,0,0,2,,,,,0,,,68,0
92500,note_on,,,,,0,0,2,,,,,0,,,69,112
92500,note_on,,,,,9,0,2,,,,,0,,,65,112
92651,note_on,,,,,0,0,2,,,,,0,,,69,0
92651,note_on,,,,,151,0,2,,,,,0,,,65,0
92660,note_on,,,,,9,0,2,,,,,0,,,33,112
92820,note_on,,,,,0,0,1,,,,,0,,,81,112
92820,note_on,,,,,160,0,2,,,,,0,,,45,112
92820,note_on,,,,,505,0,1,,,,,0,,,69,112
92821,control_change,,,,,1,0,2,,,64,0,0,,,,
92822,control_change,,,,,1,0,2,,,64,127,0,,,,
92963,note_on,,,,,141,0,2,,,,,0,,,33,0
92971,note_on,,,,,8,0,2,,,,,0,,,45,0
92980,note_on,,,,,9,0,2,,,,,0,,,52,112
92980,note_on,,,,,0,0,2,,,,,0,,,56,112
93131,note_on,,,,,0,0,2,,,,,0,,,56,0
93131,note_on,,,,,151,0,2,,,,,0,,,52,0
93140,note_on,,,,,9,0,2,,,,,0,,,53,112
93140,note_on,,,,,0,0,2,,,,,0,,,57,112
93275,note_on,,,,,455,0,1,,,,,0,,,69,0
93275,note_on,,,,,0,0,1,,,,,0,,,81,0
93291,note_on,,,,,151,0,2,,,,,0,,,53,0
93291,note_on,,,,,0,0,2,,,,,0,,,57,0
93300,note_on,,,,,0,0,2,,,,,0,,,64,112
93300,note_on,,,,,9,0,2,,,,,0,,,61,112
93451,note_on,,,,,0,0,2,,,,,0,,,64,0
93451,note_on,,,,,151,0,2,,,,,0,,,61,0
93460,note_on,,,,,0,0,2,,,,,0,,,65,112
93460,note_on,,,,,9,0,2,,,,,0,,,62,112
93611,note_on,,,,,0,0,2,,,,,0,,,65,0
93611,note_on,,,,,151,0,2,,,,,0,,,62,0
93620,note_on,,,,,9,0,2,,,,,0,,,34,112
93780,note_on,,,,,505,0,1,,,,,0,,,70,127
93780,note_on,,,,,160,0,2,,,,,0,,,46,127
93780,note_on,,,,,0,0,1,,,,,0,,,82,127
93781,control_change,,,,,1,0,2,,,64,0,0,,,,
93782,control_change,,,,,1,0,2,,,64,127,0,,,,
93878,note_on,,,,,96,0,2,,,,,0,,,34,0
93886,note_on,,,,,8,0,2,,,,,0,,,46,0
93940,note_on,,,,,54,0,2,,,,,0,,,54,112
93940,note_on,,,,,0,0,2,,,,,0,,,57,112
94091,note_on,,,,,0,0,2,,,,,0,,,57,0
94091,note_on,,,,,151,0,2,,,,,0,,,54,0
94100,note_on,,,,,9,0,2,,,,,0,,,55,112
94100,note_on,,,,,0,0,1,,,,,0,,,82,0
94100,note_on,,,,,320,0,1,,,,,0,,,70,0
94100,note_on,,,,,0,0,2,,,,,0,,,58,112
94251,note_on,,,,,151,0,2,,,,,0,,,55,0
94251,note_on,,,,,0,0,2,,,,,0,,,58,0
94260,note_on,,,,,0,0,2,,,,,0,,,68,112
94260,note_on,,,,,9,0,2,,,,,0,,,64,112
94411,note_on,,,,,0,0,2,,,,,0,,,68,0
94411,note_on,,,,,151,0,2,,,,,0,,,64,0
94420,note_on,,,,,9,0,2,,,,,0,,,64,112
94420,note_on,,,,,0,0,2,,,,,0,,,69,112
94571,note_on,,,,,0,0,2,,,,,0,,,69,0
94571,note_on,,,,,151,0,2,,,,,0,,,64,0
94580,note_on,,,,,9,0,2,,,,,0,,,31,112
94740,note_on,,,,,640,0,1,,,,,0,,,67,127
94740,note_on,,,,,0,0,1,,,,,0,,,79,127
94740,note_on,,,,,160,0,2,,,,,0,,,43,127
94741,control_change,,,,,1,0,2,,,64,0,0,,,,
94742,control_change,,,,,1,0,2,,,64,127,0,,,,
94838,note_on,,,,,96,0,2,,,,,0,,,31,0
94846,note_on,,,,,8,0,2,,,,,0,,,43,0
94900,note_on,,,,,0,0,2,,,,,0,,,54,112
94900,note_on,,,,,54,0,2,,,,,0,,,50,112
95051,note_on,,,,,0,0,2,,,,,0,,,54,0
95051,note_on,,,,,151,0,2,,,,,0,,,50,0
95060,note_on,,,,,9,0,2,,,,,0,,,51,112
95060,note_on,,,,,320,0,1,,,,,0,,,67,0
95060,note_on,,,,,0,0,2,,,,,0,,,55,112
95060,note_on,,,,,0,0,1,,,,,0,,,79,0
95211,note_on,,,,,0,0,2,,,,,0,,,55,0
95211,note_on,,,,,151,0,2,,,,,0,,,51,0
95220,note_on,,,,,0,0,2,,,,,0,,,62,112
95220,note_on,,,,,9,0,2,,,,,0,,,57,112
95371,note_on,,,,,0,0,2,,,,,0,,,62,0
95371,note_on,,,,,151,0,2,,,,,0,,,57,0
95380,note_on,,,,,9,0,2,,,,,0,,,58,112
95380,note_on,,,,,0,0,2,,,,,0,,,63,112
95531,note_on,,,,,151,0,2,,,,,0,,,58,0
95531,note_on,,,,,0,0,2,,,,,0,,,63,0
95540,note_on,,,,,9,0,2,,,,,0,,,28,112
95700,note_on,,,,,160,0,2,,,,,0,,,40,127
95700,note_on,,,,,0,0,1,,,,,0,,,76,127
95700,note_on,,,,,640,0,1,,,,,0,,,64,127
95701,control_change,,,,,1,0,2,,,64,0,0,,,,
95702,control_change,,,,,1,0,2,,,64,127,0,,,,
95798,note_on,,,,,96,0,2,,,,,0,,,28,0
95806,note_on,,,,,8,0,2,,,,,0,,,40,0
95860,note_on,,,,,0,0,2,,,,,0,,,49,112
95860,note_on,,,,,54,0,2,,,,,0,,,45,112
96011,note_on,,,,,151,0,2,,,,,0,,,45,0
96011,note_on,,,,,0,0,2,,,,,0,,,49,0
96020,note_on,,,,,0,0,2,,,,,0,,,50,112
96020,note_on,,,,,320,0,1,,,,,0,,,64,0
96020,note_on,,,,,9,0,2,,,,,0,,,46,112
96020,note_on,,,,,0,0,1,,,,,0,,,76,0
96171,note_on,,,,,0,0,2,,,,,0,,,50,0
96171,note_on,,,,,151,0,2,,,,,0,,,46,0
96180,note_on,,,,,9,0,2,,,,,0,,,54,112
96180,note_on,,,,,0,0,2,,,,,0,,,57,112
96331,note_on,,,,,151,0,2,,,,,0,,,54,0
96331,note_on,,,,,0,0,2,,,,,0,,,57,0
96340,note_on,,,,,9,0,2,,,,,0,,,55,112
96340,note_on,,,,,0,0,2,,,,,0,,,58,112
96491,note_on,,,,,151,0,2,,,,,0,,,55,0
96491,note_on,,,,,0,0,2,,,,,0,,,58,0
96500,note_on,,,,,9,0,2,,,,,0,,,33,112
96660,note_on,,,,,160,0,2,,,,,0,,,45,127
96660,note_on,,,,,640,0,1,,,,,0,,,69,127
96660,note_on,,,,,0,0,1,,,,,0,,,81,127
96661,control_change,,,,,1,0,2,,,64,0,0,,,,
96662,control_change,,,,,1,0,2,,,64,127,0,,,,
96758,note_on,,,,,96,0,2,,,,,0,,,33,0
96766,note_on,,,,,8,0,2,,,,,0,,,45,0
96820,note_on,,,,,54,0,2,,,,,0,,,51,112
96820,note_on,,,,,0,0,2,,,,,0,,,54,112
96971,note_on,,,,,151,0,2,,,,,0,,,51,0
96971,note_on,,,,,0,0,2,,,,,0,,,54,0
96980,note_on,,,,,0,0,2,,,,,0,,,55,112
96980,note_on,,,,,9,0,2,,,,,0,,,52,112
96980,note_on,,,,,0,0,1,,,,,0,,,81,0
96980,note_on,,,,,320,0,1,,,,,0,,,69,0
97131,note_on,,,,,151,0,2,,,,,0,,,52,0
97131,note_on,,,,,0,0,2,,,,,0,,,55,0
97140,note_on,,,,,0,0,2,,,,,0,,,63,112
97140,note_on,,,,,9,0,2,,,,,0,,,60,112
97291,note_on,,,,,151,0,2,,,,,0,,,60,0
97291,note_on,,,,,0,0,2,,,,,0,,,63,0
97300,note_on,,,,,9,0,2,,,,,0,,,61,112
97300,note_on,,,,,0,0,2,,,,,0,,,64,112
97451,note_on,,,,,151,0,2,,,,,0,,,61,0
97451,note_on,,,,,0,0,2,,,,,0,,,64,0
97540,note_on,,,,,89,0,2,,,,,0,,,33,112
97540,note_on,,,,,0,0,2,,,,,0,,,45,112
97560,note_on,,,,,580,0,1,,,,,0,,,57,112
97560,note_on,,,,,0,0,1,,,,,0,,,69,112
97560,set_tempo,,,,,7621,1,0,,1200000,,,,,,,
97615,note_on,,,,,75,0,2,,,,,0,,,33,0
97615,note_on,,,,,0,0,2,,,,,0,,,45,0
97619,set_tempo,,,,,59,1,0,,400000,,,,,,,
97619,note_on,,,,,0,0,1,,,,,0,,,69,0
97619,note_on,,,,,59,0,1,,,,,0,,,57,0
97620,note_on,,,,,1,0,1,,,,,0,,,62,112
97620,note_on,,,,,0,0,1,,,,,0,,,74,112
97620,note_on,,,,,0,0,2,,,,,0,,,50,112
97620,note_on,,,,,5,0,2,,,,,0,,,38,112
97621,control_change,,,,,1,0,2,,,64,0,0,,,,
97622,control_change,,,,,1,0,2,,,64,127,0,,,,
97940,note_on,,,,,0,0,2,,,,,0,,,56,112
97940,note_on,,,,,318,0,2,,,,,0,,,52,112
98075,note_on,,,,,455,0,1,,,,,0,,,62,0
98075,note_on,,,,,0,0,2,,,,,0,,,50,0
98075,note_on,,,,,135,0,2,,,,,0,,,38,0
98075,note_on,,,,,0,0,1,,,,,0,,,74,0
98091,note_on,,,,,16,0,2,,,,,0,,,52,0
98091,note_on,,,,,0,0,2,,,,,0,,,56,0
98100,note_on,,,,,9,0,2,,,,,0,,,53,112
98100,note_on,,,,,0,0,2,,,,,0,,,57,112
98251,note_on,,,,,151,0,2,,,,,0,,,53,0
98251,note_on,,,,,0,0,2,,,,,0,,,57,0
98260,note_on,,,,,9,0,2,,,,,0,,,64,112
98260,note_on,,,,,0,0,2,,,,,0,,,68,112
98411,note_on,,,,,151,0,2,,,,,0,,,64,0
98411,note_on,,,,,0,0,2,,,,,0,,,68,0
98420,note_on,,,,,0,0,2,,,,,0,,,69,112
98420,note_on,,,,,9,0,2,,,,,0,,,65,112
98571,note_on,,,,,151,0,2,,,,,0,,,65,0
98571,note_on,,,,,0,0,2,,,,,0,,,69,0
98580,note_on,,,,,0,0,2,,,,,0,,,80,112
98580,note_on,,,,,9,0,2,,,,,0,,,76,112
98731,note_on,,,,,0,0,2,,,,,0,,,80,0
98731,note_on,,,,,151,0,2,,,,,0,,,76,0
98740,note_on,,,,,9,0,2,,,,,0,,,77,112
98740,note_on,,,,,0,0,2,,,,,0,,,81,112
98891,note_on,,,,,151,0,2,,,,,0,,,77,0
98891,note_on,,,,,0,0,2,,,,,0,,,81,0
98900,note_on,,,,,9,0,2,,,,,0,,,88,112
98900,note_on,,,,,0,0,2,,,,,0,,,92,112
99051,note_on,,,,,0,0,2,,,,,0,,,92,0
99051,note_on,,,,,151,0,2,,,,,0,,,88,0
99060,note_on,,,,,9,0,2,,,,,0,,,89,112
99060,note_on,,,,,0,0,2,,,,,0,,,93,112
99211,note_on,,,,,151,0,2,,,,,0,,,89,0
99211,note_on,,,,,0,0,2,,,,,0,,,93,0
99460,note_on,,,,,0,0,2,,,,,0,,,50,112
99460,note_on,,,,,249,0,2,,,,,0,,,38,112
99480,note_on,,,,,0,0,1,,,,,0,,,74,112
99480,set_tempo,,,,,1861,1,0,,600000,,,,,,,
99480,note_on,,,,,1405,0,1,,,,,0,,,62,112
99535,note_on,,,,,0,0,2,,,,,0,,,50,0
99535,note_on,,,,,75,0,2,,,,,0,,,38,0
99539,note_on,,,,,0,0,1,,,,,0,,,74,0
99539,note_on,,,,,59,0,1,,,,,0,,,62,0
99539,set_tempo,,,,,59,1,0,,400000,,,,,,,
99540,note_on,,,,,0,0,1,,,,,0,,,78,112
99540,note_on,,,,,0,0,1,,,,,0,,,84,112
99540,note_on,,,,,0,0,2,,,,,0,,,45,112
99540,note_on,,,,,5,0,2,,,,,0,,,38,112
99540,note_on,,,,,0,0,2,,,,,0,,,50,112
99540,note_on,,,,,1,0,1,,,,,0,,,72,112
99541,control_change,,,,,1,0,2,,,64,0,0,,,,
99542,control_change,,,,,1,0,2,,,64,127,0,,,,
99855,note_on,,,,,315,0,1,,,,,0,,,72,0
99855,note_on,,,,,0,0,1,,,,,0,,,78,0
99855,note_on,,,,,0,0,1,,,,,0,,,84,0
99860,note_on,,,,,0,0,2,,,,,0,,,59,112
99860,note_on,,,,,318,0,2,,,,,0,,,56,112
100011,note_on,,,,,151,0,2,,,,,0,,,56,0
100011,note_on,,,,,0,0,2,,,,,0,,,59,0
100020,note_on,,,,,9,0,2,,,,,0,,,57,112
100020,note_on,,,,,0,0,2,,,,,0,,,60,112
100171,note_on,,,,,151,0,2,,,,,0,,,57,0
100171,note_on,,,,,0,0,2,,,,,0,,,60,0
100180,note_on,,,,,9,0,2,,,,,0,,,68,112
100180,note_on,,,,,0,0,2,,,,,0,,,71,112
100331,note_on,,,,,151,0,2,,,,,0,,,68,0
100331,note_on,,,,,0,0,2,,,,,0,,,71,0
100340,note_on,,,,,0,0,2,,,,,0,,,72,112
100340,note_on,,,,,9,0,2,,,,,0,,,69,112
100451,note_on,,,,,111,0,2,,,,,0,,,38,0
100451,note_on,,,,,0,0,2,,,,,0,,,45,0
100451,note_on,,,,,0,0,2,,,,,0,,,50,0
100491,note_on,,,,,0,0,2,,,,,0,,,72,0
100491,note_on,,,,,40,0,2,,,,,0,,,69,0
100500,note_on,,,,,9,0,2,,,,,0,,,80,112
100500,note_on,,,,,0,0,2,,,,,0,,,83,112
100651,note_on,,,,,0,0,2,,,,,0,,,83,0
100651,note_on,,,,,151,0,2,,,,,0,,,80,0
100660,note_on,,,,,0,0,2,,,,,0,,,84,112
100660,note_on,,,,,9,0,2,,,,,0,,,81,112
100811,note_on,,,,,0,0,2,,,,,0,,,84,0
100811,note_on,,,,,151,0,2,,,,,0,,,81,0
100820,note_on,,,,,0,0,2,,,,,0,,,95,112
100820,note_on,,,,,9,0,2,,,,,0,,,92,112
100971,note_on,,,,,0,0,2,,,,,0,,,95,0
100971,note_on,,,,,151,0,2,,,,,0,,,92,0
100980,note_on,,,,,9,0,2,,,,,0,,,93,112
100980,note_on,,,,,0,0,2,,,,,0,,,96,112
101131,note_on,,,,,151,0,2,,,,,0,,,93,0
101131,note_on,,,,,0,0,2,,,,,0,,,96,0
101380,note_on,,,,,249,0,2,,,,,0,,,38,112
101380,note_on,,,,,0,0,2,,,,,0,,,50,112
101400,note_on,,,,,0,0,1,,,,,0,,,74,112
101400,note_on,,,,,1545,0,1,,,,,0,,,62,112
101400,set_tempo,,,,,1861,1,0,,600000,,,,,,,
101455,note_on,,,,,0,0,2,,,,,0,,,50,0
101455,note_on,,,,,75,0,2,,,,,0,,,38,0
101459,note_on,,,,,0,0,1,,,,,0,,,74,0
101459,set_tempo,,,,,59,1,0,,400000,,,,,,,
101459,note_on,,,,,59,0,1,,,,,0,,,62,0
101460,note_on,,,,,1,0,1,,,,,0,,,71,112
101460,note_on,,,,,0,0,1,,,,,0,,,83,112
101460,note_on,,,,,0,0,2,,,,,0,,,50,112
101460,note_on,,,,,0,0,2,,,,,0,,,44,112
101460,note_on,,,,,5,0,2,,,,,0,,,38,112
101460,note_on,,,,,0,0,1,,,,,0,,,77,112
101461,control_change,,,,,1,0,2,,,64,0,0,,,,
101462,control_change,,,,,1,0,2,,,64,127,0,,,,
101775,note_on,,,,,0,0,1,,,,,0,,,83,0
101775,note_on,,,,,0,0,1,,,,,0,,,77,0
101775,note_on,,,,,315,0,1,,,,,0,,,71,0
101780,note_on,,,,,318,0,2,,,,,0,,,55,112
101780,note_on,,,,,0,0,2,,,,,0,,,58,112
101931,note_on,,,,,0,0,2,,,,,0,,,58,0
101931,note_on,,,,,151,0,2,,,,,0,,,55,0
101940,note_on,,,,,9,0,2,,,,,0,,,56,112
101940,note_on,,,,,0,0,2,,,,,0,,,59,112
102091,note_on,,,,,0,0,2,,,,,0,,,59,0
102091,note_on,,,,,151,0,2,,,,,0,,,56,0
102100,note_on,,,,,9,0,2,,,,,0,,,67,112
102100,note_on,,,,,0,0,2,,,,,0,,,70,112
102251,note_on,,,,,0,0,2,,,,,0,,,70,0
102251,note_on,,,,,151,0,2,,,,,0,,,67,0
102260,note_on,,,,,0,0,2,,,,,0,,,71,112
102260,note_on,,,,,9,0,2,,,,,0,,,68,112
102371,note_on,,,,,0,0,2,,,,,0,,,44,0
102371,note_on,,,,,111,0,2,,,,,0,,,38,0
102371,note_on,,,,,0,0,2,,,,,0,,,50,0
102411,note_on,,,,,0,0,2,,,,,0,,,71,0
102411,note_on,,,,,40,0,2,,,,,0,,,68,0
102420,note_on,,,,,0,0,2,,,,,0,,,82,112
102420,note_on,,,,,9,0,2,,,,,0,,,79,112
102571,note_on,,,,,151,0,2,,,,,0,,,79,0
102571,note_on,,,,,0,0,2,,,,,0,,,82,0
102580,note_on,,,,,9,0,2,,,,,0,,,80,112
102580,note_on,,,,,0,0,2,,,,,0,,,83,112
102731,note_on,,,,,0,0,2,,,,,0,,,83,0
102731,note_on,,,,,151,0,2,,,,,0,,,80,0
102740,note_on,,,,,0,0,2,,,,,0,,,94,112
102740,note_on,,,,,9,0,2,,,,,0,,,91,112
102891,note_on,,,,,151,0,2,,,,,0,,,91,0
102891,note_on,,,,,0,0,2,,,,,0,,,94,0
102900,note_on,,,,,9,0,2,,,,,0,,,92,112
102900,note_on,,,,,0,0,2,,,,,0,,,95,112
103051,note_on,,,,,151,0,2,,,,,0,,,92,0
103051,note_on,,,,,0,0,2,,,,,0,,,95,0
103300,note_on,,,,,0,0,2,,,,,0,,,50,112
103300,note_on,,,,,249,0,2,,,,,0,,,38,112
103320,note_on,,,,,0,0,1,,,,,0,,,74,112
103320,set_tempo,,,,,1861,1,0,,600000,,,,,,,
103320,note_on,,,,,1545,0,1,,,,,0,,,62,112
103375,note_on,,,,,75,0,2,,,,,0,,,38,0
103375,note_on,,,,,0,0,2,,,,,0,,,50,0
103379,set_tempo,,,,,59,1,0,,400000,,,,,,,
103379,note_on,,,,,59,0,1,,,,,0,,,62,0
103379,note_on,,,,,0,0,1,,,,,0,,,74,0
103380,note_on,,,,,1,0,1,,,,,0,,,70,112
103380,note_on,,,,,5,0,2,,,,,0,,,34,112
103380,note_on,,,,,0,0,2,,,,,0,,,46,112
103380,note_on,,,,,0,0,1,,,,,0,,,82,112
103381,control_change,,,,,1,0,2,,,64,0,0,,,,
103382,control_change,,,,,1,0,2,,,64,127,0,,,,
103572,note_on,,,,,0,0,2,,,,,0,,,54,112
103572,note_on,,,,,190,0,2,,,,,0,,,51,112
103753,note_on,,,,,181,0,2,,,,,0,,,51,0
103753,note_on,,,,,0,0,2,,,,,0,,,54,0
103764,note_on,,,,,0,0,2,,,,,0,,,55,112
103764,note_on,,,,,11,0,2,,,,,0,,,52,112
103835,note_on,,,,,455,0,1,,,,,0,,,70,0
103835,note_on,,,,,0,0,2,,,,,0,,,46,0
103835,note_on,,,,,0,0,1,,,,,0,,,82,0
103835,note_on,,,,,71,0,2,,,,,0,,,34,0
103945,note_on,,,,,0,0,2,,,,,0,,,55,0
103945,note_on,,,,,110,0,2,,,,,0,,,52,0
103956,note_on,,,,,0,0,2,,,,,0,,,63,112
103956,note_on,,,,,11,0,2,,,,,0,,,60,112
104137,note_on,,,,,0,0,2,,,,,0,,,63,0
104137,note_on,,,,,181,0,2,,,,,0,,,60,0
104148,note_on,,,,,11,0,2,,,,,0,,,61,112
104148,note_on,,,,,0,0,2,,,,,0,,,64,112
104280,note_on,,,,,132,0,2,,,,,0,,,34,112
104280,set_tempo,,,,,901,1,0,,600000,,,,,,,
104280,note_on,,,,,0,0,2,,,,,0,,,46,112
104280,note_on,,,,,0,0,1,,,,,0,,,82,112
104280,note_on,,,,,445,0,1,,,,,0,,,70,112
104329,note_on,,,,,49,0,2,,,,,0,,,61,0
104329,note_on,,,,,0,0,2,,,,,0,,,64,0
104336,note_on,,,,,7,0,2,,,,,0,,,34,0
104336,note_on,,,,,0,0,2,,,,,0,,,46,0
104339,set_tempo,,,,,59,1,0,,400000,,,,,,,
104339,note_on,,,,,0,0,1,,,,,0,,,82,0
104339,note_on,,,,,59,0,1,,,,,0,,,70,0
104340,note_on,,,,,1,0,1,,,,,0,,,69,112
104340,note_on,,,,,0,0,1,,,,,0,,,81,112
104340,note_on,,,,,0,0,2,,,,,0,,,45,112
104340,note_on,,,,,4,0,2,,,,,0,,,33,112
104341,control_change,,,,,1,0,2,,,64,0,0,,,,
104342,control_change,,,,,1,0,2,,,64,127,0,,,,
104532,note_on,,,,,0,0,2,,,,,0,,,54,112
104532,note_on,,,,,190,0,2,,,,,0,,,51,112
104713,note_on,,,,,0,0,2,,,,,0,,,54,0
104713,note_on,,,,,181,0,2,,,,,0,,,51,0
104724,note_on,,,,,11,0,2,,,,,0,,,52,112
104724,note_on,,,,,0,0,2,,,,,0,,,55,112
104795,note_on,,,,,0,0,2,,,,,0,,,45,0
104795,note_on,,,,,0,0,1,,,,,0,,,81,0
104795,note_on,,,,,71,0,2,,,,,0,,,33,0
104795,note_on,,,,,455,0,1,,,,,0,,,69,0
104905,note_on,,,,,0,0,2,,,,,0,,,55,0
104905,note_on,,,,,110,0,2,,,,,0,,,52,0
104916,note_on,,,,,11,0,2,,,,,0,,,60,112
104916,note_on,,,,,0,0,2,,,,,0,,,63,112
105097,note_on,,,,,181,0,2,,,,,0,,,60,0
105097,note_on,,,,,0,0,2,,,,,0,,,63,0
105108,note_on,,,,,11,0,2,,,,,0,,,61,112
105108,note_on,,,,,0,0,2,,,,,0,,,64,112
105240,note_on,,,,,0,0,2,,,,,0,,,43,112
105240,set_tempo,,,,,901,1,0,,600000,,,,,,,
105240,note_on,,,,,0,0,1,,,,,0,,,79,112
105240,note_on,,,,,445,0,1,,,,,0,,,67,112
105240,note_on,,,,,132,0,2,,,,,0,,,31,112
105289,note_on,,,,,0,0,2,,,,,0,,,64,0
105289,note_on,,,,,49,0,2,,,,,0,,,61,0
105296,note_on,,,,,7,0,2,,,,,0,,,31,0
105296,note_on,,,,,0,0,2,,,,,0,,,43,0
105299,note_on,,,,,59,0,1,,,,,0,,,67,0
105299,note_on,,,,,0,0,1,,,,,0,,,79,0
105299,set_tempo,,,,,59,1,0,,400000,,,,,,,
105300,note_on,,,,,0,0,2,,,,,0,,,50,112
105300,note_on,,,,,0,0,2,,,,,0,,,45,112
105300,note_on,,,,,4,0,2,,,,,0,,,38,112
105300,note_on,,,,,1,0,1,,,,,0,,,62,112
105300,note_on,,,,,0,0,1,,,,,0,,,74,112
105300,note_on,,,,,0,0,1,,,,,0,,,66,112
105301,control_change,,,,,1,0,2,,,64,0,0,,,,
105302,control_change,,,,,1,0,2,,,64,127,0,,,,
105620,note_on,,,,,318,0,2,,,,,0,,,53,112
105620,note_on,,,,,0,0,2,,,,,0,,,56,112
105755,note_on,,,,,135,0,2,,,,,0,,,38,0
105755,note_on,,,,,455,0,1,,,,,0,,,62,0
105755,note_on,,,,,0,0,1,,,,,0,,,66,0
105755,note_on,,,,,0,0,1,,,,,0,,,74,0
105755,note_on,,,,,0,0,2,,,,,0,,,45,0
105755,note_on,,,,,0,0,2,,,,,0,,,50,0
105771,note_on,,,,,16,0,2,,,,,0,,,53,0
105771,note_on,,,,,0,0,2,,,,,0,,,56,0
105780,note_on,,,,,9,0,2,,,,,0,,,54,112
105780,note_on,,,,,0,0,2,,,,,0,,,57,112
105931,note_on,,,,,0,0,2,,,,,0,,,57,0
105931,note_on,,,,,151,0,2,,,,,0,,,54,0
105940,note_on,,,,,0,0,2,,,,,0,,,68,112
105940,note_on,,,,,9,0,2,,,,,0,,,65,112
106091,note_on,,,,,0,0,2,,,,,0,,,68,0
106091,note_on,,,,,151,0,2,,,,,0,,,65,0
106100,note_on,,,,,9,0,2,,,,,0,,,65,112
106100,note_on,,,,,0,0,2,,,,,0,,,69,112
106251,note_on,,,,,151,0,2,,,,,0,,,65,0
106251,note_on,,,,,0,0,2,,,,,0,,,69,0
106260,note_on,,,,,9,0,2,,,,,0,,,77,112
106260,note_on,,,,,0,0,2,,,,,0,,,80,112
106411,note_on,,,,,0,0,2,,,,,0,,,80,0
106411,note_on,,,,,151,0,2,,,,,0,,,77,0
106420,note_on,,,,,0,0,2,,,,,0,,,82,112
106420,note_on,,,,,9,0,2,,,,,0,,,78,112
106571,note_on,,,,,0,0,2,,,,,0,,,82,0
106571,note_on,,,,,151,0,2,,,,,0,,,78,0
106580,note_on,,,,,0,0,2,,,,,0,,,92,112
106580,note_on,,,,,9,0,2,,,,,0,,,89,112
106731,note_on,,,,,0,0,2,,,,,0,,,92,0
106731,note_on,,,,,151,0,2,,,,,0,,,89,0
106740,note_on,,,,,9,0,2,,,,,0,,,90,112
106740,note_on,,,,,0,0,2,,,,,0,,,93,112
106891,note_on,,,,,0,0,2,,,,,0,,,93,0
106891,note_on,,,,,151,0,2,,,,,0,,,90,0
107140,note_on,,,,,0,0,2,,,,,0,,,50,112
107140,note_on,,,,,249,0,2,,,,,0,,,38,112
107160,set_tempo,,,,,1861,1,0,,600000,,,,,,,
107160,note_on,,,,,0,0,1,,,,,0,,,74,112
107160,note_on,,,,,1405,0,1,,,,,0,,,62,112
107215,note_on,,,,,75,0,2,,,,,0,,,38,0
107215,note_on,,,,,0,0,2,,,,,0,,,50,0
107219,note_on,,,,,0,0,1,,,,,0,,,74,0
107219,note_on,,,,,59,0,1,,,,,0,,,62,0
107219,set_tempo,,,,,59,1,0,,400000,,,,,,,
107220,note_on,,,,,0,0,1,,,,,0,,,84,112
107220,note_on,,,,,1,0,1,,,,,0,,,72,112
107220,note_on,,,,,0,0,1,,,,,0,,,78,112
107220,note_on,,,,,0,0,2,,,,,0,,,45,112
107220,note_on,,,,,0,0,2,,,,,0,,,51,112
107220,note_on,,,,,5,0,2,,,,,0,,,39,112
107221,control_change,,,,,1,0,2,,,64,0,0,,,,
107222,control_change,,,,,1,0,2,,,64,127,0,,,,
107540,note_on,,,,,318,0,2,,,,,0,,,56,112
107540,note_on,,,,,0,0,2,,,,,0,,,59,112
107691,note_on,,,,,151,0,2,,,,,0,,,56,0
107691,note_on,,,,,0,0,2,,,,,0,,,59,0
107700,note_on,,,,,9,0,2,,,,,0,,,57,112
107700,note_on,,,,,0,0,2,,,,,0,,,60,112
107851,note_on,,,,,151,0,2,,,,,0,,,57,0
107851,note_on,,,,,0,0,2,,,,,0,,,60,0
107860,note_on,,,,,9,0,2,,,,,0,,,68,112
107860,note_on,,,,,0,0,2,,,,,0,,,71,112
108011,note_on,,,,,0,0,2,,,,,0,,,71,0
108011,note_on,,,,,151,0,2,,,,,0,,,68,0
108020,note_on,,,,,800,0,1,,,,,0,,,72,0
108020,note_on,,,,,9,0,2,,,,,0,,,69,112
108020,note_on,,,,,0,0,2,,,,,0,,,72,112
108131,note_on,,,,,111,0,2,,,,,0,,,39,0
108131,note_on,,,,,0,0,2,,,,,0,,,45,0
108131,note_on,,,,,0,0,2,,,,,0,,,51,0
108131,note_on,,,,,0,0,1,,,,,0,,,84,0
108131,note_on,,,,,111,0,1,,,,,0,,,78,0
108171,note_on,,,,,0,0,2,,,,,0,,,72,0
108171,note_on,,,,,40,0,2,,,,,0,,,69,0
108180,note_on,,,,,9,0,2,,,,,0,,,80,112
108180,note_on,,,,,0,0,2,,,,,0,,,83,112
108331,note_on,,,,,0,0,2,,,,,0,,,83,0
108331,note_on,,,,,151,0,2,,,,,0,,,80,0
108340,note_on,,,,,9,0,2,,,,,0,,,81,112
108340,note_on,,,,,0,0,2,,,,,0,,,84,112
108491,note_on,,,,,151,0,2,,,,,0,,,81,0
108491,note_on,,,,,0,0,2,,,,,0,,,84,0
108500,note_on,,,,,9,0,2,,,,,0,,,92,112
108500,note_on,,,,,0,0,2,,,,,0,,,95,112
108651,note_on,,,,,151,0,2,,,,,0,,,92,0
108651,note_on,,,,,0,0,2,,,,,0,,,95,0
108660,note_on,,,,,0,0,2,,,,,0,,,96,112
108660,note_on,,,,,9,0,2,,,,,0,,,93,112
108811,note_on,,,,,151,0,2,,,,,0,,,93,0
108811,note_on,,,,,0,0,2,,,,,0,,,96,0
109060,note_on,,,,,249,0,2,,,,,0,,,38,112
109060,note_on,,,,,0,0,2,,,,,0,,,50,112
109080,set_tempo,,,,,1861,1,0,,600000,,,,,,,
109080,note_on,,,,,949,0,1,,,,,0,,,62,112
109080,note_on,,,,,0,0,1,,,,,0,,,74,112
109135,note_on,,,,,0,0,2,,,,,0,,,50,0
109135,note_on,,,,,75,0,2,,,,,0,,,38,0
109139,set_tempo,,,,,59,1,0,,400000,,,,,,,
109139,note_on,,,,,59,0,1,,,,,0,,,62,0
109139,note_on,,,,,0,0,1,,,,,0,,,74,0
109140,note_on,,,,,0,0,1,,,,,0,,,77,112
109140,note_on,,,,,0,0,1,,,,,0,,,83,112
109140,note_on,,,,,1,0,1,,,,,0,,,71,112
109140,note_on,,,,,0,0,2,,,,,0,,,43,112
109140,note_on,,,,,0,0,2,,,,,0,,,51,112
109140,note_on,,,,,5,0,2,,,,,0,,,39,112
109141,control_change,,,,,1,0,2,,,64,0,0,,,,
109142,control_change,,,,,1,0,2,,,64,127,0,,,,
109460,note_on,,,,,318,0,2,,,,,0,,,55,112
109460,note_on,,,,,0,0,2,,,,,0,,,58,112
109611,note_on,,,,,151,0,2,,,,,0,,,55,0
109611,note_on,,,,,0,0,2,,,,,0,,,58,0
109620,note_on,,,,,0,0,2,,,,,0,,,59,112
109620,note_on,,,,,9,0,2,,,,,0,,,56,112
109771,note_on,,,,,0,0,2,,,,,0,,,59,0
109771,note_on,,,,,151,0,2,,,,,0,,,56,0
109780,note_on,,,,,9,0,2,,,,,0,,,67,112
109780,note_on,,,,,0,0,2,,,,,0,,,70,112
109931,note_on,,,,,0,0,2,,,,,0,,,70,0
109931,note_on,,,,,151,0,2,,,,,0,,,67,0
109940,note_on,,,,,0,0,2,,,,,0,,,71,112
109940,note_on,,,,,9,0,2,,,,,0,,,68,112
109940,note_on,,,,,800,0,1,,,,,0,,,71,0
110051,note_on,,,,,0,0,1,,,,,0,,,83,0
110051,note_on,,,,,0,0,2,,,,,0,,,43,0
110051,note_on,,,,,111,0,2,,,,,0,,,39,0
110051,note_on,,,,,111,0,1,,,,,0,,,77,0
110051,note_on,,,,,0,0,2,,,,,0,,,51,0
110091,note_on,,,,,40,0,2,,,,,0,,,68,0
110091,note_on,,,,,0,0,2,,,,,0,,,71,0
110100,note_on,,,,,9,0,2,,,,,0,,,79,112
110100,note_on,,,,,0,0,2,,,,,0,,,82,112
110251,note_on,,,,,0,0,2,,,,,0,,,82,0
110251,note_on,,,,,151,0,2,,,,,0,,,79,0
110260,note_on,,,,,0,0,2,,,,,0,,,83,112
110260,note_on,,,,,9,0,2,,,,,0,,,80,112
110411,note_on,,,,,0,0,2,,,,,0,,,83,0
110411,note_on,,,,,151,0,2,,,,,0,,,80,0
110420,note_on,,,,,9,0,2,,,,,0,,,91,112
110420,note_on,,,,,0,0,2,,,,,0,,,94,112
110571,note_on,,,,,151,0,2,,,,,0,,,91,0
110571,note_on,,,,,0,0,2,,,,,0,,,94,0
110580,note_on,,,,,0,0,2,,,,,0,,,95,112
110580,note_on,,,,,9,0,2,,,,,0,,,92,112
110731,note_on,,,,,151,0,2,,,,,0,,,92,0
110731,note_on,,,,,0,0,2,,,,,0,,,95,0
110980,note_on,,,,,249,0,2,,,,,0,,,38,112
110980,note_on,,,,,0,0,2,,,,,0,,,50,112
111000,note_on,,,,,949,0,1,,,,,0,,,62,112
111000,set_tempo,,,,,1861,1,0,,600000,,,,,,,
111000,note_on,,,,,0,0,1,,,,,0,,,74,112
111055,note_on,,,,,0,0,2,,,,,0,,,50,0
111055,note_on,,,,,75,0,2,,,,,0,,,38,0
111059,note_on,,,,,59,0,1,,,,,0,,,62,0
111059,note_on,,,,,0,0,1,,,,,0,,,74,0
111059,set_tempo,,,,,59,1,0,,400000,,,,,,,
111060,note_on,,,,,0,0,1,,,,,0,,,82,112
111060,note_on,,,,,5,0,2,,,,,0,,,34,112
111060,note_on,,,,,1,0,1,,,,,0,,,70,112
111060,note_on,,,,,0,0,2,,,,,0,,,46,112
111061,control_change,,,,,1,0,2,,,64,0,0,,,,
111062,control_change,,,,,1,0,2,,,64,127,0,,,,
111252,note_on,,,,,0,0,2,,,,,0,,,54,112
111252,note_on,,,,,190,0,2,,,,,0,,,51,112
111433,note_on,,,,,181,0,2,,,,,0,,,51,0
111433,note_on,,,,,0,0,2,,,,,0,,,54,0
111444,note_on,,,,,11,0,2,,,,,0,,,52,112
111444,note_on,,,,,0,0,2,,,,,0,,,55,112
111515,note_on,,,,,0,0,1,,,,,0,,,82,0
111515,note_on,,,,,455,0,1,,,,,0,,,70,0
111515,note_on,,,,,0,0,2,,,,,0,,,46,0
111515,note_on,,,,,71,0,2,,,,,0,,,34,0
111625,note_on,,,,,110,0,2,,,,,0,,,52,0
111625,note_on,,,,,0,0,2,,,,,0,,,55,0
111636,note_on,,,,,11,0,2,,,,,0,,,60,112
111636,note_on,,,,,0,0,2,,,,,0,,,63,112
111817,note_on,,,,,0,0,2,,,,,0,,,63,0
111817,note_on,,,,,181,0,2,,,,,0,,,60,0
111828,note_on,,,,,11,0,2,,,,,0,,,61,112
111828,note_on,,,,,0,0,2,,,,,0,,,64,112
111960,note_on,,,,,0,0,1,,,,,0,,,82,112
111960,set_tempo,,,,,901,1,0,,600000,,,,,,,
111960,note_on,,,,,0,0,2,,,,,0,,,46,112
111960,note_on,,,,,445,0,1,,,,,0,,,70,112
111960,note_on,,,,,132,0,2,,,,,0,,,34,112
112009,note_on,,,,,49,0,2,,,,,0,,,61,0
112009,note_on,,,,,0,0,2,,,,,0,,,64,0
112016,note_on,,,,,7,0,2,,,,,0,,,34,0
112016,note_on,,,,,0,0,2,,,,,0,,,46,0
112019,set_tempo,,,,,59,1,0,,400000,,,,,,,
112019,note_on,,,,,0,0,1,,,,,0,,,82,0
112019,note_on,,,,,59,0,1,,,,,0,,,70,0
112020,note_on,,,,,4,0,2,,,,,0,,,33,112
112020,note_on,,,,,0,0,1,,,,,0,,,81,112
112020,note_on,,,,,0,0,2,,,,,0,,,45,112
112020,note_on,,,,,1,0,1,,,,,0,,,69,112
112021,control_change,,,,,1,0,2,,,64,0,0,,,,
112022,control_change,,,,,1,0,2,,,64,127,0,,,,
112212,note_on,,,,,0,0,2,,,,,0,,,54,112
112212,note_on,,,,,190,0,2,,,,,0,,,51,112
112393,note_on,,,,,0,0,2,,,,,0,,,54,0
112393,note_on,,,,,181,0,2,,,,,0,,,51,0
112404,note_on,,,,,11,0,2,,,,,0,,,52,112
112404,note_on,,,,,0,0,2,,,,,0,,,55,112
112475,note_on,,,,,0,0,1,,,,,0,,,81,0
112475,note_on,,,,,0,0,2,,,,,0,,,45,0
112475,note_on,,,,,455,0,1,,,,,0,,,69,0
112475,note_on,,,,,71,0,2,,,,,0,,,33,0
112585,note_on,,,,,0,0,2,,,,,0,,,55,0
112585,note_on,,,,,110,0,2,,,,,0,,,52,0
112596,note_on,,,,,0,0,2,,,,,0,,,63,112
112596,note_on,,,,,11,0,2,,,,,0,,,60,112
112777,note_on,,,,,181,0,2,,,,,0,,,60,0
112777,note_on,,,,,0,0,2,,,,,0,,,63,0
112788,note_on,,,,,0,0,2,,,,,0,,,64,112
112788,note_on,,,,,11,0,2,,,,,0,,,61,112
112920,note_on,,,,,0,0,2,,,,,0,,,43,112
112920,note_on,,,,,132,0,2,,,,,0,,,31,112
112920,note_on,,,,,0,0,1,,,,,0,,,79,112
112920,set_tempo,,,,,901,1,0,,600000,,,,,,,
112920,note_on,,,,,445,0,1,,,,,0,,,67,112
112969,note_on,,,,,0,0,2,,,,,0,,,64,0
112969,note_on,,,,,49,0,2,,,,,0,,,61,0
112976,note_on,,,,,0,0,2,,,,,0,,,43,0
112976,note_on,,,,,7,0,2,,,,,0,,,31,0
112979,note_on,,,,,0,0,1,,,,,0,,,79,0
112979,set_tempo,,,,,59,1,0,,400000,,,,,,,
112979,note_on,,,,,59,0,1,,,,,0,,,67,0
112980,note_on,,,,,0,0,1,,,,,0,,,66,112
112980,note_on,,,,,0,0,1,,,,,0,,,74,112
112980,note_on,,,,,4,0,2,,,,,0,,,38,112
112980,note_on,,,,,1,0,1,,,,,0,,,62,112
112980,note_on,,,,,0,0,2,,,,,0,,,50,112
112980,note_on,,,,,0,0,2,,,,,0,,,45,112
112981,control_change,,,,,1,0,2,,,64,0,0,,,,
113131,note_on,,,,,0,0,1,,,,,0,,,74,0
113131,note_on,,,,,0,0,1,,,,,0,,,66,0
113131,note_on,,,,,151,0,1,,,,,0,,,62,0
113131,note_on,,,,,150,0,2,,,,,0,,,38,0
113131,note_on,,,,,0,0,2,,,,,0,,,50,0
113131,note_on,,,,,0,0,2,,,,,0,,,45,0
113300,note_on,,,,,169,0,1,,,,,0,,,94,112
113300,note_on,,,,,169,0,2,,,,,0,,,76,112
113300,note_on,,,,,0,0,1,,,,,0,,,85,112
113300,note_on,,,,,0,0,2,,,,,0,,,67,112
113406,note_on,,,,,106,0,1,,,,,0,,,85,0
113406,note_on,,,,,106,0,2,,,,,0,,,76,0
113407,note_on,,,,,1,0,1,,,,,0,,,84,112
113407,note_on,,,,,1,0,2,,,,,0,,,75,112
113513,note_on,,,,,106,0,2,,,,,0,,,75,0
113513,note_on,,,,,106,0,1,,,,,0,,,84,0
113514,note_on,,,,,1,0,2,,,,,0,,,74,112
113514,note_on,,,,,1,0,1,,,,,0,,,83,112
113619,note_on,,,,,105,0,2,,,,,0,,,67,0
113619,note_on,,,,,105,0,1,,,,,0,,,94,0
113620,note_on,,,,,0,0,2,,,,,0,,,73,112
113620,note_on,,,,,0,0,2,,,,,0,,,64,112
113620,note_on,,,,,1,0,2,,,,,0,,,74,0
113620,note_on,,,,,0,0,1,,,,,0,,,82,112
113620,note_on,,,,,1,0,1,,,,,0,,,83,0
113620,note_on,,,,,0,0,1,,,,,0,,,91,112
113726,note_on,,,,,106,0,2,,,,,0,,,73,0
113726,note_on,,,,,106,0,1,,,,,0,,,82,0
113727,note_on,,,,,1,0,2,,,,,0,,,72,112
113727,note_on,,,,,1,0,1,,,,,0,,,81,112
113833,note_on,,,,,106,0,1,,,,,0,,,81,0
113833,note_on,,,,,106,0,2,,,,,0,,,72,0
113834,note_on,,,,,1,0,2,,,,,0,,,71,112
113834,note_on,,,,,1,0,1,,,,,0,,,80,112
113939,note_on,,,,,105,0,1,,,,,0,,,91,0
113939,note_on,,,,,105,0,2,,,,,0,,,64,0
113940,note_on,,,,,0,0,1,,,,,0,,,79,112
113940,note_on,,,,,0,0,2,,,,,0,,,70,112
113940,note_on,,,,,0,0,2,,,,,0,,,61,112
113940,note_on,,,,,1,0,2,,,,,0,,,71,0
113940,note_on,,,,,0,0,1,,,,,0,,,88,112
113940,note_on,,,,,1,0,1,,,,,0,,,80,0
114046,note_on,,,,,106,0,1,,,,,0,,,79,0
114046,note_on,,,,,106,0,2,,,,,0,,,70,0
114047,note_on,,,,,1,0,1,,,,,0,,,78,112
114047,note_on,,,,,1,0,2,,,,,0,,,69,112
114153,note_on,,,,,106,0,1,,,,,0,,,78,0
114153,note_on,,,,,106,0,2,,,,,0,,,69,0
114154,note_on,,,,,1,0,1,,,,,0,,,77,112
114154,note_on,,,,,1,0,2,,,,,0,,,68,112
114259,note_on,,,,,105,0,1,,,,,0,,,88,0
114259,note_on,,,,,105,0,2,,,,,0,,,61,0
114260,note_on,,,,,1,0,1,,,,,0,,,77,0
114260,note_on,,,,,0,0,2,,,,,0,,,58,112
114260,note_on,,,,,0,0,2,,,,,0,,,67,112
114260,note_on,,,,,1,0,2,,,,,0,,,68,0
114260,note_on,,,,,0,0,1,,,,,0,,,76,112
114260,note_on,,,,,0,0,1,,,,,0,,,85,112
114411,note_on,,,,,151,0,1,,,,,0,,,85,0
114411,note_on,,,,,151,0,2,,,,,0,,,67,0
114411,note_on,,,,,0,0,1,,,,,0,,,76,0
114411,note_on,,,,,0,0,2,,,,,0,,,58,0
114580,note_on,,,,,0,0,1,,,,,0,,,70,112
114580,note_on,,,,,169,0,2,,,,,0,,,43,112
114580,note_on,,,,,0,0,2,,,,,0,,,55,112
114580,note_on,,,,,169,0,1,,,,,0,,,82,112
114580,note_on,,,,,0,0,2,,,,,0,,,52,112
114580,note_on,,,,,0,0,2,,,,,0,,,49,112
114680,note_on,,,,,100,0,1,,,,,0,,,70,0
114687,note_on,,,,,7,0,1,,,,,0,,,73,112
114731,note_on,,,,,151,0,2,,,,,0,,,43,0
114731,note_on,,,,,0,0,2,,,,,0,,,49,0
114731,note_on,,,,,0,0,2,,,,,0,,,52,0
114731,note_on,,,,,0,0,2,,,,,0,,,55,0
114787,note_on,,,,,100,0,1,,,,,0,,,73,0
114794,note_on,,,,,7,0,1,,,,,0,,,76,112
114883,note_on,,,,,89,0,1,,,,,0,,,82,0
114894,note_on,,,,,11,0,1,,,,,0,,,76,0
114900,note_on,,,,,0,0,2,,,,,0,,,54,112
114900,note_on,,,,,0,0,1,,,,,0,,,78,112
114900,note_on,,,,,169,0,2,,,,,0,,,50,112
114900,note_on,,,,,0,0,1,,,,,0,,,86,112
114900,note_on,,,,,6,0,1,,,,,0,,,74,112
114900,note_on,,,,,0,0,2,,,,,0,,,57,112
114900,note_on,,,,,0,0,2,,,,,0,,,62,112
115051,note_on,,,,,0,0,1,,,,,0,,,78,0
115051,note_on,,,,,0,0,2,,,,,0,,,62,0
115051,note_on,,,,,151,0,2,,,,,0,,,50,0
115051,note_on,,,,,151,0,1,,,,,0,,,74,0
115051,note_on,,,,,0,0,2,,,,,0,,,54,0
115051,note_on,,,,,0,0,2,,,,,0,,,57,0
115051,note_on,,,,,0,0,1,,,,,0,,,86,0
115220,note_on,,,,,0,0,2,,,,,0,,,55,112
115220,note_on,,,,,0,0,1,,,,,0,,,73,112
115220,note_on,,,,,169,0,2,,,,,0,,,64,112
115220,note_on,,,,,169,0,1,,,,,0,,,82,112
115320,note_on,,,,,100,0,2,,,,,0,,,64,0
115320,note_on,,,,,100,0,1,,,,,0,,,73,0
115327,note_on,,,,,7,0,2,,,,,0,,,63,112
115327,note_on,,,,,7,0,1,,,,,0,,,72,112
115427,note_on,,,,,100,0,2,,,,,0,,,63,0
115427,note_on,,,,,100,0,1,,,,,0,,,72,0
115434,note_on,,,,,7,0,1,,,,,0,,,71,112
115434,note_on,,,,,7,0,2,,,,,0,,,62,112
115523,note_on,,,,,89,0,1,,,,,0,,,82,0
115523,note_on,,,,,89,0,2,,,,,0,,,55,0
115534,note_on,,,,,11,0,1,,,,,0,,,71,0
115534,note_on,,,,,11,0,2,,,,,0,,,62,0
115540,note_on,,,,,0,0,1,,,,,0,,,70,112
115540,note_on,,,,,6,0,2,,,,,0,,,61,112
115540,note_on,,,,,0,0,2,,,,,0,,,52,112
115540,note_on,,,,,6,0,1,,,,,0,,,79,112
115640,note_on,,,,,100,0,1,,,,,0,,,70,0
115640,note_on,,,,,100,0,2,,,,,0,,,61,0
115647,note_on,,,,,7,0,1,,,,,0,,,69,112
115647,note_on,,,,,7,0,2,,,,,0,,,60,112
115747,note_on,,,,,100,0,1,,,,,0,,,69,0
115747,note_on,,,,,100,0,2,,,,,0,,,60,0
115754,note_on,,,,,7,0,2,,,,,0,,,59,112
115754,note_on,,,,,7,0,1,,,,,0,,,68,112
115843,note_on,,,,,89,0,2,,,,,0,,,52,0
115843,note_on,,,,,89,0,1,,,,,0,,,79,0
115854,note_on,,,,,11,0,2,,,,,0,,,59,0
115854,note_on,,,,,11,0,1,,,,,0,,,68,0
115860,note_on,,,,,0,0,2,,,,,0,,,49,112
115860,note_on,,,,,6,0,1,,,,,0,,,76,112
115860,note_on,,,,,6,0,2,,,,,0,,,58,112
115860,note_on,,,,,0,0,1,,,,,0,,,67,112
115960,note_on,,,,,100,0,2,,,,,0,,,58,0
115960,note_on,,,,,100,0,1,,,,,0,,,67,0
115967,note_on,,,,,7,0,2,,,,,0,,,57,112
115967,note_on,,,,,7,0,1,,,,,0,,,66,112
116067,note_on,,,,,100,0,2,,,,,0,,,57,0
116067,note_on,,,,,100,0,1,,,,,0,,,66,0
116074,note_on,,,,,7,0,2,,,,,0,,,56,112
116074,note_on,,,,,7,0,1,,,,,0,,,65,112
116163,note_on,,,,,89,0,1,,,,,0,,,76,0
116163,note_on,,,,,89,0,2,,,,,0,,,49,0
116174,note_on,,,,,11,0,1,,,,,0,,,65,0
116174,note_on,,,,,11,0,2,,,,,0,,,56,0
116180,note_on,,,,,0,0,2,,,,,0,,,46,112
116180,note_on,,,,,6,0,2,,,,,0,,,55,112
116180,note_on,,,,,6,0,1,,,,,0,,,73,112
116180,note_on,,,,,0,0,1,,,,,0,,,64,112
116331,note_on,,,,,151,0,2,,,,,0,,,55,0
116331,note_on,,,,,0,0,1,,,,,0,,,64,0
116331,note_on,,,,,151,0,1,,,,,0,,,73,0
116331,note_on,,,,,0,0,2,,,,,0,,,46,0
116500,note_on,,,,,0,0,1,,,,,0,,,58,112
116500,note_on,,,,,169,0,1,,,,,0,,,70,112
116500,note_on,,,,,0,0,2,,,,,0,,,52,112
116500,note_on,,,,,0,0,2,,,,,0,,,55,112
116500,note_on,,,,,169,0,2,,,,,0,,,43,112
116500,note_on,,,,,0,0,2,,,,,0,,,49,112
116502,control_change,,,,,2,0,2,,,64,127,0,,,,
116600,note_on,,,,,100,0,1,,,,,0,,,58,0
116607,note_on,,,,,7,0,1,,,,,0,,,61,112
116651,note_on,,,,,149,0,2,,,,,0,,,43,0
116651,note_on,,,,,0,0,2,,,,,0,,,49,0
116651,note_on,,,,,0,0,2,,,,,0,,,52,0
116651,note_on,,,,,0,0,2,,,,,0,,,55,0
116707,note_on,,,,,100,0,1,,,,,0,,,61,0
116714,note_on,,,,,7,0,1,,,,,0,,,64,112
116803,note_on,,,,,89,0,1,,,,,0,,,70,0
116814,note_on,,,,,11,0,1,,,,,0,,,64,0
116820,note_on,,,,,169,0,2,,,,,0,,,38,112
116820,note_on,,,,,0,0,1,,,,,0,,,66,112
116820,note_on,,,,,0,0,1,,,,,0,,,74,112
116820,note_on,,,,,0,0,2,,,,,0,,,45,112
116820,note_on,,,,,0,0,2,,,,,0,,,50,112
116820,note_on,,,,,6,0,1,,,,,0,,,62,112
116820,note_on,,,,,0,0,2,,,,,0,,,42,112
116971,note_on,,,,,0,0,2,,,,,0,,,50,0
116971,note_on,,,,,0,0,2,,,,,0,,,45,0
116971,note_on,,,,,0,0,2,,,,,0,,,42,0
116971,note_on,,,,,0,0,1,,,,,0,,,74,0
116971,note_on,,,,,0,0,1,,,,,0,,,66,0
116971,note_on,,,,,151,0,2,,,,,0,,,38,0
116971,note_on,,,,,151,0,1,,,,,0,,,62,0
116981,control_change,,,,,10,0,2,,,64,0,0,,,,
117140,note_on,,,,,0,0,2,,,,,0,,,49,112
117140,note_on,,,,,0,0,1,,,,,0,,,64,112
117140,note_on,,,,,0,0,2,,,,,0,,,46,112
117140,note_on,,,,,0,0,2,,,,,0,,,55,112
117140,note_on,,,,,159,0,2,,,,,0,,,43,112
117140,note_on,,,,,169,0,1,,,,,0,,,76,112
117142,control_change,,,,,2,0,2,,,64,127,0,,,,
117240,note_on,,,,,100,0,1,,,,,0,,,64,0
117247,note_on,,,,,7,0,1,,,,,0,,,70,112
117291,note_on,,,,,0,0,2,,,,,0,,,46,0
117291,note_on,,,,,149,0,2,,,,,0,,,43,0
117291,note_on,,,,,0,0,2,,,,,0,,,49,0
117291,note_on,,,,,0,0,2,,,,,0,,,55,0
117347,note_on,,,,,100,0,1,,,,,0,,,70,0
117354,note_on,,,,,7,0,1,,,,,0,,,73,112
117443,note_on,,,,,89,0,1,,,,,0,,,76,0
117454,note_on,,,,,11,0,1,,,,,0,,,73,0
117460,note_on,,,,,0,0,2,,,,,0,,,62,112
117460,note_on,,,,,0,0,2,,,,,0,,,57,112
117460,note_on,,,,,0,0,2,,,,,0,,,54,112
117460,note_on,,,,,169,0,2,,,,,0,,,50,112
117460,note_on,,,,,0,0,1,,,,,0,,,69,112
117460,note_on,,,,,0,0,1,,,,,0,,,78,112
117460,note_on,,,,,6,0,1,,,,,0,,,66,112
117611,note_on,,,,,151,0,2,,,,,0,,,50,0
117611,note_on,,,,,0,0,1,,,,,0,,,78,0
117611,note_on,,,,,151,0,1,,,,,0,,,66,0
117611,note_on,,,,,0,0,1,,,,,0,,,69,0
117611,note_on,,,,,0,0,2,,,,,0,,,57,0
117611,note_on,,,,,0,0,2,,,,,0,,,54,0
117611,note_on,,,,,0,0,2,,,,,0,,,62,0
117621,control_change,,,,,10,0,2,,,64,0,0,,,,
117780,note_on,,,,,0,0,2,,,,,0,,,55,112
117780,note_on,,,,,0,0,2,,,,,0,,,49,112
117780,note_on,,,,,159,0,2,,,,,0,,,43,112
117780,note_on,,,,,0,0,2,,,,,0,,,46,112
117780,note_on,,,,,169,0,1,,,,,0,,,82,112
117780,note_on,,,,,0,0,1,,,,,0,,,70,112
117782,control_change,,,,,2,0,2,,,64,127,0,,,,
117880,note_on,,,,,100,0,1,,,,,0,,,70,0
117887,note_on,,,,,7,0,1,,,,,0,,,73,112
117931,note_on,,,,,0,0,2,,,,,0,,,55,0
117931,note_on,,,,,0,0,2,,,,,0,,,46,0
117931,note_on,,,,,149,0,2,,,,,0,,,43,0
117931,note_on,,,,,0,0,2,,,,,0,,,49,0
117987,note_on,,,,,100,0,1,,,,,0,,,73,0
117994,note_on,,,,,7,0,1,,,,,0,,,76,112
118083,note_on,,,,,89,0,1,,,,,0,,,82,0
118094,note_on,,,,,11,0,1,,,,,0,,,76,0
118100,note_on,,,,,0,0,2,,,,,0,,,45,112
118100,note_on,,,,,0,0,2,,,,,0,,,50,112
118100,note_on,,,,,169,0,2,,,,,0,,,38,112
118100,note_on,,,,,0,0,1,,,,,0,,,74,112
118100,note_on,,,,,0,0,1,,,,,0,,,78,112
118100,note_on,,,,,6,0,1,,,,,0,,,86,112
118100,note_on,,,,,0,0,2,,,,,0,,,42,112
118251,note_on,,,,,0,0,2,,,,,0,,,50,0
118251,note_on,,,,,151,0,2,,,,,0,,,38,0
118251,note_on,,,,,0,0,1,,,,,0,,,74,0
118251,note_on,,,,,0,0,2,,,,,0,,,45,0
118251,note_on,,,,,0,0,2,,,,,0,,,42,0
118251,note_on,,,,,0,0,1,,,,,0,,,78,0
118251,note_on,,,,,151,0,1,,,,,0,,,86,0
118261,control_change,,,,,10,0,2,,,64,0,0,,,,
118420,note_on,,,,,169,0,1,,,,,0,,,88,112
118420,note_on,,,,,159,0,2,,,,,0,,,31,112
118420,note_on,,,,,0,0,2,,,,,0,,,43,112
118420,note_on,,,,,0,0,2,,,,,0,,,37,112
118420,note_on,,,,,0,0,2,,,,,0,,,34,112
118420,note_on,,,,,0,0,1,,,,,0,,,76,112
118422,control_change,,,,,2,0,2,,,64,127,0,,,,
118520,note_on,,,,,100,0,1,,,,,0,,,76,0
118527,note_on,,,,,7,0,1,,,,,0,,,82,112
118571,note_on,,,,,149,0,2,,,,,0,,,31,0
118571,note_on,,,,,0,0,2,,,,,0,,,34,0
118571,note_on,,,,,0,0,2,,,,,0,,,37,0
118571,note_on,,,,,0,0,2,,,,,0,,,43,0
118627,note_on,,,,,100,0,1,,,,,0,,,82,0
118634,note_on,,,,,7,0,1,,,,,0,,,85,112
118723,note_on,,,,,89,0,1,,,,,0,,,88,0
118734,note_on,,,,,11,0,1,,,,,0,,,85,0
118740,note_on,,,,,0,0,2,,,,,0,,,45,112
118740,note_on,,,,,0,0,2,,,,,0,,,50,112
118740,note_on,,,,,6,0,1,,,,,0,,,90,112
118740,note_on,,,,,169,0,2,,,,,0,,,38,112
118740,note_on,,,,,0,0,2,,,,,0,,,42,112
118740,note_on,,,,,0,0,1,,,,,0,,,78,112
118740,note_on,,,,,0,0,1,,,,,0,,,81,112
118891,note_on,,,,,0,0,1,,,,,0,,,78,0
118891,note_on,,,,,0,0,2,,,,,0,,,42,0
118891,note_on,,,,,151,0,1,,,,,0,,,90,0
118891,note_on,,,,,151,0,2,,,,,0,,,38,0
118891,note_on,,,,,0,0,1,,,,,0,,,81,0
118891,note_on,,,,,0,0,2,,,,,0,,,45,0
118891,note_on,,,,,0,0,2,,,,,0,,,50,0
118901,control_change,,,,,10,0,2,,,64,0,0,,,,
119060,note_on,,,,,0,0,2,,,,,0,,,34,112
119060,note_on,,,,,159,0,2,,,,,0,,,31,112
119060,note_on,,,,,0,0,2,,,,,0,,,37,112
119060,note_on,,,,,169,0,1,,,,,0,,,94,112
119060,note_on,,,,,0,0,1,,,,,0,,,82,112
119060,note_on,,,,,0,0,2,,,,,0,,,43,112
119062,control_change,,,,,2,0,2,,,64,127,0,,,,
119160,note_on,,,,,100,0,1,,,,,0,,,82,0
119167,note_on,,,,,7,0,1,,,,,0,,,85,112
119211,note_on,,,,,0,0,2,,,,,0,,,43,0
119211,note_on,,,,,0,0,2,,,,,0,,,37,0
119211,note_on,,,,,0,0,2,,,,,0,,,34,0
119211,note_on,,,,,149,0,2,,,,,0,,,31,0
119267,note_on,,,,,100,0,1,,,,,0,,,85,0
119274,note_on,,,,,7,0,1,,,,,0,,,88,112
119363,note_on,,,,,89,0,1,,,,,0,,,94,0
119374,note_on,,,,,11,0,1,,,,,0,,,88,0
119380,note_on,,,,,0,0,2,,,,,0,,,42,112
119380,note_on,,,,,6,0,1,,,,,0,,,98,112
119380,note_on,,,,,0,0,2,,,,,0,,,50,112
119380,note_on,,,,,169,0,2,,,,,0,,,38,112
119380,note_on,,,,,0,0,2,,,,,0,,,45,112
119380,note_on,,,,,0,0,1,,,,,0,,,86,112
119380,note_on,,,,,0,0,1,,,,,0,,,90,112
119531,note_on,,,,,0,0,2,,,,,0,,,45,0
119531,note_on,,,,,0,0,2,,,,,0,,,42,0
119531,note_on,,,,,151,0,1,,,,,0,,,98,0
119531,note_on,,,,,0,0,2,,,,,0,,,50,0
119531,note_on,,,,,0,0,1,,,,,0,,,86,0
119531,note_on,,,,,0,0,1,,,,,0,,,90,0
119531,note_on,,,,,151,0,2,,,,,0,,,38,0
119541,control_change,,,,,10,0,2,,,64,0,0,,,,
119700,note_on,,,,,169,0,1,,,,,0,,,94,112
119700,note_on,,,,,159,0,2,,,,,0,,,31,112
119700,note_on,,,,,0,0,2,,,,,0,,,37,112
119700,note_on,,,,,0,0,2,,,,,0,,,43,112
119700,note_on,,,,,0,0,2,,,,,0,,,34,112
119700,note_on,,,,,0,0,1,,,,,0,,,82,112
119702,control_change,,,,,2,0,2,,,64,127,0,,,,
119800,note_on,,,,,100,0,1,,,,,0,,,82,0
119807,note_on,,,,,7,0,1,,,,,0,,,85,112
119851,note_on,,,,,0,0,2,,,,,0,,,43,0
119851,note_on,,,,,0,0,2,,,,,0,,,34,0
119851,note_on,,,,,149,0,2,,,,,0,,,31,0
119851,note_on,,,,,0,0,2,,,,,0,,,37,0
119907,note_on,,,,,100,0,1,,,,,0,,,85,0
119914,note_on,,,,,7,0,1,,,,,0,,,88,112
120003,note_on,,,,,89,0,1,,,,,0,,,94,0
120014,note_on,,,,,11,0,1,,,,,0,,,88,0
120020,note_on,,,,,0,0,1,,,,,0,,,90,112
120020,note_on,,,,,0,0,2,,,,,0,,,42,112
120020,note_on,,,,,0,0,2,,,,,0,,,45,112
120020,note_on,,,,,169,0,2,,,,,0,,,38,112
120020,note_on,,,,,0,0,1,,,,,0,,,86,112
120020,note_on,,,,,0,0,2,,,,,0,,,50,112
120020,note_on,,,,,6,0,1,,,,,0,,,98,112
120171,note_on,,,,,0,0,1,,,,,0,,,86,0
120171,note_on,,,,,151,0,2,,,,,0,,,38,0
120171,note_on,,,,,151,0,1,,,,,0,,,98,0
120171,note_on,,,,,0,0,1,,,,,0,,,90,0
120171,note_on,,,,,0,0,2,,,,,0,,,50,0
120171,note_on,,,,,0,0,2,,,,,0,,,42,0
120171,note_on,,,,,0,0,2,,,,,0,,,45,0
120181,control_change,,,,,10,0,2,,,64,0,0,,,,
120340,note_on,,,,,0,0,2,,,,,0,,,37,112
120340,note_on,,,,,169,0,1,,,,,0,,,94,112
120340,note_on,,,,,159,0,2,,,,,0,,,31,112
120340,note_on,,,,,0,0,1,,,,,0,,,82,112
120340,note_on,,,,,0,0,2,,,,,0,,,34,112
120340,note_on,,,,,0,0,2,,,,,0,,,43,112
120342,control_change,,,,,2,0,2,,,64,127,0,,,,
120440,note_on,,,,,100,0,1,,,,,0,,,82,0
120447,note_on,,,,,7,0,1,,,,,0,,,85,112
120491,note_on,,,,,0,0,2,,,,,0,,,43,0
120491,note_on,,,,,0,0,2,,,,,0,,,37,0
120491,note_on,,,,,0,0,2,,,,,0,,,34,0
120491,note_on,,,,,149,0,2,,,,,0,,,31,0
120501,control_change,,,,,10,0,2,,,64,0,0,,,,
120547,note_on,,,,,100,0,1,,,,,0,,,85,0
120554,note_on,,,,,7,0,1,,,,,0,,,88,112
120643,note_on,,,,,89,0,1,,,,,0,,,94,0
120654,note_on,,,,,11,0,1,,,,,0,,,88,0
120660,note_on,,,,,0,0,1,,,,,0,,,90,112
120660,note_on,,,,,0,0,1,,,,,0,,,98,112
120660,note_on,,,,,6,0,1,,,,,0,,,86,112
120660,note_on,,,,,159,0,2,,,,,0,,,38,112
120660,note_on,,,,,0,0,2,,,,,0,,,45,112
120660,note_on,,,,,0,0,2,,,,,0,,,50,112
120660,note_on,,,,,0,0,2,,,,,0,,,42,112
120662,control_change,,,,,2,0,2,,,64,127,0,,,,
120811,note_on,,,,,151,0,1,,,,,0,,,86,0
120811,note_on,,,,,0,0,1,,,,,0,,,98,0
120811,note_on,,,,,0,0,1,,,,,0,,,90,0
120811,note_on,,,,,149,0,2,,,,,0,,,38,0
120811,note_on,,,,,0,0,2,,,,,0,,,50,0
120811,note_on,,,,,0,0,2,,,,,0,,,45,0
120811,note_on,,,,,0,0,2,,,,,0,,,42,0
120820,note_on,,,,,0,0,1,,,,,0,,,94,112
120820,note_on,,,,,9,0,1,,,,,0,,,82,112
120971,note_on,,,,,151,0,1,,,,,0,,,82,0
120971,note_on,,,,,0,0,1,,,,,0,,,94,0
120980,note_on,,,,,169,0,2,,,,,0,,,69,112
120980,note_on,,,,,0,0,2,,,,,0,,,81,112
121131,note_on,,,,,151,0,2,,,,,0,,,69,0
121131,note_on,,,,,0,0,2,,,,,0,,,81,0
121140,note_on,,,,,9,0,2,,,,,0,,,66,112
121140,note_on,,,,,0,0,2,,,,,0,,,78,112
121291,note_on,,,,,151,0,2,,,,,0,,,66,0
121291,note_on,,,,,0,0,2,,,,,0,,,78,0
121300,note_on,,,,,9,0,2,,,,,0,,,74,112
121300,note_on,,,,,0,0,2,,,,,0,,,86,112
121451,note_on,,,,,151,0,2,,,,,0,,,74,0
121451,note_on,,,,,0,0,2,,,,,0,,,86,0
121460,note_on,,,,,0,0,2,,,,,0,,,82,112
121460,note_on,,,,,9,0,2,,,,,0,,,70,112
121611,note_on,,,,,151,0,2,,,,,0,,,70,0
121611,note_on,,,,,0,0,2,,,,,0,,,82,0
121620,note_on,,,,,9,0,2,,,,,0,,,57,112
121620,note_on,,,,,0,0,2,,,,,0,,,69,112
121771,note_on,,,,,0,0,2,,,,,0,,,69,0
121771,note_on,,,,,151,0,2,,,,,0,,,57,0
121780,note_on,,,,,0,0,2,,,,,0,,,66,112
121780,note_on,,,,,9,0,2,,,,,0,,,54,112
121931,note_on,,,,,151,0,2,,,,,0,,,54,0
121931,note_on,,,,,0,0,2,,,,,0,,,66,0
121940,note_on,,,,,0,0,2,,,,,0,,,74,112
121940,note_on,,,,,9,0,2,,,,,0,,,62,112
122091,note_on,,,,,151,0,2,,,,,0,,,62,0
122091,note_on,,,,,0,0,2,,,,,0,,,74,0
122100,note_on,,,,,9,0,2,,,,,0,,,58,112
122100,note_on,,,,,0,0,2,,,,,0,,,70,112
122251,note_on,,,,,0,0,2,,,,,0,,,70,0
122251,note_on,,,,,151,0,2,,,,,0,,,58,0
122260,note_on,,,,,0,0,2,,,,,0,,,57,112
122260,note_on,,,,,9,0,2,,,,,0,,,45,112
122411,note_on,,,,,0,0,2,,,,,0,,,57,0
122411,note_on,,,,,151,0,2,,,,,0,,,45,0
122420,note_on,,,,,0,0,2,,,,,0,,,54,112
122420,note_on,,,,,9,0,2,,,,,0,,,42,112
122571,note_on,,,,,0,0,2,,,,,0,,,54,0
122571,note_on,,,,,151,0,2,,,,,0,,,42,0
122580,note_on,,,,,0,0,1,,,,,0,,,62,112
122580,note_on,,,,,1609,0,1,,,,,0,,,50,112
122731,note_on,,,,,0,0,1,,,,,0,,,62,0
122731,note_on,,,,,151,0,1,,,,,0,,,50,0
122740,note_on,,,,,0,0,1,,,,,0,,,48,112
122740,note_on,,,,,9,0,1,,,,,0,,,36,112
122891,note_on,,,,,0,0,1,,,,,0,,,48,0
122891,note_on,,,,,151,0,1,,,,,0,,,36,0
122900,note_on,,,,,9,0,1,,,,,0,,,50,112
122900,note_on,,,,,0,0,1,,,,,0,,,62,112
123051,note_on,,,,,151,0,1,,,,,0,,,50,0
123051,note_on,,,,,0,0,1,,,,,0,,,62,0
123060,note_on,,,,,0,0,1,,,,,0,,,47,112
123060,note_on,,,,,9,0,1,,,,,0,,,35,112
123211,note_on,,,,,0,0,1,,,,,0,,,47,0
123211,note_on,,,,,151,0,1,,,,,0,,,35,0
123220,note_on,,,,,9,0,1,,,,,0,,,50,112
123220,note_on,,,,,0,0,1,,,,,0,,,62,112
123371,note_on,,,,,0,0,1,,,,,0,,,62,0
123371,note_on,,,,,151,0,1,,,,,0,,,50,0
123380,note_on,,,,,0,0,1,,,,,0,,,46,112
123380,note_on,,,,,9,0,1,,,,,0,,,34,112
123531,note_on,,,,,0,0,1,,,,,0,,,46,0
123531,note_on,,,,,151,0,1,,,,,0,,,34,0
123540,note_on,,,,,0,0,1,,,,,0,,,62,112
123540,note_on,,,,,9,0,1,,,,,0,,,50,112
123691,note_on,,,,,151,0,1,,,,,0,,,50,0
123691,note_on,,,,,0,0,1,,,,,0,,,62,0
123700,note_on,,,,,9,0,1,,,,,0,,,31,112
123700,note_on,,,,,0,0,1,,,,,0,,,43,112
123851,note_on,,,,,151,0,1,,,,,0,,,31,0
123851,note_on,,,,,0,0,1,,,,,0,,,43,0
123860,note_on,,,,,0,0,1,,,,,0,,,62,112
123860,note_on,,,,,9,0,1,,,,,0,,,50,112
124011,note_on,,,,,0,0,1,,,,,0,,,62,0
124011,note_on,,,,,151,0,1,,,,,0,,,50,0
124020,note_on,,,,,9,0,1,,,,,0,,,32,112
124020,note_on,,,,,0,0,1,,,,,0,,,44,112
124171,note_on,,,,,0,0,1,,,,,0,,,44,0
124171,note_on,,,,,151,0,1,,,,,0,,,32,0
124180,note_on,,,,,0,0,1,,,,,0,,,62,112
124180,note_on,,,,,9,0,1,,,,,0,,,50,112
124331,note_on,,,,,0,0,1,,,,,0,,,62,0
124331,note_on,,,,,151,0,1,,,,,0,,,50,0
124340,note_on,,,,,0,0,1,,,,,0,,,45,112
124340,note_on,,,,,9,0,1,,,,,0,,,33,112
124491,note_on,,,,,0,0,1,,,,,0,,,45,0
124491,note_on,,,,,151,0,1,,,,,0,,,33,0
124500,set_tempo,,,,,0,1,0,,250000,,,,,,,
124500,time_signature,8,4,24,8,11521,1,0,,,,,,,,,
124500,note_on,,,,,9,0,1,,,,,0,,,26,112
124500,note_on,,,,,0,0,1,,,,,0,,,38,112
124501,control_change,,,,,1930,0,2,,,64,0,0,,,,
124613,note_on,,,,,113,0,1,,,,,0,,,26,0
124613,note_on,,,,,0,0,1,,,,,0,,,38,0
124620,note_on,,,,,7,0,1,,,,,0,,,39,112
124620,note_on,,,,,0,0,1,,,,,0,,,51,112
124733,note_on,,,,,113,0,1,,,,,0,,,39,0
124733,note_on,,,,,0,0,1,,,,,0,,,51,0
124740,note_on,,,,,7,0,1,,,,,0,,,28,112
124740,note_on,,,,,0,0,1,,,,,0,,,40,112
124853,note_on,,,,,113,0,1,,,,,0,,,28,0
124853,note_on,,,,,0,0,1,,,,,0,,,40,0
124860,note_on,,,,,0,0,1,,,,,0,,,53,112
124860,note_on,,,,,7,0,1,,,,,0,,,41,112
124973,note_on,,,,,113,0,1,,,,,0,,,41,0
124973,note_on,,,,,0,0,1,,,,,0,,,53,0
124980,note_on,,,,,0,0,1,,,,,0,,,42,112
124980,note_on,,,,,7,0,1,,,,,0,,,30,112
125093,note_on,,,,,113,0,1,,,,,0,,,30,0
125093,note_on,,,,,0,0,1,,,,,0,,,42,0
125100,note_on,,,,,7,0,1,,,,,0,,,43,112
125100,note_on,,,,,0,0,1,,,,,0,,,55,112
125213,note_on,,,,,113,0,1,,,,,0,,,43,0
125213,note_on,,,,,0,0,1,,,,,0,,,55,0
125220,note_on,,,,,7,0,1,,,,,0,,,32,112
125220,note_on,,,,,0,0,1,,,,,0,,,44,112
125333,note_on,,,,,113,0,1,,,,,0,,,32,0
125333,note_on,,,,,0,0,1,,,,,0,,,44,0
125340,note_on,,,,,0,0,1,,,,,0,,,57,112
125340,note_on,,,,,7,0,1,,,,,0,,,45,112
125453,note_on,,,,,0,0,1,,,,,0,,,57,0
125453,note_on,,,,,113,0,1,,,,,0,,,45,0
125460,note_on,,,,,0,0,1,,,,,0,,,46,112
125460,note_on,,,,,7,0,1,,,,,0,,,34,112
125573,note_on,,,,,113,0,1,,,,,0,,,34,0
125573,note_on,,,,,0,0,1,,,,,0,,,46,0
125580,note_on,,,,,0,0,1,,,,,0,,,59,112
125580,note_on,,,,,7,0,1,,,,,0,,,47,112
125693,note_on,,,,,0,0,1,,,,,0,,,59,0
125693,note_on,,,,,113,0,1,,,,,0,,,47,0
125700,note_on,,,,,7,0,1,,,,,0,,,36,112
125700,note_on,,,,,0,0,1,,,,,0,,,48,112
125813,note_on,,,,,0,0,1,,,,,0,,,48,0
125813,note_on,,,,,113,0,1,,,,,0,,,36,0
125820,note_on,,,,,7,0,1,,,,,0,,,49,112
125820,note_on,,,,,0,0,1,,,,,0,,,61,112
125933,note_on,,,,,0,0,1,,,,,0,,,61,0
125933,note_on,,,,,113,0,1,,,,,0,,,49,0
125940,note_on,,,,,0,0,1,,,,,0,,,50,112
125940,note_on,,,,,7,0,1,,,,,0,,,38,112
126053,note_on,,,,,113,0,1,,,,,0,,,38,0
126053,note_on,,,,,0,0,1,,,,,0,,,50,0
126060,note_on,,,,,7,0,1,,,,,0,,,51,112
126060,note_on,,,,,0,0,1,,,,,0,,,63,112
126173,note_on,,,,,0,0,1,,,,,0,,,63,0
126173,note_on,,,,,113,0,1,,,,,0,,,51,0
126180,note_on,,,,,7,0,1,,,,,0,,,40,112
126180,note_on,,,,,0,0,1,,,,,0,,,52,112
126293,note_on,,,,,0,0,1,,,,,0,,,52,0
126293,note_on,,,,,113,0,1,,,,,0,,,40,0
126300,note_on,,,,,7,0,1,,,,,0,,,53,112
126300,note_on,,,,,0,0,1,,,,,0,,,65,112
126413,note_on,,,,,113,0,1,,,,,0,,,53,0
126413,note_on,,,,,0,0,1,,,,,0,,,65,0
126420,note_on,,,,,7,0,1,,,,,0,,,42,112
126420,note_on,,,,,0,0,1,,,,,0,,,54,112
126533,note_on,,,,,113,0,1,,,,,0,,,42,0
126533,note_on,,,,,0,0,1,,,,,0,,,54,0
126540,note_on,,,,,7,0,1,,,,,0,,,55,112
126540,note_on,,,,,0,0,1,,,,,0,,,67,112
126653,note_on,,,,,113,0,1,,,,,0,,,55,0
126653,note_on,,,,,0,0,1,,,,,0,,,67,0
126660,note_on,,,,,0,0,1,,,,,0,,,56,112
126660,note_on,,,,,7,0,1,,,,,0,,,44,112
126773,note_on,,,,,0,0,1,,,,,0,,,56,0
126773,note_on,,,,,113,0,1,,,,,0,,,44,0
126780,note_on,,,,,7,0,1,,,,,0,,,57,112
126780,note_on,,,,,0,0,1,,,,,0,,,69,112
126893,note_on,,,,,113,0,1,,,,,0,,,57,0
126893,note_on,,,,,0,0,1,,,,,0,,,69,0
126900,note_on,,,,,0,0,1,,,,,0,,,58,112
126900,note_on,,,,,7,0,1,,,,,0,,,46,112
127013,note_on,,,,,0,0,1,,,,,0,,,58,0
127013,note_on,,,,,113,0,1,,,,,0,,,46,0
127020,note_on,,,,,0,0,1,,,,,0,,,71,112
127020,note_on,,,,,7,0,1,,,,,0,,,59,112
127133,note_on,,,,,113,0,1,,,,,0,,,59,0
127133,note_on,,,,,0,0,1,,,,,0,,,71,0
127140,note_on,,,,,0,0,1,,,,,0,,,60,112
127140,note_on,,,,,7,0,1,,,,,0,,,48,112
127253,note_on,,,,,0,0,1,,,,,0,,,60,0
127253,note_on,,,,,113,0,1,,,,,0,,,48,0
127260,note_on,,,,,0,0,1,,,,,0,,,73,112
127260,note_on,,,,,7,0,1,,,,,0,,,61,112
127373,note_on,,,,,0,0,1,,,,,0,,,73,0
127373,note_on,,,,,113,0,1,,,,,0,,,61,0
127380,note_on,,,,,7,0,1,,,,,0,,,50,112
127380,note_on,,,,,0,0,1,,,,,0,,,62,112
127493,note_on,,,,,113,0,1,,,,,0,,,50,0
127493,note_on,,,,,0,0,1,,,,,0,,,62,0
127500,note_on,,,,,0,0,1,,,,,0,,,75,112
127500,note_on,,,,,7,0,1,,,,,0,,,63,112
127613,note_on,,,,,113,0,1,,,,,0,,,63,0
127613,note_on,,,,,0,0,1,,,,,0,,,75,0
127620,note_on,,,,,7,0,1,,,,,0,,,52,112
127620,note_on,,,,,0,0,1,,,,,0,,,64,112
127733,note_on,,,,,0,0,1,,,,,0,,,64,0
127733,note_on,,,,,113,0,1,,,,,0,,,52,0
127740,note_on,,,,,0,0,1,,,,,0,,,77,112
127740,note_on,,,,,7,0,1,,,,,0,,,65,112
127853,note_on,,,,,113,0,1,,,,,0,,,65,0
127853,note_on,,,,,0,0,1,,,,,0,,,77,0
127860,note_on,,,,,7,0,1,,,,,0,,,54,112
127860,note_on,,,,,0,0,1,,,,,0,,,66,112
127973,note_on,,,,,113,0,1,,,,,0,,,54,0
127973,note_on,,,,,0,0,1,,,,,0,,,66,0
127980,note_on,,,,,0,0,1,,,,,0,,,79,112
127980,note_on,,,,,7,0,1,,,,,0,,,67,112
128093,note_on,,,,,0,0,1,,,,,0,,,79,0
128093,note_on,,,,,113,0,1,,,,,0,,,67,0
128100,note_on,,,,,0,0,1,,,,,0,,,68,112
128100,note_on,,,,,7,0,1,,,,,0,,,56,112
128213,note_on,,,,,113,0,1,,,,,0,,,56,0
128213,note_on,,,,,0,0,1,,,,,0,,,68,0
128220,note_on,,,,,0,0,1,,,,,0,,,81,112
128220,note_on,,,,,7,0,1,,,,,0,,,69,112
128333,note_on,,,,,113,0,1,,,,,0,,,69,0
128333,note_on,,,,,0,0,1,,,,,0,,,81,0
128340,note_on,,,,,7,0,1,,,,,0,,,58,112
128340,time_signature,12,4,24,8,3840,1,0,,,,,,,,,
128340,note_on,,,,,0,0,1,,,,,0,,,70,112
128453,note_on,,,,,0,0,1,,,,,0,,,70,0
128453,note_on,,,,,113,0,1,,,,,0,,,58,0
128460,note_on,,,,,7,0,1,,,,,0,,,71,112
128460,note_on,,,,,0,0,1,,,,,0,,,83,112
128573,note_on,,,,,113,0,1,,,,,0,,,71,0
128573,note_on,,,,,0,0,1,,,,,0,,,83,0
128580,note_on,,,,,7,0,1,,,,,0,,,60,112
128580,note_on,,,,,0,0,1,,,,,0,,,72,112
128693,note_on,,,,,113,0,1,,,,,0,,,60,0
128693,note_on,,,,,0,0,1,,,,,0,,,72,0
128700,note_on,,,,,7,0,1,,,,,0,,,73,112
128700,note_on,,,,,0,0,1,,,,,0,,,85,112
128813,note_on,,,,,113,0,1,,,,,0,,,73,0
128813,note_on,,,,,0,0,1,,,,,0,,,85,0
128820,note_on,,,,,0,0,1,,,,,0,,,74,112
128820,note_on,,,,,7,0,1,,,,,0,,,62,112
128933,note_on,,,,,0,0,1,,,,,0,,,74,0
128933,note_on,,,,,113,0,1,,,,,0,,,62,0
128940,note_on,,,,,0,0,1,,,,,0,,,85,127
128940,note_on,,,,,7,0,1,,,,,0,,,73,127
129059,note_on,,,,,0,0,1,,,,,0,,,85,0
129059,note_on,,,,,119,0,1,,,,,0,,,73,0
129060,note_on,,,,,1,0,1,,,,,0,,,60,112
129060,note_on,,,,,0,0,1,,,,,0,,,72,112
129173,note_on,,,,,0,0,1,,,,,0,,,72,0
129173,note_on,,,,,113,0,1,,,,,0,,,60,0
129180,note_on,,,,,0,0,1,,,,,0,,,83,112
129180,note_on,,,,,7,0,1,,,,,0,,,71,112
129293,note_on,,,,,0,0,1,,,,,0,,,83,0
129293,note_on,,,,,113,0,1,,,,,0,,,71,0
129300,note_on,,,,,0,0,1,,,,,0,,,70,112
129300,note_on,,,,,7,0,1,,,,,0,,,58,112
129413,note_on,,,,,0,0,1,,,,,0,,,70,0
129413,note_on,,,,,113,0,1,,,,,0,,,58,0
129420,note_on,,,,,0,0,1,,,,,0,,,81,112
129420,note_on,,,,,7,0,1,,,,,0,,,69,112
129533,note_on,,,,,0,0,1,,,,,0,,,81,0
129533,note_on,,,,,113,0,1,,,,,0,,,69,0
129540,note_on,,,,,0,0,1,,,,,0,,,68,112
129540,note_on,,,,,7,0,1,,,,,0,,,56,112
129653,note_on,,,,,113,0,1,,,,,0,,,56,0
129653,note_on,,,,,0,0,1,,,,,0,,,68,0
129660,note_on,,,,,7,0,1,,,,,0,,,67,112
129660,note_on,,,,,0,0,1,,,,,0,,,79,112
129773,note_on,,,,,0,0,1,,,,,0,,,79,0
129773,note_on,,,,,113,0,1,,,,,0,,,67,0
129780,note_on,,,,,7,0,1,,,,,0,,,54,112
129780,note_on,,,,,0,0,1,,,,,0,,,66,112
129893,note_on,,,,,0,0,1,,,,,0,,,66,0
129893,note_on,,,,,113,0,1,,,,,0,,,54,0
129900,note_on,,,,,0,0,1,,,,,0,,,77,112
129900,note_on,,,,,7,0,1,,,,,0,,,65,112
130013,note_on,,,,,0,0,1,,,,,0,,,77,0
130013,note_on,,,,,113,0,1,,,,,0,,,65,0
130020,note_on,,,,,7,0,1,,,,,0,,,52,112
130020,note_on,,,,,0,0,1,,,,,0,,,64,112
130133,note_on,,,,,113,0,1,,,,,0,,,52,0
130133,note_on,,,,,0,0,1,,,,,0,,,64,0
130140,note_on,,,,,0,0,1,,,,,0,,,75,112
130140,note_on,,,,,7,0,1,,,,,0,,,63,112
130253,note_on,,,,,0,0,1,,,,,0,,,75,0
130253,note_on,,,,,113,0,1,,,,,0,,,63,0
130260,note_on,,,,,0,0,1,,,,,0,,,62,112
130260,note_on,,,,,7,0,1,,,,,0,,,50,112
130373,note_on,,,,,113,0,1,,,,,0,,,50,0
130373,note_on,,,,,0,0,1,,,,,0,,,62,0
130380,note_on,,,,,7,0,1,,,,,0,,,61,112
130380,note_on,,,,,0,0,1,,,,,0,,,73,112
130493,note_on,,,,,113,0,1,,,,,0,,,61,0
130493,note_on,,,,,0,0,1,,,,,0,,,73,0
130500,note_on,,,,,0,0,1,,,,,0,,,60,112
130500,note_on,,,,,7,0,1,,,,,0,,,48,112
130613,note_on,,,,,113,0,1,,,,,0,,,48,0
130613,note_on,,,,,0,0,1,,,,,0,,,60,0
130620,note_on,,,,,0,0,1,,,,,0,,,71,112
130620,note_on,,,,,7,0,1,,,,,0,,,59,112
130733,note_on,,,,,113,0,1,,,,,0,,,59,0
130733,note_on,,,,,0,0,1,,,,,0,,,71,0
130740,note_on,,,,,0,0,1,,,,,0,,,58,112
130740,note_on,,,,,7,0,1,,,,,0,,,46,112
130853,note_on,,,,,113,0,1,,,,,0,,,46,0
130853,note_on,,,,,0,0,1,,,,,0,,,58,0
130860,note_on,,,,,7,0,1,,,,,0,,,57,112
130860,note_on,,,,,0,0,1,,,,,0,,,69,112
130973,note_on,,,,,113,0,1,,,,,0,,,57,0
130973,note_on,,,,,0,0,1,,,,,0,,,69,0
130980,note_on,,,,,7,0,1,,,,,0,,,44,112
130980,note_on,,,,,0,0,1,,,,,0,,,56,112
131093,note_on,,,,,113,0,1,,,,,0,,,44,0
131093,note_on,,,,,0,0,1,,,,,0,,,56,0
131100,note_on,,,,,7,0,1,,,,,0,,,55,112
131100,note_on,,,,,0,0,1,,,,,0,,,67,112
131213,note_on,,,,,113,0,1,,,,,0,,,55,0
131213,note_on,,,,,0,0,1,,,,,0,,,67,0
131220,note_on,,,,,7,0,1,,,,,0,,,42,112
131220,note_on,,,,,0,0,1,,,,,0,,,54,112
131333,note_on,,,,,0,0,1,,,,,0,,,54,0
131333,note_on,,,,,113,0,1,,,,,0,,,42,0
131340,note_on,,,,,0,0,1,,,,,0,,,65,112
131340,note_on,,,,,7,0,1,,,,,0,,,53,112
131340,set_tempo,,,,,3000,1,0,,333333,,,,,,,
131453,note_on,,,,,113,0,1,,,,,0,,,53,0
131453,note_on,,,,,0,0,1,,,,,0,,,65,0
131460,note_on,,,,,0,0,1,,,,,0,,,52,112
131460,note_on,,,,,7,0,1,,,,,0,,,40,112
131573,note_on,,,,,113,0,1,,,,,0,,,40,0
131573,note_on,,,,,0,0,1,,,,,0,,,52,0
131580,note_on,,,,,7,0,1,,,,,0,,,51,112
131580,note_on,,,,,0,0,1,,,,,0,,,63,112
131693,note_on,,,,,0,0,1,,,,,0,,,63,0
131693,note_on,,,,,113,0,1,,,,,0,,,51,0
131700,note_on,,,,,7,0,1,,,,,0,,,38,112
131700,note_on,,,,,0,0,1,,,,,0,,,50,112
131813,note_on,,,,,0,0,1,,,,,0,,,50,0
131813,note_on,,,,,113,0,1,,,,,0,,,38,0
131820,note_on,,,,,7,0,1,,,,,0,,,49,112
131820,note_on,,,,,0,0,1,,,,,0,,,61,112
131933,note_on,,,,,0,0,1,,,,,0,,,61,0
131933,note_on,,,,,113,0,1,,,,,0,,,49,0
131940,note_on,,,,,7,0,1,,,,,0,,,36,112
131940,note_on,,,,,0,0,1,,,,,0,,,48,112
132053,note_on,,,,,113,0,1,,,,,0,,,36,0
132053,note_on,,,,,0,0,1,,,,,0,,,48,0
132060,note_on,,,,,7,0,1,,,,,0,,,47,112
132060,note_on,,,,,0,0,1,,,,,0,,,59,112
132173,note_on,,,,,0,0,1,,,,,0,,,59,0
132173,note_on,,,,,113,0,1,,,,,0,,,47,0
132180,note_on,,,,,0,0,1,,,,,0,,,46,112
132180,note_on,,,,,7,0,1,,,,,0,,,34,112
132293,note_on,,,,,113,0,1,,,,,0,,,34,0
132293,note_on,,,,,0,0,1,,,,,0,,,46,0
132300,note_on,,,,,0,0,1,,,,,0,,,57,112
132300,note_on,,,,,7,0,1,,,,,0,,,45,112
132413,note_on,,,,,113,0,1,,,,,0,,,45,0
132413,note_on,,,,,0,0,1,,,,,0,,,57,0
132420,note_on,,,,,0,0,1,,,,,0,,,44,112
132420,note_on,,,,,7,0,1,,,,,0,,,32,112
132533,note_on,,,,,0,0,1,,,,,0,,,44,0
132533,note_on,,,,,113,0,1,,,,,0,,,32,0
132540,note_on,,,,,0,0,1,,,,,0,,,55,112
132540,note_on,,,,,7,0,1,,,,,0,,,43,112
132653,note_on,,,,,113,0,1,,,,,0,,,43,0
132653,note_on,,,,,0,0,1,,,,,0,,,55,0
132660,note_on,,,,,7,0,1,,,,,0,,,30,112
132660,note_on,,,,,0,0,1,,,,,0,,,42,112
132773,note_on,,,,,0,0,1,,,,,0,,,42,0
132773,note_on,,,,,113,0,1,,,,,0,,,30,0
132780,note_on,,,,,0,0,1,,,,,0,,,53,112
132780,note_on,,,,,7,0,1,,,,,0,,,41,112
132893,note_on,,,,,113,0,1,,,,,0,,,41,0
132893,note_on,,,,,0,0,1,,,,,0,,,53,0
132900,note_on,,,,,7,0,1,,,,,0,,,28,112
132900,note_on,,,,,0,0,1,,,,,0,,,40,112
133013,note_on,,,,,113,0,1,,,,,0,,,28,0
133013,note_on,,,,,0,0,1,,,,,0,,,40,0
133020,note_on,,,,,7,0,1,,,,,0,,,39,112
133020,note_on,,,,,0,0,1,,,,,0,,,51,112
133133,note_on,,,,,113,0,1,,,,,0,,,39,0
133133,note_on,,,,,0,0,1,,,,,0,,,51,0
133140,set_tempo,,,,,1800,1,0,,1333333,,,,,,,
133140,note_on,,,,,8639,0,2,,,,,0,,,26,112
133140,note_on,,,,,0,0,2,,,,,0,,,38,112
133142,control_change,,,,,2,0,2,,,64,127,0,,,,
133443,note_on,,,,,0,0,2,,,,,0,,,38,0
133443,note_on,,,,,301,0,2,,,,,0,,,26,0
133460,note_on,,,,,0,0,2,,,,,0,,,50,112
133460,set_tempo,,,,,320,1,0,,1499999,,,,,,,
133460,note_on,,,,,17,0,2,,,,,0,,,38,112
133763,note_on,,,,,303,0,2,,,,,0,,,38,0
133763,note_on,,,,,0,0,2,,,,,0,,,50,0
133780,note_on,,,,,17,0,2,,,,,0,,,50,112
133780,set_tempo,,,,,320,1,0,,3000003,,,,,,,
133780,note_on,,,,,0,0,2,,,,,0,,,62,112
134083,note_on,,,,,303,0,2,,,,,0,,,50,0
134083,note_on,,,,,0,0,2,,,,,0,,,62,0
134099,set_tempo,,,,,319,1,0,,333333,,,,,,,
134100,key_signature,,,,,967,1,1,Bb,,,,,,,,
134100,note_on,,,,,0,0,2,,,,,0,,,46,60
134100,time_signature,4,4,24,8,1,1,0,,,,,,,,,
134100,key_signature,,,,,17,1,2,Bb,,,,,,,,
134100,key_signature,,,,,0,1,0,Bb,,,,,,,,
134100,note_on,,,,,0,0,2,,,,,0,,,62,60
134100,set_tempo,,,,,0,1,0,,428572,,,,,,,
134101,control_change,,,,,1,0,2,,,64,0,0,,,,
134102,control_change,,,,,1,0,2,,,64,127,0,,,,
134163,note_on,,,,,61,0,2,,,,,0,,,53,60
134227,note_on,,,,,64,0,2,,,,,0,,,58,60
134260,note_on,,,,,160,0,1,,,,,0,,,62,60
134260,note_on,,,,,33,0,2,,,,,0,,,62,0
134260,note_on,,,,,0,0,1,,,,,0,,,65,60
134338,note_on,,,,,78,0,2,,,,,0,,,53,0
134338,note_on,,,,,0,0,2,,,,,0,,,58,0
134339,note_on,,,,,1,0,2,,,,,0,,,46,0
134411,note_on,,,,,151,0,1,,,,,0,,,65,0
134420,note_on,,,,,9,0,1,,,,,0,,,70,60
134420,note_on,,,,,0,0,1,,,,,0,,,74,60
134571,note_on,,,,,151,0,1,,,,,0,,,70,0
134571,note_on,,,,,0,0,1,,,,,0,,,74,0
134580,note_on,,,,,0,0,1,,,,,0,,,77,60
134580,note_on,,,,,9,0,1,,,,,0,,,74,60
134731,note_on,,,,,151,0,1,,,,,0,,,74,0
134731,note_on,,,,,0,0,1,,,,,0,,,77,0
134740,note_on,,,,,9,0,1,,,,,0,,,82,60
134740,note_on,,,,,0,0,1,,,,,0,,,86,60
134891,note_on,,,,,0,0,1,,,,,0,,,86,0
134891,note_on,,,,,151,0,1,,,,,0,,,82,0
134900,note_on,,,,,9,0,1,,,,,0,,,86,60
134900,note_on,,,,,0,0,1,,,,,0,,,89,60
135011,note_on,,,,,111,0,1,,,,,0,,,62,0
135051,note_on,,,,,40,0,1,,,,,0,,,86,0
135051,note_on,,,,,0,0,1,,,,,0,,,89,0
135060,note_on,,,,,721,0,2,,,,,0,,,62,60
135060,note_on,,,,,0,0,1,,,,,0,,,98,60
135060,note_on,,,,,9,0,1,,,,,0,,,94,60
135060,note_on,,,,,0,0,2,,,,,0,,,34,60
135102,note_on,,,,,42,0,2,,,,,0,,,46,60
135144,note_on,,,,,42,0,2,,,,,0,,,53,60
135186,note_on,,,,,42,0,2,,,,,0,,,58,60
135211,note_on,,,,,151,0,1,,,,,0,,,94,0
135211,note_on,,,,,0,0,1,,,,,0,,,98,0
135220,note_on,,,,,9,0,1,,,,,0,,,86,60
135220,note_on,,,,,0,0,1,,,,,0,,,89,60
135299,note_on,,,,,113,0,2,,,,,0,,,34,0
135299,note_on,,,,,0,0,2,,,,,0,,,46,0
135299,note_on,,,,,0,0,2,,,,,0,,,58,0
135299,note_on,,,,,0,0,2,,,,,0,,,53,0
135371,note_on,,,,,151,0,1,,,,,0,,,86,0
135371,note_on,,,,,0,0,1,,,,,0,,,89,0
135380,note_on,,,,,9,0,1,,,,,0,,,82,60
135380,note_on,,,,,0,0,1,,,,,0,,,86,60
135531,note_on,,,,,151,0,1,,,,,0,,,82,0
135531,note_on,,,,,0,0,1,,,,,0,,,86,0
135540,note_on,,,,,0,0,1,,,,,0,,,77,60
135540,note_on,,,,,9,0,1,,,,,0,,,74,60
135691,note_on,,,,,0,0,1,,,,,0,,,77,0
135691,note_on,,,,,151,0,1,,,,,0,,,74,0
135700,note_on,,,,,9,0,1,,,,,0,,,70,60
135700,note_on,,,,,0,0,1,,,,,0,,,74,60
135743,note_on,,,,,444,0,2,,,,,0,,,62,0
135780,note_on,,,,,37,0,2,,,,,0,,,60,60
135851,note_on,,,,,151,0,1,,,,,0,,,70,0
135851,note_on,,,,,0,0,1,,,,,0,,,74,0
135860,note_on,,,,,0,0,1,,,,,0,,,65,60
135860,note_on,,,,,9,0,1,,,,,0,,,62,60
136007,note_on,,,,,227,0,2,,,,,0,,,60,0
136011,note_on,,,,,0,0,1,,,,,0,,,65,0
136011,note_on,,,,,151,0,1,,,,,0,,,62,0
136020,note_on,,,,,13,0,2,,,,,0,,,58,60
136020,note_on,,,,,0,0,2,,,,,0,,,46,60
136021,control_change,,,,,1,0,2,,,64,0,0,,,,
136022,control_change,,,,,1,0,2,,,64,127,0,,,,
136083,note_on,,,,,61,0,2,,,,,0,,,50,60
136147,note_on,,,,,64,0,2,,,,,0,,,53,60
136180,note_on,,,,,169,0,1,,,,,0,,,62,60
136180,note_on,,,,,0,0,1,,,,,0,,,65,60
136258,note_on,,,,,111,0,2,,,,,0,,,50,0
136258,note_on,,,,,0,0,2,,,,,0,,,53,0
136259,note_on,,,,,1,0,2,,,,,0,,,46,0
136331,note_on,,,,,0,0,1,,,,,0,,,65,0
136331,note_on,,,,,151,0,1,,,,,0,,,62,0
136340,note_on,,,,,9,0,1,,,,,0,,,70,60
136340,note_on,,,,,0,0,1,,,,,0,,,74,60
136491,note_on,,,,,151,0,1,,,,,0,,,70,0
136491,note_on,,,,,0,0,1,,,,,0,,,74,0
136500,note_on,,,,,0,0,1,,,,,0,,,77,60
136500,note_on,,,,,9,0,1,,,,,0,,,74,60
136651,note_on,,,,,0,0,1,,,,,0,,,77,0
136651,note_on,,,,,151,0,1,,,,,0,,,74,0
136660,note_on,,,,,0,0,1,,,,,0,,,86,60
136660,note_on,,,,,9,0,1,,,,,0,,,82,60
136811,note_on,,,,,0,0,1,,,,,0,,,86,0
136811,note_on,,,,,151,0,1,,,,,0,,,82,0
136820,note_on,,,,,9,0,1,,,,,0,,,86,60
136820,note_on,,,,,0,0,1,,,,,0,,,89,60
136931,note_on,,,,,672,0,2,,,,,0,,,58,0
136971,note_on,,,,,0,0,1,,,,,0,,,89,0
136971,note_on,,,,,151,0,1,,,,,0,,,86,0
136980,note_on,,,,,9,0,1,,,,,0,,,94,60
136980,note_on,,,,,49,0,2,,,,,0,,,58,60
136980,note_on,,,,,0,0,2,,,,,0,,,34,60
136980,note_on,,,,,0,0,1,,,,,0,,,98,60
137022,note_on,,,,,42,0,2,,,,,0,,,46,60
137064,note_on,,,,,42,0,2,,,,,0,,,50,60
137106,note_on,,,,,42,0,2,,,,,0,,,53,60
137131,note_on,,,,,0,0,1,,,,,0,,,98,0
137131,note_on,,,,,151,0,1,,,,,0,,,94,0
137140,note_on,,,,,9,0,1,,,,,0,,,86,60
137140,note_on,,,,,0,0,1,,,,,0,,,89,60
137219,note_on,,,,,0,0,2,,,,,0,,,46,0
137219,note_on,,,,,0,0,2,,,,,0,,,50,0
137219,note_on,,,,,0,0,2,,,,,0,,,53,0
137219,note_on,,,,,113,0,2,,,,,0,,,34,0
137291,note_on,,,,,151,0,1,,,,,0,,,86,0
137291,note_on,,,,,0,0,1,,,,,0,,,89,0
137300,note_on,,,,,9,0,1,,,,,0,,,82,60
137300,note_on,,,,,0,0,1,,,,,0,,,86,60
137451,note_on,,,,,151,0,1,,,,,0,,,82,0
137451,note_on,,,,,0,0,1,,,,,0,,,86,0
137460,note_on,,,,,9,0,1,,,,,0,,,74,60
137460,note_on,,,,,0,0,1,,,,,0,,,77,60
137611,note_on,,,,,0,0,1,,,,,0,,,77,0
137611,note_on,,,,,151,0,1,,,,,0,,,74,0
137620,note_on,,,,,0,0,1,,,,,0,,,74,60
137620,note_on,,,,,9,0,1,,,,,0,,,70,60
137663,note_on,,,,,444,0,2,,,,,0,,,58,0
137700,note_on,,,,,37,0,2,,,,,0,,,58,60
137771,note_on,,,,,151,0,1,,,,,0,,,70,0
137771,note_on,,,,,0,0,1,,,,,0,,,74,0
137780,note_on,,,,,9,0,1,,,,,0,,,62,60
137780,note_on,,,,,0,0,1,,,,,0,,,65,60
137927,note_on,,,,,227,0,2,,,,,0,,,58,0
137931,note_on,,,,,151,0,1,,,,,0,,,62,0
137931,note_on,,,,,0,0,1,,,,,0,,,65,0
137940,note_on,,,,,0,0,2,,,,,0,,,46,60
137940,note_on,,,,,13,0,2,,,,,0,,,57,60
137941,control_change,,,,,1,0,2,,,64,0,0,,,,
137942,control_change,,,,,1,0,2,,,64,127,0,,,,
138003,note_on,,,,,61,0,2,,,,,0,,,51,60
138067,note_on,,,,,64,0,2,,,,,0,,,54,60
138100,note_on,,,,,0,0,1,,,,,0,,,66,60
138100,note_on,,,,,169,0,1,,,,,0,,,63,60
138178,note_on,,,,,111,0,2,,,,,0,,,51,0
138178,note_on,,,,,0,0,2,,,,,0,,,54,0
138179,note_on,,,,,1,0,2,,,,,0,,,46,0
138251,note_on,,,,,151,0,1,,,,,0,,,63,0
138251,note_on,,,,,0,0,1,,,,,0,,,66,0
138260,note_on,,,,,9,0,1,,,,,0,,,72,60
138260,note_on,,,,,0,0,1,,,,,0,,,75,60
138411,note_on,,,,,0,0,1,,,,,0,,,75,0
138411,note_on,,,,,151,0,1,,,,,0,,,72,0
138420,note_on,,,,,0,0,1,,,,,0,,,78,60
138420,note_on,,,,,9,0,1,,,,,0,,,75,60
138571,note_on,,,,,0,0,1,,,,,0,,,78,0
138571,note_on,,,,,151,0,1,,,,,0,,,75,0
138580,note_on,,,,,0,0,1,,,,,0,,,87,60
138580,note_on,,,,,9,0,1,,,,,0,,,84,60
138623,note_on,,,,,444,0,2,,,,,0,,,57,0
138660,note_on,,,,,37,0,2,,,,,0,,,57,60
138731,note_on,,,,,0,0,1,,,,,0,,,87,0
138731,note_on,,,,,151,0,1,,,,,0,,,84,0
138740,note_on,,,,,9,0,1,,,,,0,,,87,60
138740,note_on,,,,,0,0,1,,,,,0,,,90,60
138887,note_on,,,,,227,0,2,,,,,0,,,57,0
138891,note_on,,,,,0,0,1,,,,,0,,,90,0
138891,note_on,,,,,151,0,1,,,,,0,,,87,0
138900,note_on,,,,,9,0,1,,,,,0,,,96,60
138900,note_on,,,,,13,0,2,,,,,0,,,66,60
138900,note_on,,,,,0,0,2,,,,,0,,,54,60
138900,note_on,,,,,0,0,1,,,,,0,,,99,60
138963,note_on,,,,,63,0,2,,,,,0,,,57,60
139051,note_on,,,,,0,0,1,,,,,0,,,99,0
139051,note_on,,,,,151,0,1,,,,,0,,,96,0
139060,note_on,,,,,9,0,1,,,,,0,,,87,60
139060,note_on,,,,,0,0,1,,,,,0,,,90,60
139138,note_on,,,,,175,0,2,,,,,0,,,57,0
139139,note_on,,,,,1,0,2,,,,,0,,,54,0
139211,note_on,,,,,151,0,1,,,,,0,,,87,0
139211,note_on,,,,,0,0,1,,,,,0,,,90,0
139220,note_on,,,,,0,0,1,,,,,0,,,87,60
139220,note_on,,,,,9,0,1,,,,,0,,,84,60
139371,note_on,,,,,151,0,1,,,,,0,,,84,0
139371,note_on,,,,,0,0,1,,,,,0,,,87,0
139380,note_on,,,,,9,0,1,,,,,0,,,75,60
139380,note_on,,,,,0,0,1,,,,,0,,,78,60
139531,note_on,,,,,0,0,1,,,,,0,,,78,0
139531,note_on,,,,,151,0,1,,,,,0,,,75,0
139540,note_on,,,,,0,0,1,,,,,0,,,75,60
139540,note_on,,,,,9,0,1,,,,,0,,,72,60
139583,note_on,,,,,444,0,2,,,,,0,,,66,0
139620,note_on,,,,,37,0,2,,,,,0,,,57,60
139691,note_on,,,,,0,0,1,,,,,0,,,75,0
139691,note_on,,,,,151,0,1,,,,,0,,,72,0
139700,note_on,,,,,0,0,1,,,,,0,,,66,60
139700,note_on,,,,,9,0,1,,,,,0,,,63,60
139847,note_on,,,,,227,0,2,,,,,0,,,57,0
139851,note_on,,,,,0,0,1,,,,,0,,,66,0
139851,note_on,,,,,151,0,1,,,,,0,,,63,0
139860,note_on,,,,,13,0,2,,,,,0,,,60,60
139860,note_on,,,,,0,0,2,,,,,0,,,46,60
139861,control_change,,,,,1,0,2,,,64,0,0,,,,
139862,control_change,,,,,1,0,2,,,64,127,0,,,,
139923,note_on,,,,,61,0,2,,,,,0,,,53,60
140020,note_on,,,,,0,0,1,,,,,0,,,65,60
140020,note_on,,,,,169,0,1,,,,,0,,,62,60
140098,note_on,,,,,175,0,2,,,,,0,,,53,0
140099,note_on,,,,,1,0,2,,,,,0,,,46,0
140171,note_on,,,,,151,0,1,,,,,0,,,62,0
140171,note_on,,,,,0,0,1,,,,,0,,,65,0
140180,note_on,,,,,9,0,1,,,,,0,,,70,60
140180,note_on,,,,,0,0,1,,,,,0,,,74,60
140331,note_on,,,,,0,0,1,,,,,0,,,74,0
140331,note_on,,,,,151,0,1,,,,,0,,,70,0
140340,note_on,,,,,0,0,1,,,,,0,,,77,60
140340,note_on,,,,,9,0,1,,,,,0,,,74,60
140491,note_on,,,,,151,0,1,,,,,0,,,74,0
140491,note_on,,,,,0,0,1,,,,,0,,,77,0
140500,note_on,,,,,0,0,1,,,,,0,,,86,60
140500,note_on,,,,,9,0,1,,,,,0,,,82,60
140651,note_on,,,,,151,0,1,,,,,0,,,82,0
140651,note_on,,,,,0,0,1,,,,,0,,,86,0
140660,note_on,,,,,0,0,1,,,,,0,,,89,60
140660,note_on,,,,,9,0,1,,,,,0,,,86,60
140771,note_on,,,,,672,0,2,,,,,0,,,60,0
140811,note_on,,,,,151,0,1,,,,,0,,,86,0
140811,note_on,,,,,0,0,1,,,,,0,,,89,0
140820,note_on,,,,,49,0,2,,,,,0,,,58,60
140820,note_on,,,,,9,0,1,,,,,0,,,94,60
140820,note_on,,,,,0,0,1,,,,,0,,,98,60
140971,note_on,,,,,151,0,1,,,,,0,,,94,0
140971,note_on,,,,,0,0,1,,,,,0,,,98,0
140980,note_on,,,,,0,0,1,,,,,0,,,89,60
140980,note_on,,,,,9,0,1,,,,,0,,,86,60
141047,note_on,,,,,227,0,2,,,,,0,,,58,0
141131,note_on,,,,,151,0,1,,,,,0,,,86,0
141131,note_on,,,,,0,0,1,,,,,0,,,89,0
141140,note_on,,,,,0,0,1,,,,,0,,,86,60
141140,note_on,,,,,9,0,1,,,,,0,,,82,60
141291,note_on,,,,,0,0,1,,,,,0,,,86,0
141291,note_on,,,,,151,0,1,,,,,0,,,82,0
141300,note_on,,,,,9,0,1,,,,,0,,,74,60
141300,note_on,,,,,0,0,1,,,,,0,,,77,60
141451,note_on,,,,,151,0,1,,,,,0,,,74,0
141451,note_on,,,,,0,0,1,,,,,0,,,77,0
141460,note_on,,,,,9,0,1,,,,,0,,,70,60
141460,note_on,,,,,0,0,1,,,,,0,,,74,60
141611,note_on,,,,,151,0,1,,,,,0,,,70,0
141611,note_on,,,,,0,0,1,,,,,0,,,74,0
141620,note_on,,,,,0,0,1,,,,,0,,,65,60
141620,note_on,,,,,9,0,1,,,,,0,,,62,60
141771,note_on,,,,,151,0,1,,,,,0,,,62,0
141771,note_on,,,,,0,0,1,,,,,0,,,65,0
141780,note_on,,,,,0,0,2,,,,,0,,,50,60
141780,note_on,,,,,733,0,2,,,,,0,,,62,60
141781,control_change,,,,,1,0,2,,,64,0,0,,,,
141782,control_change,,,,,1,0,2,,,64,127,0,,,,
141843,note_on,,,,,61,0,2,,,,,0,,,55,60
141907,note_on,,,,,64,0,2,,,,,0,,,58,60
141940,note_on,,,,,33,0,2,,,,,0,,,62,0
141940,note_on,,,,,169,0,1,,,,,0,,,62,60
141940,note_on,,,,,0,0,1,,,,,0,,,67,60
142018,note_on,,,,,0,0,2,,,,,0,,,58,0
142018,note_on,,,,,78,0,2,,,,,0,,,55,0
142019,note_on,,,,,1,0,2,,,,,0,,,50,0
142091,note_on,,,,,151,0,1,,,,,0,,,67,0
142100,note_on,,,,,0,0,1,,,,,0,,,74,60
142100,note_on,,,,,9,0,1,,,,,0,,,70,60
142251,note_on,,,,,151,0,1,,,,,0,,,70,0
142251,note_on,,,,,0,0,1,,,,,0,,,74,0
142260,note_on,,,,,0,0,1,,,,,0,,,79,60
142260,note_on,,,,,9,0,1,,,,,0,,,74,60
142411,note_on,,,,,151,0,1,,,,,0,,,74,0
142411,note_on,,,,,0,0,1,,,,,0,,,79,0
142420,note_on,,,,,0,0,1,,,,,0,,,86,60
142420,note_on,,,,,9,0,1,,,,,0,,,82,60
142571,note_on,,,,,0,0,1,,,,,0,,,86,0
142571,note_on,,,,,151,0,1,,,,,0,,,82,0
142580,note_on,,,,,0,0,1,,,,,0,,,91,60
142580,note_on,,,,,9,0,1,,,,,0,,,86,60
142691,note_on,,,,,111,0,1,,,,,0,,,62,0
142731,note_on,,,,,40,0,1,,,,,0,,,86,0
142731,note_on,,,,,0,0,1,,,,,0,,,91,0
142740,note_on,,,,,0,0,2,,,,,0,,,31,60
142740,note_on,,,,,0,0,1,,,,,0,,,98,60
142740,note_on,,,,,721,0,2,,,,,0,,,62,60
142740,note_on,,,,,9,0,1,,,,,0,,,94,60
142782,note_on,,,,,42,0,2,,,,,0,,,43,60
142824,note_on,,,,,42,0,2,,,,,0,,,50,60
142866,note_on,,,,,42,0,2,,,,,0,,,55,60
142891,note_on,,,,,151,0,1,,,,,0,,,94,0
142891,note_on,,,,,0,0,1,,,,,0,,,98,0
142900,note_on,,,,,9,0,1,,,,,0,,,86,60
142900,note_on,,,,,0,0,1,,,,,0,,,91,60
142908,note_on,,,,,42,0,2,,,,,0,,,58,60
142979,note_on,,,,,0,0,2,,,,,0,,,58,0
142979,note_on,,,,,0,0,2,,,,,0,,,55,0
142979,note_on,,,,,0,0,2,,,,,0,,,50,0
142979,note_on,,,,,0,0,2,,,,,0,,,43,0
142979,note_on,,,,,71,0,2,,,,,0,,,31,0
143051,note_on,,,,,151,0,1,,,,,0,,,86,0
143051,note_on,,,,,0,0,1,,,,,0,,,91,0
143060,note_on,,,,,9,0,1,,,,,0,,,82,60
143060,note_on,,,,,0,0,1,,,,,0,,,86,60
143211,note_on,,,,,0,0,1,,,,,0,,,86,0
143211,note_on,,,,,151,0,1,,,,,0,,,82,0
143220,note_on,,,,,0,0,1,,,,,0,,,79,60
143220,note_on,,,,,9,0,1,,,,,0,,,74,60
143371,note_on,,,,,0,0,1,,,,,0,,,79,0
143371,note_on,,,,,151,0,1,,,,,0,,,74,0
143380,note_on,,,,,0,0,1,,,,,0,,,74,60
143380,note_on,,,,,9,0,1,,,,,0,,,70,60
143423,note_on,,,,,444,0,2,,,,,0,,,62,0
143460,note_on,,,,,37,0,2,,,,,0,,,60,60
143531,note_on,,,,,0,0,1,,,,,0,,,74,0
143531,note_on,,,,,151,0,1,,,,,0,,,70,0
143540,note_on,,,,,9,0,1,,,,,0,,,62,60
143540,note_on,,,,,0,0,1,,,,,0,,,67,60
143687,note_on,,,,,227,0,2,,,,,0,,,60,0
143691,note_on,,,,,151,0,1,,,,,0,,,62,0
143691,note_on,,,,,0,0,1,,,,,0,,,67,0
143700,note_on,,,,,13,0,2,,,,,0,,,58,60
143700,note_on,,,,,0,0,2,,,,,0,,,43,60
143701,control_change,,,,,1,0,2,,,64,0,0,,,,
143702,control_change,,,,,1,0,2,,,64,127,0,,,,
143763,note_on,,,,,61,0,2,,,,,0,,,50,60
143860,note_on,,,,,169,0,1,,,,,0,,,62,60
143860,note_on,,,,,0,0,1,,,,,0,,,67,60
143938,note_on,,,,,175,0,2,,,,,0,,,50,0
143939,note_on,,,,,1,0,2,,,,,0,,,43,0
144011,note_on,,,,,0,0,1,,,,,0,,,67,0
144011,note_on,,,,,151,0,1,,,,,0,,,62,0
144020,note_on,,,,,0,0,1,,,,,0,,,74,60
144020,note_on,,,,,9,0,1,,,,,0,,,70,60
144171,note_on,,,,,151,0,1,,,,,0,,,70,0
144171,note_on,,,,,0,0,1,,,,,0,,,74,0
144180,note_on,,,,,0,0,1,,,,,0,,,79,60
144180,note_on,,,,,9,0,1,,,,,0,,,74,60
144331,note_on,,,,,151,0,1,,,,,0,,,74,0
144331,note_on,,,,,0,0,1,,,,,0,,,79,0
144340,note_on,,,,,9,0,1,,,,,0,,,82,60
144340,note_on,,,,,0,0,1,,,,,0,,,86,60
144491,note_on,,,,,0,0,1,,,,,0,,,86,0
144491,note_on,,,,,151,0,1,,,,,0,,,82,0
144500,note_on,,,,,0,0,1,,,,,0,,,91,60
144500,note_on,,,,,9,0,1,,,,,0,,,86,60
144611,note_on,,,,,672,0,2,,,,,0,,,58,0
144651,note_on,,,,,151,0,1,,,,,0,,,86,0
144651,note_on,,,,,0,0,1,,,,,0,,,91,0
144660,note_on,,,,,9,0,1,,,,,0,,,94,60
144660,note_on,,,,,49,0,2,,,,,0,,,58,60
144660,note_on,,,,,0,0,2,,,,,0,,,31,60
144660,note_on,,,,,0,0,1,,,,,0,,,98,60
144702,note_on,,,,,42,0,2,,,,,0,,,43,60
144744,note_on,,,,,42,0,2,,,,,0,,,50,60
144786,note_on,,,,,42,0,2,,,,,0,,,55,60
144811,note_on,,,,,151,0,1,,,,,0,,,94,0
144811,note_on,,,,,0,0,1,,,,,0,,,98,0
144820,note_on,,,,,0,0,1,,,,,0,,,91,60
144820,note_on,,,,,9,0,1,,,,,0,,,86,60
144899,note_on,,,,,0,0,2,,,,,0,,,55,0
144899,note_on,,,,,0,0,2,,,,,0,,,50,0
144899,note_on,,,,,113,0,2,,,,,0,,,31,0
144899,note_on,,,,,0,0,2,,,,,0,,,43,0
144971,note_on,,,,,0,0,1,,,,,0,,,91,0
144971,note_on,,,,,151,0,1,,,,,0,,,86,0
144980,note_on,,,,,0,0,1,,,,,0,,,86,60
144980,note_on,,,,,9,0,1,,,,,0,,,82,60
145131,note_on,,,,,0,0,1,,,,,0,,,86,0
145131,note_on,,,,,151,0,1,,,,,0,,,82,0
145140,note_on,,,,,0,0,1,,,,,0,,,79,60
145140,note_on,,,,,9,0,1,,,,,0,,,74,60
145291,note_on,,,,,0,0,1,,,,,0,,,79,0
145291,note_on,,,,,151,0,1,,,,,0,,,74,0
145300,note_on,,,,,0,0,1,,,,,0,,,74,60
145300,note_on,,,,,9,0,1,,,,,0,,,70,60
145343,note_on,,,,,444,0,2,,,,,0,,,58,0
145380,note_on,,,,,37,0,2,,,,,0,,,58,60
145451,note_on,,,,,0,0,1,,,,,0,,,74,0
145451,note_on,,,,,151,0,1,,,,,0,,,70,0
145460,note_on,,,,,0,0,1,,,,,0,,,67,60
145460,note_on,,,,,9,0,1,,,,,0,,,62,60
145607,note_on,,,,,227,0,2,,,,,0,,,58,0
145611,note_on,,,,,151,0,1,,,,,0,,,62,0
145611,note_on,,,,,0,0,1,,,,,0,,,67,0
145620,note_on,,,,,13,0,2,,,,,0,,,61,60
145620,note_on,,,,,0,0,2,,,,,0,,,48,60
145621,control_change,,,,,1,0,2,,,64,0,0,,,,
145622,control_change,,,,,1,0,2,,,64,127,0,,,,
145683,note_on,,,,,61,0,2,,,,,0,,,52,60
145747,note_on,,,,,64,0,2,,,,,0,,,58,60
145780,note_on,,,,,169,0,1,,,,,0,,,64,60
145780,note_on,,,,,0,0,1,,,,,0,,,67,60
145858,note_on,,,,,111,0,2,,,,,0,,,52,0
145858,note_on,,,,,0,0,2,,,,,0,,,58,0
145859,note_on,,,,,1,0,2,,,,,0,,,48,0
145931,note_on,,,,,151,0,1,,,,,0,,,64,0
145931,note_on,,,,,0,0,1,,,,,0,,,67,0
145940,note_on,,,,,9,0,1,,,,,0,,,70,60
145940,note_on,,,,,0,0,1,,,,,0,,,76,60
146091,note_on,,,,,0,0,1,,,,,0,,,76,0
146091,note_on,,,,,151,0,1,,,,,0,,,70,0
146100,note_on,,,,,9,0,1,,,,,0,,,76,60
146100,note_on,,,,,0,0,1,,,,,0,,,79,60
146251,note_on,,,,,0,0,1,,,,,0,,,79,0
146251,note_on,,,,,151,0,1,,,,,0,,,76,0
146260,note_on,,,,,0,0,1,,,,,0,,,88,60
146260,note_on,,,,,9,0,1,,,,,0,,,82,60
146303,note_on,,,,,444,0,2,,,,,0,,,61,0
146340,note_on,,,,,37,0,2,,,,,0,,,60,60
146411,note_on,,,,,151,0,1,,,,,0,,,82,0
146411,note_on,,,,,0,0,1,,,,,0,,,88,0
146420,note_on,,,,,9,0,1,,,,,0,,,88,60
146420,note_on,,,,,0,0,1,,,,,0,,,91,60
146567,note_on,,,,,227,0,2,,,,,0,,,60,0
146571,note_on,,,,,151,0,1,,,,,0,,,88,0
146571,note_on,,,,,0,0,1,,,,,0,,,91,0
146580,note_on,,,,,0,0,1,,,,,0,,,100,60
146580,note_on,,,,,9,0,1,,,,,0,,,94,60
146580,note_on,,,,,13,0,2,,,,,0,,,70,60
146580,note_on,,,,,0,0,2,,,,,0,,,55,60
146643,note_on,,,,,63,0,2,,,,,0,,,60,60
146731,note_on,,,,,151,0,1,,,,,0,,,94,0
146731,note_on,,,,,0,0,1,,,,,0,,,100,0
146740,note_on,,,,,0,0,1,,,,,0,,,91,60
146740,note_on,,,,,9,0,1,,,,,0,,,88,60
146818,note_on,,,,,175,0,2,,,,,0,,,60,0
146819,note_on,,,,,1,0,2,,,,,0,,,55,0
146891,note_on,,,,,0,0,1,,,,,0,,,91,0
146891,note_on,,,,,151,0,1,,,,,0,,,88,0
146900,note_on,,,,,9,0,1,,,,,0,,,82,60
146900,note_on,,,,,0,0,1,,,,,0,,,88,60
147051,note_on,,,,,151,0,1,,,,,0,,,82,0
147051,note_on,,,,,0,0,1,,,,,0,,,88,0
147060,note_on,,,,,9,0,1,,,,,0,,,76,60
147060,note_on,,,,,0,0,1,,,,,0,,,79,60
147211,note_on,,,,,0,0,1,,,,,0,,,79,0
147211,note_on,,,,,151,0,1,,,,,0,,,76,0
147220,note_on,,,,,401,0,2,,,,,0,,,70,0
147220,note_on,,,,,9,0,1,,,,,0,,,70,60
147220,note_on,,,,,0,0,1,,,,,0,,,76,60
147300,note_on,,,,,80,0,2,,,,,0,,,64,60
147371,note_on,,,,,151,0,1,,,,,0,,,70,0
147371,note_on,,,,,0,0,1,,,,,0,,,76,0
147380,note_on,,,,,9,0,1,,,,,0,,,67,60
147531,note_on,,,,,151,0,1,,,,,0,,,67,0
147539,note_on,,,,,239,0,2,,,,,0,,,64,0
147540,note_on,,,,,1,0,2,,,,,0,,,65,60
147540,note_on,,,,,0,0,2,,,,,0,,,41,60
147541,control_change,,,,,1,0,2,,,64,0,0,,,,
147542,control_change,,,,,1,0,2,,,64,127,0,,,,
147603,note_on,,,,,61,0,2,,,,,0,,,48,60
147667,note_on,,,,,64,0,2,,,,,0,,,57,60
147700,note_on,,,,,0,0,1,,,,,0,,,69,60
147700,note_on,,,,,169,0,1,,,,,0,,,65,60
147700,note_on,,,,,33,0,2,,,,,0,,,65,0
147778,note_on,,,,,0,0,2,,,,,0,,,57,0
147778,note_on,,,,,78,0,2,,,,,0,,,48,0
147779,note_on,,,,,1,0,2,,,,,0,,,41,0
147851,note_on,,,,,151,0,1,,,,,0,,,69,0
147860,note_on,,,,,9,0,1,,,,,0,,,72,60
147860,note_on,,,,,0,0,1,,,,,0,,,77,60
148011,note_on,,,,,151,0,1,,,,,0,,,72,0
148011,note_on,,,,,0,0,1,,,,,0,,,77,0
148020,note_on,,,,,9,0,1,,,,,0,,,77,60
148020,note_on,,,,,0,0,1,,,,,0,,,81,60
148171,note_on,,,,,151,0,1,,,,,0,,,77,0
148171,note_on,,,,,0,0,1,,,,,0,,,81,0
148180,note_on,,,,,0,0,1,,,,,0,,,89,60
148180,note_on,,,,,9,0,1,,,,,0,,,84,60
148331,note_on,,,,,151,0,1,,,,,0,,,84,0
148331,note_on,,,,,0,0,1,,,,,0,,,89,0
148340,note_on,,,,,0,0,1,,,,,0,,,93,60
148340,note_on,,,,,9,0,1,,,,,0,,,89,60
148491,note_on,,,,,0,0,1,,,,,0,,,93,0
148491,note_on,,,,,151,0,1,,,,,0,,,89,0
148500,note_on,,,,,0,0,1,,,,,0,,,101,60
148500,note_on,,,,,9,0,1,,,,,0,,,96,60
148651,note_on,,,,,0,0,1,,,,,0,,,101,0
148651,note_on,,,,,151,0,1,,,,,0,,,96,0
148660,note_on,,,,,0,0,1,,,,,0,,,93,60
148660,note_on,,,,,9,0,1,,,,,0,,,89,60
148811,note_on,,,,,151,0,1,,,,,0,,,89,0
148811,note_on,,,,,0,0,1,,,,,0,,,93,0
148820,note_on,,,,,0,0,1,,,,,0,,,89,60
148820,note_on,,,,,9,0,1,,,,,0,,,84,60
148907,note_on,,,,,87,0,1,,,,,0,,,65,0
148971,note_on,,,,,0,0,1,,,,,0,,,89,0
148971,note_on,,,,,64,0,1,,,,,0,,,84,0
148980,note_on,,,,,9,0,1,,,,,0,,,77,60
148980,note_on,,,,,0,0,1,,,,,0,,,81,60
149131,note_on,,,,,151,0,1,,,,,0,,,77,0
149131,note_on,,,,,0,0,1,,,,,0,,,81,0
149140,note_on,,,,,0,0,1,,,,,0,,,77,60
149140,note_on,,,,,9,0,1,,,,,0,,,72,60
149291,note_on,,,,,0,0,1,,,,,0,,,77,0
149291,note_on,,,,,151,0,1,,,,,0,,,72,0
149300,note_on,,,,,9,0,1,,,,,0,,,65,60
149300,note_on,,,,,0,0,1,,,,,0,,,69,60
149451,note_on,,,,,151,0,1,,,,,0,,,65,0
149451,note_on,,,,,0,0,1,,,,,0,,,69,0
149460,note_on,,,,,0,0,2,,,,,0,,,49,60
149460,note_on,,,,,1681,0,2,,,,,0,,,65,60
149461,control_change,,,,,1,0,2,,,64,0,0,,,,
149462,control_change,,,,,1,0,2,,,64,127,0,,,,
149523,note_on,,,,,61,0,2,,,,,0,,,56,60
149587,note_on,,,,,64,0,2,,,,,0,,,61,60
149620,note_on,,,,,169,0,1,,,,,0,,,65,60
149620,note_on,,,,,33,0,2,,,,,0,,,65,0
149620,note_on,,,,,0,0,1,,,,,0,,,68,60
149698,note_on,,,,,0,0,2,,,,,0,,,61,0
149698,note_on,,,,,78,0,2,,,,,0,,,56,0
149699,note_on,,,,,1,0,2,,,,,0,,,49,0
149771,note_on,,,,,151,0,1,,,,,0,,,68,0
149780,note_on,,,,,9,0,1,,,,,0,,,73,60
149780,note_on,,,,,0,0,1,,,,,0,,,77,60
149931,note_on,,,,,0,0,1,,,,,0,,,77,0
149931,note_on,,,,,151,0,1,,,,,0,,,73,0
149940,note_on,,,,,9,0,1,,,,,0,,,77,60
149940,note_on,,,,,0,0,1,,,,,0,,,80,60
150091,note_on,,,,,151,0,1,,,,,0,,,77,0
150091,note_on,,,,,0,0,1,,,,,0,,,80,0
150100,note_on,,,,,0,0,1,,,,,0,,,89,60
150100,note_on,,,,,9,0,1,,,,,0,,,85,60
150251,note_on,,,,,151,0,1,,,,,0,,,85,0
150251,note_on,,,,,0,0,1,,,,,0,,,89,0
150260,note_on,,,,,9,0,1,,,,,0,,,89,60
150260,note_on,,,,,0,0,1,,,,,0,,,92,60
150371,note_on,,,,,111,0,1,,,,,0,,,65,0
150411,note_on,,,,,40,0,1,,,,,0,,,89,0
150411,note_on,,,,,0,0,1,,,,,0,,,92,0
150420,note_on,,,,,0,0,1,,,,,0,,,101,60
150420,note_on,,,,,721,0,2,,,,,0,,,65,60
150420,note_on,,,,,9,0,1,,,,,0,,,97,60
150420,note_on,,,,,0,0,2,,,,,0,,,37,60
150462,note_on,,,,,42,0,2,,,,,0,,,49,60
150504,note_on,,,,,42,0,2,,,,,0,,,56,60
150546,note_on,,,,,42,0,2,,,,,0,,,61,60
150571,note_on,,,,,0,0,1,,,,,0,,,101,0
150571,note_on,,,,,151,0,1,,,,,0,,,97,0
150580,note_on,,,,,9,0,1,,,,,0,,,89,60
150580,note_on,,,,,0,0,1,,,,,0,,,92,60
150659,note_on,,,,,0,0,2,,,,,0,,,49,0
150659,note_on,,,,,113,0,2,,,,,0,,,37,0
150659,note_on,,,,,0,0,2,,,,,0,,,61,0
150659,note_on,,,,,0,0,2,,,,,0,,,56,0
150731,note_on,,,,,151,0,1,,,,,0,,,89,0
150731,note_on,,,,,0,0,1,,,,,0,,,92,0
150740,note_on,,,,,9,0,1,,,,,0,,,85,60
150740,note_on,,,,,0,0,1,,,,,0,,,89,60
150891,note_on,,,,,0,0,1,,,,,0,,,89,0
150891,note_on,,,,,151,0,1,,,,,0,,,85,0
150900,note_on,,,,,0,0,1,,,,,0,,,80,60
150900,note_on,,,,,9,0,1,,,,,0,,,77,60
151051,note_on,,,,,151,0,1,,,,,0,,,77,0
151051,note_on,,,,,0,0,1,,,,,0,,,80,0
151060,note_on,,,,,9,0,1,,,,,0,,,73,60
151060,note_on,,,,,0,0,1,,,,,0,,,77,60
151103,note_on,,,,,444,0,2,,,,,0,,,65,0
151140,note_on,,,,,37,0,2,,,,,0,,,65,60
151211,note_on,,,,,0,0,1,,,,,0,,,77,0
151211,note_on,,,,,151,0,1,,,,,0,,,73,0
151220,note_on,,,,,9,0,1,,,,,0,,,68,60
151371,note_on,,,,,151,0,1,,,,,0,,,68,0
151379,note_on,,,,,239,0,2,,,,,0,,,65,0
151380,note_on,,,,,0,0,2,,,,,0,,,56,60
151380,note_on,,,,,1,0,2,,,,,0,,,68,72
151381,control_change,,,,,1,0,2,,,64,0,0,,,,
151382,control_change,,,,,1,0,2,,,64,127,0,,,,
151443,note_on,,,,,61,0,2,,,,,0,,,61,60
151507,note_on,,,,,64,0,2,,,,,0,,,63,60
151540,note_on,,,,,169,0,1,,,,,0,,,63,60
151540,note_on,,,,,0,0,1,,,,,0,,,68,60
151540,note_on,,,,,0,0,2,,,,,0,,,68,0
151540,note_on,,,,,33,0,2,,,,,0,,,63,0
151618,note_on,,,,,78,0,2,,,,,0,,,61,0
151619,note_on,,,,,1,0,2,,,,,0,,,56,0
151691,note_on,,,,,151,0,1,,,,,0,,,63,0
151700,note_on,,,,,0,0,1,,,,,0,,,75,60
151700,note_on,,,,,9,0,1,,,,,0,,,73,60
151851,note_on,,,,,0,0,1,,,,,0,,,75,0
151851,note_on,,,,,151,0,1,,,,,0,,,73,0
151860,note_on,,,,,0,0,1,,,,,0,,,80,60
151860,note_on,,,,,9,0,1,,,,,0,,,75,60
152011,note_on,,,,,0,0,1,,,,,0,,,80,0
152011,note_on,,,,,151,0,1,,,,,0,,,75,0
152020,note_on,,,,,9,0,1,,,,,0,,,85,60
152020,note_on,,,,,0,0,1,,,,,0,,,87,60
152171,note_on,,,,,0,0,1,,,,,0,,,87,0
152171,note_on,,,,,151,0,1,,,,,0,,,85,0
152180,note_on,,,,,9,0,1,,,,,0,,,87,60
152180,note_on,,,,,0,0,1,,,,,0,,,92,60
152331,note_on,,,,,0,0,1,,,,,0,,,92,0
152331,note_on,,,,,151,0,1,,,,,0,,,87,0
152339,note_on,,,,,8,0,1,,,,,0,,,68,0
152340,note_on,,,,,1,0,1,,,,,0,,,96,60
152340,note_on,,,,,0,0,1,,,,,0,,,99,60
152340,note_on,,,,,721,0,2,,,,,0,,,63,60
152340,note_on,,,,,0,0,2,,,,,0,,,44,60
152382,note_on,,,,,42,0,2,,,,,0,,,51,60
152424,note_on,,,,,42,0,2,,,,,0,,,56,60
152466,note_on,,,,,42,0,2,,,,,0,,,60,60
152491,note_on,,,,,151,0,1,,,,,0,,,96,0
152491,note_on,,,,,0,0,1,,,,,0,,,99,0
152500,note_on,,,,,9,0,1,,,,,0,,,87,60
152500,note_on,,,,,0,0,1,,,,,0,,,92,60
152579,note_on,,,,,113,0,2,,,,,0,,,44,0
152579,note_on,,,,,0,0,2,,,,,0,,,51,0
152579,note_on,,,,,0,0,2,,,,,0,,,56,0
152579,note_on,,,,,0,0,2,,,,,0,,,60,0
152651,note_on,,,,,151,0,1,,,,,0,,,87,0
152651,note_on,,,,,0,0,1,,,,,0,,,92,0
152660,note_on,,,,,9,0,1,,,,,0,,,84,60
152660,note_on,,,,,0,0,1,,,,,0,,,87,60
152795,note_on,,,,,216,0,2,,,,,0,,,63,0
152811,note_on,,,,,151,0,1,,,,,0,,,84,0
152811,note_on,,,,,0,0,1,,,,,0,,,87,0
152820,note_on,,,,,9,0,1,,,,,0,,,75,60
152820,note_on,,,,,0,0,1,,,,,0,,,80,60
152971,note_on,,,,,0,0,1,,,,,0,,,80,0
152971,note_on,,,,,151,0,1,,,,,0,,,75,0
152980,note_on,,,,,9,0,1,,,,,0,,,72,60
152980,note_on,,,,,0,0,1,,,,,0,,,75,60
153131,note_on,,,,,0,0,1,,,,,0,,,75,0
153131,note_on,,,,,151,0,1,,,,,0,,,72,0
153140,note_on,,,,,0,0,1,,,,,0,,,68,60
153140,note_on,,,,,9,0,1,,,,,0,,,63,60
153291,note_on,,,,,0,0,1,,,,,0,,,68,0
153291,note_on,,,,,151,0,1,,,,,0,,,63,0
153300,note_on,,,,,505,0,2,,,,,0,,,63,60
153300,note_on,,,,,0,0,2,,,,,0,,,48,60
153301,control_change,,,,,1,0,2,,,64,0,0,,,,
153302,control_change,,,,,1,0,2,,,64,127,0,,,,
153363,note_on,,,,,61,0,2,,,,,0,,,55,60
153427,note_on,,,,,64,0,2,,,,,0,,,60,60
153460,note_on,,,,,169,0,1,,,,,0,,,63,60
153460,note_on,,,,,0,0,1,,,,,0,,,67,60
153460,note_on,,,,,33,0,2,,,,,0,,,63,0
153538,note_on,,,,,0,0,2,,,,,0,,,60,0
153538,note_on,,,,,78,0,2,,,,,0,,,55,0
153539,note_on,,,,,1,0,2,,,,,0,,,48,0
153611,note_on,,,,,151,0,1,,,,,0,,,67,0
153620,note_on,,,,,0,0,1,,,,,0,,,75,60
153620,note_on,,,,,9,0,1,,,,,0,,,72,60
153771,note_on,,,,,151,0,1,,,,,0,,,72,0
153771,note_on,,,,,0,0,1,,,,,0,,,75,0
153780,note_on,,,,,0,0,1,,,,,0,,,79,60
153780,note_on,,,,,9,0,1,,,,,0,,,75,60
153931,note_on,,,,,151,0,1,,,,,0,,,75,0
153931,note_on,,,,,0,0,1,,,,,0,,,79,0
153940,note_on,,,,,0,0,1,,,,,0,,,87,60
153940,note_on,,,,,9,0,1,,,,,0,,,84,60
154091,note_on,,,,,0,0,1,,,,,0,,,87,0
154091,note_on,,,,,151,0,1,,,,,0,,,84,0
154100,note_on,,,,,9,0,1,,,,,0,,,87,60
154100,note_on,,,,,0,0,1,,,,,0,,,91,60
154211,note_on,,,,,111,0,1,,,,,0,,,63,0
154251,note_on,,,,,40,0,1,,,,,0,,,87,0
154251,note_on,,,,,0,0,1,,,,,0,,,91,0
154260,note_on,,,,,0,0,2,,,,,0,,,36,60
154260,note_on,,,,,721,0,2,,,,,0,,,63,60
154260,note_on,,,,,9,0,1,,,,,0,,,96,60
154260,note_on,,,,,0,0,1,,,,,0,,,99,60
154302,note_on,,,,,42,0,2,,,,,0,,,48,60
154344,note_on,,,,,42,0,2,,,,,0,,,55,60
154386,note_on,,,,,42,0,2,,,,,0,,,60,60
154411,note_on,,,,,0,0,1,,,,,0,,,99,0
154411,note_on,,,,,151,0,1,,,,,0,,,96,0
154420,note_on,,,,,0,0,1,,,,,0,,,91,60
154420,note_on,,,,,9,0,1,,,,,0,,,87,60
154499,note_on,,,,,0,0,2,,,,,0,,,60,0
154499,note_on,,,,,113,0,2,,,,,0,,,36,0
154499,note_on,,,,,0,0,2,,,,,0,,,48,0
154499,note_on,,,,,0,0,2,,,,,0,,,55,0
154571,note_on,,,,,151,0,1,,,,,0,,,87,0
154571,note_on,,,,,0,0,1,,,,,0,,,91,0
154580,note_on,,,,,9,0,1,,,,,0,,,84,60
154580,note_on,,,,,0,0,1,,,,,0,,,87,60
154731,note_on,,,,,0,0,1,,,,,0,,,87,0
154731,note_on,,,,,151,0,1,,,,,0,,,84,0
154740,note_on,,,,,0,0,1,,,,,0,,,79,60
154740,note_on,,,,,9,0,1,,,,,0,,,75,60
154891,note_on,,,,,151,0,1,,,,,0,,,75,0
154891,note_on,,,,,0,0,1,,,,,0,,,79,0
154900,note_on,,,,,0,0,1,,,,,0,,,75,60
154900,note_on,,,,,9,0,1,,,,,0,,,72,60
154943,note_on,,,,,444,0,2,,,,,0,,,63,0
154980,note_on,,,,,37,0,2,,,,,0,,,63,60
155051,note_on,,,,,0,0,1,,,,,0,,,75,0
155051,note_on,,,,,151,0,1,,,,,0,,,72,0
155060,note_on,,,,,9,0,1,,,,,0,,,67,60
155211,note_on,,,,,151,0,1,,,,,0,,,67,0
155219,note_on,,,,,239,0,2,,,,,0,,,63,0
155220,note_on,,,,,1,0,2,,,,,0,,,67,72
155220,note_on,,,,,0,0,2,,,,,0,,,55,60
155221,control_change,,,,,1,0,2,,,64,0,0,,,,
155222,control_change,,,,,1,0,2,,,64,127,0,,,,
155283,note_on,,,,,61,0,2,,,,,0,,,60,60
155347,note_on,,,,,64,0,2,,,,,0,,,62,60
155380,note_on,,,,,33,0,2,,,,,0,,,62,0
155380,note_on,,,,,0,0,2,,,,,0,,,67,0
155380,note_on,,,,,169,0,1,,,,,0,,,62,60
155380,note_on,,,,,0,0,1,,,,,0,,,67,60
155458,note_on,,,,,78,0,2,,,,,0,,,60,0
155459,note_on,,,,,1,0,2,,,,,0,,,55,0
155531,note_on,,,,,151,0,1,,,,,0,,,62,0
155540,note_on,,,,,9,0,1,,,,,0,,,72,60
155540,note_on,,,,,0,0,1,,,,,0,,,74,60
155691,note_on,,,,,151,0,1,,,,,0,,,72,0
155691,note_on,,,,,0,0,1,,,,,0,,,74,0
155700,note_on,,,,,9,0,1,,,,,0,,,74,60
155700,note_on,,,,,0,0,1,,,,,0,,,79,60
155851,note_on,,,,,151,0,1,,,,,0,,,74,0
155851,note_on,,,,,0,0,1,,,,,0,,,79,0
155860,note_on,,,,,9,0,1,,,,,0,,,84,60
155860,note_on,,,,,0,0,1,,,,,0,,,86,60
156011,note_on,,,,,151,0,1,,,,,0,,,84,0
156011,note_on,,,,,0,0,1,,,,,0,,,86,0
156020,note_on,,,,,9,0,1,,,,,0,,,86,60
156020,note_on,,,,,0,0,1,,,,,0,,,91,60
156171,note_on,,,,,151,0,1,,,,,0,,,86,0
156171,note_on,,,,,0,0,1,,,,,0,,,91,0
156179,note_on,,,,,8,0,1,,,,,0,,,67,0
156180,note_on,,,,,0,0,1,,,,,0,,,98,60
156180,note_on,,,,,721,0,2,,,,,0,,,62,60
156180,note_on,,,,,0,0,2,,,,,0,,,43,60
156180,note_on,,,,,1,0,1,,,,,0,,,95,60
156222,note_on,,,,,42,0,2,,,,,0,,,50,60
156264,note_on,,,,,42,0,2,,,,,0,,,55,60
156306,note_on,,,,,42,0,2,,,,,0,,,59,60
156331,note_on,,,,,151,0,1,,,,,0,,,95,0
156331,note_on,,,,,0,0,1,,,,,0,,,98,0
156340,note_on,,,,,0,0,1,,,,,0,,,91,60
156340,note_on,,,,,9,0,1,,,,,0,,,86,60
156419,note_on,,,,,0,0,2,,,,,0,,,50,0
156419,note_on,,,,,113,0,2,,,,,0,,,43,0
156419,note_on,,,,,0,0,2,,,,,0,,,59,0
156419,note_on,,,,,0,0,2,,,,,0,,,55,0
156491,note_on,,,,,151,0,1,,,,,0,,,86,0
156491,note_on,,,,,0,0,1,,,,,0,,,91,0
156500,note_on,,,,,9,0,1,,,,,0,,,83,60
156500,note_on,,,,,0,0,1,,,,,0,,,86,60
156635,note_on,,,,,216,0,2,,,,,0,,,62,0
156651,note_on,,,,,151,0,1,,,,,0,,,83,0
156651,note_on,,,,,0,0,1,,,,,0,,,86,0
156660,note_on,,,,,0,0,1,,,,,0,,,79,60
156660,note_on,,,,,9,0,1,,,,,0,,,74,60
156811,note_on,,,,,151,0,1,,,,,0,,,74,0
156811,note_on,,,,,0,0,1,,,,,0,,,79,0
156820,note_on,,,,,0,0,1,,,,,0,,,74,60
156820,note_on,,,,,9,0,1,,,,,0,,,71,60
156971,note_on,,,,,0,0,1,,,,,0,,,74,0
156971,note_on,,,,,151,0,1,,,,,0,,,71,0
156980,note_on,,,,,9,0,1,,,,,0,,,62,60
156980,note_on,,,,,0,0,1,,,,,0,,,67,60
157131,note_on,,,,,0,0,1,,,,,0,,,67,0
157131,note_on,,,,,151,0,1,,,,,0,,,62,0
157140,note_on,,,,,505,0,2,,,,,0,,,62,60
157140,note_on,,,,,0,0,2,,,,,0,,,46,60
157141,control_change,,,,,1,0,2,,,64,0,0,,,,
157142,control_change,,,,,1,0,2,,,64,127,0,,,,
157203,note_on,,,,,61,0,2,,,,,0,,,53,60
157267,note_on,,,,,64,0,2,,,,,0,,,58,60
157300,note_on,,,,,33,0,2,,,,,0,,,62,0
157300,note_on,,,,,0,0,1,,,,,0,,,65,60
157300,note_on,,,,,169,0,1,,,,,0,,,62,60
157378,note_on,,,,,78,0,2,,,,,0,,,53,0
157378,note_on,,,,,0,0,2,,,,,0,,,58,0
157379,note_on,,,,,1,0,2,,,,,0,,,46,0
157451,note_on,,,,,151,0,1,,,,,0,,,65,0
157460,note_on,,,,,9,0,1,,,,,0,,,70,60
157460,note_on,,,,,0,0,1,,,,,0,,,74,60
157611,note_on,,,,,151,0,1,,,,,0,,,70,0
157611,note_on,,,,,0,0,1,,,,,0,,,74,0
157620,note_on,,,,,9,0,1,,,,,0,,,74,60
157620,note_on,,,,,0,0,1,,,,,0,,,77,60
157771,note_on,,,,,0,0,1,,,,,0,,,77,0
157771,note_on,,,,,151,0,1,,,,,0,,,74,0
157780,note_on,,,,,9,0,1,,,,,0,,,82,60
157780,note_on,,,,,0,0,1,,,,,0,,,86,60
157931,note_on,,,,,151,0,1,,,,,0,,,82,0
157931,note_on,,,,,0,0,1,,,,,0,,,86,0
157940,note_on,,,,,9,0,1,,,,,0,,,86,60
157940,note_on,,,,,0,0,1,,,,,0,,,89,60
158051,note_on,,,,,111,0,1,,,,,0,,,62,0
158091,note_on,,,,,40,0,1,,,,,0,,,86,0
158091,note_on,,,,,0,0,1,,,,,0,,,89,0
158100,note_on,,,,,9,0,1,,,,,0,,,94,60
158100,note_on,,,,,721,0,2,,,,,0,,,62,60
158100,note_on,,,,,0,0,1,,,,,0,,,98,60
158100,note_on,,,,,0,0,2,,,,,0,,,34,60
158142,note_on,,,,,42,0,2,,,,,0,,,46,60
158184,note_on,,,,,42,0,2,,,,,0,,,53,60
158226,note_on,,,,,42,0,2,,,,,0,,,58,60
158251,note_on,,,,,0,0,1,,,,,0,,,98,0
158251,note_on,,,,,151,0,1,,,,,0,,,94,0
158260,note_on,,,,,9,0,1,,,,,0,,,86,60
158260,note_on,,,,,0,0,1,,,,,0,,,89,60
158339,note_on,,,,,0,0,2,,,,,0,,,53,0
158339,note_on,,,,,0,0,2,,,,,0,,,58,0
158339,note_on,,,,,113,0,2,,,,,0,,,34,0
158339,note_on,,,,,0,0,2,,,,,0,,,46,0
158411,note_on,,,,,0,0,1,,,,,0,,,89,0
158411,note_on,,,,,151,0,1,,,,,0,,,86,0
158420,note_on,,,,,9,0,1,,,,,0,,,82,60
158420,note_on,,,,,0,0,1,,,,,0,,,86,60
158571,note_on,,,,,151,0,1,,,,,0,,,82,0
158571,note_on,,,,,0,0,1,,,,,0,,,86,0
158580,note_on,,,,,0,0,1,,,,,0,,,77,60
158580,note_on,,,,,9,0,1,,,,,0,,,74,60
158731,note_on,,,,,0,0,1,,,,,0,,,77,0
158731,note_on,,,,,151,0,1,,,,,0,,,74,0
158740,note_on,,,,,9,0,1,,,,,0,,,70,60
158740,note_on,,,,,0,0,1,,,,,0,,,74,60
158783,note_on,,,,,444,0,2,,,,,0,,,62,0
158820,note_on,,,,,37,0,2,,,,,0,,,60,60
158891,note_on,,,,,0,0,1,,,,,0,,,74,0
158891,note_on,,,,,151,0,1,,,,,0,,,70,0
158900,note_on,,,,,9,0,1,,,,,0,,,62,60
158900,note_on,,,,,0,0,1,,,,,0,,,65,60
159047,note_on,,,,,227,0,2,,,,,0,,,60,0
159051,note_on,,,,,0,0,1,,,,,0,,,65,0
159051,note_on,,,,,151,0,1,,,,,0,,,62,0
159060,note_on,,,,,13,0,2,,,,,0,,,58,60
159060,note_on,,,,,0,0,2,,,,,0,,,43,60
159061,control_change,,,,,1,0,2,,,64,0,0,,,,
159062,control_change,,,,,1,0,2,,,64,127,0,,,,
159123,note_on,,,,,61,0,2,,,,,0,,,50,60
159220,note_on,,,,,0,0,1,,,,,0,,,67,60
159220,note_on,,,,,169,0,1,,,,,0,,,62,60
159298,note_on,,,,,175,0,2,,,,,0,,,50,0
159299,note_on,,,,,1,0,2,,,,,0,,,43,0
159371,note_on,,,,,0,0,1,,,,,0,,,67,0
159371,note_on,,,,,151,0,1,,,,,0,,,62,0
159380,note_on,,,,,9,0,1,,,,,0,,,70,60
159380,note_on,,,,,0,0,1,,,,,0,,,74,60
159531,note_on,,,,,151,0,1,,,,,0,,,70,0
159531,note_on,,,,,0,0,1,,,,,0,,,74,0
159540,note_on,,,,,0,0,1,,,,,0,,,79,60
159540,note_on,,,,,9,0,1,,,,,0,,,74,60
159691,note_on,,,,,0,0,1,,,,,0,,,79,0
159691,note_on,,,,,151,0,1,,,,,0,,,74,0
159700,note_on,,,,,9,0,1,,,,,0,,,82,60
159700,note_on,,,,,0,0,1,,,,,0,,,86,60
159851,note_on,,,,,0,0,1,,,,,0,,,86,0
159851,note_on,,,,,151,0,1,,,,,0,,,82,0
159860,note_on,,,,,9,0,1,,,,,0,,,86,60
159860,note_on,,,,,0,0,1,,,,,0,,,91,60
159971,note_on,,,,,672,0,2,,,,,0,,,58,0
160011,note_on,,,,,0,0,1,,,,,0,,,91,0
160011,note_on,,,,,151,0,1,,,,,0,,,86,0
160020,note_on,,,,,0,0,1,,,,,0,,,98,60
160020,note_on,,,,,9,0,1,,,,,0,,,94,60
160020,note_on,,,,,49,0,2,,,,,0,,,58,60
160020,note_on,,,,,0,0,2,,,,,0,,,31,60
160062,note_on,,,,,42,0,2,,,,,0,,,43,60
160104,note_on,,,,,42,0,2,,,,,0,,,50,60
160146,note_on,,,,,42,0,2,,,,,0,,,55,60
160171,note_on,,,,,0,0,1,,,,,0,,,98,0
160171,note_on,,,,,151,0,1,,,,,0,,,94,0
160180,note_on,,,,,0,0,1,,,,,0,,,91,60
160180,note_on,,,,,9,0,1,,,,,0,,,86,60
160259,note_on,,,,,0,0,2,,,,,0,,,43,0
160259,note_on,,,,,113,0,2,,,,,0,,,31,0
160259,note_on,,,,,0,0,2,,,,,0,,,55,0
160259,note_on,,,,,0,0,2,,,,,0,,,50,0
160331,note_on,,,,,151,0,1,,,,,0,,,86,0
160331,note_on,,,,,0,0,1,,,,,0,,,91,0
160340,note_on,,,,,0,0,1,,,,,0,,,86,60
160340,note_on,,,,,9,0,1,,,,,0,,,82,60
160491,note_on,,,,,0,0,1,,,,,0,,,86,0
160491,note_on,,,,,151,0,1,,,,,0,,,82,0
160500,note_on,,,,,0,0,1,,,,,0,,,79,60
160500,note_on,,,,,9,0,1,,,,,0,,,74,60
160651,note_on,,,,,0,0,1,,,,,0,,,79,0
160651,note_on,,,,,151,0,1,,,,,0,,,74,0
160660,note_on,,,,,9,0,1,,,,,0,,,70,60
160660,note_on,,,,,0,0,1,,,,,0,,,74,60
160703,note_on,,,,,444,0,2,,,,,0,,,58,0
160740,note_on,,,,,37,0,2,,,,,0,,,58,60
160811,note_on,,,,,0,0,1,,,,,0,,,74,0
160811,note_on,,,,,151,0,1,,,,,0,,,70,0
160820,note_on,,,,,9,0,1,,,,,0,,,62,60
160820,note_on,,,,,0,0,1,,,,,0,,,67,60
160967,note_on,,,,,227,0,2,,,,,0,,,58,0
160971,note_on,,,,,151,0,1,,,,,0,,,62,0
160971,note_on,,,,,0,0,1,,,,,0,,,67,0
160980,note_on,,,,,0,0,2,,,,,0,,,51,60
160980,note_on,,,,,0,0,2,,,,,0,,,55,60
160980,note_on,,,,,13,0,2,,,,,0,,,62,60
160981,control_change,,,,,1,0,2,,,64,0,0,,,,
160982,control_change,,,,,1,0,2,,,64,127,0,,,,
161140,note_on,,,,,0,0,1,,,,,0,,,67,60
161140,note_on,,,,,169,0,1,,,,,0,,,63,60
161207,note_on,,,,,225,0,2,,,,,0,,,51,0
161207,note_on,,,,,0,0,2,,,,,0,,,55,0
161291,note_on,,,,,0,0,1,,,,,0,,,67,0
161291,note_on,,,,,151,0,1,,,,,0,,,63,0
161300,note_on,,,,,9,0,1,,,,,0,,,74,60
161435,note_on,,,,,228,0,2,,,,,0,,,62,0
161451,note_on,,,,,151,0,1,,,,,0,,,74,0
161460,note_on,,,,,25,0,2,,,,,0,,,60,60
161460,note_on,,,,,0,0,2,,,,,0,,,39,60
161620,note_on,,,,,0,0,1,,,,,0,,,75,60
161620,note_on,,,,,169,0,1,,,,,0,,,72,60
161687,note_on,,,,,227,0,2,,,,,0,,,39,0
161771,note_on,,,,,0,0,1,,,,,0,,,75,0
161771,note_on,,,,,151,0,1,,,,,0,,,72,0
161780,note_on,,,,,9,0,1,,,,,0,,,79,60
161780,note_on,,,,,0,0,1,,,,,0,,,84,60
161915,note_on,,,,,228,0,2,,,,,0,,,60,0
161931,note_on,,,,,0,0,1,,,,,0,,,84,0
161931,note_on,,,,,151,0,1,,,,,0,,,79,0
161940,note_on,,,,,0,0,2,,,,,0,,,51,60
161940,note_on,,,,,0,0,2,,,,,0,,,55,60
161940,note_on,,,,,25,0,2,,,,,0,,,58,60
162100,note_on,,,,,169,0,1,,,,,0,,,82,60
162100,note_on,,,,,0,0,1,,,,,0,,,87,60
162167,note_on,,,,,0,0,2,,,,,0,,,55,0
162167,note_on,,,,,227,0,2,,,,,0,,,51,0
162251,note_on,,,,,151,0,1,,,,,0,,,82,0
162251,note_on,,,,,0,0,1,,,,,0,,,87,0
162260,note_on,,,,,0,0,1,,,,,0,,,94,60
162260,note_on,,,,,9,0,1,,,,,0,,,91,60
162395,note_on,,,,,228,0,2,,,,,0,,,58,0
162411,note_on,,,,,0,0,1,,,,,0,,,94,0
162411,note_on,,,,,151,0,1,,,,,0,,,91,0
162420,note_on,,,,,0,0,2,,,,,0,,,39,60
162420,note_on,,,,,25,0,2,,,,,0,,,60,60
162580,note_on,,,,,169,0,1,,,,,0,,,84,60
162580,note_on,,,,,0,0,1,,,,,0,,,87,60
162647,note_on,,,,,227,0,2,,,,,0,,,39,0
162731,note_on,,,,,0,0,1,,,,,0,,,87,0
162731,note_on,,,,,151,0,1,,,,,0,,,84,0
162740,note_on,,,,,0,0,1,,,,,0,,,96,60
162740,note_on,,,,,9,0,1,,,,,0,,,91,60
162875,note_on,,,,,228,0,2,,,,,0,,,60,0
162891,note_on,,,,,151,0,1,,,,,0,,,91,0
162891,note_on,,,,,0,0,1,,,,,0,,,96,0
162900,note_on,,,,,0,0,2,,,,,0,,,38,60
162900,note_on,,,,,25,0,2,,,,,0,,,62,60
162901,control_change,,,,,1,0,2,,,64,0,0,,,,
162902,control_change,,,,,1,0,2,,,64,127,0,,,,
162963,note_on,,,,,61,0,2,,,,,0,,,45,60
163027,note_on,,,,,64,0,2,,,,,0,,,54,60
163060,note_on,,,,,0,0,1,,,,,0,,,66,60
163060,note_on,,,,,169,0,1,,,,,0,,,62,60
163060,note_on,,,,,33,0,2,,,,,0,,,62,0
163138,note_on,,,,,78,0,2,,,,,0,,,45,0
163138,note_on,,,,,0,0,2,,,,,0,,,54,0
163139,note_on,,,,,1,0,2,,,,,0,,,38,0
163211,note_on,,,,,151,0,1,,,,,0,,,66,0
163220,note_on,,,,,0,0,1,,,,,0,,,74,60
163220,note_on,,,,,9,0,1,,,,,0,,,69,60
163371,note_on,,,,,151,0,1,,,,,0,,,69,0
163371,note_on,,,,,0,0,1,,,,,0,,,74,0
163380,note_on,,,,,0,0,1,,,,,0,,,78,60
163380,note_on,,,,,9,0,1,,,,,0,,,74,60
163531,note_on,,,,,0,0,1,,,,,0,,,78,0
163531,note_on,,,,,151,0,1,,,,,0,,,74,0
163540,note_on,,,,,9,0,1,,,,,0,,,81,60
163540,note_on,,,,,0,0,1,,,,,0,,,86,60
163691,note_on,,,,,0,0,1,,,,,0,,,86,0
163691,note_on,,,,,151,0,1,,,,,0,,,81,0
163700,note_on,,,,,9,0,1,,,,,0,,,86,60
163700,note_on,,,,,0,0,1,,,,,0,,,90,60
163811,note_on,,,,,111,0,1,,,,,0,,,62,0
163851,note_on,,,,,0,0,1,,,,,0,,,90,0
163851,note_on,,,,,40,0,1,,,,,0,,,86,0
163860,note_on,,,,,9,0,1,,,,,0,,,93,60
163860,note_on,,,,,0,0,1,,,,,0,,,98,60
164011,note_on,,,,,0,0,1,,,,,0,,,98,0
164011,note_on,,,,,151,0,1,,,,,0,,,93,0
164020,note_on,,,,,0,0,1,,,,,0,,,90,60
164020,note_on,,,,,9,0,1,,,,,0,,,86,60
164171,note_on,,,,,151,0,1,,,,,0,,,86,0
164171,note_on,,,,,0,0,1,,,,,0,,,90,0
164180,note_on,,,,,9,0,1,,,,,0,,,81,60
164180,note_on,,,,,0,0,1,,,,,0,,,86,60
164331,note_on,,,,,0,0,1,,,,,0,,,86,0
164331,note_on,,,,,151,0,1,,,,,0,,,81,0
164340,note_on,,,,,9,0,1,,,,,0,,,74,60
164340,note_on,,,,,0,0,1,,,,,0,,,78,60
164491,note_on,,,,,151,0,1,,,,,0,,,74,0
164491,note_on,,,,,0,0,1,,,,,0,,,78,0
164500,note_on,,,,,0,0,1,,,,,0,,,86,60
164500,note_on,,,,,9,0,1,,,,,0,,,81,60
164651,note_on,,,,,151,0,1,,,,,0,,,81,0
164651,note_on,,,,,0,0,1,,,,,0,,,86,0
164660,note_on,,,,,0,0,1,,,,,0,,,78,60
164660,note_on,,,,,9,0,1,,,,,0,,,74,60
164811,note_on,,,,,151,0,1,,,,,0,,,74,0
164811,note_on,,,,,0,0,1,,,,,0,,,78,0
164820,note_on,,,,,9,0,1,,,,,0,,,69,60
164820,set_tempo,,,,,0,1,0,,375000,,,,,,,
164820,time_signature,11,8,24,8,30720,1,0,,,,,,,,,
164820,note_on,,,,,0,0,1,,,,,0,,,74,60
165047,note_on,,,,,227,0,1,,,,,0,,,69,0
165047,note_on,,,,,0,0,1,,,,,0,,,74,0
165060,note_on,,,,,0,0,1,,,,,0,,,66,60
165060,note_on,,,,,13,0,1,,,,,0,,,62,60
165287,note_on,,,,,0,0,1,,,,,0,,,66,0
165287,note_on,,,,,227,0,1,,,,,0,,,62,0
165300,note_on,,,,,0,0,1,,,,,0,,,74,60
165300,note_on,,,,,13,0,1,,,,,0,,,69,60
165527,note_on,,,,,227,0,1,,,,,0,,,69,0
165527,note_on,,,,,0,0,1,,,,,0,,,74,0
165540,note_on,,,,,0,0,1,,,,,0,,,66,60
165540,note_on,,,,,13,0,1,,,,,0,,,62,60
165767,note_on,,,,,227,0,1,,,,,0,,,62,0
165767,note_on,,,,,0,0,1,,,,,0,,,66,0
165780,note_on,,,,,0,0,1,,,,,0,,,62,60
165780,note_on,,,,,13,0,1,,,,,0,,,57,60
166007,note_on,,,,,0,0,1,,,,,0,,,62,0
166007,note_on,,,,,227,0,1,,,,,0,,,57,0
166020,note_on,,,,,13,0,1,,,,,0,,,50,60
166020,note_on,,,,,0,0,1,,,,,0,,,54,60
166247,note_on,,,,,227,0,1,,,,,0,,,50,0
166247,note_on,,,,,0,0,1,,,,,0,,,54,0
166260,note_on,,,,,0,0,1,,,,,0,,,62,60
166260,note_on,,,,,13,0,1,,,,,0,,,57,60
166487,note_on,,,,,0,0,1,,,,,0,,,62,0
166487,note_on,,,,,227,0,1,,,,,0,,,57,0
166500,note_on,,,,,0,0,1,,,,,0,,,54,60
166500,note_on,,,,,13,0,1,,,,,0,,,50,60
166727,note_on,,,,,0,0,1,,,,,0,,,54,0
166727,note_on,,,,,227,0,1,,,,,0,,,50,0
166740,set_tempo,,,,,1920,1,0,,750002,,,,,,,
166740,note_on,,,,,3601,0,2,,,,,0,,,26,60
166967,note_on,,,,,227,0,2,,,,,0,,,26,0
166980,note_on,,,,,13,0,2,,,,,0,,,38,60
167207,note_on,,,,,227,0,2,,,,,0,,,38,0
167220,note_on,,,,,493,0,1,,,,,0,,,50,60
167447,note_on,,,,,227,0,1,,,,,0,,,50,0
167460,note_on,,,,,253,0,2,,,,,0,,,62,60
167460,time_signature,2,4,24,8,720,1,0,,,,,,,,,
167687,note_on,,,,,227,0,2,,,,,0,,,62,0
167700,note_on,,,,,253,0,1,,,,,0,,,74,60
167927,note_on,,,,,227,0,1,,,,,0,,,74,0
167940,note_on,,,,,253,0,2,,,,,0,,,86,60
168167,note_on,,,,,227,0,2,,,,,0,,,86,0
168180,note_on,,,,,253,0,1,,,,,0,,,98,60
168180,set_tempo,,,,,720,1,0,,1499999,,,,,,,
168407,note_on,,,,,227,0,1,,,,,0,,,98,0
168421,control_change,,,,,254,0,2,,,64,0,0,,,,
168580,note_on,,,,,0,0,1,,,,,0,,,86,70
168580,note_on,,,,,173,0,1,,,,,0,,,74,70
168731,note_on,,,,,151,0,1,,,,,0,,,74,0
168731,note_on,,,,,0,0,1,,,,,0,,,86,0
168740,note_on,,,,,0,0,1,,,,,0,,,86,70
168740,set_tempo,,,,,560,1,0,,1000000,,,,,,,
168740,note_on,,,,,9,0,1,,,,,0,,,74,70
168891,note_on,,,,,151,0,1,,,,,0,,,74,0
168891,note_on,,,,,0,0,1,,,,,0,,,86,0
168900,note_on,,,,,9,0,1,,,,,0,,,74,70
168900,set_tempo,,,,,160,1,0,,750002,,,,,,,
168900,note_on,,,,,0,0,1,,,,,0,,,86,70
169051,note_on,,,,,0,0,1,,,,,0,,,86,0
169051,note_on,,,,,151,0,1,,,,,0,,,74,0
169060,note_on,,,,,9,0,1,,,,,0,,,74,70
169060,note_on,,,,,0,0,1,,,,,0,,,86,70
169211,note_on,,,,,0,0,1,,,,,0,,,86,0
169211,note_on,,,,,151,0,1,,,,,0,,,74,0
169220,note_on,,,,,9,0,1,,,,,0,,,74,70
169220,note_on,,,,,0,0,1,,,,,0,,,86,70
169371,note_on,,,,,0,0,1,,,,,0,,,86,0
169371,note_on,,,,,151,0,1,,,,,0,,,74,0
169380,time_signature,4,4,24,8,480,1,0,,,,,,,,,
169380,note_on,,,,,0,0,1,,,,,0,,,86,70
169380,set_tempo,,,,,0,1,0,,599999,,,,,,,
169380,note_on,,,,,9,0,1,,,,,0,,,74,70
169380,note_on,,,,,959,0,2,,,,,0,,,46,60
169382,control_change,,,,,2,0,2,,,64,127,0,,,,
169531,note_on,,,,,149,0,2,,,,,0,,,46,0
169540,note_on,,,,,0,0,2,,,,,0,,,65,60
169540,note_on,,,,,0,0,1,,,,,0,,,82,70
169540,note_on,,,,,0,0,2,,,,,0,,,62,60
169540,note_on,,,,,9,0,2,,,,,0,,,53,60
169540,note_on,,,,,160,0,1,,,,,0,,,77,70
169691,note_on,,,,,0,0,2,,,,,0,,,65,0
169691,note_on,,,,,0,0,2,,,,,0,,,62,0
169691,note_on,,,,,151,0,1,,,,,0,,,77,0
169691,note_on,,,,,0,0,1,,,,,0,,,82,0
169691,note_on,,,,,151,0,2,,,,,0,,,53,0
169700,note_on,,,,,9,0,1,,,,,0,,,77,70
169700,note_on,,,,,9,0,2,,,,,0,,,54,60
169700,note_on,,,,,0,0,1,,,,,0,,,82,70
169700,note_on,,,,,0,0,2,,,,,0,,,62,60
169700,note_on,,,,,0,0,2,,,,,0,,,65,60
169851,note_on,,,,,0,0,2,,,,,0,,,65,0
169851,note_on,,,,,0,0,1,,,,,0,,,82,0
169851,note_on,,,,,151,0,1,,,,,0,,,77,0
169851,note_on,,,,,151,0,2,,,,,0,,,54,0
169851,note_on,,,,,0,0,2,,,,,0,,,62,0
169860,note_on,,,,,9,0,2,,,,,0,,,55,60
169860,note_on,,,,,0,0,2,,,,,0,,,62,60
169860,note_on,,,,,0,0,2,,,,,0,,,65,60
169860,note_on,,,,,9,0,1,,,,,0,,,77,70
169860,set_tempo,,,,,480,1,0,,428572,,,,,,,
169860,note_on,,,,,0,0,1,,,,,0,,,82,70
170011,note_on,,,,,151,0,2,,,,,0,,,55,0
170011,note_on,,,,,0,0,2,,,,,0,,,62,0
170011,note_on,,,,,0,0,2,,,,,0,,,65,0
170011,note_on,,,,,0,0,1,,,,,0,,,82,0
170011,note_on,,,,,151,0,1,,,,,0,,,77,0
170020,note_on,,,,,0,0,1,,,,,0,,,82,70
170020,note_on,,,,,0,0,2,,,,,0,,,65,60
170020,note_on,,,,,0,0,2,,,,,0,,,62,60
170020,note_on,,,,,9,0,2,,,,,0,,,56,60
170020,note_on,,,,,9,0,1,,,,,0,,,77,70
170171,note_on,,,,,151,0,1,,,,,0,,,77,0
170171,note_on,,,,,0,0,2,,,,,0,,,62,0
170171,note_on,,,,,0,0,2,,,,,0,,,65,0
170171,note_on,,,,,151,0,2,,,,,0,,,56,0
170171,note_on,,,,,0,0,1,,,,,0,,,82,0
170180,note_on,,,,,0,0,2,,,,,0,,,62,60
170180,note_on,,,,,0,0,2,,,,,0,,,65,60
170180,note_on,,,,,9,0,2,,,,,0,,,57,60
170180,note_on,,,,,0,0,1,,,,,0,,,82,70
170180,note_on,,,,,9,0,1,,,,,0,,,77,70
170291,note_on,,,,,0,0,1,,,,,0,,,86,0
170291,note_on,,,,,111,0,1,,,,,0,,,74,0
170331,note_on,,,,,0,0,2,,,,,0,,,62,0
170331,note_on,,,,,151,0,2,,,,,0,,,57,0
170331,note_on,,,,,0,0,2,,,,,0,,,65,0
170331,note_on,,,,,40,0,1,,,,,0,,,77,0
170331,note_on,,,,,0,0,1,,,,,0,,,82,0
170340,note_on,,,,,9,0,2,,,,,0,,,58,60
170340,note_on,,,,,0,0,2,,,,,0,,,62,60
170340,note_on,,,,,0,0,2,,,,,0,,,65,60
170340,note_on,,,,,0,0,1,,,,,0,,,86,70
170340,note_on,,,,,9,0,1,,,,,0,,,74,70
170491,note_on,,,,,151,0,2,,,,,0,,,58,0
170491,note_on,,,,,0,0,2,,,,,0,,,65,0
170491,note_on,,,,,0,0,2,,,,,0,,,62,0
170500,note_on,,,,,0,0,1,,,,,0,,,82,70
170500,note_on,,,,,0,0,2,,,,,0,,,65,60
170500,note_on,,,,,0,0,2,,,,,0,,,62,60
170500,note_on,,,,,160,0,1,,,,,0,,,77,70
170500,note_on,,,,,9,0,2,,,,,0,,,59,60
170500,set_tempo,,,,,640,1,0,,375000,,,,,,,
170651,note_on,,,,,0,0,1,,,,,0,,,82,0
170651,note_on,,,,,151,0,1,,,,,0,,,77,0
170651,note_on,,,,,0,0,2,,,,,0,,,62,0
170651,note_on,,,,,0,0,2,,,,,0,,,65,0
170651,note_on,,,,,151,0,2,,,,,0,,,59,0
170660,note_on,,,,,0,0,1,,,,,0,,,82,70
170660,note_on,,,,,0,0,2,,,,,0,,,62,60
170660,note_on,,,,,0,0,2,,,,,0,,,65,60
170660,note_on,,,,,9,0,1,,,,,0,,,77,70
170660,note_on,,,,,9,0,2,,,,,0,,,60,60
170795,note_on,,,,,0,0,1,,,,,0,,,86,0
170795,note_on,,,,,135,0,1,,,,,0,,,74,0
170811,note_on,,,,,0,0,1,,,,,0,,,82,0
170811,note_on,,,,,16,0,1,,,,,0,,,77,0
170811,note_on,,,,,0,0,2,,,,,0,,,65,0
170811,note_on,,,,,0,0,2,,,,,0,,,62,0
170811,note_on,,,,,151,0,2,,,,,0,,,60,0
170820,note_on,,,,,0,0,2,,,,,0,,,65,60
170820,note_on,,,,,9,0,2,,,,,0,,,61,60
170820,note_on,,,,,9,0,1,,,,,0,,,77,70
170820,note_on,,,,,0,0,1,,,,,0,,,82,70
170820,note_on,,,,,0,0,2,,,,,0,,,62,60
170971,note_on,,,,,151,0,2,,,,,0,,,61,0
170971,note_on,,,,,0,0,1,,,,,0,,,82,0
170971,note_on,,,,,0,0,2,,,,,0,,,65,0
170971,note_on,,,,,151,0,1,,,,,0,,,77,0
170971,note_on,,,,,0,0,2,,,,,0,,,62,0
170980,note_on,,,,,9,0,2,,,,,0,,,62,60
170980,note_on,,,,,0,0,1,,,,,0,,,82,70
170980,note_on,,,,,9,0,1,,,,,0,,,77,70
170980,note_on,,,,,0,0,2,,,,,0,,,65,60
171131,note_on,,,,,151,0,1,,,,,0,,,77,0
171131,note_on,,,,,151,0,2,,,,,0,,,62,0
171131,note_on,,,,,0,0,2,,,,,0,,,65,0
171131,note_on,,,,,0,0,1,,,,,0,,,82,0
171140,note_on,,,,,0,0,1,,,,,0,,,84,70
171140,note_on,,,,,9,0,1,,,,,0,,,72,70
171141,control_change,,,,,10,0,2,,,64,0,0,,,,
171291,note_on,,,,,0,0,1,,,,,0,,,84,0
171291,note_on,,,,,151,0,1,,,,,0,,,72,0
171300,note_on,,,,,0,0,1,,,,,0,,,82,70
171300,note_on,,,,,9,0,1,,,,,0,,,70,70
171300,set_tempo,,,,,800,1,0,,599999,,,,,,,
171300,note_on,,,,,159,0,2,,,,,0,,,46,60
171302,control_change,,,,,2,0,2,,,64,127,0,,,,
171451,note_on,,,,,149,0,2,,,,,0,,,46,0
171460,note_on,,,,,160,0,1,,,,,0,,,74,70
171460,note_on,,,,,0,0,1,,,,,0,,,77,70
171460,note_on,,,,,0,0,2,,,,,0,,,65,60
171460,note_on,,,,,9,0,2,,,,,0,,,53,60
171460,note_on,,,,,0,0,2,,,,,0,,,62,60
171611,note_on,,,,,0,0,2,,,,,0,,,62,0
171611,note_on,,,,,151,0,2,,,,,0,,,53,0
171611,note_on,,,,,0,0,1,,,,,0,,,77,0
171611,note_on,,,,,0,0,2,,,,,0,,,65,0
171611,note_on,,,,,151,0,1,,,,,0,,,74,0
171620,note_on,,,,,0,0,1,,,,,0,,,77,70
171620,note_on,,,,,0,0,2,,,,,0,,,62,60
171620,note_on,,,,,9,0,2,,,,,0,,,54,60
171620,note_on,,,,,9,0,1,,,,,0,,,74,70
171620,note_on,,,,,0,0,2,,,,,0,,,65,60
171771,note_on,,,,,151,0,1,,,,,0,,,74,0
171771,note_on,,,,,0,0,2,,,,,0,,,62,0
171771,note_on,,,,,0,0,2,,,,,0,,,65,0
171771,note_on,,,,,0,0,1,,,,,0,,,77,0
171771,note_on,,,,,151,0,2,,,,,0,,,54,0
171780,note_on,,,,,0,0,1,,,,,0,,,77,70
171780,note_on,,,,,9,0,2,,,,,0,,,55,60
171780,note_on,,,,,0,0,2,,,,,0,,,65,60
171780,note_on,,,,,0,0,2,,,,,0,,,62,60
171780,note_on,,,,,9,0,1,,,,,0,,,74,70
171780,set_tempo,,,,,480,1,0,,428572,,,,,,,
171931,note_on,,,,,0,0,2,,,,,0,,,62,0
171931,note_on,,,,,151,0,1,,,,,0,,,74,0
171931,note_on,,,,,0,0,1,,,,,0,,,77,0
171931,note_on,,,,,0,0,2,,,,,0,,,65,0
171931,note_on,,,,,151,0,2,,,,,0,,,55,0
171940,note_on,,,,,9,0,1,,,,,0,,,74,70
171940,note_on,,,,,0,0,2,,,,,0,,,62,60
171940,note_on,,,,,9,0,2,,,,,0,,,56,60
171940,note_on,,,,,0,0,2,,,,,0,,,65,60
171940,note_on,,,,,0,0,1,,,,,0,,,77,70
172091,note_on,,,,,151,0,2,,,,,0,,,56,0
172091,note_on,,,,,0,0,2,,,,,0,,,65,0
172091,note_on,,,,,151,0,1,,,,,0,,,74,0
172091,note_on,,,,,0,0,1,,,,,0,,,77,0
172091,note_on,,,,,0,0,2,,,,,0,,,62,0
172100,note_on,,,,,0,0,2,,,,,0,,,65,60
172100,note_on,,,,,0,0,1,,,,,0,,,77,70
172100,note_on,,,,,9,0,2,,,,,0,,,57,60
172100,note_on,,,,,9,0,1,,,,,0,,,74,70
172100,note_on,,,,,0,0,2,,,,,0,,,62,60
172211,note_on,,,,,0,0,1,,,,,0,,,82,0
172211,note_on,,,,,111,0,1,,,,,0,,,70,0
172251,note_on,,,,,0,0,2,,,,,0,,,62,0
172251,note_on,,,,,0,0,1,,,,,0,,,77,0
172251,note_on,,,,,0,0,2,,,,,0,,,65,0
172251,note_on,,,,,40,0,1,,,,,0,,,74,0
172251,note_on,,,,,151,0,2,,,,,0,,,57,0
172260,note_on,,,,,0,0,2,,,,,0,,,65,60
172260,note_on,,,,,9,0,2,,,,,0,,,58,60
172260,note_on,,,,,0,0,2,,,,,0,,,62,60
172260,note_on,,,,,0,0,1,,,,,0,,,82,70
172260,note_on,,,,,9,0,1,,,,,0,,,70,70
172411,note_on,,,,,151,0,2,,,,,0,,,58,0
172411,note_on,,,,,0,0,2,,,,,0,,,62,0
172411,note_on,,,,,0,0,2,,,,,0,,,65,0
172420,set_tempo,,,,,640,1,0,,375000,,,,,,,
172420,note_on,,,,,160,0,1,,,,,0,,,74,70
172420,note_on,,,,,9,0,2,,,,,0,,,59,60
172420,note_on,,,,,0,0,1,,,,,0,,,77,70
172420,note_on,,,,,0,0,2,,,,,0,,,65,60
172420,note_on,,,,,0,0,2,,,,,0,,,62,60
172571,note_on,,,,,151,0,1,,,,,0,,,74,0
172571,note_on,,,,,151,0,2,,,,,0,,,59,0
172571,note_on,,,,,0,0,2,,,,,0,,,65,0
172571,note_on,,,,,0,0,2,,,,,0,,,62,0
172571,note_on,,,,,0,0,1,,,,,0,,,77,0
172580,note_on,,,,,9,0,2,,,,,0,,,60,60
172580,note_on,,,,,0,0,2,,,,,0,,,65,60
172580,note_on,,,,,0,0,1,,,,,0,,,77,70
172580,note_on,,,,,0,0,2,,,,,0,,,62,60
172580,note_on,,,,,9,0,1,,,,,0,,,74,70
172715,note_on,,,,,135,0,1,,,,,0,,,70,0
172715,note_on,,,,,0,0,1,,,,,0,,,82,0
172731,note_on,,,,,151,0,2,,,,,0,,,60,0
172731,note_on,,,,,16,0,1,,,,,0,,,74,0
172731,note_on,,,,,0,0,2,,,,,0,,,65,0
172731,note_on,,,,,0,0,2,,,,,0,,,62,0
172731,note_on,,,,,0,0,1,,,,,0,,,77,0
172740,note_on,,,,,9,0,1,,,,,0,,,74,70
172740,note_on,,,,,0,0,2,,,,,0,,,62,60
172740,note_on,,,,,9,0,2,,,,,0,,,61,60
172740,note_on,,,,,0,0,2,,,,,0,,,65,60
172740,note_on,,,,,0,0,1,,,,,0,,,77,70
172891,note_on,,,,,151,0,1,,,,,0,,,74,0
172891,note_on,,,,,151,0,2,,,,,0,,,61,0
172891,note_on,,,,,0,0,2,,,,,0,,,62,0
172891,note_on,,,,,0,0,2,,,,,0,,,65,0
172891,note_on,,,,,0,0,1,,,,,0,,,77,0
172900,note_on,,,,,0,0,2,,,,,0,,,65,60
172900,note_on,,,,,9,0,1,,,,,0,,,74,70
172900,note_on,,,,,0,0,1,,,,,0,,,77,70
172900,note_on,,,,,9,0,2,,,,,0,,,62,60
173051,note_on,,,,,151,0,2,,,,,0,,,62,0
173051,note_on,,,,,0,0,1,,,,,0,,,77,0
173051,note_on,,,,,0,0,2,,,,,0,,,65,0
173051,note_on,,,,,151,0,1,,,,,0,,,74,0
173060,note_on,,,,,0,0,1,,,,,0,,,82,70
173060,note_on,,,,,9,0,1,,,,,0,,,70,70
173061,control_change,,,,,10,0,2,,,64,0,0,,,,
173211,note_on,,,,,151,0,1,,,,,0,,,70,0
173211,note_on,,,,,0,0,1,,,,,0,,,82,0
173220,note_on,,,,,9,0,1,,,,,0,,,69,70
173220,note_on,,,,,0,0,1,,,,,0,,,81,70
173220,note_on,,,,,159,0,2,,,,,0,,,46,60
173220,set_tempo,,,,,800,1,0,,599999,,,,,,,
173222,control_change,,,,,2,0,2,,,64,127,0,,,,
173371,note_on,,,,,149,0,2,,,,,0,,,46,0
173380,note_on,,,,,9,0,2,,,,,0,,,54,60
173380,note_on,,,,,160,0,1,,,,,0,,,72,70
173380,note_on,,,,,0,0,2,,,,,0,,,63,60
173380,note_on,,,,,0,0,2,,,,,0,,,66,60
173380,note_on,,,,,0,0,1,,,,,0,,,75,70
173531,note_on,,,,,0,0,2,,,,,0,,,63,0
173531,note_on,,,,,151,0,2,,,,,0,,,54,0
173531,note_on,,,,,0,0,1,,,,,0,,,75,0
173531,note_on,,,,,151,0,1,,,,,0,,,72,0
173531,note_on,,,,,0,0,2,,,,,0,,,66,0
173540,note_on,,,,,9,0,1,,,,,0,,,72,70
173540,note_on,,,,,9,0,2,,,,,0,,,55,60
173540,note_on,,,,,0,0,2,,,,,0,,,66,60
173540,note_on,,,,,0,0,1,,,,,0,,,75,70
173540,note_on,,,,,0,0,2,,,,,0,,,63,60
173675,note_on,,,,,0,0,1,,,,,0,,,81,0
173675,note_on,,,,,135,0,1,,,,,0,,,69,0
173691,note_on,,,,,0,0,2,,,,,0,,,66,0
173691,note_on,,,,,0,0,2,,,,,0,,,63,0
173691,note_on,,,,,0,0,1,,,,,0,,,75,0
173691,note_on,,,,,151,0,2,,,,,0,,,55,0
173691,note_on,,,,,16,0,1,,,,,0,,,72,0
173700,note_on,,,,,0,0,1,,,,,0,,,75,70
173700,note_on,,,,,0,0,2,,,,,0,,,66,60
173700,note_on,,,,,0,0,2,,,,,0,,,63,60
173700,note_on,,,,,9,0,2,,,,,0,,,56,60
173700,note_on,,,,,9,0,1,,,,,0,,,72,70
173700,set_tempo,,,,,480,1,0,,428572,,,,,,,
173851,note_on,,,,,151,0,1,,,,,0,,,72,0
173851,note_on,,,,,0,0,2,,,,,0,,,63,0
173851,note_on,,,,,0,0,1,,,,,0,,,75,0
173851,note_on,,,,,0,0,2,,,,,0,,,66,0
173851,note_on,,,,,151,0,2,,,,,0,,,56,0
173860,note_on,,,,,0,0,2,,,,,0,,,66,60
173860,note_on,,,,,0,0,2,,,,,0,,,63,60
173860,note_on,,,,,9,0,1,,,,,0,,,72,70
173860,note_on,,,,,0,0,1,,,,,0,,,75,70
173860,note_on,,,,,9,0,2,,,,,0,,,57,60
174011,note_on,,,,,151,0,2,,,,,0,,,57,0
174011,note_on,,,,,0,0,2,,,,,0,,,66,0
174011,note_on,,,,,0,0,2,,,,,0,,,63,0
174011,note_on,,,,,0,0,1,,,,,0,,,75,0
174011,note_on,,,,,151,0,1,,,,,0,,,72,0
174020,note_on,,,,,0,0,2,,,,,0,,,63,60
174020,note_on,,,,,0,0,2,,,,,0,,,66,60
174020,note_on,,,,,9,0,1,,,,,0,,,69,70
174020,note_on,,,,,9,0,2,,,,,0,,,58,60
174020,note_on,,,,,0,0,1,,,,,0,,,81,70
174171,note_on,,,,,0,0,1,,,,,0,,,81,0
174171,note_on,,,,,0,0,2,,,,,0,,,63,0
174171,note_on,,,,,151,0,1,,,,,0,,,69,0
174171,note_on,,,,,151,0,2,,,,,0,,,58,0
174171,note_on,,,,,0,0,2,,,,,0,,,66,0
174180,note_on,,,,,9,0,2,,,,,0,,,59,60
174180,note_on,,,,,9,0,1,,,,,0,,,78,70
174180,note_on,,,,,0,0,1,,,,,0,,,90,70
174180,note_on,,,,,0,0,2,,,,,0,,,66,60
174180,note_on,,,,,0,0,2,,,,,0,,,63,60
174331,note_on,,,,,0,0,2,,,,,0,,,66,0
174331,note_on,,,,,0,0,2,,,,,0,,,63,0
174331,note_on,,,,,151,0,2,,,,,0,,,59,0
174340,note_on,,,,,0,0,2,,,,,0,,,66,60
174340,note_on,,,,,0,0,2,,,,,0,,,63,60
174340,note_on,,,,,9,0,2,,,,,0,,,60,60
174340,note_on,,,,,0,0,1,,,,,0,,,84,70
174340,set_tempo,,,,,640,1,0,,375000,,,,,,,
174340,note_on,,,,,160,0,1,,,,,0,,,81,70
174491,note_on,,,,,0,0,1,,,,,0,,,84,0
174491,note_on,,,,,151,0,1,,,,,0,,,81,0
174491,note_on,,,,,0,0,2,,,,,0,,,66,0
174491,note_on,,,,,151,0,2,,,,,0,,,60,0
174491,note_on,,,,,0,0,2,,,,,0,,,63,0
174500,note_on,,,,,9,0,2,,,,,0,,,61,60
174500,note_on,,,,,9,0,1,,,,,0,,,81,70
174500,note_on,,,,,0,0,1,,,,,0,,,84,70
174500,note_on,,,,,0,0,2,,,,,0,,,66,60
174500,note_on,,,,,0,0,2,,,,,0,,,63,60
174635,note_on,,,,,135,0,1,,,,,0,,,78,0
174635,note_on,,,,,0,0,1,,,,,0,,,90,0
174651,note_on,,,,,0,0,2,,,,,0,,,63,0
174651,note_on,,,,,16,0,1,,,,,0,,,81,0
174651,note_on,,,,,151,0,2,,,,,0,,,61,0
174651,note_on,,,,,0,0,1,,,,,0,,,84,0
174651,note_on,,,,,0,0,2,,,,,0,,,66,0
174660,note_on,,,,,0,0,1,,,,,0,,,84,70
174660,note_on,,,,,0,0,2,,,,,0,,,66,60
174660,note_on,,,,,0,0,2,,,,,0,,,63,60
174660,note_on,,,,,9,0,1,,,,,0,,,81,70
174660,note_on,,,,,9,0,2,,,,,0,,,62,60
174811,note_on,,,,,0,0,2,,,,,0,,,66,0
174811,note_on,,,,,0,0,2,,,,,0,,,63,0
174811,note_on,,,,,151,0,1,,,,,0,,,81,0
174811,note_on,,,,,151,0,2,,,,,0,,,62,0
174811,note_on,,,,,0,0,1,,,,,0,,,84,0
174820,note_on,,,,,9,0,2,,,,,0,,,63,60
174820,note_on,,,,,9,0,1,,,,,0,,,81,70
174820,note_on,,,,,0,0,2,,,,,0,,,66,60
174820,note_on,,,,,0,0,1,,,,,0,,,84,70
174971,note_on,,,,,151,0,2,,,,,0,,,63,0
174971,note_on,,,,,0,0,2,,,,,0,,,66,0
174971,note_on,,,,,151,0,1,,,,,0,,,81,0
174971,note_on,,,,,0,0,1,,,,,0,,,84,0
174980,note_on,,,,,0,0,1,,,,,0,,,81,70
174980,note_on,,,,,9,0,1,,,,,0,,,69,70
174981,control_change,,,,,10,0,2,,,64,0,0,,,,
175131,note_on,,,,,0,0,1,,,,,0,,,81,0
175131,note_on,,,,,151,0,1,,,,,0,,,69,0
175140,note_on,,,,,159,0,2,,,,,0,,,46,60
175140,note_on,,,,,0,0,1,,,,,0,,,84,70
175140,note_on,,,,,9,0,1,,,,,0,,,72,70
175140,set_tempo,,,,,800,1,0,,599999,,,,,,,
175142,control_change,,,,,2,0,2,,,64,127,0,,,,
175291,note_on,,,,,149,0,2,,,,,0,,,46,0
175300,note_on,,,,,9,0,2,,,,,0,,,53,60
175300,note_on,,,,,0,0,1,,,,,0,,,77,70
175300,note_on,,,,,0,0,2,,,,,0,,,65,60
175300,note_on,,,,,160,0,1,,,,,0,,,74,70
175300,note_on,,,,,0,0,2,,,,,0,,,62,60
175451,note_on,,,,,0,0,1,,,,,0,,,77,0
175451,note_on,,,,,151,0,1,,,,,0,,,74,0
175451,note_on,,,,,151,0,2,,,,,0,,,53,0
175451,note_on,,,,,0,0,2,,,,,0,,,65,0
175451,note_on,,,,,0,0,2,,,,,0,,,62,0
175460,note_on,,,,,9,0,2,,,,,0,,,54,60
175460,note_on,,,,,9,0,1,,,,,0,,,74,70
175460,note_on,,,,,0,0,1,,,,,0,,,77,70
175460,note_on,,,,,0,0,2,,,,,0,,,65,60
175460,note_on,,,,,0,0,2,,,,,0,,,62,60
175611,note_on,,,,,151,0,2,,,,,0,,,54,0
175611,note_on,,,,,151,0,1,,,,,0,,,74,0
175611,note_on,,,,,0,0,2,,,,,0,,,65,0
175611,note_on,,,,,0,0,1,,,,,0,,,77,0
175611,note_on,,,,,0,0,2,,,,,0,,,62,0
175620,note_on,,,,,0,0,2,,,,,0,,,65,60
175620,note_on,,,,,0,0,1,,,,,0,,,77,70
175620,note_on,,,,,9,0,2,,,,,0,,,55,60
175620,note_on,,,,,9,0,1,,,,,0,,,74,70
175620,note_on,,,,,0,0,2,,,,,0,,,62,60
175620,set_tempo,,,,,480,1,0,,428572,,,,,,,
175771,note_on,,,,,151,0,2,,,,,0,,,55,0
175771,note_on,,,,,0,0,1,,,,,0,,,77,0
175771,note_on,,,,,0,0,2,,,,,0,,,65,0
175771,note_on,,,,,0,0,2,,,,,0,,,62,0
175771,note_on,,,,,151,0,1,,,,,0,,,74,0
175780,note_on,,,,,9,0,2,,,,,0,,,56,60
175780,note_on,,,,,0,0,1,,,,,0,,,77,70
175780,note_on,,,,,0,0,2,,,,,0,,,62,60
175780,note_on,,,,,0,0,2,,,,,0,,,65,60
175780,note_on,,,,,9,0,1,,,,,0,,,74,70
175931,note_on,,,,,0,0,2,,,,,0,,,62,0
175931,note_on,,,,,0,0,2,,,,,0,,,65,0
175931,note_on,,,,,0,0,1,,,,,0,,,77,0
175931,note_on,,,,,151,0,1,,,,,0,,,74,0
175931,note_on,,,,,151,0,2,,,,,0,,,56,0
175940,note_on,,,,,9,0,1,,,,,0,,,74,70
175940,note_on,,,,,0,0,2,,,,,0,,,62,60
175940,note_on,,,,,0,0,1,,,,,0,,,77,70
175940,note_on,,,,,0,0,2,,,,,0,,,65,60
175940,note_on,,,,,9,0,2,,,,,0,,,57,60
176051,note_on,,,,,0,0,1,,,,,0,,,84,0
176051,note_on,,,,,111,0,1,,,,,0,,,72,0
176091,note_on,,,,,40,0,1,,,,,0,,,74,0
176091,note_on,,,,,0,0,2,,,,,0,,,62,0
176091,note_on,,,,,0,0,2,,,,,0,,,65,0
176091,note_on,,,,,151,0,2,,,,,0,,,57,0
176091,note_on,,,,,0,0,1,,,,,0,,,77,0
176100,note_on,,,,,0,0,2,,,,,0,,,62,60
176100,note_on,,,,,0,0,1,,,,,0,,,82,70
176100,note_on,,,,,9,0,1,,,,,0,,,70,70
176100,note_on,,,,,0,0,2,,,,,0,,,65,60
176100,note_on,,,,,9,0,2,,,,,0,,,58,60
176251,note_on,,,,,0,0,2,,,,,0,,,65,0
176251,note_on,,,,,0,0,2,,,,,0,,,62,0
176251,note_on,,,,,151,0,2,,,,,0,,,58,0
176260,note_on,,,,,9,0,2,,,,,0,,,59,60
176260,note_on,,,,,0,0,2,,,,,0,,,65,60
176260,note_on,,,,,0,0,2,,,,,0,,,62,60
176260,set_tempo,,,,,640,1,0,,375000,,,,,,,
176260,note_on,,,,,160,0,1,,,,,0,,,74,70
176260,note_on,,,,,0,0,1,,,,,0,,,77,70
176411,note_on,,,,,151,0,2,,,,,0,,,59,0
176411,note_on,,,,,151,0,1,,,,,0,,,74,0
176411,note_on,,,,,0,0,1,,,,,0,,,77,0
176411,note_on,,,,,0,0,2,,,,,0,,,65,0
176411,note_on,,,,,0,0,2,,,,,0,,,62,0
176420,note_on,,,,,0,0,1,,,,,0,,,77,70
176420,note_on,,,,,9,0,1,,,,,0,,,74,70
176420,note_on,,,,,9,0,2,,,,,0,,,60,60
176420,note_on,,,,,0,0,2,,,,,0,,,62,60
176420,note_on,,,,,0,0,2,,,,,0,,,65,60
176555,note_on,,,,,135,0,1,,,,,0,,,70,0
176555,note_on,,,,,0,0,1,,,,,0,,,82,0
176571,note_on,,,,,0,0,2,,,,,0,,,65,0
176571,note_on,,,,,0,0,2,,,,,0,,,62,0
176571,note_on,,,,,0,0,1,,,,,0,,,77,0
176571,note_on,,,,,151,0,2,,,,,0,,,60,0
176571,note_on,,,,,16,0,1,,,,,0,,,74,0
176580,note_on,,,,,0,0,2,,,,,0,,,62,60
176580,note_on,,,,,9,0,1,,,,,0,,,74,70
176580,note_on,,,,,0,0,2,,,,,0,,,65,60
176580,note_on,,,,,9,0,2,,,,,0,,,61,60
176580,note_on,,,,,0,0,1,,,,,0,,,77,70
176731,note_on,,,,,0,0,2,,,,,0,,,62,0
176731,note_on,,,,,0,0,2,,,,,0,,,65,0
176731,note_on,,,,,151,0,2,,,,,0,,,61,0
176731,note_on,,,,,0,0,1,,,,,0,,,77,0
176731,note_on,,,,,151,0,1,,,,,0,,,74,0
176740,note_on,,,,,0,0,1,,,,,0,,,77,70
176740,note_on,,,,,0,0,2,,,,,0,,,65,60
176740,note_on,,,,,9,0,2,,,,,0,,,62,60
176740,note_on,,,,,9,0,1,,,,,0,,,74,70
176891,note_on,,,,,151,0,1,,,,,0,,,74,0
176891,note_on,,,,,0,0,2,,,,,0,,,65,0
176891,note_on,,,,,151,0,2,,,,,0,,,62,0
176891,note_on,,,,,0,0,1,,,,,0,,,77,0
176900,note_on,,,,,0,0,1,,,,,0,,,77,70
176900,note_on,,,,,9,0,1,,,,,0,,,74,70
176901,control_change,,,,,10,0,2,,,64,0,0,,,,
177051,note_on,,,,,0,0,1,,,,,0,,,77,0
177051,note_on,,,,,151,0,1,,,,,0,,,74,0
177060,note_on,,,,,9,0,1,,,,,0,,,74,70
177060,set_tempo,,,,,800,1,0,,599999,,,,,,,
177060,note_on,,,,,159,0,2,,,,,0,,,43,60
177060,note_on,,,,,0,0,1,,,,,0,,,86,70
177062,control_change,,,,,2,0,2,,,64,127,0,,,,
177211,note_on,,,,,149,0,2,,,,,0,,,43,0
177220,note_on,,,,,160,0,1,,,,,0,,,79,70
177220,note_on,,,,,0,0,2,,,,,0,,,67,60
177220,note_on,,,,,0,0,2,,,,,0,,,70,60
177220,note_on,,,,,9,0,2,,,,,0,,,58,60
177220,note_on,,,,,0,0,1,,,,,0,,,82,70
177371,note_on,,,,,151,0,2,,,,,0,,,58,0
177371,note_on,,,,,0,0,1,,,,,0,,,82,0
177371,note_on,,,,,151,0,1,,,,,0,,,79,0
177371,note_on,,,,,0,0,2,,,,,0,,,67,0
177371,note_on,,,,,0,0,2,,,,,0,,,70,0
177380,note_on,,,,,0,0,1,,,,,0,,,82,70
177380,note_on,,,,,0,0,2,,,,,0,,,70,60
177380,note_on,,,,,9,0,2,,,,,0,,,59,60
177380,note_on,,,,,9,0,1,,,,,0,,,79,70
177380,note_on,,,,,0,0,2,,,,,0,,,67,60
177531,note_on,,,,,151,0,2,,,,,0,,,59,0
177531,note_on,,,,,0,0,1,,,,,0,,,82,0
177531,note_on,,,,,151,0,1,,,,,0,,,79,0
177531,note_on,,,,,0,0,2,,,,,0,,,67,0
177531,note_on,,,,,0,0,2,,,,,0,,,70,0
177540,note_on,,,,,0,0,2,,,,,0,,,67,60
177540,note_on,,,,,9,0,2,,,,,0,,,60,60
177540,note_on,,,,,9,0,1,,,,,0,,,79,70
177540,note_on,,,,,0,0,2,,,,,0,,,70,60
177540,set_tempo,,,,,480,1,0,,428572,,,,,,,
177540,note_on,,,,,0,0,1,,,,,0,,,82,70
177691,note_on,,,,,0,0,2,,,,,0,,,70,0
177691,note_on,,,,,0,0,1,,,,,0,,,82,0
177691,note_on,,,,,151,0,2,,,,,0,,,60,0
177691,note_on,,,,,151,0,1,,,,,0,,,79,0
177691,note_on,,,,,0,0,2,,,,,0,,,67,0
177700,note_on,,,,,9,0,1,,,,,0,,,79,70
177700,note_on,,,,,0,0,2,,,,,0,,,67,60
177700,note_on,,,,,9,0,2,,,,,0,,,61,60
177700,note_on,,,,,0,0,2,,,,,0,,,70,60
177700,note_on,,,,,0,0,1,,,,,0,,,82,70
177851,note_on,,,,,151,0,2,,,,,0,,,61,0
177851,note_on,,,,,0,0,2,,,,,0,,,70,0
177851,note_on,,,,,151,0,1,,,,,0,,,79,0
177851,note_on,,,,,0,0,1,,,,,0,,,82,0
177851,note_on,,,,,0,0,2,,,,,0,,,67,0
177860,note_on,,,,,9,0,1,,,,,0,,,79,70
177860,note_on,,,,,0,0,2,,,,,0,,,70,60
177860,note_on,,,,,0,0,1,,,,,0,,,82,70
177860,note_on,,,,,9,0,2,,,,,0,,,62,60
177860,note_on,,,,,0,0,2,,,,,0,,,67,60
177971,note_on,,,,,0,0,1,,,,,0,,,86,0
177971,note_on,,,,,111,0,1,,,,,0,,,74,0
178011,note_on,,,,,0,0,2,,,,,0,,,67,0
178011,note_on,,,,,0,0,2,,,,,0,,,70,0
178011,note_on,,,,,40,0,1,,,,,0,,,79,0
178011,note_on,,,,,151,0,2,,,,,0,,,62,0
178011,note_on,,,,,0,0,1,,,,,0,,,82,0
178020,note_on,,,,,9,0,1,,,,,0,,,74,70
178020,note_on,,,,,0,0,2,,,,,0,,,70,60
178020,note_on,,,,,9,0,2,,,,,0,,,63,60
178020,note_on,,,,,0,0,2,,,,,0,,,67,60
178020,note_on,,,,,0,0,1,,,,,0,,,86,70
178171,note_on,,,,,151,0,2,,,,,0,,,63,0
178171,note_on,,,,,0,0,2,,,,,0,,,67,0
178171,note_on,,,,,0,0,2,,,,,0,,,70,0
178180,note_on,,,,,0,0,1,,,,,0,,,82,70
178180,note_on,,,,,9,0,2,,,,,0,,,64,60
178180,note_on,,,,,0,0,2,,,,,0,,,67,60
178180,set_tempo,,,,,640,1,0,,375000,,,,,,,
178180,note_on,,,,,0,0,2,,,,,0,,,70,60
178180,note_on,,,,,160,0,1,,,,,0,,,79,70
178331,note_on,,,,,151,0,2,,,,,0,,,64,0
178331,note_on,,,,,151,0,1,,,,,0,,,79,0
178331,note_on,,,,,0,0,2,,,,,0,,,67,0
178331,note_on,,,,,0,0,1,,,,,0,,,82,0
178331,note_on,,,,,0,0,2,,,,,0,,,70,0
178340,note_on,,,,,0,0,2,,,,,0,,,67,60
178340,note_on,,,,,9,0,2,,,,,0,,,65,60
178340,note_on,,,,,9,0,1,,,,,0,,,79,70
178340,note_on,,,,,0,0,2,,,,,0,,,70,60
178340,note_on,,,,,0,0,1,,,,,0,,,82,70
178475,note_on,,,,,0,0,1,,,,,0,,,86,0
178475,note_on,,,,,135,0,1,,,,,0,,,74,0
178491,note_on,,,,,151,0,2,,,,,0,,,65,0
178491,note_on,,,,,0,0,2,,,,,0,,,70,0
178491,note_on,,,,,16,0,1,,,,,0,,,79,0
178491,note_on,,,,,0,0,2,,,,,0,,,67,0
178491,note_on,,,,,0,0,1,,,,,0,,,82,0
178500,note_on,,,,,9,0,2,,,,,0,,,66,60
178500,note_on,,,,,0,0,2,,,,,0,,,70,60
178500,note_on,,,,,0,0,1,,,,,0,,,82,70
178500,note_on,,,,,9,0,1,,,,,0,,,79,70
178500,note_on,,,,,0,0,2,,,,,0,,,67,60
178651,note_on,,,,,151,0,1,,,,,0,,,79,0
178651,note_on,,,,,0,0,1,,,,,0,,,82,0
178651,note_on,,,,,151,0,2,,,,,0,,,66,0
178651,note_on,,,,,0,0,2,,,,,0,,,70,0
178651,note_on,,,,,0,0,2,,,,,0,,,67,0
178660,note_on,,,,,0,0,1,,,,,0,,,82,70
178660,note_on,,,,,9,0,1,,,,,0,,,79,70
178660,note_on,,,,,9,0,2,,,,,0,,,67,60
178660,note_on,,,,,0,0,2,,,,,0,,,70,60
178811,note_on,,,,,151,0,2,,,,,0,,,67,0
178811,note_on,,,,,0,0,2,,,,,0,,,70,0
178811,note_on,,,,,0,0,1,,,,,0,,,82,0
178811,note_on,,,,,151,0,1,,,,,0,,,79,0
178820,note_on,,,,,9,0,1,,,,,0,,,72,70
178820,note_on,,,,,0,0,1,,,,,0,,,84,70
178821,control_change,,,,,10,0,2,,,64,0,0,,,,
178971,note_on,,,,,0,0,1,,,,,0,,,84,0
178971,note_on,,,,,151,0,1,,,,,0,,,72,0
178980,note_on,,,,,0,0,1,,,,,0,,,82,70
178980,note_on,,,,,9,0,1,,,,,0,,,70,70
178980,note_on,,,,,159,0,2,,,,,0,,,43,60
178980,set_tempo,,,,,800,1,0,,599999,,,,,,,
178982,control_change,,,,,2,0,2,,,64,127,0,,,,
179131,note_on,,,,,149,0,2,,,,,0,,,43,0
179140,note_on,,,,,0,0,1,,,,,0,,,79,70
179140,note_on,,,,,9,0,2,,,,,0,,,55,60
179140,note_on,,,,,160,0,1,,,,,0,,,74,70
179140,note_on,,,,,0,0,2,,,,,0,,,62,60
179140,note_on,,,,,0,0,2,,,,,0,,,67,60
179291,note_on,,,,,0,0,2,,,,,0,,,67,0
179291,note_on,,,,,0,0,2,,,,,0,,,62,0
179291,note_on,,,,,151,0,2,,,,,0,,,55,0
179291,note_on,,,,,151,0,1,,,,,0,,,74,0
179291,note_on,,,,,0,0,1,,,,,0,,,79,0
179300,note_on,,,,,9,0,1,,,,,0,,,74,70
179300,note_on,,,,,9,0,2,,,,,0,,,56,60
179300,note_on,,,,,0,0,2,,,,,0,,,62,60
179300,note_on,,,,,0,0,2,,,,,0,,,67,60
179300,note_on,,,,,0,0,1,,,,,0,,,79,70
179451,note_on,,,,,151,0,1,,,,,0,,,74,0
179451,note_on,,,,,151,0,2,,,,,0,,,56,0
179451,note_on,,,,,0,0,2,,,,,0,,,62,0
179451,note_on,,,,,0,0,2,,,,,0,,,67,0
179451,note_on,,,,,0,0,1,,,,,0,,,79,0
179460,note_on,,,,,9,0,1,,,,,0,,,74,70
179460,note_on,,,,,9,0,2,,,,,0,,,57,60
179460,note_on,,,,,0,0,2,,,,,0,,,67,60
179460,note_on,,,,,0,0,2,,,,,0,,,62,60
179460,set_tempo,,,,,480,1,0,,428572,,,,,,,
179460,note_on,,,,,0,0,1,,,,,0,,,79,70
179611,note_on,,,,,151,0,2,,,,,0,,,57,0
179611,note_on,,,,,151,0,1,,,,,0,,,74,0
179611,note_on,,,,,0,0,1,,,,,0,,,79,0
179611,note_on,,,,,0,0,2,,,,,0,,,67,0
179611,note_on,,,,,0,0,2,,,,,0,,,62,0
179620,note_on,,,,,0,0,1,,,,,0,,,79,70
179620,note_on,,,,,0,0,2,,,,,0,,,62,60
179620,note_on,,,,,9,0,1,,,,,0,,,74,70
179620,note_on,,,,,9,0,2,,,,,0,,,58,60
179620,note_on,,,,,0,0,2,,,,,0,,,67,60
179771,note_on,,,,,0,0,1,,,,,0,,,79,0
179771,note_on,,,,,151,0,1,,,,,0,,,74,0
179771,note_on,,,,,0,0,2,,,,,0,,,67,0
179771,note_on,,,,,151,0,2,,,,,0,,,58,0
179771,note_on,,,,,0,0,2,,,,,0,,,62,0
179780,note_on,,,,,9,0,2,,,,,0,,,59,60
179780,note_on,,,,,0,0,2,,,,,0,,,62,60
179780,note_on,,,,,0,0,2,,,,,0,,,67,60
179780,note_on,,,,,0,0,1,,,,,0,,,79,70
179780,note_on,,,,,9,0,1,,,,,0,,,74,70
179891,note_on,,,,,111,0,1,,,,,0,,,70,0
179891,note_on,,,,,0,0,1,,,,,0,,,82,0
179931,note_on,,,,,0,0,1,,,,,0,,,79,0
179931,note_on,,,,,151,0,2,,,,,0,,,59,0
179931,note_on,,,,,40,0,1,,,,,0,,,74,0
179931,note_on,,,,,0,0,2,,,,,0,,,62,0
179931,note_on,,,,,0,0,2,,,,,0,,,67,0
179940,note_on,,,,,9,0,2,,,,,0,,,60,60
179940,note_on,,,,,0,0,1,,,,,0,,,79,70
179940,note_on,,,,,0,0,2,,,,,0,,,67,60
179940,note_on,,,,,9,0,1,,,,,0,,,74,70
179940,note_on,,,,,0,0,2,,,,,0,,,62,60
180091,note_on,,,,,0,0,1,,,,,0,,,79,0
180091,note_on,,,,,151,0,2,,,,,0,,,60,0
180091,note_on,,,,,151,0,1,,,,,0,,,74,0
180091,note_on,,,,,0,0,2,,,,,0,,,62,0
180091,note_on,,,,,0,0,2,,,,,0,,,67,0
180100,set_tempo,,,,,640,1,0,,375000,,,,,,,
180100,note_on,,,,,0,0,1,,,,,0,,,79,70
180100,note_on,,,,,0,0,2,,,,,0,,,67,60
180100,note_on,,,,,9,0,2,,,,,0,,,61,60
180100,note_on,,,,,9,0,1,,,,,0,,,74,70
180251,note_on,,,,,151,0,1,,,,,0,,,74,0
180251,note_on,,,,,0,0,1,,,,,0,,,79,0
180251,note_on,,,,,151,0,2,,,,,0,,,61,0
180251,note_on,,,,,0,0,2,,,,,0,,,67,0
180260,note_on,,,,,0,0,1,,,,,0,,,79,70
180260,note_on,,,,,0,0,2,,,,,0,,,67,60
180260,note_on,,,,,9,0,2,,,,,0,,,62,60
180260,note_on,,,,,9,0,1,,,,,0,,,74,70
180411,note_on,,,,,0,0,2,,,,,0,,,67,0
180411,note_on,,,,,0,0,1,,,,,0,,,79,0
180411,note_on,,,,,151,0,2,,,,,0,,,62,0
180411,note_on,,,,,151,0,1,,,,,0,,,74,0
180420,note_on,,,,,9,0,2,,,,,0,,,58,60
180420,note_on,,,,,9,0,1,,,,,0,,,74,70
180420,note_on,,,,,0,0,1,,,,,0,,,79,70
180420,note_on,,,,,0,0,2,,,,,0,,,67,60
180571,note_on,,,,,0,0,1,,,,,0,,,79,0
180571,note_on,,,,,151,0,1,,,,,0,,,74,0
180571,note_on,,,,,151,0,2,,,,,0,,,58,0
180571,note_on,,,,,0,0,2,,,,,0,,,67,0
180580,note_on,,,,,9,0,1,,,,,0,,,74,70
180580,note_on,,,,,0,0,1,,,,,0,,,79,70
180581,control_change,,,,,10,0,2,,,64,0,0,,,,
180731,note_on,,,,,0,0,1,,,,,0,,,79,0
180731,note_on,,,,,151,0,1,,,,,0,,,74,0
180740,note_on,,,,,9,0,1,,,,,0,,,70,70
180740,note_on,,,,,0,0,1,,,,,0,,,82,70
180891,note_on,,,,,0,0,1,,,,,0,,,82,0
180891,note_on,,,,,151,0,1,,,,,0,,,70,0
180900,note_on,,,,,319,0,2,,,,,0,,,36,60
180900,note_on,,,,,9,0,1,,,,,0,,,73,70
180900,note_on,,,,,0,0,2,,,,,0,,,48,60
180900,note_on,,,,,0,0,1,,,,,0,,,85,70
180900,set_tempo,,,,,800,1,0,,599999,,,,,,,
180902,control_change,,,,,2,0,2,,,64,127,0,,,,
181051,note_on,,,,,149,0,2,,,,,0,,,36,0
181051,note_on,,,,,0,0,2,,,,,0,,,48,0
181060,note_on,,,,,0,0,1,,,,,0,,,82,70
181060,note_on,,,,,0,0,2,,,,,0,,,70,60
181060,note_on,,,,,160,0,1,,,,,0,,,76,70
181060,note_on,,,,,0,0,2,,,,,0,,,67,60
181060,note_on,,,,,9,0,2,,,,,0,,,58,60
181211,note_on,,,,,0,0,1,,,,,0,,,82,0
181211,note_on,,,,,0,0,2,,,,,0,,,70,0
181211,note_on,,,,,0,0,2,,,,,0,,,67,0
181211,note_on,,,,,151,0,1,,,,,0,,,76,0
181211,note_on,,,,,151,0,2,,,,,0,,,58,0
181220,note_on,,,,,9,0,1,,,,,0,,,76,70
181220,note_on,,,,,0,0,1,,,,,0,,,82,70
181220,note_on,,,,,0,0,2,,,,,0,,,70,60
181220,note_on,,,,,0,0,2,,,,,0,,,67,60
181220,note_on,,,,,9,0,2,,,,,0,,,59,60
181355,note_on,,,,,0,0,1,,,,,0,,,85,0
181355,note_on,,,,,135,0,1,,,,,0,,,73,0
181371,note_on,,,,,16,0,1,,,,,0,,,76,0
181371,note_on,,,,,0,0,2,,,,,0,,,70,0
181371,note_on,,,,,0,0,2,,,,,0,,,67,0
181371,note_on,,,,,151,0,2,,,,,0,,,59,0
181371,note_on,,,,,0,0,1,,,,,0,,,82,0
181380,note_on,,,,,0,0,1,,,,,0,,,82,70
181380,set_tempo,,,,,480,1,0,,428572,,,,,,,
181380,note_on,,,,,0,0,2,,,,,0,,,70,60
181380,note_on,,,,,9,0,1,,,,,0,,,76,70
181380,note_on,,,,,0,0,2,,,,,0,,,67,60
181380,note_on,,,,,9,0,2,,,,,0,,,60,60
181531,note_on,,,,,0,0,1,,,,,0,,,82,0
181531,note_on,,,,,0,0,2,,,,,0,,,67,0
181531,note_on,,,,,151,0,1,,,,,0,,,76,0
181531,note_on,,,,,0,0,2,,,,,0,,,70,0
181531,note_on,,,,,151,0,2,,,,,0,,,60,0
181540,note_on,,,,,9,0,1,,,,,0,,,76,70
181540,note_on,,,,,0,0,1,,,,,0,,,82,70
181540,note_on,,,,,0,0,2,,,,,0,,,67,60
181540,note_on,,,,,9,0,2,,,,,0,,,61,60
181540,note_on,,,,,0,0,2,,,,,0,,,70,60
181691,note_on,,,,,0,0,1,,,,,0,,,82,0
181691,note_on,,,,,0,0,2,,,,,0,,,67,0
181691,note_on,,,,,0,0,2,,,,,0,,,70,0
181691,note_on,,,,,151,0,1,,,,,0,,,76,0
181691,note_on,,,,,151,0,2,,,,,0,,,61,0
181700,note_on,,,,,9,0,1,,,,,0,,,72,70
181700,note_on,,,,,0,0,1,,,,,0,,,84,70
181700,note_on,,,,,0,0,2,,,,,0,,,70,60
181700,note_on,,,,,0,0,2,,,,,0,,,67,60
181700,note_on,,,,,9,0,2,,,,,0,,,62,60
181851,note_on,,,,,0,0,1,,,,,0,,,84,0
181851,note_on,,,,,0,0,2,,,,,0,,,67,0
181851,note_on,,,,,151,0,2,,,,,0,,,62,0
181851,note_on,,,,,151,0,1,,,,,0,,,72,0
181851,note_on,,,,,0,0,2,,,,,0,,,70,0
181860,note_on,,,,,9,0,1,,,,,0,,,82,70
181860,note_on,,,,,0,0,2,,,,,0,,,67,60
181860,note_on,,,,,9,0,2,,,,,0,,,63,60
181860,note_on,,,,,0,0,2,,,,,0,,,70,60
181860,set_tempo,,,,,480,1,0,,375000,,,,,,,
181860,note_on,,,,,0,0,1,,,,,0,,,94,70
182011,note_on,,,,,151,0,2,,,,,0,,,63,0
182011,note_on,,,,,0,0,2,,,,,0,,,67,0
182011,note_on,,,,,0,0,2,,,,,0,,,70,0
182020,note_on,,,,,0,0,2,,,,,0,,,67,60
182020,note_on,,,,,0,0,2,,,,,0,,,70,60
182020,note_on,,,,,160,0,1,,,,,0,,,85,70
182020,note_on,,,,,0,0,1,,,,,0,,,88,70
182020,note_on,,,,,9,0,2,,,,,0,,,64,60
182171,note_on,,,,,0,0,2,,,,,0,,,67,0
182171,note_on,,,,,0,0,1,,,,,0,,,88,0
182171,note_on,,,,,0,0,2,,,,,0,,,70,0
182171,note_on,,,,,151,0,1,,,,,0,,,85,0
182171,note_on,,,,,151,0,2,,,,,0,,,64,0
182180,note_on,,,,,9,0,1,,,,,0,,,85,70
182180,note_on,,,,,0,0,1,,,,,0,,,88,70
182180,note_on,,,,,0,0,2,,,,,0,,,70,60
182180,note_on,,,,,0,0,2,,,,,0,,,67,60
182180,note_on,,,,,9,0,2,,,,,0,,,65,60
182315,note_on,,,,,0,0,1,,,,,0,,,94,0
182315,note_on,,,,,135,0,1,,,,,0,,,82,0
182331,note_on,,,,,0,0,2,,,,,0,,,67,0
182331,note_on,,,,,151,0,2,,,,,0,,,65,0
182331,note_on,,,,,16,0,1,,,,,0,,,85,0
182331,note_on,,,,,0,0,1,,,,,0,,,88,0
182331,note_on,,,,,0,0,2,,,,,0,,,70,0
182340,note_on,,,,,9,0,1,,,,,0,,,85,70
182340,note_on,,,,,0,0,1,,,,,0,,,88,70
182340,note_on,,,,,0,0,2,,,,,0,,,67,60
182340,note_on,,,,,0,0,2,,,,,0,,,70,60
182340,note_on,,,,,9,0,2,,,,,0,,,66,60
182491,note_on,,,,,0,0,2,,,,,0,,,67,0
182491,note_on,,,,,151,0,2,,,,,0,,,66,0
182491,note_on,,,,,0,0,2,,,,,0,,,70,0
182491,note_on,,,,,0,0,1,,,,,0,,,88,0
182491,note_on,,,,,151,0,1,,,,,0,,,85,0
182500,note_on,,,,,9,0,1,,,,,0,,,85,70
182500,note_on,,,,,0,0,1,,,,,0,,,88,70
182500,note_on,,,,,9,0,2,,,,,0,,,67,60
182500,note_on,,,,,0,0,2,,,,,0,,,70,60
182651,note_on,,,,,151,0,2,,,,,0,,,67,0
182651,note_on,,,,,151,0,1,,,,,0,,,85,0
182651,note_on,,,,,0,0,2,,,,,0,,,70,0
182651,note_on,,,,,0,0,1,,,,,0,,,88,0
182660,note_on,,,,,9,0,1,,,,,0,,,76,70
182660,note_on,,,,,0,0,1,,,,,0,,,88,70
182661,control_change,,,,,10,0,2,,,64,0,0,,,,
182811,note_on,,,,,151,0,1,,,,,0,,,76,0
182811,note_on,,,,,0,0,1,,,,,0,,,88,0
182820,set_tempo,,,,,960,1,0,,599999,,,,,,,
182820,note_on,,,,,9,0,1,,,,,0,,,77,70
182820,note_on,,,,,159,0,2,,,,,0,,,41,60
182820,note_on,,,,,0,0,1,,,,,0,,,89,70
182822,control_change,,,,,2,0,2,,,64,127,0,,,,
182971,note_on,,,,,149,0,2,,,,,0,,,41,0
182980,note_on,,,,,0,0,2,,,,,0,,,69,60
182980,note_on,,,,,9,0,2,,,,,0,,,57,60
182980,note_on,,,,,0,0,2,,,,,0,,,65,60
182980,note_on,,,,,0,0,1,,,,,0,,,84,70
182980,note_on,,,,,160,0,1,,,,,0,,,81,70
183131,note_on,,,,,0,0,2,,,,,0,,,69,0
183131,note_on,,,,,151,0,2,,,,,0,,,57,0
183131,note_on,,,,,0,0,2,,,,,0,,,65,0
183131,note_on,,,,,0,0,1,,,,,0,,,84,0
183131,note_on,,,,,151,0,1,,,,,0,,,81,0
183140,note_on,,,,,9,0,1,,,,,0,,,81,70
183140,note_on,,,,,0,0,2,,,,,0,,,69,60
183140,note_on,,,,,0,0,2,,,,,0,,,65,60
183140,note_on,,,,,0,0,1,,,,,0,,,84,70
183140,note_on,,,,,9,0,2,,,,,0,,,58,60
183291,note_on,,,,,0,0,1,,,,,0,,,84,0
183291,note_on,,,,,151,0,2,,,,,0,,,58,0
183291,note_on,,,,,151,0,1,,,,,0,,,81,0
183291,note_on,,,,,0,0,2,,,,,0,,,69,0
183291,note_on,,,,,0,0,2,,,,,0,,,65,0
183300,note_on,,,,,9,0,1,,,,,0,,,81,70
183300,set_tempo,,,,,480,1,0,,428572,,,,,,,
183300,note_on,,,,,0,0,1,,,,,0,,,84,70
183300,note_on,,,,,9,0,2,,,,,0,,,59,60
183300,note_on,,,,,0,0,2,,,,,0,,,69,60
183300,note_on,,,,,0,0,2,,,,,0,,,65,60
183451,note_on,,,,,0,0,2,,,,,0,,,65,0
183451,note_on,,,,,0,0,2,,,,,0,,,69,0
183451,note_on,,,,,0,0,1,,,,,0,,,84,0
183451,note_on,,,,,151,0,1,,,,,0,,,81,0
183451,note_on,,,,,151,0,2,,,,,0,,,59,0
183460,note_on,,,,,0,0,1,,,,,0,,,84,70
183460,note_on,,,,,0,0,2,,,,,0,,,65,60
183460,note_on,,,,,9,0,2,,,,,0,,,60,60
183460,note_on,,,,,0,0,2,,,,,0,,,69,60
183460,note_on,,,,,9,0,1,,,,,0,,,81,70
183611,note_on,,,,,151,0,1,,,,,0,,,81,0
183611,note_on,,,,,0,0,1,,,,,0,,,84,0
183611,note_on,,,,,0,0,2,,,,,0,,,65,0
183611,note_on,,,,,151,0,2,,,,,0,,,60,0
183611,note_on,,,,,0,0,2,,,,,0,,,69,0
183620,note_on,,,,,0,0,1,,,,,0,,,84,70
183620,note_on,,,,,9,0,1,,,,,0,,,81,70
183620,note_on,,,,,0,0,2,,,,,0,,,65,60
183620,note_on,,,,,9,0,2,,,,,0,,,61,60
183620,note_on,,,,,0,0,2,,,,,0,,,69,60
183731,note_on,,,,,111,0,1,,,,,0,,,77,0
183731,note_on,,,,,0,0,1,,,,,0,,,89,0
183771,note_on,,,,,0,0,2,,,,,0,,,69,0
183771,note_on,,,,,0,0,2,,,,,0,,,65,0
183771,note_on,,,,,151,0,2,,,,,0,,,61,0
183771,note_on,,,,,0,0,1,,,,,0,,,84,0
183771,note_on,,,,,40,0,1,,,,,0,,,81,0
183780,note_on,,,,,0,0,2,,,,,0,,,69,60
183780,note_on,,,,,0,0,1,,,,,0,,,84,70
183780,set_tempo,,,,,480,1,0,,375000,,,,,,,
183780,note_on,,,,,9,0,2,,,,,0,,,62,60
183780,note_on,,,,,0,0,2,,,,,0,,,65,60
183780,note_on,,,,,9,0,1,,,,,0,,,81,70
183931,note_on,,,,,0,0,1,,,,,0,,,84,0
183931,note_on,,,,,151,0,1,,,,,0,,,81,0
183931,note_on,,,,,0,0,2,,,,,0,,,69,0
183931,note_on,,,,,0,0,2,,,,,0,,,65,0
183931,note_on,,,,,151,0,2,,,,,0,,,62,0
183940,note_on,,,,,0,0,1,,,,,0,,,84,70
183940,note_on,,,,,0,0,2,,,,,0,,,69,60
183940,note_on,,,,,9,0,1,,,,,0,,,81,70
183940,note_on,,,,,0,0,2,,,,,0,,,65,60
183940,note_on,,,,,9,0,2,,,,,0,,,63,60
184091,note_on,,,,,151,0,2,,,,,0,,,63,0
184091,note_on,,,,,151,0,1,,,,,0,,,81,0
184091,note_on,,,,,0,0,2,,,,,0,,,69,0
184091,note_on,,,,,0,0,1,,,,,0,,,84,0
184091,note_on,,,,,0,0,2,,,,,0,,,65,0
184100,note_on,,,,,0,0,2,,,,,0,,,69,60
184100,note_on,,,,,0,0,2,,,,,0,,,65,60
184100,note_on,,,,,0,0,1,,,,,0,,,84,70
184100,note_on,,,,,9,0,2,,,,,0,,,64,60
184100,note_on,,,,,9,0,1,,,,,0,,,81,70
184251,note_on,,,,,0,0,2,,,,,0,,,69,0
184251,note_on,,,,,151,0,1,,,,,0,,,81,0
184251,note_on,,,,,0,0,1,,,,,0,,,84,0
184251,note_on,,,,,0,0,2,,,,,0,,,65,0
184251,note_on,,,,,151,0,2,,,,,0,,,64,0
184260,note_on,,,,,9,0,1,,,,,0,,,81,70
184260,note_on,,,,,0,0,1,,,,,0,,,84,70
184260,note_on,,,,,9,0,2,,,,,0,,,65,60
184260,note_on,,,,,0,0,2,,,,,0,,,69,60
184411,note_on,,,,,0,0,1,,,,,0,,,84,0
184411,note_on,,,,,151,0,2,,,,,0,,,65,0
184411,note_on,,,,,151,0,1,,,,,0,,,81,0
184411,note_on,,,,,0,0,2,,,,,0,,,69,0
184420,note_on,,,,,0,0,1,,,,,0,,,84,70
184420,note_on,,,,,9,0,1,,,,,0,,,81,70
184421,control_change,,,,,10,0,2,,,64,0,0,,,,
184571,note_on,,,,,0,0,1,,,,,0,,,84,0
184571,note_on,,,,,151,0,1,,,,,0,,,81,0
184580,note_on,,,,,0,0,1,,,,,0,,,84,70
184580,note_on,,,,,9,0,1,,,,,0,,,81,70
184731,note_on,,,,,0,0,1,,,,,0,,,84,0
184731,note_on,,,,,151,0,1,,,,,0,,,81,0
184740,note_on,,,,,9,0,1,,,,,0,,,77,70
184740,note_on,,,,,0,0,2,,,,,0,,,49,60
184740,note_on,,,,,319,0,2,,,,,0,,,37,60
184740,set_tempo,,,,,960,1,0,,599999,,,,,,,
184740,note_on,,,,,0,0,1,,,,,0,,,89,70
184742,control_change,,,,,2,0,2,,,64,127,0,,,,
184891,note_on,,,,,149,0,2,,,,,0,,,37,0
184891,note_on,,,,,0,0,2,,,,,0,,,49,0
184900,note_on,,,,,0,0,2,,,,,0,,,61,60
184900,note_on,,,,,0,0,1,,,,,0,,,85,70
184900,note_on,,,,,160,0,1,,,,,0,,,80,70
184900,note_on,,,,,9,0,2,,,,,0,,,53,60
184900,note_on,,,,,0,0,2,,,,,0,,,65,60
185051,note_on,,,,,0,0,2,,,,,0,,,65,0
185051,note_on,,,,,0,0,2,,,,,0,,,61,0
185051,note_on,,,,,151,0,1,,,,,0,,,80,0
185051,note_on,,,,,151,0,2,,,,,0,,,53,0
185051,note_on,,,,,0,0,1,,,,,0,,,85,0
185060,note_on,,,,,0,0,2,,,,,0,,,65,60
185060,note_on,,,,,0,0,2,,,,,0,,,61,60
185060,note_on,,,,,0,0,1,,,,,0,,,85,70
185060,note_on,,,,,9,0,2,,,,,0,,,54,60
185060,note_on,,,,,9,0,1,,,,,0,,,80,70
185211,note_on,,,,,0,0,1,,,,,0,,,85,0
185211,note_on,,,,,151,0,1,,,,,0,,,80,0
185211,note_on,,,,,151,0,2,,,,,0,,,54,0
185211,note_on,,,,,0,0,2,,,,,0,,,65,0
185211,note_on,,,,,0,0,2,,,,,0,,,61,0
185220,note_on,,,,,9,0,2,,,,,0,,,55,60
185220,note_on,,,,,9,0,1,,,,,0,,,80,70
185220,note_on,,,,,0,0,1,,,,,0,,,85,70
185220,note_on,,,,,0,0,2,,,,,0,,,65,60
185220,note_on,,,,,0,0,2,,,,,0,,,61,60
185220,set_tempo,,,,,480,1,0,,428572,,,,,,,
185371,note_on,,,,,0,0,1,,,,,0,,,85,0
185371,note_on,,,,,151,0,1,,,,,0,,,80,0
185371,note_on,,,,,0,0,2,,,,,0,,,65,0
185371,note_on,,,,,0,0,2,,,,,0,,,61,0
185371,note_on,,,,,151,0,2,,,,,0,,,55,0
185380,note_on,,,,,0,0,2,,,,,0,,,61,60
185380,note_on,,,,,0,0,2,,,,,0,,,65,60
185380,note_on,,,,,9,0,1,,,,,0,,,80,70
185380,note_on,,,,,9,0,2,,,,,0,,,56,60
185380,note_on,,,,,0,0,1,,,,,0,,,85,70
185531,note_on,,,,,0,0,2,,,,,0,,,61,0
185531,note_on,,,,,0,0,2,,,,,0,,,65,0
185531,note_on,,,,,151,0,1,,,,,0,,,80,0
185531,note_on,,,,,151,0,2,,,,,0,,,56,0
185531,note_on,,,,,0,0,1,,,,,0,,,85,0
185540,note_on,,,,,9,0,1,,,,,0,,,80,70
185540,note_on,,,,,0,0,2,,,,,0,,,65,60
185540,note_on,,,,,0,0,2,,,,,0,,,61,60
185540,note_on,,,,,9,0,2,,,,,0,,,57,60
185540,note_on,,,,,0,0,1,,,,,0,,,85,70
185651,note_on,,,,,0,0,1,,,,,0,,,89,0
185651,note_on,,,,,111,0,1,,,,,0,,,77,0
185691,note_on,,,,,0,0,2,,,,,0,,,65,0
185691,note_on,,,,,0,0,2,,,,,0,,,61,0
185691,note_on,,,,,0,0,1,,,,,0,,,85,0
185691,note_on,,,,,40,0,1,,,,,0,,,80,0
185691,note_on,,,,,151,0,2,,,,,0,,,57,0
185700,note_on,,,,,0,0,1,,,,,0,,,89,70
185700,note_on,,,,,9,0,1,,,,,0,,,77,70
185700,note_on,,,,,0,0,2,,,,,0,,,65,60
185700,note_on,,,,,0,0,2,,,,,0,,,61,60
185700,set_tempo,,,,,480,1,0,,375000,,,,,,,
185700,note_on,,,,,9,0,2,,,,,0,,,58,60
185851,note_on,,,,,0,0,2,,,,,0,,,65,0
185851,note_on,,,,,151,0,2,,,,,0,,,58,0
185851,note_on,,,,,0,0,2,,,,,0,,,61,0
185860,note_on,,,,,160,0,1,,,,,0,,,80,70
185860,note_on,,,,,0,0,1,,,,,0,,,85,70
185860,note_on,,,,,9,0,2,,,,,0,,,59,60
185860,note_on,,,,,0,0,2,,,,,0,,,65,60
185860,note_on,,,,,0,0,2,,,,,0,,,61,60
186011,note_on,,,,,151,0,1,,,,,0,,,80,0
186011,note_on,,,,,0,0,2,,,,,0,,,65,0
186011,note_on,,,,,151,0,2,,,,,0,,,59,0
186011,note_on,,,,,0,0,1,,,,,0,,,85,0
186011,note_on,,,,,0,0,2,,,,,0,,,61,0
186020,note_on,,,,,9,0,2,,,,,0,,,60,60
186020,note_on,,,,,0,0,1,,,,,0,,,85,70
186020,note_on,,,,,0,0,2,,,,,0,,,61,60
186020,note_on,,,,,0,0,2,,,,,0,,,65,60
186020,note_on,,,,,9,0,1,,,,,0,,,80,70
186155,note_on,,,,,135,0,1,,,,,0,,,77,0
186155,note_on,,,,,0,0,1,,,,,0,,,89,0
186171,note_on,,,,,0,0,2,,,,,0,,,61,0
186171,note_on,,,,,0,0,2,,,,,0,,,65,0
186171,note_on,,,,,0,0,1,,,,,0,,,85,0
186171,note_on,,,,,16,0,1,,,,,0,,,80,0
186171,note_on,,,,,151,0,2,,,,,0,,,60,0
186180,note_on,,,,,0,0,2,,,,,0,,,65,60
186180,note_on,,,,,9,0,2,,,,,0,,,61,60
186180,note_on,,,,,9,0,1,,,,,0,,,80,70
186180,note_on,,,,,0,0,1,,,,,0,,,85,70
186331,note_on,,,,,0,0,1,,,,,0,,,85,0
186331,note_on,,,,,151,0,1,,,,,0,,,80,0
186331,note_on,,,,,151,0,2,,,,,0,,,61,0
186331,note_on,,,,,0,0,2,,,,,0,,,65,0
186340,note_on,,,,,9,0,1,,,,,0,,,80,70
186340,note_on,,,,,0,0,1,,,,,0,,,85,70
186341,control_change,,,,,10,0,2,,,64,0,0,,,,
186491,note_on,,,,,151,0,1,,,,,0,,,80,0
186491,note_on,,,,,0,0,1,,,,,0,,,85,0
186500,note_on,,,,,9,0,1,,,,,0,,,77,70
186500,note_on,,,,,0,0,1,,,,,0,,,89,70
186651,note_on,,,,,0,0,1,,,,,0,,,89,0
186651,note_on,,,,,151,0,1,,,,,0,,,77,0
186660,note_on,,,,,0,0,2,,,,,0,,,44,60
186660,note_on,,,,,0,0,1,,,,,0,,,92,84
186660,note_on,,,,,9,0,1,,,,,0,,,80,84
186660,set_tempo,,,,,960,1,0,,599999,,,,,,,
186660,note_on,,,,,319,0,2,,,,,0,,,32,60
186662,control_change,,,,,2,0,2,,,64,127,0,,,,
186811,note_on,,,,,149,0,2,,,,,0,,,32,0
186811,note_on,,,,,0,0,2,,,,,0,,,44,0
186820,note_on,,,,,160,0,1,,,,,0,,,85,70
186820,note_on,,,,,0,0,1,,,,,0,,,87,70
186820,note_on,,,,,0,0,2,,,,,0,,,68,60
186820,note_on,,,,,0,0,2,,,,,0,,,63,60
186820,note_on,,,,,9,0,2,,,,,0,,,56,60
186971,note_on,,,,,151,0,2,,,,,0,,,56,0
186971,note_on,,,,,0,0,2,,,,,0,,,63,0
186971,note_on,,,,,151,0,1,,,,,0,,,85,0
186971,note_on,,,,,0,0,1,,,,,0,,,87,0
186971,note_on,,,,,0,0,2,,,,,0,,,68,0
186980,note_on,,,,,0,0,1,,,,,0,,,87,70
186980,note_on,,,,,0,0,2,,,,,0,,,63,60
186980,note_on,,,,,9,0,2,,,,,0,,,57,60
186980,note_on,,,,,9,0,1,,,,,0,,,85,70
186980,note_on,,,,,0,0,2,,,,,0,,,68,60
187131,note_on,,,,,0,0,2,,,,,0,,,68,0
187131,note_on,,,,,0,0,1,,,,,0,,,87,0
187131,note_on,,,,,151,0,2,,,,,0,,,57,0
187131,note_on,,,,,151,0,1,,,,,0,,,85,0
187131,note_on,,,,,0,0,2,,,,,0,,,63,0
187140,set_tempo,,,,,480,1,0,,428572,,,,,,,
187140,note_on,,,,,9,0,2,,,,,0,,,58,60
187140,note_on,,,,,9,0,1,,,,,0,,,85,70
187140,note_on,,,,,0,0,2,,,,,0,,,63,60
187140,note_on,,,,,0,0,2,,,,,0,,,68,60
187140,note_on,,,,,0,0,1,,,,,0,,,87,70
187291,note_on,,,,,0,0,1,,,,,0,,,87,0
187291,note_on,,,,,151,0,1,,,,,0,,,85,0
187291,note_on,,,,,0,0,2,,,,,0,,,63,0
187291,note_on,,,,,0,0,2,,,,,0,,,68,0
187291,note_on,,,,,151,0,2,,,,,0,,,58,0
187300,note_on,,,,,9,0,1,,,,,0,,,85,70
187300,note_on,,,,,9,0,2,,,,,0,,,59,60
187300,note_on,,,,,0,0,2,,,,,0,,,63,60
187300,note_on,,,,,0,0,2,,,,,0,,,68,60
187300,note_on,,,,,0,0,1,,,,,0,,,87,70
187451,note_on,,,,,0,0,2,,,,,0,,,68,0
187451,note_on,,,,,151,0,2,,,,,0,,,59,0
187451,note_on,,,,,0,0,1,,,,,0,,,87,0
187451,note_on,,,,,151,0,1,,,,,0,,,85,0
187451,note_on,,,,,0,0,2,,,,,0,,,63,0
187460,note_on,,,,,0,0,2,,,,,0,,,63,60
187460,note_on,,,,,9,0,2,,,,,0,,,60,60
187460,note_on,,,,,0,0,2,,,,,0,,,68,60
187460,note_on,,,,,0,0,1,,,,,0,,,87,70
187460,note_on,,,,,9,0,1,,,,,0,,,85,70
187611,note_on,,,,,0,0,2,,,,,0,,,68,0
187611,note_on,,,,,0,0,2,,,,,0,,,63,0
187611,note_on,,,,,0,0,1,,,,,0,,,87,0
187611,note_on,,,,,151,0,1,,,,,0,,,85,0
187611,note_on,,,,,151,0,2,,,,,0,,,60,0
187619,note_on,,,,,0,0,1,,,,,0,,,92,0
187619,note_on,,,,,8,0,1,,,,,0,,,80,0
187620,set_tempo,,,,,480,1,0,,375000,,,,,,,
187620,note_on,,,,,1,0,1,,,,,0,,,75,70
187620,note_on,,,,,0,0,1,,,,,0,,,87,70
187780,note_on,,,,,0,0,2,,,,,0,,,63,60
187780,note_on,,,,,0,0,2,,,,,0,,,68,60
187780,note_on,,,,,169,0,2,,,,,0,,,59,60
187780,note_on,,,,,160,0,1,,,,,0,,,80,70
187780,note_on,,,,,0,0,1,,,,,0,,,84,70
187931,note_on,,,,,0,0,2,,,,,0,,,68,0
187931,note_on,,,,,0,0,2,,,,,0,,,63,0
187931,note_on,,,,,151,0,2,,,,,0,,,59,0
187931,note_on,,,,,0,0,1,,,,,0,,,84,0
187931,note_on,,,,,151,0,1,,,,,0,,,80,0
187940,note_on,,,,,9,0,1,,,,,0,,,80,70
187940,note_on,,,,,0,0,1,,,,,0,,,84,70
187940,note_on,,,,,0,0,2,,,,,0,,,68,60
187940,note_on,,,,,0,0,2,,,,,0,,,63,60
187940,note_on,,,,,9,0,2,,,,,0,,,60,60
188075,note_on,,,,,135,0,1,,,,,0,,,75,0
188075,note_on,,,,,0,0,1,,,,,0,,,87,0
188091,note_on,,,,,0,0,1,,,,,0,,,84,0
188091,note_on,,,,,151,0,2,,,,,0,,,60,0
188091,note_on,,,,,16,0,1,,,,,0,,,80,0
188091,note_on,,,,,0,0,2,,,,,0,,,63,0
188091,note_on,,,,,0,0,2,,,,,0,,,68,0
188100,note_on,,,,,0,0,2,,,,,0,,,68,60
188100,note_on,,,,,9,0,2,,,,,0,,,61,60
188100,note_on,,,,,0,0,2,,,,,0,,,63,60
188100,note_on,,,,,0,0,1,,,,,0,,,84,70
188100,note_on,,,,,9,0,1,,,,,0,,,80,70
188251,note_on,,,,,0,0,2,,,,,0,,,63,0
188251,note_on,,,,,151,0,1,,,,,0,,,80,0
188251,note_on,,,,,0,0,2,,,,,0,,,68,0
188251,note_on,,,,,151,0,2,,,,,0,,,61,0
188251,note_on,,,,,0,0,1,,,,,0,,,84,0
188260,note_on,,,,,9,0,1,,,,,0,,,80,70
188260,note_on,,,,,0,0,2,,,,,0,,,68,60
188260,note_on,,,,,0,0,1,,,,,0,,,84,70
188260,note_on,,,,,9,0,2,,,,,0,,,62,60
188411,note_on,,,,,0,0,1,,,,,0,,,84,0
188411,note_on,,,,,151,0,1,,,,,0,,,80,0
188411,note_on,,,,,151,0,2,,,,,0,,,62,0
188411,note_on,,,,,0,0,2,,,,,0,,,68,0
188420,note_on,,,,,9,0,1,,,,,0,,,80,70
188420,note_on,,,,,0,0,1,,,,,0,,,84,70
188420,note_on,,,,,9,0,2,,,,,0,,,63,60
188420,note_on,,,,,0,0,2,,,,,0,,,68,60
188571,note_on,,,,,151,0,2,,,,,0,,,63,0
188571,note_on,,,,,0,0,1,,,,,0,,,84,0
188571,note_on,,,,,151,0,1,,,,,0,,,80,0
188571,note_on,,,,,0,0,2,,,,,0,,,68,0
188580,set_tempo,,,,,960,1,0,,599999,,,,,,,
188580,note_on,,,,,9,0,1,,,,,0,,,80,70
188580,note_on,,,,,9,0,2,,,,,0,,,40,60
188580,note_on,,,,,0,0,1,,,,,0,,,92,70
188580,note_on,,,,,0,0,2,,,,,0,,,52,60
188581,control_change,,,,,1,0,2,,,64,0,0,,,,
188582,control_change,,,,,1,0,2,,,64,127,0,,,,
188731,note_on,,,,,149,0,2,,,,,0,,,40,0
188731,note_on,,,,,0,0,2,,,,,0,,,52,0
188740,note_on,,,,,9,0,2,,,,,0,,,56,60
188740,note_on,,,,,160,0,1,,,,,0,,,83,70
188740,note_on,,,,,0,0,1,,,,,0,,,88,70
188740,note_on,,,,,0,0,2,,,,,0,,,64,60
188740,note_on,,,,,0,0,2,,,,,0,,,68,60
188891,note_on,,,,,0,0,2,,,,,0,,,64,0
188891,note_on,,,,,151,0,2,,,,,0,,,56,0
188891,note_on,,,,,0,0,1,,,,,0,,,88,0
188891,note_on,,,,,151,0,1,,,,,0,,,83,0
188891,note_on,,,,,0,0,2,,,,,0,,,68,0
188900,note_on,,,,,0,0,2,,,,,0,,,68,60
188900,note_on,,,,,0,0,1,,,,,0,,,88,70
188900,note_on,,,,,0,0,2,,,,,0,,,64,60
188900,note_on,,,,,9,0,2,,,,,0,,,57,60
188900,note_on,,,,,9,0,1,,,,,0,,,83,70
189051,note_on,,,,,0,0,2,,,,,0,,,68,0
189051,note_on,,,,,151,0,1,,,,,0,,,83,0
189051,note_on,,,,,151,0,2,,,,,0,,,57,0
189051,note_on,,,,,0,0,1,,,,,0,,,88,0
189051,note_on,,,,,0,0,2,,,,,0,,,64,0
189060,set_tempo,,,,,480,1,0,,428572,,,,,,,
189060,note_on,,,,,9,0,1,,,,,0,,,83,70
189060,note_on,,,,,9,0,2,,,,,0,,,58,60
189060,note_on,,,,,0,0,1,,,,,0,,,88,70
189060,note_on,,,,,0,0,2,,,,,0,,,64,60
189060,note_on,,,,,0,0,2,,,,,0,,,68,60
189211,note_on,,,,,151,0,1,,,,,0,,,83,0
189211,note_on,,,,,0,0,2,,,,,0,,,68,0
189211,note_on,,,,,0,0,2,,,,,0,,,64,0
189211,note_on,,,,,151,0,2,,,,,0,,,58,0
189211,note_on,,,,,0,0,1,,,,,0,,,88,0
189220,note_on,,,,,9,0,1,,,,,0,,,83,70
189220,note_on,,,,,0,0,2,,,,,0,,,64,60
189220,note_on,,,,,0,0,2,,,,,0,,,68,60
189220,note_on,,,,,9,0,2,,,,,0,,,59,60
189220,note_on,,,,,0,0,1,,,,,0,,,88,70
189371,note_on,,,,,0,0,2,,,,,0,,,68,0
189371,note_on,,,,,0,0,2,,,,,0,,,64,0
189371,note_on,,,,,151,0,1,,,,,0,,,83,0
189371,note_on,,,,,0,0,1,,,,,0,,,88,0
189371,note_on,,,,,151,0,2,,,,,0,,,59,0
189380,note_on,,,,,0,0,2,,,,,0,,,68,60
189380,note_on,,,,,0,0,1,,,,,0,,,88,70
189380,note_on,,,,,9,0,1,,,,,0,,,83,70
189380,note_on,,,,,9,0,2,,,,,0,,,60,60
189380,note_on,,,,,0,0,2,,,,,0,,,64,60
189491,note_on,,,,,111,0,1,,,,,0,,,80,0
189491,note_on,,,,,0,0,1,,,,,0,,,92,0
189531,note_on,,,,,0,0,2,,,,,0,,,64,0
189531,note_on,,,,,0,0,2,,,,,0,,,68,0
189531,note_on,,,,,40,0,1,,,,,0,,,83,0
189531,note_on,,,,,151,0,2,,,,,0,,,60,0
189531,note_on,,,,,0,0,1,,,,,0,,,88,0
189540,note_on,,,,,9,0,2,,,,,0,,,61,60
189540,note_on,,,,,0,0,1,,,,,0,,,92,70
189540,set_tempo,,,,,480,1,0,,375000,,,,,,,
189540,note_on,,,,,9,0,1,,,,,0,,,80,70
189540,note_on,,,,,0,0,2,,,,,0,,,68,60
189540,note_on,,,,,0,0,2,,,,,0,,,64,60
189691,note_on,,,,,151,0,2,,,,,0,,,61,0
189691,note_on,,,,,0,0,2,,,,,0,,,64,0
189691,note_on,,,,,0,0,2,,,,,0,,,68,0
189700,note_on,,,,,0,0,1,,,,,0,,,88,70
189700,note_on,,,,,160,0,1,,,,,0,,,83,70
189700,note_on,,,,,0,0,2,,,,,0,,,68,60
189700,note_on,,,,,9,0,2,,,,,0,,,62,60
189700,note_on,,,,,0,0,2,,,,,0,,,64,60
189851,note_on,,,,,151,0,1,,,,,0,,,83,0
189851,note_on,,,,,0,0,2,,,,,0,,,68,0
189851,note_on,,,,,0,0,2,,,,,0,,,64,0
189851,note_on,,,,,0,0,1,,,,,0,,,88,0
189851,note_on,,,,,151,0,2,,,,,0,,,62,0
189860,note_on,,,,,0,0,1,,,,,0,,,88,70
189860,note_on,,,,,9,0,1,,,,,0,,,83,70
189860,note_on,,,,,0,0,2,,,,,0,,,64,60
189860,note_on,,,,,0,0,2,,,,,0,,,68,60
189860,note_on,,,,,9,0,2,,,,,0,,,63,60
189995,note_on,,,,,135,0,1,,,,,0,,,80,0
189995,note_on,,,,,0,0,1,,,,,0,,,92,0
190011,note_on,,,,,16,0,1,,,,,0,,,83,0
190011,note_on,,,,,151,0,2,,,,,0,,,63,0
190011,note_on,,,,,0,0,2,,,,,0,,,64,0
190011,note_on,,,,,0,0,2,,,,,0,,,68,0
190011,note_on,,,,,0,0,1,,,,,0,,,88,0
190020,note_on,,,,,9,0,1,,,,,0,,,83,70
190020,note_on,,,,,0,0,2,,,,,0,,,68,60
190020,note_on,,,,,9,0,2,,,,,0,,,64,60
190020,note_on,,,,,0,0,1,,,,,0,,,88,70
190171,note_on,,,,,0,0,1,,,,,0,,,88,0
190171,note_on,,,,,151,0,2,,,,,0,,,64,0
190171,note_on,,,,,151,0,1,,,,,0,,,83,0
190171,note_on,,,,,0,0,2,,,,,0,,,68,0
190180,note_on,,,,,9,0,1,,,,,0,,,83,70
190180,note_on,,,,,0,0,1,,,,,0,,,88,70
190181,control_change,,,,,10,0,2,,,64,0,0,,,,
190331,note_on,,,,,0,0,1,,,,,0,,,88,0
190331,note_on,,,,,151,0,1,,,,,0,,,83,0
190340,note_on,,,,,9,0,1,,,,,0,,,80,70
190340,note_on,,,,,0,0,1,,,,,0,,,92,70
190491,note_on,,,,,151,0,1,,,,,0,,,80,0
190491,note_on,,,,,0,0,1,,,,,0,,,92,0
190500,note_on,,,,,9,0,1,,,,,0,,,83,84
190500,note_on,,,,,319,0,2,,,,,0,,,35,60
190500,note_on,,,,,0,0,1,,,,,0,,,95,84
190500,set_tempo,,,,,960,1,0,,599999,,,,,,,
190500,note_on,,,,,0,0,2,,,,,0,,,47,60
190502,control_change,,,,,2,0,2,,,64,127,0,,,,
190651,note_on,,,,,0,0,2,,,,,0,,,47,0
190651,note_on,,,,,149,0,2,,,,,0,,,35,0
190660,note_on,,,,,160,0,1,,,,,0,,,88,70
190660,note_on,,,,,0,0,1,,,,,0,,,90,70
190660,note_on,,,,,9,0,2,,,,,0,,,59,60
190660,note_on,,,,,0,0,2,,,,,0,,,66,60
190660,note_on,,,,,0,0,2,,,,,0,,,71,60
190811,note_on,,,,,0,0,2,,,,,0,,,71,0
190811,note_on,,,,,151,0,2,,,,,0,,,59,0
190811,note_on,,,,,0,0,1,,,,,0,,,90,0
190811,note_on,,,,,0,0,2,,,,,0,,,66,0
190811,note_on,,,,,151,0,1,,,,,0,,,88,0
190820,note_on,,,,,9,0,1,,,,,0,,,88,70
190820,note_on,,,,,0,0,1,,,,,0,,,90,70
190820,note_on,,,,,0,0,2,,,,,0,,,66,60
190820,note_on,,,,,9,0,2,,,,,0,,,60,60
190820,note_on,,,,,0,0,2,,,,,0,,,71,60
190971,note_on,,,,,0,0,2,,,,,0,,,71,0
190971,note_on,,,,,0,0,2,,,,,0,,,66,0
190971,note_on,,,,,151,0,1,,,,,0,,,88,0
190971,note_on,,,,,151,0,2,,,,,0,,,60,0
190971,note_on,,,,,0,0,1,,,,,0,,,90,0
190980,note_on,,,,,9,0,1,,,,,0,,,88,70
190980,note_on,,,,,0,0,2,,,,,0,,,66,60
190980,set_tempo,,,,,480,1,0,,428572,,,,,,,
190980,note_on,,,,,0,0,1,,,,,0,,,90,70
190980,note_on,,,,,0,0,2,,,,,0,,,71,60
190980,note_on,,,,,9,0,2,,,,,0,,,61,60
191131,note_on,,,,,0,0,2,,,,,0,,,71,0
191131,note_on,,,,,0,0,1,,,,,0,,,90,0
191131,note_on,,,,,151,0,1,,,,,0,,,88,0
191131,note_on,,,,,151,0,2,,,,,0,,,61,0
191131,note_on,,,,,0,0,2,,,,,0,,,66,0
191140,note_on,,,,,0,0,1,,,,,0,,,90,70
191140,note_on,,,,,0,0,2,,,,,0,,,71,60
191140,note_on,,,,,0,0,2,,,,,0,,,66,60
191140,note_on,,,,,9,0,2,,,,,0,,,62,60
191140,note_on,,,,,9,0,1,,,,,0,,,88,70
191291,note_on,,,,,0,0,2,,,,,0,,,71,0
191291,note_on,,,,,0,0,1,,,,,0,,,90,0
191291,note_on,,,,,151,0,1,,,,,0,,,88,0
191291,note_on,,,,,0,0,2,,,,,0,,,66,0
191291,note_on,,,,,151,0,2,,,,,0,,,62,0
191300,note_on,,,,,9,0,2,,,,,0,,,63,60
191300,note_on,,,,,0,0,2,,,,,0,,,71,60
191300,note_on,,,,,0,0,2,,,,,0,,,66,60
191300,note_on,,,,,0,0,1,,,,,0,,,90,70
191300,note_on,,,,,9,0,1,,,,,0,,,88,70
191451,note_on,,,,,151,0,1,,,,,0,,,88,0
191451,note_on,,,,,0,0,2,,,,,0,,,66,0
191451,note_on,,,,,0,0,2,,,,,0,,,71,0
191451,note_on,,,,,0,0,1,,,,,0,,,90,0
191451,note_on,,,,,151,0,2,,,,,0,,,63,0
191459,note_on,,,,,8,0,1,,,,,0,,,83,0
191459,note_on,,,,,0,0,1,,,,,0,,,95,0
191460,set_tempo,,,,,480,1,0,,375000,,,,,,,
191460,note_on,,,,,1,0,1,,,,,0,,,78,70
191460,note_on,,,,,0,0,1,,,,,0,,,90,70
191620,note_on,,,,,160,0,1,,,,,0,,,83,70
191620,note_on,,,,,0,0,2,,,,,0,,,71,60
191620,note_on,,,,,0,0,1,,,,,0,,,87,70
191620,note_on,,,,,0,0,2,,,,,0,,,66,60
191620,note_on,,,,,169,0,2,,,,,0,,,62,60
191771,note_on,,,,,0,0,1,,,,,0,,,87,0
191771,note_on,,,,,151,0,2,,,,,0,,,62,0
191771,note_on,,,,,0,0,2,,,,,0,,,71,0
191771,note_on,,,,,0,0,2,,,,,0,,,66,0
191771,note_on,,,,,151,0,1,,,,,0,,,83,0
191780,note_on,,,,,9,0,1,,,,,0,,,83,70
191780,note_on,,,,,0,0,2,,,,,0,,,66,60
191780,note_on,,,,,0,0,1,,,,,0,,,87,70
191780,note_on,,,,,9,0,2,,,,,0,,,63,60
191780,note_on,,,,,0,0,2,,,,,0,,,71,60
191915,note_on,,,,,0,0,1,,,,,0,,,90,0
191915,note_on,,,,,135,0,1,,,,,0,,,78,0
191931,note_on,,,,,16,0,1,,,,,0,,,83,0
191931,note_on,,,,,0,0,1,,,,,0,,,87,0
191931,note_on,,,,,151,0,2,,,,,0,,,63,0
191931,note_on,,,,,0,0,2,,,,,0,,,71,0
191931,note_on,,,,,0,0,2,,,,,0,,,66,0
191940,note_on,,,,,9,0,2,,,,,0,,,64,60
191940,note_on,,,,,0,0,2,,,,,0,,,71,60
191940,note_on,,,,,0,0,2,,,,,0,,,66,60
191940,note_on,,,,,9,0,1,,,,,0,,,83,70
191940,note_on,,,,,0,0,1,,,,,0,,,87,70
192091,note_on,,,,,0,0,2,,,,,0,,,66,0
192091,note_on,,,,,0,0,2,,,,,0,,,71,0
192091,note_on,,,,,151,0,2,,,,,0,,,64,0
192091,note_on,,,,,0,0,1,,,,,0,,,87,0
192091,note_on,,,,,151,0,1,,,,,0,,,83,0
192100,note_on,,,,,9,0,2,,,,,0,,,65,60
192100,note_on,,,,,0,0,2,,,,,0,,,71,60
192100,note_on,,,,,9,0,1,,,,,0,,,83,70
192100,note_on,,,,,0,0,1,,,,,0,,,87,70
192251,note_on,,,,,0,0,1,,,,,0,,,87,0
192251,note_on,,,,,151,0,2,,,,,0,,,65,0
192251,note_on,,,,,0,0,2,,,,,0,,,71,0
192251,note_on,,,,,151,0,1,,,,,0,,,83,0
192260,note_on,,,,,9,0,1,,,,,0,,,83,70
192260,note_on,,,,,0,0,1,,,,,0,,,87,70
192260,note_on,,,,,0,0,2,,,,,0,,,71,60
192260,note_on,,,,,9,0,2,,,,,0,,,66,60
192411,note_on,,,,,151,0,2,,,,,0,,,66,0
192411,note_on,,,,,151,0,1,,,,,0,,,83,0
192411,note_on,,,,,0,0,2,,,,,0,,,71,0
192411,note_on,,,,,0,0,1,,,,,0,,,87,0
192420,set_tempo,,,,,960,1,0,,428572,,,,,,,
192420,note_on,,,,,0,0,2,,,,,0,,,56,60
192420,note_on,,,,,9,0,2,,,,,0,,,71,72
192421,control_change,,,,,1,0,2,,,64,0,0,,,,
192422,control_change,,,,,1,0,2,,,64,127,0,,,,
192483,note_on,,,,,61,0,2,,,,,0,,,62,60
192547,note_on,,,,,64,0,2,,,,,0,,,65,60
192658,note_on,,,,,111,0,2,,,,,0,,,62,0
192658,note_on,,,,,0,0,2,,,,,0,,,65,0
192659,note_on,,,,,1,0,2,,,,,0,,,56,0
192740,note_on,,,,,329,0,1,,,,,0,,,61,70
192740,note_on,,,,,0,0,1,,,,,0,,,71,70
192740,note_on,,,,,81,0,2,,,,,0,,,71,0
192891,note_on,,,,,151,0,1,,,,,0,,,61,0
192900,note_on,,,,,9,0,1,,,,,0,,,62,70
192900,note_on,,,,,0,0,1,,,,,0,,,71,70
192900,note_on,,,,,0,0,1,,,,,0,,,71,0
193051,note_on,,,,,151,0,1,,,,,0,,,62,0
193060,note_on,,,,,0,0,1,,,,,0,,,71,0
193060,note_on,,,,,0,0,1,,,,,0,,,71,70
193060,note_on,,,,,9,0,1,,,,,0,,,63,70
193211,note_on,,,,,151,0,1,,,,,0,,,63,0
193220,note_on,,,,,0,0,1,,,,,0,,,71,0
193220,note_on,,,,,0,0,1,,,,,0,,,71,70
193220,note_on,,,,,9,0,1,,,,,0,,,64,70
193371,note_on,,,,,151,0,1,,,,,0,,,64,0
193379,note_on,,,,,8,0,1,,,,,0,,,71,0
193380,note_on,,,,,0,0,2,,,,,0,,,44,60
193380,note_on,,,,,1,0,1,,,,,0,,,65,70
193380,note_on,,,,,640,0,2,,,,,0,,,59,60
193380,set_tempo,,,,,960,1,0,,375000,,,,,,,
193380,note_on,,,,,0,0,1,,,,,0,,,71,70
193443,note_on,,,,,63,0,2,,,,,0,,,50,60
193507,note_on,,,,,64,0,2,,,,,0,,,53,60
193531,note_on,,,,,0,0,1,,,,,0,,,71,0
193531,note_on,,,,,151,0,1,,,,,0,,,65,0
193540,note_on,,,,,0,0,1,,,,,0,,,71,70
193540,note_on,,,,,9,0,1,,,,,0,,,66,70
193618,note_on,,,,,0,0,2,,,,,0,,,53,0
193618,note_on,,,,,111,0,2,,,,,0,,,50,0
193619,note_on,,,,,1,0,2,,,,,0,,,44,0
193691,note_on,,,,,0,0,1,,,,,0,,,71,0
193691,note_on,,,,,151,0,1,,,,,0,,,66,0
193700,note_on,,,,,0,0,1,,,,,0,,,71,70
193700,note_on,,,,,9,0,1,,,,,0,,,67,70
193851,note_on,,,,,151,0,1,,,,,0,,,67,0
193851,note_on,,,,,0,0,1,,,,,0,,,71,0
193860,note_on,,,,,9,0,1,,,,,0,,,68,70
193860,note_on,,,,,0,0,1,,,,,0,,,71,70
194011,note_on,,,,,0,0,1,,,,,0,,,71,0
194011,note_on,,,,,151,0,1,,,,,0,,,68,0
194020,note_on,,,,,0,0,1,,,,,0,,,71,70
194020,note_on,,,,,9,0,1,,,,,0,,,69,70
194063,note_on,,,,,444,0,2,,,,,0,,,59,0
194100,note_on,,,,,37,0,2,,,,,0,,,59,60
194171,note_on,,,,,0,0,1,,,,,0,,,71,0
194171,note_on,,,,,151,0,1,,,,,0,,,69,0
194180,note_on,,,,,9,0,1,,,,,0,,,70,70
194180,note_on,,,,,0,0,1,,,,,0,,,71,70
194327,note_on,,,,,227,0,2,,,,,0,,,59,0
194331,note_on,,,,,151,0,1,,,,,0,,,70,0
194331,note_on,,,,,0,0,1,,,,,0,,,71,0
194340,note_on,,,,,9,0,1,,,,,0,,,71,70
194340,set_tempo,,,,,960,1,0,,428572,,,,,,,
194340,note_on,,,,,0,0,2,,,,,0,,,44,60
194340,note_on,,,,,0,0,2,,,,,0,,,51,60
194340,note_on,,,,,13,0,2,,,,,0,,,59,60
194341,control_change,,,,,1,0,2,,,64,0,0,,,,
194342,control_change,,,,,1,0,2,,,64,127,0,,,,
194491,note_on,,,,,151,0,1,,,,,0,,,71,0
194500,note_on,,,,,9,0,1,,,,,0,,,71,70
194500,note_on,,,,,0,0,1,,,,,0,,,72,70
194567,note_on,,,,,225,0,2,,,,,0,,,44,0
194567,note_on,,,,,0,0,2,,,,,0,,,51,0
194651,note_on,,,,,151,0,1,,,,,0,,,71,0
194651,note_on,,,,,0,0,1,,,,,0,,,72,0
194660,note_on,,,,,9,0,1,,,,,0,,,71,70
194660,note_on,,,,,0,0,1,,,,,0,,,73,70
194795,note_on,,,,,228,0,2,,,,,0,,,59,0
194811,note_on,,,,,151,0,1,,,,,0,,,71,0
194811,note_on,,,,,0,0,1,,,,,0,,,73,0
194820,note_on,,,,,9,0,1,,,,,0,,,71,70
194820,note_on,,,,,0,0,1,,,,,0,,,74,70
194971,note_on,,,,,151,0,1,,,,,0,,,71,0
194971,note_on,,,,,0,0,1,,,,,0,,,74,0
194980,note_on,,,,,9,0,1,,,,,0,,,71,70
194980,note_on,,,,,0,0,1,,,,,0,,,75,70
195131,note_on,,,,,151,0,1,,,,,0,,,71,0
195131,note_on,,,,,0,0,1,,,,,0,,,75,0
195140,note_on,,,,,0,0,1,,,,,0,,,76,70
195140,note_on,,,,,9,0,1,,,,,0,,,71,70
195180,note_on,,,,,0,0,2,,,,,0,,,39,60
195180,note_on,,,,,385,0,2,,,,,0,,,32,60
195291,note_on,,,,,151,0,1,,,,,0,,,71,0
195291,note_on,,,,,0,0,1,,,,,0,,,76,0
195293,note_on,,,,,113,0,2,,,,,0,,,32,0
195293,note_on,,,,,0,0,2,,,,,0,,,39,0
195300,note_on,,,,,9,0,1,,,,,0,,,71,70
195300,note_on,,,,,7,0,2,,,,,0,,,32,60
195300,note_on,,,,,0,0,2,,,,,0,,,39,60
195300,note_on,,,,,0,0,1,,,,,0,,,77,70
195300,set_tempo,,,,,960,1,0,,375000,,,,,,,
195451,note_on,,,,,151,0,1,,,,,0,,,71,0
195451,note_on,,,,,0,0,1,,,,,0,,,77,0
195460,note_on,,,,,9,0,1,,,,,0,,,71,70
195460,note_on,,,,,0,0,1,,,,,0,,,78,70
195527,note_on,,,,,227,0,2,,,,,0,,,32,0
195527,note_on,,,,,0,0,2,,,,,0,,,39,0
195611,note_on,,,,,151,0,1,,,,,0,,,71,0
195611,note_on,,,,,0,0,1,,,,,0,,,78,0
195620,note_on,,,,,9,0,1,,,,,0,,,71,70
195620,note_on,,,,,0,0,1,,,,,0,,,79,70
195771,note_on,,,,,0,0,1,,,,,0,,,79,0
195771,note_on,,,,,151,0,1,,,,,0,,,71,0
195780,note_on,,,,,9,0,1,,,,,0,,,71,70
195780,note_on,,,,,0,0,1,,,,,0,,,80,70
195931,note_on,,,,,0,0,1,,,,,0,,,80,0
195931,note_on,,,,,151,0,1,,,,,0,,,71,0
195940,note_on,,,,,9,0,1,,,,,0,,,71,70
195940,note_on,,,,,0,0,1,,,,,0,,,81,70
196091,note_on,,,,,0,0,1,,,,,0,,,81,0
196091,note_on,,,,,151,0,1,,,,,0,,,71,0
196100,note_on,,,,,9,0,1,,,,,0,,,71,70
196100,note_on,,,,,0,0,1,,,,,0,,,82,70
196251,note_on,,,,,0,0,1,,,,,0,,,82,0
196251,note_on,,,,,151,0,1,,,,,0,,,71,0
196260,note_on,,,,,9,0,1,,,,,0,,,83,70
196260,note_on,,,,,733,0,2,,,,,0,,,71,60
196260,note_on,,,,,0,0,2,,,,,0,,,56,60
196260,set_tempo,,,,,960,1,0,,428572,,,,,,,
196261,control_change,,,,,1,0,2,,,64,0,0,,,,
196262,control_change,,,,,1,0,2,,,64,127,0,,,,
196323,note_on,,,,,61,0,2,,,,,0,,,62,60
196387,note_on,,,,,64,0,2,,,,,0,,,65,60
196411,note_on,,,,,151,0,1,,,,,0,,,83,0
196420,note_on,,,,,0,0,1,,,,,0,,,83,70
196420,note_on,,,,,9,0,1,,,,,0,,,72,70
196498,note_on,,,,,111,0,2,,,,,0,,,62,0
196498,note_on,,,,,0,0,2,,,,,0,,,65,0
196499,note_on,,,,,1,0,2,,,,,0,,,56,0
196571,note_on,,,,,151,0,1,,,,,0,,,72,0
196571,note_on,,,,,0,0,1,,,,,0,,,83,0
196580,note_on,,,,,9,0,1,,,,,0,,,73,70
196580,note_on,,,,,0,0,1,,,,,0,,,83,70
196731,note_on,,,,,0,0,1,,,,,0,,,83,0
196731,note_on,,,,,151,0,1,,,,,0,,,73,0
196740,note_on,,,,,9,0,1,,,,,0,,,74,70
196740,note_on,,,,,0,0,1,,,,,0,,,83,70
196891,note_on,,,,,151,0,1,,,,,0,,,74,0
196891,note_on,,,,,0,0,1,,,,,0,,,83,0
196900,note_on,,,,,9,0,1,,,,,0,,,75,70
196900,note_on,,,,,0,0,1,,,,,0,,,83,70
197051,note_on,,,,,151,0,1,,,,,0,,,75,0
197051,note_on,,,,,0,0,1,,,,,0,,,83,0
197060,note_on,,,,,0,0,1,,,,,0,,,83,70
197060,note_on,,,,,9,0,1,,,,,0,,,76,70
197171,note_on,,,,,672,0,2,,,,,0,,,71,0
197211,note_on,,,,,0,0,1,,,,,0,,,83,0
197211,note_on,,,,,151,0,1,,,,,0,,,76,0
197220,note_on,,,,,0,0,2,,,,,0,,,44,60
197220,note_on,,,,,49,0,2,,,,,0,,,59,60
197220,note_on,,,,,0,0,1,,,,,0,,,83,70
197220,set_tempo,,,,,960,1,0,,375000,,,,,,,
197220,note_on,,,,,9,0,1,,,,,0,,,77,70
197283,note_on,,,,,63,0,2,,,,,0,,,50,60
197347,note_on,,,,,64,0,2,,,,,0,,,53,60
197371,note_on,,,,,0,0,1,,,,,0,,,83,0
197371,note_on,,,,,151,0,1,,,,,0,,,77,0
197380,note_on,,,,,0,0,1,,,,,0,,,83,70
197380,note_on,,,,,9,0,1,,,,,0,,,78,70
197458,note_on,,,,,111,0,2,,,,,0,,,50,0
197458,note_on,,,,,0,0,2,,,,,0,,,53,0
197459,note_on,,,,,1,0,2,,,,,0,,,44,0
197531,note_on,,,,,151,0,1,,,,,0,,,78,0
197531,note_on,,,,,0,0,1,,,,,0,,,83,0
197540,note_on,,,,,9,0,1,,,,,0,,,79,70
197540,note_on,,,,,0,0,1,,,,,0,,,83,70
197691,note_on,,,,,151,0,1,,,,,0,,,79,0
197691,note_on,,,,,0,0,1,,,,,0,,,83,0
197700,note_on,,,,,0,0,1,,,,,0,,,83,70
197700,note_on,,,,,9,0,1,,,,,0,,,80,70
197851,note_on,,,,,0,0,1,,,,,0,,,83,0
197851,note_on,,,,,151,0,1,,,,,0,,,80,0
197860,note_on,,,,,0,0,1,,,,,0,,,83,70
197860,note_on,,,,,9,0,1,,,,,0,,,81,70
197903,note_on,,,,,444,0,2,,,,,0,,,59,0
197940,note_on,,,,,37,0,2,,,,,0,,,59,60
198011,note_on,,,,,151,0,1,,,,,0,,,81,0
198011,note_on,,,,,0,0,1,,,,,0,,,83,0
198020,note_on,,,,,0,0,1,,,,,0,,,83,70
198020,note_on,,,,,9,0,1,,,,,0,,,82,70
198167,note_on,,,,,227,0,2,,,,,0,,,59,0
198171,note_on,,,,,0,0,1,,,,,0,,,83,0
198171,note_on,,,,,151,0,1,,,,,0,,,82,0
198180,note_on,,,,,0,0,2,,,,,0,,,51,60
198180,note_on,,,,,0,0,2,,,,,0,,,44,60
198180,note_on,,,,,13,0,2,,,,,0,,,59,60
198180,set_tempo,,,,,960,1,0,,428572,,,,,,,
198180,note_on,,,,,9,0,1,,,,,0,,,83,70
198181,control_change,,,,,1,0,2,,,64,0,0,,,,
198182,control_change,,,,,1,0,2,,,64,127,0,,,,
198331,note_on,,,,,151,0,1,,,,,0,,,83,0
198340,note_on,,,,,0,0,1,,,,,0,,,84,70
198340,note_on,,,,,9,0,1,,,,,0,,,83,70
198407,note_on,,,,,225,0,2,,,,,0,,,44,0
198407,note_on,,,,,0,0,2,,,,,0,,,51,0
198491,note_on,,,,,0,0,1,,,,,0,,,84,0
198491,note_on,,,,,151,0,1,,,,,0,,,83,0
198500,note_on,,,,,0,0,1,,,,,0,,,85,70
198500,note_on,,,,,9,0,1,,,,,0,,,83,70
198635,note_on,,,,,228,0,2,,,,,0,,,59,0
198651,note_on,,,,,0,0,1,,,,,0,,,85,0
198651,note_on,,,,,151,0,1,,,,,0,,,83,0
198660,note_on,,,,,0,0,1,,,,,0,,,86,70
198660,note_on,,,,,9,0,1,,,,,0,,,83,70
198811,note_on,,,,,0,0,1,,,,,0,,,86,0
198811,note_on,,,,,151,0,1,,,,,0,,,83,0
198820,note_on,,,,,9,0,1,,,,,0,,,83,70
198820,note_on,,,,,0,0,1,,,,,0,,,87,70
198971,note_on,,,,,151,0,1,,,,,0,,,83,0
198971,note_on,,,,,0,0,1,,,,,0,,,87,0
198980,note_on,,,,,0,0,1,,,,,0,,,88,70
198980,note_on,,,,,9,0,1,,,,,0,,,83,70
199020,note_on,,,,,0,0,2,,,,,0,,,39,60
199020,note_on,,,,,385,0,2,,,,,0,,,32,60
199131,note_on,,,,,0,0,1,,,,,0,,,88,0
199131,note_on,,,,,151,0,1,,,,,0,,,83,0
199133,note_on,,,,,113,0,2,,,,,0,,,32,0
199133,note_on,,,,,0,0,2,,,,,0,,,39,0
199140,note_on,,,,,7,0,2,,,,,0,,,32,60
199140,note_on,,,,,9,0,1,,,,,0,,,83,70
199140,set_tempo,,,,,960,1,0,,375000,,,,,,,
199140,note_on,,,,,0,0,2,,,,,0,,,39,60
199140,note_on,,,,,0,0,1,,,,,0,,,89,70
199291,note_on,,,,,151,0,1,,,,,0,,,83,0
199291,note_on,,,,,0,0,1,,,,,0,,,89,0
199300,note_on,,,,,9,0,1,,,,,0,,,83,70
199300,note_on,,,,,0,0,1,,,,,0,,,90,70
199367,note_on,,,,,0,0,2,,,,,0,,,39,0
199367,note_on,,,,,227,0,2,,,,,0,,,32,0
199451,note_on,,,,,0,0,1,,,,,0,,,90,0
199451,note_on,,,,,151,0,1,,,,,0,,,83,0
199460,note_on,,,,,9,0,1,,,,,0,,,83,70
199460,note_on,,,,,0,0,1,,,,,0,,,91,70
199611,note_on,,,,,0,0,1,,,,,0,,,91,0
199611,note_on,,,,,151,0,1,,,,,0,,,83,0
199620,note_on,,,,,0,0,1,,,,,0,,,92,70
199620,note_on,,,,,9,0,1,,,,,0,,,83,70
199771,note_on,,,,,0,0,1,,,,,0,,,92,0
199771,note_on,,,,,151,0,1,,,,,0,,,83,0
199780,note_on,,,,,0,0,1,,,,,0,,,93,70
199780,note_on,,,,,9,0,1,,,,,0,,,83,70
199931,note_on,,,,,0,0,1,,,,,0,,,93,0
199931,note_on,,,,,151,0,1,,,,,0,,,83,0
199940,note_on,,,,,0,0,1,,,,,0,,,94,70
199940,note_on,,,,,9,0,1,,,,,0,,,83,70
200091,note_on,,,,,0,0,1,,,,,0,,,94,0
200091,note_on,,,,,151,0,1,,,,,0,,,83,0
200100,note_on,,,,,9,0,1,,,,,0,,,83,70
200100,note_on,,,,,733,0,2,,,,,0,,,71,70
200100,note_on,,,,,0,0,1,,,,,0,,,95,70
200100,set_tempo,,,,,960,1,0,,428572,,,,,,,
200100,note_on,,,,,0,0,2,,,,,0,,,56,70
200101,control_change,,,,,1,0,2,,,64,0,0,,,,
200102,control_change,,,,,1,0,2,,,64,127,0,,,,
200163,note_on,,,,,61,0,2,,,,,0,,,62,70
200227,note_on,,,,,64,0,2,,,,,0,,,65,70
200251,note_on,,,,,0,0,1,,,,,0,,,95,0
200251,note_on,,,,,151,0,1,,,,,0,,,83,0
200260,note_on,,,,,9,0,1,,,,,0,,,84,72
200260,note_on,,,,,0,0,1,,,,,0,,,95,72
200338,note_on,,,,,0,0,2,,,,,0,,,65,0
200338,note_on,,,,,111,0,2,,,,,0,,,62,0
200339,note_on,,,,,1,0,2,,,,,0,,,56,0
200411,note_on,,,,,0,0,1,,,,,0,,,95,0
200411,note_on,,,,,151,0,1,,,,,0,,,84,0
200420,note_on,,,,,9,0,1,,,,,0,,,85,74
200420,note_on,,,,,0,0,1,,,,,0,,,95,74
200571,note_on,,,,,151,0,1,,,,,0,,,85,0
200571,note_on,,,,,0,0,1,,,,,0,,,95,0
200580,note_on,,,,,9,0,1,,,,,0,,,86,76
200580,note_on,,,,,0,0,1,,,,,0,,,95,76
200731,note_on,,,,,0,0,1,,,,,0,,,95,0
200731,note_on,,,,,151,0,1,,,,,0,,,86,0
200740,note_on,,,,,0,0,1,,,,,0,,,95,78
200740,note_on,,,,,9,0,1,,,,,0,,,87,78
200891,note_on,,,,,0,0,1,,,,,0,,,95,0
200891,note_on,,,,,151,0,1,,,,,0,,,87,0
200900,note_on,,,,,0,0,1,,,,,0,,,95,80
200900,note_on,,,,,9,0,1,,,,,0,,,88,80
201011,note_on,,,,,672,0,2,,,,,0,,,71,0
201051,note_on,,,,,151,0,1,,,,,0,,,88,0
201051,note_on,,,,,0,0,1,,,,,0,,,95,0
201060,note_on,,,,,49,0,2,,,,,0,,,59,83
201060,set_tempo,,,,,960,1,0,,375000,,,,,,,
201060,note_on,,,,,0,0,2,,,,,0,,,44,83
201123,note_on,,,,,63,0,2,,,,,0,,,50,83
201187,note_on,,,,,64,0,2,,,,,0,,,53,83
201220,note_on,,,,,0,0,1,,,,,0,,,88,85
201220,note_on,,,,,0,0,1,,,,,0,,,95,85
201220,note_on,,,,,169,0,1,,,,,0,,,86,85
201298,note_on,,,,,111,0,2,,,,,0,,,50,0
201298,note_on,,,,,0,0,2,,,,,0,,,53,0
201299,note_on,,,,,1,0,2,,,,,0,,,44,0
201371,note_on,,,,,0,0,1,,,,,0,,,88,0
201371,note_on,,,,,151,0,1,,,,,0,,,86,0
201371,note_on,,,,,0,0,1,,,,,0,,,95,0
201380,note_on,,,,,0,0,1,,,,,0,,,89,87
201380,note_on,,,,,0,0,1,,,,,0,,,95,87
201380,note_on,,,,,9,0,1,,,,,0,,,86,87
201531,note_on,,,,,0,0,1,,,,,0,,,89,0
201531,note_on,,,,,0,0,1,,,,,0,,,95,0
201531,note_on,,,,,151,0,1,,,,,0,,,86,0
201540,note_on,,,,,9,0,1,,,,,0,,,86,89
201540,note_on,,,,,0,0,1,,,,,0,,,90,89
201540,note_on,,,,,0,0,1,,,,,0,,,95,89
201691,note_on,,,,,0,0,1,,,,,0,,,95,0
201691,note_on,,,,,0,0,1,,,,,0,,,90,0
201691,note_on,,,,,151,0,1,,,,,0,,,86,0
201700,note_on,,,,,9,0,1,,,,,0,,,86,91
201700,note_on,,,,,0,0,1,,,,,0,,,95,91
201700,note_on,,,,,0,0,1,,,,,0,,,91,91
201743,note_on,,,,,444,0,2,,,,,0,,,59,0
201780,note_on,,,,,37,0,2,,,,,0,,,59,92
201851,note_on,,,,,151,0,1,,,,,0,,,86,0
201851,note_on,,,,,0,0,1,,,,,0,,,91,0
201851,note_on,,,,,0,0,1,,,,,0,,,95,0
201860,note_on,,,,,9,0,1,,,,,0,,,86,93
201860,note_on,,,,,0,0,1,,,,,0,,,92,93
201860,note_on,,,,,0,0,1,,,,,0,,,95,93
202007,note_on,,,,,227,0,2,,,,,0,,,59,0
202011,note_on,,,,,0,0,1,,,,,0,,,92,0
202011,note_on,,,,,151,0,1,,,,,0,,,86,0
202011,note_on,,,,,0,0,1,,,,,0,,,95,0
202020,note_on,,,,,13,0,2,,,,,0,,,43,115
202020,set_tempo,,,,,960,1,0,,428572,,,,,,,
202021,control_change,,,,,1,0,2,,,64,0,0,,,,
202022,control_change,,,,,1,0,2,,,64,127,0,,,,
202178,note_on,,,,,156,0,2,,,,,0,,,43,0
202179,note_on,,,,,1,0,2,,,,,0,,,52,115
202180,note_on,,,,,169,0,1,,,,,0,,,91,96
202180,note_on,,,,,0,0,1,,,,,0,,,100,96
202180,note_on,,,,,0,0,1,,,,,0,,,96,96
202331,note_on,,,,,0,0,1,,,,,0,,,100,0
202331,note_on,,,,,0,0,1,,,,,0,,,96,0
202331,note_on,,,,,151,0,1,,,,,0,,,91,0
202337,note_on,,,,,158,0,2,,,,,0,,,52,0
202338,note_on,,,,,1,0,2,,,,,0,,,55,115
202340,note_on,,,,,9,0,1,,,,,0,,,90,96
202340,note_on,,,,,0,0,1,,,,,0,,,95,96
202340,note_on,,,,,0,0,1,,,,,0,,,99,96
202491,note_on,,,,,0,0,1,,,,,0,,,99,0
202491,note_on,,,,,151,0,1,,,,,0,,,90,0
202491,note_on,,,,,0,0,1,,,,,0,,,95,0
202496,note_on,,,,,158,0,2,,,,,0,,,55,0
202500,note_on,,,,,4,0,2,,,,,0,,,60,115
202500,note_on,,,,,0,0,1,,,,,0,,,98,96
202500,note_on,,,,,0,0,1,,,,,0,,,94,96
202500,note_on,,,,,0,0,2,,,,,0,,,64,115
202500,note_on,,,,,9,0,1,,,,,0,,,89,96
202651,note_on,,,,,151,0,1,,,,,0,,,89,0
202651,note_on,,,,,0,0,1,,,,,0,,,98,0
202651,note_on,,,,,0,0,1,,,,,0,,,94,0
202660,note_on,,,,,0,0,1,,,,,0,,,93,96
202660,note_on,,,,,0,0,1,,,,,0,,,97,96
202660,note_on,,,,,9,0,1,,,,,0,,,88,96
202811,note_on,,,,,0,0,1,,,,,0,,,93,0
202811,note_on,,,,,0,0,1,,,,,0,,,97,0
202811,note_on,,,,,151,0,1,,,,,0,,,88,0
202820,note_on,,,,,0,0,1,,,,,0,,,96,96
202820,note_on,,,,,0,0,1,,,,,0,,,92,96
202820,note_on,,,,,320,0,2,,,,,0,,,60,0
202820,note_on,,,,,0,0,2,,,,,0,,,64,0
202820,note_on,,,,,9,0,1,,,,,0,,,87,96
202971,note_on,,,,,0,0,1,,,,,0,,,96,0
202971,note_on,,,,,0,0,1,,,,,0,,,92,0
202971,note_on,,,,,151,0,1,,,,,0,,,87,0
202980,note_on,,,,,0,0,1,,,,,0,,,95,96
202980,set_tempo,,,,,960,1,0,,375000,,,,,,,
202980,note_on,,,,,160,0,2,,,,,0,,,31,96
202980,note_on,,,,,9,0,1,,,,,0,,,86,96
202980,note_on,,,,,0,0,1,,,,,0,,,91,96
202980,note_on,,,,,0,0,2,,,,,0,,,43,96
203131,note_on,,,,,0,0,1,,,,,0,,,91,0
203131,note_on,,,,,151,0,1,,,,,0,,,86,0
203131,note_on,,,,,0,0,1,,,,,0,,,95,0
203140,note_on,,,,,9,0,1,,,,,0,,,85,96
203140,note_on,,,,,0,0,1,,,,,0,,,94,96
203140,note_on,,,,,0,0,1,,,,,0,,,90,96
203207,note_on,,,,,0,0,2,,,,,0,,,43,0
203207,note_on,,,,,227,0,2,,,,,0,,,31,0
203291,note_on,,,,,0,0,1,,,,,0,,,94,0
203291,note_on,,,,,0,0,1,,,,,0,,,90,0
203291,note_on,,,,,151,0,1,,,,,0,,,85,0
203300,note_on,,,,,0,0,1,,,,,0,,,89,96
203300,note_on,,,,,0,0,1,,,,,0,,,93,96
203300,note_on,,,,,9,0,1,,,,,0,,,84,96
203451,note_on,,,,,0,0,1,,,,,0,,,89,0
203451,note_on,,,,,0,0,1,,,,,0,,,93,0
203451,note_on,,,,,151,0,1,,,,,0,,,84,0
203460,note_on,,,,,253,0,2,,,,,0,,,55,96
203460,note_on,,,,,0,0,2,,,,,0,,,64,96
203460,note_on,,,,,0,0,2,,,,,0,,,60,96
203915,note_on,,,,,455,0,2,,,,,0,,,55,0
203915,note_on,,,,,0,0,2,,,,,0,,,60,0
203915,note_on,,,,,0,0,2,,,,,0,,,64,0
203940,set_tempo,,,,,960,1,0,,428572,,,,,,,
203940,note_on,,,,,0,0,2,,,,,0,,,65,96
203940,note_on,,,,,489,0,1,,,,,0,,,80,96
203940,note_on,,,,,0,0,1,,,,,0,,,85,96
203940,note_on,,,,,0,0,1,,,,,0,,,89,96
203940,note_on,,,,,25,0,2,,,,,0,,,56,96
203940,note_on,,,,,0,0,2,,,,,0,,,61,96
203941,control_change,,,,,1,0,2,,,64,0,0,,,,
203942,control_change,,,,,2,0,1,,,64,127,0,,,,
204091,note_on,,,,,149,0,1,,,,,0,,,80,0
204091,note_on,,,,,0,0,1,,,,,0,,,85,0
204091,note_on,,,,,0,0,1,,,,,0,,,89,0
204100,note_on,,,,,9,0,1,,,,,0,,,79,96
204100,note_on,,,,,0,0,1,,,,,0,,,88,96
204100,note_on,,,,,0,0,1,,,,,0,,,84,96
204251,note_on,,,,,0,0,1,,,,,0,,,88,0
204251,note_on,,,,,0,0,1,,,,,0,,,84,0
204251,note_on,,,,,151,0,1,,,,,0,,,79,0
204260,note_on,,,,,0,0,1,,,,,0,,,82,96
204260,note_on,,,,,0,0,1,,,,,0,,,87,96
204260,note_on,,,,,9,0,1,,,,,0,,,78,96
204411,note_on,,,,,0,0,1,,,,,0,,,82,0
204411,note_on,,,,,0,0,1,,,,,0,,,87,0
204411,note_on,,,,,151,0,1,,,,,0,,,78,0
204420,note_on,,,,,0,0,1,,,,,0,,,82,96
204420,note_on,,,,,0,0,1,,,,,0,,,86,96
204420,note_on,,,,,9,0,1,,,,,0,,,77,96
204571,note_on,,,,,151,0,1,,,,,0,,,77,0
204571,note_on,,,,,0,0,1,,,,,0,,,82,0
204571,note_on,,,,,0,0,1,,,,,0,,,86,0
204580,note_on,,,,,0,0,1,,,,,0,,,81,96
204580,note_on,,,,,9,0,1,,,,,0,,,76,96
204580,note_on,,,,,0,0,1,,,,,0,,,85,96
204731,note_on,,,,,151,0,1,,,,,0,,,76,0
204731,note_on,,,,,0,0,1,,,,,0,,,81,0
204731,note_on,,,,,0,0,1,,,,,0,,,85,0
204740,note_on,,,,,0,0,1,,,,,0,,,80,96
204740,note_on,,,,,0,0,1,,,,,0,,,85,96
204740,note_on,,,,,9,0,1,,,,,0,,,75,96
204851,note_on,,,,,0,0,2,,,,,0,,,65,0
204851,note_on,,,,,910,0,2,,,,,0,,,56,0
204851,note_on,,,,,0,0,2,,,,,0,,,61,0
204891,note_on,,,,,151,0,1,,,,,0,,,75,0
204891,note_on,,,,,0,0,1,,,,,0,,,80,0
204891,note_on,,,,,0,0,1,,,,,0,,,85,0
204900,note_on,,,,,49,0,2,,,,,0,,,59,96
204900,set_tempo,,,,,960,1,0,,375000,,,,,,,
205060,note_on,,,,,169,0,1,,,,,0,,,74,96
205060,note_on,,,,,0,0,1,,,,,0,,,79,96
205060,note_on,,,,,0,0,1,,,,,0,,,83,96
205061,control_change,,,,,1,0,1,,,64,0,0,,,,
205062,control_change,,,,,1,0,1,,,64,127,0,,,,
205211,note_on,,,,,149,0,1,,,,,0,,,74,0
205211,note_on,,,,,0,0,1,,,,,0,,,79,0
205211,note_on,,,,,0,0,1,,,,,0,,,83,0
205220,note_on,,,,,0,0,1,,,,,0,,,82,96
205220,note_on,,,,,0,0,1,,,,,0,,,78,96
205220,note_on,,,,,9,0,1,,,,,0,,,73,96
205371,note_on,,,,,0,0,1,,,,,0,,,78,0
205371,note_on,,,,,151,0,1,,,,,0,,,73,0
205371,note_on,,,,,0,0,1,,,,,0,,,82,0
205380,note_on,,,,,0,0,1,,,,,0,,,77,96
205380,note_on,,,,,9,0,1,,,,,0,,,72,96
205380,note_on,,,,,0,0,1,,,,,0,,,81,96
205531,note_on,,,,,0,0,1,,,,,0,,,77,0
205531,note_on,,,,,0,0,1,,,,,0,,,81,0
205531,note_on,,,,,151,0,1,,,,,0,,,72,0
205540,note_on,,,,,0,0,1,,,,,0,,,80,96
205540,note_on,,,,,0,0,1,,,,,0,,,74,96
205540,note_on,,,,,9,0,1,,,,,0,,,71,96
205583,note_on,,,,,683,0,2,,,,,0,,,59,0
205620,note_on,,,,,0,0,2,,,,,0,,,53,96
205620,note_on,,,,,0,0,2,,,,,0,,,59,96
205620,note_on,,,,,37,0,2,,,,,0,,,50,96
205691,note_on,,,,,151,0,1,,,,,0,,,71,0
205691,note_on,,,,,0,0,1,,,,,0,,,74,0
205691,note_on,,,,,0,0,1,,,,,0,,,80,0
205700,note_on,,,,,0,0,1,,,,,0,,,74,96
205700,note_on,,,,,9,0,1,,,,,0,,,71,96
205700,note_on,,,,,0,0,1,,,,,0,,,79,96
205847,note_on,,,,,227,0,2,,,,,0,,,50,0
205847,note_on,,,,,0,0,2,,,,,0,,,53,0
205847,note_on,,,,,0,0,2,,,,,0,,,59,0
205851,note_on,,,,,151,0,1,,,,,0,,,71,0
205851,note_on,,,,,0,0,1,,,,,0,,,74,0
205851,note_on,,,,,0,0,1,,,,,0,,,79,0
205860,note_on,,,,,13,0,2,,,,,0,,,55,96
205860,note_on,,,,,0,0,2,,,,,0,,,64,96
205860,note_on,,,,,0,0,2,,,,,0,,,60,96
205860,set_tempo,,,,,960,1,0,,428572,,,,,,,
205861,control_change,,,,,10,0,1,,,64,0,0,,,,
205862,control_change,,,,,2,0,2,,,64,127,0,,,,
206020,note_on,,,,,0,0,1,,,,,0,,,88,96
206020,note_on,,,,,0,0,1,,,,,0,,,84,96
206020,note_on,,,,,159,0,1,,,,,0,,,79,96
206171,note_on,,,,,0,0,1,,,,,0,,,88,0
206171,note_on,,,,,151,0,1,,,,,0,,,79,0
206171,note_on,,,,,0,0,1,,,,,0,,,84,0
206180,note_on,,,,,0,0,1,,,,,0,,,87,96
206180,note_on,,,,,0,0,1,,,,,0,,,83,96
206180,note_on,,,,,9,0,1,,,,,0,,,78,96
206331,note_on,,,,,0,0,1,,,,,0,,,83,0
206331,note_on,,,,,0,0,1,,,,,0,,,87,0
206331,note_on,,,,,151,0,1,,,,,0,,,78,0
206340,note_on,,,,,9,0,1,,,,,0,,,77,96
206340,note_on,,,,,0,0,1,,,,,0,,,82,96
206340,note_on,,,,,0,0,1,,,,,0,,,86,96
206491,note_on,,,,,0,0,1,,,,,0,,,86,0
206491,note_on,,,,,151,0,1,,,,,0,,,77,0
206491,note_on,,,,,0,0,1,,,,,0,,,82,0
206500,note_on,,,,,9,0,1,,,,,0,,,76,96
206500,note_on,,,,,0,0,1,,,,,0,,,81,96
206500,note_on,,,,,0,0,1,,,,,0,,,85,96
206651,note_on,,,,,0,0,1,,,,,0,,,81,0
206651,note_on,,,,,0,0,1,,,,,0,,,85,0
206651,note_on,,,,,151,0,1,,,,,0,,,76,0
206660,note_on,,,,,0,0,1,,,,,0,,,84,96
206660,note_on,,,,,9,0,1,,,,,0,,,75,96
206660,note_on,,,,,0,0,1,,,,,0,,,80,96
206771,note_on,,,,,0,0,2,,,,,0,,,64,0
206771,note_on,,,,,909,0,2,,,,,0,,,55,0
206771,note_on,,,,,0,0,2,,,,,0,,,60,0
206811,note_on,,,,,0,0,1,,,,,0,,,80,0
206811,note_on,,,,,0,0,1,,,,,0,,,84,0
206811,note_on,,,,,151,0,1,,,,,0,,,75,0
206820,note_on,,,,,49,0,2,,,,,0,,,31,96
206820,set_tempo,,,,,960,1,0,,375000,,,,,,,
206820,note_on,,,,,0,0,1,,,,,0,,,83,96
206820,note_on,,,,,0,0,1,,,,,0,,,79,96
206820,note_on,,,,,9,0,1,,,,,0,,,74,96
206820,note_on,,,,,0,0,2,,,,,0,,,43,96
206971,note_on,,,,,151,0,1,,,,,0,,,74,0
206971,note_on,,,,,0,0,1,,,,,0,,,79,0
206971,note_on,,,,,0,0,1,,,,,0,,,83,0
206980,note_on,,,,,0,0,1,,,,,0,,,78,96
206980,note_on,,,,,0,0,1,,,,,0,,,82,96
206980,note_on,,,,,9,0,1,,,,,0,,,73,96
207047,note_on,,,,,227,0,2,,,,,0,,,31,0
207047,note_on,,,,,0,0,2,,,,,0,,,43,0
207131,note_on,,,,,0,0,1,,,,,0,,,82,0
207131,note_on,,,,,0,0,1,,,,,0,,,78,0
207131,note_on,,,,,151,0,1,,,,,0,,,73,0
207140,note_on,,,,,0,0,1,,,,,0,,,81,96
207140,note_on,,,,,0,0,1,,,,,0,,,77,96
207140,note_on,,,,,9,0,1,,,,,0,,,72,96
207291,note_on,,,,,0,0,1,,,,,0,,,81,0
207291,note_on,,,,,151,0,1,,,,,0,,,72,0
207291,note_on,,,,,0,0,1,,,,,0,,,77,0
207300,note_on,,,,,0,0,2,,,,,0,,,64,96
207300,note_on,,,,,9,0,1,,,,,0,,,71,96
207300,note_on,,,,,0,0,2,,,,,0,,,60,96
207300,note_on,,,,,0,0,1,,,,,0,,,76,96
207300,note_on,,,,,0,0,1,,,,,0,,,80,96
207300,note_on,,,,,253,0,2,,,,,0,,,55,96
207451,note_on,,,,,0,0,1,,,,,0,,,76,0
207451,note_on,,,,,0,0,1,,,,,0,,,80,0
207451,note_on,,,,,151,0,1,,,,,0,,,71,0
207460,note_on,,,,,0,0,1,,,,,0,,,79,96
207460,note_on,,,,,0,0,1,,,,,0,,,75,96
207460,note_on,,,,,9,0,1,,,,,0,,,70,96
207611,note_on,,,,,0,0,1,,,,,0,,,75,0
207611,note_on,,,,,0,0,1,,,,,0,,,79,0
207611,note_on,,,,,151,0,1,,,,,0,,,70,0
207620,note_on,,,,,9,0,1,,,,,0,,,69,96
207620,note_on,,,,,0,0,1,,,,,0,,,74,96
207620,note_on,,,,,0,0,1,,,,,0,,,78,96
207755,note_on,,,,,455,0,2,,,,,0,,,55,0
207755,note_on,,,,,0,0,2,,,,,0,,,60,0
207755,note_on,,,,,0,0,2,,,,,0,,,64,0
207771,note_on,,,,,0,0,1,,,,,0,,,78,0
207771,note_on,,,,,151,0,1,,,,,0,,,69,0
207771,note_on,,,,,0,0,1,,,,,0,,,74,0
207780,note_on,,,,,0,0,2,,,,,0,,,61,96
207780,note_on,,,,,0,0,2,,,,,0,,,65,96
207780,note_on,,,,,25,0,2,,,,,0,,,56,96
207780,note_on,,,,,9,0,1,,,,,0,,,68,96
207780,note_on,,,,,0,0,1,,,,,0,,,73,96
207780,set_tempo,,,,,960,1,0,,428572,,,,,,,
207780,note_on,,,,,0,0,1,,,,,0,,,77,96
207781,control_change,,,,,1,0,2,,,64,0,0,,,,
207782,control_change,,,,,2,0,1,,,64,127,0,,,,
207931,note_on,,,,,149,0,1,,,,,0,,,68,0
207931,note_on,,,,,0,0,1,,,,,0,,,73,0
207931,note_on,,,,,0,0,1,,,,,0,,,77,0
207940,note_on,,,,,0,0,1,,,,,0,,,76,96
207940,note_on,,,,,9,0,1,,,,,0,,,72,96
208091,note_on,,,,,151,0,1,,,,,0,,,72,0
208091,note_on,,,,,0,0,1,,,,,0,,,76,0
208100,note_on,,,,,0,0,1,,,,,0,,,75,96
208100,note_on,,,,,9,0,1,,,,,0,,,71,96
208235,note_on,,,,,454,0,2,,,,,0,,,56,0
208235,note_on,,,,,0,0,2,,,,,0,,,61,0
208251,note_on,,,,,0,0,1,,,,,0,,,75,0
208251,note_on,,,,,151,0,1,,,,,0,,,71,0
208260,note_on,,,,,0,0,1,,,,,0,,,74,96
208260,note_on,,,,,9,0,1,,,,,0,,,70,96
208387,note_on,,,,,152,0,2,,,,,0,,,65,0
208411,note_on,,,,,0,0,1,,,,,0,,,74,0
208411,note_on,,,,,151,0,1,,,,,0,,,70,0
208420,note_on,,,,,33,0,2,,,,,0,,,64,96
208420,note_on,,,,,9,0,1,,,,,0,,,69,96
208420,note_on,,,,,0,0,1,,,,,0,,,73,96
208571,note_on,,,,,0,0,1,,,,,0,,,73,0
208571,note_on,,,,,151,0,1,,,,,0,,,69,0
208571,note_on,,,,,151,0,2,,,,,0,,,64,0
208580,note_on,,,,,9,0,2,,,,,0,,,63,96
208580,note_on,,,,,9,0,1,,,,,0,,,68,96
208580,note_on,,,,,0,0,1,,,,,0,,,72,96
208731,note_on,,,,,151,0,2,,,,,0,,,63,0
208731,note_on,,,,,151,0,1,,,,,0,,,68,0
208731,note_on,,,,,0,0,1,,,,,0,,,72,0
208740,note_on,,,,,0,0,1,,,,,0,,,71,96
208740,note_on,,,,,9,0,2,,,,,0,,,62,96
208740,note_on,,,,,9,0,1,,,,,0,,,67,96
208740,set_tempo,,,,,960,1,0,,375000,,,,,,,
208891,note_on,,,,,151,0,2,,,,,0,,,62,0
208891,note_on,,,,,0,0,1,,,,,0,,,71,0
208891,note_on,,,,,151,0,1,,,,,0,,,67,0
208900,note_on,,,,,9,0,1,,,,,0,,,66,96
208900,note_on,,,,,9,0,2,,,,,0,,,61,96
208900,note_on,,,,,0,0,1,,,,,0,,,70,96
209051,note_on,,,,,151,0,2,,,,,0,,,61,0
209051,note_on,,,,,0,0,1,,,,,0,,,70,0
209051,note_on,,,,,151,0,1,,,,,0,,,66,0
209060,note_on,,,,,0,0,1,,,,,0,,,69,96
209060,note_on,,,,,9,0,1,,,,,0,,,65,96
209060,note_on,,,,,9,0,2,,,,,0,,,60,96
209211,note_on,,,,,0,0,1,,,,,0,,,69,0
209211,note_on,,,,,151,0,2,,,,,0,,,60,0
209211,note_on,,,,,151,0,1,,,,,0,,,65,0
209220,note_on,,,,,0,0,1,,,,,0,,,68,96
209220,note_on,,,,,9,0,1,,,,,0,,,64,96
209220,note_on,,,,,9,0,2,,,,,0,,,59,96
209371,note_on,,,,,0,0,1,,,,,0,,,68,0
209371,note_on,,,,,151,0,2,,,,,0,,,59,0
209371,note_on,,,,,151,0,1,,,,,0,,,64,0
209380,note_on,,,,,9,0,2,,,,,0,,,58,96
209380,note_on,,,,,0,0,1,,,,,0,,,67,96
209380,note_on,,,,,9,0,1,,,,,0,,,63,96
209531,note_on,,,,,151,0,1,,,,,0,,,63,0
209531,note_on,,,,,151,0,2,,,,,0,,,58,0
209531,note_on,,,,,0,0,1,,,,,0,,,67,0
209540,note_on,,,,,9,0,1,,,,,0,,,62,96
209540,note_on,,,,,9,0,2,,,,,0,,,57,96
209540,note_on,,,,,0,0,1,,,,,0,,,66,96
209691,note_on,,,,,151,0,2,,,,,0,,,57,0
209691,note_on,,,,,151,0,1,,,,,0,,,62,0
209691,note_on,,,,,0,0,1,,,,,0,,,66,0
209700,note_on,,,,,0,0,1,,,,,0,,,65,96
209700,note_on,,,,,9,0,2,,,,,0,,,56,96
209700,note_on,,,,,9,0,1,,,,,0,,,61,96
209851,note_on,,,,,151,0,1,,,,,0,,,61,0
209851,note_on,,,,,0,0,1,,,,,0,,,65,0
209851,note_on,,,,,151,0,2,,,,,0,,,56,0
209860,note_on,,,,,9,0,2,,,,,0,,,55,96
209860,note_on,,,,,9,0,1,,,,,0,,,60,96
209860,note_on,,,,,0,0,1,,,,,0,,,64,96
210011,note_on,,,,,151,0,1,,,,,0,,,60,0
210011,note_on,,,,,0,0,1,,,,,0,,,64,0
210011,note_on,,,,,151,0,2,,,,,0,,,55,0
210020,note_on,,,,,9,0,1,,,,,0,,,59,96
210020,note_on,,,,,0,0,1,,,,,0,,,63,96
210020,note_on,,,,,9,0,2,,,,,0,,,54,96
210171,note_on,,,,,151,0,2,,,,,0,,,54,0
210171,note_on,,,,,151,0,1,,,,,0,,,59,0
210171,note_on,,,,,0,0,1,,,,,0,,,63,0
210180,note_on,,,,,0,0,1,,,,,0,,,62,96
210180,note_on,,,,,9,0,2,,,,,0,,,53,96
210180,note_on,,,,,9,0,1,,,,,0,,,58,96
210181,control_change,,,,,1,0,1,,,64,0,0,,,,
210331,note_on,,,,,151,0,2,,,,,0,,,53,0
210331,note_on,,,,,150,0,1,,,,,0,,,58,0
210331,note_on,,,,,0,0,1,,,,,0,,,62,0
210340,note_on,,,,,0,0,1,,,,,0,,,61,96
210340,note_on,,,,,9,0,1,,,,,0,,,57,96
210340,note_on,,,,,9,0,2,,,,,0,,,52,96
210491,note_on,,,,,151,0,1,,,,,0,,,57,0
210491,note_on,,,,,151,0,2,,,,,0,,,52,0
210491,note_on,,,,,0,0,1,,,,,0,,,61,0
210500,note_on,,,,,9,0,1,,,,,0,,,56,96
210500,note_on,,,,,0,0,1,,,,,0,,,60,96
210500,note_on,,,,,9,0,2,,,,,0,,,51,96
210651,note_on,,,,,0,0,1,,,,,0,,,60,0
210651,note_on,,,,,151,0,2,,,,,0,,,51,0
210651,note_on,,,,,151,0,1,,,,,0,,,56,0
210660,note_on,,,,,9,0,1,,,,,0,,,55,96
210660,note_on,,,,,9,0,2,,,,,0,,,50,96
210660,note_on,,,,,0,0,1,,,,,0,,,59,96
210811,note_on,,,,,151,0,2,,,,,0,,,50,0
210811,note_on,,,,,0,0,1,,,,,0,,,59,0
210811,note_on,,,,,151,0,1,,,,,0,,,55,0
210820,note_on,,,,,9,0,1,,,,,0,,,54,96
210820,note_on,,,,,0,0,1,,,,,0,,,58,96
210820,note_on,,,,,9,0,2,,,,,0,,,49,96
210971,note_on,,,,,0,0,1,,,,,0,,,58,0
210971,note_on,,,,,151,0,2,,,,,0,,,49,0
210971,note_on,,,,,151,0,1,,,,,0,,,54,0
210980,note_on,,,,,0,0,1,,,,,0,,,57,96
210980,note_on,,,,,9,0,1,,,,,0,,,53,96
210980,note_on,,,,,9,0,2,,,,,0,,,48,96
211131,note_on,,,,,151,0,2,,,,,0,,,48,0
211131,note_on,,,,,0,0,1,,,,,0,,,57,0
211131,note_on,,,,,151,0,1,,,,,0,,,53,0
211140,note_on,,,,,9,0,1,,,,,0,,,52,96
211140,note_on,,,,,0,0,1,,,,,0,,,56,96
211140,note_on,,,,,9,0,2,,,,,0,,,47,96
211291,note_on,,,,,151,0,2,,,,,0,,,47,0
211291,note_on,,,,,151,0,1,,,,,0,,,52,0
211291,note_on,,,,,0,0,1,,,,,0,,,56,0
211300,note_on,,,,,0,0,1,,,,,0,,,55,96
211300,note_on,,,,,9,0,1,,,,,0,,,51,96
211300,note_on,,,,,9,0,2,,,,,0,,,46,96
211451,note_on,,,,,151,0,1,,,,,0,,,51,0
211451,note_on,,,,,151,0,2,,,,,0,,,46,0
211451,note_on,,,,,0,0,1,,,,,0,,,55,0
211460,note_on,,,,,9,0,1,,,,,0,,,50,96
211460,note_on,,,,,0,0,1,,,,,0,,,54,96
211460,note_on,,,,,9,0,2,,,,,0,,,45,96
211611,note_on,,,,,0,0,1,,,,,0,,,54,0
211611,note_on,,,,,151,0,1,,,,,0,,,50,0
211611,note_on,,,,,151,0,2,,,,,0,,,45,0
211620,note_on,,,,,0,0,2,,,,,0,,,44,96
211620,note_on,,,,,9,0,2,,,,,0,,,49,96
211620,note_on,,,,,0,0,2,,,,,0,,,53,96
211771,note_on,,,,,151,0,2,,,,,0,,,49,0
211771,note_on,,,,,0,0,2,,,,,0,,,44,0
211771,note_on,,,,,0,0,2,,,,,0,,,53,0
211780,note_on,,,,,9,0,2,,,,,0,,,48,96
211780,note_on,,,,,0,0,2,,,,,0,,,43,96
211780,note_on,,,,,0,0,2,,,,,0,,,52,96
211931,note_on,,,,,0,0,2,,,,,0,,,52,0
211931,note_on,,,,,151,0,2,,,,,0,,,48,0
211931,note_on,,,,,0,0,2,,,,,0,,,43,0
211940,note_on,,,,,9,0,2,,,,,0,,,47,96
211940,note_on,,,,,0,0,2,,,,,0,,,42,96
211940,note_on,,,,,0,0,2,,,,,0,,,51,96
212091,note_on,,,,,0,0,2,,,,,0,,,51,0
212091,note_on,,,,,0,0,2,,,,,0,,,42,0
212091,note_on,,,,,151,0,2,,,,,0,,,47,0
212100,note_on,,,,,9,0,2,,,,,0,,,46,96
212100,note_on,,,,,0,0,2,,,,,0,,,41,96
212100,note_on,,,,,0,0,2,,,,,0,,,50,96
212251,note_on,,,,,0,0,2,,,,,0,,,41,0
212251,note_on,,,,,0,0,2,,,,,0,,,50,0
212251,note_on,,,,,151,0,2,,,,,0,,,46,0
212260,note_on,,,,,9,0,2,,,,,0,,,45,96
212260,note_on,,,,,0,0,2,,,,,0,,,40,96
212260,note_on,,,,,0,0,2,,,,,0,,,49,96
212411,note_on,,,,,0,0,2,,,,,0,,,40,0
212411,note_on,,,,,0,0,2,,,,,0,,,49,0
212411,note_on,,,,,151,0,2,,,,,0,,,45,0
212420,note_on,,,,,0,0,2,,,,,0,,,39,96
212420,note_on,,,,,0,0,2,,,,,0,,,48,96
212420,note_on,,,,,9,0,2,,,,,0,,,44,96
212571,note_on,,,,,151,0,2,,,,,0,,,44,0
212571,note_on,,,,,0,0,2,,,,,0,,,48,0
212571,note_on,,,,,0,0,2,,,,,0,,,39,0
212580,note_on,,,,,0,0,2,,,,,0,,,38,96
212580,note_on,,,,,0,0,2,,,,,0,,,47,96
212580,note_on,,,,,9,0,2,,,,,0,,,42,96
212731,note_on,,,,,151,0,2,,,,,0,,,42,0
212731,note_on,,,,,0,0,2,,,,,0,,,47,0
212731,note_on,,,,,0,0,2,,,,,0,,,38,0
212740,note_on,,,,,9,0,2,,,,,0,,,42,96
212740,note_on,,,,,0,0,2,,,,,0,,,46,96
212740,note_on,,,,,0,0,2,,,,,0,,,37,96
212891,note_on,,,,,0,0,2,,,,,0,,,46,0
212891,note_on,,,,,151,0,2,,,,,0,,,42,0
212891,note_on,,,,,0,0,2,,,,,0,,,37,0
212900,note_on,,,,,0,0,2,,,,,0,,,36,96
212900,note_on,,,,,0,0,2,,,,,0,,,45,96
212900,note_on,,,,,9,0,2,,,,,0,,,41,96
213051,note_on,,,,,151,0,2,,,,,0,,,41,0
213051,note_on,,,,,0,0,2,,,,,0,,,36,0
213051,note_on,,,,,0,0,2,,,,,0,,,45,0
213060,note_on,,,,,0,0,2,,,,,0,,,44,96
213060,note_on,,,,,0,0,2,,,,,0,,,35,96
213060,note_on,,,,,9,0,2,,,,,0,,,40,96
213211,note_on,,,,,0,0,2,,,,,0,,,44,0
213211,note_on,,,,,0,0,2,,,,,0,,,35,0
213211,note_on,,,,,151,0,2,,,,,0,,,40,0
213220,note_on,,,,,0,0,2,,,,,0,,,34,96
213220,note_on,,,,,0,0,2,,,,,0,,,43,96
213220,note_on,,,,,9,0,2,,,,,0,,,39,96
213371,note_on,,,,,0,0,2,,,,,0,,,34,0
213371,note_on,,,,,151,0,2,,,,,0,,,39,0
213371,note_on,,,,,0,0,2,,,,,0,,,43,0
213380,note_on,,,,,0,0,2,,,,,0,,,42,96
213380,note_on,,,,,0,0,2,,,,,0,,,33,96
213380,note_on,,,,,9,0,2,,,,,0,,,38,96
213531,note_on,,,,,151,0,2,,,,,0,,,38,0
213531,note_on,,,,,0,0,2,,,,,0,,,42,0
213531,note_on,,,,,0,0,2,,,,,0,,,33,0
213540,note_on,,,,,9,0,2,,,,,0,,,37,96
213540,note_on,,,,,0,0,2,,,,,0,,,41,96
213540,note_on,,,,,0,0,2,,,,,0,,,32,96
213691,note_on,,,,,0,0,2,,,,,0,,,32,0
213691,note_on,,,,,0,0,2,,,,,0,,,41,0
213691,note_on,,,,,151,0,2,,,,,0,,,37,0
213700,note_on,,,,,0,0,2,,,,,0,,,33,96
213700,note_on,,,,,9,0,2,,,,,0,,,38,96
213700,note_on,,,,,0,0,2,,,,,0,,,42,96
213851,note_on,,,,,0,0,2,,,,,0,,,33,0
213851,note_on,,,,,0,0,2,,,,,0,,,42,0
213851,note_on,,,,,151,0,2,,,,,0,,,38,0
213860,note_on,,,,,9,0,2,,,,,0,,,39,96
213860,note_on,,,,,0,0,2,,,,,0,,,34,96
213860,note_on,,,,,0,0,2,,,,,0,,,43,96
214011,note_on,,,,,0,0,2,,,,,0,,,34,0
214011,note_on,,,,,0,0,2,,,,,0,,,43,0
214011,note_on,,,,,151,0,2,,,,,0,,,39,0
214020,note_on,,,,,0,0,2,,,,,0,,,44,96
214020,note_on,,,,,0,0,2,,,,,0,,,35,96
214020,note_on,,,,,9,0,2,,,,,0,,,40,96
214171,note_on,,,,,151,0,2,,,,,0,,,40,0
214171,note_on,,,,,0,0,2,,,,,0,,,44,0
214171,note_on,,,,,0,0,2,,,,,0,,,35,0
214180,note_on,,,,,0,0,2,,,,,0,,,43,96
214180,note_on,,,,,0,0,2,,,,,0,,,34,96
214180,note_on,,,,,9,0,2,,,,,0,,,39,96
214331,note_on,,,,,0,0,2,,,,,0,,,43,0
214331,note_on,,,,,151,0,2,,,,,0,,,39,0
214331,note_on,,,,,0,0,2,,,,,0,,,34,0
214340,note_on,,,,,0,0,2,,,,,0,,,42,96
214340,note_on,,,,,0,0,2,,,,,0,,,33,96
214340,note_on,,,,,9,0,2,,,,,0,,,38,96
214491,note_on,,,,,0,0,2,,,,,0,,,33,0
214491,note_on,,,,,0,0,2,,,,,0,,,42,0
214491,note_on,,,,,151,0,2,,,,,0,,,38,0
214500,note_on,,,,,0,0,2,,,,,0,,,41,96
214500,note_on,,,,,9,0,2,,,,,0,,,37,96
214500,note_on,,,,,0,0,2,,,,,0,,,32,96
214651,note_on,,,,,0,0,2,,,,,0,,,41,0
214651,note_on,,,,,151,0,2,,,,,0,,,37,0
214651,note_on,,,,,0,0,2,,,,,0,,,32,0
214660,note_on,,,,,9,0,2,,,,,0,,,38,96
214660,note_on,,,,,0,0,2,,,,,0,,,42,96
214660,note_on,,,,,0,0,2,,,,,0,,,33,96
214811,note_on,,,,,0,0,2,,,,,0,,,33,0
214811,note_on,,,,,0,0,2,,,,,0,,,42,0
214811,note_on,,,,,151,0,2,,,,,0,,,38,0
214820,note_on,,,,,9,0,2,,,,,0,,,39,96
214820,note_on,,,,,0,0,2,,,,,0,,,43,96
214820,note_on,,,,,0,0,2,,,,,0,,,34,96
214971,note_on,,,,,151,0,2,,,,,0,,,39,0
214971,note_on,,,,,0,0,2,,,,,0,,,43,0
214971,note_on,,,,,0,0,2,,,,,0,,,34,0
214980,note_on,,,,,0,0,2,,,,,0,,,35,96
214980,note_on,,,,,0,0,2,,,,,0,,,44,96
214980,note_on,,,,,9,0,2,,,,,0,,,40,96
215131,note_on,,,,,0,0,2,,,,,0,,,44,0
215131,note_on,,,,,0,0,2,,,,,0,,,35,0
215131,note_on,,,,,151,0,2,,,,,0,,,40,0
215140,note_on,,,,,0,0,2,,,,,0,,,34,96
215140,note_on,,,,,0,0,2,,,,,0,,,43,96
215140,note_on,,,,,9,0,2,,,,,0,,,39,96
215291,note_on,,,,,0,0,2,,,,,0,,,34,0
215291,note_on,,,,,151,0,2,,,,,0,,,39,0
215291,note_on,,,,,0,0,2,,,,,0,,,43,0
215300,note_on,,,,,0,0,2,,,,,0,,,42,96
215300,note_on,,,,,0,0,2,,,,,0,,,33,96
215300,note_on,,,,,9,0,2,,,,,0,,,38,96
215451,note_on,,,,,0,0,2,,,,,0,,,42,0
215451,note_on,,,,,151,0,2,,,,,0,,,38,0
215451,note_on,,,,,0,0,2,,,,,0,,,33,0
215460,note_on,,,,,0,0,2,,,,,0,,,37,96
215460,note_on,,,,,0,0,2,,,,,0,,,41,96
215460,note_on,,,,,9,0,2,,,,,0,,,32,96
215611,note_on,,,,,151,0,2,,,,,0,,,32,0
215611,note_on,,,,,0,0,2,,,,,0,,,37,0
215611,note_on,,,,,0,0,2,,,,,0,,,41,0
215620,note_on,,,,,0,0,2,,,,,0,,,38,96
215620,note_on,,,,,0,0,2,,,,,0,,,42,96
215620,note_on,,,,,9,0,2,,,,,0,,,33,96
215771,note_on,,,,,0,0,2,,,,,0,,,38,0
215771,note_on,,,,,0,0,2,,,,,0,,,42,0
215771,note_on,,,,,151,0,2,,,,,0,,,33,0
215780,note_on,,,,,9,0,2,,,,,0,,,34,96
215780,note_on,,,,,0,0,2,,,,,0,,,39,96
215780,note_on,,,,,0,0,2,,,,,0,,,43,96
215931,note_on,,,,,151,0,2,,,,,0,,,34,0
215931,note_on,,,,,0,0,2,,,,,0,,,39,0
215931,note_on,,,,,0,0,2,,,,,0,,,43,0
215940,note_on,,,,,0,0,2,,,,,0,,,40,96
215940,note_on,,,,,0,0,2,,,,,0,,,44,96
215940,note_on,,,,,9,0,2,,,,,0,,,35,96
216091,note_on,,,,,0,0,2,,,,,0,,,40,0
216091,note_on,,,,,0,0,2,,,,,0,,,44,0
216091,note_on,,,,,151,0,2,,,,,0,,,35,0
216100,note_on,,,,,0,0,2,,,,,0,,,39,96
216100,set_tempo,,,,,7360,1,0,,500000,,,,,,,
216100,note_on,,,,,9,0,2,,,,,0,,,34,96
216100,note_on,,,,,0,0,2,,,,,0,,,43,96
216251,note_on,,,,,0,0,2,,,,,0,,,43,0
216251,note_on,,,,,0,0,2,,,,,0,,,39,0
216251,note_on,,,,,151,0,2,,,,,0,,,34,0
216260,note_on,,,,,9,0,2,,,,,0,,,33,96
216260,note_on,,,,,0,0,2,,,,,0,,,42,96
216260,note_on,,,,,0,0,2,,,,,0,,,38,96
216411,note_on,,,,,0,0,2,,,,,0,,,38,0
216411,note_on,,,,,151,0,2,,,,,0,,,33,0
216411,note_on,,,,,0,0,2,,,,,0,,,42,0
216420,note_on,,,,,9,0,2,,,,,0,,,32,96
216420,note_on,,,,,4809,0,1,,,,,0,,,37,96
216420,note_on,,,,,0,0,1,,,,,0,,,42,96
216571,note_on,,,,,151,0,1,,,,,0,,,37,0
216571,note_on,,,,,0,0,1,,,,,0,,,42,0
216571,note_on,,,,,151,0,2,,,,,0,,,32,0
216580,note_on,,,,,9,0,2,,,,,0,,,33,96
216580,note_on,,,,,9,0,1,,,,,0,,,38,96
216580,note_on,,,,,0,0,1,,,,,0,,,42,96
216731,note_on,,,,,151,0,1,,,,,0,,,38,0
216731,note_on,,,,,151,0,2,,,,,0,,,33,0
216731,note_on,,,,,0,0,1,,,,,0,,,42,0
216740,note_on,,,,,9,0,1,,,,,0,,,39,96
216740,note_on,,,,,0,0,1,,,,,0,,,43,96
216740,note_on,,,,,9,0,2,,,,,0,,,34,96
216891,note_on,,,,,151,0,2,,,,,0,,,34,0
216891,note_on,,,,,151,0,1,,,,,0,,,39,0
216891,note_on,,,,,0,0,1,,,,,0,,,43,0
216900,note_on,,,,,9,0,1,,,,,0,,,44,96
216900,set_tempo,,,,,800,1,0,,750002,,,,,,,
216900,note_on,,,,,9,0,2,,,,,0,,,35,96
216900,note_on,,,,,0,0,1,,,,,0,,,40,96
217051,note_on,,,,,151,0,1,,,,,0,,,40,0
217060,note_on,,,,,9,0,1,,,,,0,,,42,96
217060,note_on,,,,,160,0,2,,,,,0,,,25,96
217203,note_on,,,,,143,0,1,,,,,0,,,44,0
217203,note_on,,,,,143,0,2,,,,,0,,,35,0
217220,note_on,,,,,17,0,1,,,,,0,,,43,96
217363,note_on,,,,,160,0,2,,,,,0,,,25,0
217363,note_on,,,,,143,0,1,,,,,0,,,42,0
217380,note_on,,,,,17,0,1,,,,,0,,,40,96
217380,note_on,,,,,17,0,2,,,,,0,,,24,96
217380,note_on,,,,,0,0,2,,,,,0,,,36,96
217827,note_on,,,,,447,0,1,,,,,0,,,43,0
217835,note_on,,,,,455,0,2,,,,,0,,,24,0
217835,note_on,,,,,0,0,2,,,,,0,,,36,0
217835,note_on,,,,,8,0,1,,,,,0,,,40,0
217860,set_tempo,,,,,960,1,0,,500000,,,,,,,
217860,note_on,,,,,25,0,1,,,,,0,,,48,70
217860,note_on,,,,,0,0,1,,,,,0,,,48,0
217860,note_on,,,,,0,0,1,,,,,0,,,48,70
217860,note_on,,,,,0,0,1,,,,,0,,,60,70
218020,note_on,,,,,160,0,1,,,,,0,,,52,70
218020,note_on,,,,,0,0,1,,,,,0,,,55,70
218171,note_on,,,,,151,0,1,,,,,0,,,52,0
218171,note_on,,,,,0,0,1,,,,,0,,,55,0
218180,note_on,,,,,0,0,1,,,,,0,,,48,0
218180,note_on,,,,,9,0,1,,,,,0,,,36,70
218180,note_on,,,,,0,0,1,,,,,0,,,48,70
218315,note_on,,,,,135,0,1,,,,,0,,,60,0
218331,note_on,,,,,16,0,1,,,,,0,,,36,0
218331,note_on,,,,,0,0,1,,,,,0,,,48,0
218340,note_on,,,,,0,0,1,,,,,0,,,61,70
218340,set_tempo,,,,,480,1,0,,400000,,,,,,,
218340,note_on,,,,,9,0,1,,,,,0,,,49,70
218340,note_on,,,,,0,0,1,,,,,0,,,49,70
218340,note_on,,,,,0,0,1,,,,,0,,,49,0
218500,note_on,,,,,0,0,1,,,,,0,,,56,70
218500,note_on,,,,,160,0,1,,,,,0,,,53,70
218651,note_on,,,,,151,0,1,,,,,0,,,53,0
218651,note_on,,,,,0,0,1,,,,,0,,,56,0
218660,note_on,,,,,0,0,1,,,,,0,,,47,70
218660,note_on,,,,,9,0,1,,,,,0,,,35,70
218795,note_on,,,,,0,0,1,,,,,0,,,61,0
218795,note_on,,,,,135,0,1,,,,,0,,,49,0
218811,note_on,,,,,0,0,1,,,,,0,,,47,0
218811,note_on,,,,,16,0,1,,,,,0,,,35,0
218820,note_on,,,,,0,0,1,,,,,0,,,50,70
218820,note_on,,,,,0,0,1,,,,,0,,,50,0
218820,note_on,,,,,9,0,1,,,,,0,,,50,70
218820,set_tempo,,,,,480,1,0,,333333,,,,,,,
218820,note_on,,,,,0,0,1,,,,,0,,,62,70
218980,note_on,,,,,0,0,1,,,,,0,,,56,70
218980,note_on,,,,,160,0,1,,,,,0,,,53,70
219131,note_on,,,,,151,0,1,,,,,0,,,53,0
219131,note_on,,,,,0,0,1,,,,,0,,,56,0
219140,note_on,,,,,9,0,1,,,,,0,,,34,70
219140,note_on,,,,,0,0,1,,,,,0,,,46,70
219275,note_on,,,,,0,0,1,,,,,0,,,62,0
219275,note_on,,,,,135,0,1,,,,,0,,,50,0
219291,note_on,,,,,16,0,1,,,,,0,,,34,0
219291,note_on,,,,,0,0,1,,,,,0,,,46,0
219300,note_on,,,,,9,0,1,,,,,0,,,51,70
219300,note_on,,,,,0,0,1,,,,,0,,,51,0
219300,note_on,,,,,0,0,1,,,,,0,,,51,70
219300,note_on,,,,,0,0,1,,,,,0,,,63,70
219300,set_tempo,,,,,480,1,0,,285714,,,,,,,
219460,note_on,,,,,160,0,1,,,,,0,,,55,70
219460,note_on,,,,,0,0,1,,,,,0,,,58,70
219611,note_on,,,,,0,0,1,,,,,0,,,58,0
219611,note_on,,,,,151,0,1,,,,,0,,,55,0
219620,note_on,,,,,9,0,1,,,,,0,,,27,70
219620,note_on,,,,,0,0,1,,,,,0,,,39,70
219755,note_on,,,,,135,0,1,,,,,0,,,51,0
219755,note_on,,,,,0,0,1,,,,,0,,,63,0
219771,note_on,,,,,0,0,1,,,,,0,,,39,0
219771,note_on,,,,,16,0,1,,,,,0,,,27,0
219780,note_on,,,,,9,0,1,,,,,0,,,52,70
219780,note_on,,,,,0,0,1,,,,,0,,,52,70
219780,note_on,,,,,0,0,1,,,,,0,,,52,0
219780,note_on,,,,,0,0,1,,,,,0,,,64,70
219940,note_on,,,,,160,0,1,,,,,0,,,56,70
219940,note_on,,,,,0,0,1,,,,,0,,,59,70
220091,note_on,,,,,0,0,1,,,,,0,,,59,0
220091,note_on,,,,,151,0,1,,,,,0,,,56,0
220100,note_on,,,,,9,0,1,,,,,0,,,38,70
220100,note_on,,,,,0,0,1,,,,,0,,,50,70
220235,note_on,,,,,0,0,1,,,,,0,,,64,0
220235,note_on,,,,,135,0,1,,,,,0,,,52,0
220251,note_on,,,,,16,0,1,,,,,0,,,38,0
220251,note_on,,,,,0,0,1,,,,,0,,,50,0
220260,set_tempo,,,,,960,1,0,,250000,,,,,,,
220260,note_on,,,,,9,0,1,,,,,0,,,53,70
220260,note_on,,,,,0,0,1,,,,,0,,,53,0
220260,note_on,,,,,0,0,1,,,,,0,,,53,70
220260,note_on,,,,,0,0,1,,,,,0,,,65,70
220420,note_on,,,,,0,0,1,,,,,0,,,59,70
220420,note_on,,,,,160,0,1,,,,,0,,,56,70
220571,note_on,,,,,151,0,1,,,,,0,,,56,0
220571,note_on,,,,,0,0,1,,,,,0,,,59,0
220580,note_on,,,,,0,0,1,,,,,0,,,49,70
220580,note_on,,,,,9,0,1,,,,,0,,,37,70
220715,note_on,,,,,135,0,1,,,,,0,,,53,0
220715,note_on,,,,,0,0,1,,,,,0,,,65,0
220731,note_on,,,,,0,0,1,,,,,0,,,49,0
220731,note_on,,,,,16,0,1,,,,,0,,,37,0
220740,note_on,,,,,9,0,1,,,,,0,,,54,70
220740,note_on,,,,,0,0,1,,,,,0,,,54,0
220740,note_on,,,,,0,0,1,,,,,0,,,54,70
220740,note_on,,,,,0,0,1,,,,,0,,,66,70
220900,note_on,,,,,0,0,1,,,,,0,,,60,70
220900,note_on,,,,,160,0,1,,,,,0,,,58,70
221051,note_on,,,,,0,0,1,,,,,0,,,60,0
221051,note_on,,,,,151,0,1,,,,,0,,,58,0
221060,note_on,,,,,0,0,1,,,,,0,,,42,70
221060,note_on,,,,,9,0,1,,,,,0,,,30,70
221195,note_on,,,,,0,0,1,,,,,0,,,66,0
221195,note_on,,,,,135,0,1,,,,,0,,,54,0
221211,note_on,,,,,16,0,1,,,,,0,,,30,0
221211,note_on,,,,,0,0,1,,,,,0,,,42,0
221220,note_on,,,,,9,0,1,,,,,0,,,55,70
221220,note_on,,,,,0,0,1,,,,,0,,,55,70
221220,note_on,,,,,0,0,1,,,,,0,,,67,70
221220,note_on,,,,,0,0,1,,,,,0,,,55,0
221380,note_on,,,,,160,0,1,,,,,0,,,59,70
221380,note_on,,,,,0,0,1,,,,,0,,,62,70
221531,note_on,,,,,0,0,1,,,,,0,,,62,0
221531,note_on,,,,,151,0,1,,,,,0,,,59,0
221540,note_on,,,,,9,0,1,,,,,0,,,29,70
221540,note_on,,,,,0,0,1,,,,,0,,,41,70
221675,note_on,,,,,0,0,1,,,,,0,,,67,0
221675,note_on,,,,,135,0,1,,,,,0,,,55,0
221691,note_on,,,,,0,0,1,,,,,0,,,41,0
221691,note_on,,,,,16,0,1,,,,,0,,,29,0
221700,note_on,,,,,0,0,1,,,,,0,,,68,70
221700,note_on,,,,,0,0,1,,,,,0,,,56,70
221700,note_on,,,,,0,0,1,,,,,0,,,56,0
221700,note_on,,,,,9,0,1,,,,,0,,,56,70
221860,note_on,,,,,0,0,1,,,,,0,,,62,70
221860,note_on,,,,,160,0,1,,,,,0,,,59,70
222011,note_on,,,,,0,0,1,,,,,0,,,62,0
222011,note_on,,,,,151,0,1,,,,,0,,,59,0
222020,note_on,,,,,0,0,1,,,,,0,,,40,70
222020,note_on,,,,,9,0,1,,,,,0,,,28,70
222155,note_on,,,,,135,0,1,,,,,0,,,56,0
222155,note_on,,,,,0,0,1,,,,,0,,,68,0
222171,note_on,,,,,0,0,1,,,,,0,,,40,0
222171,note_on,,,,,16,0,1,,,,,0,,,28,0
222180,note_on,,,,,0,0,1,,,,,0,,,57,0
222180,note_on,,,,,9,0,1,,,,,0,,,57,70
222180,note_on,,,,,0,0,1,,,,,0,,,57,70
222180,note_on,,,,,0,0,1,,,,,0,,,69,70
222340,note_on,,,,,0,0,1,,,,,0,,,64,70
222340,note_on,,,,,160,0,1,,,,,0,,,61,70
222491,note_on,,,,,151,0,1,,,,,0,,,61,0
222491,note_on,,,,,0,0,1,,,,,0,,,64,0
222500,note_on,,,,,0,0,1,,,,,0,,,45,70
222500,note_on,,,,,9,0,1,,,,,0,,,33,70
222635,note_on,,,,,135,0,1,,,,,0,,,57,0
222635,note_on,,,,,0,0,1,,,,,0,,,69,0
222651,note_on,,,,,16,0,1,,,,,0,,,33,0
222651,note_on,,,,,0,0,1,,,,,0,,,45,0
222660,note_on,,,,,0,0,1,,,,,0,,,58,0
222660,note_on,,,,,0,0,1,,,,,0,,,70,70
222660,note_on,,,,,9,0,1,,,,,0,,,58,70
222660,note_on,,,,,0,0,1,,,,,0,,,58,70
222820,note_on,,,,,0,0,1,,,,,0,,,65,70
222820,note_on,,,,,160,0,1,,,,,0,,,62,70
222971,note_on,,,,,0,0,1,,,,,0,,,65,0
222971,note_on,,,,,151,0,1,,,,,0,,,62,0
222980,note_on,,,,,0,0,1,,,,,0,,,45,70
222980,note_on,,,,,9,0,1,,,,,0,,,33,70
223115,note_on,,,,,0,0,1,,,,,0,,,70,0
223115,note_on,,,,,135,0,1,,,,,0,,,58,0
223131,note_on,,,,,16,0,1,,,,,0,,,33,0
223131,note_on,,,,,0,0,1,,,,,0,,,45,0
223140,note_on,,,,,0,0,1,,,,,0,,,59,0
223140,note_on,,,,,0,0,1,,,,,0,,,59,70
223140,note_on,,,,,9,0,1,,,,,0,,,59,70
223140,note_on,,,,,0,0,1,,,,,0,,,71,70
223300,note_on,,,,,160,0,1,,,,,0,,,63,70
223300,note_on,,,,,0,0,1,,,,,0,,,66,70
223451,note_on,,,,,0,0,1,,,,,0,,,66,0
223451,note_on,,,,,151,0,1,,,,,0,,,63,0
223460,note_on,,,,,0,0,1,,,,,0,,,45,70
223460,note_on,,,,,9,0,1,,,,,0,,,33,70
223595,note_on,,,,,0,0,1,,,,,0,,,71,0
223595,note_on,,,,,135,0,1,,,,,0,,,59,0
223611,note_on,,,,,16,0,1,,,,,0,,,33,0
223611,note_on,,,,,0,0,1,,,,,0,,,45,0
223620,note_on,,,,,0,0,1,,,,,0,,,60,70
223620,note_on,,,,,0,0,1,,,,,0,,,72,70
223620,note_on,,,,,9,0,1,,,,,0,,,60,70
223620,note_on,,,,,0,0,1,,,,,0,,,60,0
223780,note_on,,,,,0,0,1,,,,,0,,,67,70
223780,note_on,,,,,160,0,1,,,,,0,,,64,70
223931,note_on,,,,,151,0,1,,,,,0,,,64,0
223931,note_on,,,,,0,0,1,,,,,0,,,67,0
223940,note_on,,,,,9,0,1,,,,,0,,,33,70
223940,note_on,,,,,0,0,1,,,,,0,,,45,70
224075,note_on,,,,,135,0,1,,,,,0,,,60,0
224075,note_on,,,,,0,0,1,,,,,0,,,72,0
224091,note_on,,,,,16,0,1,,,,,0,,,33,0
224091,note_on,,,,,0,0,1,,,,,0,,,45,0
224100,note_on,,,,,6265,0,2,,,,,0,,,45,70
224100,note_on,,,,,9,0,1,,,,,0,,,61,70
224100,note_on,,,,,0,0,2,,,,,0,,,55,70
224100,note_on,,,,,0,0,1,,,,,0,,,73,70
224100,note_on,,,,,0,0,2,,,,,0,,,52,70
224327,note_on,,,,,227,0,2,,,,,0,,,45,0
224327,note_on,,,,,227,0,1,,,,,0,,,61,0
224327,note_on,,,,,0,0,2,,,,,0,,,52,0
224327,note_on,,,,,0,0,2,,,,,0,,,55,0
224327,note_on,,,,,0,0,1,,,,,0,,,73,0
224580,set_tempo,,,,,4320,1,0,,500000,,,,,,,
224580,note_on,,,,,0,0,1,,,,,0,,,82,85
224580,note_on,,,,,0,0,2,,,,,0,,,58,85
224580,note_on,,,,,253,0,1,,,,,0,,,70,85
224580,note_on,,,,,253,0,2,,,,,0,,,46,85
225339,note_on,,,,,0,0,1,,,,,0,,,82,0
225339,note_on,,,,,759,0,1,,,,,0,,,70,0
225339,note_on,,,,,759,0,2,,,,,0,,,46,0
225339,note_on,,,,,0,0,2,,,,,0,,,58,0
225380,note_on,,,,,41,0,2,,,,,0,,,45,85
225380,note_on,,,,,0,0,1,,,,,0,,,81,85
225380,note_on,,,,,0,0,2,,,,,0,,,57,85
225380,note_on,,,,,41,0,1,,,,,0,,,69,85
225380,set_tempo,,,,,800,1,0,,1000000,,,,,,,
225531,note_on,,,,,0,0,2,,,,,0,,,57,0
225531,note_on,,,,,151,0,2,,,,,0,,,45,0
225531,note_on,,,,,151,0,1,,,,,0,,,69,0
225531,note_on,,,,,0,0,1,,,,,0,,,81,0
225540,note_on,,,,,9,0,1,,,,,0,,,67,85
225540,set_tempo,,,,,160,1,0,,599999,,,,,,,
225540,note_on,,,,,0,0,1,,,,,0,,,79,85
225540,note_on,,,,,9,0,2,,,,,0,,,43,85
225540,note_on,,,,,0,0,2,,,,,0,,,55,85
225691,note_on,,,,,151,0,1,,,,,0,,,67,0
225691,note_on,,,,,151,0,2,,,,,0,,,43,0
225691,note_on,,,,,0,0,2,,,,,0,,,55,0
225691,note_on,,,,,0,0,1,,,,,0,,,79,0
225700,note_on,,,,,9,0,1,,,,,0,,,65,85
225700,note_on,,,,,0,0,2,,,,,0,,,53,85
225700,note_on,,,,,9,0,2,,,,,0,,,41,85
225700,set_tempo,,,,,160,1,0,,545456,,,,,,,
225700,note_on,,,,,0,0,1,,,,,0,,,77,85
225851,note_on,,,,,151,0,2,,,,,0,,,41,0
225851,note_on,,,,,0,0,2,,,,,0,,,53,0
225851,note_on,,,,,151,0,1,,,,,0,,,65,0
225851,note_on,,,,,0,0,1,,,,,0,,,77,0
225860,note_on,,,,,0,0,1,,,,,0,,,76,85
225860,note_on,,,,,9,0,2,,,,,0,,,40,85
225860,set_tempo,,,,,160,1,0,,500000,,,,,,,
225860,note_on,,,,,0,0,2,,,,,0,,,52,85
225860,note_on,,,,,9,0,1,,,,,0,,,64,85
226011,note_on,,,,,0,0,1,,,,,0,,,76,0
226011,note_on,,,,,151,0,1,,,,,0,,,64,0
226011,note_on,,,,,0,0,2,,,,,0,,,52,0
226011,note_on,,,,,151,0,2,,,,,0,,,40,0
226020,note_on,,,,,0,0,1,,,,,0,,,74,85
226020,note_on,,,,,9,0,2,,,,,0,,,38,85
226020,note_on,,,,,0,0,2,,,,,0,,,50,85
226020,note_on,,,,,9,0,1,,,,,0,,,62,85
226171,note_on,,,,,151,0,1,,,,,0,,,62,0
226171,note_on,,,,,151,0,2,,,,,0,,,38,0
226171,note_on,,,,,0,0,2,,,,,0,,,50,0
226171,note_on,,,,,0,0,1,,,,,0,,,74,0
226180,note_on,,,,,9,0,1,,,,,0,,,61,85
226180,note_on,,,,,0,0,2,,,,,0,,,49,85
226180,note_on,,,,,9,0,2,,,,,0,,,37,85
226180,note_on,,,,,0,0,1,,,,,0,,,73,85
226331,note_on,,,,,0,0,2,,,,,0,,,49,0
226331,note_on,,,,,151,0,2,,,,,0,,,37,0
226331,note_on,,,,,151,0,1,,,,,0,,,61,0
226331,note_on,,,,,0,0,1,,,,,0,,,73,0
226340,note_on,,,,,9,0,1,,,,,0,,,64,85
226340,note_on,,,,,0,0,1,,,,,0,,,76,85
226340,note_on,,,,,0,0,2,,,,,0,,,52,85
226340,note_on,,,,,9,0,2,,,,,0,,,40,85
226491,note_on,,,,,151,0,2,,,,,0,,,40,0
226491,note_on,,,,,0,0,2,,,,,0,,,52,0
226491,note_on,,,,,151,0,1,,,,,0,,,64,0
226491,note_on,,,,,0,0,1,,,,,0,,,76,0
226500,note_on,,,,,0,0,2,,,,,0,,,48,85
226500,note_on,,,,,0,0,1,,,,,0,,,72,85
226500,note_on,,,,,9,0,1,,,,,0,,,60,85
226500,set_tempo,,,,,640,1,0,,375000,,,,,,,
226500,note_on,,,,,9,0,2,,,,,0,,,36,85
226651,note_on,,,,,0,0,2,,,,,0,,,48,0
226651,note_on,,,,,151,0,2,,,,,0,,,36,0
226651,note_on,,,,,151,0,1,,,,,0,,,60,0
226651,note_on,,,,,0,0,1,,,,,0,,,72,0
226660,note_on,,,,,0,0,1,,,,,0,,,76,85
226660,note_on,,,,,9,0,2,,,,,0,,,40,85
226660,note_on,,,,,0,0,2,,,,,0,,,52,85
226660,note_on,,,,,9,0,1,,,,,0,,,64,85
226811,note_on,,,,,151,0,1,,,,,0,,,64,0
226811,note_on,,,,,0,0,1,,,,,0,,,76,0
226811,note_on,,,,,0,0,2,,,,,0,,,52,0
226811,note_on,,,,,151,0,2,,,,,0,,,40,0
226820,note_on,,,,,9,0,1,,,,,0,,,59,85
226820,note_on,,,,,9,0,2,,,,,0,,,35,85
226820,note_on,,,,,0,0,1,,,,,0,,,71,85
226820,note_on,,,,,0,0,2,,,,,0,,,47,85
226971,note_on,,,,,0,0,2,,,,,0,,,47,0
226971,note_on,,,,,151,0,1,,,,,0,,,59,0
226971,note_on,,,,,0,0,1,,,,,0,,,71,0
226971,note_on,,,,,151,0,2,,,,,0,,,35,0
226980,note_on,,,,,9,0,1,,,,,0,,,64,85
226980,note_on,,,,,0,0,2,,,,,0,,,52,85
226980,note_on,,,,,0,0,1,,,,,0,,,76,85
226980,note_on,,,,,9,0,2,,,,,0,,,40,85
227131,note_on,,,,,0,0,1,,,,,0,,,76,0
227131,note_on,,,,,151,0,2,,,,,0,,,40,0
227131,note_on,,,,,0,0,2,,,,,0,,,52,0
227131,note_on,,,,,151,0,1,,,,,0,,,64,0
227140,note_on,,,,,9,0,1,,,,,0,,,58,85
227140,note_on,,,,,0,0,1,,,,,0,,,70,85
227140,note_on,,,,,0,0,2,,,,,0,,,46,85
227140,note_on,,,,,9,0,2,,,,,0,,,34,85
227291,note_on,,,,,151,0,1,,,,,0,,,58,0
227291,note_on,,,,,151,0,2,,,,,0,,,34,0
227291,note_on,,,,,0,0,2,,,,,0,,,46,0
227291,note_on,,,,,0,0,1,,,,,0,,,70,0
227300,note_on,,,,,9,0,1,,,,,0,,,64,85
227300,note_on,,,,,0,0,1,,,,,0,,,76,85
227300,note_on,,,,,0,0,2,,,,,0,,,52,85
227300,note_on,,,,,9,0,2,,,,,0,,,40,85
227451,note_on,,,,,151,0,1,,,,,0,,,64,0
227451,note_on,,,,,151,0,2,,,,,0,,,40,0
227451,note_on,,,,,0,0,2,,,,,0,,,52,0
227451,note_on,,,,,0,0,1,,,,,0,,,76,0
227460,note_on,,,,,0,0,1,,,,,0,,,69,85
227460,note_on,,,,,9,0,1,,,,,0,,,57,85
227460,note_on,,,,,0,0,2,,,,,0,,,45,85
227460,note_on,,,,,9,0,2,,,,,0,,,33,85
227687,note_on,,,,,227,0,1,,,,,0,,,57,0
227687,note_on,,,,,0,0,2,,,,,0,,,45,0
227687,note_on,,,,,227,0,2,,,,,0,,,33,0
227687,note_on,,,,,0,0,1,,,,,0,,,69,0
227940,note_on,,,,,0,0,1,,,,,0,,,85,102
227940,note_on,,,,,0,0,2,,,,,0,,,61,102
227940,set_tempo,,,,,1440,1,0,,1000000,,,,,,,
227940,note_on,,,,,253,0,1,,,,,0,,,73,102
227940,note_on,,,,,253,0,2,,,,,0,,,49,102
228153,note_on,,,,,213,0,2,,,,,0,,,49,0
228153,note_on,,,,,213,0,1,,,,,0,,,73,0
228153,note_on,,,,,0,0,1,,,,,0,,,85,0
228153,note_on,,,,,0,0,2,,,,,0,,,61,0
228260,note_on,,,,,0,0,2,,,,,0,,,58,85
228260,note_on,,,,,0,0,1,,,,,0,,,82,85
228260,note_on,,,,,107,0,2,,,,,0,,,46,85
228260,note_on,,,,,107,0,1,,,,,0,,,70,85
228260,set_tempo,,,,,320,1,0,,599999,,,,,,,
228411,note_on,,,,,0,0,1,,,,,0,,,82,0
228411,note_on,,,,,0,0,2,,,,,0,,,58,0
228411,note_on,,,,,151,0,2,,,,,0,,,46,0
228411,note_on,,,,,151,0,1,,,,,0,,,70,0
228420,note_on,,,,,0,0,2,,,,,0,,,57,85
228420,note_on,,,,,9,0,1,,,,,0,,,69,85
228420,note_on,,,,,9,0,2,,,,,0,,,45,85
228420,note_on,,,,,0,0,1,,,,,0,,,81,85
228420,set_tempo,,,,,160,1,0,,500000,,,,,,,
228571,note_on,,,,,151,0,1,,,,,0,,,69,0
228571,note_on,,,,,0,0,1,,,,,0,,,81,0
228571,note_on,,,,,0,0,2,,,,,0,,,57,0
228571,note_on,,,,,151,0,2,,,,,0,,,45,0
228580,note_on,,,,,9,0,1,,,,,0,,,67,85
228580,note_on,,,,,0,0,2,,,,,0,,,55,85
228580,note_on,,,,,0,0,1,,,,,0,,,79,85
228580,note_on,,,,,9,0,2,,,,,0,,,43,85
228731,note_on,,,,,151,0,2,,,,,0,,,43,0
228731,note_on,,,,,0,0,1,,,,,0,,,79,0
228731,note_on,,,,,0,0,2,,,,,0,,,55,0
228731,note_on,,,,,151,0,1,,,,,0,,,67,0
228740,note_on,,,,,0,0,2,,,,,0,,,53,85
228740,note_on,,,,,9,0,2,,,,,0,,,41,85
228740,note_on,,,,,9,0,1,,,,,0,,,65,85
228740,note_on,,,,,0,0,1,,,,,0,,,77,85
228891,note_on,,,,,151,0,2,,,,,0,,,41,0
228891,note_on,,,,,0,0,2,,,,,0,,,53,0
228891,note_on,,,,,0,0,1,,,,,0,,,77,0
228891,note_on,,,,,151,0,1,,,,,0,,,65,0
228900,set_tempo,,,,,480,1,0,,375000,,,,,,,
228900,note_on,,,,,0,0,2,,,,,0,,,52,85
228900,note_on,,,,,9,0,1,,,,,0,,,64,85
228900,note_on,,,,,0,0,1,,,,,0,,,76,85
228900,note_on,,,,,9,0,2,,,,,0,,,40,85
229051,note_on,,,,,151,0,1,,,,,0,,,64,0
229051,note_on,,,,,151,0,2,,,,,0,,,40,0
229051,note_on,,,,,0,0,2,,,,,0,,,52,0
229051,note_on,,,,,0,0,1,,,,,0,,,76,0
229060,note_on,,,,,9,0,1,,,,,0,,,67,85
229060,note_on,,,,,9,0,2,,,,,0,,,43,85
229060,note_on,,,,,0,0,1,,,,,0,,,79,85
229060,note_on,,,,,0,0,2,,,,,0,,,55,85
229211,note_on,,,,,151,0,2,,,,,0,,,43,0
229211,note_on,,,,,0,0,2,,,,,0,,,55,0
229211,note_on,,,,,151,0,1,,,,,0,,,67,0
229211,note_on,,,,,0,0,1,,,,,0,,,79,0
229220,note_on,,,,,0,0,1,,,,,0,,,75,85
229220,note_on,,,,,9,0,2,,,,,0,,,39,85
229220,note_on,,,,,9,0,1,,,,,0,,,63,85
229220,note_on,,,,,0,0,2,,,,,0,,,51,85
229371,note_on,,,,,0,0,2,,,,,0,,,51,0
229371,note_on,,,,,151,0,1,,,,,0,,,63,0
229371,note_on,,,,,151,0,2,,,,,0,,,39,0
229371,note_on,,,,,0,0,1,,,,,0,,,75,0
229380,note_on,,,,,0,0,2,,,,,0,,,55,85
229380,note_on,,,,,9,0,2,,,,,0,,,43,85
229380,note_on,,,,,0,0,1,,,,,0,,,79,85
229380,note_on,,,,,9,0,1,,,,,0,,,67,85
229531,note_on,,,,,0,0,1,,,,,0,,,79,0
229531,note_on,,,,,151,0,1,,,,,0,,,67,0
229531,note_on,,,,,151,0,2,,,,,0,,,43,0
229531,note_on,,,,,0,0,2,,,,,0,,,55,0
229540,note_on,,,,,0,0,2,,,,,0,,,50,85
229540,note_on,,,,,9,0,2,,,,,0,,,38,85
229540,note_on,,,,,0,0,1,,,,,0,,,74,85
229540,note_on,,,,,9,0,1,,,,,0,,,62,85
229691,note_on,,,,,0,0,2,,,,,0,,,50,0
229691,note_on,,,,,0,0,1,,,,,0,,,74,0
229691,note_on,,,,,151,0,1,,,,,0,,,62,0
229691,note_on,,,,,151,0,2,,,,,0,,,38,0
229700,note_on,,,,,9,0,2,,,,,0,,,43,85
229700,note_on,,,,,0,0,1,,,,,0,,,79,85
229700,note_on,,,,,9,0,1,,,,,0,,,67,85
229700,note_on,,,,,0,0,2,,,,,0,,,55,85
229851,note_on,,,,,0,0,2,,,,,0,,,55,0
229851,note_on,,,,,0,0,1,,,,,0,,,79,0
229851,note_on,,,,,151,0,1,,,,,0,,,67,0
229851,note_on,,,,,151,0,2,,,,,0,,,43,0
229860,note_on,,,,,9,0,2,,,,,0,,,37,85
229860,note_on,,,,,9,0,1,,,,,0,,,61,85
229860,note_on,,,,,0,0,2,,,,,0,,,49,85
229860,note_on,,,,,0,0,1,,,,,0,,,73,85
230011,note_on,,,,,151,0,1,,,,,0,,,61,0
230011,note_on,,,,,0,0,2,,,,,0,,,49,0
230011,note_on,,,,,151,0,2,,,,,0,,,37,0
230011,note_on,,,,,0,0,1,,,,,0,,,73,0
230020,note_on,,,,,0,0,2,,,,,0,,,55,85
230020,note_on,,,,,9,0,2,,,,,0,,,43,85
230020,note_on,,,,,0,0,1,,,,,0,,,79,85
230020,note_on,,,,,9,0,1,,,,,0,,,67,85
230171,note_on,,,,,0,0,2,,,,,0,,,55,0
230171,note_on,,,,,151,0,2,,,,,0,,,43,0
230171,note_on,,,,,151,0,1,,,,,0,,,67,0
230171,note_on,,,,,0,0,1,,,,,0,,,79,0
230180,note_on,,,,,9,0,2,,,,,0,,,34,85
230180,note_on,,,,,0,0,2,,,,,0,,,46,85
230180,note_on,,,,,9,0,1,,,,,0,,,58,85
230180,note_on,,,,,0,0,1,,,,,0,,,70,85
230331,note_on,,,,,151,0,1,,,,,0,,,58,0
230331,note_on,,,,,0,0,2,,,,,0,,,46,0
230331,note_on,,,,,0,0,1,,,,,0,,,70,0
230331,note_on,,,,,151,0,2,,,,,0,,,34,0
230340,note_on,,,,,9,0,2,,,,,0,,,43,85
230340,note_on,,,,,9,0,1,,,,,0,,,67,85
230340,note_on,,,,,0,0,1,,,,,0,,,79,85
230340,note_on,,,,,0,0,2,,,,,0,,,55,85
230418,note_on,,,,,78,0,2,,,,,0,,,43,0
230418,note_on,,,,,78,0,1,,,,,0,,,67,0
230418,note_on,,,,,0,0,1,,,,,0,,,79,0
230418,note_on,,,,,0,0,2,,,,,0,,,55,0
230580,note_on,,,,,0,0,2,,,,,0,,,45,85
230580,note_on,,,,,0,0,1,,,,,0,,,69,85
230580,note_on,,,,,162,0,2,,,,,0,,,33,85
230580,set_tempo,,,,,1680,1,0,,749999,,,,,,,
230580,note_on,,,,,162,0,1,,,,,0,,,57,85
230807,note_on,,,,,0,0,2,,,,,0,,,45,0
230807,note_on,,,,,0,0,1,,,,,0,,,69,0
230807,note_on,,,,,227,0,2,,,,,0,,,33,0
230807,note_on,,,,,227,0,1,,,,,0,,,57,0
230819,set_tempo,,,,,239,1,0,,375000,,,,,,,
230820,note_on,,,,,13,0,2,,,,,0,,,52,102
230820,note_on,,,,,0,0,1,,,,,0,,,88,102
230820,note_on,,,,,13,0,1,,,,,0,,,76,102
230820,note_on,,,,,0,0,2,,,,,0,,,64,102
230820,set_tempo,,,,,1,1,0,,562499,,,,,,,
231033,note_on,,,,,0,0,2,,,,,0,,,64,0
231033,note_on,,,,,0,0,1,,,,,0,,,88,0
231033,note_on,,,,,213,0,1,,,,,0,,,76,0
231033,note_on,,,,,213,0,2,,,,,0,,,52,0
231139,set_tempo,,,,,319,1,0,,375000,,,,,,,
231140,note_on,,,,,0,0,1,,,,,0,,,86,85
231140,note_on,,,,,0,0,2,,,,,0,,,62,85
231140,note_on,,,,,107,0,1,,,,,0,,,74,85
231140,note_on,,,,,107,0,2,,,,,0,,,50,85
231291,note_on,,,,,151,0,1,,,,,0,,,74,0
231291,note_on,,,,,0,0,2,,,,,0,,,62,0
231291,note_on,,,,,0,0,1,,,,,0,,,86,0
231291,note_on,,,,,151,0,2,,,,,0,,,50,0
231300,note_on,,,,,9,0,2,,,,,0,,,49,85
231300,note_on,,,,,0,0,2,,,,,0,,,61,85
231300,note_on,,,,,9,0,1,,,,,0,,,73,85
231300,note_on,,,,,0,0,1,,,,,0,,,85,85
231451,note_on,,,,,0,0,1,,,,,0,,,85,0
231451,note_on,,,,,0,0,2,,,,,0,,,61,0
231451,note_on,,,,,151,0,1,,,,,0,,,73,0
231451,note_on,,,,,151,0,2,,,,,0,,,49,0
231460,note_on,,,,,0,0,1,,,,,0,,,82,85
231460,note_on,,,,,9,0,1,,,,,0,,,70,85
231460,note_on,,,,,9,0,2,,,,,0,,,46,85
231460,note_on,,,,,0,0,2,,,,,0,,,58,85
231611,note_on,,,,,151,0,2,,,,,0,,,46,0
231611,note_on,,,,,0,0,1,,,,,0,,,82,0
231611,note_on,,,,,151,0,1,,,,,0,,,70,0
231611,note_on,,,,,0,0,2,,,,,0,,,58,0
231620,note_on,,,,,0,0,2,,,,,0,,,57,85
231620,note_on,,,,,0,0,1,,,,,0,,,81,85
231620,note_on,,,,,9,0,1,,,,,0,,,69,85
231620,note_on,,,,,9,0,2,,,,,0,,,45,85
231771,note_on,,,,,0,0,2,,,,,0,,,57,0
231771,note_on,,,,,0,0,1,,,,,0,,,81,0
231771,note_on,,,,,151,0,1,,,,,0,,,69,0
231771,note_on,,,,,151,0,2,,,,,0,,,45,0
231780,note_on,,,,,0,0,1,,,,,0,,,91,85
231780,note_on,,,,,9,0,1,,,,,0,,,79,85
231780,note_on,,,,,9,0,2,,,,,0,,,55,85
231780,set_tempo,,,,,641,1,0,,749999,,,,,,,
231780,note_on,,,,,0,0,2,,,,,0,,,67,85
231931,note_on,,,,,0,0,2,,,,,0,,,67,0
231931,note_on,,,,,151,0,2,,,,,0,,,55,0
231939,note_on,,,,,159,0,1,,,,,0,,,79,0
231939,set_tempo,,,,,159,1,0,,375000,,,,,,,
231939,note_on,,,,,0,0,1,,,,,0,,,91,0
231940,note_on,,,,,1,0,1,,,,,0,,,77,85
231940,note_on,,,,,9,0,2,,,,,0,,,53,85
231940,note_on,,,,,0,0,1,,,,,0,,,89,85
231940,note_on,,,,,0,0,2,,,,,0,,,65,85
232091,note_on,,,,,0,0,1,,,,,0,,,89,0
232091,note_on,,,,,151,0,1,,,,,0,,,77,0
232091,note_on,,,,,151,0,2,,,,,0,,,53,0
232091,note_on,,,,,0,0,2,,,,,0,,,65,0
232100,note_on,,,,,9,0,1,,,,,0,,,76,85
232100,note_on,,,,,0,0,1,,,,,0,,,88,85
232100,note_on,,,,,9,0,2,,,,,0,,,52,85
232100,note_on,,,,,0,0,2,,,,,0,,,64,85
232251,note_on,,,,,151,0,2,,,,,0,,,52,0
232251,note_on,,,,,0,0,2,,,,,0,,,64,0
232251,note_on,,,,,151,0,1,,,,,0,,,76,0
232251,note_on,,,,,0,0,1,,,,,0,,,88,0
232260,note_on,,,,,9,0,2,,,,,0,,,50,85
232260,note_on,,,,,9,0,1,,,,,0,,,74,85
232260,note_on,,,,,0,0,1,,,,,0,,,86,85
232260,note_on,,,,,0,0,2,,,,,0,,,62,85
232411,note_on,,,,,0,0,1,,,,,0,,,86,0
232411,note_on,,,,,151,0,1,,,,,0,,,74,0
232411,note_on,,,,,151,0,2,,,,,0,,,50,0
232411,note_on,,,,,0,0,2,,,,,0,,,62,0
232420,note_on,,,,,9,0,1,,,,,0,,,73,85
232420,note_on,,,,,9,0,2,,,,,0,,,49,85
232420,note_on,,,,,0,0,1,,,,,0,,,85,85
232420,note_on,,,,,0,0,2,,,,,0,,,61,85
232571,note_on,,,,,151,0,1,,,,,0,,,73,0
232571,note_on,,,,,0,0,1,,,,,0,,,85,0
232571,note_on,,,,,0,0,2,,,,,0,,,61,0
232571,note_on,,,,,151,0,2,,,,,0,,,49,0
232580,note_on,,,,,9,0,2,,,,,0,,,58,85
232580,note_on,,,,,0,0,1,,,,,0,,,94,85
232580,note_on,,,,,0,0,2,,,,,0,,,70,85
232580,set_tempo,,,,,641,1,0,,749999,,,,,,,
232580,note_on,,,,,9,0,1,,,,,0,,,82,85
232731,note_on,,,,,0,0,2,,,,,0,,,70,0
232731,note_on,,,,,151,0,2,,,,,0,,,58,0
232739,note_on,,,,,0,0,1,,,,,0,,,94,0
232739,set_tempo,,,,,159,1,0,,375000,,,,,,,
232739,note_on,,,,,159,0,1,,,,,0,,,82,0
232740,time_signature,10,4,24,8,1,1,0,,,,,,,,,
232740,note_on,,,,,0,0,1,,,,,0,,,93,85
232740,note_on,,,,,1,0,1,,,,,0,,,81,85
232740,note_on,,,,,9,0,2,,,,,0,,,57,85
232740,note_on,,,,,0,0,2,,,,,0,,,69,85
232891,note_on,,,,,0,0,2,,,,,0,,,69,0
232891,note_on,,,,,151,0,1,,,,,0,,,81,0
232891,note_on,,,,,0,0,1,,,,,0,,,93,0
232891,note_on,,,,,151,0,2,,,,,0,,,57,0
232900,note_on,,,,,0,0,1,,,,,0,,,91,85
232900,note_on,,,,,9,0,1,,,,,0,,,79,85
232900,note_on,,,,,9,0,2,,,,,0,,,55,85
232900,note_on,,,,,0,0,2,,,,,0,,,67,85
233051,note_on,,,,,151,0,1,,,,,0,,,79,0
233051,note_on,,,,,0,0,1,,,,,0,,,91,0
233051,note_on,,,,,0,0,2,,,,,0,,,67,0
233051,note_on,,,,,151,0,2,,,,,0,,,55,0
233060,note_on,,,,,0,0,1,,,,,0,,,89,85
233060,note_on,,,,,9,0,1,,,,,0,,,77,85
233060,note_on,,,,,9,0,2,,,,,0,,,53,85
233060,note_on,,,,,0,0,2,,,,,0,,,65,85
233211,note_on,,,,,151,0,2,,,,,0,,,53,0
233211,note_on,,,,,0,0,2,,,,,0,,,65,0
233211,note_on,,,,,0,0,1,,,,,0,,,89,0
233211,note_on,,,,,151,0,1,,,,,0,,,77,0
233220,note_on,,,,,9,0,1,,,,,0,,,76,85
233220,note_on,,,,,9,0,2,,,,,0,,,52,85
233220,note_on,,,,,0,0,1,,,,,0,,,88,85
233220,note_on,,,,,0,0,2,,,,,0,,,64,85
233371,note_on,,,,,0,0,1,,,,,0,,,88,0
233371,note_on,,,,,151,0,2,,,,,0,,,52,0
233371,note_on,,,,,0,0,2,,,,,0,,,64,0
233371,note_on,,,,,151,0,1,,,,,0,,,76,0
233380,note_on,,,,,0,0,1,,,,,0,,,100,85
233380,note_on,,,,,0,0,2,,,,,0,,,76,85
233380,set_tempo,,,,,640,1,0,,749999,,,,,,,
233380,note_on,,,,,9,0,1,,,,,0,,,88,85
233380,note_on,,,,,9,0,2,,,,,0,,,64,85
233531,note_on,,,,,151,0,2,,,,,0,,,64,0
233531,note_on,,,,,0,0,2,,,,,0,,,76,0
233539,set_tempo,,,,,159,1,0,,375000,,,,,,,
233539,note_on,,,,,0,0,1,,,,,0,,,100,0
233539,note_on,,,,,159,0,1,,,,,0,,,88,0
233540,note_on,,,,,1,0,1,,,,,0,,,86,85
233540,note_on,,,,,0,0,1,,,,,0,,,98,85
233540,note_on,,,,,9,0,2,,,,,0,,,62,85
233540,note_on,,,,,0,0,2,,,,,0,,,74,85
233691,note_on,,,,,151,0,1,,,,,0,,,86,0
233691,note_on,,,,,151,0,2,,,,,0,,,62,0
233691,note_on,,,,,0,0,2,,,,,0,,,74,0
233691,note_on,,,,,0,0,1,,,,,0,,,98,0
233700,note_on,,,,,0,0,2,,,,,0,,,73,85
233700,note_on,,,,,0,0,1,,,,,0,,,97,85
233700,note_on,,,,,9,0,1,,,,,0,,,85,85
233700,note_on,,,,,9,0,2,,,,,0,,,61,85
233851,note_on,,,,,151,0,1,,,,,0,,,85,0
233851,note_on,,,,,0,0,2,,,,,0,,,73,0
233851,note_on,,,,,151,0,2,,,,,0,,,61,0
233851,note_on,,,,,0,0,1,,,,,0,,,97,0
233860,note_on,,,,,0,0,2,,,,,0,,,70,85
233860,note_on,,,,,9,0,2,,,,,0,,,58,85
233860,note_on,,,,,9,0,1,,,,,0,,,82,85
233860,note_on,,,,,0,0,1,,,,,0,,,94,85
234011,note_on,,,,,151,0,2,,,,,0,,,58,0
234011,note_on,,,,,0,0,1,,,,,0,,,94,0
234011,note_on,,,,,151,0,1,,,,,0,,,82,0
234011,note_on,,,,,0,0,2,,,,,0,,,70,0
234020,note_on,,,,,9,0,2,,,,,0,,,57,85
234020,note_on,,,,,9,0,1,,,,,0,,,81,85
234020,note_on,,,,,0,0,2,,,,,0,,,69,85
234020,note_on,,,,,0,0,1,,,,,0,,,93,85
234171,note_on,,,,,0,0,1,,,,,0,,,93,0
234171,note_on,,,,,151,0,2,,,,,0,,,57,0
234171,note_on,,,,,0,0,2,,,,,0,,,69,0
234171,note_on,,,,,151,0,1,,,,,0,,,81,0
234180,note_on,,,,,9,0,2,,,,,0,,,70,85
234180,note_on,,,,,0,0,2,,,,,0,,,82,85
234180,note_on,,,,,9,0,1,,,,,0,,,94,85
234180,set_tempo,,,,,641,1,0,,1499998,,,,,,,
234180,note_on,,,,,0,0,1,,,,,0,,,106,85
234331,note_on,,,,,151,0,2,,,,,0,,,70,0
234331,note_on,,,,,0,0,2,,,,,0,,,82,0
234339,set_tempo,,,,,159,1,0,,375000,,,,,,,
234339,note_on,,,,,0,0,1,,,,,0,,,106,0
234339,note_on,,,,,159,0,1,,,,,0,,,94,0
234340,set_tempo,,,,,1,1,0,,749999,,,,,,,
234340,note_on,,,,,1,0,1,,,,,0,,,93,85
234340,note_on,,,,,9,0,2,,,,,0,,,69,85
234340,note_on,,,,,0,0,2,,,,,0,,,81,85
234340,note_on,,,,,0,0,1,,,,,0,,,105,85
234491,note_on,,,,,151,0,2,,,,,0,,,69,0
234491,note_on,,,,,0,0,2,,,,,0,,,81,0
234499,note_on,,,,,159,0,1,,,,,0,,,93,0
234499,set_tempo,,,,,159,1,0,,375000,,,,,,,
234499,note_on,,,,,0,0,1,,,,,0,,,105,0
234500,note_on,,,,,9,0,2,,,,,0,,,67,85
234500,set_tempo,,,,,1,1,0,,562499,,,,,,,
234500,note_on,,,,,1,0,1,,,,,0,,,91,85
234500,note_on,,,,,0,0,2,,,,,0,,,79,85
234500,note_on,,,,,0,0,1,,,,,0,,,103,85
234651,note_on,,,,,151,0,2,,,,,0,,,67,0
234651,note_on,,,,,0,0,2,,,,,0,,,79,0
234659,set_tempo,,,,,159,1,0,,375000,,,,,,,
234659,note_on,,,,,0,0,1,,,,,0,,,103,0
234659,note_on,,,,,159,0,1,,,,,0,,,91,0
234660,note_on,,,,,9,0,2,,,,,0,,,65,85
234660,note_on,,,,,1,0,1,,,,,0,,,89,85
234660,note_on,,,,,0,0,2,,,,,0,,,77,85
234660,note_on,,,,,0,0,1,,,,,0,,,101,85
234811,note_on,,,,,0,0,1,,,,,0,,,101,0
234811,note_on,,,,,151,0,2,,,,,0,,,65,0
234811,note_on,,,,,0,0,2,,,,,0,,,77,0
234811,note_on,,,,,151,0,1,,,,,0,,,89,0
234820,note_on,,,,,0,0,2,,,,,0,,,76,85
234820,note_on,,,,,9,0,1,,,,,0,,,88,85
234820,note_on,,,,,9,0,2,,,,,0,,,64,85
234820,note_on,,,,,0,0,1,,,,,0,,,100,85
234971,note_on,,,,,0,0,2,,,,,0,,,76,0
234971,note_on,,,,,151,0,1,,,,,0,,,88,0
234971,note_on,,,,,151,0,2,,,,,0,,,64,0
234971,note_on,,,,,0,0,1,,,,,0,,,100,0
234980,note_on,,,,,0,0,1,,,,,0,,,98,85
234980,note_on,,,,,0,0,2,,,,,0,,,74,85
234980,note_on,,,,,9,0,2,,,,,0,,,62,85
234980,note_on,,,,,9,0,1,,,,,0,,,86,85
235131,note_on,,,,,151,0,1,,,,,0,,,86,0
235131,note_on,,,,,0,0,2,,,,,0,,,74,0
235131,note_on,,,,,151,0,2,,,,,0,,,62,0
235131,note_on,,,,,0,0,1,,,,,0,,,98,0
235140,note_on,,,,,0,0,1,,,,,0,,,97,85
235140,note_on,,,,,0,0,2,,,,,0,,,73,85
235140,note_on,,,,,9,0,1,,,,,0,,,85,85
235140,note_on,,,,,9,0,2,,,,,0,,,61,85
235291,note_on,,,,,0,0,1,,,,,0,,,97,0
235291,note_on,,,,,151,0,2,,,,,0,,,61,0
235291,note_on,,,,,0,0,2,,,,,0,,,73,0
235291,note_on,,,,,151,0,1,,,,,0,,,85,0
235300,note_on,,,,,0,0,1,,,,,0,,,100,85
235300,note_on,,,,,9,0,2,,,,,0,,,64,85
235300,note_on,,,,,9,0,1,,,,,0,,,88,85
235300,note_on,,,,,0,0,2,,,,,0,,,76,85
235451,note_on,,,,,151,0,1,,,,,0,,,88,0
235451,note_on,,,,,0,0,1,,,,,0,,,100,0
235451,note_on,,,,,151,0,2,,,,,0,,,64,0
235451,note_on,,,,,0,0,2,,,,,0,,,76,0
235460,note_on,,,,,9,0,1,,,,,0,,,82,85
235460,note_on,,,,,0,0,2,,,,,0,,,70,85
235460,note_on,,,,,9,0,2,,,,,0,,,58,85
235460,note_on,,,,,0,0,1,,,,,0,,,94,85
235611,note_on,,,,,0,0,1,,,,,0,,,94,0
235611,note_on,,,,,0,0,2,,,,,0,,,70,0
235611,note_on,,,,,151,0,2,,,,,0,,,58,0
235611,note_on,,,,,151,0,1,,,,,0,,,82,0
235620,note_on,,,,,0,0,1,,,,,0,,,97,85
235620,note_on,,,,,9,0,1,,,,,0,,,85,85
235620,note_on,,,,,0,0,2,,,,,0,,,73,85
235620,note_on,,,,,9,0,2,,,,,0,,,61,85
235771,note_on,,,,,0,0,1,,,,,0,,,97,0
235771,note_on,,,,,0,0,2,,,,,0,,,73,0
235771,note_on,,,,,151,0,2,,,,,0,,,61,0
235771,note_on,,,,,151,0,1,,,,,0,,,85,0
235780,note_on,,,,,0,0,2,,,,,0,,,69,85
235780,note_on,,,,,0,0,1,,,,,0,,,93,85
235780,note_on,,,,,9,0,1,,,,,0,,,81,85
235780,note_on,,,,,9,0,2,,,,,0,,,57,85
235931,note_on,,,,,151,0,1,,,,,0,,,81,0
235931,note_on,,,,,0,0,2,,,,,0,,,69,0
235931,note_on,,,,,0,0,1,,,,,0,,,93,0
235931,note_on,,,,,151,0,2,,,,,0,,,57,0
235940,note_on,,,,,0,0,1,,,,,0,,,94,85
235940,note_on,,,,,0,0,2,,,,,0,,,70,85
235940,note_on,,,,,9,0,2,,,,,0,,,58,85
235940,note_on,,,,,9,0,1,,,,,0,,,82,85
236091,note_on,,,,,151,0,1,,,,,0,,,82,0
236091,note_on,,,,,0,0,2,,,,,0,,,70,0
236091,note_on,,,,,151,0,2,,,,,0,,,58,0
236091,note_on,,,,,0,0,1,,,,,0,,,94,0
236100,note_on,,,,,0,0,1,,,,,0,,,91,85
236100,note_on,,,,,9,0,2,,,,,0,,,55,85
236100,note_on,,,,,9,0,1,,,,,0,,,79,85
236100,note_on,,,,,0,0,2,,,,,0,,,67,85
236251,note_on,,,,,0,0,2,,,,,0,,,67,0
236251,note_on,,,,,151,0,2,,,,,0,,,55,0
236251,note_on,,,,,0,0,1,,,,,0,,,91,0
236251,note_on,,,,,151,0,1,,,,,0,,,79,0
236260,note_on,,,,,9,0,1,,,,,0,,,82,85
236260,note_on,,,,,0,0,2,,,,,0,,,70,85
236260,note_on,,,,,0,0,1,,,,,0,,,94,85
236260,note_on,,,,,9,0,2,,,,,0,,,58,85
236411,note_on,,,,,151,0,2,,,,,0,,,58,0
236411,note_on,,,,,0,0,2,,,,,0,,,70,0
236411,note_on,,,,,0,0,1,,,,,0,,,94,0
236411,note_on,,,,,151,0,1,,,,,0,,,82,0
236420,note_on,,,,,9,0,1,,,,,0,,,77,85
236420,note_on,,,,,0,0,2,,,,,0,,,65,85
236420,note_on,,,,,0,0,1,,,,,0,,,89,85
236420,note_on,,,,,9,0,2,,,,,0,,,53,85
236571,note_on,,,,,0,0,2,,,,,0,,,65,0
236571,note_on,,,,,0,0,1,,,,,0,,,89,0
236571,note_on,,,,,151,0,2,,,,,0,,,53,0
236571,note_on,,,,,151,0,1,,,,,0,,,77,0
236580,note_on,,,,,0,0,2,,,,,0,,,67,85
236580,note_on,,,,,9,0,1,,,,,0,,,79,85
236580,note_on,,,,,0,0,1,,,,,0,,,91,85
236580,note_on,,,,,9,0,2,,,,,0,,,55,85
236731,note_on,,,,,0,0,2,,,,,0,,,67,0
236731,note_on,,,,,151,0,1,,,,,0,,,79,0
236731,note_on,,,,,0,0,1,,,,,0,,,91,0
236731,note_on,,,,,151,0,2,,,,,0,,,55,0
236740,note_on,,,,,9,0,2,,,,,0,,,52,85
236740,note_on,,,,,9,0,1,,,,,0,,,76,85
236740,note_on,,,,,0,0,1,,,,,0,,,88,85
236740,note_on,,,,,0,0,2,,,,,0,,,64,85
236891,note_on,,,,,0,0,1,,,,,0,,,88,0
236891,note_on,,,,,0,0,2,,,,,0,,,64,0
236891,note_on,,,,,151,0,2,,,,,0,,,52,0
236891,note_on,,,,,151,0,1,,,,,0,,,76,0
236900,note_on,,,,,0,0,1,,,,,0,,,91,85
236900,note_on,,,,,9,0,1,,,,,0,,,79,85
236900,note_on,,,,,9,0,2,,,,,0,,,55,85
236900,note_on,,,,,0,0,2,,,,,0,,,67,85
237051,note_on,,,,,0,0,1,,,,,0,,,91,0
237051,note_on,,,,,0,0,2,,,,,0,,,67,0
237051,note_on,,,,,151,0,2,,,,,0,,,55,0
237051,note_on,,,,,151,0,1,,,,,0,,,79,0
237060,note_on,,,,,9,0,2,,,,,0,,,50,85
237060,note_on,,,,,0,0,1,,,,,0,,,86,85
237060,note_on,,,,,0,0,2,,,,,0,,,62,85
237060,note_on,,,,,9,0,1,,,,,0,,,74,85
237060,set_tempo,,,,,2401,1,0,,250000,,,,,,,
237287,note_on,,,,,227,0,1,,,,,0,,,74,0
237287,note_on,,,,,227,0,2,,,,,0,,,50,0
237287,note_on,,,,,0,0,1,,,,,0,,,86,0
237287,note_on,,,,,0,0,2,,,,,0,,,62,0
237300,note_on,,,,,13,0,1,,,,,0,,,76,85
237300,note_on,,,,,13,0,2,,,,,0,,,52,85
237300,note_on,,,,,0,0,1,,,,,0,,,88,85
237300,note_on,,,,,0,0,2,,,,,0,,,64,85
237527,note_on,,,,,0,0,2,,,,,0,,,64,0
237527,note_on,,,,,0,0,1,,,,,0,,,88,0
237527,note_on,,,,,227,0,1,,,,,0,,,76,0
237527,note_on,,,,,227,0,2,,,,,0,,,52,0
237540,note_on,,,,,0,0,1,,,,,0,,,85,85
237540,set_tempo,,,,,0,1,0,,375000,,,,,,,
237540,note_on,,,,,13,0,1,,,,,0,,,73,85
237540,note_on,,,,,0,0,2,,,,,0,,,61,85
237540,note_on,,,,,13,0,2,,,,,0,,,49,85
237540,time_signature,13,4,24,8,480,1,0,,,,,,,,,
237691,note_on,,,,,151,0,2,,,,,0,,,49,0
237691,note_on,,,,,0,0,2,,,,,0,,,61,0
237691,note_on,,,,,151,0,1,,,,,0,,,73,0
237691,note_on,,,,,0,0,1,,,,,0,,,85,0
237700,note_on,,,,,0,0,2,,,,,0,,,64,85
237700,note_on,,,,,0,0,1,,,,,0,,,88,85
237700,note_on,,,,,9,0,2,,,,,0,,,52,85
237700,note_on,,,,,9,0,1,,,,,0,,,76,85
237851,note_on,,,,,151,0,2,,,,,0,,,52,0
237851,note_on,,,,,151,0,1,,,,,0,,,76,0
237851,note_on,,,,,0,0,1,,,,,0,,,88,0
237851,note_on,,,,,0,0,2,,,,,0,,,64,0
237860,note_on,,,,,9,0,2,,,,,0,,,46,85
237860,note_on,,,,,0,0,2,,,,,0,,,58,85
237860,note_on,,,,,0,0,1,,,,,0,,,82,85
237860,note_on,,,,,9,0,1,,,,,0,,,70,85
238011,note_on,,,,,151,0,1,,,,,0,,,70,0
238011,note_on,,,,,151,0,2,,,,,0,,,46,0
238011,note_on,,,,,0,0,2,,,,,0,,,58,0
238011,note_on,,,,,0,0,1,,,,,0,,,82,0
238020,note_on,,,,,9,0,2,,,,,0,,,49,85
238020,note_on,,,,,0,0,2,,,,,0,,,61,85
238020,note_on,,,,,9,0,1,,,,,0,,,73,85
238020,note_on,,,,,0,0,1,,,,,0,,,85,85
238171,note_on,,,,,0,0,2,,,,,0,,,61,0
238171,note_on,,,,,151,0,2,,,,,0,,,49,0
238171,note_on,,,,,151,0,1,,,,,0,,,73,0
238171,note_on,,,,,0,0,1,,,,,0,,,85,0
238180,note_on,,,,,0,0,2,,,,,0,,,57,85
238180,note_on,,,,,9,0,2,,,,,0,,,45,85
238180,note_on,,,,,9,0,1,,,,,0,,,69,85
238180,note_on,,,,,0,0,1,,,,,0,,,81,85
238331,note_on,,,,,0,0,1,,,,,0,,,81,0
238331,note_on,,,,,151,0,2,,,,,0,,,45,0
238331,note_on,,,,,0,0,2,,,,,0,,,57,0
238331,note_on,,,,,151,0,1,,,,,0,,,69,0
238340,note_on,,,,,0,0,2,,,,,0,,,58,85
238340,note_on,,,,,9,0,2,,,,,0,,,46,85
238340,note_on,,,,,0,0,1,,,,,0,,,82,85
238340,note_on,,,,,9,0,1,,,,,0,,,70,85
238491,note_on,,,,,0,0,2,,,,,0,,,58,0
238491,note_on,,,,,0,0,1,,,,,0,,,82,0
238491,note_on,,,,,151,0,2,,,,,0,,,46,0
238491,note_on,,,,,151,0,1,,,,,0,,,70,0
238500,note_on,,,,,0,0,1,,,,,0,,,79,85
238500,note_on,,,,,9,0,1,,,,,0,,,67,85
238500,note_on,,,,,9,0,2,,,,,0,,,43,85
238500,note_on,,,,,0,0,2,,,,,0,,,55,85
238651,note_on,,,,,0,0,1,,,,,0,,,79,0
238651,note_on,,,,,0,0,2,,,,,0,,,55,0
238651,note_on,,,,,151,0,2,,,,,0,,,43,0
238651,note_on,,,,,151,0,1,,,,,0,,,67,0
238660,note_on,,,,,9,0,2,,,,,0,,,46,85
238660,note_on,,,,,0,0,2,,,,,0,,,58,85
238660,note_on,,,,,9,0,1,,,,,0,,,70,85
238660,note_on,,,,,0,0,1,,,,,0,,,82,85
238811,note_on,,,,,151,0,2,,,,,0,,,46,0
238811,note_on,,,,,0,0,2,,,,,0,,,58,0
238811,note_on,,,,,151,0,1,,,,,0,,,70,0
238811,note_on,,,,,0,0,1,,,,,0,,,82,0
238820,note_on,,,,,0,0,1,,,,,0,,,77,85
238820,note_on,,,,,0,0,2,,,,,0,,,53,85
238820,note_on,,,,,9,0,1,,,,,0,,,65,85
238820,note_on,,,,,9,0,2,,,,,0,,,41,85
238971,note_on,,,,,0,0,1,,,,,0,,,77,0
238971,note_on,,,,,0,0,2,,,,,0,,,53,0
238971,note_on,,,,,151,0,1,,,,,0,,,65,0
238971,note_on,,,,,151,0,2,,,,,0,,,41,0
238980,note_on,,,,,0,0,2,,,,,0,,,55,85
238980,note_on,,,,,0,0,1,,,,,0,,,79,85
238980,note_on,,,,,9,0,2,,,,,0,,,43,85
238980,note_on,,,,,9,0,1,,,,,0,,,67,85
239131,note_on,,,,,0,0,2,,,,,0,,,55,0
239131,note_on,,,,,0,0,1,,,,,0,,,79,0
239131,note_on,,,,,151,0,1,,,,,0,,,67,0
239131,note_on,,,,,151,0,2,,,,,0,,,43,0
239140,note_on,,,,,9,0,1,,,,,0,,,64,85
239140,note_on,,,,,0,0,2,,,,,0,,,52,85
239140,note_on,,,,,0,0,1,,,,,0,,,76,85
239140,note_on,,,,,9,0,2,,,,,0,,,40,85
239291,note_on,,,,,151,0,2,,,,,0,,,40,0
239291,note_on,,,,,0,0,2,,,,,0,,,52,0
239291,note_on,,,,,151,0,1,,,,,0,,,64,0
239291,note_on,,,,,0,0,1,,,,,0,,,76,0
239300,note_on,,,,,0,0,1,,,,,0,,,79,85
239300,note_on,,,,,9,0,1,,,,,0,,,67,85
239300,note_on,,,,,9,0,2,,,,,0,,,43,85
239300,note_on,,,,,0,0,2,,,,,0,,,55,85
239451,note_on,,,,,0,0,1,,,,,0,,,79,0
239451,note_on,,,,,151,0,1,,,,,0,,,67,0
239451,note_on,,,,,0,0,2,,,,,0,,,55,0
239451,note_on,,,,,151,0,2,,,,,0,,,43,0
239460,note_on,,,,,0,0,1,,,,,0,,,74,85
239460,note_on,,,,,0,0,2,,,,,0,,,50,85
239460,note_on,,,,,9,0,1,,,,,0,,,62,85
239460,note_on,,,,,9,0,2,,,,,0,,,38,85
239611,note_on,,,,,0,0,1,,,,,0,,,74,0
239611,note_on,,,,,151,0,2,,,,,0,,,38,0
239611,note_on,,,,,151,0,1,,,,,0,,,62,0
239611,note_on,,,,,0,0,2,,,,,0,,,50,0
239620,note_on,,,,,0,0,2,,,,,0,,,52,85
239620,note_on,,,,,9,0,2,,,,,0,,,40,85
239620,note_on,,,,,0,0,1,,,,,0,,,76,85
239620,note_on,,,,,9,0,1,,,,,0,,,64,85
239771,note_on,,,,,151,0,2,,,,,0,,,40,0
239771,note_on,,,,,151,0,1,,,,,0,,,64,0
239771,note_on,,,,,0,0,1,,,,,0,,,76,0
239771,note_on,,,,,0,0,2,,,,,0,,,52,0
239780,note_on,,,,,9,0,2,,,,,0,,,37,85
239780,note_on,,,,,0,0,1,,,,,0,,,73,85
239780,note_on,,,,,9,0,1,,,,,0,,,61,85
239780,note_on,,,,,0,0,2,,,,,0,,,49,85
239931,note_on,,,,,151,0,1,,,,,0,,,61,0
239931,note_on,,,,,0,0,1,,,,,0,,,73,0
239931,note_on,,,,,0,0,2,,,,,0,,,49,0
239931,note_on,,,,,151,0,2,,,,,0,,,37,0
239940,note_on,,,,,0,0,1,,,,,0,,,76,85
239940,note_on,,,,,0,0,2,,,,,0,,,52,85
239940,note_on,,,,,9,0,1,,,,,0,,,64,85
239940,note_on,,,,,9,0,2,,,,,0,,,40,85
240091,note_on,,,,,151,0,1,,,,,0,,,64,0
240091,note_on,,,,,0,0,2,,,,,0,,,52,0
240091,note_on,,,,,151,0,2,,,,,0,,,40,0
240091,note_on,,,,,0,0,1,,,,,0,,,76,0
240100,note_on,,,,,0,0,2,,,,,0,,,46,85
240100,note_on,,,,,0,0,1,,,,,0,,,70,85
240100,note_on,,,,,9,0,2,,,,,0,,,34,85
240100,note_on,,,,,9,0,1,,,,,0,,,58,85
240251,note_on,,,,,151,0,1,,,,,0,,,58,0
240251,note_on,,,,,0,0,1,,,,,0,,,70,0
240251,note_on,,,,,0,0,2,,,,,0,,,46,0
240251,note_on,,,,,151,0,2,,,,,0,,,34,0
240260,note_on,,,,,0,0,1,,,,,0,,,73,85
240260,note_on,,,,,9,0,2,,,,,0,,,37,85
240260,note_on,,,,,9,0,1,,,,,0,,,61,85
240260,note_on,,,,,0,0,2,,,,,0,,,49,85
240411,note_on,,,,,151,0,2,,,,,0,,,37,0
240411,note_on,,,,,151,0,1,,,,,0,,,61,0
240411,note_on,,,,,0,0,2,,,,,0,,,49,0
240411,note_on,,,,,0,0,1,,,,,0,,,73,0
240420,note_on,,,,,0,0,2,,,,,0,,,45,85
240420,note_on,,,,,9,0,2,,,,,0,,,33,85
240420,note_on,,,,,9,0,1,,,,,0,,,57,85
240420,note_on,,,,,0,0,1,,,,,0,,,69,85
240571,note_on,,,,,151,0,2,,,,,0,,,33,0
240571,note_on,,,,,0,0,1,,,,,0,,,69,0
240571,note_on,,,,,151,0,1,,,,,0,,,57,0
240571,note_on,,,,,0,0,2,,,,,0,,,45,0
240580,note_on,,,,,9,0,2,,,,,0,,,34,85
240580,note_on,,,,,0,0,2,,,,,0,,,46,85
240580,note_on,,,,,9,0,1,,,,,0,,,58,85
240580,note_on,,,,,0,0,1,,,,,0,,,70,85
240731,note_on,,,,,0,0,1,,,,,0,,,70,0
240731,note_on,,,,,0,0,2,,,,,0,,,46,0
240731,note_on,,,,,151,0,2,,,,,0,,,34,0
240731,note_on,,,,,151,0,1,,,,,0,,,58,0
240740,note_on,,,,,0,0,1,,,,,0,,,68,85
240740,note_on,,,,,0,0,2,,,,,0,,,44,85
240740,note_on,,,,,9,0,2,,,,,0,,,32,85
240740,note_on,,,,,9,0,1,,,,,0,,,56,85
240891,note_on,,,,,0,0,1,,,,,0,,,68,0
240891,note_on,,,,,0,0,2,,,,,0,,,44,0
240891,note_on,,,,,151,0,1,,,,,0,,,56,0
240891,note_on,,,,,151,0,2,,,,,0,,,32,0
240900,note_on,,,,,9,0,1,,,,,0,,,57,85
240900,note_on,,,,,9,0,2,,,,,0,,,33,85
240900,note_on,,,,,0,0,2,,,,,0,,,45,85
240900,note_on,,,,,0,0,1,,,,,0,,,69,85
241051,note_on,,,,,151,0,2,,,,,0,,,33,0
241051,note_on,,,,,151,0,1,,,,,0,,,57,0
241051,note_on,,,,,0,0,2,,,,,0,,,45,0
241051,note_on,,,,,0,0,1,,,,,0,,,69,0
241060,note_on,,,,,0,0,1,,,,,0,,,55,85
241060,note_on,,,,,9,0,2,,,,,0,,,31,85
241060,note_on,,,,,9,0,1,,,,,0,,,67,85
241060,note_on,,,,,0,0,2,,,,,0,,,43,85
241211,note_on,,,,,151,0,1,,,,,0,,,67,0
241211,note_on,,,,,0,0,1,,,,,0,,,55,0
241211,note_on,,,,,0,0,2,,,,,0,,,43,0
241211,note_on,,,,,151,0,2,,,,,0,,,31,0
241220,note_on,,,,,0,0,1,,,,,0,,,57,85
241220,note_on,,,,,9,0,1,,,,,0,,,69,85
241220,note_on,,,,,0,0,2,,,,,0,,,45,85
241220,note_on,,,,,9,0,2,,,,,0,,,33,85
241371,note_on,,,,,0,0,1,,,,,0,,,57,0
241371,note_on,,,,,151,0,1,,,,,0,,,69,0
241371,note_on,,,,,151,0,2,,,,,0,,,33,0
241371,note_on,,,,,0,0,2,,,,,0,,,45,0
241380,note_on,,,,,0,0,1,,,,,0,,,54,85
241380,note_on,,,,,0,0,2,,,,,0,,,42,85
241380,note_on,,,,,9,0,1,,,,,0,,,66,85
241380,note_on,,,,,9,0,2,,,,,0,,,30,85
241531,note_on,,,,,0,0,2,,,,,0,,,42,0
241531,note_on,,,,,0,0,1,,,,,0,,,54,0
241531,note_on,,,,,151,0,1,,,,,0,,,66,0
241531,note_on,,,,,151,0,2,,,,,0,,,30,0
241540,note_on,,,,,9,0,1,,,,,0,,,69,85
241540,note_on,,,,,0,0,1,,,,,0,,,57,85
241540,note_on,,,,,9,0,2,,,,,0,,,33,85
241540,note_on,,,,,0,0,2,,,,,0,,,45,85
241691,note_on,,,,,0,0,2,,,,,0,,,45,0
241691,note_on,,,,,151,0,2,,,,,0,,,33,0
241691,note_on,,,,,151,0,1,,,,,0,,,69,0
241691,note_on,,,,,0,0,1,,,,,0,,,57,0
241700,note_on,,,,,9,0,2,,,,,0,,,29,85
241700,note_on,,,,,9,0,1,,,,,0,,,65,85
241700,note_on,,,,,0,0,2,,,,,0,,,41,85
241700,note_on,,,,,0,0,1,,,,,0,,,53,85
241851,note_on,,,,,151,0,1,,,,,0,,,65,0
241851,note_on,,,,,151,0,2,,,,,0,,,29,0
241851,note_on,,,,,0,0,2,,,,,0,,,41,0
241851,note_on,,,,,0,0,1,,,,,0,,,53,0
241860,note_on,,,,,0,0,2,,,,,0,,,45,85
241860,note_on,,,,,9,0,2,,,,,0,,,33,85
241860,note_on,,,,,9,0,1,,,,,0,,,69,85
241860,note_on,,,,,0,0,1,,,,,0,,,57,85
241860,set_tempo,,,,,4320,1,0,,400000,,,,,,,
242011,note_on,,,,,151,0,1,,,,,0,,,69,0
242011,note_on,,,,,0,0,1,,,,,0,,,57,0
242011,note_on,,,,,0,0,2,,,,,0,,,45,0
242011,note_on,,,,,151,0,2,,,,,0,,,33,0
242020,note_on,,,,,9,0,2,,,,,0,,,28,85
242020,note_on,,,,,0,0,1,,,,,0,,,52,85
242020,note_on,,,,,0,0,2,,,,,0,,,40,85
242020,note_on,,,,,9,0,1,,,,,0,,,64,85
242171,note_on,,,,,151,0,1,,,,,0,,,64,0
242171,note_on,,,,,0,0,2,,,,,0,,,40,0
242171,note_on,,,,,151,0,2,,,,,0,,,28,0
242171,note_on,,,,,0,0,1,,,,,0,,,52,0
242180,note_on,,,,,9,0,2,,,,,0,,,33,85
242180,note_on,,,,,0,0,1,,,,,0,,,57,85
242180,note_on,,,,,0,0,2,,,,,0,,,45,85
242180,note_on,,,,,9,0,1,,,,,0,,,69,85
242331,note_on,,,,,151,0,1,,,,,0,,,69,0
242331,note_on,,,,,0,0,1,,,,,0,,,57,0
242331,note_on,,,,,151,0,2,,,,,0,,,33,0
242331,note_on,,,,,0,0,2,,,,,0,,,45,0
242340,note_on,,,,,0,0,2,,,,,0,,,39,85
242340,note_on,,,,,9,0,1,,,,,0,,,63,85
242340,set_tempo,,,,,480,1,0,,428572,,,,,,,
242340,note_on,,,,,0,0,1,,,,,0,,,51,85
242340,note_on,,,,,9,0,2,,,,,0,,,27,85
242567,note_on,,,,,227,0,1,,,,,0,,,63,0
242567,note_on,,,,,227,0,2,,,,,0,,,27,0
242567,note_on,,,,,0,0,2,,,,,0,,,39,0
242567,note_on,,,,,0,0,1,,,,,0,,,51,0
242580,note_on,,,,,13,0,2,,,,,0,,,33,85
242580,note_on,,,,,0,0,2,,,,,0,,,45,85
242580,note_on,,,,,13,0,1,,,,,0,,,69,85
242580,note_on,,,,,0,0,1,,,,,0,,,57,85
242807,note_on,,,,,0,0,2,,,,,0,,,45,0
242807,note_on,,,,,227,0,1,,,,,0,,,69,0
242807,note_on,,,,,0,0,1,,,,,0,,,57,0
242807,note_on,,,,,227,0,2,,,,,0,,,33,0
242820,note_on,,,,,0,0,1,,,,,0,,,48,85
242820,note_on,,,,,13,0,1,,,,,0,,,60,85
242820,set_tempo,,,,,480,1,0,,461538,,,,,,,
242820,note_on,,,,,13,0,2,,,,,0,,,24,85
242820,note_on,,,,,0,0,2,,,,,0,,,36,85
243047,note_on,,,,,0,0,1,,,,,0,,,48,0
243047,note_on,,,,,0,0,2,,,,,0,,,36,0
243047,note_on,,,,,227,0,1,,,,,0,,,60,0
243047,note_on,,,,,227,0,2,,,,,0,,,24,0
243060,note_on,,,,,0,0,1,,,,,0,,,57,85
243060,note_on,,,,,13,0,2,,,,,0,,,33,85
243060,note_on,,,,,0,0,2,,,,,0,,,45,85
243060,note_on,,,,,13,0,1,,,,,0,,,69,85
243287,note_on,,,,,227,0,1,,,,,0,,,69,0
243287,note_on,,,,,227,0,2,,,,,0,,,33,0
243287,note_on,,,,,0,0,2,,,,,0,,,45,0
243287,note_on,,,,,0,0,1,,,,,0,,,57,0
243300,note_on,,,,,0,0,2,,,,,0,,,37,85
243300,note_on,,,,,0,0,1,,,,,0,,,49,85
243300,note_on,,,,,13,0,1,,,,,0,,,61,85
243300,note_on,,,,,13,0,2,,,,,0,,,25,85
243300,set_tempo,,,,,480,1,0,,461538,,,,,,,
243527,note_on,,,,,227,0,2,,,,,0,,,25,0
243527,note_on,,,,,0,0,2,,,,,0,,,37,0
243527,note_on,,,,,227,0,1,,,,,0,,,61,0
243527,note_on,,,,,0,0,1,,,,,0,,,49,0
243540,note_on,,,,,13,0,2,,,,,0,,,33,85
243540,note_on,,,,,13,0,1,,,,,0,,,69,85
243540,note_on,,,,,0,0,2,,,,,0,,,45,85
243540,note_on,,,,,0,0,1,,,,,0,,,57,85
243767,note_on,,,,,0,0,2,,,,,0,,,45,0
243767,note_on,,,,,227,0,1,,,,,0,,,69,0
243767,note_on,,,,,227,0,2,,,,,0,,,33,0
243767,note_on,,,,,0,0,1,,,,,0,,,57,0
243780,note_on,,,,,0,0,1,,,,,0,,,74,75
243780,note_on,,,,,0,0,2,,,,,0,,,45,75
243780,note_on,,,,,0,0,2,,,,,0,,,38,75
243780,key_signature,,,,,13,1,2,F,,,,,,,,
243780,key_signature,,,,,13,1,1,F,,,,,,,,
243780,note_on,,,,,0,0,1,,,,,0,,,77,75
243780,note_on,,,,,0,0,1,,,,,0,,,86,75
243780,note_on,,,,,0,0,2,,,,,0,,,50,75
243780,set_tempo,,,,,0,1,0,,500000,,,,,,,
243780,time_signature,6,8,24,8,480,1,0,,,,,,,,,
243780,key_signature,,,,,0,1,0,F,,,,,,,,
243782,control_change,,,,,2,0,2,,,64,127,0,,,,
243937,note_on,,,,,155,0,2,,,,,0,,,38,0
243937,note_on,,,,,0,0,2,,,,,0,,,50,0
243937,note_on,,,,,0,0,1,,,,,0,,,86,0
243937,note_on,,,,,157,0,1,,,,,0,,,74,0
243937,note_on,,,,,0,0,2,,,,,0,,,45,0
243937,note_on,,,,,0,0,1,,,,,0,,,77,0
244020,note_on,,,,,83,0,2,,,,,0,,,52,75
244020,note_on,,,,,0,0,2,,,,,0,,,56,75
244081,note_on,,,,,61,0,2,,,,,0,,,52,0
244081,note_on,,,,,0,0,2,,,,,0,,,56,0
244082,note_on,,,,,1,0,2,,,,,0,,,53,75
244082,note_on,,,,,0,0,2,,,,,0,,,57,75
244139,note_on,,,,,57,0,2,,,,,0,,,53,0
244139,note_on,,,,,0,0,2,,,,,0,,,57,0
244260,note_on,,,,,121,0,2,,,,,0,,,61,75
244260,note_on,,,,,0,0,2,,,,,0,,,64,75
244261,control_change,,,,,1,0,2,,,64,0,0,,,,
244321,note_on,,,,,0,0,2,,,,,0,,,64,0
244321,note_on,,,,,60,0,2,,,,,0,,,61,0
244322,note_on,,,,,0,0,2,,,,,0,,,65,75
244322,note_on,,,,,1,0,2,,,,,0,,,62,75
244379,note_on,,,,,0,0,2,,,,,0,,,65,0
244379,note_on,,,,,57,0,2,,,,,0,,,62,0
244500,note_on,,,,,0,0,1,,,,,0,,,86,75
244500,note_on,,,,,0,0,2,,,,,0,,,50,75
244500,note_on,,,,,121,0,2,,,,,0,,,38,75
244500,note_on,,,,,0,0,1,,,,,0,,,77,75
244500,note_on,,,,,563,0,1,,,,,0,,,74,75
244500,note_on,,,,,0,0,2,,,,,0,,,45,75
244502,control_change,,,,,2,0,2,,,64,127,0,,,,
244657,note_on,,,,,0,0,1,,,,,0,,,77,0
244657,note_on,,,,,157,0,1,,,,,0,,,74,0
244657,note_on,,,,,0,0,2,,,,,0,,,50,0
244657,note_on,,,,,155,0,2,,,,,0,,,38,0
244657,note_on,,,,,0,0,2,,,,,0,,,45,0
244657,note_on,,,,,0,0,1,,,,,0,,,86,0
244740,note_on,,,,,0,0,2,,,,,0,,,61,75
244740,note_on,,,,,83,0,2,,,,,0,,,56,75
244801,note_on,,,,,61,0,2,,,,,0,,,56,0
244801,note_on,,,,,0,0,2,,,,,0,,,61,0
244802,note_on,,,,,0,0,2,,,,,0,,,62,75
244802,note_on,,,,,1,0,2,,,,,0,,,57,75
244859,note_on,,,,,0,0,2,,,,,0,,,62,0
244859,note_on,,,,,57,0,2,,,,,0,,,57,0
244980,note_on,,,,,121,0,2,,,,,0,,,64,75
244980,note_on,,,,,0,0,2,,,,,0,,,68,75
244981,control_change,,,,,1,0,2,,,64,0,0,,,,
245041,note_on,,,,,60,0,2,,,,,0,,,64,0
245041,note_on,,,,,0,0,2,,,,,0,,,68,0
245042,note_on,,,,,0,0,2,,,,,0,,,69,75
245042,note_on,,,,,1,0,2,,,,,0,,,65,75
245099,note_on,,,,,0,0,2,,,,,0,,,69,0
245099,note_on,,,,,57,0,2,,,,,0,,,65,0
245100,note_on,,,,,443,0,1,,,,,0,,,72,75
245100,note_on,,,,,0,0,1,,,,,0,,,84,75
245213,note_on,,,,,0,0,1,,,,,0,,,84,0
245213,note_on,,,,,113,0,1,,,,,0,,,72,0
245220,note_on,,,,,0,0,1,,,,,0,,,76,75
245220,note_on,,,,,0,0,2,,,,,0,,,43,75
245220,note_on,,,,,7,0,1,,,,,0,,,70,75
245220,note_on,,,,,0,0,2,,,,,0,,,50,75
245220,note_on,,,,,0,0,1,,,,,0,,,82,75
245220,note_on,,,,,121,0,2,,,,,0,,,38,75
245222,control_change,,,,,2,0,2,,,64,127,0,,,,
245377,note_on,,,,,0,0,1,,,,,0,,,82,0
245377,note_on,,,,,0,0,2,,,,,0,,,43,0
245377,note_on,,,,,0,0,2,,,,,0,,,50,0
245377,note_on,,,,,155,0,2,,,,,0,,,38,0
245377,note_on,,,,,157,0,1,,,,,0,,,70,0
245377,note_on,,,,,0,0,1,,,,,0,,,76,0
245460,note_on,,,,,83,0,2,,,,,0,,,54,75
245460,note_on,,,,,0,0,2,,,,,0,,,57,75
245521,note_on,,,,,61,0,2,,,,,0,,,54,0
245521,note_on,,,,,0,0,2,,,,,0,,,57,0
245522,note_on,,,,,0,0,2,,,,,0,,,58,75
245522,note_on,,,,,1,0,2,,,,,0,,,55,75
245579,note_on,,,,,0,0,2,,,,,0,,,58,0
245579,note_on,,,,,57,0,2,,,,,0,,,55,0
245700,note_on,,,,,0,0,2,,,,,0,,,66,75
245700,note_on,,,,,121,0,2,,,,,0,,,63,75
245701,control_change,,,,,1,0,2,,,64,0,0,,,,
245761,note_on,,,,,0,0,2,,,,,0,,,66,0
245761,note_on,,,,,60,0,2,,,,,0,,,63,0
245762,note_on,,,,,0,0,2,,,,,0,,,67,75
245762,note_on,,,,,1,0,2,,,,,0,,,64,75
245819,note_on,,,,,57,0,2,,,,,0,,,64,0
245819,note_on,,,,,0,0,2,,,,,0,,,67,0
245940,note_on,,,,,0,0,1,,,,,0,,,82,75
245940,note_on,,,,,121,0,2,,,,,0,,,38,75
245940,note_on,,,,,0,0,2,,,,,0,,,50,75
245940,note_on,,,,,563,0,1,,,,,0,,,70,75
245940,note_on,,,,,0,0,2,,,,,0,,,43,75
245940,note_on,,,,,0,0,1,,,,,0,,,76,75
245942,control_change,,,,,2,0,2,,,64,127,0,,,,
246097,note_on,,,,,0,0,1,,,,,0,,,82,0
246097,note_on,,,,,0,0,1,,,,,0,,,76,0
246097,note_on,,,,,0,0,2,,,,,0,,,50,0
246097,note_on,,,,,155,0,2,,,,,0,,,38,0
246097,note_on,,,,,157,0,1,,,,,0,,,70,0
246097,note_on,,,,,0,0,2,,,,,0,,,43,0
246180,note_on,,,,,0,0,2,,,,,0,,,58,75
246180,note_on,,,,,83,0,2,,,,,0,,,54,75
246241,note_on,,,,,0,0,2,,,,,0,,,58,0
246241,note_on,,,,,61,0,2,,,,,0,,,54,0
246242,note_on,,,,,1,0,2,,,,,0,,,55,75
246242,note_on,,,,,0,0,2,,,,,0,,,58,75
246299,note_on,,,,,57,0,2,,,,,0,,,55,0
246299,note_on,,,,,0,0,2,,,,,0,,,58,0
246420,note_on,,,,,0,0,2,,,,,0,,,66,75
246420,note_on,,,,,121,0,2,,,,,0,,,63,75
246421,control_change,,,,,1,0,2,,,64,0,0,,,,
246481,note_on,,,,,60,0,2,,,,,0,,,63,0
246481,note_on,,,,,0,0,2,,,,,0,,,66,0
246482,note_on,,,,,0,0,2,,,,,0,,,67,75
246482,note_on,,,,,1,0,2,,,,,0,,,64,75
246539,note_on,,,,,0,0,2,,,,,0,,,67,0
246539,note_on,,,,,57,0,2,,,,,0,,,64,0
246540,note_on,,,,,0,0,1,,,,,0,,,82,75
246540,note_on,,,,,443,0,1,,,,,0,,,70,75
246653,note_on,,,,,113,0,1,,,,,0,,,70,0
246653,note_on,,,,,0,0,1,,,,,0,,,82,0
246660,note_on,,,,,0,0,2,,,,,0,,,49,75
246660,note_on,,,,,0,0,1,,,,,0,,,81,75
246660,note_on,,,,,0,0,1,,,,,0,,,76,75
246660,note_on,,,,,7,0,1,,,,,0,,,69,75
246660,note_on,,,,,121,0,2,,,,,0,,,37,75
246662,control_change,,,,,2,0,2,,,64,127,0,,,,
246817,note_on,,,,,155,0,2,,,,,0,,,37,0
246817,note_on,,,,,157,0,1,,,,,0,,,69,0
246817,note_on,,,,,0,0,2,,,,,0,,,49,0
246817,note_on,,,,,0,0,1,,,,,0,,,76,0
246817,note_on,,,,,0,0,1,,,,,0,,,81,0
246900,note_on,,,,,0,0,2,,,,,0,,,54,75
246900,note_on,,,,,83,0,2,,,,,0,,,51,75
246961,note_on,,,,,0,0,2,,,,,0,,,54,0
246961,note_on,,,,,61,0,2,,,,,0,,,51,0
246962,note_on,,,,,1,0,2,,,,,0,,,52,75
246962,note_on,,,,,0,0,2,,,,,0,,,55,75
247019,note_on,,,,,0,0,2,,,,,0,,,55,0
247019,note_on,,,,,57,0,2,,,,,0,,,52,0
247140,note_on,,,,,121,0,2,,,,,0,,,60,75
247140,note_on,,,,,0,0,2,,,,,0,,,63,75
247141,control_change,,,,,1,0,2,,,64,0,0,,,,
247201,note_on,,,,,0,0,2,,,,,0,,,63,0
247201,note_on,,,,,60,0,2,,,,,0,,,60,0
247202,note_on,,,,,1,0,2,,,,,0,,,61,75
247202,note_on,,,,,0,0,2,,,,,0,,,64,75
247259,note_on,,,,,57,0,2,,,,,0,,,61,0
247259,note_on,,,,,0,0,2,,,,,0,,,64,0
247260,note_on,,,,,443,0,1,,,,,0,,,69,75
247260,note_on,,,,,0,0,1,,,,,0,,,81,75
247373,note_on,,,,,113,0,1,,,,,0,,,69,0
247373,note_on,,,,,0,0,1,,,,,0,,,81,0
247380,note_on,,,,,0,0,2,,,,,0,,,45,75
247380,note_on,,,,,7,0,1,,,,,0,,,76,75
247380,note_on,,,,,121,0,2,,,,,0,,,33,75
247380,note_on,,,,,0,0,1,,,,,0,,,88,75
247380,note_on,,,,,0,0,1,,,,,0,,,79,75
247382,control_change,,,,,2,0,2,,,64,127,0,,,,
247537,note_on,,,,,0,0,1,,,,,0,,,79,0
247537,note_on,,,,,0,0,2,,,,,0,,,45,0
247537,note_on,,,,,157,0,1,,,,,0,,,76,0
247537,note_on,,,,,155,0,2,,,,,0,,,33,0
247537,note_on,,,,,0,0,1,,,,,0,,,88,0
247620,note_on,,,,,83,0,2,,,,,0,,,51,75
247620,note_on,,,,,0,0,2,,,,,0,,,54,75
247681,note_on,,,,,0,0,2,,,,,0,,,54,0
247681,note_on,,,,,61,0,2,,,,,0,,,51,0
247682,note_on,,,,,1,0,2,,,,,0,,,52,75
247682,note_on,,,,,0,0,2,,,,,0,,,55,75
247849,note_on,,,,,0,0,2,,,,,0,,,55,0
247849,note_on,,,,,167,0,2,,,,,0,,,52,0
247860,note_on,,,,,0,0,2,,,,,0,,,63,75
247860,note_on,,,,,11,0,2,,,,,0,,,60,75
247861,control_change,,,,,1,0,2,,,64,0,0,,,,
247921,note_on,,,,,0,0,2,,,,,0,,,63,0
247921,note_on,,,,,60,0,2,,,,,0,,,60,0
247922,note_on,,,,,1,0,2,,,,,0,,,61,75
247922,note_on,,,,,0,0,2,,,,,0,,,64,75
247980,note_on,,,,,443,0,1,,,,,0,,,67,75
247980,note_on,,,,,0,0,1,,,,,0,,,79,75
248089,note_on,,,,,0,0,2,,,,,0,,,64,0
248089,note_on,,,,,167,0,2,,,,,0,,,61,0
248093,note_on,,,,,113,0,1,,,,,0,,,67,0
248093,note_on,,,,,0,0,1,,,,,0,,,79,0
248100,note_on,,,,,0,0,1,,,,,0,,,77,75
248100,note_on,,,,,7,0,1,,,,,0,,,65,75
248100,note_on,,,,,0,0,2,,,,,0,,,50,75
248100,note_on,,,,,11,0,2,,,,,0,,,38,75
248100,note_on,,,,,0,0,1,,,,,0,,,69,75
248102,control_change,,,,,2,0,2,,,64,127,0,,,,
248257,note_on,,,,,157,0,1,,,,,0,,,65,0
248257,note_on,,,,,0,0,2,,,,,0,,,50,0
248257,note_on,,,,,0,0,1,,,,,0,,,77,0
248257,note_on,,,,,0,0,1,,,,,0,,,69,0
248257,note_on,,,,,155,0,2,,,,,0,,,38,0
248340,note_on,,,,,83,0,2,,,,,0,,,52,75
248340,note_on,,,,,0,0,2,,,,,0,,,56,75
248401,note_on,,,,,0,0,2,,,,,0,,,56,0
248401,note_on,,,,,61,0,2,,,,,0,,,52,0
248402,note_on,,,,,1,0,2,,,,,0,,,53,75
248402,note_on,,,,,0,0,2,,,,,0,,,57,75
248569,note_on,,,,,167,0,2,,,,,0,,,53,0
248569,note_on,,,,,0,0,2,,,,,0,,,57,0
248580,note_on,,,,,0,0,2,,,,,0,,,64,75
248580,note_on,,,,,11,0,2,,,,,0,,,61,75
248581,control_change,,,,,1,0,2,,,64,0,0,,,,
248641,note_on,,,,,60,0,2,,,,,0,,,61,0
248641,note_on,,,,,0,0,2,,,,,0,,,64,0
248642,note_on,,,,,0,0,2,,,,,0,,,65,75
248642,note_on,,,,,1,0,2,,,,,0,,,62,75
248700,note_on,,,,,0,0,1,,,,,0,,,81,75
248700,note_on,,,,,443,0,1,,,,,0,,,69,75
248809,note_on,,,,,167,0,2,,,,,0,,,62,0
248809,note_on,,,,,0,0,2,,,,,0,,,65,0
248813,note_on,,,,,0,0,1,,,,,0,,,81,0
248813,note_on,,,,,113,0,1,,,,,0,,,69,0
248820,note_on,,,,,0,0,2,,,,,0,,,45,75
248820,note_on,,,,,7,0,1,,,,,0,,,62,75
248820,note_on,,,,,11,0,2,,,,,0,,,38,75
248820,note_on,,,,,0,0,2,,,,,0,,,50,75
248820,note_on,,,,,0,0,1,,,,,0,,,74,75
248820,note_on,,,,,0,0,1,,,,,0,,,65,75
248822,control_change,,,,,2,0,2,,,64,127,0,,,,
248977,note_on,,,,,0,0,2,,,,,0,,,45,0
248977,note_on,,,,,155,0,2,,,,,0,,,38,0
248977,note_on,,,,,157,0,1,,,,,0,,,62,0
248977,note_on,,,,,0,0,2,,,,,0,,,50,0
248977,note_on,,,,,0,0,1,,,,,0,,,74,0
248977,note_on,,,,,0,0,1,,,,,0,,,65,0
249060,note_on,,,,,0,0,2,,,,,0,,,56,75
249060,note_on,,,,,83,0,2,,,,,0,,,52,75
249121,note_on,,,,,61,0,2,,,,,0,,,52,0
249121,note_on,,,,,0,0,2,,,,,0,,,56,0
249122,note_on,,,,,0,0,2,,,,,0,,,57,75
249122,note_on,,,,,1,0,2,,,,,0,,,53,75
249289,note_on,,,,,0,0,2,,,,,0,,,57,0
249289,note_on,,,,,167,0,2,,,,,0,,,53,0
249300,note_on,,,,,0,0,2,,,,,0,,,64,75
249300,note_on,,,,,11,0,2,,,,,0,,,61,75
249301,control_change,,,,,1,0,2,,,64,0,0,,,,
249361,note_on,,,,,60,0,2,,,,,0,,,61,0
249361,note_on,,,,,0,0,2,,,,,0,,,64,0
249362,note_on,,,,,0,0,2,,,,,0,,,65,75
249362,note_on,,,,,1,0,2,,,,,0,,,62,75
249529,note_on,,,,,167,0,2,,,,,0,,,62,0
249529,note_on,,,,,0,0,2,,,,,0,,,65,0
249540,note_on,,,,,0,0,2,,,,,0,,,48,75
249540,note_on,,,,,563,0,1,,,,,0,,,72,75
249540,note_on,,,,,0,0,1,,,,,0,,,84,75
249540,note_on,,,,,0,0,1,,,,,0,,,76,75
249540,note_on,,,,,11,0,2,,,,,0,,,36,75
249542,control_change,,,,,2,0,2,,,64,127,0,,,,
249697,note_on,,,,,0,0,1,,,,,0,,,76,0
249697,note_on,,,,,157,0,1,,,,,0,,,72,0
249697,note_on,,,,,0,0,2,,,,,0,,,48,0
249697,note_on,,,,,0,0,1,,,,,0,,,84,0
249697,note_on,,,,,155,0,2,,,,,0,,,36,0
249780,note_on,,,,,0,0,2,,,,,0,,,54,75
249780,note_on,,,,,83,0,2,,,,,0,,,51,75
249841,note_on,,,,,0,0,2,,,,,0,,,54,0
249841,note_on,,,,,61,0,2,,,,,0,,,51,0
249842,note_on,,,,,1,0,2,,,,,0,,,52,75
249842,note_on,,,,,0,0,2,,,,,0,,,55,75
250009,note_on,,,,,167,0,2,,,,,0,,,52,0
250009,note_on,,,,,0,0,2,,,,,0,,,55,0
250020,note_on,,,,,11,0,2,,,,,0,,,59,75
250020,note_on,,,,,0,0,2,,,,,0,,,63,75
250021,control_change,,,,,1,0,2,,,64,0,0,,,,
250081,note_on,,,,,60,0,2,,,,,0,,,59,0
250081,note_on,,,,,0,0,2,,,,,0,,,63,0
250082,note_on,,,,,0,0,2,,,,,0,,,64,75
250082,note_on,,,,,1,0,2,,,,,0,,,60,75
250249,note_on,,,,,167,0,2,,,,,0,,,60,0
250249,note_on,,,,,0,0,2,,,,,0,,,64,0
250260,note_on,,,,,0,0,1,,,,,0,,,79,75
250260,note_on,,,,,563,0,1,,,,,0,,,72,75
250260,note_on,,,,,0,0,1,,,,,0,,,84,75
250260,note_on,,,,,0,0,2,,,,,0,,,52,75
250260,note_on,,,,,11,0,2,,,,,0,,,40,75
250262,control_change,,,,,2,0,2,,,64,127,0,,,,
250417,note_on,,,,,0,0,2,,,,,0,,,52,0
250417,note_on,,,,,0,0,1,,,,,0,,,79,0
250417,note_on,,,,,0,0,1,,,,,0,,,84,0
250417,note_on,,,,,155,0,2,,,,,0,,,40,0
250417,note_on,,,,,157,0,1,,,,,0,,,72,0
250500,note_on,,,,,0,0,2,,,,,0,,,59,75
250500,note_on,,,,,83,0,2,,,,,0,,,54,75
250561,note_on,,,,,0,0,2,,,,,0,,,59,0
250561,note_on,,,,,61,0,2,,,,,0,,,54,0
250562,note_on,,,,,0,0,2,,,,,0,,,60,75
250562,note_on,,,,,1,0,2,,,,,0,,,55,75
250729,note_on,,,,,0,0,2,,,,,0,,,60,0
250729,note_on,,,,,167,0,2,,,,,0,,,55,0
250740,note_on,,,,,11,0,2,,,,,0,,,63,75
250740,note_on,,,,,0,0,2,,,,,0,,,66,75
250741,control_change,,,,,1,0,2,,,64,0,0,,,,
250801,note_on,,,,,60,0,2,,,,,0,,,63,0
250801,note_on,,,,,0,0,2,,,,,0,,,66,0
250802,note_on,,,,,1,0,2,,,,,0,,,64,75
250802,note_on,,,,,0,0,2,,,,,0,,,67,75
250860,note_on,,,,,443,0,1,,,,,0,,,70,75
250860,note_on,,,,,0,0,1,,,,,0,,,82,75
250969,note_on,,,,,0,0,2,,,,,0,,,67,0
250969,note_on,,,,,167,0,2,,,,,0,,,64,0
250973,note_on,,,,,0,0,1,,,,,0,,,82,0
250973,note_on,,,,,113,0,1,,,,,0,,,70,0
250980,note_on,,,,,0,0,2,,,,,0,,,53,75
250980,note_on,,,,,0,0,1,,,,,0,,,79,75
250980,note_on,,,,,0,0,1,,,,,0,,,81,75
250980,note_on,,,,,0,0,2,,,,,0,,,48,75
250980,note_on,,,,,11,0,2,,,,,0,,,41,75
250980,note_on,,,,,7,0,1,,,,,0,,,69,75
250982,control_change,,,,,2,0,2,,,64,127,0,,,,
251137,note_on,,,,,0,0,2,,,,,0,,,48,0
251137,note_on,,,,,157,0,1,,,,,0,,,69,0
251137,note_on,,,,,0,0,1,,,,,0,,,81,0
251137,note_on,,,,,155,0,2,,,,,0,,,41,0
251137,note_on,,,,,0,0,1,,,,,0,,,79,0
251137,note_on,,,,,0,0,2,,,,,0,,,53,0
251220,note_on,,,,,0,0,2,,,,,0,,,59,75
251220,note_on,,,,,83,0,2,,,,,0,,,56,75
251281,note_on,,,,,61,0,2,,,,,0,,,56,0
251281,note_on,,,,,0,0,2,,,,,0,,,59,0
251282,note_on,,,,,0,0,2,,,,,0,,,60,75
251282,note_on,,,,,1,0,2,,,,,0,,,57,75
251449,note_on,,,,,167,0,2,,,,,0,,,57,0
251449,note_on,,,,,0,0,2,,,,,0,,,60,0
251460,note_on,,,,,11,0,2,,,,,0,,,64,75
251460,note_on,,,,,0,0,2,,,,,0,,,68,75
251461,control_change,,,,,1,0,2,,,64,0,0,,,,
251521,note_on,,,,,0,0,2,,,,,0,,,68,0
251521,note_on,,,,,60,0,2,,,,,0,,,64,0
251522,note_on,,,,,0,0,2,,,,,0,,,69,75
251522,note_on,,,,,1,0,2,,,,,0,,,65,75
251580,note_on,,,,,0,0,1,,,,,0,,,84,75
251580,note_on,,,,,443,0,1,,,,,0,,,72,75
251689,note_on,,,,,167,0,2,,,,,0,,,65,0
251689,note_on,,,,,0,0,2,,,,,0,,,69,0
251693,note_on,,,,,0,0,1,,,,,0,,,84,0
251693,note_on,,,,,113,0,1,,,,,0,,,72,0
251700,note_on,,,,,11,0,2,,,,,0,,,41,75
251700,note_on,,,,,7,0,1,,,,,0,,,65,75
251700,note_on,,,,,0,0,2,,,,,0,,,53,75
251700,note_on,,,,,0,0,1,,,,,0,,,77,75
251700,note_on,,,,,0,0,1,,,,,0,,,69,75
251702,control_change,,,,,2,0,2,,,64,127,0,,,,
251857,note_on,,,,,155,0,2,,,,,0,,,41,0
251857,note_on,,,,,0,0,1,,,,,0,,,77,0
251857,note_on,,,,,0,0,1,,,,,0,,,69,0
251857,note_on,,,,,157,0,1,,,,,0,,,65,0
251857,note_on,,,,,0,0,2,,,,,0,,,53,0
251940,note_on,,,,,0,0,2,,,,,0,,,59,75
251940,note_on,,,,,83,0,2,,,,,0,,,56,75
252001,note_on,,,,,61,0,2,,,,,0,,,56,0
252001,note_on,,,,,0,0,2,,,,,0,,,59,0
252002,note_on,,,,,1,0,2,,,,,0,,,57,75
252002,note_on,,,,,0,0,2,,,,,0,,,60,75
252169,note_on,,,,,0,0,2,,,,,0,,,60,0
252169,note_on,,,,,167,0,2,,,,,0,,,57,0
252180,note_on,,,,,0,0,2,,,,,0,,,68,75
252180,note_on,,,,,11,0,2,,,,,0,,,64,75
252181,control_change,,,,,1,0,2,,,64,0,0,,,,
252241,note_on,,,,,0,0,2,,,,,0,,,68,0
252241,note_on,,,,,60,0,2,,,,,0,,,64,0
252242,note_on,,,,,0,0,2,,,,,0,,,69,75
252242,note_on,,,,,1,0,2,,,,,0,,,65,75
252409,note_on,,,,,167,0,2,,,,,0,,,65,0
252409,note_on,,,,,0,0,2,,,,,0,,,69,0
252420,note_on,,,,,0,0,2,,,,,0,,,52,75
252420,note_on,,,,,11,0,2,,,,,0,,,40,75
252420,note_on,,,,,0,0,1,,,,,0,,,88,75
252420,note_on,,,,,563,0,1,,,,,0,,,76,75
252420,note_on,,,,,0,0,1,,,,,0,,,80,75
252422,control_change,,,,,2,0,2,,,64,127,0,,,,
252577,note_on,,,,,155,0,2,,,,,0,,,40,0
252577,note_on,,,,,0,0,1,,,,,0,,,80,0
252577,note_on,,,,,157,0,1,,,,,0,,,76,0
252577,note_on,,,,,0,0,1,,,,,0,,,88,0
252577,note_on,,,,,0,0,2,,,,,0,,,52,0
252660,note_on,,,,,83,0,2,,,,,0,,,55,75
252660,note_on,,,,,0,0,2,,,,,0,,,58,75
252721,note_on,,,,,61,0,2,,,,,0,,,55,0
252721,note_on,,,,,0,0,2,,,,,0,,,58,0
252722,note_on,,,,,1,0,2,,,,,0,,,56,75
252722,note_on,,,,,0,0,2,,,,,0,,,59,75
252889,note_on,,,,,167,0,2,,,,,0,,,56,0
252889,note_on,,,,,0,0,2,,,,,0,,,59,0
252900,note_on,,,,,11,0,2,,,,,0,,,63,75
252900,note_on,,,,,0,0,2,,,,,0,,,67,75
252901,control_change,,,,,1,0,2,,,64,0,0,,,,
252961,note_on,,,,,60,0,2,,,,,0,,,63,0
252961,note_on,,,,,0,0,2,,,,,0,,,67,0
252962,note_on,,,,,0,0,2,,,,,0,,,68,75
252962,note_on,,,,,1,0,2,,,,,0,,,64,75
253129,note_on,,,,,167,0,2,,,,,0,,,64,0
253129,note_on,,,,,0,0,2,,,,,0,,,68,0
253140,note_on,,,,,563,0,1,,,,,0,,,76,75
253140,note_on,,,,,0,0,1,,,,,0,,,83,75
253140,note_on,,,,,0,0,1,,,,,0,,,88,75
253140,note_on,,,,,0,0,2,,,,,0,,,56,75
253140,note_on,,,,,11,0,2,,,,,0,,,44,75
253142,control_change,,,,,2,0,2,,,64,127,0,,,,
253297,note_on,,,,,155,0,2,,,,,0,,,44,0
253297,note_on,,,,,157,0,1,,,,,0,,,76,0
253297,note_on,,,,,0,0,1,,,,,0,,,83,0
253297,note_on,,,,,0,0,1,,,,,0,,,88,0
253297,note_on,,,,,0,0,2,,,,,0,,,56,0
253380,note_on,,,,,83,0,2,,,,,0,,,58,75
253380,note_on,,,,,0,0,2,,,,,0,,,63,75
253441,note_on,,,,,61,0,2,,,,,0,,,58,0
253441,note_on,,,,,0,0,2,,,,,0,,,63,0
253442,note_on,,,,,0,0,2,,,,,0,,,64,75
253442,note_on,,,,,1,0,2,,,,,0,,,59,75
253609,note_on,,,,,0,0,2,,,,,0,,,64,0
253609,note_on,,,,,167,0,2,,,,,0,,,59,0
253620,note_on,,,,,0,0,2,,,,,0,,,70,75
253620,note_on,,,,,11,0,2,,,,,0,,,67,75
253621,control_change,,,,,1,0,2,,,64,0,0,,,,
253681,note_on,,,,,60,0,2,,,,,0,,,67,0
253681,note_on,,,,,0,0,2,,,,,0,,,70,0
253682,note_on,,,,,0,0,2,,,,,0,,,71,75
253682,note_on,,,,,1,0,2,,,,,0,,,68,75
253740,note_on,,,,,443,0,1,,,,,0,,,74,75
253740,note_on,,,,,0,0,1,,,,,0,,,86,75
253849,note_on,,,,,167,0,2,,,,,0,,,68,0
253849,note_on,,,,,0,0,2,,,,,0,,,71,0
253853,note_on,,,,,0,0,1,,,,,0,,,86,0
253853,note_on,,,,,113,0,1,,,,,0,,,74,0
253860,note_on,,,,,7,0,1,,,,,0,,,73,75
253860,note_on,,,,,0,0,1,,,,,0,,,85,75
253860,note_on,,,,,0,0,1,,,,,0,,,81,75
253860,note_on,,,,,11,0,2,,,,,0,,,45,75
253860,note_on,,,,,0,0,2,,,,,0,,,57,75
253860,note_on,,,,,0,0,2,,,,,0,,,52,75
253862,control_change,,,,,2,0,2,,,64,127,0,,,,
254017,note_on,,,,,0,0,2,,,,,0,,,57,0
254017,note_on,,,,,155,0,2,,,,,0,,,45,0
254017,note_on,,,,,0,0,2,,,,,0,,,52,0
254017,note_on,,,,,0,0,1,,,,,0,,,81,0
254017,note_on,,,,,157,0,1,,,,,0,,,73,0
254017,note_on,,,,,0,0,1,,,,,0,,,85,0
254100,note_on,,,,,83,0,2,,,,,0,,,60,75
254100,note_on,,,,,0,0,2,,,,,0,,,63,75
254161,note_on,,,,,0,0,2,,,,,0,,,63,0
254161,note_on,,,,,61,0,2,,,,,0,,,60,0
254162,note_on,,,,,1,0,2,,,,,0,,,61,75
254162,note_on,,,,,0,0,2,,,,,0,,,64,75
254329,note_on,,,,,167,0,2,,,,,0,,,61,0
254329,note_on,,,,,0,0,2,,,,,0,,,64,0
254340,note_on,,,,,11,0,2,,,,,0,,,68,75
254340,note_on,,,,,0,0,2,,,,,0,,,72,75
254341,control_change,,,,,1,0,2,,,64,0,0,,,,
254401,note_on,,,,,60,0,2,,,,,0,,,68,0
254401,note_on,,,,,0,0,2,,,,,0,,,72,0
254402,note_on,,,,,1,0,2,,,,,0,,,69,75
254402,note_on,,,,,0,0,2,,,,,0,,,73,75
254460,note_on,,,,,0,0,1,,,,,0,,,88,75
254460,note_on,,,,,443,0,1,,,,,0,,,76,75
254569,note_on,,,,,0,0,2,,,,,0,,,73,0
254569,note_on,,,,,167,0,2,,,,,0,,,69,0
254573,note_on,,,,,113,0,1,,,,,0,,,76,0
254573,note_on,,,,,0,0,1,,,,,0,,,88,0
254580,note_on,,,,,7,0,1,,,,,0,,,69,75
254580,note_on,,,,,0,0,2,,,,,0,,,57,75
254580,note_on,,,,,0,0,2,,,,,0,,,52,75
254580,note_on,,,,,0,0,1,,,,,0,,,73,75
254580,note_on,,,,,0,0,1,,,,,0,,,81,75
254580,note_on,,,,,11,0,2,,,,,0,,,45,75
254582,control_change,,,,,2,0,2,,,64,127,0,,,,
254737,note_on,,,,,0,0,1,,,,,0,,,73,0
254737,note_on,,,,,0,0,1,,,,,0,,,81,0
254737,note_on,,,,,157,0,1,,,,,0,,,69,0
254820,note_on,,,,,238,0,2,,,,,0,,,60,75
254820,note_on,,,,,0,0,2,,,,,0,,,63,75
254881,note_on,,,,,61,0,2,,,,,0,,,60,0
254881,note_on,,,,,0,0,2,,,,,0,,,63,0
254882,note_on,,,,,1,0,2,,,,,0,,,61,75
254882,note_on,,,,,0,0,2,,,,,0,,,64,75
255035,note_on,,,,,153,0,2,,,,,0,,,45,0
255035,note_on,,,,,0,0,2,,,,,0,,,57,0
255035,note_on,,,,,0,0,2,,,,,0,,,52,0
255049,note_on,,,,,14,0,2,,,,,0,,,61,0
255049,note_on,,,,,0,0,2,,,,,0,,,64,0
255060,note_on,,,,,0,0,2,,,,,0,,,72,75
255060,note_on,,,,,11,0,2,,,,,0,,,68,75
255061,control_change,,,,,1,0,2,,,64,0,0,,,,
255121,note_on,,,,,60,0,2,,,,,0,,,68,0
255121,note_on,,,,,0,0,2,,,,,0,,,72,0
255122,note_on,,,,,1,0,2,,,,,0,,,69,75
255122,note_on,,,,,0,0,2,,,,,0,,,73,75
255180,note_on,,,,,0,0,2,,,,,0,,,57,75
255180,note_on,,,,,443,0,1,,,,,0,,,69,75
255180,note_on,,,,,58,0,2,,,,,0,,,69,0
255180,note_on,,,,,0,0,1,,,,,0,,,81,75
255180,note_on,,,,,0,0,2,,,,,0,,,45,75
255289,note_on,,,,,109,0,2,,,,,0,,,73,0
255293,note_on,,,,,113,0,1,,,,,0,,,69,0
255293,note_on,,,,,0,0,2,,,,,0,,,57,0
255293,note_on,,,,,0,0,1,,,,,0,,,81,0
255293,note_on,,,,,4,0,2,,,,,0,,,45,0
255300,note_on,,,,,7,0,2,,,,,0,,,46,75
255300,note_on,,,,,7,0,1,,,,,0,,,79,90
255300,note_on,,,,,0,0,1,,,,,0,,,85,90
255300,note_on,,,,,0,0,2,,,,,0,,,58,75
255300,note_on,,,,,0,0,1,,,,,0,,,91,90
255300,note_on,,,,,0,0,2,,,,,0,,,52,75
255302,control_change,,,,,2,0,2,,,64,127,0,,,,
255457,note_on,,,,,155,0,2,,,,,0,,,46,0
255457,note_on,,,,,0,0,2,,,,,0,,,52,0
255457,note_on,,,,,0,0,2,,,,,0,,,58,0
255540,note_on,,,,,0,0,2,,,,,0,,,66,75
255540,note_on,,,,,83,0,2,,,,,0,,,63,75
255601,note_on,,,,,61,0,2,,,,,0,,,63,0
255601,note_on,,,,,0,0,2,,,,,0,,,66,0
255602,note_on,,,,,1,0,2,,,,,0,,,64,75
255602,note_on,,,,,0,0,2,,,,,0,,,67,75
255769,note_on,,,,,0,0,2,,,,,0,,,67,0
255769,note_on,,,,,167,0,2,,,,,0,,,64,0
255779,note_on,,,,,0,0,1,,,,,0,,,85,0
255779,note_on,,,,,0,0,1,,,,,0,,,91,0
255779,note_on,,,,,479,0,1,,,,,0,,,79,0
255780,note_on,,,,,0,0,2,,,,,0,,,75,75
255780,note_on,,,,,11,0,2,,,,,0,,,72,75
255781,control_change,,,,,1,0,2,,,64,0,0,,,,
255841,note_on,,,,,60,0,2,,,,,0,,,72,0
255841,note_on,,,,,0,0,2,,,,,0,,,75,0
255842,note_on,,,,,1,0,2,,,,,0,,,73,75
255842,note_on,,,,,0,0,2,,,,,0,,,76,75
256009,note_on,,,,,0,0,2,,,,,0,,,76,0
256009,note_on,,,,,167,0,2,,,,,0,,,73,0
256020,note_on,,,,,11,0,2,,,,,0,,,45,75
256020,note_on,,,,,241,0,1,,,,,0,,,69,75
256020,note_on,,,,,0,0,2,,,,,0,,,57,75
256020,note_on,,,,,0,0,1,,,,,0,,,81,75
256022,control_change,,,,,2,0,2,,,64,127,0,,,,
256177,note_on,,,,,0,0,1,,,,,0,,,81,0
256177,note_on,,,,,155,0,2,,,,,0,,,45,0
256177,note_on,,,,,0,0,2,,,,,0,,,57,0
256177,note_on,,,,,157,0,1,,,,,0,,,69,0
256260,note_on,,,,,0,0,2,,,,,0,,,66,75
256260,note_on,,,,,83,0,2,,,,,0,,,63,75
256321,note_on,,,,,61,0,2,,,,,0,,,63,0
256321,note_on,,,,,0,0,2,,,,,0,,,66,0
256322,note_on,,,,,1,0,2,,,,,0,,,64,75
256322,note_on,,,,,0,0,2,,,,,0,,,67,75
256489,note_on,,,,,167,0,2,,,,,0,,,64,0
256489,note_on,,,,,0,0,2,,,,,0,,,67,0
256500,note_on,,,,,11,0,2,,,,,0,,,72,75
256500,note_on,,,,,0,0,2,,,,,0,,,75,75
256501,control_change,,,,,1,0,2,,,64,0,0,,,,
256561,note_on,,,,,0,0,2,,,,,0,,,75,0
256561,note_on,,,,,60,0,2,,,,,0,,,72,0
256562,note_on,,,,,1,0,2,,,,,0,,,73,75
256562,note_on,,,,,0,0,2,,,,,0,,,76,75
256620,note_on,,,,,443,0,1,,,,,0,,,69,75
256620,note_on,,,,,0,0,2,,,,,0,,,57,75
256620,note_on,,,,,0,0,1,,,,,0,,,81,75
256620,note_on,,,,,58,0,2,,,,,0,,,45,75
256729,note_on,,,,,109,0,2,,,,,0,,,73,0
256729,note_on,,,,,0,0,2,,,,,0,,,76,0
256733,note_on,,,,,0,0,1,,,,,0,,,81,0
256733,note_on,,,,,4,0,2,,,,,0,,,45,0
256733,note_on,,,,,113,0,1,,,,,0,,,69,0
256733,note_on,,,,,0,0,2,,,,,0,,,57,0
256740,note_on,,,,,0,0,1,,,,,0,,,90,90
256740,note_on,,,,,0,0,2,,,,,0,,,51,75
256740,note_on,,,,,0,0,1,,,,,0,,,84,90
256740,note_on,,,,,0,0,2,,,,,0,,,58,75
256740,note_on,,,,,7,0,2,,,,,0,,,46,75
256740,note_on,,,,,7,0,1,,,,,0,,,78,90
256742,control_change,,,,,2,0,2,,,64,127,0,,,,
256897,note_on,,,,,155,0,2,,,,,0,,,46,0
256897,note_on,,,,,0,0,2,,,,,0,,,58,0
256897,note_on,,,,,0,0,2,,,,,0,,,51,0
256980,note_on,,,,,0,0,2,,,,,0,,,65,75
256980,note_on,,,,,83,0,2,,,,,0,,,62,75
257041,note_on,,,,,0,0,2,,,,,0,,,65,0
257041,note_on,,,,,61,0,2,,,,,0,,,62,0
257042,note_on,,,,,0,0,2,,,,,0,,,66,75
257042,note_on,,,,,1,0,2,,,,,0,,,63,75
257209,note_on,,,,,167,0,2,,,,,0,,,63,0
257209,note_on,,,,,0,0,2,,,,,0,,,66,0
257219,note_on,,,,,0,0,1,,,,,0,,,84,0
257219,note_on,,,,,479,0,1,,,,,0,,,78,0
257219,note_on,,,,,0,0,1,,,,,0,,,90,0
257220,note_on,,,,,11,0,2,,,,,0,,,71,75
257220,note_on,,,,,0,0,2,,,,,0,,,74,75
257221,control_change,,,,,1,0,2,,,64,0,0,,,,
257281,note_on,,,,,0,0,2,,,,,0,,,74,0
257281,note_on,,,,,60,0,2,,,,,0,,,71,0
257282,note_on,,,,,1,0,2,,,,,0,,,72,75
257282,note_on,,,,,0,0,2,,,,,0,,,75,75
257449,note_on,,,,,167,0,2,,,,,0,,,72,0
257449,note_on,,,,,0,0,2,,,,,0,,,75,0
257460,note_on,,,,,0,0,1,,,,,0,,,81,75
257460,note_on,,,,,0,0,2,,,,,0,,,57,75
257460,note_on,,,,,11,0,2,,,,,0,,,45,75
257460,note_on,,,,,241,0,1,,,,,0,,,69,75
257462,control_change,,,,,2,0,2,,,64,127,0,,,,
257617,note_on,,,,,0,0,2,,,,,0,,,57,0
257617,note_on,,,,,157,0,1,,,,,0,,,69,0
257617,note_on,,,,,155,0,2,,,,,0,,,45,0
257617,note_on,,,,,0,0,1,,,,,0,,,81,0
257700,note_on,,,,,0,0,2,,,,,0,,,65,75
257700,note_on,,,,,83,0,2,,,,,0,,,62,75
257761,note_on,,,,,0,0,2,,,,,0,,,65,0
257761,note_on,,,,,61,0,2,,,,,0,,,62,0
257762,note_on,,,,,1,0,2,,,,,0,,,63,75
257762,note_on,,,,,0,0,2,,,,,0,,,66,75
257929,note_on,,,,,0,0,2,,,,,0,,,66,0
257929,note_on,,,,,167,0,2,,,,,0,,,63,0
257940,note_on,,,,,0,0,2,,,,,0,,,74,75
257940,note_on,,,,,11,0,2,,,,,0,,,71,75
257941,control_change,,,,,1,0,2,,,64,0,0,,,,
258001,note_on,,,,,0,0,2,,,,,0,,,74,0
258001,note_on,,,,,60,0,2,,,,,0,,,71,0
258002,note_on,,,,,0,0,2,,,,,0,,,75,75
258002,note_on,,,,,1,0,2,,,,,0,,,72,75
258060,note_on,,,,,0,0,1,,,,,0,,,81,75
258060,note_on,,,,,443,0,1,,,,,0,,,69,75
258060,note_on,,,,,0,0,2,,,,,0,,,57,75
258060,note_on,,,,,58,0,2,,,,,0,,,45,75
258169,note_on,,,,,109,0,2,,,,,0,,,72,0
258169,note_on,,,,,0,0,2,,,,,0,,,75,0
258173,note_on,,,,,113,0,1,,,,,0,,,69,0
258173,note_on,,,,,0,0,2,,,,,0,,,57,0
258173,note_on,,,,,0,0,1,,,,,0,,,81,0
258173,note_on,,,,,4,0,2,,,,,0,,,45,0
258180,note_on,,,,,0,0,2,,,,,0,,,59,75
258180,note_on,,,,,0,0,2,,,,,0,,,52,75
258180,note_on,,,,,0,0,1,,,,,0,,,89,75
258180,note_on,,,,,7,0,1,,,,,0,,,77,75
258180,note_on,,,,,0,0,1,,,,,0,,,80,75
258180,note_on,,,,,7,0,2,,,,,0,,,47,75
258182,control_change,,,,,2,0,2,,,64,127,0,,,,
258337,note_on,,,,,0,0,1,,,,,0,,,89,0
258337,note_on,,,,,0,0,2,,,,,0,,,59,0
258337,note_on,,,,,155,0,2,,,,,0,,,47,0
258337,note_on,,,,,0,0,1,,,,,0,,,80,0
258337,note_on,,,,,157,0,1,,,,,0,,,77,0
258337,note_on,,,,,0,0,2,,,,,0,,,52,0
258420,note_on,,,,,83,0,2,,,,,0,,,61,75
258420,note_on,,,,,0,0,2,,,,,0,,,64,75
258481,note_on,,,,,0,0,2,,,,,0,,,64,0
258481,note_on,,,,,61,0,2,,,,,0,,,61,0
258482,note_on,,,,,1,0,2,,,,,0,,,62,75
258482,note_on,,,,,0,0,2,,,,,0,,,65,75
258649,note_on,,,,,0,0,2,,,,,0,,,65,0
258649,note_on,,,,,167,0,2,,,,,0,,,62,0
258660,note_on,,,,,11,0,2,,,,,0,,,67,75
258660,note_on,,,,,0,0,2,,,,,0,,,70,75
258661,control_change,,,,,1,0,2,,,64,0,0,,,,
258721,note_on,,,,,0,0,2,,,,,0,,,70,0
258721,note_on,,,,,60,0,2,,,,,0,,,67,0
258722,note_on,,,,,0,0,2,,,,,0,,,71,75
258722,note_on,,,,,1,0,2,,,,,0,,,68,75
258780,note_on,,,,,443,0,1,,,,,0,,,77,75
258780,note_on,,,,,0,0,1,,,,,0,,,89,75
258889,note_on,,,,,167,0,2,,,,,0,,,68,0
258889,note_on,,,,,0,0,2,,,,,0,,,71,0
258893,note_on,,,,,0,0,1,,,,,0,,,89,0
258893,note_on,,,,,113,0,1,,,,,0,,,77,0
258900,note_on,,,,,0,0,2,,,,,0,,,52,75
258900,note_on,,,,,0,0,1,,,,,0,,,80,75
258900,note_on,,,,,11,0,2,,,,,0,,,40,75
258900,note_on,,,,,7,0,1,,,,,0,,,76,75
258900,note_on,,,,,0,0,2,,,,,0,,,47,75
258900,note_on,,,,,0,0,1,,,,,0,,,88,75
258902,control_change,,,,,2,0,2,,,64,127,0,,,,
259057,note_on,,,,,155,0,2,,,,,0,,,40,0
259057,note_on,,,,,0,0,1,,,,,0,,,80,0
259057,note_on,,,,,0,0,2,,,,,0,,,47,0
259057,note_on,,,,,0,0,2,,,,,0,,,52,0
259057,note_on,,,,,157,0,1,,,,,0,,,76,0
259057,note_on,,,,,0,0,1,,,,,0,,,88,0
259140,note_on,,,,,0,0,2,,,,,0,,,58,75
259140,note_on,,,,,83,0,2,,,,,0,,,55,75
259201,note_on,,,,,0,0,2,,,,,0,,,58,0
259201,note_on,,,,,61,0,2,,,,,0,,,55,0
259202,note_on,,,,,0,0,2,,,,,0,,,59,75
259202,note_on,,,,,1,0,2,,,,,0,,,56,75
259369,note_on,,,,,167,0,2,,,,,0,,,56,0
259369,note_on,,,,,0,0,2,,,,,0,,,59,0
259380,note_on,,,,,0,0,2,,,,,0,,,67,75
259380,note_on,,,,,11,0,2,,,,,0,,,63,75
259381,control_change,,,,,1,0,2,,,64,0,0,,,,
259441,note_on,,,,,60,0,2,,,,,0,,,63,0
259441,note_on,,,,,0,0,2,,,,,0,,,67,0
259442,note_on,,,,,0,0,2,,,,,0,,,68,75
259442,note_on,,,,,1,0,2,,,,,0,,,64,75
259500,note_on,,,,,443,0,1,,,,,0,,,74,75
259500,note_on,,,,,0,0,1,,,,,0,,,86,75
259609,note_on,,,,,167,0,2,,,,,0,,,64,0
259609,note_on,,,,,0,0,2,,,,,0,,,68,0
259613,note_on,,,,,0,0,1,,,,,0,,,86,0
259613,note_on,,,,,113,0,1,,,,,0,,,74,0
259620,note_on,,,,,7,0,1,,,,,0,,,73,75
259620,note_on,,,,,0,0,1,,,,,0,,,81,75
259620,note_on,,,,,0,0,1,,,,,0,,,85,75
259620,note_on,,,,,11,0,2,,,,,0,,,45,75
259620,note_on,,,,,0,0,2,,,,,0,,,52,75
259620,note_on,,,,,0,0,2,,,,,0,,,57,75
259622,control_change,,,,,2,0,2,,,64,127,0,,,,
259777,note_on,,,,,157,0,1,,,,,0,,,73,0
259777,note_on,,,,,0,0,2,,,,,0,,,57,0
259777,note_on,,,,,0,0,1,,,,,0,,,85,0
259777,note_on,,,,,0,0,1,,,,,0,,,81,0
259777,note_on,,,,,0,0,2,,,,,0,,,52,0
259777,note_on,,,,,155,0,2,,,,,0,,,45,0
259860,note_on,,,,,0,0,2,,,,,0,,,63,75
259860,note_on,,,,,83,0,2,,,,,0,,,60,75
259921,note_on,,,,,0,0,2,,,,,0,,,63,0
259921,note_on,,,,,61,0,2,,,,,0,,,60,0
259922,note_on,,,,,1,0,2,,,,,0,,,61,75
259922,note_on,,,,,0,0,2,,,,,0,,,64,75
260089,note_on,,,,,167,0,2,,,,,0,,,61,0
260089,note_on,,,,,0,0,2,,,,,0,,,64,0
260100,note_on,,,,,0,0,2,,,,,0,,,72,75
260100,note_on,,,,,11,0,2,,,,,0,,,68,75
260101,control_change,,,,,1,0,2,,,64,0,0,,,,
260161,note_on,,,,,60,0,2,,,,,0,,,68,0
260161,note_on,,,,,0,0,2,,,,,0,,,72,0
260162,note_on,,,,,1,0,2,,,,,0,,,69,75
260162,note_on,,,,,0,0,2,,,,,0,,,73,75
260220,note_on,,,,,0,0,1,,,,,0,,,88,75
260220,note_on,,,,,443,0,1,,,,,0,,,76,75
260329,note_on,,,,,167,0,2,,,,,0,,,69,0
260329,note_on,,,,,0,0,2,,,,,0,,,73,0
260333,note_on,,,,,0,0,1,,,,,0,,,88,0
260333,note_on,,,,,113,0,1,,,,,0,,,76,0
260340,note_on,,,,,0,0,1,,,,,0,,,81,75
260340,note_on,,,,,0,0,2,,,,,0,,,57,75
260340,note_on,,,,,0,0,1,,,,,0,,,73,75
260340,note_on,,,,,11,0,2,,,,,0,,,45,75
260340,note_on,,,,,7,0,1,,,,,0,,,69,75
260340,note_on,,,,,0,0,2,,,,,0,,,52,75
260342,control_change,,,,,2,0,2,,,64,127,0,,,,
260497,note_on,,,,,157,0,1,,,,,0,,,69,0
260497,note_on,,,,,0,0,2,,,,,0,,,52,0
260497,note_on,,,,,0,0,2,,,,,0,,,57,0
260497,note_on,,,,,0,0,1,,,,,0,,,73,0
260497,note_on,,,,,155,0,2,,,,,0,,,45,0
260497,note_on,,,,,0,0,1,,,,,0,,,81,0
260580,note_on,,,,,0,0,2,,,,,0,,,63,75
260580,note_on,,,,,83,0,2,,,,,0,,,60,75
260641,note_on,,,,,0,0,2,,,,,0,,,63,0
260641,note_on,,,,,61,0,2,,,,,0,,,60,0
260642,note_on,,,,,1,0,2,,,,,0,,,61,75
260642,note_on,,,,,0,0,2,,,,,0,,,64,75
260809,note_on,,,,,167,0,2,,,,,0,,,61,0
260809,note_on,,,,,0,0,2,,,,,0,,,64,0
260820,note_on,,,,,0,0,2,,,,,0,,,72,75
260820,note_on,,,,,11,0,2,,,,,0,,,68,75
260821,control_change,,,,,1,0,2,,,64,0,0,,,,
260881,note_on,,,,,0,0,2,,,,,0,,,72,0
260881,note_on,,,,,60,0,2,,,,,0,,,68,0
260882,note_on,,,,,0,0,2,,,,,0,,,73,75
260882,note_on,,,,,1,0,2,,,,,0,,,69,75
260940,note_on,,,,,443,0,1,,,,,0,,,57,75
260940,note_on,,,,,58,0,2,,,,,0,,,69,0
260940,note_on,,,,,0,0,2,,,,,0,,,57,75
260940,note_on,,,,,0,0,2,,,,,0,,,45,75
260940,note_on,,,,,0,0,1,,,,,0,,,69,75
260940,note_on,,,,,0,0,1,,,,,0,,,57,0
261049,note_on,,,,,109,0,2,,,,,0,,,73,0
261053,note_on,,,,,113,0,1,,,,,0,,,69,0
261053,note_on,,,,,4,0,2,,,,,0,,,45,0
261053,note_on,,,,,0,0,2,,,,,0,,,57,0
261060,note_on,,,,,0,0,2,,,,,0,,,46,75
261060,note_on,,,,,7,0,2,,,,,0,,,34,75
261060,note_on,,,,,0,0,1,,,,,0,,,73,75
261060,note_on,,,,,0,0,1,,,,,0,,,79,75
261060,note_on,,,,,7,0,1,,,,,0,,,67,75
261060,note_on,,,,,0,0,2,,,,,0,,,40,75
261062,control_change,,,,,2,0,2,,,64,127,0,,,,
261217,note_on,,,,,0,0,1,,,,,0,,,79,0
261217,note_on,,,,,0,0,1,,,,,0,,,73,0
261217,note_on,,,,,155,0,2,,,,,0,,,34,0
261217,note_on,,,,,157,0,1,,,,,0,,,67,0
261217,note_on,,,,,0,0,2,,,,,0,,,46,0
261217,note_on,,,,,0,0,2,,,,,0,,,40,0
261300,note_on,,,,,83,0,2,,,,,0,,,51,75
261300,note_on,,,,,0,0,2,,,,,0,,,54,75
261361,note_on,,,,,0,0,2,,,,,0,,,54,0
261361,note_on,,,,,61,0,2,,,,,0,,,51,0
261362,note_on,,,,,0,0,2,,,,,0,,,55,75
261362,note_on,,,,,1,0,2,,,,,0,,,52,75
261529,note_on,,,,,167,0,2,,,,,0,,,52,0
261529,note_on,,,,,0,0,2,,,,,0,,,55,0
261540,note_on,,,,,11,0,2,,,,,0,,,60,75
261540,note_on,,,,,0,0,2,,,,,0,,,63,75
261541,control_change,,,,,1,0,2,,,64,0,0,,,,
261601,note_on,,,,,60,0,2,,,,,0,,,60,0
261601,note_on,,,,,0,0,2,,,,,0,,,63,0
261602,note_on,,,,,1,0,2,,,,,0,,,61,75
261602,note_on,,,,,0,0,2,,,,,0,,,64,75
261769,note_on,,,,,167,0,2,,,,,0,,,61,0
261769,note_on,,,,,0,0,2,,,,,0,,,64,0
261780,note_on,,,,,563,0,1,,,,,0,,,57,75
261780,note_on,,,,,0,0,1,,,,,0,,,69,75
261780,note_on,,,,,11,0,2,,,,,0,,,33,75
261780,note_on,,,,,0,0,2,,,,,0,,,45,75
261782,control_change,,,,,2,0,2,,,64,127,0,,,,
261937,note_on,,,,,157,0,1,,,,,0,,,57,0
261937,note_on,,,,,0,0,2,,,,,0,,,45,0
261937,note_on,,,,,155,0,2,,,,,0,,,33,0
261937,note_on,,,,,0,0,1,,,,,0,,,69,0
262020,note_on,,,,,83,0,2,,,,,0,,,51,75
262020,note_on,,,,,0,0,2,,,,,0,,,54,75
262081,note_on,,,,,61,0,2,,,,,0,,,51,0
262081,note_on,,,,,0,0,2,,,,,0,,,54,0
262082,note_on,,,,,1,0,2,,,,,0,,,52,75
262082,note_on,,,,,0,0,2,,,,,0,,,55,75
262249,note_on,,,,,0,0,2,,,,,0,,,55,0
262249,note_on,,,,,167,0,2,,,,,0,,,52,0
262260,note_on,,,,,0,0,2,,,,,0,,,63,75
262260,note_on,,,,,11,0,2,,,,,0,,,60,75
262261,control_change,,,,,1,0,2,,,64,0,0,,,,
262321,note_on,,,,,0,0,2,,,,,0,,,63,0
262321,note_on,,,,,60,0,2,,,,,0,,,60,0
262322,note_on,,,,,0,0,2,,,,,0,,,64,75
262322,note_on,,,,,1,0,2,,,,,0,,,61,75
262380,note_on,,,,,443,0,1,,,,,0,,,57,75
262380,note_on,,,,,0,0,2,,,,,0,,,45,75
262380,note_on,,,,,58,0,2,,,,,0,,,33,75
262380,note_on,,,,,0,0,1,,,,,0,,,69,75
262489,note_on,,,,,109,0,2,,,,,0,,,61,0
262489,note_on,,,,,0,0,2,,,,,0,,,64,0
262493,note_on,,,,,113,0,1,,,,,0,,,57,0
262493,note_on,,,,,0,0,1,,,,,0,,,69,0
262493,note_on,,,,,0,0,2,,,,,0,,,45,0
262493,note_on,,,,,4,0,2,,,,,0,,,33,0
262500,note_on,,,,,0,0,1,,,,,0,,,78,75
262500,note_on,,,,,0,0,2,,,,,0,,,39,75
262500,note_on,,,,,7,0,1,,,,,0,,,66,75
262500,note_on,,,,,7,0,2,,,,,0,,,34,75
262500,note_on,,,,,0,0,1,,,,,0,,,72,75
262500,note_on,,,,,0,0,2,,,,,0,,,46,75
262502,control_change,,,,,2,0,2,,,64,127,0,,,,
262657,note_on,,,,,0,0,2,,,,,0,,,39,0
262657,note_on,,,,,0,0,1,,,,,0,,,72,0
262657,note_on,,,,,0,0,2,,,,,0,,,46,0
262657,note_on,,,,,157,0,1,,,,,0,,,66,0
262657,note_on,,,,,0,0,1,,,,,0,,,78,0
262657,note_on,,,,,155,0,2,,,,,0,,,34,0
262740,note_on,,,,,83,0,2,,,,,0,,,50,75
262740,note_on,,,,,0,0,2,,,,,0,,,53,75
262801,note_on,,,,,0,0,2,,,,,0,,,53,0
262801,note_on,,,,,61,0,2,,,,,0,,,50,0
262802,note_on,,,,,0,0,2,,,,,0,,,54,75
262802,note_on,,,,,1,0,2,,,,,0,,,51,75
262969,note_on,,,,,0,0,2,,,,,0,,,54,0
262969,note_on,,,,,167,0,2,,,,,0,,,51,0
262980,note_on,,,,,0,0,2,,,,,0,,,62,75
262980,note_on,,,,,11,0,2,,,,,0,,,59,75
262981,control_change,,,,,1,0,2,,,64,0,0,,,,
263041,note_on,,,,,60,0,2,,,,,0,,,59,0
263041,note_on,,,,,0,0,2,,,,,0,,,62,0
263042,note_on,,,,,0,0,2,,,,,0,,,63,75
263042,note_on,,,,,1,0,2,,,,,0,,,60,75
263209,note_on,,,,,0,0,2,,,,,0,,,63,0
263209,note_on,,,,,167,0,2,,,,,0,,,60,0
263220,note_on,,,,,563,0,1,,,,,0,,,57,75
263220,note_on,,,,,11,0,2,,,,,0,,,33,75
263220,note_on,,,,,0,0,2,,,,,0,,,45,75
263220,note_on,,,,,0,0,1,,,,,0,,,69,75
263222,control_change,,,,,2,0,2,,,64,127,0,,,,
263377,note_on,,,,,0,0,2,,,,,0,,,45,0
263377,note_on,,,,,0,0,1,,,,,0,,,69,0
263377,note_on,,,,,157,0,1,,,,,0,,,57,0
263377,note_on,,,,,155,0,2,,,,,0,,,33,0
263460,note_on,,,,,0,0,2,,,,,0,,,53,75
263460,note_on,,,,,83,0,2,,,,,0,,,50,75
263521,note_on,,,,,61,0,2,,,,,0,,,50,0
263521,note_on,,,,,0,0,2,,,,,0,,,53,0
263522,note_on,,,,,0,0,2,,,,,0,,,53,0
263522,note_on,,,,,1,0,2,,,,,0,,,53,75
263522,note_on,,,,,0,0,2,,,,,0,,,53,75
263689,note_on,,,,,167,0,2,,,,,0,,,53,0
263700,note_on,,,,,0,0,2,,,,,0,,,62,75
263700,note_on,,,,,11,0,2,,,,,0,,,59,75
263701,control_change,,,,,1,0,2,,,64,0,0,,,,
263761,note_on,,,,,60,0,2,,,,,0,,,59,0
263761,note_on,,,,,0,0,2,,,,,0,,,62,0
263762,note_on,,,,,1,0,2,,,,,0,,,60,75
263762,note_on,,,,,0,0,2,,,,,0,,,63,75
263820,note_on,,,,,0,0,2,,,,,0,,,45,75
263820,note_on,,,,,58,0,2,,,,,0,,,33,75
263820,note_on,,,,,0,0,1,,,,,0,,,69,75
263820,note_on,,,,,443,0,1,,,,,0,,,57,75
263929,note_on,,,,,0,0,2,,,,,0,,,63,0
263929,note_on,,,,,109,0,2,,,,,0,,,60,0
263933,note_on,,,,,0,0,1,,,,,0,,,69,0
263933,note_on,,,,,0,0,2,,,,,0,,,45,0
263933,note_on,,,,,113,0,1,,,,,0,,,57,0
263933,note_on,,,,,4,0,2,,,,,0,,,33,0
263940,note_on,,,,,7,0,2,,,,,0,,,35,75
263940,note_on,,,,,0,0,2,,,,,0,,,38,75
263940,note_on,,,,,0,0,2,,,,,0,,,47,75
263940,note_on,,,,,0,0,1,,,,,0,,,77,75
263940,note_on,,,,,0,0,1,,,,,0,,,68,75
263940,note_on,,,,,7,0,1,,,,,0,,,65,75
263942,control_change,,,,,2,0,2,,,64,127,0,,,,
264097,note_on,,,,,0,0,2,,,,,0,,,38,0
264097,note_on,,,,,0,0,1,,,,,0,,,68,0
264097,note_on,,,,,155,0,2,,,,,0,,,35,0
264097,note_on,,,,,157,0,1,,,,,0,,,65,0
264097,note_on,,,,,0,0,1,,,,,0,,,77,0
264097,note_on,,,,,0,0,2,,,,,0,,,47,0
264180,note_on,,,,,0,0,2,,,,,0,,,55,75
264180,note_on,,,,,83,0,2,,,,,0,,,52,75
264241,note_on,,,,,61,0,2,,,,,0,,,52,0
264241,note_on,,,,,0,0,2,,,,,0,,,55,0
264242,note_on,,,,,1,0,2,,,,,0,,,53,75
264242,note_on,,,,,0,0,2,,,,,0,,,56,75
264409,note_on,,,,,167,0,2,,,,,0,,,53,0
264409,note_on,,,,,0,0,2,,,,,0,,,56,0
264420,note_on,,,,,0,0,2,,,,,0,,,64,75
264420,note_on,,,,,11,0,2,,,,,0,,,61,75
264421,control_change,,,,,1,0,2,,,64,0,0,,,,
264481,note_on,,,,,0,0,2,,,,,0,,,64,0
264481,note_on,,,,,60,0,2,,,,,0,,,61,0
264482,note_on,,,,,0,0,2,,,,,0,,,65,75
264482,note_on,,,,,1,0,2,,,,,0,,,62,75
264540,note_on,,,,,443,0,1,,,,,0,,,65,75
264540,note_on,,,,,0,0,1,,,,,0,,,77,75
264540,note_on,,,,,58,0,2,,,,,0,,,65,0
264649,note_on,,,,,109,0,2,,,,,0,,,62,0
264653,note_on,,,,,113,0,1,,,,,0,,,65,0
264653,note_on,,,,,0,0,1,,,,,0,,,77,0
264660,note_on,,,,,7,0,1,,,,,0,,,64,75
264660,note_on,,,,,0,0,1,,,,,0,,,76,75
264660,note_on,,,,,11,0,2,,,,,0,,,34,75
264660,note_on,,,,,0,0,2,,,,,0,,,46,75
264660,note_on,,,,,0,0,2,,,,,0,,,38,75
264660,note_on,,,,,0,0,1,,,,,0,,,68,75
264662,control_change,,,,,2,0,2,,,64,127,0,,,,
264817,note_on,,,,,0,0,2,,,,,0,,,38,0
264817,note_on,,,,,0,0,1,,,,,0,,,76,0
264817,note_on,,,,,0,0,1,,,,,0,,,68,0
264817,note_on,,,,,157,0,1,,,,,0,,,64,0
264817,note_on,,,,,0,0,2,,,,,0,,,46,0
264817,note_on,,,,,155,0,2,,,,,0,,,34,0
264900,note_on,,,,,83,0,2,,,,,0,,,51,75
264961,note_on,,,,,61,0,2,,,,,0,,,51,0
264962,note_on,,,,,1,0,2,,,,,0,,,52,75
265129,note_on,,,,,167,0,2,,,,,0,,,52,0
265140,note_on,,,,,11,0,2,,,,,0,,,55,75
265141,control_change,,,,,1,0,2,,,64,0,0,,,,
265201,note_on,,,,,60,0,2,,,,,0,,,55,0
265202,note_on,,,,,1,0,2,,,,,0,,,56,75
265260,note_on,,,,,443,0,1,,,,,0,,,62,75
265260,note_on,,,,,0,0,1,,,,,0,,,74,75
265369,note_on,,,,,167,0,2,,,,,0,,,56,0
265373,note_on,,,,,113,0,1,,,,,0,,,62,0
265373,note_on,,,,,0,0,1,,,,,0,,,74,0
265380,note_on,,,,,0,0,1,,,,,0,,,61,75
265380,note_on,,,,,7,0,1,,,,,0,,,57,75
265380,note_on,,,,,0,0,2,,,,,0,,,45,75
265380,note_on,,,,,11,0,2,,,,,0,,,33,75
265380,note_on,,,,,0,0,1,,,,,0,,,69,75
265380,note_on,,,,,0,0,2,,,,,0,,,40,75
265607,note_on,,,,,227,0,1,,,,,0,,,57,0
265607,note_on,,,,,227,0,2,,,,,0,,,33,0
265607,note_on,,,,,0,0,2,,,,,0,,,40,0
265607,note_on,,,,,0,0,1,,,,,0,,,61,0
265607,note_on,,,,,0,0,1,,,,,0,,,69,0
265607,note_on,,,,,0,0,2,,,,,0,,,45,0
265620,note_on,,,,,13,0,2,,,,,0,,,46,75
265620,note_on,,,,,0,0,2,,,,,0,,,55,75
265622,control_change,,,,,2,0,2,,,64,127,0,,,,
265733,note_on,,,,,111,0,2,,,,,0,,,46,0
265733,note_on,,,,,0,0,2,,,,,0,,,55,0
265740,note_on,,,,,7,0,2,,,,,0,,,64,75
265740,note_on,,,,,0,0,2,,,,,0,,,73,75
265853,note_on,,,,,0,0,2,,,,,0,,,73,0
265853,note_on,,,,,113,0,2,,,,,0,,,64,0
265860,note_on,,,,,7,0,2,,,,,0,,,49,75
265860,note_on,,,,,0,0,2,,,,,0,,,58,75
265973,note_on,,,,,113,0,2,,,,,0,,,49,0
265973,note_on,,,,,0,0,2,,,,,0,,,58,0
265980,note_on,,,,,7,0,2,,,,,0,,,67,75
265980,note_on,,,,,0,0,2,,,,,0,,,76,75
266093,note_on,,,,,0,0,2,,,,,0,,,76,0
266093,note_on,,,,,113,0,2,,,,,0,,,67,0
266100,note_on,,,,,0,0,2,,,,,0,,,61,75
266100,note_on,,,,,7,0,2,,,,,0,,,52,75
266213,note_on,,,,,0,0,2,,,,,0,,,61,0
266213,note_on,,,,,113,0,2,,,,,0,,,52,0
266220,note_on,,,,,7,0,2,,,,,0,,,70,75
266220,note_on,,,,,0,0,2,,,,,0,,,79,75
266333,note_on,,,,,0,0,2,,,,,0,,,79,0
266333,note_on,,,,,113,0,2,,,,,0,,,70,0
266340,note_on,,,,,0,0,2,,,,,0,,,64,75
266340,note_on,,,,,7,0,2,,,,,0,,,55,75
266453,note_on,,,,,0,0,2,,,,,0,,,64,0
266453,note_on,,,,,113,0,2,,,,,0,,,55,0
266460,note_on,,,,,0,0,2,,,,,0,,,82,75
266460,note_on,,,,,7,0,2,,,,,0,,,73,75
266573,note_on,,,,,113,0,2,,,,,0,,,73,0
266573,note_on,,,,,0,0,2,,,,,0,,,82,0
266580,note_on,,,,,7,0,2,,,,,0,,,50,75
266580,note_on,,,,,0,0,1,,,,,0,,,83,75
266580,note_on,,,,,0,0,1,,,,,0,,,80,75
266580,note_on,,,,,0,0,1,,,,,0,,,77,75
266580,note_on,,,,,0,0,2,,,,,0,,,62,75
266580,note_on,,,,,973,0,1,,,,,0,,,71,75
266658,note_on,,,,,78,0,1,,,,,0,,,71,0
266658,note_on,,,,,0,0,1,,,,,0,,,83,0
266658,note_on,,,,,0,0,1,,,,,0,,,80,0
266658,note_on,,,,,0,0,1,,,,,0,,,77,0
266658,note_on,,,,,78,0,2,,,,,0,,,50,0
266658,note_on,,,,,0,0,2,,,,,0,,,62,0
266820,note_on,,,,,0,0,1,,,,,0,,,88,75
266820,note_on,,,,,0,0,1,,,,,0,,,85,75
266820,note_on,,,,,0,0,1,,,,,0,,,81,75
266820,note_on,,,,,162,0,2,,,,,0,,,45,75
266820,note_on,,,,,162,0,1,,,,,0,,,76,75
266820,note_on,,,,,0,0,2,,,,,0,,,57,75
266821,control_change,,,,,1,0,2,,,64,0,0,,,,
266898,note_on,,,,,0,0,1,,,,,0,,,85,0
266898,note_on,,,,,0,0,2,,,,,0,,,57,0
266898,note_on,,,,,0,0,1,,,,,0,,,88,0
266898,note_on,,,,,0,0,1,,,,,0,,,81,0
266898,note_on,,,,,77,0,2,,,,,0,,,45,0
266898,note_on,,,,,78,0,1,,,,,0,,,76,0
267060,note_on,,,,,0,0,1,,,,,0,,,67,75
267060,note_on,,,,,162,0,1,,,,,0,,,58,75
267062,control_change,,,,,2,0,1,,,64,127,0,,,,
267173,note_on,,,,,111,0,1,,,,,0,,,58,0
267173,note_on,,,,,0,0,1,,,,,0,,,67,0
267180,note_on,,,,,0,0,1,,,,,0,,,85,75
267180,note_on,,,,,7,0,1,,,,,0,,,76,75
267293,note_on,,,,,113,0,1,,,,,0,,,76,0
267293,note_on,,,,,0,0,1,,,,,0,,,85,0
267300,note_on,,,,,0,0,1,,,,,0,,,70,75
267300,note_on,,,,,7,0,1,,,,,0,,,61,75
267413,note_on,,,,,113,0,1,,,,,0,,,61,0
267413,note_on,,,,,0,0,1,,,,,0,,,70,0
267420,note_on,,,,,7,0,1,,,,,0,,,79,75
267420,note_on,,,,,0,0,1,,,,,0,,,88,75
267533,note_on,,,,,113,0,1,,,,,0,,,79,0
267533,note_on,,,,,0,0,1,,,,,0,,,88,0
267540,note_on,,,,,0,0,1,,,,,0,,,73,75
267540,note_on,,,,,7,0,1,,,,,0,,,64,75
267653,note_on,,,,,113,0,1,,,,,0,,,64,0
267653,note_on,,,,,0,0,1,,,,,0,,,73,0
267660,note_on,,,,,0,0,1,,,,,0,,,91,75
267660,note_on,,,,,7,0,1,,,,,0,,,82,75
267773,note_on,,,,,113,0,1,,,,,0,,,82,0
267773,note_on,,,,,0,0,1,,,,,0,,,91,0
267780,note_on,,,,,0,0,1,,,,,0,,,76,75
267780,note_on,,,,,7,0,1,,,,,0,,,67,75
267893,note_on,,,,,113,0,1,,,,,0,,,67,0
267893,note_on,,,,,0,0,1,,,,,0,,,76,0
267900,note_on,,,,,7,0,1,,,,,0,,,85,75
267900,note_on,,,,,0,0,1,,,,,0,,,94,75
268013,note_on,,,,,113,0,1,,,,,0,,,85,0
268013,note_on,,,,,0,0,1,,,,,0,,,94,0
268020,note_on,,,,,1122,0,2,,,,,0,,,62,75
268020,note_on,,,,,0,0,1,,,,,0,,,89,75
268020,note_on,,,,,0,0,1,,,,,0,,,95,75
268020,note_on,,,,,0,0,1,,,,,0,,,92,75
268020,note_on,,,,,0,0,2,,,,,0,,,74,75
268020,note_on,,,,,7,0,1,,,,,0,,,83,75
268098,note_on,,,,,0,0,2,,,,,0,,,74,0
268098,note_on,,,,,0,0,1,,,,,0,,,95,0
268098,note_on,,,,,0,0,1,,,,,0,,,92,0
268098,note_on,,,,,78,0,1,,,,,0,,,83,0
268098,note_on,,,,,0,0,1,,,,,0,,,89,0
268098,note_on,,,,,78,0,2,,,,,0,,,62,0
268260,note_on,,,,,0,0,1,,,,,0,,,100,75
268260,note_on,,,,,0,0,1,,,,,0,,,97,75
268260,note_on,,,,,0,0,1,,,,,0,,,93,75
268260,note_on,,,,,162,0,1,,,,,0,,,88,75
268260,note_on,,,,,0,0,2,,,,,0,,,69,75
268260,note_on,,,,,162,0,2,,,,,0,,,57,75
268261,control_change,,,,,1,0,1,,,64,0,0,,,,
268338,note_on,,,,,78,0,2,,,,,0,,,57,0
268338,note_on,,,,,0,0,2,,,,,0,,,69,0
268338,note_on,,,,,0,0,1,,,,,0,,,100,0
268338,note_on,,,,,77,0,1,,,,,0,,,88,0
268338,note_on,,,,,0,0,1,,,,,0,,,97,0
268338,note_on,,,,,0,0,1,,,,,0,,,93,0
268620,note_on,,,,,0,0,1,,,,,0,,,89,75
268620,note_on,,,,,282,0,1,,,,,0,,,83,75
268620,note_on,,,,,282,0,2,,,,,0,,,50,75
268620,note_on,,,,,0,0,2,,,,,0,,,62,75
268620,note_on,,,,,0,0,1,,,,,0,,,92,75
268620,note_on,,,,,0,0,1,,,,,0,,,95,75
268733,note_on,,,,,0,0,2,,,,,0,,,62,0
268733,note_on,,,,,0,0,1,,,,,0,,,89,0
268733,note_on,,,,,0,0,1,,,,,0,,,92,0
268733,note_on,,,,,0,0,1,,,,,0,,,95,0
268733,note_on,,,,,113,0,1,,,,,0,,,83,0
268733,note_on,,,,,113,0,2,,,,,0,,,50,0
268740,note_on,,,,,7,0,2,,,,,0,,,45,75
268740,note_on,,,,,0,0,1,,,,,0,,,93,75
268740,note_on,,,,,0,0,1,,,,,0,,,97,75
268740,note_on,,,,,0,0,1,,,,,0,,,100,75
268740,note_on,,,,,7,0,1,,,,,0,,,88,75
268740,note_on,,,,,0,0,2,,,,,0,,,57,75
268859,note_on,,,,,0,0,1,,,,,0,,,93,0
268859,note_on,,,,,0,0,1,,,,,0,,,97,0
268859,note_on,,,,,0,0,1,,,,,0,,,100,0
268859,note_on,,,,,119,0,1,,,,,0,,,88,0
268859,note_on,,,,,0,0,2,,,,,0,,,57,0
268859,note_on,,,,,119,0,2,,,,,0,,,45,0
268980,note_on,,,,,121,0,2,,,,,0,,,38,75
268980,note_on,,,,,121,0,1,,,,,0,,,83,75
268980,note_on,,,,,0,0,2,,,,,0,,,50,75
268980,note_on,,,,,0,0,1,,,,,0,,,89,75
268980,note_on,,,,,0,0,1,,,,,0,,,92,75
268980,note_on,,,,,0,0,1,,,,,0,,,95,75
269099,note_on,,,,,0,0,1,,,,,0,,,92,0
269099,note_on,,,,,0,0,1,,,,,0,,,95,0
269099,note_on,,,,,119,0,2,,,,,0,,,38,0
269099,note_on,,,,,0,0,1,,,,,0,,,89,0
269099,note_on,,,,,119,0,1,,,,,0,,,83,0
269099,note_on,,,,,0,0,2,,,,,0,,,50,0
269220,note_on,,,,,121,0,1,,,,,0,,,88,75
269220,note_on,,,,,0,0,1,,,,,0,,,100,75
269220,note_on,,,,,0,0,1,,,,,0,,,97,75
269220,note_on,,,,,0,0,1,,,,,0,,,93,75
269220,note_on,,,,,0,0,2,,,,,0,,,45,75
269220,note_on,,,,,121,0,2,,,,,0,,,33,75
269339,note_on,,,,,0,0,1,,,,,0,,,93,0
269339,note_on,,,,,119,0,1,,,,,0,,,88,0
269339,note_on,,,,,0,0,1,,,,,0,,,100,0
269339,note_on,,,,,0,0,1,,,,,0,,,97,0
269339,note_on,,,,,0,0,2,,,,,0,,,45,0
269339,note_on,,,,,119,0,2,,,,,0,,,33,0
269460,note_on,,,,,121,0,1,,,,,0,,,83,75
269460,note_on,,,,,0,0,1,,,,,0,,,95,75
269460,note_on,,,,,0,0,1,,,,,0,,,89,75
269460,note_on,,,,,0,0,1,,,,,0,,,92,75
269460,note_on,,,,,121,0,2,,,,,0,,,38,75
269460,note_on,,,,,0,0,2,,,,,0,,,50,75
269579,note_on,,,,,0,0,1,,,,,0,,,92,0
269579,note_on,,,,,119,0,2,,,,,0,,,38,0
269579,note_on,,,,,0,0,1,,,,,0,,,89,0
269579,note_on,,,,,119,0,1,,,,,0,,,83,0
269579,note_on,,,,,0,0,2,,,,,0,,,50,0
269579,note_on,,,,,0,0,1,,,,,0,,,95,0
269700,note_on,,,,,0,0,1,,,,,0,,,93,75
269700,note_on,,,,,121,0,1,,,,,0,,,88,75
269700,note_on,,,,,0,0,1,,,,,0,,,97,75
269700,note_on,,,,,0,0,1,,,,,0,,,100,75
269700,note_on,,,,,0,0,2,,,,,0,,,45,75
269700,note_on,,,,,121,0,2,,,,,0,,,33,75
269819,note_on,,,,,0,0,1,,,,,0,,,97,0
269819,note_on,,,,,0,0,1,,,,,0,,,93,0
269819,note_on,,,,,119,0,1,,,,,0,,,88,0
269819,note_on,,,,,0,0,2,,,,,0,,,45,0
269819,note_on,,,,,119,0,2,,,,,0,,,33,0
269819,note_on,,,,,0,0,1,,,,,0,,,100,0
270060,note_on,,,,,0,0,1,,,,,0,,,92,75
270060,note_on,,,,,0,0,1,,,,,0,,,95,75
270060,note_on,,,,,241,0,2,,,,,0,,,50,75
270060,note_on,,,,,0,0,2,,,,,0,,,62,75
270060,note_on,,,,,0,0,1,,,,,0,,,89,75
270060,note_on,,,,,241,0,1,,,,,0,,,83,75
270173,note_on,,,,,0,0,1,,,,,0,,,92,0
270173,note_on,,,,,113,0,2,,,,,0,,,50,0
270173,note_on,,,,,113,0,1,,,,,0,,,83,0
270173,note_on,,,,,0,0,2,,,,,0,,,62,0
270173,note_on,,,,,0,0,1,,,,,0,,,95,0
270173,note_on,,,,,0,0,1,,,,,0,,,89,0
270180,note_on,,,,,0,0,1,,,,,0,,,97,75
270180,note_on,,,,,7,0,2,,,,,0,,,45,75
270180,note_on,,,,,0,0,1,,,,,0,,,93,75
270180,note_on,,,,,0,0,1,,,,,0,,,100,75
270180,note_on,,,,,7,0,1,,,,,0,,,88,75
270180,note_on,,,,,0,0,2,,,,,0,,,57,75
270299,note_on,,,,,0,0,1,,,,,0,,,93,0
270299,note_on,,,,,119,0,2,,,,,0,,,45,0
270299,note_on,,,,,0,0,1,,,,,0,,,97,0
270299,note_on,,,,,119,0,1,,,,,0,,,88,0
270299,note_on,,,,,0,0,1,,,,,0,,,100,0
270299,note_on,,,,,0,0,2,,,,,0,,,57,0
270420,note_on,,,,,0,0,1,,,,,0,,,95,75
270420,note_on,,,,,0,0,2,,,,,0,,,50,75
270420,note_on,,,,,0,0,1,,,,,0,,,92,75
270420,note_on,,,,,121,0,2,,,,,0,,,38,75
270420,note_on,,,,,0,0,1,,,,,0,,,89,75
270420,note_on,,,,,121,0,1,,,,,0,,,83,75
270539,note_on,,,,,0,0,2,,,,,0,,,50,0
270539,note_on,,,,,119,0,1,,,,,0,,,83,0
270539,note_on,,,,,0,0,1,,,,,0,,,95,0
270539,note_on,,,,,0,0,1,,,,,0,,,92,0
270539,note_on,,,,,0,0,1,,,,,0,,,89,0
270539,note_on,,,,,119,0,2,,,,,0,,,38,0
270660,note_on,,,,,0,0,1,,,,,0,,,93,75
270660,note_on,,,,,121,0,1,,,,,0,,,88,75
270660,note_on,,,,,0,0,2,,,,,0,,,45,75
270660,note_on,,,,,0,0,1,,,,,0,,,100,75
270660,note_on,,,,,121,0,2,,,,,0,,,33,75
270660,note_on,,,,,0,0,1,,,,,0,,,97,75
270779,note_on,,,,,119,0,1,,,,,0,,,88,0
270779,note_on,,,,,0,0,2,,,,,0,,,45,0
270779,note_on,,,,,0,0,1,,,,,0,,,100,0
270779,note_on,,,,,0,0,1,,,,,0,,,93,0
270779,note_on,,,,,0,0,1,,,,,0,,,97,0
270779,note_on,,,,,119,0,2,,,,,0,,,33,0
270900,note_on,,,,,121,0,1,,,,,0,,,83,75
270900,note_on,,,,,0,0,2,,,,,0,,,50,75
270900,note_on,,,,,0,0,1,,,,,0,,,92,75
270900,note_on,,,,,0,0,1,,,,,0,,,89,75
270900,note_on,,,,,121,0,2,,,,,0,,,38,75
270900,note_on,,,,,0,0,1,,,,,0,,,95,75
271019,note_on,,,,,0,0,1,,,,,0,,,89,0
271019,note_on,,,,,0,0,1,,,,,0,,,92,0
271019,note_on,,,,,119,0,2,,,,,0,,,38,0
271019,note_on,,,,,0,0,1,,,,,0,,,95,0
271019,note_on,,,,,119,0,1,,,,,0,,,83,0
271019,note_on,,,,,0,0,2,,,,,0,,,50,0
271140,note_on,,,,,0,0,2,,,,,0,,,45,75
271140,note_on,,,,,121,0,2,,,,,0,,,33,75
271140,note_on,,,,,0,0,1,,,,,0,,,93,75
271140,note_on,,,,,121,0,1,,,,,0,,,88,75
271140,note_on,,,,,0,0,1,,,,,0,,,97,75
271140,note_on,,,,,0,0,1,,,,,0,,,100,75
271259,note_on,,,,,0,0,1,,,,,0,,,93,0
271259,note_on,,,,,0,0,1,,,,,0,,,100,0
271259,note_on,,,,,0,0,1,,,,,0,,,97,0
271259,note_on,,,,,119,0,2,,,,,0,,,33,0
271259,note_on,,,,,119,0,1,,,,,0,,,88,0
271259,note_on,,,,,0,0,2,,,,,0,,,45,0
271380,note_on,,,,,0,0,1,,,,,0,,,80,75
271380,note_on,,,,,121,0,1,,,,,0,,,68,75
271380,set_tempo,,,,,27600,1,0,,444444,,,,,,,
271380,note_on,,,,,121,0,2,,,,,0,,,44,75
271380,note_on,,,,,0,0,2,,,,,0,,,56,75
271499,note_on,,,,,119,0,2,,,,,0,,,44,0
271499,note_on,,,,,0,0,1,,,,,0,,,80,0
271499,note_on,,,,,119,0,1,,,,,0,,,68,0
271499,note_on,,,,,0,0,2,,,,,0,,,56,0
271500,note_on,,,,,1,0,2,,,,,0,,,45,75
271500,note_on,,,,,1,0,1,,,,,0,,,69,75
271500,note_on,,,,,0,0,2,,,,,0,,,57,75
271500,note_on,,,,,0,0,1,,,,,0,,,81,75
271619,note_on,,,,,0,0,2,,,,,0,,,57,0
271619,note_on,,,,,119,0,2,,,,,0,,,45,0
271619,note_on,,,,,119,0,1,,,,,0,,,69,0
271619,note_on,,,,,0,0,1,,,,,0,,,81,0
271620,note_on,,,,,0,0,2,,,,,0,,,58,75
271620,note_on,,,,,1,0,2,,,,,0,,,46,75
271620,note_on,,,,,0,0,1,,,,,0,,,82,75
271620,note_on,,,,,1,0,1,,,,,0,,,70,75
271739,note_on,,,,,0,0,1,,,,,0,,,82,0
271739,note_on,,,,,0,0,2,,,,,0,,,58,0
271739,note_on,,,,,119,0,2,,,,,0,,,46,0
271739,note_on,,,,,119,0,1,,,,,0,,,70,0
271860,note_on,,,,,0,0,1,,,,,0,,,81,75
271860,note_on,,,,,121,0,1,,,,,0,,,69,75
271860,note_on,,,,,0,0,2,,,,,0,,,57,75
271860,note_on,,,,,121,0,2,,,,,0,,,45,75
271979,note_on,,,,,119,0,1,,,,,0,,,69,0
271979,note_on,,,,,0,0,1,,,,,0,,,81,0
271979,note_on,,,,,119,0,2,,,,,0,,,45,0
271979,note_on,,,,,0,0,2,,,,,0,,,57,0
271980,note_on,,,,,0,0,1,,,,,0,,,82,75
271980,note_on,,,,,1,0,2,,,,,0,,,46,75
271980,note_on,,,,,0,0,2,,,,,0,,,58,75
271980,note_on,,,,,1,0,1,,,,,0,,,70,75
272099,note_on,,,,,119,0,2,,,,,0,,,46,0
272099,note_on,,,,,119,0,1,,,,,0,,,70,0
272099,note_on,,,,,0,0,2,,,,,0,,,58,0
272099,note_on,,,,,0,0,1,,,,,0,,,82,0
272100,note_on,,,,,0,0,1,,,,,0,,,83,75
272100,note_on,,,,,1,0,2,,,,,0,,,47,75
272100,note_on,,,,,0,0,2,,,,,0,,,59,75
272100,note_on,,,,,1,0,1,,,,,0,,,71,75
272219,note_on,,,,,119,0,2,,,,,0,,,47,0
272219,note_on,,,,,0,0,1,,,,,0,,,83,0
272219,note_on,,,,,0,0,2,,,,,0,,,59,0
272219,note_on,,,,,119,0,1,,,,,0,,,71,0
272340,note_on,,,,,0,0,2,,,,,0,,,58,75
272340,note_on,,,,,0,0,1,,,,,0,,,82,75
272340,note_on,,,,,121,0,2,,,,,0,,,46,75
272340,note_on,,,,,121,0,1,,,,,0,,,70,75
272459,note_on,,,,,119,0,1,,,,,0,,,70,0
272459,note_on,,,,,0,0,2,,,,,0,,,58,0
272459,note_on,,,,,0,0,1,,,,,0,,,82,0
272459,note_on,,,,,119,0,2,,,,,0,,,46,0
272460,note_on,,,,,0,0,2,,,,,0,,,59,75
272460,note_on,,,,,0,0,1,,,,,0,,,83,75
272460,note_on,,,,,1,0,1,,,,,0,,,71,75
272460,note_on,,,,,1,0,2,,,,,0,,,47,75
272579,note_on,,,,,119,0,1,,,,,0,,,71,0
272579,note_on,,,,,0,0,1,,,,,0,,,83,0
272579,note_on,,,,,119,0,2,,,,,0,,,47,0
272579,note_on,,,,,0,0,2,,,,,0,,,59,0
272580,note_on,,,,,1,0,2,,,,,0,,,48,75
272580,note_on,,,,,1,0,1,,,,,0,,,72,75
272580,note_on,,,,,0,0,2,,,,,0,,,60,75
272580,note_on,,,,,0,0,1,,,,,0,,,84,75
272699,note_on,,,,,0,0,1,,,,,0,,,84,0
272699,note_on,,,,,0,0,2,,,,,0,,,60,0
272699,note_on,,,,,119,0,1,,,,,0,,,72,0
272699,note_on,,,,,119,0,2,,,,,0,,,48,0
272820,note_on,,,,,121,0,2,,,,,0,,,45,75
272820,note_on,,,,,0,0,2,,,,,0,,,57,75
272820,note_on,,,,,0,0,1,,,,,0,,,81,75
272820,note_on,,,,,121,0,1,,,,,0,,,69,75
272939,note_on,,,,,119,0,1,,,,,0,,,69,0
272939,note_on,,,,,0,0,1,,,,,0,,,81,0
272939,note_on,,,,,119,0,2,,,,,0,,,45,0
272939,note_on,,,,,0,0,2,,,,,0,,,57,0
272940,note_on,,,,,1,0,2,,,,,0,,,46,75
272940,note_on,,,,,0,0,1,,,,,0,,,82,75
272940,note_on,,,,,0,0,2,,,,,0,,,58,75
272940,note_on,,,,,1,0,1,,,,,0,,,70,75
273059,note_on,,,,,119,0,2,,,,,0,,,46,0
273059,note_on,,,,,0,0,2,,,,,0,,,58,0
273059,note_on,,,,,0,0,1,,,,,0,,,82,0
273059,note_on,,,,,119,0,1,,,,,0,,,70,0
273060,note_on,,,,,1,0,1,,,,,0,,,71,75
273060,note_on,,,,,0,0,1,,,,,0,,,83,75
273060,note_on,,,,,0,0,2,,,,,0,,,59,75
273060,note_on,,,,,1,0,2,,,,,0,,,47,75
273179,note_on,,,,,119,0,1,,,,,0,,,71,0
273179,note_on,,,,,0,0,2,,,,,0,,,59,0
273179,note_on,,,,,119,0,2,,,,,0,,,47,0
273179,note_on,,,,,0,0,1,,,,,0,,,83,0
273300,note_on,,,,,121,0,1,,,,,0,,,70,75
273300,note_on,,,,,121,0,2,,,,,0,,,46,75
273300,note_on,,,,,0,0,1,,,,,0,,,82,75
273300,note_on,,,,,0,0,2,,,,,0,,,58,75
273419,note_on,,,,,119,0,1,,,,,0,,,70,0
273419,note_on,,,,,0,0,1,,,,,0,,,82,0
273419,note_on,,,,,0,0,2,,,,,0,,,58,0
273419,note_on,,,,,119,0,2,,,,,0,,,46,0
273420,note_on,,,,,0,0,1,,,,,0,,,83,75
273420,note_on,,,,,1,0,1,,,,,0,,,71,75
273420,note_on,,,,,0,0,2,,,,,0,,,59,75
273420,note_on,,,,,1,0,2,,,,,0,,,47,75
273539,note_on,,,,,119,0,2,,,,,0,,,47,0
273539,note_on,,,,,0,0,1,,,,,0,,,83,0
273539,note_on,,,,,0,0,2,,,,,0,,,59,0
273539,note_on,,,,,119,0,1,,,,,0,,,71,0
273540,note_on,,,,,1,0,1,,,,,0,,,72,75
273540,note_on,,,,,1,0,2,,,,,0,,,48,75
273540,note_on,,,,,0,0,1,,,,,0,,,84,75
273540,note_on,,,,,0,0,2,,,,,0,,,60,75
273659,note_on,,,,,0,0,2,,,,,0,,,60,0
273659,note_on,,,,,119,0,2,,,,,0,,,48,0
273659,note_on,,,,,119,0,1,,,,,0,,,72,0
273659,note_on,,,,,0,0,1,,,,,0,,,84,0
273780,note_on,,,,,0,0,1,,,,,0,,,83,75
273780,note_on,,,,,0,0,2,,,,,0,,,59,75
273780,note_on,,,,,121,0,2,,,,,0,,,47,75
273780,note_on,,,,,121,0,1,,,,,0,,,71,75
273899,note_on,,,,,119,0,1,,,,,0,,,71,0
273899,note_on,,,,,119,0,2,,,,,0,,,47,0
273899,note_on,,,,,0,0,2,,,,,0,,,59,0
273899,note_on,,,,,0,0,1,,,,,0,,,83,0
273900,note_on,,,,,0,0,2,,,,,0,,,60,75
273900,note_on,,,,,0,0,1,,,,,0,,,84,75
273900,note_on,,,,,1,0,2,,,,,0,,,48,75
273900,note_on,,,,,1,0,1,,,,,0,,,72,75
274019,note_on,,,,,119,0,2,,,,,0,,,48,0
274019,note_on,,,,,119,0,1,,,,,0,,,72,0
274019,note_on,,,,,0,0,1,,,,,0,,,84,0
274019,note_on,,,,,0,0,2,,,,,0,,,60,0
274020,note_on,,,,,0,0,2,,,,,0,,,61,75
274020,note_on,,,,,1,0,1,,,,,0,,,73,75
274020,note_on,,,,,0,0,1,,,,,0,,,85,75
274020,note_on,,,,,1,0,2,,,,,0,,,49,75
274139,note_on,,,,,119,0,2,,,,,0,,,49,0
274139,note_on,,,,,0,0,1,,,,,0,,,85,0
274139,note_on,,,,,0,0,2,,,,,0,,,61,0
274139,note_on,,,,,119,0,1,,,,,0,,,73,0
274260,note_on,,,,,121,0,1,,,,,0,,,70,75
274260,note_on,,,,,0,0,2,,,,,0,,,58,75
274260,note_on,,,,,121,0,2,,,,,0,,,46,75
274260,note_on,,,,,0,0,1,,,,,0,,,82,75
274379,note_on,,,,,119,0,2,,,,,0,,,46,0
274379,note_on,,,,,119,0,1,,,,,0,,,70,0
274379,note_on,,,,,0,0,2,,,,,0,,,58,0
274379,note_on,,,,,0,0,1,,,,,0,,,82,0
274380,note_on,,,,,1,0,1,,,,,0,,,71,75
274380,note_on,,,,,1,0,2,,,,,0,,,47,75
274380,note_on,,,,,0,0,1,,,,,0,,,83,75
274380,note_on,,,,,0,0,2,,,,,0,,,59,75
274499,note_on,,,,,119,0,1,,,,,0,,,71,0
274499,note_on,,,,,0,0,1,,,,,0,,,83,0
274499,note_on,,,,,119,0,2,,,,,0,,,47,0
274499,note_on,,,,,0,0,2,,,,,0,,,59,0
274500,note_on,,,,,1,0,1,,,,,0,,,72,75
274500,note_on,,,,,1,0,2,,,,,0,,,48,75
274500,note_on,,,,,0,0,1,,,,,0,,,84,75
274500,note_on,,,,,0,0,2,,,,,0,,,60,75
274619,note_on,,,,,119,0,1,,,,,0,,,72,0
274619,note_on,,,,,0,0,1,,,,,0,,,84,0
274619,note_on,,,,,119,0,2,,,,,0,,,48,0
274619,note_on,,,,,0,0,2,,,,,0,,,60,0
274740,note_on,,,,,0,0,2,,,,,0,,,59,75
274740,note_on,,,,,121,0,2,,,,,0,,,47,75
274740,note_on,,,,,0,0,1,,,,,0,,,83,75
274740,note_on,,,,,121,0,1,,,,,0,,,71,75
274859,note_on,,,,,0,0,2,,,,,0,,,59,0
274859,note_on,,,,,119,0,1,,,,,0,,,71,0
274859,note_on,,,,,119,0,2,,,,,0,,,47,0
274859,note_on,,,,,0,0,1,,,,,0,,,83,0
274860,note_on,,,,,1,0,2,,,,,0,,,48,75
274860,note_on,,,,,1,0,1,,,,,0,,,72,75
274860,note_on,,,,,0,0,1,,,,,0,,,84,75
274860,note_on,,,,,0,0,2,,,,,0,,,60,75
274979,note_on,,,,,119,0,2,,,,,0,,,48,0
274979,note_on,,,,,0,0,2,,,,,0,,,60,0
274979,note_on,,,,,119,0,1,,,,,0,,,72,0
274979,note_on,,,,,0,0,1,,,,,0,,,84,0
274980,note_on,,,,,0,0,2,,,,,0,,,61,75
274980,note_on,,,,,1,0,2,,,,,0,,,49,75
274980,note_on,,,,,1,0,1,,,,,0,,,73,75
274980,note_on,,,,,0,0,1,,,,,0,,,85,75
275099,note_on,,,,,0,0,1,,,,,0,,,85,0
275099,note_on,,,,,0,0,2,,,,,0,,,61,0
275099,note_on,,,,,119,0,1,,,,,0,,,73,0
275099,note_on,,,,,119,0,2,,,,,0,,,49,0
275220,note_on,,,,,121,0,1,,,,,0,,,72,75
275220,note_on,,,,,0,0,1,,,,,0,,,84,75
275220,note_on,,,,,121,0,2,,,,,0,,,48,75
275220,note_on,,,,,0,0,2,,,,,0,,,60,75
275339,note_on,,,,,119,0,2,,,,,0,,,48,0
275339,note_on,,,,,0,0,1,,,,,0,,,84,0
275339,note_on,,,,,0,0,2,,,,,0,,,60,0
275339,note_on,,,,,119,0,1,,,,,0,,,72,0
275340,note_on,,,,,0,0,2,,,,,0,,,61,75
275340,note_on,,,,,0,0,1,,,,,0,,,85,75
275340,note_on,,,,,1,0,2,,,,,0,,,49,75
275340,note_on,,,,,1,0,1,,,,,0,,,73,75
275453,note_on,,,,,0,0,1,,,,,0,,,85,0
275453,note_on,,,,,0,0,2,,,,,0,,,61,0
275453,note_on,,,,,113,0,2,,,,,0,,,49,0
275453,note_on,,,,,113,0,1,,,,,0,,,73,0
275460,note_on,,,,,0,0,2,,,,,0,,,38,0
275460,note_on,,,,,0,0,2,,,,,0,,,38,112
275460,note_on,,,,,0,0,1,,,,,0,,,74,0
275460,note_on,,,,,7,0,2,,,,,0,,,38,112
275460,time_signature,2,4,24,8,4080,1,0,,,,,,,,,
275460,note_on,,,,,0,0,2,,,,,0,,,50,112
275460,note_on,,,,,0,0,1,,,,,0,,,86,112
275460,note_on,,,,,0,0,1,,,,,0,,,74,112
275460,note_on,,,,,7,0,1,,,,,0,,,74,112
275460,set_tempo,,,,,0,1,0,,500000,,,,,,,
275462,control_change,,,,,2,0,2,,,64,127,0,,,,
275538,note_on,,,,,78,0,1,,,,,0,,,86,0
275538,note_on,,,,,76,0,2,,,,,0,,,50,0
275687,note_on,,,,,149,0,2,,,,,0,,,38,0
275687,note_on,,,,,149,0,1,,,,,0,,,74,0
275700,note_on,,,,,0,0,1,,,,,0,,,68,112
275700,note_on,,,,,0,0,2,,,,,0,,,62,112
275700,note_on,,,,,13,0,1,,,,,0,,,65,112
275700,note_on,,,,,0,0,2,,,,,0,,,56,112
275700,note_on,,,,,13,0,2,,,,,0,,,53,112
275761,note_on,,,,,61,0,2,,,,,0,,,53,0
275761,note_on,,,,,61,0,1,,,,,0,,,65,0
275761,note_on,,,,,0,0,2,,,,,0,,,62,0
275761,note_on,,,,,0,0,2,,,,,0,,,56,0
275761,note_on,,,,,0,0,1,,,,,0,,,68,0
275762,note_on,,,,,0,0,2,,,,,0,,,57,112
275762,note_on,,,,,0,0,1,,,,,0,,,69,112
275762,note_on,,,,,1,0,1,,,,,0,,,65,112
275762,note_on,,,,,1,0,2,,,,,0,,,54,112
275819,note_on,,,,,0,0,2,,,,,0,,,57,0
275819,note_on,,,,,57,0,1,,,,,0,,,65,0
275819,note_on,,,,,57,0,2,,,,,0,,,54,0
275819,note_on,,,,,0,0,1,,,,,0,,,69,0
275940,note_on,,,,,0,0,1,,,,,0,,,74,112
275940,note_on,,,,,0,0,1,,,,,0,,,86,112
275940,note_on,,,,,0,0,2,,,,,0,,,50,112
275940,note_on,,,,,121,0,1,,,,,0,,,74,112
275940,note_on,,,,,121,0,2,,,,,0,,,38,112
275940,note_on,,,,,0,0,2,,,,,0,,,38,0
275940,note_on,,,,,0,0,1,,,,,0,,,74,0
275940,note_on,,,,,0,0,2,,,,,0,,,38,112
275941,control_change,,,,,1,0,2,,,64,0,0,,,,
275942,control_change,,,,,1,0,2,,,64,127,0,,,,
276018,note_on,,,,,78,0,1,,,,,0,,,86,0
276018,note_on,,,,,76,0,2,,,,,0,,,50,0
276167,note_on,,,,,149,0,1,,,,,0,,,74,0
276167,note_on,,,,,149,0,2,,,,,0,,,38,0
276180,note_on,,,,,0,0,2,,,,,0,,,56,112
276180,note_on,,,,,0,0,2,,,,,0,,,62,112
276180,note_on,,,,,13,0,1,,,,,0,,,65,112
276180,note_on,,,,,13,0,2,,,,,0,,,53,112
276180,note_on,,,,,0,0,1,,,,,0,,,68,112
276241,note_on,,,,,0,0,1,,,,,0,,,68,0
276241,note_on,,,,,61,0,2,,,,,0,,,53,0
276241,note_on,,,,,61,0,1,,,,,0,,,65,0
276241,note_on,,,,,0,0,2,,,,,0,,,56,0
276241,note_on,,,,,0,0,2,,,,,0,,,62,0
276242,note_on,,,,,1,0,2,,,,,0,,,54,112
276242,note_on,,,,,1,0,1,,,,,0,,,65,112
276242,note_on,,,,,0,0,1,,,,,0,,,69,112
276242,note_on,,,,,0,0,2,,,,,0,,,57,112
276299,note_on,,,,,57,0,1,,,,,0,,,65,0
276299,note_on,,,,,0,0,1,,,,,0,,,69,0
276299,note_on,,,,,57,0,2,,,,,0,,,54,0
276299,note_on,,,,,0,0,2,,,,,0,,,57,0
276300,note_on,,,,,1,0,1,,,,,0,,,72,112
276300,note_on,,,,,0,0,1,,,,,0,,,84,112
276413,note_on,,,,,113,0,1,,,,,0,,,72,0
276413,note_on,,,,,0,0,1,,,,,0,,,84,0
276420,note_on,,,,,0,0,2,,,,,0,,,50,112
276420,note_on,,,,,0,0,1,,,,,0,,,70,0
276420,note_on,,,,,0,0,1,,,,,0,,,70,112
276420,note_on,,,,,121,0,2,,,,,0,,,38,112
276420,note_on,,,,,0,0,2,,,,,0,,,38,0
276420,note_on,,,,,0,0,2,,,,,0,,,38,112
276420,note_on,,,,,7,0,1,,,,,0,,,70,112
276420,note_on,,,,,0,0,1,,,,,0,,,82,112
276421,control_change,,,,,1,0,2,,,64,0,0,,,,
276422,control_change,,,,,1,0,2,,,64,127,0,,,,
276498,note_on,,,,,76,0,2,,,,,0,,,50,0
276498,note_on,,,,,78,0,1,,,,,0,,,82,0
276647,note_on,,,,,149,0,1,,,,,0,,,70,0
276647,note_on,,,,,149,0,2,,,,,0,,,38,0
276660,note_on,,,,,0,0,1,,,,,0,,,66,112
276660,note_on,,,,,0,0,2,,,,,0,,,57,112
276660,note_on,,,,,13,0,2,,,,,0,,,54,112
276660,note_on,,,,,13,0,1,,,,,0,,,63,112
276721,note_on,,,,,0,0,1,,,,,0,,,66,0
276721,note_on,,,,,61,0,2,,,,,0,,,54,0
276721,note_on,,,,,61,0,1,,,,,0,,,63,0
276721,note_on,,,,,0,0,2,,,,,0,,,57,0
276722,note_on,,,,,1,0,2,,,,,0,,,55,112
276722,note_on,,,,,0,0,1,,,,,0,,,67,112
276722,note_on,,,,,1,0,1,,,,,0,,,64,112
276722,note_on,,,,,0,0,2,,,,,0,,,58,112
276779,note_on,,,,,0,0,1,,,,,0,,,67,0
276779,note_on,,,,,0,0,2,,,,,0,,,58,0
276779,note_on,,,,,57,0,1,,,,,0,,,64,0
276779,note_on,,,,,57,0,2,,,,,0,,,55,0
276900,note_on,,,,,0,0,1,,,,,0,,,70,0
276900,note_on,,,,,0,0,2,,,,,0,,,38,0
276900,note_on,,,,,0,0,2,,,,,0,,,38,112
276900,note_on,,,,,121,0,1,,,,,0,,,70,112
276900,note_on,,,,,121,0,2,,,,,0,,,38,112
276900,note_on,,,,,0,0,2,,,,,0,,,50,112
276900,note_on,,,,,0,0,1,,,,,0,,,70,112
276900,note_on,,,,,0,0,1,,,,,0,,,82,112
276901,control_change,,,,,1,0,2,,,64,0,0,,,,
276902,control_change,,,,,1,0,2,,,64,127,0,,,,
276978,note_on,,,,,76,0,2,,,,,0,,,50,0
276978,note_on,,,,,78,0,1,,,,,0,,,82,0
277127,note_on,,,,,149,0,1,,,,,0,,,70,0
277127,note_on,,,,,149,0,2,,,,,0,,,38,0
277140,note_on,,,,,13,0,2,,,,,0,,,54,112
277140,note_on,,,,,13,0,1,,,,,0,,,63,112
277140,note_on,,,,,0,0,2,,,,,0,,,57,112
277140,note_on,,,,,0,0,1,,,,,0,,,66,112
277201,note_on,,,,,0,0,2,,,,,0,,,57,0
277201,note_on,,,,,61,0,1,,,,,0,,,63,0
277201,note_on,,,,,0,0,1,,,,,0,,,66,0
277201,note_on,,,,,61,0,2,,,,,0,,,54,0
277202,note_on,,,,,0,0,2,,,,,0,,,58,112
277202,note_on,,,,,1,0,2,,,,,0,,,55,112
277202,note_on,,,,,0,0,1,,,,,0,,,67,112
277202,note_on,,,,,1,0,1,,,,,0,,,64,112
277259,note_on,,,,,57,0,1,,,,,0,,,64,0
277259,note_on,,,,,0,0,1,,,,,0,,,67,0
277259,note_on,,,,,57,0,2,,,,,0,,,55,0
277259,note_on,,,,,0,0,2,,,,,0,,,58,0
277260,note_on,,,,,0,0,1,,,,,0,,,82,112
277260,note_on,,,,,1,0,1,,,,,0,,,70,112
277373,note_on,,,,,0,0,1,,,,,0,,,82,0
277373,note_on,,,,,113,0,1,,,,,0,,,70,0
277380,note_on,,,,,121,0,2,,,,,0,,,37,112
277380,note_on,,,,,0,0,2,,,,,0,,,37,0
277380,note_on,,,,,0,0,1,,,,,0,,,69,0
277380,note_on,,,,,0,0,2,,,,,0,,,37,112
277380,note_on,,,,,7,0,1,,,,,0,,,69,112
277380,note_on,,,,,0,0,2,,,,,0,,,49,112
277380,note_on,,,,,0,0,1,,,,,0,,,69,112
277380,note_on,,,,,0,0,1,,,,,0,,,81,112
277381,control_change,,,,,1,0,2,,,64,0,0,,,,
277382,control_change,,,,,1,0,2,,,64,127,0,,,,
277458,note_on,,,,,78,0,1,,,,,0,,,81,0
277458,note_on,,,,,76,0,2,,,,,0,,,49,0
277607,note_on,,,,,149,0,1,,,,,0,,,69,0
277607,note_on,,,,,149,0,2,,,,,0,,,37,0
277620,note_on,,,,,13,0,1,,,,,0,,,60,112
277620,note_on,,,,,0,0,1,,,,,0,,,63,112
277620,note_on,,,,,0,0,2,,,,,0,,,54,112
277620,note_on,,,,,13,0,2,,,,,0,,,51,112
277681,note_on,,,,,61,0,2,,,,,0,,,51,0
277681,note_on,,,,,61,0,1,,,,,0,,,60,0
277681,note_on,,,,,0,0,1,,,,,0,,,63,0
277681,note_on,,,,,0,0,2,,,,,0,,,54,0
277682,note_on,,,,,0,0,1,,,,,0,,,64,112
277682,note_on,,,,,1,0,2,,,,,0,,,52,112
277682,note_on,,,,,0,0,2,,,,,0,,,55,112
277682,note_on,,,,,1,0,1,,,,,0,,,61,112
277739,note_on,,,,,0,0,2,,,,,0,,,55,0
277739,note_on,,,,,57,0,1,,,,,0,,,61,0
277739,note_on,,,,,0,0,1,,,,,0,,,64,0
277739,note_on,,,,,57,0,2,,,,,0,,,52,0
277740,note_on,,,,,0,0,1,,,,,0,,,81,112
277740,note_on,,,,,1,0,1,,,,,0,,,69,112
277853,note_on,,,,,0,0,1,,,,,0,,,81,0
277853,note_on,,,,,113,0,1,,,,,0,,,69,0
277860,note_on,,,,,0,0,2,,,,,0,,,33,112
277860,note_on,,,,,7,0,1,,,,,0,,,76,112
277860,note_on,,,,,0,0,2,,,,,0,,,45,112
277860,note_on,,,,,121,0,2,,,,,0,,,33,112
277860,note_on,,,,,0,0,1,,,,,0,,,88,112
277860,note_on,,,,,0,0,1,,,,,0,,,76,112
277860,note_on,,,,,0,0,1,,,,,0,,,76,0
277860,note_on,,,,,0,0,2,,,,,0,,,33,0
277861,control_change,,,,,1,0,2,,,64,0,0,,,,
277862,control_change,,,,,1,0,2,,,64,127,0,,,,
277938,note_on,,,,,78,0,1,,,,,0,,,88,0
277938,note_on,,,,,76,0,2,,,,,0,,,45,0
278087,note_on,,,,,149,0,2,,,,,0,,,33,0
278087,note_on,,,,,149,0,1,,,,,0,,,76,0
278100,note_on,,,,,13,0,1,,,,,0,,,60,112
278100,note_on,,,,,13,0,2,,,,,0,,,51,112
278100,note_on,,,,,0,0,1,,,,,0,,,63,112
278100,note_on,,,,,0,0,2,,,,,0,,,54,112
278161,note_on,,,,,0,0,2,,,,,0,,,54,0
278161,note_on,,,,,61,0,1,,,,,0,,,60,0
278161,note_on,,,,,61,0,2,,,,,0,,,51,0
278161,note_on,,,,,0,0,1,,,,,0,,,63,0
278162,note_on,,,,,0,0,1,,,,,0,,,64,112
278162,note_on,,,,,1,0,1,,,,,0,,,61,112
278162,note_on,,,,,0,0,2,,,,,0,,,55,112
278162,note_on,,,,,1,0,2,,,,,0,,,52,112
278219,note_on,,,,,0,0,2,,,,,0,,,55,0
278219,note_on,,,,,57,0,1,,,,,0,,,61,0
278219,note_on,,,,,57,0,2,,,,,0,,,52,0
278219,note_on,,,,,0,0,1,,,,,0,,,64,0
278220,note_on,,,,,1,0,1,,,,,0,,,67,112
278220,note_on,,,,,0,0,1,,,,,0,,,79,112
278333,note_on,,,,,113,0,1,,,,,0,,,67,0
278333,note_on,,,,,0,0,1,,,,,0,,,79,0
278340,note_on,,,,,0,0,1,,,,,0,,,66,112
278340,note_on,,,,,0,0,1,,,,,0,,,78,112
278340,note_on,,,,,0,0,1,,,,,0,,,66,0
278340,note_on,,,,,7,0,1,,,,,0,,,66,112
278340,note_on,,,,,121,0,2,,,,,0,,,38,112
278340,note_on,,,,,0,0,2,,,,,0,,,38,0
278340,note_on,,,,,0,0,2,,,,,0,,,38,112
278340,note_on,,,,,0,0,2,,,,,0,,,50,112
278341,control_change,,,,,1,0,2,,,64,0,0,,,,
278342,control_change,,,,,1,0,2,,,64,127,0,,,,
278418,note_on,,,,,76,0,2,,,,,0,,,50,0
278418,note_on,,,,,78,0,1,,,,,0,,,78,0
278567,note_on,,,,,149,0,1,,,,,0,,,66,0
278567,note_on,,,,,149,0,2,,,,,0,,,38,0
278580,note_on,,,,,0,0,2,,,,,0,,,62,112
278580,note_on,,,,,13,0,1,,,,,0,,,65,112
278580,note_on,,,,,13,0,2,,,,,0,,,53,112
278580,note_on,,,,,0,0,2,,,,,0,,,56,112
278580,note_on,,,,,0,0,1,,,,,0,,,68,112
278641,note_on,,,,,61,0,1,,,,,0,,,65,0
278641,note_on,,,,,61,0,2,,,,,0,,,53,0
278641,note_on,,,,,0,0,2,,,,,0,,,56,0
278641,note_on,,,,,0,0,2,,,,,0,,,62,0
278641,note_on,,,,,0,0,1,,,,,0,,,68,0
278642,note_on,,,,,1,0,1,,,,,0,,,66,112
278642,note_on,,,,,1,0,2,,,,,0,,,54,112
278642,note_on,,,,,0,0,2,,,,,0,,,57,112
278642,note_on,,,,,0,0,1,,,,,0,,,69,112
278699,note_on,,,,,0,0,1,,,,,0,,,69,0
278699,note_on,,,,,0,0,2,,,,,0,,,57,0
278699,note_on,,,,,57,0,2,,,,,0,,,54,0
278699,note_on,,,,,57,0,1,,,,,0,,,66,0
278700,note_on,,,,,0,0,1,,,,,0,,,81,112
278700,note_on,,,,,1,0,1,,,,,0,,,69,112
278813,note_on,,,,,113,0,1,,,,,0,,,69,0
278813,note_on,,,,,0,0,1,,,,,0,,,81,0
278820,note_on,,,,,0,0,2,,,,,0,,,38,112
278820,note_on,,,,,0,0,1,,,,,0,,,62,0
278820,note_on,,,,,0,0,1,,,,,0,,,62,112
278820,note_on,,,,,0,0,2,,,,,0,,,50,112
278820,note_on,,,,,121,0,2,,,,,0,,,38,112
278820,note_on,,,,,0,0,1,,,,,0,,,74,112
278820,note_on,,,,,7,0,1,,,,,0,,,62,112
278820,note_on,,,,,0,0,2,,,,,0,,,38,0
278821,control_change,,,,,1,0,2,,,64,0,0,,,,
278822,control_change,,,,,1,0,2,,,64,127,0,,,,
278898,note_on,,,,,78,0,1,,,,,0,,,74,0
278898,note_on,,,,,76,0,2,,,,,0,,,50,0
279047,note_on,,,,,149,0,1,,,,,0,,,62,0
279047,note_on,,,,,149,0,2,,,,,0,,,38,0
279060,note_on,,,,,0,0,1,,,,,0,,,65,112
279060,note_on,,,,,13,0,2,,,,,0,,,53,112
279060,note_on,,,,,13,0,1,,,,,0,,,61,112
279060,note_on,,,,,0,0,2,,,,,0,,,56,112
279121,note_on,,,,,61,0,2,,,,,0,,,53,0
279121,note_on,,,,,0,0,2,,,,,0,,,56,0
279121,note_on,,,,,0,0,1,,,,,0,,,65,0
279121,note_on,,,,,61,0,1,,,,,0,,,61,0
279122,note_on,,,,,1,0,2,,,,,0,,,54,112
279122,note_on,,,,,0,0,1,,,,,0,,,66,112
279122,note_on,,,,,0,0,2,,,,,0,,,57,112
279122,note_on,,,,,1,0,1,,,,,0,,,62,112
279179,note_on,,,,,0,0,1,,,,,0,,,66,0
279179,note_on,,,,,57,0,2,,,,,0,,,54,0
279179,note_on,,,,,0,0,2,,,,,0,,,57,0
279179,note_on,,,,,57,0,1,,,,,0,,,62,0
279300,note_on,,,,,0,0,1,,,,,0,,,85,112
279300,note_on,,,,,0,0,1,,,,,0,,,73,0
279300,note_on,,,,,121,0,2,,,,,0,,,37,112
279300,note_on,,,,,0,0,2,,,,,0,,,37,0
279300,note_on,,,,,0,0,2,,,,,0,,,37,112
279300,note_on,,,,,0,0,2,,,,,0,,,49,112
279300,note_on,,,,,0,0,1,,,,,0,,,73,112
279300,note_on,,,,,121,0,1,,,,,0,,,73,112
279301,control_change,,,,,1,0,2,,,64,0,0,,,,
279302,control_change,,,,,1,0,2,,,64,127,0,,,,
279378,note_on,,,,,76,0,2,,,,,0,,,49,0
279378,note_on,,,,,78,0,1,,,,,0,,,85,0
279527,note_on,,,,,149,0,1,,,,,0,,,73,0
279527,note_on,,,,,149,0,2,,,,,0,,,37,0
279540,note_on,,,,,0,0,2,,,,,0,,,61,112
279540,note_on,,,,,0,0,1,,,,,0,,,67,112
279540,note_on,,,,,0,0,2,,,,,0,,,55,112
279540,note_on,,,,,13,0,1,,,,,0,,,64,112
279540,note_on,,,,,13,0,2,,,,,0,,,52,112
279601,note_on,,,,,61,0,1,,,,,0,,,64,0
279601,note_on,,,,,0,0,1,,,,,0,,,67,0
279601,note_on,,,,,61,0,2,,,,,0,,,52,0
279601,note_on,,,,,0,0,2,,,,,0,,,61,0
279601,note_on,,,,,0,0,2,,,,,0,,,55,0
279602,note_on,,,,,1,0,2,,,,,0,,,53,112
279602,note_on,,,,,0,0,1,,,,,0,,,68,112
279602,note_on,,,,,0,0,2,,,,,0,,,56,112
279602,note_on,,,,,1,0,1,,,,,0,,,65,112
279659,note_on,,,,,0,0,2,,,,,0,,,56,0
279659,note_on,,,,,0,0,1,,,,,0,,,68,0
279659,note_on,,,,,57,0,1,,,,,0,,,65,0
279659,note_on,,,,,57,0,2,,,,,0,,,53,0
279780,note_on,,,,,121,0,2,,,,,0,,,41,112
279780,note_on,,,,,0,0,2,,,,,0,,,41,0
279780,note_on,,,,,0,0,2,,,,,0,,,41,112
279780,note_on,,,,,0,0,2,,,,,0,,,53,112
279780,note_on,,,,,0,0,1,,,,,0,,,73,112
279780,note_on,,,,,0,0,1,,,,,0,,,73,0
279780,note_on,,,,,121,0,1,,,,,0,,,73,112
279780,note_on,,,,,0,0,1,,,,,0,,,85,112
279781,control_change,,,,,1,0,2,,,64,0,0,,,,
279782,control_change,,,,,1,0,2,,,64,127,0,,,,
280007,note_on,,,,,0,0,1,,,,,0,,,85,0
280007,note_on,,,,,227,0,1,,,,,0,,,73,0
280007,note_on,,,,,225,0,2,,,,,0,,,41,0
280007,note_on,,,,,0,0,2,,,,,0,,,53,0
280020,note_on,,,,,0,0,1,,,,,0,,,65,112
280020,note_on,,,,,13,0,2,,,,,0,,,55,112
280020,note_on,,,,,13,0,1,,,,,0,,,62,112
280020,note_on,,,,,0,0,2,,,,,0,,,61,112
280081,note_on,,,,,0,0,1,,,,,0,,,65,0
280081,note_on,,,,,61,0,1,,,,,0,,,62,0
280081,note_on,,,,,61,0,2,,,,,0,,,55,0
280081,note_on,,,,,0,0,2,,,,,0,,,61,0
280082,note_on,,,,,1,0,2,,,,,0,,,56,112
280082,note_on,,,,,1,0,1,,,,,0,,,65,112
280082,note_on,,,,,0,0,1,,,,,0,,,68,112
280139,note_on,,,,,0,0,1,,,,,0,,,68,0
280139,note_on,,,,,57,0,2,,,,,0,,,56,0
280139,note_on,,,,,57,0,1,,,,,0,,,65,0
280140,note_on,,,,,0,0,1,,,,,0,,,83,112
280140,note_on,,,,,1,0,1,,,,,0,,,71,112
280253,note_on,,,,,113,0,1,,,,,0,,,71,0
280253,note_on,,,,,0,0,1,,,,,0,,,83,0
280260,note_on,,,,,0,0,1,,,,,0,,,81,112
280260,note_on,,,,,0,0,1,,,,,0,,,69,112
280260,note_on,,,,,0,0,1,,,,,0,,,69,0
280260,note_on,,,,,0,0,2,,,,,0,,,42,0
280260,note_on,,,,,7,0,1,,,,,0,,,69,112
280260,note_on,,,,,0,0,2,,,,,0,,,54,112
280260,note_on,,,,,0,0,2,,,,,0,,,42,112
280260,note_on,,,,,121,0,2,,,,,0,,,42,112
280261,control_change,,,,,1,0,2,,,64,0,0,,,,
280262,control_change,,,,,1,0,2,,,64,127,0,,,,
280487,note_on,,,,,225,0,2,,,,,0,,,42,0
280487,note_on,,,,,227,0,1,,,,,0,,,69,0
280487,note_on,,,,,0,0,1,,,,,0,,,81,0
280487,note_on,,,,,0,0,2,,,,,0,,,54,0
280500,note_on,,,,,0,0,2,,,,,0,,,61,112
280500,note_on,,,,,13,0,2,,,,,0,,,56,112
280500,note_on,,,,,0,0,1,,,,,0,,,68,112
280500,note_on,,,,,13,0,1,,,,,0,,,65,112
280561,note_on,,,,,61,0,1,,,,,0,,,65,0
280561,note_on,,,,,61,0,2,,,,,0,,,56,0
280561,note_on,,,,,0,0,1,,,,,0,,,68,0
280561,note_on,,,,,0,0,2,,,,,0,,,61,0
280562,note_on,,,,,0,0,1,,,,,0,,,69,112
280562,note_on,,,,,1,0,1,,,,,0,,,66,112
280562,note_on,,,,,1,0,2,,,,,0,,,57,112
280729,note_on,,,,,167,0,1,,,,,0,,,66,0
280729,note_on,,,,,167,0,2,,,,,0,,,57,0
280729,note_on,,,,,0,0,1,,,,,0,,,69,0
280740,note_on,,,,,11,0,2,,,,,0,,,45,112
280740,note_on,,,,,0,0,2,,,,,0,,,45,0
280740,note_on,,,,,0,0,2,,,,,0,,,45,112
280740,note_on,,,,,11,0,1,,,,,0,,,66,112
280740,note_on,,,,,0,0,2,,,,,0,,,57,112
280740,note_on,,,,,0,0,1,,,,,0,,,66,112
280740,note_on,,,,,0,0,1,,,,,0,,,66,0
280740,note_on,,,,,0,0,1,,,,,0,,,78,112
280741,control_change,,,,,1,0,2,,,64,0,0,,,,
280742,control_change,,,,,1,0,2,,,64,127,0,,,,
280967,note_on,,,,,227,0,1,,,,,0,,,66,0
280967,note_on,,,,,225,0,2,,,,,0,,,45,0
280967,note_on,,,,,0,0,2,,,,,0,,,57,0
280967,note_on,,,,,0,0,1,,,,,0,,,78,0
280980,note_on,,,,,13,0,1,,,,,0,,,62,112
280980,note_on,,,,,13,0,2,,,,,0,,,56,112
280980,note_on,,,,,0,0,2,,,,,0,,,61,112
280980,note_on,,,,,0,0,1,,,,,0,,,66,112
281041,note_on,,,,,0,0,2,,,,,0,,,61,0
281041,note_on,,,,,61,0,2,,,,,0,,,56,0
281041,note_on,,,,,61,0,1,,,,,0,,,62,0
281041,note_on,,,,,0,0,1,,,,,0,,,66,0
281042,note_on,,,,,1,0,1,,,,,0,,,66,112
281042,note_on,,,,,1,0,2,,,,,0,,,57,112
281042,note_on,,,,,0,0,1,,,,,0,,,69,112
281100,note_on,,,,,0,0,1,,,,,0,,,81,112
281100,note_on,,,,,0,0,1,,,,,0,,,69,112
281100,note_on,,,,,58,0,1,,,,,0,,,69,0
281209,note_on,,,,,109,0,1,,,,,0,,,66,0
281209,note_on,,,,,167,0,2,,,,,0,,,57,0
281213,note_on,,,,,4,0,1,,,,,0,,,69,0
281213,note_on,,,,,0,0,1,,,,,0,,,81,0
281220,note_on,,,,,0,0,2,,,,,0,,,40,112
281220,note_on,,,,,0,0,2,,,,,0,,,52,112
281220,note_on,,,,,0,0,2,,,,,0,,,40,0
281220,note_on,,,,,11,0,2,,,,,0,,,40,112
281220,note_on,,,,,7,0,1,,,,,0,,,76,112
281220,note_on,,,,,0,0,1,,,,,0,,,88,112
281220,note_on,,,,,0,0,1,,,,,0,,,76,112
281220,note_on,,,,,0,0,1,,,,,0,,,76,0
281221,control_change,,,,,1,0,2,,,64,0,0,,,,
281222,control_change,,,,,1,0,2,,,64,127,0,,,,
281447,note_on,,,,,0,0,1,,,,,0,,,88,0
281447,note_on,,,,,225,0,2,,,,,0,,,40,0
281447,note_on,,,,,227,0,1,,,,,0,,,76,0
281447,note_on,,,,,0,0,2,,,,,0,,,52,0
281460,note_on,,,,,13,0,2,,,,,0,,,54,112
281460,note_on,,,,,0,0,2,,,,,0,,,64,112
281460,note_on,,,,,0,0,1,,,,,0,,,70,112
281460,note_on,,,,,13,0,1,,,,,0,,,67,112
281460,note_on,,,,,0,0,2,,,,,0,,,58,112
281521,note_on,,,,,0,0,2,,,,,0,,,64,0
281521,note_on,,,,,0,0,2,,,,,0,,,58,0
281521,note_on,,,,,61,0,2,,,,,0,,,54,0
281521,note_on,,,,,61,0,1,,,,,0,,,67,0
281521,note_on,,,,,0,0,1,,,,,0,,,70,0
281522,note_on,,,,,0,0,2,,,,,0,,,59,112
281522,note_on,,,,,1,0,2,,,,,0,,,56,112
281522,note_on,,,,,1,0,1,,,,,0,,,68,112
281522,note_on,,,,,0,0,1,,,,,0,,,71,112
281689,note_on,,,,,0,0,1,,,,,0,,,71,0
281689,note_on,,,,,0,0,2,,,,,0,,,59,0
281689,note_on,,,,,167,0,2,,,,,0,,,56,0
281689,note_on,,,,,167,0,1,,,,,0,,,68,0
281700,note_on,,,,,11,0,1,,,,,0,,,76,112
281700,note_on,,,,,11,0,2,,,,,0,,,44,112
281700,note_on,,,,,0,0,2,,,,,0,,,44,112
281700,note_on,,,,,0,0,1,,,,,0,,,76,0
281700,note_on,,,,,0,0,2,,,,,0,,,44,0
281700,note_on,,,,,0,0,1,,,,,0,,,76,112
281700,note_on,,,,,0,0,1,,,,,0,,,88,112
281700,note_on,,,,,0,0,2,,,,,0,,,56,112
281701,control_change,,,,,1,0,2,,,64,0,0,,,,
281702,control_change,,,,,1,0,2,,,64,127,0,,,,
281927,note_on,,,,,225,0,2,,,,,0,,,44,0
281927,note_on,,,,,0,0,2,,,,,0,,,56,0
281927,note_on,,,,,227,0,1,,,,,0,,,76,0
281927,note_on,,,,,0,0,1,,,,,0,,,88,0
281940,note_on,,,,,0,0,2,,,,,0,,,64,112
281940,note_on,,,,,13,0,1,,,,,0,,,67,112
281940,note_on,,,,,13,0,2,,,,,0,,,58,112
281940,note_on,,,,,0,0,1,,,,,0,,,70,112
282001,note_on,,,,,61,0,1,,,,,0,,,67,0
282001,note_on,,,,,0,0,2,,,,,0,,,64,0
282001,note_on,,,,,0,0,1,,,,,0,,,70,0
282001,note_on,,,,,61,0,2,,,,,0,,,58,0
282002,note_on,,,,,0,0,1,,,,,0,,,71,112
282002,note_on,,,,,1,0,2,,,,,0,,,59,112
282002,note_on,,,,,1,0,1,,,,,0,,,68,112
282060,note_on,,,,,58,0,1,,,,,0,,,74,112
282060,note_on,,,,,0,0,1,,,,,0,,,86,112
282169,note_on,,,,,0,0,1,,,,,0,,,71,0
282169,note_on,,,,,167,0,2,,,,,0,,,59,0
282169,note_on,,,,,109,0,1,,,,,0,,,68,0
282173,note_on,,,,,0,0,1,,,,,0,,,86,0
282173,note_on,,,,,4,0,1,,,,,0,,,74,0
282180,note_on,,,,,0,0,1,,,,,0,,,73,0
282180,note_on,,,,,0,0,1,,,,,0,,,73,112
282180,note_on,,,,,0,0,2,,,,,0,,,45,0
282180,note_on,,,,,0,0,2,,,,,0,,,57,112
282180,note_on,,,,,7,0,1,,,,,0,,,73,112
282180,note_on,,,,,0,0,1,,,,,0,,,85,112
282180,note_on,,,,,0,0,2,,,,,0,,,45,112
282180,note_on,,,,,11,0,2,,,,,0,,,45,112
282181,control_change,,,,,1,0,2,,,64,0,0,,,,
282182,control_change,,,,,1,0,2,,,64,127,0,,,,
282407,note_on,,,,,0,0,1,,,,,0,,,85,0
282407,note_on,,,,,0,0,2,,,,,0,,,57,0
282407,note_on,,,,,225,0,2,,,,,0,,,45,0
282407,note_on,,,,,227,0,1,,,,,0,,,73,0
282420,note_on,,,,,0,0,1,,,,,0,,,72,112
282420,note_on,,,,,13,0,2,,,,,0,,,60,112
282420,note_on,,,,,13,0,1,,,,,0,,,68,112
282420,note_on,,,,,0,0,2,,,,,0,,,64,112
282481,note_on,,,,,61,0,2,,,,,0,,,60,0
282481,note_on,,,,,0,0,1,,,,,0,,,72,0
282481,note_on,,,,,61,0,1,,,,,0,,,68,0
282481,note_on,,,,,0,0,2,,,,,0,,,64,0
282482,note_on,,,,,1,0,2,,,,,0,,,61,112
282482,note_on,,,,,0,0,1,,,,,0,,,73,112
282482,note_on,,,,,1,0,1,,,,,0,,,69,112
282649,note_on,,,,,0,0,1,,,,,0,,,73,0
282649,note_on,,,,,167,0,2,,,,,0,,,61,0
282649,note_on,,,,,167,0,1,,,,,0,,,69,0
282660,note_on,,,,,0,0,2,,,,,0,,,49,112
282660,note_on,,,,,11,0,1,,,,,0,,,69,112
282660,note_on,,,,,11,0,2,,,,,0,,,49,112
282660,note_on,,,,,0,0,1,,,,,0,,,81,112
282660,note_on,,,,,0,0,1,,,,,0,,,69,112
282660,note_on,,,,,0,0,2,,,,,0,,,49,0
282660,note_on,,,,,0,0,1,,,,,0,,,69,0
282660,note_on,,,,,0,0,2,,,,,0,,,61,112
282661,control_change,,,,,1,0,2,,,64,0,0,,,,
282662,control_change,,,,,1,0,2,,,64,127,0,,,,
282887,note_on,,,,,0,0,1,,,,,0,,,81,0
282887,note_on,,,,,225,0,2,,,,,0,,,49,0
282887,note_on,,,,,227,0,1,,,,,0,,,69,0
282887,note_on,,,,,0,0,2,,,,,0,,,61,0
282900,note_on,,,,,0,0,2,,,,,0,,,64,112
282900,note_on,,,,,13,0,2,,,,,0,,,60,112
282900,note_on,,,,,13,0,1,,,,,0,,,68,112
282900,note_on,,,,,0,0,1,,,,,0,,,72,112
282961,note_on,,,,,61,0,2,,,,,0,,,60,0
282961,note_on,,,,,0,0,1,,,,,0,,,72,0
282961,note_on,,,,,0,0,2,,,,,0,,,64,0
282961,note_on,,,,,61,0,1,,,,,0,,,68,0
282962,note_on,,,,,0,0,1,,,,,0,,,73,112
282962,note_on,,,,,1,0,1,,,,,0,,,69,112
282962,note_on,,,,,1,0,2,,,,,0,,,61,112
283020,note_on,,,,,58,0,2,,,,,0,,,45,112
283020,note_on,,,,,0,0,2,,,,,0,,,57,112
283020,note_on,,,,,0,0,1,,,,,0,,,81,112
283020,note_on,,,,,0,0,1,,,,,0,,,69,112
283020,note_on,,,,,58,0,1,,,,,0,,,69,0
283129,note_on,,,,,109,0,2,,,,,0,,,61,0
283129,note_on,,,,,109,0,1,,,,,0,,,73,0
283133,note_on,,,,,0,0,2,,,,,0,,,57,0
283133,note_on,,,,,4,0,2,,,,,0,,,45,0
283133,note_on,,,,,0,0,1,,,,,0,,,81,0
283133,note_on,,,,,4,0,1,,,,,0,,,69,0
283140,note_on,,,,,7,0,1,,,,,0,,,78,75
283140,note_on,,,,,7,0,2,,,,,0,,,45,75
283140,note_on,,,,,0,0,2,,,,,0,,,57,75
283140,note_on,,,,,0,0,2,,,,,0,,,45,75
283140,note_on,,,,,0,0,2,,,,,0,,,45,0
283140,note_on,,,,,0,0,2,,,,,0,,,51,75
283140,note_on,,,,,0,0,1,,,,,0,,,84,75
283140,note_on,,,,,0,0,1,,,,,0,,,90,75
283140,note_on,,,,,0,0,1,,,,,0,,,78,75
283140,note_on,,,,,0,0,1,,,,,0,,,78,0
283141,control_change,,,,,1,0,2,,,64,0,0,,,,
283142,control_change,,,,,1,0,2,,,64,127,0,,,,
283367,note_on,,,,,227,0,1,,,,,0,,,78,0
283367,note_on,,,,,0,0,2,,,,,0,,,57,0
283367,note_on,,,,,0,0,1,,,,,0,,,90,0
283367,note_on,,,,,0,0,1,,,,,0,,,84,0
283367,note_on,,,,,0,0,2,,,,,0,,,51,0
283367,note_on,,,,,225,0,2,,,,,0,,,45,0
283380,note_on,,,,,0,0,2,,,,,0,,,65,75
283380,note_on,,,,,0,0,1,,,,,0,,,74,75
283380,note_on,,,,,13,0,2,,,,,0,,,62,75
283380,note_on,,,,,13,0,1,,,,,0,,,71,75
283441,note_on,,,,,0,0,2,,,,,0,,,65,0
283441,note_on,,,,,61,0,2,,,,,0,,,62,0
283441,note_on,,,,,0,0,1,,,,,0,,,74,0
283441,note_on,,,,,61,0,1,,,,,0,,,71,0
283442,note_on,,,,,0,0,1,,,,,0,,,75,75
283442,note_on,,,,,1,0,1,,,,,0,,,72,75
283442,note_on,,,,,1,0,2,,,,,0,,,63,75
283442,note_on,,,,,0,0,2,,,,,0,,,66,75
283609,note_on,,,,,0,0,2,,,,,0,,,66,0
283609,note_on,,,,,0,0,1,,,,,0,,,75,0
283609,note_on,,,,,167,0,2,,,,,0,,,63,0
283609,note_on,,,,,167,0,1,,,,,0,,,72,0
283620,note_on,,,,,0,0,1,,,,,0,,,78,0
283620,note_on,,,,,11,0,2,,,,,0,,,45,75
283620,note_on,,,,,0,0,2,,,,,0,,,57,75
283620,note_on,,,,,0,0,2,,,,,0,,,51,75
283620,note_on,,,,,0,0,2,,,,,0,,,45,75
283620,note_on,,,,,0,0,2,,,,,0,,,45,0
283620,note_on,,,,,0,0,1,,,,,0,,,78,75
283620,note_on,,,,,0,0,1,,,,,0,,,84,75
283620,note_on,,,,,0,0,1,,,,,0,,,90,75
283620,note_on,,,,,11,0,1,,,,,0,,,78,75
283621,control_change,,,,,1,0,2,,,64,0,0,,,,
283622,control_change,,,,,1,0,2,,,64,127,0,,,,
283847,note_on,,,,,0,0,2,,,,,0,,,51,0
283847,note_on,,,,,0,0,2,,,,,0,,,57,0
283847,note_on,,,,,0,0,1,,,,,0,,,84,0
283847,note_on,,,,,0,0,1,,,,,0,,,90,0
283847,note_on,,,,,227,0,1,,,,,0,,,78,0
283847,note_on,,,,,225,0,2,,,,,0,,,45,0
283860,note_on,,,,,13,0,1,,,,,0,,,71,75
283860,note_on,,,,,0,0,2,,,,,0,,,65,75
283860,note_on,,,,,13,0,2,,,,,0,,,62,75
283860,note_on,,,,,0,0,1,,,,,0,,,74,75
283921,note_on,,,,,61,0,1,,,,,0,,,71,0
283921,note_on,,,,,61,0,2,,,,,0,,,62,0
283921,note_on,,,,,0,0,1,,,,,0,,,74,0
283921,note_on,,,,,0,0,2,,,,,0,,,65,0
283922,note_on,,,,,1,0,2,,,,,0,,,63,75
283922,note_on,,,,,0,0,1,,,,,0,,,75,75
283922,note_on,,,,,0,0,2,,,,,0,,,66,75
283922,note_on,,,,,1,0,1,,,,,0,,,72,75
283980,note_on,,,,,0,0,1,,,,,0,,,90,75
283980,note_on,,,,,58,0,1,,,,,0,,,78,75
283980,note_on,,,,,58,0,2,,,,,0,,,45,75
283980,note_on,,,,,0,0,2,,,,,0,,,57,75
283980,note_on,,,,,0,0,1,,,,,0,,,84,75
283980,note_on,,,,,0,0,2,,,,,0,,,52,75
284089,note_on,,,,,0,0,2,,,,,0,,,66,0
284089,note_on,,,,,109,0,2,,,,,0,,,63,0
284089,note_on,,,,,109,0,1,,,,,0,,,72,0
284089,note_on,,,,,0,0,1,,,,,0,,,75,0
284093,note_on,,,,,0,0,2,,,,,0,,,57,0
284093,note_on,,,,,4,0,1,,,,,0,,,78,0
284093,note_on,,,,,0,0,1,,,,,0,,,90,0
284093,note_on,,,,,0,0,2,,,,,0,,,52,0
284093,note_on,,,,,4,0,2,,,,,0,,,45,0
284093,note_on,,,,,0,0,1,,,,,0,,,84,0
284100,note_on,,,,,0,0,1,,,,,0,,,81,0
284100,note_on,,,,,0,0,2,,,,,0,,,52,75
284100,note_on,,,,,0,0,1,,,,,0,,,81,75
284100,note_on,,,,,7,0,1,,,,,0,,,81,75
284100,note_on,,,,,0,0,2,,,,,0,,,45,0
284100,note_on,,,,,0,0,2,,,,,0,,,45,75
284100,note_on,,,,,0,0,1,,,,,0,,,85,75
284100,note_on,,,,,0,0,1,,,,,0,,,93,75
284100,note_on,,,,,0,0,2,,,,,0,,,57,75
284100,note_on,,,,,7,0,2,,,,,0,,,45,75
284101,control_change,,,,,1,0,2,,,64,0,0,,,,
284102,control_change,,,,,1,0,2,,,64,127,0,,,,
284327,note_on,,,,,225,0,2,,,,,0,,,45,0
284327,note_on,,,,,0,0,2,,,,,0,,,57,0
284327,note_on,,,,,0,0,2,,,,,0,,,52,0
284327,note_on,,,,,0,0,1,,,,,0,,,93,0
284327,note_on,,,,,0,0,1,,,,,0,,,85,0
284327,note_on,,,,,227,0,1,,,,,0,,,81,0
284340,note_on,,,,,13,0,2,,,,,0,,,60,75
284340,note_on,,,,,0,0,2,,,,,0,,,63,75
284340,note_on,,,,,13,0,1,,,,,0,,,72,75
284340,note_on,,,,,0,0,1,,,,,0,,,75,75
284401,note_on,,,,,61,0,2,,,,,0,,,60,0
284401,note_on,,,,,0,0,2,,,,,0,,,63,0
284401,note_on,,,,,61,0,1,,,,,0,,,72,0
284401,note_on,,,,,0,0,1,,,,,0,,,75,0
284402,note_on,,,,,0,0,1,,,,,0,,,76,75
284402,note_on,,,,,1,0,2,,,,,0,,,61,75
284402,note_on,,,,,1,0,1,,,,,0,,,73,75
284402,note_on,,,,,0,0,2,,,,,0,,,64,75
284569,note_on,,,,,0,0,1,,,,,0,,,76,0
284569,note_on,,,,,167,0,1,,,,,0,,,73,0
284569,note_on,,,,,0,0,2,,,,,0,,,64,0
284569,note_on,,,,,167,0,2,,,,,0,,,61,0
284580,note_on,,,,,0,0,2,,,,,0,,,49,75
284580,note_on,,,,,11,0,1,,,,,0,,,76,75
284580,note_on,,,,,0,0,1,,,,,0,,,76,75
284580,note_on,,,,,0,0,2,,,,,0,,,45,0
284580,note_on,,,,,0,0,1,,,,,0,,,76,0
284580,note_on,,,,,0,0,2,,,,,0,,,57,75
284580,note_on,,,,,11,0,2,,,,,0,,,45,75
284580,note_on,,,,,0,0,1,,,,,0,,,81,75
284580,note_on,,,,,0,0,1,,,,,0,,,88,75
284580,note_on,,,,,0,0,2,,,,,0,,,45,75
284581,control_change,,,,,1,0,2,,,64,0,0,,,,
284582,control_change,,,,,1,0,2,,,64,127,0,,,,
284807,note_on,,,,,0,0,1,,,,,0,,,81,0
284807,note_on,,,,,0,0,1,,,,,0,,,88,0
284807,note_on,,,,,0,0,2,,,,,0,,,57,0
284807,note_on,,,,,0,0,2,,,,,0,,,49,0
284807,note_on,,,,,227,0,1,,,,,0,,,76,0
284807,note_on,,,,,225,0,2,,,,,0,,,45,0
284820,note_on,,,,,0,0,1,,,,,0,,,72,75
284820,note_on,,,,,13,0,1,,,,,0,,,68,75
284820,note_on,,,,,13,0,2,,,,,0,,,60,75
284820,note_on,,,,,0,0,2,,,,,0,,,63,75
284881,note_on,,,,,0,0,1,,,,,0,,,72,0
284881,note_on,,,,,61,0,2,,,,,0,,,60,0
284881,note_on,,,,,61,0,1,,,,,0,,,68,0
284881,note_on,,,,,0,0,2,,,,,0,,,63,0
284882,note_on,,,,,1,0,1,,,,,0,,,69,75
284882,note_on,,,,,0,0,2,,,,,0,,,64,75
284882,note_on,,,,,0,0,1,,,,,0,,,73,75
284882,note_on,,,,,1,0,2,,,,,0,,,61,75
285049,note_on,,,,,167,0,1,,,,,0,,,69,0
285049,note_on,,,,,167,0,2,,,,,0,,,61,0
285049,note_on,,,,,0,0,2,,,,,0,,,64,0
285049,note_on,,,,,0,0,1,,,,,0,,,73,0
285060,note_on,,,,,0,0,2,,,,,0,,,45,75
285060,note_on,,,,,0,0,2,,,,,0,,,51,75
285060,note_on,,,,,0,0,2,,,,,0,,,57,75
285060,note_on,,,,,11,0,2,,,,,0,,,45,75
285060,note_on,,,,,0,0,2,,,,,0,,,45,0
285060,note_on,,,,,0,0,1,,,,,0,,,84,75
285060,note_on,,,,,11,0,1,,,,,0,,,78,75
285060,note_on,,,,,0,0,1,,,,,0,,,78,0
285060,note_on,,,,,0,0,1,,,,,0,,,90,75
285060,note_on,,,,,0,0,1,,,,,0,,,78,75
285061,control_change,,,,,1,0,2,,,64,0,0,,,,
285062,control_change,,,,,1,0,2,,,64,127,0,,,,
285287,note_on,,,,,0,0,2,,,,,0,,,57,0
285287,note_on,,,,,0,0,2,,,,,0,,,51,0
285287,note_on,,,,,0,0,1,,,,,0,,,90,0
285287,note_on,,,,,0,0,1,,,,,0,,,84,0
285287,note_on,,,,,227,0,1,,,,,0,,,78,0
285287,note_on,,,,,225,0,2,,,,,0,,,45,0
285300,note_on,,,,,13,0,2,,,,,0,,,62,75
285300,note_on,,,,,0,0,2,,,,,0,,,65,75
285300,note_on,,,,,0,0,1,,,,,0,,,74,75
285300,note_on,,,,,13,0,1,,,,,0,,,71,75
285361,note_on,,,,,0,0,2,,,,,0,,,65,0
285361,note_on,,,,,61,0,2,,,,,0,,,62,0
285361,note_on,,,,,61,0,1,,,,,0,,,71,0
285361,note_on,,,,,0,0,1,,,,,0,,,74,0
285362,note_on,,,,,0,0,2,,,,,0,,,66,75
285362,note_on,,,,,1,0,2,,,,,0,,,63,75
285362,note_on,,,,,1,0,1,,,,,0,,,72,75
285362,note_on,,,,,0,0,1,,,,,0,,,75,75
285529,note_on,,,,,0,0,2,,,,,0,,,66,0
285529,note_on,,,,,167,0,1,,,,,0,,,72,0
285529,note_on,,,,,0,0,1,,,,,0,,,75,0
285529,note_on,,,,,167,0,2,,,,,0,,,63,0
285540,note_on,,,,,11,0,2,,,,,0,,,45,75
285540,note_on,,,,,0,0,1,,,,,0,,,78,75
285540,note_on,,,,,11,0,1,,,,,0,,,78,75
285540,note_on,,,,,0,0,2,,,,,0,,,57,75
285540,note_on,,,,,0,0,1,,,,,0,,,90,75
285540,note_on,,,,,0,0,1,,,,,0,,,84,75
285540,note_on,,,,,0,0,2,,,,,0,,,45,0
285540,note_on,,,,,0,0,2,,,,,0,,,45,75
285540,note_on,,,,,0,0,2,,,,,0,,,51,75
285540,note_on,,,,,0,0,1,,,,,0,,,78,0
285541,control_change,,,,,1,0,2,,,64,0,0,,,,
285542,control_change,,,,,1,0,2,,,64,127,0,,,,
285767,note_on,,,,,225,0,2,,,,,0,,,45,0
285767,note_on,,,,,0,0,2,,,,,0,,,51,0
285767,note_on,,,,,0,0,2,,,,,0,,,57,0
285767,note_on,,,,,227,0,1,,,,,0,,,78,0
285767,note_on,,,,,0,0,1,,,,,0,,,84,0
285767,note_on,,,,,0,0,1,,,,,0,,,90,0
285780,note_on,,,,,13,0,2,,,,,0,,,62,77
285780,note_on,,,,,13,0,1,,,,,0,,,71,77
285780,note_on,,,,,0,0,2,,,,,0,,,65,77
285780,note_on,,,,,0,0,1,,,,,0,,,74,77
285841,note_on,,,,,0,0,1,,,,,0,,,74,0
285841,note_on,,,,,61,0,2,,,,,0,,,62,0
285841,note_on,,,,,61,0,1,,,,,0,,,71,0
285841,note_on,,,,,0,0,2,,,,,0,,,65,0
285842,note_on,,,,,0,0,2,,,,,0,,,66,77
285842,note_on,,,,,0,0,1,,,,,0,,,75,77
285842,note_on,,,,,1,0,1,,,,,0,,,72,77
285842,note_on,,,,,1,0,2,,,,,0,,,63,77
285900,note_on,,,,,0,0,1,,,,,0,,,90,78
285900,note_on,,,,,0,0,2,,,,,0,,,51,78
285900,note_on,,,,,58,0,2,,,,,0,,,45,78
285900,note_on,,,,,0,0,2,,,,,0,,,57,78
285900,note_on,,,,,58,0,1,,,,,0,,,78,78
285900,note_on,,,,,0,0,1,,,,,0,,,84,78
286009,note_on,,,,,109,0,1,,,,,0,,,72,0
286009,note_on,,,,,109,0,2,,,,,0,,,63,0
286009,note_on,,,,,0,0,2,,,,,0,,,66,0
286009,note_on,,,,,0,0,1,,,,,0,,,75,0
286013,note_on,,,,,0,0,1,,,,,0,,,90,0
286013,note_on,,,,,0,0,2,,,,,0,,,57,0
286013,note_on,,,,,0,0,2,,,,,0,,,51,0
286013,note_on,,,,,0,0,1,,,,,0,,,84,0
286013,note_on,,,,,4,0,1,,,,,0,,,78,0
286013,note_on,,,,,4,0,2,,,,,0,,,45,0
286020,note_on,,,,,0,0,1,,,,,0,,,86,79
286020,note_on,,,,,7,0,2,,,,,0,,,46,79
286020,note_on,,,,,0,0,1,,,,,0,,,82,79
286020,note_on,,,,,7,0,1,,,,,0,,,82,79
286020,note_on,,,,,0,0,2,,,,,0,,,58,79
286020,note_on,,,,,0,0,2,,,,,0,,,53,79
286020,note_on,,,,,0,0,2,,,,,0,,,46,79
286020,note_on,,,,,0,0,2,,,,,0,,,46,0
286020,note_on,,,,,0,0,1,,,,,0,,,82,0
286020,note_on,,,,,0,0,1,,,,,0,,,94,79
286021,control_change,,,,,1,0,2,,,64,0,0,,,,
286022,control_change,,,,,1,0,2,,,64,127,0,,,,
286247,note_on,,,,,0,0,1,,,,,0,,,86,0
286247,note_on,,,,,227,0,1,,,,,0,,,82,0
286247,note_on,,,,,0,0,1,,,,,0,,,94,0
286247,note_on,,,,,225,0,2,,,,,0,,,46,0
286247,note_on,,,,,0,0,2,,,,,0,,,58,0
286247,note_on,,,,,0,0,2,,,,,0,,,53,0
286260,note_on,,,,,0,0,1,,,,,0,,,76,81
286260,note_on,,,,,13,0,2,,,,,0,,,61,81
286260,note_on,,,,,0,0,2,,,,,0,,,64,81
286260,note_on,,,,,13,0,1,,,,,0,,,73,81
286321,note_on,,,,,61,0,2,,,,,0,,,61,0
286321,note_on,,,,,0,0,1,,,,,0,,,76,0
286321,note_on,,,,,0,0,2,,,,,0,,,64,0
286321,note_on,,,,,61,0,1,,,,,0,,,73,0
286322,note_on,,,,,0,0,1,,,,,0,,,77,81
286322,note_on,,,,,1,0,1,,,,,0,,,74,81
286322,note_on,,,,,1,0,2,,,,,0,,,62,81
286322,note_on,,,,,0,0,2,,,,,0,,,65,81
286489,note_on,,,,,167,0,1,,,,,0,,,74,0
286489,note_on,,,,,167,0,2,,,,,0,,,62,0
286489,note_on,,,,,0,0,2,,,,,0,,,65,0
286489,note_on,,,,,0,0,1,,,,,0,,,77,0
286500,note_on,,,,,0,0,2,,,,,0,,,46,0
286500,note_on,,,,,0,0,2,,,,,0,,,46,83
286500,note_on,,,,,0,0,2,,,,,0,,,50,83
286500,note_on,,,,,0,0,2,,,,,0,,,58,83
286500,note_on,,,,,0,0,1,,,,,0,,,77,83
286500,note_on,,,,,0,0,1,,,,,0,,,82,83
286500,note_on,,,,,0,0,1,,,,,0,,,89,83
286500,note_on,,,,,11,0,1,,,,,0,,,77,83
286500,note_on,,,,,0,0,1,,,,,0,,,77,0
286500,note_on,,,,,11,0,2,,,,,0,,,46,83
286501,control_change,,,,,1,0,2,,,64,0,0,,,,
286502,control_change,,,,,1,0,2,,,64,127,0,,,,
286727,note_on,,,,,225,0,2,,,,,0,,,46,0
286727,note_on,,,,,0,0,2,,,,,0,,,58,0
286727,note_on,,,,,0,0,2,,,,,0,,,50,0
286727,note_on,,,,,0,0,1,,,,,0,,,82,0
286727,note_on,,,,,0,0,1,,,,,0,,,89,0
286727,note_on,,,,,227,0,1,,,,,0,,,77,0
286740,note_on,,,,,0,0,2,,,,,0,,,64,85
286740,note_on,,,,,13,0,1,,,,,0,,,69,85
286740,note_on,,,,,13,0,2,,,,,0,,,61,85
286740,note_on,,,,,0,0,1,,,,,0,,,73,85
286801,note_on,,,,,0,0,2,,,,,0,,,64,0
286801,note_on,,,,,61,0,2,,,,,0,,,61,0
286801,note_on,,,,,61,0,1,,,,,0,,,69,0
286801,note_on,,,,,0,0,1,,,,,0,,,73,0
286802,note_on,,,,,1,0,1,,,,,0,,,70,85
286802,note_on,,,,,0,0,1,,,,,0,,,74,85
286802,note_on,,,,,1,0,2,,,,,0,,,62,85
286802,note_on,,,,,0,0,2,,,,,0,,,65,85
286969,note_on,,,,,167,0,2,,,,,0,,,62,0
286969,note_on,,,,,0,0,1,,,,,0,,,74,0
286969,note_on,,,,,167,0,1,,,,,0,,,70,0
286969,note_on,,,,,0,0,2,,,,,0,,,65,0
286980,note_on,,,,,11,0,2,,,,,0,,,46,87
286980,note_on,,,,,0,0,2,,,,,0,,,58,87
286980,note_on,,,,,0,0,2,,,,,0,,,52,87
286980,note_on,,,,,0,0,2,,,,,0,,,46,87
286980,note_on,,,,,0,0,2,,,,,0,,,46,0
286980,note_on,,,,,0,0,1,,,,,0,,,79,87
286980,note_on,,,,,0,0,1,,,,,0,,,79,0
286980,note_on,,,,,0,0,1,,,,,0,,,85,87
286980,note_on,,,,,11,0,1,,,,,0,,,79,87
286980,note_on,,,,,0,0,1,,,,,0,,,91,87
286981,control_change,,,,,1,0,2,,,64,0,0,,,,
286982,control_change,,,,,1,0,2,,,64,127,0,,,,
287207,note_on,,,,,225,0,2,,,,,0,,,46,0
287207,note_on,,,,,0,0,2,,,,,0,,,58,0
287207,note_on,,,,,227,0,1,,,,,0,,,79,0
287207,note_on,,,,,0,0,2,,,,,0,,,52,0
287207,note_on,,,,,0,0,1,,,,,0,,,85,0
287207,note_on,,,,,0,0,1,,,,,0,,,91,0
287220,note_on,,,,,0,0,1,,,,,0,,,75,89
287220,note_on,,,,,0,0,2,,,,,0,,,66,89
287220,note_on,,,,,13,0,2,,,,,0,,,63,89
287220,note_on,,,,,13,0,1,,,,,0,,,72,89
287281,note_on,,,,,0,0,1,,,,,0,,,75,0
287281,note_on,,,,,61,0,2,,,,,0,,,63,0
287281,note_on,,,,,0,0,2,,,,,0,,,66,0
287281,note_on,,,,,61,0,1,,,,,0,,,72,0
287282,note_on,,,,,1,0,2,,,,,0,,,64,89
287282,note_on,,,,,0,0,2,,,,,0,,,67,89
287282,note_on,,,,,0,0,1,,,,,0,,,76,89
287282,note_on,,,,,1,0,1,,,,,0,,,73,89
287449,note_on,,,,,0,0,2,,,,,0,,,67,0
287449,note_on,,,,,167,0,2,,,,,0,,,64,0
287449,note_on,,,,,167,0,1,,,,,0,,,73,0
287449,note_on,,,,,0,0,1,,,,,0,,,76,0
287460,note_on,,,,,11,0,2,,,,,0,,,46,91
287460,note_on,,,,,0,0,2,,,,,0,,,52,91
287460,note_on,,,,,0,0,2,,,,,0,,,58,91
287460,note_on,,,,,11,0,1,,,,,0,,,79,91
287460,note_on,,,,,0,0,2,,,,,0,,,46,91
287460,note_on,,,,,0,0,1,,,,,0,,,79,0
287460,note_on,,,,,0,0,1,,,,,0,,,79,91
287460,note_on,,,,,0,0,2,,,,,0,,,46,0
287460,note_on,,,,,0,0,1,,,,,0,,,85,91
287460,note_on,,,,,0,0,1,,,,,0,,,91,91
287461,control_change,,,,,1,0,2,,,64,0,0,,,,
287462,control_change,,,,,1,0,2,,,64,127,0,,,,
287687,note_on,,,,,0,0,2,,,,,0,,,58,0
287687,note_on,,,,,0,0,1,,,,,0,,,85,0
287687,note_on,,,,,225,0,2,,,,,0,,,46,0
287687,note_on,,,,,0,0,1,,,,,0,,,91,0
287687,note_on,,,,,227,0,1,,,,,0,,,79,0
287687,note_on,,,,,0,0,2,,,,,0,,,52,0
287700,note_on,,,,,0,0,1,,,,,0,,,75,93
287700,note_on,,,,,13,0,2,,,,,0,,,63,93
287700,note_on,,,,,0,0,2,,,,,0,,,66,93
287700,note_on,,,,,13,0,1,,,,,0,,,72,93
287761,note_on,,,,,61,0,1,,,,,0,,,72,0
287761,note_on,,,,,0,0,1,,,,,0,,,75,0
287761,note_on,,,,,0,0,2,,,,,0,,,66,0
287761,note_on,,,,,61,0,2,,,,,0,,,63,0
287762,note_on,,,,,1,0,2,,,,,0,,,64,93
287762,note_on,,,,,0,0,1,,,,,0,,,76,93
287762,note_on,,,,,1,0,1,,,,,0,,,73,93
287762,note_on,,,,,0,0,2,,,,,0,,,67,93
287820,note_on,,,,,58,0,1,,,,,0,,,79,94
287820,note_on,,,,,0,0,1,,,,,0,,,91,94
287820,note_on,,,,,0,0,2,,,,,0,,,58,94
287820,note_on,,,,,0,0,1,,,,,0,,,85,94
287820,note_on,,,,,0,0,2,,,,,0,,,52,94
287820,note_on,,,,,58,0,2,,,,,0,,,46,94
287929,note_on,,,,,0,0,1,,,,,0,,,76,0
287929,note_on,,,,,109,0,1,,,,,0,,,73,0
287929,note_on,,,,,109,0,2,,,,,0,,,64,0
287929,note_on,,,,,0,0,2,,,,,0,,,67,0
287933,note_on,,,,,0,0,2,,,,,0,,,52,0
287933,note_on,,,,,4,0,2,,,,,0,,,46,0
287933,note_on,,,,,4,0,1,,,,,0,,,79,0
287933,note_on,,,,,0,0,1,,,,,0,,,85,0
287933,note_on,,,,,0,0,1,,,,,0,,,91,0
287933,note_on,,,,,0,0,2,,,,,0,,,58,0
287940,note_on,,,,,0,0,2,,,,,0,,,47,95
287940,note_on,,,,,0,0,2,,,,,0,,,54,95
287940,note_on,,,,,0,0,1,,,,,0,,,83,0
287940,note_on,,,,,0,0,2,,,,,0,,,59,95
287940,note_on,,,,,0,0,1,,,,,0,,,83,95
287940,note_on,,,,,0,0,2,,,,,0,,,47,0
287940,note_on,,,,,7,0,2,,,,,0,,,47,95
287940,note_on,,,,,0,0,1,,,,,0,,,95,95
287940,note_on,,,,,0,0,1,,,,,0,,,87,95
287940,note_on,,,,,7,0,1,,,,,0,,,83,95
287941,control_change,,,,,1,0,2,,,64,0,0,,,,
287942,control_change,,,,,1,0,2,,,64,127,0,,,,
288167,note_on,,,,,225,0,2,,,,,0,,,47,0
288167,note_on,,,,,0,0,2,,,,,0,,,54,0
288167,note_on,,,,,0,0,1,,,,,0,,,95,0
288167,note_on,,,,,0,0,1,,,,,0,,,87,0
288167,note_on,,,,,227,0,1,,,,,0,,,83,0
288167,note_on,,,,,0,0,2,,,,,0,,,59,0
288180,note_on,,,,,0,0,1,,,,,0,,,74,97
288180,note_on,,,,,13,0,1,,,,,0,,,70,97
288180,note_on,,,,,13,0,2,,,,,0,,,62,97
288180,note_on,,,,,0,0,2,,,,,0,,,65,97
288241,note_on,,,,,61,0,2,,,,,0,,,62,0
288241,note_on,,,,,0,0,2,,,,,0,,,65,0
288241,note_on,,,,,61,0,1,,,,,0,,,70,0
288241,note_on,,,,,0,0,1,,,,,0,,,74,0
288242,note_on,,,,,0,0,2,,,,,0,,,66,97
288242,note_on,,,,,1,0,1,,,,,0,,,71,97
288242,note_on,,,,,0,0,1,,,,,0,,,75,97
288242,note_on,,,,,1,0,2,,,,,0,,,63,97
288409,note_on,,,,,167,0,2,,,,,0,,,63,0
288409,note_on,,,,,0,0,1,,,,,0,,,75,0
288409,note_on,,,,,0,0,2,,,,,0,,,66,0
288409,note_on,,,,,167,0,1,,,,,0,,,71,0
288420,note_on,,,,,0,0,1,,,,,0,,,95,99
288420,note_on,,,,,0,0,1,,,,,0,,,83,99
288420,note_on,,,,,0,0,1,,,,,0,,,83,0
288420,note_on,,,,,11,0,1,,,,,0,,,83,99
288420,note_on,,,,,0,0,2,,,,,0,,,47,0
288420,note_on,,,,,0,0,2,,,,,0,,,47,99
288420,note_on,,,,,0,0,2,,,,,0,,,59,99
288420,note_on,,,,,11,0,2,,,,,0,,,47,99
288421,control_change,,,,,1,0,2,,,64,0,0,,,,
288422,control_change,,,,,1,0,2,,,64,127,0,,,,
288647,note_on,,,,,0,0,2,,,,,0,,,59,0
288647,note_on,,,,,227,0,1,,,,,0,,,83,0
288647,note_on,,,,,225,0,2,,,,,0,,,47,0
288647,note_on,,,,,0,0,1,,,,,0,,,95,0
288660,note_on,,,,,0,0,2,,,,,0,,,67,101
288660,note_on,,,,,13,0,2,,,,,0,,,64,101
288660,note_on,,,,,13,0,1,,,,,0,,,73,101
288660,note_on,,,,,0,0,1,,,,,0,,,76,101
288721,note_on,,,,,61,0,1,,,,,0,,,73,0
288721,note_on,,,,,0,0,1,,,,,0,,,76,0
288721,note_on,,,,,0,0,2,,,,,0,,,67,0
288721,note_on,,,,,61,0,2,,,,,0,,,64,0
288722,note_on,,,,,1,0,1,,,,,0,,,74,101
288722,note_on,,,,,0,0,2,,,,,0,,,68,101
288722,note_on,,,,,0,0,1,,,,,0,,,77,101
288722,note_on,,,,,1,0,2,,,,,0,,,65,101
288780,note_on,,,,,58,0,1,,,,,0,,,83,102
288780,note_on,,,,,0,0,2,,,,,0,,,59,102
288780,note_on,,,,,0,0,1,,,,,0,,,95,102
288780,note_on,,,,,58,0,2,,,,,0,,,47,102
288889,note_on,,,,,0,0,1,,,,,0,,,77,0
288889,note_on,,,,,109,0,2,,,,,0,,,65,0
288889,note_on,,,,,0,0,2,,,,,0,,,68,0
288889,note_on,,,,,109,0,1,,,,,0,,,74,0
288893,note_on,,,,,0,0,2,,,,,0,,,59,0
288893,note_on,,,,,4,0,1,,,,,0,,,83,0
288893,note_on,,,,,0,0,1,,,,,0,,,95,0
288893,note_on,,,,,4,0,2,,,,,0,,,47,0
288900,note_on,,,,,0,0,2,,,,,0,,,48,0
288900,note_on,,,,,0,0,2,,,,,0,,,48,103
288900,note_on,,,,,0,0,2,,,,,0,,,60,103
288900,note_on,,,,,0,0,1,,,,,0,,,96,103
288900,note_on,,,,,0,0,1,,,,,0,,,84,103
288900,note_on,,,,,0,0,1,,,,,0,,,84,0
288900,note_on,,,,,7,0,1,,,,,0,,,84,103
288900,note_on,,,,,7,0,2,,,,,0,,,48,103
288901,control_change,,,,,1,0,2,,,64,0,0,,,,
288902,control_change,,,,,1,0,2,,,64,127,0,,,,
289127,note_on,,,,,225,0,2,,,,,0,,,48,0
289127,note_on,,,,,227,0,1,,,,,0,,,84,0
289127,note_on,,,,,0,0,1,,,,,0,,,96,0
289127,note_on,,,,,0,0,2,,,,,0,,,60,0
289140,note_on,,,,,0,0,1,,,,,0,,,75,105
289140,note_on,,,,,13,0,1,,,,,0,,,71,105
289140,note_on,,,,,0,0,2,,,,,0,,,66,105
289140,note_on,,,,,13,0,2,,,,,0,,,63,105
289201,note_on,,,,,0,0,2,,,,,0,,,66,0
289201,note_on,,,,,61,0,2,,,,,0,,,63,0
289201,note_on,,,,,0,0,1,,,,,0,,,75,0
289201,note_on,,,,,61,0,1,,,,,0,,,71,0
289202,note_on,,,,,1,0,2,,,,,0,,,64,105
289202,note_on,,,,,0,0,2,,,,,0,,,67,105
289202,note_on,,,,,1,0,1,,,,,0,,,72,105
289202,note_on,,,,,0,0,1,,,,,0,,,76,105
289369,note_on,,,,,167,0,1,,,,,0,,,72,0
289369,note_on,,,,,0,0,2,,,,,0,,,67,0
289369,note_on,,,,,167,0,2,,,,,0,,,64,0
289369,note_on,,,,,0,0,1,,,,,0,,,76,0
289380,note_on,,,,,0,0,2,,,,,0,,,49,107
289380,note_on,,,,,0,0,2,,,,,0,,,61,107
289380,note_on,,,,,0,0,2,,,,,0,,,49,0
289380,note_on,,,,,11,0,2,,,,,0,,,49,107
289380,note_on,,,,,11,0,1,,,,,0,,,85,107
289380,set_tempo,,,,,13920,1,0,,599999,,,,,,,
289380,note_on,,,,,0,0,1,,,,,0,,,85,0
289380,note_on,,,,,0,0,1,,,,,0,,,97,107
289380,note_on,,,,,0,0,1,,,,,0,,,85,107
289381,control_change,,,,,1,0,2,,,64,0,0,,,,
289382,control_change,,,,,1,0,2,,,64,127,0,,,,
289607,note_on,,,,,0,0,2,,,,,0,,,61,0
289607,note_on,,,,,225,0,2,,,,,0,,,49,0
289607,note_on,,,,,227,0,1,,,,,0,,,85,0
289607,note_on,,,,,0,0,1,,,,,0,,,97,0
289620,note_on,,,,,13,0,1,,,,,0,,,75,109
289620,note_on,,,,,13,0,2,,,,,0,,,66,109
289620,note_on,,,,,0,0,2,,,,,0,,,69,109
289620,note_on,,,,,0,0,1,,,,,0,,,78,109
289670,note_on,,,,,0,0,2,,,,,0,,,69,0
289670,note_on,,,,,50,0,2,,,,,0,,,66,0
289670,note_on,,,,,50,0,1,,,,,0,,,75,0
289670,note_on,,,,,0,0,1,,,,,0,,,78,0
289671,note_on,,,,,1,0,1,,,,,0,,,76,109
289671,note_on,,,,,1,0,2,,,,,0,,,67,109
289671,note_on,,,,,0,0,1,,,,,0,,,79,109
289671,note_on,,,,,0,0,2,,,,,0,,,70,109
289740,note_on,,,,,0,0,2,,,,,0,,,61,110
289740,note_on,,,,,69,0,2,,,,,0,,,49,110
289740,note_on,,,,,0,0,1,,,,,0,,,97,110
289740,note_on,,,,,69,0,1,,,,,0,,,85,110
289848,note_on,,,,,108,0,2,,,,,0,,,67,0
289848,note_on,,,,,0,0,1,,,,,0,,,79,0
289848,note_on,,,,,0,0,2,,,,,0,,,70,0
289848,note_on,,,,,108,0,1,,,,,0,,,76,0
289853,note_on,,,,,5,0,1,,,,,0,,,85,0
289853,note_on,,,,,0,0,1,,,,,0,,,97,0
289853,note_on,,,,,5,0,2,,,,,0,,,49,0
289853,note_on,,,,,0,0,2,,,,,0,,,61,0
289860,note_on,,,,,0,0,2,,,,,0,,,50,0
289860,note_on,,,,,0,0,2,,,,,0,,,62,112
289860,note_on,,,,,7,0,2,,,,,0,,,50,112
289860,set_tempo,,,,,480,1,0,,500000,,,,,,,
289860,note_on,,,,,7,0,1,,,,,0,,,86,112
289860,note_on,,,,,0,0,1,,,,,0,,,98,112
289860,note_on,,,,,0,0,2,,,,,0,,,50,112
289860,note_on,,,,,0,0,1,,,,,0,,,86,112
289860,note_on,,,,,0,0,1,,,,,0,,,86,0
289861,control_change,,,,,1,0,2,,,64,0,0,,,,
289862,control_change,,,,,1,0,2,,,64,127,0,,,,
290087,note_on,,,,,0,0,1,,,,,0,,,98,0
290087,note_on,,,,,0,0,2,,,,,0,,,62,0
290087,note_on,,,,,227,0,1,,,,,0,,,86,0
290087,note_on,,,,,225,0,2,,,,,0,,,50,0
290100,note_on,,,,,0,0,2,,,,,0,,,68,112
290100,note_on,,,,,13,0,1,,,,,0,,,76,112
290100,note_on,,,,,0,0,1,,,,,0,,,80,112
290100,note_on,,,,,13,0,2,,,,,0,,,64,112
290161,note_on,,,,,0,0,2,,,,,0,,,68,0
290161,note_on,,,,,61,0,1,,,,,0,,,76,0
290161,note_on,,,,,61,0,2,,,,,0,,,64,0
290161,note_on,,,,,0,0,1,,,,,0,,,80,0
290162,note_on,,,,,0,0,2,,,,,0,,,69,112
290162,note_on,,,,,0,0,1,,,,,0,,,81,112
290162,note_on,,,,,1,0,1,,,,,0,,,77,112
290162,note_on,,,,,1,0,2,,,,,0,,,65,112
290329,note_on,,,,,0,0,1,,,,,0,,,81,0
290329,note_on,,,,,167,0,2,,,,,0,,,65,0
290329,note_on,,,,,0,0,2,,,,,0,,,69,0
290329,note_on,,,,,167,0,1,,,,,0,,,77,0
290340,note_on,,,,,11,0,2,,,,,0,,,45,112
290340,note_on,,,,,0,0,2,,,,,0,,,57,112
290340,note_on,,,,,0,0,2,,,,,0,,,45,0
290340,note_on,,,,,11,0,1,,,,,0,,,81,112
290340,note_on,,,,,0,0,2,,,,,0,,,45,112
290340,note_on,,,,,0,0,1,,,,,0,,,81,0
290340,note_on,,,,,0,0,1,,,,,0,,,81,112
290340,note_on,,,,,0,0,1,,,,,0,,,93,112
290341,control_change,,,,,1,0,2,,,64,0,0,,,,
290342,control_change,,,,,1,0,2,,,64,127,0,,,,
290567,note_on,,,,,0,0,2,,,,,0,,,57,0
290567,note_on,,,,,225,0,2,,,,,0,,,45,0
290567,note_on,,,,,0,0,1,,,,,0,,,93,0
290567,note_on,,,,,227,0,1,,,,,0,,,81,0
290580,note_on,,,,,0,0,1,,,,,0,,,76,112
290580,note_on,,,,,13,0,2,,,,,0,,,61,112
290580,note_on,,,,,0,0,2,,,,,0,,,64,112
290580,note_on,,,,,13,0,1,,,,,0,,,73,112
290641,note_on,,,,,61,0,2,,,,,0,,,61,0
290641,note_on,,,,,0,0,1,,,,,0,,,76,0
290641,note_on,,,,,0,0,2,,,,,0,,,64,0
290641,note_on,,,,,61,0,1,,,,,0,,,73,0
290642,note_on,,,,,1,0,1,,,,,0,,,74,112
290642,note_on,,,,,0,0,1,,,,,0,,,77,112
290642,note_on,,,,,0,0,2,,,,,0,,,65,112
290642,note_on,,,,,1,0,2,,,,,0,,,62,112
290809,note_on,,,,,0,0,1,,,,,0,,,77,0
290809,note_on,,,,,0,0,2,,,,,0,,,65,0
290809,note_on,,,,,167,0,2,,,,,0,,,62,0
290809,note_on,,,,,167,0,1,,,,,0,,,74,0
290820,note_on,,,,,11,0,1,,,,,0,,,77,112
290820,note_on,,,,,0,0,2,,,,,0,,,53,112
290820,note_on,,,,,0,0,2,,,,,0,,,41,0
290820,note_on,,,,,0,0,2,,,,,0,,,41,112
290820,note_on,,,,,0,0,1,,,,,0,,,77,0
290820,note_on,,,,,11,0,2,,,,,0,,,41,112
290820,note_on,,,,,0,0,1,,,,,0,,,77,112
290820,note_on,,,,,0,0,1,,,,,0,,,89,112
290821,control_change,,,,,1,0,2,,,64,0,0,,,,
290822,control_change,,,,,1,0,2,,,64,127,0,,,,
291047,note_on,,,,,0,0,1,,,,,0,,,89,0
291047,note_on,,,,,227,0,1,,,,,0,,,77,0
291047,note_on,,,,,0,0,2,,,,,0,,,53,0
291047,note_on,,,,,225,0,2,,,,,0,,,41,0
291060,note_on,,,,,0,0,1,,,,,0,,,73,112
291060,note_on,,,,,13,0,1,,,,,0,,,68,112
291060,note_on,,,,,13,0,2,,,,,0,,,56,112
291060,note_on,,,,,0,0,2,,,,,0,,,61,112
291121,note_on,,,,,0,0,1,,,,,0,,,73,0
291121,note_on,,,,,0,0,2,,,,,0,,,61,0
291121,note_on,,,,,61,0,2,,,,,0,,,56,0
291121,note_on,,,,,61,0,1,,,,,0,,,68,0
291122,note_on,,,,,0,0,2,,,,,0,,,62,112
291122,note_on,,,,,1,0,1,,,,,0,,,69,112
291122,note_on,,,,,0,0,1,,,,,0,,,74,112
291122,note_on,,,,,1,0,2,,,,,0,,,57,112
291289,note_on,,,,,167,0,1,,,,,0,,,69,0
291289,note_on,,,,,0,0,1,,,,,0,,,74,0
291289,note_on,,,,,0,0,2,,,,,0,,,62,0
291289,note_on,,,,,167,0,2,,,,,0,,,57,0
291300,note_on,,,,,11,0,2,,,,,0,,,38,112
291300,note_on,,,,,0,0,2,,,,,0,,,38,0
291300,note_on,,,,,0,0,2,,,,,0,,,38,112
291300,note_on,,,,,0,0,2,,,,,0,,,50,112
291300,note_on,,,,,0,0,1,,,,,0,,,74,112
291300,note_on,,,,,0,0,1,,,,,0,,,74,0
291300,note_on,,,,,0,0,1,,,,,0,,,86,112
291300,note_on,,,,,11,0,1,,,,,0,,,74,112
291301,control_change,,,,,1,0,2,,,64,0,0,,,,
291302,control_change,,,,,1,0,2,,,64,127,0,,,,
291527,note_on,,,,,0,0,1,,,,,0,,,86,0
291527,note_on,,,,,225,0,2,,,,,0,,,38,0
291527,note_on,,,,,227,0,1,,,,,0,,,74,0
291527,note_on,,,,,0,0,2,,,,,0,,,50,0
291540,note_on,,,,,13,0,1,,,,,0,,,68,112
291540,note_on,,,,,13,0,2,,,,,0,,,52,112
291540,note_on,,,,,0,0,1,,,,,0,,,72,112
291540,note_on,,,,,0,0,2,,,,,0,,,56,112
291601,note_on,,,,,0,0,2,,,,,0,,,56,0
291601,note_on,,,,,0,0,1,,,,,0,,,72,0
291601,note_on,,,,,61,0,1,,,,,0,,,68,0
291601,note_on,,,,,61,0,2,,,,,0,,,52,0
291602,note_on,,,,,0,0,1,,,,,0,,,69,112
291602,note_on,,,,,1,0,2,,,,,0,,,53,112
291602,note_on,,,,,1,0,1,,,,,0,,,65,112
291602,note_on,,,,,0,0,2,,,,,0,,,57,112
291769,note_on,,,,,0,0,2,,,,,0,,,57,0
291769,note_on,,,,,167,0,2,,,,,0,,,53,0
291769,note_on,,,,,0,0,1,,,,,0,,,69,0
291769,note_on,,,,,167,0,1,,,,,0,,,65,0
291780,note_on,,,,,11,0,1,,,,,0,,,82,112
291780,note_on,,,,,0,0,2,,,,,0,,,46,112
291780,note_on,,,,,0,0,2,,,,,0,,,58,112
291780,note_on,,,,,11,0,2,,,,,0,,,46,112
291780,note_on,,,,,0,0,1,,,,,0,,,82,0
291780,note_on,,,,,0,0,1,,,,,0,,,82,112
291780,note_on,,,,,0,0,1,,,,,0,,,94,112
291780,note_on,,,,,0,0,2,,,,,0,,,46,0
291781,control_change,,,,,1,0,2,,,64,0,0,,,,
291782,control_change,,,,,1,0,2,,,64,127,0,,,,
292007,note_on,,,,,225,0,2,,,,,0,,,46,0
292007,note_on,,,,,0,0,2,,,,,0,,,58,0
292007,note_on,,,,,227,0,1,,,,,0,,,82,0
292007,note_on,,,,,0,0,1,,,,,0,,,94,0
292020,note_on,,,,,13,0,2,,,,,0,,,61,112
292020,note_on,,,,,0,0,2,,,,,0,,,64,112
292020,note_on,,,,,13,0,1,,,,,0,,,73,112
292020,note_on,,,,,0,0,1,,,,,0,,,76,112
292081,note_on,,,,,0,0,2,,,,,0,,,64,0
292081,note_on,,,,,61,0,2,,,,,0,,,61,0
292081,note_on,,,,,61,0,1,,,,,0,,,73,0
292081,note_on,,,,,0,0,1,,,,,0,,,76,0
292082,note_on,,,,,1,0,1,,,,,0,,,74,112
292082,note_on,,,,,0,0,1,,,,,0,,,77,112
292082,note_on,,,,,0,0,2,,,,,0,,,65,112
292082,note_on,,,,,1,0,2,,,,,0,,,62,112
292249,note_on,,,,,167,0,2,,,,,0,,,62,0
292249,note_on,,,,,0,0,1,,,,,0,,,77,0
292249,note_on,,,,,167,0,1,,,,,0,,,74,0
292249,note_on,,,,,0,0,2,,,,,0,,,65,0
292260,note_on,,,,,0,0,2,,,,,0,,,41,0
292260,note_on,,,,,0,0,2,,,,,0,,,41,112
292260,note_on,,,,,0,0,2,,,,,0,,,53,112
292260,note_on,,,,,0,0,1,,,,,0,,,77,112
292260,note_on,,,,,11,0,2,,,,,0,,,41,112
292260,note_on,,,,,0,0,1,,,,,0,,,89,112
292260,note_on,,,,,11,0,1,,,,,0,,,77,112
292260,note_on,,,,,0,0,1,,,,,0,,,77,0
292261,control_change,,,,,1,0,2,,,64,0,0,,,,
292262,control_change,,,,,1,0,2,,,64,127,0,,,,
292487,note_on,,,,,227,0,1,,,,,0,,,77,0
292487,note_on,,,,,0,0,2,,,,,0,,,53,0
292487,note_on,,,,,225,0,2,,,,,0,,,41,0
292487,note_on,,,,,0,0,1,,,,,0,,,89,0
292500,note_on,,,,,13,0,1,,,,,0,,,69,112
292500,note_on,,,,,0,0,1,,,,,0,,,73,112
292500,note_on,,,,,0,0,2,,,,,0,,,61,112
292500,note_on,,,,,13,0,2,,,,,0,,,57,112
292561,note_on,,,,,0,0,2,,,,,0,,,61,0
292561,note_on,,,,,61,0,2,,,,,0,,,57,0
292561,note_on,,,,,0,0,1,,,,,0,,,73,0
292561,note_on,,,,,61,0,1,,,,,0,,,69,0
292562,note_on,,,,,0,0,2,,,,,0,,,62,112
292562,note_on,,,,,1,0,2,,,,,0,,,58,112
292562,note_on,,,,,0,0,1,,,,,0,,,74,112
292562,note_on,,,,,1,0,1,,,,,0,,,70,112
292729,note_on,,,,,0,0,2,,,,,0,,,62,0
292729,note_on,,,,,167,0,1,,,,,0,,,70,0
292729,note_on,,,,,167,0,2,,,,,0,,,58,0
292729,note_on,,,,,0,0,1,,,,,0,,,74,0
292740,note_on,,,,,0,0,1,,,,,0,,,74,0
292740,note_on,,,,,0,0,2,,,,,0,,,50,112
292740,note_on,,,,,0,0,2,,,,,0,,,38,112
292740,note_on,,,,,0,0,2,,,,,0,,,38,0
292740,note_on,,,,,0,0,1,,,,,0,,,86,112
292740,note_on,,,,,11,0,2,,,,,0,,,38,112
292740,note_on,,,,,0,0,1,,,,,0,,,74,112
292740,note_on,,,,,11,0,1,,,,,0,,,74,112
292741,control_change,,,,,1,0,2,,,64,0,0,,,,
292742,control_change,,,,,1,0,2,,,64,127,0,,,,
292967,note_on,,,,,225,0,2,,,,,0,,,38,0
292967,note_on,,,,,227,0,1,,,,,0,,,74,0
292967,note_on,,,,,0,0,2,,,,,0,,,50,0
292967,note_on,,,,,0,0,1,,,,,0,,,86,0
292980,note_on,,,,,0,0,1,,,,,0,,,69,112
292980,note_on,,,,,13,0,2,,,,,0,,,52,112
292980,note_on,,,,,0,0,2,,,,,0,,,57,112
292980,note_on,,,,,13,0,1,,,,,0,,,64,112
293041,note_on,,,,,61,0,1,,,,,0,,,64,0
293041,note_on,,,,,61,0,2,,,,,0,,,52,0
293041,note_on,,,,,0,0,2,,,,,0,,,57,0
293041,note_on,,,,,0,0,1,,,,,0,,,69,0
293042,note_on,,,,,0,0,1,,,,,0,,,70,112
293042,note_on,,,,,0,0,2,,,,,0,,,58,112
293042,note_on,,,,,1,0,1,,,,,0,,,65,112
293042,note_on,,,,,1,0,2,,,,,0,,,53,112
293209,note_on,,,,,167,0,2,,,,,0,,,53,0
293209,note_on,,,,,0,0,2,,,,,0,,,58,0
293209,note_on,,,,,0,0,1,,,,,0,,,70,0
293209,note_on,,,,,167,0,1,,,,,0,,,65,0
293220,note_on,,,,,11,0,2,,,,,0,,,34,112
293220,note_on,,,,,11,0,1,,,,,0,,,70,112
293220,note_on,,,,,0,0,2,,,,,0,,,34,0
293220,note_on,,,,,0,0,2,,,,,0,,,34,112
293220,note_on,,,,,0,0,2,,,,,0,,,46,112
293220,note_on,,,,,0,0,1,,,,,0,,,82,112
293220,note_on,,,,,0,0,1,,,,,0,,,70,0
293220,note_on,,,,,0,0,1,,,,,0,,,70,112
293221,control_change,,,,,1,0,2,,,64,0,0,,,,
293222,control_change,,,,,1,0,2,,,64,127,0,,,,
293447,note_on,,,,,0,0,2,,,,,0,,,46,0
293447,note_on,,,,,0,0,1,,,,,0,,,82,0
293447,note_on,,,,,227,0,1,,,,,0,,,70,0
293447,note_on,,,,,225,0,2,,,,,0,,,34,0
293460,note_on,,,,,13,0,1,,,,,0,,,61,112
293460,note_on,,,,,0,0,2,,,,,0,,,52,112
293460,note_on,,,,,0,0,1,,,,,0,,,64,112
293460,note_on,,,,,13,0,2,,,,,0,,,49,112
293521,note_on,,,,,61,0,2,,,,,0,,,49,0
293521,note_on,,,,,0,0,1,,,,,0,,,64,0
293521,note_on,,,,,61,0,1,,,,,0,,,61,0
293521,note_on,,,,,0,0,2,,,,,0,,,52,0
293522,note_on,,,,,1,0,2,,,,,0,,,50,112
293522,note_on,,,,,0,0,1,,,,,0,,,65,112
293522,note_on,,,,,1,0,1,,,,,0,,,62,112
293522,note_on,,,,,0,0,2,,,,,0,,,53,112
293689,note_on,,,,,0,0,1,,,,,0,,,65,0
293689,note_on,,,,,167,0,2,,,,,0,,,50,0
293689,note_on,,,,,0,0,2,,,,,0,,,53,0
293689,note_on,,,,,167,0,1,,,,,0,,,62,0
293700,note_on,,,,,11,0,1,,,,,0,,,75,112
293700,note_on,,,,,11,0,2,,,,,0,,,39,112
293700,note_on,,,,,0,0,1,,,,,0,,,87,127
293700,note_on,,,,,0,0,1,,,,,0,,,75,0
293700,note_on,,,,,0,0,2,,,,,0,,,39,0
293700,note_on,,,,,0,0,1,,,,,0,,,75,127
293700,note_on,,,,,0,0,2,,,,,0,,,51,112
293700,note_on,,,,,0,0,2,,,,,0,,,39,112
293701,control_change,,,,,1,0,2,,,64,0,0,,,,
293702,control_change,,,,,1,0,2,,,64,127,0,,,,
293940,note_on,,,,,240,0,1,,,,,0,,,62,112
293940,note_on,,,,,0,0,2,,,,,0,,,57,112
293940,note_on,,,,,0,0,1,,,,,0,,,66,112
293940,note_on,,,,,238,0,2,,,,,0,,,54,112
294001,note_on,,,,,61,0,2,,,,,0,,,54,0
294001,note_on,,,,,61,0,1,,,,,0,,,62,0
294001,note_on,,,,,0,0,2,,,,,0,,,57,0
294001,note_on,,,,,0,0,1,,,,,0,,,66,0
294002,note_on,,,,,0,0,2,,,,,0,,,58,112
294002,note_on,,,,,0,0,1,,,,,0,,,69,112
294002,note_on,,,,,1,0,2,,,,,0,,,55,112
294002,note_on,,,,,1,0,1,,,,,0,,,63,112
294020,note_on,,,,,0,0,1,,,,,0,,,87,0
294020,note_on,,,,,18,0,1,,,,,0,,,75,0
294155,note_on,,,,,153,0,2,,,,,0,,,39,0
294155,note_on,,,,,0,0,2,,,,,0,,,51,0
294169,note_on,,,,,0,0,1,,,,,0,,,69,0
294169,note_on,,,,,0,0,2,,,,,0,,,58,0
294169,note_on,,,,,14,0,2,,,,,0,,,55,0
294169,note_on,,,,,149,0,1,,,,,0,,,63,0
294180,note_on,,,,,11,0,1,,,,,0,,,70,112
294180,note_on,,,,,0,0,2,,,,,0,,,34,0
294180,note_on,,,,,0,0,2,,,,,0,,,46,112
294180,note_on,,,,,0,0,1,,,,,0,,,82,112
294180,note_on,,,,,0,0,1,,,,,0,,,70,112
294180,note_on,,,,,11,0,2,,,,,0,,,34,112
294180,note_on,,,,,0,0,2,,,,,0,,,34,112
294180,note_on,,,,,0,0,1,,,,,0,,,70,0
294181,control_change,,,,,1,0,2,,,64,0,0,,,,
294182,control_change,,,,,1,0,2,,,64,127,0,,,,
294420,note_on,,,,,240,0,1,,,,,0,,,62,112
294420,note_on,,,,,0,0,1,,,,,0,,,66,112
294420,note_on,,,,,238,0,2,,,,,0,,,54,112
294420,note_on,,,,,0,0,2,,,,,0,,,57,112
294481,note_on,,,,,61,0,2,,,,,0,,,54,0
294481,note_on,,,,,61,0,1,,,,,0,,,62,0
294481,note_on,,,,,0,0,1,,,,,0,,,66,0
294481,note_on,,,,,0,0,2,,,,,0,,,57,0
294482,note_on,,,,,1,0,2,,,,,0,,,55,112
294482,note_on,,,,,0,0,1,,,,,0,,,67,112
294482,note_on,,,,,1,0,1,,,,,0,,,63,112
294482,note_on,,,,,0,0,2,,,,,0,,,58,112
294635,note_on,,,,,0,0,1,,,,,0,,,82,0
294635,note_on,,,,,0,0,2,,,,,0,,,46,0
294635,note_on,,,,,153,0,2,,,,,0,,,34,0
294635,note_on,,,,,153,0,1,,,,,0,,,70,0
294649,note_on,,,,,0,0,2,,,,,0,,,58,0
294649,note_on,,,,,0,0,1,,,,,0,,,67,0
294649,note_on,,,,,14,0,1,,,,,0,,,63,0
294649,note_on,,,,,14,0,2,,,,,0,,,55,0
294660,note_on,,,,,11,0,1,,,,,0,,,75,112
294660,note_on,,,,,0,0,1,,,,,0,,,87,127
294660,note_on,,,,,0,0,1,,,,,0,,,75,0
294660,note_on,,,,,0,0,1,,,,,0,,,75,127
294660,note_on,,,,,0,0,2,,,,,0,,,39,112
294660,note_on,,,,,0,0,2,,,,,0,,,51,112
294660,note_on,,,,,11,0,2,,,,,0,,,39,112
294660,note_on,,,,,0,0,2,,,,,0,,,39,0
294661,control_change,,,,,1,0,2,,,64,0,0,,,,
294662,control_change,,,,,1,0,2,,,64,127,0,,,,
294900,note_on,,,,,0,0,1,,,,,0,,,66,112
294900,note_on,,,,,0,0,2,,,,,0,,,57,112
294900,note_on,,,,,240,0,1,,,,,0,,,62,112
294900,note_on,,,,,238,0,2,,,,,0,,,54,112
294961,note_on,,,,,0,0,1,,,,,0,,,66,0
294961,note_on,,,,,61,0,2,,,,,0,,,54,0
294961,note_on,,,,,0,0,2,,,,,0,,,57,0
294961,note_on,,,,,61,0,1,,,,,0,,,62,0
294962,note_on,,,,,1,0,2,,,,,0,,,55,112
294962,note_on,,,,,0,0,2,,,,,0,,,58,112
294962,note_on,,,,,0,0,1,,,,,0,,,69,112
294962,note_on,,,,,1,0,1,,,,,0,,,63,112
294980,note_on,,,,,18,0,1,,,,,0,,,75,0
294980,note_on,,,,,0,0,1,,,,,0,,,87,0
295115,note_on,,,,,0,0,2,,,,,0,,,51,0
295115,note_on,,,,,153,0,2,,,,,0,,,39,0
295129,note_on,,,,,14,0,2,,,,,0,,,55,0
295129,note_on,,,,,0,0,2,,,,,0,,,58,0
295129,note_on,,,,,149,0,1,,,,,0,,,63,0
295129,note_on,,,,,0,0,1,,,,,0,,,69,0
295140,note_on,,,,,0,0,2,,,,,0,,,46,112
295140,note_on,,,,,11,0,1,,,,,0,,,70,112
295140,note_on,,,,,0,0,2,,,,,0,,,34,0
295140,note_on,,,,,0,0,1,,,,,0,,,82,112
295140,note_on,,,,,0,0,1,,,,,0,,,70,112
295140,note_on,,,,,0,0,1,,,,,0,,,70,0
295140,note_on,,,,,11,0,2,,,,,0,,,34,112
295140,note_on,,,,,0,0,2,,,,,0,,,34,112
295141,control_change,,,,,1,0,2,,,64,0,0,,,,
295142,control_change,,,,,1,0,2,,,64,127,0,,,,
295380,note_on,,,,,240,0,1,,,,,0,,,62,112
295380,note_on,,,,,0,0,1,,,,,0,,,66,112
295380,note_on,,,,,0,0,2,,,,,0,,,57,112
295380,note_on,,,,,238,0,2,,,,,0,,,54,112
295441,note_on,,,,,0,0,1,,,,,0,,,66,0
295441,note_on,,,,,0,0,2,,,,,0,,,57,0
295441,note_on,,,,,61,0,1,,,,,0,,,62,0
295441,note_on,,,,,61,0,2,,,,,0,,,54,0
295442,note_on,,,,,1,0,2,,,,,0,,,55,112
295442,note_on,,,,,0,0,1,,,,,0,,,67,112
295442,note_on,,,,,0,0,2,,,,,0,,,58,112
295442,note_on,,,,,1,0,1,,,,,0,,,63,112
295595,note_on,,,,,0,0,2,,,,,0,,,46,0
295595,note_on,,,,,153,0,1,,,,,0,,,70,0
295595,note_on,,,,,0,0,1,,,,,0,,,82,0
295595,note_on,,,,,153,0,2,,,,,0,,,34,0
295609,note_on,,,,,0,0,1,,,,,0,,,67,0
295609,note_on,,,,,14,0,1,,,,,0,,,63,0
295609,note_on,,,,,14,0,2,,,,,0,,,55,0
295609,note_on,,,,,0,0,2,,,,,0,,,58,0
295620,note_on,,,,,11,0,1,,,,,0,,,69,112
295620,note_on,,,,,0,0,2,,,,,0,,,45,112
295620,note_on,,,,,0,0,2,,,,,0,,,33,112
295620,note_on,,,,,0,0,2,,,,,0,,,33,0
295620,note_on,,,,,0,0,1,,,,,0,,,69,112
295620,note_on,,,,,0,0,1,,,,,0,,,81,112
295620,note_on,,,,,0,0,1,,,,,0,,,69,0
295620,note_on,,,,,11,0,2,,,,,0,,,33,112
295621,control_change,,,,,1,0,2,,,64,0,0,,,,
295622,control_change,,,,,1,0,2,,,64,127,0,,,,
295860,note_on,,,,,0,0,1,,,,,0,,,64,112
295860,note_on,,,,,238,0,2,,,,,0,,,52,112
295860,note_on,,,,,240,0,1,,,,,0,,,61,112
295860,note_on,,,,,0,0,2,,,,,0,,,56,112
295921,note_on,,,,,0,0,2,,,,,0,,,56,0
295921,note_on,,,,,0,0,1,,,,,0,,,64,0
295921,note_on,,,,,61,0,1,,,,,0,,,61,0
295921,note_on,,,,,61,0,2,,,,,0,,,52,0
295922,note_on,,,,,1,0,1,,,,,0,,,62,112
295922,note_on,,,,,0,0,2,,,,,0,,,57,112
295922,note_on,,,,,1,0,2,,,,,0,,,53,112
295922,note_on,,,,,0,0,1,,,,,0,,,65,112
296075,note_on,,,,,153,0,1,,,,,0,,,69,0
296075,note_on,,,,,153,0,2,,,,,0,,,33,0
296075,note_on,,,,,0,0,1,,,,,0,,,81,0
296075,note_on,,,,,0,0,2,,,,,0,,,45,0
296089,note_on,,,,,14,0,2,,,,,0,,,53,0
296089,note_on,,,,,14,0,1,,,,,0,,,62,0
296089,note_on,,,,,0,0,1,,,,,0,,,65,0
296089,note_on,,,,,0,0,2,,,,,0,,,57,0
296100,note_on,,,,,0,0,1,,,,,0,,,65,112
296100,note_on,,,,,11,0,1,,,,,0,,,65,112
296100,note_on,,,,,0,0,1,,,,,0,,,77,112
296100,note_on,,,,,0,0,1,,,,,0,,,65,0
296100,note_on,,,,,0,0,2,,,,,0,,,29,0
296100,note_on,,,,,11,0,2,,,,,0,,,29,112
296100,note_on,,,,,0,0,2,,,,,0,,,41,112
296100,note_on,,,,,0,0,2,,,,,0,,,29,112
296101,control_change,,,,,1,0,2,,,64,0,0,,,,
296102,control_change,,,,,1,0,2,,,64,127,0,,,,
296340,note_on,,,,,0,0,1,,,,,0,,,61,112
296340,note_on,,,,,238,0,2,,,,,0,,,52,112
296340,note_on,,,,,240,0,1,,,,,0,,,56,112
296401,note_on,,,,,61,0,1,,,,,0,,,56,0
296401,note_on,,,,,61,0,2,,,,,0,,,52,0
296401,note_on,,,,,0,0,1,,,,,0,,,61,0
296402,note_on,,,,,0,0,1,,,,,0,,,62,112
296402,note_on,,,,,1,0,2,,,,,0,,,53,112
296402,note_on,,,,,1,0,1,,,,,0,,,57,112
296555,note_on,,,,,0,0,1,,,,,0,,,77,0
296555,note_on,,,,,0,0,2,,,,,0,,,41,0
296555,note_on,,,,,153,0,1,,,,,0,,,65,0
296555,note_on,,,,,153,0,2,,,,,0,,,29,0
296569,note_on,,,,,14,0,2,,,,,0,,,53,0
296569,note_on,,,,,14,0,1,,,,,0,,,57,0
296569,note_on,,,,,0,0,1,,,,,0,,,62,0
296580,note_on,,,,,11,0,2,,,,,0,,,28,112
296580,note_on,,,,,0,0,2,,,,,0,,,40,112
296580,note_on,,,,,0,0,1,,,,,0,,,64,0
296580,note_on,,,,,11,0,1,,,,,0,,,64,112
296580,note_on,,,,,0,0,2,,,,,0,,,28,112
296580,note_on,,,,,0,0,1,,,,,0,,,64,112
296580,note_on,,,,,0,0,2,,,,,0,,,28,0
296580,note_on,,,,,0,0,1,,,,,0,,,76,112
296581,control_change,,,,,1,0,2,,,64,0,0,,,,
296582,control_change,,,,,1,0,2,,,64,127,0,,,,
296820,note_on,,,,,0,0,1,,,,,0,,,58,112
296820,note_on,,,,,238,0,2,,,,,0,,,46,112
296820,note_on,,,,,240,0,1,,,,,0,,,55,112
296820,note_on,,,,,0,0,2,,,,,0,,,50,112
296820,note_on,,,,,0,0,2,,,,,0,,,52,112
296820,note_on,,,,,0,0,1,,,,,0,,,62,112
297035,note_on,,,,,0,0,1,,,,,0,,,76,0
297035,note_on,,,,,0,0,2,,,,,0,,,40,0
297035,note_on,,,,,215,0,1,,,,,0,,,64,0
297035,note_on,,,,,215,0,2,,,,,0,,,28,0
297047,note_on,,,,,0,0,1,,,,,0,,,62,0
297047,note_on,,,,,12,0,1,,,,,0,,,55,0
297047,note_on,,,,,0,0,2,,,,,0,,,50,0
297047,note_on,,,,,0,0,2,,,,,0,,,52,0
297047,note_on,,,,,0,0,1,,,,,0,,,58,0
297047,note_on,,,,,12,0,2,,,,,0,,,46,0
297060,note_on,,,,,0,0,2,,,,,0,,,45,112
297060,note_on,,,,,13,0,1,,,,,0,,,69,112
297060,note_on,,,,,0,0,2,,,,,0,,,33,0
297060,note_on,,,,,0,0,2,,,,,0,,,33,112
297060,note_on,,,,,0,0,1,,,,,0,,,69,0
297060,note_on,,,,,0,0,1,,,,,0,,,81,112
297060,note_on,,,,,0,0,1,,,,,0,,,69,112
297060,note_on,,,,,13,0,2,,,,,0,,,33,112
297061,control_change,,,,,1,0,2,,,64,0,0,,,,
297062,control_change,,,,,1,0,2,,,64,127,0,,,,
297300,note_on,,,,,0,0,1,,,,,0,,,64,112
297300,note_on,,,,,0,0,1,,,,,0,,,69,0
297300,note_on,,,,,0,0,2,,,,,0,,,45,112
297300,note_on,,,,,0,0,2,,,,,0,,,49,112
297300,note_on,,,,,0,0,2,,,,,0,,,52,112
297300,note_on,,,,,0,0,2,,,,,0,,,55,112
297300,note_on,,,,,240,0,1,,,,,0,,,57,112
297300,note_on,,,,,238,0,2,,,,,0,,,45,0
297300,note_on,,,,,0,0,1,,,,,0,,,61,112
297300,note_on,,,,,0,0,1,,,,,0,,,69,112
297515,note_on,,,,,215,0,2,,,,,0,,,33,0
297515,note_on,,,,,215,0,1,,,,,0,,,81,0
297527,note_on,,,,,0,0,2,,,,,0,,,49,0
297527,note_on,,,,,0,0,2,,,,,0,,,55,0
297527,note_on,,,,,12,0,1,,,,,0,,,57,0
297527,note_on,,,,,0,0,1,,,,,0,,,69,0
297527,note_on,,,,,0,0,1,,,,,0,,,64,0
297527,note_on,,,,,0,0,1,,,,,0,,,61,0
297527,note_on,,,,,0,0,2,,,,,0,,,52,0
297527,note_on,,,,,12,0,2,,,,,0,,,45,0
297540,note_on,,,,,0,0,2,,,,,0,,,45,112
297540,note_on,,,,,13,0,2,,,,,0,,,38,112
297540,set_tempo,,,,,7680,1,0,,750002,,,,,,,
297540,note_on,,,,,0,0,2,,,,,0,,,50,112
297540,note_on,,,,,13,0,1,,,,,0,,,62,112
297540,note_on,,,,,0,0,1,,,,,0,,,53,112
297540,note_on,,,,,0,0,1,,,,,0,,,57,112
297541,control_change,,,,,1,0,2,,,64,0,0,,,,
297542,control_change,,,,,1,0,2,,,64,127,0,,,,
297615,note_on,,,,,75,0,1,,,,,0,,,62,0
297615,note_on,,,,,0,0,1,,,,,0,,,53,0
297615,note_on,,,,,0,0,1,,,,,0,,,57,0
297620,note_on,,,,,5,0,1,,,,,0,,,62,112
297695,note_on,,,,,75,0,1,,,,,0,,,62,0
297700,note_on,,,,,5,0,1,,,,,0,,,74,112
297767,note_on,,,,,0,0,2,,,,,0,,,50,0
297767,note_on,,,,,225,0,2,,,,,0,,,38,0
297767,note_on,,,,,0,0,2,,,,,0,,,45,0
297775,note_on,,,,,75,0,1,,,,,0,,,74,0
297780,note_on,,,,,5,0,1,,,,,0,,,74,112
297855,note_on,,,,,75,0,1,,,,,0,,,74,0
297860,note_on,,,,,5,0,1,,,,,0,,,86,112
297935,note_on,,,,,75,0,1,,,,,0,,,86,0
297940,note_on,,,,,5,0,1,,,,,0,,,86,112
298015,note_on,,,,,75,0,1,,,,,0,,,86,0
298020,note_on,,,,,5,0,1,,,,,0,,,98,112
298095,note_on,,,,,75,0,1,,,,,0,,,98,0
298100,note_on,,,,,5,0,1,,,,,0,,,86,112
298175,note_on,,,,,75,0,1,,,,,0,,,86,0
298180,note_on,,,,,5,0,1,,,,,0,,,86,112
298255,note_on,,,,,75,0,1,,,,,0,,,86,0
298260,note_on,,,,,5,0,1,,,,,0,,,74,112
298335,note_on,,,,,75,0,1,,,,,0,,,74,0
298340,note_on,,,,,5,0,1,,,,,0,,,74,112
298380,note_on,,,,,0,0,2,,,,,0,,,50,112
298380,note_on,,,,,613,0,2,,,,,0,,,38,112
298415,note_on,,,,,75,0,1,,,,,0,,,74,0
298420,note_on,,,,,5,0,1,,,,,0,,,62,112
298493,note_on,,,,,113,0,2,,,,,0,,,38,0
298493,note_on,,,,,0,0,2,,,,,0,,,50,0
298495,note_on,,,,,75,0,1,,,,,0,,,62,0
298500,note_on,,,,,7,0,2,,,,,0,,,39,127
298501,control_change,,,,,1,0,2,,,64,0,0,,,,
298502,control_change,,,,,1,0,2,,,64,127,0,,,,
298563,note_on,,,,,61,0,2,,,,,0,,,42,127
298580,note_on,,,,,0,0,1,,,,,0,,,66,112
298580,note_on,,,,,85,0,1,,,,,0,,,62,112
298627,note_on,,,,,64,0,2,,,,,0,,,45,127
298655,note_on,,,,,0,0,1,,,,,0,,,66,0
298655,note_on,,,,,75,0,1,,,,,0,,,62,0
298660,note_on,,,,,0,0,1,,,,,0,,,74,112
298660,note_on,,,,,5,0,1,,,,,0,,,72,112
298691,note_on,,,,,64,0,2,,,,,0,,,51,127
298735,note_on,,,,,0,0,1,,,,,0,,,74,0
298735,note_on,,,,,75,0,1,,,,,0,,,72,0
298740,note_on,,,,,5,0,1,,,,,0,,,74,112
298740,note_on,,,,,0,0,1,,,,,0,,,78,112
298815,note_on,,,,,0,0,1,,,,,0,,,78,0
298815,note_on,,,,,75,0,1,,,,,0,,,74,0
298820,note_on,,,,,0,0,1,,,,,0,,,86,112
298820,note_on,,,,,5,0,1,,,,,0,,,84,112
298895,note_on,,,,,75,0,1,,,,,0,,,84,0
298895,note_on,,,,,0,0,1,,,,,0,,,86,0
298900,note_on,,,,,5,0,1,,,,,0,,,86,112
298900,note_on,,,,,0,0,1,,,,,0,,,90,112
298975,note_on,,,,,0,0,1,,,,,0,,,90,0
298975,note_on,,,,,75,0,1,,,,,0,,,86,0
298980,note_on,,,,,5,0,1,,,,,0,,,96,112
298980,note_on,,,,,0,0,1,,,,,0,,,98,112
299055,note_on,,,,,0,0,1,,,,,0,,,98,0
299055,note_on,,,,,75,0,1,,,,,0,,,96,0
299060,note_on,,,,,5,0,1,,,,,0,,,86,112
299060,note_on,,,,,0,0,1,,,,,0,,,90,112
299135,note_on,,,,,75,0,1,,,,,0,,,86,0
299135,note_on,,,,,0,0,1,,,,,0,,,90,0
299140,note_on,,,,,0,0,1,,,,,0,,,86,112
299140,note_on,,,,,5,0,1,,,,,0,,,84,112
299215,note_on,,,,,0,0,1,,,,,0,,,86,0
299215,note_on,,,,,75,0,1,,,,,0,,,84,0
299220,note_on,,,,,5,0,1,,,,,0,,,74,112
299220,note_on,,,,,0,0,1,,,,,0,,,78,112
299295,note_on,,,,,75,0,1,,,,,0,,,74,0
299295,note_on,,,,,0,0,1,,,,,0,,,78,0
299300,note_on,,,,,5,0,1,,,,,0,,,72,112
299300,note_on,,,,,0,0,1,,,,,0,,,74,112
299338,note_on,,,,,0,0,2,,,,,0,,,51,0
299338,note_on,,,,,647,0,2,,,,,0,,,42,0
299338,note_on,,,,,0,0,2,,,,,0,,,45,0
299339,note_on,,,,,1,0,2,,,,,0,,,39,0
299340,note_on,,,,,1,0,2,,,,,0,,,38,112
299340,note_on,,,,,0,0,2,,,,,0,,,50,112
299375,note_on,,,,,0,0,1,,,,,0,,,74,0
299375,note_on,,,,,75,0,1,,,,,0,,,72,0
299380,note_on,,,,,0,0,1,,,,,0,,,66,112
299380,note_on,,,,,5,0,1,,,,,0,,,62,112
299453,note_on,,,,,113,0,2,,,,,0,,,38,0
299453,note_on,,,,,0,0,2,,,,,0,,,50,0
299455,note_on,,,,,0,0,1,,,,,0,,,66,0
299455,note_on,,,,,75,0,1,,,,,0,,,62,0
299460,note_on,,,,,7,0,2,,,,,0,,,41,112
299461,control_change,,,,,1,0,2,,,64,0,0,,,,
299462,control_change,,,,,1,0,2,,,64,127,0,,,,
299523,note_on,,,,,61,0,2,,,,,0,,,44,112
299540,note_on,,,,,85,0,1,,,,,0,,,62,112
299540,note_on,,,,,0,0,1,,,,,0,,,65,112
299587,note_on,,,,,64,0,2,,,,,0,,,47,112
299615,note_on,,,,,75,0,1,,,,,0,,,62,0
299615,note_on,,,,,0,0,1,,,,,0,,,65,0
299620,note_on,,,,,5,0,1,,,,,0,,,71,112
299620,note_on,,,,,0,0,1,,,,,0,,,74,112
299651,note_on,,,,,64,0,2,,,,,0,,,53,112
299695,note_on,,,,,0,0,1,,,,,0,,,74,0
299695,note_on,,,,,75,0,1,,,,,0,,,71,0
299700,note_on,,,,,5,0,1,,,,,0,,,74,112
299700,note_on,,,,,0,0,1,,,,,0,,,77,112
299775,note_on,,,,,75,0,1,,,,,0,,,74,0
299775,note_on,,,,,0,0,1,,,,,0,,,77,0
299780,note_on,,,,,5,0,1,,,,,0,,,83,112
299780,note_on,,,,,0,0,1,,,,,0,,,86,112
299855,note_on,,,,,0,0,1,,,,,0,,,86,0
299855,note_on,,,,,75,0,1,,,,,0,,,83,0
299860,note_on,,,,,0,0,1,,,,,0,,,89,112
299860,note_on,,,,,5,0,1,,,,,0,,,86,112
299935,note_on,,,,,0,0,1,,,,,0,,,89,0
299935,note_on,,,,,75,0,1,,,,,0,,,86,0
299940,note_on,,,,,0,0,1,,,,,0,,,98,112
299940,note_on,,,,,5,0,1,,,,,0,,,95,112
300015,note_on,,,,,75,0,1,,,,,0,,,95,0
300015,note_on,,,,,0,0,1,,,,,0,,,98,0
300020,note_on,,,,,5,0,1,,,,,0,,,86,112
300020,note_on,,,,,0,0,1,,,,,0,,,89,112
300095,note_on,,,,,75,0,1,,,,,0,,,86,0
300095,note_on,,,,,0,0,1,,,,,0,,,89,0
300100,note_on,,,,,0,0,1,,,,,0,,,86,112
300100,note_on,,,,,5,0,1,,,,,0,,,83,112
300175,note_on,,,,,0,0,1,,,,,0,,,86,0
300175,note_on,,,,,75,0,1,,,,,0,,,83,0
300180,note_on,,,,,0,0,1,,,,,0,,,77,112
300180,note_on,,,,,5,0,1,,,,,0,,,74,112
300255,note_on,,,,,0,0,1,,,,,0,,,77,0
300255,note_on,,,,,75,0,1,,,,,0,,,74,0
300260,note_on,,,,,0,0,1,,,,,0,,,74,112
300260,note_on,,,,,5,0,1,,,,,0,,,71,112
300298,note_on,,,,,0,0,2,,,,,0,,,47,0
300298,note_on,,,,,647,0,2,,,,,0,,,44,0
300298,note_on,,,,,0,0,2,,,,,0,,,53,0
300299,note_on,,,,,1,0,2,,,,,0,,,41,0
300300,note_on,,,,,0,0,2,,,,,0,,,50,112
300300,note_on,,,,,1,0,2,,,,,0,,,38,112
300335,note_on,,,,,75,0,1,,,,,0,,,71,0
300335,note_on,,,,,0,0,1,,,,,0,,,74,0
300340,note_on,,,,,5,0,1,,,,,0,,,62,112
300340,note_on,,,,,0,0,1,,,,,0,,,65,112
300413,note_on,,,,,0,0,2,,,,,0,,,50,0
300413,note_on,,,,,113,0,2,,,,,0,,,38,0
300415,note_on,,,,,0,0,1,,,,,0,,,65,0
300415,note_on,,,,,75,0,1,,,,,0,,,62,0
300420,note_on,,,,,7,0,2,,,,,0,,,46,112
300421,control_change,,,,,1,0,2,,,64,0,0,,,,
300422,control_change,,,,,1,0,2,,,64,127,0,,,,
300462,note_on,,,,,40,0,2,,,,,0,,,50,112
300500,note_on,,,,,0,0,1,,,,,0,,,64,112
300500,note_on,,,,,85,0,1,,,,,0,,,62,112
300504,note_on,,,,,42,0,2,,,,,0,,,55,112
300546,note_on,,,,,42,0,2,,,,,0,,,58,112
300575,note_on,,,,,0,0,1,,,,,0,,,64,0
300575,note_on,,,,,75,0,1,,,,,0,,,62,0
300580,note_on,,,,,5,0,1,,,,,0,,,70,112
300580,note_on,,,,,0,0,1,,,,,0,,,74,112
300655,note_on,,,,,0,0,1,,,,,0,,,74,0
300655,note_on,,,,,75,0,1,,,,,0,,,70,0
300659,note_on,,,,,113,0,2,,,,,0,,,46,0
300659,note_on,,,,,0,0,2,,,,,0,,,58,0
300659,note_on,,,,,0,0,2,,,,,0,,,55,0
300659,note_on,,,,,0,0,2,,,,,0,,,50,0
300660,note_on,,,,,0,0,1,,,,,0,,,76,112
300660,note_on,,,,,5,0,1,,,,,0,,,74,112
300735,note_on,,,,,75,0,1,,,,,0,,,74,0
300735,note_on,,,,,0,0,1,,,,,0,,,76,0
300740,note_on,,,,,0,0,1,,,,,0,,,86,112
300740,note_on,,,,,5,0,1,,,,,0,,,82,112
300780,note_on,,,,,0,0,2,,,,,0,,,58,112
300780,note_on,,,,,121,0,2,,,,,0,,,46,112
300815,note_on,,,,,0,0,1,,,,,0,,,86,0
300815,note_on,,,,,75,0,1,,,,,0,,,82,0
300820,note_on,,,,,0,0,1,,,,,0,,,88,112
300820,note_on,,,,,5,0,1,,,,,0,,,86,112
300893,note_on,,,,,113,0,2,,,,,0,,,46,0
300893,note_on,,,,,0,0,2,,,,,0,,,58,0
300895,note_on,,,,,0,0,1,,,,,0,,,88,0
300895,note_on,,,,,75,0,1,,,,,0,,,86,0
300900,note_on,,,,,5,0,1,,,,,0,,,94,112
300900,note_on,,,,,0,0,1,,,,,0,,,98,112
300900,note_on,,,,,0,0,2,,,,,0,,,57,112
300900,note_on,,,,,7,0,2,,,,,0,,,45,112
300901,control_change,,,,,1,0,2,,,64,0,0,,,,
300902,control_change,,,,,1,0,2,,,64,127,0,,,,
300975,note_on,,,,,75,0,1,,,,,0,,,94,0
300975,note_on,,,,,0,0,1,,,,,0,,,98,0
300980,note_on,,,,,0,0,1,,,,,0,,,88,112
300980,note_on,,,,,5,0,1,,,,,0,,,86,112
301055,note_on,,,,,75,0,1,,,,,0,,,86,0
301055,note_on,,,,,0,0,1,,,,,0,,,88,0
301060,note_on,,,,,0,0,1,,,,,0,,,86,112
301060,note_on,,,,,5,0,1,,,,,0,,,82,112
301127,note_on,,,,,0,0,2,,,,,0,,,57,0
301127,note_on,,,,,225,0,2,,,,,0,,,45,0
301135,note_on,,,,,75,0,1,,,,,0,,,82,0
301135,note_on,,,,,0,0,1,,,,,0,,,86,0
301140,note_on,,,,,5,0,1,,,,,0,,,74,112
301140,note_on,,,,,0,0,1,,,,,0,,,76,112
301215,note_on,,,,,75,0,1,,,,,0,,,74,0
301215,note_on,,,,,0,0,1,,,,,0,,,76,0
301220,note_on,,,,,5,0,1,,,,,0,,,70,112
301220,note_on,,,,,0,0,1,,,,,0,,,74,112
301260,note_on,,,,,0,0,2,,,,,0,,,55,112
301260,note_on,,,,,133,0,2,,,,,0,,,43,112
301295,note_on,,,,,75,0,1,,,,,0,,,70,0
301295,note_on,,,,,0,0,1,,,,,0,,,74,0
301300,note_on,,,,,5,0,1,,,,,0,,,62,112
301300,note_on,,,,,0,0,1,,,,,0,,,64,112
301373,note_on,,,,,0,0,2,,,,,0,,,55,0
301373,note_on,,,,,113,0,2,,,,,0,,,43,0
301375,note_on,,,,,75,0,1,,,,,0,,,62,0
301375,note_on,,,,,0,0,1,,,,,0,,,64,0
301380,note_on,,,,,7,0,2,,,,,0,,,38,112
301381,control_change,,,,,1,0,2,,,64,0,0,,,,
301443,note_on,,,,,62,0,2,,,,,0,,,42,112
301460,note_on,,,,,0,0,1,,,,,0,,,66,112
301460,note_on,,,,,85,0,1,,,,,0,,,62,112
301507,note_on,,,,,64,0,2,,,,,0,,,45,112
301535,note_on,,,,,75,0,1,,,,,0,,,62,0
301535,note_on,,,,,0,0,1,,,,,0,,,66,0
301540,note_on,,,,,0,0,1,,,,,0,,,74,112
301540,note_on,,,,,5,0,1,,,,,0,,,69,112
301571,note_on,,,,,64,0,2,,,,,0,,,50,112
301615,note_on,,,,,0,0,1,,,,,0,,,74,0
301615,note_on,,,,,75,0,1,,,,,0,,,69,0
301620,note_on,,,,,0,0,1,,,,,0,,,78,112
301620,note_on,,,,,5,0,1,,,,,0,,,74,112
301695,note_on,,,,,75,0,1,,,,,0,,,74,0
301695,note_on,,,,,0,0,1,,,,,0,,,78,0
301700,note_on,,,,,5,0,1,,,,,0,,,81,112
301700,note_on,,,,,0,0,1,,,,,0,,,86,112
301775,note_on,,,,,75,0,1,,,,,0,,,81,0
301775,note_on,,,,,0,0,1,,,,,0,,,86,0
301780,note_on,,,,,0,0,1,,,,,0,,,90,112
301780,note_on,,,,,5,0,1,,,,,0,,,86,112
301855,note_on,,,,,75,0,1,,,,,0,,,86,0
301855,note_on,,,,,0,0,1,,,,,0,,,90,0
301860,note_on,,,,,0,0,1,,,,,0,,,98,112
301860,note_on,,,,,5,0,1,,,,,0,,,93,112
301935,note_on,,,,,75,0,1,,,,,0,,,93,0
301935,note_on,,,,,0,0,1,,,,,0,,,98,0
301940,note_on,,,,,5,0,1,,,,,0,,,86,112
301940,note_on,,,,,0,0,1,,,,,0,,,90,112
302015,note_on,,,,,0,0,1,,,,,0,,,90,0
302015,note_on,,,,,75,0,1,,,,,0,,,86,0
302020,note_on,,,,,5,0,1,,,,,0,,,81,112
302020,note_on,,,,,0,0,1,,,,,0,,,86,112
302095,note_on,,,,,0,0,1,,,,,0,,,86,0
302095,note_on,,,,,75,0,1,,,,,0,,,81,0
302098,note_on,,,,,527,0,2,,,,,0,,,42,0
302098,note_on,,,,,0,0,2,,,,,0,,,50,0
302098,note_on,,,,,0,0,2,,,,,0,,,45,0
302099,note_on,,,,,1,0,2,,,,,0,,,38,0
302100,note_on,,,,,0,0,1,,,,,0,,,78,112
302100,note_on,,,,,5,0,1,,,,,0,,,74,112
302175,note_on,,,,,0,0,1,,,,,0,,,78,0
302175,note_on,,,,,75,0,1,,,,,0,,,74,0
302180,note_on,,,,,0,0,1,,,,,0,,,74,112
302180,note_on,,,,,5,0,1,,,,,0,,,69,112
302220,note_on,,,,,121,0,2,,,,,0,,,38,112
302220,note_on,,,,,0,0,2,,,,,0,,,50,112
302255,note_on,,,,,0,0,1,,,,,0,,,74,0
302255,note_on,,,,,75,0,1,,,,,0,,,69,0
302260,note_on,,,,,5,0,1,,,,,0,,,62,112
302260,note_on,,,,,0,0,1,,,,,0,,,66,112
302333,note_on,,,,,113,0,2,,,,,0,,,38,0
302333,note_on,,,,,0,0,2,,,,,0,,,50,0
302335,note_on,,,,,75,0,1,,,,,0,,,62,0
302335,note_on,,,,,0,0,1,,,,,0,,,66,0
302340,note_on,,,,,7,0,2,,,,,0,,,39,127
302403,note_on,,,,,63,0,2,,,,,0,,,42,127
302420,note_on,,,,,85,0,1,,,,,0,,,60,112
302420,note_on,,,,,0,0,1,,,,,0,,,63,112
302467,note_on,,,,,64,0,2,,,,,0,,,45,127
302495,note_on,,,,,75,0,1,,,,,0,,,60,0
302495,note_on,,,,,0,0,1,,,,,0,,,63,0
302500,note_on,,,,,5,0,1,,,,,0,,,66,112
302500,note_on,,,,,0,0,1,,,,,0,,,72,112
302531,note_on,,,,,64,0,2,,,,,0,,,51,127
302575,note_on,,,,,75,0,1,,,,,0,,,66,0
302575,note_on,,,,,0,0,1,,,,,0,,,72,0
302580,note_on,,,,,5,0,1,,,,,0,,,72,112
302580,note_on,,,,,0,0,1,,,,,0,,,75,112
302655,note_on,,,,,75,0,1,,,,,0,,,72,0
302655,note_on,,,,,0,0,1,,,,,0,,,75,0
302660,note_on,,,,,0,0,1,,,,,0,,,84,112
302660,note_on,,,,,5,0,1,,,,,0,,,78,112
302735,note_on,,,,,0,0,1,,,,,0,,,84,0
302735,note_on,,,,,75,0,1,,,,,0,,,78,0
302740,note_on,,,,,5,0,1,,,,,0,,,84,112
302740,note_on,,,,,0,0,1,,,,,0,,,87,112
302815,note_on,,,,,75,0,1,,,,,0,,,84,0
302815,note_on,,,,,0,0,1,,,,,0,,,87,0
302820,note_on,,,,,0,0,1,,,,,0,,,96,112
302820,note_on,,,,,5,0,1,,,,,0,,,90,112
302895,note_on,,,,,0,0,1,,,,,0,,,96,0
302895,note_on,,,,,75,0,1,,,,,0,,,90,0
302900,note_on,,,,,5,0,1,,,,,0,,,84,112
302900,note_on,,,,,0,0,1,,,,,0,,,87,112
302975,note_on,,,,,0,0,1,,,,,0,,,87,0
302975,note_on,,,,,75,0,1,,,,,0,,,84,0
302980,note_on,,,,,0,0,1,,,,,0,,,84,112
302980,note_on,,,,,5,0,1,,,,,0,,,78,112
303055,note_on,,,,,0,0,1,,,,,0,,,84,0
303055,note_on,,,,,75,0,1,,,,,0,,,78,0
303058,note_on,,,,,0,0,2,,,,,0,,,51,0
303058,note_on,,,,,527,0,2,,,,,0,,,42,0
303058,note_on,,,,,0,0,2,,,,,0,,,45,0
303059,note_on,,,,,1,0,2,,,,,0,,,39,0
303060,note_on,,,,,0,0,1,,,,,0,,,75,112
303060,note_on,,,,,5,0,1,,,,,0,,,72,112
303135,note_on,,,,,0,0,1,,,,,0,,,75,0
303135,note_on,,,,,75,0,1,,,,,0,,,72,0
303140,note_on,,,,,0,0,1,,,,,0,,,72,112
303140,note_on,,,,,5,0,1,,,,,0,,,66,112
303180,note_on,,,,,121,0,2,,,,,0,,,38,112
303180,note_on,,,,,0,0,2,,,,,0,,,50,112
303215,note_on,,,,,75,0,1,,,,,0,,,66,0
303215,note_on,,,,,0,0,1,,,,,0,,,72,0
303220,note_on,,,,,5,0,1,,,,,0,,,60,112
303220,note_on,,,,,0,0,1,,,,,0,,,63,112
303293,note_on,,,,,113,0,2,,,,,0,,,38,0
303293,note_on,,,,,0,0,2,,,,,0,,,50,0
303295,note_on,,,,,0,0,1,,,,,0,,,63,0
303295,note_on,,,,,75,0,1,,,,,0,,,60,0
303300,note_on,,,,,7,0,2,,,,,0,,,35,127
303363,note_on,,,,,63,0,2,,,,,0,,,41,127
303380,note_on,,,,,85,0,1,,,,,0,,,59,112
303380,note_on,,,,,0,0,1,,,,,0,,,62,112
303427,note_on,,,,,64,0,2,,,,,0,,,44,127
303455,note_on,,,,,0,0,1,,,,,0,,,62,0
303455,note_on,,,,,75,0,1,,,,,0,,,59,0
303460,note_on,,,,,5,0,1,,,,,0,,,65,112
303460,note_on,,,,,0,0,1,,,,,0,,,71,112
303491,note_on,,,,,64,0,2,,,,,0,,,47,127
303535,note_on,,,,,0,0,1,,,,,0,,,71,0
303535,note_on,,,,,75,0,1,,,,,0,,,65,0
303540,note_on,,,,,5,0,1,,,,,0,,,71,112
303540,note_on,,,,,0,0,1,,,,,0,,,74,112
303615,note_on,,,,,75,0,1,,,,,0,,,71,0
303615,note_on,,,,,0,0,1,,,,,0,,,74,0
303620,note_on,,,,,5,0,1,,,,,0,,,77,112
303620,note_on,,,,,0,0,1,,,,,0,,,83,112
303695,note_on,,,,,75,0,1,,,,,0,,,77,0
303695,note_on,,,,,0,0,1,,,,,0,,,83,0
303700,note_on,,,,,0,0,1,,,,,0,,,86,112
303700,note_on,,,,,5,0,1,,,,,0,,,83,112
303775,note_on,,,,,75,0,1,,,,,0,,,83,0
303775,note_on,,,,,0,0,1,,,,,0,,,86,0
303780,note_on,,,,,5,0,1,,,,,0,,,89,112
303780,note_on,,,,,0,0,1,,,,,0,,,95,112
303855,note_on,,,,,0,0,1,,,,,0,,,95,0
303855,note_on,,,,,75,0,1,,,,,0,,,89,0
303860,note_on,,,,,0,0,1,,,,,0,,,86,112
303860,note_on,,,,,5,0,1,,,,,0,,,83,112
303935,note_on,,,,,75,0,1,,,,,0,,,83,0
303935,note_on,,,,,0,0,1,,,,,0,,,86,0
303940,note_on,,,,,0,0,1,,,,,0,,,83,112
303940,note_on,,,,,5,0,1,,,,,0,,,77,112
304015,note_on,,,,,75,0,1,,,,,0,,,77,0
304015,note_on,,,,,0,0,1,,,,,0,,,83,0
304018,note_on,,,,,0,0,2,,,,,0,,,44,0
304018,note_on,,,,,527,0,2,,,,,0,,,41,0
304018,note_on,,,,,0,0,2,,,,,0,,,47,0
304019,note_on,,,,,1,0,2,,,,,0,,,35,0
304020,note_on,,,,,0,0,1,,,,,0,,,74,112
304020,note_on,,,,,5,0,1,,,,,0,,,71,112
304095,note_on,,,,,0,0,1,,,,,0,,,74,0
304095,note_on,,,,,75,0,1,,,,,0,,,71,0
304100,note_on,,,,,5,0,1,,,,,0,,,65,112
304100,note_on,,,,,0,0,1,,,,,0,,,71,112
304140,note_on,,,,,0,0,2,,,,,0,,,50,112
304140,note_on,,,,,121,0,2,,,,,0,,,38,112
304175,note_on,,,,,0,0,1,,,,,0,,,71,0
304175,note_on,,,,,75,0,1,,,,,0,,,65,0
304180,note_on,,,,,5,0,1,,,,,0,,,59,112
304180,note_on,,,,,0,0,1,,,,,0,,,62,112
304253,note_on,,,,,0,0,2,,,,,0,,,50,0
304253,note_on,,,,,113,0,2,,,,,0,,,38,0
304255,note_on,,,,,0,0,1,,,,,0,,,62,0
304255,note_on,,,,,75,0,1,,,,,0,,,59,0
304260,note_on,,,,,7,0,2,,,,,0,,,34,127
304260,note_on,,,,,0,0,2,,,,,0,,,46,127
304260,note_on,,,,,0,0,2,,,,,0,,,40,127
304260,note_on,,,,,5,0,1,,,,,0,,,58,112
304260,note_on,,,,,0,0,2,,,,,0,,,37,127
304260,note_on,,,,,0,0,1,,,,,0,,,61,112
304262,control_change,,,,,2,0,2,,,64,127,0,,,,
304335,note_on,,,,,75,0,1,,,,,0,,,58,0
304335,note_on,,,,,0,0,1,,,,,0,,,61,0
304340,note_on,,,,,0,0,1,,,,,0,,,70,112
304340,note_on,,,,,5,0,1,,,,,0,,,64,112
304415,note_on,,,,,75,0,1,,,,,0,,,64,0
304415,note_on,,,,,0,0,1,,,,,0,,,70,0
304420,note_on,,,,,0,0,1,,,,,0,,,73,112
304420,note_on,,,,,5,0,1,,,,,0,,,70,112
304495,note_on,,,,,75,0,1,,,,,0,,,70,0
304495,note_on,,,,,0,0,1,,,,,0,,,73,0
304499,note_on,,,,,237,0,2,,,,,0,,,34,0
304499,note_on,,,,,0,0,2,,,,,0,,,37,0
304499,note_on,,,,,0,0,2,,,,,0,,,40,0
304499,note_on,,,,,0,0,2,,,,,0,,,46,0
304500,note_on,,,,,0,0,1,,,,,0,,,82,112
304500,note_on,,,,,5,0,1,,,,,0,,,76,112
304575,note_on,,,,,75,0,1,,,,,0,,,76,0
304575,note_on,,,,,0,0,1,,,,,0,,,82,0
304580,note_on,,,,,5,0,1,,,,,0,,,82,112
304580,note_on,,,,,0,0,1,,,,,0,,,85,112
304620,note_on,,,,,121,0,2,,,,,0,,,34,112
304620,note_on,,,,,0,0,2,,,,,0,,,46,112
304655,note_on,,,,,75,0,1,,,,,0,,,82,0
304655,note_on,,,,,0,0,1,,,,,0,,,85,0
304660,note_on,,,,,5,0,1,,,,,0,,,88,112
304660,note_on,,,,,0,0,1,,,,,0,,,94,112
304733,note_on,,,,,0,0,2,,,,,0,,,46,0
304733,note_on,,,,,113,0,2,,,,,0,,,34,0
304735,note_on,,,,,0,0,1,,,,,0,,,94,0
304735,note_on,,,,,75,0,1,,,,,0,,,88,0
304740,note_on,,,,,0,0,2,,,,,0,,,40,127
304740,note_on,,,,,0,0,2,,,,,0,,,37,127
304740,note_on,,,,,7,0,2,,,,,0,,,31,127
304740,note_on,,,,,5,0,1,,,,,0,,,55,112
304740,note_on,,,,,0,0,2,,,,,0,,,43,127
304740,note_on,,,,,0,0,1,,,,,0,,,58,112
304741,control_change,,,,,1,0,2,,,64,0,0,,,,
304742,control_change,,,,,1,0,2,,,64,127,0,,,,
304815,note_on,,,,,75,0,1,,,,,0,,,55,0
304815,note_on,,,,,0,0,1,,,,,0,,,58,0
304820,note_on,,,,,0,0,1,,,,,0,,,67,112
304820,note_on,,,,,5,0,1,,,,,0,,,61,112
304895,note_on,,,,,0,0,1,,,,,0,,,67,0
304895,note_on,,,,,75,0,1,,,,,0,,,61,0
304900,note_on,,,,,5,0,1,,,,,0,,,67,112
304900,note_on,,,,,0,0,1,,,,,0,,,70,112
304975,note_on,,,,,75,0,1,,,,,0,,,67,0
304975,note_on,,,,,0,0,1,,,,,0,,,70,0
304979,note_on,,,,,0,0,2,,,,,0,,,43,0
304979,note_on,,,,,0,0,2,,,,,0,,,37,0
304979,note_on,,,,,237,0,2,,,,,0,,,31,0
304979,note_on,,,,,0,0,2,,,,,0,,,40,0
304980,note_on,,,,,5,0,1,,,,,0,,,73,112
304980,note_on,,,,,0,0,1,,,,,0,,,79,112
305055,note_on,,,,,75,0,1,,,,,0,,,73,0
305055,note_on,,,,,0,0,1,,,,,0,,,79,0
305060,note_on,,,,,5,0,1,,,,,0,,,79,112
305060,note_on,,,,,0,0,1,,,,,0,,,82,112
305100,note_on,,,,,121,0,2,,,,,0,,,31,112
305100,note_on,,,,,0,0,2,,,,,0,,,43,112
305135,note_on,,,,,75,0,1,,,,,0,,,79,0
305135,note_on,,,,,0,0,1,,,,,0,,,82,0
305140,note_on,,,,,0,0,1,,,,,0,,,91,112
305140,note_on,,,,,5,0,1,,,,,0,,,85,112
305213,note_on,,,,,113,0,2,,,,,0,,,31,0
305213,note_on,,,,,0,0,2,,,,,0,,,43,0
305215,note_on,,,,,0,0,1,,,,,0,,,91,0
305215,note_on,,,,,75,0,1,,,,,0,,,85,0
305220,note_on,,,,,5,0,1,,,,,0,,,62,112
305220,set_tempo,,,,,7680,1,0,,500000,,,,,,,
305220,note_on,,,,,0,0,2,,,,,0,,,45,112
305220,note_on,,,,,0,0,2,,,,,0,,,50,112
305220,note_on,,,,,7,0,2,,,,,0,,,38,112
305220,note_on,,,,,0,0,1,,,,,0,,,57,112
305220,note_on,,,,,0,0,1,,,,,0,,,54,112
305221,control_change,,,,,1,0,2,,,64,0,0,,,,
305298,note_on,,,,,0,0,2,,,,,0,,,50,0
305298,note_on,,,,,78,0,1,,,,,0,,,62,0
305298,note_on,,,,,0,0,1,,,,,0,,,54,0
305298,note_on,,,,,0,0,1,,,,,0,,,57,0
305298,note_on,,,,,77,0,2,,,,,0,,,38,0
305298,note_on,,,,,0,0,2,,,,,0,,,45,0
305460,note_on,,,,,0,0,1,,,,,0,,,85,127
305460,note_on,,,,,162,0,2,,,,,0,,,67,112
305460,note_on,,,,,162,0,1,,,,,0,,,94,112
305460,note_on,,,,,0,0,2,,,,,0,,,76,112
305462,control_change,,,,,2,0,2,,,64,127,0,,,,
305535,note_on,,,,,73,0,2,,,,,0,,,76,0
305539,note_on,,,,,79,0,1,,,,,0,,,85,0
305540,note_on,,,,,5,0,2,,,,,0,,,75,112
305540,note_on,,,,,1,0,1,,,,,0,,,84,112
305615,note_on,,,,,75,0,1,,,,,0,,,84,0
305615,note_on,,,,,75,0,2,,,,,0,,,75,0
305620,note_on,,,,,5,0,2,,,,,0,,,74,112
305620,note_on,,,,,5,0,1,,,,,0,,,83,112
305687,note_on,,,,,67,0,1,,,,,0,,,94,0
305687,note_on,,,,,67,0,2,,,,,0,,,67,0
305695,note_on,,,,,8,0,2,,,,,0,,,74,0
305695,note_on,,,,,8,0,1,,,,,0,,,83,0
305700,note_on,,,,,0,0,2,,,,,0,,,73,112
305700,note_on,,,,,0,0,1,,,,,0,,,82,112
305700,note_on,,,,,5,0,1,,,,,0,,,91,112
305700,note_on,,,,,5,0,2,,,,,0,,,64,112
305775,note_on,,,,,75,0,2,,,,,0,,,73,0
305775,note_on,,,,,75,0,1,,,,,0,,,82,0
305780,note_on,,,,,5,0,1,,,,,0,,,81,112
305780,note_on,,,,,5,0,2,,,,,0,,,72,112
305855,note_on,,,,,75,0,1,,,,,0,,,81,0
305855,note_on,,,,,75,0,2,,,,,0,,,72,0
305860,note_on,,,,,5,0,1,,,,,0,,,80,112
305860,note_on,,,,,5,0,2,,,,,0,,,71,112
305927,note_on,,,,,67,0,2,,,,,0,,,64,0
305927,note_on,,,,,67,0,1,,,,,0,,,91,0
305935,note_on,,,,,8,0,1,,,,,0,,,80,0
305935,note_on,,,,,8,0,2,,,,,0,,,71,0
305940,note_on,,,,,0,0,2,,,,,0,,,70,112
305940,note_on,,,,,5,0,2,,,,,0,,,61,112
305940,note_on,,,,,0,0,1,,,,,0,,,79,112
305940,note_on,,,,,5,0,1,,,,,0,,,88,112
306015,note_on,,,,,75,0,2,,,,,0,,,70,0
306015,note_on,,,,,75,0,1,,,,,0,,,79,0
306020,note_on,,,,,5,0,1,,,,,0,,,78,112
306020,note_on,,,,,5,0,2,,,,,0,,,69,112
306095,note_on,,,,,75,0,2,,,,,0,,,69,0
306095,note_on,,,,,75,0,1,,,,,0,,,78,0
306100,note_on,,,,,5,0,2,,,,,0,,,68,112
306100,note_on,,,,,5,0,1,,,,,0,,,77,112
306167,note_on,,,,,67,0,1,,,,,0,,,88,0
306167,note_on,,,,,67,0,2,,,,,0,,,61,0
306175,note_on,,,,,8,0,2,,,,,0,,,68,0
306175,note_on,,,,,8,0,1,,,,,0,,,77,0
306180,note_on,,,,,5,0,2,,,,,0,,,58,112
306180,note_on,,,,,0,0,1,,,,,0,,,85,112
306180,note_on,,,,,5,0,1,,,,,0,,,76,112
306180,note_on,,,,,0,0,2,,,,,0,,,67,112
306258,note_on,,,,,78,0,1,,,,,0,,,85,0
306258,note_on,,,,,78,0,2,,,,,0,,,67,0
306407,note_on,,,,,149,0,2,,,,,0,,,58,0
306407,note_on,,,,,149,0,1,,,,,0,,,76,0
306420,note_on,,,,,13,0,1,,,,,0,,,70,112
306420,note_on,,,,,0,0,2,,,,,0,,,55,112
306420,note_on,,,,,0,0,1,,,,,0,,,82,112
306420,note_on,,,,,13,0,2,,,,,0,,,43,112
306421,control_change,,,,,1,0,2,,,64,0,0,,,,
306533,note_on,,,,,0,0,2,,,,,0,,,55,0
306533,note_on,,,,,0,0,1,,,,,0,,,82,0
306533,note_on,,,,,112,0,2,,,,,0,,,43,0
306533,note_on,,,,,113,0,1,,,,,0,,,70,0
306540,note_on,,,,,0,0,2,,,,,0,,,52,112
306540,note_on,,,,,7,0,2,,,,,0,,,49,112
306540,note_on,,,,,7,0,1,,,,,0,,,73,112
306540,note_on,,,,,0,0,1,,,,,0,,,76,112
306653,note_on,,,,,113,0,1,,,,,0,,,73,0
306653,note_on,,,,,0,0,1,,,,,0,,,76,0
306653,note_on,,,,,113,0,2,,,,,0,,,49,0
306653,note_on,,,,,0,0,2,,,,,0,,,52,0
306660,note_on,,,,,0,0,1,,,,,0,,,81,112
306660,note_on,,,,,0,0,2,,,,,0,,,57,112
306660,note_on,,,,,7,0,1,,,,,0,,,69,112
306660,note_on,,,,,7,0,2,,,,,0,,,45,112
306773,note_on,,,,,0,0,1,,,,,0,,,81,0
306773,note_on,,,,,0,0,2,,,,,0,,,57,0
306773,note_on,,,,,113,0,2,,,,,0,,,45,0
306773,note_on,,,,,113,0,1,,,,,0,,,69,0
306780,note_on,,,,,7,0,1,,,,,0,,,73,112
306780,note_on,,,,,7,0,2,,,,,0,,,49,112
306780,note_on,,,,,0,0,1,,,,,0,,,76,112
306780,note_on,,,,,0,0,2,,,,,0,,,52,112
306893,note_on,,,,,0,0,2,,,,,0,,,52,0
306893,note_on,,,,,0,0,1,,,,,0,,,76,0
306893,note_on,,,,,113,0,1,,,,,0,,,73,0
306893,note_on,,,,,113,0,2,,,,,0,,,49,0
306900,note_on,,,,,7,0,1,,,,,0,,,67,112
306900,note_on,,,,,0,0,1,,,,,0,,,79,112
306900,note_on,,,,,7,0,2,,,,,0,,,46,112
306900,note_on,,,,,0,0,2,,,,,0,,,58,112
307013,note_on,,,,,113,0,2,,,,,0,,,46,0
307013,note_on,,,,,0,0,1,,,,,0,,,79,0
307013,note_on,,,,,0,0,2,,,,,0,,,58,0
307013,note_on,,,,,113,0,1,,,,,0,,,67,0
307020,note_on,,,,,7,0,2,,,,,0,,,52,112
307020,note_on,,,,,7,0,1,,,,,0,,,70,112
307020,note_on,,,,,0,0,2,,,,,0,,,55,112
307020,note_on,,,,,0,0,1,,,,,0,,,73,112
307133,note_on,,,,,0,0,2,,,,,0,,,55,0
307133,note_on,,,,,0,0,1,,,,,0,,,73,0
307133,note_on,,,,,113,0,1,,,,,0,,,70,0
307133,note_on,,,,,113,0,2,,,,,0,,,52,0
307140,note_on,,,,,7,0,2,,,,,0,,,50,112
307140,note_on,,,,,0,0,2,,,,,0,,,54,112
307140,note_on,,,,,0,0,2,,,,,0,,,57,112
307140,note_on,,,,,0,0,2,,,,,0,,,62,112
307140,note_on,,,,,0,0,1,,,,,0,,,86,112
307140,note_on,,,,,0,0,1,,,,,0,,,78,112
307140,note_on,,,,,7,0,1,,,,,0,,,74,112
307218,note_on,,,,,78,0,2,,,,,0,,,50,0
307218,note_on,,,,,0,0,1,,,,,0,,,78,0
307218,note_on,,,,,0,0,1,,,,,0,,,86,0
307218,note_on,,,,,0,0,2,,,,,0,,,62,0
307218,note_on,,,,,0,0,2,,,,,0,,,57,0
307218,note_on,,,,,0,0,2,,,,,0,,,54,0
307218,note_on,,,,,78,0,1,,,,,0,,,74,0
307380,note_on,,,,,0,0,2,,,,,0,,,64,112
307380,note_on,,,,,162,0,1,,,,,0,,,82,112
307380,note_on,,,,,162,0,2,,,,,0,,,55,112
307380,note_on,,,,,0,0,1,,,,,0,,,73,127
307382,control_change,,,,,2,0,2,,,64,127,0,,,,
307455,note_on,,,,,73,0,2,,,,,0,,,64,0
307459,note_on,,,,,79,0,1,,,,,0,,,73,0
307460,note_on,,,,,1,0,1,,,,,0,,,72,112
307460,note_on,,,,,5,0,2,,,,,0,,,63,112
307535,note_on,,,,,75,0,2,,,,,0,,,63,0
307535,note_on,,,,,75,0,1,,,,,0,,,72,0
307540,note_on,,,,,5,0,2,,,,,0,,,62,112
307540,note_on,,,,,5,0,1,,,,,0,,,71,112
307607,note_on,,,,,67,0,2,,,,,0,,,55,0
307607,note_on,,,,,67,0,1,,,,,0,,,82,0
307615,note_on,,,,,8,0,2,,,,,0,,,62,0
307615,note_on,,,,,8,0,1,,,,,0,,,71,0
307620,note_on,,,,,0,0,2,,,,,0,,,61,112
307620,note_on,,,,,0,0,1,,,,,0,,,70,112
307620,note_on,,,,,5,0,1,,,,,0,,,79,112
307620,note_on,,,,,5,0,2,,,,,0,,,52,112
307695,note_on,,,,,75,0,2,,,,,0,,,61,0
307695,note_on,,,,,75,0,1,,,,,0,,,70,0
307700,note_on,,,,,5,0,1,,,,,0,,,69,112
307700,note_on,,,,,5,0,2,,,,,0,,,60,112
307775,note_on,,,,,75,0,2,,,,,0,,,60,0
307775,note_on,,,,,75,0,1,,,,,0,,,69,0
307780,note_on,,,,,5,0,2,,,,,0,,,59,112
307780,note_on,,,,,5,0,1,,,,,0,,,68,112
307847,note_on,,,,,67,0,2,,,,,0,,,52,0
307847,note_on,,,,,67,0,1,,,,,0,,,79,0
307855,note_on,,,,,8,0,1,,,,,0,,,68,0
307855,note_on,,,,,8,0,2,,,,,0,,,59,0
307860,note_on,,,,,0,0,2,,,,,0,,,58,112
307860,note_on,,,,,5,0,1,,,,,0,,,76,112
307860,note_on,,,,,0,0,1,,,,,0,,,67,112
307860,note_on,,,,,5,0,2,,,,,0,,,49,112
307935,note_on,,,,,75,0,1,,,,,0,,,67,0
307935,note_on,,,,,75,0,2,,,,,0,,,58,0
307940,note_on,,,,,5,0,2,,,,,0,,,57,112
307940,note_on,,,,,5,0,1,,,,,0,,,66,112
308015,note_on,,,,,75,0,2,,,,,0,,,57,0
308015,note_on,,,,,75,0,1,,,,,0,,,66,0
308020,note_on,,,,,5,0,1,,,,,0,,,65,112
308020,note_on,,,,,5,0,2,,,,,0,,,56,112
308087,note_on,,,,,67,0,2,,,,,0,,,49,0
308087,note_on,,,,,67,0,1,,,,,0,,,76,0
308095,note_on,,,,,8,0,1,,,,,0,,,65,0
308095,note_on,,,,,8,0,2,,,,,0,,,56,0
308100,note_on,,,,,0,0,1,,,,,0,,,73,112
308100,note_on,,,,,5,0,2,,,,,0,,,46,112
308100,note_on,,,,,5,0,1,,,,,0,,,64,112
308100,note_on,,,,,0,0,2,,,,,0,,,55,112
308178,note_on,,,,,78,0,1,,,,,0,,,73,0
308178,note_on,,,,,78,0,2,,,,,0,,,55,0
308327,note_on,,,,,149,0,2,,,,,0,,,46,0
308327,note_on,,,,,149,0,1,,,,,0,,,64,0
308340,note_on,,,,,0,0,2,,,,,0,,,43,112
308340,note_on,,,,,13,0,1,,,,,0,,,58,112
308340,note_on,,,,,0,0,1,,,,,0,,,70,112
308340,note_on,,,,,13,0,2,,,,,0,,,31,112
308341,control_change,,,,,1,0,2,,,64,0,0,,,,
308453,note_on,,,,,0,0,2,,,,,0,,,43,0
308453,note_on,,,,,0,0,1,,,,,0,,,70,0
308453,note_on,,,,,113,0,1,,,,,0,,,58,0
308453,note_on,,,,,112,0,2,,,,,0,,,31,0
308460,note_on,,,,,0,0,2,,,,,0,,,40,112
308460,note_on,,,,,0,0,1,,,,,0,,,64,112
308460,note_on,,,,,7,0,2,,,,,0,,,37,112
308460,note_on,,,,,7,0,1,,,,,0,,,61,112
308573,note_on,,,,,0,0,1,,,,,0,,,64,0
308573,note_on,,,,,0,0,2,,,,,0,,,40,0
308573,note_on,,,,,113,0,2,,,,,0,,,37,0
308573,note_on,,,,,113,0,1,,,,,0,,,61,0
308580,note_on,,,,,7,0,2,,,,,0,,,33,112
308580,note_on,,,,,0,0,1,,,,,0,,,69,112
308580,note_on,,,,,0,0,2,,,,,0,,,45,112
308580,note_on,,,,,7,0,1,,,,,0,,,57,112
308693,note_on,,,,,113,0,2,,,,,0,,,33,0
308693,note_on,,,,,113,0,1,,,,,0,,,57,0
308693,note_on,,,,,0,0,1,,,,,0,,,69,0
308693,note_on,,,,,0,0,2,,,,,0,,,45,0
308700,note_on,,,,,7,0,2,,,,,0,,,37,112
308700,note_on,,,,,7,0,1,,,,,0,,,61,112
308700,note_on,,,,,0,0,2,,,,,0,,,40,112
308700,note_on,,,,,0,0,1,,,,,0,,,64,112
308813,note_on,,,,,0,0,2,,,,,0,,,40,0
308813,note_on,,,,,113,0,1,,,,,0,,,61,0
308813,note_on,,,,,113,0,2,,,,,0,,,37,0
308813,note_on,,,,,0,0,1,,,,,0,,,64,0
308820,note_on,,,,,0,0,2,,,,,0,,,46,112
308820,note_on,,,,,7,0,1,,,,,0,,,55,112
308820,note_on,,,,,0,0,1,,,,,0,,,67,112
308820,note_on,,,,,7,0,2,,,,,0,,,34,112
308933,note_on,,,,,0,0,2,,,,,0,,,46,0
308933,note_on,,,,,113,0,2,,,,,0,,,34,0
308933,note_on,,,,,0,0,1,,,,,0,,,67,0
308933,note_on,,,,,113,0,1,,,,,0,,,55,0
308940,note_on,,,,,0,0,1,,,,,0,,,61,112
308940,note_on,,,,,7,0,2,,,,,0,,,40,112
308940,note_on,,,,,0,0,2,,,,,0,,,43,112
308940,note_on,,,,,7,0,1,,,,,0,,,58,112
309053,note_on,,,,,113,0,1,,,,,0,,,58,0
309053,note_on,,,,,0,0,2,,,,,0,,,43,0
309053,note_on,,,,,0,0,1,,,,,0,,,61,0
309053,note_on,,,,,113,0,2,,,,,0,,,40,0
309060,note_on,,,,,0,0,1,,,,,0,,,74,112
309060,note_on,,,,,0,0,2,,,,,0,,,50,112
309060,note_on,,,,,7,0,2,,,,,0,,,38,112
309060,note_on,,,,,0,0,1,,,,,0,,,66,112
309060,note_on,,,,,0,0,2,,,,,0,,,42,112
309060,note_on,,,,,0,0,2,,,,,0,,,45,112
309060,note_on,,,,,7,0,1,,,,,0,,,62,112
309138,note_on,,,,,0,0,1,,,,,0,,,74,0
309138,note_on,,,,,0,0,1,,,,,0,,,66,0
309138,note_on,,,,,78,0,1,,,,,0,,,62,0
309287,note_on,,,,,227,0,2,,,,,0,,,38,0
309287,note_on,,,,,0,0,2,,,,,0,,,50,0
309287,note_on,,,,,0,0,2,,,,,0,,,45,0
309287,note_on,,,,,0,0,2,,,,,0,,,42,0
309300,note_on,,,,,13,0,2,,,,,0,,,43,112
309300,note_on,,,,,0,0,1,,,,,0,,,76,112
309300,note_on,,,,,0,0,1,,,,,0,,,73,112
309300,note_on,,,,,0,0,1,,,,,0,,,70,112
309300,note_on,,,,,0,0,2,,,,,0,,,49,112
309300,note_on,,,,,162,0,1,,,,,0,,,64,112
309300,note_on,,,,,0,0,2,,,,,0,,,46,112
309300,note_on,,,,,0,0,2,,,,,0,,,55,112
309413,note_on,,,,,0,0,1,,,,,0,,,70,0
309413,note_on,,,,,0,0,1,,,,,0,,,73,0
309413,note_on,,,,,0,0,1,,,,,0,,,76,0
309413,note_on,,,,,113,0,1,,,,,0,,,64,0
309413,note_on,,,,,113,0,2,,,,,0,,,43,0
309413,note_on,,,,,0,0,2,,,,,0,,,49,0
309413,note_on,,,,,0,0,2,,,,,0,,,55,0
309413,note_on,,,,,0,0,2,,,,,0,,,46,0
309420,note_on,,,,,0,0,2,,,,,0,,,49,112
309420,note_on,,,,,7,0,1,,,,,0,,,64,112
309420,note_on,,,,,0,0,1,,,,,0,,,73,112
309420,note_on,,,,,0,0,1,,,,,0,,,70,112
309420,note_on,,,,,0,0,2,,,,,0,,,55,112
309420,note_on,,,,,7,0,2,,,,,0,,,43,112
309420,note_on,,,,,0,0,1,,,,,0,,,76,112
309420,note_on,,,,,0,0,2,,,,,0,,,46,112
309533,note_on,,,,,0,0,1,,,,,0,,,76,0
309533,note_on,,,,,0,0,1,,,,,0,,,73,0
309533,note_on,,,,,0,0,2,,,,,0,,,55,0
309533,note_on,,,,,0,0,2,,,,,0,,,46,0
309533,note_on,,,,,0,0,2,,,,,0,,,49,0
309533,note_on,,,,,113,0,2,,,,,0,,,43,0
309533,note_on,,,,,0,0,1,,,,,0,,,70,0
309533,note_on,,,,,113,0,1,,,,,0,,,64,0
309540,note_on,,,,,0,0,1,,,,,0,,,69,112
309540,note_on,,,,,0,0,2,,,,,0,,,54,112
309540,note_on,,,,,0,0,2,,,,,0,,,57,112
309540,note_on,,,,,7,0,2,,,,,0,,,50,112
309540,note_on,,,,,0,0,2,,,,,0,,,62,112
309540,note_on,,,,,7,0,1,,,,,0,,,66,112
309540,note_on,,,,,0,0,1,,,,,0,,,74,112
309540,note_on,,,,,0,0,1,,,,,0,,,78,112
309618,note_on,,,,,78,0,1,,,,,0,,,66,0
309618,note_on,,,,,0,0,1,,,,,0,,,69,0
309618,note_on,,,,,0,0,1,,,,,0,,,74,0
309618,note_on,,,,,0,0,1,,,,,0,,,78,0
309618,note_on,,,,,78,0,2,,,,,0,,,50,0
309618,note_on,,,,,0,0,2,,,,,0,,,62,0
309618,note_on,,,,,0,0,2,,,,,0,,,57,0
309618,note_on,,,,,0,0,2,,,,,0,,,54,0
309780,note_on,,,,,162,0,2,,,,,0,,,43,112
309780,note_on,,,,,0,0,1,,,,,0,,,82,112
309780,note_on,,,,,0,0,1,,,,,0,,,73,112
309780,note_on,,,,,162,0,1,,,,,0,,,70,112
309780,note_on,,,,,0,0,1,,,,,0,,,76,112
309780,note_on,,,,,0,0,2,,,,,0,,,46,112
309780,note_on,,,,,0,0,2,,,,,0,,,49,112
309780,note_on,,,,,0,0,2,,,,,0,,,55,112
309893,note_on,,,,,0,0,2,,,,,0,,,55,0
309893,note_on,,,,,0,0,2,,,,,0,,,46,0
309893,note_on,,,,,0,0,1,,,,,0,,,76,0
309893,note_on,,,,,0,0,1,,,,,0,,,82,0
309893,note_on,,,,,0,0,2,,,,,0,,,49,0
309893,note_on,,,,,0,0,1,,,,,0,,,73,0
309893,note_on,,,,,113,0,1,,,,,0,,,70,0
309893,note_on,,,,,113,0,2,,,,,0,,,43,0
309900,note_on,,,,,0,0,2,,,,,0,,,46,112
309900,note_on,,,,,7,0,1,,,,,0,,,70,112
309900,note_on,,,,,0,0,2,,,,,0,,,49,112
309900,note_on,,,,,0,0,1,,,,,0,,,73,112
309900,note_on,,,,,0,0,1,,,,,0,,,82,112
309900,note_on,,,,,0,0,2,,,,,0,,,55,112
309900,note_on,,,,,7,0,2,,,,,0,,,43,112
309900,note_on,,,,,0,0,1,,,,,0,,,76,112
310013,note_on,,,,,0,0,1,,,,,0,,,82,0
310013,note_on,,,,,113,0,1,,,,,0,,,70,0
310013,note_on,,,,,0,0,1,,,,,0,,,73,0
310013,note_on,,,,,0,0,1,,,,,0,,,76,0
310013,note_on,,,,,113,0,2,,,,,0,,,43,0
310013,note_on,,,,,0,0,2,,,,,0,,,55,0
310013,note_on,,,,,0,0,2,,,,,0,,,49,0
310013,note_on,,,,,0,0,2,,,,,0,,,46,0
310020,note_on,,,,,7,0,1,,,,,0,,,74,112
310020,note_on,,,,,0,0,2,,,,,0,,,50,112
310020,note_on,,,,,0,0,2,,,,,0,,,45,112
310020,note_on,,,,,0,0,2,,,,,0,,,42,112
310020,note_on,,,,,7,0,2,,,,,0,,,38,112
310020,note_on,,,,,0,0,1,,,,,0,,,78,112
310020,note_on,,,,,0,0,1,,,,,0,,,86,112
310020,note_on,,,,,0,0,1,,,,,0,,,81,112
310098,note_on,,,,,0,0,1,,,,,0,,,78,0
310098,note_on,,,,,78,0,1,,,,,0,,,74,0
310098,note_on,,,,,0,0,1,,,,,0,,,81,0
310098,note_on,,,,,0,0,1,,,,,0,,,86,0
310247,note_on,,,,,0,0,2,,,,,0,,,50,0
310247,note_on,,,,,0,0,2,,,,,0,,,45,0
310247,note_on,,,,,0,0,2,,,,,0,,,42,0
310247,note_on,,,,,227,0,2,,,,,0,,,38,0
310260,note_on,,,,,0,0,2,,,,,0,,,49,112
310260,note_on,,,,,0,0,2,,,,,0,,,55,112
310260,note_on,,,,,0,0,1,,,,,0,,,82,112
310260,note_on,,,,,0,0,1,,,,,0,,,85,112
310260,note_on,,,,,0,0,1,,,,,0,,,88,112
310260,note_on,,,,,0,0,2,,,,,0,,,46,112
310260,note_on,,,,,13,0,2,,,,,0,,,43,112
310260,note_on,,,,,162,0,1,,,,,0,,,76,112
310373,note_on,,,,,113,0,2,,,,,0,,,43,0
310373,note_on,,,,,0,0,1,,,,,0,,,82,0
310373,note_on,,,,,0,0,1,,,,,0,,,85,0
310373,note_on,,,,,113,0,1,,,,,0,,,76,0
310373,note_on,,,,,0,0,1,,,,,0,,,88,0
310373,note_on,,,,,0,0,2,,,,,0,,,46,0
310373,note_on,,,,,0,0,2,,,,,0,,,49,0
310373,note_on,,,,,0,0,2,,,,,0,,,55,0
310380,note_on,,,,,0,0,1,,,,,0,,,82,112
310380,note_on,,,,,7,0,1,,,,,0,,,76,112
310380,note_on,,,,,7,0,2,,,,,0,,,43,112
310380,note_on,,,,,0,0,1,,,,,0,,,85,112
310380,note_on,,,,,0,0,2,,,,,0,,,46,112
310380,note_on,,,,,0,0,2,,,,,0,,,49,112
310380,note_on,,,,,0,0,2,,,,,0,,,55,112
310380,note_on,,,,,0,0,1,,,,,0,,,88,112
310493,note_on,,,,,0,0,2,,,,,0,,,46,0
310493,note_on,,,,,0,0,1,,,,,0,,,88,0
310493,note_on,,,,,0,0,1,,,,,0,,,85,0
310493,note_on,,,,,0,0,2,,,,,0,,,55,0
310493,note_on,,,,,113,0,1,,,,,0,,,76,0
310493,note_on,,,,,0,0,2,,,,,0,,,49,0
310493,note_on,,,,,113,0,2,,,,,0,,,43,0
310493,note_on,,,,,0,0,1,,,,,0,,,82,0
310500,note_on,,,,,0,0,1,,,,,0,,,86,112
310500,note_on,,,,,0,0,1,,,,,0,,,81,112
310500,note_on,,,,,7,0,2,,,,,0,,,50,112
310500,note_on,,,,,0,0,1,,,,,0,,,90,112
310500,note_on,,,,,0,0,2,,,,,0,,,57,112
310500,note_on,,,,,0,0,2,,,,,0,,,54,112
310500,note_on,,,,,0,0,2,,,,,0,,,62,112
310500,note_on,,,,,7,0,1,,,,,0,,,78,112
310578,note_on,,,,,0,0,2,,,,,0,,,54,0
310578,note_on,,,,,0,0,2,,,,,0,,,57,0
310578,note_on,,,,,0,0,2,,,,,0,,,62,0
310578,note_on,,,,,78,0,1,,,,,0,,,78,0
310578,note_on,,,,,0,0,1,,,,,0,,,86,0
310578,note_on,,,,,0,0,1,,,,,0,,,81,0
310578,note_on,,,,,78,0,2,,,,,0,,,50,0
310578,note_on,,,,,0,0,1,,,,,0,,,90,0
310740,note_on,,,,,162,0,2,,,,,0,,,43,112
310740,note_on,,,,,0,0,2,,,,,0,,,46,112
310740,note_on,,,,,0,0,2,,,,,0,,,55,112
310740,note_on,,,,,0,0,2,,,,,0,,,49,112
310740,note_on,,,,,0,0,1,,,,,0,,,94,112
310740,note_on,,,,,162,0,1,,,,,0,,,82,112
310740,note_on,,,,,0,0,1,,,,,0,,,88,112
310740,note_on,,,,,0,0,1,,,,,0,,,85,112
310853,note_on,,,,,0,0,2,,,,,0,,,55,0
310853,note_on,,,,,0,0,1,,,,,0,,,94,0
310853,note_on,,,,,0,0,1,,,,,0,,,88,0
310853,note_on,,,,,0,0,1,,,,,0,,,85,0
310853,note_on,,,,,0,0,2,,,,,0,,,49,0
310853,note_on,,,,,0,0,2,,,,,0,,,46,0
310853,note_on,,,,,113,0,1,,,,,0,,,82,0
310853,note_on,,,,,113,0,2,,,,,0,,,43,0
310860,note_on,,,,,0,0,2,,,,,0,,,49,112
310860,note_on,,,,,7,0,2,,,,,0,,,43,112
310860,note_on,,,,,0,0,2,,,,,0,,,55,112
310860,note_on,,,,,0,0,1,,,,,0,,,94,112
310860,note_on,,,,,0,0,1,,,,,0,,,85,112
310860,note_on,,,,,0,0,2,,,,,0,,,46,112
310860,note_on,,,,,0,0,1,,,,,0,,,88,112
310860,note_on,,,,,7,0,1,,,,,0,,,82,112
310973,note_on,,,,,0,0,1,,,,,0,,,94,0
310973,note_on,,,,,0,0,1,,,,,0,,,85,0
310973,note_on,,,,,0,0,1,,,,,0,,,88,0
310973,note_on,,,,,113,0,2,,,,,0,,,43,0
310973,note_on,,,,,0,0,2,,,,,0,,,49,0
310973,note_on,,,,,0,0,2,,,,,0,,,55,0
310973,note_on,,,,,0,0,2,,,,,0,,,46,0
310973,note_on,,,,,113,0,1,,,,,0,,,82,0
310980,note_on,,,,,0,0,1,,,,,0,,,90,112
310980,note_on,,,,,0,0,2,,,,,0,,,42,112
310980,note_on,,,,,7,0,2,,,,,0,,,38,112
310980,note_on,,,,,0,0,2,,,,,0,,,45,112
310980,note_on,,,,,0,0,2,,,,,0,,,50,112
310980,note_on,,,,,0,0,1,,,,,0,,,98,112
310980,note_on,,,,,7,0,1,,,,,0,,,86,112
311058,note_on,,,,,0,0,2,,,,,0,,,42,0
311058,note_on,,,,,0,0,1,,,,,0,,,98,0
311058,note_on,,,,,0,0,1,,,,,0,,,90,0
311058,note_on,,,,,78,0,1,,,,,0,,,86,0
311058,note_on,,,,,78,0,2,,,,,0,,,38,0
311058,note_on,,,,,0,0,2,,,,,0,,,45,0
311058,note_on,,,,,0,0,2,,,,,0,,,50,0
311220,note_on,,,,,0,0,2,,,,,0,,,37,112
311220,note_on,,,,,0,0,1,,,,,0,,,94,112
311220,note_on,,,,,0,0,2,,,,,0,,,43,112
311220,note_on,,,,,0,0,1,,,,,0,,,88,112
311220,note_on,,,,,162,0,1,,,,,0,,,82,112
311220,note_on,,,,,0,0,1,,,,,0,,,85,112
311220,note_on,,,,,0,0,2,,,,,0,,,40,112
311220,note_on,,,,,162,0,2,,,,,0,,,31,112
311333,note_on,,,,,0,0,1,,,,,0,,,94,0
311333,note_on,,,,,0,0,1,,,,,0,,,88,0
311333,note_on,,,,,0,0,1,,,,,0,,,85,0
311333,note_on,,,,,0,0,2,,,,,0,,,43,0
311333,note_on,,,,,113,0,1,,,,,0,,,82,0
311333,note_on,,,,,113,0,2,,,,,0,,,31,0
311333,note_on,,,,,0,0,2,,,,,0,,,37,0
311333,note_on,,,,,0,0,2,,,,,0,,,40,0
311340,note_on,,,,,0,0,1,,,,,0,,,94,112
311340,note_on,,,,,0,0,1,,,,,0,,,85,112
311340,note_on,,,,,7,0,2,,,,,0,,,31,112
311340,note_on,,,,,0,0,2,,,,,0,,,43,112
311340,note_on,,,,,7,0,1,,,,,0,,,82,112
311340,note_on,,,,,0,0,2,,,,,0,,,40,112
311340,note_on,,,,,0,0,2,,,,,0,,,37,112
311340,note_on,,,,,0,0,1,,,,,0,,,88,112
311453,note_on,,,,,0,0,2,,,,,0,,,43,0
311453,note_on,,,,,0,0,2,,,,,0,,,40,0
311453,note_on,,,,,0,0,2,,,,,0,,,37,0
311453,note_on,,,,,0,0,1,,,,,0,,,85,0
311453,note_on,,,,,113,0,2,,,,,0,,,31,0
311453,note_on,,,,,0,0,1,,,,,0,,,88,0
311453,note_on,,,,,0,0,1,,,,,0,,,94,0
311453,note_on,,,,,113,0,1,,,,,0,,,82,0
311460,note_on,,,,,0,0,1,,,,,0,,,98,112
311460,note_on,,,,,0,0,2,,,,,0,,,50,112
311460,note_on,,,,,0,0,2,,,,,0,,,42,112
311460,note_on,,,,,7,0,1,,,,,0,,,86,112
311460,note_on,,,,,0,0,2,,,,,0,,,45,112
311460,note_on,,,,,0,0,1,,,,,0,,,90,112
311460,note_on,,,,,7,0,2,,,,,0,,,38,112
311538,note_on,,,,,78,0,1,,,,,0,,,86,0
311538,note_on,,,,,0,0,2,,,,,0,,,42,0
311538,note_on,,,,,0,0,2,,,,,0,,,45,0
311538,note_on,,,,,0,0,1,,,,,0,,,98,0
311538,note_on,,,,,0,0,1,,,,,0,,,90,0
311538,note_on,,,,,0,0,2,,,,,0,,,50,0
311538,note_on,,,,,78,0,2,,,,,0,,,38,0
311700,note_on,,,,,0,0,1,,,,,0,,,85,112
311700,note_on,,,,,0,0,1,,,,,0,,,94,112
311700,note_on,,,,,162,0,2,,,,,0,,,31,112
311700,note_on,,,,,0,0,2,,,,,0,,,40,112
311700,note_on,,,,,0,0,1,,,,,0,,,88,112
311700,note_on,,,,,0,0,2,,,,,0,,,43,112
311700,note_on,,,,,162,0,1,,,,,0,,,82,112
311700,note_on,,,,,0,0,2,,,,,0,,,37,112
311813,note_on,,,,,113,0,1,,,,,0,,,82,0
311813,note_on,,,,,113,0,2,,,,,0,,,31,0
311813,note_on,,,,,0,0,1,,,,,0,,,88,0
311813,note_on,,,,,0,0,1,,,,,0,,,85,0
311813,note_on,,,,,0,0,1,,,,,0,,,94,0
311813,note_on,,,,,0,0,2,,,,,0,,,37,0
311813,note_on,,,,,0,0,2,,,,,0,,,43,0
311813,note_on,,,,,0,0,2,,,,,0,,,40,0
311820,note_on,,,,,7,0,1,,,,,0,,,82,112
311820,note_on,,,,,7,0,2,,,,,0,,,31,112
311820,note_on,,,,,0,0,1,,,,,0,,,85,112
311820,note_on,,,,,0,0,2,,,,,0,,,43,112
311820,note_on,,,,,0,0,2,,,,,0,,,40,112
311820,note_on,,,,,0,0,2,,,,,0,,,37,112
311820,note_on,,,,,0,0,1,,,,,0,,,88,112
311820,note_on,,,,,0,0,1,,,,,0,,,94,112
311933,note_on,,,,,0,0,1,,,,,0,,,85,0
311933,note_on,,,,,113,0,2,,,,,0,,,31,0
311933,note_on,,,,,113,0,1,,,,,0,,,82,0
311933,note_on,,,,,0,0,1,,,,,0,,,88,0
311933,note_on,,,,,0,0,1,,,,,0,,,94,0
311933,note_on,,,,,0,0,2,,,,,0,,,43,0
311933,note_on,,,,,0,0,2,,,,,0,,,37,0
311933,note_on,,,,,0,0,2,,,,,0,,,40,0
311940,note_on,,,,,0,0,1,,,,,0,,,98,112
311940,note_on,,,,,7,0,2,,,,,0,,,38,112
311940,note_on,,,,,0,0,2,,,,,0,,,50,112
311940,note_on,,,,,0,0,2,,,,,0,,,45,112
311940,note_on,,,,,0,0,2,,,,,0,,,42,112
311940,note_on,,,,,7,0,1,,,,,0,,,86,112
311940,note_on,,,,,0,0,1,,,,,0,,,90,112
312167,note_on,,,,,227,0,2,,,,,0,,,38,0
312167,note_on,,,,,227,0,1,,,,,0,,,86,0
312167,note_on,,,,,0,0,1,,,,,0,,,90,0
312167,note_on,,,,,0,0,2,,,,,0,,,50,0
312167,note_on,,,,,0,0,2,,,,,0,,,45,0
312167,note_on,,,,,0,0,2,,,,,0,,,42,0
312167,note_on,,,,,0,0,1,,,,,0,,,98,0
312180,note_on,,,,,13,0,1,,,,,0,,,82,112
312180,note_on,,,,,0,0,2,,,,,0,,,43,112
312180,note_on,,,,,0,0,2,,,,,0,,,40,112
312180,note_on,,,,,0,0,2,,,,,0,,,37,112
312180,note_on,,,,,0,0,1,,,,,0,,,85,112
312180,note_on,,,,,0,0,1,,,,,0,,,88,112
312180,note_on,,,,,0,0,1,,,,,0,,,94,112
312180,note_on,,,,,13,0,2,,,,,0,,,31,112
312407,note_on,,,,,0,0,1,,,,,0,,,94,0
312407,note_on,,,,,0,0,1,,,,,0,,,88,0
312407,note_on,,,,,0,0,2,,,,,0,,,43,0
312407,note_on,,,,,0,0,2,,,,,0,,,37,0
312407,note_on,,,,,0,0,2,,,,,0,,,40,0
312407,note_on,,,,,227,0,2,,,,,0,,,31,0
312407,note_on,,,,,0,0,1,,,,,0,,,85,0
312407,note_on,,,,,227,0,1,,,,,0,,,82,0
312660,note_on,,,,,0,0,1,,,,,0,,,94,112
312660,note_on,,,,,253,0,1,,,,,0,,,82,112
312660,note_on,,,,,253,0,2,,,,,0,,,31,112
312660,note_on,,,,,0,0,1,,,,,0,,,88,112
312660,note_on,,,,,0,0,1,,,,,0,,,85,112
312660,note_on,,,,,0,0,2,,,,,0,,,37,112
312660,note_on,,,,,0,0,2,,,,,0,,,43,112
312660,note_on,,,,,0,0,2,,,,,0,,,40,112
312887,note_on,,,,,0,0,1,,,,,0,,,94,0
312887,note_on,,,,,0,0,2,,,,,0,,,40,0
312887,note_on,,,,,0,0,2,,,,,0,,,43,0
312887,note_on,,,,,227,0,1,,,,,0,,,82,0
312887,note_on,,,,,0,0,1,,,,,0,,,88,0
312887,note_on,,,,,0,0,1,,,,,0,,,85,0
312887,note_on,,,,,0,0,2,,,,,0,,,37,0
312887,note_on,,,,,227,0,2,,,,,0,,,31,0
313140,note_on,,,,,0,0,1,,,,,0,,,94,127
313140,note_on,,,,,0,0,1,,,,,0,,,88,127
313140,note_on,,,,,0,0,1,,,,,0,,,85,127
313140,note_on,,,,,253,0,2,,,,,0,,,31,112
313140,note_on,,,,,253,0,1,,,,,0,,,82,127
313140,note_on,,,,,0,0,2,,,,,0,,,37,112
313140,note_on,,,,,0,0,2,,,,,0,,,40,112
313140,note_on,,,,,0,0,2,,,,,0,,,43,112
313140,set_tempo,,,,,7920,1,0,,545456,,,,,,,
313367,note_on,,,,,227,0,2,,,,,0,,,31,0
313367,note_on,,,,,0,0,2,,,,,0,,,37,0
313367,note_on,,,,,0,0,2,,,,,0,,,40,0
313367,note_on,,,,,0,0,2,,,,,0,,,43,0
313379,note_on,,,,,0,0,1,,,,,0,,,88,0
313379,note_on,,,,,0,0,1,,,,,0,,,85,0
313379,note_on,,,,,0,0,1,,,,,0,,,94,0
313379,note_on,,,,,239,0,1,,,,,0,,,82,0
313380,note_on,,,,,0,0,1,,,,,0,,,83,127
313380,note_on,,,,,0,0,1,,,,,0,,,89,127
313380,note_on,,,,,13,0,2,,,,,0,,,38,112
313380,note_on,,,,,0,0,1,,,,,0,,,80,127
313380,note_on,,,,,0,0,2,,,,,0,,,41,112
313380,note_on,,,,,0,0,2,,,,,0,,,44,112
313380,note_on,,,,,1,0,1,,,,,0,,,77,127
313380,note_on,,,,,0,0,2,,,,,0,,,50,112
313607,note_on,,,,,0,0,2,,,,,0,,,50,0
313607,note_on,,,,,0,0,2,,,,,0,,,44,0
313607,note_on,,,,,227,0,2,,,,,0,,,38,0
313607,note_on,,,,,0,0,2,,,,,0,,,41,0
313619,note_on,,,,,0,0,1,,,,,0,,,89,0
313619,note_on,,,,,239,0,1,,,,,0,,,77,0
313619,note_on,,,,,0,0,1,,,,,0,,,80,0
313619,note_on,,,,,0,0,1,,,,,0,,,83,0
313620,note_on,,,,,0,0,1,,,,,0,,,75,127
313620,note_on,,,,,0,0,1,,,,,0,,,78,127
313620,note_on,,,,,0,0,1,,,,,0,,,84,127
313620,note_on,,,,,1,0,1,,,,,0,,,72,127
313620,set_tempo,,,,,480,1,0,,599999,,,,,,,
313620,note_on,,,,,0,0,2,,,,,0,,,51,112
313620,note_on,,,,,0,0,2,,,,,0,,,45,112
313620,note_on,,,,,0,0,2,,,,,0,,,42,112
313620,note_on,,,,,13,0,2,,,,,0,,,38,112
313847,note_on,,,,,0,0,2,,,,,0,,,51,0
313847,note_on,,,,,0,0,2,,,,,0,,,45,0
313847,note_on,,,,,227,0,2,,,,,0,,,38,0
313847,note_on,,,,,0,0,2,,,,,0,,,42,0
313859,note_on,,,,,239,0,1,,,,,0,,,72,0
313859,note_on,,,,,0,0,1,,,,,0,,,75,0
313859,note_on,,,,,0,0,1,,,,,0,,,78,0
313859,note_on,,,,,0,0,1,,,,,0,,,84,0
313860,note_on,,,,,1,0,1,,,,,0,,,67,127
313860,note_on,,,,,13,0,2,,,,,0,,,38,112
313860,note_on,,,,,0,0,1,,,,,0,,,70,127
313860,note_on,,,,,0,0,2,,,,,0,,,43,112
313860,note_on,,,,,0,0,2,,,,,0,,,46,112
313860,note_on,,,,,0,0,2,,,,,0,,,52,112
313860,note_on,,,,,0,0,1,,,,,0,,,79,127
313860,note_on,,,,,0,0,1,,,,,0,,,73,127
314087,note_on,,,,,0,0,2,,,,,0,,,43,0
314087,note_on,,,,,0,0,2,,,,,0,,,46,0
314087,note_on,,,,,0,0,2,,,,,0,,,52,0
314087,note_on,,,,,227,0,2,,,,,0,,,38,0
314099,note_on,,,,,239,0,1,,,,,0,,,67,0
314099,note_on,,,,,0,0,1,,,,,0,,,73,0
314099,note_on,,,,,0,0,1,,,,,0,,,70,0
314099,note_on,,,,,0,0,1,,,,,0,,,79,0
314100,note_on,,,,,0,0,2,,,,,0,,,47,112
314100,note_on,,,,,0,0,2,,,,,0,,,44,112
314100,note_on,,,,,1,0,1,,,,,0,,,62,127
314100,note_on,,,,,0,0,2,,,,,0,,,53,112
314100,set_tempo,,,,,480,1,0,,666667,,,,,,,
314100,note_on,,,,,0,0,1,,,,,0,,,65,127
314100,note_on,,,,,0,0,1,,,,,0,,,74,127
314100,note_on,,,,,0,0,1,,,,,0,,,68,127
314100,note_on,,,,,13,0,2,,,,,0,,,38,112
314327,note_on,,,,,0,0,2,,,,,0,,,44,0
314327,note_on,,,,,0,0,2,,,,,0,,,47,0
314327,note_on,,,,,227,0,2,,,,,0,,,38,0
314327,note_on,,,,,0,0,2,,,,,0,,,53,0
314339,note_on,,,,,239,0,1,,,,,0,,,62,0
314339,note_on,,,,,0,0,1,,,,,0,,,74,0
314339,note_on,,,,,0,0,1,,,,,0,,,68,0
314339,note_on,,,,,0,0,1,,,,,0,,,65,0
314340,note_on,,,,,0,0,2,,,,,0,,,48,112
314340,note_on,,,,,0,0,2,,,,,0,,,45,112
314340,note_on,,,,,13,0,2,,,,,0,,,38,112
314340,note_on,,,,,0,0,1,,,,,0,,,69,127
314340,note_on,,,,,0,0,1,,,,,0,,,63,127
314340,note_on,,,,,0,0,1,,,,,0,,,60,127
314340,note_on,,,,,1,0,1,,,,,0,,,57,127
314340,note_on,,,,,0,0,2,,,,,0,,,54,112
314567,note_on,,,,,0,0,2,,,,,0,,,45,0
314567,note_on,,,,,0,0,2,,,,,0,,,48,0
314567,note_on,,,,,0,0,2,,,,,0,,,54,0
314567,note_on,,,,,227,0,2,,,,,0,,,38,0
314579,note_on,,,,,239,0,1,,,,,0,,,57,0
314579,note_on,,,,,0,0,1,,,,,0,,,60,0
314579,note_on,,,,,0,0,1,,,,,0,,,63,0
314579,note_on,,,,,0,0,1,,,,,0,,,69,0
314580,note_on,,,,,0,0,2,,,,,0,,,49,112
314580,note_on,,,,,0,0,2,,,,,0,,,46,112
314580,note_on,,,,,13,0,2,,,,,0,,,38,112
314580,note_on,,,,,0,0,1,,,,,0,,,70,127
314580,note_on,,,,,1,0,1,,,,,0,,,58,127
314580,note_on,,,,,0,0,1,,,,,0,,,64,127
314580,note_on,,,,,0,0,1,,,,,0,,,61,127
314580,note_on,,,,,0,0,2,,,,,0,,,55,112
314807,note_on,,,,,227,0,2,,,,,0,,,38,0
314807,note_on,,,,,0,0,2,,,,,0,,,55,0
314807,note_on,,,,,0,0,2,,,,,0,,,49,0
314807,note_on,,,,,0,0,2,,,,,0,,,46,0
314819,note_on,,,,,0,0,1,,,,,0,,,64,0
314819,note_on,,,,,0,0,1,,,,,0,,,61,0
314819,note_on,,,,,0,0,1,,,,,0,,,70,0
314819,note_on,,,,,239,0,1,,,,,0,,,58,0
314820,time_signature,10,4,24,8,720,1,0,,,,,,,,,
315300,set_tempo,,,,,480,1,0,,2000000,,,,,,,
315300,note_on,,,,,0,0,1,,,,,0,,,53,112
315300,note_on,,,,,0,0,1,,,,,0,,,59,112
315300,note_on,,,,,0,0,2,,,,,0,,,47,112
315300,note_on,,,,,481,0,1,,,,,0,,,65,112
315300,note_on,,,,,493,0,2,,,,,0,,,38,112
315300,note_on,,,,,0,0,2,,,,,0,,,56,112
315302,control_change,,,,,2,0,2,,,64,127,0,,,,
315755,note_on,,,,,455,0,1,,,,,0,,,53,0
315755,note_on,,,,,453,0,2,,,,,0,,,38,0
315755,note_on,,,,,0,0,2,,,,,0,,,47,0
315755,note_on,,,,,0,0,1,,,,,0,,,59,0
315755,note_on,,,,,0,0,2,,,,,0,,,56,0
315779,set_tempo,,,,,479,1,0,,666667,,,,,,,
315781,control_change,,,,,26,0,2,,,64,0,0,,,,
315983,note_on,,,,,228,0,1,,,,,0,,,65,0
316020,note_on,,,,,37,0,1,,,,,0,,,61,112
316259,note_on,,,,,239,0,1,,,,,0,,,61,0
316260,note_on,,,,,1,0,1,,,,,0,,,62,112
316260,set_tempo,,,,,481,1,0,,666667,,,,,,,
316619,note_on,,,,,359,0,1,,,,,0,,,62,0
316620,note_on,,,,,1,0,1,,,,,0,,,64,112
316733,note_on,,,,,113,0,1,,,,,0,,,64,0
316740,set_tempo,,,,,480,1,0,,1333333,,,,,,,
316740,note_on,,,,,7,0,1,,,,,0,,,64,127
316762,note_on,,,,,22,0,1,,,,,0,,,64,0
316763,note_on,,,,,1,0,1,,,,,0,,,67,127
317458,note_on,,,,,695,0,1,,,,,0,,,67,0
317459,set_tempo,,,,,719,1,0,,666667,,,,,,,
317460,note_on,,,,,2,0,1,,,,,0,,,65,112
317687,note_on,,,,,227,0,1,,,,,0,,,65,0
317700,note_on,,,,,13,0,1,,,,,0,,,64,112
317700,set_tempo,,,,,241,1,0,,545456,,,,,,,
318003,note_on,,,,,303,0,1,,,,,0,,,64,0
318020,note_on,,,,,17,0,1,,,,,0,,,62,112
318323,note_on,,,,,303,0,1,,,,,0,,,62,0
318340,note_on,,,,,17,0,1,,,,,0,,,61,112
318643,note_on,,,,,303,0,1,,,,,0,,,61,0
318660,note_on,,,,,17,0,1,,,,,0,,,60,112
318963,note_on,,,,,303,0,1,,,,,0,,,60,0
318980,note_on,,,,,17,0,1,,,,,0,,,59,112
319283,note_on,,,,,303,0,1,,,,,0,,,59,0
319300,note_on,,,,,3519,0,2,,,,,0,,,38,112
319300,note_on,,,,,0,0,2,,,,,0,,,46,112
319300,note_on,,,,,0,0,1,,,,,0,,,56,112
319300,note_on,,,,,17,0,1,,,,,0,,,58,112
319300,note_on,,,,,0,0,1,,,,,0,,,53,112
319603,note_on,,,,,0,0,1,,,,,0,,,56,0
319603,note_on,,,,,0,0,1,,,,,0,,,53,0
319603,note_on,,,,,303,0,2,,,,,0,,,38,0
319603,note_on,,,,,0,0,2,,,,,0,,,46,0
319603,note_on,,,,,303,0,1,,,,,0,,,58,0
319620,set_tempo,,,,,0,1,0,,750002,,,,,,,
319620,note_on,,,,,0,0,2,,,,,0,,,46,112
319620,time_signature,2,4,24,8,1920,1,0,,,,,,,,,
319620,note_on,,,,,17,0,1,,,,,0,,,54,112
319620,note_on,,,,,17,0,2,,,,,0,,,39,112
319620,note_on,,,,,0,0,1,,,,,0,,,58,112
320531,note_on,,,,,0,0,2,,,,,0,,,46,0
320531,note_on,,,,,911,0,1,,,,,0,,,54,0
320531,note_on,,,,,911,0,2,,,,,0,,,39,0
320531,note_on,,,,,0,0,1,,,,,0,,,58,0
320580,note_on,,,,,0,0,1,,,,,0,,,58,112
320580,note_on,,,,,49,0,2,,,,,0,,,46,112
320580,note_on,,,,,49,0,1,,,,,0,,,53,112
320580,note_on,,,,,0,0,2,,,,,0,,,37,112
321377,note_on,,,,,797,0,2,,,,,0,,,46,0
321420,note_on,,,,,43,0,2,,,,,0,,,46,112
321491,note_on,,,,,0,0,1,,,,,0,,,58,0
321491,note_on,,,,,71,0,2,,,,,0,,,37,0
321491,note_on,,,,,911,0,1,,,,,0,,,53,0
321533,note_on,,,,,42,0,2,,,,,0,,,46,0
321540,note_on,,,,,49,0,1,,,,,0,,,51,112
321540,note_on,,,,,0,0,2,,,,,0,,,35,112
321540,note_on,,,,,0,0,1,,,,,0,,,63,112
321540,note_on,,,,,7,0,2,,,,,0,,,46,112
321540,note_on,,,,,0,0,1,,,,,0,,,58,112
322451,note_on,,,,,911,0,1,,,,,0,,,51,0
322451,note_on,,,,,0,0,2,,,,,0,,,35,0
322451,note_on,,,,,911,0,2,,,,,0,,,46,0
322451,note_on,,,,,0,0,1,,,,,0,,,58,0
322451,note_on,,,,,0,0,1,,,,,0,,,63,0
322500,note_on,,,,,49,0,1,,,,,0,,,51,112
322500,note_on,,,,,49,0,2,,,,,0,,,44,112
322500,note_on,,,,,0,0,2,,,,,0,,,35,112
322500,note_on,,,,,0,0,1,,,,,0,,,63,112
322500,note_on,,,,,0,0,1,,,,,0,,,56,112
323297,note_on,,,,,0,0,2,,,,,0,,,35,0
323297,note_on,,,,,797,0,1,,,,,0,,,51,0
323297,note_on,,,,,0,0,1,,,,,0,,,56,0
323297,note_on,,,,,0,0,1,,,,,0,,,63,0
323297,note_on,,,,,797,0,2,,,,,0,,,44,0
323340,note_on,,,,,0,0,1,,,,,0,,,56,112
323340,note_on,,,,,43,0,2,,,,,0,,,44,112
323340,note_on,,,,,43,0,1,,,,,0,,,53,112
323340,note_on,,,,,0,0,1,,,,,0,,,62,112
323340,note_on,,,,,0,0,2,,,,,0,,,35,112
323340,note_on,,,,,0,0,1,,,,,0,,,65,112
323453,note_on,,,,,113,0,1,,,,,0,,,53,0
323453,note_on,,,,,0,0,1,,,,,0,,,65,0
323453,note_on,,,,,0,0,1,,,,,0,,,62,0
323453,note_on,,,,,0,0,1,,,,,0,,,56,0
323453,note_on,,,,,0,0,2,,,,,0,,,35,0
323453,note_on,,,,,113,0,2,,,,,0,,,44,0
323460,note_on,,,,,0,0,1,,,,,0,,,62,112
323460,time_signature,4,4,24,8,3840,1,0,,,,,,,,,
323460,note_on,,,,,0,0,1,,,,,0,,,65,112
323460,note_on,,,,,0,0,1,,,,,0,,,56,112
323460,note_on,,,,,0,0,2,,,,,0,,,44,112
323460,note_on,,,,,7,0,2,,,,,0,,,35,112
323460,note_on,,,,,7,0,1,,,,,0,,,53,112
323538,note_on,,,,,0,0,1,,,,,0,,,65,0
323538,note_on,,,,,78,0,2,,,,,0,,,35,0
323538,note_on,,,,,78,0,1,,,,,0,,,62,0
323538,note_on,,,,,0,0,2,,,,,0,,,44,0
323687,note_on,,,,,0,0,1,,,,,0,,,56,0
323687,note_on,,,,,149,0,1,,,,,0,,,53,0
323700,set_tempo,,,,,240,1,0,,800000,,,,,,,
324180,note_on,,,,,642,0,2,,,,,0,,,53,112
324419,note_on,,,,,239,0,2,,,,,0,,,53,0
324420,note_on,,,,,1,0,2,,,,,0,,,62,112
325139,note_on,,,,,719,0,2,,,,,0,,,62,0
325140,note_on,,,,,1,0,2,,,,,0,,,53,112
325367,note_on,,,,,227,0,2,,,,,0,,,53,0
326340,note_on,,,,,0,0,1,,,,,0,,,53,70
326340,note_on,,,,,2653,0,1,,,,,0,,,61,70
326340,note_on,,,,,0,0,1,,,,,0,,,56,70
326340,note_on,,,,,0,0,1,,,,,0,,,65,70
326340,note_on,,,,,973,0,2,,,,,0,,,34,70
326340,note_on,,,,,0,0,2,,,,,0,,,44,70
326418,note_on,,,,,0,0,1,,,,,0,,,65,0
326418,note_on,,,,,78,0,1,,,,,0,,,61,0
326418,note_on,,,,,0,0,1,,,,,0,,,56,0
326418,note_on,,,,,0,0,1,,,,,0,,,53,0
326567,note_on,,,,,0,0,2,,,,,0,,,44,0
326567,note_on,,,,,227,0,2,,,,,0,,,34,0
327180,note_on,,,,,613,0,2,,,,,0,,,35,70
327180,note_on,,,,,0,0,1,,,,,0,,,56,70
327180,note_on,,,,,762,0,1,,,,,0,,,62,70
327180,note_on,,,,,0,0,1,,,,,0,,,53,70
327180,note_on,,,,,0,0,1,,,,,0,,,65,70
327180,note_on,,,,,0,0,2,,,,,0,,,44,70
327293,note_on,,,,,0,0,1,,,,,0,,,53,0
327293,note_on,,,,,0,0,1,,,,,0,,,56,0
327293,note_on,,,,,0,0,2,,,,,0,,,44,0
327293,note_on,,,,,113,0,2,,,,,0,,,35,0
327293,note_on,,,,,113,0,1,,,,,0,,,62,0
327293,note_on,,,,,0,0,1,,,,,0,,,65,0
327300,note_on,,,,,0,0,1,,,,,0,,,65,70
327300,note_on,,,,,7,0,1,,,,,0,,,62,70
327300,note_on,,,,,7,0,2,,,,,0,,,35,70
327300,note_on,,,,,0,0,1,,,,,0,,,56,70
327300,note_on,,,,,0,0,2,,,,,0,,,44,70
327300,note_on,,,,,0,0,1,,,,,0,,,53,70
327378,note_on,,,,,0,0,1,,,,,0,,,56,0
327378,note_on,,,,,0,0,1,,,,,0,,,53,0
327378,note_on,,,,,78,0,1,,,,,0,,,62,0
327378,note_on,,,,,0,0,1,,,,,0,,,65,0
327527,note_on,,,,,0,0,2,,,,,0,,,44,0
327527,note_on,,,,,227,0,2,,,,,0,,,35,0
328020,note_on,,,,,493,0,2,,,,,0,,,53,70
328259,note_on,,,,,239,0,2,,,,,0,,,53,0
328260,note_on,,,,,1,0,2,,,,,0,,,62,70
328979,note_on,,,,,719,0,2,,,,,0,,,62,0
328980,note_on,,,,,1,0,2,,,,,0,,,53,70
329207,note_on,,,,,227,0,2,,,,,0,,,53,0
330180,note_on,,,,,0,0,1,,,,,0,,,65,70
330180,note_on,,,,,0,0,2,,,,,0,,,44,70
330180,note_on,,,,,973,0,2,,,,,0,,,34,70
330180,note_on,,,,,0,0,1,,,,,0,,,53,70
330180,note_on,,,,,0,0,1,,,,,0,,,56,70
330180,note_on,,,,,2802,0,1,,,,,0,,,61,70
330258,note_on,,,,,78,0,1,,,,,0,,,61,0
330258,note_on,,,,,0,0,1,,,,,0,,,56,0
330258,note_on,,,,,0,0,1,,,,,0,,,65,0
330258,note_on,,,,,0,0,1,,,,,0,,,53,0
330407,note_on,,,,,0,0,2,,,,,0,,,44,0
330407,note_on,,,,,227,0,2,,,,,0,,,34,0
331020,note_on,,,,,0,0,2,,,,,0,,,44,70
331020,note_on,,,,,762,0,1,,,,,0,,,62,70
331020,note_on,,,,,0,0,1,,,,,0,,,65,70
331020,note_on,,,,,0,0,1,,,,,0,,,56,70
331020,note_on,,,,,0,0,1,,,,,0,,,53,70
331020,note_on,,,,,613,0,2,,,,,0,,,35,70
331133,note_on,,,,,0,0,1,,,,,0,,,56,0
331133,note_on,,,,,113,0,2,,,,,0,,,35,0
331133,note_on,,,,,0,0,1,,,,,0,,,53,0
331133,note_on,,,,,113,0,1,,,,,0,,,62,0
331133,note_on,,,,,0,0,2,,,,,0,,,44,0
331133,note_on,,,,,0,0,1,,,,,0,,,65,0
331140,note_on,,,,,0,0,1,,,,,0,,,53,70
331140,note_on,,,,,0,0,2,,,,,0,,,44,70
331140,note_on,,,,,0,0,1,,,,,0,,,56,70
331140,note_on,,,,,0,0,1,,,,,0,,,65,70
331140,note_on,,,,,7,0,1,,,,,0,,,62,70
331140,note_on,,,,,7,0,2,,,,,0,,,35,70
331367,note_on,,,,,0,0,1,,,,,0,,,65,0
331367,note_on,,,,,0,0,1,,,,,0,,,53,0
331367,note_on,,,,,227,0,1,,,,,0,,,62,0
331367,note_on,,,,,227,0,2,,,,,0,,,35,0
331367,note_on,,,,,0,0,2,,,,,0,,,44,0
331367,note_on,,,,,0,0,1,,,,,0,,,56,0
331860,note_on,,,,,493,0,2,,,,,0,,,62,70
332099,note_on,,,,,239,0,2,,,,,0,,,62,0
332100,note_on,,,,,1,0,2,,,,,0,,,71,70
332783,note_on,,,,,683,0,2,,,,,0,,,71,0
332820,note_on,,,,,37,0,2,,,,,0,,,62,70
333047,note_on,,,,,227,0,2,,,,,0,,,62,0
333780,note_on,,,,,2413,0,1,,,,,0,,,56,70
334019,note_on,,,,,239,0,1,,,,,0,,,56,0
334020,note_on,,,,,1,0,1,,,,,0,,,65,70
334703,note_on,,,,,683,0,1,,,,,0,,,65,0
334740,note_on,,,,,37,0,1,,,,,0,,,56,70
334967,note_on,,,,,227,0,1,,,,,0,,,56,0
335700,note_on,,,,,2653,0,2,,,,,0,,,50,70
335700,set_tempo,,,,,12000,1,0,,923080,,,,,,,
335939,note_on,,,,,239,0,2,,,,,0,,,50,0
335940,note_on,,,,,1,0,2,,,,,0,,,59,70
336623,note_on,,,,,683,0,2,,,,,0,,,59,0
336660,note_on,,,,,37,0,2,,,,,0,,,44,70
336887,note_on,,,,,227,0,2,,,,,0,,,44,0
336900,note_on,,,,,13,0,2,,,,,0,,,53,70
338723,note_on,,,,,1823,0,2,,,,,0,,,53,0
339900,note_on,,,,,1177,0,2,,,,,0,,,41,96
339900,note_on,,,,,4933,0,1,,,,,0,,,65,96
339900,set_tempo,,,,,4200,1,0,,1499999,,,,,,,
339900,note_on,,,,,0,0,2,,,,,0,,,53,96
340013,note_on,,,,,0,0,2,,,,,0,,,53,0
340013,note_on,,,,,113,0,2,,,,,0,,,41,0
340013,note_on,,,,,113,0,1,,,,,0,,,65,0
340020,note_on,,,,,7,0,2,,,,,0,,,40,96
340020,set_tempo,,,,,120,1,0,,750002,,,,,,,
340020,note_on,,,,,7,0,1,,,,,0,,,64,96
340020,note_on,,,,,0,0,2,,,,,0,,,52,96
340133,note_on,,,,,113,0,2,,,,,0,,,40,0
340133,note_on,,,,,0,0,2,,,,,0,,,52,0
340133,note_on,,,,,113,0,1,,,,,0,,,64,0
340140,note_on,,,,,7,0,1,,,,,0,,,62,96
340140,note_on,,,,,7,0,2,,,,,0,,,38,96
340140,set_tempo,,,,,120,1,0,,500000,,,,,,,
340140,note_on,,,,,0,0,2,,,,,0,,,50,96
340253,note_on,,,,,113,0,2,,,,,0,,,38,0
340253,note_on,,,,,113,0,1,,,,,0,,,62,0
340253,note_on,,,,,0,0,2,,,,,0,,,50,0
340260,note_on,,,,,7,0,1,,,,,0,,,61,96
340260,note_on,,,,,0,0,2,,,,,0,,,49,96
340260,note_on,,,,,7,0,2,,,,,0,,,37,96
340373,note_on,,,,,113,0,2,,,,,0,,,37,0
340373,note_on,,,,,113,0,1,,,,,0,,,61,0
340373,note_on,,,,,0,0,2,,,,,0,,,49,0
340380,note_on,,,,,7,0,2,,,,,0,,,36,96
340380,note_on,,,,,0,0,2,,,,,0,,,48,96
340380,note_on,,,,,7,0,1,,,,,0,,,60,96
340493,note_on,,,,,113,0,2,,,,,0,,,36,0
340493,note_on,,,,,113,0,1,,,,,0,,,60,0
340493,note_on,,,,,0,0,2,,,,,0,,,48,0
340500,note_on,,,,,0,0,2,,,,,0,,,47,96
340500,note_on,,,,,7,0,1,,,,,0,,,59,96
340500,note_on,,,,,7,0,2,,,,,0,,,35,96
340613,note_on,,,,,0,0,2,,,,,0,,,47,0
340613,note_on,,,,,113,0,2,,,,,0,,,35,0
340613,note_on,,,,,113,0,1,,,,,0,,,59,0
340620,note_on,,,,,0,0,2,,,,,0,,,46,96
340620,note_on,,,,,7,0,2,,,,,0,,,34,96
340620,note_on,,,,,7,0,1,,,,,0,,,58,96
340733,note_on,,,,,113,0,2,,,,,0,,,34,0
340733,note_on,,,,,113,0,1,,,,,0,,,58,0
340733,note_on,,,,,0,0,2,,,,,0,,,46,0
340740,set_tempo,,,,,0,1,0,,599999,,,,,,,
340740,note_on,,,,,0,0,2,,,,,0,,,45,115
340740,key_signature,,,,,600,1,0,D,,,,,,,,
340740,note_on,,,,,0,0,2,,,,,0,,,33,115
340740,key_signature,,,,,7,1,2,D,,,,,,,,
340740,key_signature,,,,,7,1,1,D,,,,,,,,
340740,note_on,,,,,0,0,1,,,,,0,,,57,115
341580,note_on,,,,,0,0,2,,,,,0,,,62,96
341580,note_on,,,,,0,0,2,,,,,0,,,66,96
341580,set_tempo,,,,,840,1,0,,750002,,,,,,,
341580,note_on,,,,,840,0,2,,,,,0,,,57,96
341580,note_on,,,,,840,0,1,,,,,0,,,69,96
341580,note_on,,,,,0,0,1,,,,,0,,,57,0
341580,note_on,,,,,0,0,1,,,,,0,,,74,96
341580,note_on,,,,,0,0,1,,,,,0,,,81,96
341580,note_on,,,,,0,0,1,,,,,0,,,78,96
341636,note_on,,,,,0,0,2,,,,,0,,,66,0
341636,note_on,,,,,0,0,1,,,,,0,,,78,0
341636,note_on,,,,,56,0,1,,,,,0,,,69,0
341636,note_on,,,,,0,0,1,,,,,0,,,81,0
341636,note_on,,,,,0,0,1,,,,,0,,,74,0
341636,note_on,,,,,56,0,2,,,,,0,,,62,0
341640,note_on,,,,,0,0,1,,,,,0,,,74,96
341640,note_on,,,,,0,0,2,,,,,0,,,66,96
341640,note_on,,,,,0,0,1,,,,,0,,,78,96
341640,note_on,,,,,0,0,1,,,,,0,,,81,96
341640,note_on,,,,,4,0,1,,,,,0,,,69,96
341640,note_on,,,,,0,0,2,,,,,0,,,62,96
341640,note_on,,,,,4,0,2,,,,,0,,,57,0
341640,note_on,,,,,0,0,2,,,,,0,,,57,96
341696,note_on,,,,,0,0,1,,,,,0,,,81,0
341696,note_on,,,,,0,0,1,,,,,0,,,74,0
341696,note_on,,,,,0,0,1,,,,,0,,,78,0
341696,note_on,,,,,56,0,1,,,,,0,,,69,0
341696,note_on,,,,,0,0,2,,,,,0,,,66,0
341696,note_on,,,,,56,0,2,,,,,0,,,62,0
341700,note_on,,,,,4,0,2,,,,,0,,,57,0
341700,note_on,,,,,0,0,2,,,,,0,,,66,96
341700,note_on,,,,,0,0,2,,,,,0,,,62,96
341700,note_on,,,,,4,0,1,,,,,0,,,69,96
341700,note_on,,,,,0,0,1,,,,,0,,,74,96
341700,note_on,,,,,0,0,1,,,,,0,,,78,96
341700,note_on,,,,,0,0,1,,,,,0,,,81,96
341700,note_on,,,,,0,0,2,,,,,0,,,57,96
342179,note_on,,,,,479,0,2,,,,,0,,,33,0
342179,note_on,,,,,0,0,2,,,,,0,,,45,0
342383,note_on,,,,,0,0,1,,,,,0,,,74,0
342383,note_on,,,,,0,0,1,,,,,0,,,81,0
342383,note_on,,,,,0,0,1,,,,,0,,,78,0
342383,note_on,,,,,683,0,1,,,,,0,,,69,0
342383,note_on,,,,,0,0,2,,,,,0,,,62,0
342383,note_on,,,,,0,0,2,,,,,0,,,66,0
342383,note_on,,,,,204,0,2,,,,,0,,,57,0
342540,note_on,,,,,0,0,2,,,,,0,,,45,96
342540,note_on,,,,,157,0,2,,,,,0,,,33,96
342540,note_on,,,,,157,0,1,,,,,0,,,57,96
342653,note_on,,,,,113,0,2,,,,,0,,,33,0
342653,note_on,,,,,0,0,2,,,,,0,,,45,0
342653,note_on,,,,,113,0,1,,,,,0,,,57,0
342660,set_tempo,,,,,1080,1,0,,599999,,,,,,,
342660,note_on,,,,,0,0,2,,,,,0,,,47,115
342660,note_on,,,,,7,0,1,,,,,0,,,59,115
342660,note_on,,,,,7,0,2,,,,,0,,,35,115
343500,note_on,,,,,840,0,2,,,,,0,,,54,96
343500,note_on,,,,,0,0,1,,,,,0,,,83,96
343500,note_on,,,,,0,0,1,,,,,0,,,86,96
343500,set_tempo,,,,,840,1,0,,750002,,,,,,,
343500,note_on,,,,,840,0,1,,,,,0,,,74,96
343500,note_on,,,,,0,0,1,,,,,0,,,78,96
343500,note_on,,,,,0,0,1,,,,,0,,,59,0
343500,note_on,,,,,0,0,2,,,,,0,,,59,96
343500,note_on,,,,,0,0,2,,,,,0,,,62,96
343500,note_on,,,,,0,0,2,,,,,0,,,66,96
343556,note_on,,,,,0,0,1,,,,,0,,,78,0
343556,note_on,,,,,0,0,1,,,,,0,,,83,0
343556,note_on,,,,,0,0,1,,,,,0,,,86,0
343556,note_on,,,,,0,0,2,,,,,0,,,62,0
343556,note_on,,,,,56,0,1,,,,,0,,,74,0
343556,note_on,,,,,56,0,2,,,,,0,,,54,0
343556,note_on,,,,,0,0,2,,,,,0,,,66,0
343560,note_on,,,,,4,0,2,,,,,0,,,54,96
343560,note_on,,,,,0,0,2,,,,,0,,,62,96
343560,note_on,,,,,4,0,1,,,,,0,,,74,96
343560,note_on,,,,,0,0,2,,,,,0,,,59,0
343560,note_on,,,,,0,0,2,,,,,0,,,59,96
343560,note_on,,,,,0,0,2,,,,,0,,,66,96
343560,note_on,,,,,0,0,1,,,,,0,,,86,96
343560,note_on,,,,,0,0,1,,,,,0,,,78,96
343560,note_on,,,,,0,0,1,,,,,0,,,83,96
343616,note_on,,,,,0,0,1,,,,,0,,,78,0
343616,note_on,,,,,0,0,1,,,,,0,,,83,0
343616,note_on,,,,,0,0,1,,,,,0,,,86,0
343616,note_on,,,,,56,0,2,,,,,0,,,54,0
343616,note_on,,,,,56,0,1,,,,,0,,,74,0
343616,note_on,,,,,0,0,2,,,,,0,,,62,0
343616,note_on,,,,,0,0,2,,,,,0,,,66,0
343620,note_on,,,,,0,0,2,,,,,0,,,62,96
343620,note_on,,,,,0,0,2,,,,,0,,,59,0
343620,note_on,,,,,0,0,1,,,,,0,,,78,96
343620,note_on,,,,,0,0,2,,,,,0,,,59,96
343620,note_on,,,,,0,0,1,,,,,0,,,83,96
343620,note_on,,,,,4,0,1,,,,,0,,,74,96
343620,note_on,,,,,0,0,1,,,,,0,,,86,96
343620,note_on,,,,,0,0,2,,,,,0,,,66,96
343620,note_on,,,,,4,0,2,,,,,0,,,54,96
344099,note_on,,,,,479,0,2,,,,,0,,,35,0
344099,note_on,,,,,0,0,2,,,,,0,,,47,0
344303,note_on,,,,,0,0,2,,,,,0,,,59,0
344303,note_on,,,,,0,0,2,,,,,0,,,62,0
344303,note_on,,,,,683,0,1,,,,,0,,,74,0
344303,note_on,,,,,0,0,2,,,,,0,,,66,0
344303,note_on,,,,,0,0,1,,,,,0,,,86,0
344303,note_on,,,,,0,0,1,,,,,0,,,78,0
344303,note_on,,,,,0,0,1,,,,,0,,,83,0
344303,note_on,,,,,204,0,2,,,,,0,,,54,0
344460,note_on,,,,,157,0,2,,,,,0,,,35,96
344460,note_on,,,,,157,0,1,,,,,0,,,59,96
344460,note_on,,,,,0,0,2,,,,,0,,,47,96
344573,note_on,,,,,0,0,2,,,,,0,,,47,0
344573,note_on,,,,,113,0,1,,,,,0,,,59,0
344573,note_on,,,,,113,0,2,,,,,0,,,35,0
344580,note_on,,,,,7,0,1,,,,,0,,,54,115
344580,set_tempo,,,,,1080,1,0,,599999,,,,,,,
344580,note_on,,,,,0,0,1,,,,,0,,,66,115
344580,note_on,,,,,7,0,2,,,,,0,,,30,115
344580,note_on,,,,,0,0,2,,,,,0,,,42,115
344940,note_on,,,,,0,0,1,,,,,0,,,90,96
344940,set_tempo,,,,,360,1,0,,750002,,,,,,,
344940,note_on,,,,,0,0,2,,,,,0,,,61,96
344940,note_on,,,,,0,0,1,,,,,0,,,54,0
344940,note_on,,,,,360,0,1,,,,,0,,,78,96
344940,note_on,,,,,360,0,2,,,,,0,,,54,96
344940,note_on,,,,,0,0,1,,,,,0,,,85,96
344940,note_on,,,,,0,0,2,,,,,0,,,66,96
344940,note_on,,,,,0,0,1,,,,,0,,,66,0
344940,note_on,,,,,0,0,2,,,,,0,,,58,96
344940,note_on,,,,,0,0,1,,,,,0,,,82,96
344996,note_on,,,,,56,0,1,,,,,0,,,78,0
344996,note_on,,,,,0,0,1,,,,,0,,,85,0
344996,note_on,,,,,0,0,1,,,,,0,,,82,0
344996,note_on,,,,,56,0,2,,,,,0,,,58,0
344996,note_on,,,,,0,0,1,,,,,0,,,90,0
344996,note_on,,,,,0,0,2,,,,,0,,,61,0
345000,note_on,,,,,0,0,2,,,,,0,,,66,0
345000,note_on,,,,,4,0,1,,,,,0,,,78,96
345000,note_on,,,,,0,0,2,,,,,0,,,66,96
345000,note_on,,,,,0,0,1,,,,,0,,,82,96
345000,note_on,,,,,0,0,1,,,,,0,,,85,96
345000,note_on,,,,,0,0,1,,,,,0,,,90,96
345000,note_on,,,,,0,0,2,,,,,0,,,58,96
345000,note_on,,,,,0,0,2,,,,,0,,,61,96
345000,note_on,,,,,4,0,2,,,,,0,,,54,0
345000,note_on,,,,,0,0,2,,,,,0,,,54,96
345056,note_on,,,,,0,0,1,,,,,0,,,82,0
345056,note_on,,,,,56,0,1,,,,,0,,,78,0
345056,note_on,,,,,0,0,2,,,,,0,,,61,0
345056,note_on,,,,,0,0,1,,,,,0,,,90,0
345056,note_on,,,,,0,0,1,,,,,0,,,85,0
345056,note_on,,,,,56,0,2,,,,,0,,,58,0
345060,note_on,,,,,0,0,1,,,,,0,,,90,96
345060,note_on,,,,,4,0,2,,,,,0,,,54,0
345060,note_on,,,,,0,0,2,,,,,0,,,54,96
345060,note_on,,,,,0,0,1,,,,,0,,,85,96
345060,note_on,,,,,0,0,2,,,,,0,,,61,96
345060,note_on,,,,,0,0,2,,,,,0,,,66,0
345060,note_on,,,,,0,0,2,,,,,0,,,66,96
345060,note_on,,,,,0,0,1,,,,,0,,,82,96
345060,note_on,,,,,0,0,2,,,,,0,,,58,96
345060,note_on,,,,,4,0,1,,,,,0,,,78,96
345287,note_on,,,,,0,0,2,,,,,0,,,61,0
345287,note_on,,,,,227,0,2,,,,,0,,,58,0
345287,note_on,,,,,0,0,1,,,,,0,,,82,0
345287,note_on,,,,,0,0,1,,,,,0,,,85,0
345287,note_on,,,,,227,0,1,,,,,0,,,78,0
345287,note_on,,,,,0,0,1,,,,,0,,,90,0
345539,note_on,,,,,0,0,2,,,,,0,,,66,0
345539,note_on,,,,,0,0,2,,,,,0,,,30,0
345539,note_on,,,,,0,0,2,,,,,0,,,42,0
345539,note_on,,,,,252,0,2,,,,,0,,,54,0
345540,note_on,,,,,253,0,1,,,,,0,,,57,115
345540,note_on,,,,,1,0,2,,,,,0,,,33,115
345540,note_on,,,,,0,0,1,,,,,0,,,69,115
345540,note_on,,,,,0,0,2,,,,,0,,,45,115
345900,note_on,,,,,0,0,1,,,,,0,,,85,96
345900,note_on,,,,,360,0,2,,,,,0,,,57,96
345900,set_tempo,,,,,960,1,0,,1200000,,,,,,,
345900,note_on,,,,,0,0,2,,,,,0,,,61,96
345900,note_on,,,,,0,0,2,,,,,0,,,64,96
345900,note_on,,,,,0,0,2,,,,,0,,,69,96
345900,note_on,,,,,360,0,1,,,,,0,,,81,96
345900,note_on,,,,,0,0,1,,,,,0,,,57,0
345900,note_on,,,,,0,0,1,,,,,0,,,93,96
345900,note_on,,,,,0,0,1,,,,,0,,,88,96
345900,note_on,,,,,0,0,1,,,,,0,,,69,0
345956,note_on,,,,,56,0,1,,,,,0,,,81,0
345956,note_on,,,,,56,0,2,,,,,0,,,61,0
345956,note_on,,,,,0,0,1,,,,,0,,,93,0
345956,note_on,,,,,0,0,1,,,,,0,,,88,0
345956,note_on,,,,,0,0,1,,,,,0,,,85,0
345956,note_on,,,,,0,0,2,,,,,0,,,64,0
345960,note_on,,,,,0,0,2,,,,,0,,,69,96
345960,note_on,,,,,4,0,2,,,,,0,,,57,0
345960,note_on,,,,,4,0,1,,,,,0,,,81,96
345960,note_on,,,,,0,0,2,,,,,0,,,57,96
345960,note_on,,,,,0,0,2,,,,,0,,,61,96
345960,note_on,,,,,0,0,2,,,,,0,,,64,96
345960,note_on,,,,,0,0,2,,,,,0,,,69,0
345960,note_on,,,,,0,0,1,,,,,0,,,93,96
345960,note_on,,,,,0,0,1,,,,,0,,,88,96
345960,note_on,,,,,0,0,1,,,,,0,,,85,96
346016,note_on,,,,,0,0,2,,,,,0,,,64,0
346016,note_on,,,,,56,0,2,,,,,0,,,61,0
346016,note_on,,,,,0,0,1,,,,,0,,,85,0
346016,note_on,,,,,0,0,1,,,,,0,,,88,0
346016,note_on,,,,,0,0,1,,,,,0,,,93,0
346016,note_on,,,,,56,0,1,,,,,0,,,81,0
346020,note_on,,,,,0,0,1,,,,,0,,,85,96
346020,note_on,,,,,4,0,1,,,,,0,,,81,96
346020,note_on,,,,,0,0,1,,,,,0,,,88,96
346020,note_on,,,,,0,0,1,,,,,0,,,93,96
346020,note_on,,,,,4,0,2,,,,,0,,,57,0
346020,note_on,,,,,0,0,2,,,,,0,,,64,96
346020,note_on,,,,,0,0,2,,,,,0,,,57,96
346020,note_on,,,,,0,0,2,,,,,0,,,61,96
346020,note_on,,,,,0,0,2,,,,,0,,,69,96
346020,note_on,,,,,0,0,2,,,,,0,,,69,0
346021,note_on,,,,,1,0,2,,,,,0,,,33,0
346021,note_on,,,,,0,0,2,,,,,0,,,45,0
346247,note_on,,,,,0,0,2,,,,,0,,,69,0
346247,note_on,,,,,0,0,2,,,,,0,,,64,0
346247,note_on,,,,,0,0,2,,,,,0,,,61,0
346247,note_on,,,,,227,0,1,,,,,0,,,81,0
346247,note_on,,,,,0,0,1,,,,,0,,,93,0
346247,note_on,,,,,226,0,2,,,,,0,,,57,0
346247,note_on,,,,,0,0,1,,,,,0,,,85,0
346247,note_on,,,,,0,0,1,,,,,0,,,88,0
346260,set_tempo,,,,,360,1,0,,500000,,,,,,,
346380,note_on,,,,,0,0,2,,,,,0,,,33,96
346380,note_on,,,,,133,0,2,,,,,0,,,26,96
346380,note_on,,,,,0,0,1,,,,,0,,,62,96
346380,note_on,,,,,0,0,1,,,,,0,,,69,96
346380,note_on,,,,,0,0,1,,,,,0,,,66,96
346380,note_on,,,,,133,0,1,,,,,0,,,57,96
346380,note_on,,,,,0,0,2,,,,,0,,,38,96
346493,note_on,,,,,0,0,1,,,,,0,,,62,0
346493,note_on,,,,,113,0,2,,,,,0,,,26,0
346493,note_on,,,,,0,0,1,,,,,0,,,69,0
346493,note_on,,,,,0,0,1,,,,,0,,,66,0
346493,note_on,,,,,0,0,2,,,,,0,,,33,0
346493,note_on,,,,,0,0,2,,,,,0,,,38,0
346493,note_on,,,,,113,0,1,,,,,0,,,57,0
346500,note_on,,,,,0,0,2,,,,,0,,,38,115
346500,note_on,,,,,7,0,2,,,,,0,,,26,115
346500,note_on,,,,,0,0,1,,,,,0,,,62,115
346500,note_on,,,,,0,0,1,,,,,0,,,66,115
346500,note_on,,,,,7,0,1,,,,,0,,,57,115
346500,note_on,,,,,0,0,1,,,,,0,,,69,115
346500,note_on,,,,,0,0,2,,,,,0,,,33,115
346502,control_change,,,,,2,0,2,,,64,127,0,,,,
347340,note_on,,,,,0,0,1,,,,,0,,,93,96
347340,note_on,,,,,0,0,1,,,,,0,,,90,96
347340,note_on,,,,,0,0,1,,,,,0,,,86,96
347340,set_tempo,,,,,1080,1,0,,461538,,,,,,,
347340,note_on,,,,,0,0,1,,,,,0,,,69,0
347340,note_on,,,,,0,0,1,,,,,0,,,66,0
347340,note_on,,,,,838,0,2,,,,,0,,,57,96
347340,note_on,,,,,0,0,1,,,,,0,,,57,0
347340,note_on,,,,,0,0,2,,,,,0,,,69,96
347340,note_on,,,,,0,0,2,,,,,0,,,66,96
347340,note_on,,,,,0,0,1,,,,,0,,,62,0
347340,note_on,,,,,0,0,2,,,,,0,,,62,96
347340,note_on,,,,,840,0,1,,,,,0,,,81,96
347453,note_on,,,,,0,0,1,,,,,0,,,93,0
347453,note_on,,,,,113,0,1,,,,,0,,,81,0
347453,note_on,,,,,0,0,1,,,,,0,,,90,0
347453,note_on,,,,,0,0,1,,,,,0,,,86,0
347460,note_on,,,,,0,0,2,,,,,0,,,66,96
347460,note_on,,,,,7,0,1,,,,,0,,,81,96
347460,note_on,,,,,0,0,2,,,,,0,,,62,0
347460,note_on,,,,,0,0,2,,,,,0,,,57,96
347460,note_on,,,,,0,0,1,,,,,0,,,86,96
347460,note_on,,,,,0,0,2,,,,,0,,,62,96
347460,note_on,,,,,120,0,2,,,,,0,,,57,0
347460,note_on,,,,,0,0,2,,,,,0,,,66,0
347460,note_on,,,,,0,0,1,,,,,0,,,93,96
347460,note_on,,,,,0,0,2,,,,,0,,,69,96
347460,note_on,,,,,0,0,2,,,,,0,,,69,0
347460,note_on,,,,,0,0,1,,,,,0,,,90,96
347687,note_on,,,,,227,0,1,,,,,0,,,81,0
347687,note_on,,,,,0,0,1,,,,,0,,,86,0
347687,note_on,,,,,0,0,1,,,,,0,,,90,0
347687,note_on,,,,,0,0,1,,,,,0,,,93,0
347785,note_on,,,,,0,0,2,,,,,0,,,26,0
347785,note_on,,,,,0,0,2,,,,,0,,,33,0
347785,note_on,,,,,0,0,2,,,,,0,,,38,0
347785,note_on,,,,,0,0,2,,,,,0,,,69,0
347785,note_on,,,,,0,0,2,,,,,0,,,66,0
347785,note_on,,,,,325,0,2,,,,,0,,,57,0
347785,note_on,,,,,0,0,2,,,,,0,,,62,0
347820,note_on,,,,,0,0,1,,,,,0,,,90,96
347820,note_on,,,,,0,0,1,,,,,0,,,93,96
347820,note_on,,,,,0,0,1,,,,,0,,,98,96
347820,note_on,,,,,0,0,2,,,,,0,,,66,96
347820,note_on,,,,,35,0,2,,,,,0,,,62,96
347820,note_on,,,,,0,0,2,,,,,0,,,74,96
347820,note_on,,,,,0,0,2,,,,,0,,,69,96
347820,note_on,,,,,133,0,1,,,,,0,,,86,96
347933,note_on,,,,,0,0,2,,,,,0,,,66,0
347933,note_on,,,,,0,0,2,,,,,0,,,69,0
347933,note_on,,,,,0,0,2,,,,,0,,,74,0
347933,note_on,,,,,113,0,1,,,,,0,,,86,0
347933,note_on,,,,,0,0,1,,,,,0,,,90,0
347933,note_on,,,,,113,0,2,,,,,0,,,62,0
347933,note_on,,,,,0,0,1,,,,,0,,,93,0
347933,note_on,,,,,0,0,1,,,,,0,,,98,0
347940,note_on,,,,,7,0,1,,,,,0,,,86,96
347940,note_on,,,,,0,0,1,,,,,0,,,90,96
347940,note_on,,,,,0,0,1,,,,,0,,,93,96
347940,note_on,,,,,0,0,2,,,,,0,,,69,96
347940,note_on,,,,,0,0,2,,,,,0,,,66,96
347940,note_on,,,,,0,0,2,,,,,0,,,74,96
347940,note_on,,,,,7,0,2,,,,,0,,,62,96
347940,note_on,,,,,0,0,1,,,,,0,,,98,96
348167,note_on,,,,,227,0,1,,,,,0,,,86,0
348167,note_on,,,,,0,0,1,,,,,0,,,90,0
348167,note_on,,,,,0,0,1,,,,,0,,,93,0
348167,note_on,,,,,0,0,1,,,,,0,,,98,0
348167,note_on,,,,,0,0,2,,,,,0,,,74,0
348167,note_on,,,,,227,0,2,,,,,0,,,62,0
348167,note_on,,,,,0,0,2,,,,,0,,,66,0
348167,note_on,,,,,0,0,2,,,,,0,,,69,0
348300,note_on,,,,,0,0,2,,,,,0,,,62,96
348300,note_on,,,,,0,0,1,,,,,0,,,90,96
348300,note_on,,,,,133,0,1,,,,,0,,,78,96
348300,note_on,,,,,133,0,2,,,,,0,,,54,96
348300,note_on,,,,,0,0,2,,,,,0,,,66,96
348300,note_on,,,,,0,0,1,,,,,0,,,86,96
348413,note_on,,,,,0,0,1,,,,,0,,,90,0
348413,note_on,,,,,0,0,1,,,,,0,,,86,0
348413,note_on,,,,,113,0,1,,,,,0,,,78,0
348413,note_on,,,,,0,0,2,,,,,0,,,62,0
348413,note_on,,,,,0,0,2,,,,,0,,,66,0
348413,note_on,,,,,113,0,2,,,,,0,,,54,0
348420,note_on,,,,,0,0,2,,,,,0,,,66,96
348420,note_on,,,,,0,0,2,,,,,0,,,62,96
348420,note_on,,,,,7,0,2,,,,,0,,,54,96
348420,note_on,,,,,7,0,1,,,,,0,,,78,96
348420,note_on,,,,,0,0,1,,,,,0,,,90,96
348420,note_on,,,,,0,0,1,,,,,0,,,86,96
348647,note_on,,,,,227,0,1,,,,,0,,,78,0
348647,note_on,,,,,0,0,2,,,,,0,,,66,0
348647,note_on,,,,,0,0,2,,,,,0,,,62,0
348647,note_on,,,,,227,0,2,,,,,0,,,54,0
348647,note_on,,,,,0,0,1,,,,,0,,,90,0
348647,note_on,,,,,0,0,1,,,,,0,,,86,0
348780,note_on,,,,,0,0,2,,,,,0,,,69,96
348780,note_on,,,,,133,0,2,,,,,0,,,57,96
348780,note_on,,,,,133,0,1,,,,,0,,,81,96
348780,note_on,,,,,0,0,1,,,,,0,,,86,96
348780,note_on,,,,,0,0,1,,,,,0,,,90,96
348780,note_on,,,,,0,0,1,,,,,0,,,93,96
348780,note_on,,,,,0,0,2,,,,,0,,,62,96
348780,note_on,,,,,0,0,2,,,,,0,,,66,96
348893,note_on,,,,,113,0,1,,,,,0,,,81,0
348893,note_on,,,,,0,0,2,,,,,0,,,69,0
348893,note_on,,,,,0,0,1,,,,,0,,,86,0
348893,note_on,,,,,0,0,1,,,,,0,,,90,0
348893,note_on,,,,,0,0,1,,,,,0,,,93,0
348893,note_on,,,,,0,0,2,,,,,0,,,66,0
348893,note_on,,,,,113,0,2,,,,,0,,,57,0
348893,note_on,,,,,0,0,2,,,,,0,,,62,0
348900,note_on,,,,,7,0,1,,,,,0,,,81,96
348900,note_on,,,,,0,0,1,,,,,0,,,90,96
348900,note_on,,,,,0,0,1,,,,,0,,,86,96
348900,note_on,,,,,0,0,1,,,,,0,,,93,96
348900,note_on,,,,,0,0,2,,,,,0,,,62,96
348900,note_on,,,,,0,0,2,,,,,0,,,66,96
348900,note_on,,,,,0,0,2,,,,,0,,,69,96
348900,note_on,,,,,7,0,2,,,,,0,,,57,96
349127,note_on,,,,,0,0,1,,,,,0,,,86,0
349127,note_on,,,,,0,0,1,,,,,0,,,90,0
349127,note_on,,,,,0,0,1,,,,,0,,,93,0
349127,note_on,,,,,227,0,2,,,,,0,,,57,0
349127,note_on,,,,,0,0,2,,,,,0,,,66,0
349127,note_on,,,,,0,0,2,,,,,0,,,62,0
349127,note_on,,,,,227,0,1,,,,,0,,,81,0
349127,note_on,,,,,0,0,2,,,,,0,,,69,0
349260,note_on,,,,,0,0,2,,,,,0,,,54,96
349260,note_on,,,,,0,0,1,,,,,0,,,86,96
349260,note_on,,,,,0,0,1,,,,,0,,,81,96
349260,note_on,,,,,133,0,2,,,,,0,,,50,96
349260,note_on,,,,,0,0,1,,,,,0,,,78,96
349260,note_on,,,,,133,0,1,,,,,0,,,74,96
349260,note_on,,,,,0,0,2,,,,,0,,,62,96
349260,note_on,,,,,0,0,2,,,,,0,,,57,96
349373,note_on,,,,,0,0,1,,,,,0,,,81,0
349373,note_on,,,,,0,0,2,,,,,0,,,57,0
349373,note_on,,,,,0,0,1,,,,,0,,,86,0
349373,note_on,,,,,0,0,2,,,,,0,,,62,0
349373,note_on,,,,,0,0,2,,,,,0,,,54,0
349373,note_on,,,,,0,0,1,,,,,0,,,78,0
349373,note_on,,,,,113,0,2,,,,,0,,,50,0
349373,note_on,,,,,113,0,1,,,,,0,,,74,0
349380,note_on,,,,,7,0,2,,,,,0,,,50,96
349380,note_on,,,,,0,0,1,,,,,0,,,78,96
349380,note_on,,,,,0,0,1,,,,,0,,,81,96
349380,note_on,,,,,0,0,1,,,,,0,,,86,96
349380,note_on,,,,,0,0,2,,,,,0,,,62,96
349380,note_on,,,,,0,0,2,,,,,0,,,57,96
349380,note_on,,,,,7,0,1,,,,,0,,,74,96
349380,note_on,,,,,0,0,2,,,,,0,,,54,96
349607,note_on,,,,,0,0,2,,,,,0,,,62,0
349607,note_on,,,,,0,0,2,,,,,0,,,57,0
349607,note_on,,,,,0,0,2,,,,,0,,,54,0
349607,note_on,,,,,0,0,1,,,,,0,,,86,0
349607,note_on,,,,,227,0,1,,,,,0,,,74,0
349607,note_on,,,,,0,0,1,,,,,0,,,81,0
349607,note_on,,,,,0,0,1,,,,,0,,,78,0
349607,note_on,,,,,227,0,2,,,,,0,,,50,0
349740,note_on,,,,,0,0,2,,,,,0,,,62,96
349740,note_on,,,,,133,0,2,,,,,0,,,54,96
349740,note_on,,,,,0,0,2,,,,,0,,,66,96
349740,note_on,,,,,133,0,1,,,,,0,,,78,96
349740,note_on,,,,,0,0,1,,,,,0,,,86,96
349740,note_on,,,,,0,0,1,,,,,0,,,90,96
349853,note_on,,,,,0,0,2,,,,,0,,,62,0
349853,note_on,,,,,113,0,1,,,,,0,,,78,0
349853,note_on,,,,,113,0,2,,,,,0,,,54,0
349853,note_on,,,,,0,0,1,,,,,0,,,86,0
349853,note_on,,,,,0,0,2,,,,,0,,,66,0
349853,note_on,,,,,0,0,1,,,,,0,,,90,0
349860,note_on,,,,,0,0,1,,,,,0,,,86,96
349860,note_on,,,,,0,0,1,,,,,0,,,90,96
349860,note_on,,,,,7,0,2,,,,,0,,,54,96
349860,note_on,,,,,7,0,1,,,,,0,,,78,96
349860,note_on,,,,,0,0,2,,,,,0,,,62,96
349860,note_on,,,,,0,0,2,,,,,0,,,66,96
350087,note_on,,,,,227,0,2,,,,,0,,,54,0
350087,note_on,,,,,0,0,1,,,,,0,,,86,0
350087,note_on,,,,,0,0,1,,,,,0,,,90,0
350087,note_on,,,,,0,0,2,,,,,0,,,62,0
350087,note_on,,,,,227,0,1,,,,,0,,,78,0
350087,note_on,,,,,0,0,2,,,,,0,,,66,0
350220,note_on,,,,,0,0,2,,,,,0,,,50,96
350220,note_on,,,,,0,0,2,,,,,0,,,57,96
350220,note_on,,,,,0,0,2,,,,,0,,,54,96
350220,note_on,,,,,0,0,1,,,,,0,,,78,96
350220,note_on,,,,,0,0,1,,,,,0,,,81,96
350220,note_on,,,,,133,0,1,,,,,0,,,69,96
350220,note_on,,,,,133,0,2,,,,,0,,,45,96
350220,note_on,,,,,0,0,1,,,,,0,,,74,96
350333,note_on,,,,,0,0,2,,,,,0,,,57,0
350333,note_on,,,,,0,0,1,,,,,0,,,74,0
350333,note_on,,,,,0,0,1,,,,,0,,,78,0
350333,note_on,,,,,0,0,1,,,,,0,,,81,0
350333,note_on,,,,,113,0,1,,,,,0,,,69,0
350333,note_on,,,,,0,0,2,,,,,0,,,50,0
350333,note_on,,,,,113,0,2,,,,,0,,,45,0
350333,note_on,,,,,0,0,2,,,,,0,,,54,0
350340,note_on,,,,,7,0,2,,,,,0,,,45,96
350340,note_on,,,,,0,0,1,,,,,0,,,81,96
350340,note_on,,,,,0,0,2,,,,,0,,,54,96
350340,note_on,,,,,0,0,1,,,,,0,,,78,96
350340,note_on,,,,,0,0,2,,,,,0,,,57,96
350340,note_on,,,,,0,0,2,,,,,0,,,50,96
350340,note_on,,,,,0,0,1,,,,,0,,,74,96
350340,note_on,,,,,7,0,1,,,,,0,,,69,96
350567,note_on,,,,,0,0,2,,,,,0,,,50,0
350567,note_on,,,,,0,0,1,,,,,0,,,81,0
350567,note_on,,,,,227,0,1,,,,,0,,,69,0
350567,note_on,,,,,0,0,1,,,,,0,,,74,0
350567,note_on,,,,,0,0,1,,,,,0,,,78,0
350567,note_on,,,,,227,0,2,,,,,0,,,45,0
350567,note_on,,,,,0,0,2,,,,,0,,,57,0
350567,note_on,,,,,0,0,2,,,,,0,,,54,0
350700,note_on,,,,,0,0,1,,,,,0,,,86,96
350700,note_on,,,,,0,0,1,,,,,0,,,81,96
350700,note_on,,,,,0,0,1,,,,,0,,,78,96
350700,note_on,,,,,0,0,2,,,,,0,,,54,96
350700,note_on,,,,,0,0,2,,,,,0,,,57,96
350700,note_on,,,,,0,0,2,,,,,0,,,62,96
350700,note_on,,,,,133,0,1,,,,,0,,,74,96
350700,note_on,,,,,133,0,2,,,,,0,,,50,96
350813,note_on,,,,,0,0,1,,,,,0,,,78,0
350813,note_on,,,,,0,0,1,,,,,0,,,81,0
350813,note_on,,,,,0,0,1,,,,,0,,,86,0
350813,note_on,,,,,113,0,2,,,,,0,,,50,0
350813,note_on,,,,,0,0,2,,,,,0,,,54,0
350813,note_on,,,,,0,0,2,,,,,0,,,62,0
350813,note_on,,,,,113,0,1,,,,,0,,,74,0
350813,note_on,,,,,0,0,2,,,,,0,,,57,0
350820,note_on,,,,,7,0,2,,,,,0,,,50,96
350820,note_on,,,,,0,0,2,,,,,0,,,62,96
350820,note_on,,,,,0,0,2,,,,,0,,,57,96
350820,note_on,,,,,0,0,1,,,,,0,,,78,96
350820,note_on,,,,,0,0,2,,,,,0,,,54,96
350820,note_on,,,,,0,0,1,,,,,0,,,81,96
350820,note_on,,,,,0,0,1,,,,,0,,,86,96
350820,note_on,,,,,7,0,1,,,,,0,,,74,96
351047,note_on,,,,,0,0,2,,,,,0,,,57,0
351047,note_on,,,,,0,0,1,,,,,0,,,78,0
351047,note_on,,,,,0,0,1,,,,,0,,,81,0
351047,note_on,,,,,227,0,2,,,,,0,,,50,0
351047,note_on,,,,,0,0,2,,,,,0,,,54,0
351047,note_on,,,,,0,0,2,,,,,0,,,62,0
351047,note_on,,,,,227,0,1,,,,,0,,,74,0
351047,note_on,,,,,0,0,1,,,,,0,,,86,0
351180,note_on,,,,,133,0,2,,,,,0,,,42,96
351180,note_on,,,,,0,0,2,,,,,0,,,54,96
351180,note_on,,,,,0,0,2,,,,,0,,,50,96
351180,note_on,,,,,0,0,1,,,,,0,,,78,96
351180,note_on,,,,,0,0,1,,,,,0,,,74,96
351180,note_on,,,,,133,0,1,,,,,0,,,66,96
351293,note_on,,,,,113,0,2,,,,,0,,,42,0
351293,note_on,,,,,0,0,2,,,,,0,,,54,0
351293,note_on,,,,,113,0,1,,,,,0,,,66,0
351293,note_on,,,,,0,0,1,,,,,0,,,74,0
351293,note_on,,,,,0,0,2,,,,,0,,,50,0
351293,note_on,,,,,0,0,1,,,,,0,,,78,0
351300,note_on,,,,,0,0,2,,,,,0,,,50,96
351300,note_on,,,,,0,0,2,,,,,0,,,54,96
351300,note_on,,,,,0,0,1,,,,,0,,,78,96
351300,note_on,,,,,0,0,1,,,,,0,,,74,96
351300,note_on,,,,,7,0,2,,,,,0,,,42,96
351300,note_on,,,,,7,0,1,,,,,0,,,66,96
351527,note_on,,,,,0,0,1,,,,,0,,,78,0
351527,note_on,,,,,0,0,1,,,,,0,,,74,0
351527,note_on,,,,,227,0,1,,,,,0,,,66,0
351527,note_on,,,,,0,0,2,,,,,0,,,54,0
351527,note_on,,,,,0,0,2,,,,,0,,,50,0
351527,note_on,,,,,227,0,2,,,,,0,,,42,0
351660,note_on,,,,,0,0,1,,,,,0,,,81,96
351660,note_on,,,,,133,0,1,,,,,0,,,69,96
351660,note_on,,,,,0,0,1,,,,,0,,,74,96
351660,note_on,,,,,0,0,1,,,,,0,,,78,96
351660,note_on,,,,,133,0,2,,,,,0,,,45,96
351660,note_on,,,,,0,0,2,,,,,0,,,50,96
351660,note_on,,,,,0,0,2,,,,,0,,,54,96
351660,note_on,,,,,0,0,2,,,,,0,,,57,96
351773,note_on,,,,,113,0,1,,,,,0,,,69,0
351773,note_on,,,,,0,0,1,,,,,0,,,81,0
351773,note_on,,,,,113,0,2,,,,,0,,,45,0
351773,note_on,,,,,0,0,1,,,,,0,,,74,0
351773,note_on,,,,,0,0,2,,,,,0,,,50,0
351773,note_on,,,,,0,0,1,,,,,0,,,78,0
351773,note_on,,,,,0,0,2,,,,,0,,,57,0
351773,note_on,,,,,0,0,2,,,,,0,,,54,0
351780,note_on,,,,,0,0,1,,,,,0,,,81,96
351780,note_on,,,,,7,0,2,,,,,0,,,45,96
351780,note_on,,,,,7,0,1,,,,,0,,,69,96
351780,note_on,,,,,0,0,1,,,,,0,,,74,96
351780,note_on,,,,,0,0,1,,,,,0,,,78,96
351780,note_on,,,,,0,0,2,,,,,0,,,50,96
351780,note_on,,,,,0,0,2,,,,,0,,,54,96
351780,note_on,,,,,0,0,2,,,,,0,,,57,96
352007,note_on,,,,,227,0,1,,,,,0,,,69,0
352007,note_on,,,,,0,0,2,,,,,0,,,57,0
352007,note_on,,,,,0,0,1,,,,,0,,,74,0
352007,note_on,,,,,227,0,2,,,,,0,,,45,0
352007,note_on,,,,,0,0,1,,,,,0,,,78,0
352007,note_on,,,,,0,0,1,,,,,0,,,81,0
352007,note_on,,,,,0,0,2,,,,,0,,,54,0
352007,note_on,,,,,0,0,2,,,,,0,,,50,0
352140,note_on,,,,,0,0,1,,,,,0,,,74,96
352140,note_on,,,,,133,0,1,,,,,0,,,62,96
352140,note_on,,,,,0,0,1,,,,,0,,,66,96
352140,note_on,,,,,0,0,2,,,,,0,,,50,96
352140,note_on,,,,,0,0,1,,,,,0,,,69,96
352140,note_on,,,,,0,0,2,,,,,0,,,42,96
352140,note_on,,,,,133,0,2,,,,,0,,,38,96
352140,note_on,,,,,0,0,2,,,,,0,,,45,96
352253,note_on,,,,,113,0,1,,,,,0,,,62,0
352253,note_on,,,,,113,0,2,,,,,0,,,38,0
352253,note_on,,,,,0,0,1,,,,,0,,,74,0
352253,note_on,,,,,0,0,2,,,,,0,,,45,0
352253,note_on,,,,,0,0,2,,,,,0,,,42,0
352253,note_on,,,,,0,0,1,,,,,0,,,66,0
352253,note_on,,,,,0,0,1,,,,,0,,,69,0
352253,note_on,,,,,0,0,2,,,,,0,,,50,0
352260,note_on,,,,,0,0,2,,,,,0,,,45,96
352260,note_on,,,,,0,0,2,,,,,0,,,50,96
352260,note_on,,,,,7,0,1,,,,,0,,,62,96
352260,note_on,,,,,0,0,1,,,,,0,,,74,96
352260,note_on,,,,,0,0,2,,,,,0,,,42,96
352260,note_on,,,,,7,0,2,,,,,0,,,38,96
352260,note_on,,,,,0,0,1,,,,,0,,,69,96
352260,note_on,,,,,0,0,1,,,,,0,,,66,96
352487,note_on,,,,,0,0,2,,,,,0,,,45,0
352487,note_on,,,,,0,0,2,,,,,0,,,42,0
352487,note_on,,,,,0,0,1,,,,,0,,,69,0
352487,note_on,,,,,0,0,1,,,,,0,,,74,0
352487,note_on,,,,,0,0,1,,,,,0,,,66,0
352487,note_on,,,,,0,0,2,,,,,0,,,50,0
352487,note_on,,,,,227,0,1,,,,,0,,,62,0
352487,note_on,,,,,227,0,2,,,,,0,,,38,0
352620,note_on,,,,,0,0,2,,,,,0,,,50,96
352620,note_on,,,,,133,0,1,,,,,0,,,66,96
352620,note_on,,,,,133,0,2,,,,,0,,,42,96
352620,note_on,,,,,0,0,2,,,,,0,,,54,96
352620,note_on,,,,,0,0,1,,,,,0,,,74,96
352620,note_on,,,,,0,0,1,,,,,0,,,78,96
352733,note_on,,,,,113,0,1,,,,,0,,,66,0
352733,note_on,,,,,0,0,2,,,,,0,,,54,0
352733,note_on,,,,,0,0,1,,,,,0,,,74,0
352733,note_on,,,,,0,0,1,,,,,0,,,78,0
352733,note_on,,,,,113,0,2,,,,,0,,,42,0
352733,note_on,,,,,0,0,2,,,,,0,,,50,0
352740,note_on,,,,,0,0,1,,,,,0,,,78,96
352740,note_on,,,,,0,0,2,,,,,0,,,50,96
352740,note_on,,,,,0,0,2,,,,,0,,,54,96
352740,note_on,,,,,0,0,1,,,,,0,,,74,96
352740,note_on,,,,,7,0,2,,,,,0,,,42,96
352740,note_on,,,,,7,0,1,,,,,0,,,66,96
352967,note_on,,,,,0,0,1,,,,,0,,,78,0
352967,note_on,,,,,0,0,2,,,,,0,,,54,0
352967,note_on,,,,,227,0,1,,,,,0,,,66,0
352967,note_on,,,,,0,0,1,,,,,0,,,74,0
352967,note_on,,,,,227,0,2,,,,,0,,,42,0
352967,note_on,,,,,0,0,2,,,,,0,,,50,0
353100,note_on,,,,,0,0,2,,,,,0,,,38,96
353100,note_on,,,,,0,0,2,,,,,0,,,42,96
353100,note_on,,,,,0,0,1,,,,,0,,,66,96
353100,note_on,,,,,0,0,1,,,,,0,,,62,96
353100,note_on,,,,,0,0,1,,,,,0,,,69,96
353100,note_on,,,,,0,0,2,,,,,0,,,45,96
353100,note_on,,,,,133,0,2,,,,,0,,,33,96
353100,note_on,,,,,133,0,1,,,,,0,,,57,96
353213,note_on,,,,,0,0,1,,,,,0,,,62,0
353213,note_on,,,,,0,0,2,,,,,0,,,42,0
353213,note_on,,,,,0,0,1,,,,,0,,,66,0
353213,note_on,,,,,0,0,2,,,,,0,,,38,0
353213,note_on,,,,,0,0,2,,,,,0,,,45,0
353213,note_on,,,,,113,0,2,,,,,0,,,33,0
353213,note_on,,,,,0,0,1,,,,,0,,,69,0
353213,note_on,,,,,113,0,1,,,,,0,,,57,0
353220,note_on,,,,,7,0,1,,,,,0,,,57,96
353220,note_on,,,,,0,0,1,,,,,0,,,62,96
353220,note_on,,,,,0,0,1,,,,,0,,,66,96
353220,note_on,,,,,0,0,1,,,,,0,,,69,96
353220,note_on,,,,,0,0,2,,,,,0,,,38,96
353220,note_on,,,,,0,0,2,,,,,0,,,42,96
353220,note_on,,,,,0,0,2,,,,,0,,,45,96
353220,note_on,,,,,7,0,2,,,,,0,,,33,96
353447,note_on,,,,,0,0,1,,,,,0,,,62,0
353447,note_on,,,,,0,0,1,,,,,0,,,66,0
353447,note_on,,,,,0,0,2,,,,,0,,,42,0
353447,note_on,,,,,0,0,1,,,,,0,,,69,0
353447,note_on,,,,,227,0,2,,,,,0,,,33,0
353447,note_on,,,,,0,0,2,,,,,0,,,45,0
353447,note_on,,,,,227,0,1,,,,,0,,,57,0
353447,note_on,,,,,0,0,2,,,,,0,,,38,0
353580,note_on,,,,,133,0,1,,,,,0,,,62,96
353580,note_on,,,,,0,0,2,,,,,0,,,42,96
353580,note_on,,,,,0,0,2,,,,,0,,,45,96
353580,note_on,,,,,0,0,1,,,,,0,,,69,96
353580,note_on,,,,,0,0,2,,,,,0,,,50,96
353580,note_on,,,,,0,0,1,,,,,0,,,66,96
353580,note_on,,,,,133,0,2,,,,,0,,,38,96
353580,note_on,,,,,0,0,1,,,,,0,,,74,96
353693,note_on,,,,,0,0,1,,,,,0,,,66,0
353693,note_on,,,,,113,0,2,,,,,0,,,38,0
353693,note_on,,,,,113,0,1,,,,,0,,,62,0
353693,note_on,,,,,0,0,1,,,,,0,,,74,0
353693,note_on,,,,,0,0,1,,,,,0,,,69,0
353693,note_on,,,,,0,0,2,,,,,0,,,50,0
353693,note_on,,,,,0,0,2,,,,,0,,,45,0
353693,note_on,,,,,0,0,2,,,,,0,,,42,0
353700,note_on,,,,,0,0,2,,,,,0,,,42,96
353700,note_on,,,,,0,0,1,,,,,0,,,66,96
353700,note_on,,,,,0,0,1,,,,,0,,,74,96
353700,note_on,,,,,0,0,1,,,,,0,,,69,96
353700,note_on,,,,,7,0,2,,,,,0,,,38,96
353700,note_on,,,,,7,0,1,,,,,0,,,62,96
353700,note_on,,,,,0,0,2,,,,,0,,,50,96
353700,note_on,,,,,0,0,2,,,,,0,,,45,96
353927,note_on,,,,,227,0,2,,,,,0,,,38,0
353927,note_on,,,,,0,0,2,,,,,0,,,50,0
353927,note_on,,,,,0,0,1,,,,,0,,,74,0
353927,note_on,,,,,0,0,1,,,,,0,,,69,0
353927,note_on,,,,,227,0,1,,,,,0,,,62,0
353927,note_on,,,,,0,0,1,,,,,0,,,66,0
353927,note_on,,,,,0,0,2,,,,,0,,,45,0
353927,note_on,,,,,0,0,2,,,,,0,,,42,0
354060,note_on,,,,,0,0,1,,,,,0,,,66,96
354060,note_on,,,,,0,0,1,,,,,0,,,54,96
354060,note_on,,,,,133,0,1,,,,,0,,,62,96
354060,note_on,,,,,0,0,2,,,,,0,,,38,96
354060,note_on,,,,,0,0,2,,,,,0,,,42,96
354060,note_on,,,,,133,0,2,,,,,0,,,30,96
354173,note_on,,,,,0,0,2,,,,,0,,,42,0
354173,note_on,,,,,0,0,2,,,,,0,,,38,0
354173,note_on,,,,,0,0,1,,,,,0,,,54,0
354173,note_on,,,,,113,0,2,,,,,0,,,30,0
354173,note_on,,,,,0,0,1,,,,,0,,,66,0
354173,note_on,,,,,113,0,1,,,,,0,,,62,0
354180,note_on,,,,,7,0,1,,,,,0,,,62,96
354180,note_on,,,,,0,0,2,,,,,0,,,42,96
354180,note_on,,,,,0,0,2,,,,,0,,,38,96
354180,note_on,,,,,0,0,1,,,,,0,,,54,96
354180,note_on,,,,,7,0,2,,,,,0,,,30,96
354180,note_on,,,,,0,0,1,,,,,0,,,66,96
354407,note_on,,,,,0,0,1,,,,,0,,,66,0
354407,note_on,,,,,0,0,1,,,,,0,,,54,0
354407,note_on,,,,,227,0,2,,,,,0,,,30,0
354407,note_on,,,,,0,0,2,,,,,0,,,38,0
354407,note_on,,,,,227,0,1,,,,,0,,,62,0
354407,note_on,,,,,0,0,2,,,,,0,,,42,0
354540,note_on,,,,,133,0,2,,,,,0,,,33,96
354540,note_on,,,,,133,0,1,,,,,0,,,62,96
354540,note_on,,,,,0,0,1,,,,,0,,,69,96
354540,note_on,,,,,0,0,2,,,,,0,,,38,96
354540,note_on,,,,,0,0,2,,,,,0,,,42,96
354540,note_on,,,,,0,0,1,,,,,0,,,66,96
354540,note_on,,,,,0,0,1,,,,,0,,,57,96
354540,note_on,,,,,0,0,2,,,,,0,,,45,96
354653,note_on,,,,,0,0,2,,,,,0,,,45,0
354653,note_on,,,,,113,0,2,,,,,0,,,33,0
354653,note_on,,,,,0,0,2,,,,,0,,,42,0
354653,note_on,,,,,0,0,1,,,,,0,,,57,0
354653,note_on,,,,,113,0,1,,,,,0,,,62,0
354653,note_on,,,,,0,0,1,,,,,0,,,66,0
354653,note_on,,,,,0,0,2,,,,,0,,,38,0
354653,note_on,,,,,0,0,1,,,,,0,,,69,0
354660,note_on,,,,,7,0,1,,,,,0,,,62,96
354660,note_on,,,,,0,0,1,,,,,0,,,69,96
354660,note_on,,,,,0,0,2,,,,,0,,,45,96
354660,note_on,,,,,0,0,2,,,,,0,,,42,96
354660,note_on,,,,,0,0,1,,,,,0,,,57,96
354660,note_on,,,,,7,0,2,,,,,0,,,33,96
354660,note_on,,,,,0,0,2,,,,,0,,,38,96
354660,note_on,,,,,0,0,1,,,,,0,,,66,96
354887,note_on,,,,,227,0,2,,,,,0,,,33,0
354887,note_on,,,,,0,0,1,,,,,0,,,57,0
354887,note_on,,,,,0,0,2,,,,,0,,,45,0
354887,note_on,,,,,0,0,2,,,,,0,,,42,0
354887,note_on,,,,,0,0,2,,,,,0,,,38,0
354887,note_on,,,,,0,0,1,,,,,0,,,66,0
354887,note_on,,,,,227,0,1,,,,,0,,,62,0
354887,note_on,,,,,0,0,1,,,,,0,,,69,0
355020,note_on,,,,,0,0,1,,,,,0,,,54,96
355020,note_on,,,,,0,0,1,,,,,0,,,57,96
355020,note_on,,,,,133,0,2,,,,,0,,,26,96
355020,note_on,,,,,133,0,1,,,,,0,,,50,96
355020,note_on,,,,,0,0,2,,,,,0,,,33,96
355020,note_on,,,,,0,0,2,,,,,0,,,38,96
355020,note_on,,,,,0,0,1,,,,,0,,,62,96
355133,note_on,,,,,113,0,2,,,,,0,,,26,0
355133,note_on,,,,,113,0,1,,,,,0,,,50,0
355133,note_on,,,,,0,0,2,,,,,0,,,33,0
355133,note_on,,,,,0,0,2,,,,,0,,,38,0
355133,note_on,,,,,0,0,1,,,,,0,,,57,0
355133,note_on,,,,,0,0,1,,,,,0,,,62,0
355133,note_on,,,,,0,0,1,,,,,0,,,54,0
355140,note_on,,,,,0,0,1,,,,,0,,,62,96
355140,note_on,,,,,0,0,2,,,,,0,,,33,96
355140,note_on,,,,,0,0,1,,,,,0,,,57,96
355140,note_on,,,,,0,0,1,,,,,0,,,54,96
355140,note_on,,,,,7,0,1,,,,,0,,,50,96
355140,note_on,,,,,0,0,2,,,,,0,,,38,96
355140,note_on,,,,,7,0,2,,,,,0,,,26,96
355141,control_change,,,,,1,0,2,,,64,0,0,,,,
355367,note_on,,,,,0,0,1,,,,,0,,,62,0
355367,note_on,,,,,0,0,1,,,,,0,,,54,0
355367,note_on,,,,,227,0,1,,,,,0,,,50,0
355367,note_on,,,,,0,0,1,,,,,0,,,57,0
355367,note_on,,,,,0,0,2,,,,,0,,,38,0
355367,note_on,,,,,0,0,2,,,,,0,,,33,0
355367,note_on,,,,,226,0,2,,,,,0,,,26,0
355380,note_on,,,,,13,0,1,,,,,0,,,50,96
355380,note_on,,,,,0,0,1,,,,,0,,,55,96
355380,note_on,,,,,0,0,1,,,,,0,,,58,96
355380,note_on,,,,,0,0,1,,,,,0,,,62,96
355380,note_on,,,,,0,0,2,,,,,0,,,38,96
355380,note_on,,,,,0,0,2,,,,,0,,,34,96
355380,note_on,,,,,13,0,2,,,,,0,,,26,96
355607,note_on,,,,,0,0,2,,,,,0,,,34,0
355607,note_on,,,,,227,0,1,,,,,0,,,50,0
355607,note_on,,,,,0,0,2,,,,,0,,,38,0
355607,note_on,,,,,0,0,1,,,,,0,,,62,0
355607,note_on,,,,,0,0,1,,,,,0,,,58,0
355607,note_on,,,,,0,0,1,,,,,0,,,55,0
355607,note_on,,,,,227,0,2,,,,,0,,,26,0
355620,note_on,,,,,13,0,1,,,,,0,,,50,96
355620,note_on,,,,,0,0,1,,,,,0,,,62,96
355620,note_on,,,,,13,0,2,,,,,0,,,26,96
355620,note_on,,,,,0,0,1,,,,,0,,,57,96
355620,note_on,,,,,0,0,1,,,,,0,,,54,96
355620,note_on,,,,,0,0,2,,,,,0,,,33,96
355620,note_on,,,,,0,0,2,,,,,0,,,38,96
355847,note_on,,,,,227,0,2,,,,,0,,,26,0
355847,note_on,,,,,227,0,1,,,,,0,,,50,0
355847,note_on,,,,,0,0,2,,,,,0,,,38,0
355847,note_on,,,,,0,0,1,,,,,0,,,54,0
355847,note_on,,,,,0,0,2,,,,,0,,,33,0
355847,note_on,,,,,0,0,1,,,,,0,,,57,0
355847,note_on,,,,,0,0,1,,,,,0,,,62,0
355860,note_on,,,,,0,0,2,,,,,0,,,34,96
355860,note_on,,,,,0,0,1,,,,,0,,,62,96
355860,note_on,,,,,0,0,1,,,,,0,,,58,96
355860,note_on,,,,,0,0,1,,,,,0,,,55,96
355860,note_on,,,,,0,0,2,,,,,0,,,38,96
355860,note_on,,,,,13,0,1,,,,,0,,,50,96
355860,note_on,,,,,13,0,2,,,,,0,,,26,96
356087,note_on,,,,,0,0,2,,,,,0,,,38,0
356087,note_on,,,,,227,0,1,,,,,0,,,50,0
356087,note_on,,,,,0,0,2,,,,,0,,,34,0
356087,note_on,,,,,227,0,2,,,,,0,,,26,0
356087,note_on,,,,,0,0,1,,,,,0,,,55,0
356087,note_on,,,,,0,0,1,,,,,0,,,58,0
356087,note_on,,,,,0,0,1,,,,,0,,,62,0
356100,note_on,,,,,0,0,1,,,,,0,,,57,96
356100,note_on,,,,,0,0,1,,,,,0,,,62,96
356100,note_on,,,,,13,0,1,,,,,0,,,50,96
356100,note_on,,,,,13,0,2,,,,,0,,,26,96
356100,note_on,,,,,0,0,2,,,,,0,,,33,96
356100,note_on,,,,,0,0,1,,,,,0,,,54,96
356100,note_on,,,,,0,0,2,,,,,0,,,38,96
356327,note_on,,,,,227,0,2,,,,,0,,,26,0
356327,note_on,,,,,0,0,1,,,,,0,,,57,0
356327,note_on,,,,,227,0,1,,,,,0,,,50,0
356327,note_on,,,,,0,0,1,,,,,0,,,62,0
356327,note_on,,,,,0,0,1,,,,,0,,,54,0
356327,note_on,,,,,0,0,2,,,,,0,,,38,0
356327,note_on,,,,,0,0,2,,,,,0,,,33,0
356340,note_on,,,,,0,0,2,,,,,0,,,38,96
356340,note_on,,,,,0,0,1,,,,,0,,,55,96
356340,note_on,,,,,0,0,1,,,,,0,,,58,96
356340,note_on,,,,,0,0,1,,,,,0,,,62,96
356340,note_on,,,,,0,0,2,,,,,0,,,34,96
356340,note_on,,,,,13,0,2,,,,,0,,,26,96
356340,note_on,,,,,13,0,1,,,,,0,,,50,96
356567,note_on,,,,,0,0,1,,,,,0,,,58,0
356567,note_on,,,,,0,0,1,,,,,0,,,62,0
356567,note_on,,,,,227,0,1,,,,,0,,,50,0
356567,note_on,,,,,227,0,2,,,,,0,,,26,0
356567,note_on,,,,,0,0,2,,,,,0,,,34,0
356567,note_on,,,,,0,0,2,,,,,0,,,38,0
356567,note_on,,,,,0,0,1,,,,,0,,,55,0
356580,note_on,,,,,0,0,2,,,,,0,,,38,96
356580,note_on,,,,,0,0,1,,,,,0,,,62,96
356580,note_on,,,,,0,0,2,,,,,0,,,33,96
356580,note_on,,,,,13,0,1,,,,,0,,,50,96
356580,note_on,,,,,0,0,1,,,,,0,,,57,96
356580,note_on,,,,,0,0,1,,,,,0,,,54,96
356580,note_on,,,,,13,0,2,,,,,0,,,26,96
356807,note_on,,,,,227,0,1,,,,,0,,,50,0
356807,note_on,,,,,0,0,1,,,,,0,,,62,0
356807,note_on,,,,,0,0,2,,,,,0,,,33,0
356807,note_on,,,,,0,0,2,,,,,0,,,38,0
356807,note_on,,,,,0,0,1,,,,,0,,,57,0
356807,note_on,,,,,227,0,2,,,,,0,,,26,0
356807,note_on,,,,,0,0,1,,,,,0,,,54,0
356820,note_on,,,,,13,0,2,,,,,0,,,26,96
356820,note_on,,,,,13,0,1,,,,,0,,,50,96
356820,note_on,,,,,0,0,1,,,,,0,,,62,96
356820,note_on,,,,,0,0,2,,,,,0,,,38,96
356820,note_on,,,,,0,0,2,,,,,0,,,34,96
356820,note_on,,,,,0,0,1,,,,,0,,,58,96
356820,note_on,,,,,0,0,1,,,,,0,,,55,96
357047,note_on,,,,,0,0,1,,,,,0,,,62,0
357047,note_on,,,,,0,0,1,,,,,0,,,58,0
357047,note_on,,,,,227,0,1,,,,,0,,,50,0
357047,note_on,,,,,0,0,1,,,,,0,,,55,0
357047,note_on,,,,,227,0,2,,,,,0,,,26,0
357047,note_on,,,,,0,0,2,,,,,0,,,38,0
357047,note_on,,,,,0,0,2,,,,,0,,,34,0
357060,note_on,,,,,0,0,1,,,,,0,,,62,96
357060,note_on,,,,,0,0,1,,,,,0,,,57,96
357060,note_on,,,,,0,0,1,,,,,0,,,54,96
357060,note_on,,,,,13,0,2,,,,,0,,,26,96
357060,note_on,,,,,0,0,2,,,,,0,,,38,96
357060,note_on,,,,,0,0,2,,,,,0,,,33,96
357060,note_on,,,,,13,0,1,,,,,0,,,50,96
357287,note_on,,,,,0,0,1,,,,,0,,,57,0
357287,note_on,,,,,227,0,1,,,,,0,,,50,0
357287,note_on,,,,,227,0,2,,,,,0,,,26,0
357287,note_on,,,,,0,0,2,,,,,0,,,38,0
357287,note_on,,,,,0,0,2,,,,,0,,,33,0
357287,note_on,,,,,0,0,1,,,,,0,,,54,0
357287,note_on,,,,,0,0,1,,,,,0,,,62,0
357300,note_on,,,,,13,0,1,,,,,0,,,50,96
357300,note_on,,,,,13,0,2,,,,,0,,,26,96
357300,note_on,,,,,0,0,2,,,,,0,,,34,96
357300,note_on,,,,,0,0,1,,,,,0,,,58,96
357300,note_on,,,,,0,0,1,,,,,0,,,62,96
357300,note_on,,,,,0,0,2,,,,,0,,,38,96
357300,note_on,,,,,0,0,1,,,,,0,,,55,96
357527,note_on,,,,,0,0,1,,,,,0,,,55,0
357527,note_on,,,,,227,0,1,,,,,0,,,50,0
357527,note_on,,,,,0,0,1,,,,,0,,,62,0
357527,note_on,,,,,227,0,2,,,,,0,,,26,0
357527,note_on,,,,,0,0,2,,,,,0,,,38,0
357527,note_on,,,,,0,0,2,,,,,0,,,34,0
357527,note_on,,,,,0,0,1,,,,,0,,,58,0
357540,note_on,,,,,13,0,2,,,,,0,,,26,96
357540,note_on,,,,,0,0,1,,,,,0,,,57,96
357540,note_on,,,,,0,0,1,,,,,0,,,62,96
357540,note_on,,,,,0,0,1,,,,,0,,,54,96
357540,note_on,,,,,13,0,1,,,,,0,,,50,96
357540,note_on,,,,,0,0,2,,,,,0,,,38,96
357540,note_on,,,,,0,0,2,,,,,0,,,33,96
357767,note_on,,,,,0,0,2,,,,,0,,,38,0
357767,note_on,,,,,0,0,2,,,,,0,,,33,0
357767,note_on,,,,,227,0,1,,,,,0,,,50,0
357767,note_on,,,,,0,0,1,,,,,0,,,62,0
357767,note_on,,,,,0,0,1,,,,,0,,,57,0
357767,note_on,,,,,227,0,2,,,,,0,,,26,0
357767,note_on,,,,,0,0,1,,,,,0,,,54,0
357780,note_on,,,,,13,0,1,,,,,0,,,50,96
357780,note_on,,,,,0,0,1,,,,,0,,,62,96
357780,note_on,,,,,13,0,2,,,,,0,,,26,96
357780,note_on,,,,,0,0,1,,,,,0,,,58,96
357780,note_on,,,,,0,0,2,,,,,0,,,38,96
357780,note_on,,,,,0,0,2,,,,,0,,,34,96
357780,note_on,,,,,0,0,1,,,,,0,,,55,96
358007,note_on,,,,,227,0,1,,,,,0,,,50,0
358007,note_on,,,,,0,0,2,,,,,0,,,38,0
358007,note_on,,,,,0,0,1,,,,,0,,,55,0
358007,note_on,,,,,0,0,2,,,,,0,,,34,0
358007,note_on,,,,,0,0,1,,,,,0,,,62,0
358007,note_on,,,,,227,0,2,,,,,0,,,26,0
358007,note_on,,,,,0,0,1,,,,,0,,,58,0
358020,note_on,,,,,0,0,2,,,,,0,,,38,96
358020,note_on,,,,,0,0,1,,,,,0,,,54,96
358020,note_on,,,,,0,0,1,,,,,0,,,57,96
358020,note_on,,,,,0,0,2,,,,,0,,,33,96
358020,note_on,,,,,13,0,1,,,,,0,,,50,96
358020,note_on,,,,,13,0,2,,,,,0,,,26,96
358020,note_on,,,,,0,0,1,,,,,0,,,62,96
358022,control_change,,,,,2,0,2,,,64,127,0,,,,
358475,note_on,,,,,0,0,1,,,,,0,,,54,0
358475,note_on,,,,,0,0,1,,,,,0,,,57,0
358475,note_on,,,,,0,0,1,,,,,0,,,62,0
358475,note_on,,,,,0,0,2,,,,,0,,,33,0
358475,note_on,,,,,455,0,1,,,,,0,,,50,0
358475,note_on,,,,,453,0,2,,,,,0,,,26,0
358475,note_on,,,,,0,0,2,,,,,0,,,38,0
358500,note_on,,,,,25,0,1,,,,,0,,,62,96
358500,note_on,,,,,0,0,2,,,,,0,,,45,96
358500,note_on,,,,,0,0,2,,,,,0,,,42,96
358500,note_on,,,,,25,0,2,,,,,0,,,38,96
358500,note_on,,,,,0,0,2,,,,,0,,,50,96
358500,note_on,,,,,0,0,1,,,,,0,,,66,96
358500,note_on,,,,,0,0,1,,,,,0,,,69,96
358500,note_on,,,,,0,0,1,,,,,0,,,74,96
358501,control_change,,,,,1,0,2,,,64,0,0,,,,
358955,note_on,,,,,0,0,1,,,,,0,,,74,0
358955,note_on,,,,,0,0,1,,,,,0,,,69,0
358955,note_on,,,,,454,0,2,,,,,0,,,38,0
358955,note_on,,,,,455,0,1,,,,,0,,,62,0
358955,note_on,,,,,0,0,2,,,,,0,,,45,0
358955,note_on,,,,,0,0,1,,,,,0,,,66,0
358955,note_on,,,,,0,0,2,,,,,0,,,42,0
358955,note_on,,,,,0,0,2,,,,,0,,,50,0
358980,note_on,,,,,0,0,2,,,,,0,,,54,96
358980,note_on,,,,,0,0,2,,,,,0,,,62,96
358980,note_on,,,,,25,0,1,,,,,0,,,74,96
358980,note_on,,,,,25,0,2,,,,,0,,,50,96
358980,note_on,,,,,0,0,1,,,,,0,,,78,96
358980,note_on,,,,,0,0,1,,,,,0,,,81,96
358980,note_on,,,,,0,0,1,,,,,0,,,86,96
358980,note_on,,,,,0,0,2,,,,,0,,,57,96
359435,note_on,,,,,455,0,1,,,,,0,,,74,0
359435,note_on,,,,,0,0,2,,,,,0,,,62,0
359435,note_on,,,,,0,0,2,,,,,0,,,54,0
359435,note_on,,,,,455,0,2,,,,,0,,,50,0
359435,note_on,,,,,0,0,1,,,,,0,,,78,0
359435,note_on,,,,,0,0,1,,,,,0,,,81,0
359435,note_on,,,,,0,0,1,,,,,0,,,86,0
359435,note_on,,,,,0,0,2,,,,,0,,,57,0
359460,note_on,,,,,0,0,2,,,,,0,,,66,96
359460,note_on,,,,,0,0,2,,,,,0,,,74,96
359460,note_on,,,,,0,0,1,,,,,0,,,98,96
359460,note_on,,,,,0,0,2,,,,,0,,,69,96
359460,note_on,,,,,25,0,1,,,,,0,,,86,96
359460,note_on,,,,,25,0,2,,,,,0,,,62,96
359460,note_on,,,,,0,0,1,,,,,0,,,93,96
359460,note_on,,,,,0,0,1,,,,,0,,,90,96
359915,note_on,,,,,0,0,2,,,,,0,,,69,0
359915,note_on,,,,,0,0,2,,,,,0,,,74,0
359915,note_on,,,,,0,0,2,,,,,0,,,66,0
359915,note_on,,,,,0,0,1,,,,,0,,,90,0
359915,note_on,,,,,0,0,1,,,,,0,,,98,0
359915,note_on,,,,,0,0,1,,,,,0,,,93,0
359915,note_on,,,,,455,0,2,,,,,0,,,62,0
359915,note_on,,,,,455,0,1,,,,,0,,,86,0
359940,note_on,,,,,25,0,2,,,,,0,,,26,96
359940,note_on,,,,,0,0,2,,,,,0,,,50,96
359940,set_tempo,,,,,12600,1,0,,923076,,,,,,,
359940,note_on,,,,,25,0,1,,,,,0,,,62,96
359940,note_on,,,,,0,0,2,,,,,0,,,38,96
361763,note_on,,,,,0,0,2,,,,,0,,,38,0
361763,note_on,,,,,0,0,2,,,,,0,,,50,0
361763,note_on,,,,,1823,0,2,,,,,0,,,26,0
361763,note_on,,,,,1823,0,1,,,,,0,,,62,0
361764,end_of_track,,,,,1,1,2,,,,,,,,,
361764,end_of_track,,,,,1,1,1,,,,,,,,,
361859,set_tempo,,,,,1919,1,0,,461538,,,,,,,
361860,end_of_track,,,,,1,1,0,,,,,,,,,
