tick,type,time,meta,track,numerator,denominator,clocks_per_click,notated_32nd_notes_per_beat,key,tempo,port,program,channel,control,value,note,velocity
0,control_change,0,0,1,,,,,,,,,0,7,127,,
0,control_change,0,0,4,,,,,,,,,3,7,127,,
0,control_change,0,0,4,,,,,,,,,3,10,30,,
0,copyright,0,1,0,,,,,,,,,,,,,
0,key_signature,0,1,0,,,,,Bb,,,,,,,,
0,midi_port,0,1,1,,,,,,,0,,,,,,
0,midi_port,0,1,2,,,,,,,0,,,,,,
0,midi_port,0,1,3,,,,,,,0,,,,,,
0,midi_port,0,1,4,,,,,,,0,,,,,,
0,track_name,0,1,3,,,,,,,,,,,,,
0,program_change,0,0,1,,,,,,,,0,0,,,,
0,program_change,0,0,2,,,,,,,,0,1,,,,
0,program_change,0,0,3,,,,,,,,0,2,,,,
0,program_change,0,0,4,,,,,,,,0,3,,,,
0,set_tempo,0,1,0,,,,,,625000,,,,,,,
0,text,0,1,0,,,,,,,,,,,,,
0,time_signature,0,1,0,4,4,24,8,,,,,,,,,
0,track_name,0,1,0,,,,,,,,,,,,,
0,track_name,0,1,1,,,,,,,,,,,,,
0,track_name,0,1,2,,,,,,,,,,,,,
0,control_change,0,0,3,,,,,,,,,2,10,30,,
0,control_change,0,0,3,,,,,,,,,2,7,127,,
0,track_name,0,1,4,,,,,,,,,,,,,
0,control_change,0,0,1,,,,,,,,,0,10,97,,
0,control_change,0,0,2,,,,,,,,,1,7,127,,
0,control_change,0,0,2,,,,,,,,,1,10,97,,
1,copyright,1,1,5,,,,,,,,,,,,,
1,end_of_track,0,1,5,,,,,,,,,,,,,
34,set_tempo,34,1,0,,,,,,454545,,,,,,,
480,note_on,480,0,3,,,,,,,,,2,,,65,49
480,note_on,480,0,1,,,,,,,,,0,,,77,62
480,note_on,480,0,4,,,,,,,,,3,,,63,88
600,note_on,600,0,2,,,,,,,,,1,,,69,49
720,note_on,0,0,2,,,,,,,,,1,,,72,49
720,note_on,120,0,2,,,,,,,,,1,,,69,0
840,note_on,360,0,1,,,,,,,,,0,,,77,0
840,note_on,0,0,1,,,,,,,,,0,,,79,62
960,note_on,240,0,2,,,,,,,,,1,,,72,0
960,note_on,480,0,4,,,,,,,,,3,,,63,0
960,note_on,0,0,1,,,,,,,,,0,,,77,62
960,note_on,0,0,4,,,,,,,,,3,,,62,62
960,note_on,120,0,1,,,,,,,,,0,,,79,0
1080,note_on,120,0,2,,,,,,,,,1,,,70,49
1200,note_on,120,0,2,,,,,,,,,1,,,70,0
1200,note_on,0,0,2,,,,,,,,,1,,,74,49
1320,note_on,0,0,1,,,,,,,,,0,,,79,62
1320,note_on,360,0,1,,,,,,,,,0,,,77,0
1440,note_on,480,0,4,,,,,,,,,3,,,62,0
1440,note_on,240,0,2,,,,,,,,,1,,,74,0
1440,note_on,0,0,4,,,,,,,,,3,,,57,62
1440,note_on,120,0,1,,,,,,,,,0,,,79,0
1440,note_on,0,0,1,,,,,,,,,0,,,77,62
1560,note_on,120,0,2,,,,,,,,,1,,,72,49
1680,note_on,0,0,2,,,,,,,,,1,,,75,49
1680,note_on,120,0,2,,,,,,,,,1,,,72,0
1800,note_on,0,0,1,,,,,,,,,0,,,79,62
1800,note_on,360,0,1,,,,,,,,,0,,,77,0
1920,note_on,0,0,1,,,,,,,,,0,,,77,62
1920,note_on,0,0,4,,,,,,,,,3,,,58,62
1920,note_on,240,0,2,,,,,,,,,1,,,75,0
1920,note_on,120,0,1,,,,,,,,,0,,,79,0
1920,note_on,480,0,4,,,,,,,,,3,,,57,0
2040,note_on,120,0,2,,,,,,,,,1,,,70,49
2160,note_on,0,0,2,,,,,,,,,1,,,74,49
2160,note_on,1680,0,3,,,,,,,,,2,,,65,0
2160,note_on,240,0,4,,,,,,,,,3,,,58,0
2160,note_on,120,0,2,,,,,,,,,1,,,70,0
2280,note_on,360,0,1,,,,,,,,,0,,,77,0
2280,note_on,0,0,1,,,,,,,,,0,,,79,62
2400,note_on,0,0,1,,,,,,,,,0,,,81,62
2400,note_on,240,0,3,,,,,,,,,2,,,65,49
2400,note_on,120,0,1,,,,,,,,,0,,,79,0
2400,note_on,240,0,2,,,,,,,,,1,,,74,0
2400,note_on,240,0,4,,,,,,,,,3,,,53,49
2520,note_on,120,0,2,,,,,,,,,1,,,70,49
2640,note_on,240,0,3,,,,,,,,,2,,,65,0
2640,note_on,240,0,4,,,,,,,,,3,,,53,0
2640,note_on,0,0,2,,,,,,,,,1,,,74,49
2640,note_on,120,0,2,,,,,,,,,1,,,70,0
2760,note_on,0,0,1,,,,,,,,,0,,,82,62
2760,note_on,360,0,1,,,,,,,,,0,,,81,0
2880,note_on,240,0,4,,,,,,,,,3,,,53,49
2880,note_on,120,0,1,,,,,,,,,0,,,82,0
2880,note_on,240,0,2,,,,,,,,,1,,,74,0
2880,note_on,240,0,3,,,,,,,,,2,,,65,49
2880,note_on,0,0,1,,,,,,,,,0,,,82,62
3000,note_on,120,0,2,,,,,,,,,1,,,72,49
3120,note_on,120,0,2,,,,,,,,,1,,,72,0
3120,note_on,240,0,3,,,,,,,,,2,,,65,0
3120,note_on,240,0,4,,,,,,,,,3,,,53,0
3120,note_on,0,0,2,,,,,,,,,1,,,75,49
3240,note_on,0,0,1,,,,,,,,,0,,,81,62
3240,note_on,360,0,1,,,,,,,,,0,,,82,0
3360,note_on,240,0,3,,,,,,,,,2,,,65,49
3360,note_on,240,0,2,,,,,,,,,1,,,75,0
3360,note_on,0,0,1,,,,,,,,,0,,,79,62
3360,note_on,240,0,4,,,,,,,,,3,,,53,49
3360,note_on,120,0,1,,,,,,,,,0,,,81,0
3480,note_on,120,0,2,,,,,,,,,1,,,72,49
3600,note_on,240,0,3,,,,,,,,,2,,,65,0
3600,note_on,0,0,2,,,,,,,,,1,,,75,49
3600,note_on,120,0,2,,,,,,,,,1,,,72,0
3600,note_on,240,0,4,,,,,,,,,3,,,53,0
3720,note_on,360,0,1,,,,,,,,,0,,,79,0
3720,note_on,0,0,1,,,,,,,,,0,,,77,62
3840,note_on,240,0,3,,,,,,,,,2,,,65,49
3840,note_on,120,0,1,,,,,,,,,0,,,77,0
3840,note_on,240,0,2,,,,,,,,,1,,,75,0
3840,note_on,240,0,4,,,,,,,,,3,,,58,49
3840,note_on,0,0,1,,,,,,,,,0,,,77,62
3960,note_on,120,0,2,,,,,,,,,1,,,70,49
4080,note_on,240,0,4,,,,,,,,,3,,,58,0
4080,note_on,0,0,2,,,,,,,,,1,,,74,49
4080,note_on,120,0,2,,,,,,,,,1,,,70,0
4080,note_on,240,0,3,,,,,,,,,2,,,65,0
4200,note_on,0,0,1,,,,,,,,,0,,,75,62
4200,note_on,360,0,1,,,,,,,,,0,,,77,0
4320,note_on,240,0,4,,,,,,,,,3,,,63,75
4320,note_on,240,0,3,,,,,,,,,2,,,65,49
4320,note_on,120,0,1,,,,,,,,,0,,,75,0
4320,note_on,240,0,2,,,,,,,,,1,,,74,0
4320,note_on,0,0,1,,,,,,,,,0,,,77,62
4440,note_on,120,0,2,,,,,,,,,1,,,69,49
4560,note_on,120,0,2,,,,,,,,,1,,,69,0
4560,note_on,0,0,2,,,,,,,,,1,,,72,49
4680,note_on,360,0,1,,,,,,,,,0,,,77,0
4680,note_on,0,0,1,,,,,,,,,0,,,79,62
4800,note_on,120,0,1,,,,,,,,,0,,,79,0
4800,note_on,240,0,2,,,,,,,,,1,,,72,0
4800,note_on,480,0,4,,,,,,,,,3,,,63,0
4800,note_on,0,0,1,,,,,,,,,0,,,77,62
4800,note_on,0,0,4,,,,,,,,,3,,,62,62
4920,note_on,120,0,2,,,,,,,,,1,,,70,49
5040,note_on,120,0,2,,,,,,,,,1,,,70,0
5040,note_on,0,0,2,,,,,,,,,1,,,74,49
5160,note_on,0,0,1,,,,,,,,,0,,,79,62
5160,note_on,360,0,1,,,,,,,,,0,,,77,0
5280,note_on,0,0,1,,,,,,,,,0,,,77,62
5280,note_on,0,0,4,,,,,,,,,3,,,57,62
5280,note_on,240,0,2,,,,,,,,,1,,,74,0
5280,note_on,480,0,4,,,,,,,,,3,,,62,0
5280,note_on,120,0,1,,,,,,,,,0,,,79,0
5400,note_on,120,0,2,,,,,,,,,1,,,72,49
5520,note_on,0,0,2,,,,,,,,,1,,,75,49
5520,note_on,120,0,2,,,,,,,,,1,,,72,0
5640,note_on,360,0,1,,,,,,,,,0,,,77,0
5640,note_on,0,0,1,,,,,,,,,0,,,79,62
5760,note_on,480,0,4,,,,,,,,,3,,,57,0
5760,note_on,0,0,1,,,,,,,,,0,,,77,62
5760,note_on,0,0,4,,,,,,,,,3,,,58,62
5760,note_on,120,0,1,,,,,,,,,0,,,79,0
5760,note_on,240,0,2,,,,,,,,,1,,,75,0
5880,note_on,120,0,2,,,,,,,,,1,,,70,49
6000,note_on,1680,0,3,,,,,,,,,2,,,65,0
6000,note_on,120,0,2,,,,,,,,,1,,,70,0
6000,note_on,0,0,2,,,,,,,,,1,,,74,49
6000,note_on,240,0,4,,,,,,,,,3,,,58,0
6120,note_on,360,0,1,,,,,,,,,0,,,77,0
6120,note_on,0,0,1,,,,,,,,,0,,,79,62
6240,note_on,240,0,2,,,,,,,,,1,,,74,0
6240,note_on,0,0,1,,,,,,,,,0,,,81,62
6240,note_on,240,0,3,,,,,,,,,2,,,65,49
6240,note_on,120,0,1,,,,,,,,,0,,,79,0
6240,note_on,240,0,4,,,,,,,,,3,,,53,62
6360,note_on,120,0,2,,,,,,,,,1,,,70,49
6480,note_on,240,0,4,,,,,,,,,3,,,53,0
6480,note_on,0,0,2,,,,,,,,,1,,,74,49
6480,note_on,240,0,3,,,,,,,,,2,,,65,0
6480,note_on,120,0,2,,,,,,,,,1,,,70,0
6600,note_on,360,0,1,,,,,,,,,0,,,81,0
6600,note_on,0,0,1,,,,,,,,,0,,,82,62
6720,note_on,0,0,1,,,,,,,,,0,,,82,62
6720,note_on,240,0,2,,,,,,,,,1,,,74,0
6720,note_on,240,0,3,,,,,,,,,2,,,65,49
6720,note_on,120,0,1,,,,,,,,,0,,,82,0
6720,note_on,240,0,4,,,,,,,,,3,,,53,62
6840,note_on,120,0,2,,,,,,,,,1,,,72,49
6960,note_on,0,0,2,,,,,,,,,1,,,75,49
6960,note_on,240,0,4,,,,,,,,,3,,,53,0
6960,note_on,120,0,2,,,,,,,,,1,,,72,0
6960,note_on,240,0,3,,,,,,,,,2,,,65,0
7080,note_on,360,0,1,,,,,,,,,0,,,82,0
7080,note_on,0,0,1,,,,,,,,,0,,,81,62
7200,note_on,120,0,1,,,,,,,,,0,,,81,0
7200,note_on,240,0,4,,,,,,,,,3,,,57,62
7200,note_on,240,0,3,,,,,,,,,2,,,65,49
7200,note_on,0,0,1,,,,,,,,,0,,,79,62
7200,note_on,240,0,2,,,,,,,,,1,,,75,0
7320,note_on,120,0,2,,,,,,,,,1,,,72,49
7440,note_on,120,0,2,,,,,,,,,1,,,72,0
7440,note_on,0,0,2,,,,,,,,,1,,,75,49
7440,note_on,240,0,4,,,,,,,,,3,,,57,0
7440,note_on,240,0,3,,,,,,,,,2,,,65,0
7560,note_on,360,0,1,,,,,,,,,0,,,79,0
7560,note_on,0,0,1,,,,,,,,,0,,,77,62
7680,note_on,240,0,3,,,,,,,,,2,,,65,49
7680,note_on,240,0,4,,,,,,,,,3,,,58,62
7680,note_on,240,0,2,,,,,,,,,1,,,75,0
7680,note_on,0,0,1,,,,,,,,,0,,,77,62
7680,note_on,120,0,1,,,,,,,,,0,,,77,0
7800,note_on,120,0,2,,,,,,,,,1,,,74,49
7920,note_on,0,0,2,,,,,,,,,1,,,77,49
7920,note_on,240,0,4,,,,,,,,,3,,,58,0
7920,note_on,120,0,2,,,,,,,,,1,,,74,0
7920,note_on,240,0,3,,,,,,,,,2,,,65,0
8040,note_on,0,0,1,,,,,,,,,0,,,84,62
8040,note_on,360,0,1,,,,,,,,,0,,,77,0
8160,note_on,0,0,1,,,,,,,,,0,,,82,62
8160,note_on,240,0,2,,,,,,,,,1,,,77,0
8160,note_on,240,0,4,,,,,,,,,3,,,68,62
8160,note_on,240,0,3,,,,,,,,,2,,,70,75
8160,note_on,120,0,1,,,,,,,,,0,,,84,0
8280,note_on,120,0,2,,,,,,,,,1,,,74,49
8400,note_on,0,0,2,,,,,,,,,1,,,77,49
8400,note_on,120,0,2,,,,,,,,,1,,,74,0
8520,note_on,360,0,1,,,,,,,,,0,,,82,0
8520,note_on,0,0,1,,,,,,,,,0,,,84,62
8640,note_on,240,0,2,,,,,,,,,1,,,77,0
8640,note_on,0,0,4,,,,,,,,,3,,,67,62
8640,note_on,0,0,1,,,,,,,,,0,,,82,62
8640,note_on,120,0,1,,,,,,,,,0,,,84,0
8640,note_on,480,0,4,,,,,,,,,3,,,68,0
8760,note_on,120,0,2,,,,,,,,,1,,,75,49
8880,note_on,120,0,2,,,,,,,,,1,,,75,0
8880,note_on,0,0,2,,,,,,,,,1,,,79,49
9000,note_on,0,0,1,,,,,,,,,0,,,84,62
9000,note_on,360,0,1,,,,,,,,,0,,,82,0
9120,note_on,240,0,2,,,,,,,,,1,,,79,0
9120,note_on,480,0,4,,,,,,,,,3,,,67,0
9120,note_on,120,0,1,,,,,,,,,0,,,84,0
9120,note_on,0,0,1,,,,,,,,,0,,,82,62
9120,note_on,0,0,4,,,,,,,,,3,,,62,62
9240,note_on,120,0,2,,,,,,,,,1,,,77,49
9360,note_on,120,0,2,,,,,,,,,1,,,77,0
9360,note_on,0,0,2,,,,,,,,,1,,,80,49
9480,note_on,0,0,1,,,,,,,,,0,,,84,62
9480,note_on,360,0,1,,,,,,,,,0,,,82,0
9600,note_on,240,0,2,,,,,,,,,1,,,80,0
9600,note_on,0,0,4,,,,,,,,,3,,,63,62
9600,note_on,0,0,1,,,,,,,,,0,,,82,62
9600,note_on,480,0,4,,,,,,,,,3,,,62,0
9600,note_on,120,0,1,,,,,,,,,0,,,84,0
9720,note_on,120,0,2,,,,,,,,,1,,,75,49
9840,note_on,0,0,2,,,,,,,,,1,,,79,49
9840,note_on,120,0,2,,,,,,,,,1,,,75,0
9840,note_on,1680,0,3,,,,,,,,,2,,,70,0
9840,note_on,240,0,4,,,,,,,,,3,,,63,0
9960,note_on,0,0,1,,,,,,,,,0,,,84,62
9960,note_on,360,0,1,,,,,,,,,0,,,82,0
10080,note_on,240,0,4,,,,,,,,,3,,,58,62
10080,note_on,240,0,2,,,,,,,,,1,,,79,0
10080,note_on,0,0,1,,,,,,,,,0,,,86,62
10080,note_on,120,0,1,,,,,,,,,0,,,84,0
10080,note_on,240,0,3,,,,,,,,,2,,,70,49
10200,note_on,120,0,2,,,,,,,,,1,,,75,49
10320,note_on,240,0,3,,,,,,,,,2,,,70,0
10320,note_on,240,0,4,,,,,,,,,3,,,58,0
10320,note_on,0,0,2,,,,,,,,,1,,,79,49
10320,note_on,120,0,2,,,,,,,,,1,,,75,0
10440,note_on,0,0,1,,,,,,,,,0,,,87,62
10440,note_on,360,0,1,,,,,,,,,0,,,86,0
10560,note_on,0,0,1,,,,,,,,,0,,,87,62
10560,note_on,240,0,3,,,,,,,,,2,,,70,49
10560,note_on,120,0,1,,,,,,,,,0,,,87,0
10560,note_on,240,0,4,,,,,,,,,3,,,58,62
10560,note_on,240,0,2,,,,,,,,,1,,,79,0
10680,note_on,120,0,2,,,,,,,,,1,,,77,49
10800,note_on,120,0,2,,,,,,,,,1,,,77,0
10800,note_on,240,0,3,,,,,,,,,2,,,70,0
10800,note_on,240,0,4,,,,,,,,,3,,,58,0
10800,note_on,0,0,2,,,,,,,,,1,,,80,49
10920,note_on,360,0,1,,,,,,,,,0,,,87,0
10920,note_on,0,0,1,,,,,,,,,0,,,86,62
11040,note_on,240,0,2,,,,,,,,,1,,,80,0
11040,note_on,0,0,1,,,,,,,,,0,,,84,62
11040,note_on,240,0,3,,,,,,,,,2,,,70,49
11040,note_on,120,0,1,,,,,,,,,0,,,86,0
11040,note_on,240,0,4,,,,,,,,,3,,,62,62
11160,note_on,120,0,2,,,,,,,,,1,,,77,49
11280,note_on,240,0,3,,,,,,,,,2,,,70,0
11280,note_on,120,0,2,,,,,,,,,1,,,77,0
11280,note_on,240,0,4,,,,,,,,,3,,,62,0
11280,note_on,0,0,2,,,,,,,,,1,,,80,49
11400,note_on,0,0,1,,,,,,,,,0,,,82,62
11400,note_on,360,0,1,,,,,,,,,0,,,84,0
11520,note_on,0,0,1,,,,,,,,,0,,,82,62
11520,note_on,240,0,2,,,,,,,,,1,,,80,0
11520,note_on,240,0,4,,,,,,,,,3,,,63,62
11520,note_on,120,0,1,,,,,,,,,0,,,82,0
11520,note_on,240,0,3,,,,,,,,,2,,,70,49
11640,note_on,120,0,2,,,,,,,,,1,,,75,49
11760,note_on,0,0,2,,,,,,,,,1,,,79,49
11760,note_on,240,0,3,,,,,,,,,2,,,70,0
11760,note_on,120,0,2,,,,,,,,,1,,,75,0
11760,note_on,240,0,4,,,,,,,,,3,,,63,0
11880,note_on,0,0,1,,,,,,,,,0,,,80,62
11880,note_on,360,0,1,,,,,,,,,0,,,82,0
12000,note_on,240,0,3,,,,,,,,,2,,,70,49
12000,note_on,0,0,1,,,,,,,,,0,,,82,62
12000,note_on,120,0,1,,,,,,,,,0,,,80,0
12000,note_on,0,0,4,,,,,,,,,3,,,68,62
12000,control_change,240,0,4,,,,,,,,,3,64,127,,
12000,note_on,240,0,2,,,,,,,,,1,,,79,0
12120,note_on,120,0,2,,,,,,,,,1,,,74,49
12240,note_on,120,0,2,,,,,,,,,1,,,74,0
12240,note_on,0,0,2,,,,,,,,,1,,,77,49
12360,note_on,0,0,1,,,,,,,,,0,,,84,62
12360,note_on,360,0,1,,,,,,,,,0,,,82,0
12480,note_on,0,0,1,,,,,,,,,0,,,82,62
12480,note_on,0,0,4,,,,,,,,,3,,,67,62
12480,note_on,240,0,2,,,,,,,,,1,,,77,0
12480,note_on,480,0,4,,,,,,,,,3,,,68,0
12480,note_on,120,0,1,,,,,,,,,0,,,84,0
12600,note_on,120,0,2,,,,,,,,,1,,,75,49
12720,note_on,0,0,2,,,,,,,,,1,,,79,49
12720,note_on,120,0,2,,,,,,,,,1,,,75,0
12840,note_on,0,0,1,,,,,,,,,0,,,84,62
12840,note_on,360,0,1,,,,,,,,,0,,,82,0
12960,note_on,0,0,4,,,,,,,,,3,,,62,62
12960,note_on,240,0,2,,,,,,,,,1,,,79,0
12960,note_on,120,0,1,,,,,,,,,0,,,84,0
12960,note_on,480,0,4,,,,,,,,,3,,,67,0
12960,note_on,0,0,1,,,,,,,,,0,,,82,62
13080,note_on,120,0,2,,,,,,,,,1,,,77,49
13200,note_on,120,0,2,,,,,,,,,1,,,77,0
13200,note_on,0,0,2,,,,,,,,,1,,,81,49
13320,note_on,360,0,1,,,,,,,,,0,,,82,0
13320,note_on,0,0,1,,,,,,,,,0,,,84,62
13440,note_on,240,0,2,,,,,,,,,1,,,81,0
13440,note_on,0,0,1,,,,,,,,,0,,,82,62
13440,note_on,0,0,4,,,,,,,,,3,,,63,62
13440,note_on,120,0,1,,,,,,,,,0,,,84,0
13440,control_change,0,0,4,,,,,,,,,3,64,0,,
13440,note_on,480,0,4,,,,,,,,,3,,,62,0
13560,note_on,120,0,2,,,,,,,,,1,,,79,49
13680,note_on,240,0,4,,,,,,,,,3,,,63,0
13680,note_on,0,0,2,,,,,,,,,1,,,82,49
13680,note_on,120,0,2,,,,,,,,,1,,,79,0
13680,note_on,1680,0,3,,,,,,,,,2,,,70,0
13800,note_on,0,0,1,,,,,,,,,0,,,87,62
13800,note_on,360,0,1,,,,,,,,,0,,,82,0
13920,note_on,120,0,1,,,,,,,,,0,,,87,0
13920,note_on,0,0,3,,,,,,,,,2,,,68,75
13920,note_on,240,0,3,,,,,,,,,2,,,59,75
13920,note_on,0,0,3,,,,,,,,,2,,,62,75
13920,note_on,0,0,1,,,,,,,,,0,,,91,62
13920,note_on,240,0,2,,,,,,,,,1,,,82,0
13920,note_on,0,0,3,,,,,,,,,2,,,65,75
14040,note_on,120,0,2,,,,,,,,,1,,,80,49
14160,note_on,120,0,2,,,,,,,,,1,,,80,0
14160,note_on,0,0,2,,,,,,,,,1,,,86,49
14280,note_on,0,0,1,,,,,,,,,0,,,89,62
14280,note_on,360,0,1,,,,,,,,,0,,,91,0
14400,note_on,240,0,2,,,,,,,,,1,,,86,0
14400,note_on,480,0,3,,,,,,,,,2,,,68,0
14400,note_on,120,0,1,,,,,,,,,0,,,89,0
14400,note_on,0,0,3,,,,,,,,,2,,,59,0
14400,note_on,0,0,3,,,,,,,,,2,,,63,49
14400,note_on,0,0,1,,,,,,,,,0,,,89,62
14400,note_on,0,0,3,,,,,,,,,2,,,60,49
14400,note_on,0,0,3,,,,,,,,,2,,,67,49
14400,note_on,0,0,3,,,,,,,,,2,,,65,0
14400,note_on,0,0,3,,,,,,,,,2,,,62,0
14520,note_on,120,0,2,,,,,,,,,1,,,79,49
14640,note_on,0,0,2,,,,,,,,,1,,,84,49
14640,note_on,120,0,2,,,,,,,,,1,,,79,0
14640,note_on,240,0,3,,,,,,,,,2,,,67,0
14640,note_on,0,0,3,,,,,,,,,2,,,63,0
14640,note_on,0,0,3,,,,,,,,,2,,,60,0
14760,note_on,0,0,1,,,,,,,,,0,,,87,62
14760,note_on,360,0,1,,,,,,,,,0,,,89,0
14880,note_on,120,0,1,,,,,,,,,0,,,87,0
14880,note_on,0,0,1,,,,,,,,,0,,,87,62
14880,note_on,240,0,3,,,,,,,,,2,,,50,75
14880,note_on,0,0,3,,,,,,,,,2,,,59,75
14880,note_on,0,0,3,,,,,,,,,2,,,56,75
14880,note_on,0,0,3,,,,,,,,,2,,,53,75
14880,note_on,240,0,2,,,,,,,,,1,,,84,0
15000,note_on,120,0,2,,,,,,,,,1,,,77,49
15120,note_on,120,0,2,,,,,,,,,1,,,77,0
15120,note_on,0,0,2,,,,,,,,,1,,,83,49
15240,note_on,0,0,1,,,,,,,,,0,,,86,62
15240,note_on,120,0,2,,,,,,,,,1,,,83,0
15240,note_on,360,0,1,,,,,,,,,0,,,87,0
15360,note_on,0,0,3,,,,,,,,,2,,,51,49
15360,note_on,0,0,3,,,,,,,,,2,,,56,0
15360,note_on,120,0,1,,,,,,,,,0,,,86,0
15360,note_on,0,0,3,,,,,,,,,2,,,55,49
15360,note_on,0,0,3,,,,,,,,,2,,,53,0
15360,note_on,480,0,3,,,,,,,,,2,,,59,0
15360,note_on,0,0,1,,,,,,,,,0,,,86,62
15360,note_on,0,0,3,,,,,,,,,2,,,60,49
15360,note_on,0,0,3,,,,,,,,,2,,,50,0
15480,note_on,240,0,2,,,,,,,,,1,,,75,49
15600,note_on,0,0,2,,,,,,,,,1,,,79,49
15600,note_on,0,0,3,,,,,,,,,2,,,51,0
15600,note_on,120,0,2,,,,,,,,,1,,,75,0
15600,note_on,0,0,3,,,,,,,,,2,,,55,0
15600,note_on,240,0,3,,,,,,,,,2,,,60,0
15720,note_on,0,0,1,,,,,,,,,0,,,84,62
15720,note_on,360,0,1,,,,,,,,,0,,,86,0
15840,note_on,0,0,1,,,,,,,,,0,,,84,62
15840,note_on,0,0,3,,,,,,,,,2,,,55,49
15840,note_on,0,0,3,,,,,,,,,2,,,58,49
15840,note_on,0,0,3,,,,,,,,,2,,,61,49
15840,note_on,240,0,2,,,,,,,,,1,,,79,0
15840,note_on,120,0,1,,,,,,,,,0,,,84,0
15840,note_on,240,0,3,,,,,,,,,2,,,52,49
15960,note_on,120,0,2,,,,,,,,,1,,,73,49
16080,note_on,120,0,2,,,,,,,,,1,,,73,0
16080,note_on,0,0,2,,,,,,,,,1,,,79,49
16200,note_on,0,0,1,,,,,,,,,0,,,82,62
16200,note_on,360,0,1,,,,,,,,,0,,,84,0
16320,note_on,0,0,1,,,,,,,,,0,,,82,62
16320,note_on,120,0,1,,,,,,,,,0,,,82,0
16320,note_on,240,0,2,,,,,,,,,1,,,79,0
16320,note_on,0,0,3,,,,,,,,,2,,,52,0
16320,note_on,480,0,3,,,,,,,,,2,,,61,0
16320,note_on,0,0,3,,,,,,,,,2,,,58,0
16320,note_on,0,0,3,,,,,,,,,2,,,57,49
16320,note_on,0,0,3,,,,,,,,,2,,,60,49
16320,note_on,0,0,3,,,,,,,,,2,,,55,0
16320,note_on,0,0,3,,,,,,,,,2,,,53,49
16440,note_on,120,0,2,,,,,,,,,1,,,72,49
16560,note_on,0,0,3,,,,,,,,,2,,,57,0
16560,note_on,240,0,3,,,,,,,,,2,,,60,0
16560,note_on,120,0,2,,,,,,,,,1,,,72,0
16560,note_on,0,0,3,,,,,,,,,2,,,53,0
16560,note_on,0,0,2,,,,,,,,,1,,,77,49
16680,note_on,360,0,1,,,,,,,,,0,,,82,0
16680,note_on,0,0,1,,,,,,,,,0,,,81,62
16800,note_on,240,0,2,,,,,,,,,1,,,77,0
16800,note_on,0,0,1,,,,,,,,,0,,,79,62
16800,note_on,240,0,3,,,,,,,,,2,,,57,49
16800,note_on,120,0,1,,,,,,,,,0,,,81,0
16800,note_on,0,0,3,,,,,,,,,2,,,65,49
16920,note_on,120,0,2,,,,,,,,,1,,,72,49
17040,note_on,0,0,2,,,,,,,,,1,,,75,49
17040,note_on,120,0,2,,,,,,,,,1,,,72,0
17160,note_on,0,0,1,,,,,,,,,0,,,77,62
17160,note_on,360,0,1,,,,,,,,,0,,,79,0
17280,note_on,0,0,3,,,,,,,,,2,,,58,49
17280,note_on,0,0,3,,,,,,,,,2,,,65,49
17280,note_on,0,0,3,,,,,,,,,2,,,57,0
17280,note_on,0,0,1,,,,,,,,,0,,,77,62
17280,note_on,480,0,3,,,,,,,,,2,,,65,0
17280,note_on,120,0,1,,,,,,,,,0,,,77,0
17280,note_on,240,0,2,,,,,,,,,1,,,75,0
17400,note_on,120,0,2,,,,,,,,,1,,,70,49
17520,note_on,0,0,2,,,,,,,,,1,,,74,49
17520,note_on,120,0,2,,,,,,,,,1,,,70,0
17640,note_on,0,0,1,,,,,,,,,0,,,79,62
17640,note_on,360,0,1,,,,,,,,,0,,,77,0
17760,note_on,480,0,3,,,,,,,,,2,,,65,0
17760,note_on,120,0,1,,,,,,,,,0,,,79,0
17760,note_on,0,0,3,,,,,,,,,2,,,53,49
17760,note_on,240,0,2,,,,,,,,,1,,,74,0
17760,note_on,0,0,1,,,,,,,,,0,,,81,62
17760,note_on,0,0,3,,,,,,,,,2,,,65,49
17760,note_on,0,0,3,,,,,,,,,2,,,58,0
17880,note_on,120,0,2,,,,,,,,,1,,,70,49
18000,note_on,120,0,2,,,,,,,,,1,,,70,0
18000,note_on,240,0,3,,,,,,,,,2,,,65,0
18000,note_on,0,0,2,,,,,,,,,1,,,74,49
18000,note_on,0,0,3,,,,,,,,,2,,,53,0
18120,note_on,0,0,1,,,,,,,,,0,,,82,62
18120,note_on,360,0,1,,,,,,,,,0,,,81,0
18240,note_on,0,0,1,,,,,,,,,0,,,82,62
18240,note_on,120,0,1,,,,,,,,,0,,,82,0
18240,note_on,240,0,2,,,,,,,,,1,,,74,0
18240,note_on,0,0,3,,,,,,,,,2,,,65,49
18240,note_on,240,0,3,,,,,,,,,2,,,53,49
18360,note_on,120,0,2,,,,,,,,,1,,,72,49
18480,note_on,0,0,3,,,,,,,,,2,,,53,0
18480,note_on,120,0,2,,,,,,,,,1,,,72,0
18480,note_on,0,0,2,,,,,,,,,1,,,75,49
18480,note_on,240,0,3,,,,,,,,,2,,,65,0
18600,note_on,0,0,1,,,,,,,,,0,,,81,62
18600,note_on,360,0,1,,,,,,,,,0,,,82,0
18720,note_on,0,0,1,,,,,,,,,0,,,79,62
18720,note_on,240,0,2,,,,,,,,,1,,,75,0
18720,note_on,120,0,1,,,,,,,,,0,,,81,0
18720,note_on,0,0,3,,,,,,,,,2,,,57,49
18720,note_on,240,0,3,,,,,,,,,2,,,53,49
18720,note_on,0,0,3,,,,,,,,,2,,,65,49
18840,note_on,120,0,2,,,,,,,,,1,,,72,49
18960,note_on,0,0,3,,,,,,,,,2,,,53,0
18960,note_on,120,0,2,,,,,,,,,1,,,72,0
18960,note_on,0,0,2,,,,,,,,,1,,,75,49
18960,note_on,0,0,3,,,,,,,,,2,,,57,0
18960,note_on,240,0,3,,,,,,,,,2,,,65,0
19080,note_on,0,0,1,,,,,,,,,0,,,77,62
19080,note_on,360,0,1,,,,,,,,,0,,,79,0
19200,note_on,240,0,2,,,,,,,,,1,,,75,0
19200,note_on,0,0,3,,,,,,,,,2,,,65,49
19200,note_on,120,0,1,,,,,,,,,0,,,77,0
19200,note_on,0,0,1,,,,,,,,,0,,,77,62
19200,note_on,240,0,3,,,,,,,,,2,,,58,49
19320,note_on,120,0,2,,,,,,,,,1,,,70,49
19440,note_on,0,0,3,,,,,,,,,2,,,58,0
19440,note_on,120,0,2,,,,,,,,,1,,,70,0
19440,note_on,240,0,3,,,,,,,,,2,,,65,0
19440,note_on,0,0,2,,,,,,,,,1,,,74,49
19560,note_on,0,0,1,,,,,,,,,0,,,75,62
19560,note_on,360,0,1,,,,,,,,,0,,,77,0
19680,note_on,120,0,1,,,,,,,,,0,,,75,0
19680,note_on,0,0,4,,,,,,,,,3,,,63,75
19680,control_change,6000,0,4,,,,,,,,,3,64,127,,
19680,note_on,0,0,1,,,,,,,,,0,,,77,62
19680,note_on,240,0,3,,,,,,,,,2,,,65,49
19680,note_on,240,0,2,,,,,,,,,1,,,74,0
19800,note_on,120,0,2,,,,,,,,,1,,,69,49
19920,note_on,120,0,2,,,,,,,,,1,,,69,0
19920,note_on,0,0,2,,,,,,,,,1,,,72,49
20040,note_on,360,0,1,,,,,,,,,0,,,77,0
20040,note_on,0,0,1,,,,,,,,,0,,,79,62
20160,note_on,0,0,4,,,,,,,,,3,,,62,75
20160,note_on,240,0,2,,,,,,,,,1,,,72,0
20160,note_on,120,0,1,,,,,,,,,0,,,79,0
20160,note_on,480,0,4,,,,,,,,,3,,,63,0
20160,note_on,0,0,1,,,,,,,,,0,,,77,62
20280,note_on,120,0,2,,,,,,,,,1,,,70,49
20400,note_on,0,0,2,,,,,,,,,1,,,74,49
20400,note_on,120,0,2,,,,,,,,,1,,,70,0
20520,note_on,0,0,1,,,,,,,,,0,,,79,62
20520,note_on,360,0,1,,,,,,,,,0,,,77,0
20640,note_on,0,0,4,,,,,,,,,3,,,57,62
20640,note_on,480,0,4,,,,,,,,,3,,,62,0
20640,note_on,0,0,1,,,,,,,,,0,,,77,62
20640,note_on,120,0,1,,,,,,,,,0,,,79,0
20640,note_on,240,0,2,,,,,,,,,1,,,74,0
20760,note_on,120,0,2,,,,,,,,,1,,,72,49
20880,note_on,120,0,2,,,,,,,,,1,,,72,0
20880,note_on,0,0,2,,,,,,,,,1,,,75,49
21000,note_on,0,0,1,,,,,,,,,0,,,79,62
21000,note_on,360,0,1,,,,,,,,,0,,,77,0
21120,note_on,120,0,1,,,,,,,,,0,,,79,0
21120,note_on,240,0,2,,,,,,,,,1,,,75,0
21120,note_on,480,0,4,,,,,,,,,3,,,57,0
21120,note_on,0,0,4,,,,,,,,,3,,,58,62
21120,control_change,0,0,4,,,,,,,,,3,64,0,,
21120,note_on,0,0,1,,,,,,,,,0,,,77,62
21240,note_on,120,0,2,,,,,,,,,1,,,70,49
21360,note_on,120,0,2,,,,,,,,,1,,,70,0
21360,note_on,0,0,2,,,,,,,,,1,,,74,49
21360,note_on,1680,0,3,,,,,,,,,2,,,65,0
21360,note_on,240,0,4,,,,,,,,,3,,,58,0
21480,note_on,360,0,1,,,,,,,,,0,,,77,0
21480,note_on,0,0,1,,,,,,,,,0,,,79,62
21600,note_on,0,0,3,,,,,,,,,2,,,65,49
21600,note_on,120,0,1,,,,,,,,,0,,,79,0
21600,note_on,0,0,1,,,,,,,,,0,,,81,62
21600,note_on,240,0,2,,,,,,,,,1,,,74,0
21600,note_on,240,0,3,,,,,,,,,2,,,53,49
21720,note_on,120,0,2,,,,,,,,,1,,,70,49
21840,note_on,240,0,3,,,,,,,,,2,,,65,0
21840,note_on,120,0,2,,,,,,,,,1,,,70,0
21840,note_on,0,0,2,,,,,,,,,1,,,74,49
21840,note_on,0,0,3,,,,,,,,,2,,,53,0
21960,note_on,360,0,1,,,,,,,,,0,,,81,0
21960,note_on,0,0,1,,,,,,,,,0,,,82,62
22080,note_on,240,0,2,,,,,,,,,1,,,74,0
22080,note_on,0,0,3,,,,,,,,,2,,,65,49
22080,note_on,120,0,1,,,,,,,,,0,,,82,0
22080,note_on,0,0,1,,,,,,,,,0,,,82,62
22080,note_on,240,0,3,,,,,,,,,2,,,53,49
22200,note_on,120,0,2,,,,,,,,,1,,,72,49
22320,note_on,120,0,2,,,,,,,,,1,,,72,0
22320,note_on,240,0,3,,,,,,,,,2,,,65,0
22320,note_on,0,0,3,,,,,,,,,2,,,53,0
22320,note_on,0,0,2,,,,,,,,,1,,,75,49
22440,note_on,360,0,1,,,,,,,,,0,,,82,0
22440,note_on,0,0,1,,,,,,,,,0,,,81,62
22560,note_on,120,0,1,,,,,,,,,0,,,81,0
22560,note_on,240,0,2,,,,,,,,,1,,,75,0
22560,note_on,0,0,3,,,,,,,,,2,,,65,49
22560,note_on,0,0,1,,,,,,,,,0,,,79,62
22560,note_on,240,0,3,,,,,,,,,2,,,57,49
22680,note_on,120,0,2,,,,,,,,,1,,,72,49
22800,note_on,240,0,3,,,,,,,,,2,,,65,0
22800,note_on,0,0,2,,,,,,,,,1,,,75,49
22800,note_on,120,0,2,,,,,,,,,1,,,72,0
22800,note_on,0,0,3,,,,,,,,,2,,,57,0
22920,note_on,0,0,1,,,,,,,,,0,,,77,62
22920,note_on,360,0,1,,,,,,,,,0,,,79,0
23040,note_on,240,0,3,,,,,,,,,2,,,58,49
23040,note_on,120,0,1,,,,,,,,,0,,,77,0
23040,note_on,240,0,2,,,,,,,,,1,,,75,0
23040,note_on,0,0,3,,,,,,,,,2,,,62,49
23040,note_on,0,0,1,,,,,,,,,0,,,77,62
23160,note_on,120,0,2,,,,,,,,,1,,,74,49
23280,note_on,0,0,3,,,,,,,,,2,,,58,0
23280,note_on,0,0,2,,,,,,,,,1,,,77,49
23280,note_on,120,0,2,,,,,,,,,1,,,74,0
23280,note_on,240,0,3,,,,,,,,,2,,,62,0
23400,note_on,360,0,1,,,,,,,,,0,,,77,0
23400,note_on,0,0,1,,,,,,,,,0,,,82,62
23520,note_on,240,0,2,,,,,,,,,1,,,77,0
23520,note_on,0,0,1,,,,,,,,,0,,,86,62
23520,note_on,0,0,3,,,,,,,,,2,,,57,49
23520,note_on,0,0,3,,,,,,,,,2,,,62,49
23520,note_on,120,0,1,,,,,,,,,0,,,82,0
23520,note_on,240,0,3,,,,,,,,,2,,,50,49
23640,note_on,120,0,2,,,,,,,,,1,,,74,49
23760,note_on,0,0,2,,,,,,,,,1,,,78,49
23760,note_on,120,0,2,,,,,,,,,1,,,74,0
23880,note_on,0,0,1,,,,,,,,,0,,,86,62
23880,note_on,360,0,1,,,,,,,,,0,,,86,0
24000,note_on,0,0,3,,,,,,,,,2,,,58,49
24000,note_on,0,0,1,,,,,,,,,0,,,82,62
24000,note_on,0,0,3,,,,,,,,,2,,,50,0
24000,note_on,240,0,2,,,,,,,,,1,,,78,0
24000,note_on,480,0,3,,,,,,,,,2,,,57,0
24000,note_on,0,0,3,,,,,,,,,2,,,55,49
24000,note_on,120,0,1,,,,,,,,,0,,,86,0
24120,note_on,120,0,2,,,,,,,,,1,,,74,49
24240,note_on,240,0,3,,,,,,,,,2,,,58,0
24240,note_on,0,0,3,,,,,,,,,2,,,55,0
24240,note_on,0,0,3,,,,,,,,,2,,,62,0
24240,note_on,0,0,2,,,,,,,,,1,,,79,49
24240,note_on,120,0,2,,,,,,,,,1,,,74,0
24360,note_on,0,0,1,,,,,,,,,0,,,82,62
24360,note_on,360,0,1,,,,,,,,,0,,,82,0
24480,note_on,0,0,1,,,,,,,,,0,,,86,62
24480,note_on,120,0,1,,,,,,,,,0,,,82,0
24480,note_on,0,0,3,,,,,,,,,2,,,62,49
24480,note_on,0,0,3,,,,,,,,,2,,,57,49
24480,note_on,240,0,2,,,,,,,,,1,,,79,0
24480,note_on,240,0,3,,,,,,,,,2,,,50,49
24600,note_on,120,0,2,,,,,,,,,1,,,74,49
24720,note_on,0,0,2,,,,,,,,,1,,,78,49
24720,note_on,120,0,2,,,,,,,,,1,,,74,0
24840,note_on,360,0,1,,,,,,,,,0,,,86,0
24840,note_on,0,0,1,,,,,,,,,0,,,86,62
24960,note_on,0,0,1,,,,,,,,,0,,,82,62
24960,note_on,0,0,3,,,,,,,,,2,,,50,0
24960,note_on,0,0,3,,,,,,,,,2,,,55,49
24960,note_on,0,0,3,,,,,,,,,2,,,58,49
24960,note_on,240,0,2,,,,,,,,,1,,,78,0
24960,note_on,120,0,1,,,,,,,,,0,,,86,0
24960,note_on,480,0,3,,,,,,,,,2,,,57,0
25080,note_on,120,0,2,,,,,,,,,1,,,74,49
25200,note_on,0,0,2,,,,,,,,,1,,,79,49
25200,note_on,240,0,3,,,,,,,,,2,,,58,0
25200,note_on,120,0,2,,,,,,,,,1,,,74,0
25200,note_on,0,0,3,,,,,,,,,2,,,55,0
25200,note_on,0,0,3,,,,,,,,,2,,,62,0
25320,note_on,360,0,1,,,,,,,,,0,,,82,0
25320,note_on,0,0,1,,,,,,,,,0,,,82,62
25440,note_on,0,0,3,,,,,,,,,2,,,57,49
25440,note_on,240,0,3,,,,,,,,,2,,,53,49
25440,note_on,120,0,1,,,,,,,,,0,,,82,0
25440,note_on,240,0,2,,,,,,,,,1,,,79,0
25440,note_on,0,0,3,,,,,,,,,2,,,65,49
25440,note_on,0,0,1,,,,,,,,,0,,,89,62
25440,note_on,0,0,3,,,,,,,,,2,,,60,49
25560,note_on,120,0,2,,,,,,,,,1,,,77,49
25680,note_on,120,0,2,,,,,,,,,1,,,77,0
25680,note_on,0,0,2,,,,,,,,,1,,,81,49
25800,note_on,0,0,1,,,,,,,,,0,,,89,62
25800,note_on,360,0,1,,,,,,,,,0,,,89,0
25920,note_on,0,0,3,,,,,,,,,2,,,53,0
25920,note_on,0,0,3,,,,,,,,,2,,,57,0
25920,note_on,0,0,1,,,,,,,,,0,,,86,62
25920,note_on,0,0,3,,,,,,,,,2,,,58,49
25920,note_on,0,0,3,,,,,,,,,2,,,62,49
25920,note_on,240,0,2,,,,,,,,,1,,,81,0
25920,note_on,480,0,3,,,,,,,,,2,,,60,0
25920,note_on,120,0,1,,,,,,,,,0,,,89,0
26040,note_on,120,0,2,,,,,,,,,1,,,77,49
26160,note_on,0,0,2,,,,,,,,,1,,,82,49
26160,note_on,240,0,3,,,,,,,,,2,,,62,0
26160,note_on,0,0,3,,,,,,,,,2,,,65,0
26160,note_on,120,0,2,,,,,,,,,1,,,77,0
26160,note_on,0,0,3,,,,,,,,,2,,,58,0
26280,note_on,0,0,1,,,,,,,,,0,,,86,62
26280,note_on,360,0,1,,,,,,,,,0,,,86,0
26400,note_on,120,0,1,,,,,,,,,0,,,86,0
26400,note_on,0,0,3,,,,,,,,,2,,,65,75
26400,note_on,240,0,2,,,,,,,,,1,,,82,0
26400,note_on,240,0,3,,,,,,,,,2,,,53,75
26400,note_on,0,0,3,,,,,,,,,2,,,60,75
26400,note_on,0,0,3,,,,,,,,,2,,,57,75
26400,note_on,0,0,1,,,,,,,,,0,,,89,75
26520,note_on,120,0,2,,,,,,,,,1,,,77,62
26640,note_on,0,0,2,,,,,,,,,1,,,81,62
26640,note_on,120,0,2,,,,,,,,,1,,,77,0
26760,note_on,0,0,1,,,,,,,,,0,,,89,75
26760,note_on,360,0,1,,,,,,,,,0,,,89,0
26880,note_on,0,0,3,,,,,,,,,2,,,53,0
26880,note_on,240,0,2,,,,,,,,,1,,,81,0
26880,note_on,0,0,1,,,,,,,,,0,,,86,75
26880,note_on,0,0,3,,,,,,,,,2,,,57,0
26880,note_on,0,0,3,,,,,,,,,2,,,58,75
26880,note_on,480,0,3,,,,,,,,,2,,,60,0
26880,note_on,120,0,1,,,,,,,,,0,,,89,0
26880,note_on,0,0,3,,,,,,,,,2,,,62,75
27000,note_on,120,0,2,,,,,,,,,1,,,77,62
27120,note_on,120,0,2,,,,,,,,,1,,,77,0
27120,note_on,0,0,3,,,,,,,,,2,,,65,0
27120,note_on,240,0,3,,,,,,,,,2,,,62,0
27120,note_on,0,0,3,,,,,,,,,2,,,58,0
27120,note_on,0,0,2,,,,,,,,,1,,,82,62
27240,note_on,360,0,1,,,,,,,,,0,,,86,0
27240,note_on,0,0,1,,,,,,,,,0,,,86,75
27360,note_on,0,0,3,,,,,,,,,2,,,62,88
27360,note_on,0,0,3,,,,,,,,,2,,,68,88
27360,note_on,240,0,3,,,,,,,,,2,,,59,88
27360,note_on,0,0,1,,,,,,,,,0,,,89,88
27360,note_on,120,0,1,,,,,,,,,0,,,86,0
27360,note_on,0,0,3,,,,,,,,,2,,,65,88
27360,note_on,240,0,2,,,,,,,,,1,,,82,0
27480,note_on,120,0,2,,,,,,,,,1,,,77,75
27600,note_on,120,0,2,,,,,,,,,1,,,77,0
27600,note_on,0,0,2,,,,,,,,,1,,,80,75
27720,note_on,360,0,1,,,,,,,,,0,,,89,0
27720,note_on,0,0,1,,,,,,,,,0,,,89,88
27840,note_on,0,0,3,,,,,,,,,2,,,65,0
27840,note_on,480,0,3,,,,,,,,,2,,,68,0
27840,note_on,0,0,3,,,,,,,,,2,,,67,75
27840,note_on,0,0,3,,,,,,,,,2,,,64,75
27840,note_on,0,0,3,,,,,,,,,2,,,62,0
27840,note_on,120,0,1,,,,,,,,,0,,,89,0
27840,note_on,240,0,2,,,,,,,,,1,,,80,0
27840,note_on,0,0,3,,,,,,,,,2,,,61,75
27840,note_on,0,0,3,,,,,,,,,2,,,59,0
27840,note_on,0,0,3,,,,,,,,,2,,,58,75
27840,note_on,0,0,1,,,,,,,,,0,,,88,75
27960,note_on,120,0,2,,,,,,,,,1,,,76,62
28080,note_on,0,0,2,,,,,,,,,1,,,79,62
28080,note_on,120,0,2,,,,,,,,,1,,,76,0
28200,note_on,0,0,1,,,,,,,,,0,,,88,75
28200,note_on,360,0,1,,,,,,,,,0,,,88,0
28320,note_on,0,0,3,,,,,,,,,2,,,58,0
28320,note_on,0,0,3,,,,,,,,,2,,,57,62
28320,note_on,0,0,3,,,,,,,,,2,,,60,62
28320,note_on,0,0,1,,,,,,,,,0,,,87,62
28320,note_on,0,0,3,,,,,,,,,2,,,63,62
28320,note_on,0,0,3,,,,,,,,,2,,,64,0
28320,note_on,0,0,3,,,,,,,,,2,,,66,62
28320,note_on,240,0,2,,,,,,,,,1,,,79,0
28320,note_on,120,0,1,,,,,,,,,0,,,88,0
28320,note_on,480,0,3,,,,,,,,,2,,,67,0
28320,note_on,0,0,3,,,,,,,,,2,,,61,0
28440,note_on,120,0,2,,,,,,,,,1,,,75,49
28560,note_on,120,0,2,,,,,,,,,1,,,75,0
28560,note_on,0,0,2,,,,,,,,,1,,,78,49
28680,note_on,0,0,1,,,,,,,,,0,,,87,62
28680,note_on,360,0,1,,,,,,,,,0,,,87,0
28800,note_on,0,0,3,,,,,,,,,2,,,65,62
28800,note_on,0,0,3,,,,,,,,,2,,,63,0
28800,note_on,0,0,3,,,,,,,,,2,,,62,62
28800,note_on,240,0,2,,,,,,,,,1,,,78,0
28800,note_on,0,0,3,,,,,,,,,2,,,57,0
28800,note_on,480,0,3,,,,,,,,,2,,,66,0
28800,note_on,0,0,3,,,,,,,,,2,,,60,0
28800,note_on,120,0,1,,,,,,,,,0,,,87,0
28800,note_on,0,0,3,,,,,,,,,2,,,58,62
28800,note_on,0,0,1,,,,,,,,,0,,,86,62
28920,note_on,120,0,2,,,,,,,,,1,,,74,49
29040,note_on,0,0,2,,,,,,,,,1,,,77,49
29040,note_on,240,0,3,,,,,,,,,2,,,65,0
29040,note_on,120,0,2,,,,,,,,,1,,,74,0
29040,note_on,0,0,3,,,,,,,,,2,,,62,0
29040,note_on,0,0,3,,,,,,,,,2,,,58,0
29160,note_on,0,0,1,,,,,,,,,0,,,86,62
29160,note_on,360,0,1,,,,,,,,,0,,,86,0
29280,note_on,240,0,3,,,,,,,,,2,,,51,62
29280,note_on,240,0,2,,,,,,,,,1,,,77,0
29280,note_on,120,0,1,,,,,,,,,0,,,86,0
29280,note_on,0,0,3,,,,,,,,,2,,,60,62
29280,note_on,0,0,3,,,,,,,,,2,,,63,62
29280,note_on,0,0,1,,,,,,,,,0,,,79,62
29280,note_on,0,0,3,,,,,,,,,2,,,55,62
29400,note_on,120,0,2,,,,,,,,,1,,,72,49
29520,note_on,0,0,2,,,,,,,,,1,,,75,49
29520,note_on,120,0,2,,,,,,,,,1,,,72,0
29640,note_on,360,0,1,,,,,,,,,0,,,79,0
29640,note_on,0,0,1,,,,,,,,,0,,,79,62
29760,note_on,0,0,3,,,,,,,,,2,,,51,0
29760,note_on,480,0,3,,,,,,,,,2,,,63,0
29760,note_on,0,0,1,,,,,,,,,0,,,82,62
29760,note_on,0,0,3,,,,,,,,,2,,,55,0
29760,note_on,0,0,3,,,,,,,,,2,,,58,62
29760,note_on,240,0,2,,,,,,,,,1,,,75,0
29760,note_on,0,0,3,,,,,,,,,2,,,53,62
29760,note_on,0,0,3,,,,,,,,,2,,,62,62
29760,note_on,0,0,3,,,,,,,,,2,,,60,0
29760,note_on,120,0,1,,,,,,,,,0,,,79,0
29880,note_on,120,0,2,,,,,,,,,1,,,74,49
30000,note_on,120,0,2,,,,,,,,,1,,,74,0
30000,note_on,0,0,2,,,,,,,,,1,,,77,49
30120,note_on,0,0,1,,,,,,,,,0,,,82,62
30120,note_on,360,0,1,,,,,,,,,0,,,82,0
30240,note_on,120,0,1,,,,,,,,,0,,,82,0
30240,note_on,240,0,2,,,,,,,,,1,,,77,0
30240,note_on,0,0,1,,,,,,,,,0,,,81,62
30240,note_on,0,0,3,,,,,,,,,2,,,58,0
30240,note_on,0,0,3,,,,,,,,,2,,,60,62
30240,note_on,0,0,3,,,,,,,,,2,,,53,0
30240,note_on,0,0,3,,,,,,,,,2,,,53,62
30240,note_on,0,0,3,,,,,,,,,2,,,57,62
30240,note_on,480,0,3,,,,,,,,,2,,,62,0
30360,note_on,120,0,2,,,,,,,,,1,,,72,49
30480,note_on,0,0,2,,,,,,,,,1,,,77,49
30480,note_on,120,0,2,,,,,,,,,1,,,72,0
30600,note_on,0,0,1,,,,,,,,,0,,,81,62
30600,note_on,360,0,1,,,,,,,,,0,,,81,0
30720,note_on,0,0,1,,,,,,,,,0,,,82,101
30720,note_on,0,0,1,,,,,,,,,0,,,77,101
30720,note_on,0,0,1,,,,,,,,,0,,,74,101
30720,note_on,0,0,1,,,,,,,,,0,,,70,101
30720,note_on,480,0,3,,,,,,,,,2,,,60,0
30720,note_on,120,0,1,,,,,,,,,0,,,81,0
30720,note_on,0,0,3,,,,,,,,,2,,,57,0
30720,note_on,240,0,2,,,,,,,,,1,,,77,0
30720,note_on,0,0,3,,,,,,,,,2,,,53,0
30720,note_on,0,0,3,,,,,,,,,2,,,34,101
30840,note_on,0,0,3,,,,,,,,,2,,,36,101
30840,note_on,120,0,3,,,,,,,,,2,,,34,0
30960,note_on,120,0,3,,,,,,,,,2,,,36,0
30960,note_on,0,0,3,,,,,,,,,2,,,38,101
31080,note_on,120,0,3,,,,,,,,,2,,,38,0
31080,note_on,0,0,3,,,,,,,,,2,,,39,101
31200,note_on,0,0,1,,,,,,,,,0,,,75,101
31200,note_on,480,0,1,,,,,,,,,0,,,82,0
31200,note_on,0,0,1,,,,,,,,,0,,,70,0
31200,note_on,0,0,1,,,,,,,,,0,,,72,101
31200,note_on,0,0,1,,,,,,,,,0,,,74,0
31200,note_on,0,0,1,,,,,,,,,0,,,77,101
31200,note_on,0,0,1,,,,,,,,,0,,,77,0
31200,note_on,0,0,3,,,,,,,,,2,,,41,101
31200,note_on,0,0,1,,,,,,,,,0,,,65,101
31200,note_on,120,0,3,,,,,,,,,2,,,39,0
31320,note_on,0,0,3,,,,,,,,,2,,,43,101
31320,note_on,120,0,3,,,,,,,,,2,,,41,0
31440,note_on,120,0,3,,,,,,,,,2,,,43,0
31440,note_on,0,0,3,,,,,,,,,2,,,44,101
31560,note_on,120,0,3,,,,,,,,,2,,,44,0
31560,note_on,0,0,3,,,,,,,,,2,,,45,101
31680,note_on,0,0,1,,,,,,,,,0,,,75,0
31680,note_on,0,0,1,,,,,,,,,0,,,74,101
31680,note_on,0,0,1,,,,,,,,,0,,,72,0
31680,note_on,0,0,1,,,,,,,,,0,,,70,101
31680,note_on,0,0,3,,,,,,,,,2,,,46,101
31680,note_on,480,0,1,,,,,,,,,0,,,77,0
31680,note_on,0,0,1,,,,,,,,,0,,,65,101
31680,note_on,0,0,1,,,,,,,,,0,,,65,0
31680,note_on,0,0,1,,,,,,,,,0,,,62,101
31680,note_on,120,0,3,,,,,,,,,2,,,45,0
31800,note_on,0,0,3,,,,,,,,,2,,,48,101
31800,note_on,120,0,3,,,,,,,,,2,,,46,0
31920,note_on,0,0,3,,,,,,,,,2,,,50,101
31920,note_on,120,0,3,,,,,,,,,2,,,48,0
32040,note_on,0,0,3,,,,,,,,,2,,,51,101
32040,note_on,120,0,3,,,,,,,,,2,,,50,0
32160,note_on,0,0,3,,,,,,,,,2,,,53,101
32160,note_on,0,0,1,,,,,,,,,0,,,60,101
32160,note_on,0,0,1,,,,,,,,,0,,,63,101
32160,note_on,0,0,1,,,,,,,,,0,,,65,0
32160,note_on,0,0,1,,,,,,,,,0,,,65,101
32160,note_on,0,0,1,,,,,,,,,0,,,70,0
32160,note_on,0,0,1,,,,,,,,,0,,,62,0
32160,note_on,120,0,3,,,,,,,,,2,,,51,0
32160,note_on,480,0,1,,,,,,,,,0,,,74,0
32280,note_on,0,0,3,,,,,,,,,2,,,55,101
32280,note_on,120,0,3,,,,,,,,,2,,,53,0
32400,note_on,120,0,3,,,,,,,,,2,,,55,0
32400,note_on,0,0,3,,,,,,,,,2,,,56,101
32520,note_on,120,0,3,,,,,,,,,2,,,56,0
32520,note_on,0,0,3,,,,,,,,,2,,,57,101
32640,note_on,120,0,3,,,,,,,,,2,,,57,0
32640,note_on,480,0,1,,,,,,,,,0,,,65,0
32640,note_on,0,0,1,,,,,,,,,0,,,60,0
32640,note_on,0,0,1,,,,,,,,,0,,,63,0
32640,note_on,0,0,1,,,,,,,,,0,,,82,62
32640,note_on,0,0,3,,,,,,,,,2,,,46,49
32760,note_on,2040,0,2,,,,,,,,,1,,,74,49
32880,note_on,120,0,2,,,,,,,,,1,,,74,0
32880,note_on,0,0,3,,,,,,,,,2,,,58,49
32880,note_on,0,0,3,,,,,,,,,2,,,62,49
32880,note_on,240,0,3,,,,,,,,,2,,,46,0
32880,note_on,0,0,2,,,,,,,,,1,,,77,49
33000,note_on,360,0,1,,,,,,,,,0,,,82,0
33000,note_on,0,0,1,,,,,,,,,0,,,82,62
33120,note_on,0,0,3,,,,,,,,,2,,,58,0
33120,note_on,240,0,2,,,,,,,,,1,,,77,0
33120,note_on,120,0,1,,,,,,,,,0,,,82,0
33120,note_on,240,0,3,,,,,,,,,2,,,62,0
33120,note_on,0,0,3,,,,,,,,,2,,,53,49
33120,note_on,0,0,1,,,,,,,,,0,,,86,62
33240,note_on,120,0,2,,,,,,,,,1,,,75,49
33360,note_on,240,0,3,,,,,,,,,2,,,53,0
33360,note_on,120,0,2,,,,,,,,,1,,,75,0
33360,note_on,0,0,3,,,,,,,,,2,,,57,49
33360,note_on,0,0,3,,,,,,,,,2,,,60,49
33360,note_on,0,0,3,,,,,,,,,2,,,63,49
33360,note_on,0,0,2,,,,,,,,,1,,,77,49
33480,note_on,360,0,1,,,,,,,,,0,,,86,0
33480,note_on,0,0,1,,,,,,,,,0,,,84,62
33600,note_on,0,0,3,,,,,,,,,2,,,60,0
33600,note_on,0,0,3,,,,,,,,,2,,,46,49
33600,note_on,120,0,1,,,,,,,,,0,,,84,0
33600,note_on,240,0,2,,,,,,,,,1,,,77,0
33600,note_on,0,0,1,,,,,,,,,0,,,82,62
33600,note_on,240,0,3,,,,,,,,,2,,,63,0
33600,note_on,0,0,3,,,,,,,,,2,,,57,0
33720,note_on,120,0,2,,,,,,,,,1,,,74,49
33840,note_on,0,0,3,,,,,,,,,2,,,58,49
33840,note_on,120,0,2,,,,,,,,,1,,,74,0
33840,note_on,0,0,3,,,,,,,,,2,,,62,49
33840,note_on,240,0,3,,,,,,,,,2,,,46,0
33840,note_on,0,0,2,,,,,,,,,1,,,77,49
33960,note_on,360,0,1,,,,,,,,,0,,,82,0
33960,note_on,0,0,1,,,,,,,,,0,,,82,62
34080,note_on,240,0,2,,,,,,,,,1,,,77,0
34080,note_on,120,0,1,,,,,,,,,0,,,82,0
34080,note_on,0,0,3,,,,,,,,,2,,,53,49
34080,note_on,0,0,3,,,,,,,,,2,,,58,0
34080,note_on,240,0,3,,,,,,,,,2,,,62,0
34080,note_on,0,0,1,,,,,,,,,0,,,86,62
34200,note_on,120,0,2,,,,,,,,,1,,,75,49
34320,note_on,0,0,3,,,,,,,,,2,,,57,49
34320,note_on,0,0,3,,,,,,,,,2,,,60,49
34320,note_on,0,0,3,,,,,,,,,2,,,63,49
34320,note_on,0,0,2,,,,,,,,,1,,,77,49
34320,note_on,240,0,3,,,,,,,,,2,,,53,0
34320,note_on,120,0,2,,,,,,,,,1,,,75,0
34440,note_on,0,0,1,,,,,,,,,0,,,84,62
34440,note_on,360,0,1,,,,,,,,,0,,,86,0
34560,note_on,240,0,2,,,,,,,,,1,,,77,0
34560,note_on,0,0,1,,,,,,,,,0,,,77,88
34560,note_on,0,0,1,,,,,,,,,0,,,82,88
34560,note_on,240,0,3,,,,,,,,,2,,,63,0
34560,note_on,120,0,1,,,,,,,,,0,,,84,0
34560,note_on,0,0,3,,,,,,,,,2,,,34,88
34560,note_on,0,0,1,,,,,,,,,0,,,74,88
34560,note_on,0,0,3,,,,,,,,,2,,,60,0
34560,note_on,0,0,3,,,,,,,,,2,,,57,0
34680,note_on,120,0,3,,,,,,,,,2,,,34,0
34680,note_on,0,0,3,,,,,,,,,2,,,36,88
34800,note_on,120,0,3,,,,,,,,,2,,,36,0
34800,note_on,0,0,3,,,,,,,,,2,,,38,88
34920,note_on,120,0,3,,,,,,,,,2,,,38,0
34920,note_on,0,0,3,,,,,,,,,2,,,39,88
35040,note_on,480,0,1,,,,,,,,,0,,,82,0
35040,note_on,0,0,1,,,,,,,,,0,,,75,88
35040,note_on,120,0,3,,,,,,,,,2,,,39,0
35040,note_on,0,0,1,,,,,,,,,0,,,77,88
35040,note_on,0,0,1,,,,,,,,,0,,,77,0
35040,note_on,0,0,1,,,,,,,,,0,,,65,88
35040,note_on,0,0,1,,,,,,,,,0,,,72,88
35040,note_on,0,0,3,,,,,,,,,2,,,41,88
35040,note_on,0,0,1,,,,,,,,,0,,,74,0
35160,note_on,0,0,3,,,,,,,,,2,,,43,88
35160,note_on,120,0,3,,,,,,,,,2,,,41,0
35280,note_on,0,0,3,,,,,,,,,2,,,44,88
35280,note_on,120,0,3,,,,,,,,,2,,,43,0
35400,note_on,120,0,3,,,,,,,,,2,,,44,0
35400,note_on,0,0,3,,,,,,,,,2,,,45,88
35520,note_on,0,0,3,,,,,,,,,2,,,46,88
35520,note_on,120,0,3,,,,,,,,,2,,,45,0
35520,note_on,0,0,1,,,,,,,,,0,,,75,0
35520,note_on,0,0,1,,,,,,,,,0,,,62,88
35520,note_on,0,0,1,,,,,,,,,0,,,74,88
35520,note_on,0,0,1,,,,,,,,,0,,,72,0
35520,note_on,0,0,1,,,,,,,,,0,,,70,88
35520,note_on,0,0,1,,,,,,,,,0,,,65,0
35520,note_on,0,0,1,,,,,,,,,0,,,65,88
35520,note_on,480,0,1,,,,,,,,,0,,,77,0
35640,note_on,120,0,3,,,,,,,,,2,,,46,0
35640,note_on,0,0,3,,,,,,,,,2,,,47,88
35760,note_on,120,0,3,,,,,,,,,2,,,47,0
35760,note_on,0,0,3,,,,,,,,,2,,,48,88
35880,note_on,0,0,3,,,,,,,,,2,,,49,88
35880,note_on,120,0,3,,,,,,,,,2,,,48,0
36000,note_on,480,0,1,,,,,,,,,0,,,74,0
36000,note_on,120,0,3,,,,,,,,,2,,,49,0
36000,note_on,0,0,1,,,,,,,,,0,,,70,0
36000,note_on,0,0,1,,,,,,,,,0,,,66,88
36000,note_on,0,0,1,,,,,,,,,0,,,62,88
36000,note_on,0,0,1,,,,,,,,,0,,,65,0
36000,note_on,0,0,1,,,,,,,,,0,,,60,88
36000,note_on,0,0,1,,,,,,,,,0,,,57,88
36000,note_on,0,0,1,,,,,,,,,0,,,62,0
36000,note_on,0,0,3,,,,,,,,,2,,,50,88
36120,note_on,120,0,3,,,,,,,,,2,,,50,0
36120,note_on,0,0,3,,,,,,,,,2,,,48,88
36240,note_on,120,0,3,,,,,,,,,2,,,48,0
36240,note_on,0,0,3,,,,,,,,,2,,,46,88
36360,note_on,120,0,3,,,,,,,,,2,,,46,0
36360,note_on,0,0,3,,,,,,,,,2,,,45,88
36480,note_on,120,0,3,,,,,,,,,2,,,45,0
36480,note_on,0,0,1,,,,,,,,,0,,,57,0
36480,note_on,0,0,1,,,,,,,,,0,,,60,0
36480,note_on,0,0,1,,,,,,,,,0,,,62,0
36480,note_on,0,0,1,,,,,,,,,0,,,79,62
36480,note_on,480,0,1,,,,,,,,,0,,,66,0
36480,note_on,0,0,3,,,,,,,,,2,,,43,49
36600,note_on,2040,0,2,,,,,,,,,1,,,70,49
36720,note_on,0,0,2,,,,,,,,,1,,,74,49
36720,note_on,240,0,3,,,,,,,,,2,,,43,0
36720,note_on,0,0,3,,,,,,,,,2,,,58,49
36720,note_on,120,0,2,,,,,,,,,1,,,70,0
36720,note_on,0,0,3,,,,,,,,,2,,,55,49
36840,note_on,0,0,1,,,,,,,,,0,,,79,62
36840,note_on,360,0,1,,,,,,,,,0,,,79,0
36960,note_on,240,0,2,,,,,,,,,1,,,74,0
36960,note_on,120,0,1,,,,,,,,,0,,,79,0
36960,note_on,0,0,3,,,,,,,,,2,,,50,49
36960,note_on,240,0,3,,,,,,,,,2,,,58,0
36960,note_on,0,0,1,,,,,,,,,0,,,82,62
36960,note_on,0,0,3,,,,,,,,,2,,,55,0
37080,note_on,120,0,2,,,,,,,,,1,,,72,49
37200,note_on,0,0,3,,,,,,,,,2,,,54,49
37200,note_on,0,0,3,,,,,,,,,2,,,57,49
37200,note_on,0,0,3,,,,,,,,,2,,,60,49
37200,note_on,0,0,2,,,,,,,,,1,,,74,49
37200,note_on,120,0,2,,,,,,,,,1,,,72,0
37200,note_on,240,0,3,,,,,,,,,2,,,50,0
37320,note_on,360,0,1,,,,,,,,,0,,,82,0
37320,note_on,0,0,1,,,,,,,,,0,,,81,62
37440,note_on,0,0,1,,,,,,,,,0,,,79,62
37440,note_on,0,0,3,,,,,,,,,2,,,57,0
37440,note_on,0,0,3,,,,,,,,,2,,,54,0
37440,note_on,120,0,1,,,,,,,,,0,,,81,0
37440,note_on,0,0,3,,,,,,,,,2,,,43,49
37440,note_on,240,0,2,,,,,,,,,1,,,74,0
37440,note_on,240,0,3,,,,,,,,,2,,,60,0
37560,note_on,120,0,2,,,,,,,,,1,,,70,49
37680,note_on,120,0,2,,,,,,,,,1,,,70,0
37680,note_on,0,0,2,,,,,,,,,1,,,74,49
37680,note_on,240,0,3,,,,,,,,,2,,,43,0
37680,note_on,0,0,3,,,,,,,,,2,,,58,49
37680,note_on,0,0,3,,,,,,,,,2,,,55,49
37800,note_on,0,0,1,,,,,,,,,0,,,79,62
37800,note_on,360,0,1,,,,,,,,,0,,,79,0
37920,note_on,0,0,1,,,,,,,,,0,,,82,62
37920,note_on,240,0,3,,,,,,,,,2,,,58,0
37920,note_on,0,0,3,,,,,,,,,2,,,50,49
37920,note_on,240,0,2,,,,,,,,,1,,,74,0
37920,note_on,120,0,1,,,,,,,,,0,,,79,0
37920,note_on,0,0,3,,,,,,,,,2,,,55,0
38040,note_on,120,0,2,,,,,,,,,1,,,72,49
38160,note_on,240,0,3,,,,,,,,,2,,,50,0
38160,note_on,120,0,2,,,,,,,,,1,,,72,0
38160,note_on,0,0,3,,,,,,,,,2,,,57,49
38160,note_on,0,0,3,,,,,,,,,2,,,60,49
38160,note_on,0,0,2,,,,,,,,,1,,,74,49
38160,note_on,0,0,3,,,,,,,,,2,,,54,49
38280,note_on,0,0,1,,,,,,,,,0,,,81,62
38280,note_on,360,0,1,,,,,,,,,0,,,82,0
38400,note_on,0,0,3,,,,,,,,,2,,,31,88
38400,note_on,0,0,3,,,,,,,,,2,,,54,0
38400,note_on,240,0,3,,,,,,,,,2,,,60,0
38400,note_on,0,0,1,,,,,,,,,0,,,70,88
38400,note_on,0,0,3,,,,,,,,,2,,,57,0
38400,note_on,0,0,1,,,,,,,,,0,,,79,88
38400,note_on,240,0,2,,,,,,,,,1,,,74,0
38400,note_on,120,0,1,,,,,,,,,0,,,81,0
38400,note_on,0,0,1,,,,,,,,,0,,,74,88
38520,note_on,0,0,3,,,,,,,,,2,,,33,88
38520,note_on,120,0,3,,,,,,,,,2,,,31,0
38640,note_on,0,0,3,,,,,,,,,2,,,34,88
38640,note_on,120,0,3,,,,,,,,,2,,,33,0
38760,note_on,0,0,3,,,,,,,,,2,,,36,88
38760,note_on,120,0,3,,,,,,,,,2,,,34,0
38880,note_on,0,0,3,,,,,,,,,2,,,38,88
38880,note_on,0,0,1,,,,,,,,,0,,,74,88
38880,note_on,480,0,1,,,,,,,,,0,,,79,0
38880,note_on,0,0,1,,,,,,,,,0,,,74,0
38880,note_on,0,0,1,,,,,,,,,0,,,72,88
38880,note_on,120,0,3,,,,,,,,,2,,,36,0
38880,note_on,0,0,1,,,,,,,,,0,,,62,88
38880,note_on,0,0,1,,,,,,,,,0,,,69,88
38880,note_on,0,0,1,,,,,,,,,0,,,70,0
39000,note_on,120,0,3,,,,,,,,,2,,,38,0
39000,note_on,0,0,3,,,,,,,,,2,,,39,88
39120,note_on,0,0,3,,,,,,,,,2,,,41,88
39120,note_on,120,0,3,,,,,,,,,2,,,39,0
39240,note_on,0,0,3,,,,,,,,,2,,,42,88
39240,note_on,120,0,3,,,,,,,,,2,,,41,0
39360,note_on,0,0,1,,,,,,,,,0,,,58,88
39360,note_on,0,0,3,,,,,,,,,2,,,43,88
39360,note_on,0,0,1,,,,,,,,,0,,,62,0
39360,note_on,0,0,1,,,,,,,,,0,,,62,88
39360,note_on,0,0,1,,,,,,,,,0,,,69,0
39360,note_on,0,0,1,,,,,,,,,0,,,70,88
39360,note_on,480,0,1,,,,,,,,,0,,,74,0
39360,note_on,0,0,1,,,,,,,,,0,,,67,88
39360,note_on,120,0,3,,,,,,,,,2,,,42,0
39360,note_on,0,0,1,,,,,,,,,0,,,72,0
39480,note_on,120,0,3,,,,,,,,,2,,,43,0
39480,note_on,0,0,3,,,,,,,,,2,,,42,88
39600,note_on,120,0,3,,,,,,,,,2,,,42,0
39600,note_on,0,0,3,,,,,,,,,2,,,43,88
39720,note_on,0,0,3,,,,,,,,,2,,,45,88
39720,note_on,120,0,3,,,,,,,,,2,,,43,0
39840,note_on,0,0,1,,,,,,,,,0,,,58,0
39840,note_on,0,0,1,,,,,,,,,0,,,67,88
39840,note_on,0,0,1,,,,,,,,,0,,,58,88
39840,note_on,480,0,1,,,,,,,,,0,,,70,0
39840,note_on,0,0,1,,,,,,,,,0,,,67,0
39840,note_on,0,0,1,,,,,,,,,0,,,70,88
39840,note_on,0,0,1,,,,,,,,,0,,,62,0
39840,note_on,120,0,3,,,,,,,,,2,,,45,0
39840,note_on,0,0,3,,,,,,,,,2,,,46,88
39840,note_on,0,0,1,,,,,,,,,0,,,61,88
39960,note_on,120,0,3,,,,,,,,,2,,,46,0
39960,note_on,0,0,3,,,,,,,,,2,,,45,88
40080,note_on,120,0,3,,,,,,,,,2,,,45,0
40080,note_on,0,0,3,,,,,,,,,2,,,43,88
40200,note_on,120,0,3,,,,,,,,,2,,,43,0
40200,note_on,0,0,3,,,,,,,,,2,,,41,88
40320,note_on,120,0,3,,,,,,,,,2,,,41,0
40320,note_on,0,0,1,,,,,,,,,0,,,60,88
40320,note_on,0,0,1,,,,,,,,,0,,,58,0
40320,note_on,480,0,1,,,,,,,,,0,,,70,0
40320,note_on,0,0,1,,,,,,,,,0,,,61,0
40320,note_on,0,0,1,,,,,,,,,0,,,67,88
40320,note_on,0,0,1,,,,,,,,,0,,,70,88
40320,note_on,0,0,3,,,,,,,,,2,,,40,88
40320,note_on,0,0,1,,,,,,,,,0,,,67,0
40800,note_on,480,0,3,,,,,,,,,2,,,40,0
40800,note_on,0,0,1,,,,,,,,,0,,,60,0
40800,note_on,0,0,1,,,,,,,,,0,,,67,0
40800,note_on,0,0,3,,,,,,,,,2,,,60,88
40800,note_on,480,0,1,,,,,,,,,0,,,70,0
40920,note_on,120,0,3,,,,,,,,,2,,,60,0
40920,note_on,0,0,3,,,,,,,,,2,,,64,88
41040,note_on,120,0,3,,,,,,,,,2,,,64,0
41040,note_on,0,0,3,,,,,,,,,2,,,67,88
41160,note_on,120,0,3,,,,,,,,,2,,,67,0
41160,note_on,0,0,3,,,,,,,,,2,,,70,88
41280,note_on,480,0,1,,,,,,,,,0,,,72,88
41280,note_on,120,0,3,,,,,,,,,2,,,70,0
41400,note_on,0,0,1,,,,,,,,,0,,,76,88
41400,note_on,120,0,1,,,,,,,,,0,,,72,0
41520,note_on,0,0,1,,,,,,,,,0,,,79,88
41520,note_on,120,0,1,,,,,,,,,0,,,76,0
41640,note_on,120,0,1,,,,,,,,,0,,,79,0
41640,note_on,0,0,1,,,,,,,,,0,,,82,88
41760,note_on,480,0,3,,,,,,,,,2,,,52,49
41760,note_on,0,0,3,,,,,,,,,2,,,58,49
41760,note_on,0,0,3,,,,,,,,,2,,,55,49
41760,note_on,120,0,1,,,,,,,,,0,,,82,0
41760,note_on,0,0,1,,,,,,,,,0,,,84,62
41760,note_on,0,0,3,,,,,,,,,2,,,60,49
41880,note_on,0,0,1,,,,,,,,,0,,,88,62
41880,note_on,120,0,1,,,,,,,,,0,,,84,0
42000,note_on,120,0,1,,,,,,,,,0,,,88,0
42000,note_on,0,0,1,,,,,,,,,0,,,91,62
42120,note_on,120,0,1,,,,,,,,,0,,,91,0
42120,note_on,0,0,1,,,,,,,,,0,,,94,62
42240,note_on,0,0,1,,,,,,,,,0,,,93,62
42240,note_on,0,0,3,,,,,,,,,2,,,58,0
42240,note_on,0,0,3,,,,,,,,,2,,,55,0
42240,control_change,0,0,3,,,,,,,,,2,64,127,,
42240,note_on,0,0,3,,,,,,,,,2,,,53,49
42240,note_on,0,0,3,,,,,,,,,2,,,52,0
42240,note_on,480,0,3,,,,,,,,,2,,,60,0
42240,note_on,120,0,1,,,,,,,,,0,,,94,0
42360,note_on,0,0,1,,,,,,,,,0,,,94,62
42360,note_on,120,0,1,,,,,,,,,0,,,93,0
42480,note_on,0,0,3,,,,,,,,,2,,,57,49
42480,note_on,0,0,1,,,,,,,,,0,,,96,62
42480,note_on,120,0,1,,,,,,,,,0,,,94,0
42480,note_on,240,0,3,,,,,,,,,2,,,53,0
42600,note_on,0,0,1,,,,,,,,,0,,,94,62
42600,note_on,120,0,1,,,,,,,,,0,,,96,0
42720,note_on,240,0,3,,,,,,,,,2,,,57,0
42720,note_on,0,0,3,,,,,,,,,2,,,60,49
42720,note_on,0,0,1,,,,,,,,,0,,,93,62
42720,note_on,120,0,1,,,,,,,,,0,,,94,0
42840,note_on,0,0,1,,,,,,,,,0,,,91,62
42840,note_on,120,0,1,,,,,,,,,0,,,93,0
42960,note_on,0,0,1,,,,,,,,,0,,,89,62
42960,control_change,0,0,3,,,,,,,,,2,64,0,,
42960,note_on,0,0,3,,,,,,,,,2,,,65,49
42960,note_on,240,0,3,,,,,,,,,2,,,60,0
42960,note_on,120,0,1,,,,,,,,,0,,,91,0
43080,note_on,0,0,1,,,,,,,,,0,,,88,62
43080,note_on,120,0,1,,,,,,,,,0,,,89,0
43200,note_on,0,0,1,,,,,,,,,0,,,86,62
43200,control_change,0,0,3,,,,,,,,,2,64,127,,
43200,note_on,0,0,3,,,,,,,,,2,,,58,49
43200,note_on,240,0,3,,,,,,,,,2,,,65,0
43200,note_on,120,0,1,,,,,,,,,0,,,88,0
43320,note_on,120,0,1,,,,,,,,,0,,,86,0
43320,note_on,0,0,1,,,,,,,,,0,,,88,62
43440,note_on,120,0,1,,,,,,,,,0,,,88,0
43440,note_on,0,0,3,,,,,,,,,2,,,62,49
43440,note_on,240,0,3,,,,,,,,,2,,,58,0
43440,note_on,0,0,1,,,,,,,,,0,,,89,62
43560,note_on,120,0,1,,,,,,,,,0,,,89,0
43560,note_on,0,0,1,,,,,,,,,0,,,88,62
43680,note_on,240,0,3,,,,,,,,,2,,,62,0
43680,note_on,120,0,1,,,,,,,,,0,,,88,0
43680,note_on,0,0,3,,,,,,,,,2,,,65,49
43680,note_on,0,0,1,,,,,,,,,0,,,86,62
43800,note_on,0,0,1,,,,,,,,,0,,,84,62
43800,note_on,120,0,1,,,,,,,,,0,,,86,0
43920,note_on,0,0,3,,,,,,,,,2,,,62,49
43920,control_change,0,0,3,,,,,,,,,2,64,0,,
43920,note_on,120,0,1,,,,,,,,,0,,,84,0
43920,note_on,0,0,1,,,,,,,,,0,,,82,62
43920,note_on,240,0,3,,,,,,,,,2,,,65,0
44040,note_on,120,0,1,,,,,,,,,0,,,82,0
44040,note_on,0,0,1,,,,,,,,,0,,,81,62
44160,control_change,0,0,3,,,,,,,,,2,64,127,,
44160,note_on,0,0,3,,,,,,,,,2,,,52,49
44160,note_on,120,0,1,,,,,,,,,0,,,81,0
44160,note_on,0,0,1,,,,,,,,,0,,,79,62
44160,note_on,240,0,3,,,,,,,,,2,,,62,0
44280,note_on,0,0,1,,,,,,,,,0,,,81,62
44280,note_on,120,0,1,,,,,,,,,0,,,79,0
44400,note_on,0,0,3,,,,,,,,,2,,,55,49
44400,note_on,240,0,3,,,,,,,,,2,,,52,0
44400,note_on,0,0,1,,,,,,,,,0,,,82,62
44400,note_on,120,0,1,,,,,,,,,0,,,81,0
44520,note_on,120,0,1,,,,,,,,,0,,,82,0
44520,note_on,0,0,1,,,,,,,,,0,,,81,62
44640,note_on,120,0,1,,,,,,,,,0,,,81,0
44640,note_on,0,0,1,,,,,,,,,0,,,79,62
44640,note_on,0,0,3,,,,,,,,,2,,,58,49
44640,note_on,240,0,3,,,,,,,,,2,,,55,0
44760,note_on,0,0,1,,,,,,,,,0,,,77,62
44760,note_on,120,0,1,,,,,,,,,0,,,79,0
44880,note_on,0,0,1,,,,,,,,,0,,,76,62
44880,control_change,0,0,3,,,,,,,,,2,64,0,,
44880,note_on,0,0,3,,,,,,,,,2,,,64,49
44880,note_on,120,0,1,,,,,,,,,0,,,77,0
44880,note_on,240,0,3,,,,,,,,,2,,,58,0
45000,note_on,0,0,1,,,,,,,,,0,,,74,62
45000,note_on,120,0,1,,,,,,,,,0,,,76,0
45120,note_on,0,0,3,,,,,,,,,2,,,57,49
45120,note_on,240,0,3,,,,,,,,,2,,,64,0
45120,control_change,0,0,3,,,,,,,,,2,64,127,,
45120,note_on,0,0,1,,,,,,,,,0,,,72,62
45120,note_on,120,0,1,,,,,,,,,0,,,74,0
45240,note_on,0,0,1,,,,,,,,,0,,,74,62
45240,note_on,120,0,1,,,,,,,,,0,,,72,0
45360,note_on,0,0,3,,,,,,,,,2,,,60,49
45360,note_on,0,0,1,,,,,,,,,0,,,76,62
45360,note_on,120,0,1,,,,,,,,,0,,,74,0
45360,note_on,240,0,3,,,,,,,,,2,,,57,0
45480,note_on,0,0,1,,,,,,,,,0,,,74,62
45480,note_on,120,0,1,,,,,,,,,0,,,76,0
45600,note_on,0,0,3,,,,,,,,,2,,,64,49
45600,note_on,120,0,1,,,,,,,,,0,,,74,0
45600,note_on,0,0,1,,,,,,,,,0,,,72,62
45600,note_on,240,0,3,,,,,,,,,2,,,60,0
45720,note_on,120,0,1,,,,,,,,,0,,,72,0
45720,note_on,0,0,1,,,,,,,,,0,,,70,62
45840,note_on,120,0,1,,,,,,,,,0,,,70,0
45840,control_change,0,0,3,,,,,,,,,2,64,0,,
45840,note_on,0,0,3,,,,,,,,,2,,,60,49
45840,note_on,0,0,1,,,,,,,,,0,,,69,62
45840,note_on,240,0,3,,,,,,,,,2,,,64,0
45960,note_on,0,0,1,,,,,,,,,0,,,67,62
45960,note_on,120,0,1,,,,,,,,,0,,,69,0
46080,note_on,0,0,1,,,,,,,,,0,,,65,62
46080,note_on,240,0,3,,,,,,,,,2,,,60,0
46080,control_change,0,0,3,,,,,,,,,2,64,127,,
46080,note_on,0,0,3,,,,,,,,,2,,,38,49
46080,note_on,120,0,1,,,,,,,,,0,,,67,0
46200,note_on,120,0,1,,,,,,,,,0,,,65,0
46200,note_on,0,0,1,,,,,,,,,0,,,67,62
46320,note_on,240,0,3,,,,,,,,,2,,,38,0
46320,note_on,120,0,1,,,,,,,,,0,,,67,0
46320,note_on,0,0,1,,,,,,,,,0,,,69,62
46320,note_on,0,0,3,,,,,,,,,2,,,41,49
46440,note_on,120,0,1,,,,,,,,,0,,,69,0
46440,note_on,0,0,1,,,,,,,,,0,,,67,62
46560,note_on,240,0,3,,,,,,,,,2,,,41,0
46560,note_on,120,0,1,,,,,,,,,0,,,67,0
46560,note_on,0,0,3,,,,,,,,,2,,,45,49
46560,note_on,0,0,1,,,,,,,,,0,,,65,62
46680,note_on,120,0,1,,,,,,,,,0,,,65,0
46680,note_on,0,0,1,,,,,,,,,0,,,64,62
46800,note_on,0,0,3,,,,,,,,,2,,,50,49
46800,control_change,0,0,3,,,,,,,,,2,64,0,,
46800,note_on,120,0,1,,,,,,,,,0,,,64,0
46800,note_on,0,0,1,,,,,,,,,0,,,62,62
46800,note_on,240,0,3,,,,,,,,,2,,,45,0
46920,note_on,0,0,1,,,,,,,,,0,,,60,62
46920,note_on,120,0,1,,,,,,,,,0,,,62,0
47040,control_change,0,0,3,,,,,,,,,2,64,127,,
47040,note_on,0,0,1,,,,,,,,,0,,,59,62
47040,note_on,120,0,1,,,,,,,,,0,,,60,0
47040,note_on,0,0,3,,,,,,,,,2,,,43,49
47040,note_on,240,0,3,,,,,,,,,2,,,50,0
47160,note_on,0,0,1,,,,,,,,,0,,,60,62
47160,note_on,120,0,1,,,,,,,,,0,,,59,0
47280,note_on,120,0,1,,,,,,,,,0,,,60,0
47280,note_on,240,0,3,,,,,,,,,2,,,43,0
47280,note_on,0,0,1,,,,,,,,,0,,,62,62
47280,note_on,0,0,3,,,,,,,,,2,,,47,49
47400,note_on,120,0,1,,,,,,,,,0,,,62,0
47400,note_on,0,0,1,,,,,,,,,0,,,60,62
47520,note_on,240,0,3,,,,,,,,,2,,,47,0
47520,note_on,0,0,1,,,,,,,,,0,,,59,62
47520,note_on,0,0,3,,,,,,,,,2,,,50,49
47520,note_on,120,0,1,,,,,,,,,0,,,60,0
47640,note_on,0,0,1,,,,,,,,,0,,,57,62
47640,note_on,120,0,1,,,,,,,,,0,,,59,0
47760,note_on,120,0,1,,,,,,,,,0,,,57,0
47760,note_on,0,0,3,,,,,,,,,2,,,47,49
47760,control_change,0,0,3,,,,,,,,,2,64,0,,
47760,note_on,0,0,1,,,,,,,,,0,,,55,62
47760,note_on,240,0,3,,,,,,,,,2,,,50,0
47880,note_on,0,0,1,,,,,,,,,0,,,53,62
47880,note_on,120,0,1,,,,,,,,,0,,,55,0
48000,note_on,240,0,3,,,,,,,,,2,,,47,0
48000,note_on,120,0,1,,,,,,,,,0,,,53,0
48000,note_on,0,0,3,,,,,,,,,2,,,48,49
48000,note_on,0,0,1,,,,,,,,,0,,,52,62
48120,note_on,120,0,3,,,,,,,,,2,,,48,0
48120,note_on,0,0,3,,,,,,,,,2,,,36,49
48240,note_on,0,0,3,,,,,,,,,2,,,38,49
48240,note_on,240,0,1,,,,,,,,,0,,,52,0
48240,note_on,120,0,3,,,,,,,,,2,,,36,0
48360,note_on,120,0,3,,,,,,,,,2,,,38,0
48360,note_on,0,0,3,,,,,,,,,2,,,40,49
48480,note_on,120,0,3,,,,,,,,,2,,,40,0
48480,note_on,0,0,3,,,,,,,,,2,,,41,49
48600,note_on,120,0,3,,,,,,,,,2,,,41,0
48600,note_on,0,0,3,,,,,,,,,2,,,43,49
48720,note_on,120,0,3,,,,,,,,,2,,,43,0
48720,note_on,0,0,3,,,,,,,,,2,,,45,49
48840,note_on,120,0,3,,,,,,,,,2,,,45,0
48840,note_on,0,0,3,,,,,,,,,2,,,47,49
48960,note_on,120,0,3,,,,,,,,,2,,,47,0
48960,note_on,720,0,1,,,,,,,,,0,,,76,88
48960,note_on,0,0,3,,,,,,,,,2,,,48,49
48960,note_on,10560,0,2,,,,,,,,,1,,,64,49
49200,note_on,240,0,3,,,,,,,,,2,,,48,0
49200,note_on,0,0,3,,,,,,,,,2,,,46,49
49320,note_on,0,0,3,,,,,,,,,2,,,48,49
49320,note_on,120,0,3,,,,,,,,,2,,,46,0
49440,note_on,120,0,3,,,,,,,,,2,,,48,0
49440,note_on,0,0,3,,,,,,,,,2,,,36,49
49560,note_on,120,0,3,,,,,,,,,2,,,36,0
49560,note_on,0,0,3,,,,,,,,,2,,,48,49
49680,note_on,0,0,3,,,,,,,,,2,,,46,49
49680,note_on,720,0,1,,,,,,,,,0,,,76,0
49680,note_on,0,0,1,,,,,,,,,0,,,74,62
49680,note_on,120,0,3,,,,,,,,,2,,,48,0
49800,note_on,0,0,3,,,,,,,,,2,,,48,49
49800,note_on,120,0,3,,,,,,,,,2,,,46,0
49920,note_on,0,0,3,,,,,,,,,2,,,45,49
49920,control_change,0,0,3,,,,,,,,,2,64,127,,
49920,note_on,240,0,1,,,,,,,,,0,,,74,0
49920,note_on,120,0,3,,,,,,,,,2,,,48,0
49920,note_on,960,0,2,,,,,,,,,1,,,64,0
49920,note_on,0,0,1,,,,,,,,,0,,,74,88
49920,note_on,0,0,2,,,,,,,,,1,,,65,49
50040,note_on,120,0,3,,,,,,,,,2,,,45,0
50040,note_on,0,0,3,,,,,,,,,2,,,48,49
50160,note_on,0,0,1,,,,,,,,,0,,,72,62
50160,note_on,240,0,1,,,,,,,,,0,,,74,0
50160,note_on,0,0,3,,,,,,,,,2,,,36,49
50160,note_on,120,0,3,,,,,,,,,2,,,48,0
50280,control_change,0,0,3,,,,,,,,,2,64,0,,
50280,note_on,120,0,3,,,,,,,,,2,,,36,0
50280,note_on,0,0,3,,,,,,,,,2,,,48,49
50400,note_on,120,0,3,,,,,,,,,2,,,48,0
50400,note_on,0,0,1,,,,,,,,,0,,,72,88
50400,note_on,0,0,3,,,,,,,,,2,,,43,49
50400,note_on,240,0,1,,,,,,,,,0,,,72,0
50400,control_change,0,0,3,,,,,,,,,2,64,127,,
50400,note_on,0,0,2,,,,,,,,,1,,,64,49
50400,note_on,480,0,2,,,,,,,,,1,,,65,0
50520,note_on,120,0,3,,,,,,,,,2,,,43,0
50520,note_on,0,0,3,,,,,,,,,2,,,48,49
50640,note_on,120,0,3,,,,,,,,,2,,,48,0
50640,note_on,0,0,1,,,,,,,,,0,,,70,62
50640,note_on,0,0,3,,,,,,,,,2,,,36,49
50640,note_on,240,0,1,,,,,,,,,0,,,72,0
50760,note_on,0,0,3,,,,,,,,,2,,,48,49
50760,control_change,0,0,3,,,,,,,,,2,64,0,,
50760,note_on,120,0,3,,,,,,,,,2,,,36,0
50880,note_on,240,0,1,,,,,,,,,0,,,70,0
50880,note_on,0,0,3,,,,,,,,,2,,,41,49
50880,note_on,480,0,2,,,,,,,,,1,,,64,0
50880,control_change,0,0,3,,,,,,,,,2,64,127,,
50880,note_on,0,0,1,,,,,,,,,0,,,70,88
50880,note_on,120,0,3,,,,,,,,,2,,,48,0
50880,note_on,0,0,2,,,,,,,,,1,,,65,49
51000,note_on,0,0,3,,,,,,,,,2,,,48,49
51000,note_on,120,0,3,,,,,,,,,2,,,41,0
51120,note_on,0,0,3,,,,,,,,,2,,,36,49
51120,note_on,0,0,1,,,,,,,,,0,,,69,62
51120,note_on,120,0,3,,,,,,,,,2,,,48,0
51120,note_on,240,0,1,,,,,,,,,0,,,70,0
51240,control_change,0,0,3,,,,,,,,,2,64,0,,
51240,note_on,120,0,3,,,,,,,,,2,,,36,0
51240,note_on,0,0,3,,,,,,,,,2,,,48,49
51360,note_on,0,0,1,,,,,,,,,0,,,70,88
51360,note_on,480,0,2,,,,,,,,,1,,,65,0
51360,note_on,0,0,2,,,,,,,,,1,,,65,49
51360,note_on,0,0,2,,,,,,,,,1,,,59,49
51360,control_change,0,0,3,,,,,,,,,2,64,127,,
51360,note_on,120,0,3,,,,,,,,,2,,,48,0
51360,note_on,0,0,3,,,,,,,,,2,,,38,49
51360,note_on,240,0,1,,,,,,,,,0,,,69,0
51480,note_on,0,0,3,,,,,,,,,2,,,48,49
51480,note_on,120,0,3,,,,,,,,,2,,,38,0
51600,note_on,0,0,1,,,,,,,,,0,,,68,62
51600,note_on,0,0,3,,,,,,,,,2,,,36,49
51600,note_on,120,0,3,,,,,,,,,2,,,48,0
51600,note_on,240,0,1,,,,,,,,,0,,,70,0
51720,note_on,0,0,3,,,,,,,,,2,,,48,49
51720,control_change,0,0,3,,,,,,,,,2,64,0,,
51720,note_on,120,0,3,,,,,,,,,2,,,36,0
51840,note_on,120,0,3,,,,,,,,,2,,,48,0
51840,note_on,0,0,1,,,,,,,,,0,,,67,62
51840,note_on,0,0,2,,,,,,,,,1,,,59,0
51840,note_on,480,0,2,,,,,,,,,1,,,65,0
51840,note_on,0,0,2,,,,,,,,,1,,,60,49
51840,note_on,0,0,3,,,,,,,,,2,,,40,49
51840,note_on,240,0,1,,,,,,,,,0,,,68,0
51960,note_on,120,0,3,,,,,,,,,2,,,40,0
51960,note_on,0,0,3,,,,,,,,,2,,,36,49
52080,note_on,120,0,3,,,,,,,,,2,,,36,0
52080,note_on,240,0,2,,,,,,,,,1,,,60,0
52080,note_on,0,0,3,,,,,,,,,2,,,38,49
52080,note_on,240,0,1,,,,,,,,,0,,,67,0
52200,note_on,120,0,3,,,,,,,,,2,,,38,0
52200,note_on,0,0,3,,,,,,,,,2,,,40,49
52320,note_on,0,0,3,,,,,,,,,2,,,41,49
52320,note_on,120,0,3,,,,,,,,,2,,,40,0
52440,note_on,0,0,3,,,,,,,,,2,,,43,49
52440,note_on,120,0,3,,,,,,,,,2,,,41,0
52560,note_on,120,0,3,,,,,,,,,2,,,43,0
52560,note_on,0,0,3,,,,,,,,,2,,,45,49
52680,note_on,0,0,3,,,,,,,,,2,,,47,49
52680,note_on,120,0,3,,,,,,,,,2,,,45,0
52800,note_on,720,0,1,,,,,,,,,0,,,76,62
52800,note_on,0,0,3,,,,,,,,,2,,,48,49
52800,note_on,720,0,2,,,,,,,,,1,,,64,49
52800,note_on,120,0,3,,,,,,,,,2,,,47,0
53040,note_on,0,0,3,,,,,,,,,2,,,46,49
53040,note_on,240,0,3,,,,,,,,,2,,,48,0
53160,note_on,0,0,3,,,,,,,,,2,,,48,49
53160,note_on,120,0,3,,,,,,,,,2,,,46,0
53280,note_on,0,0,3,,,,,,,,,2,,,46,49
53280,note_on,120,0,3,,,,,,,,,2,,,48,0
53400,note_on,0,0,3,,,,,,,,,2,,,48,49
53400,note_on,120,0,3,,,,,,,,,2,,,46,0
53520,note_on,0,0,3,,,,,,,,,2,,,36,49
53520,note_on,0,0,1,,,,,,,,,0,,,74,62
53520,note_on,120,0,3,,,,,,,,,2,,,48,0
53520,note_on,720,0,1,,,,,,,,,0,,,76,0
53640,note_on,120,0,3,,,,,,,,,2,,,36,0
53640,note_on,0,0,3,,,,,,,,,2,,,48,49
53760,note_on,120,0,3,,,,,,,,,2,,,48,0
53760,note_on,960,0,2,,,,,,,,,1,,,64,0
53760,note_on,0,0,3,,,,,,,,,2,,,45,49
53760,note_on,0,0,2,,,,,,,,,1,,,65,49
53760,note_on,240,0,1,,,,,,,,,0,,,74,0
53760,note_on,0,0,1,,,,,,,,,0,,,74,62
53880,note_on,0,0,3,,,,,,,,,2,,,48,49
53880,note_on,120,0,3,,,,,,,,,2,,,45,0
54000,note_on,0,0,1,,,,,,,,,0,,,72,62
54000,note_on,240,0,1,,,,,,,,,0,,,74,0
54000,note_on,0,0,3,,,,,,,,,2,,,36,49
54000,note_on,120,0,3,,,,,,,,,2,,,48,0
54120,note_on,120,0,3,,,,,,,,,2,,,36,0
54120,note_on,0,0,3,,,,,,,,,2,,,48,49
54240,note_on,0,0,3,,,,,,,,,2,,,43,49
54240,note_on,480,0,2,,,,,,,,,1,,,65,0
54240,note_on,120,0,3,,,,,,,,,2,,,48,0
54240,note_on,0,0,1,,,,,,,,,0,,,72,62
54240,note_on,0,0,2,,,,,,,,,1,,,64,49
54240,note_on,240,0,1,,,,,,,,,0,,,72,0
54360,note_on,0,0,3,,,,,,,,,2,,,48,49
54360,note_on,120,0,3,,,,,,,,,2,,,43,0
54480,note_on,0,0,1,,,,,,,,,0,,,70,62
54480,note_on,240,0,1,,,,,,,,,0,,,72,0
54480,note_on,120,0,3,,,,,,,,,2,,,48,0
54480,note_on,0,0,3,,,,,,,,,2,,,36,49
54600,note_on,0,0,3,,,,,,,,,2,,,48,49
54600,note_on,120,0,3,,,,,,,,,2,,,36,0
54720,note_on,0,0,3,,,,,,,,,2,,,41,75
54720,note_on,240,0,1,,,,,,,,,0,,,70,0
54720,note_on,0,0,2,,,,,,,,,1,,,65,75
54720,note_on,120,0,3,,,,,,,,,2,,,48,0
54720,note_on,0,0,1,,,,,,,,,0,,,70,88
54720,note_on,480,0,2,,,,,,,,,1,,,64,0
54840,note_on,0,0,3,,,,,,,,,2,,,48,75
54840,note_on,120,0,3,,,,,,,,,2,,,41,0
54960,note_on,0,0,3,,,,,,,,,2,,,36,75
54960,note_on,0,0,1,,,,,,,,,0,,,69,88
54960,note_on,120,0,3,,,,,,,,,2,,,48,0
54960,note_on,240,0,1,,,,,,,,,0,,,70,0
55080,note_on,0,0,3,,,,,,,,,2,,,48,75
55080,note_on,120,0,3,,,,,,,,,2,,,36,0
55200,note_on,0,0,1,,,,,,,,,0,,,70,101
55200,note_on,0,0,2,,,,,,,,,1,,,65,88
55200,note_on,120,0,3,,,,,,,,,2,,,48,0
55200,note_on,480,0,2,,,,,,,,,1,,,65,0
55200,note_on,0,0,3,,,,,,,,,2,,,38,101
55200,note_on,240,0,1,,,,,,,,,0,,,69,0
55200,note_on,0,0,2,,,,,,,,,1,,,59,88
55320,note_on,120,0,3,,,,,,,,,2,,,38,0
55320,note_on,0,0,3,,,,,,,,,2,,,48,101
55440,note_on,240,0,1,,,,,,,,,0,,,70,0
55440,note_on,120,0,3,,,,,,,,,2,,,48,0
55440,note_on,0,0,1,,,,,,,,,0,,,68,101
55440,note_on,0,0,3,,,,,,,,,2,,,36,101
55560,note_on,120,0,3,,,,,,,,,2,,,36,0
55560,note_on,0,0,3,,,,,,,,,2,,,48,101
55680,note_on,0,0,3,,,,,,,,,2,,,40,101
55680,note_on,0,0,2,,,,,,,,,1,,,59,0
55680,note_on,240,0,1,,,,,,,,,0,,,68,0
55680,note_on,120,0,3,,,,,,,,,2,,,48,0
55680,note_on,480,0,2,,,,,,,,,1,,,65,0
55680,note_on,0,0,1,,,,,,,,,0,,,67,101
55680,note_on,0,0,1,,,,,,,,,0,,,60,101
55800,note_on,120,0,3,,,,,,,,,2,,,40,0
55800,note_on,0,0,3,,,,,,,,,2,,,36,101
55800,note_on,120,0,1,,,,,,,,,0,,,67,0
55800,note_on,0,0,1,,,,,,,,,0,,,60,0
55800,note_on,0,0,1,,,,,,,,,0,,,48,101
55920,note_on,0,0,3,,,,,,,,,2,,,38,101
55920,note_on,0,0,1,,,,,,,,,0,,,50,101
55920,note_on,120,0,1,,,,,,,,,0,,,48,0
55920,note_on,120,0,3,,,,,,,,,2,,,36,0
56040,note_on,0,0,3,,,,,,,,,2,,,40,101
56040,note_on,120,0,3,,,,,,,,,2,,,38,0
56040,note_on,0,0,1,,,,,,,,,0,,,52,101
56040,note_on,120,0,1,,,,,,,,,0,,,50,0
56160,note_on,120,0,3,,,,,,,,,2,,,40,0
56160,note_on,0,0,3,,,,,,,,,2,,,41,101
56160,note_on,0,0,1,,,,,,,,,0,,,53,101
56160,note_on,120,0,1,,,,,,,,,0,,,52,0
56280,note_on,0,0,3,,,,,,,,,2,,,43,101
56280,note_on,120,0,3,,,,,,,,,2,,,41,0
56280,note_on,120,0,1,,,,,,,,,0,,,53,0
56280,note_on,0,0,1,,,,,,,,,0,,,55,101
56400,note_on,0,0,3,,,,,,,,,2,,,45,101
56400,note_on,120,0,3,,,,,,,,,2,,,43,0
56400,note_on,120,0,1,,,,,,,,,0,,,55,0
56400,note_on,0,0,1,,,,,,,,,0,,,57,101
56520,note_on,0,0,3,,,,,,,,,2,,,47,101
56520,note_on,120,0,1,,,,,,,,,0,,,57,0
56520,note_on,120,0,3,,,,,,,,,2,,,45,0
56520,note_on,0,0,1,,,,,,,,,0,,,59,101
56640,note_on,120,0,1,,,,,,,,,0,,,59,0
56640,note_on,0,0,3,,,,,,,,,2,,,48,101
56640,note_on,0,0,1,,,,,,,,,0,,,60,101
56640,note_on,120,0,3,,,,,,,,,2,,,47,0
56760,note_on,0,0,1,,,,,,,,,0,,,60,101
56760,note_on,0,0,3,,,,,,,,,2,,,48,101
56760,note_on,120,0,3,,,,,,,,,2,,,48,0
56760,note_on,120,0,1,,,,,,,,,0,,,60,0
56880,note_on,120,0,1,,,,,,,,,0,,,60,0
56880,note_on,0,0,1,,,,,,,,,0,,,62,101
56880,note_on,120,0,3,,,,,,,,,2,,,48,0
56880,note_on,0,0,3,,,,,,,,,2,,,50,101
57000,note_on,120,0,1,,,,,,,,,0,,,62,0
57000,note_on,120,0,3,,,,,,,,,2,,,50,0
57000,note_on,0,0,3,,,,,,,,,2,,,52,101
57000,note_on,0,0,1,,,,,,,,,0,,,64,101
57120,note_on,0,0,3,,,,,,,,,2,,,53,101
57120,note_on,120,0,1,,,,,,,,,0,,,64,0
57120,note_on,120,0,3,,,,,,,,,2,,,52,0
57120,note_on,0,0,1,,,,,,,,,0,,,65,101
57240,note_on,120,0,3,,,,,,,,,2,,,53,0
57240,note_on,0,0,3,,,,,,,,,2,,,55,101
57240,note_on,120,0,1,,,,,,,,,0,,,65,0
57240,note_on,0,0,1,,,,,,,,,0,,,67,101
57360,note_on,120,0,1,,,,,,,,,0,,,67,0
57360,note_on,120,0,3,,,,,,,,,2,,,55,0
57360,note_on,0,0,3,,,,,,,,,2,,,57,101
57360,note_on,0,0,1,,,,,,,,,0,,,69,101
57480,note_on,120,0,1,,,,,,,,,0,,,69,0
57480,note_on,0,0,3,,,,,,,,,2,,,59,101
57480,note_on,120,0,3,,,,,,,,,2,,,57,0
57480,note_on,0,0,1,,,,,,,,,0,,,71,101
57600,note_on,120,0,3,,,,,,,,,2,,,59,0
57600,note_on,120,0,1,,,,,,,,,0,,,71,0
57600,note_on,0,0,3,,,,,,,,,2,,,60,101
57600,note_on,0,0,1,,,,,,,,,0,,,72,101
57840,note_on,240,0,3,,,,,,,,,2,,,60,0
57840,note_on,240,0,1,,,,,,,,,0,,,72,0
58080,note_on,0,0,3,,,,,,,,,2,,,60,101
58080,note_on,240,0,1,,,,,,,,,0,,,79,101
58080,control_change,240,0,3,,,,,,,,,2,64,127,,
58200,note_on,2520,0,2,,,,,,,,,1,,,72,88
58320,note_on,0,0,2,,,,,,,,,1,,,76,88
58320,note_on,120,0,2,,,,,,,,,1,,,72,0
58440,note_on,0,0,1,,,,,,,,,0,,,79,101
58440,note_on,360,0,1,,,,,,,,,0,,,79,0
58560,note_on,120,0,1,,,,,,,,,0,,,79,0
58560,note_on,0,0,3,,,,,,,,,2,,,65,101
58560,note_on,480,0,3,,,,,,,,,2,,,60,0
58560,note_on,240,0,2,,,,,,,,,1,,,76,0
58560,note_on,0,0,1,,,,,,,,,0,,,80,101
58680,note_on,120,0,2,,,,,,,,,1,,,72,88
58800,note_on,120,0,2,,,,,,,,,1,,,72,0
58800,note_on,0,0,2,,,,,,,,,1,,,77,88
58920,note_on,360,0,1,,,,,,,,,0,,,80,0
58920,note_on,0,0,1,,,,,,,,,0,,,80,101
59040,note_on,120,0,1,,,,,,,,,0,,,80,0
59040,note_on,0,0,3,,,,,,,,,2,,,67,101
59040,note_on,240,0,2,,,,,,,,,1,,,77,0
59040,note_on,480,0,3,,,,,,,,,2,,,65,0
59040,note_on,0,0,1,,,,,,,,,0,,,85,101
59120,note_on,80,0,3,,,,,,,,,2,,,67,0
59120,note_on,0,0,3,,,,,,,,,2,,,68,101
59160,note_on,120,0,2,,,,,,,,,1,,,75,88
59199,note_on,79,0,3,,,,,,,,,2,,,68,0
59199,note_on,0,0,3,,,,,,,,,2,,,67,101
59280,note_on,120,0,2,,,,,,,,,1,,,75,0
59280,note_on,0,0,2,,,,,,,,,1,,,82,88
59280,note_on,81,0,3,,,,,,,,,2,,,67,0
59280,note_on,0,0,3,,,,,,,,,2,,,68,101
59360,note_on,0,0,3,,,,,,,,,2,,,65,101
59360,note_on,80,0,3,,,,,,,,,2,,,68,0
59400,note_on,360,0,1,,,,,,,,,0,,,85,0
59400,note_on,0,0,1,,,,,,,,,0,,,85,101
59439,note_on,0,0,3,,,,,,,,,2,,,67,101
59439,control_change,0,0,3,,,,,,,,,2,64,0,,
59439,note_on,79,0,3,,,,,,,,,2,,,65,0
59520,note_on,0,0,3,,,,,,,,,2,,,68,101
59520,note_on,240,0,2,,,,,,,,,1,,,82,0
59520,note_on,81,0,3,,,,,,,,,2,,,67,0
59520,note_on,120,0,1,,,,,,,,,0,,,85,0
59520,note_on,0,0,1,,,,,,,,,0,,,84,101
59520,control_change,0,0,3,,,,,,,,,2,64,127,,
59640,note_on,120,0,2,,,,,,,,,1,,,75,88
59760,note_on,0,0,2,,,,,,,,,1,,,80,88
59760,note_on,120,0,2,,,,,,,,,1,,,75,0
59880,note_on,360,0,1,,,,,,,,,0,,,84,0
59880,note_on,0,0,1,,,,,,,,,0,,,84,101
60000,note_on,240,0,2,,,,,,,,,1,,,80,0
60000,note_on,120,0,1,,,,,,,,,0,,,84,0
60000,note_on,0,0,3,,,,,,,,,2,,,61,101
60000,note_on,0,0,1,,,,,,,,,0,,,82,101
60000,note_on,480,0,3,,,,,,,,,2,,,68,0
60120,note_on,120,0,2,,,,,,,,,1,,,73,88
60240,note_on,0,0,2,,,,,,,,,1,,,77,88
60240,note_on,120,0,2,,,,,,,,,1,,,73,0
60360,note_on,360,0,1,,,,,,,,,0,,,82,0
60360,note_on,0,0,1,,,,,,,,,0,,,82,101
60480,control_change,0,0,3,,,,,,,,,2,64,0,,
60480,note_on,0,0,1,,,,,,,,,0,,,80,101
60480,note_on,480,0,3,,,,,,,,,2,,,61,0
60480,note_on,240,0,2,,,,,,,,,1,,,77,0
60480,note_on,0,0,3,,,,,,,,,2,,,63,101
60480,note_on,120,0,1,,,,,,,,,0,,,82,0
60600,note_on,120,0,2,,,,,,,,,1,,,72,88
60720,note_on,0,0,2,,,,,,,,,1,,,75,88
60720,note_on,120,0,2,,,,,,,,,1,,,72,0
60840,note_on,360,0,1,,,,,,,,,0,,,80,0
60840,note_on,0,0,1,,,,,,,,,0,,,80,101
60960,note_on,480,0,3,,,,,,,,,2,,,63,0
60960,note_on,240,0,2,,,,,,,,,1,,,75,0
60960,note_on,120,0,1,,,,,,,,,0,,,80,0
60960,note_on,0,0,1,,,,,,,,,0,,,79,101
61080,note_on,120,0,2,,,,,,,,,1,,,70,88
61200,note_on,0,0,2,,,,,,,,,1,,,73,88
61200,note_on,120,0,2,,,,,,,,,1,,,70,0
61320,note_on,360,0,1,,,,,,,,,0,,,79,0
61320,note_on,0,0,3,,,,,,,,,2,,,51,101
61320,note_on,0,0,1,,,,,,,,,0,,,79,101
61320,control_change,360,0,3,,,,,,,,,2,64,127,,
61359,note_on,0,0,3,,,,,,,,,2,,,53,101
61359,note_on,39,0,3,,,,,,,,,2,,,51,0
61400,note_on,0,0,3,,,,,,,,,2,,,55,101
61400,note_on,41,0,3,,,,,,,,,2,,,53,0
61440,note_on,120,0,1,,,,,,,,,0,,,79,0
61440,note_on,40,0,3,,,,,,,,,2,,,55,0
61440,note_on,240,0,2,,,,,,,,,1,,,73,0
61440,note_on,0,0,3,,,,,,,,,2,,,56,101
61440,control_change,0,0,3,,,,,,,,,2,64,0,,
61440,note_on,0,0,1,,,,,,,,,0,,,72,101
61440,note_on,0,0,1,,,,,,,,,0,,,80,101
61560,note_on,120,0,1,,,,,,,,,0,,,80,0
61560,note_on,120,0,3,,,,,,,,,2,,,56,0
61560,note_on,0,0,3,,,,,,,,,2,,,44,101
61560,note_on,0,0,1,,,,,,,,,0,,,56,101
61560,note_on,0,0,1,,,,,,,,,0,,,72,0
61680,note_on,0,0,3,,,,,,,,,2,,,46,101
61680,note_on,0,0,1,,,,,,,,,0,,,58,101
61680,note_on,120,0,3,,,,,,,,,2,,,44,0
61680,note_on,120,0,1,,,,,,,,,0,,,56,0
61800,note_on,0,0,1,,,,,,,,,0,,,60,101
61800,note_on,120,0,3,,,,,,,,,2,,,46,0
61800,note_on,0,0,3,,,,,,,,,2,,,48,101
61800,note_on,120,0,1,,,,,,,,,0,,,58,0
61920,note_on,120,0,3,,,,,,,,,2,,,48,0
61920,note_on,0,0,3,,,,,,,,,2,,,49,101
61920,note_on,120,0,1,,,,,,,,,0,,,60,0
61920,note_on,0,0,1,,,,,,,,,0,,,61,101
62040,note_on,0,0,1,,,,,,,,,0,,,63,101
62040,note_on,120,0,3,,,,,,,,,2,,,49,0
62040,note_on,120,0,1,,,,,,,,,0,,,61,0
62040,note_on,0,0,3,,,,,,,,,2,,,51,101
62160,note_on,120,0,1,,,,,,,,,0,,,63,0
62160,note_on,0,0,3,,,,,,,,,2,,,53,101
62160,note_on,0,0,1,,,,,,,,,0,,,65,101
62160,note_on,120,0,3,,,,,,,,,2,,,51,0
62280,note_on,120,0,1,,,,,,,,,0,,,65,0
62280,note_on,0,0,1,,,,,,,,,0,,,67,101
62280,note_on,120,0,3,,,,,,,,,2,,,53,0
62280,note_on,0,0,3,,,,,,,,,2,,,55,101
62400,note_on,120,0,3,,,,,,,,,2,,,55,0
62400,note_on,120,0,1,,,,,,,,,0,,,67,0
62400,note_on,0,0,1,,,,,,,,,0,,,68,101
62400,note_on,0,0,3,,,,,,,,,2,,,56,101
62520,note_on,0,0,1,,,,,,,,,0,,,68,101
62520,note_on,120,0,1,,,,,,,,,0,,,68,0
62520,note_on,0,0,3,,,,,,,,,2,,,56,101
62520,note_on,120,0,3,,,,,,,,,2,,,56,0
62640,note_on,0,0,1,,,,,,,,,0,,,70,101
62640,note_on,120,0,3,,,,,,,,,2,,,56,0
62640,note_on,120,0,1,,,,,,,,,0,,,68,0
62640,note_on,0,0,3,,,,,,,,,2,,,58,101
62760,note_on,0,0,3,,,,,,,,,2,,,60,101
62760,note_on,0,0,1,,,,,,,,,0,,,72,101
62760,note_on,120,0,3,,,,,,,,,2,,,58,0
62760,note_on,120,0,1,,,,,,,,,0,,,70,0
62880,note_on,0,0,1,,,,,,,,,0,,,73,101
62880,note_on,120,0,3,,,,,,,,,2,,,60,0
62880,note_on,0,0,3,,,,,,,,,2,,,61,101
62880,note_on,120,0,1,,,,,,,,,0,,,72,0
63000,note_on,0,0,1,,,,,,,,,0,,,75,101
63000,note_on,120,0,1,,,,,,,,,0,,,73,0
63000,note_on,0,0,3,,,,,,,,,2,,,63,101
63000,note_on,120,0,3,,,,,,,,,2,,,61,0
63120,note_on,0,0,3,,,,,,,,,2,,,65,101
63120,note_on,120,0,1,,,,,,,,,0,,,75,0
63120,note_on,0,0,1,,,,,,,,,0,,,77,101
63120,note_on,120,0,3,,,,,,,,,2,,,63,0
63240,note_on,0,0,1,,,,,,,,,0,,,79,101
63240,note_on,120,0,3,,,,,,,,,2,,,65,0
63240,note_on,120,0,1,,,,,,,,,0,,,77,0
63240,note_on,0,0,3,,,,,,,,,2,,,67,101
63360,note_on,120,0,3,,,,,,,,,2,,,67,0
63360,note_on,0,0,1,,,,,,,,,0,,,80,101
63360,note_on,120,0,1,,,,,,,,,0,,,79,0
63360,note_on,0,0,3,,,,,,,,,2,,,68,101
63600,note_on,240,0,1,,,,,,,,,0,,,80,0
63600,note_on,240,0,3,,,,,,,,,2,,,68,0
63840,control_change,240,0,3,,,,,,,,,2,64,127,,
63840,note_on,240,0,1,,,,,,,,,0,,,68,62
63840,note_on,0,0,3,,,,,,,,,2,,,49,62
63960,note_on,2520,0,2,,,,,,,,,1,,,61,49
64080,note_on,0,0,2,,,,,,,,,1,,,65,49
64080,note_on,120,0,2,,,,,,,,,1,,,61,0
64200,note_on,360,0,1,,,,,,,,,0,,,68,0
64200,note_on,0,0,1,,,,,,,,,0,,,68,62
64320,note_on,240,0,2,,,,,,,,,1,,,65,0
64320,note_on,480,0,3,,,,,,,,,2,,,49,0
64320,note_on,0,0,3,,,,,,,,,2,,,54,62
64320,note_on,120,0,1,,,,,,,,,0,,,68,0
64320,note_on,0,0,1,,,,,,,,,0,,,70,62
64440,note_on,120,0,2,,,,,,,,,1,,,61,49
64560,note_on,120,0,2,,,,,,,,,1,,,61,0
64560,note_on,0,0,2,,,,,,,,,1,,,66,49
64680,note_on,360,0,1,,,,,,,,,0,,,70,0
64680,note_on,0,0,1,,,,,,,,,0,,,70,62
64800,note_on,120,0,1,,,,,,,,,0,,,70,0
64800,note_on,480,0,3,,,,,,,,,2,,,54,0
64800,note_on,0,0,3,,,,,,,,,2,,,59,62
64800,note_on,0,0,1,,,,,,,,,0,,,75,62
64800,note_on,240,0,2,,,,,,,,,1,,,66,0
64880,note_on,80,0,3,,,,,,,,,2,,,59,0
64880,note_on,0,0,3,,,,,,,,,2,,,61,62
64920,note_on,120,0,2,,,,,,,,,1,,,66,49
64959,note_on,0,0,3,,,,,,,,,2,,,59,62
64959,note_on,79,0,3,,,,,,,,,2,,,61,0
65040,note_on,0,0,2,,,,,,,,,1,,,71,49
65040,note_on,120,0,2,,,,,,,,,1,,,66,0
65040,note_on,81,0,3,,,,,,,,,2,,,59,0
65040,note_on,0,0,3,,,,,,,,,2,,,61,62
65120,note_on,0,0,3,,,,,,,,,2,,,58,62
65120,note_on,80,0,3,,,,,,,,,2,,,61,0
65160,note_on,360,0,1,,,,,,,,,0,,,75,0
65160,note_on,0,0,1,,,,,,,,,0,,,75,62
65199,note_on,79,0,3,,,,,,,,,2,,,58,0
65199,control_change,0,0,3,,,,,,,,,2,64,0,,
65199,note_on,0,0,3,,,,,,,,,2,,,59,62
65280,note_on,81,0,3,,,,,,,,,2,,,59,0
65280,note_on,0,0,1,,,,,,,,,0,,,73,62
65280,note_on,240,0,2,,,,,,,,,1,,,71,0
65280,note_on,120,0,1,,,,,,,,,0,,,75,0
65280,note_on,0,0,3,,,,,,,,,2,,,61,62
65400,note_on,120,0,2,,,,,,,,,1,,,66,49
65520,note_on,120,0,2,,,,,,,,,1,,,66,0
65520,note_on,0,0,2,,,,,,,,,1,,,70,49
65640,note_on,0,0,1,,,,,,,,,0,,,73,62
65640,note_on,360,0,1,,,,,,,,,0,,,73,0
65760,note_on,240,0,2,,,,,,,,,1,,,70,0
65760,note_on,0,0,1,,,,,,,,,0,,,78,62
65760,note_on,120,0,1,,,,,,,,,0,,,73,0
65880,note_on,120,0,2,,,,,,,,,1,,,66,49
66000,note_on,0,0,2,,,,,,,,,1,,,70,49
66000,note_on,120,0,2,,,,,,,,,1,,,66,0
66120,note_on,0,0,1,,,,,,,,,0,,,78,62
66120,note_on,360,0,1,,,,,,,,,0,,,78,0
66240,note_on,0,0,3,,,,,,,,,2,,,62,62
66240,note_on,960,0,3,,,,,,,,,2,,,61,0
66240,note_on,240,0,2,,,,,,,,,1,,,70,0
66240,note_on,120,0,1,,,,,,,,,0,,,78,0
66240,note_on,0,0,1,,,,,,,,,0,,,77,62
66240,note_on,0,0,3,,,,,,,,,2,,,50,62
66360,note_on,120,0,2,,,,,,,,,1,,,68,49
66480,note_on,120,0,2,,,,,,,,,1,,,68,0
66480,note_on,0,0,2,,,,,,,,,1,,,71,49
66600,note_on,360,0,1,,,,,,,,,0,,,77,0
66600,note_on,0,0,1,,,,,,,,,0,,,77,62
66720,note_on,240,0,2,,,,,,,,,1,,,71,0
66720,note_on,120,0,1,,,,,,,,,0,,,77,0
66720,note_on,0,0,1,,,,,,,,,0,,,80,75
66840,note_on,120,0,2,,,,,,,,,1,,,68,62
66960,note_on,0,0,2,,,,,,,,,1,,,71,62
66960,note_on,120,0,2,,,,,,,,,1,,,68,0
67080,note_on,360,0,1,,,,,,,,,0,,,80,0
67080,note_on,0,0,1,,,,,,,,,0,,,80,75
67200,note_on,240,0,2,,,,,,,,,1,,,71,0
67200,note_on,120,0,1,,,,,,,,,0,,,80,0
67200,note_on,0,0,1,,,,,,,,,0,,,79,75
67320,note_on,120,0,2,,,,,,,,,1,,,70,62
67440,note_on,120,0,2,,,,,,,,,1,,,70,0
67440,note_on,0,0,2,,,,,,,,,1,,,76,62
67560,note_on,0,0,1,,,,,,,,,0,,,79,75
67560,note_on,360,0,1,,,,,,,,,0,,,79,0
67680,note_on,0,0,3,,,,,,,,,2,,,61,75
67680,note_on,0,0,3,,,,,,,,,2,,,50,0
67680,note_on,0,0,3,,,,,,,,,2,,,49,75
67680,note_on,120,0,1,,,,,,,,,0,,,79,0
67680,note_on,1440,0,3,,,,,,,,,2,,,62,0
67680,note_on,0,0,1,,,,,,,,,0,,,82,75
67680,note_on,240,0,2,,,,,,,,,1,,,76,0
67800,note_on,120,0,2,,,,,,,,,1,,,70,62
67920,note_on,0,0,2,,,,,,,,,1,,,76,62
67920,note_on,120,0,2,,,,,,,,,1,,,70,0
68040,note_on,0,0,1,,,,,,,,,0,,,82,75
68040,note_on,360,0,1,,,,,,,,,0,,,82,0
68160,note_on,120,0,1,,,,,,,,,0,,,82,0
68160,note_on,0,0,1,,,,,,,,,0,,,81,88
68160,note_on,240,0,2,,,,,,,,,1,,,76,0
68280,note_on,120,0,2,,,,,,,,,1,,,75,75
68400,note_on,0,0,2,,,,,,,,,1,,,78,75
68400,note_on,120,0,2,,,,,,,,,1,,,75,0
68520,note_on,360,0,1,,,,,,,,,0,,,81,0
68520,note_on,0,0,1,,,,,,,,,0,,,81,88
68640,note_on,0,0,3,,,,,,,,,2,,,48,88
68640,note_on,120,0,1,,,,,,,,,0,,,81,0
68640,note_on,0,0,1,,,,,,,,,0,,,87,88
68640,note_on,960,0,3,,,,,,,,,2,,,61,0
68640,note_on,0,0,3,,,,,,,,,2,,,60,88
68640,note_on,240,0,2,,,,,,,,,1,,,78,0
68640,note_on,0,0,3,,,,,,,,,2,,,49,0
68760,note_on,120,0,2,,,,,,,,,1,,,75,75
68880,note_on,0,0,2,,,,,,,,,1,,,81,75
68880,note_on,120,0,2,,,,,,,,,1,,,75,0
69000,note_on,360,0,1,,,,,,,,,0,,,87,0
69000,note_on,0,0,1,,,,,,,,,0,,,87,88
69120,note_on,0,0,1,,,,,,,,,0,,,86,88
69120,note_on,240,0,2,,,,,,,,,1,,,81,0
69120,note_on,120,0,1,,,,,,,,,0,,,87,0
69240,note_on,120,0,2,,,,,,,,,1,,,77,75
69360,note_on,0,0,2,,,,,,,,,1,,,81,75
69360,note_on,120,0,2,,,,,,,,,1,,,77,0
69480,note_on,360,0,1,,,,,,,,,0,,,86,0
69480,note_on,0,0,1,,,,,,,,,0,,,86,88
69600,note_on,0,0,1,,,,,,,,,0,,,89,88
69600,note_on,960,0,3,,,,,,,,,2,,,60,0
69600,note_on,240,0,2,,,,,,,,,1,,,81,0
69600,note_on,0,0,3,,,,,,,,,2,,,47,88
69600,note_on,0,0,3,,,,,,,,,2,,,48,0
69600,note_on,0,0,3,,,,,,,,,2,,,59,88
69600,note_on,120,0,1,,,,,,,,,0,,,86,0
69720,note_on,120,0,2,,,,,,,,,1,,,77,75
69840,note_on,120,0,2,,,,,,,,,1,,,77,0
69840,note_on,0,0,2,,,,,,,,,1,,,81,75
69960,note_on,360,0,1,,,,,,,,,0,,,89,0
69960,note_on,0,0,1,,,,,,,,,0,,,89,88
70080,note_on,120,0,1,,,,,,,,,0,,,89,0
70080,note_on,0,0,1,,,,,,,,,0,,,88,101
70080,note_on,240,0,2,,,,,,,,,1,,,81,0
70200,note_on,120,0,2,,,,,,,,,1,,,79,88
70320,note_on,0,0,2,,,,,,,,,1,,,85,88
70320,note_on,120,0,2,,,,,,,,,1,,,79,0
70440,note_on,0,0,1,,,,,,,,,0,,,88,101
70440,note_on,360,0,1,,,,,,,,,0,,,88,0
70560,note_on,0,0,1,,,,,,,,,0,,,91,101
70560,note_on,960,0,3,,,,,,,,,2,,,59,0
70560,note_on,0,0,3,,,,,,,,,2,,,58,101
70560,note_on,0,0,3,,,,,,,,,2,,,47,0
70560,note_on,0,0,3,,,,,,,,,2,,,46,101
70560,note_on,240,0,2,,,,,,,,,1,,,85,0
70560,note_on,120,0,1,,,,,,,,,0,,,88,0
70680,note_on,120,0,2,,,,,,,,,1,,,79,88
70800,note_on,120,0,2,,,,,,,,,1,,,79,0
70800,note_on,0,0,2,,,,,,,,,1,,,85,88
70920,note_on,360,0,1,,,,,,,,,0,,,91,0
70920,note_on,0,0,1,,,,,,,,,0,,,91,101
71040,note_on,240,0,2,,,,,,,,,1,,,85,0
71040,note_on,0,0,1,,,,,,,,,0,,,89,101
71040,note_on,120,0,1,,,,,,,,,0,,,91,0
71160,note_on,120,0,2,,,,,,,,,1,,,81,88
71280,note_on,120,0,2,,,,,,,,,1,,,81,0
71280,note_on,0,0,2,,,,,,,,,1,,,84,88
71400,note_on,360,0,1,,,,,,,,,0,,,89,0
71400,note_on,0,0,1,,,,,,,,,0,,,89,101
71520,note_on,120,0,1,,,,,,,,,0,,,89,0
71520,note_on,0,0,3,,,,,,,,,2,,,46,0
71520,note_on,0,0,3,,,,,,,,,2,,,57,101
71520,note_on,960,0,3,,,,,,,,,2,,,58,0
71520,note_on,0,0,3,,,,,,,,,2,,,45,101
71520,note_on,0,0,1,,,,,,,,,0,,,93,101
71520,note_on,240,0,2,,,,,,,,,1,,,84,0
71640,note_on,120,0,2,,,,,,,,,1,,,89,88
71760,note_on,120,0,2,,,,,,,,,1,,,89,0
71760,note_on,0,0,2,,,,,,,,,1,,,93,88
71880,note_on,360,0,1,,,,,,,,,0,,,93,0
71880,note_on,0,0,1,,,,,,,,,0,,,96,101
72000,note_on,0,0,1,,,,,,,,,0,,,100,101
72000,note_on,240,0,2,,,,,,,,,1,,,93,0
72000,note_on,0,0,3,,,,,,,,,2,,,58,101
72000,note_on,480,0,3,,,,,,,,,2,,,57,0
72000,note_on,0,0,3,,,,,,,,,2,,,46,101
72000,note_on,0,0,3,,,,,,,,,2,,,45,0
72000,note_on,120,0,1,,,,,,,,,0,,,96,0
72120,note_on,0,0,1,,,,,,,,,0,,,98,101
72120,note_on,120,0,1,,,,,,,,,0,,,100,0
72240,note_on,0,0,3,,,,,,,,,2,,,46,0
72240,note_on,0,0,1,,,,,,,,,0,,,94,101
72240,note_on,120,0,1,,,,,,,,,0,,,98,0
72240,note_on,240,0,3,,,,,,,,,2,,,58,0
72360,note_on,0,0,1,,,,,,,,,0,,,91,101
72360,note_on,120,0,1,,,,,,,,,0,,,94,0
72480,note_on,240,0,3,,,,,,,,,2,,,58,75
72480,note_on,0,0,1,,,,,,,,,0,,,88,101
72480,note_on,0,0,3,,,,,,,,,2,,,67,75
72480,note_on,0,0,3,,,,,,,,,2,,,62,75
72480,note_on,120,0,1,,,,,,,,,0,,,91,0
72600,note_on,0,0,1,,,,,,,,,0,,,86,101
72600,note_on,120,0,1,,,,,,,,,0,,,88,0
72720,note_on,240,0,3,,,,,,,,,2,,,67,0
72720,note_on,0,0,3,,,,,,,,,2,,,62,0
72720,note_on,0,0,3,,,,,,,,,2,,,58,0
72720,note_on,120,0,1,,,,,,,,,0,,,86,0
72720,note_on,0,0,1,,,,,,,,,0,,,82,101
72840,note_on,0,0,1,,,,,,,,,0,,,79,101
72840,note_on,120,0,1,,,,,,,,,0,,,82,0
72960,note_on,0,0,1,,,,,,,,,0,,,77,101
72960,note_on,240,0,3,,,,,,,,,2,,,48,75
72960,note_on,120,0,1,,,,,,,,,0,,,79,0
72960,note_on,0,0,3,,,,,,,,,2,,,60,75
73080,note_on,120,0,1,,,,,,,,,0,,,77,0
73080,note_on,0,0,1,,,,,,,,,0,,,76,101
73200,note_on,0,0,1,,,,,,,,,0,,,77,101
73200,note_on,240,0,3,,,,,,,,,2,,,60,0
73200,note_on,0,0,3,,,,,,,,,2,,,48,0
73200,note_on,120,0,1,,,,,,,,,0,,,76,0
73320,note_on,120,0,1,,,,,,,,,0,,,77,0
73320,note_on,0,0,1,,,,,,,,,0,,,79,101
73440,note_on,240,0,3,,,,,,,,,2,,,60,62
73440,note_on,120,0,1,,,,,,,,,0,,,79,0
73440,note_on,0,0,1,,,,,,,,,0,,,81,88
73440,note_on,0,0,3,,,,,,,,,2,,,69,62
73440,note_on,0,0,3,,,,,,,,,2,,,65,62
73560,note_on,0,0,1,,,,,,,,,0,,,82,88
73560,note_on,120,0,1,,,,,,,,,0,,,81,0
73680,note_on,0,0,1,,,,,,,,,0,,,83,88
73680,note_on,120,0,1,,,,,,,,,0,,,82,0
73680,note_on,0,0,3,,,,,,,,,2,,,60,0
73680,note_on,0,0,3,,,,,,,,,2,,,65,0
73680,note_on,240,0,3,,,,,,,,,2,,,69,0
73800,note_on,120,0,1,,,,,,,,,0,,,83,0
73800,note_on,0,0,1,,,,,,,,,0,,,84,88
73920,note_on,120,0,1,,,,,,,,,0,,,84,0
73920,note_on,0,0,3,,,,,,,,,2,,,48,62
73920,note_on,0,0,1,,,,,,,,,0,,,86,88
73920,note_on,240,0,3,,,,,,,,,2,,,36,62
74040,note_on,0,0,1,,,,,,,,,0,,,84,88
74040,note_on,120,0,1,,,,,,,,,0,,,86,0
74160,note_on,0,0,1,,,,,,,,,0,,,82,88
74160,note_on,120,0,1,,,,,,,,,0,,,84,0
74160,note_on,240,0,3,,,,,,,,,2,,,48,0
74160,note_on,0,0,3,,,,,,,,,2,,,36,0
74280,note_on,0,0,1,,,,,,,,,0,,,79,88
74280,note_on,120,0,1,,,,,,,,,0,,,82,0
74400,note_on,0,0,3,,,,,,,,,2,,,58,49
74400,note_on,0,0,3,,,,,,,,,2,,,52,49
74400,note_on,240,0,3,,,,,,,,,2,,,48,49
74400,note_on,0,0,1,,,,,,,,,0,,,76,62
74400,note_on,120,0,1,,,,,,,,,0,,,79,0
74520,note_on,0,0,1,,,,,,,,,0,,,72,62
74520,note_on,120,0,1,,,,,,,,,0,,,76,0
74640,note_on,0,0,3,,,,,,,,,2,,,48,0
74640,note_on,0,0,1,,,,,,,,,0,,,70,62
74640,note_on,120,0,1,,,,,,,,,0,,,72,0
74640,note_on,0,0,3,,,,,,,,,2,,,52,0
74640,note_on,240,0,3,,,,,,,,,2,,,58,0
74760,note_on,120,0,1,,,,,,,,,0,,,70,0
74760,note_on,0,0,1,,,,,,,,,0,,,67,62
74880,note_on,0,0,1,,,,,,,,,0,,,65,62
74880,note_on,120,0,1,,,,,,,,,0,,,67,0
75000,note_on,3000,0,2,,,,,,,,,1,,,56,49
75120,note_on,120,0,2,,,,,,,,,1,,,56,0
75120,note_on,0,0,2,,,,,,,,,1,,,57,49
75240,note_on,360,0,1,,,,,,,,,0,,,65,0
75240,note_on,0,0,1,,,,,,,,,0,,,60,62
75360,note_on,0,0,1,,,,,,,,,0,,,65,62
75360,note_on,120,0,1,,,,,,,,,0,,,60,0
75360,note_on,0,0,3,,,,,,,,,2,,,53,88
75360,note_on,240,0,2,,,,,,,,,1,,,57,0
75360,control_change,720,0,3,,,,,,,,,2,64,127,,
75480,note_on,120,0,2,,,,,,,,,1,,,56,49
75600,note_on,120,0,2,,,,,,,,,1,,,56,0
75600,note_on,0,0,2,,,,,,,,,1,,,57,49
75720,note_on,360,0,1,,,,,,,,,0,,,65,0
75720,note_on,0,0,1,,,,,,,,,0,,,60,62
75840,note_on,240,0,2,,,,,,,,,1,,,57,0
75840,note_on,0,0,1,,,,,,,,,0,,,65,62
75840,note_on,120,0,1,,,,,,,,,0,,,60,0
75960,note_on,120,0,2,,,,,,,,,1,,,56,49
76080,note_on,0,0,3,,,,,,,,,2,,,52,62
76080,note_on,720,0,3,,,,,,,,,2,,,53,0
76080,note_on,0,0,2,,,,,,,,,1,,,57,49
76080,note_on,120,0,2,,,,,,,,,1,,,56,0
76200,note_on,360,0,1,,,,,,,,,0,,,65,0
76200,note_on,0,0,1,,,,,,,,,0,,,60,62
76320,note_on,0,0,3,,,,,,,,,2,,,50,62
76320,note_on,240,0,3,,,,,,,,,2,,,52,0
76320,note_on,120,0,1,,,,,,,,,0,,,60,0
76320,note_on,240,0,2,,,,,,,,,1,,,57,0
76320,note_on,0,0,1,,,,,,,,,0,,,65,62
76440,note_on,120,0,2,,,,,,,,,1,,,56,49
76560,note_on,0,0,2,,,,,,,,,1,,,57,49
76560,note_on,0,0,3,,,,,,,,,2,,,48,62
76560,note_on,120,0,2,,,,,,,,,1,,,56,0
76560,control_change,0,0,3,,,,,,,,,2,64,0,,
76560,note_on,240,0,3,,,,,,,,,2,,,50,0
76680,note_on,0,0,1,,,,,,,,,0,,,60,62
76680,note_on,360,0,1,,,,,,,,,0,,,65,0
76800,note_on,0,0,1,,,,,,,,,0,,,65,62
76800,note_on,0,0,3,,,,,,,,,2,,,47,62
76800,note_on,120,0,1,,,,,,,,,0,,,60,0
76800,note_on,240,0,2,,,,,,,,,1,,,57,0
76800,note_on,240,0,3,,,,,,,,,2,,,48,0
76920,note_on,120,0,2,,,,,,,,,1,,,56,49
77040,note_on,120,0,2,,,,,,,,,1,,,56,0
77040,note_on,0,0,2,,,,,,,,,1,,,57,49
77040,note_on,0,0,3,,,,,,,,,2,,,48,62
77040,note_on,240,0,3,,,,,,,,,2,,,47,0
77160,note_on,0,0,1,,,,,,,,,0,,,60,62
77160,note_on,360,0,1,,,,,,,,,0,,,65,0
77280,note_on,120,0,1,,,,,,,,,0,,,60,0
77280,note_on,0,0,1,,,,,,,,,0,,,65,62
77280,note_on,0,0,3,,,,,,,,,2,,,50,75
77280,note_on,240,0,2,,,,,,,,,1,,,57,0
77280,note_on,240,0,3,,,,,,,,,2,,,48,0
77400,note_on,120,0,2,,,,,,,,,1,,,56,49
77520,note_on,0,0,2,,,,,,,,,1,,,57,49
77520,note_on,120,0,2,,,,,,,,,1,,,56,0
77520,note_on,240,0,3,,,,,,,,,2,,,50,0
77520,note_on,0,0,3,,,,,,,,,2,,,48,75
77640,note_on,0,0,1,,,,,,,,,0,,,60,62
77640,note_on,360,0,1,,,,,,,,,0,,,65,0
77760,note_on,0,0,3,,,,,,,,,2,,,46,75
77760,note_on,120,0,1,,,,,,,,,0,,,60,0
77760,note_on,240,0,2,,,,,,,,,1,,,57,0
77760,note_on,240,0,3,,,,,,,,,2,,,48,0
77760,note_on,0,0,1,,,,,,,,,0,,,65,62
77880,note_on,120,0,2,,,,,,,,,1,,,56,49
78000,note_on,120,0,2,,,,,,,,,1,,,56,0
78000,note_on,0,0,3,,,,,,,,,2,,,45,75
78000,note_on,240,0,3,,,,,,,,,2,,,46,0
78000,note_on,0,0,2,,,,,,,,,1,,,57,49
78120,note_on,360,0,1,,,,,,,,,0,,,65,0
78120,note_on,0,0,1,,,,,,,,,0,,,60,62
78240,note_on,0,0,1,,,,,,,,,0,,,65,62
78240,note_on,240,0,2,,,,,,,,,1,,,57,0
78240,note_on,240,0,3,,,,,,,,,2,,,45,0
78240,note_on,120,0,1,,,,,,,,,0,,,60,0
78240,note_on,0,0,3,,,,,,,,,2,,,43,62
78360,note_on,120,0,2,,,,,,,,,1,,,56,49
78480,note_on,0,0,3,,,,,,,,,2,,,41,62
78480,note_on,120,0,2,,,,,,,,,1,,,56,0
78480,note_on,0,0,2,,,,,,,,,1,,,57,49
78480,note_on,240,0,3,,,,,,,,,2,,,43,0
78600,note_on,0,0,1,,,,,,,,,0,,,60,62
78600,note_on,360,0,1,,,,,,,,,0,,,65,0
78720,control_change,57360,0,4,,,,,,,,,3,64,127,,
78720,note_on,0,0,1,,,,,,,,,0,,,64,62
78720,control_change,0,0,2,,,,,,,,,1,64,127,,
78720,note_on,240,0,3,,,,,,,,,2,,,41,0
78720,control_change,0,0,1,,,,,,,,,0,64,127,,
78720,note_on,0,0,3,,,,,,,,,2,,,36,62
78720,note_on,120,0,1,,,,,,,,,0,,,60,0
78720,note_on,240,0,2,,,,,,,,,1,,,57,0
78840,note_on,120,0,2,,,,,,,,,1,,,57,49
78960,note_on,0,0,2,,,,,,,,,1,,,58,49
78960,note_on,120,0,2,,,,,,,,,1,,,57,0
79080,note_on,360,0,1,,,,,,,,,0,,,64,0
79080,note_on,0,0,1,,,,,,,,,0,,,60,62
79200,note_on,0,0,4,,,,,,,,,3,,,82,62
79200,note_on,240,0,2,,,,,,,,,1,,,58,0
79200,note_on,480,0,4,,,,,,,,,3,,,79,62
79200,note_on,0,0,1,,,,,,,,,0,,,64,62
79200,note_on,120,0,1,,,,,,,,,0,,,60,0
79320,note_on,120,0,2,,,,,,,,,1,,,57,49
79440,note_on,0,0,2,,,,,,,,,1,,,58,49
79440,note_on,120,0,2,,,,,,,,,1,,,57,0
79560,note_on,360,0,1,,,,,,,,,0,,,64,0
79560,note_on,0,0,1,,,,,,,,,0,,,60,62
79680,note_on,240,0,2,,,,,,,,,1,,,58,0
79680,note_on,0,0,1,,,,,,,,,0,,,64,62
79680,note_on,120,0,1,,,,,,,,,0,,,60,0
79800,note_on,120,0,2,,,,,,,,,1,,,57,49
79920,note_on,120,0,2,,,,,,,,,1,,,57,0
79920,note_on,0,0,2,,,,,,,,,1,,,58,49
80040,note_on,0,0,1,,,,,,,,,0,,,60,62
80040,note_on,360,0,1,,,,,,,,,0,,,64,0
80160,note_on,960,0,4,,,,,,,,,3,,,82,0
80160,note_on,120,0,1,,,,,,,,,0,,,60,0
80160,note_on,240,0,2,,,,,,,,,1,,,58,0
80160,note_on,0,0,4,,,,,,,,,3,,,76,62
80160,note_on,0,0,4,,,,,,,,,3,,,79,62
80160,note_on,0,0,4,,,,,,,,,3,,,79,0
80160,note_on,0,0,1,,,,,,,,,0,,,64,62
80280,note_on,120,0,2,,,,,,,,,1,,,57,49
80400,note_on,120,0,2,,,,,,,,,1,,,57,0
80400,note_on,0,0,2,,,,,,,,,1,,,58,49
80520,note_on,360,0,1,,,,,,,,,0,,,64,0
80520,note_on,0,0,1,,,,,,,,,0,,,60,62
80640,note_on,120,0,1,,,,,,,,,0,,,60,0
80640,note_on,240,0,2,,,,,,,,,1,,,58,0
80640,note_on,0,0,4,,,,,,,,,3,,,76,0
80640,note_on,0,0,3,,,,,,,,,2,,,36,62
80640,note_on,480,0,4,,,,,,,,,3,,,79,0
80640,note_on,0,0,1,,,,,,,,,0,,,64,62
80640,control_change,0,0,4,,,,,,,,,3,64,127,,
80640,control_change,0,0,2,,,,,,,,,1,64,127,,
80640,note_on,1920,0,3,,,,,,,,,2,,,36,0
80640,control_change,0,0,1,,,,,,,,,0,64,127,,
80760,note_on,120,0,2,,,,,,,,,1,,,57,49
80880,note_on,120,0,2,,,,,,,,,1,,,57,0
80880,note_on,0,0,2,,,,,,,,,1,,,58,49
81000,note_on,360,0,1,,,,,,,,,0,,,64,0
81000,note_on,0,0,1,,,,,,,,,0,,,60,62
81120,note_on,0,0,1,,,,,,,,,0,,,64,62
81120,note_on,120,0,1,,,,,,,,,0,,,60,0
81120,note_on,240,0,2,,,,,,,,,1,,,58,0
81120,note_on,480,0,4,,,,,,,,,3,,,79,62
81120,note_on,0,0,4,,,,,,,,,3,,,82,62
81240,note_on,120,0,2,,,,,,,,,1,,,57,49
81360,note_on,120,0,2,,,,,,,,,1,,,57,0
81360,note_on,0,0,2,,,,,,,,,1,,,58,49
81480,note_on,0,0,1,,,,,,,,,0,,,60,62
81480,note_on,360,0,1,,,,,,,,,0,,,64,0
81600,note_on,120,0,1,,,,,,,,,0,,,60,0
81600,note_on,240,0,2,,,,,,,,,1,,,58,0
81600,note_on,0,0,1,,,,,,,,,0,,,64,62
81720,note_on,120,0,2,,,,,,,,,1,,,57,49
81840,note_on,120,0,2,,,,,,,,,1,,,57,0
81840,note_on,0,0,2,,,,,,,,,1,,,58,49
81960,note_on,0,0,1,,,,,,,,,0,,,60,62
81960,note_on,360,0,1,,,,,,,,,0,,,64,0
82080,note_on,0,0,4,,,,,,,,,3,,,79,62
82080,note_on,0,0,4,,,,,,,,,3,,,79,0
82080,note_on,0,0,1,,,,,,,,,0,,,64,62
82080,note_on,240,0,2,,,,,,,,,1,,,58,0
82080,control_change,0,0,4,,,,,,,,,3,64,0,,
82080,note_on,960,0,4,,,,,,,,,3,,,82,0
82080,note_on,0,0,4,,,,,,,,,3,,,76,62
82080,note_on,120,0,1,,,,,,,,,0,,,60,0
82200,note_on,120,0,2,,,,,,,,,1,,,57,49
82320,note_on,120,0,2,,,,,,,,,1,,,57,0
82320,note_on,0,0,2,,,,,,,,,1,,,58,49
82320,control_change,0,0,2,,,,,,,,,1,64,0,,
82440,control_change,0,0,1,,,,,,,,,0,64,0,,
82440,note_on,360,0,1,,,,,,,,,0,,,64,0
82440,note_on,0,0,1,,,,,,,,,0,,,60,62
82560,note_on,0,0,4,,,,,,,,,3,,,76,0
82560,note_on,480,0,4,,,,,,,,,3,,,79,0
82560,note_on,0,0,1,,,,,,,,,0,,,65,62
82560,note_on,120,0,1,,,,,,,,,0,,,60,0
82560,note_on,240,0,2,,,,,,,,,1,,,58,0
82560,note_on,1920,0,3,,,,,,,,,2,,,36,0
82680,note_on,120,0,2,,,,,,,,,1,,,56,49
82800,note_on,0,0,2,,,,,,,,,1,,,57,49
82800,note_on,120,0,2,,,,,,,,,1,,,56,0
82920,note_on,0,0,1,,,,,,,,,0,,,60,62
82920,note_on,360,0,1,,,,,,,,,0,,,65,0
83040,note_on,480,0,3,,,,,,,,,2,,,53,88
83040,note_on,0,0,1,,,,,,,,,0,,,65,62
83040,note_on,120,0,1,,,,,,,,,0,,,60,0
83040,note_on,240,0,2,,,,,,,,,1,,,57,0
83160,note_on,120,0,2,,,,,,,,,1,,,56,49
83280,note_on,120,0,2,,,,,,,,,1,,,56,0
83280,note_on,0,0,2,,,,,,,,,1,,,57,49
83400,note_on,0,0,1,,,,,,,,,0,,,60,62
83400,note_on,360,0,1,,,,,,,,,0,,,65,0
83520,note_on,0,0,1,,,,,,,,,0,,,65,62
83520,note_on,240,0,2,,,,,,,,,1,,,57,0
83520,note_on,120,0,1,,,,,,,,,0,,,60,0
83640,note_on,120,0,2,,,,,,,,,1,,,56,49
83760,note_on,0,0,2,,,,,,,,,1,,,57,49
83760,note_on,720,0,3,,,,,,,,,2,,,53,0
83760,note_on,0,0,3,,,,,,,,,2,,,52,62
83760,note_on,120,0,2,,,,,,,,,1,,,56,0
83880,note_on,360,0,1,,,,,,,,,0,,,65,0
83880,note_on,0,0,1,,,,,,,,,0,,,60,62
84000,note_on,0,0,3,,,,,,,,,2,,,50,62
84000,note_on,240,0,3,,,,,,,,,2,,,52,0
84000,note_on,0,0,1,,,,,,,,,0,,,65,62
84000,note_on,240,0,2,,,,,,,,,1,,,57,0
84000,note_on,120,0,1,,,,,,,,,0,,,60,0
84120,note_on,120,0,2,,,,,,,,,1,,,56,49
84240,note_on,0,0,2,,,,,,,,,1,,,57,49
84240,note_on,0,0,3,,,,,,,,,2,,,48,62
84240,note_on,120,0,2,,,,,,,,,1,,,56,0
84240,note_on,240,0,3,,,,,,,,,2,,,50,0
84360,note_on,360,0,1,,,,,,,,,0,,,65,0
84360,note_on,0,0,1,,,,,,,,,0,,,60,62
84480,note_on,240,0,3,,,,,,,,,2,,,48,0
84480,note_on,0,0,1,,,,,,,,,0,,,65,62
84480,note_on,120,0,1,,,,,,,,,0,,,60,0
84480,note_on,0,0,3,,,,,,,,,2,,,47,62
84480,note_on,240,0,2,,,,,,,,,1,,,57,0
84600,note_on,120,0,2,,,,,,,,,1,,,56,49
84720,note_on,0,0,2,,,,,,,,,1,,,57,49
84720,note_on,240,0,3,,,,,,,,,2,,,47,0
84720,note_on,0,0,3,,,,,,,,,2,,,48,62
84720,note_on,120,0,2,,,,,,,,,1,,,56,0
84840,note_on,0,0,1,,,,,,,,,0,,,60,62
84840,note_on,360,0,1,,,,,,,,,0,,,65,0
84960,note_on,0,0,3,,,,,,,,,2,,,50,75
84960,note_on,120,0,1,,,,,,,,,0,,,60,0
84960,note_on,240,0,3,,,,,,,,,2,,,48,0
84960,note_on,240,0,2,,,,,,,,,1,,,57,0
84960,note_on,0,0,1,,,,,,,,,0,,,65,62
85080,note_on,120,0,2,,,,,,,,,1,,,56,49
85200,note_on,0,0,3,,,,,,,,,2,,,48,75
85200,note_on,240,0,3,,,,,,,,,2,,,50,0
85200,note_on,120,0,2,,,,,,,,,1,,,56,0
85200,note_on,0,0,2,,,,,,,,,1,,,57,49
85320,note_on,0,0,1,,,,,,,,,0,,,60,62
85320,note_on,360,0,1,,,,,,,,,0,,,65,0
85440,note_on,0,0,3,,,,,,,,,2,,,46,75
85440,note_on,120,0,1,,,,,,,,,0,,,60,0
85440,note_on,240,0,3,,,,,,,,,2,,,48,0
85440,note_on,240,0,2,,,,,,,,,1,,,57,0
85440,note_on,0,0,1,,,,,,,,,0,,,65,62
85560,note_on,120,0,2,,,,,,,,,1,,,56,49
85680,note_on,240,0,3,,,,,,,,,2,,,46,0
85680,note_on,0,0,3,,,,,,,,,2,,,45,75
85680,note_on,0,0,2,,,,,,,,,1,,,57,49
85680,note_on,120,0,2,,,,,,,,,1,,,56,0
85800,note_on,360,0,1,,,,,,,,,0,,,65,0
85800,note_on,0,0,1,,,,,,,,,0,,,60,62
85920,note_on,240,0,2,,,,,,,,,1,,,57,0
85920,note_on,0,0,1,,,,,,,,,0,,,65,62
85920,note_on,120,0,1,,,,,,,,,0,,,60,0
85920,note_on,240,0,3,,,,,,,,,2,,,45,0
85920,note_on,0,0,3,,,,,,,,,2,,,43,62
86040,note_on,120,0,2,,,,,,,,,1,,,56,49
86160,note_on,0,0,2,,,,,,,,,1,,,57,49
86160,note_on,0,0,3,,,,,,,,,2,,,41,62
86160,note_on,120,0,2,,,,,,,,,1,,,56,0
86160,note_on,240,0,3,,,,,,,,,2,,,43,0
86280,note_on,0,0,1,,,,,,,,,0,,,60,62
86280,note_on,360,0,1,,,,,,,,,0,,,65,0
86400,control_change,3840,0,4,,,,,,,,,3,64,127,,
86400,note_on,0,0,3,,,,,,,,,2,,,36,62
86400,note_on,240,0,3,,,,,,,,,2,,,41,0
86400,note_on,0,0,1,,,,,,,,,0,,,64,62
86400,control_change,0,0,2,,,,,,,,,1,64,127,,
86400,control_change,0,0,1,,,,,,,,,0,64,127,,
86400,note_on,120,0,1,,,,,,,,,0,,,60,0
86400,note_on,240,0,2,,,,,,,,,1,,,57,0
86520,note_on,120,0,2,,,,,,,,,1,,,57,49
86640,note_on,120,0,2,,,,,,,,,1,,,57,0
86640,note_on,0,0,2,,,,,,,,,1,,,58,49
86760,note_on,360,0,1,,,,,,,,,0,,,64,0
86760,note_on,0,0,1,,,,,,,,,0,,,60,62
86880,note_on,0,0,4,,,,,,,,,3,,,82,62
86880,note_on,120,0,1,,,,,,,,,0,,,60,0
86880,note_on,240,0,2,,,,,,,,,1,,,58,0
86880,note_on,0,0,1,,,,,,,,,0,,,64,62
86880,note_on,480,0,4,,,,,,,,,3,,,79,62
87000,note_on,120,0,2,,,,,,,,,1,,,57,49
87120,note_on,120,0,2,,,,,,,,,1,,,57,0
87120,note_on,0,0,2,,,,,,,,,1,,,58,49
87240,note_on,360,0,1,,,,,,,,,0,,,64,0
87240,note_on,0,0,1,,,,,,,,,0,,,60,62
87360,note_on,0,0,1,,,,,,,,,0,,,64,62
87360,note_on,120,0,1,,,,,,,,,0,,,60,0
87360,note_on,240,0,2,,,,,,,,,1,,,58,0
87480,note_on,120,0,2,,,,,,,,,1,,,57,49
87600,note_on,0,0,2,,,,,,,,,1,,,58,49
87600,note_on,120,0,2,,,,,,,,,1,,,57,0
87720,note_on,0,0,1,,,,,,,,,0,,,60,62
87720,note_on,360,0,1,,,,,,,,,0,,,64,0
87840,note_on,0,0,1,,,,,,,,,0,,,64,62
87840,note_on,240,0,2,,,,,,,,,1,,,58,0
87840,note_on,0,0,4,,,,,,,,,3,,,79,62
87840,note_on,0,0,4,,,,,,,,,3,,,79,0
87840,note_on,0,0,4,,,,,,,,,3,,,76,62
87840,note_on,960,0,4,,,,,,,,,3,,,82,0
87840,note_on,120,0,1,,,,,,,,,0,,,60,0
87960,note_on,120,0,2,,,,,,,,,1,,,57,49
88080,note_on,120,0,2,,,,,,,,,1,,,57,0
88080,note_on,0,0,2,,,,,,,,,1,,,58,49
88200,note_on,0,0,1,,,,,,,,,0,,,60,62
88200,note_on,360,0,1,,,,,,,,,0,,,64,0
88320,note_on,0,0,3,,,,,,,,,2,,,36,62
88320,note_on,1920,0,3,,,,,,,,,2,,,36,0
88320,control_change,0,0,1,,,,,,,,,0,64,127,,
88320,note_on,0,0,4,,,,,,,,,3,,,76,0
88320,control_change,0,0,4,,,,,,,,,3,64,127,,
88320,control_change,0,0,2,,,,,,,,,1,64,127,,
88320,note_on,240,0,2,,,,,,,,,1,,,58,0
88320,note_on,120,0,1,,,,,,,,,0,,,60,0
88320,note_on,480,0,4,,,,,,,,,3,,,79,0
88320,note_on,0,0,1,,,,,,,,,0,,,64,62
88440,note_on,120,0,2,,,,,,,,,1,,,57,49
88560,note_on,0,0,2,,,,,,,,,1,,,58,49
88560,note_on,120,0,2,,,,,,,,,1,,,57,0
88680,note_on,360,0,1,,,,,,,,,0,,,64,0
88680,note_on,0,0,1,,,,,,,,,0,,,60,62
88800,note_on,480,0,4,,,,,,,,,3,,,79,62
88800,note_on,240,0,2,,,,,,,,,1,,,58,0
88800,note_on,120,0,1,,,,,,,,,0,,,60,0
88800,note_on,0,0,1,,,,,,,,,0,,,64,62
88800,note_on,0,0,4,,,,,,,,,3,,,82,62
88920,note_on,120,0,2,,,,,,,,,1,,,57,49
89040,note_on,0,0,2,,,,,,,,,1,,,58,49
89040,note_on,120,0,2,,,,,,,,,1,,,57,0
89160,note_on,360,0,1,,,,,,,,,0,,,64,0
89160,note_on,0,0,1,,,,,,,,,0,,,60,62
89280,note_on,240,0,2,,,,,,,,,1,,,58,0
89280,note_on,0,0,1,,,,,,,,,0,,,64,62
89280,note_on,120,0,1,,,,,,,,,0,,,60,0
89400,note_on,120,0,2,,,,,,,,,1,,,57,49
89520,note_on,120,0,2,,,,,,,,,1,,,57,0
89520,note_on,0,0,2,,,,,,,,,1,,,58,49
89640,note_on,0,0,1,,,,,,,,,0,,,60,62
89640,note_on,360,0,1,,,,,,,,,0,,,64,0
89760,note_on,0,0,4,,,,,,,,,3,,,79,0
89760,note_on,240,0,2,,,,,,,,,1,,,58,0
89760,note_on,0,0,1,,,,,,,,,0,,,64,62
89760,note_on,960,0,4,,,,,,,,,3,,,82,0
89760,note_on,0,0,4,,,,,,,,,3,,,76,62
89760,control_change,0,0,4,,,,,,,,,3,64,0,,
89760,note_on,120,0,1,,,,,,,,,0,,,60,0
89760,note_on,0,0,4,,,,,,,,,3,,,79,62
89880,note_on,120,0,2,,,,,,,,,1,,,57,49
90000,note_on,120,0,2,,,,,,,,,1,,,57,0
90000,note_on,0,0,2,,,,,,,,,1,,,58,49
90000,control_change,0,0,2,,,,,,,,,1,64,0,,
90120,control_change,0,0,1,,,,,,,,,0,64,0,,
90120,note_on,0,0,1,,,,,,,,,0,,,60,62
90120,note_on,360,0,1,,,,,,,,,0,,,64,0
90240,note_on,0,0,3,,,,,,,,,2,,,41,62
90240,note_on,0,0,1,,,,,,,,,0,,,65,62
90240,note_on,480,0,4,,,,,,,,,3,,,79,0
90240,note_on,0,0,3,,,,,,,,,2,,,53,62
90240,note_on,1920,0,3,,,,,,,,,2,,,36,0
90240,note_on,0,0,4,,,,,,,,,3,,,76,0
90240,note_on,240,0,2,,,,,,,,,1,,,58,0
90240,note_on,120,0,1,,,,,,,,,0,,,60,0
90360,note_on,120,0,2,,,,,,,,,1,,,56,49
90480,note_on,120,0,2,,,,,,,,,1,,,56,0
90480,note_on,0,0,2,,,,,,,,,1,,,57,49
90600,note_on,360,0,1,,,,,,,,,0,,,65,0
90600,note_on,0,0,1,,,,,,,,,0,,,60,62
90720,note_on,240,0,2,,,,,,,,,1,,,57,0
90720,note_on,120,0,1,,,,,,,,,0,,,60,0
90720,note_on,0,0,1,,,,,,,,,0,,,65,62
90840,note_on,120,0,2,,,,,,,,,1,,,56,49
90960,note_on,0,0,2,,,,,,,,,1,,,57,49
90960,note_on,120,0,2,,,,,,,,,1,,,56,0
91080,note_on,0,0,1,,,,,,,,,0,,,60,62
91080,note_on,360,0,1,,,,,,,,,0,,,65,0
91200,note_on,0,0,3,,,,,,,,,2,,,41,0
91200,note_on,0,0,1,,,,,,,,,0,,,65,75
91200,note_on,0,0,3,,,,,,,,,2,,,51,75
91200,note_on,120,0,1,,,,,,,,,0,,,60,0
91200,note_on,0,0,3,,,,,,,,,2,,,39,75
91200,note_on,240,0,2,,,,,,,,,1,,,57,0
91200,note_on,960,0,3,,,,,,,,,2,,,53,0
91320,note_on,120,0,2,,,,,,,,,1,,,56,62
91440,note_on,0,0,2,,,,,,,,,1,,,57,62
91440,note_on,120,0,2,,,,,,,,,1,,,56,0
91560,note_on,360,0,1,,,,,,,,,0,,,65,0
91560,note_on,0,0,1,,,,,,,,,0,,,60,75
91680,note_on,0,0,1,,,,,,,,,0,,,65,75
91680,note_on,120,0,1,,,,,,,,,0,,,60,0
91680,note_on,240,0,2,,,,,,,,,1,,,57,0
91800,note_on,120,0,2,,,,,,,,,1,,,56,62
91920,note_on,0,0,2,,,,,,,,,1,,,57,62
91920,note_on,120,0,2,,,,,,,,,1,,,56,0
92040,note_on,360,0,1,,,,,,,,,0,,,65,0
92040,note_on,0,0,1,,,,,,,,,0,,,60,75
92160,note_on,120,0,1,,,,,,,,,0,,,60,0
92160,note_on,240,0,2,,,,,,,,,1,,,57,0
92160,note_on,0,0,1,,,,,,,,,0,,,66,88
92160,note_on,960,0,3,,,,,,,,,2,,,51,0
92160,note_on,0,0,3,,,,,,,,,2,,,50,88
92160,note_on,0,0,3,,,,,,,,,2,,,38,88
92160,note_on,0,0,3,,,,,,,,,2,,,39,0
92280,note_on,120,0,2,,,,,,,,,1,,,56,75
92400,note_on,120,0,2,,,,,,,,,1,,,56,0
92400,note_on,0,0,2,,,,,,,,,1,,,57,75
92520,note_on,360,0,1,,,,,,,,,0,,,66,0
92520,note_on,0,0,1,,,,,,,,,0,,,60,88
92640,note_on,0,0,1,,,,,,,,,0,,,66,88
92640,note_on,240,0,2,,,,,,,,,1,,,57,0
92640,note_on,120,0,1,,,,,,,,,0,,,60,0
92760,note_on,120,0,2,,,,,,,,,1,,,56,75
92880,note_on,120,0,2,,,,,,,,,1,,,56,0
92880,note_on,0,0,2,,,,,,,,,1,,,57,75
93000,note_on,360,0,1,,,,,,,,,0,,,66,0
93000,note_on,0,0,1,,,,,,,,,0,,,60,88
93120,note_on,120,0,1,,,,,,,,,0,,,60,0
93120,note_on,0,0,1,,,,,,,,,0,,,66,75
93120,note_on,240,0,2,,,,,,,,,1,,,57,0
93240,note_on,120,0,2,,,,,,,,,1,,,56,62
93360,note_on,120,0,2,,,,,,,,,1,,,56,0
93360,note_on,0,0,2,,,,,,,,,1,,,57,62
93480,note_on,0,0,1,,,,,,,,,0,,,60,75
93480,note_on,360,0,1,,,,,,,,,0,,,66,0
93600,note_on,0,0,1,,,,,,,,,0,,,66,75
93600,note_on,120,0,1,,,,,,,,,0,,,60,0
93600,note_on,240,0,2,,,,,,,,,1,,,57,0
93720,note_on,120,0,2,,,,,,,,,1,,,56,62
93840,note_on,120,0,2,,,,,,,,,1,,,56,0
93840,note_on,0,0,2,,,,,,,,,1,,,57,62
93960,note_on,360,0,1,,,,,,,,,0,,,66,0
93960,note_on,0,0,1,,,,,,,,,0,,,60,75
94080,control_change,0,0,1,,,,,,,,,0,64,127,,
94080,control_change,0,0,2,,,,,,,,,1,64,127,,
94080,note_on,0,0,3,,,,,,,,,2,,,49,75
94080,note_on,0,0,3,,,,,,,,,2,,,38,0
94080,note_on,0,0,3,,,,,,,,,2,,,37,75
94080,note_on,1920,0,3,,,,,,,,,2,,,50,0
94080,note_on,240,0,2,,,,,,,,,1,,,57,0
94080,note_on,0,0,1,,,,,,,,,0,,,66,75
94080,note_on,120,0,1,,,,,,,,,0,,,60,0
94200,note_on,120,0,2,,,,,,,,,1,,,56,62
94320,note_on,0,0,2,,,,,,,,,1,,,57,62
94320,note_on,120,0,2,,,,,,,,,1,,,56,0
94440,note_on,360,0,1,,,,,,,,,0,,,66,0
94440,note_on,0,0,1,,,,,,,,,0,,,60,75
94560,note_on,0,0,4,,,,,,,,,3,,,85,75
94560,note_on,120,0,1,,,,,,,,,0,,,60,0
94560,note_on,0,0,1,,,,,,,,,0,,,66,75
94560,note_on,4320,0,4,,,,,,,,,3,,,81,75
94560,note_on,240,0,2,,,,,,,,,1,,,57,0
94680,note_on,120,0,2,,,,,,,,,1,,,56,62
94800,note_on,120,0,2,,,,,,,,,1,,,56,0
94800,note_on,0,0,2,,,,,,,,,1,,,57,62
94920,note_on,0,0,1,,,,,,,,,0,,,60,75
94920,note_on,360,0,1,,,,,,,,,0,,,66,0
95040,note_on,0,0,1,,,,,,,,,0,,,66,75
95040,note_on,240,0,2,,,,,,,,,1,,,57,0
95040,note_on,120,0,1,,,,,,,,,0,,,60,0
95160,note_on,120,0,2,,,,,,,,,1,,,56,62
95280,note_on,0,0,2,,,,,,,,,1,,,57,62
95280,note_on,120,0,2,,,,,,,,,1,,,56,0
95400,note_on,0,0,1,,,,,,,,,0,,,60,75
95400,note_on,360,0,1,,,,,,,,,0,,,66,0
95520,note_on,960,0,4,,,,,,,,,3,,,85,0
95520,note_on,240,0,2,,,,,,,,,1,,,57,0
95520,note_on,0,0,4,,,,,,,,,3,,,81,75
95520,note_on,0,0,4,,,,,,,,,3,,,81,0
95520,note_on,0,0,4,,,,,,,,,3,,,78,75
95520,note_on,0,0,1,,,,,,,,,0,,,66,75
95520,note_on,120,0,1,,,,,,,,,0,,,60,0
95640,note_on,120,0,2,,,,,,,,,1,,,56,62
95760,note_on,120,0,2,,,,,,,,,1,,,56,0
95760,control_change,0,0,2,,,,,,,,,1,64,0,,
95760,note_on,0,0,2,,,,,,,,,1,,,57,62
95880,note_on,360,0,1,,,,,,,,,0,,,66,0
95880,control_change,0,0,1,,,,,,,,,0,64,0,,
95880,note_on,0,0,1,,,,,,,,,0,,,60,75
96000,note_on,0,0,3,,,,,,,,,2,,,37,0
96000,note_on,1920,0,3,,,,,,,,,2,,,49,0
96000,note_on,0,0,1,,,,,,,,,0,,,65,75
96000,note_on,0,0,4,,,,,,,,,3,,,78,0
96000,note_on,0,0,3,,,,,,,,,2,,,49,75
96000,note_on,240,0,2,,,,,,,,,1,,,57,0
96000,note_on,480,0,4,,,,,,,,,3,,,81,0
96000,note_on,120,0,1,,,,,,,,,0,,,60,0
96000,note_on,0,0,3,,,,,,,,,2,,,37,75
96120,note_on,120,0,2,,,,,,,,,1,,,58,62
96240,note_on,0,0,2,,,,,,,,,1,,,59,62
96240,note_on,120,0,2,,,,,,,,,1,,,58,0
96360,note_on,360,0,1,,,,,,,,,0,,,65,0
96360,note_on,0,0,1,,,,,,,,,0,,,61,75
96480,note_on,480,0,4,,,,,,,,,3,,,80,75
96480,note_on,0,0,3,,,,,,,,,2,,,37,0
96480,note_on,120,0,1,,,,,,,,,0,,,61,0
96480,note_on,0,0,4,,,,,,,,,3,,,83,75
96480,note_on,240,0,2,,,,,,,,,1,,,59,0
96480,note_on,0,0,1,,,,,,,,,0,,,65,75
96480,note_on,480,0,3,,,,,,,,,2,,,49,0
96600,note_on,120,0,2,,,,,,,,,1,,,58,62
96720,note_on,0,0,2,,,,,,,,,1,,,59,62
96720,note_on,120,0,2,,,,,,,,,1,,,58,0
96840,note_on,360,0,1,,,,,,,,,0,,,65,0
96840,note_on,0,0,1,,,,,,,,,0,,,61,75
96960,note_on,120,0,1,,,,,,,,,0,,,61,0
96960,note_on,240,0,2,,,,,,,,,1,,,59,0
96960,note_on,0,0,1,,,,,,,,,0,,,65,75
97080,note_on,120,0,2,,,,,,,,,1,,,58,62
97200,note_on,120,0,2,,,,,,,,,1,,,58,0
97200,note_on,0,0,2,,,,,,,,,1,,,59,62
97320,note_on,0,0,1,,,,,,,,,0,,,61,75
97320,note_on,360,0,1,,,,,,,,,0,,,65,0
97440,note_on,0,0,1,,,,,,,,,0,,,65,75
97440,note_on,240,0,2,,,,,,,,,1,,,59,0
97440,note_on,0,0,4,,,,,,,,,3,,,80,75
97440,note_on,960,0,4,,,,,,,,,3,,,83,0
97440,note_on,0,0,4,,,,,,,,,3,,,80,0
97440,note_on,0,0,4,,,,,,,,,3,,,77,75
97440,note_on,120,0,1,,,,,,,,,0,,,61,0
97560,note_on,120,0,2,,,,,,,,,1,,,58,62
97680,note_on,0,0,2,,,,,,,,,1,,,59,62
97680,note_on,120,0,2,,,,,,,,,1,,,58,0
97800,note_on,360,0,1,,,,,,,,,0,,,65,0
97800,note_on,0,0,1,,,,,,,,,0,,,61,75
97920,note_on,240,0,2,,,,,,,,,1,,,59,0
97920,note_on,120,0,1,,,,,,,,,0,,,61,0
97920,note_on,0,0,1,,,,,,,,,0,,,66,75
97920,note_on,0,0,3,,,,,,,,,2,,,49,75
97920,note_on,480,0,4,,,,,,,,,3,,,80,0
97920,note_on,1440,0,3,,,,,,,,,2,,,37,75
97920,control_change,0,0,2,,,,,,,,,1,64,127,,
97920,note_on,0,0,4,,,,,,,,,3,,,77,0
97920,control_change,0,0,1,,,,,,,,,0,64,127,,
98040,note_on,120,0,2,,,,,,,,,1,,,56,62
98160,note_on,0,0,2,,,,,,,,,1,,,57,62
98160,note_on,120,0,2,,,,,,,,,1,,,56,0
98280,note_on,0,0,1,,,,,,,,,0,,,61,75
98280,note_on,360,0,1,,,,,,,,,0,,,66,0
98400,note_on,240,0,2,,,,,,,,,1,,,57,0
98400,note_on,0,0,4,,,,,,,,,3,,,85,75
98400,note_on,0,0,1,,,,,,,,,0,,,66,75
98400,note_on,480,0,4,,,,,,,,,3,,,81,75
98400,note_on,120,0,1,,,,,,,,,0,,,61,0
98520,note_on,120,0,2,,,,,,,,,1,,,56,62
98640,note_on,120,0,2,,,,,,,,,1,,,56,0
98640,note_on,0,0,2,,,,,,,,,1,,,57,62
98760,note_on,360,0,1,,,,,,,,,0,,,66,0
98760,note_on,0,0,1,,,,,,,,,0,,,61,75
98880,note_on,240,0,2,,,,,,,,,1,,,57,0
98880,note_on,0,0,1,,,,,,,,,0,,,66,75
98880,note_on,120,0,1,,,,,,,,,0,,,61,0
99000,note_on,120,0,2,,,,,,,,,1,,,56,62
99120,note_on,120,0,2,,,,,,,,,1,,,56,0
99120,note_on,0,0,2,,,,,,,,,1,,,57,62
99240,note_on,0,0,1,,,,,,,,,0,,,61,75
99240,note_on,360,0,1,,,,,,,,,0,,,66,0
99360,note_on,240,0,2,,,,,,,,,1,,,57,0
99360,note_on,0,0,4,,,,,,,,,3,,,81,0
99360,note_on,0,0,4,,,,,,,,,3,,,81,75
99360,note_on,120,0,1,,,,,,,,,0,,,61,0
99360,note_on,960,0,4,,,,,,,,,3,,,85,0
99360,note_on,0,0,4,,,,,,,,,3,,,78,75
99360,note_on,0,0,1,,,,,,,,,0,,,66,75
99480,note_on,120,0,2,,,,,,,,,1,,,56,62
99600,note_on,120,0,2,,,,,,,,,1,,,56,0
99600,control_change,0,0,2,,,,,,,,,1,64,0,,
99600,note_on,0,0,2,,,,,,,,,1,,,57,62
99720,note_on,0,0,1,,,,,,,,,0,,,61,75
99720,control_change,0,0,1,,,,,,,,,0,64,0,,
99720,note_on,360,0,1,,,,,,,,,0,,,66,0
99840,control_change,0,0,3,,,,,,,,,2,64,127,,
99840,note_on,0,0,1,,,,,,,,,0,,,65,75
99840,note_on,120,0,1,,,,,,,,,0,,,61,0
99840,control_change,0,0,2,,,,,,,,,1,64,127,,
99840,note_on,1920,0,3,,,,,,,,,2,,,49,0
99840,note_on,0,0,4,,,,,,,,,3,,,78,0
99840,control_change,0,0,1,,,,,,,,,0,64,127,,
99840,note_on,240,0,2,,,,,,,,,1,,,57,0
99840,note_on,0,0,3,,,,,,,,,2,,,49,75
99840,note_on,0,0,3,,,,,,,,,2,,,37,75
99840,note_on,0,0,3,,,,,,,,,2,,,37,0
99840,note_on,480,0,4,,,,,,,,,3,,,81,0
99960,note_on,120,0,2,,,,,,,,,1,,,58,62
100080,note_on,120,0,2,,,,,,,,,1,,,58,0
100080,note_on,0,0,2,,,,,,,,,1,,,59,62
100200,note_on,0,0,1,,,,,,,,,0,,,61,75
100200,note_on,360,0,1,,,,,,,,,0,,,65,0
100320,note_on,480,0,4,,,,,,,,,3,,,80,88
100320,note_on,120,0,1,,,,,,,,,0,,,61,0
100320,note_on,480,0,3,,,,,,,,,2,,,49,0
100320,note_on,0,0,3,,,,,,,,,2,,,37,0
100320,note_on,0,0,4,,,,,,,,,3,,,83,88
100320,note_on,240,0,2,,,,,,,,,1,,,59,0
100320,note_on,0,0,1,,,,,,,,,0,,,65,75
100440,note_on,120,0,2,,,,,,,,,1,,,58,62
100560,note_on,0,0,2,,,,,,,,,1,,,59,62
100560,note_on,120,0,2,,,,,,,,,1,,,58,0
100680,note_on,0,0,1,,,,,,,,,0,,,61,75
100680,note_on,360,0,1,,,,,,,,,0,,,65,0
100800,control_change,480,0,3,,,,,,,,,2,64,0,,
100800,note_on,0,0,1,,,,,,,,,0,,,65,88
100800,note_on,240,0,2,,,,,,,,,1,,,59,0
100800,note_on,120,0,1,,,,,,,,,0,,,61,0
100920,note_on,120,0,2,,,,,,,,,1,,,58,75
101040,note_on,0,0,2,,,,,,,,,1,,,59,75
101040,note_on,120,0,2,,,,,,,,,1,,,58,0
101160,note_on,360,0,1,,,,,,,,,0,,,65,0
101160,note_on,0,0,1,,,,,,,,,0,,,61,88
101280,note_on,0,0,4,,,,,,,,,3,,,77,88
101280,note_on,0,0,1,,,,,,,,,0,,,65,88
101280,note_on,960,0,4,,,,,,,,,3,,,83,0
101280,control_change,0,0,4,,,,,,,,,3,64,0,,
101280,note_on,0,0,4,,,,,,,,,3,,,80,0
101280,note_on,240,0,2,,,,,,,,,1,,,59,0
101280,note_on,0,0,4,,,,,,,,,3,,,80,88
101280,note_on,120,0,1,,,,,,,,,0,,,61,0
101400,note_on,120,0,2,,,,,,,,,1,,,58,75
101520,control_change,0,0,2,,,,,,,,,1,64,0,,
101520,note_on,0,0,2,,,,,,,,,1,,,59,75
101520,note_on,120,0,2,,,,,,,,,1,,,58,0
101640,note_on,360,0,1,,,,,,,,,0,,,65,0
101640,control_change,0,0,1,,,,,,,,,0,64,0,,
101640,note_on,0,0,1,,,,,,,,,0,,,61,88
101760,note_on,0,0,1,,,,,,,,,0,,,66,88
101760,note_on,240,0,2,,,,,,,,,1,,,59,0
101760,note_on,480,0,4,,,,,,,,,3,,,80,0
101760,note_on,960,0,3,,,,,,,,,2,,,37,88
101760,note_on,0,0,4,,,,,,,,,3,,,77,0
101760,control_change,0,0,2,,,,,,,,,1,64,127,,
101760,note_on,0,0,3,,,,,,,,,2,,,49,88
101760,note_on,120,0,1,,,,,,,,,0,,,61,0
101880,note_on,120,0,2,,,,,,,,,1,,,56,75
102000,note_on,120,0,2,,,,,,,,,1,,,56,0
102000,note_on,0,0,2,,,,,,,,,1,,,57,75
102120,note_on,0,0,1,,,,,,,,,0,,,61,88
102120,note_on,360,0,1,,,,,,,,,0,,,66,0
102240,note_on,0,0,1,,,,,,,,,0,,,66,88
102240,note_on,120,0,1,,,,,,,,,0,,,61,0
102240,note_on,240,0,2,,,,,,,,,1,,,57,0
102360,note_on,120,0,2,,,,,,,,,1,,,56,75
102480,note_on,0,0,2,,,,,,,,,1,,,57,75
102480,note_on,120,0,2,,,,,,,,,1,,,56,0
102600,note_on,0,0,1,,,,,,,,,0,,,61,88
102600,note_on,360,0,1,,,,,,,,,0,,,66,0
102720,note_on,0,0,1,,,,,,,,,0,,,66,88
102720,note_on,0,0,3,,,,,,,,,2,,,36,88
102720,note_on,0,0,3,,,,,,,,,2,,,37,0
102720,note_on,960,0,3,,,,,,,,,2,,,49,0
102720,note_on,0,0,3,,,,,,,,,2,,,48,88
102720,note_on,240,0,2,,,,,,,,,1,,,57,0
102720,note_on,120,0,1,,,,,,,,,0,,,61,0
102840,note_on,120,0,2,,,,,,,,,1,,,56,75
102960,note_on,0,0,2,,,,,,,,,1,,,57,75
102960,note_on,120,0,2,,,,,,,,,1,,,56,0
103080,note_on,360,0,1,,,,,,,,,0,,,66,0
103080,note_on,0,0,1,,,,,,,,,0,,,62,88
103200,note_on,240,0,2,,,,,,,,,1,,,57,0
103200,note_on,0,0,1,,,,,,,,,0,,,66,88
103200,note_on,120,0,1,,,,,,,,,0,,,62,0
103320,note_on,120,0,2,,,,,,,,,1,,,56,75
103440,note_on,120,0,2,,,,,,,,,1,,,56,0
103440,control_change,0,0,2,,,,,,,,,1,64,0,,
103440,note_on,0,0,2,,,,,,,,,1,,,57,75
103560,note_on,360,0,1,,,,,,,,,0,,,66,0
103560,control_change,0,0,1,,,,,,,,,0,64,0,,
103560,note_on,0,0,1,,,,,,,,,0,,,62,88
103680,note_on,240,0,2,,,,,,,,,1,,,57,0
103680,note_on,0,0,3,,,,,,,,,2,,,47,88
103680,note_on,120,0,1,,,,,,,,,0,,,62,0
103680,note_on,0,0,1,,,,,,,,,0,,,66,88
103680,note_on,0,0,3,,,,,,,,,2,,,35,88
103680,note_on,0,0,3,,,,,,,,,2,,,36,0
103680,note_on,960,0,3,,,,,,,,,2,,,48,0
103800,note_on,120,0,2,,,,,,,,,1,,,56,75
103920,note_on,0,0,2,,,,,,,,,1,,,57,75
103920,note_on,120,0,2,,,,,,,,,1,,,56,0
104040,note_on,0,0,1,,,,,,,,,0,,,63,88
104040,note_on,360,0,1,,,,,,,,,0,,,66,0
104160,note_on,240,0,2,,,,,,,,,1,,,57,0
104160,note_on,0,0,1,,,,,,,,,0,,,66,88
104160,note_on,0,0,3,,,,,,,,,2,,,35,0
104160,note_on,120,0,1,,,,,,,,,0,,,63,0
104160,note_on,0,0,4,,,,,,,,,3,,,81,88
104160,note_on,2400,0,4,,,,,,,,,3,,,78,88
104160,note_on,480,0,3,,,,,,,,,2,,,47,0
104280,note_on,120,0,2,,,,,,,,,1,,,56,75
104400,note_on,120,0,2,,,,,,,,,1,,,56,0
104400,note_on,0,0,2,,,,,,,,,1,,,57,75
104520,note_on,360,0,1,,,,,,,,,0,,,66,0
104520,note_on,0,0,1,,,,,,,,,0,,,63,88
104640,note_on,120,0,1,,,,,,,,,0,,,63,0
104640,note_on,240,0,2,,,,,,,,,1,,,57,0
104640,note_on,0,0,1,,,,,,,,,0,,,66,88
104760,note_on,120,0,2,,,,,,,,,1,,,56,75
104880,note_on,120,0,2,,,,,,,,,1,,,56,0
104880,note_on,0,0,2,,,,,,,,,1,,,57,75
105000,note_on,360,0,1,,,,,,,,,0,,,66,0
105000,note_on,0,0,1,,,,,,,,,0,,,63,88
105120,note_on,240,0,2,,,,,,,,,1,,,57,0
105120,note_on,120,0,1,,,,,,,,,0,,,63,0
105120,note_on,0,0,1,,,,,,,,,0,,,66,88
105120,note_on,0,0,4,,,,,,,,,3,,,78,88
105120,note_on,0,0,4,,,,,,,,,3,,,75,88
105120,note_on,0,0,4,,,,,,,,,3,,,78,0
105120,note_on,960,0,4,,,,,,,,,3,,,81,0
105240,note_on,120,0,2,,,,,,,,,1,,,56,75
105360,note_on,0,0,2,,,,,,,,,1,,,57,75
105360,note_on,120,0,2,,,,,,,,,1,,,56,0
105480,note_on,0,0,1,,,,,,,,,0,,,63,88
105480,note_on,360,0,1,,,,,,,,,0,,,66,0
105600,control_change,0,0,2,,,,,,,,,1,64,127,,
105600,control_change,0,0,1,,,,,,,,,0,64,127,,
105600,note_on,480,0,4,,,,,,,,,3,,,78,0
105600,note_on,120,0,1,,,,,,,,,0,,,63,0
105600,note_on,0,0,3,,,,,,,,,2,,,47,88
105600,note_on,1440,0,3,,,,,,,,,2,,,35,88
105600,note_on,0,0,4,,,,,,,,,3,,,75,0
105600,note_on,240,0,2,,,,,,,,,1,,,57,0
105600,note_on,0,0,1,,,,,,,,,0,,,67,88
105720,note_on,120,0,2,,,,,,,,,1,,,58,75
105840,note_on,120,0,2,,,,,,,,,1,,,58,0
105840,note_on,0,0,2,,,,,,,,,1,,,59,75
105960,note_on,0,0,1,,,,,,,,,0,,,64,88
105960,note_on,360,0,1,,,,,,,,,0,,,67,0
106080,note_on,0,0,4,,,,,,,,,3,,,83,88
106080,note_on,0,0,1,,,,,,,,,0,,,67,88
106080,note_on,120,0,1,,,,,,,,,0,,,64,0
106080,note_on,240,0,2,,,,,,,,,1,,,59,0
106080,note_on,480,0,4,,,,,,,,,3,,,79,88
106200,note_on,120,0,2,,,,,,,,,1,,,58,75
106320,note_on,0,0,2,,,,,,,,,1,,,59,75
106320,note_on,120,0,2,,,,,,,,,1,,,58,0
106440,note_on,0,0,1,,,,,,,,,0,,,64,88
106440,note_on,360,0,1,,,,,,,,,0,,,67,0
106560,note_on,120,0,1,,,,,,,,,0,,,64,0
106560,note_on,240,0,2,,,,,,,,,1,,,59,0
106560,note_on,0,0,1,,,,,,,,,0,,,67,88
106680,note_on,120,0,2,,,,,,,,,1,,,58,75
106800,note_on,0,0,2,,,,,,,,,1,,,59,75
106800,note_on,120,0,2,,,,,,,,,1,,,58,0
106920,note_on,360,0,1,,,,,,,,,0,,,67,0
106920,note_on,0,0,1,,,,,,,,,0,,,64,88
107040,note_on,120,0,1,,,,,,,,,0,,,64,0
107040,note_on,0,0,4,,,,,,,,,3,,,79,88
107040,note_on,0,0,4,,,,,,,,,3,,,79,0
107040,note_on,0,0,4,,,,,,,,,3,,,76,88
107040,note_on,240,0,2,,,,,,,,,1,,,59,0
107040,note_on,0,0,1,,,,,,,,,0,,,67,88
107040,note_on,960,0,4,,,,,,,,,3,,,83,0
107160,note_on,120,0,2,,,,,,,,,1,,,58,75
107280,control_change,0,0,2,,,,,,,,,1,64,0,,
107280,note_on,0,0,2,,,,,,,,,1,,,59,75
107280,note_on,120,0,2,,,,,,,,,1,,,58,0
107400,note_on,0,0,1,,,,,,,,,0,,,64,88
107400,note_on,360,0,1,,,,,,,,,0,,,67,0
107400,control_change,0,0,1,,,,,,,,,0,64,0,,
107520,note_on,1920,0,3,,,,,,,,,2,,,47,0
107520,note_on,0,0,4,,,,,,,,,3,,,76,0
107520,note_on,480,0,4,,,,,,,,,3,,,79,0
107520,note_on,240,0,2,,,,,,,,,1,,,59,0
107520,note_on,0,0,1,,,,,,,,,0,,,66,88
107520,note_on,0,0,3,,,,,,,,,2,,,35,0
107520,note_on,120,0,1,,,,,,,,,0,,,64,0
107640,note_on,120,0,2,,,,,,,,,1,,,56,75
107760,note_on,0,0,2,,,,,,,,,1,,,57,75
107760,note_on,120,0,2,,,,,,,,,1,,,56,0
107880,note_on,360,0,1,,,,,,,,,0,,,66,0
107880,note_on,0,0,1,,,,,,,,,0,,,63,88
108000,note_on,0,0,1,,,,,,,,,0,,,66,88
108000,note_on,0,0,3,,,,,,,,,2,,,47,114
108000,note_on,120,0,1,,,,,,,,,0,,,63,0
108000,note_on,480,0,3,,,,,,,,,2,,,35,114
108000,note_on,240,0,2,,,,,,,,,1,,,57,0
108120,note_on,120,0,2,,,,,,,,,1,,,56,75
108240,note_on,0,0,2,,,,,,,,,1,,,57,75
108240,note_on,120,0,2,,,,,,,,,1,,,56,0
108360,note_on,0,0,1,,,,,,,,,0,,,63,88
108360,note_on,360,0,1,,,,,,,,,0,,,66,0
108480,note_on,240,0,2,,,,,,,,,1,,,57,0
108480,note_on,0,0,1,,,,,,,,,0,,,69,88
108480,note_on,120,0,1,,,,,,,,,0,,,63,0
108600,note_on,120,0,2,,,,,,,,,1,,,62,75
108720,note_on,120,0,2,,,,,,,,,1,,,62,0
108720,note_on,0,0,2,,,,,,,,,1,,,63,75
108840,note_on,0,0,1,,,,,,,,,0,,,66,88
108840,note_on,360,0,1,,,,,,,,,0,,,69,0
108960,note_on,0,0,3,,,,,,,,,2,,,48,114
108960,note_on,0,0,1,,,,,,,,,0,,,69,88
108960,note_on,240,0,2,,,,,,,,,1,,,63,0
108960,note_on,120,0,1,,,,,,,,,0,,,66,0
108960,note_on,0,0,3,,,,,,,,,2,,,36,114
108960,note_on,960,0,3,,,,,,,,,2,,,47,0
108960,note_on,0,0,3,,,,,,,,,2,,,35,0
109080,note_on,120,0,2,,,,,,,,,1,,,62,75
109200,note_on,0,0,2,,,,,,,,,1,,,63,75
109200,note_on,120,0,2,,,,,,,,,1,,,62,0
109320,note_on,360,0,1,,,,,,,,,0,,,69,0
109320,note_on,0,0,1,,,,,,,,,0,,,66,88
109440,note_on,120,0,1,,,,,,,,,0,,,66,0
109440,note_on,0,0,1,,,,,,,,,0,,,70,88
109440,note_on,240,0,2,,,,,,,,,1,,,63,0
109560,note_on,120,0,2,,,,,,,,,1,,,62,75
109680,note_on,120,0,2,,,,,,,,,1,,,62,0
109680,note_on,0,0,2,,,,,,,,,1,,,63,75
109800,note_on,0,0,1,,,,,,,,,0,,,66,88
109800,note_on,360,0,1,,,,,,,,,0,,,70,0
109920,note_on,0,0,3,,,,,,,,,2,,,34,114
109920,note_on,120,0,1,,,,,,,,,0,,,66,0
109920,note_on,0,0,1,,,,,,,,,0,,,70,88
109920,note_on,0,0,3,,,,,,,,,2,,,46,114
109920,note_on,0,0,3,,,,,,,,,2,,,36,0
109920,note_on,240,0,2,,,,,,,,,1,,,63,0
109920,note_on,960,0,3,,,,,,,,,2,,,48,0
110040,note_on,120,0,2,,,,,,,,,1,,,62,75
110160,note_on,0,0,2,,,,,,,,,1,,,63,75
110160,note_on,120,0,2,,,,,,,,,1,,,62,0
110280,note_on,360,0,1,,,,,,,,,0,,,70,0
110280,note_on,0,0,1,,,,,,,,,0,,,66,88
110400,note_on,240,0,2,,,,,,,,,1,,,63,0
110400,note_on,0,0,1,,,,,,,,,0,,,75,88
110400,note_on,120,0,1,,,,,,,,,0,,,66,0
110520,note_on,120,0,2,,,,,,,,,1,,,65,75
110640,note_on,0,0,2,,,,,,,,,1,,,67,75
110640,note_on,120,0,2,,,,,,,,,1,,,65,0
110760,note_on,0,0,1,,,,,,,,,0,,,72,88
110760,note_on,360,0,1,,,,,,,,,0,,,75,0
110880,note_on,960,0,3,,,,,,,,,2,,,46,0
110880,note_on,240,0,2,,,,,,,,,1,,,67,0
110880,note_on,120,0,1,,,,,,,,,0,,,72,0
110880,note_on,0,0,1,,,,,,,,,0,,,75,88
110880,note_on,0,0,3,,,,,,,,,2,,,45,88
110880,note_on,0,0,3,,,,,,,,,2,,,34,0
110880,note_on,0,0,3,,,,,,,,,2,,,33,88
111000,note_on,120,0,2,,,,,,,,,1,,,65,75
111120,note_on,0,0,2,,,,,,,,,1,,,67,75
111120,note_on,120,0,2,,,,,,,,,1,,,65,0
111240,note_on,360,0,1,,,,,,,,,0,,,75,0
111240,note_on,0,0,1,,,,,,,,,0,,,72,88
111360,note_on,240,0,2,,,,,,,,,1,,,67,0
111360,note_on,0,0,3,,,,,,,,,2,,,46,88
111360,note_on,0,0,1,,,,,,,,,0,,,73,88
111360,note_on,120,0,1,,,,,,,,,0,,,72,0
111360,note_on,0,0,3,,,,,,,,,2,,,34,88
111360,note_on,0,0,3,,,,,,,,,2,,,33,0
111360,note_on,480,0,3,,,,,,,,,2,,,45,0
111480,note_on,120,0,2,,,,,,,,,1,,,64,75
111600,note_on,0,0,2,,,,,,,,,1,,,65,75
111600,note_on,120,0,2,,,,,,,,,1,,,64,0
111720,note_on,0,0,1,,,,,,,,,0,,,70,88
111720,note_on,360,0,1,,,,,,,,,0,,,73,0
111840,note_on,0,0,3,,,,,,,,,2,,,46,88
111840,note_on,240,0,2,,,,,,,,,1,,,65,0
111840,note_on,120,0,1,,,,,,,,,0,,,70,0
111840,note_on,0,0,1,,,,,,,,,0,,,73,88
111840,note_on,480,0,3,,,,,,,,,2,,,46,0
111840,note_on,0,0,3,,,,,,,,,2,,,34,0
111840,note_on,0,0,3,,,,,,,,,2,,,58,88
111960,note_on,120,0,2,,,,,,,,,1,,,64,75
112080,note_on,120,0,2,,,,,,,,,1,,,64,0
112080,note_on,0,0,2,,,,,,,,,1,,,65,75
112200,note_on,360,0,1,,,,,,,,,0,,,73,0
112200,note_on,0,0,1,,,,,,,,,0,,,70,88
112320,note_on,240,0,2,,,,,,,,,1,,,65,0
112320,note_on,0,0,1,,,,,,,,,0,,,73,101
112320,note_on,120,0,1,,,,,,,,,0,,,70,0
112440,note_on,120,0,2,,,,,,,,,1,,,64,88
112560,note_on,120,0,2,,,,,,,,,1,,,64,0
112560,note_on,0,0,2,,,,,,,,,1,,,65,88
112560,note_on,0,0,3,,,,,,,,,2,,,44,101
112560,note_on,0,0,3,,,,,,,,,2,,,46,0
112560,note_on,720,0,3,,,,,,,,,2,,,58,0
112560,note_on,0,0,3,,,,,,,,,2,,,56,101
112680,note_on,360,0,1,,,,,,,,,0,,,73,0
112680,note_on,0,0,1,,,,,,,,,0,,,70,101
112800,note_on,120,0,1,,,,,,,,,0,,,70,0
112800,note_on,0,0,3,,,,,,,,,2,,,54,101
112800,note_on,240,0,3,,,,,,,,,2,,,56,0
112800,note_on,240,0,2,,,,,,,,,1,,,65,0
112800,note_on,0,0,1,,,,,,,,,0,,,73,101
112800,note_on,0,0,3,,,,,,,,,2,,,44,0
112800,note_on,0,0,3,,,,,,,,,2,,,42,101
112920,note_on,120,0,2,,,,,,,,,1,,,64,88
113040,note_on,240,0,3,,,,,,,,,2,,,54,0
113040,note_on,0,0,3,,,,,,,,,2,,,53,101
113040,note_on,0,0,2,,,,,,,,,1,,,65,88
113040,note_on,0,0,3,,,,,,,,,2,,,42,0
113040,note_on,0,0,3,,,,,,,,,2,,,41,101
113040,note_on,120,0,2,,,,,,,,,1,,,64,0
113160,note_on,360,0,1,,,,,,,,,0,,,73,0
113160,note_on,0,0,1,,,,,,,,,0,,,70,101
113280,note_on,0,0,1,,,,,,,,,0,,,73,101
113280,note_on,120,0,1,,,,,,,,,0,,,70,0
113280,note_on,240,0,2,,,,,,,,,1,,,65,0
113280,note_on,240,0,3,,,,,,,,,2,,,53,0
113280,note_on,0,0,3,,,,,,,,,2,,,41,0
113280,note_on,0,0,3,,,,,,,,,2,,,39,101
113280,note_on,0,0,3,,,,,,,,,2,,,51,101
113400,note_on,120,0,2,,,,,,,,,1,,,64,88
113520,note_on,0,0,3,,,,,,,,,2,,,39,0
113520,note_on,0,0,2,,,,,,,,,1,,,65,88
113520,note_on,120,0,2,,,,,,,,,1,,,64,0
113520,note_on,0,0,3,,,,,,,,,2,,,37,101
113520,note_on,0,0,3,,,,,,,,,2,,,49,101
113520,note_on,240,0,3,,,,,,,,,2,,,51,0
113640,note_on,0,0,1,,,,,,,,,0,,,70,101
113640,note_on,360,0,1,,,,,,,,,0,,,73,0
113760,note_on,0,0,3,,,,,,,,,2,,,36,101
113760,note_on,120,0,1,,,,,,,,,0,,,70,0
113760,note_on,0,0,1,,,,,,,,,0,,,73,101
113760,note_on,240,0,2,,,,,,,,,1,,,65,0
113760,note_on,0,0,3,,,,,,,,,2,,,48,101
113760,note_on,0,0,3,,,,,,,,,2,,,37,0
113760,note_on,240,0,3,,,,,,,,,2,,,49,0
113880,note_on,120,0,2,,,,,,,,,1,,,64,88
114000,note_on,120,0,2,,,,,,,,,1,,,64,0
114000,note_on,0,0,2,,,,,,,,,1,,,65,88
114000,note_on,0,0,3,,,,,,,,,2,,,36,0
114000,note_on,0,0,3,,,,,,,,,2,,,46,101
114000,note_on,240,0,3,,,,,,,,,2,,,48,0
114000,note_on,0,0,3,,,,,,,,,2,,,34,101
114120,note_on,0,0,1,,,,,,,,,0,,,70,101
114120,note_on,360,0,1,,,,,,,,,0,,,73,0
114240,note_on,240,0,3,,,,,,,,,2,,,46,0
114240,note_on,0,0,3,,,,,,,,,2,,,32,101
114240,note_on,0,0,3,,,,,,,,,2,,,34,0
114240,note_on,0,0,3,,,,,,,,,2,,,44,101
114240,note_on,120,0,1,,,,,,,,,0,,,70,0
114240,note_on,0,0,1,,,,,,,,,0,,,76,101
114240,note_on,240,0,2,,,,,,,,,1,,,65,0
114360,note_on,120,0,2,,,,,,,,,1,,,69,88
114480,note_on,0,0,3,,,,,,,,,2,,,32,0
114480,note_on,0,0,2,,,,,,,,,1,,,70,88
114480,note_on,0,0,3,,,,,,,,,2,,,30,101
114480,note_on,120,0,2,,,,,,,,,1,,,69,0
114480,note_on,0,0,3,,,,,,,,,2,,,42,101
114480,note_on,240,0,3,,,,,,,,,2,,,44,0
114600,note_on,360,0,1,,,,,,,,,0,,,76,0
114600,note_on,0,0,1,,,,,,,,,0,,,72,101
114720,note_on,240,0,3,,,,,,,,,2,,,42,0
114720,note_on,0,0,1,,,,,,,,,0,,,76,101
114720,note_on,240,0,2,,,,,,,,,1,,,70,0
114720,note_on,0,0,3,,,,,,,,,2,,,29,101
114720,note_on,0,0,3,,,,,,,,,2,,,30,0
114720,note_on,0,0,3,,,,,,,,,2,,,41,101
114720,note_on,120,0,1,,,,,,,,,0,,,72,0
114840,note_on,120,0,2,,,,,,,,,1,,,69,88
114960,note_on,0,0,3,,,,,,,,,2,,,42,101
114960,note_on,0,0,3,,,,,,,,,2,,,29,0
114960,note_on,0,0,3,,,,,,,,,2,,,30,101
114960,note_on,240,0,3,,,,,,,,,2,,,41,0
114960,note_on,0,0,2,,,,,,,,,1,,,70,88
114960,note_on,120,0,2,,,,,,,,,1,,,69,0
115080,note_on,360,0,1,,,,,,,,,0,,,76,0
115080,note_on,0,0,1,,,,,,,,,0,,,72,101
115200,note_on,0,0,1,,,,,,,,,0,,,69,101
115200,note_on,0,0,1,,,,,,,,,0,,,72,101
115200,note_on,0,0,1,,,,,,,,,0,,,77,101
115200,note_on,240,0,2,,,,,,,,,1,,,70,0
115200,note_on,0,0,3,,,,,,,,,2,,,29,101
115200,note_on,0,0,1,,,,,,,,,0,,,65,101
115200,note_on,120,0,1,,,,,,,,,0,,,72,0
115200,note_on,0,0,3,,,,,,,,,2,,,30,0
115200,note_on,240,0,3,,,,,,,,,2,,,42,0
115320,note_on,0,0,3,,,,,,,,,2,,,31,101
115320,note_on,120,0,3,,,,,,,,,2,,,29,0
115440,note_on,0,0,3,,,,,,,,,2,,,33,101
115440,note_on,120,0,3,,,,,,,,,2,,,31,0
115560,note_on,0,0,3,,,,,,,,,2,,,34,101
115560,note_on,120,0,3,,,,,,,,,2,,,33,0
115680,note_on,0,0,1,,,,,,,,,0,,,72,101
115680,note_on,0,0,1,,,,,,,,,0,,,72,0
115680,note_on,480,0,1,,,,,,,,,0,,,77,0
115680,note_on,0,0,1,,,,,,,,,0,,,69,0
115680,note_on,0,0,1,,,,,,,,,0,,,67,101
115680,note_on,0,0,1,,,,,,,,,0,,,65,0
115680,note_on,0,0,1,,,,,,,,,0,,,60,101
115680,note_on,0,0,3,,,,,,,,,2,,,35,101
115680,note_on,120,0,3,,,,,,,,,2,,,34,0
115680,note_on,0,0,1,,,,,,,,,0,,,70,101
115800,note_on,0,0,3,,,,,,,,,2,,,36,101
115800,note_on,120,0,3,,,,,,,,,2,,,35,0
115920,note_on,0,0,3,,,,,,,,,2,,,38,101
115920,note_on,120,0,3,,,,,,,,,2,,,36,0
116040,note_on,0,0,3,,,,,,,,,2,,,40,101
116040,note_on,120,0,3,,,,,,,,,2,,,38,0
116160,note_on,480,0,1,,,,,,,,,0,,,72,0
116160,note_on,0,0,1,,,,,,,,,0,,,57,101
116160,note_on,0,0,1,,,,,,,,,0,,,60,0
116160,note_on,0,0,1,,,,,,,,,0,,,60,101
116160,note_on,0,0,1,,,,,,,,,0,,,65,101
116160,note_on,0,0,1,,,,,,,,,0,,,67,0
116160,note_on,0,0,1,,,,,,,,,0,,,69,101
116160,note_on,0,0,1,,,,,,,,,0,,,70,0
116160,note_on,120,0,3,,,,,,,,,2,,,40,0
116160,note_on,0,0,3,,,,,,,,,2,,,41,101
116280,note_on,0,0,3,,,,,,,,,2,,,43,101
116280,note_on,120,0,3,,,,,,,,,2,,,41,0
116400,note_on,0,0,3,,,,,,,,,2,,,45,101
116400,note_on,120,0,3,,,,,,,,,2,,,43,0
116520,note_on,0,0,3,,,,,,,,,2,,,46,101
116520,note_on,120,0,3,,,,,,,,,2,,,45,0
116640,note_on,0,0,1,,,,,,,,,0,,,60,0
116640,note_on,0,0,1,,,,,,,,,0,,,58,101
116640,note_on,0,0,1,,,,,,,,,0,,,57,0
116640,note_on,0,0,1,,,,,,,,,0,,,55,101
116640,note_on,0,0,1,,,,,,,,,0,,,65,0
116640,note_on,480,0,1,,,,,,,,,0,,,69,0
116640,note_on,0,0,1,,,,,,,,,0,,,67,101
116640,note_on,0,0,3,,,,,,,,,2,,,47,101
116640,note_on,120,0,3,,,,,,,,,2,,,46,0
116640,note_on,0,0,1,,,,,,,,,0,,,60,101
116760,note_on,0,0,3,,,,,,,,,2,,,48,101
116760,note_on,120,0,3,,,,,,,,,2,,,47,0
116880,note_on,0,0,3,,,,,,,,,2,,,50,101
116880,note_on,120,0,3,,,,,,,,,2,,,48,0
117000,note_on,120,0,3,,,,,,,,,2,,,50,0
117000,note_on,0,0,3,,,,,,,,,2,,,52,101
117120,note_on,120,0,3,,,,,,,,,2,,,52,0
117120,note_on,480,0,1,,,,,,,,,0,,,67,0
117120,note_on,0,0,1,,,,,,,,,0,,,55,0
117120,note_on,0,0,1,,,,,,,,,0,,,58,0
117120,note_on,0,0,1,,,,,,,,,0,,,60,0
117120,note_on,0,0,1,,,,,,,,,0,,,77,62
117120,note_on,0,0,3,,,,,,,,,2,,,53,49
117240,note_on,2040,0,2,,,,,,,,,1,,,69,49
117360,note_on,0,0,3,,,,,,,,,2,,,57,49
117360,note_on,0,0,3,,,,,,,,,2,,,60,49
117360,note_on,0,0,2,,,,,,,,,1,,,72,49
117360,note_on,0,0,3,,,,,,,,,2,,,65,49
117360,note_on,120,0,2,,,,,,,,,1,,,69,0
117360,note_on,240,0,3,,,,,,,,,2,,,53,0
117480,note_on,360,0,1,,,,,,,,,0,,,77,0
117480,note_on,0,0,1,,,,,,,,,0,,,81,62
117600,note_on,120,0,1,,,,,,,,,0,,,81,0
117600,note_on,240,0,2,,,,,,,,,1,,,72,0
117600,note_on,0,0,1,,,,,,,,,0,,,79,62
117600,note_on,0,0,3,,,,,,,,,2,,,48,49
117600,note_on,0,0,3,,,,,,,,,2,,,57,0
117600,note_on,0,0,3,,,,,,,,,2,,,60,0
117600,note_on,240,0,3,,,,,,,,,2,,,65,0
117720,note_on,120,0,2,,,,,,,,,1,,,70,49
117840,note_on,0,0,3,,,,,,,,,2,,,64,49
117840,note_on,0,0,3,,,,,,,,,2,,,60,49
117840,note_on,0,0,3,,,,,,,,,2,,,58,49
117840,note_on,240,0,3,,,,,,,,,2,,,48,0
117840,note_on,0,0,2,,,,,,,,,1,,,72,49
117840,note_on,120,0,2,,,,,,,,,1,,,70,0
117960,note_on,0,0,1,,,,,,,,,0,,,76,62
117960,note_on,360,0,1,,,,,,,,,0,,,79,0
118080,note_on,0,0,3,,,,,,,,,2,,,58,0
118080,note_on,0,0,3,,,,,,,,,2,,,53,49
118080,note_on,240,0,3,,,,,,,,,2,,,64,0
118080,note_on,0,0,1,,,,,,,,,0,,,77,62
118080,note_on,240,0,2,,,,,,,,,1,,,72,0
118080,note_on,120,0,1,,,,,,,,,0,,,76,0
118080,note_on,0,0,3,,,,,,,,,2,,,60,0
118200,note_on,120,0,2,,,,,,,,,1,,,69,49
118320,note_on,0,0,3,,,,,,,,,2,,,57,49
118320,note_on,0,0,3,,,,,,,,,2,,,65,49
118320,note_on,0,0,3,,,,,,,,,2,,,60,49
118320,note_on,240,0,3,,,,,,,,,2,,,53,0
118320,note_on,0,0,2,,,,,,,,,1,,,72,49
118320,note_on,120,0,2,,,,,,,,,1,,,69,0
118440,note_on,0,0,1,,,,,,,,,0,,,81,62
118440,note_on,360,0,1,,,,,,,,,0,,,77,0
118560,note_on,0,0,1,,,,,,,,,0,,,79,62
118560,note_on,0,0,3,,,,,,,,,2,,,57,0
118560,note_on,0,0,3,,,,,,,,,2,,,48,49
118560,note_on,240,0,2,,,,,,,,,1,,,72,0
118560,note_on,120,0,1,,,,,,,,,0,,,81,0
118560,note_on,0,0,3,,,,,,,,,2,,,60,0
118560,note_on,240,0,3,,,,,,,,,2,,,65,0
118680,note_on,120,0,2,,,,,,,,,1,,,70,49
118800,note_on,0,0,3,,,,,,,,,2,,,58,49
118800,note_on,0,0,2,,,,,,,,,1,,,72,49
118800,note_on,120,0,2,,,,,,,,,1,,,70,0
118800,note_on,0,0,3,,,,,,,,,2,,,60,49
118800,note_on,0,0,3,,,,,,,,,2,,,64,49
118800,note_on,240,0,3,,,,,,,,,2,,,48,0
118920,note_on,360,0,1,,,,,,,,,0,,,79,0
118920,note_on,0,0,1,,,,,,,,,0,,,76,62
119040,note_on,120,0,1,,,,,,,,,0,,,76,0
119040,note_on,0,0,3,,,,,,,,,2,,,29,101
119040,note_on,0,0,3,,,,,,,,,2,,,58,0
119040,note_on,0,0,3,,,,,,,,,2,,,60,0
119040,note_on,240,0,2,,,,,,,,,1,,,72,0
119040,note_on,240,0,3,,,,,,,,,2,,,64,0
119040,note_on,0,0,1,,,,,,,,,0,,,77,101
119040,note_on,0,0,1,,,,,,,,,0,,,72,101
119040,note_on,0,0,1,,,,,,,,,0,,,69,101
119040,note_on,0,0,1,,,,,,,,,0,,,65,101
119160,note_on,0,0,3,,,,,,,,,2,,,31,101
119160,note_on,120,0,3,,,,,,,,,2,,,29,0
119280,note_on,0,0,3,,,,,,,,,2,,,33,101
119280,note_on,120,0,3,,,,,,,,,2,,,31,0
119400,note_on,0,0,3,,,,,,,,,2,,,34,101
119400,note_on,120,0,3,,,,,,,,,2,,,33,0
119520,note_on,0,0,3,,,,,,,,,2,,,35,101
119520,note_on,0,0,1,,,,,,,,,0,,,70,101
119520,note_on,0,0,1,,,,,,,,,0,,,72,0
119520,note_on,0,0,1,,,,,,,,,0,,,72,101
119520,note_on,120,0,3,,,,,,,,,2,,,34,0
119520,note_on,0,0,1,,,,,,,,,0,,,69,0
119520,note_on,480,0,1,,,,,,,,,0,,,77,0
119520,note_on,0,0,1,,,,,,,,,0,,,67,101
119520,note_on,0,0,1,,,,,,,,,0,,,65,0
119520,note_on,0,0,1,,,,,,,,,0,,,60,101
119640,note_on,0,0,3,,,,,,,,,2,,,36,101
119640,note_on,120,0,3,,,,,,,,,2,,,35,0
119760,note_on,120,0,3,,,,,,,,,2,,,36,0
119760,note_on,0,0,3,,,,,,,,,2,,,38,101
119880,note_on,0,0,3,,,,,,,,,2,,,40,101
119880,note_on,120,0,3,,,,,,,,,2,,,38,0
120000,note_on,0,0,1,,,,,,,,,0,,,69,101
120000,note_on,0,0,1,,,,,,,,,0,,,70,0
120000,note_on,0,0,1,,,,,,,,,0,,,65,101
120000,note_on,0,0,3,,,,,,,,,2,,,41,101
120000,note_on,120,0,3,,,,,,,,,2,,,40,0
120000,note_on,0,0,1,,,,,,,,,0,,,67,0
120000,note_on,0,0,1,,,,,,,,,0,,,60,0
120000,note_on,0,0,1,,,,,,,,,0,,,60,101
120000,note_on,480,0,1,,,,,,,,,0,,,72,0
120000,note_on,0,0,1,,,,,,,,,0,,,57,101
120120,note_on,0,0,3,,,,,,,,,2,,,43,101
120120,note_on,120,0,3,,,,,,,,,2,,,41,0
120240,note_on,120,0,3,,,,,,,,,2,,,43,0
120240,note_on,0,0,3,,,,,,,,,2,,,45,101
120360,note_on,120,0,3,,,,,,,,,2,,,45,0
120360,note_on,0,0,3,,,,,,,,,2,,,46,101
120480,note_on,0,0,3,,,,,,,,,2,,,47,101
120480,note_on,0,0,1,,,,,,,,,0,,,55,101
120480,note_on,0,0,1,,,,,,,,,0,,,67,101
120480,note_on,0,0,1,,,,,,,,,0,,,65,0
120480,note_on,480,0,1,,,,,,,,,0,,,69,0
120480,note_on,0,0,1,,,,,,,,,0,,,57,0
120480,note_on,0,0,1,,,,,,,,,0,,,58,101
120480,note_on,0,0,1,,,,,,,,,0,,,60,0
120480,note_on,120,0,3,,,,,,,,,2,,,46,0
120480,note_on,0,0,1,,,,,,,,,0,,,60,101
120600,note_on,0,0,3,,,,,,,,,2,,,48,101
120600,note_on,120,0,3,,,,,,,,,2,,,47,0
120720,note_on,120,0,3,,,,,,,,,2,,,48,0
120720,note_on,0,0,3,,,,,,,,,2,,,50,101
120840,note_on,0,0,3,,,,,,,,,2,,,52,101
120840,note_on,120,0,3,,,,,,,,,2,,,50,0
120960,note_on,0,0,3,,,,,,,,,2,,,53,49
120960,note_on,0,0,1,,,,,,,,,0,,,55,0
120960,note_on,0,0,1,,,,,,,,,0,,,58,0
120960,note_on,0,0,1,,,,,,,,,0,,,60,0
120960,note_on,0,0,1,,,,,,,,,0,,,77,62
120960,note_on,120,0,3,,,,,,,,,2,,,52,0
120960,note_on,480,0,1,,,,,,,,,0,,,67,0
121080,note_on,2040,0,2,,,,,,,,,1,,,69,49
121200,note_on,120,0,2,,,,,,,,,1,,,69,0
121200,note_on,0,0,3,,,,,,,,,2,,,57,49
121200,note_on,0,0,3,,,,,,,,,2,,,60,49
121200,note_on,0,0,3,,,,,,,,,2,,,65,49
121200,note_on,0,0,2,,,,,,,,,1,,,72,49
121200,note_on,240,0,3,,,,,,,,,2,,,53,0
121320,note_on,360,0,1,,,,,,,,,0,,,77,0
121320,note_on,0,0,1,,,,,,,,,0,,,81,62
121440,note_on,240,0,2,,,,,,,,,1,,,72,0
121440,note_on,240,0,3,,,,,,,,,2,,,65,0
121440,note_on,120,0,1,,,,,,,,,0,,,81,0
121440,note_on,0,0,3,,,,,,,,,2,,,48,49
121440,note_on,0,0,3,,,,,,,,,2,,,60,0
121440,note_on,0,0,3,,,,,,,,,2,,,57,0
121440,note_on,0,0,1,,,,,,,,,0,,,79,62
121560,note_on,120,0,2,,,,,,,,,1,,,70,49
121680,note_on,0,0,3,,,,,,,,,2,,,64,49
121680,note_on,0,0,3,,,,,,,,,2,,,60,49
121680,note_on,120,0,2,,,,,,,,,1,,,70,0
121680,note_on,0,0,2,,,,,,,,,1,,,72,49
121680,note_on,0,0,3,,,,,,,,,2,,,58,49
121680,note_on,240,0,3,,,,,,,,,2,,,48,0
121800,note_on,0,0,1,,,,,,,,,0,,,76,62
121800,note_on,360,0,1,,,,,,,,,0,,,79,0
121920,note_on,240,0,3,,,,,,,,,2,,,64,0
121920,note_on,120,0,1,,,,,,,,,0,,,76,0
121920,note_on,0,0,1,,,,,,,,,0,,,77,62
121920,note_on,240,0,2,,,,,,,,,1,,,72,0
121920,note_on,0,0,3,,,,,,,,,2,,,58,0
121920,note_on,0,0,3,,,,,,,,,2,,,53,49
121920,note_on,0,0,3,,,,,,,,,2,,,60,0
122040,note_on,120,0,2,,,,,,,,,1,,,69,49
122160,note_on,0,0,3,,,,,,,,,2,,,57,49
122160,note_on,0,0,2,,,,,,,,,1,,,72,49
122160,note_on,240,0,3,,,,,,,,,2,,,53,0
122160,note_on,0,0,3,,,,,,,,,2,,,60,49
122160,note_on,0,0,3,,,,,,,,,2,,,65,49
122160,note_on,120,0,2,,,,,,,,,1,,,69,0
122280,note_on,0,0,1,,,,,,,,,0,,,81,62
122280,note_on,360,0,1,,,,,,,,,0,,,77,0
122400,note_on,0,0,1,,,,,,,,,0,,,79,62
122400,note_on,0,0,3,,,,,,,,,2,,,48,49
122400,note_on,240,0,2,,,,,,,,,1,,,72,0
122400,note_on,240,0,3,,,,,,,,,2,,,65,0
122400,note_on,120,0,1,,,,,,,,,0,,,81,0
122400,note_on,0,0,3,,,,,,,,,2,,,57,0
122400,note_on,0,0,3,,,,,,,,,2,,,60,0
122520,note_on,120,0,2,,,,,,,,,1,,,70,49
122640,note_on,0,0,2,,,,,,,,,1,,,72,49
122640,note_on,0,0,3,,,,,,,,,2,,,58,49
122640,note_on,120,0,2,,,,,,,,,1,,,70,0
122640,note_on,0,0,3,,,,,,,,,2,,,64,49
122640,note_on,240,0,3,,,,,,,,,2,,,48,0
122640,note_on,0,0,3,,,,,,,,,2,,,60,49
122760,note_on,0,0,1,,,,,,,,,0,,,76,62
122760,note_on,360,0,1,,,,,,,,,0,,,79,0
122880,note_on,0,0,3,,,,,,,,,2,,,60,0
122880,note_on,240,0,3,,,,,,,,,2,,,64,0
122880,note_on,120,0,1,,,,,,,,,0,,,76,0
122880,note_on,0,0,3,,,,,,,,,2,,,58,0
122880,note_on,240,0,2,,,,,,,,,1,,,72,0
122880,note_on,0,0,1,,,,,,,,,0,,,77,75
122880,note_on,0,0,3,,,,,,,,,2,,,53,49
123000,note_on,120,0,2,,,,,,,,,1,,,69,62
123120,note_on,0,0,2,,,,,,,,,1,,,72,62
123120,note_on,120,0,2,,,,,,,,,1,,,69,0
123120,note_on,240,0,3,,,,,,,,,2,,,53,0
123120,note_on,0,0,3,,,,,,,,,2,,,57,49
123120,note_on,0,0,3,,,,,,,,,2,,,60,49
123120,note_on,0,0,3,,,,,,,,,2,,,65,49
123240,note_on,0,0,1,,,,,,,,,0,,,79,75
123240,note_on,360,0,1,,,,,,,,,0,,,77,0
123360,note_on,120,0,1,,,,,,,,,0,,,79,0
123360,note_on,240,0,3,,,,,,,,,2,,,65,0
123360,note_on,0,0,3,,,,,,,,,2,,,60,0
123360,note_on,240,0,2,,,,,,,,,1,,,72,0
123360,note_on,0,0,3,,,,,,,,,2,,,57,0
123360,note_on,0,0,3,,,,,,,,,2,,,53,49
123360,note_on,0,0,1,,,,,,,,,0,,,77,75
123480,note_on,120,0,2,,,,,,,,,1,,,69,62
123600,note_on,0,0,3,,,,,,,,,2,,,57,49
123600,note_on,240,0,3,,,,,,,,,2,,,53,0
123600,note_on,0,0,3,,,,,,,,,2,,,60,49
123600,note_on,0,0,3,,,,,,,,,2,,,65,49
123600,note_on,0,0,2,,,,,,,,,1,,,72,62
123600,note_on,120,0,2,,,,,,,,,1,,,69,0
123720,note_on,0,0,1,,,,,,,,,0,,,81,75
123720,note_on,360,0,1,,,,,,,,,0,,,77,0
123840,note_on,0,0,1,,,,,,,,,0,,,79,75
123840,note_on,240,0,2,,,,,,,,,1,,,72,0
123840,note_on,240,0,3,,,,,,,,,2,,,65,0
123840,note_on,120,0,1,,,,,,,,,0,,,81,0
123840,note_on,0,0,3,,,,,,,,,2,,,53,49
123840,note_on,0,0,3,,,,,,,,,2,,,60,0
123840,note_on,0,0,3,,,,,,,,,2,,,57,0
123960,note_on,120,0,2,,,,,,,,,1,,,70,62
124080,note_on,0,0,3,,,,,,,,,2,,,62,49
124080,note_on,120,0,2,,,,,,,,,1,,,70,0
124080,note_on,0,0,2,,,,,,,,,1,,,74,62
124080,note_on,0,0,3,,,,,,,,,2,,,65,49
124080,note_on,240,0,3,,,,,,,,,2,,,53,0
124080,note_on,0,0,3,,,,,,,,,2,,,58,49
124200,note_on,360,0,1,,,,,,,,,0,,,79,0
124200,note_on,0,0,1,,,,,,,,,0,,,81,75
124320,note_on,0,0,3,,,,,,,,,2,,,53,49
124320,note_on,0,0,3,,,,,,,,,2,,,58,0
124320,note_on,0,0,1,,,,,,,,,0,,,79,75
124320,note_on,120,0,1,,,,,,,,,0,,,81,0
124320,note_on,0,0,3,,,,,,,,,2,,,62,0
124320,note_on,240,0,3,,,,,,,,,2,,,65,0
124320,note_on,240,0,2,,,,,,,,,1,,,74,0
124440,note_on,120,0,2,,,,,,,,,1,,,70,62
124560,note_on,0,0,3,,,,,,,,,2,,,58,49
124560,note_on,0,0,2,,,,,,,,,1,,,74,62
124560,note_on,0,0,3,,,,,,,,,2,,,62,49
124560,note_on,120,0,2,,,,,,,,,1,,,70,0
124560,note_on,0,0,3,,,,,,,,,2,,,65,49
124560,note_on,240,0,3,,,,,,,,,2,,,53,0
124680,note_on,0,0,1,,,,,,,,,0,,,82,75
124680,note_on,360,0,1,,,,,,,,,0,,,79,0
124800,note_on,0,0,3,,,,,,,,,2,,,53,49
124800,note_on,120,0,1,,,,,,,,,0,,,82,0
124800,note_on,0,0,3,,,,,,,,,2,,,62,0
124800,note_on,0,0,1,,,,,,,,,0,,,81,75
124800,note_on,240,0,3,,,,,,,,,2,,,65,0
124800,note_on,240,0,2,,,,,,,,,1,,,74,0
124800,note_on,0,0,3,,,,,,,,,2,,,58,0
124920,note_on,120,0,2,,,,,,,,,1,,,72,62
125040,note_on,120,0,2,,,,,,,,,1,,,72,0
125040,note_on,0,0,3,,,,,,,,,2,,,65,49
125040,note_on,0,0,3,,,,,,,,,2,,,60,49
125040,note_on,240,0,3,,,,,,,,,2,,,53,0
125040,note_on,0,0,3,,,,,,,,,2,,,63,49
125040,note_on,0,0,2,,,,,,,,,1,,,75,62
125160,note_on,0,0,1,,,,,,,,,0,,,82,75
125160,note_on,360,0,1,,,,,,,,,0,,,81,0
125280,note_on,0,0,3,,,,,,,,,2,,,53,49
125280,note_on,0,0,3,,,,,,,,,2,,,60,0
125280,note_on,120,0,1,,,,,,,,,0,,,82,0
125280,note_on,0,0,3,,,,,,,,,2,,,63,0
125280,note_on,0,0,1,,,,,,,,,0,,,81,75
125280,note_on,240,0,3,,,,,,,,,2,,,65,0
125280,note_on,240,0,2,,,,,,,,,1,,,75,0
125400,note_on,120,0,2,,,,,,,,,1,,,72,62
125520,note_on,0,0,3,,,,,,,,,2,,,65,49
125520,note_on,0,0,2,,,,,,,,,1,,,75,62
125520,note_on,0,0,3,,,,,,,,,2,,,63,49
125520,note_on,120,0,2,,,,,,,,,1,,,72,0
125520,note_on,0,0,3,,,,,,,,,2,,,60,49
125520,note_on,240,0,3,,,,,,,,,2,,,53,0
125640,note_on,360,0,1,,,,,,,,,0,,,81,0
125640,note_on,0,0,1,,,,,,,,,0,,,84,75
125760,note_on,0,0,1,,,,,,,,,0,,,82,88
125760,note_on,240,0,3,,,,,,,,,2,,,65,0
125760,note_on,120,0,1,,,,,,,,,0,,,84,0
125760,note_on,240,0,2,,,,,,,,,1,,,75,0
125760,note_on,0,0,3,,,,,,,,,2,,,53,62
125760,note_on,0,0,3,,,,,,,,,2,,,60,0
125760,note_on,0,0,3,,,,,,,,,2,,,63,0
125880,note_on,120,0,2,,,,,,,,,1,,,74,75
126000,note_on,240,0,3,,,,,,,,,2,,,53,0
126000,note_on,0,0,3,,,,,,,,,2,,,62,62
126000,note_on,0,0,3,,,,,,,,,2,,,65,62
126000,note_on,120,0,2,,,,,,,,,1,,,74,0
126000,note_on,0,0,3,,,,,,,,,2,,,58,62
126000,note_on,0,0,2,,,,,,,,,1,,,77,75
126120,note_on,360,0,1,,,,,,,,,0,,,82,0
126120,note_on,0,0,1,,,,,,,,,0,,,84,88
126240,note_on,0,0,3,,,,,,,,,2,,,53,62
126240,note_on,0,0,3,,,,,,,,,2,,,58,0
126240,note_on,240,0,2,,,,,,,,,1,,,77,0
126240,note_on,0,0,3,,,,,,,,,2,,,62,0
126240,note_on,240,0,3,,,,,,,,,2,,,65,0
126240,note_on,0,0,1,,,,,,,,,0,,,82,88
126240,note_on,120,0,1,,,,,,,,,0,,,84,0
126360,note_on,120,0,2,,,,,,,,,1,,,74,75
126480,note_on,0,0,3,,,,,,,,,2,,,58,62
126480,note_on,240,0,3,,,,,,,,,2,,,53,0
126480,note_on,0,0,3,,,,,,,,,2,,,65,62
126480,note_on,0,0,3,,,,,,,,,2,,,62,62
126480,note_on,0,0,2,,,,,,,,,1,,,77,75
126480,note_on,120,0,2,,,,,,,,,1,,,74,0
126600,note_on,360,0,1,,,,,,,,,0,,,82,0
126600,note_on,0,0,1,,,,,,,,,0,,,86,88
126720,note_on,120,0,1,,,,,,,,,0,,,86,0
126720,note_on,0,0,3,,,,,,,,,2,,,62,0
126720,note_on,0,0,3,,,,,,,,,2,,,58,0
126720,note_on,0,0,3,,,,,,,,,2,,,57,75
126720,note_on,0,0,3,,,,,,,,,2,,,53,75
126720,note_on,240,0,3,,,,,,,,,2,,,65,0
126720,note_on,0,0,1,,,,,,,,,0,,,72,88
126720,note_on,0,0,1,,,,,,,,,0,,,84,88
126720,note_on,240,0,2,,,,,,,,,1,,,77,0
126960,note_on,240,0,1,,,,,,,,,0,,,84,0
126960,note_on,240,0,3,,,,,,,,,2,,,57,0
126960,note_on,0,0,3,,,,,,,,,2,,,53,0
126960,note_on,0,0,1,,,,,,,,,0,,,72,0
127200,note_on,0,0,1,,,,,,,,,0,,,87,88
127200,note_on,19680,0,4,,,,,,,,,3,,,67,75
127200,note_on,240,0,1,,,,,,,,,0,,,75,88
127320,note_on,360,0,3,,,,,,,,,2,,,72,75
127440,note_on,120,0,3,,,,,,,,,2,,,72,0
127440,note_on,0,0,3,,,,,,,,,2,,,70,75
127560,note_on,0,0,4,,,,,,,,,3,,,67,75
127560,note_on,120,0,3,,,,,,,,,2,,,70,0
127560,note_on,360,0,4,,,,,,,,,3,,,67,0
127680,note_on,120,0,4,,,,,,,,,3,,,67,0
127680,note_on,0,0,4,,,,,,,,,3,,,65,75
127680,note_on,480,0,1,,,,,,,,,0,,,87,0
127680,note_on,0,0,1,,,,,,,,,0,,,74,88
127680,note_on,0,0,1,,,,,,,,,0,,,75,0
127680,note_on,0,0,1,,,,,,,,,0,,,86,88
127800,note_on,240,0,3,,,,,,,,,2,,,70,75
127920,note_on,120,0,3,,,,,,,,,2,,,70,0
127920,note_on,0,0,3,,,,,,,,,2,,,69,75
128040,note_on,360,0,4,,,,,,,,,3,,,65,0
128040,note_on,120,0,3,,,,,,,,,2,,,69,0
128040,note_on,0,0,4,,,,,,,,,3,,,65,75
128160,note_on,480,0,1,,,,,,,,,0,,,86,0
128160,note_on,0,0,1,,,,,,,,,0,,,72,88
128160,note_on,120,0,4,,,,,,,,,3,,,65,0
128160,note_on,0,0,4,,,,,,,,,3,,,63,75
128160,note_on,0,0,1,,,,,,,,,0,,,74,0
128160,note_on,0,0,1,,,,,,,,,0,,,84,88
128280,note_on,240,0,3,,,,,,,,,2,,,69,75
128400,note_on,0,0,3,,,,,,,,,2,,,67,75
128400,note_on,120,0,3,,,,,,,,,2,,,69,0
128520,note_on,0,0,4,,,,,,,,,3,,,63,75
128520,note_on,360,0,4,,,,,,,,,3,,,63,0
128520,note_on,120,0,3,,,,,,,,,2,,,67,0
128640,note_on,120,0,4,,,,,,,,,3,,,63,0
128640,note_on,480,0,1,,,,,,,,,0,,,84,0
128640,note_on,0,0,1,,,,,,,,,0,,,72,0
128640,note_on,0,0,1,,,,,,,,,0,,,82,88
128640,note_on,0,0,4,,,,,,,,,3,,,62,75
128640,note_on,0,0,1,,,,,,,,,0,,,70,88
128760,note_on,240,0,3,,,,,,,,,2,,,67,75
128880,note_on,0,0,3,,,,,,,,,2,,,65,75
128880,note_on,120,0,3,,,,,,,,,2,,,67,0
129000,note_on,120,0,3,,,,,,,,,2,,,65,0
129000,note_on,360,0,4,,,,,,,,,3,,,62,0
129000,note_on,0,0,4,,,,,,,,,3,,,62,75
129120,note_on,0,0,1,,,,,,,,,0,,,70,0
129120,note_on,480,0,1,,,,,,,,,0,,,82,0
129120,note_on,0,0,4,,,,,,,,,3,,,60,75
129120,note_on,120,0,4,,,,,,,,,3,,,62,0
129120,note_on,0,0,1,,,,,,,,,0,,,81,88
129120,note_on,0,0,1,,,,,,,,,0,,,69,88
129240,note_on,240,0,3,,,,,,,,,2,,,65,75
129360,note_on,120,0,3,,,,,,,,,2,,,65,0
129360,note_on,0,0,3,,,,,,,,,2,,,63,75
129480,note_on,120,0,3,,,,,,,,,2,,,63,0
129480,note_on,360,0,4,,,,,,,,,3,,,60,0
129480,note_on,0,0,4,,,,,,,,,3,,,60,75
129600,note_on,0,0,1,,,,,,,,,0,,,69,0
129600,note_on,480,0,1,,,,,,,,,0,,,81,0
129600,note_on,0,0,1,,,,,,,,,0,,,79,88
129600,note_on,120,0,4,,,,,,,,,3,,,60,0
129600,note_on,0,0,4,,,,,,,,,3,,,58,75
129600,note_on,0,0,1,,,,,,,,,0,,,67,88
129720,note_on,240,0,3,,,,,,,,,2,,,63,75
129840,note_on,0,0,3,,,,,,,,,2,,,62,75
129840,note_on,120,0,3,,,,,,,,,2,,,63,0
129960,note_on,360,0,4,,,,,,,,,3,,,58,0
129960,note_on,0,0,4,,,,,,,,,3,,,58,75
129960,note_on,120,0,3,,,,,,,,,2,,,62,0
130080,note_on,480,0,1,,,,,,,,,0,,,79,0
130080,note_on,0,0,4,,,,,,,,,3,,,57,75
130080,note_on,0,0,1,,,,,,,,,0,,,65,88
130080,note_on,0,0,1,,,,,,,,,0,,,67,0
130080,note_on,0,0,1,,,,,,,,,0,,,77,88
130080,note_on,120,0,4,,,,,,,,,3,,,58,0
130200,note_on,240,0,3,,,,,,,,,2,,,62,75
130320,note_on,120,0,3,,,,,,,,,2,,,62,0
130320,note_on,0,0,3,,,,,,,,,2,,,60,75
130440,note_on,120,0,3,,,,,,,,,2,,,60,0
130440,note_on,0,0,4,,,,,,,,,3,,,57,75
130440,note_on,360,0,4,,,,,,,,,3,,,57,0
130560,note_on,0,0,1,,,,,,,,,0,,,65,0
130560,note_on,120,0,4,,,,,,,,,3,,,57,0
130560,note_on,0,0,4,,,,,,,,,3,,,55,75
130560,note_on,480,0,1,,,,,,,,,0,,,77,0
130560,note_on,0,0,1,,,,,,,,,0,,,75,88
130560,note_on,0,0,1,,,,,,,,,0,,,63,88
130680,note_on,240,0,3,,,,,,,,,2,,,60,75
130800,note_on,0,0,3,,,,,,,,,2,,,58,75
130800,note_on,120,0,3,,,,,,,,,2,,,60,0
130920,note_on,0,0,4,,,,,,,,,3,,,55,75
130920,note_on,360,0,4,,,,,,,,,3,,,55,0
130920,note_on,120,0,3,,,,,,,,,2,,,58,0
131040,note_on,0,0,1,,,,,,,,,0,,,74,88
131040,note_on,0,0,4,,,,,,,,,3,,,53,75
131040,note_on,120,0,4,,,,,,,,,3,,,55,0
131040,note_on,480,0,1,,,,,,,,,0,,,75,0
131040,note_on,0,0,1,,,,,,,,,0,,,63,0
131040,note_on,0,0,1,,,,,,,,,0,,,62,88
131160,note_on,240,0,3,,,,,,,,,2,,,58,75
131280,note_on,0,0,3,,,,,,,,,2,,,57,75
131280,note_on,120,0,3,,,,,,,,,2,,,58,0
131400,note_on,120,0,3,,,,,,,,,2,,,57,0
131400,note_on,360,0,4,,,,,,,,,3,,,53,0
131400,note_on,0,0,4,,,,,,,,,3,,,53,75
131520,note_on,0,0,1,,,,,,,,,0,,,60,88
131520,note_on,0,0,4,,,,,,,,,3,,,51,75
131520,note_on,120,0,4,,,,,,,,,3,,,53,0
131520,note_on,480,0,1,,,,,,,,,0,,,74,0
131520,note_on,0,0,1,,,,,,,,,0,,,72,88
131520,note_on,0,0,1,,,,,,,,,0,,,62,0
131640,note_on,240,0,3,,,,,,,,,2,,,57,75
131760,note_on,120,0,3,,,,,,,,,2,,,57,0
131760,note_on,0,0,3,,,,,,,,,2,,,55,75
131880,note_on,360,0,4,,,,,,,,,3,,,51,0
131880,note_on,0,0,4,,,,,,,,,3,,,51,75
131880,note_on,120,0,3,,,,,,,,,2,,,55,0
132000,note_on,0,0,4,,,,,,,,,3,,,50,75
132000,note_on,480,0,1,,,,,,,,,0,,,72,0
132000,note_on,0,0,1,,,,,,,,,0,,,58,88
132000,note_on,0,0,1,,,,,,,,,0,,,60,0
132000,note_on,120,0,4,,,,,,,,,3,,,51,0
132000,note_on,0,0,1,,,,,,,,,0,,,70,88
132120,note_on,240,0,3,,,,,,,,,2,,,55,75
132240,note_on,0,0,3,,,,,,,,,2,,,53,75
132240,note_on,120,0,3,,,,,,,,,2,,,55,0
132360,note_on,0,0,4,,,,,,,,,3,,,50,75
132360,note_on,360,0,4,,,,,,,,,3,,,50,0
132360,note_on,120,0,3,,,,,,,,,2,,,53,0
132480,note_on,0,0,1,,,,,,,,,0,,,57,88
132480,note_on,0,0,1,,,,,,,,,0,,,58,0
132480,note_on,0,0,1,,,,,,,,,0,,,69,88
132480,note_on,120,0,3,,,,,,,,,2,,,48,75
132480,note_on,120,0,4,,,,,,,,,3,,,50,0
132480,end_of_track,0,1,4,,,,,,,,,,,,,
132480,note_on,480,0,1,,,,,,,,,0,,,70,0
132600,note_on,0,0,3,,,,,,,,,2,,,53,75
132600,note_on,0,0,3,,,,,,,,,2,,,51,75
132600,note_on,120,0,3,,,,,,,,,2,,,48,0
132720,note_on,0,0,3,,,,,,,,,2,,,51,0
132720,note_on,0,0,3,,,,,,,,,2,,,46,75
132720,note_on,120,0,3,,,,,,,,,2,,,53,0
132720,note_on,0,0,1,,,,,,,,,0,,,58,88
132720,note_on,0,0,1,,,,,,,,,0,,,57,0
132720,note_on,0,0,1,,,,,,,,,0,,,70,88
132720,note_on,240,0,1,,,,,,,,,0,,,69,0
132840,note_on,0,0,3,,,,,,,,,2,,,53,75
132840,note_on,0,0,3,,,,,,,,,2,,,51,75
132840,note_on,120,0,3,,,,,,,,,2,,,46,0
132960,note_on,0,0,3,,,,,,,,,2,,,45,75
132960,note_on,120,0,3,,,,,,,,,2,,,53,0
132960,note_on,0,0,1,,,,,,,,,0,,,58,0
132960,note_on,0,0,1,,,,,,,,,0,,,60,88
132960,note_on,0,0,1,,,,,,,,,0,,,72,88
132960,note_on,0,0,3,,,,,,,,,2,,,51,0
132960,note_on,240,0,1,,,,,,,,,0,,,70,0
133080,note_on,120,0,3,,,,,,,,,2,,,45,0
133080,note_on,0,0,3,,,,,,,,,2,,,53,75
133080,note_on,0,0,3,,,,,,,,,2,,,51,75
133200,note_on,240,0,1,,,,,,,,,0,,,72,0
133200,note_on,0,0,3,,,,,,,,,2,,,51,0
133200,note_on,0,0,1,,,,,,,,,0,,,74,88
133200,note_on,0,0,1,,,,,,,,,0,,,60,0
133200,note_on,120,0,3,,,,,,,,,2,,,53,0
133200,note_on,0,0,1,,,,,,,,,0,,,62,88
133200,note_on,0,0,3,,,,,,,,,2,,,43,75
133320,note_on,120,0,3,,,,,,,,,2,,,43,0
133320,note_on,0,0,3,,,,,,,,,2,,,51,75
133320,note_on,0,0,3,,,,,,,,,2,,,53,75
133440,note_on,120,0,3,,,,,,,,,2,,,53,0
133440,note_on,0,0,1,,,,,,,,,0,,,75,88
133440,note_on,240,0,1,,,,,,,,,0,,,74,0
133440,note_on,0,0,1,,,,,,,,,0,,,63,88
133440,note_on,0,0,1,,,,,,,,,0,,,62,0
133440,note_on,0,0,3,,,,,,,,,2,,,41,75
133440,note_on,0,0,3,,,,,,,,,2,,,51,0
133560,note_on,0,0,3,,,,,,,,,2,,,53,75
133560,note_on,0,0,3,,,,,,,,,2,,,51,75
133560,note_on,120,0,3,,,,,,,,,2,,,41,0
133680,note_on,0,0,3,,,,,,,,,2,,,51,0
133680,note_on,0,0,3,,,,,,,,,2,,,43,75
133680,note_on,120,0,3,,,,,,,,,2,,,53,0
133800,note_on,120,0,3,,,,,,,,,2,,,43,0
133800,note_on,0,0,3,,,,,,,,,2,,,53,75
133800,note_on,0,0,3,,,,,,,,,2,,,51,75
133920,note_on,0,0,3,,,,,,,,,2,,,45,75
133920,note_on,0,0,3,,,,,,,,,2,,,51,0
133920,note_on,120,0,3,,,,,,,,,2,,,53,0
134040,note_on,0,0,3,,,,,,,,,2,,,53,75
134040,note_on,120,0,3,,,,,,,,,2,,,45,0
134040,note_on,0,0,3,,,,,,,,,2,,,51,75
134160,note_on,120,0,3,,,,,,,,,2,,,53,0
134160,note_on,0,0,3,,,,,,,,,2,,,51,0
134160,note_on,0,0,1,,,,,,,,,0,,,60,88
134160,note_on,0,0,1,,,,,,,,,0,,,63,0
134160,note_on,0,0,3,,,,,,,,,2,,,46,75
134160,note_on,0,0,1,,,,,,,,,0,,,72,88
134160,note_on,720,0,1,,,,,,,,,0,,,75,0
134280,note_on,120,0,3,,,,,,,,,2,,,46,0
134280,note_on,0,0,3,,,,,,,,,2,,,53,75
134280,note_on,0,0,3,,,,,,,,,2,,,51,75
134400,note_on,0,0,3,,,,,,,,,2,,,48,75
134400,note_on,0,0,1,,,,,,,,,0,,,57,88
134400,note_on,0,0,1,,,,,,,,,0,,,60,0
134400,note_on,120,0,3,,,,,,,,,2,,,53,0
134400,note_on,240,0,1,,,,,,,,,0,,,72,0
134400,note_on,0,0,1,,,,,,,,,0,,,69,88
134400,note_on,0,0,3,,,,,,,,,2,,,51,0
134520,note_on,0,0,3,,,,,,,,,2,,,51,75
134520,note_on,120,0,3,,,,,,,,,2,,,48,0
134520,note_on,0,0,3,,,,,,,,,2,,,53,75
134640,note_on,0,0,1,,,,,,,,,0,,,57,0
134640,note_on,240,0,1,,,,,,,,,0,,,69,0
134640,note_on,0,0,1,,,,,,,,,0,,,58,88
134640,note_on,120,0,3,,,,,,,,,2,,,53,0
134640,note_on,0,0,1,,,,,,,,,0,,,70,88
134640,note_on,0,0,3,,,,,,,,,2,,,51,0
134640,note_on,0,0,3,,,,,,,,,2,,,46,75
134760,note_on,120,0,3,,,,,,,,,2,,,46,0
134760,note_on,0,0,3,,,,,,,,,2,,,53,75
134760,note_on,0,0,3,,,,,,,,,2,,,51,75
134880,note_on,0,0,3,,,,,,,,,2,,,51,0
134880,note_on,240,0,1,,,,,,,,,0,,,70,0
134880,note_on,0,0,3,,,,,,,,,2,,,45,75
134880,note_on,0,0,1,,,,,,,,,0,,,58,0
134880,note_on,0,0,1,,,,,,,,,0,,,72,88
134880,note_on,120,0,3,,,,,,,,,2,,,53,0
134880,note_on,0,0,1,,,,,,,,,0,,,60,88
135000,note_on,120,0,3,,,,,,,,,2,,,45,0
135000,note_on,0,0,3,,,,,,,,,2,,,51,75
135000,note_on,0,0,3,,,,,,,,,2,,,53,75
135120,note_on,0,0,1,,,,,,,,,0,,,60,0
135120,note_on,0,0,1,,,,,,,,,0,,,62,88
135120,note_on,0,0,1,,,,,,,,,0,,,74,88
135120,note_on,120,0,3,,,,,,,,,2,,,53,0
135120,note_on,240,0,1,,,,,,,,,0,,,72,0
135120,note_on,0,0,3,,,,,,,,,2,,,43,75
135120,note_on,0,0,3,,,,,,,,,2,,,51,0
135240,note_on,120,0,3,,,,,,,,,2,,,43,0
135240,note_on,0,0,3,,,,,,,,,2,,,53,75
135240,note_on,0,0,3,,,,,,,,,2,,,51,75
135360,note_on,0,0,3,,,,,,,,,2,,,41,75
135360,note_on,0,0,3,,,,,,,,,2,,,51,0
135360,note_on,0,0,1,,,,,,,,,0,,,63,88
135360,note_on,0,0,1,,,,,,,,,0,,,62,0
135360,note_on,120,0,3,,,,,,,,,2,,,53,0
135360,note_on,0,0,1,,,,,,,,,0,,,75,88
135360,note_on,240,0,1,,,,,,,,,0,,,74,0
135480,note_on,0,0,3,,,,,,,,,2,,,51,75
135480,note_on,0,0,3,,,,,,,,,2,,,53,75
135480,note_on,120,0,3,,,,,,,,,2,,,41,0
135600,note_on,0,0,3,,,,,,,,,2,,,43,75
135600,note_on,0,0,3,,,,,,,,,2,,,51,0
135600,note_on,120,0,3,,,,,,,,,2,,,53,0
135720,note_on,120,0,3,,,,,,,,,2,,,43,0
135720,note_on,0,0,3,,,,,,,,,2,,,51,75
135720,note_on,0,0,3,,,,,,,,,2,,,53,75
135840,note_on,0,0,3,,,,,,,,,2,,,45,75
135840,note_on,0,0,3,,,,,,,,,2,,,51,0
135840,note_on,120,0,3,,,,,,,,,2,,,53,0
135960,note_on,0,0,3,,,,,,,,,2,,,51,75
135960,note_on,120,0,3,,,,,,,,,2,,,45,0
135960,note_on,0,0,3,,,,,,,,,2,,,53,75
136080,note_on,0,0,3,,,,,,,,,2,,,46,75
136080,note_on,0,0,3,,,,,,,,,2,,,51,0
136080,note_on,0,0,1,,,,,,,,,0,,,60,88
136080,note_on,0,0,1,,,,,,,,,0,,,72,88
136080,note_on,720,0,1,,,,,,,,,0,,,75,0
136080,note_on,120,0,3,,,,,,,,,2,,,53,0
136080,note_on,0,0,1,,,,,,,,,0,,,63,0
136200,note_on,0,0,3,,,,,,,,,2,,,53,75
136200,note_on,120,0,3,,,,,,,,,2,,,46,0
136200,note_on,0,0,3,,,,,,,,,2,,,51,75
136320,note_on,0,0,1,,,,,,,,,0,,,60,0
136320,note_on,0,0,1,,,,,,,,,0,,,69,88
136320,note_on,120,0,3,,,,,,,,,2,,,53,0
136320,note_on,0,0,1,,,,,,,,,0,,,57,88
136320,note_on,0,0,3,,,,,,,,,2,,,48,75
136320,note_on,0,0,3,,,,,,,,,2,,,51,0
136320,note_on,240,0,1,,,,,,,,,0,,,72,0
136560,note_on,240,0,1,,,,,,,,,0,,,69,0
136560,note_on,0,0,1,,,,,,,,,0,,,57,0
136560,note_on,240,0,3,,,,,,,,,2,,,48,0
136800,note_on,0,0,3,,,,,,,,,2,,,63,88
136800,note_on,10080,0,2,,,,,,,,,1,,,77,75
136800,note_on,240,0,3,,,,,,,,,2,,,51,88
136800,note_on,240,0,1,,,,,,,,,0,,,77,88
136920,note_on,0,0,2,,,,,,,,,1,,,69,75
136920,note_on,120,0,2,,,,,,,,,1,,,77,0
137040,note_on,120,0,2,,,,,,,,,1,,,69,0
137040,note_on,0,0,2,,,,,,,,,1,,,72,75
137160,note_on,120,0,2,,,,,,,,,1,,,72,0
137160,note_on,0,0,2,,,,,,,,,1,,,79,75
137160,note_on,0,0,1,,,,,,,,,0,,,79,88
137160,note_on,360,0,1,,,,,,,,,0,,,77,0
137280,note_on,0,0,3,,,,,,,,,2,,,50,88
137280,note_on,480,0,3,,,,,,,,,2,,,63,0
137280,note_on,120,0,1,,,,,,,,,0,,,79,0
137280,note_on,0,0,1,,,,,,,,,0,,,77,88
137280,note_on,0,0,3,,,,,,,,,2,,,62,88
137280,note_on,0,0,2,,,,,,,,,1,,,77,75
137280,note_on,120,0,2,,,,,,,,,1,,,79,0
137280,note_on,0,0,3,,,,,,,,,2,,,51,0
137400,note_on,120,0,2,,,,,,,,,1,,,77,0
137400,note_on,0,0,2,,,,,,,,,1,,,70,75
137520,note_on,120,0,2,,,,,,,,,1,,,70,0
137520,note_on,0,0,2,,,,,,,,,1,,,74,75
137640,note_on,120,0,2,,,,,,,,,1,,,74,0
137640,note_on,0,0,2,,,,,,,,,1,,,79,75
137640,note_on,360,0,1,,,,,,,,,0,,,77,0
137640,note_on,0,0,1,,,,,,,,,0,,,79,88
137760,note_on,480,0,3,,,,,,,,,2,,,62,0
137760,note_on,0,0,3,,,,,,,,,2,,,48,88
137760,note_on,0,0,3,,,,,,,,,2,,,50,0
137760,note_on,120,0,2,,,,,,,,,1,,,79,0
137760,note_on,0,0,3,,,,,,,,,2,,,60,88
137760,note_on,120,0,1,,,,,,,,,0,,,79,0
137760,note_on,0,0,2,,,,,,,,,1,,,77,75
137760,note_on,0,0,1,,,,,,,,,0,,,77,88
137880,note_on,120,0,2,,,,,,,,,1,,,77,0
137880,note_on,0,0,2,,,,,,,,,1,,,69,75
138000,note_on,120,0,2,,,,,,,,,1,,,69,0
138000,note_on,0,0,2,,,,,,,,,1,,,75,75
138120,note_on,0,0,2,,,,,,,,,1,,,77,75
138120,note_on,360,0,1,,,,,,,,,0,,,77,0
138120,note_on,120,0,2,,,,,,,,,1,,,75,0
138120,note_on,0,0,1,,,,,,,,,0,,,79,88
138240,note_on,0,0,1,,,,,,,,,0,,,74,88
138240,note_on,0,0,2,,,,,,,,,1,,,74,75
138240,note_on,120,0,1,,,,,,,,,0,,,79,0
138240,note_on,0,0,3,,,,,,,,,2,,,46,88
138240,note_on,0,0,3,,,,,,,,,2,,,48,0
138240,note_on,0,0,3,,,,,,,,,2,,,58,88
138240,note_on,120,0,2,,,,,,,,,1,,,77,0
138240,note_on,480,0,3,,,,,,,,,2,,,60,0
138360,note_on,0,0,2,,,,,,,,,1,,,70,75
138360,note_on,120,0,2,,,,,,,,,1,,,74,0
138480,note_on,120,0,2,,,,,,,,,1,,,70,0
138480,note_on,0,0,2,,,,,,,,,1,,,74,75
138600,note_on,0,0,2,,,,,,,,,1,,,77,75
138600,note_on,0,0,1,,,,,,,,,0,,,77,88
138600,note_on,120,0,2,,,,,,,,,1,,,74,0
138600,note_on,360,0,1,,,,,,,,,0,,,74,0
138720,note_on,0,0,1,,,,,,,,,0,,,82,88
138720,note_on,120,0,2,,,,,,,,,1,,,77,0
138720,note_on,0,0,3,,,,,,,,,2,,,45,88
138720,note_on,0,0,2,,,,,,,,,1,,,82,75
138720,note_on,0,0,3,,,,,,,,,2,,,46,0
138720,note_on,0,0,3,,,,,,,,,2,,,57,88
138720,note_on,120,0,1,,,,,,,,,0,,,77,0
138720,note_on,480,0,3,,,,,,,,,2,,,58,0
138840,note_on,120,0,2,,,,,,,,,1,,,82,0
138840,note_on,0,0,2,,,,,,,,,1,,,74,75
138960,note_on,0,0,2,,,,,,,,,1,,,77,75
138960,note_on,120,0,2,,,,,,,,,1,,,74,0
139080,note_on,120,0,2,,,,,,,,,1,,,77,0
139080,note_on,0,0,2,,,,,,,,,1,,,84,75
139080,note_on,0,0,1,,,,,,,,,0,,,84,88
139080,note_on,360,0,1,,,,,,,,,0,,,82,0
139200,note_on,0,0,3,,,,,,,,,2,,,55,88
139200,note_on,0,0,3,,,,,,,,,2,,,45,0
139200,note_on,0,0,3,,,,,,,,,2,,,43,88
139200,note_on,120,0,1,,,,,,,,,0,,,84,0
139200,note_on,0,0,1,,,,,,,,,0,,,82,88
139200,note_on,480,0,3,,,,,,,,,2,,,57,0
139200,note_on,120,0,2,,,,,,,,,1,,,84,0
139200,note_on,0,0,2,,,,,,,,,1,,,82,75
139320,note_on,0,0,2,,,,,,,,,1,,,74,75
139320,note_on,120,0,2,,,,,,,,,1,,,82,0
139440,note_on,0,0,2,,,,,,,,,1,,,79,75
139440,note_on,120,0,2,,,,,,,,,1,,,74,0
139560,note_on,120,0,2,,,,,,,,,1,,,79,0
139560,note_on,0,0,1,,,,,,,,,0,,,84,88
139560,note_on,0,0,2,,,,,,,,,1,,,84,75
139560,note_on,360,0,1,,,,,,,,,0,,,82,0
139680,note_on,0,0,3,,,,,,,,,2,,,43,0
139680,note_on,120,0,2,,,,,,,,,1,,,84,0
139680,note_on,0,0,2,,,,,,,,,1,,,82,75
139680,note_on,0,0,3,,,,,,,,,2,,,53,88
139680,note_on,0,0,1,,,,,,,,,0,,,82,88
139680,note_on,0,0,3,,,,,,,,,2,,,41,88
139680,note_on,120,0,1,,,,,,,,,0,,,84,0
139680,note_on,480,0,3,,,,,,,,,2,,,55,0
139800,note_on,0,0,2,,,,,,,,,1,,,74,75
139800,note_on,120,0,2,,,,,,,,,1,,,82,0
139920,note_on,0,0,2,,,,,,,,,1,,,81,75
139920,note_on,120,0,2,,,,,,,,,1,,,74,0
140040,note_on,120,0,2,,,,,,,,,1,,,81,0
140040,note_on,0,0,2,,,,,,,,,1,,,82,75
140040,note_on,360,0,1,,,,,,,,,0,,,82,0
140040,note_on,0,0,1,,,,,,,,,0,,,82,88
140160,note_on,0,0,2,,,,,,,,,1,,,79,75
140160,note_on,0,0,3,,,,,,,,,2,,,51,88
140160,note_on,0,0,3,,,,,,,,,2,,,41,0
140160,note_on,0,0,3,,,,,,,,,2,,,39,88
140160,note_on,0,0,1,,,,,,,,,0,,,79,88
140160,note_on,120,0,1,,,,,,,,,0,,,82,0
140160,note_on,480,0,3,,,,,,,,,2,,,53,0
140160,note_on,120,0,2,,,,,,,,,1,,,82,0
140280,note_on,120,0,2,,,,,,,,,1,,,79,0
140280,note_on,0,0,2,,,,,,,,,1,,,75,75
140400,note_on,0,0,2,,,,,,,,,1,,,79,75
140400,note_on,120,0,2,,,,,,,,,1,,,75,0
140520,note_on,120,0,2,,,,,,,,,1,,,79,0
140520,note_on,0,0,2,,,,,,,,,1,,,82,75
140520,note_on,360,0,1,,,,,,,,,0,,,79,0
140520,note_on,0,0,1,,,,,,,,,0,,,82,88
140640,note_on,480,0,3,,,,,,,,,2,,,51,0
140640,note_on,0,0,2,,,,,,,,,1,,,87,75
140640,note_on,120,0,2,,,,,,,,,1,,,82,0
140640,note_on,0,0,1,,,,,,,,,0,,,87,88
140640,note_on,120,0,1,,,,,,,,,0,,,82,0
140640,note_on,0,0,3,,,,,,,,,2,,,50,88
140640,note_on,0,0,3,,,,,,,,,2,,,38,88
140640,note_on,0,0,3,,,,,,,,,2,,,39,0
140760,note_on,120,0,2,,,,,,,,,1,,,87,0
140760,note_on,0,0,2,,,,,,,,,1,,,79,75
140880,note_on,120,0,2,,,,,,,,,1,,,79,0
140880,note_on,0,0,2,,,,,,,,,1,,,82,75
141000,note_on,0,0,1,,,,,,,,,0,,,89,88
141000,note_on,360,0,1,,,,,,,,,0,,,87,0
141000,note_on,0,0,2,,,,,,,,,1,,,89,75
141000,note_on,120,0,2,,,,,,,,,1,,,82,0
141120,note_on,0,0,3,,,,,,,,,2,,,38,0
141120,note_on,0,0,3,,,,,,,,,2,,,48,88
141120,note_on,480,0,3,,,,,,,,,2,,,50,0
141120,note_on,0,0,2,,,,,,,,,1,,,87,75
141120,note_on,120,0,2,,,,,,,,,1,,,89,0
141120,note_on,120,0,1,,,,,,,,,0,,,89,0
141120,note_on,0,0,1,,,,,,,,,0,,,87,88
141120,note_on,0,0,3,,,,,,,,,2,,,36,88
141240,note_on,0,0,2,,,,,,,,,1,,,79,75
141240,note_on,120,0,2,,,,,,,,,1,,,87,0
141360,note_on,120,0,2,,,,,,,,,1,,,79,0
141360,note_on,0,0,2,,,,,,,,,1,,,84,75
141480,note_on,120,0,2,,,,,,,,,1,,,84,0
141480,note_on,0,0,2,,,,,,,,,1,,,89,75
141480,note_on,0,0,1,,,,,,,,,0,,,89,88
141480,note_on,360,0,1,,,,,,,,,0,,,87,0
141600,note_on,480,0,3,,,,,,,,,2,,,48,0
141600,note_on,0,0,3,,,,,,,,,2,,,46,88
141600,note_on,0,0,3,,,,,,,,,2,,,36,0
141600,note_on,120,0,2,,,,,,,,,1,,,89,0
141600,note_on,0,0,2,,,,,,,,,1,,,87,75
141600,note_on,120,0,1,,,,,,,,,0,,,89,0
141600,note_on,0,0,3,,,,,,,,,2,,,34,88
141600,note_on,0,0,1,,,,,,,,,0,,,87,88
141720,note_on,0,0,2,,,,,,,,,1,,,79,75
141720,note_on,120,0,2,,,,,,,,,1,,,87,0
141840,note_on,0,0,2,,,,,,,,,1,,,84,75
141840,note_on,120,0,2,,,,,,,,,1,,,79,0
141960,note_on,120,0,2,,,,,,,,,1,,,84,0
141960,note_on,0,0,2,,,,,,,,,1,,,86,75
141960,note_on,0,0,1,,,,,,,,,0,,,86,88
141960,note_on,360,0,1,,,,,,,,,0,,,87,0
142080,note_on,120,0,2,,,,,,,,,1,,,86,0
142080,note_on,120,0,1,,,,,,,,,0,,,86,0
142080,note_on,0,0,3,,,,,,,,,2,,,34,0
142080,note_on,0,0,1,,,,,,,,,0,,,87,101
142080,note_on,480,0,3,,,,,,,,,2,,,46,0
142080,end_of_track,0,1,2,,,,,,,,,,,,,
142080,note_on,0,0,3,,,,,,,,,2,,,33,101
142080,note_on,0,0,3,,,,,,,,,2,,,45,101
142200,note_on,120,0,1,,,,,,,,,0,,,87,0
142200,note_on,0,0,1,,,,,,,,,0,,,96,101
142320,note_on,0,0,3,,,,,,,,,2,,,33,0
142320,note_on,0,0,1,,,,,,,,,0,,,93,101
142320,note_on,0,0,3,,,,,,,,,2,,,46,101
142320,note_on,240,0,3,,,,,,,,,2,,,45,0
142320,note_on,120,0,1,,,,,,,,,0,,,96,0
142320,note_on,0,0,3,,,,,,,,,2,,,34,101
142440,note_on,120,0,1,,,,,,,,,0,,,93,0
142440,note_on,0,0,1,,,,,,,,,0,,,90,101
142560,note_on,0,0,3,,,,,,,,,2,,,34,0
142560,note_on,0,0,3,,,,,,,,,2,,,36,101
142560,note_on,120,0,1,,,,,,,,,0,,,90,0
142560,note_on,0,0,3,,,,,,,,,2,,,48,101
142560,note_on,0,0,1,,,,,,,,,0,,,87,101
142560,note_on,240,0,3,,,,,,,,,2,,,46,0
142680,note_on,0,0,1,,,,,,,,,0,,,84,101
142680,note_on,120,0,1,,,,,,,,,0,,,87,0
142800,note_on,0,0,3,,,,,,,,,2,,,38,101
142800,note_on,120,0,1,,,,,,,,,0,,,84,0
142800,note_on,0,0,3,,,,,,,,,2,,,50,101
142800,note_on,240,0,3,,,,,,,,,2,,,48,0
142800,note_on,0,0,3,,,,,,,,,2,,,36,0
142800,note_on,0,0,1,,,,,,,,,0,,,81,101
142920,note_on,120,0,1,,,,,,,,,0,,,81,0
142920,note_on,0,0,1,,,,,,,,,0,,,78,101
143040,note_on,0,0,3,,,,,,,,,2,,,38,0
143040,note_on,0,0,1,,,,,,,,,0,,,75,101
143040,note_on,0,0,3,,,,,,,,,2,,,51,101
143040,note_on,120,0,1,,,,,,,,,0,,,78,0
143040,note_on,0,0,3,,,,,,,,,2,,,39,101
143040,note_on,240,0,3,,,,,,,,,2,,,50,0
143160,note_on,0,0,1,,,,,,,,,0,,,84,101
143160,note_on,120,0,1,,,,,,,,,0,,,75,0
143280,note_on,0,0,1,,,,,,,,,0,,,81,101
143280,note_on,120,0,1,,,,,,,,,0,,,84,0
143400,note_on,0,0,1,,,,,,,,,0,,,78,101
143400,note_on,120,0,1,,,,,,,,,0,,,81,0
143520,note_on,120,0,1,,,,,,,,,0,,,78,0
143520,note_on,0,0,1,,,,,,,,,0,,,75,101
143640,note_on,120,0,1,,,,,,,,,0,,,75,0
143640,note_on,0,0,1,,,,,,,,,0,,,72,101
143760,note_on,0,0,3,,,,,,,,,2,,,39,0
143760,note_on,120,0,1,,,,,,,,,0,,,72,0
143760,note_on,0,0,1,,,,,,,,,0,,,69,101
143760,note_on,0,0,3,,,,,,,,,2,,,36,101
143760,note_on,720,0,3,,,,,,,,,2,,,51,0
143760,note_on,0,0,3,,,,,,,,,2,,,48,101
143880,note_on,0,0,1,,,,,,,,,0,,,66,101
143880,note_on,120,0,1,,,,,,,,,0,,,69,0
144000,note_on,0,0,3,,,,,,,,,2,,,45,101
144000,note_on,0,0,3,,,,,,,,,2,,,36,0
144000,note_on,0,0,3,,,,,,,,,2,,,33,101
144000,note_on,120,0,1,,,,,,,,,0,,,66,0
144000,note_on,240,0,3,,,,,,,,,2,,,48,0
144000,note_on,0,0,1,,,,,,,,,0,,,63,101
144120,note_on,0,0,1,,,,,,,,,0,,,60,101
144120,note_on,120,0,1,,,,,,,,,0,,,63,0
144240,note_on,0,0,1,,,,,,,,,0,,,63,101
144240,note_on,120,0,1,,,,,,,,,0,,,60,0
144240,note_on,0,0,3,,,,,,,,,2,,,33,0
144240,note_on,0,0,3,,,,,,,,,2,,,34,101
144240,note_on,240,0,3,,,,,,,,,2,,,45,0
144240,note_on,0,0,3,,,,,,,,,2,,,46,101
144360,note_on,120,0,1,,,,,,,,,0,,,63,0
144360,note_on,0,0,1,,,,,,,,,0,,,66,101
144480,note_on,0,0,3,,,,,,,,,2,,,48,101
144480,note_on,0,0,3,,,,,,,,,2,,,36,101
144480,note_on,240,0,3,,,,,,,,,2,,,46,0
144480,note_on,120,0,1,,,,,,,,,0,,,66,0
144480,note_on,0,0,1,,,,,,,,,0,,,69,101
144480,note_on,0,0,3,,,,,,,,,2,,,34,0
144600,note_on,0,0,1,,,,,,,,,0,,,72,101
144600,note_on,120,0,1,,,,,,,,,0,,,69,0
144720,note_on,0,0,3,,,,,,,,,2,,,38,101
144720,note_on,0,0,3,,,,,,,,,2,,,50,101
144720,note_on,0,0,3,,,,,,,,,2,,,36,0
144720,note_on,240,0,3,,,,,,,,,2,,,48,0
144720,note_on,120,0,1,,,,,,,,,0,,,72,0
144720,note_on,0,0,1,,,,,,,,,0,,,75,101
144840,note_on,120,0,1,,,,,,,,,0,,,75,0
144840,note_on,0,0,1,,,,,,,,,0,,,78,101
144960,note_on,120,0,1,,,,,,,,,0,,,78,0
144960,note_on,0,0,1,,,,,,,,,0,,,81,101
144960,note_on,0,0,3,,,,,,,,,2,,,51,101
144960,note_on,0,0,3,,,,,,,,,2,,,39,101
144960,note_on,0,0,3,,,,,,,,,2,,,38,0
144960,note_on,240,0,3,,,,,,,,,2,,,50,0
145080,note_on,120,0,1,,,,,,,,,0,,,81,0
145080,note_on,0,0,1,,,,,,,,,0,,,72,101
145200,note_on,0,0,1,,,,,,,,,0,,,75,101
145200,note_on,120,0,1,,,,,,,,,0,,,72,0
145320,note_on,120,0,1,,,,,,,,,0,,,75,0
145320,note_on,0,0,1,,,,,,,,,0,,,78,101
145440,note_on,0,0,1,,,,,,,,,0,,,84,101
145440,note_on,120,0,1,,,,,,,,,0,,,78,0
145560,note_on,120,0,1,,,,,,,,,0,,,84,0
145560,note_on,0,0,1,,,,,,,,,0,,,87,101
145680,note_on,0,0,3,,,,,,,,,2,,,36,101
145680,note_on,0,0,3,,,,,,,,,2,,,39,0
145680,note_on,0,0,3,,,,,,,,,2,,,48,101
145680,note_on,0,0,1,,,,,,,,,0,,,90,101
145680,note_on,120,0,1,,,,,,,,,0,,,87,0
145680,note_on,720,0,3,,,,,,,,,2,,,51,0
145800,note_on,0,0,1,,,,,,,,,0,,,93,101
145800,note_on,120,0,1,,,,,,,,,0,,,90,0
145920,note_on,120,0,1,,,,,,,,,0,,,93,0
145920,note_on,240,0,3,,,,,,,,,2,,,48,0
145920,note_on,0,0,1,,,,,,,,,0,,,89,101
145920,note_on,0,0,3,,,,,,,,,2,,,47,101
145920,note_on,0,0,3,,,,,,,,,2,,,36,0
145920,note_on,0,0,3,,,,,,,,,2,,,35,101
146040,note_on,120,0,1,,,,,,,,,0,,,89,0
146040,note_on,0,0,1,,,,,,,,,0,,,98,101
146160,note_on,0,0,3,,,,,,,,,2,,,48,101
146160,note_on,0,0,3,,,,,,,,,2,,,36,101
146160,note_on,240,0,3,,,,,,,,,2,,,47,0
146160,note_on,120,0,1,,,,,,,,,0,,,98,0
146160,note_on,0,0,3,,,,,,,,,2,,,35,0
146160,note_on,0,0,1,,,,,,,,,0,,,92,101
146280,note_on,0,0,1,,,,,,,,,0,,,89,101
146280,note_on,120,0,1,,,,,,,,,0,,,92,0
146400,note_on,240,0,3,,,,,,,,,2,,,48,0
146400,note_on,0,0,3,,,,,,,,,2,,,38,101
146400,note_on,0,0,1,,,,,,,,,0,,,86,101
146400,note_on,0,0,3,,,,,,,,,2,,,36,0
146400,note_on,0,0,3,,,,,,,,,2,,,50,101
146400,note_on,120,0,1,,,,,,,,,0,,,89,0
146520,note_on,120,0,1,,,,,,,,,0,,,86,0
146520,note_on,0,0,1,,,,,,,,,0,,,80,101
146640,note_on,240,0,3,,,,,,,,,2,,,50,0
146640,note_on,0,0,1,,,,,,,,,0,,,77,101
146640,note_on,0,0,3,,,,,,,,,2,,,38,0
146640,note_on,0,0,3,,,,,,,,,2,,,51,101
146640,note_on,0,0,3,,,,,,,,,2,,,39,101
146640,note_on,120,0,1,,,,,,,,,0,,,80,0
146760,note_on,120,0,1,,,,,,,,,0,,,77,0
146760,note_on,0,0,1,,,,,,,,,0,,,74,101
146880,note_on,0,0,3,,,,,,,,,2,,,39,0
146880,note_on,0,0,1,,,,,,,,,0,,,77,101
146880,note_on,0,0,3,,,,,,,,,2,,,53,101
146880,note_on,120,0,1,,,,,,,,,0,,,74,0
146880,note_on,240,0,3,,,,,,,,,2,,,51,0
146880,note_on,0,0,3,,,,,,,,,2,,,41,101
147000,note_on,120,0,1,,,,,,,,,0,,,77,0
147000,note_on,0,0,1,,,,,,,,,0,,,86,101
147120,note_on,120,0,1,,,,,,,,,0,,,86,0
147120,note_on,0,0,1,,,,,,,,,0,,,83,101
147240,note_on,120,0,1,,,,,,,,,0,,,83,0
147240,note_on,0,0,1,,,,,,,,,0,,,80,101
147360,note_on,120,0,1,,,,,,,,,0,,,80,0
147360,note_on,0,0,1,,,,,,,,,0,,,77,101
147480,note_on,120,0,1,,,,,,,,,0,,,77,0
147480,note_on,0,0,1,,,,,,,,,0,,,74,101
147600,note_on,0,0,1,,,,,,,,,0,,,71,101
147600,note_on,720,0,3,,,,,,,,,2,,,53,0
147600,note_on,0,0,3,,,,,,,,,2,,,50,101
147600,note_on,0,0,3,,,,,,,,,2,,,41,0
147600,note_on,0,0,3,,,,,,,,,2,,,38,101
147600,note_on,120,0,1,,,,,,,,,0,,,74,0
147720,note_on,120,0,1,,,,,,,,,0,,,71,0
147720,note_on,0,0,1,,,,,,,,,0,,,68,101
147840,note_on,0,0,1,,,,,,,,,0,,,65,101
147840,note_on,240,0,3,,,,,,,,,2,,,50,0
147840,note_on,0,0,3,,,,,,,,,2,,,47,101
147840,note_on,120,0,1,,,,,,,,,0,,,68,0
147840,note_on,0,0,3,,,,,,,,,2,,,38,0
147840,note_on,0,0,3,,,,,,,,,2,,,35,101
147960,note_on,120,0,1,,,,,,,,,0,,,65,0
147960,note_on,0,0,1,,,,,,,,,0,,,62,101
148080,note_on,240,0,3,,,,,,,,,2,,,47,0
148080,note_on,120,0,1,,,,,,,,,0,,,62,0
148080,note_on,0,0,3,,,,,,,,,2,,,48,101
148080,note_on,0,0,3,,,,,,,,,2,,,36,101
148080,note_on,0,0,3,,,,,,,,,2,,,35,0
148080,note_on,0,0,1,,,,,,,,,0,,,65,101
148200,note_on,0,0,1,,,,,,,,,0,,,68,101
148200,note_on,120,0,1,,,,,,,,,0,,,65,0
148320,note_on,240,0,3,,,,,,,,,2,,,48,0
148320,note_on,0,0,3,,,,,,,,,2,,,36,0
148320,note_on,0,0,3,,,,,,,,,2,,,38,101
148320,note_on,0,0,3,,,,,,,,,2,,,50,101
148320,note_on,0,0,1,,,,,,,,,0,,,71,101
148320,note_on,120,0,1,,,,,,,,,0,,,68,0
148440,note_on,0,0,1,,,,,,,,,0,,,74,101
148440,note_on,120,0,1,,,,,,,,,0,,,71,0
148560,note_on,0,0,3,,,,,,,,,2,,,51,101
148560,note_on,0,0,3,,,,,,,,,2,,,39,101
148560,note_on,0,0,3,,,,,,,,,2,,,38,0
148560,note_on,0,0,1,,,,,,,,,0,,,77,101
148560,note_on,240,0,3,,,,,,,,,2,,,50,0
148560,note_on,120,0,1,,,,,,,,,0,,,74,0
148680,note_on,0,0,1,,,,,,,,,0,,,80,101
148680,note_on,120,0,1,,,,,,,,,0,,,77,0
148800,note_on,0,0,3,,,,,,,,,2,,,39,0
148800,note_on,240,0,3,,,,,,,,,2,,,51,0
148800,note_on,0,0,3,,,,,,,,,2,,,41,88
148800,note_on,120,0,1,,,,,,,,,0,,,80,0
148800,note_on,0,0,1,,,,,,,,,0,,,83,88
148800,note_on,0,0,3,,,,,,,,,2,,,53,88
148920,note_on,120,0,1,,,,,,,,,0,,,83,0
148920,note_on,0,0,1,,,,,,,,,0,,,86,88
149040,note_on,120,0,1,,,,,,,,,0,,,86,0
149040,note_on,0,0,1,,,,,,,,,0,,,89,88
149160,note_on,120,0,1,,,,,,,,,0,,,89,0
149160,note_on,0,0,1,,,,,,,,,0,,,92,88
149280,note_on,0,0,1,,,,,,,,,0,,,95,75
149280,note_on,120,0,1,,,,,,,,,0,,,92,0
149400,note_on,120,0,1,,,,,,,,,0,,,95,0
149400,note_on,0,0,1,,,,,,,,,0,,,98,75
149520,note_on,0,0,1,,,,,,,,,0,,,101,75
149520,note_on,120,0,1,,,,,,,,,0,,,98,0
149520,note_on,720,0,3,,,,,,,,,2,,,53,0
149520,note_on,0,0,3,,,,,,,,,2,,,41,0
149520,note_on,0,0,3,,,,,,,,,2,,,38,75
149520,note_on,0,0,3,,,,,,,,,2,,,50,75
149640,note_on,0,0,1,,,,,,,,,0,,,98,75
149640,note_on,120,0,1,,,,,,,,,0,,,101,0
149760,note_on,120,0,1,,,,,,,,,0,,,98,0
149760,note_on,0,0,3,,,,,,,,,2,,,38,0
149760,note_on,0,0,3,,,,,,,,,2,,,36,49
149760,note_on,0,0,1,,,,,,,,,0,,,99,49
149760,note_on,240,0,3,,,,,,,,,2,,,50,0
149880,note_on,120,0,1,,,,,,,,,0,,,99,0
149880,note_on,0,0,1,,,,,,,,,0,,,87,49
150000,note_on,0,0,3,,,,,,,,,2,,,48,49
150000,note_on,0,0,1,,,,,,,,,0,,,91,49
150000,note_on,240,0,3,,,,,,,,,2,,,36,0
150000,note_on,120,0,1,,,,,,,,,0,,,87,0
150120,note_on,120,0,1,,,,,,,,,0,,,91,0
150120,note_on,0,0,1,,,,,,,,,0,,,99,49
150240,note_on,120,0,1,,,,,,,,,0,,,99,0
150240,note_on,0,0,3,,,,,,,,,2,,,38,49
150240,note_on,240,0,3,,,,,,,,,2,,,48,0
150240,note_on,0,0,1,,,,,,,,,0,,,98,49
150360,note_on,120,0,1,,,,,,,,,0,,,98,0
150360,note_on,0,0,1,,,,,,,,,0,,,86,49
150480,note_on,120,0,1,,,,,,,,,0,,,86,0
150480,note_on,240,0,3,,,,,,,,,2,,,38,0
150480,note_on,0,0,3,,,,,,,,,2,,,50,49
150480,note_on,0,0,1,,,,,,,,,0,,,91,49
150600,note_on,0,0,1,,,,,,,,,0,,,98,49
150600,note_on,120,0,1,,,,,,,,,0,,,91,0
150720,note_on,120,0,1,,,,,,,,,0,,,98,0
150720,note_on,240,0,3,,,,,,,,,2,,,50,0
150720,note_on,0,0,3,,,,,,,,,2,,,39,49
150720,note_on,0,0,1,,,,,,,,,0,,,96,49
150840,note_on,0,0,1,,,,,,,,,0,,,84,49
150840,note_on,120,0,1,,,,,,,,,0,,,96,0
150960,note_on,0,0,1,,,,,,,,,0,,,91,49
150960,note_on,120,0,1,,,,,,,,,0,,,84,0
150960,note_on,240,0,3,,,,,,,,,2,,,39,0
150960,note_on,0,0,3,,,,,,,,,2,,,51,49
151080,note_on,0,0,1,,,,,,,,,0,,,96,49
151080,note_on,120,0,1,,,,,,,,,0,,,91,0
151200,note_on,0,0,3,,,,,,,,,2,,,40,62
151200,note_on,120,0,1,,,,,,,,,0,,,96,0
151200,note_on,240,0,3,,,,,,,,,2,,,51,0
151200,note_on,0,0,1,,,,,,,,,0,,,94,62
151320,note_on,120,0,1,,,,,,,,,0,,,94,0
151320,note_on,0,0,1,,,,,,,,,0,,,84,62
151440,note_on,0,0,1,,,,,,,,,0,,,91,62
151440,note_on,0,0,3,,,,,,,,,2,,,52,62
151440,note_on,120,0,1,,,,,,,,,0,,,84,0
151440,note_on,240,0,3,,,,,,,,,2,,,40,0
151560,note_on,0,0,1,,,,,,,,,0,,,94,62
151560,note_on,120,0,1,,,,,,,,,0,,,91,0
151680,note_on,120,0,1,,,,,,,,,0,,,94,0
151680,note_on,0,0,3,,,,,,,,,2,,,41,62
151680,note_on,0,0,1,,,,,,,,,0,,,93,62
151680,note_on,240,0,3,,,,,,,,,2,,,52,0
151800,note_on,120,0,1,,,,,,,,,0,,,93,0
151800,note_on,0,0,1,,,,,,,,,0,,,84,62
151920,note_on,0,0,3,,,,,,,,,2,,,53,62
151920,note_on,0,0,1,,,,,,,,,0,,,89,62
151920,note_on,120,0,1,,,,,,,,,0,,,84,0
151920,note_on,240,0,3,,,,,,,,,2,,,41,0
152040,note_on,120,0,1,,,,,,,,,0,,,89,0
152040,note_on,0,0,1,,,,,,,,,0,,,93,62
152160,note_on,0,0,3,,,,,,,,,2,,,43,75
152160,note_on,240,0,3,,,,,,,,,2,,,53,0
152160,note_on,0,0,1,,,,,,,,,0,,,91,75
152160,note_on,120,0,1,,,,,,,,,0,,,93,0
152280,note_on,0,0,1,,,,,,,,,0,,,84,75
152280,note_on,120,0,1,,,,,,,,,0,,,91,0
152400,note_on,120,0,1,,,,,,,,,0,,,84,0
152400,note_on,240,0,3,,,,,,,,,2,,,43,0
152400,note_on,0,0,3,,,,,,,,,2,,,55,75
152400,note_on,0,0,1,,,,,,,,,0,,,88,75
152520,note_on,0,0,1,,,,,,,,,0,,,91,75
152520,note_on,120,0,1,,,,,,,,,0,,,88,0
152640,note_on,120,0,1,,,,,,,,,0,,,91,0
152640,note_on,0,0,3,,,,,,,,,2,,,44,75
152640,note_on,240,0,3,,,,,,,,,2,,,55,0
152640,note_on,0,0,1,,,,,,,,,0,,,89,75
152760,note_on,0,0,1,,,,,,,,,0,,,77,75
152760,note_on,120,0,1,,,,,,,,,0,,,89,0
152880,note_on,0,0,3,,,,,,,,,2,,,56,75
152880,note_on,240,0,3,,,,,,,,,2,,,44,0
152880,note_on,0,0,1,,,,,,,,,0,,,84,75
152880,note_on,120,0,1,,,,,,,,,0,,,77,0
153000,note_on,0,0,1,,,,,,,,,0,,,89,75
153000,note_on,120,0,1,,,,,,,,,0,,,84,0
153120,note_on,120,0,1,,,,,,,,,0,,,89,0
153120,note_on,0,0,1,,,,,,,,,0,,,87,88
153120,note_on,240,0,3,,,,,,,,,2,,,56,0
153120,note_on,0,0,3,,,,,,,,,2,,,45,88
153240,note_on,120,0,1,,,,,,,,,0,,,87,0
153240,note_on,0,0,1,,,,,,,,,0,,,77,88
153360,note_on,0,0,3,,,,,,,,,2,,,57,88
153360,note_on,0,0,1,,,,,,,,,0,,,84,88
153360,note_on,240,0,3,,,,,,,,,2,,,45,0
153360,note_on,120,0,1,,,,,,,,,0,,,77,0
153480,note_on,120,0,1,,,,,,,,,0,,,84,0
153480,note_on,0,0,1,,,,,,,,,0,,,87,88
153600,note_on,0,0,3,,,,,,,,,2,,,46,88
153600,note_on,0,0,1,,,,,,,,,0,,,86,88
153600,note_on,240,0,3,,,,,,,,,2,,,57,0
153600,note_on,120,0,1,,,,,,,,,0,,,87,0
153840,note_on,240,0,3,,,,,,,,,2,,,46,0
153840,note_on,240,0,1,,,,,,,,,0,,,86,0
154080,note_on,0,0,3,,,,,,,,,2,,,56,88
154080,note_on,0,0,1,,,,,,,,,0,,,65,88
154080,note_on,240,0,3,,,,,,,,,2,,,44,88
154080,note_on,0,0,1,,,,,,,,,0,,,70,88
154080,note_on,0,0,1,,,,,,,,,0,,,74,88
154080,note_on,240,0,1,,,,,,,,,0,,,62,88
154560,note_on,0,0,3,,,,,,,,,2,,,44,0
154560,note_on,480,0,1,,,,,,,,,0,,,74,0
154560,note_on,0,0,1,,,,,,,,,0,,,75,88
154560,note_on,0,0,1,,,,,,,,,0,,,67,88
154560,note_on,0,0,1,,,,,,,,,0,,,65,0
154560,note_on,0,0,1,,,,,,,,,0,,,63,88
154560,note_on,0,0,1,,,,,,,,,0,,,62,0
154560,note_on,0,0,1,,,,,,,,,0,,,70,0
154560,note_on,480,0,3,,,,,,,,,2,,,56,0
154560,note_on,0,0,3,,,,,,,,,2,,,43,88
154560,note_on,0,0,3,,,,,,,,,2,,,55,88
154560,note_on,0,0,1,,,,,,,,,0,,,70,88
155040,note_on,0,0,1,,,,,,,,,0,,,70,0
155040,note_on,0,0,1,,,,,,,,,0,,,70,88
155040,note_on,0,0,1,,,,,,,,,0,,,75,88
155040,note_on,0,0,1,,,,,,,,,0,,,79,88
155040,note_on,0,0,1,,,,,,,,,0,,,63,0
155040,note_on,0,0,1,,,,,,,,,0,,,67,88
155040,note_on,0,0,1,,,,,,,,,0,,,67,0
155040,note_on,480,0,1,,,,,,,,,0,,,75,0
155040,note_on,480,0,3,,,,,,,,,2,,,55,0
155040,note_on,0,0,3,,,,,,,,,2,,,51,88
155040,note_on,0,0,3,,,,,,,,,2,,,43,0
155040,note_on,0,0,3,,,,,,,,,2,,,39,88
155520,note_on,0,0,1,,,,,,,,,0,,,70,0
155520,note_on,0,0,1,,,,,,,,,0,,,77,88
155520,note_on,0,0,1,,,,,,,,,0,,,67,0
155520,note_on,0,0,1,,,,,,,,,0,,,70,88
155520,note_on,0,0,1,,,,,,,,,0,,,74,88
155520,note_on,0,0,1,,,,,,,,,0,,,75,0
155520,note_on,480,0,1,,,,,,,,,0,,,79,0
155520,note_on,0,0,3,,,,,,,,,2,,,53,88
155520,note_on,0,0,3,,,,,,,,,2,,,41,88
155520,note_on,480,0,3,,,,,,,,,2,,,51,0
155520,note_on,0,0,3,,,,,,,,,2,,,39,0
155520,note_on,0,0,1,,,,,,,,,0,,,65,88
156480,note_on,0,0,1,,,,,,,,,0,,,74,0
156480,note_on,0,0,3,,,,,,,,,2,,,29,88
156480,note_on,0,0,3,,,,,,,,,2,,,41,0
156480,note_on,0,0,3,,,,,,,,,2,,,41,88
156480,note_on,0,0,1,,,,,,,,,0,,,70,0
156480,note_on,0,0,1,,,,,,,,,0,,,65,88
156480,note_on,0,0,1,,,,,,,,,0,,,65,0
156480,note_on,960,0,1,,,,,,,,,0,,,77,0
156480,note_on,960,0,3,,,,,,,,,2,,,53,0
156480,note_on,0,0,1,,,,,,,,,0,,,60,88
156480,note_on,0,0,1,,,,,,,,,0,,,63,88
156480,note_on,0,0,1,,,,,,,,,0,,,69,88
157440,note_on,960,0,1,,,,,,,,,0,,,69,0
157440,end_of_track,0,1,0,,,,,,,,,,,,,
157440,time_signature,157406,1,0,10,4,24,8,,,,,,,,,
157440,note_on,960,0,3,,,,,,,,,2,,,41,0
157440,note_on,0,0,3,,,,,,,,,2,,,29,0
157440,note_on,0,0,3,,,,,,,,,2,,,46,114
157440,note_on,0,0,3,,,,,,,,,2,,,34,114
157440,note_on,0,0,1,,,,,,,,,0,,,70,114
157440,note_on,0,0,1,,,,,,,,,0,,,65,114
157440,note_on,0,0,1,,,,,,,,,0,,,65,0
157440,note_on,0,0,1,,,,,,,,,0,,,63,0
157440,note_on,0,0,1,,,,,,,,,0,,,62,114
157440,note_on,0,0,1,,,,,,,,,0,,,60,0
159360,note_on,0,0,1,,,,,,,,,0,,,65,0
159360,note_on,0,0,1,,,,,,,,,0,,,62,0
159360,control_change,0,0,1,,,,,,,,,0,64,127,,
159360,note_on,1920,0,1,,,,,,,,,0,,,70,0
159360,end_of_track,0,1,3,,,,,,,,,,,,,
159360,note_on,1920,0,3,,,,,,,,,2,,,46,0
159360,note_on,0,0,3,,,,,,,,,2,,,34,0
161760,end_of_track,0,1,1,,,,,,,,,,,,,
161760,control_change,2400,0,1,,,,,,,,,0,64,0,,
