tick,type,numerator,denominator,clocks_per_click,notated_32nd_notes_per_beat,time,meta,track,key,tempo,control,value,channel,program,port,note,velocity
0,control_change,,,,,0,0,0,,,121,0,0,,,,
0,control_change,,,,,0,0,0,,,7,100,0,,,,
0,control_change,,,,,0,0,0,,,10,64,0,,,,
0,control_change,,,,,0,0,0,,,91,0,0,,,,
0,control_change,,,,,0,0,0,,,93,0,0,,,,
0,time_signature,2,4,24,8,0,1,0,,,,,,,,,
0,set_tempo,,,,,0,1,0,,545456,,,,,,,
0,program_change,,,,,0,0,0,,,,,0,0,,,
0,midi_port,,,,,0,1,1,,,,,,,0,,
0,midi_port,,,,,0,1,0,,,,,,,0,,
0,key_signature,,,,,0,1,1,Bb,,,,,,,,
0,key_signature,,,,,0,1,0,Bb,,,,,,,,
240,note_on,,,,,240,0,0,,,,,0,,,65,70
299,note_on,,,,,59,0,0,,,,,0,,,65,0
300,note_on,,,,,1,0,0,,,,,0,,,66,70
359,note_on,,,,,59,0,0,,,,,0,,,66,0
360,note_on,,,,,1,0,0,,,,,0,,,65,70
419,note_on,,,,,59,0,0,,,,,0,,,65,0
420,note_on,,,,,1,0,0,,,,,0,,,67,70
479,note_on,,,,,59,0,0,,,,,0,,,67,0
480,note_on,,,,,1,0,0,,,,,0,,,68,70
539,note_on,,,,,59,0,0,,,,,0,,,68,0
540,note_on,,,,,1,0,0,,,,,0,,,69,70
599,note_on,,,,,59,0,0,,,,,0,,,69,0
600,note_on,,,,,1,0,0,,,,,0,,,68,70
659,note_on,,,,,59,0,0,,,,,0,,,68,0
660,note_on,,,,,1,0,0,,,,,0,,,70,70
719,note_on,,,,,59,0,0,,,,,0,,,70,0
720,note_on,,,,,1,0,0,,,,,0,,,71,70
779,note_on,,,,,59,0,0,,,,,0,,,71,0
780,note_on,,,,,1,0,0,,,,,0,,,72,70
839,note_on,,,,,59,0,0,,,,,0,,,72,0
840,note_on,,,,,1,0,0,,,,,0,,,71,70
899,note_on,,,,,59,0,0,,,,,0,,,71,0
900,note_on,,,,,1,0,0,,,,,0,,,73,70
959,note_on,,,,,59,0,0,,,,,0,,,73,0
960,note_on,,,,,1,0,0,,,,,0,,,74,70
1019,note_on,,,,,59,0,0,,,,,0,,,74,0
1020,note_on,,,,,1,0,0,,,,,0,,,75,70
1079,note_on,,,,,59,0,0,,,,,0,,,75,0
1080,note_on,,,,,1,0,0,,,,,0,,,74,70
1139,note_on,,,,,59,0,0,,,,,0,,,74,0
1140,note_on,,,,,1,0,0,,,,,0,,,76,70
1199,note_on,,,,,59,0,0,,,,,0,,,76,0
1200,note_on,,,,,1,0,0,,,,,0,,,77,70
1259,note_on,,,,,59,0,0,,,,,0,,,77,0
1260,note_on,,,,,1,0,0,,,,,0,,,78,70
1319,note_on,,,,,59,0,0,,,,,0,,,78,0
1320,note_on,,,,,1,0,0,,,,,0,,,77,70
1379,note_on,,,,,59,0,0,,,,,0,,,77,0
1380,note_on,,,,,1,0,0,,,,,0,,,79,70
1439,note_on,,,,,59,0,0,,,,,0,,,79,0
1440,note_on,,,,,0,0,1,,,,,0,,,68,70
1440,note_on,,,,,1440,0,1,,,,,0,,,53,70
1440,note_on,,,,,1,0,0,,,,,0,,,80,70
1499,note_on,,,,,59,0,0,,,,,0,,,80,0
1500,note_on,,,,,1,0,0,,,,,0,,,81,70
1503,note_on,,,,,63,0,1,,,,,0,,,59,70
1559,note_on,,,,,59,0,0,,,,,0,,,81,0
1560,note_on,,,,,1,0,0,,,,,0,,,80,70
1567,note_on,,,,,64,0,1,,,,,0,,,62,70
1619,note_on,,,,,59,0,0,,,,,0,,,80,0
1620,note_on,,,,,1,0,0,,,,,0,,,82,70
1679,note_on,,,,,59,0,0,,,,,0,,,82,0
1680,note_on,,,,,1,0,0,,,,,0,,,83,70
1739,note_on,,,,,59,0,0,,,,,0,,,83,0
1740,note_on,,,,,1,0,0,,,,,0,,,84,70
1799,note_on,,,,,59,0,0,,,,,0,,,84,0
1800,note_on,,,,,1,0,0,,,,,0,,,83,70
1859,note_on,,,,,59,0,0,,,,,0,,,83,0
1860,note_on,,,,,1,0,0,,,,,0,,,86,70
1918,note_on,,,,,0,0,1,,,,,0,,,62,0
1918,note_on,,,,,351,0,1,,,,,0,,,59,0
1919,note_on,,,,,59,0,0,,,,,0,,,86,0
1919,note_on,,,,,0,0,1,,,,,0,,,68,0
1919,note_on,,,,,1,0,1,,,,,0,,,53,0
1920,note_on,,,,,0,0,1,,,,,0,,,69,70
1920,note_on,,,,,1,0,1,,,,,0,,,53,70
1920,note_on,,,,,1,0,0,,,,,0,,,84,70
1979,note_on,,,,,59,0,0,,,,,0,,,84,0
1980,note_on,,,,,1,0,0,,,,,0,,,85,70
1983,note_on,,,,,63,0,1,,,,,0,,,60,70
2039,note_on,,,,,59,0,0,,,,,0,,,85,0
2040,note_on,,,,,1,0,0,,,,,0,,,84,70
2047,note_on,,,,,64,0,1,,,,,0,,,63,70
2099,note_on,,,,,59,0,0,,,,,0,,,84,0
2100,note_on,,,,,1,0,0,,,,,0,,,86,70
2147,note_on,,,,,100,0,1,,,,,0,,,69,0
2159,note_on,,,,,59,0,0,,,,,0,,,86,0
2160,note_on,,,,,13,0,1,,,,,0,,,67,70
2160,note_on,,,,,1,0,0,,,,,0,,,87,70
2219,note_on,,,,,59,0,0,,,,,0,,,87,0
2220,note_on,,,,,1,0,0,,,,,0,,,89,70
2279,note_on,,,,,59,0,0,,,,,0,,,89,0
2280,note_on,,,,,1,0,0,,,,,0,,,87,70
2339,note_on,,,,,59,0,0,,,,,0,,,87,0
2340,note_on,,,,,1,0,0,,,,,0,,,90,70
2387,note_on,,,,,227,0,1,,,,,0,,,67,0
2399,note_on,,,,,59,0,0,,,,,0,,,90,0
2400,note_on,,,,,13,0,1,,,,,0,,,63,0
2400,note_on,,,,,1,0,0,,,,,0,,,91,73
2400,note_on,,,,,0,0,1,,,,,0,,,63,73
2459,note_on,,,,,59,0,0,,,,,0,,,91,0
2460,note_on,,,,,1,0,0,,,,,0,,,92,77
2519,note_on,,,,,59,0,0,,,,,0,,,92,0
2520,note_on,,,,,1,0,0,,,,,0,,,91,81
2579,note_on,,,,,59,0,0,,,,,0,,,91,0
2580,note_on,,,,,1,0,0,,,,,0,,,95,85
2639,note_on,,,,,59,0,0,,,,,0,,,95,0
2640,note_on,,,,,0,0,1,,,,,0,,,60,89
2640,note_on,,,,,1,0,0,,,,,0,,,96,89
2640,note_on,,,,,240,0,1,,,,,0,,,60,0
2699,note_on,,,,,59,0,0,,,,,0,,,96,0
2700,note_on,,,,,1,0,0,,,,,0,,,97,93
2759,note_on,,,,,59,0,0,,,,,0,,,97,0
2760,note_on,,,,,1,0,0,,,,,0,,,96,97
2819,note_on,,,,,59,0,0,,,,,0,,,96,0
2820,note_on,,,,,1,0,0,,,,,0,,,98,101
2876,note_on,,,,,56,0,0,,,,,0,,,98,0
2878,note_on,,,,,0,0,1,,,,,0,,,63,0
2878,note_on,,,,,238,0,1,,,,,0,,,60,0
2879,note_on,,,,,1,0,1,,,,,0,,,53,0
2880,note_on,,,,,4,0,0,,,,,0,,,99,105
2939,note_on,,,,,59,0,0,,,,,0,,,99,0
2940,note_on,,,,,1,0,0,,,,,0,,,98,103
2999,note_on,,,,,59,0,0,,,,,0,,,98,0
3000,note_on,,,,,1,0,0,,,,,0,,,99,100
3059,note_on,,,,,59,0,0,,,,,0,,,99,0
3060,note_on,,,,,1,0,0,,,,,0,,,97,98
3119,note_on,,,,,59,0,0,,,,,0,,,97,0
3120,note_on,,,,,1,0,0,,,,,0,,,96,95
3179,note_on,,,,,59,0,0,,,,,0,,,96,0
3180,note_on,,,,,1,0,0,,,,,0,,,95,93
3239,note_on,,,,,59,0,0,,,,,0,,,95,0
3240,note_on,,,,,1,0,0,,,,,0,,,96,90
3299,note_on,,,,,59,0,0,,,,,0,,,96,0
3300,note_on,,,,,1,0,0,,,,,0,,,94,88
3359,note_on,,,,,59,0,0,,,,,0,,,94,0
3360,note_on,,,,,1,0,0,,,,,0,,,93,85
3419,note_on,,,,,59,0,0,,,,,0,,,93,0
3420,note_on,,,,,1,0,0,,,,,0,,,92,83
3479,note_on,,,,,59,0,0,,,,,0,,,92,0
3480,note_on,,,,,1,0,0,,,,,0,,,93,80
3539,note_on,,,,,59,0,0,,,,,0,,,93,0
3540,note_on,,,,,1,0,0,,,,,0,,,91,78
3599,note_on,,,,,59,0,0,,,,,0,,,91,0
3600,note_on,,,,,1,0,0,,,,,0,,,90,75
3659,note_on,,,,,59,0,0,,,,,0,,,90,0
3660,note_on,,,,,1,0,0,,,,,0,,,89,73
3719,note_on,,,,,59,0,0,,,,,0,,,89,0
3720,note_on,,,,,1,0,0,,,,,0,,,90,70
3779,note_on,,,,,59,0,0,,,,,0,,,90,0
3780,note_on,,,,,1,0,0,,,,,0,,,88,70
3839,note_on,,,,,59,0,0,,,,,0,,,88,0
3840,note_on,,,,,1,0,0,,,,,0,,,87,70
3899,note_on,,,,,59,0,0,,,,,0,,,87,0
3900,note_on,,,,,1,0,0,,,,,0,,,86,70
3959,note_on,,,,,59,0,0,,,,,0,,,86,0
3960,note_on,,,,,1,0,0,,,,,0,,,87,70
4019,note_on,,,,,59,0,0,,,,,0,,,87,0
4020,note_on,,,,,1,0,0,,,,,0,,,85,70
4079,note_on,,,,,59,0,0,,,,,0,,,85,0
4080,note_on,,,,,1,0,0,,,,,0,,,84,70
4139,note_on,,,,,59,0,0,,,,,0,,,84,0
4140,note_on,,,,,1,0,0,,,,,0,,,83,70
4199,note_on,,,,,59,0,0,,,,,0,,,83,0
4200,note_on,,,,,1,0,0,,,,,0,,,84,70
4259,note_on,,,,,59,0,0,,,,,0,,,84,0
4260,note_on,,,,,1,0,0,,,,,0,,,82,70
4319,note_on,,,,,59,0,0,,,,,0,,,82,0
4320,note_on,,,,,1441,0,1,,,,,0,,,53,84
4320,note_on,,,,,0,0,1,,,,,0,,,66,70
4320,note_on,,,,,1,0,0,,,,,0,,,81,70
4379,note_on,,,,,59,0,0,,,,,0,,,81,0
4380,note_on,,,,,1,0,0,,,,,0,,,80,70
4383,note_on,,,,,63,0,1,,,,,0,,,57,84
4439,note_on,,,,,59,0,0,,,,,0,,,80,0
4440,note_on,,,,,1,0,0,,,,,0,,,81,70
4447,note_on,,,,,64,0,1,,,,,0,,,60,84
4499,note_on,,,,,59,0,0,,,,,0,,,81,0
4500,note_on,,,,,1,0,0,,,,,0,,,79,70
4512,note_on,,,,,65,0,1,,,,,0,,,63,84
4559,note_on,,,,,59,0,0,,,,,0,,,79,0
4560,note_on,,,,,1,0,0,,,,,0,,,78,70
4619,note_on,,,,,59,0,0,,,,,0,,,78,0
4620,note_on,,,,,1,0,0,,,,,0,,,77,70
4679,note_on,,,,,59,0,0,,,,,0,,,77,0
4680,note_on,,,,,1,0,0,,,,,0,,,78,70
4739,note_on,,,,,59,0,0,,,,,0,,,78,0
4740,note_on,,,,,1,0,0,,,,,0,,,75,70
4798,note_on,,,,,286,0,1,,,,,0,,,57,0
4798,note_on,,,,,0,0,1,,,,,0,,,60,0
4799,note_on,,,,,59,0,0,,,,,0,,,75,0
4799,note_on,,,,,0,0,1,,,,,0,,,66,0
4799,note_on,,,,,0,0,1,,,,,0,,,63,0
4799,note_on,,,,,1,0,1,,,,,0,,,53,0
4800,note_on,,,,,0,0,1,,,,,0,,,67,70
4800,note_on,,,,,1,0,1,,,,,0,,,53,70
4800,note_on,,,,,1,0,0,,,,,0,,,74,70
4856,note_on,,,,,56,0,0,,,,,0,,,74,0
4860,note_on,,,,,4,0,0,,,,,0,,,73,70
4863,note_on,,,,,63,0,1,,,,,0,,,58,70
4916,note_on,,,,,56,0,0,,,,,0,,,73,0
4920,note_on,,,,,4,0,0,,,,,0,,,74,70
4927,note_on,,,,,64,0,1,,,,,0,,,62,70
4976,note_on,,,,,56,0,0,,,,,0,,,74,0
4980,note_on,,,,,4,0,0,,,,,0,,,72,70
5027,note_on,,,,,100,0,1,,,,,0,,,67,0
5036,note_on,,,,,56,0,0,,,,,0,,,72,0
5040,note_on,,,,,13,0,1,,,,,0,,,65,70
5040,note_on,,,,,4,0,0,,,,,0,,,70,70
5096,note_on,,,,,56,0,0,,,,,0,,,70,0
5100,note_on,,,,,4,0,0,,,,,0,,,69,70
5156,note_on,,,,,56,0,0,,,,,0,,,69,0
5160,note_on,,,,,4,0,0,,,,,0,,,70,70
5216,note_on,,,,,56,0,0,,,,,0,,,70,0
5220,note_on,,,,,4,0,0,,,,,0,,,68,70
5267,note_on,,,,,227,0,1,,,,,0,,,65,0
5276,note_on,,,,,56,0,0,,,,,0,,,68,0
5278,note_on,,,,,11,0,1,,,,,0,,,62,0
5280,note_on,,,,,2,0,1,,,,,0,,,61,70
5280,note_on,,,,,4,0,0,,,,,0,,,67,70
5336,note_on,,,,,56,0,0,,,,,0,,,67,0
5340,note_on,,,,,4,0,0,,,,,0,,,66,70
5396,note_on,,,,,56,0,0,,,,,0,,,66,0
5400,note_on,,,,,4,0,0,,,,,0,,,67,70
5456,note_on,,,,,56,0,0,,,,,0,,,67,0
5460,note_on,,,,,4,0,0,,,,,0,,,65,70
5507,note_on,,,,,227,0,1,,,,,0,,,61,0
5516,note_on,,,,,56,0,0,,,,,0,,,65,0
5520,note_on,,,,,0,0,1,,,,,0,,,58,70
5520,note_on,,,,,13,0,1,,,,,0,,,58,0
5520,note_on,,,,,4,0,0,,,,,0,,,73,70
5576,note_on,,,,,56,0,0,,,,,0,,,73,0
5580,note_on,,,,,4,0,0,,,,,0,,,70,70
5636,note_on,,,,,56,0,0,,,,,0,,,70,0
5640,note_on,,,,,4,0,0,,,,,0,,,67,70
5696,note_on,,,,,56,0,0,,,,,0,,,67,0
5700,note_on,,,,,4,0,0,,,,,0,,,65,70
5735,note_on,,,,,215,0,1,,,,,0,,,53,0
5747,note_on,,,,,12,0,1,,,,,0,,,58,0
5756,note_on,,,,,56,0,0,,,,,0,,,65,0
5760,note_on,,,,,13,0,1,,,,,0,,,53,70
5760,note_on,,,,,4,0,0,,,,,0,,,64,70
5802,note_on,,,,,42,0,1,,,,,0,,,55,70
5844,note_on,,,,,42,0,1,,,,,0,,,58,70
5886,note_on,,,,,42,0,1,,,,,0,,,61,70
5987,note_on,,,,,227,0,0,,,,,0,,,64,0
5999,note_on,,,,,113,0,1,,,,,0,,,53,0
5999,note_on,,,,,0,0,1,,,,,0,,,61,0
5999,note_on,,,,,0,0,1,,,,,0,,,58,0
5999,note_on,,,,,0,0,1,,,,,0,,,55,0
6240,note_on,,,,,0,0,0,,,,,0,,,97,50
6240,set_tempo,,,,,253,1,0,,599999,,,,,,,
6240,note_on,,,,,241,0,1,,,,,0,,,88,50
6240,note_on,,,,,0,0,1,,,,,0,,,91,50
6296,note_on,,,,,56,0,0,,,,,0,,,97,0
6299,note_on,,,,,0,0,1,,,,,0,,,91,0
6299,note_on,,,,,59,0,1,,,,,0,,,88,0
6300,note_on,,,,,4,0,0,,,,,0,,,94,50
6356,note_on,,,,,56,0,0,,,,,0,,,94,0
6360,note_on,,,,,61,0,1,,,,,0,,,81,50
6360,note_on,,,,,0,0,1,,,,,0,,,84,50
6360,note_on,,,,,4,0,0,,,,,0,,,90,50
6416,note_on,,,,,56,0,0,,,,,0,,,90,0
6419,note_on,,,,,59,0,1,,,,,0,,,81,0
6419,note_on,,,,,0,0,1,,,,,0,,,84,0
6420,note_on,,,,,4,0,0,,,,,0,,,87,50
6476,note_on,,,,,56,0,0,,,,,0,,,87,0
6480,note_on,,,,,61,0,1,,,,,0,,,82,50
6480,note_on,,,,,0,0,1,,,,,0,,,85,50
6480,note_on,,,,,4,0,0,,,,,0,,,91,50
6536,note_on,,,,,56,0,0,,,,,0,,,91,0
6539,note_on,,,,,59,0,1,,,,,0,,,82,0
6539,note_on,,,,,0,0,1,,,,,0,,,85,0
6540,note_on,,,,,4,0,0,,,,,0,,,88,50
6596,note_on,,,,,56,0,0,,,,,0,,,88,0
6600,note_on,,,,,61,0,1,,,,,0,,,75,50
6600,note_on,,,,,0,0,1,,,,,0,,,78,50
6600,note_on,,,,,4,0,0,,,,,0,,,84,50
6656,note_on,,,,,56,0,0,,,,,0,,,84,0
6659,note_on,,,,,59,0,1,,,,,0,,,75,0
6659,note_on,,,,,0,0,1,,,,,0,,,78,0
6660,note_on,,,,,4,0,0,,,,,0,,,81,50
6716,note_on,,,,,56,0,0,,,,,0,,,81,0
6720,note_on,,,,,4,0,0,,,,,0,,,85,50
6720,note_on,,,,,0,0,1,,,,,0,,,79,50
6720,note_on,,,,,61,0,1,,,,,0,,,76,50
6776,note_on,,,,,56,0,0,,,,,0,,,85,0
6779,note_on,,,,,59,0,1,,,,,0,,,76,0
6779,note_on,,,,,0,0,1,,,,,0,,,79,0
6780,note_on,,,,,4,0,0,,,,,0,,,82,50
6836,note_on,,,,,56,0,0,,,,,0,,,82,0
6840,note_on,,,,,4,0,0,,,,,0,,,78,50
6840,note_on,,,,,61,0,1,,,,,0,,,69,50
6840,note_on,,,,,0,0,1,,,,,0,,,72,50
6896,note_on,,,,,56,0,0,,,,,0,,,78,0
6899,note_on,,,,,59,0,1,,,,,0,,,69,0
6899,note_on,,,,,0,0,1,,,,,0,,,72,0
6900,note_on,,,,,4,0,0,,,,,0,,,75,50
6956,note_on,,,,,56,0,0,,,,,0,,,75,0
6960,note_on,,,,,61,0,1,,,,,0,,,70,50
6960,note_on,,,,,0,0,1,,,,,0,,,73,50
6960,note_on,,,,,4,0,0,,,,,0,,,79,50
7016,note_on,,,,,56,0,0,,,,,0,,,79,0
7019,note_on,,,,,0,0,1,,,,,0,,,73,0
7019,note_on,,,,,59,0,1,,,,,0,,,70,0
7020,note_on,,,,,4,0,0,,,,,0,,,76,50
7076,note_on,,,,,56,0,0,,,,,0,,,76,0
7080,note_on,,,,,0,0,1,,,,,0,,,66,50
7080,note_on,,,,,4,0,0,,,,,0,,,72,50
7080,note_on,,,,,61,0,1,,,,,0,,,63,50
7136,note_on,,,,,56,0,0,,,,,0,,,72,0
7139,note_on,,,,,0,0,1,,,,,0,,,66,0
7139,note_on,,,,,59,0,1,,,,,0,,,63,0
7140,note_on,,,,,4,0,0,,,,,0,,,69,50
7196,note_on,,,,,56,0,0,,,,,0,,,69,0
7200,note_on,,,,,4,0,0,,,,,0,,,73,50
7200,note_on,,,,,61,0,1,,,,,0,,,64,50
7200,note_on,,,,,0,0,1,,,,,0,,,67,50
7256,note_on,,,,,56,0,0,,,,,0,,,73,0
7259,note_on,,,,,59,0,1,,,,,0,,,64,0
7259,note_on,,,,,0,0,1,,,,,0,,,67,0
7260,note_on,,,,,4,0,0,,,,,0,,,70,50
7316,note_on,,,,,56,0,0,,,,,0,,,70,0
7320,note_on,,,,,61,0,1,,,,,0,,,57,50
7320,note_on,,,,,4,0,0,,,,,0,,,66,50
7320,note_on,,,,,0,0,1,,,,,0,,,60,50
7376,note_on,,,,,56,0,0,,,,,0,,,66,0
7379,note_on,,,,,59,0,1,,,,,0,,,57,0
7379,note_on,,,,,0,0,1,,,,,0,,,60,0
7380,note_on,,,,,4,0,0,,,,,0,,,63,50
7436,note_on,,,,,56,0,0,,,,,0,,,63,0
7440,note_on,,,,,0,0,0,,,,,0,,,67,50
7440,note_on,,,,,61,0,1,,,,,0,,,58,50
7440,note_on,,,,,0,0,1,,,,,0,,,61,50
7440,note_on,,,,,4,0,0,,,,,0,,,64,50
7518,note_on,,,,,78,0,1,,,,,0,,,58,0
7518,note_on,,,,,0,0,1,,,,,0,,,61,0
7518,note_on,,,,,0,0,0,,,,,0,,,67,0
7518,note_on,,,,,78,0,0,,,,,0,,,64,0
7680,note_on,,,,,162,0,1,,,,,0,,,41,50
7682,control_change,,,,,164,0,0,,,64,127,0,,,,
7718,note_on,,,,,38,0,1,,,,,0,,,41,0
7800,note_on,,,,,82,0,1,,,,,0,,,53,50
7800,set_tempo,,,,,118,1,0,,666667,,,,,,,
7800,note_on,,,,,0,0,0,,,,,0,,,73,50
7800,note_on,,,,,0,0,0,,,,,0,,,76,50
7800,note_on,,,,,0,0,0,,,,,0,,,85,50
7800,note_on,,,,,0,0,1,,,,,0,,,67,50
7800,note_on,,,,,0,0,1,,,,,0,,,61,50
7800,note_on,,,,,0,0,1,,,,,0,,,58,50
7859,note_on,,,,,59,0,0,,,,,0,,,85,0
7913,note_on,,,,,0,0,1,,,,,0,,,58,0
7913,note_on,,,,,0,0,1,,,,,0,,,61,0
7913,note_on,,,,,0,0,0,,,,,0,,,76,0
7913,note_on,,,,,54,0,0,,,,,0,,,73,0
7913,note_on,,,,,113,0,1,,,,,0,,,53,0
7913,note_on,,,,,0,0,1,,,,,0,,,67,0
7920,note_on,,,,,0,0,0,,,,,0,,,76,50
7920,note_on,,,,,0,0,1,,,,,0,,,61,50
7920,note_on,,,,,0,0,1,,,,,0,,,67,50
7920,note_on,,,,,0,0,0,,,,,0,,,84,50
7920,note_on,,,,,7,0,0,,,,,0,,,73,50
7920,note_on,,,,,7,0,1,,,,,0,,,53,50
7920,note_on,,,,,0,0,1,,,,,0,,,58,50
7979,note_on,,,,,59,0,0,,,,,0,,,84,0
8033,note_on,,,,,0,0,1,,,,,0,,,67,0
8033,note_on,,,,,0,0,1,,,,,0,,,61,0
8033,note_on,,,,,113,0,1,,,,,0,,,53,0
8033,note_on,,,,,0,0,0,,,,,0,,,76,0
8033,note_on,,,,,54,0,0,,,,,0,,,73,0
8033,note_on,,,,,0,0,1,,,,,0,,,58,0
8040,note_on,,,,,0,0,1,,,,,0,,,67,50
8040,note_on,,,,,7,0,0,,,,,0,,,73,50
8040,note_on,,,,,0,0,1,,,,,0,,,58,50
8040,note_on,,,,,0,0,0,,,,,0,,,83,50
8040,note_on,,,,,0,0,0,,,,,0,,,76,50
8040,note_on,,,,,0,0,1,,,,,0,,,61,50
8040,note_on,,,,,7,0,1,,,,,0,,,53,50
8099,note_on,,,,,59,0,0,,,,,0,,,83,0
8153,note_on,,,,,0,0,0,,,,,0,,,76,0
8153,note_on,,,,,113,0,1,,,,,0,,,53,0
8153,note_on,,,,,0,0,1,,,,,0,,,61,0
8153,note_on,,,,,0,0,1,,,,,0,,,58,0
8153,note_on,,,,,54,0,0,,,,,0,,,73,0
8153,note_on,,,,,0,0,1,,,,,0,,,67,0
8160,note_on,,,,,0,0,1,,,,,0,,,58,50
8160,note_on,,,,,7,0,0,,,,,0,,,73,50
8160,note_on,,,,,0,0,0,,,,,0,,,82,50
8160,note_on,,,,,0,0,1,,,,,0,,,67,50
8160,note_on,,,,,7,0,1,,,,,0,,,53,50
8160,note_on,,,,,0,0,0,,,,,0,,,76,50
8160,note_on,,,,,0,0,1,,,,,0,,,61,50
8219,note_on,,,,,59,0,0,,,,,0,,,82,0
8273,note_on,,,,,0,0,0,,,,,0,,,76,0
8273,note_on,,,,,0,0,1,,,,,0,,,67,0
8273,note_on,,,,,0,0,1,,,,,0,,,58,0
8273,note_on,,,,,0,0,1,,,,,0,,,61,0
8273,note_on,,,,,113,0,1,,,,,0,,,53,0
8273,note_on,,,,,54,0,0,,,,,0,,,73,0
8280,note_on,,,,,7,0,1,,,,,0,,,53,50
8280,note_on,,,,,0,0,1,,,,,0,,,58,50
8280,note_on,,,,,7,0,0,,,,,0,,,73,50
8280,note_on,,,,,0,0,1,,,,,0,,,61,50
8280,note_on,,,,,0,0,1,,,,,0,,,67,50
8280,note_on,,,,,0,0,0,,,,,0,,,85,50
8280,note_on,,,,,0,0,0,,,,,0,,,76,50
8339,note_on,,,,,59,0,0,,,,,0,,,85,0
8393,note_on,,,,,54,0,0,,,,,0,,,73,0
8393,note_on,,,,,0,0,1,,,,,0,,,67,0
8393,note_on,,,,,0,0,1,,,,,0,,,61,0
8393,note_on,,,,,0,0,1,,,,,0,,,58,0
8393,note_on,,,,,113,0,1,,,,,0,,,53,0
8393,note_on,,,,,0,0,0,,,,,0,,,76,0
8400,note_on,,,,,0,0,1,,,,,0,,,67,50
8400,note_on,,,,,7,0,0,,,,,0,,,73,50
8400,note_on,,,,,7,0,1,,,,,0,,,53,50
8400,note_on,,,,,0,0,1,,,,,0,,,61,50
8400,note_on,,,,,0,0,1,,,,,0,,,58,50
8400,note_on,,,,,0,0,0,,,,,0,,,76,50
8400,note_on,,,,,0,0,0,,,,,0,,,84,50
8459,note_on,,,,,59,0,0,,,,,0,,,84,0
8460,note_on,,,,,1,0,0,,,,,0,,,83,50
8519,note_on,,,,,59,0,0,,,,,0,,,83,0
8520,note_on,,,,,1,0,0,,,,,0,,,82,50
8579,note_on,,,,,59,0,0,,,,,0,,,82,0
8627,note_on,,,,,0,0,1,,,,,0,,,67,0
8627,note_on,,,,,0,0,1,,,,,0,,,58,0
8627,note_on,,,,,227,0,1,,,,,0,,,53,0
8627,note_on,,,,,0,0,1,,,,,0,,,61,0
8639,note_on,,,,,0,0,0,,,,,0,,,76,0
8639,note_on,,,,,60,0,0,,,,,0,,,73,0
8641,control_change,,,,,2,0,0,,,64,0,0,,,,
8880,set_tempo,,,,,239,1,0,,599999,,,,,,,
8880,note_on,,,,,0,0,0,,,,,0,,,99,50
8880,note_on,,,,,253,0,1,,,,,0,,,90,50
8880,note_on,,,,,0,0,1,,,,,0,,,93,50
8936,note_on,,,,,56,0,0,,,,,0,,,99,0
8939,note_on,,,,,0,0,1,,,,,0,,,93,0
8939,note_on,,,,,59,0,1,,,,,0,,,90,0
8940,note_on,,,,,4,0,0,,,,,0,,,96,50
8996,note_on,,,,,56,0,0,,,,,0,,,96,0
9000,note_on,,,,,4,0,0,,,,,0,,,92,50
9000,note_on,,,,,61,0,1,,,,,0,,,83,50
9000,note_on,,,,,0,0,1,,,,,0,,,86,50
9056,note_on,,,,,56,0,0,,,,,0,,,92,0
9059,note_on,,,,,59,0,1,,,,,0,,,83,0
9059,note_on,,,,,0,0,1,,,,,0,,,86,0
9060,note_on,,,,,4,0,0,,,,,0,,,89,50
9116,note_on,,,,,56,0,0,,,,,0,,,89,0
9120,note_on,,,,,4,0,0,,,,,0,,,93,50
9120,note_on,,,,,61,0,1,,,,,0,,,84,50
9120,note_on,,,,,0,0,1,,,,,0,,,87,50
9176,note_on,,,,,56,0,0,,,,,0,,,93,0
9179,note_on,,,,,0,0,1,,,,,0,,,87,0
9179,note_on,,,,,59,0,1,,,,,0,,,84,0
9180,note_on,,,,,4,0,0,,,,,0,,,90,50
9236,note_on,,,,,56,0,0,,,,,0,,,90,0
9240,note_on,,,,,4,0,0,,,,,0,,,86,50
9240,note_on,,,,,61,0,1,,,,,0,,,77,50
9240,note_on,,,,,0,0,1,,,,,0,,,80,50
9296,note_on,,,,,56,0,0,,,,,0,,,86,0
9299,note_on,,,,,0,0,1,,,,,0,,,80,0
9299,note_on,,,,,59,0,1,,,,,0,,,77,0
9300,note_on,,,,,4,0,0,,,,,0,,,83,50
9356,note_on,,,,,56,0,0,,,,,0,,,83,0
9360,note_on,,,,,4,0,0,,,,,0,,,87,50
9360,note_on,,,,,61,0,1,,,,,0,,,78,50
9360,note_on,,,,,0,0,1,,,,,0,,,81,50
9416,note_on,,,,,56,0,0,,,,,0,,,87,0
9419,note_on,,,,,0,0,1,,,,,0,,,81,0
9419,note_on,,,,,59,0,1,,,,,0,,,78,0
9420,note_on,,,,,4,0,0,,,,,0,,,84,50
9476,note_on,,,,,56,0,0,,,,,0,,,84,0
9480,note_on,,,,,0,0,1,,,,,0,,,74,50
9480,note_on,,,,,61,0,1,,,,,0,,,71,50
9480,note_on,,,,,4,0,0,,,,,0,,,80,50
9536,note_on,,,,,56,0,0,,,,,0,,,80,0
9539,note_on,,,,,0,0,1,,,,,0,,,74,0
9539,note_on,,,,,59,0,1,,,,,0,,,71,0
9540,note_on,,,,,4,0,0,,,,,0,,,77,50
9596,note_on,,,,,56,0,0,,,,,0,,,77,0
9600,note_on,,,,,0,0,1,,,,,0,,,75,50
9600,note_on,,,,,61,0,1,,,,,0,,,72,50
9600,note_on,,,,,4,0,0,,,,,0,,,81,50
9656,note_on,,,,,56,0,0,,,,,0,,,81,0
9659,note_on,,,,,0,0,1,,,,,0,,,75,0
9659,note_on,,,,,59,0,1,,,,,0,,,72,0
9660,note_on,,,,,4,0,0,,,,,0,,,78,50
9716,note_on,,,,,56,0,0,,,,,0,,,78,0
9720,note_on,,,,,4,0,0,,,,,0,,,74,50
9720,note_on,,,,,61,0,1,,,,,0,,,65,50
9720,note_on,,,,,0,0,1,,,,,0,,,68,50
9776,note_on,,,,,56,0,0,,,,,0,,,74,0
9779,note_on,,,,,0,0,1,,,,,0,,,68,0
9779,note_on,,,,,59,0,1,,,,,0,,,65,0
9780,note_on,,,,,4,0,0,,,,,0,,,71,50
9836,note_on,,,,,56,0,0,,,,,0,,,71,0
9840,note_on,,,,,4,0,0,,,,,0,,,75,50
9840,note_on,,,,,0,0,1,,,,,0,,,69,50
9840,note_on,,,,,61,0,1,,,,,0,,,66,50
9896,note_on,,,,,56,0,0,,,,,0,,,75,0
9899,note_on,,,,,0,0,1,,,,,0,,,69,0
9899,note_on,,,,,59,0,1,,,,,0,,,66,0
9900,note_on,,,,,4,0,0,,,,,0,,,72,50
9956,note_on,,,,,56,0,0,,,,,0,,,72,0
9960,note_on,,,,,0,0,1,,,,,0,,,62,50
9960,note_on,,,,,61,0,1,,,,,0,,,59,50
9960,note_on,,,,,4,0,0,,,,,0,,,68,50
10016,note_on,,,,,56,0,0,,,,,0,,,68,0
10019,note_on,,,,,0,0,1,,,,,0,,,62,0
10019,note_on,,,,,59,0,1,,,,,0,,,59,0
10020,note_on,,,,,4,0,0,,,,,0,,,65,50
10076,note_on,,,,,56,0,0,,,,,0,,,65,0
10080,note_on,,,,,4,0,0,,,,,0,,,66,50
10080,note_on,,,,,61,0,1,,,,,0,,,60,50
10080,note_on,,,,,0,0,1,,,,,0,,,63,50
10080,note_on,,,,,0,0,0,,,,,0,,,69,50
10158,note_on,,,,,78,0,0,,,,,0,,,66,0
10158,note_on,,,,,78,0,1,,,,,0,,,60,0
10158,note_on,,,,,0,0,1,,,,,0,,,63,0
10158,note_on,,,,,0,0,0,,,,,0,,,69,0
10560,note_on,,,,,402,0,1,,,,,0,,,41,50
10598,note_on,,,,,38,0,1,,,,,0,,,41,0
10680,note_on,,,,,0,0,0,,,,,0,,,78,50
10680,note_on,,,,,0,0,0,,,,,0,,,81,50
10680,note_on,,,,,82,0,1,,,,,0,,,60,50
10680,set_tempo,,,,,522,1,0,,666667,,,,,,,
10680,note_on,,,,,0,0,0,,,,,0,,,90,50
10680,note_on,,,,,0,0,1,,,,,0,,,63,50
10680,note_on,,,,,0,0,1,,,,,0,,,69,50
10739,note_on,,,,,59,0,0,,,,,0,,,90,0
10793,note_on,,,,,0,0,0,,,,,0,,,81,0
10793,note_on,,,,,0,0,1,,,,,0,,,69,0
10793,note_on,,,,,0,0,1,,,,,0,,,63,0
10793,note_on,,,,,113,0,1,,,,,0,,,60,0
10793,note_on,,,,,54,0,0,,,,,0,,,78,0
10800,note_on,,,,,0,0,0,,,,,0,,,89,48
10800,note_on,,,,,0,0,1,,,,,0,,,63,48
10800,note_on,,,,,0,0,0,,,,,0,,,81,48
10800,note_on,,,,,7,0,1,,,,,0,,,60,48
10800,note_on,,,,,0,0,1,,,,,0,,,69,48
10800,note_on,,,,,7,0,0,,,,,0,,,78,48
10859,note_on,,,,,59,0,0,,,,,0,,,89,0
10913,note_on,,,,,113,0,1,,,,,0,,,60,0
10913,note_on,,,,,0,0,0,,,,,0,,,81,0
10913,note_on,,,,,0,0,1,,,,,0,,,63,0
10913,note_on,,,,,0,0,1,,,,,0,,,69,0
10913,note_on,,,,,54,0,0,,,,,0,,,78,0
10920,note_on,,,,,7,0,0,,,,,0,,,78,46
10920,note_on,,,,,0,0,0,,,,,0,,,88,46
10920,note_on,,,,,0,0,0,,,,,0,,,81,46
10920,note_on,,,,,0,0,1,,,,,0,,,63,46
10920,note_on,,,,,0,0,1,,,,,0,,,69,46
10920,note_on,,,,,7,0,1,,,,,0,,,60,46
10979,note_on,,,,,59,0,0,,,,,0,,,88,0
11033,note_on,,,,,113,0,1,,,,,0,,,60,0
11033,note_on,,,,,0,0,0,,,,,0,,,81,0
11033,note_on,,,,,0,0,1,,,,,0,,,69,0
11033,note_on,,,,,0,0,1,,,,,0,,,63,0
11033,note_on,,,,,54,0,0,,,,,0,,,78,0
11040,note_on,,,,,7,0,1,,,,,0,,,60,44
11040,note_on,,,,,0,0,0,,,,,0,,,87,44
11040,note_on,,,,,0,0,0,,,,,0,,,81,44
11040,note_on,,,,,0,0,1,,,,,0,,,69,44
11040,note_on,,,,,0,0,1,,,,,0,,,63,44
11040,note_on,,,,,7,0,0,,,,,0,,,78,44
11099,note_on,,,,,59,0,0,,,,,0,,,87,0
11153,note_on,,,,,0,0,0,,,,,0,,,81,0
11153,note_on,,,,,54,0,0,,,,,0,,,78,0
11153,note_on,,,,,0,0,1,,,,,0,,,63,0
11153,note_on,,,,,0,0,1,,,,,0,,,69,0
11153,note_on,,,,,113,0,1,,,,,0,,,60,0
11160,note_on,,,,,7,0,0,,,,,0,,,78,42
11160,note_on,,,,,0,0,0,,,,,0,,,90,42
11160,note_on,,,,,7,0,1,,,,,0,,,60,42
11160,note_on,,,,,0,0,1,,,,,0,,,63,42
11160,note_on,,,,,0,0,1,,,,,0,,,69,42
11160,note_on,,,,,0,0,0,,,,,0,,,81,42
11219,note_on,,,,,59,0,0,,,,,0,,,90,0
11273,note_on,,,,,0,0,0,,,,,0,,,81,0
11273,note_on,,,,,0,0,1,,,,,0,,,69,0
11273,note_on,,,,,113,0,1,,,,,0,,,60,0
11273,note_on,,,,,54,0,0,,,,,0,,,78,0
11273,note_on,,,,,0,0,1,,,,,0,,,63,0
11280,note_on,,,,,0,0,1,,,,,0,,,63,40
11280,note_on,,,,,0,0,0,,,,,0,,,89,40
11280,note_on,,,,,7,0,1,,,,,0,,,60,40
11280,note_on,,,,,7,0,0,,,,,0,,,78,40
11280,note_on,,,,,0,0,1,,,,,0,,,69,40
11280,note_on,,,,,0,0,0,,,,,0,,,81,40
11339,note_on,,,,,59,0,0,,,,,0,,,89,0
11340,note_on,,,,,1,0,0,,,,,0,,,88,40
11399,note_on,,,,,59,0,0,,,,,0,,,88,0
11400,note_on,,,,,1,0,0,,,,,0,,,87,40
11459,note_on,,,,,59,0,0,,,,,0,,,87,0
11507,note_on,,,,,227,0,1,,,,,0,,,60,0
11507,note_on,,,,,0,0,1,,,,,0,,,69,0
11507,note_on,,,,,0,0,1,,,,,0,,,63,0
11519,note_on,,,,,60,0,0,,,,,0,,,78,0
11519,note_on,,,,,0,0,0,,,,,0,,,81,0
11640,note_on,,,,,0,0,1,,,,,0,,,69,40
11640,note_on,,,,,0,0,0,,,,,0,,,87,40
11640,note_on,,,,,0,0,0,,,,,0,,,78,40
11640,note_on,,,,,121,0,0,,,,,0,,,75,40
11640,note_on,,,,,0,0,1,,,,,0,,,63,40
11640,note_on,,,,,133,0,1,,,,,0,,,60,40
11699,note_on,,,,,59,0,0,,,,,0,,,87,0
11753,note_on,,,,,0,0,0,,,,,0,,,78,0
11753,note_on,,,,,113,0,1,,,,,0,,,60,0
11753,note_on,,,,,0,0,1,,,,,0,,,63,0
11753,note_on,,,,,0,0,1,,,,,0,,,69,0
11753,note_on,,,,,54,0,0,,,,,0,,,75,0
11760,note_on,,,,,7,0,1,,,,,0,,,60,40
11760,note_on,,,,,0,0,0,,,,,0,,,78,40
11760,note_on,,,,,0,0,1,,,,,0,,,69,40
11760,note_on,,,,,0,0,1,,,,,0,,,63,40
11760,note_on,,,,,7,0,0,,,,,0,,,75,40
11760,note_on,,,,,0,0,0,,,,,0,,,86,40
11819,note_on,,,,,59,0,0,,,,,0,,,86,0
11873,note_on,,,,,0,0,1,,,,,0,,,69,0
11873,note_on,,,,,54,0,0,,,,,0,,,75,0
11873,note_on,,,,,0,0,1,,,,,0,,,63,0
11873,note_on,,,,,0,0,0,,,,,0,,,78,0
11873,note_on,,,,,113,0,1,,,,,0,,,60,0
11880,note_on,,,,,0,0,0,,,,,0,,,78,40
11880,note_on,,,,,0,0,1,,,,,0,,,69,40
11880,note_on,,,,,7,0,1,,,,,0,,,60,40
11880,note_on,,,,,0,0,0,,,,,0,,,85,40
11880,note_on,,,,,7,0,0,,,,,0,,,75,40
11880,note_on,,,,,0,0,1,,,,,0,,,63,40
11939,note_on,,,,,59,0,0,,,,,0,,,85,0
11993,note_on,,,,,54,0,0,,,,,0,,,75,0
11993,note_on,,,,,0,0,1,,,,,0,,,63,0
11993,note_on,,,,,0,0,0,,,,,0,,,78,0
11993,note_on,,,,,113,0,1,,,,,0,,,60,0
11993,note_on,,,,,0,0,1,,,,,0,,,69,0
12000,note_on,,,,,0,0,0,,,,,0,,,84,39
12000,note_on,,,,,0,0,1,,,,,0,,,63,39
12000,note_on,,,,,7,0,1,,,,,0,,,60,39
12000,note_on,,,,,0,0,0,,,,,0,,,78,39
12000,note_on,,,,,0,0,1,,,,,0,,,69,39
12000,note_on,,,,,7,0,0,,,,,0,,,75,39
12059,note_on,,,,,59,0,0,,,,,0,,,84,0
12113,note_on,,,,,0,0,0,,,,,0,,,78,0
12113,note_on,,,,,113,0,1,,,,,0,,,60,0
12113,note_on,,,,,0,0,1,,,,,0,,,63,0
12113,note_on,,,,,0,0,1,,,,,0,,,69,0
12113,note_on,,,,,54,0,0,,,,,0,,,75,0
12120,note_on,,,,,0,0,1,,,,,0,,,63,39
12120,note_on,,,,,0,0,1,,,,,0,,,69,39
12120,note_on,,,,,0,0,0,,,,,0,,,87,39
12120,note_on,,,,,0,0,0,,,,,0,,,78,39
12120,note_on,,,,,7,0,1,,,,,0,,,60,39
12120,note_on,,,,,7,0,0,,,,,0,,,75,39
12179,note_on,,,,,59,0,0,,,,,0,,,87,0
12233,note_on,,,,,0,0,1,,,,,0,,,63,0
12233,note_on,,,,,54,0,0,,,,,0,,,75,0
12233,note_on,,,,,0,0,0,,,,,0,,,78,0
12233,note_on,,,,,113,0,1,,,,,0,,,60,0
12233,note_on,,,,,0,0,1,,,,,0,,,69,0
12240,note_on,,,,,7,0,1,,,,,0,,,60,39
12240,note_on,,,,,0,0,1,,,,,0,,,69,39
12240,note_on,,,,,0,0,0,,,,,0,,,86,39
12240,note_on,,,,,0,0,0,,,,,0,,,78,39
12240,note_on,,,,,0,0,1,,,,,0,,,63,39
12240,note_on,,,,,7,0,0,,,,,0,,,75,39
12299,note_on,,,,,59,0,0,,,,,0,,,86,0
12300,note_on,,,,,1,0,0,,,,,0,,,85,39
12359,note_on,,,,,59,0,0,,,,,0,,,85,0
12360,note_on,,,,,1,0,0,,,,,0,,,84,38
12419,note_on,,,,,59,0,0,,,,,0,,,84,0
12467,note_on,,,,,0,0,1,,,,,0,,,69,0
12467,note_on,,,,,227,0,1,,,,,0,,,60,0
12467,note_on,,,,,0,0,1,,,,,0,,,63,0
12479,note_on,,,,,60,0,0,,,,,0,,,75,0
12479,note_on,,,,,0,0,0,,,,,0,,,78,0
12600,note_on,,,,,0,0,1,,,,,0,,,66,38
12600,note_on,,,,,0,0,0,,,,,0,,,75,38
12600,note_on,,,,,0,0,0,,,,,0,,,84,38
12600,note_on,,,,,121,0,0,,,,,0,,,72,38
12600,note_on,,,,,0,0,1,,,,,0,,,69,38
12600,note_on,,,,,133,0,1,,,,,0,,,63,38
12659,note_on,,,,,59,0,0,,,,,0,,,84,0
12713,note_on,,,,,0,0,1,,,,,0,,,69,0
12713,note_on,,,,,0,0,0,,,,,0,,,75,0
12713,note_on,,,,,113,0,1,,,,,0,,,63,0
12713,note_on,,,,,0,0,1,,,,,0,,,66,0
12713,note_on,,,,,54,0,0,,,,,0,,,72,0
12720,note_on,,,,,0,0,1,,,,,0,,,66,37
12720,note_on,,,,,0,0,1,,,,,0,,,69,37
12720,note_on,,,,,7,0,0,,,,,0,,,72,37
12720,note_on,,,,,7,0,1,,,,,0,,,63,37
12720,note_on,,,,,0,0,0,,,,,0,,,83,37
12720,note_on,,,,,0,0,0,,,,,0,,,75,37
12779,note_on,,,,,59,0,0,,,,,0,,,83,0
12780,note_on,,,,,1,0,0,,,,,0,,,82,37
12839,note_on,,,,,59,0,0,,,,,0,,,82,0
12840,note_on,,,,,1,0,0,,,,,0,,,81,37
12899,note_on,,,,,59,0,0,,,,,0,,,81,0
12947,note_on,,,,,227,0,1,,,,,0,,,63,0
12947,note_on,,,,,0,0,1,,,,,0,,,69,0
12947,note_on,,,,,0,0,1,,,,,0,,,66,0
12959,note_on,,,,,0,0,0,,,,,0,,,75,0
12959,note_on,,,,,60,0,0,,,,,0,,,72,0
13080,note_on,,,,,0,0,1,,,,,0,,,69,36
13080,note_on,,,,,0,0,0,,,,,0,,,75,36
13080,note_on,,,,,0,0,0,,,,,0,,,81,36
13080,note_on,,,,,121,0,0,,,,,0,,,72,36
13080,note_on,,,,,133,0,1,,,,,0,,,66,36
13139,note_on,,,,,59,0,0,,,,,0,,,81,0
13193,note_on,,,,,113,0,1,,,,,0,,,66,0
13193,note_on,,,,,54,0,0,,,,,0,,,72,0
13193,note_on,,,,,0,0,1,,,,,0,,,69,0
13193,note_on,,,,,0,0,0,,,,,0,,,75,0
13200,note_on,,,,,7,0,0,,,,,0,,,72,36
13200,note_on,,,,,0,0,0,,,,,0,,,80,36
13200,note_on,,,,,0,0,1,,,,,0,,,69,36
13200,note_on,,,,,0,0,0,,,,,0,,,75,36
13200,note_on,,,,,7,0,1,,,,,0,,,66,36
13259,note_on,,,,,59,0,0,,,,,0,,,80,0
13260,note_on,,,,,1,0,0,,,,,0,,,79,36
13319,note_on,,,,,59,0,0,,,,,0,,,79,0
13320,note_on,,,,,1,0,0,,,,,0,,,78,36
13379,note_on,,,,,59,0,0,,,,,0,,,78,0
13427,note_on,,,,,227,0,1,,,,,0,,,66,0
13427,note_on,,,,,0,0,1,,,,,0,,,69,0
13439,note_on,,,,,60,0,0,,,,,0,,,72,0
13439,note_on,,,,,0,0,0,,,,,0,,,75,0
13560,note_on,,,,,0,0,0,,,,,0,,,77,35
13560,note_on,,,,,133,0,1,,,,,0,,,69,35
13560,set_tempo,,,,,121,1,0,,750002,,,,,,,
13560,note_on,,,,,0,0,1,,,,,0,,,75,35
13560,note_on,,,,,0,0,0,,,,,0,,,72,35
13619,note_on,,,,,59,0,0,,,,,0,,,72,0
13619,note_on,,,,,0,0,0,,,,,0,,,77,0
13619,note_on,,,,,0,0,1,,,,,0,,,75,0
13619,note_on,,,,,59,0,1,,,,,0,,,69,0
13680,note_on,,,,,61,0,0,,,,,0,,,75,40
13680,note_on,,,,,61,0,1,,,,,0,,,72,40
13680,note_on,,,,,0,0,0,,,,,0,,,78,40
13739,note_on,,,,,0,0,0,,,,,0,,,78,0
13739,note_on,,,,,59,0,1,,,,,0,,,72,0
13739,note_on,,,,,59,0,0,,,,,0,,,75,0
13800,note_on,,,,,0,0,1,,,,,0,,,75,45
13800,note_on,,,,,61,0,0,,,,,0,,,72,45
13800,note_on,,,,,0,0,0,,,,,0,,,77,45
13800,note_on,,,,,61,0,1,,,,,0,,,69,45
13859,note_on,,,,,0,0,1,,,,,0,,,75,0
13859,note_on,,,,,59,0,0,,,,,0,,,72,0
13859,note_on,,,,,59,0,1,,,,,0,,,69,0
13859,note_on,,,,,0,0,0,,,,,0,,,77,0
13920,set_tempo,,,,,61,1,0,,666667,,,,,,,
13920,note_on,,,,,0,0,0,,,,,0,,,75,50
13920,note_on,,,,,61,0,1,,,,,0,,,72,50
13920,note_on,,,,,0,0,0,,,,,0,,,79,50
13979,note_on,,,,,59,0,1,,,,,0,,,72,0
13979,note_on,,,,,0,0,0,,,,,0,,,79,0
13979,note_on,,,,,59,0,0,,,,,0,,,75,0
14040,note_on,,,,,61,0,1,,,,,0,,,69,55
14040,note_on,,,,,0,0,1,,,,,0,,,75,55
14040,note_on,,,,,61,0,0,,,,,0,,,72,55
14040,note_on,,,,,0,0,0,,,,,0,,,77,55
14099,note_on,,,,,0,0,0,,,,,0,,,77,0
14099,note_on,,,,,0,0,1,,,,,0,,,75,0
14099,note_on,,,,,59,0,0,,,,,0,,,72,0
14099,note_on,,,,,59,0,1,,,,,0,,,69,0
14160,note_on,,,,,0,0,0,,,,,0,,,78,60
14160,note_on,,,,,61,0,1,,,,,0,,,72,60
14160,note_on,,,,,61,0,0,,,,,0,,,75,60
14219,note_on,,,,,59,0,0,,,,,0,,,75,0
14219,note_on,,,,,0,0,0,,,,,0,,,78,0
14219,note_on,,,,,59,0,1,,,,,0,,,72,0
14280,note_on,,,,,0,0,0,,,,,0,,,77,65
14280,note_on,,,,,0,0,1,,,,,0,,,75,65
14280,note_on,,,,,61,0,1,,,,,0,,,69,65
14280,note_on,,,,,61,0,0,,,,,0,,,72,65
14339,note_on,,,,,59,0,1,,,,,0,,,69,0
14339,note_on,,,,,0,0,0,,,,,0,,,77,0
14339,note_on,,,,,0,0,1,,,,,0,,,75,0
14339,note_on,,,,,59,0,0,,,,,0,,,72,0
14400,note_on,,,,,0,0,0,,,,,0,,,79,70
14400,set_tempo,,,,,61,1,0,,599999,,,,,,,
14439,note_on,,,,,39,0,0,,,,,0,,,79,0
14480,note_on,,,,,41,0,0,,,,,0,,,77,70
14519,note_on,,,,,39,0,0,,,,,0,,,77,0
14560,note_on,,,,,41,0,0,,,,,0,,,78,70
14599,note_on,,,,,39,0,0,,,,,0,,,78,0
14640,note_on,,,,,41,0,0,,,,,0,,,77,70
14679,note_on,,,,,39,0,0,,,,,0,,,77,0
14720,note_on,,,,,41,0,0,,,,,0,,,79,70
14759,note_on,,,,,39,0,0,,,,,0,,,79,0
14800,note_on,,,,,41,0,0,,,,,0,,,77,70
14839,note_on,,,,,39,0,0,,,,,0,,,77,0
14880,note_on,,,,,41,0,0,,,,,0,,,78,70
14919,note_on,,,,,39,0,0,,,,,0,,,78,0
14960,note_on,,,,,41,0,0,,,,,0,,,77,70
14999,note_on,,,,,39,0,0,,,,,0,,,77,0
15040,note_on,,,,,41,0,0,,,,,0,,,79,70
15079,note_on,,,,,39,0,0,,,,,0,,,79,0
15120,note_on,,,,,41,0,0,,,,,0,,,77,70
15179,note_on,,,,,59,0,0,,,,,0,,,77,0
15180,note_on,,,,,1,0,0,,,,,0,,,78,70
15239,note_on,,,,,59,0,0,,,,,0,,,78,0
15240,note_on,,,,,1,0,0,,,,,0,,,77,70
15299,note_on,,,,,59,0,0,,,,,0,,,77,0
15300,note_on,,,,,1,0,0,,,,,0,,,79,70
15359,note_on,,,,,59,0,0,,,,,0,,,79,0
15360,note_on,,,,,1,0,0,,,,,0,,,77,70
15419,note_on,,,,,59,0,0,,,,,0,,,77,0
15420,note_on,,,,,1,0,0,,,,,0,,,78,69
15479,note_on,,,,,59,0,0,,,,,0,,,78,0
15480,note_on,,,,,1,0,0,,,,,0,,,77,68
15539,note_on,,,,,59,0,0,,,,,0,,,77,0
15540,note_on,,,,,1,0,0,,,,,0,,,79,67
15599,note_on,,,,,59,0,0,,,,,0,,,79,0
15600,note_on,,,,,1,0,0,,,,,0,,,77,66
15659,note_on,,,,,59,0,0,,,,,0,,,77,0
15660,note_on,,,,,1,0,0,,,,,0,,,78,65
15719,note_on,,,,,59,0,0,,,,,0,,,78,0
15720,note_on,,,,,1,0,0,,,,,0,,,77,64
15779,note_on,,,,,59,0,0,,,,,0,,,77,0
15780,note_on,,,,,1,0,0,,,,,0,,,79,63
15839,note_on,,,,,59,0,0,,,,,0,,,79,0
15840,note_on,,,,,1,0,0,,,,,0,,,77,62
15899,note_on,,,,,59,0,0,,,,,0,,,77,0
15900,note_on,,,,,1,0,0,,,,,0,,,78,61
15959,note_on,,,,,59,0,0,,,,,0,,,78,0
15960,note_on,,,,,1,0,0,,,,,0,,,77,60
16019,note_on,,,,,59,0,0,,,,,0,,,77,0
16020,note_on,,,,,1,0,0,,,,,0,,,79,59
16079,note_on,,,,,59,0,0,,,,,0,,,79,0
16080,note_on,,,,,1,0,0,,,,,0,,,77,58
16139,note_on,,,,,59,0,0,,,,,0,,,77,0
16140,note_on,,,,,1,0,0,,,,,0,,,78,57
16199,note_on,,,,,59,0,0,,,,,0,,,78,0
16200,note_on,,,,,1,0,0,,,,,0,,,77,56
16259,note_on,,,,,59,0,0,,,,,0,,,77,0
16260,note_on,,,,,1,0,0,,,,,0,,,79,55
16319,note_on,,,,,59,0,0,,,,,0,,,79,0
16320,note_on,,,,,0,0,0,,,,,0,,,77,55
16320,set_tempo,,,,,1,1,0,,666667,,,,,,,
16379,note_on,,,,,59,0,0,,,,,0,,,77,0
16380,note_on,,,,,1,0,0,,,,,0,,,78,55
16439,note_on,,,,,59,0,0,,,,,0,,,78,0
16440,note_on,,,,,1,0,0,,,,,0,,,77,55
16499,note_on,,,,,59,0,0,,,,,0,,,77,0
16500,note_on,,,,,1,0,0,,,,,0,,,79,55
16556,note_on,,,,,56,0,0,,,,,0,,,79,0
16560,note_on,,,,,0,0,0,,,,,0,,,77,55
16560,note_on,,,,,4,0,0,,,,,0,,,69,55
16560,note_on,,,,,0,0,1,,,,,0,,,65,55
16560,note_on,,,,,2221,0,1,,,,,0,,,63,55
16616,note_on,,,,,0,0,0,,,,,0,,,77,0
16616,note_on,,,,,56,0,0,,,,,0,,,69,0
16620,note_on,,,,,0,0,0,,,,,0,,,78,55
16620,note_on,,,,,4,0,0,,,,,0,,,72,55
16676,note_on,,,,,56,0,0,,,,,0,,,72,0
16676,note_on,,,,,0,0,0,,,,,0,,,78,0
16680,note_on,,,,,4,0,0,,,,,0,,,69,55
16680,note_on,,,,,0,0,0,,,,,0,,,77,55
16736,note_on,,,,,0,0,0,,,,,0,,,77,0
16736,note_on,,,,,56,0,0,,,,,0,,,69,0
16740,note_on,,,,,4,0,0,,,,,0,,,72,55
16740,note_on,,,,,0,0,0,,,,,0,,,79,55
16796,note_on,,,,,0,0,0,,,,,0,,,79,0
16796,note_on,,,,,56,0,0,,,,,0,,,72,0
16799,note_on,,,,,239,0,1,,,,,0,,,63,0
16800,note_on,,,,,1,0,1,,,,,0,,,62,55
16800,note_on,,,,,0,0,0,,,,,0,,,77,55
16800,note_on,,,,,4,0,0,,,,,0,,,70,55
16856,note_on,,,,,0,0,0,,,,,0,,,77,0
16856,note_on,,,,,56,0,0,,,,,0,,,70,0
16860,note_on,,,,,0,0,0,,,,,0,,,78,55
16860,note_on,,,,,4,0,0,,,,,0,,,74,55
16916,note_on,,,,,56,0,0,,,,,0,,,74,0
16916,note_on,,,,,0,0,0,,,,,0,,,78,0
16920,note_on,,,,,0,0,0,,,,,0,,,77,55
16920,note_on,,,,,4,0,0,,,,,0,,,70,55
16976,note_on,,,,,0,0,0,,,,,0,,,77,0
16976,note_on,,,,,56,0,0,,,,,0,,,70,0
16980,note_on,,,,,0,0,0,,,,,0,,,79,55
16980,note_on,,,,,4,0,0,,,,,0,,,74,55
17027,note_on,,,,,227,0,1,,,,,0,,,62,0
17036,note_on,,,,,56,0,0,,,,,0,,,74,0
17036,note_on,,,,,0,0,0,,,,,0,,,79,0
17039,note_on,,,,,12,0,1,,,,,0,,,65,0
17040,note_on,,,,,4,0,0,,,,,0,,,69,55
17040,note_on,,,,,0,0,0,,,,,0,,,77,55
17040,note_on,,,,,0,0,1,,,,,0,,,65,55
17040,note_on,,,,,1,0,1,,,,,0,,,60,55
17096,note_on,,,,,56,0,0,,,,,0,,,69,0
17096,note_on,,,,,0,0,0,,,,,0,,,77,0
17100,note_on,,,,,0,0,0,,,,,0,,,78,55
17100,note_on,,,,,4,0,0,,,,,0,,,75,55
17156,note_on,,,,,56,0,0,,,,,0,,,75,0
17156,note_on,,,,,0,0,0,,,,,0,,,78,0
17160,note_on,,,,,0,0,0,,,,,0,,,77,55
17160,note_on,,,,,4,0,0,,,,,0,,,69,55
17216,note_on,,,,,56,0,0,,,,,0,,,69,0
17216,note_on,,,,,0,0,0,,,,,0,,,77,0
17220,note_on,,,,,4,0,0,,,,,0,,,75,55
17220,note_on,,,,,0,0,0,,,,,0,,,79,55
17267,note_on,,,,,227,0,1,,,,,0,,,60,0
17276,note_on,,,,,0,0,0,,,,,0,,,79,0
17276,note_on,,,,,56,0,0,,,,,0,,,75,0
17280,note_on,,,,,13,0,1,,,,,0,,,58,55
17280,note_on,,,,,0,0,0,,,,,0,,,77,55
17280,note_on,,,,,4,0,0,,,,,0,,,70,55
17336,note_on,,,,,56,0,0,,,,,0,,,70,0
17336,note_on,,,,,0,0,0,,,,,0,,,77,0
17340,note_on,,,,,4,0,0,,,,,0,,,74,58
17340,note_on,,,,,0,0,0,,,,,0,,,78,58
17396,note_on,,,,,0,0,0,,,,,0,,,78,0
17396,note_on,,,,,56,0,0,,,,,0,,,74,0
17400,note_on,,,,,0,0,0,,,,,0,,,78,62
17400,note_on,,,,,4,0,0,,,,,0,,,70,62
17456,note_on,,,,,56,0,0,,,,,0,,,70,0
17456,note_on,,,,,0,0,0,,,,,0,,,78,0
17460,note_on,,,,,4,0,0,,,,,0,,,74,65
17460,note_on,,,,,0,0,0,,,,,0,,,79,65
17495,note_on,,,,,215,0,1,,,,,0,,,65,0
17507,note_on,,,,,12,0,1,,,,,0,,,58,0
17516,note_on,,,,,56,0,0,,,,,0,,,74,0
17516,note_on,,,,,0,0,0,,,,,0,,,79,0
17520,note_on,,,,,0,0,0,,,,,0,,,80,69
17520,note_on,,,,,4,0,0,,,,,0,,,74,69
17520,note_on,,,,,0,0,1,,,,,0,,,65,55
17520,note_on,,,,,13,0,1,,,,,0,,,53,55
17520,note_on,,,,,0,0,1,,,,,0,,,62,55
17576,note_on,,,,,0,0,0,,,,,0,,,80,0
17576,note_on,,,,,56,0,0,,,,,0,,,74,0
17580,note_on,,,,,0,0,0,,,,,0,,,81,72
17580,note_on,,,,,4,0,0,,,,,0,,,77,72
17636,note_on,,,,,0,0,0,,,,,0,,,81,0
17636,note_on,,,,,56,0,0,,,,,0,,,77,0
17639,note_on,,,,,119,0,1,,,,,0,,,62,0
17640,note_on,,,,,4,0,0,,,,,0,,,74,76
17640,note_on,,,,,0,0,0,,,,,0,,,81,76
17696,note_on,,,,,56,0,0,,,,,0,,,74,0
17696,note_on,,,,,0,0,0,,,,,0,,,81,0
17700,note_on,,,,,0,0,0,,,,,0,,,82,80
17700,note_on,,,,,4,0,0,,,,,0,,,77,80
17756,note_on,,,,,0,0,0,,,,,0,,,82,0
17756,note_on,,,,,56,0,0,,,,,0,,,77,0
17759,note_on,,,,,0,0,1,,,,,0,,,65,0
17759,note_on,,,,,120,0,1,,,,,0,,,53,0
17760,note_on,,,,,0,0,1,,,,,0,,,65,55
17760,note_on,,,,,4,0,0,,,,,0,,,72,77
17760,note_on,,,,,1,0,1,,,,,0,,,53,55
17760,note_on,,,,,0,0,1,,,,,0,,,63,55
17760,note_on,,,,,0,0,0,,,,,0,,,82,77
17816,note_on,,,,,56,0,0,,,,,0,,,72,0
17816,note_on,,,,,0,0,0,,,,,0,,,82,0
17820,note_on,,,,,0,0,0,,,,,0,,,81,74
17820,note_on,,,,,4,0,0,,,,,0,,,75,74
17876,note_on,,,,,56,0,0,,,,,0,,,75,0
17876,note_on,,,,,0,0,0,,,,,0,,,81,0
17879,note_on,,,,,119,0,1,,,,,0,,,63,0
17880,note_on,,,,,4,0,0,,,,,0,,,72,71
17880,note_on,,,,,0,0,0,,,,,0,,,81,71
17936,note_on,,,,,56,0,0,,,,,0,,,72,0
17936,note_on,,,,,0,0,0,,,,,0,,,81,0
17940,note_on,,,,,4,0,0,,,,,0,,,75,68
17940,note_on,,,,,0,0,0,,,,,0,,,80,68
17996,note_on,,,,,0,0,0,,,,,0,,,80,0
17996,note_on,,,,,56,0,0,,,,,0,,,75,0
17999,note_on,,,,,0,0,1,,,,,0,,,65,0
17999,note_on,,,,,120,0,1,,,,,0,,,53,0
18000,note_on,,,,,1,0,1,,,,,0,,,63,55
18000,note_on,,,,,4,0,0,,,,,0,,,72,65
18000,note_on,,,,,0,0,0,,,,,0,,,80,65
18000,note_on,,,,,0,0,1,,,,,0,,,65,55
18000,note_on,,,,,0,0,1,,,,,0,,,57,55
18056,note_on,,,,,56,0,0,,,,,0,,,72,0
18056,note_on,,,,,0,0,0,,,,,0,,,80,0
18060,note_on,,,,,4,0,0,,,,,0,,,75,62
18060,note_on,,,,,0,0,0,,,,,0,,,79,62
18116,note_on,,,,,56,0,0,,,,,0,,,75,0
18116,note_on,,,,,0,0,0,,,,,0,,,79,0
18119,note_on,,,,,119,0,1,,,,,0,,,57,0
18120,note_on,,,,,4,0,0,,,,,0,,,72,59
18120,note_on,,,,,0,0,0,,,,,0,,,79,59
18176,note_on,,,,,56,0,0,,,,,0,,,72,0
18176,note_on,,,,,0,0,0,,,,,0,,,79,0
18180,note_on,,,,,0,0,0,,,,,0,,,78,55
18180,note_on,,,,,4,0,0,,,,,0,,,75,55
18227,note_on,,,,,108,0,1,,,,,0,,,63,0
18236,note_on,,,,,0,0,0,,,,,0,,,78,0
18236,note_on,,,,,56,0,0,,,,,0,,,75,0
18240,note_on,,,,,13,0,1,,,,,0,,,62,55
18240,note_on,,,,,0,0,1,,,,,0,,,58,55
18240,note_on,,,,,4,0,0,,,,,0,,,70,55
18240,note_on,,,,,0,0,0,,,,,0,,,77,55
18296,note_on,,,,,0,0,0,,,,,0,,,77,0
18296,note_on,,,,,56,0,0,,,,,0,,,70,0
18300,note_on,,,,,0,0,0,,,,,0,,,78,55
18300,note_on,,,,,4,0,0,,,,,0,,,74,55
18356,note_on,,,,,56,0,0,,,,,0,,,74,0
18356,note_on,,,,,0,0,0,,,,,0,,,78,0
18359,note_on,,,,,119,0,1,,,,,0,,,58,0
18360,note_on,,,,,4,0,0,,,,,0,,,70,55
18360,note_on,,,,,0,0,0,,,,,0,,,77,55
18416,note_on,,,,,56,0,0,,,,,0,,,70,0
18416,note_on,,,,,0,0,0,,,,,0,,,77,0
18420,note_on,,,,,4,0,0,,,,,0,,,74,55
18420,note_on,,,,,0,0,0,,,,,0,,,79,55
18455,note_on,,,,,96,0,1,,,,,0,,,65,0
18467,note_on,,,,,12,0,1,,,,,0,,,62,0
18476,note_on,,,,,0,0,0,,,,,0,,,79,0
18476,note_on,,,,,56,0,0,,,,,0,,,74,0
18480,note_on,,,,,13,0,1,,,,,0,,,63,55
18480,note_on,,,,,0,0,1,,,,,0,,,65,55
18480,note_on,,,,,0,0,0,,,,,0,,,77,55
18480,note_on,,,,,4,0,0,,,,,0,,,69,55
18536,note_on,,,,,0,0,0,,,,,0,,,77,0
18536,note_on,,,,,56,0,0,,,,,0,,,69,0
18540,note_on,,,,,0,0,0,,,,,0,,,78,55
18540,note_on,,,,,4,0,0,,,,,0,,,72,55
18596,note_on,,,,,0,0,0,,,,,0,,,78,0
18596,note_on,,,,,56,0,0,,,,,0,,,72,0
18600,note_on,,,,,0,0,0,,,,,0,,,77,55
18600,note_on,,,,,4,0,0,,,,,0,,,69,55
18656,note_on,,,,,56,0,0,,,,,0,,,69,0
18656,note_on,,,,,0,0,0,,,,,0,,,77,0
18660,note_on,,,,,4,0,0,,,,,0,,,72,55
18660,note_on,,,,,0,0,0,,,,,0,,,79,55
18716,note_on,,,,,56,0,0,,,,,0,,,72,0
18716,note_on,,,,,0,0,0,,,,,0,,,79,0
18719,note_on,,,,,239,0,1,,,,,0,,,63,0
18720,note_on,,,,,4,0,0,,,,,0,,,70,55
18720,note_on,,,,,1,0,1,,,,,0,,,62,54
18720,note_on,,,,,0,0,0,,,,,0,,,77,55
18776,note_on,,,,,56,0,0,,,,,0,,,70,0
18776,note_on,,,,,0,0,0,,,,,0,,,77,0
18780,note_on,,,,,4,0,0,,,,,0,,,74,55
18780,note_on,,,,,0,0,0,,,,,0,,,78,55
18836,note_on,,,,,56,0,0,,,,,0,,,74,0
18836,note_on,,,,,0,0,0,,,,,0,,,78,0
18840,note_on,,,,,4,0,0,,,,,0,,,70,55
18840,note_on,,,,,0,0,0,,,,,0,,,77,55
18896,note_on,,,,,0,0,0,,,,,0,,,77,0
18896,note_on,,,,,56,0,0,,,,,0,,,70,0
18900,note_on,,,,,0,0,0,,,,,0,,,79,55
18900,note_on,,,,,4,0,0,,,,,0,,,74,55
18947,note_on,,,,,227,0,1,,,,,0,,,62,0
18956,note_on,,,,,0,0,0,,,,,0,,,79,0
18956,note_on,,,,,56,0,0,,,,,0,,,74,0
18959,note_on,,,,,12,0,1,,,,,0,,,65,0
18960,note_on,,,,,1,0,1,,,,,0,,,60,53
18960,note_on,,,,,0,0,1,,,,,0,,,65,53
18960,note_on,,,,,4,0,0,,,,,0,,,69,55
18960,note_on,,,,,0,0,0,,,,,0,,,77,55
19016,note_on,,,,,0,0,0,,,,,0,,,77,0
19016,note_on,,,,,56,0,0,,,,,0,,,69,0
19020,note_on,,,,,4,0,0,,,,,0,,,75,55
19020,note_on,,,,,0,0,0,,,,,0,,,78,55
19076,note_on,,,,,56,0,0,,,,,0,,,75,0
19076,note_on,,,,,0,0,0,,,,,0,,,78,0
19080,note_on,,,,,4,0,0,,,,,0,,,69,55
19080,note_on,,,,,0,0,0,,,,,0,,,77,55
19136,note_on,,,,,56,0,0,,,,,0,,,69,0
19136,note_on,,,,,0,0,0,,,,,0,,,77,0
19140,note_on,,,,,4,0,0,,,,,0,,,75,55
19140,note_on,,,,,0,0,0,,,,,0,,,79,55
19187,note_on,,,,,227,0,1,,,,,0,,,60,0
19196,note_on,,,,,56,0,0,,,,,0,,,75,0
19196,note_on,,,,,0,0,0,,,,,0,,,79,0
19200,note_on,,,,,13,0,1,,,,,0,,,58,53
19200,note_on,,,,,4,0,0,,,,,0,,,70,55
19200,note_on,,,,,0,0,0,,,,,0,,,77,55
19256,note_on,,,,,0,0,0,,,,,0,,,77,0
19256,note_on,,,,,56,0,0,,,,,0,,,70,0
19260,note_on,,,,,0,0,0,,,,,0,,,78,58
19260,note_on,,,,,4,0,0,,,,,0,,,74,58
19316,note_on,,,,,0,0,0,,,,,0,,,78,0
19316,note_on,,,,,56,0,0,,,,,0,,,74,0
19320,note_on,,,,,4,0,0,,,,,0,,,70,62
19320,note_on,,,,,0,0,0,,,,,0,,,78,62
19376,note_on,,,,,56,0,0,,,,,0,,,70,0
19376,note_on,,,,,0,0,0,,,,,0,,,78,0
19380,note_on,,,,,0,0,0,,,,,0,,,79,65
19380,note_on,,,,,4,0,0,,,,,0,,,74,65
19415,note_on,,,,,215,0,1,,,,,0,,,65,0
19427,note_on,,,,,12,0,1,,,,,0,,,58,0
19436,note_on,,,,,56,0,0,,,,,0,,,74,0
19436,note_on,,,,,0,0,0,,,,,0,,,79,0
19440,note_on,,,,,0,0,0,,,,,0,,,80,69
19440,note_on,,,,,13,0,1,,,,,0,,,53,53
19440,note_on,,,,,4,0,0,,,,,0,,,74,69
19440,note_on,,,,,0,0,1,,,,,0,,,65,53
19440,note_on,,,,,0,0,1,,,,,0,,,62,53
19496,note_on,,,,,0,0,0,,,,,0,,,80,0
19496,note_on,,,,,56,0,0,,,,,0,,,74,0
19500,note_on,,,,,0,0,0,,,,,0,,,81,72
19500,note_on,,,,,4,0,0,,,,,0,,,77,72
19556,note_on,,,,,56,0,0,,,,,0,,,77,0
19556,note_on,,,,,0,0,0,,,,,0,,,81,0
19559,note_on,,,,,119,0,1,,,,,0,,,62,0
19560,note_on,,,,,4,0,0,,,,,0,,,74,76
19560,note_on,,,,,0,0,0,,,,,0,,,81,76
19616,note_on,,,,,56,0,0,,,,,0,,,74,0
19616,note_on,,,,,0,0,0,,,,,0,,,81,0
19620,note_on,,,,,4,0,0,,,,,0,,,77,80
19620,note_on,,,,,0,0,0,,,,,0,,,82,80
19676,note_on,,,,,56,0,0,,,,,0,,,77,0
19676,note_on,,,,,0,0,0,,,,,0,,,82,0
19679,note_on,,,,,120,0,1,,,,,0,,,53,0
19679,note_on,,,,,0,0,1,,,,,0,,,65,0
19680,note_on,,,,,0,0,0,,,,,0,,,82,77
19680,note_on,,,,,0,0,1,,,,,0,,,65,53
19680,note_on,,,,,0,0,1,,,,,0,,,63,53
19680,note_on,,,,,4,0,0,,,,,0,,,72,77
19680,note_on,,,,,1,0,1,,,,,0,,,53,53
19736,note_on,,,,,56,0,0,,,,,0,,,72,0
19736,note_on,,,,,0,0,0,,,,,0,,,82,0
19740,note_on,,,,,0,0,0,,,,,0,,,81,74
19740,note_on,,,,,4,0,0,,,,,0,,,75,74
19796,note_on,,,,,0,0,0,,,,,0,,,81,0
19796,note_on,,,,,56,0,0,,,,,0,,,75,0
19799,note_on,,,,,119,0,1,,,,,0,,,63,0
19800,note_on,,,,,4,0,0,,,,,0,,,72,71
19800,note_on,,,,,0,0,0,,,,,0,,,81,71
19856,note_on,,,,,0,0,0,,,,,0,,,81,0
19856,note_on,,,,,56,0,0,,,,,0,,,72,0
19860,note_on,,,,,0,0,0,,,,,0,,,80,68
19860,note_on,,,,,4,0,0,,,,,0,,,75,68
19916,note_on,,,,,56,0,0,,,,,0,,,75,0
19916,note_on,,,,,0,0,0,,,,,0,,,80,0
19919,note_on,,,,,120,0,1,,,,,0,,,53,0
19919,note_on,,,,,0,0,1,,,,,0,,,65,0
19920,note_on,,,,,0,0,1,,,,,0,,,57,53
19920,note_on,,,,,0,0,0,,,,,0,,,80,65
19920,note_on,,,,,0,0,1,,,,,0,,,65,53
19920,note_on,,,,,4,0,0,,,,,0,,,72,65
19920,note_on,,,,,1,0,1,,,,,0,,,63,53
19976,note_on,,,,,56,0,0,,,,,0,,,72,0
19976,note_on,,,,,0,0,0,,,,,0,,,80,0
19980,note_on,,,,,4,0,0,,,,,0,,,75,62
19980,note_on,,,,,0,0,0,,,,,0,,,79,62
20036,note_on,,,,,56,0,0,,,,,0,,,75,0
20036,note_on,,,,,0,0,0,,,,,0,,,79,0
20039,note_on,,,,,119,0,1,,,,,0,,,57,0
20040,note_on,,,,,0,0,0,,,,,0,,,79,59
20040,note_on,,,,,4,0,0,,,,,0,,,72,59
20096,note_on,,,,,0,0,0,,,,,0,,,79,0
20096,note_on,,,,,56,0,0,,,,,0,,,72,0
20100,note_on,,,,,4,0,0,,,,,0,,,75,55
20100,note_on,,,,,0,0,0,,,,,0,,,78,55
20147,note_on,,,,,0,0,1,,,,,0,,,65,0
20147,note_on,,,,,108,0,1,,,,,0,,,63,0
20156,note_on,,,,,56,0,0,,,,,0,,,75,0
20156,note_on,,,,,0,0,0,,,,,0,,,78,0
20160,note_on,,,,,0,0,1,,,,,0,,,65,53
20160,note_on,,,,,0,0,0,,,,,0,,,77,55
20160,note_on,,,,,0,0,1,,,,,0,,,58,53
20160,note_on,,,,,13,0,1,,,,,0,,,62,53
20160,note_on,,,,,4,0,0,,,,,0,,,74,55
20216,note_on,,,,,56,0,0,,,,,0,,,74,0
20216,note_on,,,,,0,0,0,,,,,0,,,77,0
20220,note_on,,,,,4,0,0,,,,,0,,,70,55
20220,note_on,,,,,0,0,0,,,,,0,,,78,55
20276,note_on,,,,,56,0,0,,,,,0,,,70,0
20276,note_on,,,,,0,0,0,,,,,0,,,78,0
20279,note_on,,,,,119,0,1,,,,,0,,,58,0
20280,note_on,,,,,0,0,0,,,,,0,,,77,55
20280,note_on,,,,,4,0,0,,,,,0,,,74,55
20336,note_on,,,,,0,0,0,,,,,0,,,77,0
20336,note_on,,,,,56,0,0,,,,,0,,,74,0
20340,note_on,,,,,4,0,0,,,,,0,,,81,55
20387,note_on,,,,,108,0,1,,,,,0,,,62,0
20387,note_on,,,,,0,0,1,,,,,0,,,65,0
20396,note_on,,,,,56,0,0,,,,,0,,,81,0
20400,note_on,,,,,0,0,1,,,,,0,,,70,53
20400,note_on,,,,,0,0,0,,,,,0,,,82,53
20400,note_on,,,,,13,0,1,,,,,0,,,68,53
20400,note_on,,,,,4,0,0,,,,,0,,,74,53
20456,note_on,,,,,0,0,0,,,,,0,,,82,0
20456,note_on,,,,,56,0,0,,,,,0,,,74,0
20460,note_on,,,,,4,0,0,,,,,0,,,77,53
20460,note_on,,,,,0,0,0,,,,,0,,,83,53
20516,note_on,,,,,0,0,0,,,,,0,,,83,0
20516,note_on,,,,,56,0,0,,,,,0,,,77,0
20520,note_on,,,,,4,0,0,,,,,0,,,74,52
20520,note_on,,,,,0,0,0,,,,,0,,,82,52
20576,note_on,,,,,56,0,0,,,,,0,,,74,0
20576,note_on,,,,,0,0,0,,,,,0,,,82,0
20580,note_on,,,,,0,0,0,,,,,0,,,83,52
20580,note_on,,,,,4,0,0,,,,,0,,,77,52
20636,note_on,,,,,56,0,0,,,,,0,,,77,0
20636,note_on,,,,,0,0,0,,,,,0,,,83,0
20639,note_on,,,,,239,0,1,,,,,0,,,68,0
20640,note_on,,,,,1,0,1,,,,,0,,,66,51
20640,note_on,,,,,4,0,0,,,,,0,,,75,51
20640,note_on,,,,,0,0,0,,,,,0,,,82,51
20696,note_on,,,,,56,0,0,,,,,0,,,75,0
20696,note_on,,,,,0,0,0,,,,,0,,,82,0
20700,note_on,,,,,4,0,0,,,,,0,,,78,51
20700,note_on,,,,,0,0,0,,,,,0,,,83,51
20756,note_on,,,,,56,0,0,,,,,0,,,78,0
20756,note_on,,,,,0,0,0,,,,,0,,,83,0
20760,note_on,,,,,0,0,0,,,,,0,,,82,51
20760,note_on,,,,,4,0,0,,,,,0,,,75,51
20816,note_on,,,,,56,0,0,,,,,0,,,75,0
20816,note_on,,,,,0,0,0,,,,,0,,,82,0
20820,note_on,,,,,0,0,0,,,,,0,,,83,51
20820,note_on,,,,,4,0,0,,,,,0,,,78,51
20867,note_on,,,,,227,0,1,,,,,0,,,66,0
20876,note_on,,,,,56,0,0,,,,,0,,,78,0
20876,note_on,,,,,0,0,0,,,,,0,,,83,0
20879,note_on,,,,,12,0,1,,,,,0,,,70,0
20880,note_on,,,,,0,0,0,,,,,0,,,82,51
20880,note_on,,,,,1,0,1,,,,,0,,,65,51
20880,note_on,,,,,0,0,1,,,,,0,,,70,51
20880,note_on,,,,,4,0,0,,,,,0,,,74,51
20936,note_on,,,,,56,0,0,,,,,0,,,74,0
20936,note_on,,,,,0,0,0,,,,,0,,,82,0
20940,note_on,,,,,0,0,0,,,,,0,,,83,51
20940,note_on,,,,,4,0,0,,,,,0,,,80,51
20996,note_on,,,,,0,0,0,,,,,0,,,83,0
20996,note_on,,,,,56,0,0,,,,,0,,,80,0
21000,note_on,,,,,4,0,0,,,,,0,,,74,51
21000,note_on,,,,,0,0,0,,,,,0,,,82,51
21056,note_on,,,,,0,0,0,,,,,0,,,82,0
21056,note_on,,,,,56,0,0,,,,,0,,,74,0
21060,note_on,,,,,0,0,0,,,,,0,,,83,51
21060,note_on,,,,,4,0,0,,,,,0,,,80,51
21107,note_on,,,,,227,0,1,,,,,0,,,65,0
21116,note_on,,,,,56,0,0,,,,,0,,,80,0
21116,note_on,,,,,0,0,0,,,,,0,,,83,0
21120,note_on,,,,,4,0,0,,,,,0,,,75,55
21120,note_on,,,,,13,0,1,,,,,0,,,63,51
21120,note_on,,,,,0,0,0,,,,,0,,,82,55
21176,note_on,,,,,56,0,0,,,,,0,,,75,0
21176,note_on,,,,,0,0,0,,,,,0,,,82,0
21180,note_on,,,,,0,0,0,,,,,0,,,83,58
21180,note_on,,,,,4,0,0,,,,,0,,,78,58
21236,note_on,,,,,56,0,0,,,,,0,,,78,0
21236,note_on,,,,,0,0,0,,,,,0,,,83,0
21240,note_on,,,,,0,0,0,,,,,0,,,83,62
21240,note_on,,,,,4,0,0,,,,,0,,,75,62
21296,note_on,,,,,0,0,0,,,,,0,,,83,0
21296,note_on,,,,,56,0,0,,,,,0,,,75,0
21300,note_on,,,,,4,0,0,,,,,0,,,78,65
21300,note_on,,,,,0,0,0,,,,,0,,,84,65
21335,note_on,,,,,215,0,1,,,,,0,,,70,0
21347,note_on,,,,,12,0,1,,,,,0,,,63,0
21356,note_on,,,,,56,0,0,,,,,0,,,78,0
21356,note_on,,,,,0,0,0,,,,,0,,,84,0
21360,note_on,,,,,4,0,0,,,,,0,,,78,69
21360,note_on,,,,,13,0,1,,,,,0,,,58,51
21360,note_on,,,,,0,0,1,,,,,0,,,70,51
21360,note_on,,,,,0,0,0,,,,,0,,,85,69
21360,note_on,,,,,0,0,1,,,,,0,,,66,51
21416,note_on,,,,,0,0,0,,,,,0,,,85,0
21416,note_on,,,,,56,0,0,,,,,0,,,78,0
21420,note_on,,,,,0,0,0,,,,,0,,,86,72
21420,note_on,,,,,4,0,0,,,,,0,,,82,72
21476,note_on,,,,,56,0,0,,,,,0,,,82,0
21476,note_on,,,,,0,0,0,,,,,0,,,86,0
21479,note_on,,,,,119,0,1,,,,,0,,,66,0
21480,note_on,,,,,0,0,0,,,,,0,,,86,76
21480,note_on,,,,,4,0,0,,,,,0,,,78,76
21536,note_on,,,,,0,0,0,,,,,0,,,86,0
21536,note_on,,,,,56,0,0,,,,,0,,,78,0
21540,note_on,,,,,4,0,0,,,,,0,,,82,80
21540,note_on,,,,,0,0,0,,,,,0,,,87,80
21596,note_on,,,,,56,0,0,,,,,0,,,82,0
21596,note_on,,,,,0,0,0,,,,,0,,,87,0
21599,note_on,,,,,0,0,1,,,,,0,,,70,0
21599,note_on,,,,,120,0,1,,,,,0,,,58,0
21600,note_on,,,,,0,0,1,,,,,0,,,70,51
21600,note_on,,,,,0,0,1,,,,,0,,,68,51
21600,note_on,,,,,4,0,0,,,,,0,,,77,77
21600,note_on,,,,,0,0,0,,,,,0,,,87,77
21600,note_on,,,,,1,0,1,,,,,0,,,58,51
21656,note_on,,,,,0,0,0,,,,,0,,,87,0
21656,note_on,,,,,56,0,0,,,,,0,,,77,0
21660,note_on,,,,,4,0,0,,,,,0,,,80,74
21660,note_on,,,,,0,0,0,,,,,0,,,86,74
21716,note_on,,,,,0,0,0,,,,,0,,,86,0
21716,note_on,,,,,56,0,0,,,,,0,,,80,0
21719,note_on,,,,,119,0,1,,,,,0,,,68,0
21720,note_on,,,,,4,0,0,,,,,0,,,77,71
21720,note_on,,,,,0,0,0,,,,,0,,,86,71
21776,note_on,,,,,56,0,0,,,,,0,,,77,0
21776,note_on,,,,,0,0,0,,,,,0,,,86,0
21780,note_on,,,,,4,0,0,,,,,0,,,80,68
21780,note_on,,,,,0,0,0,,,,,0,,,85,68
21836,note_on,,,,,56,0,0,,,,,0,,,80,0
21836,note_on,,,,,0,0,0,,,,,0,,,85,0
21839,note_on,,,,,120,0,1,,,,,0,,,58,0
21839,note_on,,,,,0,0,1,,,,,0,,,70,0
21840,note_on,,,,,0,0,1,,,,,0,,,70,51
21840,note_on,,,,,0,0,1,,,,,0,,,62,51
21840,note_on,,,,,1,0,1,,,,,0,,,68,51
21840,note_on,,,,,4,0,0,,,,,0,,,77,65
21840,note_on,,,,,0,0,0,,,,,0,,,85,65
21896,note_on,,,,,0,0,0,,,,,0,,,85,0
21896,note_on,,,,,56,0,0,,,,,0,,,77,0
21900,note_on,,,,,0,0,0,,,,,0,,,84,62
21900,note_on,,,,,4,0,0,,,,,0,,,80,62
21956,note_on,,,,,56,0,0,,,,,0,,,80,0
21956,note_on,,,,,0,0,0,,,,,0,,,84,0
21959,note_on,,,,,119,0,1,,,,,0,,,62,0
21960,note_on,,,,,4,0,0,,,,,0,,,77,59
21960,note_on,,,,,0,0,0,,,,,0,,,84,59
22016,note_on,,,,,0,0,0,,,,,0,,,84,0
22016,note_on,,,,,56,0,0,,,,,0,,,77,0
22020,note_on,,,,,0,0,0,,,,,0,,,83,55
22020,note_on,,,,,4,0,0,,,,,0,,,80,55
22067,note_on,,,,,108,0,1,,,,,0,,,68,0
22076,note_on,,,,,56,0,0,,,,,0,,,80,0
22076,note_on,,,,,0,0,0,,,,,0,,,83,0
22080,note_on,,,,,0,0,1,,,,,0,,,63,51
22080,note_on,,,,,0,0,0,,,,,0,,,82,55
22080,note_on,,,,,13,0,1,,,,,0,,,66,51
22080,note_on,,,,,4,0,0,,,,,0,,,78,55
22136,note_on,,,,,56,0,0,,,,,0,,,78,0
22136,note_on,,,,,0,0,0,,,,,0,,,82,0
22140,note_on,,,,,4,0,0,,,,,0,,,75,55
22140,note_on,,,,,0,0,0,,,,,0,,,83,55
22196,note_on,,,,,56,0,0,,,,,0,,,75,0
22196,note_on,,,,,0,0,0,,,,,0,,,83,0
22199,note_on,,,,,119,0,1,,,,,0,,,63,0
22200,note_on,,,,,0,0,0,,,,,0,,,82,55
22200,note_on,,,,,4,0,0,,,,,0,,,78,55
22256,note_on,,,,,0,0,0,,,,,0,,,82,0
22256,note_on,,,,,56,0,0,,,,,0,,,78,0
22260,note_on,,,,,4,0,0,,,,,0,,,75,55
22260,note_on,,,,,0,0,0,,,,,0,,,83,55
22295,note_on,,,,,96,0,1,,,,,0,,,70,0
22307,note_on,,,,,12,0,1,,,,,0,,,66,0
22316,note_on,,,,,56,0,0,,,,,0,,,75,0
22316,note_on,,,,,0,0,0,,,,,0,,,83,0
22320,note_on,,,,,0,0,1,,,,,0,,,70,51
22320,note_on,,,,,13,0,1,,,,,0,,,68,51
22320,note_on,,,,,4,0,0,,,,,0,,,74,51
22320,note_on,,,,,0,0,0,,,,,0,,,82,51
22376,note_on,,,,,0,0,0,,,,,0,,,82,0
22376,note_on,,,,,56,0,0,,,,,0,,,74,0
22380,note_on,,,,,4,0,0,,,,,0,,,77,51
22380,note_on,,,,,0,0,0,,,,,0,,,83,51
22436,note_on,,,,,56,0,0,,,,,0,,,77,0
22436,note_on,,,,,0,0,0,,,,,0,,,83,0
22440,note_on,,,,,0,0,0,,,,,0,,,82,51
22440,note_on,,,,,4,0,0,,,,,0,,,74,51
22496,note_on,,,,,56,0,0,,,,,0,,,74,0
22496,note_on,,,,,0,0,0,,,,,0,,,82,0
22500,note_on,,,,,4,0,0,,,,,0,,,77,51
22500,note_on,,,,,0,0,0,,,,,0,,,83,51
22556,note_on,,,,,56,0,0,,,,,0,,,77,0
22556,note_on,,,,,0,0,0,,,,,0,,,83,0
22559,note_on,,,,,239,0,1,,,,,0,,,68,0
22560,note_on,,,,,4,0,0,,,,,0,,,75,50
22560,note_on,,,,,1,0,1,,,,,0,,,66,50
22560,note_on,,,,,0,0,0,,,,,0,,,82,50
22616,note_on,,,,,0,0,0,,,,,0,,,82,0
22616,note_on,,,,,56,0,0,,,,,0,,,75,0
22620,note_on,,,,,0,0,0,,,,,0,,,83,50
22620,note_on,,,,,4,0,0,,,,,0,,,78,50
22676,note_on,,,,,0,0,0,,,,,0,,,83,0
22676,note_on,,,,,56,0,0,,,,,0,,,78,0
22680,note_on,,,,,0,0,0,,,,,0,,,82,50
22680,note_on,,,,,4,0,0,,,,,0,,,75,50
22736,note_on,,,,,56,0,0,,,,,0,,,75,0
22736,note_on,,,,,0,0,0,,,,,0,,,82,0
22740,note_on,,,,,0,0,0,,,,,0,,,83,50
22740,note_on,,,,,4,0,0,,,,,0,,,78,50
22787,note_on,,,,,227,0,1,,,,,0,,,66,0
22796,note_on,,,,,0,0,0,,,,,0,,,83,0
22796,note_on,,,,,56,0,0,,,,,0,,,78,0
22799,note_on,,,,,12,0,1,,,,,0,,,70,0
22800,note_on,,,,,1,0,1,,,,,0,,,65,49
22800,note_on,,,,,0,0,0,,,,,0,,,82,49
22800,note_on,,,,,4,0,0,,,,,0,,,74,49
22800,note_on,,,,,0,0,1,,,,,0,,,70,49
22856,note_on,,,,,0,0,0,,,,,0,,,82,0
22856,note_on,,,,,56,0,0,,,,,0,,,74,0
22860,note_on,,,,,4,0,0,,,,,0,,,80,49
22860,note_on,,,,,0,0,0,,,,,0,,,83,49
22916,note_on,,,,,56,0,0,,,,,0,,,80,0
22916,note_on,,,,,0,0,0,,,,,0,,,83,0
22920,note_on,,,,,4,0,0,,,,,0,,,74,49
22920,note_on,,,,,0,0,0,,,,,0,,,82,49
22976,note_on,,,,,0,0,0,,,,,0,,,82,0
22976,note_on,,,,,56,0,0,,,,,0,,,74,0
22980,note_on,,,,,4,0,0,,,,,0,,,80,49
22980,note_on,,,,,0,0,0,,,,,0,,,83,49
23027,note_on,,,,,227,0,1,,,,,0,,,65,0
23036,note_on,,,,,0,0,0,,,,,0,,,83,0
23036,note_on,,,,,56,0,0,,,,,0,,,80,0
23040,note_on,,,,,4,0,0,,,,,0,,,75,55
23040,note_on,,,,,13,0,1,,,,,0,,,63,55
23040,note_on,,,,,0,0,0,,,,,0,,,82,55
23096,note_on,,,,,0,0,0,,,,,0,,,82,0
23096,note_on,,,,,56,0,0,,,,,0,,,75,0
23100,note_on,,,,,0,0,0,,,,,0,,,83,57
23100,note_on,,,,,4,0,0,,,,,0,,,78,57
23156,note_on,,,,,0,0,0,,,,,0,,,83,0
23156,note_on,,,,,56,0,0,,,,,0,,,78,0
23160,note_on,,,,,4,0,0,,,,,0,,,75,59
23160,note_on,,,,,0,0,0,,,,,0,,,83,59
23216,note_on,,,,,0,0,0,,,,,0,,,83,0
23216,note_on,,,,,56,0,0,,,,,0,,,75,0
23220,note_on,,,,,4,0,0,,,,,0,,,78,61
23220,note_on,,,,,0,0,0,,,,,0,,,84,61
23255,note_on,,,,,215,0,1,,,,,0,,,70,0
23267,note_on,,,,,12,0,1,,,,,0,,,63,0
23276,note_on,,,,,56,0,0,,,,,0,,,78,0
23276,note_on,,,,,0,0,0,,,,,0,,,84,0
23280,note_on,,,,,0,0,0,,,,,0,,,85,64
23280,note_on,,,,,4,0,0,,,,,0,,,78,64
23280,note_on,,,,,13,0,1,,,,,0,,,58,64
23280,note_on,,,,,0,0,1,,,,,0,,,66,64
23280,note_on,,,,,0,0,1,,,,,0,,,70,64
23336,note_on,,,,,0,0,0,,,,,0,,,85,0
23336,note_on,,,,,56,0,0,,,,,0,,,78,0
23340,note_on,,,,,0,0,0,,,,,0,,,86,66
23340,note_on,,,,,4,0,0,,,,,0,,,82,66
23396,note_on,,,,,56,0,0,,,,,0,,,82,0
23396,note_on,,,,,0,0,0,,,,,0,,,86,0
23399,note_on,,,,,119,0,1,,,,,0,,,66,0
23400,note_on,,,,,0,0,0,,,,,0,,,86,68
23400,note_on,,,,,4,0,0,,,,,0,,,78,68
23456,note_on,,,,,0,0,0,,,,,0,,,86,0
23456,note_on,,,,,56,0,0,,,,,0,,,78,0
23460,note_on,,,,,0,0,0,,,,,0,,,87,70
23460,note_on,,,,,4,0,0,,,,,0,,,82,70
23516,note_on,,,,,56,0,0,,,,,0,,,82,0
23516,note_on,,,,,0,0,0,,,,,0,,,87,0
23519,note_on,,,,,0,0,1,,,,,0,,,70,0
23519,note_on,,,,,120,0,1,,,,,0,,,58,0
23520,note_on,,,,,0,0,0,,,,,0,,,87,73
23520,note_on,,,,,0,0,1,,,,,0,,,70,73
23520,note_on,,,,,1,0,1,,,,,0,,,58,73
23520,note_on,,,,,0,0,1,,,,,0,,,68,73
23520,note_on,,,,,4,0,0,,,,,0,,,77,73
23576,note_on,,,,,0,0,0,,,,,0,,,87,0
23576,note_on,,,,,56,0,0,,,,,0,,,77,0
23580,note_on,,,,,4,0,0,,,,,0,,,80,75
23580,note_on,,,,,0,0,0,,,,,0,,,86,75
23636,note_on,,,,,0,0,0,,,,,0,,,86,0
23636,note_on,,,,,56,0,0,,,,,0,,,80,0
23639,note_on,,,,,119,0,1,,,,,0,,,68,0
23640,note_on,,,,,4,0,0,,,,,0,,,77,77
23640,note_on,,,,,0,0,0,,,,,0,,,86,77
23696,note_on,,,,,56,0,0,,,,,0,,,77,0
23696,note_on,,,,,0,0,0,,,,,0,,,86,0
23700,note_on,,,,,4,0,0,,,,,0,,,80,80
23700,note_on,,,,,0,0,0,,,,,0,,,85,80
23756,note_on,,,,,0,0,0,,,,,0,,,85,0
23756,note_on,,,,,56,0,0,,,,,0,,,80,0
23759,note_on,,,,,120,0,1,,,,,0,,,58,0
23759,note_on,,,,,0,0,1,,,,,0,,,70,0
23760,note_on,,,,,1,0,1,,,,,0,,,68,80
23760,note_on,,,,,4,0,0,,,,,0,,,77,80
23760,note_on,,,,,0,0,1,,,,,0,,,70,80
23760,note_on,,,,,0,0,0,,,,,0,,,85,80
23760,note_on,,,,,0,0,1,,,,,0,,,62,80
23816,note_on,,,,,0,0,0,,,,,0,,,85,0
23816,note_on,,,,,56,0,0,,,,,0,,,77,0
23820,note_on,,,,,0,0,0,,,,,0,,,84,80
23820,note_on,,,,,4,0,0,,,,,0,,,80,80
23876,note_on,,,,,56,0,0,,,,,0,,,80,0
23876,note_on,,,,,0,0,0,,,,,0,,,84,0
23879,note_on,,,,,119,0,1,,,,,0,,,62,0
23880,note_on,,,,,4,0,0,,,,,0,,,77,80
23880,note_on,,,,,0,0,0,,,,,0,,,84,80
23936,note_on,,,,,0,0,0,,,,,0,,,84,0
23936,note_on,,,,,56,0,0,,,,,0,,,77,0
23940,note_on,,,,,4,0,0,,,,,0,,,80,80
23940,note_on,,,,,0,0,0,,,,,0,,,83,80
23987,note_on,,,,,108,0,1,,,,,0,,,68,0
23996,note_on,,,,,0,0,0,,,,,0,,,83,0
23996,note_on,,,,,56,0,0,,,,,0,,,80,0
24000,note_on,,,,,13,0,1,,,,,0,,,66,80
24000,note_on,,,,,0,0,0,,,,,0,,,82,80
24000,note_on,,,,,0,0,1,,,,,0,,,63,80
24000,note_on,,,,,4,0,0,,,,,0,,,78,80
24056,note_on,,,,,56,0,0,,,,,0,,,78,0
24056,note_on,,,,,0,0,0,,,,,0,,,82,0
24060,note_on,,,,,0,0,0,,,,,0,,,83,80
24060,note_on,,,,,4,0,0,,,,,0,,,75,80
24116,note_on,,,,,56,0,0,,,,,0,,,75,0
24116,note_on,,,,,0,0,0,,,,,0,,,83,0
24119,note_on,,,,,119,0,1,,,,,0,,,63,0
24120,note_on,,,,,4,0,0,,,,,0,,,78,80
24120,note_on,,,,,0,0,0,,,,,0,,,82,80
24176,note_on,,,,,56,0,0,,,,,0,,,78,0
24176,note_on,,,,,0,0,0,,,,,0,,,82,0
24180,note_on,,,,,4,0,0,,,,,0,,,87,80
24215,note_on,,,,,96,0,1,,,,,0,,,70,0
24227,note_on,,,,,12,0,1,,,,,0,,,66,0
24236,note_on,,,,,56,0,0,,,,,0,,,87,0
24240,note_on,,,,,4,0,0,,,,,0,,,78,80
24240,note_on,,,,,13,0,1,,,,,0,,,46,96
24240,note_on,,,,,0,0,1,,,,,0,,,61,96
24240,note_on,,,,,0,0,0,,,,,0,,,90,80
24299,note_on,,,,,59,0,0,,,,,0,,,78,0
24300,note_on,,,,,0,0,0,,,,,0,,,87,80
24300,note_on,,,,,1,0,0,,,,,0,,,85,80
24359,note_on,,,,,0,0,0,,,,,0,,,87,0
24359,note_on,,,,,59,0,0,,,,,0,,,85,0
24360,note_on,,,,,1,0,0,,,,,0,,,78,80
24360,note_on,,,,,0,0,0,,,,,0,,,90,0
24360,note_on,,,,,0,0,0,,,,,0,,,90,80
24419,note_on,,,,,59,0,0,,,,,0,,,78,0
24419,note_on,,,,,0,0,0,,,,,0,,,90,0
24420,note_on,,,,,0,0,0,,,,,0,,,88,80
24420,note_on,,,,,1,0,0,,,,,0,,,85,80
24476,note_on,,,,,0,0,0,,,,,0,,,88,0
24476,note_on,,,,,56,0,0,,,,,0,,,85,0
24479,note_on,,,,,0,0,1,,,,,0,,,61,0
24479,note_on,,,,,239,0,1,,,,,0,,,46,0
24480,note_on,,,,,0,0,0,,,,,0,,,88,80
24480,note_on,,,,,1,0,1,,,,,0,,,47,80
24480,note_on,,,,,4,0,0,,,,,0,,,78,80
24480,note_on,,,,,0,0,1,,,,,0,,,63,80
24539,note_on,,,,,59,0,0,,,,,0,,,78,0
24540,note_on,,,,,1,0,0,,,,,0,,,83,80
24540,note_on,,,,,0,0,0,,,,,0,,,86,80
24593,note_on,,,,,113,0,1,,,,,0,,,47,0
24593,note_on,,,,,0,0,1,,,,,0,,,63,0
24599,note_on,,,,,59,0,0,,,,,0,,,83,0
24599,note_on,,,,,0,0,0,,,,,0,,,86,0
24600,note_on,,,,,1,0,0,,,,,0,,,78,80
24600,note_on,,,,,0,0,0,,,,,0,,,88,80
24600,note_on,,,,,0,0,0,,,,,0,,,88,0
24659,note_on,,,,,0,0,0,,,,,0,,,88,0
24659,note_on,,,,,59,0,0,,,,,0,,,78,0
24660,note_on,,,,,1,0,0,,,,,0,,,83,80
24660,note_on,,,,,0,0,0,,,,,0,,,87,80
24716,note_on,,,,,56,0,0,,,,,0,,,83,0
24716,note_on,,,,,0,0,0,,,,,0,,,87,0
24720,note_on,,,,,127,0,1,,,,,0,,,49,96
24720,note_on,,,,,0,0,1,,,,,0,,,64,96
24720,note_on,,,,,0,0,0,,,,,0,,,87,80
24720,note_on,,,,,4,0,0,,,,,0,,,76,80
24779,note_on,,,,,59,0,0,,,,,0,,,76,0
24780,note_on,,,,,1,0,0,,,,,0,,,82,80
24780,note_on,,,,,0,0,0,,,,,0,,,84,80
24839,note_on,,,,,0,0,0,,,,,0,,,84,0
24839,note_on,,,,,59,0,0,,,,,0,,,82,0
24840,note_on,,,,,1,0,0,,,,,0,,,76,80
24840,note_on,,,,,0,0,0,,,,,0,,,87,80
24840,note_on,,,,,0,0,0,,,,,0,,,87,0
24899,note_on,,,,,0,0,0,,,,,0,,,87,0
24899,note_on,,,,,59,0,0,,,,,0,,,76,0
24900,note_on,,,,,1,0,0,,,,,0,,,82,80
24900,note_on,,,,,0,0,0,,,,,0,,,85,80
24956,note_on,,,,,0,0,0,,,,,0,,,85,0
24956,note_on,,,,,56,0,0,,,,,0,,,82,0
24959,note_on,,,,,239,0,1,,,,,0,,,49,0
24959,note_on,,,,,0,0,1,,,,,0,,,64,0
24960,note_on,,,,,1,0,1,,,,,0,,,51,80
24960,note_on,,,,,0,0,0,,,,,0,,,85,80
24960,note_on,,,,,4,0,0,,,,,0,,,75,80
24960,note_on,,,,,0,0,1,,,,,0,,,66,80
25019,note_on,,,,,59,0,0,,,,,0,,,75,0
25020,note_on,,,,,0,0,0,,,,,0,,,82,80
25020,note_on,,,,,1,0,0,,,,,0,,,78,80
25073,note_on,,,,,113,0,1,,,,,0,,,51,0
25073,note_on,,,,,0,0,1,,,,,0,,,66,0
25079,note_on,,,,,0,0,0,,,,,0,,,82,0
25079,note_on,,,,,59,0,0,,,,,0,,,78,0
25080,note_on,,,,,0,0,0,,,,,0,,,85,80
25080,note_on,,,,,0,0,0,,,,,0,,,85,0
25080,note_on,,,,,1,0,0,,,,,0,,,75,80
25139,note_on,,,,,59,0,0,,,,,0,,,75,0
25139,note_on,,,,,0,0,0,,,,,0,,,85,0
25140,note_on,,,,,0,0,0,,,,,0,,,83,80
25140,note_on,,,,,1,0,0,,,,,0,,,78,80
25196,note_on,,,,,56,0,0,,,,,0,,,78,0
25196,note_on,,,,,0,0,0,,,,,0,,,83,0
25200,note_on,,,,,0,0,0,,,,,0,,,84,80
25200,note_on,,,,,0,0,1,,,,,0,,,67,80
25200,note_on,,,,,127,0,1,,,,,0,,,52,80
25200,note_on,,,,,4,0,0,,,,,0,,,73,80
25259,note_on,,,,,59,0,0,,,,,0,,,73,0
25260,note_on,,,,,0,0,0,,,,,0,,,81,80
25260,note_on,,,,,1,0,0,,,,,0,,,78,80
25319,note_on,,,,,0,0,0,,,,,0,,,81,0
25319,note_on,,,,,59,0,0,,,,,0,,,78,0
25320,note_on,,,,,1,0,0,,,,,0,,,73,80
25320,note_on,,,,,0,0,0,,,,,0,,,84,80
25320,note_on,,,,,0,0,0,,,,,0,,,84,0
25379,note_on,,,,,0,0,0,,,,,0,,,84,0
25379,note_on,,,,,59,0,0,,,,,0,,,73,0
25380,note_on,,,,,0,0,0,,,,,0,,,82,80
25380,note_on,,,,,1,0,0,,,,,0,,,78,80
25436,note_on,,,,,56,0,0,,,,,0,,,78,0
25436,note_on,,,,,0,0,0,,,,,0,,,82,0
25439,note_on,,,,,239,0,1,,,,,0,,,52,0
25439,note_on,,,,,0,0,1,,,,,0,,,67,0
25440,note_on,,,,,0,0,0,,,,,0,,,82,80
25440,note_on,,,,,4,0,0,,,,,0,,,72,80
25440,note_on,,,,,0,0,1,,,,,0,,,69,80
25440,note_on,,,,,1,0,1,,,,,0,,,53,80
25499,note_on,,,,,59,0,0,,,,,0,,,72,0
25500,note_on,,,,,0,0,0,,,,,0,,,80,80
25500,note_on,,,,,1,0,0,,,,,0,,,77,80
25553,note_on,,,,,0,0,1,,,,,0,,,69,0
25553,note_on,,,,,113,0,1,,,,,0,,,53,0
25559,note_on,,,,,59,0,0,,,,,0,,,77,0
25559,note_on,,,,,0,0,0,,,,,0,,,80,0
25560,note_on,,,,,0,0,0,,,,,0,,,82,80
25560,note_on,,,,,0,0,0,,,,,0,,,82,0
25560,note_on,,,,,1,0,0,,,,,0,,,72,80
25619,note_on,,,,,0,0,0,,,,,0,,,82,0
25619,note_on,,,,,59,0,0,,,,,0,,,72,0
25620,note_on,,,,,0,0,0,,,,,0,,,81,80
25620,note_on,,,,,1,0,0,,,,,0,,,77,80
25676,note_on,,,,,0,0,0,,,,,0,,,81,0
25676,note_on,,,,,56,0,0,,,,,0,,,77,0
25680,note_on,,,,,0,0,1,,,,,0,,,64,80
25680,note_on,,,,,127,0,1,,,,,0,,,55,80
25680,note_on,,,,,4,0,0,,,,,0,,,70,80
25680,note_on,,,,,0,0,0,,,,,0,,,81,80
25739,note_on,,,,,59,0,0,,,,,0,,,70,0
25739,note_on,,,,,59,0,1,,,,,0,,,64,0
25740,note_on,,,,,0,0,0,,,,,0,,,78,80
25740,note_on,,,,,1,0,0,,,,,0,,,76,80
25799,note_on,,,,,0,0,0,,,,,0,,,78,0
25799,note_on,,,,,59,0,0,,,,,0,,,76,0
25800,note_on,,,,,61,0,1,,,,,0,,,61,80
25800,note_on,,,,,0,0,0,,,,,0,,,81,0
25800,note_on,,,,,0,0,0,,,,,0,,,81,80
25800,note_on,,,,,1,0,0,,,,,0,,,70,80
25859,note_on,,,,,0,0,0,,,,,0,,,81,0
25859,note_on,,,,,59,0,0,,,,,0,,,70,0
25859,note_on,,,,,59,0,1,,,,,0,,,61,0
25860,note_on,,,,,0,0,0,,,,,0,,,79,80
25860,note_on,,,,,1,0,0,,,,,0,,,76,80
25907,note_on,,,,,48,0,1,,,,,0,,,55,0
25916,note_on,,,,,0,0,0,,,,,0,,,79,0
25916,note_on,,,,,56,0,0,,,,,0,,,76,0
25920,note_on,,,,,0,0,0,,,,,0,,,79,80
25920,note_on,,,,,4,0,0,,,,,0,,,69,80
25920,note_on,,,,,13,0,1,,,,,0,,,57,80
25920,note_on,,,,,0,0,1,,,,,0,,,65,80
25979,note_on,,,,,59,0,0,,,,,0,,,69,0
25979,note_on,,,,,59,0,1,,,,,0,,,65,0
25980,note_on,,,,,0,0,0,,,,,0,,,76,80
25980,note_on,,,,,1,0,0,,,,,0,,,72,80
26039,note_on,,,,,59,0,0,,,,,0,,,72,0
26039,note_on,,,,,0,0,0,,,,,0,,,76,0
26040,note_on,,,,,0,0,0,,,,,0,,,79,0
26040,note_on,,,,,0,0,0,,,,,0,,,79,80
26040,note_on,,,,,61,0,1,,,,,0,,,60,80
26040,note_on,,,,,1,0,0,,,,,0,,,69,80
26099,note_on,,,,,59,0,1,,,,,0,,,60,0
26099,note_on,,,,,59,0,0,,,,,0,,,69,0
26099,note_on,,,,,0,0,0,,,,,0,,,79,0
26100,note_on,,,,,0,0,0,,,,,0,,,77,80
26100,note_on,,,,,1,0,0,,,,,0,,,72,80
26147,note_on,,,,,48,0,1,,,,,0,,,57,0
26156,note_on,,,,,0,0,0,,,,,0,,,77,0
26156,note_on,,,,,56,0,0,,,,,0,,,72,0
26160,note_on,,,,,13,0,1,,,,,0,,,58,80
26160,note_on,,,,,4,0,0,,,,,0,,,73,80
26160,note_on,,,,,0,0,1,,,,,0,,,67,80
26160,note_on,,,,,0,0,0,,,,,0,,,77,80
26219,note_on,,,,,59,0,1,,,,,0,,,67,0
26219,note_on,,,,,59,0,0,,,,,0,,,77,0
26220,note_on,,,,,1,0,0,,,,,0,,,75,80
26279,note_on,,,,,0,0,0,,,,,0,,,75,0
26279,note_on,,,,,59,0,0,,,,,0,,,73,0
26280,note_on,,,,,1,0,0,,,,,0,,,70,80
26280,note_on,,,,,0,0,0,,,,,0,,,77,80
26280,note_on,,,,,61,0,1,,,,,0,,,61,80
26339,note_on,,,,,59,0,1,,,,,0,,,61,0
26339,note_on,,,,,59,0,0,,,,,0,,,77,0
26340,note_on,,,,,1,0,0,,,,,0,,,76,80
26387,note_on,,,,,48,0,1,,,,,0,,,58,0
26396,note_on,,,,,56,0,0,,,,,0,,,76,0
26399,note_on,,,,,3,0,0,,,,,0,,,70,0
26400,note_on,,,,,1,0,0,,,,,0,,,75,80
26400,note_on,,,,,13,0,1,,,,,0,,,60,80
26400,note_on,,,,,0,0,0,,,,,0,,,79,80
26400,note_on,,,,,0,0,1,,,,,0,,,69,80
26459,note_on,,,,,59,0,0,,,,,0,,,79,0
26459,note_on,,,,,59,0,1,,,,,0,,,69,0
26460,note_on,,,,,1,0,0,,,,,0,,,76,80
26519,note_on,,,,,59,0,0,,,,,0,,,75,0
26519,note_on,,,,,0,0,0,,,,,0,,,76,0
26520,note_on,,,,,61,0,1,,,,,0,,,63,80
26520,note_on,,,,,1,0,0,,,,,0,,,72,80
26520,note_on,,,,,0,0,0,,,,,0,,,79,80
26579,note_on,,,,,59,0,1,,,,,0,,,63,0
26579,note_on,,,,,59,0,0,,,,,0,,,79,0
26580,note_on,,,,,1,0,0,,,,,0,,,77,80
26627,note_on,,,,,48,0,1,,,,,0,,,60,0
26636,note_on,,,,,56,0,0,,,,,0,,,77,0
26639,note_on,,,,,3,0,0,,,,,0,,,72,0
26640,note_on,,,,,0,0,1,,,,,0,,,67,80
26640,note_on,,,,,13,0,1,,,,,0,,,61,80
26640,note_on,,,,,1,0,0,,,,,0,,,70,80
26640,note_on,,,,,0,0,0,,,,,0,,,77,80
26699,note_on,,,,,59,0,1,,,,,0,,,67,0
26699,note_on,,,,,59,0,0,,,,,0,,,77,0
26700,note_on,,,,,1,0,0,,,,,0,,,75,80
26753,note_on,,,,,54,0,1,,,,,0,,,61,0
26759,note_on,,,,,0,0,0,,,,,0,,,75,0
26759,note_on,,,,,59,0,0,,,,,0,,,70,0
26760,note_on,,,,,1,0,0,,,,,0,,,77,80
26819,note_on,,,,,59,0,0,,,,,0,,,77,0
26820,note_on,,,,,1,0,0,,,,,0,,,76,80
26876,note_on,,,,,56,0,0,,,,,0,,,76,0
26880,note_on,,,,,0,0,1,,,,,0,,,69,80
26880,note_on,,,,,127,0,1,,,,,0,,,63,80
26880,note_on,,,,,4,0,0,,,,,0,,,79,80
26880,note_on,,,,,0,0,0,,,,,0,,,72,80
26939,note_on,,,,,59,0,1,,,,,0,,,69,0
26939,note_on,,,,,59,0,0,,,,,0,,,79,0
26940,note_on,,,,,1,0,0,,,,,0,,,76,80
26993,note_on,,,,,54,0,1,,,,,0,,,63,0
26999,note_on,,,,,59,0,0,,,,,0,,,72,0
26999,note_on,,,,,0,0,0,,,,,0,,,76,0
27000,note_on,,,,,1,0,0,,,,,0,,,79,80
27059,note_on,,,,,59,0,0,,,,,0,,,79,0
27060,note_on,,,,,1,0,0,,,,,0,,,78,80
27116,note_on,,,,,56,0,0,,,,,0,,,78,0
27120,note_on,,,,,4,0,0,,,,,0,,,77,80
27179,note_on,,,,,59,0,0,,,,,0,,,77,0
27180,note_on,,,,,1,0,0,,,,,0,,,78,80
27239,note_on,,,,,59,0,0,,,,,0,,,78,0
27240,note_on,,,,,1,0,0,,,,,0,,,77,80
27299,note_on,,,,,59,0,0,,,,,0,,,77,0
27300,note_on,,,,,1,0,0,,,,,0,,,79,80
27359,note_on,,,,,59,0,0,,,,,0,,,79,0
27360,note_on,,,,,1,0,0,,,,,0,,,77,80
27419,note_on,,,,,59,0,0,,,,,0,,,77,0
27420,note_on,,,,,1,0,0,,,,,0,,,78,80
27479,note_on,,,,,59,0,0,,,,,0,,,78,0
27480,note_on,,,,,1,0,0,,,,,0,,,77,80
27539,note_on,,,,,59,0,0,,,,,0,,,77,0
27540,note_on,,,,,1,0,0,,,,,0,,,79,80
27599,note_on,,,,,59,0,0,,,,,0,,,79,0
27600,note_on,,,,,1,0,0,,,,,0,,,77,80
27659,note_on,,,,,59,0,0,,,,,0,,,77,0
27660,note_on,,,,,1,0,0,,,,,0,,,78,80
27719,note_on,,,,,59,0,0,,,,,0,,,78,0
27720,note_on,,,,,1,0,0,,,,,0,,,77,80
27779,note_on,,,,,59,0,0,,,,,0,,,77,0
27780,note_on,,,,,1,0,0,,,,,0,,,79,80
27839,note_on,,,,,59,0,0,,,,,0,,,79,0
27840,note_on,,,,,1,0,0,,,,,0,,,77,90
27899,note_on,,,,,59,0,0,,,,,0,,,77,0
27900,note_on,,,,,1,0,0,,,,,0,,,78,82
27959,note_on,,,,,59,0,0,,,,,0,,,78,0
27960,note_on,,,,,1,0,0,,,,,0,,,77,73
28019,note_on,,,,,59,0,0,,,,,0,,,77,0
28020,note_on,,,,,1,0,0,,,,,0,,,79,64
28076,note_on,,,,,56,0,0,,,,,0,,,79,0
28080,note_on,,,,,4,0,0,,,,,0,,,69,70
28080,note_on,,,,,0,0,0,,,,,0,,,77,70
28080,note_on,,,,,1087,0,1,,,,,0,,,51,70
28118,note_on,,,,,38,0,1,,,,,0,,,51,0
28136,note_on,,,,,0,0,0,,,,,0,,,77,0
28136,note_on,,,,,56,0,0,,,,,0,,,69,0
28140,note_on,,,,,0,0,0,,,,,0,,,78,70
28140,note_on,,,,,4,0,0,,,,,0,,,72,70
28196,note_on,,,,,56,0,0,,,,,0,,,72,0
28196,note_on,,,,,0,0,0,,,,,0,,,78,0
28200,note_on,,,,,0,0,0,,,,,0,,,77,70
28200,note_on,,,,,82,0,1,,,,,0,,,67,70
28200,note_on,,,,,4,0,0,,,,,0,,,69,70
28245,note_on,,,,,45,0,1,,,,,0,,,67,0
28246,note_on,,,,,1,0,1,,,,,0,,,65,70
28256,note_on,,,,,56,0,0,,,,,0,,,69,0
28256,note_on,,,,,0,0,0,,,,,0,,,77,0
28260,note_on,,,,,4,0,0,,,,,0,,,72,70
28260,note_on,,,,,0,0,0,,,,,0,,,79,70
28269,note_on,,,,,23,0,1,,,,,0,,,65,0
28316,note_on,,,,,0,0,0,,,,,0,,,79,0
28316,note_on,,,,,56,0,0,,,,,0,,,72,0
28320,note_on,,,,,4,0,0,,,,,0,,,70,70
28320,note_on,,,,,51,0,1,,,,,0,,,50,70
28320,note_on,,,,,0,0,0,,,,,0,,,77,70
28358,note_on,,,,,38,0,1,,,,,0,,,50,0
28376,note_on,,,,,56,0,0,,,,,0,,,70,0
28376,note_on,,,,,0,0,0,,,,,0,,,77,0
28380,note_on,,,,,4,0,0,,,,,0,,,74,70
28380,note_on,,,,,0,0,0,,,,,0,,,78,70
28436,note_on,,,,,0,0,0,,,,,0,,,78,0
28436,note_on,,,,,56,0,0,,,,,0,,,74,0
28440,note_on,,,,,4,0,0,,,,,0,,,69,70
28440,note_on,,,,,0,0,0,,,,,0,,,77,70
28440,note_on,,,,,82,0,1,,,,,0,,,66,70
28485,note_on,,,,,45,0,1,,,,,0,,,66,0
28486,note_on,,,,,1,0,1,,,,,0,,,65,70
28496,note_on,,,,,0,0,0,,,,,0,,,77,0
28496,note_on,,,,,56,0,0,,,,,0,,,69,0
28500,note_on,,,,,4,0,0,,,,,0,,,74,70
28500,note_on,,,,,0,0,0,,,,,0,,,79,70
28509,note_on,,,,,23,0,1,,,,,0,,,65,0
28556,note_on,,,,,56,0,0,,,,,0,,,74,0
28556,note_on,,,,,0,0,0,,,,,0,,,79,0
28560,note_on,,,,,0,0,0,,,,,0,,,77,70
28560,note_on,,,,,51,0,1,,,,,0,,,48,70
28560,note_on,,,,,4,0,0,,,,,0,,,69,70
28598,note_on,,,,,38,0,1,,,,,0,,,48,0
28616,note_on,,,,,0,0,0,,,,,0,,,77,0
28616,note_on,,,,,56,0,0,,,,,0,,,69,0
28620,note_on,,,,,0,0,0,,,,,0,,,78,70
28620,note_on,,,,,4,0,0,,,,,0,,,75,70
28676,note_on,,,,,56,0,0,,,,,0,,,75,0
28676,note_on,,,,,0,0,0,,,,,0,,,78,0
28680,note_on,,,,,82,0,1,,,,,0,,,67,70
28680,note_on,,,,,0,0,0,,,,,0,,,77,70
28680,note_on,,,,,4,0,0,,,,,0,,,69,70
28725,note_on,,,,,45,0,1,,,,,0,,,67,0
28726,note_on,,,,,1,0,1,,,,,0,,,65,70
28736,note_on,,,,,56,0,0,,,,,0,,,69,0
28736,note_on,,,,,0,0,0,,,,,0,,,77,0
28740,note_on,,,,,4,0,0,,,,,0,,,75,70
28740,note_on,,,,,0,0,0,,,,,0,,,79,70
28749,note_on,,,,,23,0,1,,,,,0,,,65,0
28796,note_on,,,,,56,0,0,,,,,0,,,75,0
28796,note_on,,,,,0,0,0,,,,,0,,,79,0
28800,note_on,,,,,4,0,0,,,,,0,,,70,70
28800,note_on,,,,,0,0,0,,,,,0,,,77,70
28800,note_on,,,,,51,0,1,,,,,0,,,46,70
28838,note_on,,,,,38,0,1,,,,,0,,,46,0
28856,note_on,,,,,56,0,0,,,,,0,,,70,0
28856,note_on,,,,,0,0,0,,,,,0,,,77,0
28860,note_on,,,,,4,0,0,,,,,0,,,74,70
28860,note_on,,,,,0,0,0,,,,,0,,,78,70
28916,note_on,,,,,0,0,0,,,,,0,,,78,0
28916,note_on,,,,,56,0,0,,,,,0,,,74,0
28920,note_on,,,,,82,0,1,,,,,0,,,66,70
28920,note_on,,,,,0,0,0,,,,,0,,,78,70
28920,note_on,,,,,4,0,0,,,,,0,,,70,70
28965,note_on,,,,,45,0,1,,,,,0,,,66,0
28966,note_on,,,,,1,0,1,,,,,0,,,65,70
28976,note_on,,,,,0,0,0,,,,,0,,,78,0
28976,note_on,,,,,56,0,0,,,,,0,,,70,0
28980,note_on,,,,,0,0,0,,,,,0,,,79,70
28980,note_on,,,,,4,0,0,,,,,0,,,74,70
28989,note_on,,,,,23,0,1,,,,,0,,,65,0
29036,note_on,,,,,56,0,0,,,,,0,,,74,0
29036,note_on,,,,,0,0,0,,,,,0,,,79,0
29040,note_on,,,,,51,0,1,,,,,0,,,41,70
29040,note_on,,,,,0,0,0,,,,,0,,,80,70
29040,note_on,,,,,4,0,0,,,,,0,,,74,70
29078,note_on,,,,,38,0,1,,,,,0,,,41,0
29096,note_on,,,,,0,0,0,,,,,0,,,80,0
29096,note_on,,,,,56,0,0,,,,,0,,,74,0
29100,note_on,,,,,4,0,0,,,,,0,,,77,70
29100,note_on,,,,,0,0,0,,,,,0,,,81,70
29156,note_on,,,,,56,0,0,,,,,0,,,77,0
29156,note_on,,,,,0,0,0,,,,,0,,,81,0
29160,note_on,,,,,0,0,0,,,,,0,,,81,70
29160,note_on,,,,,4,0,0,,,,,0,,,74,70
29160,note_on,,,,,82,0,1,,,,,0,,,67,70
29205,note_on,,,,,45,0,1,,,,,0,,,67,0
29206,note_on,,,,,1,0,1,,,,,0,,,65,70
29216,note_on,,,,,56,0,0,,,,,0,,,74,0
29216,note_on,,,,,0,0,0,,,,,0,,,81,0
29220,note_on,,,,,0,0,0,,,,,0,,,82,70
29220,note_on,,,,,4,0,0,,,,,0,,,77,70
29229,note_on,,,,,23,0,1,,,,,0,,,65,0
29276,note_on,,,,,0,0,0,,,,,0,,,82,0
29276,note_on,,,,,56,0,0,,,,,0,,,77,0
29280,note_on,,,,,51,0,1,,,,,0,,,41,70
29280,note_on,,,,,4,0,0,,,,,0,,,72,70
29280,note_on,,,,,0,0,0,,,,,0,,,82,70
29318,note_on,,,,,38,0,1,,,,,0,,,41,0
29336,note_on,,,,,0,0,0,,,,,0,,,82,0
29336,note_on,,,,,56,0,0,,,,,0,,,72,0
29340,note_on,,,,,0,0,0,,,,,0,,,81,70
29340,note_on,,,,,4,0,0,,,,,0,,,75,70
29396,note_on,,,,,0,0,0,,,,,0,,,81,0
29396,note_on,,,,,56,0,0,,,,,0,,,75,0
29400,note_on,,,,,0,0,0,,,,,0,,,81,70
29400,note_on,,,,,82,0,1,,,,,0,,,66,70
29400,note_on,,,,,4,0,0,,,,,0,,,72,70
29445,note_on,,,,,45,0,1,,,,,0,,,66,0
29446,note_on,,,,,1,0,1,,,,,0,,,65,70
29456,note_on,,,,,56,0,0,,,,,0,,,72,0
29456,note_on,,,,,0,0,0,,,,,0,,,81,0
29460,note_on,,,,,4,0,0,,,,,0,,,75,70
29460,note_on,,,,,0,0,0,,,,,0,,,80,70
29469,note_on,,,,,23,0,1,,,,,0,,,65,0
29516,note_on,,,,,56,0,0,,,,,0,,,75,0
29516,note_on,,,,,0,0,0,,,,,0,,,80,0
29520,note_on,,,,,4,0,0,,,,,0,,,72,70
29520,note_on,,,,,0,0,0,,,,,0,,,80,70
29520,note_on,,,,,51,0,1,,,,,0,,,45,70
29558,note_on,,,,,38,0,1,,,,,0,,,45,0
29576,note_on,,,,,56,0,0,,,,,0,,,72,0
29576,note_on,,,,,0,0,0,,,,,0,,,80,0
29580,note_on,,,,,4,0,0,,,,,0,,,75,70
29580,note_on,,,,,0,0,0,,,,,0,,,79,70
29636,note_on,,,,,56,0,0,,,,,0,,,75,0
29636,note_on,,,,,0,0,0,,,,,0,,,79,0
29640,note_on,,,,,4,0,0,,,,,0,,,72,70
29640,note_on,,,,,0,0,0,,,,,0,,,79,70
29640,note_on,,,,,82,0,1,,,,,0,,,67,70
29685,note_on,,,,,45,0,1,,,,,0,,,67,0
29686,note_on,,,,,1,0,1,,,,,0,,,65,70
29696,note_on,,,,,0,0,0,,,,,0,,,79,0
29696,note_on,,,,,56,0,0,,,,,0,,,72,0
29700,note_on,,,,,0,0,0,,,,,0,,,78,70
29700,note_on,,,,,4,0,0,,,,,0,,,75,70
29709,note_on,,,,,23,0,1,,,,,0,,,65,0
29756,note_on,,,,,0,0,0,,,,,0,,,78,0
29756,note_on,,,,,56,0,0,,,,,0,,,75,0
29760,note_on,,,,,0,0,0,,,,,0,,,77,70
29760,note_on,,,,,4,0,0,,,,,0,,,74,70
29760,note_on,,,,,51,0,1,,,,,0,,,46,70
29798,note_on,,,,,38,0,1,,,,,0,,,46,0
29816,note_on,,,,,56,0,0,,,,,0,,,74,0
29816,note_on,,,,,0,0,0,,,,,0,,,77,0
29820,note_on,,,,,0,0,0,,,,,0,,,78,70
29820,note_on,,,,,4,0,0,,,,,0,,,70,70
29876,note_on,,,,,56,0,0,,,,,0,,,70,0
29876,note_on,,,,,0,0,0,,,,,0,,,78,0
29880,note_on,,,,,82,0,1,,,,,0,,,66,70
29880,note_on,,,,,4,0,0,,,,,0,,,74,70
29880,note_on,,,,,0,0,0,,,,,0,,,77,70
29925,note_on,,,,,45,0,1,,,,,0,,,66,0
29926,note_on,,,,,1,0,1,,,,,0,,,65,70
29936,note_on,,,,,56,0,0,,,,,0,,,74,0
29936,note_on,,,,,0,0,0,,,,,0,,,77,0
29940,note_on,,,,,4,0,0,,,,,0,,,70,70
29940,note_on,,,,,0,0,0,,,,,0,,,79,70
29949,note_on,,,,,23,0,1,,,,,0,,,65,0
29996,note_on,,,,,0,0,0,,,,,0,,,79,0
29996,note_on,,,,,56,0,0,,,,,0,,,70,0
30000,note_on,,,,,51,0,1,,,,,0,,,51,70
30000,note_on,,,,,4,0,0,,,,,0,,,69,70
30000,note_on,,,,,0,0,0,,,,,0,,,77,70
30038,note_on,,,,,38,0,1,,,,,0,,,51,0
30056,note_on,,,,,56,0,0,,,,,0,,,69,0
30056,note_on,,,,,0,0,0,,,,,0,,,77,0
30060,note_on,,,,,0,0,0,,,,,0,,,78,70
30060,note_on,,,,,4,0,0,,,,,0,,,72,70
30116,note_on,,,,,0,0,0,,,,,0,,,78,0
30116,note_on,,,,,56,0,0,,,,,0,,,72,0
30120,note_on,,,,,0,0,0,,,,,0,,,77,70
30120,note_on,,,,,82,0,1,,,,,0,,,67,70
30120,note_on,,,,,4,0,0,,,,,0,,,69,70
30165,note_on,,,,,45,0,1,,,,,0,,,67,0
30166,note_on,,,,,1,0,1,,,,,0,,,65,70
30176,note_on,,,,,56,0,0,,,,,0,,,69,0
30176,note_on,,,,,0,0,0,,,,,0,,,77,0
30180,note_on,,,,,4,0,0,,,,,0,,,72,70
30180,note_on,,,,,0,0,0,,,,,0,,,79,70
30189,note_on,,,,,23,0,1,,,,,0,,,65,0
30236,note_on,,,,,0,0,0,,,,,0,,,79,0
30236,note_on,,,,,56,0,0,,,,,0,,,72,0
30240,note_on,,,,,4,0,0,,,,,0,,,70,70
30240,note_on,,,,,51,0,1,,,,,0,,,50,70
30240,note_on,,,,,0,0,0,,,,,0,,,77,70
30278,note_on,,,,,38,0,1,,,,,0,,,50,0
30296,note_on,,,,,56,0,0,,,,,0,,,70,0
30296,note_on,,,,,0,0,0,,,,,0,,,77,0
30300,note_on,,,,,0,0,0,,,,,0,,,78,70
30300,note_on,,,,,4,0,0,,,,,0,,,74,70
30356,note_on,,,,,56,0,0,,,,,0,,,74,0
30356,note_on,,,,,0,0,0,,,,,0,,,78,0
30360,note_on,,,,,4,0,0,,,,,0,,,70,70
30360,note_on,,,,,0,0,0,,,,,0,,,77,70
30360,note_on,,,,,82,0,1,,,,,0,,,66,70
30405,note_on,,,,,45,0,1,,,,,0,,,66,0
30406,note_on,,,,,1,0,1,,,,,0,,,65,70
30416,note_on,,,,,56,0,0,,,,,0,,,70,0
30416,note_on,,,,,0,0,0,,,,,0,,,77,0
30420,note_on,,,,,0,0,0,,,,,0,,,79,70
30420,note_on,,,,,4,0,0,,,,,0,,,74,70
30429,note_on,,,,,23,0,1,,,,,0,,,65,0
30476,note_on,,,,,0,0,0,,,,,0,,,79,0
30476,note_on,,,,,56,0,0,,,,,0,,,74,0
30480,note_on,,,,,0,0,0,,,,,0,,,77,70
30480,note_on,,,,,4,0,0,,,,,0,,,69,70
30480,note_on,,,,,51,0,1,,,,,0,,,48,70
30518,note_on,,,,,38,0,1,,,,,0,,,48,0
30536,note_on,,,,,0,0,0,,,,,0,,,77,0
30536,note_on,,,,,56,0,0,,,,,0,,,69,0
30540,note_on,,,,,4,0,0,,,,,0,,,75,70
30540,note_on,,,,,0,0,0,,,,,0,,,78,70
30596,note_on,,,,,0,0,0,,,,,0,,,78,0
30596,note_on,,,,,56,0,0,,,,,0,,,75,0
30600,note_on,,,,,82,0,1,,,,,0,,,67,70
30600,note_on,,,,,0,0,0,,,,,0,,,77,70
30600,note_on,,,,,4,0,0,,,,,0,,,69,70
30645,note_on,,,,,45,0,1,,,,,0,,,67,0
30646,note_on,,,,,1,0,1,,,,,0,,,65,70
30656,note_on,,,,,0,0,0,,,,,0,,,77,0
30656,note_on,,,,,56,0,0,,,,,0,,,69,0
30660,note_on,,,,,4,0,0,,,,,0,,,75,70
30660,note_on,,,,,0,0,0,,,,,0,,,79,70
30669,note_on,,,,,23,0,1,,,,,0,,,65,0
30716,note_on,,,,,56,0,0,,,,,0,,,75,0
30716,note_on,,,,,0,0,0,,,,,0,,,79,0
30720,note_on,,,,,51,0,1,,,,,0,,,46,70
30720,note_on,,,,,4,0,0,,,,,0,,,70,70
30720,note_on,,,,,0,0,0,,,,,0,,,77,70
30758,note_on,,,,,38,0,1,,,,,0,,,46,0
30776,note_on,,,,,56,0,0,,,,,0,,,70,0
30776,note_on,,,,,0,0,0,,,,,0,,,77,0
30780,note_on,,,,,0,0,0,,,,,0,,,78,70
30780,note_on,,,,,4,0,0,,,,,0,,,74,70
30836,note_on,,,,,0,0,0,,,,,0,,,78,0
30836,note_on,,,,,56,0,0,,,,,0,,,74,0
30840,note_on,,,,,82,0,1,,,,,0,,,66,70
30840,note_on,,,,,0,0,0,,,,,0,,,78,70
30840,note_on,,,,,4,0,0,,,,,0,,,70,70
30885,note_on,,,,,45,0,1,,,,,0,,,66,0
30886,note_on,,,,,1,0,1,,,,,0,,,65,70
30896,note_on,,,,,56,0,0,,,,,0,,,70,0
30896,note_on,,,,,0,0,0,,,,,0,,,78,0
30900,note_on,,,,,4,0,0,,,,,0,,,74,70
30900,note_on,,,,,0,0,0,,,,,0,,,79,70
30909,note_on,,,,,23,0,1,,,,,0,,,65,0
30956,note_on,,,,,56,0,0,,,,,0,,,74,0
30956,note_on,,,,,0,0,0,,,,,0,,,79,0
30960,note_on,,,,,0,0,0,,,,,0,,,80,70
30960,note_on,,,,,4,0,0,,,,,0,,,74,70
30960,note_on,,,,,51,0,1,,,,,0,,,41,70
30998,note_on,,,,,38,0,1,,,,,0,,,41,0
31016,note_on,,,,,0,0,0,,,,,0,,,80,0
31016,note_on,,,,,56,0,0,,,,,0,,,74,0
31020,note_on,,,,,0,0,0,,,,,0,,,81,70
31020,note_on,,,,,4,0,0,,,,,0,,,77,70
31076,note_on,,,,,0,0,0,,,,,0,,,81,0
31076,note_on,,,,,56,0,0,,,,,0,,,77,0
31080,note_on,,,,,82,0,1,,,,,0,,,67,70
31080,note_on,,,,,4,0,0,,,,,0,,,74,70
31080,note_on,,,,,0,0,0,,,,,0,,,81,70
31125,note_on,,,,,45,0,1,,,,,0,,,67,0
31126,note_on,,,,,1,0,1,,,,,0,,,65,70
31136,note_on,,,,,0,0,0,,,,,0,,,81,0
31136,note_on,,,,,56,0,0,,,,,0,,,74,0
31140,note_on,,,,,0,0,0,,,,,0,,,82,70
31140,note_on,,,,,4,0,0,,,,,0,,,77,70
31149,note_on,,,,,23,0,1,,,,,0,,,65,0
31196,note_on,,,,,0,0,0,,,,,0,,,82,0
31196,note_on,,,,,56,0,0,,,,,0,,,77,0
31200,note_on,,,,,51,0,1,,,,,0,,,41,70
31200,note_on,,,,,0,0,0,,,,,0,,,82,70
31200,note_on,,,,,4,0,0,,,,,0,,,72,70
31238,note_on,,,,,38,0,1,,,,,0,,,41,0
31256,note_on,,,,,0,0,0,,,,,0,,,82,0
31256,note_on,,,,,56,0,0,,,,,0,,,72,0
31260,note_on,,,,,4,0,0,,,,,0,,,75,70
31260,note_on,,,,,0,0,0,,,,,0,,,81,70
31316,note_on,,,,,0,0,0,,,,,0,,,81,0
31316,note_on,,,,,56,0,0,,,,,0,,,75,0
31320,note_on,,,,,0,0,0,,,,,0,,,81,70
31320,note_on,,,,,82,0,1,,,,,0,,,66,70
31320,note_on,,,,,4,0,0,,,,,0,,,72,70
31365,note_on,,,,,45,0,1,,,,,0,,,66,0
31366,note_on,,,,,1,0,1,,,,,0,,,65,70
31376,note_on,,,,,0,0,0,,,,,0,,,81,0
31376,note_on,,,,,56,0,0,,,,,0,,,72,0
31380,note_on,,,,,0,0,0,,,,,0,,,80,70
31380,note_on,,,,,4,0,0,,,,,0,,,75,70
31389,note_on,,,,,23,0,1,,,,,0,,,65,0
31436,note_on,,,,,56,0,0,,,,,0,,,75,0
31436,note_on,,,,,0,0,0,,,,,0,,,80,0
31440,note_on,,,,,0,0,0,,,,,0,,,80,70
31440,note_on,,,,,4,0,0,,,,,0,,,72,70
31440,note_on,,,,,51,0,1,,,,,0,,,45,70
31478,note_on,,,,,38,0,1,,,,,0,,,45,0
31496,note_on,,,,,0,0,0,,,,,0,,,80,0
31496,note_on,,,,,56,0,0,,,,,0,,,72,0
31500,note_on,,,,,0,0,0,,,,,0,,,79,70
31500,note_on,,,,,4,0,0,,,,,0,,,75,70
31556,note_on,,,,,56,0,0,,,,,0,,,75,0
31556,note_on,,,,,0,0,0,,,,,0,,,79,0
31560,note_on,,,,,4,0,0,,,,,0,,,72,70
31560,note_on,,,,,0,0,0,,,,,0,,,79,70
31560,note_on,,,,,82,0,1,,,,,0,,,67,70
31605,note_on,,,,,45,0,1,,,,,0,,,67,0
31606,note_on,,,,,1,0,1,,,,,0,,,65,70
31616,note_on,,,,,56,0,0,,,,,0,,,72,0
31616,note_on,,,,,0,0,0,,,,,0,,,79,0
31620,note_on,,,,,4,0,0,,,,,0,,,75,70
31620,note_on,,,,,0,0,0,,,,,0,,,78,70
31629,note_on,,,,,23,0,1,,,,,0,,,65,0
31676,note_on,,,,,56,0,0,,,,,0,,,75,0
31676,note_on,,,,,0,0,0,,,,,0,,,78,0
31680,note_on,,,,,51,0,1,,,,,0,,,46,70
31680,note_on,,,,,4,0,0,,,,,0,,,74,70
31680,note_on,,,,,0,0,0,,,,,0,,,77,70
31718,note_on,,,,,38,0,1,,,,,0,,,46,0
31736,note_on,,,,,0,0,0,,,,,0,,,77,0
31736,note_on,,,,,56,0,0,,,,,0,,,74,0
31740,note_on,,,,,0,0,0,,,,,0,,,79,70
31740,note_on,,,,,4,0,0,,,,,0,,,70,70
31796,note_on,,,,,56,0,0,,,,,0,,,70,0
31796,note_on,,,,,0,0,0,,,,,0,,,79,0
31800,note_on,,,,,0,0,0,,,,,0,,,77,70
31800,note_on,,,,,82,0,1,,,,,0,,,67,70
31800,note_on,,,,,4,0,0,,,,,0,,,74,70
31845,note_on,,,,,45,0,1,,,,,0,,,67,0
31846,note_on,,,,,1,0,1,,,,,0,,,65,70
31856,note_on,,,,,0,0,0,,,,,0,,,77,0
31856,note_on,,,,,56,0,0,,,,,0,,,74,0
31860,note_on,,,,,4,0,0,,,,,0,,,81,70
31869,note_on,,,,,23,0,1,,,,,0,,,65,0
31916,note_on,,,,,56,0,0,,,,,0,,,81,0
31920,note_on,,,,,0,0,0,,,,,0,,,82,70
31920,note_on,,,,,51,0,1,,,,,0,,,56,70
31920,note_on,,,,,4,0,0,,,,,0,,,74,70
31958,note_on,,,,,38,0,1,,,,,0,,,56,0
31976,note_on,,,,,0,0,0,,,,,0,,,82,0
31976,note_on,,,,,56,0,0,,,,,0,,,74,0
31980,note_on,,,,,0,0,0,,,,,0,,,83,70
31980,note_on,,,,,4,0,0,,,,,0,,,77,70
32036,note_on,,,,,0,0,0,,,,,0,,,83,0
32036,note_on,,,,,56,0,0,,,,,0,,,77,0
32040,note_on,,,,,82,0,1,,,,,0,,,71,70
32040,note_on,,,,,0,0,0,,,,,0,,,82,70
32040,note_on,,,,,4,0,0,,,,,0,,,74,70
32085,note_on,,,,,45,0,1,,,,,0,,,71,0
32086,note_on,,,,,1,0,1,,,,,0,,,70,70
32096,note_on,,,,,0,0,0,,,,,0,,,82,0
32096,note_on,,,,,56,0,0,,,,,0,,,74,0
32100,note_on,,,,,0,0,0,,,,,0,,,84,70
32100,note_on,,,,,4,0,0,,,,,0,,,77,70
32109,note_on,,,,,23,0,1,,,,,0,,,70,0
32156,note_on,,,,,56,0,0,,,,,0,,,77,0
32156,note_on,,,,,0,0,0,,,,,0,,,84,0
32160,note_on,,,,,4,0,0,,,,,0,,,75,70
32160,note_on,,,,,51,0,1,,,,,0,,,55,70
32160,note_on,,,,,0,0,0,,,,,0,,,82,70
32198,note_on,,,,,38,0,1,,,,,0,,,55,0
32216,note_on,,,,,0,0,0,,,,,0,,,82,0
32216,note_on,,,,,56,0,0,,,,,0,,,75,0
32220,note_on,,,,,0,0,0,,,,,0,,,83,70
32220,note_on,,,,,4,0,0,,,,,0,,,79,70
32276,note_on,,,,,56,0,0,,,,,0,,,79,0
32276,note_on,,,,,0,0,0,,,,,0,,,83,0
32280,note_on,,,,,0,0,0,,,,,0,,,82,70
32280,note_on,,,,,4,0,0,,,,,0,,,75,70
32280,note_on,,,,,82,0,1,,,,,0,,,72,70
32325,note_on,,,,,45,0,1,,,,,0,,,72,0
32326,note_on,,,,,1,0,1,,,,,0,,,70,70
32336,note_on,,,,,56,0,0,,,,,0,,,75,0
32336,note_on,,,,,0,0,0,,,,,0,,,82,0
32340,note_on,,,,,4,0,0,,,,,0,,,79,70
32340,note_on,,,,,0,0,0,,,,,0,,,84,70
32349,note_on,,,,,23,0,1,,,,,0,,,70,0
32396,note_on,,,,,56,0,0,,,,,0,,,79,0
32396,note_on,,,,,0,0,0,,,,,0,,,84,0
32400,note_on,,,,,0,0,0,,,,,0,,,82,70
32400,note_on,,,,,4,0,0,,,,,0,,,77,70
32400,note_on,,,,,51,0,1,,,,,0,,,50,70
32438,note_on,,,,,38,0,1,,,,,0,,,50,0
32456,note_on,,,,,0,0,0,,,,,0,,,82,0
32456,note_on,,,,,56,0,0,,,,,0,,,77,0
32460,note_on,,,,,4,0,0,,,,,0,,,80,70
32460,note_on,,,,,0,0,0,,,,,0,,,83,70
32516,note_on,,,,,56,0,0,,,,,0,,,80,0
32516,note_on,,,,,0,0,0,,,,,0,,,83,0
32520,note_on,,,,,4,0,0,,,,,0,,,77,71
32520,note_on,,,,,0,0,0,,,,,0,,,82,71
32520,note_on,,,,,82,0,1,,,,,0,,,71,71
32565,note_on,,,,,45,0,1,,,,,0,,,71,0
32566,note_on,,,,,1,0,1,,,,,0,,,70,71
32576,note_on,,,,,0,0,0,,,,,0,,,82,0
32576,note_on,,,,,56,0,0,,,,,0,,,77,0
32580,note_on,,,,,0,0,0,,,,,0,,,84,71
32580,note_on,,,,,4,0,0,,,,,0,,,80,71
32589,note_on,,,,,23,0,1,,,,,0,,,70,0
32636,note_on,,,,,0,0,0,,,,,0,,,84,0
32636,note_on,,,,,56,0,0,,,,,0,,,80,0
32640,note_on,,,,,51,0,1,,,,,0,,,51,71
32640,note_on,,,,,0,0,0,,,,,0,,,82,71
32640,note_on,,,,,4,0,0,,,,,0,,,75,71
32678,note_on,,,,,38,0,1,,,,,0,,,51,0
32696,note_on,,,,,56,0,0,,,,,0,,,75,0
32696,note_on,,,,,0,0,0,,,,,0,,,82,0
32700,note_on,,,,,0,0,0,,,,,0,,,83,71
32700,note_on,,,,,4,0,0,,,,,0,,,79,71
32756,note_on,,,,,0,0,0,,,,,0,,,83,0
32756,note_on,,,,,56,0,0,,,,,0,,,79,0
32760,note_on,,,,,0,0,0,,,,,0,,,83,71
32760,note_on,,,,,4,0,0,,,,,0,,,75,71
32760,note_on,,,,,82,0,1,,,,,0,,,71,71
32805,note_on,,,,,45,0,1,,,,,0,,,71,0
32806,note_on,,,,,1,0,1,,,,,0,,,70,71
32816,note_on,,,,,0,0,0,,,,,0,,,83,0
32816,note_on,,,,,56,0,0,,,,,0,,,75,0
32820,note_on,,,,,4,0,0,,,,,0,,,79,71
32820,note_on,,,,,0,0,0,,,,,0,,,84,71
32829,note_on,,,,,23,0,1,,,,,0,,,70,0
32876,note_on,,,,,56,0,0,,,,,0,,,79,0
32876,note_on,,,,,0,0,0,,,,,0,,,84,0
32880,note_on,,,,,0,0,0,,,,,0,,,85,72
32880,note_on,,,,,51,0,1,,,,,0,,,46,72
32880,note_on,,,,,4,0,0,,,,,0,,,79,72
32918,note_on,,,,,38,0,1,,,,,0,,,46,0
32936,note_on,,,,,0,0,0,,,,,0,,,85,0
32936,note_on,,,,,56,0,0,,,,,0,,,79,0
32940,note_on,,,,,4,0,0,,,,,0,,,82,72
32940,note_on,,,,,0,0,0,,,,,0,,,86,72
32996,note_on,,,,,0,0,0,,,,,0,,,86,0
32996,note_on,,,,,56,0,0,,,,,0,,,82,0
33000,note_on,,,,,0,0,0,,,,,0,,,86,72
33000,note_on,,,,,4,0,0,,,,,0,,,79,72
33000,note_on,,,,,82,0,1,,,,,0,,,72,72
33045,note_on,,,,,45,0,1,,,,,0,,,72,0
33046,note_on,,,,,1,0,1,,,,,0,,,70,72
33056,note_on,,,,,0,0,0,,,,,0,,,86,0
33056,note_on,,,,,56,0,0,,,,,0,,,79,0
33060,note_on,,,,,0,0,0,,,,,0,,,87,72
33060,note_on,,,,,4,0,0,,,,,0,,,82,72
33069,note_on,,,,,23,0,1,,,,,0,,,70,0
33116,note_on,,,,,0,0,0,,,,,0,,,87,0
33116,note_on,,,,,56,0,0,,,,,0,,,82,0
33120,note_on,,,,,0,0,0,,,,,0,,,87,72
33120,note_on,,,,,51,0,1,,,,,0,,,46,72
33120,note_on,,,,,4,0,0,,,,,0,,,77,72
33158,note_on,,,,,38,0,1,,,,,0,,,46,0
33176,note_on,,,,,56,0,0,,,,,0,,,77,0
33176,note_on,,,,,0,0,0,,,,,0,,,87,0
33180,note_on,,,,,0,0,0,,,,,0,,,86,72
33180,note_on,,,,,4,0,0,,,,,0,,,80,72
33236,note_on,,,,,56,0,0,,,,,0,,,80,0
33236,note_on,,,,,0,0,0,,,,,0,,,86,0
33240,note_on,,,,,82,0,1,,,,,0,,,71,73
33240,note_on,,,,,0,0,0,,,,,0,,,86,73
33240,note_on,,,,,4,0,0,,,,,0,,,77,73
33285,note_on,,,,,45,0,1,,,,,0,,,71,0
33286,note_on,,,,,1,0,1,,,,,0,,,70,73
33296,note_on,,,,,0,0,0,,,,,0,,,86,0
33296,note_on,,,,,56,0,0,,,,,0,,,77,0
33300,note_on,,,,,0,0,0,,,,,0,,,85,73
33300,note_on,,,,,4,0,0,,,,,0,,,80,73
33309,note_on,,,,,23,0,1,,,,,0,,,70,0
33356,note_on,,,,,0,0,0,,,,,0,,,85,0
33356,note_on,,,,,56,0,0,,,,,0,,,80,0
33360,note_on,,,,,0,0,0,,,,,0,,,85,73
33360,note_on,,,,,51,0,1,,,,,0,,,50,73
33360,note_on,,,,,4,0,0,,,,,0,,,77,73
33398,note_on,,,,,38,0,1,,,,,0,,,50,0
33416,note_on,,,,,56,0,0,,,,,0,,,77,0
33416,note_on,,,,,0,0,0,,,,,0,,,85,0
33420,note_on,,,,,0,0,0,,,,,0,,,84,73
33420,note_on,,,,,4,0,0,,,,,0,,,80,73
33476,note_on,,,,,0,0,0,,,,,0,,,84,0
33476,note_on,,,,,56,0,0,,,,,0,,,80,0
33480,note_on,,,,,0,0,0,,,,,0,,,84,73
33480,note_on,,,,,82,0,1,,,,,0,,,72,73
33480,note_on,,,,,4,0,0,,,,,0,,,77,73
33525,note_on,,,,,45,0,1,,,,,0,,,72,0
33526,note_on,,,,,1,0,1,,,,,0,,,70,73
33536,note_on,,,,,56,0,0,,,,,0,,,77,0
33536,note_on,,,,,0,0,0,,,,,0,,,84,0
33540,note_on,,,,,0,0,0,,,,,0,,,83,73
33540,note_on,,,,,4,0,0,,,,,0,,,80,73
33549,note_on,,,,,23,0,1,,,,,0,,,70,0
33596,note_on,,,,,0,0,0,,,,,0,,,83,0
33596,note_on,,,,,56,0,0,,,,,0,,,80,0
33600,note_on,,,,,4,0,0,,,,,0,,,79,74
33600,note_on,,,,,0,0,0,,,,,0,,,82,74
33600,note_on,,,,,51,0,1,,,,,0,,,51,74
33638,note_on,,,,,38,0,1,,,,,0,,,51,0
33656,note_on,,,,,0,0,0,,,,,0,,,82,0
33656,note_on,,,,,56,0,0,,,,,0,,,79,0
33660,note_on,,,,,4,0,0,,,,,0,,,75,74
33660,note_on,,,,,0,0,0,,,,,0,,,83,74
33716,note_on,,,,,56,0,0,,,,,0,,,75,0
33716,note_on,,,,,0,0,0,,,,,0,,,83,0
33720,note_on,,,,,4,0,0,,,,,0,,,79,74
33720,note_on,,,,,0,0,0,,,,,0,,,82,74
33720,note_on,,,,,82,0,1,,,,,0,,,71,74
33765,note_on,,,,,45,0,1,,,,,0,,,71,0
33766,note_on,,,,,1,0,1,,,,,0,,,70,74
33776,note_on,,,,,0,0,0,,,,,0,,,82,0
33776,note_on,,,,,56,0,0,,,,,0,,,79,0
33780,note_on,,,,,4,0,0,,,,,0,,,75,74
33780,note_on,,,,,0,0,0,,,,,0,,,84,74
33789,note_on,,,,,23,0,1,,,,,0,,,70,0
33836,note_on,,,,,56,0,0,,,,,0,,,75,0
33836,note_on,,,,,0,0,0,,,,,0,,,84,0
33840,note_on,,,,,51,0,1,,,,,0,,,56,74
33840,note_on,,,,,4,0,0,,,,,0,,,74,74
33840,note_on,,,,,0,0,0,,,,,0,,,82,74
33878,note_on,,,,,38,0,1,,,,,0,,,56,0
33896,note_on,,,,,0,0,0,,,,,0,,,82,0
33896,note_on,,,,,56,0,0,,,,,0,,,74,0
33900,note_on,,,,,0,0,0,,,,,0,,,83,74
33900,note_on,,,,,4,0,0,,,,,0,,,77,74
33956,note_on,,,,,0,0,0,,,,,0,,,83,0
33956,note_on,,,,,56,0,0,,,,,0,,,77,0
33960,note_on,,,,,4,0,0,,,,,0,,,74,75
33960,note_on,,,,,0,0,0,,,,,0,,,82,75
33960,note_on,,,,,82,0,1,,,,,0,,,72,75
34005,note_on,,,,,45,0,1,,,,,0,,,72,0
34006,note_on,,,,,1,0,1,,,,,0,,,70,75
34016,note_on,,,,,56,0,0,,,,,0,,,74,0
34016,note_on,,,,,0,0,0,,,,,0,,,82,0
34020,note_on,,,,,4,0,0,,,,,0,,,77,75
34020,note_on,,,,,0,0,0,,,,,0,,,84,75
34029,note_on,,,,,23,0,1,,,,,0,,,70,0
34076,note_on,,,,,0,0,0,,,,,0,,,84,0
34076,note_on,,,,,56,0,0,,,,,0,,,77,0
34080,note_on,,,,,4,0,0,,,,,0,,,75,75
34080,note_on,,,,,51,0,1,,,,,0,,,55,75
34080,note_on,,,,,0,0,0,,,,,0,,,82,75
34118,note_on,,,,,38,0,1,,,,,0,,,55,0
34136,note_on,,,,,0,0,0,,,,,0,,,82,0
34136,note_on,,,,,56,0,0,,,,,0,,,75,0
34140,note_on,,,,,0,0,0,,,,,0,,,83,75
34140,note_on,,,,,4,0,0,,,,,0,,,79,75
34196,note_on,,,,,56,0,0,,,,,0,,,79,0
34196,note_on,,,,,0,0,0,,,,,0,,,83,0
34200,note_on,,,,,0,0,0,,,,,0,,,82,75
34200,note_on,,,,,4,0,0,,,,,0,,,75,75
34200,note_on,,,,,82,0,1,,,,,0,,,71,75
34245,note_on,,,,,45,0,1,,,,,0,,,71,0
34246,note_on,,,,,1,0,1,,,,,0,,,70,75
34256,note_on,,,,,56,0,0,,,,,0,,,75,0
34256,note_on,,,,,0,0,0,,,,,0,,,82,0
34260,note_on,,,,,0,0,0,,,,,0,,,84,75
34260,note_on,,,,,4,0,0,,,,,0,,,79,75
34269,note_on,,,,,23,0,1,,,,,0,,,70,0
34316,note_on,,,,,0,0,0,,,,,0,,,84,0
34316,note_on,,,,,56,0,0,,,,,0,,,79,0
34320,note_on,,,,,51,0,1,,,,,0,,,50,76
34320,note_on,,,,,0,0,0,,,,,0,,,82,76
34320,note_on,,,,,4,0,0,,,,,0,,,77,76
34358,note_on,,,,,38,0,1,,,,,0,,,50,0
34376,note_on,,,,,56,0,0,,,,,0,,,77,0
34376,note_on,,,,,0,0,0,,,,,0,,,82,0
34380,note_on,,,,,0,0,0,,,,,0,,,83,76
34380,note_on,,,,,4,0,0,,,,,0,,,80,76
34436,note_on,,,,,0,0,0,,,,,0,,,83,0
34436,note_on,,,,,56,0,0,,,,,0,,,80,0
34440,note_on,,,,,82,0,1,,,,,0,,,72,76
34440,note_on,,,,,4,0,0,,,,,0,,,77,76
34440,note_on,,,,,0,0,0,,,,,0,,,82,76
34485,note_on,,,,,45,0,1,,,,,0,,,72,0
34486,note_on,,,,,1,0,1,,,,,0,,,70,76
34496,note_on,,,,,56,0,0,,,,,0,,,77,0
34496,note_on,,,,,0,0,0,,,,,0,,,82,0
34500,note_on,,,,,4,0,0,,,,,0,,,80,76
34500,note_on,,,,,0,0,0,,,,,0,,,84,76
34509,note_on,,,,,23,0,1,,,,,0,,,70,0
34556,note_on,,,,,0,0,0,,,,,0,,,84,0
34556,note_on,,,,,56,0,0,,,,,0,,,80,0
34560,note_on,,,,,0,0,0,,,,,0,,,82,76
34560,note_on,,,,,4,0,0,,,,,0,,,75,76
34560,note_on,,,,,51,0,1,,,,,0,,,51,76
34598,note_on,,,,,38,0,1,,,,,0,,,51,0
34616,note_on,,,,,0,0,0,,,,,0,,,82,0
34616,note_on,,,,,56,0,0,,,,,0,,,75,0
34620,note_on,,,,,0,0,0,,,,,0,,,83,76
34620,note_on,,,,,4,0,0,,,,,0,,,79,76
34676,note_on,,,,,56,0,0,,,,,0,,,79,0
34676,note_on,,,,,0,0,0,,,,,0,,,83,0
34680,note_on,,,,,0,0,0,,,,,0,,,83,77
34680,note_on,,,,,82,0,1,,,,,0,,,71,77
34680,note_on,,,,,4,0,0,,,,,0,,,75,77
34725,note_on,,,,,45,0,1,,,,,0,,,71,0
34726,note_on,,,,,1,0,1,,,,,0,,,70,77
34736,note_on,,,,,0,0,0,,,,,0,,,83,0
34736,note_on,,,,,56,0,0,,,,,0,,,75,0
34740,note_on,,,,,0,0,0,,,,,0,,,84,77
34740,note_on,,,,,4,0,0,,,,,0,,,79,77
34749,note_on,,,,,23,0,1,,,,,0,,,70,0
34796,note_on,,,,,0,0,0,,,,,0,,,84,0
34796,note_on,,,,,56,0,0,,,,,0,,,79,0
34800,note_on,,,,,51,0,1,,,,,0,,,46,77
34800,note_on,,,,,4,0,0,,,,,0,,,79,77
34800,note_on,,,,,0,0,0,,,,,0,,,85,77
34838,note_on,,,,,38,0,1,,,,,0,,,46,0
34856,note_on,,,,,56,0,0,,,,,0,,,79,0
34856,note_on,,,,,0,0,0,,,,,0,,,85,0
34860,note_on,,,,,4,0,0,,,,,0,,,82,77
34860,note_on,,,,,0,0,0,,,,,0,,,86,77
34916,note_on,,,,,0,0,0,,,,,0,,,86,0
34916,note_on,,,,,56,0,0,,,,,0,,,82,0
34920,note_on,,,,,4,0,0,,,,,0,,,79,77
34920,note_on,,,,,0,0,0,,,,,0,,,86,77
34920,note_on,,,,,82,0,1,,,,,0,,,72,77
34965,note_on,,,,,45,0,1,,,,,0,,,72,0
34966,note_on,,,,,1,0,1,,,,,0,,,70,77
34976,note_on,,,,,56,0,0,,,,,0,,,79,0
34976,note_on,,,,,0,0,0,,,,,0,,,86,0
34980,note_on,,,,,4,0,0,,,,,0,,,82,77
34980,note_on,,,,,0,0,0,,,,,0,,,87,77
34989,note_on,,,,,23,0,1,,,,,0,,,70,0
35036,note_on,,,,,56,0,0,,,,,0,,,82,0
35036,note_on,,,,,0,0,0,,,,,0,,,87,0
35040,note_on,,,,,0,0,0,,,,,0,,,87,78
35040,note_on,,,,,51,0,1,,,,,0,,,46,78
35040,note_on,,,,,4,0,0,,,,,0,,,77,78
35078,note_on,,,,,38,0,1,,,,,0,,,46,0
35096,note_on,,,,,56,0,0,,,,,0,,,77,0
35096,note_on,,,,,0,0,0,,,,,0,,,87,0
35100,note_on,,,,,0,0,0,,,,,0,,,86,78
35100,note_on,,,,,4,0,0,,,,,0,,,80,78
35156,note_on,,,,,56,0,0,,,,,0,,,80,0
35156,note_on,,,,,0,0,0,,,,,0,,,86,0
35160,note_on,,,,,4,0,0,,,,,0,,,77,78
35160,note_on,,,,,0,0,0,,,,,0,,,86,78
35160,note_on,,,,,82,0,1,,,,,0,,,71,78
35205,note_on,,,,,45,0,1,,,,,0,,,71,0
35206,note_on,,,,,1,0,1,,,,,0,,,70,78
35216,note_on,,,,,56,0,0,,,,,0,,,77,0
35216,note_on,,,,,0,0,0,,,,,0,,,86,0
35220,note_on,,,,,0,0,0,,,,,0,,,85,78
35220,note_on,,,,,4,0,0,,,,,0,,,80,78
35229,note_on,,,,,23,0,1,,,,,0,,,70,0
35276,note_on,,,,,0,0,0,,,,,0,,,85,0
35276,note_on,,,,,56,0,0,,,,,0,,,80,0
35280,note_on,,,,,51,0,1,,,,,0,,,50,78
35280,note_on,,,,,4,0,0,,,,,0,,,77,78
35280,note_on,,,,,0,0,0,,,,,0,,,85,78
35318,note_on,,,,,38,0,1,,,,,0,,,50,0
35336,note_on,,,,,56,0,0,,,,,0,,,77,0
35336,note_on,,,,,0,0,0,,,,,0,,,85,0
35340,note_on,,,,,0,0,0,,,,,0,,,84,78
35340,note_on,,,,,4,0,0,,,,,0,,,80,78
35396,note_on,,,,,0,0,0,,,,,0,,,84,0
35396,note_on,,,,,56,0,0,,,,,0,,,80,0
35400,note_on,,,,,4,0,0,,,,,0,,,77,79
35400,note_on,,,,,0,0,0,,,,,0,,,84,79
35400,note_on,,,,,82,0,1,,,,,0,,,72,79
35445,note_on,,,,,45,0,1,,,,,0,,,72,0
35446,note_on,,,,,1,0,1,,,,,0,,,70,79
35456,note_on,,,,,0,0,0,,,,,0,,,84,0
35456,note_on,,,,,56,0,0,,,,,0,,,77,0
35460,note_on,,,,,0,0,0,,,,,0,,,83,79
35460,note_on,,,,,4,0,0,,,,,0,,,80,79
35469,note_on,,,,,23,0,1,,,,,0,,,70,0
35516,note_on,,,,,56,0,0,,,,,0,,,80,0
35516,note_on,,,,,0,0,0,,,,,0,,,83,0
35520,note_on,,,,,4,0,0,,,,,0,,,79,79
35520,note_on,,,,,51,0,1,,,,,0,,,51,79
35520,note_on,,,,,0,0,0,,,,,0,,,82,79
35576,note_on,,,,,0,0,0,,,,,0,,,82,0
35576,note_on,,,,,56,0,0,,,,,0,,,79,0
35580,note_on,,,,,0,0,0,,,,,0,,,84,79
35580,note_on,,,,,4,0,0,,,,,0,,,75,79
35636,note_on,,,,,0,0,0,,,,,0,,,84,0
35636,note_on,,,,,56,0,0,,,,,0,,,75,0
35640,note_on,,,,,4,0,0,,,,,0,,,79,79
35640,note_on,,,,,0,0,0,,,,,0,,,82,79
35696,note_on,,,,,56,0,0,,,,,0,,,79,0
35696,note_on,,,,,0,0,0,,,,,0,,,82,0
35700,note_on,,,,,4,0,0,,,,,0,,,87,79
35747,note_on,,,,,227,0,1,,,,,0,,,51,0
35756,note_on,,,,,56,0,0,,,,,0,,,87,0
35760,note_on,,,,,0,0,0,,,,,0,,,91,96
35760,note_on,,,,,13,0,1,,,,,0,,,35,80
35760,note_on,,,,,4,0,0,,,,,0,,,80,96
35760,note_on,,,,,0,0,1,,,,,0,,,47,80
35798,note_on,,,,,0,0,1,,,,,0,,,47,0
35798,note_on,,,,,38,0,1,,,,,0,,,35,0
35799,note_on,,,,,39,0,0,,,,,0,,,80,0
35799,note_on,,,,,0,0,0,,,,,0,,,91,0
35820,note_on,,,,,0,0,0,,,,,0,,,87,80
35820,note_on,,,,,21,0,0,,,,,0,,,86,80
35879,note_on,,,,,0,0,0,,,,,0,,,87,0
35879,note_on,,,,,59,0,0,,,,,0,,,86,0
35880,note_on,,,,,0,0,1,,,,,0,,,56,80
35880,note_on,,,,,0,0,1,,,,,0,,,62,80
35880,note_on,,,,,82,0,1,,,,,0,,,53,80
35880,note_on,,,,,0,0,0,,,,,0,,,91,80
35880,note_on,,,,,1,0,0,,,,,0,,,80,80
35918,note_on,,,,,0,0,1,,,,,0,,,56,0
35918,note_on,,,,,0,0,1,,,,,0,,,62,0
35918,note_on,,,,,38,0,1,,,,,0,,,53,0
35939,note_on,,,,,59,0,0,,,,,0,,,80,0
35939,note_on,,,,,0,0,0,,,,,0,,,91,0
35940,note_on,,,,,1,0,0,,,,,0,,,86,80
35940,note_on,,,,,0,0,0,,,,,0,,,89,80
35996,note_on,,,,,56,0,0,,,,,0,,,86,0
35996,note_on,,,,,0,0,0,,,,,0,,,89,0
36000,note_on,,,,,82,0,1,,,,,0,,,48,80
36000,note_on,,,,,0,0,0,,,,,0,,,89,80
36000,note_on,,,,,0,0,1,,,,,0,,,63,80
36000,note_on,,,,,0,0,1,,,,,0,,,55,80
36000,note_on,,,,,4,0,0,,,,,0,,,79,80
36059,note_on,,,,,59,0,0,,,,,0,,,79,0
36059,note_on,,,,,0,0,0,,,,,0,,,89,0
36060,note_on,,,,,0,0,0,,,,,0,,,86,80
36060,note_on,,,,,1,0,0,,,,,0,,,84,80
36078,note_on,,,,,78,0,1,,,,,0,,,48,0
36078,note_on,,,,,0,0,1,,,,,0,,,63,0
36078,note_on,,,,,0,0,1,,,,,0,,,55,0
36119,note_on,,,,,59,0,0,,,,,0,,,84,0
36119,note_on,,,,,0,0,0,,,,,0,,,86,0
36120,note_on,,,,,1,0,0,,,,,0,,,79,80
36120,note_on,,,,,0,0,0,,,,,0,,,89,80
36179,note_on,,,,,59,0,0,,,,,0,,,79,0
36179,note_on,,,,,0,0,0,,,,,0,,,89,0
36180,note_on,,,,,0,0,0,,,,,0,,,87,80
36180,note_on,,,,,1,0,0,,,,,0,,,84,80
36236,note_on,,,,,0,0,0,,,,,0,,,87,0
36236,note_on,,,,,56,0,0,,,,,0,,,84,0
36240,note_on,,,,,0,0,1,,,,,0,,,50,80
36240,note_on,,,,,162,0,1,,,,,0,,,38,80
36240,note_on,,,,,0,0,0,,,,,0,,,87,96
36240,note_on,,,,,4,0,0,,,,,0,,,77,96
36278,note_on,,,,,0,0,1,,,,,0,,,50,0
36278,note_on,,,,,38,0,1,,,,,0,,,38,0
36279,note_on,,,,,0,0,0,,,,,0,,,87,0
36279,note_on,,,,,39,0,0,,,,,0,,,77,0
36300,note_on,,,,,0,0,0,,,,,0,,,85,80
36300,note_on,,,,,21,0,0,,,,,0,,,83,80
36359,note_on,,,,,0,0,0,,,,,0,,,85,0
36359,note_on,,,,,59,0,0,,,,,0,,,83,0
36360,note_on,,,,,82,0,1,,,,,0,,,56,80
36360,note_on,,,,,0,0,0,,,,,0,,,87,80
36360,note_on,,,,,0,0,1,,,,,0,,,59,80
36360,note_on,,,,,0,0,1,,,,,0,,,65,80
36360,note_on,,,,,1,0,0,,,,,0,,,77,80
36419,note_on,,,,,59,0,1,,,,,0,,,56,0
36419,note_on,,,,,0,0,0,,,,,0,,,87,0
36419,note_on,,,,,0,0,1,,,,,0,,,59,0
36419,note_on,,,,,0,0,1,,,,,0,,,65,0
36419,note_on,,,,,59,0,0,,,,,0,,,77,0
36420,note_on,,,,,1,0,0,,,,,0,,,83,80
36420,note_on,,,,,0,0,0,,,,,0,,,86,80
36476,note_on,,,,,56,0,0,,,,,0,,,83,0
36476,note_on,,,,,0,0,0,,,,,0,,,86,0
36480,note_on,,,,,61,0,1,,,,,0,,,51,80
36480,note_on,,,,,0,0,1,,,,,0,,,67,80
36480,note_on,,,,,0,0,1,,,,,0,,,60,80
36480,note_on,,,,,0,0,0,,,,,0,,,86,80
36480,note_on,,,,,4,0,0,,,,,0,,,75,80
36539,note_on,,,,,59,0,0,,,,,0,,,75,0
36540,note_on,,,,,1,0,0,,,,,0,,,79,80
36540,note_on,,,,,0,0,0,,,,,0,,,83,80
36558,note_on,,,,,78,0,1,,,,,0,,,51,0
36558,note_on,,,,,0,0,1,,,,,0,,,67,0
36558,note_on,,,,,0,0,1,,,,,0,,,60,0
36599,note_on,,,,,59,0,0,,,,,0,,,79,0
36599,note_on,,,,,0,0,0,,,,,0,,,83,0
36600,note_on,,,,,0,0,0,,,,,0,,,86,80
36600,note_on,,,,,1,0,0,,,,,0,,,75,80
36600,note_on,,,,,0,0,0,,,,,0,,,86,0
36659,note_on,,,,,0,0,0,,,,,0,,,86,0
36659,note_on,,,,,59,0,0,,,,,0,,,75,0
36660,note_on,,,,,1,0,0,,,,,0,,,79,80
36660,note_on,,,,,0,0,0,,,,,0,,,84,80
36716,note_on,,,,,0,0,0,,,,,0,,,84,0
36716,note_on,,,,,56,0,0,,,,,0,,,79,0
36720,note_on,,,,,162,0,1,,,,,0,,,40,80
36720,note_on,,,,,4,0,0,,,,,0,,,79,80
36720,note_on,,,,,0,0,0,,,,,0,,,84,80
36758,note_on,,,,,38,0,1,,,,,0,,,40,0
36779,note_on,,,,,59,0,0,,,,,0,,,79,0
36780,note_on,,,,,0,0,0,,,,,0,,,81,80
36780,note_on,,,,,1,0,0,,,,,0,,,73,80
36839,note_on,,,,,59,0,0,,,,,0,,,73,0
36839,note_on,,,,,0,0,0,,,,,0,,,81,0
36840,note_on,,,,,82,0,1,,,,,0,,,46,80
36840,note_on,,,,,0,0,0,,,,,0,,,84,80
36840,note_on,,,,,0,0,0,,,,,0,,,84,0
36840,note_on,,,,,1,0,0,,,,,0,,,79,80
36878,note_on,,,,,38,0,1,,,,,0,,,46,0
36899,note_on,,,,,0,0,0,,,,,0,,,84,0
36899,note_on,,,,,59,0,0,,,,,0,,,79,0
36900,note_on,,,,,1,0,0,,,,,0,,,73,80
36900,note_on,,,,,0,0,0,,,,,0,,,82,80
36956,note_on,,,,,56,0,0,,,,,0,,,73,0
36956,note_on,,,,,0,0,0,,,,,0,,,82,0
36960,note_on,,,,,4,0,0,,,,,0,,,73,80
36960,note_on,,,,,82,0,1,,,,,0,,,52,80
36960,note_on,,,,,0,0,0,,,,,0,,,81,80
36998,note_on,,,,,38,0,1,,,,,0,,,52,0
37019,note_on,,,,,59,0,0,,,,,0,,,73,0
37020,note_on,,,,,1,0,0,,,,,0,,,70,80
37020,note_on,,,,,0,0,0,,,,,0,,,78,80
37079,note_on,,,,,0,0,0,,,,,0,,,78,0
37079,note_on,,,,,59,0,0,,,,,0,,,70,0
37080,note_on,,,,,0,0,0,,,,,0,,,81,0
37080,note_on,,,,,0,0,0,,,,,0,,,81,80
37080,note_on,,,,,82,0,1,,,,,0,,,58,80
37080,note_on,,,,,1,0,0,,,,,0,,,73,80
37118,note_on,,,,,38,0,1,,,,,0,,,58,0
37139,note_on,,,,,59,0,0,,,,,0,,,73,0
37139,note_on,,,,,0,0,0,,,,,0,,,81,0
37140,note_on,,,,,1,0,0,,,,,0,,,70,80
37140,note_on,,,,,0,0,0,,,,,0,,,79,80
37196,note_on,,,,,0,0,0,,,,,0,,,79,0
37196,note_on,,,,,56,0,0,,,,,0,,,70,0
37200,note_on,,,,,82,0,1,,,,,0,,,55,80
37200,note_on,,,,,0,0,0,,,,,0,,,77,80
37200,note_on,,,,,4,0,0,,,,,0,,,70,80
37200,note_on,,,,,0,0,1,,,,,0,,,61,80
37259,note_on,,,,,59,0,0,,,,,0,,,70,0
37260,note_on,,,,,1,0,0,,,,,0,,,67,80
37260,note_on,,,,,0,0,0,,,,,0,,,75,80
37319,note_on,,,,,119,0,1,,,,,0,,,61,0
37319,note_on,,,,,59,0,0,,,,,0,,,67,0
37319,note_on,,,,,0,0,0,,,,,0,,,75,0
37320,note_on,,,,,0,0,0,,,,,0,,,77,80
37320,note_on,,,,,1,0,0,,,,,0,,,73,80
37320,note_on,,,,,1,0,1,,,,,0,,,58,80
37320,note_on,,,,,0,0,0,,,,,0,,,77,0
37379,note_on,,,,,0,0,0,,,,,0,,,77,0
37379,note_on,,,,,59,0,0,,,,,0,,,73,0
37380,note_on,,,,,0,0,0,,,,,0,,,76,80
37380,note_on,,,,,1,0,0,,,,,0,,,67,80
37433,note_on,,,,,113,0,1,,,,,0,,,58,0
37436,note_on,,,,,0,0,0,,,,,0,,,76,0
37436,note_on,,,,,56,0,0,,,,,0,,,67,0
37439,note_on,,,,,6,0,1,,,,,0,,,55,0
37440,note_on,,,,,0,0,0,,,,,0,,,79,80
37440,note_on,,,,,1,0,1,,,,,0,,,53,80
37440,set_tempo,,,,,4,1,0,,750002,,,,,,,
37440,note_on,,,,,0,0,0,,,,,0,,,70,80
37482,note_on,,,,,42,0,1,,,,,0,,,62,80
37499,note_on,,,,,59,0,0,,,,,0,,,70,0
37500,note_on,,,,,1,0,0,,,,,0,,,65,80
37559,note_on,,,,,77,0,1,,,,,0,,,53,0
37559,note_on,,,,,59,0,0,,,,,0,,,65,0
37559,note_on,,,,,0,0,1,,,,,0,,,62,0
37560,note_on,,,,,1,0,0,,,,,0,,,70,80
37619,note_on,,,,,59,0,0,,,,,0,,,79,0
37619,note_on,,,,,0,0,0,,,,,0,,,70,0
37620,note_on,,,,,1,0,0,,,,,0,,,77,80
37620,note_on,,,,,0,0,0,,,,,0,,,77,0
37620,note_on,,,,,0,0,0,,,,,0,,,77,80
37676,note_on,,,,,56,0,0,,,,,0,,,77,0
37680,note_on,,,,,0,0,0,,,,,0,,,74,80
37680,note_on,,,,,4,0,0,,,,,0,,,68,80
37680,note_on,,,,,121,0,1,,,,,0,,,53,80
37680,note_on,,,,,0,0,1,,,,,0,,,59,80
37739,note_on,,,,,59,0,0,,,,,0,,,68,0
37740,note_on,,,,,1,0,0,,,,,0,,,65,80
37799,note_on,,,,,59,0,0,,,,,0,,,65,0
37800,note_on,,,,,1,0,0,,,,,0,,,68,80
37859,note_on,,,,,0,0,0,,,,,0,,,68,0
37859,note_on,,,,,59,0,0,,,,,0,,,74,0
37860,note_on,,,,,0,0,0,,,,,0,,,75,0
37860,note_on,,,,,0,0,0,,,,,0,,,75,80
37860,note_on,,,,,1,0,0,,,,,0,,,75,80
37916,note_on,,,,,56,0,0,,,,,0,,,75,0
37919,note_on,,,,,0,0,1,,,,,0,,,59,0
37919,note_on,,,,,239,0,1,,,,,0,,,53,0
37920,note_on,,,,,0,0,0,,,,,0,,,70,80
37920,note_on,,,,,4,0,0,,,,,0,,,64,80
37920,note_on,,,,,0,0,0,,,,,0,,,74,80
37920,note_on,,,,,1,0,1,,,,,0,,,53,80
37920,note_on,,,,,0,0,1,,,,,0,,,60,80
37979,note_on,,,,,0,0,0,,,,,0,,,70,0
37979,note_on,,,,,59,0,0,,,,,0,,,64,0
37980,note_on,,,,,1,0,0,,,,,0,,,67,80
38039,note_on,,,,,59,0,0,,,,,0,,,67,0
38040,note_on,,,,,1,0,0,,,,,0,,,64,80
38099,note_on,,,,,0,0,0,,,,,0,,,64,0
38099,note_on,,,,,59,0,0,,,,,0,,,74,0
38100,note_on,,,,,0,0,0,,,,,0,,,72,0
38100,note_on,,,,,0,0,0,,,,,0,,,72,80
38100,note_on,,,,,1,0,0,,,,,0,,,72,80
38147,note_on,,,,,0,0,1,,,,,0,,,60,0
38147,note_on,,,,,227,0,1,,,,,0,,,53,0
38156,note_on,,,,,56,0,0,,,,,0,,,72,0
38160,note_on,,,,,0,0,0,,,,,0,,,67,80
38160,note_on,,,,,13,0,1,,,,,0,,,40,96
38160,note_on,,,,,4,0,0,,,,,0,,,63,80
38219,note_on,,,,,59,0,0,,,,,0,,,63,0
38219,note_on,,,,,59,0,1,,,,,0,,,40,0
38220,note_on,,,,,1,0,0,,,,,0,,,60,80
38220,note_on,,,,,1,0,1,,,,,0,,,41,80
38276,note_on,,,,,56,0,1,,,,,0,,,41,0
38279,note_on,,,,,59,0,0,,,,,0,,,60,0
38280,note_on,,,,,1,0,0,,,,,0,,,63,80
38280,note_on,,,,,4,0,1,,,,,0,,,40,80
38336,note_on,,,,,56,0,1,,,,,0,,,40,0
38339,note_on,,,,,59,0,0,,,,,0,,,67,0
38339,note_on,,,,,0,0,0,,,,,0,,,63,0
38340,note_on,,,,,4,0,1,,,,,0,,,41,80
38340,note_on,,,,,0,0,0,,,,,0,,,69,80
38340,note_on,,,,,1,0,0,,,,,0,,,69,80
38340,note_on,,,,,0,0,0,,,,,0,,,69,0
38396,note_on,,,,,56,0,0,,,,,0,,,69,0
38400,note_on,,,,,0,0,0,,,,,0,,,72,80
38400,note_on,,,,,4,0,0,,,,,0,,,62,80
38400,note_on,,,,,60,0,1,,,,,0,,,53,80
38459,note_on,,,,,59,0,0,,,,,0,,,62,0
38460,note_on,,,,,1,0,0,,,,,0,,,65,80
38519,note_on,,,,,59,0,0,,,,,0,,,65,0
38520,note_on,,,,,1,0,0,,,,,0,,,62,80
38579,note_on,,,,,0,0,0,,,,,0,,,62,0
38579,note_on,,,,,59,0,0,,,,,0,,,72,0
38580,note_on,,,,,0,0,0,,,,,0,,,70,80
38580,note_on,,,,,0,0,0,,,,,0,,,70,0
38580,note_on,,,,,1,0,0,,,,,0,,,70,80
38624,note_on,,,,,224,0,1,,,,,0,,,41,0
38627,note_on,,,,,3,0,1,,,,,0,,,53,0
38636,note_on,,,,,56,0,0,,,,,0,,,70,0
38640,note_on,,,,,4,0,0,,,,,0,,,56,80
38640,note_on,,,,,0,0,0,,,,,0,,,67,80
38640,note_on,,,,,13,0,1,,,,,0,,,41,80
38640,note_on,,,,,0,0,1,,,,,0,,,47,80
38699,note_on,,,,,59,0,0,,,,,0,,,56,0
38700,note_on,,,,,1,0,0,,,,,0,,,62,80
38759,note_on,,,,,59,0,0,,,,,0,,,62,0
38760,note_on,,,,,1,0,0,,,,,0,,,56,80
38819,note_on,,,,,59,0,0,,,,,0,,,67,0
38819,note_on,,,,,0,0,0,,,,,0,,,56,0
38820,note_on,,,,,1,0,0,,,,,0,,,62,80
38820,note_on,,,,,0,0,0,,,,,0,,,65,80
38876,note_on,,,,,56,0,0,,,,,0,,,62,0
38876,note_on,,,,,0,0,0,,,,,0,,,65,0
38879,note_on,,,,,239,0,1,,,,,0,,,47,0
38880,note_on,,,,,0,0,0,,,,,0,,,65,80
38880,note_on,,,,,4,0,0,,,,,0,,,55,80
38880,note_on,,,,,1,0,1,,,,,0,,,48,80
38939,note_on,,,,,59,0,0,,,,,0,,,55,0
38940,note_on,,,,,1,0,0,,,,,0,,,60,80
38999,note_on,,,,,59,0,0,,,,,0,,,60,0
39000,note_on,,,,,1,0,0,,,,,0,,,55,80
39059,note_on,,,,,0,0,0,,,,,0,,,55,0
39059,note_on,,,,,59,0,0,,,,,0,,,65,0
39060,note_on,,,,,0,0,0,,,,,0,,,63,0
39060,note_on,,,,,1,0,0,,,,,0,,,63,80
39060,note_on,,,,,0,0,0,,,,,0,,,63,80
39107,note_on,,,,,227,0,1,,,,,0,,,48,0
39116,note_on,,,,,56,0,0,,,,,0,,,63,0
39119,note_on,,,,,12,0,1,,,,,0,,,41,0
39120,note_on,,,,,1,0,1,,,,,0,,,42,96
39120,note_on,,,,,0,0,0,,,,,0,,,60,80
39120,note_on,,,,,4,0,0,,,,,0,,,51,80
39179,note_on,,,,,59,0,0,,,,,0,,,51,0
39180,note_on,,,,,1,0,0,,,,,0,,,57,80
39239,note_on,,,,,119,0,1,,,,,0,,,42,0
39239,note_on,,,,,59,0,0,,,,,0,,,57,0
39240,note_on,,,,,1,0,1,,,,,0,,,41,80
39240,note_on,,,,,1,0,0,,,,,0,,,51,80
39299,note_on,,,,,0,0,0,,,,,0,,,51,0
39299,note_on,,,,,59,0,0,,,,,0,,,60,0
39300,note_on,,,,,0,0,0,,,,,0,,,62,80
39300,note_on,,,,,1,0,0,,,,,0,,,57,80
39353,note_on,,,,,113,0,1,,,,,0,,,41,0
39356,note_on,,,,,0,0,0,,,,,0,,,62,0
39356,note_on,,,,,56,0,0,,,,,0,,,57,0
39360,note_on,,,,,7,0,1,,,,,0,,,34,80
39360,set_tempo,,,,,4,1,0,,666667,,,,,,,
39360,note_on,,,,,0,0,0,,,,,0,,,58,80
39360,note_on,,,,,0,0,0,,,,,0,,,50,80
39473,note_on,,,,,0,0,0,,,,,0,,,58,0
39473,note_on,,,,,113,0,1,,,,,0,,,34,0
39473,note_on,,,,,113,0,0,,,,,0,,,50,0
39480,note_on,,,,,7,0,0,,,,,0,,,50,80
39480,note_on,,,,,0,0,1,,,,,0,,,58,80
39480,note_on,,,,,7,0,1,,,,,0,,,53,80
39536,note_on,,,,,56,0,1,,,,,0,,,58,0
39539,note_on,,,,,59,0,0,,,,,0,,,50,0
39539,note_on,,,,,3,0,1,,,,,0,,,53,0
39540,note_on,,,,,1,0,1,,,,,0,,,62,80
39596,note_on,,,,,56,0,1,,,,,0,,,62,0
39600,note_on,,,,,4,0,1,,,,,0,,,54,80
39600,note_on,,,,,61,0,0,,,,,0,,,48,80
39600,note_on,,,,,0,0,1,,,,,0,,,58,80
39656,note_on,,,,,56,0,1,,,,,0,,,58,0
39659,note_on,,,,,59,0,0,,,,,0,,,48,0
39659,note_on,,,,,3,0,1,,,,,0,,,54,0
39660,note_on,,,,,1,0,1,,,,,0,,,62,80
39716,note_on,,,,,56,0,1,,,,,0,,,62,0
39720,note_on,,,,,0,0,1,,,,,0,,,58,80
39720,note_on,,,,,61,0,0,,,,,0,,,47,80
39720,note_on,,,,,4,0,1,,,,,0,,,55,80
39776,note_on,,,,,56,0,1,,,,,0,,,58,0
39779,note_on,,,,,3,0,1,,,,,0,,,55,0
39779,note_on,,,,,59,0,0,,,,,0,,,47,0
39780,note_on,,,,,1,0,1,,,,,0,,,62,80
39836,note_on,,,,,56,0,1,,,,,0,,,62,0
39840,note_on,,,,,0,0,1,,,,,0,,,58,80
39840,note_on,,,,,61,0,0,,,,,0,,,46,80
39840,note_on,,,,,4,0,1,,,,,0,,,54,80
39896,note_on,,,,,56,0,1,,,,,0,,,58,0
39899,note_on,,,,,3,0,1,,,,,0,,,54,0
39899,note_on,,,,,59,0,0,,,,,0,,,46,0
39900,note_on,,,,,1,0,1,,,,,0,,,62,80
39956,note_on,,,,,56,0,1,,,,,0,,,62,0
39960,note_on,,,,,0,0,1,,,,,0,,,58,80
39960,note_on,,,,,61,0,0,,,,,0,,,50,80
39960,note_on,,,,,4,0,1,,,,,0,,,53,80
40016,note_on,,,,,56,0,1,,,,,0,,,58,0
40019,note_on,,,,,59,0,0,,,,,0,,,50,0
40019,note_on,,,,,3,0,1,,,,,0,,,53,0
40020,note_on,,,,,1,0,1,,,,,0,,,62,80
40076,note_on,,,,,56,0,1,,,,,0,,,62,0
40080,note_on,,,,,4,0,1,,,,,0,,,54,80
40080,note_on,,,,,61,0,0,,,,,0,,,48,80
40080,note_on,,,,,0,0,1,,,,,0,,,58,80
40136,note_on,,,,,56,0,1,,,,,0,,,58,0
40139,note_on,,,,,3,0,1,,,,,0,,,54,0
40139,note_on,,,,,59,0,0,,,,,0,,,48,0
40140,note_on,,,,,1,0,1,,,,,0,,,62,80
40140,note_on,,,,,1,0,0,,,,,0,,,47,80
40196,note_on,,,,,56,0,1,,,,,0,,,62,0
40199,note_on,,,,,59,0,0,,,,,0,,,47,0
40200,note_on,,,,,0,0,1,,,,,0,,,58,80
40200,note_on,,,,,1,0,0,,,,,0,,,46,80
40200,note_on,,,,,4,0,1,,,,,0,,,55,80
40256,note_on,,,,,56,0,1,,,,,0,,,58,0
40259,note_on,,,,,3,0,1,,,,,0,,,55,0
40259,note_on,,,,,59,0,0,,,,,0,,,46,0
40260,note_on,,,,,1,0,1,,,,,0,,,62,80
40316,note_on,,,,,56,0,1,,,,,0,,,62,0
40320,note_on,,,,,4,0,1,,,,,0,,,54,80
40347,note_on,,,,,27,0,1,,,,,0,,,57,80
40375,note_on,,,,,28,0,1,,,,,0,,,63,80
40438,note_on,,,,,63,0,1,,,,,0,,,57,0
40438,note_on,,,,,0,0,1,,,,,0,,,63,0
40439,note_on,,,,,1,0,1,,,,,0,,,54,0
40440,note_on,,,,,1,0,1,,,,,0,,,78,80
40440,note_on,,,,,0,0,1,,,,,0,,,81,80
40440,note_on,,,,,181,0,0,,,,,0,,,87,80
40496,note_on,,,,,56,0,0,,,,,0,,,87,0
40499,note_on,,,,,0,0,1,,,,,0,,,81,0
40499,note_on,,,,,59,0,1,,,,,0,,,78,0
40500,note_on,,,,,4,0,0,,,,,0,,,84,80
40556,note_on,,,,,56,0,0,,,,,0,,,84,0
40560,note_on,,,,,4,0,0,,,,,0,,,80,80
40560,note_on,,,,,0,0,1,,,,,0,,,74,80
40560,note_on,,,,,61,0,1,,,,,0,,,71,80
40616,note_on,,,,,56,0,0,,,,,0,,,80,0
40619,note_on,,,,,0,0,1,,,,,0,,,74,0
40619,note_on,,,,,59,0,1,,,,,0,,,71,0
40620,note_on,,,,,4,0,0,,,,,0,,,77,80
40676,note_on,,,,,56,0,0,,,,,0,,,77,0
40680,note_on,,,,,0,0,1,,,,,0,,,75,80
40680,note_on,,,,,61,0,1,,,,,0,,,72,80
40680,note_on,,,,,4,0,0,,,,,0,,,81,80
40736,note_on,,,,,56,0,0,,,,,0,,,81,0
40739,note_on,,,,,59,0,1,,,,,0,,,72,0
40739,note_on,,,,,0,0,1,,,,,0,,,75,0
40740,note_on,,,,,4,0,0,,,,,0,,,78,80
40796,note_on,,,,,56,0,0,,,,,0,,,78,0
40800,note_on,,,,,0,0,1,,,,,0,,,68,80
40800,note_on,,,,,4,0,0,,,,,0,,,74,80
40800,note_on,,,,,61,0,1,,,,,0,,,65,80
40856,note_on,,,,,56,0,0,,,,,0,,,74,0
40859,note_on,,,,,0,0,1,,,,,0,,,68,0
40859,note_on,,,,,59,0,1,,,,,0,,,65,0
40860,note_on,,,,,4,0,0,,,,,0,,,71,80
40916,note_on,,,,,56,0,0,,,,,0,,,71,0
40920,note_on,,,,,4,0,0,,,,,0,,,75,80
40920,note_on,,,,,61,0,1,,,,,0,,,66,80
40920,note_on,,,,,0,0,1,,,,,0,,,69,80
40976,note_on,,,,,56,0,0,,,,,0,,,75,0
40979,note_on,,,,,59,0,1,,,,,0,,,66,0
40979,note_on,,,,,0,0,1,,,,,0,,,69,0
40980,note_on,,,,,4,0,0,,,,,0,,,72,80
41036,note_on,,,,,56,0,0,,,,,0,,,72,0
41040,note_on,,,,,4,0,0,,,,,0,,,68,80
41040,note_on,,,,,0,0,1,,,,,0,,,62,80
41040,note_on,,,,,61,0,1,,,,,0,,,59,80
41096,note_on,,,,,56,0,0,,,,,0,,,68,0
41099,note_on,,,,,59,0,1,,,,,0,,,59,0
41099,note_on,,,,,0,0,1,,,,,0,,,62,0
41100,note_on,,,,,4,0,0,,,,,0,,,65,80
41156,note_on,,,,,56,0,0,,,,,0,,,65,0
41160,note_on,,,,,0,0,1,,,,,0,,,63,80
41160,note_on,,,,,61,0,1,,,,,0,,,60,80
41160,note_on,,,,,4,0,0,,,,,0,,,69,80
41216,note_on,,,,,56,0,0,,,,,0,,,69,0
41219,note_on,,,,,59,0,1,,,,,0,,,60,0
41219,note_on,,,,,0,0,1,,,,,0,,,63,0
41220,note_on,,,,,4,0,0,,,,,0,,,78,80
41276,note_on,,,,,56,0,0,,,,,0,,,78,0
41280,note_on,,,,,4,0,0,,,,,0,,,70,80
41280,note_on,,,,,61,0,1,,,,,0,,,62,80
41280,note_on,,,,,0,0,0,,,,,0,,,77,80
41393,note_on,,,,,113,0,0,,,,,0,,,70,0
41393,note_on,,,,,0,0,0,,,,,0,,,77,0
41393,note_on,,,,,113,0,1,,,,,0,,,62,0
41400,note_on,,,,,7,0,1,,,,,0,,,53,80
41400,note_on,,,,,0,0,1,,,,,0,,,58,80
41400,note_on,,,,,7,0,0,,,,,0,,,50,80
41456,note_on,,,,,56,0,1,,,,,0,,,58,0
41459,note_on,,,,,59,0,0,,,,,0,,,50,0
41459,note_on,,,,,3,0,1,,,,,0,,,53,0
41460,note_on,,,,,1,0,1,,,,,0,,,62,80
41516,note_on,,,,,56,0,1,,,,,0,,,62,0
41520,note_on,,,,,4,0,1,,,,,0,,,54,80
41520,note_on,,,,,0,0,1,,,,,0,,,58,80
41520,note_on,,,,,61,0,0,,,,,0,,,48,80
41576,note_on,,,,,56,0,1,,,,,0,,,58,0
41579,note_on,,,,,59,0,0,,,,,0,,,48,0
41579,note_on,,,,,3,0,1,,,,,0,,,54,0
41580,note_on,,,,,1,0,1,,,,,0,,,62,80
41636,note_on,,,,,56,0,1,,,,,0,,,62,0
41640,note_on,,,,,61,0,0,,,,,0,,,47,80
41640,note_on,,,,,4,0,1,,,,,0,,,55,80
41640,note_on,,,,,0,0,1,,,,,0,,,58,80
41696,note_on,,,,,56,0,1,,,,,0,,,58,0
41699,note_on,,,,,3,0,1,,,,,0,,,55,0
41699,note_on,,,,,59,0,0,,,,,0,,,47,0
41700,note_on,,,,,1,0,1,,,,,0,,,62,80
41756,note_on,,,,,56,0,1,,,,,0,,,62,0
41760,note_on,,,,,4,0,1,,,,,0,,,54,80
41760,note_on,,,,,61,0,0,,,,,0,,,46,80
41760,note_on,,,,,0,0,1,,,,,0,,,58,80
41816,note_on,,,,,56,0,1,,,,,0,,,58,0
41819,note_on,,,,,3,0,1,,,,,0,,,54,0
41819,note_on,,,,,59,0,0,,,,,0,,,46,0
41820,note_on,,,,,1,0,1,,,,,0,,,62,80
41876,note_on,,,,,56,0,1,,,,,0,,,62,0
41880,note_on,,,,,0,0,1,,,,,0,,,58,80
41880,note_on,,,,,4,0,1,,,,,0,,,53,80
41880,note_on,,,,,61,0,0,,,,,0,,,50,80
41936,note_on,,,,,56,0,1,,,,,0,,,58,0
41939,note_on,,,,,3,0,1,,,,,0,,,53,0
41939,note_on,,,,,59,0,0,,,,,0,,,50,0
41940,note_on,,,,,1,0,1,,,,,0,,,62,80
41996,note_on,,,,,56,0,1,,,,,0,,,62,0
42000,note_on,,,,,4,0,1,,,,,0,,,54,80
42000,note_on,,,,,0,0,1,,,,,0,,,58,80
42000,note_on,,,,,61,0,0,,,,,0,,,48,80
42056,note_on,,,,,56,0,1,,,,,0,,,58,0
42059,note_on,,,,,3,0,1,,,,,0,,,54,0
42059,note_on,,,,,59,0,0,,,,,0,,,48,0
42060,note_on,,,,,1,0,1,,,,,0,,,62,80
42060,note_on,,,,,1,0,0,,,,,0,,,47,80
42116,note_on,,,,,56,0,1,,,,,0,,,62,0
42119,note_on,,,,,59,0,0,,,,,0,,,47,0
42120,note_on,,,,,4,0,1,,,,,0,,,55,80
42120,note_on,,,,,1,0,0,,,,,0,,,46,80
42120,note_on,,,,,0,0,1,,,,,0,,,58,80
42176,note_on,,,,,56,0,1,,,,,0,,,58,0
42179,note_on,,,,,3,0,1,,,,,0,,,55,0
42179,note_on,,,,,59,0,0,,,,,0,,,46,0
42180,note_on,,,,,1,0,1,,,,,0,,,62,80
42236,note_on,,,,,56,0,1,,,,,0,,,62,0
42240,note_on,,,,,0,0,1,,,,,0,,,57,80
42240,note_on,,,,,0,0,1,,,,,0,,,63,80
42240,note_on,,,,,4,0,1,,,,,0,,,54,80
42278,note_on,,,,,38,0,1,,,,,0,,,54,0
42278,note_on,,,,,0,0,1,,,,,0,,,57,0
42278,note_on,,,,,0,0,1,,,,,0,,,63,0
42360,note_on,,,,,82,0,1,,,,,0,,,78,80
42360,note_on,,,,,181,0,0,,,,,0,,,87,80
42360,note_on,,,,,0,0,1,,,,,0,,,81,80
42416,note_on,,,,,56,0,0,,,,,0,,,87,0
42419,note_on,,,,,59,0,1,,,,,0,,,78,0
42419,note_on,,,,,0,0,1,,,,,0,,,81,0
42420,note_on,,,,,4,0,0,,,,,0,,,84,80
42476,note_on,,,,,56,0,0,,,,,0,,,84,0
42480,note_on,,,,,0,0,1,,,,,0,,,74,80
42480,note_on,,,,,61,0,1,,,,,0,,,71,80
42480,note_on,,,,,4,0,0,,,,,0,,,80,80
42536,note_on,,,,,56,0,0,,,,,0,,,80,0
42539,note_on,,,,,0,0,1,,,,,0,,,74,0
42539,note_on,,,,,59,0,1,,,,,0,,,71,0
42540,note_on,,,,,4,0,0,,,,,0,,,77,80
42596,note_on,,,,,56,0,0,,,,,0,,,77,0
42600,note_on,,,,,4,0,0,,,,,0,,,81,80
42600,note_on,,,,,61,0,1,,,,,0,,,72,80
42600,note_on,,,,,0,0,1,,,,,0,,,75,80
42656,note_on,,,,,56,0,0,,,,,0,,,81,0
42659,note_on,,,,,59,0,1,,,,,0,,,72,0
42659,note_on,,,,,0,0,1,,,,,0,,,75,0
42660,note_on,,,,,4,0,0,,,,,0,,,78,80
42716,note_on,,,,,56,0,0,,,,,0,,,78,0
42720,note_on,,,,,4,0,0,,,,,0,,,74,80
42720,note_on,,,,,61,0,1,,,,,0,,,65,80
42720,note_on,,,,,0,0,1,,,,,0,,,68,80
42776,note_on,,,,,56,0,0,,,,,0,,,74,0
42779,note_on,,,,,0,0,1,,,,,0,,,68,0
42779,note_on,,,,,59,0,1,,,,,0,,,65,0
42780,note_on,,,,,4,0,0,,,,,0,,,71,80
42836,note_on,,,,,56,0,0,,,,,0,,,71,0
42840,note_on,,,,,0,0,1,,,,,0,,,69,80
42840,note_on,,,,,61,0,1,,,,,0,,,66,80
42840,note_on,,,,,4,0,0,,,,,0,,,75,80
42896,note_on,,,,,56,0,0,,,,,0,,,75,0
42899,note_on,,,,,0,0,1,,,,,0,,,69,0
42899,note_on,,,,,59,0,1,,,,,0,,,66,0
42900,note_on,,,,,4,0,0,,,,,0,,,72,80
42956,note_on,,,,,56,0,0,,,,,0,,,72,0
42960,note_on,,,,,4,0,0,,,,,0,,,68,80
42960,note_on,,,,,61,0,1,,,,,0,,,59,80
42960,note_on,,,,,0,0,1,,,,,0,,,62,80
43016,note_on,,,,,56,0,0,,,,,0,,,68,0
43019,note_on,,,,,0,0,1,,,,,0,,,62,0
43019,note_on,,,,,59,0,1,,,,,0,,,59,0
43020,note_on,,,,,4,0,0,,,,,0,,,65,80
43076,note_on,,,,,56,0,0,,,,,0,,,65,0
43080,note_on,,,,,0,0,1,,,,,0,,,63,80
43080,note_on,,,,,4,0,0,,,,,0,,,69,80
43080,note_on,,,,,61,0,1,,,,,0,,,60,80
43136,note_on,,,,,56,0,0,,,,,0,,,69,0
43139,note_on,,,,,0,0,1,,,,,0,,,63,0
43139,note_on,,,,,59,0,1,,,,,0,,,60,0
43140,note_on,,,,,4,0,0,,,,,0,,,78,80
43196,note_on,,,,,56,0,0,,,,,0,,,78,0
43200,note_on,,,,,0,0,0,,,,,0,,,65,80
43200,note_on,,,,,4,0,0,,,,,0,,,62,80
43200,note_on,,,,,61,0,1,,,,,0,,,46,80
43227,note_on,,,,,27,0,1,,,,,0,,,56,80
43238,note_on,,,,,38,0,0,,,,,0,,,62,0
43238,note_on,,,,,0,0,0,,,,,0,,,65,0
43255,note_on,,,,,28,0,1,,,,,0,,,59,80
43318,note_on,,,,,0,0,1,,,,,0,,,59,0
43318,note_on,,,,,63,0,1,,,,,0,,,56,0
43319,note_on,,,,,1,0,1,,,,,0,,,46,0
43320,note_on,,,,,0,0,1,,,,,0,,,83,80
43320,note_on,,,,,82,0,0,,,,,0,,,89,80
43320,note_on,,,,,1,0,1,,,,,0,,,80,80
43376,note_on,,,,,56,0,0,,,,,0,,,89,0
43379,note_on,,,,,0,0,1,,,,,0,,,83,0
43379,note_on,,,,,59,0,1,,,,,0,,,80,0
43380,note_on,,,,,4,0,0,,,,,0,,,86,80
43436,note_on,,,,,56,0,0,,,,,0,,,86,0
43440,note_on,,,,,0,0,1,,,,,0,,,76,80
43440,note_on,,,,,61,0,1,,,,,0,,,73,80
43440,note_on,,,,,4,0,0,,,,,0,,,82,80
43496,note_on,,,,,56,0,0,,,,,0,,,82,0
43499,note_on,,,,,59,0,1,,,,,0,,,73,0
43499,note_on,,,,,0,0,1,,,,,0,,,76,0
43500,note_on,,,,,4,0,0,,,,,0,,,79,80
43556,note_on,,,,,56,0,0,,,,,0,,,79,0
43560,note_on,,,,,4,0,0,,,,,0,,,83,80
43560,note_on,,,,,0,0,1,,,,,0,,,77,80
43560,note_on,,,,,61,0,1,,,,,0,,,74,80
43616,note_on,,,,,56,0,0,,,,,0,,,83,0
43619,note_on,,,,,0,0,1,,,,,0,,,77,0
43619,note_on,,,,,59,0,1,,,,,0,,,74,0
43620,note_on,,,,,4,0,0,,,,,0,,,80,80
43676,note_on,,,,,56,0,0,,,,,0,,,80,0
43680,note_on,,,,,4,0,0,,,,,0,,,76,80
43680,note_on,,,,,61,0,1,,,,,0,,,67,80
43680,note_on,,,,,0,0,1,,,,,0,,,70,80
43736,note_on,,,,,56,0,0,,,,,0,,,76,0
43739,note_on,,,,,59,0,1,,,,,0,,,67,0
43739,note_on,,,,,0,0,1,,,,,0,,,70,0
43740,note_on,,,,,4,0,0,,,,,0,,,73,80
43796,note_on,,,,,56,0,0,,,,,0,,,73,0
43800,note_on,,,,,61,0,1,,,,,0,,,68,80
43800,note_on,,,,,4,0,0,,,,,0,,,77,80
43800,note_on,,,,,0,0,1,,,,,0,,,71,80
43856,note_on,,,,,56,0,0,,,,,0,,,77,0
43859,note_on,,,,,59,0,1,,,,,0,,,68,0
43859,note_on,,,,,0,0,1,,,,,0,,,71,0
43860,note_on,,,,,4,0,0,,,,,0,,,74,80
43916,note_on,,,,,56,0,0,,,,,0,,,74,0
43920,note_on,,,,,61,0,1,,,,,0,,,61,80
43920,note_on,,,,,0,0,1,,,,,0,,,64,80
43920,note_on,,,,,4,0,0,,,,,0,,,70,80
43976,note_on,,,,,56,0,0,,,,,0,,,70,0
43979,note_on,,,,,59,0,1,,,,,0,,,61,0
43979,note_on,,,,,0,0,1,,,,,0,,,64,0
43980,note_on,,,,,4,0,0,,,,,0,,,67,80
44036,note_on,,,,,56,0,0,,,,,0,,,67,0
44040,note_on,,,,,0,0,1,,,,,0,,,65,80
44040,note_on,,,,,61,0,1,,,,,0,,,62,80
44040,note_on,,,,,4,0,0,,,,,0,,,71,80
44096,note_on,,,,,56,0,0,,,,,0,,,71,0
44099,note_on,,,,,0,0,1,,,,,0,,,65,0
44099,note_on,,,,,59,0,1,,,,,0,,,62,0
44100,note_on,,,,,4,0,0,,,,,0,,,80,80
44156,note_on,,,,,56,0,0,,,,,0,,,80,0
44160,note_on,,,,,0,0,0,,,,,0,,,67,80
44160,note_on,,,,,4,0,0,,,,,0,,,64,80
44160,note_on,,,,,61,0,1,,,,,0,,,46,80
44198,note_on,,,,,0,0,0,,,,,0,,,67,0
44198,note_on,,,,,38,0,0,,,,,0,,,64,0
44202,note_on,,,,,42,0,1,,,,,0,,,61,80
44279,note_on,,,,,0,0,1,,,,,0,,,61,0
44279,note_on,,,,,77,0,1,,,,,0,,,46,0
44280,note_on,,,,,1,0,1,,,,,0,,,82,80
44280,note_on,,,,,0,0,1,,,,,0,,,85,80
44280,note_on,,,,,82,0,0,,,,,0,,,91,80
44336,note_on,,,,,56,0,0,,,,,0,,,91,0
44340,note_on,,,,,4,0,0,,,,,0,,,88,80
44393,note_on,,,,,0,0,1,,,,,0,,,85,0
44393,note_on,,,,,113,0,1,,,,,0,,,82,0
44396,note_on,,,,,56,0,0,,,,,0,,,88,0
44400,note_on,,,,,4,0,0,,,,,0,,,84,80
44400,note_on,,,,,7,0,1,,,,,0,,,75,80
44400,note_on,,,,,0,0,1,,,,,0,,,78,80
44456,note_on,,,,,56,0,0,,,,,0,,,84,0
44460,note_on,,,,,4,0,0,,,,,0,,,81,80
44513,note_on,,,,,113,0,1,,,,,0,,,75,0
44513,note_on,,,,,0,0,1,,,,,0,,,78,0
44516,note_on,,,,,56,0,0,,,,,0,,,81,0
44520,note_on,,,,,0,0,1,,,,,0,,,79,80
44520,note_on,,,,,4,0,0,,,,,0,,,85,80
44520,note_on,,,,,7,0,1,,,,,0,,,76,80
44576,note_on,,,,,56,0,0,,,,,0,,,85,0
44580,note_on,,,,,4,0,0,,,,,0,,,82,80
44633,note_on,,,,,113,0,1,,,,,0,,,76,0
44633,note_on,,,,,0,0,1,,,,,0,,,79,0
44636,note_on,,,,,56,0,0,,,,,0,,,82,0
44640,note_on,,,,,0,0,0,,,,,0,,,69,80
44640,note_on,,,,,4,0,0,,,,,0,,,63,80
44640,note_on,,,,,7,0,1,,,,,0,,,46,80
44667,note_on,,,,,27,0,1,,,,,0,,,54,80
44678,note_on,,,,,0,0,0,,,,,0,,,69,0
44678,note_on,,,,,38,0,0,,,,,0,,,63,0
44695,note_on,,,,,28,0,1,,,,,0,,,60,80
44758,note_on,,,,,63,0,1,,,,,0,,,54,0
44758,note_on,,,,,0,0,1,,,,,0,,,60,0
44759,note_on,,,,,1,0,1,,,,,0,,,46,0
44760,note_on,,,,,82,0,0,,,,,0,,,93,80
44760,note_on,,,,,0,0,1,,,,,0,,,87,80
44760,note_on,,,,,1,0,1,,,,,0,,,84,80
44816,note_on,,,,,56,0,0,,,,,0,,,93,0
44820,note_on,,,,,4,0,0,,,,,0,,,90,80
44873,note_on,,,,,113,0,1,,,,,0,,,84,0
44873,note_on,,,,,0,0,1,,,,,0,,,87,0
44876,note_on,,,,,56,0,0,,,,,0,,,90,0
44880,note_on,,,,,4,0,0,,,,,0,,,86,80
44880,note_on,,,,,0,0,1,,,,,0,,,80,80
44880,note_on,,,,,7,0,1,,,,,0,,,77,80
44936,note_on,,,,,56,0,0,,,,,0,,,86,0
44940,note_on,,,,,4,0,0,,,,,0,,,83,80
44993,note_on,,,,,113,0,1,,,,,0,,,77,0
44993,note_on,,,,,0,0,1,,,,,0,,,80,0
44996,note_on,,,,,56,0,0,,,,,0,,,83,0
45000,note_on,,,,,4,0,0,,,,,0,,,87,80
45000,note_on,,,,,7,0,1,,,,,0,,,78,80
45000,note_on,,,,,0,0,1,,,,,0,,,81,80
45056,note_on,,,,,56,0,0,,,,,0,,,87,0
45060,note_on,,,,,4,0,0,,,,,0,,,84,80
45113,note_on,,,,,0,0,1,,,,,0,,,81,0
45113,note_on,,,,,113,0,1,,,,,0,,,78,0
45116,note_on,,,,,56,0,0,,,,,0,,,84,0
45120,note_on,,,,,0,0,1,,,,,0,,,78,80
45120,note_on,,,,,7,0,1,,,,,0,,,75,80
45120,note_on,,,,,4,0,0,,,,,0,,,96,80
45176,note_on,,,,,56,0,0,,,,,0,,,96,0
45179,note_on,,,,,0,0,1,,,,,0,,,78,0
45179,note_on,,,,,59,0,1,,,,,0,,,75,0
45180,note_on,,,,,4,0,0,,,,,0,,,93,80
45236,note_on,,,,,56,0,0,,,,,0,,,93,0
45240,note_on,,,,,61,0,1,,,,,0,,,68,80
45240,note_on,,,,,0,0,1,,,,,0,,,71,80
45240,note_on,,,,,4,0,0,,,,,0,,,89,80
45296,note_on,,,,,56,0,0,,,,,0,,,89,0
45299,note_on,,,,,0,0,1,,,,,0,,,71,0
45299,note_on,,,,,59,0,1,,,,,0,,,68,0
45300,note_on,,,,,4,0,0,,,,,0,,,86,80
45356,note_on,,,,,56,0,0,,,,,0,,,86,0
45360,note_on,,,,,4,0,0,,,,,0,,,90,80
45360,note_on,,,,,0,0,1,,,,,0,,,72,80
45360,note_on,,,,,61,0,1,,,,,0,,,69,80
45416,note_on,,,,,56,0,0,,,,,0,,,90,0
45419,note_on,,,,,59,0,1,,,,,0,,,69,0
45419,note_on,,,,,0,0,1,,,,,0,,,72,0
45420,note_on,,,,,4,0,0,,,,,0,,,87,80
45476,note_on,,,,,56,0,0,,,,,0,,,87,0
45480,note_on,,,,,4,0,0,,,,,0,,,99,80
45480,note_on,,,,,0,0,1,,,,,0,,,69,80
45480,note_on,,,,,61,0,1,,,,,0,,,66,80
45536,note_on,,,,,56,0,0,,,,,0,,,99,0
45539,note_on,,,,,59,0,1,,,,,0,,,66,0
45539,note_on,,,,,0,0,1,,,,,0,,,69,0
45540,note_on,,,,,4,0,0,,,,,0,,,96,80
45596,note_on,,,,,56,0,0,,,,,0,,,96,0
45600,note_on,,,,,61,0,1,,,,,0,,,59,80
45600,note_on,,,,,4,0,0,,,,,0,,,92,80
45600,note_on,,,,,0,0,1,,,,,0,,,62,80
45656,note_on,,,,,56,0,0,,,,,0,,,92,0
45659,note_on,,,,,59,0,1,,,,,0,,,59,0
45659,note_on,,,,,0,0,1,,,,,0,,,62,0
45660,note_on,,,,,4,0,0,,,,,0,,,89,80
45716,note_on,,,,,56,0,0,,,,,0,,,89,0
45720,note_on,,,,,0,0,1,,,,,0,,,63,80
45720,note_on,,,,,4,0,0,,,,,0,,,93,80
45720,note_on,,,,,61,0,1,,,,,0,,,60,80
45776,note_on,,,,,56,0,0,,,,,0,,,93,0
45779,note_on,,,,,0,0,1,,,,,0,,,63,0
45779,note_on,,,,,59,0,1,,,,,0,,,60,0
45780,note_on,,,,,4,0,0,,,,,0,,,90,80
45836,note_on,,,,,56,0,0,,,,,0,,,90,0
45840,note_on,,,,,61,0,1,,,,,0,,,56,80
45840,note_on,,,,,0,0,1,,,,,0,,,59,80
45840,note_on,,,,,0,0,1,,,,,0,,,64,80
45840,note_on,,,,,4,0,0,,,,,0,,,100,80
45896,note_on,,,,,56,0,0,,,,,0,,,100,0
45899,note_on,,,,,0,0,1,,,,,0,,,59,0
45899,note_on,,,,,0,0,1,,,,,0,,,64,0
45899,note_on,,,,,59,0,1,,,,,0,,,56,0
45900,note_on,,,,,4,0,0,,,,,0,,,87,80
45956,note_on,,,,,56,0,0,,,,,0,,,87,0
45960,note_on,,,,,4,0,0,,,,,0,,,101,80
45960,note_on,,,,,61,0,1,,,,,0,,,57,80
45960,note_on,,,,,0,0,1,,,,,0,,,60,80
45960,note_on,,,,,0,0,1,,,,,0,,,65,80
46016,note_on,,,,,56,0,0,,,,,0,,,101,0
46019,note_on,,,,,0,0,1,,,,,0,,,65,0
46019,note_on,,,,,59,0,1,,,,,0,,,57,0
46019,note_on,,,,,0,0,1,,,,,0,,,60,0
46020,note_on,,,,,4,0,0,,,,,0,,,87,80
46076,note_on,,,,,56,0,0,,,,,0,,,87,0
46080,note_on,,,,,61,0,1,,,,,0,,,34,96
46080,note_on,,,,,0,0,1,,,,,0,,,46,96
46200,note_on,,,,,0,0,0,,,,,0,,,98,96
46200,note_on,,,,,120,0,1,,,,,0,,,62,115
46200,note_on,,,,,0,0,1,,,,,0,,,50,96
46200,note_on,,,,,124,0,0,,,,,0,,,94,96
46256,note_on,,,,,56,0,0,,,,,0,,,94,0
46256,note_on,,,,,0,0,0,,,,,0,,,98,0
46260,note_on,,,,,4,0,0,,,,,0,,,93,96
46279,note_on,,,,,79,0,1,,,,,0,,,62,0
46313,note_on,,,,,34,0,1,,,,,0,,,50,0
46316,note_on,,,,,56,0,0,,,,,0,,,93,0
46320,note_on,,,,,4,0,0,,,,,0,,,92,96
46320,note_on,,,,,0,0,0,,,,,0,,,98,96
46320,note_on,,,,,0,0,1,,,,,0,,,53,96
46320,note_on,,,,,7,0,1,,,,,0,,,60,115
46376,note_on,,,,,56,0,0,,,,,0,,,92,0
46376,note_on,,,,,0,0,0,,,,,0,,,98,0
46380,note_on,,,,,4,0,0,,,,,0,,,91,96
46399,note_on,,,,,79,0,1,,,,,0,,,60,0
46433,note_on,,,,,34,0,1,,,,,0,,,53,0
46436,note_on,,,,,56,0,0,,,,,0,,,91,0
46440,note_on,,,,,7,0,1,,,,,0,,,58,115
46440,note_on,,,,,0,0,0,,,,,0,,,98,96
46440,note_on,,,,,0,0,1,,,,,0,,,58,0
46440,note_on,,,,,0,0,1,,,,,0,,,58,96
46440,note_on,,,,,4,0,0,,,,,0,,,90,96
46496,note_on,,,,,0,0,0,,,,,0,,,98,0
46496,note_on,,,,,56,0,0,,,,,0,,,90,0
46500,note_on,,,,,4,0,0,,,,,0,,,89,96
46535,note_on,,,,,0,0,1,,,,,0,,,46,0
46535,note_on,,,,,95,0,1,,,,,0,,,34,0
46553,note_on,,,,,18,0,1,,,,,0,,,58,0
46556,note_on,,,,,56,0,0,,,,,0,,,89,0
46560,note_on,,,,,4,0,0,,,,,0,,,94,96
46560,note_on,,,,,0,0,1,,,,,0,,,44,96
46560,note_on,,,,,7,0,1,,,,,0,,,32,96
46560,note_on,,,,,0,0,0,,,,,0,,,98,96
46616,note_on,,,,,0,0,0,,,,,0,,,98,0
46616,note_on,,,,,56,0,0,,,,,0,,,94,0
46620,note_on,,,,,4,0,0,,,,,0,,,88,96
46676,note_on,,,,,56,0,0,,,,,0,,,88,0
46680,note_on,,,,,4,0,0,,,,,0,,,89,96
46680,note_on,,,,,0,0,1,,,,,0,,,50,96
46680,note_on,,,,,0,0,0,,,,,0,,,94,96
46680,note_on,,,,,120,0,1,,,,,0,,,62,115
46736,note_on,,,,,0,0,0,,,,,0,,,94,0
46736,note_on,,,,,56,0,0,,,,,0,,,89,0
46740,note_on,,,,,4,0,0,,,,,0,,,86,96
46759,note_on,,,,,79,0,1,,,,,0,,,62,0
46793,note_on,,,,,34,0,1,,,,,0,,,50,0
46796,note_on,,,,,56,0,0,,,,,0,,,86,0
46800,note_on,,,,,0,0,1,,,,,0,,,53,96
46800,note_on,,,,,0,0,0,,,,,0,,,89,96
46800,note_on,,,,,4,0,0,,,,,0,,,84,96
46800,note_on,,,,,7,0,1,,,,,0,,,60,96
46856,note_on,,,,,56,0,0,,,,,0,,,84,0
46856,note_on,,,,,0,0,0,,,,,0,,,89,0
46856,note_on,,,,,56,0,1,,,,,0,,,60,0
46860,note_on,,,,,4,0,1,,,,,0,,,59,96
46860,note_on,,,,,4,0,0,,,,,0,,,83,96
46913,note_on,,,,,53,0,1,,,,,0,,,53,0
46916,note_on,,,,,3,0,1,,,,,0,,,59,0
46916,note_on,,,,,56,0,0,,,,,0,,,83,0
46920,note_on,,,,,4,0,1,,,,,0,,,58,115
46920,note_on,,,,,0,0,1,,,,,0,,,58,0
46920,note_on,,,,,0,0,1,,,,,0,,,58,96
46920,note_on,,,,,0,0,0,,,,,0,,,86,96
46920,note_on,,,,,4,0,0,,,,,0,,,82,96
46976,note_on,,,,,0,0,0,,,,,0,,,86,0
46976,note_on,,,,,56,0,0,,,,,0,,,82,0
46980,note_on,,,,,4,0,0,,,,,0,,,81,96
47015,note_on,,,,,0,0,1,,,,,0,,,44,0
47015,note_on,,,,,95,0,1,,,,,0,,,32,0
47033,note_on,,,,,18,0,1,,,,,0,,,58,0
47036,note_on,,,,,56,0,0,,,,,0,,,81,0
47040,note_on,,,,,0,0,0,,,,,0,,,89,96
47040,note_on,,,,,4,0,0,,,,,0,,,82,96
47040,note_on,,,,,0,0,1,,,,,0,,,42,96
47040,note_on,,,,,7,0,1,,,,,0,,,30,96
47096,note_on,,,,,0,0,0,,,,,0,,,89,0
47096,note_on,,,,,56,0,0,,,,,0,,,82,0
47100,note_on,,,,,4,0,0,,,,,0,,,81,96
47156,note_on,,,,,56,0,0,,,,,0,,,81,0
47160,note_on,,,,,120,0,1,,,,,0,,,62,115
47160,note_on,,,,,4,0,0,,,,,0,,,82,96
47160,note_on,,,,,0,0,1,,,,,0,,,50,96
47160,note_on,,,,,0,0,0,,,,,0,,,86,96
47216,note_on,,,,,0,0,0,,,,,0,,,86,0
47216,note_on,,,,,56,0,0,,,,,0,,,82,0
47220,note_on,,,,,4,0,0,,,,,0,,,81,96
47239,note_on,,,,,79,0,1,,,,,0,,,62,0
47273,note_on,,,,,34,0,1,,,,,0,,,50,0
47276,note_on,,,,,56,0,0,,,,,0,,,81,0
47280,note_on,,,,,7,0,1,,,,,0,,,60,115
47280,note_on,,,,,0,0,0,,,,,0,,,86,96
47280,note_on,,,,,0,0,1,,,,,0,,,54,96
47280,note_on,,,,,4,0,0,,,,,0,,,80,96
47336,note_on,,,,,56,0,0,,,,,0,,,80,0
47336,note_on,,,,,0,0,0,,,,,0,,,86,0
47340,note_on,,,,,4,0,0,,,,,0,,,79,96
47359,note_on,,,,,79,0,1,,,,,0,,,60,0
47393,note_on,,,,,34,0,1,,,,,0,,,54,0
47396,note_on,,,,,56,0,0,,,,,0,,,79,0
47400,note_on,,,,,0,0,1,,,,,0,,,58,96
47400,note_on,,,,,0,0,1,,,,,0,,,58,0
47400,note_on,,,,,4,0,0,,,,,0,,,78,96
47400,note_on,,,,,0,0,0,,,,,0,,,82,96
47400,note_on,,,,,7,0,1,,,,,0,,,58,115
47456,note_on,,,,,56,0,0,,,,,0,,,78,0
47456,note_on,,,,,0,0,0,,,,,0,,,82,0
47460,note_on,,,,,4,0,0,,,,,0,,,77,96
47495,note_on,,,,,95,0,1,,,,,0,,,30,0
47495,note_on,,,,,0,0,1,,,,,0,,,42,0
47513,note_on,,,,,18,0,1,,,,,0,,,58,0
47516,note_on,,,,,56,0,0,,,,,0,,,77,0
47520,note_on,,,,,0,0,1,,,,,0,,,41,96
47520,note_on,,,,,0,0,0,,,,,0,,,86,96
47520,note_on,,,,,4,0,0,,,,,0,,,82,96
47520,note_on,,,,,7,0,1,,,,,0,,,29,96
47576,note_on,,,,,0,0,0,,,,,0,,,86,0
47576,note_on,,,,,56,0,0,,,,,0,,,82,0
47580,note_on,,,,,4,0,0,,,,,0,,,76,96
47636,note_on,,,,,56,0,0,,,,,0,,,76,0
47640,note_on,,,,,0,0,0,,,,,0,,,82,96
47640,note_on,,,,,4,0,0,,,,,0,,,77,96
47640,note_on,,,,,0,0,1,,,,,0,,,50,96
47640,note_on,,,,,120,0,1,,,,,0,,,62,115
47696,note_on,,,,,56,0,0,,,,,0,,,77,0
47696,note_on,,,,,0,0,0,,,,,0,,,82,0
47700,note_on,,,,,4,0,0,,,,,0,,,74,96
47719,note_on,,,,,79,0,1,,,,,0,,,62,0
47753,note_on,,,,,34,0,1,,,,,0,,,50,0
47756,note_on,,,,,56,0,0,,,,,0,,,74,0
47760,note_on,,,,,0,0,0,,,,,0,,,77,96
47760,note_on,,,,,4,0,0,,,,,0,,,72,96
47760,note_on,,,,,7,0,1,,,,,0,,,60,96
47760,note_on,,,,,0,0,1,,,,,0,,,56,96
47816,note_on,,,,,0,0,0,,,,,0,,,77,0
47816,note_on,,,,,56,0,1,,,,,0,,,60,0
47816,note_on,,,,,56,0,0,,,,,0,,,72,0
47820,note_on,,,,,4,0,0,,,,,0,,,71,96
47820,note_on,,,,,4,0,1,,,,,0,,,59,96
47873,note_on,,,,,53,0,1,,,,,0,,,56,0
47876,note_on,,,,,56,0,0,,,,,0,,,71,0
47876,note_on,,,,,3,0,1,,,,,0,,,59,0
47880,note_on,,,,,4,0,0,,,,,0,,,70,96
47880,note_on,,,,,4,0,1,,,,,0,,,58,115
47880,note_on,,,,,0,0,0,,,,,0,,,74,96
47880,note_on,,,,,0,0,1,,,,,0,,,58,96
47880,note_on,,,,,0,0,1,,,,,0,,,58,0
47936,note_on,,,,,56,0,0,,,,,0,,,70,0
47936,note_on,,,,,0,0,0,,,,,0,,,74,0
47940,note_on,,,,,4,0,0,,,,,0,,,68,96
47975,note_on,,,,,95,0,1,,,,,0,,,29,0
47975,note_on,,,,,0,0,1,,,,,0,,,41,0
47993,note_on,,,,,18,0,1,,,,,0,,,58,0
47996,note_on,,,,,56,0,0,,,,,0,,,68,0
48000,note_on,,,,,0,0,0,,,,,0,,,70,96
48000,note_on,,,,,0,0,0,,,,,0,,,78,96
48000,note_on,,,,,7,0,1,,,,,0,,,39,96
48000,note_on,,,,,4,0,0,,,,,0,,,66,96
48000,note_on,,,,,0,0,1,,,,,0,,,51,96
48038,note_on,,,,,0,0,0,,,,,0,,,70,0
48038,note_on,,,,,0,0,0,,,,,0,,,78,0
48038,note_on,,,,,38,0,0,,,,,0,,,66,0
48120,note_on,,,,,0,0,1,,,,,0,,,54,96
48120,note_on,,,,,0,0,0,,,,,0,,,90,96
48120,note_on,,,,,120,0,1,,,,,0,,,66,115
48120,note_on,,,,,82,0,0,,,,,0,,,87,96
48176,note_on,,,,,0,0,0,,,,,0,,,90,0
48176,note_on,,,,,56,0,0,,,,,0,,,87,0
48180,note_on,,,,,4,0,0,,,,,0,,,86,96
48199,note_on,,,,,79,0,1,,,,,0,,,66,0
48233,note_on,,,,,34,0,1,,,,,0,,,54,0
48236,note_on,,,,,56,0,0,,,,,0,,,86,0
48240,note_on,,,,,4,0,0,,,,,0,,,85,96
48240,note_on,,,,,0,0,1,,,,,0,,,58,96
48240,note_on,,,,,0,0,0,,,,,0,,,90,96
48240,note_on,,,,,7,0,1,,,,,0,,,65,115
48296,note_on,,,,,56,0,0,,,,,0,,,85,0
48296,note_on,,,,,0,0,0,,,,,0,,,90,0
48300,note_on,,,,,4,0,0,,,,,0,,,84,96
48319,note_on,,,,,79,0,1,,,,,0,,,65,0
48353,note_on,,,,,34,0,1,,,,,0,,,58,0
48356,note_on,,,,,56,0,0,,,,,0,,,84,0
48360,note_on,,,,,4,0,0,,,,,0,,,87,96
48360,note_on,,,,,7,0,1,,,,,0,,,63,115
48360,note_on,,,,,0,0,0,,,,,0,,,90,96
48360,note_on,,,,,0,0,1,,,,,0,,,63,96
48360,note_on,,,,,0,0,1,,,,,0,,,63,0
48416,note_on,,,,,56,0,0,,,,,0,,,87,0
48416,note_on,,,,,0,0,0,,,,,0,,,90,0
48420,note_on,,,,,4,0,0,,,,,0,,,83,96
48455,note_on,,,,,95,0,1,,,,,0,,,39,0
48455,note_on,,,,,0,0,1,,,,,0,,,51,0
48473,note_on,,,,,18,0,1,,,,,0,,,63,0
48476,note_on,,,,,56,0,0,,,,,0,,,83,0
48480,note_on,,,,,4,0,0,,,,,0,,,82,96
48480,note_on,,,,,0,0,0,,,,,0,,,90,96
48480,note_on,,,,,0,0,1,,,,,0,,,49,96
48480,note_on,,,,,7,0,1,,,,,0,,,37,96
48536,note_on,,,,,0,0,0,,,,,0,,,90,0
48536,note_on,,,,,56,0,0,,,,,0,,,82,0
48540,note_on,,,,,4,0,0,,,,,0,,,81,96
48596,note_on,,,,,56,0,0,,,,,0,,,81,0
48600,note_on,,,,,0,0,0,,,,,0,,,87,96
48600,note_on,,,,,4,0,0,,,,,0,,,80,96
48600,note_on,,,,,120,0,1,,,,,0,,,66,115
48600,note_on,,,,,0,0,1,,,,,0,,,54,96
48656,note_on,,,,,56,0,0,,,,,0,,,80,0
48656,note_on,,,,,0,0,0,,,,,0,,,87,0
48660,note_on,,,,,4,0,0,,,,,0,,,79,96
48679,note_on,,,,,79,0,1,,,,,0,,,66,0
48713,note_on,,,,,34,0,1,,,,,0,,,54,0
48716,note_on,,,,,56,0,0,,,,,0,,,79,0
48720,note_on,,,,,0,0,0,,,,,0,,,87,96
48720,note_on,,,,,0,0,1,,,,,0,,,58,96
48720,note_on,,,,,7,0,1,,,,,0,,,65,96
48720,note_on,,,,,4,0,0,,,,,0,,,78,96
48776,note_on,,,,,56,0,0,,,,,0,,,78,0
48776,note_on,,,,,56,0,1,,,,,0,,,65,0
48776,note_on,,,,,0,0,0,,,,,0,,,87,0
48780,note_on,,,,,4,0,0,,,,,0,,,77,96
48780,note_on,,,,,4,0,1,,,,,0,,,64,96
48833,note_on,,,,,53,0,1,,,,,0,,,58,0
48836,note_on,,,,,3,0,1,,,,,0,,,64,0
48836,note_on,,,,,56,0,0,,,,,0,,,77,0
48840,note_on,,,,,0,0,1,,,,,0,,,63,96
48840,note_on,,,,,0,0,1,,,,,0,,,63,0
48840,note_on,,,,,4,0,0,,,,,0,,,78,96
48840,note_on,,,,,0,0,0,,,,,0,,,82,96
48840,note_on,,,,,4,0,1,,,,,0,,,63,115
48896,note_on,,,,,0,0,0,,,,,0,,,82,0
48896,note_on,,,,,56,0,0,,,,,0,,,78,0
48900,note_on,,,,,4,0,0,,,,,0,,,76,96
48935,note_on,,,,,0,0,1,,,,,0,,,49,0
48935,note_on,,,,,95,0,1,,,,,0,,,37,0
48953,note_on,,,,,18,0,1,,,,,0,,,63,0
48956,note_on,,,,,56,0,0,,,,,0,,,76,0
48960,note_on,,,,,0,0,0,,,,,0,,,87,96
48960,note_on,,,,,0,0,1,,,,,0,,,47,96
48960,note_on,,,,,7,0,1,,,,,0,,,35,96
48960,note_on,,,,,4,0,0,,,,,0,,,78,96
49016,note_on,,,,,0,0,0,,,,,0,,,87,0
49016,note_on,,,,,56,0,0,,,,,0,,,78,0
49020,note_on,,,,,4,0,0,,,,,0,,,75,96
49076,note_on,,,,,56,0,0,,,,,0,,,75,0
49080,note_on,,,,,4,0,0,,,,,0,,,75,96
49080,note_on,,,,,120,0,1,,,,,0,,,66,115
49080,note_on,,,,,0,0,1,,,,,0,,,54,96
49080,note_on,,,,,0,0,0,,,,,0,,,82,96
49136,note_on,,,,,0,0,0,,,,,0,,,82,0
49136,note_on,,,,,56,0,0,,,,,0,,,75,0
49140,note_on,,,,,4,0,0,,,,,0,,,74,96
49159,note_on,,,,,79,0,1,,,,,0,,,66,0
49193,note_on,,,,,34,0,1,,,,,0,,,54,0
49196,note_on,,,,,56,0,0,,,,,0,,,74,0
49200,note_on,,,,,7,0,1,,,,,0,,,65,115
49200,note_on,,,,,0,0,1,,,,,0,,,59,96
49200,note_on,,,,,4,0,0,,,,,0,,,73,96
49200,note_on,,,,,0,0,0,,,,,0,,,78,96
49256,note_on,,,,,56,0,0,,,,,0,,,73,0
49256,note_on,,,,,0,0,0,,,,,0,,,78,0
49260,note_on,,,,,4,0,0,,,,,0,,,72,96
49279,note_on,,,,,79,0,1,,,,,0,,,65,0
49313,note_on,,,,,34,0,1,,,,,0,,,59,0
49316,note_on,,,,,56,0,0,,,,,0,,,72,0
49320,note_on,,,,,4,0,0,,,,,0,,,75,96
49320,note_on,,,,,0,0,1,,,,,0,,,66,96
49320,note_on,,,,,7,0,1,,,,,0,,,66,115
49320,note_on,,,,,0,0,0,,,,,0,,,78,96
49320,note_on,,,,,0,0,1,,,,,0,,,66,0
49376,note_on,,,,,56,0,0,,,,,0,,,75,0
49376,note_on,,,,,0,0,0,,,,,0,,,78,0
49380,note_on,,,,,4,0,0,,,,,0,,,71,96
49415,note_on,,,,,0,0,1,,,,,0,,,47,0
49415,note_on,,,,,95,0,1,,,,,0,,,35,0
49433,note_on,,,,,18,0,1,,,,,0,,,66,0
49436,note_on,,,,,56,0,0,,,,,0,,,71,0
49440,note_on,,,,,0,0,1,,,,,0,,,46,96
49440,note_on,,,,,4,0,0,,,,,0,,,75,96
49440,note_on,,,,,0,0,0,,,,,0,,,78,96
49440,note_on,,,,,7,0,1,,,,,0,,,34,96
49496,note_on,,,,,56,0,0,,,,,0,,,75,0
49496,note_on,,,,,0,0,0,,,,,0,,,78,0
49500,note_on,,,,,4,0,0,,,,,0,,,70,96
49556,note_on,,,,,56,0,0,,,,,0,,,70,0
49560,note_on,,,,,0,0,1,,,,,0,,,54,96
49560,note_on,,,,,120,0,1,,,,,0,,,66,115
49560,note_on,,,,,0,0,0,,,,,0,,,78,96
49560,note_on,,,,,4,0,0,,,,,0,,,75,96
49616,note_on,,,,,56,0,0,,,,,0,,,75,0
49616,note_on,,,,,0,0,0,,,,,0,,,78,0
49620,note_on,,,,,4,0,0,,,,,0,,,69,96
49639,note_on,,,,,79,0,1,,,,,0,,,66,0
49673,note_on,,,,,34,0,1,,,,,0,,,54,0
49676,note_on,,,,,56,0,0,,,,,0,,,69,0
49680,note_on,,,,,0,0,1,,,,,0,,,58,96
49680,note_on,,,,,7,0,1,,,,,0,,,65,96
49680,note_on,,,,,0,0,0,,,,,0,,,75,96
49680,note_on,,,,,4,0,0,,,,,0,,,68,96
49736,note_on,,,,,56,0,0,,,,,0,,,68,0
49736,note_on,,,,,0,0,0,,,,,0,,,75,0
49736,note_on,,,,,56,0,1,,,,,0,,,65,0
49740,note_on,,,,,4,0,1,,,,,0,,,64,96
49740,note_on,,,,,4,0,0,,,,,0,,,67,96
49793,note_on,,,,,53,0,1,,,,,0,,,58,0
49796,note_on,,,,,3,0,1,,,,,0,,,64,0
49796,note_on,,,,,56,0,0,,,,,0,,,67,0
49800,note_on,,,,,0,0,1,,,,,0,,,63,96
49800,note_on,,,,,4,0,0,,,,,0,,,66,96
49800,note_on,,,,,4,0,1,,,,,0,,,63,115
49800,note_on,,,,,0,0,1,,,,,0,,,63,0
49800,note_on,,,,,0,0,0,,,,,0,,,70,96
49856,note_on,,,,,56,0,0,,,,,0,,,66,0
49856,note_on,,,,,0,0,0,,,,,0,,,70,0
49860,note_on,,,,,60,0,1,,,,,0,,,63,0
49860,note_on,,,,,4,0,0,,,,,0,,,63,96
49895,note_on,,,,,0,0,1,,,,,0,,,46,0
49895,note_on,,,,,35,0,1,,,,,0,,,34,0
49916,note_on,,,,,56,0,0,,,,,0,,,63,0
49920,note_on,,,,,0,0,1,,,,,0,,,32,70
49920,note_on,,,,,25,0,1,,,,,0,,,44,70
49976,note_on,,,,,56,0,1,,,,,0,,,44,0
49980,note_on,,,,,4,0,1,,,,,0,,,45,70
50036,note_on,,,,,56,0,1,,,,,0,,,45,0
50040,note_on,,,,,4,0,1,,,,,0,,,44,70
50040,note_on,,,,,0,0,0,,,,,0,,,95,70
50040,note_on,,,,,124,0,0,,,,,0,,,87,70
50096,note_on,,,,,56,0,1,,,,,0,,,44,0
50099,note_on,,,,,0,0,0,,,,,0,,,95,0
50099,note_on,,,,,59,0,0,,,,,0,,,87,0
50100,note_on,,,,,0,0,0,,,,,0,,,90,70
50100,note_on,,,,,1,0,0,,,,,0,,,83,70
50100,note_on,,,,,4,0,1,,,,,0,,,46,70
50129,note_on,,,,,29,0,0,,,,,0,,,83,0
50129,note_on,,,,,0,0,0,,,,,0,,,90,0
50147,note_on,,,,,47,0,1,,,,,0,,,32,0
50156,note_on,,,,,9,0,1,,,,,0,,,46,0
50160,note_on,,,,,4,0,1,,,,,0,,,47,70
50216,note_on,,,,,56,0,1,,,,,0,,,47,0
50220,note_on,,,,,4,0,1,,,,,0,,,48,70
50276,note_on,,,,,56,0,1,,,,,0,,,48,0
50280,note_on,,,,,151,0,0,,,,,0,,,78,70
50280,note_on,,,,,0,0,0,,,,,0,,,87,70
50280,note_on,,,,,4,0,1,,,,,0,,,47,70
50336,note_on,,,,,56,0,1,,,,,0,,,47,0
50339,note_on,,,,,59,0,0,,,,,0,,,78,0
50339,note_on,,,,,0,0,0,,,,,0,,,87,0
50340,note_on,,,,,0,0,0,,,,,0,,,83,70
50340,note_on,,,,,4,0,1,,,,,0,,,48,70
50340,note_on,,,,,1,0,0,,,,,0,,,75,70
50369,note_on,,,,,0,0,0,,,,,0,,,83,0
50369,note_on,,,,,29,0,0,,,,,0,,,75,0
50396,note_on,,,,,56,0,1,,,,,0,,,48,0
50400,note_on,,,,,0,0,1,,,,,0,,,37,70
50400,note_on,,,,,4,0,1,,,,,0,,,49,70
50456,note_on,,,,,56,0,1,,,,,0,,,49,0
50460,note_on,,,,,4,0,1,,,,,0,,,50,70
50516,note_on,,,,,56,0,1,,,,,0,,,50,0
50520,note_on,,,,,0,0,0,,,,,0,,,80,70
50520,note_on,,,,,4,0,1,,,,,0,,,49,70
50520,note_on,,,,,151,0,0,,,,,0,,,71,70
50576,note_on,,,,,56,0,1,,,,,0,,,49,0
50579,note_on,,,,,0,0,0,,,,,0,,,80,0
50579,note_on,,,,,59,0,0,,,,,0,,,71,0
50580,note_on,,,,,4,0,1,,,,,0,,,51,70
50580,note_on,,,,,0,0,0,,,,,0,,,75,70
50580,note_on,,,,,1,0,0,,,,,0,,,68,70
50609,note_on,,,,,0,0,0,,,,,0,,,75,0
50609,note_on,,,,,29,0,0,,,,,0,,,68,0
50627,note_on,,,,,47,0,1,,,,,0,,,37,0
50636,note_on,,,,,9,0,1,,,,,0,,,51,0
50640,note_on,,,,,4,0,1,,,,,0,,,52,70
50696,note_on,,,,,56,0,1,,,,,0,,,52,0
50700,note_on,,,,,4,0,1,,,,,0,,,53,70
50756,note_on,,,,,56,0,1,,,,,0,,,53,0
50760,note_on,,,,,151,0,0,,,,,0,,,83,70
50760,note_on,,,,,4,0,1,,,,,0,,,52,70
50787,note_on,,,,,27,0,0,,,,,0,,,92,70
50815,note_on,,,,,28,0,0,,,,,0,,,97,70
50816,note_on,,,,,56,0,1,,,,,0,,,52,0
50820,note_on,,,,,4,0,1,,,,,0,,,53,70
50876,note_on,,,,,56,0,1,,,,,0,,,53,0
50878,note_on,,,,,63,0,0,,,,,0,,,92,0
50878,note_on,,,,,0,0,0,,,,,0,,,97,0
50879,note_on,,,,,1,0,0,,,,,0,,,83,0
50880,note_on,,,,,4,0,1,,,,,0,,,54,70
50880,note_on,,,,,0,0,1,,,,,0,,,42,70
50936,note_on,,,,,56,0,1,,,,,0,,,54,0
50940,note_on,,,,,4,0,1,,,,,0,,,55,70
50996,note_on,,,,,56,0,1,,,,,0,,,55,0
51000,note_on,,,,,4,0,1,,,,,0,,,54,70
51000,note_on,,,,,121,0,0,,,,,0,,,85,70
51000,note_on,,,,,0,0,0,,,,,0,,,94,70
51056,note_on,,,,,56,0,1,,,,,0,,,54,0
51059,note_on,,,,,0,0,0,,,,,0,,,94,0
51059,note_on,,,,,59,0,0,,,,,0,,,85,0
51060,note_on,,,,,0,0,0,,,,,0,,,89,70
51060,note_on,,,,,1,0,0,,,,,0,,,82,70
51060,note_on,,,,,4,0,1,,,,,0,,,56,70
51089,note_on,,,,,29,0,0,,,,,0,,,82,0
51089,note_on,,,,,0,0,0,,,,,0,,,89,0
51107,note_on,,,,,47,0,1,,,,,0,,,42,0
51116,note_on,,,,,9,0,1,,,,,0,,,56,0
51120,note_on,,,,,4,0,1,,,,,0,,,57,70
51176,note_on,,,,,56,0,1,,,,,0,,,57,0
51180,note_on,,,,,4,0,1,,,,,0,,,58,70
51236,note_on,,,,,56,0,1,,,,,0,,,58,0
51240,note_on,,,,,4,0,1,,,,,0,,,57,70
51240,note_on,,,,,151,0,0,,,,,0,,,77,70
51240,note_on,,,,,0,0,0,,,,,0,,,85,70
51296,note_on,,,,,56,0,1,,,,,0,,,57,0
51299,note_on,,,,,59,0,0,,,,,0,,,77,0
51299,note_on,,,,,0,0,0,,,,,0,,,85,0
51300,note_on,,,,,4,0,1,,,,,0,,,58,70
51300,note_on,,,,,1,0,0,,,,,0,,,73,70
51300,note_on,,,,,0,0,0,,,,,0,,,82,70
51329,note_on,,,,,29,0,0,,,,,0,,,73,0
51329,note_on,,,,,0,0,0,,,,,0,,,82,0
51356,note_on,,,,,56,0,1,,,,,0,,,58,0
51360,note_on,,,,,4,0,1,,,,,0,,,59,70
51360,note_on,,,,,0,0,1,,,,,0,,,47,70
51416,note_on,,,,,56,0,1,,,,,0,,,59,0
51420,note_on,,,,,4,0,1,,,,,0,,,60,70
51476,note_on,,,,,56,0,1,,,,,0,,,60,0
51480,note_on,,,,,151,0,0,,,,,0,,,70,70
51480,note_on,,,,,0,0,0,,,,,0,,,78,70
51480,note_on,,,,,4,0,1,,,,,0,,,59,70
51536,note_on,,,,,56,0,1,,,,,0,,,59,0
51539,note_on,,,,,0,0,0,,,,,0,,,78,0
51539,note_on,,,,,59,0,0,,,,,0,,,70,0
51540,note_on,,,,,4,0,1,,,,,0,,,61,70
51540,note_on,,,,,0,0,0,,,,,0,,,75,70
51540,note_on,,,,,1,0,0,,,,,0,,,66,70
51569,note_on,,,,,29,0,0,,,,,0,,,66,0
51569,note_on,,,,,0,0,0,,,,,0,,,75,0
51587,note_on,,,,,47,0,1,,,,,0,,,47,0
51596,note_on,,,,,9,0,1,,,,,0,,,61,0
51600,note_on,,,,,4,0,1,,,,,0,,,62,70
51656,note_on,,,,,56,0,1,,,,,0,,,62,0
51660,note_on,,,,,4,0,1,,,,,0,,,63,70
51716,note_on,,,,,56,0,1,,,,,0,,,63,0
51720,note_on,,,,,151,0,0,,,,,0,,,82,70
51720,note_on,,,,,4,0,1,,,,,0,,,62,70
51747,note_on,,,,,27,0,0,,,,,0,,,90,70
51775,note_on,,,,,28,0,0,,,,,0,,,95,70
51776,note_on,,,,,56,0,1,,,,,0,,,62,0
51780,note_on,,,,,4,0,1,,,,,0,,,63,70
51836,note_on,,,,,56,0,1,,,,,0,,,63,0
51838,note_on,,,,,0,0,0,,,,,0,,,95,0
51838,note_on,,,,,63,0,0,,,,,0,,,90,0
51839,note_on,,,,,1,0,0,,,,,0,,,82,0
51840,note_on,,,,,0,0,1,,,,,0,,,53,70
51840,note_on,,,,,4,0,1,,,,,0,,,65,70
51896,note_on,,,,,56,0,1,,,,,0,,,65,0
51900,note_on,,,,,4,0,1,,,,,0,,,66,70
51956,note_on,,,,,56,0,1,,,,,0,,,66,0
51960,note_on,,,,,121,0,0,,,,,0,,,83,70
51960,note_on,,,,,4,0,1,,,,,0,,,65,70
51960,note_on,,,,,0,0,0,,,,,0,,,92,70
52016,note_on,,,,,56,0,1,,,,,0,,,65,0
52019,note_on,,,,,59,0,0,,,,,0,,,83,0
52019,note_on,,,,,0,0,0,,,,,0,,,92,0
52020,note_on,,,,,0,0,0,,,,,0,,,87,70
52020,note_on,,,,,1,0,0,,,,,0,,,80,70
52020,note_on,,,,,4,0,1,,,,,0,,,67,70
52049,note_on,,,,,0,0,0,,,,,0,,,87,0
52049,note_on,,,,,29,0,0,,,,,0,,,80,0
52067,note_on,,,,,47,0,1,,,,,0,,,53,0
52076,note_on,,,,,9,0,1,,,,,0,,,67,0
52080,note_on,,,,,4,0,1,,,,,0,,,68,70
52136,note_on,,,,,56,0,1,,,,,0,,,68,0
52140,note_on,,,,,4,0,1,,,,,0,,,69,70
52196,note_on,,,,,56,0,1,,,,,0,,,69,0
52200,note_on,,,,,151,0,0,,,,,0,,,80,70
52200,note_on,,,,,0,0,0,,,,,0,,,87,70
52200,note_on,,,,,4,0,1,,,,,0,,,68,70
52256,note_on,,,,,56,0,1,,,,,0,,,68,0
52259,note_on,,,,,59,0,0,,,,,0,,,80,0
52259,note_on,,,,,0,0,0,,,,,0,,,87,0
52260,note_on,,,,,4,0,1,,,,,0,,,69,70
52260,note_on,,,,,1,0,0,,,,,0,,,77,70
52260,note_on,,,,,0,0,0,,,,,0,,,83,70
52289,note_on,,,,,29,0,0,,,,,0,,,77,0
52289,note_on,,,,,0,0,0,,,,,0,,,83,0
52316,note_on,,,,,56,0,1,,,,,0,,,69,0
52320,note_on,,,,,0,0,1,,,,,0,,,58,70
52320,note_on,,,,,4,0,1,,,,,0,,,70,70
52376,note_on,,,,,56,0,1,,,,,0,,,70,0
52380,note_on,,,,,4,0,1,,,,,0,,,71,70
52436,note_on,,,,,56,0,1,,,,,0,,,71,0
52440,note_on,,,,,0,0,0,,,,,0,,,80,70
52440,note_on,,,,,0,0,0,,,,,0,,,80,70
52440,note_on,,,,,4,0,1,,,,,0,,,70,70
52440,note_on,,,,,0,0,0,,,,,0,,,80,0
52440,note_on,,,,,151,0,0,,,,,0,,,74,70
52496,note_on,,,,,56,0,1,,,,,0,,,70,0
52499,note_on,,,,,59,0,0,,,,,0,,,74,0
52500,note_on,,,,,4,0,1,,,,,0,,,73,70
52500,note_on,,,,,1,0,0,,,,,0,,,76,70
52547,note_on,,,,,47,0,1,,,,,0,,,58,0
52556,note_on,,,,,9,0,1,,,,,0,,,73,0
52559,note_on,,,,,59,0,0,,,,,0,,,80,0
52559,note_on,,,,,0,0,0,,,,,0,,,76,0
52560,note_on,,,,,4,0,1,,,,,0,,,74,70
52560,note_on,,,,,1,0,0,,,,,0,,,77,70
52616,note_on,,,,,56,0,1,,,,,0,,,74,0
52619,note_on,,,,,59,0,0,,,,,0,,,77,0
52620,note_on,,,,,4,0,1,,,,,0,,,73,70
52676,note_on,,,,,56,0,1,,,,,0,,,73,0
52680,note_on,,,,,4,0,1,,,,,0,,,74,70
52680,note_on,,,,,61,0,0,,,,,0,,,80,70
52680,note_on,,,,,0,0,0,,,,,0,,,94,70
52736,note_on,,,,,56,0,1,,,,,0,,,74,0
52740,note_on,,,,,4,0,1,,,,,0,,,70,70
52793,note_on,,,,,113,0,0,,,,,0,,,80,0
52793,note_on,,,,,0,0,0,,,,,0,,,94,0
52796,note_on,,,,,56,0,1,,,,,0,,,70,0
52800,note_on,,,,,4,0,1,,,,,0,,,75,70
52800,note_on,,,,,0,0,1,,,,,0,,,63,70
52856,note_on,,,,,56,0,1,,,,,0,,,75,0
52860,note_on,,,,,4,0,1,,,,,0,,,74,70
52916,note_on,,,,,56,0,1,,,,,0,,,74,0
52920,note_on,,,,,4,0,1,,,,,0,,,73,70
52920,note_on,,,,,0,0,0,,,,,0,,,90,70
52920,note_on,,,,,127,0,0,,,,,0,,,82,70
52976,note_on,,,,,56,0,1,,,,,0,,,73,0
52979,note_on,,,,,0,0,0,,,,,0,,,90,0
52979,note_on,,,,,59,0,0,,,,,0,,,82,0
52980,note_on,,,,,1,0,0,,,,,0,,,78,70
52980,note_on,,,,,4,0,1,,,,,0,,,72,70
52980,note_on,,,,,0,0,0,,,,,0,,,87,70
53009,note_on,,,,,0,0,0,,,,,0,,,87,0
53009,note_on,,,,,29,0,0,,,,,0,,,78,0
53027,note_on,,,,,47,0,1,,,,,0,,,63,0
53036,note_on,,,,,9,0,1,,,,,0,,,72,0
53040,note_on,,,,,4,0,1,,,,,0,,,71,70
53096,note_on,,,,,56,0,1,,,,,0,,,71,0
53100,note_on,,,,,4,0,1,,,,,0,,,70,70
53156,note_on,,,,,56,0,1,,,,,0,,,70,0
53160,note_on,,,,,0,0,0,,,,,0,,,82,70
53160,note_on,,,,,151,0,0,,,,,0,,,75,70
53160,note_on,,,,,4,0,1,,,,,0,,,66,70
53216,note_on,,,,,56,0,1,,,,,0,,,66,0
53219,note_on,,,,,59,0,0,,,,,0,,,75,0
53219,note_on,,,,,0,0,0,,,,,0,,,82,0
53220,note_on,,,,,1,0,0,,,,,0,,,78,70
53220,note_on,,,,,4,0,1,,,,,0,,,63,70
53220,note_on,,,,,0,0,0,,,,,0,,,87,70
53249,note_on,,,,,29,0,0,,,,,0,,,78,0
53249,note_on,,,,,0,0,0,,,,,0,,,87,0
53276,note_on,,,,,56,0,1,,,,,0,,,63,0
53280,note_on,,,,,4,0,1,,,,,0,,,69,70
53280,note_on,,,,,0,0,1,,,,,0,,,59,70
53280,note_on,,,,,0,0,0,,,,,0,,,90,70
53280,note_on,,,,,31,0,0,,,,,0,,,78,84
53336,note_on,,,,,56,0,0,,,,,0,,,90,0
53336,note_on,,,,,56,0,1,,,,,0,,,69,0
53340,note_on,,,,,4,0,1,,,,,0,,,68,71
53340,note_on,,,,,4,0,0,,,,,0,,,89,71
53396,note_on,,,,,56,0,0,,,,,0,,,89,0
53396,note_on,,,,,56,0,1,,,,,0,,,68,0
53400,note_on,,,,,4,0,1,,,,,0,,,67,73
53400,note_on,,,,,4,0,0,,,,,0,,,88,73
53456,note_on,,,,,56,0,1,,,,,0,,,67,0
53456,note_on,,,,,56,0,0,,,,,0,,,88,0
53460,note_on,,,,,4,0,0,,,,,0,,,87,75
53460,note_on,,,,,4,0,1,,,,,0,,,66,75
53507,note_on,,,,,47,0,1,,,,,0,,,59,0
53516,note_on,,,,,9,0,1,,,,,0,,,66,0
53516,note_on,,,,,56,0,0,,,,,0,,,87,0
53519,note_on,,,,,3,0,0,,,,,0,,,78,0
53520,note_on,,,,,1,0,0,,,,,0,,,81,92
53520,note_on,,,,,0,0,1,,,,,0,,,60,77
53520,note_on,,,,,4,0,1,,,,,0,,,65,77
53520,note_on,,,,,0,0,0,,,,,0,,,93,77
53576,note_on,,,,,56,0,1,,,,,0,,,65,0
53576,note_on,,,,,56,0,0,,,,,0,,,93,0
53580,note_on,,,,,4,0,0,,,,,0,,,92,79
53580,note_on,,,,,4,0,1,,,,,0,,,64,79
53636,note_on,,,,,56,0,0,,,,,0,,,92,0
53636,note_on,,,,,56,0,1,,,,,0,,,64,0
53640,note_on,,,,,4,0,0,,,,,0,,,91,81
53640,note_on,,,,,4,0,1,,,,,0,,,63,81
53696,note_on,,,,,56,0,1,,,,,0,,,63,0
53696,note_on,,,,,56,0,0,,,,,0,,,91,0
53700,note_on,,,,,4,0,1,,,,,0,,,62,83
53700,note_on,,,,,4,0,0,,,,,0,,,90,83
53747,note_on,,,,,47,0,1,,,,,0,,,60,0
53756,note_on,,,,,56,0,0,,,,,0,,,90,0
53756,note_on,,,,,9,0,1,,,,,0,,,62,0
53759,note_on,,,,,3,0,0,,,,,0,,,81,0
53760,note_on,,,,,0,0,1,,,,,0,,,61,85
53760,note_on,,,,,1,0,0,,,,,0,,,85,85
53760,note_on,,,,,4,0,1,,,,,0,,,49,85
53760,note_on,,,,,0,0,0,,,,,0,,,97,85
53873,note_on,,,,,0,0,1,,,,,0,,,61,0
53873,note_on,,,,,113,0,1,,,,,0,,,49,0
53873,note_on,,,,,0,0,0,,,,,0,,,97,0
53873,note_on,,,,,113,0,0,,,,,0,,,85,0
54000,note_on,,,,,0,0,0,,,,,0,,,77,80
54000,note_on,,,,,127,0,0,,,,,0,,,86,80
54000,note_on,,,,,127,0,1,,,,,0,,,71,80
54000,note_on,,,,,0,0,0,,,,,0,,,80,80
54056,note_on,,,,,56,0,0,,,,,0,,,86,0
54056,note_on,,,,,56,0,1,,,,,0,,,71,0
54060,note_on,,,,,4,0,0,,,,,0,,,83,80
54060,note_on,,,,,4,0,1,,,,,0,,,74,80
54116,note_on,,,,,56,0,1,,,,,0,,,74,0
54116,note_on,,,,,56,0,0,,,,,0,,,83,0
54120,note_on,,,,,4,0,1,,,,,0,,,70,80
54120,note_on,,,,,4,0,0,,,,,0,,,79,80
54176,note_on,,,,,56,0,0,,,,,0,,,79,0
54176,note_on,,,,,56,0,1,,,,,0,,,70,0
54180,note_on,,,,,4,0,1,,,,,0,,,73,80
54180,note_on,,,,,4,0,0,,,,,0,,,76,80
54227,note_on,,,,,0,0,0,,,,,0,,,80,0
54227,note_on,,,,,47,0,0,,,,,0,,,77,0
54236,note_on,,,,,56,0,1,,,,,0,,,73,0
54236,note_on,,,,,9,0,0,,,,,0,,,76,0
54240,note_on,,,,,4,0,0,,,,,0,,,80,80
54240,note_on,,,,,4,0,1,,,,,0,,,71,80
54296,note_on,,,,,56,0,0,,,,,0,,,80,0
54296,note_on,,,,,56,0,1,,,,,0,,,71,0
54300,note_on,,,,,4,0,1,,,,,0,,,74,80
54300,note_on,,,,,4,0,0,,,,,0,,,77,80
54356,note_on,,,,,56,0,0,,,,,0,,,77,0
54356,note_on,,,,,56,0,1,,,,,0,,,74,0
54360,note_on,,,,,4,0,1,,,,,0,,,64,80
54360,note_on,,,,,4,0,0,,,,,0,,,85,80
54416,note_on,,,,,56,0,1,,,,,0,,,64,0
54416,note_on,,,,,56,0,0,,,,,0,,,85,0
54420,note_on,,,,,4,0,0,,,,,0,,,82,80
54420,note_on,,,,,4,0,1,,,,,0,,,67,80
54476,note_on,,,,,56,0,1,,,,,0,,,67,0
54476,note_on,,,,,56,0,0,,,,,0,,,82,0
54480,note_on,,,,,4,0,1,,,,,0,,,65,80
54480,note_on,,,,,4,0,0,,,,,0,,,86,80
54536,note_on,,,,,56,0,0,,,,,0,,,86,0
54536,note_on,,,,,56,0,1,,,,,0,,,65,0
54540,note_on,,,,,4,0,0,,,,,0,,,83,80
54540,note_on,,,,,4,0,1,,,,,0,,,68,80
54596,note_on,,,,,56,0,0,,,,,0,,,83,0
54596,note_on,,,,,56,0,1,,,,,0,,,68,0
54600,note_on,,,,,4,0,1,,,,,0,,,58,80
54600,note_on,,,,,4,0,0,,,,,0,,,91,80
54656,note_on,,,,,56,0,0,,,,,0,,,91,0
54656,note_on,,,,,56,0,1,,,,,0,,,58,0
54660,note_on,,,,,4,0,1,,,,,0,,,61,80
54660,note_on,,,,,4,0,0,,,,,0,,,88,80
54716,note_on,,,,,56,0,0,,,,,0,,,88,0
54716,note_on,,,,,56,0,1,,,,,0,,,61,0
54720,note_on,,,,,4,0,1,,,,,0,,,59,80
54720,note_on,,,,,4,0,0,,,,,0,,,92,80
54776,note_on,,,,,56,0,1,,,,,0,,,59,0
54776,note_on,,,,,56,0,0,,,,,0,,,92,0
54780,note_on,,,,,4,0,1,,,,,0,,,62,80
54780,note_on,,,,,4,0,0,,,,,0,,,89,80
54836,note_on,,,,,56,0,1,,,,,0,,,62,0
54836,note_on,,,,,56,0,0,,,,,0,,,89,0
54840,note_on,,,,,0,0,1,,,,,0,,,59,0
54840,note_on,,,,,4,0,0,,,,,0,,,98,80
54840,note_on,,,,,0,0,1,,,,,0,,,59,80
54840,note_on,,,,,0,0,0,,,,,0,,,98,80
54840,note_on,,,,,0,0,0,,,,,0,,,98,0
54840,note_on,,,,,4,0,1,,,,,0,,,59,80
54900,note_on,,,,,60,0,0,,,,,0,,,86,80
54900,note_on,,,,,0,0,0,,,,,0,,,89,80
54900,note_on,,,,,60,0,1,,,,,0,,,49,80
54953,note_on,,,,,53,0,0,,,,,0,,,98,0
54953,note_on,,,,,53,0,1,,,,,0,,,59,0
54956,note_on,,,,,3,0,0,,,,,0,,,86,0
54956,note_on,,,,,3,0,1,,,,,0,,,49,0
54956,note_on,,,,,0,0,0,,,,,0,,,89,0
54960,note_on,,,,,4,0,0,,,,,0,,,97,80
54960,note_on,,,,,0,0,1,,,,,0,,,57,80
54960,note_on,,,,,0,0,1,,,,,0,,,57,0
54960,note_on,,,,,4,0,1,,,,,0,,,57,80
54960,note_on,,,,,0,0,0,,,,,0,,,97,80
54960,note_on,,,,,0,0,0,,,,,0,,,97,0
55020,note_on,,,,,60,0,1,,,,,0,,,49,80
55020,note_on,,,,,0,0,0,,,,,0,,,89,80
55020,note_on,,,,,60,0,0,,,,,0,,,85,80
55073,note_on,,,,,53,0,0,,,,,0,,,97,0
55073,note_on,,,,,53,0,1,,,,,0,,,57,0
55076,note_on,,,,,3,0,0,,,,,0,,,85,0
55076,note_on,,,,,3,0,1,,,,,0,,,49,0
55076,note_on,,,,,0,0,0,,,,,0,,,89,0
55080,note_on,,,,,0,0,1,,,,,0,,,56,0
55080,note_on,,,,,0,0,1,,,,,0,,,56,80
55080,note_on,,,,,4,0,1,,,,,0,,,56,80
55080,note_on,,,,,4,0,0,,,,,0,,,95,80
55080,note_on,,,,,0,0,0,,,,,0,,,95,80
55080,note_on,,,,,0,0,0,,,,,0,,,95,0
55140,note_on,,,,,60,0,0,,,,,0,,,83,80
55140,note_on,,,,,0,0,0,,,,,0,,,89,80
55140,note_on,,,,,60,0,1,,,,,0,,,49,80
55193,note_on,,,,,53,0,1,,,,,0,,,56,0
55193,note_on,,,,,53,0,0,,,,,0,,,95,0
55196,note_on,,,,,0,0,0,,,,,0,,,89,0
55196,note_on,,,,,3,0,0,,,,,0,,,83,0
55196,note_on,,,,,3,0,1,,,,,0,,,49,0
55200,note_on,,,,,0,0,1,,,,,0,,,55,80
55200,note_on,,,,,0,0,1,,,,,0,,,55,0
55200,note_on,,,,,4,0,1,,,,,0,,,55,80
55200,note_on,,,,,4,0,0,,,,,0,,,94,80
55200,note_on,,,,,0,0,0,,,,,0,,,94,80
55200,note_on,,,,,0,0,0,,,,,0,,,94,0
55260,note_on,,,,,0,0,0,,,,,0,,,85,80
55260,note_on,,,,,60,0,0,,,,,0,,,82,80
55260,note_on,,,,,60,0,1,,,,,0,,,49,80
55313,note_on,,,,,53,0,0,,,,,0,,,94,0
55313,note_on,,,,,53,0,1,,,,,0,,,55,0
55316,note_on,,,,,0,0,0,,,,,0,,,85,0
55316,note_on,,,,,3,0,0,,,,,0,,,82,0
55316,note_on,,,,,3,0,1,,,,,0,,,49,0
55320,note_on,,,,,4,0,0,,,,,0,,,93,80
55320,note_on,,,,,0,0,1,,,,,0,,,54,0
55320,note_on,,,,,4,0,1,,,,,0,,,54,80
55320,note_on,,,,,0,0,1,,,,,0,,,54,80
55320,note_on,,,,,0,0,0,,,,,0,,,93,80
55320,note_on,,,,,0,0,0,,,,,0,,,93,0
55380,note_on,,,,,60,0,0,,,,,0,,,81,80
55380,note_on,,,,,0,0,0,,,,,0,,,84,80
55380,note_on,,,,,60,0,1,,,,,0,,,49,80
55433,note_on,,,,,53,0,0,,,,,0,,,93,0
55433,note_on,,,,,53,0,1,,,,,0,,,54,0
55436,note_on,,,,,3,0,0,,,,,0,,,81,0
55436,note_on,,,,,0,0,0,,,,,0,,,84,0
55436,note_on,,,,,3,0,1,,,,,0,,,49,0
55440,note_on,,,,,4,0,1,,,,,0,,,57,80
55440,note_on,,,,,4,0,0,,,,,0,,,92,80
55440,note_on,,,,,0,0,1,,,,,0,,,57,0
55440,note_on,,,,,0,0,0,,,,,0,,,92,0
55440,note_on,,,,,0,0,0,,,,,0,,,92,80
55440,note_on,,,,,0,0,1,,,,,0,,,57,80
55500,note_on,,,,,0,0,0,,,,,0,,,84,80
55500,note_on,,,,,60,0,1,,,,,0,,,49,80
55500,note_on,,,,,60,0,0,,,,,0,,,80,80
55553,note_on,,,,,53,0,0,,,,,0,,,92,0
55553,note_on,,,,,53,0,1,,,,,0,,,57,0
55556,note_on,,,,,3,0,0,,,,,0,,,80,0
55556,note_on,,,,,0,0,0,,,,,0,,,84,0
55556,note_on,,,,,3,0,1,,,,,0,,,49,0
55560,note_on,,,,,0,0,1,,,,,0,,,63,0
55560,note_on,,,,,0,0,0,,,,,0,,,90,80
55560,note_on,,,,,4,0,1,,,,,0,,,63,80
55560,note_on,,,,,4,0,0,,,,,0,,,90,80
55560,note_on,,,,,0,0,1,,,,,0,,,63,80
55560,note_on,,,,,0,0,0,,,,,0,,,90,0
55620,note_on,,,,,0,0,0,,,,,0,,,84,80
55620,note_on,,,,,60,0,1,,,,,0,,,49,80
55620,note_on,,,,,60,0,0,,,,,0,,,78,80
55673,note_on,,,,,53,0,1,,,,,0,,,63,0
55673,note_on,,,,,53,0,0,,,,,0,,,90,0
55676,note_on,,,,,3,0,1,,,,,0,,,49,0
55676,note_on,,,,,3,0,0,,,,,0,,,78,0
55676,note_on,,,,,0,0,0,,,,,0,,,84,0
55680,note_on,,,,,0,0,0,,,,,0,,,89,80
55680,note_on,,,,,0,0,0,,,,,0,,,85,80
55680,note_on,,,,,4,0,0,,,,,0,,,77,80
55680,note_on,,,,,4,0,1,,,,,0,,,61,80
55680,note_on,,,,,0,0,1,,,,,0,,,68,80
55739,note_on,,,,,59,0,1,,,,,0,,,61,0
55793,note_on,,,,,0,0,0,,,,,0,,,89,0
55793,note_on,,,,,0,0,0,,,,,0,,,85,0
55793,note_on,,,,,113,0,0,,,,,0,,,77,0
55793,note_on,,,,,54,0,1,,,,,0,,,68,0
55800,note_on,,,,,7,0,1,,,,,0,,,37,80
55859,note_on,,,,,59,0,1,,,,,0,,,37,0
55920,note_on,,,,,0,0,0,,,,,0,,,65,96
55920,note_on,,,,,0,0,0,,,,,0,,,68,96
55920,note_on,,,,,127,0,0,,,,,0,,,74,80
55920,note_on,,,,,61,0,1,,,,,0,,,59,80
55976,note_on,,,,,56,0,1,,,,,0,,,59,0
55976,note_on,,,,,56,0,0,,,,,0,,,74,0
55980,note_on,,,,,4,0,0,,,,,0,,,71,80
55980,note_on,,,,,4,0,1,,,,,0,,,62,80
56036,note_on,,,,,56,0,0,,,,,0,,,71,0
56036,note_on,,,,,56,0,1,,,,,0,,,62,0
56040,note_on,,,,,4,0,0,,,,,0,,,67,80
56040,note_on,,,,,4,0,1,,,,,0,,,58,80
56096,note_on,,,,,56,0,0,,,,,0,,,67,0
56096,note_on,,,,,56,0,1,,,,,0,,,58,0
56100,note_on,,,,,4,0,1,,,,,0,,,61,80
56100,note_on,,,,,4,0,0,,,,,0,,,64,80
56156,note_on,,,,,56,0,0,,,,,0,,,64,0
56156,note_on,,,,,56,0,1,,,,,0,,,61,0
56159,note_on,,,,,3,0,0,,,,,0,,,65,0
56159,note_on,,,,,0,0,0,,,,,0,,,68,0
56160,note_on,,,,,4,0,1,,,,,0,,,59,80
56160,note_on,,,,,1,0,0,,,,,0,,,68,80
56216,note_on,,,,,56,0,0,,,,,0,,,68,0
56216,note_on,,,,,56,0,1,,,,,0,,,59,0
56220,note_on,,,,,4,0,1,,,,,0,,,62,80
56220,note_on,,,,,4,0,0,,,,,0,,,65,80
56276,note_on,,,,,56,0,0,,,,,0,,,65,0
56276,note_on,,,,,56,0,1,,,,,0,,,62,0
56280,note_on,,,,,4,0,0,,,,,0,,,73,80
56280,note_on,,,,,4,0,1,,,,,0,,,52,80
56336,note_on,,,,,56,0,0,,,,,0,,,73,0
56336,note_on,,,,,56,0,1,,,,,0,,,52,0
56340,note_on,,,,,4,0,0,,,,,0,,,70,80
56340,note_on,,,,,4,0,1,,,,,0,,,55,80
56396,note_on,,,,,56,0,1,,,,,0,,,55,0
56396,note_on,,,,,56,0,0,,,,,0,,,70,0
56400,note_on,,,,,4,0,0,,,,,0,,,74,80
56400,note_on,,,,,4,0,1,,,,,0,,,53,80
56456,note_on,,,,,56,0,1,,,,,0,,,53,0
56456,note_on,,,,,56,0,0,,,,,0,,,74,0
56460,note_on,,,,,4,0,1,,,,,0,,,56,80
56460,note_on,,,,,4,0,0,,,,,0,,,71,80
56516,note_on,,,,,56,0,1,,,,,0,,,56,0
56516,note_on,,,,,56,0,0,,,,,0,,,71,0
56520,note_on,,,,,4,0,1,,,,,0,,,46,80
56520,note_on,,,,,4,0,0,,,,,0,,,79,80
56576,note_on,,,,,56,0,0,,,,,0,,,79,0
56576,note_on,,,,,56,0,1,,,,,0,,,46,0
56580,note_on,,,,,4,0,0,,,,,0,,,76,80
56580,note_on,,,,,4,0,1,,,,,0,,,49,80
56636,note_on,,,,,56,0,1,,,,,0,,,49,0
56636,note_on,,,,,56,0,0,,,,,0,,,76,0
56640,note_on,,,,,4,0,1,,,,,0,,,47,80
56640,note_on,,,,,4,0,0,,,,,0,,,80,80
56696,note_on,,,,,56,0,0,,,,,0,,,80,0
56696,note_on,,,,,56,0,1,,,,,0,,,47,0
56700,note_on,,,,,4,0,1,,,,,0,,,50,80
56700,note_on,,,,,4,0,0,,,,,0,,,77,80
56756,note_on,,,,,56,0,0,,,,,0,,,77,0
56756,note_on,,,,,56,0,1,,,,,0,,,50,0
56760,note_on,,,,,0,0,1,,,,,0,,,47,0
56760,note_on,,,,,4,0,1,,,,,0,,,47,70
56760,note_on,,,,,0,0,1,,,,,0,,,47,70
56760,note_on,,,,,4,0,0,,,,,0,,,86,70
56760,note_on,,,,,0,0,0,,,,,0,,,86,0
56760,note_on,,,,,0,0,0,,,,,0,,,86,70
56820,note_on,,,,,60,0,1,,,,,0,,,37,70
56820,note_on,,,,,60,0,0,,,,,0,,,74,70
56820,note_on,,,,,0,0,0,,,,,0,,,77,70
56873,note_on,,,,,53,0,1,,,,,0,,,47,0
56873,note_on,,,,,53,0,0,,,,,0,,,86,0
56876,note_on,,,,,3,0,1,,,,,0,,,37,0
56876,note_on,,,,,3,0,0,,,,,0,,,74,0
56876,note_on,,,,,0,0,0,,,,,0,,,77,0
56880,note_on,,,,,0,0,0,,,,,0,,,85,71
56880,note_on,,,,,0,0,0,,,,,0,,,85,0
56880,note_on,,,,,0,0,1,,,,,0,,,45,71
56880,note_on,,,,,0,0,1,,,,,0,,,45,0
56880,note_on,,,,,4,0,1,,,,,0,,,45,71
56880,note_on,,,,,4,0,0,,,,,0,,,85,71
56940,note_on,,,,,60,0,0,,,,,0,,,73,72
56940,note_on,,,,,60,0,1,,,,,0,,,37,72
56940,note_on,,,,,0,0,0,,,,,0,,,77,72
56993,note_on,,,,,53,0,1,,,,,0,,,45,0
56993,note_on,,,,,53,0,0,,,,,0,,,85,0
56996,note_on,,,,,3,0,1,,,,,0,,,37,0
56996,note_on,,,,,3,0,0,,,,,0,,,73,0
56996,note_on,,,,,0,0,0,,,,,0,,,77,0
57000,note_on,,,,,4,0,0,,,,,0,,,83,73
57000,note_on,,,,,0,0,1,,,,,0,,,44,0
57000,note_on,,,,,0,0,1,,,,,0,,,44,73
57000,note_on,,,,,0,0,0,,,,,0,,,83,73
57000,note_on,,,,,0,0,0,,,,,0,,,83,0
57000,note_on,,,,,4,0,1,,,,,0,,,44,73
57060,note_on,,,,,0,0,0,,,,,0,,,77,74
57060,note_on,,,,,60,0,0,,,,,0,,,71,74
57060,note_on,,,,,60,0,1,,,,,0,,,37,74
57113,note_on,,,,,53,0,1,,,,,0,,,44,0
57113,note_on,,,,,53,0,0,,,,,0,,,83,0
57116,note_on,,,,,0,0,0,,,,,0,,,77,0
57116,note_on,,,,,3,0,0,,,,,0,,,71,0
57116,note_on,,,,,3,0,1,,,,,0,,,37,0
57120,note_on,,,,,4,0,0,,,,,0,,,82,74
57120,note_on,,,,,4,0,1,,,,,0,,,43,74
57120,note_on,,,,,0,0,1,,,,,0,,,43,0
57120,note_on,,,,,0,0,0,,,,,0,,,82,0
57120,note_on,,,,,0,0,1,,,,,0,,,43,74
57120,note_on,,,,,0,0,0,,,,,0,,,82,74
57180,note_on,,,,,60,0,0,,,,,0,,,70,75
57180,note_on,,,,,60,0,1,,,,,0,,,37,75
57180,note_on,,,,,0,0,0,,,,,0,,,73,75
57233,note_on,,,,,53,0,0,,,,,0,,,82,0
57233,note_on,,,,,53,0,1,,,,,0,,,43,0
57236,note_on,,,,,3,0,0,,,,,0,,,70,0
57236,note_on,,,,,3,0,1,,,,,0,,,37,0
57236,note_on,,,,,0,0,0,,,,,0,,,73,0
57240,note_on,,,,,0,0,1,,,,,0,,,42,0
57240,note_on,,,,,0,0,0,,,,,0,,,81,0
57240,note_on,,,,,4,0,0,,,,,0,,,81,76
57240,note_on,,,,,4,0,1,,,,,0,,,42,76
57240,note_on,,,,,0,0,0,,,,,0,,,81,76
57240,note_on,,,,,0,0,1,,,,,0,,,42,76
57300,note_on,,,,,0,0,0,,,,,0,,,72,77
57300,note_on,,,,,60,0,0,,,,,0,,,69,77
57300,note_on,,,,,60,0,1,,,,,0,,,37,77
57353,note_on,,,,,53,0,1,,,,,0,,,42,0
57353,note_on,,,,,53,0,0,,,,,0,,,81,0
57356,note_on,,,,,3,0,1,,,,,0,,,37,0
57356,note_on,,,,,0,0,0,,,,,0,,,72,0
57356,note_on,,,,,3,0,0,,,,,0,,,69,0
57360,note_on,,,,,4,0,0,,,,,0,,,80,78
57360,note_on,,,,,4,0,1,,,,,0,,,45,78
57360,note_on,,,,,0,0,1,,,,,0,,,45,0
57360,note_on,,,,,0,0,0,,,,,0,,,80,78
57360,note_on,,,,,0,0,1,,,,,0,,,45,78
57360,note_on,,,,,0,0,0,,,,,0,,,80,0
57420,note_on,,,,,0,0,0,,,,,0,,,72,78
57420,note_on,,,,,60,0,1,,,,,0,,,37,78
57420,note_on,,,,,60,0,0,,,,,0,,,67,78
57473,note_on,,,,,53,0,1,,,,,0,,,45,0
57473,note_on,,,,,53,0,0,,,,,0,,,80,0
57476,note_on,,,,,0,0,0,,,,,0,,,72,0
57476,note_on,,,,,3,0,0,,,,,0,,,67,0
57476,note_on,,,,,3,0,1,,,,,0,,,37,0
57480,note_on,,,,,4,0,1,,,,,0,,,51,79
57480,note_on,,,,,0,0,1,,,,,0,,,51,0
57480,note_on,,,,,0,0,1,,,,,0,,,51,79
57480,note_on,,,,,0,0,0,,,,,0,,,78,79
57480,note_on,,,,,0,0,0,,,,,0,,,78,0
57480,note_on,,,,,4,0,0,,,,,0,,,78,79
57540,note_on,,,,,60,0,1,,,,,0,,,37,80
57540,note_on,,,,,60,0,0,,,,,0,,,66,80
57540,note_on,,,,,0,0,0,,,,,0,,,72,80
57593,note_on,,,,,53,0,1,,,,,0,,,51,0
57593,note_on,,,,,53,0,0,,,,,0,,,78,0
57596,note_on,,,,,3,0,1,,,,,0,,,37,0
57596,note_on,,,,,3,0,0,,,,,0,,,66,0
57596,note_on,,,,,0,0,0,,,,,0,,,72,0
57600,note_on,,,,,0,0,0,,,,,0,,,77,0
57600,note_on,,,,,0,0,0,,,,,0,,,77,81
57600,note_on,,,,,0,0,1,,,,,0,,,49,0
57600,note_on,,,,,0,0,1,,,,,0,,,49,81
57600,note_on,,,,,4,0,1,,,,,0,,,49,81
57600,note_on,,,,,4,0,0,,,,,0,,,77,81
57660,note_on,,,,,0,0,0,,,,,0,,,68,82
57660,note_on,,,,,60,0,0,,,,,0,,,65,82
57660,note_on,,,,,60,0,1,,,,,0,,,37,82
57713,note_on,,,,,53,0,1,,,,,0,,,49,0
57713,note_on,,,,,53,0,0,,,,,0,,,77,0
57716,note_on,,,,,3,0,0,,,,,0,,,65,0
57716,note_on,,,,,0,0,0,,,,,0,,,68,0
57716,note_on,,,,,3,0,1,,,,,0,,,37,0
57720,note_on,,,,,0,0,1,,,,,0,,,47,0
57720,note_on,,,,,0,0,0,,,,,0,,,74,0
57720,note_on,,,,,0,0,1,,,,,0,,,47,83
57720,note_on,,,,,4,0,1,,,,,0,,,47,83
57720,note_on,,,,,4,0,0,,,,,0,,,74,83
57720,note_on,,,,,0,0,0,,,,,0,,,74,83
57780,note_on,,,,,60,0,1,,,,,0,,,37,83
57780,note_on,,,,,0,0,0,,,,,0,,,65,83
57780,note_on,,,,,60,0,0,,,,,0,,,62,83
57833,note_on,,,,,53,0,1,,,,,0,,,47,0
57833,note_on,,,,,53,0,0,,,,,0,,,74,0
57836,note_on,,,,,0,0,0,,,,,0,,,65,0
57836,note_on,,,,,3,0,1,,,,,0,,,37,0
57836,note_on,,,,,3,0,0,,,,,0,,,62,0
57840,note_on,,,,,0,0,1,,,,,0,,,45,0
57840,note_on,,,,,4,0,1,,,,,0,,,45,84
57840,note_on,,,,,4,0,0,,,,,0,,,73,84
57840,note_on,,,,,0,0,0,,,,,0,,,73,84
57840,note_on,,,,,0,0,0,,,,,0,,,73,0
57840,note_on,,,,,0,0,1,,,,,0,,,45,84
57900,note_on,,,,,60,0,0,,,,,0,,,61,85
57900,note_on,,,,,60,0,1,,,,,0,,,37,85
57900,note_on,,,,,0,0,0,,,,,0,,,65,85
57953,note_on,,,,,53,0,0,,,,,0,,,73,0
57953,note_on,,,,,53,0,1,,,,,0,,,45,0
57956,note_on,,,,,3,0,1,,,,,0,,,37,0
57956,note_on,,,,,0,0,0,,,,,0,,,65,0
57956,note_on,,,,,3,0,0,,,,,0,,,61,0
57960,note_on,,,,,4,0,1,,,,,0,,,44,86
57960,note_on,,,,,0,0,1,,,,,0,,,44,0
57960,note_on,,,,,0,0,1,,,,,0,,,44,86
57960,note_on,,,,,0,0,0,,,,,0,,,71,86
57960,note_on,,,,,4,0,0,,,,,0,,,71,86
57960,note_on,,,,,0,0,0,,,,,0,,,71,0
58020,note_on,,,,,0,0,0,,,,,0,,,65,87
58020,note_on,,,,,60,0,0,,,,,0,,,59,87
58020,note_on,,,,,60,0,1,,,,,0,,,37,87
58073,note_on,,,,,53,0,0,,,,,0,,,71,0
58073,note_on,,,,,53,0,1,,,,,0,,,44,0
58076,note_on,,,,,0,0,0,,,,,0,,,65,0
58076,note_on,,,,,3,0,1,,,,,0,,,37,0
58076,note_on,,,,,3,0,0,,,,,0,,,59,0
58080,note_on,,,,,4,0,1,,,,,0,,,43,87
58080,note_on,,,,,4,0,0,,,,,0,,,70,87
58080,note_on,,,,,0,0,0,,,,,0,,,70,87
58080,note_on,,,,,0,0,0,,,,,0,,,70,0
58080,note_on,,,,,0,0,1,,,,,0,,,43,0
58080,note_on,,,,,0,0,1,,,,,0,,,43,87
58140,note_on,,,,,0,0,0,,,,,0,,,61,88
58140,note_on,,,,,60,0,1,,,,,0,,,37,88
58140,note_on,,,,,60,0,0,,,,,0,,,58,88
58193,note_on,,,,,53,0,0,,,,,0,,,70,0
58193,note_on,,,,,53,0,1,,,,,0,,,43,0
58196,note_on,,,,,0,0,0,,,,,0,,,61,0
58196,note_on,,,,,3,0,0,,,,,0,,,58,0
58196,note_on,,,,,3,0,1,,,,,0,,,37,0
58200,note_on,,,,,0,0,0,,,,,0,,,69,0
58200,note_on,,,,,4,0,0,,,,,0,,,69,89
58200,note_on,,,,,4,0,1,,,,,0,,,42,89
58200,note_on,,,,,0,0,0,,,,,0,,,69,89
58200,note_on,,,,,0,0,1,,,,,0,,,42,89
58200,note_on,,,,,0,0,1,,,,,0,,,42,0
58260,note_on,,,,,60,0,0,,,,,0,,,57,90
58260,note_on,,,,,0,0,0,,,,,0,,,60,90
58260,note_on,,,,,60,0,1,,,,,0,,,37,90
58313,note_on,,,,,53,0,0,,,,,0,,,69,0
58313,note_on,,,,,53,0,1,,,,,0,,,42,0
58316,note_on,,,,,3,0,0,,,,,0,,,57,0
58316,note_on,,,,,3,0,1,,,,,0,,,37,0
58316,note_on,,,,,0,0,0,,,,,0,,,60,0
58320,note_on,,,,,0,0,1,,,,,0,,,45,91
58320,note_on,,,,,4,0,0,,,,,0,,,68,91
58320,note_on,,,,,4,0,1,,,,,0,,,45,91
58320,note_on,,,,,0,0,1,,,,,0,,,45,0
58320,note_on,,,,,0,0,0,,,,,0,,,68,0
58320,note_on,,,,,0,0,0,,,,,0,,,68,91
58380,note_on,,,,,60,0,0,,,,,0,,,56,91
58380,note_on,,,,,60,0,1,,,,,0,,,37,91
58380,note_on,,,,,0,0,0,,,,,0,,,60,91
58433,note_on,,,,,53,0,0,,,,,0,,,68,0
58433,note_on,,,,,53,0,1,,,,,0,,,45,0
58436,note_on,,,,,0,0,0,,,,,0,,,60,0
58436,note_on,,,,,3,0,1,,,,,0,,,37,0
58436,note_on,,,,,3,0,0,,,,,0,,,56,0
58440,note_on,,,,,0,0,0,,,,,0,,,66,0
58440,note_on,,,,,0,0,0,,,,,0,,,66,92
58440,note_on,,,,,4,0,1,,,,,0,,,51,92
58440,note_on,,,,,0,0,1,,,,,0,,,51,0
58440,note_on,,,,,4,0,0,,,,,0,,,66,92
58440,note_on,,,,,0,0,1,,,,,0,,,51,92
58500,note_on,,,,,60,0,1,,,,,0,,,37,93
58500,note_on,,,,,60,0,0,,,,,0,,,54,93
58500,note_on,,,,,0,0,0,,,,,0,,,60,93
58553,note_on,,,,,53,0,1,,,,,0,,,51,0
58553,note_on,,,,,53,0,0,,,,,0,,,66,0
58556,note_on,,,,,0,0,0,,,,,0,,,60,0
58556,note_on,,,,,3,0,0,,,,,0,,,54,0
58556,note_on,,,,,3,0,1,,,,,0,,,37,0
58560,note_on,,,,,0,0,0,,,,,0,,,65,94
58560,note_on,,,,,0,0,0,,,,,0,,,56,94
58560,key_signature,,,,,4,1,1,A,,,,,,,,
58560,key_signature,,,,,4,1,0,A,,,,,,,,
58560,note_on,,,,,0,0,1,,,,,0,,,49,94
58598,note_on,,,,,38,0,1,,,,,0,,,49,0
58598,note_on,,,,,0,0,0,,,,,0,,,65,0
58598,note_on,,,,,38,0,0,,,,,0,,,56,0
58680,note_on,,,,,0,0,1,,,,,0,,,47,96
58680,note_on,,,,,0,0,0,,,,,0,,,62,96
58680,set_tempo,,,,,82,1,0,,705881,,,,,,,
58680,note_on,,,,,0,0,0,,,,,0,,,56,96
58680,note_on,,,,,0,0,0,,,,,0,,,53,96
58680,note_on,,,,,82,0,1,,,,,0,,,35,96
58739,note_on,,,,,0,0,0,,,,,0,,,62,0
58739,note_on,,,,,0,0,0,,,,,0,,,56,0
58739,note_on,,,,,59,0,1,,,,,0,,,35,0
58739,note_on,,,,,0,0,1,,,,,0,,,47,0
58739,note_on,,,,,59,0,0,,,,,0,,,53,0
58800,note_on,,,,,61,0,1,,,,,0,,,36,96
58800,note_on,,,,,0,0,0,,,,,0,,,56,96
58800,note_on,,,,,0,0,0,,,,,0,,,61,96
58800,note_on,,,,,61,0,0,,,,,0,,,53,96
58800,note_on,,,,,0,0,1,,,,,0,,,48,96
58859,note_on,,,,,59,0,1,,,,,0,,,36,0
58859,note_on,,,,,0,0,1,,,,,0,,,48,0
58859,note_on,,,,,59,0,0,,,,,0,,,53,0
58859,note_on,,,,,0,0,0,,,,,0,,,56,0
58859,note_on,,,,,0,0,0,,,,,0,,,61,0
58920,note_on,,,,,61,0,0,,,,,0,,,53,96
58920,note_on,,,,,0,0,0,,,,,0,,,56,96
58920,note_on,,,,,0,0,0,,,,,0,,,60,96
58920,note_on,,,,,0,0,1,,,,,0,,,49,96
58920,note_on,,,,,61,0,1,,,,,0,,,37,96
58979,note_on,,,,,0,0,0,,,,,0,,,60,0
58979,note_on,,,,,0,0,1,,,,,0,,,49,0
58979,note_on,,,,,59,0,0,,,,,0,,,53,0
58979,note_on,,,,,59,0,1,,,,,0,,,37,0
58979,note_on,,,,,0,0,0,,,,,0,,,56,0
59040,note_on,,,,,0,0,0,,,,,0,,,56,96
59040,note_on,,,,,61,0,0,,,,,0,,,53,96
59040,note_on,,,,,0,0,1,,,,,0,,,50,96
59040,note_on,,,,,61,0,1,,,,,0,,,38,96
59040,note_on,,,,,0,0,0,,,,,0,,,59,96
59099,note_on,,,,,0,0,0,,,,,0,,,59,0
59099,note_on,,,,,0,0,0,,,,,0,,,56,0
59099,note_on,,,,,59,0,1,,,,,0,,,38,0
59099,note_on,,,,,0,0,1,,,,,0,,,50,0
59099,note_on,,,,,59,0,0,,,,,0,,,53,0
59160,note_on,,,,,0,0,0,,,,,0,,,56,96
59160,note_on,,,,,0,0,0,,,,,0,,,62,96
59160,note_on,,,,,61,0,0,,,,,0,,,53,96
59160,note_on,,,,,61,0,1,,,,,0,,,47,96
59219,note_on,,,,,59,0,0,,,,,0,,,53,0
59219,note_on,,,,,0,0,0,,,,,0,,,56,0
59219,note_on,,,,,0,0,0,,,,,0,,,62,0
59219,note_on,,,,,59,0,1,,,,,0,,,47,0
59280,note_on,,,,,61,0,1,,,,,0,,,48,96
59280,note_on,,,,,61,0,0,,,,,0,,,53,96
59280,note_on,,,,,0,0,0,,,,,0,,,61,96
59280,note_on,,,,,0,0,0,,,,,0,,,56,96
59339,note_on,,,,,0,0,0,,,,,0,,,61,0
59339,note_on,,,,,59,0,1,,,,,0,,,48,0
59339,note_on,,,,,0,0,0,,,,,0,,,56,0
59339,note_on,,,,,59,0,0,,,,,0,,,53,0
59340,note_on,,,,,1,0,0,,,,,0,,,60,96
59340,note_on,,,,,1,0,1,,,,,0,,,49,96
59399,note_on,,,,,59,0,1,,,,,0,,,49,0
59399,note_on,,,,,59,0,0,,,,,0,,,60,0
59400,note_on,,,,,1,0,1,,,,,0,,,50,96
59400,note_on,,,,,1,0,0,,,,,0,,,59,96
59459,note_on,,,,,59,0,0,,,,,0,,,59,0
59459,note_on,,,,,59,0,1,,,,,0,,,50,0
59640,note_on,,,,,181,0,1,,,,,0,,,59,70
59640,note_on,,,,,181,0,0,,,,,0,,,65,70
59640,note_on,,,,,0,0,0,,,,,0,,,68,70
59640,note_on,,,,,0,0,0,,,,,0,,,74,70
59699,note_on,,,,,0,0,0,,,,,0,,,74,0
59699,note_on,,,,,59,0,1,,,,,0,,,59,0
59699,note_on,,,,,59,0,0,,,,,0,,,65,0
59699,note_on,,,,,0,0,0,,,,,0,,,68,0
59760,note_on,,,,,61,0,1,,,,,0,,,60,70
59760,note_on,,,,,61,0,0,,,,,0,,,65,70
59760,note_on,,,,,0,0,0,,,,,0,,,68,70
59760,note_on,,,,,0,0,0,,,,,0,,,73,70
59819,note_on,,,,,0,0,0,,,,,0,,,73,0
59819,note_on,,,,,59,0,1,,,,,0,,,60,0
59819,note_on,,,,,59,0,0,,,,,0,,,65,0
59819,note_on,,,,,0,0,0,,,,,0,,,68,0
59880,note_on,,,,,0,0,0,,,,,0,,,68,70
59880,note_on,,,,,0,0,0,,,,,0,,,72,70
59880,note_on,,,,,61,0,0,,,,,0,,,65,70
59880,note_on,,,,,61,0,1,,,,,0,,,61,70
59939,note_on,,,,,0,0,0,,,,,0,,,68,0
59939,note_on,,,,,0,0,0,,,,,0,,,72,0
59939,note_on,,,,,59,0,0,,,,,0,,,65,0
59939,note_on,,,,,59,0,1,,,,,0,,,61,0
60000,note_on,,,,,61,0,0,,,,,0,,,65,70
60000,note_on,,,,,61,0,1,,,,,0,,,62,70
60000,note_on,,,,,0,0,0,,,,,0,,,68,70
60000,note_on,,,,,0,0,0,,,,,0,,,71,70
60059,note_on,,,,,59,0,0,,,,,0,,,65,0
60059,note_on,,,,,0,0,0,,,,,0,,,68,0
60059,note_on,,,,,59,0,1,,,,,0,,,62,0
60059,note_on,,,,,0,0,0,,,,,0,,,71,0
60120,note_on,,,,,61,0,1,,,,,0,,,59,70
60120,note_on,,,,,61,0,0,,,,,0,,,65,70
60120,note_on,,,,,0,0,0,,,,,0,,,68,70
60120,note_on,,,,,0,0,0,,,,,0,,,74,70
60179,note_on,,,,,59,0,0,,,,,0,,,65,0
60179,note_on,,,,,59,0,1,,,,,0,,,59,0
60179,note_on,,,,,0,0,0,,,,,0,,,68,0
60179,note_on,,,,,0,0,0,,,,,0,,,74,0
60240,note_on,,,,,0,0,0,,,,,0,,,73,70
60240,note_on,,,,,61,0,1,,,,,0,,,60,70
60240,note_on,,,,,61,0,0,,,,,0,,,65,70
60240,note_on,,,,,0,0,0,,,,,0,,,68,70
60299,note_on,,,,,59,0,1,,,,,0,,,60,0
60299,note_on,,,,,59,0,0,,,,,0,,,65,0
60299,note_on,,,,,0,0,0,,,,,0,,,68,0
60299,note_on,,,,,0,0,0,,,,,0,,,73,0
60300,note_on,,,,,1,0,0,,,,,0,,,72,70
60300,note_on,,,,,1,0,1,,,,,0,,,61,70
60359,note_on,,,,,59,0,1,,,,,0,,,61,0
60359,note_on,,,,,59,0,0,,,,,0,,,72,0
60360,note_on,,,,,1,0,0,,,,,0,,,71,70
60360,note_on,,,,,1,0,1,,,,,0,,,62,70
60419,note_on,,,,,59,0,0,,,,,0,,,71,0
60419,note_on,,,,,59,0,1,,,,,0,,,62,0
60600,note_on,,,,,0,0,1,,,,,0,,,47,96
60600,note_on,,,,,181,0,0,,,,,0,,,56,96
60600,note_on,,,,,181,0,1,,,,,0,,,35,96
60600,note_on,,,,,0,0,0,,,,,0,,,65,96
60600,note_on,,,,,0,0,0,,,,,0,,,62,96
60659,note_on,,,,,0,0,1,,,,,0,,,47,0
60659,note_on,,,,,59,0,0,,,,,0,,,56,0
60659,note_on,,,,,59,0,1,,,,,0,,,35,0
60659,note_on,,,,,0,0,0,,,,,0,,,65,0
60659,note_on,,,,,0,0,0,,,,,0,,,62,0
60720,note_on,,,,,61,0,0,,,,,0,,,56,96
60720,note_on,,,,,0,0,1,,,,,0,,,48,96
60720,note_on,,,,,61,0,1,,,,,0,,,36,96
60720,note_on,,,,,0,0,0,,,,,0,,,65,96
60720,note_on,,,,,0,0,0,,,,,0,,,61,96
60779,note_on,,,,,0,0,0,,,,,0,,,65,0
60779,note_on,,,,,0,0,1,,,,,0,,,48,0
60779,note_on,,,,,0,0,0,,,,,0,,,61,0
60779,note_on,,,,,59,0,0,,,,,0,,,56,0
60779,note_on,,,,,59,0,1,,,,,0,,,36,0
60840,note_on,,,,,0,0,1,,,,,0,,,49,96
60840,note_on,,,,,0,0,0,,,,,0,,,65,96
60840,note_on,,,,,61,0,1,,,,,0,,,37,96
60840,note_on,,,,,0,0,0,,,,,0,,,60,96
60840,note_on,,,,,61,0,0,,,,,0,,,56,96
60899,note_on,,,,,0,0,0,,,,,0,,,60,0
60899,note_on,,,,,0,0,0,,,,,0,,,65,0
60899,note_on,,,,,59,0,1,,,,,0,,,37,0
60899,note_on,,,,,59,0,0,,,,,0,,,56,0
60899,note_on,,,,,0,0,1,,,,,0,,,49,0
60960,note_on,,,,,61,0,0,,,,,0,,,56,96
60960,note_on,,,,,0,0,1,,,,,0,,,50,96
60960,note_on,,,,,61,0,1,,,,,0,,,38,96
60960,note_on,,,,,0,0,0,,,,,0,,,59,96
60960,note_on,,,,,0,0,0,,,,,0,,,65,96
61019,note_on,,,,,59,0,0,,,,,0,,,56,0
61019,note_on,,,,,59,0,1,,,,,0,,,38,0
61019,note_on,,,,,0,0,1,,,,,0,,,50,0
61019,note_on,,,,,0,0,0,,,,,0,,,59,0
61019,note_on,,,,,0,0,0,,,,,0,,,65,0
61080,note_on,,,,,0,0,0,,,,,0,,,65,96
61080,note_on,,,,,61,0,1,,,,,0,,,47,96
61080,note_on,,,,,61,0,0,,,,,0,,,56,96
61080,note_on,,,,,0,0,0,,,,,0,,,62,96
61139,note_on,,,,,59,0,0,,,,,0,,,56,0
61139,note_on,,,,,0,0,0,,,,,0,,,62,0
61139,note_on,,,,,59,0,1,,,,,0,,,47,0
61139,note_on,,,,,0,0,0,,,,,0,,,65,0
61200,note_on,,,,,61,0,0,,,,,0,,,56,96
61200,note_on,,,,,61,0,1,,,,,0,,,48,96
61200,note_on,,,,,0,0,1,,,,,0,,,61,96
61200,note_on,,,,,0,0,0,,,,,0,,,65,96
61259,note_on,,,,,0,0,0,,,,,0,,,65,0
61259,note_on,,,,,59,0,0,,,,,0,,,56,0
61259,note_on,,,,,0,0,1,,,,,0,,,61,0
61259,note_on,,,,,59,0,1,,,,,0,,,48,0
61260,note_on,,,,,1,0,1,,,,,0,,,49,96
61260,note_on,,,,,0,0,1,,,,,0,,,60,96
61319,note_on,,,,,59,0,1,,,,,0,,,49,0
61319,note_on,,,,,0,0,1,,,,,0,,,60,0
61320,note_on,,,,,0,0,1,,,,,0,,,59,96
61320,note_on,,,,,1,0,1,,,,,0,,,50,96
61379,note_on,,,,,59,0,1,,,,,0,,,50,0
61379,note_on,,,,,0,0,1,,,,,0,,,59,0
61560,note_on,,,,,301,0,0,,,,,0,,,68,70
61560,note_on,,,,,181,0,1,,,,,0,,,59,70
61560,note_on,,,,,0,0,0,,,,,0,,,74,70
61560,note_on,,,,,0,0,0,,,,,0,,,77,70
61619,note_on,,,,,59,0,0,,,,,0,,,68,0
61619,note_on,,,,,59,0,1,,,,,0,,,59,0
61619,note_on,,,,,0,0,0,,,,,0,,,77,0
61619,note_on,,,,,0,0,0,,,,,0,,,74,0
61680,note_on,,,,,61,0,0,,,,,0,,,68,70
61680,note_on,,,,,0,0,0,,,,,0,,,73,70
61680,note_on,,,,,0,0,0,,,,,0,,,77,70
61680,note_on,,,,,61,0,1,,,,,0,,,60,70
61739,note_on,,,,,59,0,1,,,,,0,,,60,0
61739,note_on,,,,,0,0,0,,,,,0,,,73,0
61739,note_on,,,,,59,0,0,,,,,0,,,68,0
61739,note_on,,,,,0,0,0,,,,,0,,,77,0
61800,note_on,,,,,0,0,0,,,,,0,,,72,70
61800,note_on,,,,,61,0,0,,,,,0,,,68,70
61800,note_on,,,,,61,0,1,,,,,0,,,61,70
61800,note_on,,,,,0,0,0,,,,,0,,,77,70
61859,note_on,,,,,0,0,0,,,,,0,,,77,0
61859,note_on,,,,,59,0,0,,,,,0,,,68,0
61859,note_on,,,,,59,0,1,,,,,0,,,61,0
61859,note_on,,,,,0,0,0,,,,,0,,,72,0
61920,note_on,,,,,61,0,1,,,,,0,,,62,70
61920,note_on,,,,,61,0,0,,,,,0,,,68,70
61920,note_on,,,,,0,0,0,,,,,0,,,77,70
61920,note_on,,,,,0,0,0,,,,,0,,,71,70
61979,note_on,,,,,59,0,0,,,,,0,,,68,0
61979,note_on,,,,,0,0,0,,,,,0,,,77,0
61979,note_on,,,,,0,0,0,,,,,0,,,71,0
61979,note_on,,,,,59,0,1,,,,,0,,,62,0
62040,note_on,,,,,61,0,0,,,,,0,,,68,70
62040,note_on,,,,,61,0,1,,,,,0,,,59,70
62040,note_on,,,,,0,0,0,,,,,0,,,74,70
62040,note_on,,,,,0,0,0,,,,,0,,,77,70
62099,note_on,,,,,0,0,0,,,,,0,,,74,0
62099,note_on,,,,,59,0,0,,,,,0,,,68,0
62099,note_on,,,,,59,0,1,,,,,0,,,59,0
62099,note_on,,,,,0,0,0,,,,,0,,,77,0
62160,note_on,,,,,0,0,0,,,,,0,,,77,70
62160,note_on,,,,,0,0,1,,,,,0,,,73,70
62160,note_on,,,,,61,0,1,,,,,0,,,60,70
62160,note_on,,,,,61,0,0,,,,,0,,,68,70
62219,note_on,,,,,59,0,1,,,,,0,,,60,0
62219,note_on,,,,,0,0,1,,,,,0,,,73,0
62219,note_on,,,,,0,0,0,,,,,0,,,77,0
62219,note_on,,,,,59,0,0,,,,,0,,,68,0
62220,note_on,,,,,1,0,1,,,,,0,,,61,70
62220,note_on,,,,,0,0,1,,,,,0,,,72,70
62279,note_on,,,,,59,0,1,,,,,0,,,61,0
62279,note_on,,,,,0,0,1,,,,,0,,,72,0
62280,note_on,,,,,1,0,1,,,,,0,,,62,70
62280,note_on,,,,,0,0,1,,,,,0,,,71,70
62339,note_on,,,,,0,0,1,,,,,0,,,71,0
62339,note_on,,,,,59,0,1,,,,,0,,,62,0
62520,note_on,,,,,181,0,1,,,,,0,,,62,70
62520,note_on,,,,,0,0,0,,,,,0,,,77,70
62520,note_on,,,,,301,0,0,,,,,0,,,71,70
62520,note_on,,,,,0,0,0,,,,,0,,,80,70
62579,note_on,,,,,59,0,1,,,,,0,,,62,0
62579,note_on,,,,,0,0,0,,,,,0,,,77,0
62579,note_on,,,,,0,0,0,,,,,0,,,80,0
62579,note_on,,,,,59,0,0,,,,,0,,,71,0
62640,note_on,,,,,61,0,0,,,,,0,,,71,70
62640,note_on,,,,,0,0,0,,,,,0,,,76,70
62640,note_on,,,,,0,0,0,,,,,0,,,80,70
62640,note_on,,,,,61,0,1,,,,,0,,,63,70
62699,note_on,,,,,59,0,1,,,,,0,,,63,0
62699,note_on,,,,,0,0,0,,,,,0,,,76,0
62699,note_on,,,,,59,0,0,,,,,0,,,71,0
62699,note_on,,,,,0,0,0,,,,,0,,,80,0
62760,note_on,,,,,61,0,1,,,,,0,,,64,70
62760,note_on,,,,,0,0,0,,,,,0,,,75,70
62760,note_on,,,,,0,0,0,,,,,0,,,80,70
62760,note_on,,,,,61,0,0,,,,,0,,,71,70
62819,note_on,,,,,0,0,0,,,,,0,,,80,0
62819,note_on,,,,,0,0,0,,,,,0,,,75,0
62819,note_on,,,,,59,0,0,,,,,0,,,71,0
62819,note_on,,,,,59,0,1,,,,,0,,,64,0
62880,note_on,,,,,61,0,1,,,,,0,,,65,70
62880,note_on,,,,,0,0,0,,,,,0,,,80,70
62880,note_on,,,,,0,0,0,,,,,0,,,74,70
62880,note_on,,,,,61,0,0,,,,,0,,,71,70
62939,note_on,,,,,59,0,1,,,,,0,,,65,0
62939,note_on,,,,,0,0,0,,,,,0,,,80,0
62939,note_on,,,,,0,0,0,,,,,0,,,74,0
62939,note_on,,,,,59,0,0,,,,,0,,,71,0
63000,note_on,,,,,0,0,0,,,,,0,,,80,70
63000,note_on,,,,,0,0,0,,,,,0,,,83,70
63000,note_on,,,,,61,0,0,,,,,0,,,74,70
63000,note_on,,,,,61,0,1,,,,,0,,,65,70
63059,note_on,,,,,0,0,0,,,,,0,,,83,0
63059,note_on,,,,,0,0,0,,,,,0,,,80,0
63059,note_on,,,,,59,0,0,,,,,0,,,74,0
63059,note_on,,,,,59,0,1,,,,,0,,,65,0
63120,note_on,,,,,61,0,0,,,,,0,,,74,70
63120,note_on,,,,,61,0,1,,,,,0,,,66,70
63120,note_on,,,,,0,0,0,,,,,0,,,83,70
63120,note_on,,,,,0,0,1,,,,,0,,,79,70
63179,note_on,,,,,59,0,1,,,,,0,,,66,0
63179,note_on,,,,,0,0,0,,,,,0,,,83,0
63179,note_on,,,,,0,0,1,,,,,0,,,79,0
63179,note_on,,,,,59,0,0,,,,,0,,,74,0
63180,note_on,,,,,0,0,1,,,,,0,,,78,70
63180,note_on,,,,,1,0,1,,,,,0,,,67,70
63239,note_on,,,,,0,0,1,,,,,0,,,78,0
63239,note_on,,,,,59,0,1,,,,,0,,,67,0
63240,note_on,,,,,1,0,1,,,,,0,,,68,70
63240,note_on,,,,,0,0,1,,,,,0,,,77,70
63299,note_on,,,,,0,0,1,,,,,0,,,77,0
63299,note_on,,,,,59,0,1,,,,,0,,,68,0
63360,note_on,,,,,0,0,0,,,,,0,,,86,70
63360,note_on,,,,,61,0,1,,,,,0,,,68,70
63360,set_tempo,,,,,181,1,0,,666667,,,,,,,
63360,note_on,,,,,0,0,0,,,,,0,,,77,70
63360,note_on,,,,,0,0,0,,,,,0,,,83,70
63419,note_on,,,,,59,0,0,,,,,0,,,83,0
63419,note_on,,,,,59,0,1,,,,,0,,,68,0
63420,note_on,,,,,1,0,1,,,,,0,,,69,70
63420,note_on,,,,,1,0,0,,,,,0,,,81,70
63479,note_on,,,,,59,0,0,,,,,0,,,81,0
63479,note_on,,,,,59,0,1,,,,,0,,,69,0
63480,note_on,,,,,1,0,0,,,,,0,,,82,70
63480,note_on,,,,,1,0,1,,,,,0,,,70,70
63539,note_on,,,,,59,0,0,,,,,0,,,82,0
63539,note_on,,,,,59,0,1,,,,,0,,,70,0
63540,note_on,,,,,1,0,1,,,,,0,,,71,70
63540,note_on,,,,,1,0,0,,,,,0,,,80,70
63596,note_on,,,,,56,0,0,,,,,0,,,80,0
63596,note_on,,,,,56,0,1,,,,,0,,,71,0
63599,note_on,,,,,0,0,0,,,,,0,,,86,0
63599,note_on,,,,,3,0,0,,,,,0,,,77,0
63600,note_on,,,,,0,0,0,,,,,0,,,89,70
63600,note_on,,,,,1,0,0,,,,,0,,,80,70
63600,note_on,,,,,4,0,1,,,,,0,,,71,70
63600,note_on,,,,,0,0,0,,,,,0,,,86,70
63659,note_on,,,,,59,0,1,,,,,0,,,71,0
63659,note_on,,,,,59,0,0,,,,,0,,,86,0
63660,note_on,,,,,1,0,1,,,,,0,,,72,70
63660,note_on,,,,,1,0,0,,,,,0,,,84,70
63719,note_on,,,,,59,0,1,,,,,0,,,72,0
63719,note_on,,,,,59,0,0,,,,,0,,,84,0
63720,note_on,,,,,1,0,0,,,,,0,,,85,70
63720,note_on,,,,,1,0,1,,,,,0,,,73,70
63779,note_on,,,,,59,0,0,,,,,0,,,85,0
63779,note_on,,,,,59,0,1,,,,,0,,,73,0
63780,note_on,,,,,1,0,0,,,,,0,,,83,70
63780,note_on,,,,,1,0,1,,,,,0,,,74,70
63836,note_on,,,,,56,0,1,,,,,0,,,74,0
63836,note_on,,,,,56,0,0,,,,,0,,,83,0
63839,note_on,,,,,3,0,0,,,,,0,,,80,0
63839,note_on,,,,,0,0,0,,,,,0,,,89,0
63840,note_on,,,,,0,0,0,,,,,0,,,89,70
63840,note_on,,,,,4,0,1,,,,,0,,,74,70
63840,note_on,,,,,0,0,0,,,,,0,,,92,70
63840,note_on,,,,,1,0,0,,,,,0,,,83,70
63899,note_on,,,,,59,0,0,,,,,0,,,89,0
63899,note_on,,,,,59,0,1,,,,,0,,,74,0
63900,note_on,,,,,1,0,1,,,,,0,,,75,70
63900,note_on,,,,,1,0,0,,,,,0,,,87,70
63959,note_on,,,,,59,0,0,,,,,0,,,87,0
63959,note_on,,,,,59,0,1,,,,,0,,,75,0
63960,note_on,,,,,1,0,1,,,,,0,,,76,70
63960,note_on,,,,,1,0,0,,,,,0,,,88,70
64019,note_on,,,,,59,0,0,,,,,0,,,88,0
64019,note_on,,,,,59,0,1,,,,,0,,,76,0
64020,note_on,,,,,1,0,1,,,,,0,,,77,70
64020,note_on,,,,,1,0,0,,,,,0,,,86,70
64076,note_on,,,,,56,0,0,,,,,0,,,86,0
64076,note_on,,,,,56,0,1,,,,,0,,,77,0
64079,note_on,,,,,3,0,0,,,,,0,,,83,0
64079,note_on,,,,,0,0,0,,,,,0,,,92,0
64080,note_on,,,,,1,0,0,,,,,0,,,86,70
64080,note_on,,,,,4,0,1,,,,,0,,,77,70
64080,note_on,,,,,0,0,0,,,,,0,,,92,70
64080,note_on,,,,,0,0,0,,,,,0,,,95,70
64139,note_on,,,,,59,0,0,,,,,0,,,92,0
64139,note_on,,,,,59,0,1,,,,,0,,,77,0
64140,note_on,,,,,1,0,1,,,,,0,,,78,70
64140,note_on,,,,,1,0,0,,,,,0,,,90,70
64199,note_on,,,,,59,0,1,,,,,0,,,78,0
64199,note_on,,,,,59,0,0,,,,,0,,,90,0
64200,note_on,,,,,1,0,0,,,,,0,,,91,70
64200,note_on,,,,,1,0,1,,,,,0,,,79,70
64259,note_on,,,,,59,0,0,,,,,0,,,91,0
64259,note_on,,,,,59,0,1,,,,,0,,,79,0
64260,note_on,,,,,1,0,0,,,,,0,,,89,70
64260,note_on,,,,,1,0,1,,,,,0,,,80,70
64316,note_on,,,,,56,0,1,,,,,0,,,80,0
64316,note_on,,,,,56,0,0,,,,,0,,,89,0
64319,note_on,,,,,0,0,0,,,,,0,,,95,0
64319,note_on,,,,,3,0,0,,,,,0,,,86,0
64320,note_on,,,,,0,0,0,,,,,0,,,89,70
64320,set_tempo,,,,,1,1,0,,631580,,,,,,,
64320,note_on,,,,,0,0,0,,,,,0,,,98,70
64320,note_on,,,,,0,0,0,,,,,0,,,95,70
64320,note_on,,,,,4,0,1,,,,,0,,,80,70
64379,note_on,,,,,59,0,1,,,,,0,,,80,0
64379,note_on,,,,,59,0,0,,,,,0,,,95,0
64380,note_on,,,,,1,0,1,,,,,0,,,81,70
64380,note_on,,,,,1,0,0,,,,,0,,,93,70
64439,note_on,,,,,59,0,0,,,,,0,,,93,0
64439,note_on,,,,,59,0,1,,,,,0,,,81,0
64440,note_on,,,,,1,0,0,,,,,0,,,94,70
64440,note_on,,,,,1,0,1,,,,,0,,,82,70
64499,note_on,,,,,59,0,0,,,,,0,,,94,0
64499,note_on,,,,,59,0,1,,,,,0,,,82,0
64500,note_on,,,,,1,0,0,,,,,0,,,92,70
64500,note_on,,,,,1,0,1,,,,,0,,,83,70
64556,note_on,,,,,56,0,1,,,,,0,,,83,0
64556,note_on,,,,,56,0,0,,,,,0,,,92,0
64559,note_on,,,,,0,0,0,,,,,0,,,98,0
64559,note_on,,,,,3,0,0,,,,,0,,,89,0
64560,note_on,,,,,0,0,0,,,,,0,,,98,70
64560,note_on,,,,,4,0,1,,,,,0,,,80,70
64560,note_on,,,,,1,0,0,,,,,0,,,89,70
64560,note_on,,,,,0,0,0,,,,,0,,,95,70
64619,note_on,,,,,59,0,0,,,,,0,,,95,0
64619,note_on,,,,,59,0,1,,,,,0,,,80,0
64620,note_on,,,,,1,0,0,,,,,0,,,93,69
64620,note_on,,,,,1,0,1,,,,,0,,,81,69
64679,note_on,,,,,59,0,0,,,,,0,,,93,0
64679,note_on,,,,,59,0,1,,,,,0,,,81,0
64680,note_on,,,,,1,0,0,,,,,0,,,94,68
64680,note_on,,,,,1,0,1,,,,,0,,,82,68
64739,note_on,,,,,59,0,1,,,,,0,,,82,0
64739,note_on,,,,,59,0,0,,,,,0,,,94,0
64740,note_on,,,,,1,0,0,,,,,0,,,92,67
64740,note_on,,,,,1,0,1,,,,,0,,,83,67
64796,note_on,,,,,56,0,0,,,,,0,,,92,0
64796,note_on,,,,,56,0,1,,,,,0,,,83,0
64799,note_on,,,,,3,0,0,,,,,0,,,89,0
64799,note_on,,,,,0,0,0,,,,,0,,,98,0
64800,note_on,,,,,0,0,0,,,,,0,,,95,65
64800,note_on,,,,,1,0,0,,,,,0,,,89,65
64800,note_on,,,,,4,0,1,,,,,0,,,80,65
64800,note_on,,,,,0,0,0,,,,,0,,,98,65
64859,note_on,,,,,59,0,0,,,,,0,,,95,0
64859,note_on,,,,,59,0,1,,,,,0,,,80,0
64860,note_on,,,,,1,0,1,,,,,0,,,81,64
64860,note_on,,,,,1,0,0,,,,,0,,,93,64
64919,note_on,,,,,59,0,0,,,,,0,,,93,0
64919,note_on,,,,,59,0,1,,,,,0,,,81,0
64920,note_on,,,,,1,0,1,,,,,0,,,82,63
64920,note_on,,,,,1,0,0,,,,,0,,,94,63
64979,note_on,,,,,59,0,1,,,,,0,,,82,0
64979,note_on,,,,,59,0,0,,,,,0,,,94,0
64980,note_on,,,,,1,0,1,,,,,0,,,83,62
64980,note_on,,,,,1,0,0,,,,,0,,,92,62
65036,note_on,,,,,56,0,0,,,,,0,,,92,0
65036,note_on,,,,,56,0,1,,,,,0,,,83,0
65039,note_on,,,,,3,0,0,,,,,0,,,89,0
65039,note_on,,,,,0,0,0,,,,,0,,,98,0
65040,note_on,,,,,0,0,0,,,,,0,,,95,60
65040,note_on,,,,,0,0,0,,,,,0,,,98,60
65040,note_on,,,,,4,0,1,,,,,0,,,80,60
65040,note_on,,,,,1,0,0,,,,,0,,,89,60
65099,note_on,,,,,59,0,1,,,,,0,,,80,0
65099,note_on,,,,,59,0,0,,,,,0,,,95,0
65100,note_on,,,,,1,0,1,,,,,0,,,81,59
65100,note_on,,,,,1,0,0,,,,,0,,,93,59
65159,note_on,,,,,59,0,0,,,,,0,,,93,0
65159,note_on,,,,,59,0,1,,,,,0,,,81,0
65160,note_on,,,,,1,0,0,,,,,0,,,94,58
65160,note_on,,,,,1,0,1,,,,,0,,,82,58
65219,note_on,,,,,59,0,1,,,,,0,,,82,0
65219,note_on,,,,,59,0,0,,,,,0,,,94,0
65220,note_on,,,,,1,0,0,,,,,0,,,92,57
65220,note_on,,,,,1,0,1,,,,,0,,,83,57
65276,note_on,,,,,56,0,1,,,,,0,,,83,0
65276,note_on,,,,,56,0,0,,,,,0,,,92,0
65279,note_on,,,,,3,0,0,,,,,0,,,89,0
65279,note_on,,,,,0,0,0,,,,,0,,,98,0
65280,note_on,,,,,1,0,0,,,,,0,,,95,55
65280,note_on,,,,,0,0,0,,,,,0,,,98,55
65280,note_on,,,,,0,0,0,,,,,0,,,101,55
65336,note_on,,,,,0,0,0,,,,,0,,,101,0
65336,note_on,,,,,56,0,0,,,,,0,,,95,0
65336,note_on,,,,,0,0,0,,,,,0,,,98,0
65340,note_on,,,,,0,0,0,,,,,0,,,97,55
65340,note_on,,,,,4,0,0,,,,,0,,,94,55
65396,note_on,,,,,0,0,0,,,,,0,,,97,0
65396,note_on,,,,,56,0,0,,,,,0,,,94,0
65400,note_on,,,,,0,0,0,,,,,0,,,101,55
65400,note_on,,,,,0,0,0,,,,,0,,,98,55
65400,note_on,,,,,4,0,0,,,,,0,,,95,55
65456,note_on,,,,,0,0,0,,,,,0,,,101,0
65456,note_on,,,,,56,0,0,,,,,0,,,95,0
65456,note_on,,,,,0,0,0,,,,,0,,,98,0
65460,note_on,,,,,4,0,0,,,,,0,,,93,55
65460,note_on,,,,,0,0,0,,,,,0,,,96,55
65516,note_on,,,,,56,0,0,,,,,0,,,93,0
65516,note_on,,,,,0,0,0,,,,,0,,,96,0
65520,note_on,,,,,4,0,0,,,,,0,,,92,55
65520,note_on,,,,,0,0,0,,,,,0,,,98,55
65520,note_on,,,,,0,0,0,,,,,0,,,95,55
65576,note_on,,,,,56,0,0,,,,,0,,,92,0
65576,note_on,,,,,0,0,0,,,,,0,,,98,0
65576,note_on,,,,,0,0,0,,,,,0,,,95,0
65580,note_on,,,,,4,0,0,,,,,0,,,91,55
65580,note_on,,,,,0,0,0,,,,,0,,,94,55
65636,note_on,,,,,0,0,0,,,,,0,,,94,0
65636,note_on,,,,,56,0,0,,,,,0,,,91,0
65640,note_on,,,,,4,0,0,,,,,0,,,92,55
65640,note_on,,,,,0,0,0,,,,,0,,,95,55
65640,note_on,,,,,0,0,0,,,,,0,,,98,55
65696,note_on,,,,,56,0,0,,,,,0,,,92,0
65696,note_on,,,,,0,0,0,,,,,0,,,95,0
65696,note_on,,,,,0,0,0,,,,,0,,,98,0
65700,note_on,,,,,4,0,0,,,,,0,,,90,55
65700,note_on,,,,,0,0,0,,,,,0,,,93,55
65756,note_on,,,,,0,0,0,,,,,0,,,93,0
65756,note_on,,,,,56,0,0,,,,,0,,,90,0
65760,note_on,,,,,0,0,0,,,,,0,,,95,55
65760,note_on,,,,,4,0,0,,,,,0,,,89,55
65760,note_on,,,,,0,0,0,,,,,0,,,92,55
65816,note_on,,,,,56,0,0,,,,,0,,,89,0
65816,note_on,,,,,0,0,0,,,,,0,,,92,0
65816,note_on,,,,,0,0,0,,,,,0,,,95,0
65820,note_on,,,,,0,0,0,,,,,0,,,91,55
65820,note_on,,,,,4,0,0,,,,,0,,,88,55
65876,note_on,,,,,0,0,0,,,,,0,,,91,0
65876,note_on,,,,,56,0,0,,,,,0,,,88,0
65880,note_on,,,,,0,0,0,,,,,0,,,92,55
65880,note_on,,,,,4,0,0,,,,,0,,,89,55
65880,note_on,,,,,0,0,0,,,,,0,,,95,55
65936,note_on,,,,,0,0,0,,,,,0,,,95,0
65936,note_on,,,,,56,0,0,,,,,0,,,89,0
65936,note_on,,,,,0,0,0,,,,,0,,,92,0
65940,note_on,,,,,0,0,0,,,,,0,,,90,55
65940,note_on,,,,,4,0,0,,,,,0,,,87,55
65996,note_on,,,,,0,0,0,,,,,0,,,90,0
65996,note_on,,,,,56,0,0,,,,,0,,,87,0
66000,note_on,,,,,0,0,0,,,,,0,,,92,55
66000,note_on,,,,,0,0,0,,,,,0,,,89,55
66000,note_on,,,,,4,0,0,,,,,0,,,86,55
66056,note_on,,,,,0,0,0,,,,,0,,,92,0
66056,note_on,,,,,0,0,0,,,,,0,,,89,0
66056,note_on,,,,,56,0,0,,,,,0,,,86,0
66060,note_on,,,,,0,0,0,,,,,0,,,88,55
66060,note_on,,,,,4,0,0,,,,,0,,,85,55
66116,note_on,,,,,56,0,0,,,,,0,,,85,0
66116,note_on,,,,,0,0,0,,,,,0,,,88,0
66120,note_on,,,,,0,0,0,,,,,0,,,92,55
66120,note_on,,,,,0,0,0,,,,,0,,,89,55
66120,note_on,,,,,4,0,0,,,,,0,,,86,55
66176,note_on,,,,,0,0,0,,,,,0,,,92,0
66176,note_on,,,,,0,0,0,,,,,0,,,89,0
66176,note_on,,,,,56,0,0,,,,,0,,,86,0
66180,note_on,,,,,0,0,0,,,,,0,,,87,55
66180,note_on,,,,,4,0,0,,,,,0,,,84,55
66236,note_on,,,,,0,0,0,,,,,0,,,87,0
66236,note_on,,,,,56,0,0,,,,,0,,,84,0
66240,note_on,,,,,0,0,0,,,,,0,,,89,55
66240,note_on,,,,,0,0,0,,,,,0,,,86,55
66240,note_on,,,,,0,0,0,,,,,0,,,83,55
66240,set_tempo,,,,,4,1,0,,666667,,,,,,,
66296,note_on,,,,,56,0,0,,,,,0,,,83,0
66296,note_on,,,,,0,0,0,,,,,0,,,89,0
66296,note_on,,,,,0,0,0,,,,,0,,,86,0
66300,note_on,,,,,0,0,0,,,,,0,,,85,55
66300,note_on,,,,,4,0,0,,,,,0,,,82,55
66356,note_on,,,,,0,0,0,,,,,0,,,85,0
66356,note_on,,,,,56,0,0,,,,,0,,,82,0
66360,note_on,,,,,4,0,0,,,,,0,,,83,55
66360,note_on,,,,,0,0,0,,,,,0,,,89,55
66360,note_on,,,,,0,0,0,,,,,0,,,86,55
66416,note_on,,,,,56,0,0,,,,,0,,,83,0
66416,note_on,,,,,0,0,0,,,,,0,,,86,0
66416,note_on,,,,,0,0,0,,,,,0,,,89,0
66420,note_on,,,,,4,0,0,,,,,0,,,82,55
66420,note_on,,,,,0,0,0,,,,,0,,,84,55
66476,note_on,,,,,56,0,0,,,,,0,,,82,0
66476,note_on,,,,,0,0,0,,,,,0,,,84,0
66480,note_on,,,,,0,0,0,,,,,0,,,83,55
66480,note_on,,,,,4,0,0,,,,,0,,,80,55
66480,note_on,,,,,0,0,0,,,,,0,,,86,55
66536,note_on,,,,,0,0,0,,,,,0,,,83,0
66536,note_on,,,,,56,0,0,,,,,0,,,80,0
66536,note_on,,,,,0,0,0,,,,,0,,,86,0
66540,note_on,,,,,4,0,0,,,,,0,,,79,55
66540,note_on,,,,,0,0,0,,,,,0,,,82,55
66596,note_on,,,,,0,0,0,,,,,0,,,82,0
66596,note_on,,,,,56,0,0,,,,,0,,,79,0
66600,note_on,,,,,4,0,0,,,,,0,,,80,55
66600,note_on,,,,,0,0,0,,,,,0,,,86,55
66600,note_on,,,,,0,0,0,,,,,0,,,83,55
66656,note_on,,,,,56,0,0,,,,,0,,,80,0
66656,note_on,,,,,0,0,0,,,,,0,,,86,0
66656,note_on,,,,,0,0,0,,,,,0,,,83,0
66660,note_on,,,,,0,0,0,,,,,0,,,81,55
66660,note_on,,,,,4,0,0,,,,,0,,,78,55
66716,note_on,,,,,56,0,0,,,,,0,,,78,0
66716,note_on,,,,,0,0,0,,,,,0,,,81,0
66720,note_on,,,,,4,0,0,,,,,0,,,77,55
66720,note_on,,,,,0,0,0,,,,,0,,,83,55
66720,note_on,,,,,0,0,0,,,,,0,,,80,55
66776,note_on,,,,,0,0,0,,,,,0,,,83,0
66776,note_on,,,,,0,0,0,,,,,0,,,80,0
66776,note_on,,,,,56,0,0,,,,,0,,,77,0
66780,note_on,,,,,0,0,0,,,,,0,,,79,55
66780,note_on,,,,,4,0,0,,,,,0,,,76,55
66836,note_on,,,,,0,0,0,,,,,0,,,79,0
66836,note_on,,,,,56,0,0,,,,,0,,,76,0
66840,note_on,,,,,4,0,0,,,,,0,,,77,55
66840,note_on,,,,,0,0,0,,,,,0,,,80,55
66840,note_on,,,,,0,0,0,,,,,0,,,83,55
66896,note_on,,,,,0,0,0,,,,,0,,,80,0
66896,note_on,,,,,56,0,0,,,,,0,,,77,0
66896,note_on,,,,,0,0,0,,,,,0,,,83,0
66900,note_on,,,,,0,0,0,,,,,0,,,78,55
66900,note_on,,,,,4,0,0,,,,,0,,,75,55
66956,note_on,,,,,56,0,0,,,,,0,,,75,0
66956,note_on,,,,,0,0,0,,,,,0,,,78,0
66960,note_on,,,,,0,0,0,,,,,0,,,77,55
66960,note_on,,,,,4,0,0,,,,,0,,,74,55
66960,note_on,,,,,0,0,0,,,,,0,,,80,55
67016,note_on,,,,,0,0,0,,,,,0,,,77,0
67016,note_on,,,,,0,0,0,,,,,0,,,80,0
67016,note_on,,,,,56,0,0,,,,,0,,,74,0
67020,note_on,,,,,0,0,0,,,,,0,,,76,55
67020,note_on,,,,,4,0,0,,,,,0,,,73,55
67076,note_on,,,,,56,0,0,,,,,0,,,73,0
67076,note_on,,,,,0,0,0,,,,,0,,,76,0
67080,note_on,,,,,0,0,0,,,,,0,,,80,55
67080,note_on,,,,,0,0,0,,,,,0,,,77,55
67080,note_on,,,,,4,0,0,,,,,0,,,74,55
67136,note_on,,,,,56,0,0,,,,,0,,,74,0
67136,note_on,,,,,0,0,0,,,,,0,,,77,0
67136,note_on,,,,,0,0,0,,,,,0,,,80,0
67140,note_on,,,,,4,0,0,,,,,0,,,72,55
67140,note_on,,,,,0,0,0,,,,,0,,,75,55
67196,note_on,,,,,56,0,0,,,,,0,,,72,0
67196,note_on,,,,,0,0,0,,,,,0,,,75,0
67200,note_on,,,,,4,0,0,,,,,0,,,74,55
67200,note_on,,,,,0,0,0,,,,,0,,,77,55
67200,note_on,,,,,0,0,0,,,,,0,,,80,55
67256,note_on,,,,,0,0,0,,,,,0,,,80,0
67256,note_on,,,,,56,0,0,,,,,0,,,74,0
67256,note_on,,,,,0,0,0,,,,,0,,,77,0
67260,note_on,,,,,4,0,0,,,,,0,,,73,55
67260,note_on,,,,,0,0,0,,,,,0,,,76,55
67260,note_on,,,,,0,0,0,,,,,0,,,73,55
67260,note_on,,,,,0,0,0,,,,,0,,,73,0
67316,note_on,,,,,0,0,0,,,,,0,,,76,0
67316,note_on,,,,,56,0,0,,,,,0,,,73,0
67320,note_on,,,,,0,0,0,,,,,0,,,77,55
67320,note_on,,,,,4,0,0,,,,,0,,,74,55
67320,note_on,,,,,0,0,0,,,,,0,,,80,55
67376,note_on,,,,,56,0,0,,,,,0,,,74,0
67376,note_on,,,,,0,0,0,,,,,0,,,80,0
67376,note_on,,,,,0,0,0,,,,,0,,,77,0
67380,note_on,,,,,0,0,0,,,,,0,,,73,55
67380,note_on,,,,,0,0,0,,,,,0,,,76,55
67380,note_on,,,,,4,0,0,,,,,0,,,73,55
67380,note_on,,,,,0,0,0,,,,,0,,,73,0
67436,note_on,,,,,56,0,0,,,,,0,,,73,0
67436,note_on,,,,,0,0,0,,,,,0,,,76,0
67440,note_on,,,,,4,0,0,,,,,0,,,74,55
67440,note_on,,,,,0,0,0,,,,,0,,,80,55
67440,note_on,,,,,0,0,0,,,,,0,,,77,55
67496,note_on,,,,,0,0,0,,,,,0,,,77,0
67496,note_on,,,,,0,0,0,,,,,0,,,80,0
67496,note_on,,,,,56,0,0,,,,,0,,,74,0
67500,note_on,,,,,0,0,0,,,,,0,,,73,55
67500,note_on,,,,,4,0,0,,,,,0,,,73,55
67500,note_on,,,,,0,0,0,,,,,0,,,73,0
67500,note_on,,,,,0,0,0,,,,,0,,,76,55
67556,note_on,,,,,56,0,0,,,,,0,,,73,0
67556,note_on,,,,,0,0,0,,,,,0,,,76,0
67560,note_on,,,,,0,0,0,,,,,0,,,77,55
67560,note_on,,,,,0,0,0,,,,,0,,,80,55
67560,note_on,,,,,4,0,0,,,,,0,,,74,55
67616,note_on,,,,,0,0,0,,,,,0,,,80,0
67616,note_on,,,,,0,0,0,,,,,0,,,77,0
67616,note_on,,,,,56,0,0,,,,,0,,,74,0
67620,note_on,,,,,0,0,0,,,,,0,,,73,55
67620,note_on,,,,,0,0,0,,,,,0,,,76,55
67620,note_on,,,,,4,0,0,,,,,0,,,73,55
67620,note_on,,,,,0,0,0,,,,,0,,,73,0
67676,note_on,,,,,0,0,0,,,,,0,,,76,0
67676,note_on,,,,,56,0,0,,,,,0,,,73,0
67680,note_on,,,,,4,0,0,,,,,0,,,74,55
67680,note_on,,,,,0,0,0,,,,,0,,,77,55
67680,note_on,,,,,0,0,0,,,,,0,,,80,55
67736,note_on,,,,,0,0,0,,,,,0,,,77,0
67736,note_on,,,,,0,0,0,,,,,0,,,80,0
67736,note_on,,,,,56,0,0,,,,,0,,,74,0
67740,note_on,,,,,0,0,0,,,,,0,,,73,0
67740,note_on,,,,,0,0,0,,,,,0,,,73,55
67740,note_on,,,,,0,0,0,,,,,0,,,76,55
67740,note_on,,,,,4,0,0,,,,,0,,,73,55
67796,note_on,,,,,0,0,0,,,,,0,,,76,0
67796,note_on,,,,,56,0,0,,,,,0,,,73,0
67800,note_on,,,,,0,0,0,,,,,0,,,77,55
67800,note_on,,,,,0,0,0,,,,,0,,,80,55
67800,note_on,,,,,4,0,0,,,,,0,,,74,55
67856,note_on,,,,,0,0,0,,,,,0,,,77,0
67856,note_on,,,,,56,0,0,,,,,0,,,74,0
67856,note_on,,,,,0,0,0,,,,,0,,,80,0
67860,note_on,,,,,0,0,0,,,,,0,,,73,55
67860,note_on,,,,,0,0,0,,,,,0,,,76,55
67860,note_on,,,,,4,0,0,,,,,0,,,73,55
67860,note_on,,,,,0,0,0,,,,,0,,,73,0
67916,note_on,,,,,56,0,0,,,,,0,,,73,0
67916,note_on,,,,,0,0,0,,,,,0,,,76,0
67920,note_on,,,,,0,0,0,,,,,0,,,77,55
67920,note_on,,,,,0,0,0,,,,,0,,,80,55
67920,note_on,,,,,4,0,0,,,,,0,,,74,55
67976,note_on,,,,,0,0,0,,,,,0,,,77,0
67976,note_on,,,,,56,0,0,,,,,0,,,74,0
67976,note_on,,,,,0,0,0,,,,,0,,,80,0
67980,note_on,,,,,0,0,0,,,,,0,,,73,0
67980,note_on,,,,,0,0,0,,,,,0,,,76,55
67980,note_on,,,,,0,0,0,,,,,0,,,73,55
67980,note_on,,,,,4,0,0,,,,,0,,,73,55
68036,note_on,,,,,56,0,0,,,,,0,,,73,0
68036,note_on,,,,,0,0,0,,,,,0,,,76,0
68040,note_on,,,,,0,0,0,,,,,0,,,80,55
68040,note_on,,,,,0,0,0,,,,,0,,,77,55
68040,note_on,,,,,4,0,0,,,,,0,,,74,55
68096,note_on,,,,,0,0,0,,,,,0,,,80,0
68096,note_on,,,,,0,0,0,,,,,0,,,77,0
68096,note_on,,,,,56,0,0,,,,,0,,,74,0
68100,note_on,,,,,0,0,0,,,,,0,,,76,55
68100,note_on,,,,,0,0,0,,,,,0,,,73,55
68100,note_on,,,,,4,0,0,,,,,0,,,73,55
68100,note_on,,,,,0,0,0,,,,,0,,,73,0
68156,note_on,,,,,0,0,0,,,,,0,,,76,0
68156,note_on,,,,,56,0,0,,,,,0,,,73,0
68160,note_on,,,,,0,0,0,,,,,0,,,80,55
68160,note_on,,,,,4,0,0,,,,,0,,,77,55
68160,note_on,,,,,0,0,0,,,,,0,,,74,55
68216,note_on,,,,,0,0,0,,,,,0,,,80,0
68216,note_on,,,,,56,0,0,,,,,0,,,77,0
68220,note_on,,,,,4,0,0,,,,,0,,,78,55
68273,note_on,,,,,53,0,0,,,,,0,,,74,0
68276,note_on,,,,,3,0,0,,,,,0,,,78,0
68280,note_on,,,,,4,0,0,,,,,0,,,77,55
68336,note_on,,,,,56,0,0,,,,,0,,,77,0
68340,note_on,,,,,4,0,0,,,,,0,,,78,55
68396,note_on,,,,,56,0,0,,,,,0,,,78,0
68400,note_on,,,,,4,0,0,,,,,0,,,77,55
68456,note_on,,,,,56,0,0,,,,,0,,,77,0
68460,note_on,,,,,4,0,0,,,,,0,,,78,55
68516,note_on,,,,,56,0,0,,,,,0,,,78,0
68520,note_on,,,,,4,0,0,,,,,0,,,77,54
68576,note_on,,,,,56,0,0,,,,,0,,,77,0
68580,note_on,,,,,4,0,0,,,,,0,,,78,52
68636,note_on,,,,,56,0,0,,,,,0,,,78,0
68640,note_on,,,,,4,0,0,,,,,0,,,77,50
68696,note_on,,,,,56,0,0,,,,,0,,,77,0
68700,note_on,,,,,4,0,0,,,,,0,,,78,50
68756,note_on,,,,,56,0,0,,,,,0,,,78,0
68760,note_on,,,,,4,0,0,,,,,0,,,77,50
68816,note_on,,,,,56,0,0,,,,,0,,,77,0
68820,note_on,,,,,4,0,0,,,,,0,,,78,50
68876,note_on,,,,,56,0,0,,,,,0,,,78,0
68880,note_on,,,,,4,0,0,,,,,0,,,77,50
68936,note_on,,,,,56,0,0,,,,,0,,,77,0
68940,note_on,,,,,4,0,0,,,,,0,,,78,49
68996,note_on,,,,,56,0,0,,,,,0,,,78,0
69000,note_on,,,,,4,0,0,,,,,0,,,77,48
69056,note_on,,,,,56,0,0,,,,,0,,,77,0
69060,note_on,,,,,4,0,0,,,,,0,,,78,47
69116,note_on,,,,,56,0,0,,,,,0,,,78,0
69120,note_on,,,,,0,0,0,,,,,0,,,77,45
69120,set_tempo,,,,,4,1,0,,705881,,,,,,,
69176,note_on,,,,,56,0,0,,,,,0,,,77,0
69180,note_on,,,,,4,0,0,,,,,0,,,78,45
69236,note_on,,,,,56,0,0,,,,,0,,,78,0
69240,note_on,,,,,4,0,0,,,,,0,,,77,45
69296,note_on,,,,,56,0,0,,,,,0,,,77,0
69300,note_on,,,,,4,0,0,,,,,0,,,78,45
69356,note_on,,,,,56,0,0,,,,,0,,,78,0
69360,note_on,,,,,0,0,1,,,,,0,,,67,45
69360,note_on,,,,,4084,0,1,,,,,0,,,62,45
69360,note_on,,,,,0,0,0,,,,,0,,,76,45
69360,note_on,,,,,4,0,0,,,,,0,,,70,45
69416,note_on,,,,,56,0,0,,,,,0,,,76,0
69420,note_on,,,,,4,0,0,,,,,0,,,78,45
69473,note_on,,,,,53,0,0,,,,,0,,,70,0
69476,note_on,,,,,3,0,0,,,,,0,,,78,0
69479,note_on,,,,,119,0,1,,,,,0,,,67,0
69480,note_on,,,,,1,0,1,,,,,0,,,68,45
69480,note_on,,,,,4,0,0,,,,,0,,,71,45
69480,note_on,,,,,0,0,0,,,,,0,,,76,45
69536,note_on,,,,,56,0,0,,,,,0,,,76,0
69540,note_on,,,,,4,0,0,,,,,0,,,78,45
69593,note_on,,,,,53,0,0,,,,,0,,,71,0
69596,note_on,,,,,3,0,0,,,,,0,,,78,0
69599,note_on,,,,,0,0,1,,,,,0,,,68,0
69599,note_on,,,,,119,0,1,,,,,0,,,62,0
69600,note_on,,,,,1,0,1,,,,,0,,,61,45
69600,note_on,,,,,0,0,0,,,,,0,,,76,45
69600,note_on,,,,,0,0,1,,,,,0,,,68,45
69600,note_on,,,,,4,0,0,,,,,0,,,72,45
69656,note_on,,,,,56,0,0,,,,,0,,,76,0
69660,note_on,,,,,4,0,0,,,,,0,,,78,45
69713,note_on,,,,,53,0,0,,,,,0,,,72,0
69716,note_on,,,,,3,0,0,,,,,0,,,78,0
69719,note_on,,,,,119,0,1,,,,,0,,,68,0
69720,note_on,,,,,1,0,1,,,,,0,,,69,45
69720,note_on,,,,,4,0,0,,,,,0,,,73,45
69720,note_on,,,,,0,0,0,,,,,0,,,76,45
69776,note_on,,,,,56,0,0,,,,,0,,,76,0
69780,note_on,,,,,4,0,0,,,,,0,,,78,45
69833,note_on,,,,,53,0,0,,,,,0,,,73,0
69836,note_on,,,,,3,0,0,,,,,0,,,78,0
69839,note_on,,,,,119,0,1,,,,,0,,,61,0
69839,note_on,,,,,0,0,1,,,,,0,,,69,0
69840,note_on,,,,,4,0,0,,,,,0,,,73,45
69840,note_on,,,,,0,0,0,,,,,0,,,76,45
69840,note_on,,,,,1,0,1,,,,,0,,,56,45
69840,note_on,,,,,0,0,1,,,,,0,,,70,45
69896,note_on,,,,,56,0,0,,,,,0,,,76,0
69900,note_on,,,,,4,0,0,,,,,0,,,78,45
69953,note_on,,,,,53,0,0,,,,,0,,,73,0
69956,note_on,,,,,3,0,0,,,,,0,,,78,0
69959,note_on,,,,,119,0,1,,,,,0,,,70,0
69960,note_on,,,,,0,0,0,,,,,0,,,76,45
69960,note_on,,,,,1,0,1,,,,,0,,,71,45
69960,note_on,,,,,4,0,0,,,,,0,,,74,45
70016,note_on,,,,,56,0,0,,,,,0,,,76,0
70020,note_on,,,,,4,0,0,,,,,0,,,78,45
70073,note_on,,,,,53,0,0,,,,,0,,,74,0
70073,note_on,,,,,113,0,1,,,,,0,,,71,0
70076,note_on,,,,,3,0,0,,,,,0,,,78,0
70079,note_on,,,,,6,0,1,,,,,0,,,56,0
70080,note_on,,,,,4,0,0,,,,,0,,,73,45
70080,note_on,,,,,0,0,1,,,,,0,,,64,45
70080,note_on,,,,,0,0,0,,,,,0,,,76,45
70080,note_on,,,,,1,0,1,,,,,0,,,57,45
70136,note_on,,,,,56,0,0,,,,,0,,,73,0
70136,note_on,,,,,0,0,0,,,,,0,,,76,0
70140,note_on,,,,,4,0,0,,,,,0,,,78,45
70196,note_on,,,,,56,0,0,,,,,0,,,78,0
70200,note_on,,,,,4,0,0,,,,,0,,,76,45
70200,note_on,,,,,0,0,0,,,,,0,,,85,45
70256,note_on,,,,,56,0,0,,,,,0,,,76,0
70259,note_on,,,,,3,0,0,,,,,0,,,85,0
70260,note_on,,,,,0,0,0,,,,,0,,,78,45
70260,note_on,,,,,1,0,0,,,,,0,,,73,45
70307,note_on,,,,,227,0,1,,,,,0,,,57,0
70307,note_on,,,,,0,0,1,,,,,0,,,64,0
70316,note_on,,,,,0,0,0,,,,,0,,,78,0
70316,note_on,,,,,56,0,0,,,,,0,,,73,0
70320,note_on,,,,,4,0,0,,,,,0,,,76,45
70320,note_on,,,,,13,0,1,,,,,0,,,52,45
70320,note_on,,,,,0,0,1,,,,,0,,,64,45
70320,note_on,,,,,0,0,1,,,,,0,,,57,45
70320,note_on,,,,,0,0,0,,,,,0,,,83,45
70376,note_on,,,,,56,0,0,,,,,0,,,76,0
70379,note_on,,,,,3,0,0,,,,,0,,,83,0
70380,note_on,,,,,1,0,0,,,,,0,,,73,45
70380,note_on,,,,,0,0,0,,,,,0,,,78,45
70436,note_on,,,,,0,0,0,,,,,0,,,78,0
70436,note_on,,,,,56,0,0,,,,,0,,,73,0
70439,note_on,,,,,0,0,1,,,,,0,,,57,0
70439,note_on,,,,,0,0,1,,,,,0,,,64,0
70439,note_on,,,,,119,0,1,,,,,0,,,52,0
70440,note_on,,,,,0,0,0,,,,,0,,,81,45
70440,note_on,,,,,4,0,0,,,,,0,,,76,45
70496,note_on,,,,,56,0,0,,,,,0,,,76,0
70499,note_on,,,,,3,0,0,,,,,0,,,81,0
70500,note_on,,,,,0,0,0,,,,,0,,,78,45
70500,note_on,,,,,1,0,0,,,,,0,,,73,45
70556,note_on,,,,,56,0,0,,,,,0,,,73,0
70556,note_on,,,,,0,0,0,,,,,0,,,78,0
70560,note_on,,,,,0,0,0,,,,,0,,,81,45
70560,note_on,,,,,0,0,1,,,,,0,,,64,45
70560,note_on,,,,,0,0,1,,,,,0,,,59,45
70560,note_on,,,,,4,0,0,,,,,0,,,74,45
70560,note_on,,,,,121,0,1,,,,,0,,,52,45
70616,note_on,,,,,56,0,0,,,,,0,,,74,0
70619,note_on,,,,,3,0,0,,,,,0,,,81,0
70620,note_on,,,,,0,0,0,,,,,0,,,76,45
70620,note_on,,,,,1,0,0,,,,,0,,,71,45
70676,note_on,,,,,0,0,0,,,,,0,,,76,0
70676,note_on,,,,,56,0,0,,,,,0,,,71,0
70679,note_on,,,,,119,0,1,,,,,0,,,52,0
70679,note_on,,,,,0,0,1,,,,,0,,,64,0
70679,note_on,,,,,0,0,1,,,,,0,,,59,0
70680,note_on,,,,,4,0,0,,,,,0,,,74,45
70680,note_on,,,,,0,0,0,,,,,0,,,80,45
70736,note_on,,,,,56,0,0,,,,,0,,,74,0
70739,note_on,,,,,3,0,0,,,,,0,,,80,0
70740,note_on,,,,,0,0,0,,,,,0,,,76,45
70740,note_on,,,,,1,0,0,,,,,0,,,71,45
70796,note_on,,,,,56,0,0,,,,,0,,,71,0
70796,note_on,,,,,0,0,0,,,,,0,,,76,0
70800,note_on,,,,,121,0,1,,,,,0,,,56,45
70800,note_on,,,,,0,0,0,,,,,0,,,79,45
70800,note_on,,,,,0,0,1,,,,,0,,,64,45
70800,note_on,,,,,4,0,0,,,,,0,,,74,45
70859,note_on,,,,,0,0,0,,,,,0,,,79,0
70859,note_on,,,,,59,0,0,,,,,0,,,74,0
70860,note_on,,,,,0,0,0,,,,,0,,,78,45
70860,note_on,,,,,1,0,0,,,,,0,,,71,45
70919,note_on,,,,,0,0,0,,,,,0,,,78,0
70919,note_on,,,,,0,0,1,,,,,0,,,64,0
70919,note_on,,,,,119,0,1,,,,,0,,,56,0
70919,note_on,,,,,59,0,0,,,,,0,,,71,0
70920,note_on,,,,,0,0,0,,,,,0,,,77,45
70920,note_on,,,,,1,0,0,,,,,0,,,74,45
70976,note_on,,,,,56,0,0,,,,,0,,,74,0
70979,note_on,,,,,3,0,0,,,,,0,,,77,0
70980,note_on,,,,,1,0,0,,,,,0,,,71,45
71036,note_on,,,,,56,0,0,,,,,0,,,71,0
71040,note_on,,,,,0,0,0,,,,,0,,,76,45
71040,note_on,,,,,121,0,1,,,,,0,,,57,45
71040,note_on,,,,,0,0,1,,,,,0,,,64,45
71040,note_on,,,,,4,0,0,,,,,0,,,73,45
71096,note_on,,,,,56,0,0,,,,,0,,,73,0
71100,note_on,,,,,4,0,0,,,,,0,,,69,45
71153,note_on,,,,,53,0,0,,,,,0,,,76,0
71156,note_on,,,,,3,0,0,,,,,0,,,69,0
71160,note_on,,,,,4,0,0,,,,,0,,,73,45
71216,note_on,,,,,56,0,0,,,,,0,,,73,0
71220,note_on,,,,,4,0,0,,,,,0,,,78,45
71267,note_on,,,,,227,0,1,,,,,0,,,57,0
71267,note_on,,,,,0,0,1,,,,,0,,,64,0
71276,note_on,,,,,56,0,0,,,,,0,,,78,0
71280,note_on,,,,,0,0,1,,,,,0,,,67,45
71280,note_on,,,,,13,0,1,,,,,0,,,62,45
71280,note_on,,,,,0,0,0,,,,,0,,,76,45
71280,note_on,,,,,4,0,0,,,,,0,,,70,45
71339,note_on,,,,,59,0,0,,,,,0,,,76,0
71340,note_on,,,,,1,0,0,,,,,0,,,78,45
71399,note_on,,,,,59,0,0,,,,,0,,,70,0
71399,note_on,,,,,0,0,0,,,,,0,,,78,0
71399,note_on,,,,,119,0,1,,,,,0,,,67,0
71400,note_on,,,,,1,0,0,,,,,0,,,71,45
71400,note_on,,,,,0,0,0,,,,,0,,,76,45
71400,note_on,,,,,1,0,1,,,,,0,,,68,45
71459,note_on,,,,,59,0,0,,,,,0,,,76,0
71460,note_on,,,,,1,0,0,,,,,0,,,78,46
71519,note_on,,,,,0,0,1,,,,,0,,,68,0
71519,note_on,,,,,119,0,1,,,,,0,,,62,0
71519,note_on,,,,,0,0,0,,,,,0,,,78,0
71519,note_on,,,,,59,0,0,,,,,0,,,71,0
71520,note_on,,,,,0,0,0,,,,,0,,,76,48
71520,note_on,,,,,1,0,1,,,,,0,,,61,48
71520,note_on,,,,,1,0,0,,,,,0,,,72,48
71520,note_on,,,,,0,0,1,,,,,0,,,68,48
71579,note_on,,,,,59,0,0,,,,,0,,,76,0
71580,note_on,,,,,1,0,0,,,,,0,,,78,49
71639,note_on,,,,,0,0,0,,,,,0,,,78,0
71639,note_on,,,,,59,0,0,,,,,0,,,72,0
71639,note_on,,,,,119,0,1,,,,,0,,,68,0
71640,note_on,,,,,0,0,0,,,,,0,,,76,51
71640,note_on,,,,,1,0,1,,,,,0,,,69,51
71640,note_on,,,,,1,0,0,,,,,0,,,73,51
71699,note_on,,,,,59,0,0,,,,,0,,,76,0
71700,note_on,,,,,1,0,0,,,,,0,,,78,52
71759,note_on,,,,,0,0,0,,,,,0,,,78,0
71759,note_on,,,,,59,0,0,,,,,0,,,73,0
71759,note_on,,,,,119,0,1,,,,,0,,,61,0
71759,note_on,,,,,0,0,1,,,,,0,,,69,0
71760,note_on,,,,,0,0,0,,,,,0,,,76,54
71760,note_on,,,,,0,0,1,,,,,0,,,70,54
71760,note_on,,,,,1,0,0,,,,,0,,,73,54
71760,note_on,,,,,1,0,1,,,,,0,,,56,54
71819,note_on,,,,,59,0,0,,,,,0,,,76,0
71820,note_on,,,,,1,0,0,,,,,0,,,78,55
71879,note_on,,,,,59,0,0,,,,,0,,,73,0
71879,note_on,,,,,0,0,0,,,,,0,,,78,0
71879,note_on,,,,,119,0,1,,,,,0,,,70,0
71880,note_on,,,,,1,0,0,,,,,0,,,74,57
71880,note_on,,,,,1,0,1,,,,,0,,,71,57
71880,note_on,,,,,0,0,0,,,,,0,,,76,57
71939,note_on,,,,,59,0,0,,,,,0,,,76,0
71940,note_on,,,,,1,0,0,,,,,0,,,78,58
71993,note_on,,,,,113,0,1,,,,,0,,,71,0
71996,note_on,,,,,56,0,0,,,,,0,,,78,0
71999,note_on,,,,,6,0,1,,,,,0,,,56,0
71999,note_on,,,,,3,0,0,,,,,0,,,74,0
72000,note_on,,,,,1,0,0,,,,,0,,,73,60
72000,note_on,,,,,1,0,1,,,,,0,,,57,60
72000,note_on,,,,,0,0,0,,,,,0,,,76,60
72000,note_on,,,,,0,0,1,,,,,0,,,64,60
72056,note_on,,,,,56,0,0,,,,,0,,,73,0
72056,note_on,,,,,0,0,0,,,,,0,,,76,0
72060,note_on,,,,,4,0,0,,,,,0,,,78,60
72116,note_on,,,,,56,0,0,,,,,0,,,78,0
72120,note_on,,,,,4,0,0,,,,,0,,,76,60
72120,note_on,,,,,0,0,0,,,,,0,,,85,60
72176,note_on,,,,,56,0,0,,,,,0,,,76,0
72179,note_on,,,,,3,0,0,,,,,0,,,85,0
72180,note_on,,,,,1,0,0,,,,,0,,,73,60
72180,note_on,,,,,0,0,0,,,,,0,,,78,60
72227,note_on,,,,,0,0,1,,,,,0,,,64,0
72227,note_on,,,,,227,0,1,,,,,0,,,57,0
72236,note_on,,,,,56,0,0,,,,,0,,,73,0
72236,note_on,,,,,0,0,0,,,,,0,,,78,0
72240,note_on,,,,,0,0,1,,,,,0,,,57,60
72240,note_on,,,,,0,0,1,,,,,0,,,64,60
72240,note_on,,,,,13,0,1,,,,,0,,,52,60
72240,note_on,,,,,0,0,0,,,,,0,,,83,60
72240,note_on,,,,,4,0,0,,,,,0,,,76,60
72296,note_on,,,,,56,0,0,,,,,0,,,76,0
72299,note_on,,,,,3,0,0,,,,,0,,,83,0
72300,note_on,,,,,1,0,0,,,,,0,,,73,60
72300,note_on,,,,,0,0,0,,,,,0,,,78,60
72356,note_on,,,,,0,0,0,,,,,0,,,78,0
72356,note_on,,,,,56,0,0,,,,,0,,,73,0
72359,note_on,,,,,0,0,1,,,,,0,,,57,0
72359,note_on,,,,,119,0,1,,,,,0,,,52,0
72359,note_on,,,,,0,0,1,,,,,0,,,64,0
72360,note_on,,,,,0,0,0,,,,,0,,,81,60
72360,note_on,,,,,4,0,0,,,,,0,,,76,60
72416,note_on,,,,,56,0,0,,,,,0,,,76,0
72419,note_on,,,,,3,0,0,,,,,0,,,81,0
72420,note_on,,,,,1,0,0,,,,,0,,,73,60
72420,note_on,,,,,0,0,0,,,,,0,,,78,60
72476,note_on,,,,,0,0,0,,,,,0,,,78,0
72476,note_on,,,,,56,0,0,,,,,0,,,73,0
72480,note_on,,,,,121,0,1,,,,,0,,,52,60
72480,note_on,,,,,4,0,0,,,,,0,,,74,60
72480,note_on,,,,,0,0,0,,,,,0,,,81,60
72480,note_on,,,,,0,0,1,,,,,0,,,59,60
72480,note_on,,,,,0,0,1,,,,,0,,,64,60
72536,note_on,,,,,56,0,0,,,,,0,,,74,0
72539,note_on,,,,,3,0,0,,,,,0,,,81,0
72540,note_on,,,,,1,0,0,,,,,0,,,71,60
72540,note_on,,,,,0,0,0,,,,,0,,,76,60
72596,note_on,,,,,0,0,0,,,,,0,,,76,0
72596,note_on,,,,,56,0,0,,,,,0,,,71,0
72599,note_on,,,,,0,0,1,,,,,0,,,59,0
72599,note_on,,,,,0,0,1,,,,,0,,,64,0
72599,note_on,,,,,119,0,1,,,,,0,,,52,0
72600,note_on,,,,,0,0,0,,,,,0,,,80,60
72600,note_on,,,,,4,0,0,,,,,0,,,74,60
72656,note_on,,,,,56,0,0,,,,,0,,,74,0
72659,note_on,,,,,3,0,0,,,,,0,,,80,0
72660,note_on,,,,,0,0,0,,,,,0,,,76,60
72660,note_on,,,,,1,0,0,,,,,0,,,71,60
72716,note_on,,,,,0,0,0,,,,,0,,,76,0
72716,note_on,,,,,56,0,0,,,,,0,,,71,0
72720,note_on,,,,,121,0,1,,,,,0,,,56,60
72720,note_on,,,,,4,0,0,,,,,0,,,74,60
72720,note_on,,,,,0,0,0,,,,,0,,,79,60
72720,note_on,,,,,0,0,1,,,,,0,,,64,60
72779,note_on,,,,,59,0,0,,,,,0,,,74,0
72779,note_on,,,,,0,0,0,,,,,0,,,79,0
72780,note_on,,,,,1,0,0,,,,,0,,,71,60
72780,note_on,,,,,0,0,0,,,,,0,,,78,60
72839,note_on,,,,,0,0,1,,,,,0,,,64,0
72839,note_on,,,,,59,0,0,,,,,0,,,71,0
72839,note_on,,,,,119,0,1,,,,,0,,,56,0
72839,note_on,,,,,0,0,0,,,,,0,,,78,0
72840,note_on,,,,,1,0,0,,,,,0,,,74,60
72840,note_on,,,,,0,0,0,,,,,0,,,77,60
72896,note_on,,,,,56,0,0,,,,,0,,,74,0
72899,note_on,,,,,3,0,0,,,,,0,,,77,0
72900,note_on,,,,,1,0,0,,,,,0,,,71,60
72956,note_on,,,,,56,0,0,,,,,0,,,71,0
72960,note_on,,,,,4,0,0,,,,,0,,,73,60
72960,note_on,,,,,0,0,1,,,,,0,,,64,60
72960,note_on,,,,,0,0,0,,,,,0,,,76,60
72960,note_on,,,,,121,0,1,,,,,0,,,57,60
73016,note_on,,,,,56,0,0,,,,,0,,,73,0
73020,note_on,,,,,4,0,0,,,,,0,,,69,60
73073,note_on,,,,,53,0,0,,,,,0,,,76,0
73076,note_on,,,,,3,0,0,,,,,0,,,69,0
73080,note_on,,,,,4,0,0,,,,,0,,,73,60
73136,note_on,,,,,56,0,0,,,,,0,,,73,0
73140,note_on,,,,,4,0,0,,,,,0,,,80,60
73187,note_on,,,,,0,0,1,,,,,0,,,64,0
73187,note_on,,,,,227,0,1,,,,,0,,,57,0
73196,note_on,,,,,56,0,0,,,,,0,,,80,0
73200,note_on,,,,,4,0,0,,,,,0,,,75,60
73200,note_on,,,,,13,0,1,,,,,0,,,67,60
73200,note_on,,,,,0,0,1,,,,,0,,,72,60
73200,note_on,,,,,0,0,0,,,,,0,,,81,60
73259,note_on,,,,,59,0,0,,,,,0,,,81,0
73260,note_on,,,,,1,0,0,,,,,0,,,82,60
73319,note_on,,,,,59,0,0,,,,,0,,,75,0
73319,note_on,,,,,0,0,0,,,,,0,,,82,0
73319,note_on,,,,,119,0,1,,,,,0,,,72,0
73320,note_on,,,,,1,0,1,,,,,0,,,73,60
73320,note_on,,,,,1,0,0,,,,,0,,,76,60
73320,note_on,,,,,0,0,0,,,,,0,,,81,60
73379,note_on,,,,,59,0,0,,,,,0,,,81,0
73380,note_on,,,,,1,0,0,,,,,0,,,82,61
73439,note_on,,,,,0,0,1,,,,,0,,,73,0
73439,note_on,,,,,119,0,1,,,,,0,,,67,0
73439,note_on,,,,,0,0,0,,,,,0,,,82,0
73439,note_on,,,,,59,0,0,,,,,0,,,76,0
73440,note_on,,,,,0,0,0,,,,,0,,,81,63
73440,note_on,,,,,1,0,0,,,,,0,,,76,63
73440,note_on,,,,,1,0,1,,,,,0,,,65,63
73440,note_on,,,,,0,0,1,,,,,0,,,73,63
73499,note_on,,,,,59,0,0,,,,,0,,,81,0
73500,note_on,,,,,1,0,0,,,,,0,,,82,64
73559,note_on,,,,,0,0,0,,,,,0,,,82,0
73559,note_on,,,,,59,0,0,,,,,0,,,76,0
73559,note_on,,,,,119,0,1,,,,,0,,,73,0
73560,note_on,,,,,0,0,0,,,,,0,,,81,66
73560,note_on,,,,,1,0,0,,,,,0,,,77,66
73560,note_on,,,,,1,0,1,,,,,0,,,74,66
73619,note_on,,,,,59,0,0,,,,,0,,,81,0
73620,note_on,,,,,1,0,0,,,,,0,,,82,67
73679,note_on,,,,,0,0,1,,,,,0,,,74,0
73679,note_on,,,,,59,0,0,,,,,0,,,77,0
73679,note_on,,,,,119,0,1,,,,,0,,,65,0
73679,note_on,,,,,0,0,0,,,,,0,,,82,0
73680,note_on,,,,,0,0,0,,,,,0,,,81,69
73680,note_on,,,,,1,0,0,,,,,0,,,78,69
73680,note_on,,,,,1,0,1,,,,,0,,,61,69
73680,note_on,,,,,0,0,1,,,,,0,,,75,69
73739,note_on,,,,,59,0,0,,,,,0,,,81,0
73740,note_on,,,,,1,0,0,,,,,0,,,82,70
73799,note_on,,,,,0,0,0,,,,,0,,,82,0
73799,note_on,,,,,119,0,1,,,,,0,,,75,0
73799,note_on,,,,,59,0,0,,,,,0,,,78,0
73800,note_on,,,,,0,0,0,,,,,0,,,81,72
73800,note_on,,,,,1,0,1,,,,,0,,,76,72
73800,note_on,,,,,1,0,0,,,,,0,,,79,72
73859,note_on,,,,,59,0,0,,,,,0,,,81,0
73860,note_on,,,,,1,0,0,,,,,0,,,82,73
73913,note_on,,,,,113,0,1,,,,,0,,,76,0
73916,note_on,,,,,56,0,0,,,,,0,,,82,0
73919,note_on,,,,,6,0,1,,,,,0,,,61,0
73919,note_on,,,,,3,0,0,,,,,0,,,79,0
73920,note_on,,,,,1,0,1,,,,,0,,,62,75
73920,note_on,,,,,0,0,1,,,,,0,,,69,75
73920,note_on,,,,,1,0,0,,,,,0,,,77,75
73920,note_on,,,,,0,0,0,,,,,0,,,81,75
73976,note_on,,,,,56,0,0,,,,,0,,,77,0
73976,note_on,,,,,0,0,0,,,,,0,,,81,0
73980,note_on,,,,,4,0,0,,,,,0,,,82,75
74036,note_on,,,,,56,0,0,,,,,0,,,82,0
74040,note_on,,,,,4,0,0,,,,,0,,,81,75
74040,note_on,,,,,0,0,0,,,,,0,,,89,75
74096,note_on,,,,,56,0,0,,,,,0,,,81,0
74099,note_on,,,,,3,0,0,,,,,0,,,89,0
74100,note_on,,,,,0,0,0,,,,,0,,,82,75
74100,note_on,,,,,1,0,0,,,,,0,,,77,75
74147,note_on,,,,,227,0,1,,,,,0,,,62,0
74147,note_on,,,,,0,0,1,,,,,0,,,69,0
74156,note_on,,,,,56,0,0,,,,,0,,,77,0
74156,note_on,,,,,0,0,0,,,,,0,,,82,0
74160,note_on,,,,,0,0,1,,,,,0,,,62,75
74160,note_on,,,,,13,0,1,,,,,0,,,57,75
74160,note_on,,,,,0,0,0,,,,,0,,,88,75
74160,note_on,,,,,4,0,0,,,,,0,,,81,75
74160,note_on,,,,,0,0,1,,,,,0,,,69,75
74216,note_on,,,,,56,0,0,,,,,0,,,81,0
74219,note_on,,,,,3,0,0,,,,,0,,,88,0
74220,note_on,,,,,0,0,0,,,,,0,,,82,75
74220,note_on,,,,,1,0,0,,,,,0,,,77,75
74276,note_on,,,,,0,0,0,,,,,0,,,82,0
74276,note_on,,,,,56,0,0,,,,,0,,,77,0
74279,note_on,,,,,0,0,1,,,,,0,,,69,0
74279,note_on,,,,,0,0,1,,,,,0,,,62,0
74279,note_on,,,,,119,0,1,,,,,0,,,57,0
74280,note_on,,,,,4,0,0,,,,,0,,,81,75
74280,note_on,,,,,0,0,0,,,,,0,,,86,75
74336,note_on,,,,,56,0,0,,,,,0,,,81,0
74339,note_on,,,,,3,0,0,,,,,0,,,86,0
74340,note_on,,,,,0,0,0,,,,,0,,,82,75
74340,note_on,,,,,1,0,0,,,,,0,,,77,75
74396,note_on,,,,,0,0,0,,,,,0,,,82,0
74396,note_on,,,,,56,0,0,,,,,0,,,77,0
74400,note_on,,,,,121,0,1,,,,,0,,,57,75
74400,note_on,,,,,0,0,1,,,,,0,,,69,75
74400,note_on,,,,,4,0,0,,,,,0,,,79,75
74400,note_on,,,,,0,0,1,,,,,0,,,64,75
74400,note_on,,,,,0,0,0,,,,,0,,,86,75
74456,note_on,,,,,56,0,0,,,,,0,,,79,0
74459,note_on,,,,,3,0,0,,,,,0,,,86,0
74460,note_on,,,,,0,0,0,,,,,0,,,81,75
74460,note_on,,,,,1,0,0,,,,,0,,,76,75
74516,note_on,,,,,56,0,0,,,,,0,,,76,0
74516,note_on,,,,,0,0,0,,,,,0,,,81,0
74519,note_on,,,,,0,0,1,,,,,0,,,69,0
74519,note_on,,,,,0,0,1,,,,,0,,,64,0
74519,note_on,,,,,119,0,1,,,,,0,,,57,0
74520,note_on,,,,,0,0,0,,,,,0,,,85,75
74520,note_on,,,,,4,0,0,,,,,0,,,79,75
74576,note_on,,,,,56,0,0,,,,,0,,,79,0
74579,note_on,,,,,3,0,0,,,,,0,,,85,0
74580,note_on,,,,,1,0,0,,,,,0,,,76,75
74580,note_on,,,,,0,0,0,,,,,0,,,81,75
74636,note_on,,,,,56,0,0,,,,,0,,,76,0
74636,note_on,,,,,0,0,0,,,,,0,,,81,0
74640,note_on,,,,,0,0,1,,,,,0,,,69,75
74640,note_on,,,,,0,0,0,,,,,0,,,84,75
74640,note_on,,,,,121,0,1,,,,,0,,,61,75
74640,note_on,,,,,4,0,0,,,,,0,,,79,75
74699,note_on,,,,,59,0,0,,,,,0,,,79,0
74699,note_on,,,,,0,0,0,,,,,0,,,84,0
74700,note_on,,,,,1,0,0,,,,,0,,,76,75
74700,note_on,,,,,0,0,0,,,,,0,,,83,75
74759,note_on,,,,,119,0,1,,,,,0,,,61,0
74759,note_on,,,,,59,0,0,,,,,0,,,76,0
74759,note_on,,,,,0,0,1,,,,,0,,,69,0
74759,note_on,,,,,0,0,0,,,,,0,,,83,0
74760,note_on,,,,,0,0,0,,,,,0,,,82,75
74760,note_on,,,,,1,0,0,,,,,0,,,79,75
74816,note_on,,,,,56,0,0,,,,,0,,,79,0
74819,note_on,,,,,3,0,0,,,,,0,,,82,0
74820,note_on,,,,,1,0,0,,,,,0,,,76,75
74876,note_on,,,,,56,0,0,,,,,0,,,76,0
74880,note_on,,,,,0,0,0,,,,,0,,,81,75
74880,note_on,,,,,4,0,0,,,,,0,,,77,75
74880,note_on,,,,,0,0,1,,,,,0,,,69,75
74880,note_on,,,,,121,0,1,,,,,0,,,62,75
74936,note_on,,,,,56,0,0,,,,,0,,,77,0
74940,note_on,,,,,4,0,0,,,,,0,,,74,75
74993,note_on,,,,,53,0,0,,,,,0,,,81,0
74996,note_on,,,,,3,0,0,,,,,0,,,74,0
75000,note_on,,,,,4,0,0,,,,,0,,,77,75
75056,note_on,,,,,56,0,0,,,,,0,,,77,0
75060,note_on,,,,,4,0,0,,,,,0,,,82,75
75107,note_on,,,,,227,0,1,,,,,0,,,62,0
75107,note_on,,,,,0,0,1,,,,,0,,,69,0
75116,note_on,,,,,56,0,0,,,,,0,,,82,0
75120,note_on,,,,,13,0,1,,,,,0,,,67,75
75120,note_on,,,,,0,0,0,,,,,0,,,81,75
75120,note_on,,,,,0,0,1,,,,,0,,,72,75
75120,note_on,,,,,4,0,0,,,,,0,,,75,75
75179,note_on,,,,,59,0,0,,,,,0,,,81,0
75180,note_on,,,,,1,0,0,,,,,0,,,82,75
75239,note_on,,,,,119,0,1,,,,,0,,,72,0
75239,note_on,,,,,0,0,0,,,,,0,,,82,0
75239,note_on,,,,,59,0,0,,,,,0,,,75,0
75240,note_on,,,,,0,0,0,,,,,0,,,81,75
75240,note_on,,,,,1,0,0,,,,,0,,,76,75
75240,note_on,,,,,1,0,1,,,,,0,,,73,75
75299,note_on,,,,,59,0,0,,,,,0,,,81,0
75300,note_on,,,,,1,0,0,,,,,0,,,82,75
75359,note_on,,,,,119,0,1,,,,,0,,,67,0
75359,note_on,,,,,59,0,0,,,,,0,,,76,0
75359,note_on,,,,,0,0,0,,,,,0,,,82,0
75359,note_on,,,,,0,0,1,,,,,0,,,73,0
75360,note_on,,,,,1,0,0,,,,,0,,,76,75
75360,note_on,,,,,0,0,0,,,,,0,,,81,75
75360,note_on,,,,,1,0,1,,,,,0,,,65,75
75360,note_on,,,,,0,0,1,,,,,0,,,73,75
75419,note_on,,,,,59,0,0,,,,,0,,,81,0
75420,note_on,,,,,1,0,0,,,,,0,,,82,75
75479,note_on,,,,,59,0,0,,,,,0,,,76,0
75479,note_on,,,,,0,0,0,,,,,0,,,82,0
75479,note_on,,,,,119,0,1,,,,,0,,,73,0
75480,note_on,,,,,1,0,1,,,,,0,,,74,75
75480,note_on,,,,,0,0,0,,,,,0,,,81,75
75480,note_on,,,,,1,0,0,,,,,0,,,77,75
75539,note_on,,,,,59,0,0,,,,,0,,,81,0
75540,note_on,,,,,1,0,0,,,,,0,,,82,75
75599,note_on,,,,,0,0,1,,,,,0,,,74,0
75599,note_on,,,,,59,0,0,,,,,0,,,77,0
75599,note_on,,,,,119,0,1,,,,,0,,,65,0
75599,note_on,,,,,0,0,0,,,,,0,,,82,0
75600,note_on,,,,,0,0,0,,,,,0,,,81,75
75600,note_on,,,,,1,0,0,,,,,0,,,78,75
75600,note_on,,,,,0,0,1,,,,,0,,,75,75
75600,note_on,,,,,1,0,1,,,,,0,,,61,75
75659,note_on,,,,,59,0,0,,,,,0,,,81,0
75660,note_on,,,,,1,0,0,,,,,0,,,82,75
75719,note_on,,,,,119,0,1,,,,,0,,,75,0
75719,note_on,,,,,0,0,0,,,,,0,,,82,0
75719,note_on,,,,,59,0,0,,,,,0,,,78,0
75720,note_on,,,,,1,0,0,,,,,0,,,79,75
75720,note_on,,,,,0,0,0,,,,,0,,,81,75
75720,note_on,,,,,1,0,1,,,,,0,,,76,75
75779,note_on,,,,,59,0,0,,,,,0,,,81,0
75780,note_on,,,,,1,0,0,,,,,0,,,82,75
75833,note_on,,,,,113,0,1,,,,,0,,,76,0
75836,note_on,,,,,56,0,0,,,,,0,,,82,0
75839,note_on,,,,,6,0,1,,,,,0,,,61,0
75839,note_on,,,,,3,0,0,,,,,0,,,79,0
75840,note_on,,,,,1,0,1,,,,,0,,,62,75
75840,note_on,,,,,0,0,1,,,,,0,,,69,75
75840,note_on,,,,,0,0,0,,,,,0,,,81,75
75840,note_on,,,,,1,0,0,,,,,0,,,77,75
75896,note_on,,,,,56,0,0,,,,,0,,,77,0
75896,note_on,,,,,0,0,0,,,,,0,,,81,0
75900,note_on,,,,,4,0,0,,,,,0,,,82,75
75956,note_on,,,,,56,0,0,,,,,0,,,82,0
75960,note_on,,,,,0,0,0,,,,,0,,,89,75
75960,note_on,,,,,4,0,0,,,,,0,,,81,75
76016,note_on,,,,,56,0,0,,,,,0,,,81,0
76019,note_on,,,,,3,0,0,,,,,0,,,89,0
76020,note_on,,,,,1,0,0,,,,,0,,,77,75
76020,note_on,,,,,0,0,0,,,,,0,,,82,75
76067,note_on,,,,,0,0,1,,,,,0,,,69,0
76067,note_on,,,,,227,0,1,,,,,0,,,62,0
76076,note_on,,,,,0,0,0,,,,,0,,,82,0
76076,note_on,,,,,56,0,0,,,,,0,,,77,0
76080,note_on,,,,,13,0,1,,,,,0,,,57,75
76080,note_on,,,,,0,0,0,,,,,0,,,88,75
76080,note_on,,,,,0,0,1,,,,,0,,,62,75
76080,note_on,,,,,0,0,1,,,,,0,,,69,75
76080,note_on,,,,,4,0,0,,,,,0,,,81,75
76136,note_on,,,,,56,0,0,,,,,0,,,81,0
76139,note_on,,,,,3,0,0,,,,,0,,,88,0
76140,note_on,,,,,1,0,0,,,,,0,,,77,75
76140,note_on,,,,,0,0,0,,,,,0,,,82,75
76196,note_on,,,,,56,0,0,,,,,0,,,77,0
76196,note_on,,,,,0,0,0,,,,,0,,,82,0
76199,note_on,,,,,0,0,1,,,,,0,,,69,0
76199,note_on,,,,,0,0,1,,,,,0,,,62,0
76199,note_on,,,,,119,0,1,,,,,0,,,57,0
76200,note_on,,,,,0,0,0,,,,,0,,,86,75
76200,note_on,,,,,4,0,0,,,,,0,,,81,75
76256,note_on,,,,,56,0,0,,,,,0,,,81,0
76259,note_on,,,,,3,0,0,,,,,0,,,86,0
76260,note_on,,,,,1,0,0,,,,,0,,,77,75
76260,note_on,,,,,0,0,0,,,,,0,,,82,75
76316,note_on,,,,,56,0,0,,,,,0,,,77,0
76316,note_on,,,,,0,0,0,,,,,0,,,82,0
76320,note_on,,,,,121,0,1,,,,,0,,,57,75
76320,note_on,,,,,0,0,1,,,,,0,,,64,75
76320,note_on,,,,,0,0,1,,,,,0,,,69,75
76320,note_on,,,,,4,0,0,,,,,0,,,79,75
76320,note_on,,,,,0,0,0,,,,,0,,,86,75
76376,note_on,,,,,56,0,0,,,,,0,,,79,0
76379,note_on,,,,,3,0,0,,,,,0,,,86,0
76380,note_on,,,,,0,0,0,,,,,0,,,81,75
76380,note_on,,,,,1,0,0,,,,,0,,,76,75
76436,note_on,,,,,0,0,0,,,,,0,,,81,0
76436,note_on,,,,,56,0,0,,,,,0,,,76,0
76439,note_on,,,,,0,0,1,,,,,0,,,69,0
76439,note_on,,,,,119,0,1,,,,,0,,,57,0
76439,note_on,,,,,0,0,1,,,,,0,,,64,0
76440,note_on,,,,,0,0,0,,,,,0,,,85,75
76440,note_on,,,,,4,0,0,,,,,0,,,79,75
76496,note_on,,,,,56,0,0,,,,,0,,,79,0
76499,note_on,,,,,3,0,0,,,,,0,,,85,0
76500,note_on,,,,,0,0,0,,,,,0,,,81,75
76500,note_on,,,,,1,0,0,,,,,0,,,76,75
76556,note_on,,,,,0,0,0,,,,,0,,,81,0
76556,note_on,,,,,56,0,0,,,,,0,,,76,0
76560,note_on,,,,,0,0,0,,,,,0,,,84,75
76560,note_on,,,,,0,0,1,,,,,0,,,69,75
76560,note_on,,,,,4,0,0,,,,,0,,,79,75
76560,note_on,,,,,121,0,1,,,,,0,,,61,75
76619,note_on,,,,,59,0,0,,,,,0,,,79,0
76619,note_on,,,,,0,0,0,,,,,0,,,84,0
76620,note_on,,,,,0,0,0,,,,,0,,,83,75
76620,note_on,,,,,1,0,0,,,,,0,,,76,75
76679,note_on,,,,,119,0,1,,,,,0,,,61,0
76679,note_on,,,,,59,0,0,,,,,0,,,76,0
76679,note_on,,,,,0,0,1,,,,,0,,,69,0
76679,note_on,,,,,0,0,0,,,,,0,,,83,0
76680,note_on,,,,,0,0,0,,,,,0,,,82,75
76680,note_on,,,,,1,0,0,,,,,0,,,79,75
76736,note_on,,,,,56,0,0,,,,,0,,,79,0
76739,note_on,,,,,3,0,0,,,,,0,,,82,0
76740,note_on,,,,,1,0,0,,,,,0,,,76,75
76796,note_on,,,,,56,0,0,,,,,0,,,76,0
76800,note_on,,,,,0,0,1,,,,,0,,,69,75
76800,note_on,,,,,121,0,1,,,,,0,,,62,75
76800,note_on,,,,,4,0,0,,,,,0,,,77,75
76800,note_on,,,,,0,0,0,,,,,0,,,81,75
76856,note_on,,,,,56,0,0,,,,,0,,,77,0
76860,note_on,,,,,4,0,0,,,,,0,,,74,75
76913,note_on,,,,,53,0,0,,,,,0,,,81,0
76916,note_on,,,,,3,0,0,,,,,0,,,74,0
76920,note_on,,,,,4,0,0,,,,,0,,,77,75
76976,note_on,,,,,56,0,0,,,,,0,,,77,0
76980,note_on,,,,,4,0,0,,,,,0,,,86,75
77027,note_on,,,,,0,0,1,,,,,0,,,69,0
77027,note_on,,,,,227,0,1,,,,,0,,,62,0
77036,note_on,,,,,56,0,0,,,,,0,,,86,0
77040,note_on,,,,,13,0,1,,,,,0,,,45,75
77040,note_on,,,,,4,0,0,,,,,0,,,77,75
77040,note_on,,,,,0,0,1,,,,,0,,,60,75
77040,note_on,,,,,0,0,0,,,,,0,,,89,75
77099,note_on,,,,,59,0,0,,,,,0,,,77,0
77100,note_on,,,,,1,0,0,,,,,0,,,84,75
77100,note_on,,,,,0,0,0,,,,,0,,,86,75
77159,note_on,,,,,0,0,0,,,,,0,,,86,0
77159,note_on,,,,,59,0,0,,,,,0,,,84,0
77160,note_on,,,,,0,0,0,,,,,0,,,89,75
77160,note_on,,,,,1,0,0,,,,,0,,,77,75
77160,note_on,,,,,0,0,0,,,,,0,,,89,0
77219,note_on,,,,,59,0,0,,,,,0,,,77,0
77219,note_on,,,,,0,0,0,,,,,0,,,89,0
77220,note_on,,,,,0,0,0,,,,,0,,,87,75
77220,note_on,,,,,1,0,0,,,,,0,,,84,75
77276,note_on,,,,,0,0,0,,,,,0,,,87,0
77276,note_on,,,,,56,0,0,,,,,0,,,84,0
77279,note_on,,,,,0,0,1,,,,,0,,,60,0
77279,note_on,,,,,239,0,1,,,,,0,,,45,0
77280,note_on,,,,,0,0,0,,,,,0,,,87,75
77280,note_on,,,,,0,0,1,,,,,0,,,62,75
77280,note_on,,,,,4,0,0,,,,,0,,,77,75
77280,note_on,,,,,1,0,1,,,,,0,,,46,75
77339,note_on,,,,,0,0,1,,,,,0,,,62,0
77339,note_on,,,,,59,0,1,,,,,0,,,46,0
77339,note_on,,,,,59,0,0,,,,,0,,,77,0
77340,note_on,,,,,1,0,0,,,,,0,,,82,75
77340,note_on,,,,,0,0,0,,,,,0,,,85,75
77399,note_on,,,,,0,0,0,,,,,0,,,85,0
77399,note_on,,,,,59,0,0,,,,,0,,,82,0
77400,note_on,,,,,1,0,0,,,,,0,,,77,75
77400,note_on,,,,,0,0,0,,,,,0,,,89,75
77459,note_on,,,,,0,0,0,,,,,0,,,89,0
77459,note_on,,,,,0,0,0,,,,,0,,,77,0
77459,note_on,,,,,59,0,0,,,,,0,,,87,0
77460,note_on,,,,,0,0,0,,,,,0,,,86,75
77460,note_on,,,,,1,0,0,,,,,0,,,82,75
77516,note_on,,,,,56,0,0,,,,,0,,,82,0
77516,note_on,,,,,0,0,0,,,,,0,,,86,0
77520,note_on,,,,,0,0,0,,,,,0,,,86,75
77520,note_on,,,,,0,0,1,,,,,0,,,63,75
77520,note_on,,,,,4,0,0,,,,,0,,,75,75
77520,note_on,,,,,181,0,1,,,,,0,,,48,75
77579,note_on,,,,,59,0,0,,,,,0,,,75,0
77580,note_on,,,,,0,0,0,,,,,0,,,83,75
77580,note_on,,,,,1,0,0,,,,,0,,,81,75
77639,note_on,,,,,0,0,0,,,,,0,,,83,0
77639,note_on,,,,,59,0,0,,,,,0,,,81,0
77640,note_on,,,,,0,0,0,,,,,0,,,86,75
77640,note_on,,,,,0,0,0,,,,,0,,,86,0
77640,note_on,,,,,1,0,0,,,,,0,,,75,75
77699,note_on,,,,,59,0,0,,,,,0,,,75,0
77699,note_on,,,,,0,0,0,,,,,0,,,86,0
77700,note_on,,,,,0,0,0,,,,,0,,,84,75
77700,note_on,,,,,1,0,0,,,,,0,,,81,75
77756,note_on,,,,,56,0,0,,,,,0,,,81,0
77756,note_on,,,,,0,0,0,,,,,0,,,84,0
77759,note_on,,,,,239,0,1,,,,,0,,,48,0
77759,note_on,,,,,0,0,1,,,,,0,,,63,0
77760,note_on,,,,,1,0,1,,,,,0,,,50,75
77760,note_on,,,,,0,0,0,,,,,0,,,84,75
77760,note_on,,,,,4,0,0,,,,,0,,,74,75
77760,note_on,,,,,0,0,1,,,,,0,,,65,75
77819,note_on,,,,,59,0,1,,,,,0,,,50,0
77819,note_on,,,,,0,0,1,,,,,0,,,65,0
77819,note_on,,,,,59,0,0,,,,,0,,,74,0
77820,note_on,,,,,1,0,0,,,,,0,,,77,75
77820,note_on,,,,,0,0,0,,,,,0,,,81,75
77879,note_on,,,,,59,0,0,,,,,0,,,77,0
77879,note_on,,,,,0,0,0,,,,,0,,,81,0
77880,note_on,,,,,0,0,0,,,,,0,,,84,75
77880,note_on,,,,,1,0,0,,,,,0,,,74,75
77880,note_on,,,,,0,0,0,,,,,0,,,84,0
77939,note_on,,,,,59,0,0,,,,,0,,,74,0
77939,note_on,,,,,0,0,0,,,,,0,,,84,0
77940,note_on,,,,,0,0,0,,,,,0,,,82,75
77940,note_on,,,,,1,0,0,,,,,0,,,77,75
77996,note_on,,,,,56,0,0,,,,,0,,,77,0
77996,note_on,,,,,0,0,0,,,,,0,,,82,0
78000,note_on,,,,,0,0,0,,,,,0,,,83,75
78000,note_on,,,,,181,0,1,,,,,0,,,51,75
78000,note_on,,,,,4,0,0,,,,,0,,,72,75
78000,note_on,,,,,0,0,1,,,,,0,,,66,75
78059,note_on,,,,,59,0,0,,,,,0,,,72,0
78060,note_on,,,,,1,0,0,,,,,0,,,78,75
78060,note_on,,,,,0,0,0,,,,,0,,,80,75
78119,note_on,,,,,59,0,0,,,,,0,,,78,0
78119,note_on,,,,,0,0,0,,,,,0,,,80,0
78120,note_on,,,,,1,0,0,,,,,0,,,72,75
78179,note_on,,,,,59,0,0,,,,,0,,,83,0
78179,note_on,,,,,0,0,0,,,,,0,,,72,0
78180,note_on,,,,,1,0,0,,,,,0,,,78,75
78180,note_on,,,,,0,0,0,,,,,0,,,81,75
78227,note_on,,,,,0,0,1,,,,,0,,,66,0
78227,note_on,,,,,227,0,1,,,,,0,,,51,0
78236,note_on,,,,,0,0,0,,,,,0,,,81,0
78236,note_on,,,,,56,0,0,,,,,0,,,78,0
78240,note_on,,,,,0,0,1,,,,,0,,,68,75
78240,note_on,,,,,0,0,0,,,,,0,,,81,75
78240,note_on,,,,,13,0,1,,,,,0,,,52,75
78240,note_on,,,,,4,0,0,,,,,0,,,71,75
78299,note_on,,,,,0,0,1,,,,,0,,,68,0
78299,note_on,,,,,59,0,0,,,,,0,,,71,0
78299,note_on,,,,,59,0,1,,,,,0,,,52,0
78300,note_on,,,,,1,0,0,,,,,0,,,76,75
78300,note_on,,,,,0,0,0,,,,,0,,,79,75
78359,note_on,,,,,0,0,0,,,,,0,,,79,0
78359,note_on,,,,,59,0,0,,,,,0,,,76,0
78360,note_on,,,,,0,0,0,,,,,0,,,81,0
78360,note_on,,,,,1,0,0,,,,,0,,,71,75
78360,note_on,,,,,0,0,0,,,,,0,,,81,75
78419,note_on,,,,,0,0,0,,,,,0,,,81,0
78419,note_on,,,,,59,0,0,,,,,0,,,71,0
78420,note_on,,,,,0,0,0,,,,,0,,,80,75
78420,note_on,,,,,1,0,0,,,,,0,,,76,75
78476,note_on,,,,,56,0,0,,,,,0,,,76,0
78476,note_on,,,,,0,0,0,,,,,0,,,80,0
78480,note_on,,,,,0,0,0,,,,,0,,,80,75
78480,note_on,,,,,181,0,1,,,,,0,,,54,75
78480,note_on,,,,,0,0,1,,,,,0,,,63,75
78480,note_on,,,,,4,0,0,,,,,0,,,69,75
78539,note_on,,,,,59,0,0,,,,,0,,,69,0
78539,note_on,,,,,59,0,1,,,,,0,,,63,0
78540,note_on,,,,,1,0,0,,,,,0,,,75,75
78540,note_on,,,,,0,0,0,,,,,0,,,77,75
78599,note_on,,,,,0,0,0,,,,,0,,,77,0
78599,note_on,,,,,59,0,0,,,,,0,,,75,0
78600,note_on,,,,,0,0,0,,,,,0,,,80,0
78600,note_on,,,,,0,0,0,,,,,0,,,80,75
78600,note_on,,,,,61,0,1,,,,,0,,,60,75
78600,note_on,,,,,1,0,0,,,,,0,,,69,75
78659,note_on,,,,,59,0,0,,,,,0,,,69,0
78659,note_on,,,,,59,0,1,,,,,0,,,60,0
78659,note_on,,,,,0,0,0,,,,,0,,,80,0
78660,note_on,,,,,0,0,0,,,,,0,,,78,75
78660,note_on,,,,,1,0,0,,,,,0,,,75,75
78707,note_on,,,,,48,0,1,,,,,0,,,54,0
78716,note_on,,,,,56,0,0,,,,,0,,,75,0
78716,note_on,,,,,0,0,0,,,,,0,,,78,0
78720,note_on,,,,,13,0,1,,,,,0,,,56,75
78720,note_on,,,,,0,0,0,,,,,0,,,78,75
78720,note_on,,,,,4,0,0,,,,,0,,,68,75
78720,note_on,,,,,0,0,1,,,,,0,,,64,75
78779,note_on,,,,,59,0,0,,,,,0,,,68,0
78779,note_on,,,,,59,0,1,,,,,0,,,64,0
78780,note_on,,,,,0,0,0,,,,,0,,,75,75
78780,note_on,,,,,1,0,0,,,,,0,,,71,75
78839,note_on,,,,,59,0,0,,,,,0,,,71,0
78839,note_on,,,,,0,0,0,,,,,0,,,75,0
78840,note_on,,,,,61,0,1,,,,,0,,,59,75
78840,note_on,,,,,1,0,0,,,,,0,,,68,75
78840,note_on,,,,,0,0,0,,,,,0,,,78,75
78840,note_on,,,,,0,0,0,,,,,0,,,78,0
78899,note_on,,,,,59,0,0,,,,,0,,,68,0
78899,note_on,,,,,59,0,1,,,,,0,,,59,0
78899,note_on,,,,,0,0,0,,,,,0,,,78,0
78900,note_on,,,,,0,0,0,,,,,0,,,76,75
78900,note_on,,,,,1,0,0,,,,,0,,,71,75
78947,note_on,,,,,48,0,1,,,,,0,,,56,0
78956,note_on,,,,,56,0,0,,,,,0,,,71,0
78956,note_on,,,,,0,0,0,,,,,0,,,76,0
78960,note_on,,,,,13,0,1,,,,,0,,,57,75
78960,note_on,,,,,0,0,0,,,,,0,,,76,75
78960,note_on,,,,,4,0,0,,,,,0,,,72,75
78960,note_on,,,,,0,0,1,,,,,0,,,66,75
79019,note_on,,,,,59,0,0,,,,,0,,,76,0
79019,note_on,,,,,59,0,1,,,,,0,,,66,0
79020,note_on,,,,,1,0,0,,,,,0,,,74,75
79079,note_on,,,,,0,0,0,,,,,0,,,74,0
79079,note_on,,,,,59,0,0,,,,,0,,,72,0
79080,note_on,,,,,61,0,1,,,,,0,,,60,75
79080,note_on,,,,,0,0,0,,,,,0,,,76,75
79080,note_on,,,,,1,0,0,,,,,0,,,69,75
79139,note_on,,,,,59,0,1,,,,,0,,,60,0
79139,note_on,,,,,59,0,0,,,,,0,,,76,0
79140,note_on,,,,,1,0,0,,,,,0,,,75,75
79187,note_on,,,,,48,0,1,,,,,0,,,57,0
79196,note_on,,,,,56,0,0,,,,,0,,,75,0
79199,note_on,,,,,3,0,0,,,,,0,,,69,0
79200,note_on,,,,,13,0,1,,,,,0,,,59,75
79200,note_on,,,,,1,0,0,,,,,0,,,74,75
79200,note_on,,,,,0,0,0,,,,,0,,,78,75
79200,note_on,,,,,0,0,1,,,,,0,,,68,75
79259,note_on,,,,,59,0,0,,,,,0,,,78,0
79259,note_on,,,,,59,0,1,,,,,0,,,68,0
79260,note_on,,,,,1,0,0,,,,,0,,,75,75
79319,note_on,,,,,59,0,0,,,,,0,,,74,0
79319,note_on,,,,,0,0,0,,,,,0,,,75,0
79320,note_on,,,,,61,0,1,,,,,0,,,62,75
79320,note_on,,,,,0,0,0,,,,,0,,,78,75
79320,note_on,,,,,1,0,0,,,,,0,,,71,75
79379,note_on,,,,,59,0,1,,,,,0,,,62,0
79379,note_on,,,,,59,0,0,,,,,0,,,78,0
79380,note_on,,,,,1,0,0,,,,,0,,,76,75
79427,note_on,,,,,48,0,1,,,,,0,,,59,0
79436,note_on,,,,,56,0,0,,,,,0,,,76,0
79439,note_on,,,,,3,0,0,,,,,0,,,71,0
79440,note_on,,,,,0,0,1,,,,,0,,,66,75
79440,note_on,,,,,13,0,1,,,,,0,,,60,75
79440,note_on,,,,,1,0,0,,,,,0,,,69,75
79440,note_on,,,,,0,0,0,,,,,0,,,76,75
79499,note_on,,,,,59,0,0,,,,,0,,,76,0
79500,note_on,,,,,1,0,0,,,,,0,,,74,75
79553,note_on,,,,,0,0,1,,,,,0,,,66,0
79553,note_on,,,,,113,0,1,,,,,0,,,60,0
79559,note_on,,,,,0,0,0,,,,,0,,,74,0
79559,note_on,,,,,59,0,0,,,,,0,,,69,0
79560,note_on,,,,,1,0,0,,,,,0,,,76,75
79619,note_on,,,,,59,0,0,,,,,0,,,76,0
79620,note_on,,,,,1,0,0,,,,,0,,,75,75
79676,note_on,,,,,56,0,0,,,,,0,,,75,0
79680,note_on,,,,,127,0,1,,,,,0,,,62,70
79680,note_on,,,,,0,0,1,,,,,0,,,68,70
79680,note_on,,,,,0,0,0,,,,,0,,,71,70
79680,note_on,,,,,4,0,0,,,,,0,,,78,70
79739,note_on,,,,,59,0,0,,,,,0,,,78,0
79740,note_on,,,,,1,0,0,,,,,0,,,76,70
79793,note_on,,,,,0,0,1,,,,,0,,,68,0
79793,note_on,,,,,113,0,1,,,,,0,,,62,0
79799,note_on,,,,,0,0,0,,,,,0,,,76,0
79799,note_on,,,,,59,0,0,,,,,0,,,71,0
79800,note_on,,,,,1,0,0,,,,,0,,,78,70
79859,note_on,,,,,59,0,0,,,,,0,,,78,0
79860,note_on,,,,,1,0,0,,,,,0,,,77,70
79916,note_on,,,,,56,0,0,,,,,0,,,77,0
79920,note_on,,,,,0,0,1,,,,,0,,,71,70
79920,note_on,,,,,127,0,1,,,,,0,,,68,70
79920,note_on,,,,,4,0,0,,,,,0,,,76,70
79976,note_on,,,,,56,0,0,,,,,0,,,76,0
79979,note_on,,,,,59,0,1,,,,,0,,,68,0
79979,note_on,,,,,0,0,1,,,,,0,,,71,0
79980,note_on,,,,,4,0,0,,,,,0,,,78,70
80036,note_on,,,,,56,0,0,,,,,0,,,78,0
80040,note_on,,,,,4,0,0,,,,,0,,,76,70
80040,note_on,,,,,61,0,1,,,,,0,,,62,70
80096,note_on,,,,,56,0,0,,,,,0,,,76,0
80099,note_on,,,,,59,0,1,,,,,0,,,62,0
80100,note_on,,,,,4,0,0,,,,,0,,,90,70
80156,note_on,,,,,56,0,0,,,,,0,,,90,0
80160,note_on,,,,,4,0,0,,,,,0,,,88,70
80160,note_on,,,,,0,0,1,,,,,0,,,73,70
80160,note_on,,,,,61,0,1,,,,,0,,,69,70
80216,note_on,,,,,56,0,0,,,,,0,,,88,0
80219,note_on,,,,,59,0,1,,,,,0,,,69,0
80219,note_on,,,,,0,0,1,,,,,0,,,73,0
80220,note_on,,,,,4,0,0,,,,,0,,,78,70
80276,note_on,,,,,56,0,0,,,,,0,,,78,0
80280,note_on,,,,,61,0,1,,,,,0,,,61,70
80280,note_on,,,,,4,0,0,,,,,0,,,76,70
80336,note_on,,,,,56,0,0,,,,,0,,,76,0
80339,note_on,,,,,59,0,1,,,,,0,,,61,0
80340,note_on,,,,,4,0,0,,,,,0,,,66,70
80396,note_on,,,,,56,0,0,,,,,0,,,66,0
80400,note_on,,,,,61,0,1,,,,,0,,,68,70
80400,note_on,,,,,4,0,0,,,,,0,,,64,70
80400,note_on,,,,,0,0,1,,,,,0,,,74,70
80456,note_on,,,,,56,0,0,,,,,0,,,64,0
80459,note_on,,,,,59,0,1,,,,,0,,,68,0
80459,note_on,,,,,0,0,1,,,,,0,,,74,0
80460,note_on,,,,,4,0,0,,,,,0,,,66,70
80516,note_on,,,,,56,0,0,,,,,0,,,66,0
80520,note_on,,,,,4,0,0,,,,,0,,,64,70
80520,note_on,,,,,61,0,1,,,,,0,,,59,70
80576,note_on,,,,,56,0,0,,,,,0,,,64,0
80579,note_on,,,,,59,0,1,,,,,0,,,59,0
80580,note_on,,,,,4,0,0,,,,,0,,,78,70
80636,note_on,,,,,56,0,0,,,,,0,,,78,0
80640,note_on,,,,,4,0,0,,,,,0,,,76,70
80640,note_on,,,,,61,0,1,,,,,0,,,57,70
80682,note_on,,,,,42,0,1,,,,,0,,,73,70
80696,note_on,,,,,56,0,0,,,,,0,,,76,0
80700,note_on,,,,,18,0,1,,,,,0,,,73,0
80700,note_on,,,,,4,0,0,,,,,0,,,73,70
80700,note_on,,,,,0,0,0,,,,,0,,,78,70
80756,note_on,,,,,56,0,0,,,,,0,,,78,0
80759,note_on,,,,,59,0,1,,,,,0,,,57,0
80759,note_on,,,,,3,0,0,,,,,0,,,73,0
80760,note_on,,,,,1,0,0,,,,,0,,,76,70
80760,note_on,,,,,0,0,0,,,,,0,,,85,70
80760,note_on,,,,,1,0,1,,,,,0,,,63,70
80803,note_on,,,,,43,0,1,,,,,0,,,63,0
80804,note_on,,,,,1,0,1,,,,,0,,,64,70
80816,note_on,,,,,56,0,0,,,,,0,,,76,0
80819,note_on,,,,,3,0,0,,,,,0,,,85,0
80820,note_on,,,,,1,0,0,,,,,0,,,73,70
80820,note_on,,,,,0,0,0,,,,,0,,,78,70
80827,note_on,,,,,23,0,1,,,,,0,,,64,0
80876,note_on,,,,,0,0,0,,,,,0,,,78,0
80876,note_on,,,,,56,0,0,,,,,0,,,73,0
80880,note_on,,,,,0,0,0,,,,,0,,,83,70
80880,note_on,,,,,53,0,1,,,,,0,,,49,70
80880,note_on,,,,,4,0,0,,,,,0,,,76,70
80918,note_on,,,,,38,0,1,,,,,0,,,49,0
80936,note_on,,,,,56,0,0,,,,,0,,,76,0
80939,note_on,,,,,3,0,0,,,,,0,,,83,0
80940,note_on,,,,,0,0,0,,,,,0,,,78,70
80940,note_on,,,,,1,0,0,,,,,0,,,73,70
80996,note_on,,,,,0,0,0,,,,,0,,,78,0
80996,note_on,,,,,56,0,0,,,,,0,,,73,0
81000,note_on,,,,,82,0,1,,,,,0,,,66,70
81000,note_on,,,,,4,0,0,,,,,0,,,76,70
81000,note_on,,,,,0,0,0,,,,,0,,,81,70
81043,note_on,,,,,43,0,1,,,,,0,,,66,0
81044,note_on,,,,,1,0,1,,,,,0,,,64,70
81056,note_on,,,,,56,0,0,,,,,0,,,76,0
81059,note_on,,,,,3,0,0,,,,,0,,,81,0
81060,note_on,,,,,0,0,0,,,,,0,,,78,70
81060,note_on,,,,,1,0,0,,,,,0,,,73,70
81067,note_on,,,,,23,0,1,,,,,0,,,64,0
81116,note_on,,,,,56,0,0,,,,,0,,,73,0
81116,note_on,,,,,0,0,0,,,,,0,,,78,0
81120,note_on,,,,,0,0,0,,,,,0,,,81,70
81120,note_on,,,,,53,0,1,,,,,0,,,40,70
81120,note_on,,,,,4,0,0,,,,,0,,,74,70
81158,note_on,,,,,38,0,1,,,,,0,,,40,0
81176,note_on,,,,,56,0,0,,,,,0,,,74,0
81179,note_on,,,,,3,0,0,,,,,0,,,81,0
81180,note_on,,,,,0,0,0,,,,,0,,,76,70
81180,note_on,,,,,1,0,0,,,,,0,,,71,70
81236,note_on,,,,,56,0,0,,,,,0,,,71,0
81236,note_on,,,,,0,0,0,,,,,0,,,76,0
81240,note_on,,,,,0,0,0,,,,,0,,,80,70
81240,note_on,,,,,4,0,0,,,,,0,,,74,70
81240,note_on,,,,,82,0,1,,,,,0,,,63,70
81283,note_on,,,,,43,0,1,,,,,0,,,63,0
81284,note_on,,,,,1,0,1,,,,,0,,,64,70
81296,note_on,,,,,56,0,0,,,,,0,,,74,0
81299,note_on,,,,,3,0,0,,,,,0,,,80,0
81300,note_on,,,,,1,0,0,,,,,0,,,71,70
81300,note_on,,,,,0,0,0,,,,,0,,,76,70
81307,note_on,,,,,23,0,1,,,,,0,,,64,0
81356,note_on,,,,,56,0,0,,,,,0,,,71,0
81356,note_on,,,,,0,0,0,,,,,0,,,76,0
81360,note_on,,,,,53,0,1,,,,,0,,,44,70
81360,note_on,,,,,4,0,0,,,,,0,,,74,70
81360,note_on,,,,,0,0,0,,,,,0,,,79,70
81398,note_on,,,,,38,0,1,,,,,0,,,44,0
81419,note_on,,,,,59,0,0,,,,,0,,,74,0
81419,note_on,,,,,0,0,0,,,,,0,,,79,0
81420,note_on,,,,,1,0,0,,,,,0,,,71,70
81420,note_on,,,,,0,0,0,,,,,0,,,78,70
81479,note_on,,,,,59,0,0,,,,,0,,,71,0
81479,note_on,,,,,0,0,0,,,,,0,,,78,0
81480,note_on,,,,,82,0,1,,,,,0,,,65,70
81480,note_on,,,,,1,0,0,,,,,0,,,74,70
81480,note_on,,,,,0,0,0,,,,,0,,,77,70
81523,note_on,,,,,43,0,1,,,,,0,,,65,0
81524,note_on,,,,,1,0,1,,,,,0,,,64,70
81536,note_on,,,,,56,0,0,,,,,0,,,74,0
81539,note_on,,,,,3,0,0,,,,,0,,,77,0
81540,note_on,,,,,1,0,0,,,,,0,,,71,70
81547,note_on,,,,,23,0,1,,,,,0,,,64,0
81596,note_on,,,,,56,0,0,,,,,0,,,71,0
81600,note_on,,,,,4,0,0,,,,,0,,,73,70
81600,note_on,,,,,0,0,0,,,,,0,,,76,70
81600,note_on,,,,,53,0,1,,,,,0,,,45,70
81638,note_on,,,,,38,0,0,,,,,0,,,76,0
81638,note_on,,,,,38,0,1,,,,,0,,,45,0
81656,note_on,,,,,18,0,0,,,,,0,,,73,0
81660,note_on,,,,,4,0,0,,,,,0,,,69,70
81716,note_on,,,,,56,0,0,,,,,0,,,69,0
81720,note_on,,,,,82,0,1,,,,,0,,,63,70
81720,note_on,,,,,4,0,0,,,,,0,,,73,70
81763,note_on,,,,,43,0,1,,,,,0,,,63,0
81764,note_on,,,,,1,0,1,,,,,0,,,64,70
81776,note_on,,,,,56,0,0,,,,,0,,,73,0
81780,note_on,,,,,4,0,0,,,,,0,,,78,70
81787,note_on,,,,,23,0,1,,,,,0,,,64,0
81836,note_on,,,,,56,0,0,,,,,0,,,78,0
81840,note_on,,,,,0,0,1,,,,,0,,,71,70
81840,note_on,,,,,4,0,0,,,,,0,,,76,70
81840,note_on,,,,,53,0,1,,,,,0,,,68,70
81896,note_on,,,,,56,0,0,,,,,0,,,76,0
81899,note_on,,,,,59,0,1,,,,,0,,,68,0
81899,note_on,,,,,0,0,1,,,,,0,,,71,0
81900,note_on,,,,,4,0,0,,,,,0,,,78,70
81956,note_on,,,,,56,0,0,,,,,0,,,78,0
81960,note_on,,,,,4,0,0,,,,,0,,,76,70
81960,note_on,,,,,61,0,1,,,,,0,,,63,70
82016,note_on,,,,,56,0,0,,,,,0,,,76,0
82019,note_on,,,,,59,0,1,,,,,0,,,63,0
82020,note_on,,,,,4,0,0,,,,,0,,,90,70
82076,note_on,,,,,56,0,0,,,,,0,,,90,0
82080,note_on,,,,,0,0,1,,,,,0,,,73,70
82080,note_on,,,,,61,0,1,,,,,0,,,69,70
82080,note_on,,,,,4,0,0,,,,,0,,,88,70
82136,note_on,,,,,56,0,0,,,,,0,,,88,0
82139,note_on,,,,,0,0,1,,,,,0,,,73,0
82139,note_on,,,,,59,0,1,,,,,0,,,69,0
82140,note_on,,,,,4,0,0,,,,,0,,,78,70
82196,note_on,,,,,56,0,0,,,,,0,,,78,0
82200,note_on,,,,,4,0,0,,,,,0,,,76,70
82200,note_on,,,,,61,0,1,,,,,0,,,61,70
82256,note_on,,,,,56,0,0,,,,,0,,,76,0
82259,note_on,,,,,59,0,1,,,,,0,,,61,0
82260,note_on,,,,,4,0,0,,,,,0,,,66,70
82316,note_on,,,,,56,0,0,,,,,0,,,66,0
82320,note_on,,,,,4,0,0,,,,,0,,,64,70
82320,note_on,,,,,0,0,0,,,,,0,,,64,0
82320,note_on,,,,,0,0,0,,,,,0,,,64,70
82320,note_on,,,,,61,0,1,,,,,0,,,68,70
82320,note_on,,,,,0,0,1,,,,,0,,,74,70
82379,note_on,,,,,59,0,1,,,,,0,,,68,0
82379,note_on,,,,,0,0,1,,,,,0,,,74,0
82380,note_on,,,,,60,0,0,,,,,0,,,66,70
82433,note_on,,,,,53,0,0,,,,,0,,,64,0
82436,note_on,,,,,3,0,0,,,,,0,,,66,0
82440,note_on,,,,,4,0,0,,,,,0,,,64,70
82440,note_on,,,,,61,0,1,,,,,0,,,59,70
82496,note_on,,,,,56,0,0,,,,,0,,,64,0
82499,note_on,,,,,59,0,1,,,,,0,,,59,0
82500,note_on,,,,,4,0,0,,,,,0,,,78,70
82556,note_on,,,,,56,0,0,,,,,0,,,78,0
82560,note_on,,,,,4,0,0,,,,,0,,,76,70
82560,note_on,,,,,61,0,1,,,,,0,,,57,70
82602,note_on,,,,,42,0,1,,,,,0,,,73,70
82616,note_on,,,,,56,0,0,,,,,0,,,76,0
82620,note_on,,,,,18,0,1,,,,,0,,,73,0
82620,note_on,,,,,4,0,0,,,,,0,,,73,70
82620,note_on,,,,,0,0,0,,,,,0,,,78,70
82676,note_on,,,,,56,0,0,,,,,0,,,78,0
82679,note_on,,,,,59,0,1,,,,,0,,,57,0
82679,note_on,,,,,3,0,0,,,,,0,,,73,0
82680,note_on,,,,,1,0,1,,,,,0,,,63,70
82680,note_on,,,,,1,0,0,,,,,0,,,76,70
82680,note_on,,,,,0,0,0,,,,,0,,,85,70
82723,note_on,,,,,43,0,1,,,,,0,,,63,0
82724,note_on,,,,,1,0,1,,,,,0,,,64,70
82736,note_on,,,,,56,0,0,,,,,0,,,76,0
82739,note_on,,,,,3,0,0,,,,,0,,,85,0
82740,note_on,,,,,1,0,0,,,,,0,,,73,70
82740,note_on,,,,,0,0,0,,,,,0,,,78,70
82747,note_on,,,,,23,0,1,,,,,0,,,64,0
82796,note_on,,,,,56,0,0,,,,,0,,,73,0
82796,note_on,,,,,0,0,0,,,,,0,,,78,0
82800,note_on,,,,,0,0,0,,,,,0,,,83,70
82800,note_on,,,,,4,0,0,,,,,0,,,76,70
82800,note_on,,,,,53,0,1,,,,,0,,,49,70
82838,note_on,,,,,38,0,1,,,,,0,,,49,0
82856,note_on,,,,,56,0,0,,,,,0,,,76,0
82859,note_on,,,,,3,0,0,,,,,0,,,83,0
82860,note_on,,,,,0,0,0,,,,,0,,,78,70
82860,note_on,,,,,1,0,0,,,,,0,,,73,70
82916,note_on,,,,,56,0,0,,,,,0,,,73,0
82916,note_on,,,,,0,0,0,,,,,0,,,78,0
82920,note_on,,,,,4,0,0,,,,,0,,,76,70
82920,note_on,,,,,0,0,0,,,,,0,,,81,70
82920,note_on,,,,,82,0,1,,,,,0,,,66,70
82963,note_on,,,,,43,0,1,,,,,0,,,66,0
82964,note_on,,,,,1,0,1,,,,,0,,,64,70
82976,note_on,,,,,56,0,0,,,,,0,,,76,0
82979,note_on,,,,,3,0,0,,,,,0,,,81,0
82980,note_on,,,,,1,0,0,,,,,0,,,73,70
82980,note_on,,,,,0,0,0,,,,,0,,,78,70
82987,note_on,,,,,23,0,1,,,,,0,,,64,0
83036,note_on,,,,,0,0,0,,,,,0,,,78,0
83036,note_on,,,,,56,0,0,,,,,0,,,73,0
83040,note_on,,,,,4,0,0,,,,,0,,,74,70
83040,note_on,,,,,0,0,0,,,,,0,,,81,70
83040,note_on,,,,,53,0,1,,,,,0,,,40,70
83078,note_on,,,,,38,0,1,,,,,0,,,40,0
83096,note_on,,,,,56,0,0,,,,,0,,,74,0
83099,note_on,,,,,3,0,0,,,,,0,,,81,0
83100,note_on,,,,,1,0,0,,,,,0,,,71,70
83100,note_on,,,,,0,0,0,,,,,0,,,76,70
83156,note_on,,,,,0,0,0,,,,,0,,,76,0
83156,note_on,,,,,56,0,0,,,,,0,,,71,0
83160,note_on,,,,,4,0,0,,,,,0,,,74,70
83160,note_on,,,,,0,0,0,,,,,0,,,80,70
83160,note_on,,,,,82,0,1,,,,,0,,,63,70
83203,note_on,,,,,43,0,1,,,,,0,,,63,0
83204,note_on,,,,,1,0,1,,,,,0,,,64,70
83216,note_on,,,,,56,0,0,,,,,0,,,74,0
83219,note_on,,,,,3,0,0,,,,,0,,,80,0
83220,note_on,,,,,0,0,0,,,,,0,,,76,70
83220,note_on,,,,,1,0,0,,,,,0,,,71,70
83227,note_on,,,,,23,0,1,,,,,0,,,64,0
83276,note_on,,,,,56,0,0,,,,,0,,,71,0
83276,note_on,,,,,0,0,0,,,,,0,,,76,0
83280,note_on,,,,,0,0,0,,,,,0,,,79,70
83280,note_on,,,,,4,0,0,,,,,0,,,74,70
83280,note_on,,,,,53,0,1,,,,,0,,,44,70
83318,note_on,,,,,38,0,1,,,,,0,,,44,0
83339,note_on,,,,,0,0,0,,,,,0,,,79,0
83339,note_on,,,,,59,0,0,,,,,0,,,74,0
83340,note_on,,,,,1,0,0,,,,,0,,,71,70
83340,note_on,,,,,0,0,0,,,,,0,,,78,70
83399,note_on,,,,,59,0,0,,,,,0,,,71,0
83399,note_on,,,,,0,0,0,,,,,0,,,78,0
83400,note_on,,,,,1,0,0,,,,,0,,,74,70
83400,note_on,,,,,82,0,1,,,,,0,,,65,70
83400,note_on,,,,,0,0,0,,,,,0,,,77,70
83443,note_on,,,,,43,0,1,,,,,0,,,65,0
83444,note_on,,,,,1,0,1,,,,,0,,,64,70
83456,note_on,,,,,56,0,0,,,,,0,,,74,0
83459,note_on,,,,,3,0,0,,,,,0,,,77,0
83460,note_on,,,,,1,0,0,,,,,0,,,71,70
83467,note_on,,,,,23,0,1,,,,,0,,,64,0
83516,note_on,,,,,56,0,0,,,,,0,,,71,0
83520,note_on,,,,,0,0,0,,,,,0,,,76,70
83520,note_on,,,,,53,0,1,,,,,0,,,45,70
83520,note_on,,,,,4,0,0,,,,,0,,,73,70
83558,note_on,,,,,38,0,0,,,,,0,,,76,0
83558,note_on,,,,,38,0,1,,,,,0,,,45,0
83576,note_on,,,,,18,0,0,,,,,0,,,73,0
83580,note_on,,,,,4,0,0,,,,,0,,,69,70
83636,note_on,,,,,56,0,0,,,,,0,,,69,0
83640,note_on,,,,,82,0,1,,,,,0,,,63,70
83640,note_on,,,,,4,0,0,,,,,0,,,73,70
83683,note_on,,,,,43,0,1,,,,,0,,,63,0
83684,note_on,,,,,1,0,1,,,,,0,,,64,70
83696,note_on,,,,,56,0,0,,,,,0,,,73,0
83700,note_on,,,,,4,0,0,,,,,0,,,78,70
83707,note_on,,,,,23,0,1,,,,,0,,,64,0
83756,note_on,,,,,56,0,0,,,,,0,,,78,0
83760,note_on,,,,,53,0,1,,,,,0,,,73,70
83760,note_on,,,,,0,0,1,,,,,0,,,76,70
83760,note_on,,,,,4,0,0,,,,,0,,,81,70
83816,note_on,,,,,56,0,0,,,,,0,,,81,0
83819,note_on,,,,,0,0,1,,,,,0,,,76,0
83819,note_on,,,,,59,0,1,,,,,0,,,73,0
83820,note_on,,,,,4,0,0,,,,,0,,,82,70
83876,note_on,,,,,56,0,0,,,,,0,,,82,0
83880,note_on,,,,,4,0,0,,,,,0,,,81,70
83880,note_on,,,,,61,0,1,,,,,0,,,67,70
83936,note_on,,,,,56,0,0,,,,,0,,,81,0
83939,note_on,,,,,59,0,1,,,,,0,,,67,0
83940,note_on,,,,,4,0,0,,,,,0,,,94,70
83996,note_on,,,,,56,0,0,,,,,0,,,94,0
84000,note_on,,,,,0,0,1,,,,,0,,,77,70
84000,note_on,,,,,61,0,1,,,,,0,,,74,70
84000,note_on,,,,,4,0,0,,,,,0,,,93,70
84056,note_on,,,,,56,0,0,,,,,0,,,93,0
84059,note_on,,,,,59,0,1,,,,,0,,,74,0
84059,note_on,,,,,0,0,1,,,,,0,,,77,0
84060,note_on,,,,,4,0,0,,,,,0,,,70,70
84116,note_on,,,,,56,0,0,,,,,0,,,70,0
84120,note_on,,,,,4,0,0,,,,,0,,,81,70
84120,note_on,,,,,61,0,1,,,,,0,,,65,70
84179,note_on,,,,,59,0,1,,,,,0,,,65,0
84179,note_on,,,,,59,0,0,,,,,0,,,81,0
84180,note_on,,,,,1,0,0,,,,,0,,,70,70
84239,note_on,,,,,59,0,0,,,,,0,,,70,0
84240,note_on,,,,,1,0,0,,,,,0,,,69,70
84240,note_on,,,,,0,0,0,,,,,0,,,69,70
84240,note_on,,,,,0,0,0,,,,,0,,,69,0
84240,note_on,,,,,0,0,1,,,,,0,,,79,70
84240,note_on,,,,,61,0,1,,,,,0,,,73,70
84299,note_on,,,,,59,0,1,,,,,0,,,73,0
84299,note_on,,,,,0,0,1,,,,,0,,,79,0
84300,note_on,,,,,60,0,0,,,,,0,,,70,70
84359,note_on,,,,,0,0,0,,,,,0,,,70,0
84359,note_on,,,,,59,0,0,,,,,0,,,69,0
84360,note_on,,,,,1,0,0,,,,,0,,,69,70
84360,note_on,,,,,61,0,1,,,,,0,,,64,70
84419,note_on,,,,,59,0,0,,,,,0,,,69,0
84419,note_on,,,,,59,0,1,,,,,0,,,64,0
84420,note_on,,,,,1,0,0,,,,,0,,,82,70
84476,note_on,,,,,56,0,0,,,,,0,,,82,0
84480,note_on,,,,,0,0,1,,,,,0,,,77,70
84480,note_on,,,,,4,0,0,,,,,0,,,81,70
84480,note_on,,,,,61,0,1,,,,,0,,,62,70
84536,note_on,,,,,56,0,0,,,,,0,,,81,0
84539,note_on,,,,,0,0,1,,,,,0,,,77,0
84539,note_on,,,,,59,0,1,,,,,0,,,62,0
84540,note_on,,,,,4,0,0,,,,,0,,,77,70
84540,note_on,,,,,0,0,0,,,,,0,,,82,70
84596,note_on,,,,,56,0,0,,,,,0,,,77,0
84596,note_on,,,,,0,0,0,,,,,0,,,82,0
84600,note_on,,,,,4,0,0,,,,,0,,,81,70
84600,note_on,,,,,0,0,0,,,,,0,,,89,70
84600,note_on,,,,,61,0,1,,,,,0,,,68,70
84643,note_on,,,,,43,0,1,,,,,0,,,68,0
84644,note_on,,,,,1,0,1,,,,,0,,,69,70
84656,note_on,,,,,56,0,0,,,,,0,,,81,0
84659,note_on,,,,,3,0,0,,,,,0,,,89,0
84660,note_on,,,,,1,0,0,,,,,0,,,77,70
84660,note_on,,,,,0,0,0,,,,,0,,,82,70
84667,note_on,,,,,23,0,1,,,,,0,,,69,0
84716,note_on,,,,,56,0,0,,,,,0,,,77,0
84716,note_on,,,,,0,0,0,,,,,0,,,82,0
84720,note_on,,,,,4,0,0,,,,,0,,,81,70
84720,note_on,,,,,0,0,0,,,,,0,,,88,70
84720,note_on,,,,,53,0,1,,,,,0,,,53,70
84758,note_on,,,,,38,0,1,,,,,0,,,53,0
84776,note_on,,,,,56,0,0,,,,,0,,,81,0
84779,note_on,,,,,3,0,0,,,,,0,,,88,0
84780,note_on,,,,,0,0,0,,,,,0,,,82,70
84780,note_on,,,,,1,0,0,,,,,0,,,77,70
84836,note_on,,,,,0,0,0,,,,,0,,,82,0
84836,note_on,,,,,56,0,0,,,,,0,,,77,0
84840,note_on,,,,,0,0,0,,,,,0,,,86,70
84840,note_on,,,,,4,0,0,,,,,0,,,81,70
84840,note_on,,,,,82,0,1,,,,,0,,,70,70
84883,note_on,,,,,43,0,1,,,,,0,,,70,0
84884,note_on,,,,,1,0,1,,,,,0,,,69,70
84896,note_on,,,,,56,0,0,,,,,0,,,81,0
84899,note_on,,,,,3,0,0,,,,,0,,,86,0
84900,note_on,,,,,0,0,0,,,,,0,,,82,70
84900,note_on,,,,,1,0,0,,,,,0,,,77,70
84907,note_on,,,,,23,0,1,,,,,0,,,69,0
84956,note_on,,,,,56,0,0,,,,,0,,,77,0
84956,note_on,,,,,0,0,0,,,,,0,,,82,0
84960,note_on,,,,,53,0,1,,,,,0,,,45,70
84960,note_on,,,,,0,0,0,,,,,0,,,86,70
84960,note_on,,,,,4,0,0,,,,,0,,,79,70
84998,note_on,,,,,38,0,1,,,,,0,,,45,0
85016,note_on,,,,,56,0,0,,,,,0,,,79,0
85019,note_on,,,,,3,0,0,,,,,0,,,86,0
85020,note_on,,,,,1,0,0,,,,,0,,,76,70
85020,note_on,,,,,0,0,0,,,,,0,,,81,70
85076,note_on,,,,,0,0,0,,,,,0,,,81,0
85076,note_on,,,,,56,0,0,,,,,0,,,76,0
85080,note_on,,,,,82,0,1,,,,,0,,,68,70
85080,note_on,,,,,0,0,0,,,,,0,,,85,70
85080,note_on,,,,,4,0,0,,,,,0,,,79,70
85123,note_on,,,,,43,0,1,,,,,0,,,68,0
85124,note_on,,,,,1,0,1,,,,,0,,,69,70
85136,note_on,,,,,56,0,0,,,,,0,,,79,0
85139,note_on,,,,,3,0,0,,,,,0,,,85,0
85140,note_on,,,,,0,0,0,,,,,0,,,81,70
85140,note_on,,,,,1,0,0,,,,,0,,,76,70
85147,note_on,,,,,23,0,1,,,,,0,,,69,0
85196,note_on,,,,,56,0,0,,,,,0,,,76,0
85196,note_on,,,,,0,0,0,,,,,0,,,81,0
85200,note_on,,,,,4,0,0,,,,,0,,,79,70
85200,note_on,,,,,53,0,1,,,,,0,,,49,70
85200,note_on,,,,,0,0,0,,,,,0,,,84,70
85238,note_on,,,,,38,0,1,,,,,0,,,49,0
85259,note_on,,,,,59,0,0,,,,,0,,,79,0
85259,note_on,,,,,0,0,0,,,,,0,,,84,0
85260,note_on,,,,,0,0,0,,,,,0,,,83,70
85260,note_on,,,,,1,0,0,,,,,0,,,76,70
85319,note_on,,,,,59,0,0,,,,,0,,,76,0
85319,note_on,,,,,0,0,0,,,,,0,,,83,0
85320,note_on,,,,,0,0,0,,,,,0,,,82,70
85320,note_on,,,,,82,0,1,,,,,0,,,70,70
85320,note_on,,,,,1,0,0,,,,,0,,,79,70
85363,note_on,,,,,43,0,1,,,,,0,,,70,0
85364,note_on,,,,,1,0,1,,,,,0,,,69,70
85376,note_on,,,,,56,0,0,,,,,0,,,79,0
85379,note_on,,,,,3,0,0,,,,,0,,,82,0
85380,note_on,,,,,1,0,0,,,,,0,,,76,70
85387,note_on,,,,,23,0,1,,,,,0,,,69,0
85436,note_on,,,,,56,0,0,,,,,0,,,76,0
85440,note_on,,,,,0,0,0,,,,,0,,,81,70
85440,note_on,,,,,53,0,1,,,,,0,,,50,70
85440,note_on,,,,,4,0,0,,,,,0,,,77,70
85478,note_on,,,,,38,0,0,,,,,0,,,81,0
85478,note_on,,,,,38,0,1,,,,,0,,,50,0
85496,note_on,,,,,18,0,0,,,,,0,,,77,0
85500,note_on,,,,,4,0,0,,,,,0,,,74,70
85556,note_on,,,,,56,0,0,,,,,0,,,74,0
85560,note_on,,,,,82,0,1,,,,,0,,,68,70
85560,note_on,,,,,4,0,0,,,,,0,,,78,70
85603,note_on,,,,,43,0,1,,,,,0,,,68,0
85604,note_on,,,,,1,0,1,,,,,0,,,69,70
85616,note_on,,,,,56,0,0,,,,,0,,,78,0
85620,note_on,,,,,4,0,0,,,,,0,,,82,70
85627,note_on,,,,,23,0,1,,,,,0,,,69,0
85676,note_on,,,,,56,0,0,,,,,0,,,82,0
85680,note_on,,,,,0,0,1,,,,,0,,,76,70
85680,note_on,,,,,53,0,1,,,,,0,,,73,70
85680,note_on,,,,,4,0,0,,,,,0,,,81,70
85736,note_on,,,,,56,0,0,,,,,0,,,81,0
85739,note_on,,,,,0,0,1,,,,,0,,,76,0
85739,note_on,,,,,59,0,1,,,,,0,,,73,0
85740,note_on,,,,,4,0,0,,,,,0,,,82,70
85796,note_on,,,,,56,0,0,,,,,0,,,82,0
85800,note_on,,,,,4,0,0,,,,,0,,,81,70
85800,note_on,,,,,61,0,1,,,,,0,,,67,70
85856,note_on,,,,,56,0,0,,,,,0,,,81,0
85859,note_on,,,,,59,0,1,,,,,0,,,67,0
85860,note_on,,,,,4,0,0,,,,,0,,,94,70
85916,note_on,,,,,56,0,0,,,,,0,,,94,0
85920,note_on,,,,,0,0,1,,,,,0,,,77,70
85920,note_on,,,,,4,0,0,,,,,0,,,93,70
85920,note_on,,,,,61,0,1,,,,,0,,,74,70
85976,note_on,,,,,56,0,0,,,,,0,,,93,0
85979,note_on,,,,,59,0,1,,,,,0,,,74,0
85979,note_on,,,,,0,0,1,,,,,0,,,77,0
85980,note_on,,,,,4,0,0,,,,,0,,,70,70
86036,note_on,,,,,56,0,0,,,,,0,,,70,0
86040,note_on,,,,,61,0,1,,,,,0,,,65,70
86040,note_on,,,,,4,0,0,,,,,0,,,81,70
86099,note_on,,,,,59,0,1,,,,,0,,,65,0
86099,note_on,,,,,59,0,0,,,,,0,,,81,0
86100,note_on,,,,,1,0,0,,,,,0,,,70,70
86159,note_on,,,,,59,0,0,,,,,0,,,70,0
86160,note_on,,,,,61,0,1,,,,,0,,,73,70
86160,note_on,,,,,1,0,0,,,,,0,,,69,70
86160,note_on,,,,,0,0,1,,,,,0,,,79,70
86160,note_on,,,,,0,0,0,,,,,0,,,69,70
86160,note_on,,,,,0,0,0,,,,,0,,,69,0
86219,note_on,,,,,0,0,1,,,,,0,,,79,0
86219,note_on,,,,,59,0,1,,,,,0,,,73,0
86220,note_on,,,,,60,0,0,,,,,0,,,70,70
86279,note_on,,,,,0,0,0,,,,,0,,,70,0
86279,note_on,,,,,59,0,0,,,,,0,,,69,0
86280,note_on,,,,,61,0,1,,,,,0,,,64,70
86280,note_on,,,,,1,0,0,,,,,0,,,69,70
86339,note_on,,,,,59,0,1,,,,,0,,,64,0
86339,note_on,,,,,59,0,0,,,,,0,,,69,0
86340,note_on,,,,,1,0,0,,,,,0,,,82,70
86396,note_on,,,,,56,0,0,,,,,0,,,82,0
86400,note_on,,,,,61,0,1,,,,,0,,,62,70
86400,note_on,,,,,4,0,0,,,,,0,,,81,70
86400,note_on,,,,,0,0,1,,,,,0,,,77,70
86456,note_on,,,,,56,0,0,,,,,0,,,81,0
86459,note_on,,,,,59,0,1,,,,,0,,,62,0
86459,note_on,,,,,0,0,1,,,,,0,,,77,0
86460,note_on,,,,,4,0,0,,,,,0,,,77,70
86460,note_on,,,,,0,0,0,,,,,0,,,82,70
86516,note_on,,,,,0,0,0,,,,,0,,,82,0
86516,note_on,,,,,56,0,0,,,,,0,,,77,0
86520,note_on,,,,,0,0,0,,,,,0,,,89,70
86520,note_on,,,,,4,0,0,,,,,0,,,81,70
86520,note_on,,,,,61,0,1,,,,,0,,,68,70
86563,note_on,,,,,43,0,1,,,,,0,,,68,0
86564,note_on,,,,,1,0,1,,,,,0,,,69,70
86576,note_on,,,,,56,0,0,,,,,0,,,81,0
86579,note_on,,,,,3,0,0,,,,,0,,,89,0
86580,note_on,,,,,1,0,0,,,,,0,,,77,70
86580,note_on,,,,,0,0,0,,,,,0,,,82,70
86587,note_on,,,,,23,0,1,,,,,0,,,69,0
86636,note_on,,,,,56,0,0,,,,,0,,,77,0
86636,note_on,,,,,0,0,0,,,,,0,,,82,0
86640,note_on,,,,,4,0,0,,,,,0,,,81,70
86640,note_on,,,,,53,0,1,,,,,0,,,53,70
86640,note_on,,,,,0,0,0,,,,,0,,,88,70
86678,note_on,,,,,38,0,1,,,,,0,,,53,0
86696,note_on,,,,,56,0,0,,,,,0,,,81,0
86699,note_on,,,,,3,0,0,,,,,0,,,88,0
86700,note_on,,,,,1,0,0,,,,,0,,,77,70
86700,note_on,,,,,0,0,0,,,,,0,,,82,70
86756,note_on,,,,,56,0,0,,,,,0,,,77,0
86756,note_on,,,,,0,0,0,,,,,0,,,82,0
86760,note_on,,,,,4,0,0,,,,,0,,,81,70
86760,note_on,,,,,0,0,0,,,,,0,,,86,70
86760,note_on,,,,,82,0,1,,,,,0,,,70,70
86803,note_on,,,,,43,0,1,,,,,0,,,70,0
86804,note_on,,,,,1,0,1,,,,,0,,,69,70
86816,note_on,,,,,56,0,0,,,,,0,,,81,0
86819,note_on,,,,,3,0,0,,,,,0,,,86,0
86820,note_on,,,,,1,0,0,,,,,0,,,77,70
86820,note_on,,,,,0,0,0,,,,,0,,,82,70
86827,note_on,,,,,23,0,1,,,,,0,,,69,0
86876,note_on,,,,,56,0,0,,,,,0,,,77,0
86876,note_on,,,,,0,0,0,,,,,0,,,82,0
86880,note_on,,,,,0,0,0,,,,,0,,,86,70
86880,note_on,,,,,53,0,1,,,,,0,,,45,70
86880,note_on,,,,,4,0,0,,,,,0,,,79,70
86918,note_on,,,,,38,0,1,,,,,0,,,45,0
86936,note_on,,,,,56,0,0,,,,,0,,,79,0
86939,note_on,,,,,3,0,0,,,,,0,,,86,0
86940,note_on,,,,,1,0,0,,,,,0,,,76,70
86940,note_on,,,,,0,0,0,,,,,0,,,81,70
86996,note_on,,,,,0,0,0,,,,,0,,,81,0
86996,note_on,,,,,56,0,0,,,,,0,,,76,0
87000,note_on,,,,,0,0,0,,,,,0,,,85,70
87000,note_on,,,,,82,0,1,,,,,0,,,68,70
87000,note_on,,,,,4,0,0,,,,,0,,,79,70
87043,note_on,,,,,43,0,1,,,,,0,,,68,0
87044,note_on,,,,,1,0,1,,,,,0,,,69,70
87056,note_on,,,,,56,0,0,,,,,0,,,79,0
87059,note_on,,,,,3,0,0,,,,,0,,,85,0
87060,note_on,,,,,0,0,0,,,,,0,,,81,70
87060,note_on,,,,,1,0,0,,,,,0,,,76,70
87067,note_on,,,,,23,0,1,,,,,0,,,69,0
87116,note_on,,,,,56,0,0,,,,,0,,,76,0
87116,note_on,,,,,0,0,0,,,,,0,,,81,0
87120,note_on,,,,,0,0,0,,,,,0,,,84,70
87120,note_on,,,,,4,0,0,,,,,0,,,79,70
87120,note_on,,,,,53,0,1,,,,,0,,,49,70
87158,note_on,,,,,38,0,1,,,,,0,,,49,0
87179,note_on,,,,,0,0,0,,,,,0,,,84,0
87179,note_on,,,,,59,0,0,,,,,0,,,79,0
87180,note_on,,,,,1,0,0,,,,,0,,,76,70
87180,note_on,,,,,0,0,0,,,,,0,,,83,70
87239,note_on,,,,,59,0,0,,,,,0,,,76,0
87239,note_on,,,,,0,0,0,,,,,0,,,83,0
87240,note_on,,,,,0,0,0,,,,,0,,,82,70
87240,note_on,,,,,1,0,0,,,,,0,,,79,70
87240,note_on,,,,,82,0,1,,,,,0,,,70,70
87283,note_on,,,,,43,0,1,,,,,0,,,70,0
87284,note_on,,,,,1,0,1,,,,,0,,,69,70
87296,note_on,,,,,56,0,0,,,,,0,,,79,0
87299,note_on,,,,,3,0,0,,,,,0,,,82,0
87300,note_on,,,,,1,0,0,,,,,0,,,76,70
87307,note_on,,,,,23,0,1,,,,,0,,,69,0
87356,note_on,,,,,56,0,0,,,,,0,,,76,0
87360,note_on,,,,,0,0,0,,,,,0,,,77,70
87360,note_on,,,,,0,0,0,,,,,0,,,81,70
87360,note_on,,,,,53,0,1,,,,,0,,,50,70
87360,time_signature,1,8,24,8,4,1,0,,,,,,,,,
87398,note_on,,,,,38,0,1,,,,,0,,,50,0
87416,note_on,,,,,56,0,0,,,,,0,,,77,0
87420,note_on,,,,,4,0,0,,,,,0,,,74,70
87473,note_on,,,,,53,0,0,,,,,0,,,81,0
87476,note_on,,,,,3,0,0,,,,,0,,,74,0
87480,note_on,,,,,4,0,0,,,,,0,,,77,70
87536,note_on,,,,,56,0,0,,,,,0,,,77,0
87540,note_on,,,,,4,0,0,,,,,0,,,86,70
87596,note_on,,,,,56,0,0,,,,,0,,,86,0
87600,time_signature,3,8,24,8,4,1,0,,,,,,,,,
87600,note_on,,,,,0,0,1,,,,,0,,,41,96
87600,note_on,,,,,0,0,0,,,,,0,,,77,96
87600,key_signature,,,,,202,1,1,Bb,,,,,,,,
87600,key_signature,,,,,0,1,0,Bb,,,,,,,,
87600,note_on,,,,,0,0,0,,,,,0,,,89,115
87600,note_on,,,,,0,0,1,,,,,0,,,29,96
87659,note_on,,,,,59,0,1,,,,,0,,,41,0
87659,note_on,,,,,59,0,0,,,,,0,,,77,0
87660,note_on,,,,,1,0,1,,,,,0,,,42,97
87660,note_on,,,,,0,0,0,,,,,0,,,84,97
87660,note_on,,,,,1,0,0,,,,,0,,,81,97
87719,note_on,,,,,59,0,1,,,,,0,,,42,0
87719,note_on,,,,,0,0,0,,,,,0,,,81,0
87719,note_on,,,,,59,0,0,,,,,0,,,89,0
87719,note_on,,,,,0,0,0,,,,,0,,,84,0
87720,note_on,,,,,1,0,1,,,,,0,,,41,98
87720,note_on,,,,,1,0,0,,,,,0,,,75,98
87779,note_on,,,,,59,0,0,,,,,0,,,75,0
87779,note_on,,,,,59,0,1,,,,,0,,,41,0
87780,note_on,,,,,1,0,1,,,,,0,,,42,100
87780,note_on,,,,,1,0,0,,,,,0,,,87,100
87780,note_on,,,,,0,0,0,,,,,0,,,87,0
87780,note_on,,,,,0,0,0,,,,,0,,,87,100
87836,note_on,,,,,56,0,1,,,,,0,,,42,0
87836,note_on,,,,,56,0,0,,,,,0,,,87,0
87839,note_on,,,,,3,0,1,,,,,0,,,29,0
87840,note_on,,,,,1,0,1,,,,,0,,,53,101
87840,note_on,,,,,4,0,0,,,,,0,,,73,101
87840,note_on,,,,,0,0,0,,,,,0,,,85,121
87840,note_on,,,,,0,0,1,,,,,0,,,41,101
87899,note_on,,,,,59,0,1,,,,,0,,,53,0
87899,note_on,,,,,59,0,0,,,,,0,,,73,0
87900,note_on,,,,,1,0,1,,,,,0,,,54,102
87900,note_on,,,,,0,0,0,,,,,0,,,82,102
87900,note_on,,,,,1,0,0,,,,,0,,,77,102
87959,note_on,,,,,59,0,1,,,,,0,,,54,0
87959,note_on,,,,,59,0,0,,,,,0,,,77,0
87959,note_on,,,,,0,0,0,,,,,0,,,82,0
87960,note_on,,,,,1,0,1,,,,,0,,,53,104
87960,note_on,,,,,1,0,0,,,,,0,,,74,104
88019,note_on,,,,,59,0,0,,,,,0,,,85,0
88019,note_on,,,,,59,0,1,,,,,0,,,53,0
88019,note_on,,,,,0,0,0,,,,,0,,,74,0
88020,note_on,,,,,1,0,1,,,,,0,,,54,105
88020,note_on,,,,,0,0,0,,,,,0,,,86,0
88020,note_on,,,,,0,0,0,,,,,0,,,86,105
88020,note_on,,,,,1,0,0,,,,,0,,,86,105
88076,note_on,,,,,56,0,1,,,,,0,,,54,0
88076,note_on,,,,,56,0,0,,,,,0,,,86,0
88079,note_on,,,,,3,0,1,,,,,0,,,41,0
88080,note_on,,,,,1,0,1,,,,,0,,,65,106
88080,note_on,,,,,4,0,0,,,,,0,,,68,106
88080,note_on,,,,,0,0,1,,,,,0,,,53,106
88080,note_on,,,,,0,0,0,,,,,0,,,80,127
88139,note_on,,,,,59,0,1,,,,,0,,,65,0
88139,note_on,,,,,59,0,0,,,,,0,,,68,0
88140,note_on,,,,,1,0,1,,,,,0,,,66,108
88140,note_on,,,,,0,0,0,,,,,0,,,75,108
88140,note_on,,,,,1,0,0,,,,,0,,,72,108
88199,note_on,,,,,59,0,1,,,,,0,,,66,0
88199,note_on,,,,,59,0,0,,,,,0,,,72,0
88199,note_on,,,,,0,0,0,,,,,0,,,75,0
88200,note_on,,,,,1,0,1,,,,,0,,,65,109
88200,note_on,,,,,1,0,0,,,,,0,,,69,109
88259,note_on,,,,,0,0,0,,,,,0,,,69,0
88259,note_on,,,,,59,0,1,,,,,0,,,65,0
88259,note_on,,,,,59,0,0,,,,,0,,,80,0
88260,note_on,,,,,1,0,0,,,,,0,,,81,110
88260,note_on,,,,,1,0,1,,,,,0,,,66,110
88260,note_on,,,,,0,0,0,,,,,0,,,81,110
88260,note_on,,,,,0,0,0,,,,,0,,,81,0
88316,note_on,,,,,56,0,0,,,,,0,,,81,0
88316,note_on,,,,,56,0,1,,,,,0,,,66,0
88319,note_on,,,,,3,0,1,,,,,0,,,53,0
88320,note_on,,,,,0,0,0,,,,,0,,,84,127
88320,note_on,,,,,0,0,0,,,,,0,,,72,112
88320,time_signature,2,4,24,8,4,1,0,,,,,,,,,
88320,note_on,,,,,1,0,1,,,,,0,,,65,112
88379,note_on,,,,,59,0,0,,,,,0,,,72,0
88379,note_on,,,,,59,0,1,,,,,0,,,65,0
88380,note_on,,,,,0,0,0,,,,,0,,,77,112
88380,note_on,,,,,1,0,1,,,,,0,,,67,112
88380,note_on,,,,,1,0,0,,,,,0,,,74,112
88439,note_on,,,,,59,0,0,,,,,0,,,74,0
88439,note_on,,,,,59,0,1,,,,,0,,,67,0
88439,note_on,,,,,0,0,0,,,,,0,,,77,0
88440,note_on,,,,,1,0,1,,,,,0,,,65,112
88440,note_on,,,,,1,0,0,,,,,0,,,70,112
88496,note_on,,,,,56,0,1,,,,,0,,,65,0
88499,note_on,,,,,0,0,0,,,,,0,,,70,0
88499,note_on,,,,,59,0,0,,,,,0,,,84,0
88500,note_on,,,,,0,0,0,,,,,0,,,82,0
88500,note_on,,,,,0,0,0,,,,,0,,,82,112
88500,note_on,,,,,1,0,0,,,,,0,,,82,112
88556,note_on,,,,,56,0,0,,,,,0,,,82,0
88560,note_on,,,,,0,0,0,,,,,0,,,89,127
88560,note_on,,,,,64,0,1,,,,,0,,,41,112
88560,note_on,,,,,4,0,0,,,,,0,,,77,112
88560,note_on,,,,,0,0,1,,,,,0,,,29,112
88619,note_on,,,,,59,0,0,,,,,0,,,77,0
88619,note_on,,,,,59,0,1,,,,,0,,,41,0
88620,note_on,,,,,1,0,0,,,,,0,,,81,112
88620,note_on,,,,,1,0,1,,,,,0,,,42,112
88620,note_on,,,,,0,0,0,,,,,0,,,84,112
88679,note_on,,,,,0,0,0,,,,,0,,,81,0
88679,note_on,,,,,59,0,1,,,,,0,,,42,0
88679,note_on,,,,,0,0,0,,,,,0,,,84,0
88679,note_on,,,,,59,0,0,,,,,0,,,89,0
88680,note_on,,,,,1,0,1,,,,,0,,,41,112
88680,note_on,,,,,1,0,0,,,,,0,,,75,112
88739,note_on,,,,,59,0,0,,,,,0,,,75,0
88739,note_on,,,,,59,0,1,,,,,0,,,41,0
88740,note_on,,,,,0,0,0,,,,,0,,,87,112
88740,note_on,,,,,0,0,0,,,,,0,,,87,0
88740,note_on,,,,,1,0,1,,,,,0,,,42,112
88740,note_on,,,,,1,0,0,,,,,0,,,87,112
88796,note_on,,,,,56,0,0,,,,,0,,,87,0
88796,note_on,,,,,56,0,1,,,,,0,,,42,0
88799,note_on,,,,,3,0,1,,,,,0,,,29,0
88800,note_on,,,,,0,0,0,,,,,0,,,85,127
88800,note_on,,,,,1,0,1,,,,,0,,,53,112
88800,note_on,,,,,0,0,1,,,,,0,,,41,112
88800,note_on,,,,,4,0,0,,,,,0,,,73,112
88859,note_on,,,,,59,0,0,,,,,0,,,73,0
88859,note_on,,,,,59,0,1,,,,,0,,,53,0
88860,note_on,,,,,1,0,1,,,,,0,,,54,112
88860,note_on,,,,,1,0,0,,,,,0,,,77,112
88860,note_on,,,,,0,0,0,,,,,0,,,82,112
88919,note_on,,,,,0,0,0,,,,,0,,,82,0
88919,note_on,,,,,59,0,1,,,,,0,,,54,0
88919,note_on,,,,,59,0,0,,,,,0,,,77,0
88920,note_on,,,,,1,0,0,,,,,0,,,74,112
88920,note_on,,,,,1,0,1,,,,,0,,,53,112
88979,note_on,,,,,0,0,0,,,,,0,,,74,0
88979,note_on,,,,,59,0,0,,,,,0,,,85,0
88979,note_on,,,,,59,0,1,,,,,0,,,53,0
88980,note_on,,,,,0,0,0,,,,,0,,,86,0
88980,note_on,,,,,1,0,1,,,,,0,,,54,112
88980,note_on,,,,,0,0,0,,,,,0,,,86,112
88980,note_on,,,,,1,0,0,,,,,0,,,86,112
89036,note_on,,,,,56,0,1,,,,,0,,,54,0
89036,note_on,,,,,56,0,0,,,,,0,,,86,0
89039,note_on,,,,,3,0,1,,,,,0,,,41,0
89040,note_on,,,,,4,0,0,,,,,0,,,68,112
89040,note_on,,,,,1,0,1,,,,,0,,,65,112
89040,note_on,,,,,0,0,0,,,,,0,,,80,127
89040,note_on,,,,,0,0,1,,,,,0,,,53,112
89099,note_on,,,,,59,0,1,,,,,0,,,65,0
89099,note_on,,,,,59,0,0,,,,,0,,,68,0
89100,note_on,,,,,0,0,0,,,,,0,,,75,112
89100,note_on,,,,,1,0,0,,,,,0,,,72,112
89100,note_on,,,,,1,0,1,,,,,0,,,66,112
89159,note_on,,,,,59,0,1,,,,,0,,,66,0
89159,note_on,,,,,0,0,0,,,,,0,,,75,0
89159,note_on,,,,,59,0,0,,,,,0,,,72,0
89160,note_on,,,,,1,0,0,,,,,0,,,69,112
89160,note_on,,,,,1,0,1,,,,,0,,,65,112
89219,note_on,,,,,59,0,0,,,,,0,,,80,0
89219,note_on,,,,,0,0,0,,,,,0,,,69,0
89219,note_on,,,,,59,0,1,,,,,0,,,65,0
89220,note_on,,,,,0,0,0,,,,,0,,,81,112
89220,note_on,,,,,0,0,0,,,,,0,,,81,0
89220,note_on,,,,,1,0,1,,,,,0,,,66,112
89220,note_on,,,,,1,0,0,,,,,0,,,81,112
89276,note_on,,,,,56,0,1,,,,,0,,,66,0
89276,note_on,,,,,56,0,0,,,,,0,,,81,0
89279,note_on,,,,,3,0,1,,,,,0,,,53,0
89280,note_on,,,,,1,0,1,,,,,0,,,65,112
89280,note_on,,,,,4,0,0,,,,,0,,,72,112
89280,note_on,,,,,0,0,0,,,,,0,,,84,127
89339,note_on,,,,,59,0,1,,,,,0,,,65,0
89339,note_on,,,,,59,0,0,,,,,0,,,72,0
89340,note_on,,,,,1,0,1,,,,,0,,,67,112
89340,note_on,,,,,1,0,0,,,,,0,,,74,112
89340,note_on,,,,,0,0,0,,,,,0,,,77,112
89399,note_on,,,,,59,0,1,,,,,0,,,67,0
89399,note_on,,,,,59,0,0,,,,,0,,,74,0
89399,note_on,,,,,0,0,0,,,,,0,,,77,0
89400,note_on,,,,,1,0,0,,,,,0,,,70,112
89400,note_on,,,,,1,0,1,,,,,0,,,65,112
89456,note_on,,,,,56,0,1,,,,,0,,,65,0
89459,note_on,,,,,59,0,0,,,,,0,,,84,0
89459,note_on,,,,,0,0,0,,,,,0,,,70,0
89460,note_on,,,,,0,0,0,,,,,0,,,82,0
89460,note_on,,,,,0,0,0,,,,,0,,,82,112
89460,note_on,,,,,1,0,0,,,,,0,,,82,112
89516,note_on,,,,,56,0,0,,,,,0,,,82,0
89520,note_on,,,,,4,0,0,,,,,0,,,82,112
89520,note_on,,,,,64,0,1,,,,,0,,,46,112
89520,note_on,,,,,0,0,0,,,,,0,,,94,127
89520,note_on,,,,,0,0,1,,,,,0,,,34,112
89579,note_on,,,,,59,0,0,,,,,0,,,82,0
89579,note_on,,,,,59,0,1,,,,,0,,,46,0
89580,note_on,,,,,1,0,1,,,,,0,,,47,112
89580,note_on,,,,,0,0,0,,,,,0,,,89,112
89580,note_on,,,,,1,0,0,,,,,0,,,86,112
89639,note_on,,,,,0,0,0,,,,,0,,,86,0
89639,note_on,,,,,59,0,1,,,,,0,,,47,0
89639,note_on,,,,,59,0,0,,,,,0,,,94,0
89639,note_on,,,,,0,0,0,,,,,0,,,89,0
89640,note_on,,,,,1,0,0,,,,,0,,,80,112
89640,note_on,,,,,1,0,1,,,,,0,,,46,112
89699,note_on,,,,,59,0,0,,,,,0,,,80,0
89699,note_on,,,,,59,0,1,,,,,0,,,46,0
89700,note_on,,,,,0,0,0,,,,,0,,,92,0
89700,note_on,,,,,1,0,0,,,,,0,,,92,112
89700,note_on,,,,,1,0,1,,,,,0,,,47,112
89700,note_on,,,,,0,0,0,,,,,0,,,92,112
89756,note_on,,,,,56,0,1,,,,,0,,,47,0
89756,note_on,,,,,56,0,0,,,,,0,,,92,0
89759,note_on,,,,,3,0,1,,,,,0,,,34,0
89760,note_on,,,,,0,0,0,,,,,0,,,89,127
89760,note_on,,,,,0,0,1,,,,,0,,,46,112
89760,note_on,,,,,1,0,1,,,,,0,,,58,112
89760,note_on,,,,,4,0,0,,,,,0,,,77,112
89819,note_on,,,,,59,0,1,,,,,0,,,58,0
89819,note_on,,,,,59,0,0,,,,,0,,,77,0
89820,note_on,,,,,0,0,0,,,,,0,,,87,112
89820,note_on,,,,,1,0,0,,,,,0,,,82,112
89820,note_on,,,,,1,0,1,,,,,0,,,59,112
89879,note_on,,,,,59,0,0,,,,,0,,,82,0
89879,note_on,,,,,59,0,1,,,,,0,,,59,0
89879,note_on,,,,,0,0,0,,,,,0,,,87,0
89880,note_on,,,,,1,0,1,,,,,0,,,58,112
89880,note_on,,,,,1,0,0,,,,,0,,,78,112
89939,note_on,,,,,59,0,0,,,,,0,,,89,0
89939,note_on,,,,,0,0,0,,,,,0,,,78,0
89939,note_on,,,,,59,0,1,,,,,0,,,58,0
89940,note_on,,,,,0,0,0,,,,,0,,,90,112
89940,note_on,,,,,0,0,0,,,,,0,,,90,0
89940,note_on,,,,,1,0,1,,,,,0,,,59,112
89940,note_on,,,,,1,0,0,,,,,0,,,90,112
89996,note_on,,,,,56,0,1,,,,,0,,,59,0
89996,note_on,,,,,56,0,0,,,,,0,,,90,0
89999,note_on,,,,,3,0,1,,,,,0,,,46,0
90000,note_on,,,,,0,0,1,,,,,0,,,58,112
90000,note_on,,,,,0,0,0,,,,,0,,,85,127
90000,note_on,,,,,1,0,1,,,,,0,,,70,112
90000,note_on,,,,,4,0,0,,,,,0,,,73,112
90059,note_on,,,,,59,0,0,,,,,0,,,73,0
90059,note_on,,,,,59,0,1,,,,,0,,,70,0
90060,note_on,,,,,1,0,0,,,,,0,,,77,112
90060,note_on,,,,,1,0,1,,,,,0,,,71,112
90060,note_on,,,,,0,0,0,,,,,0,,,80,112
90119,note_on,,,,,59,0,0,,,,,0,,,77,0
90119,note_on,,,,,59,0,1,,,,,0,,,71,0
90119,note_on,,,,,0,0,0,,,,,0,,,80,0
90120,note_on,,,,,1,0,0,,,,,0,,,74,112
90120,note_on,,,,,1,0,1,,,,,0,,,70,112
90179,note_on,,,,,59,0,1,,,,,0,,,70,0
90179,note_on,,,,,0,0,0,,,,,0,,,74,0
90179,note_on,,,,,59,0,0,,,,,0,,,85,0
90180,note_on,,,,,1,0,0,,,,,0,,,86,112
90180,note_on,,,,,1,0,1,,,,,0,,,71,112
90180,note_on,,,,,0,0,0,,,,,0,,,86,0
90180,note_on,,,,,0,0,0,,,,,0,,,86,112
90236,note_on,,,,,56,0,1,,,,,0,,,71,0
90236,note_on,,,,,56,0,0,,,,,0,,,86,0
90239,note_on,,,,,3,0,1,,,,,0,,,58,0
90240,note_on,,,,,1,0,1,,,,,0,,,70,112
90240,note_on,,,,,0,0,0,,,,,0,,,89,127
90240,note_on,,,,,4,0,0,,,,,0,,,77,112
90299,note_on,,,,,59,0,0,,,,,0,,,77,0
90300,note_on,,,,,1,0,0,,,,,0,,,78,112
90300,note_on,,,,,0,0,0,,,,,0,,,82,112
90318,note_on,,,,,78,0,1,,,,,0,,,70,0
90359,note_on,,,,,0,0,0,,,,,0,,,82,0
90359,note_on,,,,,59,0,0,,,,,0,,,78,0
90360,note_on,,,,,1,0,0,,,,,0,,,75,112
90419,note_on,,,,,0,0,0,,,,,0,,,75,0
90419,note_on,,,,,59,0,0,,,,,0,,,89,0
90420,note_on,,,,,1,0,0,,,,,0,,,87,112
90420,note_on,,,,,0,0,0,,,,,0,,,87,0
90420,note_on,,,,,0,0,0,,,,,0,,,87,112
90476,note_on,,,,,56,0,0,,,,,0,,,87,0
90480,note_on,,,,,162,0,1,,,,,0,,,46,112
90480,note_on,,,,,0,0,1,,,,,0,,,34,112
90480,note_on,,,,,0,0,0,,,,,0,,,94,127
90480,note_on,,,,,4,0,0,,,,,0,,,82,112
90539,note_on,,,,,59,0,0,,,,,0,,,82,0
90539,note_on,,,,,59,0,1,,,,,0,,,46,0
90540,note_on,,,,,0,0,0,,,,,0,,,89,112
90540,note_on,,,,,1,0,1,,,,,0,,,47,112
90540,note_on,,,,,1,0,0,,,,,0,,,86,112
90599,note_on,,,,,59,0,0,,,,,0,,,94,0
90599,note_on,,,,,0,0,0,,,,,0,,,86,0
90599,note_on,,,,,0,0,0,,,,,0,,,89,0
90599,note_on,,,,,59,0,1,,,,,0,,,47,0
90600,note_on,,,,,1,0,1,,,,,0,,,46,112
90600,note_on,,,,,1,0,0,,,,,0,,,80,112
90659,note_on,,,,,59,0,0,,,,,0,,,80,0
90659,note_on,,,,,59,0,1,,,,,0,,,46,0
90660,note_on,,,,,1,0,0,,,,,0,,,92,112
90660,note_on,,,,,1,0,1,,,,,0,,,47,112
90660,note_on,,,,,0,0,0,,,,,0,,,92,0
90660,note_on,,,,,0,0,0,,,,,0,,,92,112
90716,note_on,,,,,56,0,1,,,,,0,,,47,0
90716,note_on,,,,,56,0,0,,,,,0,,,92,0
90719,note_on,,,,,3,0,1,,,,,0,,,34,0
90720,note_on,,,,,1,0,1,,,,,0,,,58,112
90720,note_on,,,,,4,0,0,,,,,0,,,77,112
90720,note_on,,,,,0,0,1,,,,,0,,,46,112
90720,note_on,,,,,0,0,0,,,,,0,,,89,127
90779,note_on,,,,,59,0,1,,,,,0,,,58,0
90779,note_on,,,,,59,0,0,,,,,0,,,77,0
90780,note_on,,,,,0,0,0,,,,,0,,,87,112
90780,note_on,,,,,1,0,1,,,,,0,,,59,112
90780,note_on,,,,,1,0,0,,,,,0,,,82,112
90839,note_on,,,,,59,0,0,,,,,0,,,82,0
90839,note_on,,,,,0,0,0,,,,,0,,,87,0
90839,note_on,,,,,59,0,1,,,,,0,,,59,0
90840,note_on,,,,,1,0,0,,,,,0,,,78,112
90840,note_on,,,,,1,0,1,,,,,0,,,58,112
90899,note_on,,,,,59,0,1,,,,,0,,,58,0
90899,note_on,,,,,59,0,0,,,,,0,,,89,0
90899,note_on,,,,,0,0,0,,,,,0,,,78,0
90900,note_on,,,,,1,0,0,,,,,0,,,90,112
90900,note_on,,,,,1,0,1,,,,,0,,,59,112
90900,note_on,,,,,0,0,0,,,,,0,,,90,112
90900,note_on,,,,,0,0,0,,,,,0,,,90,0
90956,note_on,,,,,56,0,1,,,,,0,,,59,0
90956,note_on,,,,,56,0,0,,,,,0,,,90,0
90959,note_on,,,,,3,0,1,,,,,0,,,46,0
90960,note_on,,,,,4,0,0,,,,,0,,,73,112
90960,note_on,,,,,1,0,1,,,,,0,,,70,112
90960,note_on,,,,,0,0,0,,,,,0,,,85,127
90960,note_on,,,,,0,0,1,,,,,0,,,58,112
91019,note_on,,,,,59,0,1,,,,,0,,,70,0
91019,note_on,,,,,59,0,0,,,,,0,,,73,0
91020,note_on,,,,,0,0,0,,,,,0,,,80,112
91020,note_on,,,,,1,0,0,,,,,0,,,77,112
91020,note_on,,,,,1,0,1,,,,,0,,,71,112
91079,note_on,,,,,0,0,0,,,,,0,,,80,0
91079,note_on,,,,,59,0,1,,,,,0,,,71,0
91079,note_on,,,,,59,0,0,,,,,0,,,77,0
91080,note_on,,,,,1,0,1,,,,,0,,,70,112
91080,note_on,,,,,1,0,0,,,,,0,,,74,112
91139,note_on,,,,,59,0,0,,,,,0,,,85,0
91139,note_on,,,,,59,0,1,,,,,0,,,70,0
91139,note_on,,,,,0,0,0,,,,,0,,,74,0
91140,note_on,,,,,0,0,0,,,,,0,,,86,112
91140,note_on,,,,,0,0,0,,,,,0,,,86,0
91140,note_on,,,,,1,0,1,,,,,0,,,71,112
91140,note_on,,,,,1,0,0,,,,,0,,,86,112
91196,note_on,,,,,56,0,0,,,,,0,,,86,0
91196,note_on,,,,,56,0,1,,,,,0,,,71,0
91199,note_on,,,,,3,0,1,,,,,0,,,58,0
91200,note_on,,,,,1,0,1,,,,,0,,,70,112
91200,note_on,,,,,0,0,0,,,,,0,,,89,127
91200,note_on,,,,,4,0,0,,,,,0,,,77,112
91259,note_on,,,,,59,0,0,,,,,0,,,77,0
91260,note_on,,,,,0,0,0,,,,,0,,,82,112
91260,note_on,,,,,1,0,0,,,,,0,,,78,112
91278,note_on,,,,,78,0,1,,,,,0,,,70,0
91319,note_on,,,,,59,0,0,,,,,0,,,78,0
91319,note_on,,,,,0,0,0,,,,,0,,,82,0
91320,note_on,,,,,1,0,0,,,,,0,,,75,112
91379,note_on,,,,,0,0,0,,,,,0,,,75,0
91379,note_on,,,,,59,0,0,,,,,0,,,89,0
91380,note_on,,,,,0,0,0,,,,,0,,,87,112
91380,note_on,,,,,1,0,0,,,,,0,,,87,112
91380,note_on,,,,,0,0,0,,,,,0,,,87,0
91436,note_on,,,,,56,0,0,,,,,0,,,87,0
91440,note_on,,,,,0,0,1,,,,,0,,,46,112
91440,note_on,,,,,0,0,0,,,,,0,,,97,112
91440,note_on,,,,,4,0,0,,,,,0,,,85,112
91440,note_on,,,,,162,0,1,,,,,0,,,34,112
91478,note_on,,,,,38,0,1,,,,,0,,,34,0
91478,note_on,,,,,0,0,1,,,,,0,,,46,0
91499,note_on,,,,,59,0,0,,,,,0,,,85,0
91500,note_on,,,,,1,0,0,,,,,0,,,90,112
91559,note_on,,,,,59,0,0,,,,,0,,,90,0
91560,note_on,,,,,0,0,1,,,,,0,,,54,112
91560,note_on,,,,,82,0,1,,,,,0,,,42,112
91560,note_on,,,,,1,0,0,,,,,0,,,85,112
91598,note_on,,,,,38,0,1,,,,,0,,,42,0
91598,note_on,,,,,0,0,1,,,,,0,,,54,0
91619,note_on,,,,,59,0,0,,,,,0,,,97,0
91619,note_on,,,,,0,0,0,,,,,0,,,85,0
91620,note_on,,,,,0,0,0,,,,,0,,,97,112
91620,note_on,,,,,0,0,0,,,,,0,,,97,0
91620,note_on,,,,,1,0,0,,,,,0,,,97,112
91676,note_on,,,,,56,0,0,,,,,0,,,97,0
91680,note_on,,,,,0,0,0,,,,,0,,,100,112
91680,note_on,,,,,4,0,0,,,,,0,,,88,112
91680,note_on,,,,,0,0,1,,,,,0,,,47,112
91680,note_on,,,,,82,0,1,,,,,0,,,35,112
91718,note_on,,,,,38,0,1,,,,,0,,,35,0
91718,note_on,,,,,0,0,1,,,,,0,,,47,0
91739,note_on,,,,,59,0,0,,,,,0,,,88,0
91740,note_on,,,,,1,0,0,,,,,0,,,90,112
91799,note_on,,,,,59,0,0,,,,,0,,,90,0
91800,note_on,,,,,82,0,1,,,,,0,,,42,112
91800,note_on,,,,,1,0,0,,,,,0,,,87,112
91800,note_on,,,,,0,0,1,,,,,0,,,54,112
91838,note_on,,,,,38,0,1,,,,,0,,,42,0
91838,note_on,,,,,0,0,1,,,,,0,,,54,0
91859,note_on,,,,,0,0,0,,,,,0,,,87,0
91859,note_on,,,,,59,0,0,,,,,0,,,100,0
91860,note_on,,,,,0,0,0,,,,,0,,,99,0
91860,note_on,,,,,0,0,0,,,,,0,,,99,112
91860,note_on,,,,,1,0,0,,,,,0,,,99,112
91916,note_on,,,,,56,0,0,,,,,0,,,99,0
91920,note_on,,,,,4,0,0,,,,,0,,,81,112
91920,note_on,,,,,0,0,1,,,,,0,,,49,112
91920,note_on,,,,,0,0,0,,,,,0,,,93,112
91920,note_on,,,,,82,0,1,,,,,0,,,37,112
91958,note_on,,,,,38,0,1,,,,,0,,,37,0
91958,note_on,,,,,0,0,1,,,,,0,,,49,0
91979,note_on,,,,,59,0,0,,,,,0,,,81,0
91980,note_on,,,,,1,0,0,,,,,0,,,88,112
91980,note_on,,,,,0,0,0,,,,,0,,,90,112
92039,note_on,,,,,0,0,0,,,,,0,,,90,0
92039,note_on,,,,,59,0,0,,,,,0,,,88,0
92040,note_on,,,,,82,0,1,,,,,0,,,42,112
92040,note_on,,,,,1,0,0,,,,,0,,,82,112
92040,note_on,,,,,0,0,1,,,,,0,,,54,112
92078,note_on,,,,,38,0,1,,,,,0,,,42,0
92078,note_on,,,,,0,0,1,,,,,0,,,54,0
92099,note_on,,,,,0,0,0,,,,,0,,,82,0
92099,note_on,,,,,59,0,0,,,,,0,,,93,0
92100,note_on,,,,,0,0,0,,,,,0,,,94,112
92100,note_on,,,,,1,0,0,,,,,0,,,94,112
92100,note_on,,,,,0,0,0,,,,,0,,,94,0
92156,note_on,,,,,56,0,0,,,,,0,,,94,0
92160,note_on,,,,,0,0,1,,,,,0,,,51,112
92160,note_on,,,,,82,0,1,,,,,0,,,39,112
92160,note_on,,,,,0,0,0,,,,,0,,,97,112
92160,note_on,,,,,4,0,0,,,,,0,,,85,112
92198,note_on,,,,,0,0,1,,,,,0,,,51,0
92198,note_on,,,,,38,0,1,,,,,0,,,39,0
92216,note_on,,,,,56,0,0,,,,,0,,,85,0
92220,note_on,,,,,4,0,0,,,,,0,,,87,112
92220,note_on,,,,,0,0,0,,,,,0,,,90,112
92276,note_on,,,,,56,0,0,,,,,0,,,87,0
92276,note_on,,,,,0,0,0,,,,,0,,,90,0
92280,note_on,,,,,4,0,0,,,,,0,,,83,112
92280,note_on,,,,,82,0,1,,,,,0,,,42,112
92280,note_on,,,,,0,0,1,,,,,0,,,54,112
92318,note_on,,,,,38,0,1,,,,,0,,,42,0
92318,note_on,,,,,0,0,1,,,,,0,,,54,0
92330,note_on,,,,,50,0,0,,,,,0,,,97,0
92336,note_on,,,,,6,0,0,,,,,0,,,83,0
92340,note_on,,,,,0,0,0,,,,,0,,,95,0
92340,note_on,,,,,0,0,0,,,,,0,,,95,112
92340,note_on,,,,,4,0,0,,,,,0,,,95,112
92396,note_on,,,,,56,0,0,,,,,0,,,95,0
92400,note_on,,,,,0,0,0,,,,,0,,,96,112
92400,note_on,,,,,4,0,0,,,,,0,,,91,112
92400,note_on,,,,,0,0,1,,,,,0,,,52,112
92400,note_on,,,,,82,0,1,,,,,0,,,40,112
92402,control_change,,,,,2,0,0,,,64,127,0,,,,
92456,note_on,,,,,0,0,0,,,,,0,,,96,0
92456,note_on,,,,,54,0,0,,,,,0,,,91,0
92460,note_on,,,,,4,0,0,,,,,0,,,85,112
92460,note_on,,,,,0,0,0,,,,,0,,,94,112
92513,note_on,,,,,113,0,1,,,,,0,,,40,0
92513,note_on,,,,,0,0,1,,,,,0,,,52,0
92516,note_on,,,,,56,0,0,,,,,0,,,85,0
92516,note_on,,,,,0,0,0,,,,,0,,,94,0
92520,note_on,,,,,0,0,1,,,,,0,,,55,112
92520,note_on,,,,,0,0,0,,,,,0,,,96,112
92520,note_on,,,,,7,0,1,,,,,0,,,46,112
92520,note_on,,,,,4,0,0,,,,,0,,,91,112
92576,note_on,,,,,0,0,0,,,,,0,,,96,0
92576,note_on,,,,,56,0,0,,,,,0,,,91,0
92580,note_on,,,,,0,0,0,,,,,0,,,94,112
92580,note_on,,,,,4,0,0,,,,,0,,,85,112
92633,note_on,,,,,0,0,1,,,,,0,,,55,0
92633,note_on,,,,,113,0,1,,,,,0,,,46,0
92636,note_on,,,,,0,0,0,,,,,0,,,94,0
92636,note_on,,,,,56,0,0,,,,,0,,,85,0
92640,note_on,,,,,0,0,1,,,,,0,,,58,112
92640,note_on,,,,,0,0,0,,,,,0,,,93,112
92640,note_on,,,,,7,0,1,,,,,0,,,49,112
92640,note_on,,,,,4,0,0,,,,,0,,,88,112
92696,note_on,,,,,56,0,0,,,,,0,,,88,0
92696,note_on,,,,,0,0,0,,,,,0,,,93,0
92700,note_on,,,,,0,0,0,,,,,0,,,91,112
92700,note_on,,,,,4,0,0,,,,,0,,,82,112
92753,note_on,,,,,0,0,1,,,,,0,,,58,0
92753,note_on,,,,,113,0,1,,,,,0,,,49,0
92756,note_on,,,,,56,0,0,,,,,0,,,82,0
92756,note_on,,,,,0,0,0,,,,,0,,,91,0
92760,note_on,,,,,7,0,1,,,,,0,,,52,112
92760,note_on,,,,,0,0,0,,,,,0,,,93,112
92760,note_on,,,,,0,0,1,,,,,0,,,61,112
92760,note_on,,,,,4,0,0,,,,,0,,,88,112
92816,note_on,,,,,56,0,0,,,,,0,,,88,0
92816,note_on,,,,,0,0,0,,,,,0,,,93,0
92820,note_on,,,,,4,0,0,,,,,0,,,82,112
92820,note_on,,,,,0,0,0,,,,,0,,,91,112
92873,note_on,,,,,113,0,1,,,,,0,,,52,0
92873,note_on,,,,,0,0,1,,,,,0,,,61,0
92876,note_on,,,,,56,0,0,,,,,0,,,82,0
92876,note_on,,,,,0,0,0,,,,,0,,,91,0
92880,note_on,,,,,4,0,0,,,,,0,,,85,112
92880,note_on,,,,,0,0,1,,,,,0,,,64,112
92880,note_on,,,,,7,0,1,,,,,0,,,55,112
92880,note_on,,,,,0,0,0,,,,,0,,,90,112
92936,note_on,,,,,56,0,0,,,,,0,,,85,0
92936,note_on,,,,,0,0,0,,,,,0,,,90,0
92940,note_on,,,,,0,0,0,,,,,0,,,88,112
92940,note_on,,,,,4,0,0,,,,,0,,,79,112
92993,note_on,,,,,113,0,1,,,,,0,,,55,0
92993,note_on,,,,,0,0,1,,,,,0,,,64,0
92996,note_on,,,,,0,0,0,,,,,0,,,88,0
92996,note_on,,,,,56,0,0,,,,,0,,,79,0
93000,note_on,,,,,7,0,1,,,,,0,,,58,112
93000,note_on,,,,,0,0,0,,,,,0,,,90,112
93000,note_on,,,,,4,0,0,,,,,0,,,85,112
93000,note_on,,,,,0,0,1,,,,,0,,,67,112
93056,note_on,,,,,0,0,0,,,,,0,,,90,0
93056,note_on,,,,,56,0,0,,,,,0,,,85,0
93060,note_on,,,,,0,0,0,,,,,0,,,88,112
93060,note_on,,,,,4,0,0,,,,,0,,,79,112
93113,note_on,,,,,0,0,1,,,,,0,,,67,0
93113,note_on,,,,,113,0,1,,,,,0,,,58,0
93116,note_on,,,,,56,0,0,,,,,0,,,79,0
93116,note_on,,,,,0,0,0,,,,,0,,,88,0
93120,note_on,,,,,0,0,1,,,,,0,,,70,112
93120,note_on,,,,,7,0,1,,,,,0,,,61,112
93120,note_on,,,,,4,0,0,,,,,0,,,79,112
93120,note_on,,,,,0,0,0,,,,,0,,,87,112
93176,note_on,,,,,56,0,0,,,,,0,,,79,0
93176,note_on,,,,,0,0,0,,,,,0,,,87,0
93180,note_on,,,,,4,0,0,,,,,0,,,76,112
93180,note_on,,,,,0,0,0,,,,,0,,,85,112
93233,note_on,,,,,0,0,1,,,,,0,,,70,0
93233,note_on,,,,,113,0,1,,,,,0,,,61,0
93236,note_on,,,,,56,0,0,,,,,0,,,76,0
93236,note_on,,,,,0,0,0,,,,,0,,,85,0
93240,note_on,,,,,7,0,1,,,,,0,,,64,112
93240,note_on,,,,,0,0,1,,,,,0,,,73,112
93240,note_on,,,,,0,0,0,,,,,0,,,87,112
93240,note_on,,,,,4,0,0,,,,,0,,,79,112
93296,note_on,,,,,0,0,0,,,,,0,,,87,0
93296,note_on,,,,,56,0,0,,,,,0,,,79,0
93300,note_on,,,,,0,0,0,,,,,0,,,85,112
93300,note_on,,,,,4,0,0,,,,,0,,,76,112
93301,control_change,,,,,1,0,0,,,64,0,0,,,,
93353,note_on,,,,,113,0,1,,,,,0,,,64,0
93353,note_on,,,,,0,0,1,,,,,0,,,73,0
93356,note_on,,,,,55,0,0,,,,,0,,,76,0
93356,note_on,,,,,0,0,0,,,,,0,,,85,0
93360,note_on,,,,,0,0,0,,,,,0,,,84,127
93360,note_on,,,,,4,0,0,,,,,0,,,79,127
93360,note_on,,,,,7,0,1,,,,,0,,,76,112
93398,note_on,,,,,38,0,1,,,,,0,,,76,0
93419,note_on,,,,,0,0,0,,,,,0,,,84,0
93419,note_on,,,,,59,0,0,,,,,0,,,79,0
93420,note_on,,,,,1,0,0,,,,,0,,,73,112
93420,note_on,,,,,0,0,0,,,,,0,,,81,112
93476,note_on,,,,,56,0,0,,,,,0,,,73,0
93476,note_on,,,,,0,0,0,,,,,0,,,81,0
93480,note_on,,,,,4,0,0,,,,,0,,,79,108
93480,note_on,,,,,82,0,1,,,,,0,,,64,108
93480,note_on,,,,,0,0,0,,,,,0,,,84,108
93518,note_on,,,,,38,0,1,,,,,0,,,64,0
93536,note_on,,,,,56,0,0,,,,,0,,,79,0
93536,note_on,,,,,0,0,0,,,,,0,,,84,0
93540,note_on,,,,,4,0,0,,,,,0,,,73,104
93540,note_on,,,,,0,0,0,,,,,0,,,82,104
93596,note_on,,,,,56,0,0,,,,,0,,,73,0
93596,note_on,,,,,0,0,0,,,,,0,,,82,0
93600,note_on,,,,,4,0,0,,,,,0,,,76,120
93600,note_on,,,,,82,0,1,,,,,0,,,73,100
93600,note_on,,,,,0,0,0,,,,,0,,,81,120
93638,note_on,,,,,38,0,1,,,,,0,,,73,0
93659,note_on,,,,,59,0,0,,,,,0,,,76,0
93659,note_on,,,,,0,0,0,,,,,0,,,81,0
93660,note_on,,,,,0,0,0,,,,,0,,,78,96
93660,note_on,,,,,1,0,0,,,,,0,,,70,96
93716,note_on,,,,,0,0,0,,,,,0,,,78,0
93716,note_on,,,,,56,0,0,,,,,0,,,70,0
93720,note_on,,,,,4,0,0,,,,,0,,,76,91
93720,note_on,,,,,0,0,0,,,,,0,,,81,91
93720,note_on,,,,,82,0,1,,,,,0,,,61,91
93758,note_on,,,,,38,0,1,,,,,0,,,61,0
93776,note_on,,,,,56,0,0,,,,,0,,,76,0
93776,note_on,,,,,0,0,0,,,,,0,,,81,0
93780,note_on,,,,,4,0,0,,,,,0,,,70,87
93780,note_on,,,,,0,0,0,,,,,0,,,79,87
93836,note_on,,,,,0,0,0,,,,,0,,,79,0
93836,note_on,,,,,56,0,0,,,,,0,,,70,0
93840,note_on,,,,,4,0,0,,,,,0,,,73,99
93840,note_on,,,,,0,0,0,,,,,0,,,77,99
93840,note_on,,,,,82,0,1,,,,,0,,,70,83
93878,note_on,,,,,38,0,1,,,,,0,,,70,0
93899,note_on,,,,,0,0,0,,,,,0,,,77,0
93899,note_on,,,,,59,0,0,,,,,0,,,73,0
93900,note_on,,,,,0,0,0,,,,,0,,,75,79
93900,note_on,,,,,1,0,0,,,,,0,,,67,79
93956,note_on,,,,,0,0,0,,,,,0,,,75,0
93956,note_on,,,,,56,0,0,,,,,0,,,67,0
93960,note_on,,,,,4,0,0,,,,,0,,,73,75
93960,note_on,,,,,82,0,1,,,,,0,,,58,75
93960,note_on,,,,,0,0,0,,,,,0,,,77,75
93998,note_on,,,,,38,0,1,,,,,0,,,58,0
94016,note_on,,,,,0,0,0,,,,,0,,,77,0
94016,note_on,,,,,56,0,0,,,,,0,,,73,0
94020,note_on,,,,,4,0,0,,,,,0,,,67,70
94020,note_on,,,,,0,0,0,,,,,0,,,76,70
94076,note_on,,,,,56,0,0,,,,,0,,,67,0
94076,note_on,,,,,0,0,0,,,,,0,,,76,0
94080,note_on,,,,,0,0,0,,,,,0,,,79,70
94080,note_on,,,,,82,0,1,,,,,0,,,53,70
94080,set_tempo,,,,,4,1,0,,750002,,,,,,,
94080,note_on,,,,,0,0,0,,,,,0,,,70,70
94080,note_on,,,,,0,0,0,,,,,0,,,74,70
94139,note_on,,,,,59,0,0,,,,,0,,,70,0
94139,note_on,,,,,0,0,0,,,,,0,,,74,0
94140,note_on,,,,,1,0,0,,,,,0,,,65,70
94193,note_on,,,,,113,0,1,,,,,0,,,53,0
94199,note_on,,,,,59,0,0,,,,,0,,,65,0
94200,note_on,,,,,1,0,0,,,,,0,,,70,70
94259,note_on,,,,,59,0,0,,,,,0,,,79,0
94259,note_on,,,,,0,0,0,,,,,0,,,70,0
94260,note_on,,,,,1,0,0,,,,,0,,,77,70
94260,note_on,,,,,0,0,0,,,,,0,,,77,70
94260,note_on,,,,,0,0,0,,,,,0,,,77,0
94316,note_on,,,,,56,0,0,,,,,0,,,77,0
94320,note_on,,,,,4,0,0,,,,,0,,,68,70
94320,note_on,,,,,0,0,1,,,,,0,,,59,70
94320,note_on,,,,,0,0,0,,,,,0,,,74,70
94320,note_on,,,,,127,0,1,,,,,0,,,53,70
94379,note_on,,,,,59,0,0,,,,,0,,,68,0
94380,note_on,,,,,1,0,0,,,,,0,,,65,70
94439,note_on,,,,,59,0,0,,,,,0,,,65,0
94440,note_on,,,,,1,0,0,,,,,0,,,68,70
94499,note_on,,,,,0,0,0,,,,,0,,,68,0
94499,note_on,,,,,59,0,0,,,,,0,,,74,0
94500,note_on,,,,,1,0,0,,,,,0,,,75,70
94500,note_on,,,,,0,0,0,,,,,0,,,75,0
94500,note_on,,,,,0,0,0,,,,,0,,,75,70
94556,note_on,,,,,56,0,0,,,,,0,,,75,0
94559,note_on,,,,,0,0,1,,,,,0,,,59,0
94559,note_on,,,,,239,0,1,,,,,0,,,53,0
94560,note_on,,,,,4,0,0,,,,,0,,,64,70
94560,note_on,,,,,0,0,0,,,,,0,,,70,70
94560,note_on,,,,,1,0,1,,,,,0,,,53,70
94560,note_on,,,,,0,0,1,,,,,0,,,60,70
94560,note_on,,,,,0,0,0,,,,,0,,,74,70
94619,note_on,,,,,59,0,0,,,,,0,,,64,0
94619,note_on,,,,,0,0,0,,,,,0,,,70,0
94620,note_on,,,,,1,0,0,,,,,0,,,67,70
94673,note_on,,,,,0,0,1,,,,,0,,,60,0
94673,note_on,,,,,113,0,1,,,,,0,,,53,0
94679,note_on,,,,,59,0,0,,,,,0,,,67,0
94680,note_on,,,,,1,0,0,,,,,0,,,64,70
94739,note_on,,,,,0,0,0,,,,,0,,,64,0
94739,note_on,,,,,59,0,0,,,,,0,,,74,0
94740,note_on,,,,,1,0,0,,,,,0,,,72,70
94740,note_on,,,,,0,0,0,,,,,0,,,72,70
94740,note_on,,,,,0,0,0,,,,,0,,,72,0
94796,note_on,,,,,56,0,0,,,,,0,,,72,0
94800,note_on,,,,,4,0,0,,,,,0,,,63,70
94800,note_on,,,,,0,0,0,,,,,0,,,67,70
94800,note_on,,,,,127,0,1,,,,,0,,,40,70
94856,note_on,,,,,56,0,1,,,,,0,,,40,0
94859,note_on,,,,,59,0,0,,,,,0,,,63,0
94860,note_on,,,,,1,0,0,,,,,0,,,60,70
94860,note_on,,,,,4,0,1,,,,,0,,,41,70
94916,note_on,,,,,56,0,1,,,,,0,,,41,0
94919,note_on,,,,,59,0,0,,,,,0,,,60,0
94920,note_on,,,,,4,0,1,,,,,0,,,40,70
94920,note_on,,,,,1,0,0,,,,,0,,,63,70
94976,note_on,,,,,56,0,1,,,,,0,,,40,0
94979,note_on,,,,,59,0,0,,,,,0,,,67,0
94979,note_on,,,,,0,0,0,,,,,0,,,63,0
94980,note_on,,,,,0,0,0,,,,,0,,,69,0
94980,note_on,,,,,1,0,0,,,,,0,,,69,70
94980,note_on,,,,,0,0,0,,,,,0,,,69,70
94980,note_on,,,,,4,0,1,,,,,0,,,41,70
95036,note_on,,,,,56,0,0,,,,,0,,,69,0
95040,note_on,,,,,4,0,0,,,,,0,,,70,70
95040,note_on,,,,,0,0,0,,,,,0,,,74,70
95040,note_on,,,,,60,0,1,,,,,0,,,53,70
95040,note_on,,,,,0,0,0,,,,,0,,,79,70
95075,note_on,,,,,35,0,1,,,,,0,,,41,0
95078,note_on,,,,,3,0,1,,,,,0,,,53,0
95099,note_on,,,,,59,0,0,,,,,0,,,70,0
95099,note_on,,,,,0,0,0,,,,,0,,,74,0
95100,note_on,,,,,1,0,0,,,,,0,,,65,69
95159,note_on,,,,,59,0,0,,,,,0,,,65,0
95160,note_on,,,,,1,0,0,,,,,0,,,70,67
95219,note_on,,,,,59,0,0,,,,,0,,,79,0
95219,note_on,,,,,0,0,0,,,,,0,,,70,0
95220,note_on,,,,,0,0,0,,,,,0,,,77,65
95220,note_on,,,,,1,0,0,,,,,0,,,77,65
95220,note_on,,,,,0,0,0,,,,,0,,,77,0
95276,note_on,,,,,56,0,0,,,,,0,,,77,0
95280,note_on,,,,,0,0,0,,,,,0,,,74,63
95280,note_on,,,,,0,0,1,,,,,0,,,59,63
95280,note_on,,,,,4,0,0,,,,,0,,,68,63
95280,note_on,,,,,202,0,1,,,,,0,,,53,63
95339,note_on,,,,,59,0,0,,,,,0,,,68,0
95340,note_on,,,,,1,0,0,,,,,0,,,65,61
95399,note_on,,,,,59,0,0,,,,,0,,,65,0
95400,note_on,,,,,1,0,0,,,,,0,,,68,59
95459,note_on,,,,,59,0,0,,,,,0,,,74,0
95459,note_on,,,,,0,0,0,,,,,0,,,68,0
95460,note_on,,,,,0,0,0,,,,,0,,,75,57
95460,note_on,,,,,1,0,0,,,,,0,,,75,57
95460,note_on,,,,,0,0,0,,,,,0,,,75,0
95516,note_on,,,,,56,0,0,,,,,0,,,75,0
95519,note_on,,,,,0,0,1,,,,,0,,,59,0
95519,note_on,,,,,239,0,1,,,,,0,,,53,0
95520,note_on,,,,,0,0,1,,,,,0,,,60,55
95520,note_on,,,,,4,0,0,,,,,0,,,64,55
95520,note_on,,,,,1,0,1,,,,,0,,,53,55
95520,note_on,,,,,0,0,0,,,,,0,,,70,55
95520,note_on,,,,,0,0,0,,,,,0,,,74,55
95579,note_on,,,,,59,0,0,,,,,0,,,64,0
95579,note_on,,,,,0,0,0,,,,,0,,,70,0
95580,note_on,,,,,1,0,0,,,,,0,,,67,55
95633,note_on,,,,,113,0,1,,,,,0,,,53,0
95633,note_on,,,,,0,0,1,,,,,0,,,60,0
95639,note_on,,,,,59,0,0,,,,,0,,,67,0
95640,note_on,,,,,1,0,0,,,,,0,,,64,55
95699,note_on,,,,,0,0,0,,,,,0,,,64,0
95699,note_on,,,,,59,0,0,,,,,0,,,74,0
95700,note_on,,,,,1,0,0,,,,,0,,,72,55
95700,note_on,,,,,0,0,0,,,,,0,,,72,55
95700,note_on,,,,,0,0,0,,,,,0,,,72,0
95756,note_on,,,,,56,0,0,,,,,0,,,72,0
95760,note_on,,,,,127,0,1,,,,,0,,,40,55
95760,note_on,,,,,4,0,0,,,,,0,,,63,55
95760,note_on,,,,,0,0,0,,,,,0,,,67,55
95816,note_on,,,,,56,0,1,,,,,0,,,40,0
95819,note_on,,,,,59,0,0,,,,,0,,,63,0
95820,note_on,,,,,1,0,0,,,,,0,,,60,55
95820,note_on,,,,,4,0,1,,,,,0,,,41,55
95876,note_on,,,,,56,0,1,,,,,0,,,41,0
95879,note_on,,,,,59,0,0,,,,,0,,,60,0
95880,note_on,,,,,4,0,1,,,,,0,,,40,55
95880,note_on,,,,,1,0,0,,,,,0,,,63,55
95936,note_on,,,,,56,0,1,,,,,0,,,40,0
95939,note_on,,,,,59,0,0,,,,,0,,,67,0
95939,note_on,,,,,0,0,0,,,,,0,,,63,0
95940,note_on,,,,,4,0,1,,,,,0,,,41,55
95940,note_on,,,,,1,0,0,,,,,0,,,69,55
95940,note_on,,,,,0,0,0,,,,,0,,,69,55
95940,note_on,,,,,0,0,0,,,,,0,,,69,0
95996,note_on,,,,,56,0,0,,,,,0,,,69,0
96000,note_on,,,,,0,0,0,,,,,0,,,72,55
96000,note_on,,,,,4,0,0,,,,,0,,,62,55
96000,note_on,,,,,60,0,1,,,,,0,,,53,55
96035,note_on,,,,,35,0,1,,,,,0,,,41,0
96038,note_on,,,,,3,0,1,,,,,0,,,53,0
96059,note_on,,,,,59,0,0,,,,,0,,,62,0
96060,note_on,,,,,1,0,0,,,,,0,,,65,55
96119,note_on,,,,,59,0,0,,,,,0,,,65,0
96120,note_on,,,,,1,0,0,,,,,0,,,62,55
96179,note_on,,,,,59,0,0,,,,,0,,,72,0
96179,note_on,,,,,0,0,0,,,,,0,,,62,0
96180,note_on,,,,,1,0,0,,,,,0,,,70,55
96180,note_on,,,,,0,0,0,,,,,0,,,70,55
96180,note_on,,,,,0,0,0,,,,,0,,,70,0
96236,note_on,,,,,56,0,0,,,,,0,,,70,0
96240,note_on,,,,,4,0,0,,,,,0,,,56,55
96240,note_on,,,,,202,0,1,,,,,0,,,41,55
96240,note_on,,,,,0,0,0,,,,,0,,,67,55
96240,note_on,,,,,0,0,1,,,,,0,,,50,55
96240,note_on,,,,,0,0,1,,,,,0,,,47,55
96299,note_on,,,,,59,0,0,,,,,0,,,56,0
96300,note_on,,,,,1,0,0,,,,,0,,,62,56
96359,note_on,,,,,59,0,0,,,,,0,,,62,0
96360,note_on,,,,,1,0,0,,,,,0,,,56,57
96419,note_on,,,,,59,0,0,,,,,0,,,67,0
96419,note_on,,,,,0,0,0,,,,,0,,,56,0
96420,note_on,,,,,0,0,0,,,,,0,,,65,58
96420,note_on,,,,,1,0,0,,,,,0,,,62,58
96476,note_on,,,,,56,0,0,,,,,0,,,62,0
96476,note_on,,,,,0,0,0,,,,,0,,,65,0
96479,note_on,,,,,239,0,1,,,,,0,,,47,0
96479,note_on,,,,,0,0,1,,,,,0,,,50,0
96480,note_on,,,,,4,0,0,,,,,0,,,55,60
96480,note_on,,,,,0,0,0,,,,,0,,,65,60
96480,note_on,,,,,1,0,1,,,,,0,,,48,60
96480,note_on,,,,,0,0,1,,,,,0,,,51,60
96539,note_on,,,,,59,0,0,,,,,0,,,55,0
96540,note_on,,,,,1,0,0,,,,,0,,,60,61
96599,note_on,,,,,59,0,0,,,,,0,,,60,0
96600,note_on,,,,,1,0,0,,,,,0,,,55,62
96659,note_on,,,,,0,0,0,,,,,0,,,55,0
96659,note_on,,,,,59,0,0,,,,,0,,,65,0
96660,note_on,,,,,1,0,0,,,,,0,,,60,63
96660,note_on,,,,,0,0,0,,,,,0,,,63,63
96707,note_on,,,,,0,0,1,,,,,0,,,51,0
96707,note_on,,,,,227,0,1,,,,,0,,,48,0
96716,note_on,,,,,56,0,0,,,,,0,,,60,0
96716,note_on,,,,,0,0,0,,,,,0,,,63,0
96719,note_on,,,,,12,0,1,,,,,0,,,41,0
96720,note_on,,,,,4,0,0,,,,,0,,,51,65
96720,note_on,,,,,0,0,0,,,,,0,,,60,65
96720,note_on,,,,,1,0,1,,,,,0,,,42,65
96776,note_on,,,,,56,0,1,,,,,0,,,42,0
96779,note_on,,,,,59,0,0,,,,,0,,,51,0
96780,note_on,,,,,4,0,1,,,,,0,,,41,66
96780,note_on,,,,,1,0,0,,,,,0,,,57,66
96836,note_on,,,,,56,0,1,,,,,0,,,41,0
96839,note_on,,,,,59,0,0,,,,,0,,,57,0
96840,note_on,,,,,4,0,1,,,,,0,,,42,67
96840,note_on,,,,,1,0,0,,,,,0,,,51,67
96896,note_on,,,,,56,0,1,,,,,0,,,42,0
96899,note_on,,,,,0,0,0,,,,,0,,,51,0
96899,note_on,,,,,59,0,0,,,,,0,,,60,0
96900,note_on,,,,,4,0,1,,,,,0,,,41,68
96900,note_on,,,,,0,0,0,,,,,0,,,62,68
96900,note_on,,,,,1,0,0,,,,,0,,,57,68
96956,note_on,,,,,0,0,0,,,,,0,,,62,0
96956,note_on,,,,,56,0,1,,,,,0,,,41,0
96956,note_on,,,,,56,0,0,,,,,0,,,57,0
96960,note_on,,,,,4,0,1,,,,,0,,,34,70
96960,note_on,,,,,0,0,0,,,,,0,,,58,70
96960,note_on,,,,,4,0,0,,,,,0,,,50,70
97073,note_on,,,,,113,0,1,,,,,0,,,34,0
97073,note_on,,,,,0,0,0,,,,,0,,,58,0
97073,note_on,,,,,113,0,0,,,,,0,,,50,0
97080,note_on,,,,,0,0,1,,,,,0,,,53,70
97080,note_on,,,,,7,0,1,,,,,0,,,50,70
97080,note_on,,,,,0,0,0,,,,,0,,,74,70
97080,set_tempo,,,,,7,1,0,,800000,,,,,,,
97080,note_on,,,,,0,0,0,,,,,0,,,65,70
97080,note_on,,,,,0,0,1,,,,,0,,,58,70
97080,note_on,,,,,0,0,0,,,,,0,,,62,70
97139,note_on,,,,,0,0,0,,,,,0,,,65,0
97139,note_on,,,,,0,0,0,,,,,0,,,74,0
97139,note_on,,,,,59,0,1,,,,,0,,,50,0
97139,note_on,,,,,0,0,1,,,,,0,,,53,0
97139,note_on,,,,,0,0,1,,,,,0,,,58,0
97139,note_on,,,,,59,0,0,,,,,0,,,62,0
97200,note_on,,,,,0,0,1,,,,,0,,,53,70
97200,note_on,,,,,0,0,1,,,,,0,,,58,70
97200,note_on,,,,,0,0,0,,,,,0,,,65,70
97200,note_on,,,,,61,0,0,,,,,0,,,62,70
97200,note_on,,,,,0,0,0,,,,,0,,,72,70
97200,note_on,,,,,61,0,1,,,,,0,,,50,70
97259,note_on,,,,,59,0,0,,,,,0,,,62,0
97259,note_on,,,,,0,0,1,,,,,0,,,58,0
97259,note_on,,,,,0,0,1,,,,,0,,,53,0
97259,note_on,,,,,59,0,1,,,,,0,,,50,0
97259,note_on,,,,,0,0,0,,,,,0,,,65,0
97259,note_on,,,,,0,0,0,,,,,0,,,72,0
97320,note_on,,,,,61,0,0,,,,,0,,,62,70
97320,note_on,,,,,0,0,1,,,,,0,,,58,70
97320,note_on,,,,,0,0,1,,,,,0,,,53,70
97320,note_on,,,,,61,0,1,,,,,0,,,50,70
97320,note_on,,,,,0,0,0,,,,,0,,,71,70
97320,note_on,,,,,0,0,0,,,,,0,,,65,70
97379,note_on,,,,,59,0,1,,,,,0,,,50,0
97379,note_on,,,,,0,0,1,,,,,0,,,53,0
97379,note_on,,,,,59,0,0,,,,,0,,,62,0
97379,note_on,,,,,0,0,1,,,,,0,,,58,0
97379,note_on,,,,,0,0,0,,,,,0,,,65,0
97379,note_on,,,,,0,0,0,,,,,0,,,71,0
97440,note_on,,,,,0,0,0,,,,,0,,,65,70
97440,note_on,,,,,61,0,1,,,,,0,,,50,70
97440,note_on,,,,,61,0,0,,,,,0,,,62,70
97440,note_on,,,,,0,0,1,,,,,0,,,53,70
97440,note_on,,,,,0,0,1,,,,,0,,,58,70
97440,note_on,,,,,0,0,0,,,,,0,,,70,70
97499,note_on,,,,,59,0,1,,,,,0,,,50,0
97499,note_on,,,,,0,0,0,,,,,0,,,70,0
97499,note_on,,,,,0,0,1,,,,,0,,,58,0
97499,note_on,,,,,0,0,1,,,,,0,,,53,0
97499,note_on,,,,,59,0,0,,,,,0,,,62,0
97499,note_on,,,,,0,0,0,,,,,0,,,65,0
97560,note_on,,,,,61,0,0,,,,,0,,,62,70
97560,note_on,,,,,61,0,1,,,,,0,,,50,70
97560,note_on,,,,,0,0,1,,,,,0,,,58,70
97560,note_on,,,,,0,0,1,,,,,0,,,53,70
97560,note_on,,,,,0,0,0,,,,,0,,,74,70
97560,note_on,,,,,0,0,0,,,,,0,,,65,70
97619,note_on,,,,,0,0,1,,,,,0,,,53,0
97619,note_on,,,,,59,0,0,,,,,0,,,62,0
97619,note_on,,,,,0,0,1,,,,,0,,,58,0
97619,note_on,,,,,0,0,0,,,,,0,,,74,0
97619,note_on,,,,,0,0,0,,,,,0,,,65,0
97619,note_on,,,,,59,0,1,,,,,0,,,50,0
97680,note_on,,,,,61,0,0,,,,,0,,,62,70
97680,note_on,,,,,0,0,0,,,,,0,,,65,70
97680,note_on,,,,,61,0,1,,,,,0,,,50,70
97680,note_on,,,,,0,0,1,,,,,0,,,53,70
97680,note_on,,,,,0,0,1,,,,,0,,,58,70
97680,note_on,,,,,0,0,0,,,,,0,,,72,70
97739,note_on,,,,,59,0,0,,,,,0,,,62,0
97739,note_on,,,,,0,0,1,,,,,0,,,53,0
97739,note_on,,,,,0,0,0,,,,,0,,,65,0
97739,note_on,,,,,59,0,1,,,,,0,,,50,0
97739,note_on,,,,,0,0,0,,,,,0,,,72,0
97739,note_on,,,,,0,0,1,,,,,0,,,58,0
97740,note_on,,,,,1,0,0,,,,,0,,,71,70
97796,note_on,,,,,56,0,0,,,,,0,,,71,0
97800,note_on,,,,,4,0,0,,,,,0,,,70,70
97859,note_on,,,,,59,0,0,,,,,0,,,70,0
97920,note_on,,,,,181,0,1,,,,,0,,,32,70
97922,control_change,,,,,63,0,0,,,64,127,0,,,,
98033,note_on,,,,,113,0,1,,,,,0,,,32,0
98040,note_on,,,,,0,0,0,,,,,0,,,70,70
98040,note_on,,,,,0,0,0,,,,,0,,,77,70
98040,note_on,,,,,0,0,1,,,,,0,,,62,70
98040,note_on,,,,,0,0,1,,,,,0,,,58,70
98040,note_on,,,,,118,0,0,,,,,0,,,65,70
98040,note_on,,,,,7,0,1,,,,,0,,,53,70
98099,note_on,,,,,0,0,1,,,,,0,,,58,0
98099,note_on,,,,,0,0,1,,,,,0,,,62,0
98099,note_on,,,,,0,0,0,,,,,0,,,77,0
98099,note_on,,,,,0,0,0,,,,,0,,,70,0
98099,note_on,,,,,59,0,1,,,,,0,,,53,0
98099,note_on,,,,,59,0,0,,,,,0,,,65,0
98160,note_on,,,,,0,0,0,,,,,0,,,76,70
98160,note_on,,,,,0,0,0,,,,,0,,,70,70
98160,note_on,,,,,61,0,0,,,,,0,,,65,70
98160,note_on,,,,,61,0,1,,,,,0,,,53,70
98160,note_on,,,,,0,0,1,,,,,0,,,62,70
98160,note_on,,,,,0,0,1,,,,,0,,,58,70
98219,note_on,,,,,59,0,1,,,,,0,,,53,0
98219,note_on,,,,,59,0,0,,,,,0,,,65,0
98219,note_on,,,,,0,0,1,,,,,0,,,62,0
98219,note_on,,,,,0,0,1,,,,,0,,,58,0
98219,note_on,,,,,0,0,0,,,,,0,,,70,0
98219,note_on,,,,,0,0,0,,,,,0,,,76,0
98280,note_on,,,,,61,0,0,,,,,0,,,65,70
98280,note_on,,,,,0,0,0,,,,,0,,,75,70
98280,note_on,,,,,61,0,1,,,,,0,,,53,70
98280,note_on,,,,,0,0,1,,,,,0,,,58,70
98280,note_on,,,,,0,0,0,,,,,0,,,70,70
98280,note_on,,,,,0,0,1,,,,,0,,,62,70
98339,note_on,,,,,59,0,1,,,,,0,,,53,0
98339,note_on,,,,,0,0,0,,,,,0,,,75,0
98339,note_on,,,,,59,0,0,,,,,0,,,65,0
98339,note_on,,,,,0,0,0,,,,,0,,,70,0
98339,note_on,,,,,0,0,1,,,,,0,,,58,0
98339,note_on,,,,,0,0,1,,,,,0,,,62,0
98400,note_on,,,,,0,0,0,,,,,0,,,70,72
98400,note_on,,,,,61,0,0,,,,,0,,,65,72
98400,note_on,,,,,0,0,1,,,,,0,,,62,72
98400,note_on,,,,,0,0,1,,,,,0,,,58,72
98400,note_on,,,,,61,0,1,,,,,0,,,53,72
98400,note_on,,,,,0,0,0,,,,,0,,,74,72
98459,note_on,,,,,59,0,1,,,,,0,,,53,0
98459,note_on,,,,,0,0,0,,,,,0,,,70,0
98459,note_on,,,,,0,0,1,,,,,0,,,62,0
98459,note_on,,,,,59,0,0,,,,,0,,,65,0
98459,note_on,,,,,0,0,1,,,,,0,,,58,0
98459,note_on,,,,,0,0,0,,,,,0,,,74,0
98520,note_on,,,,,61,0,1,,,,,0,,,53,75
98520,note_on,,,,,0,0,0,,,,,0,,,70,75
98520,note_on,,,,,0,0,0,,,,,0,,,77,75
98520,note_on,,,,,0,0,1,,,,,0,,,62,75
98520,note_on,,,,,61,0,0,,,,,0,,,65,75
98520,note_on,,,,,0,0,1,,,,,0,,,58,75
98579,note_on,,,,,59,0,1,,,,,0,,,53,0
98579,note_on,,,,,0,0,0,,,,,0,,,70,0
98579,note_on,,,,,59,0,0,,,,,0,,,65,0
98579,note_on,,,,,0,0,1,,,,,0,,,58,0
98579,note_on,,,,,0,0,1,,,,,0,,,62,0
98579,note_on,,,,,0,0,0,,,,,0,,,77,0
98640,note_on,,,,,61,0,0,,,,,0,,,65,77
98640,note_on,,,,,61,0,1,,,,,0,,,53,77
98640,note_on,,,,,0,0,0,,,,,0,,,76,77
98640,note_on,,,,,0,0,0,,,,,0,,,70,77
98640,note_on,,,,,0,0,1,,,,,0,,,62,77
98640,note_on,,,,,0,0,1,,,,,0,,,58,77
98699,note_on,,,,,0,0,1,,,,,0,,,62,0
98699,note_on,,,,,59,0,1,,,,,0,,,53,0
98699,note_on,,,,,0,0,0,,,,,0,,,76,0
98699,note_on,,,,,0,0,0,,,,,0,,,70,0
98699,note_on,,,,,59,0,0,,,,,0,,,65,0
98699,note_on,,,,,0,0,1,,,,,0,,,58,0
98700,note_on,,,,,1,0,0,,,,,0,,,75,78
98756,note_on,,,,,56,0,0,,,,,0,,,75,0
98760,note_on,,,,,4,0,0,,,,,0,,,74,80
98819,note_on,,,,,59,0,0,,,,,0,,,74,0
98880,note_on,,,,,181,0,1,,,,,0,,,30,80
98881,control_change,,,,,62,0,0,,,64,0,0,,,,
98882,control_change,,,,,1,0,0,,,64,127,0,,,,
98993,note_on,,,,,113,0,1,,,,,0,,,30,0
99000,note_on,,,,,118,0,0,,,,,0,,,70,80
99000,note_on,,,,,7,0,1,,,,,0,,,54,80
99000,note_on,,,,,0,0,1,,,,,0,,,61,80
99000,note_on,,,,,0,0,0,,,,,0,,,73,80
99000,note_on,,,,,0,0,0,,,,,0,,,82,80
99000,note_on,,,,,0,0,1,,,,,0,,,64,80
99059,note_on,,,,,0,0,0,,,,,0,,,82,0
99059,note_on,,,,,0,0,0,,,,,0,,,73,0
99059,note_on,,,,,0,0,1,,,,,0,,,64,0
99059,note_on,,,,,0,0,1,,,,,0,,,61,0
99059,note_on,,,,,59,0,1,,,,,0,,,54,0
99059,note_on,,,,,59,0,0,,,,,0,,,70,0
99120,note_on,,,,,0,0,0,,,,,0,,,73,80
99120,note_on,,,,,0,0,0,,,,,0,,,80,80
99120,note_on,,,,,0,0,1,,,,,0,,,64,80
99120,note_on,,,,,61,0,0,,,,,0,,,70,80
99120,note_on,,,,,0,0,1,,,,,0,,,61,80
99120,note_on,,,,,61,0,1,,,,,0,,,54,80
99179,note_on,,,,,0,0,1,,,,,0,,,61,0
99179,note_on,,,,,59,0,0,,,,,0,,,70,0
99179,note_on,,,,,0,0,0,,,,,0,,,80,0
99179,note_on,,,,,0,0,1,,,,,0,,,64,0
99179,note_on,,,,,0,0,0,,,,,0,,,73,0
99179,note_on,,,,,59,0,1,,,,,0,,,54,0
99240,note_on,,,,,61,0,0,,,,,0,,,70,80
99240,note_on,,,,,61,0,1,,,,,0,,,54,80
99240,note_on,,,,,0,0,0,,,,,0,,,73,80
99240,note_on,,,,,0,0,0,,,,,0,,,79,80
99240,note_on,,,,,0,0,1,,,,,0,,,61,80
99240,note_on,,,,,0,0,1,,,,,0,,,64,80
99299,note_on,,,,,59,0,0,,,,,0,,,70,0
99299,note_on,,,,,0,0,1,,,,,0,,,64,0
99299,note_on,,,,,0,0,0,,,,,0,,,73,0
99299,note_on,,,,,0,0,0,,,,,0,,,79,0
99299,note_on,,,,,59,0,1,,,,,0,,,54,0
99299,note_on,,,,,0,0,1,,,,,0,,,61,0
99360,note_on,,,,,0,0,1,,,,,0,,,61,80
99360,note_on,,,,,61,0,0,,,,,0,,,70,80
99360,note_on,,,,,0,0,0,,,,,0,,,78,80
99360,note_on,,,,,61,0,1,,,,,0,,,54,80
99360,note_on,,,,,0,0,1,,,,,0,,,64,80
99360,note_on,,,,,0,0,0,,,,,0,,,73,80
99419,note_on,,,,,0,0,1,,,,,0,,,64,0
99419,note_on,,,,,59,0,0,,,,,0,,,70,0
99419,note_on,,,,,0,0,1,,,,,0,,,61,0
99419,note_on,,,,,59,0,1,,,,,0,,,54,0
99419,note_on,,,,,0,0,0,,,,,0,,,73,0
99419,note_on,,,,,0,0,0,,,,,0,,,78,0
99480,note_on,,,,,0,0,0,,,,,0,,,82,77
99480,note_on,,,,,61,0,1,,,,,0,,,54,77
99480,note_on,,,,,0,0,1,,,,,0,,,61,77
99480,note_on,,,,,0,0,1,,,,,0,,,64,77
99480,note_on,,,,,0,0,0,,,,,0,,,73,77
99480,note_on,,,,,61,0,0,,,,,0,,,70,77
99539,note_on,,,,,0,0,1,,,,,0,,,61,0
99539,note_on,,,,,0,0,0,,,,,0,,,82,0
99539,note_on,,,,,0,0,0,,,,,0,,,73,0
99539,note_on,,,,,59,0,0,,,,,0,,,70,0
99539,note_on,,,,,59,0,1,,,,,0,,,54,0
99539,note_on,,,,,0,0,1,,,,,0,,,64,0
99600,note_on,,,,,0,0,0,,,,,0,,,80,74
99600,note_on,,,,,0,0,0,,,,,0,,,73,74
99600,note_on,,,,,0,0,1,,,,,0,,,64,74
99600,note_on,,,,,61,0,1,,,,,0,,,54,74
99600,note_on,,,,,61,0,0,,,,,0,,,70,74
99600,note_on,,,,,0,0,1,,,,,0,,,61,74
99659,note_on,,,,,0,0,1,,,,,0,,,61,0
99659,note_on,,,,,59,0,1,,,,,0,,,54,0
99659,note_on,,,,,0,0,1,,,,,0,,,64,0
99659,note_on,,,,,59,0,0,,,,,0,,,70,0
99659,note_on,,,,,0,0,0,,,,,0,,,80,0
99659,note_on,,,,,0,0,0,,,,,0,,,73,0
99660,note_on,,,,,1,0,0,,,,,0,,,79,72
99716,note_on,,,,,56,0,0,,,,,0,,,79,0
99720,note_on,,,,,4,0,0,,,,,0,,,78,70
99779,note_on,,,,,59,0,0,,,,,0,,,78,0
99840,note_on,,,,,181,0,1,,,,,0,,,29,70
99841,control_change,,,,,62,0,0,,,64,0,0,,,,
99842,control_change,,,,,1,0,0,,,64,127,0,,,,
99953,note_on,,,,,113,0,1,,,,,0,,,29,0
99960,note_on,,,,,0,0,1,,,,,0,,,63,70
99960,note_on,,,,,7,0,1,,,,,0,,,57,70
99960,note_on,,,,,0,0,0,,,,,0,,,78,70
99960,note_on,,,,,0,0,0,,,,,0,,,72,70
99960,note_on,,,,,0,0,0,,,,,0,,,69,70
99960,set_tempo,,,,,118,1,0,,857140,,,,,,,
99960,note_on,,,,,0,0,1,,,,,0,,,66,70
100019,note_on,,,,,59,0,0,,,,,0,,,69,0
100019,note_on,,,,,59,0,1,,,,,0,,,57,0
100019,note_on,,,,,0,0,0,,,,,0,,,78,0
100019,note_on,,,,,0,0,0,,,,,0,,,72,0
100019,note_on,,,,,0,0,1,,,,,0,,,66,0
100019,note_on,,,,,0,0,1,,,,,0,,,63,0
100080,note_on,,,,,61,0,1,,,,,0,,,57,70
100080,note_on,,,,,0,0,1,,,,,0,,,63,70
100080,note_on,,,,,0,0,1,,,,,0,,,65,70
100080,note_on,,,,,61,0,0,,,,,0,,,69,70
100080,note_on,,,,,0,0,0,,,,,0,,,72,70
100080,note_on,,,,,0,0,0,,,,,0,,,77,70
100139,note_on,,,,,0,0,0,,,,,0,,,77,0
100139,note_on,,,,,0,0,1,,,,,0,,,63,0
100139,note_on,,,,,0,0,1,,,,,0,,,65,0
100139,note_on,,,,,59,0,0,,,,,0,,,69,0
100139,note_on,,,,,59,0,1,,,,,0,,,57,0
100139,note_on,,,,,0,0,0,,,,,0,,,72,0
100200,note_on,,,,,0,0,1,,,,,0,,,63,70
100200,note_on,,,,,61,0,0,,,,,0,,,69,70
100200,note_on,,,,,61,0,1,,,,,0,,,57,70
100200,note_on,,,,,0,0,1,,,,,0,,,65,70
100200,note_on,,,,,0,0,0,,,,,0,,,72,70
100200,note_on,,,,,0,0,0,,,,,0,,,76,70
100259,note_on,,,,,0,0,0,,,,,0,,,72,0
100259,note_on,,,,,0,0,1,,,,,0,,,65,0
100259,note_on,,,,,59,0,0,,,,,0,,,69,0
100259,note_on,,,,,0,0,0,,,,,0,,,76,0
100259,note_on,,,,,59,0,1,,,,,0,,,57,0
100259,note_on,,,,,0,0,1,,,,,0,,,63,0
100320,note_on,,,,,61,0,1,,,,,0,,,57,70
100320,note_on,,,,,0,0,1,,,,,0,,,63,70
100320,set_tempo,,,,,61,1,0,,923080,,,,,,,
100320,note_on,,,,,0,0,0,,,,,0,,,69,70
100320,note_on,,,,,0,0,0,,,,,0,,,72,70
100320,note_on,,,,,0,0,0,,,,,0,,,75,70
100320,note_on,,,,,0,0,1,,,,,0,,,65,70
100379,note_on,,,,,0,0,1,,,,,0,,,65,0
100379,note_on,,,,,0,0,0,,,,,0,,,75,0
100379,note_on,,,,,59,0,0,,,,,0,,,69,0
100379,note_on,,,,,0,0,1,,,,,0,,,63,0
100379,note_on,,,,,0,0,0,,,,,0,,,72,0
100379,note_on,,,,,59,0,1,,,,,0,,,57,0
100440,note_on,,,,,0,0,1,,,,,0,,,65,70
100440,note_on,,,,,0,0,1,,,,,0,,,63,70
100440,note_on,,,,,0,0,0,,,,,0,,,72,70
100440,note_on,,,,,61,0,1,,,,,0,,,60,70
100440,note_on,,,,,61,0,0,,,,,0,,,69,70
100440,note_on,,,,,0,0,0,,,,,0,,,72,0
100440,note_on,,,,,0,0,0,,,,,0,,,72,70
100499,note_on,,,,,59,0,0,,,,,0,,,69,0
100499,note_on,,,,,59,0,1,,,,,0,,,60,0
100499,note_on,,,,,0,0,1,,,,,0,,,65,0
100499,note_on,,,,,0,0,1,,,,,0,,,63,0
100499,note_on,,,,,0,0,0,,,,,0,,,72,0
100560,note_on,,,,,0,0,0,,,,,0,,,79,70
100560,note_on,,,,,0,0,1,,,,,0,,,65,70
100560,note_on,,,,,0,0,0,,,,,0,,,69,70
100560,note_on,,,,,61,0,1,,,,,0,,,63,70
100560,set_tempo,,,,,61,1,0,,1333333,,,,,,,
100560,note_on,,,,,0,0,0,,,,,0,,,72,70
100619,note_on,,,,,0,0,0,,,,,0,,,72,0
100619,note_on,,,,,0,0,1,,,,,0,,,65,0
100619,note_on,,,,,59,0,0,,,,,0,,,69,0
100619,note_on,,,,,0,0,0,,,,,0,,,79,0
100619,note_on,,,,,59,0,1,,,,,0,,,63,0
100620,note_on,,,,,1,0,0,,,,,0,,,78,70
100676,note_on,,,,,56,0,0,,,,,0,,,78,0
100680,note_on,,,,,4,0,0,,,,,0,,,77,70
100739,note_on,,,,,59,0,0,,,,,0,,,77,0
100800,note_on,,,,,181,0,1,,,,,0,,,34,70
100800,set_tempo,,,,,61,1,0,,705881,,,,,,,
100801,control_change,,,,,1,0,0,,,64,0,0,,,,
100913,note_on,,,,,113,0,1,,,,,0,,,34,0
100920,note_on,,,,,0,0,1,,,,,0,,,65,0
100920,note_on,,,,,0,0,1,,,,,0,,,65,70
100920,note_on,,,,,0,0,0,,,,,0,,,74,70
100920,note_on,,,,,0,0,1,,,,,0,,,65,70
100920,note_on,,,,,7,0,1,,,,,0,,,58,70
100920,note_on,,,,,119,0,0,,,,,0,,,62,70
100979,note_on,,,,,59,0,0,,,,,0,,,62,0
100979,note_on,,,,,0,0,0,,,,,0,,,74,0
100979,note_on,,,,,59,0,1,,,,,0,,,58,0
100979,note_on,,,,,0,0,1,,,,,0,,,65,0
100980,note_on,,,,,1,0,1,,,,,0,,,66,70
101036,note_on,,,,,56,0,1,,,,,0,,,66,0
101040,note_on,,,,,61,0,0,,,,,0,,,62,70
101040,note_on,,,,,0,0,1,,,,,0,,,65,70
101040,note_on,,,,,0,0,1,,,,,0,,,65,70
101040,note_on,,,,,0,0,1,,,,,0,,,65,0
101040,note_on,,,,,4,0,1,,,,,0,,,53,70
101040,note_on,,,,,0,0,0,,,,,0,,,72,70
101099,note_on,,,,,0,0,0,,,,,0,,,72,0
101099,note_on,,,,,0,0,1,,,,,0,,,65,0
101099,note_on,,,,,59,0,1,,,,,0,,,53,0
101099,note_on,,,,,59,0,0,,,,,0,,,62,0
101100,note_on,,,,,1,0,1,,,,,0,,,67,70
101156,note_on,,,,,56,0,1,,,,,0,,,67,0
101160,note_on,,,,,0,0,1,,,,,0,,,65,70
101160,note_on,,,,,0,0,1,,,,,0,,,65,0
101160,note_on,,,,,0,0,1,,,,,0,,,65,70
101160,note_on,,,,,0,0,0,,,,,0,,,71,70
101160,note_on,,,,,4,0,1,,,,,0,,,58,70
101160,note_on,,,,,61,0,0,,,,,0,,,62,70
101219,note_on,,,,,0,0,1,,,,,0,,,65,0
101219,note_on,,,,,59,0,0,,,,,0,,,62,0
101219,note_on,,,,,0,0,0,,,,,0,,,71,0
101219,note_on,,,,,59,0,1,,,,,0,,,58,0
101220,note_on,,,,,1,0,1,,,,,0,,,66,70
101276,note_on,,,,,56,0,1,,,,,0,,,66,0
101280,note_on,,,,,61,0,0,,,,,0,,,62,70
101280,note_on,,,,,4,0,1,,,,,0,,,53,70
101280,note_on,,,,,0,0,0,,,,,0,,,70,70
101280,note_on,,,,,0,0,1,,,,,0,,,65,70
101280,note_on,,,,,0,0,1,,,,,0,,,65,70
101280,note_on,,,,,0,0,1,,,,,0,,,65,0
101339,note_on,,,,,0,0,0,,,,,0,,,70,0
101339,note_on,,,,,0,0,1,,,,,0,,,65,0
101339,note_on,,,,,59,0,0,,,,,0,,,62,0
101339,note_on,,,,,59,0,1,,,,,0,,,53,0
101340,note_on,,,,,1,0,1,,,,,0,,,67,70
101396,note_on,,,,,56,0,1,,,,,0,,,67,0
101400,note_on,,,,,4,0,1,,,,,0,,,58,70
101400,note_on,,,,,61,0,0,,,,,0,,,62,70
101400,note_on,,,,,0,0,1,,,,,0,,,65,70
101400,note_on,,,,,0,0,1,,,,,0,,,65,0
101400,note_on,,,,,0,0,1,,,,,0,,,65,70
101400,note_on,,,,,0,0,0,,,,,0,,,74,70
101459,note_on,,,,,59,0,0,,,,,0,,,62,0
101459,note_on,,,,,0,0,1,,,,,0,,,65,0
101459,note_on,,,,,59,0,1,,,,,0,,,58,0
101459,note_on,,,,,0,0,0,,,,,0,,,74,0
101460,note_on,,,,,1,0,1,,,,,0,,,66,70
101516,note_on,,,,,56,0,1,,,,,0,,,66,0
101520,note_on,,,,,4,0,1,,,,,0,,,53,70
101520,note_on,,,,,0,0,1,,,,,0,,,62,70
101520,note_on,,,,,0,0,1,,,,,0,,,65,70
101520,note_on,,,,,61,0,0,,,,,0,,,72,70
101579,note_on,,,,,0,0,1,,,,,0,,,65,0
101579,note_on,,,,,59,0,1,,,,,0,,,53,0
101579,note_on,,,,,59,0,0,,,,,0,,,72,0
101580,note_on,,,,,1,0,0,,,,,0,,,71,70
101633,note_on,,,,,54,0,1,,,,,0,,,62,0
101636,note_on,,,,,56,0,0,,,,,0,,,71,0
101640,note_on,,,,,4,0,0,,,,,0,,,70,70
101699,note_on,,,,,59,0,0,,,,,0,,,70,0
101760,note_on,,,,,127,0,1,,,,,0,,,32,70
101873,note_on,,,,,113,0,1,,,,,0,,,32,0
101880,note_on,,,,,0,0,1,,,,,0,,,70,70
101880,note_on,,,,,0,0,1,,,,,0,,,70,70
101880,note_on,,,,,7,0,1,,,,,0,,,62,70
101880,note_on,,,,,181,0,0,,,,,0,,,65,70
101880,note_on,,,,,0,0,1,,,,,0,,,70,0
101880,note_on,,,,,0,0,0,,,,,0,,,77,70
101939,note_on,,,,,0,0,0,,,,,0,,,77,0
101939,note_on,,,,,59,0,1,,,,,0,,,62,0
101939,note_on,,,,,59,0,0,,,,,0,,,65,0
101939,note_on,,,,,0,0,1,,,,,0,,,70,0
101940,note_on,,,,,1,0,1,,,,,0,,,71,70
101996,note_on,,,,,56,0,1,,,,,0,,,71,0
102000,note_on,,,,,61,0,0,,,,,0,,,65,70
102000,note_on,,,,,4,0,1,,,,,0,,,56,70
102000,note_on,,,,,0,0,1,,,,,0,,,70,0
102000,note_on,,,,,0,0,1,,,,,0,,,70,70
102000,note_on,,,,,0,0,1,,,,,0,,,70,70
102000,note_on,,,,,0,0,0,,,,,0,,,76,70
102059,note_on,,,,,0,0,0,,,,,0,,,76,0
102059,note_on,,,,,59,0,1,,,,,0,,,56,0
102059,note_on,,,,,59,0,0,,,,,0,,,65,0
102059,note_on,,,,,0,0,1,,,,,0,,,70,0
102060,note_on,,,,,1,0,1,,,,,0,,,72,70
102116,note_on,,,,,56,0,1,,,,,0,,,72,0
102120,note_on,,,,,0,0,1,,,,,0,,,70,70
102120,note_on,,,,,4,0,1,,,,,0,,,62,70
102120,note_on,,,,,0,0,1,,,,,0,,,70,0
102120,note_on,,,,,0,0,0,,,,,0,,,75,70
102120,note_on,,,,,61,0,0,,,,,0,,,65,70
102120,note_on,,,,,0,0,1,,,,,0,,,70,70
102179,note_on,,,,,0,0,0,,,,,0,,,75,0
102179,note_on,,,,,0,0,1,,,,,0,,,70,0
102179,note_on,,,,,59,0,0,,,,,0,,,65,0
102179,note_on,,,,,59,0,1,,,,,0,,,62,0
102180,note_on,,,,,1,0,1,,,,,0,,,71,70
102236,note_on,,,,,56,0,1,,,,,0,,,71,0
102240,note_on,,,,,0,0,0,,,,,0,,,74,70
102240,note_on,,,,,61,0,0,,,,,0,,,65,70
102240,note_on,,,,,0,0,1,,,,,0,,,70,70
102240,note_on,,,,,0,0,1,,,,,0,,,70,70
102240,note_on,,,,,0,0,1,,,,,0,,,70,0
102240,note_on,,,,,4,0,1,,,,,0,,,56,70
102299,note_on,,,,,0,0,0,,,,,0,,,74,0
102299,note_on,,,,,59,0,0,,,,,0,,,65,0
102299,note_on,,,,,59,0,1,,,,,0,,,56,0
102299,note_on,,,,,0,0,1,,,,,0,,,70,0
102300,note_on,,,,,1,0,1,,,,,0,,,72,70
102356,note_on,,,,,56,0,1,,,,,0,,,72,0
102360,note_on,,,,,61,0,0,,,,,0,,,65,70
102360,note_on,,,,,4,0,1,,,,,0,,,62,70
102360,note_on,,,,,0,0,0,,,,,0,,,77,70
102360,note_on,,,,,0,0,1,,,,,0,,,70,70
102360,note_on,,,,,0,0,1,,,,,0,,,70,70
102360,note_on,,,,,0,0,1,,,,,0,,,70,0
102419,note_on,,,,,0,0,0,,,,,0,,,77,0
102419,note_on,,,,,59,0,1,,,,,0,,,62,0
102419,note_on,,,,,0,0,1,,,,,0,,,70,0
102419,note_on,,,,,59,0,0,,,,,0,,,65,0
102420,note_on,,,,,1,0,1,,,,,0,,,71,70
102476,note_on,,,,,56,0,1,,,,,0,,,71,0
102480,note_on,,,,,61,0,0,,,,,0,,,76,70
102480,note_on,,,,,0,0,1,,,,,0,,,70,70
102480,note_on,,,,,0,0,1,,,,,0,,,62,70
102480,note_on,,,,,4,0,1,,,,,0,,,56,70
102539,note_on,,,,,59,0,1,,,,,0,,,56,0
102539,note_on,,,,,0,0,1,,,,,0,,,70,0
102539,note_on,,,,,59,0,0,,,,,0,,,76,0
102540,note_on,,,,,1,0,0,,,,,0,,,75,70
102593,note_on,,,,,54,0,1,,,,,0,,,62,0
102596,note_on,,,,,56,0,0,,,,,0,,,75,0
102600,note_on,,,,,4,0,0,,,,,0,,,74,70
102659,note_on,,,,,59,0,0,,,,,0,,,74,0
102720,note_on,,,,,127,0,1,,,,,0,,,30,70
102720,note_on,,,,,0,0,1,,,,,0,,,42,70
102833,note_on,,,,,0,0,1,,,,,0,,,42,0
102833,note_on,,,,,113,0,1,,,,,0,,,30,0
102840,note_on,,,,,0,0,0,,,,,0,,,82,70
102840,note_on,,,,,0,0,1,,,,,0,,,64,70
102840,note_on,,,,,181,0,0,,,,,0,,,70,70
102840,note_on,,,,,0,0,0,,,,,0,,,73,70
102840,note_on,,,,,0,0,1,,,,,0,,,61,70
102840,note_on,,,,,7,0,1,,,,,0,,,54,70
102899,note_on,,,,,59,0,0,,,,,0,,,82,0
102953,note_on,,,,,113,0,1,,,,,0,,,54,0
102953,note_on,,,,,0,0,1,,,,,0,,,61,0
102953,note_on,,,,,54,0,0,,,,,0,,,70,0
102953,note_on,,,,,0,0,0,,,,,0,,,73,0
102953,note_on,,,,,0,0,1,,,,,0,,,64,0
102960,note_on,,,,,0,0,1,,,,,0,,,61,71
102960,note_on,,,,,0,0,1,,,,,0,,,64,71
102960,note_on,,,,,0,0,0,,,,,0,,,80,71
102960,note_on,,,,,7,0,1,,,,,0,,,58,71
102960,note_on,,,,,0,0,0,,,,,0,,,73,71
102960,note_on,,,,,7,0,0,,,,,0,,,70,71
103019,note_on,,,,,59,0,0,,,,,0,,,80,0
103020,note_on,,,,,1,0,0,,,,,0,,,79,72
103073,note_on,,,,,0,0,1,,,,,0,,,61,0
103073,note_on,,,,,113,0,1,,,,,0,,,58,0
103073,note_on,,,,,0,0,1,,,,,0,,,64,0
103076,note_on,,,,,56,0,0,,,,,0,,,79,0
103079,note_on,,,,,0,0,0,,,,,0,,,73,0
103079,note_on,,,,,3,0,0,,,,,0,,,70,0
103080,note_on,,,,,1,0,0,,,,,0,,,78,72
103139,note_on,,,,,59,0,0,,,,,0,,,78,0
103200,note_on,,,,,0,0,1,,,,,0,,,47,74
103200,note_on,,,,,127,0,1,,,,,0,,,35,74
103313,note_on,,,,,113,0,1,,,,,0,,,35,0
103313,note_on,,,,,0,0,1,,,,,0,,,47,0
103320,note_on,,,,,0,0,1,,,,,0,,,69,75
103320,note_on,,,,,0,0,1,,,,,0,,,66,75
103320,note_on,,,,,181,0,0,,,,,0,,,75,75
103320,note_on,,,,,7,0,1,,,,,0,,,59,75
103320,note_on,,,,,0,0,0,,,,,0,,,87,75
103320,note_on,,,,,0,0,0,,,,,0,,,78,75
103379,note_on,,,,,59,0,0,,,,,0,,,87,0
103433,note_on,,,,,0,0,1,,,,,0,,,69,0
103433,note_on,,,,,54,0,0,,,,,0,,,75,0
103433,note_on,,,,,0,0,1,,,,,0,,,66,0
103433,note_on,,,,,113,0,1,,,,,0,,,59,0
103433,note_on,,,,,0,0,0,,,,,0,,,78,0
103440,note_on,,,,,7,0,1,,,,,0,,,63,77
103440,note_on,,,,,0,0,0,,,,,0,,,78,77
103440,note_on,,,,,0,0,0,,,,,0,,,85,77
103440,note_on,,,,,0,0,1,,,,,0,,,66,77
103440,note_on,,,,,0,0,1,,,,,0,,,69,77
103440,note_on,,,,,7,0,0,,,,,0,,,75,77
103499,note_on,,,,,59,0,0,,,,,0,,,85,0
103500,note_on,,,,,1,0,0,,,,,0,,,84,77
103553,note_on,,,,,0,0,1,,,,,0,,,69,0
103553,note_on,,,,,113,0,1,,,,,0,,,63,0
103553,note_on,,,,,0,0,1,,,,,0,,,66,0
103556,note_on,,,,,56,0,0,,,,,0,,,84,0
103559,note_on,,,,,3,0,0,,,,,0,,,75,0
103559,note_on,,,,,0,0,0,,,,,0,,,78,0
103560,note_on,,,,,1,0,0,,,,,0,,,83,78
103619,note_on,,,,,59,0,0,,,,,0,,,83,0
103680,note_on,,,,,0,0,1,,,,,0,,,41,80
103680,note_on,,,,,127,0,1,,,,,0,,,29,80
103793,note_on,,,,,113,0,1,,,,,0,,,29,0
103793,note_on,,,,,0,0,1,,,,,0,,,41,0
103800,note_on,,,,,0,0,0,,,,,0,,,93,80
103800,note_on,,,,,7,0,1,,,,,0,,,53,80
103800,note_on,,,,,181,0,0,,,,,0,,,84,80
103800,note_on,,,,,0,0,0,,,,,0,,,87,80
103856,note_on,,,,,56,0,1,,,,,0,,,53,0
103859,note_on,,,,,59,0,0,,,,,0,,,84,0
103859,note_on,,,,,0,0,0,,,,,0,,,93,0
103859,note_on,,,,,0,0,0,,,,,0,,,87,0
103860,note_on,,,,,4,0,1,,,,,0,,,52,80
103916,note_on,,,,,56,0,1,,,,,0,,,52,0
103920,note_on,,,,,4,0,1,,,,,0,,,54,80
103920,note_on,,,,,61,0,0,,,,,0,,,84,80
103920,note_on,,,,,0,0,0,,,,,0,,,87,80
103920,note_on,,,,,0,0,0,,,,,0,,,92,80
103976,note_on,,,,,56,0,1,,,,,0,,,54,0
103979,note_on,,,,,59,0,0,,,,,0,,,84,0
103979,note_on,,,,,0,0,0,,,,,0,,,92,0
103979,note_on,,,,,0,0,0,,,,,0,,,87,0
103980,note_on,,,,,4,0,1,,,,,0,,,53,80
104036,note_on,,,,,56,0,1,,,,,0,,,53,0
104040,note_on,,,,,61,0,0,,,,,0,,,84,80
104040,note_on,,,,,0,0,0,,,,,0,,,91,80
104040,note_on,,,,,4,0,1,,,,,0,,,55,80
104040,note_on,,,,,0,0,0,,,,,0,,,87,80
104096,note_on,,,,,56,0,1,,,,,0,,,55,0
104099,note_on,,,,,0,0,0,,,,,0,,,87,0
104099,note_on,,,,,59,0,0,,,,,0,,,84,0
104099,note_on,,,,,0,0,0,,,,,0,,,91,0
104100,note_on,,,,,4,0,1,,,,,0,,,54,80
104156,note_on,,,,,56,0,1,,,,,0,,,54,0
104160,note_on,,,,,4,0,1,,,,,0,,,56,80
104160,note_on,,,,,61,0,0,,,,,0,,,84,80
104160,note_on,,,,,0,0,0,,,,,0,,,90,80
104160,note_on,,,,,0,0,0,,,,,0,,,87,80
104216,note_on,,,,,56,0,1,,,,,0,,,56,0
104219,note_on,,,,,59,0,0,,,,,0,,,84,0
104219,note_on,,,,,0,0,0,,,,,0,,,87,0
104219,note_on,,,,,0,0,0,,,,,0,,,90,0
104220,note_on,,,,,4,0,1,,,,,0,,,55,80
104276,note_on,,,,,56,0,1,,,,,0,,,55,0
104280,note_on,,,,,4,0,1,,,,,0,,,57,80
104280,note_on,,,,,61,0,0,,,,,0,,,81,80
104280,note_on,,,,,0,0,0,,,,,0,,,84,80
104280,note_on,,,,,0,0,0,,,,,0,,,89,80
104336,note_on,,,,,56,0,1,,,,,0,,,57,0
104339,note_on,,,,,59,0,0,,,,,0,,,81,0
104339,note_on,,,,,0,0,0,,,,,0,,,84,0
104339,note_on,,,,,0,0,0,,,,,0,,,89,0
104340,note_on,,,,,4,0,1,,,,,0,,,56,80
104396,note_on,,,,,56,0,1,,,,,0,,,56,0
104400,note_on,,,,,4,0,1,,,,,0,,,58,80
104400,note_on,,,,,61,0,0,,,,,0,,,81,80
104400,note_on,,,,,0,0,0,,,,,0,,,84,80
104400,note_on,,,,,0,0,0,,,,,0,,,88,80
104456,note_on,,,,,56,0,1,,,,,0,,,58,0
104459,note_on,,,,,0,0,0,,,,,0,,,88,0
104459,note_on,,,,,0,0,0,,,,,0,,,84,0
104459,note_on,,,,,59,0,0,,,,,0,,,81,0
104460,note_on,,,,,4,0,1,,,,,0,,,57,80
104516,note_on,,,,,56,0,1,,,,,0,,,57,0
104520,note_on,,,,,0,0,0,,,,,0,,,87,80
104520,note_on,,,,,4,0,1,,,,,0,,,59,80
104520,note_on,,,,,61,0,0,,,,,0,,,81,80
104520,note_on,,,,,0,0,0,,,,,0,,,84,80
104576,note_on,,,,,56,0,1,,,,,0,,,59,0
104579,note_on,,,,,0,0,0,,,,,0,,,87,0
104579,note_on,,,,,0,0,0,,,,,0,,,84,0
104579,note_on,,,,,59,0,0,,,,,0,,,81,0
104580,note_on,,,,,4,0,1,,,,,0,,,58,80
104636,note_on,,,,,56,0,1,,,,,0,,,58,0
104640,note_on,,,,,0,0,0,,,,,0,,,81,80
104640,note_on,,,,,0,0,0,,,,,0,,,86,80
104640,note_on,,,,,61,0,0,,,,,0,,,78,80
104640,note_on,,,,,4,0,1,,,,,0,,,60,80
104696,note_on,,,,,56,0,1,,,,,0,,,60,0
104699,note_on,,,,,59,0,0,,,,,0,,,78,0
104699,note_on,,,,,0,0,0,,,,,0,,,86,0
104699,note_on,,,,,0,0,0,,,,,0,,,81,0
104700,note_on,,,,,4,0,1,,,,,0,,,59,80
104756,note_on,,,,,56,0,1,,,,,0,,,59,0
104760,note_on,,,,,4,0,1,,,,,0,,,61,80
104760,note_on,,,,,61,0,0,,,,,0,,,78,80
104760,note_on,,,,,0,0,0,,,,,0,,,85,80
104760,note_on,,,,,0,0,0,,,,,0,,,81,80
104816,note_on,,,,,56,0,1,,,,,0,,,61,0
104819,note_on,,,,,0,0,0,,,,,0,,,85,0
104819,note_on,,,,,0,0,0,,,,,0,,,81,0
104819,note_on,,,,,59,0,0,,,,,0,,,78,0
104820,note_on,,,,,4,0,1,,,,,0,,,60,80
104876,note_on,,,,,56,0,1,,,,,0,,,60,0
104880,note_on,,,,,0,0,0,,,,,0,,,84,80
104880,note_on,,,,,61,0,0,,,,,0,,,78,80
104880,note_on,,,,,0,0,0,,,,,0,,,81,80
104880,note_on,,,,,4,0,1,,,,,0,,,62,80
104936,note_on,,,,,56,0,1,,,,,0,,,62,0
104939,note_on,,,,,0,0,0,,,,,0,,,84,0
104939,note_on,,,,,59,0,0,,,,,0,,,78,0
104939,note_on,,,,,0,0,0,,,,,0,,,81,0
104940,note_on,,,,,4,0,1,,,,,0,,,61,80
104996,note_on,,,,,56,0,1,,,,,0,,,61,0
105000,note_on,,,,,61,0,0,,,,,0,,,75,80
105000,note_on,,,,,0,0,0,,,,,0,,,83,80
105000,note_on,,,,,4,0,1,,,,,0,,,63,80
105000,note_on,,,,,0,0,0,,,,,0,,,78,80
105056,note_on,,,,,56,0,1,,,,,0,,,63,0
105059,note_on,,,,,59,0,0,,,,,0,,,75,0
105059,note_on,,,,,0,0,0,,,,,0,,,78,0
105059,note_on,,,,,0,0,0,,,,,0,,,83,0
105060,note_on,,,,,4,0,1,,,,,0,,,62,80
105116,note_on,,,,,56,0,1,,,,,0,,,62,0
105120,note_on,,,,,4,0,1,,,,,0,,,64,80
105120,note_on,,,,,0,0,0,,,,,0,,,82,80
105120,note_on,,,,,61,0,0,,,,,0,,,75,80
105120,note_on,,,,,0,0,0,,,,,0,,,78,80
105176,note_on,,,,,56,0,1,,,,,0,,,64,0
105179,note_on,,,,,0,0,0,,,,,0,,,78,0
105179,note_on,,,,,0,0,0,,,,,0,,,82,0
105179,note_on,,,,,59,0,0,,,,,0,,,75,0
105180,note_on,,,,,4,0,1,,,,,0,,,63,80
105236,note_on,,,,,56,0,1,,,,,0,,,63,0
105240,note_on,,,,,61,0,0,,,,,0,,,72,80
105240,note_on,,,,,0,0,0,,,,,0,,,75,80
105240,note_on,,,,,4,0,1,,,,,0,,,65,80
105240,note_on,,,,,0,0,0,,,,,0,,,81,80
105296,note_on,,,,,56,0,1,,,,,0,,,65,0
105299,note_on,,,,,0,0,0,,,,,0,,,75,0
105299,note_on,,,,,59,0,0,,,,,0,,,72,0
105299,note_on,,,,,0,0,0,,,,,0,,,81,0
105300,note_on,,,,,4,0,1,,,,,0,,,64,80
105356,note_on,,,,,56,0,1,,,,,0,,,64,0
105360,note_on,,,,,0,0,0,,,,,0,,,75,80
105360,note_on,,,,,0,0,0,,,,,0,,,80,80
105360,note_on,,,,,4,0,1,,,,,0,,,66,80
105360,note_on,,,,,61,0,0,,,,,0,,,72,80
105416,note_on,,,,,56,0,1,,,,,0,,,66,0
105419,note_on,,,,,59,0,0,,,,,0,,,72,0
105419,note_on,,,,,0,0,0,,,,,0,,,80,0
105419,note_on,,,,,0,0,0,,,,,0,,,75,0
105420,note_on,,,,,4,0,1,,,,,0,,,65,80
105476,note_on,,,,,56,0,1,,,,,0,,,65,0
105480,note_on,,,,,0,0,0,,,,,0,,,78,80
105480,note_on,,,,,0,0,0,,,,,0,,,75,80
105480,note_on,,,,,61,0,0,,,,,0,,,72,80
105480,note_on,,,,,4,0,1,,,,,0,,,67,80
105536,note_on,,,,,56,0,1,,,,,0,,,67,0
105539,note_on,,,,,59,0,0,,,,,0,,,72,0
105539,note_on,,,,,0,0,0,,,,,0,,,75,0
105539,note_on,,,,,0,0,0,,,,,0,,,78,0
105540,note_on,,,,,4,0,1,,,,,0,,,66,80
105596,note_on,,,,,56,0,1,,,,,0,,,66,0
105600,note_on,,,,,0,0,0,,,,,0,,,78,80
105600,note_on,,,,,4,0,1,,,,,0,,,68,80
105600,note_on,,,,,61,0,0,,,,,0,,,72,80
105600,note_on,,,,,0,0,0,,,,,0,,,75,80
105656,note_on,,,,,56,0,1,,,,,0,,,68,0
105659,note_on,,,,,0,0,0,,,,,0,,,75,0
105659,note_on,,,,,0,0,0,,,,,0,,,78,0
105659,note_on,,,,,59,0,0,,,,,0,,,72,0
105660,note_on,,,,,4,0,1,,,,,0,,,67,80
105716,note_on,,,,,56,0,1,,,,,0,,,67,0
105720,note_on,,,,,0,0,0,,,,,0,,,75,80
105720,note_on,,,,,0,0,0,,,,,0,,,77,80
105720,note_on,,,,,4,0,1,,,,,0,,,69,80
105720,note_on,,,,,61,0,0,,,,,0,,,72,80
105776,note_on,,,,,56,0,1,,,,,0,,,69,0
105779,note_on,,,,,0,0,0,,,,,0,,,77,0
105779,note_on,,,,,0,0,0,,,,,0,,,75,0
105779,note_on,,,,,59,0,0,,,,,0,,,72,0
105780,note_on,,,,,4,0,1,,,,,0,,,68,80
105836,note_on,,,,,56,0,1,,,,,0,,,68,0
105840,note_on,,,,,4,0,1,,,,,0,,,70,80
105840,note_on,,,,,61,0,0,,,,,0,,,75,80
105840,note_on,,,,,0,0,0,,,,,0,,,79,80
105896,note_on,,,,,56,0,1,,,,,0,,,70,0
105899,note_on,,,,,59,0,0,,,,,0,,,75,0
105899,note_on,,,,,0,0,0,,,,,0,,,79,0
105900,note_on,,,,,4,0,1,,,,,0,,,69,80
105956,note_on,,,,,56,0,1,,,,,0,,,69,0
105960,note_on,,,,,61,0,0,,,,,0,,,75,80
105960,note_on,,,,,0,0,0,,,,,0,,,77,80
105960,note_on,,,,,4,0,1,,,,,0,,,72,80
106016,note_on,,,,,56,0,1,,,,,0,,,72,0
106019,note_on,,,,,0,0,0,,,,,0,,,77,0
106019,note_on,,,,,59,0,0,,,,,0,,,75,0
106020,note_on,,,,,4,0,1,,,,,0,,,69,80
106076,note_on,,,,,56,0,1,,,,,0,,,69,0
106080,note_on,,,,,4,0,1,,,,,0,,,68,80
106080,note_on,,,,,0,0,0,,,,,0,,,78,80
106080,note_on,,,,,61,0,0,,,,,0,,,75,80
106136,note_on,,,,,56,0,1,,,,,0,,,68,0
106140,note_on,,,,,4,0,1,,,,,0,,,71,80
106193,note_on,,,,,0,0,0,,,,,0,,,78,0
106193,note_on,,,,,113,0,0,,,,,0,,,75,0
106196,note_on,,,,,56,0,1,,,,,0,,,71,0
106200,note_on,,,,,4,0,1,,,,,0,,,69,79
106200,note_on,,,,,0,0,0,,,,,0,,,77,79
106200,note_on,,,,,7,0,0,,,,,0,,,75,79
106256,note_on,,,,,56,0,1,,,,,0,,,69,0
106260,note_on,,,,,4,0,1,,,,,0,,,72,78
106313,note_on,,,,,113,0,0,,,,,0,,,75,0
106313,note_on,,,,,0,0,0,,,,,0,,,77,0
106316,note_on,,,,,56,0,1,,,,,0,,,72,0
106320,note_on,,,,,4,0,1,,,,,0,,,68,77
106320,note_on,,,,,0,0,0,,,,,0,,,79,77
106320,note_on,,,,,7,0,0,,,,,0,,,75,77
106376,note_on,,,,,56,0,1,,,,,0,,,68,0
106380,note_on,,,,,4,0,1,,,,,0,,,71,75
106433,note_on,,,,,113,0,0,,,,,0,,,75,0
106433,note_on,,,,,0,0,0,,,,,0,,,79,0
106436,note_on,,,,,56,0,1,,,,,0,,,71,0
106440,note_on,,,,,7,0,0,,,,,0,,,75,74
106440,note_on,,,,,0,0,0,,,,,0,,,77,74
106440,note_on,,,,,4,0,1,,,,,0,,,69,74
106496,note_on,,,,,56,0,1,,,,,0,,,69,0
106500,note_on,,,,,4,0,1,,,,,0,,,72,73
106553,note_on,,,,,113,0,0,,,,,0,,,75,0
106553,note_on,,,,,0,0,0,,,,,0,,,77,0
106556,note_on,,,,,56,0,1,,,,,0,,,72,0
106560,note_on,,,,,7,0,0,,,,,0,,,75,72
106560,note_on,,,,,0,0,0,,,,,0,,,78,72
106560,note_on,,,,,4,0,1,,,,,0,,,68,72
106616,note_on,,,,,56,0,1,,,,,0,,,68,0
106620,note_on,,,,,4,0,1,,,,,0,,,71,70
106673,note_on,,,,,0,0,0,,,,,0,,,78,0
106673,note_on,,,,,113,0,0,,,,,0,,,75,0
106676,note_on,,,,,56,0,1,,,,,0,,,71,0
106680,note_on,,,,,4,0,1,,,,,0,,,69,70
106680,note_on,,,,,7,0,0,,,,,0,,,75,70
106680,note_on,,,,,0,0,0,,,,,0,,,77,70
106736,note_on,,,,,56,0,1,,,,,0,,,69,0
106740,note_on,,,,,4,0,1,,,,,0,,,72,70
106793,note_on,,,,,113,0,0,,,,,0,,,75,0
106793,note_on,,,,,0,0,0,,,,,0,,,77,0
106796,note_on,,,,,56,0,1,,,,,0,,,72,0
106800,note_on,,,,,4,0,1,,,,,0,,,68,70
106800,note_on,,,,,7,0,0,,,,,0,,,75,70
106800,note_on,,,,,0,0,0,,,,,0,,,79,70
106856,note_on,,,,,56,0,1,,,,,0,,,68,0
106860,note_on,,,,,4,0,1,,,,,0,,,71,70
106913,note_on,,,,,0,0,0,,,,,0,,,79,0
106913,note_on,,,,,113,0,0,,,,,0,,,75,0
106916,note_on,,,,,56,0,1,,,,,0,,,71,0
106920,note_on,,,,,4,0,1,,,,,0,,,69,70
106920,note_on,,,,,0,0,0,,,,,0,,,77,70
106920,note_on,,,,,7,0,0,,,,,0,,,75,70
106976,note_on,,,,,56,0,1,,,,,0,,,69,0
106980,note_on,,,,,4,0,1,,,,,0,,,72,70
107033,note_on,,,,,113,0,0,,,,,0,,,75,0
107033,note_on,,,,,0,0,0,,,,,0,,,77,0
107036,note_on,,,,,56,0,1,,,,,0,,,72,0
107040,note_on,,,,,7,0,0,,,,,0,,,75,70
107040,note_on,,,,,0,0,0,,,,,0,,,79,70
107040,note_on,,,,,4,0,1,,,,,0,,,68,70
107096,note_on,,,,,56,0,1,,,,,0,,,68,0
107100,note_on,,,,,4,0,1,,,,,0,,,71,70
107153,note_on,,,,,113,0,0,,,,,0,,,75,0
107153,note_on,,,,,0,0,0,,,,,0,,,79,0
107156,note_on,,,,,56,0,1,,,,,0,,,71,0
107160,note_on,,,,,7,0,0,,,,,0,,,75,70
107160,note_on,,,,,0,0,0,,,,,0,,,77,70
107160,note_on,,,,,4,0,1,,,,,0,,,69,70
107216,note_on,,,,,56,0,1,,,,,0,,,69,0
107220,note_on,,,,,4,0,1,,,,,0,,,72,70
107273,note_on,,,,,113,0,0,,,,,0,,,75,0
107273,note_on,,,,,0,0,0,,,,,0,,,77,0
107276,note_on,,,,,56,0,1,,,,,0,,,72,0
107280,note_on,,,,,7,0,0,,,,,0,,,75,70
107280,note_on,,,,,4,0,1,,,,,0,,,68,70
107280,note_on,,,,,0,0,0,,,,,0,,,79,70
107336,note_on,,,,,56,0,1,,,,,0,,,68,0
107340,note_on,,,,,4,0,1,,,,,0,,,71,70
107393,note_on,,,,,0,0,0,,,,,0,,,79,0
107393,note_on,,,,,113,0,0,,,,,0,,,75,0
107396,note_on,,,,,56,0,1,,,,,0,,,71,0
107400,note_on,,,,,4,0,1,,,,,0,,,69,70
107400,note_on,,,,,7,0,0,,,,,0,,,75,70
107400,note_on,,,,,0,0,0,,,,,0,,,77,70
107456,note_on,,,,,56,0,1,,,,,0,,,69,0
107460,note_on,,,,,4,0,1,,,,,0,,,72,70
107513,note_on,,,,,0,0,0,,,,,0,,,77,0
107513,note_on,,,,,113,0,0,,,,,0,,,75,0
107516,note_on,,,,,56,0,1,,,,,0,,,72,0
107520,note_on,,,,,4,0,1,,,,,0,,,70,70
107520,note_on,,,,,7,0,0,,,,,0,,,74,70
107520,note_on,,,,,0,0,0,,,,,0,,,77,70
107598,note_on,,,,,0,0,0,,,,,0,,,77,0
107598,note_on,,,,,78,0,1,,,,,0,,,70,0
107598,note_on,,,,,78,0,0,,,,,0,,,74,0
107760,note_on,,,,,162,0,0,,,,,0,,,62,70
107816,note_on,,,,,56,0,0,,,,,0,,,62,0
107820,note_on,,,,,4,0,0,,,,,0,,,63,70
107876,note_on,,,,,56,0,0,,,,,0,,,63,0
107880,note_on,,,,,4,0,0,,,,,0,,,62,70
107936,note_on,,,,,56,0,0,,,,,0,,,62,0
107940,note_on,,,,,4,0,0,,,,,0,,,64,70
107996,note_on,,,,,56,0,0,,,,,0,,,64,0
108000,note_on,,,,,4,0,0,,,,,0,,,65,70
108000,note_on,,,,,0,0,1,,,,,0,,,59,70
108000,note_on,,,,,402,0,1,,,,,0,,,50,70
108000,note_on,,,,,0,0,1,,,,,0,,,56,70
108056,note_on,,,,,56,0,0,,,,,0,,,65,0
108060,note_on,,,,,4,0,0,,,,,0,,,66,70
108116,note_on,,,,,56,0,0,,,,,0,,,66,0
108120,note_on,,,,,4,0,0,,,,,0,,,65,70
108176,note_on,,,,,56,0,0,,,,,0,,,65,0
108180,note_on,,,,,4,0,0,,,,,0,,,67,70
108236,note_on,,,,,56,0,0,,,,,0,,,67,0
108240,note_on,,,,,4,0,0,,,,,0,,,68,70
108296,note_on,,,,,56,0,0,,,,,0,,,68,0
108300,note_on,,,,,4,0,0,,,,,0,,,69,70
108356,note_on,,,,,56,0,0,,,,,0,,,69,0
108360,note_on,,,,,4,0,0,,,,,0,,,68,70
108416,note_on,,,,,56,0,0,,,,,0,,,68,0
108420,note_on,,,,,4,0,0,,,,,0,,,70,70
108476,note_on,,,,,56,0,0,,,,,0,,,70,0
108480,note_on,,,,,4,0,0,,,,,0,,,71,70
108536,note_on,,,,,56,0,0,,,,,0,,,71,0
108540,note_on,,,,,4,0,0,,,,,0,,,72,70
108596,note_on,,,,,56,0,0,,,,,0,,,72,0
108600,note_on,,,,,4,0,0,,,,,0,,,71,70
108600,note_on,,,,,600,0,1,,,,,0,,,62,70
108656,note_on,,,,,56,0,0,,,,,0,,,71,0
108659,note_on,,,,,59,0,1,,,,,0,,,62,0
108660,note_on,,,,,4,0,0,,,,,0,,,73,70
108683,note_on,,,,,0,0,1,,,,,0,,,56,0
108683,note_on,,,,,0,0,1,,,,,0,,,59,0
108683,note_on,,,,,24,0,1,,,,,0,,,50,0
108716,note_on,,,,,56,0,0,,,,,0,,,73,0
108720,note_on,,,,,0,0,1,,,,,0,,,61,70
108720,note_on,,,,,37,0,1,,,,,0,,,53,70
108720,note_on,,,,,4,0,0,,,,,0,,,74,70
108720,note_on,,,,,0,0,1,,,,,0,,,56,70
108776,note_on,,,,,56,0,0,,,,,0,,,74,0
108779,note_on,,,,,59,0,1,,,,,0,,,61,0
108780,note_on,,,,,4,0,0,,,,,0,,,75,70
108836,note_on,,,,,56,0,0,,,,,0,,,75,0
108840,note_on,,,,,4,0,0,,,,,0,,,74,70
108840,note_on,,,,,61,0,1,,,,,0,,,60,70
108896,note_on,,,,,56,0,0,,,,,0,,,74,0
108899,note_on,,,,,59,0,1,,,,,0,,,60,0
108900,note_on,,,,,4,0,0,,,,,0,,,76,70
108947,note_on,,,,,48,0,1,,,,,0,,,53,0
108947,note_on,,,,,0,0,1,,,,,0,,,56,0
108956,note_on,,,,,56,0,0,,,,,0,,,76,0
108960,note_on,,,,,13,0,1,,,,,0,,,50,70
108960,note_on,,,,,0,0,1,,,,,0,,,59,70
108960,note_on,,,,,4,0,0,,,,,0,,,77,70
108960,note_on,,,,,0,0,1,,,,,0,,,56,70
109016,note_on,,,,,56,0,0,,,,,0,,,77,0
109019,note_on,,,,,59,0,1,,,,,0,,,59,0
109020,note_on,,,,,4,0,0,,,,,0,,,78,70
109076,note_on,,,,,56,0,0,,,,,0,,,78,0
109080,note_on,,,,,4,0,0,,,,,0,,,77,70
109080,note_on,,,,,61,0,1,,,,,0,,,62,70
109136,note_on,,,,,56,0,0,,,,,0,,,77,0
109139,note_on,,,,,59,0,1,,,,,0,,,62,0
109140,note_on,,,,,4,0,0,,,,,0,,,79,70
109187,note_on,,,,,48,0,1,,,,,0,,,50,0
109187,note_on,,,,,0,0,1,,,,,0,,,56,0
109196,note_on,,,,,56,0,0,,,,,0,,,79,0
109200,note_on,,,,,13,0,1,,,,,0,,,53,70
109200,note_on,,,,,0,0,1,,,,,0,,,61,70
109200,note_on,,,,,4,0,0,,,,,0,,,80,70
109200,note_on,,,,,0,0,1,,,,,0,,,56,70
109256,note_on,,,,,56,0,0,,,,,0,,,80,0
109259,note_on,,,,,59,0,1,,,,,0,,,61,0
109260,note_on,,,,,4,0,0,,,,,0,,,81,70
109260,note_on,,,,,1,0,1,,,,,0,,,60,70
109316,note_on,,,,,56,0,0,,,,,0,,,81,0
109316,note_on,,,,,56,0,1,,,,,0,,,60,0
109320,note_on,,,,,4,0,0,,,,,0,,,80,70
109320,note_on,,,,,4,0,1,,,,,0,,,59,70
109376,note_on,,,,,56,0,0,,,,,0,,,80,0
109379,note_on,,,,,59,0,1,,,,,0,,,59,0
109380,note_on,,,,,4,0,0,,,,,0,,,83,70
109436,note_on,,,,,56,0,0,,,,,0,,,83,0
109439,note_on,,,,,0,0,1,,,,,0,,,56,0
109439,note_on,,,,,60,0,1,,,,,0,,,53,0
109440,note_on,,,,,0,0,1,,,,,0,,,57,70
109440,note_on,,,,,0,0,1,,,,,0,,,54,70
109440,note_on,,,,,0,0,1,,,,,0,,,62,70
109440,note_on,,,,,4,0,0,,,,,0,,,86,70
109440,note_on,,,,,1,0,1,,,,,0,,,50,70
109496,note_on,,,,,56,0,0,,,,,0,,,86,0
109500,note_on,,,,,4,0,0,,,,,0,,,87,70
109518,note_on,,,,,0,0,1,,,,,0,,,54,0
109518,note_on,,,,,0,0,1,,,,,0,,,57,0
109518,note_on,,,,,78,0,1,,,,,0,,,50,0
109518,note_on,,,,,0,0,1,,,,,0,,,62,0
109556,note_on,,,,,56,0,0,,,,,0,,,87,0
109560,note_on,,,,,4,0,0,,,,,0,,,86,70
109616,note_on,,,,,56,0,0,,,,,0,,,86,0
109620,note_on,,,,,4,0,0,,,,,0,,,89,70
109676,note_on,,,,,56,0,0,,,,,0,,,89,0
109680,note_on,,,,,4,0,0,,,,,0,,,90,70
109736,note_on,,,,,56,0,0,,,,,0,,,90,0
109740,note_on,,,,,4,0,0,,,,,0,,,91,70
109796,note_on,,,,,56,0,0,,,,,0,,,91,0
109800,note_on,,,,,4,0,0,,,,,0,,,90,70
109856,note_on,,,,,56,0,0,,,,,0,,,90,0
109860,note_on,,,,,4,0,0,,,,,0,,,92,70
109916,note_on,,,,,56,0,0,,,,,0,,,92,0
109920,note_on,,,,,4,0,0,,,,,0,,,93,70
109976,note_on,,,,,56,0,0,,,,,0,,,93,0
109980,note_on,,,,,4,0,0,,,,,0,,,94,70
110036,note_on,,,,,56,0,0,,,,,0,,,94,0
110040,note_on,,,,,4,0,0,,,,,0,,,93,70
110096,note_on,,,,,56,0,0,,,,,0,,,93,0
110100,note_on,,,,,4,0,0,,,,,0,,,97,70
110156,note_on,,,,,56,0,0,,,,,0,,,97,0
110160,note_on,,,,,4,0,0,,,,,0,,,98,70
110216,note_on,,,,,56,0,0,,,,,0,,,98,0
110220,note_on,,,,,4,0,0,,,,,0,,,97,70
110276,note_on,,,,,56,0,0,,,,,0,,,97,0
110280,note_on,,,,,4,0,0,,,,,0,,,98,70
110336,note_on,,,,,56,0,0,,,,,0,,,98,0
110340,note_on,,,,,4,0,0,,,,,0,,,97,70
110396,note_on,,,,,56,0,0,,,,,0,,,97,0
110400,note_on,,,,,0,0,1,,,,,0,,,63,70
110400,note_on,,,,,0,0,1,,,,,0,,,55,70
110400,note_on,,,,,4,0,0,,,,,0,,,96,70
110400,note_on,,,,,882,0,1,,,,,0,,,48,70
110400,note_on,,,,,0,0,0,,,,,0,,,99,70
110456,note_on,,,,,56,0,0,,,,,0,,,96,0
110460,note_on,,,,,4,0,0,,,,,0,,,95,70
110478,note_on,,,,,78,0,1,,,,,0,,,48,0
110478,note_on,,,,,0,0,1,,,,,0,,,55,0
110478,note_on,,,,,0,0,1,,,,,0,,,63,0
110516,note_on,,,,,56,0,0,,,,,0,,,95,0
110520,note_on,,,,,4,0,0,,,,,0,,,96,70
110576,note_on,,,,,56,0,0,,,,,0,,,96,0
110580,note_on,,,,,4,0,0,,,,,0,,,94,70
110627,note_on,,,,,47,0,0,,,,,0,,,99,0
110636,note_on,,,,,9,0,0,,,,,0,,,94,0
110640,note_on,,,,,4,0,0,,,,,0,,,93,70
110696,note_on,,,,,56,0,0,,,,,0,,,93,0
110700,note_on,,,,,4,0,0,,,,,0,,,91,70
110756,note_on,,,,,56,0,0,,,,,0,,,91,0
110760,note_on,,,,,4,0,0,,,,,0,,,92,70
110816,note_on,,,,,56,0,0,,,,,0,,,92,0
110820,note_on,,,,,4,0,0,,,,,0,,,90,70
110876,note_on,,,,,56,0,0,,,,,0,,,90,0
110880,note_on,,,,,0,0,1,,,,,0,,,48,70
110880,note_on,,,,,0,0,0,,,,,0,,,101,70
110880,note_on,,,,,0,0,1,,,,,0,,,57,70
110880,note_on,,,,,4,0,0,,,,,0,,,89,70
110880,note_on,,,,,0,0,1,,,,,0,,,51,70
110880,note_on,,,,,402,0,1,,,,,0,,,41,70
110936,note_on,,,,,56,0,0,,,,,0,,,89,0
110940,note_on,,,,,4,0,0,,,,,0,,,88,70
110958,note_on,,,,,0,0,1,,,,,0,,,48,0
110958,note_on,,,,,0,0,1,,,,,0,,,51,0
110958,note_on,,,,,0,0,1,,,,,0,,,57,0
110958,note_on,,,,,78,0,1,,,,,0,,,41,0
110996,note_on,,,,,56,0,0,,,,,0,,,88,0
111000,note_on,,,,,4,0,0,,,,,0,,,89,70
111056,note_on,,,,,56,0,0,,,,,0,,,89,0
111060,note_on,,,,,4,0,0,,,,,0,,,87,70
111107,note_on,,,,,47,0,0,,,,,0,,,101,0
111116,note_on,,,,,9,0,0,,,,,0,,,87,0
111120,note_on,,,,,4,0,0,,,,,0,,,86,70
111176,note_on,,,,,56,0,0,,,,,0,,,86,0
111180,note_on,,,,,4,0,0,,,,,0,,,85,70
111236,note_on,,,,,56,0,0,,,,,0,,,85,0
111240,note_on,,,,,4,0,0,,,,,0,,,84,70
111296,note_on,,,,,56,0,0,,,,,0,,,84,0
111300,note_on,,,,,4,0,0,,,,,0,,,82,70
111356,note_on,,,,,56,0,0,,,,,0,,,82,0
111360,note_on,,,,,4,0,0,,,,,0,,,82,70
111360,note_on,,,,,402,0,1,,,,,0,,,46,70
111387,note_on,,,,,27,0,1,,,,,0,,,53,70
111402,note_on,,,,,42,0,0,,,,,0,,,98,70
111415,note_on,,,,,28,0,1,,,,,0,,,62,70
111478,note_on,,,,,63,0,1,,,,,0,,,53,0
111478,note_on,,,,,0,0,1,,,,,0,,,62,0
111479,note_on,,,,,1,0,1,,,,,0,,,46,0
111479,note_on,,,,,0,0,0,,,,,0,,,98,0
111479,note_on,,,,,77,0,0,,,,,0,,,82,0
111600,note_on,,,,,121,0,1,,,,,0,,,38,84
111639,note_on,,,,,39,0,1,,,,,0,,,38,0
111660,note_on,,,,,21,0,1,,,,,0,,,39,70
111716,note_on,,,,,56,0,1,,,,,0,,,39,0
111720,note_on,,,,,4,0,1,,,,,0,,,38,70
111776,note_on,,,,,56,0,1,,,,,0,,,38,0
111780,note_on,,,,,4,0,1,,,,,0,,,40,70
111836,note_on,,,,,56,0,1,,,,,0,,,40,0
111840,note_on,,,,,0,0,1,,,,,0,,,53,70
111840,note_on,,,,,0,0,1,,,,,0,,,56,70
111840,note_on,,,,,0,0,0,,,,,0,,,62,70
111840,note_on,,,,,4,0,1,,,,,0,,,41,70
111840,note_on,,,,,361,0,0,,,,,0,,,59,70
111896,note_on,,,,,56,0,1,,,,,0,,,41,0
111900,note_on,,,,,4,0,1,,,,,0,,,42,70
111956,note_on,,,,,56,0,1,,,,,0,,,42,0
111960,note_on,,,,,4,0,1,,,,,0,,,41,70
112016,note_on,,,,,56,0,1,,,,,0,,,41,0
112020,note_on,,,,,4,0,1,,,,,0,,,43,70
112076,note_on,,,,,56,0,1,,,,,0,,,43,0
112080,note_on,,,,,4,0,1,,,,,0,,,44,70
112136,note_on,,,,,56,0,1,,,,,0,,,44,0
112140,note_on,,,,,4,0,1,,,,,0,,,45,70
112196,note_on,,,,,56,0,1,,,,,0,,,45,0
112200,note_on,,,,,4,0,1,,,,,0,,,44,70
112256,note_on,,,,,56,0,1,,,,,0,,,44,0
112260,note_on,,,,,4,0,1,,,,,0,,,46,70
112295,note_on,,,,,0,0,1,,,,,0,,,56,0
112295,note_on,,,,,35,0,1,,,,,0,,,53,0
112316,note_on,,,,,21,0,1,,,,,0,,,46,0
112319,note_on,,,,,479,0,0,,,,,0,,,59,0
112319,note_on,,,,,0,0,0,,,,,0,,,62,0
112320,note_on,,,,,4,0,1,,,,,0,,,47,70
112376,note_on,,,,,56,0,1,,,,,0,,,47,0
112380,note_on,,,,,4,0,1,,,,,0,,,48,70
112436,note_on,,,,,56,0,1,,,,,0,,,48,0
112440,note_on,,,,,0,0,0,,,,,0,,,80,70
112440,note_on,,,,,121,0,0,,,,,0,,,77,70
112440,note_on,,,,,4,0,1,,,,,0,,,47,70
112440,note_on,,,,,0,0,0,,,,,0,,,86,70
112496,note_on,,,,,56,0,1,,,,,0,,,47,0
112499,note_on,,,,,0,0,0,,,,,0,,,86,0
112499,note_on,,,,,59,0,0,,,,,0,,,77,0
112499,note_on,,,,,0,0,0,,,,,0,,,80,0
112500,note_on,,,,,4,0,1,,,,,0,,,49,70
112556,note_on,,,,,56,0,1,,,,,0,,,49,0
112560,note_on,,,,,4,0,1,,,,,0,,,50,70
112560,note_on,,,,,61,0,0,,,,,0,,,77,70
112560,note_on,,,,,0,0,0,,,,,0,,,80,70
112560,note_on,,,,,0,0,0,,,,,0,,,85,70
112616,note_on,,,,,56,0,1,,,,,0,,,50,0
112619,note_on,,,,,0,0,0,,,,,0,,,80,0
112619,note_on,,,,,59,0,0,,,,,0,,,77,0
112619,note_on,,,,,0,0,0,,,,,0,,,85,0
112620,note_on,,,,,4,0,1,,,,,0,,,51,70
112676,note_on,,,,,56,0,1,,,,,0,,,51,0
112680,note_on,,,,,4,0,1,,,,,0,,,50,70
112680,note_on,,,,,0,0,0,,,,,0,,,84,70
112680,note_on,,,,,0,0,0,,,,,0,,,80,70
112680,note_on,,,,,61,0,0,,,,,0,,,77,70
112736,note_on,,,,,56,0,1,,,,,0,,,50,0
112739,note_on,,,,,0,0,0,,,,,0,,,80,0
112739,note_on,,,,,0,0,0,,,,,0,,,84,0
112739,note_on,,,,,59,0,0,,,,,0,,,77,0
112740,note_on,,,,,4,0,1,,,,,0,,,52,70
112796,note_on,,,,,56,0,1,,,,,0,,,52,0
112800,note_on,,,,,61,0,0,,,,,0,,,74,70
112800,note_on,,,,,4,0,1,,,,,0,,,53,70
112800,note_on,,,,,0,0,0,,,,,0,,,80,70
112800,note_on,,,,,0,0,0,,,,,0,,,83,70
112856,note_on,,,,,56,0,1,,,,,0,,,53,0
112859,note_on,,,,,0,0,0,,,,,0,,,80,0
112859,note_on,,,,,59,0,0,,,,,0,,,74,0
112859,note_on,,,,,0,0,0,,,,,0,,,83,0
112860,note_on,,,,,4,0,1,,,,,0,,,54,70
112916,note_on,,,,,56,0,1,,,,,0,,,54,0
112920,note_on,,,,,61,0,0,,,,,0,,,86,70
112920,note_on,,,,,4,0,1,,,,,0,,,53,70
112976,note_on,,,,,56,0,1,,,,,0,,,53,0
112979,note_on,,,,,59,0,0,,,,,0,,,86,0
112980,note_on,,,,,4,0,1,,,,,0,,,55,70
113036,note_on,,,,,56,0,1,,,,,0,,,55,0
113040,note_on,,,,,4,0,1,,,,,0,,,56,70
113040,note_on,,,,,0,0,0,,,,,0,,,85,70
113040,note_on,,,,,0,0,0,,,,,0,,,77,70
113040,note_on,,,,,61,0,0,,,,,0,,,74,70
113096,note_on,,,,,56,0,1,,,,,0,,,56,0
113099,note_on,,,,,59,0,0,,,,,0,,,74,0
113099,note_on,,,,,0,0,0,,,,,0,,,85,0
113099,note_on,,,,,0,0,0,,,,,0,,,77,0
113100,note_on,,,,,4,0,1,,,,,0,,,57,70
113100,note_on,,,,,1,0,0,,,,,0,,,84,70
113156,note_on,,,,,56,0,1,,,,,0,,,57,0
113156,note_on,,,,,56,0,0,,,,,0,,,84,0
113160,note_on,,,,,4,0,0,,,,,0,,,83,70
113160,note_on,,,,,4,0,1,,,,,0,,,56,70
113216,note_on,,,,,56,0,1,,,,,0,,,56,0
113219,note_on,,,,,59,0,0,,,,,0,,,83,0
113220,note_on,,,,,4,0,1,,,,,0,,,59,70
113276,note_on,,,,,56,0,1,,,,,0,,,59,0
113280,note_on,,,,,4,0,1,,,,,0,,,62,70
113280,note_on,,,,,0,0,0,,,,,0,,,93,70
113280,note_on,,,,,61,0,0,,,,,0,,,78,70
113280,note_on,,,,,0,0,1,,,,,0,,,50,70
113280,note_on,,,,,0,0,0,,,,,0,,,86,70
113336,note_on,,,,,56,0,1,,,,,0,,,62,0
113340,note_on,,,,,4,0,1,,,,,0,,,63,70
113358,note_on,,,,,0,0,0,,,,,0,,,93,0
113358,note_on,,,,,0,0,0,,,,,0,,,86,0
113358,note_on,,,,,78,0,0,,,,,0,,,78,0
113396,note_on,,,,,56,0,1,,,,,0,,,63,0
113400,note_on,,,,,4,0,1,,,,,0,,,62,70
113456,note_on,,,,,56,0,1,,,,,0,,,62,0
113460,note_on,,,,,4,0,1,,,,,0,,,65,70
113507,note_on,,,,,47,0,1,,,,,0,,,50,0
113516,note_on,,,,,9,0,1,,,,,0,,,65,0
113520,note_on,,,,,4,0,1,,,,,0,,,66,70
113576,note_on,,,,,56,0,1,,,,,0,,,66,0
113580,note_on,,,,,4,0,1,,,,,0,,,67,70
113636,note_on,,,,,56,0,1,,,,,0,,,67,0
113640,note_on,,,,,4,0,1,,,,,0,,,66,70
113696,note_on,,,,,56,0,1,,,,,0,,,66,0
113700,note_on,,,,,4,0,1,,,,,0,,,68,70
113756,note_on,,,,,56,0,1,,,,,0,,,68,0
113760,note_on,,,,,4,0,1,,,,,0,,,69,70
113816,note_on,,,,,56,0,1,,,,,0,,,69,0
113820,note_on,,,,,4,0,1,,,,,0,,,70,70
113876,note_on,,,,,56,0,1,,,,,0,,,70,0
113880,note_on,,,,,4,0,1,,,,,0,,,69,70
113936,note_on,,,,,56,0,1,,,,,0,,,69,0
113940,note_on,,,,,4,0,1,,,,,0,,,73,70
113996,note_on,,,,,56,0,1,,,,,0,,,73,0
114000,note_on,,,,,4,0,1,,,,,0,,,74,70
114056,note_on,,,,,56,0,1,,,,,0,,,74,0
114060,note_on,,,,,4,0,1,,,,,0,,,73,70
114116,note_on,,,,,56,0,1,,,,,0,,,73,0
114120,note_on,,,,,4,0,1,,,,,0,,,74,70
114176,note_on,,,,,56,0,1,,,,,0,,,74,0
114180,note_on,,,,,4,0,1,,,,,0,,,73,70
114236,note_on,,,,,56,0,1,,,,,0,,,73,0
114240,note_on,,,,,4,0,1,,,,,0,,,72,70
114240,note_on,,,,,882,0,0,,,,,0,,,79,70
114240,note_on,,,,,0,0,0,,,,,0,,,96,70
114240,note_on,,,,,0,0,1,,,,,0,,,60,70
114240,note_on,,,,,0,0,0,,,,,0,,,87,70
114296,note_on,,,,,56,0,1,,,,,0,,,72,0
114300,note_on,,,,,4,0,1,,,,,0,,,71,70
114318,note_on,,,,,0,0,0,,,,,0,,,96,0
114318,note_on,,,,,0,0,0,,,,,0,,,87,0
114318,note_on,,,,,78,0,0,,,,,0,,,79,0
114356,note_on,,,,,56,0,1,,,,,0,,,71,0
114360,note_on,,,,,4,0,1,,,,,0,,,72,70
114416,note_on,,,,,56,0,1,,,,,0,,,72,0
114420,note_on,,,,,4,0,1,,,,,0,,,70,70
114467,note_on,,,,,47,0,1,,,,,0,,,60,0
114476,note_on,,,,,9,0,1,,,,,0,,,70,0
114480,note_on,,,,,4,0,1,,,,,0,,,69,70
114536,note_on,,,,,56,0,1,,,,,0,,,69,0
114540,note_on,,,,,4,0,1,,,,,0,,,67,70
114596,note_on,,,,,56,0,1,,,,,0,,,67,0
114600,note_on,,,,,4,0,1,,,,,0,,,68,70
114656,note_on,,,,,56,0,1,,,,,0,,,68,0
114660,note_on,,,,,4,0,1,,,,,0,,,66,70
114716,note_on,,,,,56,0,1,,,,,0,,,66,0
114720,note_on,,,,,0,0,1,,,,,0,,,53,70
114720,note_on,,,,,0,0,0,,,,,0,,,93,70
114720,note_on,,,,,0,0,0,,,,,0,,,101,70
114720,note_on,,,,,402,0,0,,,,,0,,,87,70
114720,note_on,,,,,4,0,1,,,,,0,,,65,70
114776,note_on,,,,,56,0,1,,,,,0,,,65,0
114780,note_on,,,,,4,0,1,,,,,0,,,64,70
114798,note_on,,,,,0,0,0,,,,,0,,,101,0
114798,note_on,,,,,0,0,0,,,,,0,,,93,0
114798,note_on,,,,,78,0,0,,,,,0,,,87,0
114836,note_on,,,,,56,0,1,,,,,0,,,64,0
114840,note_on,,,,,4,0,1,,,,,0,,,65,70
114896,note_on,,,,,56,0,1,,,,,0,,,65,0
114900,note_on,,,,,4,0,1,,,,,0,,,63,70
114947,note_on,,,,,47,0,1,,,,,0,,,53,0
114956,note_on,,,,,9,0,1,,,,,0,,,63,0
114960,note_on,,,,,4,0,1,,,,,0,,,62,70
115016,note_on,,,,,56,0,1,,,,,0,,,62,0
115020,note_on,,,,,4,0,1,,,,,0,,,61,70
115076,note_on,,,,,56,0,1,,,,,0,,,61,0
115080,note_on,,,,,4,0,1,,,,,0,,,60,70
115136,note_on,,,,,56,0,1,,,,,0,,,60,0
115140,note_on,,,,,4,0,1,,,,,0,,,59,70
115196,note_on,,,,,56,0,1,,,,,0,,,59,0
115200,note_on,,,,,0,0,1,,,,,0,,,58,70
115200,note_on,,,,,4,0,1,,,,,0,,,46,70
115200,note_on,,,,,0,0,0,,,,,0,,,94,70
115200,note_on,,,,,0,0,0,,,,,0,,,101,70
115200,note_on,,,,,402,0,0,,,,,0,,,86,70
115238,note_on,,,,,0,0,0,,,,,0,,,94,0
115238,note_on,,,,,0,0,0,,,,,0,,,101,0
115238,note_on,,,,,38,0,0,,,,,0,,,86,0
115238,note_on,,,,,38,0,1,,,,,0,,,46,0
115238,note_on,,,,,0,0,1,,,,,0,,,58,0
115320,note_on,,,,,82,0,1,,,,,0,,,58,70
115320,note_on,,,,,82,0,0,,,,,0,,,50,70
115320,note_on,,,,,0,0,1,,,,,0,,,53,70
115376,note_on,,,,,56,0,1,,,,,0,,,58,0
115379,note_on,,,,,59,0,0,,,,,0,,,50,0
115380,note_on,,,,,4,0,1,,,,,0,,,62,70
115433,note_on,,,,,53,0,1,,,,,0,,,53,0
115436,note_on,,,,,3,0,1,,,,,0,,,62,0
115440,note_on,,,,,4,0,1,,,,,0,,,58,70
115440,note_on,,,,,61,0,0,,,,,0,,,48,70
115440,note_on,,,,,0,0,1,,,,,0,,,54,70
115496,note_on,,,,,56,0,1,,,,,0,,,58,0
115499,note_on,,,,,59,0,0,,,,,0,,,48,0
115500,note_on,,,,,4,0,1,,,,,0,,,62,70
115553,note_on,,,,,53,0,1,,,,,0,,,54,0
115556,note_on,,,,,3,0,1,,,,,0,,,62,0
115560,note_on,,,,,4,0,1,,,,,0,,,58,70
115560,note_on,,,,,61,0,0,,,,,0,,,47,70
115560,note_on,,,,,0,0,1,,,,,0,,,55,70
115616,note_on,,,,,56,0,1,,,,,0,,,58,0
115619,note_on,,,,,59,0,0,,,,,0,,,47,0
115620,note_on,,,,,4,0,1,,,,,0,,,62,70
115673,note_on,,,,,53,0,1,,,,,0,,,55,0
115676,note_on,,,,,3,0,1,,,,,0,,,62,0
115680,note_on,,,,,0,0,1,,,,,0,,,54,70
115680,note_on,,,,,4,0,1,,,,,0,,,58,70
115680,note_on,,,,,61,0,0,,,,,0,,,46,70
115736,note_on,,,,,56,0,1,,,,,0,,,58,0
115739,note_on,,,,,59,0,0,,,,,0,,,46,0
115740,note_on,,,,,4,0,1,,,,,0,,,62,70
115793,note_on,,,,,53,0,1,,,,,0,,,54,0
115796,note_on,,,,,3,0,1,,,,,0,,,62,0
115800,note_on,,,,,4,0,1,,,,,0,,,58,70
115800,note_on,,,,,0,0,1,,,,,0,,,53,70
115800,note_on,,,,,61,0,0,,,,,0,,,50,70
115856,note_on,,,,,56,0,1,,,,,0,,,58,0
115859,note_on,,,,,59,0,0,,,,,0,,,50,0
115860,note_on,,,,,4,0,1,,,,,0,,,62,70
115913,note_on,,,,,53,0,1,,,,,0,,,53,0
115916,note_on,,,,,3,0,1,,,,,0,,,62,0
115920,note_on,,,,,61,0,0,,,,,0,,,48,70
115920,note_on,,,,,4,0,1,,,,,0,,,58,70
115920,note_on,,,,,0,0,1,,,,,0,,,54,70
115976,note_on,,,,,56,0,1,,,,,0,,,58,0
115979,note_on,,,,,59,0,0,,,,,0,,,48,0
115980,note_on,,,,,4,0,1,,,,,0,,,62,70
115980,note_on,,,,,1,0,0,,,,,0,,,47,70
116033,note_on,,,,,53,0,1,,,,,0,,,54,0
116036,note_on,,,,,56,0,0,,,,,0,,,47,0
116036,note_on,,,,,3,0,1,,,,,0,,,62,0
116040,note_on,,,,,4,0,0,,,,,0,,,46,70
116040,note_on,,,,,0,0,1,,,,,0,,,55,70
116040,note_on,,,,,4,0,1,,,,,0,,,58,70
116096,note_on,,,,,56,0,1,,,,,0,,,58,0
116099,note_on,,,,,59,0,0,,,,,0,,,46,0
116100,note_on,,,,,4,0,1,,,,,0,,,62,70
116153,note_on,,,,,53,0,1,,,,,0,,,55,0
116156,note_on,,,,,3,0,1,,,,,0,,,62,0
116160,note_on,,,,,4,0,1,,,,,0,,,54,70
116187,note_on,,,,,27,0,1,,,,,0,,,57,70
116215,note_on,,,,,28,0,1,,,,,0,,,63,70
116278,note_on,,,,,63,0,1,,,,,0,,,57,0
116278,note_on,,,,,0,0,1,,,,,0,,,63,0
116279,note_on,,,,,1,0,1,,,,,0,,,54,0
116280,note_on,,,,,1,0,1,,,,,0,,,78,70
116280,note_on,,,,,181,0,0,,,,,0,,,87,70
116280,note_on,,,,,0,0,1,,,,,0,,,81,70
116336,note_on,,,,,56,0,0,,,,,0,,,87,0
116339,note_on,,,,,59,0,1,,,,,0,,,78,0
116339,note_on,,,,,0,0,1,,,,,0,,,81,0
116340,note_on,,,,,4,0,0,,,,,0,,,84,70
116396,note_on,,,,,56,0,0,,,,,0,,,84,0
116400,note_on,,,,,61,0,1,,,,,0,,,71,70
116400,note_on,,,,,4,0,0,,,,,0,,,80,70
116400,note_on,,,,,0,0,1,,,,,0,,,74,70
116456,note_on,,,,,56,0,0,,,,,0,,,80,0
116459,note_on,,,,,59,0,1,,,,,0,,,71,0
116459,note_on,,,,,0,0,1,,,,,0,,,74,0
116460,note_on,,,,,4,0,0,,,,,0,,,77,70
116516,note_on,,,,,56,0,0,,,,,0,,,77,0
116520,note_on,,,,,4,0,0,,,,,0,,,81,70
116520,note_on,,,,,0,0,1,,,,,0,,,75,70
116520,note_on,,,,,61,0,1,,,,,0,,,72,70
116576,note_on,,,,,56,0,0,,,,,0,,,81,0
116579,note_on,,,,,59,0,1,,,,,0,,,72,0
116579,note_on,,,,,0,0,1,,,,,0,,,75,0
116580,note_on,,,,,4,0,0,,,,,0,,,78,70
116636,note_on,,,,,56,0,0,,,,,0,,,78,0
116640,note_on,,,,,4,0,0,,,,,0,,,74,70
116640,note_on,,,,,0,0,1,,,,,0,,,68,70
116640,note_on,,,,,61,0,1,,,,,0,,,65,70
116696,note_on,,,,,56,0,0,,,,,0,,,74,0
116699,note_on,,,,,0,0,1,,,,,0,,,68,0
116699,note_on,,,,,59,0,1,,,,,0,,,65,0
116700,note_on,,,,,4,0,0,,,,,0,,,71,70
116756,note_on,,,,,56,0,0,,,,,0,,,71,0
116760,note_on,,,,,61,0,1,,,,,0,,,66,70
116760,note_on,,,,,4,0,0,,,,,0,,,75,70
116760,note_on,,,,,0,0,1,,,,,0,,,69,70
116816,note_on,,,,,56,0,0,,,,,0,,,75,0
116819,note_on,,,,,59,0,1,,,,,0,,,66,0
116819,note_on,,,,,0,0,1,,,,,0,,,69,0
116820,note_on,,,,,4,0,0,,,,,0,,,72,70
116876,note_on,,,,,56,0,0,,,,,0,,,72,0
116880,note_on,,,,,4,0,0,,,,,0,,,68,70
116880,note_on,,,,,0,0,1,,,,,0,,,62,70
116880,note_on,,,,,61,0,1,,,,,0,,,59,70
116936,note_on,,,,,56,0,0,,,,,0,,,68,0
116939,note_on,,,,,59,0,1,,,,,0,,,59,0
116939,note_on,,,,,0,0,1,,,,,0,,,62,0
116940,note_on,,,,,4,0,0,,,,,0,,,65,70
116996,note_on,,,,,56,0,0,,,,,0,,,65,0
117000,note_on,,,,,61,0,1,,,,,0,,,60,70
117000,note_on,,,,,4,0,0,,,,,0,,,69,70
117000,note_on,,,,,0,0,1,,,,,0,,,63,70
117056,note_on,,,,,56,0,0,,,,,0,,,69,0
117059,note_on,,,,,59,0,1,,,,,0,,,60,0
117059,note_on,,,,,0,0,1,,,,,0,,,63,0
117060,note_on,,,,,4,0,0,,,,,0,,,78,70
117116,note_on,,,,,56,0,0,,,,,0,,,78,0
117120,note_on,,,,,61,0,1,,,,,0,,,62,70
117120,note_on,,,,,0,0,0,,,,,0,,,77,70
117120,note_on,,,,,4,0,0,,,,,0,,,70,70
117158,note_on,,,,,38,0,0,,,,,0,,,70,0
117158,note_on,,,,,38,0,1,,,,,0,,,62,0
117158,note_on,,,,,0,0,0,,,,,0,,,77,0
117240,note_on,,,,,82,0,1,,,,,0,,,53,70
117240,note_on,,,,,0,0,1,,,,,0,,,58,70
117240,note_on,,,,,82,0,0,,,,,0,,,50,70
117296,note_on,,,,,56,0,1,,,,,0,,,58,0
117299,note_on,,,,,59,0,0,,,,,0,,,50,0
117300,note_on,,,,,4,0,1,,,,,0,,,62,70
117353,note_on,,,,,53,0,1,,,,,0,,,53,0
117356,note_on,,,,,3,0,1,,,,,0,,,62,0
117360,note_on,,,,,0,0,1,,,,,0,,,58,70
117360,note_on,,,,,4,0,1,,,,,0,,,54,70
117360,note_on,,,,,61,0,0,,,,,0,,,48,70
117416,note_on,,,,,56,0,1,,,,,0,,,58,0
117419,note_on,,,,,59,0,0,,,,,0,,,48,0
117420,note_on,,,,,4,0,1,,,,,0,,,62,70
117473,note_on,,,,,53,0,1,,,,,0,,,54,0
117476,note_on,,,,,3,0,1,,,,,0,,,62,0
117480,note_on,,,,,4,0,1,,,,,0,,,55,70
117480,note_on,,,,,0,0,1,,,,,0,,,58,70
117480,note_on,,,,,61,0,0,,,,,0,,,47,70
117536,note_on,,,,,56,0,1,,,,,0,,,58,0
117539,note_on,,,,,59,0,0,,,,,0,,,47,0
117540,note_on,,,,,4,0,1,,,,,0,,,62,70
117593,note_on,,,,,53,0,1,,,,,0,,,55,0
117596,note_on,,,,,3,0,1,,,,,0,,,62,0
117600,note_on,,,,,0,0,1,,,,,0,,,58,70
117600,note_on,,,,,4,0,1,,,,,0,,,54,70
117600,note_on,,,,,61,0,0,,,,,0,,,46,70
117656,note_on,,,,,56,0,1,,,,,0,,,58,0
117659,note_on,,,,,59,0,0,,,,,0,,,46,0
117660,note_on,,,,,4,0,1,,,,,0,,,62,70
117713,note_on,,,,,53,0,1,,,,,0,,,54,0
117716,note_on,,,,,3,0,1,,,,,0,,,62,0
117720,note_on,,,,,61,0,0,,,,,0,,,50,70
117720,note_on,,,,,4,0,1,,,,,0,,,53,70
117720,note_on,,,,,0,0,1,,,,,0,,,58,70
117776,note_on,,,,,56,0,1,,,,,0,,,58,0
117779,note_on,,,,,59,0,0,,,,,0,,,50,0
117780,note_on,,,,,4,0,1,,,,,0,,,62,70
117833,note_on,,,,,53,0,1,,,,,0,,,53,0
117836,note_on,,,,,3,0,1,,,,,0,,,62,0
117840,note_on,,,,,0,0,1,,,,,0,,,58,70
117840,note_on,,,,,61,0,0,,,,,0,,,48,70
117840,note_on,,,,,4,0,1,,,,,0,,,54,70
117896,note_on,,,,,56,0,1,,,,,0,,,58,0
117899,note_on,,,,,59,0,0,,,,,0,,,48,0
117900,note_on,,,,,1,0,0,,,,,0,,,47,70
117900,note_on,,,,,4,0,1,,,,,0,,,62,70
117953,note_on,,,,,53,0,1,,,,,0,,,54,0
117956,note_on,,,,,56,0,0,,,,,0,,,47,0
117956,note_on,,,,,3,0,1,,,,,0,,,62,0
117960,note_on,,,,,0,0,1,,,,,0,,,58,70
117960,note_on,,,,,4,0,1,,,,,0,,,55,70
117960,note_on,,,,,4,0,0,,,,,0,,,46,70
118016,note_on,,,,,56,0,1,,,,,0,,,58,0
118019,note_on,,,,,59,0,0,,,,,0,,,46,0
118020,note_on,,,,,4,0,1,,,,,0,,,62,70
118073,note_on,,,,,53,0,1,,,,,0,,,55,0
118076,note_on,,,,,3,0,1,,,,,0,,,62,0
118080,note_on,,,,,0,0,1,,,,,0,,,63,70
118080,note_on,,,,,0,0,1,,,,,0,,,57,70
118080,note_on,,,,,4,0,1,,,,,0,,,54,70
118118,note_on,,,,,38,0,1,,,,,0,,,54,0
118118,note_on,,,,,0,0,1,,,,,0,,,63,0
118118,note_on,,,,,0,0,1,,,,,0,,,57,0
118200,note_on,,,,,181,0,0,,,,,0,,,87,70
118200,note_on,,,,,0,0,1,,,,,0,,,81,70
118200,note_on,,,,,82,0,1,,,,,0,,,78,70
118256,note_on,,,,,56,0,0,,,,,0,,,87,0
118259,note_on,,,,,0,0,1,,,,,0,,,81,0
118259,note_on,,,,,59,0,1,,,,,0,,,78,0
118260,note_on,,,,,4,0,0,,,,,0,,,84,70
118316,note_on,,,,,56,0,0,,,,,0,,,84,0
118320,note_on,,,,,4,0,0,,,,,0,,,80,70
118320,note_on,,,,,61,0,1,,,,,0,,,71,70
118320,note_on,,,,,0,0,1,,,,,0,,,74,70
118376,note_on,,,,,56,0,0,,,,,0,,,80,0
118379,note_on,,,,,59,0,1,,,,,0,,,71,0
118379,note_on,,,,,0,0,1,,,,,0,,,74,0
118380,note_on,,,,,4,0,0,,,,,0,,,77,70
118436,note_on,,,,,56,0,0,,,,,0,,,77,0
118440,note_on,,,,,4,0,0,,,,,0,,,81,70
118440,note_on,,,,,0,0,1,,,,,0,,,75,70
118440,note_on,,,,,61,0,1,,,,,0,,,72,70
118496,note_on,,,,,56,0,0,,,,,0,,,81,0
118499,note_on,,,,,59,0,1,,,,,0,,,72,0
118499,note_on,,,,,0,0,1,,,,,0,,,75,0
118500,note_on,,,,,4,0,0,,,,,0,,,78,70
118556,note_on,,,,,56,0,0,,,,,0,,,78,0
118560,note_on,,,,,61,0,1,,,,,0,,,65,70
118560,note_on,,,,,4,0,0,,,,,0,,,74,70
118560,note_on,,,,,0,0,1,,,,,0,,,68,70
118616,note_on,,,,,56,0,0,,,,,0,,,74,0
118619,note_on,,,,,59,0,1,,,,,0,,,65,0
118619,note_on,,,,,0,0,1,,,,,0,,,68,0
118620,note_on,,,,,4,0,0,,,,,0,,,71,70
118676,note_on,,,,,56,0,0,,,,,0,,,71,0
118680,note_on,,,,,4,0,0,,,,,0,,,75,70
118680,note_on,,,,,0,0,1,,,,,0,,,69,70
118680,note_on,,,,,61,0,1,,,,,0,,,66,70
118736,note_on,,,,,56,0,0,,,,,0,,,75,0
118739,note_on,,,,,59,0,1,,,,,0,,,66,0
118739,note_on,,,,,0,0,1,,,,,0,,,69,0
118740,note_on,,,,,4,0,0,,,,,0,,,72,70
118796,note_on,,,,,56,0,0,,,,,0,,,72,0
118800,note_on,,,,,0,0,1,,,,,0,,,62,70
118800,note_on,,,,,4,0,0,,,,,0,,,68,70
118800,note_on,,,,,61,0,1,,,,,0,,,59,70
118856,note_on,,,,,56,0,0,,,,,0,,,68,0
118859,note_on,,,,,59,0,1,,,,,0,,,59,0
118859,note_on,,,,,0,0,1,,,,,0,,,62,0
118860,note_on,,,,,4,0,0,,,,,0,,,65,70
118916,note_on,,,,,56,0,0,,,,,0,,,65,0
118920,note_on,,,,,61,0,1,,,,,0,,,60,70
118920,note_on,,,,,0,0,1,,,,,0,,,63,70
118920,note_on,,,,,4,0,0,,,,,0,,,69,70
118976,note_on,,,,,56,0,0,,,,,0,,,69,0
118979,note_on,,,,,0,0,1,,,,,0,,,63,0
118979,note_on,,,,,59,0,1,,,,,0,,,60,0
118980,note_on,,,,,4,0,0,,,,,0,,,78,70
119036,note_on,,,,,56,0,0,,,,,0,,,78,0
119040,note_on,,,,,61,0,1,,,,,0,,,51,70
119040,note_on,,,,,0,0,0,,,,,0,,,66,70
119040,note_on,,,,,0,0,1,,,,,0,,,57,70
119040,note_on,,,,,4,0,0,,,,,0,,,60,70
119078,note_on,,,,,0,0,0,,,,,0,,,66,0
119078,note_on,,,,,38,0,1,,,,,0,,,51,0
119078,note_on,,,,,0,0,1,,,,,0,,,57,0
119078,note_on,,,,,38,0,0,,,,,0,,,60,0
119160,note_on,,,,,82,0,1,,,,,0,,,81,70
119160,note_on,,,,,0,0,1,,,,,0,,,84,70
119160,note_on,,,,,82,0,0,,,,,0,,,90,70
119216,note_on,,,,,56,0,0,,,,,0,,,90,0
119220,note_on,,,,,4,0,0,,,,,0,,,87,70
119273,note_on,,,,,0,0,1,,,,,0,,,84,0
119273,note_on,,,,,113,0,1,,,,,0,,,81,0
119276,note_on,,,,,56,0,0,,,,,0,,,87,0
119280,note_on,,,,,7,0,1,,,,,0,,,74,70
119280,note_on,,,,,0,0,1,,,,,0,,,77,70
119280,note_on,,,,,4,0,0,,,,,0,,,83,70
119336,note_on,,,,,56,0,0,,,,,0,,,83,0
119340,note_on,,,,,4,0,0,,,,,0,,,80,70
119393,note_on,,,,,0,0,1,,,,,0,,,77,0
119393,note_on,,,,,113,0,1,,,,,0,,,74,0
119396,note_on,,,,,56,0,0,,,,,0,,,80,0
119400,note_on,,,,,0,0,1,,,,,0,,,78,70
119400,note_on,,,,,7,0,1,,,,,0,,,75,70
119400,note_on,,,,,4,0,0,,,,,0,,,84,70
119456,note_on,,,,,56,0,0,,,,,0,,,84,0
119460,note_on,,,,,4,0,0,,,,,0,,,81,70
119513,note_on,,,,,113,0,1,,,,,0,,,75,0
119513,note_on,,,,,0,0,1,,,,,0,,,78,0
119516,note_on,,,,,56,0,0,,,,,0,,,81,0
119520,note_on,,,,,7,0,1,,,,,0,,,68,70
119520,note_on,,,,,4,0,0,,,,,0,,,77,70
119520,note_on,,,,,0,0,1,,,,,0,,,71,70
119576,note_on,,,,,56,0,0,,,,,0,,,77,0
119580,note_on,,,,,4,0,0,,,,,0,,,74,70
119633,note_on,,,,,113,0,1,,,,,0,,,68,0
119633,note_on,,,,,0,0,1,,,,,0,,,71,0
119636,note_on,,,,,56,0,0,,,,,0,,,74,0
119640,note_on,,,,,0,0,1,,,,,0,,,72,70
119640,note_on,,,,,4,0,0,,,,,0,,,78,70
119640,note_on,,,,,7,0,1,,,,,0,,,69,70
119696,note_on,,,,,56,0,0,,,,,0,,,78,0
119700,note_on,,,,,4,0,0,,,,,0,,,75,70
119753,note_on,,,,,0,0,1,,,,,0,,,72,0
119753,note_on,,,,,113,0,1,,,,,0,,,69,0
119756,note_on,,,,,56,0,0,,,,,0,,,75,0
119760,note_on,,,,,0,0,1,,,,,0,,,65,70
119760,note_on,,,,,7,0,1,,,,,0,,,62,70
119760,note_on,,,,,4,0,0,,,,,0,,,71,70
119816,note_on,,,,,56,0,0,,,,,0,,,71,0
119820,note_on,,,,,4,0,0,,,,,0,,,68,70
119873,note_on,,,,,0,0,1,,,,,0,,,65,0
119873,note_on,,,,,113,0,1,,,,,0,,,62,0
119876,note_on,,,,,56,0,0,,,,,0,,,68,0
119880,note_on,,,,,0,0,1,,,,,0,,,66,70
119880,note_on,,,,,4,0,0,,,,,0,,,72,70
119880,note_on,,,,,7,0,1,,,,,0,,,63,70
119936,note_on,,,,,56,0,0,,,,,0,,,72,0
119940,note_on,,,,,4,0,0,,,,,0,,,81,70
119993,note_on,,,,,0,0,1,,,,,0,,,66,0
119993,note_on,,,,,113,0,1,,,,,0,,,63,0
119996,note_on,,,,,56,0,0,,,,,0,,,81,0
120000,note_on,,,,,0,0,0,,,,,0,,,69,70
120000,note_on,,,,,7,0,1,,,,,0,,,46,70
120000,note_on,,,,,0,0,1,,,,,0,,,60,70
120000,note_on,,,,,0,0,1,,,,,0,,,54,70
120000,note_on,,,,,4,0,0,,,,,0,,,63,70
120038,note_on,,,,,38,0,1,,,,,0,,,46,0
120038,note_on,,,,,0,0,0,,,,,0,,,69,0
120038,note_on,,,,,38,0,0,,,,,0,,,63,0
120038,note_on,,,,,0,0,1,,,,,0,,,60,0
120038,note_on,,,,,0,0,1,,,,,0,,,54,0
120120,note_on,,,,,82,0,0,,,,,0,,,93,70
120120,note_on,,,,,0,0,1,,,,,0,,,87,70
120120,note_on,,,,,82,0,1,,,,,0,,,84,70
120176,note_on,,,,,56,0,0,,,,,0,,,93,0
120180,note_on,,,,,4,0,0,,,,,0,,,90,70
120233,note_on,,,,,113,0,1,,,,,0,,,84,0
120233,note_on,,,,,0,0,1,,,,,0,,,87,0
120236,note_on,,,,,56,0,0,,,,,0,,,90,0
120240,note_on,,,,,4,0,0,,,,,0,,,86,70
120240,note_on,,,,,0,0,1,,,,,0,,,80,70
120240,note_on,,,,,7,0,1,,,,,0,,,77,70
120296,note_on,,,,,56,0,0,,,,,0,,,86,0
120300,note_on,,,,,4,0,0,,,,,0,,,83,70
120353,note_on,,,,,0,0,1,,,,,0,,,80,0
120353,note_on,,,,,113,0,1,,,,,0,,,77,0
120356,note_on,,,,,56,0,0,,,,,0,,,83,0
120360,note_on,,,,,7,0,1,,,,,0,,,78,70
120360,note_on,,,,,4,0,0,,,,,0,,,87,70
120360,note_on,,,,,0,0,1,,,,,0,,,81,70
120416,note_on,,,,,56,0,0,,,,,0,,,87,0
120420,note_on,,,,,4,0,0,,,,,0,,,84,70
120473,note_on,,,,,113,0,1,,,,,0,,,78,0
120473,note_on,,,,,0,0,1,,,,,0,,,81,0
120476,note_on,,,,,56,0,0,,,,,0,,,84,0
120480,note_on,,,,,4,0,0,,,,,0,,,96,70
120480,note_on,,,,,0,0,1,,,,,0,,,90,70
120480,note_on,,,,,7,0,1,,,,,0,,,87,70
120536,note_on,,,,,56,0,0,,,,,0,,,96,0
120540,note_on,,,,,4,0,0,,,,,0,,,93,70
120593,note_on,,,,,0,0,1,,,,,0,,,90,0
120593,note_on,,,,,113,0,1,,,,,0,,,87,0
120596,note_on,,,,,56,0,0,,,,,0,,,93,0
120600,note_on,,,,,0,0,1,,,,,0,,,83,70
120600,note_on,,,,,4,0,0,,,,,0,,,89,70
120600,note_on,,,,,7,0,1,,,,,0,,,80,70
120656,note_on,,,,,56,0,0,,,,,0,,,89,0
120660,note_on,,,,,4,0,0,,,,,0,,,86,70
120713,note_on,,,,,113,0,1,,,,,0,,,80,0
120713,note_on,,,,,0,0,1,,,,,0,,,83,0
120716,note_on,,,,,56,0,0,,,,,0,,,86,0
120720,note_on,,,,,0,0,1,,,,,0,,,84,70
120720,note_on,,,,,7,0,1,,,,,0,,,81,70
120720,note_on,,,,,4,0,0,,,,,0,,,90,70
120776,note_on,,,,,56,0,0,,,,,0,,,90,0
120780,note_on,,,,,4,0,0,,,,,0,,,87,70
120833,note_on,,,,,113,0,1,,,,,0,,,81,0
120833,note_on,,,,,0,0,1,,,,,0,,,84,0
120836,note_on,,,,,56,0,0,,,,,0,,,87,0
120840,note_on,,,,,0,0,1,,,,,0,,,93,70
120840,note_on,,,,,4,0,0,,,,,0,,,99,70
120840,note_on,,,,,7,0,1,,,,,0,,,90,70
120896,note_on,,,,,56,0,0,,,,,0,,,99,0
120900,note_on,,,,,4,0,0,,,,,0,,,96,70
120953,note_on,,,,,113,0,1,,,,,0,,,90,0
120953,note_on,,,,,0,0,1,,,,,0,,,93,0
120956,note_on,,,,,56,0,0,,,,,0,,,96,0
120960,note_on,,,,,4,0,0,,,,,0,,,92,70
120960,note_on,,,,,0,0,1,,,,,0,,,86,70
120960,note_on,,,,,7,0,1,,,,,0,,,83,70
121016,note_on,,,,,56,0,0,,,,,0,,,92,0
121020,note_on,,,,,4,0,0,,,,,0,,,89,70
121073,note_on,,,,,113,0,1,,,,,0,,,83,0
121073,note_on,,,,,0,0,1,,,,,0,,,86,0
121076,note_on,,,,,56,0,0,,,,,0,,,89,0
121080,note_on,,,,,4,0,0,,,,,0,,,93,70
121080,note_on,,,,,0,0,1,,,,,0,,,87,70
121080,note_on,,,,,7,0,1,,,,,0,,,84,70
121136,note_on,,,,,56,0,0,,,,,0,,,93,0
121140,note_on,,,,,4,0,0,,,,,0,,,90,70
121193,note_on,,,,,0,0,1,,,,,0,,,87,0
121193,note_on,,,,,113,0,1,,,,,0,,,84,0
121196,note_on,,,,,56,0,0,,,,,0,,,90,0
121200,note_on,,,,,0,0,1,,,,,0,,,83,70
121200,note_on,,,,,7,0,1,,,,,0,,,80,70
121200,note_on,,,,,4,0,0,,,,,0,,,100,70
121256,note_on,,,,,56,0,0,,,,,0,,,100,0
121260,note_on,,,,,4,0,0,,,,,0,,,87,70
121313,note_on,,,,,113,0,1,,,,,0,,,80,0
121313,note_on,,,,,0,0,1,,,,,0,,,83,0
121316,note_on,,,,,56,0,0,,,,,0,,,87,0
121320,note_on,,,,,4,0,0,,,,,0,,,101,70
121320,note_on,,,,,0,0,1,,,,,0,,,84,70
121320,note_on,,,,,7,0,1,,,,,0,,,81,70
121376,note_on,,,,,56,0,0,,,,,0,,,101,0
121380,note_on,,,,,4,0,0,,,,,0,,,87,70
121433,note_on,,,,,0,0,1,,,,,0,,,84,0
121433,note_on,,,,,113,0,1,,,,,0,,,81,0
121436,note_on,,,,,56,0,0,,,,,0,,,87,0
121440,note_on,,,,,4,0,0,,,,,0,,,100,70
121440,note_on,,,,,0,0,1,,,,,0,,,83,70
121440,note_on,,,,,7,0,1,,,,,0,,,80,70
121496,note_on,,,,,56,0,0,,,,,0,,,100,0
121500,note_on,,,,,4,0,0,,,,,0,,,87,70
121553,note_on,,,,,113,0,1,,,,,0,,,80,0
121553,note_on,,,,,0,0,1,,,,,0,,,83,0
121556,note_on,,,,,56,0,0,,,,,0,,,87,0
121560,note_on,,,,,7,0,1,,,,,0,,,81,70
121560,note_on,,,,,4,0,0,,,,,0,,,101,70
121560,note_on,,,,,0,0,1,,,,,0,,,84,70
121616,note_on,,,,,56,0,0,,,,,0,,,101,0
121620,note_on,,,,,4,0,0,,,,,0,,,87,70
121673,note_on,,,,,0,0,1,,,,,0,,,84,0
121673,note_on,,,,,113,0,1,,,,,0,,,81,0
121676,note_on,,,,,56,0,0,,,,,0,,,87,0
121680,note_on,,,,,4,0,0,,,,,0,,,100,70
121680,note_on,,,,,7,0,1,,,,,0,,,80,70
121680,note_on,,,,,0,0,1,,,,,0,,,83,70
121736,note_on,,,,,56,0,0,,,,,0,,,100,0
121740,note_on,,,,,4,0,0,,,,,0,,,87,70
121793,note_on,,,,,0,0,1,,,,,0,,,83,0
121793,note_on,,,,,113,0,1,,,,,0,,,80,0
121796,note_on,,,,,56,0,0,,,,,0,,,87,0
121800,note_on,,,,,0,0,1,,,,,0,,,84,70
121800,note_on,,,,,7,0,1,,,,,0,,,81,70
121800,note_on,,,,,4,0,0,,,,,0,,,101,70
121856,note_on,,,,,56,0,0,,,,,0,,,101,0
121860,note_on,,,,,4,0,0,,,,,0,,,87,70
121913,note_on,,,,,113,0,1,,,,,0,,,81,0
121913,note_on,,,,,0,0,1,,,,,0,,,84,0
121916,note_on,,,,,56,0,0,,,,,0,,,87,0
121920,note_on,,,,,7,0,1,,,,,0,,,82,70
121920,note_on,,,,,4,0,0,,,,,0,,,101,70
121920,note_on,,,,,0,0,1,,,,,0,,,86,70
122033,note_on,,,,,113,0,0,,,,,0,,,101,0
122033,note_on,,,,,113,0,1,,,,,0,,,82,0
122033,note_on,,,,,0,0,1,,,,,0,,,86,0
122040,note_on,,,,,7,0,0,,,,,0,,,98,50
122040,note_on,,,,,7,0,1,,,,,0,,,90,50
122096,note_on,,,,,56,0,0,,,,,0,,,98,0
122096,note_on,,,,,56,0,1,,,,,0,,,90,0
122100,note_on,,,,,4,0,1,,,,,0,,,89,50
122100,note_on,,,,,4,0,0,,,,,0,,,94,50
122156,note_on,,,,,56,0,0,,,,,0,,,94,0
122156,note_on,,,,,56,0,1,,,,,0,,,89,0
122160,note_on,,,,,4,0,1,,,,,0,,,86,50
122160,note_on,,,,,4,0,0,,,,,0,,,90,50
122216,note_on,,,,,56,0,0,,,,,0,,,90,0
122216,note_on,,,,,56,0,1,,,,,0,,,86,0
122220,note_on,,,,,4,0,0,,,,,0,,,89,50
122220,note_on,,,,,4,0,1,,,,,0,,,82,50
122276,note_on,,,,,56,0,0,,,,,0,,,89,0
122276,note_on,,,,,56,0,1,,,,,0,,,82,0
122280,note_on,,,,,4,0,0,,,,,0,,,86,50
122280,note_on,,,,,4,0,1,,,,,0,,,78,50
122336,note_on,,,,,56,0,0,,,,,0,,,86,0
122336,note_on,,,,,56,0,1,,,,,0,,,78,0
122340,note_on,,,,,4,0,1,,,,,0,,,77,50
122340,note_on,,,,,4,0,0,,,,,0,,,82,50
122396,note_on,,,,,56,0,1,,,,,0,,,77,0
122396,note_on,,,,,56,0,0,,,,,0,,,82,0
122400,note_on,,,,,4,0,1,,,,,0,,,74,50
122400,note_on,,,,,4,0,0,,,,,0,,,78,50
122456,note_on,,,,,56,0,0,,,,,0,,,78,0
122456,note_on,,,,,56,0,1,,,,,0,,,74,0
122460,note_on,,,,,4,0,0,,,,,0,,,77,50
122460,note_on,,,,,4,0,1,,,,,0,,,70,50
122516,note_on,,,,,56,0,1,,,,,0,,,70,0
122516,note_on,,,,,56,0,0,,,,,0,,,77,0
122520,note_on,,,,,4,0,0,,,,,0,,,78,50
122520,note_on,,,,,4,0,1,,,,,0,,,74,50
122576,note_on,,,,,56,0,1,,,,,0,,,74,0
122576,note_on,,,,,56,0,0,,,,,0,,,78,0
122580,note_on,,,,,4,0,0,,,,,0,,,82,50
122580,note_on,,,,,4,0,1,,,,,0,,,77,50
122636,note_on,,,,,56,0,1,,,,,0,,,77,0
122636,note_on,,,,,56,0,0,,,,,0,,,82,0
122640,note_on,,,,,4,0,1,,,,,0,,,78,50
122640,note_on,,,,,4,0,0,,,,,0,,,86,50
122696,note_on,,,,,56,0,0,,,,,0,,,86,0
122696,note_on,,,,,56,0,1,,,,,0,,,78,0
122700,note_on,,,,,4,0,0,,,,,0,,,89,50
122700,note_on,,,,,4,0,1,,,,,0,,,82,50
122756,note_on,,,,,56,0,1,,,,,0,,,82,0
122756,note_on,,,,,56,0,0,,,,,0,,,89,0
122760,note_on,,,,,4,0,0,,,,,0,,,90,50
122760,note_on,,,,,4,0,1,,,,,0,,,86,50
122816,note_on,,,,,56,0,1,,,,,0,,,86,0
122816,note_on,,,,,56,0,0,,,,,0,,,90,0
122820,note_on,,,,,4,0,0,,,,,0,,,94,50
122820,note_on,,,,,4,0,1,,,,,0,,,89,50
122876,note_on,,,,,56,0,0,,,,,0,,,94,0
122876,note_on,,,,,56,0,1,,,,,0,,,89,0
122880,note_on,,,,,4,0,1,,,,,0,,,70,50
122880,note_on,,,,,4,0,0,,,,,0,,,98,50
122918,note_on,,,,,38,0,0,,,,,0,,,98,0
122918,note_on,,,,,38,0,1,,,,,0,,,70,0
123000,note_on,,,,,82,0,1,,,,,0,,,78,50
123000,note_on,,,,,82,0,0,,,,,0,,,86,50
123056,note_on,,,,,56,0,0,,,,,0,,,86,0
123056,note_on,,,,,56,0,1,,,,,0,,,78,0
123060,note_on,,,,,4,0,1,,,,,0,,,77,50
123060,note_on,,,,,4,0,0,,,,,0,,,82,50
123116,note_on,,,,,56,0,1,,,,,0,,,77,0
123116,note_on,,,,,56,0,0,,,,,0,,,82,0
123120,note_on,,,,,4,0,0,,,,,0,,,78,50
123120,note_on,,,,,4,0,1,,,,,0,,,74,50
123176,note_on,,,,,56,0,0,,,,,0,,,78,0
123176,note_on,,,,,56,0,1,,,,,0,,,74,0
123180,note_on,,,,,4,0,0,,,,,0,,,77,50
123180,note_on,,,,,4,0,1,,,,,0,,,70,50
123236,note_on,,,,,56,0,0,,,,,0,,,77,0
123236,note_on,,,,,56,0,1,,,,,0,,,70,0
123240,note_on,,,,,4,0,0,,,,,0,,,74,50
123240,note_on,,,,,4,0,1,,,,,0,,,66,50
123296,note_on,,,,,56,0,1,,,,,0,,,66,0
123296,note_on,,,,,56,0,0,,,,,0,,,74,0
123300,note_on,,,,,4,0,1,,,,,0,,,65,50
123300,note_on,,,,,4,0,0,,,,,0,,,70,50
123356,note_on,,,,,56,0,0,,,,,0,,,70,0
123356,note_on,,,,,56,0,1,,,,,0,,,65,0
123360,note_on,,,,,4,0,1,,,,,0,,,62,50
123360,note_on,,,,,4,0,0,,,,,0,,,66,50
123416,note_on,,,,,56,0,0,,,,,0,,,66,0
123416,note_on,,,,,56,0,1,,,,,0,,,62,0
123420,note_on,,,,,4,0,0,,,,,0,,,65,50
123420,note_on,,,,,4,0,1,,,,,0,,,58,50
123476,note_on,,,,,56,0,1,,,,,0,,,58,0
123476,note_on,,,,,56,0,0,,,,,0,,,65,0
123480,note_on,,,,,4,0,0,,,,,0,,,66,50
123480,note_on,,,,,4,0,1,,,,,0,,,62,50
123536,note_on,,,,,56,0,1,,,,,0,,,62,0
123536,note_on,,,,,56,0,0,,,,,0,,,66,0
123540,note_on,,,,,4,0,1,,,,,0,,,65,50
123540,note_on,,,,,4,0,0,,,,,0,,,70,50
123596,note_on,,,,,56,0,1,,,,,0,,,65,0
123596,note_on,,,,,56,0,0,,,,,0,,,70,0
123600,note_on,,,,,4,0,0,,,,,0,,,74,50
123600,note_on,,,,,4,0,1,,,,,0,,,66,50
123656,note_on,,,,,56,0,0,,,,,0,,,74,0
123656,note_on,,,,,56,0,1,,,,,0,,,66,0
123660,note_on,,,,,4,0,1,,,,,0,,,70,50
123660,note_on,,,,,4,0,0,,,,,0,,,77,50
123716,note_on,,,,,56,0,1,,,,,0,,,70,0
123716,note_on,,,,,56,0,0,,,,,0,,,77,0
123720,note_on,,,,,4,0,1,,,,,0,,,74,50
123720,note_on,,,,,4,0,0,,,,,0,,,78,50
123776,note_on,,,,,56,0,1,,,,,0,,,74,0
123776,note_on,,,,,56,0,0,,,,,0,,,78,0
123780,note_on,,,,,4,0,1,,,,,0,,,77,50
123780,note_on,,,,,4,0,0,,,,,0,,,82,50
123836,note_on,,,,,56,0,1,,,,,0,,,77,0
123836,note_on,,,,,56,0,0,,,,,0,,,82,0
123840,note_on,,,,,4,0,1,,,,,0,,,70,50
123840,note_on,,,,,4,0,0,,,,,0,,,86,50
123878,note_on,,,,,38,0,0,,,,,0,,,86,0
123878,note_on,,,,,38,0,1,,,,,0,,,70,0
123960,note_on,,,,,82,0,1,,,,,0,,,66,50
123960,note_on,,,,,82,0,0,,,,,0,,,74,50
124016,note_on,,,,,56,0,0,,,,,0,,,74,0
124016,note_on,,,,,56,0,1,,,,,0,,,66,0
124020,note_on,,,,,4,0,1,,,,,0,,,65,50
124020,note_on,,,,,4,0,0,,,,,0,,,70,50
124076,note_on,,,,,56,0,1,,,,,0,,,65,0
124076,note_on,,,,,56,0,0,,,,,0,,,70,0
124080,note_on,,,,,4,0,0,,,,,0,,,66,50
124080,note_on,,,,,4,0,1,,,,,0,,,62,50
124136,note_on,,,,,56,0,1,,,,,0,,,62,0
124136,note_on,,,,,56,0,0,,,,,0,,,66,0
124140,note_on,,,,,4,0,1,,,,,0,,,58,50
124140,note_on,,,,,4,0,0,,,,,0,,,65,50
124196,note_on,,,,,56,0,1,,,,,0,,,58,0
124196,note_on,,,,,56,0,0,,,,,0,,,65,0
124200,note_on,,,,,4,0,0,,,,,0,,,62,50
124200,note_on,,,,,4,0,1,,,,,0,,,54,50
124256,note_on,,,,,56,0,0,,,,,0,,,62,0
124256,note_on,,,,,56,0,1,,,,,0,,,54,0
124260,note_on,,,,,4,0,0,,,,,0,,,58,50
124260,note_on,,,,,4,0,1,,,,,0,,,53,50
124316,note_on,,,,,56,0,0,,,,,0,,,58,0
124316,note_on,,,,,56,0,1,,,,,0,,,53,0
124320,note_on,,,,,4,0,1,,,,,0,,,54,50
124320,note_on,,,,,4,0,0,,,,,0,,,62,50
124376,note_on,,,,,56,0,1,,,,,0,,,54,0
124376,note_on,,,,,56,0,0,,,,,0,,,62,0
124380,note_on,,,,,4,0,1,,,,,0,,,58,50
124380,note_on,,,,,4,0,0,,,,,0,,,65,50
124436,note_on,,,,,56,0,0,,,,,0,,,65,0
124436,note_on,,,,,56,0,1,,,,,0,,,58,0
124440,note_on,,,,,4,0,1,,,,,0,,,62,50
124440,note_on,,,,,4,0,0,,,,,0,,,66,50
124496,note_on,,,,,56,0,0,,,,,0,,,66,0
124496,note_on,,,,,56,0,1,,,,,0,,,62,0
124500,note_on,,,,,4,0,0,,,,,0,,,70,50
124500,note_on,,,,,4,0,1,,,,,0,,,65,50
124556,note_on,,,,,56,0,0,,,,,0,,,70,0
124556,note_on,,,,,56,0,1,,,,,0,,,65,0
124560,note_on,,,,,4,0,0,,,,,0,,,74,50
124560,note_on,,,,,4,0,1,,,,,0,,,66,50
124616,note_on,,,,,56,0,0,,,,,0,,,74,0
124616,note_on,,,,,56,0,1,,,,,0,,,66,0
124620,note_on,,,,,4,0,0,,,,,0,,,77,50
124620,note_on,,,,,4,0,1,,,,,0,,,70,50
124676,note_on,,,,,56,0,0,,,,,0,,,77,0
124676,note_on,,,,,56,0,1,,,,,0,,,70,0
124680,note_on,,,,,4,0,0,,,,,0,,,78,50
124680,note_on,,,,,4,0,1,,,,,0,,,74,50
124736,note_on,,,,,56,0,0,,,,,0,,,78,0
124736,note_on,,,,,56,0,1,,,,,0,,,74,0
124740,note_on,,,,,4,0,1,,,,,0,,,77,50
124740,note_on,,,,,4,0,0,,,,,0,,,82,50
124796,note_on,,,,,56,0,1,,,,,0,,,77,0
124796,note_on,,,,,56,0,0,,,,,0,,,82,0
124800,note_on,,,,,4,0,1,,,,,0,,,78,50
124800,note_on,,,,,4,0,0,,,,,0,,,86,50
124856,note_on,,,,,56,0,1,,,,,0,,,78,0
124856,note_on,,,,,56,0,0,,,,,0,,,86,0
124860,note_on,,,,,4,0,1,,,,,0,,,82,50
124860,note_on,,,,,4,0,0,,,,,0,,,89,50
124916,note_on,,,,,56,0,1,,,,,0,,,82,0
124916,note_on,,,,,56,0,0,,,,,0,,,89,0
124920,note_on,,,,,4,0,0,,,,,0,,,90,50
124920,note_on,,,,,4,0,1,,,,,0,,,86,50
124976,note_on,,,,,56,0,0,,,,,0,,,90,0
124976,note_on,,,,,56,0,1,,,,,0,,,86,0
124980,note_on,,,,,4,0,0,,,,,0,,,94,50
124980,note_on,,,,,4,0,1,,,,,0,,,89,50
125036,note_on,,,,,56,0,1,,,,,0,,,89,0
125036,note_on,,,,,56,0,0,,,,,0,,,94,0
125040,note_on,,,,,4,0,1,,,,,0,,,90,50
125040,note_on,,,,,4,0,0,,,,,0,,,98,50
125096,note_on,,,,,56,0,0,,,,,0,,,98,0
125096,note_on,,,,,56,0,1,,,,,0,,,90,0
125100,note_on,,,,,4,0,1,,,,,0,,,89,50
125100,note_on,,,,,4,0,0,,,,,0,,,94,50
125156,note_on,,,,,56,0,1,,,,,0,,,89,0
125156,note_on,,,,,56,0,0,,,,,0,,,94,0
125160,note_on,,,,,4,0,1,,,,,0,,,86,50
125160,note_on,,,,,4,0,0,,,,,0,,,90,50
125216,note_on,,,,,56,0,1,,,,,0,,,86,0
125216,note_on,,,,,56,0,0,,,,,0,,,90,0
125220,note_on,,,,,4,0,0,,,,,0,,,89,50
125220,note_on,,,,,4,0,1,,,,,0,,,82,50
125276,note_on,,,,,56,0,1,,,,,0,,,82,0
125276,note_on,,,,,56,0,0,,,,,0,,,89,0
125280,note_on,,,,,4,0,1,,,,,0,,,90,50
125280,note_on,,,,,4,0,0,,,,,0,,,98,50
125336,note_on,,,,,56,0,0,,,,,0,,,98,0
125336,note_on,,,,,56,0,1,,,,,0,,,90,0
125340,note_on,,,,,4,0,0,,,,,0,,,94,50
125340,note_on,,,,,4,0,1,,,,,0,,,89,50
125396,note_on,,,,,56,0,1,,,,,0,,,89,0
125396,note_on,,,,,56,0,0,,,,,0,,,94,0
125400,note_on,,,,,4,0,1,,,,,0,,,86,50
125400,note_on,,,,,4,0,0,,,,,0,,,90,50
125456,note_on,,,,,56,0,1,,,,,0,,,86,0
125456,note_on,,,,,56,0,0,,,,,0,,,90,0
125460,note_on,,,,,4,0,1,,,,,0,,,82,50
125460,note_on,,,,,4,0,0,,,,,0,,,89,50
125516,note_on,,,,,56,0,0,,,,,0,,,89,0
125516,note_on,,,,,56,0,1,,,,,0,,,82,0
125520,note_on,,,,,4,0,0,,,,,0,,,98,50
125520,note_on,,,,,4,0,1,,,,,0,,,90,50
125576,note_on,,,,,56,0,0,,,,,0,,,98,0
125576,note_on,,,,,56,0,1,,,,,0,,,90,0
125580,note_on,,,,,4,0,0,,,,,0,,,94,50
125580,note_on,,,,,4,0,1,,,,,0,,,89,50
125636,note_on,,,,,56,0,1,,,,,0,,,89,0
125636,note_on,,,,,56,0,0,,,,,0,,,94,0
125640,note_on,,,,,4,0,0,,,,,0,,,90,50
125640,note_on,,,,,4,0,1,,,,,0,,,86,50
125696,note_on,,,,,56,0,0,,,,,0,,,90,0
125696,note_on,,,,,56,0,1,,,,,0,,,86,0
125700,note_on,,,,,4,0,0,,,,,0,,,89,50
125700,note_on,,,,,4,0,1,,,,,0,,,82,50
125756,note_on,,,,,56,0,1,,,,,0,,,82,0
125756,note_on,,,,,56,0,0,,,,,0,,,89,0
125760,note_on,,,,,4,0,0,,,,,0,,,98,50
125760,note_on,,,,,4,0,1,,,,,0,,,90,50
125816,note_on,,,,,56,0,1,,,,,0,,,90,0
125816,note_on,,,,,56,0,0,,,,,0,,,98,0
125820,note_on,,,,,4,0,0,,,,,0,,,94,50
125820,note_on,,,,,4,0,1,,,,,0,,,89,50
125876,note_on,,,,,56,0,1,,,,,0,,,89,0
125876,note_on,,,,,56,0,0,,,,,0,,,94,0
125880,note_on,,,,,4,0,1,,,,,0,,,86,50
125880,note_on,,,,,4,0,0,,,,,0,,,90,50
125936,note_on,,,,,56,0,0,,,,,0,,,90,0
125936,note_on,,,,,56,0,1,,,,,0,,,86,0
125940,note_on,,,,,4,0,1,,,,,0,,,82,50
125940,note_on,,,,,4,0,0,,,,,0,,,89,50
125996,note_on,,,,,56,0,1,,,,,0,,,82,0
125996,note_on,,,,,56,0,0,,,,,0,,,89,0
126000,note_on,,,,,4,0,0,,,,,0,,,98,50
126000,note_on,,,,,4,0,1,,,,,0,,,90,50
126056,note_on,,,,,56,0,1,,,,,0,,,90,0
126056,note_on,,,,,56,0,0,,,,,0,,,98,0
126060,note_on,,,,,4,0,0,,,,,0,,,94,50
126060,note_on,,,,,4,0,1,,,,,0,,,89,50
126116,note_on,,,,,56,0,0,,,,,0,,,94,0
126116,note_on,,,,,56,0,1,,,,,0,,,89,0
126120,note_on,,,,,4,0,1,,,,,0,,,86,50
126120,note_on,,,,,4,0,0,,,,,0,,,90,50
126176,note_on,,,,,56,0,0,,,,,0,,,90,0
126176,note_on,,,,,56,0,1,,,,,0,,,86,0
126180,note_on,,,,,4,0,0,,,,,0,,,89,50
126180,note_on,,,,,4,0,1,,,,,0,,,82,50
126236,note_on,,,,,56,0,0,,,,,0,,,89,0
126236,note_on,,,,,56,0,1,,,,,0,,,82,0
126240,note_on,,,,,4,0,1,,,,,0,,,65,50
126240,note_on,,,,,4,0,0,,,,,0,,,86,50
126303,note_on,,,,,63,0,0,,,,,0,,,94,50
126303,note_on,,,,,63,0,1,,,,,0,,,70,50
126367,note_on,,,,,64,0,1,,,,,0,,,77,50
126367,note_on,,,,,64,0,0,,,,,0,,,101,50
126478,note_on,,,,,111,0,1,,,,,0,,,70,0
126478,note_on,,,,,0,0,0,,,,,0,,,101,0
126478,note_on,,,,,111,0,0,,,,,0,,,94,0
126478,note_on,,,,,0,0,1,,,,,0,,,77,0
126479,note_on,,,,,1,0,1,,,,,0,,,65,0
126479,note_on,,,,,1,0,0,,,,,0,,,86,0
126720,note_on,,,,,241,0,1,,,,,0,,,46,50
126720,set_tempo,,,,,241,1,0,,882351,,,,,,,
126783,note_on,,,,,63,0,1,,,,,0,,,53,50
126847,note_on,,,,,64,0,1,,,,,0,,,62,50
126958,note_on,,,,,111,0,1,,,,,0,,,53,0
126958,note_on,,,,,0,0,1,,,,,0,,,62,0
126959,set_tempo,,,,,239,1,0,,705881,,,,,,,
126959,note_on,,,,,1,0,1,,,,,0,,,46,0
126960,end_of_track,,,,,1,1,0,,,,,,,,,
126960,end_of_track,,,,,1,1,1,,,,,,,,,
