tick,type,numerator,denominator,clocks_per_click,notated_32nd_notes_per_beat,time,meta,track,key,tempo,control,value,channel,program,port,note,velocity
0,control_change,,,,,0,0,0,,,121,0,0,,,,
0,control_change,,,,,0,0,0,,,7,100,0,,,,
0,control_change,,,,,0,0,0,,,10,64,0,,,,
0,control_change,,,,,0,0,0,,,91,0,0,,,,
0,control_change,,,,,0,0,0,,,93,0,0,,,,
0,time_signature,2,4,24,8,0,1,0,,,,,,,,,
0,set_tempo,,,,,0,1,0,,666667,,,,,,,
0,program_change,,,,,0,0,0,,,,,0,0,,,
0,midi_port,,,,,0,1,1,,,,,,,0,,
0,midi_port,,,,,0,1,0,,,,,,,0,,
0,key_signature,,,,,0,1,1,Ab,,,,,,,,
0,key_signature,,,,,0,1,0,Ab,,,,,,,,
240,note_on,,,,,0,0,1,,,,,0,,,77,70
240,note_on,,,,,240,0,1,,,,,0,,,68,70
240,note_on,,,,,0,0,1,,,,,0,,,72,70
315,note_on,,,,,0,0,1,,,,,0,,,72,0
315,note_on,,,,,0,0,1,,,,,0,,,77,0
315,note_on,,,,,75,0,1,,,,,0,,,68,0
320,note_on,,,,,0,0,1,,,,,0,,,73,70
320,note_on,,,,,0,0,1,,,,,0,,,79,70
320,note_on,,,,,5,0,1,,,,,0,,,70,70
395,note_on,,,,,0,0,1,,,,,0,,,73,0
395,note_on,,,,,0,0,1,,,,,0,,,79,0
395,note_on,,,,,75,0,1,,,,,0,,,70,0
400,note_on,,,,,0,0,1,,,,,0,,,72,70
400,note_on,,,,,0,0,1,,,,,0,,,77,70
400,note_on,,,,,5,0,1,,,,,0,,,68,70
475,note_on,,,,,0,0,1,,,,,0,,,77,0
475,note_on,,,,,0,0,1,,,,,0,,,72,0
475,note_on,,,,,75,0,1,,,,,0,,,68,0
480,note_on,,,,,5,0,1,,,,,0,,,67,70
480,note_on,,,,,0,0,1,,,,,0,,,75,70
480,note_on,,,,,0,0,1,,,,,0,,,70,70
555,note_on,,,,,0,0,1,,,,,0,,,70,0
555,note_on,,,,,0,0,1,,,,,0,,,75,0
555,note_on,,,,,75,0,1,,,,,0,,,67,0
560,note_on,,,,,5,0,1,,,,,0,,,68,70
560,note_on,,,,,0,0,1,,,,,0,,,72,70
560,note_on,,,,,0,0,1,,,,,0,,,77,70
635,note_on,,,,,0,0,1,,,,,0,,,77,0
635,note_on,,,,,0,0,1,,,,,0,,,72,0
635,note_on,,,,,75,0,1,,,,,0,,,68,0
640,note_on,,,,,0,0,1,,,,,0,,,75,70
640,note_on,,,,,0,0,1,,,,,0,,,70,70
640,note_on,,,,,5,0,1,,,,,0,,,67,70
715,note_on,,,,,75,0,1,,,,,0,,,67,0
715,note_on,,,,,0,0,1,,,,,0,,,75,0
715,note_on,,,,,0,0,1,,,,,0,,,70,0
720,note_on,,,,,5,0,1,,,,,0,,,65,70
720,note_on,,,,,0,0,1,,,,,0,,,73,70
720,note_on,,,,,0,0,1,,,,,0,,,68,70
795,note_on,,,,,0,0,1,,,,,0,,,73,0
795,note_on,,,,,0,0,1,,,,,0,,,68,0
795,note_on,,,,,75,0,1,,,,,0,,,65,0
800,note_on,,,,,0,0,1,,,,,0,,,75,70
800,note_on,,,,,0,0,1,,,,,0,,,70,70
800,note_on,,,,,5,0,1,,,,,0,,,67,70
875,note_on,,,,,0,0,1,,,,,0,,,70,0
875,note_on,,,,,0,0,1,,,,,0,,,75,0
875,note_on,,,,,75,0,1,,,,,0,,,67,0
880,note_on,,,,,5,0,1,,,,,0,,,65,70
880,note_on,,,,,0,0,1,,,,,0,,,68,70
880,note_on,,,,,0,0,1,,,,,0,,,73,70
955,note_on,,,,,0,0,1,,,,,0,,,73,0
955,note_on,,,,,0,0,1,,,,,0,,,68,0
955,note_on,,,,,75,0,1,,,,,0,,,65,0
960,note_on,,,,,0,0,1,,,,,0,,,67,70
960,note_on,,,,,0,0,1,,,,,0,,,72,70
960,note_on,,,,,5,0,1,,,,,0,,,63,70
1035,note_on,,,,,0,0,1,,,,,0,,,67,0
1035,note_on,,,,,0,0,1,,,,,0,,,72,0
1035,note_on,,,,,75,0,1,,,,,0,,,63,0
1040,note_on,,,,,0,0,1,,,,,0,,,68,70
1040,note_on,,,,,5,0,1,,,,,0,,,65,70
1040,note_on,,,,,0,0,1,,,,,0,,,73,70
1115,note_on,,,,,0,0,1,,,,,0,,,68,0
1115,note_on,,,,,0,0,1,,,,,0,,,73,0
1115,note_on,,,,,75,0,1,,,,,0,,,65,0
1120,note_on,,,,,5,0,1,,,,,0,,,63,70
1120,note_on,,,,,0,0,1,,,,,0,,,67,70
1120,note_on,,,,,0,0,1,,,,,0,,,72,70
1195,note_on,,,,,0,0,1,,,,,0,,,67,0
1195,note_on,,,,,75,0,1,,,,,0,,,63,0
1195,note_on,,,,,0,0,1,,,,,0,,,72,0
1200,note_on,,,,,5,0,1,,,,,0,,,61,70
1200,note_on,,,,,0,0,1,,,,,0,,,65,70
1200,note_on,,,,,0,0,1,,,,,0,,,70,70
1275,note_on,,,,,75,0,1,,,,,0,,,61,0
1275,note_on,,,,,0,0,1,,,,,0,,,70,0
1275,note_on,,,,,0,0,1,,,,,0,,,65,0
1280,note_on,,,,,0,0,1,,,,,0,,,67,70
1280,note_on,,,,,5,0,1,,,,,0,,,63,70
1280,note_on,,,,,0,0,1,,,,,0,,,72,70
1355,note_on,,,,,75,0,1,,,,,0,,,63,0
1355,note_on,,,,,0,0,1,,,,,0,,,67,0
1355,note_on,,,,,0,0,1,,,,,0,,,72,0
1360,note_on,,,,,0,0,1,,,,,0,,,65,70
1360,note_on,,,,,5,0,1,,,,,0,,,61,70
1360,note_on,,,,,0,0,1,,,,,0,,,70,70
1435,note_on,,,,,75,0,1,,,,,0,,,61,0
1435,note_on,,,,,0,0,1,,,,,0,,,70,0
1435,note_on,,,,,0,0,1,,,,,0,,,65,0
1440,note_on,,,,,5,0,1,,,,,0,,,60,70
1440,note_on,,,,,0,0,1,,,,,0,,,63,70
1440,note_on,,,,,0,0,1,,,,,0,,,68,70
1515,note_on,,,,,75,0,1,,,,,0,,,60,0
1515,note_on,,,,,0,0,1,,,,,0,,,63,0
1515,note_on,,,,,0,0,1,,,,,0,,,68,0
1520,note_on,,,,,0,0,1,,,,,0,,,70,70
1520,note_on,,,,,0,0,1,,,,,0,,,65,70
1520,note_on,,,,,5,0,1,,,,,0,,,61,70
1595,note_on,,,,,0,0,1,,,,,0,,,70,0
1595,note_on,,,,,0,0,1,,,,,0,,,65,0
1595,note_on,,,,,75,0,1,,,,,0,,,61,0
1600,note_on,,,,,0,0,1,,,,,0,,,63,70
1600,note_on,,,,,5,0,1,,,,,0,,,60,70
1600,note_on,,,,,0,0,1,,,,,0,,,68,70
1675,note_on,,,,,0,0,1,,,,,0,,,68,0
1675,note_on,,,,,75,0,1,,,,,0,,,60,0
1675,note_on,,,,,0,0,1,,,,,0,,,63,0
1680,note_on,,,,,0,0,1,,,,,0,,,67,70
1680,note_on,,,,,5,0,1,,,,,0,,,58,70
1680,note_on,,,,,0,0,1,,,,,0,,,61,70
1755,note_on,,,,,75,0,1,,,,,0,,,58,0
1755,note_on,,,,,0,0,1,,,,,0,,,67,0
1755,note_on,,,,,0,0,1,,,,,0,,,61,0
1760,note_on,,,,,0,0,1,,,,,0,,,63,70
1760,note_on,,,,,0,0,1,,,,,0,,,68,70
1760,note_on,,,,,5,0,1,,,,,0,,,60,70
1835,note_on,,,,,0,0,1,,,,,0,,,68,0
1835,note_on,,,,,0,0,1,,,,,0,,,63,0
1835,note_on,,,,,75,0,1,,,,,0,,,60,0
1840,note_on,,,,,0,0,1,,,,,0,,,67,70
1840,note_on,,,,,0,0,1,,,,,0,,,61,70
1840,note_on,,,,,5,0,1,,,,,0,,,58,70
1915,note_on,,,,,0,0,1,,,,,0,,,67,0
1915,note_on,,,,,0,0,1,,,,,0,,,61,0
1915,note_on,,,,,75,0,1,,,,,0,,,58,0
1920,note_on,,,,,0,0,1,,,,,0,,,65,70
1920,note_on,,,,,5,0,1,,,,,0,,,56,70
1920,note_on,,,,,0,0,1,,,,,0,,,65,70
1999,note_on,,,,,79,0,1,,,,,0,,,56,0
1999,note_on,,,,,0,0,1,,,,,0,,,65,0
2000,note_on,,,,,1,0,1,,,,,0,,,60,70
2079,note_on,,,,,79,0,1,,,,,0,,,60,0
2080,note_on,,,,,1,0,1,,,,,0,,,53,70
2155,note_on,,,,,75,0,1,,,,,0,,,53,0
2159,note_on,,,,,4,0,1,,,,,0,,,65,0
2160,note_on,,,,,1,0,1,,,,,0,,,59,70
2160,note_on,,,,,2160,0,0,,,,,0,,,59,84
2160,note_on,,,,,0,0,0,,,,,0,,,71,84
2235,note_on,,,,,75,0,1,,,,,0,,,59,0
2240,note_on,,,,,0,0,1,,,,,0,,,68,70
2240,note_on,,,,,5,0,1,,,,,0,,,65,70
2315,note_on,,,,,0,0,1,,,,,0,,,68,0
2315,note_on,,,,,75,0,1,,,,,0,,,65,0
2319,note_on,,,,,159,0,0,,,,,0,,,59,0
2319,note_on,,,,,0,0,0,,,,,0,,,71,0
2320,note_on,,,,,1,0,0,,,,,0,,,60,70
2320,note_on,,,,,0,0,0,,,,,0,,,72,70
2320,note_on,,,,,5,0,1,,,,,0,,,60,70
2395,note_on,,,,,0,0,0,,,,,0,,,72,0
2395,note_on,,,,,75,0,1,,,,,0,,,60,0
2395,note_on,,,,,75,0,0,,,,,0,,,60,0
2400,note_on,,,,,0,0,1,,,,,0,,,64,70
2400,note_on,,,,,5,0,1,,,,,0,,,55,70
2400,note_on,,,,,0,0,1,,,,,0,,,64,70
2479,note_on,,,,,0,0,1,,,,,0,,,64,0
2479,note_on,,,,,79,0,1,,,,,0,,,55,0
2480,note_on,,,,,1,0,1,,,,,0,,,59,70
2559,note_on,,,,,79,0,1,,,,,0,,,59,0
2560,note_on,,,,,1,0,1,,,,,0,,,53,70
2635,note_on,,,,,75,0,1,,,,,0,,,53,0
2639,note_on,,,,,4,0,1,,,,,0,,,64,0
2640,note_on,,,,,0,0,0,,,,,0,,,73,84
2640,note_on,,,,,1,0,1,,,,,0,,,61,70
2640,note_on,,,,,245,0,0,,,,,0,,,61,84
2715,note_on,,,,,75,0,1,,,,,0,,,61,0
2720,note_on,,,,,0,0,1,,,,,0,,,67,70
2720,note_on,,,,,5,0,1,,,,,0,,,64,70
2795,note_on,,,,,75,0,1,,,,,0,,,64,0
2795,note_on,,,,,0,0,1,,,,,0,,,67,0
2799,note_on,,,,,0,0,0,,,,,0,,,73,0
2799,note_on,,,,,159,0,0,,,,,0,,,61,0
2800,note_on,,,,,1,0,0,,,,,0,,,60,70
2800,note_on,,,,,0,0,0,,,,,0,,,72,70
2800,note_on,,,,,5,0,1,,,,,0,,,60,70
2875,note_on,,,,,0,0,0,,,,,0,,,72,0
2875,note_on,,,,,75,0,0,,,,,0,,,60,0
2875,note_on,,,,,75,0,1,,,,,0,,,60,0
2880,note_on,,,,,5,0,0,,,,,0,,,65,70
2880,note_on,,,,,5,0,1,,,,,0,,,56,70
2955,note_on,,,,,75,0,1,,,,,0,,,56,0
2960,note_on,,,,,5,0,1,,,,,0,,,60,70
3035,note_on,,,,,75,0,1,,,,,0,,,60,0
3040,note_on,,,,,5,0,1,,,,,0,,,53,70
3115,note_on,,,,,75,0,1,,,,,0,,,53,0
3119,note_on,,,,,239,0,0,,,,,0,,,65,0
3120,note_on,,,,,0,0,1,,,,,0,,,77,70
3120,note_on,,,,,0,0,1,,,,,0,,,72,70
3120,note_on,,,,,5,0,1,,,,,0,,,68,70
3195,note_on,,,,,0,0,1,,,,,0,,,77,0
3195,note_on,,,,,0,0,1,,,,,0,,,72,0
3195,note_on,,,,,75,0,1,,,,,0,,,68,0
3200,note_on,,,,,5,0,1,,,,,0,,,70,70
3200,note_on,,,,,0,0,1,,,,,0,,,73,70
3200,note_on,,,,,0,0,1,,,,,0,,,79,70
3279,note_on,,,,,79,0,1,,,,,0,,,70,0
3279,note_on,,,,,0,0,1,,,,,0,,,73,0
3279,note_on,,,,,0,0,1,,,,,0,,,79,0
3280,note_on,,,,,1,0,1,,,,,0,,,68,71
3280,note_on,,,,,0,0,1,,,,,0,,,77,71
3280,note_on,,,,,0,0,1,,,,,0,,,72,71
3359,note_on,,,,,0,0,1,,,,,0,,,77,0
3359,note_on,,,,,0,0,1,,,,,0,,,72,0
3359,note_on,,,,,79,0,1,,,,,0,,,68,0
3360,note_on,,,,,0,0,1,,,,,0,,,75,73
3360,note_on,,,,,0,0,1,,,,,0,,,70,73
3360,note_on,,,,,1,0,1,,,,,0,,,67,73
3439,note_on,,,,,79,0,1,,,,,0,,,67,0
3439,note_on,,,,,0,0,1,,,,,0,,,75,0
3439,note_on,,,,,0,0,1,,,,,0,,,70,0
3440,note_on,,,,,0,0,1,,,,,0,,,72,74
3440,note_on,,,,,1,0,1,,,,,0,,,68,74
3440,note_on,,,,,0,0,1,,,,,0,,,77,74
3519,note_on,,,,,0,0,1,,,,,0,,,77,0
3519,note_on,,,,,0,0,1,,,,,0,,,72,0
3519,note_on,,,,,79,0,1,,,,,0,,,68,0
3520,note_on,,,,,0,0,1,,,,,0,,,70,76
3520,note_on,,,,,0,0,1,,,,,0,,,75,76
3520,note_on,,,,,1,0,1,,,,,0,,,67,76
3599,note_on,,,,,0,0,1,,,,,0,,,70,0
3599,note_on,,,,,0,0,1,,,,,0,,,75,0
3599,note_on,,,,,79,0,1,,,,,0,,,67,0
3600,note_on,,,,,1,0,1,,,,,0,,,65,77
3600,note_on,,,,,0,0,1,,,,,0,,,68,77
3600,note_on,,,,,0,0,1,,,,,0,,,73,77
3679,note_on,,,,,0,0,1,,,,,0,,,68,0
3679,note_on,,,,,0,0,1,,,,,0,,,73,0
3679,note_on,,,,,79,0,1,,,,,0,,,65,0
3680,note_on,,,,,1,0,1,,,,,0,,,67,79
3680,note_on,,,,,0,0,1,,,,,0,,,75,79
3680,note_on,,,,,0,0,1,,,,,0,,,70,79
3759,note_on,,,,,79,0,1,,,,,0,,,67,0
3759,note_on,,,,,0,0,1,,,,,0,,,75,0
3759,note_on,,,,,0,0,1,,,,,0,,,70,0
3760,note_on,,,,,0,0,1,,,,,0,,,73,80
3760,note_on,,,,,0,0,1,,,,,0,,,68,80
3760,note_on,,,,,1,0,1,,,,,0,,,65,80
3839,note_on,,,,,79,0,1,,,,,0,,,65,0
3839,note_on,,,,,0,0,1,,,,,0,,,68,0
3839,note_on,,,,,0,0,1,,,,,0,,,73,0
3840,note_on,,,,,0,0,1,,,,,0,,,67,82
3840,note_on,,,,,1,0,1,,,,,0,,,63,82
3840,note_on,,,,,0,0,1,,,,,0,,,72,82
3919,note_on,,,,,79,0,1,,,,,0,,,63,0
3919,note_on,,,,,0,0,1,,,,,0,,,67,0
3919,note_on,,,,,0,0,1,,,,,0,,,72,0
3920,note_on,,,,,0,0,1,,,,,0,,,73,83
3920,note_on,,,,,0,0,1,,,,,0,,,68,83
3920,note_on,,,,,1,0,1,,,,,0,,,65,83
3999,note_on,,,,,79,0,1,,,,,0,,,65,0
3999,note_on,,,,,0,0,1,,,,,0,,,68,0
3999,note_on,,,,,0,0,1,,,,,0,,,73,0
4000,note_on,,,,,1,0,1,,,,,0,,,63,85
4000,note_on,,,,,0,0,1,,,,,0,,,72,85
4000,note_on,,,,,0,0,1,,,,,0,,,67,85
4079,note_on,,,,,0,0,1,,,,,0,,,67,0
4079,note_on,,,,,0,0,1,,,,,0,,,72,0
4079,note_on,,,,,79,0,1,,,,,0,,,63,0
4080,note_on,,,,,0,0,1,,,,,0,,,65,85
4080,note_on,,,,,1,0,1,,,,,0,,,61,85
4080,note_on,,,,,0,0,1,,,,,0,,,70,85
4159,note_on,,,,,79,0,1,,,,,0,,,61,0
4159,note_on,,,,,0,0,1,,,,,0,,,65,0
4159,note_on,,,,,0,0,1,,,,,0,,,70,0
4160,note_on,,,,,0,0,1,,,,,0,,,67,84
4160,note_on,,,,,0,0,1,,,,,0,,,72,84
4160,note_on,,,,,1,0,1,,,,,0,,,63,84
4239,note_on,,,,,0,0,1,,,,,0,,,67,0
4239,note_on,,,,,0,0,1,,,,,0,,,72,0
4239,note_on,,,,,79,0,1,,,,,0,,,63,0
4240,note_on,,,,,1,0,1,,,,,0,,,61,82
4240,note_on,,,,,0,0,1,,,,,0,,,65,82
4240,note_on,,,,,0,0,1,,,,,0,,,70,82
4319,note_on,,,,,79,0,1,,,,,0,,,61,0
4319,note_on,,,,,0,0,1,,,,,0,,,65,0
4319,note_on,,,,,0,0,1,,,,,0,,,70,0
4320,note_on,,,,,0,0,1,,,,,0,,,63,80
4320,note_on,,,,,0,0,1,,,,,0,,,68,80
4320,note_on,,,,,1,0,1,,,,,0,,,60,80
4399,note_on,,,,,0,0,1,,,,,0,,,63,0
4399,note_on,,,,,0,0,1,,,,,0,,,68,0
4399,note_on,,,,,79,0,1,,,,,0,,,60,0
4400,note_on,,,,,1,0,1,,,,,0,,,61,79
4400,note_on,,,,,0,0,1,,,,,0,,,70,79
4400,note_on,,,,,0,0,1,,,,,0,,,65,79
4479,note_on,,,,,79,0,1,,,,,0,,,61,0
4479,note_on,,,,,0,0,1,,,,,0,,,70,0
4479,note_on,,,,,0,0,1,,,,,0,,,65,0
4480,note_on,,,,,1,0,1,,,,,0,,,60,77
4480,note_on,,,,,0,0,1,,,,,0,,,63,77
4480,note_on,,,,,0,0,1,,,,,0,,,68,77
4559,note_on,,,,,79,0,1,,,,,0,,,60,0
4559,note_on,,,,,0,0,1,,,,,0,,,63,0
4559,note_on,,,,,0,0,1,,,,,0,,,68,0
4560,note_on,,,,,0,0,1,,,,,0,,,61,75
4560,note_on,,,,,1,0,1,,,,,0,,,58,75
4560,note_on,,,,,0,0,1,,,,,0,,,67,75
4639,note_on,,,,,0,0,1,,,,,0,,,67,0
4639,note_on,,,,,79,0,1,,,,,0,,,58,0
4639,note_on,,,,,0,0,1,,,,,0,,,61,0
4640,note_on,,,,,0,0,1,,,,,0,,,68,74
4640,note_on,,,,,0,0,1,,,,,0,,,63,74
4640,note_on,,,,,1,0,1,,,,,0,,,60,74
4715,note_on,,,,,75,0,1,,,,,0,,,60,0
4715,note_on,,,,,0,0,1,,,,,0,,,68,0
4715,note_on,,,,,0,0,1,,,,,0,,,63,0
4720,note_on,,,,,0,0,1,,,,,0,,,67,72
4720,note_on,,,,,5,0,1,,,,,0,,,58,72
4720,note_on,,,,,0,0,1,,,,,0,,,61,72
4795,note_on,,,,,0,0,1,,,,,0,,,67,0
4795,note_on,,,,,0,0,1,,,,,0,,,61,0
4795,note_on,,,,,75,0,1,,,,,0,,,58,0
4800,note_on,,,,,5,0,1,,,,,0,,,56,70
4800,note_on,,,,,0,0,1,,,,,0,,,65,70
4879,note_on,,,,,79,0,1,,,,,0,,,56,0
4880,note_on,,,,,1,0,1,,,,,0,,,60,70
4959,note_on,,,,,79,0,1,,,,,0,,,60,0
4960,note_on,,,,,1,0,1,,,,,0,,,53,70
5035,note_on,,,,,75,0,1,,,,,0,,,53,0
5039,note_on,,,,,4,0,1,,,,,0,,,65,0
5040,note_on,,,,,1,0,1,,,,,0,,,59,70
5040,note_on,,,,,0,0,0,,,,,0,,,71,84
5040,note_on,,,,,1921,0,0,,,,,0,,,59,84
5115,note_on,,,,,75,0,1,,,,,0,,,59,0
5120,note_on,,,,,0,0,1,,,,,0,,,68,70
5120,note_on,,,,,5,0,1,,,,,0,,,65,70
5195,note_on,,,,,0,0,1,,,,,0,,,68,0
5195,note_on,,,,,75,0,1,,,,,0,,,65,0
5199,note_on,,,,,159,0,0,,,,,0,,,59,0
5199,note_on,,,,,0,0,0,,,,,0,,,71,0
5200,note_on,,,,,0,0,0,,,,,0,,,72,70
5200,note_on,,,,,1,0,0,,,,,0,,,60,70
5200,note_on,,,,,5,0,1,,,,,0,,,60,70
5275,note_on,,,,,75,0,1,,,,,0,,,60,0
5275,note_on,,,,,75,0,0,,,,,0,,,60,0
5275,note_on,,,,,0,0,0,,,,,0,,,72,0
5280,note_on,,,,,5,0,1,,,,,0,,,55,70
5280,note_on,,,,,0,0,1,,,,,0,,,64,70
5359,note_on,,,,,79,0,1,,,,,0,,,55,0
5360,note_on,,,,,1,0,1,,,,,0,,,59,70
5439,note_on,,,,,79,0,1,,,,,0,,,59,0
5440,note_on,,,,,1,0,1,,,,,0,,,53,70
5515,note_on,,,,,75,0,1,,,,,0,,,53,0
5519,note_on,,,,,4,0,1,,,,,0,,,64,0
5520,note_on,,,,,1,0,1,,,,,0,,,61,70
5520,note_on,,,,,245,0,0,,,,,0,,,61,84
5520,note_on,,,,,0,0,0,,,,,0,,,73,84
5595,note_on,,,,,75,0,1,,,,,0,,,61,0
5600,note_on,,,,,0,0,1,,,,,0,,,67,70
5600,note_on,,,,,5,0,1,,,,,0,,,64,70
5675,note_on,,,,,0,0,1,,,,,0,,,67,0
5675,note_on,,,,,75,0,1,,,,,0,,,64,0
5679,note_on,,,,,0,0,0,,,,,0,,,73,0
5679,note_on,,,,,159,0,0,,,,,0,,,61,0
5680,note_on,,,,,0,0,0,,,,,0,,,72,70
5680,note_on,,,,,1,0,0,,,,,0,,,60,70
5680,note_on,,,,,5,0,1,,,,,0,,,60,70
5755,note_on,,,,,75,0,0,,,,,0,,,60,0
5755,note_on,,,,,0,0,0,,,,,0,,,72,0
5755,note_on,,,,,75,0,1,,,,,0,,,60,0
5760,note_on,,,,,5,0,0,,,,,0,,,65,70
5760,note_on,,,,,5,0,1,,,,,0,,,56,70
5839,note_on,,,,,79,0,1,,,,,0,,,56,0
5840,note_on,,,,,1,0,1,,,,,0,,,60,70
5919,note_on,,,,,79,0,1,,,,,0,,,60,0
5920,note_on,,,,,1,0,1,,,,,0,,,53,70
5987,note_on,,,,,227,0,0,,,,,0,,,65,0
5995,note_on,,,,,75,0,1,,,,,0,,,53,0
6000,note_on,,,,,0,0,0,,,,,0,,,71,70
6000,note_on,,,,,0,0,0,,,,,0,,,59,70
6000,note_on,,,,,13,0,0,,,,,0,,,59,70
6079,note_on,,,,,79,0,0,,,,,0,,,59,0
6080,note_on,,,,,0,0,0,,,,,0,,,68,70
6080,note_on,,,,,1,0,0,,,,,0,,,65,70
6159,note_on,,,,,0,0,0,,,,,0,,,65,0
6159,note_on,,,,,0,0,0,,,,,0,,,68,0
6159,note_on,,,,,0,0,0,,,,,0,,,71,0
6159,note_on,,,,,79,0,0,,,,,0,,,59,0
6160,note_on,,,,,1,0,0,,,,,0,,,61,70
6160,note_on,,,,,0,0,0,,,,,0,,,61,70
6160,note_on,,,,,0,0,0,,,,,0,,,73,70
6235,note_on,,,,,75,0,0,,,,,0,,,61,0
6235,note_on,,,,,0,0,0,,,,,0,,,61,0
6235,note_on,,,,,0,0,0,,,,,0,,,73,0
6240,note_on,,,,,5,0,0,,,,,0,,,60,70
6240,note_on,,,,,0,0,0,,,,,0,,,72,70
6319,note_on,,,,,79,0,0,,,,,0,,,60,0
6319,note_on,,,,,0,0,0,,,,,0,,,72,0
6320,note_on,,,,,325,0,1,,,,,0,,,41,70
6399,note_on,,,,,79,0,1,,,,,0,,,41,0
6400,note_on,,,,,0,0,0,,,,,0,,,80,70
6400,note_on,,,,,1,0,1,,,,,0,,,48,70
6400,note_on,,,,,81,0,0,,,,,0,,,68,70
6479,note_on,,,,,79,0,1,,,,,0,,,48,0
6479,note_on,,,,,79,0,0,,,,,0,,,68,0
6479,note_on,,,,,0,0,0,,,,,0,,,80,0
6480,note_on,,,,,1,0,1,,,,,0,,,53,70
6559,note_on,,,,,79,0,1,,,,,0,,,53,0
6560,note_on,,,,,0,0,0,,,,,0,,,77,70
6560,note_on,,,,,1,0,1,,,,,0,,,56,70
6560,note_on,,,,,81,0,0,,,,,0,,,65,70
6639,note_on,,,,,79,0,0,,,,,0,,,65,0
6639,note_on,,,,,79,0,1,,,,,0,,,56,0
6639,note_on,,,,,0,0,0,,,,,0,,,77,0
6640,note_on,,,,,1,0,1,,,,,0,,,59,70
6715,note_on,,,,,75,0,1,,,,,0,,,59,0
6720,note_on,,,,,0,0,1,,,,,0,,,68,70
6720,note_on,,,,,5,0,1,,,,,0,,,60,70
6799,note_on,,,,,79,0,1,,,,,0,,,60,0
6800,note_on,,,,,1,0,1,,,,,0,,,63,70
6879,note_on,,,,,79,0,1,,,,,0,,,63,0
6880,note_on,,,,,1,0,1,,,,,0,,,51,70
6955,note_on,,,,,75,0,1,,,,,0,,,51,0
6959,note_on,,,,,4,0,1,,,,,0,,,68,0
6960,note_on,,,,,321,0,0,,,,,0,,,62,84
6960,note_on,,,,,0,0,0,,,,,0,,,74,84
6960,note_on,,,,,1,0,1,,,,,0,,,62,70
7035,note_on,,,,,75,0,1,,,,,0,,,62,0
7040,note_on,,,,,0,0,1,,,,,0,,,72,70
7040,note_on,,,,,5,0,1,,,,,0,,,68,70
7115,note_on,,,,,0,0,1,,,,,0,,,72,0
7115,note_on,,,,,75,0,1,,,,,0,,,68,0
7119,note_on,,,,,159,0,0,,,,,0,,,62,0
7119,note_on,,,,,0,0,0,,,,,0,,,74,0
7120,note_on,,,,,0,0,0,,,,,0,,,75,70
7120,note_on,,,,,1,0,0,,,,,0,,,63,70
7120,note_on,,,,,5,0,1,,,,,0,,,63,70
7195,note_on,,,,,75,0,1,,,,,0,,,63,0
7195,note_on,,,,,0,0,0,,,,,0,,,75,0
7195,note_on,,,,,75,0,0,,,,,0,,,63,0
7200,note_on,,,,,5,0,1,,,,,0,,,58,70
7200,note_on,,,,,0,0,1,,,,,0,,,67,70
7279,note_on,,,,,79,0,1,,,,,0,,,58,0
7280,note_on,,,,,1,0,1,,,,,0,,,62,70
7359,note_on,,,,,79,0,1,,,,,0,,,62,0
7360,note_on,,,,,1,0,1,,,,,0,,,51,70
7435,note_on,,,,,75,0,1,,,,,0,,,51,0
7439,note_on,,,,,4,0,1,,,,,0,,,67,0
7440,note_on,,,,,1,0,1,,,,,0,,,64,70
7440,note_on,,,,,0,0,0,,,,,0,,,76,84
7440,note_on,,,,,245,0,0,,,,,0,,,64,84
7515,note_on,,,,,75,0,1,,,,,0,,,64,0
7520,note_on,,,,,0,0,1,,,,,0,,,70,70
7520,note_on,,,,,5,0,1,,,,,0,,,67,70
7595,note_on,,,,,0,0,1,,,,,0,,,70,0
7595,note_on,,,,,75,0,1,,,,,0,,,67,0
7599,note_on,,,,,159,0,0,,,,,0,,,64,0
7599,note_on,,,,,0,0,0,,,,,0,,,76,0
7600,note_on,,,,,1,0,0,,,,,0,,,63,70
7600,note_on,,,,,0,0,0,,,,,0,,,75,70
7600,note_on,,,,,5,0,1,,,,,0,,,63,70
7675,note_on,,,,,0,0,0,,,,,0,,,75,0
7675,note_on,,,,,75,0,1,,,,,0,,,63,0
7675,note_on,,,,,75,0,0,,,,,0,,,63,0
7680,note_on,,,,,5,0,0,,,,,0,,,65,70
7680,note_on,,,,,5,0,1,,,,,0,,,60,70
7759,note_on,,,,,79,0,1,,,,,0,,,60,0
7760,note_on,,,,,1,0,1,,,,,0,,,63,70
7839,note_on,,,,,79,0,1,,,,,0,,,63,0
7840,note_on,,,,,1,0,1,,,,,0,,,56,70
7907,note_on,,,,,227,0,0,,,,,0,,,65,0
7915,note_on,,,,,75,0,1,,,,,0,,,56,0
7920,note_on,,,,,0,0,0,,,,,0,,,74,70
7920,note_on,,,,,13,0,0,,,,,0,,,62,70
7920,note_on,,,,,0,0,0,,,,,0,,,62,70
7999,note_on,,,,,79,0,0,,,,,0,,,62,0
8000,note_on,,,,,0,0,0,,,,,0,,,72,70
8000,note_on,,,,,1,0,0,,,,,0,,,68,70
8079,note_on,,,,,0,0,0,,,,,0,,,68,0
8079,note_on,,,,,0,0,0,,,,,0,,,72,0
8079,note_on,,,,,0,0,0,,,,,0,,,74,0
8079,note_on,,,,,79,0,0,,,,,0,,,62,0
8080,note_on,,,,,0,0,0,,,,,0,,,65,70
8080,note_on,,,,,1,0,0,,,,,0,,,65,70
8080,note_on,,,,,0,0,0,,,,,0,,,77,70
8155,note_on,,,,,0,0,0,,,,,0,,,77,0
8155,note_on,,,,,0,0,0,,,,,0,,,65,0
8155,note_on,,,,,75,0,0,,,,,0,,,65,0
8160,note_on,,,,,0,0,0,,,,,0,,,75,70
8160,note_on,,,,,5,0,0,,,,,0,,,63,70
8239,note_on,,,,,79,0,0,,,,,0,,,63,0
8239,note_on,,,,,0,0,0,,,,,0,,,75,0
8240,note_on,,,,,325,0,1,,,,,0,,,44,70
8319,note_on,,,,,79,0,1,,,,,0,,,44,0
8320,note_on,,,,,1,0,1,,,,,0,,,51,70
8320,note_on,,,,,81,0,0,,,,,0,,,72,70
8320,note_on,,,,,0,0,0,,,,,0,,,84,70
8399,note_on,,,,,0,0,0,,,,,0,,,84,0
8399,note_on,,,,,79,0,0,,,,,0,,,72,0
8399,note_on,,,,,79,0,1,,,,,0,,,51,0
8400,note_on,,,,,1,0,1,,,,,0,,,56,70
8479,note_on,,,,,79,0,1,,,,,0,,,56,0
8480,note_on,,,,,1,0,1,,,,,0,,,60,70
8480,note_on,,,,,81,0,0,,,,,0,,,68,70
8480,note_on,,,,,0,0,0,,,,,0,,,80,70
8559,note_on,,,,,0,0,0,,,,,0,,,80,0
8559,note_on,,,,,79,0,1,,,,,0,,,60,0
8559,note_on,,,,,79,0,0,,,,,0,,,68,0
8560,note_on,,,,,1,0,1,,,,,0,,,63,70
8635,note_on,,,,,75,0,1,,,,,0,,,63,0
8640,note_on,,,,,5,0,1,,,,,0,,,64,70
8640,note_on,,,,,0,0,1,,,,,0,,,72,70
8719,note_on,,,,,79,0,1,,,,,0,,,64,0
8720,note_on,,,,,1,0,1,,,,,0,,,68,70
8799,note_on,,,,,79,0,1,,,,,0,,,68,0
8800,note_on,,,,,1,0,1,,,,,0,,,56,70
8875,note_on,,,,,75,0,1,,,,,0,,,56,0
8879,note_on,,,,,4,0,1,,,,,0,,,72,0
8880,note_on,,,,,321,0,0,,,,,0,,,67,84
8880,note_on,,,,,1,0,1,,,,,0,,,67,70
8880,note_on,,,,,0,0,0,,,,,0,,,79,84
8955,note_on,,,,,75,0,1,,,,,0,,,67,0
8960,note_on,,,,,5,0,1,,,,,0,,,73,70
8960,note_on,,,,,0,0,1,,,,,0,,,76,70
9035,note_on,,,,,0,0,1,,,,,0,,,76,0
9035,note_on,,,,,75,0,1,,,,,0,,,73,0
9039,note_on,,,,,159,0,0,,,,,0,,,67,0
9039,note_on,,,,,0,0,0,,,,,0,,,79,0
9040,note_on,,,,,0,0,0,,,,,0,,,80,70
9040,note_on,,,,,5,0,1,,,,,0,,,68,70
9040,note_on,,,,,1,0,0,,,,,0,,,68,70
9115,note_on,,,,,75,0,1,,,,,0,,,68,0
9115,note_on,,,,,0,0,0,,,,,0,,,80,0
9115,note_on,,,,,75,0,0,,,,,0,,,68,0
9120,note_on,,,,,5,0,1,,,,,0,,,63,70
9120,note_on,,,,,0,0,1,,,,,0,,,72,70
9199,note_on,,,,,79,0,1,,,,,0,,,63,0
9200,note_on,,,,,1,0,1,,,,,0,,,66,70
9279,note_on,,,,,79,0,1,,,,,0,,,66,0
9280,note_on,,,,,1,0,1,,,,,0,,,56,70
9355,note_on,,,,,75,0,1,,,,,0,,,56,0
9359,note_on,,,,,4,0,1,,,,,0,,,72,0
9360,note_on,,,,,1,0,1,,,,,0,,,69,70
9360,note_on,,,,,0,0,0,,,,,0,,,81,84
9360,note_on,,,,,245,0,0,,,,,0,,,69,84
9435,note_on,,,,,75,0,1,,,,,0,,,69,0
9440,note_on,,,,,5,0,1,,,,,0,,,72,70
9515,note_on,,,,,75,0,1,,,,,0,,,72,0
9519,note_on,,,,,159,0,0,,,,,0,,,69,0
9519,note_on,,,,,0,0,0,,,,,0,,,81,0
9520,note_on,,,,,5,0,1,,,,,0,,,68,70
9520,note_on,,,,,0,0,0,,,,,0,,,80,70
9520,note_on,,,,,1,0,0,,,,,0,,,68,70
9595,note_on,,,,,0,0,0,,,,,0,,,80,0
9595,note_on,,,,,75,0,1,,,,,0,,,68,0
9595,note_on,,,,,75,0,0,,,,,0,,,68,0
9600,note_on,,,,,5,0,1,,,,,0,,,64,70
9600,note_on,,,,,5,0,0,,,,,0,,,73,70
9679,note_on,,,,,79,0,1,,,,,0,,,64,0
9680,note_on,,,,,1,0,1,,,,,0,,,68,70
9759,note_on,,,,,79,0,1,,,,,0,,,68,0
9760,note_on,,,,,1,0,1,,,,,0,,,56,70
9827,note_on,,,,,227,0,0,,,,,0,,,73,0
9835,note_on,,,,,75,0,1,,,,,0,,,56,0
9840,note_on,,,,,13,0,0,,,,,0,,,67,70
9840,note_on,,,,,0,0,0,,,,,0,,,67,70
9840,note_on,,,,,0,0,0,,,,,0,,,79,70
9919,note_on,,,,,79,0,0,,,,,0,,,67,0
9920,note_on,,,,,0,0,0,,,,,0,,,76,70
9920,note_on,,,,,1,0,0,,,,,0,,,73,70
9999,note_on,,,,,0,0,0,,,,,0,,,73,0
9999,note_on,,,,,0,0,0,,,,,0,,,76,0
9999,note_on,,,,,0,0,0,,,,,0,,,79,0
9999,note_on,,,,,79,0,0,,,,,0,,,67,0
10000,note_on,,,,,0,0,0,,,,,0,,,80,70
10000,note_on,,,,,1,0,0,,,,,0,,,68,70
10000,note_on,,,,,0,0,0,,,,,0,,,68,70
10075,note_on,,,,,0,0,0,,,,,0,,,68,0
10075,note_on,,,,,0,0,0,,,,,0,,,80,0
10075,note_on,,,,,75,0,0,,,,,0,,,68,0
10080,note_on,,,,,0,0,0,,,,,0,,,92,70
10080,note_on,,,,,5,0,0,,,,,0,,,80,70
10158,note_on,,,,,0,0,0,,,,,0,,,92,0
10158,note_on,,,,,78,0,0,,,,,0,,,80,0
10160,note_on,,,,,325,0,1,,,,,0,,,44,70
10239,note_on,,,,,79,0,1,,,,,0,,,44,0
10240,note_on,,,,,1,0,1,,,,,0,,,52,70
10319,note_on,,,,,79,0,1,,,,,0,,,52,0
10320,note_on,,,,,0,0,0,,,,,0,,,88,70
10320,note_on,,,,,1,0,1,,,,,0,,,56,70
10320,note_on,,,,,162,0,0,,,,,0,,,76,70
10399,note_on,,,,,79,0,0,,,,,0,,,76,0
10399,note_on,,,,,0,0,0,,,,,0,,,88,0
10399,note_on,,,,,79,0,1,,,,,0,,,56,0
10400,note_on,,,,,1,0,1,,,,,0,,,60,70
10479,note_on,,,,,79,0,1,,,,,0,,,60,0
10480,note_on,,,,,1,0,1,,,,,0,,,61,70
10480,note_on,,,,,81,0,0,,,,,0,,,73,70
10480,note_on,,,,,0,0,0,,,,,0,,,85,70
10555,note_on,,,,,75,0,1,,,,,0,,,61,0
10555,note_on,,,,,0,0,0,,,,,0,,,85,0
10555,note_on,,,,,75,0,0,,,,,0,,,73,0
10560,note_on,,,,,0,0,1,,,,,0,,,68,70
10560,note_on,,,,,5,0,1,,,,,0,,,64,70
10639,note_on,,,,,79,0,1,,,,,0,,,64,0
10640,note_on,,,,,1,0,1,,,,,0,,,68,70
10719,note_on,,,,,79,0,1,,,,,0,,,68,0
10720,note_on,,,,,1,0,1,,,,,0,,,56,70
10795,note_on,,,,,75,0,1,,,,,0,,,56,0
10799,note_on,,,,,4,0,1,,,,,0,,,68,0
10800,note_on,,,,,0,0,0,,,,,0,,,79,84
10800,note_on,,,,,1,0,1,,,,,0,,,67,70
10800,note_on,,,,,245,0,0,,,,,0,,,67,84
10875,note_on,,,,,75,0,1,,,,,0,,,67,0
10880,note_on,,,,,5,0,1,,,,,0,,,73,70
10880,note_on,,,,,0,0,1,,,,,0,,,76,70
10955,note_on,,,,,75,0,1,,,,,0,,,73,0
10955,note_on,,,,,0,0,1,,,,,0,,,76,0
10959,note_on,,,,,0,0,0,,,,,0,,,79,0
10959,note_on,,,,,159,0,0,,,,,0,,,67,0
10960,note_on,,,,,0,0,0,,,,,0,,,80,70
10960,note_on,,,,,1,0,0,,,,,0,,,68,70
10960,note_on,,,,,5,0,1,,,,,0,,,68,70
11035,note_on,,,,,75,0,1,,,,,0,,,68,0
11035,note_on,,,,,75,0,0,,,,,0,,,68,0
11035,note_on,,,,,0,0,0,,,,,0,,,80,0
11040,note_on,,,,,0,0,1,,,,,0,,,72,70
11040,note_on,,,,,5,0,1,,,,,0,,,63,70
11119,note_on,,,,,79,0,1,,,,,0,,,63,0
11120,note_on,,,,,1,0,1,,,,,0,,,67,70
11199,note_on,,,,,79,0,1,,,,,0,,,67,0
11200,note_on,,,,,1,0,1,,,,,0,,,56,70
11275,note_on,,,,,75,0,1,,,,,0,,,56,0
11279,note_on,,,,,4,0,1,,,,,0,,,72,0
11280,note_on,,,,,1,0,1,,,,,0,,,69,70
11280,note_on,,,,,0,0,0,,,,,0,,,81,84
11280,note_on,,,,,245,0,0,,,,,0,,,69,84
11355,note_on,,,,,75,0,1,,,,,0,,,69,0
11360,note_on,,,,,5,0,1,,,,,0,,,73,70
11360,note_on,,,,,0,0,1,,,,,0,,,77,70
11435,note_on,,,,,75,0,1,,,,,0,,,73,0
11435,note_on,,,,,0,0,1,,,,,0,,,77,0
11439,note_on,,,,,0,0,0,,,,,0,,,81,0
11439,note_on,,,,,159,0,0,,,,,0,,,69,0
11440,note_on,,,,,5,0,1,,,,,0,,,68,70
11440,note_on,,,,,1,0,0,,,,,0,,,68,70
11440,note_on,,,,,0,0,0,,,,,0,,,80,70
11515,note_on,,,,,75,0,0,,,,,0,,,68,0
11515,note_on,,,,,75,0,1,,,,,0,,,68,0
11515,note_on,,,,,0,0,0,,,,,0,,,80,0
11520,note_on,,,,,0,0,0,,,,,0,,,92,70
11520,note_on,,,,,5,0,0,,,,,0,,,80,70
11520,note_on,,,,,0,0,1,,,,,0,,,53,70
11520,note_on,,,,,0,0,1,,,,,0,,,56,70
11520,note_on,,,,,0,0,1,,,,,0,,,62,70
11520,note_on,,,,,5,0,1,,,,,0,,,47,70
11520,note_on,,,,,0,0,0,,,,,0,,,86,70
11598,note_on,,,,,78,0,0,,,,,0,,,80,0
11598,note_on,,,,,0,0,1,,,,,0,,,53,0
11598,note_on,,,,,0,0,1,,,,,0,,,56,0
11598,note_on,,,,,0,0,1,,,,,0,,,62,0
11598,note_on,,,,,0,0,0,,,,,0,,,86,0
11598,note_on,,,,,78,0,1,,,,,0,,,47,0
11598,note_on,,,,,0,0,0,,,,,0,,,92,0
11760,note_on,,,,,162,0,1,,,,,0,,,68,70
11760,note_on,,,,,0,0,1,,,,,0,,,77,70
11835,note_on,,,,,0,0,1,,,,,0,,,77,0
11835,note_on,,,,,75,0,1,,,,,0,,,68,0
11840,note_on,,,,,5,0,1,,,,,0,,,71,70
11840,note_on,,,,,0,0,1,,,,,0,,,79,70
11840,note_on,,,,,0,0,1,,,,,0,,,74,70
11919,note_on,,,,,0,0,1,,,,,0,,,79,0
11919,note_on,,,,,79,0,1,,,,,0,,,71,0
11919,note_on,,,,,0,0,1,,,,,0,,,74,0
11920,note_on,,,,,1,0,1,,,,,0,,,68,70
11920,note_on,,,,,0,0,1,,,,,0,,,77,70
11999,note_on,,,,,0,0,1,,,,,0,,,77,0
11999,note_on,,,,,79,0,1,,,,,0,,,68,0
12000,note_on,,,,,1,0,1,,,,,0,,,67,70
12000,note_on,,,,,0,0,1,,,,,0,,,76,70
12000,note_on,,,,,0,0,1,,,,,0,,,71,70
12079,note_on,,,,,0,0,1,,,,,0,,,71,0
12079,note_on,,,,,0,0,1,,,,,0,,,76,0
12079,note_on,,,,,79,0,1,,,,,0,,,67,0
12080,note_on,,,,,1,0,1,,,,,0,,,68,74
12080,note_on,,,,,0,0,1,,,,,0,,,77,74
12159,note_on,,,,,0,0,1,,,,,0,,,77,0
12159,note_on,,,,,79,0,1,,,,,0,,,68,0
12160,note_on,,,,,1,0,1,,,,,0,,,67,78
12160,note_on,,,,,0,0,1,,,,,0,,,71,78
12160,note_on,,,,,0,0,1,,,,,0,,,76,78
12239,note_on,,,,,0,0,1,,,,,0,,,76,0
12239,note_on,,,,,0,0,1,,,,,0,,,71,0
12239,note_on,,,,,79,0,1,,,,,0,,,67,0
12240,note_on,,,,,1,0,1,,,,,0,,,68,83
12240,note_on,,,,,0,0,1,,,,,0,,,77,83
12319,note_on,,,,,79,0,1,,,,,0,,,68,0
12319,note_on,,,,,0,0,1,,,,,0,,,77,0
12320,note_on,,,,,0,0,1,,,,,0,,,74,87
12320,note_on,,,,,0,0,1,,,,,0,,,79,87
12320,note_on,,,,,1,0,1,,,,,0,,,71,87
12395,note_on,,,,,75,0,1,,,,,0,,,71,0
12395,note_on,,,,,0,0,1,,,,,0,,,74,0
12395,note_on,,,,,0,0,1,,,,,0,,,79,0
12400,note_on,,,,,0,0,1,,,,,0,,,77,91
12400,note_on,,,,,5,0,1,,,,,0,,,68,91
12475,note_on,,,,,75,0,1,,,,,0,,,68,0
12475,note_on,,,,,0,0,1,,,,,0,,,77,0
12480,note_on,,,,,882,0,0,,,,,0,,,71,115
12480,note_on,,,,,0,0,0,,,,,0,,,80,115
12480,note_on,,,,,0,0,0,,,,,0,,,74,115
12639,note_on,,,,,159,0,0,,,,,0,,,71,0
12639,note_on,,,,,0,0,0,,,,,0,,,80,0
12639,note_on,,,,,0,0,0,,,,,0,,,74,0
12720,note_on,,,,,81,0,0,,,,,0,,,53,96
12720,note_on,,,,,245,0,1,,,,,0,,,35,96
12720,note_on,,,,,0,0,1,,,,,0,,,41,96
12720,note_on,,,,,0,0,1,,,,,0,,,44,96
12720,note_on,,,,,0,0,1,,,,,0,,,47,96
12795,note_on,,,,,75,0,0,,,,,0,,,53,0
12800,note_on,,,,,5,0,0,,,,,0,,,55,96
12875,note_on,,,,,75,0,0,,,,,0,,,55,0
12880,note_on,,,,,5,0,0,,,,,0,,,53,96
12947,note_on,,,,,227,0,1,,,,,0,,,35,0
12947,note_on,,,,,0,0,1,,,,,0,,,41,0
12947,note_on,,,,,0,0,1,,,,,0,,,44,0
12947,note_on,,,,,0,0,1,,,,,0,,,47,0
12955,note_on,,,,,75,0,0,,,,,0,,,53,0
12960,note_on,,,,,0,0,1,,,,,0,,,41,96
12960,note_on,,,,,0,0,1,,,,,0,,,44,96
12960,note_on,,,,,0,0,1,,,,,0,,,47,96
12960,note_on,,,,,13,0,1,,,,,0,,,35,96
12960,note_on,,,,,5,0,0,,,,,0,,,65,96
13035,note_on,,,,,75,0,0,,,,,0,,,65,0
13040,note_on,,,,,5,0,0,,,,,0,,,67,96
13115,note_on,,,,,75,0,0,,,,,0,,,67,0
13120,note_on,,,,,5,0,0,,,,,0,,,65,96
13187,note_on,,,,,0,0,1,,,,,0,,,41,0
13187,note_on,,,,,0,0,1,,,,,0,,,44,0
13187,note_on,,,,,0,0,1,,,,,0,,,47,0
13187,note_on,,,,,227,0,1,,,,,0,,,35,0
13195,note_on,,,,,75,0,0,,,,,0,,,65,0
13200,note_on,,,,,0,0,1,,,,,0,,,47,96
13200,note_on,,,,,0,0,1,,,,,0,,,44,96
13200,note_on,,,,,5,0,0,,,,,0,,,77,96
13200,note_on,,,,,13,0,1,,,,,0,,,35,96
13200,note_on,,,,,0,0,1,,,,,0,,,41,96
13275,note_on,,,,,75,0,0,,,,,0,,,77,0
13280,note_on,,,,,5,0,0,,,,,0,,,79,96
13355,note_on,,,,,75,0,0,,,,,0,,,79,0
13360,note_on,,,,,5,0,0,,,,,0,,,77,96
13427,note_on,,,,,227,0,1,,,,,0,,,35,0
13427,note_on,,,,,0,0,1,,,,,0,,,41,0
13427,note_on,,,,,0,0,1,,,,,0,,,44,0
13427,note_on,,,,,0,0,1,,,,,0,,,47,0
13435,note_on,,,,,75,0,0,,,,,0,,,77,0
13440,note_on,,,,,13,0,1,,,,,0,,,36,96
13440,note_on,,,,,0,0,1,,,,,0,,,48,96
13440,note_on,,,,,5,0,0,,,,,0,,,92,96
13440,note_on,,,,,0,0,1,,,,,0,,,41,96
13440,note_on,,,,,0,0,1,,,,,0,,,44,96
13518,note_on,,,,,0,0,1,,,,,0,,,44,0
13518,note_on,,,,,0,0,1,,,,,0,,,48,0
13518,note_on,,,,,78,0,1,,,,,0,,,36,0
13518,note_on,,,,,0,0,1,,,,,0,,,41,0
13518,note_on,,,,,78,0,0,,,,,0,,,92,0
13680,note_on,,,,,0,0,1,,,,,0,,,72,96
13680,note_on,,,,,162,0,1,,,,,0,,,68,96
13680,note_on,,,,,0,0,1,,,,,0,,,77,96
13755,note_on,,,,,75,0,1,,,,,0,,,68,0
13755,note_on,,,,,0,0,1,,,,,0,,,77,0
13755,note_on,,,,,0,0,1,,,,,0,,,72,0
13760,note_on,,,,,0,0,1,,,,,0,,,79,96
13760,note_on,,,,,5,0,1,,,,,0,,,70,96
13760,note_on,,,,,0,0,1,,,,,0,,,73,96
13839,note_on,,,,,0,0,1,,,,,0,,,73,0
13839,note_on,,,,,0,0,1,,,,,0,,,79,0
13839,note_on,,,,,79,0,1,,,,,0,,,70,0
13840,note_on,,,,,1,0,1,,,,,0,,,68,96
13840,note_on,,,,,0,0,1,,,,,0,,,77,96
13840,note_on,,,,,0,0,1,,,,,0,,,72,96
13919,note_on,,,,,79,0,1,,,,,0,,,68,0
13919,note_on,,,,,0,0,1,,,,,0,,,72,0
13919,note_on,,,,,0,0,1,,,,,0,,,77,0
13920,note_on,,,,,0,0,1,,,,,0,,,70,96
13920,note_on,,,,,0,0,1,,,,,0,,,76,96
13920,note_on,,,,,1,0,1,,,,,0,,,67,96
13999,note_on,,,,,0,0,1,,,,,0,,,70,0
13999,note_on,,,,,79,0,1,,,,,0,,,67,0
13999,note_on,,,,,0,0,1,,,,,0,,,76,0
14000,note_on,,,,,1,0,1,,,,,0,,,68,96
14000,note_on,,,,,0,0,1,,,,,0,,,77,96
14000,note_on,,,,,0,0,1,,,,,0,,,72,96
14079,note_on,,,,,0,0,1,,,,,0,,,72,0
14079,note_on,,,,,79,0,1,,,,,0,,,68,0
14079,note_on,,,,,0,0,1,,,,,0,,,77,0
14080,note_on,,,,,0,0,1,,,,,0,,,76,96
14080,note_on,,,,,0,0,1,,,,,0,,,70,96
14080,note_on,,,,,1,0,1,,,,,0,,,67,96
14159,note_on,,,,,0,0,1,,,,,0,,,70,0
14159,note_on,,,,,79,0,1,,,,,0,,,67,0
14159,note_on,,,,,0,0,1,,,,,0,,,76,0
14160,note_on,,,,,0,0,1,,,,,0,,,77,96
14160,note_on,,,,,0,0,1,,,,,0,,,72,96
14160,note_on,,,,,1,0,1,,,,,0,,,68,96
14239,note_on,,,,,79,0,1,,,,,0,,,68,0
14239,note_on,,,,,0,0,1,,,,,0,,,77,0
14239,note_on,,,,,0,0,1,,,,,0,,,72,0
14240,note_on,,,,,0,0,1,,,,,0,,,73,96
14240,note_on,,,,,1,0,1,,,,,0,,,70,96
14240,note_on,,,,,0,0,1,,,,,0,,,79,96
14315,note_on,,,,,0,0,1,,,,,0,,,73,0
14315,note_on,,,,,75,0,1,,,,,0,,,70,0
14315,note_on,,,,,0,0,1,,,,,0,,,79,0
14320,note_on,,,,,0,0,1,,,,,0,,,72,96
14320,note_on,,,,,5,0,1,,,,,0,,,68,96
14320,note_on,,,,,0,0,1,,,,,0,,,77,96
14395,note_on,,,,,0,0,1,,,,,0,,,72,0
14395,note_on,,,,,0,0,1,,,,,0,,,77,0
14395,note_on,,,,,75,0,1,,,,,0,,,68,0
14400,note_on,,,,,0,0,0,,,,,0,,,77,115
14400,note_on,,,,,882,0,0,,,,,0,,,72,115
14400,note_on,,,,,0,0,0,,,,,0,,,80,115
14559,note_on,,,,,159,0,0,,,,,0,,,72,0
14559,note_on,,,,,0,0,0,,,,,0,,,80,0
14559,note_on,,,,,0,0,0,,,,,0,,,77,0
14640,note_on,,,,,0,0,1,,,,,0,,,41,96
14640,note_on,,,,,0,0,1,,,,,0,,,44,96
14640,note_on,,,,,0,0,1,,,,,0,,,48,96
14640,note_on,,,,,81,0,0,,,,,0,,,53,96
14640,note_on,,,,,245,0,1,,,,,0,,,36,96
14715,note_on,,,,,75,0,0,,,,,0,,,53,0
14720,note_on,,,,,5,0,0,,,,,0,,,55,96
14795,note_on,,,,,75,0,0,,,,,0,,,55,0
14800,note_on,,,,,5,0,0,,,,,0,,,53,96
14867,note_on,,,,,0,0,1,,,,,0,,,44,0
14867,note_on,,,,,0,0,1,,,,,0,,,48,0
14867,note_on,,,,,0,0,1,,,,,0,,,41,0
14867,note_on,,,,,227,0,1,,,,,0,,,36,0
14875,note_on,,,,,75,0,0,,,,,0,,,53,0
14880,note_on,,,,,0,0,1,,,,,0,,,41,96
14880,note_on,,,,,0,0,1,,,,,0,,,44,96
14880,note_on,,,,,0,0,1,,,,,0,,,48,96
14880,note_on,,,,,5,0,0,,,,,0,,,65,96
14880,note_on,,,,,13,0,1,,,,,0,,,36,96
14955,note_on,,,,,75,0,0,,,,,0,,,65,0
14960,note_on,,,,,5,0,0,,,,,0,,,67,96
15035,note_on,,,,,75,0,0,,,,,0,,,67,0
15040,note_on,,,,,5,0,0,,,,,0,,,65,96
15107,note_on,,,,,0,0,1,,,,,0,,,48,0
15107,note_on,,,,,227,0,1,,,,,0,,,36,0
15107,note_on,,,,,0,0,1,,,,,0,,,41,0
15107,note_on,,,,,0,0,1,,,,,0,,,44,0
15115,note_on,,,,,75,0,0,,,,,0,,,65,0
15120,note_on,,,,,0,0,1,,,,,0,,,44,96
15120,note_on,,,,,0,0,1,,,,,0,,,41,96
15120,note_on,,,,,0,0,1,,,,,0,,,48,96
15120,note_on,,,,,5,0,0,,,,,0,,,77,96
15120,note_on,,,,,13,0,1,,,,,0,,,36,96
15195,note_on,,,,,75,0,0,,,,,0,,,77,0
15200,note_on,,,,,5,0,0,,,,,0,,,79,96
15275,note_on,,,,,75,0,0,,,,,0,,,79,0
15280,note_on,,,,,5,0,0,,,,,0,,,77,96
15347,note_on,,,,,227,0,1,,,,,0,,,36,0
15347,note_on,,,,,0,0,1,,,,,0,,,48,0
15347,note_on,,,,,0,0,1,,,,,0,,,44,0
15347,note_on,,,,,0,0,1,,,,,0,,,41,0
15355,note_on,,,,,75,0,0,,,,,0,,,77,0
15360,note_on,,,,,5,0,0,,,,,0,,,92,96
15360,note_on,,,,,0,0,1,,,,,0,,,41,96
15360,note_on,,,,,0,0,1,,,,,0,,,47,96
15360,note_on,,,,,0,0,1,,,,,0,,,49,96
15360,note_on,,,,,13,0,1,,,,,0,,,37,96
15438,note_on,,,,,0,0,1,,,,,0,,,41,0
15438,note_on,,,,,0,0,1,,,,,0,,,47,0
15438,note_on,,,,,78,0,1,,,,,0,,,37,0
15438,note_on,,,,,78,0,0,,,,,0,,,92,0
15438,note_on,,,,,0,0,1,,,,,0,,,49,0
15600,note_on,,,,,162,0,1,,,,,0,,,68,96
15600,note_on,,,,,162,0,0,,,,,0,,,77,96
15600,note_on,,,,,0,0,1,,,,,0,,,71,96
15600,note_on,,,,,0,0,1,,,,,0,,,61,96
15675,note_on,,,,,75,0,0,,,,,0,,,77,0
15680,note_on,,,,,5,0,0,,,,,0,,,90,96
15719,note_on,,,,,0,0,1,,,,,0,,,71,0
15719,note_on,,,,,119,0,1,,,,,0,,,68,0
15720,note_on,,,,,1,0,1,,,,,0,,,73,96
15759,note_on,,,,,79,0,0,,,,,0,,,90,0
15760,note_on,,,,,1,0,0,,,,,0,,,89,96
15839,note_on,,,,,119,0,1,,,,,0,,,73,0
15839,note_on,,,,,79,0,0,,,,,0,,,89,0
15840,note_on,,,,,1,0,0,,,,,0,,,87,96
15840,note_on,,,,,1,0,1,,,,,0,,,66,96
15840,note_on,,,,,0,0,1,,,,,0,,,70,96
15919,note_on,,,,,79,0,0,,,,,0,,,87,0
15920,note_on,,,,,1,0,0,,,,,0,,,77,96
15959,note_on,,,,,119,0,1,,,,,0,,,66,0
15959,note_on,,,,,0,0,1,,,,,0,,,70,0
15960,note_on,,,,,1,0,1,,,,,0,,,71,96
15999,note_on,,,,,79,0,0,,,,,0,,,77,0
16000,note_on,,,,,1,0,0,,,,,0,,,75,96
16079,note_on,,,,,119,0,1,,,,,0,,,61,0
16079,note_on,,,,,0,0,1,,,,,0,,,71,0
16079,note_on,,,,,79,0,0,,,,,0,,,75,0
16080,note_on,,,,,1,0,1,,,,,0,,,65,96
16080,note_on,,,,,0,0,1,,,,,0,,,68,96
16080,note_on,,,,,1,0,0,,,,,0,,,73,96
16159,note_on,,,,,79,0,0,,,,,0,,,73,0
16160,note_on,,,,,1,0,0,,,,,0,,,87,96
16199,note_on,,,,,0,0,1,,,,,0,,,68,0
16199,note_on,,,,,119,0,1,,,,,0,,,65,0
16200,note_on,,,,,1,0,1,,,,,0,,,70,96
16239,note_on,,,,,79,0,0,,,,,0,,,87,0
16240,note_on,,,,,1,0,0,,,,,0,,,85,96
16319,note_on,,,,,79,0,0,,,,,0,,,85,0
16319,note_on,,,,,119,0,1,,,,,0,,,70,0
16320,note_on,,,,,0,0,1,,,,,0,,,66,96
16320,note_on,,,,,1,0,0,,,,,0,,,83,96
16320,note_on,,,,,1,0,1,,,,,0,,,63,96
16399,note_on,,,,,79,0,0,,,,,0,,,83,0
16400,note_on,,,,,1,0,0,,,,,0,,,73,96
16439,note_on,,,,,119,0,1,,,,,0,,,63,0
16439,note_on,,,,,0,0,1,,,,,0,,,66,0
16440,note_on,,,,,1,0,1,,,,,0,,,68,96
16479,note_on,,,,,79,0,0,,,,,0,,,73,0
16480,note_on,,,,,1,0,0,,,,,0,,,71,96
16559,note_on,,,,,79,0,0,,,,,0,,,71,0
16559,note_on,,,,,119,0,1,,,,,0,,,68,0
16560,note_on,,,,,1,0,0,,,,,0,,,70,96
16560,note_on,,,,,1,0,1,,,,,0,,,61,96
16560,note_on,,,,,0,0,1,,,,,0,,,65,96
16639,note_on,,,,,79,0,0,,,,,0,,,70,0
16640,note_on,,,,,1,0,0,,,,,0,,,83,96
16679,note_on,,,,,119,0,1,,,,,0,,,61,0
16679,note_on,,,,,0,0,1,,,,,0,,,65,0
16680,note_on,,,,,1,0,1,,,,,0,,,66,96
16719,note_on,,,,,79,0,0,,,,,0,,,83,0
16720,note_on,,,,,1,0,0,,,,,0,,,82,96
16799,note_on,,,,,79,0,0,,,,,0,,,82,0
16799,note_on,,,,,119,0,1,,,,,0,,,66,0
16800,note_on,,,,,1,0,1,,,,,0,,,59,96
16800,note_on,,,,,1,0,0,,,,,0,,,80,96
16800,note_on,,,,,0,0,1,,,,,0,,,63,96
16879,note_on,,,,,79,0,0,,,,,0,,,80,0
16880,note_on,,,,,1,0,0,,,,,0,,,70,96
16919,note_on,,,,,119,0,1,,,,,0,,,59,0
16919,note_on,,,,,0,0,1,,,,,0,,,63,0
16920,note_on,,,,,1,0,1,,,,,0,,,65,96
16959,note_on,,,,,79,0,0,,,,,0,,,70,0
16960,note_on,,,,,1,0,0,,,,,0,,,68,96
17039,note_on,,,,,119,0,1,,,,,0,,,65,0
17039,note_on,,,,,79,0,0,,,,,0,,,68,0
17040,note_on,,,,,1,0,0,,,,,0,,,66,96
17040,note_on,,,,,0,0,1,,,,,0,,,61,96
17040,note_on,,,,,1,0,1,,,,,0,,,58,96
17119,note_on,,,,,79,0,0,,,,,0,,,66,0
17120,note_on,,,,,1,0,0,,,,,0,,,80,96
17159,note_on,,,,,119,0,1,,,,,0,,,58,0
17159,note_on,,,,,0,0,1,,,,,0,,,61,0
17160,note_on,,,,,1,0,1,,,,,0,,,63,96
17199,note_on,,,,,79,0,0,,,,,0,,,80,0
17200,note_on,,,,,1,0,0,,,,,0,,,78,96
17279,note_on,,,,,79,0,0,,,,,0,,,78,0
17279,note_on,,,,,119,0,1,,,,,0,,,63,0
17280,note_on,,,,,1,0,1,,,,,0,,,56,96
17280,note_on,,,,,0,0,1,,,,,0,,,59,96
17280,note_on,,,,,1,0,0,,,,,0,,,77,96
17359,note_on,,,,,79,0,0,,,,,0,,,77,0
17360,note_on,,,,,1,0,0,,,,,0,,,66,96
17399,note_on,,,,,119,0,1,,,,,0,,,56,0
17399,note_on,,,,,0,0,1,,,,,0,,,59,0
17439,note_on,,,,,79,0,0,,,,,0,,,66,0
17440,note_on,,,,,1,0,0,,,,,0,,,65,96
17515,note_on,,,,,75,0,0,,,,,0,,,65,0
17520,note_on,,,,,0,0,0,,,,,0,,,64,96
17520,note_on,,,,,121,0,1,,,,,0,,,55,115
17520,note_on,,,,,0,0,1,,,,,0,,,49,96
17520,note_on,,,,,0,0,1,,,,,0,,,58,115
17520,note_on,,,,,5,0,0,,,,,0,,,64,96
17599,note_on,,,,,79,0,0,,,,,0,,,64,0
17600,note_on,,,,,1,0,0,,,,,0,,,75,96
17679,note_on,,,,,79,0,0,,,,,0,,,75,0
17680,note_on,,,,,1,0,0,,,,,0,,,76,96
17759,note_on,,,,,239,0,1,,,,,0,,,55,0
17759,note_on,,,,,0,0,0,,,,,0,,,76,0
17759,note_on,,,,,0,0,1,,,,,0,,,58,0
17759,note_on,,,,,79,0,0,,,,,0,,,64,0
17760,note_on,,,,,0,0,1,,,,,0,,,59,96
17760,note_on,,,,,0,0,0,,,,,0,,,65,96
17760,note_on,,,,,1,0,1,,,,,0,,,56,96
17760,note_on,,,,,1,0,0,,,,,0,,,65,96
17835,note_on,,,,,0,0,0,,,,,0,,,65,0
17835,note_on,,,,,75,0,0,,,,,0,,,65,0
17840,note_on,,,,,5,0,0,,,,,0,,,79,96
17915,note_on,,,,,75,0,0,,,,,0,,,79,0
17920,note_on,,,,,5,0,0,,,,,0,,,77,96
17975,note_on,,,,,215,0,1,,,,,0,,,49,0
17987,note_on,,,,,12,0,1,,,,,0,,,56,0
17987,note_on,,,,,0,0,1,,,,,0,,,59,0
17995,note_on,,,,,75,0,0,,,,,0,,,77,0
18000,note_on,,,,,5,0,0,,,,,0,,,59,96
18000,note_on,,,,,13,0,1,,,,,0,,,37,96
18000,note_on,,,,,0,0,0,,,,,0,,,59,96
18000,note_on,,,,,0,0,1,,,,,0,,,53,96
18079,note_on,,,,,79,0,0,,,,,0,,,59,0
18080,note_on,,,,,1,0,0,,,,,0,,,70,96
18159,note_on,,,,,79,0,0,,,,,0,,,70,0
18160,note_on,,,,,1,0,0,,,,,0,,,71,96
18239,note_on,,,,,239,0,1,,,,,0,,,37,0
18239,note_on,,,,,0,0,0,,,,,0,,,71,0
18239,note_on,,,,,79,0,0,,,,,0,,,59,0
18239,note_on,,,,,0,0,1,,,,,0,,,53,0
18240,note_on,,,,,1,0,0,,,,,0,,,60,96
18240,note_on,,,,,0,0,0,,,,,0,,,72,96
18240,note_on,,,,,0,0,1,,,,,0,,,52,96
18240,note_on,,,,,1,0,1,,,,,0,,,36,96
18318,note_on,,,,,0,0,0,,,,,0,,,72,0
18318,note_on,,,,,0,0,1,,,,,0,,,52,0
18318,note_on,,,,,78,0,0,,,,,0,,,60,0
18318,note_on,,,,,78,0,1,,,,,0,,,36,0
18480,note_on,,,,,0,0,1,,,,,0,,,68,115
18480,note_on,,,,,162,0,1,,,,,0,,,65,115
18480,note_on,,,,,0,0,1,,,,,0,,,73,115
18559,note_on,,,,,79,0,1,,,,,0,,,65,0
18559,note_on,,,,,0,0,1,,,,,0,,,68,0
18559,note_on,,,,,0,0,1,,,,,0,,,73,0
18560,note_on,,,,,0,0,1,,,,,0,,,75,96
18560,note_on,,,,,1,0,1,,,,,0,,,67,96
18560,note_on,,,,,0,0,1,,,,,0,,,70,96
18639,note_on,,,,,0,0,1,,,,,0,,,70,0
18639,note_on,,,,,0,0,1,,,,,0,,,75,0
18639,note_on,,,,,79,0,1,,,,,0,,,67,0
18640,note_on,,,,,0,0,1,,,,,0,,,68,96
18640,note_on,,,,,0,0,1,,,,,0,,,73,96
18640,note_on,,,,,1,0,1,,,,,0,,,65,96
18719,note_on,,,,,0,0,1,,,,,0,,,68,0
18719,note_on,,,,,0,0,1,,,,,0,,,73,0
18719,note_on,,,,,79,0,1,,,,,0,,,65,0
18720,note_on,,,,,0,0,1,,,,,0,,,67,96
18720,note_on,,,,,0,0,1,,,,,0,,,72,96
18720,note_on,,,,,1,0,1,,,,,0,,,64,96
18799,note_on,,,,,0,0,1,,,,,0,,,72,0
18799,note_on,,,,,79,0,1,,,,,0,,,64,0
18799,note_on,,,,,0,0,1,,,,,0,,,67,0
18800,note_on,,,,,1,0,1,,,,,0,,,65,95
18800,note_on,,,,,0,0,1,,,,,0,,,68,95
18800,note_on,,,,,0,0,1,,,,,0,,,73,95
18879,note_on,,,,,79,0,1,,,,,0,,,65,0
18879,note_on,,,,,0,0,1,,,,,0,,,73,0
18879,note_on,,,,,0,0,1,,,,,0,,,68,0
18880,note_on,,,,,1,0,1,,,,,0,,,64,94
18880,note_on,,,,,0,0,1,,,,,0,,,67,94
18880,note_on,,,,,0,0,1,,,,,0,,,72,94
18959,note_on,,,,,0,0,1,,,,,0,,,72,0
18959,note_on,,,,,0,0,1,,,,,0,,,67,0
18959,note_on,,,,,79,0,1,,,,,0,,,64,0
18960,note_on,,,,,0,0,1,,,,,0,,,70,93
18960,note_on,,,,,0,0,1,,,,,0,,,65,93
18960,note_on,,,,,1,0,1,,,,,0,,,61,93
19039,note_on,,,,,79,0,1,,,,,0,,,61,0
19039,note_on,,,,,0,0,1,,,,,0,,,65,0
19039,note_on,,,,,0,0,1,,,,,0,,,70,0
19040,note_on,,,,,1,0,1,,,,,0,,,64,91
19040,note_on,,,,,0,0,1,,,,,0,,,67,91
19040,note_on,,,,,0,0,1,,,,,0,,,72,91
19119,note_on,,,,,79,0,1,,,,,0,,,64,0
19119,note_on,,,,,0,0,1,,,,,0,,,67,0
19119,note_on,,,,,0,0,1,,,,,0,,,72,0
19120,note_on,,,,,1,0,1,,,,,0,,,61,90
19120,note_on,,,,,0,0,1,,,,,0,,,65,90
19120,note_on,,,,,0,0,1,,,,,0,,,70,90
19199,note_on,,,,,0,0,1,,,,,0,,,70,0
19199,note_on,,,,,79,0,1,,,,,0,,,61,0
19199,note_on,,,,,0,0,1,,,,,0,,,65,0
19200,note_on,,,,,0,0,0,,,,,0,,,68,89
19200,note_on,,,,,882,0,0,,,,,0,,,60,89
19200,note_on,,,,,0,0,0,,,,,0,,,63,89
19275,note_on,,,,,0,0,0,,,,,0,,,68,0
19275,note_on,,,,,75,0,0,,,,,0,,,60,0
19275,note_on,,,,,0,0,0,,,,,0,,,63,0
19280,note_on,,,,,0,0,0,,,,,0,,,70,88
19280,note_on,,,,,5,0,0,,,,,0,,,61,88
19280,note_on,,,,,0,0,0,,,,,0,,,65,88
19355,note_on,,,,,0,0,0,,,,,0,,,65,0
19355,note_on,,,,,0,0,0,,,,,0,,,70,0
19355,note_on,,,,,75,0,0,,,,,0,,,61,0
19360,note_on,,,,,0,0,0,,,,,0,,,63,86
19360,note_on,,,,,0,0,0,,,,,0,,,68,86
19360,note_on,,,,,5,0,0,,,,,0,,,60,86
19435,note_on,,,,,0,0,0,,,,,0,,,68,0
19435,note_on,,,,,0,0,0,,,,,0,,,63,0
19435,note_on,,,,,75,0,0,,,,,0,,,60,0
19440,note_on,,,,,0,0,0,,,,,0,,,61,85
19440,note_on,,,,,5,0,0,,,,,0,,,58,85
19440,note_on,,,,,0,0,0,,,,,0,,,67,85
19515,note_on,,,,,0,0,0,,,,,0,,,61,0
19515,note_on,,,,,75,0,0,,,,,0,,,58,0
19515,note_on,,,,,0,0,0,,,,,0,,,67,0
19520,note_on,,,,,0,0,0,,,,,0,,,68,84
19520,note_on,,,,,5,0,0,,,,,0,,,60,84
19520,note_on,,,,,0,0,0,,,,,0,,,63,84
19595,note_on,,,,,75,0,0,,,,,0,,,60,0
19595,note_on,,,,,0,0,0,,,,,0,,,68,0
19595,note_on,,,,,0,0,0,,,,,0,,,63,0
19600,note_on,,,,,5,0,0,,,,,0,,,58,83
19600,note_on,,,,,0,0,0,,,,,0,,,67,83
19600,note_on,,,,,0,0,0,,,,,0,,,61,83
19675,note_on,,,,,75,0,0,,,,,0,,,58,0
19675,note_on,,,,,0,0,0,,,,,0,,,67,0
19675,note_on,,,,,0,0,0,,,,,0,,,61,0
19680,note_on,,,,,5,0,0,,,,,0,,,55,81
19680,note_on,,,,,0,0,0,,,,,0,,,64,81
19680,note_on,,,,,0,0,0,,,,,0,,,58,81
19755,note_on,,,,,0,0,0,,,,,0,,,58,0
19755,note_on,,,,,0,0,0,,,,,0,,,64,0
19755,note_on,,,,,75,0,0,,,,,0,,,55,0
19760,note_on,,,,,0,0,0,,,,,0,,,60,81
19760,note_on,,,,,0,0,0,,,,,0,,,65,81
19760,note_on,,,,,5,0,0,,,,,0,,,56,81
19835,note_on,,,,,0,0,0,,,,,0,,,65,0
19835,note_on,,,,,0,0,0,,,,,0,,,60,0
19835,note_on,,,,,75,0,0,,,,,0,,,56,0
19840,note_on,,,,,5,0,0,,,,,0,,,55,81
19840,note_on,,,,,0,0,0,,,,,0,,,64,81
19840,note_on,,,,,0,0,0,,,,,0,,,58,81
19915,note_on,,,,,0,0,0,,,,,0,,,64,0
19915,note_on,,,,,0,0,0,,,,,0,,,58,0
19915,note_on,,,,,75,0,0,,,,,0,,,55,0
19920,note_on,,,,,0,0,0,,,,,0,,,60,81
19920,note_on,,,,,0,0,0,,,,,0,,,55,81
19920,note_on,,,,,5,0,0,,,,,0,,,52,81
19995,note_on,,,,,0,0,0,,,,,0,,,60,0
19995,note_on,,,,,75,0,0,,,,,0,,,52,0
19995,note_on,,,,,0,0,0,,,,,0,,,55,0
20000,note_on,,,,,0,0,0,,,,,0,,,61,81
20000,note_on,,,,,5,0,0,,,,,0,,,53,81
20000,note_on,,,,,0,0,0,,,,,0,,,56,81
20075,note_on,,,,,75,0,0,,,,,0,,,53,0
20075,note_on,,,,,0,0,0,,,,,0,,,56,0
20075,note_on,,,,,0,0,0,,,,,0,,,61,0
20080,note_on,,,,,0,0,0,,,,,0,,,60,81
20080,note_on,,,,,5,0,0,,,,,0,,,52,81
20080,note_on,,,,,0,0,0,,,,,0,,,55,81
20155,note_on,,,,,0,0,0,,,,,0,,,55,0
20155,note_on,,,,,75,0,0,,,,,0,,,52,0
20155,note_on,,,,,0,0,0,,,,,0,,,60,0
20160,note_on,,,,,961,0,1,,,,,0,,,41,81
20239,note_on,,,,,79,0,1,,,,,0,,,41,0
20240,note_on,,,,,1,0,1,,,,,0,,,48,81
20280,note_on,,,,,125,0,0,,,,,0,,,71,97
20280,note_on,,,,,0,0,0,,,,,0,,,83,97
20319,note_on,,,,,79,0,1,,,,,0,,,48,0
20320,note_on,,,,,1,0,1,,,,,0,,,56,81
20395,note_on,,,,,75,0,1,,,,,0,,,56,0
20400,note_on,,,,,5,0,1,,,,,0,,,56,81
20479,note_on,,,,,79,0,1,,,,,0,,,56,0
20480,note_on,,,,,1,0,1,,,,,0,,,65,81
20519,note_on,,,,,239,0,0,,,,,0,,,71,0
20519,note_on,,,,,0,0,0,,,,,0,,,83,0
20520,note_on,,,,,0,0,0,,,,,0,,,84,81
20520,note_on,,,,,1,0,0,,,,,0,,,72,81
20559,note_on,,,,,79,0,1,,,,,0,,,65,0
20560,note_on,,,,,1,0,1,,,,,0,,,60,81
20633,note_on,,,,,0,0,0,,,,,0,,,84,0
20633,note_on,,,,,113,0,0,,,,,0,,,72,0
20635,note_on,,,,,75,0,1,,,,,0,,,60,0
20640,note_on,,,,,5,0,1,,,,,0,,,41,81
20719,note_on,,,,,79,0,1,,,,,0,,,41,0
20720,note_on,,,,,1,0,1,,,,,0,,,52,81
20760,note_on,,,,,0,0,0,,,,,0,,,85,97
20760,note_on,,,,,127,0,0,,,,,0,,,73,97
20799,note_on,,,,,79,0,1,,,,,0,,,52,0
20800,note_on,,,,,1,0,1,,,,,0,,,58,81
20875,note_on,,,,,75,0,1,,,,,0,,,58,0
20880,note_on,,,,,5,0,1,,,,,0,,,55,81
20959,note_on,,,,,79,0,1,,,,,0,,,55,0
20960,note_on,,,,,1,0,1,,,,,0,,,64,81
20999,note_on,,,,,239,0,0,,,,,0,,,73,0
20999,note_on,,,,,0,0,0,,,,,0,,,85,0
21000,note_on,,,,,0,0,0,,,,,0,,,84,81
21000,note_on,,,,,1,0,0,,,,,0,,,72,81
21039,note_on,,,,,79,0,1,,,,,0,,,64,0
21040,note_on,,,,,1,0,1,,,,,0,,,58,81
21113,note_on,,,,,0,0,0,,,,,0,,,84,0
21113,note_on,,,,,113,0,0,,,,,0,,,72,0
21115,note_on,,,,,75,0,1,,,,,0,,,58,0
21120,note_on,,,,,5,0,1,,,,,0,,,41,81
21199,note_on,,,,,79,0,1,,,,,0,,,41,0
21200,note_on,,,,,1,0,1,,,,,0,,,48,81
21279,note_on,,,,,79,0,1,,,,,0,,,48,0
21280,note_on,,,,,1,0,1,,,,,0,,,56,81
21280,note_on,,,,,0,0,0,,,,,0,,,83,81
21280,note_on,,,,,167,0,0,,,,,0,,,71,81
21355,note_on,,,,,75,0,1,,,,,0,,,56,0
21359,note_on,,,,,79,0,0,,,,,0,,,71,0
21359,note_on,,,,,0,0,0,,,,,0,,,83,0
21360,note_on,,,,,0,0,1,,,,,0,,,60,81
21360,note_on,,,,,5,0,1,,,,,0,,,56,81
21439,note_on,,,,,79,0,1,,,,,0,,,56,0
21439,note_on,,,,,0,0,1,,,,,0,,,60,0
21440,note_on,,,,,81,0,0,,,,,0,,,73,81
21440,note_on,,,,,1,0,1,,,,,0,,,67,81
21440,note_on,,,,,0,0,0,,,,,0,,,85,81
21519,note_on,,,,,79,0,1,,,,,0,,,67,0
21519,note_on,,,,,0,0,0,,,,,0,,,85,0
21519,note_on,,,,,79,0,0,,,,,0,,,73,0
21520,note_on,,,,,1,0,1,,,,,0,,,65,81
21599,note_on,,,,,79,0,1,,,,,0,,,65,0
21600,note_on,,,,,0,0,0,,,,,0,,,84,81
21600,note_on,,,,,81,0,0,,,,,0,,,72,81
21600,note_on,,,,,1,0,1,,,,,0,,,55,81
21600,note_on,,,,,0,0,1,,,,,0,,,58,81
21679,note_on,,,,,0,0,1,,,,,0,,,58,0
21679,note_on,,,,,79,0,1,,,,,0,,,55,0
21679,note_on,,,,,79,0,0,,,,,0,,,72,0
21679,note_on,,,,,0,0,0,,,,,0,,,84,0
21680,note_on,,,,,1,0,1,,,,,0,,,65,81
21759,note_on,,,,,79,0,1,,,,,0,,,65,0
21760,note_on,,,,,1,0,1,,,,,0,,,63,81
21760,note_on,,,,,81,0,0,,,,,0,,,80,81
21760,note_on,,,,,0,0,0,,,,,0,,,92,81
21839,note_on,,,,,0,0,0,,,,,0,,,92,0
21839,note_on,,,,,79,0,0,,,,,0,,,80,0
21839,note_on,,,,,79,0,1,,,,,0,,,63,0
21840,note_on,,,,,0,0,1,,,,,0,,,56,81
21840,note_on,,,,,1,0,1,,,,,0,,,53,81
21919,note_on,,,,,79,0,1,,,,,0,,,53,0
21919,note_on,,,,,0,0,1,,,,,0,,,56,0
21920,note_on,,,,,0,0,0,,,,,0,,,89,81
21920,note_on,,,,,81,0,0,,,,,0,,,77,81
21920,note_on,,,,,1,0,1,,,,,0,,,63,81
21999,note_on,,,,,79,0,0,,,,,0,,,77,0
21999,note_on,,,,,0,0,0,,,,,0,,,89,0
21999,note_on,,,,,79,0,1,,,,,0,,,63,0
22000,note_on,,,,,1,0,1,,,,,0,,,61,81
22079,note_on,,,,,79,0,1,,,,,0,,,61,0
22080,note_on,,,,,1,0,1,,,,,0,,,51,81
22080,note_on,,,,,0,0,1,,,,,0,,,55,81
22159,note_on,,,,,0,0,1,,,,,0,,,55,0
22159,note_on,,,,,79,0,1,,,,,0,,,51,0
22160,note_on,,,,,1,0,1,,,,,0,,,61,81
22239,note_on,,,,,79,0,1,,,,,0,,,61,0
22240,note_on,,,,,1,0,1,,,,,0,,,60,81
22319,note_on,,,,,79,0,1,,,,,0,,,60,0
22320,note_on,,,,,1,0,1,,,,,0,,,49,81
22320,note_on,,,,,0,0,1,,,,,0,,,53,81
22399,note_on,,,,,79,0,1,,,,,0,,,49,0
22399,note_on,,,,,0,0,1,,,,,0,,,53,0
22400,note_on,,,,,1,0,1,,,,,0,,,60,81
22479,note_on,,,,,79,0,1,,,,,0,,,60,0
22480,note_on,,,,,1,0,1,,,,,0,,,58,81
22559,note_on,,,,,79,0,1,,,,,0,,,58,0
22560,note_on,,,,,0,0,1,,,,,0,,,51,81
22560,note_on,,,,,1,0,1,,,,,0,,,48,81
22639,note_on,,,,,0,0,1,,,,,0,,,51,0
22639,note_on,,,,,79,0,1,,,,,0,,,48,0
22640,note_on,,,,,1,0,1,,,,,0,,,58,81
22719,note_on,,,,,79,0,1,,,,,0,,,58,0
22720,note_on,,,,,1,0,1,,,,,0,,,56,81
22799,note_on,,,,,79,0,1,,,,,0,,,56,0
22800,note_on,,,,,0,0,1,,,,,0,,,49,81
22800,note_on,,,,,1,0,1,,,,,0,,,46,81
22879,note_on,,,,,0,0,1,,,,,0,,,49,0
22879,note_on,,,,,79,0,1,,,,,0,,,46,0
22880,note_on,,,,,1,0,1,,,,,0,,,56,81
22955,note_on,,,,,75,0,1,,,,,0,,,56,0
22960,note_on,,,,,5,0,1,,,,,0,,,55,81
23035,note_on,,,,,75,0,1,,,,,0,,,55,0
23040,note_on,,,,,5,0,1,,,,,0,,,41,81
23119,note_on,,,,,79,0,1,,,,,0,,,41,0
23120,note_on,,,,,1,0,1,,,,,0,,,48,81
23160,note_on,,,,,0,0,0,,,,,0,,,83,97
23160,note_on,,,,,1161,0,0,,,,,0,,,71,97
23199,note_on,,,,,79,0,1,,,,,0,,,48,0
23200,note_on,,,,,1,0,1,,,,,0,,,56,81
23275,note_on,,,,,75,0,1,,,,,0,,,56,0
23280,note_on,,,,,5,0,1,,,,,0,,,56,81
23359,note_on,,,,,79,0,1,,,,,0,,,56,0
23360,note_on,,,,,1,0,1,,,,,0,,,65,81
23399,note_on,,,,,239,0,0,,,,,0,,,71,0
23399,note_on,,,,,0,0,0,,,,,0,,,83,0
23400,note_on,,,,,1,0,0,,,,,0,,,72,81
23400,note_on,,,,,0,0,0,,,,,0,,,84,81
23439,note_on,,,,,79,0,1,,,,,0,,,65,0
23440,note_on,,,,,1,0,1,,,,,0,,,60,81
23513,note_on,,,,,0,0,0,,,,,0,,,84,0
23513,note_on,,,,,113,0,0,,,,,0,,,72,0
23515,note_on,,,,,75,0,1,,,,,0,,,60,0
23520,note_on,,,,,5,0,1,,,,,0,,,41,81
23599,note_on,,,,,79,0,1,,,,,0,,,41,0
23600,note_on,,,,,1,0,1,,,,,0,,,52,81
23640,note_on,,,,,0,0,0,,,,,0,,,85,97
23640,note_on,,,,,127,0,0,,,,,0,,,73,97
23679,note_on,,,,,79,0,1,,,,,0,,,52,0
23680,note_on,,,,,1,0,1,,,,,0,,,58,81
23755,note_on,,,,,75,0,1,,,,,0,,,58,0
23760,note_on,,,,,5,0,1,,,,,0,,,55,81
23839,note_on,,,,,79,0,1,,,,,0,,,55,0
23840,note_on,,,,,1,0,1,,,,,0,,,64,81
23879,note_on,,,,,0,0,0,,,,,0,,,85,0
23879,note_on,,,,,239,0,0,,,,,0,,,73,0
23880,note_on,,,,,0,0,0,,,,,0,,,84,81
23880,note_on,,,,,1,0,0,,,,,0,,,72,81
23919,note_on,,,,,79,0,1,,,,,0,,,64,0
23920,note_on,,,,,1,0,1,,,,,0,,,58,81
23993,note_on,,,,,113,0,0,,,,,0,,,72,0
23993,note_on,,,,,0,0,0,,,,,0,,,84,0
23995,note_on,,,,,75,0,1,,,,,0,,,58,0
24000,note_on,,,,,5,0,1,,,,,0,,,41,81
24079,note_on,,,,,79,0,1,,,,,0,,,41,0
24080,note_on,,,,,1,0,1,,,,,0,,,48,81
24159,note_on,,,,,79,0,1,,,,,0,,,48,0
24160,note_on,,,,,1,0,1,,,,,0,,,56,96
24160,note_on,,,,,167,0,0,,,,,0,,,71,96
24160,note_on,,,,,0,0,0,,,,,0,,,83,96
24235,note_on,,,,,75,0,1,,,,,0,,,56,0
24239,note_on,,,,,0,0,0,,,,,0,,,83,0
24239,note_on,,,,,79,0,0,,,,,0,,,71,0
24240,note_on,,,,,5,0,1,,,,,0,,,56,96
24240,note_on,,,,,0,0,1,,,,,0,,,60,96
24319,note_on,,,,,0,0,1,,,,,0,,,60,0
24319,note_on,,,,,79,0,1,,,,,0,,,56,0
24320,note_on,,,,,81,0,0,,,,,0,,,73,96
24320,note_on,,,,,1,0,1,,,,,0,,,67,96
24320,note_on,,,,,0,0,0,,,,,0,,,85,96
24399,note_on,,,,,79,0,1,,,,,0,,,67,0
24399,note_on,,,,,79,0,0,,,,,0,,,73,0
24399,note_on,,,,,0,0,0,,,,,0,,,85,0
24400,note_on,,,,,1,0,1,,,,,0,,,65,96
24479,note_on,,,,,79,0,1,,,,,0,,,65,0
24480,note_on,,,,,0,0,1,,,,,0,,,58,96
24480,note_on,,,,,0,0,0,,,,,0,,,84,96
24480,note_on,,,,,1,0,1,,,,,0,,,55,96
24480,note_on,,,,,81,0,0,,,,,0,,,72,96
24559,note_on,,,,,0,0,1,,,,,0,,,58,0
24559,note_on,,,,,79,0,1,,,,,0,,,55,0
24559,note_on,,,,,0,0,0,,,,,0,,,84,0
24559,note_on,,,,,79,0,0,,,,,0,,,72,0
24560,note_on,,,,,1,0,1,,,,,0,,,65,96
24639,note_on,,,,,79,0,1,,,,,0,,,65,0
24640,note_on,,,,,0,0,0,,,,,0,,,92,96
24640,note_on,,,,,81,0,0,,,,,0,,,80,96
24640,note_on,,,,,1,0,1,,,,,0,,,63,96
24719,note_on,,,,,0,0,0,,,,,0,,,92,0
24719,note_on,,,,,79,0,0,,,,,0,,,80,0
24719,note_on,,,,,79,0,1,,,,,0,,,63,0
24720,note_on,,,,,0,0,1,,,,,0,,,56,96
24720,note_on,,,,,1,0,1,,,,,0,,,53,96
24799,note_on,,,,,0,0,1,,,,,0,,,56,0
24799,note_on,,,,,79,0,1,,,,,0,,,53,0
24800,note_on,,,,,1,0,1,,,,,0,,,63,95
24800,note_on,,,,,0,0,0,,,,,0,,,89,95
24800,note_on,,,,,81,0,0,,,,,0,,,77,95
24879,note_on,,,,,79,0,1,,,,,0,,,63,0
24879,note_on,,,,,79,0,0,,,,,0,,,77,0
24879,note_on,,,,,0,0,0,,,,,0,,,89,0
24880,note_on,,,,,1,0,1,,,,,0,,,61,95
24955,note_on,,,,,75,0,1,,,,,0,,,61,0
24960,note_on,,,,,5,0,1,,,,,0,,,39,95
25039,note_on,,,,,79,0,1,,,,,0,,,39,0
25040,note_on,,,,,1,0,1,,,,,0,,,47,95
25080,note_on,,,,,0,0,0,,,,,0,,,86,114
25080,note_on,,,,,201,0,0,,,,,0,,,74,114
25119,note_on,,,,,79,0,1,,,,,0,,,47,0
25120,note_on,,,,,1,0,1,,,,,0,,,56,95
25195,note_on,,,,,75,0,1,,,,,0,,,56,0
25200,note_on,,,,,5,0,1,,,,,0,,,59,95
25279,note_on,,,,,79,0,1,,,,,0,,,59,0
25280,note_on,,,,,1,0,1,,,,,0,,,68,95
25319,note_on,,,,,0,0,0,,,,,0,,,86,0
25319,note_on,,,,,239,0,0,,,,,0,,,74,0
25320,note_on,,,,,0,0,0,,,,,0,,,87,95
25320,note_on,,,,,1,0,0,,,,,0,,,75,95
25359,note_on,,,,,79,0,1,,,,,0,,,68,0
25360,note_on,,,,,1,0,1,,,,,0,,,63,95
25433,note_on,,,,,113,0,0,,,,,0,,,75,0
25433,note_on,,,,,0,0,0,,,,,0,,,87,0
25435,note_on,,,,,75,0,1,,,,,0,,,63,0
25440,note_on,,,,,5,0,1,,,,,0,,,39,95
25519,note_on,,,,,79,0,1,,,,,0,,,39,0
25520,note_on,,,,,1,0,1,,,,,0,,,49,95
25560,note_on,,,,,0,0,0,,,,,0,,,88,114
25560,note_on,,,,,127,0,0,,,,,0,,,76,114
25599,note_on,,,,,79,0,1,,,,,0,,,49,0
25600,note_on,,,,,1,0,1,,,,,0,,,55,95
25675,note_on,,,,,75,0,1,,,,,0,,,55,0
25680,note_on,,,,,5,0,1,,,,,0,,,58,95
25759,note_on,,,,,79,0,1,,,,,0,,,58,0
25760,note_on,,,,,1,0,1,,,,,0,,,67,95
25799,note_on,,,,,0,0,0,,,,,0,,,88,0
25799,note_on,,,,,239,0,0,,,,,0,,,76,0
25800,note_on,,,,,1,0,0,,,,,0,,,75,95
25800,note_on,,,,,0,0,0,,,,,0,,,87,95
25839,note_on,,,,,79,0,1,,,,,0,,,67,0
25840,note_on,,,,,1,0,1,,,,,0,,,61,95
25913,note_on,,,,,113,0,0,,,,,0,,,75,0
25913,note_on,,,,,0,0,0,,,,,0,,,87,0
25915,note_on,,,,,75,0,1,,,,,0,,,61,0
25920,note_on,,,,,5,0,1,,,,,0,,,44,95
25999,note_on,,,,,79,0,1,,,,,0,,,44,0
26000,note_on,,,,,1,0,1,,,,,0,,,51,95
26079,note_on,,,,,79,0,1,,,,,0,,,51,0
26080,note_on,,,,,0,0,0,,,,,0,,,86,97
26080,note_on,,,,,1,0,1,,,,,0,,,59,97
26080,note_on,,,,,167,0,0,,,,,0,,,74,97
26155,note_on,,,,,75,0,1,,,,,0,,,59,0
26159,note_on,,,,,0,0,0,,,,,0,,,86,0
26159,note_on,,,,,79,0,0,,,,,0,,,74,0
26160,note_on,,,,,5,0,1,,,,,0,,,59,98
26160,note_on,,,,,0,0,1,,,,,0,,,63,98
26239,note_on,,,,,0,0,1,,,,,0,,,63,0
26239,note_on,,,,,79,0,1,,,,,0,,,59,0
26240,note_on,,,,,0,0,0,,,,,0,,,88,98
26240,note_on,,,,,81,0,0,,,,,0,,,76,98
26240,note_on,,,,,1,0,1,,,,,0,,,70,98
26319,note_on,,,,,0,0,0,,,,,0,,,88,0
26319,note_on,,,,,79,0,1,,,,,0,,,70,0
26319,note_on,,,,,79,0,0,,,,,0,,,76,0
26320,note_on,,,,,1,0,1,,,,,0,,,68,98
26399,note_on,,,,,79,0,1,,,,,0,,,68,0
26400,note_on,,,,,0,0,1,,,,,0,,,61,98
26400,note_on,,,,,81,0,0,,,,,0,,,75,98
26400,note_on,,,,,1,0,1,,,,,0,,,58,98
26400,note_on,,,,,0,0,0,,,,,0,,,87,98
26479,note_on,,,,,79,0,0,,,,,0,,,75,0
26479,note_on,,,,,0,0,1,,,,,0,,,61,0
26479,note_on,,,,,0,0,0,,,,,0,,,87,0
26479,note_on,,,,,79,0,1,,,,,0,,,58,0
26480,note_on,,,,,1,0,1,,,,,0,,,68,98
26559,note_on,,,,,79,0,1,,,,,0,,,68,0
26560,note_on,,,,,0,0,0,,,,,0,,,95,98
26560,note_on,,,,,1,0,1,,,,,0,,,66,98
26560,note_on,,,,,81,0,0,,,,,0,,,83,98
26639,note_on,,,,,0,0,0,,,,,0,,,95,0
26639,note_on,,,,,79,0,1,,,,,0,,,66,0
26639,note_on,,,,,79,0,0,,,,,0,,,83,0
26640,note_on,,,,,1,0,1,,,,,0,,,56,98
26640,note_on,,,,,0,0,1,,,,,0,,,59,98
26719,note_on,,,,,0,0,1,,,,,0,,,59,0
26719,note_on,,,,,79,0,1,,,,,0,,,56,0
26720,note_on,,,,,0,0,0,,,,,0,,,92,97
26720,note_on,,,,,1,0,1,,,,,0,,,66,97
26720,note_on,,,,,81,0,0,,,,,0,,,80,97
26799,note_on,,,,,0,0,0,,,,,0,,,92,0
26799,note_on,,,,,79,0,0,,,,,0,,,80,0
26799,note_on,,,,,79,0,1,,,,,0,,,66,0
26800,note_on,,,,,1,0,1,,,,,0,,,64,97
26875,note_on,,,,,75,0,1,,,,,0,,,64,0
26880,note_on,,,,,5,0,1,,,,,0,,,42,97
26959,note_on,,,,,79,0,1,,,,,0,,,42,0
26960,note_on,,,,,1,0,1,,,,,0,,,51,97
27000,note_on,,,,,0,0,0,,,,,0,,,89,127
27000,note_on,,,,,201,0,0,,,,,0,,,77,127
27039,note_on,,,,,79,0,1,,,,,0,,,51,0
27040,note_on,,,,,1,0,1,,,,,0,,,59,112
27115,note_on,,,,,75,0,1,,,,,0,,,59,0
27120,note_on,,,,,5,0,1,,,,,0,,,63,112
27199,note_on,,,,,79,0,1,,,,,0,,,63,0
27200,note_on,,,,,1,0,1,,,,,0,,,71,112
27239,note_on,,,,,239,0,0,,,,,0,,,77,0
27239,note_on,,,,,0,0,0,,,,,0,,,89,0
27240,note_on,,,,,1,0,0,,,,,0,,,78,112
27240,note_on,,,,,0,0,0,,,,,0,,,90,112
27279,note_on,,,,,79,0,1,,,,,0,,,71,0
27280,note_on,,,,,1,0,1,,,,,0,,,67,112
27353,note_on,,,,,113,0,0,,,,,0,,,78,0
27353,note_on,,,,,0,0,0,,,,,0,,,90,0
27355,note_on,,,,,75,0,1,,,,,0,,,67,0
27360,note_on,,,,,5,0,1,,,,,0,,,42,112
27439,note_on,,,,,79,0,1,,,,,0,,,42,0
27440,note_on,,,,,1,0,1,,,,,0,,,52,112
27480,note_on,,,,,127,0,0,,,,,0,,,79,127
27480,note_on,,,,,0,0,0,,,,,0,,,91,127
27519,note_on,,,,,79,0,1,,,,,0,,,52,0
27520,note_on,,,,,1,0,1,,,,,0,,,58,112
27595,note_on,,,,,75,0,1,,,,,0,,,58,0
27600,note_on,,,,,5,0,1,,,,,0,,,61,112
27679,note_on,,,,,79,0,1,,,,,0,,,61,0
27680,note_on,,,,,1,0,1,,,,,0,,,70,112
27719,note_on,,,,,0,0,0,,,,,0,,,91,0
27719,note_on,,,,,239,0,0,,,,,0,,,79,0
27720,note_on,,,,,1,0,0,,,,,0,,,78,112
27720,note_on,,,,,0,0,0,,,,,0,,,90,112
27759,note_on,,,,,79,0,1,,,,,0,,,70,0
27760,note_on,,,,,1,0,1,,,,,0,,,64,112
27833,note_on,,,,,113,0,0,,,,,0,,,78,0
27833,note_on,,,,,0,0,0,,,,,0,,,90,0
27835,note_on,,,,,75,0,1,,,,,0,,,64,0
27840,note_on,,,,,5,0,1,,,,,0,,,42,112
27919,note_on,,,,,79,0,1,,,,,0,,,42,0
27920,note_on,,,,,1,0,1,,,,,0,,,51,112
27960,note_on,,,,,127,0,0,,,,,0,,,77,127
27960,note_on,,,,,0,0,0,,,,,0,,,89,127
27999,note_on,,,,,79,0,1,,,,,0,,,51,0
28000,note_on,,,,,1,0,1,,,,,0,,,59,112
28075,note_on,,,,,75,0,1,,,,,0,,,59,0
28080,note_on,,,,,5,0,1,,,,,0,,,55,112
28159,note_on,,,,,79,0,1,,,,,0,,,55,0
28160,note_on,,,,,1,0,1,,,,,0,,,63,112
28199,note_on,,,,,0,0,0,,,,,0,,,89,0
28199,note_on,,,,,239,0,0,,,,,0,,,77,0
28200,note_on,,,,,0,0,0,,,,,0,,,90,112
28200,note_on,,,,,1,0,0,,,,,0,,,78,112
28239,note_on,,,,,79,0,1,,,,,0,,,63,0
28240,note_on,,,,,1,0,1,,,,,0,,,59,112
28313,note_on,,,,,0,0,0,,,,,0,,,90,0
28313,note_on,,,,,113,0,0,,,,,0,,,78,0
28315,note_on,,,,,75,0,1,,,,,0,,,59,0
28320,note_on,,,,,7,0,0,,,,,0,,,81,112
28320,note_on,,,,,0,0,0,,,,,0,,,93,112
28320,note_on,,,,,5,0,1,,,,,0,,,42,112
28399,note_on,,,,,79,0,1,,,,,0,,,42,0
28400,note_on,,,,,1,0,1,,,,,0,,,52,112
28471,note_on,,,,,0,0,0,,,,,0,,,93,0
28471,note_on,,,,,151,0,0,,,,,0,,,81,0
28479,note_on,,,,,79,0,1,,,,,0,,,52,0
28480,note_on,,,,,0,0,0,,,,,0,,,79,112
28480,set_tempo,,,,,9,1,0,,1000000,,,,,,,
28480,note_on,,,,,0,0,0,,,,,0,,,91,112
28480,note_on,,,,,1,0,1,,,,,0,,,58,112
28555,note_on,,,,,75,0,1,,,,,0,,,58,0
28560,note_on,,,,,5,0,1,,,,,0,,,52,112
28639,note_on,,,,,79,0,1,,,,,0,,,52,0
28640,note_on,,,,,1,0,1,,,,,0,,,61,112
28707,note_on,,,,,0,0,0,,,,,0,,,91,0
28707,note_on,,,,,227,0,0,,,,,0,,,79,0
28719,note_on,,,,,79,0,1,,,,,0,,,61,0
28720,note_on,,,,,1,0,1,,,,,0,,,58,112
28720,set_tempo,,,,,13,1,0,,2000000,,,,,,,
28720,note_on,,,,,0,0,0,,,,,0,,,90,112
28720,note_on,,,,,0,0,0,,,,,0,,,78,112
28795,note_on,,,,,75,0,1,,,,,0,,,58,0
28795,note_on,,,,,75,0,0,,,,,0,,,78,0
28795,note_on,,,,,0,0,0,,,,,0,,,90,0
28800,note_on,,,,,5,0,1,,,,,0,,,47,112
28800,set_tempo,,,,,5,1,0,,666667,,,,,,,
28800,note_on,,,,,0,0,0,,,,,0,,,99,112
28800,note_on,,,,,0,0,0,,,,,0,,,87,112
28802,control_change,,,,,2,0,0,,,64,127,0,,,,
28875,note_on,,,,,75,0,1,,,,,0,,,47,0
28880,note_on,,,,,5,0,1,,,,,0,,,57,112
28955,note_on,,,,,75,0,1,,,,,0,,,57,0
28960,note_on,,,,,5,0,1,,,,,0,,,54,112
29035,note_on,,,,,75,0,1,,,,,0,,,54,0
29040,note_on,,,,,5,0,1,,,,,0,,,60,112
29115,note_on,,,,,75,0,1,,,,,0,,,60,0
29120,note_on,,,,,5,0,1,,,,,0,,,57,112
29195,note_on,,,,,75,0,1,,,,,0,,,57,0
29200,note_on,,,,,5,0,1,,,,,0,,,66,112
29255,note_on,,,,,0,0,0,,,,,0,,,99,0
29255,note_on,,,,,453,0,0,,,,,0,,,87,0
29275,note_on,,,,,75,0,1,,,,,0,,,66,0
29280,note_on,,,,,0,0,0,,,,,0,,,99,112
29280,note_on,,,,,25,0,0,,,,,0,,,87,112
29280,note_on,,,,,5,0,1,,,,,0,,,60,112
29355,note_on,,,,,75,0,1,,,,,0,,,60,0
29360,note_on,,,,,5,0,1,,,,,0,,,69,112
29435,note_on,,,,,75,0,1,,,,,0,,,69,0
29440,note_on,,,,,5,0,1,,,,,0,,,66,112
29515,note_on,,,,,75,0,1,,,,,0,,,66,0
29520,note_on,,,,,5,0,1,,,,,0,,,72,112
29595,note_on,,,,,75,0,1,,,,,0,,,72,0
29600,note_on,,,,,5,0,1,,,,,0,,,60,112
29621,note_on,,,,,341,0,0,,,,,0,,,87,0
29621,note_on,,,,,0,0,0,,,,,0,,,99,0
29640,note_on,,,,,19,0,0,,,,,0,,,87,112
29640,note_on,,,,,0,0,0,,,,,0,,,99,112
29675,note_on,,,,,75,0,1,,,,,0,,,60,0
29680,note_on,,,,,5,0,1,,,,,0,,,69,112
29753,note_on,,,,,0,0,0,,,,,0,,,99,0
29753,note_on,,,,,113,0,0,,,,,0,,,87,0
29755,note_on,,,,,75,0,1,,,,,0,,,69,0
29760,note_on,,,,,5,0,1,,,,,0,,,47,112
29760,note_on,,,,,0,0,0,,,,,0,,,99,112
29760,note_on,,,,,7,0,0,,,,,0,,,87,112
29761,control_change,,,,,1,0,0,,,64,0,0,,,,
29762,control_change,,,,,1,0,0,,,64,127,0,,,,
29835,note_on,,,,,75,0,1,,,,,0,,,47,0
29840,note_on,,,,,5,0,1,,,,,0,,,56,112
29915,note_on,,,,,75,0,1,,,,,0,,,56,0
29920,note_on,,,,,5,0,1,,,,,0,,,53,112
29995,note_on,,,,,75,0,1,,,,,0,,,53,0
30000,note_on,,,,,5,0,1,,,,,0,,,59,112
30075,note_on,,,,,75,0,1,,,,,0,,,59,0
30080,note_on,,,,,5,0,1,,,,,0,,,56,112
30155,note_on,,,,,75,0,1,,,,,0,,,56,0
30160,note_on,,,,,5,0,1,,,,,0,,,65,112
30215,note_on,,,,,0,0,0,,,,,0,,,99,0
30215,note_on,,,,,453,0,0,,,,,0,,,87,0
30235,note_on,,,,,75,0,1,,,,,0,,,65,0
30240,note_on,,,,,0,0,0,,,,,0,,,98,127
30240,note_on,,,,,25,0,0,,,,,0,,,86,127
30240,note_on,,,,,5,0,1,,,,,0,,,59,112
30315,note_on,,,,,75,0,1,,,,,0,,,59,0
30320,note_on,,,,,5,0,1,,,,,0,,,68,112
30395,note_on,,,,,75,0,1,,,,,0,,,68,0
30400,note_on,,,,,5,0,1,,,,,0,,,65,112
30475,note_on,,,,,75,0,1,,,,,0,,,65,0
30480,note_on,,,,,5,0,1,,,,,0,,,71,112
30555,note_on,,,,,75,0,1,,,,,0,,,71,0
30560,note_on,,,,,5,0,1,,,,,0,,,59,112
30635,note_on,,,,,75,0,1,,,,,0,,,59,0
30640,note_on,,,,,5,0,1,,,,,0,,,68,112
30715,note_on,,,,,75,0,1,,,,,0,,,68,0
30720,note_on,,,,,5,0,1,,,,,0,,,47,112
30721,control_change,,,,,481,0,0,,,64,0,0,,,,
30722,control_change,,,,,1,0,0,,,64,127,0,,,,
30795,note_on,,,,,75,0,1,,,,,0,,,47,0
30800,note_on,,,,,5,0,1,,,,,0,,,55,112
30875,note_on,,,,,75,0,1,,,,,0,,,55,0
30880,note_on,,,,,5,0,1,,,,,0,,,52,112
30947,note_on,,,,,225,0,0,,,,,0,,,86,0
30947,note_on,,,,,0,0,0,,,,,0,,,98,0
30955,note_on,,,,,75,0,1,,,,,0,,,52,0
30960,note_on,,,,,13,0,0,,,,,0,,,85,112
30960,note_on,,,,,5,0,1,,,,,0,,,58,112
30960,note_on,,,,,0,0,0,,,,,0,,,97,112
31035,note_on,,,,,75,0,1,,,,,0,,,58,0
31040,note_on,,,,,5,0,1,,,,,0,,,55,112
31115,note_on,,,,,75,0,1,,,,,0,,,55,0
31120,note_on,,,,,5,0,1,,,,,0,,,64,112
31195,note_on,,,,,75,0,1,,,,,0,,,64,0
31199,note_on,,,,,0,0,0,,,,,0,,,97,0
31199,note_on,,,,,239,0,0,,,,,0,,,85,0
31200,note_on,,,,,5,0,1,,,,,0,,,58,112
31200,note_on,,,,,0,0,0,,,,,0,,,99,112
31200,note_on,,,,,1,0,0,,,,,0,,,87,112
31275,note_on,,,,,75,0,1,,,,,0,,,58,0
31280,note_on,,,,,5,0,1,,,,,0,,,67,112
31355,note_on,,,,,75,0,1,,,,,0,,,67,0
31360,note_on,,,,,5,0,1,,,,,0,,,64,112
31435,note_on,,,,,75,0,1,,,,,0,,,64,0
31439,note_on,,,,,239,0,0,,,,,0,,,87,0
31439,note_on,,,,,0,0,0,,,,,0,,,99,0
31440,note_on,,,,,1,0,0,,,,,0,,,88,112
31440,note_on,,,,,5,0,1,,,,,0,,,70,112
31440,note_on,,,,,0,0,0,,,,,0,,,100,112
31515,note_on,,,,,75,0,1,,,,,0,,,70,0
31520,note_on,,,,,5,0,1,,,,,0,,,58,112
31595,note_on,,,,,75,0,1,,,,,0,,,58,0
31600,note_on,,,,,5,0,1,,,,,0,,,67,112
31667,note_on,,,,,0,0,0,,,,,0,,,100,0
31667,note_on,,,,,227,0,0,,,,,0,,,88,0
31675,note_on,,,,,75,0,1,,,,,0,,,67,0
31680,note_on,,,,,5,0,1,,,,,0,,,47,112
31680,note_on,,,,,13,0,0,,,,,0,,,90,127
31680,note_on,,,,,0,0,0,,,,,0,,,102,127
31681,control_change,,,,,1,0,0,,,64,0,0,,,,
31682,control_change,,,,,1,0,0,,,64,127,0,,,,
31755,note_on,,,,,75,0,1,,,,,0,,,47,0
31760,note_on,,,,,5,0,1,,,,,0,,,54,112
31835,note_on,,,,,75,0,1,,,,,0,,,54,0
31840,note_on,,,,,5,0,1,,,,,0,,,51,112
31915,note_on,,,,,75,0,1,,,,,0,,,51,0
31920,note_on,,,,,5,0,1,,,,,0,,,59,112
31995,note_on,,,,,75,0,1,,,,,0,,,59,0
32000,note_on,,,,,5,0,1,,,,,0,,,54,112
32039,note_on,,,,,0,0,0,,,,,0,,,102,0
32039,note_on,,,,,357,0,0,,,,,0,,,90,0
32040,note_on,,,,,0,0,0,,,,,0,,,99,112
32040,note_on,,,,,1,0,0,,,,,0,,,87,112
32075,note_on,,,,,75,0,1,,,,,0,,,54,0
32080,note_on,,,,,5,0,1,,,,,0,,,63,112
32153,note_on,,,,,0,0,0,,,,,0,,,99,0
32153,note_on,,,,,113,0,0,,,,,0,,,87,0
32155,note_on,,,,,75,0,1,,,,,0,,,63,0
32160,note_on,,,,,0,0,0,,,,,0,,,95,112
32160,note_on,,,,,7,0,0,,,,,0,,,83,112
32160,note_on,,,,,5,0,1,,,,,0,,,59,112
32235,note_on,,,,,75,0,1,,,,,0,,,59,0
32238,note_on,,,,,0,0,0,,,,,0,,,95,0
32238,note_on,,,,,78,0,0,,,,,0,,,83,0
32240,note_on,,,,,5,0,1,,,,,0,,,66,112
32315,note_on,,,,,75,0,1,,,,,0,,,66,0
32320,note_on,,,,,5,0,1,,,,,0,,,63,112
32395,note_on,,,,,75,0,1,,,,,0,,,63,0
32400,note_on,,,,,5,0,1,,,,,0,,,71,112
32475,note_on,,,,,75,0,1,,,,,0,,,71,0
32480,note_on,,,,,5,0,1,,,,,0,,,59,112
32555,note_on,,,,,75,0,1,,,,,0,,,59,0
32560,note_on,,,,,5,0,1,,,,,0,,,66,112
32635,note_on,,,,,75,0,1,,,,,0,,,66,0
32640,note_on,,,,,402,0,0,,,,,0,,,75,112
32640,note_on,,,,,0,0,0,,,,,0,,,87,112
32640,note_on,,,,,5,0,1,,,,,0,,,47,112
32641,control_change,,,,,1,0,0,,,64,0,0,,,,
32642,control_change,,,,,1,0,0,,,64,127,0,,,,
32715,note_on,,,,,75,0,1,,,,,0,,,47,0
32720,note_on,,,,,5,0,1,,,,,0,,,57,112
32795,note_on,,,,,75,0,1,,,,,0,,,57,0
32800,note_on,,,,,5,0,1,,,,,0,,,54,112
32875,note_on,,,,,75,0,1,,,,,0,,,54,0
32880,note_on,,,,,5,0,1,,,,,0,,,60,112
32955,note_on,,,,,75,0,1,,,,,0,,,60,0
32960,note_on,,,,,5,0,1,,,,,0,,,57,112
33035,note_on,,,,,75,0,1,,,,,0,,,57,0
33040,note_on,,,,,5,0,1,,,,,0,,,66,112
33095,note_on,,,,,0,0,0,,,,,0,,,87,0
33095,note_on,,,,,453,0,0,,,,,0,,,75,0
33115,note_on,,,,,75,0,1,,,,,0,,,66,0
33120,note_on,,,,,5,0,1,,,,,0,,,60,112
33120,note_on,,,,,0,0,0,,,,,0,,,87,112
33120,note_on,,,,,25,0,0,,,,,0,,,75,112
33195,note_on,,,,,75,0,1,,,,,0,,,60,0
33200,note_on,,,,,5,0,1,,,,,0,,,69,112
33275,note_on,,,,,75,0,1,,,,,0,,,69,0
33280,note_on,,,,,5,0,1,,,,,0,,,66,112
33355,note_on,,,,,75,0,1,,,,,0,,,66,0
33360,note_on,,,,,5,0,1,,,,,0,,,72,112
33435,note_on,,,,,75,0,1,,,,,0,,,72,0
33440,note_on,,,,,5,0,1,,,,,0,,,60,112
33461,note_on,,,,,0,0,0,,,,,0,,,87,0
33461,note_on,,,,,341,0,0,,,,,0,,,75,0
33480,note_on,,,,,19,0,0,,,,,0,,,75,112
33480,note_on,,,,,0,0,0,,,,,0,,,87,112
33515,note_on,,,,,75,0,1,,,,,0,,,60,0
33520,note_on,,,,,5,0,1,,,,,0,,,69,112
33593,note_on,,,,,0,0,0,,,,,0,,,87,0
33593,note_on,,,,,113,0,0,,,,,0,,,75,0
33595,note_on,,,,,75,0,1,,,,,0,,,69,0
33600,note_on,,,,,5,0,1,,,,,0,,,47,112
33600,note_on,,,,,0,0,0,,,,,0,,,87,112
33600,note_on,,,,,7,0,0,,,,,0,,,75,112
33601,control_change,,,,,1,0,0,,,64,0,0,,,,
33675,note_on,,,,,75,0,1,,,,,0,,,47,0
33680,note_on,,,,,5,0,1,,,,,0,,,56,112
33755,note_on,,,,,75,0,1,,,,,0,,,56,0
33760,note_on,,,,,5,0,1,,,,,0,,,53,112
33835,note_on,,,,,75,0,1,,,,,0,,,53,0
33840,note_on,,,,,5,0,1,,,,,0,,,59,112
33915,note_on,,,,,75,0,1,,,,,0,,,59,0
33920,note_on,,,,,5,0,1,,,,,0,,,56,112
33995,note_on,,,,,75,0,1,,,,,0,,,56,0
34000,note_on,,,,,5,0,1,,,,,0,,,65,112
34055,note_on,,,,,454,0,0,,,,,0,,,75,0
34055,note_on,,,,,0,0,0,,,,,0,,,87,0
34075,note_on,,,,,75,0,1,,,,,0,,,65,0
34080,note_on,,,,,0,0,0,,,,,0,,,86,127
34080,note_on,,,,,25,0,0,,,,,0,,,74,127
34080,note_on,,,,,5,0,1,,,,,0,,,59,112
34155,note_on,,,,,75,0,1,,,,,0,,,59,0
34160,note_on,,,,,5,0,1,,,,,0,,,68,112
34235,note_on,,,,,75,0,1,,,,,0,,,68,0
34240,note_on,,,,,5,0,1,,,,,0,,,65,112
34315,note_on,,,,,75,0,1,,,,,0,,,65,0
34320,note_on,,,,,5,0,1,,,,,0,,,71,112
34395,note_on,,,,,75,0,1,,,,,0,,,71,0
34400,note_on,,,,,5,0,1,,,,,0,,,59,112
34475,note_on,,,,,75,0,1,,,,,0,,,59,0
34480,note_on,,,,,5,0,1,,,,,0,,,68,112
34555,note_on,,,,,75,0,1,,,,,0,,,68,0
34560,note_on,,,,,5,0,1,,,,,0,,,46,112
34635,note_on,,,,,75,0,1,,,,,0,,,46,0
34640,note_on,,,,,5,0,1,,,,,0,,,56,112
34715,note_on,,,,,75,0,1,,,,,0,,,56,0
34720,note_on,,,,,5,0,1,,,,,0,,,53,112
34787,note_on,,,,,0,0,0,,,,,0,,,86,0
34787,note_on,,,,,707,0,0,,,,,0,,,74,0
34795,note_on,,,,,75,0,1,,,,,0,,,53,0
34800,note_on,,,,,0,0,0,,,,,0,,,86,112
34800,note_on,,,,,5,0,1,,,,,0,,,59,112
34800,note_on,,,,,13,0,0,,,,,0,,,74,112
34875,note_on,,,,,75,0,1,,,,,0,,,59,0
34880,note_on,,,,,5,0,1,,,,,0,,,56,112
34919,note_on,,,,,0,0,0,,,,,0,,,86,0
34919,note_on,,,,,119,0,0,,,,,0,,,74,0
34955,note_on,,,,,75,0,1,,,,,0,,,56,0
34960,note_on,,,,,5,0,1,,,,,0,,,62,112
35035,note_on,,,,,75,0,1,,,,,0,,,62,0
35040,note_on,,,,,121,0,0,,,,,0,,,75,112
35040,note_on,,,,,0,0,0,,,,,0,,,87,112
35040,note_on,,,,,5,0,1,,,,,0,,,44,112
35115,note_on,,,,,75,0,1,,,,,0,,,44,0
35120,note_on,,,,,5,0,1,,,,,0,,,53,112
35159,note_on,,,,,119,0,0,,,,,0,,,75,0
35159,note_on,,,,,0,0,0,,,,,0,,,87,0
35195,note_on,,,,,75,0,1,,,,,0,,,53,0
35200,note_on,,,,,5,0,1,,,,,0,,,50,112
35275,note_on,,,,,75,0,1,,,,,0,,,50,0
35280,note_on,,,,,0,0,0,,,,,0,,,89,112
35280,note_on,,,,,5,0,1,,,,,0,,,59,112
35280,note_on,,,,,121,0,0,,,,,0,,,77,112
35355,note_on,,,,,75,0,1,,,,,0,,,59,0
35360,note_on,,,,,5,0,1,,,,,0,,,53,112
35399,note_on,,,,,119,0,0,,,,,0,,,77,0
35399,note_on,,,,,0,0,0,,,,,0,,,89,0
35435,note_on,,,,,75,0,1,,,,,0,,,53,0
35440,note_on,,,,,5,0,1,,,,,0,,,58,112
35515,note_on,,,,,75,0,1,,,,,0,,,58,0
35520,note_on,,,,,5,0,1,,,,,0,,,42,112
35520,note_on,,,,,0,0,0,,,,,0,,,92,112
35520,note_on,,,,,121,0,0,,,,,0,,,80,112
35595,note_on,,,,,75,0,1,,,,,0,,,42,0
35600,note_on,,,,,5,0,1,,,,,0,,,54,112
35675,note_on,,,,,75,0,1,,,,,0,,,54,0
35679,note_on,,,,,159,0,0,,,,,0,,,80,0
35679,note_on,,,,,0,0,0,,,,,0,,,92,0
35680,note_on,,,,,5,0,1,,,,,0,,,51,112
35755,note_on,,,,,75,0,1,,,,,0,,,51,0
35760,note_on,,,,,0,0,0,,,,,0,,,90,112
35760,note_on,,,,,81,0,0,,,,,0,,,78,112
35760,note_on,,,,,5,0,1,,,,,0,,,58,112
35835,note_on,,,,,75,0,1,,,,,0,,,58,0
35840,note_on,,,,,5,0,1,,,,,0,,,54,112
35915,note_on,,,,,75,0,1,,,,,0,,,54,0
35920,note_on,,,,,5,0,1,,,,,0,,,63,112
35995,note_on,,,,,75,0,1,,,,,0,,,63,0
36000,note_on,,,,,5,0,1,,,,,0,,,44,112
36075,note_on,,,,,75,0,1,,,,,0,,,44,0
36080,note_on,,,,,5,0,1,,,,,0,,,56,112
36155,note_on,,,,,75,0,1,,,,,0,,,56,0
36160,note_on,,,,,5,0,1,,,,,0,,,52,112
36215,note_on,,,,,0,0,0,,,,,0,,,90,0
36215,note_on,,,,,455,0,0,,,,,0,,,78,0
36235,note_on,,,,,75,0,1,,,,,0,,,52,0
36240,note_on,,,,,5,0,1,,,,,0,,,59,112
36240,note_on,,,,,0,0,0,,,,,0,,,88,112
36240,note_on,,,,,25,0,0,,,,,0,,,76,112
36315,note_on,,,,,75,0,1,,,,,0,,,59,0
36320,note_on,,,,,5,0,1,,,,,0,,,56,112
36395,note_on,,,,,75,0,1,,,,,0,,,56,0
36400,note_on,,,,,5,0,1,,,,,0,,,64,112
36475,note_on,,,,,75,0,1,,,,,0,,,64,0
36480,note_on,,,,,5,0,1,,,,,0,,,42,112
36555,note_on,,,,,75,0,1,,,,,0,,,42,0
36560,note_on,,,,,5,0,1,,,,,0,,,54,112
36635,note_on,,,,,75,0,1,,,,,0,,,54,0
36640,note_on,,,,,5,0,1,,,,,0,,,54,112
36695,note_on,,,,,0,0,0,,,,,0,,,88,0
36695,note_on,,,,,455,0,0,,,,,0,,,76,0
36715,note_on,,,,,75,0,1,,,,,0,,,54,0
36720,note_on,,,,,5,0,1,,,,,0,,,63,112
36720,note_on,,,,,0,0,0,,,,,0,,,87,112
36720,note_on,,,,,25,0,0,,,,,0,,,75,112
36795,note_on,,,,,75,0,1,,,,,0,,,63,0
36800,note_on,,,,,5,0,1,,,,,0,,,56,112
36875,note_on,,,,,75,0,1,,,,,0,,,56,0
36880,note_on,,,,,5,0,1,,,,,0,,,66,112
36955,note_on,,,,,75,0,1,,,,,0,,,66,0
36960,note_on,,,,,5,0,1,,,,,0,,,44,112
37035,note_on,,,,,75,0,1,,,,,0,,,44,0
37040,note_on,,,,,5,0,1,,,,,0,,,56,112
37061,note_on,,,,,341,0,0,,,,,0,,,75,0
37061,note_on,,,,,0,0,0,,,,,0,,,87,0
37080,note_on,,,,,19,0,0,,,,,0,,,74,112
37080,note_on,,,,,0,0,0,,,,,0,,,86,112
37115,note_on,,,,,75,0,1,,,,,0,,,56,0
37120,note_on,,,,,5,0,1,,,,,0,,,53,112
37195,note_on,,,,,75,0,1,,,,,0,,,53,0
37199,note_on,,,,,0,0,0,,,,,0,,,86,0
37199,note_on,,,,,119,0,0,,,,,0,,,74,0
37200,note_on,,,,,1,0,0,,,,,0,,,75,112
37200,note_on,,,,,5,0,1,,,,,0,,,59,112
37200,note_on,,,,,0,0,0,,,,,0,,,87,112
37275,note_on,,,,,75,0,1,,,,,0,,,59,0
37280,note_on,,,,,5,0,1,,,,,0,,,56,112
37319,note_on,,,,,0,0,0,,,,,0,,,87,0
37319,note_on,,,,,119,0,0,,,,,0,,,75,0
37320,note_on,,,,,1,0,0,,,,,0,,,77,112
37320,note_on,,,,,0,0,0,,,,,0,,,89,112
37355,note_on,,,,,75,0,1,,,,,0,,,56,0
37360,note_on,,,,,5,0,1,,,,,0,,,62,112
37433,note_on,,,,,113,0,0,,,,,0,,,77,0
37433,note_on,,,,,0,0,0,,,,,0,,,89,0
37435,note_on,,,,,75,0,1,,,,,0,,,62,0
37440,note_on,,,,,7,0,0,,,,,0,,,80,112
37440,note_on,,,,,5,0,1,,,,,0,,,42,112
37440,note_on,,,,,0,0,0,,,,,0,,,92,112
37515,note_on,,,,,75,0,1,,,,,0,,,42,0
37519,note_on,,,,,0,0,0,,,,,0,,,92,0
37519,note_on,,,,,79,0,0,,,,,0,,,80,0
37520,note_on,,,,,5,0,1,,,,,0,,,54,112
37595,note_on,,,,,75,0,1,,,,,0,,,54,0
37600,note_on,,,,,5,0,1,,,,,0,,,51,112
37600,note_on,,,,,0,0,0,,,,,0,,,90,112
37600,note_on,,,,,81,0,0,,,,,0,,,78,112
37675,note_on,,,,,75,0,1,,,,,0,,,51,0
37679,note_on,,,,,0,0,0,,,,,0,,,90,0
37679,note_on,,,,,79,0,0,,,,,0,,,78,0
37680,note_on,,,,,5,0,1,,,,,0,,,58,112
37755,note_on,,,,,75,0,1,,,,,0,,,58,0
37760,note_on,,,,,0,0,0,,,,,0,,,95,127
37760,note_on,,,,,5,0,1,,,,,0,,,54,112
37760,note_on,,,,,81,0,0,,,,,0,,,83,127
37835,note_on,,,,,75,0,1,,,,,0,,,54,0
37840,note_on,,,,,5,0,1,,,,,0,,,63,112
37915,note_on,,,,,75,0,1,,,,,0,,,63,0
37920,note_on,,,,,5,0,1,,,,,0,,,44,112
37995,note_on,,,,,75,0,1,,,,,0,,,44,0
38000,note_on,,,,,5,0,1,,,,,0,,,56,112
38071,note_on,,,,,0,0,0,,,,,0,,,95,0
38071,note_on,,,,,311,0,0,,,,,0,,,83,0
38075,note_on,,,,,75,0,1,,,,,0,,,56,0
38080,note_on,,,,,5,0,1,,,,,0,,,52,112
38080,note_on,,,,,0,0,0,,,,,0,,,88,112
38080,note_on,,,,,9,0,0,,,,,0,,,76,112
38155,note_on,,,,,75,0,1,,,,,0,,,52,0
38160,note_on,,,,,5,0,1,,,,,0,,,59,112
38231,note_on,,,,,151,0,0,,,,,0,,,76,0
38231,note_on,,,,,0,0,0,,,,,0,,,88,0
38235,note_on,,,,,75,0,1,,,,,0,,,59,0
38240,note_on,,,,,9,0,0,,,,,0,,,83,127
38240,note_on,,,,,5,0,1,,,,,0,,,56,112
38240,note_on,,,,,0,0,0,,,,,0,,,95,127
38315,note_on,,,,,75,0,1,,,,,0,,,56,0
38320,note_on,,,,,5,0,1,,,,,0,,,64,112
38395,note_on,,,,,75,0,1,,,,,0,,,64,0
38400,note_on,,,,,5,0,1,,,,,0,,,42,112
38475,note_on,,,,,75,0,1,,,,,0,,,42,0
38480,note_on,,,,,5,0,1,,,,,0,,,54,112
38551,note_on,,,,,0,0,0,,,,,0,,,95,0
38551,note_on,,,,,311,0,0,,,,,0,,,83,0
38555,note_on,,,,,75,0,1,,,,,0,,,54,0
38560,note_on,,,,,9,0,0,,,,,0,,,75,112
38560,note_on,,,,,0,0,0,,,,,0,,,87,112
38560,note_on,,,,,5,0,1,,,,,0,,,54,112
38635,note_on,,,,,75,0,1,,,,,0,,,54,0
38640,note_on,,,,,5,0,1,,,,,0,,,63,112
38711,note_on,,,,,0,0,0,,,,,0,,,87,0
38711,note_on,,,,,151,0,0,,,,,0,,,75,0
38715,note_on,,,,,75,0,1,,,,,0,,,63,0
38720,note_on,,,,,5,0,1,,,,,0,,,56,112
38720,note_on,,,,,0,0,0,,,,,0,,,95,112
38720,note_on,,,,,9,0,0,,,,,0,,,83,112
38795,note_on,,,,,75,0,1,,,,,0,,,56,0
38800,note_on,,,,,5,0,1,,,,,0,,,66,112
38875,note_on,,,,,75,0,1,,,,,0,,,66,0
38880,note_on,,,,,5,0,1,,,,,0,,,46,112
38936,note_on,,,,,56,0,1,,,,,0,,,46,0
38940,note_on,,,,,4,0,1,,,,,0,,,53,112
38985,note_on,,,,,0,0,0,,,,,0,,,95,0
38985,note_on,,,,,265,0,0,,,,,0,,,83,0
38996,note_on,,,,,56,0,1,,,,,0,,,53,0
39000,note_on,,,,,15,0,0,,,,,0,,,74,112
39000,note_on,,,,,4,0,1,,,,,0,,,56,112
39000,note_on,,,,,0,0,0,,,,,0,,,86,112
39056,note_on,,,,,56,0,1,,,,,0,,,56,0
39060,note_on,,,,,4,0,1,,,,,0,,,62,112
39113,note_on,,,,,113,0,0,,,,,0,,,74,0
39113,note_on,,,,,0,0,0,,,,,0,,,86,0
39116,note_on,,,,,56,0,1,,,,,0,,,62,0
39120,note_on,,,,,4,0,1,,,,,0,,,71,127
39120,note_on,,,,,0,0,0,,,,,0,,,95,127
39120,set_tempo,,,,,7,1,0,,2000000,,,,,,,
39120,note_on,,,,,0,0,0,,,,,0,,,83,127
39199,note_on,,,,,79,0,1,,,,,0,,,71,0
39199,note_on,,,,,0,0,0,,,,,0,,,95,0
39199,note_on,,,,,79,0,0,,,,,0,,,83,0
39239,set_tempo,,,,,40,1,0,,666667,,,,,,,
39300,note_on,,,,,101,0,1,,,,,0,,,70,112
39300,note_on,,,,,0,0,0,,,,,0,,,94,112
39300,note_on,,,,,61,0,0,,,,,0,,,82,112
39356,note_on,,,,,56,0,0,,,,,0,,,82,0
39356,note_on,,,,,56,0,1,,,,,0,,,70,0
39356,note_on,,,,,0,0,0,,,,,0,,,94,0
39360,note_on,,,,,4,0,1,,,,,0,,,51,112
39360,note_on,,,,,4,0,0,,,,,0,,,75,112
39360,note_on,,,,,0,0,1,,,,,0,,,66,112
39360,note_on,,,,,0,0,0,,,,,0,,,87,112
39360,note_on,,,,,0,0,0,,,,,0,,,82,112
39438,note_on,,,,,0,0,1,,,,,0,,,66,0
39438,note_on,,,,,78,0,0,,,,,0,,,75,0
39438,note_on,,,,,0,0,0,,,,,0,,,82,0
39438,note_on,,,,,0,0,0,,,,,0,,,87,0
39438,note_on,,,,,78,0,1,,,,,0,,,51,0
39600,note_on,,,,,0,0,1,,,,,0,,,78,96
39600,note_on,,,,,162,0,1,,,,,0,,,69,96
39679,note_on,,,,,79,0,1,,,,,0,,,69,0
39679,note_on,,,,,0,0,1,,,,,0,,,78,0
39680,note_on,,,,,1,0,1,,,,,0,,,72,96
39680,note_on,,,,,0,0,1,,,,,0,,,80,96
39680,note_on,,,,,0,0,1,,,,,0,,,75,96
39759,note_on,,,,,0,0,1,,,,,0,,,80,0
39759,note_on,,,,,79,0,1,,,,,0,,,72,0
39759,note_on,,,,,0,0,1,,,,,0,,,75,0
39760,note_on,,,,,0,0,1,,,,,0,,,78,96
39760,note_on,,,,,1,0,1,,,,,0,,,69,96
39839,note_on,,,,,0,0,1,,,,,0,,,78,0
39839,note_on,,,,,79,0,1,,,,,0,,,69,0
39840,note_on,,,,,1,0,1,,,,,0,,,72,115
39840,note_on,,,,,0,0,1,,,,,0,,,77,115
39840,note_on,,,,,0,0,1,,,,,0,,,75,115
39919,note_on,,,,,0,0,1,,,,,0,,,77,0
39919,note_on,,,,,79,0,1,,,,,0,,,72,0
39919,note_on,,,,,0,0,1,,,,,0,,,75,0
39920,note_on,,,,,1,0,1,,,,,0,,,69,96
39920,note_on,,,,,0,0,1,,,,,0,,,78,96
39999,note_on,,,,,79,0,1,,,,,0,,,69,0
39999,note_on,,,,,0,0,1,,,,,0,,,78,0
40000,note_on,,,,,1,0,1,,,,,0,,,72,96
40000,note_on,,,,,0,0,1,,,,,0,,,77,96
40000,note_on,,,,,0,0,1,,,,,0,,,75,96
40079,note_on,,,,,79,0,1,,,,,0,,,72,0
40079,note_on,,,,,0,0,1,,,,,0,,,77,0
40079,note_on,,,,,0,0,1,,,,,0,,,75,0
40080,note_on,,,,,1,0,1,,,,,0,,,69,96
40080,note_on,,,,,0,0,1,,,,,0,,,78,96
40159,note_on,,,,,0,0,1,,,,,0,,,78,0
40159,note_on,,,,,79,0,1,,,,,0,,,69,0
40160,note_on,,,,,0,0,1,,,,,0,,,80,96
40160,note_on,,,,,1,0,1,,,,,0,,,72,96
40160,note_on,,,,,0,0,1,,,,,0,,,75,96
40239,note_on,,,,,79,0,1,,,,,0,,,72,0
40239,note_on,,,,,0,0,1,,,,,0,,,75,0
40239,note_on,,,,,0,0,1,,,,,0,,,80,0
40240,note_on,,,,,0,0,1,,,,,0,,,78,96
40240,note_on,,,,,1,0,1,,,,,0,,,69,96
40315,note_on,,,,,75,0,1,,,,,0,,,69,0
40315,note_on,,,,,0,0,1,,,,,0,,,78,0
40320,note_on,,,,,0,0,0,,,,,0,,,75,115
40320,note_on,,,,,0,0,0,,,,,0,,,81,115
40320,note_on,,,,,882,0,0,,,,,0,,,72,115
40479,note_on,,,,,0,0,0,,,,,0,,,75,0
40479,note_on,,,,,159,0,0,,,,,0,,,72,0
40479,note_on,,,,,0,0,0,,,,,0,,,81,0
40560,note_on,,,,,245,0,1,,,,,0,,,39,96
40560,note_on,,,,,81,0,0,,,,,0,,,54,96
40560,note_on,,,,,0,0,1,,,,,0,,,45,96
40560,note_on,,,,,0,0,1,,,,,0,,,48,96
40560,note_on,,,,,0,0,1,,,,,0,,,51,96
40635,note_on,,,,,75,0,0,,,,,0,,,54,0
40640,note_on,,,,,5,0,0,,,,,0,,,56,96
40715,note_on,,,,,75,0,0,,,,,0,,,56,0
40720,note_on,,,,,5,0,0,,,,,0,,,54,96
40787,note_on,,,,,227,0,1,,,,,0,,,39,0
40787,note_on,,,,,0,0,1,,,,,0,,,51,0
40787,note_on,,,,,0,0,1,,,,,0,,,48,0
40787,note_on,,,,,0,0,1,,,,,0,,,45,0
40795,note_on,,,,,75,0,0,,,,,0,,,54,0
40800,note_on,,,,,0,0,1,,,,,0,,,48,112
40800,note_on,,,,,5,0,0,,,,,0,,,66,112
40800,note_on,,,,,0,0,1,,,,,0,,,45,112
40800,note_on,,,,,0,0,1,,,,,0,,,51,112
40800,note_on,,,,,13,0,1,,,,,0,,,39,112
40875,note_on,,,,,75,0,0,,,,,0,,,66,0
40880,note_on,,,,,5,0,0,,,,,0,,,68,112
40955,note_on,,,,,75,0,0,,,,,0,,,68,0
40960,note_on,,,,,5,0,0,,,,,0,,,66,112
41027,note_on,,,,,0,0,1,,,,,0,,,45,0
41027,note_on,,,,,227,0,1,,,,,0,,,39,0
41027,note_on,,,,,0,0,1,,,,,0,,,48,0
41027,note_on,,,,,0,0,1,,,,,0,,,51,0
41035,note_on,,,,,75,0,0,,,,,0,,,66,0
41040,note_on,,,,,13,0,1,,,,,0,,,39,112
41040,note_on,,,,,0,0,1,,,,,0,,,51,112
41040,note_on,,,,,5,0,0,,,,,0,,,78,112
41040,note_on,,,,,0,0,1,,,,,0,,,45,112
41040,note_on,,,,,0,0,1,,,,,0,,,48,112
41115,note_on,,,,,75,0,0,,,,,0,,,78,0
41120,note_on,,,,,5,0,0,,,,,0,,,80,112
41195,note_on,,,,,75,0,0,,,,,0,,,80,0
41200,note_on,,,,,5,0,0,,,,,0,,,78,112
41267,note_on,,,,,0,0,1,,,,,0,,,48,0
41267,note_on,,,,,0,0,1,,,,,0,,,51,0
41267,note_on,,,,,0,0,1,,,,,0,,,45,0
41267,note_on,,,,,227,0,1,,,,,0,,,39,0
41275,note_on,,,,,75,0,0,,,,,0,,,78,0
41280,note_on,,,,,13,0,1,,,,,0,,,39,112
41280,note_on,,,,,0,0,1,,,,,0,,,46,112
41280,note_on,,,,,5,0,0,,,,,0,,,90,112
41280,note_on,,,,,0,0,1,,,,,0,,,51,112
41358,note_on,,,,,0,0,1,,,,,0,,,46,0
41358,note_on,,,,,0,0,1,,,,,0,,,51,0
41358,note_on,,,,,78,0,0,,,,,0,,,90,0
41358,note_on,,,,,78,0,1,,,,,0,,,39,0
41520,note_on,,,,,0,0,1,,,,,0,,,78,112
41520,note_on,,,,,162,0,1,,,,,0,,,69,112
41599,note_on,,,,,0,0,1,,,,,0,,,78,0
41599,note_on,,,,,79,0,1,,,,,0,,,69,0
41600,note_on,,,,,0,0,1,,,,,0,,,80,112
41600,note_on,,,,,1,0,1,,,,,0,,,72,112
41600,note_on,,,,,0,0,1,,,,,0,,,75,112
41679,note_on,,,,,0,0,1,,,,,0,,,75,0
41679,note_on,,,,,0,0,1,,,,,0,,,80,0
41679,note_on,,,,,79,0,1,,,,,0,,,72,0
41680,note_on,,,,,1,0,1,,,,,0,,,69,112
41680,note_on,,,,,0,0,1,,,,,0,,,78,112
41759,note_on,,,,,0,0,1,,,,,0,,,78,0
41759,note_on,,,,,79,0,1,,,,,0,,,69,0
41760,note_on,,,,,0,0,1,,,,,0,,,75,127
41760,note_on,,,,,0,0,1,,,,,0,,,77,127
41760,note_on,,,,,1,0,1,,,,,0,,,72,127
41839,note_on,,,,,79,0,1,,,,,0,,,72,0
41839,note_on,,,,,0,0,1,,,,,0,,,75,0
41839,note_on,,,,,0,0,1,,,,,0,,,77,0
41840,note_on,,,,,0,0,1,,,,,0,,,78,112
41840,note_on,,,,,1,0,1,,,,,0,,,69,112
41919,note_on,,,,,0,0,1,,,,,0,,,78,0
41919,note_on,,,,,79,0,1,,,,,0,,,69,0
41920,note_on,,,,,0,0,1,,,,,0,,,75,112
41920,note_on,,,,,0,0,1,,,,,0,,,77,112
41920,note_on,,,,,1,0,1,,,,,0,,,72,112
41999,note_on,,,,,0,0,1,,,,,0,,,77,0
41999,note_on,,,,,0,0,1,,,,,0,,,75,0
41999,note_on,,,,,79,0,1,,,,,0,,,72,0
42000,note_on,,,,,1,0,1,,,,,0,,,69,112
42000,note_on,,,,,0,0,1,,,,,0,,,78,112
42079,note_on,,,,,0,0,1,,,,,0,,,78,0
42079,note_on,,,,,79,0,1,,,,,0,,,69,0
42080,note_on,,,,,0,0,1,,,,,0,,,80,112
42080,note_on,,,,,0,0,1,,,,,0,,,75,112
42080,note_on,,,,,1,0,1,,,,,0,,,72,112
42159,note_on,,,,,79,0,1,,,,,0,,,72,0
42159,note_on,,,,,0,0,1,,,,,0,,,80,0
42159,note_on,,,,,0,0,1,,,,,0,,,75,0
42160,note_on,,,,,1,0,1,,,,,0,,,69,112
42160,note_on,,,,,0,0,1,,,,,0,,,78,112
42235,note_on,,,,,0,0,1,,,,,0,,,78,0
42235,note_on,,,,,75,0,1,,,,,0,,,69,0
42240,note_on,,,,,882,0,0,,,,,0,,,72,127
42240,note_on,,,,,0,0,0,,,,,0,,,81,127
42240,note_on,,,,,0,0,0,,,,,0,,,75,127
42399,note_on,,,,,0,0,0,,,,,0,,,81,0
42399,note_on,,,,,0,0,0,,,,,0,,,75,0
42399,note_on,,,,,159,0,0,,,,,0,,,72,0
42480,note_on,,,,,245,0,1,,,,,0,,,39,112
42480,note_on,,,,,0,0,1,,,,,0,,,45,112
42480,note_on,,,,,0,0,1,,,,,0,,,48,112
42480,note_on,,,,,0,0,1,,,,,0,,,51,112
42480,note_on,,,,,81,0,0,,,,,0,,,54,112
42555,note_on,,,,,75,0,0,,,,,0,,,54,0
42560,note_on,,,,,5,0,0,,,,,0,,,56,112
42635,note_on,,,,,75,0,0,,,,,0,,,56,0
42640,note_on,,,,,5,0,0,,,,,0,,,54,112
42707,note_on,,,,,0,0,1,,,,,0,,,51,0
42707,note_on,,,,,0,0,1,,,,,0,,,48,0
42707,note_on,,,,,227,0,1,,,,,0,,,39,0
42707,note_on,,,,,0,0,1,,,,,0,,,45,0
42715,note_on,,,,,75,0,0,,,,,0,,,54,0
42720,note_on,,,,,0,0,1,,,,,0,,,48,112
42720,note_on,,,,,0,0,1,,,,,0,,,45,112
42720,note_on,,,,,13,0,1,,,,,0,,,39,112
42720,note_on,,,,,5,0,0,,,,,0,,,66,112
42720,note_on,,,,,0,0,1,,,,,0,,,51,112
42795,note_on,,,,,75,0,0,,,,,0,,,66,0
42800,note_on,,,,,5,0,0,,,,,0,,,68,112
42875,note_on,,,,,75,0,0,,,,,0,,,68,0
42880,note_on,,,,,5,0,0,,,,,0,,,66,112
42947,note_on,,,,,0,0,1,,,,,0,,,48,0
42947,note_on,,,,,0,0,1,,,,,0,,,51,0
42947,note_on,,,,,227,0,1,,,,,0,,,39,0
42947,note_on,,,,,0,0,1,,,,,0,,,45,0
42955,note_on,,,,,75,0,0,,,,,0,,,66,0
42960,note_on,,,,,13,0,1,,,,,0,,,39,112
42960,note_on,,,,,0,0,1,,,,,0,,,45,112
42960,note_on,,,,,0,0,1,,,,,0,,,48,112
42960,note_on,,,,,0,0,1,,,,,0,,,51,112
42960,note_on,,,,,5,0,0,,,,,0,,,78,112
43035,note_on,,,,,75,0,0,,,,,0,,,78,0
43040,note_on,,,,,5,0,0,,,,,0,,,80,112
43115,note_on,,,,,75,0,0,,,,,0,,,80,0
43120,note_on,,,,,5,0,0,,,,,0,,,78,112
43187,note_on,,,,,0,0,1,,,,,0,,,51,0
43187,note_on,,,,,0,0,1,,,,,0,,,48,0
43187,note_on,,,,,0,0,1,,,,,0,,,45,0
43187,note_on,,,,,227,0,1,,,,,0,,,39,0
43195,note_on,,,,,75,0,0,,,,,0,,,78,0
43200,note_on,,,,,0,0,1,,,,,0,,,46,112
43200,note_on,,,,,13,0,1,,,,,0,,,39,112
43200,note_on,,,,,0,0,1,,,,,0,,,51,112
43200,note_on,,,,,5,0,0,,,,,0,,,90,127
43279,note_on,,,,,79,0,0,,,,,0,,,90,0
43280,note_on,,,,,1,0,0,,,,,0,,,92,112
43355,note_on,,,,,75,0,0,,,,,0,,,92,0
43360,note_on,,,,,5,0,0,,,,,0,,,90,112
43427,note_on,,,,,0,0,1,,,,,0,,,46,0
43427,note_on,,,,,0,0,1,,,,,0,,,51,0
43427,note_on,,,,,227,0,1,,,,,0,,,39,0
43435,note_on,,,,,75,0,0,,,,,0,,,90,0
43440,note_on,,,,,5,0,0,,,,,0,,,78,112
43515,note_on,,,,,75,0,0,,,,,0,,,78,0
43520,note_on,,,,,5,0,0,,,,,0,,,80,112
43595,note_on,,,,,75,0,0,,,,,0,,,80,0
43600,note_on,,,,,5,0,0,,,,,0,,,78,112
43675,note_on,,,,,75,0,0,,,,,0,,,78,0
43680,note_on,,,,,0,0,1,,,,,0,,,47,112
43680,note_on,,,,,0,0,1,,,,,0,,,49,112
43680,note_on,,,,,5,0,0,,,,,0,,,92,127
43680,note_on,,,,,253,0,1,,,,,0,,,37,112
43680,note_on,,,,,0,0,1,,,,,0,,,41,112
43759,note_on,,,,,79,0,0,,,,,0,,,92,0
43760,note_on,,,,,1,0,0,,,,,0,,,94,112
43835,note_on,,,,,75,0,0,,,,,0,,,94,0
43840,note_on,,,,,5,0,0,,,,,0,,,92,112
43907,note_on,,,,,0,0,1,,,,,0,,,41,0
43907,note_on,,,,,0,0,1,,,,,0,,,47,0
43907,note_on,,,,,0,0,1,,,,,0,,,49,0
43907,note_on,,,,,227,0,1,,,,,0,,,37,0
43915,note_on,,,,,75,0,0,,,,,0,,,92,0
43920,note_on,,,,,5,0,0,,,,,0,,,80,112
43995,note_on,,,,,75,0,0,,,,,0,,,80,0
44000,note_on,,,,,5,0,0,,,,,0,,,82,112
44075,note_on,,,,,75,0,0,,,,,0,,,82,0
44080,note_on,,,,,5,0,0,,,,,0,,,80,112
44155,note_on,,,,,75,0,0,,,,,0,,,80,0
44160,note_on,,,,,0,0,1,,,,,0,,,49,112
44160,note_on,,,,,253,0,1,,,,,0,,,42,112
44160,note_on,,,,,0,0,1,,,,,0,,,46,112
44160,note_on,,,,,5,0,0,,,,,0,,,95,112
44160,note_on,,,,,0,0,1,,,,,0,,,54,112
44235,note_on,,,,,75,0,0,,,,,0,,,95,0
44240,note_on,,,,,5,0,0,,,,,0,,,94,112
44315,note_on,,,,,75,0,0,,,,,0,,,94,0
44320,note_on,,,,,5,0,0,,,,,0,,,82,112
44387,note_on,,,,,227,0,1,,,,,0,,,42,0
44387,note_on,,,,,0,0,1,,,,,0,,,54,0
44387,note_on,,,,,0,0,1,,,,,0,,,46,0
44387,note_on,,,,,0,0,1,,,,,0,,,49,0
44395,note_on,,,,,75,0,0,,,,,0,,,82,0
44400,note_on,,,,,0,0,1,,,,,0,,,53,112
44400,note_on,,,,,0,0,1,,,,,0,,,47,112
44400,note_on,,,,,5,0,0,,,,,0,,,94,112
44400,note_on,,,,,13,0,1,,,,,0,,,44,112
44400,note_on,,,,,0,0,1,,,,,0,,,56,112
44475,note_on,,,,,75,0,0,,,,,0,,,94,0
44480,note_on,,,,,5,0,0,,,,,0,,,92,112
44555,note_on,,,,,75,0,0,,,,,0,,,92,0
44560,note_on,,,,,5,0,0,,,,,0,,,80,112
44627,note_on,,,,,0,0,1,,,,,0,,,47,0
44627,note_on,,,,,0,0,1,,,,,0,,,53,0
44627,note_on,,,,,227,0,1,,,,,0,,,44,0
44627,note_on,,,,,0,0,1,,,,,0,,,56,0
44635,note_on,,,,,75,0,0,,,,,0,,,80,0
44640,note_on,,,,,0,0,1,,,,,0,,,51,112
44640,note_on,,,,,0,0,1,,,,,0,,,54,112
44640,note_on,,,,,0,0,1,,,,,0,,,58,112
44640,note_on,,,,,13,0,1,,,,,0,,,46,112
44640,note_on,,,,,5,0,0,,,,,0,,,92,112
44715,note_on,,,,,75,0,0,,,,,0,,,92,0
44720,note_on,,,,,5,0,0,,,,,0,,,90,112
44795,note_on,,,,,75,0,0,,,,,0,,,90,0
44800,note_on,,,,,5,0,0,,,,,0,,,78,112
44867,note_on,,,,,0,0,1,,,,,0,,,51,0
44867,note_on,,,,,227,0,1,,,,,0,,,46,0
44867,note_on,,,,,0,0,1,,,,,0,,,54,0
44867,note_on,,,,,0,0,1,,,,,0,,,58,0
44875,note_on,,,,,75,0,0,,,,,0,,,78,0
44880,note_on,,,,,0,0,1,,,,,0,,,50,112
44880,note_on,,,,,0,0,1,,,,,0,,,56,112
44880,note_on,,,,,0,0,1,,,,,0,,,58,112
44880,note_on,,,,,13,0,1,,,,,0,,,46,112
44880,note_on,,,,,5,0,0,,,,,0,,,90,112
44955,note_on,,,,,75,0,0,,,,,0,,,90,0
44960,note_on,,,,,5,0,0,,,,,0,,,89,112
45035,note_on,,,,,75,0,0,,,,,0,,,89,0
45040,note_on,,,,,5,0,0,,,,,0,,,77,112
45107,note_on,,,,,0,0,1,,,,,0,,,50,0
45107,note_on,,,,,0,0,1,,,,,0,,,56,0
45107,note_on,,,,,0,0,1,,,,,0,,,58,0
45107,note_on,,,,,227,0,1,,,,,0,,,46,0
45115,note_on,,,,,75,0,0,,,,,0,,,77,0
45120,note_on,,,,,0,0,1,,,,,0,,,63,112
45120,note_on,,,,,0,0,0,,,,,0,,,87,112
45120,note_on,,,,,5,0,0,,,,,0,,,75,112
45120,note_on,,,,,0,0,1,,,,,0,,,54,112
45120,note_on,,,,,13,0,1,,,,,0,,,51,112
45198,note_on,,,,,0,0,1,,,,,0,,,54,0
45198,note_on,,,,,0,0,1,,,,,0,,,63,0
45198,note_on,,,,,0,0,0,,,,,0,,,87,0
45198,note_on,,,,,78,0,0,,,,,0,,,75,0
45198,note_on,,,,,78,0,1,,,,,0,,,51,0
45360,note_on,,,,,0,0,1,,,,,0,,,66,112
45360,note_on,,,,,162,0,1,,,,,0,,,57,112
45439,note_on,,,,,0,0,1,,,,,0,,,66,0
45439,note_on,,,,,79,0,1,,,,,0,,,57,0
45440,note_on,,,,,0,0,1,,,,,0,,,68,112
45440,note_on,,,,,0,0,1,,,,,0,,,63,112
45440,note_on,,,,,1,0,1,,,,,0,,,60,112
45519,note_on,,,,,0,0,1,,,,,0,,,68,0
45519,note_on,,,,,0,0,1,,,,,0,,,63,0
45519,note_on,,,,,79,0,1,,,,,0,,,60,0
45520,note_on,,,,,0,0,1,,,,,0,,,66,112
45520,note_on,,,,,1,0,1,,,,,0,,,57,112
45599,note_on,,,,,79,0,1,,,,,0,,,57,0
45599,note_on,,,,,0,0,1,,,,,0,,,66,0
45600,note_on,,,,,0,0,1,,,,,0,,,63,127
45600,note_on,,,,,0,0,1,,,,,0,,,65,127
45600,note_on,,,,,1,0,1,,,,,0,,,60,127
45679,note_on,,,,,0,0,1,,,,,0,,,63,0
45679,note_on,,,,,0,0,1,,,,,0,,,65,0
45679,note_on,,,,,79,0,1,,,,,0,,,60,0
45680,note_on,,,,,1,0,1,,,,,0,,,57,112
45680,note_on,,,,,0,0,1,,,,,0,,,66,112
45759,note_on,,,,,0,0,1,,,,,0,,,66,0
45759,note_on,,,,,79,0,1,,,,,0,,,57,0
45760,note_on,,,,,1,0,1,,,,,0,,,60,112
45760,note_on,,,,,0,0,1,,,,,0,,,63,112
45760,note_on,,,,,0,0,1,,,,,0,,,65,112
45839,note_on,,,,,0,0,1,,,,,0,,,63,0
45839,note_on,,,,,0,0,1,,,,,0,,,65,0
45839,note_on,,,,,79,0,1,,,,,0,,,60,0
45840,note_on,,,,,0,0,1,,,,,0,,,66,112
45840,note_on,,,,,1,0,1,,,,,0,,,57,112
45919,note_on,,,,,0,0,1,,,,,0,,,66,0
45919,note_on,,,,,79,0,1,,,,,0,,,57,0
45920,note_on,,,,,0,0,1,,,,,0,,,68,112
45920,note_on,,,,,1,0,1,,,,,0,,,60,112
45920,note_on,,,,,0,0,1,,,,,0,,,63,112
45999,note_on,,,,,79,0,1,,,,,0,,,60,0
45999,note_on,,,,,0,0,1,,,,,0,,,68,0
45999,note_on,,,,,0,0,1,,,,,0,,,63,0
46000,note_on,,,,,1,0,1,,,,,0,,,57,112
46000,note_on,,,,,0,0,1,,,,,0,,,66,112
46075,note_on,,,,,0,0,1,,,,,0,,,66,0
46075,note_on,,,,,75,0,1,,,,,0,,,57,0
46080,note_on,,,,,0,0,0,,,,,0,,,69,127
46080,note_on,,,,,0,0,0,,,,,0,,,63,127
46080,note_on,,,,,882,0,0,,,,,0,,,60,127
46239,note_on,,,,,159,0,0,,,,,0,,,60,0
46239,note_on,,,,,0,0,0,,,,,0,,,63,0
46239,note_on,,,,,0,0,0,,,,,0,,,69,0
46320,note_on,,,,,0,0,1,,,,,0,,,48,112
46320,note_on,,,,,245,0,1,,,,,0,,,39,112
46320,note_on,,,,,81,0,0,,,,,0,,,63,112
46320,note_on,,,,,0,0,1,,,,,0,,,42,112
46320,note_on,,,,,0,0,1,,,,,0,,,45,112
46320,note_on,,,,,0,0,1,,,,,0,,,51,112
46395,note_on,,,,,75,0,0,,,,,0,,,63,0
46400,note_on,,,,,5,0,0,,,,,0,,,65,112
46475,note_on,,,,,75,0,0,,,,,0,,,65,0
46480,note_on,,,,,5,0,0,,,,,0,,,63,112
46547,note_on,,,,,0,0,1,,,,,0,,,45,0
46547,note_on,,,,,0,0,1,,,,,0,,,48,0
46547,note_on,,,,,227,0,1,,,,,0,,,39,0
46547,note_on,,,,,0,0,1,,,,,0,,,51,0
46547,note_on,,,,,0,0,1,,,,,0,,,42,0
46555,note_on,,,,,75,0,0,,,,,0,,,63,0
46560,note_on,,,,,13,0,1,,,,,0,,,39,112
46560,note_on,,,,,0,0,1,,,,,0,,,48,112
46560,note_on,,,,,0,0,1,,,,,0,,,42,112
46560,note_on,,,,,0,0,1,,,,,0,,,45,112
46560,note_on,,,,,5,0,0,,,,,0,,,75,112
46560,note_on,,,,,0,0,1,,,,,0,,,51,112
46635,note_on,,,,,75,0,0,,,,,0,,,75,0
46640,note_on,,,,,5,0,0,,,,,0,,,77,112
46715,note_on,,,,,75,0,0,,,,,0,,,77,0
46720,note_on,,,,,5,0,0,,,,,0,,,75,112
46787,note_on,,,,,0,0,1,,,,,0,,,42,0
46787,note_on,,,,,227,0,1,,,,,0,,,39,0
46787,note_on,,,,,0,0,1,,,,,0,,,51,0
46787,note_on,,,,,0,0,1,,,,,0,,,48,0
46787,note_on,,,,,0,0,1,,,,,0,,,45,0
46795,note_on,,,,,75,0,0,,,,,0,,,75,0
46800,note_on,,,,,5,0,0,,,,,0,,,87,112
46800,note_on,,,,,13,0,1,,,,,0,,,39,112
46800,note_on,,,,,0,0,1,,,,,0,,,48,112
46800,note_on,,,,,0,0,1,,,,,0,,,42,112
46800,note_on,,,,,0,0,1,,,,,0,,,45,112
46800,note_on,,,,,0,0,1,,,,,0,,,51,112
46875,note_on,,,,,75,0,0,,,,,0,,,87,0
46880,note_on,,,,,5,0,0,,,,,0,,,89,112
46955,note_on,,,,,75,0,0,,,,,0,,,89,0
46960,note_on,,,,,5,0,0,,,,,0,,,87,112
47027,note_on,,,,,0,0,1,,,,,0,,,42,0
47027,note_on,,,,,227,0,1,,,,,0,,,39,0
47027,note_on,,,,,0,0,1,,,,,0,,,51,0
47027,note_on,,,,,0,0,1,,,,,0,,,45,0
47027,note_on,,,,,0,0,1,,,,,0,,,48,0
47035,note_on,,,,,75,0,0,,,,,0,,,87,0
47040,note_on,,,,,5,0,0,,,,,0,,,90,112
47040,note_on,,,,,13,0,1,,,,,0,,,39,112
47040,note_on,,,,,0,0,1,,,,,0,,,42,112
47040,note_on,,,,,0,0,1,,,,,0,,,46,112
47040,note_on,,,,,0,0,1,,,,,0,,,51,112
47118,note_on,,,,,78,0,0,,,,,0,,,90,0
47118,note_on,,,,,0,0,1,,,,,0,,,46,0
47118,note_on,,,,,0,0,1,,,,,0,,,42,0
47118,note_on,,,,,0,0,1,,,,,0,,,51,0
47118,note_on,,,,,78,0,1,,,,,0,,,39,0
47280,note_on,,,,,0,0,1,,,,,0,,,66,112
47280,note_on,,,,,162,0,1,,,,,0,,,57,112
47359,note_on,,,,,79,0,1,,,,,0,,,57,0
47359,note_on,,,,,0,0,1,,,,,0,,,66,0
47360,note_on,,,,,1,0,1,,,,,0,,,60,112
47360,note_on,,,,,0,0,1,,,,,0,,,63,112
47360,note_on,,,,,0,0,1,,,,,0,,,68,112
47439,note_on,,,,,0,0,1,,,,,0,,,63,0
47439,note_on,,,,,0,0,1,,,,,0,,,68,0
47439,note_on,,,,,79,0,1,,,,,0,,,60,0
47440,note_on,,,,,0,0,1,,,,,0,,,66,112
47440,note_on,,,,,1,0,1,,,,,0,,,57,112
47519,note_on,,,,,79,0,1,,,,,0,,,57,0
47519,note_on,,,,,0,0,1,,,,,0,,,66,0
47520,note_on,,,,,1,0,1,,,,,0,,,60,127
47520,note_on,,,,,0,0,1,,,,,0,,,65,127
47520,note_on,,,,,0,0,1,,,,,0,,,63,127
47599,note_on,,,,,79,0,1,,,,,0,,,60,0
47599,note_on,,,,,0,0,1,,,,,0,,,63,0
47599,note_on,,,,,0,0,1,,,,,0,,,65,0
47600,note_on,,,,,0,0,1,,,,,0,,,66,112
47600,note_on,,,,,1,0,1,,,,,0,,,57,112
47679,note_on,,,,,79,0,1,,,,,0,,,57,0
47679,note_on,,,,,0,0,1,,,,,0,,,66,0
47680,note_on,,,,,0,0,1,,,,,0,,,63,112
47680,note_on,,,,,0,0,1,,,,,0,,,65,112
47680,note_on,,,,,1,0,1,,,,,0,,,60,112
47759,note_on,,,,,0,0,1,,,,,0,,,63,0
47759,note_on,,,,,0,0,1,,,,,0,,,65,0
47759,note_on,,,,,79,0,1,,,,,0,,,60,0
47760,note_on,,,,,0,0,1,,,,,0,,,66,112
47760,note_on,,,,,1,0,1,,,,,0,,,57,112
47839,note_on,,,,,79,0,1,,,,,0,,,57,0
47839,note_on,,,,,0,0,1,,,,,0,,,66,0
47840,note_on,,,,,1,0,1,,,,,0,,,60,112
47840,note_on,,,,,0,0,1,,,,,0,,,68,112
47840,note_on,,,,,0,0,1,,,,,0,,,63,112
47919,note_on,,,,,0,0,1,,,,,0,,,68,0
47919,note_on,,,,,79,0,1,,,,,0,,,60,0
47919,note_on,,,,,0,0,1,,,,,0,,,63,0
47920,note_on,,,,,1,0,1,,,,,0,,,57,112
47920,note_on,,,,,0,0,1,,,,,0,,,66,112
47995,note_on,,,,,75,0,1,,,,,0,,,57,0
47995,note_on,,,,,0,0,1,,,,,0,,,66,0
48000,note_on,,,,,0,0,0,,,,,0,,,63,127
48000,note_on,,,,,0,0,0,,,,,0,,,69,127
48000,note_on,,,,,882,0,0,,,,,0,,,60,127
48159,note_on,,,,,159,0,0,,,,,0,,,60,0
48159,note_on,,,,,0,0,0,,,,,0,,,63,0
48159,note_on,,,,,0,0,0,,,,,0,,,69,0
48240,note_on,,,,,245,0,1,,,,,0,,,39,112
48240,note_on,,,,,0,0,1,,,,,0,,,45,112
48240,note_on,,,,,0,0,1,,,,,0,,,48,112
48240,note_on,,,,,0,0,1,,,,,0,,,51,112
48240,note_on,,,,,81,0,0,,,,,0,,,63,112
48315,note_on,,,,,75,0,0,,,,,0,,,63,0
48320,note_on,,,,,5,0,0,,,,,0,,,65,112
48395,note_on,,,,,75,0,0,,,,,0,,,65,0
48400,note_on,,,,,5,0,0,,,,,0,,,63,112
48467,note_on,,,,,0,0,1,,,,,0,,,45,0
48467,note_on,,,,,0,0,1,,,,,0,,,51,0
48467,note_on,,,,,0,0,1,,,,,0,,,48,0
48467,note_on,,,,,227,0,1,,,,,0,,,39,0
48475,note_on,,,,,75,0,0,,,,,0,,,63,0
48480,note_on,,,,,5,0,0,,,,,0,,,75,112
48480,note_on,,,,,13,0,1,,,,,0,,,39,112
48480,note_on,,,,,0,0,1,,,,,0,,,45,112
48480,note_on,,,,,0,0,1,,,,,0,,,51,112
48480,note_on,,,,,0,0,1,,,,,0,,,48,112
48555,note_on,,,,,75,0,0,,,,,0,,,75,0
48560,note_on,,,,,5,0,0,,,,,0,,,77,112
48635,note_on,,,,,75,0,0,,,,,0,,,77,0
48640,note_on,,,,,5,0,0,,,,,0,,,75,112
48707,note_on,,,,,0,0,1,,,,,0,,,51,0
48707,note_on,,,,,227,0,1,,,,,0,,,39,0
48707,note_on,,,,,0,0,1,,,,,0,,,48,0
48707,note_on,,,,,0,0,1,,,,,0,,,45,0
48715,note_on,,,,,75,0,0,,,,,0,,,75,0
48720,note_on,,,,,0,0,1,,,,,0,,,51,112
48720,note_on,,,,,0,0,1,,,,,0,,,48,112
48720,note_on,,,,,13,0,1,,,,,0,,,39,112
48720,note_on,,,,,5,0,0,,,,,0,,,87,112
48720,note_on,,,,,0,0,1,,,,,0,,,45,112
48795,note_on,,,,,75,0,0,,,,,0,,,87,0
48800,note_on,,,,,5,0,0,,,,,0,,,89,112
48875,note_on,,,,,75,0,0,,,,,0,,,89,0
48880,note_on,,,,,5,0,0,,,,,0,,,87,112
48947,note_on,,,,,0,0,1,,,,,0,,,48,0
48947,note_on,,,,,227,0,1,,,,,0,,,39,0
48947,note_on,,,,,0,0,1,,,,,0,,,45,0
48947,note_on,,,,,0,0,1,,,,,0,,,51,0
48955,note_on,,,,,75,0,0,,,,,0,,,87,0
48960,note_on,,,,,13,0,1,,,,,0,,,39,112
48960,note_on,,,,,0,0,1,,,,,0,,,42,112
48960,note_on,,,,,0,0,1,,,,,0,,,46,112
48960,note_on,,,,,5,0,0,,,,,0,,,99,127
48960,note_on,,,,,0,0,1,,,,,0,,,51,112
49039,note_on,,,,,79,0,0,,,,,0,,,99,0
49040,note_on,,,,,1,0,0,,,,,0,,,101,112
49115,note_on,,,,,75,0,0,,,,,0,,,101,0
49120,note_on,,,,,5,0,0,,,,,0,,,99,112
49187,note_on,,,,,0,0,1,,,,,0,,,42,0
49187,note_on,,,,,0,0,1,,,,,0,,,51,0
49187,note_on,,,,,227,0,1,,,,,0,,,39,0
49187,note_on,,,,,0,0,1,,,,,0,,,46,0
49195,note_on,,,,,75,0,0,,,,,0,,,99,0
49200,note_on,,,,,5,0,0,,,,,0,,,87,112
49275,note_on,,,,,75,0,0,,,,,0,,,87,0
49280,note_on,,,,,5,0,0,,,,,0,,,89,112
49355,note_on,,,,,75,0,0,,,,,0,,,89,0
49360,note_on,,,,,5,0,0,,,,,0,,,87,112
49435,note_on,,,,,75,0,0,,,,,0,,,87,0
49440,note_on,,,,,5,0,0,,,,,0,,,97,127
49440,note_on,,,,,253,0,1,,,,,0,,,41,112
49440,note_on,,,,,0,0,1,,,,,0,,,53,112
49440,note_on,,,,,0,0,1,,,,,0,,,44,112
49440,note_on,,,,,0,0,1,,,,,0,,,49,112
49519,note_on,,,,,79,0,0,,,,,0,,,97,0
49520,note_on,,,,,1,0,0,,,,,0,,,99,112
49595,note_on,,,,,75,0,0,,,,,0,,,99,0
49600,note_on,,,,,5,0,0,,,,,0,,,97,112
49667,note_on,,,,,0,0,1,,,,,0,,,49,0
49667,note_on,,,,,227,0,1,,,,,0,,,41,0
49667,note_on,,,,,0,0,1,,,,,0,,,44,0
49667,note_on,,,,,0,0,1,,,,,0,,,53,0
49675,note_on,,,,,75,0,0,,,,,0,,,97,0
49680,note_on,,,,,5,0,0,,,,,0,,,85,112
49755,note_on,,,,,75,0,0,,,,,0,,,85,0
49760,note_on,,,,,5,0,0,,,,,0,,,87,112
49835,note_on,,,,,75,0,0,,,,,0,,,87,0
49840,note_on,,,,,5,0,0,,,,,0,,,85,112
49915,note_on,,,,,75,0,0,,,,,0,,,85,0
49920,note_on,,,,,5,0,0,,,,,0,,,95,112
49920,note_on,,,,,0,0,1,,,,,0,,,46,112
49920,note_on,,,,,0,0,1,,,,,0,,,54,112
49920,note_on,,,,,0,0,1,,,,,0,,,49,112
49920,note_on,,,,,253,0,1,,,,,0,,,42,112
49995,note_on,,,,,75,0,0,,,,,0,,,95,0
50000,note_on,,,,,5,0,0,,,,,0,,,94,112
50075,note_on,,,,,75,0,0,,,,,0,,,94,0
50080,note_on,,,,,5,0,0,,,,,0,,,82,112
50147,note_on,,,,,0,0,1,,,,,0,,,54,0
50147,note_on,,,,,227,0,1,,,,,0,,,42,0
50147,note_on,,,,,0,0,1,,,,,0,,,49,0
50147,note_on,,,,,0,0,1,,,,,0,,,46,0
50155,note_on,,,,,75,0,0,,,,,0,,,82,0
50160,note_on,,,,,13,0,1,,,,,0,,,44,112
50160,note_on,,,,,5,0,0,,,,,0,,,94,112
50160,note_on,,,,,0,0,1,,,,,0,,,53,112
50160,note_on,,,,,0,0,1,,,,,0,,,47,112
50160,note_on,,,,,0,0,1,,,,,0,,,56,112
50235,note_on,,,,,75,0,0,,,,,0,,,94,0
50240,note_on,,,,,5,0,0,,,,,0,,,92,112
50315,note_on,,,,,75,0,0,,,,,0,,,92,0
50320,note_on,,,,,5,0,0,,,,,0,,,80,112
50387,note_on,,,,,227,0,1,,,,,0,,,44,0
50387,note_on,,,,,0,0,1,,,,,0,,,56,0
50387,note_on,,,,,0,0,1,,,,,0,,,53,0
50387,note_on,,,,,0,0,1,,,,,0,,,47,0
50395,note_on,,,,,75,0,0,,,,,0,,,80,0
50400,note_on,,,,,13,0,1,,,,,0,,,46,112
50400,note_on,,,,,0,0,1,,,,,0,,,58,112
50400,note_on,,,,,5,0,0,,,,,0,,,92,112
50400,note_on,,,,,0,0,1,,,,,0,,,54,112
50400,note_on,,,,,0,0,1,,,,,0,,,51,112
50475,note_on,,,,,75,0,0,,,,,0,,,92,0
50480,note_on,,,,,5,0,0,,,,,0,,,90,112
50555,note_on,,,,,75,0,0,,,,,0,,,90,0
50560,note_on,,,,,5,0,0,,,,,0,,,78,112
50627,note_on,,,,,0,0,1,,,,,0,,,58,0
50627,note_on,,,,,0,0,1,,,,,0,,,54,0
50627,note_on,,,,,0,0,1,,,,,0,,,51,0
50627,note_on,,,,,227,0,1,,,,,0,,,46,0
50635,note_on,,,,,75,0,0,,,,,0,,,78,0
50640,note_on,,,,,5,0,0,,,,,0,,,90,112
50640,note_on,,,,,0,0,1,,,,,0,,,50,112
50640,note_on,,,,,0,0,1,,,,,0,,,58,112
50640,note_on,,,,,13,0,1,,,,,0,,,46,112
50640,note_on,,,,,0,0,1,,,,,0,,,56,112
50715,note_on,,,,,75,0,0,,,,,0,,,90,0
50720,note_on,,,,,5,0,0,,,,,0,,,89,112
50795,note_on,,,,,75,0,0,,,,,0,,,89,0
50800,note_on,,,,,5,0,0,,,,,0,,,77,112
50867,note_on,,,,,0,0,1,,,,,0,,,56,0
50867,note_on,,,,,0,0,1,,,,,0,,,58,0
50867,note_on,,,,,0,0,1,,,,,0,,,50,0
50867,note_on,,,,,227,0,1,,,,,0,,,46,0
50875,note_on,,,,,75,0,0,,,,,0,,,77,0
50880,note_on,,,,,13,0,1,,,,,0,,,51,112
50880,set_tempo,,,,,5,1,0,,1333333,,,,,,,
50880,note_on,,,,,0,0,1,,,,,0,,,39,112
50880,note_on,,,,,0,0,0,,,,,0,,,63,112
50880,note_on,,,,,0,0,0,,,,,0,,,63,127
50943,note_on,,,,,63,0,1,,,,,0,,,42,112
50959,set_tempo,,,,,79,1,0,,666667,,,,,,,
50959,note_on,,,,,0,0,0,,,,,0,,,63,0
50960,note_on,,,,,1,0,0,,,,,0,,,66,112
50960,note_on,,,,,0,0,0,,,,,0,,,75,112
51007,note_on,,,,,64,0,1,,,,,0,,,46,112
51035,note_on,,,,,75,0,0,,,,,0,,,66,0
51035,note_on,,,,,0,0,0,,,,,0,,,75,0
51040,note_on,,,,,5,0,0,,,,,0,,,70,112
51115,note_on,,,,,75,0,0,,,,,0,,,70,0
51118,note_on,,,,,111,0,1,,,,,0,,,42,0
51118,note_on,,,,,0,0,1,,,,,0,,,46,0
51119,note_on,,,,,1,0,1,,,,,0,,,39,0
51120,note_on,,,,,5,0,0,,,,,0,,,75,112
51195,note_on,,,,,75,0,0,,,,,0,,,75,0
51200,note_on,,,,,0,0,0,,,,,0,,,87,112
51200,note_on,,,,,5,0,0,,,,,0,,,78,112
51275,note_on,,,,,75,0,0,,,,,0,,,78,0
51275,note_on,,,,,0,0,0,,,,,0,,,87,0
51280,note_on,,,,,5,0,0,,,,,0,,,82,112
51335,note_on,,,,,216,0,1,,,,,0,,,51,0
51335,note_on,,,,,55,0,0,,,,,0,,,63,0
51355,note_on,,,,,20,0,0,,,,,0,,,82,0
51360,note_on,,,,,5,0,0,,,,,0,,,87,112
51360,note_on,,,,,25,0,1,,,,,0,,,51,112
51360,note_on,,,,,0,0,0,,,,,0,,,75,112
51435,note_on,,,,,75,0,0,,,,,0,,,87,0
51440,note_on,,,,,5,0,0,,,,,0,,,90,112
51440,note_on,,,,,0,0,0,,,,,0,,,99,112
51515,note_on,,,,,75,0,0,,,,,0,,,90,0
51515,note_on,,,,,0,0,0,,,,,0,,,99,0
51520,note_on,,,,,5,0,0,,,,,0,,,94,112
51587,note_on,,,,,67,0,0,,,,,0,,,75,0
51587,note_on,,,,,227,0,1,,,,,0,,,51,0
51595,note_on,,,,,8,0,0,,,,,0,,,94,0
51720,note_on,,,,,133,0,1,,,,,0,,,51,112
51720,note_on,,,,,125,0,0,,,,,0,,,63,112
51833,note_on,,,,,113,0,1,,,,,0,,,51,0
51833,note_on,,,,,113,0,0,,,,,0,,,63,0
51840,note_on,,,,,0,0,1,,,,,0,,,39,112
51840,note_on,,,,,7,0,1,,,,,0,,,50,127
51840,note_on,,,,,7,0,0,,,,,0,,,62,112
51840,note_on,,,,,0,0,0,,,,,0,,,62,112
51882,note_on,,,,,42,0,1,,,,,0,,,41,112
51915,note_on,,,,,75,0,0,,,,,0,,,62,0
51920,note_on,,,,,5,0,0,,,,,0,,,65,112
51920,note_on,,,,,0,0,0,,,,,0,,,74,112
51924,note_on,,,,,42,0,1,,,,,0,,,44,112
51966,note_on,,,,,42,0,1,,,,,0,,,47,112
51995,note_on,,,,,0,0,0,,,,,0,,,74,0
51995,note_on,,,,,75,0,0,,,,,0,,,65,0
52000,note_on,,,,,5,0,0,,,,,0,,,68,112
52075,note_on,,,,,75,0,0,,,,,0,,,68,0
52079,note_on,,,,,0,0,1,,,,,0,,,41,0
52079,note_on,,,,,0,0,1,,,,,0,,,47,0
52079,note_on,,,,,113,0,1,,,,,0,,,39,0
52079,note_on,,,,,0,0,1,,,,,0,,,44,0
52080,note_on,,,,,5,0,0,,,,,0,,,74,112
52155,note_on,,,,,75,0,0,,,,,0,,,74,0
52160,note_on,,,,,0,0,0,,,,,0,,,86,112
52160,note_on,,,,,5,0,0,,,,,0,,,77,112
52235,note_on,,,,,0,0,0,,,,,0,,,86,0
52235,note_on,,,,,75,0,0,,,,,0,,,77,0
52240,note_on,,,,,5,0,0,,,,,0,,,80,112
52315,note_on,,,,,75,0,0,,,,,0,,,80,0
52320,note_on,,,,,5,0,0,,,,,0,,,86,112
52395,note_on,,,,,75,0,0,,,,,0,,,86,0
52400,note_on,,,,,5,0,0,,,,,0,,,89,112
52400,note_on,,,,,0,0,0,,,,,0,,,98,112
52475,note_on,,,,,75,0,0,,,,,0,,,89,0
52475,note_on,,,,,0,0,0,,,,,0,,,98,0
52480,note_on,,,,,5,0,0,,,,,0,,,92,112
52523,note_on,,,,,43,0,0,,,,,0,,,62,0
52555,note_on,,,,,32,0,0,,,,,0,,,92,0
52559,note_on,,,,,480,0,1,,,,,0,,,50,0
52560,note_on,,,,,0,0,1,,,,,0,,,62,112
52560,note_on,,,,,1,0,1,,,,,0,,,50,112
52787,note_on,,,,,227,0,1,,,,,0,,,50,0
52787,note_on,,,,,0,0,1,,,,,0,,,62,0
52800,note_on,,,,,0,0,0,,,,,0,,,61,112
52800,note_on,,,,,13,0,1,,,,,0,,,49,112
52800,note_on,,,,,245,0,0,,,,,0,,,61,112
52800,note_on,,,,,0,0,1,,,,,0,,,39,112
52863,note_on,,,,,63,0,1,,,,,0,,,43,112
52875,note_on,,,,,75,0,0,,,,,0,,,61,0
52880,note_on,,,,,5,0,0,,,,,0,,,64,112
52880,note_on,,,,,0,0,0,,,,,0,,,73,112
52927,note_on,,,,,64,0,1,,,,,0,,,46,112
52955,note_on,,,,,0,0,0,,,,,0,,,73,0
52955,note_on,,,,,75,0,0,,,,,0,,,64,0
52960,note_on,,,,,5,0,0,,,,,0,,,67,112
53027,note_on,,,,,100,0,1,,,,,0,,,49,0
53027,note_on,,,,,67,0,0,,,,,0,,,61,0
53035,note_on,,,,,8,0,0,,,,,0,,,67,0
53038,note_on,,,,,11,0,1,,,,,0,,,43,0
53038,note_on,,,,,0,0,1,,,,,0,,,46,0
53039,note_on,,,,,1,0,1,,,,,0,,,39,0
53040,note_on,,,,,0,0,1,,,,,0,,,61,112
53040,note_on,,,,,5,0,0,,,,,0,,,73,112
53040,note_on,,,,,1,0,1,,,,,0,,,49,112
53115,note_on,,,,,75,0,0,,,,,0,,,73,0
53120,note_on,,,,,5,0,0,,,,,0,,,76,112
53120,note_on,,,,,0,0,0,,,,,0,,,85,112
53195,note_on,,,,,0,0,0,,,,,0,,,85,0
53195,note_on,,,,,75,0,0,,,,,0,,,76,0
53200,note_on,,,,,5,0,0,,,,,0,,,79,112
53267,note_on,,,,,0,0,1,,,,,0,,,61,0
53267,note_on,,,,,227,0,1,,,,,0,,,49,0
53275,note_on,,,,,75,0,0,,,,,0,,,79,0
53280,note_on,,,,,13,0,1,,,,,0,,,51,112
53280,note_on,,,,,5,0,0,,,,,0,,,85,112
53280,note_on,,,,,0,0,1,,,,,0,,,63,112
53355,note_on,,,,,75,0,0,,,,,0,,,85,0
53360,note_on,,,,,5,0,0,,,,,0,,,88,112
53360,note_on,,,,,0,0,0,,,,,0,,,97,112
53435,note_on,,,,,75,0,0,,,,,0,,,88,0
53435,note_on,,,,,0,0,0,,,,,0,,,97,0
53440,note_on,,,,,5,0,0,,,,,0,,,91,112
53507,note_on,,,,,227,0,1,,,,,0,,,51,0
53507,note_on,,,,,0,0,1,,,,,0,,,63,0
53515,note_on,,,,,75,0,0,,,,,0,,,91,0
53520,note_on,,,,,0,0,1,,,,,0,,,64,112
53520,note_on,,,,,13,0,1,,,,,0,,,52,112
53747,note_on,,,,,0,0,1,,,,,0,,,64,0
53747,note_on,,,,,227,0,1,,,,,0,,,52,0
53760,note_on,,,,,0,0,1,,,,,0,,,39,112
53760,note_on,,,,,0,0,1,,,,,0,,,54,112
53760,note_on,,,,,13,0,1,,,,,0,,,66,127
53760,note_on,,,,,245,0,0,,,,,0,,,60,112
53823,note_on,,,,,63,0,1,,,,,0,,,45,112
53835,note_on,,,,,75,0,0,,,,,0,,,60,0
53840,note_on,,,,,5,0,0,,,,,0,,,72,112
53887,note_on,,,,,64,0,1,,,,,0,,,48,112
53915,note_on,,,,,75,0,0,,,,,0,,,72,0
53920,note_on,,,,,5,0,0,,,,,0,,,63,112
53995,note_on,,,,,75,0,0,,,,,0,,,63,0
53998,note_on,,,,,111,0,1,,,,,0,,,45,0
53998,note_on,,,,,0,0,1,,,,,0,,,48,0
53999,note_on,,,,,1,0,1,,,,,0,,,39,0
54000,note_on,,,,,1,0,1,,,,,0,,,66,0
54000,note_on,,,,,5,0,0,,,,,0,,,72,112
54075,note_on,,,,,75,0,0,,,,,0,,,72,0
54080,note_on,,,,,5,0,0,,,,,0,,,75,112
54080,note_on,,,,,0,0,0,,,,,0,,,84,112
54101,note_on,,,,,101,0,1,,,,,0,,,54,0
54120,note_on,,,,,0,0,1,,,,,0,,,63,112
54120,note_on,,,,,19,0,1,,,,,0,,,51,112
54155,note_on,,,,,75,0,0,,,,,0,,,75,0
54155,note_on,,,,,0,0,0,,,,,0,,,84,0
54160,note_on,,,,,5,0,0,,,,,0,,,78,112
54233,note_on,,,,,0,0,1,,,,,0,,,63,0
54233,note_on,,,,,113,0,1,,,,,0,,,51,0
54235,note_on,,,,,75,0,0,,,,,0,,,78,0
54240,note_on,,,,,0,0,1,,,,,0,,,60,112
54240,note_on,,,,,5,0,0,,,,,0,,,84,112
54240,note_on,,,,,7,0,1,,,,,0,,,48,112
54315,note_on,,,,,75,0,0,,,,,0,,,84,0
54320,note_on,,,,,0,0,0,,,,,0,,,96,112
54320,note_on,,,,,5,0,0,,,,,0,,,87,112
54395,note_on,,,,,0,0,0,,,,,0,,,96,0
54395,note_on,,,,,75,0,0,,,,,0,,,87,0
54400,note_on,,,,,5,0,0,,,,,0,,,90,112
54475,note_on,,,,,75,0,0,,,,,0,,,90,0
54695,note_on,,,,,0,0,1,,,,,0,,,60,0
54695,note_on,,,,,455,0,1,,,,,0,,,48,0
54720,note_on,,,,,0,0,0,,,,,0,,,59,112
54720,note_on,,,,,25,0,1,,,,,0,,,47,112
54720,note_on,,,,,0,0,1,,,,,0,,,38,112
54720,note_on,,,,,245,0,0,,,,,0,,,59,112
54783,note_on,,,,,63,0,1,,,,,0,,,41,112
54795,note_on,,,,,75,0,0,,,,,0,,,59,0
54800,note_on,,,,,0,0,0,,,,,0,,,71,112
54800,note_on,,,,,5,0,0,,,,,0,,,62,112
54847,note_on,,,,,64,0,1,,,,,0,,,44,112
54875,note_on,,,,,0,0,0,,,,,0,,,71,0
54875,note_on,,,,,75,0,0,,,,,0,,,62,0
54880,note_on,,,,,5,0,0,,,,,0,,,65,112
54955,note_on,,,,,75,0,0,,,,,0,,,65,0
54958,note_on,,,,,0,0,1,,,,,0,,,44,0
54958,note_on,,,,,111,0,1,,,,,0,,,41,0
54959,note_on,,,,,1,0,1,,,,,0,,,38,0
54960,note_on,,,,,5,0,0,,,,,0,,,71,112
55035,note_on,,,,,75,0,0,,,,,0,,,71,0
55040,note_on,,,,,5,0,0,,,,,0,,,74,112
55040,note_on,,,,,0,0,0,,,,,0,,,83,112
55115,note_on,,,,,75,0,0,,,,,0,,,74,0
55115,note_on,,,,,0,0,0,,,,,0,,,83,0
55120,note_on,,,,,5,0,0,,,,,0,,,77,112
55175,note_on,,,,,216,0,1,,,,,0,,,47,0
55175,note_on,,,,,55,0,0,,,,,0,,,59,0
55195,note_on,,,,,20,0,0,,,,,0,,,77,0
55200,note_on,,,,,0,0,0,,,,,0,,,71,112
55200,note_on,,,,,25,0,1,,,,,0,,,47,112
55200,note_on,,,,,5,0,0,,,,,0,,,83,112
55275,note_on,,,,,75,0,0,,,,,0,,,83,0
55280,note_on,,,,,5,0,0,,,,,0,,,86,112
55280,note_on,,,,,0,0,0,,,,,0,,,95,112
55355,note_on,,,,,0,0,0,,,,,0,,,95,0
55355,note_on,,,,,75,0,0,,,,,0,,,86,0
55360,note_on,,,,,5,0,0,,,,,0,,,89,112
55427,note_on,,,,,227,0,1,,,,,0,,,47,0
55427,note_on,,,,,67,0,0,,,,,0,,,71,0
55435,note_on,,,,,8,0,0,,,,,0,,,89,0
55560,note_on,,,,,125,0,0,,,,,0,,,59,112
55560,note_on,,,,,133,0,1,,,,,0,,,47,112
55673,note_on,,,,,113,0,1,,,,,0,,,47,0
55673,note_on,,,,,113,0,0,,,,,0,,,59,0
55680,note_on,,,,,0,0,0,,,,,0,,,58,112
55680,note_on,,,,,7,0,0,,,,,0,,,58,112
55680,note_on,,,,,7,0,1,,,,,0,,,46,112
55680,note_on,,,,,0,0,1,,,,,0,,,37,112
55743,note_on,,,,,63,0,1,,,,,0,,,40,112
55755,note_on,,,,,75,0,0,,,,,0,,,58,0
55760,note_on,,,,,0,0,0,,,,,0,,,70,112
55760,note_on,,,,,5,0,0,,,,,0,,,61,112
55807,note_on,,,,,64,0,1,,,,,0,,,43,112
55835,note_on,,,,,75,0,0,,,,,0,,,61,0
55835,note_on,,,,,0,0,0,,,,,0,,,70,0
55840,note_on,,,,,5,0,0,,,,,0,,,64,112
55915,note_on,,,,,75,0,0,,,,,0,,,64,0
55918,note_on,,,,,0,0,1,,,,,0,,,43,0
55918,note_on,,,,,111,0,1,,,,,0,,,40,0
55919,note_on,,,,,1,0,1,,,,,0,,,37,0
55920,note_on,,,,,5,0,0,,,,,0,,,70,112
55995,note_on,,,,,75,0,0,,,,,0,,,70,0
56000,note_on,,,,,5,0,0,,,,,0,,,73,112
56000,note_on,,,,,0,0,0,,,,,0,,,82,112
56075,note_on,,,,,75,0,0,,,,,0,,,73,0
56075,note_on,,,,,0,0,0,,,,,0,,,82,0
56080,note_on,,,,,5,0,0,,,,,0,,,76,112
56155,note_on,,,,,75,0,0,,,,,0,,,76,0
56160,note_on,,,,,5,0,0,,,,,0,,,82,112
56235,note_on,,,,,75,0,0,,,,,0,,,82,0
56240,note_on,,,,,5,0,0,,,,,0,,,85,112
56240,note_on,,,,,0,0,0,,,,,0,,,94,112
56315,note_on,,,,,0,0,0,,,,,0,,,94,0
56315,note_on,,,,,75,0,0,,,,,0,,,85,0
56320,note_on,,,,,5,0,0,,,,,0,,,88,112
56363,note_on,,,,,43,0,0,,,,,0,,,58,0
56363,note_on,,,,,444,0,1,,,,,0,,,46,0
56395,note_on,,,,,32,0,0,,,,,0,,,88,0
56400,note_on,,,,,37,0,1,,,,,0,,,46,112
56400,note_on,,,,,0,0,1,,,,,0,,,58,112
56627,note_on,,,,,227,0,1,,,,,0,,,46,0
56627,note_on,,,,,0,0,1,,,,,0,,,58,0
56640,note_on,,,,,0,0,1,,,,,0,,,36,112
56640,note_on,,,,,245,0,0,,,,,0,,,57,112
56640,note_on,,,,,13,0,1,,,,,0,,,45,112
56640,note_on,,,,,0,0,0,,,,,0,,,57,112
56703,note_on,,,,,63,0,1,,,,,0,,,39,112
56715,note_on,,,,,75,0,0,,,,,0,,,57,0
56720,note_on,,,,,5,0,0,,,,,0,,,60,112
56720,note_on,,,,,0,0,0,,,,,0,,,69,112
56767,note_on,,,,,64,0,1,,,,,0,,,42,112
56795,note_on,,,,,0,0,0,,,,,0,,,69,0
56795,note_on,,,,,75,0,0,,,,,0,,,60,0
56800,note_on,,,,,5,0,0,,,,,0,,,63,112
56867,note_on,,,,,100,0,1,,,,,0,,,45,0
56875,note_on,,,,,75,0,0,,,,,0,,,63,0
56878,note_on,,,,,11,0,1,,,,,0,,,39,0
56878,note_on,,,,,0,0,1,,,,,0,,,42,0
56879,note_on,,,,,1,0,1,,,,,0,,,36,0
56880,set_tempo,,,,,5,1,0,,750002,,,,,,,
56880,note_on,,,,,1,0,1,,,,,0,,,45,112
56880,note_on,,,,,0,0,0,,,,,0,,,69,112
56880,note_on,,,,,0,0,1,,,,,0,,,57,112
56955,note_on,,,,,75,0,0,,,,,0,,,69,0
56960,note_on,,,,,5,0,0,,,,,0,,,72,112
56960,note_on,,,,,0,0,0,,,,,0,,,81,112
57035,note_on,,,,,75,0,0,,,,,0,,,72,0
57035,note_on,,,,,0,0,0,,,,,0,,,81,0
57040,note_on,,,,,5,0,0,,,,,0,,,75,112
57107,note_on,,,,,227,0,1,,,,,0,,,45,0
57107,note_on,,,,,0,0,1,,,,,0,,,57,0
57115,note_on,,,,,75,0,0,,,,,0,,,75,0
57120,set_tempo,,,,,5,1,0,,857140,,,,,,,
57120,note_on,,,,,13,0,1,,,,,0,,,46,112
57120,note_on,,,,,0,0,1,,,,,0,,,58,112
57120,note_on,,,,,0,0,0,,,,,0,,,81,112
57195,note_on,,,,,75,0,0,,,,,0,,,81,0
57200,note_on,,,,,0,0,0,,,,,0,,,93,112
57200,note_on,,,,,5,0,0,,,,,0,,,84,112
57275,note_on,,,,,0,0,0,,,,,0,,,93,0
57275,note_on,,,,,75,0,0,,,,,0,,,84,0
57280,note_on,,,,,5,0,0,,,,,0,,,87,112
57323,note_on,,,,,43,0,0,,,,,0,,,57,0
57347,note_on,,,,,227,0,1,,,,,0,,,46,0
57347,note_on,,,,,0,0,1,,,,,0,,,58,0
57355,note_on,,,,,32,0,0,,,,,0,,,87,0
57360,note_on,,,,,0,0,1,,,,,0,,,60,112
57360,set_tempo,,,,,5,1,0,,1000000,,,,,,,
57360,note_on,,,,,13,0,1,,,,,0,,,48,112
57587,note_on,,,,,0,0,1,,,,,0,,,60,0
57587,note_on,,,,,227,0,1,,,,,0,,,48,0
57600,note_on,,,,,13,0,1,,,,,0,,,50,108
57600,note_on,,,,,0,0,1,,,,,0,,,35,90
57679,note_on,,,,,79,0,1,,,,,0,,,50,0
57680,set_tempo,,,,,320,1,0,,666667,,,,,,,
57680,note_on,,,,,1,0,1,,,,,0,,,47,90
57759,note_on,,,,,79,0,1,,,,,0,,,47,0
57760,note_on,,,,,1,0,1,,,,,0,,,43,90
57835,note_on,,,,,75,0,1,,,,,0,,,43,0
57839,note_on,,,,,4,0,1,,,,,0,,,35,0
57840,note_on,,,,,0,0,0,,,,,0,,,66,108
57840,note_on,,,,,1,0,1,,,,,0,,,54,90
57840,note_on,,,,,160,0,0,,,,,0,,,54,108
57915,note_on,,,,,75,0,1,,,,,0,,,54,0
57920,note_on,,,,,5,0,1,,,,,0,,,59,90
57920,note_on,,,,,0,0,1,,,,,0,,,62,90
57995,note_on,,,,,75,0,1,,,,,0,,,59,0
57995,note_on,,,,,0,0,1,,,,,0,,,62,0
57999,note_on,,,,,159,0,0,,,,,0,,,54,0
57999,note_on,,,,,0,0,0,,,,,0,,,66,0
58000,note_on,,,,,5,0,1,,,,,0,,,55,90
58000,note_on,,,,,1,0,0,,,,,0,,,55,90
58000,note_on,,,,,0,0,0,,,,,0,,,67,90
58075,note_on,,,,,0,0,0,,,,,0,,,67,0
58075,note_on,,,,,75,0,0,,,,,0,,,55,0
58075,note_on,,,,,75,0,1,,,,,0,,,55,0
58080,note_on,,,,,0,0,1,,,,,0,,,47,90
58080,note_on,,,,,5,0,1,,,,,0,,,62,90
58159,note_on,,,,,79,0,1,,,,,0,,,62,0
58160,note_on,,,,,1,0,1,,,,,0,,,59,90
58239,note_on,,,,,79,0,1,,,,,0,,,59,0
58240,note_on,,,,,1,0,1,,,,,0,,,55,90
58315,note_on,,,,,75,0,1,,,,,0,,,55,0
58319,note_on,,,,,4,0,1,,,,,0,,,47,0
58320,note_on,,,,,1,0,1,,,,,0,,,68,90
58320,note_on,,,,,245,0,0,,,,,0,,,68,108
58320,note_on,,,,,0,0,0,,,,,0,,,80,108
58395,note_on,,,,,75,0,1,,,,,0,,,68,0
58400,note_on,,,,,0,0,1,,,,,0,,,74,90
58400,note_on,,,,,5,0,1,,,,,0,,,71,90
58475,note_on,,,,,75,0,1,,,,,0,,,71,0
58475,note_on,,,,,0,0,1,,,,,0,,,74,0
58479,note_on,,,,,159,0,0,,,,,0,,,68,0
58479,note_on,,,,,0,0,0,,,,,0,,,80,0
58480,note_on,,,,,0,0,0,,,,,0,,,79,90
58480,note_on,,,,,1,0,0,,,,,0,,,67,90
58480,note_on,,,,,5,0,1,,,,,0,,,67,90
58555,note_on,,,,,0,0,0,,,,,0,,,79,0
58555,note_on,,,,,75,0,0,,,,,0,,,67,0
58555,note_on,,,,,75,0,1,,,,,0,,,67,0
58560,note_on,,,,,5,0,1,,,,,0,,,36,90
58635,note_on,,,,,75,0,1,,,,,0,,,36,0
58640,note_on,,,,,5,0,1,,,,,0,,,48,90
58715,note_on,,,,,75,0,1,,,,,0,,,48,0
58720,note_on,,,,,0,0,0,,,,,0,,,78,112
58720,note_on,,,,,5,0,1,,,,,0,,,43,112
58720,note_on,,,,,165,0,0,,,,,0,,,66,112
58795,note_on,,,,,75,0,1,,,,,0,,,43,0
58800,note_on,,,,,5,0,1,,,,,0,,,51,112
58871,note_on,,,,,0,0,0,,,,,0,,,78,0
58871,note_on,,,,,151,0,0,,,,,0,,,66,0
58875,note_on,,,,,75,0,1,,,,,0,,,51,0
58880,note_on,,,,,5,0,1,,,,,0,,,48,112
58880,note_on,,,,,9,0,0,,,,,0,,,68,112
58880,note_on,,,,,0,0,0,,,,,0,,,80,112
58955,note_on,,,,,75,0,1,,,,,0,,,48,0
58960,note_on,,,,,5,0,1,,,,,0,,,55,112
59031,note_on,,,,,0,0,0,,,,,0,,,80,0
59031,note_on,,,,,151,0,0,,,,,0,,,68,0
59035,note_on,,,,,75,0,1,,,,,0,,,55,0
59040,note_on,,,,,5,0,1,,,,,0,,,51,112
59040,note_on,,,,,0,0,0,,,,,0,,,79,112
59040,note_on,,,,,9,0,0,,,,,0,,,67,112
59115,note_on,,,,,75,0,1,,,,,0,,,51,0
59120,note_on,,,,,5,0,1,,,,,0,,,60,112
59191,note_on,,,,,0,0,0,,,,,0,,,79,0
59191,note_on,,,,,151,0,0,,,,,0,,,67,0
59195,note_on,,,,,75,0,1,,,,,0,,,60,0
59200,note_on,,,,,5,0,1,,,,,0,,,55,112
59200,note_on,,,,,0,0,0,,,,,0,,,87,112
59200,note_on,,,,,9,0,0,,,,,0,,,75,112
59275,note_on,,,,,75,0,1,,,,,0,,,55,0
59280,note_on,,,,,5,0,1,,,,,0,,,63,112
59351,note_on,,,,,0,0,0,,,,,0,,,87,0
59351,note_on,,,,,151,0,0,,,,,0,,,75,0
59355,note_on,,,,,75,0,1,,,,,0,,,63,0
59360,note_on,,,,,5,0,1,,,,,0,,,51,112
59360,note_on,,,,,0,0,0,,,,,0,,,84,112
59360,note_on,,,,,9,0,0,,,,,0,,,72,112
59435,note_on,,,,,75,0,1,,,,,0,,,51,0
59440,note_on,,,,,5,0,1,,,,,0,,,60,112
59511,note_on,,,,,151,0,0,,,,,0,,,72,0
59511,note_on,,,,,0,0,0,,,,,0,,,84,0
59515,note_on,,,,,75,0,1,,,,,0,,,60,0
59520,note_on,,,,,5,0,1,,,,,0,,,53,112
59520,note_on,,,,,0,0,1,,,,,0,,,38,112
59599,note_on,,,,,79,0,1,,,,,0,,,53,0
59600,note_on,,,,,1,0,1,,,,,0,,,47,112
59679,note_on,,,,,79,0,1,,,,,0,,,47,0
59680,note_on,,,,,1,0,1,,,,,0,,,43,112
59755,note_on,,,,,75,0,1,,,,,0,,,43,0
59759,note_on,,,,,4,0,1,,,,,0,,,38,0
59760,note_on,,,,,249,0,0,,,,,0,,,54,127
59760,note_on,,,,,1,0,1,,,,,0,,,54,112
59760,note_on,,,,,0,0,0,,,,,0,,,66,127
59835,note_on,,,,,75,0,1,,,,,0,,,54,0
59840,note_on,,,,,5,0,1,,,,,0,,,59,112
59840,note_on,,,,,0,0,1,,,,,0,,,62,112
59915,note_on,,,,,75,0,1,,,,,0,,,59,0
59915,note_on,,,,,0,0,1,,,,,0,,,62,0
59919,note_on,,,,,159,0,0,,,,,0,,,54,0
59919,note_on,,,,,0,0,0,,,,,0,,,66,0
59920,note_on,,,,,5,0,1,,,,,0,,,55,112
59920,note_on,,,,,0,0,0,,,,,0,,,67,112
59920,note_on,,,,,1,0,0,,,,,0,,,55,112
59995,note_on,,,,,75,0,1,,,,,0,,,55,0
59995,note_on,,,,,75,0,0,,,,,0,,,55,0
59995,note_on,,,,,0,0,0,,,,,0,,,67,0
60000,note_on,,,,,5,0,1,,,,,0,,,65,112
60000,note_on,,,,,0,0,1,,,,,0,,,50,112
60079,note_on,,,,,79,0,1,,,,,0,,,65,0
60080,note_on,,,,,1,0,1,,,,,0,,,59,112
60159,note_on,,,,,79,0,1,,,,,0,,,59,0
60160,note_on,,,,,1,0,1,,,,,0,,,55,112
60235,note_on,,,,,75,0,1,,,,,0,,,55,0
60239,note_on,,,,,4,0,1,,,,,0,,,50,0
60240,note_on,,,,,245,0,0,,,,,0,,,68,127
60240,note_on,,,,,0,0,0,,,,,0,,,80,127
60240,note_on,,,,,1,0,1,,,,,0,,,68,112
60315,note_on,,,,,75,0,1,,,,,0,,,68,0
60320,note_on,,,,,0,0,1,,,,,0,,,74,112
60320,note_on,,,,,5,0,1,,,,,0,,,71,112
60395,note_on,,,,,0,0,1,,,,,0,,,74,0
60395,note_on,,,,,75,0,1,,,,,0,,,71,0
60399,note_on,,,,,159,0,0,,,,,0,,,68,0
60399,note_on,,,,,0,0,0,,,,,0,,,80,0
60400,note_on,,,,,1,0,0,,,,,0,,,67,112
60400,note_on,,,,,5,0,1,,,,,0,,,67,112
60400,note_on,,,,,0,0,0,,,,,0,,,79,112
60475,note_on,,,,,0,0,0,,,,,0,,,79,0
60475,note_on,,,,,75,0,0,,,,,0,,,67,0
60475,note_on,,,,,75,0,1,,,,,0,,,67,0
60480,note_on,,,,,5,0,1,,,,,0,,,40,112
60555,note_on,,,,,75,0,1,,,,,0,,,40,0
60560,note_on,,,,,5,0,1,,,,,0,,,52,112
60635,note_on,,,,,75,0,1,,,,,0,,,52,0
60640,note_on,,,,,165,0,0,,,,,0,,,71,112
60640,note_on,,,,,0,0,0,,,,,0,,,83,112
60640,note_on,,,,,5,0,1,,,,,0,,,48,112
60715,note_on,,,,,75,0,1,,,,,0,,,48,0
60720,note_on,,,,,5,0,1,,,,,0,,,55,112
60791,note_on,,,,,0,0,0,,,,,0,,,83,0
60791,note_on,,,,,151,0,0,,,,,0,,,71,0
60795,note_on,,,,,75,0,1,,,,,0,,,55,0
60800,note_on,,,,,9,0,0,,,,,0,,,73,112
60800,note_on,,,,,0,0,0,,,,,0,,,85,112
60800,note_on,,,,,5,0,1,,,,,0,,,52,112
60875,note_on,,,,,75,0,1,,,,,0,,,52,0
60880,note_on,,,,,5,0,1,,,,,0,,,60,112
60951,note_on,,,,,151,0,0,,,,,0,,,73,0
60951,note_on,,,,,0,0,0,,,,,0,,,85,0
60955,note_on,,,,,75,0,1,,,,,0,,,60,0
60960,note_on,,,,,9,0,0,,,,,0,,,72,112
60960,note_on,,,,,0,0,0,,,,,0,,,84,112
60960,note_on,,,,,5,0,1,,,,,0,,,55,112
61035,note_on,,,,,75,0,1,,,,,0,,,55,0
61040,note_on,,,,,5,0,1,,,,,0,,,64,112
61111,note_on,,,,,151,0,0,,,,,0,,,72,0
61111,note_on,,,,,0,0,0,,,,,0,,,84,0
61115,note_on,,,,,75,0,1,,,,,0,,,64,0
61120,note_on,,,,,5,0,1,,,,,0,,,60,112
61120,note_on,,,,,9,0,0,,,,,0,,,79,112
61120,note_on,,,,,0,0,0,,,,,0,,,91,112
61195,note_on,,,,,75,0,1,,,,,0,,,60,0
61200,note_on,,,,,5,0,1,,,,,0,,,67,112
61271,note_on,,,,,151,0,0,,,,,0,,,79,0
61271,note_on,,,,,0,0,0,,,,,0,,,91,0
61275,note_on,,,,,75,0,1,,,,,0,,,67,0
61280,note_on,,,,,5,0,1,,,,,0,,,55,112
61280,note_on,,,,,0,0,0,,,,,0,,,88,112
61280,note_on,,,,,9,0,0,,,,,0,,,76,112
61355,note_on,,,,,75,0,1,,,,,0,,,55,0
61360,note_on,,,,,5,0,1,,,,,0,,,64,112
61431,note_on,,,,,0,0,0,,,,,0,,,88,0
61431,note_on,,,,,151,0,0,,,,,0,,,76,0
61435,note_on,,,,,75,0,1,,,,,0,,,64,0
61440,note_on,,,,,5,0,1,,,,,0,,,56,112
61440,note_on,,,,,0,0,1,,,,,0,,,41,112
61519,note_on,,,,,79,0,1,,,,,0,,,56,0
61520,note_on,,,,,1,0,1,,,,,0,,,53,112
61599,note_on,,,,,79,0,1,,,,,0,,,53,0
61600,note_on,,,,,1,0,1,,,,,0,,,48,112
61675,note_on,,,,,75,0,1,,,,,0,,,48,0
61679,note_on,,,,,4,0,1,,,,,0,,,41,0
61680,note_on,,,,,1,0,1,,,,,0,,,59,112
61680,note_on,,,,,0,0,0,,,,,0,,,71,127
61680,note_on,,,,,249,0,0,,,,,0,,,59,127
61755,note_on,,,,,75,0,1,,,,,0,,,59,0
61760,note_on,,,,,0,0,1,,,,,0,,,68,112
61760,note_on,,,,,5,0,1,,,,,0,,,65,112
61835,note_on,,,,,0,0,1,,,,,0,,,68,0
61835,note_on,,,,,75,0,1,,,,,0,,,65,0
61839,note_on,,,,,0,0,0,,,,,0,,,71,0
61839,note_on,,,,,159,0,0,,,,,0,,,59,0
61840,note_on,,,,,5,0,1,,,,,0,,,60,112
61840,note_on,,,,,0,0,0,,,,,0,,,72,112
61840,note_on,,,,,1,0,0,,,,,0,,,60,112
61915,note_on,,,,,0,0,0,,,,,0,,,72,0
61915,note_on,,,,,75,0,0,,,,,0,,,60,0
61915,note_on,,,,,75,0,1,,,,,0,,,60,0
61920,note_on,,,,,0,0,1,,,,,0,,,43,112
61920,note_on,,,,,5,0,1,,,,,0,,,58,112
61999,note_on,,,,,79,0,1,,,,,0,,,58,0
62000,note_on,,,,,1,0,1,,,,,0,,,52,112
62079,note_on,,,,,79,0,1,,,,,0,,,52,0
62080,note_on,,,,,1,0,1,,,,,0,,,48,112
62155,note_on,,,,,75,0,1,,,,,0,,,48,0
62159,note_on,,,,,4,0,1,,,,,0,,,43,0
62160,note_on,,,,,1,0,1,,,,,0,,,73,112
62160,note_on,,,,,245,0,0,,,,,0,,,73,127
62160,note_on,,,,,0,0,0,,,,,0,,,85,127
62235,note_on,,,,,75,0,1,,,,,0,,,73,0
62240,note_on,,,,,0,0,1,,,,,0,,,79,112
62240,note_on,,,,,5,0,1,,,,,0,,,76,112
62315,note_on,,,,,75,0,1,,,,,0,,,76,0
62315,note_on,,,,,0,0,1,,,,,0,,,79,0
62319,note_on,,,,,159,0,0,,,,,0,,,73,0
62319,note_on,,,,,0,0,0,,,,,0,,,85,0
62320,note_on,,,,,1,0,0,,,,,0,,,72,112
62320,note_on,,,,,5,0,1,,,,,0,,,72,112
62320,note_on,,,,,0,0,0,,,,,0,,,84,112
62395,note_on,,,,,75,0,0,,,,,0,,,72,0
62395,note_on,,,,,75,0,1,,,,,0,,,72,0
62395,note_on,,,,,0,0,0,,,,,0,,,84,0
62400,note_on,,,,,5,0,1,,,,,0,,,60,112
62400,note_on,,,,,0,0,1,,,,,0,,,44,112
62479,note_on,,,,,79,0,1,,,,,0,,,60,0
62480,note_on,,,,,1,0,1,,,,,0,,,56,112
62559,note_on,,,,,79,0,1,,,,,0,,,56,0
62560,note_on,,,,,1,0,1,,,,,0,,,53,112
62635,note_on,,,,,75,0,1,,,,,0,,,53,0
62639,note_on,,,,,4,0,1,,,,,0,,,44,0
62640,note_on,,,,,245,0,0,,,,,0,,,59,127
62640,note_on,,,,,0,0,0,,,,,0,,,71,127
62640,note_on,,,,,1,0,1,,,,,0,,,59,112
62715,note_on,,,,,75,0,1,,,,,0,,,59,0
62720,note_on,,,,,5,0,1,,,,,0,,,65,112
62720,note_on,,,,,0,0,1,,,,,0,,,68,112
62795,note_on,,,,,75,0,1,,,,,0,,,65,0
62795,note_on,,,,,0,0,1,,,,,0,,,68,0
62799,note_on,,,,,159,0,0,,,,,0,,,59,0
62799,note_on,,,,,0,0,0,,,,,0,,,71,0
62800,note_on,,,,,0,0,0,,,,,0,,,72,112
62800,note_on,,,,,5,0,1,,,,,0,,,60,112
62800,note_on,,,,,1,0,0,,,,,0,,,60,112
62875,note_on,,,,,0,0,0,,,,,0,,,72,0
62875,note_on,,,,,75,0,0,,,,,0,,,60,0
62875,note_on,,,,,75,0,1,,,,,0,,,60,0
62880,note_on,,,,,0,0,1,,,,,0,,,47,112
62880,note_on,,,,,5,0,1,,,,,0,,,62,112
62959,note_on,,,,,79,0,1,,,,,0,,,62,0
62960,note_on,,,,,1,0,1,,,,,0,,,56,112
63039,note_on,,,,,79,0,1,,,,,0,,,56,0
63040,note_on,,,,,1,0,1,,,,,0,,,53,112
63115,note_on,,,,,75,0,1,,,,,0,,,53,0
63119,note_on,,,,,4,0,1,,,,,0,,,47,0
63120,note_on,,,,,0,0,0,,,,,0,,,86,127
63120,note_on,,,,,1,0,1,,,,,0,,,74,112
63120,note_on,,,,,245,0,0,,,,,0,,,74,127
63195,note_on,,,,,75,0,1,,,,,0,,,74,0
63200,note_on,,,,,5,0,1,,,,,0,,,77,112
63200,note_on,,,,,0,0,1,,,,,0,,,80,112
63275,note_on,,,,,0,0,1,,,,,0,,,80,0
63275,note_on,,,,,75,0,1,,,,,0,,,77,0
63279,note_on,,,,,159,0,0,,,,,0,,,74,0
63279,note_on,,,,,0,0,0,,,,,0,,,86,0
63280,note_on,,,,,0,0,0,,,,,0,,,85,112
63280,note_on,,,,,5,0,1,,,,,0,,,73,112
63280,note_on,,,,,1,0,0,,,,,0,,,73,112
63355,note_on,,,,,75,0,1,,,,,0,,,73,0
63355,note_on,,,,,0,0,0,,,,,0,,,85,0
63355,note_on,,,,,75,0,0,,,,,0,,,73,0
63360,set_tempo,,,,,5,1,0,,631580,,,,,,,
63360,note_on,,,,,5,0,1,,,,,0,,,61,112
63360,note_on,,,,,0,0,1,,,,,0,,,46,112
63439,note_on,,,,,79,0,1,,,,,0,,,61,0
63440,note_on,,,,,1,0,1,,,,,0,,,58,112
63519,note_on,,,,,79,0,1,,,,,0,,,58,0
63520,note_on,,,,,1,0,1,,,,,0,,,54,112
63595,note_on,,,,,75,0,1,,,,,0,,,54,0
63599,note_on,,,,,4,0,1,,,,,0,,,46,0
63600,note_on,,,,,240,0,0,,,,,0,,,60,127
63600,note_on,,,,,1,0,1,,,,,0,,,60,112
63600,note_on,,,,,0,0,0,,,,,0,,,72,127
63675,note_on,,,,,75,0,1,,,,,0,,,60,0
63680,note_on,,,,,5,0,1,,,,,0,,,66,112
63680,note_on,,,,,0,0,1,,,,,0,,,73,112
63755,note_on,,,,,0,0,1,,,,,0,,,73,0
63755,note_on,,,,,75,0,1,,,,,0,,,66,0
63759,note_on,,,,,159,0,0,,,,,0,,,60,0
63759,note_on,,,,,0,0,0,,,,,0,,,72,0
63760,note_on,,,,,5,0,1,,,,,0,,,61,112
63760,note_on,,,,,0,0,0,,,,,0,,,73,112
63760,note_on,,,,,1,0,0,,,,,0,,,61,112
63835,note_on,,,,,75,0,0,,,,,0,,,61,0
63835,note_on,,,,,0,0,0,,,,,0,,,73,0
63835,note_on,,,,,75,0,1,,,,,0,,,61,0
63840,note_on,,,,,5,0,1,,,,,0,,,64,112
63840,note_on,,,,,0,0,1,,,,,0,,,49,112
63919,note_on,,,,,79,0,1,,,,,0,,,64,0
63920,note_on,,,,,1,0,1,,,,,0,,,58,112
63999,note_on,,,,,79,0,1,,,,,0,,,58,0
64000,note_on,,,,,1,0,1,,,,,0,,,55,112
64075,note_on,,,,,75,0,1,,,,,0,,,55,0
64079,note_on,,,,,4,0,1,,,,,0,,,49,0
64080,note_on,,,,,0,0,0,,,,,0,,,88,127
64080,note_on,,,,,1,0,1,,,,,0,,,76,112
64080,note_on,,,,,245,0,0,,,,,0,,,76,127
64155,note_on,,,,,75,0,1,,,,,0,,,76,0
64160,note_on,,,,,5,0,1,,,,,0,,,79,112
64160,note_on,,,,,0,0,1,,,,,0,,,82,112
64235,note_on,,,,,0,0,1,,,,,0,,,82,0
64235,note_on,,,,,75,0,1,,,,,0,,,79,0
64239,note_on,,,,,0,0,0,,,,,0,,,88,0
64239,note_on,,,,,159,0,0,,,,,0,,,76,0
64240,note_on,,,,,0,0,0,,,,,0,,,87,112
64240,note_on,,,,,5,0,1,,,,,0,,,75,112
64240,note_on,,,,,1,0,0,,,,,0,,,75,112
64315,note_on,,,,,75,0,1,,,,,0,,,75,0
64315,note_on,,,,,0,0,0,,,,,0,,,87,0
64315,note_on,,,,,75,0,0,,,,,0,,,75,0
64320,note_on,,,,,0,0,1,,,,,0,,,48,112
64320,set_tempo,,,,,5,1,0,,599999,,,,,,,
64320,note_on,,,,,5,0,1,,,,,0,,,63,112
64399,note_on,,,,,79,0,1,,,,,0,,,63,0
64400,note_on,,,,,1,0,1,,,,,0,,,60,112
64479,note_on,,,,,79,0,1,,,,,0,,,60,0
64480,note_on,,,,,1,0,1,,,,,0,,,56,112
64555,note_on,,,,,75,0,1,,,,,0,,,56,0
64559,note_on,,,,,4,0,1,,,,,0,,,48,0
64560,note_on,,,,,240,0,0,,,,,0,,,62,127
64560,note_on,,,,,0,0,0,,,,,0,,,74,127
64560,note_on,,,,,1,0,1,,,,,0,,,62,112
64635,note_on,,,,,75,0,1,,,,,0,,,62,0
64640,note_on,,,,,0,0,1,,,,,0,,,72,112
64640,note_on,,,,,5,0,1,,,,,0,,,68,112
64715,note_on,,,,,0,0,1,,,,,0,,,72,0
64715,note_on,,,,,75,0,1,,,,,0,,,68,0
64719,note_on,,,,,0,0,0,,,,,0,,,74,0
64719,note_on,,,,,159,0,0,,,,,0,,,62,0
64720,note_on,,,,,1,0,0,,,,,0,,,63,112
64720,note_on,,,,,0,0,0,,,,,0,,,75,112
64720,note_on,,,,,5,0,1,,,,,0,,,63,112
64795,note_on,,,,,0,0,0,,,,,0,,,75,0
64795,note_on,,,,,75,0,0,,,,,0,,,63,0
64795,note_on,,,,,75,0,1,,,,,0,,,63,0
64800,note_on,,,,,5,0,1,,,,,0,,,66,112
64800,note_on,,,,,0,0,1,,,,,0,,,51,112
64879,note_on,,,,,79,0,1,,,,,0,,,66,0
64880,note_on,,,,,1,0,1,,,,,0,,,60,112
64959,note_on,,,,,79,0,1,,,,,0,,,60,0
64960,note_on,,,,,1,0,1,,,,,0,,,57,112
65035,note_on,,,,,75,0,1,,,,,0,,,57,0
65039,note_on,,,,,4,0,1,,,,,0,,,51,0
65040,note_on,,,,,0,0,0,,,,,0,,,90,127
65040,note_on,,,,,1,0,1,,,,,0,,,78,112
65040,note_on,,,,,245,0,0,,,,,0,,,78,127
65115,note_on,,,,,75,0,1,,,,,0,,,78,0
65120,note_on,,,,,5,0,1,,,,,0,,,81,112
65120,note_on,,,,,0,0,1,,,,,0,,,84,112
65195,note_on,,,,,75,0,1,,,,,0,,,81,0
65195,note_on,,,,,0,0,1,,,,,0,,,84,0
65199,note_on,,,,,159,0,0,,,,,0,,,78,0
65199,note_on,,,,,0,0,0,,,,,0,,,90,0
65200,note_on,,,,,5,0,1,,,,,0,,,77,112
65200,note_on,,,,,0,0,0,,,,,0,,,89,112
65200,note_on,,,,,1,0,0,,,,,0,,,77,112
65275,note_on,,,,,75,0,0,,,,,0,,,77,0
65275,note_on,,,,,0,0,0,,,,,0,,,89,0
65275,note_on,,,,,75,0,1,,,,,0,,,77,0
65280,note_on,,,,,5,0,1,,,,,0,,,49,112
65280,note_on,,,,,0,0,1,,,,,0,,,61,112
65280,set_tempo,,,,,5,1,0,,545456,,,,,,,
65431,note_on,,,,,151,0,1,,,,,0,,,49,0
65431,note_on,,,,,0,0,1,,,,,0,,,61,0
65440,note_on,,,,,9,0,1,,,,,0,,,70,112
65440,note_on,,,,,0,0,0,,,,,0,,,82,112
65440,note_on,,,,,160,0,0,,,,,0,,,76,112
65440,note_on,,,,,0,0,0,,,,,0,,,88,112
65515,note_on,,,,,75,0,1,,,,,0,,,70,0
65520,note_on,,,,,5,0,1,,,,,0,,,73,112
65591,note_on,,,,,0,0,0,,,,,0,,,88,0
65591,note_on,,,,,151,0,0,,,,,0,,,76,0
65591,note_on,,,,,0,0,0,,,,,0,,,82,0
65595,note_on,,,,,75,0,1,,,,,0,,,73,0
65600,note_on,,,,,5,0,1,,,,,0,,,65,112
65600,note_on,,,,,9,0,0,,,,,0,,,77,112
65600,note_on,,,,,0,0,0,,,,,0,,,82,112
65600,note_on,,,,,0,0,0,,,,,0,,,89,112
65675,note_on,,,,,75,0,1,,,,,0,,,65,0
65680,note_on,,,,,5,0,1,,,,,0,,,70,112
65751,note_on,,,,,0,0,0,,,,,0,,,82,0
65751,note_on,,,,,151,0,0,,,,,0,,,77,0
65751,note_on,,,,,0,0,0,,,,,0,,,89,0
65755,note_on,,,,,75,0,1,,,,,0,,,70,0
65760,note_on,,,,,0,0,0,,,,,0,,,82,112
65760,note_on,,,,,0,0,0,,,,,0,,,90,112
65760,note_on,,,,,5,0,1,,,,,0,,,61,112
65760,note_on,,,,,9,0,0,,,,,0,,,78,112
65835,note_on,,,,,75,0,1,,,,,0,,,61,0
65840,note_on,,,,,5,0,1,,,,,0,,,65,112
65911,note_on,,,,,0,0,0,,,,,0,,,90,0
65911,note_on,,,,,151,0,0,,,,,0,,,78,0
65911,note_on,,,,,0,0,0,,,,,0,,,82,0
65915,note_on,,,,,75,0,1,,,,,0,,,65,0
65920,note_on,,,,,5,0,1,,,,,0,,,58,112
65920,note_on,,,,,0,0,0,,,,,0,,,91,112
65920,note_on,,,,,9,0,0,,,,,0,,,79,112
65995,note_on,,,,,75,0,1,,,,,0,,,58,0
66000,note_on,,,,,5,0,1,,,,,0,,,61,112
66071,note_on,,,,,151,0,0,,,,,0,,,79,0
66071,note_on,,,,,0,0,0,,,,,0,,,91,0
66075,note_on,,,,,75,0,1,,,,,0,,,61,0
66080,note_on,,,,,0,0,0,,,,,0,,,92,112
66080,note_on,,,,,5,0,1,,,,,0,,,53,112
66080,note_on,,,,,9,0,0,,,,,0,,,80,112
66155,note_on,,,,,75,0,1,,,,,0,,,53,0
66160,note_on,,,,,5,0,1,,,,,0,,,58,112
66231,note_on,,,,,0,0,0,,,,,0,,,92,0
66231,note_on,,,,,151,0,0,,,,,0,,,80,0
66235,note_on,,,,,75,0,1,,,,,0,,,58,0
66240,note_on,,,,,5,0,1,,,,,0,,,43,112
66240,note_on,,,,,0,0,1,,,,,0,,,55,112
66391,note_on,,,,,151,0,1,,,,,0,,,43,0
66391,note_on,,,,,0,0,1,,,,,0,,,55,0
66400,note_on,,,,,0,0,0,,,,,0,,,93,112
66400,note_on,,,,,0,0,0,,,,,0,,,89,112
66400,note_on,,,,,169,0,0,,,,,0,,,81,112
66400,note_on,,,,,9,0,1,,,,,0,,,70,112
66475,note_on,,,,,75,0,1,,,,,0,,,70,0
66480,note_on,,,,,5,0,1,,,,,0,,,73,112
66551,note_on,,,,,151,0,0,,,,,0,,,81,0
66551,note_on,,,,,0,0,0,,,,,0,,,93,0
66551,note_on,,,,,0,0,0,,,,,0,,,89,0
66555,note_on,,,,,75,0,1,,,,,0,,,73,0
66560,note_on,,,,,5,0,1,,,,,0,,,65,112
66560,note_on,,,,,9,0,0,,,,,0,,,82,112
66560,note_on,,,,,0,0,0,,,,,0,,,94,112
66560,note_on,,,,,0,0,0,,,,,0,,,89,112
66635,note_on,,,,,75,0,1,,,,,0,,,65,0
66640,note_on,,,,,5,0,1,,,,,0,,,70,112
66711,note_on,,,,,0,0,0,,,,,0,,,89,0
66711,note_on,,,,,151,0,0,,,,,0,,,82,0
66711,note_on,,,,,0,0,0,,,,,0,,,94,0
66715,note_on,,,,,75,0,1,,,,,0,,,70,0
66720,note_on,,,,,5,0,1,,,,,0,,,61,112
66720,note_on,,,,,0,0,0,,,,,0,,,89,112
66720,note_on,,,,,0,0,0,,,,,0,,,95,112
66720,note_on,,,,,9,0,0,,,,,0,,,83,112
66795,note_on,,,,,75,0,1,,,,,0,,,61,0
66800,note_on,,,,,5,0,1,,,,,0,,,65,112
66871,note_on,,,,,0,0,0,,,,,0,,,89,0
66871,note_on,,,,,0,0,0,,,,,0,,,95,0
66871,note_on,,,,,151,0,0,,,,,0,,,83,0
66875,note_on,,,,,75,0,1,,,,,0,,,65,0
66880,note_on,,,,,0,0,0,,,,,0,,,89,112
66880,note_on,,,,,0,0,0,,,,,0,,,96,112
66880,note_on,,,,,5,0,1,,,,,0,,,58,112
66880,note_on,,,,,9,0,0,,,,,0,,,84,112
66955,note_on,,,,,75,0,1,,,,,0,,,58,0
66960,note_on,,,,,5,0,1,,,,,0,,,61,112
67031,note_on,,,,,0,0,0,,,,,0,,,89,0
67031,note_on,,,,,0,0,0,,,,,0,,,96,0
67031,note_on,,,,,151,0,0,,,,,0,,,84,0
67035,note_on,,,,,75,0,1,,,,,0,,,61,0
67040,note_on,,,,,5,0,1,,,,,0,,,53,112
67040,note_on,,,,,9,0,0,,,,,0,,,85,112
67040,note_on,,,,,0,0,0,,,,,0,,,89,112
67040,note_on,,,,,0,0,0,,,,,0,,,97,112
67115,note_on,,,,,75,0,1,,,,,0,,,53,0
67120,note_on,,,,,5,0,1,,,,,0,,,58,112
67191,note_on,,,,,0,0,0,,,,,0,,,89,0
67191,note_on,,,,,0,0,0,,,,,0,,,97,0
67191,note_on,,,,,151,0,0,,,,,0,,,85,0
67195,note_on,,,,,75,0,1,,,,,0,,,58,0
67200,note_on,,,,,5,0,1,,,,,0,,,50,112
67200,note_on,,,,,0,0,1,,,,,0,,,62,112
67351,note_on,,,,,151,0,1,,,,,0,,,50,0
67351,note_on,,,,,0,0,1,,,,,0,,,62,0
67360,note_on,,,,,9,0,1,,,,,0,,,71,112
67360,note_on,,,,,0,0,0,,,,,0,,,88,112
67360,note_on,,,,,169,0,0,,,,,0,,,76,112
67360,note_on,,,,,0,0,0,,,,,0,,,83,112
67435,note_on,,,,,75,0,1,,,,,0,,,71,0
67440,note_on,,,,,5,0,1,,,,,0,,,74,112
67511,note_on,,,,,151,0,0,,,,,0,,,76,0
67511,note_on,,,,,0,0,0,,,,,0,,,88,0
67511,note_on,,,,,0,0,0,,,,,0,,,83,0
67515,note_on,,,,,75,0,1,,,,,0,,,74,0
67520,note_on,,,,,9,0,0,,,,,0,,,77,112
67520,note_on,,,,,5,0,1,,,,,0,,,65,112
67520,note_on,,,,,0,0,0,,,,,0,,,83,112
67520,note_on,,,,,0,0,0,,,,,0,,,89,112
67595,note_on,,,,,75,0,1,,,,,0,,,65,0
67600,note_on,,,,,5,0,1,,,,,0,,,71,112
67671,note_on,,,,,0,0,0,,,,,0,,,83,0
67671,note_on,,,,,151,0,0,,,,,0,,,77,0
67671,note_on,,,,,0,0,0,,,,,0,,,89,0
67675,note_on,,,,,75,0,1,,,,,0,,,71,0
67680,note_on,,,,,0,0,0,,,,,0,,,90,112
67680,note_on,,,,,0,0,0,,,,,0,,,83,112
67680,note_on,,,,,9,0,0,,,,,0,,,78,112
67680,note_on,,,,,5,0,1,,,,,0,,,62,112
67755,note_on,,,,,75,0,1,,,,,0,,,62,0
67760,note_on,,,,,5,0,1,,,,,0,,,65,112
67831,note_on,,,,,0,0,0,,,,,0,,,83,0
67831,note_on,,,,,0,0,0,,,,,0,,,90,0
67831,note_on,,,,,151,0,0,,,,,0,,,78,0
67835,note_on,,,,,75,0,1,,,,,0,,,65,0
67840,note_on,,,,,9,0,0,,,,,0,,,79,112
67840,note_on,,,,,5,0,1,,,,,0,,,59,112
67840,note_on,,,,,0,0,0,,,,,0,,,91,112
67915,note_on,,,,,75,0,1,,,,,0,,,59,0
67920,note_on,,,,,5,0,1,,,,,0,,,62,112
67991,note_on,,,,,0,0,0,,,,,0,,,91,0
67991,note_on,,,,,151,0,0,,,,,0,,,79,0
67995,note_on,,,,,75,0,1,,,,,0,,,62,0
68000,note_on,,,,,0,0,0,,,,,0,,,92,112
68000,note_on,,,,,5,0,1,,,,,0,,,53,112
68000,note_on,,,,,9,0,0,,,,,0,,,80,112
68075,note_on,,,,,75,0,1,,,,,0,,,53,0
68080,note_on,,,,,5,0,1,,,,,0,,,59,112
68151,note_on,,,,,151,0,0,,,,,0,,,80,0
68151,note_on,,,,,0,0,0,,,,,0,,,92,0
68155,note_on,,,,,75,0,1,,,,,0,,,59,0
68160,note_on,,,,,5,0,1,,,,,0,,,43,112
68160,note_on,,,,,0,0,1,,,,,0,,,55,112
68311,note_on,,,,,151,0,1,,,,,0,,,43,0
68311,note_on,,,,,0,0,1,,,,,0,,,55,0
68320,note_on,,,,,0,0,0,,,,,0,,,93,112
68320,note_on,,,,,9,0,1,,,,,0,,,71,112
68320,note_on,,,,,169,0,0,,,,,0,,,81,112
68320,note_on,,,,,0,0,0,,,,,0,,,89,112
68395,note_on,,,,,75,0,1,,,,,0,,,71,0
68400,note_on,,,,,5,0,1,,,,,0,,,74,112
68471,note_on,,,,,0,0,0,,,,,0,,,93,0
68471,note_on,,,,,0,0,0,,,,,0,,,89,0
68471,note_on,,,,,151,0,0,,,,,0,,,81,0
68475,note_on,,,,,75,0,1,,,,,0,,,74,0
68480,note_on,,,,,5,0,1,,,,,0,,,65,112
68480,note_on,,,,,0,0,0,,,,,0,,,94,112
68480,note_on,,,,,0,0,0,,,,,0,,,89,112
68480,note_on,,,,,9,0,0,,,,,0,,,82,112
68555,note_on,,,,,75,0,1,,,,,0,,,65,0
68560,note_on,,,,,5,0,1,,,,,0,,,71,112
68631,note_on,,,,,151,0,0,,,,,0,,,82,0
68631,note_on,,,,,0,0,0,,,,,0,,,89,0
68631,note_on,,,,,0,0,0,,,,,0,,,94,0
68635,note_on,,,,,75,0,1,,,,,0,,,71,0
68640,note_on,,,,,5,0,1,,,,,0,,,62,112
68640,note_on,,,,,9,0,0,,,,,0,,,83,112
68640,note_on,,,,,0,0,0,,,,,0,,,95,112
68640,note_on,,,,,0,0,0,,,,,0,,,89,112
68715,note_on,,,,,75,0,1,,,,,0,,,62,0
68720,note_on,,,,,5,0,1,,,,,0,,,65,112
68791,note_on,,,,,151,0,0,,,,,0,,,83,0
68791,note_on,,,,,0,0,0,,,,,0,,,89,0
68791,note_on,,,,,0,0,0,,,,,0,,,95,0
68795,note_on,,,,,75,0,1,,,,,0,,,65,0
68800,note_on,,,,,5,0,1,,,,,0,,,59,112
68800,note_on,,,,,9,0,0,,,,,0,,,85,112
68800,note_on,,,,,0,0,0,,,,,0,,,97,112
68875,note_on,,,,,75,0,1,,,,,0,,,59,0
68880,note_on,,,,,5,0,1,,,,,0,,,62,112
68951,note_on,,,,,0,0,0,,,,,0,,,97,0
68951,note_on,,,,,151,0,0,,,,,0,,,85,0
68955,note_on,,,,,75,0,1,,,,,0,,,62,0
68960,note_on,,,,,5,0,1,,,,,0,,,53,112
68960,note_on,,,,,0,0,0,,,,,0,,,98,112
68960,note_on,,,,,9,0,0,,,,,0,,,86,112
69035,note_on,,,,,75,0,1,,,,,0,,,53,0
69040,note_on,,,,,5,0,1,,,,,0,,,59,112
69111,note_on,,,,,0,0,0,,,,,0,,,98,0
69111,note_on,,,,,151,0,0,,,,,0,,,86,0
69115,note_on,,,,,75,0,1,,,,,0,,,59,0
69120,note_on,,,,,5,0,1,,,,,0,,,42,112
69120,note_on,,,,,9,0,0,,,,,0,,,87,127
69120,note_on,,,,,0,0,0,,,,,0,,,99,127
69120,note_on,,,,,0,0,0,,,,,0,,,95,127
69120,note_on,,,,,0,0,1,,,,,0,,,54,112
69198,note_on,,,,,0,0,1,,,,,0,,,54,0
69198,note_on,,,,,78,0,1,,,,,0,,,42,0
69226,note_on,,,,,106,0,0,,,,,0,,,87,0
69226,note_on,,,,,0,0,0,,,,,0,,,99,0
69226,note_on,,,,,0,0,0,,,,,0,,,95,0
69280,note_on,,,,,54,0,0,,,,,0,,,95,112
69355,note_on,,,,,75,0,0,,,,,0,,,95,0
69360,note_on,,,,,5,0,0,,,,,0,,,87,112
69435,note_on,,,,,75,0,0,,,,,0,,,87,0
69440,note_on,,,,,5,0,0,,,,,0,,,90,112
69480,note_on,,,,,0,0,1,,,,,0,,,66,112
69480,note_on,,,,,0,0,1,,,,,0,,,71,112
69480,note_on,,,,,0,0,1,,,,,0,,,75,112
69480,note_on,,,,,282,0,1,,,,,0,,,63,112
69515,note_on,,,,,75,0,0,,,,,0,,,90,0
69520,note_on,,,,,5,0,0,,,,,0,,,83,112
69593,note_on,,,,,0,0,1,,,,,0,,,66,0
69593,note_on,,,,,0,0,1,,,,,0,,,71,0
69593,note_on,,,,,0,0,1,,,,,0,,,75,0
69593,note_on,,,,,113,0,1,,,,,0,,,63,0
69595,note_on,,,,,75,0,0,,,,,0,,,83,0
69600,note_on,,,,,5,0,0,,,,,0,,,87,112
69600,note_on,,,,,0,0,1,,,,,0,,,66,112
69600,note_on,,,,,0,0,1,,,,,0,,,71,112
69600,note_on,,,,,0,0,1,,,,,0,,,75,112
69600,note_on,,,,,7,0,1,,,,,0,,,63,112
69675,note_on,,,,,75,0,0,,,,,0,,,87,0
69680,note_on,,,,,5,0,0,,,,,0,,,78,112
69755,note_on,,,,,75,0,0,,,,,0,,,78,0
69760,note_on,,,,,5,0,0,,,,,0,,,83,112
69835,note_on,,,,,75,0,0,,,,,0,,,83,0
69840,note_on,,,,,5,0,0,,,,,0,,,75,112
69915,note_on,,,,,75,0,0,,,,,0,,,75,0
69920,note_on,,,,,5,0,0,,,,,0,,,78,112
69995,note_on,,,,,75,0,0,,,,,0,,,78,0
70000,note_on,,,,,5,0,0,,,,,0,,,71,112
70055,note_on,,,,,455,0,1,,,,,0,,,63,0
70055,note_on,,,,,0,0,1,,,,,0,,,75,0
70055,note_on,,,,,0,0,1,,,,,0,,,71,0
70055,note_on,,,,,0,0,1,,,,,0,,,66,0
70075,note_on,,,,,75,0,0,,,,,0,,,71,0
70080,note_on,,,,,25,0,1,,,,,0,,,40,112
70080,set_tempo,,,,,5,1,0,,654547,,,,,,,
70080,note_on,,,,,0,0,0,,,,,0,,,88,127
70080,note_on,,,,,0,0,0,,,,,0,,,100,127
70080,note_on,,,,,0,0,0,,,,,0,,,96,127
70080,note_on,,,,,0,0,1,,,,,0,,,52,112
70158,note_on,,,,,0,0,1,,,,,0,,,52,0
70158,note_on,,,,,78,0,1,,,,,0,,,40,0
70186,note_on,,,,,0,0,0,,,,,0,,,96,0
70186,note_on,,,,,0,0,0,,,,,0,,,100,0
70186,note_on,,,,,106,0,0,,,,,0,,,88,0
70239,set_tempo,,,,,53,1,0,,545456,,,,,,,
70240,note_on,,,,,1,0,0,,,,,0,,,96,112
70315,note_on,,,,,75,0,0,,,,,0,,,96,0
70320,note_on,,,,,5,0,0,,,,,0,,,88,112
70395,note_on,,,,,75,0,0,,,,,0,,,88,0
70400,note_on,,,,,5,0,0,,,,,0,,,91,112
70440,note_on,,,,,282,0,1,,,,,0,,,64,112
70440,note_on,,,,,0,0,1,,,,,0,,,72,112
70440,note_on,,,,,0,0,1,,,,,0,,,67,112
70440,note_on,,,,,0,0,1,,,,,0,,,76,112
70475,note_on,,,,,75,0,0,,,,,0,,,91,0
70480,note_on,,,,,5,0,0,,,,,0,,,84,112
70553,note_on,,,,,0,0,1,,,,,0,,,67,0
70553,note_on,,,,,113,0,1,,,,,0,,,64,0
70553,note_on,,,,,0,0,1,,,,,0,,,72,0
70553,note_on,,,,,0,0,1,,,,,0,,,76,0
70555,note_on,,,,,75,0,0,,,,,0,,,84,0
70560,note_on,,,,,0,0,1,,,,,0,,,76,112
70560,note_on,,,,,0,0,1,,,,,0,,,72,112
70560,note_on,,,,,0,0,1,,,,,0,,,67,112
70560,note_on,,,,,5,0,0,,,,,0,,,88,112
70560,note_on,,,,,7,0,1,,,,,0,,,64,112
70635,note_on,,,,,75,0,0,,,,,0,,,88,0
70640,note_on,,,,,5,0,0,,,,,0,,,79,112
70715,note_on,,,,,75,0,0,,,,,0,,,79,0
70720,note_on,,,,,5,0,0,,,,,0,,,84,112
70795,note_on,,,,,75,0,0,,,,,0,,,84,0
70800,note_on,,,,,5,0,0,,,,,0,,,76,112
70875,note_on,,,,,75,0,0,,,,,0,,,76,0
70880,note_on,,,,,5,0,0,,,,,0,,,79,112
70955,note_on,,,,,75,0,0,,,,,0,,,79,0
70960,note_on,,,,,5,0,0,,,,,0,,,72,112
71015,note_on,,,,,0,0,1,,,,,0,,,72,0
71015,note_on,,,,,0,0,1,,,,,0,,,76,0
71015,note_on,,,,,0,0,1,,,,,0,,,67,0
71015,note_on,,,,,455,0,1,,,,,0,,,64,0
71035,note_on,,,,,75,0,0,,,,,0,,,72,0
71040,note_on,,,,,0,0,1,,,,,0,,,47,112
71040,note_on,,,,,0,0,0,,,,,0,,,101,127
71040,note_on,,,,,25,0,1,,,,,0,,,35,112
71040,note_on,,,,,0,0,0,,,,,0,,,97,127
71040,set_tempo,,,,,5,1,0,,763638,,,,,,,
71040,note_on,,,,,0,0,0,,,,,0,,,89,127
71118,note_on,,,,,0,0,1,,,,,0,,,47,0
71118,note_on,,,,,78,0,1,,,,,0,,,35,0
71146,note_on,,,,,106,0,0,,,,,0,,,89,0
71146,note_on,,,,,0,0,0,,,,,0,,,97,0
71146,note_on,,,,,0,0,0,,,,,0,,,101,0
71199,set_tempo,,,,,53,1,0,,545456,,,,,,,
71200,note_on,,,,,1,0,0,,,,,0,,,97,112
71275,note_on,,,,,75,0,0,,,,,0,,,97,0
71280,note_on,,,,,5,0,0,,,,,0,,,89,112
71355,note_on,,,,,75,0,0,,,,,0,,,89,0
71360,note_on,,,,,5,0,0,,,,,0,,,92,112
71400,note_on,,,,,0,0,1,,,,,0,,,77,112
71400,note_on,,,,,282,0,1,,,,,0,,,65,112
71400,note_on,,,,,0,0,1,,,,,0,,,68,112
71400,note_on,,,,,0,0,1,,,,,0,,,73,112
71435,note_on,,,,,75,0,0,,,,,0,,,92,0
71440,note_on,,,,,5,0,0,,,,,0,,,85,112
71513,note_on,,,,,0,0,1,,,,,0,,,68,0
71513,note_on,,,,,0,0,1,,,,,0,,,73,0
71513,note_on,,,,,0,0,1,,,,,0,,,77,0
71513,note_on,,,,,113,0,1,,,,,0,,,65,0
71515,note_on,,,,,75,0,0,,,,,0,,,85,0
71520,note_on,,,,,7,0,1,,,,,0,,,65,112
71520,note_on,,,,,0,0,1,,,,,0,,,77,112
71520,note_on,,,,,0,0,1,,,,,0,,,73,112
71520,note_on,,,,,0,0,1,,,,,0,,,68,112
71520,note_on,,,,,5,0,0,,,,,0,,,89,112
71595,note_on,,,,,75,0,0,,,,,0,,,89,0
71600,note_on,,,,,5,0,0,,,,,0,,,80,112
71675,note_on,,,,,75,0,0,,,,,0,,,80,0
71680,note_on,,,,,5,0,0,,,,,0,,,85,112
71755,note_on,,,,,75,0,0,,,,,0,,,85,0
71760,note_on,,,,,5,0,0,,,,,0,,,77,112
71835,note_on,,,,,75,0,0,,,,,0,,,77,0
71840,note_on,,,,,5,0,0,,,,,0,,,80,112
71915,note_on,,,,,75,0,0,,,,,0,,,80,0
71920,note_on,,,,,5,0,0,,,,,0,,,73,112
71975,note_on,,,,,0,0,1,,,,,0,,,77,0
71975,note_on,,,,,0,0,1,,,,,0,,,73,0
71975,note_on,,,,,455,0,1,,,,,0,,,65,0
71975,note_on,,,,,0,0,1,,,,,0,,,68,0
71995,note_on,,,,,75,0,0,,,,,0,,,73,0
72000,note_on,,,,,5,0,0,,,,,0,,,77,112
72075,note_on,,,,,75,0,0,,,,,0,,,77,0
72080,note_on,,,,,5,0,0,,,,,0,,,68,112
72155,note_on,,,,,75,0,0,,,,,0,,,68,0
72160,note_on,,,,,5,0,0,,,,,0,,,73,112
72235,note_on,,,,,75,0,0,,,,,0,,,73,0
72240,note_on,,,,,5,0,0,,,,,0,,,65,112
72315,note_on,,,,,75,0,0,,,,,0,,,65,0
72320,note_on,,,,,5,0,0,,,,,0,,,68,112
72395,note_on,,,,,75,0,0,,,,,0,,,68,0
72400,note_on,,,,,5,0,0,,,,,0,,,61,112
72475,note_on,,,,,75,0,0,,,,,0,,,61,0
72480,note_on,,,,,5,0,0,,,,,0,,,65,112
72555,note_on,,,,,75,0,0,,,,,0,,,65,0
72560,note_on,,,,,5,0,0,,,,,0,,,56,112
72635,note_on,,,,,75,0,0,,,,,0,,,56,0
72640,note_on,,,,,5,0,0,,,,,0,,,61,112
72715,note_on,,,,,75,0,0,,,,,0,,,61,0
72720,note_on,,,,,5,0,0,,,,,0,,,53,112
72795,note_on,,,,,75,0,0,,,,,0,,,53,0
72800,note_on,,,,,5,0,0,,,,,0,,,56,112
72875,note_on,,,,,75,0,0,,,,,0,,,56,0
72880,note_on,,,,,5,0,0,,,,,0,,,49,112
72955,note_on,,,,,75,0,0,,,,,0,,,49,0
72960,note_on,,,,,985,0,1,,,,,0,,,53,112
73019,note_on,,,,,59,0,1,,,,,0,,,53,0
73080,note_on,,,,,61,0,1,,,,,0,,,44,112
73139,note_on,,,,,59,0,1,,,,,0,,,44,0
73200,note_on,,,,,61,0,1,,,,,0,,,49,112
73259,note_on,,,,,59,0,1,,,,,0,,,49,0
73320,note_on,,,,,61,0,1,,,,,0,,,41,112
73379,note_on,,,,,59,0,1,,,,,0,,,41,0
73440,note_on,,,,,61,0,1,,,,,0,,,44,112
73499,note_on,,,,,59,0,1,,,,,0,,,44,0
73560,set_tempo,,,,,605,1,0,,857140,,,,,,,
73560,note_on,,,,,61,0,1,,,,,0,,,37,112
73619,note_on,,,,,59,0,1,,,,,0,,,37,0
73680,note_on,,,,,61,0,1,,,,,0,,,41,112
73739,note_on,,,,,59,0,1,,,,,0,,,41,0
73860,note_on,,,,,121,0,1,,,,,0,,,35,112
73916,note_on,,,,,56,0,1,,,,,0,,,35,0
73920,note_on,,,,,4,0,1,,,,,0,,,35,112
74071,note_on,,,,,151,0,1,,,,,0,,,35,0
74080,set_tempo,,,,,520,1,0,,599999,,,,,,,
74080,note_on,,,,,0,0,0,,,,,0,,,52,112
74080,note_on,,,,,0,0,0,,,,,0,,,55,112
74080,note_on,,,,,9,0,1,,,,,0,,,36,112
74080,note_on,,,,,0,0,0,,,,,0,,,59,112
74231,note_on,,,,,151,0,1,,,,,0,,,36,0
74231,note_on,,,,,151,0,0,,,,,0,,,52,0
74231,note_on,,,,,0,0,0,,,,,0,,,59,0
74231,note_on,,,,,0,0,0,,,,,0,,,55,0
74240,note_on,,,,,0,0,0,,,,,0,,,60,112
74240,note_on,,,,,9,0,0,,,,,0,,,52,112
74240,note_on,,,,,0,0,0,,,,,0,,,55,112
74391,note_on,,,,,151,0,0,,,,,0,,,52,0
74391,note_on,,,,,0,0,0,,,,,0,,,60,0
74391,note_on,,,,,0,0,0,,,,,0,,,55,0
74400,note_on,,,,,169,0,1,,,,,0,,,34,112
74551,note_on,,,,,151,0,1,,,,,0,,,34,0
74560,note_on,,,,,0,0,0,,,,,0,,,56,112
74560,note_on,,,,,0,0,0,,,,,0,,,62,112
74560,note_on,,,,,9,0,1,,,,,0,,,35,112
74560,note_on,,,,,169,0,0,,,,,0,,,53,112
74711,note_on,,,,,151,0,0,,,,,0,,,53,0
74711,note_on,,,,,0,0,0,,,,,0,,,56,0
74711,note_on,,,,,151,0,1,,,,,0,,,35,0
74711,note_on,,,,,0,0,0,,,,,0,,,62,0
74720,note_on,,,,,9,0,0,,,,,0,,,53,112
74720,note_on,,,,,0,0,0,,,,,0,,,61,112
74720,note_on,,,,,0,0,0,,,,,0,,,56,112
74871,note_on,,,,,0,0,0,,,,,0,,,61,0
74871,note_on,,,,,0,0,0,,,,,0,,,56,0
74871,note_on,,,,,151,0,0,,,,,0,,,53,0
74880,note_on,,,,,169,0,1,,,,,0,,,32,112
74880,set_tempo,,,,,9,1,0,,545456,,,,,,,
75031,note_on,,,,,151,0,1,,,,,0,,,32,0
75040,note_on,,,,,0,0,0,,,,,0,,,60,112
75040,note_on,,,,,160,0,0,,,,,0,,,54,112
75040,note_on,,,,,0,0,0,,,,,0,,,57,112
75040,note_on,,,,,9,0,1,,,,,0,,,33,112
75191,note_on,,,,,0,0,0,,,,,0,,,60,0
75191,note_on,,,,,0,0,0,,,,,0,,,57,0
75191,note_on,,,,,151,0,0,,,,,0,,,54,0
75191,note_on,,,,,151,0,1,,,,,0,,,33,0
75200,note_on,,,,,9,0,0,,,,,0,,,54,112
75200,note_on,,,,,0,0,0,,,,,0,,,57,112
75200,note_on,,,,,0,0,0,,,,,0,,,61,112
75351,note_on,,,,,0,0,0,,,,,0,,,61,0
75351,note_on,,,,,151,0,0,,,,,0,,,54,0
75351,note_on,,,,,0,0,0,,,,,0,,,57,0
75360,note_on,,,,,169,0,1,,,,,0,,,34,112
75511,note_on,,,,,151,0,1,,,,,0,,,34,0
75520,note_on,,,,,0,0,0,,,,,0,,,56,112
75520,note_on,,,,,0,0,0,,,,,0,,,63,112
75520,note_on,,,,,169,0,0,,,,,0,,,53,112
75520,note_on,,,,,9,0,1,,,,,0,,,35,112
75671,note_on,,,,,151,0,1,,,,,0,,,35,0
75671,note_on,,,,,0,0,0,,,,,0,,,56,0
75671,note_on,,,,,151,0,0,,,,,0,,,53,0
75671,note_on,,,,,0,0,0,,,,,0,,,63,0
75680,note_on,,,,,9,0,0,,,,,0,,,53,112
75680,note_on,,,,,0,0,0,,,,,0,,,56,112
75680,note_on,,,,,0,0,0,,,,,0,,,61,112
75831,note_on,,,,,0,0,0,,,,,0,,,56,0
75831,note_on,,,,,0,0,0,,,,,0,,,61,0
75831,note_on,,,,,151,0,0,,,,,0,,,53,0
75840,note_on,,,,,0,0,1,,,,,0,,,47,112
75840,note_on,,,,,169,0,1,,,,,0,,,35,112
75840,set_tempo,,,,,9,1,0,,500000,,,,,,,
75991,note_on,,,,,0,0,1,,,,,0,,,47,0
75991,note_on,,,,,151,0,1,,,,,0,,,35,0
76000,note_on,,,,,0,0,0,,,,,0,,,67,112
76000,note_on,,,,,9,0,1,,,,,0,,,36,112
76000,note_on,,,,,0,0,0,,,,,0,,,71,112
76000,note_on,,,,,0,0,0,,,,,0,,,64,112
76000,note_on,,,,,160,0,0,,,,,0,,,59,112
76000,note_on,,,,,0,0,1,,,,,0,,,48,112
76151,note_on,,,,,0,0,0,,,,,0,,,67,0
76151,note_on,,,,,151,0,0,,,,,0,,,59,0
76151,note_on,,,,,0,0,0,,,,,0,,,71,0
76151,note_on,,,,,0,0,0,,,,,0,,,64,0
76151,note_on,,,,,151,0,1,,,,,0,,,36,0
76151,note_on,,,,,0,0,1,,,,,0,,,48,0
76160,note_on,,,,,0,0,0,,,,,0,,,72,112
76160,note_on,,,,,0,0,0,,,,,0,,,67,112
76160,note_on,,,,,9,0,0,,,,,0,,,60,112
76160,note_on,,,,,0,0,0,,,,,0,,,64,112
76311,note_on,,,,,151,0,0,,,,,0,,,60,0
76311,note_on,,,,,0,0,0,,,,,0,,,67,0
76311,note_on,,,,,0,0,0,,,,,0,,,72,0
76311,note_on,,,,,0,0,0,,,,,0,,,64,0
76320,note_on,,,,,169,0,1,,,,,0,,,34,112
76320,note_on,,,,,0,0,1,,,,,0,,,46,112
76471,note_on,,,,,0,0,1,,,,,0,,,46,0
76471,note_on,,,,,151,0,1,,,,,0,,,34,0
76480,note_on,,,,,0,0,0,,,,,0,,,74,112
76480,note_on,,,,,0,0,0,,,,,0,,,68,112
76480,set_tempo,,,,,169,1,0,,461538,,,,,,,
76480,note_on,,,,,9,0,1,,,,,0,,,35,112
76480,note_on,,,,,0,0,0,,,,,0,,,62,112
76480,note_on,,,,,0,0,1,,,,,0,,,47,112
76480,note_on,,,,,0,0,0,,,,,0,,,65,112
76631,note_on,,,,,0,0,1,,,,,0,,,47,0
76631,note_on,,,,,151,0,1,,,,,0,,,35,0
76631,note_on,,,,,0,0,0,,,,,0,,,65,0
76631,note_on,,,,,0,0,0,,,,,0,,,68,0
76631,note_on,,,,,0,0,0,,,,,0,,,74,0
76631,note_on,,,,,151,0,0,,,,,0,,,62,0
76640,note_on,,,,,0,0,0,,,,,0,,,65,112
76640,note_on,,,,,9,0,0,,,,,0,,,61,112
76640,note_on,,,,,0,0,0,,,,,0,,,68,112
76640,note_on,,,,,0,0,0,,,,,0,,,73,112
76791,note_on,,,,,0,0,0,,,,,0,,,68,0
76791,note_on,,,,,151,0,0,,,,,0,,,61,0
76791,note_on,,,,,0,0,0,,,,,0,,,65,0
76791,note_on,,,,,0,0,0,,,,,0,,,73,0
76800,note_on,,,,,169,0,1,,,,,0,,,32,112
76800,note_on,,,,,0,0,1,,,,,0,,,44,112
76800,set_tempo,,,,,9,1,0,,428572,,,,,,,
76951,note_on,,,,,0,0,1,,,,,0,,,44,0
76951,note_on,,,,,151,0,1,,,,,0,,,32,0
76960,note_on,,,,,9,0,1,,,,,0,,,33,112
76960,note_on,,,,,0,0,0,,,,,0,,,72,112
76960,note_on,,,,,160,0,0,,,,,0,,,60,112
76960,note_on,,,,,0,0,0,,,,,0,,,66,112
76960,note_on,,,,,0,0,1,,,,,0,,,45,112
77111,note_on,,,,,0,0,1,,,,,0,,,45,0
77111,note_on,,,,,151,0,1,,,,,0,,,33,0
77111,note_on,,,,,151,0,0,,,,,0,,,60,0
77111,note_on,,,,,0,0,0,,,,,0,,,66,0
77111,note_on,,,,,0,0,0,,,,,0,,,72,0
77120,note_on,,,,,0,0,0,,,,,0,,,66,112
77120,note_on,,,,,0,0,0,,,,,0,,,73,112
77120,note_on,,,,,9,0,0,,,,,0,,,61,112
77271,note_on,,,,,0,0,0,,,,,0,,,66,0
77271,note_on,,,,,0,0,0,,,,,0,,,73,0
77271,note_on,,,,,151,0,0,,,,,0,,,61,0
77280,note_on,,,,,0,0,1,,,,,0,,,46,112
77280,note_on,,,,,169,0,1,,,,,0,,,34,112
77431,note_on,,,,,0,0,1,,,,,0,,,46,0
77431,note_on,,,,,151,0,1,,,,,0,,,34,0
77440,set_tempo,,,,,169,1,0,,352942,,,,,,,
77440,note_on,,,,,0,0,1,,,,,0,,,47,112
77440,note_on,,,,,0,0,0,,,,,0,,,75,112
77440,note_on,,,,,0,0,0,,,,,0,,,68,112
77440,note_on,,,,,0,0,0,,,,,0,,,65,112
77440,note_on,,,,,0,0,0,,,,,0,,,63,112
77440,note_on,,,,,9,0,1,,,,,0,,,35,112
77591,note_on,,,,,151,0,1,,,,,0,,,35,0
77591,note_on,,,,,0,0,0,,,,,0,,,75,0
77591,note_on,,,,,0,0,1,,,,,0,,,47,0
77591,note_on,,,,,151,0,0,,,,,0,,,63,0
77591,note_on,,,,,0,0,0,,,,,0,,,65,0
77591,note_on,,,,,0,0,0,,,,,0,,,68,0
77600,note_on,,,,,0,0,0,,,,,0,,,68,112
77600,note_on,,,,,0,0,0,,,,,0,,,73,112
77600,note_on,,,,,0,0,0,,,,,0,,,65,112
77600,note_on,,,,,9,0,0,,,,,0,,,61,112
77751,note_on,,,,,0,0,0,,,,,0,,,68,0
77751,note_on,,,,,0,0,0,,,,,0,,,65,0
77751,note_on,,,,,151,0,0,,,,,0,,,61,0
77751,note_on,,,,,0,0,0,,,,,0,,,73,0
77760,note_on,,,,,0,0,1,,,,,0,,,47,112
77760,note_on,,,,,169,0,1,,,,,0,,,35,112
77911,note_on,,,,,151,0,1,,,,,0,,,35,0
77911,note_on,,,,,0,0,1,,,,,0,,,47,0
77920,note_on,,,,,0,0,1,,,,,0,,,48,112
77920,note_on,,,,,0,0,0,,,,,0,,,83,112
77920,note_on,,,,,0,0,0,,,,,0,,,76,112
77920,note_on,,,,,9,0,1,,,,,0,,,36,112
77920,note_on,,,,,169,0,0,,,,,0,,,71,112
77920,note_on,,,,,0,0,0,,,,,0,,,79,112
78071,note_on,,,,,0,0,1,,,,,0,,,48,0
78071,note_on,,,,,151,0,0,,,,,0,,,71,0
78071,note_on,,,,,151,0,1,,,,,0,,,36,0
78071,note_on,,,,,0,0,0,,,,,0,,,83,0
78071,note_on,,,,,0,0,0,,,,,0,,,79,0
78071,note_on,,,,,0,0,0,,,,,0,,,76,0
78080,note_on,,,,,0,0,0,,,,,0,,,84,112
78080,note_on,,,,,0,0,0,,,,,0,,,79,112
78080,note_on,,,,,0,0,0,,,,,0,,,76,112
78080,note_on,,,,,9,0,0,,,,,0,,,72,112
78231,note_on,,,,,0,0,0,,,,,0,,,84,0
78231,note_on,,,,,0,0,0,,,,,0,,,79,0
78231,note_on,,,,,0,0,0,,,,,0,,,76,0
78231,note_on,,,,,151,0,0,,,,,0,,,72,0
78240,note_on,,,,,169,0,1,,,,,0,,,34,112
78240,note_on,,,,,0,0,1,,,,,0,,,46,112
78391,note_on,,,,,151,0,1,,,,,0,,,34,0
78391,note_on,,,,,0,0,1,,,,,0,,,46,0
78400,note_on,,,,,9,0,1,,,,,0,,,35,112
78400,note_on,,,,,0,0,0,,,,,0,,,77,112
78400,note_on,,,,,0,0,0,,,,,0,,,80,112
78400,note_on,,,,,0,0,0,,,,,0,,,86,112
78400,note_on,,,,,169,0,0,,,,,0,,,74,112
78400,note_on,,,,,0,0,1,,,,,0,,,47,112
78551,note_on,,,,,0,0,1,,,,,0,,,47,0
78551,note_on,,,,,0,0,0,,,,,0,,,86,0
78551,note_on,,,,,151,0,1,,,,,0,,,35,0
78551,note_on,,,,,151,0,0,,,,,0,,,74,0
78551,note_on,,,,,0,0,0,,,,,0,,,77,0
78551,note_on,,,,,0,0,0,,,,,0,,,80,0
78560,note_on,,,,,9,0,0,,,,,0,,,73,112
78560,note_on,,,,,0,0,0,,,,,0,,,77,112
78560,note_on,,,,,0,0,0,,,,,0,,,80,112
78560,note_on,,,,,0,0,0,,,,,0,,,85,112
78711,note_on,,,,,151,0,0,,,,,0,,,73,0
78711,note_on,,,,,0,0,0,,,,,0,,,80,0
78711,note_on,,,,,0,0,0,,,,,0,,,85,0
78711,note_on,,,,,0,0,0,,,,,0,,,77,0
78720,note_on,,,,,169,0,1,,,,,0,,,32,112
78720,note_on,,,,,0,0,1,,,,,0,,,44,112
78871,note_on,,,,,0,0,1,,,,,0,,,44,0
78871,note_on,,,,,151,0,1,,,,,0,,,32,0
78880,note_on,,,,,0,0,1,,,,,0,,,45,112
78880,note_on,,,,,0,0,0,,,,,0,,,84,112
78880,note_on,,,,,9,0,1,,,,,0,,,33,112
78880,note_on,,,,,169,0,0,,,,,0,,,72,112
78880,note_on,,,,,0,0,0,,,,,0,,,78,112
79031,note_on,,,,,0,0,0,,,,,0,,,84,0
79031,note_on,,,,,151,0,0,,,,,0,,,72,0
79031,note_on,,,,,151,0,1,,,,,0,,,33,0
79031,note_on,,,,,0,0,1,,,,,0,,,45,0
79031,note_on,,,,,0,0,0,,,,,0,,,78,0
79040,note_on,,,,,9,0,0,,,,,0,,,73,112
79040,note_on,,,,,0,0,0,,,,,0,,,85,112
79040,note_on,,,,,0,0,0,,,,,0,,,78,112
79191,note_on,,,,,151,0,0,,,,,0,,,73,0
79191,note_on,,,,,0,0,0,,,,,0,,,78,0
79191,note_on,,,,,0,0,0,,,,,0,,,85,0
79200,note_on,,,,,169,0,1,,,,,0,,,34,112
79200,note_on,,,,,0,0,1,,,,,0,,,46,112
79351,note_on,,,,,151,0,1,,,,,0,,,34,0
79351,note_on,,,,,0,0,1,,,,,0,,,46,0
79360,note_on,,,,,169,0,0,,,,,0,,,75,112
79360,note_on,,,,,0,0,0,,,,,0,,,77,112
79360,note_on,,,,,9,0,1,,,,,0,,,35,112
79360,note_on,,,,,0,0,1,,,,,0,,,47,112
79360,note_on,,,,,0,0,0,,,,,0,,,87,112
79360,note_on,,,,,0,0,0,,,,,0,,,80,112
79511,note_on,,,,,0,0,0,,,,,0,,,87,0
79511,note_on,,,,,0,0,0,,,,,0,,,80,0
79511,note_on,,,,,0,0,0,,,,,0,,,77,0
79511,note_on,,,,,151,0,0,,,,,0,,,75,0
79511,note_on,,,,,151,0,1,,,,,0,,,35,0
79511,note_on,,,,,0,0,1,,,,,0,,,47,0
79520,note_on,,,,,0,0,0,,,,,0,,,77,112
79520,note_on,,,,,0,0,0,,,,,0,,,85,112
79520,note_on,,,,,0,0,0,,,,,0,,,80,112
79520,note_on,,,,,9,0,0,,,,,0,,,73,112
79671,note_on,,,,,151,0,0,,,,,0,,,73,0
79671,note_on,,,,,0,0,0,,,,,0,,,77,0
79671,note_on,,,,,0,0,0,,,,,0,,,80,0
79671,note_on,,,,,0,0,0,,,,,0,,,85,0
79680,note_on,,,,,0,0,1,,,,,0,,,47,112
79680,note_on,,,,,169,0,1,,,,,0,,,35,112
79831,note_on,,,,,0,0,1,,,,,0,,,47,0
79831,note_on,,,,,151,0,1,,,,,0,,,35,0
79840,note_on,,,,,0,0,0,,,,,0,,,95,112
79840,note_on,,,,,169,0,0,,,,,0,,,83,112
79840,note_on,,,,,0,0,0,,,,,0,,,88,112
79840,note_on,,,,,0,0,1,,,,,0,,,48,112
79840,note_on,,,,,0,0,0,,,,,0,,,91,112
79840,note_on,,,,,9,0,1,,,,,0,,,36,112
79991,note_on,,,,,0,0,0,,,,,0,,,88,0
79991,note_on,,,,,0,0,0,,,,,0,,,91,0
79991,note_on,,,,,151,0,1,,,,,0,,,36,0
79991,note_on,,,,,151,0,0,,,,,0,,,83,0
79991,note_on,,,,,0,0,1,,,,,0,,,48,0
79991,note_on,,,,,0,0,0,,,,,0,,,95,0
80000,note_on,,,,,0,0,0,,,,,0,,,91,112
80000,note_on,,,,,9,0,0,,,,,0,,,84,112
80000,note_on,,,,,0,0,0,,,,,0,,,96,112
80000,note_on,,,,,0,0,0,,,,,0,,,88,112
80151,note_on,,,,,0,0,0,,,,,0,,,96,0
80151,note_on,,,,,0,0,0,,,,,0,,,91,0
80151,note_on,,,,,151,0,0,,,,,0,,,84,0
80151,note_on,,,,,0,0,0,,,,,0,,,88,0
80160,note_on,,,,,0,0,1,,,,,0,,,46,112
80160,note_on,,,,,169,0,1,,,,,0,,,34,112
80311,note_on,,,,,0,0,1,,,,,0,,,46,0
80311,note_on,,,,,151,0,1,,,,,0,,,34,0
80320,note_on,,,,,0,0,0,,,,,0,,,98,112
80320,note_on,,,,,0,0,0,,,,,0,,,89,112
80320,note_on,,,,,0,0,1,,,,,0,,,47,112
80320,note_on,,,,,0,0,0,,,,,0,,,92,112
80320,note_on,,,,,169,0,0,,,,,0,,,86,112
80320,note_on,,,,,9,0,1,,,,,0,,,35,112
80471,note_on,,,,,151,0,0,,,,,0,,,86,0
80471,note_on,,,,,0,0,1,,,,,0,,,47,0
80471,note_on,,,,,151,0,1,,,,,0,,,35,0
80471,note_on,,,,,0,0,0,,,,,0,,,89,0
80471,note_on,,,,,0,0,0,,,,,0,,,92,0
80471,note_on,,,,,0,0,0,,,,,0,,,98,0
80480,note_on,,,,,9,0,0,,,,,0,,,85,112
80480,note_on,,,,,0,0,0,,,,,0,,,89,112
80480,note_on,,,,,0,0,0,,,,,0,,,92,112
80480,note_on,,,,,0,0,0,,,,,0,,,97,112
80631,note_on,,,,,0,0,0,,,,,0,,,97,0
80631,note_on,,,,,151,0,0,,,,,0,,,85,0
80631,note_on,,,,,0,0,0,,,,,0,,,92,0
80631,note_on,,,,,0,0,0,,,,,0,,,89,0
80640,note_on,,,,,169,0,1,,,,,0,,,32,112
80640,note_on,,,,,0,0,1,,,,,0,,,44,112
80791,note_on,,,,,0,0,1,,,,,0,,,44,0
80791,note_on,,,,,151,0,1,,,,,0,,,32,0
80800,note_on,,,,,0,0,0,,,,,0,,,90,112
80800,note_on,,,,,0,0,0,,,,,0,,,96,112
80800,note_on,,,,,169,0,0,,,,,0,,,84,112
80800,note_on,,,,,0,0,1,,,,,0,,,45,112
80800,note_on,,,,,9,0,1,,,,,0,,,33,112
80951,note_on,,,,,151,0,0,,,,,0,,,84,0
80951,note_on,,,,,0,0,1,,,,,0,,,45,0
80951,note_on,,,,,0,0,0,,,,,0,,,96,0
80951,note_on,,,,,151,0,1,,,,,0,,,33,0
80951,note_on,,,,,0,0,0,,,,,0,,,90,0
80960,note_on,,,,,0,0,0,,,,,0,,,90,112
80960,note_on,,,,,9,0,0,,,,,0,,,85,112
80960,note_on,,,,,0,0,0,,,,,0,,,97,112
81111,note_on,,,,,151,0,0,,,,,0,,,85,0
81111,note_on,,,,,0,0,0,,,,,0,,,90,0
81111,note_on,,,,,0,0,0,,,,,0,,,97,0
81120,note_on,,,,,0,0,1,,,,,0,,,46,112
81120,note_on,,,,,169,0,1,,,,,0,,,34,112
81271,note_on,,,,,0,0,1,,,,,0,,,46,0
81271,note_on,,,,,151,0,1,,,,,0,,,34,0
81280,note_on,,,,,0,0,0,,,,,0,,,99,112
81280,note_on,,,,,0,0,1,,,,,0,,,47,112
81280,note_on,,,,,9,0,1,,,,,0,,,35,112
81280,note_on,,,,,169,0,0,,,,,0,,,87,112
81280,note_on,,,,,0,0,0,,,,,0,,,89,112
81280,note_on,,,,,0,0,0,,,,,0,,,92,112
81431,note_on,,,,,151,0,0,,,,,0,,,87,0
81431,note_on,,,,,0,0,0,,,,,0,,,99,0
81431,note_on,,,,,0,0,0,,,,,0,,,89,0
81431,note_on,,,,,151,0,1,,,,,0,,,35,0
81431,note_on,,,,,0,0,0,,,,,0,,,92,0
81431,note_on,,,,,0,0,1,,,,,0,,,47,0
81440,note_on,,,,,9,0,0,,,,,0,,,85,112
81440,note_on,,,,,0,0,0,,,,,0,,,92,112
81440,note_on,,,,,0,0,0,,,,,0,,,97,112
81440,note_on,,,,,0,0,0,,,,,0,,,89,112
81591,note_on,,,,,151,0,0,,,,,0,,,85,0
81591,note_on,,,,,0,0,0,,,,,0,,,97,0
81591,note_on,,,,,0,0,0,,,,,0,,,92,0
81591,note_on,,,,,0,0,0,,,,,0,,,89,0
81600,time_signature,5,8,24,8,9,1,0,,,,,,,,,
81600,note_on,,,,,169,0,1,,,,,0,,,36,112
81600,set_tempo,,,,,0,1,0,,857140,,,,,,,
81600,note_on,,,,,0,0,0,,,,,0,,,82,112
81600,note_on,,,,,0,0,1,,,,,0,,,48,112
81642,note_on,,,,,42,0,0,,,,,0,,,88,112
81678,note_on,,,,,78,0,1,,,,,0,,,36,0
81678,note_on,,,,,0,0,1,,,,,0,,,48,0
81684,note_on,,,,,42,0,0,,,,,0,,,91,112
81726,note_on,,,,,42,0,0,,,,,0,,,97,112
81839,note_on,,,,,0,0,0,,,,,0,,,97,0
81839,note_on,,,,,113,0,0,,,,,0,,,82,0
81839,note_on,,,,,0,0,0,,,,,0,,,88,0
81839,note_on,,,,,0,0,0,,,,,0,,,91,0
81840,set_tempo,,,,,1,1,0,,666667,,,,,,,
82080,note_on,,,,,0,0,1,,,,,0,,,68,127
82080,note_on,,,,,402,0,1,,,,,0,,,65,127
82080,note_on,,,,,0,0,1,,,,,0,,,73,127
82132,note_on,,,,,52,0,1,,,,,0,,,65,0
82132,note_on,,,,,0,0,1,,,,,0,,,73,0
82132,note_on,,,,,0,0,1,,,,,0,,,68,0
82160,note_on,,,,,0,0,1,,,,,0,,,75,112
82160,note_on,,,,,0,0,1,,,,,0,,,70,112
82160,note_on,,,,,28,0,1,,,,,0,,,67,112
82235,note_on,,,,,0,0,1,,,,,0,,,70,0
82235,note_on,,,,,0,0,1,,,,,0,,,75,0
82235,note_on,,,,,75,0,1,,,,,0,,,67,0
82240,note_on,,,,,0,0,1,,,,,0,,,68,112
82240,note_on,,,,,0,0,1,,,,,0,,,73,112
82240,note_on,,,,,5,0,1,,,,,0,,,65,112
82315,note_on,,,,,0,0,1,,,,,0,,,68,0
82315,note_on,,,,,0,0,1,,,,,0,,,73,0
82315,note_on,,,,,75,0,1,,,,,0,,,65,0
82320,note_on,,,,,0,0,1,,,,,0,,,72,112
82320,note_on,,,,,0,0,1,,,,,0,,,67,112
82320,note_on,,,,,5,0,1,,,,,0,,,64,112
82395,note_on,,,,,0,0,1,,,,,0,,,72,0
82395,note_on,,,,,75,0,1,,,,,0,,,64,0
82395,note_on,,,,,0,0,1,,,,,0,,,67,0
82400,note_on,,,,,0,0,1,,,,,0,,,68,112
82400,note_on,,,,,5,0,1,,,,,0,,,65,112
82400,note_on,,,,,0,0,1,,,,,0,,,73,112
82475,note_on,,,,,0,0,1,,,,,0,,,68,0
82475,note_on,,,,,75,0,1,,,,,0,,,65,0
82475,note_on,,,,,0,0,1,,,,,0,,,73,0
82480,note_on,,,,,0,0,1,,,,,0,,,67,112
82480,note_on,,,,,0,0,1,,,,,0,,,72,112
82480,note_on,,,,,5,0,1,,,,,0,,,64,112
82555,note_on,,,,,0,0,1,,,,,0,,,67,0
82555,note_on,,,,,75,0,1,,,,,0,,,64,0
82555,note_on,,,,,0,0,1,,,,,0,,,72,0
82560,note_on,,,,,5,0,1,,,,,0,,,61,112
82560,note_on,,,,,0,0,1,,,,,0,,,70,112
82560,note_on,,,,,0,0,1,,,,,0,,,65,112
82635,note_on,,,,,75,0,1,,,,,0,,,61,0
82635,note_on,,,,,0,0,1,,,,,0,,,65,0
82635,note_on,,,,,0,0,1,,,,,0,,,70,0
82640,note_on,,,,,0,0,1,,,,,0,,,67,112
82640,note_on,,,,,0,0,1,,,,,0,,,72,112
82640,note_on,,,,,5,0,1,,,,,0,,,64,112
82715,note_on,,,,,75,0,1,,,,,0,,,64,0
82715,note_on,,,,,0,0,1,,,,,0,,,67,0
82715,note_on,,,,,0,0,1,,,,,0,,,72,0
82720,note_on,,,,,5,0,1,,,,,0,,,61,112
82720,note_on,,,,,0,0,1,,,,,0,,,65,112
82720,note_on,,,,,0,0,1,,,,,0,,,70,112
82795,note_on,,,,,75,0,1,,,,,0,,,61,0
82795,note_on,,,,,0,0,1,,,,,0,,,70,0
82795,note_on,,,,,0,0,1,,,,,0,,,65,0
82800,time_signature,2,4,24,8,960,1,0,,,,,,,,,
82800,note_on,,,,,0,0,0,,,,,0,,,68,112
82800,note_on,,,,,0,0,0,,,,,0,,,60,112
82800,note_on,,,,,0,0,0,,,,,0,,,63,112
82875,note_on,,,,,75,0,0,,,,,0,,,60,0
82875,note_on,,,,,0,0,0,,,,,0,,,63,0
82875,note_on,,,,,0,0,0,,,,,0,,,68,0
82880,note_on,,,,,5,0,0,,,,,0,,,61,112
82880,note_on,,,,,0,0,0,,,,,0,,,65,112
82880,note_on,,,,,0,0,0,,,,,0,,,70,112
82955,note_on,,,,,75,0,0,,,,,0,,,61,0
82955,note_on,,,,,0,0,0,,,,,0,,,65,0
82955,note_on,,,,,0,0,0,,,,,0,,,70,0
82960,note_on,,,,,5,0,0,,,,,0,,,60,112
82960,note_on,,,,,0,0,0,,,,,0,,,63,112
82960,note_on,,,,,0,0,0,,,,,0,,,68,112
83035,note_on,,,,,0,0,0,,,,,0,,,68,0
83035,note_on,,,,,0,0,0,,,,,0,,,63,0
83035,note_on,,,,,75,0,0,,,,,0,,,60,0
83040,note_on,,,,,0,0,0,,,,,0,,,61,112
83040,note_on,,,,,0,0,0,,,,,0,,,67,112
83040,note_on,,,,,5,0,0,,,,,0,,,58,112
83115,note_on,,,,,0,0,0,,,,,0,,,67,0
83115,note_on,,,,,0,0,0,,,,,0,,,61,0
83115,note_on,,,,,75,0,0,,,,,0,,,58,0
83120,note_on,,,,,5,0,0,,,,,0,,,60,112
83120,note_on,,,,,0,0,0,,,,,0,,,68,112
83120,note_on,,,,,0,0,0,,,,,0,,,63,112
83195,note_on,,,,,0,0,0,,,,,0,,,68,0
83195,note_on,,,,,0,0,0,,,,,0,,,63,0
83195,note_on,,,,,75,0,0,,,,,0,,,60,0
83200,note_on,,,,,0,0,0,,,,,0,,,67,112
83200,note_on,,,,,0,0,0,,,,,0,,,61,112
83200,note_on,,,,,5,0,0,,,,,0,,,58,112
83275,note_on,,,,,0,0,0,,,,,0,,,61,0
83275,note_on,,,,,75,0,0,,,,,0,,,58,0
83275,note_on,,,,,0,0,0,,,,,0,,,67,0
83280,note_on,,,,,0,0,0,,,,,0,,,60,112
83280,note_on,,,,,5,0,0,,,,,0,,,56,112
83280,note_on,,,,,0,0,0,,,,,0,,,65,112
83355,note_on,,,,,0,0,0,,,,,0,,,65,0
83355,note_on,,,,,75,0,0,,,,,0,,,56,0
83355,note_on,,,,,0,0,0,,,,,0,,,60,0
83360,note_on,,,,,0,0,0,,,,,0,,,61,112
83360,note_on,,,,,0,0,0,,,,,0,,,67,112
83360,note_on,,,,,5,0,0,,,,,0,,,58,112
83435,note_on,,,,,0,0,0,,,,,0,,,67,0
83435,note_on,,,,,0,0,0,,,,,0,,,61,0
83435,note_on,,,,,75,0,0,,,,,0,,,58,0
83440,note_on,,,,,0,0,0,,,,,0,,,60,112
83440,note_on,,,,,5,0,0,,,,,0,,,56,112
83440,note_on,,,,,0,0,0,,,,,0,,,65,112
83515,note_on,,,,,0,0,0,,,,,0,,,60,0
83515,note_on,,,,,0,0,0,,,,,0,,,65,0
83515,note_on,,,,,75,0,0,,,,,0,,,56,0
83520,note_on,,,,,0,0,0,,,,,0,,,64,112
83520,note_on,,,,,5,0,0,,,,,0,,,55,112
83520,note_on,,,,,0,0,0,,,,,0,,,58,112
83595,note_on,,,,,0,0,0,,,,,0,,,64,0
83595,note_on,,,,,0,0,0,,,,,0,,,58,0
83595,note_on,,,,,75,0,0,,,,,0,,,55,0
83600,note_on,,,,,0,0,0,,,,,0,,,65,112
83600,note_on,,,,,0,0,0,,,,,0,,,60,112
83600,note_on,,,,,5,0,0,,,,,0,,,56,112
83675,note_on,,,,,75,0,0,,,,,0,,,56,0
83675,note_on,,,,,0,0,0,,,,,0,,,65,0
83675,note_on,,,,,0,0,0,,,,,0,,,60,0
83680,note_on,,,,,0,0,0,,,,,0,,,64,112
83680,note_on,,,,,0,0,0,,,,,0,,,58,112
83680,note_on,,,,,5,0,0,,,,,0,,,55,112
83755,note_on,,,,,75,0,0,,,,,0,,,55,0
83755,note_on,,,,,0,0,0,,,,,0,,,64,0
83755,note_on,,,,,0,0,0,,,,,0,,,58,0
83760,note_on,,,,,965,0,1,,,,,0,,,53,127
83760,note_on,,,,,0,0,1,,,,,0,,,56,127
83760,note_on,,,,,0,0,1,,,,,0,,,61,127
83839,note_on,,,,,0,0,1,,,,,0,,,56,0
83839,note_on,,,,,0,0,1,,,,,0,,,61,0
83839,note_on,,,,,79,0,1,,,,,0,,,53,0
83840,note_on,,,,,1,0,1,,,,,0,,,55,112
83840,note_on,,,,,0,0,1,,,,,0,,,58,112
83840,note_on,,,,,0,0,1,,,,,0,,,63,112
83915,note_on,,,,,0,0,1,,,,,0,,,58,0
83915,note_on,,,,,75,0,1,,,,,0,,,55,0
83915,note_on,,,,,0,0,1,,,,,0,,,63,0
83920,note_on,,,,,5,0,1,,,,,0,,,53,112
83920,note_on,,,,,0,0,1,,,,,0,,,61,112
83920,note_on,,,,,0,0,1,,,,,0,,,56,112
83995,note_on,,,,,0,0,1,,,,,0,,,56,0
83995,note_on,,,,,0,0,1,,,,,0,,,61,0
83995,note_on,,,,,75,0,1,,,,,0,,,53,0
84000,note_on,,,,,0,0,1,,,,,0,,,55,112
84000,note_on,,,,,0,0,1,,,,,0,,,60,112
84000,note_on,,,,,5,0,1,,,,,0,,,52,112
84075,note_on,,,,,0,0,1,,,,,0,,,55,0
84075,note_on,,,,,0,0,1,,,,,0,,,60,0
84075,note_on,,,,,75,0,1,,,,,0,,,52,0
84080,note_on,,,,,5,0,1,,,,,0,,,53,110
84080,note_on,,,,,0,0,1,,,,,0,,,61,110
84080,note_on,,,,,0,0,1,,,,,0,,,56,110
84155,note_on,,,,,75,0,1,,,,,0,,,53,0
84155,note_on,,,,,0,0,1,,,,,0,,,56,0
84155,note_on,,,,,0,0,1,,,,,0,,,61,0
84160,note_on,,,,,0,0,1,,,,,0,,,60,108
84160,note_on,,,,,0,0,1,,,,,0,,,55,108
84160,note_on,,,,,5,0,1,,,,,0,,,52,108
84235,note_on,,,,,75,0,1,,,,,0,,,52,0
84235,note_on,,,,,0,0,1,,,,,0,,,55,0
84235,note_on,,,,,0,0,1,,,,,0,,,60,0
84240,note_on,,,,,5,0,1,,,,,0,,,53,127
84240,note_on,,,,,0,0,1,,,,,0,,,56,127
84240,note_on,,,,,0,0,1,,,,,0,,,61,127
84319,note_on,,,,,0,0,1,,,,,0,,,61,0
84319,note_on,,,,,79,0,1,,,,,0,,,53,0
84319,note_on,,,,,0,0,1,,,,,0,,,56,0
84320,note_on,,,,,0,0,1,,,,,0,,,63,104
84320,note_on,,,,,1,0,1,,,,,0,,,55,104
84320,note_on,,,,,0,0,1,,,,,0,,,58,104
84395,note_on,,,,,75,0,1,,,,,0,,,55,0
84395,note_on,,,,,0,0,1,,,,,0,,,63,0
84395,note_on,,,,,0,0,1,,,,,0,,,58,0
84400,note_on,,,,,5,0,1,,,,,0,,,53,102
84400,note_on,,,,,0,0,1,,,,,0,,,56,102
84400,note_on,,,,,0,0,1,,,,,0,,,61,102
84475,note_on,,,,,0,0,1,,,,,0,,,56,0
84475,note_on,,,,,75,0,1,,,,,0,,,53,0
84475,note_on,,,,,0,0,1,,,,,0,,,61,0
84480,note_on,,,,,0,0,1,,,,,0,,,55,100
84480,note_on,,,,,0,0,1,,,,,0,,,60,100
84480,note_on,,,,,5,0,1,,,,,0,,,52,100
84555,note_on,,,,,75,0,1,,,,,0,,,52,0
84555,note_on,,,,,0,0,1,,,,,0,,,60,0
84555,note_on,,,,,0,0,1,,,,,0,,,55,0
84560,note_on,,,,,0,0,1,,,,,0,,,56,98
84560,note_on,,,,,0,0,1,,,,,0,,,61,98
84560,note_on,,,,,5,0,1,,,,,0,,,53,98
84635,note_on,,,,,0,0,1,,,,,0,,,56,0
84635,note_on,,,,,0,0,1,,,,,0,,,61,0
84635,note_on,,,,,75,0,1,,,,,0,,,53,0
84640,note_on,,,,,5,0,1,,,,,0,,,52,96
84640,note_on,,,,,0,0,1,,,,,0,,,55,96
84640,note_on,,,,,0,0,1,,,,,0,,,60,96
84715,note_on,,,,,75,0,1,,,,,0,,,52,0
84715,note_on,,,,,0,0,1,,,,,0,,,60,0
84715,note_on,,,,,0,0,1,,,,,0,,,55,0
84720,note_on,,,,,0,0,1,,,,,0,,,56,112
84720,note_on,,,,,5,0,1,,,,,0,,,53,112
84720,note_on,,,,,0,0,1,,,,,0,,,61,112
84720,set_tempo,,,,,965,1,0,,705881,,,,,,,
84799,note_on,,,,,79,0,1,,,,,0,,,53,0
84799,note_on,,,,,0,0,1,,,,,0,,,61,0
84799,note_on,,,,,0,0,1,,,,,0,,,56,0
84800,note_on,,,,,0,0,1,,,,,0,,,58,92
84800,note_on,,,,,1,0,1,,,,,0,,,55,92
84800,note_on,,,,,0,0,1,,,,,0,,,63,92
84875,note_on,,,,,75,0,1,,,,,0,,,55,0
84875,note_on,,,,,0,0,1,,,,,0,,,58,0
84875,note_on,,,,,0,0,1,,,,,0,,,63,0
84880,note_on,,,,,5,0,1,,,,,0,,,53,90
84880,note_on,,,,,0,0,1,,,,,0,,,61,90
84880,note_on,,,,,0,0,1,,,,,0,,,56,90
84955,note_on,,,,,0,0,1,,,,,0,,,61,0
84955,note_on,,,,,75,0,1,,,,,0,,,53,0
84955,note_on,,,,,0,0,1,,,,,0,,,56,0
84960,note_on,,,,,0,0,1,,,,,0,,,60,88
84960,note_on,,,,,0,0,1,,,,,0,,,55,88
84960,note_on,,,,,5,0,1,,,,,0,,,52,88
85035,note_on,,,,,0,0,1,,,,,0,,,55,0
85035,note_on,,,,,75,0,1,,,,,0,,,52,0
85035,note_on,,,,,0,0,1,,,,,0,,,60,0
85040,note_on,,,,,5,0,1,,,,,0,,,53,86
85040,note_on,,,,,0,0,1,,,,,0,,,56,86
85040,note_on,,,,,0,0,1,,,,,0,,,61,86
85115,note_on,,,,,75,0,1,,,,,0,,,53,0
85115,note_on,,,,,0,0,1,,,,,0,,,61,0
85115,note_on,,,,,0,0,1,,,,,0,,,56,0
85120,note_on,,,,,0,0,1,,,,,0,,,60,84
85120,note_on,,,,,5,0,1,,,,,0,,,52,84
85120,note_on,,,,,0,0,1,,,,,0,,,55,84
85195,note_on,,,,,0,0,1,,,,,0,,,55,0
85195,note_on,,,,,0,0,1,,,,,0,,,60,0
85195,note_on,,,,,75,0,1,,,,,0,,,52,0
85200,note_on,,,,,0,0,1,,,,,0,,,56,98
85200,set_tempo,,,,,480,1,0,,750002,,,,,,,
85200,note_on,,,,,0,0,1,,,,,0,,,61,98
85200,note_on,,,,,5,0,1,,,,,0,,,53,98
85279,note_on,,,,,79,0,1,,,,,0,,,53,0
85279,note_on,,,,,0,0,1,,,,,0,,,56,0
85279,note_on,,,,,0,0,1,,,,,0,,,61,0
85280,note_on,,,,,0,0,1,,,,,0,,,58,80
85280,note_on,,,,,0,0,1,,,,,0,,,63,80
85280,note_on,,,,,1,0,1,,,,,0,,,55,80
85355,note_on,,,,,0,0,1,,,,,0,,,58,0
85355,note_on,,,,,0,0,1,,,,,0,,,63,0
85355,note_on,,,,,75,0,1,,,,,0,,,55,0
85360,note_on,,,,,5,0,1,,,,,0,,,53,78
85360,note_on,,,,,0,0,1,,,,,0,,,56,78
85360,note_on,,,,,0,0,1,,,,,0,,,61,78
85435,note_on,,,,,0,0,1,,,,,0,,,56,0
85435,note_on,,,,,0,0,1,,,,,0,,,61,0
85435,note_on,,,,,75,0,1,,,,,0,,,53,0
85440,note_on,,,,,5,0,1,,,,,0,,,52,76
85440,set_tempo,,,,,240,1,0,,857140,,,,,,,
85440,note_on,,,,,0,0,1,,,,,0,,,55,76
85440,note_on,,,,,0,0,1,,,,,0,,,60,76
85515,note_on,,,,,0,0,1,,,,,0,,,55,0
85515,note_on,,,,,0,0,1,,,,,0,,,60,0
85515,note_on,,,,,75,0,1,,,,,0,,,52,0
85520,note_on,,,,,5,0,1,,,,,0,,,53,74
85520,note_on,,,,,0,0,1,,,,,0,,,61,74
85520,note_on,,,,,0,0,1,,,,,0,,,56,74
85595,note_on,,,,,0,0,1,,,,,0,,,56,0
85595,note_on,,,,,0,0,1,,,,,0,,,61,0
85595,note_on,,,,,75,0,1,,,,,0,,,53,0
85600,note_on,,,,,0,0,1,,,,,0,,,55,72
85600,note_on,,,,,0,0,1,,,,,0,,,60,72
85600,note_on,,,,,5,0,1,,,,,0,,,52,72
85600,set_tempo,,,,,160,1,0,,3000003,,,,,,,
85675,note_on,,,,,0,0,1,,,,,0,,,60,0
85675,note_on,,,,,0,0,1,,,,,0,,,55,0
85675,note_on,,,,,75,0,1,,,,,0,,,52,0
85680,note_on,,,,,5,0,1,,,,,0,,,41,70
85680,set_tempo,,,,,80,1,0,,666667,,,,,,,
85755,note_on,,,,,75,0,1,,,,,0,,,41,0
85760,note_on,,,,,5,0,1,,,,,0,,,48,70
85835,note_on,,,,,75,0,1,,,,,0,,,48,0
85840,note_on,,,,,5,0,1,,,,,0,,,56,70
85915,note_on,,,,,75,0,1,,,,,0,,,56,0
85920,note_on,,,,,0,0,0,,,,,0,,,83,84
85920,note_on,,,,,5,0,1,,,,,0,,,56,70
85920,note_on,,,,,240,0,0,,,,,0,,,71,84
85995,note_on,,,,,75,0,1,,,,,0,,,56,0
86000,note_on,,,,,5,0,1,,,,,0,,,65,70
86075,note_on,,,,,75,0,1,,,,,0,,,65,0
86079,note_on,,,,,0,0,0,,,,,0,,,83,0
86079,note_on,,,,,159,0,0,,,,,0,,,71,0
86080,note_on,,,,,0,0,0,,,,,0,,,84,70
86080,note_on,,,,,5,0,1,,,,,0,,,60,70
86080,note_on,,,,,1,0,0,,,,,0,,,72,70
86155,note_on,,,,,75,0,0,,,,,0,,,72,0
86155,note_on,,,,,0,0,0,,,,,0,,,84,0
86155,note_on,,,,,75,0,1,,,,,0,,,60,0
86160,note_on,,,,,5,0,1,,,,,0,,,41,70
86235,note_on,,,,,75,0,1,,,,,0,,,41,0
86240,note_on,,,,,5,0,1,,,,,0,,,52,70
86315,note_on,,,,,75,0,1,,,,,0,,,52,0
86320,note_on,,,,,5,0,1,,,,,0,,,58,70
86395,note_on,,,,,75,0,1,,,,,0,,,58,0
86400,note_on,,,,,5,0,1,,,,,0,,,55,70
86400,note_on,,,,,0,0,0,,,,,0,,,85,84
86400,note_on,,,,,245,0,0,,,,,0,,,73,84
86475,note_on,,,,,75,0,1,,,,,0,,,55,0
86480,note_on,,,,,5,0,1,,,,,0,,,64,70
86555,note_on,,,,,75,0,1,,,,,0,,,64,0
86559,note_on,,,,,159,0,0,,,,,0,,,73,0
86559,note_on,,,,,0,0,0,,,,,0,,,85,0
86560,note_on,,,,,1,0,0,,,,,0,,,72,70
86560,note_on,,,,,5,0,1,,,,,0,,,58,70
86560,note_on,,,,,0,0,0,,,,,0,,,84,70
86635,note_on,,,,,75,0,1,,,,,0,,,58,0
86635,note_on,,,,,75,0,0,,,,,0,,,72,0
86635,note_on,,,,,0,0,0,,,,,0,,,84,0
86640,note_on,,,,,5,0,1,,,,,0,,,41,70
86715,note_on,,,,,75,0,1,,,,,0,,,41,0
86720,note_on,,,,,5,0,1,,,,,0,,,48,70
86795,note_on,,,,,75,0,1,,,,,0,,,48,0
86800,note_on,,,,,5,0,1,,,,,0,,,56,70
86800,note_on,,,,,165,0,0,,,,,0,,,71,70
86800,note_on,,,,,0,0,0,,,,,0,,,83,70
86875,note_on,,,,,75,0,1,,,,,0,,,56,0
86879,note_on,,,,,79,0,0,,,,,0,,,71,0
86879,note_on,,,,,0,0,0,,,,,0,,,83,0
86880,note_on,,,,,0,0,1,,,,,0,,,56,70
86880,note_on,,,,,5,0,1,,,,,0,,,60,70
86955,note_on,,,,,75,0,1,,,,,0,,,60,0
86960,note_on,,,,,0,0,0,,,,,0,,,85,70
86960,note_on,,,,,5,0,1,,,,,0,,,67,70
86960,note_on,,,,,81,0,0,,,,,0,,,73,70
87035,note_on,,,,,75,0,1,,,,,0,,,67,0
87039,note_on,,,,,0,0,0,,,,,0,,,85,0
87039,note_on,,,,,79,0,0,,,,,0,,,73,0
87040,note_on,,,,,5,0,1,,,,,0,,,65,70
87107,note_on,,,,,67,0,1,,,,,0,,,56,0
87115,note_on,,,,,8,0,1,,,,,0,,,65,0
87120,note_on,,,,,81,0,0,,,,,0,,,72,70
87120,note_on,,,,,0,0,1,,,,,0,,,55,70
87120,note_on,,,,,0,0,0,,,,,0,,,84,70
87120,note_on,,,,,5,0,1,,,,,0,,,58,70
87195,note_on,,,,,75,0,1,,,,,0,,,58,0
87199,note_on,,,,,0,0,0,,,,,0,,,84,0
87199,note_on,,,,,79,0,0,,,,,0,,,72,0
87200,note_on,,,,,5,0,1,,,,,0,,,65,70
87275,note_on,,,,,75,0,1,,,,,0,,,65,0
87280,note_on,,,,,81,0,0,,,,,0,,,80,70
87280,note_on,,,,,0,0,0,,,,,0,,,92,70
87280,note_on,,,,,5,0,1,,,,,0,,,63,70
87347,note_on,,,,,67,0,1,,,,,0,,,55,0
87355,note_on,,,,,8,0,1,,,,,0,,,63,0
87359,note_on,,,,,79,0,0,,,,,0,,,80,0
87359,note_on,,,,,0,0,0,,,,,0,,,92,0
87360,note_on,,,,,5,0,1,,,,,0,,,56,70
87360,note_on,,,,,0,0,1,,,,,0,,,53,70
87435,note_on,,,,,75,0,1,,,,,0,,,56,0
87440,note_on,,,,,5,0,1,,,,,0,,,63,70
87440,note_on,,,,,81,0,0,,,,,0,,,77,70
87440,note_on,,,,,0,0,0,,,,,0,,,89,70
87515,note_on,,,,,75,0,1,,,,,0,,,63,0
87519,note_on,,,,,79,0,0,,,,,0,,,77,0
87519,note_on,,,,,0,0,0,,,,,0,,,89,0
87520,note_on,,,,,5,0,1,,,,,0,,,61,70
87587,note_on,,,,,67,0,1,,,,,0,,,53,0
87595,note_on,,,,,8,0,1,,,,,0,,,61,0
87600,note_on,,,,,5,0,1,,,,,0,,,55,70
87600,note_on,,,,,0,0,1,,,,,0,,,51,70
87675,note_on,,,,,75,0,1,,,,,0,,,55,0
87680,note_on,,,,,5,0,1,,,,,0,,,61,70
87755,note_on,,,,,75,0,1,,,,,0,,,61,0
87760,note_on,,,,,5,0,1,,,,,0,,,60,70
87827,note_on,,,,,67,0,1,,,,,0,,,51,0
87835,note_on,,,,,8,0,1,,,,,0,,,60,0
87840,note_on,,,,,0,0,1,,,,,0,,,49,70
87840,note_on,,,,,5,0,1,,,,,0,,,53,70
87915,note_on,,,,,75,0,1,,,,,0,,,53,0
87920,note_on,,,,,5,0,1,,,,,0,,,60,70
87995,note_on,,,,,75,0,1,,,,,0,,,60,0
88000,note_on,,,,,5,0,1,,,,,0,,,58,70
88067,note_on,,,,,67,0,1,,,,,0,,,49,0
88075,note_on,,,,,8,0,1,,,,,0,,,58,0
88080,note_on,,,,,5,0,1,,,,,0,,,51,70
88080,note_on,,,,,0,0,1,,,,,0,,,48,70
88155,note_on,,,,,75,0,1,,,,,0,,,51,0
88160,note_on,,,,,5,0,1,,,,,0,,,58,70
88235,note_on,,,,,75,0,1,,,,,0,,,58,0
88240,note_on,,,,,5,0,1,,,,,0,,,56,70
88307,note_on,,,,,67,0,1,,,,,0,,,48,0
88315,note_on,,,,,8,0,1,,,,,0,,,56,0
88320,note_on,,,,,5,0,1,,,,,0,,,49,70
88320,note_on,,,,,0,0,1,,,,,0,,,46,70
88395,note_on,,,,,75,0,1,,,,,0,,,49,0
88400,note_on,,,,,5,0,1,,,,,0,,,56,70
88475,note_on,,,,,75,0,1,,,,,0,,,56,0
88480,note_on,,,,,5,0,1,,,,,0,,,55,70
88547,note_on,,,,,67,0,1,,,,,0,,,46,0
88555,note_on,,,,,8,0,1,,,,,0,,,55,0
88560,note_on,,,,,5,0,1,,,,,0,,,41,70
88635,note_on,,,,,75,0,1,,,,,0,,,41,0
88640,note_on,,,,,5,0,1,,,,,0,,,48,70
88715,note_on,,,,,75,0,1,,,,,0,,,48,0
88720,note_on,,,,,5,0,1,,,,,0,,,56,70
88795,note_on,,,,,75,0,1,,,,,0,,,56,0
88800,note_on,,,,,1281,0,0,,,,,0,,,71,84
88800,note_on,,,,,0,0,0,,,,,0,,,83,84
88800,note_on,,,,,5,0,1,,,,,0,,,56,70
88875,note_on,,,,,75,0,1,,,,,0,,,56,0
88880,note_on,,,,,5,0,1,,,,,0,,,65,70
88955,note_on,,,,,75,0,1,,,,,0,,,65,0
88959,note_on,,,,,0,0,0,,,,,0,,,83,0
88959,note_on,,,,,159,0,0,,,,,0,,,71,0
88960,note_on,,,,,5,0,1,,,,,0,,,60,70
88960,note_on,,,,,0,0,0,,,,,0,,,84,70
88960,note_on,,,,,1,0,0,,,,,0,,,72,70
89035,note_on,,,,,75,0,0,,,,,0,,,72,0
89035,note_on,,,,,75,0,1,,,,,0,,,60,0
89035,note_on,,,,,0,0,0,,,,,0,,,84,0
89040,note_on,,,,,5,0,1,,,,,0,,,41,70
89115,note_on,,,,,75,0,1,,,,,0,,,41,0
89120,note_on,,,,,5,0,1,,,,,0,,,52,70
89195,note_on,,,,,75,0,1,,,,,0,,,52,0
89200,note_on,,,,,5,0,1,,,,,0,,,58,70
89275,note_on,,,,,75,0,1,,,,,0,,,58,0
89280,note_on,,,,,245,0,0,,,,,0,,,73,84
89280,note_on,,,,,0,0,0,,,,,0,,,85,84
89280,note_on,,,,,5,0,1,,,,,0,,,55,70
89355,note_on,,,,,75,0,1,,,,,0,,,55,0
89360,note_on,,,,,5,0,1,,,,,0,,,64,70
89435,note_on,,,,,75,0,1,,,,,0,,,64,0
89439,note_on,,,,,159,0,0,,,,,0,,,73,0
89439,note_on,,,,,0,0,0,,,,,0,,,85,0
89440,note_on,,,,,1,0,0,,,,,0,,,72,70
89440,note_on,,,,,5,0,1,,,,,0,,,58,70
89440,note_on,,,,,0,0,0,,,,,0,,,84,70
89515,note_on,,,,,0,0,0,,,,,0,,,84,0
89515,note_on,,,,,75,0,1,,,,,0,,,58,0
89515,note_on,,,,,75,0,0,,,,,0,,,72,0
89520,note_on,,,,,5,0,1,,,,,0,,,41,70
89595,note_on,,,,,75,0,1,,,,,0,,,41,0
89600,note_on,,,,,5,0,1,,,,,0,,,48,70
89675,note_on,,,,,75,0,1,,,,,0,,,48,0
89680,note_on,,,,,0,0,0,,,,,0,,,83,70
89680,note_on,,,,,165,0,0,,,,,0,,,71,70
89680,note_on,,,,,5,0,1,,,,,0,,,56,70
89755,note_on,,,,,75,0,1,,,,,0,,,56,0
89759,note_on,,,,,0,0,0,,,,,0,,,83,0
89759,note_on,,,,,79,0,0,,,,,0,,,71,0
89760,note_on,,,,,5,0,1,,,,,0,,,60,70
89760,note_on,,,,,0,0,1,,,,,0,,,56,70
89835,note_on,,,,,75,0,1,,,,,0,,,60,0
89840,note_on,,,,,81,0,0,,,,,0,,,73,70
89840,note_on,,,,,0,0,0,,,,,0,,,85,70
89840,note_on,,,,,5,0,1,,,,,0,,,67,70
89915,note_on,,,,,75,0,1,,,,,0,,,67,0
89919,note_on,,,,,0,0,0,,,,,0,,,85,0
89919,note_on,,,,,79,0,0,,,,,0,,,73,0
89920,note_on,,,,,5,0,1,,,,,0,,,65,70
89987,note_on,,,,,67,0,1,,,,,0,,,56,0
89995,note_on,,,,,8,0,1,,,,,0,,,65,0
90000,note_on,,,,,0,0,1,,,,,0,,,55,70
90000,note_on,,,,,5,0,1,,,,,0,,,58,70
90000,note_on,,,,,81,0,0,,,,,0,,,72,70
90000,note_on,,,,,0,0,0,,,,,0,,,84,70
90075,note_on,,,,,75,0,1,,,,,0,,,58,0
90079,note_on,,,,,79,0,0,,,,,0,,,72,0
90079,note_on,,,,,0,0,0,,,,,0,,,84,0
90080,note_on,,,,,5,0,1,,,,,0,,,65,70
90155,note_on,,,,,75,0,1,,,,,0,,,65,0
90160,note_on,,,,,5,0,1,,,,,0,,,63,70
90160,note_on,,,,,81,0,0,,,,,0,,,80,70
90160,note_on,,,,,0,0,0,,,,,0,,,92,70
90227,note_on,,,,,67,0,1,,,,,0,,,55,0
90235,note_on,,,,,8,0,1,,,,,0,,,63,0
90239,note_on,,,,,0,0,0,,,,,0,,,92,0
90239,note_on,,,,,79,0,0,,,,,0,,,80,0
90240,note_on,,,,,5,0,1,,,,,0,,,56,70
90240,note_on,,,,,0,0,1,,,,,0,,,53,70
90315,note_on,,,,,75,0,1,,,,,0,,,56,0
90320,note_on,,,,,0,0,0,,,,,0,,,89,70
90320,note_on,,,,,81,0,0,,,,,0,,,77,70
90320,note_on,,,,,5,0,1,,,,,0,,,63,70
90395,note_on,,,,,75,0,1,,,,,0,,,63,0
90399,note_on,,,,,0,0,0,,,,,0,,,89,0
90399,note_on,,,,,79,0,0,,,,,0,,,77,0
90400,note_on,,,,,5,0,1,,,,,0,,,61,70
90467,note_on,,,,,67,0,1,,,,,0,,,53,0
90475,note_on,,,,,8,0,1,,,,,0,,,61,0
90480,note_on,,,,,5,0,1,,,,,0,,,39,70
90555,note_on,,,,,75,0,1,,,,,0,,,39,0
90560,note_on,,,,,5,0,1,,,,,0,,,48,70
90635,note_on,,,,,75,0,1,,,,,0,,,48,0
90640,note_on,,,,,5,0,1,,,,,0,,,56,70
90715,note_on,,,,,75,0,1,,,,,0,,,56,0
90720,note_on,,,,,5,0,1,,,,,0,,,60,70
90720,note_on,,,,,321,0,0,,,,,0,,,74,84
90720,note_on,,,,,0,0,0,,,,,0,,,86,84
90795,note_on,,,,,75,0,1,,,,,0,,,60,0
90800,note_on,,,,,5,0,1,,,,,0,,,68,70
90875,note_on,,,,,75,0,1,,,,,0,,,68,0
90879,note_on,,,,,159,0,0,,,,,0,,,74,0
90879,note_on,,,,,0,0,0,,,,,0,,,86,0
90880,note_on,,,,,5,0,1,,,,,0,,,63,70
90880,note_on,,,,,1,0,0,,,,,0,,,75,70
90880,note_on,,,,,0,0,0,,,,,0,,,87,70
90955,note_on,,,,,0,0,0,,,,,0,,,87,0
90955,note_on,,,,,75,0,0,,,,,0,,,75,0
90955,note_on,,,,,75,0,1,,,,,0,,,63,0
90960,note_on,,,,,5,0,1,,,,,0,,,39,70
91035,note_on,,,,,75,0,1,,,,,0,,,39,0
91040,note_on,,,,,5,0,1,,,,,0,,,49,70
91115,note_on,,,,,75,0,1,,,,,0,,,49,0
91120,note_on,,,,,5,0,1,,,,,0,,,55,70
91195,note_on,,,,,75,0,1,,,,,0,,,55,0
91200,note_on,,,,,5,0,1,,,,,0,,,58,70
91200,note_on,,,,,245,0,0,,,,,0,,,76,84
91200,note_on,,,,,0,0,0,,,,,0,,,88,84
91275,note_on,,,,,75,0,1,,,,,0,,,58,0
91280,note_on,,,,,5,0,1,,,,,0,,,67,70
91355,note_on,,,,,75,0,1,,,,,0,,,67,0
91359,note_on,,,,,0,0,0,,,,,0,,,88,0
91359,note_on,,,,,159,0,0,,,,,0,,,76,0
91360,note_on,,,,,0,0,0,,,,,0,,,87,70
91360,note_on,,,,,5,0,1,,,,,0,,,61,70
91360,note_on,,,,,1,0,0,,,,,0,,,75,70
91435,note_on,,,,,75,0,1,,,,,0,,,61,0
91435,note_on,,,,,75,0,0,,,,,0,,,75,0
91435,note_on,,,,,0,0,0,,,,,0,,,87,0
91440,note_on,,,,,5,0,1,,,,,0,,,44,70
91515,note_on,,,,,75,0,1,,,,,0,,,44,0
91520,note_on,,,,,5,0,1,,,,,0,,,51,70
91595,note_on,,,,,75,0,1,,,,,0,,,51,0
91600,note_on,,,,,5,0,1,,,,,0,,,60,70
91600,note_on,,,,,165,0,0,,,,,0,,,74,70
91600,note_on,,,,,0,0,0,,,,,0,,,86,70
91675,note_on,,,,,75,0,1,,,,,0,,,60,0
91679,note_on,,,,,0,0,0,,,,,0,,,86,0
91679,note_on,,,,,79,0,0,,,,,0,,,74,0
91680,note_on,,,,,5,0,1,,,,,0,,,63,70
91680,note_on,,,,,0,0,1,,,,,0,,,60,70
91755,note_on,,,,,75,0,1,,,,,0,,,63,0
91760,note_on,,,,,81,0,0,,,,,0,,,77,70
91760,note_on,,,,,0,0,0,,,,,0,,,89,70
91760,note_on,,,,,5,0,1,,,,,0,,,70,70
91835,note_on,,,,,75,0,1,,,,,0,,,70,0
91839,note_on,,,,,0,0,0,,,,,0,,,89,0
91839,note_on,,,,,79,0,0,,,,,0,,,77,0
91840,note_on,,,,,5,0,1,,,,,0,,,68,70
91907,note_on,,,,,67,0,1,,,,,0,,,60,0
91915,note_on,,,,,8,0,1,,,,,0,,,68,0
91920,note_on,,,,,5,0,1,,,,,0,,,61,70
91920,note_on,,,,,0,0,0,,,,,0,,,87,70
91920,note_on,,,,,81,0,0,,,,,0,,,75,70
91920,note_on,,,,,0,0,1,,,,,0,,,58,70
91995,note_on,,,,,75,0,1,,,,,0,,,61,0
91999,note_on,,,,,0,0,0,,,,,0,,,87,0
91999,note_on,,,,,79,0,0,,,,,0,,,75,0
92000,note_on,,,,,5,0,1,,,,,0,,,68,70
92075,note_on,,,,,75,0,1,,,,,0,,,68,0
92080,note_on,,,,,0,0,0,,,,,0,,,96,70
92080,note_on,,,,,81,0,0,,,,,0,,,84,70
92080,note_on,,,,,5,0,1,,,,,0,,,67,70
92147,note_on,,,,,67,0,1,,,,,0,,,58,0
92155,note_on,,,,,8,0,1,,,,,0,,,67,0
92159,note_on,,,,,0,0,0,,,,,0,,,96,0
92159,note_on,,,,,79,0,0,,,,,0,,,84,0
92160,note_on,,,,,5,0,1,,,,,0,,,60,70
92160,note_on,,,,,0,0,1,,,,,0,,,56,70
92235,note_on,,,,,75,0,1,,,,,0,,,60,0
92240,note_on,,,,,0,0,0,,,,,0,,,92,70
92240,note_on,,,,,5,0,1,,,,,0,,,67,70
92240,note_on,,,,,81,0,0,,,,,0,,,80,70
92315,note_on,,,,,75,0,1,,,,,0,,,67,0
92319,note_on,,,,,79,0,0,,,,,0,,,80,0
92319,note_on,,,,,0,0,0,,,,,0,,,92,0
92320,note_on,,,,,5,0,1,,,,,0,,,65,70
92387,note_on,,,,,67,0,1,,,,,0,,,56,0
92395,note_on,,,,,8,0,1,,,,,0,,,65,0
92400,note_on,,,,,5,0,1,,,,,0,,,43,70
92475,note_on,,,,,75,0,1,,,,,0,,,43,0
92480,note_on,,,,,5,0,1,,,,,0,,,52,71
92555,note_on,,,,,75,0,1,,,,,0,,,52,0
92560,note_on,,,,,5,0,1,,,,,0,,,60,73
92635,note_on,,,,,75,0,1,,,,,0,,,60,0
92640,note_on,,,,,0,0,0,,,,,0,,,90,90
92640,note_on,,,,,321,0,0,,,,,0,,,78,90
92640,note_on,,,,,5,0,1,,,,,0,,,55,75
92715,note_on,,,,,75,0,1,,,,,0,,,55,0
92720,note_on,,,,,5,0,1,,,,,0,,,64,76
92795,note_on,,,,,75,0,1,,,,,0,,,64,0
92799,note_on,,,,,159,0,0,,,,,0,,,78,0
92799,note_on,,,,,0,0,0,,,,,0,,,90,0
92800,note_on,,,,,0,0,0,,,,,0,,,91,78
92800,note_on,,,,,5,0,1,,,,,0,,,60,78
92800,note_on,,,,,1,0,0,,,,,0,,,79,78
92875,note_on,,,,,0,0,0,,,,,0,,,91,0
92875,note_on,,,,,75,0,1,,,,,0,,,60,0
92875,note_on,,,,,75,0,0,,,,,0,,,79,0
92880,note_on,,,,,5,0,1,,,,,0,,,43,80
92955,note_on,,,,,75,0,1,,,,,0,,,43,0
92960,note_on,,,,,5,0,1,,,,,0,,,50,80
93035,note_on,,,,,75,0,1,,,,,0,,,50,0
93040,note_on,,,,,5,0,1,,,,,0,,,59,80
93115,note_on,,,,,75,0,1,,,,,0,,,59,0
93120,note_on,,,,,5,0,1,,,,,0,,,53,80
93120,note_on,,,,,245,0,0,,,,,0,,,80,96
93120,note_on,,,,,0,0,0,,,,,0,,,92,96
93195,note_on,,,,,75,0,1,,,,,0,,,53,0
93200,note_on,,,,,5,0,1,,,,,0,,,62,80
93275,note_on,,,,,75,0,1,,,,,0,,,62,0
93279,note_on,,,,,0,0,0,,,,,0,,,92,0
93279,note_on,,,,,159,0,0,,,,,0,,,80,0
93280,note_on,,,,,0,0,0,,,,,0,,,91,80
93280,note_on,,,,,1,0,0,,,,,0,,,79,80
93280,note_on,,,,,5,0,1,,,,,0,,,59,80
93355,note_on,,,,,75,0,1,,,,,0,,,59,0
93355,note_on,,,,,75,0,0,,,,,0,,,79,0
93355,note_on,,,,,0,0,0,,,,,0,,,91,0
93360,set_tempo,,,,,5,1,0,,800000,,,,,,,
93360,note_on,,,,,5,0,1,,,,,0,,,43,80
93435,note_on,,,,,75,0,1,,,,,0,,,43,0
93440,note_on,,,,,5,0,1,,,,,0,,,52,80
93515,note_on,,,,,75,0,1,,,,,0,,,52,0
93520,note_on,,,,,5,0,1,,,,,0,,,60,80
93595,note_on,,,,,75,0,1,,,,,0,,,60,0
93600,note_on,,,,,5,0,1,,,,,0,,,55,80
93600,note_on,,,,,240,0,0,,,,,0,,,78,80
93600,note_on,,,,,0,0,0,,,,,0,,,90,80
93675,note_on,,,,,75,0,1,,,,,0,,,55,0
93679,note_on,,,,,0,0,0,,,,,0,,,90,0
93679,note_on,,,,,79,0,0,,,,,0,,,78,0
93680,note_on,,,,,5,0,1,,,,,0,,,64,80
93755,note_on,,,,,75,0,1,,,,,0,,,64,0
93760,note_on,,,,,5,0,1,,,,,0,,,60,80
93760,note_on,,,,,0,0,0,,,,,0,,,91,80
93760,note_on,,,,,81,0,0,,,,,0,,,79,80
93799,note_on,,,,,0,0,0,,,,,0,,,91,0
93799,note_on,,,,,39,0,0,,,,,0,,,79,0
93835,note_on,,,,,75,0,1,,,,,0,,,60,0
93840,note_on,,,,,0,0,0,,,,,0,,,92,80
93840,note_on,,,,,5,0,1,,,,,0,,,43,80
93840,note_on,,,,,41,0,0,,,,,0,,,80,80
93899,note_on,,,,,0,0,0,,,,,0,,,92,0
93899,note_on,,,,,59,0,0,,,,,0,,,80,0
93919,note_on,,,,,79,0,1,,,,,0,,,43,0
93920,note_on,,,,,1,0,1,,,,,0,,,53,80
93960,note_on,,,,,0,0,0,,,,,0,,,91,80
93960,note_on,,,,,61,0,0,,,,,0,,,79,80
93999,note_on,,,,,79,0,1,,,,,0,,,53,0
94000,note_on,,,,,1,0,1,,,,,0,,,59,80
94019,note_on,,,,,59,0,0,,,,,0,,,79,0
94019,note_on,,,,,0,0,0,,,,,0,,,91,0
94079,note_on,,,,,79,0,1,,,,,0,,,59,0
94080,note_on,,,,,0,0,0,,,,,0,,,89,80
94080,note_on,,,,,1,0,1,,,,,0,,,62,80
94080,set_tempo,,,,,61,1,0,,4800000,,,,,,,
94080,note_on,,,,,0,0,0,,,,,0,,,101,80
94118,note_on,,,,,38,0,0,,,,,0,,,89,0
94118,note_on,,,,,0,0,0,,,,,0,,,101,0
94159,note_on,,,,,79,0,1,,,,,0,,,62,0
94160,note_on,,,,,1,0,1,,,,,0,,,68,80
94199,set_tempo,,,,,81,1,0,,800000,,,,,,,
94239,note_on,,,,,79,0,1,,,,,0,,,68,0
94240,set_tempo,,,,,41,1,0,,3200000,,,,,,,
94240,note_on,,,,,1,0,1,,,,,0,,,71,80
94260,note_on,,,,,0,0,0,,,,,0,,,100,80
94260,note_on,,,,,20,0,0,,,,,0,,,88,80
94315,note_on,,,,,75,0,1,,,,,0,,,71,0
94316,note_on,,,,,56,0,0,,,,,0,,,88,0
94316,note_on,,,,,0,0,0,,,,,0,,,100,0
94319,set_tempo,,,,,3,1,0,,800000,,,,,,,
94320,note_on,,,,,5,0,1,,,,,0,,,48,80
94320,note_on,,,,,1,0,0,,,,,0,,,84,80
94320,note_on,,,,,0,0,0,,,,,0,,,96,80
94395,note_on,,,,,75,0,1,,,,,0,,,48,0
94400,note_on,,,,,5,0,1,,,,,0,,,60,80
94475,note_on,,,,,75,0,1,,,,,0,,,60,0
94480,note_on,,,,,5,0,1,,,,,0,,,55,80
94555,note_on,,,,,75,0,1,,,,,0,,,55,0
94560,note_on,,,,,5,0,1,,,,,0,,,64,78
94635,note_on,,,,,75,0,1,,,,,0,,,64,0
94640,note_on,,,,,5,0,1,,,,,0,,,60,76
94715,note_on,,,,,75,0,1,,,,,0,,,60,0
94720,note_on,,,,,5,0,1,,,,,0,,,67,74
94775,note_on,,,,,0,0,0,,,,,0,,,96,0
94775,note_on,,,,,455,0,0,,,,,0,,,84,0
94795,note_on,,,,,75,0,1,,,,,0,,,67,0
94800,note_on,,,,,5,0,1,,,,,0,,,64,72
94875,note_on,,,,,75,0,1,,,,,0,,,64,0
94880,note_on,,,,,5,0,1,,,,,0,,,72,69
94955,note_on,,,,,75,0,1,,,,,0,,,72,0
94960,note_on,,,,,5,0,1,,,,,0,,,60,67
95035,note_on,,,,,75,0,1,,,,,0,,,60,0
95040,note_on,,,,,5,0,1,,,,,0,,,67,65
95115,note_on,,,,,75,0,1,,,,,0,,,67,0
95120,note_on,,,,,5,0,1,,,,,0,,,64,63
95195,note_on,,,,,75,0,1,,,,,0,,,64,0
95200,note_on,,,,,5,0,1,,,,,0,,,72,60
95275,note_on,,,,,75,0,1,,,,,0,,,72,0
95280,note_on,,,,,5,0,1,,,,,0,,,45,60
95280,note_on,,,,,505,0,0,,,,,0,,,84,60
95343,note_on,,,,,63,0,0,,,,,0,,,96,60
95355,note_on,,,,,75,0,1,,,,,0,,,45,0
95360,note_on,,,,,5,0,1,,,,,0,,,57,60
95435,note_on,,,,,75,0,1,,,,,0,,,57,0
95440,note_on,,,,,5,0,1,,,,,0,,,52,60
95515,note_on,,,,,75,0,1,,,,,0,,,52,0
95520,note_on,,,,,5,0,1,,,,,0,,,60,60
95595,note_on,,,,,75,0,1,,,,,0,,,60,0
95600,note_on,,,,,5,0,1,,,,,0,,,57,60
95675,note_on,,,,,75,0,1,,,,,0,,,57,0
95680,note_on,,,,,5,0,1,,,,,0,,,64,60
95755,note_on,,,,,75,0,1,,,,,0,,,64,0
95758,note_on,,,,,415,0,0,,,,,0,,,96,0
95759,note_on,,,,,1,0,0,,,,,0,,,84,0
95760,note_on,,,,,5,0,1,,,,,0,,,60,60
95760,note_on,,,,,0,0,0,,,,,0,,,96,60
95760,note_on,,,,,1,0,0,,,,,0,,,84,60
95835,note_on,,,,,75,0,1,,,,,0,,,60,0
95840,note_on,,,,,5,0,1,,,,,0,,,69,60
95915,note_on,,,,,75,0,1,,,,,0,,,69,0
95920,note_on,,,,,5,0,1,,,,,0,,,64,60
95995,note_on,,,,,75,0,1,,,,,0,,,64,0
96000,note_on,,,,,5,0,1,,,,,0,,,72,60
96075,note_on,,,,,75,0,1,,,,,0,,,72,0
96080,note_on,,,,,5,0,1,,,,,0,,,60,60
96119,note_on,,,,,0,0,0,,,,,0,,,96,0
96119,note_on,,,,,359,0,0,,,,,0,,,84,0
96120,note_on,,,,,1,0,0,,,,,0,,,84,60
96120,note_on,,,,,0,0,0,,,,,0,,,96,60
96155,note_on,,,,,75,0,1,,,,,0,,,60,0
96160,note_on,,,,,5,0,1,,,,,0,,,69,60
96233,note_on,,,,,0,0,0,,,,,0,,,96,0
96233,note_on,,,,,113,0,0,,,,,0,,,84,0
96235,note_on,,,,,75,0,1,,,,,0,,,69,0
96240,note_on,,,,,7,0,0,,,,,0,,,84,60
96240,note_on,,,,,5,0,1,,,,,0,,,45,60
96240,note_on,,,,,0,0,0,,,,,0,,,96,60
96315,note_on,,,,,75,0,1,,,,,0,,,45,0
96320,note_on,,,,,5,0,1,,,,,0,,,54,60
96395,note_on,,,,,75,0,1,,,,,0,,,54,0
96400,note_on,,,,,5,0,1,,,,,0,,,51,60
96475,note_on,,,,,75,0,1,,,,,0,,,51,0
96480,note_on,,,,,5,0,1,,,,,0,,,60,60
96555,note_on,,,,,75,0,1,,,,,0,,,60,0
96560,note_on,,,,,5,0,1,,,,,0,,,57,60
96635,note_on,,,,,75,0,1,,,,,0,,,57,0
96640,note_on,,,,,5,0,1,,,,,0,,,66,60
96695,note_on,,,,,455,0,0,,,,,0,,,84,0
96695,note_on,,,,,0,0,0,,,,,0,,,96,0
96715,note_on,,,,,75,0,1,,,,,0,,,66,0
96720,note_on,,,,,0,0,0,,,,,0,,,95,60
96720,note_on,,,,,5,0,1,,,,,0,,,63,60
96720,note_on,,,,,25,0,0,,,,,0,,,83,60
96795,note_on,,,,,75,0,1,,,,,0,,,63,0
96800,note_on,,,,,5,0,1,,,,,0,,,71,60
96875,note_on,,,,,75,0,1,,,,,0,,,71,0
96880,note_on,,,,,5,0,1,,,,,0,,,57,60
96955,note_on,,,,,75,0,1,,,,,0,,,57,0
96960,note_on,,,,,5,0,1,,,,,0,,,66,60
97035,note_on,,,,,75,0,1,,,,,0,,,66,0
97040,note_on,,,,,5,0,1,,,,,0,,,63,60
97115,note_on,,,,,75,0,1,,,,,0,,,63,0
97120,note_on,,,,,5,0,1,,,,,0,,,71,60
97195,note_on,,,,,75,0,1,,,,,0,,,71,0
97200,note_on,,,,,5,0,1,,,,,0,,,45,60
97275,note_on,,,,,75,0,1,,,,,0,,,45,0
97280,note_on,,,,,5,0,1,,,,,0,,,56,60
97355,note_on,,,,,75,0,1,,,,,0,,,56,0
97360,note_on,,,,,5,0,1,,,,,0,,,53,60
97403,note_on,,,,,683,0,0,,,,,0,,,83,0
97403,note_on,,,,,0,0,0,,,,,0,,,95,0
97435,note_on,,,,,75,0,1,,,,,0,,,53,0
97440,note_on,,,,,37,0,0,,,,,0,,,83,60
97440,note_on,,,,,0,0,0,,,,,0,,,95,60
97440,note_on,,,,,5,0,1,,,,,0,,,62,60
97515,note_on,,,,,75,0,1,,,,,0,,,62,0
97520,note_on,,,,,5,0,1,,,,,0,,,56,60
97559,note_on,,,,,119,0,0,,,,,0,,,83,0
97559,note_on,,,,,0,0,0,,,,,0,,,95,0
97595,note_on,,,,,75,0,1,,,,,0,,,56,0
97600,note_on,,,,,5,0,1,,,,,0,,,65,60
97675,note_on,,,,,75,0,1,,,,,0,,,65,0
97680,note_on,,,,,121,0,0,,,,,0,,,84,60
97680,note_on,,,,,5,0,1,,,,,0,,,62,60
97680,note_on,,,,,0,0,0,,,,,0,,,96,60
97755,note_on,,,,,75,0,1,,,,,0,,,62,0
97760,note_on,,,,,5,0,1,,,,,0,,,71,60
97799,note_on,,,,,119,0,0,,,,,0,,,84,0
97799,note_on,,,,,0,0,0,,,,,0,,,96,0
97835,note_on,,,,,75,0,1,,,,,0,,,71,0
97840,note_on,,,,,5,0,1,,,,,0,,,56,60
97915,note_on,,,,,75,0,1,,,,,0,,,56,0
97920,note_on,,,,,5,0,1,,,,,0,,,65,60
97920,note_on,,,,,0,0,0,,,,,0,,,98,60
97920,note_on,,,,,121,0,0,,,,,0,,,86,60
97995,note_on,,,,,75,0,1,,,,,0,,,65,0
98000,note_on,,,,,5,0,1,,,,,0,,,62,60
98039,note_on,,,,,119,0,0,,,,,0,,,86,0
98039,note_on,,,,,0,0,0,,,,,0,,,98,0
98075,note_on,,,,,75,0,1,,,,,0,,,62,0
98080,note_on,,,,,5,0,1,,,,,0,,,71,60
98155,note_on,,,,,75,0,1,,,,,0,,,71,0
98160,note_on,,,,,0,0,0,,,,,0,,,100,60
98160,note_on,,,,,121,0,0,,,,,0,,,88,60
98160,note_on,,,,,5,0,1,,,,,0,,,45,60
98235,note_on,,,,,75,0,1,,,,,0,,,45,0
98240,note_on,,,,,5,0,1,,,,,0,,,57,60
98315,note_on,,,,,75,0,1,,,,,0,,,57,0
98320,note_on,,,,,5,0,1,,,,,0,,,52,60
98395,note_on,,,,,75,0,1,,,,,0,,,52,0
98400,note_on,,,,,5,0,1,,,,,0,,,60,60
98475,note_on,,,,,75,0,1,,,,,0,,,60,0
98480,note_on,,,,,5,0,1,,,,,0,,,57,60
98519,note_on,,,,,0,0,0,,,,,0,,,100,0
98519,note_on,,,,,359,0,0,,,,,0,,,88,0
98520,note_on,,,,,0,0,0,,,,,0,,,96,60
98520,note_on,,,,,1,0,0,,,,,0,,,84,60
98555,note_on,,,,,75,0,1,,,,,0,,,57,0
98560,note_on,,,,,5,0,1,,,,,0,,,64,60
98633,note_on,,,,,0,0,0,,,,,0,,,96,0
98633,note_on,,,,,113,0,0,,,,,0,,,84,0
98635,note_on,,,,,75,0,1,,,,,0,,,64,0
98640,note_on,,,,,7,0,0,,,,,0,,,81,60
98640,note_on,,,,,0,0,0,,,,,0,,,93,60
98640,note_on,,,,,5,0,1,,,,,0,,,60,60
98715,note_on,,,,,75,0,1,,,,,0,,,60,0
98720,note_on,,,,,5,0,1,,,,,0,,,69,60
98795,note_on,,,,,75,0,1,,,,,0,,,69,0
98800,note_on,,,,,5,0,1,,,,,0,,,57,60
98875,note_on,,,,,75,0,1,,,,,0,,,57,0
98880,note_on,,,,,5,0,1,,,,,0,,,64,60
98955,note_on,,,,,75,0,1,,,,,0,,,64,0
98960,note_on,,,,,5,0,1,,,,,0,,,60,60
99035,note_on,,,,,75,0,1,,,,,0,,,60,0
99040,note_on,,,,,5,0,1,,,,,0,,,69,60
99095,note_on,,,,,455,0,0,,,,,0,,,81,0
99095,note_on,,,,,0,0,0,,,,,0,,,93,0
99115,note_on,,,,,75,0,1,,,,,0,,,69,0
99120,note_on,,,,,5,0,1,,,,,0,,,45,60
99120,note_on,,,,,0,0,0,,,,,0,,,84,60
99120,note_on,,,,,25,0,0,,,,,0,,,72,60
99195,note_on,,,,,75,0,1,,,,,0,,,45,0
99200,note_on,,,,,5,0,1,,,,,0,,,57,60
99275,note_on,,,,,75,0,1,,,,,0,,,57,0
99280,note_on,,,,,5,0,1,,,,,0,,,52,60
99355,note_on,,,,,75,0,1,,,,,0,,,52,0
99360,note_on,,,,,5,0,1,,,,,0,,,60,60
99435,note_on,,,,,75,0,1,,,,,0,,,60,0
99440,note_on,,,,,5,0,1,,,,,0,,,57,60
99515,note_on,,,,,75,0,1,,,,,0,,,57,0
99520,note_on,,,,,5,0,1,,,,,0,,,64,60
99575,note_on,,,,,455,0,0,,,,,0,,,72,0
99575,note_on,,,,,0,0,0,,,,,0,,,84,0
99595,note_on,,,,,75,0,1,,,,,0,,,64,0
99600,note_on,,,,,5,0,1,,,,,0,,,60,60
99600,note_on,,,,,25,0,0,,,,,0,,,72,60
99600,note_on,,,,,0,0,0,,,,,0,,,84,60
99675,note_on,,,,,75,0,1,,,,,0,,,60,0
99680,note_on,,,,,5,0,1,,,,,0,,,69,60
99755,note_on,,,,,75,0,1,,,,,0,,,69,0
99760,note_on,,,,,5,0,1,,,,,0,,,57,60
99779,note_on,,,,,0,0,0,,,,,0,,,84,0
99779,note_on,,,,,179,0,0,,,,,0,,,72,0
99835,note_on,,,,,75,0,1,,,,,0,,,57,0
99840,note_on,,,,,5,0,1,,,,,0,,,64,60
99915,note_on,,,,,75,0,1,,,,,0,,,64,0
99920,note_on,,,,,5,0,1,,,,,0,,,60,60
99960,note_on,,,,,0,0,0,,,,,0,,,84,60
99960,note_on,,,,,181,0,0,,,,,0,,,72,60
99995,note_on,,,,,75,0,1,,,,,0,,,60,0
100000,note_on,,,,,5,0,1,,,,,0,,,69,60
100019,note_on,,,,,59,0,0,,,,,0,,,72,0
100019,note_on,,,,,0,0,0,,,,,0,,,84,0
100075,note_on,,,,,75,0,1,,,,,0,,,69,0
100080,note_on,,,,,61,0,0,,,,,0,,,72,60
100080,note_on,,,,,0,0,0,,,,,0,,,84,60
100080,note_on,,,,,5,0,1,,,,,0,,,45,60
100155,note_on,,,,,75,0,1,,,,,0,,,45,0
100160,note_on,,,,,5,0,1,,,,,0,,,54,60
100235,note_on,,,,,75,0,1,,,,,0,,,54,0
100240,note_on,,,,,5,0,1,,,,,0,,,51,60
100315,note_on,,,,,75,0,1,,,,,0,,,51,0
100320,note_on,,,,,5,0,1,,,,,0,,,57,60
100395,note_on,,,,,75,0,1,,,,,0,,,57,0
100400,note_on,,,,,5,0,1,,,,,0,,,54,60
100475,note_on,,,,,75,0,1,,,,,0,,,54,0
100480,note_on,,,,,5,0,1,,,,,0,,,63,60
100555,note_on,,,,,75,0,1,,,,,0,,,63,0
100560,note_on,,,,,5,0,1,,,,,0,,,57,60
100635,note_on,,,,,75,0,1,,,,,0,,,57,0
100640,note_on,,,,,5,0,1,,,,,0,,,66,60
100715,note_on,,,,,75,0,1,,,,,0,,,66,0
100720,note_on,,,,,5,0,1,,,,,0,,,54,60
100763,note_on,,,,,0,0,0,,,,,0,,,84,0
100763,note_on,,,,,683,0,0,,,,,0,,,72,0
100795,note_on,,,,,75,0,1,,,,,0,,,54,0
100800,note_on,,,,,5,0,1,,,,,0,,,63,60
100800,note_on,,,,,0,0,0,,,,,0,,,83,60
100800,note_on,,,,,37,0,0,,,,,0,,,71,60
100875,note_on,,,,,75,0,1,,,,,0,,,63,0
100880,note_on,,,,,5,0,1,,,,,0,,,57,60
100955,note_on,,,,,75,0,1,,,,,0,,,57,0
100960,note_on,,,,,5,0,1,,,,,0,,,66,60
101035,note_on,,,,,75,0,1,,,,,0,,,66,0
101040,note_on,,,,,5,0,1,,,,,0,,,44,60
101115,note_on,,,,,75,0,1,,,,,0,,,44,0
101120,note_on,,,,,5,0,1,,,,,0,,,54,60
101195,note_on,,,,,75,0,1,,,,,0,,,54,0
101200,note_on,,,,,5,0,1,,,,,0,,,51,60
101255,note_on,,,,,0,0,0,,,,,0,,,83,0
101255,note_on,,,,,455,0,0,,,,,0,,,71,0
101275,note_on,,,,,75,0,1,,,,,0,,,51,0
101280,note_on,,,,,25,0,0,,,,,0,,,72,60
101280,note_on,,,,,5,0,1,,,,,0,,,57,60
101280,note_on,,,,,0,0,0,,,,,0,,,84,60
101355,note_on,,,,,75,0,1,,,,,0,,,57,0
101360,note_on,,,,,5,0,1,,,,,0,,,54,62
101399,note_on,,,,,0,0,0,,,,,0,,,84,0
101399,note_on,,,,,119,0,0,,,,,0,,,72,0
101435,note_on,,,,,75,0,1,,,,,0,,,54,0
101440,note_on,,,,,5,0,1,,,,,0,,,63,65
101515,note_on,,,,,75,0,1,,,,,0,,,63,0
101520,note_on,,,,,121,0,0,,,,,0,,,73,68
101520,note_on,,,,,0,0,0,,,,,0,,,85,68
101520,note_on,,,,,5,0,1,,,,,0,,,56,68
101595,note_on,,,,,75,0,1,,,,,0,,,56,0
101600,note_on,,,,,5,0,1,,,,,0,,,66,71
101639,note_on,,,,,119,0,0,,,,,0,,,73,0
101639,note_on,,,,,0,0,0,,,,,0,,,85,0
101675,note_on,,,,,75,0,1,,,,,0,,,66,0
101680,note_on,,,,,5,0,1,,,,,0,,,54,73
101755,note_on,,,,,75,0,1,,,,,0,,,54,0
101760,note_on,,,,,0,0,0,,,,,0,,,87,76
101760,note_on,,,,,5,0,1,,,,,0,,,60,76
101760,note_on,,,,,121,0,0,,,,,0,,,75,76
101835,note_on,,,,,75,0,1,,,,,0,,,60,0
101840,note_on,,,,,5,0,1,,,,,0,,,56,79
101879,note_on,,,,,119,0,0,,,,,0,,,75,0
101879,note_on,,,,,0,0,0,,,,,0,,,87,0
101915,note_on,,,,,75,0,1,,,,,0,,,56,0
101920,note_on,,,,,5,0,1,,,,,0,,,66,82
101995,note_on,,,,,75,0,1,,,,,0,,,66,0
102000,note_on,,,,,0,0,0,,,,,0,,,89,85
102000,note_on,,,,,5,0,1,,,,,0,,,37,85
102000,note_on,,,,,121,0,0,,,,,0,,,77,85
102075,note_on,,,,,75,0,1,,,,,0,,,37,0
102080,note_on,,,,,5,0,1,,,,,0,,,49,85
102155,note_on,,,,,75,0,1,,,,,0,,,49,0
102160,note_on,,,,,5,0,1,,,,,0,,,44,85
102235,note_on,,,,,75,0,1,,,,,0,,,44,0
102240,note_on,,,,,5,0,1,,,,,0,,,53,85
102315,note_on,,,,,75,0,1,,,,,0,,,53,0
102320,note_on,,,,,5,0,1,,,,,0,,,49,85
102359,note_on,,,,,0,0,0,,,,,0,,,89,0
102359,note_on,,,,,359,0,0,,,,,0,,,77,0
102360,note_on,,,,,1,0,0,,,,,0,,,73,85
102360,note_on,,,,,0,0,0,,,,,0,,,85,85
102395,note_on,,,,,75,0,1,,,,,0,,,49,0
102400,note_on,,,,,5,0,1,,,,,0,,,56,85
102473,note_on,,,,,0,0,0,,,,,0,,,85,0
102473,note_on,,,,,113,0,0,,,,,0,,,73,0
102475,note_on,,,,,75,0,1,,,,,0,,,56,0
102480,note_on,,,,,5,0,1,,,,,0,,,53,85
102480,note_on,,,,,0,0,0,,,,,0,,,80,85
102480,note_on,,,,,7,0,0,,,,,0,,,68,85
102555,note_on,,,,,75,0,1,,,,,0,,,53,0
102560,note_on,,,,,5,0,1,,,,,0,,,61,85
102635,note_on,,,,,75,0,1,,,,,0,,,61,0
102640,note_on,,,,,5,0,1,,,,,0,,,56,85
102715,note_on,,,,,75,0,1,,,,,0,,,56,0
102720,note_on,,,,,5,0,1,,,,,0,,,65,85
102795,note_on,,,,,75,0,1,,,,,0,,,65,0
102800,note_on,,,,,5,0,1,,,,,0,,,53,85
102875,note_on,,,,,75,0,1,,,,,0,,,53,0
102880,note_on,,,,,5,0,1,,,,,0,,,61,85
102935,note_on,,,,,455,0,0,,,,,0,,,68,0
102935,note_on,,,,,0,0,0,,,,,0,,,80,0
102955,note_on,,,,,75,0,1,,,,,0,,,61,0
102960,note_on,,,,,0,0,0,,,,,0,,,94,85
102960,note_on,,,,,25,0,0,,,,,0,,,82,85
102960,note_on,,,,,5,0,1,,,,,0,,,37,85
103035,note_on,,,,,75,0,1,,,,,0,,,37,0
103040,note_on,,,,,5,0,1,,,,,0,,,46,85
103115,note_on,,,,,75,0,1,,,,,0,,,46,0
103120,note_on,,,,,5,0,1,,,,,0,,,43,85
103195,note_on,,,,,75,0,1,,,,,0,,,43,0
103200,note_on,,,,,5,0,1,,,,,0,,,52,85
103275,note_on,,,,,75,0,1,,,,,0,,,52,0
103280,note_on,,,,,5,0,1,,,,,0,,,49,85
103355,note_on,,,,,75,0,1,,,,,0,,,49,0
103360,note_on,,,,,5,0,1,,,,,0,,,58,85
103415,note_on,,,,,0,0,0,,,,,0,,,94,0
103415,note_on,,,,,455,0,0,,,,,0,,,82,0
103435,note_on,,,,,75,0,1,,,,,0,,,58,0
103440,note_on,,,,,0,0,0,,,,,0,,,94,85
103440,note_on,,,,,25,0,0,,,,,0,,,82,85
103440,note_on,,,,,5,0,1,,,,,0,,,55,85
103515,note_on,,,,,75,0,1,,,,,0,,,55,0
103520,note_on,,,,,5,0,1,,,,,0,,,64,85
103595,note_on,,,,,75,0,1,,,,,0,,,64,0
103600,note_on,,,,,5,0,1,,,,,0,,,49,85
103619,note_on,,,,,179,0,0,,,,,0,,,82,0
103619,note_on,,,,,0,0,0,,,,,0,,,94,0
103675,note_on,,,,,75,0,1,,,,,0,,,49,0
103680,note_on,,,,,5,0,1,,,,,0,,,58,85
103755,note_on,,,,,75,0,1,,,,,0,,,58,0
103760,note_on,,,,,5,0,1,,,,,0,,,55,85
103800,note_on,,,,,181,0,0,,,,,0,,,82,85
103800,note_on,,,,,0,0,0,,,,,0,,,94,85
103835,note_on,,,,,75,0,1,,,,,0,,,55,0
103840,note_on,,,,,5,0,1,,,,,0,,,64,85
103859,note_on,,,,,0,0,0,,,,,0,,,94,0
103859,note_on,,,,,59,0,0,,,,,0,,,82,0
103915,note_on,,,,,75,0,1,,,,,0,,,64,0
103920,note_on,,,,,61,0,0,,,,,0,,,82,102
103920,note_on,,,,,5,0,1,,,,,0,,,37,85
103968,note_on,,,,,48,0,0,,,,,0,,,94,102
103995,note_on,,,,,75,0,1,,,,,0,,,37,0
104000,note_on,,,,,5,0,1,,,,,0,,,49,85
104075,note_on,,,,,75,0,1,,,,,0,,,49,0
104080,note_on,,,,,5,0,1,,,,,0,,,44,85
104155,note_on,,,,,75,0,1,,,,,0,,,44,0
104160,note_on,,,,,5,0,1,,,,,0,,,53,85
104235,note_on,,,,,75,0,1,,,,,0,,,53,0
104240,note_on,,,,,5,0,1,,,,,0,,,49,85
104315,note_on,,,,,75,0,1,,,,,0,,,49,0
104320,note_on,,,,,5,0,1,,,,,0,,,56,85
104395,note_on,,,,,75,0,1,,,,,0,,,56,0
104400,note_on,,,,,5,0,1,,,,,0,,,53,85
104475,note_on,,,,,75,0,1,,,,,0,,,53,0
104480,note_on,,,,,5,0,1,,,,,0,,,61,85
104551,note_on,,,,,583,0,0,,,,,0,,,82,0
104551,note_on,,,,,0,0,0,,,,,0,,,94,0
104555,note_on,,,,,75,0,1,,,,,0,,,61,0
104560,note_on,,,,,0,0,0,,,,,0,,,92,85
104560,note_on,,,,,5,0,1,,,,,0,,,56,85
104560,note_on,,,,,9,0,0,,,,,0,,,80,85
104635,note_on,,,,,75,0,1,,,,,0,,,56,0
104640,note_on,,,,,5,0,1,,,,,0,,,65,85
104711,note_on,,,,,0,0,0,,,,,0,,,92,0
104711,note_on,,,,,151,0,0,,,,,0,,,80,0
104715,note_on,,,,,75,0,1,,,,,0,,,65,0
104720,note_on,,,,,5,0,1,,,,,0,,,53,85
104720,note_on,,,,,0,0,0,,,,,0,,,89,85
104720,note_on,,,,,9,0,0,,,,,0,,,77,85
104795,note_on,,,,,75,0,1,,,,,0,,,53,0
104800,note_on,,,,,5,0,1,,,,,0,,,61,85
104871,note_on,,,,,151,0,0,,,,,0,,,77,0
104871,note_on,,,,,0,0,0,,,,,0,,,89,0
104875,note_on,,,,,75,0,1,,,,,0,,,61,0
104880,note_on,,,,,9,0,0,,,,,0,,,77,102
104880,note_on,,,,,0,0,0,,,,,0,,,89,102
104880,note_on,,,,,5,0,1,,,,,0,,,37,85
104955,note_on,,,,,75,0,1,,,,,0,,,37,0
104960,note_on,,,,,5,0,1,,,,,0,,,48,85
105035,note_on,,,,,75,0,1,,,,,0,,,48,0
105040,note_on,,,,,5,0,1,,,,,0,,,45,85
105115,note_on,,,,,75,0,1,,,,,0,,,45,0
105120,note_on,,,,,5,0,1,,,,,0,,,54,85
105195,note_on,,,,,75,0,1,,,,,0,,,54,0
105200,note_on,,,,,5,0,1,,,,,0,,,48,85
105275,note_on,,,,,75,0,1,,,,,0,,,48,0
105280,note_on,,,,,5,0,1,,,,,0,,,57,85
105355,note_on,,,,,75,0,1,,,,,0,,,57,0
105360,note_on,,,,,5,0,1,,,,,0,,,54,85
105435,note_on,,,,,75,0,1,,,,,0,,,54,0
105440,note_on,,,,,5,0,1,,,,,0,,,63,85
105473,note_on,,,,,593,0,0,,,,,0,,,77,0
105473,note_on,,,,,0,0,0,,,,,0,,,89,0
105480,note_on,,,,,7,0,0,,,,,0,,,75,85
105480,note_on,,,,,0,0,0,,,,,0,,,87,85
105515,note_on,,,,,75,0,1,,,,,0,,,63,0
105520,note_on,,,,,5,0,1,,,,,0,,,48,85
105593,note_on,,,,,113,0,0,,,,,0,,,75,0
105593,note_on,,,,,0,0,0,,,,,0,,,87,0
105595,note_on,,,,,75,0,1,,,,,0,,,48,0
105600,note_on,,,,,0,0,0,,,,,0,,,84,85
105600,note_on,,,,,7,0,0,,,,,0,,,72,85
105600,note_on,,,,,5,0,1,,,,,0,,,57,85
105675,note_on,,,,,75,0,1,,,,,0,,,57,0
105680,note_on,,,,,5,0,1,,,,,0,,,54,85
105713,note_on,,,,,113,0,0,,,,,0,,,72,0
105713,note_on,,,,,0,0,0,,,,,0,,,84,0
105720,note_on,,,,,0,0,0,,,,,0,,,81,85
105720,note_on,,,,,7,0,0,,,,,0,,,69,85
105755,note_on,,,,,75,0,1,,,,,0,,,54,0
105760,note_on,,,,,5,0,1,,,,,0,,,63,85
105833,note_on,,,,,113,0,0,,,,,0,,,69,0
105833,note_on,,,,,0,0,0,,,,,0,,,81,0
105835,note_on,,,,,75,0,1,,,,,0,,,63,0
105840,note_on,,,,,7,0,0,,,,,0,,,69,102
105840,note_on,,,,,0,0,0,,,,,0,,,81,102
105840,note_on,,,,,5,0,1,,,,,0,,,37,85
105915,note_on,,,,,75,0,1,,,,,0,,,37,0
105920,note_on,,,,,5,0,1,,,,,0,,,49,85
105995,note_on,,,,,75,0,1,,,,,0,,,49,0
106000,note_on,,,,,5,0,1,,,,,0,,,44,85
106075,note_on,,,,,75,0,1,,,,,0,,,44,0
106080,note_on,,,,,5,0,1,,,,,0,,,53,85
106155,note_on,,,,,75,0,1,,,,,0,,,53,0
106160,note_on,,,,,5,0,1,,,,,0,,,49,85
106235,note_on,,,,,75,0,1,,,,,0,,,49,0
106240,note_on,,,,,5,0,1,,,,,0,,,56,85
106315,note_on,,,,,75,0,1,,,,,0,,,56,0
106320,note_on,,,,,5,0,1,,,,,0,,,53,85
106395,note_on,,,,,75,0,1,,,,,0,,,53,0
106400,note_on,,,,,5,0,1,,,,,0,,,61,89
106433,note_on,,,,,0,0,0,,,,,0,,,81,0
106433,note_on,,,,,593,0,0,,,,,0,,,69,0
106440,note_on,,,,,0,0,0,,,,,0,,,80,91
106440,note_on,,,,,7,0,0,,,,,0,,,68,91
106475,note_on,,,,,75,0,1,,,,,0,,,61,0
106480,note_on,,,,,5,0,1,,,,,0,,,56,94
106553,note_on,,,,,0,0,0,,,,,0,,,80,0
106553,note_on,,,,,113,0,0,,,,,0,,,68,0
106555,note_on,,,,,75,0,1,,,,,0,,,56,0
106560,note_on,,,,,5,0,1,,,,,0,,,65,98
106560,note_on,,,,,7,0,0,,,,,0,,,73,98
106560,note_on,,,,,0,0,0,,,,,0,,,85,98
106635,note_on,,,,,75,0,1,,,,,0,,,65,0
106640,note_on,,,,,5,0,1,,,,,0,,,53,103
106673,note_on,,,,,0,0,0,,,,,0,,,85,0
106673,note_on,,,,,113,0,0,,,,,0,,,73,0
106680,note_on,,,,,7,0,0,,,,,0,,,77,105
106680,note_on,,,,,0,0,0,,,,,0,,,89,105
106715,note_on,,,,,75,0,1,,,,,0,,,53,0
106720,note_on,,,,,5,0,1,,,,,0,,,61,107
106793,note_on,,,,,0,0,0,,,,,0,,,89,0
106793,note_on,,,,,113,0,0,,,,,0,,,77,0
106795,note_on,,,,,75,0,1,,,,,0,,,61,0
106800,note_on,,,,,5,0,1,,,,,0,,,37,112
106800,note_on,,,,,7,0,0,,,,,0,,,82,112
106800,note_on,,,,,0,0,0,,,,,0,,,94,112
106875,note_on,,,,,75,0,1,,,,,0,,,37,0
106880,note_on,,,,,5,0,1,,,,,0,,,46,112
106955,note_on,,,,,75,0,1,,,,,0,,,46,0
106960,note_on,,,,,5,0,1,,,,,0,,,43,112
107035,note_on,,,,,75,0,1,,,,,0,,,43,0
107040,note_on,,,,,5,0,1,,,,,0,,,52,112
107115,note_on,,,,,75,0,1,,,,,0,,,52,0
107120,note_on,,,,,5,0,1,,,,,0,,,49,112
107195,note_on,,,,,75,0,1,,,,,0,,,49,0
107200,note_on,,,,,5,0,1,,,,,0,,,58,112
107255,note_on,,,,,455,0,0,,,,,0,,,82,0
107255,note_on,,,,,0,0,0,,,,,0,,,94,0
107275,note_on,,,,,75,0,1,,,,,0,,,58,0
107280,note_on,,,,,0,0,0,,,,,0,,,94,112
107280,note_on,,,,,25,0,0,,,,,0,,,82,112
107280,note_on,,,,,5,0,1,,,,,0,,,55,112
107355,note_on,,,,,75,0,1,,,,,0,,,55,0
107360,note_on,,,,,5,0,1,,,,,0,,,64,112
107435,note_on,,,,,75,0,1,,,,,0,,,64,0
107440,note_on,,,,,5,0,1,,,,,0,,,49,112
107459,note_on,,,,,0,0,0,,,,,0,,,94,0
107459,note_on,,,,,179,0,0,,,,,0,,,82,0
107515,note_on,,,,,75,0,1,,,,,0,,,49,0
107520,note_on,,,,,5,0,1,,,,,0,,,58,112
107595,note_on,,,,,75,0,1,,,,,0,,,58,0
107600,note_on,,,,,5,0,1,,,,,0,,,55,112
107640,note_on,,,,,181,0,0,,,,,0,,,82,112
107640,note_on,,,,,0,0,0,,,,,0,,,94,112
107675,note_on,,,,,75,0,1,,,,,0,,,55,0
107680,note_on,,,,,5,0,1,,,,,0,,,64,112
107699,note_on,,,,,0,0,0,,,,,0,,,94,0
107699,note_on,,,,,59,0,0,,,,,0,,,82,0
107755,note_on,,,,,75,0,1,,,,,0,,,64,0
107760,note_on,,,,,5,0,1,,,,,0,,,37,112
107760,note_on,,,,,0,0,0,,,,,0,,,94,127
107760,note_on,,,,,61,0,0,,,,,0,,,82,127
107835,note_on,,,,,75,0,1,,,,,0,,,37,0
107840,note_on,,,,,5,0,1,,,,,0,,,49,112
107915,note_on,,,,,75,0,1,,,,,0,,,49,0
107920,note_on,,,,,5,0,1,,,,,0,,,44,112
107995,note_on,,,,,75,0,1,,,,,0,,,44,0
108000,note_on,,,,,5,0,1,,,,,0,,,53,112
108075,note_on,,,,,75,0,1,,,,,0,,,53,0
108080,note_on,,,,,5,0,1,,,,,0,,,49,112
108155,note_on,,,,,75,0,1,,,,,0,,,49,0
108160,note_on,,,,,5,0,1,,,,,0,,,56,112
108235,note_on,,,,,75,0,1,,,,,0,,,56,0
108240,note_on,,,,,5,0,1,,,,,0,,,53,112
108315,note_on,,,,,75,0,1,,,,,0,,,53,0
108320,note_on,,,,,5,0,1,,,,,0,,,61,112
108391,note_on,,,,,631,0,0,,,,,0,,,82,0
108391,note_on,,,,,0,0,0,,,,,0,,,94,0
108395,note_on,,,,,75,0,1,,,,,0,,,61,0
108400,note_on,,,,,0,0,0,,,,,0,,,92,112
108400,note_on,,,,,5,0,1,,,,,0,,,56,112
108400,note_on,,,,,9,0,0,,,,,0,,,80,112
108475,note_on,,,,,75,0,1,,,,,0,,,56,0
108480,note_on,,,,,5,0,1,,,,,0,,,65,112
108551,note_on,,,,,0,0,0,,,,,0,,,92,0
108551,note_on,,,,,151,0,0,,,,,0,,,80,0
108555,note_on,,,,,75,0,1,,,,,0,,,65,0
108560,note_on,,,,,0,0,0,,,,,0,,,89,112
108560,note_on,,,,,5,0,1,,,,,0,,,53,112
108560,note_on,,,,,9,0,0,,,,,0,,,77,112
108635,note_on,,,,,75,0,1,,,,,0,,,53,0
108640,note_on,,,,,5,0,1,,,,,0,,,61,112
108711,note_on,,,,,151,0,0,,,,,0,,,77,0
108711,note_on,,,,,0,0,0,,,,,0,,,89,0
108715,note_on,,,,,75,0,1,,,,,0,,,61,0
108720,note_on,,,,,5,0,1,,,,,0,,,37,112
108720,note_on,,,,,0,0,0,,,,,0,,,89,127
108720,note_on,,,,,9,0,0,,,,,0,,,77,127
108795,note_on,,,,,75,0,1,,,,,0,,,37,0
108800,note_on,,,,,5,0,1,,,,,0,,,48,112
108875,note_on,,,,,75,0,1,,,,,0,,,48,0
108880,note_on,,,,,5,0,1,,,,,0,,,45,112
108955,note_on,,,,,75,0,1,,,,,0,,,45,0
108960,note_on,,,,,5,0,1,,,,,0,,,54,112
109035,note_on,,,,,75,0,1,,,,,0,,,54,0
109040,note_on,,,,,5,0,1,,,,,0,,,48,112
109115,note_on,,,,,75,0,1,,,,,0,,,48,0
109120,note_on,,,,,5,0,1,,,,,0,,,57,112
109195,note_on,,,,,75,0,1,,,,,0,,,57,0
109200,note_on,,,,,5,0,1,,,,,0,,,54,112
109275,note_on,,,,,75,0,1,,,,,0,,,54,0
109280,note_on,,,,,5,0,1,,,,,0,,,63,112
109313,note_on,,,,,0,0,0,,,,,0,,,89,0
109313,note_on,,,,,593,0,0,,,,,0,,,77,0
109320,note_on,,,,,7,0,0,,,,,0,,,75,112
109320,note_on,,,,,0,0,0,,,,,0,,,87,112
109355,note_on,,,,,75,0,1,,,,,0,,,63,0
109360,note_on,,,,,5,0,1,,,,,0,,,48,112
109433,note_on,,,,,0,0,0,,,,,0,,,87,0
109433,note_on,,,,,113,0,0,,,,,0,,,75,0
109435,note_on,,,,,75,0,1,,,,,0,,,48,0
109440,note_on,,,,,7,0,0,,,,,0,,,72,112
109440,note_on,,,,,0,0,0,,,,,0,,,84,112
109440,note_on,,,,,5,0,1,,,,,0,,,57,112
109515,note_on,,,,,75,0,1,,,,,0,,,57,0
109520,note_on,,,,,5,0,1,,,,,0,,,54,112
109553,note_on,,,,,0,0,0,,,,,0,,,84,0
109553,note_on,,,,,113,0,0,,,,,0,,,72,0
109560,note_on,,,,,0,0,0,,,,,0,,,81,112
109560,note_on,,,,,7,0,0,,,,,0,,,69,112
109595,note_on,,,,,75,0,1,,,,,0,,,54,0
109600,note_on,,,,,5,0,1,,,,,0,,,63,112
109673,note_on,,,,,0,0,0,,,,,0,,,81,0
109673,note_on,,,,,113,0,0,,,,,0,,,69,0
109675,note_on,,,,,75,0,1,,,,,0,,,63,0
109680,note_on,,,,,7,0,0,,,,,0,,,69,127
109680,note_on,,,,,5,0,1,,,,,0,,,37,112
109680,note_on,,,,,0,0,0,,,,,0,,,81,127
109755,note_on,,,,,75,0,1,,,,,0,,,37,0
109760,note_on,,,,,5,0,1,,,,,0,,,49,112
109835,note_on,,,,,75,0,1,,,,,0,,,49,0
109840,note_on,,,,,5,0,1,,,,,0,,,44,112
109915,note_on,,,,,75,0,1,,,,,0,,,44,0
109920,note_on,,,,,5,0,1,,,,,0,,,53,112
109995,note_on,,,,,75,0,1,,,,,0,,,53,0
110000,note_on,,,,,5,0,1,,,,,0,,,49,112
110075,note_on,,,,,75,0,1,,,,,0,,,49,0
110080,note_on,,,,,5,0,1,,,,,0,,,58,112
110155,note_on,,,,,75,0,1,,,,,0,,,58,0
110160,note_on,,,,,5,0,1,,,,,0,,,53,112
110235,note_on,,,,,75,0,1,,,,,0,,,53,0
110240,note_on,,,,,5,0,1,,,,,0,,,61,112
110273,note_on,,,,,593,0,0,,,,,0,,,69,0
110273,note_on,,,,,0,0,0,,,,,0,,,81,0
110280,note_on,,,,,7,0,0,,,,,0,,,70,112
110280,note_on,,,,,0,0,0,,,,,0,,,82,112
110315,note_on,,,,,75,0,1,,,,,0,,,61,0
110320,note_on,,,,,5,0,1,,,,,0,,,56,112
110393,note_on,,,,,113,0,0,,,,,0,,,70,0
110393,note_on,,,,,0,0,0,,,,,0,,,82,0
110395,note_on,,,,,75,0,1,,,,,0,,,56,0
110400,note_on,,,,,0,0,0,,,,,0,,,85,112
110400,note_on,,,,,5,0,1,,,,,0,,,65,112
110400,note_on,,,,,7,0,0,,,,,0,,,73,112
110475,note_on,,,,,75,0,1,,,,,0,,,65,0
110480,note_on,,,,,5,0,1,,,,,0,,,53,112
110513,note_on,,,,,113,0,0,,,,,0,,,73,0
110513,note_on,,,,,0,0,0,,,,,0,,,85,0
110520,note_on,,,,,7,0,0,,,,,0,,,77,112
110520,note_on,,,,,0,0,0,,,,,0,,,89,112
110555,note_on,,,,,75,0,1,,,,,0,,,53,0
110560,note_on,,,,,5,0,1,,,,,0,,,61,112
110633,note_on,,,,,0,0,0,,,,,0,,,89,0
110633,note_on,,,,,113,0,0,,,,,0,,,77,0
110635,note_on,,,,,75,0,1,,,,,0,,,61,0
110640,note_on,,,,,0,0,0,,,,,0,,,94,112
110640,note_on,,,,,5,0,1,,,,,0,,,37,112
110640,note_on,,,,,7,0,0,,,,,0,,,82,112
110715,note_on,,,,,75,0,1,,,,,0,,,37,0
110720,note_on,,,,,5,0,1,,,,,0,,,46,112
110795,note_on,,,,,75,0,1,,,,,0,,,46,0
110800,note_on,,,,,5,0,1,,,,,0,,,43,112
110875,note_on,,,,,75,0,1,,,,,0,,,43,0
110880,note_on,,,,,5,0,1,,,,,0,,,53,112
110955,note_on,,,,,75,0,1,,,,,0,,,53,0
110960,note_on,,,,,5,0,1,,,,,0,,,49,112
111035,note_on,,,,,75,0,1,,,,,0,,,49,0
111040,note_on,,,,,5,0,1,,,,,0,,,58,112
111095,note_on,,,,,0,0,0,,,,,0,,,94,0
111095,note_on,,,,,455,0,0,,,,,0,,,82,0
111115,note_on,,,,,75,0,1,,,,,0,,,58,0
111120,note_on,,,,,25,0,0,,,,,0,,,82,112
111120,note_on,,,,,0,0,0,,,,,0,,,94,112
111120,note_on,,,,,5,0,1,,,,,0,,,55,112
111195,note_on,,,,,75,0,1,,,,,0,,,55,0
111200,note_on,,,,,5,0,1,,,,,0,,,65,112
111275,note_on,,,,,75,0,1,,,,,0,,,65,0
111280,note_on,,,,,5,0,1,,,,,0,,,49,112
111299,note_on,,,,,179,0,0,,,,,0,,,82,0
111299,note_on,,,,,0,0,0,,,,,0,,,94,0
111355,note_on,,,,,75,0,1,,,,,0,,,49,0
111360,note_on,,,,,5,0,1,,,,,0,,,58,112
111435,note_on,,,,,75,0,1,,,,,0,,,58,0
111440,note_on,,,,,5,0,1,,,,,0,,,55,112
111480,note_on,,,,,0,0,0,,,,,0,,,94,112
111480,note_on,,,,,181,0,0,,,,,0,,,82,112
111515,note_on,,,,,75,0,1,,,,,0,,,55,0
111520,note_on,,,,,5,0,1,,,,,0,,,65,112
111539,note_on,,,,,0,0,0,,,,,0,,,94,0
111539,note_on,,,,,59,0,0,,,,,0,,,82,0
111595,note_on,,,,,75,0,1,,,,,0,,,65,0
111600,note_on,,,,,0,0,0,,,,,0,,,94,112
111600,note_on,,,,,61,0,0,,,,,0,,,82,112
111600,note_on,,,,,5,0,1,,,,,0,,,36,112
111675,note_on,,,,,75,0,1,,,,,0,,,36,0
111680,note_on,,,,,5,0,1,,,,,0,,,46,112
111755,note_on,,,,,75,0,1,,,,,0,,,46,0
111760,note_on,,,,,5,0,1,,,,,0,,,43,112
111835,note_on,,,,,75,0,1,,,,,0,,,43,0
111840,note_on,,,,,5,0,1,,,,,0,,,52,112
111915,note_on,,,,,75,0,1,,,,,0,,,52,0
111920,note_on,,,,,5,0,1,,,,,0,,,48,112
111995,note_on,,,,,75,0,1,,,,,0,,,48,0
112000,note_on,,,,,5,0,1,,,,,0,,,58,112
112075,note_on,,,,,75,0,1,,,,,0,,,58,0
112080,note_on,,,,,5,0,1,,,,,0,,,55,112
112155,note_on,,,,,75,0,1,,,,,0,,,55,0
112160,note_on,,,,,5,0,1,,,,,0,,,64,112
112169,note_on,,,,,0,0,0,,,,,0,,,94,0
112169,note_on,,,,,569,0,0,,,,,0,,,82,0
112200,note_on,,,,,0,0,0,,,,,0,,,91,112
112200,note_on,,,,,31,0,0,,,,,0,,,79,112
112235,note_on,,,,,75,0,1,,,,,0,,,64,0
112240,note_on,,,,,5,0,1,,,,,0,,,48,112
112313,note_on,,,,,0,0,0,,,,,0,,,91,0
112313,note_on,,,,,113,0,0,,,,,0,,,79,0
112315,note_on,,,,,75,0,1,,,,,0,,,48,0
112320,note_on,,,,,5,0,1,,,,,0,,,58,112
112320,note_on,,,,,0,0,0,,,,,0,,,88,112
112320,note_on,,,,,7,0,0,,,,,0,,,76,112
112395,note_on,,,,,75,0,1,,,,,0,,,58,0
112400,note_on,,,,,5,0,1,,,,,0,,,55,112
112433,note_on,,,,,113,0,0,,,,,0,,,76,0
112433,note_on,,,,,0,0,0,,,,,0,,,88,0
112440,note_on,,,,,7,0,0,,,,,0,,,73,112
112440,note_on,,,,,0,0,0,,,,,0,,,85,112
112475,note_on,,,,,75,0,1,,,,,0,,,55,0
112480,note_on,,,,,5,0,1,,,,,0,,,64,112
112553,note_on,,,,,113,0,0,,,,,0,,,73,0
112553,note_on,,,,,0,0,0,,,,,0,,,85,0
112555,note_on,,,,,75,0,1,,,,,0,,,64,0
112560,note_on,,,,,0,0,0,,,,,0,,,97,112
112560,note_on,,,,,5,0,1,,,,,0,,,34,112
112560,note_on,,,,,7,0,0,,,,,0,,,85,112
112635,note_on,,,,,75,0,1,,,,,0,,,34,0
112640,note_on,,,,,5,0,1,,,,,0,,,43,112
112715,note_on,,,,,75,0,1,,,,,0,,,43,0
112720,note_on,,,,,5,0,1,,,,,0,,,41,112
112795,note_on,,,,,75,0,1,,,,,0,,,41,0
112800,note_on,,,,,5,0,1,,,,,0,,,49,112
112875,note_on,,,,,75,0,1,,,,,0,,,49,0
112880,note_on,,,,,5,0,1,,,,,0,,,46,112
112955,note_on,,,,,75,0,1,,,,,0,,,46,0
112960,note_on,,,,,5,0,1,,,,,0,,,55,112
113015,note_on,,,,,455,0,0,,,,,0,,,85,0
113015,note_on,,,,,0,0,0,,,,,0,,,97,0
113035,note_on,,,,,75,0,1,,,,,0,,,55,0
113040,note_on,,,,,25,0,0,,,,,0,,,85,112
113040,note_on,,,,,0,0,0,,,,,0,,,97,112
113040,note_on,,,,,5,0,1,,,,,0,,,53,112
113115,note_on,,,,,75,0,1,,,,,0,,,53,0
113120,note_on,,,,,5,0,1,,,,,0,,,61,112
113195,note_on,,,,,75,0,1,,,,,0,,,61,0
113200,note_on,,,,,5,0,1,,,,,0,,,46,112
113275,note_on,,,,,75,0,1,,,,,0,,,46,0
113280,note_on,,,,,5,0,1,,,,,0,,,55,112
113355,note_on,,,,,75,0,1,,,,,0,,,55,0
113360,note_on,,,,,5,0,1,,,,,0,,,53,112
113381,note_on,,,,,341,0,0,,,,,0,,,85,0
113381,note_on,,,,,0,0,0,,,,,0,,,97,0
113400,note_on,,,,,0,0,0,,,,,0,,,97,112
113400,note_on,,,,,19,0,0,,,,,0,,,85,112
113435,note_on,,,,,75,0,1,,,,,0,,,53,0
113440,note_on,,,,,5,0,1,,,,,0,,,61,112
113513,note_on,,,,,0,0,0,,,,,0,,,97,0
113513,note_on,,,,,113,0,0,,,,,0,,,85,0
113515,note_on,,,,,75,0,1,,,,,0,,,61,0
113520,note_on,,,,,5,0,1,,,,,0,,,36,112
113520,note_on,,,,,0,0,0,,,,,0,,,97,112
113520,note_on,,,,,7,0,0,,,,,0,,,85,112
113595,note_on,,,,,75,0,1,,,,,0,,,36,0
113600,note_on,,,,,5,0,1,,,,,0,,,46,112
113675,note_on,,,,,75,0,1,,,,,0,,,46,0
113680,note_on,,,,,5,0,1,,,,,0,,,43,112
113755,note_on,,,,,75,0,1,,,,,0,,,43,0
113760,note_on,,,,,5,0,1,,,,,0,,,52,112
113835,note_on,,,,,75,0,1,,,,,0,,,52,0
113840,note_on,,,,,5,0,1,,,,,0,,,48,112
113915,note_on,,,,,75,0,1,,,,,0,,,48,0
113920,note_on,,,,,5,0,1,,,,,0,,,58,112
113995,note_on,,,,,75,0,1,,,,,0,,,58,0
114000,note_on,,,,,5,0,1,,,,,0,,,55,112
114066,note_on,,,,,0,0,0,,,,,0,,,97,0
114066,note_on,,,,,546,0,0,,,,,0,,,85,0
114075,note_on,,,,,75,0,1,,,,,0,,,55,0
114080,note_on,,,,,5,0,1,,,,,0,,,64,112
114096,note_on,,,,,0,0,0,,,,,0,,,94,112
114096,note_on,,,,,30,0,0,,,,,0,,,82,112
114155,note_on,,,,,75,0,1,,,,,0,,,64,0
114160,note_on,,,,,5,0,1,,,,,0,,,48,112
114186,note_on,,,,,0,0,0,,,,,0,,,94,0
114186,note_on,,,,,90,0,0,,,,,0,,,82,0
114192,note_on,,,,,0,0,0,,,,,0,,,91,112
114192,note_on,,,,,6,0,0,,,,,0,,,79,112
114235,note_on,,,,,75,0,1,,,,,0,,,48,0
114240,note_on,,,,,5,0,1,,,,,0,,,58,112
114282,note_on,,,,,0,0,0,,,,,0,,,91,0
114282,note_on,,,,,90,0,0,,,,,0,,,79,0
114288,note_on,,,,,6,0,0,,,,,0,,,76,112
114288,note_on,,,,,0,0,0,,,,,0,,,88,112
114315,note_on,,,,,75,0,1,,,,,0,,,58,0
114320,note_on,,,,,5,0,1,,,,,0,,,55,112
114378,note_on,,,,,90,0,0,,,,,0,,,76,0
114378,note_on,,,,,0,0,0,,,,,0,,,88,0
114384,note_on,,,,,6,0,0,,,,,0,,,73,112
114384,note_on,,,,,0,0,0,,,,,0,,,85,112
114395,note_on,,,,,75,0,1,,,,,0,,,55,0
114400,note_on,,,,,5,0,1,,,,,0,,,64,112
114474,note_on,,,,,0,0,0,,,,,0,,,85,0
114474,note_on,,,,,90,0,0,,,,,0,,,73,0
114475,note_on,,,,,75,0,1,,,,,0,,,64,0
114480,note_on,,,,,5,0,1,,,,,0,,,37,112
114480,note_on,,,,,6,0,0,,,,,0,,,82,112
114480,note_on,,,,,0,0,0,,,,,0,,,94,112
114555,note_on,,,,,75,0,1,,,,,0,,,37,0
114560,note_on,,,,,5,0,1,,,,,0,,,49,112
114635,note_on,,,,,75,0,1,,,,,0,,,49,0
114640,note_on,,,,,5,0,1,,,,,0,,,46,112
114715,note_on,,,,,75,0,1,,,,,0,,,46,0
114720,note_on,,,,,5,0,1,,,,,0,,,54,112
114795,note_on,,,,,75,0,1,,,,,0,,,54,0
114800,note_on,,,,,5,0,1,,,,,0,,,49,112
114875,note_on,,,,,75,0,1,,,,,0,,,49,0
114880,note_on,,,,,5,0,1,,,,,0,,,58,112
114935,note_on,,,,,0,0,0,,,,,0,,,94,0
114935,note_on,,,,,455,0,0,,,,,0,,,82,0
114955,note_on,,,,,75,0,1,,,,,0,,,58,0
114960,note_on,,,,,0,0,0,,,,,0,,,94,112
114960,note_on,,,,,5,0,1,,,,,0,,,54,112
114960,note_on,,,,,25,0,0,,,,,0,,,82,112
115035,note_on,,,,,75,0,1,,,,,0,,,54,0
115040,note_on,,,,,5,0,1,,,,,0,,,61,112
115115,note_on,,,,,75,0,1,,,,,0,,,61,0
115120,note_on,,,,,5,0,1,,,,,0,,,58,112
115195,note_on,,,,,75,0,1,,,,,0,,,58,0
115200,note_on,,,,,5,0,1,,,,,0,,,66,112
115275,note_on,,,,,75,0,1,,,,,0,,,66,0
115280,note_on,,,,,5,0,1,,,,,0,,,54,112
115301,note_on,,,,,341,0,0,,,,,0,,,82,0
115301,note_on,,,,,0,0,0,,,,,0,,,94,0
115320,note_on,,,,,0,0,0,,,,,0,,,94,112
115320,note_on,,,,,19,0,0,,,,,0,,,82,112
115355,note_on,,,,,75,0,1,,,,,0,,,54,0
115360,note_on,,,,,5,0,1,,,,,0,,,61,112
115433,note_on,,,,,113,0,0,,,,,0,,,82,0
115433,note_on,,,,,0,0,0,,,,,0,,,94,0
115435,note_on,,,,,75,0,1,,,,,0,,,61,0
115440,note_on,,,,,5,0,1,,,,,0,,,36,112
115440,note_on,,,,,0,0,0,,,,,0,,,94,112
115440,note_on,,,,,7,0,0,,,,,0,,,82,112
115515,note_on,,,,,75,0,1,,,,,0,,,36,0
115520,note_on,,,,,5,0,1,,,,,0,,,46,112
115595,note_on,,,,,75,0,1,,,,,0,,,46,0
115600,note_on,,,,,5,0,1,,,,,0,,,43,112
115675,note_on,,,,,75,0,1,,,,,0,,,43,0
115680,note_on,,,,,5,0,1,,,,,0,,,52,112
115755,note_on,,,,,75,0,1,,,,,0,,,52,0
115760,note_on,,,,,5,0,1,,,,,0,,,48,112
115835,note_on,,,,,75,0,1,,,,,0,,,48,0
115840,note_on,,,,,5,0,1,,,,,0,,,58,112
115915,note_on,,,,,75,0,1,,,,,0,,,58,0
115920,note_on,,,,,5,0,1,,,,,0,,,55,112
115986,note_on,,,,,546,0,0,,,,,0,,,82,0
115986,note_on,,,,,0,0,0,,,,,0,,,94,0
115995,note_on,,,,,75,0,1,,,,,0,,,55,0
116000,note_on,,,,,5,0,1,,,,,0,,,64,112
116016,note_on,,,,,0,0,0,,,,,0,,,91,112
116016,note_on,,,,,30,0,0,,,,,0,,,79,112
116075,note_on,,,,,75,0,1,,,,,0,,,64,0
116080,note_on,,,,,5,0,1,,,,,0,,,48,112
116106,note_on,,,,,90,0,0,,,,,0,,,79,0
116106,note_on,,,,,0,0,0,,,,,0,,,91,0
116112,note_on,,,,,0,0,0,,,,,0,,,88,112
116112,note_on,,,,,6,0,0,,,,,0,,,76,112
116155,note_on,,,,,75,0,1,,,,,0,,,48,0
116160,note_on,,,,,5,0,1,,,,,0,,,58,112
116202,note_on,,,,,90,0,0,,,,,0,,,76,0
116202,note_on,,,,,0,0,0,,,,,0,,,88,0
116208,note_on,,,,,0,0,0,,,,,0,,,85,112
116208,note_on,,,,,6,0,0,,,,,0,,,73,112
116235,note_on,,,,,75,0,1,,,,,0,,,58,0
116240,note_on,,,,,5,0,1,,,,,0,,,55,112
116298,note_on,,,,,0,0,0,,,,,0,,,85,0
116298,note_on,,,,,90,0,0,,,,,0,,,73,0
116304,note_on,,,,,6,0,0,,,,,0,,,70,112
116304,note_on,,,,,0,0,0,,,,,0,,,82,112
116315,note_on,,,,,75,0,1,,,,,0,,,55,0
116320,note_on,,,,,5,0,1,,,,,0,,,64,112
116394,note_on,,,,,90,0,0,,,,,0,,,70,0
116394,note_on,,,,,0,0,0,,,,,0,,,82,0
116395,note_on,,,,,75,0,1,,,,,0,,,64,0
116400,note_on,,,,,6,0,0,,,,,0,,,85,112
116400,note_on,,,,,0,0,0,,,,,0,,,97,112
116400,note_on,,,,,5,0,1,,,,,0,,,34,112
116475,note_on,,,,,75,0,1,,,,,0,,,34,0
116480,note_on,,,,,5,0,1,,,,,0,,,46,112
116555,note_on,,,,,75,0,1,,,,,0,,,46,0
116560,note_on,,,,,5,0,1,,,,,0,,,49,112
116635,note_on,,,,,75,0,1,,,,,0,,,49,0
116640,note_on,,,,,5,0,1,,,,,0,,,58,112
116715,note_on,,,,,75,0,1,,,,,0,,,58,0
116720,note_on,,,,,5,0,1,,,,,0,,,54,112
116795,note_on,,,,,75,0,1,,,,,0,,,54,0
116800,note_on,,,,,5,0,1,,,,,0,,,61,112
116855,note_on,,,,,455,0,0,,,,,0,,,85,0
116855,note_on,,,,,0,0,0,,,,,0,,,97,0
116875,note_on,,,,,75,0,1,,,,,0,,,61,0
116880,note_on,,,,,0,0,0,,,,,0,,,97,112
116880,note_on,,,,,5,0,1,,,,,0,,,58,112
116880,note_on,,,,,25,0,0,,,,,0,,,85,112
116955,note_on,,,,,75,0,1,,,,,0,,,58,0
116960,note_on,,,,,5,0,1,,,,,0,,,66,112
117035,note_on,,,,,75,0,1,,,,,0,,,66,0
117040,note_on,,,,,5,0,1,,,,,0,,,54,112
117115,note_on,,,,,75,0,1,,,,,0,,,54,0
117120,note_on,,,,,5,0,1,,,,,0,,,61,112
117195,note_on,,,,,75,0,1,,,,,0,,,61,0
117200,note_on,,,,,5,0,1,,,,,0,,,58,112
117221,note_on,,,,,341,0,0,,,,,0,,,85,0
117221,note_on,,,,,0,0,0,,,,,0,,,97,0
117240,note_on,,,,,19,0,0,,,,,0,,,85,112
117240,note_on,,,,,0,0,0,,,,,0,,,97,112
117275,note_on,,,,,75,0,1,,,,,0,,,58,0
117280,note_on,,,,,5,0,1,,,,,0,,,66,112
117353,note_on,,,,,113,0,0,,,,,0,,,85,0
117353,note_on,,,,,0,0,0,,,,,0,,,97,0
117355,note_on,,,,,75,0,1,,,,,0,,,66,0
117360,note_on,,,,,7,0,0,,,,,0,,,85,112
117360,note_on,,,,,0,0,0,,,,,0,,,97,112
117360,note_on,,,,,5,0,1,,,,,0,,,33,112
117435,note_on,,,,,75,0,1,,,,,0,,,33,0
117440,note_on,,,,,5,0,1,,,,,0,,,45,112
117515,note_on,,,,,75,0,1,,,,,0,,,45,0
117520,note_on,,,,,5,0,1,,,,,0,,,52,112
117587,note_on,,,,,0,0,0,,,,,0,,,97,0
117587,note_on,,,,,227,0,0,,,,,0,,,85,0
117595,note_on,,,,,75,0,1,,,,,0,,,52,0
117600,note_on,,,,,5,0,1,,,,,0,,,61,112
117600,note_on,,,,,0,0,0,,,,,0,,,97,112
117600,note_on,,,,,13,0,0,,,,,0,,,85,112
117675,note_on,,,,,75,0,1,,,,,0,,,61,0
117680,note_on,,,,,5,0,1,,,,,0,,,55,112
117755,note_on,,,,,75,0,1,,,,,0,,,55,0
117760,note_on,,,,,5,0,1,,,,,0,,,64,112
117835,note_on,,,,,75,0,1,,,,,0,,,64,0
117840,note_on,,,,,5,0,1,,,,,0,,,32,112
117915,note_on,,,,,75,0,1,,,,,0,,,32,0
117920,note_on,,,,,5,0,1,,,,,0,,,44,112
117995,note_on,,,,,75,0,1,,,,,0,,,44,0
118000,note_on,,,,,5,0,1,,,,,0,,,52,112
118055,note_on,,,,,455,0,0,,,,,0,,,85,0
118055,note_on,,,,,0,0,0,,,,,0,,,97,0
118075,note_on,,,,,75,0,1,,,,,0,,,52,0
118080,note_on,,,,,25,0,0,,,,,0,,,85,112
118080,note_on,,,,,0,0,0,,,,,0,,,97,112
118080,note_on,,,,,5,0,1,,,,,0,,,61,112
118155,note_on,,,,,75,0,1,,,,,0,,,61,0
118160,note_on,,,,,5,0,1,,,,,0,,,56,112
118235,note_on,,,,,75,0,1,,,,,0,,,56,0
118240,note_on,,,,,5,0,1,,,,,0,,,64,112
118315,note_on,,,,,75,0,1,,,,,0,,,64,0
118320,note_on,,,,,5,0,1,,,,,0,,,31,112
118395,note_on,,,,,75,0,1,,,,,0,,,31,0
118400,note_on,,,,,5,0,1,,,,,0,,,43,112
118459,note_on,,,,,379,0,0,,,,,0,,,85,0
118459,note_on,,,,,0,0,0,,,,,0,,,97,0
118475,note_on,,,,,75,0,1,,,,,0,,,43,0
118480,note_on,,,,,0,0,0,,,,,0,,,97,112
118480,note_on,,,,,21,0,0,,,,,0,,,85,112
118480,note_on,,,,,5,0,1,,,,,0,,,52,112
118555,note_on,,,,,75,0,1,,,,,0,,,52,0
118560,note_on,,,,,5,0,1,,,,,0,,,61,112
118631,note_on,,,,,151,0,0,,,,,0,,,85,0
118631,note_on,,,,,0,0,0,,,,,0,,,97,0
118635,note_on,,,,,75,0,1,,,,,0,,,61,0
118640,note_on,,,,,9,0,0,,,,,0,,,85,112
118640,note_on,,,,,5,0,1,,,,,0,,,57,112
118640,note_on,,,,,0,0,0,,,,,0,,,97,112
118715,note_on,,,,,75,0,1,,,,,0,,,57,0
118720,note_on,,,,,5,0,1,,,,,0,,,64,112
118791,note_on,,,,,151,0,0,,,,,0,,,85,0
118791,note_on,,,,,0,0,0,,,,,0,,,97,0
118795,note_on,,,,,75,0,1,,,,,0,,,64,0
118800,note_on,,,,,5,0,1,,,,,0,,,30,112
118800,note_on,,,,,0,0,0,,,,,0,,,97,112
118800,note_on,,,,,9,0,0,,,,,0,,,85,112
118875,note_on,,,,,75,0,1,,,,,0,,,30,0
118880,note_on,,,,,5,0,1,,,,,0,,,42,112
118951,note_on,,,,,151,0,0,,,,,0,,,85,0
118951,note_on,,,,,0,0,0,,,,,0,,,97,0
118955,note_on,,,,,75,0,1,,,,,0,,,42,0
118960,note_on,,,,,9,0,0,,,,,0,,,85,112
118960,note_on,,,,,0,0,0,,,,,0,,,97,112
118960,note_on,,,,,5,0,1,,,,,0,,,52,112
119035,note_on,,,,,75,0,1,,,,,0,,,52,0
119040,note_on,,,,,5,0,1,,,,,0,,,61,112
119111,note_on,,,,,151,0,0,,,,,0,,,85,0
119111,note_on,,,,,0,0,0,,,,,0,,,97,0
119115,note_on,,,,,75,0,1,,,,,0,,,61,0
119120,note_on,,,,,5,0,1,,,,,0,,,58,112
119120,note_on,,,,,0,0,0,,,,,0,,,97,112
119120,note_on,,,,,9,0,0,,,,,0,,,85,112
119195,note_on,,,,,75,0,1,,,,,0,,,58,0
119200,note_on,,,,,5,0,1,,,,,0,,,64,112
119271,note_on,,,,,0,0,0,,,,,0,,,97,0
119271,note_on,,,,,151,0,0,,,,,0,,,85,0
119275,note_on,,,,,75,0,1,,,,,0,,,64,0
119280,note_on,,,,,5,0,1,,,,,0,,,29,112
119280,note_on,,,,,9,0,0,,,,,0,,,85,112
119280,note_on,,,,,0,0,0,,,,,0,,,97,112
119355,note_on,,,,,75,0,1,,,,,0,,,29,0
119360,note_on,,,,,5,0,1,,,,,0,,,41,112
119393,note_on,,,,,0,0,0,,,,,0,,,97,0
119393,note_on,,,,,113,0,0,,,,,0,,,85,0
119400,note_on,,,,,7,0,0,,,,,0,,,85,112
119400,note_on,,,,,0,0,0,,,,,0,,,97,112
119435,note_on,,,,,75,0,1,,,,,0,,,41,0
119440,note_on,,,,,5,0,1,,,,,0,,,53,112
119513,note_on,,,,,113,0,0,,,,,0,,,85,0
119513,note_on,,,,,0,0,0,,,,,0,,,97,0
119515,note_on,,,,,75,0,1,,,,,0,,,53,0
119520,note_on,,,,,5,0,1,,,,,0,,,61,112
119520,note_on,,,,,7,0,0,,,,,0,,,85,112
119520,note_on,,,,,0,0,0,,,,,0,,,97,112
119595,note_on,,,,,75,0,1,,,,,0,,,61,0
119600,note_on,,,,,5,0,1,,,,,0,,,58,112
119633,note_on,,,,,113,0,0,,,,,0,,,85,0
119633,note_on,,,,,0,0,0,,,,,0,,,97,0
119640,note_on,,,,,0,0,0,,,,,0,,,97,112
119640,note_on,,,,,7,0,0,,,,,0,,,85,112
119675,note_on,,,,,75,0,1,,,,,0,,,58,0
119680,note_on,,,,,5,0,1,,,,,0,,,65,112
119753,note_on,,,,,113,0,0,,,,,0,,,85,0
119753,note_on,,,,,0,0,0,,,,,0,,,97,0
119755,note_on,,,,,75,0,1,,,,,0,,,65,0
119760,note_on,,,,,0,0,0,,,,,0,,,97,112
119760,note_on,,,,,5,0,1,,,,,0,,,28,112
119760,note_on,,,,,7,0,0,,,,,0,,,85,112
119835,note_on,,,,,0,0,0,,,,,0,,,97,0
119835,note_on,,,,,75,0,1,,,,,0,,,28,0
119835,note_on,,,,,75,0,0,,,,,0,,,85,0
119840,note_on,,,,,0,0,0,,,,,0,,,97,112
119840,note_on,,,,,5,0,1,,,,,0,,,40,112
119840,note_on,,,,,5,0,0,,,,,0,,,85,112
119915,note_on,,,,,0,0,0,,,,,0,,,97,0
119915,note_on,,,,,75,0,1,,,,,0,,,40,0
119915,note_on,,,,,75,0,0,,,,,0,,,85,0
119920,note_on,,,,,5,0,1,,,,,0,,,55,112
119920,note_on,,,,,5,0,0,,,,,0,,,85,112
119920,note_on,,,,,0,0,0,,,,,0,,,97,112
119995,note_on,,,,,75,0,0,,,,,0,,,85,0
119995,note_on,,,,,0,0,0,,,,,0,,,97,0
119995,note_on,,,,,75,0,1,,,,,0,,,55,0
120000,note_on,,,,,0,0,0,,,,,0,,,97,112
120000,note_on,,,,,5,0,0,,,,,0,,,85,112
120000,note_on,,,,,5,0,1,,,,,0,,,61,112
120075,note_on,,,,,0,0,0,,,,,0,,,97,0
120075,note_on,,,,,75,0,1,,,,,0,,,61,0
120075,note_on,,,,,75,0,0,,,,,0,,,85,0
120080,note_on,,,,,0,0,0,,,,,0,,,97,112
120080,note_on,,,,,5,0,0,,,,,0,,,85,112
120080,note_on,,,,,5,0,1,,,,,0,,,58,112
120155,note_on,,,,,75,0,1,,,,,0,,,58,0
120155,note_on,,,,,0,0,0,,,,,0,,,97,0
120155,note_on,,,,,75,0,0,,,,,0,,,85,0
120160,note_on,,,,,0,0,0,,,,,0,,,97,112
120160,note_on,,,,,5,0,1,,,,,0,,,67,112
120160,note_on,,,,,5,0,0,,,,,0,,,85,112
120235,note_on,,,,,75,0,1,,,,,0,,,67,0
120235,note_on,,,,,75,0,0,,,,,0,,,85,0
120235,note_on,,,,,0,0,0,,,,,0,,,97,0
120240,note_on,,,,,5,0,1,,,,,0,,,29,112
120315,note_on,,,,,75,0,1,,,,,0,,,29,0
120320,note_on,,,,,5,0,1,,,,,0,,,41,112
120360,note_on,,,,,0,0,0,,,,,0,,,97,127
120360,note_on,,,,,125,0,0,,,,,0,,,85,127
120395,note_on,,,,,75,0,1,,,,,0,,,41,0
120400,note_on,,,,,5,0,1,,,,,0,,,56,112
120475,note_on,,,,,75,0,1,,,,,0,,,56,0
120480,note_on,,,,,5,0,1,,,,,0,,,65,112
120555,note_on,,,,,75,0,1,,,,,0,,,65,0
120560,note_on,,,,,5,0,1,,,,,0,,,60,112
120599,note_on,,,,,0,0,0,,,,,0,,,97,0
120599,note_on,,,,,239,0,0,,,,,0,,,85,0
120600,note_on,,,,,0,0,0,,,,,0,,,96,112
120600,note_on,,,,,1,0,0,,,,,0,,,84,112
120635,note_on,,,,,75,0,1,,,,,0,,,60,0
120640,note_on,,,,,5,0,1,,,,,0,,,68,112
120715,note_on,,,,,75,0,1,,,,,0,,,68,0
120720,note_on,,,,,5,0,1,,,,,0,,,32,112
120759,note_on,,,,,0,0,0,,,,,0,,,96,0
120759,note_on,,,,,159,0,0,,,,,0,,,84,0
120795,note_on,,,,,75,0,1,,,,,0,,,32,0
120800,note_on,,,,,5,0,1,,,,,0,,,44,112
120840,note_on,,,,,0,0,0,,,,,0,,,94,112
120840,note_on,,,,,81,0,0,,,,,0,,,82,112
120875,note_on,,,,,75,0,1,,,,,0,,,44,0
120880,note_on,,,,,5,0,1,,,,,0,,,53,112
120955,note_on,,,,,75,0,1,,,,,0,,,53,0
120960,note_on,,,,,5,0,1,,,,,0,,,60,112
120999,note_on,,,,,159,0,0,,,,,0,,,82,0
120999,note_on,,,,,0,0,0,,,,,0,,,94,0
121035,note_on,,,,,75,0,1,,,,,0,,,60,0
121040,note_on,,,,,5,0,1,,,,,0,,,56,112
121080,note_on,,,,,0,0,0,,,,,0,,,92,112
121080,note_on,,,,,81,0,0,,,,,0,,,80,112
121115,note_on,,,,,75,0,1,,,,,0,,,56,0
121120,note_on,,,,,5,0,1,,,,,0,,,65,112
121195,note_on,,,,,75,0,1,,,,,0,,,65,0
121200,note_on,,,,,5,0,1,,,,,0,,,37,112
121273,note_on,,,,,0,0,0,,,,,0,,,92,0
121273,note_on,,,,,193,0,0,,,,,0,,,80,0
121275,note_on,,,,,75,0,1,,,,,0,,,37,0
121280,note_on,,,,,5,0,1,,,,,0,,,49,112
121320,note_on,,,,,0,0,0,,,,,0,,,91,112
121320,note_on,,,,,47,0,0,,,,,0,,,79,112
121355,note_on,,,,,75,0,1,,,,,0,,,49,0
121360,note_on,,,,,5,0,1,,,,,0,,,53,112
121435,note_on,,,,,75,0,1,,,,,0,,,53,0
121440,note_on,,,,,5,0,1,,,,,0,,,58,112
121479,note_on,,,,,159,0,0,,,,,0,,,79,0
121479,note_on,,,,,0,0,0,,,,,0,,,91,0
121515,note_on,,,,,75,0,1,,,,,0,,,58,0
121520,note_on,,,,,5,0,1,,,,,0,,,55,112
121560,note_on,,,,,81,0,0,,,,,0,,,77,112
121560,note_on,,,,,0,0,0,,,,,0,,,89,112
121595,note_on,,,,,75,0,1,,,,,0,,,55,0
121600,note_on,,,,,5,0,1,,,,,0,,,65,112
121675,note_on,,,,,75,0,1,,,,,0,,,65,0
121680,note_on,,,,,5,0,1,,,,,0,,,34,112
121719,note_on,,,,,159,0,0,,,,,0,,,77,0
121719,note_on,,,,,0,0,0,,,,,0,,,89,0
121755,note_on,,,,,75,0,1,,,,,0,,,34,0
121760,note_on,,,,,5,0,1,,,,,0,,,46,112
121800,note_on,,,,,81,0,0,,,,,0,,,75,112
121800,note_on,,,,,0,0,0,,,,,0,,,87,112
121835,note_on,,,,,75,0,1,,,,,0,,,46,0
121840,note_on,,,,,5,0,1,,,,,0,,,53,112
121915,note_on,,,,,75,0,1,,,,,0,,,53,0
121920,note_on,,,,,5,0,1,,,,,0,,,61,112
121959,note_on,,,,,0,0,0,,,,,0,,,87,0
121959,note_on,,,,,159,0,0,,,,,0,,,75,0
121995,note_on,,,,,75,0,1,,,,,0,,,61,0
122000,note_on,,,,,5,0,1,,,,,0,,,55,112
122040,note_on,,,,,81,0,0,,,,,0,,,73,112
122040,note_on,,,,,0,0,0,,,,,0,,,85,112
122075,note_on,,,,,75,0,1,,,,,0,,,55,0
122080,note_on,,,,,5,0,1,,,,,0,,,65,112
122119,note_on,,,,,0,0,0,,,,,0,,,85,0
122119,note_on,,,,,79,0,0,,,,,0,,,73,0
122155,note_on,,,,,75,0,1,,,,,0,,,65,0
122160,set_tempo,,,,,41,1,0,,666667,,,,,,,
122160,note_on,,,,,5,0,1,,,,,0,,,36,112
122235,note_on,,,,,75,0,1,,,,,0,,,36,0
122240,note_on,,,,,5,0,1,,,,,0,,,48,112
122315,note_on,,,,,75,0,1,,,,,0,,,48,0
122320,note_on,,,,,0,0,0,,,,,0,,,85,112
122320,note_on,,,,,5,0,1,,,,,0,,,53,112
122320,note_on,,,,,160,0,0,,,,,0,,,73,112
122395,note_on,,,,,75,0,1,,,,,0,,,53,0
122400,note_on,,,,,5,0,1,,,,,0,,,60,112
122475,note_on,,,,,75,0,1,,,,,0,,,60,0
122479,note_on,,,,,0,0,0,,,,,0,,,85,0
122479,note_on,,,,,159,0,0,,,,,0,,,73,0
122480,note_on,,,,,0,0,0,,,,,0,,,84,112
122480,note_on,,,,,5,0,1,,,,,0,,,56,112
122480,note_on,,,,,1,0,0,,,,,0,,,72,112
122555,note_on,,,,,75,0,1,,,,,0,,,56,0
122560,note_on,,,,,5,0,1,,,,,0,,,65,112
122631,note_on,,,,,0,0,0,,,,,0,,,84,0
122631,note_on,,,,,151,0,0,,,,,0,,,72,0
122635,note_on,,,,,75,0,1,,,,,0,,,65,0
122640,note_on,,,,,5,0,1,,,,,0,,,60,112
122715,note_on,,,,,75,0,1,,,,,0,,,60,0
122720,note_on,,,,,5,0,1,,,,,0,,,68,112
122795,note_on,,,,,75,0,1,,,,,0,,,68,0
122800,note_on,,,,,169,0,0,,,,,0,,,71,112
122800,note_on,,,,,0,0,0,,,,,0,,,83,112
122800,note_on,,,,,5,0,1,,,,,0,,,56,112
122875,note_on,,,,,75,0,1,,,,,0,,,56,0
122880,note_on,,,,,5,0,1,,,,,0,,,65,112
122955,note_on,,,,,75,0,1,,,,,0,,,65,0
122959,note_on,,,,,159,0,0,,,,,0,,,71,0
122959,note_on,,,,,0,0,0,,,,,0,,,83,0
122960,note_on,,,,,0,0,0,,,,,0,,,84,112
122960,note_on,,,,,5,0,1,,,,,0,,,60,112
122960,note_on,,,,,1,0,0,,,,,0,,,72,112
123035,note_on,,,,,75,0,1,,,,,0,,,60,0
123040,note_on,,,,,5,0,1,,,,,0,,,68,112
123111,note_on,,,,,151,0,0,,,,,0,,,72,0
123111,note_on,,,,,0,0,0,,,,,0,,,84,0
123115,note_on,,,,,75,0,1,,,,,0,,,68,0
123120,note_on,,,,,5,0,1,,,,,0,,,36,112
123195,note_on,,,,,75,0,1,,,,,0,,,36,0
123200,note_on,,,,,5,0,1,,,,,0,,,48,112
123275,note_on,,,,,75,0,1,,,,,0,,,48,0
123280,note_on,,,,,169,0,0,,,,,0,,,73,112
123280,note_on,,,,,0,0,0,,,,,0,,,85,112
123280,note_on,,,,,5,0,1,,,,,0,,,52,112
123355,note_on,,,,,75,0,1,,,,,0,,,52,0
123360,note_on,,,,,5,0,1,,,,,0,,,58,112
123435,note_on,,,,,75,0,1,,,,,0,,,58,0
123439,note_on,,,,,0,0,0,,,,,0,,,85,0
123439,note_on,,,,,159,0,0,,,,,0,,,73,0
123440,note_on,,,,,5,0,1,,,,,0,,,55,112
123440,note_on,,,,,1,0,0,,,,,0,,,72,112
123440,note_on,,,,,0,0,0,,,,,0,,,84,112
123515,note_on,,,,,75,0,1,,,,,0,,,55,0
123520,note_on,,,,,5,0,1,,,,,0,,,64,112
123591,note_on,,,,,151,0,0,,,,,0,,,72,0
123591,note_on,,,,,0,0,0,,,,,0,,,84,0
123595,note_on,,,,,75,0,1,,,,,0,,,64,0
123600,note_on,,,,,5,0,1,,,,,0,,,58,112
123675,note_on,,,,,75,0,1,,,,,0,,,58,0
123680,note_on,,,,,5,0,1,,,,,0,,,67,112
123755,note_on,,,,,75,0,1,,,,,0,,,67,0
123760,note_on,,,,,0,0,0,,,,,0,,,83,112
123760,note_on,,,,,169,0,0,,,,,0,,,71,112
123760,note_on,,,,,5,0,1,,,,,0,,,55,112
123835,note_on,,,,,75,0,1,,,,,0,,,55,0
123840,note_on,,,,,5,0,1,,,,,0,,,64,112
123915,note_on,,,,,75,0,1,,,,,0,,,64,0
123919,note_on,,,,,0,0,0,,,,,0,,,83,0
123919,note_on,,,,,159,0,0,,,,,0,,,71,0
123920,note_on,,,,,1,0,0,,,,,0,,,72,112
123920,note_on,,,,,5,0,1,,,,,0,,,58,112
123920,note_on,,,,,0,0,0,,,,,0,,,84,112
123995,note_on,,,,,75,0,1,,,,,0,,,58,0
124000,note_on,,,,,5,0,1,,,,,0,,,67,112
124071,note_on,,,,,0,0,0,,,,,0,,,84,0
124071,note_on,,,,,151,0,0,,,,,0,,,72,0
124075,note_on,,,,,75,0,1,,,,,0,,,67,0
124080,set_tempo,,,,,9,1,0,,800000,,,,,,,
124080,note_on,,,,,5,0,1,,,,,0,,,29,112
124155,note_on,,,,,75,0,1,,,,,0,,,29,0
124160,note_on,,,,,5,0,1,,,,,0,,,41,112
124200,note_on,,,,,0,0,0,,,,,0,,,97,112
124200,note_on,,,,,120,0,0,,,,,0,,,85,112
124235,note_on,,,,,75,0,1,,,,,0,,,41,0
124240,note_on,,,,,5,0,1,,,,,0,,,48,112
124315,note_on,,,,,75,0,1,,,,,0,,,48,0
124320,note_on,,,,,5,0,1,,,,,0,,,56,112
124395,note_on,,,,,75,0,1,,,,,0,,,56,0
124400,note_on,,,,,5,0,1,,,,,0,,,53,112
124427,note_on,,,,,227,0,0,,,,,0,,,85,0
124427,note_on,,,,,0,0,0,,,,,0,,,97,0
124440,note_on,,,,,13,0,0,,,,,0,,,84,112
124440,note_on,,,,,0,0,0,,,,,0,,,96,112
124475,note_on,,,,,75,0,1,,,,,0,,,53,0
124480,note_on,,,,,5,0,1,,,,,0,,,60,112
124555,note_on,,,,,75,0,1,,,,,0,,,60,0
124560,note_on,,,,,5,0,1,,,,,0,,,32,112
124635,note_on,,,,,75,0,1,,,,,0,,,32,0
124640,note_on,,,,,5,0,1,,,,,0,,,44,112
124667,note_on,,,,,0,0,0,,,,,0,,,96,0
124667,note_on,,,,,227,0,0,,,,,0,,,84,0
124680,note_on,,,,,0,0,0,,,,,0,,,94,112
124680,note_on,,,,,13,0,0,,,,,0,,,82,112
124715,note_on,,,,,75,0,1,,,,,0,,,44,0
124720,note_on,,,,,5,0,1,,,,,0,,,53,112
124795,note_on,,,,,75,0,1,,,,,0,,,53,0
124800,note_on,,,,,5,0,1,,,,,0,,,60,112
124875,note_on,,,,,75,0,1,,,,,0,,,60,0
124880,note_on,,,,,5,0,1,,,,,0,,,56,112
124907,note_on,,,,,227,0,0,,,,,0,,,82,0
124907,note_on,,,,,0,0,0,,,,,0,,,94,0
124920,note_on,,,,,13,0,0,,,,,0,,,80,112
124920,note_on,,,,,0,0,0,,,,,0,,,92,112
124955,note_on,,,,,75,0,1,,,,,0,,,56,0
124960,note_on,,,,,5,0,1,,,,,0,,,65,112
125035,note_on,,,,,75,0,1,,,,,0,,,65,0
125040,note_on,,,,,5,0,1,,,,,0,,,37,112
125115,note_on,,,,,75,0,1,,,,,0,,,37,0
125120,note_on,,,,,5,0,1,,,,,0,,,49,112
125147,note_on,,,,,227,0,0,,,,,0,,,80,0
125147,note_on,,,,,0,0,0,,,,,0,,,92,0
125160,note_on,,,,,13,0,0,,,,,0,,,79,112
125160,note_on,,,,,0,0,0,,,,,0,,,91,112
125195,note_on,,,,,75,0,1,,,,,0,,,49,0
125200,note_on,,,,,5,0,1,,,,,0,,,53,112
125275,note_on,,,,,75,0,1,,,,,0,,,53,0
125280,note_on,,,,,5,0,1,,,,,0,,,58,112
125355,note_on,,,,,75,0,1,,,,,0,,,58,0
125360,note_on,,,,,5,0,1,,,,,0,,,55,112
125387,note_on,,,,,0,0,0,,,,,0,,,91,0
125387,note_on,,,,,227,0,0,,,,,0,,,79,0
125400,note_on,,,,,0,0,0,,,,,0,,,89,112
125400,note_on,,,,,13,0,0,,,,,0,,,77,112
125435,note_on,,,,,75,0,1,,,,,0,,,55,0
125440,note_on,,,,,5,0,1,,,,,0,,,65,112
125515,note_on,,,,,75,0,1,,,,,0,,,65,0
125520,note_on,,,,,5,0,1,,,,,0,,,34,112
125595,note_on,,,,,75,0,1,,,,,0,,,34,0
125600,note_on,,,,,5,0,1,,,,,0,,,46,112
125627,note_on,,,,,0,0,0,,,,,0,,,89,0
125627,note_on,,,,,227,0,0,,,,,0,,,77,0
125640,note_on,,,,,0,0,0,,,,,0,,,87,112
125640,note_on,,,,,13,0,0,,,,,0,,,75,112
125675,note_on,,,,,75,0,1,,,,,0,,,46,0
125680,note_on,,,,,5,0,1,,,,,0,,,53,112
125755,note_on,,,,,75,0,1,,,,,0,,,53,0
125760,note_on,,,,,5,0,1,,,,,0,,,61,112
125835,note_on,,,,,75,0,1,,,,,0,,,61,0
125840,note_on,,,,,5,0,1,,,,,0,,,55,112
125867,note_on,,,,,0,0,0,,,,,0,,,87,0
125867,note_on,,,,,227,0,0,,,,,0,,,75,0
125880,note_on,,,,,13,0,0,,,,,0,,,73,112
125880,note_on,,,,,0,0,0,,,,,0,,,85,112
125915,note_on,,,,,75,0,1,,,,,0,,,55,0
125920,note_on,,,,,5,0,1,,,,,0,,,65,112
125993,note_on,,,,,0,0,0,,,,,0,,,85,0
125993,note_on,,,,,113,0,0,,,,,0,,,73,0
125995,note_on,,,,,75,0,1,,,,,0,,,65,0
126000,set_tempo,,,,,7,1,0,,599999,,,,,,,
126000,note_on,,,,,5,0,1,,,,,0,,,36,112
126075,note_on,,,,,75,0,1,,,,,0,,,36,0
126080,note_on,,,,,5,0,1,,,,,0,,,48,112
126155,note_on,,,,,75,0,1,,,,,0,,,48,0
126160,note_on,,,,,160,0,0,,,,,0,,,73,112
126160,note_on,,,,,0,0,0,,,,,0,,,85,112
126160,note_on,,,,,5,0,1,,,,,0,,,53,112
126235,note_on,,,,,75,0,1,,,,,0,,,53,0
126239,note_on,,,,,0,0,0,,,,,0,,,85,0
126239,note_on,,,,,79,0,0,,,,,0,,,73,0
126240,note_on,,,,,5,0,1,,,,,0,,,60,112
126315,note_on,,,,,75,0,1,,,,,0,,,60,0
126320,note_on,,,,,0,0,0,,,,,0,,,84,112
126320,note_on,,,,,5,0,1,,,,,0,,,56,112
126320,note_on,,,,,81,0,0,,,,,0,,,72,112
126395,note_on,,,,,75,0,1,,,,,0,,,56,0
126399,note_on,,,,,0,0,0,,,,,0,,,84,0
126399,note_on,,,,,79,0,0,,,,,0,,,72,0
126400,note_on,,,,,5,0,1,,,,,0,,,65,112
126475,note_on,,,,,75,0,1,,,,,0,,,65,0
126480,note_on,,,,,5,0,1,,,,,0,,,53,112
126480,note_on,,,,,81,0,0,,,,,0,,,73,112
126480,note_on,,,,,0,0,0,,,,,0,,,85,112
126555,note_on,,,,,75,0,1,,,,,0,,,53,0
126560,note_on,,,,,5,0,1,,,,,0,,,59,112
126593,note_on,,,,,0,0,0,,,,,0,,,85,0
126593,note_on,,,,,113,0,0,,,,,0,,,73,0
126600,note_on,,,,,7,0,0,,,,,0,,,71,112
126600,note_on,,,,,0,0,0,,,,,0,,,83,112
126635,note_on,,,,,75,0,1,,,,,0,,,59,0
126640,note_on,,,,,5,0,1,,,,,0,,,56,112
126713,note_on,,,,,0,0,0,,,,,0,,,83,0
126713,note_on,,,,,113,0,0,,,,,0,,,71,0
126715,note_on,,,,,75,0,1,,,,,0,,,56,0
126720,note_on,,,,,5,0,1,,,,,0,,,61,112
126720,note_on,,,,,7,0,0,,,,,0,,,73,112
126720,note_on,,,,,0,0,0,,,,,0,,,85,112
126795,note_on,,,,,75,0,1,,,,,0,,,61,0
126800,note_on,,,,,5,0,1,,,,,0,,,59,112
126833,note_on,,,,,0,0,0,,,,,0,,,85,0
126833,note_on,,,,,113,0,0,,,,,0,,,73,0
126840,note_on,,,,,0,0,0,,,,,0,,,82,112
126840,note_on,,,,,7,0,0,,,,,0,,,70,112
126875,note_on,,,,,75,0,1,,,,,0,,,59,0
126880,note_on,,,,,5,0,1,,,,,0,,,65,112
126953,note_on,,,,,0,0,0,,,,,0,,,82,0
126953,note_on,,,,,113,0,0,,,,,0,,,70,0
126955,note_on,,,,,75,0,1,,,,,0,,,65,0
126960,note_on,,,,,5,0,1,,,,,0,,,53,112
126960,note_on,,,,,0,0,0,,,,,0,,,73,112
126960,note_on,,,,,0,0,0,,,,,0,,,85,112
126960,set_tempo,,,,,7,1,0,,545456,,,,,,,
127035,note_on,,,,,75,0,1,,,,,0,,,53,0
127040,note_on,,,,,5,0,1,,,,,0,,,58,112
127073,note_on,,,,,113,0,0,,,,,0,,,73,0
127073,note_on,,,,,0,0,0,,,,,0,,,85,0
127080,note_on,,,,,0,0,0,,,,,0,,,81,112
127080,note_on,,,,,7,0,0,,,,,0,,,69,112
127115,note_on,,,,,75,0,1,,,,,0,,,58,0
127120,note_on,,,,,5,0,1,,,,,0,,,55,112
127193,note_on,,,,,0,0,0,,,,,0,,,81,0
127193,note_on,,,,,113,0,0,,,,,0,,,69,0
127195,note_on,,,,,75,0,1,,,,,0,,,55,0
127200,note_on,,,,,5,0,1,,,,,0,,,61,112
127200,note_on,,,,,7,0,0,,,,,0,,,73,112
127200,note_on,,,,,0,0,0,,,,,0,,,85,112
127275,note_on,,,,,75,0,1,,,,,0,,,61,0
127280,note_on,,,,,5,0,1,,,,,0,,,58,112
127313,note_on,,,,,113,0,0,,,,,0,,,73,0
127313,note_on,,,,,0,0,0,,,,,0,,,85,0
127320,note_on,,,,,0,0,0,,,,,0,,,80,112
127320,note_on,,,,,7,0,0,,,,,0,,,68,112
127355,note_on,,,,,75,0,1,,,,,0,,,58,0
127360,note_on,,,,,5,0,1,,,,,0,,,65,112
127433,note_on,,,,,0,0,0,,,,,0,,,80,0
127433,note_on,,,,,113,0,0,,,,,0,,,68,0
127435,note_on,,,,,75,0,1,,,,,0,,,65,0
127440,note_on,,,,,0,0,0,,,,,0,,,85,112
127440,note_on,,,,,7,0,0,,,,,0,,,73,112
127553,note_on,,,,,113,0,0,,,,,0,,,73,0
127553,note_on,,,,,0,0,0,,,,,0,,,85,0
127560,note_on,,,,,7,0,0,,,,,0,,,67,112
127560,note_on,,,,,0,0,0,,,,,0,,,79,112
127673,note_on,,,,,113,0,0,,,,,0,,,67,0
127673,note_on,,,,,0,0,0,,,,,0,,,79,0
127680,note_on,,,,,0,0,0,,,,,0,,,85,112
127680,note_on,,,,,7,0,0,,,,,0,,,73,112
127793,note_on,,,,,0,0,0,,,,,0,,,85,0
127793,note_on,,,,,113,0,0,,,,,0,,,73,0
127800,note_on,,,,,0,0,0,,,,,0,,,77,112
127800,note_on,,,,,7,0,0,,,,,0,,,65,112
127913,note_on,,,,,113,0,0,,,,,0,,,65,0
127913,note_on,,,,,0,0,0,,,,,0,,,77,0
127920,note_on,,,,,7,0,0,,,,,0,,,73,112
127920,note_on,,,,,0,0,0,,,,,0,,,85,112
128000,note_on,,,,,565,0,1,,,,,0,,,36,112
128075,note_on,,,,,75,0,1,,,,,0,,,36,0
128080,note_on,,,,,5,0,1,,,,,0,,,46,112
128147,note_on,,,,,227,0,0,,,,,0,,,73,0
128147,note_on,,,,,0,0,0,,,,,0,,,85,0
128155,note_on,,,,,75,0,1,,,,,0,,,46,0
128160,note_on,,,,,0,0,0,,,,,0,,,76,112
128160,note_on,,,,,5,0,1,,,,,0,,,52,112
128160,note_on,,,,,13,0,0,,,,,0,,,64,112
128235,note_on,,,,,75,0,1,,,,,0,,,52,0
128240,note_on,,,,,5,0,1,,,,,0,,,55,112
128315,note_on,,,,,75,0,1,,,,,0,,,55,0
128320,note_on,,,,,5,0,1,,,,,0,,,58,112
128387,note_on,,,,,0,0,0,,,,,0,,,76,0
128387,note_on,,,,,227,0,0,,,,,0,,,64,0
128395,note_on,,,,,75,0,1,,,,,0,,,58,0
128400,note_on,,,,,0,0,0,,,,,0,,,85,127
128400,note_on,,,,,5,0,1,,,,,0,,,64,112
128400,note_on,,,,,13,0,0,,,,,0,,,73,127
128475,note_on,,,,,75,0,1,,,,,0,,,64,0
128480,note_on,,,,,5,0,1,,,,,0,,,58,112
128555,note_on,,,,,75,0,1,,,,,0,,,58,0
128560,note_on,,,,,5,0,1,,,,,0,,,55,112
128635,note_on,,,,,75,0,1,,,,,0,,,55,0
128640,note_on,,,,,5,0,1,,,,,0,,,52,112
128715,note_on,,,,,75,0,1,,,,,0,,,52,0
128720,note_on,,,,,5,0,1,,,,,0,,,46,112
128795,note_on,,,,,75,0,1,,,,,0,,,46,0
128800,note_on,,,,,5,0,1,,,,,0,,,36,112
128875,note_on,,,,,75,0,1,,,,,0,,,36,0
128880,note_on,,,,,5,0,1,,,,,0,,,43,112
128955,note_on,,,,,75,0,1,,,,,0,,,43,0
128960,note_on,,,,,5,0,1,,,,,0,,,46,112
129035,note_on,,,,,75,0,1,,,,,0,,,46,0
129040,note_on,,,,,5,0,1,,,,,0,,,52,112
129115,note_on,,,,,75,0,1,,,,,0,,,52,0
129120,note_on,,,,,5,0,1,,,,,0,,,55,112
129176,note_on,,,,,776,0,0,,,,,0,,,73,0
129176,note_on,,,,,0,0,0,,,,,0,,,85,0
129195,note_on,,,,,75,0,1,,,,,0,,,55,0
129200,note_on,,,,,5,0,1,,,,,0,,,58,112
129275,note_on,,,,,75,0,1,,,,,0,,,58,0
129280,note_on,,,,,5,0,1,,,,,0,,,64,112
129355,note_on,,,,,75,0,1,,,,,0,,,64,0
129360,set_tempo,,,,,184,1,0,,1636367,,,,,,,
129360,note_on,,,,,5,0,1,,,,,0,,,73,127
129439,note_on,,,,,79,0,1,,,,,0,,,73,0
129480,set_tempo,,,,,120,1,0,,4909100,,,,,,,
129599,set_tempo,,,,,119,1,0,,545456,,,,,,,
129600,note_on,,,,,1,0,0,,,,,0,,,70,112
129600,note_on,,,,,0,0,0,,,,,0,,,76,112
129600,note_on,,,,,0,0,0,,,,,0,,,84,112
129600,note_on,,,,,161,0,1,,,,,0,,,48,127
129600,note_on,,,,,0,0,1,,,,,0,,,64,127
129600,note_on,,,,,0,0,1,,,,,0,,,58,127
129600,note_on,,,,,0,0,1,,,,,0,,,55,127
129759,note_on,,,,,0,0,1,,,,,0,,,58,0
129759,note_on,,,,,0,0,1,,,,,0,,,64,0
129759,note_on,,,,,159,0,1,,,,,0,,,48,0
129759,note_on,,,,,0,0,1,,,,,0,,,55,0
129827,note_on,,,,,0,0,0,,,,,0,,,84,0
129827,note_on,,,,,0,0,0,,,,,0,,,76,0
129827,note_on,,,,,227,0,0,,,,,0,,,70,0
129840,note_on,,,,,81,0,1,,,,,0,,,53,112
129840,note_on,,,,,13,0,0,,,,,0,,,65,112
129882,note_on,,,,,42,0,1,,,,,0,,,56,112
129903,note_on,,,,,63,0,0,,,,,0,,,72,112
129924,note_on,,,,,42,0,1,,,,,0,,,60,112
129966,note_on,,,,,42,0,1,,,,,0,,,68,112
129967,note_on,,,,,64,0,0,,,,,0,,,77,112
130078,note_on,,,,,111,0,0,,,,,0,,,72,0
130078,note_on,,,,,0,0,0,,,,,0,,,77,0
130079,note_on,,,,,113,0,1,,,,,0,,,53,0
130079,note_on,,,,,0,0,1,,,,,0,,,68,0
130079,note_on,,,,,0,0,1,,,,,0,,,56,0
130079,note_on,,,,,1,0,0,,,,,0,,,65,0
130079,note_on,,,,,0,0,1,,,,,0,,,60,0
130080,set_tempo,,,,,1,1,0,,599999,,,,,,,
130080,note_on,,,,,1,0,1,,,,,0,,,68,112
130080,note_on,,,,,0,0,1,,,,,0,,,77,112
130159,note_on,,,,,79,0,1,,,,,0,,,68,0
130159,note_on,,,,,0,0,1,,,,,0,,,77,0
130160,note_on,,,,,0,0,1,,,,,0,,,74,112
130160,note_on,,,,,1,0,1,,,,,0,,,71,112
130160,note_on,,,,,0,0,1,,,,,0,,,79,112
130239,note_on,,,,,0,0,1,,,,,0,,,74,0
130239,note_on,,,,,79,0,1,,,,,0,,,71,0
130239,note_on,,,,,0,0,1,,,,,0,,,79,0
130240,note_on,,,,,1,0,1,,,,,0,,,68,112
130240,note_on,,,,,0,0,1,,,,,0,,,77,112
130319,note_on,,,,,79,0,1,,,,,0,,,68,0
130319,note_on,,,,,0,0,1,,,,,0,,,77,0
130320,note_on,,,,,1,0,1,,,,,0,,,71,127
130320,note_on,,,,,0,0,1,,,,,0,,,76,127
130320,note_on,,,,,0,0,1,,,,,0,,,74,127
130399,note_on,,,,,0,0,1,,,,,0,,,76,0
130399,note_on,,,,,79,0,1,,,,,0,,,71,0
130399,note_on,,,,,0,0,1,,,,,0,,,74,0
130400,note_on,,,,,0,0,1,,,,,0,,,77,112
130400,note_on,,,,,1,0,1,,,,,0,,,68,112
130479,note_on,,,,,79,0,1,,,,,0,,,68,0
130479,note_on,,,,,0,0,1,,,,,0,,,77,0
130480,note_on,,,,,0,0,1,,,,,0,,,76,112
130480,note_on,,,,,0,0,1,,,,,0,,,74,112
130480,note_on,,,,,1,0,1,,,,,0,,,71,112
130559,note_on,,,,,79,0,1,,,,,0,,,71,0
130559,note_on,,,,,0,0,1,,,,,0,,,76,0
130559,note_on,,,,,0,0,1,,,,,0,,,74,0
130560,note_on,,,,,0,0,1,,,,,0,,,77,112
130560,note_on,,,,,1,0,1,,,,,0,,,68,112
130639,note_on,,,,,0,0,1,,,,,0,,,77,0
130639,note_on,,,,,79,0,1,,,,,0,,,68,0
130640,note_on,,,,,1,0,1,,,,,0,,,71,112
130640,note_on,,,,,0,0,1,,,,,0,,,79,112
130640,note_on,,,,,0,0,1,,,,,0,,,74,112
130719,note_on,,,,,79,0,1,,,,,0,,,71,0
130719,note_on,,,,,0,0,1,,,,,0,,,79,0
130719,note_on,,,,,0,0,1,,,,,0,,,74,0
130720,note_on,,,,,0,0,1,,,,,0,,,77,112
130720,note_on,,,,,1,0,1,,,,,0,,,68,112
130795,note_on,,,,,0,0,1,,,,,0,,,77,0
130795,note_on,,,,,75,0,1,,,,,0,,,68,0
130800,note_on,,,,,0,0,0,,,,,0,,,74,127
130800,note_on,,,,,720,0,0,,,,,0,,,71,127
130800,note_on,,,,,0,0,0,,,,,0,,,80,127
130959,note_on,,,,,159,0,0,,,,,0,,,71,0
130959,note_on,,,,,0,0,0,,,,,0,,,74,0
130959,note_on,,,,,0,0,0,,,,,0,,,80,0
131040,note_on,,,,,0,0,1,,,,,0,,,50,112
131040,note_on,,,,,245,0,1,,,,,0,,,41,112
131040,note_on,,,,,0,0,1,,,,,0,,,53,112
131040,note_on,,,,,0,0,1,,,,,0,,,47,112
131040,note_on,,,,,81,0,0,,,,,0,,,56,112
131115,note_on,,,,,75,0,0,,,,,0,,,56,0
131120,note_on,,,,,5,0,0,,,,,0,,,58,112
131195,note_on,,,,,75,0,0,,,,,0,,,58,0
131200,note_on,,,,,5,0,0,,,,,0,,,56,112
131267,note_on,,,,,0,0,1,,,,,0,,,53,0
131267,note_on,,,,,0,0,1,,,,,0,,,47,0
131267,note_on,,,,,227,0,1,,,,,0,,,41,0
131267,note_on,,,,,0,0,1,,,,,0,,,50,0
131275,note_on,,,,,75,0,0,,,,,0,,,56,0
131280,note_on,,,,,0,0,1,,,,,0,,,47,112
131280,note_on,,,,,5,0,0,,,,,0,,,68,112
131280,note_on,,,,,13,0,1,,,,,0,,,41,112
131280,note_on,,,,,0,0,1,,,,,0,,,53,112
131280,note_on,,,,,0,0,1,,,,,0,,,50,112
131355,note_on,,,,,75,0,0,,,,,0,,,68,0
131360,note_on,,,,,5,0,0,,,,,0,,,70,112
131435,note_on,,,,,75,0,0,,,,,0,,,70,0
131440,note_on,,,,,5,0,0,,,,,0,,,68,112
131507,note_on,,,,,227,0,1,,,,,0,,,41,0
131507,note_on,,,,,0,0,1,,,,,0,,,53,0
131507,note_on,,,,,0,0,1,,,,,0,,,50,0
131507,note_on,,,,,0,0,1,,,,,0,,,47,0
131515,note_on,,,,,75,0,0,,,,,0,,,68,0
131520,note_on,,,,,0,0,1,,,,,0,,,53,112
131520,note_on,,,,,0,0,1,,,,,0,,,50,112
131520,note_on,,,,,5,0,0,,,,,0,,,80,112
131520,note_on,,,,,13,0,1,,,,,0,,,41,112
131520,note_on,,,,,0,0,1,,,,,0,,,47,112
131595,note_on,,,,,75,0,0,,,,,0,,,80,0
131600,note_on,,,,,5,0,0,,,,,0,,,82,112
131675,note_on,,,,,75,0,0,,,,,0,,,82,0
131680,note_on,,,,,5,0,0,,,,,0,,,80,112
131747,note_on,,,,,0,0,1,,,,,0,,,47,0
131747,note_on,,,,,0,0,1,,,,,0,,,50,0
131747,note_on,,,,,0,0,1,,,,,0,,,53,0
131747,note_on,,,,,227,0,1,,,,,0,,,41,0
131760,note_on,,,,,80,0,0,,,,,0,,,92,112
131760,note_on,,,,,0,0,1,,,,,0,,,48,112
131760,note_on,,,,,0,0,1,,,,,0,,,53,112
131760,note_on,,,,,13,0,1,,,,,0,,,41,112
131834,note_on,,,,,74,0,0,,,,,0,,,80,0
131838,note_on,,,,,0,0,1,,,,,0,,,48,0
131838,note_on,,,,,0,0,1,,,,,0,,,53,0
131838,note_on,,,,,78,0,1,,,,,0,,,41,0
131838,note_on,,,,,4,0,0,,,,,0,,,92,0
132000,set_tempo,,,,,162,1,0,,545456,,,,,,,
132000,note_on,,,,,0,0,1,,,,,0,,,77,112
132000,note_on,,,,,162,0,1,,,,,0,,,68,112
132079,note_on,,,,,0,0,1,,,,,0,,,77,0
132079,note_on,,,,,79,0,1,,,,,0,,,68,0
132080,note_on,,,,,0,0,1,,,,,0,,,79,112
132080,note_on,,,,,0,0,1,,,,,0,,,74,112
132080,note_on,,,,,1,0,1,,,,,0,,,71,112
132159,note_on,,,,,0,0,1,,,,,0,,,74,0
132159,note_on,,,,,79,0,1,,,,,0,,,71,0
132159,note_on,,,,,0,0,1,,,,,0,,,79,0
132160,note_on,,,,,0,0,1,,,,,0,,,77,112
132160,note_on,,,,,1,0,1,,,,,0,,,68,112
132239,note_on,,,,,79,0,1,,,,,0,,,68,0
132239,note_on,,,,,0,0,1,,,,,0,,,77,0
132240,note_on,,,,,0,0,1,,,,,0,,,74,127
132240,note_on,,,,,0,0,1,,,,,0,,,76,127
132240,note_on,,,,,1,0,1,,,,,0,,,71,127
132319,note_on,,,,,79,0,1,,,,,0,,,71,0
132319,note_on,,,,,0,0,1,,,,,0,,,76,0
132319,note_on,,,,,0,0,1,,,,,0,,,74,0
132320,note_on,,,,,0,0,1,,,,,0,,,77,112
132320,note_on,,,,,1,0,1,,,,,0,,,68,112
132399,note_on,,,,,79,0,1,,,,,0,,,68,0
132399,note_on,,,,,0,0,1,,,,,0,,,77,0
132400,note_on,,,,,0,0,1,,,,,0,,,74,112
132400,note_on,,,,,1,0,1,,,,,0,,,71,112
132400,note_on,,,,,0,0,1,,,,,0,,,76,112
132479,note_on,,,,,79,0,1,,,,,0,,,71,0
132479,note_on,,,,,0,0,1,,,,,0,,,74,0
132479,note_on,,,,,0,0,1,,,,,0,,,76,0
132480,note_on,,,,,0,0,1,,,,,0,,,77,112
132480,note_on,,,,,1,0,1,,,,,0,,,68,112
132559,note_on,,,,,0,0,1,,,,,0,,,77,0
132559,note_on,,,,,79,0,1,,,,,0,,,68,0
132560,note_on,,,,,1,0,1,,,,,0,,,71,112
132560,note_on,,,,,0,0,1,,,,,0,,,74,112
132560,note_on,,,,,0,0,1,,,,,0,,,79,112
132639,note_on,,,,,0,0,1,,,,,0,,,74,0
132639,note_on,,,,,0,0,1,,,,,0,,,79,0
132639,note_on,,,,,79,0,1,,,,,0,,,71,0
132640,note_on,,,,,1,0,1,,,,,0,,,68,112
132640,note_on,,,,,0,0,1,,,,,0,,,77,112
132715,note_on,,,,,75,0,1,,,,,0,,,68,0
132715,note_on,,,,,0,0,1,,,,,0,,,77,0
132720,note_on,,,,,720,0,0,,,,,0,,,71,127
132720,note_on,,,,,0,0,0,,,,,0,,,74,127
132720,note_on,,,,,0,0,0,,,,,0,,,80,127
132879,note_on,,,,,0,0,0,,,,,0,,,80,0
132879,note_on,,,,,0,0,0,,,,,0,,,74,0
132879,note_on,,,,,159,0,0,,,,,0,,,71,0
132960,note_on,,,,,0,0,1,,,,,0,,,50,112
132960,note_on,,,,,0,0,1,,,,,0,,,53,112
132960,note_on,,,,,81,0,0,,,,,0,,,56,112
132960,note_on,,,,,245,0,1,,,,,0,,,41,112
132960,note_on,,,,,0,0,1,,,,,0,,,47,112
133035,note_on,,,,,75,0,0,,,,,0,,,56,0
133040,note_on,,,,,5,0,0,,,,,0,,,58,112
133115,note_on,,,,,75,0,0,,,,,0,,,58,0
133120,note_on,,,,,5,0,0,,,,,0,,,56,112
133187,note_on,,,,,227,0,1,,,,,0,,,41,0
133187,note_on,,,,,0,0,1,,,,,0,,,53,0
133187,note_on,,,,,0,0,1,,,,,0,,,50,0
133187,note_on,,,,,0,0,1,,,,,0,,,47,0
133195,note_on,,,,,75,0,0,,,,,0,,,56,0
133200,note_on,,,,,0,0,1,,,,,0,,,53,112
133200,note_on,,,,,0,0,1,,,,,0,,,50,112
133200,note_on,,,,,0,0,1,,,,,0,,,47,112
133200,note_on,,,,,5,0,0,,,,,0,,,68,112
133200,note_on,,,,,13,0,1,,,,,0,,,41,112
133275,note_on,,,,,75,0,0,,,,,0,,,68,0
133280,note_on,,,,,5,0,0,,,,,0,,,70,112
133355,note_on,,,,,75,0,0,,,,,0,,,70,0
133360,note_on,,,,,5,0,0,,,,,0,,,68,112
133427,note_on,,,,,0,0,1,,,,,0,,,53,0
133427,note_on,,,,,0,0,1,,,,,0,,,47,0
133427,note_on,,,,,0,0,1,,,,,0,,,50,0
133427,note_on,,,,,227,0,1,,,,,0,,,41,0
133435,note_on,,,,,75,0,0,,,,,0,,,68,0
133440,note_on,,,,,5,0,0,,,,,0,,,80,112
133440,note_on,,,,,0,0,1,,,,,0,,,47,112
133440,note_on,,,,,0,0,1,,,,,0,,,50,112
133440,note_on,,,,,0,0,1,,,,,0,,,53,112
133440,note_on,,,,,13,0,1,,,,,0,,,41,112
133515,note_on,,,,,75,0,0,,,,,0,,,80,0
133520,note_on,,,,,5,0,0,,,,,0,,,82,112
133595,note_on,,,,,75,0,0,,,,,0,,,82,0
133600,note_on,,,,,5,0,0,,,,,0,,,80,112
133667,note_on,,,,,0,0,1,,,,,0,,,50,0
133667,note_on,,,,,227,0,1,,,,,0,,,41,0
133667,note_on,,,,,0,0,1,,,,,0,,,53,0
133667,note_on,,,,,0,0,1,,,,,0,,,47,0
133675,note_on,,,,,75,0,0,,,,,0,,,80,0
133680,note_on,,,,,0,0,1,,,,,0,,,48,112
133680,note_on,,,,,0,0,1,,,,,0,,,53,112
133680,note_on,,,,,13,0,1,,,,,0,,,41,112
133680,note_on,,,,,5,0,0,,,,,0,,,92,127
133759,note_on,,,,,79,0,0,,,,,0,,,92,0
133760,note_on,,,,,1,0,0,,,,,0,,,94,112
133835,note_on,,,,,75,0,0,,,,,0,,,94,0
133840,note_on,,,,,5,0,0,,,,,0,,,92,112
133907,note_on,,,,,227,0,1,,,,,0,,,41,0
133907,note_on,,,,,0,0,1,,,,,0,,,48,0
133907,note_on,,,,,0,0,1,,,,,0,,,53,0
133915,note_on,,,,,75,0,0,,,,,0,,,92,0
133920,note_on,,,,,5,0,0,,,,,0,,,80,112
133995,note_on,,,,,75,0,0,,,,,0,,,80,0
134000,note_on,,,,,5,0,0,,,,,0,,,82,112
134075,note_on,,,,,75,0,0,,,,,0,,,82,0
134080,note_on,,,,,5,0,0,,,,,0,,,80,112
134155,note_on,,,,,75,0,0,,,,,0,,,80,0
134160,note_on,,,,,5,0,0,,,,,0,,,94,127
134160,note_on,,,,,0,0,1,,,,,0,,,49,112
134160,note_on,,,,,0,0,1,,,,,0,,,55,112
134160,note_on,,,,,253,0,1,,,,,0,,,39,112
134239,note_on,,,,,79,0,0,,,,,0,,,94,0
134240,note_on,,,,,1,0,0,,,,,0,,,96,112
134315,note_on,,,,,75,0,0,,,,,0,,,96,0
134320,note_on,,,,,5,0,0,,,,,0,,,94,112
134387,note_on,,,,,227,0,1,,,,,0,,,39,0
134387,note_on,,,,,0,0,1,,,,,0,,,49,0
134387,note_on,,,,,0,0,1,,,,,0,,,55,0
134395,note_on,,,,,75,0,0,,,,,0,,,94,0
134400,note_on,,,,,5,0,0,,,,,0,,,82,112
134475,note_on,,,,,75,0,0,,,,,0,,,82,0
134480,note_on,,,,,5,0,0,,,,,0,,,84,112
134555,note_on,,,,,75,0,0,,,,,0,,,84,0
134560,note_on,,,,,5,0,0,,,,,0,,,82,112
134635,note_on,,,,,75,0,0,,,,,0,,,82,0
134640,note_on,,,,,0,0,1,,,,,0,,,51,112
134640,note_on,,,,,0,0,1,,,,,0,,,56,112
134640,note_on,,,,,0,0,1,,,,,0,,,48,112
134640,note_on,,,,,0,0,0,,,,,0,,,97,112
134640,set_tempo,,,,,5,1,0,,500000,,,,,,,
134640,note_on,,,,,253,0,1,,,,,0,,,44,112
134715,note_on,,,,,75,0,0,,,,,0,,,97,0
134720,note_on,,,,,5,0,0,,,,,0,,,96,112
134795,note_on,,,,,75,0,0,,,,,0,,,96,0
134800,note_on,,,,,5,0,0,,,,,0,,,84,112
134867,note_on,,,,,227,0,1,,,,,0,,,44,0
134867,note_on,,,,,0,0,1,,,,,0,,,56,0
134867,note_on,,,,,0,0,1,,,,,0,,,48,0
134867,note_on,,,,,0,0,1,,,,,0,,,51,0
134875,note_on,,,,,75,0,0,,,,,0,,,84,0
134880,note_on,,,,,13,0,1,,,,,0,,,46,112
134880,note_on,,,,,5,0,0,,,,,0,,,96,112
134880,note_on,,,,,0,0,1,,,,,0,,,58,112
134880,note_on,,,,,0,0,1,,,,,0,,,49,112
134880,note_on,,,,,0,0,1,,,,,0,,,54,112
134955,note_on,,,,,75,0,0,,,,,0,,,96,0
134960,note_on,,,,,5,0,0,,,,,0,,,94,112
135035,note_on,,,,,75,0,0,,,,,0,,,94,0
135040,note_on,,,,,5,0,0,,,,,0,,,82,112
135107,note_on,,,,,227,0,1,,,,,0,,,46,0
135107,note_on,,,,,0,0,1,,,,,0,,,54,0
135107,note_on,,,,,0,0,1,,,,,0,,,49,0
135107,note_on,,,,,0,0,1,,,,,0,,,58,0
135115,note_on,,,,,75,0,0,,,,,0,,,82,0
135120,note_on,,,,,0,0,1,,,,,0,,,60,112
135120,note_on,,,,,0,0,1,,,,,0,,,53,112
135120,note_on,,,,,13,0,1,,,,,0,,,48,112
135120,note_on,,,,,0,0,1,,,,,0,,,56,112
135120,note_on,,,,,5,0,0,,,,,0,,,94,112
135195,note_on,,,,,75,0,0,,,,,0,,,94,0
135200,note_on,,,,,5,0,0,,,,,0,,,92,112
135275,note_on,,,,,75,0,0,,,,,0,,,92,0
135280,note_on,,,,,5,0,0,,,,,0,,,80,112
135347,note_on,,,,,0,0,1,,,,,0,,,56,0
135347,note_on,,,,,227,0,1,,,,,0,,,48,0
135347,note_on,,,,,0,0,1,,,,,0,,,60,0
135347,note_on,,,,,0,0,1,,,,,0,,,53,0
135355,note_on,,,,,75,0,0,,,,,0,,,80,0
135360,note_on,,,,,0,0,1,,,,,0,,,52,112
135360,note_on,,,,,0,0,1,,,,,0,,,60,112
135360,note_on,,,,,5,0,0,,,,,0,,,92,112
135360,note_on,,,,,13,0,1,,,,,0,,,48,112
135435,note_on,,,,,75,0,0,,,,,0,,,92,0
135440,note_on,,,,,5,0,0,,,,,0,,,91,112
135515,note_on,,,,,75,0,0,,,,,0,,,91,0
135520,note_on,,,,,5,0,0,,,,,0,,,79,112
135587,note_on,,,,,0,0,1,,,,,0,,,60,0
135587,note_on,,,,,227,0,1,,,,,0,,,48,0
135587,note_on,,,,,0,0,1,,,,,0,,,52,0
135595,note_on,,,,,75,0,0,,,,,0,,,79,0
135600,note_on,,,,,13,0,1,,,,,0,,,41,112
135600,note_on,,,,,5,0,0,,,,,0,,,77,112
135600,note_on,,,,,0,0,1,,,,,0,,,48,112
135600,note_on,,,,,0,0,1,,,,,0,,,56,112
135600,note_on,,,,,0,0,0,,,,,0,,,89,112
135678,note_on,,,,,0,0,1,,,,,0,,,48,0
135678,note_on,,,,,0,0,1,,,,,0,,,56,0
135678,note_on,,,,,78,0,1,,,,,0,,,41,0
135678,note_on,,,,,78,0,0,,,,,0,,,77,0
135678,note_on,,,,,0,0,0,,,,,0,,,89,0
135840,note_on,,,,,0,0,1,,,,,0,,,65,112
135840,set_tempo,,,,,162,1,0,,599999,,,,,,,
135840,note_on,,,,,162,0,1,,,,,0,,,56,112
135919,note_on,,,,,0,0,1,,,,,0,,,65,0
135919,note_on,,,,,79,0,1,,,,,0,,,56,0
135920,note_on,,,,,0,0,1,,,,,0,,,67,112
135920,note_on,,,,,0,0,1,,,,,0,,,62,112
135920,note_on,,,,,1,0,1,,,,,0,,,59,112
135999,note_on,,,,,0,0,1,,,,,0,,,67,0
135999,note_on,,,,,0,0,1,,,,,0,,,62,0
135999,note_on,,,,,79,0,1,,,,,0,,,59,0
136000,note_on,,,,,1,0,1,,,,,0,,,56,112
136000,note_on,,,,,0,0,1,,,,,0,,,65,112
136079,note_on,,,,,79,0,1,,,,,0,,,56,0
136079,note_on,,,,,0,0,1,,,,,0,,,65,0
136080,note_on,,,,,0,0,1,,,,,0,,,64,127
136080,note_on,,,,,0,0,1,,,,,0,,,62,127
136080,note_on,,,,,1,0,1,,,,,0,,,59,127
136159,note_on,,,,,79,0,1,,,,,0,,,59,0
136159,note_on,,,,,0,0,1,,,,,0,,,62,0
136159,note_on,,,,,0,0,1,,,,,0,,,64,0
136160,note_on,,,,,1,0,1,,,,,0,,,56,112
136160,note_on,,,,,0,0,1,,,,,0,,,65,112
136239,note_on,,,,,0,0,1,,,,,0,,,65,0
136239,note_on,,,,,79,0,1,,,,,0,,,56,0
136240,note_on,,,,,1,0,1,,,,,0,,,59,112
136240,note_on,,,,,0,0,1,,,,,0,,,62,112
136240,note_on,,,,,0,0,1,,,,,0,,,64,112
136319,note_on,,,,,0,0,1,,,,,0,,,62,0
136319,note_on,,,,,0,0,1,,,,,0,,,64,0
136319,note_on,,,,,79,0,1,,,,,0,,,59,0
136320,note_on,,,,,0,0,1,,,,,0,,,65,112
136320,note_on,,,,,1,0,1,,,,,0,,,56,112
136399,note_on,,,,,0,0,1,,,,,0,,,65,0
136399,note_on,,,,,79,0,1,,,,,0,,,56,0
136400,note_on,,,,,0,0,1,,,,,0,,,67,112
136400,note_on,,,,,1,0,1,,,,,0,,,59,112
136400,note_on,,,,,0,0,1,,,,,0,,,62,112
136479,note_on,,,,,0,0,1,,,,,0,,,67,0
136479,note_on,,,,,0,0,1,,,,,0,,,62,0
136479,note_on,,,,,79,0,1,,,,,0,,,59,0
136480,note_on,,,,,0,0,1,,,,,0,,,65,112
136480,note_on,,,,,1,0,1,,,,,0,,,56,112
136555,note_on,,,,,0,0,1,,,,,0,,,65,0
136555,note_on,,,,,75,0,1,,,,,0,,,56,0
136560,note_on,,,,,720,0,0,,,,,0,,,59,127
136560,note_on,,,,,0,0,0,,,,,0,,,68,127
136560,note_on,,,,,0,0,0,,,,,0,,,62,127
136719,note_on,,,,,0,0,0,,,,,0,,,68,0
136719,note_on,,,,,0,0,0,,,,,0,,,62,0
136719,note_on,,,,,159,0,0,,,,,0,,,59,0
136800,note_on,,,,,245,0,1,,,,,0,,,29,112
136800,note_on,,,,,81,0,0,,,,,0,,,53,112
136800,note_on,,,,,0,0,1,,,,,0,,,32,112
136800,note_on,,,,,0,0,1,,,,,0,,,35,112
136800,note_on,,,,,0,0,1,,,,,0,,,38,112
136800,note_on,,,,,0,0,1,,,,,0,,,41,112
136875,note_on,,,,,75,0,0,,,,,0,,,53,0
136880,note_on,,,,,5,0,0,,,,,0,,,64,112
136955,note_on,,,,,75,0,0,,,,,0,,,64,0
136960,note_on,,,,,5,0,0,,,,,0,,,65,112
137027,note_on,,,,,0,0,1,,,,,0,,,41,0
137027,note_on,,,,,0,0,1,,,,,0,,,38,0
137027,note_on,,,,,227,0,1,,,,,0,,,29,0
137027,note_on,,,,,0,0,1,,,,,0,,,35,0
137027,note_on,,,,,0,0,1,,,,,0,,,32,0
137035,note_on,,,,,75,0,0,,,,,0,,,65,0
137040,note_on,,,,,13,0,1,,,,,0,,,29,112
137040,note_on,,,,,5,0,0,,,,,0,,,64,112
137040,note_on,,,,,0,0,1,,,,,0,,,35,112
137040,note_on,,,,,0,0,1,,,,,0,,,41,112
137040,note_on,,,,,0,0,1,,,,,0,,,32,112
137040,note_on,,,,,0,0,1,,,,,0,,,38,112
137115,note_on,,,,,75,0,0,,,,,0,,,64,0
137120,note_on,,,,,5,0,0,,,,,0,,,76,112
137195,note_on,,,,,75,0,0,,,,,0,,,76,0
137200,note_on,,,,,5,0,0,,,,,0,,,77,112
137267,note_on,,,,,0,0,1,,,,,0,,,41,0
137267,note_on,,,,,0,0,1,,,,,0,,,38,0
137267,note_on,,,,,0,0,1,,,,,0,,,35,0
137267,note_on,,,,,0,0,1,,,,,0,,,32,0
137267,note_on,,,,,227,0,1,,,,,0,,,29,0
137275,note_on,,,,,75,0,0,,,,,0,,,77,0
137280,note_on,,,,,0,0,1,,,,,0,,,41,112
137280,note_on,,,,,0,0,1,,,,,0,,,38,112
137280,note_on,,,,,0,0,1,,,,,0,,,32,112
137280,note_on,,,,,0,0,1,,,,,0,,,35,112
137280,note_on,,,,,5,0,0,,,,,0,,,76,112
137280,note_on,,,,,13,0,1,,,,,0,,,29,112
137355,note_on,,,,,75,0,0,,,,,0,,,76,0
137360,note_on,,,,,5,0,0,,,,,0,,,88,112
137435,note_on,,,,,75,0,0,,,,,0,,,88,0
137440,note_on,,,,,5,0,0,,,,,0,,,89,112
137507,note_on,,,,,0,0,1,,,,,0,,,32,0
137507,note_on,,,,,227,0,1,,,,,0,,,29,0
137507,note_on,,,,,0,0,1,,,,,0,,,35,0
137507,note_on,,,,,0,0,1,,,,,0,,,38,0
137507,note_on,,,,,0,0,1,,,,,0,,,41,0
137515,note_on,,,,,75,0,0,,,,,0,,,89,0
137520,note_on,,,,,0,0,1,,,,,0,,,41,112
137520,note_on,,,,,0,0,1,,,,,0,,,36,112
137520,note_on,,,,,0,0,0,,,,,0,,,101,112
137520,note_on,,,,,5,0,0,,,,,0,,,89,112
137520,note_on,,,,,13,0,1,,,,,0,,,29,112
137520,note_on,,,,,0,0,1,,,,,0,,,32,112
137598,note_on,,,,,0,0,1,,,,,0,,,41,0
137598,note_on,,,,,0,0,1,,,,,0,,,36,0
137598,note_on,,,,,0,0,0,,,,,0,,,101,0
137598,note_on,,,,,0,0,1,,,,,0,,,32,0
137598,note_on,,,,,78,0,1,,,,,0,,,29,0
137598,note_on,,,,,78,0,0,,,,,0,,,89,0
137760,set_tempo,,,,,162,1,0,,545456,,,,,,,
137760,note_on,,,,,162,0,1,,,,,0,,,56,112
137760,note_on,,,,,0,0,1,,,,,0,,,65,112
137839,note_on,,,,,79,0,1,,,,,0,,,56,0
137839,note_on,,,,,0,0,1,,,,,0,,,65,0
137840,note_on,,,,,1,0,1,,,,,0,,,59,112
137840,note_on,,,,,0,0,1,,,,,0,,,62,112
137840,note_on,,,,,0,0,1,,,,,0,,,67,112
137919,note_on,,,,,79,0,1,,,,,0,,,59,0
137919,note_on,,,,,0,0,1,,,,,0,,,62,0
137919,note_on,,,,,0,0,1,,,,,0,,,67,0
137920,note_on,,,,,0,0,1,,,,,0,,,65,112
137920,note_on,,,,,1,0,1,,,,,0,,,56,112
137999,note_on,,,,,79,0,1,,,,,0,,,56,0
137999,note_on,,,,,0,0,1,,,,,0,,,65,0
138000,note_on,,,,,1,0,1,,,,,0,,,59,127
138000,note_on,,,,,0,0,1,,,,,0,,,62,127
138000,note_on,,,,,0,0,1,,,,,0,,,64,127
138079,note_on,,,,,79,0,1,,,,,0,,,59,0
138079,note_on,,,,,0,0,1,,,,,0,,,62,0
138079,note_on,,,,,0,0,1,,,,,0,,,64,0
138080,note_on,,,,,0,0,1,,,,,0,,,65,112
138080,note_on,,,,,1,0,1,,,,,0,,,56,112
138159,note_on,,,,,79,0,1,,,,,0,,,56,0
138159,note_on,,,,,0,0,1,,,,,0,,,65,0
138160,note_on,,,,,1,0,1,,,,,0,,,59,112
138160,note_on,,,,,0,0,1,,,,,0,,,62,112
138160,note_on,,,,,0,0,1,,,,,0,,,64,112
138239,note_on,,,,,0,0,1,,,,,0,,,62,0
138239,note_on,,,,,0,0,1,,,,,0,,,64,0
138239,note_on,,,,,79,0,1,,,,,0,,,59,0
138240,note_on,,,,,1,0,1,,,,,0,,,56,112
138240,note_on,,,,,0,0,1,,,,,0,,,65,112
138319,note_on,,,,,0,0,1,,,,,0,,,65,0
138319,note_on,,,,,79,0,1,,,,,0,,,56,0
138320,note_on,,,,,1,0,1,,,,,0,,,59,112
138320,note_on,,,,,0,0,1,,,,,0,,,67,112
138320,note_on,,,,,0,0,1,,,,,0,,,62,112
138399,note_on,,,,,79,0,1,,,,,0,,,59,0
138399,note_on,,,,,0,0,1,,,,,0,,,67,0
138399,note_on,,,,,0,0,1,,,,,0,,,62,0
138400,note_on,,,,,1,0,1,,,,,0,,,56,112
138400,note_on,,,,,0,0,1,,,,,0,,,65,112
138475,note_on,,,,,0,0,1,,,,,0,,,65,0
138475,note_on,,,,,75,0,1,,,,,0,,,56,0
138480,note_on,,,,,0,0,0,,,,,0,,,62,127
138480,note_on,,,,,0,0,0,,,,,0,,,68,127
138480,note_on,,,,,720,0,0,,,,,0,,,59,127
138639,note_on,,,,,0,0,0,,,,,0,,,68,0
138639,note_on,,,,,159,0,0,,,,,0,,,59,0
138639,note_on,,,,,0,0,0,,,,,0,,,62,0
138720,note_on,,,,,245,0,1,,,,,0,,,29,112
138720,note_on,,,,,0,0,1,,,,,0,,,38,112
138720,note_on,,,,,0,0,1,,,,,0,,,32,112
138720,note_on,,,,,0,0,1,,,,,0,,,35,112
138720,note_on,,,,,81,0,0,,,,,0,,,53,112
138720,note_on,,,,,0,0,1,,,,,0,,,41,112
138795,note_on,,,,,75,0,0,,,,,0,,,53,0
138800,note_on,,,,,5,0,0,,,,,0,,,64,112
138875,note_on,,,,,75,0,0,,,,,0,,,64,0
138880,note_on,,,,,5,0,0,,,,,0,,,65,112
138947,note_on,,,,,0,0,1,,,,,0,,,32,0
138947,note_on,,,,,0,0,1,,,,,0,,,41,0
138947,note_on,,,,,0,0,1,,,,,0,,,38,0
138947,note_on,,,,,0,0,1,,,,,0,,,35,0
138947,note_on,,,,,227,0,1,,,,,0,,,29,0
138955,note_on,,,,,75,0,0,,,,,0,,,65,0
138960,note_on,,,,,5,0,0,,,,,0,,,64,112
138960,note_on,,,,,0,0,1,,,,,0,,,35,112
138960,note_on,,,,,0,0,1,,,,,0,,,32,112
138960,note_on,,,,,0,0,1,,,,,0,,,38,112
138960,note_on,,,,,13,0,1,,,,,0,,,29,112
138960,note_on,,,,,0,0,1,,,,,0,,,41,112
139035,note_on,,,,,75,0,0,,,,,0,,,64,0
139040,note_on,,,,,5,0,0,,,,,0,,,76,112
139115,note_on,,,,,75,0,0,,,,,0,,,76,0
139120,note_on,,,,,5,0,0,,,,,0,,,77,112
139187,note_on,,,,,0,0,1,,,,,0,,,38,0
139187,note_on,,,,,227,0,1,,,,,0,,,29,0
139187,note_on,,,,,0,0,1,,,,,0,,,35,0
139187,note_on,,,,,0,0,1,,,,,0,,,32,0
139187,note_on,,,,,0,0,1,,,,,0,,,41,0
139195,note_on,,,,,75,0,0,,,,,0,,,77,0
139200,note_on,,,,,0,0,1,,,,,0,,,32,112
139200,note_on,,,,,0,0,1,,,,,0,,,35,112
139200,note_on,,,,,0,0,1,,,,,0,,,38,112
139200,note_on,,,,,0,0,1,,,,,0,,,41,112
139200,note_on,,,,,5,0,0,,,,,0,,,76,112
139200,note_on,,,,,13,0,1,,,,,0,,,29,112
139275,note_on,,,,,75,0,0,,,,,0,,,76,0
139280,note_on,,,,,5,0,0,,,,,0,,,88,112
139355,note_on,,,,,75,0,0,,,,,0,,,88,0
139360,note_on,,,,,5,0,0,,,,,0,,,89,112
139427,note_on,,,,,0,0,1,,,,,0,,,41,0
139427,note_on,,,,,227,0,1,,,,,0,,,29,0
139427,note_on,,,,,0,0,1,,,,,0,,,35,0
139427,note_on,,,,,0,0,1,,,,,0,,,32,0
139427,note_on,,,,,0,0,1,,,,,0,,,38,0
139435,note_on,,,,,75,0,0,,,,,0,,,89,0
139440,note_on,,,,,0,0,1,,,,,0,,,36,112
139440,note_on,,,,,0,0,1,,,,,0,,,41,112
139440,note_on,,,,,0,0,1,,,,,0,,,32,112
139440,note_on,,,,,13,0,1,,,,,0,,,29,112
139440,note_on,,,,,5,0,0,,,,,0,,,89,112
139515,note_on,,,,,75,0,0,,,,,0,,,89,0
139520,note_on,,,,,5,0,0,,,,,0,,,101,112
139595,note_on,,,,,75,0,0,,,,,0,,,101,0
139600,note_on,,,,,5,0,0,,,,,0,,,88,112
139667,note_on,,,,,0,0,1,,,,,0,,,36,0
139667,note_on,,,,,0,0,1,,,,,0,,,41,0
139667,note_on,,,,,227,0,1,,,,,0,,,29,0
139667,note_on,,,,,0,0,1,,,,,0,,,32,0
139675,note_on,,,,,75,0,0,,,,,0,,,88,0
139680,note_on,,,,,5,0,0,,,,,0,,,100,112
139755,note_on,,,,,75,0,0,,,,,0,,,100,0
139760,note_on,,,,,5,0,0,,,,,0,,,87,112
139835,note_on,,,,,75,0,0,,,,,0,,,87,0
139840,note_on,,,,,5,0,0,,,,,0,,,99,112
139915,note_on,,,,,75,0,0,,,,,0,,,99,0
139920,note_on,,,,,5,0,0,,,,,0,,,86,112
139920,note_on,,,,,253,0,1,,,,,0,,,31,112
139920,note_on,,,,,0,0,1,,,,,0,,,34,112
139920,note_on,,,,,0,0,1,,,,,0,,,39,112
139920,note_on,,,,,0,0,1,,,,,0,,,43,112
139995,note_on,,,,,75,0,0,,,,,0,,,86,0
140000,note_on,,,,,5,0,0,,,,,0,,,98,112
140075,note_on,,,,,75,0,0,,,,,0,,,98,0
140080,note_on,,,,,5,0,0,,,,,0,,,85,112
140147,note_on,,,,,0,0,1,,,,,0,,,34,0
140147,note_on,,,,,0,0,1,,,,,0,,,39,0
140147,note_on,,,,,0,0,1,,,,,0,,,43,0
140147,note_on,,,,,227,0,1,,,,,0,,,31,0
140155,note_on,,,,,75,0,0,,,,,0,,,85,0
140160,note_on,,,,,5,0,0,,,,,0,,,97,112
140235,note_on,,,,,75,0,0,,,,,0,,,97,0
140240,note_on,,,,,5,0,0,,,,,0,,,84,112
140315,note_on,,,,,75,0,0,,,,,0,,,84,0
140320,note_on,,,,,5,0,0,,,,,0,,,96,112
140395,note_on,,,,,75,0,0,,,,,0,,,96,0
140400,note_on,,,,,253,0,1,,,,,0,,,32,112
140400,note_on,,,,,5,0,0,,,,,0,,,84,112
140400,note_on,,,,,0,0,1,,,,,0,,,36,112
140400,note_on,,,,,0,0,1,,,,,0,,,39,112
140400,note_on,,,,,0,0,1,,,,,0,,,44,112
140475,note_on,,,,,75,0,0,,,,,0,,,84,0
140480,note_on,,,,,5,0,0,,,,,0,,,96,112
140555,note_on,,,,,75,0,0,,,,,0,,,96,0
140560,note_on,,,,,5,0,0,,,,,0,,,83,112
140627,note_on,,,,,0,0,1,,,,,0,,,44,0
140627,note_on,,,,,0,0,1,,,,,0,,,36,0
140627,note_on,,,,,227,0,1,,,,,0,,,32,0
140627,note_on,,,,,0,0,1,,,,,0,,,39,0
140635,note_on,,,,,75,0,0,,,,,0,,,83,0
140640,note_on,,,,,5,0,0,,,,,0,,,95,112
140640,note_on,,,,,0,0,1,,,,,0,,,37,112
140640,note_on,,,,,0,0,1,,,,,0,,,42,112
140640,note_on,,,,,0,0,1,,,,,0,,,46,112
140640,note_on,,,,,13,0,1,,,,,0,,,34,112
140715,note_on,,,,,75,0,0,,,,,0,,,95,0
140720,note_on,,,,,5,0,0,,,,,0,,,82,112
140795,note_on,,,,,75,0,0,,,,,0,,,82,0
140800,note_on,,,,,5,0,0,,,,,0,,,94,112
140867,note_on,,,,,0,0,1,,,,,0,,,37,0
140867,note_on,,,,,227,0,1,,,,,0,,,34,0
140867,note_on,,,,,0,0,1,,,,,0,,,46,0
140867,note_on,,,,,0,0,1,,,,,0,,,42,0
140875,note_on,,,,,75,0,0,,,,,0,,,94,0
140880,note_on,,,,,0,0,1,,,,,0,,,44,112
140880,note_on,,,,,0,0,1,,,,,0,,,41,112
140880,note_on,,,,,0,0,1,,,,,0,,,48,112
140880,note_on,,,,,13,0,1,,,,,0,,,36,112
140880,note_on,,,,,5,0,0,,,,,0,,,81,112
140955,note_on,,,,,75,0,0,,,,,0,,,81,0
140960,note_on,,,,,5,0,0,,,,,0,,,93,112
141035,note_on,,,,,75,0,0,,,,,0,,,93,0
141040,note_on,,,,,5,0,0,,,,,0,,,80,112
141107,note_on,,,,,227,0,1,,,,,0,,,36,0
141107,note_on,,,,,0,0,1,,,,,0,,,48,0
141107,note_on,,,,,0,0,1,,,,,0,,,44,0
141107,note_on,,,,,0,0,1,,,,,0,,,41,0
141115,note_on,,,,,75,0,0,,,,,0,,,80,0
141120,note_on,,,,,13,0,1,,,,,0,,,36,112
141120,note_on,,,,,5,0,0,,,,,0,,,92,112
141120,note_on,,,,,0,0,1,,,,,0,,,40,112
141120,note_on,,,,,0,0,1,,,,,0,,,46,112
141120,note_on,,,,,0,0,1,,,,,0,,,48,112
141195,note_on,,,,,75,0,0,,,,,0,,,92,0
141200,note_on,,,,,5,0,0,,,,,0,,,79,112
141275,note_on,,,,,75,0,0,,,,,0,,,79,0
141280,note_on,,,,,5,0,0,,,,,0,,,91,112
141347,note_on,,,,,227,0,1,,,,,0,,,36,0
141347,note_on,,,,,0,0,1,,,,,0,,,48,0
141347,note_on,,,,,0,0,1,,,,,0,,,46,0
141347,note_on,,,,,0,0,1,,,,,0,,,40,0
141355,note_on,,,,,75,0,0,,,,,0,,,91,0
141360,note_on,,,,,13,0,1,,,,,0,,,53,112
141360,set_tempo,,,,,5,1,0,,666667,,,,,,,
141360,note_on,,,,,0,0,0,,,,,0,,,65,112
141360,note_on,,,,,0,0,0,,,,,0,,,65,112
141360,note_on,,,,,0,0,1,,,,,0,,,41,112
141423,note_on,,,,,63,0,1,,,,,0,,,44,112
141435,note_on,,,,,75,0,0,,,,,0,,,65,0
141440,note_on,,,,,0,0,0,,,,,0,,,77,112
141440,note_on,,,,,5,0,0,,,,,0,,,68,112
141487,note_on,,,,,64,0,1,,,,,0,,,48,112
141515,note_on,,,,,75,0,0,,,,,0,,,68,0
141515,note_on,,,,,0,0,0,,,,,0,,,77,0
141520,note_on,,,,,5,0,0,,,,,0,,,72,112
141595,note_on,,,,,75,0,0,,,,,0,,,72,0
141598,note_on,,,,,111,0,1,,,,,0,,,44,0
141598,note_on,,,,,0,0,1,,,,,0,,,48,0
141599,note_on,,,,,1,0,1,,,,,0,,,41,0
141600,note_on,,,,,5,0,0,,,,,0,,,77,112
141675,note_on,,,,,75,0,0,,,,,0,,,77,0
141680,note_on,,,,,5,0,0,,,,,0,,,80,112
141680,note_on,,,,,0,0,0,,,,,0,,,89,112
141755,note_on,,,,,75,0,0,,,,,0,,,80,0
141755,note_on,,,,,0,0,0,,,,,0,,,89,0
141760,note_on,,,,,5,0,0,,,,,0,,,84,112
141815,note_on,,,,,216,0,1,,,,,0,,,53,0
141815,note_on,,,,,55,0,0,,,,,0,,,65,0
141835,note_on,,,,,20,0,0,,,,,0,,,84,0
141840,note_on,,,,,0,0,0,,,,,0,,,89,112
141840,note_on,,,,,0,0,1,,,,,0,,,65,112
141840,set_tempo,,,,,5,1,0,,545456,,,,,,,
141840,note_on,,,,,25,0,1,,,,,0,,,53,112
141915,note_on,,,,,75,0,0,,,,,0,,,89,0
141920,note_on,,,,,5,0,0,,,,,0,,,92,112
141920,note_on,,,,,0,0,0,,,,,0,,,101,112
141995,note_on,,,,,75,0,0,,,,,0,,,92,0
141995,note_on,,,,,0,0,0,,,,,0,,,101,0
142000,note_on,,,,,5,0,0,,,,,0,,,96,112
142075,note_on,,,,,75,0,0,,,,,0,,,96,0
142181,note_on,,,,,341,0,1,,,,,0,,,53,0
142181,note_on,,,,,0,0,1,,,,,0,,,65,0
142200,note_on,,,,,19,0,1,,,,,0,,,53,112
142200,note_on,,,,,125,0,0,,,,,0,,,65,112
142313,note_on,,,,,113,0,1,,,,,0,,,53,0
142313,note_on,,,,,113,0,0,,,,,0,,,65,0
142320,note_on,,,,,0,0,1,,,,,0,,,41,112
142320,note_on,,,,,7,0,1,,,,,0,,,52,112
142320,set_tempo,,,,,7,1,0,,666667,,,,,,,
142320,note_on,,,,,0,0,0,,,,,0,,,64,112
142320,note_on,,,,,0,0,0,,,,,0,,,64,112
142383,note_on,,,,,63,0,1,,,,,0,,,46,112
142395,note_on,,,,,75,0,0,,,,,0,,,64,0
142400,note_on,,,,,0,0,0,,,,,0,,,76,112
142400,note_on,,,,,5,0,0,,,,,0,,,67,112
142447,note_on,,,,,64,0,1,,,,,0,,,49,112
142475,note_on,,,,,75,0,0,,,,,0,,,67,0
142475,note_on,,,,,0,0,0,,,,,0,,,76,0
142480,note_on,,,,,5,0,0,,,,,0,,,70,112
142555,note_on,,,,,75,0,0,,,,,0,,,70,0
142558,note_on,,,,,111,0,1,,,,,0,,,46,0
142558,note_on,,,,,0,0,1,,,,,0,,,49,0
142559,note_on,,,,,1,0,1,,,,,0,,,41,0
142560,note_on,,,,,5,0,0,,,,,0,,,76,112
142635,note_on,,,,,75,0,0,,,,,0,,,76,0
142640,note_on,,,,,0,0,0,,,,,0,,,88,112
142640,note_on,,,,,5,0,0,,,,,0,,,79,112
142715,note_on,,,,,75,0,0,,,,,0,,,79,0
142715,note_on,,,,,0,0,0,,,,,0,,,88,0
142720,note_on,,,,,5,0,0,,,,,0,,,82,112
142795,note_on,,,,,75,0,0,,,,,0,,,82,0
142800,set_tempo,,,,,5,1,0,,545456,,,,,,,
142800,note_on,,,,,0,0,0,,,,,0,,,88,112
142875,note_on,,,,,75,0,0,,,,,0,,,88,0
142880,note_on,,,,,0,0,0,,,,,0,,,100,112
142880,note_on,,,,,5,0,0,,,,,0,,,91,112
142955,note_on,,,,,0,0,0,,,,,0,,,100,0
142955,note_on,,,,,75,0,0,,,,,0,,,91,0
142960,note_on,,,,,5,0,0,,,,,0,,,94,112
143003,note_on,,,,,43,0,0,,,,,0,,,64,0
143003,note_on,,,,,444,0,1,,,,,0,,,52,0
143035,note_on,,,,,32,0,0,,,,,0,,,94,0
143040,note_on,,,,,37,0,1,,,,,0,,,52,112
143040,note_on,,,,,0,0,1,,,,,0,,,64,112
143267,note_on,,,,,227,0,1,,,,,0,,,52,0
143267,note_on,,,,,0,0,1,,,,,0,,,64,0
143280,note_on,,,,,0,0,1,,,,,0,,,41,112
143280,set_tempo,,,,,245,1,0,,666667,,,,,,,
143280,note_on,,,,,0,0,0,,,,,0,,,63,112
143280,note_on,,,,,13,0,1,,,,,0,,,51,112
143280,note_on,,,,,0,0,0,,,,,0,,,63,112
143343,note_on,,,,,63,0,1,,,,,0,,,45,112
143355,note_on,,,,,75,0,0,,,,,0,,,63,0
143360,note_on,,,,,5,0,0,,,,,0,,,66,112
143360,note_on,,,,,0,0,0,,,,,0,,,75,112
143407,note_on,,,,,64,0,1,,,,,0,,,48,112
143435,note_on,,,,,0,0,0,,,,,0,,,75,0
143435,note_on,,,,,75,0,0,,,,,0,,,66,0
143440,note_on,,,,,5,0,0,,,,,0,,,69,112
143507,note_on,,,,,100,0,1,,,,,0,,,51,0
143507,note_on,,,,,67,0,0,,,,,0,,,63,0
143515,note_on,,,,,8,0,0,,,,,0,,,69,0
143518,note_on,,,,,0,0,1,,,,,0,,,48,0
143518,note_on,,,,,11,0,1,,,,,0,,,45,0
143519,note_on,,,,,1,0,1,,,,,0,,,41,0
143520,note_on,,,,,0,0,1,,,,,0,,,63,112
143520,note_on,,,,,5,0,0,,,,,0,,,75,112
143520,note_on,,,,,1,0,1,,,,,0,,,51,112
143595,note_on,,,,,75,0,0,,,,,0,,,75,0
143600,note_on,,,,,5,0,0,,,,,0,,,78,112
143600,note_on,,,,,0,0,0,,,,,0,,,87,112
143675,note_on,,,,,75,0,0,,,,,0,,,78,0
143675,note_on,,,,,0,0,0,,,,,0,,,87,0
143680,note_on,,,,,5,0,0,,,,,0,,,81,112
143747,note_on,,,,,0,0,1,,,,,0,,,63,0
143747,note_on,,,,,227,0,1,,,,,0,,,51,0
143755,note_on,,,,,75,0,0,,,,,0,,,81,0
143760,note_on,,,,,0,0,1,,,,,0,,,65,112
143760,set_tempo,,,,,5,1,0,,545456,,,,,,,
143760,note_on,,,,,0,0,0,,,,,0,,,87,112
143760,note_on,,,,,13,0,1,,,,,0,,,53,112
143835,note_on,,,,,75,0,0,,,,,0,,,87,0
143840,note_on,,,,,5,0,0,,,,,0,,,90,112
143840,note_on,,,,,0,0,0,,,,,0,,,99,112
143915,note_on,,,,,75,0,0,,,,,0,,,90,0
143915,note_on,,,,,0,0,0,,,,,0,,,99,0
143920,note_on,,,,,5,0,0,,,,,0,,,93,112
143987,note_on,,,,,0,0,1,,,,,0,,,65,0
143987,note_on,,,,,227,0,1,,,,,0,,,53,0
143995,note_on,,,,,75,0,0,,,,,0,,,93,0
144000,note_on,,,,,13,0,1,,,,,0,,,54,112
144000,note_on,,,,,0,0,1,,,,,0,,,66,112
144227,note_on,,,,,0,0,1,,,,,0,,,66,0
144227,note_on,,,,,227,0,1,,,,,0,,,54,0
144240,note_on,,,,,0,0,1,,,,,0,,,41,112
144240,note_on,,,,,13,0,1,,,,,0,,,68,127
144240,note_on,,,,,0,0,0,,,,,0,,,62,112
144240,set_tempo,,,,,245,1,0,,666667,,,,,,,
144240,note_on,,,,,0,0,1,,,,,0,,,56,112
144303,note_on,,,,,63,0,1,,,,,0,,,47,112
144315,note_on,,,,,75,0,0,,,,,0,,,62,0
144320,note_on,,,,,5,0,0,,,,,0,,,74,112
144367,note_on,,,,,64,0,1,,,,,0,,,50,112
144395,note_on,,,,,75,0,0,,,,,0,,,74,0
144400,note_on,,,,,5,0,0,,,,,0,,,65,112
144475,note_on,,,,,75,0,0,,,,,0,,,65,0
144478,note_on,,,,,111,0,1,,,,,0,,,47,0
144478,note_on,,,,,0,0,1,,,,,0,,,50,0
144479,note_on,,,,,1,0,1,,,,,0,,,41,0
144480,note_on,,,,,1,0,1,,,,,0,,,68,0
144480,note_on,,,,,5,0,0,,,,,0,,,74,112
144555,note_on,,,,,75,0,0,,,,,0,,,74,0
144560,note_on,,,,,5,0,0,,,,,0,,,77,112
144560,note_on,,,,,0,0,0,,,,,0,,,86,112
144581,note_on,,,,,101,0,1,,,,,0,,,56,0
144600,note_on,,,,,0,0,1,,,,,0,,,65,112
144600,note_on,,,,,19,0,1,,,,,0,,,53,112
144635,note_on,,,,,75,0,0,,,,,0,,,77,0
144635,note_on,,,,,0,0,0,,,,,0,,,86,0
144640,note_on,,,,,5,0,0,,,,,0,,,80,112
144713,note_on,,,,,113,0,1,,,,,0,,,53,0
144713,note_on,,,,,0,0,1,,,,,0,,,65,0
144715,note_on,,,,,75,0,0,,,,,0,,,80,0
144720,set_tempo,,,,,5,1,0,,545456,,,,,,,
144720,note_on,,,,,0,0,1,,,,,0,,,62,112
144720,note_on,,,,,7,0,1,,,,,0,,,50,112
144720,note_on,,,,,0,0,0,,,,,0,,,86,112
144795,note_on,,,,,75,0,0,,,,,0,,,86,0
144800,note_on,,,,,0,0,0,,,,,0,,,98,112
144800,note_on,,,,,5,0,0,,,,,0,,,89,112
144875,note_on,,,,,0,0,0,,,,,0,,,98,0
144875,note_on,,,,,75,0,0,,,,,0,,,89,0
144880,note_on,,,,,5,0,0,,,,,0,,,92,112
144955,note_on,,,,,75,0,0,,,,,0,,,92,0
145175,note_on,,,,,455,0,1,,,,,0,,,50,0
145175,note_on,,,,,0,0,1,,,,,0,,,62,0
145200,note_on,,,,,0,0,0,,,,,0,,,61,112
145200,note_on,,,,,0,0,0,,,,,0,,,61,112
145200,set_tempo,,,,,245,1,0,,666667,,,,,,,
145200,note_on,,,,,0,0,1,,,,,0,,,40,112
145200,note_on,,,,,25,0,1,,,,,0,,,49,112
145263,note_on,,,,,63,0,1,,,,,0,,,43,112
145275,note_on,,,,,75,0,0,,,,,0,,,61,0
145280,note_on,,,,,5,0,0,,,,,0,,,64,112
145280,note_on,,,,,0,0,0,,,,,0,,,73,112
145327,note_on,,,,,64,0,1,,,,,0,,,46,112
145355,note_on,,,,,0,0,0,,,,,0,,,73,0
145355,note_on,,,,,75,0,0,,,,,0,,,64,0
145360,note_on,,,,,5,0,0,,,,,0,,,67,112
145435,note_on,,,,,75,0,0,,,,,0,,,67,0
145438,note_on,,,,,111,0,1,,,,,0,,,43,0
145438,note_on,,,,,0,0,1,,,,,0,,,46,0
145439,note_on,,,,,1,0,1,,,,,0,,,40,0
145440,note_on,,,,,5,0,0,,,,,0,,,73,112
145515,note_on,,,,,75,0,0,,,,,0,,,73,0
145520,note_on,,,,,5,0,0,,,,,0,,,76,112
145520,note_on,,,,,0,0,0,,,,,0,,,85,112
145595,note_on,,,,,0,0,0,,,,,0,,,85,0
145595,note_on,,,,,75,0,0,,,,,0,,,76,0
145600,note_on,,,,,5,0,0,,,,,0,,,79,112
145655,note_on,,,,,216,0,1,,,,,0,,,49,0
145655,note_on,,,,,55,0,0,,,,,0,,,61,0
145675,note_on,,,,,20,0,0,,,,,0,,,79,0
145680,note_on,,,,,0,0,1,,,,,0,,,61,112
145680,set_tempo,,,,,5,1,0,,545456,,,,,,,
145680,note_on,,,,,25,0,1,,,,,0,,,49,112
145680,note_on,,,,,0,0,0,,,,,0,,,85,112
145755,note_on,,,,,75,0,0,,,,,0,,,85,0
145760,note_on,,,,,5,0,0,,,,,0,,,88,112
145760,note_on,,,,,0,0,0,,,,,0,,,97,112
145835,note_on,,,,,75,0,0,,,,,0,,,88,0
145835,note_on,,,,,0,0,0,,,,,0,,,97,0
145840,note_on,,,,,5,0,0,,,,,0,,,91,112
145915,note_on,,,,,75,0,0,,,,,0,,,91,0
146021,note_on,,,,,0,0,1,,,,,0,,,61,0
146021,note_on,,,,,341,0,1,,,,,0,,,49,0
146040,note_on,,,,,19,0,1,,,,,0,,,49,112
146040,note_on,,,,,125,0,0,,,,,0,,,61,112
146153,note_on,,,,,113,0,0,,,,,0,,,61,0
146153,note_on,,,,,113,0,1,,,,,0,,,49,0
146160,note_on,,,,,0,0,1,,,,,0,,,39,112
146160,note_on,,,,,7,0,1,,,,,0,,,48,112
146160,set_tempo,,,,,7,1,0,,666667,,,,,,,
146160,note_on,,,,,0,0,0,,,,,0,,,60,112
146160,note_on,,,,,0,0,0,,,,,0,,,64,112
146223,note_on,,,,,63,0,1,,,,,0,,,42,112
146235,note_on,,,,,75,0,0,,,,,0,,,60,0
146240,note_on,,,,,5,0,0,,,,,0,,,64,112
146240,note_on,,,,,0,0,0,,,,,0,,,72,112
146287,note_on,,,,,64,0,1,,,,,0,,,45,112
146315,note_on,,,,,0,0,0,,,,,0,,,72,0
146315,note_on,,,,,75,0,0,,,,,0,,,64,0
146320,note_on,,,,,5,0,0,,,,,0,,,66,112
146395,note_on,,,,,75,0,0,,,,,0,,,66,0
146398,note_on,,,,,111,0,1,,,,,0,,,42,0
146398,note_on,,,,,0,0,1,,,,,0,,,45,0
146399,note_on,,,,,1,0,1,,,,,0,,,39,0
146400,note_on,,,,,5,0,0,,,,,0,,,72,112
146475,note_on,,,,,75,0,0,,,,,0,,,72,0
146480,note_on,,,,,5,0,0,,,,,0,,,75,112
146480,note_on,,,,,0,0,0,,,,,0,,,84,112
146555,note_on,,,,,75,0,0,,,,,0,,,75,0
146555,note_on,,,,,0,0,0,,,,,0,,,84,0
146560,note_on,,,,,5,0,0,,,,,0,,,78,112
146635,note_on,,,,,75,0,0,,,,,0,,,78,0
146640,set_tempo,,,,,5,1,0,,545456,,,,,,,
146640,note_on,,,,,0,0,0,,,,,0,,,84,112
146715,note_on,,,,,75,0,0,,,,,0,,,84,0
146720,note_on,,,,,0,0,0,,,,,0,,,96,112
146720,note_on,,,,,5,0,0,,,,,0,,,87,112
146795,note_on,,,,,75,0,0,,,,,0,,,87,0
146795,note_on,,,,,0,0,0,,,,,0,,,96,0
146800,note_on,,,,,5,0,0,,,,,0,,,90,112
146843,note_on,,,,,444,0,1,,,,,0,,,48,0
146843,note_on,,,,,43,0,0,,,,,0,,,64,0
146875,note_on,,,,,32,0,0,,,,,0,,,90,0
146880,note_on,,,,,0,0,1,,,,,0,,,60,112
146880,note_on,,,,,37,0,1,,,,,0,,,48,112
147107,note_on,,,,,0,0,1,,,,,0,,,60,0
147107,note_on,,,,,227,0,1,,,,,0,,,48,0
147120,note_on,,,,,0,0,0,,,,,0,,,59,112
147120,note_on,,,,,13,0,1,,,,,0,,,47,112
147120,set_tempo,,,,,245,1,0,,666667,,,,,,,
147120,note_on,,,,,0,0,0,,,,,0,,,59,112
147120,note_on,,,,,0,0,1,,,,,0,,,38,112
147183,note_on,,,,,63,0,1,,,,,0,,,41,112
147195,note_on,,,,,75,0,0,,,,,0,,,59,0
147200,note_on,,,,,5,0,0,,,,,0,,,62,112
147200,note_on,,,,,0,0,0,,,,,0,,,71,112
147247,note_on,,,,,64,0,1,,,,,0,,,44,112
147275,note_on,,,,,75,0,0,,,,,0,,,62,0
147275,note_on,,,,,0,0,0,,,,,0,,,71,0
147280,note_on,,,,,5,0,0,,,,,0,,,65,112
147347,note_on,,,,,67,0,0,,,,,0,,,59,0
147347,note_on,,,,,100,0,1,,,,,0,,,47,0
147355,note_on,,,,,8,0,0,,,,,0,,,65,0
147358,note_on,,,,,0,0,1,,,,,0,,,44,0
147358,note_on,,,,,11,0,1,,,,,0,,,41,0
147359,note_on,,,,,1,0,1,,,,,0,,,38,0
147360,note_on,,,,,1,0,1,,,,,0,,,47,112
147360,note_on,,,,,5,0,0,,,,,0,,,71,112
147360,note_on,,,,,0,0,1,,,,,0,,,59,112
147435,note_on,,,,,75,0,0,,,,,0,,,71,0
147440,note_on,,,,,5,0,0,,,,,0,,,74,112
147440,note_on,,,,,0,0,0,,,,,0,,,83,112
147515,note_on,,,,,0,0,0,,,,,0,,,83,0
147515,note_on,,,,,75,0,0,,,,,0,,,74,0
147520,note_on,,,,,5,0,0,,,,,0,,,77,112
147587,note_on,,,,,227,0,1,,,,,0,,,47,0
147587,note_on,,,,,0,0,1,,,,,0,,,59,0
147595,note_on,,,,,75,0,0,,,,,0,,,77,0
147600,note_on,,,,,13,0,1,,,,,0,,,48,112
147600,note_on,,,,,0,0,0,,,,,0,,,83,112
147600,set_tempo,,,,,5,1,0,,545456,,,,,,,
147600,note_on,,,,,0,0,1,,,,,0,,,60,112
147675,note_on,,,,,75,0,0,,,,,0,,,83,0
147680,note_on,,,,,5,0,0,,,,,0,,,86,112
147680,note_on,,,,,0,0,0,,,,,0,,,95,112
147755,note_on,,,,,75,0,0,,,,,0,,,86,0
147755,note_on,,,,,0,0,0,,,,,0,,,95,0
147760,note_on,,,,,5,0,0,,,,,0,,,89,112
147827,note_on,,,,,0,0,1,,,,,0,,,60,0
147827,note_on,,,,,227,0,1,,,,,0,,,48,0
147835,note_on,,,,,75,0,0,,,,,0,,,89,0
147840,note_on,,,,,0,0,1,,,,,0,,,62,112
147840,note_on,,,,,13,0,1,,,,,0,,,50,112
148067,note_on,,,,,227,0,1,,,,,0,,,50,0
148067,note_on,,,,,0,0,1,,,,,0,,,62,0
148080,note_on,,,,,0,0,0,,,,,0,,,64,127
148080,note_on,,,,,13,0,1,,,,,0,,,52,112
148080,note_on,,,,,0,0,1,,,,,0,,,37,112
148080,set_tempo,,,,,245,1,0,,666667,,,,,,,
148080,note_on,,,,,0,0,0,,,,,0,,,58,112
148143,note_on,,,,,63,0,1,,,,,0,,,43,112
148155,note_on,,,,,75,0,0,,,,,0,,,58,0
148160,note_on,,,,,5,0,0,,,,,0,,,70,112
148207,note_on,,,,,64,0,1,,,,,0,,,46,112
148235,note_on,,,,,75,0,0,,,,,0,,,70,0
148240,note_on,,,,,5,0,0,,,,,0,,,61,112
148315,note_on,,,,,75,0,0,,,,,0,,,61,0
148318,note_on,,,,,0,0,1,,,,,0,,,46,0
148318,note_on,,,,,111,0,1,,,,,0,,,43,0
148319,note_on,,,,,1,0,1,,,,,0,,,37,0
148320,note_on,,,,,0,0,0,,,,,0,,,70,112
148320,note_on,,,,,5,0,0,,,,,0,,,64,0
148395,note_on,,,,,75,0,0,,,,,0,,,70,0
148400,note_on,,,,,5,0,0,,,,,0,,,73,112
148400,note_on,,,,,0,0,0,,,,,0,,,82,112
148421,note_on,,,,,102,0,1,,,,,0,,,52,0
148440,note_on,,,,,19,0,1,,,,,0,,,49,112
148440,note_on,,,,,0,0,1,,,,,0,,,61,112
148475,note_on,,,,,75,0,0,,,,,0,,,73,0
148475,note_on,,,,,0,0,0,,,,,0,,,82,0
148480,note_on,,,,,5,0,0,,,,,0,,,76,112
148553,note_on,,,,,0,0,1,,,,,0,,,61,0
148553,note_on,,,,,113,0,1,,,,,0,,,49,0
148555,note_on,,,,,75,0,0,,,,,0,,,76,0
148560,set_tempo,,,,,5,1,0,,545456,,,,,,,
148560,note_on,,,,,0,0,1,,,,,0,,,58,112
148560,note_on,,,,,0,0,0,,,,,0,,,82,112
148560,note_on,,,,,7,0,1,,,,,0,,,46,112
148635,note_on,,,,,75,0,0,,,,,0,,,82,0
148640,note_on,,,,,5,0,0,,,,,0,,,85,112
148640,note_on,,,,,0,0,0,,,,,0,,,94,112
148715,note_on,,,,,75,0,0,,,,,0,,,85,0
148715,note_on,,,,,0,0,0,,,,,0,,,94,0
148720,note_on,,,,,5,0,0,,,,,0,,,88,112
148795,note_on,,,,,75,0,0,,,,,0,,,88,0
149015,note_on,,,,,0,0,1,,,,,0,,,58,0
149015,note_on,,,,,455,0,1,,,,,0,,,46,0
149040,note_on,,,,,0,0,1,,,,,0,,,36,112
149040,set_tempo,,,,,245,1,0,,666667,,,,,,,
149040,note_on,,,,,25,0,1,,,,,0,,,45,112
149040,note_on,,,,,0,0,0,,,,,0,,,57,112
149040,note_on,,,,,0,0,0,,,,,0,,,57,112
149103,note_on,,,,,63,0,1,,,,,0,,,39,112
149115,note_on,,,,,75,0,0,,,,,0,,,57,0
149120,note_on,,,,,0,0,0,,,,,0,,,69,112
149120,note_on,,,,,5,0,0,,,,,0,,,60,112
149167,note_on,,,,,64,0,1,,,,,0,,,42,112
149195,note_on,,,,,0,0,0,,,,,0,,,69,0
149195,note_on,,,,,75,0,0,,,,,0,,,60,0
149200,note_on,,,,,5,0,0,,,,,0,,,63,112
149267,note_on,,,,,67,0,0,,,,,0,,,57,0
149267,note_on,,,,,100,0,1,,,,,0,,,45,0
149275,note_on,,,,,8,0,0,,,,,0,,,63,0
149278,note_on,,,,,11,0,1,,,,,0,,,39,0
149278,note_on,,,,,0,0,1,,,,,0,,,42,0
149279,note_on,,,,,1,0,1,,,,,0,,,36,0
149280,note_on,,,,,5,0,0,,,,,0,,,69,112
149280,note_on,,,,,0,0,1,,,,,0,,,57,112
149280,note_on,,,,,1,0,1,,,,,0,,,45,112
149355,note_on,,,,,75,0,0,,,,,0,,,69,0
149360,note_on,,,,,0,0,0,,,,,0,,,81,112
149360,note_on,,,,,5,0,0,,,,,0,,,72,112
149435,note_on,,,,,0,0,0,,,,,0,,,81,0
149435,note_on,,,,,75,0,0,,,,,0,,,72,0
149440,note_on,,,,,5,0,0,,,,,0,,,75,112
149507,note_on,,,,,227,0,1,,,,,0,,,45,0
149507,note_on,,,,,0,0,1,,,,,0,,,57,0
149515,note_on,,,,,75,0,0,,,,,0,,,75,0
149520,note_on,,,,,13,0,1,,,,,0,,,46,112
149520,note_on,,,,,0,0,0,,,,,0,,,81,112
149520,note_on,,,,,0,0,1,,,,,0,,,58,112
149520,set_tempo,,,,,5,1,0,,545456,,,,,,,
149595,note_on,,,,,75,0,0,,,,,0,,,81,0
149600,note_on,,,,,5,0,0,,,,,0,,,84,112
149600,note_on,,,,,0,0,0,,,,,0,,,93,112
149675,note_on,,,,,0,0,0,,,,,0,,,93,0
149675,note_on,,,,,75,0,0,,,,,0,,,84,0
149680,note_on,,,,,5,0,0,,,,,0,,,87,112
149747,note_on,,,,,0,0,1,,,,,0,,,58,0
149747,note_on,,,,,227,0,1,,,,,0,,,46,0
149755,note_on,,,,,75,0,0,,,,,0,,,87,0
149760,note_on,,,,,0,0,1,,,,,0,,,60,112
149760,note_on,,,,,13,0,1,,,,,0,,,48,112
149987,note_on,,,,,0,0,1,,,,,0,,,60,0
149987,note_on,,,,,227,0,1,,,,,0,,,48,0
150000,note_on,,,,,0,0,0,,,,,0,,,62,112
150000,note_on,,,,,245,0,0,,,,,0,,,56,112
150000,note_on,,,,,13,0,1,,,,,0,,,35,112
150042,note_on,,,,,42,0,1,,,,,0,,,41,112
150075,note_on,,,,,75,0,0,,,,,0,,,56,0
150080,note_on,,,,,5,0,0,,,,,0,,,68,112
150084,note_on,,,,,42,0,1,,,,,0,,,44,112
150126,note_on,,,,,42,0,1,,,,,0,,,50,112
150155,note_on,,,,,75,0,0,,,,,0,,,68,0
150160,note_on,,,,,5,0,0,,,,,0,,,59,112
150235,note_on,,,,,75,0,0,,,,,0,,,59,0
150239,note_on,,,,,0,0,1,,,,,0,,,44,0
150239,note_on,,,,,0,0,1,,,,,0,,,41,0
150239,note_on,,,,,0,0,1,,,,,0,,,50,0
150239,note_on,,,,,113,0,1,,,,,0,,,35,0
150240,note_on,,,,,1,0,1,,,,,0,,,47,112
150240,note_on,,,,,0,0,1,,,,,0,,,56,112
150240,note_on,,,,,5,0,0,,,,,0,,,61,112
150315,note_on,,,,,75,0,0,,,,,0,,,61,0
150320,note_on,,,,,5,0,0,,,,,0,,,65,112
150320,note_on,,,,,0,0,0,,,,,0,,,74,112
150395,note_on,,,,,0,0,0,,,,,0,,,74,0
150395,note_on,,,,,75,0,0,,,,,0,,,65,0
150400,note_on,,,,,5,0,0,,,,,0,,,68,112
150455,note_on,,,,,55,0,0,,,,,0,,,62,0
150467,note_on,,,,,0,0,1,,,,,0,,,56,0
150467,note_on,,,,,227,0,1,,,,,0,,,47,0
150475,note_on,,,,,20,0,0,,,,,0,,,68,0
150480,note_on,,,,,13,0,1,,,,,0,,,53,112
150480,note_on,,,,,5,0,0,,,,,0,,,68,112
150480,note_on,,,,,0,0,1,,,,,0,,,62,112
150555,note_on,,,,,75,0,0,,,,,0,,,68,0
150560,note_on,,,,,5,0,0,,,,,0,,,71,112
150560,note_on,,,,,0,0,0,,,,,0,,,80,112
150635,note_on,,,,,0,0,0,,,,,0,,,80,0
150635,note_on,,,,,75,0,0,,,,,0,,,71,0
150640,note_on,,,,,5,0,0,,,,,0,,,74,112
150707,note_on,,,,,0,0,1,,,,,0,,,62,0
150707,note_on,,,,,227,0,1,,,,,0,,,53,0
150715,note_on,,,,,75,0,0,,,,,0,,,74,0
150720,note_on,,,,,5,0,0,,,,,0,,,74,112
150720,note_on,,,,,0,0,1,,,,,0,,,68,112
150720,note_on,,,,,13,0,1,,,,,0,,,59,112
150795,note_on,,,,,75,0,0,,,,,0,,,74,0
150800,note_on,,,,,5,0,0,,,,,0,,,77,112
150800,note_on,,,,,0,0,0,,,,,0,,,86,112
150875,note_on,,,,,75,0,0,,,,,0,,,77,0
150875,note_on,,,,,0,0,0,,,,,0,,,86,0
150880,note_on,,,,,5,0,0,,,,,0,,,80,112
150947,note_on,,,,,227,0,1,,,,,0,,,59,0
150947,note_on,,,,,0,0,1,,,,,0,,,68,0
150955,note_on,,,,,75,0,0,,,,,0,,,80,0
150960,note_on,,,,,0,0,0,,,,,0,,,80,112
150960,note_on,,,,,0,0,1,,,,,0,,,74,112
150960,note_on,,,,,13,0,1,,,,,0,,,65,112
150960,set_tempo,,,,,5,1,0,,500000,,,,,,,
151035,note_on,,,,,75,0,0,,,,,0,,,80,0
151040,note_on,,,,,5,0,0,,,,,0,,,83,112
151040,note_on,,,,,0,0,0,,,,,0,,,92,112
151115,note_on,,,,,0,0,0,,,,,0,,,92,0
151115,note_on,,,,,75,0,0,,,,,0,,,83,0
151120,note_on,,,,,5,0,0,,,,,0,,,86,112
151187,note_on,,,,,0,0,1,,,,,0,,,74,0
151187,note_on,,,,,227,0,1,,,,,0,,,65,0
151195,note_on,,,,,75,0,0,,,,,0,,,86,0
151200,note_on,,,,,5,0,0,,,,,0,,,86,112
151200,note_on,,,,,0,0,1,,,,,0,,,80,112
151200,note_on,,,,,13,0,1,,,,,0,,,71,112
151275,note_on,,,,,75,0,0,,,,,0,,,86,0
151280,note_on,,,,,5,0,0,,,,,0,,,89,112
151280,note_on,,,,,0,0,0,,,,,0,,,98,112
151355,note_on,,,,,0,0,0,,,,,0,,,98,0
151355,note_on,,,,,75,0,0,,,,,0,,,89,0
151360,note_on,,,,,5,0,0,,,,,0,,,92,112
151427,note_on,,,,,0,0,1,,,,,0,,,80,0
151427,note_on,,,,,227,0,1,,,,,0,,,71,0
151435,note_on,,,,,75,0,0,,,,,0,,,92,0
151440,note_on,,,,,0,0,1,,,,,0,,,86,112
151440,note_on,,,,,5,0,0,,,,,0,,,92,112
151440,note_on,,,,,13,0,1,,,,,0,,,77,112
151515,note_on,,,,,75,0,0,,,,,0,,,92,0
151520,note_on,,,,,5,0,0,,,,,0,,,95,112
151520,note_on,,,,,0,0,0,,,,,0,,,104,112
151595,note_on,,,,,0,0,0,,,,,0,,,104,0
151595,note_on,,,,,75,0,0,,,,,0,,,95,0
151600,note_on,,,,,5,0,0,,,,,0,,,98,112
151667,note_on,,,,,0,0,1,,,,,0,,,86,0
151667,note_on,,,,,227,0,1,,,,,0,,,77,0
151675,note_on,,,,,75,0,0,,,,,0,,,98,0
151920,set_tempo,,,,,0,1,0,,2500000,,,,,,,
151920,time_signature,9,8,24,8,245,1,0,,,,,,,,,
152079,set_tempo,,,,,159,1,0,,500000,,,,,,,
152080,note_on,,,,,413,0,1,,,,,0,,,59,112
152080,set_tempo,,,,,1,1,0,,750002,,,,,,,
152080,note_on,,,,,0,0,0,,,,,0,,,77,112
152108,note_on,,,,,28,0,1,,,,,0,,,65,112
152108,note_on,,,,,28,0,0,,,,,0,,,83,112
152136,note_on,,,,,28,0,1,,,,,0,,,68,112
152136,note_on,,,,,28,0,0,,,,,0,,,86,112
152164,note_on,,,,,28,0,1,,,,,0,,,74,112
152164,note_on,,,,,28,0,0,,,,,0,,,92,112
152239,note_on,,,,,75,0,0,,,,,0,,,77,0
152239,note_on,,,,,0,0,1,,,,,0,,,74,0
152239,note_on,,,,,0,0,1,,,,,0,,,68,0
152239,note_on,,,,,75,0,1,,,,,0,,,59,0
152239,note_on,,,,,0,0,1,,,,,0,,,65,0
152239,note_on,,,,,0,0,0,,,,,0,,,83,0
152239,note_on,,,,,0,0,0,,,,,0,,,86,0
152239,note_on,,,,,0,0,0,,,,,0,,,92,0
152240,note_on,,,,,1,0,1,,,,,0,,,57,112
152240,note_on,,,,,1,0,0,,,,,0,,,78,112
152268,note_on,,,,,28,0,1,,,,,0,,,63,112
152268,note_on,,,,,28,0,0,,,,,0,,,84,112
152296,note_on,,,,,28,0,0,,,,,0,,,87,112
152296,note_on,,,,,28,0,1,,,,,0,,,66,112
152324,note_on,,,,,28,0,1,,,,,0,,,72,112
152324,note_on,,,,,28,0,0,,,,,0,,,93,112
152399,note_on,,,,,75,0,0,,,,,0,,,78,0
152399,note_on,,,,,75,0,1,,,,,0,,,57,0
152399,note_on,,,,,0,0,1,,,,,0,,,66,0
152399,note_on,,,,,0,0,1,,,,,0,,,63,0
152399,note_on,,,,,0,0,1,,,,,0,,,72,0
152399,note_on,,,,,0,0,0,,,,,0,,,93,0
152399,note_on,,,,,0,0,0,,,,,0,,,87,0
152399,note_on,,,,,0,0,0,,,,,0,,,84,0
152400,note_on,,,,,1,0,0,,,,,0,,,79,112
152400,note_on,,,,,1,0,1,,,,,0,,,55,112
152428,note_on,,,,,28,0,0,,,,,0,,,85,112
152428,note_on,,,,,28,0,1,,,,,0,,,61,112
152456,note_on,,,,,28,0,0,,,,,0,,,88,112
152456,note_on,,,,,28,0,1,,,,,0,,,64,112
152484,note_on,,,,,28,0,0,,,,,0,,,94,112
152484,note_on,,,,,28,0,1,,,,,0,,,70,112
152559,note_on,,,,,0,0,1,,,,,0,,,61,0
152559,note_on,,,,,0,0,1,,,,,0,,,64,0
152559,note_on,,,,,75,0,0,,,,,0,,,79,0
152559,note_on,,,,,75,0,1,,,,,0,,,55,0
152559,note_on,,,,,0,0,1,,,,,0,,,70,0
152559,note_on,,,,,0,0,0,,,,,0,,,85,0
152559,note_on,,,,,0,0,0,,,,,0,,,88,0
152559,note_on,,,,,0,0,0,,,,,0,,,94,0
152560,set_tempo,,,,,1,1,0,,666667,,,,,,,
152560,note_on,,,,,1,0,1,,,,,0,,,53,112
152560,note_on,,,,,0,0,0,,,,,0,,,80,112
152588,note_on,,,,,28,0,0,,,,,0,,,86,112
152588,note_on,,,,,28,0,1,,,,,0,,,59,112
152616,note_on,,,,,28,0,0,,,,,0,,,89,112
152616,note_on,,,,,28,0,1,,,,,0,,,62,112
152644,note_on,,,,,28,0,0,,,,,0,,,95,112
152644,note_on,,,,,28,0,1,,,,,0,,,68,112
152719,note_on,,,,,75,0,0,,,,,0,,,80,0
152719,note_on,,,,,0,0,0,,,,,0,,,95,0
152719,note_on,,,,,0,0,1,,,,,0,,,59,0
152719,note_on,,,,,0,0,1,,,,,0,,,68,0
152719,note_on,,,,,75,0,1,,,,,0,,,53,0
152719,note_on,,,,,0,0,1,,,,,0,,,62,0
152719,note_on,,,,,0,0,0,,,,,0,,,86,0
152719,note_on,,,,,0,0,0,,,,,0,,,89,0
152720,note_on,,,,,1,0,1,,,,,0,,,51,112
152720,note_on,,,,,1,0,0,,,,,0,,,81,112
152748,note_on,,,,,28,0,1,,,,,0,,,57,112
152748,note_on,,,,,28,0,0,,,,,0,,,87,112
152776,note_on,,,,,28,0,0,,,,,0,,,90,112
152776,note_on,,,,,28,0,1,,,,,0,,,60,112
152804,note_on,,,,,28,0,0,,,,,0,,,96,112
152804,note_on,,,,,28,0,1,,,,,0,,,66,112
152879,note_on,,,,,0,0,0,,,,,0,,,90,0
152879,note_on,,,,,0,0,0,,,,,0,,,96,0
152879,note_on,,,,,0,0,1,,,,,0,,,60,0
152879,note_on,,,,,0,0,1,,,,,0,,,57,0
152879,note_on,,,,,0,0,1,,,,,0,,,66,0
152879,note_on,,,,,75,0,0,,,,,0,,,81,0
152879,note_on,,,,,0,0,0,,,,,0,,,87,0
152879,note_on,,,,,75,0,1,,,,,0,,,51,0
152880,note_on,,,,,1,0,0,,,,,0,,,82,112
152880,note_on,,,,,1,0,1,,,,,0,,,49,112
152908,note_on,,,,,28,0,1,,,,,0,,,55,112
152908,note_on,,,,,28,0,0,,,,,0,,,88,112
152936,note_on,,,,,28,0,0,,,,,0,,,90,112
152936,note_on,,,,,28,0,1,,,,,0,,,58,112
152964,note_on,,,,,28,0,1,,,,,0,,,64,112
152964,note_on,,,,,28,0,0,,,,,0,,,97,112
153039,note_on,,,,,0,0,1,,,,,0,,,64,0
153039,note_on,,,,,75,0,0,,,,,0,,,82,0
153039,note_on,,,,,0,0,0,,,,,0,,,97,0
153039,note_on,,,,,0,0,0,,,,,0,,,90,0
153039,note_on,,,,,0,0,0,,,,,0,,,88,0
153039,note_on,,,,,75,0,1,,,,,0,,,49,0
153039,note_on,,,,,0,0,1,,,,,0,,,55,0
153039,note_on,,,,,0,0,1,,,,,0,,,58,0
153040,note_on,,,,,1,0,1,,,,,0,,,47,112
153040,set_tempo,,,,,1,1,0,,599999,,,,,,,
153040,note_on,,,,,0,0,0,,,,,0,,,83,112
153068,note_on,,,,,28,0,0,,,,,0,,,89,112
153068,note_on,,,,,28,0,1,,,,,0,,,53,112
153096,note_on,,,,,28,0,1,,,,,0,,,56,112
153096,note_on,,,,,28,0,0,,,,,0,,,92,112
153124,note_on,,,,,28,0,1,,,,,0,,,62,112
153124,note_on,,,,,28,0,0,,,,,0,,,98,112
153199,note_on,,,,,0,0,0,,,,,0,,,98,0
153199,note_on,,,,,75,0,0,,,,,0,,,83,0
153199,note_on,,,,,0,0,0,,,,,0,,,92,0
153199,note_on,,,,,75,0,1,,,,,0,,,47,0
153199,note_on,,,,,0,0,1,,,,,0,,,56,0
153199,note_on,,,,,0,0,1,,,,,0,,,53,0
153199,note_on,,,,,0,0,1,,,,,0,,,62,0
153199,note_on,,,,,0,0,0,,,,,0,,,89,0
153200,note_on,,,,,1,0,1,,,,,0,,,45,112
153200,note_on,,,,,1,0,0,,,,,0,,,84,112
153228,note_on,,,,,28,0,0,,,,,0,,,90,112
153228,note_on,,,,,28,0,1,,,,,0,,,51,112
153256,note_on,,,,,28,0,0,,,,,0,,,93,112
153256,note_on,,,,,28,0,1,,,,,0,,,54,112
153284,note_on,,,,,28,0,0,,,,,0,,,99,112
153284,note_on,,,,,28,0,1,,,,,0,,,60,112
153359,note_on,,,,,75,0,0,,,,,0,,,84,0
153359,note_on,,,,,75,0,1,,,,,0,,,45,0
153359,note_on,,,,,0,0,1,,,,,0,,,60,0
153359,note_on,,,,,0,0,1,,,,,0,,,54,0
153359,note_on,,,,,0,0,1,,,,,0,,,51,0
153359,note_on,,,,,0,0,0,,,,,0,,,90,0
153359,note_on,,,,,0,0,0,,,,,0,,,93,0
153359,note_on,,,,,0,0,0,,,,,0,,,99,0
153360,note_on,,,,,1,0,1,,,,,0,,,43,112
153360,note_on,,,,,1,0,0,,,,,0,,,85,112
153388,note_on,,,,,28,0,1,,,,,0,,,49,112
153388,note_on,,,,,28,0,0,,,,,0,,,91,112
153416,note_on,,,,,28,0,1,,,,,0,,,52,112
153416,note_on,,,,,28,0,0,,,,,0,,,94,112
153444,note_on,,,,,28,0,0,,,,,0,,,100,112
153444,note_on,,,,,28,0,1,,,,,0,,,58,112
153519,note_on,,,,,0,0,0,,,,,0,,,94,0
153519,note_on,,,,,0,0,0,,,,,0,,,100,0
153519,note_on,,,,,75,0,1,,,,,0,,,43,0
153519,note_on,,,,,75,0,0,,,,,0,,,85,0
153519,note_on,,,,,0,0,1,,,,,0,,,58,0
153519,note_on,,,,,0,0,1,,,,,0,,,52,0
153519,note_on,,,,,0,0,1,,,,,0,,,49,0
153519,note_on,,,,,0,0,0,,,,,0,,,91,0
153520,note_on,,,,,1,0,0,,,,,0,,,86,112
153520,note_on,,,,,1,0,1,,,,,0,,,41,112
153548,note_on,,,,,28,0,0,,,,,0,,,92,112
153548,note_on,,,,,28,0,1,,,,,0,,,47,112
153576,note_on,,,,,28,0,1,,,,,0,,,49,112
153576,note_on,,,,,28,0,0,,,,,0,,,95,112
153604,note_on,,,,,28,0,0,,,,,0,,,101,112
153604,note_on,,,,,28,0,1,,,,,0,,,56,112
153679,note_on,,,,,0,0,1,,,,,0,,,56,0
153679,note_on,,,,,0,0,1,,,,,0,,,47,0
153679,note_on,,,,,0,0,1,,,,,0,,,49,0
153679,note_on,,,,,75,0,0,,,,,0,,,86,0
153679,note_on,,,,,0,0,0,,,,,0,,,101,0
153679,note_on,,,,,75,0,1,,,,,0,,,41,0
153679,note_on,,,,,0,0,0,,,,,0,,,95,0
153679,note_on,,,,,0,0,0,,,,,0,,,92,0
153680,set_tempo,,,,,1,1,0,,2399995,,,,,,,
153839,set_tempo,,,,,159,1,0,,599999,,,,,,,
153840,note_on,,,,,161,0,1,,,,,0,,,37,127
153840,note_on,,,,,0,0,1,,,,,0,,,49,127
153840,set_tempo,,,,,1,1,0,,2399995,,,,,,,
154079,note_on,,,,,239,0,1,,,,,0,,,37,0
154079,note_on,,,,,0,0,1,,,,,0,,,49,0
154079,set_tempo,,,,,239,1,0,,599999,,,,,,,
154080,note_on,,,,,1,0,1,,,,,0,,,28,112
154080,note_on,,,,,0,0,1,,,,,0,,,31,112
154080,time_signature,2,4,24,8,1,1,0,,,,,,,,,
154080,note_on,,,,,0,0,1,,,,,0,,,40,112
154080,set_tempo,,,,,0,1,0,,545456,,,,,,,
154160,note_on,,,,,80,0,0,,,,,0,,,49,112
154160,note_on,,,,,0,0,0,,,,,0,,,61,112
154199,note_on,,,,,0,0,1,,,,,0,,,31,0
154199,note_on,,,,,119,0,1,,,,,0,,,28,0
154199,note_on,,,,,0,0,1,,,,,0,,,40,0
154235,note_on,,,,,0,0,0,,,,,0,,,61,0
154235,note_on,,,,,75,0,0,,,,,0,,,49,0
154240,note_on,,,,,5,0,0,,,,,0,,,48,112
154240,note_on,,,,,0,0,0,,,,,0,,,60,112
154315,note_on,,,,,75,0,0,,,,,0,,,48,0
154315,note_on,,,,,0,0,0,,,,,0,,,60,0
154320,note_on,,,,,121,0,1,,,,,0,,,29,112
154320,note_on,,,,,0,0,1,,,,,0,,,32,112
154320,note_on,,,,,0,0,1,,,,,0,,,41,112
154400,note_on,,,,,85,0,0,,,,,0,,,47,112
154400,note_on,,,,,0,0,0,,,,,0,,,59,112
154439,note_on,,,,,119,0,1,,,,,0,,,29,0
154439,note_on,,,,,0,0,1,,,,,0,,,41,0
154439,note_on,,,,,0,0,1,,,,,0,,,32,0
154475,note_on,,,,,0,0,0,,,,,0,,,59,0
154475,note_on,,,,,75,0,0,,,,,0,,,47,0
154480,note_on,,,,,5,0,0,,,,,0,,,48,112
154480,note_on,,,,,0,0,0,,,,,0,,,60,112
154555,note_on,,,,,0,0,0,,,,,0,,,60,0
154555,note_on,,,,,75,0,0,,,,,0,,,48,0
154560,note_on,,,,,0,0,1,,,,,0,,,43,112
154560,note_on,,,,,0,0,1,,,,,0,,,34,112
154560,note_on,,,,,121,0,1,,,,,0,,,31,112
154640,note_on,,,,,85,0,0,,,,,0,,,49,112
154640,note_on,,,,,0,0,0,,,,,0,,,61,112
154679,note_on,,,,,0,0,1,,,,,0,,,34,0
154679,note_on,,,,,0,0,1,,,,,0,,,43,0
154679,note_on,,,,,119,0,1,,,,,0,,,31,0
154715,note_on,,,,,0,0,0,,,,,0,,,61,0
154715,note_on,,,,,75,0,0,,,,,0,,,49,0
154720,note_on,,,,,5,0,0,,,,,0,,,48,112
154720,note_on,,,,,0,0,0,,,,,0,,,60,112
154795,note_on,,,,,0,0,0,,,,,0,,,60,0
154795,note_on,,,,,75,0,0,,,,,0,,,48,0
154800,note_on,,,,,0,0,1,,,,,0,,,40,112
154800,note_on,,,,,121,0,1,,,,,0,,,28,112
154800,note_on,,,,,0,0,1,,,,,0,,,31,112
154880,note_on,,,,,0,0,0,,,,,0,,,59,112
154880,note_on,,,,,85,0,0,,,,,0,,,47,112
154919,note_on,,,,,119,0,1,,,,,0,,,28,0
154919,note_on,,,,,0,0,1,,,,,0,,,40,0
154919,note_on,,,,,0,0,1,,,,,0,,,31,0
154955,note_on,,,,,0,0,0,,,,,0,,,59,0
154955,note_on,,,,,75,0,0,,,,,0,,,47,0
154960,note_on,,,,,5,0,0,,,,,0,,,48,112
154960,note_on,,,,,0,0,0,,,,,0,,,60,112
155035,note_on,,,,,75,0,0,,,,,0,,,48,0
155035,note_on,,,,,0,0,0,,,,,0,,,60,0
155040,note_on,,,,,0,0,1,,,,,0,,,32,112
155040,note_on,,,,,121,0,1,,,,,0,,,29,112
155040,note_on,,,,,0,0,1,,,,,0,,,41,112
155120,note_on,,,,,85,0,0,,,,,0,,,49,112
155120,note_on,,,,,0,0,0,,,,,0,,,61,112
155159,note_on,,,,,119,0,1,,,,,0,,,29,0
155159,note_on,,,,,0,0,1,,,,,0,,,41,0
155159,note_on,,,,,0,0,1,,,,,0,,,32,0
155195,note_on,,,,,0,0,0,,,,,0,,,61,0
155195,note_on,,,,,75,0,0,,,,,0,,,49,0
155200,note_on,,,,,0,0,0,,,,,0,,,60,112
155200,note_on,,,,,5,0,0,,,,,0,,,48,112
155275,note_on,,,,,0,0,0,,,,,0,,,60,0
155275,note_on,,,,,75,0,0,,,,,0,,,48,0
155280,note_on,,,,,0,0,1,,,,,0,,,44,112
155280,note_on,,,,,121,0,1,,,,,0,,,32,112
155280,note_on,,,,,0,0,1,,,,,0,,,36,112
155360,note_on,,,,,85,0,0,,,,,0,,,55,112
155360,note_on,,,,,0,0,0,,,,,0,,,67,112
155399,note_on,,,,,119,0,1,,,,,0,,,32,0
155399,note_on,,,,,0,0,1,,,,,0,,,36,0
155399,note_on,,,,,0,0,1,,,,,0,,,44,0
155435,note_on,,,,,75,0,0,,,,,0,,,55,0
155435,note_on,,,,,0,0,0,,,,,0,,,67,0
155440,note_on,,,,,0,0,0,,,,,0,,,65,112
155440,note_on,,,,,5,0,0,,,,,0,,,53,112
155515,note_on,,,,,0,0,0,,,,,0,,,65,0
155515,note_on,,,,,75,0,0,,,,,0,,,53,0
155520,note_on,,,,,121,0,1,,,,,0,,,34,112
155520,note_on,,,,,0,0,1,,,,,0,,,41,112
155520,note_on,,,,,0,0,1,,,,,0,,,43,112
155600,note_on,,,,,0,0,0,,,,,0,,,63,112
155600,note_on,,,,,85,0,0,,,,,0,,,51,112
155639,note_on,,,,,0,0,1,,,,,0,,,41,0
155639,note_on,,,,,0,0,1,,,,,0,,,43,0
155639,note_on,,,,,119,0,1,,,,,0,,,34,0
155675,note_on,,,,,75,0,0,,,,,0,,,51,0
155675,note_on,,,,,0,0,0,,,,,0,,,63,0
155680,note_on,,,,,0,0,0,,,,,0,,,61,112
155680,note_on,,,,,5,0,0,,,,,0,,,49,112
155755,note_on,,,,,75,0,0,,,,,0,,,49,0
155755,note_on,,,,,0,0,0,,,,,0,,,61,0
155760,note_on,,,,,121,0,1,,,,,0,,,37,112
155760,note_on,,,,,0,0,1,,,,,0,,,41,112
155760,note_on,,,,,0,0,1,,,,,0,,,43,112
155840,note_on,,,,,85,0,0,,,,,0,,,48,112
155840,note_on,,,,,0,0,0,,,,,0,,,60,112
155879,note_on,,,,,119,0,1,,,,,0,,,37,0
155879,note_on,,,,,0,0,1,,,,,0,,,43,0
155879,note_on,,,,,0,0,1,,,,,0,,,41,0
155915,note_on,,,,,75,0,0,,,,,0,,,48,0
155915,note_on,,,,,0,0,0,,,,,0,,,60,0
155920,note_on,,,,,5,0,0,,,,,0,,,46,112
155920,note_on,,,,,0,0,0,,,,,0,,,58,112
155995,note_on,,,,,0,0,0,,,,,0,,,58,0
155995,note_on,,,,,75,0,0,,,,,0,,,46,0
156000,note_on,,,,,121,0,1,,,,,0,,,36,112
156000,note_on,,,,,0,0,1,,,,,0,,,41,112
156080,note_on,,,,,0,0,0,,,,,0,,,58,112
156080,note_on,,,,,85,0,0,,,,,0,,,46,112
156119,note_on,,,,,119,0,1,,,,,0,,,36,0
156119,note_on,,,,,0,0,1,,,,,0,,,41,0
156155,note_on,,,,,0,0,0,,,,,0,,,58,0
156155,note_on,,,,,75,0,0,,,,,0,,,46,0
156160,note_on,,,,,5,0,0,,,,,0,,,44,112
156160,note_on,,,,,0,0,0,,,,,0,,,56,112
156235,note_on,,,,,0,0,0,,,,,0,,,56,0
156235,note_on,,,,,75,0,0,,,,,0,,,44,0
156240,note_on,,,,,121,0,1,,,,,0,,,36,112
156240,note_on,,,,,0,0,1,,,,,0,,,44,112
156240,note_on,,,,,0,0,1,,,,,0,,,41,112
156320,note_on,,,,,85,0,0,,,,,0,,,49,112
156320,note_on,,,,,0,0,0,,,,,0,,,61,112
156359,note_on,,,,,0,0,1,,,,,0,,,41,0
156359,note_on,,,,,119,0,1,,,,,0,,,36,0
156359,note_on,,,,,0,0,1,,,,,0,,,44,0
156395,note_on,,,,,75,0,0,,,,,0,,,49,0
156395,note_on,,,,,0,0,0,,,,,0,,,61,0
156400,note_on,,,,,0,0,0,,,,,0,,,60,112
156400,note_on,,,,,5,0,0,,,,,0,,,48,112
156475,note_on,,,,,75,0,0,,,,,0,,,48,0
156475,note_on,,,,,0,0,0,,,,,0,,,60,0
156480,note_on,,,,,121,0,1,,,,,0,,,36,112
156480,note_on,,,,,0,0,1,,,,,0,,,40,112
156560,note_on,,,,,0,0,0,,,,,0,,,56,112
156560,note_on,,,,,85,0,0,,,,,0,,,44,112
156599,note_on,,,,,119,0,1,,,,,0,,,36,0
156599,note_on,,,,,0,0,1,,,,,0,,,40,0
156635,note_on,,,,,75,0,0,,,,,0,,,44,0
156635,note_on,,,,,0,0,0,,,,,0,,,56,0
156640,note_on,,,,,5,0,0,,,,,0,,,43,112
156640,note_on,,,,,0,0,0,,,,,0,,,55,112
156715,note_on,,,,,75,0,0,,,,,0,,,43,0
156715,note_on,,,,,0,0,0,,,,,0,,,55,0
156720,note_on,,,,,0,0,1,,,,,0,,,46,112
156720,note_on,,,,,0,0,1,,,,,0,,,40,112
156720,note_on,,,,,121,0,1,,,,,0,,,36,112
156800,note_on,,,,,0,0,0,,,,,0,,,61,112
156800,note_on,,,,,85,0,0,,,,,0,,,49,112
156839,note_on,,,,,0,0,1,,,,,0,,,40,0
156839,note_on,,,,,119,0,1,,,,,0,,,36,0
156839,note_on,,,,,0,0,1,,,,,0,,,46,0
156875,note_on,,,,,75,0,0,,,,,0,,,49,0
156875,note_on,,,,,0,0,0,,,,,0,,,61,0
156880,note_on,,,,,5,0,0,,,,,0,,,48,112
156880,note_on,,,,,0,0,0,,,,,0,,,60,112
156955,note_on,,,,,0,0,0,,,,,0,,,60,0
156955,note_on,,,,,75,0,0,,,,,0,,,48,0
156960,note_on,,,,,0,0,1,,,,,0,,,43,112
156960,note_on,,,,,0,0,1,,,,,0,,,52,112
156960,note_on,,,,,121,0,1,,,,,0,,,40,112
157040,note_on,,,,,85,0,0,,,,,0,,,61,112
157040,note_on,,,,,0,0,0,,,,,0,,,73,112
157115,note_on,,,,,0,0,0,,,,,0,,,73,0
157115,note_on,,,,,75,0,0,,,,,0,,,61,0
157120,note_on,,,,,0,0,0,,,,,0,,,72,112
157120,note_on,,,,,5,0,0,,,,,0,,,60,112
157187,note_on,,,,,0,0,1,,,,,0,,,52,0
157187,note_on,,,,,0,0,1,,,,,0,,,43,0
157187,note_on,,,,,227,0,1,,,,,0,,,40,0
157195,note_on,,,,,75,0,0,,,,,0,,,60,0
157195,note_on,,,,,0,0,0,,,,,0,,,72,0
157200,note_on,,,,,0,0,1,,,,,0,,,44,112
157200,note_on,,,,,13,0,1,,,,,0,,,41,112
157200,note_on,,,,,0,0,1,,,,,0,,,53,112
157280,note_on,,,,,85,0,0,,,,,0,,,59,112
157280,note_on,,,,,0,0,0,,,,,0,,,71,112
157355,note_on,,,,,75,0,0,,,,,0,,,59,0
157355,note_on,,,,,0,0,0,,,,,0,,,71,0
157360,note_on,,,,,0,0,0,,,,,0,,,72,112
157360,note_on,,,,,5,0,0,,,,,0,,,60,112
157427,note_on,,,,,227,0,1,,,,,0,,,41,0
157427,note_on,,,,,0,0,1,,,,,0,,,44,0
157427,note_on,,,,,0,0,1,,,,,0,,,53,0
157435,note_on,,,,,0,0,0,,,,,0,,,72,0
157435,note_on,,,,,75,0,0,,,,,0,,,60,0
157440,note_on,,,,,13,0,1,,,,,0,,,43,112
157440,note_on,,,,,0,0,1,,,,,0,,,46,112
157440,note_on,,,,,0,0,1,,,,,0,,,55,112
157520,note_on,,,,,0,0,0,,,,,0,,,73,112
157520,note_on,,,,,85,0,0,,,,,0,,,61,112
157595,note_on,,,,,0,0,0,,,,,0,,,73,0
157595,note_on,,,,,75,0,0,,,,,0,,,61,0
157600,note_on,,,,,0,0,0,,,,,0,,,72,112
157600,note_on,,,,,5,0,0,,,,,0,,,60,112
157667,note_on,,,,,227,0,1,,,,,0,,,43,0
157667,note_on,,,,,0,0,1,,,,,0,,,46,0
157667,note_on,,,,,0,0,1,,,,,0,,,55,0
157675,note_on,,,,,75,0,0,,,,,0,,,60,0
157675,note_on,,,,,0,0,0,,,,,0,,,72,0
157680,note_on,,,,,0,0,1,,,,,0,,,52,112
157680,note_on,,,,,0,0,1,,,,,0,,,43,112
157680,note_on,,,,,13,0,1,,,,,0,,,40,112
157760,note_on,,,,,0,0,0,,,,,0,,,71,112
157760,note_on,,,,,85,0,0,,,,,0,,,59,112
157835,note_on,,,,,0,0,0,,,,,0,,,71,0
157835,note_on,,,,,75,0,0,,,,,0,,,59,0
157840,note_on,,,,,0,0,0,,,,,0,,,72,112
157840,note_on,,,,,5,0,0,,,,,0,,,60,112
157907,note_on,,,,,227,0,1,,,,,0,,,40,0
157907,note_on,,,,,0,0,1,,,,,0,,,52,0
157907,note_on,,,,,0,0,1,,,,,0,,,43,0
157915,note_on,,,,,75,0,0,,,,,0,,,60,0
157915,note_on,,,,,0,0,0,,,,,0,,,72,0
157920,note_on,,,,,13,0,1,,,,,0,,,41,112
157920,note_on,,,,,0,0,1,,,,,0,,,53,112
157920,note_on,,,,,0,0,1,,,,,0,,,44,112
158000,note_on,,,,,85,0,0,,,,,0,,,61,112
158000,note_on,,,,,0,0,0,,,,,0,,,73,112
158075,note_on,,,,,75,0,0,,,,,0,,,61,0
158075,note_on,,,,,0,0,0,,,,,0,,,73,0
158080,note_on,,,,,0,0,0,,,,,0,,,72,112
158080,note_on,,,,,5,0,0,,,,,0,,,60,112
158147,note_on,,,,,0,0,1,,,,,0,,,53,0
158147,note_on,,,,,227,0,1,,,,,0,,,41,0
158147,note_on,,,,,0,0,1,,,,,0,,,44,0
158155,note_on,,,,,75,0,0,,,,,0,,,60,0
158155,note_on,,,,,0,0,0,,,,,0,,,72,0
158160,note_on,,,,,13,0,1,,,,,0,,,48,112
158160,note_on,,,,,0,0,1,,,,,0,,,53,112
158160,note_on,,,,,0,0,1,,,,,0,,,56,112
158240,note_on,,,,,85,0,0,,,,,0,,,70,112
158240,note_on,,,,,0,0,0,,,,,0,,,82,112
158315,note_on,,,,,0,0,0,,,,,0,,,82,0
158315,note_on,,,,,75,0,0,,,,,0,,,70,0
158320,note_on,,,,,0,0,0,,,,,0,,,80,112
158320,note_on,,,,,5,0,0,,,,,0,,,68,112
158387,note_on,,,,,227,0,1,,,,,0,,,48,0
158387,note_on,,,,,0,0,1,,,,,0,,,56,0
158387,note_on,,,,,0,0,1,,,,,0,,,53,0
158395,note_on,,,,,0,0,0,,,,,0,,,80,0
158395,note_on,,,,,75,0,0,,,,,0,,,68,0
158400,note_on,,,,,0,0,1,,,,,0,,,53,112
158400,note_on,,,,,13,0,1,,,,,0,,,49,112
158400,note_on,,,,,0,0,1,,,,,0,,,58,112
158480,note_on,,,,,0,0,0,,,,,0,,,79,112
158480,note_on,,,,,85,0,0,,,,,0,,,67,112
158555,note_on,,,,,0,0,0,,,,,0,,,79,0
158555,note_on,,,,,75,0,0,,,,,0,,,67,0
158560,note_on,,,,,5,0,0,,,,,0,,,65,112
158560,note_on,,,,,0,0,0,,,,,0,,,77,112
158627,note_on,,,,,0,0,1,,,,,0,,,53,0
158627,note_on,,,,,0,0,1,,,,,0,,,58,0
158627,note_on,,,,,227,0,1,,,,,0,,,49,0
158635,note_on,,,,,75,0,0,,,,,0,,,65,0
158635,note_on,,,,,0,0,0,,,,,0,,,77,0
158640,note_on,,,,,0,0,1,,,,,0,,,53,112
158640,note_on,,,,,13,0,1,,,,,0,,,46,112
158640,note_on,,,,,0,0,1,,,,,0,,,55,112
158720,note_on,,,,,0,0,0,,,,,0,,,75,112
158720,note_on,,,,,85,0,0,,,,,0,,,63,112
158795,note_on,,,,,0,0,0,,,,,0,,,75,0
158795,note_on,,,,,75,0,0,,,,,0,,,63,0
158800,note_on,,,,,5,0,0,,,,,0,,,61,112
158800,note_on,,,,,0,0,0,,,,,0,,,73,112
158867,note_on,,,,,0,0,1,,,,,0,,,53,0
158867,note_on,,,,,227,0,1,,,,,0,,,46,0
158867,note_on,,,,,0,0,1,,,,,0,,,55,0
158875,note_on,,,,,0,0,0,,,,,0,,,73,0
158875,note_on,,,,,75,0,0,,,,,0,,,61,0
158880,note_on,,,,,13,0,1,,,,,0,,,48,112
158880,note_on,,,,,0,0,1,,,,,0,,,56,112
158880,note_on,,,,,0,0,1,,,,,0,,,53,112
158960,note_on,,,,,0,0,0,,,,,0,,,73,112
158960,note_on,,,,,85,0,0,,,,,0,,,61,112
159035,note_on,,,,,75,0,0,,,,,0,,,61,0
159035,note_on,,,,,0,0,0,,,,,0,,,73,0
159040,note_on,,,,,0,0,0,,,,,0,,,72,112
159040,note_on,,,,,5,0,0,,,,,0,,,60,112
159107,note_on,,,,,0,0,1,,,,,0,,,53,0
159107,note_on,,,,,227,0,1,,,,,0,,,48,0
159107,note_on,,,,,0,0,1,,,,,0,,,56,0
159115,note_on,,,,,0,0,0,,,,,0,,,72,0
159115,note_on,,,,,75,0,0,,,,,0,,,60,0
159120,note_on,,,,,13,0,1,,,,,0,,,36,112
159120,note_on,,,,,0,0,1,,,,,0,,,41,112
159120,note_on,,,,,0,0,1,,,,,0,,,44,112
159120,note_on,,,,,0,0,1,,,,,0,,,48,112
159200,note_on,,,,,0,0,0,,,,,0,,,71,112
159200,note_on,,,,,85,0,0,,,,,0,,,59,112
159275,note_on,,,,,75,0,0,,,,,0,,,59,0
159275,note_on,,,,,0,0,0,,,,,0,,,71,0
159280,note_on,,,,,0,0,0,,,,,0,,,72,112
159280,note_on,,,,,5,0,0,,,,,0,,,60,112
159347,note_on,,,,,0,0,1,,,,,0,,,48,0
159347,note_on,,,,,0,0,1,,,,,0,,,41,0
159347,note_on,,,,,0,0,1,,,,,0,,,44,0
159347,note_on,,,,,227,0,1,,,,,0,,,36,0
159355,note_on,,,,,0,0,0,,,,,0,,,72,0
159355,note_on,,,,,75,0,0,,,,,0,,,60,0
159360,note_on,,,,,13,0,1,,,,,0,,,48,112
159360,note_on,,,,,0,0,1,,,,,0,,,52,112
159360,note_on,,,,,0,0,1,,,,,0,,,58,112
159440,note_on,,,,,85,0,0,,,,,0,,,61,112
159440,note_on,,,,,0,0,0,,,,,0,,,73,112
159515,note_on,,,,,0,0,0,,,,,0,,,73,0
159515,note_on,,,,,75,0,0,,,,,0,,,61,0
159520,note_on,,,,,5,0,0,,,,,0,,,60,112
159520,note_on,,,,,0,0,0,,,,,0,,,72,112
159587,note_on,,,,,0,0,1,,,,,0,,,58,0
159587,note_on,,,,,0,0,1,,,,,0,,,52,0
159587,note_on,,,,,227,0,1,,,,,0,,,48,0
159595,note_on,,,,,0,0,0,,,,,0,,,72,0
159595,note_on,,,,,75,0,0,,,,,0,,,60,0
159600,note_on,,,,,0,0,1,,,,,0,,,46,112
159600,note_on,,,,,0,0,1,,,,,0,,,48,112
159600,note_on,,,,,13,0,1,,,,,0,,,36,112
159600,note_on,,,,,0,0,1,,,,,0,,,40,112
159680,note_on,,,,,85,0,0,,,,,0,,,73,112
159680,note_on,,,,,0,0,0,,,,,0,,,85,112
159755,note_on,,,,,0,0,0,,,,,0,,,85,0
159755,note_on,,,,,75,0,0,,,,,0,,,73,0
159760,note_on,,,,,0,0,0,,,,,0,,,84,112
159760,note_on,,,,,5,0,0,,,,,0,,,72,112
159827,note_on,,,,,0,0,1,,,,,0,,,48,0
159827,note_on,,,,,0,0,1,,,,,0,,,46,0
159827,note_on,,,,,0,0,1,,,,,0,,,40,0
159827,note_on,,,,,227,0,1,,,,,0,,,36,0
159835,note_on,,,,,0,0,0,,,,,0,,,84,0
159835,note_on,,,,,75,0,0,,,,,0,,,72,0
159840,note_on,,,,,0,0,1,,,,,0,,,53,112
159840,note_on,,,,,13,0,1,,,,,0,,,41,112
159840,note_on,,,,,0,0,1,,,,,0,,,48,112
159920,note_on,,,,,85,0,0,,,,,0,,,85,112
159920,note_on,,,,,0,0,0,,,,,0,,,97,112
159995,note_on,,,,,75,0,0,,,,,0,,,85,0
159995,note_on,,,,,0,0,0,,,,,0,,,97,0
160000,note_on,,,,,0,0,0,,,,,0,,,96,112
160000,note_on,,,,,5,0,0,,,,,0,,,84,112
160067,note_on,,,,,0,0,1,,,,,0,,,48,0
160067,note_on,,,,,0,0,1,,,,,0,,,53,0
160067,note_on,,,,,227,0,1,,,,,0,,,41,0
160075,note_on,,,,,75,0,0,,,,,0,,,84,0
160075,note_on,,,,,0,0,0,,,,,0,,,96,0
160080,note_on,,,,,0,0,1,,,,,0,,,56,112
160080,note_on,,,,,0,0,1,,,,,0,,,53,112
160080,note_on,,,,,13,0,1,,,,,0,,,44,112
160160,note_on,,,,,0,0,0,,,,,0,,,94,112
160160,note_on,,,,,85,0,0,,,,,0,,,82,112
160235,note_on,,,,,0,0,0,,,,,0,,,94,0
160235,note_on,,,,,75,0,0,,,,,0,,,82,0
160240,note_on,,,,,5,0,0,,,,,0,,,80,112
160240,note_on,,,,,0,0,0,,,,,0,,,92,112
160307,note_on,,,,,0,0,1,,,,,0,,,56,0
160307,note_on,,,,,0,0,1,,,,,0,,,53,0
160307,note_on,,,,,227,0,1,,,,,0,,,44,0
160315,note_on,,,,,0,0,0,,,,,0,,,92,0
160315,note_on,,,,,75,0,0,,,,,0,,,80,0
160320,note_on,,,,,0,0,1,,,,,0,,,58,112
160320,note_on,,,,,13,0,1,,,,,0,,,46,112
160320,note_on,,,,,0,0,1,,,,,0,,,53,112
160400,note_on,,,,,85,0,0,,,,,0,,,79,112
160400,note_on,,,,,0,0,0,,,,,0,,,91,112
160475,note_on,,,,,0,0,0,,,,,0,,,91,0
160475,note_on,,,,,75,0,0,,,,,0,,,79,0
160480,note_on,,,,,0,0,0,,,,,0,,,89,112
160480,note_on,,,,,5,0,0,,,,,0,,,77,112
160547,note_on,,,,,0,0,1,,,,,0,,,53,0
160547,note_on,,,,,0,0,1,,,,,0,,,58,0
160547,note_on,,,,,227,0,1,,,,,0,,,46,0
160555,note_on,,,,,75,0,0,,,,,0,,,77,0
160555,note_on,,,,,0,0,0,,,,,0,,,89,0
160560,note_on,,,,,13,0,1,,,,,0,,,53,112
160560,note_on,,,,,0,0,1,,,,,0,,,65,112
160560,note_on,,,,,0,0,1,,,,,0,,,58,112
160640,note_on,,,,,85,0,0,,,,,0,,,75,112
160640,note_on,,,,,0,0,0,,,,,0,,,87,112
160715,note_on,,,,,75,0,0,,,,,0,,,75,0
160715,note_on,,,,,0,0,0,,,,,0,,,87,0
160720,note_on,,,,,5,0,0,,,,,0,,,73,112
160720,note_on,,,,,0,0,0,,,,,0,,,85,112
160787,note_on,,,,,0,0,1,,,,,0,,,58,0
160787,note_on,,,,,227,0,1,,,,,0,,,53,0
160787,note_on,,,,,0,0,1,,,,,0,,,65,0
160795,note_on,,,,,75,0,0,,,,,0,,,73,0
160795,note_on,,,,,0,0,0,,,,,0,,,85,0
160800,note_on,,,,,0,0,1,,,,,0,,,53,112
160800,note_on,,,,,0,0,1,,,,,0,,,48,112
160800,note_on,,,,,13,0,1,,,,,0,,,41,112
160880,note_on,,,,,85,0,0,,,,,0,,,73,112
160880,note_on,,,,,0,0,0,,,,,0,,,85,112
160955,note_on,,,,,0,0,0,,,,,0,,,85,0
160955,note_on,,,,,75,0,0,,,,,0,,,73,0
160960,note_on,,,,,0,0,0,,,,,0,,,84,112
160960,note_on,,,,,5,0,0,,,,,0,,,72,112
161027,note_on,,,,,0,0,1,,,,,0,,,48,0
161027,note_on,,,,,227,0,1,,,,,0,,,41,0
161027,note_on,,,,,0,0,1,,,,,0,,,53,0
161035,note_on,,,,,0,0,0,,,,,0,,,84,0
161035,note_on,,,,,75,0,0,,,,,0,,,72,0
161040,note_on,,,,,13,0,1,,,,,0,,,44,112
161040,note_on,,,,,0,0,1,,,,,0,,,53,112
161040,note_on,,,,,0,0,1,,,,,0,,,56,112
161120,note_on,,,,,0,0,0,,,,,0,,,83,112
161120,note_on,,,,,85,0,0,,,,,0,,,71,112
161195,note_on,,,,,75,0,0,,,,,0,,,71,0
161195,note_on,,,,,0,0,0,,,,,0,,,83,0
161200,note_on,,,,,5,0,0,,,,,0,,,72,112
161200,note_on,,,,,0,0,0,,,,,0,,,84,112
161267,note_on,,,,,227,0,1,,,,,0,,,44,0
161267,note_on,,,,,0,0,1,,,,,0,,,56,0
161267,note_on,,,,,0,0,1,,,,,0,,,53,0
161275,note_on,,,,,75,0,0,,,,,0,,,72,0
161275,note_on,,,,,0,0,0,,,,,0,,,84,0
161280,note_on,,,,,0,0,1,,,,,0,,,53,112
161280,note_on,,,,,0,0,1,,,,,0,,,58,112
161280,note_on,,,,,13,0,1,,,,,0,,,46,112
161360,note_on,,,,,0,0,0,,,,,0,,,73,112
161360,note_on,,,,,85,0,0,,,,,0,,,61,112
161435,note_on,,,,,75,0,0,,,,,0,,,61,0
161435,note_on,,,,,0,0,0,,,,,0,,,73,0
161440,note_on,,,,,0,0,0,,,,,0,,,72,112
161440,note_on,,,,,5,0,0,,,,,0,,,60,112
161507,note_on,,,,,0,0,1,,,,,0,,,53,0
161507,note_on,,,,,227,0,1,,,,,0,,,46,0
161507,note_on,,,,,0,0,1,,,,,0,,,58,0
161515,note_on,,,,,0,0,0,,,,,0,,,72,0
161515,note_on,,,,,75,0,0,,,,,0,,,60,0
161520,note_on,,,,,0,0,1,,,,,0,,,65,112
161520,note_on,,,,,0,0,1,,,,,0,,,58,112
161520,note_on,,,,,13,0,1,,,,,0,,,53,112
161600,note_on,,,,,85,0,0,,,,,0,,,59,112
161600,note_on,,,,,0,0,0,,,,,0,,,71,112
161675,note_on,,,,,0,0,0,,,,,0,,,71,0
161675,note_on,,,,,75,0,0,,,,,0,,,59,0
161680,note_on,,,,,5,0,0,,,,,0,,,60,112
161680,note_on,,,,,0,0,0,,,,,0,,,72,112
161747,note_on,,,,,227,0,1,,,,,0,,,53,0
161747,note_on,,,,,0,0,1,,,,,0,,,65,0
161747,note_on,,,,,0,0,1,,,,,0,,,58,0
161755,note_on,,,,,0,0,0,,,,,0,,,72,0
161755,note_on,,,,,75,0,0,,,,,0,,,60,0
161760,note_on,,,,,0,0,1,,,,,0,,,48,112
161760,note_on,,,,,0,0,1,,,,,0,,,53,112
161760,note_on,,,,,13,0,1,,,,,0,,,41,112
161840,note_on,,,,,0,0,0,,,,,0,,,101,112
161840,note_on,,,,,85,0,0,,,,,0,,,89,112
161915,note_on,,,,,75,0,0,,,,,0,,,89,0
161915,note_on,,,,,0,0,0,,,,,0,,,101,0
161920,note_on,,,,,0,0,0,,,,,0,,,97,112
161920,note_on,,,,,5,0,0,,,,,0,,,85,112
161987,note_on,,,,,0,0,1,,,,,0,,,48,0
161987,note_on,,,,,0,0,1,,,,,0,,,53,0
161987,note_on,,,,,227,0,1,,,,,0,,,41,0
161995,note_on,,,,,0,0,0,,,,,0,,,97,0
161995,note_on,,,,,75,0,0,,,,,0,,,85,0
162000,note_on,,,,,13,0,1,,,,,0,,,44,112
162000,note_on,,,,,0,0,1,,,,,0,,,60,112
162000,note_on,,,,,0,0,1,,,,,0,,,53,112
162080,note_on,,,,,85,0,0,,,,,0,,,84,112
162080,note_on,,,,,0,0,0,,,,,0,,,96,112
162155,note_on,,,,,75,0,0,,,,,0,,,84,0
162155,note_on,,,,,0,0,0,,,,,0,,,96,0
162160,note_on,,,,,5,0,0,,,,,0,,,80,112
162160,note_on,,,,,0,0,0,,,,,0,,,92,112
162227,note_on,,,,,227,0,1,,,,,0,,,44,0
162227,note_on,,,,,0,0,1,,,,,0,,,60,0
162227,note_on,,,,,0,0,1,,,,,0,,,53,0
162235,note_on,,,,,75,0,0,,,,,0,,,80,0
162235,note_on,,,,,0,0,0,,,,,0,,,92,0
162240,note_on,,,,,0,0,1,,,,,0,,,61,112
162240,note_on,,,,,13,0,1,,,,,0,,,46,112
162240,note_on,,,,,0,0,1,,,,,0,,,53,112
162320,note_on,,,,,85,0,0,,,,,0,,,78,112
162320,note_on,,,,,0,0,0,,,,,0,,,90,112
162395,note_on,,,,,75,0,0,,,,,0,,,78,0
162395,note_on,,,,,0,0,0,,,,,0,,,90,0
162400,note_on,,,,,0,0,0,,,,,0,,,89,112
162400,note_on,,,,,5,0,0,,,,,0,,,77,112
162467,note_on,,,,,0,0,1,,,,,0,,,61,0
162467,note_on,,,,,0,0,1,,,,,0,,,53,0
162467,note_on,,,,,227,0,1,,,,,0,,,46,0
162475,note_on,,,,,0,0,0,,,,,0,,,89,0
162475,note_on,,,,,75,0,0,,,,,0,,,77,0
162480,note_on,,,,,0,0,1,,,,,0,,,65,112
162480,note_on,,,,,0,0,1,,,,,0,,,58,112
162480,note_on,,,,,13,0,1,,,,,0,,,53,112
162560,note_on,,,,,0,0,0,,,,,0,,,85,112
162560,note_on,,,,,85,0,0,,,,,0,,,73,112
162635,note_on,,,,,0,0,0,,,,,0,,,85,0
162635,note_on,,,,,75,0,0,,,,,0,,,73,0
162640,note_on,,,,,0,0,0,,,,,0,,,82,112
162640,note_on,,,,,5,0,0,,,,,0,,,70,112
162707,note_on,,,,,0,0,1,,,,,0,,,58,0
162707,note_on,,,,,0,0,1,,,,,0,,,65,0
162707,note_on,,,,,227,0,1,,,,,0,,,53,0
162715,note_on,,,,,75,0,0,,,,,0,,,70,0
162715,note_on,,,,,0,0,0,,,,,0,,,82,0
162720,note_on,,,,,0,0,1,,,,,0,,,56,112
162720,note_on,,,,,13,0,1,,,,,0,,,48,112
162720,note_on,,,,,0,0,1,,,,,0,,,60,112
162720,note_on,,,,,0,0,1,,,,,0,,,53,112
162800,note_on,,,,,85,0,0,,,,,0,,,73,112
162800,note_on,,,,,0,0,0,,,,,0,,,85,112
162875,note_on,,,,,0,0,0,,,,,0,,,85,0
162875,note_on,,,,,75,0,0,,,,,0,,,73,0
162880,note_on,,,,,0,0,0,,,,,0,,,84,112
162880,note_on,,,,,5,0,0,,,,,0,,,72,112
162947,note_on,,,,,227,0,1,,,,,0,,,48,0
162947,note_on,,,,,0,0,1,,,,,0,,,60,0
162947,note_on,,,,,0,0,1,,,,,0,,,56,0
162947,note_on,,,,,0,0,1,,,,,0,,,53,0
162955,note_on,,,,,0,0,0,,,,,0,,,84,0
162955,note_on,,,,,75,0,0,,,,,0,,,72,0
162960,note_on,,,,,0,0,1,,,,,0,,,44,112
162960,note_on,,,,,13,0,1,,,,,0,,,36,112
162960,note_on,,,,,0,0,1,,,,,0,,,41,112
162960,note_on,,,,,0,0,1,,,,,0,,,48,112
163040,note_on,,,,,85,0,0,,,,,0,,,68,112
163040,note_on,,,,,0,0,0,,,,,0,,,80,112
163115,note_on,,,,,75,0,0,,,,,0,,,68,0
163115,note_on,,,,,0,0,0,,,,,0,,,80,0
163120,note_on,,,,,0,0,0,,,,,0,,,77,112
163120,note_on,,,,,5,0,0,,,,,0,,,65,112
163187,note_on,,,,,0,0,1,,,,,0,,,48,0
163187,note_on,,,,,0,0,1,,,,,0,,,44,0
163187,note_on,,,,,0,0,1,,,,,0,,,41,0
163187,note_on,,,,,227,0,1,,,,,0,,,36,0
163195,note_on,,,,,0,0,0,,,,,0,,,77,0
163195,note_on,,,,,75,0,0,,,,,0,,,65,0
163200,note_on,,,,,13,0,1,,,,,0,,,48,112
163200,note_on,,,,,0,0,1,,,,,0,,,58,112
163200,note_on,,,,,0,0,1,,,,,0,,,64,112
163280,note_on,,,,,0,0,0,,,,,0,,,73,112
163280,note_on,,,,,85,0,0,,,,,0,,,61,112
163355,note_on,,,,,0,0,0,,,,,0,,,73,0
163355,note_on,,,,,75,0,0,,,,,0,,,61,0
163360,note_on,,,,,0,0,0,,,,,0,,,72,112
163360,note_on,,,,,5,0,0,,,,,0,,,60,112
163427,note_on,,,,,227,0,1,,,,,0,,,48,0
163427,note_on,,,,,0,0,1,,,,,0,,,58,0
163427,note_on,,,,,0,0,1,,,,,0,,,64,0
163435,note_on,,,,,0,0,0,,,,,0,,,72,0
163435,note_on,,,,,75,0,0,,,,,0,,,60,0
163440,note_on,,,,,0,0,1,,,,,0,,,48,112
163440,note_on,,,,,0,0,1,,,,,0,,,46,112
163440,note_on,,,,,13,0,1,,,,,0,,,36,112
163440,note_on,,,,,0,0,1,,,,,0,,,40,112
163520,note_on,,,,,0,0,0,,,,,0,,,80,112
163520,note_on,,,,,85,0,0,,,,,0,,,68,112
163595,note_on,,,,,0,0,0,,,,,0,,,80,0
163595,note_on,,,,,75,0,0,,,,,0,,,68,0
163600,note_on,,,,,0,0,0,,,,,0,,,79,112
163600,note_on,,,,,5,0,0,,,,,0,,,67,112
163667,note_on,,,,,227,0,1,,,,,0,,,36,0
163667,note_on,,,,,0,0,1,,,,,0,,,40,0
163667,note_on,,,,,0,0,1,,,,,0,,,46,0
163667,note_on,,,,,0,0,1,,,,,0,,,48,0
163675,note_on,,,,,75,0,0,,,,,0,,,67,0
163675,note_on,,,,,0,0,0,,,,,0,,,79,0
163680,note_on,,,,,0,0,1,,,,,0,,,44,112
163680,note_on,,,,,0,0,1,,,,,0,,,48,112
163680,note_on,,,,,0,0,0,,,,,0,,,77,112
163680,note_on,,,,,0,0,1,,,,,0,,,53,112
163680,note_on,,,,,5,0,0,,,,,0,,,65,112
163680,note_on,,,,,13,0,1,,,,,0,,,41,112
163758,note_on,,,,,78,0,0,,,,,0,,,65,0
163758,note_on,,,,,0,0,0,,,,,0,,,77,0
163920,note_on,,,,,162,0,0,,,,,0,,,77,112
163920,note_on,,,,,0,0,0,,,,,0,,,89,112
163998,note_on,,,,,78,0,0,,,,,0,,,77,0
163998,note_on,,,,,0,0,0,,,,,0,,,89,0
164135,note_on,,,,,455,0,1,,,,,0,,,41,0
164135,note_on,,,,,0,0,1,,,,,0,,,53,0
164135,note_on,,,,,0,0,1,,,,,0,,,48,0
164135,note_on,,,,,0,0,1,,,,,0,,,44,0
164160,note_on,,,,,0,0,0,,,,,0,,,89,112
164160,note_on,,,,,0,0,0,,,,,0,,,101,112
164160,set_tempo,,,,,162,1,0,,1090911,,,,,,,
164160,note_on,,,,,0,0,1,,,,,0,,,65,112
164160,note_on,,,,,25,0,1,,,,,0,,,53,112
164238,note_on,,,,,78,0,0,,,,,0,,,89,0
164238,note_on,,,,,0,0,1,,,,,0,,,65,0
164238,note_on,,,,,0,0,0,,,,,0,,,101,0
164238,note_on,,,,,78,0,1,,,,,0,,,53,0
164399,set_tempo,,,,,161,1,0,,545456,,,,,,,
164520,note_on,,,,,0,0,0,,,,,0,,,65,112
164520,note_on,,,,,121,0,0,,,,,0,,,53,112
164520,note_on,,,,,282,0,1,,,,,0,,,41,112
164633,note_on,,,,,0,0,0,,,,,0,,,65,0
164633,note_on,,,,,113,0,0,,,,,0,,,53,0
164633,note_on,,,,,113,0,1,,,,,0,,,41,0
164640,note_on,,,,,7,0,0,,,,,0,,,53,127
164640,note_on,,,,,7,0,1,,,,,0,,,35,112
164640,note_on,,,,,0,0,1,,,,,0,,,47,112
164640,note_on,,,,,0,0,0,,,,,0,,,65,127
164640,note_on,,,,,0,0,0,,,,,0,,,62,127
164640,note_on,,,,,0,0,0,,,,,0,,,59,127
164746,note_on,,,,,0,0,0,,,,,0,,,62,0
164746,note_on,,,,,0,0,0,,,,,0,,,59,0
164746,note_on,,,,,0,0,0,,,,,0,,,65,0
164746,note_on,,,,,106,0,0,,,,,0,,,53,0
164791,note_on,,,,,151,0,1,,,,,0,,,35,0
164791,note_on,,,,,0,0,1,,,,,0,,,47,0
164800,note_on,,,,,0,0,0,,,,,0,,,62,112
164800,note_on,,,,,0,0,0,,,,,0,,,65,112
164800,note_on,,,,,0,0,0,,,,,0,,,59,112
164800,note_on,,,,,9,0,1,,,,,0,,,36,112
164800,note_on,,,,,0,0,1,,,,,0,,,48,112
164800,note_on,,,,,54,0,0,,,,,0,,,53,112
164951,note_on,,,,,151,0,0,,,,,0,,,53,0
164951,note_on,,,,,0,0,1,,,,,0,,,48,0
164951,note_on,,,,,0,0,0,,,,,0,,,65,0
164951,note_on,,,,,0,0,0,,,,,0,,,62,0
164951,note_on,,,,,0,0,0,,,,,0,,,59,0
164951,note_on,,,,,151,0,1,,,,,0,,,36,0
164960,note_on,,,,,9,0,1,,,,,0,,,37,112
164960,note_on,,,,,9,0,0,,,,,0,,,53,112
164960,note_on,,,,,0,0,1,,,,,0,,,49,112
164960,note_on,,,,,0,0,0,,,,,0,,,65,112
164960,note_on,,,,,0,0,0,,,,,0,,,62,112
164960,note_on,,,,,0,0,0,,,,,0,,,59,112
165111,note_on,,,,,151,0,0,,,,,0,,,53,0
165111,note_on,,,,,151,0,1,,,,,0,,,37,0
165111,note_on,,,,,0,0,0,,,,,0,,,59,0
165111,note_on,,,,,0,0,0,,,,,0,,,62,0
165111,note_on,,,,,0,0,0,,,,,0,,,65,0
165111,note_on,,,,,0,0,1,,,,,0,,,49,0
165120,note_on,,,,,9,0,1,,,,,0,,,38,112
165120,note_on,,,,,0,0,0,,,,,0,,,62,112
165120,note_on,,,,,0,0,0,,,,,0,,,65,112
165120,note_on,,,,,9,0,0,,,,,0,,,53,112
165120,note_on,,,,,0,0,1,,,,,0,,,50,112
165120,note_on,,,,,0,0,0,,,,,0,,,59,112
165271,note_on,,,,,0,0,1,,,,,0,,,50,0
165271,note_on,,,,,151,0,1,,,,,0,,,38,0
165280,note_on,,,,,0,0,1,,,,,0,,,51,112
165280,note_on,,,,,9,0,1,,,,,0,,,39,112
165347,note_on,,,,,227,0,0,,,,,0,,,53,0
165347,note_on,,,,,0,0,0,,,,,0,,,59,0
165347,note_on,,,,,0,0,0,,,,,0,,,65,0
165347,note_on,,,,,0,0,0,,,,,0,,,62,0
165431,note_on,,,,,151,0,1,,,,,0,,,39,0
165431,note_on,,,,,0,0,1,,,,,0,,,51,0
165440,note_on,,,,,9,0,1,,,,,0,,,40,112
165440,note_on,,,,,0,0,1,,,,,0,,,52,112
165591,note_on,,,,,151,0,1,,,,,0,,,40,0
165591,note_on,,,,,0,0,1,,,,,0,,,52,0
165600,note_on,,,,,0,0,1,,,,,0,,,53,112
165600,note_on,,,,,0,0,0,,,,,0,,,77,112
165600,note_on,,,,,253,0,0,,,,,0,,,65,112
165600,note_on,,,,,9,0,1,,,,,0,,,41,112
165678,note_on,,,,,78,0,0,,,,,0,,,65,0
165678,note_on,,,,,0,0,0,,,,,0,,,77,0
165840,note_on,,,,,0,0,0,,,,,0,,,89,112
165840,note_on,,,,,162,0,0,,,,,0,,,77,112
165918,note_on,,,,,0,0,0,,,,,0,,,89,0
165918,note_on,,,,,78,0,0,,,,,0,,,77,0
166055,note_on,,,,,0,0,1,,,,,0,,,53,0
166055,note_on,,,,,455,0,1,,,,,0,,,41,0
166080,note_on,,,,,0,0,1,,,,,0,,,65,112
166080,note_on,,,,,25,0,1,,,,,0,,,53,112
166080,set_tempo,,,,,162,1,0,,1090911,,,,,,,
166080,note_on,,,,,0,0,0,,,,,0,,,101,112
166080,note_on,,,,,0,0,0,,,,,0,,,89,112
166158,note_on,,,,,0,0,1,,,,,0,,,65,0
166158,note_on,,,,,78,0,0,,,,,0,,,89,0
166158,note_on,,,,,78,0,1,,,,,0,,,53,0
166158,note_on,,,,,0,0,0,,,,,0,,,101,0
166319,set_tempo,,,,,161,1,0,,545456,,,,,,,
166440,note_on,,,,,0,0,0,,,,,0,,,65,112
166440,note_on,,,,,121,0,0,,,,,0,,,53,112
166440,note_on,,,,,282,0,1,,,,,0,,,41,112
166553,note_on,,,,,0,0,0,,,,,0,,,65,0
166553,note_on,,,,,113,0,1,,,,,0,,,41,0
166553,note_on,,,,,113,0,0,,,,,0,,,53,0
166560,note_on,,,,,0,0,0,,,,,0,,,65,127
166560,note_on,,,,,0,0,0,,,,,0,,,58,127
166560,note_on,,,,,0,0,0,,,,,0,,,61,127
166560,note_on,,,,,7,0,0,,,,,0,,,53,127
166560,note_on,,,,,7,0,1,,,,,0,,,34,112
166560,note_on,,,,,0,0,1,,,,,0,,,46,112
166666,note_on,,,,,0,0,0,,,,,0,,,58,0
166666,note_on,,,,,0,0,0,,,,,0,,,65,0
166666,note_on,,,,,0,0,0,,,,,0,,,61,0
166666,note_on,,,,,106,0,0,,,,,0,,,53,0
166711,note_on,,,,,151,0,1,,,,,0,,,34,0
166711,note_on,,,,,0,0,1,,,,,0,,,46,0
166720,note_on,,,,,0,0,1,,,,,0,,,47,112
166720,note_on,,,,,54,0,0,,,,,0,,,53,112
166720,note_on,,,,,0,0,0,,,,,0,,,58,112
166720,note_on,,,,,0,0,0,,,,,0,,,61,112
166720,note_on,,,,,0,0,0,,,,,0,,,65,112
166720,note_on,,,,,9,0,1,,,,,0,,,35,112
166871,note_on,,,,,151,0,0,,,,,0,,,53,0
166871,note_on,,,,,0,0,1,,,,,0,,,47,0
166871,note_on,,,,,0,0,0,,,,,0,,,58,0
166871,note_on,,,,,0,0,0,,,,,0,,,61,0
166871,note_on,,,,,0,0,0,,,,,0,,,65,0
166871,note_on,,,,,151,0,1,,,,,0,,,35,0
166880,note_on,,,,,9,0,1,,,,,0,,,36,112
166880,note_on,,,,,0,0,1,,,,,0,,,48,112
166880,note_on,,,,,9,0,0,,,,,0,,,53,112
166880,note_on,,,,,0,0,0,,,,,0,,,61,112
166880,note_on,,,,,0,0,0,,,,,0,,,65,112
166880,note_on,,,,,0,0,0,,,,,0,,,58,112
167031,note_on,,,,,0,0,0,,,,,0,,,58,0
167031,note_on,,,,,0,0,0,,,,,0,,,61,0
167031,note_on,,,,,0,0,0,,,,,0,,,65,0
167031,note_on,,,,,151,0,1,,,,,0,,,36,0
167031,note_on,,,,,151,0,0,,,,,0,,,53,0
167031,note_on,,,,,0,0,1,,,,,0,,,48,0
167040,note_on,,,,,0,0,1,,,,,0,,,49,112
167040,note_on,,,,,9,0,0,,,,,0,,,53,112
167040,note_on,,,,,0,0,0,,,,,0,,,65,112
167040,note_on,,,,,9,0,1,,,,,0,,,37,112
167040,note_on,,,,,0,0,0,,,,,0,,,58,112
167040,note_on,,,,,0,0,0,,,,,0,,,61,112
167153,note_on,,,,,113,0,1,,,,,0,,,37,0
167153,note_on,,,,,0,0,1,,,,,0,,,49,0
167160,note_on,,,,,7,0,1,,,,,0,,,38,112
167160,note_on,,,,,0,0,1,,,,,0,,,50,112
167267,note_on,,,,,227,0,0,,,,,0,,,53,0
167267,note_on,,,,,0,0,0,,,,,0,,,58,0
167267,note_on,,,,,0,0,0,,,,,0,,,61,0
167267,note_on,,,,,0,0,0,,,,,0,,,65,0
167273,note_on,,,,,113,0,1,,,,,0,,,38,0
167273,note_on,,,,,0,0,1,,,,,0,,,50,0
167280,note_on,,,,,7,0,1,,,,,0,,,39,112
167280,note_on,,,,,0,0,1,,,,,0,,,51,112
167393,note_on,,,,,0,0,1,,,,,0,,,51,0
167393,note_on,,,,,113,0,1,,,,,0,,,39,0
167400,note_on,,,,,7,0,1,,,,,0,,,40,112
167400,note_on,,,,,0,0,1,,,,,0,,,52,112
167513,note_on,,,,,113,0,1,,,,,0,,,40,0
167513,note_on,,,,,0,0,1,,,,,0,,,52,0
167520,note_on,,,,,0,0,0,,,,,0,,,77,112
167520,note_on,,,,,0,0,1,,,,,0,,,53,112
167520,note_on,,,,,7,0,1,,,,,0,,,41,112
167520,note_on,,,,,253,0,0,,,,,0,,,65,112
167598,note_on,,,,,0,0,0,,,,,0,,,77,0
167598,note_on,,,,,78,0,0,,,,,0,,,65,0
167760,note_on,,,,,162,0,0,,,,,0,,,77,112
167760,note_on,,,,,0,0,0,,,,,0,,,89,112
167838,note_on,,,,,0,0,0,,,,,0,,,89,0
167838,note_on,,,,,78,0,0,,,,,0,,,77,0
167975,note_on,,,,,455,0,1,,,,,0,,,41,0
167975,note_on,,,,,0,0,1,,,,,0,,,53,0
168000,note_on,,,,,0,0,1,,,,,0,,,65,112
168000,set_tempo,,,,,162,1,0,,818183,,,,,,,
168000,note_on,,,,,0,0,0,,,,,0,,,101,112
168000,note_on,,,,,0,0,0,,,,,0,,,89,112
168000,note_on,,,,,25,0,1,,,,,0,,,53,112
168078,note_on,,,,,78,0,0,,,,,0,,,89,0
168078,note_on,,,,,78,0,1,,,,,0,,,53,0
168078,note_on,,,,,0,0,0,,,,,0,,,101,0
168078,note_on,,,,,0,0,1,,,,,0,,,65,0
168239,set_tempo,,,,,161,1,0,,545456,,,,,,,
168360,note_on,,,,,282,0,1,,,,,0,,,41,112
168360,note_on,,,,,121,0,0,,,,,0,,,65,112
168360,note_on,,,,,0,0,1,,,,,0,,,53,112
168473,note_on,,,,,0,0,1,,,,,0,,,53,0
168473,note_on,,,,,113,0,1,,,,,0,,,41,0
168473,note_on,,,,,113,0,0,,,,,0,,,65,0
168480,note_on,,,,,7,0,0,,,,,0,,,60,112
168480,note_on,,,,,0,0,0,,,,,0,,,65,112
168480,note_on,,,,,7,0,1,,,,,0,,,33,112
168480,note_on,,,,,0,0,1,,,,,0,,,45,112
168480,note_on,,,,,0,0,1,,,,,0,,,53,112
168707,note_on,,,,,227,0,1,,,,,0,,,53,0
168707,note_on,,,,,227,0,0,,,,,0,,,60,0
168707,note_on,,,,,0,0,0,,,,,0,,,65,0
168720,note_on,,,,,13,0,1,,,,,0,,,65,112
168720,note_on,,,,,0,0,0,,,,,0,,,77,112
168720,note_on,,,,,13,0,0,,,,,0,,,65,112
168798,note_on,,,,,0,0,0,,,,,0,,,77,0
168798,note_on,,,,,78,0,0,,,,,0,,,65,0
168935,note_on,,,,,215,0,1,,,,,0,,,33,0
168935,note_on,,,,,0,0,1,,,,,0,,,45,0
168947,note_on,,,,,12,0,1,,,,,0,,,65,0
168960,note_on,,,,,0,0,1,,,,,0,,,65,112
168960,note_on,,,,,162,0,0,,,,,0,,,77,112
168960,note_on,,,,,0,0,0,,,,,0,,,89,112
168960,note_on,,,,,13,0,1,,,,,0,,,53,112
169038,note_on,,,,,0,0,1,,,,,0,,,65,0
169038,note_on,,,,,78,0,1,,,,,0,,,53,0
169038,note_on,,,,,78,0,0,,,,,0,,,77,0
169038,note_on,,,,,0,0,0,,,,,0,,,89,0
169320,note_on,,,,,0,0,1,,,,,0,,,45,112
169320,note_on,,,,,0,0,1,,,,,0,,,53,112
169320,note_on,,,,,282,0,1,,,,,0,,,33,112
169320,note_on,,,,,0,0,0,,,,,0,,,65,112
169320,note_on,,,,,282,0,0,,,,,0,,,60,112
169433,note_on,,,,,0,0,1,,,,,0,,,45,0
169433,note_on,,,,,0,0,0,,,,,0,,,65,0
169433,note_on,,,,,113,0,1,,,,,0,,,33,0
169433,note_on,,,,,0,0,1,,,,,0,,,53,0
169433,note_on,,,,,113,0,0,,,,,0,,,60,0
169440,note_on,,,,,7,0,1,,,,,0,,,32,112
169440,note_on,,,,,0,0,1,,,,,0,,,44,112
169440,note_on,,,,,0,0,1,,,,,0,,,53,112
169440,note_on,,,,,7,0,0,,,,,0,,,59,112
169440,note_on,,,,,0,0,0,,,,,0,,,65,112
169667,note_on,,,,,227,0,1,,,,,0,,,53,0
169667,note_on,,,,,0,0,0,,,,,0,,,65,0
169667,note_on,,,,,227,0,0,,,,,0,,,59,0
169680,note_on,,,,,13,0,0,,,,,0,,,65,112
169680,note_on,,,,,13,0,1,,,,,0,,,65,112
169680,note_on,,,,,0,0,0,,,,,0,,,77,112
169758,note_on,,,,,78,0,0,,,,,0,,,65,0
169758,note_on,,,,,0,0,0,,,,,0,,,77,0
169895,note_on,,,,,0,0,1,,,,,0,,,44,0
169895,note_on,,,,,215,0,1,,,,,0,,,32,0
169907,note_on,,,,,12,0,1,,,,,0,,,65,0
169920,note_on,,,,,162,0,0,,,,,0,,,77,112
169920,note_on,,,,,0,0,1,,,,,0,,,65,112
169920,note_on,,,,,13,0,1,,,,,0,,,53,112
169920,note_on,,,,,0,0,0,,,,,0,,,89,112
169998,note_on,,,,,0,0,1,,,,,0,,,65,0
169998,note_on,,,,,0,0,0,,,,,0,,,89,0
169998,note_on,,,,,78,0,0,,,,,0,,,77,0
169998,note_on,,,,,78,0,1,,,,,0,,,53,0
170280,note_on,,,,,0,0,1,,,,,0,,,44,112
170280,note_on,,,,,0,0,0,,,,,0,,,65,112
170280,note_on,,,,,0,0,1,,,,,0,,,53,112
170280,note_on,,,,,282,0,0,,,,,0,,,59,112
170280,note_on,,,,,282,0,1,,,,,0,,,32,112
170393,note_on,,,,,0,0,1,,,,,0,,,53,0
170393,note_on,,,,,113,0,0,,,,,0,,,59,0
170393,note_on,,,,,113,0,1,,,,,0,,,32,0
170393,note_on,,,,,0,0,0,,,,,0,,,65,0
170393,note_on,,,,,0,0,1,,,,,0,,,44,0
170400,note_on,,,,,0,0,1,,,,,0,,,43,112
170400,note_on,,,,,0,0,0,,,,,0,,,58,112
170400,set_tempo,,,,,7,1,0,,333333,,,,,,,
170400,note_on,,,,,0,0,0,,,,,0,,,65,112
170400,note_on,,,,,7,0,1,,,,,0,,,31,112
170400,note_on,,,,,0,0,1,,,,,0,,,53,112
170855,note_on,,,,,0,0,1,,,,,0,,,43,0
170855,note_on,,,,,0,0,1,,,,,0,,,53,0
170855,note_on,,,,,455,0,1,,,,,0,,,31,0
170855,note_on,,,,,0,0,0,,,,,0,,,65,0
170855,note_on,,,,,455,0,0,,,,,0,,,58,0
170880,note_on,,,,,25,0,1,,,,,0,,,32,112
170880,note_on,,,,,0,0,0,,,,,0,,,77,112
170880,note_on,,,,,0,0,0,,,,,0,,,70,112
170880,note_on,,,,,0,0,1,,,,,0,,,44,112
170880,note_on,,,,,25,0,0,,,,,0,,,65,112
171335,note_on,,,,,0,0,0,,,,,0,,,70,0
171335,note_on,,,,,455,0,1,,,,,0,,,32,0
171335,note_on,,,,,0,0,0,,,,,0,,,77,0
171335,note_on,,,,,455,0,0,,,,,0,,,65,0
171335,note_on,,,,,0,0,1,,,,,0,,,44,0
171360,note_on,,,,,0,0,1,,,,,0,,,41,112
171360,note_on,,,,,0,0,0,,,,,0,,,89,112
171360,note_on,,,,,0,0,0,,,,,0,,,80,112
171360,note_on,,,,,25,0,1,,,,,0,,,29,112
171360,note_on,,,,,25,0,0,,,,,0,,,77,112
171815,note_on,,,,,0,0,1,,,,,0,,,41,0
171815,note_on,,,,,0,0,0,,,,,0,,,80,0
171815,note_on,,,,,455,0,1,,,,,0,,,29,0
171815,note_on,,,,,455,0,0,,,,,0,,,77,0
171815,note_on,,,,,0,0,0,,,,,0,,,89,0
171840,note_on,,,,,25,0,0,,,,,0,,,79,112
171840,note_on,,,,,0,0,0,,,,,0,,,91,112
171840,note_on,,,,,0,0,0,,,,,0,,,88,112
171840,note_on,,,,,0,0,0,,,,,0,,,84,112
171840,note_on,,,,,0,0,1,,,,,0,,,43,112
171840,note_on,,,,,0,0,1,,,,,0,,,40,112
171840,note_on,,,,,0,0,1,,,,,0,,,48,112
171840,note_on,,,,,25,0,1,,,,,0,,,36,112
172295,note_on,,,,,455,0,0,,,,,0,,,79,0
172295,note_on,,,,,0,0,1,,,,,0,,,40,0
172295,note_on,,,,,0,0,1,,,,,0,,,43,0
172295,note_on,,,,,0,0,1,,,,,0,,,48,0
172295,note_on,,,,,0,0,0,,,,,0,,,91,0
172295,note_on,,,,,455,0,1,,,,,0,,,36,0
172295,note_on,,,,,0,0,0,,,,,0,,,88,0
172295,note_on,,,,,0,0,0,,,,,0,,,84,0
172320,note_on,,,,,0,0,0,,,,,0,,,89,112
172320,note_on,,,,,0,0,0,,,,,0,,,84,112
172320,note_on,,,,,0,0,1,,,,,0,,,44,112
172320,note_on,,,,,25,0,0,,,,,0,,,80,112
172320,note_on,,,,,0,0,1,,,,,0,,,48,112
172320,note_on,,,,,0,0,0,,,,,0,,,92,112
172320,note_on,,,,,0,0,1,,,,,0,,,53,112
172320,note_on,,,,,25,0,1,,,,,0,,,41,112
172775,note_on,,,,,0,0,1,,,,,0,,,53,0
172775,note_on,,,,,0,0,1,,,,,0,,,48,0
172775,note_on,,,,,455,0,1,,,,,0,,,41,0
172775,note_on,,,,,0,0,1,,,,,0,,,44,0
172775,note_on,,,,,455,0,0,,,,,0,,,80,0
172775,note_on,,,,,0,0,0,,,,,0,,,89,0
172775,note_on,,,,,0,0,0,,,,,0,,,92,0
172775,note_on,,,,,0,0,0,,,,,0,,,84,0
172800,note_on,,,,,25,0,1,,,,,0,,,37,112
172800,set_tempo,,,,,25,1,0,,500000,,,,,,,
172800,note_on,,,,,0,0,1,,,,,0,,,49,112
172800,note_on,,,,,0,0,1,,,,,0,,,41,112
172800,note_on,,,,,0,0,1,,,,,0,,,46,112
172800,note_on,,,,,0,0,0,,,,,0,,,89,112
172800,note_on,,,,,0,0,0,,,,,0,,,85,112
172800,note_on,,,,,0,0,0,,,,,0,,,94,112
172800,note_on,,,,,0,0,0,,,,,0,,,97,112
173255,note_on,,,,,0,0,1,,,,,0,,,49,0
173255,note_on,,,,,0,0,1,,,,,0,,,46,0
173255,note_on,,,,,0,0,0,,,,,0,,,89,0
173255,note_on,,,,,0,0,1,,,,,0,,,41,0
173255,note_on,,,,,455,0,0,,,,,0,,,85,0
173255,note_on,,,,,455,0,1,,,,,0,,,37,0
173255,note_on,,,,,0,0,0,,,,,0,,,97,0
173255,note_on,,,,,0,0,0,,,,,0,,,94,0
173760,note_on,,,,,0,0,0,,,,,0,,,91,112
173760,note_on,,,,,0,0,0,,,,,0,,,88,112
173760,note_on,,,,,0,0,0,,,,,0,,,84,112
173760,note_on,,,,,0,0,1,,,,,0,,,40,112
173760,note_on,,,,,0,0,1,,,,,0,,,43,112
173760,note_on,,,,,0,0,1,,,,,0,,,48,112
173760,set_tempo,,,,,505,1,0,,333333,,,,,,,
173760,note_on,,,,,0,0,0,,,,,0,,,96,112
173760,note_on,,,,,505,0,1,,,,,0,,,36,112
174215,note_on,,,,,0,0,1,,,,,0,,,40,0
174215,note_on,,,,,0,0,1,,,,,0,,,43,0
174215,note_on,,,,,0,0,1,,,,,0,,,48,0
174215,note_on,,,,,0,0,0,,,,,0,,,96,0
174215,note_on,,,,,455,0,0,,,,,0,,,84,0
174215,note_on,,,,,0,0,0,,,,,0,,,91,0
174215,note_on,,,,,0,0,0,,,,,0,,,88,0
174215,note_on,,,,,455,0,1,,,,,0,,,36,0
174240,note_on,,,,,0,0,1,,,,,0,,,32,112
174240,note_on,,,,,0,0,1,,,,,0,,,36,112
174240,note_on,,,,,0,0,1,,,,,0,,,41,112
174240,note_on,,,,,0,0,0,,,,,0,,,96,112
174240,note_on,,,,,25,0,1,,,,,0,,,29,112
174240,note_on,,,,,25,0,0,,,,,0,,,89,112
174240,note_on,,,,,0,0,0,,,,,0,,,92,112
174240,note_on,,,,,0,0,0,,,,,0,,,101,112
174695,note_on,,,,,0,0,1,,,,,0,,,41,0
174695,note_on,,,,,0,0,0,,,,,0,,,92,0
174695,note_on,,,,,0,0,0,,,,,0,,,96,0
174695,note_on,,,,,0,0,1,,,,,0,,,36,0
174695,note_on,,,,,0,0,1,,,,,0,,,32,0
174695,note_on,,,,,0,0,0,,,,,0,,,101,0
174695,note_on,,,,,455,0,1,,,,,0,,,29,0
174695,note_on,,,,,455,0,0,,,,,0,,,89,0
175200,note_on,,,,,0,0,0,,,,,0,,,65,112
175200,note_on,,,,,0,0,0,,,,,0,,,72,112
175200,note_on,,,,,0,0,0,,,,,0,,,77,112
175200,note_on,,,,,505,0,1,,,,,0,,,56,112
175200,set_tempo,,,,,505,1,0,,1333333,,,,,,,
175200,note_on,,,,,0,0,1,,,,,0,,,60,112
176111,note_on,,,,,0,0,0,,,,,0,,,72,0
176111,note_on,,,,,0,0,0,,,,,0,,,77,0
176111,note_on,,,,,0,0,1,,,,,0,,,60,0
176111,note_on,,,,,911,0,0,,,,,0,,,65,0
176111,note_on,,,,,911,0,1,,,,,0,,,56,0
176112,end_of_track,,,,,1,1,1,,,,,,,,,
176159,set_tempo,,,,,48,1,0,,333333,,,,,,,
176160,end_of_track,,,,,1,1,0,,,,,,,,,
