tick,type,time,meta,track,numerator,denominator,clocks_per_click,notated_32nd_notes_per_beat,key,tempo,program,channel,control,value,note,velocity
0,track_name,0,1,0,,,,,,,,,,,,
0,track_name,0,1,0,,,,,,,,,,,,
0,copyright,0,1,0,,,,,,,,,,,,
0,text,0,1,0,,,,,,,,,,,,
0,text,0,1,0,,,,,,,,,,,,
0,text,0,1,0,,,,,,,,,,,,
0,text,0,1,0,,,,,,,,,,,,
0,text,0,1,0,,,,,,,,,,,,
0,text,0,1,0,,,,,,,,,,,,
0,text,0,1,0,,,,,,,,,,,,
0,text,0,1,0,,,,,,,,,,,,
0,text,0,1,0,,,,,,,,,,,,
0,text,0,1,0,,,,,,,,,,,,
0,text,0,1,0,,,,,,,,,,,,
0,time_signature,0,1,0,6,8,12,8,,,,,,,,
0,key_signature,0,1,0,,,,,B,,,,,,,
0,set_tempo,0,1,0,,,,,,750000,,,,,,
0,marker,0,1,0,,,,,,,,,,,,
0,program_change,0,0,0,,,,,,,0,0,,,,
0,control_change,0,0,0,,,,,,,,0,7,100,,
0,control_change,0,0,0,,,,,,,,0,10,64,,
0,control_change,0,0,0,,,,,,,,0,91,127,,
0,text,0,1,0,,,,,,,,,,,,
0,program_change,0,0,0,,,,,,,0,0,,,,
0,control_change,0,0,0,,,,,,,,0,7,100,,
0,control_change,0,0,0,,,,,,,,0,10,64,,
107,control_change,107,0,0,,,,,,,,0,64,127,,
239,control_change,132,0,0,,,,,,,,0,91,127,,
239,control_change,0,0,0,,,,,,,,0,91,127,,
240,note_on,1,0,0,,,,,,,,0,,,63,24
240,note_on,0,0,0,,,,,,,,0,,,75,28
420,note_on,180,0,0,,,,,,,,0,,,75,0
420,note_on,0,0,0,,,,,,,,0,,,63,0
480,note_on,60,0,0,,,,,,,,0,,,63,24
480,note_on,0,0,0,,,,,,,,0,,,75,28
660,note_on,180,0,0,,,,,,,,0,,,75,0
660,note_on,0,0,0,,,,,,,,0,,,63,0
720,note_on,60,0,0,,,,,,,,0,,,75,28
720,note_on,0,0,0,,,,,,,,0,,,63,24
900,note_on,180,0,0,,,,,,,,0,,,63,0
900,note_on,0,0,0,,,,,,,,0,,,75,0
960,set_tempo,60,1,0,,,,,,774194,,,,,,
960,note_on,0,0,0,,,,,,,,0,,,87,28
960,note_on,0,0,0,,,,,,,,0,,,99,34
1140,note_on,180,0,0,,,,,,,,0,,,99,0
1140,note_on,0,0,0,,,,,,,,0,,,87,0
1200,note_on,60,0,0,,,,,,,,0,,,87,28
1200,note_on,0,0,0,,,,,,,,0,,,99,34
1380,note_on,180,0,0,,,,,,,,0,,,99,0
1380,note_on,0,0,0,,,,,,,,0,,,87,0
1440,note_on,60,0,0,,,,,,,,0,,,99,34
1440,note_on,0,0,0,,,,,,,,0,,,87,28
1620,note_on,180,0,0,,,,,,,,0,,,87,0
1620,note_on,0,0,0,,,,,,,,0,,,99,0
1680,set_tempo,60,1,0,,,,,,731707,,,,,,
1680,note_on,0,0,0,,,,,,,,0,,,63,24
1680,note_on,0,0,0,,,,,,,,0,,,75,29
1860,note_on,180,0,0,,,,,,,,0,,,75,0
1860,note_on,0,0,0,,,,,,,,0,,,63,0
1920,note_on,60,0,0,,,,,,,,0,,,63,24
1920,note_on,0,0,0,,,,,,,,0,,,75,29
2100,note_on,180,0,0,,,,,,,,0,,,75,0
2100,note_on,0,0,0,,,,,,,,0,,,63,0
2160,note_on,60,0,0,,,,,,,,0,,,75,29
2160,note_on,0,0,0,,,,,,,,0,,,63,24
2340,note_on,180,0,0,,,,,,,,0,,,63,0
2340,note_on,0,0,0,,,,,,,,0,,,75,0
2400,note_on,60,0,0,,,,,,,,0,,,87,28
2400,note_on,0,0,0,,,,,,,,0,,,99,34
2580,note_on,180,0,0,,,,,,,,0,,,99,0
2580,note_on,0,0,0,,,,,,,,0,,,87,0
2640,note_on,60,0,0,,,,,,,,0,,,99,34
2640,note_on,0,0,0,,,,,,,,0,,,87,28
2820,note_on,180,0,0,,,,,,,,0,,,87,0
2820,note_on,0,0,0,,,,,,,,0,,,99,0
2880,note_on,60,0,0,,,,,,,,0,,,87,28
2880,note_on,0,0,0,,,,,,,,0,,,99,34
3060,note_on,180,0,0,,,,,,,,0,,,99,0
3060,note_on,0,0,0,,,,,,,,0,,,87,0
3120,note_on,60,0,0,,,,,,,,0,,,75,27
3120,note_on,0,0,0,,,,,,,,0,,,63,22
3300,note_on,180,0,0,,,,,,,,0,,,63,0
3300,note_on,0,0,0,,,,,,,,0,,,75,0
3360,set_tempo,60,1,0,,,,,,745342,,,,,,
3360,note_on,0,0,0,,,,,,,,0,,,99,33
3360,note_on,0,0,0,,,,,,,,0,,,87,27
3540,note_on,180,0,0,,,,,,,,0,,,87,0
3540,note_on,0,0,0,,,,,,,,0,,,99,0
3600,set_tempo,60,1,0,,,,,,774194,,,,,,
3600,note_on,0,0,0,,,,,,,,0,,,99,33
3600,note_on,0,0,0,,,,,,,,0,,,87,27
3780,note_on,180,0,0,,,,,,,,0,,,87,0
3780,note_on,0,0,0,,,,,,,,0,,,99,0
3840,set_tempo,60,1,0,,,,,,916031,,,,,,
3840,note_on,0,0,0,,,,,,,,0,,,75,25
3840,note_on,0,0,0,,,,,,,,0,,,63,21
4020,note_on,180,0,0,,,,,,,,0,,,63,0
4020,note_on,0,0,0,,,,,,,,0,,,75,0
4080,set_tempo,60,1,0,,,,,,1153846,,,,,,
4080,note_on,0,0,0,,,,,,,,0,,,99,27
4080,note_on,0,0,0,,,,,,,,0,,,87,22
4260,note_on,180,0,0,,,,,,,,0,,,87,0
4260,note_on,0,0,0,,,,,,,,0,,,99,0
4310,set_tempo,50,1,0,,,,,,2264151,,,,,,
4320,note_on,10,0,0,,,,,,,,0,,,99,25
4320,note_on,0,0,0,,,,,,,,0,,,87,21
4500,note_on,180,0,0,,,,,,,,0,,,87,0
4500,note_on,0,0,0,,,,,,,,0,,,99,0
4557,control_change,57,0,0,,,,,,,,0,64,0,,
4800,set_tempo,243,1,0,,,,,,618557,,,,,,
4800,note_on,0,0,0,,,,,,,,0,,,75,43
4920,note_on,120,0,0,,,,,,,,0,,,87,40
4980,note_on,60,0,0,,,,,,,,0,,,87,0
4980,note_on,0,0,0,,,,,,,,0,,,75,0
5040,set_tempo,60,1,0,,,,,,603015,,,,,,
5040,note_on,0,0,0,,,,,,,,0,,,87,50
5160,note_on,120,0,0,,,,,,,,0,,,99,40
5220,note_on,60,0,0,,,,,,,,0,,,99,0
5220,note_on,0,0,0,,,,,,,,0,,,87,0
5280,note_on,60,0,0,,,,,,,,0,,,87,46
5400,note_on,120,0,0,,,,,,,,0,,,99,39
5460,note_on,60,0,0,,,,,,,,0,,,99,0
5460,note_on,0,0,0,,,,,,,,0,,,87,0
5520,note_on,60,0,0,,,,,,,,0,,,85,46
5637,control_change,117,0,0,,,,,,,,0,64,127,,
5640,note_on,3,0,0,,,,,,,,0,,,99,39
5640,note_on,0,0,0,,,,,,,,0,,,56,37
5700,note_on,60,0,0,,,,,,,,0,,,99,0
5700,note_on,0,0,0,,,,,,,,0,,,85,0
5700,note_on,0,0,0,,,,,,,,0,,,63,39
5760,set_tempo,60,1,0,,,,,,558140,,,,,,
5760,note_on,0,0,0,,,,,,,,0,,,83,46
5760,note_on,0,0,0,,,,,,,,0,,,71,40
5824,control_change,64,0,0,,,,,,,,0,64,0,,
5880,set_tempo,56,1,0,,,,,,576923,,,,,,
5880,note_on,0,0,0,,,,,,,,0,,,99,40
5940,note_on,60,0,0,,,,,,,,0,,,99,0
5940,note_on,0,0,0,,,,,,,,0,,,83,0
5940,note_on,0,0,0,,,,,,,,0,,,56,0
5940,note_on,0,0,0,,,,,,,,0,,,63,0
5940,note_on,0,0,0,,,,,,,,0,,,71,0
6000,set_tempo,60,1,0,,,,,,600000,,,,,,
6000,note_on,0,0,0,,,,,,,,0,,,83,45
6120,set_tempo,120,1,0,,,,,,603015,,,,,,
6120,note_on,0,0,0,,,,,,,,0,,,99,40
6180,note_on,60,0,0,,,,,,,,0,,,99,0
6180,note_on,0,0,0,,,,,,,,0,,,83,0
6240,set_tempo,60,1,0,,,,,,615385,,,,,,
6240,note_on,0,0,0,,,,,,,,0,,,82,43
6360,set_tempo,120,1,0,,,,,,566038,,,,,,
6360,note_on,0,0,0,,,,,,,,0,,,99,40
6360,note_on,0,0,0,,,,,,,,0,,,59,35
6371,control_change,11,0,0,,,,,,,,0,64,127,,
6420,note_on,49,0,0,,,,,,,,0,,,99,0
6420,note_on,0,0,0,,,,,,,,0,,,82,0
6420,note_on,0,0,0,,,,,,,,0,,,68,36
6480,set_tempo,60,1,0,,,,,,579710,,,,,,
6480,note_on,0,0,0,,,,,,,,0,,,80,46
6480,note_on,0,0,0,,,,,,,,0,,,75,37
6586,control_change,106,0,0,,,,,,,,0,64,0,,
6600,note_on,14,0,0,,,,,,,,0,,,99,40
6660,note_on,60,0,0,,,,,,,,0,,,99,0
6660,note_on,0,0,0,,,,,,,,0,,,80,0
6660,note_on,0,0,0,,,,,,,,0,,,59,0
6660,note_on,0,0,0,,,,,,,,0,,,68,0
6660,note_on,0,0,0,,,,,,,,0,,,75,0
6720,set_tempo,60,1,0,,,,,,603015,,,,,,
6720,note_on,0,0,0,,,,,,,,0,,,79,45
6840,note_on,120,0,0,,,,,,,,0,,,99,37
6900,note_on,60,0,0,,,,,,,,0,,,99,0
6900,note_on,0,0,0,,,,,,,,0,,,79,0
6960,note_on,60,0,0,,,,,,,,0,,,80,45
7080,note_on,120,0,0,,,,,,,,0,,,99,40
7080,note_on,0,0,0,,,,,,,,0,,,63,36
7087,control_change,7,0,0,,,,,,,,0,64,127,,
7140,note_on,53,0,0,,,,,,,,0,,,99,0
7140,note_on,0,0,0,,,,,,,,0,,,80,0
7140,note_on,0,0,0,,,,,,,,0,,,70,39
7200,set_tempo,60,1,0,,,,,,571429,,,,,,
7200,note_on,0,0,0,,,,,,,,0,,,82,46
7200,note_on,0,0,0,,,,,,,,0,,,79,41
7320,set_tempo,120,1,0,,,,,,603015,,,,,,
7320,note_on,0,0,0,,,,,,,,0,,,99,40
7331,control_change,11,0,0,,,,,,,,0,64,0,,
7380,note_on,49,0,0,,,,,,,,0,,,99,0
7380,note_on,0,0,0,,,,,,,,0,,,82,0
7380,note_on,0,0,0,,,,,,,,0,,,63,0
7380,note_on,0,0,0,,,,,,,,0,,,70,0
7380,note_on,0,0,0,,,,,,,,0,,,79,0
7440,note_on,60,0,0,,,,,,,,0,,,75,43
7560,note_on,120,0,0,,,,,,,,0,,,99,37
7620,note_on,60,0,0,,,,,,,,0,,,99,0
7620,note_on,0,0,0,,,,,,,,0,,,75,0
7680,set_tempo,60,1,0,,,,,,618557,,,,,,
7680,note_on,0,0,0,,,,,,,,0,,,75,43
7800,note_on,120,0,0,,,,,,,,0,,,87,37
7860,note_on,60,0,0,,,,,,,,0,,,87,0
7860,note_on,0,0,0,,,,,,,,0,,,75,0
7860,note_on,0,0,0,,,,,,,,0,,,67,36
7875,control_change,15,0,0,,,,,,,,0,64,127,,
7920,set_tempo,45,1,0,,,,,,571429,,,,,,
7920,note_on,0,0,0,,,,,,,,0,,,76,50
7920,note_on,0,0,0,,,,,,,,0,,,70,39
8040,note_on,120,0,0,,,,,,,,0,,,87,43
8083,control_change,43,0,0,,,,,,,,0,64,0,,
8100,note_on,17,0,0,,,,,,,,0,,,87,0
8100,note_on,0,0,0,,,,,,,,0,,,67,0
8100,note_on,0,0,0,,,,,,,,0,,,76,0
8100,note_on,0,0,0,,,,,,,,0,,,70,0
8160,set_tempo,60,1,0,,,,,,603015,,,,,,
8160,note_on,0,0,0,,,,,,,,0,,,75,46
8280,note_on,120,0,0,,,,,,,,0,,,87,40
8340,note_on,60,0,0,,,,,,,,0,,,87,0
8340,note_on,0,0,0,,,,,,,,0,,,75,0
8400,note_on,60,0,0,,,,,,,,0,,,73,46
8520,note_on,120,0,0,,,,,,,,0,,,87,39
8580,note_on,60,0,0,,,,,,,,0,,,87,0
8580,note_on,0,0,0,,,,,,,,0,,,73,0
8640,set_tempo,60,1,0,,,,,,574163,,,,,,
8640,note_on,0,0,0,,,,,,,,0,,,71,46
8640,note_on,0,0,0,,,,,,,,0,,,68,43
8760,note_on,120,0,0,,,,,,,,0,,,87,40
8820,note_on,60,0,0,,,,,,,,0,,,87,0
8820,note_on,0,0,0,,,,,,,,0,,,68,0
8820,note_on,0,0,0,,,,,,,,0,,,71,0
8880,set_tempo,60,1,0,,,,,,594059,,,,,,
8880,note_on,0,0,0,,,,,,,,0,,,71,45
9000,set_tempo,120,1,0,,,,,,606061,,,,,,
9000,note_on,0,0,0,,,,,,,,0,,,87,40
9060,note_on,60,0,0,,,,,,,,0,,,87,0
9060,note_on,0,0,0,,,,,,,,0,,,71,0
9120,set_tempo,60,1,0,,,,,,615385,,,,,,
9120,note_on,0,0,0,,,,,,,,0,,,70,43
9240,note_on,120,0,0,,,,,,,,0,,,87,37
9240,note_on,0,0,0,,,,,,,,0,,,59,36
9257,control_change,17,0,0,,,,,,,,0,64,127,,
9300,note_on,43,0,0,,,,,,,,0,,,87,0
9300,note_on,0,0,0,,,,,,,,0,,,70,0
9300,note_on,0,0,0,,,,,,,,0,,,62,36
9360,set_tempo,60,1,0,,,,,,603015,,,,,,
9360,note_on,0,0,0,,,,,,,,0,,,68,46
9360,note_on,0,0,0,,,,,,,,0,,,65,39
9370,set_tempo,10,1,0,,,,,,606061,,,,,,
9440,control_change,70,0,0,,,,,,,,0,64,0,,
9480,note_on,40,0,0,,,,,,,,0,,,87,40
9520,set_tempo,40,1,0,,,,,,609137,,,,,,
9540,note_on,20,0,0,,,,,,,,0,,,87,0
9540,note_on,0,0,0,,,,,,,,0,,,68,0
9540,note_on,0,0,0,,,,,,,,0,,,59,0
9540,note_on,0,0,0,,,,,,,,0,,,62,0
9540,note_on,0,0,0,,,,,,,,0,,,65,0
9570,set_tempo,30,1,0,,,,,,606061,,,,,,
9600,note_on,30,0,0,,,,,,,,0,,,67,45
9620,set_tempo,20,1,0,,,,,,609137,,,,,,
9671,set_tempo,51,1,0,,,,,,612245,,,,,,
9720,note_on,49,0,0,,,,,,,,0,,,87,37
9721,set_tempo,1,1,0,,,,,,615385,,,,,,
9747,set_tempo,26,1,0,,,,,,618557,,,,,,
9780,note_on,33,0,0,,,,,,,,0,,,87,0
9780,note_on,0,0,0,,,,,,,,0,,,67,0
9797,set_tempo,17,1,0,,,,,,621762,,,,,,
9840,note_on,43,0,0,,,,,,,,0,,,68,45
9848,set_tempo,8,1,0,,,,,,625000,,,,,,
9898,set_tempo,50,1,0,,,,,,628272,,,,,,
9923,set_tempo,25,1,0,,,,,,631579,,,,,,
9960,note_on,37,0,0,,,,,,,,0,,,87,37
9974,set_tempo,14,1,0,,,,,,634921,,,,,,
10020,note_on,46,0,0,,,,,,,,0,,,87,0
10020,note_on,0,0,0,,,,,,,,0,,,68,0
10020,note_on,0,0,0,,,,,,,,0,,,63,33
10043,control_change,23,0,0,,,,,,,,0,64,127,,
10080,set_tempo,37,1,0,,,,,,655738,,,,,,
10080,note_on,0,0,0,,,,,,,,0,,,70,46
10080,note_on,0,0,0,,,,,,,,0,,,67,35
10172,control_change,92,0,0,,,,,,,,0,64,0,,
10200,note_on,28,0,0,,,,,,,,0,,,87,40
10260,note_on,60,0,0,,,,,,,,0,,,87,0
10260,note_on,0,0,0,,,,,,,,0,,,63,0
10260,note_on,0,0,0,,,,,,,,0,,,70,0
10260,note_on,0,0,0,,,,,,,,0,,,67,0
10320,set_tempo,60,1,0,,,,,,681818,,,,,,
10320,note_on,0,0,0,,,,,,,,0,,,63,43
10440,note_on,120,0,0,,,,,,,,0,,,75,37
10500,note_on,60,0,0,,,,,,,,0,,,75,0
10500,note_on,0,0,0,,,,,,,,0,,,63,0
10560,set_tempo,60,1,0,,,,,,618557,,,,,,
10560,note_on,0,0,0,,,,,,,,0,,,75,43
10680,note_on,120,0,0,,,,,,,,0,,,87,37
10740,note_on,60,0,0,,,,,,,,0,,,87,0
10740,note_on,0,0,0,,,,,,,,0,,,75,0
10800,set_tempo,60,1,0,,,,,,615385,,,,,,
10800,note_on,0,0,0,,,,,,,,0,,,87,50
10920,set_tempo,120,1,0,,,,,,612245,,,,,,
10920,note_on,0,0,0,,,,,,,,0,,,99,43
10980,note_on,60,0,0,,,,,,,,0,,,99,0
10980,note_on,0,0,0,,,,,,,,0,,,87,0
11040,set_tempo,60,1,0,,,,,,609137,,,,,,
11040,note_on,0,0,0,,,,,,,,0,,,87,46
11160,set_tempo,120,1,0,,,,,,606061,,,,,,
11160,note_on,0,0,0,,,,,,,,0,,,99,41
11220,note_on,60,0,0,,,,,,,,0,,,99,0
11220,note_on,0,0,0,,,,,,,,0,,,87,0
11280,set_tempo,60,1,0,,,,,,603015,,,,,,
11280,note_on,0,0,0,,,,,,,,0,,,85,46
11400,note_on,120,0,0,,,,,,,,0,,,99,40
11400,note_on,0,0,0,,,,,,,,0,,,56,36
11436,control_change,36,0,0,,,,,,,,0,64,127,,
11460,note_on,24,0,0,,,,,,,,0,,,99,0
11460,note_on,0,0,0,,,,,,,,0,,,85,0
11460,note_on,0,0,0,,,,,,,,0,,,63,37
11520,set_tempo,60,1,0,,,,,,566038,,,,,,
11520,note_on,0,0,0,,,,,,,,0,,,83,46
11520,note_on,0,0,0,,,,,,,,0,,,71,40
11640,note_on,120,0,0,,,,,,,,0,,,99,41
11693,control_change,53,0,0,,,,,,,,0,64,0,,
11700,note_on,7,0,0,,,,,,,,0,,,99,0
11700,note_on,0,0,0,,,,,,,,0,,,83,0
11700,note_on,0,0,0,,,,,,,,0,,,56,0
11700,note_on,0,0,0,,,,,,,,0,,,63,0
11700,note_on,0,0,0,,,,,,,,0,,,71,0
11760,set_tempo,60,1,0,,,,,,600000,,,,,,
11760,note_on,0,0,0,,,,,,,,0,,,83,45
11880,note_on,120,0,0,,,,,,,,0,,,99,39
11940,note_on,60,0,0,,,,,,,,0,,,99,0
11940,note_on,0,0,0,,,,,,,,0,,,83,0
12000,set_tempo,60,1,0,,,,,,615385,,,,,,
12000,note_on,0,0,0,,,,,,,,0,,,82,43
12120,set_tempo,120,1,0,,,,,,574163,,,,,,
12120,note_on,0,0,0,,,,,,,,0,,,99,39
12120,note_on,0,0,0,,,,,,,,0,,,59,36
12134,control_change,14,0,0,,,,,,,,0,64,127,,
12180,note_on,46,0,0,,,,,,,,0,,,99,0
12180,note_on,0,0,0,,,,,,,,0,,,82,0
12180,note_on,0,0,0,,,,,,,,0,,,68,37
12240,set_tempo,60,1,0,,,,,,606061,,,,,,
12240,note_on,0,0,0,,,,,,,,0,,,80,46
12240,note_on,0,0,0,,,,,,,,0,,,75,41
12360,note_on,120,0,0,,,,,,,,0,,,99,40
12420,note_on,60,0,0,,,,,,,,0,,,99,0
12420,note_on,0,0,0,,,,,,,,0,,,80,0
12420,note_on,0,0,0,,,,,,,,0,,,59,0
12420,note_on,0,0,0,,,,,,,,0,,,68,0
12420,note_on,0,0,0,,,,,,,,0,,,75,0
12424,control_change,4,0,0,,,,,,,,0,64,0,,
12480,note_on,56,0,0,,,,,,,,0,,,79,45
12600,note_on,120,0,0,,,,,,,,0,,,99,39
12660,note_on,60,0,0,,,,,,,,0,,,99,0
12660,note_on,0,0,0,,,,,,,,0,,,79,0
12720,note_on,60,0,0,,,,,,,,0,,,80,45
12840,note_on,120,0,0,,,,,,,,0,,,99,40
12840,note_on,0,0,0,,,,,,,,0,,,63,36
12858,control_change,18,0,0,,,,,,,,0,64,127,,
12900,note_on,42,0,0,,,,,,,,0,,,99,0
12900,note_on,0,0,0,,,,,,,,0,,,80,0
12900,note_on,0,0,0,,,,,,,,0,,,70,39
12960,set_tempo,60,1,0,,,,,,568720,,,,,,
12960,note_on,0,0,0,,,,,,,,0,,,82,46
12960,note_on,0,0,0,,,,,,,,0,,,79,41
13080,set_tempo,120,1,0,,,,,,606061,,,,,,
13080,note_on,0,0,0,,,,,,,,0,,,99,40
13134,control_change,54,0,0,,,,,,,,0,64,0,,
13140,note_on,6,0,0,,,,,,,,0,,,99,0
13140,note_on,0,0,0,,,,,,,,0,,,82,0
13140,note_on,0,0,0,,,,,,,,0,,,63,0
13140,note_on,0,0,0,,,,,,,,0,,,70,0
13140,note_on,0,0,0,,,,,,,,0,,,79,0
13200,note_on,60,0,0,,,,,,,,0,,,75,43
13320,note_on,120,0,0,,,,,,,,0,,,99,39
13380,note_on,60,0,0,,,,,,,,0,,,99,0
13380,note_on,0,0,0,,,,,,,,0,,,75,0
13440,set_tempo,60,1,0,,,,,,628272,,,,,,
13440,note_on,0,0,0,,,,,,,,0,,,75,43
13560,note_on,120,0,0,,,,,,,,0,,,87,40
13611,control_change,51,0,0,,,,,,,,0,64,127,,
13620,note_on,9,0,0,,,,,,,,0,,,87,0
13620,note_on,0,0,0,,,,,,,,0,,,75,0
13620,note_on,0,0,0,,,,,,,,0,,,67,37
13680,set_tempo,60,1,0,,,,,,609137,,,,,,
13680,note_on,0,0,0,,,,,,,,0,,,76,50
13680,note_on,0,0,0,,,,,,,,0,,,70,39
13800,note_on,120,0,0,,,,,,,,0,,,87,45
13851,control_change,51,0,0,,,,,,,,0,64,0,,
13860,note_on,9,0,0,,,,,,,,0,,,87,0
13860,note_on,0,0,0,,,,,,,,0,,,67,0
13860,note_on,0,0,0,,,,,,,,0,,,76,0
13860,note_on,0,0,0,,,,,,,,0,,,70,0
13920,note_on,60,0,0,,,,,,,,0,,,75,46
14040,note_on,120,0,0,,,,,,,,0,,,87,43
14100,note_on,60,0,0,,,,,,,,0,,,87,0
14100,note_on,0,0,0,,,,,,,,0,,,75,0
14160,note_on,60,0,0,,,,,,,,0,,,73,46
14160,note_on,0,0,0,,,,,,,,0,,,75,39
14280,set_tempo,120,1,0,,,,,,628272,,,,,,
14280,note_on,0,0,0,,,,,,,,0,,,87,40
14340,note_on,60,0,0,,,,,,,,0,,,87,0
14340,note_on,0,0,0,,,,,,,,0,,,75,0
14340,note_on,0,0,0,,,,,,,,0,,,73,0
14400,set_tempo,60,1,0,,,,,,566038,,,,,,
14400,note_on,0,0,0,,,,,,,,0,,,75,46
14400,note_on,0,0,0,,,,,,,,0,,,68,35
14400,note_on,0,0,0,,,,,,,,0,,,71,39
14440,control_change,40,0,0,,,,,,,,0,64,127,,
14490,note_on,50,0,0,,,,,,,,0,,,75,0
14520,note_on,30,0,0,,,,,,,,0,,,87,39
14549,control_change,29,0,0,,,,,,,,0,64,0,,
14580,note_on,31,0,0,,,,,,,,0,,,87,0
14580,note_on,0,0,0,,,,,,,,0,,,71,0
14580,note_on,0,0,0,,,,,,,,0,,,68,0
14640,note_on,60,0,0,,,,,,,,0,,,80,39
14700,note_on,60,0,0,,,,,,,,0,,,80,0
14760,set_tempo,60,1,0,,,,,,588235,,,,,,
14760,note_on,0,0,0,,,,,,,,0,,,83,39
14820,note_on,60,0,0,,,,,,,,0,,,83,0
14880,note_on,60,0,0,,,,,,,,0,,,87,46
14880,control_change,0,0,0,,,,,,,,0,64,127,,
14970,note_on,90,0,0,,,,,,,,0,,,87,0
15000,set_tempo,30,1,0,,,,,,621762,,,,,,
15000,note_on,0,0,0,,,,,,,,0,,,99,41
15000,control_change,0,0,0,,,,,,,,0,64,0,,
15060,note_on,60,0,0,,,,,,,,0,,,99,0
15120,set_tempo,60,1,0,,,,,,609137,,,,,,
15120,note_on,0,0,0,,,,,,,,0,,,75,46
15120,note_on,0,0,0,,,,,,,,0,,,63,30
15120,note_on,0,0,0,,,,,,,,0,,,73,34
15120,note_on,0,0,0,,,,,,,,0,,,67,30
15210,note_on,90,0,0,,,,,,,,0,,,75,0
15240,set_tempo,30,1,0,,,,,,568720,,,,,,
15240,note_on,0,0,0,,,,,,,,0,,,87,39
15300,note_on,60,0,0,,,,,,,,0,,,87,0
15300,note_on,0,0,0,,,,,,,,0,,,67,0
15300,note_on,0,0,0,,,,,,,,0,,,73,0
15300,note_on,0,0,0,,,,,,,,0,,,63,0
15360,set_tempo,60,1,0,,,,,,576923,,,,,,
15360,note_on,0,0,0,,,,,,,,0,,,79,39
15420,note_on,60,0,0,,,,,,,,0,,,79,0
15480,set_tempo,60,1,0,,,,,,597015,,,,,,
15480,note_on,0,0,0,,,,,,,,0,,,82,39
15540,note_on,60,0,0,,,,,,,,0,,,82,0
15600,set_tempo,60,1,0,,,,,,609137,,,,,,
15600,note_on,0,0,0,,,,,,,,0,,,87,46
15652,control_change,52,0,0,,,,,,,,0,64,127,,
15690,note_on,38,0,0,,,,,,,,0,,,87,0
15720,note_on,30,0,0,,,,,,,,0,,,99,45
15780,note_on,60,0,0,,,,,,,,0,,,99,0
15780,control_change,0,0,0,,,,,,,,0,64,0,,
15835,set_tempo,55,1,0,,,,,,615385,,,,,,
15840,note_on,5,0,0,,,,,,,,0,,,56,40
15886,control_change,46,0,0,,,,,,,,0,64,127,,
15911,set_tempo,25,1,0,,,,,,618557,,,,,,
15930,note_on,19,0,0,,,,,,,,0,,,56,0
15960,note_on,30,0,0,,,,,,,,0,,,63,35
15987,set_tempo,27,1,0,,,,,,621762,,,,,,
16050,note_on,63,0,0,,,,,,,,0,,,63,0
16062,set_tempo,12,1,0,,,,,,625000,,,,,,
16080,note_on,18,0,0,,,,,,,,0,,,71,35
16113,set_tempo,33,1,0,,,,,,628272,,,,,,
16170,note_on,57,0,0,,,,,,,,0,,,71,0
16189,set_tempo,19,1,0,,,,,,631579,,,,,,
16200,note_on,11,0,0,,,,,,,,0,,,80,35
16265,set_tempo,65,1,0,,,,,,634921,,,,,,
16290,note_on,25,0,0,,,,,,,,0,,,80,0
16320,note_on,30,0,0,,,,,,,,0,,,75,41
16328,control_change,8,0,0,,,,,,,,0,64,0,,
16340,set_tempo,12,1,0,,,,,,638298,,,,,,
16391,set_tempo,51,1,0,,,,,,641711,,,,,,
16440,note_on,49,0,0,,,,,,,,0,,,87,37
16441,set_tempo,1,1,0,,,,,,634921,,,,,,
16500,note_on,59,0,0,,,,,,,,0,,,87,0
16500,note_on,0,0,0,,,,,,,,0,,,75,0
16560,set_tempo,60,1,0,,,,,,615385,,,,,,
16560,note_on,0,0,0,,,,,,,,0,,,99,50
16680,set_tempo,120,1,0,,,,,,612245,,,,,,
16680,note_on,0,0,0,,,,,,,,0,,,87,40
16740,note_on,60,0,0,,,,,,,,0,,,87,0
16740,note_on,0,0,0,,,,,,,,0,,,99,0
16800,set_tempo,60,1,0,,,,,,609137,,,,,,
16800,note_on,0,0,0,,,,,,,,0,,,99,46
16920,set_tempo,120,1,0,,,,,,606061,,,,,,
16920,note_on,0,0,0,,,,,,,,0,,,87,39
16980,note_on,60,0,0,,,,,,,,0,,,87,0
16980,note_on,0,0,0,,,,,,,,0,,,99,0
17040,set_tempo,60,1,0,,,,,,603015,,,,,,
17040,note_on,0,0,0,,,,,,,,0,,,99,46
17160,note_on,120,0,0,,,,,,,,0,,,85,39
17210,note_on,50,0,0,,,,,,,,0,,,85,0
17220,note_on,10,0,0,,,,,,,,0,,,99,0
17220,note_on,0,0,0,,,,,,,,0,,,85,39
17280,set_tempo,60,1,0,,,,,,552995,,,,,,
17280,note_on,0,0,0,,,,,,,,0,,,85,0
17280,note_on,0,0,0,,,,,,,,0,,,83,54
17280,note_on,0,0,0,,,,,,,,0,,,44,39
17319,control_change,39,0,0,,,,,,,,0,64,127,,
17400,set_tempo,81,1,0,,,,,,571429,,,,,,
17400,note_on,0,0,0,,,,,,,,0,,,99,43
17460,note_on,60,0,0,,,,,,,,0,,,99,0
17460,note_on,0,0,0,,,,,,,,0,,,44,0
17460,note_on,0,0,0,,,,,,,,0,,,83,0
17520,set_tempo,60,1,0,,,,,,594059,,,,,,
17520,note_on,0,0,0,,,,,,,,0,,,83,45
17520,note_on,0,0,0,,,,,,,,0,,,59,37
17520,note_on,0,0,0,,,,,,,,0,,,51,34
17640,note_on,120,0,0,,,,,,,,0,,,99,40
17700,note_on,60,0,0,,,,,,,,0,,,99,0
17700,note_on,0,0,0,,,,,,,,0,,,83,0
17700,note_on,0,0,0,,,,,,,,0,,,59,0
17700,note_on,0,0,0,,,,,,,,0,,,51,0
17711,control_change,11,0,0,,,,,,,,0,64,0,,
17760,set_tempo,49,1,0,,,,,,615385,,,,,,
17760,note_on,0,0,0,,,,,,,,0,,,82,43
17880,note_on,120,0,0,,,,,,,,0,,,99,40
17940,note_on,60,0,0,,,,,,,,0,,,99,0
17940,note_on,0,0,0,,,,,,,,0,,,82,0
17940,note_on,0,0,0,,,,,,,,0,,,82,49
18000,set_tempo,60,1,0,,,,,,558140,,,,,,
18000,note_on,0,0,0,,,,,,,,0,,,82,0
18000,note_on,0,0,0,,,,,,,,0,,,80,49
18000,note_on,0,0,0,,,,,,,,0,,,47,39
18050,control_change,50,0,0,,,,,,,,0,64,127,,
18120,set_tempo,70,1,0,,,,,,574163,,,,,,
18120,note_on,0,0,0,,,,,,,,0,,,99,41
18180,note_on,60,0,0,,,,,,,,0,,,99,0
18180,note_on,0,0,0,,,,,,,,0,,,47,0
18180,note_on,0,0,0,,,,,,,,0,,,80,0
18240,set_tempo,60,1,0,,,,,,606061,,,,,,
18240,note_on,0,0,0,,,,,,,,0,,,79,45
18240,note_on,0,0,0,,,,,,,,0,,,56,34
18240,note_on,0,0,0,,,,,,,,0,,,63,37
18360,note_on,120,0,0,,,,,,,,0,,,99,40
18406,control_change,46,0,0,,,,,,,,0,64,0,,
18420,note_on,14,0,0,,,,,,,,0,,,99,0
18420,note_on,0,0,0,,,,,,,,0,,,79,0
18420,note_on,0,0,0,,,,,,,,0,,,56,0
18420,note_on,0,0,0,,,,,,,,0,,,63,0
18480,note_on,60,0,0,,,,,,,,0,,,80,45
18600,note_on,120,0,0,,,,,,,,0,,,99,40
18660,note_on,60,0,0,,,,,,,,0,,,99,0
18660,note_on,0,0,0,,,,,,,,0,,,80,0
18660,note_on,0,0,0,,,,,,,,0,,,79,47
18690,note_on,30,0,0,,,,,,,,0,,,79,0
18690,note_on,0,0,0,,,,,,,,0,,,80,49
18720,set_tempo,30,1,0,,,,,,560748,,,,,,
18720,note_on,0,0,0,,,,,,,,0,,,80,0
18720,note_on,0,0,0,,,,,,,,0,,,82,50
18720,note_on,0,0,0,,,,,,,,0,,,51,39
18759,control_change,39,0,0,,,,,,,,0,64,127,,
18840,set_tempo,81,1,0,,,,,,603015,,,,,,
18840,note_on,0,0,0,,,,,,,,0,,,99,39
18900,note_on,60,0,0,,,,,,,,0,,,99,0
18900,note_on,0,0,0,,,,,,,,0,,,51,0
18900,note_on,0,0,0,,,,,,,,0,,,82,0
18960,note_on,60,0,0,,,,,,,,0,,,75,43
18960,note_on,0,0,0,,,,,,,,0,,,58,34
18960,note_on,0,0,0,,,,,,,,0,,,67,37
19080,note_on,120,0,0,,,,,,,,0,,,99,39
19136,control_change,56,0,0,,,,,,,,0,64,0,,
19140,note_on,4,0,0,,,,,,,,0,,,99,0
19140,note_on,0,0,0,,,,,,,,0,,,75,0
19140,note_on,0,0,0,,,,,,,,0,,,58,0
19140,note_on,0,0,0,,,,,,,,0,,,67,0
19200,set_tempo,60,1,0,,,,,,618557,,,,,,
19200,note_on,0,0,0,,,,,,,,0,,,75,43
19320,note_on,120,0,0,,,,,,,,0,,,87,40
19380,note_on,60,0,0,,,,,,,,0,,,87,0
19380,note_on,0,0,0,,,,,,,,0,,,75,0
19380,note_on,0,0,0,,,,,,,,0,,,78,46
19440,set_tempo,60,1,0,,,,,,568720,,,,,,
19440,note_on,0,0,0,,,,,,,,0,,,78,0
19440,note_on,0,0,0,,,,,,,,0,,,76,47
19440,note_on,0,0,0,,,,,,,,0,,,67,33
19440,note_on,0,0,0,,,,,,,,0,,,70,36
19483,control_change,43,0,0,,,,,,,,0,64,127,,
19560,set_tempo,77,1,0,,,,,,588235,,,,,,
19560,note_on,0,0,0,,,,,,,,0,,,87,41
19620,note_on,60,0,0,,,,,,,,0,,,87,0
19620,note_on,0,0,0,,,,,,,,0,,,76,0
19620,note_on,0,0,0,,,,,,,,0,,,67,0
19620,note_on,0,0,0,,,,,,,,0,,,70,0
19680,set_tempo,60,1,0,,,,,,603015,,,,,,
19680,note_on,0,0,0,,,,,,,,0,,,75,46
19680,note_on,0,0,0,,,,,,,,0,,,70,36
19680,note_on,0,0,0,,,,,,,,0,,,67,33
19800,note_on,120,0,0,,,,,,,,0,,,87,40
19860,note_on,60,0,0,,,,,,,,0,,,87,0
19860,note_on,0,0,0,,,,,,,,0,,,75,0
19860,note_on,0,0,0,,,,,,,,0,,,70,0
19860,note_on,0,0,0,,,,,,,,0,,,67,0
19899,control_change,39,0,0,,,,,,,,0,64,0,,
19920,note_on,21,0,0,,,,,,,,0,,,73,46
20040,note_on,120,0,0,,,,,,,,0,,,87,39
20100,note_on,60,0,0,,,,,,,,0,,,87,0
20100,note_on,0,0,0,,,,,,,,0,,,73,0
20100,note_on,0,0,0,,,,,,,,0,,,73,50
20160,set_tempo,60,1,0,,,,,,574163,,,,,,
20160,note_on,0,0,0,,,,,,,,0,,,73,0
20160,note_on,0,0,0,,,,,,,,0,,,71,50
20160,note_on,0,0,0,,,,,,,,0,,,68,40
20199,control_change,39,0,0,,,,,,,,0,64,127,,
20280,set_tempo,81,1,0,,,,,,600000,,,,,,
20280,note_on,0,0,0,,,,,,,,0,,,87,40
20340,note_on,60,0,0,,,,,,,,0,,,87,0
20340,note_on,0,0,0,,,,,,,,0,,,68,0
20340,note_on,0,0,0,,,,,,,,0,,,71,0
20400,note_on,60,0,0,,,,,,,,0,,,71,45
20400,note_on,0,0,0,,,,,,,,0,,,68,40
20520,note_on,120,0,0,,,,,,,,0,,,87,40
20580,note_on,60,0,0,,,,,,,,0,,,87,0
20580,note_on,0,0,0,,,,,,,,0,,,68,0
20580,note_on,0,0,0,,,,,,,,0,,,71,0
20580,control_change,0,0,0,,,,,,,,0,64,0,,
20640,set_tempo,60,1,0,,,,,,615385,,,,,,
20640,note_on,0,0,0,,,,,,,,0,,,70,43
20760,note_on,120,0,0,,,,,,,,0,,,87,40
20820,note_on,60,0,0,,,,,,,,0,,,87,0
20820,note_on,0,0,0,,,,,,,,0,,,70,0
20820,note_on,0,0,0,,,,,,,,0,,,70,50
20880,set_tempo,60,1,0,,,,,,603015,,,,,,
20880,note_on,0,0,0,,,,,,,,0,,,70,0
20880,note_on,0,0,0,,,,,,,,0,,,68,50
20880,note_on,0,0,0,,,,,,,,0,,,59,32
20880,note_on,0,0,0,,,,,,,,0,,,65,36
20880,note_on,0,0,0,,,,,,,,0,,,62,32
20890,set_tempo,10,1,0,,,,,,606061,,,,,,
20933,control_change,43,0,0,,,,,,,,0,64,127,,
21000,note_on,67,0,0,,,,,,,,0,,,87,40
21040,set_tempo,40,1,0,,,,,,609137,,,,,,
21060,note_on,20,0,0,,,,,,,,0,,,87,0
21060,note_on,0,0,0,,,,,,,,0,,,65,0
21060,note_on,0,0,0,,,,,,,,0,,,68,0
21060,note_on,0,0,0,,,,,,,,0,,,59,0
21060,note_on,0,0,0,,,,,,,,0,,,62,0
21120,set_tempo,60,1,0,,,,,,618557,,,,,,
21120,note_on,0,0,0,,,,,,,,0,,,67,45
21120,note_on,0,0,0,,,,,,,,0,,,59,32
21120,note_on,0,0,0,,,,,,,,0,,,65,36
21120,note_on,0,0,0,,,,,,,,0,,,62,32
21180,set_tempo,60,1,0,,,,,,612245,,,,,,
21240,note_on,60,0,0,,,,,,,,0,,,87,40
21282,control_change,42,0,0,,,,,,,,0,64,0,,
21300,note_on,18,0,0,,,,,,,,0,,,87,0
21300,note_on,0,0,0,,,,,,,,0,,,65,0
21300,note_on,0,0,0,,,,,,,,0,,,67,0
21300,note_on,0,0,0,,,,,,,,0,,,59,0
21300,note_on,0,0,0,,,,,,,,0,,,62,0
21320,set_tempo,20,1,0,,,,,,615385,,,,,,
21360,set_tempo,40,1,0,,,,,,625000,,,,,,
21360,note_on,0,0,0,,,,,,,,0,,,68,45
21460,set_tempo,100,1,0,,,,,,618557,,,,,,
21480,set_tempo,20,1,0,,,,,,621762,,,,,,
21480,note_on,0,0,0,,,,,,,,0,,,87,40
21540,note_on,60,0,0,,,,,,,,0,,,87,0
21540,note_on,0,0,0,,,,,,,,0,,,68,0
21600,set_tempo,60,1,0,,,,,,631579,,,,,,
21600,note_on,0,0,0,,,,,,,,0,,,70,46
21600,note_on,0,0,0,,,,,,,,0,,,67,35
21600,note_on,0,0,0,,,,,,,,0,,,51,31
21720,note_on,120,0,0,,,,,,,,0,,,87,39
21780,note_on,60,0,0,,,,,,,,0,,,87,0
21780,note_on,0,0,0,,,,,,,,0,,,70,0
21780,note_on,0,0,0,,,,,,,,0,,,67,0
21780,note_on,0,0,0,,,,,,,,0,,,51,0
21840,set_tempo,60,1,0,,,,,,648649,,,,,,
21840,note_on,0,0,0,,,,,,,,0,,,63,43
21960,note_on,120,0,0,,,,,,,,0,,,75,39
22020,note_on,60,0,0,,,,,,,,0,,,75,0
22020,note_on,0,0,0,,,,,,,,0,,,63,0
22080,set_tempo,60,1,0,,,,,,618557,,,,,,
22080,note_on,0,0,0,,,,,,,,0,,,75,43
22200,note_on,120,0,0,,,,,,,,0,,,87,40
22260,note_on,60,0,0,,,,,,,,0,,,87,0
22260,note_on,0,0,0,,,,,,,,0,,,75,0
22310,set_tempo,50,1,0,,,,,,612245,,,,,,
22320,note_on,10,0,0,,,,,,,,0,,,87,50
22440,note_on,120,0,0,,,,,,,,0,,,99,45
22480,set_tempo,40,1,0,,,,,,609137,,,,,,
22500,note_on,20,0,0,,,,,,,,0,,,99,0
22500,note_on,0,0,0,,,,,,,,0,,,87,0
22560,note_on,60,0,0,,,,,,,,0,,,87,46
22640,set_tempo,80,1,0,,,,,,606061,,,,,,
22680,note_on,40,0,0,,,,,,,,0,,,99,43
22740,note_on,60,0,0,,,,,,,,0,,,99,0
22740,note_on,0,0,0,,,,,,,,0,,,87,0
22800,set_tempo,60,1,0,,,,,,603015,,,,,,
22800,note_on,0,0,0,,,,,,,,0,,,85,46
22920,note_on,120,0,0,,,,,,,,0,,,99,39
22980,note_on,60,0,0,,,,,,,,0,,,99,0
22980,note_on,0,0,0,,,,,,,,0,,,85,0
22980,note_on,0,0,0,,,,,,,,0,,,85,54
23040,set_tempo,60,1,0,,,,,,560748,,,,,,
23040,note_on,0,0,0,,,,,,,,0,,,85,0
23040,note_on,0,0,0,,,,,,,,0,,,83,54
23040,note_on,0,0,0,,,,,,,,0,,,44,39
23083,control_change,43,0,0,,,,,,,,0,64,127,,
23160,note_on,77,0,0,,,,,,,,0,,,99,45
23220,note_on,60,0,0,,,,,,,,0,,,99,0
23220,note_on,0,0,0,,,,,,,,0,,,44,0
23220,note_on,0,0,0,,,,,,,,0,,,83,0
23280,set_tempo,60,1,0,,,,,,600000,,,,,,
23280,note_on,0,0,0,,,,,,,,0,,,83,45
23280,note_on,0,0,0,,,,,,,,0,,,59,36
23280,note_on,0,0,0,,,,,,,,0,,,51,33
23400,note_on,120,0,0,,,,,,,,0,,,99,40
23460,note_on,60,0,0,,,,,,,,0,,,99,0
23460,note_on,0,0,0,,,,,,,,0,,,83,0
23460,note_on,0,0,0,,,,,,,,0,,,59,0
23460,note_on,0,0,0,,,,,,,,0,,,51,0
23513,control_change,53,0,0,,,,,,,,0,64,0,,
23520,set_tempo,7,1,0,,,,,,615385,,,,,,
23520,note_on,0,0,0,,,,,,,,0,,,82,45
23640,note_on,120,0,0,,,,,,,,0,,,99,40
23700,note_on,60,0,0,,,,,,,,0,,,99,0
23700,note_on,0,0,0,,,,,,,,0,,,82,0
23700,note_on,0,0,0,,,,,,,,0,,,82,46
23760,set_tempo,60,1,0,,,,,,563380,,,,,,
23760,note_on,0,0,0,,,,,,,,0,,,82,0
23760,note_on,0,0,0,,,,,,,,0,,,80,51
23760,note_on,0,0,0,,,,,,,,0,,,47,39
23806,control_change,46,0,0,,,,,,,,0,64,127,,
23880,note_on,74,0,0,,,,,,,,0,,,99,40
23940,note_on,60,0,0,,,,,,,,0,,,99,0
23940,note_on,0,0,0,,,,,,,,0,,,47,0
23940,note_on,0,0,0,,,,,,,,0,,,80,0
24000,set_tempo,60,1,0,,,,,,609137,,,,,,
24000,note_on,0,0,0,,,,,,,,0,,,79,45
24000,note_on,0,0,0,,,,,,,,0,,,56,33
24000,note_on,0,0,0,,,,,,,,0,,,63,36
24120,note_on,120,0,0,,,,,,,,0,,,99,40
24180,note_on,60,0,0,,,,,,,,0,,,99,0
24180,note_on,0,0,0,,,,,,,,0,,,79,0
24180,note_on,0,0,0,,,,,,,,0,,,56,0
24180,note_on,0,0,0,,,,,,,,0,,,63,0
24201,control_change,21,0,0,,,,,,,,0,64,0,,
24240,note_on,39,0,0,,,,,,,,0,,,80,45
24360,note_on,120,0,0,,,,,,,,0,,,99,40
24420,note_on,60,0,0,,,,,,,,0,,,99,0
24420,note_on,0,0,0,,,,,,,,0,,,80,0
24420,note_on,0,0,0,,,,,,,,0,,,79,52
24450,note_on,30,0,0,,,,,,,,0,,,79,0
24450,note_on,0,0,0,,,,,,,,0,,,80,54
24480,set_tempo,30,1,0,,,,,,568720,,,,,,
24480,note_on,0,0,0,,,,,,,,0,,,80,0
24480,note_on,0,0,0,,,,,,,,0,,,82,55
24480,note_on,0,0,0,,,,,,,,0,,,51,39
24523,control_change,43,0,0,,,,,,,,0,64,127,,
24600,note_on,77,0,0,,,,,,,,0,,,99,39
24660,note_on,60,0,0,,,,,,,,0,,,99,0
24660,note_on,0,0,0,,,,,,,,0,,,51,0
24660,note_on,0,0,0,,,,,,,,0,,,82,0
24720,set_tempo,60,1,0,,,,,,603015,,,,,,
24720,note_on,0,0,0,,,,,,,,0,,,75,43
24720,note_on,0,0,0,,,,,,,,0,,,58,33
24720,note_on,0,0,0,,,,,,,,0,,,67,36
24840,note_on,120,0,0,,,,,,,,0,,,99,39
24900,note_on,60,0,0,,,,,,,,0,,,99,0
24900,note_on,0,0,0,,,,,,,,0,,,75,0
24900,note_on,0,0,0,,,,,,,,0,,,58,0
24900,note_on,0,0,0,,,,,,,,0,,,67,0
24956,control_change,56,0,0,,,,,,,,0,64,0,,
24960,set_tempo,4,1,0,,,,,,628272,,,,,,
24960,note_on,0,0,0,,,,,,,,0,,,75,43
25080,set_tempo,120,1,0,,,,,,576923,,,,,,
25080,note_on,0,0,0,,,,,,,,0,,,87,40
25140,note_on,60,0,0,,,,,,,,0,,,87,0
25140,note_on,0,0,0,,,,,,,,0,,,75,0
25140,note_on,0,0,0,,,,,,,,0,,,78,46
25200,set_tempo,60,1,0,,,,,,609137,,,,,,
25200,note_on,0,0,0,,,,,,,,0,,,78,0
25200,note_on,0,0,0,,,,,,,,0,,,76,50
25200,note_on,0,0,0,,,,,,,,0,,,68,31
25200,note_on,0,0,0,,,,,,,,0,,,70,35
25200,note_on,0,0,0,,,,,,,,0,,,61,31
25320,note_on,120,0,0,,,,,,,,0,,,92,44
25380,note_on,60,0,0,,,,,,,,0,,,92,0
25380,note_on,0,0,0,,,,,,,,0,,,70,0
25380,note_on,0,0,0,,,,,,,,0,,,76,0
25380,note_on,0,0,0,,,,,,,,0,,,68,0
25380,note_on,0,0,0,,,,,,,,0,,,61,0
25440,note_on,60,0,0,,,,,,,,0,,,75,46
25440,note_on,0,0,0,,,,,,,,0,,,68,31
25440,note_on,0,0,0,,,,,,,,0,,,70,35
25440,note_on,0,0,0,,,,,,,,0,,,63,31
25560,note_on,120,0,0,,,,,,,,0,,,92,44
25620,note_on,60,0,0,,,,,,,,0,,,92,0
25620,note_on,0,0,0,,,,,,,,0,,,70,0
25620,note_on,0,0,0,,,,,,,,0,,,75,0
25620,note_on,0,0,0,,,,,,,,0,,,68,0
25620,note_on,0,0,0,,,,,,,,0,,,63,0
25680,note_on,60,0,0,,,,,,,,0,,,73,46
25680,note_on,0,0,0,,,,,,,,0,,,70,35
25680,note_on,0,0,0,,,,,,,,0,,,64,31
25680,note_on,0,0,0,,,,,,,,0,,,68,31
25800,set_tempo,120,1,0,,,,,,628272,,,,,,
25800,note_on,0,0,0,,,,,,,,0,,,92,44
25860,note_on,60,0,0,,,,,,,,0,,,92,0
25860,note_on,0,0,0,,,,,,,,0,,,64,0
25860,note_on,0,0,0,,,,,,,,0,,,73,0
25860,note_on,0,0,0,,,,,,,,0,,,70,0
25860,note_on,0,0,0,,,,,,,,0,,,68,0
25920,set_tempo,60,1,0,,,,,,571429,,,,,,
25920,note_on,0,0,0,,,,,,,,0,,,75,46
25920,note_on,0,0,0,,,,,,,,0,,,63,35
25920,note_on,0,0,0,,,,,,,,0,,,71,39
25920,note_on,0,0,0,,,,,,,,0,,,68,35
25949,control_change,29,0,0,,,,,,,,0,64,127,,
26010,note_on,61,0,0,,,,,,,,0,,,75,0
26037,control_change,27,0,0,,,,,,,,0,64,0,,
26040,note_on,3,0,0,,,,,,,,0,,,87,39
26100,note_on,60,0,0,,,,,,,,0,,,87,0
26100,note_on,0,0,0,,,,,,,,0,,,68,0
26100,note_on,0,0,0,,,,,,,,0,,,71,0
26100,note_on,0,0,0,,,,,,,,0,,,63,0
26160,set_tempo,60,1,0,,,,,,582524,,,,,,
26160,note_on,0,0,0,,,,,,,,0,,,80,39
26220,note_on,60,0,0,,,,,,,,0,,,80,0
26280,set_tempo,60,1,0,,,,,,585366,,,,,,
26280,note_on,0,0,0,,,,,,,,0,,,83,39
26340,note_on,60,0,0,,,,,,,,0,,,83,0
26400,set_tempo,60,1,0,,,,,,606061,,,,,,
26400,note_on,0,0,0,,,,,,,,0,,,87,46
26412,control_change,12,0,0,,,,,,,,0,64,127,,
26490,note_on,78,0,0,,,,,,,,0,,,87,0
26520,set_tempo,30,1,0,,,,,,621762,,,,,,
26520,note_on,0,0,0,,,,,,,,0,,,99,41
26532,control_change,12,0,0,,,,,,,,0,64,0,,
26580,note_on,48,0,0,,,,,,,,0,,,99,0
26640,set_tempo,60,1,0,,,,,,576923,,,,,,
26640,note_on,0,0,0,,,,,,,,0,,,75,46
26640,note_on,0,0,0,,,,,,,,0,,,61,30
26640,note_on,0,0,0,,,,,,,,0,,,67,34
26640,note_on,0,0,0,,,,,,,,0,,,51,30
26677,control_change,37,0,0,,,,,,,,0,64,127,,
26730,note_on,53,0,0,,,,,,,,0,,,75,0
26760,note_on,30,0,0,,,,,,,,0,,,87,39
26777,control_change,17,0,0,,,,,,,,0,64,0,,
26820,note_on,43,0,0,,,,,,,,0,,,87,0
26820,note_on,0,0,0,,,,,,,,0,,,51,0
26820,note_on,0,0,0,,,,,,,,0,,,67,0
26820,note_on,0,0,0,,,,,,,,0,,,61,0
26880,set_tempo,60,1,0,,,,,,591133,,,,,,
26880,note_on,0,0,0,,,,,,,,0,,,79,39
26940,note_on,60,0,0,,,,,,,,0,,,79,0
27000,set_tempo,60,1,0,,,,,,606061,,,,,,
27000,note_on,0,0,0,,,,,,,,0,,,82,39
27060,note_on,60,0,0,,,,,,,,0,,,82,0
27120,note_on,60,0,0,,,,,,,,0,,,87,46
27175,control_change,55,0,0,,,,,,,,0,64,127,,
27210,note_on,35,0,0,,,,,,,,0,,,87,0
27240,set_tempo,30,1,0,,,,,,659341,,,,,,
27240,note_on,0,0,0,,,,,,,,0,,,99,45
27300,note_on,60,0,0,,,,,,,,0,,,99,0
27300,control_change,0,0,0,,,,,,,,0,64,0,,
27360,set_tempo,60,1,0,,,,,,609137,,,,,,
27360,note_on,0,0,0,,,,,,,,0,,,44,45
27450,note_on,90,0,0,,,,,,,,0,,,44,0
27480,note_on,30,0,0,,,,,,,,0,,,59,40
27494,control_change,14,0,0,,,,,,,,0,64,127,,
27570,note_on,76,0,0,,,,,,,,0,,,59,0
27600,note_on,30,0,0,,,,,,,,0,,,63,40
27690,note_on,90,0,0,,,,,,,,0,,,63,0
27720,note_on,30,0,0,,,,,,,,0,,,68,37
27810,note_on,90,0,0,,,,,,,,0,,,68,0
27840,note_on,30,0,0,,,,,,,,0,,,75,37
27930,note_on,90,0,0,,,,,,,,0,,,75,0
27960,note_on,30,0,0,,,,,,,,0,,,80,36
28050,note_on,90,0,0,,,,,,,,0,,,80,0
28080,set_tempo,30,1,0,,,,,,615385,,,,,,
28080,note_on,0,0,0,,,,,,,,0,,,83,35
28140,set_tempo,60,1,0,,,,,,618557,,,,,,
28170,note_on,30,0,0,,,,,,,,0,,,83,0
28200,set_tempo,30,1,0,,,,,,621762,,,,,,
28200,note_on,0,0,0,,,,,,,,0,,,87,35
28260,set_tempo,60,1,0,,,,,,625000,,,,,,
28290,note_on,30,0,0,,,,,,,,0,,,87,0
28310,set_tempo,20,1,0,,,,,,628272,,,,,,
28320,note_on,10,0,0,,,,,,,,0,,,92,34
28370,control_change,50,0,0,,,,,,,,0,64,0,,
28410,note_on,40,0,0,,,,,,,,0,,,92,0
29257,set_tempo,847,1,0,,,,,,621762,,,,,,
29280,set_tempo,23,1,0,,,,,,598922,,,,,,
29280,note_on,0,0,0,,,,,,,,0,,,71,45
29400,note_on,120,0,0,,,,,,,,0,,,67,36
29400,note_on,0,0,0,,,,,,,,0,,,70,41
29460,note_on,60,0,0,,,,,,,,0,,,71,0
29490,note_on,30,0,0,,,,,,,,0,,,70,0
29490,note_on,0,0,0,,,,,,,,0,,,67,0
29520,note_on,30,0,0,,,,,,,,0,,,71,47
29640,note_on,120,0,0,,,,,,,,0,,,66,39
29640,note_on,0,0,0,,,,,,,,0,,,69,44
29700,note_on,60,0,0,,,,,,,,0,,,71,0
29730,note_on,30,0,0,,,,,,,,0,,,69,0
29730,note_on,0,0,0,,,,,,,,0,,,66,0
29760,set_tempo,30,1,0,,,,,,598922,,,,,,
29760,note_on,0,0,0,,,,,,,,0,,,71,50
29820,set_tempo,60,1,0,,,,,,595829,,,,,,
29880,set_tempo,60,1,0,,,,,,592710,,,,,,
29880,note_on,0,0,0,,,,,,,,0,,,65,41
29880,note_on,0,0,0,,,,,,,,0,,,68,45
29940,set_tempo,60,1,0,,,,,,589681,,,,,,
29940,note_on,0,0,0,,,,,,,,0,,,71,0
29970,note_on,30,0,0,,,,,,,,0,,,68,0
29970,note_on,0,0,0,,,,,,,,0,,,65,0
29990,set_tempo,20,1,0,,,,,,586625,,,,,,
30000,set_tempo,10,1,0,,,,,,595474,,,,,,
30000,note_on,0,0,0,,,,,,,,0,,,71,54
30120,set_tempo,120,1,0,,,,,,558295,,,,,,
30120,note_on,0,0,0,,,,,,,,0,,,64,43
30120,note_on,0,0,0,,,,,,,,0,,,67,47
30180,note_on,60,0,0,,,,,,,,0,,,71,0
30210,note_on,30,0,0,,,,,,,,0,,,67,0
30210,note_on,0,0,0,,,,,,,,0,,,64,0
30240,set_tempo,30,1,0,,,,,,552944,,,,,,
30240,note_on,0,0,0,,,,,,,,0,,,73,54
30300,note_on,60,0,0,,,,,,,,0,,,73,0
30300,note_on,0,0,0,,,,,,,,0,,,71,54
30360,note_on,60,0,0,,,,,,,,0,,,71,0
30360,note_on,0,0,0,,,,,,,,0,,,70,54
30420,note_on,60,0,0,,,,,,,,0,,,70,0
30420,note_on,0,0,0,,,,,,,,0,,,71,54
30480,set_tempo,60,1,0,,,,,,569206,,,,,,
30480,note_on,0,0,0,,,,,,,,0,,,71,0
30480,note_on,0,0,0,,,,,,,,0,,,66,61
30480,note_on,0,0,0,,,,,,,,0,,,63,35
30480,note_on,0,0,0,,,,,,,,0,,,59,31
30570,note_on,90,0,0,,,,,,,,0,,,66,0
30600,set_tempo,30,1,0,,,,,,563645,,,,,,
30600,note_on,0,0,0,,,,,,,,0,,,90,54
30660,note_on,60,0,0,,,,,,,,0,,,59,0
30660,note_on,0,0,0,,,,,,,,0,,,63,0
30690,note_on,30,0,0,,,,,,,,0,,,90,0
30720,note_on,30,0,0,,,,,,,,0,,,71,62
30720,note_on,0,0,0,,,,,,,,0,,,66,35
30720,note_on,0,0,0,,,,,,,,0,,,63,31
30720,note_on,0,0,0,,,,,,,,0,,,54,31
30810,note_on,90,0,0,,,,,,,,0,,,71,0
30840,set_tempo,30,1,0,,,,,,574548,,,,,,
30840,note_on,0,0,0,,,,,,,,0,,,90,54
30900,note_on,60,0,0,,,,,,,,0,,,66,0
30900,note_on,0,0,0,,,,,,,,0,,,54,0
30900,note_on,0,0,0,,,,,,,,0,,,63,0
30930,note_on,30,0,0,,,,,,,,0,,,90,0
30960,set_tempo,30,1,0,,,,,,552944,,,,,,
30960,note_on,0,0,0,,,,,,,,0,,,75,56
31020,note_on,60,0,0,,,,,,,,0,,,75,0
31020,note_on,0,0,0,,,,,,,,0,,,73,56
31080,note_on,60,0,0,,,,,,,,0,,,73,0
31080,note_on,0,0,0,,,,,,,,0,,,72,56
31140,note_on,60,0,0,,,,,,,,0,,,72,0
31140,note_on,0,0,0,,,,,,,,0,,,73,56
31200,set_tempo,60,1,0,,,,,,569206,,,,,,
31200,note_on,0,0,0,,,,,,,,0,,,73,0
31200,note_on,0,0,0,,,,,,,,0,,,66,63
31200,note_on,0,0,0,,,,,,,,0,,,64,36
31200,note_on,0,0,0,,,,,,,,0,,,58,32
31290,note_on,90,0,0,,,,,,,,0,,,66,0
31320,set_tempo,30,1,0,,,,,,563645,,,,,,
31320,note_on,0,0,0,,,,,,,,0,,,90,61
31380,note_on,60,0,0,,,,,,,,0,,,58,0
31380,note_on,0,0,0,,,,,,,,0,,,64,0
31410,note_on,30,0,0,,,,,,,,0,,,90,0
31440,note_on,30,0,0,,,,,,,,0,,,73,63
31440,note_on,0,0,0,,,,,,,,0,,,66,36
31440,note_on,0,0,0,,,,,,,,0,,,64,32
31440,note_on,0,0,0,,,,,,,,0,,,54,32
31530,note_on,90,0,0,,,,,,,,0,,,73,0
31560,set_tempo,30,1,0,,,,,,571864,,,,,,
31560,note_on,0,0,0,,,,,,,,0,,,90,61
31620,note_on,60,0,0,,,,,,,,0,,,66,0
31620,note_on,0,0,0,,,,,,,,0,,,54,0
31620,note_on,0,0,0,,,,,,,,0,,,64,0
31650,note_on,30,0,0,,,,,,,,0,,,90,0
31680,set_tempo,30,1,0,,,,,,552944,,,,,,
31680,note_on,0,0,0,,,,,,,,0,,,76,54
31740,note_on,60,0,0,,,,,,,,0,,,76,0
31740,note_on,0,0,0,,,,,,,,0,,,75,54
31800,note_on,60,0,0,,,,,,,,0,,,75,0
31800,note_on,0,0,0,,,,,,,,0,,,74,54
31860,note_on,60,0,0,,,,,,,,0,,,74,0
31860,note_on,0,0,0,,,,,,,,0,,,75,54
31920,set_tempo,60,1,0,,,,,,563645,,,,,,
31920,note_on,0,0,0,,,,,,,,0,,,75,0
31920,note_on,0,0,0,,,,,,,,0,,,71,61
31920,note_on,0,0,0,,,,,,,,0,,,63,35
31920,note_on,0,0,0,,,,,,,,0,,,59,35
32010,note_on,90,0,0,,,,,,,,0,,,71,0
32040,note_on,30,0,0,,,,,,,,0,,,90,59
32130,note_on,90,0,0,,,,,,,,0,,,90,0
32160,set_tempo,30,1,0,,,,,,571429,,,,,,
32160,note_on,0,0,0,,,,,,,,0,,,59,0
32160,note_on,0,0,0,,,,,,,,0,,,63,0
32160,note_on,0,0,0,,,,,,,,0,,,75,45
32280,note_on,120,0,0,,,,,,,,0,,,71,36
32280,note_on,0,0,0,,,,,,,,0,,,74,41
32340,note_on,60,0,0,,,,,,,,0,,,75,0
32370,note_on,30,0,0,,,,,,,,0,,,74,0
32370,note_on,0,0,0,,,,,,,,0,,,71,0
32400,set_tempo,30,1,0,,,,,,579710,,,,,,
32400,note_on,0,0,0,,,,,,,,0,,,75,47
32520,note_on,120,0,0,,,,,,,,0,,,70,39
32520,note_on,0,0,0,,,,,,,,0,,,73,44
32580,note_on,60,0,0,,,,,,,,0,,,75,0
32610,note_on,30,0,0,,,,,,,,0,,,73,0
32610,note_on,0,0,0,,,,,,,,0,,,70,0
32640,note_on,30,0,0,,,,,,,,0,,,75,50
32760,note_on,120,0,0,,,,,,,,0,,,69,41
32760,note_on,0,0,0,,,,,,,,0,,,72,45
32820,note_on,60,0,0,,,,,,,,0,,,75,0
32850,note_on,30,0,0,,,,,,,,0,,,72,0
32850,note_on,0,0,0,,,,,,,,0,,,69,0
32880,note_on,30,0,0,,,,,,,,0,,,75,54
33000,set_tempo,120,1,0,,,,,,558295,,,,,,
33000,note_on,0,0,0,,,,,,,,0,,,68,43
33000,note_on,0,0,0,,,,,,,,0,,,71,47
33060,note_on,60,0,0,,,,,,,,0,,,75,0
33090,note_on,30,0,0,,,,,,,,0,,,71,0
33090,note_on,0,0,0,,,,,,,,0,,,68,0
33120,set_tempo,30,1,0,,,,,,547745,,,,,,
33120,note_on,0,0,0,,,,,,,,0,,,77,54
33180,note_on,60,0,0,,,,,,,,0,,,77,0
33180,note_on,0,0,0,,,,,,,,0,,,75,54
33240,note_on,60,0,0,,,,,,,,0,,,75,0
33240,note_on,0,0,0,,,,,,,,0,,,74,54
33300,note_on,60,0,0,,,,,,,,0,,,74,0
33300,note_on,0,0,0,,,,,,,,0,,,75,54
33360,set_tempo,60,1,0,,,,,,563645,,,,,,
33360,note_on,0,0,0,,,,,,,,0,,,75,0
33360,note_on,0,0,0,,,,,,,,0,,,70,61
33360,note_on,0,0,0,,,,,,,,0,,,63,31
33360,note_on,0,0,0,,,,,,,,0,,,66,35
33450,note_on,90,0,0,,,,,,,,0,,,70,0
33480,set_tempo,30,1,0,,,,,,555556,,,,,,
33480,note_on,0,0,0,,,,,,,,0,,,94,59
33540,note_on,60,0,0,,,,,,,,0,,,66,0
33540,note_on,0,0,0,,,,,,,,0,,,63,0
33570,note_on,30,0,0,,,,,,,,0,,,94,0
33600,note_on,30,0,0,,,,,,,,0,,,75,62
33600,note_on,0,0,0,,,,,,,,0,,,70,35
33600,note_on,0,0,0,,,,,,,,0,,,66,31
33600,note_on,0,0,0,,,,,,,,0,,,58,31
33690,note_on,90,0,0,,,,,,,,0,,,75,0
33720,set_tempo,30,1,0,,,,,,569206,,,,,,
33720,note_on,0,0,0,,,,,,,,0,,,94,59
33780,note_on,60,0,0,,,,,,,,0,,,70,0
33780,note_on,0,0,0,,,,,,,,0,,,58,0
33780,note_on,0,0,0,,,,,,,,0,,,66,0
33810,note_on,30,0,0,,,,,,,,0,,,94,0
33840,set_tempo,30,1,0,,,,,,547745,,,,,,
33840,note_on,0,0,0,,,,,,,,0,,,78,56
33900,note_on,60,0,0,,,,,,,,0,,,78,0
33900,note_on,0,0,0,,,,,,,,0,,,77,56
33960,note_on,60,0,0,,,,,,,,0,,,77,0
33960,note_on,0,0,0,,,,,,,,0,,,76,56
34020,note_on,60,0,0,,,,,,,,0,,,76,0
34020,note_on,0,0,0,,,,,,,,0,,,77,56
34080,set_tempo,60,1,0,,,,,,563645,,,,,,
34080,note_on,0,0,0,,,,,,,,0,,,77,0
34080,note_on,0,0,0,,,,,,,,0,,,70,63
34080,note_on,0,0,0,,,,,,,,0,,,68,36
34080,note_on,0,0,0,,,,,,,,0,,,62,32
34170,note_on,90,0,0,,,,,,,,0,,,70,0
34200,set_tempo,30,1,0,,,,,,555556,,,,,,
34200,note_on,0,0,0,,,,,,,,0,,,94,60
34260,note_on,60,0,0,,,,,,,,0,,,62,0
34260,note_on,0,0,0,,,,,,,,0,,,68,0
34290,note_on,30,0,0,,,,,,,,0,,,94,0
34320,note_on,30,0,0,,,,,,,,0,,,77,62
34320,note_on,0,0,0,,,,,,,,0,,,70,36
34320,note_on,0,0,0,,,,,,,,0,,,68,32
34320,note_on,0,0,0,,,,,,,,0,,,58,32
34410,note_on,90,0,0,,,,,,,,0,,,77,0
34440,set_tempo,30,1,0,,,,,,563910,,,,,,
34440,note_on,0,0,0,,,,,,,,0,,,94,60
34500,note_on,60,0,0,,,,,,,,0,,,70,0
34500,note_on,0,0,0,,,,,,,,0,,,58,0
34500,note_on,0,0,0,,,,,,,,0,,,68,0
34530,note_on,30,0,0,,,,,,,,0,,,94,0
34560,set_tempo,30,1,0,,,,,,547745,,,,,,
34560,note_on,0,0,0,,,,,,,,0,,,80,54
34620,note_on,60,0,0,,,,,,,,0,,,80,0
34620,note_on,0,0,0,,,,,,,,0,,,78,54
34680,note_on,60,0,0,,,,,,,,0,,,78,0
34680,note_on,0,0,0,,,,,,,,0,,,77,54
34740,note_on,60,0,0,,,,,,,,0,,,77,0
34740,note_on,0,0,0,,,,,,,,0,,,78,54
34800,set_tempo,60,1,0,,,,,,563645,,,,,,
34800,note_on,0,0,0,,,,,,,,0,,,78,0
34800,note_on,0,0,0,,,,,,,,0,,,75,61
34800,note_on,0,0,0,,,,,,,,0,,,63,31
34800,note_on,0,0,0,,,,,,,,0,,,66,35
34890,note_on,90,0,0,,,,,,,,0,,,75,0
34920,note_on,30,0,0,,,,,,,,0,,,94,59
35010,note_on,90,0,0,,,,,,,,0,,,94,0
35040,set_tempo,30,1,0,,,,,,568720,,,,,,
35040,note_on,0,0,0,,,,,,,,0,,,66,0
35040,note_on,0,0,0,,,,,,,,0,,,63,0
35040,note_on,0,0,0,,,,,,,,0,,,78,45
35160,note_on,120,0,0,,,,,,,,0,,,74,36
35160,note_on,0,0,0,,,,,,,,0,,,77,41
35220,note_on,60,0,0,,,,,,,,0,,,78,0
35250,note_on,30,0,0,,,,,,,,0,,,77,0
35250,note_on,0,0,0,,,,,,,,0,,,74,0
35280,note_on,30,0,0,,,,,,,,0,,,78,47
35400,note_on,120,0,0,,,,,,,,0,,,73,39
35400,note_on,0,0,0,,,,,,,,0,,,76,44
35460,note_on,60,0,0,,,,,,,,0,,,78,0
35490,note_on,30,0,0,,,,,,,,0,,,76,0
35490,note_on,0,0,0,,,,,,,,0,,,73,0
35520,note_on,30,0,0,,,,,,,,0,,,78,50
35640,note_on,120,0,0,,,,,,,,0,,,75,45
35640,note_on,0,0,0,,,,,,,,0,,,72,41
35700,note_on,60,0,0,,,,,,,,0,,,78,0
35730,note_on,30,0,0,,,,,,,,0,,,72,0
35730,note_on,0,0,0,,,,,,,,0,,,75,0
35760,note_on,30,0,0,,,,,,,,0,,,78,54
35880,set_tempo,120,1,0,,,,,,558295,,,,,,
35880,note_on,0,0,0,,,,,,,,0,,,74,47
35880,note_on,0,0,0,,,,,,,,0,,,71,43
35940,note_on,60,0,0,,,,,,,,0,,,78,0
35970,note_on,30,0,0,,,,,,,,0,,,71,0
35970,note_on,0,0,0,,,,,,,,0,,,74,0
36000,set_tempo,30,1,0,,,,,,547745,,,,,,
36000,note_on,0,0,0,,,,,,,,0,,,80,54
36060,note_on,60,0,0,,,,,,,,0,,,80,0
36060,note_on,0,0,0,,,,,,,,0,,,78,54
36120,note_on,60,0,0,,,,,,,,0,,,78,0
36120,note_on,0,0,0,,,,,,,,0,,,77,54
36180,note_on,60,0,0,,,,,,,,0,,,77,0
36180,note_on,0,0,0,,,,,,,,0,,,78,54
36240,set_tempo,60,1,0,,,,,,563645,,,,,,
36240,note_on,0,0,0,,,,,,,,0,,,78,0
36240,note_on,0,0,0,,,,,,,,0,,,73,61
36240,note_on,0,0,0,,,,,,,,0,,,70,35
36240,note_on,0,0,0,,,,,,,,0,,,66,31
36330,note_on,90,0,0,,,,,,,,0,,,73,0
36360,set_tempo,30,1,0,,,,,,555556,,,,,,
36360,note_on,0,0,0,,,,,,,,0,,,97,64
36420,note_on,60,0,0,,,,,,,,0,,,66,0
36420,note_on,0,0,0,,,,,,,,0,,,70,0
36450,note_on,30,0,0,,,,,,,,0,,,97,0
36480,note_on,30,0,0,,,,,,,,0,,,78,62
36480,note_on,0,0,0,,,,,,,,0,,,70,31
36480,note_on,0,0,0,,,,,,,,0,,,73,35
36480,note_on,0,0,0,,,,,,,,0,,,61,35
36570,note_on,90,0,0,,,,,,,,0,,,78,0
36600,set_tempo,30,1,0,,,,,,563910,,,,,,
36600,note_on,0,0,0,,,,,,,,0,,,97,64
36660,note_on,60,0,0,,,,,,,,0,,,70,0
36660,note_on,0,0,0,,,,,,,,0,,,61,0
36660,note_on,0,0,0,,,,,,,,0,,,73,0
36690,note_on,30,0,0,,,,,,,,0,,,97,0
36720,set_tempo,30,1,0,,,,,,547745,,,,,,
36720,note_on,0,0,0,,,,,,,,0,,,82,56
36780,note_on,60,0,0,,,,,,,,0,,,82,0
36780,note_on,0,0,0,,,,,,,,0,,,80,56
36840,note_on,60,0,0,,,,,,,,0,,,80,0
36840,note_on,0,0,0,,,,,,,,0,,,79,56
36900,note_on,60,0,0,,,,,,,,0,,,79,0
36900,note_on,0,0,0,,,,,,,,0,,,80,56
36960,set_tempo,60,1,0,,,,,,563645,,,,,,
36960,note_on,0,0,0,,,,,,,,0,,,80,0
36960,note_on,0,0,0,,,,,,,,0,,,73,63
36960,note_on,0,0,0,,,,,,,,0,,,71,36
36960,note_on,0,0,0,,,,,,,,0,,,65,32
37050,note_on,90,0,0,,,,,,,,0,,,73,0
37080,set_tempo,30,1,0,,,,,,555556,,,,,,
37080,note_on,0,0,0,,,,,,,,0,,,97,64
37140,note_on,60,0,0,,,,,,,,0,,,65,0
37140,note_on,0,0,0,,,,,,,,0,,,71,0
37170,note_on,30,0,0,,,,,,,,0,,,97,0
37200,note_on,30,0,0,,,,,,,,0,,,80,62
37200,note_on,0,0,0,,,,,,,,0,,,73,36
37200,note_on,0,0,0,,,,,,,,0,,,71,32
37200,note_on,0,0,0,,,,,,,,0,,,61,32
37290,note_on,90,0,0,,,,,,,,0,,,80,0
37320,set_tempo,30,1,0,,,,,,594177,,,,,,
37320,note_on,0,0,0,,,,,,,,0,,,97,64
37380,note_on,60,0,0,,,,,,,,0,,,73,0
37380,note_on,0,0,0,,,,,,,,0,,,61,0
37380,note_on,0,0,0,,,,,,,,0,,,71,0
37401,set_tempo,21,1,0,,,,,,585366,,,,,,
37410,note_on,9,0,0,,,,,,,,0,,,97,0
37440,set_tempo,30,1,0,,,,,,576923,,,,,,
37440,note_on,0,0,0,,,,,,,,0,,,82,47
37440,note_on,0,0,0,,,,,,,,0,,,78,46
37530,note_on,90,0,0,,,,,,,,0,,,78,0
37530,note_on,0,0,0,,,,,,,,0,,,82,0
37560,set_tempo,30,1,0,,,,,,600000,,,,,,
37560,note_on,0,0,0,,,,,,,,0,,,83,47
37560,note_on,0,0,0,,,,,,,,0,,,80,46
37620,note_on,60,0,0,,,,,,,,0,,,66,47
37650,note_on,30,0,0,,,,,,,,0,,,80,0
37650,note_on,0,0,0,,,,,,,,0,,,83,0
37680,set_tempo,30,1,0,,,,,,576923,,,,,,
37680,note_on,0,0,0,,,,,,,,0,,,85,50
37680,note_on,0,0,0,,,,,,,,0,,,82,47
37744,control_change,64,0,0,,,,,,,,0,64,127,,
37800,note_on,56,0,0,,,,,,,,0,,,97,55
37800,note_on,0,0,0,,,,,,,,0,,,94,55
37920,note_on,120,0,0,,,,,,,,0,,,94,0
37920,note_on,0,0,0,,,,,,,,0,,,82,0
37920,note_on,0,0,0,,,,,,,,0,,,66,0
37920,note_on,0,0,0,,,,,,,,0,,,85,0
37920,note_on,0,0,0,,,,,,,,0,,,97,0
37920,note_on,0,0,0,,,,,,,,0,,,83,47
37920,note_on,0,0,0,,,,,,,,0,,,80,46
37934,control_change,14,0,0,,,,,,,,0,64,0,,
38010,note_on,76,0,0,,,,,,,,0,,,80,0
38010,note_on,0,0,0,,,,,,,,0,,,83,0
38040,note_on,30,0,0,,,,,,,,0,,,82,47
38040,note_on,0,0,0,,,,,,,,0,,,78,46
38130,note_on,90,0,0,,,,,,,,0,,,78,0
38130,note_on,0,0,0,,,,,,,,0,,,82,0
38160,note_on,30,0,0,,,,,,,,0,,,80,47
38160,note_on,0,0,0,,,,,,,,0,,,71,46
38250,note_on,90,0,0,,,,,,,,0,,,71,0
38250,note_on,0,0,0,,,,,,,,0,,,80,0
38280,set_tempo,30,1,0,,,,,,588235,,,,,,
38280,note_on,0,0,0,,,,,,,,0,,,82,47
38280,note_on,0,0,0,,,,,,,,0,,,73,46
38340,note_on,60,0,0,,,,,,,,0,,,59,49
38370,note_on,30,0,0,,,,,,,,0,,,73,0
38370,note_on,0,0,0,,,,,,,,0,,,82,0
38400,set_tempo,30,1,0,,,,,,576923,,,,,,
38400,note_on,0,0,0,,,,,,,,0,,,83,50
38400,note_on,0,0,0,,,,,,,,0,,,75,49
38460,control_change,60,0,0,,,,,,,,0,64,127,,
38520,note_on,60,0,0,,,,,,,,0,,,95,55
38520,note_on,0,0,0,,,,,,,,0,,,87,50
38640,note_on,120,0,0,,,,,,,,0,,,87,0
38640,note_on,0,0,0,,,,,,,,0,,,75,0
38640,note_on,0,0,0,,,,,,,,0,,,59,0
38640,note_on,0,0,0,,,,,,,,0,,,83,0
38640,note_on,0,0,0,,,,,,,,0,,,95,0
38640,note_on,0,0,0,,,,,,,,0,,,82,47
38640,note_on,0,0,0,,,,,,,,0,,,73,46
38647,control_change,7,0,0,,,,,,,,0,64,0,,
38730,note_on,83,0,0,,,,,,,,0,,,73,0
38730,note_on,0,0,0,,,,,,,,0,,,82,0
38760,note_on,30,0,0,,,,,,,,0,,,80,47
38760,note_on,0,0,0,,,,,,,,0,,,71,46
38850,note_on,90,0,0,,,,,,,,0,,,71,0
38850,note_on,0,0,0,,,,,,,,0,,,80,0
38880,note_on,30,0,0,,,,,,,,0,,,78,47
38880,note_on,0,0,0,,,,,,,,0,,,70,46
38970,note_on,90,0,0,,,,,,,,0,,,70,0
38970,note_on,0,0,0,,,,,,,,0,,,78,0
39000,set_tempo,30,1,0,,,,,,591133,,,,,,
39000,note_on,0,0,0,,,,,,,,0,,,80,47
39000,note_on,0,0,0,,,,,,,,0,,,71,46
39060,note_on,60,0,0,,,,,,,,0,,,61,49
39090,note_on,30,0,0,,,,,,,,0,,,71,0
39090,note_on,0,0,0,,,,,,,,0,,,80,0
39120,set_tempo,30,1,0,,,,,,576923,,,,,,
39120,note_on,0,0,0,,,,,,,,0,,,82,50
39120,note_on,0,0,0,,,,,,,,0,,,73,49
39191,control_change,71,0,0,,,,,,,,0,64,127,,
39240,note_on,49,0,0,,,,,,,,0,,,85,47
39240,note_on,0,0,0,,,,,,,,0,,,94,54
39360,note_on,120,0,0,,,,,,,,0,,,94,0
39360,note_on,0,0,0,,,,,,,,0,,,73,0
39360,note_on,0,0,0,,,,,,,,0,,,61,0
39360,note_on,0,0,0,,,,,,,,0,,,82,0
39360,note_on,0,0,0,,,,,,,,0,,,85,0
39360,note_on,0,0,0,,,,,,,,0,,,80,47
39360,note_on,0,0,0,,,,,,,,0,,,71,46
39381,control_change,21,0,0,,,,,,,,0,64,0,,
39450,note_on,69,0,0,,,,,,,,0,,,71,0
39450,note_on,0,0,0,,,,,,,,0,,,80,0
39480,note_on,30,0,0,,,,,,,,0,,,78,47
39480,note_on,0,0,0,,,,,,,,0,,,70,46
39570,note_on,90,0,0,,,,,,,,0,,,70,0
39570,note_on,0,0,0,,,,,,,,0,,,78,0
39600,note_on,30,0,0,,,,,,,,0,,,77,47
39600,note_on,0,0,0,,,,,,,,0,,,68,46
39690,note_on,90,0,0,,,,,,,,0,,,68,0
39690,note_on,0,0,0,,,,,,,,0,,,77,0
39720,set_tempo,30,1,0,,,,,,594059,,,,,,
39720,note_on,0,0,0,,,,,,,,0,,,78,47
39720,note_on,0,0,0,,,,,,,,0,,,70,46
39780,note_on,60,0,0,,,,,,,,0,,,61,47
39810,note_on,30,0,0,,,,,,,,0,,,70,0
39810,note_on,0,0,0,,,,,,,,0,,,78,0
39840,set_tempo,30,1,0,,,,,,576923,,,,,,
39840,note_on,0,0,0,,,,,,,,0,,,80,50
39840,note_on,0,0,0,,,,,,,,0,,,71,47
39897,control_change,57,0,0,,,,,,,,0,64,127,,
39960,note_on,63,0,0,,,,,,,,0,,,92,51
39960,note_on,0,0,0,,,,,,,,0,,,83,45
40080,note_on,120,0,0,,,,,,,,0,,,83,0
40080,note_on,0,0,0,,,,,,,,0,,,71,0
40080,note_on,0,0,0,,,,,,,,0,,,61,0
40080,note_on,0,0,0,,,,,,,,0,,,80,0
40080,note_on,0,0,0,,,,,,,,0,,,92,0
40080,note_on,0,0,0,,,,,,,,0,,,75,47
40080,note_on,0,0,0,,,,,,,,0,,,66,47
40105,control_change,25,0,0,,,,,,,,0,64,0,,
40170,note_on,65,0,0,,,,,,,,0,,,66,0
40170,note_on,0,0,0,,,,,,,,0,,,75,0
40200,set_tempo,30,1,0,,,,,,594059,,,,,,
40200,note_on,0,0,0,,,,,,,,0,,,77,47
40200,note_on,0,0,0,,,,,,,,0,,,68,47
40290,note_on,90,0,0,,,,,,,,0,,,68,0
40290,note_on,0,0,0,,,,,,,,0,,,77,0
40320,set_tempo,30,1,0,,,,,,576923,,,,,,
40320,note_on,0,0,0,,,,,,,,0,,,78,50
40320,note_on,0,0,0,,,,,,,,0,,,54,44
40320,note_on,0,0,0,,,,,,,,0,,,70,49
40440,note_on,120,0,0,,,,,,,,0,,,90,45
40440,note_on,0,0,0,,,,,,,,0,,,82,40
40500,note_on,60,0,0,,,,,,,,0,,,70,0
40500,note_on,0,0,0,,,,,,,,0,,,78,0
40500,note_on,0,0,0,,,,,,,,0,,,54,0
40560,set_tempo,60,1,0,,,,,,582524,,,,,,
40560,note_on,0,0,0,,,,,,,,0,,,90,0
40560,note_on,0,0,0,,,,,,,,0,,,82,0
40560,note_on,0,0,0,,,,,,,,0,,,66,51
40588,control_change,28,0,0,,,,,,,,0,64,127,,
40650,note_on,62,0,0,,,,,,,,0,,,66,0
40680,note_on,30,0,0,,,,,,,,0,,,78,51
40770,note_on,90,0,0,,,,,,,,0,,,78,0
40800,note_on,30,0,0,,,,,,,,0,,,67,57
40818,control_change,18,0,0,,,,,,,,0,64,0,,
40850,control_change,32,0,0,,,,,,,,0,64,127,,
40890,note_on,40,0,0,,,,,,,,0,,,67,0
40920,note_on,30,0,0,,,,,,,,0,,,79,57
41010,note_on,90,0,0,,,,,,,,0,,,79,0
41040,set_tempo,30,1,0,,,,,,576923,,,,,,
41040,note_on,0,0,0,,,,,,,,0,,,68,61
41050,control_change,10,0,0,,,,,,,,0,64,0,,
41093,control_change,43,0,0,,,,,,,,0,64,127,,
41130,note_on,37,0,0,,,,,,,,0,,,68,0
41160,note_on,30,0,0,,,,,,,,0,,,80,61
41250,note_on,90,0,0,,,,,,,,0,,,80,0
41280,note_on,30,0,0,,,,,,,,0,,,92,65
41280,note_on,0,0,0,,,,,,,,0,,,64,43
41280,note_on,0,0,0,,,,,,,,0,,,68,47
41299,control_change,19,0,0,,,,,,,,0,64,0,,
41400,note_on,101,0,0,,,,,,,,0,,,80,56
41460,note_on,60,0,0,,,,,,,,0,,,68,0
41460,note_on,0,0,0,,,,,,,,0,,,92,0
41460,note_on,0,0,0,,,,,,,,0,,,64,0
41520,note_on,60,0,0,,,,,,,,0,,,80,0
41520,note_on,0,0,0,,,,,,,,0,,,92,65
41520,note_on,0,0,0,,,,,,,,0,,,63,43
41520,note_on,0,0,0,,,,,,,,0,,,68,47
41640,note_on,120,0,0,,,,,,,,0,,,78,55
41700,note_on,60,0,0,,,,,,,,0,,,68,0
41700,note_on,0,0,0,,,,,,,,0,,,92,0
41700,note_on,0,0,0,,,,,,,,0,,,63,0
41760,note_on,60,0,0,,,,,,,,0,,,78,0
41760,note_on,0,0,0,,,,,,,,0,,,92,67
41760,note_on,0,0,0,,,,,,,,0,,,61,45
41760,note_on,0,0,0,,,,,,,,0,,,68,52
41880,set_tempo,120,1,0,,,,,,591133,,,,,,
41880,note_on,0,0,0,,,,,,,,0,,,76,54
41940,note_on,60,0,0,,,,,,,,0,,,68,0
41940,note_on,0,0,0,,,,,,,,0,,,92,0
41940,note_on,0,0,0,,,,,,,,0,,,61,0
42000,set_tempo,60,1,0,,,,,,576923,,,,,,
42000,note_on,0,0,0,,,,,,,,0,,,76,0
42000,note_on,0,0,0,,,,,,,,0,,,102,70
42000,note_on,0,0,0,,,,,,,,0,,,75,47
42120,note_on,120,0,0,,,,,,,,0,,,80,55
42180,note_on,60,0,0,,,,,,,,0,,,75,0
42180,note_on,0,0,0,,,,,,,,0,,,102,0
42240,note_on,60,0,0,,,,,,,,0,,,80,0
42240,note_on,0,0,0,,,,,,,,0,,,100,70
42240,note_on,0,0,0,,,,,,,,0,,,73,47
42360,note_on,120,0,0,,,,,,,,0,,,80,55
42420,note_on,60,0,0,,,,,,,,0,,,73,0
42420,note_on,0,0,0,,,,,,,,0,,,100,0
42480,note_on,60,0,0,,,,,,,,0,,,80,0
42480,note_on,0,0,0,,,,,,,,0,,,99,70
42480,note_on,0,0,0,,,,,,,,0,,,56,45
42480,note_on,0,0,0,,,,,,,,0,,,72,51
42600,note_on,120,0,0,,,,,,,,0,,,80,55
42660,note_on,60,0,0,,,,,,,,0,,,72,0
42660,note_on,0,0,0,,,,,,,,0,,,99,0
42720,note_on,60,0,0,,,,,,,,0,,,56,0
42720,note_on,0,0,0,,,,,,,,0,,,80,0
42720,note_on,0,0,0,,,,,,,,0,,,97,70
42720,note_on,0,0,0,,,,,,,,0,,,70,47
42840,note_on,120,0,0,,,,,,,,0,,,80,55
42900,note_on,60,0,0,,,,,,,,0,,,70,0
42900,note_on,0,0,0,,,,,,,,0,,,97,0
42960,note_on,60,0,0,,,,,,,,0,,,80,0
42960,note_on,0,0,0,,,,,,,,0,,,99,70
42960,note_on,0,0,0,,,,,,,,0,,,72,47
43080,set_tempo,120,1,0,,,,,,597015,,,,,,
43080,note_on,0,0,0,,,,,,,,0,,,80,54
43140,note_on,60,0,0,,,,,,,,0,,,72,0
43140,note_on,0,0,0,,,,,,,,0,,,99,0
43200,set_tempo,60,1,0,,,,,,576923,,,,,,
43200,note_on,0,0,0,,,,,,,,0,,,80,0
43200,note_on,0,0,0,,,,,,,,0,,,100,73
43200,note_on,0,0,0,,,,,,,,0,,,61,45
43200,note_on,0,0,0,,,,,,,,0,,,73,51
43320,note_on,120,0,0,,,,,,,,0,,,80,54
43380,note_on,60,0,0,,,,,,,,0,,,73,0
43380,note_on,0,0,0,,,,,,,,0,,,100,0
43440,note_on,60,0,0,,,,,,,,0,,,61,0
43440,note_on,0,0,0,,,,,,,,0,,,80,0
43440,note_on,0,0,0,,,,,,,,0,,,97,69
43440,note_on,0,0,0,,,,,,,,0,,,76,47
43560,note_on,120,0,0,,,,,,,,0,,,80,55
43620,note_on,60,0,0,,,,,,,,0,,,76,0
43620,note_on,0,0,0,,,,,,,,0,,,97,0
43680,set_tempo,60,1,0,,,,,,594059,,,,,,
43680,note_on,0,0,0,,,,,,,,0,,,80,0
43680,note_on,0,0,0,,,,,,,,0,,,67,57
43726,control_change,46,0,0,,,,,,,,0,64,127,,
43770,note_on,44,0,0,,,,,,,,0,,,67,0
43800,note_on,30,0,0,,,,,,,,0,,,79,57
43890,note_on,90,0,0,,,,,,,,0,,,79,0
43920,set_tempo,30,1,0,,,,,,568720,,,,,,
43920,note_on,0,0,0,,,,,,,,0,,,66,61
43938,control_change,18,0,0,,,,,,,,0,64,0,,
43977,control_change,39,0,0,,,,,,,,0,64,127,,
44010,note_on,33,0,0,,,,,,,,0,,,66,0
44040,note_on,30,0,0,,,,,,,,0,,,78,61
44130,note_on,90,0,0,,,,,,,,0,,,78,0
44160,note_on,30,0,0,,,,,,,,0,,,90,65
44160,note_on,0,0,0,,,,,,,,0,,,63,43
44160,note_on,0,0,0,,,,,,,,0,,,66,47
44177,control_change,17,0,0,,,,,,,,0,64,0,,
44280,note_on,103,0,0,,,,,,,,0,,,78,56
44340,note_on,60,0,0,,,,,,,,0,,,66,0
44340,note_on,0,0,0,,,,,,,,0,,,90,0
44340,note_on,0,0,0,,,,,,,,0,,,63,0
44400,note_on,60,0,0,,,,,,,,0,,,78,0
44400,note_on,0,0,0,,,,,,,,0,,,90,65
44400,note_on,0,0,0,,,,,,,,0,,,61,43
44400,note_on,0,0,0,,,,,,,,0,,,66,47
44520,note_on,120,0,0,,,,,,,,0,,,76,55
44580,note_on,60,0,0,,,,,,,,0,,,66,0
44580,note_on,0,0,0,,,,,,,,0,,,90,0
44580,note_on,0,0,0,,,,,,,,0,,,61,0
44640,note_on,60,0,0,,,,,,,,0,,,76,0
44640,note_on,0,0,0,,,,,,,,0,,,90,67
44640,note_on,0,0,0,,,,,,,,0,,,59,45
44640,note_on,0,0,0,,,,,,,,0,,,66,52
44760,set_tempo,120,1,0,,,,,,591133,,,,,,
44760,note_on,0,0,0,,,,,,,,0,,,75,54
44820,note_on,60,0,0,,,,,,,,0,,,66,0
44820,note_on,0,0,0,,,,,,,,0,,,90,0
44820,note_on,0,0,0,,,,,,,,0,,,59,0
44880,set_tempo,60,1,0,,,,,,560748,,,,,,
44880,note_on,0,0,0,,,,,,,,0,,,75,0
44880,note_on,0,0,0,,,,,,,,0,,,100,70
44880,note_on,0,0,0,,,,,,,,0,,,73,47
45000,note_on,120,0,0,,,,,,,,0,,,78,55
45060,note_on,60,0,0,,,,,,,,0,,,73,0
45060,note_on,0,0,0,,,,,,,,0,,,100,0
45120,note_on,60,0,0,,,,,,,,0,,,78,0
45120,note_on,0,0,0,,,,,,,,0,,,99,70
45120,note_on,0,0,0,,,,,,,,0,,,71,47
45240,note_on,120,0,0,,,,,,,,0,,,78,55
45300,note_on,60,0,0,,,,,,,,0,,,71,0
45300,note_on,0,0,0,,,,,,,,0,,,99,0
45360,set_tempo,60,1,0,,,,,,568720,,,,,,
45360,note_on,0,0,0,,,,,,,,0,,,78,0
45360,note_on,0,0,0,,,,,,,,0,,,97,70
45360,note_on,0,0,0,,,,,,,,0,,,54,45
45360,note_on,0,0,0,,,,,,,,0,,,70,51
45480,note_on,120,0,0,,,,,,,,0,,,78,55
45540,note_on,60,0,0,,,,,,,,0,,,70,0
45540,note_on,0,0,0,,,,,,,,0,,,97,0
45600,note_on,60,0,0,,,,,,,,0,,,54,0
45600,note_on,0,0,0,,,,,,,,0,,,78,0
45600,note_on,0,0,0,,,,,,,,0,,,95,70
45600,note_on,0,0,0,,,,,,,,0,,,68,47
45720,note_on,120,0,0,,,,,,,,0,,,78,55
45780,note_on,60,0,0,,,,,,,,0,,,68,0
45780,note_on,0,0,0,,,,,,,,0,,,95,0
45840,note_on,60,0,0,,,,,,,,0,,,78,0
45840,note_on,0,0,0,,,,,,,,0,,,97,70
45840,note_on,0,0,0,,,,,,,,0,,,70,47
45960,set_tempo,120,1,0,,,,,,597015,,,,,,
45960,note_on,0,0,0,,,,,,,,0,,,78,54
46020,note_on,60,0,0,,,,,,,,0,,,70,0
46020,note_on,0,0,0,,,,,,,,0,,,97,0
46080,set_tempo,60,1,0,,,,,,576923,,,,,,
46080,note_on,0,0,0,,,,,,,,0,,,78,0
46080,note_on,0,0,0,,,,,,,,0,,,99,73
46080,note_on,0,0,0,,,,,,,,0,,,59,45
46080,note_on,0,0,0,,,,,,,,0,,,71,51
46200,note_on,120,0,0,,,,,,,,0,,,78,54
46260,note_on,60,0,0,,,,,,,,0,,,71,0
46260,note_on,0,0,0,,,,,,,,0,,,99,0
46320,note_on,60,0,0,,,,,,,,0,,,59,0
46320,note_on,0,0,0,,,,,,,,0,,,78,0
46320,note_on,0,0,0,,,,,,,,0,,,95,69
46320,note_on,0,0,0,,,,,,,,0,,,75,47
46440,note_on,120,0,0,,,,,,,,0,,,78,55
46500,note_on,60,0,0,,,,,,,,0,,,75,0
46500,note_on,0,0,0,,,,,,,,0,,,95,0
46560,set_tempo,60,1,0,,,,,,568720,,,,,,
46560,note_on,0,0,0,,,,,,,,0,,,78,0
46560,note_on,0,0,0,,,,,,,,0,,,62,57
46650,note_on,90,0,0,,,,,,,,0,,,62,0
46680,note_on,30,0,0,,,,,,,,0,,,74,52
46770,note_on,90,0,0,,,,,,,,0,,,74,0
46800,set_tempo,30,1,0,,,,,,563380,,,,,,
46800,note_on,0,0,0,,,,,,,,0,,,63,66
46864,control_change,64,0,0,,,,,,,,0,64,127,,
46890,note_on,26,0,0,,,,,,,,0,,,63,0
46920,note_on,30,0,0,,,,,,,,0,,,75,61
47010,note_on,90,0,0,,,,,,,,0,,,75,0
47040,set_tempo,30,1,0,,,,,,571429,,,,,,
47040,note_on,0,0,0,,,,,,,,0,,,87,61
47040,note_on,0,0,0,,,,,,,,0,,,63,52
47040,note_on,0,0,0,,,,,,,,0,,,55,45
47059,control_change,19,0,0,,,,,,,,0,64,0,,
47130,note_on,71,0,0,,,,,,,,0,,,87,0
47160,note_on,30,0,0,,,,,,,,0,,,75,52
47220,note_on,60,0,0,,,,,,,,0,,,55,0
47220,note_on,0,0,0,,,,,,,,0,,,63,0
47250,note_on,30,0,0,,,,,,,,0,,,75,0
47280,set_tempo,30,1,0,,,,,,568720,,,,,,
47280,note_on,0,0,0,,,,,,,,0,,,87,60
47280,note_on,0,0,0,,,,,,,,0,,,56,45
47280,note_on,0,0,0,,,,,,,,0,,,65,52
47370,note_on,90,0,0,,,,,,,,0,,,87,0
47400,note_on,30,0,0,,,,,,,,0,,,74,54
47460,note_on,60,0,0,,,,,,,,0,,,65,0
47460,note_on,0,0,0,,,,,,,,0,,,56,0
47490,note_on,30,0,0,,,,,,,,0,,,74,0
47520,set_tempo,30,1,0,,,,,,566038,,,,,,
47520,note_on,0,0,0,,,,,,,,0,,,87,61
47520,note_on,0,0,0,,,,,,,,0,,,58,52
47520,note_on,0,0,0,,,,,,,,0,,,67,57
47610,note_on,90,0,0,,,,,,,,0,,,87,0
47640,note_on,30,0,0,,,,,,,,0,,,73,55
47700,note_on,60,0,0,,,,,,,,0,,,67,0
47700,note_on,0,0,0,,,,,,,,0,,,58,0
47730,note_on,30,0,0,,,,,,,,0,,,73,0
47760,set_tempo,30,1,0,,,,,,563380,,,,,,
47760,note_on,0,0,0,,,,,,,,0,,,87,60
47760,note_on,0,0,0,,,,,,,,0,,,58,53
47760,note_on,0,0,0,,,,,,,,0,,,67,59
47850,note_on,90,0,0,,,,,,,,0,,,87,0
47880,note_on,30,0,0,,,,,,,,0,,,73,57
47940,note_on,60,0,0,,,,,,,,0,,,67,0
47940,note_on,0,0,0,,,,,,,,0,,,58,0
48000,set_tempo,60,1,0,,,,,,568720,,,,,,
48000,note_on,0,0,0,,,,,,,,0,,,73,0
48000,note_on,0,0,0,,,,,,,,0,,,87,61
48000,note_on,0,0,0,,,,,,,,0,,,59,53
48000,note_on,0,0,0,,,,,,,,0,,,68,59
48090,note_on,90,0,0,,,,,,,,0,,,87,0
48120,note_on,30,0,0,,,,,,,,0,,,71,64
48180,note_on,60,0,0,,,,,,,,0,,,68,0
48180,note_on,0,0,0,,,,,,,,0,,,59,0
48210,note_on,30,0,0,,,,,,,,0,,,71,0
48240,set_tempo,30,1,0,,,,,,555556,,,,,,
48240,note_on,0,0,0,,,,,,,,0,,,76,54
48240,note_on,0,0,0,,,,,,,,0,,,88,73
48240,note_on,0,0,0,,,,,,,,0,,,61,52
48240,note_on,0,0,0,,,,,,,,0,,,70,57
48330,note_on,90,0,0,,,,,,,,0,,,88,0
48330,note_on,0,0,0,,,,,,,,0,,,76,0
48360,note_on,30,0,0,,,,,,,,0,,,82,54
48360,note_on,0,0,0,,,,,,,,0,,,87,72
48420,note_on,60,0,0,,,,,,,,0,,,61,0
48420,note_on,0,0,0,,,,,,,,0,,,70,0
48450,note_on,30,0,0,,,,,,,,0,,,82,0
48450,note_on,0,0,0,,,,,,,,0,,,87,0
48480,note_on,30,0,0,,,,,,,,0,,,73,52
48480,note_on,0,0,0,,,,,,,,0,,,85,71
48570,note_on,90,0,0,,,,,,,,0,,,85,0
48570,note_on,0,0,0,,,,,,,,0,,,73,0
48600,note_on,30,0,0,,,,,,,,0,,,76,51
48600,note_on,0,0,0,,,,,,,,0,,,83,70
48690,note_on,90,0,0,,,,,,,,0,,,83,0
48690,note_on,0,0,0,,,,,,,,0,,,76,0
48720,note_on,30,0,0,,,,,,,,0,,,71,51
48720,note_on,0,0,0,,,,,,,,0,,,82,70
48720,note_on,0,0,0,,,,,,,,0,,,62,45
48720,note_on,0,0,0,,,,,,,,0,,,65,52
48810,note_on,90,0,0,,,,,,,,0,,,82,0
48810,note_on,0,0,0,,,,,,,,0,,,71,0
48840,set_tempo,30,1,0,,,,,,552995,,,,,,
48840,note_on,0,0,0,,,,,,,,0,,,77,51
48840,note_on,0,0,0,,,,,,,,0,,,80,69
48900,note_on,60,0,0,,,,,,,,0,,,62,0
48900,note_on,0,0,0,,,,,,,,0,,,65,0
48930,note_on,30,0,0,,,,,,,,0,,,77,0
48930,note_on,0,0,0,,,,,,,,0,,,80,0
48940,set_tempo,10,1,0,,,,,,538117,,,,,,
48960,set_tempo,20,1,0,,,,,,558140,,,,,,
48960,note_on,0,0,0,,,,,,,,0,,,70,51
48960,note_on,0,0,0,,,,,,,,0,,,79,69
48960,note_on,0,0,0,,,,,,,,0,,,63,50
48960,note_on,0,0,0,,,,,,,,0,,,67,55
49050,note_on,90,0,0,,,,,,,,0,,,79,0
49050,note_on,0,0,0,,,,,,,,0,,,70,0
49080,note_on,30,0,0,,,,,,,,0,,,75,47
49080,note_on,0,0,0,,,,,,,,0,,,82,65
49140,note_on,60,0,0,,,,,,,,0,,,63,0
49140,note_on,0,0,0,,,,,,,,0,,,67,0
49170,note_on,30,0,0,,,,,,,,0,,,75,0
49170,note_on,0,0,0,,,,,,,,0,,,82,0
49200,note_on,30,0,0,,,,,,,,0,,,79,45
49200,note_on,0,0,0,,,,,,,,0,,,83,62
49220,set_tempo,20,1,0,,,,,,545455,,,,,,
49290,note_on,70,0,0,,,,,,,,0,,,83,0
49290,note_on,0,0,0,,,,,,,,0,,,79,0
49300,set_tempo,10,1,0,,,,,,547945,,,,,,
49320,set_tempo,20,1,0,,,,,,568720,,,,,,
49320,note_on,0,0,0,,,,,,,,0,,,75,43
49320,note_on,0,0,0,,,,,,,,0,,,82,57
49410,note_on,90,0,0,,,,,,,,0,,,82,0
49410,note_on,0,0,0,,,,,,,,0,,,75,0
49440,set_tempo,30,1,0,,,,,,563380,,,,,,
49440,note_on,0,0,0,,,,,,,,0,,,74,57
49468,control_change,28,0,0,,,,,,,,0,64,127,,
49530,note_on,62,0,0,,,,,,,,0,,,74,0
49560,note_on,30,0,0,,,,,,,,0,,,86,52
49650,note_on,90,0,0,,,,,,,,0,,,86,0
49680,note_on,30,0,0,,,,,,,,0,,,75,66
49699,control_change,19,0,0,,,,,,,,0,64,0,,
49733,control_change,34,0,0,,,,,,,,0,64,127,,
49770,note_on,37,0,0,,,,,,,,0,,,75,0
49800,note_on,30,0,0,,,,,,,,0,,,87,61
49890,note_on,90,0,0,,,,,,,,0,,,87,0
49920,set_tempo,30,1,0,,,,,,571429,,,,,,
49920,note_on,0,0,0,,,,,,,,0,,,99,60
49920,note_on,0,0,0,,,,,,,,0,,,75,45
49920,note_on,0,0,0,,,,,,,,0,,,67,41
49931,control_change,11,0,0,,,,,,,,0,64,0,,
50010,note_on,79,0,0,,,,,,,,0,,,99,0
50040,note_on,30,0,0,,,,,,,,0,,,87,50
50100,note_on,60,0,0,,,,,,,,0,,,67,0
50100,note_on,0,0,0,,,,,,,,0,,,75,0
50120,set_tempo,20,1,0,,,,,,568720,,,,,,
50130,note_on,10,0,0,,,,,,,,0,,,87,0
50160,note_on,30,0,0,,,,,,,,0,,,99,56
50160,note_on,0,0,0,,,,,,,,0,,,68,41
50160,note_on,0,0,0,,,,,,,,0,,,77,45
50250,note_on,90,0,0,,,,,,,,0,,,99,0
50280,note_on,30,0,0,,,,,,,,0,,,86,52
50300,set_tempo,20,1,0,,,,,,566038,,,,,,
50340,note_on,40,0,0,,,,,,,,0,,,77,0
50340,note_on,0,0,0,,,,,,,,0,,,68,0
50370,note_on,30,0,0,,,,,,,,0,,,86,0
50400,note_on,30,0,0,,,,,,,,0,,,99,57
50400,note_on,0,0,0,,,,,,,,0,,,70,45
50400,note_on,0,0,0,,,,,,,,0,,,79,51
50480,set_tempo,80,1,0,,,,,,563380,,,,,,
50490,note_on,10,0,0,,,,,,,,0,,,99,0
50520,note_on,30,0,0,,,,,,,,0,,,85,54
50580,note_on,60,0,0,,,,,,,,0,,,79,0
50580,note_on,0,0,0,,,,,,,,0,,,70,0
50610,note_on,30,0,0,,,,,,,,0,,,85,0
50640,note_on,30,0,0,,,,,,,,0,,,99,61
50640,note_on,0,0,0,,,,,,,,0,,,70,45
50640,note_on,0,0,0,,,,,,,,0,,,79,52
50660,set_tempo,20,1,0,,,,,,560748,,,,,,
50730,note_on,70,0,0,,,,,,,,0,,,99,0
50760,note_on,30,0,0,,,,,,,,0,,,85,55
50820,note_on,60,0,0,,,,,,,,0,,,79,0
50820,note_on,0,0,0,,,,,,,,0,,,70,0
50880,set_tempo,60,1,0,,,,,,571429,,,,,,
50880,note_on,0,0,0,,,,,,,,0,,,85,0
50880,note_on,0,0,0,,,,,,,,0,,,99,61
50880,note_on,0,0,0,,,,,,,,0,,,71,45
50880,note_on,0,0,0,,,,,,,,0,,,80,52
50970,note_on,90,0,0,,,,,,,,0,,,99,0
51000,note_on,30,0,0,,,,,,,,0,,,83,63
51060,note_on,60,0,0,,,,,,,,0,,,80,0
51060,note_on,0,0,0,,,,,,,,0,,,71,0
51090,note_on,30,0,0,,,,,,,,0,,,83,0
51120,set_tempo,30,1,0,,,,,,555556,,,,,,
51120,note_on,0,0,0,,,,,,,,0,,,88,47
51120,note_on,0,0,0,,,,,,,,0,,,100,66
51120,note_on,0,0,0,,,,,,,,0,,,73,45
51120,note_on,0,0,0,,,,,,,,0,,,81,51
51210,note_on,90,0,0,,,,,,,,0,,,100,0
51210,note_on,0,0,0,,,,,,,,0,,,88,0
51240,note_on,30,0,0,,,,,,,,0,,,93,47
51240,note_on,0,0,0,,,,,,,,0,,,99,64
51300,note_on,60,0,0,,,,,,,,0,,,73,0
51300,note_on,0,0,0,,,,,,,,0,,,81,0
51330,note_on,30,0,0,,,,,,,,0,,,93,0
51330,note_on,0,0,0,,,,,,,,0,,,99,0
51360,note_on,30,0,0,,,,,,,,0,,,85,46
51360,note_on,0,0,0,,,,,,,,0,,,97,63
51450,note_on,90,0,0,,,,,,,,0,,,97,0
51450,note_on,0,0,0,,,,,,,,0,,,85,0
51480,note_on,30,0,0,,,,,,,,0,,,88,45
51480,note_on,0,0,0,,,,,,,,0,,,95,62
51570,note_on,90,0,0,,,,,,,,0,,,95,0
51570,note_on,0,0,0,,,,,,,,0,,,88,0
51600,note_on,30,0,0,,,,,,,,0,,,83,45
51600,note_on,0,0,0,,,,,,,,0,,,93,62
51600,note_on,0,0,0,,,,,,,,0,,,74,42
51600,note_on,0,0,0,,,,,,,,0,,,77,46
51690,note_on,90,0,0,,,,,,,,0,,,93,0
51690,note_on,0,0,0,,,,,,,,0,,,83,0
51720,note_on,30,0,0,,,,,,,,0,,,89,45
51720,note_on,0,0,0,,,,,,,,0,,,92,61
51780,note_on,60,0,0,,,,,,,,0,,,74,0
51780,note_on,0,0,0,,,,,,,,0,,,77,0
51810,note_on,30,0,0,,,,,,,,0,,,89,0
51810,note_on,0,0,0,,,,,,,,0,,,92,0
51840,set_tempo,30,1,0,,,,,,563380,,,,,,
51840,note_on,0,0,0,,,,,,,,0,,,91,63
51840,note_on,0,0,0,,,,,,,,0,,,82,45
51840,note_on,0,0,0,,,,,,,,0,,,75,42
51840,note_on,0,0,0,,,,,,,,0,,,79,46
51930,note_on,90,0,0,,,,,,,,0,,,82,0
51930,note_on,0,0,0,,,,,,,,0,,,91,0
51960,note_on,30,0,0,,,,,,,,0,,,87,45
51960,note_on,0,0,0,,,,,,,,0,,,94,57
52020,note_on,60,0,0,,,,,,,,0,,,75,0
52020,note_on,0,0,0,,,,,,,,0,,,79,0
52050,note_on,30,0,0,,,,,,,,0,,,87,0
52050,note_on,0,0,0,,,,,,,,0,,,94,0
52080,set_tempo,30,1,0,,,,,,555556,,,,,,
52080,note_on,0,0,0,,,,,,,,0,,,74,57
52098,control_change,18,0,0,,,,,,,,0,64,127,,
52170,note_on,72,0,0,,,,,,,,0,,,74,0
52200,note_on,30,0,0,,,,,,,,0,,,86,52
52290,note_on,90,0,0,,,,,,,,0,,,86,0
52320,note_on,30,0,0,,,,,,,,0,,,75,52
52327,control_change,7,0,0,,,,,,,,0,64,0,,
52373,control_change,46,0,0,,,,,,,,0,64,127,,
52410,note_on,37,0,0,,,,,,,,0,,,75,0
52440,note_on,30,0,0,,,,,,,,0,,,87,52
52530,note_on,90,0,0,,,,,,,,0,,,87,0
52560,note_on,30,0,0,,,,,,,,0,,,99,60
52568,control_change,8,0,0,,,,,,,,0,64,0,,
52650,note_on,82,0,0,,,,,,,,0,,,99,0
52680,note_on,30,0,0,,,,,,,,0,,,87,55
52770,note_on,90,0,0,,,,,,,,0,,,87,0
52800,note_on,30,0,0,,,,,,,,0,,,75,56
52818,control_change,18,0,0,,,,,,,,0,64,127,,
52890,note_on,72,0,0,,,,,,,,0,,,75,0
52920,note_on,30,0,0,,,,,,,,0,,,87,51
53010,note_on,90,0,0,,,,,,,,0,,,87,0
53040,note_on,30,0,0,,,,,,,,0,,,76,57
53053,control_change,13,0,0,,,,,,,,0,64,0,,
53083,control_change,30,0,0,,,,,,,,0,64,127,,
53130,note_on,47,0,0,,,,,,,,0,,,76,0
53160,note_on,30,0,0,,,,,,,,0,,,88,54
53250,note_on,90,0,0,,,,,,,,0,,,88,0
53280,note_on,30,0,0,,,,,,,,0,,,99,61
53286,control_change,6,0,0,,,,,,,,0,64,0,,
53370,note_on,84,0,0,,,,,,,,0,,,99,0
53400,note_on,30,0,0,,,,,,,,0,,,87,56
53490,note_on,90,0,0,,,,,,,,0,,,87,0
53520,note_on,30,0,0,,,,,,,,0,,,76,59
53540,set_tempo,20,1,0,,,,,,555556,,,,,,
53577,control_change,37,0,0,,,,,,,,0,64,127,,
53610,note_on,33,0,0,,,,,,,,0,,,76,0
53640,note_on,30,0,0,,,,,,,,0,,,88,54
53730,note_on,90,0,0,,,,,,,,0,,,88,0
53760,note_on,30,0,0,,,,,,,,0,,,77,62
53769,control_change,9,0,0,,,,,,,,0,64,0,,
53780,set_tempo,11,1,0,,,,,,552995,,,,,,
53840,control_change,60,0,0,,,,,,,,0,64,127,,
53850,note_on,10,0,0,,,,,,,,0,,,77,0
53880,note_on,30,0,0,,,,,,,,0,,,89,57
53970,note_on,90,0,0,,,,,,,,0,,,89,0
54000,note_on,30,0,0,,,,,,,,0,,,99,64
54020,set_tempo,20,1,0,,,,,,550459,,,,,,
54023,control_change,3,0,0,,,,,,,,0,64,0,,
54090,note_on,67,0,0,,,,,,,,0,,,99,0
54120,note_on,30,0,0,,,,,,,,0,,,87,57
54210,note_on,90,0,0,,,,,,,,0,,,87,0
54240,note_on,30,0,0,,,,,,,,0,,,78,61
54257,control_change,17,0,0,,,,,,,,0,64,127,,
54260,set_tempo,3,1,0,,,,,,547945,,,,,,
54330,note_on,70,0,0,,,,,,,,0,,,78,0
54360,note_on,30,0,0,,,,,,,,0,,,90,56
54450,note_on,90,0,0,,,,,,,,0,,,90,0
54480,note_on,30,0,0,,,,,,,,0,,,99,67
54487,control_change,7,0,0,,,,,,,,0,64,0,,
54500,set_tempo,13,1,0,,,,,,545455,,,,,,
54570,note_on,70,0,0,,,,,,,,0,,,99,0
54600,note_on,30,0,0,,,,,,,,0,,,87,62
54690,note_on,90,0,0,,,,,,,,0,,,87,0
54720,note_on,30,0,0,,,,,,,,0,,,79,64
54740,set_tempo,20,1,0,,,,,,542986,,,,,,
54766,control_change,26,0,0,,,,,,,,0,64,127,,
54810,note_on,44,0,0,,,,,,,,0,,,79,0
54840,note_on,30,0,0,,,,,,,,0,,,91,60
54930,note_on,90,0,0,,,,,,,,0,,,91,0
54960,note_on,30,0,0,,,,,,,,0,,,99,70
54980,set_tempo,20,1,0,,,,,,540541,,,,,,
54981,control_change,1,0,0,,,,,,,,0,64,0,,
55050,note_on,69,0,0,,,,,,,,0,,,99,0
55080,note_on,30,0,0,,,,,,,,0,,,87,62
55170,note_on,90,0,0,,,,,,,,0,,,87,0
55200,note_on,30,0,0,,,,,,,,0,,,80,70
55220,set_tempo,20,1,0,,,,,,538117,,,,,,
55246,control_change,26,0,0,,,,,,,,0,64,127,,
55290,note_on,44,0,0,,,,,,,,0,,,80,0
55320,note_on,30,0,0,,,,,,,,0,,,92,65
55410,note_on,90,0,0,,,,,,,,0,,,92,0
55440,note_on,30,0,0,,,,,,,,0,,,99,71
55455,control_change,15,0,0,,,,,,,,0,64,0,,
55460,set_tempo,5,1,0,,,,,,535714,,,,,,
55530,note_on,70,0,0,,,,,,,,0,,,99,0
55559,set_tempo,29,1,0,,,,,,528634,,,,,,
55560,note_on,1,0,0,,,,,,,,0,,,81,71
55650,note_on,90,0,0,,,,,,,,0,,,81,0
55680,note_on,30,0,0,,,,,,,,0,,,99,72
55761,set_tempo,81,1,0,,,,,,526316,,,,,,
55770,note_on,9,0,0,,,,,,,,0,,,99,0
55800,note_on,30,0,0,,,,,,,,0,,,82,72
55890,note_on,90,0,0,,,,,,,,0,,,82,0
55920,note_on,30,0,0,,,,,,,,0,,,99,72
55938,set_tempo,18,1,0,,,,,,524017,,,,,,
56010,note_on,72,0,0,,,,,,,,0,,,99,0
56040,note_on,30,0,0,,,,,,,,0,,,83,73
56115,set_tempo,75,1,0,,,,,,521739,,,,,,
56130,note_on,15,0,0,,,,,,,,0,,,83,0
56160,note_on,30,0,0,,,,,,,,0,,,99,75
56241,set_tempo,81,1,0,,,,,,519481,,,,,,
56250,note_on,9,0,0,,,,,,,,0,,,99,0
56280,note_on,30,0,0,,,,,,,,0,,,84,75
56342,set_tempo,62,1,0,,,,,,517241,,,,,,
56370,note_on,28,0,0,,,,,,,,0,,,84,0
56400,note_on,30,0,0,,,,,,,,0,,,99,76
56443,set_tempo,43,1,0,,,,,,515021,,,,,,
56490,note_on,47,0,0,,,,,,,,0,,,99,0
56520,note_on,30,0,0,,,,,,,,0,,,85,77
56544,set_tempo,24,1,0,,,,,,512821,,,,,,
56610,note_on,66,0,0,,,,,,,,0,,,85,0
56640,note_on,30,0,0,,,,,,,,0,,,99,79
56646,set_tempo,6,1,0,,,,,,510638,,,,,,
56730,note_on,84,0,0,,,,,,,,0,,,99,0
56747,set_tempo,17,1,0,,,,,,508475,,,,,,
56760,note_on,13,0,0,,,,,,,,0,,,86,79
56797,set_tempo,37,1,0,,,,,,508475,,,,,,
56850,note_on,53,0,0,,,,,,,,0,,,86,0
56880,note_on,30,0,0,,,,,,,,0,,,99,80
56970,note_on,90,0,0,,,,,,,,0,,,99,0
57000,note_on,30,0,0,,,,,,,,0,,,87,81
57090,note_on,90,0,0,,,,,,,,0,,,87,0
57120,note_on,30,0,0,,,,,,,,0,,,99,81
57210,note_on,90,0,0,,,,,,,,0,,,99,0
57240,note_on,30,0,0,,,,,,,,0,,,87,81
57330,note_on,90,0,0,,,,,,,,0,,,87,0
57360,note_on,30,0,0,,,,,,,,0,,,99,82
57450,note_on,90,0,0,,,,,,,,0,,,99,0
57480,note_on,30,0,0,,,,,,,,0,,,87,81
57570,note_on,90,0,0,,,,,,,,0,,,87,0
57580,set_tempo,10,1,0,,,,,,526316,,,,,,
57580,set_tempo,0,1,0,,,,,,508475,,,,,,
57600,note_on,20,0,0,,,,,,,,0,,,99,81
57606,set_tempo,6,1,0,,,,,,510638,,,,,,
57631,set_tempo,25,1,0,,,,,,512821,,,,,,
57656,set_tempo,25,1,0,,,,,,515021,,,,,,
57681,set_tempo,25,1,0,,,,,,517241,,,,,,
57690,note_on,9,0,0,,,,,,,,0,,,99,0
57706,set_tempo,16,1,0,,,,,,519481,,,,,,
57720,note_on,14,0,0,,,,,,,,0,,,87,79
57782,set_tempo,62,1,0,,,,,,521739,,,,,,
57810,note_on,28,0,0,,,,,,,,0,,,87,0
57840,note_on,30,0,0,,,,,,,,0,,,99,81
57857,set_tempo,17,1,0,,,,,,524017,,,,,,
57930,note_on,73,0,0,,,,,,,,0,,,99,0
57933,set_tempo,3,1,0,,,,,,526316,,,,,,
57960,note_on,27,0,0,,,,,,,,0,,,87,76
58009,set_tempo,49,1,0,,,,,,528634,,,,,,
58050,note_on,41,0,0,,,,,,,,0,,,87,0
58080,note_on,30,0,0,,,,,,,,0,,,99,72
58170,note_on,90,0,0,,,,,,,,0,,,99,0
58200,note_on,30,0,0,,,,,,,,0,,,87,61
58290,note_on,90,0,0,,,,,,,,0,,,87,0
58320,note_on,30,0,0,,,,,,,,0,,,99,62
58410,note_on,90,0,0,,,,,,,,0,,,99,0
58440,set_tempo,30,1,0,,,,,,552995,,,,,,
58440,note_on,0,0,0,,,,,,,,0,,,87,61
58530,note_on,90,0,0,,,,,,,,0,,,87,0
58560,set_tempo,30,1,0,,,,,,535714,,,,,,
58560,note_on,0,0,0,,,,,,,,0,,,75,59
58666,control_change,106,0,0,,,,,,,,0,64,127,,
58680,note_on,14,0,0,,,,,,,,0,,,87,61
58770,note_on,90,0,0,,,,,,,,0,,,87,0
58800,note_on,30,0,0,,,,,,,,0,,,75,0
58800,note_on,0,0,0,,,,,,,,0,,,99,61
58890,note_on,90,0,0,,,,,,,,0,,,99,0
58920,set_tempo,30,1,0,,,,,,555556,,,,,,
58920,note_on,0,0,0,,,,,,,,0,,,87,61
59010,note_on,90,0,0,,,,,,,,0,,,87,0
59040,set_tempo,30,1,0,,,,,,535714,,,,,,
59040,note_on,0,0,0,,,,,,,,0,,,75,59
59160,note_on,120,0,0,,,,,,,,0,,,87,55
59250,note_on,90,0,0,,,,,,,,0,,,87,0
59280,note_on,30,0,0,,,,,,,,0,,,75,0
59280,note_on,0,0,0,,,,,,,,0,,,99,55
59370,note_on,90,0,0,,,,,,,,0,,,99,0
59400,set_tempo,30,1,0,,,,,,552995,,,,,,
59400,note_on,0,0,0,,,,,,,,0,,,87,55
59490,note_on,90,0,0,,,,,,,,0,,,87,0
59520,set_tempo,30,1,0,,,,,,528634,,,,,,
59520,note_on,0,0,0,,,,,,,,0,,,75,61
59520,note_on,0,0,0,,,,,,,,0,,,63,49
59538,control_change,18,0,0,,,,,,,,0,64,0,,
59540,set_tempo,2,1,0,,,,,,533333,,,,,,
59594,control_change,54,0,0,,,,,,,,0,64,127,,
59610,note_on,16,0,0,,,,,,,,0,,,75,0
59640,note_on,30,0,0,,,,,,,,0,,,87,55
59700,note_on,60,0,0,,,,,,,,0,,,63,0
59730,note_on,30,0,0,,,,,,,,0,,,87,0
59760,note_on,30,0,0,,,,,,,,0,,,99,47
59760,note_on,0,0,0,,,,,,,,0,,,75,54
59850,note_on,90,0,0,,,,,,,,0,,,99,0
59880,note_on,30,0,0,,,,,,,,0,,,87,47
59940,note_on,60,0,0,,,,,,,,0,,,75,0
59970,note_on,30,0,0,,,,,,,,0,,,87,0
60000,note_on,30,0,0,,,,,,,,0,,,75,55
60020,set_tempo,20,1,0,,,,,,530973,,,,,,
60120,note_on,100,0,0,,,,,,,,0,,,87,47
60210,note_on,90,0,0,,,,,,,,0,,,87,0
60240,note_on,30,0,0,,,,,,,,0,,,75,0
60240,note_on,0,0,0,,,,,,,,0,,,99,47
60240,note_on,0,0,0,,,,,,,,0,,,73,51
60330,note_on,90,0,0,,,,,,,,0,,,99,0
60360,note_on,30,0,0,,,,,,,,0,,,87,47
60420,note_on,60,0,0,,,,,,,,0,,,73,0
60450,note_on,30,0,0,,,,,,,,0,,,87,0
60480,set_tempo,30,1,0,,,,,,512821,,,,,,
60480,note_on,0,0,0,,,,,,,,0,,,75,47
60480,note_on,0,0,0,,,,,,,,0,,,56,42
60480,note_on,0,0,0,,,,,,,,0,,,71,54
60516,control_change,36,0,0,,,,,,,,0,64,0,,
60565,control_change,49,0,0,,,,,,,,0,64,127,,
60570,note_on,5,0,0,,,,,,,,0,,,75,0
60600,note_on,30,0,0,,,,,,,,0,,,87,47
60660,note_on,60,0,0,,,,,,,,0,,,71,0
60690,note_on,30,0,0,,,,,,,,0,,,87,0
60720,set_tempo,30,1,0,,,,,,526316,,,,,,
60720,note_on,0,0,0,,,,,,,,0,,,56,0
60720,note_on,0,0,0,,,,,,,,0,,,99,47
60720,control_change,0,0,0,,,,,,,,0,64,0,,
60720,note_on,0,0,0,,,,,,,,0,,,71,50
60810,note_on,90,0,0,,,,,,,,0,,,99,0
60840,note_on,30,0,0,,,,,,,,0,,,87,49
60900,note_on,60,0,0,,,,,,,,0,,,71,0
60930,note_on,30,0,0,,,,,,,,0,,,87,0
60960,set_tempo,30,1,0,,,,,,538117,,,,,,
60960,note_on,0,0,0,,,,,,,,0,,,75,51
60960,note_on,0,0,0,,,,,,,,0,,,70,51
61050,note_on,90,0,0,,,,,,,,0,,,75,0
61080,note_on,30,0,0,,,,,,,,0,,,87,51
61140,note_on,60,0,0,,,,,,,,0,,,70,0
61170,note_on,30,0,0,,,,,,,,0,,,87,0
61200,set_tempo,30,1,0,,,,,,517241,,,,,,
61200,note_on,0,0,0,,,,,,,,0,,,99,54
61200,note_on,0,0,0,,,,,,,,0,,,59,37
61200,note_on,0,0,0,,,,,,,,0,,,68,54
61290,note_on,90,0,0,,,,,,,,0,,,99,0
61320,note_on,30,0,0,,,,,,,,0,,,87,54
61380,note_on,60,0,0,,,,,,,,0,,,68,0
61410,note_on,30,0,0,,,,,,,,0,,,87,0
61440,set_tempo,30,1,0,,,,,,528634,,,,,,
61440,note_on,0,0,0,,,,,,,,0,,,59,0
61440,note_on,0,0,0,,,,,,,,0,,,75,54
61440,note_on,0,0,0,,,,,,,,0,,,67,54
61530,note_on,90,0,0,,,,,,,,0,,,75,0
61560,note_on,30,0,0,,,,,,,,0,,,87,55
61620,note_on,60,0,0,,,,,,,,0,,,67,0
61650,note_on,30,0,0,,,,,,,,0,,,87,0
61680,note_on,30,0,0,,,,,,,,0,,,99,57
61680,note_on,0,0,0,,,,,,,,0,,,68,57
61770,note_on,90,0,0,,,,,,,,0,,,99,0
61800,note_on,30,0,0,,,,,,,,0,,,87,57
61860,note_on,60,0,0,,,,,,,,0,,,68,0
61860,note_on,0,0,0,,,,,,,,0,,,67,45
61890,note_on,30,0,0,,,,,,,,0,,,87,0
61920,set_tempo,30,1,0,,,,,,533333,,,,,,
61920,note_on,0,0,0,,,,,,,,0,,,75,60
61920,note_on,0,0,0,,,,,,,,0,,,70,62
61973,control_change,53,0,0,,,,,,,,0,64,127,,
62010,note_on,37,0,0,,,,,,,,0,,,75,0
62040,note_on,30,0,0,,,,,,,,0,,,87,60
62130,note_on,90,0,0,,,,,,,,0,,,87,0
62160,note_on,30,0,0,,,,,,,,0,,,70,0
62160,note_on,0,0,0,,,,,,,,0,,,67,0
62160,note_on,0,0,0,,,,,,,,0,,,99,60
62160,note_on,0,0,0,,,,,,,,0,,,63,54
62174,control_change,14,0,0,,,,,,,,0,64,0,,
62250,note_on,76,0,0,,,,,,,,0,,,99,0
62280,note_on,30,0,0,,,,,,,,0,,,87,59
62340,note_on,60,0,0,,,,,,,,0,,,63,0
62370,note_on,30,0,0,,,,,,,,0,,,87,0
62400,set_tempo,30,1,0,,,,,,538117,,,,,,
62400,note_on,0,0,0,,,,,,,,0,,,75,59
62400,note_on,0,0,0,,,,,,,,0,,,63,54
62490,note_on,90,0,0,,,,,,,,0,,,75,0
62520,note_on,30,0,0,,,,,,,,0,,,87,57
62580,note_on,60,0,0,,,,,,,,0,,,63,0
62610,note_on,30,0,0,,,,,,,,0,,,87,0
62640,set_tempo,30,1,0,,,,,,528634,,,,,,
62640,note_on,0,0,0,,,,,,,,0,,,99,57
62640,note_on,0,0,0,,,,,,,,0,,,55,44
62640,note_on,0,0,0,,,,,,,,0,,,64,56
62730,note_on,90,0,0,,,,,,,,0,,,99,0
62760,note_on,30,0,0,,,,,,,,0,,,87,57
62820,note_on,60,0,0,,,,,,,,0,,,64,0
62850,note_on,30,0,0,,,,,,,,0,,,87,0
62880,note_on,30,0,0,,,,,,,,0,,,55,0
62880,note_on,0,0,0,,,,,,,,0,,,75,56
62880,note_on,0,0,0,,,,,,,,0,,,63,52
62970,note_on,90,0,0,,,,,,,,0,,,75,0
63000,note_on,30,0,0,,,,,,,,0,,,87,56
63060,note_on,60,0,0,,,,,,,,0,,,63,0
63090,note_on,30,0,0,,,,,,,,0,,,87,0
63120,note_on,30,0,0,,,,,,,,0,,,99,54
63120,note_on,0,0,0,,,,,,,,0,,,61,52
63210,note_on,90,0,0,,,,,,,,0,,,99,0
63240,note_on,30,0,0,,,,,,,,0,,,87,54
63300,note_on,60,0,0,,,,,,,,0,,,61,0
63330,note_on,30,0,0,,,,,,,,0,,,87,0
63360,note_on,30,0,0,,,,,,,,0,,,75,54
63360,note_on,0,0,0,,,,,,,,0,,,56,44
63360,note_on,0,0,0,,,,,,,,0,,,59,54
63403,control_change,43,0,0,,,,,,,,0,64,127,,
63450,note_on,47,0,0,,,,,,,,0,,,75,0
63480,note_on,30,0,0,,,,,,,,0,,,87,54
63518,note_on,38,0,0,,,,,,,,0,,,59,0
63570,note_on,52,0,0,,,,,,,,0,,,87,0
63600,note_on,30,0,0,,,,,,,,0,,,56,0
63600,note_on,0,0,0,,,,,,,,0,,,99,54
63600,note_on,0,0,0,,,,,,,,0,,,59,50
63610,control_change,10,0,0,,,,,,,,0,64,0,,
63690,note_on,80,0,0,,,,,,,,0,,,99,0
63720,note_on,30,0,0,,,,,,,,0,,,87,52
63780,note_on,60,0,0,,,,,,,,0,,,59,0
63810,note_on,30,0,0,,,,,,,,0,,,87,0
63840,note_on,30,0,0,,,,,,,,0,,,75,52
63840,note_on,0,0,0,,,,,,,,0,,,58,49
63930,note_on,90,0,0,,,,,,,,0,,,75,0
63960,note_on,30,0,0,,,,,,,,0,,,87,51
64020,note_on,60,0,0,,,,,,,,0,,,58,0
64020,note_on,0,0,0,,,,,,,,0,,,52,45
64050,note_on,30,0,0,,,,,,,,0,,,87,0
64080,set_tempo,30,1,0,,,,,,533333,,,,,,
64080,note_on,0,0,0,,,,,,,,0,,,99,47
64080,note_on,0,0,0,,,,,,,,0,,,56,54
64170,note_on,90,0,0,,,,,,,,0,,,99,0
64200,note_on,30,0,0,,,,,,,,0,,,87,47
64260,note_on,60,0,0,,,,,,,,0,,,56,0
64290,note_on,30,0,0,,,,,,,,0,,,87,0
64320,set_tempo,30,1,0,,,,,,542986,,,,,,
64320,note_on,0,0,0,,,,,,,,0,,,52,0
64320,note_on,0,0,0,,,,,,,,0,,,75,46
64320,note_on,0,0,0,,,,,,,,0,,,55,50
64410,note_on,90,0,0,,,,,,,,0,,,75,0
64440,note_on,30,0,0,,,,,,,,0,,,87,45
64500,note_on,60,0,0,,,,,,,,0,,,55,0
64530,note_on,30,0,0,,,,,,,,0,,,87,0
64560,set_tempo,30,1,0,,,,,,558140,,,,,,
64560,note_on,0,0,0,,,,,,,,0,,,99,45
64560,note_on,0,0,0,,,,,,,,0,,,56,47
64613,control_change,53,0,0,,,,,,,,0,64,127,,
64650,note_on,37,0,0,,,,,,,,0,,,99,0
64680,note_on,30,0,0,,,,,,,,0,,,87,44
64740,note_on,60,0,0,,,,,,,,0,,,56,0
64770,note_on,30,0,0,,,,,,,,0,,,87,0
64800,set_tempo,30,1,0,,,,,,568720,,,,,,
64800,note_on,0,0,0,,,,,,,,0,,,75,47
64800,control_change,0,0,0,,,,,,,,0,64,0,,
64800,note_on,0,0,0,,,,,,,,0,,,55,40
64800,note_on,0,0,0,,,,,,,,0,,,58,50
64878,control_change,78,0,0,,,,,,,,0,64,127,,
64890,note_on,12,0,0,,,,,,,,0,,,75,0
64920,note_on,30,0,0,,,,,,,,0,,,87,47
65010,note_on,90,0,0,,,,,,,,0,,,87,0
65040,note_on,30,0,0,,,,,,,,0,,,58,0
65040,note_on,0,0,0,,,,,,,,0,,,55,0
65040,note_on,0,0,0,,,,,,,,0,,,99,47
65040,note_on,0,0,0,,,,,,,,0,,,51,45
65051,control_change,11,0,0,,,,,,,,0,64,0,,
65130,note_on,79,0,0,,,,,,,,0,,,99,0
65160,note_on,30,0,0,,,,,,,,0,,,51,0
65160,note_on,0,0,0,,,,,,,,0,,,87,47
65250,note_on,90,0,0,,,,,,,,0,,,87,0
65280,set_tempo,30,1,0,,,,,,542986,,,,,,
65280,note_on,0,0,0,,,,,,,,0,,,75,47
65370,note_on,90,0,0,,,,,,,,0,,,75,0
65400,set_tempo,30,1,0,,,,,,560748,,,,,,
65400,note_on,0,0,0,,,,,,,,0,,,87,47
65460,note_on,60,0,0,,,,,,,,0,,,63,57
65490,note_on,30,0,0,,,,,,,,0,,,87,0
65520,set_tempo,30,1,0,,,,,,526316,,,,,,
65520,note_on,0,0,0,,,,,,,,0,,,63,0
65531,note_on,11,0,0,,,,,,,,0,,,99,47
65531,note_on,0,0,0,,,,,,,,0,,,75,56
65621,note_on,90,0,0,,,,,,,,0,,,99,0
65651,note_on,30,0,0,,,,,,,,0,,,87,47
65711,note_on,60,0,0,,,,,,,,0,,,75,0
65741,note_on,30,0,0,,,,,,,,0,,,87,0
65760,set_tempo,19,1,0,,,,,,524017,,,,,,
65771,note_on,11,0,0,,,,,,,,0,,,75,55
65891,note_on,120,0,0,,,,,,,,0,,,87,47
65981,note_on,90,0,0,,,,,,,,0,,,87,0
66011,note_on,30,0,0,,,,,,,,0,,,75,0
66011,note_on,0,0,0,,,,,,,,0,,,99,47
66011,note_on,0,0,0,,,,,,,,0,,,73,51
66101,note_on,90,0,0,,,,,,,,0,,,99,0
66131,note_on,30,0,0,,,,,,,,0,,,87,47
66191,note_on,60,0,0,,,,,,,,0,,,73,0
66221,note_on,30,0,0,,,,,,,,0,,,87,0
66240,set_tempo,19,1,0,,,,,,517241,,,,,,
66240,note_on,0,0,0,,,,,,,,0,,,75,47
66240,note_on,0,0,0,,,,,,,,0,,,56,42
66240,note_on,0,0,0,,,,,,,,0,,,71,54
66330,note_on,90,0,0,,,,,,,,0,,,75,0
66339,control_change,9,0,0,,,,,,,,0,64,127,,
66360,note_on,21,0,0,,,,,,,,0,,,87,47
66420,note_on,60,0,0,,,,,,,,0,,,71,0
66450,note_on,30,0,0,,,,,,,,0,,,87,0
66480,set_tempo,30,1,0,,,,,,530973,,,,,,
66480,note_on,0,0,0,,,,,,,,0,,,56,0
66480,note_on,0,0,0,,,,,,,,0,,,99,47
66480,note_on,0,0,0,,,,,,,,0,,,71,50
66496,control_change,16,0,0,,,,,,,,0,64,0,,
66570,note_on,74,0,0,,,,,,,,0,,,99,0
66600,note_on,30,0,0,,,,,,,,0,,,87,49
66660,note_on,60,0,0,,,,,,,,0,,,71,0
66690,note_on,30,0,0,,,,,,,,0,,,87,0
66720,note_on,30,0,0,,,,,,,,0,,,75,51
66720,note_on,0,0,0,,,,,,,,0,,,70,51
66731,set_tempo,11,1,0,,,,,,538117,,,,,,
66810,note_on,79,0,0,,,,,,,,0,,,75,0
66851,note_on,41,0,0,,,,,,,,0,,,87,51
66900,note_on,49,0,0,,,,,,,,0,,,70,0
66941,note_on,41,0,0,,,,,,,,0,,,87,0
66960,note_on,19,0,0,,,,,,,,0,,,99,54
66960,note_on,0,0,0,,,,,,,,0,,,59,37
66960,note_on,0,0,0,,,,,,,,0,,,68,54
66971,set_tempo,11,1,0,,,,,,528634,,,,,,
67050,note_on,79,0,0,,,,,,,,0,,,99,0
67080,note_on,30,0,0,,,,,,,,0,,,87,54
67140,note_on,60,0,0,,,,,,,,0,,,68,0
67170,note_on,30,0,0,,,,,,,,0,,,87,0
67200,note_on,30,0,0,,,,,,,,0,,,59,0
67200,note_on,0,0,0,,,,,,,,0,,,75,54
67200,note_on,0,0,0,,,,,,,,0,,,67,54
67290,note_on,90,0,0,,,,,,,,0,,,75,0
67320,note_on,30,0,0,,,,,,,,0,,,87,55
67380,note_on,60,0,0,,,,,,,,0,,,67,0
67410,note_on,30,0,0,,,,,,,,0,,,87,0
67440,note_on,30,0,0,,,,,,,,0,,,99,57
67440,note_on,0,0,0,,,,,,,,0,,,68,57
67530,note_on,90,0,0,,,,,,,,0,,,99,0
67560,note_on,30,0,0,,,,,,,,0,,,87,57
67620,note_on,60,0,0,,,,,,,,0,,,68,0
67650,note_on,30,0,0,,,,,,,,0,,,87,0
67680,note_on,30,0,0,,,,,,,,0,,,75,60
67680,note_on,0,0,0,,,,,,,,0,,,70,62
67680,note_on,0,0,0,,,,,,,,0,,,67,40
67691,set_tempo,11,1,0,,,,,,533333,,,,,,
67740,control_change,49,0,0,,,,,,,,0,64,127,,
67770,note_on,30,0,0,,,,,,,,0,,,75,0
67800,note_on,30,0,0,,,,,,,,0,,,87,60
67890,note_on,90,0,0,,,,,,,,0,,,87,0
67920,note_on,30,0,0,,,,,,,,0,,,67,0
67920,note_on,0,0,0,,,,,,,,0,,,70,0
67920,note_on,0,0,0,,,,,,,,0,,,99,60
67920,note_on,0,0,0,,,,,,,,0,,,63,54
67938,control_change,18,0,0,,,,,,,,0,64,0,,
68010,note_on,72,0,0,,,,,,,,0,,,99,0
68040,note_on,30,0,0,,,,,,,,0,,,87,59
68100,note_on,60,0,0,,,,,,,,0,,,63,0
68130,note_on,30,0,0,,,,,,,,0,,,87,0
68160,note_on,30,0,0,,,,,,,,0,,,75,59
68171,set_tempo,11,1,0,,,,,,538117,,,,,,
68280,note_on,109,0,0,,,,,,,,0,,,87,57
68370,note_on,90,0,0,,,,,,,,0,,,87,0
68400,note_on,30,0,0,,,,,,,,0,,,75,0
68400,note_on,0,0,0,,,,,,,,0,,,76,54
68400,note_on,0,0,0,,,,,,,,0,,,61,45
68400,note_on,0,0,0,,,,,,,,0,,,70,45
68400,note_on,0,0,0,,,,,,,,0,,,68,40
68411,set_tempo,11,1,0,,,,,,528634,,,,,,
68520,note_on,109,0,0,,,,,,,,0,,,87,54
68640,note_on,120,0,0,,,,,,,,0,,,87,0
68640,note_on,0,0,0,,,,,,,,0,,,70,0
68640,note_on,0,0,0,,,,,,,,0,,,76,0
68640,note_on,0,0,0,,,,,,,,0,,,61,0
68640,note_on,0,0,0,,,,,,,,0,,,68,0
68640,note_on,0,0,0,,,,,,,,0,,,75,50
68640,note_on,0,0,0,,,,,,,,0,,,63,44
68640,note_on,0,0,0,,,,,,,,0,,,70,43
68640,note_on,0,0,0,,,,,,,,0,,,68,37
68760,note_on,120,0,0,,,,,,,,0,,,87,50
68880,note_on,120,0,0,,,,,,,,0,,,87,0
68880,note_on,0,0,0,,,,,,,,0,,,70,0
68880,note_on,0,0,0,,,,,,,,0,,,75,0
68880,note_on,0,0,0,,,,,,,,0,,,63,0
68880,note_on,0,0,0,,,,,,,,0,,,68,0
68880,note_on,0,0,0,,,,,,,,0,,,73,50
68880,note_on,0,0,0,,,,,,,,0,,,64,44
68880,note_on,0,0,0,,,,,,,,0,,,70,43
68880,note_on,0,0,0,,,,,,,,0,,,68,37
69000,set_tempo,120,1,0,,,,,,542986,,,,,,
69000,note_on,0,0,0,,,,,,,,0,,,87,50
69120,set_tempo,120,1,0,,,,,,568720,,,,,,
69120,note_on,0,0,0,,,,,,,,0,,,87,0
69120,note_on,0,0,0,,,,,,,,0,,,70,0
69120,note_on,0,0,0,,,,,,,,0,,,73,0
69120,note_on,0,0,0,,,,,,,,0,,,64,0
69120,note_on,0,0,0,,,,,,,,0,,,68,0
69120,note_on,0,0,0,,,,,,,,0,,,75,59
69120,note_on,0,0,0,,,,,,,,0,,,63,44
69120,note_on,0,0,0,,,,,,,,0,,,68,44
69120,note_on,0,0,0,,,,,,,,0,,,71,50
69240,note_on,120,0,0,,,,,,,,0,,,87,54
69360,note_on,120,0,0,,,,,,,,0,,,87,0
69360,note_on,0,0,0,,,,,,,,0,,,68,0
69360,note_on,0,0,0,,,,,,,,0,,,75,0
69360,note_on,0,0,0,,,,,,,,0,,,63,0
69360,note_on,0,0,0,,,,,,,,0,,,71,0
69360,note_on,0,0,0,,,,,,,,0,,,80,54
69450,note_on,90,0,0,,,,,,,,0,,,80,0
69480,set_tempo,30,1,0,,,,,,550459,,,,,,
69480,note_on,0,0,0,,,,,,,,0,,,83,54
69570,note_on,90,0,0,,,,,,,,0,,,83,0
69600,set_tempo,30,1,0,,,,,,524017,,,,,,
69600,note_on,0,0,0,,,,,,,,0,,,87,60
69720,set_tempo,120,1,0,,,,,,612245,,,,,,
69720,note_on,0,0,0,,,,,,,,0,,,99,54
69840,set_tempo,120,1,0,,,,,,582524,,,,,,
69840,note_on,0,0,0,,,,,,,,0,,,99,0
69840,note_on,0,0,0,,,,,,,,0,,,87,0
69840,note_on,0,0,0,,,,,,,,0,,,75,59
69840,note_on,0,0,0,,,,,,,,0,,,63,42
69840,note_on,0,0,0,,,,,,,,0,,,67,42
69840,note_on,0,0,0,,,,,,,,0,,,73,46
69960,note_on,120,0,0,,,,,,,,0,,,87,54
70080,note_on,120,0,0,,,,,,,,0,,,87,0
70080,note_on,0,0,0,,,,,,,,0,,,67,0
70080,note_on,0,0,0,,,,,,,,0,,,75,0
70080,note_on,0,0,0,,,,,,,,0,,,63,0
70080,note_on,0,0,0,,,,,,,,0,,,73,0
70080,note_on,0,0,0,,,,,,,,0,,,79,54
70170,note_on,90,0,0,,,,,,,,0,,,79,0
70200,note_on,30,0,0,,,,,,,,0,,,82,54
70290,note_on,90,0,0,,,,,,,,0,,,82,0
70320,set_tempo,30,1,0,,,,,,615385,,,,,,
70320,note_on,0,0,0,,,,,,,,0,,,87,60
70440,set_tempo,120,1,0,,,,,,603015,,,,,,
70440,note_on,0,0,0,,,,,,,,0,,,99,54
70560,set_tempo,120,1,0,,,,,,576923,,,,,,
70560,note_on,0,0,0,,,,,,,,0,,,99,0
70560,note_on,0,0,0,,,,,,,,0,,,87,0
70560,note_on,0,0,0,,,,,,,,0,,,56,52
70580,set_tempo,20,1,0,,,,,,576923,,,,,,
70613,control_change,33,0,0,,,,,,,,0,64,127,,
70640,set_tempo,27,1,0,,,,,,574163,,,,,,
70650,note_on,10,0,0,,,,,,,,0,,,56,0
70680,set_tempo,30,1,0,,,,,,571429,,,,,,
70680,note_on,0,0,0,,,,,,,,0,,,63,47
70720,set_tempo,40,1,0,,,,,,568720,,,,,,
70760,set_tempo,40,1,0,,,,,,566038,,,,,,
70770,note_on,10,0,0,,,,,,,,0,,,63,0
70800,set_tempo,30,1,0,,,,,,563380,,,,,,
70800,note_on,0,0,0,,,,,,,,0,,,71,47
70840,set_tempo,40,1,0,,,,,,560748,,,,,,
70880,set_tempo,40,1,0,,,,,,558140,,,,,,
70890,note_on,10,0,0,,,,,,,,0,,,71,0
70920,set_tempo,30,1,0,,,,,,555556,,,,,,
70920,note_on,0,0,0,,,,,,,,0,,,80,47
70960,set_tempo,40,1,0,,,,,,552995,,,,,,
71000,set_tempo,40,1,0,,,,,,550459,,,,,,
71010,note_on,10,0,0,,,,,,,,0,,,80,0
71040,set_tempo,30,1,0,,,,,,547945,,,,,,
71040,note_on,0,0,0,,,,,,,,0,,,75,49
71080,set_tempo,40,1,0,,,,,,545455,,,,,,
71080,note_on,0,0,0,,,,,,,,0,,,75,0
71120,set_tempo,40,1,0,,,,,,542986,,,,,,
71120,note_on,0,0,0,,,,,,,,0,,,87,49
71140,set_tempo,20,1,0,,,,,,540541,,,,,,
71160,set_tempo,20,1,0,,,,,,538117,,,,,,
71160,note_on,0,0,0,,,,,,,,0,,,87,0
71180,set_tempo,20,1,0,,,,,,535714,,,,,,
71194,set_tempo,14,1,0,,,,,,612245,,,,,,
71200,note_on,6,0,0,,,,,,,,0,,,87,49
71240,note_on,40,0,0,,,,,,,,0,,,87,0
71245,set_tempo,5,1,0,,,,,,609137,,,,,,
71270,set_tempo,25,1,0,,,,,,606061,,,,,,
71280,note_on,10,0,0,,,,,,,,0,,,87,52
71295,set_tempo,15,1,0,,,,,,603015,,,,,,
71301,control_change,6,0,0,,,,,,,,0,64,0,,
71320,set_tempo,19,1,0,,,,,,600000,,,,,,
71320,note_on,0,0,0,,,,,,,,0,,,87,0
71360,note_on,40,0,0,,,,,,,,0,,,87,52
71371,set_tempo,11,1,0,,,,,,597015,,,,,,
71396,set_tempo,25,1,0,,,,,,594059,,,,,,
71400,note_on,4,0,0,,,,,,,,0,,,87,0
71422,set_tempo,22,1,0,,,,,,591133,,,,,,
71440,note_on,18,0,0,,,,,,,,0,,,99,52
71447,set_tempo,7,1,0,,,,,,588235,,,,,,
71472,set_tempo,25,1,0,,,,,,585366,,,,,,
71480,note_on,8,0,0,,,,,,,,0,,,99,0
71520,note_on,40,0,0,,,,,,,,0,,,87,52
71523,set_tempo,3,1,0,,,,,,582524,,,,,,
71548,set_tempo,25,1,0,,,,,,579710,,,,,,
71560,note_on,12,0,0,,,,,,,,0,,,87,0
71573,set_tempo,13,1,0,,,,,,576923,,,,,,
71598,set_tempo,25,1,0,,,,,,574163,,,,,,
71600,note_on,2,0,0,,,,,,,,0,,,87,52
71624,set_tempo,24,1,0,,,,,,571429,,,,,,
71640,note_on,16,0,0,,,,,,,,0,,,87,0
71674,set_tempo,34,1,0,,,,,,568720,,,,,,
71680,note_on,6,0,0,,,,,,,,0,,,99,52
71720,note_on,40,0,0,,,,,,,,0,,,99,0
71760,note_on,40,0,0,,,,,,,,0,,,85,52
71800,note_on,40,0,0,,,,,,,,0,,,85,0
71840,note_on,40,0,0,,,,,,,,0,,,85,52
71880,note_on,40,0,0,,,,,,,,0,,,85,0
71920,note_on,40,0,0,,,,,,,,0,,,97,52
71960,note_on,40,0,0,,,,,,,,0,,,97,0
71977,set_tempo,17,1,0,,,,,,566038,,,,,,
72000,set_tempo,23,1,0,,,,,,555556,,,,,,
72000,note_on,0,0,0,,,,,,,,0,,,83,54
72000,note_on,0,0,0,,,,,,,,0,,,44,54
72040,note_on,40,0,0,,,,,,,,0,,,83,0
72040,control_change,0,0,0,,,,,,,,0,64,127,,
72080,note_on,40,0,0,,,,,,,,0,,,83,54
72120,note_on,40,0,0,,,,,,,,0,,,83,0
72160,note_on,40,0,0,,,,,,,,0,,,95,54
72200,note_on,40,0,0,,,,,,,,0,,,95,0
72240,note_on,40,0,0,,,,,,,,0,,,44,0
72240,note_on,0,0,0,,,,,,,,0,,,83,54
72240,note_on,0,0,0,,,,,,,,0,,,59,50
72240,note_on,0,0,0,,,,,,,,0,,,51,44
72260,control_change,20,0,0,,,,,,,,0,64,0,,
72280,note_on,20,0,0,,,,,,,,0,,,83,0
72320,note_on,40,0,0,,,,,,,,0,,,83,54
72360,note_on,40,0,0,,,,,,,,0,,,83,0
72360,note_on,0,0,0,,,,,,,,0,,,51,0
72360,note_on,0,0,0,,,,,,,,0,,,59,0
72400,note_on,40,0,0,,,,,,,,0,,,95,54
72440,note_on,40,0,0,,,,,,,,0,,,95,0
72480,set_tempo,40,1,0,,,,,,542986,,,,,,
72480,note_on,0,0,0,,,,,,,,0,,,82,52
72480,note_on,0,0,0,,,,,,,,0,,,51,44
72480,note_on,0,0,0,,,,,,,,0,,,59,50
72520,note_on,40,0,0,,,,,,,,0,,,82,0
72560,note_on,40,0,0,,,,,,,,0,,,82,52
72600,note_on,40,0,0,,,,,,,,0,,,82,0
72600,note_on,0,0,0,,,,,,,,0,,,59,0
72600,note_on,0,0,0,,,,,,,,0,,,51,0
72640,note_on,40,0,0,,,,,,,,0,,,94,52
72680,note_on,40,0,0,,,,,,,,0,,,94,0
72720,set_tempo,40,1,0,,,,,,550459,,,,,,
72720,note_on,0,0,0,,,,,,,,0,,,80,54
72720,note_on,0,0,0,,,,,,,,0,,,47,54
72755,control_change,35,0,0,,,,,,,,0,64,127,,
72760,note_on,5,0,0,,,,,,,,0,,,80,0
72800,note_on,40,0,0,,,,,,,,0,,,80,54
72840,note_on,40,0,0,,,,,,,,0,,,80,0
72880,note_on,40,0,0,,,,,,,,0,,,92,54
72920,note_on,40,0,0,,,,,,,,0,,,92,0
72960,set_tempo,40,1,0,,,,,,538117,,,,,,
72960,note_on,0,0,0,,,,,,,,0,,,47,0
72960,note_on,0,0,0,,,,,,,,0,,,79,52
72960,note_on,0,0,0,,,,,,,,0,,,63,50
72960,note_on,0,0,0,,,,,,,,0,,,56,44
72972,control_change,12,0,0,,,,,,,,0,64,0,,
73000,note_on,28,0,0,,,,,,,,0,,,79,0
73040,note_on,40,0,0,,,,,,,,0,,,79,52
73080,note_on,40,0,0,,,,,,,,0,,,79,0
73080,note_on,0,0,0,,,,,,,,0,,,56,0
73080,note_on,0,0,0,,,,,,,,0,,,63,0
73120,note_on,40,0,0,,,,,,,,0,,,91,52
73160,note_on,40,0,0,,,,,,,,0,,,91,0
73200,set_tempo,40,1,0,,,,,,535714,,,,,,
73200,note_on,0,0,0,,,,,,,,0,,,80,52
73200,note_on,0,0,0,,,,,,,,0,,,56,44
73200,note_on,0,0,0,,,,,,,,0,,,63,50
73240,note_on,40,0,0,,,,,,,,0,,,80,0
73280,note_on,40,0,0,,,,,,,,0,,,80,52
73320,note_on,40,0,0,,,,,,,,0,,,80,0
73320,note_on,0,0,0,,,,,,,,0,,,63,0
73320,note_on,0,0,0,,,,,,,,0,,,56,0
73360,note_on,40,0,0,,,,,,,,0,,,92,52
73400,note_on,40,0,0,,,,,,,,0,,,92,0
73440,set_tempo,40,1,0,,,,,,552995,,,,,,
73440,note_on,0,0,0,,,,,,,,0,,,82,54
73440,note_on,0,0,0,,,,,,,,0,,,51,54
73480,note_on,40,0,0,,,,,,,,0,,,82,0
73511,control_change,31,0,0,,,,,,,,0,64,127,,
73520,note_on,9,0,0,,,,,,,,0,,,82,54
73560,note_on,40,0,0,,,,,,,,0,,,82,0
73600,note_on,40,0,0,,,,,,,,0,,,94,54
73640,note_on,40,0,0,,,,,,,,0,,,94,0
73680,note_on,40,0,0,,,,,,,,0,,,51,0
73680,note_on,0,0,0,,,,,,,,0,,,75,50
73680,note_on,0,0,0,,,,,,,,0,,,67,47
73680,note_on,0,0,0,,,,,,,,0,,,58,43
73694,control_change,14,0,0,,,,,,,,0,64,0,,
73720,note_on,26,0,0,,,,,,,,0,,,75,0
73760,note_on,40,0,0,,,,,,,,0,,,75,50
73800,note_on,40,0,0,,,,,,,,0,,,75,0
73800,note_on,0,0,0,,,,,,,,0,,,58,0
73800,note_on,0,0,0,,,,,,,,0,,,67,0
73840,note_on,40,0,0,,,,,,,,0,,,87,47
73880,note_on,40,0,0,,,,,,,,0,,,87,0
73920,set_tempo,40,1,0,,,,,,542986,,,,,,
73920,note_on,0,0,0,,,,,,,,0,,,75,47
73920,note_on,0,0,0,,,,,,,,0,,,67,47
73920,note_on,0,0,0,,,,,,,,0,,,58,43
73960,note_on,40,0,0,,,,,,,,0,,,75,0
74000,note_on,40,0,0,,,,,,,,0,,,75,47
74040,note_on,40,0,0,,,,,,,,0,,,75,0
74040,note_on,0,0,0,,,,,,,,0,,,58,0
74040,note_on,0,0,0,,,,,,,,0,,,67,0
74080,note_on,40,0,0,,,,,,,,0,,,87,47
74120,note_on,40,0,0,,,,,,,,0,,,87,0
74160,set_tempo,40,1,0,,,,,,535714,,,,,,
74160,note_on,0,0,0,,,,,,,,0,,,76,50
74160,note_on,0,0,0,,,,,,,,0,,,55,50
74200,note_on,40,0,0,,,,,,,,0,,,76,0
74227,control_change,27,0,0,,,,,,,,0,64,127,,
74240,note_on,13,0,0,,,,,,,,0,,,76,50
74280,note_on,40,0,0,,,,,,,,0,,,76,0
74320,note_on,40,0,0,,,,,,,,0,,,88,50
74360,note_on,40,0,0,,,,,,,,0,,,88,0
74400,note_on,40,0,0,,,,,,,,0,,,55,0
74400,note_on,0,0,0,,,,,,,,0,,,75,47
74400,note_on,0,0,0,,,,,,,,0,,,70,45
74400,note_on,0,0,0,,,,,,,,0,,,63,40
74414,control_change,14,0,0,,,,,,,,0,64,0,,
74440,note_on,26,0,0,,,,,,,,0,,,75,0
74480,note_on,40,0,0,,,,,,,,0,,,75,47
74520,note_on,40,0,0,,,,,,,,0,,,75,0
74520,note_on,0,0,0,,,,,,,,0,,,63,0
74520,note_on,0,0,0,,,,,,,,0,,,70,0
74560,note_on,40,0,0,,,,,,,,0,,,87,47
74600,note_on,40,0,0,,,,,,,,0,,,87,0
74640,note_on,40,0,0,,,,,,,,0,,,73,47
74640,note_on,0,0,0,,,,,,,,0,,,63,40
74640,note_on,0,0,0,,,,,,,,0,,,70,45
74680,note_on,40,0,0,,,,,,,,0,,,73,0
74720,note_on,40,0,0,,,,,,,,0,,,73,47
74760,note_on,40,0,0,,,,,,,,0,,,73,0
74760,note_on,0,0,0,,,,,,,,0,,,70,0
74760,note_on,0,0,0,,,,,,,,0,,,63,0
74800,note_on,40,0,0,,,,,,,,0,,,85,47
74840,note_on,40,0,0,,,,,,,,0,,,85,0
74880,note_on,40,0,0,,,,,,,,0,,,71,50
74880,note_on,0,0,0,,,,,,,,0,,,56,47
74920,note_on,40,0,0,,,,,,,,0,,,71,0
74932,control_change,12,0,0,,,,,,,,0,64,127,,
74960,note_on,28,0,0,,,,,,,,0,,,71,50
75000,note_on,40,0,0,,,,,,,,0,,,71,0
75040,note_on,40,0,0,,,,,,,,0,,,83,50
75080,note_on,40,0,0,,,,,,,,0,,,83,0
75120,note_on,40,0,0,,,,,,,,0,,,56,0
75120,note_on,0,0,0,,,,,,,,0,,,71,47
75120,note_on,0,0,0,,,,,,,,0,,,68,44
75120,note_on,0,0,0,,,,,,,,0,,,63,39
75131,control_change,11,0,0,,,,,,,,0,64,0,,
75160,note_on,29,0,0,,,,,,,,0,,,71,0
75200,note_on,40,0,0,,,,,,,,0,,,71,47
75240,note_on,40,0,0,,,,,,,,0,,,71,0
75240,note_on,0,0,0,,,,,,,,0,,,63,0
75240,note_on,0,0,0,,,,,,,,0,,,68,0
75280,note_on,40,0,0,,,,,,,,0,,,83,47
75320,note_on,40,0,0,,,,,,,,0,,,83,0
75360,note_on,40,0,0,,,,,,,,0,,,70,47
75360,note_on,0,0,0,,,,,,,,0,,,63,39
75360,note_on,0,0,0,,,,,,,,0,,,68,44
75400,note_on,40,0,0,,,,,,,,0,,,70,0
75440,note_on,40,0,0,,,,,,,,0,,,70,47
75480,set_tempo,40,1,0,,,,,,540541,,,,,,
75480,note_on,0,0,0,,,,,,,,0,,,70,0
75480,note_on,0,0,0,,,,,,,,0,,,68,0
75480,note_on,0,0,0,,,,,,,,0,,,63,0
75520,note_on,40,0,0,,,,,,,,0,,,82,47
75560,note_on,40,0,0,,,,,,,,0,,,82,0
75600,set_tempo,40,1,0,,,,,,552995,,,,,,
75600,note_on,0,0,0,,,,,,,,0,,,68,49
75600,note_on,0,0,0,,,,,,,,0,,,59,49
75640,note_on,40,0,0,,,,,,,,0,,,68,0
75649,control_change,9,0,0,,,,,,,,0,64,127,,
75680,note_on,31,0,0,,,,,,,,0,,,68,49
75720,note_on,40,0,0,,,,,,,,0,,,68,0
75760,note_on,40,0,0,,,,,,,,0,,,80,49
75800,note_on,40,0,0,,,,,,,,0,,,80,0
75840,set_tempo,40,1,0,,,,,,560748,,,,,,
75840,note_on,0,0,0,,,,,,,,0,,,59,0
75840,note_on,0,0,0,,,,,,,,0,,,67,47
75840,note_on,0,0,0,,,,,,,,0,,,62,36
75840,note_on,0,0,0,,,,,,,,0,,,65,41
75851,control_change,11,0,0,,,,,,,,0,64,0,,
75880,note_on,29,0,0,,,,,,,,0,,,67,0
75920,note_on,40,0,0,,,,,,,,0,,,67,47
75960,note_on,40,0,0,,,,,,,,0,,,67,0
75960,note_on,0,0,0,,,,,,,,0,,,65,0
75960,note_on,0,0,0,,,,,,,,0,,,62,0
76000,note_on,40,0,0,,,,,,,,0,,,79,47
76040,note_on,40,0,0,,,,,,,,0,,,79,0
76080,set_tempo,40,1,0,,,,,,576923,,,,,,
76080,note_on,0,0,0,,,,,,,,0,,,68,47
76080,note_on,0,0,0,,,,,,,,0,,,62,36
76080,note_on,0,0,0,,,,,,,,0,,,65,41
76120,note_on,40,0,0,,,,,,,,0,,,68,0
76160,note_on,40,0,0,,,,,,,,0,,,68,47
76200,note_on,40,0,0,,,,,,,,0,,,68,0
76200,note_on,0,0,0,,,,,,,,0,,,65,0
76200,note_on,0,0,0,,,,,,,,0,,,62,0
76240,note_on,40,0,0,,,,,,,,0,,,80,47
76280,note_on,40,0,0,,,,,,,,0,,,80,0
76320,set_tempo,40,1,0,,,,,,588235,,,,,,
76320,note_on,0,0,0,,,,,,,,0,,,70,50
76320,note_on,0,0,0,,,,,,,,0,,,51,46
76360,note_on,40,0,0,,,,,,,,0,,,70,0
76380,control_change,20,0,0,,,,,,,,0,64,127,,
76400,note_on,20,0,0,,,,,,,,0,,,70,50
76440,note_on,40,0,0,,,,,,,,0,,,70,0
76480,note_on,40,0,0,,,,,,,,0,,,82,50
76499,set_tempo,19,1,0,,,,,,582524,,,,,,
76520,note_on,21,0,0,,,,,,,,0,,,82,0
76550,set_tempo,30,1,0,,,,,,585366,,,,,,
76560,note_on,10,0,0,,,,,,,,0,,,51,0
76560,note_on,0,0,0,,,,,,,,0,,,63,47
76560,note_on,0,0,0,,,,,,,,0,,,67,37
76560,note_on,0,0,0,,,,,,,,0,,,58,34
76600,set_tempo,40,1,0,,,,,,588235,,,,,,
76600,note_on,0,0,0,,,,,,,,0,,,63,0
76640,note_on,40,0,0,,,,,,,,0,,,63,47
76651,set_tempo,11,1,0,,,,,,591133,,,,,,
76676,set_tempo,25,1,0,,,,,,594059,,,,,,
76680,note_on,4,0,0,,,,,,,,0,,,63,0
76720,note_on,40,0,0,,,,,,,,0,,,75,43
76727,set_tempo,7,1,0,,,,,,597015,,,,,,
76760,note_on,33,0,0,,,,,,,,0,,,75,0
76777,set_tempo,17,1,0,,,,,,600000,,,,,,
76800,note_on,23,0,0,,,,,,,,0,,,58,0
76800,note_on,0,0,0,,,,,,,,0,,,67,0
76800,note_on,0,0,0,,,,,,,,0,,,75,45
76821,control_change,21,0,0,,,,,,,,0,64,0,,
76828,set_tempo,7,1,0,,,,,,603015,,,,,,
76840,note_on,12,0,0,,,,,,,,0,,,75,0
76853,set_tempo,13,1,0,,,,,,606061,,,,,,
76880,note_on,27,0,0,,,,,,,,0,,,75,45
76904,set_tempo,24,1,0,,,,,,609137,,,,,,
76920,note_on,16,0,0,,,,,,,,0,,,75,0
76954,set_tempo,34,1,0,,,,,,609137,,,,,,
76960,note_on,6,0,0,,,,,,,,0,,,75,45
76979,set_tempo,19,1,0,,,,,,612245,,,,,,
77000,note_on,21,0,0,,,,,,,,0,,,75,0
77005,set_tempo,5,1,0,,,,,,615385,,,,,,
77030,set_tempo,25,1,0,,,,,,618557,,,,,,
77036,set_tempo,6,1,0,,,,,,600000,,,,,,
77040,note_on,4,0,0,,,,,,,,0,,,87,52
77080,note_on,40,0,0,,,,,,,,0,,,87,0
77120,note_on,40,0,0,,,,,,,,0,,,87,52
77160,note_on,40,0,0,,,,,,,,0,,,87,0
77200,note_on,40,0,0,,,,,,,,0,,,99,52
77232,set_tempo,32,1,0,,,,,,591133,,,,,,
77240,note_on,8,0,0,,,,,,,,0,,,99,0
77280,note_on,40,0,0,,,,,,,,0,,,87,52
77283,set_tempo,3,1,0,,,,,,588235,,,,,,
77320,note_on,37,0,0,,,,,,,,0,,,87,0
77333,set_tempo,13,1,0,,,,,,585366,,,,,,
77360,note_on,27,0,0,,,,,,,,0,,,87,52
77384,set_tempo,24,1,0,,,,,,582524,,,,,,
77400,note_on,16,0,0,,,,,,,,0,,,87,0
77434,set_tempo,34,1,0,,,,,,579710,,,,,,
77440,note_on,6,0,0,,,,,,,,0,,,99,52
77480,note_on,40,0,0,,,,,,,,0,,,99,0
77485,set_tempo,5,1,0,,,,,,576923,,,,,,
77520,note_on,35,0,0,,,,,,,,0,,,85,52
77535,set_tempo,15,1,0,,,,,,574163,,,,,,
77560,note_on,25,0,0,,,,,,,,0,,,85,0
77586,set_tempo,26,1,0,,,,,,571429,,,,,,
77600,note_on,14,0,0,,,,,,,,0,,,85,52
77636,set_tempo,36,1,0,,,,,,568720,,,,,,
77640,note_on,4,0,0,,,,,,,,0,,,85,0
77680,note_on,40,0,0,,,,,,,,0,,,97,52
77687,set_tempo,7,1,0,,,,,,566038,,,,,,
77720,note_on,33,0,0,,,,,,,,0,,,97,0
77737,set_tempo,17,1,0,,,,,,563380,,,,,,
77760,note_on,23,0,0,,,,,,,,0,,,83,54
77760,note_on,0,0,0,,,,,,,,0,,,44,54
77763,set_tempo,3,1,0,,,,,,560748,,,,,,
77795,control_change,32,0,0,,,,,,,,0,64,127,,
77800,note_on,5,0,0,,,,,,,,0,,,83,0
77840,note_on,40,0,0,,,,,,,,0,,,83,54
77880,note_on,40,0,0,,,,,,,,0,,,83,0
77920,note_on,40,0,0,,,,,,,,0,,,95,54
77960,note_on,40,0,0,,,,,,,,0,,,95,0
78000,note_on,40,0,0,,,,,,,,0,,,44,0
78000,note_on,0,0,0,,,,,,,,0,,,83,54
78000,note_on,0,0,0,,,,,,,,0,,,59,50
78000,note_on,0,0,0,,,,,,,,0,,,51,44
78017,control_change,17,0,0,,,,,,,,0,64,0,,
78040,note_on,23,0,0,,,,,,,,0,,,83,0
78080,note_on,40,0,0,,,,,,,,0,,,83,54
78120,note_on,40,0,0,,,,,,,,0,,,83,0
78120,note_on,0,0,0,,,,,,,,0,,,51,0
78120,note_on,0,0,0,,,,,,,,0,,,59,0
78160,note_on,40,0,0,,,,,,,,0,,,95,54
78200,note_on,40,0,0,,,,,,,,0,,,95,0
78240,set_tempo,40,1,0,,,,,,540541,,,,,,
78240,note_on,0,0,0,,,,,,,,0,,,82,52
78240,note_on,0,0,0,,,,,,,,0,,,51,44
78240,note_on,0,0,0,,,,,,,,0,,,59,50
78280,note_on,40,0,0,,,,,,,,0,,,82,0
78320,note_on,40,0,0,,,,,,,,0,,,82,52
78360,note_on,40,0,0,,,,,,,,0,,,82,0
78360,note_on,0,0,0,,,,,,,,0,,,59,0
78360,note_on,0,0,0,,,,,,,,0,,,51,0
78400,note_on,40,0,0,,,,,,,,0,,,94,52
78440,note_on,40,0,0,,,,,,,,0,,,94,0
78480,set_tempo,40,1,0,,,,,,555556,,,,,,
78480,note_on,0,0,0,,,,,,,,0,,,80,54
78480,note_on,0,0,0,,,,,,,,0,,,47,54
78520,note_on,40,0,0,,,,,,,,0,,,80,0
78552,control_change,32,0,0,,,,,,,,0,64,127,,
78560,note_on,8,0,0,,,,,,,,0,,,80,54
78600,note_on,40,0,0,,,,,,,,0,,,80,0
78640,note_on,40,0,0,,,,,,,,0,,,92,54
78680,note_on,40,0,0,,,,,,,,0,,,92,0
78720,set_tempo,40,1,0,,,,,,535714,,,,,,
78720,note_on,0,0,0,,,,,,,,0,,,47,0
78720,note_on,0,0,0,,,,,,,,0,,,79,52
78720,note_on,0,0,0,,,,,,,,0,,,63,50
78720,note_on,0,0,0,,,,,,,,0,,,56,44
78735,control_change,15,0,0,,,,,,,,0,64,0,,
78760,note_on,25,0,0,,,,,,,,0,,,79,0
78800,note_on,40,0,0,,,,,,,,0,,,79,52
78840,note_on,40,0,0,,,,,,,,0,,,79,0
78840,note_on,0,0,0,,,,,,,,0,,,56,0
78840,note_on,0,0,0,,,,,,,,0,,,63,0
78880,note_on,40,0,0,,,,,,,,0,,,91,52
78920,note_on,40,0,0,,,,,,,,0,,,91,0
78960,set_tempo,40,1,0,,,,,,530973,,,,,,
78960,note_on,0,0,0,,,,,,,,0,,,80,52
78960,note_on,0,0,0,,,,,,,,0,,,56,44
78960,note_on,0,0,0,,,,,,,,0,,,63,50
79000,note_on,40,0,0,,,,,,,,0,,,80,0
79040,note_on,40,0,0,,,,,,,,0,,,80,52
79080,note_on,40,0,0,,,,,,,,0,,,80,0
79080,note_on,0,0,0,,,,,,,,0,,,63,0
79080,note_on,0,0,0,,,,,,,,0,,,56,0
79120,note_on,40,0,0,,,,,,,,0,,,92,52
79160,note_on,40,0,0,,,,,,,,0,,,92,0
79200,set_tempo,40,1,0,,,,,,545455,,,,,,
79200,note_on,0,0,0,,,,,,,,0,,,82,54
79200,note_on,0,0,0,,,,,,,,0,,,51,54
79240,note_on,40,0,0,,,,,,,,0,,,82,0
79280,note_on,40,0,0,,,,,,,,0,,,82,54
79281,control_change,1,0,0,,,,,,,,0,64,127,,
79320,note_on,39,0,0,,,,,,,,0,,,82,0
79360,note_on,40,0,0,,,,,,,,0,,,94,54
79400,note_on,40,0,0,,,,,,,,0,,,94,0
79440,note_on,40,0,0,,,,,,,,0,,,51,0
79440,note_on,0,0,0,,,,,,,,0,,,75,50
79440,note_on,0,0,0,,,,,,,,0,,,67,39
79440,note_on,0,0,0,,,,,,,,0,,,58,35
79480,note_on,40,0,0,,,,,,,,0,,,75,0
79520,note_on,40,0,0,,,,,,,,0,,,75,50
79560,note_on,40,0,0,,,,,,,,0,,,75,0
79600,note_on,40,0,0,,,,,,,,0,,,87,47
79620,note_on,20,0,0,,,,,,,,0,,,58,0
79620,note_on,0,0,0,,,,,,,,0,,,67,0
79640,note_on,20,0,0,,,,,,,,0,,,87,0
79680,set_tempo,40,1,0,,,,,,538117,,,,,,
79680,note_on,0,0,0,,,,,,,,0,,,75,49
79680,note_on,0,0,0,,,,,,,,0,,,67,36
79680,note_on,0,0,0,,,,,,,,0,,,70,41
79720,note_on,40,0,0,,,,,,,,0,,,75,0
79760,note_on,40,0,0,,,,,,,,0,,,75,49
79789,control_change,29,0,0,,,,,,,,0,64,0,,
79800,note_on,11,0,0,,,,,,,,0,,,75,0
79840,note_on,40,0,0,,,,,,,,0,,,87,49
79860,note_on,20,0,0,,,,,,,,0,,,70,0
79860,note_on,0,0,0,,,,,,,,0,,,67,0
79880,note_on,20,0,0,,,,,,,,0,,,87,0
79920,set_tempo,40,1,0,,,,,,540541,,,,,,
79920,note_on,0,0,0,,,,,,,,0,,,76,52
79920,note_on,0,0,0,,,,,,,,0,,,68,37
79920,note_on,0,0,0,,,,,,,,0,,,71,43
79960,note_on,40,0,0,,,,,,,,0,,,76,0
80000,note_on,40,0,0,,,,,,,,0,,,76,52
80040,note_on,40,0,0,,,,,,,,0,,,76,0
80080,note_on,40,0,0,,,,,,,,0,,,88,52
80100,note_on,20,0,0,,,,,,,,0,,,71,0
80100,note_on,0,0,0,,,,,,,,0,,,68,0
80120,note_on,20,0,0,,,,,,,,0,,,88,0
80160,note_on,40,0,0,,,,,,,,0,,,75,50
80160,note_on,0,0,0,,,,,,,,0,,,66,35
80160,note_on,0,0,0,,,,,,,,0,,,70,40
80200,note_on,40,0,0,,,,,,,,0,,,75,0
80240,note_on,40,0,0,,,,,,,,0,,,75,50
80280,note_on,40,0,0,,,,,,,,0,,,75,0
80320,note_on,40,0,0,,,,,,,,0,,,87,50
80340,note_on,20,0,0,,,,,,,,0,,,70,0
80340,note_on,0,0,0,,,,,,,,0,,,66,0
80360,note_on,20,0,0,,,,,,,,0,,,87,0
80400,set_tempo,40,1,0,,,,,,533333,,,,,,
80400,note_on,0,0,0,,,,,,,,0,,,73,47
80400,note_on,0,0,0,,,,,,,,0,,,64,35
80400,note_on,0,0,0,,,,,,,,0,,,68,39
80440,note_on,40,0,0,,,,,,,,0,,,73,0
80480,note_on,40,0,0,,,,,,,,0,,,73,47
80520,note_on,40,0,0,,,,,,,,0,,,73,0
80560,note_on,40,0,0,,,,,,,,0,,,85,47
80580,note_on,20,0,0,,,,,,,,0,,,68,0
80580,note_on,0,0,0,,,,,,,,0,,,64,0
80600,note_on,20,0,0,,,,,,,,0,,,85,0
80620,set_tempo,20,1,0,,,,,,530973,,,,,,
80640,set_tempo,20,1,0,,,,,,524017,,,,,,
80640,note_on,0,0,0,,,,,,,,0,,,75,46
80640,note_on,0,0,0,,,,,,,,0,,,68,41
80640,note_on,0,0,0,,,,,,,,0,,,63,41
80640,note_on,0,0,0,,,,,,,,0,,,71,45
80672,control_change,32,0,0,,,,,,,,0,64,127,,
80680,note_on,8,0,0,,,,,,,,0,,,75,0
80720,note_on,40,0,0,,,,,,,,0,,,75,46
80760,note_on,40,0,0,,,,,,,,0,,,75,0
80800,note_on,40,0,0,,,,,,,,0,,,87,47
80840,note_on,40,0,0,,,,,,,,0,,,87,0
80855,control_change,15,0,0,,,,,,,,0,64,0,,
80880,note_on,25,0,0,,,,,,,,0,,,68,0
80880,note_on,0,0,0,,,,,,,,0,,,63,0
80880,note_on,0,0,0,,,,,,,,0,,,71,0
80880,note_on,0,0,0,,,,,,,,0,,,76,47
80903,control_change,23,0,0,,,,,,,,0,64,127,,
80920,note_on,17,0,0,,,,,,,,0,,,76,0
80960,note_on,40,0,0,,,,,,,,0,,,76,49
81000,set_tempo,40,1,0,,,,,,521739,,,,,,
81000,note_on,0,0,0,,,,,,,,0,,,76,0
81040,note_on,40,0,0,,,,,,,,0,,,87,49
81080,note_on,40,0,0,,,,,,,,0,,,87,0
81117,control_change,37,0,0,,,,,,,,0,64,0,,
81120,note_on,3,0,0,,,,,,,,0,,,77,50
81157,control_change,37,0,0,,,,,,,,0,64,127,,
81160,note_on,3,0,0,,,,,,,,0,,,77,0
81200,note_on,40,0,0,,,,,,,,0,,,77,50
81240,note_on,40,0,0,,,,,,,,0,,,77,0
81280,note_on,40,0,0,,,,,,,,0,,,87,51
81320,note_on,40,0,0,,,,,,,,0,,,87,0
81349,control_change,29,0,0,,,,,,,,0,64,0,,
81360,set_tempo,11,1,0,,,,,,519481,,,,,,
81360,note_on,0,0,0,,,,,,,,0,,,78,51
81395,control_change,35,0,0,,,,,,,,0,64,127,,
81400,note_on,5,0,0,,,,,,,,0,,,78,0
81440,note_on,40,0,0,,,,,,,,0,,,78,52
81480,note_on,40,0,0,,,,,,,,0,,,78,0
81520,note_on,40,0,0,,,,,,,,0,,,87,52
81560,note_on,40,0,0,,,,,,,,0,,,87,0
81600,note_on,40,0,0,,,,,,,,0,,,79,54
81606,control_change,6,0,0,,,,,,,,0,64,0,,
81640,note_on,34,0,0,,,,,,,,0,,,79,0
81646,control_change,6,0,0,,,,,,,,0,64,127,,
81680,note_on,34,0,0,,,,,,,,0,,,79,54
81720,set_tempo,40,1,0,,,,,,517241,,,,,,
81720,note_on,0,0,0,,,,,,,,0,,,79,0
81760,note_on,40,0,0,,,,,,,,0,,,87,54
81800,note_on,40,0,0,,,,,,,,0,,,87,0
81840,note_on,40,0,0,,,,,,,,0,,,80,55
81852,control_change,12,0,0,,,,,,,,0,64,0,,
81880,note_on,28,0,0,,,,,,,,0,,,80,0
81889,control_change,9,0,0,,,,,,,,0,64,127,,
81920,note_on,31,0,0,,,,,,,,0,,,80,55
81956,set_tempo,36,1,0,,,,,,517241,,,,,,
81960,note_on,4,0,0,,,,,,,,0,,,80,0
82000,note_on,40,0,0,,,,,,,,0,,,87,56
82040,note_on,40,0,0,,,,,,,,0,,,87,0
82080,note_on,40,0,0,,,,,,,,0,,,81,56
82080,note_on,0,0,0,,,,,,,,0,,,67,50
82080,note_on,0,0,0,,,,,,,,0,,,61,44
82080,note_on,0,0,0,,,,,,,,0,,,51,44
82083,control_change,3,0,0,,,,,,,,0,64,0,,
82108,set_tempo,25,1,0,,,,,,519481,,,,,,
82120,note_on,12,0,0,,,,,,,,0,,,81,0
82129,control_change,9,0,0,,,,,,,,0,64,127,,
82160,note_on,31,0,0,,,,,,,,0,,,81,55
82200,note_on,40,0,0,,,,,,,,0,,,81,0
82240,note_on,40,0,0,,,,,,,,0,,,87,55
82259,set_tempo,19,1,0,,,,,,521739,,,,,,
82280,note_on,21,0,0,,,,,,,,0,,,87,0
82320,note_on,40,0,0,,,,,,,,0,,,67,0
82320,note_on,0,0,0,,,,,,,,0,,,61,0
82320,note_on,0,0,0,,,,,,,,0,,,51,0
82320,note_on,0,0,0,,,,,,,,0,,,82,55
82326,control_change,6,0,0,,,,,,,,0,64,0,,
82360,note_on,34,0,0,,,,,,,,0,,,82,0
82363,control_change,3,0,0,,,,,,,,0,64,127,,
82400,note_on,37,0,0,,,,,,,,0,,,82,55
82411,set_tempo,11,1,0,,,,,,524017,,,,,,
82440,note_on,29,0,0,,,,,,,,0,,,82,0
82480,note_on,40,0,0,,,,,,,,0,,,87,55
82520,note_on,40,0,0,,,,,,,,0,,,87,0
82537,set_tempo,17,1,0,,,,,,526316,,,,,,
82560,note_on,23,0,0,,,,,,,,0,,,83,55
82575,control_change,15,0,0,,,,,,,,0,64,0,,
82600,note_on,25,0,0,,,,,,,,0,,,83,0
82617,control_change,17,0,0,,,,,,,,0,64,127,,
82640,note_on,23,0,0,,,,,,,,0,,,83,55
82680,note_on,40,0,0,,,,,,,,0,,,83,0
82689,set_tempo,9,1,0,,,,,,528634,,,,,,
82720,note_on,31,0,0,,,,,,,,0,,,87,55
82760,note_on,40,0,0,,,,,,,,0,,,87,0
82800,note_on,40,0,0,,,,,,,,0,,,84,54
82816,control_change,16,0,0,,,,,,,,0,64,0,,
82840,set_tempo,24,1,0,,,,,,530973,,,,,,
82840,note_on,0,0,0,,,,,,,,0,,,84,0
82863,control_change,23,0,0,,,,,,,,0,64,127,,
82880,note_on,17,0,0,,,,,,,,0,,,84,54
82920,note_on,40,0,0,,,,,,,,0,,,84,0
82960,note_on,40,0,0,,,,,,,,0,,,87,54
82992,set_tempo,32,1,0,,,,,,533333,,,,,,
83000,note_on,8,0,0,,,,,,,,0,,,87,0
83040,note_on,40,0,0,,,,,,,,0,,,85,52
83051,control_change,11,0,0,,,,,,,,0,64,0,,
83080,note_on,29,0,0,,,,,,,,0,,,85,0
83086,control_change,6,0,0,,,,,,,,0,64,127,,
83118,set_tempo,32,1,0,,,,,,535714,,,,,,
83120,note_on,2,0,0,,,,,,,,0,,,85,52
83160,note_on,40,0,0,,,,,,,,0,,,85,0
83200,note_on,40,0,0,,,,,,,,0,,,87,51
83240,note_on,40,0,0,,,,,,,,0,,,87,0
83270,set_tempo,30,1,0,,,,,,538117,,,,,,
83280,note_on,10,0,0,,,,,,,,0,,,86,50
83296,control_change,16,0,0,,,,,,,,0,64,0,,
83320,note_on,24,0,0,,,,,,,,0,,,86,0
83329,control_change,9,0,0,,,,,,,,0,64,127,,
83360,note_on,31,0,0,,,,,,,,0,,,86,50
83400,note_on,40,0,0,,,,,,,,0,,,86,0
83422,set_tempo,22,1,0,,,,,,540541,,,,,,
83440,note_on,18,0,0,,,,,,,,0,,,87,49
83480,note_on,40,0,0,,,,,,,,0,,,87,0
83520,note_on,40,0,0,,,,,,,,0,,,87,47
83520,note_on,0,0,0,,,,,,,,0,,,68,37
83520,note_on,0,0,0,,,,,,,,0,,,59,34
83520,note_on,0,0,0,,,,,,,,0,,,51,34
83520,note_on,0,0,0,,,,,,,,0,,,44,34
83523,set_tempo,3,1,0,,,,,,542986,,,,,,
83529,control_change,6,0,0,,,,,,,,0,64,0,,
83560,note_on,31,0,0,,,,,,,,0,,,87,0
83563,control_change,3,0,0,,,,,,,,0,64,127,,
83573,set_tempo,10,1,0,,,,,,545455,,,,,,
83598,set_tempo,25,1,0,,,,,,547945,,,,,,
83600,note_on,2,0,0,,,,,,,,0,,,87,47
83640,note_on,40,0,0,,,,,,,,0,,,87,0
83649,set_tempo,9,1,0,,,,,,550459,,,,,,
83674,set_tempo,25,1,0,,,,,,552995,,,,,,
83680,note_on,6,0,0,,,,,,,,0,,,99,46
83720,note_on,40,0,0,,,,,,,,0,,,99,0
83725,set_tempo,5,1,0,,,,,,555556,,,,,,
83750,set_tempo,25,1,0,,,,,,558140,,,,,,
83760,note_on,10,0,0,,,,,,,,0,,,51,0
83760,note_on,0,0,0,,,,,,,,0,,,68,0
83760,note_on,0,0,0,,,,,,,,0,,,59,0
83760,note_on,0,0,0,,,,,,,,0,,,44,0
83760,note_on,0,0,0,,,,,,,,0,,,88,45
83772,control_change,12,0,0,,,,,,,,0,64,0,,
83800,set_tempo,28,1,0,,,,,,560748,,,,,,
83800,note_on,0,0,0,,,,,,,,0,,,88,0
83806,control_change,6,0,0,,,,,,,,0,64,127,,
83826,set_tempo,20,1,0,,,,,,563380,,,,,,
83840,note_on,14,0,0,,,,,,,,0,,,88,45
83876,set_tempo,36,1,0,,,,,,566038,,,,,,
83880,note_on,4,0,0,,,,,,,,0,,,88,0
83902,set_tempo,22,1,0,,,,,,568720,,,,,,
83920,note_on,18,0,0,,,,,,,,0,,,99,45
83952,set_tempo,32,1,0,,,,,,571429,,,,,,
83960,note_on,8,0,0,,,,,,,,0,,,99,0
83977,set_tempo,17,1,0,,,,,,574163,,,,,,
84000,note_on,23,0,0,,,,,,,,0,,,89,44
84017,control_change,17,0,0,,,,,,,,0,64,0,,
84028,set_tempo,11,1,0,,,,,,576923,,,,,,
84040,note_on,12,0,0,,,,,,,,0,,,89,0
84053,set_tempo,13,1,0,,,,,,579710,,,,,,
84057,control_change,4,0,0,,,,,,,,0,64,127,,
84080,note_on,23,0,0,,,,,,,,0,,,89,44
84104,set_tempo,24,1,0,,,,,,582524,,,,,,
84120,note_on,16,0,0,,,,,,,,0,,,89,0
84129,set_tempo,9,1,0,,,,,,585366,,,,,,
84160,note_on,31,0,0,,,,,,,,0,,,99,43
84179,set_tempo,19,1,0,,,,,,588235,,,,,,
84200,note_on,21,0,0,,,,,,,,0,,,99,0
84205,set_tempo,5,1,0,,,,,,591133,,,,,,
84230,set_tempo,25,1,0,,,,,,597015,,,,,,
84240,note_on,10,0,0,,,,,,,,0,,,90,41
84252,control_change,12,0,0,,,,,,,,0,64,0,,
84255,set_tempo,3,1,0,,,,,,600000,,,,,,
84280,set_tempo,25,1,0,,,,,,606061,,,,,,
84280,note_on,0,0,0,,,,,,,,0,,,90,0
84292,control_change,12,0,0,,,,,,,,0,64,127,,
84306,set_tempo,14,1,0,,,,,,609137,,,,,,
84320,note_on,14,0,0,,,,,,,,0,,,90,41
84331,set_tempo,11,1,0,,,,,,615385,,,,,,
84356,set_tempo,25,1,0,,,,,,621762,,,,,,
84360,note_on,4,0,0,,,,,,,,0,,,90,0
84382,set_tempo,22,1,0,,,,,,625000,,,,,,
84400,note_on,18,0,0,,,,,,,,0,,,99,40
84407,set_tempo,7,1,0,,,,,,631579,,,,,,
84432,set_tempo,25,1,0,,,,,,634921,,,,,,
84440,note_on,8,0,0,,,,,,,,0,,,99,0
84457,set_tempo,17,1,0,,,,,,641711,,,,,,
84480,note_on,23,0,0,,,,,,,,0,,,91,39
84483,set_tempo,3,1,0,,,,,,648649,,,,,,
84492,control_change,9,0,0,,,,,,,,0,64,0,,
84508,set_tempo,16,1,0,,,,,,652174,,,,,,
84520,note_on,12,0,0,,,,,,,,0,,,91,0
84529,control_change,9,0,0,,,,,,,,0,64,127,,
84533,set_tempo,4,1,0,,,,,,659341,,,,,,
84558,set_tempo,25,1,0,,,,,,662983,,,,,,
84560,note_on,2,0,0,,,,,,,,0,,,91,39
84584,set_tempo,24,1,0,,,,,,670391,,,,,,
84600,note_on,16,0,0,,,,,,,,0,,,91,0
84609,set_tempo,9,1,0,,,,,,674157,,,,,,
84634,set_tempo,25,1,0,,,,,,681818,,,,,,
84640,note_on,6,0,0,,,,,,,,0,,,99,37
84659,set_tempo,19,1,0,,,,,,689655,,,,,,
84680,note_on,21,0,0,,,,,,,,0,,,99,0
84685,set_tempo,5,1,0,,,,,,693642,,,,,,
84710,set_tempo,25,1,0,,,,,,701754,,,,,,
84720,note_on,10,0,0,,,,,,,,0,,,92,36
84735,set_tempo,15,1,0,,,,,,705882,,,,,,
84737,control_change,2,0,0,,,,,,,,0,64,0,,
84760,set_tempo,23,1,0,,,,,,714286,,,,,,
84760,note_on,0,0,0,,,,,,,,0,,,92,0
84775,control_change,15,0,0,,,,,,,,0,64,127,,
84786,set_tempo,11,1,0,,,,,,722892,,,,,,
84800,note_on,14,0,0,,,,,,,,0,,,92,36
84811,set_tempo,11,1,0,,,,,,727273,,,,,,
84836,set_tempo,25,1,0,,,,,,736196,,,,,,
84840,note_on,4,0,0,,,,,,,,0,,,92,0
84862,set_tempo,22,1,0,,,,,,740741,,,,,,
84880,note_on,18,0,0,,,,,,,,0,,,99,36
84887,set_tempo,7,1,0,,,,,,750000,,,,,,
84912,set_tempo,25,1,0,,,,,,759494,,,,,,
84920,note_on,8,0,0,,,,,,,,0,,,99,0
84940,set_tempo,20,1,0,,,,,,547945,,,,,,
84960,set_tempo,20,1,0,,,,,,869565,,,,,,
84960,control_change,0,0,0,,,,,,,,0,64,0,,
85440,set_tempo,480,1,0,,,,,,585366,,,,,,
85440,note_on,0,0,0,,,,,,,,0,,,71,41
85440,note_on,0,0,0,,,,,,,,0,,,68,41
85560,note_on,120,0,0,,,,,,,,0,,,68,0
85560,note_on,0,0,0,,,,,,,,0,,,70,43
85560,note_on,0,0,0,,,,,,,,0,,,67,43
85600,set_tempo,40,1,0,,,,,,582524,,,,,,
85680,note_on,80,0,0,,,,,,,,0,,,67,0
85680,note_on,0,0,0,,,,,,,,0,,,70,0
85680,note_on,0,0,0,,,,,,,,0,,,71,0
85680,note_on,0,0,0,,,,,,,,0,,,71,37
85680,note_on,0,0,0,,,,,,,,0,,,69,44
85680,note_on,0,0,0,,,,,,,,0,,,66,44
85760,set_tempo,80,1,0,,,,,,579710,,,,,,
85770,note_on,10,0,0,,,,,,,,0,,,66,0
85770,note_on,0,0,0,,,,,,,,0,,,69,0
85770,note_on,0,0,0,,,,,,,,0,,,71,0
85800,note_on,30,0,0,,,,,,,,0,,,71,39
85800,note_on,0,0,0,,,,,,,,0,,,68,45
85800,note_on,0,0,0,,,,,,,,0,,,65,45
85890,note_on,90,0,0,,,,,,,,0,,,65,0
85890,note_on,0,0,0,,,,,,,,0,,,68,0
85890,note_on,0,0,0,,,,,,,,0,,,71,0
85900,set_tempo,10,1,0,,,,,,576923,,,,,,
85920,note_on,20,0,0,,,,,,,,0,,,71,40
85920,note_on,0,0,0,,,,,,,,0,,,67,45
85920,note_on,0,0,0,,,,,,,,0,,,64,45
86010,note_on,90,0,0,,,,,,,,0,,,64,0
86010,note_on,0,0,0,,,,,,,,0,,,67,0
86010,note_on,0,0,0,,,,,,,,0,,,71,0
86040,note_on,30,0,0,,,,,,,,0,,,71,41
86040,note_on,0,0,0,,,,,,,,0,,,66,46
86040,note_on,0,0,0,,,,,,,,0,,,63,46
86060,set_tempo,20,1,0,,,,,,574163,,,,,,
86130,note_on,70,0,0,,,,,,,,0,,,63,0
86130,note_on,0,0,0,,,,,,,,0,,,66,0
86130,note_on,0,0,0,,,,,,,,0,,,71,0
86160,note_on,30,0,0,,,,,,,,0,,,71,43
86160,note_on,0,0,0,,,,,,,,0,,,65,47
86160,note_on,0,0,0,,,,,,,,0,,,62,47
86220,set_tempo,60,1,0,,,,,,571429,,,,,,
86250,note_on,30,0,0,,,,,,,,0,,,62,0
86250,note_on,0,0,0,,,,,,,,0,,,65,0
86250,note_on,0,0,0,,,,,,,,0,,,71,0
86280,set_tempo,30,1,0,,,,,,600000,,,,,,
86280,note_on,0,0,0,,,,,,,,0,,,71,44
86280,note_on,0,0,0,,,,,,,,0,,,64,49
86280,note_on,0,0,0,,,,,,,,0,,,61,49
86360,set_tempo,80,1,0,,,,,,568720,,,,,,
86370,note_on,10,0,0,,,,,,,,0,,,61,0
86370,note_on,0,0,0,,,,,,,,0,,,64,0
86370,note_on,0,0,0,,,,,,,,0,,,71,0
86380,set_tempo,10,1,0,,,,,,621762,,,,,,
86400,set_tempo,20,1,0,,,,,,622407,,,,,,
86400,note_on,0,0,0,,,,,,,,0,,,73,57
86460,note_on,60,0,0,,,,,,,,0,,,73,0
86460,note_on,0,0,0,,,,,,,,0,,,71,50
86520,note_on,60,0,0,,,,,,,,0,,,71,0
86520,note_on,0,0,0,,,,,,,,0,,,70,50
86580,note_on,60,0,0,,,,,,,,0,,,70,0
86580,note_on,0,0,0,,,,,,,,0,,,71,50
86640,note_on,60,0,0,,,,,,,,0,,,71,0
86640,note_on,0,0,0,,,,,,,,0,,,66,54
86640,note_on,0,0,0,,,,,,,,0,,,63,49
86640,note_on,0,0,0,,,,,,,,0,,,59,44
86700,note_on,60,0,0,,,,,,,,0,,,78,50
86754,note_on,54,0,0,,,,,,,,0,,,78,0
86760,note_on,6,0,0,,,,,,,,0,,,78,50
86814,note_on,54,0,0,,,,,,,,0,,,78,0
86820,note_on,6,0,0,,,,,,,,0,,,59,0
86820,note_on,0,0,0,,,,,,,,0,,,63,0
86820,note_on,0,0,0,,,,,,,,0,,,78,50
86874,note_on,54,0,0,,,,,,,,0,,,78,0
86880,note_on,6,0,0,,,,,,,,0,,,66,0
86880,note_on,0,0,0,,,,,,,,0,,,71,54
86880,note_on,0,0,0,,,,,,,,0,,,66,49
86880,note_on,0,0,0,,,,,,,,0,,,63,44
86880,note_on,0,0,0,,,,,,,,0,,,54,44
86940,note_on,60,0,0,,,,,,,,0,,,83,50
86994,note_on,54,0,0,,,,,,,,0,,,83,0
87000,note_on,6,0,0,,,,,,,,0,,,83,50
87054,note_on,54,0,0,,,,,,,,0,,,83,0
87060,note_on,6,0,0,,,,,,,,0,,,54,0
87060,note_on,0,0,0,,,,,,,,0,,,63,0
87060,note_on,0,0,0,,,,,,,,0,,,66,0
87060,note_on,0,0,0,,,,,,,,0,,,83,50
87114,note_on,54,0,0,,,,,,,,0,,,83,0
87120,set_tempo,6,1,0,,,,,,642398,,,,,,
87120,note_on,0,0,0,,,,,,,,0,,,71,0
87120,note_on,0,0,0,,,,,,,,0,,,73,54
87180,note_on,60,0,0,,,,,,,,0,,,85,51
87234,note_on,54,0,0,,,,,,,,0,,,85,0
87240,note_on,6,0,0,,,,,,,,0,,,85,51
87294,note_on,54,0,0,,,,,,,,0,,,85,0
87300,note_on,6,0,0,,,,,,,,0,,,85,51
87354,note_on,54,0,0,,,,,,,,0,,,85,0
87360,set_tempo,6,1,0,,,,,,660066,,,,,,
87360,note_on,0,0,0,,,,,,,,0,,,73,0
87360,note_on,0,0,0,,,,,,,,0,,,78,54
87360,note_on,0,0,0,,,,,,,,0,,,64,46
87360,note_on,0,0,0,,,,,,,,0,,,58,42
87420,note_on,60,0,0,,,,,,,,0,,,90,51
87474,note_on,54,0,0,,,,,,,,0,,,90,0
87480,note_on,6,0,0,,,,,,,,0,,,90,51
87534,note_on,54,0,0,,,,,,,,0,,,90,0
87540,note_on,6,0,0,,,,,,,,0,,,58,0
87540,note_on,0,0,0,,,,,,,,0,,,64,0
87540,note_on,0,0,0,,,,,,,,0,,,90,51
87594,note_on,54,0,0,,,,,,,,0,,,90,0
87600,set_tempo,6,1,0,,,,,,686499,,,,,,
87600,note_on,0,0,0,,,,,,,,0,,,78,0
87600,note_on,0,0,0,,,,,,,,0,,,85,54
87600,note_on,0,0,0,,,,,,,,0,,,66,46
87600,note_on,0,0,0,,,,,,,,0,,,54,42
87600,note_on,0,0,0,,,,,,,,0,,,58,42
87680,note_on,80,0,0,,,,,,,,0,,,97,52
87680,note_on,0,0,0,,,,,,,,0,,,90,52
87720,set_tempo,40,1,0,,,,,,741656,,,,,,
87752,note_on,32,0,0,,,,,,,,0,,,90,0
87752,note_on,0,0,0,,,,,,,,0,,,97,0
87760,note_on,8,0,0,,,,,,,,0,,,97,54
87760,note_on,0,0,0,,,,,,,,0,,,90,54
87780,note_on,20,0,0,,,,,,,,0,,,54,0
87780,note_on,0,0,0,,,,,,,,0,,,58,0
87780,note_on,0,0,0,,,,,,,,0,,,66,0
87832,note_on,52,0,0,,,,,,,,0,,,90,0
87832,note_on,0,0,0,,,,,,,,0,,,97,0
87840,set_tempo,8,1,0,,,,,,635593,,,,,,
87840,note_on,0,0,0,,,,,,,,0,,,85,0
87840,note_on,0,0,0,,,,,,,,0,,,87,56
87840,note_on,0,0,0,,,,,,,,0,,,47,50
87920,note_on,80,0,0,,,,,,,,0,,,99,54
87920,note_on,0,0,0,,,,,,,,0,,,90,54
87992,note_on,72,0,0,,,,,,,,0,,,90,0
87992,note_on,0,0,0,,,,,,,,0,,,99,0
88000,note_on,8,0,0,,,,,,,,0,,,99,54
88000,note_on,0,0,0,,,,,,,,0,,,90,54
88020,note_on,20,0,0,,,,,,,,0,,,47,0
88072,note_on,52,0,0,,,,,,,,0,,,90,0
88072,note_on,0,0,0,,,,,,,,0,,,99,0
88080,set_tempo,8,1,0,,,,,,618557,,,,,,
88080,note_on,0,0,0,,,,,,,,0,,,87,0
88080,note_on,0,0,0,,,,,,,,0,,,83,54
88080,note_on,0,0,0,,,,,,,,0,,,63,45
88080,note_on,0,0,0,,,,,,,,0,,,54,41
88200,set_tempo,120,1,0,,,,,,890208,,,,,,
88200,note_on,0,0,0,,,,,,,,0,,,54,0
88200,note_on,0,0,0,,,,,,,,0,,,63,0
88200,note_on,0,0,0,,,,,,,,0,,,83,0
88320,set_tempo,120,1,0,,,,,,566038,,,,,,
88320,note_on,0,0,0,,,,,,,,0,,,75,41
88320,note_on,0,0,0,,,,,,,,0,,,71,41
88440,note_on,120,0,0,,,,,,,,0,,,74,43
88480,set_tempo,40,1,0,,,,,,563380,,,,,,
88560,note_on,80,0,0,,,,,,,,0,,,74,0
88560,note_on,0,0,0,,,,,,,,0,,,71,0
88560,note_on,0,0,0,,,,,,,,0,,,75,0
88560,note_on,0,0,0,,,,,,,,0,,,75,37
88560,note_on,0,0,0,,,,,,,,0,,,73,44
88560,note_on,0,0,0,,,,,,,,0,,,70,44
88640,set_tempo,80,1,0,,,,,,560748,,,,,,
88650,note_on,10,0,0,,,,,,,,0,,,70,0
88650,note_on,0,0,0,,,,,,,,0,,,73,0
88650,note_on,0,0,0,,,,,,,,0,,,75,0
88680,note_on,30,0,0,,,,,,,,0,,,75,39
88680,note_on,0,0,0,,,,,,,,0,,,72,45
88680,note_on,0,0,0,,,,,,,,0,,,69,45
88770,note_on,90,0,0,,,,,,,,0,,,69,0
88770,note_on,0,0,0,,,,,,,,0,,,72,0
88770,note_on,0,0,0,,,,,,,,0,,,75,0
88800,set_tempo,30,1,0,,,,,,558140,,,,,,
88800,note_on,0,0,0,,,,,,,,0,,,75,40
88800,note_on,0,0,0,,,,,,,,0,,,71,45
88800,note_on,0,0,0,,,,,,,,0,,,68,45
88890,note_on,90,0,0,,,,,,,,0,,,68,0
88890,note_on,0,0,0,,,,,,,,0,,,71,0
88890,note_on,0,0,0,,,,,,,,0,,,75,0
88920,note_on,30,0,0,,,,,,,,0,,,75,41
88920,note_on,0,0,0,,,,,,,,0,,,70,46
88920,note_on,0,0,0,,,,,,,,0,,,67,46
88960,set_tempo,40,1,0,,,,,,555556,,,,,,
89010,note_on,50,0,0,,,,,,,,0,,,67,0
89010,note_on,0,0,0,,,,,,,,0,,,70,0
89010,note_on,0,0,0,,,,,,,,0,,,75,0
89040,note_on,30,0,0,,,,,,,,0,,,75,43
89040,note_on,0,0,0,,,,,,,,0,,,69,47
89040,note_on,0,0,0,,,,,,,,0,,,66,47
89120,set_tempo,80,1,0,,,,,,552995,,,,,,
89130,note_on,10,0,0,,,,,,,,0,,,66,0
89130,note_on,0,0,0,,,,,,,,0,,,69,0
89130,note_on,0,0,0,,,,,,,,0,,,75,0
89160,set_tempo,30,1,0,,,,,,582524,,,,,,
89160,note_on,0,0,0,,,,,,,,0,,,75,44
89160,note_on,0,0,0,,,,,,,,0,,,68,49
89160,note_on,0,0,0,,,,,,,,0,,,65,49
89250,note_on,90,0,0,,,,,,,,0,,,65,0
89250,note_on,0,0,0,,,,,,,,0,,,68,0
89250,note_on,0,0,0,,,,,,,,0,,,75,0
89260,set_tempo,10,1,0,,,,,,550459,,,,,,
89280,set_tempo,20,1,0,,,,,,622407,,,,,,
89280,note_on,0,0,0,,,,,,,,0,,,77,56
89340,note_on,60,0,0,,,,,,,,0,,,77,0
89340,note_on,0,0,0,,,,,,,,0,,,75,50
89400,note_on,60,0,0,,,,,,,,0,,,75,0
89400,note_on,0,0,0,,,,,,,,0,,,74,50
89460,note_on,60,0,0,,,,,,,,0,,,74,0
89460,note_on,0,0,0,,,,,,,,0,,,75,50
89520,note_on,60,0,0,,,,,,,,0,,,75,0
89520,note_on,0,0,0,,,,,,,,0,,,70,54
89520,note_on,0,0,0,,,,,,,,0,,,66,49
89520,note_on,0,0,0,,,,,,,,0,,,63,44
89580,note_on,60,0,0,,,,,,,,0,,,82,50
89634,note_on,54,0,0,,,,,,,,0,,,82,0
89640,note_on,6,0,0,,,,,,,,0,,,82,50
89694,note_on,54,0,0,,,,,,,,0,,,82,0
89700,note_on,6,0,0,,,,,,,,0,,,63,0
89700,note_on,0,0,0,,,,,,,,0,,,66,0
89700,note_on,0,0,0,,,,,,,,0,,,82,50
89754,note_on,54,0,0,,,,,,,,0,,,82,0
89760,note_on,6,0,0,,,,,,,,0,,,70,0
89760,note_on,0,0,0,,,,,,,,0,,,75,54
89760,note_on,0,0,0,,,,,,,,0,,,70,49
89760,note_on,0,0,0,,,,,,,,0,,,66,44
89760,note_on,0,0,0,,,,,,,,0,,,58,44
89820,note_on,60,0,0,,,,,,,,0,,,87,50
89874,note_on,54,0,0,,,,,,,,0,,,87,0
89880,note_on,6,0,0,,,,,,,,0,,,87,50
89934,note_on,54,0,0,,,,,,,,0,,,87,0
89940,note_on,6,0,0,,,,,,,,0,,,58,0
89940,note_on,0,0,0,,,,,,,,0,,,66,0
89940,note_on,0,0,0,,,,,,,,0,,,70,0
89940,note_on,0,0,0,,,,,,,,0,,,87,50
89994,note_on,54,0,0,,,,,,,,0,,,87,0
90000,set_tempo,6,1,0,,,,,,635593,,,,,,
90000,note_on,0,0,0,,,,,,,,0,,,75,0
90000,note_on,0,0,0,,,,,,,,0,,,77,54
90060,note_on,60,0,0,,,,,,,,0,,,89,51
90114,note_on,54,0,0,,,,,,,,0,,,89,0
90120,note_on,6,0,0,,,,,,,,0,,,89,51
90174,note_on,54,0,0,,,,,,,,0,,,89,0
90180,note_on,6,0,0,,,,,,,,0,,,89,51
90234,note_on,54,0,0,,,,,,,,0,,,89,0
90240,set_tempo,6,1,0,,,,,,652884,,,,,,
90240,note_on,0,0,0,,,,,,,,0,,,77,0
90240,note_on,0,0,0,,,,,,,,0,,,82,54
90240,note_on,0,0,0,,,,,,,,0,,,68,46
90240,note_on,0,0,0,,,,,,,,0,,,62,42
90300,note_on,60,0,0,,,,,,,,0,,,94,51
90354,note_on,54,0,0,,,,,,,,0,,,94,0
90360,note_on,6,0,0,,,,,,,,0,,,94,51
90414,note_on,54,0,0,,,,,,,,0,,,94,0
90420,note_on,6,0,0,,,,,,,,0,,,62,0
90420,note_on,0,0,0,,,,,,,,0,,,68,0
90420,note_on,0,0,0,,,,,,,,0,,,94,51
90474,note_on,54,0,0,,,,,,,,0,,,94,0
90480,set_tempo,6,1,0,,,,,,678733,,,,,,
90480,note_on,0,0,0,,,,,,,,0,,,82,0
90480,note_on,0,0,0,,,,,,,,0,,,89,54
90480,note_on,0,0,0,,,,,,,,0,,,70,46
90480,note_on,0,0,0,,,,,,,,0,,,58,42
90480,note_on,0,0,0,,,,,,,,0,,,62,42
90560,note_on,80,0,0,,,,,,,,0,,,101,52
90560,note_on,0,0,0,,,,,,,,0,,,94,52
90600,set_tempo,40,1,0,,,,,,719424,,,,,,
90632,note_on,32,0,0,,,,,,,,0,,,94,0
90632,note_on,0,0,0,,,,,,,,0,,,101,0
90640,note_on,8,0,0,,,,,,,,0,,,101,54
90640,note_on,0,0,0,,,,,,,,0,,,94,54
90660,note_on,20,0,0,,,,,,,,0,,,58,0
90660,note_on,0,0,0,,,,,,,,0,,,62,0
90660,note_on,0,0,0,,,,,,,,0,,,70,0
90712,note_on,52,0,0,,,,,,,,0,,,94,0
90712,note_on,0,0,0,,,,,,,,0,,,101,0
90720,set_tempo,8,1,0,,,,,,667408,,,,,,
90720,note_on,0,0,0,,,,,,,,0,,,89,0
90720,note_on,0,0,0,,,,,,,,0,,,90,56
90720,note_on,0,0,0,,,,,,,,0,,,51,50
90800,note_on,80,0,0,,,,,,,,0,,,102,54
90800,note_on,0,0,0,,,,,,,,0,,,94,54
90872,note_on,72,0,0,,,,,,,,0,,,94,0
90872,note_on,0,0,0,,,,,,,,0,,,102,0
90880,note_on,8,0,0,,,,,,,,0,,,102,54
90880,note_on,0,0,0,,,,,,,,0,,,94,54
90900,note_on,20,0,0,,,,,,,,0,,,51,0
90952,note_on,52,0,0,,,,,,,,0,,,94,0
90952,note_on,0,0,0,,,,,,,,0,,,102,0
90960,set_tempo,8,1,0,,,,,,618557,,,,,,
90960,note_on,0,0,0,,,,,,,,0,,,90,0
90960,note_on,0,0,0,,,,,,,,0,,,87,54
90960,note_on,0,0,0,,,,,,,,0,,,66,45
90960,note_on,0,0,0,,,,,,,,0,,,58,41
91080,set_tempo,120,1,0,,,,,,870827,,,,,,
91080,note_on,0,0,0,,,,,,,,0,,,58,0
91080,note_on,0,0,0,,,,,,,,0,,,66,0
91080,note_on,0,0,0,,,,,,,,0,,,87,0
91200,set_tempo,120,1,0,,,,,,566038,,,,,,
91200,note_on,0,0,0,,,,,,,,0,,,78,41
91200,note_on,0,0,0,,,,,,,,0,,,75,41
91320,note_on,120,0,0,,,,,,,,0,,,75,0
91320,note_on,0,0,0,,,,,,,,0,,,77,43
91320,note_on,0,0,0,,,,,,,,0,,,74,41
91360,set_tempo,40,1,0,,,,,,563380,,,,,,
91440,note_on,80,0,0,,,,,,,,0,,,74,0
91440,note_on,0,0,0,,,,,,,,0,,,77,0
91440,note_on,0,0,0,,,,,,,,0,,,78,0
91440,note_on,0,0,0,,,,,,,,0,,,78,37
91440,note_on,0,0,0,,,,,,,,0,,,76,44
91440,note_on,0,0,0,,,,,,,,0,,,73,44
91520,set_tempo,80,1,0,,,,,,560748,,,,,,
91530,note_on,10,0,0,,,,,,,,0,,,73,0
91530,note_on,0,0,0,,,,,,,,0,,,76,0
91530,note_on,0,0,0,,,,,,,,0,,,78,0
91560,note_on,30,0,0,,,,,,,,0,,,78,39
91560,note_on,0,0,0,,,,,,,,0,,,75,45
91560,note_on,0,0,0,,,,,,,,0,,,72,45
91650,note_on,90,0,0,,,,,,,,0,,,72,0
91650,note_on,0,0,0,,,,,,,,0,,,75,0
91650,note_on,0,0,0,,,,,,,,0,,,78,0
91680,set_tempo,30,1,0,,,,,,558140,,,,,,
91680,note_on,0,0,0,,,,,,,,0,,,78,40
91680,note_on,0,0,0,,,,,,,,0,,,74,45
91680,note_on,0,0,0,,,,,,,,0,,,71,45
91770,note_on,90,0,0,,,,,,,,0,,,71,0
91770,note_on,0,0,0,,,,,,,,0,,,74,0
91770,note_on,0,0,0,,,,,,,,0,,,78,0
91800,note_on,30,0,0,,,,,,,,0,,,78,41
91800,note_on,0,0,0,,,,,,,,0,,,73,46
91800,note_on,0,0,0,,,,,,,,0,,,70,46
91840,set_tempo,40,1,0,,,,,,555556,,,,,,
91890,note_on,50,0,0,,,,,,,,0,,,70,0
91890,note_on,0,0,0,,,,,,,,0,,,73,0
91890,note_on,0,0,0,,,,,,,,0,,,78,0
91920,note_on,30,0,0,,,,,,,,0,,,78,43
91920,note_on,0,0,0,,,,,,,,0,,,72,47
91920,note_on,0,0,0,,,,,,,,0,,,69,47
92000,set_tempo,80,1,0,,,,,,552995,,,,,,
92010,note_on,10,0,0,,,,,,,,0,,,69,0
92010,note_on,0,0,0,,,,,,,,0,,,72,0
92010,note_on,0,0,0,,,,,,,,0,,,78,0
92040,set_tempo,30,1,0,,,,,,582524,,,,,,
92040,note_on,0,0,0,,,,,,,,0,,,78,44
92040,note_on,0,0,0,,,,,,,,0,,,71,49
92040,note_on,0,0,0,,,,,,,,0,,,68,49
92130,note_on,90,0,0,,,,,,,,0,,,68,0
92130,note_on,0,0,0,,,,,,,,0,,,71,0
92130,note_on,0,0,0,,,,,,,,0,,,78,0
92140,set_tempo,10,1,0,,,,,,550459,,,,,,
92160,set_tempo,20,1,0,,,,,,622407,,,,,,
92160,note_on,0,0,0,,,,,,,,0,,,80,56
92220,note_on,60,0,0,,,,,,,,0,,,80,0
92220,note_on,0,0,0,,,,,,,,0,,,78,50
92280,note_on,60,0,0,,,,,,,,0,,,78,0
92280,note_on,0,0,0,,,,,,,,0,,,77,50
92340,note_on,60,0,0,,,,,,,,0,,,77,0
92340,note_on,0,0,0,,,,,,,,0,,,78,50
92400,note_on,60,0,0,,,,,,,,0,,,78,0
92400,note_on,0,0,0,,,,,,,,0,,,73,54
92400,note_on,0,0,0,,,,,,,,0,,,70,49
92400,note_on,0,0,0,,,,,,,,0,,,66,44
92460,note_on,60,0,0,,,,,,,,0,,,85,50
92514,note_on,54,0,0,,,,,,,,0,,,85,0
92520,note_on,6,0,0,,,,,,,,0,,,85,50
92574,note_on,54,0,0,,,,,,,,0,,,85,0
92580,note_on,6,0,0,,,,,,,,0,,,66,0
92580,note_on,0,0,0,,,,,,,,0,,,70,0
92580,note_on,0,0,0,,,,,,,,0,,,85,50
92634,note_on,54,0,0,,,,,,,,0,,,85,0
92640,note_on,6,0,0,,,,,,,,0,,,73,0
92640,note_on,0,0,0,,,,,,,,0,,,78,54
92640,note_on,0,0,0,,,,,,,,0,,,73,49
92640,note_on,0,0,0,,,,,,,,0,,,70,44
92640,note_on,0,0,0,,,,,,,,0,,,61,44
92700,note_on,60,0,0,,,,,,,,0,,,90,50
92754,note_on,54,0,0,,,,,,,,0,,,90,0
92760,note_on,6,0,0,,,,,,,,0,,,90,50
92814,note_on,54,0,0,,,,,,,,0,,,90,0
92820,note_on,6,0,0,,,,,,,,0,,,61,0
92820,note_on,0,0,0,,,,,,,,0,,,70,0
92820,note_on,0,0,0,,,,,,,,0,,,73,0
92820,note_on,0,0,0,,,,,,,,0,,,90,50
92874,note_on,54,0,0,,,,,,,,0,,,90,0
92880,note_on,6,0,0,,,,,,,,0,,,78,0
92880,note_on,0,0,0,,,,,,,,0,,,80,54
92940,note_on,60,0,0,,,,,,,,0,,,92,51
92994,note_on,54,0,0,,,,,,,,0,,,92,0
93000,note_on,6,0,0,,,,,,,,0,,,92,51
93054,note_on,54,0,0,,,,,,,,0,,,92,0
93060,note_on,6,0,0,,,,,,,,0,,,92,51
93100,set_tempo,40,1,0,,,,,,659341,,,,,,
93114,note_on,14,0,0,,,,,,,,0,,,92,0
93120,set_tempo,6,1,0,,,,,,628272,,,,,,
93120,note_on,0,0,0,,,,,,,,0,,,80,0
93120,note_on,0,0,0,,,,,,,,0,,,85,54
93120,note_on,0,0,0,,,,,,,,0,,,71,46
93120,note_on,0,0,0,,,,,,,,0,,,65,42
93148,set_tempo,28,1,0,,,,,,628931,,,,,,
93173,set_tempo,25,1,0,,,,,,632244,,,,,,
93198,set_tempo,25,1,0,,,,,,635593,,,,,,
93200,note_on,2,0,0,,,,,,,,0,,,97,54
93200,note_on,0,0,0,,,,,,,,0,,,92,54
93224,set_tempo,24,1,0,,,,,,638978,,,,,,
93249,set_tempo,25,1,0,,,,,,642398,,,,,,
93272,note_on,23,0,0,,,,,,,,0,,,92,0
93272,note_on,0,0,0,,,,,,,,0,,,97,0
93274,set_tempo,2,1,0,,,,,,645856,,,,,,
93280,note_on,6,0,0,,,,,,,,0,,,97,54
93280,note_on,0,0,0,,,,,,,,0,,,92,54
93299,set_tempo,19,1,0,,,,,,649351,,,,,,
93300,note_on,1,0,0,,,,,,,,0,,,65,0
93300,note_on,0,0,0,,,,,,,,0,,,71,0
93325,set_tempo,25,1,0,,,,,,652884,,,,,,
93350,set_tempo,25,1,0,,,,,,656455,,,,,,
93352,note_on,2,0,0,,,,,,,,0,,,92,0
93352,note_on,0,0,0,,,,,,,,0,,,97,0
93360,note_on,8,0,0,,,,,,,,0,,,85,0
93360,note_on,0,0,0,,,,,,,,0,,,97,54
93360,note_on,0,0,0,,,,,,,,0,,,92,54
93360,note_on,0,0,0,,,,,,,,0,,,73,46
93360,note_on,0,0,0,,,,,,,,0,,,61,42
93360,note_on,0,0,0,,,,,,,,0,,,65,42
93375,set_tempo,15,1,0,,,,,,660066,,,,,,
93400,set_tempo,25,1,0,,,,,,663717,,,,,,
93426,set_tempo,26,1,0,,,,,,667408,,,,,,
93432,note_on,6,0,0,,,,,,,,0,,,92,0
93432,note_on,0,0,0,,,,,,,,0,,,97,0
93440,note_on,8,0,0,,,,,,,,0,,,92,52
93440,note_on,0,0,0,,,,,,,,0,,,97,52
93451,set_tempo,11,1,0,,,,,,671141,,,,,,
93476,set_tempo,25,1,0,,,,,,678733,,,,,,
93480,set_tempo,4,1,0,,,,,,662983,,,,,,
93500,set_tempo,20,1,0,,,,,,816327,,,,,,
93512,note_on,12,0,0,,,,,,,,0,,,97,0
93512,note_on,0,0,0,,,,,,,,0,,,92,0
93520,set_tempo,8,1,0,,,,,,827586,,,,,,
93520,note_on,0,0,0,,,,,,,,0,,,92,54
93520,note_on,0,0,0,,,,,,,,0,,,97,54
93540,set_tempo,20,1,0,,,,,,839161,,,,,,
93540,note_on,0,0,0,,,,,,,,0,,,65,0
93540,note_on,0,0,0,,,,,,,,0,,,61,0
93540,note_on,0,0,0,,,,,,,,0,,,73,0
93560,set_tempo,20,1,0,,,,,,851064,,,,,,
93592,note_on,32,0,0,,,,,,,,0,,,92,0
93592,note_on,0,0,0,,,,,,,,0,,,97,0
93600,set_tempo,8,1,0,,,,,,612870,,,,,,
93600,note_on,0,0,0,,,,,,,,0,,,97,40
93600,note_on,0,0,0,,,,,,,,0,,,94,40
93600,note_on,0,0,0,,,,,,,,0,,,66,55
93660,note_on,60,0,0,,,,,,,,0,,,97,0
93660,note_on,0,0,0,,,,,,,,0,,,99,40
93720,note_on,60,0,0,,,,,,,,0,,,99,0
93720,note_on,0,0,0,,,,,,,,0,,,94,0
93720,note_on,0,0,0,,,,,,,,0,,,97,39
93720,note_on,0,0,0,,,,,,,,0,,,93,39
93780,note_on,60,0,0,,,,,,,,0,,,97,0
93780,note_on,0,0,0,,,,,,,,0,,,99,37
93840,set_tempo,60,1,0,,,,,,583090,,,,,,
93840,note_on,0,0,0,,,,,,,,0,,,99,0
93840,note_on,0,0,0,,,,,,,,0,,,93,0
93840,note_on,0,0,0,,,,,,,,0,,,66,0
93840,note_on,0,0,0,,,,,,,,0,,,97,37
93840,note_on,0,0,0,,,,,,,,0,,,92,37
93840,note_on,0,0,0,,,,,,,,0,,,78,44
93840,note_on,0,0,0,,,,,,,,0,,,82,49
93900,note_on,60,0,0,,,,,,,,0,,,97,0
93900,note_on,0,0,0,,,,,,,,0,,,99,36
93930,note_on,30,0,0,,,,,,,,0,,,82,0
93930,note_on,0,0,0,,,,,,,,0,,,78,0
93960,note_on,30,0,0,,,,,,,,0,,,92,0
93960,note_on,0,0,0,,,,,,,,0,,,99,0
93960,note_on,0,0,0,,,,,,,,0,,,97,36
93960,note_on,0,0,0,,,,,,,,0,,,91,36
93960,note_on,0,0,0,,,,,,,,0,,,80,44
93960,note_on,0,0,0,,,,,,,,0,,,83,49
94020,note_on,60,0,0,,,,,,,,0,,,97,0
94020,note_on,0,0,0,,,,,,,,0,,,99,36
94050,note_on,30,0,0,,,,,,,,0,,,83,0
94050,note_on,0,0,0,,,,,,,,0,,,80,0
94060,set_tempo,10,1,0,,,,,,545455,,,,,,
94080,set_tempo,20,1,0,,,,,,558659,,,,,,
94080,note_on,0,0,0,,,,,,,,0,,,91,0
94080,note_on,0,0,0,,,,,,,,0,,,99,0
94080,note_on,0,0,0,,,,,,,,0,,,97,35
94080,note_on,0,0,0,,,,,,,,0,,,90,35
94080,note_on,0,0,0,,,,,,,,0,,,82,45
94080,note_on,0,0,0,,,,,,,,0,,,85,52
94140,note_on,60,0,0,,,,,,,,0,,,97,0
94140,note_on,0,0,0,,,,,,,,0,,,99,35
94200,set_tempo,60,1,0,,,,,,568720,,,,,,
94200,note_on,0,0,0,,,,,,,,0,,,99,0
94200,note_on,0,0,0,,,,,,,,0,,,97,34
94260,note_on,60,0,0,,,,,,,,0,,,97,0
94260,note_on,0,0,0,,,,,,,,0,,,85,0
94260,note_on,0,0,0,,,,,,,,0,,,82,0
94260,note_on,0,0,0,,,,,,,,0,,,99,34
94320,set_tempo,60,1,0,,,,,,597610,,,,,,
94320,note_on,0,0,0,,,,,,,,0,,,99,0
94320,note_on,0,0,0,,,,,,,,0,,,90,0
94320,note_on,0,0,0,,,,,,,,0,,,95,37
94320,note_on,0,0,0,,,,,,,,0,,,92,37
94320,note_on,0,0,0,,,,,,,,0,,,59,55
94380,note_on,60,0,0,,,,,,,,0,,,95,0
94380,note_on,0,0,0,,,,,,,,0,,,97,37
94440,note_on,60,0,0,,,,,,,,0,,,97,0
94440,note_on,0,0,0,,,,,,,,0,,,92,0
94440,note_on,0,0,0,,,,,,,,0,,,95,36
94440,note_on,0,0,0,,,,,,,,0,,,91,36
94500,note_on,60,0,0,,,,,,,,0,,,95,0
94500,note_on,0,0,0,,,,,,,,0,,,97,36
94540,set_tempo,40,1,0,,,,,,563380,,,,,,
94560,set_tempo,20,1,0,,,,,,580271,,,,,,
94560,note_on,0,0,0,,,,,,,,0,,,97,0
94560,note_on,0,0,0,,,,,,,,0,,,91,0
94560,note_on,0,0,0,,,,,,,,0,,,59,0
94560,note_on,0,0,0,,,,,,,,0,,,95,36
94560,note_on,0,0,0,,,,,,,,0,,,90,36
94560,note_on,0,0,0,,,,,,,,0,,,80,49
94560,note_on,0,0,0,,,,,,,,0,,,71,44
94620,note_on,60,0,0,,,,,,,,0,,,95,0
94620,note_on,0,0,0,,,,,,,,0,,,97,36
94650,note_on,30,0,0,,,,,,,,0,,,71,0
94650,note_on,0,0,0,,,,,,,,0,,,80,0
94680,note_on,30,0,0,,,,,,,,0,,,90,0
94680,note_on,0,0,0,,,,,,,,0,,,97,0
94680,note_on,0,0,0,,,,,,,,0,,,95,35
94680,note_on,0,0,0,,,,,,,,0,,,89,35
94680,note_on,0,0,0,,,,,,,,0,,,82,49
94680,note_on,0,0,0,,,,,,,,0,,,73,44
94740,note_on,60,0,0,,,,,,,,0,,,95,0
94740,note_on,0,0,0,,,,,,,,0,,,97,35
94770,note_on,30,0,0,,,,,,,,0,,,73,0
94770,note_on,0,0,0,,,,,,,,0,,,82,0
94800,set_tempo,30,1,0,,,,,,558659,,,,,,
94800,note_on,0,0,0,,,,,,,,0,,,89,0
94800,note_on,0,0,0,,,,,,,,0,,,97,0
94800,note_on,0,0,0,,,,,,,,0,,,95,34
94800,note_on,0,0,0,,,,,,,,0,,,87,34
94800,note_on,0,0,0,,,,,,,,0,,,75,45
94800,note_on,0,0,0,,,,,,,,0,,,83,51
94860,note_on,60,0,0,,,,,,,,0,,,95,0
94860,note_on,0,0,0,,,,,,,,0,,,97,34
94920,set_tempo,60,1,0,,,,,,600601,,,,,,
94920,note_on,0,0,0,,,,,,,,0,,,97,0
94920,note_on,0,0,0,,,,,,,,0,,,95,33
94980,note_on,60,0,0,,,,,,,,0,,,95,0
94980,note_on,0,0,0,,,,,,,,0,,,83,0
94980,note_on,0,0,0,,,,,,,,0,,,75,0
94980,note_on,0,0,0,,,,,,,,0,,,97,33
95040,set_tempo,60,1,0,,,,,,591716,,,,,,
95040,note_on,0,0,0,,,,,,,,0,,,97,0
95040,note_on,0,0,0,,,,,,,,0,,,87,0
95040,note_on,0,0,0,,,,,,,,0,,,94,37
95040,note_on,0,0,0,,,,,,,,0,,,90,37
95040,note_on,0,0,0,,,,,,,,0,,,61,55
95100,note_on,60,0,0,,,,,,,,0,,,94,0
95100,note_on,0,0,0,,,,,,,,0,,,95,37
95160,note_on,60,0,0,,,,,,,,0,,,95,0
95160,note_on,0,0,0,,,,,,,,0,,,90,0
95160,note_on,0,0,0,,,,,,,,0,,,94,36
95160,note_on,0,0,0,,,,,,,,0,,,89,36
95220,note_on,60,0,0,,,,,,,,0,,,94,0
95220,note_on,0,0,0,,,,,,,,0,,,95,36
95280,set_tempo,60,1,0,,,,,,574713,,,,,,
95280,note_on,0,0,0,,,,,,,,0,,,95,0
95280,note_on,0,0,0,,,,,,,,0,,,89,0
95280,note_on,0,0,0,,,,,,,,0,,,61,0
95280,note_on,0,0,0,,,,,,,,0,,,94,36
95280,note_on,0,0,0,,,,,,,,0,,,87,36
95280,note_on,0,0,0,,,,,,,,0,,,70,44
95280,note_on,0,0,0,,,,,,,,0,,,78,49
95340,note_on,60,0,0,,,,,,,,0,,,94,0
95340,note_on,0,0,0,,,,,,,,0,,,95,36
95370,note_on,30,0,0,,,,,,,,0,,,78,0
95370,note_on,0,0,0,,,,,,,,0,,,70,0
95400,note_on,30,0,0,,,,,,,,0,,,87,0
95400,note_on,0,0,0,,,,,,,,0,,,95,0
95400,note_on,0,0,0,,,,,,,,0,,,94,36
95400,note_on,0,0,0,,,,,,,,0,,,86,36
95400,note_on,0,0,0,,,,,,,,0,,,71,44
95400,note_on,0,0,0,,,,,,,,0,,,80,49
95460,note_on,60,0,0,,,,,,,,0,,,94,0
95460,note_on,0,0,0,,,,,,,,0,,,95,35
95490,note_on,30,0,0,,,,,,,,0,,,80,0
95490,note_on,0,0,0,,,,,,,,0,,,71,0
95520,set_tempo,30,1,0,,,,,,550964,,,,,,
95520,note_on,0,0,0,,,,,,,,0,,,86,0
95520,note_on,0,0,0,,,,,,,,0,,,95,0
95520,note_on,0,0,0,,,,,,,,0,,,94,35
95520,note_on,0,0,0,,,,,,,,0,,,85,35
95520,note_on,0,0,0,,,,,,,,0,,,73,45
95520,note_on,0,0,0,,,,,,,,0,,,82,52
95580,note_on,60,0,0,,,,,,,,0,,,94,0
95580,note_on,0,0,0,,,,,,,,0,,,95,34
95640,set_tempo,60,1,0,,,,,,597610,,,,,,
95640,note_on,0,0,0,,,,,,,,0,,,95,0
95640,note_on,0,0,0,,,,,,,,0,,,94,34
95700,note_on,60,0,0,,,,,,,,0,,,94,0
95700,note_on,0,0,0,,,,,,,,0,,,82,0
95700,note_on,0,0,0,,,,,,,,0,,,73,0
95700,note_on,0,0,0,,,,,,,,0,,,95,32
95760,set_tempo,60,1,0,,,,,,580271,,,,,,
95760,note_on,0,0,0,,,,,,,,0,,,95,0
95760,note_on,0,0,0,,,,,,,,0,,,85,0
95760,note_on,0,0,0,,,,,,,,0,,,92,37
95760,note_on,0,0,0,,,,,,,,0,,,89,37
95760,note_on,0,0,0,,,,,,,,0,,,61,55
95820,note_on,60,0,0,,,,,,,,0,,,92,0
95820,note_on,0,0,0,,,,,,,,0,,,94,37
95880,note_on,60,0,0,,,,,,,,0,,,94,0
95880,note_on,0,0,0,,,,,,,,0,,,89,0
95880,note_on,0,0,0,,,,,,,,0,,,92,36
95880,note_on,0,0,0,,,,,,,,0,,,87,36
95940,note_on,60,0,0,,,,,,,,0,,,92,0
95940,note_on,0,0,0,,,,,,,,0,,,94,36
95980,set_tempo,40,1,0,,,,,,540541,,,,,,
96000,set_tempo,20,1,0,,,,,,569260,,,,,,
96000,note_on,0,0,0,,,,,,,,0,,,94,0
96000,note_on,0,0,0,,,,,,,,0,,,87,0
96000,note_on,0,0,0,,,,,,,,0,,,61,0
96000,note_on,0,0,0,,,,,,,,0,,,92,35
96000,note_on,0,0,0,,,,,,,,0,,,86,35
96000,note_on,0,0,0,,,,,,,,0,,,77,49
96000,note_on,0,0,0,,,,,,,,0,,,68,44
96060,note_on,60,0,0,,,,,,,,0,,,92,0
96060,note_on,0,0,0,,,,,,,,0,,,94,34
96090,note_on,30,0,0,,,,,,,,0,,,68,0
96090,note_on,0,0,0,,,,,,,,0,,,77,0
96120,note_on,30,0,0,,,,,,,,0,,,86,0
96120,note_on,0,0,0,,,,,,,,0,,,94,0
96120,note_on,0,0,0,,,,,,,,0,,,92,33
96120,note_on,0,0,0,,,,,,,,0,,,85,33
96120,note_on,0,0,0,,,,,,,,0,,,70,44
96120,note_on,0,0,0,,,,,,,,0,,,78,49
96180,note_on,60,0,0,,,,,,,,0,,,92,0
96180,note_on,0,0,0,,,,,,,,0,,,94,32
96210,note_on,30,0,0,,,,,,,,0,,,78,0
96210,note_on,0,0,0,,,,,,,,0,,,70,0
96240,set_tempo,30,1,0,,,,,,577478,,,,,,
96240,note_on,0,0,0,,,,,,,,0,,,85,0
96240,note_on,0,0,0,,,,,,,,0,,,94,0
96240,note_on,0,0,0,,,,,,,,0,,,92,32
96240,note_on,0,0,0,,,,,,,,0,,,83,32
96240,note_on,0,0,0,,,,,,,,0,,,71,45
96240,note_on,0,0,0,,,,,,,,0,,,80,51
96300,note_on,60,0,0,,,,,,,,0,,,92,0
96300,note_on,0,0,0,,,,,,,,0,,,87,36
96360,set_tempo,60,1,0,,,,,,588813,,,,,,
96360,note_on,0,0,0,,,,,,,,0,,,87,0
96360,note_on,0,0,0,,,,,,,,0,,,88,39
96420,note_on,60,0,0,,,,,,,,0,,,88,0
96420,note_on,0,0,0,,,,,,,,0,,,80,0
96420,note_on,0,0,0,,,,,,,,0,,,71,0
96420,note_on,0,0,0,,,,,,,,0,,,89,41
96480,set_tempo,60,1,0,,,,,,558140,,,,,,
96480,note_on,0,0,0,,,,,,,,0,,,89,0
96480,note_on,0,0,0,,,,,,,,0,,,83,0
96480,note_on,0,0,0,,,,,,,,0,,,90,43
96480,note_on,0,0,0,,,,,,,,0,,,82,59
96480,note_on,0,0,0,,,,,,,,0,,,73,53
96480,note_on,0,0,0,,,,,,,,0,,,66,53
96540,note_on,60,0,0,,,,,,,,0,,,90,0
96540,note_on,0,0,0,,,,,,,,0,,,92,43
96600,note_on,60,0,0,,,,,,,,0,,,92,0
96600,note_on,0,0,0,,,,,,,,0,,,90,43
96660,note_on,60,0,0,,,,,,,,0,,,90,0
96660,note_on,0,0,0,,,,,,,,0,,,92,43
96720,set_tempo,60,1,0,,,,,,566038,,,,,,
96720,note_on,0,0,0,,,,,,,,0,,,92,0
96720,note_on,0,0,0,,,,,,,,0,,,66,0
96720,note_on,0,0,0,,,,,,,,0,,,73,0
96720,note_on,0,0,0,,,,,,,,0,,,82,0
96720,note_on,0,0,0,,,,,,,,0,,,78,59
96780,note_on,60,0,0,,,,,,,,0,,,90,45
96840,note_on,60,0,0,,,,,,,,0,,,90,0
96840,note_on,0,0,0,,,,,,,,0,,,92,45
96900,note_on,60,0,0,,,,,,,,0,,,92,0
96900,note_on,0,0,0,,,,,,,,0,,,90,45
96960,note_on,60,0,0,,,,,,,,0,,,90,0
96960,note_on,0,0,0,,,,,,,,0,,,78,0
96960,note_on,0,0,0,,,,,,,,0,,,79,60
97020,note_on,60,0,0,,,,,,,,0,,,91,47
97080,note_on,60,0,0,,,,,,,,0,,,91,0
97080,note_on,0,0,0,,,,,,,,0,,,92,47
97140,note_on,60,0,0,,,,,,,,0,,,92,0
97140,note_on,0,0,0,,,,,,,,0,,,91,47
97200,set_tempo,60,1,0,,,,,,571429,,,,,,
97200,note_on,0,0,0,,,,,,,,0,,,91,0
97200,note_on,0,0,0,,,,,,,,0,,,79,0
97200,note_on,0,0,0,,,,,,,,0,,,80,63
97260,note_on,60,0,0,,,,,,,,0,,,92,51
97320,note_on,60,0,0,,,,,,,,0,,,92,0
97320,note_on,0,0,0,,,,,,,,0,,,93,51
97380,note_on,60,0,0,,,,,,,,0,,,93,0
97380,note_on,0,0,0,,,,,,,,0,,,92,50
97420,note_on,40,0,0,,,,,,,,0,,,64,41
97440,set_tempo,20,1,0,,,,,,579710,,,,,,
97440,note_on,0,0,0,,,,,,,,0,,,92,0
97440,note_on,0,0,0,,,,,,,,0,,,80,0
97440,note_on,0,0,0,,,,,,,,0,,,93,50
97440,note_on,0,0,0,,,,,,,,0,,,80,57
97500,note_on,60,0,0,,,,,,,,0,,,93,0
97500,note_on,0,0,0,,,,,,,,0,,,92,49
97520,set_tempo,20,1,0,,,,,,582524,,,,,,
97560,note_on,40,0,0,,,,,,,,0,,,92,0
97560,note_on,0,0,0,,,,,,,,0,,,93,49
97600,set_tempo,40,1,0,,,,,,585366,,,,,,
97620,note_on,20,0,0,,,,,,,,0,,,93,0
97620,note_on,0,0,0,,,,,,,,0,,,92,47
97660,set_tempo,40,1,0,,,,,,588235,,,,,,
97660,note_on,0,0,0,,,,,,,,0,,,80,0
97660,note_on,0,0,0,,,,,,,,0,,,64,0
97660,note_on,0,0,0,,,,,,,,0,,,63,45
97680,note_on,20,0,0,,,,,,,,0,,,92,0
97680,note_on,0,0,0,,,,,,,,0,,,93,47
97680,note_on,0,0,0,,,,,,,,0,,,78,56
97728,note_on,48,0,0,,,,,,,,0,,,93,0
97728,note_on,0,0,0,,,,,,,,0,,,92,46
97740,set_tempo,12,1,0,,,,,,591133,,,,,,
97776,note_on,36,0,0,,,,,,,,0,,,92,0
97776,note_on,0,0,0,,,,,,,,0,,,93,46
97820,set_tempo,44,1,0,,,,,,594059,,,,,,
97824,note_on,4,0,0,,,,,,,,0,,,93,0
97824,note_on,0,0,0,,,,,,,,0,,,92,45
97872,note_on,48,0,0,,,,,,,,0,,,92,0
97872,note_on,0,0,0,,,,,,,,0,,,93,45
97920,set_tempo,48,1,0,,,,,,642398,,,,,,
97920,note_on,0,0,0,,,,,,,,0,,,93,0
97920,note_on,0,0,0,,,,,,,,0,,,78,0
97920,note_on,0,0,0,,,,,,,,0,,,63,0
97920,note_on,0,0,0,,,,,,,,0,,,92,45
97920,note_on,0,0,0,,,,,,,,0,,,61,44
97920,note_on,0,0,0,,,,,,,,0,,,76,54
97980,note_on,60,0,0,,,,,,,,0,,,92,0
97980,note_on,0,0,0,,,,,,,,0,,,93,45
98040,note_on,60,0,0,,,,,,,,0,,,93,0
98040,note_on,0,0,0,,,,,,,,0,,,92,45
98100,note_on,60,0,0,,,,,,,,0,,,92,0
98100,note_on,0,0,0,,,,,,,,0,,,93,45
98160,set_tempo,60,1,0,,,,,,609756,,,,,,
98160,note_on,0,0,0,,,,,,,,0,,,93,0
98160,note_on,0,0,0,,,,,,,,0,,,76,0
98160,note_on,0,0,0,,,,,,,,0,,,61,0
98160,note_on,0,0,0,,,,,,,,0,,,92,51
98160,note_on,0,0,0,,,,,,,,0,,,102,61
98160,note_on,0,0,0,,,,,,,,0,,,87,55
98220,note_on,60,0,0,,,,,,,,0,,,92,0
98220,note_on,0,0,0,,,,,,,,0,,,93,51
98280,note_on,60,0,0,,,,,,,,0,,,93,0
98280,note_on,0,0,0,,,,,,,,0,,,92,51
98340,note_on,60,0,0,,,,,,,,0,,,92,0
98340,note_on,0,0,0,,,,,,,,0,,,87,0
98340,note_on,0,0,0,,,,,,,,0,,,102,0
98340,note_on,0,0,0,,,,,,,,0,,,93,51
98400,note_on,60,0,0,,,,,,,,0,,,93,0
98400,note_on,0,0,0,,,,,,,,0,,,92,47
98400,note_on,0,0,0,,,,,,,,0,,,100,60
98400,note_on,0,0,0,,,,,,,,0,,,85,55
98460,note_on,60,0,0,,,,,,,,0,,,92,0
98460,note_on,0,0,0,,,,,,,,0,,,93,47
98520,note_on,60,0,0,,,,,,,,0,,,93,0
98520,note_on,0,0,0,,,,,,,,0,,,92,47
98580,note_on,60,0,0,,,,,,,,0,,,92,0
98580,note_on,0,0,0,,,,,,,,0,,,85,0
98580,note_on,0,0,0,,,,,,,,0,,,100,0
98580,note_on,0,0,0,,,,,,,,0,,,93,47
98600,set_tempo,20,1,0,,,,,,566038,,,,,,
98640,set_tempo,40,1,0,,,,,,580271,,,,,,
98640,note_on,0,0,0,,,,,,,,0,,,93,0
98640,note_on,0,0,0,,,,,,,,0,,,92,51
98640,note_on,0,0,0,,,,,,,,0,,,99,61
98640,note_on,0,0,0,,,,,,,,0,,,68,37
98640,note_on,0,0,0,,,,,,,,0,,,84,59
98700,note_on,60,0,0,,,,,,,,0,,,92,0
98700,note_on,0,0,0,,,,,,,,0,,,93,51
98760,note_on,60,0,0,,,,,,,,0,,,93,0
98760,note_on,0,0,0,,,,,,,,0,,,92,51
98820,note_on,60,0,0,,,,,,,,0,,,92,0
98820,note_on,0,0,0,,,,,,,,0,,,99,0
98820,note_on,0,0,0,,,,,,,,0,,,84,0
98820,note_on,0,0,0,,,,,,,,0,,,93,51
98840,set_tempo,20,1,0,,,,,,580271,,,,,,
98880,set_tempo,40,1,0,,,,,,583090,,,,,,
98880,note_on,0,0,0,,,,,,,,0,,,93,0
98880,note_on,0,0,0,,,,,,,,0,,,68,0
98880,note_on,0,0,0,,,,,,,,0,,,92,47
98880,note_on,0,0,0,,,,,,,,0,,,97,57
98880,note_on,0,0,0,,,,,,,,0,,,82,55
98920,set_tempo,40,1,0,,,,,,585938,,,,,,
98940,note_on,20,0,0,,,,,,,,0,,,92,0
98940,note_on,0,0,0,,,,,,,,0,,,93,47
98960,set_tempo,20,1,0,,,,,,588813,,,,,,
99000,set_tempo,40,1,0,,,,,,591716,,,,,,
99000,note_on,0,0,0,,,,,,,,0,,,93,0
99000,note_on,0,0,0,,,,,,,,0,,,92,47
99040,set_tempo,40,1,0,,,,,,594648,,,,,,
99060,note_on,20,0,0,,,,,,,,0,,,92,0
99060,note_on,0,0,0,,,,,,,,0,,,82,0
99060,note_on,0,0,0,,,,,,,,0,,,97,0
99060,note_on,0,0,0,,,,,,,,0,,,93,46
99080,set_tempo,20,1,0,,,,,,597610,,,,,,
99120,set_tempo,40,1,0,,,,,,600601,,,,,,
99120,note_on,0,0,0,,,,,,,,0,,,93,0
99120,note_on,0,0,0,,,,,,,,0,,,92,46
99120,note_on,0,0,0,,,,,,,,0,,,99,55
99120,note_on,0,0,0,,,,,,,,0,,,84,54
99160,set_tempo,40,1,0,,,,,,603622,,,,,,
99180,note_on,20,0,0,,,,,,,,0,,,92,0
99180,note_on,0,0,0,,,,,,,,0,,,93,46
99200,set_tempo,20,1,0,,,,,,606673,,,,,,
99220,set_tempo,20,1,0,,,,,,609756,,,,,,
99240,set_tempo,20,1,0,,,,,,656455,,,,,,
99240,note_on,0,0,0,,,,,,,,0,,,93,0
99240,note_on,0,0,0,,,,,,,,0,,,92,45
99300,note_on,60,0,0,,,,,,,,0,,,92,0
99300,note_on,0,0,0,,,,,,,,0,,,84,0
99300,note_on,0,0,0,,,,,,,,0,,,99,0
99300,note_on,0,0,0,,,,,,,,0,,,93,45
99360,set_tempo,60,1,0,,,,,,594648,,,,,,
99360,note_on,0,0,0,,,,,,,,0,,,93,0
99360,note_on,0,0,0,,,,,,,,0,,,92,46
99360,note_on,0,0,0,,,,,,,,0,,,100,56
99360,note_on,0,0,0,,,,,,,,0,,,73,39
99360,note_on,0,0,0,,,,,,,,0,,,85,51
99420,note_on,60,0,0,,,,,,,,0,,,92,0
99420,note_on,0,0,0,,,,,,,,0,,,93,46
99480,note_on,60,0,0,,,,,,,,0,,,93,0
99480,note_on,0,0,0,,,,,,,,0,,,92,45
99540,note_on,60,0,0,,,,,,,,0,,,92,0
99540,note_on,0,0,0,,,,,,,,0,,,100,0
99540,note_on,0,0,0,,,,,,,,0,,,85,0
99540,note_on,0,0,0,,,,,,,,0,,,93,45
99600,set_tempo,60,1,0,,,,,,656455,,,,,,
99600,note_on,0,0,0,,,,,,,,0,,,93,0
99600,note_on,0,0,0,,,,,,,,0,,,73,0
99600,note_on,0,0,0,,,,,,,,0,,,92,51
99600,note_on,0,0,0,,,,,,,,0,,,97,51
99600,note_on,0,0,0,,,,,,,,0,,,88,47
99720,note_on,120,0,0,,,,,,,,0,,,88,0
99720,note_on,0,0,0,,,,,,,,0,,,97,0
99720,note_on,0,0,0,,,,,,,,0,,,92,0
99840,set_tempo,120,1,0,,,,,,628931,,,,,,
99840,note_on,0,0,0,,,,,,,,0,,,79,60
99900,note_on,60,0,0,,,,,,,,0,,,91,47
99960,note_on,60,0,0,,,,,,,,0,,,91,0
99960,note_on,0,0,0,,,,,,,,0,,,93,47
100020,note_on,60,0,0,,,,,,,,0,,,93,0
100020,note_on,0,0,0,,,,,,,,0,,,91,47
100080,set_tempo,60,1,0,,,,,,591716,,,,,,
100080,note_on,0,0,0,,,,,,,,0,,,91,0
100080,note_on,0,0,0,,,,,,,,0,,,79,0
100080,note_on,0,0,0,,,,,,,,0,,,78,63
100140,note_on,60,0,0,,,,,,,,0,,,90,51
100200,note_on,60,0,0,,,,,,,,0,,,90,0
100200,note_on,0,0,0,,,,,,,,0,,,92,51
100260,note_on,60,0,0,,,,,,,,0,,,92,0
100260,note_on,0,0,0,,,,,,,,0,,,90,50
100280,set_tempo,20,1,0,,,,,,591716,,,,,,
100320,set_tempo,40,1,0,,,,,,594648,,,,,,
100320,note_on,0,0,0,,,,,,,,0,,,90,0
100320,note_on,0,0,0,,,,,,,,0,,,78,0
100320,note_on,0,0,0,,,,,,,,0,,,92,50
100320,note_on,0,0,0,,,,,,,,0,,,63,41
100320,note_on,0,0,0,,,,,,,,0,,,78,57
100360,set_tempo,40,1,0,,,,,,597610,,,,,,
100380,note_on,20,0,0,,,,,,,,0,,,92,0
100380,note_on,0,0,0,,,,,,,,0,,,90,49
100400,set_tempo,20,1,0,,,,,,600601,,,,,,
100440,set_tempo,40,1,0,,,,,,603622,,,,,,
100440,note_on,0,0,0,,,,,,,,0,,,90,0
100440,note_on,0,0,0,,,,,,,,0,,,92,49
100480,set_tempo,40,1,0,,,,,,606673,,,,,,
100500,note_on,20,0,0,,,,,,,,0,,,92,0
100500,note_on,0,0,0,,,,,,,,0,,,90,47
100520,set_tempo,20,1,0,,,,,,609756,,,,,,
100560,set_tempo,40,1,0,,,,,,612870,,,,,,
100560,note_on,0,0,0,,,,,,,,0,,,90,0
100560,note_on,0,0,0,,,,,,,,0,,,78,0
100560,note_on,0,0,0,,,,,,,,0,,,63,0
100560,note_on,0,0,0,,,,,,,,0,,,92,47
100560,note_on,0,0,0,,,,,,,,0,,,61,41
100560,note_on,0,0,0,,,,,,,,0,,,76,56
100600,set_tempo,40,1,0,,,,,,616016,,,,,,
100608,note_on,8,0,0,,,,,,,,0,,,92,0
100608,note_on,0,0,0,,,,,,,,0,,,90,46
100640,set_tempo,32,1,0,,,,,,619195,,,,,,
100656,note_on,16,0,0,,,,,,,,0,,,90,0
100656,note_on,0,0,0,,,,,,,,0,,,92,46
100680,set_tempo,24,1,0,,,,,,622407,,,,,,
100704,note_on,24,0,0,,,,,,,,0,,,92,0
100704,note_on,0,0,0,,,,,,,,0,,,90,45
100720,set_tempo,16,1,0,,,,,,625652,,,,,,
100752,note_on,32,0,0,,,,,,,,0,,,90,0
100752,note_on,0,0,0,,,,,,,,0,,,92,45
100760,set_tempo,8,1,0,,,,,,628931,,,,,,
100800,set_tempo,40,1,0,,,,,,632244,,,,,,
100800,note_on,0,0,0,,,,,,,,0,,,92,0
100800,note_on,0,0,0,,,,,,,,0,,,76,0
100800,note_on,0,0,0,,,,,,,,0,,,61,0
100800,note_on,0,0,0,,,,,,,,0,,,90,45
100800,note_on,0,0,0,,,,,,,,0,,,59,44
100800,note_on,0,0,0,,,,,,,,0,,,75,54
100860,note_on,60,0,0,,,,,,,,0,,,90,0
100860,note_on,0,0,0,,,,,,,,0,,,92,45
100920,note_on,60,0,0,,,,,,,,0,,,92,0
100920,note_on,0,0,0,,,,,,,,0,,,90,45
100980,note_on,60,0,0,,,,,,,,0,,,90,0
100980,note_on,0,0,0,,,,,,,,0,,,92,45
101040,set_tempo,60,1,0,,,,,,603622,,,,,,
101040,note_on,0,0,0,,,,,,,,0,,,92,0
101040,note_on,0,0,0,,,,,,,,0,,,75,0
101040,note_on,0,0,0,,,,,,,,0,,,59,0
101040,note_on,0,0,0,,,,,,,,0,,,90,51
101040,note_on,0,0,0,,,,,,,,0,,,100,61
101040,note_on,0,0,0,,,,,,,,0,,,85,55
101100,note_on,60,0,0,,,,,,,,0,,,90,0
101100,note_on,0,0,0,,,,,,,,0,,,92,51
101160,note_on,60,0,0,,,,,,,,0,,,92,0
101160,note_on,0,0,0,,,,,,,,0,,,90,51
101220,note_on,60,0,0,,,,,,,,0,,,90,0
101220,note_on,0,0,0,,,,,,,,0,,,85,0
101220,note_on,0,0,0,,,,,,,,0,,,100,0
101220,note_on,0,0,0,,,,,,,,0,,,92,51
101280,note_on,60,0,0,,,,,,,,0,,,92,0
101280,note_on,0,0,0,,,,,,,,0,,,90,47
101280,note_on,0,0,0,,,,,,,,0,,,99,60
101280,note_on,0,0,0,,,,,,,,0,,,83,55
101340,note_on,60,0,0,,,,,,,,0,,,90,0
101340,note_on,0,0,0,,,,,,,,0,,,92,47
101400,note_on,60,0,0,,,,,,,,0,,,92,0
101400,note_on,0,0,0,,,,,,,,0,,,90,47
101460,note_on,60,0,0,,,,,,,,0,,,90,0
101460,note_on,0,0,0,,,,,,,,0,,,83,0
101460,note_on,0,0,0,,,,,,,,0,,,99,0
101460,note_on,0,0,0,,,,,,,,0,,,92,47
101480,set_tempo,20,1,0,,,,,,566038,,,,,,
101520,set_tempo,40,1,0,,,,,,580271,,,,,,
101520,note_on,0,0,0,,,,,,,,0,,,92,0
101520,note_on,0,0,0,,,,,,,,0,,,90,51
101520,note_on,0,0,0,,,,,,,,0,,,97,61
101520,note_on,0,0,0,,,,,,,,0,,,66,37
101520,note_on,0,0,0,,,,,,,,0,,,82,59
101580,set_tempo,60,1,0,,,,,,583090,,,,,,
101580,note_on,0,0,0,,,,,,,,0,,,90,0
101580,note_on,0,0,0,,,,,,,,0,,,92,51
101620,set_tempo,40,1,0,,,,,,585938,,,,,,
101640,note_on,20,0,0,,,,,,,,0,,,92,0
101640,note_on,0,0,0,,,,,,,,0,,,90,51
101680,set_tempo,40,1,0,,,,,,588813,,,,,,
101700,note_on,20,0,0,,,,,,,,0,,,90,0
101700,note_on,0,0,0,,,,,,,,0,,,97,0
101700,note_on,0,0,0,,,,,,,,0,,,82,0
101700,note_on,0,0,0,,,,,,,,0,,,92,51
101720,set_tempo,20,1,0,,,,,,591716,,,,,,
101760,note_on,40,0,0,,,,,,,,0,,,92,0
101760,note_on,0,0,0,,,,,,,,0,,,66,0
101760,note_on,0,0,0,,,,,,,,0,,,90,47
101760,note_on,0,0,0,,,,,,,,0,,,95,57
101760,note_on,0,0,0,,,,,,,,0,,,80,55
101780,set_tempo,20,1,0,,,,,,594648,,,,,,
101820,set_tempo,40,1,0,,,,,,597610,,,,,,
101820,note_on,0,0,0,,,,,,,,0,,,90,0
101820,note_on,0,0,0,,,,,,,,0,,,92,47
101860,set_tempo,40,1,0,,,,,,600601,,,,,,
101880,note_on,20,0,0,,,,,,,,0,,,92,0
101880,note_on,0,0,0,,,,,,,,0,,,90,47
101920,set_tempo,40,1,0,,,,,,603622,,,,,,
101940,note_on,20,0,0,,,,,,,,0,,,90,0
101940,note_on,0,0,0,,,,,,,,0,,,80,0
101940,note_on,0,0,0,,,,,,,,0,,,95,0
101940,note_on,0,0,0,,,,,,,,0,,,92,46
101960,set_tempo,20,1,0,,,,,,606673,,,,,,
102000,note_on,40,0,0,,,,,,,,0,,,92,0
102000,note_on,0,0,0,,,,,,,,0,,,90,46
102000,note_on,0,0,0,,,,,,,,0,,,97,55
102000,note_on,0,0,0,,,,,,,,0,,,82,54
102020,set_tempo,20,1,0,,,,,,609756,,,,,,
102060,set_tempo,40,1,0,,,,,,612870,,,,,,
102060,note_on,0,0,0,,,,,,,,0,,,90,0
102060,note_on,0,0,0,,,,,,,,0,,,92,46
102100,set_tempo,40,1,0,,,,,,616016,,,,,,
102120,set_tempo,20,1,0,,,,,,667408,,,,,,
102120,note_on,0,0,0,,,,,,,,0,,,92,0
102120,note_on,0,0,0,,,,,,,,0,,,90,45
102180,note_on,60,0,0,,,,,,,,0,,,90,0
102180,note_on,0,0,0,,,,,,,,0,,,82,0
102180,note_on,0,0,0,,,,,,,,0,,,97,0
102180,note_on,0,0,0,,,,,,,,0,,,92,45
102240,set_tempo,60,1,0,,,,,,600601,,,,,,
102240,note_on,0,0,0,,,,,,,,0,,,92,0
102240,note_on,0,0,0,,,,,,,,0,,,90,46
102240,note_on,0,0,0,,,,,,,,0,,,99,56
102240,note_on,0,0,0,,,,,,,,0,,,71,39
102240,note_on,0,0,0,,,,,,,,0,,,83,51
102300,note_on,60,0,0,,,,,,,,0,,,90,0
102300,note_on,0,0,0,,,,,,,,0,,,92,46
102360,note_on,60,0,0,,,,,,,,0,,,92,0
102360,note_on,0,0,0,,,,,,,,0,,,90,46
102420,note_on,60,0,0,,,,,,,,0,,,90,0
102420,note_on,0,0,0,,,,,,,,0,,,99,0
102420,note_on,0,0,0,,,,,,,,0,,,83,0
102420,note_on,0,0,0,,,,,,,,0,,,92,46
102480,set_tempo,60,1,0,,,,,,642398,,,,,,
102480,note_on,0,0,0,,,,,,,,0,,,92,0
102480,note_on,0,0,0,,,,,,,,0,,,71,0
102480,note_on,0,0,0,,,,,,,,0,,,90,51
102480,note_on,0,0,0,,,,,,,,0,,,95,51
102480,note_on,0,0,0,,,,,,,,0,,,87,47
102600,note_on,120,0,0,,,,,,,,0,,,87,0
102600,note_on,0,0,0,,,,,,,,0,,,95,0
102600,note_on,0,0,0,,,,,,,,0,,,90,0
102700,set_tempo,100,1,0,,,,,,612245,,,,,,
102720,set_tempo,20,1,0,,,,,,616016,,,,,,
102720,note_on,0,0,0,,,,,,,,0,,,74,57
102780,note_on,60,0,0,,,,,,,,0,,,86,47
102840,note_on,60,0,0,,,,,,,,0,,,86,0
102840,note_on,0,0,0,,,,,,,,0,,,87,47
102900,note_on,60,0,0,,,,,,,,0,,,87,0
102900,note_on,0,0,0,,,,,,,,0,,,86,47
102960,note_on,60,0,0,,,,,,,,0,,,86,0
102960,note_on,0,0,0,,,,,,,,0,,,74,0
102960,note_on,0,0,0,,,,,,,,0,,,75,57
103020,note_on,60,0,0,,,,,,,,0,,,87,51
103080,note_on,60,0,0,,,,,,,,0,,,87,0
103080,note_on,0,0,0,,,,,,,,0,,,88,50
103140,note_on,60,0,0,,,,,,,,0,,,88,0
103140,note_on,0,0,0,,,,,,,,0,,,87,50
103200,set_tempo,60,1,0,,,,,,628272,,,,,,
103200,note_on,0,0,0,,,,,,,,0,,,87,0
103200,note_on,0,0,0,,,,,,,,0,,,75,0
103200,note_on,0,0,0,,,,,,,,0,,,88,49
103200,note_on,0,0,0,,,,,,,,0,,,63,40
103200,note_on,0,0,0,,,,,,,,0,,,67,40
103200,note_on,0,0,0,,,,,,,,0,,,75,45
103240,set_tempo,40,1,0,,,,,,631579,,,,,,
103260,set_tempo,20,1,0,,,,,,634921,,,,,,
103260,note_on,0,0,0,,,,,,,,0,,,88,0
103260,note_on,0,0,0,,,,,,,,0,,,87,49
103300,set_tempo,40,1,0,,,,,,638298,,,,,,
103320,set_tempo,20,1,0,,,,,,641711,,,,,,
103320,note_on,0,0,0,,,,,,,,0,,,87,0
103320,note_on,0,0,0,,,,,,,,0,,,88,47
103340,set_tempo,20,1,0,,,,,,645161,,,,,,
103380,set_tempo,40,1,0,,,,,,648649,,,,,,
103380,note_on,0,0,0,,,,,,,,0,,,88,0
103380,note_on,0,0,0,,,,,,,,0,,,87,47
103400,set_tempo,20,1,0,,,,,,652174,,,,,,
103440,set_tempo,40,1,0,,,,,,655738,,,,,,
103440,note_on,0,0,0,,,,,,,,0,,,87,0
103440,note_on,0,0,0,,,,,,,,0,,,75,0
103440,note_on,0,0,0,,,,,,,,0,,,67,0
103440,note_on,0,0,0,,,,,,,,0,,,63,0
103440,note_on,0,0,0,,,,,,,,0,,,88,46
103440,note_on,0,0,0,,,,,,,,0,,,65,37
103440,note_on,0,0,0,,,,,,,,0,,,68,37
103440,note_on,0,0,0,,,,,,,,0,,,74,43
103460,set_tempo,20,1,0,,,,,,659341,,,,,,
103480,set_tempo,20,1,0,,,,,,662983,,,,,,
103500,note_on,20,0,0,,,,,,,,0,,,88,0
103500,note_on,0,0,0,,,,,,,,0,,,87,46
103520,set_tempo,20,1,0,,,,,,666667,,,,,,
103540,set_tempo,20,1,0,,,,,,670391,,,,,,
103560,set_tempo,20,1,0,,,,,,718563,,,,,,
103560,note_on,0,0,0,,,,,,,,0,,,87,0
103560,note_on,0,0,0,,,,,,,,0,,,88,45
103620,note_on,60,0,0,,,,,,,,0,,,88,0
103620,note_on,0,0,0,,,,,,,,0,,,87,45
103640,set_tempo,20,1,0,,,,,,619195,,,,,,
103680,note_on,40,0,0,,,,,,,,0,,,87,0
103680,note_on,0,0,0,,,,,,,,0,,,74,0
103680,note_on,0,0,0,,,,,,,,0,,,68,0
103680,note_on,0,0,0,,,,,,,,0,,,65,0
103680,note_on,0,0,0,,,,,,,,0,,,88,43
103680,note_on,0,0,0,,,,,,,,0,,,67,35
103680,note_on,0,0,0,,,,,,,,0,,,70,35
103680,note_on,0,0,0,,,,,,,,0,,,73,39
103725,note_on,45,0,0,,,,,,,,0,,,88,0
103725,note_on,0,0,0,,,,,,,,0,,,87,44
103740,set_tempo,15,1,0,,,,,,616016,,,,,,
103770,note_on,30,0,0,,,,,,,,0,,,87,0
103770,note_on,0,0,0,,,,,,,,0,,,86,45
103815,note_on,45,0,0,,,,,,,,0,,,86,0
103815,note_on,0,0,0,,,,,,,,0,,,87,45
103820,set_tempo,5,1,0,,,,,,612870,,,,,,
103860,note_on,40,0,0,,,,,,,,0,,,87,0
103860,note_on,0,0,0,,,,,,,,0,,,88,46
103905,note_on,45,0,0,,,,,,,,0,,,88,0
103905,note_on,0,0,0,,,,,,,,0,,,89,47
103920,set_tempo,15,1,0,,,,,,609756,,,,,,
103920,note_on,0,0,0,,,,,,,,0,,,67,0
103920,note_on,0,0,0,,,,,,,,0,,,73,0
103920,note_on,0,0,0,,,,,,,,0,,,70,0
103950,note_on,30,0,0,,,,,,,,0,,,89,0
103950,note_on,0,0,0,,,,,,,,0,,,90,49
103995,note_on,45,0,0,,,,,,,,0,,,90,0
103995,note_on,0,0,0,,,,,,,,0,,,91,49
104000,set_tempo,5,1,0,,,,,,606673,,,,,,
104040,note_on,40,0,0,,,,,,,,0,,,91,0
104040,note_on,0,0,0,,,,,,,,0,,,92,51
104085,note_on,45,0,0,,,,,,,,0,,,92,0
104085,note_on,0,0,0,,,,,,,,0,,,93,52
104100,set_tempo,15,1,0,,,,,,603622,,,,,,
104130,note_on,30,0,0,,,,,,,,0,,,93,0
104130,note_on,0,0,0,,,,,,,,0,,,94,54
104175,note_on,45,0,0,,,,,,,,0,,,94,0
104175,note_on,0,0,0,,,,,,,,0,,,95,55
104180,set_tempo,5,1,0,,,,,,600601,,,,,,
104220,note_on,40,0,0,,,,,,,,0,,,95,0
104220,note_on,0,0,0,,,,,,,,0,,,96,56
104265,note_on,45,0,0,,,,,,,,0,,,96,0
104265,note_on,0,0,0,,,,,,,,0,,,97,57
104280,set_tempo,15,1,0,,,,,,597610,,,,,,
104310,note_on,30,0,0,,,,,,,,0,,,97,0
104310,note_on,0,0,0,,,,,,,,0,,,98,59
104355,note_on,45,0,0,,,,,,,,0,,,98,0
104355,note_on,0,0,0,,,,,,,,0,,,99,60
104360,set_tempo,5,1,0,,,,,,594648,,,,,,
104400,note_on,40,0,0,,,,,,,,0,,,99,0
104400,note_on,0,0,0,,,,,,,,0,,,100,61
104400,note_on,0,0,0,,,,,,,,0,,,68,43
104400,note_on,0,0,0,,,,,,,,0,,,71,43
104400,note_on,0,0,0,,,,,,,,0,,,76,47
104440,set_tempo,40,1,0,,,,,,591716,,,,,,
104448,note_on,8,0,0,,,,,,,,0,,,100,0
104448,note_on,0,0,0,,,,,,,,0,,,102,60
104496,note_on,48,0,0,,,,,,,,0,,,102,0
104496,note_on,0,0,0,,,,,,,,0,,,100,60
104520,set_tempo,24,1,0,,,,,,594648,,,,,,
104544,note_on,24,0,0,,,,,,,,0,,,100,0
104544,note_on,0,0,0,,,,,,,,0,,,99,59
104592,note_on,48,0,0,,,,,,,,0,,,99,0
104592,note_on,0,0,0,,,,,,,,0,,,98,57
104600,set_tempo,8,1,0,,,,,,597610,,,,,,
104640,note_on,40,0,0,,,,,,,,0,,,98,0
104640,note_on,0,0,0,,,,,,,,0,,,68,0
104640,note_on,0,0,0,,,,,,,,0,,,71,0
104640,note_on,0,0,0,,,,,,,,0,,,76,0
104640,note_on,0,0,0,,,,,,,,0,,,97,56
104680,set_tempo,40,1,0,,,,,,600601,,,,,,
104688,note_on,8,0,0,,,,,,,,0,,,97,0
104688,note_on,0,0,0,,,,,,,,0,,,96,55
104736,note_on,48,0,0,,,,,,,,0,,,96,0
104736,note_on,0,0,0,,,,,,,,0,,,95,54
104760,set_tempo,24,1,0,,,,,,603622,,,,,,
104784,note_on,24,0,0,,,,,,,,0,,,95,0
104784,note_on,0,0,0,,,,,,,,0,,,94,54
104832,note_on,48,0,0,,,,,,,,0,,,94,0
104832,note_on,0,0,0,,,,,,,,0,,,93,52
104840,set_tempo,8,1,0,,,,,,606673,,,,,,
104880,note_on,40,0,0,,,,,,,,0,,,93,0
104880,note_on,0,0,0,,,,,,,,0,,,92,51
104920,set_tempo,40,1,0,,,,,,609756,,,,,,
104928,note_on,8,0,0,,,,,,,,0,,,92,0
104928,note_on,0,0,0,,,,,,,,0,,,91,50
104976,note_on,48,0,0,,,,,,,,0,,,91,0
104976,note_on,0,0,0,,,,,,,,0,,,90,49
105000,set_tempo,24,1,0,,,,,,612870,,,,,,
105024,note_on,24,0,0,,,,,,,,0,,,90,0
105024,note_on,0,0,0,,,,,,,,0,,,89,47
105060,note_on,36,0,0,,,,,,,,0,,,63,39
105072,note_on,12,0,0,,,,,,,,0,,,89,0
105072,note_on,0,0,0,,,,,,,,0,,,88,46
105080,set_tempo,8,1,0,,,,,,616016,,,,,,
105120,note_on,40,0,0,,,,,,,,0,,,88,0
105120,note_on,0,0,0,,,,,,,,0,,,87,46
105120,note_on,0,0,0,,,,,,,,0,,,79,49
105140,set_tempo,20,1,0,,,,,,619195,,,,,,
105360,set_tempo,220,1,0,,,,,,597015,,,,,,
105360,note_on,0,0,0,,,,,,,,0,,,79,0
105360,note_on,0,0,0,,,,,,,,0,,,87,0
105360,note_on,0,0,0,,,,,,,,0,,,63,0
105360,note_on,0,0,0,,,,,,,,0,,,70,57
105420,note_on,60,0,0,,,,,,,,0,,,82,47
105480,note_on,60,0,0,,,,,,,,0,,,82,0
105480,note_on,0,0,0,,,,,,,,0,,,83,47
105540,note_on,60,0,0,,,,,,,,0,,,83,0
105540,note_on,0,0,0,,,,,,,,0,,,82,47
105600,set_tempo,60,1,0,,,,,,600000,,,,,,
105600,note_on,0,0,0,,,,,,,,0,,,82,0
105600,note_on,0,0,0,,,,,,,,0,,,70,0
105600,note_on,0,0,0,,,,,,,,0,,,74,57
105660,note_on,60,0,0,,,,,,,,0,,,86,47
105720,note_on,60,0,0,,,,,,,,0,,,86,0
105720,note_on,0,0,0,,,,,,,,0,,,87,47
105780,note_on,60,0,0,,,,,,,,0,,,87,0
105780,note_on,0,0,0,,,,,,,,0,,,86,47
105840,note_on,60,0,0,,,,,,,,0,,,86,0
105840,note_on,0,0,0,,,,,,,,0,,,74,0
105840,note_on,0,0,0,,,,,,,,0,,,75,57
105900,note_on,60,0,0,,,,,,,,0,,,87,51
105960,note_on,60,0,0,,,,,,,,0,,,87,0
105960,note_on,0,0,0,,,,,,,,0,,,88,50
106020,note_on,60,0,0,,,,,,,,0,,,88,0
106020,note_on,0,0,0,,,,,,,,0,,,87,50
106080,set_tempo,60,1,0,,,,,,628272,,,,,,
106080,note_on,0,0,0,,,,,,,,0,,,87,0
106080,note_on,0,0,0,,,,,,,,0,,,75,0
106080,note_on,0,0,0,,,,,,,,0,,,88,49
106080,note_on,0,0,0,,,,,,,,0,,,63,40
106080,note_on,0,0,0,,,,,,,,0,,,67,40
106080,note_on,0,0,0,,,,,,,,0,,,75,45
106120,set_tempo,40,1,0,,,,,,631579,,,,,,
106140,set_tempo,20,1,0,,,,,,634921,,,,,,
106140,note_on,0,0,0,,,,,,,,0,,,88,0
106140,note_on,0,0,0,,,,,,,,0,,,87,49
106180,set_tempo,40,1,0,,,,,,638298,,,,,,
106200,set_tempo,20,1,0,,,,,,641711,,,,,,
106200,note_on,0,0,0,,,,,,,,0,,,87,0
106200,note_on,0,0,0,,,,,,,,0,,,88,47
106220,set_tempo,20,1,0,,,,,,645161,,,,,,
106260,set_tempo,40,1,0,,,,,,648649,,,,,,
106260,note_on,0,0,0,,,,,,,,0,,,88,0
106260,note_on,0,0,0,,,,,,,,0,,,87,47
106280,set_tempo,20,1,0,,,,,,652174,,,,,,
106320,set_tempo,40,1,0,,,,,,655738,,,,,,
106320,note_on,0,0,0,,,,,,,,0,,,87,0
106320,note_on,0,0,0,,,,,,,,0,,,75,0
106320,note_on,0,0,0,,,,,,,,0,,,67,0
106320,note_on,0,0,0,,,,,,,,0,,,63,0
106320,note_on,0,0,0,,,,,,,,0,,,88,46
106320,note_on,0,0,0,,,,,,,,0,,,65,37
106320,note_on,0,0,0,,,,,,,,0,,,68,37
106320,note_on,0,0,0,,,,,,,,0,,,74,43
106340,set_tempo,20,1,0,,,,,,659341,,,,,,
106360,set_tempo,20,1,0,,,,,,662983,,,,,,
106380,note_on,20,0,0,,,,,,,,0,,,88,0
106380,note_on,0,0,0,,,,,,,,0,,,87,46
106400,set_tempo,20,1,0,,,,,,666667,,,,,,
106420,set_tempo,20,1,0,,,,,,670391,,,,,,
106440,set_tempo,20,1,0,,,,,,718563,,,,,,
106440,note_on,0,0,0,,,,,,,,0,,,87,0
106440,note_on,0,0,0,,,,,,,,0,,,88,45
106500,note_on,60,0,0,,,,,,,,0,,,88,0
106500,note_on,0,0,0,,,,,,,,0,,,87,45
106520,set_tempo,20,1,0,,,,,,616016,,,,,,
106560,note_on,40,0,0,,,,,,,,0,,,87,0
106560,note_on,0,0,0,,,,,,,,0,,,74,0
106560,note_on,0,0,0,,,,,,,,0,,,68,0
106560,note_on,0,0,0,,,,,,,,0,,,65,0
106560,note_on,0,0,0,,,,,,,,0,,,88,43
106560,note_on,0,0,0,,,,,,,,0,,,67,35
106560,note_on,0,0,0,,,,,,,,0,,,70,35
106560,note_on,0,0,0,,,,,,,,0,,,73,39
106605,note_on,45,0,0,,,,,,,,0,,,88,0
106605,note_on,0,0,0,,,,,,,,0,,,87,44
106650,note_on,45,0,0,,,,,,,,0,,,87,0
106650,note_on,0,0,0,,,,,,,,0,,,86,45
106660,set_tempo,10,1,0,,,,,,612870,,,,,,
106695,note_on,35,0,0,,,,,,,,0,,,86,0
106695,note_on,0,0,0,,,,,,,,0,,,87,45
106740,note_on,45,0,0,,,,,,,,0,,,87,0
106740,note_on,0,0,0,,,,,,,,0,,,88,46
106780,set_tempo,40,1,0,,,,,,609756,,,,,,
106785,note_on,5,0,0,,,,,,,,0,,,88,0
106785,note_on,0,0,0,,,,,,,,0,,,89,47
106800,note_on,15,0,0,,,,,,,,0,,,67,0
106800,note_on,0,0,0,,,,,,,,0,,,73,0
106800,note_on,0,0,0,,,,,,,,0,,,70,0
106830,note_on,30,0,0,,,,,,,,0,,,89,0
106830,note_on,0,0,0,,,,,,,,0,,,90,49
106875,note_on,45,0,0,,,,,,,,0,,,90,0
106875,note_on,0,0,0,,,,,,,,0,,,91,49
106900,set_tempo,25,1,0,,,,,,606673,,,,,,
106920,note_on,20,0,0,,,,,,,,0,,,91,0
106920,note_on,0,0,0,,,,,,,,0,,,92,51
106965,note_on,45,0,0,,,,,,,,0,,,92,0
106965,note_on,0,0,0,,,,,,,,0,,,93,52
107010,note_on,45,0,0,,,,,,,,0,,,93,0
107010,note_on,0,0,0,,,,,,,,0,,,94,54
107040,set_tempo,30,1,0,,,,,,603622,,,,,,
107055,note_on,15,0,0,,,,,,,,0,,,94,0
107055,note_on,0,0,0,,,,,,,,0,,,95,55
107100,note_on,45,0,0,,,,,,,,0,,,95,0
107100,note_on,0,0,0,,,,,,,,0,,,96,56
107145,note_on,45,0,0,,,,,,,,0,,,96,0
107145,note_on,0,0,0,,,,,,,,0,,,97,57
107160,set_tempo,15,1,0,,,,,,600601,,,,,,
107190,note_on,30,0,0,,,,,,,,0,,,97,0
107190,note_on,0,0,0,,,,,,,,0,,,98,59
107235,note_on,45,0,0,,,,,,,,0,,,98,0
107235,note_on,0,0,0,,,,,,,,0,,,99,60
107280,set_tempo,45,1,0,,,,,,597610,,,,,,
107280,note_on,0,0,0,,,,,,,,0,,,99,0
107280,note_on,0,0,0,,,,,,,,0,,,100,61
107280,note_on,0,0,0,,,,,,,,0,,,68,43
107280,note_on,0,0,0,,,,,,,,0,,,71,43
107280,note_on,0,0,0,,,,,,,,0,,,76,47
107328,note_on,48,0,0,,,,,,,,0,,,100,0
107328,note_on,0,0,0,,,,,,,,0,,,102,60
107376,note_on,48,0,0,,,,,,,,0,,,102,0
107376,note_on,0,0,0,,,,,,,,0,,,100,60
107400,set_tempo,24,1,0,,,,,,594648,,,,,,
107424,note_on,24,0,0,,,,,,,,0,,,100,0
107424,note_on,0,0,0,,,,,,,,0,,,99,59
107472,note_on,48,0,0,,,,,,,,0,,,99,0
107472,note_on,0,0,0,,,,,,,,0,,,98,57
107480,set_tempo,8,1,0,,,,,,597610,,,,,,
107520,note_on,40,0,0,,,,,,,,0,,,98,0
107520,note_on,0,0,0,,,,,,,,0,,,68,0
107520,note_on,0,0,0,,,,,,,,0,,,71,0
107520,note_on,0,0,0,,,,,,,,0,,,76,0
107520,note_on,0,0,0,,,,,,,,0,,,97,56
107560,set_tempo,40,1,0,,,,,,600601,,,,,,
107568,note_on,8,0,0,,,,,,,,0,,,97,0
107568,note_on,0,0,0,,,,,,,,0,,,96,55
107616,note_on,48,0,0,,,,,,,,0,,,96,0
107616,note_on,0,0,0,,,,,,,,0,,,95,54
107640,set_tempo,24,1,0,,,,,,603622,,,,,,
107664,note_on,24,0,0,,,,,,,,0,,,95,0
107664,note_on,0,0,0,,,,,,,,0,,,94,54
107700,set_tempo,36,1,0,,,,,,606673,,,,,,
107712,note_on,12,0,0,,,,,,,,0,,,94,0
107712,note_on,0,0,0,,,,,,,,0,,,93,52
107760,note_on,48,0,0,,,,,,,,0,,,93,0
107760,note_on,0,0,0,,,,,,,,0,,,92,51
107780,set_tempo,20,1,0,,,,,,609756,,,,,,
107808,note_on,28,0,0,,,,,,,,0,,,92,0
107808,note_on,0,0,0,,,,,,,,0,,,91,50
107856,note_on,48,0,0,,,,,,,,0,,,91,0
107856,note_on,0,0,0,,,,,,,,0,,,90,49
107860,set_tempo,4,1,0,,,,,,612870,,,,,,
107904,note_on,44,0,0,,,,,,,,0,,,90,0
107904,note_on,0,0,0,,,,,,,,0,,,89,47
107940,set_tempo,36,1,0,,,,,,616016,,,,,,
107952,note_on,12,0,0,,,,,,,,0,,,89,0
107952,note_on,0,0,0,,,,,,,,0,,,88,46
107980,set_tempo,28,1,0,,,,,,619195,,,,,,
108000,note_on,20,0,0,,,,,,,,0,,,88,0
108000,note_on,0,0,0,,,,,,,,0,,,87,43
108000,note_on,0,0,0,,,,,,,,0,,,79,39
108000,note_on,0,0,0,,,,,,,,0,,,63,35
108000,note_on,0,0,0,,,,,,,,0,,,70,35
108045,note_on,45,0,0,,,,,,,,0,,,87,0
108045,note_on,0,0,0,,,,,,,,0,,,88,43
108060,set_tempo,15,1,0,,,,,,616016,,,,,,
108090,note_on,30,0,0,,,,,,,,0,,,88,0
108090,note_on,0,0,0,,,,,,,,0,,,87,44
108120,set_tempo,30,1,0,,,,,,612870,,,,,,
108132,note_on,12,0,0,,,,,,,,0,,,87,0
108132,note_on,0,0,0,,,,,,,,0,,,86,45
108174,note_on,42,0,0,,,,,,,,0,,,86,0
108174,note_on,0,0,0,,,,,,,,0,,,87,45
108200,set_tempo,26,1,0,,,,,,609756,,,,,,
108216,note_on,16,0,0,,,,,,,,0,,,87,0
108216,note_on,0,0,0,,,,,,,,0,,,88,46
108240,note_on,24,0,0,,,,,,,,0,,,79,0
108240,note_on,0,0,0,,,,,,,,0,,,70,0
108240,note_on,0,0,0,,,,,,,,0,,,63,0
108258,note_on,18,0,0,,,,,,,,0,,,88,0
108258,note_on,0,0,0,,,,,,,,0,,,89,47
108260,set_tempo,2,1,0,,,,,,606673,,,,,,
108300,note_on,40,0,0,,,,,,,,0,,,89,0
108300,note_on,0,0,0,,,,,,,,0,,,90,49
108340,set_tempo,40,1,0,,,,,,603622,,,,,,
108342,note_on,2,0,0,,,,,,,,0,,,90,0
108342,note_on,0,0,0,,,,,,,,0,,,91,50
108384,note_on,42,0,0,,,,,,,,0,,,91,0
108384,note_on,0,0,0,,,,,,,,0,,,92,51
108400,set_tempo,16,1,0,,,,,,600601,,,,,,
108426,note_on,26,0,0,,,,,,,,0,,,92,0
108426,note_on,0,0,0,,,,,,,,0,,,93,52
108468,note_on,42,0,0,,,,,,,,0,,,93,0
108468,note_on,0,0,0,,,,,,,,0,,,94,54
108480,set_tempo,12,1,0,,,,,,597610,,,,,,
108510,note_on,30,0,0,,,,,,,,0,,,94,0
108510,note_on,0,0,0,,,,,,,,0,,,95,55
108540,set_tempo,30,1,0,,,,,,594648,,,,,,
108552,note_on,12,0,0,,,,,,,,0,,,95,0
108552,note_on,0,0,0,,,,,,,,0,,,96,56
108594,note_on,42,0,0,,,,,,,,0,,,96,0
108594,note_on,0,0,0,,,,,,,,0,,,97,57
108620,set_tempo,26,1,0,,,,,,591716,,,,,,
108636,note_on,16,0,0,,,,,,,,0,,,97,0
108636,note_on,0,0,0,,,,,,,,0,,,98,59
108678,note_on,42,0,0,,,,,,,,0,,,98,0
108678,note_on,0,0,0,,,,,,,,0,,,99,60
108680,set_tempo,2,1,0,,,,,,588813,,,,,,
108719,note_on,39,0,0,,,,,,,,0,,,100,61
108720,note_on,1,0,0,,,,,,,,0,,,99,0
108720,note_on,0,0,0,,,,,,,,0,,,56,43
108720,note_on,0,0,0,,,,,,,,0,,,71,47
108760,set_tempo,40,1,0,,,,,,585938,,,,,,
108767,note_on,7,0,0,,,,,,,,0,,,100,0
108767,note_on,0,0,0,,,,,,,,0,,,102,60
108815,note_on,48,0,0,,,,,,,,0,,,102,0
108815,note_on,0,0,0,,,,,,,,0,,,100,60
108820,set_tempo,5,1,0,,,,,,583090,,,,,,
108863,note_on,43,0,0,,,,,,,,0,,,100,0
108863,note_on,0,0,0,,,,,,,,0,,,99,59
108880,set_tempo,17,1,0,,,,,,585938,,,,,,
108911,note_on,31,0,0,,,,,,,,0,,,99,0
108911,note_on,0,0,0,,,,,,,,0,,,98,57
108920,set_tempo,9,1,0,,,,,,588813,,,,,,
108959,note_on,39,0,0,,,,,,,,0,,,98,0
108959,note_on,0,0,0,,,,,,,,0,,,97,56
108960,note_on,1,0,0,,,,,,,,0,,,71,0
108960,note_on,0,0,0,,,,,,,,0,,,56,0
108980,set_tempo,20,1,0,,,,,,591716,,,,,,
109007,note_on,27,0,0,,,,,,,,0,,,97,0
109007,note_on,0,0,0,,,,,,,,0,,,96,55
109020,set_tempo,13,1,0,,,,,,594648,,,,,,
109055,note_on,35,0,0,,,,,,,,0,,,96,0
109055,note_on,0,0,0,,,,,,,,0,,,95,54
109080,set_tempo,25,1,0,,,,,,597610,,,,,,
109103,note_on,23,0,0,,,,,,,,0,,,95,0
109103,note_on,0,0,0,,,,,,,,0,,,94,54
109120,set_tempo,17,1,0,,,,,,600601,,,,,,
109151,note_on,31,0,0,,,,,,,,0,,,94,0
109151,note_on,0,0,0,,,,,,,,0,,,93,52
109180,set_tempo,29,1,0,,,,,,603622,,,,,,
109199,note_on,19,0,0,,,,,,,,0,,,93,0
109199,note_on,0,0,0,,,,,,,,0,,,92,51
109220,set_tempo,21,1,0,,,,,,606673,,,,,,
109247,note_on,27,0,0,,,,,,,,0,,,92,0
109247,note_on,0,0,0,,,,,,,,0,,,91,50
109280,set_tempo,33,1,0,,,,,,609756,,,,,,
109295,note_on,15,0,0,,,,,,,,0,,,91,0
109295,note_on,0,0,0,,,,,,,,0,,,90,49
109320,set_tempo,25,1,0,,,,,,612870,,,,,,
109343,note_on,23,0,0,,,,,,,,0,,,90,0
109343,note_on,0,0,0,,,,,,,,0,,,89,47
109380,set_tempo,37,1,0,,,,,,616016,,,,,,
109391,note_on,11,0,0,,,,,,,,0,,,89,0
109391,note_on,0,0,0,,,,,,,,0,,,88,46
109420,set_tempo,29,1,0,,,,,,619195,,,,,,
109439,note_on,19,0,0,,,,,,,,0,,,88,0
109440,time_signature,1,1,0,3,8,12,8,,,,,,,,
109440,set_tempo,0,1,0,,,,,,600000,,,,,,
109440,note_on,0,0,0,,,,,,,,0,,,87,43
109440,note_on,0,0,0,,,,,,,,0,,,51,39
109440,note_on,0,0,0,,,,,,,,0,,,67,39
109485,note_on,45,0,0,,,,,,,,0,,,87,0
109485,note_on,0,0,0,,,,,,,,0,,,88,43
109530,note_on,45,0,0,,,,,,,,0,,,88,0
109530,note_on,0,0,0,,,,,,,,0,,,87,44
109560,set_tempo,30,1,0,,,,,,597015,,,,,,
109572,note_on,12,0,0,,,,,,,,0,,,87,0
109572,note_on,0,0,0,,,,,,,,0,,,86,45
109614,note_on,42,0,0,,,,,,,,0,,,86,0
109614,note_on,0,0,0,,,,,,,,0,,,87,45
109656,note_on,42,0,0,,,,,,,,0,,,87,0
109656,note_on,0,0,0,,,,,,,,0,,,88,46
109660,set_tempo,4,1,0,,,,,,594059,,,,,,
109680,note_on,20,0,0,,,,,,,,0,,,67,0
109680,note_on,0,0,0,,,,,,,,0,,,51,0
109698,note_on,18,0,0,,,,,,,,0,,,88,0
109698,note_on,0,0,0,,,,,,,,0,,,89,47
109740,note_on,42,0,0,,,,,,,,0,,,89,0
109740,note_on,0,0,0,,,,,,,,0,,,90,49
109760,set_tempo,20,1,0,,,,,,591133,,,,,,
109782,note_on,22,0,0,,,,,,,,0,,,90,0
109782,note_on,0,0,0,,,,,,,,0,,,91,50
109824,note_on,42,0,0,,,,,,,,0,,,91,0
109824,note_on,0,0,0,,,,,,,,0,,,92,51
109860,set_tempo,36,1,0,,,,,,588235,,,,,,
109866,note_on,6,0,0,,,,,,,,0,,,92,0
109866,note_on,0,0,0,,,,,,,,0,,,93,52
109908,note_on,42,0,0,,,,,,,,0,,,93,0
109908,note_on,0,0,0,,,,,,,,0,,,94,54
109950,note_on,42,0,0,,,,,,,,0,,,94,0
109950,note_on,0,0,0,,,,,,,,0,,,95,55
109960,set_tempo,10,1,0,,,,,,585366,,,,,,
109992,note_on,32,0,0,,,,,,,,0,,,95,0
109992,note_on,0,0,0,,,,,,,,0,,,96,56
110034,note_on,42,0,0,,,,,,,,0,,,96,0
110034,note_on,0,0,0,,,,,,,,0,,,97,57
110060,set_tempo,26,1,0,,,,,,582524,,,,,,
110076,note_on,16,0,0,,,,,,,,0,,,97,0
110076,note_on,0,0,0,,,,,,,,0,,,98,59
110118,note_on,42,0,0,,,,,,,,0,,,98,0
110118,note_on,0,0,0,,,,,,,,0,,,99,60
110127,set_tempo,9,1,0,,,,,,597610,,,,,,
110160,time_signature,33,1,0,6,8,12,8,,,,,,,,
110160,marker,0,1,0,,,,,,,,,,,,
110160,note_on,0,0,0,,,,,,,,0,,,99,0
110160,note_on,0,0,0,,,,,,,,0,,,100,67
110160,note_on,0,0,0,,,,,,,,0,,,44,63
110160,note_on,0,0,0,,,,,,,,0,,,59,63
110167,set_tempo,7,1,0,,,,,,597610,,,,,,
110220,note_on,53,0,0,,,,,,,,0,,,100,0
110220,note_on,0,0,0,,,,,,,,0,,,102,63
110280,note_on,60,0,0,,,,,,,,0,,,102,0
110280,note_on,0,0,0,,,,,,,,0,,,100,63
110287,set_tempo,7,1,0,,,,,,594648,,,,,,
110340,note_on,53,0,0,,,,,,,,0,,,100,0
110340,note_on,0,0,0,,,,,,,,0,,,99,63
110387,set_tempo,47,1,0,,,,,,591716,,,,,,
110400,note_on,13,0,0,,,,,,,,0,,,99,0
110400,note_on,0,0,0,,,,,,,,0,,,59,0
110400,note_on,0,0,0,,,,,,,,0,,,44,0
110400,note_on,0,0,0,,,,,,,,0,,,98,67
110460,note_on,60,0,0,,,,,,,,0,,,98,0
110460,note_on,0,0,0,,,,,,,,0,,,99,63
110507,set_tempo,47,1,0,,,,,,588813,,,,,,
110520,note_on,13,0,0,,,,,,,,0,,,99,0
110520,note_on,0,0,0,,,,,,,,0,,,98,63
110580,note_on,60,0,0,,,,,,,,0,,,98,0
110580,note_on,0,0,0,,,,,,,,0,,,97,63
110607,set_tempo,27,1,0,,,,,,585938,,,,,,
110640,note_on,33,0,0,,,,,,,,0,,,97,0
110640,note_on,0,0,0,,,,,,,,0,,,96,67
110700,note_on,60,0,0,,,,,,,,0,,,96,0
110700,note_on,0,0,0,,,,,,,,0,,,97,63
110727,set_tempo,27,1,0,,,,,,583090,,,,,,
110760,note_on,33,0,0,,,,,,,,0,,,97,0
110760,note_on,0,0,0,,,,,,,,0,,,96,63
110820,note_on,60,0,0,,,,,,,,0,,,96,0
110820,note_on,0,0,0,,,,,,,,0,,,95,63
110827,set_tempo,7,1,0,,,,,,580271,,,,,,
110880,note_on,53,0,0,,,,,,,,0,,,95,0
110880,note_on,0,0,0,,,,,,,,0,,,94,67
110940,note_on,60,0,0,,,,,,,,0,,,94,0
110944,note_on,4,0,0,,,,,,,,0,,,95,63
110947,set_tempo,3,1,0,,,,,,577478,,,,,,
110995,note_on,48,0,0,,,,,,,,0,,,94,63
111004,note_on,9,0,0,,,,,,,,0,,,95,0
111047,set_tempo,43,1,0,,,,,,574713,,,,,,
111055,note_on,8,0,0,,,,,,,,0,,,94,0
111065,note_on,10,0,0,,,,,,,,0,,,93,63
111121,note_on,56,0,0,,,,,,,,0,,,92,67
111125,note_on,4,0,0,,,,,,,,0,,,93,0
111167,set_tempo,42,1,0,,,,,,571973,,,,,,
111175,note_on,8,0,0,,,,,,,,0,,,93,63
111181,note_on,6,0,0,,,,,,,,0,,,92,0
111235,note_on,54,0,0,,,,,,,,0,,,93,0
111240,note_on,5,0,0,,,,,,,,0,,,92,63
111267,set_tempo,27,1,0,,,,,,569260,,,,,,
111297,note_on,30,0,0,,,,,,,,0,,,91,63
111300,note_on,3,0,0,,,,,,,,0,,,92,0
111357,note_on,57,0,0,,,,,,,,0,,,91,0
111364,note_on,7,0,0,,,,,,,,0,,,90,62
111387,set_tempo,23,1,0,,,,,,566572,,,,,,
111421,note_on,34,0,0,,,,,,,,0,,,91,61
111424,note_on,3,0,0,,,,,,,,0,,,90,0
111481,note_on,57,0,0,,,,,,,,0,,,91,0
111482,note_on,1,0,0,,,,,,,,0,,,90,61
111487,set_tempo,5,1,0,,,,,,563910,,,,,,
111537,note_on,50,0,0,,,,,,,,0,,,89,61
111542,note_on,5,0,0,,,,,,,,0,,,90,0
111587,set_tempo,45,1,0,,,,,,561272,,,,,,
111597,note_on,10,0,0,,,,,,,,0,,,89,0
111604,note_on,7,0,0,,,,,,,,0,,,88,61
111656,note_on,52,0,0,,,,,,,,0,,,90,59
111664,note_on,8,0,0,,,,,,,,0,,,88,0
111687,set_tempo,23,1,0,,,,,,558659,,,,,,
111716,note_on,29,0,0,,,,,,,,0,,,90,0
111716,note_on,0,0,0,,,,,,,,0,,,88,59
111767,set_tempo,51,1,0,,,,,,556070,,,,,,
111776,note_on,9,0,0,,,,,,,,0,,,88,0
111783,note_on,7,0,0,,,,,,,,0,,,87,59
111838,note_on,55,0,0,,,,,,,,0,,,86,60
111843,note_on,5,0,0,,,,,,,,0,,,87,0
111847,set_tempo,4,1,0,,,,,,553506,,,,,,
111898,note_on,51,0,0,,,,,,,,0,,,86,0
111905,note_on,7,0,0,,,,,,,,0,,,87,56
111947,set_tempo,42,1,0,,,,,,550964,,,,,,
111958,note_on,11,0,0,,,,,,,,0,,,86,56
111965,note_on,7,0,0,,,,,,,,0,,,87,0
112018,note_on,53,0,0,,,,,,,,0,,,86,0
112018,note_on,0,0,0,,,,,,,,0,,,85,56
112027,set_tempo,9,1,0,,,,,,548446,,,,,,
112076,note_on,49,0,0,,,,,,,,0,,,84,59
112078,note_on,2,0,0,,,,,,,,0,,,85,0
112107,set_tempo,29,1,0,,,,,,545951,,,,,,
112136,note_on,29,0,0,,,,,,,,0,,,84,0
112143,note_on,7,0,0,,,,,,,,0,,,85,56
112203,note_on,60,0,0,,,,,,,,0,,,85,0
112204,note_on,1,0,0,,,,,,,,0,,,84,56
112262,note_on,58,0,0,,,,,,,,0,,,83,56
112264,note_on,2,0,0,,,,,,,,0,,,84,0
112321,note_on,57,0,0,,,,,,,,0,,,82,57
112322,note_on,1,0,0,,,,,,,,0,,,83,0
112381,note_on,59,0,0,,,,,,,,0,,,82,0
112383,note_on,2,0,0,,,,,,,,0,,,83,54
112437,note_on,54,0,0,,,,,,,,0,,,82,54
112443,note_on,6,0,0,,,,,,,,0,,,83,0
112496,note_on,53,0,0,,,,,,,,0,,,81,54
112497,note_on,1,0,0,,,,,,,,0,,,82,0
112555,note_on,58,0,0,,,,,,,,0,,,80,56
112556,note_on,1,0,0,,,,,,,,0,,,81,0
112615,note_on,59,0,0,,,,,,,,0,,,80,0
112615,note_on,0,0,0,,,,,,,,0,,,81,54
112675,note_on,60,0,0,,,,,,,,0,,,81,0
112683,note_on,8,0,0,,,,,,,,0,,,80,54
112743,note_on,60,0,0,,,,,,,,0,,,80,0
112744,note_on,1,0,0,,,,,,,,0,,,79,54
112797,note_on,53,0,0,,,,,,,,0,,,78,55
112804,note_on,7,0,0,,,,,,,,0,,,79,0
112856,note_on,52,0,0,,,,,,,,0,,,79,52
112857,note_on,1,0,0,,,,,,,,0,,,78,0
112916,note_on,59,0,0,,,,,,,,0,,,79,0
112921,note_on,5,0,0,,,,,,,,0,,,78,52
112975,note_on,54,0,0,,,,,,,,0,,,77,52
112981,note_on,6,0,0,,,,,,,,0,,,78,0
113035,note_on,54,0,0,,,,,,,,0,,,77,0
113036,note_on,1,0,0,,,,,,,,0,,,76,55
113096,note_on,60,0,0,,,,,,,,0,,,76,0
113099,note_on,3,0,0,,,,,,,,0,,,78,52
113159,note_on,60,0,0,,,,,,,,0,,,78,0
113163,note_on,4,0,0,,,,,,,,0,,,76,52
113222,note_on,59,0,0,,,,,,,,0,,,75,52
113223,note_on,1,0,0,,,,,,,,0,,,76,0
113280,note_on,57,0,0,,,,,,,,0,,,74,54
113282,note_on,2,0,0,,,,,,,,0,,,75,0
113335,note_on,53,0,0,,,,,,,,0,,,75,51
113340,note_on,5,0,0,,,,,,,,0,,,74,0
113395,note_on,55,0,0,,,,,,,,0,,,75,0
113399,note_on,4,0,0,,,,,,,,0,,,74,51
113457,note_on,58,0,0,,,,,,,,0,,,73,51
113459,note_on,2,0,0,,,,,,,,0,,,74,0
113517,note_on,58,0,0,,,,,,,,0,,,73,0
113522,note_on,5,0,0,,,,,,,,0,,,72,54
113578,note_on,56,0,0,,,,,,,,0,,,73,50
113582,note_on,4,0,0,,,,,,,,0,,,72,0
113638,note_on,56,0,0,,,,,,,,0,,,73,0
113639,note_on,1,0,0,,,,,,,,0,,,72,50
113697,note_on,58,0,0,,,,,,,,0,,,71,50
113699,note_on,2,0,0,,,,,,,,0,,,72,0
113740,set_tempo,41,1,0,,,,,,550459,,,,,,
113757,note_on,17,0,0,,,,,,,,0,,,71,0
113761,note_on,4,0,0,,,,,,,,0,,,70,52
113820,set_tempo,59,1,0,,,,,,552995,,,,,,
113820,note_on,0,0,0,,,,,,,,0,,,71,49
113821,note_on,1,0,0,,,,,,,,0,,,70,0
113880,note_on,59,0,0,,,,,,,,0,,,71,0
113881,note_on,1,0,0,,,,,,,,0,,,70,49
113900,set_tempo,19,1,0,,,,,,555556,,,,,,
113936,note_on,36,0,0,,,,,,,,0,,,69,49
113941,note_on,5,0,0,,,,,,,,0,,,70,0
113980,set_tempo,39,1,0,,,,,,558140,,,,,,
113996,note_on,16,0,0,,,,,,,,0,,,69,0
114000,note_on,4,0,0,,,,,,,,0,,,68,51
114040,set_tempo,40,1,0,,,,,,560748,,,,,,
114060,note_on,20,0,0,,,,,,,,0,,,68,0
114065,note_on,5,0,0,,,,,,,,0,,,69,47
114120,set_tempo,55,1,0,,,,,,563380,,,,,,
114122,note_on,2,0,0,,,,,,,,0,,,68,47
114125,note_on,3,0,0,,,,,,,,0,,,69,0
114182,note_on,57,0,0,,,,,,,,0,,,68,0
114185,note_on,3,0,0,,,,,,,,0,,,67,47
114200,set_tempo,15,1,0,,,,,,566038,,,,,,
114237,note_on,37,0,0,,,,,,,,0,,,66,50
114245,note_on,8,0,0,,,,,,,,0,,,67,0
114260,set_tempo,15,1,0,,,,,,568720,,,,,,
114297,note_on,37,0,0,,,,,,,,0,,,66,0
114298,note_on,1,0,0,,,,,,,,0,,,67,46
114340,set_tempo,42,1,0,,,,,,571429,,,,,,
114356,note_on,16,0,0,,,,,,,,0,,,66,46
114358,note_on,2,0,0,,,,,,,,0,,,67,0
114360,note_on,2,0,0,,,,,,,,0,,,43,41
114416,note_on,56,0,0,,,,,,,,0,,,66,0
114420,set_tempo,4,1,0,,,,,,574163,,,,,,
114420,note_on,0,0,0,,,,,,,,0,,,58,41
114425,note_on,5,0,0,,,,,,,,0,,,65,46
114460,set_tempo,35,1,0,,,,,,576923,,,,,,
114480,note_on,20,0,0,,,,,,,,0,,,64,46
114480,note_on,0,0,0,,,,,,,,0,,,61,51
114485,note_on,5,0,0,,,,,,,,0,,,65,0
114540,set_tempo,55,1,0,,,,,,574163,,,,,,
114540,note_on,0,0,0,,,,,,,,0,,,64,0
114545,note_on,5,0,0,,,,,,,,0,,,62,46
114596,note_on,51,0,0,,,,,,,,0,,,64,46
114600,set_tempo,4,1,0,,,,,,571429,,,,,,
114605,note_on,5,0,0,,,,,,,,0,,,62,0
114656,note_on,51,0,0,,,,,,,,0,,,64,0
114661,note_on,5,0,0,,,,,,,,0,,,63,46
114680,set_tempo,19,1,0,,,,,,568720,,,,,,
114716,note_on,36,0,0,,,,,,,,0,,,65,46
114720,note_on,4,0,0,,,,,,,,0,,,61,0
114720,note_on,0,0,0,,,,,,,,0,,,43,0
114720,note_on,0,0,0,,,,,,,,0,,,58,0
114721,note_on,1,0,0,,,,,,,,0,,,63,0
114740,set_tempo,19,1,0,,,,,,566038,,,,,,
114776,note_on,36,0,0,,,,,,,,0,,,65,0
114779,note_on,3,0,0,,,,,,,,0,,,64,46
114800,set_tempo,21,1,0,,,,,,563380,,,,,,
114839,note_on,39,0,0,,,,,,,,0,,,64,0
114845,note_on,6,0,0,,,,,,,,0,,,66,46
114880,set_tempo,35,1,0,,,,,,560748,,,,,,
114895,note_on,15,0,0,,,,,,,,0,,,65,46
114905,note_on,10,0,0,,,,,,,,0,,,66,0
114940,set_tempo,35,1,0,,,,,,558140,,,,,,
114955,note_on,15,0,0,,,,,,,,0,,,65,0
114964,note_on,9,0,0,,,,,,,,0,,,67,46
115000,set_tempo,36,1,0,,,,,,555556,,,,,,
115018,note_on,18,0,0,,,,,,,,0,,,66,46
115024,note_on,6,0,0,,,,,,,,0,,,67,0
115077,note_on,53,0,0,,,,,,,,0,,,68,46
115078,note_on,1,0,0,,,,,,,,0,,,66,0
115080,set_tempo,2,1,0,,,,,,552995,,,,,,
115137,note_on,57,0,0,,,,,,,,0,,,68,0
115140,set_tempo,3,1,0,,,,,,550459,,,,,,
115143,note_on,3,0,0,,,,,,,,0,,,67,46
115199,note_on,56,0,0,,,,,,,,0,,,69,46
115200,set_tempo,1,1,0,,,,,,547945,,,,,,
115203,note_on,3,0,0,,,,,,,,0,,,67,0
115257,note_on,54,0,0,,,,,,,,0,,,68,46
115259,note_on,2,0,0,,,,,,,,0,,,69,0
115317,note_on,58,0,0,,,,,,,,0,,,68,0
115321,note_on,4,0,0,,,,,,,,0,,,70,46
115381,note_on,60,0,0,,,,,,,,0,,,70,0
115381,note_on,0,0,0,,,,,,,,0,,,69,46
115439,note_on,58,0,0,,,,,,,,0,,,71,46
115441,note_on,2,0,0,,,,,,,,0,,,69,0
115499,note_on,58,0,0,,,,,,,,0,,,71,0
115500,note_on,1,0,0,,,,,,,,0,,,70,46
115560,note_on,60,0,0,,,,,,,,0,,,70,0
115561,note_on,1,0,0,,,,,,,,0,,,72,46
115621,note_on,60,0,0,,,,,,,,0,,,72,0
115621,note_on,0,0,0,,,,,,,,0,,,71,46
115681,note_on,60,0,0,,,,,,,,0,,,71,0
115684,note_on,3,0,0,,,,,,,,0,,,73,46
115744,note_on,60,0,0,,,,,,,,0,,,73,0
115744,note_on,0,0,0,,,,,,,,0,,,72,46
115801,note_on,57,0,0,,,,,,,,0,,,74,46
115804,note_on,3,0,0,,,,,,,,0,,,72,0
115861,note_on,57,0,0,,,,,,,,0,,,74,0
115862,note_on,1,0,0,,,,,,,,0,,,73,46
115921,note_on,59,0,0,,,,,,,,0,,,75,46
115922,note_on,1,0,0,,,,,,,,0,,,73,0
115979,note_on,57,0,0,,,,,,,,0,,,74,46
115981,note_on,2,0,0,,,,,,,,0,,,75,0
116037,note_on,56,0,0,,,,,,,,0,,,76,46
116039,note_on,2,0,0,,,,,,,,0,,,74,0
116097,note_on,58,0,0,,,,,,,,0,,,76,0
116103,note_on,6,0,0,,,,,,,,0,,,75,46
116161,note_on,58,0,0,,,,,,,,0,,,77,45
116163,note_on,2,0,0,,,,,,,,0,,,75,0
116221,note_on,58,0,0,,,,,,,,0,,,77,0
116224,note_on,3,0,0,,,,,,,,0,,,76,45
116277,note_on,53,0,0,,,,,,,,0,,,78,45
116284,note_on,7,0,0,,,,,,,,0,,,76,0
116337,note_on,53,0,0,,,,,,,,0,,,78,0
116337,note_on,0,0,0,,,,,,,,0,,,77,46
116397,note_on,60,0,0,,,,,,,,0,,,77,0
116401,note_on,4,0,0,,,,,,,,0,,,79,47
116461,note_on,60,0,0,,,,,,,,0,,,79,0
116462,note_on,1,0,0,,,,,,,,0,,,78,49
116521,note_on,59,0,0,,,,,,,,0,,,80,49
116522,note_on,1,0,0,,,,,,,,0,,,78,0
116578,note_on,56,0,0,,,,,,,,0,,,79,50
116581,note_on,3,0,0,,,,,,,,0,,,80,0
116638,note_on,57,0,0,,,,,,,,0,,,79,0
116640,note_on,2,0,0,,,,,,,,0,,,81,51
116695,note_on,55,0,0,,,,,,,,0,,,80,52
116700,note_on,5,0,0,,,,,,,,0,,,81,0
116755,note_on,55,0,0,,,,,,,,0,,,80,0
116763,note_on,8,0,0,,,,,,,,0,,,82,54
116821,note_on,58,0,0,,,,,,,,0,,,81,54
116823,note_on,2,0,0,,,,,,,,0,,,82,0
116881,note_on,58,0,0,,,,,,,,0,,,81,0
116881,note_on,0,0,0,,,,,,,,0,,,83,54
116941,note_on,60,0,0,,,,,,,,0,,,83,0
116942,note_on,1,0,0,,,,,,,,0,,,82,55
117002,note_on,60,0,0,,,,,,,,0,,,82,0
117003,note_on,1,0,0,,,,,,,,0,,,84,56
117056,note_on,53,0,0,,,,,,,,0,,,83,57
117063,note_on,7,0,0,,,,,,,,0,,,84,0
117116,note_on,53,0,0,,,,,,,,0,,,83,0
117121,note_on,5,0,0,,,,,,,,0,,,85,57
117181,note_on,60,0,0,,,,,,,,0,,,85,0
117184,note_on,3,0,0,,,,,,,,0,,,84,59
117244,note_on,60,0,0,,,,,,,,0,,,84,0
117245,note_on,1,0,0,,,,,,,,0,,,86,60
117301,note_on,56,0,0,,,,,,,,0,,,85,61
117305,note_on,4,0,0,,,,,,,,0,,,86,0
117360,set_tempo,55,1,0,,,,,,545455,,,,,,
117361,note_on,1,0,0,,,,,,,,0,,,85,0
117363,note_on,2,0,0,,,,,,,,0,,,87,62
117375,control_change,12,0,0,,,,,,,,0,64,127,,
117415,note_on,40,0,0,,,,,,,,0,,,86,63
117423,note_on,8,0,0,,,,,,,,0,,,87,0
117475,note_on,52,0,0,,,,,,,,0,,,86,0
117482,note_on,7,0,0,,,,,,,,0,,,88,63
117542,note_on,60,0,0,,,,,,,,0,,,88,0
117545,note_on,3,0,0,,,,,,,,0,,,87,64
117580,set_tempo,35,1,0,,,,,,547945,,,,,,
117598,note_on,18,0,0,,,,,,,,0,,,89,65
117605,note_on,7,0,0,,,,,,,,0,,,87,0
117658,note_on,53,0,0,,,,,,,,0,,,89,0
117661,note_on,3,0,0,,,,,,,,0,,,88,66
117718,note_on,57,0,0,,,,,,,,0,,,90,67
117721,note_on,3,0,0,,,,,,,,0,,,88,0
117776,note_on,55,0,0,,,,,,,,0,,,89,67
117778,note_on,2,0,0,,,,,,,,0,,,90,0
117780,set_tempo,2,1,0,,,,,,550459,,,,,,
117836,note_on,56,0,0,,,,,,,,0,,,89,0
117836,note_on,0,0,0,,,,,,,,0,,,91,69
117896,note_on,60,0,0,,,,,,,,0,,,91,0
117904,note_on,8,0,0,,,,,,,,0,,,90,70
117964,note_on,60,0,0,,,,,,,,0,,,90,0
117964,note_on,0,0,0,,,,,,,,0,,,92,71
117980,set_tempo,16,1,0,,,,,,552995,,,,,,
118023,note_on,43,0,0,,,,,,,,0,,,91,72
118024,note_on,1,0,0,,,,,,,,0,,,92,0
118076,note_on,52,0,0,,,,,,,,0,,,93,72
118083,note_on,7,0,0,,,,,,,,0,,,91,0
118136,note_on,53,0,0,,,,,,,,0,,,93,0
118138,note_on,2,0,0,,,,,,,,0,,,92,72
118195,note_on,57,0,0,,,,,,,,0,,,94,73
118198,note_on,3,0,0,,,,,,,,0,,,92,0
118200,set_tempo,2,1,0,,,,,,555556,,,,,,
118255,note_on,55,0,0,,,,,,,,0,,,94,0
118255,note_on,0,0,0,,,,,,,,0,,,93,75
118315,note_on,60,0,0,,,,,,,,0,,,93,0
118322,note_on,7,0,0,,,,,,,,0,,,95,76
118382,note_on,60,0,0,,,,,,,,0,,,95,0
118384,note_on,2,0,0,,,,,,,,0,,,94,77
118400,set_tempo,16,1,0,,,,,,558140,,,,,,
118440,note_on,40,0,0,,,,,,,,0,,,96,77
118444,note_on,4,0,0,,,,,,,,0,,,94,0
118499,note_on,55,0,0,,,,,,,,0,,,95,79
118500,note_on,1,0,0,,,,,,,,0,,,96,0
118559,note_on,59,0,0,,,,,,,,0,,,95,0
118559,note_on,0,0,0,,,,,,,,0,,,97,80
118580,set_tempo,21,1,0,,,,,,558140,,,,,,
118600,set_tempo,20,1,0,,,,,,560748,,,,,,
118618,note_on,18,0,0,,,,,,,,0,,,96,81
118619,note_on,1,0,0,,,,,,,,0,,,97,0
118620,set_tempo,1,1,0,,,,,,566038,,,,,,
118640,set_tempo,20,1,0,,,,,,571429,,,,,,
118660,set_tempo,20,1,0,,,,,,576923,,,,,,
118678,note_on,18,0,0,,,,,,,,0,,,96,0
118680,set_tempo,2,1,0,,,,,,582524,,,,,,
118680,note_on,0,0,0,,,,,,,,0,,,98,81
118700,set_tempo,20,1,0,,,,,,585366,,,,,,
118720,set_tempo,20,1,0,,,,,,591133,,,,,,
118740,set_tempo,20,1,0,,,,,,597015,,,,,,
118740,note_on,0,0,0,,,,,,,,0,,,98,0
118740,note_on,0,0,0,,,,,,,,0,,,97,81
118760,set_tempo,20,1,0,,,,,,603015,,,,,,
118780,set_tempo,20,1,0,,,,,,609137,,,,,,
118796,note_on,16,0,0,,,,,,,,0,,,99,83
118800,set_tempo,4,1,0,,,,,,560748,,,,,,
118800,note_on,0,0,0,,,,,,,,0,,,97,0
118832,control_change,32,0,0,,,,,,,,0,64,0,,
118856,note_on,24,0,0,,,,,,,,0,,,99,0
118858,note_on,2,0,0,,,,,,,,0,,,98,77
118860,set_tempo,2,1,0,,,,,,558140,,,,,,
118895,control_change,35,0,0,,,,,,,,0,64,127,,
118900,set_tempo,5,1,0,,,,,,555556,,,,,,
118918,note_on,18,0,0,,,,,,,,0,,,98,0
118923,note_on,5,0,0,,,,,,,,0,,,100,83
118960,set_tempo,37,1,0,,,,,,552995,,,,,,
118978,note_on,18,0,0,,,,,,,,0,,,98,77
118983,note_on,5,0,0,,,,,,,,0,,,100,0
119000,set_tempo,17,1,0,,,,,,550459,,,,,,
119038,note_on,38,0,0,,,,,,,,0,,,98,0
119040,set_tempo,2,1,0,,,,,,568720,,,,,,
119044,note_on,4,0,0,,,,,,,,0,,,99,83
119104,note_on,60,0,0,,,,,,,,0,,,99,0
119105,note_on,1,0,0,,,,,,,,0,,,98,79
119164,note_on,59,0,0,,,,,,,,0,,,100,83
119165,note_on,1,0,0,,,,,,,,0,,,98,0
119222,note_on,57,0,0,,,,,,,,0,,,98,79
119224,note_on,2,0,0,,,,,,,,0,,,100,0
119278,note_on,54,0,0,,,,,,,,0,,,99,83
119282,note_on,4,0,0,,,,,,,,0,,,98,0
119338,note_on,56,0,0,,,,,,,,0,,,99,0
119345,note_on,7,0,0,,,,,,,,0,,,98,79
119396,note_on,51,0,0,,,,,,,,0,,,100,83
119405,note_on,9,0,0,,,,,,,,0,,,98,0
119455,note_on,50,0,0,,,,,,,,0,,,98,79
119456,note_on,1,0,0,,,,,,,,0,,,100,0
119515,note_on,59,0,0,,,,,,,,0,,,98,0
119520,set_tempo,5,1,0,,,,,,566038,,,,,,
119523,note_on,3,0,0,,,,,,,,0,,,99,81
119540,set_tempo,17,1,0,,,,,,568720,,,,,,
119560,set_tempo,20,1,0,,,,,,571429,,,,,,
119580,set_tempo,20,1,0,,,,,,574163,,,,,,
119580,note_on,0,0,0,,,,,,,,0,,,98,75
119583,note_on,3,0,0,,,,,,,,0,,,99,0
119600,set_tempo,17,1,0,,,,,,576923,,,,,,
119620,set_tempo,20,1,0,,,,,,579710,,,,,,
119640,set_tempo,20,1,0,,,,,,585366,,,,,,
119640,note_on,0,0,0,,,,,,,,0,,,98,0
119641,note_on,1,0,0,,,,,,,,0,,,100,76
119660,set_tempo,19,1,0,,,,,,588235,,,,,,
119680,set_tempo,20,1,0,,,,,,591133,,,,,,
119700,set_tempo,20,1,0,,,,,,594059,,,,,,
119701,note_on,1,0,0,,,,,,,,0,,,100,0
119705,note_on,4,0,0,,,,,,,,0,,,98,72
119720,set_tempo,15,1,0,,,,,,597015,,,,,,
119740,set_tempo,20,1,0,,,,,,600000,,,,,,
119755,note_on,15,0,0,,,,,,,,0,,,99,72
119760,set_tempo,5,1,0,,,,,,603015,,,,,,
119765,note_on,5,0,0,,,,,,,,0,,,98,0
119815,note_on,50,0,0,,,,,,,,0,,,99,0
119820,set_tempo,5,1,0,,,,,,606061,,,,,,
119824,note_on,4,0,0,,,,,,,,0,,,98,73
119860,set_tempo,36,1,0,,,,,,609137,,,,,,
119882,note_on,22,0,0,,,,,,,,0,,,100,73
119884,note_on,2,0,0,,,,,,,,0,,,98,0
119920,set_tempo,36,1,0,,,,,,612245,,,,,,
119938,note_on,18,0,0,,,,,,,,0,,,98,73
119942,note_on,4,0,0,,,,,,,,0,,,100,0
119960,set_tempo,18,1,0,,,,,,615385,,,,,,
119996,note_on,36,0,0,,,,,,,,0,,,99,71
119998,note_on,2,0,0,,,,,,,,0,,,98,0
120020,set_tempo,22,1,0,,,,,,618557,,,,,,
120056,note_on,36,0,0,,,,,,,,0,,,99,0
120060,set_tempo,4,1,0,,,,,,621762,,,,,,
120060,note_on,0,0,0,,,,,,,,0,,,98,70
120117,note_on,57,0,0,,,,,,,,0,,,100,67
120120,set_tempo,3,1,0,,,,,,625000,,,,,,
120120,note_on,0,0,0,,,,,,,,0,,,98,0
120160,set_tempo,40,1,0,,,,,,628272,,,,,,
120177,note_on,17,0,0,,,,,,,,0,,,100,0
120178,note_on,1,0,0,,,,,,,,0,,,98,65
120200,set_tempo,22,1,0,,,,,,631579,,,,,,
120238,note_on,38,0,0,,,,,,,,0,,,98,0
120240,set_tempo,2,1,0,,,,,,628272,,,,,,
120240,control_change,0,0,0,,,,,,,,0,64,0,,
120245,note_on,5,0,0,,,,,,,,0,,,99,61
120260,set_tempo,15,1,0,,,,,,625000,,,,,,
120280,set_tempo,20,1,0,,,,,,621762,,,,,,
120300,set_tempo,20,1,0,,,,,,618557,,,,,,
120301,note_on,1,0,0,,,,,,,,0,,,100,61
120305,note_on,4,0,0,,,,,,,,0,,,99,0
120318,control_change,13,0,0,,,,,,,,0,64,127,,
120320,set_tempo,2,1,0,,,,,,615385,,,,,,
120340,set_tempo,20,1,0,,,,,,612245,,,,,,
120360,set_tempo,20,1,0,,,,,,609137,,,,,,
120361,note_on,1,0,0,,,,,,,,0,,,100,0
120362,note_on,1,0,0,,,,,,,,0,,,99,61
120380,set_tempo,18,1,0,,,,,,606061,,,,,,
120400,set_tempo,20,1,0,,,,,,603015,,,,,,
120416,note_on,16,0,0,,,,,,,,0,,,100,61
120420,set_tempo,4,1,0,,,,,,600000,,,,,,
120422,note_on,2,0,0,,,,,,,,0,,,99,0
120440,set_tempo,18,1,0,,,,,,597015,,,,,,
120460,set_tempo,20,1,0,,,,,,594059,,,,,,
120476,note_on,16,0,0,,,,,,,,0,,,100,0
120480,set_tempo,4,1,0,,,,,,588235,,,,,,
120480,note_on,0,0,0,,,,,,,,0,,,99,61
120500,set_tempo,20,1,0,,,,,,585366,,,,,,
120520,set_tempo,20,1,0,,,,,,582524,,,,,,
120539,note_on,19,0,0,,,,,,,,0,,,100,62
120540,set_tempo,1,1,0,,,,,,579710,,,,,,
120540,note_on,0,0,0,,,,,,,,0,,,99,0
120560,set_tempo,20,1,0,,,,,,576923,,,,,,
120580,set_tempo,20,1,0,,,,,,574163,,,,,,
120599,note_on,19,0,0,,,,,,,,0,,,100,0
120600,set_tempo,1,1,0,,,,,,571429,,,,,,
120600,note_on,0,0,0,,,,,,,,0,,,99,65
120620,set_tempo,20,1,0,,,,,,568720,,,,,,
120640,set_tempo,20,1,0,,,,,,566038,,,,,,
120660,set_tempo,20,1,0,,,,,,563380,,,,,,
120660,note_on,0,0,0,,,,,,,,0,,,99,0
120663,note_on,3,0,0,,,,,,,,0,,,100,67
120680,set_tempo,17,1,0,,,,,,560748,,,,,,
120700,set_tempo,20,1,0,,,,,,558140,,,,,,
120720,set_tempo,20,1,0,,,,,,552995,,,,,,
120720,note_on,0,0,0,,,,,,,,0,,,99,71
120723,note_on,3,0,0,,,,,,,,0,,,100,0
120779,note_on,56,0,0,,,,,,,,0,,,100,72
120780,note_on,1,0,0,,,,,,,,0,,,99,0
120800,set_tempo,20,1,0,,,,,,550459,,,,,,
120839,note_on,39,0,0,,,,,,,,0,,,100,0
120842,note_on,3,0,0,,,,,,,,0,,,99,75
120880,set_tempo,38,1,0,,,,,,547945,,,,,,
120900,note_on,20,0,0,,,,,,,,0,,,100,79
120902,note_on,2,0,0,,,,,,,,0,,,99,0
120940,set_tempo,38,1,0,,,,,,545455,,,,,,
120960,set_tempo,20,1,0,,,,,,545455,,,,,,
120960,note_on,0,0,0,,,,,,,,0,,,100,0
120961,note_on,1,0,0,,,,,,,,0,,,99,81
121019,note_on,58,0,0,,,,,,,,0,,,100,82
121020,set_tempo,1,1,0,,,,,,542986,,,,,,
121021,note_on,1,0,0,,,,,,,,0,,,99,0
121060,set_tempo,39,1,0,,,,,,540541,,,,,,
121075,note_on,15,0,0,,,,,,,,0,,,99,84
121079,note_on,4,0,0,,,,,,,,0,,,100,0
121120,set_tempo,41,1,0,,,,,,538117,,,,,,
121135,note_on,15,0,0,,,,,,,,0,,,99,0
121142,note_on,7,0,0,,,,,,,,0,,,100,89
121160,set_tempo,18,1,0,,,,,,535714,,,,,,
121196,note_on,36,0,0,,,,,,,,0,,,99,90
121200,set_tempo,4,1,0,,,,,,533333,,,,,,
121202,note_on,2,0,0,,,,,,,,0,,,100,0
121256,note_on,54,0,0,,,,,,,,0,,,99,0
121260,set_tempo,4,1,0,,,,,,530973,,,,,,
121261,note_on,1,0,0,,,,,,,,0,,,100,90
121300,set_tempo,39,1,0,,,,,,528634,,,,,,
121321,note_on,21,0,0,,,,,,,,0,,,100,0
121324,note_on,3,0,0,,,,,,,,0,,,99,93
121360,set_tempo,36,1,0,,,,,,526316,,,,,,
121380,note_on,20,0,0,,,,,,,,0,,,100,92
121384,note_on,4,0,0,,,,,,,,0,,,99,0
121400,set_tempo,16,1,0,,,,,,524017,,,,,,
121440,set_tempo,40,1,0,,,,,,521739,,,,,,
121440,note_on,0,0,0,,,,,,,,0,,,100,0
121443,note_on,3,0,0,,,,,,,,0,,,99,96
121500,set_tempo,57,1,0,,,,,,519481,,,,,,
121500,note_on,0,0,0,,,,,,,,0,,,100,93
121503,note_on,3,0,0,,,,,,,,0,,,99,0
121540,set_tempo,37,1,0,,,,,,517241,,,,,,
121559,note_on,19,0,0,,,,,,,,0,,,99,99
121560,note_on,1,0,0,,,,,,,,0,,,100,0
121600,set_tempo,40,1,0,,,,,,515021,,,,,,
121619,note_on,19,0,0,,,,,,,,0,,,99,0
121623,note_on,4,0,0,,,,,,,,0,,,100,94
121640,set_tempo,17,1,0,,,,,,512821,,,,,,
121681,note_on,41,0,0,,,,,,,,0,,,99,99
121683,note_on,2,0,0,,,,,,,,0,,,100,0
121738,note_on,55,0,0,,,,,,,,0,,,100,92
121741,note_on,3,0,0,,,,,,,,0,,,99,0
121798,note_on,57,0,0,,,,,,,,0,,,100,0
121805,note_on,7,0,0,,,,,,,,0,,,99,99
121861,note_on,56,0,0,,,,,,,,0,,,100,92
121865,note_on,4,0,0,,,,,,,,0,,,99,0
121916,note_on,51,0,0,,,,,,,,0,,,99,99
121921,note_on,5,0,0,,,,,,,,0,,,100,0
121976,note_on,55,0,0,,,,,,,,0,,,99,0
121979,note_on,3,0,0,,,,,,,,0,,,100,99
122036,note_on,57,0,0,,,,,,,,0,,,99,99
122039,note_on,3,0,0,,,,,,,,0,,,100,0
122096,note_on,57,0,0,,,,,,,,0,,,99,0
122103,note_on,7,0,0,,,,,,,,0,,,100,94
122140,set_tempo,37,1,0,,,,,,512821,,,,,,
122163,note_on,23,0,0,,,,,,,,0,,,100,0
122165,note_on,2,0,0,,,,,,,,0,,,99,99
122200,set_tempo,35,1,0,,,,,,515021,,,,,,
122221,note_on,21,0,0,,,,,,,,0,,,100,93
122225,note_on,4,0,0,,,,,,,,0,,,99,0
122240,set_tempo,15,1,0,,,,,,517241,,,,,,
122275,note_on,35,0,0,,,,,,,,0,,,99,99
122280,set_tempo,5,1,0,,,,,,519481,,,,,,
122281,note_on,1,0,0,,,,,,,,0,,,100,0
122320,set_tempo,39,1,0,,,,,,521739,,,,,,
122335,note_on,15,0,0,,,,,,,,0,,,99,0
122338,note_on,3,0,0,,,,,,,,0,,,100,93
122360,set_tempo,22,1,0,,,,,,524017,,,,,,
122395,note_on,35,0,0,,,,,,,,0,,,99,99
122398,note_on,3,0,0,,,,,,,,0,,,100,0
122400,set_tempo,2,1,0,,,,,,526316,,,,,,
122420,set_tempo,20,1,0,,,,,,528634,,,,,,
122440,set_tempo,20,1,0,,,,,,533333,,,,,,
122455,note_on,15,0,0,,,,,,,,0,,,99,0
122460,set_tempo,5,1,0,,,,,,538117,,,,,,
122462,note_on,2,0,0,,,,,,,,0,,,100,92
122480,set_tempo,18,1,0,,,,,,540541,,,,,,
122500,set_tempo,20,1,0,,,,,,545455,,,,,,
122516,note_on,16,0,0,,,,,,,,0,,,99,95
122520,set_tempo,4,1,0,,,,,,550459,,,,,,
122522,note_on,2,0,0,,,,,,,,0,,,100,0
122540,set_tempo,18,1,0,,,,,,552995,,,,,,
122560,set_tempo,20,1,0,,,,,,558140,,,,,,
122576,note_on,16,0,0,,,,,,,,0,,,99,0
122580,set_tempo,4,1,0,,,,,,563380,,,,,,
122584,note_on,4,0,0,,,,,,,,0,,,100,92
122600,set_tempo,16,1,0,,,,,,566038,,,,,,
122620,set_tempo,20,1,0,,,,,,571429,,,,,,
122640,set_tempo,20,1,0,,,,,,576923,,,,,,
122644,note_on,4,0,0,,,,,,,,0,,,100,0
122644,note_on,0,0,0,,,,,,,,0,,,99,90
122660,set_tempo,16,1,0,,,,,,594059,,,,,,
122700,set_tempo,40,1,0,,,,,,591133,,,,,,
122701,note_on,1,0,0,,,,,,,,0,,,100,86
122704,note_on,3,0,0,,,,,,,,0,,,99,0
122720,set_tempo,16,1,0,,,,,,588235,,,,,,
122740,set_tempo,20,1,0,,,,,,585366,,,,,,
122760,set_tempo,20,1,0,,,,,,582524,,,,,,
122761,note_on,1,0,0,,,,,,,,0,,,100,0
122762,note_on,1,0,0,,,,,,,,0,,,99,82
122780,set_tempo,18,1,0,,,,,,579710,,,,,,
122800,set_tempo,20,1,0,,,,,,576923,,,,,,
122820,set_tempo,20,1,0,,,,,,574163,,,,,,
122822,note_on,2,0,0,,,,,,,,0,,,99,0
122824,note_on,2,0,0,,,,,,,,0,,,100,79
122840,set_tempo,16,1,0,,,,,,571429,,,,,,
122860,set_tempo,20,1,0,,,,,,568720,,,,,,
122875,note_on,15,0,0,,,,,,,,0,,,99,75
122880,set_tempo,5,1,0,,,,,,566038,,,,,,
122884,note_on,4,0,0,,,,,,,,0,,,100,0
122900,set_tempo,16,1,0,,,,,,563380,,,,,,
122920,set_tempo,20,1,0,,,,,,560748,,,,,,
122935,note_on,15,0,0,,,,,,,,0,,,99,0
122936,note_on,1,0,0,,,,,,,,0,,,100,72
122940,set_tempo,4,1,0,,,,,,558140,,,,,,
122960,set_tempo,20,1,0,,,,,,555556,,,,,,
122980,set_tempo,20,1,0,,,,,,552995,,,,,,
122996,note_on,16,0,0,,,,,,,,0,,,100,0
123000,set_tempo,4,1,0,,,,,,550459,,,,,,
123002,note_on,2,0,0,,,,,,,,0,,,99,69
123061,note_on,59,0,0,,,,,,,,0,,,100,65
123062,note_on,1,0,0,,,,,,,,0,,,99,0
123117,note_on,55,0,0,,,,,,,,0,,,99,59
123121,note_on,4,0,0,,,,,,,,0,,,100,0
123175,note_on,54,0,0,,,,,,,,0,,,100,54
123177,note_on,2,0,0,,,,,,,,0,,,99,0
123235,note_on,58,0,0,,,,,,,,0,,,100,0
123236,note_on,1,0,0,,,,,,,,0,,,99,57
123296,note_on,60,0,0,,,,,,,,0,,,99,0
123300,set_tempo,4,1,0,,,,,,550459,,,,,,
123301,note_on,1,0,0,,,,,,,,0,,,100,56
123320,set_tempo,19,1,0,,,,,,547945,,,,,,
123340,set_tempo,20,1,0,,,,,,545455,,,,,,
123358,note_on,18,0,0,,,,,,,,0,,,99,56
123360,set_tempo,2,1,0,,,,,,542986,,,,,,
123361,note_on,1,0,0,,,,,,,,0,,,100,0
123418,note_on,57,0,0,,,,,,,,0,,,99,0
123418,note_on,0,0,0,,,,,,,,0,,,100,53
123478,note_on,60,0,0,,,,,,,,0,,,100,0
123479,note_on,1,0,0,,,,,,,,0,,,99,55
123539,note_on,60,0,0,,,,,,,,0,,,99,0
123542,note_on,3,0,0,,,,,,,,0,,,100,52
123571,set_tempo,29,1,0,,,,,,533760,,,,,,
123580,set_tempo,9,1,0,,,,,,548998,,,,,,
123600,set_tempo,20,1,0,,,,,,744417,,,,,,
123600,note_on,0,0,0,,,,,,,,0,,,75,48
123602,note_on,2,0,0,,,,,,,,0,,,100,0
123603,note_on,1,0,0,,,,,,,,0,,,99,47
123663,note_on,60,0,0,,,,,,,,0,,,99,0
123663,note_on,0,0,0,,,,,,,,0,,,100,44
123720,note_on,57,0,0,,,,,,,,0,,,99,46
123723,note_on,3,0,0,,,,,,,,0,,,100,0
123780,note_on,57,0,0,,,,,,,,0,,,99,0
123780,note_on,0,0,0,,,,,,,,0,,,75,0
123781,note_on,1,0,0,,,,,,,,0,,,100,44
123840,set_tempo,59,1,0,,,,,,673401,,,,,,
123840,note_on,0,0,0,,,,,,,,0,,,87,51
123841,note_on,1,0,0,,,,,,,,0,,,100,0
123843,note_on,2,0,0,,,,,,,,0,,,99,46
123858,control_change,15,0,0,,,,,,,,0,64,0,,
123903,note_on,45,0,0,,,,,,,,0,,,99,0
123904,note_on,1,0,0,,,,,,,,0,,,100,45
123956,note_on,52,0,0,,,,,,,,0,,,99,46
123964,note_on,8,0,0,,,,,,,,0,,,100,0
124016,note_on,52,0,0,,,,,,,,0,,,99,0
124021,note_on,5,0,0,,,,,,,,0,,,100,43
124077,note_on,56,0,0,,,,,,,,0,,,99,46
124080,set_tempo,3,1,0,,,,,,651466,,,,,,
124080,note_on,0,0,0,,,,,,,,0,,,87,0
124080,note_on,0,0,0,,,,,,,,0,,,87,57
124081,note_on,1,0,0,,,,,,,,0,,,100,0
124136,note_on,55,0,0,,,,,,,,0,,,100,44
124137,note_on,1,0,0,,,,,,,,0,,,99,0
124196,note_on,59,0,0,,,,,,,,0,,,100,0
124204,note_on,8,0,0,,,,,,,,0,,,99,46
124255,note_on,51,0,0,,,,,,,,0,,,100,45
124264,note_on,9,0,0,,,,,,,,0,,,99,0
124315,note_on,51,0,0,,,,,,,,0,,,100,0
124319,note_on,4,0,0,,,,,,,,0,,,87,46
124320,set_tempo,1,1,0,,,,,,637620,,,,,,
124320,note_on,0,0,0,,,,,,,,0,,,87,0
124320,note_on,0,0,0,,,,,,,,0,,,85,48
124321,note_on,1,0,0,,,,,,,,0,,,99,46
124378,note_on,57,0,0,,,,,,,,0,,,100,46
124381,note_on,3,0,0,,,,,,,,0,,,99,0
124438,note_on,57,0,0,,,,,,,,0,,,100,0
124439,note_on,1,0,0,,,,,,,,0,,,87,0
124441,note_on,2,0,0,,,,,,,,0,,,99,46
124497,note_on,56,0,0,,,,,,,,0,,,100,44
124500,note_on,3,0,0,,,,,,,,0,,,85,0
124501,note_on,1,0,0,,,,,,,,0,,,99,0
124556,note_on,55,0,0,,,,,,,,0,,,99,46
124557,note_on,1,0,0,,,,,,,,0,,,100,0
124558,note_on,1,0,0,,,,,,,,0,,,87,29
124560,set_tempo,2,1,0,,,,,,665927,,,,,,
124560,note_on,0,0,0,,,,,,,,0,,,68,30
124560,note_on,0,0,0,,,,,,,,0,,,83,50
124616,note_on,56,0,0,,,,,,,,0,,,99,0
124623,note_on,7,0,0,,,,,,,,0,,,100,44
124676,note_on,53,0,0,,,,,,,,0,,,99,46
124678,note_on,2,0,0,,,,,,,,0,,,87,0
124683,note_on,5,0,0,,,,,,,,0,,,100,0
124736,note_on,53,0,0,,,,,,,,0,,,99,0
124738,note_on,2,0,0,,,,,,,,0,,,100,44
124740,note_on,2,0,0,,,,,,,,0,,,83,0
124798,note_on,58,0,0,,,,,,,,0,,,100,0
124800,set_tempo,2,1,0,,,,,,630915,,,,,,
124800,note_on,0,0,0,,,,,,,,0,,,68,0
124800,note_on,0,0,0,,,,,,,,0,,,83,35
124803,note_on,3,0,0,,,,,,,,0,,,87,29
124804,note_on,1,0,0,,,,,,,,0,,,99,46
124863,note_on,59,0,0,,,,,,,,0,,,100,44
124864,note_on,1,0,0,,,,,,,,0,,,99,0
124923,note_on,59,0,0,,,,,,,,0,,,100,0
124923,note_on,0,0,0,,,,,,,,0,,,87,0
124923,note_on,0,0,0,,,,,,,,0,,,99,46
124980,note_on,57,0,0,,,,,,,,0,,,83,0
124981,note_on,1,0,0,,,,,,,,0,,,100,46
124983,note_on,2,0,0,,,,,,,,0,,,99,0
125038,note_on,55,0,0,,,,,,,,0,,,87,29
125040,set_tempo,2,1,0,,,,,,641026,,,,,,
125040,note_on,0,0,0,,,,,,,,0,,,82,43
125041,note_on,1,0,0,,,,,,,,0,,,100,0
125044,note_on,3,0,0,,,,,,,,0,,,99,46
125097,note_on,53,0,0,,,,,,,,0,,,100,44
125104,note_on,7,0,0,,,,,,,,0,,,99,0
125157,note_on,53,0,0,,,,,,,,0,,,100,0
125158,note_on,1,0,0,,,,,,,,0,,,87,0
125164,note_on,6,0,0,,,,,,,,0,,,99,46
125217,note_on,53,0,0,,,,,,,,0,,,100,45
125220,note_on,3,0,0,,,,,,,,0,,,82,0
125224,note_on,4,0,0,,,,,,,,0,,,99,0
125277,note_on,53,0,0,,,,,,,,0,,,100,0
125277,note_on,0,0,0,,,,,,,,0,,,87,29
125280,set_tempo,3,1,0,,,,,,644468,,,,,,
125280,note_on,0,0,0,,,,,,,,0,,,99,46
125280,note_on,0,0,0,,,,,,,,0,,,80,40
125280,note_on,0,0,0,,,,,,,,0,,,71,40
125340,note_on,60,0,0,,,,,,,,0,,,99,0
125345,note_on,5,0,0,,,,,,,,0,,,100,44
125395,note_on,50,0,0,,,,,,,,0,,,99,46
125397,note_on,2,0,0,,,,,,,,0,,,87,0
125405,note_on,8,0,0,,,,,,,,0,,,100,0
125455,note_on,50,0,0,,,,,,,,0,,,99,0
125455,note_on,0,0,0,,,,,,,,0,,,100,45
125460,note_on,5,0,0,,,,,,,,0,,,80,0
125515,note_on,55,0,0,,,,,,,,0,,,100,0
125519,note_on,4,0,0,,,,,,,,0,,,99,46
125520,set_tempo,1,1,0,,,,,,630915,,,,,,
125520,note_on,0,0,0,,,,,,,,0,,,71,0
125520,note_on,0,0,0,,,,,,,,0,,,87,29
125520,note_on,0,0,0,,,,,,,,0,,,79,26
125576,note_on,56,0,0,,,,,,,,0,,,100,44
125579,note_on,3,0,0,,,,,,,,0,,,99,0
125636,note_on,57,0,0,,,,,,,,0,,,100,0
125637,note_on,1,0,0,,,,,,,,0,,,99,46
125640,note_on,3,0,0,,,,,,,,0,,,87,0
125697,note_on,57,0,0,,,,,,,,0,,,99,0
125700,note_on,3,0,0,,,,,,,,0,,,79,0
125704,note_on,4,0,0,,,,,,,,0,,,100,44
125756,note_on,52,0,0,,,,,,,,0,,,99,46
125757,note_on,1,0,0,,,,,,,,0,,,87,29
125760,set_tempo,3,1,0,,,,,,647948,,,,,,
125760,note_on,0,0,0,,,,,,,,0,,,80,41
125764,note_on,4,0,0,,,,,,,,0,,,100,0
125816,note_on,52,0,0,,,,,,,,0,,,99,0
125816,note_on,0,0,0,,,,,,,,0,,,100,44
125876,note_on,60,0,0,,,,,,,,0,,,100,0
125877,note_on,1,0,0,,,,,,,,0,,,87,0
125885,note_on,8,0,0,,,,,,,,0,,,99,47
125935,note_on,50,0,0,,,,,,,,0,,,100,44
125940,note_on,5,0,0,,,,,,,,0,,,80,0
125945,note_on,5,0,0,,,,,,,,0,,,99,0
125995,note_on,50,0,0,,,,,,,,0,,,100,0
125995,note_on,0,0,0,,,,,,,,0,,,99,47
125995,note_on,0,0,0,,,,,,,,0,,,87,30
126000,set_tempo,5,1,0,,,,,,655022,,,,,,
126000,note_on,0,0,0,,,,,,,,0,,,79,40
126000,note_on,0,0,0,,,,,,,,0,,,82,50
126046,control_change,46,0,0,,,,,,,,0,64,127,,
126055,note_on,9,0,0,,,,,,,,0,,,99,0
126058,note_on,3,0,0,,,,,,,,0,,,100,43
126115,note_on,57,0,0,,,,,,,,0,,,87,0
126118,note_on,3,0,0,,,,,,,,0,,,100,0
126125,note_on,7,0,0,,,,,,,,0,,,99,47
126179,note_on,54,0,0,,,,,,,,0,,,100,44
126185,note_on,6,0,0,,,,,,,,0,,,99,0
126239,note_on,54,0,0,,,,,,,,0,,,100,0
126239,note_on,0,0,0,,,,,,,,0,,,87,30
126240,set_tempo,1,1,0,,,,,,665927,,,,,,
126240,note_on,0,0,0,,,,,,,,0,,,79,0
126240,note_on,0,0,0,,,,,,,,0,,,82,0
126240,note_on,0,0,0,,,,,,,,0,,,75,28
126245,note_on,5,0,0,,,,,,,,0,,,99,47
126304,note_on,59,0,0,,,,,,,,0,,,100,45
126305,note_on,1,0,0,,,,,,,,0,,,99,0
126359,note_on,54,0,0,,,,,,,,0,,,87,0
126360,note_on,1,0,0,,,,,,,,0,,,99,47
126364,note_on,4,0,0,,,,,,,,0,,,100,0
126420,note_on,56,0,0,,,,,,,,0,,,99,0
126420,note_on,0,0,0,,,,,,,,0,,,75,0
126424,note_on,4,0,0,,,,,,,,0,,,100,43
126479,note_on,55,0,0,,,,,,,,0,,,99,47
126480,set_tempo,1,1,0,,,,,,644468,,,,,,
126480,note_on,0,0,0,,,,,,,,0,,,75,37
126482,note_on,2,0,0,,,,,,,,0,,,87,29
126484,note_on,2,0,0,,,,,,,,0,,,100,0
126497,control_change,13,0,0,,,,,,,,0,64,0,,
126537,note_on,40,0,0,,,,,,,,0,,,100,45
126539,note_on,2,0,0,,,,,,,,0,,,99,0
126595,note_on,56,0,0,,,,,,,,0,,,99,47
126597,note_on,2,0,0,,,,,,,,0,,,100,0
126602,note_on,5,0,0,,,,,,,,0,,,87,0
126655,note_on,53,0,0,,,,,,,,0,,,99,0
126660,note_on,5,0,0,,,,,,,,0,,,75,0
126660,note_on,0,0,0,,,,,,,,0,,,100,45
126719,note_on,59,0,0,,,,,,,,0,,,99,47
126720,set_tempo,1,1,0,,,,,,681044,,,,,,
126720,note_on,0,0,0,,,,,,,,0,,,100,0
126720,note_on,0,0,0,,,,,,,,0,,,76,42
126720,note_on,0,0,0,,,,,,,,0,,,70,42
126720,note_on,0,0,0,,,,,,,,0,,,67,42
126725,note_on,5,0,0,,,,,,,,0,,,87,29
126777,note_on,52,0,0,,,,,,,,0,,,100,47
126779,note_on,2,0,0,,,,,,,,0,,,99,0
126837,note_on,58,0,0,,,,,,,,0,,,100,0
126841,note_on,4,0,0,,,,,,,,0,,,99,47
126845,note_on,4,0,0,,,,,,,,0,,,87,0
126897,note_on,52,0,0,,,,,,,,0,,,100,45
126900,note_on,3,0,0,,,,,,,,0,,,76,0
126901,note_on,1,0,0,,,,,,,,0,,,99,0
126957,note_on,56,0,0,,,,,,,,0,,,100,0
126960,set_tempo,3,1,0,,,,,,641026,,,,,,
126960,note_on,0,0,0,,,,,,,,0,,,70,0
126960,note_on,0,0,0,,,,,,,,0,,,67,0
126960,note_on,0,0,0,,,,,,,,0,,,75,35
126962,note_on,2,0,0,,,,,,,,0,,,87,29
126965,note_on,3,0,0,,,,,,,,0,,,99,46
127019,note_on,54,0,0,,,,,,,,0,,,100,44
127025,note_on,6,0,0,,,,,,,,0,,,99,0
127079,note_on,54,0,0,,,,,,,,0,,,100,0
127082,note_on,3,0,0,,,,,,,,0,,,87,0
127084,note_on,2,0,0,,,,,,,,0,,,99,46
127135,note_on,51,0,0,,,,,,,,0,,,100,44
127140,note_on,5,0,0,,,,,,,,0,,,75,0
127144,note_on,4,0,0,,,,,,,,0,,,99,0
127195,note_on,51,0,0,,,,,,,,0,,,100,0
127200,set_tempo,5,1,0,,,,,,617920,,,,,,
127200,note_on,0,0,0,,,,,,,,0,,,73,29
127201,note_on,1,0,0,,,,,,,,0,,,99,46
127205,note_on,4,0,0,,,,,,,,0,,,87,29
127261,note_on,56,0,0,,,,,,,,0,,,99,0
127263,note_on,2,0,0,,,,,,,,0,,,100,43
127321,note_on,58,0,0,,,,,,,,0,,,99,46
127323,note_on,2,0,0,,,,,,,,0,,,100,0
127325,note_on,2,0,0,,,,,,,,0,,,87,0
127376,note_on,51,0,0,,,,,,,,0,,,100,45
127380,note_on,4,0,0,,,,,,,,0,,,73,0
127381,note_on,1,0,0,,,,,,,,0,,,99,0
127436,note_on,55,0,0,,,,,,,,0,,,100,0
127437,note_on,1,0,0,,,,,,,,0,,,87,29
127439,note_on,2,0,0,,,,,,,,0,,,99,46
127440,set_tempo,1,1,0,,,,,,634249,,,,,,
127440,note_on,0,0,0,,,,,,,,0,,,68,29
127440,note_on,0,0,0,,,,,,,,0,,,71,44
127486,control_change,46,0,0,,,,,,,,0,64,127,,
127495,note_on,9,0,0,,,,,,,,0,,,100,44
127499,note_on,4,0,0,,,,,,,,0,,,99,0
127555,note_on,56,0,0,,,,,,,,0,,,100,0
127557,note_on,2,0,0,,,,,,,,0,,,87,0
127559,note_on,2,0,0,,,,,,,,0,,,99,46
127615,note_on,56,0,0,,,,,,,,0,,,100,43
127619,note_on,4,0,0,,,,,,,,0,,,99,0
127620,note_on,1,0,0,,,,,,,,0,,,71,0
127620,note_on,0,0,0,,,,,,,,0,,,68,0
127675,note_on,55,0,0,,,,,,,,0,,,100,0
127680,set_tempo,5,1,0,,,,,,614754,,,,,,
127680,note_on,0,0,0,,,,,,,,0,,,71,35
127680,note_on,0,0,0,,,,,,,,0,,,68,35
127682,note_on,2,0,0,,,,,,,,0,,,87,29
127684,note_on,2,0,0,,,,,,,,0,,,99,45
127735,note_on,51,0,0,,,,,,,,0,,,100,43
127744,note_on,9,0,0,,,,,,,,0,,,99,0
127795,note_on,51,0,0,,,,,,,,0,,,100,0
127802,note_on,7,0,0,,,,,,,,0,,,87,0
127803,note_on,1,0,0,,,,,,,,0,,,99,45
127860,note_on,57,0,0,,,,,,,,0,,,68,0
127860,note_on,0,0,0,,,,,,,,0,,,71,0
127862,note_on,2,0,0,,,,,,,,0,,,100,43
127863,note_on,1,0,0,,,,,,,,0,,,99,0
127920,set_tempo,57,1,0,,,,,,641026,,,,,,
127920,note_on,0,0,0,,,,,,,,0,,,66,27
127920,note_on,0,0,0,,,,,,,,0,,,70,41
127922,note_on,2,0,0,,,,,,,,0,,,100,0
127922,note_on,0,0,0,,,,,,,,0,,,87,27
127923,note_on,1,0,0,,,,,,,,0,,,99,45
127934,control_change,11,0,0,,,,,,,,0,64,0,,
127980,note_on,46,0,0,,,,,,,,0,,,100,42
127983,note_on,3,0,0,,,,,,,,0,,,99,0
128040,note_on,57,0,0,,,,,,,,0,,,100,0
128042,note_on,2,0,0,,,,,,,,0,,,87,0
128042,note_on,0,0,0,,,,,,,,0,,,99,45
128096,note_on,54,0,0,,,,,,,,0,,,100,41
128100,note_on,4,0,0,,,,,,,,0,,,70,0
128100,note_on,0,0,0,,,,,,,,0,,,66,0
128102,note_on,2,0,0,,,,,,,,0,,,99,0
128156,note_on,54,0,0,,,,,,,,0,,,100,0
128160,set_tempo,4,1,0,,,,,,651466,,,,,,
128160,note_on,0,0,0,,,,,,,,0,,,68,37
128160,note_on,0,0,0,,,,,,,,0,,,64,37
128162,note_on,2,0,0,,,,,,,,0,,,87,27
128163,note_on,1,0,0,,,,,,,,0,,,99,44
128223,note_on,60,0,0,,,,,,,,0,,,99,0
128223,note_on,0,0,0,,,,,,,,0,,,100,40
128275,note_on,52,0,0,,,,,,,,0,,,99,44
128282,note_on,7,0,0,,,,,,,,0,,,87,0
128283,note_on,1,0,0,,,,,,,,0,,,100,0
128335,note_on,52,0,0,,,,,,,,0,,,99,0
128340,note_on,5,0,0,,,,,,,,0,,,64,0
128340,note_on,0,0,0,,,,,,,,0,,,68,0
128344,note_on,4,0,0,,,,,,,,0,,,100,41
128400,set_tempo,56,1,0,,,,,,692841,,,,,,
128400,note_on,0,0,0,,,,,,,,0,,,67,28
128402,note_on,2,0,0,,,,,,,,0,,,87,27
128402,note_on,0,0,0,,,,,,,,0,,,99,44
128404,note_on,2,0,0,,,,,,,,0,,,100,0
128455,note_on,51,0,0,,,,,,,,0,,,100,40
128462,note_on,7,0,0,,,,,,,,0,,,99,0
128515,note_on,53,0,0,,,,,,,,0,,,100,0
128521,note_on,6,0,0,,,,,,,,0,,,99,43
128522,note_on,1,0,0,,,,,,,,0,,,87,0
128580,note_on,58,0,0,,,,,,,,0,,,67,0
128581,note_on,1,0,0,,,,,,,,0,,,99,0
128585,note_on,4,0,0,,,,,,,,0,,,100,39
128635,note_on,50,0,0,,,,,,,,0,,,87,27
128638,note_on,3,0,0,,,,,,,,0,,,99,43
128640,set_tempo,2,1,0,,,,,,722022,,,,,,
128640,note_on,0,0,0,,,,,,,,0,,,68,29
128645,note_on,5,0,0,,,,,,,,0,,,100,0
128696,note_on,51,0,0,,,,,,,,0,,,100,39
128698,note_on,2,0,0,,,,,,,,0,,,99,0
128755,note_on,57,0,0,,,,,,,,0,,,87,0
128756,note_on,1,0,0,,,,,,,,0,,,100,0
128765,note_on,9,0,0,,,,,,,,0,,,99,41
128820,note_on,55,0,0,,,,,,,,0,,,68,0
128821,note_on,1,0,0,,,,,,,,0,,,100,36
128825,note_on,4,0,0,,,,,,,,0,,,99,0
128878,note_on,53,0,0,,,,,,,,0,,,87,25
128880,set_tempo,2,1,0,,,,,,705053,,,,,,
128880,note_on,0,0,0,,,,,,,,0,,,67,26
128880,note_on,0,0,0,,,,,,,,0,,,70,38
128881,note_on,1,0,0,,,,,,,,0,,,100,0
128885,note_on,4,0,0,,,,,,,,0,,,99,44
128919,control_change,34,0,0,,,,,,,,0,64,127,,
128939,note_on,20,0,0,,,,,,,,0,,,100,40
128945,note_on,6,0,0,,,,,,,,0,,,99,0
128998,note_on,53,0,0,,,,,,,,0,,,87,0
128999,note_on,1,0,0,,,,,,,,0,,,100,0
129002,note_on,3,0,0,,,,,,,,0,,,99,45
129057,note_on,55,0,0,,,,,,,,0,,,100,40
129062,note_on,5,0,0,,,,,,,,0,,,99,0
129116,note_on,54,0,0,,,,,,,,0,,,87,25
129117,note_on,1,0,0,,,,,,,,0,,,100,0
129117,note_on,0,0,0,,,,,,,,0,,,99,45
129120,set_tempo,3,1,0,,,,,,662252,,,,,,
129120,note_on,0,0,0,,,,,,,,0,,,70,0
129120,note_on,0,0,0,,,,,,,,0,,,67,0
129120,note_on,0,0,0,,,,,,,,0,,,63,36
129177,note_on,57,0,0,,,,,,,,0,,,99,0
129180,note_on,3,0,0,,,,,,,,0,,,100,42
129236,note_on,56,0,0,,,,,,,,0,,,87,0
129240,note_on,4,0,0,,,,,,,,0,,,100,0
129244,note_on,4,0,0,,,,,,,,0,,,99,45
129296,note_on,52,0,0,,,,,,,,0,,,100,41
129304,note_on,8,0,0,,,,,,,,0,,,99,0
129356,note_on,52,0,0,,,,,,,,0,,,100,0
129359,note_on,3,0,0,,,,,,,,0,,,99,46
129360,set_tempo,1,1,0,,,,,,624350,,,,,,
129360,note_on,0,0,0,,,,,,,,0,,,63,0
129364,note_on,4,0,0,,,,,,,,0,,,87,25
129374,control_change,10,0,0,,,,,,,,0,64,0,,
129415,note_on,41,0,0,,,,,,,,0,,,100,43
129419,note_on,4,0,0,,,,,,,,0,,,99,0
129475,note_on,56,0,0,,,,,,,,0,,,100,0
129480,set_tempo,5,1,0,,,,,,621118,,,,,,
129483,note_on,3,0,0,,,,,,,,0,,,99,46
129484,note_on,1,0,0,,,,,,,,0,,,87,0
129536,note_on,52,0,0,,,,,,,,0,,,100,44
129540,note_on,4,0,0,,,,,,,,0,,,63,40
129543,note_on,3,0,0,,,,,,,,0,,,99,0
129596,note_on,53,0,0,,,,,,,,0,,,100,0
129600,set_tempo,4,1,0,,,,,,634249,,,,,,
129600,note_on,0,0,0,,,,,,,,0,,,63,0
129600,note_on,0,0,0,,,,,,,,0,,,75,50
129603,note_on,3,0,0,,,,,,,,0,,,99,46
129605,note_on,2,0,0,,,,,,,,0,,,87,29
129663,note_on,58,0,0,,,,,,,,0,,,99,0
129664,note_on,1,0,0,,,,,,,,0,,,100,43
129717,note_on,53,0,0,,,,,,,,0,,,99,46
129724,note_on,7,0,0,,,,,,,,0,,,100,0
129725,note_on,1,0,0,,,,,,,,0,,,87,0
129777,note_on,52,0,0,,,,,,,,0,,,99,0
129780,note_on,3,0,0,,,,,,,,0,,,75,0
129780,note_on,0,0,0,,,,,,,,0,,,100,43
129835,note_on,55,0,0,,,,,,,,0,,,87,29
129840,set_tempo,5,1,0,,,,,,614754,,,,,,
129840,note_on,0,0,0,,,,,,,,0,,,100,0
129840,note_on,0,0,0,,,,,,,,0,,,75,46
129843,note_on,3,0,0,,,,,,,,0,,,99,46
129896,note_on,53,0,0,,,,,,,,0,,,100,43
129903,note_on,7,0,0,,,,,,,,0,,,99,0
129955,note_on,52,0,0,,,,,,,,0,,,87,0
129956,note_on,1,0,0,,,,,,,,0,,,100,0
129959,note_on,3,0,0,,,,,,,,0,,,99,46
130018,note_on,59,0,0,,,,,,,,0,,,100,43
130019,note_on,1,0,0,,,,,,,,0,,,99,0
130020,note_on,1,0,0,,,,,,,,0,,,75,0
130075,note_on,55,0,0,,,,,,,,0,,,99,46
130078,note_on,3,0,0,,,,,,,,0,,,100,0
130080,note_on,2,0,0,,,,,,,,0,,,73,45
130085,note_on,5,0,0,,,,,,,,0,,,87,29
130135,note_on,50,0,0,,,,,,,,0,,,99,0
130137,note_on,2,0,0,,,,,,,,0,,,100,43
130197,note_on,60,0,0,,,,,,,,0,,,100,0
130197,note_on,0,0,0,,,,,,,,0,,,99,46
130205,note_on,8,0,0,,,,,,,,0,,,87,0
130257,note_on,52,0,0,,,,,,,,0,,,99,0
130257,note_on,0,0,0,,,,,,,,0,,,100,43
130260,note_on,3,0,0,,,,,,,,0,,,73,0
130317,note_on,57,0,0,,,,,,,,0,,,100,0
130320,set_tempo,3,1,0,,,,,,602410,,,,,,
130320,note_on,0,0,0,,,,,,,,0,,,99,44
130320,note_on,0,0,0,,,,,,,,0,,,56,42
130320,note_on,0,0,0,,,,,,,,0,,,71,54
130380,note_on,60,0,0,,,,,,,,0,,,99,0
130380,note_on,0,0,0,,,,,,,,0,,,100,49
130440,note_on,60,0,0,,,,,,,,0,,,100,0
130440,note_on,0,0,0,,,,,,,,0,,,99,49
130500,note_on,60,0,0,,,,,,,,0,,,99,0
130500,note_on,0,0,0,,,,,,,,0,,,71,0
130500,note_on,0,0,0,,,,,,,,0,,,87,49
130554,note_on,54,0,0,,,,,,,,0,,,87,0
130560,set_tempo,6,1,0,,,,,,579151,,,,,,
130560,note_on,0,0,0,,,,,,,,0,,,56,0
130560,note_on,0,0,0,,,,,,,,0,,,87,40
130560,note_on,0,0,0,,,,,,,,0,,,71,50
130620,note_on,60,0,0,,,,,,,,0,,,87,0
130620,note_on,0,0,0,,,,,,,,0,,,88,40
130680,note_on,60,0,0,,,,,,,,0,,,88,0
130680,note_on,0,0,0,,,,,,,,0,,,87,40
130740,note_on,60,0,0,,,,,,,,0,,,87,0
130740,note_on,0,0,0,,,,,,,,0,,,71,0
130740,note_on,0,0,0,,,,,,,,0,,,75,40
130800,set_tempo,60,1,0,,,,,,608519,,,,,,
130800,note_on,0,0,0,,,,,,,,0,,,75,0
130800,note_on,0,0,0,,,,,,,,0,,,87,40
130800,note_on,0,0,0,,,,,,,,0,,,70,51
130880,note_on,80,0,0,,,,,,,,0,,,87,0
130880,note_on,0,0,0,,,,,,,,0,,,88,40
130960,note_on,80,0,0,,,,,,,,0,,,88,0
130960,note_on,0,0,0,,,,,,,,0,,,87,40
130980,note_on,20,0,0,,,,,,,,0,,,70,0
131040,set_tempo,60,1,0,,,,,,590551,,,,,,
131040,note_on,0,0,0,,,,,,,,0,,,87,0
131040,note_on,0,0,0,,,,,,,,0,,,99,47
131040,note_on,0,0,0,,,,,,,,0,,,59,37
131040,note_on,0,0,0,,,,,,,,0,,,68,54
131100,note_on,60,0,0,,,,,,,,0,,,99,0
131100,note_on,0,0,0,,,,,,,,0,,,100,47
131160,note_on,60,0,0,,,,,,,,0,,,100,0
131160,note_on,0,0,0,,,,,,,,0,,,99,47
131220,note_on,60,0,0,,,,,,,,0,,,99,0
131220,note_on,0,0,0,,,,,,,,0,,,68,0
131220,note_on,0,0,0,,,,,,,,0,,,87,47
131274,note_on,54,0,0,,,,,,,,0,,,87,0
131280,set_tempo,6,1,0,,,,,,570885,,,,,,
131280,note_on,0,0,0,,,,,,,,0,,,59,0
131280,note_on,0,0,0,,,,,,,,0,,,87,41
131280,note_on,0,0,0,,,,,,,,0,,,67,50
131340,note_on,60,0,0,,,,,,,,0,,,87,0
131340,note_on,0,0,0,,,,,,,,0,,,88,40
131400,note_on,60,0,0,,,,,,,,0,,,88,0
131400,note_on,0,0,0,,,,,,,,0,,,87,40
131460,note_on,60,0,0,,,,,,,,0,,,87,0
131460,note_on,0,0,0,,,,,,,,0,,,67,0
131460,note_on,0,0,0,,,,,,,,0,,,75,40
131520,set_tempo,60,1,0,,,,,,602410,,,,,,
131520,note_on,0,0,0,,,,,,,,0,,,75,0
131520,note_on,0,0,0,,,,,,,,0,,,87,40
131520,note_on,0,0,0,,,,,,,,0,,,68,51
131600,note_on,80,0,0,,,,,,,,0,,,87,0
131600,note_on,0,0,0,,,,,,,,0,,,88,40
131680,note_on,80,0,0,,,,,,,,0,,,88,0
131680,note_on,0,0,0,,,,,,,,0,,,87,40
131700,note_on,20,0,0,,,,,,,,0,,,68,0
131760,set_tempo,60,1,0,,,,,,590551,,,,,,
131760,note_on,0,0,0,,,,,,,,0,,,87,0
131760,note_on,0,0,0,,,,,,,,0,,,99,49
131760,note_on,0,0,0,,,,,,,,0,,,67,44
131760,note_on,0,0,0,,,,,,,,0,,,70,59
131820,note_on,60,0,0,,,,,,,,0,,,99,0
131820,note_on,0,0,0,,,,,,,,0,,,100,49
131880,note_on,60,0,0,,,,,,,,0,,,100,0
131880,note_on,0,0,0,,,,,,,,0,,,99,49
131940,note_on,60,0,0,,,,,,,,0,,,99,0
131940,note_on,0,0,0,,,,,,,,0,,,87,49
131994,note_on,54,0,0,,,,,,,,0,,,87,0
132000,set_tempo,6,1,0,,,,,,570885,,,,,,
132000,note_on,0,0,0,,,,,,,,0,,,70,0
132000,note_on,0,0,0,,,,,,,,0,,,67,0
132000,note_on,0,0,0,,,,,,,,0,,,87,40
132000,note_on,0,0,0,,,,,,,,0,,,63,54
132060,note_on,60,0,0,,,,,,,,0,,,87,0
132060,note_on,0,0,0,,,,,,,,0,,,88,40
132120,note_on,60,0,0,,,,,,,,0,,,88,0
132120,note_on,0,0,0,,,,,,,,0,,,87,40
132180,note_on,60,0,0,,,,,,,,0,,,87,0
132180,note_on,0,0,0,,,,,,,,0,,,63,0
132180,note_on,0,0,0,,,,,,,,0,,,75,40
132240,set_tempo,60,1,0,,,,,,597610,,,,,,
132240,note_on,0,0,0,,,,,,,,0,,,75,0
132240,note_on,0,0,0,,,,,,,,0,,,87,40
132240,note_on,0,0,0,,,,,,,,0,,,63,54
132320,note_on,80,0,0,,,,,,,,0,,,87,0
132320,note_on,0,0,0,,,,,,,,0,,,88,40
132400,note_on,80,0,0,,,,,,,,0,,,88,0
132400,note_on,0,0,0,,,,,,,,0,,,87,40
132420,note_on,20,0,0,,,,,,,,0,,,63,0
132480,set_tempo,60,1,0,,,,,,569260,,,,,,
132480,note_on,0,0,0,,,,,,,,0,,,87,0
132480,note_on,0,0,0,,,,,,,,0,,,99,47
132480,note_on,0,0,0,,,,,,,,0,,,68,45
132480,note_on,0,0,0,,,,,,,,0,,,59,45
132540,note_on,60,0,0,,,,,,,,0,,,99,0
132540,note_on,0,0,0,,,,,,,,0,,,100,47
132600,note_on,60,0,0,,,,,,,,0,,,100,0
132600,note_on,0,0,0,,,,,,,,0,,,99,47
132660,note_on,60,0,0,,,,,,,,0,,,99,0
132660,note_on,0,0,0,,,,,,,,0,,,59,0
132660,note_on,0,0,0,,,,,,,,0,,,68,0
132660,note_on,0,0,0,,,,,,,,0,,,87,47
132714,note_on,54,0,0,,,,,,,,0,,,87,0
132720,note_on,6,0,0,,,,,,,,0,,,87,41
132720,note_on,0,0,0,,,,,,,,0,,,66,43
132720,note_on,0,0,0,,,,,,,,0,,,60,44
132780,note_on,60,0,0,,,,,,,,0,,,87,0
132780,note_on,0,0,0,,,,,,,,0,,,88,41
132840,note_on,60,0,0,,,,,,,,0,,,88,0
132840,note_on,0,0,0,,,,,,,,0,,,87,41
132900,note_on,60,0,0,,,,,,,,0,,,87,0
132900,note_on,0,0,0,,,,,,,,0,,,60,0
132900,note_on,0,0,0,,,,,,,,0,,,66,0
132900,note_on,0,0,0,,,,,,,,0,,,75,41
132960,note_on,60,0,0,,,,,,,,0,,,75,0
132960,note_on,0,0,0,,,,,,,,0,,,87,41
132960,note_on,0,0,0,,,,,,,,0,,,64,49
132960,note_on,0,0,0,,,,,,,,0,,,61,37
133040,note_on,80,0,0,,,,,,,,0,,,87,0
133040,note_on,0,0,0,,,,,,,,0,,,88,41
133120,note_on,80,0,0,,,,,,,,0,,,88,0
133120,note_on,0,0,0,,,,,,,,0,,,87,41
133140,note_on,20,0,0,,,,,,,,0,,,61,0
133140,note_on,0,0,0,,,,,,,,0,,,64,0
133200,set_tempo,60,1,0,,,,,,591716,,,,,,
133200,note_on,0,0,0,,,,,,,,0,,,87,0
133200,note_on,0,0,0,,,,,,,,0,,,99,45
133200,note_on,0,0,0,,,,,,,,0,,,63,59
133260,note_on,60,0,0,,,,,,,,0,,,99,0
133260,note_on,0,0,0,,,,,,,,0,,,100,45
133320,note_on,60,0,0,,,,,,,,0,,,100,0
133320,note_on,0,0,0,,,,,,,,0,,,99,45
133380,note_on,60,0,0,,,,,,,,0,,,99,0
133380,note_on,0,0,0,,,,,,,,0,,,87,45
133440,set_tempo,60,1,0,,,,,,571973,,,,,,
133440,note_on,0,0,0,,,,,,,,0,,,87,0
133440,note_on,0,0,0,,,,,,,,0,,,63,0
133440,note_on,0,0,0,,,,,,,,0,,,80,45
133440,note_on,0,0,0,,,,,,,,0,,,71,45
133560,note_on,120,0,0,,,,,,,,0,,,71,0
133560,note_on,0,0,0,,,,,,,,0,,,80,0
133560,note_on,0,0,0,,,,,,,,0,,,75,41
133560,note_on,0,0,0,,,,,,,,0,,,83,41
133680,set_tempo,120,1,0,,,,,,628931,,,,,,
133680,note_on,0,0,0,,,,,,,,0,,,83,0
133680,note_on,0,0,0,,,,,,,,0,,,75,0
133680,note_on,0,0,0,,,,,,,,0,,,87,46
133680,note_on,0,0,0,,,,,,,,0,,,80,46
133860,note_on,180,0,0,,,,,,,,0,,,80,0
133860,note_on,0,0,0,,,,,,,,0,,,87,0
133920,set_tempo,60,1,0,,,,,,603622,,,,,,
133920,note_on,0,0,0,,,,,,,,0,,,99,45
133920,note_on,0,0,0,,,,,,,,0,,,63,52
133980,note_on,60,0,0,,,,,,,,0,,,99,0
133980,note_on,0,0,0,,,,,,,,0,,,100,44
134040,note_on,60,0,0,,,,,,,,0,,,100,0
134040,note_on,0,0,0,,,,,,,,0,,,99,44
134100,note_on,60,0,0,,,,,,,,0,,,99,0
134100,note_on,0,0,0,,,,,,,,0,,,87,44
134160,set_tempo,60,1,0,,,,,,619643,,,,,,
134160,note_on,0,0,0,,,,,,,,0,,,87,0
134160,note_on,0,0,0,,,,,,,,0,,,63,0
134160,note_on,0,0,0,,,,,,,,0,,,79,40
134160,note_on,0,0,0,,,,,,,,0,,,70,40
134280,note_on,120,0,0,,,,,,,,0,,,70,0
134280,note_on,0,0,0,,,,,,,,0,,,79,0
134280,note_on,0,0,0,,,,,,,,0,,,73,36
134280,note_on,0,0,0,,,,,,,,0,,,82,36
134400,set_tempo,120,1,0,,,,,,721674,,,,,,
134400,note_on,0,0,0,,,,,,,,0,,,82,0
134400,note_on,0,0,0,,,,,,,,0,,,73,0
134400,note_on,0,0,0,,,,,,,,0,,,87,40
134400,note_on,0,0,0,,,,,,,,0,,,79,40
134580,note_on,180,0,0,,,,,,,,0,,,79,0
134580,note_on,0,0,0,,,,,,,,0,,,87,0
134640,set_tempo,60,1,0,,,,,,845070,,,,,,
134640,note_on,0,0,0,,,,,,,,0,,,56,52
134697,control_change,57,0,0,,,,,,,,0,64,127,,
134760,note_on,63,0,0,,,,,,,,0,,,63,40
134820,note_on,60,0,0,,,,,,,,0,,,63,0
134820,note_on,0,0,0,,,,,,,,0,,,71,40
134880,set_tempo,60,1,0,,,,,,909091,,,,,,
134880,note_on,0,0,0,,,,,,,,0,,,71,0
134880,note_on,0,0,0,,,,,,,,0,,,56,0
134880,note_on,0,0,0,,,,,,,,0,,,80,46
134968,control_change,88,0,0,,,,,,,,0,64,0,,
135000,note_on,32,0,0,,,,,,,,0,,,80,0
135082,set_tempo,82,1,0,,,,,,603622,,,,,,
135120,note_on,38,0,0,,,,,,,,0,,,75,54
135142,set_tempo,22,1,0,,,,,,600601,,,,,,
135180,note_on,38,0,0,,,,,,,,0,,,87,43
135182,set_tempo,2,1,0,,,,,,597610,,,,,,
135222,set_tempo,40,1,0,,,,,,594648,,,,,,
135240,note_on,18,0,0,,,,,,,,0,,,87,0
135240,note_on,0,0,0,,,,,,,,0,,,88,43
135262,set_tempo,22,1,0,,,,,,591716,,,,,,
135300,note_on,38,0,0,,,,,,,,0,,,88,0
135300,note_on,0,0,0,,,,,,,,0,,,87,43
135302,set_tempo,2,1,0,,,,,,588813,,,,,,
135342,set_tempo,40,1,0,,,,,,585938,,,,,,
135360,note_on,18,0,0,,,,,,,,0,,,87,0
135360,note_on,0,0,0,,,,,,,,0,,,75,0
135360,note_on,0,0,0,,,,,,,,0,,,87,60
135382,set_tempo,22,1,0,,,,,,583090,,,,,,
135420,note_on,38,0,0,,,,,,,,0,,,99,46
135422,set_tempo,2,1,0,,,,,,580271,,,,,,
135462,set_tempo,40,1,0,,,,,,577478,,,,,,
135480,set_tempo,18,1,0,,,,,,597015,,,,,,
135480,note_on,0,0,0,,,,,,,,0,,,99,0
135480,note_on,0,0,0,,,,,,,,0,,,87,0
135480,note_on,0,0,0,,,,,,,,0,,,100,46
135540,note_on,60,0,0,,,,,,,,0,,,100,0
135540,note_on,0,0,0,,,,,,,,0,,,99,46
135560,set_tempo,20,1,0,,,,,,545455,,,,,,
135600,set_tempo,40,1,0,,,,,,577478,,,,,,
135600,note_on,0,0,0,,,,,,,,0,,,99,0
135600,note_on,0,0,0,,,,,,,,0,,,87,60
135660,note_on,60,0,0,,,,,,,,0,,,99,44
135720,note_on,60,0,0,,,,,,,,0,,,99,0
135720,note_on,0,0,0,,,,,,,,0,,,87,0
135720,note_on,0,0,0,,,,,,,,0,,,100,44
135780,note_on,60,0,0,,,,,,,,0,,,100,0
135780,note_on,0,0,0,,,,,,,,0,,,99,44
135840,note_on,60,0,0,,,,,,,,0,,,99,0
135840,note_on,0,0,0,,,,,,,,0,,,85,55
135900,note_on,60,0,0,,,,,,,,0,,,97,44
135960,set_tempo,60,1,0,,,,,,561272,,,,,,
135960,note_on,0,0,0,,,,,,,,0,,,97,0
135960,note_on,0,0,0,,,,,,,,0,,,85,0
135960,note_on,0,0,0,,,,,,,,0,,,99,44
136020,note_on,60,0,0,,,,,,,,0,,,99,0
136020,note_on,0,0,0,,,,,,,,0,,,97,45
136080,set_tempo,60,1,0,,,,,,574713,,,,,,
136080,note_on,0,0,0,,,,,,,,0,,,97,0
136080,note_on,0,0,0,,,,,,,,0,,,83,59
136080,note_on,0,0,0,,,,,,,,0,,,32,44
136080,note_on,0,0,0,,,,,,,,0,,,44,50
136115,control_change,35,0,0,,,,,,,,0,64,127,,
136140,note_on,25,0,0,,,,,,,,0,,,95,45
136200,note_on,60,0,0,,,,,,,,0,,,95,0
136200,note_on,0,0,0,,,,,,,,0,,,83,0
136200,note_on,0,0,0,,,,,,,,0,,,97,45
136260,note_on,60,0,0,,,,,,,,0,,,97,0
136260,note_on,0,0,0,,,,,,,,0,,,95,46
136320,note_on,60,0,0,,,,,,,,0,,,95,0
136320,note_on,0,0,0,,,,,,,,0,,,44,0
136320,note_on,0,0,0,,,,,,,,0,,,32,0
136320,note_on,0,0,0,,,,,,,,0,,,83,54
136320,note_on,0,0,0,,,,,,,,0,,,51,39
136320,note_on,0,0,0,,,,,,,,0,,,63,44
136320,note_on,0,0,0,,,,,,,,0,,,59,39
136380,note_on,60,0,0,,,,,,,,0,,,95,40
136440,note_on,60,0,0,,,,,,,,0,,,95,0
136440,note_on,0,0,0,,,,,,,,0,,,63,0
136440,note_on,0,0,0,,,,,,,,0,,,83,0
136440,note_on,0,0,0,,,,,,,,0,,,51,0
136440,note_on,0,0,0,,,,,,,,0,,,59,0
136440,note_on,0,0,0,,,,,,,,0,,,97,41
136500,note_on,60,0,0,,,,,,,,0,,,97,0
136500,note_on,0,0,0,,,,,,,,0,,,95,41
136560,set_tempo,60,1,0,,,,,,558659,,,,,,
136560,note_on,0,0,0,,,,,,,,0,,,95,0
136560,note_on,0,0,0,,,,,,,,0,,,82,55
136560,note_on,0,0,0,,,,,,,,0,,,63,44
136560,note_on,0,0,0,,,,,,,,0,,,59,39
136560,note_on,0,0,0,,,,,,,,0,,,56,39
136569,control_change,9,0,0,,,,,,,,0,64,0,,
136609,control_change,40,0,0,,,,,,,,0,64,127,,
136620,note_on,11,0,0,,,,,,,,0,,,94,40
136680,note_on,60,0,0,,,,,,,,0,,,94,0
136680,note_on,0,0,0,,,,,,,,0,,,59,0
136680,note_on,0,0,0,,,,,,,,0,,,82,0
136680,note_on,0,0,0,,,,,,,,0,,,63,0
136680,note_on,0,0,0,,,,,,,,0,,,56,0
136680,note_on,0,0,0,,,,,,,,0,,,95,40
136740,note_on,60,0,0,,,,,,,,0,,,95,0
136740,note_on,0,0,0,,,,,,,,0,,,94,41
136800,set_tempo,60,1,0,,,,,,577478,,,,,,
136800,note_on,0,0,0,,,,,,,,0,,,94,0
136800,note_on,0,0,0,,,,,,,,0,,,80,59
136800,note_on,0,0,0,,,,,,,,0,,,35,43
136800,note_on,0,0,0,,,,,,,,0,,,47,47
136809,control_change,9,0,0,,,,,,,,0,64,0,,
136846,control_change,37,0,0,,,,,,,,0,64,127,,
136860,note_on,14,0,0,,,,,,,,0,,,92,41
136920,note_on,60,0,0,,,,,,,,0,,,92,0
136920,note_on,0,0,0,,,,,,,,0,,,80,0
136920,note_on,0,0,0,,,,,,,,0,,,94,41
136980,note_on,60,0,0,,,,,,,,0,,,94,0
136980,note_on,0,0,0,,,,,,,,0,,,92,41
137040,note_on,60,0,0,,,,,,,,0,,,92,0
137040,note_on,0,0,0,,,,,,,,0,,,47,0
137040,note_on,0,0,0,,,,,,,,0,,,35,0
137040,note_on,0,0,0,,,,,,,,0,,,79,59
137040,note_on,0,0,0,,,,,,,,0,,,63,44
137040,note_on,0,0,0,,,,,,,,0,,,59,39
137040,note_on,0,0,0,,,,,,,,0,,,51,39
137100,note_on,60,0,0,,,,,,,,0,,,91,41
137160,note_on,60,0,0,,,,,,,,0,,,91,0
137160,note_on,0,0,0,,,,,,,,0,,,59,0
137160,note_on,0,0,0,,,,,,,,0,,,79,0
137160,note_on,0,0,0,,,,,,,,0,,,63,0
137160,note_on,0,0,0,,,,,,,,0,,,51,0
137160,note_on,0,0,0,,,,,,,,0,,,92,41
137220,note_on,60,0,0,,,,,,,,0,,,92,0
137220,note_on,0,0,0,,,,,,,,0,,,91,41
137280,set_tempo,60,1,0,,,,,,556070,,,,,,
137280,note_on,0,0,0,,,,,,,,0,,,91,0
137280,note_on,0,0,0,,,,,,,,0,,,80,63
137280,note_on,0,0,0,,,,,,,,0,,,63,44
137280,note_on,0,0,0,,,,,,,,0,,,59,39
137280,note_on,0,0,0,,,,,,,,0,,,56,39
137297,control_change,17,0,0,,,,,,,,0,64,0,,
137326,control_change,29,0,0,,,,,,,,0,64,127,,
137340,note_on,14,0,0,,,,,,,,0,,,92,43
137400,note_on,60,0,0,,,,,,,,0,,,92,0
137400,note_on,0,0,0,,,,,,,,0,,,59,0
137400,note_on,0,0,0,,,,,,,,0,,,80,0
137400,note_on,0,0,0,,,,,,,,0,,,63,0
137400,note_on,0,0,0,,,,,,,,0,,,56,0
137400,note_on,0,0,0,,,,,,,,0,,,94,43
137460,note_on,60,0,0,,,,,,,,0,,,94,0
137460,note_on,0,0,0,,,,,,,,0,,,92,44
137520,set_tempo,60,1,0,,,,,,574713,,,,,,
137520,note_on,0,0,0,,,,,,,,0,,,92,0
137520,note_on,0,0,0,,,,,,,,0,,,82,67
137520,control_change,0,0,0,,,,,,,,0,64,0,,
137520,note_on,0,0,0,,,,,,,,0,,,39,44
137520,note_on,0,0,0,,,,,,,,0,,,51,49
137580,note_on,60,0,0,,,,,,,,0,,,94,51
137580,control_change,0,0,0,,,,,,,,0,64,127,,
137640,note_on,60,0,0,,,,,,,,0,,,94,0
137640,note_on,0,0,0,,,,,,,,0,,,95,51
137700,note_on,60,0,0,,,,,,,,0,,,95,0
137700,note_on,0,0,0,,,,,,,,0,,,94,51
137760,note_on,60,0,0,,,,,,,,0,,,94,0
137760,note_on,0,0,0,,,,,,,,0,,,82,0
137760,note_on,0,0,0,,,,,,,,0,,,39,0
137760,note_on,0,0,0,,,,,,,,0,,,51,0
137760,note_on,0,0,0,,,,,,,,0,,,75,59
137760,note_on,0,0,0,,,,,,,,0,,,67,44
137760,note_on,0,0,0,,,,,,,,0,,,63,39
137760,note_on,0,0,0,,,,,,,,0,,,55,39
137820,note_on,60,0,0,,,,,,,,0,,,87,44
137880,note_on,60,0,0,,,,,,,,0,,,87,0
137880,note_on,0,0,0,,,,,,,,0,,,88,44
137940,note_on,60,0,0,,,,,,,,0,,,88,0
137940,note_on,0,0,0,,,,,,,,0,,,55,0
137940,note_on,0,0,0,,,,,,,,0,,,75,0
137940,note_on,0,0,0,,,,,,,,0,,,67,0
137940,note_on,0,0,0,,,,,,,,0,,,63,0
137940,note_on,0,0,0,,,,,,,,0,,,87,44
138000,set_tempo,60,1,0,,,,,,550964,,,,,,
138000,note_on,0,0,0,,,,,,,,0,,,87,0
138000,note_on,0,0,0,,,,,,,,0,,,75,59
138000,note_on,0,0,0,,,,,,,,0,,,67,44
138000,note_on,0,0,0,,,,,,,,0,,,63,39
138000,note_on,0,0,0,,,,,,,,0,,,58,39
138005,control_change,5,0,0,,,,,,,,0,64,0,,
138060,note_on,55,0,0,,,,,,,,0,,,87,44
138120,note_on,60,0,0,,,,,,,,0,,,87,0
138120,note_on,0,0,0,,,,,,,,0,,,88,44
138180,note_on,60,0,0,,,,,,,,0,,,88,0
138180,note_on,0,0,0,,,,,,,,0,,,58,0
138180,note_on,0,0,0,,,,,,,,0,,,63,0
138180,note_on,0,0,0,,,,,,,,0,,,67,0
138180,note_on,0,0,0,,,,,,,,0,,,87,45
138240,set_tempo,60,1,0,,,,,,558659,,,,,,
138240,note_on,0,0,0,,,,,,,,0,,,87,0
138240,note_on,0,0,0,,,,,,,,0,,,75,0
138240,note_on,0,0,0,,,,,,,,0,,,76,62
138240,note_on,0,0,0,,,,,,,,0,,,43,51
138300,note_on,60,0,0,,,,,,,,0,,,88,45
138304,control_change,4,0,0,,,,,,,,0,64,127,,
138360,note_on,56,0,0,,,,,,,,0,,,88,0
138360,note_on,0,0,0,,,,,,,,0,,,90,45
138420,note_on,60,0,0,,,,,,,,0,,,90,0
138420,note_on,0,0,0,,,,,,,,0,,,76,0
138420,note_on,0,0,0,,,,,,,,0,,,88,45
138480,note_on,60,0,0,,,,,,,,0,,,88,0
138480,note_on,0,0,0,,,,,,,,0,,,43,0
138480,note_on,0,0,0,,,,,,,,0,,,75,56
138480,control_change,0,0,0,,,,,,,,0,64,0,,
138480,note_on,0,0,0,,,,,,,,0,,,61,37
138480,note_on,0,0,0,,,,,,,,0,,,63,37
138480,note_on,0,0,0,,,,,,,,0,,,70,43
138540,note_on,60,0,0,,,,,,,,0,,,87,43
138600,note_on,60,0,0,,,,,,,,0,,,87,0
138600,note_on,0,0,0,,,,,,,,0,,,88,43
138660,note_on,60,0,0,,,,,,,,0,,,88,0
138660,note_on,0,0,0,,,,,,,,0,,,70,0
138660,note_on,0,0,0,,,,,,,,0,,,75,0
138660,note_on,0,0,0,,,,,,,,0,,,61,0
138660,note_on,0,0,0,,,,,,,,0,,,63,0
138660,note_on,0,0,0,,,,,,,,0,,,87,43
138720,set_tempo,60,1,0,,,,,,553506,,,,,,
138720,note_on,0,0,0,,,,,,,,0,,,87,0
138720,note_on,0,0,0,,,,,,,,0,,,73,56
138720,note_on,0,0,0,,,,,,,,0,,,58,37
138720,note_on,0,0,0,,,,,,,,0,,,63,37
138720,note_on,0,0,0,,,,,,,,0,,,70,43
138780,note_on,60,0,0,,,,,,,,0,,,85,43
138840,note_on,60,0,0,,,,,,,,0,,,85,0
138840,note_on,0,0,0,,,,,,,,0,,,87,43
138900,note_on,60,0,0,,,,,,,,0,,,87,0
138900,note_on,0,0,0,,,,,,,,0,,,70,0
138900,note_on,0,0,0,,,,,,,,0,,,73,0
138900,note_on,0,0,0,,,,,,,,0,,,58,0
138900,note_on,0,0,0,,,,,,,,0,,,63,0
138900,note_on,0,0,0,,,,,,,,0,,,85,43
138960,set_tempo,60,1,0,,,,,,561272,,,,,,
138960,note_on,0,0,0,,,,,,,,0,,,85,0
138960,note_on,0,0,0,,,,,,,,0,,,71,60
138960,note_on,0,0,0,,,,,,,,0,,,44,47
139006,control_change,46,0,0,,,,,,,,0,64,127,,
139020,note_on,14,0,0,,,,,,,,0,,,83,43
139080,note_on,60,0,0,,,,,,,,0,,,83,0
139080,note_on,0,0,0,,,,,,,,0,,,85,43
139140,note_on,60,0,0,,,,,,,,0,,,85,0
139140,note_on,0,0,0,,,,,,,,0,,,83,43
139170,note_on,30,0,0,,,,,,,,0,,,71,0
139200,note_on,30,0,0,,,,,,,,0,,,83,0
139200,note_on,0,0,0,,,,,,,,0,,,44,0
139200,note_on,0,0,0,,,,,,,,0,,,71,54
139200,note_on,0,0,0,,,,,,,,0,,,68,40
139200,note_on,0,0,0,,,,,,,,0,,,63,35
139260,note_on,60,0,0,,,,,,,,0,,,83,39
139320,note_on,60,0,0,,,,,,,,0,,,83,0
139320,note_on,0,0,0,,,,,,,,0,,,85,39
139380,note_on,60,0,0,,,,,,,,0,,,85,0
139380,note_on,0,0,0,,,,,,,,0,,,63,0
139380,note_on,0,0,0,,,,,,,,0,,,68,0
139380,note_on,0,0,0,,,,,,,,0,,,71,0
139380,note_on,0,0,0,,,,,,,,0,,,83,39
139440,note_on,60,0,0,,,,,,,,0,,,83,0
139440,note_on,0,0,0,,,,,,,,0,,,70,54
139440,note_on,0,0,0,,,,,,,,0,,,63,40
139440,note_on,0,0,0,,,,,,,,0,,,59,35
139448,control_change,8,0,0,,,,,,,,0,64,0,,
139492,control_change,44,0,0,,,,,,,,0,64,127,,
139500,note_on,8,0,0,,,,,,,,0,,,82,41
139560,note_on,60,0,0,,,,,,,,0,,,82,0
139560,note_on,0,0,0,,,,,,,,0,,,83,41
139620,note_on,60,0,0,,,,,,,,0,,,83,0
139620,note_on,0,0,0,,,,,,,,0,,,59,0
139620,note_on,0,0,0,,,,,,,,0,,,63,0
139620,note_on,0,0,0,,,,,,,,0,,,70,0
139620,note_on,0,0,0,,,,,,,,0,,,82,43
139680,set_tempo,60,1,0,,,,,,550964,,,,,,
139680,note_on,0,0,0,,,,,,,,0,,,82,0
139680,note_on,0,0,0,,,,,,,,0,,,68,60
139680,note_on,0,0,0,,,,,,,,0,,,40,46
139689,control_change,9,0,0,,,,,,,,0,64,0,,
139735,control_change,46,0,0,,,,,,,,0,64,127,,
139740,note_on,5,0,0,,,,,,,,0,,,80,45
139800,note_on,60,0,0,,,,,,,,0,,,80,0
139800,note_on,0,0,0,,,,,,,,0,,,82,46
139860,note_on,60,0,0,,,,,,,,0,,,82,0
139860,note_on,0,0,0,,,,,,,,0,,,68,0
139860,note_on,0,0,0,,,,,,,,0,,,80,46
139920,note_on,60,0,0,,,,,,,,0,,,80,0
139920,note_on,0,0,0,,,,,,,,0,,,40,0
139920,note_on,0,0,0,,,,,,,,0,,,67,54
139920,note_on,0,0,0,,,,,,,,0,,,62,37
139920,note_on,0,0,0,,,,,,,,0,,,59,34
139980,note_on,60,0,0,,,,,,,,0,,,79,43
140040,note_on,60,0,0,,,,,,,,0,,,79,0
140040,note_on,0,0,0,,,,,,,,0,,,80,43
140100,note_on,60,0,0,,,,,,,,0,,,80,0
140100,note_on,0,0,0,,,,,,,,0,,,59,0
140100,note_on,0,0,0,,,,,,,,0,,,62,0
140100,note_on,0,0,0,,,,,,,,0,,,67,0
140100,note_on,0,0,0,,,,,,,,0,,,79,43
140160,set_tempo,60,1,0,,,,,,563380,,,,,,
140160,note_on,0,0,0,,,,,,,,0,,,79,0
140160,note_on,0,0,0,,,,,,,,0,,,68,52
140160,note_on,0,0,0,,,,,,,,0,,,62,37
140160,note_on,0,0,0,,,,,,,,0,,,58,34
140169,control_change,9,0,0,,,,,,,,0,64,0,,
140209,control_change,40,0,0,,,,,,,,0,64,127,,
140220,note_on,11,0,0,,,,,,,,0,,,80,41
140280,note_on,60,0,0,,,,,,,,0,,,80,0
140280,note_on,0,0,0,,,,,,,,0,,,82,41
140340,note_on,60,0,0,,,,,,,,0,,,82,0
140340,note_on,0,0,0,,,,,,,,0,,,58,0
140340,note_on,0,0,0,,,,,,,,0,,,62,0
140340,note_on,0,0,0,,,,,,,,0,,,68,0
140340,note_on,0,0,0,,,,,,,,0,,,80,41
140400,set_tempo,60,1,0,,,,,,576923,,,,,,
140400,note_on,0,0,0,,,,,,,,0,,,80,0
140400,note_on,0,0,0,,,,,,,,0,,,70,54
140400,control_change,0,0,0,,,,,,,,0,64,0,,
140400,note_on,0,0,0,,,,,,,,0,,,39,43
140460,note_on,60,0,0,,,,,,,,0,,,82,43
140474,control_change,14,0,0,,,,,,,,0,64,127,,
140520,note_on,46,0,0,,,,,,,,0,,,82,0
140520,note_on,0,0,0,,,,,,,,0,,,83,43
140580,note_on,60,0,0,,,,,,,,0,,,83,0
140580,note_on,0,0,0,,,,,,,,0,,,82,43
140640,set_tempo,60,1,0,,,,,,634921,,,,,,
140640,note_on,0,0,0,,,,,,,,0,,,82,0
140640,note_on,0,0,0,,,,,,,,0,,,39,0
140640,note_on,0,0,0,,,,,,,,0,,,70,0
140640,note_on,0,0,0,,,,,,,,0,,,63,49
140640,note_on,0,0,0,,,,,,,,0,,,55,34
140640,note_on,0,0,0,,,,,,,,0,,,58,37
140700,note_on,60,0,0,,,,,,,,0,,,75,37
140760,note_on,60,0,0,,,,,,,,0,,,75,0
140760,note_on,0,0,0,,,,,,,,0,,,63,0
140760,note_on,0,0,0,,,,,,,,0,,,76,37
140820,note_on,60,0,0,,,,,,,,0,,,76,0
140820,note_on,0,0,0,,,,,,,,0,,,75,37
140880,set_tempo,60,1,0,,,,,,558140,,,,,,
140880,note_on,0,0,0,,,,,,,,0,,,75,0
140880,note_on,0,0,0,,,,,,,,0,,,58,0
140880,note_on,0,0,0,,,,,,,,0,,,55,0
140880,note_on,0,0,0,,,,,,,,0,,,75,59
140880,note_on,0,0,0,,,,,,,,0,,,70,36
140880,note_on,0,0,0,,,,,,,,0,,,67,33
140940,note_on,60,0,0,,,,,,,,0,,,87,43
141000,note_on,60,0,0,,,,,,,,0,,,87,0
141000,note_on,0,0,0,,,,,,,,0,,,88,43
141060,note_on,60,0,0,,,,,,,,0,,,88,0
141060,note_on,0,0,0,,,,,,,,0,,,87,43
141120,note_on,60,0,0,,,,,,,,0,,,87,0
141120,note_on,0,0,0,,,,,,,,0,,,75,0
141120,note_on,0,0,0,,,,,,,,0,,,70,0
141120,note_on,0,0,0,,,,,,,,0,,,67,0
141120,note_on,0,0,0,,,,,,,,0,,,87,64
141120,note_on,0,0,0,,,,,,,,0,,,82,43
141120,note_on,0,0,0,,,,,,,,0,,,79,37
141180,set_tempo,60,1,0,,,,,,566038,,,,,,
141180,note_on,0,0,0,,,,,,,,0,,,99,52
141220,set_tempo,40,1,0,,,,,,563380,,,,,,
141240,set_tempo,20,1,0,,,,,,597015,,,,,,
141240,note_on,0,0,0,,,,,,,,0,,,99,0
141240,note_on,0,0,0,,,,,,,,0,,,100,52
141300,note_on,60,0,0,,,,,,,,0,,,100,0
141300,note_on,0,0,0,,,,,,,,0,,,87,0
141300,note_on,0,0,0,,,,,,,,0,,,99,52
141320,set_tempo,20,1,0,,,,,,545455,,,,,,
141360,set_tempo,40,1,0,,,,,,552995,,,,,,
141360,note_on,0,0,0,,,,,,,,0,,,99,0
141360,note_on,0,0,0,,,,,,,,0,,,79,0
141360,note_on,0,0,0,,,,,,,,0,,,82,0
141360,note_on,0,0,0,,,,,,,,0,,,87,63
141366,control_change,6,0,0,,,,,,,,0,64,0,,
141420,note_on,54,0,0,,,,,,,,0,,,99,49
141480,note_on,60,0,0,,,,,,,,0,,,99,0
141480,note_on,0,0,0,,,,,,,,0,,,100,49
141540,note_on,60,0,0,,,,,,,,0,,,100,0
141540,note_on,0,0,0,,,,,,,,0,,,87,0
141540,note_on,0,0,0,,,,,,,,0,,,99,49
141600,set_tempo,60,1,0,,,,,,560748,,,,,,
141600,note_on,0,0,0,,,,,,,,0,,,99,0
141600,note_on,0,0,0,,,,,,,,0,,,85,63
141660,note_on,60,0,0,,,,,,,,0,,,97,49
141720,note_on,60,0,0,,,,,,,,0,,,97,0
141720,note_on,0,0,0,,,,,,,,0,,,99,49
141780,note_on,60,0,0,,,,,,,,0,,,99,0
141780,note_on,0,0,0,,,,,,,,0,,,85,0
141780,note_on,0,0,0,,,,,,,,0,,,97,49
141840,set_tempo,60,1,0,,,,,,540541,,,,,,
141840,note_on,0,0,0,,,,,,,,0,,,97,0
141840,note_on,0,0,0,,,,,,,,0,,,84,62
141840,note_on,0,0,0,,,,,,,,0,,,44,43
141875,control_change,35,0,0,,,,,,,,0,64,127,,
141900,note_on,25,0,0,,,,,,,,0,,,96,50
141960,note_on,60,0,0,,,,,,,,0,,,96,0
141960,note_on,0,0,0,,,,,,,,0,,,97,50
142020,note_on,60,0,0,,,,,,,,0,,,97,0
142020,note_on,0,0,0,,,,,,,,0,,,84,0
142020,note_on,0,0,0,,,,,,,,0,,,96,50
142080,note_on,60,0,0,,,,,,,,0,,,96,0
142080,note_on,0,0,0,,,,,,,,0,,,44,0
142080,note_on,0,0,0,,,,,,,,0,,,84,60
142080,note_on,0,0,0,,,,,,,,0,,,66,40
142080,note_on,0,0,0,,,,,,,,0,,,63,35
142080,note_on,0,0,0,,,,,,,,0,,,57,35
142140,note_on,60,0,0,,,,,,,,0,,,96,47
142200,note_on,60,0,0,,,,,,,,0,,,96,0
142200,note_on,0,0,0,,,,,,,,0,,,97,47
142260,note_on,60,0,0,,,,,,,,0,,,97,0
142260,note_on,0,0,0,,,,,,,,0,,,57,0
142260,note_on,0,0,0,,,,,,,,0,,,84,0
142260,note_on,0,0,0,,,,,,,,0,,,66,0
142260,note_on,0,0,0,,,,,,,,0,,,63,0
142260,note_on,0,0,0,,,,,,,,0,,,96,47
142320,set_tempo,60,1,0,,,,,,533333,,,,,,
142320,note_on,0,0,0,,,,,,,,0,,,96,0
142320,note_on,0,0,0,,,,,,,,0,,,81,59
142320,note_on,0,0,0,,,,,,,,0,,,60,35
142320,note_on,0,0,0,,,,,,,,0,,,63,35
142320,note_on,0,0,0,,,,,,,,0,,,66,40
142326,control_change,6,0,0,,,,,,,,0,64,0,,
142380,note_on,54,0,0,,,,,,,,0,,,93,46
142440,note_on,60,0,0,,,,,,,,0,,,93,0
142440,note_on,0,0,0,,,,,,,,0,,,95,46
142500,note_on,60,0,0,,,,,,,,0,,,95,0
142500,note_on,0,0,0,,,,,,,,0,,,66,0
142500,note_on,0,0,0,,,,,,,,0,,,81,0
142500,note_on,0,0,0,,,,,,,,0,,,60,0
142500,note_on,0,0,0,,,,,,,,0,,,63,0
142500,note_on,0,0,0,,,,,,,,0,,,93,46
142560,set_tempo,60,1,0,,,,,,540541,,,,,,
142560,note_on,0,0,0,,,,,,,,0,,,93,0
142560,note_on,0,0,0,,,,,,,,0,,,80,62
142560,note_on,0,0,0,,,,,,,,0,,,48,43
142620,note_on,60,0,0,,,,,,,,0,,,92,46
142623,control_change,3,0,0,,,,,,,,0,64,127,,
142680,note_on,57,0,0,,,,,,,,0,,,92,0
142680,note_on,0,0,0,,,,,,,,0,,,93,46
142740,note_on,60,0,0,,,,,,,,0,,,93,0
142740,note_on,0,0,0,,,,,,,,0,,,80,0
142740,note_on,0,0,0,,,,,,,,0,,,92,46
142800,note_on,60,0,0,,,,,,,,0,,,92,0
142800,note_on,0,0,0,,,,,,,,0,,,48,0
142800,note_on,0,0,0,,,,,,,,0,,,80,59
142800,note_on,0,0,0,,,,,,,,0,,,66,40
142800,note_on,0,0,0,,,,,,,,0,,,63,35
142800,note_on,0,0,0,,,,,,,,0,,,57,35
142860,note_on,60,0,0,,,,,,,,0,,,92,45
142920,note_on,60,0,0,,,,,,,,0,,,92,0
142920,note_on,0,0,0,,,,,,,,0,,,93,45
142980,note_on,60,0,0,,,,,,,,0,,,93,0
142980,note_on,0,0,0,,,,,,,,0,,,57,0
142980,note_on,0,0,0,,,,,,,,0,,,80,0
142980,note_on,0,0,0,,,,,,,,0,,,66,0
142980,note_on,0,0,0,,,,,,,,0,,,63,0
142980,note_on,0,0,0,,,,,,,,0,,,92,45
143040,set_tempo,60,1,0,,,,,,550459,,,,,,
143040,note_on,0,0,0,,,,,,,,0,,,92,0
143040,note_on,0,0,0,,,,,,,,0,,,78,57
143040,note_on,0,0,0,,,,,,,,0,,,60,35
143040,note_on,0,0,0,,,,,,,,0,,,63,35
143040,note_on,0,0,0,,,,,,,,0,,,66,40
143100,note_on,60,0,0,,,,,,,,0,,,90,41
143160,note_on,60,0,0,,,,,,,,0,,,90,0
143160,note_on,0,0,0,,,,,,,,0,,,92,41
143220,note_on,60,0,0,,,,,,,,0,,,92,0
143220,note_on,0,0,0,,,,,,,,0,,,66,0
143220,note_on,0,0,0,,,,,,,,0,,,78,0
143220,note_on,0,0,0,,,,,,,,0,,,60,0
143220,note_on,0,0,0,,,,,,,,0,,,63,0
143220,note_on,0,0,0,,,,,,,,0,,,90,41
143280,set_tempo,60,1,0,,,,,,533333,,,,,,
143280,note_on,0,0,0,,,,,,,,0,,,90,0
143280,note_on,0,0,0,,,,,,,,0,,,76,55
143280,note_on,0,0,0,,,,,,,,0,,,52,43
143292,control_change,12,0,0,,,,,,,,0,64,0,,
143340,note_on,48,0,0,,,,,,,,0,,,88,44
143347,control_change,7,0,0,,,,,,,,0,64,127,,
143400,note_on,53,0,0,,,,,,,,0,,,88,0
143400,note_on,0,0,0,,,,,,,,0,,,90,44
143460,note_on,60,0,0,,,,,,,,0,,,90,0
143460,note_on,0,0,0,,,,,,,,0,,,88,44
143520,note_on,60,0,0,,,,,,,,0,,,88,0
143520,note_on,0,0,0,,,,,,,,0,,,52,0
143520,note_on,0,0,0,,,,,,,,0,,,76,0
143520,note_on,0,0,0,,,,,,,,0,,,73,51
143520,note_on,0,0,0,,,,,,,,0,,,64,32
143520,note_on,0,0,0,,,,,,,,0,,,69,36
143580,note_on,60,0,0,,,,,,,,0,,,85,40
143640,note_on,60,0,0,,,,,,,,0,,,85,0
143640,note_on,0,0,0,,,,,,,,0,,,87,40
143700,note_on,60,0,0,,,,,,,,0,,,87,0
143700,note_on,0,0,0,,,,,,,,0,,,85,40
143760,set_tempo,60,1,0,,,,,,526316,,,,,,
143760,note_on,0,0,0,,,,,,,,0,,,85,0
143760,note_on,0,0,0,,,,,,,,0,,,73,0
143760,note_on,0,0,0,,,,,,,,0,,,64,0
143760,note_on,0,0,0,,,,,,,,0,,,69,0
143760,note_on,0,0,0,,,,,,,,0,,,75,54
143760,note_on,0,0,0,,,,,,,,0,,,60,35
143760,note_on,0,0,0,,,,,,,,0,,,69,40
143771,control_change,11,0,0,,,,,,,,0,64,0,,
143820,note_on,49,0,0,,,,,,,,0,,,87,41
143880,note_on,60,0,0,,,,,,,,0,,,87,0
143880,note_on,0,0,0,,,,,,,,0,,,88,41
143940,note_on,60,0,0,,,,,,,,0,,,88,0
143940,note_on,0,0,0,,,,,,,,0,,,87,41
144000,set_tempo,60,1,0,,,,,,533333,,,,,,
144000,note_on,0,0,0,,,,,,,,0,,,87,0
144000,note_on,0,0,0,,,,,,,,0,,,75,0
144000,note_on,0,0,0,,,,,,,,0,,,60,0
144000,note_on,0,0,0,,,,,,,,0,,,69,0
144000,note_on,0,0,0,,,,,,,,0,,,76,55
144000,note_on,0,0,0,,,,,,,,0,,,61,39
144000,note_on,0,0,0,,,,,,,,0,,,69,44
144060,note_on,60,0,0,,,,,,,,0,,,88,45
144078,control_change,18,0,0,,,,,,,,0,64,127,,
144120,note_on,42,0,0,,,,,,,,0,,,88,0
144120,note_on,0,0,0,,,,,,,,0,,,90,45
144180,note_on,60,0,0,,,,,,,,0,,,90,0
144180,note_on,0,0,0,,,,,,,,0,,,88,45
144240,note_on,60,0,0,,,,,,,,0,,,88,0
144240,note_on,0,0,0,,,,,,,,0,,,76,0
144240,note_on,0,0,0,,,,,,,,0,,,61,0
144240,note_on,0,0,0,,,,,,,,0,,,69,0
144240,note_on,0,0,0,,,,,,,,0,,,75,52
144240,note_on,0,0,0,,,,,,,,0,,,66,34
144240,note_on,0,0,0,,,,,,,,0,,,69,37
144300,note_on,60,0,0,,,,,,,,0,,,87,40
144360,note_on,60,0,0,,,,,,,,0,,,87,0
144360,note_on,0,0,0,,,,,,,,0,,,88,40
144420,note_on,60,0,0,,,,,,,,0,,,88,0
144420,note_on,0,0,0,,,,,,,,0,,,87,40
144480,note_on,60,0,0,,,,,,,,0,,,87,0
144480,note_on,0,0,0,,,,,,,,0,,,75,0
144480,note_on,0,0,0,,,,,,,,0,,,66,0
144480,note_on,0,0,0,,,,,,,,0,,,69,0
144480,note_on,0,0,0,,,,,,,,0,,,73,49
144480,note_on,0,0,0,,,,,,,,0,,,64,32
144480,note_on,0,0,0,,,,,,,,0,,,69,36
144540,note_on,60,0,0,,,,,,,,0,,,85,37
144600,note_on,60,0,0,,,,,,,,0,,,85,0
144600,note_on,0,0,0,,,,,,,,0,,,87,37
144660,note_on,60,0,0,,,,,,,,0,,,87,0
144660,note_on,0,0,0,,,,,,,,0,,,85,37
144700,set_tempo,40,1,0,,,,,,519481,,,,,,
144716,note_on,16,0,0,,,,,,,,0,,,75,43
144720,note_on,4,0,0,,,,,,,,0,,,85,0
144720,note_on,0,0,0,,,,,,,,0,,,69,0
144720,note_on,0,0,0,,,,,,,,0,,,73,0
144720,note_on,0,0,0,,,,,,,,0,,,64,0
144720,note_on,0,0,0,,,,,,,,0,,,71,44
144720,note_on,0,0,0,,,,,,,,0,,,68,39
144720,note_on,0,0,0,,,,,,,,0,,,63,39
144729,control_change,9,0,0,,,,,,,,0,64,0,,
144776,note_on,47,0,0,,,,,,,,0,,,75,0
144781,note_on,5,0,0,,,,,,,,0,,,87,43
144840,set_tempo,59,1,0,,,,,,517241,,,,,,
144841,note_on,1,0,0,,,,,,,,0,,,87,0
144844,note_on,3,0,0,,,,,,,,0,,,76,44
144904,note_on,60,0,0,,,,,,,,0,,,76,0
144905,note_on,1,0,0,,,,,,,,0,,,77,44
144957,note_on,52,0,0,,,,,,,,0,,,78,45
144960,note_on,3,0,0,,,,,,,,0,,,71,0
144960,note_on,0,0,0,,,,,,,,0,,,63,0
144960,note_on,0,0,0,,,,,,,,0,,,68,0
144965,note_on,5,0,0,,,,,,,,0,,,77,0
144980,set_tempo,15,1,0,,,,,,515021,,,,,,
145017,note_on,37,0,0,,,,,,,,0,,,78,0
145023,note_on,6,0,0,,,,,,,,0,,,79,45
145082,note_on,59,0,0,,,,,,,,0,,,80,45
145083,note_on,1,0,0,,,,,,,,0,,,79,0
145100,set_tempo,17,1,0,,,,,,512821,,,,,,
145142,note_on,42,0,0,,,,,,,,0,,,80,0
145142,note_on,0,0,0,,,,,,,,0,,,81,45
145202,note_on,60,0,0,,,,,,,,0,,,81,0
145205,note_on,3,0,0,,,,,,,,0,,,82,46
145240,set_tempo,35,1,0,,,,,,510638,,,,,,
145260,note_on,20,0,0,,,,,,,,0,,,83,47
145265,note_on,5,0,0,,,,,,,,0,,,82,0
145320,note_on,55,0,0,,,,,,,,0,,,83,0
145325,note_on,5,0,0,,,,,,,,0,,,84,47
145360,set_tempo,35,1,0,,,,,,508475,,,,,,
145382,note_on,22,0,0,,,,,,,,0,,,85,49
145385,note_on,3,0,0,,,,,,,,0,,,84,0
145436,note_on,51,0,0,,,,,,,,0,,,86,49
145442,note_on,6,0,0,,,,,,,,0,,,85,0
145496,note_on,54,0,0,,,,,,,,0,,,86,0
145500,set_tempo,4,1,0,,,,,,506329,,,,,,
145501,note_on,1,0,0,,,,,,,,0,,,87,50
145561,note_on,60,0,0,,,,,,,,0,,,87,0
145561,note_on,0,0,0,,,,,,,,0,,,88,50
145619,note_on,58,0,0,,,,,,,,0,,,89,51
145620,set_tempo,1,1,0,,,,,,504202,,,,,,
145621,note_on,1,0,0,,,,,,,,0,,,88,0
145679,note_on,58,0,0,,,,,,,,0,,,89,0
145685,note_on,6,0,0,,,,,,,,0,,,90,52
145740,note_on,55,0,0,,,,,,,,0,,,91,52
145745,note_on,5,0,0,,,,,,,,0,,,90,0
145760,set_tempo,15,1,0,,,,,,502092,,,,,,
145800,note_on,40,0,0,,,,,,,,0,,,91,0
145801,note_on,1,0,0,,,,,,,,0,,,92,54
145860,note_on,59,0,0,,,,,,,,0,,,93,54
145861,note_on,1,0,0,,,,,,,,0,,,92,0
145880,set_tempo,19,1,0,,,,,,500000,,,,,,
145917,note_on,37,0,0,,,,,,,,0,,,94,54
145920,note_on,3,0,0,,,,,,,,0,,,93,0
145977,note_on,57,0,0,,,,,,,,0,,,94,0
145979,note_on,2,0,0,,,,,,,,0,,,95,54
146020,set_tempo,41,1,0,,,,,,497925,,,,,,
146038,note_on,18,0,0,,,,,,,,0,,,96,55
146039,note_on,1,0,0,,,,,,,,0,,,95,0
146095,note_on,56,0,0,,,,,,,,0,,,97,56
146098,note_on,3,0,0,,,,,,,,0,,,96,0
146140,set_tempo,42,1,0,,,,,,495868,,,,,,
146155,note_on,15,0,0,,,,,,,,0,,,97,0
146160,set_tempo,5,1,0,,,,,,478088,,,,,,
146160,note_on,0,0,0,,,,,,,,0,,,67,46
146160,note_on,0,0,0,,,,,,,,0,,,61,42
146160,note_on,0,0,0,,,,,,,,0,,,51,42
146163,note_on,3,0,0,,,,,,,,0,,,98,57
146227,note_on,64,0,0,,,,,,,,0,,,99,59
146233,note_on,6,0,0,,,,,,,,0,,,98,0
146295,note_on,62,0,0,,,,,,,,0,,,102,63
146297,note_on,2,0,0,,,,,,,,0,,,99,0
146360,note_on,63,0,0,,,,,,,,0,,,102,0
146364,note_on,4,0,0,,,,,,,,0,,,100,62
146400,note_on,36,0,0,,,,,,,,0,,,67,0
146400,note_on,0,0,0,,,,,,,,0,,,51,0
146400,note_on,0,0,0,,,,,,,,0,,,61,0
146429,note_on,29,0,0,,,,,,,,0,,,100,0
146431,note_on,2,0,0,,,,,,,,0,,,97,61
146490,note_on,59,0,0,,,,,,,,0,,,94,60
146496,note_on,6,0,0,,,,,,,,0,,,97,0
146555,note_on,59,0,0,,,,,,,,0,,,94,0
146557,note_on,2,0,0,,,,,,,,0,,,91,57
146621,note_on,64,0,0,,,,,,,,0,,,86,56
146622,note_on,1,0,0,,,,,,,,0,,,91,0
146686,note_on,64,0,0,,,,,,,,0,,,86,0
146692,note_on,6,0,0,,,,,,,,0,,,87,55
146754,note_on,62,0,0,,,,,,,,0,,,90,61
146757,note_on,3,0,0,,,,,,,,0,,,87,0
146819,note_on,62,0,0,,,,,,,,0,,,90,0
146821,note_on,2,0,0,,,,,,,,0,,,88,60
146886,note_on,65,0,0,,,,,,,,0,,,88,0
146887,note_on,1,0,0,,,,,,,,0,,,85,59
146949,note_on,62,0,0,,,,,,,,0,,,82,57
146952,note_on,3,0,0,,,,,,,,0,,,85,0
147014,note_on,62,0,0,,,,,,,,0,,,82,0
147017,note_on,3,0,0,,,,,,,,0,,,79,60
147079,note_on,62,0,0,,,,,,,,0,,,76,55
147082,note_on,3,0,0,,,,,,,,0,,,79,0
147144,note_on,62,0,0,,,,,,,,0,,,76,0
147149,note_on,5,0,0,,,,,,,,0,,,73,54
147211,note_on,62,0,0,,,,,,,,0,,,70,51
147214,note_on,3,0,0,,,,,,,,0,,,73,0
147272,note_on,58,0,0,,,,,,,,0,,,67,49
147276,note_on,4,0,0,,,,,,,,0,,,70,0
147337,note_on,61,0,0,,,,,,,,0,,,67,0
147345,note_on,8,0,0,,,,,,,,0,,,64,47
147360,set_tempo,15,1,0,,,,,,478088,,,,,,
147380,set_tempo,20,1,0,,,,,,489796,,,,,,
147400,set_tempo,20,1,0,,,,,,502092,,,,,,
147409,note_on,9,0,0,,,,,,,,0,,,61,45
147410,note_on,1,0,0,,,,,,,,0,,,64,0
147420,set_tempo,10,1,0,,,,,,517241,,,,,,
147440,set_tempo,20,1,0,,,,,,530973,,,,,,
147460,set_tempo,20,1,0,,,,,,547945,,,,,,
147469,note_on,9,0,0,,,,,,,,0,,,58,44
147474,note_on,5,0,0,,,,,,,,0,,,61,0
147480,set_tempo,6,1,0,,,,,,563380,,,,,,
147500,set_tempo,20,1,0,,,,,,582524,,,,,,
147520,set_tempo,20,1,0,,,,,,600000,,,,,,
147534,note_on,14,0,0,,,,,,,,0,,,58,0
147540,set_tempo,6,1,0,,,,,,621762,,,,,,
147540,note_on,0,0,0,,,,,,,,0,,,55,41
147560,set_tempo,20,1,0,,,,,,641711,,,,,,
147580,set_tempo,20,1,0,,,,,,666667,,,,,,
147600,time_signature,20,1,0,8,8,12,8,,,,,,,,
147600,set_tempo,0,1,0,,,,,,857143,,,,,,
147600,note_on,0,0,0,,,,,,,,0,,,44,41
147605,note_on,5,0,0,,,,,,,,0,,,55,0
147633,control_change,28,0,0,,,,,,,,0,64,127,,
147680,set_tempo,47,1,0,,,,,,512821,,,,,,
147680,note_on,0,0,0,,,,,,,,0,,,44,0
147680,note_on,0,0,0,,,,,,,,0,,,51,41
147760,note_on,80,0,0,,,,,,,,0,,,51,0
147760,note_on,0,0,0,,,,,,,,0,,,56,41
147840,note_on,80,0,0,,,,,,,,0,,,56,0
147840,note_on,0,0,0,,,,,,,,0,,,59,41
147920,note_on,80,0,0,,,,,,,,0,,,59,0
147920,note_on,0,0,0,,,,,,,,0,,,63,41
148000,note_on,80,0,0,,,,,,,,0,,,63,0
148000,note_on,0,0,0,,,,,,,,0,,,68,41
148080,note_on,80,0,0,,,,,,,,0,,,68,0
148080,note_on,0,0,0,,,,,,,,0,,,71,41
148160,note_on,80,0,0,,,,,,,,0,,,71,0
148160,note_on,0,0,0,,,,,,,,0,,,75,41
148240,note_on,80,0,0,,,,,,,,0,,,75,0
148240,note_on,0,0,0,,,,,,,,0,,,80,41
148320,set_tempo,80,1,0,,,,,,506329,,,,,,
148320,note_on,0,0,0,,,,,,,,0,,,80,0
148320,note_on,0,0,0,,,,,,,,0,,,71,41
148340,set_tempo,20,1,0,,,,,,508475,,,,,,
148360,set_tempo,20,1,0,,,,,,512821,,,,,,
148380,set_tempo,20,1,0,,,,,,515021,,,,,,
148400,set_tempo,20,1,0,,,,,,519481,,,,,,
148400,note_on,0,0,0,,,,,,,,0,,,71,0
148400,note_on,0,0,0,,,,,,,,0,,,75,41
148420,set_tempo,20,1,0,,,,,,521739,,,,,,
148440,set_tempo,20,1,0,,,,,,526316,,,,,,
148460,set_tempo,20,1,0,,,,,,530973,,,,,,
148480,set_tempo,20,1,0,,,,,,582524,,,,,,
148480,note_on,0,0,0,,,,,,,,0,,,75,0
148480,note_on,0,0,0,,,,,,,,0,,,83,45
148560,note_on,80,0,0,,,,,,,,0,,,83,0
148560,note_on,0,0,0,,,,,,,,0,,,80,40
148680,set_tempo,120,1,0,,,,,,759590,,,,,,
148680,control_change,0,0,0,,,,,,,,0,64,0,,
148800,marker,120,1,0,,,,,,,,,,,,
148800,note_on,0,0,0,,,,,,,,0,,,80,0
148920,set_tempo,120,1,0,,,,,,521739,,,,,,
148920,note_on,0,0,0,,,,,,,,0,,,83,37
148920,control_change,0,0,0,,,,,,,,0,91,127,,
148920,note_on,0,0,0,,,,,,,,0,,,71,37
148920,note_on,0,0,0,,,,,,,,0,,,68,33
148920,control_change,0,0,0,,,,,,,,0,91,127,,
149010,note_on,90,0,0,,,,,,,,0,,,68,0
149010,note_on,0,0,0,,,,,,,,0,,,71,0
149010,note_on,0,0,0,,,,,,,,0,,,83,0
149040,note_on,30,0,0,,,,,,,,0,,,83,41
149040,note_on,0,0,0,,,,,,,,0,,,71,41
149040,note_on,0,0,0,,,,,,,,0,,,67,36
149040,note_on,0,0,0,,,,,,,,0,,,70,36
149130,note_on,90,0,0,,,,,,,,0,,,70,0
149130,note_on,0,0,0,,,,,,,,0,,,83,0
149130,note_on,0,0,0,,,,,,,,0,,,71,0
149130,note_on,0,0,0,,,,,,,,0,,,67,0
149160,note_on,30,0,0,,,,,,,,0,,,83,45
149160,note_on,0,0,0,,,,,,,,0,,,71,45
149160,note_on,0,0,0,,,,,,,,0,,,66,37
149160,note_on,0,0,0,,,,,,,,0,,,69,37
149250,note_on,90,0,0,,,,,,,,0,,,69,0
149250,note_on,0,0,0,,,,,,,,0,,,83,0
149250,note_on,0,0,0,,,,,,,,0,,,71,0
149250,note_on,0,0,0,,,,,,,,0,,,66,0
149280,note_on,30,0,0,,,,,,,,0,,,71,47
149280,note_on,0,0,0,,,,,,,,0,,,83,47
149280,note_on,0,0,0,,,,,,,,0,,,65,41
149280,note_on,0,0,0,,,,,,,,0,,,68,41
149370,note_on,90,0,0,,,,,,,,0,,,68,0
149370,note_on,0,0,0,,,,,,,,0,,,71,0
149370,note_on,0,0,0,,,,,,,,0,,,83,0
149370,note_on,0,0,0,,,,,,,,0,,,65,0
149400,set_tempo,30,1,0,,,,,,545455,,,,,,
149400,note_on,0,0,0,,,,,,,,0,,,83,51
149400,note_on,0,0,0,,,,,,,,0,,,71,51
149400,note_on,0,0,0,,,,,,,,0,,,64,45
149400,note_on,0,0,0,,,,,,,,0,,,67,45
149490,note_on,90,0,0,,,,,,,,0,,,67,0
149490,note_on,0,0,0,,,,,,,,0,,,83,0
149490,note_on,0,0,0,,,,,,,,0,,,71,0
149490,note_on,0,0,0,,,,,,,,0,,,64,0
149520,time_signature,30,1,0,6,8,12,8,,,,,,,,
149520,set_tempo,0,1,0,,,,,,540541,,,,,,
149520,note_on,0,0,0,,,,,,,,0,,,83,66
149520,note_on,0,0,0,,,,,,,,0,,,47,47
149610,note_on,90,0,0,,,,,,,,0,,,47,0
149610,note_on,0,0,0,,,,,,,,0,,,83,0
149640,set_tempo,30,1,0,,,,,,524017,,,,,,
149640,note_on,0,0,0,,,,,,,,0,,,66,49
149640,note_on,0,0,0,,,,,,,,0,,,63,34
149730,note_on,90,0,0,,,,,,,,0,,,63,0
149730,note_on,0,0,0,,,,,,,,0,,,66,0
149760,set_tempo,30,1,0,,,,,,506329,,,,,,
149760,note_on,0,0,0,,,,,,,,0,,,71,50
149760,note_on,0,0,0,,,,,,,,0,,,78,60
149760,note_on,0,0,0,,,,,,,,0,,,54,32
149760,note_on,0,0,0,,,,,,,,0,,,59,44
149850,note_on,90,0,0,,,,,,,,0,,,59,0
149850,note_on,0,0,0,,,,,,,,0,,,71,0
149850,note_on,0,0,0,,,,,,,,0,,,78,0
149850,note_on,0,0,0,,,,,,,,0,,,54,0
149880,set_tempo,30,1,0,,,,,,530973,,,,,,
149880,note_on,0,0,0,,,,,,,,0,,,66,49
149880,note_on,0,0,0,,,,,,,,0,,,63,34
149970,note_on,90,0,0,,,,,,,,0,,,63,0
149970,note_on,0,0,0,,,,,,,,0,,,66,0
150000,set_tempo,30,1,0,,,,,,517241,,,,,,
150000,note_on,0,0,0,,,,,,,,0,,,83,64
150000,note_on,0,0,0,,,,,,,,0,,,47,44
150090,note_on,90,0,0,,,,,,,,0,,,47,0
150090,note_on,0,0,0,,,,,,,,0,,,83,0
150120,note_on,30,0,0,,,,,,,,0,,,66,49
150120,note_on,0,0,0,,,,,,,,0,,,63,34
150210,note_on,90,0,0,,,,,,,,0,,,63,0
150210,note_on,0,0,0,,,,,,,,0,,,66,0
150240,note_on,30,0,0,,,,,,,,0,,,85,71
150240,note_on,0,0,0,,,,,,,,0,,,42,45
150330,note_on,90,0,0,,,,,,,,0,,,42,0
150330,note_on,0,0,0,,,,,,,,0,,,85,0
150360,note_on,30,0,0,,,,,,,,0,,,66,49
150360,note_on,0,0,0,,,,,,,,0,,,64,33
150450,note_on,90,0,0,,,,,,,,0,,,64,0
150450,note_on,0,0,0,,,,,,,,0,,,66,0
150480,note_on,30,0,0,,,,,,,,0,,,73,54
150480,note_on,0,0,0,,,,,,,,0,,,78,64
150480,note_on,0,0,0,,,,,,,,0,,,54,34
150480,note_on,0,0,0,,,,,,,,0,,,58,45
150570,note_on,90,0,0,,,,,,,,0,,,58,0
150570,note_on,0,0,0,,,,,,,,0,,,73,0
150570,note_on,0,0,0,,,,,,,,0,,,78,0
150570,note_on,0,0,0,,,,,,,,0,,,54,0
150600,set_tempo,30,1,0,,,,,,530973,,,,,,
150600,note_on,0,0,0,,,,,,,,0,,,66,49
150600,note_on,0,0,0,,,,,,,,0,,,64,36
150690,note_on,90,0,0,,,,,,,,0,,,64,0
150690,note_on,0,0,0,,,,,,,,0,,,66,0
150700,set_tempo,10,1,0,,,,,,508475,,,,,,
150720,set_tempo,20,1,0,,,,,,502092,,,,,,
150720,note_on,0,0,0,,,,,,,,0,,,85,70
150720,note_on,0,0,0,,,,,,,,0,,,42,46
150810,note_on,90,0,0,,,,,,,,0,,,42,0
150810,note_on,0,0,0,,,,,,,,0,,,85,0
150840,note_on,30,0,0,,,,,,,,0,,,66,50
150840,note_on,0,0,0,,,,,,,,0,,,64,36
150930,note_on,90,0,0,,,,,,,,0,,,64,0
150930,note_on,0,0,0,,,,,,,,0,,,66,0
150960,set_tempo,30,1,0,,,,,,533333,,,,,,
150960,note_on,0,0,0,,,,,,,,0,,,87,73
150960,note_on,0,0,0,,,,,,,,0,,,47,47
151080,set_tempo,120,1,0,,,,,,506329,,,,,,
151080,note_on,0,0,0,,,,,,,,0,,,47,0
151080,note_on,0,0,0,,,,,,,,0,,,87,0
151080,note_on,0,0,0,,,,,,,,0,,,66,60
151080,note_on,0,0,0,,,,,,,,0,,,63,39
151100,set_tempo,20,1,0,,,,,,515021,,,,,,
151140,set_tempo,40,1,0,,,,,,512821,,,,,,
151160,set_tempo,20,1,0,,,,,,510638,,,,,,
151170,note_on,10,0,0,,,,,,,,0,,,63,0
151170,note_on,0,0,0,,,,,,,,0,,,66,0
151180,set_tempo,10,1,0,,,,,,508475,,,,,,
151200,note_on,20,0,0,,,,,,,,0,,,75,60
151200,note_on,0,0,0,,,,,,,,0,,,54,39
151220,set_tempo,20,1,0,,,,,,506329,,,,,,
151240,set_tempo,20,1,0,,,,,,504202,,,,,,
151260,set_tempo,20,1,0,,,,,,502092,,,,,,
151290,note_on,30,0,0,,,,,,,,0,,,54,0
151290,note_on,0,0,0,,,,,,,,0,,,75,0
151300,set_tempo,10,1,0,,,,,,500000,,,,,,
151320,set_tempo,20,1,0,,,,,,497925,,,,,,
151320,note_on,0,0,0,,,,,,,,0,,,83,59
151320,note_on,0,0,0,,,,,,,,0,,,47,37
151340,set_tempo,20,1,0,,,,,,495868,,,,,,
151380,set_tempo,40,1,0,,,,,,493827,,,,,,
151400,set_tempo,20,1,0,,,,,,491803,,,,,,
151410,note_on,10,0,0,,,,,,,,0,,,47,0
151410,note_on,0,0,0,,,,,,,,0,,,83,0
151420,set_tempo,10,1,0,,,,,,489796,,,,,,
151440,set_tempo,20,1,0,,,,,,487805,,,,,,
151440,note_on,0,0,0,,,,,,,,0,,,87,57
151440,note_on,0,0,0,,,,,,,,0,,,42,36
151530,note_on,90,0,0,,,,,,,,0,,,42,0
151530,note_on,0,0,0,,,,,,,,0,,,87,0
151560,note_on,30,0,0,,,,,,,,0,,,95,62
151560,note_on,0,0,0,,,,,,,,0,,,35,36
151650,note_on,90,0,0,,,,,,,,0,,,35,0
151650,note_on,0,0,0,,,,,,,,0,,,95,0
151680,set_tempo,30,1,0,,,,,,625000,,,,,,
151800,set_tempo,120,1,0,,,,,,510638,,,,,,
151800,note_on,0,0,0,,,,,,,,0,,,87,37
151800,note_on,0,0,0,,,,,,,,0,,,75,37
151800,note_on,0,0,0,,,,,,,,0,,,71,33
151890,note_on,90,0,0,,,,,,,,0,,,71,0
151890,note_on,0,0,0,,,,,,,,0,,,75,0
151890,note_on,0,0,0,,,,,,,,0,,,87,0
151920,note_on,30,0,0,,,,,,,,0,,,87,41
151920,note_on,0,0,0,,,,,,,,0,,,75,41
151920,note_on,0,0,0,,,,,,,,0,,,71,36
151920,note_on,0,0,0,,,,,,,,0,,,74,36
152010,note_on,90,0,0,,,,,,,,0,,,74,0
152010,note_on,0,0,0,,,,,,,,0,,,87,0
152010,note_on,0,0,0,,,,,,,,0,,,75,0
152010,note_on,0,0,0,,,,,,,,0,,,71,0
152040,note_on,30,0,0,,,,,,,,0,,,87,45
152040,note_on,0,0,0,,,,,,,,0,,,75,45
152040,note_on,0,0,0,,,,,,,,0,,,70,37
152040,note_on,0,0,0,,,,,,,,0,,,73,37
152130,note_on,90,0,0,,,,,,,,0,,,73,0
152130,note_on,0,0,0,,,,,,,,0,,,87,0
152130,note_on,0,0,0,,,,,,,,0,,,75,0
152130,note_on,0,0,0,,,,,,,,0,,,70,0
152160,note_on,30,0,0,,,,,,,,0,,,87,47
152160,note_on,0,0,0,,,,,,,,0,,,75,47
152160,note_on,0,0,0,,,,,,,,0,,,69,41
152160,note_on,0,0,0,,,,,,,,0,,,72,41
152250,note_on,90,0,0,,,,,,,,0,,,72,0
152250,note_on,0,0,0,,,,,,,,0,,,87,0
152250,note_on,0,0,0,,,,,,,,0,,,75,0
152250,note_on,0,0,0,,,,,,,,0,,,69,0
152260,set_tempo,10,1,0,,,,,,512821,,,,,,
152280,set_tempo,20,1,0,,,,,,528634,,,,,,
152280,note_on,0,0,0,,,,,,,,0,,,87,51
152280,note_on,0,0,0,,,,,,,,0,,,75,51
152280,note_on,0,0,0,,,,,,,,0,,,68,45
152280,note_on,0,0,0,,,,,,,,0,,,71,45
152370,note_on,90,0,0,,,,,,,,0,,,71,0
152370,note_on,0,0,0,,,,,,,,0,,,87,0
152370,note_on,0,0,0,,,,,,,,0,,,75,0
152370,note_on,0,0,0,,,,,,,,0,,,68,0
152400,note_on,30,0,0,,,,,,,,0,,,87,70
152400,note_on,0,0,0,,,,,,,,0,,,51,47
152490,note_on,90,0,0,,,,,,,,0,,,51,0
152490,note_on,0,0,0,,,,,,,,0,,,87,0
152520,set_tempo,30,1,0,,,,,,524017,,,,,,
152520,note_on,0,0,0,,,,,,,,0,,,70,49
152520,note_on,0,0,0,,,,,,,,0,,,66,34
152610,note_on,90,0,0,,,,,,,,0,,,66,0
152610,note_on,0,0,0,,,,,,,,0,,,70,0
152640,set_tempo,30,1,0,,,,,,506329,,,,,,
152640,note_on,0,0,0,,,,,,,,0,,,75,50
152640,note_on,0,0,0,,,,,,,,0,,,82,60
152640,note_on,0,0,0,,,,,,,,0,,,58,32
152640,note_on,0,0,0,,,,,,,,0,,,63,44
152730,note_on,90,0,0,,,,,,,,0,,,63,0
152730,note_on,0,0,0,,,,,,,,0,,,75,0
152730,note_on,0,0,0,,,,,,,,0,,,82,0
152730,note_on,0,0,0,,,,,,,,0,,,58,0
152760,set_tempo,30,1,0,,,,,,530973,,,,,,
152760,note_on,0,0,0,,,,,,,,0,,,70,49
152760,note_on,0,0,0,,,,,,,,0,,,66,34
152850,note_on,90,0,0,,,,,,,,0,,,66,0
152850,note_on,0,0,0,,,,,,,,0,,,70,0
152880,set_tempo,30,1,0,,,,,,517241,,,,,,
152880,note_on,0,0,0,,,,,,,,0,,,87,70
152880,note_on,0,0,0,,,,,,,,0,,,51,44
152970,note_on,90,0,0,,,,,,,,0,,,51,0
152970,note_on,0,0,0,,,,,,,,0,,,87,0
153000,note_on,30,0,0,,,,,,,,0,,,70,49
153000,note_on,0,0,0,,,,,,,,0,,,66,34
153090,note_on,90,0,0,,,,,,,,0,,,66,0
153090,note_on,0,0,0,,,,,,,,0,,,70,0
153120,note_on,30,0,0,,,,,,,,0,,,89,76
153120,note_on,0,0,0,,,,,,,,0,,,46,45
153210,note_on,90,0,0,,,,,,,,0,,,46,0
153210,note_on,0,0,0,,,,,,,,0,,,89,0
153240,note_on,30,0,0,,,,,,,,0,,,70,49
153240,note_on,0,0,0,,,,,,,,0,,,68,33
153330,note_on,90,0,0,,,,,,,,0,,,68,0
153330,note_on,0,0,0,,,,,,,,0,,,70,0
153360,note_on,30,0,0,,,,,,,,0,,,77,54
153360,note_on,0,0,0,,,,,,,,0,,,82,64
153360,note_on,0,0,0,,,,,,,,0,,,58,34
153360,note_on,0,0,0,,,,,,,,0,,,62,45
153450,note_on,90,0,0,,,,,,,,0,,,62,0
153450,note_on,0,0,0,,,,,,,,0,,,77,0
153450,note_on,0,0,0,,,,,,,,0,,,82,0
153450,note_on,0,0,0,,,,,,,,0,,,58,0
153480,set_tempo,30,1,0,,,,,,530973,,,,,,
153480,note_on,0,0,0,,,,,,,,0,,,70,49
153480,note_on,0,0,0,,,,,,,,0,,,68,36
153570,note_on,90,0,0,,,,,,,,0,,,68,0
153570,note_on,0,0,0,,,,,,,,0,,,70,0
153580,set_tempo,10,1,0,,,,,,508475,,,,,,
153600,set_tempo,20,1,0,,,,,,502092,,,,,,
153600,note_on,0,0,0,,,,,,,,0,,,89,72
153600,note_on,0,0,0,,,,,,,,0,,,46,46
153690,note_on,90,0,0,,,,,,,,0,,,46,0
153690,note_on,0,0,0,,,,,,,,0,,,89,0
153720,note_on,30,0,0,,,,,,,,0,,,70,50
153720,note_on,0,0,0,,,,,,,,0,,,68,36
153810,note_on,90,0,0,,,,,,,,0,,,68,0
153810,note_on,0,0,0,,,,,,,,0,,,70,0
153840,set_tempo,30,1,0,,,,,,533333,,,,,,
153840,note_on,0,0,0,,,,,,,,0,,,90,79
153840,note_on,0,0,0,,,,,,,,0,,,51,47
153960,set_tempo,120,1,0,,,,,,506329,,,,,,
153960,note_on,0,0,0,,,,,,,,0,,,51,0
153960,note_on,0,0,0,,,,,,,,0,,,90,0
153960,note_on,0,0,0,,,,,,,,0,,,70,60
153960,note_on,0,0,0,,,,,,,,0,,,66,39
153980,set_tempo,20,1,0,,,,,,515021,,,,,,
154020,set_tempo,40,1,0,,,,,,512821,,,,,,
154040,set_tempo,20,1,0,,,,,,510638,,,,,,
154050,note_on,10,0,0,,,,,,,,0,,,66,0
154050,note_on,0,0,0,,,,,,,,0,,,70,0
154060,set_tempo,10,1,0,,,,,,508475,,,,,,
154080,note_on,20,0,0,,,,,,,,0,,,78,60
154080,note_on,0,0,0,,,,,,,,0,,,58,39
154100,set_tempo,20,1,0,,,,,,506329,,,,,,
154120,set_tempo,20,1,0,,,,,,504202,,,,,,
154140,set_tempo,20,1,0,,,,,,502092,,,,,,
154170,note_on,30,0,0,,,,,,,,0,,,58,0
154170,note_on,0,0,0,,,,,,,,0,,,78,0
154180,set_tempo,10,1,0,,,,,,500000,,,,,,
154200,set_tempo,20,1,0,,,,,,497925,,,,,,
154200,note_on,0,0,0,,,,,,,,0,,,87,59
154200,note_on,0,0,0,,,,,,,,0,,,51,37
154220,set_tempo,20,1,0,,,,,,495868,,,,,,
154260,set_tempo,40,1,0,,,,,,493827,,,,,,
154280,set_tempo,20,1,0,,,,,,491803,,,,,,
154290,note_on,10,0,0,,,,,,,,0,,,51,0
154290,note_on,0,0,0,,,,,,,,0,,,87,0
154300,set_tempo,10,1,0,,,,,,489796,,,,,,
154320,set_tempo,20,1,0,,,,,,487805,,,,,,
154320,note_on,0,0,0,,,,,,,,0,,,90,59
154320,note_on,0,0,0,,,,,,,,0,,,46,37
154410,note_on,90,0,0,,,,,,,,0,,,46,0
154410,note_on,0,0,0,,,,,,,,0,,,90,0
154440,note_on,30,0,0,,,,,,,,0,,,99,62
154440,note_on,0,0,0,,,,,,,,0,,,39,36
154530,note_on,90,0,0,,,,,,,,0,,,39,0
154530,note_on,0,0,0,,,,,,,,0,,,99,0
154560,set_tempo,30,1,0,,,,,,625000,,,,,,
154680,set_tempo,120,1,0,,,,,,510638,,,,,,
154680,note_on,0,0,0,,,,,,,,0,,,90,37
154680,note_on,0,0,0,,,,,,,,0,,,78,37
154680,note_on,0,0,0,,,,,,,,0,,,75,33
154770,note_on,90,0,0,,,,,,,,0,,,75,0
154770,note_on,0,0,0,,,,,,,,0,,,78,0
154770,note_on,0,0,0,,,,,,,,0,,,90,0
154800,note_on,30,0,0,,,,,,,,0,,,90,41
154800,note_on,0,0,0,,,,,,,,0,,,78,41
154800,note_on,0,0,0,,,,,,,,0,,,74,36
154800,note_on,0,0,0,,,,,,,,0,,,77,36
154890,note_on,90,0,0,,,,,,,,0,,,77,0
154890,note_on,0,0,0,,,,,,,,0,,,90,0
154890,note_on,0,0,0,,,,,,,,0,,,78,0
154890,note_on,0,0,0,,,,,,,,0,,,74,0
154920,note_on,30,0,0,,,,,,,,0,,,90,45
154920,note_on,0,0,0,,,,,,,,0,,,78,45
154920,note_on,0,0,0,,,,,,,,0,,,73,37
154920,note_on,0,0,0,,,,,,,,0,,,76,37
155010,note_on,90,0,0,,,,,,,,0,,,76,0
155010,note_on,0,0,0,,,,,,,,0,,,90,0
155010,note_on,0,0,0,,,,,,,,0,,,78,0
155010,note_on,0,0,0,,,,,,,,0,,,73,0
155040,note_on,30,0,0,,,,,,,,0,,,90,47
155040,note_on,0,0,0,,,,,,,,0,,,78,47
155040,note_on,0,0,0,,,,,,,,0,,,72,41
155040,note_on,0,0,0,,,,,,,,0,,,75,41
155130,note_on,90,0,0,,,,,,,,0,,,75,0
155130,note_on,0,0,0,,,,,,,,0,,,90,0
155130,note_on,0,0,0,,,,,,,,0,,,78,0
155130,note_on,0,0,0,,,,,,,,0,,,72,0
155140,set_tempo,10,1,0,,,,,,512821,,,,,,
155160,set_tempo,20,1,0,,,,,,528634,,,,,,
155160,note_on,0,0,0,,,,,,,,0,,,90,51
155160,note_on,0,0,0,,,,,,,,0,,,78,51
155160,note_on,0,0,0,,,,,,,,0,,,71,45
155160,note_on,0,0,0,,,,,,,,0,,,74,45
155250,note_on,90,0,0,,,,,,,,0,,,74,0
155250,note_on,0,0,0,,,,,,,,0,,,90,0
155250,note_on,0,0,0,,,,,,,,0,,,78,0
155250,note_on,0,0,0,,,,,,,,0,,,71,0
155280,note_on,30,0,0,,,,,,,,0,,,90,70
155280,note_on,0,0,0,,,,,,,,0,,,54,47
155370,note_on,90,0,0,,,,,,,,0,,,54,0
155370,note_on,0,0,0,,,,,,,,0,,,90,0
155400,set_tempo,30,1,0,,,,,,524017,,,,,,
155400,note_on,0,0,0,,,,,,,,0,,,73,49
155400,note_on,0,0,0,,,,,,,,0,,,70,34
155490,note_on,90,0,0,,,,,,,,0,,,70,0
155490,note_on,0,0,0,,,,,,,,0,,,73,0
155520,set_tempo,30,1,0,,,,,,506329,,,,,,
155520,note_on,0,0,0,,,,,,,,0,,,78,50
155520,note_on,0,0,0,,,,,,,,0,,,85,60
155520,note_on,0,0,0,,,,,,,,0,,,61,32
155520,note_on,0,0,0,,,,,,,,0,,,66,44
155610,note_on,90,0,0,,,,,,,,0,,,66,0
155610,note_on,0,0,0,,,,,,,,0,,,78,0
155610,note_on,0,0,0,,,,,,,,0,,,85,0
155610,note_on,0,0,0,,,,,,,,0,,,61,0
155640,set_tempo,30,1,0,,,,,,530973,,,,,,
155640,note_on,0,0,0,,,,,,,,0,,,73,49
155640,note_on,0,0,0,,,,,,,,0,,,70,34
155730,note_on,90,0,0,,,,,,,,0,,,70,0
155730,note_on,0,0,0,,,,,,,,0,,,73,0
155760,set_tempo,30,1,0,,,,,,517241,,,,,,
155760,note_on,0,0,0,,,,,,,,0,,,90,70
155760,note_on,0,0,0,,,,,,,,0,,,54,44
155850,note_on,90,0,0,,,,,,,,0,,,54,0
155850,note_on,0,0,0,,,,,,,,0,,,90,0
155880,note_on,30,0,0,,,,,,,,0,,,73,49
155880,note_on,0,0,0,,,,,,,,0,,,70,34
155970,note_on,90,0,0,,,,,,,,0,,,70,0
155970,note_on,0,0,0,,,,,,,,0,,,73,0
156000,note_on,30,0,0,,,,,,,,0,,,92,76
156000,note_on,0,0,0,,,,,,,,0,,,49,45
156090,note_on,90,0,0,,,,,,,,0,,,49,0
156090,note_on,0,0,0,,,,,,,,0,,,92,0
156120,note_on,30,0,0,,,,,,,,0,,,73,49
156120,note_on,0,0,0,,,,,,,,0,,,71,33
156210,note_on,90,0,0,,,,,,,,0,,,71,0
156210,note_on,0,0,0,,,,,,,,0,,,73,0
156240,note_on,30,0,0,,,,,,,,0,,,80,54
156240,note_on,0,0,0,,,,,,,,0,,,85,64
156240,note_on,0,0,0,,,,,,,,0,,,61,34
156240,note_on,0,0,0,,,,,,,,0,,,65,45
156330,note_on,90,0,0,,,,,,,,0,,,65,0
156330,note_on,0,0,0,,,,,,,,0,,,80,0
156330,note_on,0,0,0,,,,,,,,0,,,85,0
156330,note_on,0,0,0,,,,,,,,0,,,61,0
156360,set_tempo,30,1,0,,,,,,530973,,,,,,
156360,note_on,0,0,0,,,,,,,,0,,,73,49
156360,note_on,0,0,0,,,,,,,,0,,,71,36
156450,note_on,90,0,0,,,,,,,,0,,,71,0
156450,note_on,0,0,0,,,,,,,,0,,,73,0
156460,set_tempo,10,1,0,,,,,,508475,,,,,,
156480,set_tempo,20,1,0,,,,,,502092,,,,,,
156480,note_on,0,0,0,,,,,,,,0,,,92,72
156480,note_on,0,0,0,,,,,,,,0,,,49,46
156570,note_on,90,0,0,,,,,,,,0,,,49,0
156570,note_on,0,0,0,,,,,,,,0,,,92,0
156600,note_on,30,0,0,,,,,,,,0,,,73,50
156600,note_on,0,0,0,,,,,,,,0,,,71,36
156680,set_tempo,80,1,0,,,,,,502092,,,,,,
156690,note_on,10,0,0,,,,,,,,0,,,71,0
156690,note_on,0,0,0,,,,,,,,0,,,73,0
156700,set_tempo,10,1,0,,,,,,508475,,,,,,
156720,note_on,20,0,0,,,,,,,,0,,,94,44
156720,note_on,0,0,0,,,,,,,,0,,,90,44
156720,note_on,0,0,0,,,,,,,,0,,,85,44
156720,note_on,0,0,0,,,,,,,,0,,,54,46
156760,set_tempo,40,1,0,,,,,,510638,,,,,,
156777,control_change,17,0,0,,,,,,,,0,64,127,,
156810,note_on,33,0,0,,,,,,,,0,,,85,0
156810,note_on,0,0,0,,,,,,,,0,,,94,0
156810,note_on,0,0,0,,,,,,,,0,,,90,0
156820,set_tempo,10,1,0,,,,,,512821,,,,,,
156840,note_on,20,0,0,,,,,,,,0,,,95,47
156840,note_on,0,0,0,,,,,,,,0,,,92,47
156840,note_on,0,0,0,,,,,,,,0,,,85,47
156880,set_tempo,40,1,0,,,,,,515021,,,,,,
156920,set_tempo,40,1,0,,,,,,517241,,,,,,
156930,note_on,10,0,0,,,,,,,,0,,,85,0
156930,note_on,0,0,0,,,,,,,,0,,,92,0
156930,note_on,0,0,0,,,,,,,,0,,,95,0
156940,set_tempo,10,1,0,,,,,,520743,,,,,,
156960,note_on,20,0,0,,,,,,,,0,,,54,0
156960,note_on,0,0,0,,,,,,,,0,,,97,52
156960,note_on,0,0,0,,,,,,,,0,,,94,52
156960,note_on,0,0,0,,,,,,,,0,,,85,52
156960,note_on,0,0,0,,,,,,,,0,,,61,45
157050,note_on,90,0,0,,,,,,,,0,,,61,0
157050,note_on,0,0,0,,,,,,,,0,,,97,0
157050,note_on,0,0,0,,,,,,,,0,,,94,0
157050,note_on,0,0,0,,,,,,,,0,,,85,0
157080,note_on,30,0,0,,,,,,,,0,,,97,52
157080,note_on,0,0,0,,,,,,,,0,,,94,52
157080,note_on,0,0,0,,,,,,,,0,,,85,52
157080,note_on,0,0,0,,,,,,,,0,,,70,45
157170,note_on,90,0,0,,,,,,,,0,,,70,0
157170,note_on,0,0,0,,,,,,,,0,,,97,0
157170,note_on,0,0,0,,,,,,,,0,,,94,0
157170,note_on,0,0,0,,,,,,,,0,,,85,0
157200,set_tempo,30,1,0,,,,,,503398,,,,,,
157200,note_on,0,0,0,,,,,,,,0,,,95,50
157200,note_on,0,0,0,,,,,,,,0,,,92,50
157200,note_on,0,0,0,,,,,,,,0,,,85,50
157200,note_on,0,0,0,,,,,,,,0,,,78,43
157290,note_on,90,0,0,,,,,,,,0,,,78,0
157290,note_on,0,0,0,,,,,,,,0,,,95,0
157290,note_on,0,0,0,,,,,,,,0,,,92,0
157290,note_on,0,0,0,,,,,,,,0,,,85,0
157320,note_on,30,0,0,,,,,,,,0,,,94,47
157320,note_on,0,0,0,,,,,,,,0,,,90,47
157320,note_on,0,0,0,,,,,,,,0,,,85,47
157320,note_on,0,0,0,,,,,,,,0,,,82,41
157410,note_on,90,0,0,,,,,,,,0,,,82,0
157410,note_on,0,0,0,,,,,,,,0,,,94,0
157410,note_on,0,0,0,,,,,,,,0,,,90,0
157410,note_on,0,0,0,,,,,,,,0,,,85,0
157428,control_change,18,0,0,,,,,,,,0,64,0,,
157440,set_tempo,12,1,0,,,,,,506329,,,,,,
157440,note_on,0,0,0,,,,,,,,0,,,92,46
157440,note_on,0,0,0,,,,,,,,0,,,87,46
157440,note_on,0,0,0,,,,,,,,0,,,83,46
157440,note_on,0,0,0,,,,,,,,0,,,47,40
157503,control_change,63,0,0,,,,,,,,0,64,127,,
157520,set_tempo,17,1,0,,,,,,508475,,,,,,
157530,note_on,10,0,0,,,,,,,,0,,,83,0
157530,note_on,0,0,0,,,,,,,,0,,,92,0
157530,note_on,0,0,0,,,,,,,,0,,,87,0
157560,note_on,30,0,0,,,,,,,,0,,,94,50
157560,note_on,0,0,0,,,,,,,,0,,,87,50
157560,note_on,0,0,0,,,,,,,,0,,,85,50
157600,set_tempo,40,1,0,,,,,,510638,,,,,,
157650,note_on,50,0,0,,,,,,,,0,,,85,0
157650,note_on,0,0,0,,,,,,,,0,,,87,0
157650,note_on,0,0,0,,,,,,,,0,,,94,0
157680,set_tempo,30,1,0,,,,,,512821,,,,,,
157680,note_on,0,0,0,,,,,,,,0,,,47,0
157680,note_on,0,0,0,,,,,,,,0,,,87,54
157680,note_on,0,0,0,,,,,,,,0,,,95,54
157680,note_on,0,0,0,,,,,,,,0,,,59,43
157770,note_on,90,0,0,,,,,,,,0,,,59,0
157770,note_on,0,0,0,,,,,,,,0,,,95,0
157770,note_on,0,0,0,,,,,,,,0,,,87,0
157800,note_on,30,0,0,,,,,,,,0,,,95,54
157800,note_on,0,0,0,,,,,,,,0,,,87,54
157800,note_on,0,0,0,,,,,,,,0,,,68,41
157890,note_on,90,0,0,,,,,,,,0,,,68,0
157890,note_on,0,0,0,,,,,,,,0,,,87,0
157890,note_on,0,0,0,,,,,,,,0,,,95,0
157920,set_tempo,30,1,0,,,,,,497925,,,,,,
157920,note_on,0,0,0,,,,,,,,0,,,94,47
157920,note_on,0,0,0,,,,,,,,0,,,87,47
157920,note_on,0,0,0,,,,,,,,0,,,85,47
157920,note_on,0,0,0,,,,,,,,0,,,75,41
158010,note_on,90,0,0,,,,,,,,0,,,75,0
158010,note_on,0,0,0,,,,,,,,0,,,94,0
158010,note_on,0,0,0,,,,,,,,0,,,87,0
158010,note_on,0,0,0,,,,,,,,0,,,85,0
158040,note_on,30,0,0,,,,,,,,0,,,92,45
158040,note_on,0,0,0,,,,,,,,0,,,87,45
158040,note_on,0,0,0,,,,,,,,0,,,83,45
158040,note_on,0,0,0,,,,,,,,0,,,80,40
158130,note_on,90,0,0,,,,,,,,0,,,80,0
158130,note_on,0,0,0,,,,,,,,0,,,92,0
158130,note_on,0,0,0,,,,,,,,0,,,87,0
158130,note_on,0,0,0,,,,,,,,0,,,83,0
158160,set_tempo,30,1,0,,,,,,500000,,,,,,
158160,note_on,0,0,0,,,,,,,,0,,,90,45
158160,note_on,0,0,0,,,,,,,,0,,,85,45
158160,note_on,0,0,0,,,,,,,,0,,,82,45
158160,note_on,0,0,0,,,,,,,,0,,,49,45
158177,control_change,17,0,0,,,,,,,,0,64,0,,
158220,set_tempo,43,1,0,,,,,,502092,,,,,,
158235,control_change,15,0,0,,,,,,,,0,64,127,,
158250,note_on,15,0,0,,,,,,,,0,,,82,0
158250,note_on,0,0,0,,,,,,,,0,,,90,0
158250,note_on,0,0,0,,,,,,,,0,,,85,0
158260,set_tempo,10,1,0,,,,,,504202,,,,,,
158280,note_on,20,0,0,,,,,,,,0,,,83,47
158280,note_on,0,0,0,,,,,,,,0,,,85,47
158280,note_on,0,0,0,,,,,,,,0,,,92,47
158320,set_tempo,40,1,0,,,,,,506329,,,,,,
158360,set_tempo,40,1,0,,,,,,508475,,,,,,
158370,note_on,10,0,0,,,,,,,,0,,,92,0
158370,note_on,0,0,0,,,,,,,,0,,,85,0
158370,note_on,0,0,0,,,,,,,,0,,,83,0
158400,set_tempo,30,1,0,,,,,,510638,,,,,,
158400,note_on,0,0,0,,,,,,,,0,,,49,0
158400,note_on,0,0,0,,,,,,,,0,,,94,52
158400,note_on,0,0,0,,,,,,,,0,,,85,52
158400,note_on,0,0,0,,,,,,,,0,,,58,43
158490,note_on,90,0,0,,,,,,,,0,,,58,0
158490,note_on,0,0,0,,,,,,,,0,,,85,0
158490,note_on,0,0,0,,,,,,,,0,,,94,0
158520,note_on,30,0,0,,,,,,,,0,,,85,52
158520,note_on,0,0,0,,,,,,,,0,,,94,52
158520,note_on,0,0,0,,,,,,,,0,,,66,41
158610,note_on,90,0,0,,,,,,,,0,,,66,0
158610,note_on,0,0,0,,,,,,,,0,,,94,0
158610,note_on,0,0,0,,,,,,,,0,,,85,0
158640,set_tempo,30,1,0,,,,,,497925,,,,,,
158640,note_on,0,0,0,,,,,,,,0,,,85,49
158640,note_on,0,0,0,,,,,,,,0,,,83,49
158640,note_on,0,0,0,,,,,,,,0,,,92,49
158640,note_on,0,0,0,,,,,,,,0,,,73,40
158730,note_on,90,0,0,,,,,,,,0,,,73,0
158730,note_on,0,0,0,,,,,,,,0,,,85,0
158730,note_on,0,0,0,,,,,,,,0,,,83,0
158730,note_on,0,0,0,,,,,,,,0,,,92,0
158760,note_on,30,0,0,,,,,,,,0,,,90,46
158760,note_on,0,0,0,,,,,,,,0,,,85,46
158760,note_on,0,0,0,,,,,,,,0,,,82,46
158760,note_on,0,0,0,,,,,,,,0,,,78,37
158850,note_on,90,0,0,,,,,,,,0,,,78,0
158850,note_on,0,0,0,,,,,,,,0,,,90,0
158850,note_on,0,0,0,,,,,,,,0,,,85,0
158850,note_on,0,0,0,,,,,,,,0,,,82,0
158880,set_tempo,30,1,0,,,,,,493827,,,,,,
158880,note_on,0,0,0,,,,,,,,0,,,80,45
158880,note_on,0,0,0,,,,,,,,0,,,85,45
158880,note_on,0,0,0,,,,,,,,0,,,89,45
158880,note_on,0,0,0,,,,,,,,0,,,61,47
158900,control_change,20,0,0,,,,,,,,0,64,0,,
158920,set_tempo,20,1,0,,,,,,495868,,,,,,
158960,set_tempo,40,1,0,,,,,,497925,,,,,,
158966,control_change,6,0,0,,,,,,,,0,64,127,,
158970,note_on,4,0,0,,,,,,,,0,,,89,0
158970,note_on,0,0,0,,,,,,,,0,,,80,0
158970,note_on,0,0,0,,,,,,,,0,,,85,0
159000,set_tempo,30,1,0,,,,,,500000,,,,,,
159000,note_on,0,0,0,,,,,,,,0,,,90,46
159000,note_on,0,0,0,,,,,,,,0,,,85,46
159000,note_on,0,0,0,,,,,,,,0,,,82,46
159020,set_tempo,20,1,0,,,,,,502092,,,,,,
159060,set_tempo,40,1,0,,,,,,504202,,,,,,
159090,note_on,30,0,0,,,,,,,,0,,,82,0
159090,note_on,0,0,0,,,,,,,,0,,,85,0
159090,note_on,0,0,0,,,,,,,,0,,,90,0
159100,set_tempo,10,1,0,,,,,,506329,,,,,,
159120,set_tempo,20,1,0,,,,,,508475,,,,,,
159120,note_on,0,0,0,,,,,,,,0,,,61,0
159120,note_on,0,0,0,,,,,,,,0,,,83,50
159120,note_on,0,0,0,,,,,,,,0,,,85,50
159120,note_on,0,0,0,,,,,,,,0,,,92,50
159120,note_on,0,0,0,,,,,,,,0,,,77,43
159210,note_on,90,0,0,,,,,,,,0,,,77,0
159210,note_on,0,0,0,,,,,,,,0,,,83,0
159210,note_on,0,0,0,,,,,,,,0,,,85,0
159210,note_on,0,0,0,,,,,,,,0,,,92,0
159240,note_on,30,0,0,,,,,,,,0,,,83,50
159240,note_on,0,0,0,,,,,,,,0,,,85,50
159240,note_on,0,0,0,,,,,,,,0,,,92,50
159240,note_on,0,0,0,,,,,,,,0,,,68,41
159330,note_on,90,0,0,,,,,,,,0,,,68,0
159330,note_on,0,0,0,,,,,,,,0,,,83,0
159330,note_on,0,0,0,,,,,,,,0,,,85,0
159330,note_on,0,0,0,,,,,,,,0,,,92,0
159360,set_tempo,30,1,0,,,,,,505561,,,,,,
159360,note_on,0,0,0,,,,,,,,0,,,78,47
159360,note_on,0,0,0,,,,,,,,0,,,87,47
159360,note_on,0,0,0,,,,,,,,0,,,85,47
159360,note_on,0,0,0,,,,,,,,0,,,61,40
159372,control_change,12,0,0,,,,,,,,0,64,0,,
159446,control_change,74,0,0,,,,,,,,0,64,127,,
159450,note_on,4,0,0,,,,,,,,0,,,61,0
159450,note_on,0,0,0,,,,,,,,0,,,78,0
159450,note_on,0,0,0,,,,,,,,0,,,87,0
159450,note_on,0,0,0,,,,,,,,0,,,85,0
159480,note_on,30,0,0,,,,,,,,0,,,89,45
159480,note_on,0,0,0,,,,,,,,0,,,85,45
159480,note_on,0,0,0,,,,,,,,0,,,80,45
159480,note_on,0,0,0,,,,,,,,0,,,71,39
159570,note_on,90,0,0,,,,,,,,0,,,71,0
159570,note_on,0,0,0,,,,,,,,0,,,89,0
159570,note_on,0,0,0,,,,,,,,0,,,85,0
159570,note_on,0,0,0,,,,,,,,0,,,80,0
159600,set_tempo,30,1,0,,,,,,536673,,,,,,
159600,note_on,0,0,0,,,,,,,,0,,,90,50
159600,note_on,0,0,0,,,,,,,,0,,,85,50
159600,note_on,0,0,0,,,,,,,,0,,,78,50
159600,control_change,0,0,0,,,,,,,,0,64,0,,
159600,note_on,0,0,0,,,,,,,,0,,,66,46
159600,note_on,0,0,0,,,,,,,,0,,,70,46
159680,control_change,80,0,0,,,,,,,,0,64,127,,
159817,control_change,137,0,0,,,,,,,,0,64,0,,
159840,note_on,23,0,0,,,,,,,,0,,,70,0
159840,note_on,0,0,0,,,,,,,,0,,,78,0
159840,note_on,0,0,0,,,,,,,,0,,,90,0
159840,note_on,0,0,0,,,,,,,,0,,,85,0
159840,note_on,0,0,0,,,,,,,,0,,,66,0
159840,note_on,0,0,0,,,,,,,,0,,,42,61
159840,note_on,0,0,0,,,,,,,,0,,,54,61
159842,set_tempo,2,1,0,,,,,,589391,,,,,,
159862,set_tempo,20,1,0,,,,,,586510,,,,,,
159882,set_tempo,20,1,0,,,,,,580833,,,,,,
159902,set_tempo,20,1,0,,,,,,578035,,,,,,
159922,set_tempo,20,1,0,,,,,,572519,,,,,,
159930,note_on,8,0,0,,,,,,,,0,,,54,0
159930,note_on,0,0,0,,,,,,,,0,,,42,0
159942,set_tempo,12,1,0,,,,,,569801,,,,,,
159960,note_on,18,0,0,,,,,,,,0,,,42,64
159960,note_on,0,0,0,,,,,,,,0,,,54,64
159962,set_tempo,2,1,0,,,,,,564440,,,,,,
159982,set_tempo,20,1,0,,,,,,561798,,,,,,
160002,set_tempo,20,1,0,,,,,,556586,,,,,,
160022,set_tempo,20,1,0,,,,,,554017,,,,,,
160042,set_tempo,20,1,0,,,,,,548948,,,,,,
160050,note_on,8,0,0,,,,,,,,0,,,54,0
160050,note_on,0,0,0,,,,,,,,0,,,42,0
160062,set_tempo,12,1,0,,,,,,546448,,,,,,
160080,note_on,18,0,0,,,,,,,,0,,,43,66
160080,note_on,0,0,0,,,,,,,,0,,,55,66
160082,set_tempo,2,1,0,,,,,,541516,,,,,,
160102,set_tempo,20,1,0,,,,,,539084,,,,,,
160122,set_tempo,20,1,0,,,,,,534283,,,,,,
160142,set_tempo,20,1,0,,,,,,531915,,,,,,
160162,set_tempo,20,1,0,,,,,,527241,,,,,,
160170,note_on,8,0,0,,,,,,,,0,,,55,0
160170,note_on,0,0,0,,,,,,,,0,,,43,0
160200,note_on,30,0,0,,,,,,,,0,,,43,70
160200,note_on,0,0,0,,,,,,,,0,,,55,70
160202,set_tempo,2,1,0,,,,,,522648,,,,,,
160282,set_tempo,80,1,0,,,,,,520382,,,,,,
160290,note_on,8,0,0,,,,,,,,0,,,55,0
160290,note_on,0,0,0,,,,,,,,0,,,43,0
160320,note_on,30,0,0,,,,,,,,0,,,44,71
160320,note_on,0,0,0,,,,,,,,0,,,56,71
160382,set_tempo,62,1,0,,,,,,518135,,,,,,
160410,note_on,28,0,0,,,,,,,,0,,,56,0
160410,note_on,0,0,0,,,,,,,,0,,,44,0
160417,control_change,7,0,0,,,,,,,,0,64,127,,
160440,note_on,23,0,0,,,,,,,,0,,,44,71
160440,note_on,0,0,0,,,,,,,,0,,,56,71
160462,set_tempo,22,1,0,,,,,,515907,,,,,,
160530,note_on,68,0,0,,,,,,,,0,,,56,0
160530,note_on,0,0,0,,,,,,,,0,,,44,0
160542,set_tempo,12,1,0,,,,,,513699,,,,,,
160560,set_tempo,18,1,0,,,,,,463320,,,,,,
160560,note_on,0,0,0,,,,,,,,0,,,56,64
160560,note_on,0,0,0,,,,,,,,0,,,68,64
160650,note_on,90,0,0,,,,,,,,0,,,68,0
160650,note_on,0,0,0,,,,,,,,0,,,56,0
160680,note_on,30,0,0,,,,,,,,0,,,56,64
160680,note_on,0,0,0,,,,,,,,0,,,68,64
160770,note_on,90,0,0,,,,,,,,0,,,68,0
160770,note_on,0,0,0,,,,,,,,0,,,56,0
160800,note_on,30,0,0,,,,,,,,0,,,68,64
160800,note_on,0,0,0,,,,,,,,0,,,80,64
160890,note_on,90,0,0,,,,,,,,0,,,80,0
160890,note_on,0,0,0,,,,,,,,0,,,68,0
160920,note_on,30,0,0,,,,,,,,0,,,68,64
160920,note_on,0,0,0,,,,,,,,0,,,80,64
161010,note_on,90,0,0,,,,,,,,0,,,80,0
161010,note_on,0,0,0,,,,,,,,0,,,68,0
161040,set_tempo,30,1,0,,,,,,558140,,,,,,
161040,note_on,0,0,0,,,,,,,,0,,,80,71
161040,note_on,0,0,0,,,,,,,,0,,,92,71
161280,set_tempo,240,1,0,,,,,,493827,,,,,,
161280,note_on,0,0,0,,,,,,,,0,,,92,0
161280,note_on,0,0,0,,,,,,,,0,,,80,0
161280,note_on,0,0,0,,,,,,,,0,,,90,45
161280,note_on,0,0,0,,,,,,,,0,,,102,45
161280,control_change,0,0,0,,,,,,,,0,64,0,,
161280,note_on,0,0,0,,,,,,,,0,,,75,54
161280,note_on,0,0,0,,,,,,,,0,,,80,54
161300,set_tempo,20,1,0,,,,,,475022,,,,,,
161370,note_on,70,0,0,,,,,,,,0,,,80,0
161370,note_on,0,0,0,,,,,,,,0,,,90,0
161370,note_on,0,0,0,,,,,,,,0,,,102,0
161400,note_on,30,0,0,,,,,,,,0,,,102,45
161400,note_on,0,0,0,,,,,,,,0,,,90,45
161400,note_on,0,0,0,,,,,,,,0,,,80,43
161490,note_on,90,0,0,,,,,,,,0,,,80,0
161490,note_on,0,0,0,,,,,,,,0,,,90,0
161490,note_on,0,0,0,,,,,,,,0,,,102,0
161520,note_on,30,0,0,,,,,,,,0,,,75,0
161520,note_on,0,0,0,,,,,,,,0,,,88,45
161520,note_on,0,0,0,,,,,,,,0,,,100,45
161520,note_on,0,0,0,,,,,,,,0,,,73,43
161520,note_on,0,0,0,,,,,,,,0,,,80,43
161610,note_on,90,0,0,,,,,,,,0,,,80,0
161610,note_on,0,0,0,,,,,,,,0,,,88,0
161610,note_on,0,0,0,,,,,,,,0,,,100,0
161640,note_on,30,0,0,,,,,,,,0,,,100,45
161640,note_on,0,0,0,,,,,,,,0,,,88,45
161640,note_on,0,0,0,,,,,,,,0,,,80,43
161730,note_on,90,0,0,,,,,,,,0,,,80,0
161730,note_on,0,0,0,,,,,,,,0,,,88,0
161730,note_on,0,0,0,,,,,,,,0,,,100,0
161760,set_tempo,30,1,0,,,,,,480962,,,,,,
161760,note_on,0,0,0,,,,,,,,0,,,73,0
161760,note_on,0,0,0,,,,,,,,0,,,99,45
161760,note_on,0,0,0,,,,,,,,0,,,87,45
161760,note_on,0,0,0,,,,,,,,0,,,72,43
161760,note_on,0,0,0,,,,,,,,0,,,80,43
161850,note_on,90,0,0,,,,,,,,0,,,80,0
161850,note_on,0,0,0,,,,,,,,0,,,99,0
161850,note_on,0,0,0,,,,,,,,0,,,87,0
161880,note_on,30,0,0,,,,,,,,0,,,87,45
161880,note_on,0,0,0,,,,,,,,0,,,99,45
161880,note_on,0,0,0,,,,,,,,0,,,80,43
161970,note_on,90,0,0,,,,,,,,0,,,80,0
161970,note_on,0,0,0,,,,,,,,0,,,99,0
161970,note_on,0,0,0,,,,,,,,0,,,87,0
162000,set_tempo,30,1,0,,,,,,466926,,,,,,
162000,note_on,0,0,0,,,,,,,,0,,,72,0
162000,note_on,0,0,0,,,,,,,,0,,,85,45
162000,note_on,0,0,0,,,,,,,,0,,,97,45
162000,note_on,0,0,0,,,,,,,,0,,,70,43
162000,note_on,0,0,0,,,,,,,,0,,,80,43
162090,note_on,90,0,0,,,,,,,,0,,,80,0
162090,note_on,0,0,0,,,,,,,,0,,,85,0
162090,note_on,0,0,0,,,,,,,,0,,,97,0
162120,note_on,30,0,0,,,,,,,,0,,,97,45
162120,note_on,0,0,0,,,,,,,,0,,,85,45
162120,note_on,0,0,0,,,,,,,,0,,,80,43
162210,note_on,90,0,0,,,,,,,,0,,,80,0
162210,note_on,0,0,0,,,,,,,,0,,,85,0
162210,note_on,0,0,0,,,,,,,,0,,,97,0
162240,set_tempo,30,1,0,,,,,,458015,,,,,,
162240,note_on,0,0,0,,,,,,,,0,,,70,0
162240,note_on,0,0,0,,,,,,,,0,,,99,45
162240,note_on,0,0,0,,,,,,,,0,,,87,45
162240,note_on,0,0,0,,,,,,,,0,,,72,43
162240,note_on,0,0,0,,,,,,,,0,,,80,43
162330,note_on,90,0,0,,,,,,,,0,,,80,0
162330,note_on,0,0,0,,,,,,,,0,,,99,0
162330,note_on,0,0,0,,,,,,,,0,,,87,0
162360,note_on,30,0,0,,,,,,,,0,,,99,45
162360,note_on,0,0,0,,,,,,,,0,,,87,45
162360,note_on,0,0,0,,,,,,,,0,,,80,43
162450,note_on,90,0,0,,,,,,,,0,,,80,0
162450,note_on,0,0,0,,,,,,,,0,,,87,0
162450,note_on,0,0,0,,,,,,,,0,,,99,0
162480,set_tempo,30,1,0,,,,,,551471,,,,,,
162480,note_on,0,0,0,,,,,,,,0,,,72,0
162480,note_on,0,0,0,,,,,,,,0,,,100,47
162480,note_on,0,0,0,,,,,,,,0,,,88,47
162480,note_on,0,0,0,,,,,,,,0,,,73,46
162480,note_on,0,0,0,,,,,,,,0,,,80,46
162720,set_tempo,240,1,0,,,,,,500000,,,,,,
162720,note_on,0,0,0,,,,,,,,0,,,80,0
162720,note_on,0,0,0,,,,,,,,0,,,100,0
162720,note_on,0,0,0,,,,,,,,0,,,88,0
162720,note_on,0,0,0,,,,,,,,0,,,73,0
162720,note_on,0,0,0,,,,,,,,0,,,44,61
162720,note_on,0,0,0,,,,,,,,0,,,56,61
162742,set_tempo,22,1,0,,,,,,569801,,,,,,
162762,set_tempo,20,1,0,,,,,,567108,,,,,,
162782,set_tempo,20,1,0,,,,,,564440,,,,,,
162802,set_tempo,20,1,0,,,,,,561798,,,,,,
162810,note_on,8,0,0,,,,,,,,0,,,56,0
162810,note_on,0,0,0,,,,,,,,0,,,44,0
162822,set_tempo,12,1,0,,,,,,559180,,,,,,
162840,note_on,18,0,0,,,,,,,,0,,,44,64
162840,note_on,0,0,0,,,,,,,,0,,,56,64
162842,set_tempo,2,1,0,,,,,,556586,,,,,,
162862,set_tempo,20,1,0,,,,,,554017,,,,,,
162882,set_tempo,20,1,0,,,,,,551471,,,,,,
162902,set_tempo,20,1,0,,,,,,548948,,,,,,
162922,set_tempo,20,1,0,,,,,,546448,,,,,,
162930,note_on,8,0,0,,,,,,,,0,,,56,0
162930,note_on,0,0,0,,,,,,,,0,,,44,0
162942,set_tempo,12,1,0,,,,,,543971,,,,,,
162960,note_on,18,0,0,,,,,,,,0,,,43,66
162960,note_on,0,0,0,,,,,,,,0,,,55,66
162962,set_tempo,2,1,0,,,,,,541516,,,,,,
162982,set_tempo,20,1,0,,,,,,539084,,,,,,
163002,set_tempo,20,1,0,,,,,,536673,,,,,,
163022,set_tempo,20,1,0,,,,,,534283,,,,,,
163042,set_tempo,20,1,0,,,,,,531915,,,,,,
163050,note_on,8,0,0,,,,,,,,0,,,55,0
163050,note_on,0,0,0,,,,,,,,0,,,43,0
163062,set_tempo,12,1,0,,,,,,529568,,,,,,
163080,note_on,18,0,0,,,,,,,,0,,,43,70
163080,note_on,0,0,0,,,,,,,,0,,,55,70
163082,set_tempo,2,1,0,,,,,,527241,,,,,,
163102,set_tempo,20,1,0,,,,,,524934,,,,,,
163122,set_tempo,20,1,0,,,,,,522648,,,,,,
163142,set_tempo,20,1,0,,,,,,520382,,,,,,
163162,set_tempo,20,1,0,,,,,,515907,,,,,,
163170,note_on,8,0,0,,,,,,,,0,,,55,0
163170,note_on,0,0,0,,,,,,,,0,,,43,0
163200,note_on,30,0,0,,,,,,,,0,,,42,71
163200,note_on,0,0,0,,,,,,,,0,,,54,71
163263,control_change,63,0,0,,,,,,,,0,64,127,,
163290,note_on,27,0,0,,,,,,,,0,,,54,0
163290,note_on,0,0,0,,,,,,,,0,,,42,0
163320,note_on,30,0,0,,,,,,,,0,,,42,71
163320,note_on,0,0,0,,,,,,,,0,,,54,71
163410,note_on,90,0,0,,,,,,,,0,,,54,0
163410,note_on,0,0,0,,,,,,,,0,,,42,0
163440,set_tempo,30,1,0,,,,,,463320,,,,,,
163440,note_on,0,0,0,,,,,,,,0,,,54,64
163440,note_on,0,0,0,,,,,,,,0,,,66,64
163530,note_on,90,0,0,,,,,,,,0,,,66,0
163530,note_on,0,0,0,,,,,,,,0,,,54,0
163560,note_on,30,0,0,,,,,,,,0,,,54,64
163560,note_on,0,0,0,,,,,,,,0,,,66,64
163650,note_on,90,0,0,,,,,,,,0,,,66,0
163650,note_on,0,0,0,,,,,,,,0,,,54,0
163680,note_on,30,0,0,,,,,,,,0,,,66,64
163680,note_on,0,0,0,,,,,,,,0,,,78,64
163770,note_on,90,0,0,,,,,,,,0,,,78,0
163770,note_on,0,0,0,,,,,,,,0,,,66,0
163800,note_on,30,0,0,,,,,,,,0,,,66,64
163800,note_on,0,0,0,,,,,,,,0,,,78,64
163890,note_on,90,0,0,,,,,,,,0,,,78,0
163890,note_on,0,0,0,,,,,,,,0,,,66,0
163920,set_tempo,30,1,0,,,,,,552995,,,,,,
163920,note_on,0,0,0,,,,,,,,0,,,78,71
163920,note_on,0,0,0,,,,,,,,0,,,90,71
164160,set_tempo,240,1,0,,,,,,474308,,,,,,
164160,note_on,0,0,0,,,,,,,,0,,,90,0
164160,note_on,0,0,0,,,,,,,,0,,,78,0
164160,note_on,0,0,0,,,,,,,,0,,,88,45
164160,note_on,0,0,0,,,,,,,,0,,,100,45
164160,note_on,0,0,0,,,,,,,,0,,,73,54
164160,note_on,0,0,0,,,,,,,,0,,,78,54
164177,control_change,17,0,0,,,,,,,,0,64,0,,
164250,note_on,73,0,0,,,,,,,,0,,,78,0
164250,note_on,0,0,0,,,,,,,,0,,,88,0
164250,note_on,0,0,0,,,,,,,,0,,,100,0
164280,note_on,30,0,0,,,,,,,,0,,,100,45
164280,note_on,0,0,0,,,,,,,,0,,,88,45
164280,note_on,0,0,0,,,,,,,,0,,,78,43
164370,note_on,90,0,0,,,,,,,,0,,,78,0
164370,note_on,0,0,0,,,,,,,,0,,,88,0
164370,note_on,0,0,0,,,,,,,,0,,,100,0
164400,note_on,30,0,0,,,,,,,,0,,,73,0
164400,note_on,0,0,0,,,,,,,,0,,,87,45
164400,note_on,0,0,0,,,,,,,,0,,,99,45
164400,note_on,0,0,0,,,,,,,,0,,,71,43
164400,note_on,0,0,0,,,,,,,,0,,,78,43
164490,note_on,90,0,0,,,,,,,,0,,,78,0
164490,note_on,0,0,0,,,,,,,,0,,,87,0
164490,note_on,0,0,0,,,,,,,,0,,,99,0
164520,note_on,30,0,0,,,,,,,,0,,,99,45
164520,note_on,0,0,0,,,,,,,,0,,,87,45
164520,note_on,0,0,0,,,,,,,,0,,,78,43
164610,note_on,90,0,0,,,,,,,,0,,,78,0
164610,note_on,0,0,0,,,,,,,,0,,,87,0
164610,note_on,0,0,0,,,,,,,,0,,,99,0
164640,set_tempo,30,1,0,,,,,,483871,,,,,,
164640,note_on,0,0,0,,,,,,,,0,,,71,0
164640,note_on,0,0,0,,,,,,,,0,,,97,45
164640,note_on,0,0,0,,,,,,,,0,,,85,45
164640,note_on,0,0,0,,,,,,,,0,,,70,43
164640,note_on,0,0,0,,,,,,,,0,,,78,43
164730,note_on,90,0,0,,,,,,,,0,,,78,0
164730,note_on,0,0,0,,,,,,,,0,,,97,0
164730,note_on,0,0,0,,,,,,,,0,,,85,0
164760,note_on,30,0,0,,,,,,,,0,,,85,45
164760,note_on,0,0,0,,,,,,,,0,,,97,45
164760,note_on,0,0,0,,,,,,,,0,,,78,43
164850,note_on,90,0,0,,,,,,,,0,,,78,0
164850,note_on,0,0,0,,,,,,,,0,,,97,0
164850,note_on,0,0,0,,,,,,,,0,,,85,0
164880,set_tempo,30,1,0,,,,,,468750,,,,,,
164880,note_on,0,0,0,,,,,,,,0,,,70,0
164880,note_on,0,0,0,,,,,,,,0,,,83,45
164880,note_on,0,0,0,,,,,,,,0,,,95,45
164880,note_on,0,0,0,,,,,,,,0,,,68,43
164880,note_on,0,0,0,,,,,,,,0,,,78,43
164970,note_on,90,0,0,,,,,,,,0,,,78,0
164970,note_on,0,0,0,,,,,,,,0,,,83,0
164970,note_on,0,0,0,,,,,,,,0,,,95,0
165000,note_on,30,0,0,,,,,,,,0,,,95,45
165000,note_on,0,0,0,,,,,,,,0,,,83,45
165000,note_on,0,0,0,,,,,,,,0,,,78,43
165090,note_on,90,0,0,,,,,,,,0,,,78,0
165090,note_on,0,0,0,,,,,,,,0,,,83,0
165090,note_on,0,0,0,,,,,,,,0,,,95,0
165120,set_tempo,30,1,0,,,,,,458015,,,,,,
165120,note_on,0,0,0,,,,,,,,0,,,68,0
165120,note_on,0,0,0,,,,,,,,0,,,97,45
165120,note_on,0,0,0,,,,,,,,0,,,85,45
165120,note_on,0,0,0,,,,,,,,0,,,70,43
165120,note_on,0,0,0,,,,,,,,0,,,78,43
165210,note_on,90,0,0,,,,,,,,0,,,78,0
165210,note_on,0,0,0,,,,,,,,0,,,97,0
165210,note_on,0,0,0,,,,,,,,0,,,85,0
165240,note_on,30,0,0,,,,,,,,0,,,97,45
165240,note_on,0,0,0,,,,,,,,0,,,85,45
165240,note_on,0,0,0,,,,,,,,0,,,78,43
165330,note_on,90,0,0,,,,,,,,0,,,78,0
165330,note_on,0,0,0,,,,,,,,0,,,85,0
165330,note_on,0,0,0,,,,,,,,0,,,97,0
165360,set_tempo,30,1,0,,,,,,489796,,,,,,
165360,note_on,0,0,0,,,,,,,,0,,,70,0
165360,note_on,0,0,0,,,,,,,,0,,,99,47
165360,note_on,0,0,0,,,,,,,,0,,,87,47
165360,note_on,0,0,0,,,,,,,,0,,,71,46
165360,note_on,0,0,0,,,,,,,,0,,,78,46
165600,set_tempo,240,1,0,,,,,,510638,,,,,,
165600,note_on,0,0,0,,,,,,,,0,,,78,0
165600,note_on,0,0,0,,,,,,,,0,,,99,0
165600,note_on,0,0,0,,,,,,,,0,,,87,0
165600,note_on,0,0,0,,,,,,,,0,,,71,0
165600,note_on,0,0,0,,,,,,,,0,,,41,63
165600,note_on,0,0,0,,,,,,,,0,,,53,63
165690,note_on,90,0,0,,,,,,,,0,,,53,0
165690,note_on,0,0,0,,,,,,,,0,,,41,0
165720,set_tempo,30,1,0,,,,,,497925,,,,,,
165720,note_on,0,0,0,,,,,,,,0,,,41,65
165720,note_on,0,0,0,,,,,,,,0,,,53,65
165810,note_on,90,0,0,,,,,,,,0,,,53,0
165810,note_on,0,0,0,,,,,,,,0,,,41,0
165840,set_tempo,30,1,0,,,,,,547945,,,,,,
165840,note_on,0,0,0,,,,,,,,0,,,40,67
165840,note_on,0,0,0,,,,,,,,0,,,52,67
165930,note_on,90,0,0,,,,,,,,0,,,52,0
165930,note_on,0,0,0,,,,,,,,0,,,40,0
165960,set_tempo,30,1,0,,,,,,506329,,,,,,
165960,note_on,0,0,0,,,,,,,,0,,,40,70
165960,note_on,0,0,0,,,,,,,,0,,,52,70
166050,note_on,90,0,0,,,,,,,,0,,,52,0
166050,note_on,0,0,0,,,,,,,,0,,,40,0
166080,set_tempo,30,1,0,,,,,,524017,,,,,,
166080,note_on,0,0,0,,,,,,,,0,,,39,71
166080,note_on,0,0,0,,,,,,,,0,,,51,71
166132,control_change,52,0,0,,,,,,,,0,64,127,,
166170,note_on,38,0,0,,,,,,,,0,,,51,0
166170,note_on,0,0,0,,,,,,,,0,,,39,0
166200,set_tempo,30,1,0,,,,,,497925,,,,,,
166200,note_on,0,0,0,,,,,,,,0,,,39,71
166200,note_on,0,0,0,,,,,,,,0,,,51,71
166290,note_on,90,0,0,,,,,,,,0,,,51,0
166290,note_on,0,0,0,,,,,,,,0,,,39,0
166320,set_tempo,30,1,0,,,,,,463320,,,,,,
166320,note_on,0,0,0,,,,,,,,0,,,51,64
166320,note_on,0,0,0,,,,,,,,0,,,63,64
166410,note_on,90,0,0,,,,,,,,0,,,63,0
166410,note_on,0,0,0,,,,,,,,0,,,51,0
166440,note_on,30,0,0,,,,,,,,0,,,51,64
166440,note_on,0,0,0,,,,,,,,0,,,63,64
166530,note_on,90,0,0,,,,,,,,0,,,63,0
166530,note_on,0,0,0,,,,,,,,0,,,51,0
166560,note_on,30,0,0,,,,,,,,0,,,63,64
166560,note_on,0,0,0,,,,,,,,0,,,75,64
166650,note_on,90,0,0,,,,,,,,0,,,75,0
166650,note_on,0,0,0,,,,,,,,0,,,63,0
166680,note_on,30,0,0,,,,,,,,0,,,63,64
166680,note_on,0,0,0,,,,,,,,0,,,75,64
166770,note_on,90,0,0,,,,,,,,0,,,75,0
166770,note_on,0,0,0,,,,,,,,0,,,63,0
166800,set_tempo,30,1,0,,,,,,512821,,,,,,
166800,note_on,0,0,0,,,,,,,,0,,,75,71
166800,note_on,0,0,0,,,,,,,,0,,,87,71
167040,set_tempo,240,1,0,,,,,,603015,,,,,,
167040,note_on,0,0,0,,,,,,,,0,,,87,0
167040,note_on,0,0,0,,,,,,,,0,,,75,0
167040,note_on,0,0,0,,,,,,,,0,,,87,59
167040,note_on,0,0,0,,,,,,,,0,,,75,59
167040,control_change,0,0,0,,,,,,,,0,64,0,,
167040,note_on,0,0,0,,,,,,,,0,,,63,49
167040,note_on,0,0,0,,,,,,,,0,,,67,49
167130,note_on,90,0,0,,,,,,,,0,,,75,0
167130,note_on,0,0,0,,,,,,,,0,,,87,0
167160,set_tempo,30,1,0,,,,,,566038,,,,,,
167160,note_on,0,0,0,,,,,,,,0,,,63,0
167160,note_on,0,0,0,,,,,,,,0,,,67,0
167160,note_on,0,0,0,,,,,,,,0,,,87,60
167160,note_on,0,0,0,,,,,,,,0,,,75,60
167160,note_on,0,0,0,,,,,,,,0,,,63,50
167160,note_on,0,0,0,,,,,,,,0,,,67,50
167250,note_on,90,0,0,,,,,,,,0,,,75,0
167250,note_on,0,0,0,,,,,,,,0,,,87,0
167280,set_tempo,30,1,0,,,,,,574163,,,,,,
167280,note_on,0,0,0,,,,,,,,0,,,63,0
167280,note_on,0,0,0,,,,,,,,0,,,67,0
167280,note_on,0,0,0,,,,,,,,0,,,87,62
167280,note_on,0,0,0,,,,,,,,0,,,75,62
167280,note_on,0,0,0,,,,,,,,0,,,65,52
167280,note_on,0,0,0,,,,,,,,0,,,68,52
167370,note_on,90,0,0,,,,,,,,0,,,75,0
167370,note_on,0,0,0,,,,,,,,0,,,87,0
167400,set_tempo,30,1,0,,,,,,491803,,,,,,
167400,note_on,0,0,0,,,,,,,,0,,,65,0
167400,note_on,0,0,0,,,,,,,,0,,,68,0
167400,note_on,0,0,0,,,,,,,,0,,,87,64
167400,note_on,0,0,0,,,,,,,,0,,,75,64
167400,note_on,0,0,0,,,,,,,,0,,,65,54
167400,note_on,0,0,0,,,,,,,,0,,,68,54
167490,note_on,90,0,0,,,,,,,,0,,,75,0
167490,note_on,0,0,0,,,,,,,,0,,,87,0
167500,set_tempo,10,1,0,,,,,,502092,,,,,,
167520,set_tempo,20,1,0,,,,,,504202,,,,,,
167520,note_on,0,0,0,,,,,,,,0,,,65,0
167520,note_on,0,0,0,,,,,,,,0,,,68,0
167520,note_on,0,0,0,,,,,,,,0,,,76,64
167520,note_on,0,0,0,,,,,,,,0,,,88,64
167520,note_on,0,0,0,,,,,,,,0,,,66,55
167520,note_on,0,0,0,,,,,,,,0,,,69,55
167560,set_tempo,40,1,0,,,,,,502092,,,,,,
167600,set_tempo,40,1,0,,,,,,500000,,,,,,
167640,set_tempo,40,1,0,,,,,,497925,,,,,,
167640,note_on,0,0,0,,,,,,,,0,,,69,0
167640,note_on,0,0,0,,,,,,,,0,,,76,0
167640,note_on,0,0,0,,,,,,,,0,,,88,0
167640,note_on,0,0,0,,,,,,,,0,,,66,0
167640,note_on,0,0,0,,,,,,,,0,,,75,64
167640,note_on,0,0,0,,,,,,,,0,,,87,64
167640,note_on,0,0,0,,,,,,,,0,,,66,55
167640,note_on,0,0,0,,,,,,,,0,,,69,55
167680,set_tempo,40,1,0,,,,,,495868,,,,,,
167720,set_tempo,40,1,0,,,,,,493827,,,,,,
167760,set_tempo,40,1,0,,,,,,491803,,,,,,
167760,note_on,0,0,0,,,,,,,,0,,,69,0
167760,note_on,0,0,0,,,,,,,,0,,,75,0
167760,note_on,0,0,0,,,,,,,,0,,,87,0
167760,note_on,0,0,0,,,,,,,,0,,,66,0
167760,note_on,0,0,0,,,,,,,,0,,,73,63
167760,note_on,0,0,0,,,,,,,,0,,,85,63
167760,note_on,0,0,0,,,,,,,,0,,,64,54
167760,note_on,0,0,0,,,,,,,,0,,,67,54
167800,set_tempo,40,1,0,,,,,,489796,,,,,,
167840,set_tempo,40,1,0,,,,,,487805,,,,,,
167880,set_tempo,40,1,0,,,,,,485830,,,,,,
167880,note_on,0,0,0,,,,,,,,0,,,67,0
167880,note_on,0,0,0,,,,,,,,0,,,73,0
167880,note_on,0,0,0,,,,,,,,0,,,85,0
167880,note_on,0,0,0,,,,,,,,0,,,64,0
167880,note_on,0,0,0,,,,,,,,0,,,71,62
167880,note_on,0,0,0,,,,,,,,0,,,83,62
167880,note_on,0,0,0,,,,,,,,0,,,64,54
167880,note_on,0,0,0,,,,,,,,0,,,67,54
167900,set_tempo,20,1,0,,,,,,483871,,,,,,
167940,set_tempo,40,1,0,,,,,,481928,,,,,,
167980,set_tempo,40,1,0,,,,,,480000,,,,,,
168000,note_on,20,0,0,,,,,,,,0,,,67,0
168000,note_on,0,0,0,,,,,,,,0,,,71,0
168000,note_on,0,0,0,,,,,,,,0,,,83,0
168000,note_on,0,0,0,,,,,,,,0,,,64,0
168000,note_on,0,0,0,,,,,,,,0,,,70,61
168000,note_on,0,0,0,,,,,,,,0,,,82,61
168000,note_on,0,0,0,,,,,,,,0,,,62,52
168000,note_on,0,0,0,,,,,,,,0,,,65,52
168020,set_tempo,20,1,0,,,,,,478088,,,,,,
168060,set_tempo,40,1,0,,,,,,476190,,,,,,
168100,set_tempo,40,1,0,,,,,,474308,,,,,,
168120,note_on,20,0,0,,,,,,,,0,,,65,0
168120,note_on,0,0,0,,,,,,,,0,,,70,0
168120,note_on,0,0,0,,,,,,,,0,,,82,0
168120,note_on,0,0,0,,,,,,,,0,,,62,0
168120,note_on,0,0,0,,,,,,,,0,,,68,61
168120,note_on,0,0,0,,,,,,,,0,,,80,61
168120,note_on,0,0,0,,,,,,,,0,,,62,52
168120,note_on,0,0,0,,,,,,,,0,,,65,52
168140,set_tempo,20,1,0,,,,,,472441,,,,,,
168180,set_tempo,40,1,0,,,,,,470588,,,,,,
168220,set_tempo,40,1,0,,,,,,468750,,,,,,
168240,set_tempo,20,1,0,,,,,,466926,,,,,,
168240,note_on,0,0,0,,,,,,,,0,,,65,0
168240,note_on,0,0,0,,,,,,,,0,,,68,0
168240,note_on,0,0,0,,,,,,,,0,,,80,0
168240,note_on,0,0,0,,,,,,,,0,,,62,0
168240,note_on,0,0,0,,,,,,,,0,,,67,60
168240,note_on,0,0,0,,,,,,,,0,,,79,60
168240,note_on,0,0,0,,,,,,,,0,,,63,51
168480,set_tempo,240,1,0,,,,,,638298,,,,,,
168480,note_on,0,0,0,,,,,,,,0,,,63,0
168480,note_on,0,0,0,,,,,,,,0,,,79,0
168480,note_on,0,0,0,,,,,,,,0,,,67,0
168480,note_on,0,0,0,,,,,,,,0,,,34,70
168480,note_on,0,0,0,,,,,,,,0,,,46,70
168570,note_on,90,0,0,,,,,,,,0,,,46,0
168570,note_on,0,0,0,,,,,,,,0,,,34,0
168600,set_tempo,30,1,0,,,,,,588235,,,,,,
168600,note_on,0,0,0,,,,,,,,0,,,34,70
168600,note_on,0,0,0,,,,,,,,0,,,46,70
168690,note_on,90,0,0,,,,,,,,0,,,46,0
168690,note_on,0,0,0,,,,,,,,0,,,34,0
168720,set_tempo,30,1,0,,,,,,547945,,,,,,
168720,note_on,0,0,0,,,,,,,,0,,,38,71
168720,note_on,0,0,0,,,,,,,,0,,,50,71
168810,note_on,90,0,0,,,,,,,,0,,,50,0
168810,note_on,0,0,0,,,,,,,,0,,,38,0
168840,set_tempo,30,1,0,,,,,,524017,,,,,,
168840,note_on,0,0,0,,,,,,,,0,,,38,73
168840,note_on,0,0,0,,,,,,,,0,,,50,73
168930,note_on,90,0,0,,,,,,,,0,,,50,0
168930,note_on,0,0,0,,,,,,,,0,,,38,0
168960,set_tempo,30,1,0,,,,,,530973,,,,,,
168960,note_on,0,0,0,,,,,,,,0,,,39,77
168960,note_on,0,0,0,,,,,,,,0,,,51,77
169017,control_change,57,0,0,,,,,,,,0,64,127,,
169050,note_on,33,0,0,,,,,,,,0,,,51,0
169050,note_on,0,0,0,,,,,,,,0,,,39,0
169080,set_tempo,30,1,0,,,,,,510638,,,,,,
169080,note_on,0,0,0,,,,,,,,0,,,39,77
169080,note_on,0,0,0,,,,,,,,0,,,51,77
169170,note_on,90,0,0,,,,,,,,0,,,51,0
169170,note_on,0,0,0,,,,,,,,0,,,39,0
169200,set_tempo,30,1,0,,,,,,463320,,,,,,
169200,note_on,0,0,0,,,,,,,,0,,,51,69
169200,note_on,0,0,0,,,,,,,,0,,,63,69
169290,note_on,90,0,0,,,,,,,,0,,,63,0
169290,note_on,0,0,0,,,,,,,,0,,,51,0
169320,note_on,30,0,0,,,,,,,,0,,,51,69
169320,note_on,0,0,0,,,,,,,,0,,,63,69
169410,note_on,90,0,0,,,,,,,,0,,,63,0
169410,note_on,0,0,0,,,,,,,,0,,,51,0
169440,note_on,30,0,0,,,,,,,,0,,,63,71
169440,note_on,0,0,0,,,,,,,,0,,,75,71
169530,note_on,90,0,0,,,,,,,,0,,,75,0
169530,note_on,0,0,0,,,,,,,,0,,,63,0
169560,note_on,30,0,0,,,,,,,,0,,,63,71
169560,note_on,0,0,0,,,,,,,,0,,,75,71
169650,note_on,90,0,0,,,,,,,,0,,,75,0
169650,note_on,0,0,0,,,,,,,,0,,,63,0
169680,set_tempo,30,1,0,,,,,,512821,,,,,,
169680,note_on,0,0,0,,,,,,,,0,,,75,76
169680,note_on,0,0,0,,,,,,,,0,,,87,76
169920,set_tempo,240,1,0,,,,,,648649,,,,,,
169920,note_on,0,0,0,,,,,,,,0,,,87,0
169920,note_on,0,0,0,,,,,,,,0,,,75,0
169920,note_on,0,0,0,,,,,,,,0,,,99,69
169920,note_on,0,0,0,,,,,,,,0,,,87,69
169920,note_on,0,0,0,,,,,,,,0,,,67,57
169920,note_on,0,0,0,,,,,,,,0,,,75,57
169932,control_change,12,0,0,,,,,,,,0,64,0,,
170010,note_on,78,0,0,,,,,,,,0,,,75,0
170010,note_on,0,0,0,,,,,,,,0,,,99,0
170010,note_on,0,0,0,,,,,,,,0,,,87,0
170010,note_on,0,0,0,,,,,,,,0,,,67,0
170040,set_tempo,30,1,0,,,,,,618557,,,,,,
170040,note_on,0,0,0,,,,,,,,0,,,99,71
170040,note_on,0,0,0,,,,,,,,0,,,87,71
170040,note_on,0,0,0,,,,,,,,0,,,67,59
170040,note_on,0,0,0,,,,,,,,0,,,75,59
170130,note_on,90,0,0,,,,,,,,0,,,75,0
170130,note_on,0,0,0,,,,,,,,0,,,99,0
170130,note_on,0,0,0,,,,,,,,0,,,87,0
170130,note_on,0,0,0,,,,,,,,0,,,67,0
170160,set_tempo,30,1,0,,,,,,666667,,,,,,
170160,note_on,0,0,0,,,,,,,,0,,,99,72
170160,note_on,0,0,0,,,,,,,,0,,,87,72
170160,note_on,0,0,0,,,,,,,,0,,,68,61
170160,note_on,0,0,0,,,,,,,,0,,,77,61
170250,note_on,90,0,0,,,,,,,,0,,,77,0
170250,note_on,0,0,0,,,,,,,,0,,,99,0
170250,note_on,0,0,0,,,,,,,,0,,,87,0
170250,note_on,0,0,0,,,,,,,,0,,,68,0
170260,set_tempo,10,1,0,,,,,,558140,,,,,,
170280,note_on,20,0,0,,,,,,,,0,,,87,73
170280,note_on,0,0,0,,,,,,,,0,,,99,73
170280,note_on,0,0,0,,,,,,,,0,,,68,62
170280,note_on,0,0,0,,,,,,,,0,,,77,62
170370,note_on,90,0,0,,,,,,,,0,,,77,0
170370,note_on,0,0,0,,,,,,,,0,,,87,0
170370,note_on,0,0,0,,,,,,,,0,,,99,0
170370,note_on,0,0,0,,,,,,,,0,,,68,0
170400,set_tempo,30,1,0,,,,,,524017,,,,,,
170400,note_on,0,0,0,,,,,,,,0,,,88,73
170400,note_on,0,0,0,,,,,,,,0,,,100,73
170400,note_on,0,0,0,,,,,,,,0,,,69,63
170400,note_on,0,0,0,,,,,,,,0,,,78,63
170490,note_on,90,0,0,,,,,,,,0,,,78,0
170490,note_on,0,0,0,,,,,,,,0,,,88,0
170490,note_on,0,0,0,,,,,,,,0,,,100,0
170490,note_on,0,0,0,,,,,,,,0,,,69,0
170520,set_tempo,30,1,0,,,,,,504202,,,,,,
170520,note_on,0,0,0,,,,,,,,0,,,87,73
170520,note_on,0,0,0,,,,,,,,0,,,99,73
170520,note_on,0,0,0,,,,,,,,0,,,69,64
170520,note_on,0,0,0,,,,,,,,0,,,78,64
170600,set_tempo,80,1,0,,,,,,504202,,,,,,
170610,note_on,10,0,0,,,,,,,,0,,,78,0
170610,note_on,0,0,0,,,,,,,,0,,,87,0
170610,note_on,0,0,0,,,,,,,,0,,,99,0
170610,note_on,0,0,0,,,,,,,,0,,,69,0
170620,set_tempo,10,1,0,,,,,,508475,,,,,,
170640,note_on,20,0,0,,,,,,,,0,,,85,73
170640,note_on,0,0,0,,,,,,,,0,,,97,73
170640,note_on,0,0,0,,,,,,,,0,,,70,64
170640,note_on,0,0,0,,,,,,,,0,,,79,64
170680,set_tempo,40,1,0,,,,,,506329,,,,,,
170720,set_tempo,40,1,0,,,,,,504202,,,,,,
170730,note_on,10,0,0,,,,,,,,0,,,79,0
170730,note_on,0,0,0,,,,,,,,0,,,85,0
170730,note_on,0,0,0,,,,,,,,0,,,97,0
170730,note_on,0,0,0,,,,,,,,0,,,70,0
170760,note_on,30,0,0,,,,,,,,0,,,95,72
170760,note_on,0,0,0,,,,,,,,0,,,83,72
170760,note_on,0,0,0,,,,,,,,0,,,70,63
170760,note_on,0,0,0,,,,,,,,0,,,79,63
170780,set_tempo,20,1,0,,,,,,502092,,,,,,
170820,set_tempo,40,1,0,,,,,,500000,,,,,,
170850,note_on,30,0,0,,,,,,,,0,,,79,0
170850,note_on,0,0,0,,,,,,,,0,,,95,0
170850,note_on,0,0,0,,,,,,,,0,,,83,0
170850,note_on,0,0,0,,,,,,,,0,,,70,0
170880,set_tempo,30,1,0,,,,,,497925,,,,,,
170880,note_on,0,0,0,,,,,,,,0,,,82,72
170880,note_on,0,0,0,,,,,,,,0,,,94,72
170880,note_on,0,0,0,,,,,,,,0,,,74,63
170880,note_on,0,0,0,,,,,,,,0,,,77,63
170920,set_tempo,40,1,0,,,,,,495868,,,,,,
170970,note_on,50,0,0,,,,,,,,0,,,77,0
170970,note_on,0,0,0,,,,,,,,0,,,82,0
170970,note_on,0,0,0,,,,,,,,0,,,94,0
170970,note_on,0,0,0,,,,,,,,0,,,74,0
170980,set_tempo,10,1,0,,,,,,493827,,,,,,
171000,note_on,20,0,0,,,,,,,,0,,,92,72
171000,note_on,0,0,0,,,,,,,,0,,,80,72
171000,note_on,0,0,0,,,,,,,,0,,,74,62
171000,note_on,0,0,0,,,,,,,,0,,,77,62
171020,set_tempo,20,1,0,,,,,,491803,,,,,,
171080,set_tempo,60,1,0,,,,,,489796,,,,,,
171090,note_on,10,0,0,,,,,,,,0,,,77,0
171090,note_on,0,0,0,,,,,,,,0,,,92,0
171090,note_on,0,0,0,,,,,,,,0,,,80,0
171090,note_on,0,0,0,,,,,,,,0,,,74,0
171120,set_tempo,30,1,0,,,,,,487805,,,,,,
171120,note_on,0,0,0,,,,,,,,0,,,91,72
171120,note_on,0,0,0,,,,,,,,0,,,79,72
171120,note_on,0,0,0,,,,,,,,0,,,70,62
171120,note_on,0,0,0,,,,,,,,0,,,75,62
171140,set_tempo,20,1,0,,,,,,481928,,,,,,
171210,note_on,70,0,0,,,,,,,,0,,,75,0
171210,note_on,0,0,0,,,,,,,,0,,,91,0
171210,note_on,0,0,0,,,,,,,,0,,,79,0
171210,note_on,0,0,0,,,,,,,,0,,,70,0
171240,set_tempo,30,1,0,,,,,,480000,,,,,,
171240,note_on,0,0,0,,,,,,,,0,,,78,72
171240,note_on,0,0,0,,,,,,,,0,,,90,72
171240,note_on,0,0,0,,,,,,,,0,,,70,62
171240,note_on,0,0,0,,,,,,,,0,,,75,62
171320,set_tempo,80,1,0,,,,,,478088,,,,,,
171330,note_on,10,0,0,,,,,,,,0,,,75,0
171330,note_on,0,0,0,,,,,,,,0,,,78,0
171330,note_on,0,0,0,,,,,,,,0,,,90,0
171330,note_on,0,0,0,,,,,,,,0,,,70,0
171360,set_tempo,30,1,0,,,,,,468750,,,,,,
171360,note_on,0,0,0,,,,,,,,0,,,89,72
171360,note_on,0,0,0,,,,,,,,0,,,77,72
171360,note_on,0,0,0,,,,,,,,0,,,68,61
171360,note_on,0,0,0,,,,,,,,0,,,71,61
171450,note_on,90,0,0,,,,,,,,0,,,71,0
171450,note_on,0,0,0,,,,,,,,0,,,89,0
171450,note_on,0,0,0,,,,,,,,0,,,77,0
171450,note_on,0,0,0,,,,,,,,0,,,68,0
171480,set_tempo,30,1,0,,,,,,459770,,,,,,
171480,note_on,0,0,0,,,,,,,,0,,,76,71
171480,note_on,0,0,0,,,,,,,,0,,,88,71
171480,note_on,0,0,0,,,,,,,,0,,,68,61
171480,note_on,0,0,0,,,,,,,,0,,,71,61
171570,note_on,90,0,0,,,,,,,,0,,,71,0
171570,note_on,0,0,0,,,,,,,,0,,,76,0
171570,note_on,0,0,0,,,,,,,,0,,,88,0
171570,note_on,0,0,0,,,,,,,,0,,,68,0
171600,set_tempo,30,1,0,,,,,,480000,,,,,,
171600,note_on,0,0,0,,,,,,,,0,,,86,71
171600,note_on,0,0,0,,,,,,,,0,,,74,71
171600,note_on,0,0,0,,,,,,,,0,,,66,61
171600,note_on,0,0,0,,,,,,,,0,,,69,61
171690,note_on,90,0,0,,,,,,,,0,,,69,0
171690,note_on,0,0,0,,,,,,,,0,,,86,0
171690,note_on,0,0,0,,,,,,,,0,,,74,0
171690,note_on,0,0,0,,,,,,,,0,,,66,0
171720,set_tempo,30,1,0,,,,,,465116,,,,,,
171720,note_on,0,0,0,,,,,,,,0,,,75,72
171720,note_on,0,0,0,,,,,,,,0,,,87,72
171720,note_on,0,0,0,,,,,,,,0,,,66,62
171720,note_on,0,0,0,,,,,,,,0,,,69,62
171810,note_on,90,0,0,,,,,,,,0,,,69,0
171810,note_on,0,0,0,,,,,,,,0,,,75,0
171810,note_on,0,0,0,,,,,,,,0,,,87,0
171810,note_on,0,0,0,,,,,,,,0,,,66,0
171820,set_tempo,10,1,0,,,,,,474308,,,,,,
171840,note_on,20,0,0,,,,,,,,0,,,88,75
171840,note_on,0,0,0,,,,,,,,0,,,76,75
171840,note_on,0,0,0,,,,,,,,0,,,67,62
171840,note_on,0,0,0,,,,,,,,0,,,70,62
171930,note_on,90,0,0,,,,,,,,0,,,70,0
171930,note_on,0,0,0,,,,,,,,0,,,88,0
171930,note_on,0,0,0,,,,,,,,0,,,76,0
171930,note_on,0,0,0,,,,,,,,0,,,67,0
171960,note_on,30,0,0,,,,,,,,0,,,75,75
171960,note_on,0,0,0,,,,,,,,0,,,87,75
171960,note_on,0,0,0,,,,,,,,0,,,67,62
171960,note_on,0,0,0,,,,,,,,0,,,70,62
172050,note_on,90,0,0,,,,,,,,0,,,70,0
172050,note_on,0,0,0,,,,,,,,0,,,75,0
172050,note_on,0,0,0,,,,,,,,0,,,87,0
172050,note_on,0,0,0,,,,,,,,0,,,67,0
172060,set_tempo,10,1,0,,,,,,472441,,,,,,
172080,note_on,20,0,0,,,,,,,,0,,,85,73
172080,note_on,0,0,0,,,,,,,,0,,,73,73
172080,note_on,0,0,0,,,,,,,,0,,,64,62
172080,note_on,0,0,0,,,,,,,,0,,,67,62
172170,note_on,90,0,0,,,,,,,,0,,,67,0
172170,note_on,0,0,0,,,,,,,,0,,,85,0
172170,note_on,0,0,0,,,,,,,,0,,,73,0
172170,note_on,0,0,0,,,,,,,,0,,,64,0
172200,note_on,30,0,0,,,,,,,,0,,,71,72
172200,note_on,0,0,0,,,,,,,,0,,,83,72
172200,note_on,0,0,0,,,,,,,,0,,,64,61
172200,note_on,0,0,0,,,,,,,,0,,,67,61
172290,note_on,90,0,0,,,,,,,,0,,,67,0
172290,note_on,0,0,0,,,,,,,,0,,,71,0
172290,note_on,0,0,0,,,,,,,,0,,,83,0
172290,note_on,0,0,0,,,,,,,,0,,,64,0
172300,set_tempo,10,1,0,,,,,,470588,,,,,,
172320,note_on,20,0,0,,,,,,,,0,,,82,72
172320,note_on,0,0,0,,,,,,,,0,,,70,72
172320,note_on,0,0,0,,,,,,,,0,,,62,61
172320,note_on,0,0,0,,,,,,,,0,,,65,61
172410,note_on,90,0,0,,,,,,,,0,,,65,0
172410,note_on,0,0,0,,,,,,,,0,,,82,0
172410,note_on,0,0,0,,,,,,,,0,,,70,0
172410,note_on,0,0,0,,,,,,,,0,,,62,0
172440,note_on,30,0,0,,,,,,,,0,,,68,72
172440,note_on,0,0,0,,,,,,,,0,,,80,72
172440,note_on,0,0,0,,,,,,,,0,,,62,60
172440,note_on,0,0,0,,,,,,,,0,,,65,60
172530,note_on,90,0,0,,,,,,,,0,,,65,0
172530,note_on,0,0,0,,,,,,,,0,,,68,0
172530,note_on,0,0,0,,,,,,,,0,,,80,0
172530,note_on,0,0,0,,,,,,,,0,,,62,0
172540,set_tempo,10,1,0,,,,,,468750,,,,,,
172560,note_on,20,0,0,,,,,,,,0,,,67,72
172560,note_on,0,0,0,,,,,,,,0,,,79,72
172560,note_on,0,0,0,,,,,,,,0,,,58,60
172560,note_on,0,0,0,,,,,,,,0,,,63,60
172600,set_tempo,40,1,0,,,,,,466926,,,,,,
172640,set_tempo,40,1,0,,,,,,465116,,,,,,
172650,note_on,10,0,0,,,,,,,,0,,,63,0
172650,note_on,0,0,0,,,,,,,,0,,,67,0
172650,note_on,0,0,0,,,,,,,,0,,,79,0
172650,note_on,0,0,0,,,,,,,,0,,,58,0
172680,set_tempo,30,1,0,,,,,,463320,,,,,,
172680,note_on,0,0,0,,,,,,,,0,,,78,71
172680,note_on,0,0,0,,,,,,,,0,,,66,71
172680,note_on,0,0,0,,,,,,,,0,,,58,59
172680,note_on,0,0,0,,,,,,,,0,,,63,59
172720,set_tempo,40,1,0,,,,,,461538,,,,,,
172760,set_tempo,40,1,0,,,,,,459770,,,,,,
172770,note_on,10,0,0,,,,,,,,0,,,63,0
172770,note_on,0,0,0,,,,,,,,0,,,78,0
172770,note_on,0,0,0,,,,,,,,0,,,66,0
172770,note_on,0,0,0,,,,,,,,0,,,58,0
172800,set_tempo,30,1,0,,,,,,456274,,,,,,
172800,note_on,0,0,0,,,,,,,,0,,,65,70
172800,note_on,0,0,0,,,,,,,,0,,,77,70
172800,note_on,0,0,0,,,,,,,,0,,,56,59
172800,note_on,0,0,0,,,,,,,,0,,,59,59
172890,note_on,90,0,0,,,,,,,,0,,,59,0
172890,note_on,0,0,0,,,,,,,,0,,,65,0
172890,note_on,0,0,0,,,,,,,,0,,,77,0
172890,note_on,0,0,0,,,,,,,,0,,,56,0
172920,set_tempo,30,1,0,,,,,,451128,,,,,,
172920,note_on,0,0,0,,,,,,,,0,,,76,70
172920,note_on,0,0,0,,,,,,,,0,,,64,70
172920,note_on,0,0,0,,,,,,,,0,,,56,59
172920,note_on,0,0,0,,,,,,,,0,,,59,59
172980,set_tempo,60,1,0,,,,,,451128,,,,,,
173010,note_on,30,0,0,,,,,,,,0,,,59,0
173010,note_on,0,0,0,,,,,,,,0,,,76,0
173010,note_on,0,0,0,,,,,,,,0,,,64,0
173010,note_on,0,0,0,,,,,,,,0,,,56,0
173020,set_tempo,10,1,0,,,,,,449438,,,,,,
173040,set_tempo,20,1,0,,,,,,466926,,,,,,
173040,note_on,0,0,0,,,,,,,,0,,,62,72
173040,note_on,0,0,0,,,,,,,,0,,,74,72
173040,note_on,0,0,0,,,,,,,,0,,,54,57
173040,note_on,0,0,0,,,,,,,,0,,,57,57
173130,note_on,90,0,0,,,,,,,,0,,,57,0
173130,note_on,0,0,0,,,,,,,,0,,,62,0
173130,note_on,0,0,0,,,,,,,,0,,,74,0
173130,note_on,0,0,0,,,,,,,,0,,,54,0
173160,set_tempo,30,1,0,,,,,,451128,,,,,,
173160,note_on,0,0,0,,,,,,,,0,,,63,73
173160,note_on,0,0,0,,,,,,,,0,,,75,73
173160,note_on,0,0,0,,,,,,,,0,,,54,63
173160,note_on,0,0,0,,,,,,,,0,,,57,63
173250,note_on,90,0,0,,,,,,,,0,,,57,0
173250,note_on,0,0,0,,,,,,,,0,,,63,0
173250,note_on,0,0,0,,,,,,,,0,,,75,0
173250,note_on,0,0,0,,,,,,,,0,,,54,0
173260,set_tempo,10,1,0,,,,,,461538,,,,,,
173280,note_on,20,0,0,,,,,,,,0,,,64,73
173280,note_on,0,0,0,,,,,,,,0,,,76,73
173280,note_on,0,0,0,,,,,,,,0,,,55,66
173280,note_on,0,0,0,,,,,,,,0,,,58,66
173370,note_on,90,0,0,,,,,,,,0,,,58,0
173370,note_on,0,0,0,,,,,,,,0,,,64,0
173370,note_on,0,0,0,,,,,,,,0,,,76,0
173370,note_on,0,0,0,,,,,,,,0,,,55,0
173400,note_on,30,0,0,,,,,,,,0,,,63,73
173400,note_on,0,0,0,,,,,,,,0,,,75,73
173400,note_on,0,0,0,,,,,,,,0,,,55,66
173400,note_on,0,0,0,,,,,,,,0,,,58,66
173490,note_on,90,0,0,,,,,,,,0,,,58,0
173490,note_on,0,0,0,,,,,,,,0,,,63,0
173490,note_on,0,0,0,,,,,,,,0,,,75,0
173490,note_on,0,0,0,,,,,,,,0,,,55,0
173520,note_on,30,0,0,,,,,,,,0,,,73,73
173520,note_on,0,0,0,,,,,,,,0,,,61,73
173520,note_on,0,0,0,,,,,,,,0,,,52,65
173520,note_on,0,0,0,,,,,,,,0,,,55,65
173580,set_tempo,60,1,0,,,,,,459770,,,,,,
173610,note_on,30,0,0,,,,,,,,0,,,55,0
173610,note_on,0,0,0,,,,,,,,0,,,73,0
173610,note_on,0,0,0,,,,,,,,0,,,61,0
173610,note_on,0,0,0,,,,,,,,0,,,52,0
173640,note_on,30,0,0,,,,,,,,0,,,59,72
173640,note_on,0,0,0,,,,,,,,0,,,71,72
173640,note_on,0,0,0,,,,,,,,0,,,52,64
173640,note_on,0,0,0,,,,,,,,0,,,55,64
173730,note_on,90,0,0,,,,,,,,0,,,55,0
173730,note_on,0,0,0,,,,,,,,0,,,59,0
173730,note_on,0,0,0,,,,,,,,0,,,71,0
173730,note_on,0,0,0,,,,,,,,0,,,52,0
173760,note_on,30,0,0,,,,,,,,0,,,70,72
173760,note_on,0,0,0,,,,,,,,0,,,58,72
173760,note_on,0,0,0,,,,,,,,0,,,50,64
173760,note_on,0,0,0,,,,,,,,0,,,53,64
173850,note_on,90,0,0,,,,,,,,0,,,53,0
173850,note_on,0,0,0,,,,,,,,0,,,70,0
173850,note_on,0,0,0,,,,,,,,0,,,58,0
173850,note_on,0,0,0,,,,,,,,0,,,50,0
173880,note_on,30,0,0,,,,,,,,0,,,56,72
173880,note_on,0,0,0,,,,,,,,0,,,68,72
173880,note_on,0,0,0,,,,,,,,0,,,50,63
173880,note_on,0,0,0,,,,,,,,0,,,53,63
173900,set_tempo,20,1,0,,,,,,458015,,,,,,
173970,note_on,70,0,0,,,,,,,,0,,,53,0
173970,note_on,0,0,0,,,,,,,,0,,,56,0
173970,note_on,0,0,0,,,,,,,,0,,,68,0
173970,note_on,0,0,0,,,,,,,,0,,,50,0
174000,note_on,30,0,0,,,,,,,,0,,,67,72
174000,note_on,0,0,0,,,,,,,,0,,,55,72
174000,note_on,0,0,0,,,,,,,,0,,,46,63
174000,note_on,0,0,0,,,,,,,,0,,,51,63
174090,note_on,90,0,0,,,,,,,,0,,,51,0
174090,note_on,0,0,0,,,,,,,,0,,,67,0
174090,note_on,0,0,0,,,,,,,,0,,,55,0
174090,note_on,0,0,0,,,,,,,,0,,,46,0
174120,note_on,30,0,0,,,,,,,,0,,,54,72
174120,note_on,0,0,0,,,,,,,,0,,,66,72
174120,note_on,0,0,0,,,,,,,,0,,,46,62
174120,note_on,0,0,0,,,,,,,,0,,,51,62
174210,note_on,90,0,0,,,,,,,,0,,,51,0
174210,note_on,0,0,0,,,,,,,,0,,,54,0
174210,note_on,0,0,0,,,,,,,,0,,,66,0
174210,note_on,0,0,0,,,,,,,,0,,,46,0
174220,set_tempo,10,1,0,,,,,,456274,,,,,,
174240,set_tempo,20,1,0,,,,,,446097,,,,,,
174240,note_on,0,0,0,,,,,,,,0,,,65,72
174240,note_on,0,0,0,,,,,,,,0,,,53,72
174240,note_on,0,0,0,,,,,,,,0,,,44,61
174240,note_on,0,0,0,,,,,,,,0,,,47,61
174330,note_on,90,0,0,,,,,,,,0,,,47,0
174330,note_on,0,0,0,,,,,,,,0,,,65,0
174330,note_on,0,0,0,,,,,,,,0,,,53,0
174330,note_on,0,0,0,,,,,,,,0,,,44,0
174360,note_on,30,0,0,,,,,,,,0,,,52,72
174360,note_on,0,0,0,,,,,,,,0,,,64,72
174360,note_on,0,0,0,,,,,,,,0,,,44,61
174360,note_on,0,0,0,,,,,,,,0,,,47,61
174450,note_on,90,0,0,,,,,,,,0,,,47,0
174450,note_on,0,0,0,,,,,,,,0,,,52,0
174450,note_on,0,0,0,,,,,,,,0,,,64,0
174450,note_on,0,0,0,,,,,,,,0,,,44,0
174460,set_tempo,10,1,0,,,,,,480000,,,,,,
174480,set_tempo,20,1,0,,,,,,478088,,,,,,
174480,note_on,0,0,0,,,,,,,,0,,,50,72
174480,note_on,0,0,0,,,,,,,,0,,,62,72
174480,note_on,0,0,0,,,,,,,,0,,,42,57
174480,note_on,0,0,0,,,,,,,,0,,,45,57
174570,note_on,90,0,0,,,,,,,,0,,,45,0
174570,note_on,0,0,0,,,,,,,,0,,,50,0
174570,note_on,0,0,0,,,,,,,,0,,,62,0
174570,note_on,0,0,0,,,,,,,,0,,,42,0
174600,set_tempo,30,1,0,,,,,,519481,,,,,,
174600,note_on,0,0,0,,,,,,,,0,,,51,72
174600,note_on,0,0,0,,,,,,,,0,,,63,72
174600,note_on,0,0,0,,,,,,,,0,,,42,59
174600,note_on,0,0,0,,,,,,,,0,,,45,59
174690,note_on,90,0,0,,,,,,,,0,,,45,0
174690,note_on,0,0,0,,,,,,,,0,,,51,0
174690,note_on,0,0,0,,,,,,,,0,,,63,0
174690,note_on,0,0,0,,,,,,,,0,,,42,0
174720,set_tempo,30,1,0,,,,,,504202,,,,,,
174720,note_on,0,0,0,,,,,,,,0,,,52,73
174720,note_on,0,0,0,,,,,,,,0,,,64,73
174720,note_on,0,0,0,,,,,,,,0,,,43,61
174720,note_on,0,0,0,,,,,,,,0,,,46,61
174810,note_on,90,0,0,,,,,,,,0,,,46,0
174810,note_on,0,0,0,,,,,,,,0,,,52,0
174810,note_on,0,0,0,,,,,,,,0,,,64,0
174810,note_on,0,0,0,,,,,,,,0,,,43,0
174840,set_tempo,30,1,0,,,,,,474308,,,,,,
174840,note_on,0,0,0,,,,,,,,0,,,63,75
174840,note_on,0,0,0,,,,,,,,0,,,52,75
174840,note_on,0,0,0,,,,,,,,0,,,43,62
174840,note_on,0,0,0,,,,,,,,0,,,46,62
174930,note_on,90,0,0,,,,,,,,0,,,46,0
174930,note_on,0,0,0,,,,,,,,0,,,63,0
174930,note_on,0,0,0,,,,,,,,0,,,52,0
174930,note_on,0,0,0,,,,,,,,0,,,43,0
174960,set_tempo,30,1,0,,,,,,474308,,,,,,
174960,note_on,0,0,0,,,,,,,,0,,,61,76
174960,note_on,0,0,0,,,,,,,,0,,,52,76
174960,note_on,0,0,0,,,,,,,,0,,,43,64
174960,note_on,0,0,0,,,,,,,,0,,,46,64
175020,set_tempo,60,1,0,,,,,,472441,,,,,,
175050,note_on,30,0,0,,,,,,,,0,,,46,0
175050,note_on,0,0,0,,,,,,,,0,,,61,0
175050,note_on,0,0,0,,,,,,,,0,,,52,0
175050,note_on,0,0,0,,,,,,,,0,,,43,0
175060,set_tempo,10,1,0,,,,,,470588,,,,,,
175080,note_on,20,0,0,,,,,,,,0,,,59,77
175080,note_on,0,0,0,,,,,,,,0,,,52,77
175080,note_on,0,0,0,,,,,,,,0,,,43,65
175080,note_on,0,0,0,,,,,,,,0,,,46,65
175100,set_tempo,20,1,0,,,,,,468750,,,,,,
175140,set_tempo,40,1,0,,,,,,466926,,,,,,
175170,note_on,30,0,0,,,,,,,,0,,,46,0
175170,note_on,0,0,0,,,,,,,,0,,,59,0
175170,note_on,0,0,0,,,,,,,,0,,,52,0
175170,note_on,0,0,0,,,,,,,,0,,,43,0
175180,set_tempo,10,1,0,,,,,,465116,,,,,,
175200,note_on,20,0,0,,,,,,,,0,,,53,80
175200,note_on,0,0,0,,,,,,,,0,,,58,80
175200,note_on,0,0,0,,,,,,,,0,,,38,67
175200,note_on,0,0,0,,,,,,,,0,,,47,67
175240,set_tempo,40,1,0,,,,,,463320,,,,,,
175280,set_tempo,40,1,0,,,,,,461538,,,,,,
175290,note_on,10,0,0,,,,,,,,0,,,47,0
175290,note_on,0,0,0,,,,,,,,0,,,53,0
175290,note_on,0,0,0,,,,,,,,0,,,58,0
175290,note_on,0,0,0,,,,,,,,0,,,38,0
175320,set_tempo,30,1,0,,,,,,459770,,,,,,
175320,note_on,0,0,0,,,,,,,,0,,,53,81
175320,note_on,0,0,0,,,,,,,,0,,,56,81
175320,note_on,0,0,0,,,,,,,,0,,,38,69
175320,note_on,0,0,0,,,,,,,,0,,,47,69
175360,set_tempo,40,1,0,,,,,,458015,,,,,,
175400,set_tempo,40,1,0,,,,,,456274,,,,,,
175410,note_on,10,0,0,,,,,,,,0,,,47,0
175410,note_on,0,0,0,,,,,,,,0,,,53,0
175410,note_on,0,0,0,,,,,,,,0,,,56,0
175410,note_on,0,0,0,,,,,,,,0,,,38,0
175440,set_tempo,30,1,0,,,,,,454545,,,,,,
175440,note_on,0,0,0,,,,,,,,0,,,55,81
175440,note_on,0,0,0,,,,,,,,0,,,39,71
175440,note_on,0,0,0,,,,,,,,0,,,46,71
175680,note_on,240,0,0,,,,,,,,0,,,46,0
175680,note_on,0,0,0,,,,,,,,0,,,39,0
175680,note_on,0,0,0,,,,,,,,0,,,55,0
175680,note_on,0,0,0,,,,,,,,0,,,62,81
175680,note_on,0,0,0,,,,,,,,0,,,50,81
175737,control_change,57,0,0,,,,,,,,0,64,127,,
175788,note_on,51,0,0,,,,,,,,0,,,50,0
175800,note_on,12,0,0,,,,,,,,0,,,62,0
175800,note_on,0,0,0,,,,,,,,0,,,50,81
175900,set_tempo,100,1,0,,,,,,451128,,,,,,
175920,note_on,20,0,0,,,,,,,,0,,,50,0
175920,note_on,0,0,0,,,,,,,,0,,,63,81
175920,note_on,0,0,0,,,,,,,,0,,,51,81
175935,control_change,15,0,0,,,,,,,,0,64,0,,
175989,control_change,54,0,0,,,,,,,,0,64,127,,
176020,set_tempo,31,1,0,,,,,,449438,,,,,,
176028,note_on,8,0,0,,,,,,,,0,,,51,0
176040,note_on,12,0,0,,,,,,,,0,,,63,0
176040,note_on,0,0,0,,,,,,,,0,,,51,81
176120,set_tempo,80,1,0,,,,,,447761,,,,,,
176160,note_on,40,0,0,,,,,,,,0,,,51,0
176160,note_on,0,0,0,,,,,,,,0,,,57,81
176160,note_on,0,0,0,,,,,,,,0,,,69,81
176172,control_change,12,0,0,,,,,,,,0,64,0,,
176229,control_change,57,0,0,,,,,,,,0,64,127,,
176240,set_tempo,11,1,0,,,,,,446097,,,,,,
176268,note_on,28,0,0,,,,,,,,0,,,57,0
176280,note_on,12,0,0,,,,,,,,0,,,69,0
176280,note_on,0,0,0,,,,,,,,0,,,57,81
176340,set_tempo,60,1,0,,,,,,444444,,,,,,
176400,note_on,60,0,0,,,,,,,,0,,,57,0
176400,note_on,0,0,0,,,,,,,,0,,,58,81
176400,note_on,0,0,0,,,,,,,,0,,,70,81
176423,control_change,23,0,0,,,,,,,,0,64,0,,
176460,set_tempo,37,1,0,,,,,,442804,,,,,,
176469,control_change,9,0,0,,,,,,,,0,64,127,,
176508,note_on,39,0,0,,,,,,,,0,,,58,0
176520,note_on,12,0,0,,,,,,,,0,,,70,0
176520,note_on,0,0,0,,,,,,,,0,,,58,81
176560,set_tempo,40,1,0,,,,,,441176,,,,,,
176640,note_on,80,0,0,,,,,,,,0,,,58,0
176640,note_on,0,0,0,,,,,,,,0,,,62,81
176640,note_on,0,0,0,,,,,,,,0,,,74,81
176658,control_change,18,0,0,,,,,,,,0,64,0,,
176680,set_tempo,22,1,0,,,,,,439560,,,,,,
176715,control_change,35,0,0,,,,,,,,0,64,127,,
176748,note_on,33,0,0,,,,,,,,0,,,62,0
176760,note_on,12,0,0,,,,,,,,0,,,74,0
176760,note_on,0,0,0,,,,,,,,0,,,50,57
176760,note_on,0,0,0,,,,,,,,0,,,62,69
176780,set_tempo,20,1,0,,,,,,437956,,,,,,
176840,set_tempo,60,1,0,,,,,,436364,,,,,,
176860,set_tempo,20,1,0,,,,,,436364,,,,,,
176880,note_on,20,0,0,,,,,,,,0,,,62,0
176880,note_on,0,0,0,,,,,,,,0,,,50,0
176880,note_on,0,0,0,,,,,,,,0,,,63,81
176880,note_on,0,0,0,,,,,,,,0,,,75,81
176880,control_change,0,0,0,,,,,,,,0,64,0,,
176920,set_tempo,40,1,0,,,,,,434783,,,,,,
176937,control_change,17,0,0,,,,,,,,0,64,127,,
176980,set_tempo,43,1,0,,,,,,433213,,,,,,
176988,note_on,8,0,0,,,,,,,,0,,,63,0
177000,note_on,12,0,0,,,,,,,,0,,,75,0
177000,note_on,0,0,0,,,,,,,,0,,,51,56
177000,note_on,0,0,0,,,,,,,,0,,,63,67
177040,set_tempo,40,1,0,,,,,,431655,,,,,,
177100,set_tempo,60,1,0,,,,,,430108,,,,,,
177120,note_on,20,0,0,,,,,,,,0,,,63,0
177120,note_on,0,0,0,,,,,,,,0,,,51,0
177120,note_on,0,0,0,,,,,,,,0,,,69,81
177120,note_on,0,0,0,,,,,,,,0,,,81,81
177137,control_change,17,0,0,,,,,,,,0,64,0,,
177160,set_tempo,23,1,0,,,,,,428571,,,,,,
177189,control_change,29,0,0,,,,,,,,0,64,127,,
177220,set_tempo,31,1,0,,,,,,427046,,,,,,
177228,note_on,8,0,0,,,,,,,,0,,,69,0
177240,note_on,12,0,0,,,,,,,,0,,,81,0
177240,note_on,0,0,0,,,,,,,,0,,,57,69
177240,note_on,0,0,0,,,,,,,,0,,,69,69
177280,set_tempo,40,1,0,,,,,,425532,,,,,,
177340,set_tempo,60,1,0,,,,,,424028,,,,,,
177360,note_on,20,0,0,,,,,,,,0,,,69,0
177360,note_on,0,0,0,,,,,,,,0,,,57,0
177360,note_on,0,0,0,,,,,,,,0,,,82,81
177360,note_on,0,0,0,,,,,,,,0,,,70,81
177374,control_change,14,0,0,,,,,,,,0,64,0,,
177400,set_tempo,26,1,0,,,,,,422535,,,,,,
177435,control_change,35,0,0,,,,,,,,0,64,127,,
177460,set_tempo,25,1,0,,,,,,421053,,,,,,
177468,note_on,8,0,0,,,,,,,,0,,,70,0
177480,note_on,12,0,0,,,,,,,,0,,,82,0
177480,note_on,0,0,0,,,,,,,,0,,,58,70
177480,note_on,0,0,0,,,,,,,,0,,,70,70
177520,set_tempo,40,1,0,,,,,,419580,,,,,,
177580,set_tempo,60,1,0,,,,,,418118,,,,,,
177600,note_on,20,0,0,,,,,,,,0,,,70,0
177600,note_on,0,0,0,,,,,,,,0,,,58,0
177600,note_on,0,0,0,,,,,,,,0,,,86,82
177600,note_on,0,0,0,,,,,,,,0,,,74,82
177617,control_change,17,0,0,,,,,,,,0,64,0,,
177640,set_tempo,23,1,0,,,,,,416667,,,,,,
177657,control_change,17,0,0,,,,,,,,0,64,127,,
177700,set_tempo,43,1,0,,,,,,415225,,,,,,
177708,note_on,8,0,0,,,,,,,,0,,,74,0
177720,note_on,12,0,0,,,,,,,,0,,,86,0
177720,note_on,0,0,0,,,,,,,,0,,,62,71
177720,note_on,0,0,0,,,,,,,,0,,,74,71
177760,set_tempo,40,1,0,,,,,,413793,,,,,,
177820,set_tempo,60,1,0,,,,,,412371,,,,,,
177840,note_on,20,0,0,,,,,,,,0,,,74,0
177840,note_on,0,0,0,,,,,,,,0,,,62,0
177840,note_on,0,0,0,,,,,,,,0,,,87,83
177840,note_on,0,0,0,,,,,,,,0,,,75,83
177860,control_change,20,0,0,,,,,,,,0,64,0,,
177880,set_tempo,20,1,0,,,,,,410959,,,,,,
177926,control_change,46,0,0,,,,,,,,0,64,127,,
177940,set_tempo,14,1,0,,,,,,409556,,,,,,
177948,note_on,8,0,0,,,,,,,,0,,,75,0
177960,note_on,12,0,0,,,,,,,,0,,,87,0
177960,note_on,0,0,0,,,,,,,,0,,,63,72
177960,note_on,0,0,0,,,,,,,,0,,,75,72
178000,set_tempo,40,1,0,,,,,,408163,,,,,,
178060,set_tempo,60,1,0,,,,,,406780,,,,,,
178080,note_on,20,0,0,,,,,,,,0,,,75,0
178080,note_on,0,0,0,,,,,,,,0,,,63,0
178080,note_on,0,0,0,,,,,,,,0,,,93,84
178080,note_on,0,0,0,,,,,,,,0,,,81,84
178095,control_change,15,0,0,,,,,,,,0,64,0,,
178120,set_tempo,25,1,0,,,,,,405405,,,,,,
178166,control_change,46,0,0,,,,,,,,0,64,127,,
178180,set_tempo,14,1,0,,,,,,404040,,,,,,
178188,note_on,8,0,0,,,,,,,,0,,,81,0
178200,note_on,12,0,0,,,,,,,,0,,,93,0
178200,note_on,0,0,0,,,,,,,,0,,,69,72
178200,note_on,0,0,0,,,,,,,,0,,,81,72
178240,set_tempo,40,1,0,,,,,,402685,,,,,,
178280,set_tempo,40,1,0,,,,,,401338,,,,,,
178300,set_tempo,20,1,0,,,,,,360360,,,,,,
178320,set_tempo,20,1,0,,,,,,459770,,,,,,
178320,note_on,0,0,0,,,,,,,,0,,,81,0
178320,note_on,0,0,0,,,,,,,,0,,,69,0
178320,note_on,0,0,0,,,,,,,,0,,,94,84
178320,note_on,0,0,0,,,,,,,,0,,,82,84
178322,control_change,2,0,0,,,,,,,,0,64,0,,
178389,control_change,67,0,0,,,,,,,,0,64,127,,
178428,note_on,39,0,0,,,,,,,,0,,,82,0
178440,note_on,12,0,0,,,,,,,,0,,,94,0
178440,note_on,0,0,0,,,,,,,,0,,,70,72
178440,note_on,0,0,0,,,,,,,,0,,,82,72
178560,set_tempo,120,1,0,,,,,,433213,,,,,,
178560,note_on,0,0,0,,,,,,,,0,,,82,0
178560,note_on,0,0,0,,,,,,,,0,,,70,0
178560,note_on,0,0,0,,,,,,,,0,,,86,92
178560,note_on,0,0,0,,,,,,,,0,,,98,92
178569,control_change,9,0,0,,,,,,,,0,64,0,,
178623,control_change,54,0,0,,,,,,,,0,64,127,,
178668,note_on,45,0,0,,,,,,,,0,,,86,0
178680,note_on,12,0,0,,,,,,,,0,,,98,0
178680,note_on,0,0,0,,,,,,,,0,,,74,76
178680,note_on,0,0,0,,,,,,,,0,,,86,76
178800,note_on,120,0,0,,,,,,,,0,,,86,0
178800,note_on,0,0,0,,,,,,,,0,,,74,0
178800,note_on,0,0,0,,,,,,,,0,,,99,89
178800,note_on,0,0,0,,,,,,,,0,,,87,89
178817,control_change,17,0,0,,,,,,,,0,64,0,,
178869,control_change,52,0,0,,,,,,,,0,64,127,,
178908,note_on,39,0,0,,,,,,,,0,,,87,0
178920,note_on,12,0,0,,,,,,,,0,,,99,0
178920,note_on,0,0,0,,,,,,,,0,,,75,72
178920,note_on,0,0,0,,,,,,,,0,,,87,72
179040,set_tempo,120,1,0,,,,,,422535,,,,,,
179040,note_on,0,0,0,,,,,,,,0,,,87,0
179040,note_on,0,0,0,,,,,,,,0,,,75,0
179040,note_on,0,0,0,,,,,,,,0,,,98,93
179040,note_on,0,0,0,,,,,,,,0,,,86,93
179058,control_change,18,0,0,,,,,,,,0,64,0,,
179126,control_change,68,0,0,,,,,,,,0,64,127,,
179148,note_on,22,0,0,,,,,,,,0,,,86,0
179160,set_tempo,12,1,0,,,,,,451128,,,,,,
179160,note_on,0,0,0,,,,,,,,0,,,98,0
179160,note_on,0,0,0,,,,,,,,0,,,74,76
179160,note_on,0,0,0,,,,,,,,0,,,86,76
179280,note_on,120,0,0,,,,,,,,0,,,86,0
179280,note_on,0,0,0,,,,,,,,0,,,74,0
179280,note_on,0,0,0,,,,,,,,0,,,99,86
179280,note_on,0,0,0,,,,,,,,0,,,87,86
179295,control_change,15,0,0,,,,,,,,0,64,0,,
179343,control_change,48,0,0,,,,,,,,0,64,127,,
179388,note_on,45,0,0,,,,,,,,0,,,87,0
179400,note_on,12,0,0,,,,,,,,0,,,99,0
179400,note_on,0,0,0,,,,,,,,0,,,75,72
179400,note_on,0,0,0,,,,,,,,0,,,87,72
179520,set_tempo,120,1,0,,,,,,444444,,,,,,
179520,note_on,0,0,0,,,,,,,,0,,,87,0
179520,note_on,0,0,0,,,,,,,,0,,,75,0
179520,note_on,0,0,0,,,,,,,,0,,,98,87
179520,note_on,0,0,0,,,,,,,,0,,,86,87
179536,control_change,16,0,0,,,,,,,,0,64,0,,
179595,control_change,59,0,0,,,,,,,,0,64,127,,
179628,note_on,33,0,0,,,,,,,,0,,,86,0
179640,note_on,12,0,0,,,,,,,,0,,,98,0
179640,note_on,0,0,0,,,,,,,,0,,,74,72
179640,note_on,0,0,0,,,,,,,,0,,,86,72
179760,note_on,120,0,0,,,,,,,,0,,,86,0
179760,note_on,0,0,0,,,,,,,,0,,,74,0
179760,note_on,0,0,0,,,,,,,,0,,,99,84
179760,note_on,0,0,0,,,,,,,,0,,,87,84
179766,control_change,6,0,0,,,,,,,,0,64,0,,
179812,control_change,46,0,0,,,,,,,,0,64,127,,
179880,note_on,68,0,0,,,,,,,,0,,,87,0
179880,note_on,0,0,0,,,,,,,,0,,,99,0
179880,note_on,0,0,0,,,,,,,,0,,,73,72
179880,note_on,0,0,0,,,,,,,,0,,,85,72
180000,set_tempo,120,1,0,,,,,,441176,,,,,,
180000,note_on,0,0,0,,,,,,,,0,,,85,0
180000,note_on,0,0,0,,,,,,,,0,,,73,0
180000,note_on,0,0,0,,,,,,,,0,,,99,84
180000,note_on,0,0,0,,,,,,,,0,,,87,84
180120,note_on,120,0,0,,,,,,,,0,,,87,0
180120,note_on,0,0,0,,,,,,,,0,,,99,0
180120,note_on,0,0,0,,,,,,,,0,,,70,72
180120,note_on,0,0,0,,,,,,,,0,,,82,72
180240,note_on,120,0,0,,,,,,,,0,,,82,0
180240,note_on,0,0,0,,,,,,,,0,,,70,0
180240,note_on,0,0,0,,,,,,,,0,,,99,86
180240,note_on,0,0,0,,,,,,,,0,,,87,86
180360,note_on,120,0,0,,,,,,,,0,,,87,0
180360,note_on,0,0,0,,,,,,,,0,,,99,0
180360,note_on,0,0,0,,,,,,,,0,,,67,73
180360,note_on,0,0,0,,,,,,,,0,,,79,73
180480,note_on,120,0,0,,,,,,,,0,,,79,0
180480,note_on,0,0,0,,,,,,,,0,,,67,0
180480,note_on,0,0,0,,,,,,,,0,,,99,87
180480,note_on,0,0,0,,,,,,,,0,,,87,87
180600,note_on,120,0,0,,,,,,,,0,,,87,0
180600,note_on,0,0,0,,,,,,,,0,,,99,0
180600,note_on,0,0,0,,,,,,,,0,,,63,73
180600,note_on,0,0,0,,,,,,,,0,,,75,73
180720,note_on,120,0,0,,,,,,,,0,,,75,0
180720,note_on,0,0,0,,,,,,,,0,,,63,0
180720,note_on,0,0,0,,,,,,,,0,,,99,89
180720,note_on,0,0,0,,,,,,,,0,,,87,89
180840,note_on,120,0,0,,,,,,,,0,,,87,0
180840,note_on,0,0,0,,,,,,,,0,,,99,0
180840,note_on,0,0,0,,,,,,,,0,,,61,75
180840,note_on,0,0,0,,,,,,,,0,,,73,75
180960,note_on,120,0,0,,,,,,,,0,,,73,0
180960,note_on,0,0,0,,,,,,,,0,,,61,0
180960,note_on,0,0,0,,,,,,,,0,,,99,89
180960,note_on,0,0,0,,,,,,,,0,,,87,89
181080,note_on,120,0,0,,,,,,,,0,,,87,0
181080,note_on,0,0,0,,,,,,,,0,,,99,0
181080,note_on,0,0,0,,,,,,,,0,,,58,76
181080,note_on,0,0,0,,,,,,,,0,,,70,76
181200,set_tempo,120,1,0,,,,,,439560,,,,,,
181200,note_on,0,0,0,,,,,,,,0,,,70,0
181200,note_on,0,0,0,,,,,,,,0,,,58,0
181200,note_on,0,0,0,,,,,,,,0,,,99,90
181200,note_on,0,0,0,,,,,,,,0,,,87,90
181280,set_tempo,80,1,0,,,,,,441176,,,,,,
181320,note_on,40,0,0,,,,,,,,0,,,87,0
181320,note_on,0,0,0,,,,,,,,0,,,99,0
181320,note_on,0,0,0,,,,,,,,0,,,67,77
181320,note_on,0,0,0,,,,,,,,0,,,55,77
181360,set_tempo,40,1,0,,,,,,442804,,,,,,
181420,set_tempo,60,1,0,,,,,,444444,,,,,,
181440,note_on,20,0,0,,,,,,,,0,,,55,0
181440,note_on,0,0,0,,,,,,,,0,,,67,0
181440,note_on,0,0,0,,,,,,,,0,,,99,90
181440,note_on,0,0,0,,,,,,,,0,,,87,90
181500,set_tempo,60,1,0,,,,,,446097,,,,,,
181560,note_on,60,0,0,,,,,,,,0,,,87,0
181560,note_on,0,0,0,,,,,,,,0,,,99,0
181560,note_on,0,0,0,,,,,,,,0,,,63,79
181560,note_on,0,0,0,,,,,,,,0,,,51,79
181580,set_tempo,20,1,0,,,,,,447761,,,,,,
181640,set_tempo,60,1,0,,,,,,449438,,,,,,
181680,note_on,40,0,0,,,,,,,,0,,,51,0
181680,note_on,0,0,0,,,,,,,,0,,,63,0
181680,note_on,0,0,0,,,,,,,,0,,,99,91
181680,note_on,0,0,0,,,,,,,,0,,,87,91
181720,set_tempo,40,1,0,,,,,,451128,,,,,,
181780,set_tempo,60,1,0,,,,,,452830,,,,,,
181800,note_on,20,0,0,,,,,,,,0,,,87,0
181800,note_on,0,0,0,,,,,,,,0,,,99,0
181800,note_on,0,0,0,,,,,,,,0,,,61,79
181800,note_on,0,0,0,,,,,,,,0,,,49,79
181860,set_tempo,60,1,0,,,,,,454545,,,,,,
181920,note_on,60,0,0,,,,,,,,0,,,49,0
181920,note_on,0,0,0,,,,,,,,0,,,61,0
181920,note_on,0,0,0,,,,,,,,0,,,99,92
181920,note_on,0,0,0,,,,,,,,0,,,87,92
181940,set_tempo,20,1,0,,,,,,456274,,,,,,
182000,set_tempo,60,1,0,,,,,,458015,,,,,,
182040,note_on,40,0,0,,,,,,,,0,,,87,0
182040,note_on,0,0,0,,,,,,,,0,,,99,0
182040,note_on,0,0,0,,,,,,,,0,,,58,80
182040,note_on,0,0,0,,,,,,,,0,,,46,80
182080,set_tempo,40,1,0,,,,,,459770,,,,,,
182140,set_tempo,60,1,0,,,,,,461538,,,,,,
182160,note_on,20,0,0,,,,,,,,0,,,46,0
182160,note_on,0,0,0,,,,,,,,0,,,58,0
182160,note_on,0,0,0,,,,,,,,0,,,99,92
182160,note_on,0,0,0,,,,,,,,0,,,87,92
182220,set_tempo,60,1,0,,,,,,463320,,,,,,
182280,note_on,60,0,0,,,,,,,,0,,,87,0
182280,note_on,0,0,0,,,,,,,,0,,,99,0
182280,note_on,0,0,0,,,,,,,,0,,,55,81
182280,note_on,0,0,0,,,,,,,,0,,,43,81
182300,set_tempo,20,1,0,,,,,,465116,,,,,,
182360,set_tempo,60,1,0,,,,,,466926,,,,,,
182400,note_on,40,0,0,,,,,,,,0,,,43,0
182400,note_on,0,0,0,,,,,,,,0,,,55,0
182400,note_on,0,0,0,,,,,,,,0,,,99,93
182400,note_on,0,0,0,,,,,,,,0,,,87,93
182440,set_tempo,40,1,0,,,,,,468750,,,,,,
182500,set_tempo,60,1,0,,,,,,470588,,,,,,
182520,set_tempo,20,1,0,,,,,,538117,,,,,,
182520,note_on,0,0,0,,,,,,,,0,,,87,0
182520,note_on,0,0,0,,,,,,,,0,,,99,0
182520,note_on,0,0,0,,,,,,,,0,,,39,81
182520,note_on,0,0,0,,,,,,,,0,,,51,81
182640,set_tempo,120,1,0,,,,,,500000,,,,,,
182640,note_on,0,0,0,,,,,,,,0,,,51,0
182640,note_on,0,0,0,,,,,,,,0,,,39,0
182640,note_on,0,0,0,,,,,,,,0,,,87,81
182640,note_on,0,0,0,,,,,,,,0,,,99,81
182730,note_on,90,0,0,,,,,,,,0,,,99,0
182730,note_on,0,0,0,,,,,,,,0,,,87,0
182760,note_on,30,0,0,,,,,,,,0,,,87,77
182760,note_on,0,0,0,,,,,,,,0,,,99,77
182840,set_tempo,80,1,0,,,,,,491803,,,,,,
182850,note_on,10,0,0,,,,,,,,0,,,99,0
182850,note_on,0,0,0,,,,,,,,0,,,87,0
182860,set_tempo,10,1,0,,,,,,495868,,,,,,
182880,set_tempo,20,1,0,,,,,,500000,,,,,,
182880,note_on,0,0,0,,,,,,,,0,,,87,81
182880,note_on,0,0,0,,,,,,,,0,,,99,81
182900,set_tempo,20,1,0,,,,,,502092,,,,,,
182920,set_tempo,20,1,0,,,,,,497925,,,,,,
182970,note_on,50,0,0,,,,,,,,0,,,99,0
182970,note_on,0,0,0,,,,,,,,0,,,87,0
182980,set_tempo,10,1,0,,,,,,495868,,,,,,
183000,note_on,20,0,0,,,,,,,,0,,,87,76
183000,note_on,0,0,0,,,,,,,,0,,,99,76
183040,set_tempo,40,1,0,,,,,,493827,,,,,,
183080,set_tempo,40,1,0,,,,,,491803,,,,,,
183090,note_on,10,0,0,,,,,,,,0,,,99,0
183090,note_on,0,0,0,,,,,,,,0,,,87,0
183120,note_on,30,0,0,,,,,,,,0,,,87,79
183120,note_on,0,0,0,,,,,,,,0,,,99,79
183140,set_tempo,20,1,0,,,,,,489796,,,,,,
183200,set_tempo,60,1,0,,,,,,487805,,,,,,
183210,note_on,10,0,0,,,,,,,,0,,,99,0
183210,note_on,0,0,0,,,,,,,,0,,,87,0
183240,set_tempo,30,1,0,,,,,,485830,,,,,,
183240,note_on,0,0,0,,,,,,,,0,,,87,76
183240,note_on,0,0,0,,,,,,,,0,,,99,76
183300,set_tempo,60,1,0,,,,,,483871,,,,,,
183330,note_on,30,0,0,,,,,,,,0,,,99,0
183330,note_on,0,0,0,,,,,,,,0,,,87,0
183360,set_tempo,30,1,0,,,,,,481928,,,,,,
183360,note_on,0,0,0,,,,,,,,0,,,87,77
183360,note_on,0,0,0,,,,,,,,0,,,99,77
183400,set_tempo,40,1,0,,,,,,480000,,,,,,
183450,note_on,50,0,0,,,,,,,,0,,,99,0
183450,note_on,0,0,0,,,,,,,,0,,,87,0
183460,set_tempo,10,1,0,,,,,,478088,,,,,,
183480,note_on,20,0,0,,,,,,,,0,,,87,76
183480,note_on,0,0,0,,,,,,,,0,,,99,76
183520,set_tempo,40,1,0,,,,,,476190,,,,,,
183560,set_tempo,40,1,0,,,,,,474308,,,,,,
183570,note_on,10,0,0,,,,,,,,0,,,99,0
183570,note_on,0,0,0,,,,,,,,0,,,87,0
183600,set_tempo,30,1,0,,,,,,433213,,,,,,
183600,note_on,0,0,0,,,,,,,,0,,,87,75
183600,note_on,0,0,0,,,,,,,,0,,,99,75
183690,note_on,90,0,0,,,,,,,,0,,,99,0
183690,note_on,0,0,0,,,,,,,,0,,,87,0
183720,set_tempo,30,1,0,,,,,,434783,,,,,,
183720,note_on,0,0,0,,,,,,,,0,,,87,73
183720,note_on,0,0,0,,,,,,,,0,,,99,73
183810,note_on,90,0,0,,,,,,,,0,,,99,0
183810,note_on,0,0,0,,,,,,,,0,,,87,0
183840,set_tempo,30,1,0,,,,,,436364,,,,,,
183840,note_on,0,0,0,,,,,,,,0,,,87,73
183840,note_on,0,0,0,,,,,,,,0,,,99,73
183930,note_on,90,0,0,,,,,,,,0,,,99,0
183930,note_on,0,0,0,,,,,,,,0,,,87,0
183960,set_tempo,30,1,0,,,,,,437956,,,,,,
183960,note_on,0,0,0,,,,,,,,0,,,87,72
183960,note_on,0,0,0,,,,,,,,0,,,99,72
184050,note_on,90,0,0,,,,,,,,0,,,99,0
184050,note_on,0,0,0,,,,,,,,0,,,87,0
184060,set_tempo,10,1,0,,,,,,437956,,,,,,
184080,note_on,20,0,0,,,,,,,,0,,,87,72
184080,note_on,0,0,0,,,,,,,,0,,,99,72
184170,note_on,90,0,0,,,,,,,,0,,,99,0
184170,note_on,0,0,0,,,,,,,,0,,,87,0
184200,note_on,30,0,0,,,,,,,,0,,,87,70
184200,note_on,0,0,0,,,,,,,,0,,,99,70
184220,set_tempo,20,1,0,,,,,,436364,,,,,,
184290,note_on,70,0,0,,,,,,,,0,,,99,0
184290,note_on,0,0,0,,,,,,,,0,,,87,0
184320,note_on,30,0,0,,,,,,,,0,,,87,71
184320,note_on,0,0,0,,,,,,,,0,,,99,71
184380,set_tempo,60,1,0,,,,,,434783,,,,,,
184410,note_on,30,0,0,,,,,,,,0,,,99,0
184410,note_on,0,0,0,,,,,,,,0,,,87,0
184440,note_on,30,0,0,,,,,,,,0,,,87,69
184440,note_on,0,0,0,,,,,,,,0,,,99,69
184530,note_on,90,0,0,,,,,,,,0,,,99,0
184530,note_on,0,0,0,,,,,,,,0,,,87,0
184540,set_tempo,10,1,0,,,,,,433213,,,,,,
184560,set_tempo,20,1,0,,,,,,517241,,,,,,
184560,note_on,0,0,0,,,,,,,,0,,,87,76
184560,note_on,0,0,0,,,,,,,,0,,,99,76
184560,note_on,0,0,0,,,,,,,,0,,,63,72
184574,control_change,14,0,0,,,,,,,,0,64,0,,
184650,note_on,76,0,0,,,,,,,,0,,,99,0
184650,note_on,0,0,0,,,,,,,,0,,,87,0
184680,note_on,30,0,0,,,,,,,,0,,,63,0
184680,note_on,0,0,0,,,,,,,,0,,,87,70
184680,note_on,0,0,0,,,,,,,,0,,,99,70
184701,control_change,21,0,0,,,,,,,,0,64,127,,
184770,note_on,69,0,0,,,,,,,,0,,,99,0
184770,note_on,0,0,0,,,,,,,,0,,,87,0
184780,set_tempo,10,1,0,,,,,,480000,,,,,,
184800,set_tempo,20,1,0,,,,,,473410,,,,,,
184800,note_on,0,0,0,,,,,,,,0,,,87,70
184800,note_on,0,0,0,,,,,,,,0,,,99,70
184800,note_on,0,0,0,,,,,,,,0,,,75,80
184890,note_on,90,0,0,,,,,,,,0,,,99,0
184890,note_on,0,0,0,,,,,,,,0,,,87,0
184920,note_on,30,0,0,,,,,,,,0,,,75,0
184920,note_on,0,0,0,,,,,,,,0,,,87,70
184920,note_on,0,0,0,,,,,,,,0,,,99,70
185010,note_on,90,0,0,,,,,,,,0,,,99,0
185010,note_on,0,0,0,,,,,,,,0,,,87,0
185040,note_on,30,0,0,,,,,,,,0,,,87,66
185040,note_on,0,0,0,,,,,,,,0,,,99,66
185130,note_on,90,0,0,,,,,,,,0,,,99,0
185130,note_on,0,0,0,,,,,,,,0,,,87,0
185160,note_on,30,0,0,,,,,,,,0,,,87,66
185160,note_on,0,0,0,,,,,,,,0,,,99,66
185250,note_on,90,0,0,,,,,,,,0,,,99,0
185250,note_on,0,0,0,,,,,,,,0,,,87,0
185260,set_tempo,10,1,0,,,,,,467800,,,,,,
185280,set_tempo,20,1,0,,,,,,455201,,,,,,
185280,note_on,0,0,0,,,,,,,,0,,,85,63
185280,note_on,0,0,0,,,,,,,,0,,,97,63
185294,control_change,14,0,0,,,,,,,,0,64,0,,
185370,note_on,76,0,0,,,,,,,,0,,,97,0
185370,note_on,0,0,0,,,,,,,,0,,,85,0
185400,note_on,30,0,0,,,,,,,,0,,,85,62
185400,note_on,0,0,0,,,,,,,,0,,,97,62
185480,set_tempo,80,1,0,,,,,,448330,,,,,,
185490,note_on,10,0,0,,,,,,,,0,,,97,0
185490,note_on,0,0,0,,,,,,,,0,,,85,0
185520,set_tempo,30,1,0,,,,,,448330,,,,,,
185520,note_on,0,0,0,,,,,,,,0,,,95,66
185520,note_on,0,0,0,,,,,,,,0,,,83,66
185520,note_on,0,0,0,,,,,,,,0,,,32,57
185520,note_on,0,0,0,,,,,,,,0,,,44,64
185549,control_change,29,0,0,,,,,,,,0,64,127,,
185610,note_on,61,0,0,,,,,,,,0,,,83,0
185610,note_on,0,0,0,,,,,,,,0,,,95,0
185640,note_on,30,0,0,,,,,,,,0,,,95,66
185640,note_on,0,0,0,,,,,,,,0,,,83,66
185730,note_on,90,0,0,,,,,,,,0,,,83,0
185730,note_on,0,0,0,,,,,,,,0,,,95,0
185760,note_on,30,0,0,,,,,,,,0,,,32,0
185760,note_on,0,0,0,,,,,,,,0,,,44,0
185760,note_on,0,0,0,,,,,,,,0,,,95,66
185760,note_on,0,0,0,,,,,,,,0,,,83,66
185760,note_on,0,0,0,,,,,,,,0,,,51,53
185760,note_on,0,0,0,,,,,,,,0,,,63,59
185760,note_on,0,0,0,,,,,,,,0,,,59,53
185850,note_on,90,0,0,,,,,,,,0,,,59,0
185850,note_on,0,0,0,,,,,,,,0,,,51,0
185850,note_on,0,0,0,,,,,,,,0,,,95,0
185850,note_on,0,0,0,,,,,,,,0,,,83,0
185850,note_on,0,0,0,,,,,,,,0,,,63,0
185880,note_on,30,0,0,,,,,,,,0,,,95,66
185880,note_on,0,0,0,,,,,,,,0,,,83,66
185880,note_on,0,0,0,,,,,,,,0,,,51,53
185880,note_on,0,0,0,,,,,,,,0,,,59,53
185880,note_on,0,0,0,,,,,,,,0,,,63,59
185970,note_on,90,0,0,,,,,,,,0,,,63,0
185970,note_on,0,0,0,,,,,,,,0,,,51,0
185970,note_on,0,0,0,,,,,,,,0,,,95,0
185970,note_on,0,0,0,,,,,,,,0,,,83,0
185970,note_on,0,0,0,,,,,,,,0,,,59,0
186000,set_tempo,30,1,0,,,,,,450011,,,,,,
186000,note_on,0,0,0,,,,,,,,0,,,94,62
186000,note_on,0,0,0,,,,,,,,0,,,82,62
186000,note_on,0,0,0,,,,,,,,0,,,56,53
186000,note_on,0,0,0,,,,,,,,0,,,59,53
186000,note_on,0,0,0,,,,,,,,0,,,63,59
186017,control_change,17,0,0,,,,,,,,0,64,0,,
186063,control_change,46,0,0,,,,,,,,0,64,127,,
186090,note_on,27,0,0,,,,,,,,0,,,82,0
186090,note_on,0,0,0,,,,,,,,0,,,94,0
186120,note_on,30,0,0,,,,,,,,0,,,94,62
186120,note_on,0,0,0,,,,,,,,0,,,82,62
186210,note_on,90,0,0,,,,,,,,0,,,82,0
186210,note_on,0,0,0,,,,,,,,0,,,94,0
186235,control_change,25,0,0,,,,,,,,0,64,0,,
186240,set_tempo,5,1,0,,,,,,439979,,,,,,
186240,note_on,0,0,0,,,,,,,,0,,,63,0
186240,note_on,0,0,0,,,,,,,,0,,,56,0
186240,note_on,0,0,0,,,,,,,,0,,,59,0
186240,note_on,0,0,0,,,,,,,,0,,,92,63
186240,note_on,0,0,0,,,,,,,,0,,,80,63
186240,note_on,0,0,0,,,,,,,,0,,,35,64
186240,note_on,0,0,0,,,,,,,,0,,,47,64
186309,control_change,69,0,0,,,,,,,,0,64,127,,
186330,note_on,21,0,0,,,,,,,,0,,,80,0
186330,note_on,0,0,0,,,,,,,,0,,,92,0
186360,note_on,30,0,0,,,,,,,,0,,,92,63
186360,note_on,0,0,0,,,,,,,,0,,,80,63
186450,note_on,90,0,0,,,,,,,,0,,,80,0
186450,note_on,0,0,0,,,,,,,,0,,,92,0
186480,note_on,30,0,0,,,,,,,,0,,,35,0
186480,note_on,0,0,0,,,,,,,,0,,,47,0
186480,note_on,0,0,0,,,,,,,,0,,,91,62
186480,note_on,0,0,0,,,,,,,,0,,,79,62
186480,note_on,0,0,0,,,,,,,,0,,,51,53
186480,note_on,0,0,0,,,,,,,,0,,,59,53
186480,note_on,0,0,0,,,,,,,,0,,,63,59
186487,control_change,7,0,0,,,,,,,,0,64,0,,
186555,control_change,68,0,0,,,,,,,,0,64,127,,
186570,note_on,15,0,0,,,,,,,,0,,,63,0
186570,note_on,0,0,0,,,,,,,,0,,,51,0
186570,note_on,0,0,0,,,,,,,,0,,,91,0
186570,note_on,0,0,0,,,,,,,,0,,,79,0
186570,note_on,0,0,0,,,,,,,,0,,,59,0
186600,note_on,30,0,0,,,,,,,,0,,,91,62
186600,note_on,0,0,0,,,,,,,,0,,,79,62
186600,note_on,0,0,0,,,,,,,,0,,,63,59
186600,note_on,0,0,0,,,,,,,,0,,,59,53
186600,note_on,0,0,0,,,,,,,,0,,,51,53
186690,note_on,90,0,0,,,,,,,,0,,,51,0
186690,note_on,0,0,0,,,,,,,,0,,,63,0
186690,note_on,0,0,0,,,,,,,,0,,,91,0
186690,note_on,0,0,0,,,,,,,,0,,,79,0
186690,note_on,0,0,0,,,,,,,,0,,,59,0
186720,set_tempo,30,1,0,,,,,,433526,,,,,,
186720,note_on,0,0,0,,,,,,,,0,,,92,62
186720,note_on,0,0,0,,,,,,,,0,,,80,62
186720,note_on,0,0,0,,,,,,,,0,,,56,53
186720,note_on,0,0,0,,,,,,,,0,,,59,53
186720,note_on,0,0,0,,,,,,,,0,,,63,59
186743,control_change,23,0,0,,,,,,,,0,64,0,,
186789,control_change,46,0,0,,,,,,,,0,64,127,,
186810,note_on,21,0,0,,,,,,,,0,,,80,0
186810,note_on,0,0,0,,,,,,,,0,,,92,0
186840,note_on,30,0,0,,,,,,,,0,,,92,62
186840,note_on,0,0,0,,,,,,,,0,,,80,62
186930,note_on,90,0,0,,,,,,,,0,,,80,0
186930,note_on,0,0,0,,,,,,,,0,,,92,0
186960,set_tempo,30,1,0,,,,,,441631,,,,,,
186960,note_on,0,0,0,,,,,,,,0,,,63,0
186960,note_on,0,0,0,,,,,,,,0,,,56,0
186960,note_on,0,0,0,,,,,,,,0,,,59,0
186960,note_on,0,0,0,,,,,,,,0,,,94,66
186960,note_on,0,0,0,,,,,,,,0,,,82,66
186960,control_change,0,0,0,,,,,,,,0,64,0,,
186960,note_on,0,0,0,,,,,,,,0,,,39,55
186960,note_on,0,0,0,,,,,,,,0,,,51,63
187029,control_change,69,0,0,,,,,,,,0,64,127,,
187050,note_on,21,0,0,,,,,,,,0,,,82,0
187050,note_on,0,0,0,,,,,,,,0,,,94,0
187080,note_on,30,0,0,,,,,,,,0,,,94,66
187080,note_on,0,0,0,,,,,,,,0,,,82,66
187170,note_on,90,0,0,,,,,,,,0,,,82,0
187170,note_on,0,0,0,,,,,,,,0,,,94,0
187200,note_on,30,0,0,,,,,,,,0,,,39,0
187200,note_on,0,0,0,,,,,,,,0,,,51,0
187200,note_on,0,0,0,,,,,,,,0,,,87,62
187200,note_on,0,0,0,,,,,,,,0,,,75,62
187200,note_on,0,0,0,,,,,,,,0,,,55,53
187200,note_on,0,0,0,,,,,,,,0,,,63,53
187200,note_on,0,0,0,,,,,,,,0,,,67,59
187290,note_on,90,0,0,,,,,,,,0,,,67,0
187290,note_on,0,0,0,,,,,,,,0,,,55,0
187290,note_on,0,0,0,,,,,,,,0,,,87,0
187290,note_on,0,0,0,,,,,,,,0,,,75,0
187290,note_on,0,0,0,,,,,,,,0,,,63,0
187320,note_on,30,0,0,,,,,,,,0,,,87,62
187320,note_on,0,0,0,,,,,,,,0,,,75,62
187320,note_on,0,0,0,,,,,,,,0,,,55,53
187320,note_on,0,0,0,,,,,,,,0,,,63,53
187320,note_on,0,0,0,,,,,,,,0,,,67,59
187410,note_on,90,0,0,,,,,,,,0,,,67,0
187410,note_on,0,0,0,,,,,,,,0,,,55,0
187410,note_on,0,0,0,,,,,,,,0,,,87,0
187410,note_on,0,0,0,,,,,,,,0,,,75,0
187410,note_on,0,0,0,,,,,,,,0,,,63,0
187440,set_tempo,30,1,0,,,,,,430385,,,,,,
187440,note_on,0,0,0,,,,,,,,0,,,87,62
187440,note_on,0,0,0,,,,,,,,0,,,75,62
187440,note_on,0,0,0,,,,,,,,0,,,58,53
187440,note_on,0,0,0,,,,,,,,0,,,63,53
187440,note_on,0,0,0,,,,,,,,0,,,67,59
187447,control_change,7,0,0,,,,,,,,0,64,0,,
187515,control_change,68,0,0,,,,,,,,0,64,127,,
187530,note_on,15,0,0,,,,,,,,0,,,75,0
187530,note_on,0,0,0,,,,,,,,0,,,87,0
187560,note_on,30,0,0,,,,,,,,0,,,87,62
187560,note_on,0,0,0,,,,,,,,0,,,75,62
187650,note_on,90,0,0,,,,,,,,0,,,75,0
187650,note_on,0,0,0,,,,,,,,0,,,87,0
187680,set_tempo,30,1,0,,,,,,431965,,,,,,
187680,note_on,0,0,0,,,,,,,,0,,,67,0
187680,note_on,0,0,0,,,,,,,,0,,,58,0
187680,note_on,0,0,0,,,,,,,,0,,,63,0
187680,note_on,0,0,0,,,,,,,,0,,,88,64
187680,note_on,0,0,0,,,,,,,,0,,,76,64
187680,note_on,0,0,0,,,,,,,,0,,,43,60
187680,note_on,0,0,0,,,,,,,,0,,,55,60
187695,control_change,15,0,0,,,,,,,,0,64,0,,
187749,control_change,54,0,0,,,,,,,,0,64,127,,
187770,note_on,21,0,0,,,,,,,,0,,,76,0
187770,note_on,0,0,0,,,,,,,,0,,,88,0
187800,note_on,30,0,0,,,,,,,,0,,,88,64
187800,note_on,0,0,0,,,,,,,,0,,,76,64
187890,note_on,90,0,0,,,,,,,,0,,,76,0
187890,note_on,0,0,0,,,,,,,,0,,,88,0
187920,note_on,30,0,0,,,,,,,,0,,,43,0
187920,note_on,0,0,0,,,,,,,,0,,,55,0
187920,note_on,0,0,0,,,,,,,,0,,,87,64
187920,note_on,0,0,0,,,,,,,,0,,,75,64
187920,note_on,0,0,0,,,,,,,,0,,,61,47
187920,note_on,0,0,0,,,,,,,,0,,,63,47
187920,note_on,0,0,0,,,,,,,,0,,,70,54
187937,control_change,17,0,0,,,,,,,,0,64,0,,
187989,control_change,52,0,0,,,,,,,,0,64,127,,
188010,note_on,21,0,0,,,,,,,,0,,,70,0
188010,note_on,0,0,0,,,,,,,,0,,,61,0
188010,note_on,0,0,0,,,,,,,,0,,,87,0
188010,note_on,0,0,0,,,,,,,,0,,,75,0
188010,note_on,0,0,0,,,,,,,,0,,,63,0
188040,note_on,30,0,0,,,,,,,,0,,,87,62
188040,note_on,0,0,0,,,,,,,,0,,,75,62
188040,note_on,0,0,0,,,,,,,,0,,,61,47
188040,note_on,0,0,0,,,,,,,,0,,,63,47
188040,note_on,0,0,0,,,,,,,,0,,,70,54
188130,note_on,90,0,0,,,,,,,,0,,,70,0
188130,note_on,0,0,0,,,,,,,,0,,,61,0
188130,note_on,0,0,0,,,,,,,,0,,,87,0
188130,note_on,0,0,0,,,,,,,,0,,,75,0
188130,note_on,0,0,0,,,,,,,,0,,,63,0
188160,set_tempo,30,1,0,,,,,,428816,,,,,,
188160,note_on,0,0,0,,,,,,,,0,,,85,62
188160,note_on,0,0,0,,,,,,,,0,,,73,62
188160,note_on,0,0,0,,,,,,,,0,,,61,47
188160,note_on,0,0,0,,,,,,,,0,,,63,47
188160,note_on,0,0,0,,,,,,,,0,,,70,54
188168,control_change,8,0,0,,,,,,,,0,64,0,,
188212,control_change,44,0,0,,,,,,,,0,64,127,,
188250,note_on,38,0,0,,,,,,,,0,,,73,0
188250,note_on,0,0,0,,,,,,,,0,,,85,0
188280,note_on,30,0,0,,,,,,,,0,,,85,62
188280,note_on,0,0,0,,,,,,,,0,,,73,62
188370,note_on,90,0,0,,,,,,,,0,,,73,0
188370,note_on,0,0,0,,,,,,,,0,,,85,0
188400,set_tempo,30,1,0,,,,,,433526,,,,,,
188400,note_on,0,0,0,,,,,,,,0,,,70,0
188400,note_on,0,0,0,,,,,,,,0,,,61,0
188400,note_on,0,0,0,,,,,,,,0,,,63,0
188400,note_on,0,0,0,,,,,,,,0,,,83,63
188400,note_on,0,0,0,,,,,,,,0,,,71,63
188400,control_change,0,0,0,,,,,,,,0,64,0,,
188400,note_on,0,0,0,,,,,,,,0,,,56,62
188400,note_on,0,0,0,,,,,,,,0,,,44,54
188480,control_change,80,0,0,,,,,,,,0,64,127,,
188490,note_on,10,0,0,,,,,,,,0,,,71,0
188490,note_on,0,0,0,,,,,,,,0,,,83,0
188520,note_on,30,0,0,,,,,,,,0,,,83,63
188520,note_on,0,0,0,,,,,,,,0,,,71,63
188610,note_on,90,0,0,,,,,,,,0,,,71,0
188610,note_on,0,0,0,,,,,,,,0,,,83,0
188640,note_on,30,0,0,,,,,,,,0,,,56,0
188640,note_on,0,0,0,,,,,,,,0,,,44,0
188640,note_on,0,0,0,,,,,,,,0,,,83,63
188640,note_on,0,0,0,,,,,,,,0,,,71,63
188640,note_on,0,0,0,,,,,,,,0,,,59,49
188640,note_on,0,0,0,,,,,,,,0,,,63,49
188640,note_on,0,0,0,,,,,,,,0,,,68,54
188730,note_on,90,0,0,,,,,,,,0,,,68,0
188730,note_on,0,0,0,,,,,,,,0,,,59,0
188730,note_on,0,0,0,,,,,,,,0,,,83,0
188730,note_on,0,0,0,,,,,,,,0,,,71,0
188730,note_on,0,0,0,,,,,,,,0,,,63,0
188760,note_on,30,0,0,,,,,,,,0,,,83,62
188760,note_on,0,0,0,,,,,,,,0,,,71,62
188760,note_on,0,0,0,,,,,,,,0,,,59,49
188760,note_on,0,0,0,,,,,,,,0,,,63,49
188760,note_on,0,0,0,,,,,,,,0,,,68,54
188850,note_on,90,0,0,,,,,,,,0,,,68,0
188850,note_on,0,0,0,,,,,,,,0,,,59,0
188850,note_on,0,0,0,,,,,,,,0,,,83,0
188850,note_on,0,0,0,,,,,,,,0,,,71,0
188850,note_on,0,0,0,,,,,,,,0,,,63,0
188880,set_tempo,30,1,0,,,,,,425743,,,,,,
188880,note_on,0,0,0,,,,,,,,0,,,82,63
188880,note_on,0,0,0,,,,,,,,0,,,70,63
188880,note_on,0,0,0,,,,,,,,0,,,59,49
188880,note_on,0,0,0,,,,,,,,0,,,63,54
188888,control_change,8,0,0,,,,,,,,0,64,0,,
188949,control_change,61,0,0,,,,,,,,0,64,127,,
188970,note_on,21,0,0,,,,,,,,0,,,70,0
188970,note_on,0,0,0,,,,,,,,0,,,82,0
189000,note_on,30,0,0,,,,,,,,0,,,82,63
189000,note_on,0,0,0,,,,,,,,0,,,70,63
189090,note_on,90,0,0,,,,,,,,0,,,70,0
189090,note_on,0,0,0,,,,,,,,0,,,82,0
189120,set_tempo,30,1,0,,,,,,430385,,,,,,
189120,note_on,0,0,0,,,,,,,,0,,,59,0
189120,note_on,0,0,0,,,,,,,,0,,,63,0
189120,note_on,0,0,0,,,,,,,,0,,,80,65
189120,note_on,0,0,0,,,,,,,,0,,,68,65
189120,note_on,0,0,0,,,,,,,,0,,,40,59
189132,control_change,12,0,0,,,,,,,,0,64,0,,
189195,control_change,63,0,0,,,,,,,,0,64,127,,
189210,note_on,15,0,0,,,,,,,,0,,,68,0
189210,note_on,0,0,0,,,,,,,,0,,,80,0
189240,note_on,30,0,0,,,,,,,,0,,,80,65
189240,note_on,0,0,0,,,,,,,,0,,,68,65
189330,note_on,90,0,0,,,,,,,,0,,,68,0
189330,note_on,0,0,0,,,,,,,,0,,,80,0
189360,set_tempo,30,1,0,,,,,,425743,,,,,,
189360,note_on,0,0,0,,,,,,,,0,,,40,0
189360,note_on,0,0,0,,,,,,,,0,,,79,62
189360,note_on,0,0,0,,,,,,,,0,,,67,62
189360,note_on,0,0,0,,,,,,,,0,,,62,56
189360,note_on,0,0,0,,,,,,,,0,,,58,51
189372,control_change,12,0,0,,,,,,,,0,64,0,,
189440,control_change,68,0,0,,,,,,,,0,64,127,,
189450,note_on,10,0,0,,,,,,,,0,,,58,0
189450,note_on,0,0,0,,,,,,,,0,,,79,0
189450,note_on,0,0,0,,,,,,,,0,,,67,0
189450,note_on,0,0,0,,,,,,,,0,,,62,0
189480,note_on,30,0,0,,,,,,,,0,,,79,62
189480,note_on,0,0,0,,,,,,,,0,,,67,62
189480,note_on,0,0,0,,,,,,,,0,,,62,56
189480,note_on,0,0,0,,,,,,,,0,,,58,51
189570,note_on,90,0,0,,,,,,,,0,,,58,0
189570,note_on,0,0,0,,,,,,,,0,,,79,0
189570,note_on,0,0,0,,,,,,,,0,,,67,0
189570,note_on,0,0,0,,,,,,,,0,,,62,0
189600,set_tempo,30,1,0,,,,,,421200,,,,,,
189600,note_on,0,0,0,,,,,,,,0,,,80,63
189600,note_on,0,0,0,,,,,,,,0,,,68,63
189600,note_on,0,0,0,,,,,,,,0,,,58,51
189600,note_on,0,0,0,,,,,,,,0,,,62,56
189609,control_change,9,0,0,,,,,,,,0,64,0,,
189663,control_change,54,0,0,,,,,,,,0,64,127,,
189690,note_on,27,0,0,,,,,,,,0,,,68,0
189690,note_on,0,0,0,,,,,,,,0,,,80,0
189720,note_on,30,0,0,,,,,,,,0,,,80,63
189720,note_on,0,0,0,,,,,,,,0,,,68,63
189810,note_on,90,0,0,,,,,,,,0,,,68,0
189810,note_on,0,0,0,,,,,,,,0,,,80,0
189840,set_tempo,30,1,0,,,,,,433526,,,,,,
189840,note_on,0,0,0,,,,,,,,0,,,58,0
189840,note_on,0,0,0,,,,,,,,0,,,62,0
189840,note_on,0,0,0,,,,,,,,0,,,82,65
189840,note_on,0,0,0,,,,,,,,0,,,70,65
189840,note_on,0,0,0,,,,,,,,0,,,39,60
189848,control_change,8,0,0,,,,,,,,0,64,0,,
189897,control_change,49,0,0,,,,,,,,0,64,127,,
189930,note_on,33,0,0,,,,,,,,0,,,70,0
189930,note_on,0,0,0,,,,,,,,0,,,82,0
189960,note_on,30,0,0,,,,,,,,0,,,82,64
189960,note_on,0,0,0,,,,,,,,0,,,70,64
190050,note_on,90,0,0,,,,,,,,0,,,70,0
190050,note_on,0,0,0,,,,,,,,0,,,82,0
190060,set_tempo,10,1,0,,,,,,454442,,,,,,
190080,note_on,20,0,0,,,,,,,,0,,,39,0
190080,note_on,0,0,0,,,,,,,,0,,,63,59
190080,note_on,0,0,0,,,,,,,,0,,,75,59
190080,note_on,0,0,0,,,,,,,,0,,,55,50
190080,note_on,0,0,0,,,,,,,,0,,,58,55
190092,control_change,12,0,0,,,,,,,,0,64,0,,
190140,set_tempo,48,1,0,,,,,,456482,,,,,,
190143,control_change,3,0,0,,,,,,,,0,64,127,,
190170,note_on,27,0,0,,,,,,,,0,,,58,0
190170,note_on,0,0,0,,,,,,,,0,,,63,0
190170,note_on,0,0,0,,,,,,,,0,,,75,0
190170,note_on,0,0,0,,,,,,,,0,,,55,0
190200,note_on,30,0,0,,,,,,,,0,,,75,59
190200,note_on,0,0,0,,,,,,,,0,,,63,59
190200,note_on,0,0,0,,,,,,,,0,,,55,50
190200,note_on,0,0,0,,,,,,,,0,,,58,55
190220,set_tempo,20,1,0,,,,,,458540,,,,,,
190261,set_tempo,41,1,0,,,,,,464900,,,,,,
190290,note_on,29,0,0,,,,,,,,0,,,58,0
190290,note_on,0,0,0,,,,,,,,0,,,75,0
190290,note_on,0,0,0,,,,,,,,0,,,63,0
190290,note_on,0,0,0,,,,,,,,0,,,55,0
190300,set_tempo,10,1,0,,,,,,467035,,,,,,
190320,set_tempo,20,1,0,,,,,,555556,,,,,,
190320,note_on,0,0,0,,,,,,,,0,,,87,63
190320,note_on,0,0,0,,,,,,,,0,,,75,63
190320,note_on,0,0,0,,,,,,,,0,,,63,57
190320,note_on,0,0,0,,,,,,,,0,,,58,52
190320,note_on,0,0,0,,,,,,,,0,,,55,52
190330,control_change,10,0,0,,,,,,,,0,64,0,,
190381,set_tempo,51,1,0,,,,,,547945,,,,,,
190400,control_change,19,0,0,,,,,,,,0,64,127,,
190410,note_on,10,0,0,,,,,,,,0,,,75,0
190410,note_on,0,0,0,,,,,,,,0,,,87,0
190440,note_on,30,0,0,,,,,,,,0,,,87,63
190440,note_on,0,0,0,,,,,,,,0,,,75,63
190530,note_on,90,0,0,,,,,,,,0,,,75,0
190530,note_on,0,0,0,,,,,,,,0,,,87,0
190560,set_tempo,30,1,0,,,,,,510638,,,,,,
190560,note_on,0,0,0,,,,,,,,0,,,55,0
190560,note_on,0,0,0,,,,,,,,0,,,63,0
190560,note_on,0,0,0,,,,,,,,0,,,58,0
190560,note_on,0,0,0,,,,,,,,0,,,99,77
190560,note_on,0,0,0,,,,,,,,0,,,87,77
190560,note_on,0,0,0,,,,,,,,0,,,67,52
190560,note_on,0,0,0,,,,,,,,0,,,70,52
190560,note_on,0,0,0,,,,,,,,0,,,75,57
190575,control_change,15,0,0,,,,,,,,0,64,0,,
190650,note_on,75,0,0,,,,,,,,0,,,87,0
190650,note_on,0,0,0,,,,,,,,0,,,99,0
190680,note_on,30,0,0,,,,,,,,0,,,87,77
190680,note_on,0,0,0,,,,,,,,0,,,99,77
190770,note_on,90,0,0,,,,,,,,0,,,99,0
190770,note_on,0,0,0,,,,,,,,0,,,87,0
190800,note_on,30,0,0,,,,,,,,0,,,75,0
190800,note_on,0,0,0,,,,,,,,0,,,67,0
190800,note_on,0,0,0,,,,,,,,0,,,70,0
190800,note_on,0,0,0,,,,,,,,0,,,99,77
190800,note_on,0,0,0,,,,,,,,0,,,87,77
190890,note_on,90,0,0,,,,,,,,0,,,87,0
190890,note_on,0,0,0,,,,,,,,0,,,99,0
190920,note_on,30,0,0,,,,,,,,0,,,99,77
190920,note_on,0,0,0,,,,,,,,0,,,87,77
191010,note_on,90,0,0,,,,,,,,0,,,87,0
191010,note_on,0,0,0,,,,,,,,0,,,99,0
191040,set_tempo,30,1,0,,,,,,502092,,,,,,
191040,note_on,0,0,0,,,,,,,,0,,,97,75
191040,note_on,0,0,0,,,,,,,,0,,,85,75
191130,note_on,90,0,0,,,,,,,,0,,,85,0
191130,note_on,0,0,0,,,,,,,,0,,,97,0
191160,note_on,30,0,0,,,,,,,,0,,,85,75
191160,note_on,0,0,0,,,,,,,,0,,,97,75
191250,note_on,90,0,0,,,,,,,,0,,,97,0
191250,note_on,0,0,0,,,,,,,,0,,,85,0
191280,set_tempo,30,1,0,,,,,,489796,,,,,,
191280,note_on,0,0,0,,,,,,,,0,,,96,75
191280,note_on,0,0,0,,,,,,,,0,,,84,75
191280,note_on,0,0,0,,,,,,,,0,,,32,69
191280,note_on,0,0,0,,,,,,,,0,,,44,76
191370,note_on,90,0,0,,,,,,,,0,,,84,0
191370,note_on,0,0,0,,,,,,,,0,,,96,0
191372,control_change,2,0,0,,,,,,,,0,64,127,,
191400,note_on,28,0,0,,,,,,,,0,,,84,75
191400,note_on,0,0,0,,,,,,,,0,,,96,75
191490,note_on,90,0,0,,,,,,,,0,,,96,0
191490,note_on,0,0,0,,,,,,,,0,,,84,0
191520,note_on,30,0,0,,,,,,,,0,,,32,0
191520,note_on,0,0,0,,,,,,,,0,,,44,0
191520,note_on,0,0,0,,,,,,,,0,,,84,72
191520,note_on,0,0,0,,,,,,,,0,,,96,72
191520,note_on,0,0,0,,,,,,,,0,,,63,55
191520,note_on,0,0,0,,,,,,,,0,,,57,50
191520,note_on,0,0,0,,,,,,,,0,,,54,50
191610,note_on,90,0,0,,,,,,,,0,,,54,0
191610,note_on,0,0,0,,,,,,,,0,,,63,0
191610,note_on,0,0,0,,,,,,,,0,,,84,0
191610,note_on,0,0,0,,,,,,,,0,,,96,0
191610,note_on,0,0,0,,,,,,,,0,,,57,0
191640,note_on,30,0,0,,,,,,,,0,,,84,72
191640,note_on,0,0,0,,,,,,,,0,,,96,72
191640,note_on,0,0,0,,,,,,,,0,,,54,50
191640,note_on,0,0,0,,,,,,,,0,,,57,50
191640,note_on,0,0,0,,,,,,,,0,,,63,55
191730,note_on,90,0,0,,,,,,,,0,,,63,0
191730,note_on,0,0,0,,,,,,,,0,,,54,0
191730,note_on,0,0,0,,,,,,,,0,,,84,0
191730,note_on,0,0,0,,,,,,,,0,,,96,0
191730,note_on,0,0,0,,,,,,,,0,,,57,0
191760,set_tempo,30,1,0,,,,,,495868,,,,,,
191760,note_on,0,0,0,,,,,,,,0,,,93,71
191760,note_on,0,0,0,,,,,,,,0,,,81,71
191760,note_on,0,0,0,,,,,,,,0,,,54,50
191760,note_on,0,0,0,,,,,,,,0,,,57,50
191760,note_on,0,0,0,,,,,,,,0,,,63,55
191777,control_change,17,0,0,,,,,,,,0,64,0,,
191850,note_on,73,0,0,,,,,,,,0,,,81,0
191850,note_on,0,0,0,,,,,,,,0,,,93,0
191863,control_change,13,0,0,,,,,,,,0,64,127,,
191880,note_on,17,0,0,,,,,,,,0,,,81,71
191880,note_on,0,0,0,,,,,,,,0,,,93,71
191970,note_on,90,0,0,,,,,,,,0,,,93,0
191970,note_on,0,0,0,,,,,,,,0,,,81,0
192000,set_tempo,30,1,0,,,,,,476190,,,,,,
192000,note_on,0,0,0,,,,,,,,0,,,63,0
192000,note_on,0,0,0,,,,,,,,0,,,54,0
192000,note_on,0,0,0,,,,,,,,0,,,57,0
192000,note_on,0,0,0,,,,,,,,0,,,92,73
192000,note_on,0,0,0,,,,,,,,0,,,80,73
192000,note_on,0,0,0,,,,,,,,0,,,36,71
192000,note_on,0,0,0,,,,,,,,0,,,48,80
192012,control_change,12,0,0,,,,,,,,0,64,0,,
192080,control_change,68,0,0,,,,,,,,0,64,127,,
192090,note_on,10,0,0,,,,,,,,0,,,80,0
192090,note_on,0,0,0,,,,,,,,0,,,92,0
192120,note_on,30,0,0,,,,,,,,0,,,80,73
192120,note_on,0,0,0,,,,,,,,0,,,92,73
192210,note_on,90,0,0,,,,,,,,0,,,92,0
192210,note_on,0,0,0,,,,,,,,0,,,80,0
192240,note_on,30,0,0,,,,,,,,0,,,36,0
192240,note_on,0,0,0,,,,,,,,0,,,48,0
192240,note_on,0,0,0,,,,,,,,0,,,92,73
192240,note_on,0,0,0,,,,,,,,0,,,80,73
192240,note_on,0,0,0,,,,,,,,0,,,57,53
192240,note_on,0,0,0,,,,,,,,0,,,63,53
192240,note_on,0,0,0,,,,,,,,0,,,69,60
192248,control_change,8,0,0,,,,,,,,0,64,0,,
192303,control_change,55,0,0,,,,,,,,0,64,127,,
192330,note_on,27,0,0,,,,,,,,0,,,69,0
192330,note_on,0,0,0,,,,,,,,0,,,57,0
192330,note_on,0,0,0,,,,,,,,0,,,92,0
192330,note_on,0,0,0,,,,,,,,0,,,80,0
192330,note_on,0,0,0,,,,,,,,0,,,63,0
192360,note_on,30,0,0,,,,,,,,0,,,80,73
192360,note_on,0,0,0,,,,,,,,0,,,92,73
192360,note_on,0,0,0,,,,,,,,0,,,57,53
192360,note_on,0,0,0,,,,,,,,0,,,63,53
192360,note_on,0,0,0,,,,,,,,0,,,69,60
192450,note_on,90,0,0,,,,,,,,0,,,69,0
192450,note_on,0,0,0,,,,,,,,0,,,57,0
192450,note_on,0,0,0,,,,,,,,0,,,80,0
192450,note_on,0,0,0,,,,,,,,0,,,92,0
192450,note_on,0,0,0,,,,,,,,0,,,63,0
192480,set_tempo,30,1,0,,,,,,487805,,,,,,
192480,note_on,0,0,0,,,,,,,,0,,,90,76
192480,note_on,0,0,0,,,,,,,,0,,,78,76
192480,note_on,0,0,0,,,,,,,,0,,,57,53
192480,note_on,0,0,0,,,,,,,,0,,,63,53
192480,note_on,0,0,0,,,,,,,,0,,,69,60
192488,control_change,8,0,0,,,,,,,,0,64,0,,
192543,control_change,55,0,0,,,,,,,,0,64,127,,
192570,note_on,27,0,0,,,,,,,,0,,,78,0
192570,note_on,0,0,0,,,,,,,,0,,,90,0
192600,note_on,30,0,0,,,,,,,,0,,,78,76
192600,note_on,0,0,0,,,,,,,,0,,,90,76
192690,note_on,90,0,0,,,,,,,,0,,,90,0
192690,note_on,0,0,0,,,,,,,,0,,,78,0
192720,set_tempo,30,1,0,,,,,,508475,,,,,,
192720,note_on,0,0,0,,,,,,,,0,,,69,0
192720,note_on,0,0,0,,,,,,,,0,,,57,0
192720,note_on,0,0,0,,,,,,,,0,,,63,0
192720,note_on,0,0,0,,,,,,,,0,,,88,81
192720,note_on,0,0,0,,,,,,,,0,,,76,81
192720,control_change,0,0,0,,,,,,,,0,64,0,,
192720,note_on,0,0,0,,,,,,,,0,,,37,82
192720,note_on,0,0,0,,,,,,,,0,,,49,82
192789,control_change,69,0,0,,,,,,,,0,64,127,,
192960,set_tempo,171,1,0,,,,,,500000,,,,,,
192960,note_on,0,0,0,,,,,,,,0,,,49,0
192960,note_on,0,0,0,,,,,,,,0,,,88,0
192960,note_on,0,0,0,,,,,,,,0,,,76,0
192960,note_on,0,0,0,,,,,,,,0,,,37,0
192960,note_on,0,0,0,,,,,,,,0,,,64,49
192960,note_on,0,0,0,,,,,,,,0,,,69,49
192960,note_on,0,0,0,,,,,,,,0,,,73,54
192960,note_on,0,0,0,,,,,,,,0,,,52,44
192960,note_on,0,0,0,,,,,,,,0,,,57,44
192960,note_on,0,0,0,,,,,,,,0,,,61,50
192968,control_change,8,0,0,,,,,,,,0,64,0,,
193050,note_on,82,0,0,,,,,,,,0,,,61,0
193050,note_on,0,0,0,,,,,,,,0,,,69,0
193050,note_on,0,0,0,,,,,,,,0,,,73,0
193050,note_on,0,0,0,,,,,,,,0,,,64,0
193050,note_on,0,0,0,,,,,,,,0,,,57,0
193050,note_on,0,0,0,,,,,,,,0,,,52,0
193080,note_on,30,0,0,,,,,,,,0,,,64,49
193080,note_on,0,0,0,,,,,,,,0,,,69,49
193080,note_on,0,0,0,,,,,,,,0,,,73,54
193080,note_on,0,0,0,,,,,,,,0,,,52,44
193080,note_on,0,0,0,,,,,,,,0,,,57,44
193080,note_on,0,0,0,,,,,,,,0,,,61,50
193170,note_on,90,0,0,,,,,,,,0,,,61,0
193170,note_on,0,0,0,,,,,,,,0,,,69,0
193170,note_on,0,0,0,,,,,,,,0,,,73,0
193170,note_on,0,0,0,,,,,,,,0,,,64,0
193170,note_on,0,0,0,,,,,,,,0,,,57,0
193170,note_on,0,0,0,,,,,,,,0,,,52,0
193200,set_tempo,30,1,0,,,,,,493827,,,,,,
193200,note_on,0,0,0,,,,,,,,0,,,64,51
193200,note_on,0,0,0,,,,,,,,0,,,69,51
193200,note_on,0,0,0,,,,,,,,0,,,75,56
193200,note_on,0,0,0,,,,,,,,0,,,51,47
193200,note_on,0,0,0,,,,,,,,0,,,57,47
193200,note_on,0,0,0,,,,,,,,0,,,61,54
193290,note_on,90,0,0,,,,,,,,0,,,61,0
193290,note_on,0,0,0,,,,,,,,0,,,69,0
193290,note_on,0,0,0,,,,,,,,0,,,75,0
193290,note_on,0,0,0,,,,,,,,0,,,64,0
193290,note_on,0,0,0,,,,,,,,0,,,57,0
193290,note_on,0,0,0,,,,,,,,0,,,51,0
193320,note_on,30,0,0,,,,,,,,0,,,64,51
193320,note_on,0,0,0,,,,,,,,0,,,69,51
193320,note_on,0,0,0,,,,,,,,0,,,75,56
193320,note_on,0,0,0,,,,,,,,0,,,51,47
193320,note_on,0,0,0,,,,,,,,0,,,57,47
193320,note_on,0,0,0,,,,,,,,0,,,61,54
193410,note_on,90,0,0,,,,,,,,0,,,61,0
193410,note_on,0,0,0,,,,,,,,0,,,69,0
193410,note_on,0,0,0,,,,,,,,0,,,75,0
193410,note_on,0,0,0,,,,,,,,0,,,64,0
193410,note_on,0,0,0,,,,,,,,0,,,57,0
193410,note_on,0,0,0,,,,,,,,0,,,51,0
193440,set_tempo,30,1,0,,,,,,485830,,,,,,
193440,note_on,0,0,0,,,,,,,,0,,,64,54
193440,note_on,0,0,0,,,,,,,,0,,,69,54
193440,note_on,0,0,0,,,,,,,,0,,,76,62
193440,note_on,0,0,0,,,,,,,,0,,,49,50
193440,note_on,0,0,0,,,,,,,,0,,,57,50
193440,note_on,0,0,0,,,,,,,,0,,,61,55
193530,note_on,90,0,0,,,,,,,,0,,,61,0
193530,note_on,0,0,0,,,,,,,,0,,,69,0
193530,note_on,0,0,0,,,,,,,,0,,,76,0
193530,note_on,0,0,0,,,,,,,,0,,,64,0
193530,note_on,0,0,0,,,,,,,,0,,,57,0
193530,note_on,0,0,0,,,,,,,,0,,,49,0
193560,note_on,30,0,0,,,,,,,,0,,,64,54
193560,note_on,0,0,0,,,,,,,,0,,,69,54
193560,note_on,0,0,0,,,,,,,,0,,,76,62
193560,note_on,0,0,0,,,,,,,,0,,,49,50
193560,note_on,0,0,0,,,,,,,,0,,,57,50
193560,note_on,0,0,0,,,,,,,,0,,,61,55
193650,note_on,90,0,0,,,,,,,,0,,,61,0
193650,note_on,0,0,0,,,,,,,,0,,,69,0
193650,note_on,0,0,0,,,,,,,,0,,,76,0
193650,note_on,0,0,0,,,,,,,,0,,,64,0
193650,note_on,0,0,0,,,,,,,,0,,,57,0
193650,note_on,0,0,0,,,,,,,,0,,,49,0
193680,set_tempo,30,1,0,,,,,,481928,,,,,,
193680,note_on,0,0,0,,,,,,,,0,,,64,53
193680,note_on,0,0,0,,,,,,,,0,,,69,53
193680,note_on,0,0,0,,,,,,,,0,,,75,60
193680,note_on,0,0,0,,,,,,,,0,,,51,47
193680,note_on,0,0,0,,,,,,,,0,,,57,47
193680,note_on,0,0,0,,,,,,,,0,,,61,54
193770,note_on,90,0,0,,,,,,,,0,,,61,0
193770,note_on,0,0,0,,,,,,,,0,,,69,0
193770,note_on,0,0,0,,,,,,,,0,,,75,0
193770,note_on,0,0,0,,,,,,,,0,,,64,0
193770,note_on,0,0,0,,,,,,,,0,,,57,0
193770,note_on,0,0,0,,,,,,,,0,,,51,0
193800,note_on,30,0,0,,,,,,,,0,,,64,53
193800,note_on,0,0,0,,,,,,,,0,,,69,53
193800,note_on,0,0,0,,,,,,,,0,,,75,60
193800,note_on,0,0,0,,,,,,,,0,,,51,47
193800,note_on,0,0,0,,,,,,,,0,,,57,47
193800,note_on,0,0,0,,,,,,,,0,,,61,54
193890,note_on,90,0,0,,,,,,,,0,,,61,0
193890,note_on,0,0,0,,,,,,,,0,,,69,0
193890,note_on,0,0,0,,,,,,,,0,,,75,0
193890,note_on,0,0,0,,,,,,,,0,,,64,0
193890,note_on,0,0,0,,,,,,,,0,,,57,0
193890,note_on,0,0,0,,,,,,,,0,,,51,0
193920,note_on,30,0,0,,,,,,,,0,,,64,50
193920,note_on,0,0,0,,,,,,,,0,,,69,50
193920,note_on,0,0,0,,,,,,,,0,,,73,55
193920,note_on,0,0,0,,,,,,,,0,,,52,45
193920,note_on,0,0,0,,,,,,,,0,,,57,45
193920,note_on,0,0,0,,,,,,,,0,,,61,51
194010,note_on,90,0,0,,,,,,,,0,,,61,0
194010,note_on,0,0,0,,,,,,,,0,,,69,0
194010,note_on,0,0,0,,,,,,,,0,,,73,0
194010,note_on,0,0,0,,,,,,,,0,,,64,0
194010,note_on,0,0,0,,,,,,,,0,,,57,0
194010,note_on,0,0,0,,,,,,,,0,,,52,0
194040,note_on,30,0,0,,,,,,,,0,,,64,50
194040,note_on,0,0,0,,,,,,,,0,,,69,50
194040,note_on,0,0,0,,,,,,,,0,,,73,55
194040,note_on,0,0,0,,,,,,,,0,,,52,45
194040,note_on,0,0,0,,,,,,,,0,,,57,45
194040,note_on,0,0,0,,,,,,,,0,,,61,51
194130,note_on,90,0,0,,,,,,,,0,,,61,0
194130,note_on,0,0,0,,,,,,,,0,,,69,0
194130,note_on,0,0,0,,,,,,,,0,,,73,0
194130,note_on,0,0,0,,,,,,,,0,,,64,0
194130,note_on,0,0,0,,,,,,,,0,,,57,0
194130,note_on,0,0,0,,,,,,,,0,,,52,0
194160,set_tempo,30,1,0,,,,,,533333,,,,,,
194160,note_on,0,0,0,,,,,,,,0,,,63,45
194160,note_on,0,0,0,,,,,,,,0,,,68,45
194160,note_on,0,0,0,,,,,,,,0,,,71,45
194160,note_on,0,0,0,,,,,,,,0,,,75,52
194160,note_on,0,0,0,,,,,,,,0,,,51,41
194160,note_on,0,0,0,,,,,,,,0,,,56,41
194160,note_on,0,0,0,,,,,,,,0,,,59,45
194280,set_tempo,120,1,0,,,,,,480000,,,,,,
194280,note_on,0,0,0,,,,,,,,0,,,59,0
194280,note_on,0,0,0,,,,,,,,0,,,51,0
194280,note_on,0,0,0,,,,,,,,0,,,68,0
194280,note_on,0,0,0,,,,,,,,0,,,71,0
194280,note_on,0,0,0,,,,,,,,0,,,63,0
194280,note_on,0,0,0,,,,,,,,0,,,56,0
194280,note_on,0,0,0,,,,,,,,0,,,75,0
194280,note_on,0,0,0,,,,,,,,0,,,64,54
194280,note_on,0,0,0,,,,,,,,0,,,76,54
194280,note_on,0,0,0,,,,,,,,0,,,50,46
194280,note_on,0,0,0,,,,,,,,0,,,62,46
194400,note_on,120,0,0,,,,,,,,0,,,62,0
194400,note_on,0,0,0,,,,,,,,0,,,64,0
194400,note_on,0,0,0,,,,,,,,0,,,76,0
194400,note_on,0,0,0,,,,,,,,0,,,50,0
194400,note_on,0,0,0,,,,,,,,0,,,65,54
194400,note_on,0,0,0,,,,,,,,0,,,77,54
194400,note_on,0,0,0,,,,,,,,0,,,49,47
194400,note_on,0,0,0,,,,,,,,0,,,61,47
194520,note_on,120,0,0,,,,,,,,0,,,61,0
194520,note_on,0,0,0,,,,,,,,0,,,65,0
194520,note_on,0,0,0,,,,,,,,0,,,77,0
194520,note_on,0,0,0,,,,,,,,0,,,49,0
194520,note_on,0,0,0,,,,,,,,0,,,66,55
194520,note_on,0,0,0,,,,,,,,0,,,78,55
194520,note_on,0,0,0,,,,,,,,0,,,48,49
194520,note_on,0,0,0,,,,,,,,0,,,60,49
194640,note_on,120,0,0,,,,,,,,0,,,60,0
194640,note_on,0,0,0,,,,,,,,0,,,66,0
194640,note_on,0,0,0,,,,,,,,0,,,78,0
194640,note_on,0,0,0,,,,,,,,0,,,48,0
194640,note_on,0,0,0,,,,,,,,0,,,67,57
194640,note_on,0,0,0,,,,,,,,0,,,79,57
194640,note_on,0,0,0,,,,,,,,0,,,47,50
194640,note_on,0,0,0,,,,,,,,0,,,59,50
194760,note_on,120,0,0,,,,,,,,0,,,59,0
194760,note_on,0,0,0,,,,,,,,0,,,67,0
194760,note_on,0,0,0,,,,,,,,0,,,79,0
194760,note_on,0,0,0,,,,,,,,0,,,47,0
194760,note_on,0,0,0,,,,,,,,0,,,68,59
194760,note_on,0,0,0,,,,,,,,0,,,80,59
194760,note_on,0,0,0,,,,,,,,0,,,46,51
194760,note_on,0,0,0,,,,,,,,0,,,58,51
194880,note_on,120,0,0,,,,,,,,0,,,58,0
194880,note_on,0,0,0,,,,,,,,0,,,68,0
194880,note_on,0,0,0,,,,,,,,0,,,80,0
194880,note_on,0,0,0,,,,,,,,0,,,46,0
194880,note_on,0,0,0,,,,,,,,0,,,69,60
194880,note_on,0,0,0,,,,,,,,0,,,81,60
194880,note_on,0,0,0,,,,,,,,0,,,45,54
194880,note_on,0,0,0,,,,,,,,0,,,57,54
195000,note_on,120,0,0,,,,,,,,0,,,57,0
195000,note_on,0,0,0,,,,,,,,0,,,69,0
195000,note_on,0,0,0,,,,,,,,0,,,81,0
195000,note_on,0,0,0,,,,,,,,0,,,45,0
195000,note_on,0,0,0,,,,,,,,0,,,70,62
195000,note_on,0,0,0,,,,,,,,0,,,82,62
195000,note_on,0,0,0,,,,,,,,0,,,44,54
195000,note_on,0,0,0,,,,,,,,0,,,56,54
195120,set_tempo,120,1,0,,,,,,474308,,,,,,
195120,note_on,0,0,0,,,,,,,,0,,,56,0
195120,note_on,0,0,0,,,,,,,,0,,,70,0
195120,note_on,0,0,0,,,,,,,,0,,,82,0
195120,note_on,0,0,0,,,,,,,,0,,,44,0
195120,note_on,0,0,0,,,,,,,,0,,,71,63
195120,note_on,0,0,0,,,,,,,,0,,,83,63
195120,note_on,0,0,0,,,,,,,,0,,,43,55
195120,note_on,0,0,0,,,,,,,,0,,,55,55
195240,note_on,120,0,0,,,,,,,,0,,,55,0
195240,note_on,0,0,0,,,,,,,,0,,,71,0
195240,note_on,0,0,0,,,,,,,,0,,,83,0
195240,note_on,0,0,0,,,,,,,,0,,,43,0
195240,note_on,0,0,0,,,,,,,,0,,,72,64
195240,note_on,0,0,0,,,,,,,,0,,,84,64
195240,note_on,0,0,0,,,,,,,,0,,,42,56
195240,note_on,0,0,0,,,,,,,,0,,,54,56
195360,note_on,120,0,0,,,,,,,,0,,,54,0
195360,note_on,0,0,0,,,,,,,,0,,,72,0
195360,note_on,0,0,0,,,,,,,,0,,,84,0
195360,note_on,0,0,0,,,,,,,,0,,,42,0
195360,note_on,0,0,0,,,,,,,,0,,,73,66
195360,note_on,0,0,0,,,,,,,,0,,,85,66
195360,note_on,0,0,0,,,,,,,,0,,,41,57
195360,note_on,0,0,0,,,,,,,,0,,,53,57
195440,set_tempo,80,1,0,,,,,,472441,,,,,,
195480,note_on,40,0,0,,,,,,,,0,,,53,0
195480,note_on,0,0,0,,,,,,,,0,,,73,0
195480,note_on,0,0,0,,,,,,,,0,,,85,0
195480,note_on,0,0,0,,,,,,,,0,,,41,0
195480,note_on,0,0,0,,,,,,,,0,,,74,67
195480,note_on,0,0,0,,,,,,,,0,,,86,67
195480,note_on,0,0,0,,,,,,,,0,,,40,59
195480,note_on,0,0,0,,,,,,,,0,,,52,59
195520,set_tempo,40,1,0,,,,,,470588,,,,,,
195600,set_tempo,80,1,0,,,,,,468750,,,,,,
195600,note_on,0,0,0,,,,,,,,0,,,52,0
195600,note_on,0,0,0,,,,,,,,0,,,74,0
195600,note_on,0,0,0,,,,,,,,0,,,86,0
195600,note_on,0,0,0,,,,,,,,0,,,40,0
195600,note_on,0,0,0,,,,,,,,0,,,75,62
195600,note_on,0,0,0,,,,,,,,0,,,79,62
195600,note_on,0,0,0,,,,,,,,0,,,82,62
195600,note_on,0,0,0,,,,,,,,0,,,87,62
195600,note_on,0,0,0,,,,,,,,0,,,51,56
195600,note_on,0,0,0,,,,,,,,0,,,39,56
195600,note_on,0,0,0,,,,,,,,0,,,43,56
195600,note_on,0,0,0,,,,,,,,0,,,46,56
195660,set_tempo,60,1,0,,,,,,466926,,,,,,
195675,control_change,15,0,0,,,,,,,,0,64,127,,
195720,note_on,45,0,0,,,,,,,,0,,,46,0
195720,note_on,0,0,0,,,,,,,,0,,,75,0
195720,note_on,0,0,0,,,,,,,,0,,,51,0
195720,note_on,0,0,0,,,,,,,,0,,,79,0
195720,note_on,0,0,0,,,,,,,,0,,,82,0
195720,note_on,0,0,0,,,,,,,,0,,,87,0
195720,note_on,0,0,0,,,,,,,,0,,,39,0
195720,note_on,0,0,0,,,,,,,,0,,,43,0
195720,note_on,0,0,0,,,,,,,,0,,,76,71
195720,note_on,0,0,0,,,,,,,,0,,,88,71
195720,note_on,0,0,0,,,,,,,,0,,,38,62
195720,note_on,0,0,0,,,,,,,,0,,,50,62
195740,set_tempo,20,1,0,,,,,,465116,,,,,,
195800,set_tempo,60,1,0,,,,,,463320,,,,,,
195840,note_on,40,0,0,,,,,,,,0,,,50,0
195840,note_on,0,0,0,,,,,,,,0,,,76,0
195840,note_on,0,0,0,,,,,,,,0,,,88,0
195840,note_on,0,0,0,,,,,,,,0,,,38,0
195840,note_on,0,0,0,,,,,,,,0,,,77,72
195840,note_on,0,0,0,,,,,,,,0,,,89,72
195840,note_on,0,0,0,,,,,,,,0,,,37,63
195840,note_on,0,0,0,,,,,,,,0,,,49,63
195880,set_tempo,40,1,0,,,,,,461538,,,,,,
195960,set_tempo,80,1,0,,,,,,459770,,,,,,
195960,note_on,0,0,0,,,,,,,,0,,,49,0
195960,note_on,0,0,0,,,,,,,,0,,,77,0
195960,note_on,0,0,0,,,,,,,,0,,,89,0
195960,note_on,0,0,0,,,,,,,,0,,,37,0
195960,note_on,0,0,0,,,,,,,,0,,,78,72
195960,note_on,0,0,0,,,,,,,,0,,,90,72
195960,note_on,0,0,0,,,,,,,,0,,,36,64
195960,note_on,0,0,0,,,,,,,,0,,,48,64
196020,set_tempo,60,1,0,,,,,,458015,,,,,,
196080,note_on,60,0,0,,,,,,,,0,,,48,0
196080,note_on,0,0,0,,,,,,,,0,,,78,0
196080,note_on,0,0,0,,,,,,,,0,,,90,0
196080,note_on,0,0,0,,,,,,,,0,,,36,0
196080,note_on,0,0,0,,,,,,,,0,,,79,75
196080,note_on,0,0,0,,,,,,,,0,,,91,75
196080,note_on,0,0,0,,,,,,,,0,,,35,65
196080,note_on,0,0,0,,,,,,,,0,,,47,65
196100,set_tempo,20,1,0,,,,,,456274,,,,,,
196160,set_tempo,60,1,0,,,,,,454545,,,,,,
196200,note_on,40,0,0,,,,,,,,0,,,47,0
196200,note_on,0,0,0,,,,,,,,0,,,79,0
196200,note_on,0,0,0,,,,,,,,0,,,91,0
196200,note_on,0,0,0,,,,,,,,0,,,35,0
196200,note_on,0,0,0,,,,,,,,0,,,80,76
196200,note_on,0,0,0,,,,,,,,0,,,92,76
196200,note_on,0,0,0,,,,,,,,0,,,34,66
196200,note_on,0,0,0,,,,,,,,0,,,46,66
196240,set_tempo,40,1,0,,,,,,452830,,,,,,
196260,set_tempo,20,1,0,,,,,,461538,,,,,,
196280,set_tempo,20,1,0,,,,,,461538,,,,,,
196300,set_tempo,20,1,0,,,,,,463320,,,,,,
196320,set_tempo,20,1,0,,,,,,465116,,,,,,
196320,note_on,0,0,0,,,,,,,,0,,,46,0
196320,note_on,0,0,0,,,,,,,,0,,,80,0
196320,note_on,0,0,0,,,,,,,,0,,,92,0
196320,note_on,0,0,0,,,,,,,,0,,,34,0
196320,note_on,0,0,0,,,,,,,,0,,,81,77
196320,note_on,0,0,0,,,,,,,,0,,,93,77
196320,note_on,0,0,0,,,,,,,,0,,,33,69
196320,note_on,0,0,0,,,,,,,,0,,,45,69
196340,set_tempo,20,1,0,,,,,,466926,,,,,,
196360,set_tempo,20,1,0,,,,,,468750,,,,,,
196380,set_tempo,20,1,0,,,,,,470588,,,,,,
196400,set_tempo,20,1,0,,,,,,472441,,,,,,
196420,set_tempo,20,1,0,,,,,,474308,,,,,,
196440,set_tempo,20,1,0,,,,,,476190,,,,,,
196440,note_on,0,0,0,,,,,,,,0,,,45,0
196440,note_on,0,0,0,,,,,,,,0,,,81,0
196440,note_on,0,0,0,,,,,,,,0,,,93,0
196440,note_on,0,0,0,,,,,,,,0,,,33,0
196440,note_on,0,0,0,,,,,,,,0,,,82,79
196440,note_on,0,0,0,,,,,,,,0,,,94,79
196440,note_on,0,0,0,,,,,,,,0,,,32,70
196440,note_on,0,0,0,,,,,,,,0,,,44,70
196460,set_tempo,20,1,0,,,,,,480000,,,,,,
196480,set_tempo,20,1,0,,,,,,481928,,,,,,
196500,set_tempo,20,1,0,,,,,,483871,,,,,,
196520,set_tempo,20,1,0,,,,,,485830,,,,,,
196540,set_tempo,20,1,0,,,,,,487805,,,,,,
196560,set_tempo,20,1,0,,,,,,489796,,,,,,
196560,note_on,0,0,0,,,,,,,,0,,,44,0
196560,note_on,0,0,0,,,,,,,,0,,,82,0
196560,note_on,0,0,0,,,,,,,,0,,,94,0
196560,note_on,0,0,0,,,,,,,,0,,,32,0
196560,note_on,0,0,0,,,,,,,,0,,,83,81
196560,note_on,0,0,0,,,,,,,,0,,,95,81
196560,note_on,0,0,0,,,,,,,,0,,,31,67
196560,note_on,0,0,0,,,,,,,,0,,,43,67
196580,set_tempo,20,1,0,,,,,,491803,,,,,,
196600,set_tempo,20,1,0,,,,,,493827,,,,,,
196620,set_tempo,20,1,0,,,,,,497925,,,,,,
196640,set_tempo,20,1,0,,,,,,500000,,,,,,
196660,set_tempo,20,1,0,,,,,,502092,,,,,,
196680,set_tempo,20,1,0,,,,,,504202,,,,,,
196680,note_on,0,0,0,,,,,,,,0,,,43,0
196680,note_on,0,0,0,,,,,,,,0,,,83,0
196680,note_on,0,0,0,,,,,,,,0,,,95,0
196680,note_on,0,0,0,,,,,,,,0,,,31,0
196680,note_on,0,0,0,,,,,,,,0,,,85,83
196680,note_on,0,0,0,,,,,,,,0,,,97,83
196680,note_on,0,0,0,,,,,,,,0,,,30,67
196680,note_on,0,0,0,,,,,,,,0,,,42,67
196700,set_tempo,20,1,0,,,,,,506329,,,,,,
196720,set_tempo,20,1,0,,,,,,508475,,,,,,
196740,set_tempo,20,1,0,,,,,,510638,,,,,,
196760,set_tempo,20,1,0,,,,,,512821,,,,,,
196800,set_tempo,40,1,0,,,,,,528634,,,,,,
196800,note_on,0,0,0,,,,,,,,0,,,42,0
196800,note_on,0,0,0,,,,,,,,0,,,85,0
196800,note_on,0,0,0,,,,,,,,0,,,97,0
196800,note_on,0,0,0,,,,,,,,0,,,30,0
196800,note_on,0,0,0,,,,,,,,0,,,86,86
196800,note_on,0,0,0,,,,,,,,0,,,98,86
196800,note_on,0,0,0,,,,,,,,0,,,28,69
196800,note_on,0,0,0,,,,,,,,0,,,40,69
196920,set_tempo,120,1,0,,,,,,579710,,,,,,
196920,note_on,0,0,0,,,,,,,,0,,,40,0
196920,note_on,0,0,0,,,,,,,,0,,,86,0
196920,note_on,0,0,0,,,,,,,,0,,,98,0
196920,note_on,0,0,0,,,,,,,,0,,,28,0
196920,note_on,0,0,0,,,,,,,,0,,,87,90
196920,note_on,0,0,0,,,,,,,,0,,,99,90
196920,note_on,0,0,0,,,,,,,,0,,,27,71
196920,note_on,0,0,0,,,,,,,,0,,,39,71
197030,note_on,110,0,0,,,,,,,,0,,,39,0
197030,note_on,0,0,0,,,,,,,,0,,,87,0
197030,note_on,0,0,0,,,,,,,,0,,,99,0
197030,note_on,0,0,0,,,,,,,,0,,,27,0
197040,set_tempo,10,1,0,,,,,,510117,,,,,,
197040,marker,0,1,0,,,,,,,,,,,,
197040,note_on,0,0,0,,,,,,,,0,,,59,89
197040,note_on,0,0,0,,,,,,,,0,,,63,89
197040,note_on,0,0,0,,,,,,,,0,,,68,99
197040,control_change,0,0,0,,,,,,,,0,64,0,,
197040,note_on,0,0,0,,,,,,,,0,,,32,61
197040,note_on,0,0,0,,,,,,,,0,,,44,81
197060,set_tempo,20,1,0,,,,,,519751,,,,,,
197086,control_change,26,0,0,,,,,,,,0,64,127,,
197277,control_change,191,0,0,,,,,,,,0,64,0,,
197280,set_tempo,3,1,0,,,,,,502092,,,,,,
197280,note_on,0,0,0,,,,,,,,0,,,44,0
197280,note_on,0,0,0,,,,,,,,0,,,68,0
197280,note_on,0,0,0,,,,,,,,0,,,59,0
197280,note_on,0,0,0,,,,,,,,0,,,63,0
197280,note_on,0,0,0,,,,,,,,0,,,32,0
197280,note_on,0,0,0,,,,,,,,0,,,39,67
197280,note_on,0,0,0,,,,,,,,0,,,51,79
197337,control_change,57,0,0,,,,,,,,0,64,127,,
197400,note_on,63,0,0,,,,,,,,0,,,51,0
197400,note_on,0,0,0,,,,,,,,0,,,39,0
197400,note_on,0,0,0,,,,,,,,0,,,44,67
197400,note_on,0,0,0,,,,,,,,0,,,56,79
197520,set_tempo,120,1,0,,,,,,480577,,,,,,
197520,note_on,0,0,0,,,,,,,,0,,,56,0
197520,note_on,0,0,0,,,,,,,,0,,,44,0
197520,note_on,0,0,0,,,,,,,,0,,,83,89
197520,note_on,0,0,0,,,,,,,,0,,,75,74
197520,note_on,0,0,0,,,,,,,,0,,,71,74
197520,note_on,0,0,0,,,,,,,,0,,,63,75
197520,note_on,0,0,0,,,,,,,,0,,,51,63
197640,control_change,120,0,0,,,,,,,,0,64,0,,
197700,note_on,60,0,0,,,,,,,,0,,,51,0
197700,note_on,0,0,0,,,,,,,,0,,,71,0
197700,note_on,0,0,0,,,,,,,,0,,,83,0
197700,note_on,0,0,0,,,,,,,,0,,,75,0
197700,note_on,0,0,0,,,,,,,,0,,,63,0
197760,set_tempo,60,1,0,,,,,,474308,,,,,,
197760,note_on,0,0,0,,,,,,,,0,,,82,80
197760,note_on,0,0,0,,,,,,,,0,,,75,68
197760,note_on,0,0,0,,,,,,,,0,,,70,68
197760,note_on,0,0,0,,,,,,,,0,,,32,74
197760,note_on,0,0,0,,,,,,,,0,,,44,89
197813,control_change,53,0,0,,,,,,,,0,64,127,,
197880,set_tempo,67,1,0,,,,,,468750,,,,,,
197880,note_on,0,0,0,,,,,,,,0,,,70,0
197880,note_on,0,0,0,,,,,,,,0,,,82,0
197880,note_on,0,0,0,,,,,,,,0,,,75,0
197880,note_on,0,0,0,,,,,,,,0,,,71,68
197880,note_on,0,0,0,,,,,,,,0,,,83,80
198000,set_tempo,120,1,0,,,,,,476796,,,,,,
198000,note_on,0,0,0,,,,,,,,0,,,83,0
198000,note_on,0,0,0,,,,,,,,0,,,44,0
198000,note_on,0,0,0,,,,,,,,0,,,32,0
198000,note_on,0,0,0,,,,,,,,0,,,71,0
198000,note_on,0,0,0,,,,,,,,0,,,85,90
198000,note_on,0,0,0,,,,,,,,0,,,73,75
198000,note_on,0,0,0,,,,,,,,0,,,39,68
198000,note_on,0,0,0,,,,,,,,0,,,51,80
198004,control_change,4,0,0,,,,,,,,0,64,0,,
198053,control_change,49,0,0,,,,,,,,0,64,127,,
198120,note_on,67,0,0,,,,,,,,0,,,51,0
198120,note_on,0,0,0,,,,,,,,0,,,39,0
198120,note_on,0,0,0,,,,,,,,0,,,44,68
198120,note_on,0,0,0,,,,,,,,0,,,56,80
198180,note_on,60,0,0,,,,,,,,0,,,73,0
198180,note_on,0,0,0,,,,,,,,0,,,85,0
198240,set_tempo,60,1,0,,,,,,463929,,,,,,
198240,note_on,0,0,0,,,,,,,,0,,,44,0
198240,note_on,0,0,0,,,,,,,,0,,,56,0
198240,note_on,0,0,0,,,,,,,,0,,,75,68
198240,note_on,0,0,0,,,,,,,,0,,,83,80
198240,note_on,0,0,0,,,,,,,,0,,,71,68
198240,note_on,0,0,0,,,,,,,,0,,,63,77
198240,note_on,0,0,0,,,,,,,,0,,,51,64
198272,control_change,32,0,0,,,,,,,,0,64,0,,
198360,note_on,88,0,0,,,,,,,,0,,,71,0
198360,note_on,0,0,0,,,,,,,,0,,,75,0
198360,note_on,0,0,0,,,,,,,,0,,,83,0
198360,note_on,0,0,0,,,,,,,,0,,,82,80
198360,note_on,0,0,0,,,,,,,,0,,,70,68
198420,note_on,60,0,0,,,,,,,,0,,,63,0
198420,note_on,0,0,0,,,,,,,,0,,,51,0
198480,set_tempo,60,1,0,,,,,,456274,,,,,,
198480,note_on,0,0,0,,,,,,,,0,,,82,0
198480,note_on,0,0,0,,,,,,,,0,,,70,0
198480,note_on,0,0,0,,,,,,,,0,,,83,81
198480,note_on,0,0,0,,,,,,,,0,,,75,68
198480,note_on,0,0,0,,,,,,,,0,,,71,68
198480,note_on,0,0,0,,,,,,,,0,,,32,74
198480,note_on,0,0,0,,,,,,,,0,,,44,89
198526,control_change,46,0,0,,,,,,,,0,64,127,,
198600,set_tempo,74,1,0,,,,,,479348,,,,,,
198600,note_on,0,0,0,,,,,,,,0,,,71,0
198600,note_on,0,0,0,,,,,,,,0,,,83,0
198600,note_on,0,0,0,,,,,,,,0,,,75,0
198600,note_on,0,0,0,,,,,,,,0,,,85,84
198600,note_on,0,0,0,,,,,,,,0,,,73,71
198720,set_tempo,120,1,0,,,,,,469851,,,,,,
198720,note_on,0,0,0,,,,,,,,0,,,73,0
198720,note_on,0,0,0,,,,,,,,0,,,44,0
198720,note_on,0,0,0,,,,,,,,0,,,32,0
198720,note_on,0,0,0,,,,,,,,0,,,85,0
198720,note_on,0,0,0,,,,,,,,0,,,75,77
198720,note_on,0,0,0,,,,,,,,0,,,87,91
198720,note_on,0,0,0,,,,,,,,0,,,39,67
198720,note_on,0,0,0,,,,,,,,0,,,51,79
198738,control_change,18,0,0,,,,,,,,0,64,0,,
198798,control_change,60,0,0,,,,,,,,0,64,127,,
198840,note_on,42,0,0,,,,,,,,0,,,51,0
198840,note_on,0,0,0,,,,,,,,0,,,39,0
198840,note_on,0,0,0,,,,,,,,0,,,44,67
198840,note_on,0,0,0,,,,,,,,0,,,56,79
198900,note_on,60,0,0,,,,,,,,0,,,87,0
198900,note_on,0,0,0,,,,,,,,0,,,75,0
198960,set_tempo,60,1,0,,,,,,463929,,,,,,
198960,note_on,0,0,0,,,,,,,,0,,,44,0
198960,note_on,0,0,0,,,,,,,,0,,,56,0
198960,note_on,0,0,0,,,,,,,,0,,,85,83
198960,note_on,0,0,0,,,,,,,,0,,,73,70
198960,note_on,0,0,0,,,,,,,,0,,,63,73
198960,note_on,0,0,0,,,,,,,,0,,,51,61
198980,control_change,20,0,0,,,,,,,,0,64,0,,
199080,note_on,100,0,0,,,,,,,,0,,,73,0
199080,note_on,0,0,0,,,,,,,,0,,,85,0
199080,note_on,0,0,0,,,,,,,,0,,,71,69
199080,note_on,0,0,0,,,,,,,,0,,,83,82
199140,note_on,60,0,0,,,,,,,,0,,,63,0
199140,note_on,0,0,0,,,,,,,,0,,,51,0
199200,set_tempo,60,1,0,,,,,,459770,,,,,,
199200,note_on,0,0,0,,,,,,,,0,,,71,0
199200,note_on,0,0,0,,,,,,,,0,,,83,0
199200,note_on,0,0,0,,,,,,,,0,,,82,81
199200,note_on,0,0,0,,,,,,,,0,,,75,68
199200,note_on,0,0,0,,,,,,,,0,,,70,68
199200,note_on,0,0,0,,,,,,,,0,,,32,74
199200,note_on,0,0,0,,,,,,,,0,,,44,89
199260,control_change,60,0,0,,,,,,,,0,64,127,,
199320,set_tempo,60,1,0,,,,,,484418,,,,,,
199320,note_on,0,0,0,,,,,,,,0,,,70,0
199320,note_on,0,0,0,,,,,,,,0,,,82,0
199320,note_on,0,0,0,,,,,,,,0,,,75,0
199320,note_on,0,0,0,,,,,,,,0,,,83,81
199320,note_on,0,0,0,,,,,,,,0,,,71,68
199440,set_tempo,120,1,0,,,,,,474909,,,,,,
199440,note_on,0,0,0,,,,,,,,0,,,71,0
199440,note_on,0,0,0,,,,,,,,0,,,44,0
199440,note_on,0,0,0,,,,,,,,0,,,32,0
199440,note_on,0,0,0,,,,,,,,0,,,83,0
199440,note_on,0,0,0,,,,,,,,0,,,73,74
199440,note_on,0,0,0,,,,,,,,0,,,85,89
199440,note_on,0,0,0,,,,,,,,0,,,39,68
199440,note_on,0,0,0,,,,,,,,0,,,51,80
199451,control_change,11,0,0,,,,,,,,0,64,0,,
199511,control_change,60,0,0,,,,,,,,0,64,127,,
199560,note_on,49,0,0,,,,,,,,0,,,51,0
199560,note_on,0,0,0,,,,,,,,0,,,39,0
199560,note_on,0,0,0,,,,,,,,0,,,44,68
199560,note_on,0,0,0,,,,,,,,0,,,56,80
199620,note_on,60,0,0,,,,,,,,0,,,85,0
199620,note_on,0,0,0,,,,,,,,0,,,73,0
199680,set_tempo,60,1,0,,,,,,463929,,,,,,
199680,note_on,0,0,0,,,,,,,,0,,,44,0
199680,note_on,0,0,0,,,,,,,,0,,,56,0
199680,note_on,0,0,0,,,,,,,,0,,,75,68
199680,note_on,0,0,0,,,,,,,,0,,,83,81
199680,note_on,0,0,0,,,,,,,,0,,,71,68
199680,note_on,0,0,0,,,,,,,,0,,,63,78
199680,note_on,0,0,0,,,,,,,,0,,,51,66
199698,control_change,18,0,0,,,,,,,,0,64,0,,
199800,set_tempo,102,1,0,,,,,,486342,,,,,,
199800,note_on,0,0,0,,,,,,,,0,,,71,0
199800,note_on,0,0,0,,,,,,,,0,,,75,0
199800,note_on,0,0,0,,,,,,,,0,,,83,0
199800,note_on,0,0,0,,,,,,,,0,,,70,68
199800,note_on,0,0,0,,,,,,,,0,,,82,81
199860,note_on,60,0,0,,,,,,,,0,,,63,0
199860,note_on,0,0,0,,,,,,,,0,,,51,0
199920,set_tempo,60,1,0,,,,,,464324,,,,,,
199920,note_on,0,0,0,,,,,,,,0,,,70,0
199920,note_on,0,0,0,,,,,,,,0,,,82,0
199920,note_on,0,0,0,,,,,,,,0,,,71,62
199920,note_on,0,0,0,,,,,,,,0,,,75,62
199920,note_on,0,0,0,,,,,,,,0,,,83,89
199920,note_on,0,0,0,,,,,,,,0,,,32,62
199920,note_on,0,0,0,,,,,,,,0,,,44,89
199970,control_change,50,0,0,,,,,,,,0,64,127,,
200040,set_tempo,70,1,0,,,,,,471772,,,,,,
200040,note_on,0,0,0,,,,,,,,0,,,83,0
200040,note_on,0,0,0,,,,,,,,0,,,71,0
200040,note_on,0,0,0,,,,,,,,0,,,75,0
200040,note_on,0,0,0,,,,,,,,0,,,82,83
200040,note_on,0,0,0,,,,,,,,0,,,70,59
200160,set_tempo,120,1,0,,,,,,481928,,,,,,
200160,note_on,0,0,0,,,,,,,,0,,,70,0
200160,note_on,0,0,0,,,,,,,,0,,,44,0
200160,note_on,0,0,0,,,,,,,,0,,,32,0
200160,note_on,0,0,0,,,,,,,,0,,,82,0
200160,note_on,0,0,0,,,,,,,,0,,,80,83
200160,note_on,0,0,0,,,,,,,,0,,,68,59
200160,note_on,0,0,0,,,,,,,,0,,,39,56
200160,note_on,0,0,0,,,,,,,,0,,,51,79
200171,control_change,11,0,0,,,,,,,,0,64,0,,
200217,control_change,46,0,0,,,,,,,,0,64,127,,
200280,note_on,63,0,0,,,,,,,,0,,,51,0
200280,note_on,0,0,0,,,,,,,,0,,,39,0
200280,note_on,0,0,0,,,,,,,,0,,,44,56
200280,note_on,0,0,0,,,,,,,,0,,,56,79
200400,set_tempo,120,1,0,,,,,,474909,,,,,,
200400,note_on,0,0,0,,,,,,,,0,,,56,0
200400,note_on,0,0,0,,,,,,,,0,,,80,0
200400,note_on,0,0,0,,,,,,,,0,,,68,0
200400,note_on,0,0,0,,,,,,,,0,,,44,0
200400,note_on,0,0,0,,,,,,,,0,,,95,89
200400,note_on,0,0,0,,,,,,,,0,,,87,62
200400,note_on,0,0,0,,,,,,,,0,,,83,62
200400,note_on,0,0,0,,,,,,,,0,,,63,77
200400,note_on,0,0,0,,,,,,,,0,,,51,55
200492,control_change,92,0,0,,,,,,,,0,64,0,,
200580,note_on,88,0,0,,,,,,,,0,,,51,0
200580,note_on,0,0,0,,,,,,,,0,,,83,0
200580,note_on,0,0,0,,,,,,,,0,,,95,0
200580,note_on,0,0,0,,,,,,,,0,,,87,0
200580,note_on,0,0,0,,,,,,,,0,,,63,0
200640,set_tempo,60,1,0,,,,,,458015,,,,,,
200640,note_on,0,0,0,,,,,,,,0,,,94,81
200640,note_on,0,0,0,,,,,,,,0,,,87,57
200640,note_on,0,0,0,,,,,,,,0,,,82,57
200640,note_on,0,0,0,,,,,,,,0,,,32,62
200640,note_on,0,0,0,,,,,,,,0,,,44,89
200683,control_change,43,0,0,,,,,,,,0,64,127,,
200760,set_tempo,77,1,0,,,,,,481271,,,,,,
200760,note_on,0,0,0,,,,,,,,0,,,82,0
200760,note_on,0,0,0,,,,,,,,0,,,94,0
200760,note_on,0,0,0,,,,,,,,0,,,87,0
200760,note_on,0,0,0,,,,,,,,0,,,83,57
200760,note_on,0,0,0,,,,,,,,0,,,95,81
200880,set_tempo,120,1,0,,,,,,468019,,,,,,
200880,note_on,0,0,0,,,,,,,,0,,,95,0
200880,note_on,0,0,0,,,,,,,,0,,,44,0
200880,note_on,0,0,0,,,,,,,,0,,,32,0
200880,note_on,0,0,0,,,,,,,,0,,,83,0
200880,note_on,0,0,0,,,,,,,,0,,,97,91
200880,note_on,0,0,0,,,,,,,,0,,,85,64
200880,note_on,0,0,0,,,,,,,,0,,,39,57
200880,note_on,0,0,0,,,,,,,,0,,,51,80
200894,control_change,14,0,0,,,,,,,,0,64,0,,
200937,control_change,43,0,0,,,,,,,,0,64,127,,
201000,note_on,63,0,0,,,,,,,,0,,,51,0
201000,note_on,0,0,0,,,,,,,,0,,,39,0
201000,note_on,0,0,0,,,,,,,,0,,,44,57
201000,note_on,0,0,0,,,,,,,,0,,,56,80
201060,note_on,60,0,0,,,,,,,,0,,,85,0
201060,note_on,0,0,0,,,,,,,,0,,,97,0
201120,set_tempo,60,1,0,,,,,,463929,,,,,,
201120,note_on,0,0,0,,,,,,,,0,,,44,0
201120,note_on,0,0,0,,,,,,,,0,,,56,0
201120,note_on,0,0,0,,,,,,,,0,,,87,56
201120,note_on,0,0,0,,,,,,,,0,,,95,79
201120,note_on,0,0,0,,,,,,,,0,,,83,56
201120,note_on,0,0,0,,,,,,,,0,,,63,77
201120,note_on,0,0,0,,,,,,,,0,,,51,55
201134,control_change,14,0,0,,,,,,,,0,64,0,,
201240,note_on,106,0,0,,,,,,,,0,,,83,0
201240,note_on,0,0,0,,,,,,,,0,,,87,0
201240,note_on,0,0,0,,,,,,,,0,,,95,0
201240,note_on,0,0,0,,,,,,,,0,,,94,79
201240,note_on,0,0,0,,,,,,,,0,,,82,56
201300,note_on,60,0,0,,,,,,,,0,,,63,0
201300,note_on,0,0,0,,,,,,,,0,,,51,0
201360,set_tempo,60,1,0,,,,,,468750,,,,,,
201360,note_on,0,0,0,,,,,,,,0,,,94,0
201360,note_on,0,0,0,,,,,,,,0,,,82,0
201360,note_on,0,0,0,,,,,,,,0,,,95,81
201360,note_on,0,0,0,,,,,,,,0,,,87,68
201360,note_on,0,0,0,,,,,,,,0,,,83,68
201360,note_on,0,0,0,,,,,,,,0,,,32,74
201360,note_on,0,0,0,,,,,,,,0,,,44,89
201399,control_change,39,0,0,,,,,,,,0,64,127,,
201460,set_tempo,61,1,0,,,,,,458015,,,,,,
201480,note_on,20,0,0,,,,,,,,0,,,83,0
201480,note_on,0,0,0,,,,,,,,0,,,95,0
201480,note_on,0,0,0,,,,,,,,0,,,87,0
201480,note_on,0,0,0,,,,,,,,0,,,97,84
201480,note_on,0,0,0,,,,,,,,0,,,85,71
201600,set_tempo,120,1,0,,,,,,468019,,,,,,
201600,note_on,0,0,0,,,,,,,,0,,,85,0
201600,note_on,0,0,0,,,,,,,,0,,,44,0
201600,note_on,0,0,0,,,,,,,,0,,,32,0
201600,note_on,0,0,0,,,,,,,,0,,,97,0
201600,note_on,0,0,0,,,,,,,,0,,,87,77
201600,note_on,0,0,0,,,,,,,,0,,,99,91
201600,note_on,0,0,0,,,,,,,,0,,,39,67
201600,note_on,0,0,0,,,,,,,,0,,,51,79
201611,control_change,11,0,0,,,,,,,,0,64,0,,
201646,control_change,35,0,0,,,,,,,,0,64,127,,
201720,note_on,74,0,0,,,,,,,,0,,,51,0
201720,note_on,0,0,0,,,,,,,,0,,,39,0
201720,note_on,0,0,0,,,,,,,,0,,,44,67
201720,note_on,0,0,0,,,,,,,,0,,,56,79
201780,note_on,60,0,0,,,,,,,,0,,,99,0
201780,note_on,0,0,0,,,,,,,,0,,,87,0
201840,set_tempo,60,1,0,,,,,,463929,,,,,,
201840,note_on,0,0,0,,,,,,,,0,,,44,0
201840,note_on,0,0,0,,,,,,,,0,,,56,0
201840,note_on,0,0,0,,,,,,,,0,,,97,80
201840,note_on,0,0,0,,,,,,,,0,,,85,68
201840,note_on,0,0,0,,,,,,,,0,,,63,78
201840,note_on,0,0,0,,,,,,,,0,,,51,66
201859,control_change,19,0,0,,,,,,,,0,64,0,,
201960,note_on,101,0,0,,,,,,,,0,,,85,0
201960,note_on,0,0,0,,,,,,,,0,,,97,0
201960,note_on,0,0,0,,,,,,,,0,,,83,68
201960,note_on,0,0,0,,,,,,,,0,,,95,80
202020,note_on,60,0,0,,,,,,,,0,,,63,0
202020,note_on,0,0,0,,,,,,,,0,,,51,0
202080,set_tempo,60,1,0,,,,,,468019,,,,,,
202080,note_on,0,0,0,,,,,,,,0,,,83,0
202080,note_on,0,0,0,,,,,,,,0,,,95,0
202080,note_on,0,0,0,,,,,,,,0,,,94,80
202080,note_on,0,0,0,,,,,,,,0,,,87,68
202080,note_on,0,0,0,,,,,,,,0,,,82,68
202080,note_on,0,0,0,,,,,,,,0,,,32,74
202080,note_on,0,0,0,,,,,,,,0,,,44,89
202140,control_change,60,0,0,,,,,,,,0,64,127,,
202200,set_tempo,60,1,0,,,,,,456274,,,,,,
202200,note_on,0,0,0,,,,,,,,0,,,82,0
202200,note_on,0,0,0,,,,,,,,0,,,94,0
202200,note_on,0,0,0,,,,,,,,0,,,87,0
202200,note_on,0,0,0,,,,,,,,0,,,95,80
202200,note_on,0,0,0,,,,,,,,0,,,83,68
202320,set_tempo,120,1,0,,,,,,468019,,,,,,
202320,note_on,0,0,0,,,,,,,,0,,,83,0
202320,note_on,0,0,0,,,,,,,,0,,,44,0
202320,note_on,0,0,0,,,,,,,,0,,,32,0
202320,note_on,0,0,0,,,,,,,,0,,,95,0
202320,note_on,0,0,0,,,,,,,,0,,,85,77
202320,note_on,0,0,0,,,,,,,,0,,,97,91
202320,note_on,0,0,0,,,,,,,,0,,,39,68
202320,note_on,0,0,0,,,,,,,,0,,,51,81
202341,control_change,21,0,0,,,,,,,,0,64,0,,
202394,control_change,53,0,0,,,,,,,,0,64,127,,
202440,note_on,46,0,0,,,,,,,,0,,,51,0
202440,note_on,0,0,0,,,,,,,,0,,,39,0
202440,note_on,0,0,0,,,,,,,,0,,,44,68
202440,note_on,0,0,0,,,,,,,,0,,,56,81
202500,note_on,60,0,0,,,,,,,,0,,,97,0
202500,note_on,0,0,0,,,,,,,,0,,,85,0
202560,set_tempo,60,1,0,,,,,,458891,,,,,,
202560,note_on,0,0,0,,,,,,,,0,,,44,0
202560,note_on,0,0,0,,,,,,,,0,,,56,0
202560,note_on,0,0,0,,,,,,,,0,,,87,69
202560,note_on,0,0,0,,,,,,,,0,,,95,82
202560,note_on,0,0,0,,,,,,,,0,,,83,69
202560,note_on,0,0,0,,,,,,,,0,,,63,78
202560,note_on,0,0,0,,,,,,,,0,,,51,66
202578,control_change,18,0,0,,,,,,,,0,64,0,,
202680,set_tempo,102,1,0,,,,,,475549,,,,,,
202680,note_on,0,0,0,,,,,,,,0,,,83,0
202680,note_on,0,0,0,,,,,,,,0,,,87,0
202680,note_on,0,0,0,,,,,,,,0,,,95,0
202680,note_on,0,0,0,,,,,,,,0,,,82,70
202680,note_on,0,0,0,,,,,,,,0,,,94,83
202740,note_on,60,0,0,,,,,,,,0,,,63,0
202740,note_on,0,0,0,,,,,,,,0,,,51,0
202800,set_tempo,60,1,0,,,,,,461538,,,,,,
202800,note_on,0,0,0,,,,,,,,0,,,82,0
202800,note_on,0,0,0,,,,,,,,0,,,94,0
202800,note_on,0,0,0,,,,,,,,0,,,83,77
202800,note_on,0,0,0,,,,,,,,0,,,87,91
202800,note_on,0,0,0,,,,,,,,0,,,95,91
202800,note_on,0,0,0,,,,,,,,0,,,32,74
202800,note_on,0,0,0,,,,,,,,0,,,44,89
202892,control_change,92,0,0,,,,,,,,0,64,127,,
202920,set_tempo,28,1,0,,,,,,474308,,,,,,
202920,note_on,0,0,0,,,,,,,,0,,,95,0
202920,note_on,0,0,0,,,,,,,,0,,,83,0
202920,note_on,0,0,0,,,,,,,,0,,,87,0
202920,note_on,0,0,0,,,,,,,,0,,,94,83
202920,note_on,0,0,0,,,,,,,,0,,,82,70
203040,set_tempo,120,1,0,,,,,,506329,,,,,,
203040,note_on,0,0,0,,,,,,,,0,,,82,0
203040,note_on,0,0,0,,,,,,,,0,,,44,0
203040,note_on,0,0,0,,,,,,,,0,,,32,0
203040,note_on,0,0,0,,,,,,,,0,,,94,0
203040,note_on,0,0,0,,,,,,,,0,,,92,83
203040,note_on,0,0,0,,,,,,,,0,,,80,70
203040,note_on,0,0,0,,,,,,,,0,,,39,68
203040,note_on,0,0,0,,,,,,,,0,,,51,81
203054,control_change,14,0,0,,,,,,,,0,64,0,,
203132,control_change,78,0,0,,,,,,,,0,64,127,,
203160,note_on,28,0,0,,,,,,,,0,,,51,0
203160,note_on,0,0,0,,,,,,,,0,,,39,0
203160,note_on,0,0,0,,,,,,,,0,,,44,68
203160,note_on,0,0,0,,,,,,,,0,,,56,81
203280,set_tempo,120,1,0,,,,,,480577,,,,,,
203280,note_on,0,0,0,,,,,,,,0,,,56,0
203280,note_on,0,0,0,,,,,,,,0,,,92,0
203280,note_on,0,0,0,,,,,,,,0,,,80,0
203280,note_on,0,0,0,,,,,,,,0,,,44,0
203280,note_on,0,0,0,,,,,,,,0,,,63,68
203280,note_on,0,0,0,,,,,,,,0,,,71,68
203280,note_on,0,0,0,,,,,,,,0,,,75,81
203280,note_on,0,0,0,,,,,,,,0,,,47,74
203280,note_on,0,0,0,,,,,,,,0,,,59,88
203280,note_on,0,0,0,,,,,,,,0,,,51,74
203513,control_change,233,0,0,,,,,,,,0,64,0,,
203520,set_tempo,7,1,0,,,,,,463929,,,,,,
203520,note_on,0,0,0,,,,,,,,0,,,51,0
203520,note_on,0,0,0,,,,,,,,0,,,71,0
203520,note_on,0,0,0,,,,,,,,0,,,75,0
203520,note_on,0,0,0,,,,,,,,0,,,63,0
203520,note_on,0,0,0,,,,,,,,0,,,59,0
203520,note_on,0,0,0,,,,,,,,0,,,47,0
203520,note_on,0,0,0,,,,,,,,0,,,63,60
203520,note_on,0,0,0,,,,,,,,0,,,70,60
203520,note_on,0,0,0,,,,,,,,0,,,75,71
203520,note_on,0,0,0,,,,,,,,0,,,46,69
203520,note_on,0,0,0,,,,,,,,0,,,51,69
203520,note_on,0,0,0,,,,,,,,0,,,58,82
203640,set_tempo,120,1,0,,,,,,492368,,,,,,
203640,note_on,0,0,0,,,,,,,,0,,,58,0
203640,note_on,0,0,0,,,,,,,,0,,,70,0
203640,note_on,0,0,0,,,,,,,,0,,,75,0
203640,note_on,0,0,0,,,,,,,,0,,,63,0
203640,note_on,0,0,0,,,,,,,,0,,,51,0
203640,note_on,0,0,0,,,,,,,,0,,,46,0
203640,note_on,0,0,0,,,,,,,,0,,,63,60
203640,note_on,0,0,0,,,,,,,,0,,,71,60
203640,note_on,0,0,0,,,,,,,,0,,,75,71
203640,note_on,0,0,0,,,,,,,,0,,,47,69
203640,note_on,0,0,0,,,,,,,,0,,,51,69
203640,note_on,0,0,0,,,,,,,,0,,,59,82
203760,set_tempo,120,1,0,,,,,,480577,,,,,,
203760,note_on,0,0,0,,,,,,,,0,,,59,0
203760,note_on,0,0,0,,,,,,,,0,,,71,0
203760,note_on,0,0,0,,,,,,,,0,,,75,0
203760,note_on,0,0,0,,,,,,,,0,,,63,0
203760,note_on,0,0,0,,,,,,,,0,,,51,0
203760,note_on,0,0,0,,,,,,,,0,,,47,0
203760,note_on,0,0,0,,,,,,,,0,,,63,66
203760,note_on,0,0,0,,,,,,,,0,,,73,78
203760,note_on,0,0,0,,,,,,,,0,,,75,78
203760,note_on,0,0,0,,,,,,,,0,,,49,74
203760,note_on,0,0,0,,,,,,,,0,,,51,74
203760,note_on,0,0,0,,,,,,,,0,,,61,88
203831,control_change,71,0,0,,,,,,,,0,64,127,,
204000,set_tempo,169,1,0,,,,,,463929,,,,,,
204000,note_on,0,0,0,,,,,,,,0,,,61,0
204000,note_on,0,0,0,,,,,,,,0,,,73,0
204000,note_on,0,0,0,,,,,,,,0,,,75,0
204000,note_on,0,0,0,,,,,,,,0,,,63,0
204000,note_on,0,0,0,,,,,,,,0,,,51,0
204000,note_on,0,0,0,,,,,,,,0,,,49,0
204000,note_on,0,0,0,,,,,,,,0,,,63,61
204000,note_on,0,0,0,,,,,,,,0,,,71,61
204000,note_on,0,0,0,,,,,,,,0,,,75,73
204000,note_on,0,0,0,,,,,,,,0,,,51,68
204000,note_on,0,0,0,,,,,,,,0,,,47,68
204000,note_on,0,0,0,,,,,,,,0,,,59,81
204008,control_change,8,0,0,,,,,,,,0,64,0,,
204085,control_change,77,0,0,,,,,,,,0,64,127,,
204120,set_tempo,35,1,0,,,,,,496401,,,,,,
204120,note_on,0,0,0,,,,,,,,0,,,59,0
204120,note_on,0,0,0,,,,,,,,0,,,71,0
204120,note_on,0,0,0,,,,,,,,0,,,75,0
204120,note_on,0,0,0,,,,,,,,0,,,63,0
204120,note_on,0,0,0,,,,,,,,0,,,47,0
204120,note_on,0,0,0,,,,,,,,0,,,51,0
204120,note_on,0,0,0,,,,,,,,0,,,63,61
204120,note_on,0,0,0,,,,,,,,0,,,70,61
204120,note_on,0,0,0,,,,,,,,0,,,75,73
204120,note_on,0,0,0,,,,,,,,0,,,46,68
204120,note_on,0,0,0,,,,,,,,0,,,58,81
204120,note_on,0,0,0,,,,,,,,0,,,51,68
204240,set_tempo,120,1,0,,,,,,482470,,,,,,
204240,note_on,0,0,0,,,,,,,,0,,,51,0
204240,note_on,0,0,0,,,,,,,,0,,,70,0
204240,note_on,0,0,0,,,,,,,,0,,,75,0
204240,note_on,0,0,0,,,,,,,,0,,,63,0
204240,note_on,0,0,0,,,,,,,,0,,,58,0
204240,note_on,0,0,0,,,,,,,,0,,,46,0
204240,note_on,0,0,0,,,,,,,,0,,,63,67
204240,note_on,0,0,0,,,,,,,,0,,,71,79
204240,note_on,0,0,0,,,,,,,,0,,,75,79
204240,control_change,0,0,0,,,,,,,,0,64,0,,
204240,note_on,0,0,0,,,,,,,,0,,,47,74
204240,note_on,0,0,0,,,,,,,,0,,,51,74
204240,note_on,0,0,0,,,,,,,,0,,,59,88
204325,control_change,85,0,0,,,,,,,,0,64,127,,
204360,set_tempo,35,1,0,,,,,,502639,,,,,,
204360,note_on,0,0,0,,,,,,,,0,,,59,0
204360,note_on,0,0,0,,,,,,,,0,,,71,0
204360,note_on,0,0,0,,,,,,,,0,,,75,0
204360,note_on,0,0,0,,,,,,,,0,,,63,0
204360,note_on,0,0,0,,,,,,,,0,,,51,0
204360,note_on,0,0,0,,,,,,,,0,,,47,0
204360,note_on,0,0,0,,,,,,,,0,,,63,61
204360,note_on,0,0,0,,,,,,,,0,,,70,61
204360,note_on,0,0,0,,,,,,,,0,,,75,73
204360,note_on,0,0,0,,,,,,,,0,,,46,70
204360,note_on,0,0,0,,,,,,,,0,,,51,70
204360,note_on,0,0,0,,,,,,,,0,,,58,83
204480,set_tempo,120,1,0,,,,,,547945,,,,,,
204480,note_on,0,0,0,,,,,,,,0,,,58,0
204480,note_on,0,0,0,,,,,,,,0,,,70,0
204480,note_on,0,0,0,,,,,,,,0,,,75,0
204480,note_on,0,0,0,,,,,,,,0,,,63,0
204480,note_on,0,0,0,,,,,,,,0,,,51,0
204480,note_on,0,0,0,,,,,,,,0,,,46,0
204480,note_on,0,0,0,,,,,,,,0,,,63,61
204480,note_on,0,0,0,,,,,,,,0,,,68,61
204480,note_on,0,0,0,,,,,,,,0,,,75,73
204480,note_on,0,0,0,,,,,,,,0,,,44,70
204480,note_on,0,0,0,,,,,,,,0,,,51,70
204480,note_on,0,0,0,,,,,,,,0,,,56,83
204496,control_change,16,0,0,,,,,,,,0,64,0,,
204607,control_change,111,0,0,,,,,,,,0,64,127,,
204696,note_on,89,0,0,,,,,,,,0,,,56,0
204696,note_on,0,0,0,,,,,,,,0,,,68,0
204696,note_on,0,0,0,,,,,,,,0,,,75,0
204696,note_on,0,0,0,,,,,,,,0,,,63,0
204696,note_on,0,0,0,,,,,,,,0,,,51,0
204696,note_on,0,0,0,,,,,,,,0,,,44,0
204720,set_tempo,24,1,0,,,,,,511073,,,,,,
204720,note_on,0,0,0,,,,,,,,0,,,87,108
204720,note_on,0,0,0,,,,,,,,0,,,80,92
204720,note_on,0,0,0,,,,,,,,0,,,75,92
204720,note_on,0,0,0,,,,,,,,0,,,32,88
204720,note_on,0,0,0,,,,,,,,0,,,39,88
204720,note_on,0,0,0,,,,,,,,0,,,44,104
204900,note_on,180,0,0,,,,,,,,0,,,44,0
204900,note_on,0,0,0,,,,,,,,0,,,80,0
204900,note_on,0,0,0,,,,,,,,0,,,75,0
204900,note_on,0,0,0,,,,,,,,0,,,87,0
204900,note_on,0,0,0,,,,,,,,0,,,39,0
204900,note_on,0,0,0,,,,,,,,0,,,32,0
204946,control_change,46,0,0,,,,,,,,0,64,0,,
204960,set_tempo,14,1,0,,,,,,500542,,,,,,
204960,note_on,0,0,0,,,,,,,,0,,,63,60
204960,note_on,0,0,0,,,,,,,,0,,,70,60
204960,note_on,0,0,0,,,,,,,,0,,,75,71
204960,note_on,0,0,0,,,,,,,,0,,,46,69
204960,note_on,0,0,0,,,,,,,,0,,,51,69
204960,note_on,0,0,0,,,,,,,,0,,,58,82
205080,set_tempo,120,1,0,,,,,,543331,,,,,,
205080,note_on,0,0,0,,,,,,,,0,,,58,0
205080,note_on,0,0,0,,,,,,,,0,,,70,0
205080,note_on,0,0,0,,,,,,,,0,,,75,0
205080,note_on,0,0,0,,,,,,,,0,,,63,0
205080,note_on,0,0,0,,,,,,,,0,,,51,0
205080,note_on,0,0,0,,,,,,,,0,,,46,0
205080,note_on,0,0,0,,,,,,,,0,,,63,60
205080,note_on,0,0,0,,,,,,,,0,,,71,71
205080,note_on,0,0,0,,,,,,,,0,,,75,71
205080,note_on,0,0,0,,,,,,,,0,,,47,69
205080,note_on,0,0,0,,,,,,,,0,,,51,69
205080,note_on,0,0,0,,,,,,,,0,,,59,82
205180,set_tempo,100,1,0,,,,,,487884,,,,,,
205200,set_tempo,20,1,0,,,,,,500542,,,,,,
205200,note_on,0,0,0,,,,,,,,0,,,59,0
205200,note_on,0,0,0,,,,,,,,0,,,71,0
205200,note_on,0,0,0,,,,,,,,0,,,75,0
205200,note_on,0,0,0,,,,,,,,0,,,63,0
205200,note_on,0,0,0,,,,,,,,0,,,51,0
205200,note_on,0,0,0,,,,,,,,0,,,47,0
205200,note_on,0,0,0,,,,,,,,0,,,63,66
205200,note_on,0,0,0,,,,,,,,0,,,73,66
205200,note_on,0,0,0,,,,,,,,0,,,75,78
205200,note_on,0,0,0,,,,,,,,0,,,49,74
205200,note_on,0,0,0,,,,,,,,0,,,51,74
205200,note_on,0,0,0,,,,,,,,0,,,61,88
205264,control_change,64,0,0,,,,,,,,0,64,127,,
205440,set_tempo,176,1,0,,,,,,488440,,,,,,
205440,note_on,0,0,0,,,,,,,,0,,,61,0
205440,note_on,0,0,0,,,,,,,,0,,,73,0
205440,note_on,0,0,0,,,,,,,,0,,,75,0
205440,note_on,0,0,0,,,,,,,,0,,,63,0
205440,note_on,0,0,0,,,,,,,,0,,,51,0
205440,note_on,0,0,0,,,,,,,,0,,,49,0
205440,note_on,0,0,0,,,,,,,,0,,,63,61
205440,note_on,0,0,0,,,,,,,,0,,,71,61
205440,note_on,0,0,0,,,,,,,,0,,,75,73
205440,note_on,0,0,0,,,,,,,,0,,,51,68
205440,note_on,0,0,0,,,,,,,,0,,,47,68
205440,note_on,0,0,0,,,,,,,,0,,,59,81
205449,control_change,9,0,0,,,,,,,,0,64,0,,
205532,control_change,83,0,0,,,,,,,,0,64,127,,
205560,set_tempo,28,1,0,,,,,,529054,,,,,,
205560,note_on,0,0,0,,,,,,,,0,,,59,0
205560,note_on,0,0,0,,,,,,,,0,,,71,0
205560,note_on,0,0,0,,,,,,,,0,,,75,0
205560,note_on,0,0,0,,,,,,,,0,,,63,0
205560,note_on,0,0,0,,,,,,,,0,,,47,0
205560,note_on,0,0,0,,,,,,,,0,,,51,0
205560,note_on,0,0,0,,,,,,,,0,,,63,61
205560,note_on,0,0,0,,,,,,,,0,,,70,61
205560,note_on,0,0,0,,,,,,,,0,,,75,73
205560,note_on,0,0,0,,,,,,,,0,,,46,68
205560,note_on,0,0,0,,,,,,,,0,,,58,81
205560,note_on,0,0,0,,,,,,,,0,,,51,68
205680,set_tempo,120,1,0,,,,,,513303,,,,,,
205680,note_on,0,0,0,,,,,,,,0,,,51,0
205680,note_on,0,0,0,,,,,,,,0,,,70,0
205680,note_on,0,0,0,,,,,,,,0,,,75,0
205680,note_on,0,0,0,,,,,,,,0,,,63,0
205680,note_on,0,0,0,,,,,,,,0,,,58,0
205680,note_on,0,0,0,,,,,,,,0,,,46,0
205680,note_on,0,0,0,,,,,,,,0,,,63,67
205680,note_on,0,0,0,,,,,,,,0,,,71,67
205680,note_on,0,0,0,,,,,,,,0,,,75,79
205680,control_change,0,0,0,,,,,,,,0,64,0,,
205680,note_on,0,0,0,,,,,,,,0,,,47,74
205680,note_on,0,0,0,,,,,,,,0,,,51,74
205680,note_on,0,0,0,,,,,,,,0,,,59,88
205758,control_change,78,0,0,,,,,,,,0,64,127,,
205800,note_on,42,0,0,,,,,,,,0,,,59,0
205800,note_on,0,0,0,,,,,,,,0,,,71,0
205800,note_on,0,0,0,,,,,,,,0,,,75,0
205800,note_on,0,0,0,,,,,,,,0,,,63,0
205800,note_on,0,0,0,,,,,,,,0,,,51,0
205800,note_on,0,0,0,,,,,,,,0,,,47,0
205800,note_on,0,0,0,,,,,,,,0,,,63,61
205800,note_on,0,0,0,,,,,,,,0,,,70,61
205800,note_on,0,0,0,,,,,,,,0,,,75,73
205800,note_on,0,0,0,,,,,,,,0,,,46,70
205800,note_on,0,0,0,,,,,,,,0,,,51,70
205800,note_on,0,0,0,,,,,,,,0,,,58,83
205920,set_tempo,120,1,0,,,,,,526316,,,,,,
205920,note_on,0,0,0,,,,,,,,0,,,58,0
205920,note_on,0,0,0,,,,,,,,0,,,70,0
205920,note_on,0,0,0,,,,,,,,0,,,75,0
205920,note_on,0,0,0,,,,,,,,0,,,63,0
205920,note_on,0,0,0,,,,,,,,0,,,51,0
205920,note_on,0,0,0,,,,,,,,0,,,46,0
205920,note_on,0,0,0,,,,,,,,0,,,63,61
205920,note_on,0,0,0,,,,,,,,0,,,68,61
205920,note_on,0,0,0,,,,,,,,0,,,75,73
205920,note_on,0,0,0,,,,,,,,0,,,44,70
205920,note_on,0,0,0,,,,,,,,0,,,51,70
205920,note_on,0,0,0,,,,,,,,0,,,56,83
205937,control_change,17,0,0,,,,,,,,0,64,0,,
205998,control_change,61,0,0,,,,,,,,0,64,127,,
206136,note_on,138,0,0,,,,,,,,0,,,56,0
206136,note_on,0,0,0,,,,,,,,0,,,68,0
206136,note_on,0,0,0,,,,,,,,0,,,75,0
206136,note_on,0,0,0,,,,,,,,0,,,63,0
206136,note_on,0,0,0,,,,,,,,0,,,51,0
206136,note_on,0,0,0,,,,,,,,0,,,44,0
206160,set_tempo,24,1,0,,,,,,472255,,,,,,
206160,note_on,0,0,0,,,,,,,,0,,,87,108
206160,note_on,0,0,0,,,,,,,,0,,,80,92
206160,note_on,0,0,0,,,,,,,,0,,,75,92
206160,note_on,0,0,0,,,,,,,,0,,,32,88
206160,note_on,0,0,0,,,,,,,,0,,,39,88
206160,note_on,0,0,0,,,,,,,,0,,,44,104
206181,set_tempo,21,1,0,,,,,,471846,,,,,,
206340,note_on,159,0,0,,,,,,,,0,,,44,0
206340,note_on,0,0,0,,,,,,,,0,,,80,0
206340,note_on,0,0,0,,,,,,,,0,,,75,0
206340,note_on,0,0,0,,,,,,,,0,,,87,0
206340,note_on,0,0,0,,,,,,,,0,,,39,0
206340,note_on,0,0,0,,,,,,,,0,,,32,0
206400,set_tempo,60,1,0,,,,,,446694,,,,,,
206400,note_on,0,0,0,,,,,,,,0,,,63,67
206400,note_on,0,0,0,,,,,,,,0,,,71,67
206400,note_on,0,0,0,,,,,,,,0,,,75,79
206400,note_on,0,0,0,,,,,,,,0,,,47,74
206400,note_on,0,0,0,,,,,,,,0,,,51,74
206400,note_on,0,0,0,,,,,,,,0,,,59,88
206421,control_change,21,0,0,,,,,,,,0,64,0,,
206499,control_change,78,0,0,,,,,,,,0,64,127,,
206520,set_tempo,21,1,0,,,,,,475473,,,,,,
206520,note_on,0,0,0,,,,,,,,0,,,59,0
206520,note_on,0,0,0,,,,,,,,0,,,71,0
206520,note_on,0,0,0,,,,,,,,0,,,75,0
206520,note_on,0,0,0,,,,,,,,0,,,63,0
206520,note_on,0,0,0,,,,,,,,0,,,51,0
206520,note_on,0,0,0,,,,,,,,0,,,47,0
206520,note_on,0,0,0,,,,,,,,0,,,63,61
206520,note_on,0,0,0,,,,,,,,0,,,70,61
206520,note_on,0,0,0,,,,,,,,0,,,75,73
206520,note_on,0,0,0,,,,,,,,0,,,46,70
206520,note_on,0,0,0,,,,,,,,0,,,51,70
206520,note_on,0,0,0,,,,,,,,0,,,58,83
206640,set_tempo,120,1,0,,,,,,493827,,,,,,
206640,note_on,0,0,0,,,,,,,,0,,,58,0
206640,note_on,0,0,0,,,,,,,,0,,,70,0
206640,note_on,0,0,0,,,,,,,,0,,,75,0
206640,note_on,0,0,0,,,,,,,,0,,,63,0
206640,note_on,0,0,0,,,,,,,,0,,,51,0
206640,note_on,0,0,0,,,,,,,,0,,,46,0
206640,note_on,0,0,0,,,,,,,,0,,,63,61
206640,note_on,0,0,0,,,,,,,,0,,,68,61
206640,note_on,0,0,0,,,,,,,,0,,,75,73
206640,note_on,0,0,0,,,,,,,,0,,,44,70
206640,note_on,0,0,0,,,,,,,,0,,,51,70
206640,note_on,0,0,0,,,,,,,,0,,,56,70
206656,control_change,16,0,0,,,,,,,,0,64,0,,
206725,control_change,69,0,0,,,,,,,,0,64,127,,
206856,note_on,131,0,0,,,,,,,,0,,,56,0
206856,note_on,0,0,0,,,,,,,,0,,,68,0
206856,note_on,0,0,0,,,,,,,,0,,,75,0
206856,note_on,0,0,0,,,,,,,,0,,,63,0
206856,note_on,0,0,0,,,,,,,,0,,,51,0
206856,note_on,0,0,0,,,,,,,,0,,,44,0
206880,set_tempo,24,1,0,,,,,,469814,,,,,,
206880,note_on,0,0,0,,,,,,,,0,,,87,95
206880,note_on,0,0,0,,,,,,,,0,,,80,95
206880,note_on,0,0,0,,,,,,,,0,,,92,113
206880,note_on,0,0,0,,,,,,,,0,,,32,88
206880,note_on,0,0,0,,,,,,,,0,,,39,88
206880,note_on,0,0,0,,,,,,,,0,,,44,104
207060,note_on,180,0,0,,,,,,,,0,,,44,0
207060,note_on,0,0,0,,,,,,,,0,,,80,0
207060,note_on,0,0,0,,,,,,,,0,,,92,0
207060,note_on,0,0,0,,,,,,,,0,,,87,0
207060,note_on,0,0,0,,,,,,,,0,,,39,0
207060,note_on,0,0,0,,,,,,,,0,,,32,0
207120,set_tempo,60,1,0,,,,,,446927,,,,,,
207120,note_on,0,0,0,,,,,,,,0,,,63,67
207120,note_on,0,0,0,,,,,,,,0,,,71,79
207120,note_on,0,0,0,,,,,,,,0,,,75,79
207120,control_change,0,0,0,,,,,,,,0,64,0,,
207120,note_on,0,0,0,,,,,,,,0,,,47,74
207120,note_on,0,0,0,,,,,,,,0,,,51,74
207120,note_on,0,0,0,,,,,,,,0,,,59,88
207177,control_change,57,0,0,,,,,,,,0,64,127,,
207240,set_tempo,63,1,0,,,,,,469998,,,,,,
207240,note_on,0,0,0,,,,,,,,0,,,59,0
207240,note_on,0,0,0,,,,,,,,0,,,71,0
207240,note_on,0,0,0,,,,,,,,0,,,75,0
207240,note_on,0,0,0,,,,,,,,0,,,63,0
207240,note_on,0,0,0,,,,,,,,0,,,51,0
207240,note_on,0,0,0,,,,,,,,0,,,47,0
207240,note_on,0,0,0,,,,,,,,0,,,63,61
207240,note_on,0,0,0,,,,,,,,0,,,70,61
207240,note_on,0,0,0,,,,,,,,0,,,75,73
207240,note_on,0,0,0,,,,,,,,0,,,46,70
207240,note_on,0,0,0,,,,,,,,0,,,51,70
207240,note_on,0,0,0,,,,,,,,0,,,58,83
207360,set_tempo,120,1,0,,,,,,483871,,,,,,
207360,note_on,0,0,0,,,,,,,,0,,,58,0
207360,note_on,0,0,0,,,,,,,,0,,,70,0
207360,note_on,0,0,0,,,,,,,,0,,,75,0
207360,note_on,0,0,0,,,,,,,,0,,,63,0
207360,note_on,0,0,0,,,,,,,,0,,,51,0
207360,note_on,0,0,0,,,,,,,,0,,,46,0
207360,note_on,0,0,0,,,,,,,,0,,,63,61
207360,note_on,0,0,0,,,,,,,,0,,,68,61
207360,note_on,0,0,0,,,,,,,,0,,,75,73
207360,note_on,0,0,0,,,,,,,,0,,,44,70
207360,note_on,0,0,0,,,,,,,,0,,,51,70
207360,note_on,0,0,0,,,,,,,,0,,,56,83
207370,control_change,10,0,0,,,,,,,,0,64,0,,
207438,control_change,68,0,0,,,,,,,,0,64,127,,
207576,note_on,138,0,0,,,,,,,,0,,,56,0
207576,note_on,0,0,0,,,,,,,,0,,,68,0
207576,note_on,0,0,0,,,,,,,,0,,,75,0
207576,note_on,0,0,0,,,,,,,,0,,,63,0
207576,note_on,0,0,0,,,,,,,,0,,,51,0
207576,note_on,0,0,0,,,,,,,,0,,,44,0
207600,set_tempo,24,1,0,,,,,,464432,,,,,,
207600,note_on,0,0,0,,,,,,,,0,,,87,97
207600,note_on,0,0,0,,,,,,,,0,,,83,97
207600,note_on,0,0,0,,,,,,,,0,,,95,115
207600,note_on,0,0,0,,,,,,,,0,,,32,90
207600,note_on,0,0,0,,,,,,,,0,,,39,90
207600,note_on,0,0,0,,,,,,,,0,,,44,106
207780,note_on,180,0,0,,,,,,,,0,,,44,0
207780,note_on,0,0,0,,,,,,,,0,,,83,0
207780,note_on,0,0,0,,,,,,,,0,,,95,0
207780,note_on,0,0,0,,,,,,,,0,,,87,0
207780,note_on,0,0,0,,,,,,,,0,,,39,0
207780,note_on,0,0,0,,,,,,,,0,,,32,0
207840,set_tempo,60,1,0,,,,,,441924,,,,,,
207840,note_on,0,0,0,,,,,,,,0,,,63,67
207840,note_on,0,0,0,,,,,,,,0,,,71,67
207840,note_on,0,0,0,,,,,,,,0,,,75,79
207840,note_on,0,0,0,,,,,,,,0,,,47,74
207840,note_on,0,0,0,,,,,,,,0,,,51,74
207840,note_on,0,0,0,,,,,,,,0,,,59,88
207857,control_change,17,0,0,,,,,,,,0,64,0,,
207960,set_tempo,103,1,0,,,,,,481502,,,,,,
207960,note_on,0,0,0,,,,,,,,0,,,59,0
207960,note_on,0,0,0,,,,,,,,0,,,71,0
207960,note_on,0,0,0,,,,,,,,0,,,75,0
207960,note_on,0,0,0,,,,,,,,0,,,63,0
207960,note_on,0,0,0,,,,,,,,0,,,51,0
207960,note_on,0,0,0,,,,,,,,0,,,47,0
207960,note_on,0,0,0,,,,,,,,0,,,63,61
207960,note_on,0,0,0,,,,,,,,0,,,70,61
207960,note_on,0,0,0,,,,,,,,0,,,75,73
207960,note_on,0,0,0,,,,,,,,0,,,46,70
207960,note_on,0,0,0,,,,,,,,0,,,51,70
207960,note_on,0,0,0,,,,,,,,0,,,58,83
207967,control_change,7,0,0,,,,,,,,0,64,127,,
208080,set_tempo,113,1,0,,,,,,497636,,,,,,
208080,note_on,0,0,0,,,,,,,,0,,,58,0
208080,note_on,0,0,0,,,,,,,,0,,,70,0
208080,note_on,0,0,0,,,,,,,,0,,,75,0
208080,note_on,0,0,0,,,,,,,,0,,,63,0
208080,note_on,0,0,0,,,,,,,,0,,,51,0
208080,note_on,0,0,0,,,,,,,,0,,,46,0
208080,note_on,0,0,0,,,,,,,,0,,,63,61
208080,note_on,0,0,0,,,,,,,,0,,,68,61
208080,note_on,0,0,0,,,,,,,,0,,,75,73
208080,note_on,0,0,0,,,,,,,,0,,,44,70
208080,note_on,0,0,0,,,,,,,,0,,,51,70
208080,note_on,0,0,0,,,,,,,,0,,,56,83
208097,control_change,17,0,0,,,,,,,,0,64,0,,
208172,control_change,75,0,0,,,,,,,,0,64,127,,
208296,note_on,124,0,0,,,,,,,,0,,,56,0
208296,note_on,0,0,0,,,,,,,,0,,,68,0
208296,note_on,0,0,0,,,,,,,,0,,,75,0
208296,note_on,0,0,0,,,,,,,,0,,,63,0
208296,note_on,0,0,0,,,,,,,,0,,,51,0
208296,note_on,0,0,0,,,,,,,,0,,,44,0
208300,set_tempo,4,1,0,,,,,,604290,,,,,,
208320,note_on,20,0,0,,,,,,,,0,,,99,117
208320,note_on,0,0,0,,,,,,,,0,,,92,99
208320,note_on,0,0,0,,,,,,,,0,,,87,99
208320,note_on,0,0,0,,,,,,,,0,,,32,90
208320,note_on,0,0,0,,,,,,,,0,,,39,90
208320,note_on,0,0,0,,,,,,,,0,,,44,106
208321,set_tempo,1,1,0,,,,,,614943,,,,,,
208560,set_tempo,239,1,0,,,,,,409892,,,,,,
208561,set_tempo,1,1,0,,,,,,408136,,,,,,
208800,set_tempo,239,1,0,,,,,,333333,,,,,,
208800,note_on,0,0,0,,,,,,,,0,,,44,0
208800,note_on,0,0,0,,,,,,,,0,,,92,0
208800,note_on,0,0,0,,,,,,,,0,,,87,0
208800,note_on,0,0,0,,,,,,,,0,,,99,0
208800,note_on,0,0,0,,,,,,,,0,,,39,0
208800,note_on,0,0,0,,,,,,,,0,,,32,0
208800,note_on,0,0,0,,,,,,,,0,,,87,84
208800,note_on,0,0,0,,,,,,,,0,,,92,84
208800,note_on,0,0,0,,,,,,,,0,,,99,100
208800,note_on,0,0,0,,,,,,,,0,,,44,61
208800,note_on,0,0,0,,,,,,,,0,,,51,61
208800,note_on,0,0,0,,,,,,,,0,,,56,73
208920,set_tempo,120,1,0,,,,,,334262,,,,,,
209016,note_on,96,0,0,,,,,,,,0,,,56,0
209016,note_on,0,0,0,,,,,,,,0,,,92,0
209016,note_on,0,0,0,,,,,,,,0,,,99,0
209016,note_on,0,0,0,,,,,,,,0,,,87,0
209016,note_on,0,0,0,,,,,,,,0,,,51,0
209016,note_on,0,0,0,,,,,,,,0,,,44,0
209040,set_tempo,24,1,0,,,,,,335196,,,,,,
209040,note_on,0,0,0,,,,,,,,0,,,87,86
209040,note_on,0,0,0,,,,,,,,0,,,92,86
209040,note_on,0,0,0,,,,,,,,0,,,99,102
209040,note_on,0,0,0,,,,,,,,0,,,68,77
209040,note_on,0,0,0,,,,,,,,0,,,63,64
209040,note_on,0,0,0,,,,,,,,0,,,56,64
209160,set_tempo,120,1,0,,,,,,336134,,,,,,
209256,note_on,96,0,0,,,,,,,,0,,,56,0
209256,note_on,0,0,0,,,,,,,,0,,,92,0
209256,note_on,0,0,0,,,,,,,,0,,,99,0
209256,note_on,0,0,0,,,,,,,,0,,,87,0
209256,note_on,0,0,0,,,,,,,,0,,,63,0
209256,note_on,0,0,0,,,,,,,,0,,,68,0
209280,set_tempo,24,1,0,,,,,,337079,,,,,,
209280,note_on,0,0,0,,,,,,,,0,,,87,84
209280,note_on,0,0,0,,,,,,,,0,,,92,84
209280,note_on,0,0,0,,,,,,,,0,,,99,100
209280,note_on,0,0,0,,,,,,,,0,,,80,80
209280,note_on,0,0,0,,,,,,,,0,,,75,80
209280,note_on,0,0,0,,,,,,,,0,,,68,68
209300,set_tempo,20,1,0,,,,,,336134,,,,,,
209420,set_tempo,120,1,0,,,,,,335196,,,,,,
209496,note_on,76,0,0,,,,,,,,0,,,68,0
209496,note_on,0,0,0,,,,,,,,0,,,92,0
209496,note_on,0,0,0,,,,,,,,0,,,99,0
209496,note_on,0,0,0,,,,,,,,0,,,87,0
209496,note_on,0,0,0,,,,,,,,0,,,75,0
209496,note_on,0,0,0,,,,,,,,0,,,80,0
209520,note_on,24,0,0,,,,,,,,0,,,87,86
209520,note_on,0,0,0,,,,,,,,0,,,92,86
209520,note_on,0,0,0,,,,,,,,0,,,99,102
209520,note_on,0,0,0,,,,,,,,0,,,68,83
209520,note_on,0,0,0,,,,,,,,0,,,63,70
209520,note_on,0,0,0,,,,,,,,0,,,56,70
209540,set_tempo,20,1,0,,,,,,334262,,,,,,
209640,set_tempo,100,1,0,,,,,,333333,,,,,,
209736,note_on,96,0,0,,,,,,,,0,,,56,0
209736,note_on,0,0,0,,,,,,,,0,,,92,0
209736,note_on,0,0,0,,,,,,,,0,,,99,0
209736,note_on,0,0,0,,,,,,,,0,,,87,0
209736,note_on,0,0,0,,,,,,,,0,,,63,0
209736,note_on,0,0,0,,,,,,,,0,,,68,0
209760,set_tempo,24,1,0,,,,,,332410,,,,,,
209760,note_on,0,0,0,,,,,,,,0,,,87,93
209760,note_on,0,0,0,,,,,,,,0,,,92,93
209760,note_on,0,0,0,,,,,,,,0,,,99,110
209760,note_on,0,0,0,,,,,,,,0,,,44,69
209760,note_on,0,0,0,,,,,,,,0,,,51,69
209760,note_on,0,0,0,,,,,,,,0,,,56,82
209880,set_tempo,120,1,0,,,,,,331492,,,,,,
209976,note_on,96,0,0,,,,,,,,0,,,56,0
209976,note_on,0,0,0,,,,,,,,0,,,92,0
209976,note_on,0,0,0,,,,,,,,0,,,99,0
209976,note_on,0,0,0,,,,,,,,0,,,87,0
209976,note_on,0,0,0,,,,,,,,0,,,51,0
209976,note_on,0,0,0,,,,,,,,0,,,44,0
209980,set_tempo,4,1,0,,,,,,330579,,,,,,
209981,set_tempo,1,1,0,,,,,,370393,,,,,,
210000,set_tempo,19,1,0,,,,,,398857,,,,,,
210000,note_on,0,0,0,,,,,,,,0,,,87,97
210000,note_on,0,0,0,,,,,,,,0,,,92,97
210000,note_on,0,0,0,,,,,,,,0,,,99,115
210000,note_on,0,0,0,,,,,,,,0,,,32,73
210000,note_on,0,0,0,,,,,,,,0,,,39,73
210000,note_on,0,0,0,,,,,,,,0,,,44,86
210001,set_tempo,1,1,0,,,,,,472441,,,,,,
210240,note_on,239,0,0,,,,,,,,0,,,44,0
210240,note_on,0,0,0,,,,,,,,0,,,92,0
210240,note_on,0,0,0,,,,,,,,0,,,99,0
210240,note_on,0,0,0,,,,,,,,0,,,87,0
210240,note_on,0,0,0,,,,,,,,0,,,39,0
210240,note_on,0,0,0,,,,,,,,0,,,32,0
210720,set_tempo,480,1,0,,,,,,485830,,,,,,
210720,note_on,0,0,0,,,,,,,,0,,,59,86
210720,note_on,0,0,0,,,,,,,,0,,,63,86
210720,note_on,0,0,0,,,,,,,,0,,,68,102
210720,note_on,0,0,0,,,,,,,,0,,,44,80
210720,note_on,0,0,0,,,,,,,,0,,,51,80
210720,note_on,0,0,0,,,,,,,,0,,,56,94
210960,note_on,240,0,0,,,,,,,,0,,,56,0
210960,note_on,0,0,0,,,,,,,,0,,,63,0
210960,note_on,0,0,0,,,,,,,,0,,,68,0
210960,note_on,0,0,0,,,,,,,,0,,,59,0
210960,note_on,0,0,0,,,,,,,,0,,,51,0
210960,note_on,0,0,0,,,,,,,,0,,,44,0
211440,note_on,480,0,0,,,,,,,,0,,,92,104
211440,note_on,0,0,0,,,,,,,,0,,,87,99
211440,note_on,0,0,0,,,,,,,,0,,,83,83
211440,note_on,0,0,0,,,,,,,,0,,,80,83
211440,note_on,0,0,0,,,,,,,,0,,,59,83
211440,note_on,0,0,0,,,,,,,,0,,,63,83
211440,note_on,0,0,0,,,,,,,,0,,,68,83
211440,note_on,0,0,0,,,,,,,,0,,,71,99
212880,marker,1440,1,0,,,,,,,,,,,,
212880,note_on,0,0,0,,,,,,,,0,,,71,0
212880,note_on,0,0,0,,,,,,,,0,,,92,0
212880,note_on,0,0,0,,,,,,,,0,,,59,0
212880,note_on,0,0,0,,,,,,,,0,,,87,0
212880,note_on,0,0,0,,,,,,,,0,,,83,0
212880,note_on,0,0,0,,,,,,,,0,,,80,0
212880,note_on,0,0,0,,,,,,,,0,,,63,0
212880,note_on,0,0,0,,,,,,,,0,,,68,0
213147,control_change,267,0,0,,,,,,,,0,64,0,,
214560,set_tempo,1413,1,0,,,,,,600000,,,,,,
217440,set_tempo,2880,1,0,,,,,,600000,,,,,,
217440,end_of_track,0,1,0,,,,,,,,,,,,
