tick,type,time,meta,track,numerator,denominator,clocks_per_click,notated_32nd_notes_per_beat,key,tempo,program,channel,control,value,note,velocity
0,track_name,0,1,0,,,,,,,,,,,,
0,copyright,0,1,0,,,,,,,,,,,,
0,text,0,1,0,,,,,,,,,,,,
0,text,0,1,0,,,,,,,,,,,,
0,text,0,1,0,,,,,,,,,,,,
0,text,0,1,0,,,,,,,,,,,,
0,text,0,1,0,,,,,,,,,,,,
0,text,0,1,0,,,,,,,,,,,,
0,text,0,1,0,,,,,,,,,,,,
0,text,0,1,0,,,,,,,,,,,,
0,text,0,1,0,,,,,,,,,,,,
0,time_signature,0,1,0,2,4,24,8,,,,,,,,
0,key_signature,0,1,0,,,,,E,,,,,,,
0,set_tempo,0,1,0,,,,,,817327,,,,,,
0,program_change,0,0,0,,,,,,,0,0,,,,
0,control_change,0,0,0,,,,,,,,0,7,100,,
0,control_change,0,0,0,,,,,,,,0,10,64,,
0,control_change,0,0,0,,,,,,,,0,91,127,,
0,text,0,1,0,,,,,,,,,,,,
0,program_change,0,0,0,,,,,,,0,0,,,,
0,control_change,0,0,0,,,,,,,,0,7,100,,
0,control_change,0,0,0,,,,,,,,0,10,64,,
0,control_change,0,0,0,,,,,,,,0,64,0,,
719,control_change,719,0,0,,,,,,,,0,91,127,,
719,control_change,0,0,0,,,,,,,,0,64,0,,
719,control_change,0,0,0,,,,,,,,0,91,127,,
720,note_on,1,0,0,,,,,,,,0,,,80,39
720,note_on,0,0,0,,,,,,,,0,,,83,44
838,note_on,118,0,0,,,,,,,,0,,,83,0
838,note_on,0,0,0,,,,,,,,0,,,80,0
840,note_on,2,0,0,,,,,,,,0,,,81,41
840,note_on,0,0,0,,,,,,,,0,,,78,36
958,note_on,118,0,0,,,,,,,,0,,,78,0
958,note_on,0,0,0,,,,,,,,0,,,81,0
960,note_on,2,0,0,,,,,,,,0,,,76,42
960,note_on,0,0,0,,,,,,,,0,,,80,46
1180,note_on,220,0,0,,,,,,,,0,,,80,0
1180,note_on,0,0,0,,,,,,,,0,,,76,0
1200,set_tempo,20,1,0,,,,,,794702,,,,,,
1200,note_on,0,0,0,,,,,,,,0,,,80,37
1200,note_on,0,0,0,,,,,,,,0,,,76,34
1318,note_on,118,0,0,,,,,,,,0,,,76,0
1318,note_on,0,0,0,,,,,,,,0,,,80,0
1320,note_on,2,0,0,,,,,,,,0,,,71,32
1320,note_on,0,0,0,,,,,,,,0,,,78,36
1438,note_on,118,0,0,,,,,,,,0,,,78,0
1438,note_on,0,0,0,,,,,,,,0,,,71,0
1440,set_tempo,2,1,0,,,,,,817327,,,,,,
1440,note_on,0,0,0,,,,,,,,0,,,68,35
1440,note_on,0,0,0,,,,,,,,0,,,76,40
1660,note_on,220,0,0,,,,,,,,0,,,76,0
1660,note_on,0,0,0,,,,,,,,0,,,68,0
1680,set_tempo,20,1,0,,,,,,789266,,,,,,
1680,note_on,0,0,0,,,,,,,,0,,,83,43
1680,note_on,0,0,0,,,,,,,,0,,,80,37
1798,note_on,118,0,0,,,,,,,,0,,,80,0
1798,note_on,0,0,0,,,,,,,,0,,,83,0
1800,note_on,2,0,0,,,,,,,,0,,,78,35
1800,note_on,0,0,0,,,,,,,,0,,,81,40
1918,note_on,118,0,0,,,,,,,,0,,,81,0
1918,note_on,0,0,0,,,,,,,,0,,,78,0
1920,set_tempo,2,1,0,,,,,,817327,,,,,,
1920,note_on,0,0,0,,,,,,,,0,,,76,40
1920,note_on,0,0,0,,,,,,,,0,,,80,45
2140,note_on,220,0,0,,,,,,,,0,,,80,0
2140,note_on,0,0,0,,,,,,,,0,,,76,0
2160,set_tempo,20,1,0,,,,,,794702,,,,,,
2160,note_on,0,0,0,,,,,,,,0,,,80,37
2160,note_on,0,0,0,,,,,,,,0,,,76,34
2278,note_on,118,0,0,,,,,,,,0,,,76,0
2278,note_on,0,0,0,,,,,,,,0,,,80,0
2280,note_on,2,0,0,,,,,,,,0,,,71,32
2280,note_on,0,0,0,,,,,,,,0,,,78,36
2398,note_on,118,0,0,,,,,,,,0,,,78,0
2398,note_on,0,0,0,,,,,,,,0,,,71,0
2400,set_tempo,2,1,0,,,,,,817327,,,,,,
2400,note_on,0,0,0,,,,,,,,0,,,76,42
2400,note_on,0,0,0,,,,,,,,0,,,68,36
2620,note_on,220,0,0,,,,,,,,0,,,68,0
2620,note_on,0,0,0,,,,,,,,0,,,76,0
2640,set_tempo,20,1,0,,,,,,783801,,,,,,
2640,note_on,0,0,0,,,,,,,,0,,,76,42
2640,note_on,0,0,0,,,,,,,,0,,,68,36
2758,note_on,118,0,0,,,,,,,,0,,,68,0
2758,note_on,0,0,0,,,,,,,,0,,,76,0
2760,set_tempo,2,1,0,,,,,,783801,,,,,,
2760,note_on,0,0,0,,,,,,,,0,,,71,34
2760,note_on,0,0,0,,,,,,,,0,,,78,37
2878,note_on,118,0,0,,,,,,,,0,,,78,0
2878,note_on,0,0,0,,,,,,,,0,,,71,0
2880,set_tempo,2,1,0,,,,,,789266,,,,,,
2880,note_on,0,0,0,,,,,,,,0,,,80,45
2880,note_on,0,0,0,,,,,,,,0,,,76,40
3100,note_on,220,0,0,,,,,,,,0,,,76,0
3100,note_on,0,0,0,,,,,,,,0,,,80,0
3120,set_tempo,20,1,0,,,,,,752823,,,,,,
3120,note_on,0,0,0,,,,,,,,0,,,71,39
3120,note_on,0,0,0,,,,,,,,0,,,78,44
3238,note_on,118,0,0,,,,,,,,0,,,78,0
3238,note_on,0,0,0,,,,,,,,0,,,71,0
3240,set_tempo,2,1,0,,,,,,773196,,,,,,
3240,note_on,0,0,0,,,,,,,,0,,,76,35
3240,note_on,0,0,0,,,,,,,,0,,,80,40
3358,note_on,118,0,0,,,,,,,,0,,,80,0
3358,note_on,0,0,0,,,,,,,,0,,,76,0
3360,set_tempo,2,1,0,,,,,,778513,,,,,,
3360,note_on,0,0,0,,,,,,,,0,,,78,47
3360,note_on,0,0,0,,,,,,,,0,,,81,47
3580,note_on,220,0,0,,,,,,,,0,,,81,0
3580,note_on,0,0,0,,,,,,,,0,,,78,0
3600,set_tempo,20,1,0,,,,,,752823,,,,,,
3600,note_on,0,0,0,,,,,,,,0,,,71,40
3600,note_on,0,0,0,,,,,,,,0,,,78,45
3718,note_on,118,0,0,,,,,,,,0,,,78,0
3718,note_on,0,0,0,,,,,,,,0,,,71,0
3720,set_tempo,2,1,0,,,,,,773196,,,,,,
3720,note_on,0,0,0,,,,,,,,0,,,78,37
3720,note_on,0,0,0,,,,,,,,0,,,81,43
3838,note_on,118,0,0,,,,,,,,0,,,81,0
3838,note_on,0,0,0,,,,,,,,0,,,78,0
3840,set_tempo,2,1,0,,,,,,762873,,,,,,
3840,note_on,0,0,0,,,,,,,,0,,,83,50
3840,note_on,0,0,0,,,,,,,,0,,,80,44
4060,note_on,220,0,0,,,,,,,,0,,,80,0
4060,note_on,0,0,0,,,,,,,,0,,,83,0
4080,set_tempo,20,1,0,,,,,,747943,,,,,,
4080,note_on,0,0,0,,,,,,,,0,,,78,35
4080,note_on,0,0,0,,,,,,,,0,,,81,39
4198,note_on,118,0,0,,,,,,,,0,,,81,0
4198,note_on,0,0,0,,,,,,,,0,,,78,0
4200,set_tempo,2,1,0,,,,,,805910,,,,,,
4200,note_on,0,0,0,,,,,,,,0,,,80,36
4200,note_on,0,0,0,,,,,,,,0,,,76,33
4318,note_on,118,0,0,,,,,,,,0,,,76,0
4318,note_on,0,0,0,,,,,,,,0,,,80,0
4320,set_tempo,2,1,0,,,,,,778513,,,,,,
4320,note_on,0,0,0,,,,,,,,0,,,71,39
4320,note_on,0,0,0,,,,,,,,0,,,78,44
4540,note_on,220,0,0,,,,,,,,0,,,78,0
4540,note_on,0,0,0,,,,,,,,0,,,71,0
4560,set_tempo,20,1,0,,,,,,752823,,,,,,
4560,note_on,0,0,0,,,,,,,,0,,,83,44
4560,note_on,0,0,0,,,,,,,,0,,,80,39
4678,note_on,118,0,0,,,,,,,,0,,,80,0
4678,note_on,0,0,0,,,,,,,,0,,,83,0
4680,set_tempo,2,1,0,,,,,,762873,,,,,,
4680,note_on,0,0,0,,,,,,,,0,,,78,36
4680,note_on,0,0,0,,,,,,,,0,,,81,41
4798,note_on,118,0,0,,,,,,,,0,,,81,0
4798,note_on,0,0,0,,,,,,,,0,,,78,0
4800,set_tempo,2,1,0,,,,,,778513,,,,,,
4800,note_on,0,0,0,,,,,,,,0,,,80,49
4800,note_on,0,0,0,,,,,,,,0,,,76,44
5020,note_on,220,0,0,,,,,,,,0,,,76,0
5020,note_on,0,0,0,,,,,,,,0,,,80,0
5040,set_tempo,20,1,0,,,,,,762873,,,,,,
5040,note_on,0,0,0,,,,,,,,0,,,76,35
5040,note_on,0,0,0,,,,,,,,0,,,80,40
5158,note_on,118,0,0,,,,,,,,0,,,80,0
5158,note_on,0,0,0,,,,,,,,0,,,76,0
5160,note_on,2,0,0,,,,,,,,0,,,78,36
5160,note_on,0,0,0,,,,,,,,0,,,71,33
5278,note_on,118,0,0,,,,,,,,0,,,71,0
5278,note_on,0,0,0,,,,,,,,0,,,78,0
5280,set_tempo,2,1,0,,,,,,778513,,,,,,
5280,note_on,0,0,0,,,,,,,,0,,,76,44
5280,note_on,0,0,0,,,,,,,,0,,,68,39
5500,note_on,220,0,0,,,,,,,,0,,,68,0
5500,note_on,0,0,0,,,,,,,,0,,,76,0
5520,set_tempo,20,1,0,,,,,,738280,,,,,,
5520,note_on,0,0,0,,,,,,,,0,,,80,43
5520,note_on,0,0,0,,,,,,,,0,,,83,47
5638,note_on,118,0,0,,,,,,,,0,,,83,0
5638,note_on,0,0,0,,,,,,,,0,,,80,0
5640,set_tempo,2,1,0,,,,,,747943,,,,,,
5640,note_on,0,0,0,,,,,,,,0,,,81,44
5640,note_on,0,0,0,,,,,,,,0,,,78,39
5758,note_on,118,0,0,,,,,,,,0,,,78,0
5758,note_on,0,0,0,,,,,,,,0,,,81,0
5760,set_tempo,2,1,0,,,,,,762873,,,,,,
5760,note_on,0,0,0,,,,,,,,0,,,76,46
5760,note_on,0,0,0,,,,,,,,0,,,80,53
5980,note_on,220,0,0,,,,,,,,0,,,80,0
5980,note_on,0,0,0,,,,,,,,0,,,76,0
6000,set_tempo,20,1,0,,,,,,743126,,,,,,
6000,note_on,0,0,0,,,,,,,,0,,,76,35
6000,note_on,0,0,0,,,,,,,,0,,,80,39
6118,note_on,118,0,0,,,,,,,,0,,,80,0
6118,note_on,0,0,0,,,,,,,,0,,,76,0
6120,set_tempo,2,1,0,,,,,,757863,,,,,,
6120,note_on,0,0,0,,,,,,,,0,,,71,32
6120,note_on,0,0,0,,,,,,,,0,,,78,36
6238,note_on,118,0,0,,,,,,,,0,,,78,0
6238,note_on,0,0,0,,,,,,,,0,,,71,0
6240,set_tempo,2,1,0,,,,,,762873,,,,,,
6240,note_on,0,0,0,,,,,,,,0,,,68,44
6240,note_on,0,0,0,,,,,,,,0,,,76,44
6460,note_on,220,0,0,,,,,,,,0,,,76,0
6460,note_on,0,0,0,,,,,,,,0,,,68,0
6480,set_tempo,20,1,0,,,,,,773196,,,,,,
6480,note_on,0,0,0,,,,,,,,0,,,68,40
6480,note_on,0,0,0,,,,,,,,0,,,76,45
6598,note_on,118,0,0,,,,,,,,0,,,76,0
6598,note_on,0,0,0,,,,,,,,0,,,68,0
6600,set_tempo,2,1,0,,,,,,794702,,,,,,
6600,note_on,0,0,0,,,,,,,,0,,,78,41
6600,note_on,0,0,0,,,,,,,,0,,,71,36
6718,note_on,118,0,0,,,,,,,,0,,,71,0
6718,note_on,0,0,0,,,,,,,,0,,,78,0
6720,set_tempo,2,1,0,,,,,,783801,,,,,,
6720,note_on,0,0,0,,,,,,,,0,,,76,39
6720,note_on,0,0,0,,,,,,,,0,,,80,44
6940,note_on,220,0,0,,,,,,,,0,,,80,0
6940,note_on,0,0,0,,,,,,,,0,,,76,0
6960,set_tempo,20,1,0,,,,,,800213,,,,,,
6960,note_on,0,0,0,,,,,,,,0,,,81,39
6960,note_on,0,0,0,,,,,,,,0,,,78,35
7078,note_on,118,0,0,,,,,,,,0,,,78,0
7078,note_on,0,0,0,,,,,,,,0,,,81,0
7080,note_on,2,0,0,,,,,,,,0,,,80,35
7080,note_on,0,0,0,,,,,,,,0,,,76,31
7198,note_on,118,0,0,,,,,,,,0,,,76,0
7198,note_on,0,0,0,,,,,,,,0,,,80,0
7200,set_tempo,2,1,0,,,,,,783801,,,,,,
7200,note_on,0,0,0,,,,,,,,0,,,71,33
7200,note_on,0,0,0,,,,,,,,0,,,78,36
7420,note_on,220,0,0,,,,,,,,0,,,78,0
7420,note_on,0,0,0,,,,,,,,0,,,71,0
7440,set_tempo,20,1,0,,,,,,823271,,,,,,
7440,note_on,0,0,0,,,,,,,,0,,,80,36
7440,note_on,0,0,0,,,,,,,,0,,,76,32
7558,note_on,118,0,0,,,,,,,,0,,,76,0
7558,note_on,0,0,0,,,,,,,,0,,,80,0
7560,set_tempo,2,1,0,,,,,,908265,,,,,,
7560,note_on,0,0,0,,,,,,,,0,,,71,27
7560,note_on,0,0,0,,,,,,,,0,,,78,32
7678,note_on,118,0,0,,,,,,,,0,,,78,0
7678,note_on,0,0,0,,,,,,,,0,,,71,0
7680,note_on,2,0,0,,,,,,,,0,,,68,30
7680,note_on,0,0,0,,,,,,,,0,,,76,34
7920,set_tempo,240,1,0,,,,,,762873,,,,,,
8160,note_on,240,0,0,,,,,,,,0,,,76,0
8160,note_on,0,0,0,,,,,,,,0,,,68,0
8400,set_tempo,240,1,0,,,,,,702083,,,,,,
8400,note_on,0,0,0,,,,,,,,0,,,56,60
8400,note_on,0,0,0,,,,,,,,0,,,64,66
8458,note_on,58,0,0,,,,,,,,0,,,64,0
8458,note_on,0,0,0,,,,,,,,0,,,56,0
8520,set_tempo,62,1,0,,,,,,733496,,,,,,
8520,note_on,0,0,0,,,,,,,,0,,,64,56
8520,note_on,0,0,0,,,,,,,,0,,,68,63
8578,note_on,58,0,0,,,,,,,,0,,,68,0
8578,note_on,0,0,0,,,,,,,,0,,,64,0
8640,set_tempo,62,1,0,,,,,,743126,,,,,,
8640,note_on,0,0,0,,,,,,,,0,,,59,65
8640,note_on,0,0,0,,,,,,,,0,,,66,73
8860,note_on,220,0,0,,,,,,,,0,,,66,0
8860,note_on,0,0,0,,,,,,,,0,,,59,0
8880,set_tempo,20,1,0,,,,,,689338,,,,,,
8880,note_on,0,0,0,,,,,,,,0,,,64,60
8880,note_on,0,0,0,,,,,,,,0,,,68,66
8938,note_on,58,0,0,,,,,,,,0,,,68,0
8938,note_on,0,0,0,,,,,,,,0,,,64,0
9000,set_tempo,62,1,0,,,,,,710732,,,,,,
9000,note_on,0,0,0,,,,,,,,0,,,69,63
9000,note_on,0,0,0,,,,,,,,0,,,66,56
9058,note_on,58,0,0,,,,,,,,0,,,66,0
9058,note_on,0,0,0,,,,,,,,0,,,69,0
9120,set_tempo,62,1,0,,,,,,724200,,,,,,
9120,note_on,0,0,0,,,,,,,,0,,,68,63
9120,note_on,0,0,0,,,,,,,,0,,,71,72
9340,note_on,220,0,0,,,,,,,,0,,,71,0
9340,note_on,0,0,0,,,,,,,,0,,,68,0
9360,set_tempo,20,1,0,,,,,,685244,,,,,,
9360,note_on,0,0,0,,,,,,,,0,,,73,65
9360,note_on,0,0,0,,,,,,,,0,,,69,59
9418,note_on,58,0,0,,,,,,,,0,,,69,0
9418,note_on,0,0,0,,,,,,,,0,,,73,0
9460,set_tempo,42,1,0,,,,,,710732,,,,,,
9480,set_tempo,20,1,0,,,,,,743126,,,,,,
9480,note_on,0,0,0,,,,,,,,0,,,71,63
9480,note_on,0,0,0,,,,,,,,0,,,68,55
9538,note_on,58,0,0,,,,,,,,0,,,68,0
9538,note_on,0,0,0,,,,,,,,0,,,71,0
9600,set_tempo,62,1,0,,,,,,733496,,,,,,
9600,note_on,0,0,0,,,,,,,,0,,,66,63
9600,note_on,0,0,0,,,,,,,,0,,,69,71
9820,note_on,220,0,0,,,,,,,,0,,,69,0
9820,note_on,0,0,0,,,,,,,,0,,,66,0
9840,set_tempo,20,1,0,,,,,,702083,,,,,,
9840,note_on,0,0,0,,,,,,,,0,,,68,71
9840,note_on,0,0,0,,,,,,,,0,,,64,63
9898,note_on,58,0,0,,,,,,,,0,,,64,0
9898,note_on,0,0,0,,,,,,,,0,,,68,0
9960,set_tempo,62,1,0,,,,,,733496,,,,,,
9960,note_on,0,0,0,,,,,,,,0,,,66,60
9960,note_on,0,0,0,,,,,,,,0,,,69,66
10018,note_on,58,0,0,,,,,,,,0,,,69,0
10018,note_on,0,0,0,,,,,,,,0,,,66,0
10080,set_tempo,62,1,0,,,,,,794702,,,,,,
10080,note_on,0,0,0,,,,,,,,0,,,59,66
10080,note_on,0,0,0,,,,,,,,0,,,66,74
10300,note_on,220,0,0,,,,,,,,0,,,66,0
10300,note_on,0,0,0,,,,,,,,0,,,59,0
10320,set_tempo,20,1,0,,,,,,706381,,,,,,
10320,note_on,0,0,0,,,,,,,,0,,,56,60
10320,note_on,0,0,0,,,,,,,,0,,,64,66
10378,note_on,58,0,0,,,,,,,,0,,,64,0
10378,note_on,0,0,0,,,,,,,,0,,,56,0
10440,set_tempo,62,1,0,,,,,,728863,,,,,,
10440,note_on,0,0,0,,,,,,,,0,,,64,57
10440,note_on,0,0,0,,,,,,,,0,,,68,64
10498,note_on,58,0,0,,,,,,,,0,,,68,0
10498,note_on,0,0,0,,,,,,,,0,,,64,0
10560,set_tempo,62,1,0,,,,,,733496,,,,,,
10560,note_on,0,0,0,,,,,,,,0,,,59,65
10560,note_on,0,0,0,,,,,,,,0,,,66,73
10780,note_on,220,0,0,,,,,,,,0,,,66,0
10780,note_on,0,0,0,,,,,,,,0,,,59,0
10800,set_tempo,20,1,0,,,,,,665336,,,,,,
10800,note_on,0,0,0,,,,,,,,0,,,68,66
10800,note_on,0,0,0,,,,,,,,0,,,64,60
10858,note_on,58,0,0,,,,,,,,0,,,64,0
10858,note_on,0,0,0,,,,,,,,0,,,68,0
10920,set_tempo,62,1,0,,,,,,719683,,,,,,
10920,note_on,0,0,0,,,,,,,,0,,,66,56
10920,note_on,0,0,0,,,,,,,,0,,,69,63
10978,note_on,58,0,0,,,,,,,,0,,,69,0
10978,note_on,0,0,0,,,,,,,,0,,,66,0
11040,set_tempo,62,1,0,,,,,,685244,,,,,,
11040,note_on,0,0,0,,,,,,,,0,,,71,72
11040,note_on,0,0,0,,,,,,,,0,,,68,63
11260,note_on,220,0,0,,,,,,,,0,,,68,0
11260,note_on,0,0,0,,,,,,,,0,,,71,0
11280,set_tempo,20,1,0,,,,,,697756,,,,,,
11280,note_on,0,0,0,,,,,,,,0,,,73,65
11280,note_on,0,0,0,,,,,,,,0,,,69,59
11338,note_on,58,0,0,,,,,,,,0,,,69,0
11338,note_on,0,0,0,,,,,,,,0,,,73,0
11400,set_tempo,62,1,0,,,,,,743126,,,,,,
11400,note_on,0,0,0,,,,,,,,0,,,68,56
11400,note_on,0,0,0,,,,,,,,0,,,71,63
11458,note_on,58,0,0,,,,,,,,0,,,71,0
11458,note_on,0,0,0,,,,,,,,0,,,68,0
11520,set_tempo,62,1,0,,,,,,778008,,,,,,
11520,note_on,0,0,0,,,,,,,,0,,,69,69
11520,note_on,0,0,0,,,,,,,,0,,,66,62
11740,note_on,220,0,0,,,,,,,,0,,,66,0
11740,note_on,0,0,0,,,,,,,,0,,,69,0
11760,set_tempo,20,1,0,,,,,,857388,,,,,,
11760,note_on,0,0,0,,,,,,,,0,,,64,63
11760,note_on,0,0,0,,,,,,,,0,,,68,71
11818,note_on,58,0,0,,,,,,,,0,,,68,0
11818,note_on,0,0,0,,,,,,,,0,,,64,0
11880,set_tempo,62,1,0,,,,,,940439,,,,,,
11880,note_on,0,0,0,,,,,,,,0,,,66,60
11880,note_on,0,0,0,,,,,,,,0,,,69,66
11938,note_on,58,0,0,,,,,,,,0,,,69,0
11938,note_on,0,0,0,,,,,,,,0,,,66,0
12000,set_tempo,62,1,0,,,,,,1041486,,,,,,
12000,note_on,0,0,0,,,,,,,,0,,,59,60
12000,note_on,0,0,0,,,,,,,,0,,,66,66
12180,note_on,180,0,0,,,,,,,,0,,,66,0
12180,note_on,0,0,0,,,,,,,,0,,,59,0
12240,set_tempo,60,1,0,,,,,,773196,,,,,,
12240,note_on,0,0,0,,,,,,,,0,,,83,47
12240,note_on,0,0,0,,,,,,,,0,,,80,43
12358,note_on,118,0,0,,,,,,,,0,,,80,0
12358,note_on,0,0,0,,,,,,,,0,,,83,0
12360,set_tempo,2,1,0,,,,,,778513,,,,,,
12360,note_on,0,0,0,,,,,,,,0,,,78,41
12360,note_on,0,0,0,,,,,,,,0,,,81,45
12478,note_on,118,0,0,,,,,,,,0,,,81,0
12478,note_on,0,0,0,,,,,,,,0,,,78,0
12480,set_tempo,2,1,0,,,,,,783801,,,,,,
12480,note_on,0,0,0,,,,,,,,0,,,80,53
12480,note_on,0,0,0,,,,,,,,0,,,76,46
12700,note_on,220,0,0,,,,,,,,0,,,76,0
12700,note_on,0,0,0,,,,,,,,0,,,80,0
12720,set_tempo,20,1,0,,,,,,757863,,,,,,
12720,note_on,0,0,0,,,,,,,,0,,,76,35
12720,note_on,0,0,0,,,,,,,,0,,,80,39
12838,note_on,118,0,0,,,,,,,,0,,,80,0
12838,note_on,0,0,0,,,,,,,,0,,,76,0
12840,set_tempo,2,1,0,,,,,,783801,,,,,,
12840,note_on,0,0,0,,,,,,,,0,,,71,33
12840,note_on,0,0,0,,,,,,,,0,,,78,36
12958,note_on,118,0,0,,,,,,,,0,,,78,0
12958,note_on,0,0,0,,,,,,,,0,,,71,0
12960,set_tempo,2,1,0,,,,,,851547,,,,,,
12960,note_on,0,0,0,,,,,,,,0,,,68,39
12960,note_on,0,0,0,,,,,,,,0,,,76,44
13180,note_on,220,0,0,,,,,,,,0,,,76,0
13180,note_on,0,0,0,,,,,,,,0,,,68,0
13200,set_tempo,20,1,0,,,,,,702083,,,,,,
13200,note_on,0,0,0,,,,,,,,0,,,68,60
13200,note_on,0,0,0,,,,,,,,0,,,71,66
13258,note_on,58,0,0,,,,,,,,0,,,71,0
13258,note_on,0,0,0,,,,,,,,0,,,68,0
13320,set_tempo,62,1,0,,,,,,719683,,,,,,
13320,note_on,0,0,0,,,,,,,,0,,,66,54
13320,note_on,0,0,0,,,,,,,,0,,,69,62
13378,note_on,58,0,0,,,,,,,,0,,,69,0
13378,note_on,0,0,0,,,,,,,,0,,,66,0
13440,set_tempo,62,1,0,,,,,,762873,,,,,,
13440,note_on,0,0,0,,,,,,,,0,,,68,72
13440,note_on,0,0,0,,,,,,,,0,,,64,64
13660,note_on,220,0,0,,,,,,,,0,,,64,0
13660,note_on,0,0,0,,,,,,,,0,,,68,0
13680,set_tempo,20,1,0,,,,,,715222,,,,,,
13680,note_on,0,0,0,,,,,,,,0,,,64,59
13680,note_on,0,0,0,,,,,,,,0,,,68,65
13738,note_on,58,0,0,,,,,,,,0,,,68,0
13738,note_on,0,0,0,,,,,,,,0,,,64,0
13800,set_tempo,62,1,0,,,,,,757863,,,,,,
13800,note_on,0,0,0,,,,,,,,0,,,66,62
13800,note_on,0,0,0,,,,,,,,0,,,59,54
13858,note_on,58,0,0,,,,,,,,0,,,59,0
13858,note_on,0,0,0,,,,,,,,0,,,66,0
13920,set_tempo,62,1,0,,,,,,794702,,,,,,
13920,note_on,0,0,0,,,,,,,,0,,,64,72
13920,note_on,0,0,0,,,,,,,,0,,,56,63
14100,note_on,180,0,0,,,,,,,,0,,,56,0
14100,note_on,0,0,0,,,,,,,,0,,,64,0
14160,set_tempo,60,1,0,,,,,,773196,,,,,,
14160,note_on,0,0,0,,,,,,,,0,,,68,40
14160,note_on,0,0,0,,,,,,,,0,,,76,45
14278,note_on,118,0,0,,,,,,,,0,,,76,0
14278,note_on,0,0,0,,,,,,,,0,,,68,0
14280,set_tempo,2,1,0,,,,,,794702,,,,,,
14280,note_on,0,0,0,,,,,,,,0,,,78,41
14280,note_on,0,0,0,,,,,,,,0,,,71,36
14398,note_on,118,0,0,,,,,,,,0,,,71,0
14398,note_on,0,0,0,,,,,,,,0,,,78,0
14400,set_tempo,2,1,0,,,,,,783801,,,,,,
14400,note_on,0,0,0,,,,,,,,0,,,76,39
14400,note_on,0,0,0,,,,,,,,0,,,80,44
14620,note_on,220,0,0,,,,,,,,0,,,80,0
14620,note_on,0,0,0,,,,,,,,0,,,76,0
14640,set_tempo,20,1,0,,,,,,800213,,,,,,
14640,note_on,0,0,0,,,,,,,,0,,,78,35
14640,note_on,0,0,0,,,,,,,,0,,,81,39
14758,note_on,118,0,0,,,,,,,,0,,,81,0
14758,note_on,0,0,0,,,,,,,,0,,,78,0
14760,note_on,2,0,0,,,,,,,,0,,,76,31
14760,note_on,0,0,0,,,,,,,,0,,,80,35
14878,note_on,118,0,0,,,,,,,,0,,,80,0
14878,note_on,0,0,0,,,,,,,,0,,,76,0
14880,set_tempo,2,1,0,,,,,,783801,,,,,,
14880,note_on,0,0,0,,,,,,,,0,,,71,33
14880,note_on,0,0,0,,,,,,,,0,,,78,36
15100,note_on,220,0,0,,,,,,,,0,,,78,0
15100,note_on,0,0,0,,,,,,,,0,,,71,0
15120,set_tempo,20,1,0,,,,,,880153,,,,,,
15120,note_on,0,0,0,,,,,,,,0,,,76,32
15120,note_on,0,0,0,,,,,,,,0,,,80,36
15238,note_on,118,0,0,,,,,,,,0,,,80,0
15238,note_on,0,0,0,,,,,,,,0,,,76,0
15240,set_tempo,2,1,0,,,,,,1122125,,,,,,
15240,note_on,0,0,0,,,,,,,,0,,,78,32
15240,note_on,0,0,0,,,,,,,,0,,,71,27
15358,note_on,118,0,0,,,,,,,,0,,,71,0
15358,note_on,0,0,0,,,,,,,,0,,,78,0
15360,set_tempo,2,1,0,,,,,,978155,,,,,,
15360,note_on,0,0,0,,,,,,,,0,,,68,30
15360,note_on,0,0,0,,,,,,,,0,,,76,34
15840,note_on,480,0,0,,,,,,,,0,,,76,0
15840,note_on,0,0,0,,,,,,,,0,,,68,0
16040,set_tempo,200,1,0,,,,,,805261,,,,,,
16079,control_change,39,0,0,,,,,,,,0,91,127,,
16079,control_change,0,0,0,,,,,,,,0,91,127,,
16080,set_tempo,1,1,0,,,,,,669195,,,,,,
16080,note_on,0,0,0,,,,,,,,0,,,92,37
16080,note_on,0,0,0,,,,,,,,0,,,95,43
16094,control_change,14,0,0,,,,,,,,0,64,127,,
16198,note_on,104,0,0,,,,,,,,0,,,95,0
16198,note_on,0,0,0,,,,,,,,0,,,92,0
16200,note_on,2,0,0,,,,,,,,0,,,90,35
16200,note_on,0,0,0,,,,,,,,0,,,93,39
16318,note_on,118,0,0,,,,,,,,0,,,93,0
16318,note_on,0,0,0,,,,,,,,0,,,90,0
16320,set_tempo,2,1,0,,,,,,689338,,,,,,
16320,note_on,0,0,0,,,,,,,,0,,,92,46
16320,note_on,0,0,0,,,,,,,,0,,,88,42
16320,note_on,0,0,0,,,,,,,,0,,,52,37
16320,note_on,0,0,0,,,,,,,,0,,,59,37
16327,control_change,7,0,0,,,,,,,,0,64,0,,
16391,control_change,64,0,0,,,,,,,,0,64,127,,
16438,note_on,47,0,0,,,,,,,,0,,,59,0
16440,note_on,2,0,0,,,,,,,,0,,,64,35
16550,note_on,110,0,0,,,,,,,,0,,,92,0
16550,note_on,0,0,0,,,,,,,,0,,,88,0
16558,note_on,8,0,0,,,,,,,,0,,,64,0
16560,set_tempo,2,1,0,,,,,,665336,,,,,,
16560,note_on,0,0,0,,,,,,,,0,,,88,34
16560,note_on,0,0,0,,,,,,,,0,,,92,37
16560,note_on,0,0,0,,,,,,,,0,,,71,32
16567,control_change,7,0,0,,,,,,,,0,64,0,,
16624,control_change,57,0,0,,,,,,,,0,64,127,,
16678,note_on,54,0,0,,,,,,,,0,,,92,0
16678,note_on,0,0,0,,,,,,,,0,,,88,0
16680,note_on,2,0,0,,,,,,,,0,,,90,35
16680,note_on,0,0,0,,,,,,,,0,,,83,31
16687,control_change,7,0,0,,,,,,,,0,64,0,,
16790,note_on,103,0,0,,,,,,,,0,,,71,0
16798,note_on,8,0,0,,,,,,,,0,,,83,0
16798,note_on,0,0,0,,,,,,,,0,,,90,0
16800,set_tempo,2,1,0,,,,,,685244,,,,,,
16800,note_on,0,0,0,,,,,,,,0,,,52,0
16800,note_on,0,0,0,,,,,,,,0,,,80,36
16800,note_on,0,0,0,,,,,,,,0,,,88,41
16800,note_on,0,0,0,,,,,,,,0,,,71,37
16800,note_on,0,0,0,,,,,,,,0,,,64,37
16850,control_change,50,0,0,,,,,,,,0,64,127,,
16918,note_on,68,0,0,,,,,,,,0,,,64,0
16920,note_on,2,0,0,,,,,,,,0,,,59,36
17030,note_on,110,0,0,,,,,,,,0,,,80,0
17030,note_on,0,0,0,,,,,,,,0,,,88,0
17038,note_on,8,0,0,,,,,,,,0,,,59,0
17040,set_tempo,2,1,0,,,,,,661521,,,,,,
17040,note_on,0,0,0,,,,,,,,0,,,83,42
17040,note_on,0,0,0,,,,,,,,0,,,80,36
17040,note_on,0,0,0,,,,,,,,0,,,52,35
17051,control_change,11,0,0,,,,,,,,0,64,0,,
17104,control_change,53,0,0,,,,,,,,0,64,127,,
17158,note_on,54,0,0,,,,,,,,0,,,80,0
17158,note_on,0,0,0,,,,,,,,0,,,83,0
17160,note_on,2,0,0,,,,,,,,0,,,78,33
17160,note_on,0,0,0,,,,,,,,0,,,81,36
17270,note_on,110,0,0,,,,,,,,0,,,52,0
17278,note_on,8,0,0,,,,,,,,0,,,81,0
17278,note_on,0,0,0,,,,,,,,0,,,78,0
17280,set_tempo,2,1,0,,,,,,685244,,,,,,
17280,note_on,0,0,0,,,,,,,,0,,,71,0
17280,note_on,0,0,0,,,,,,,,0,,,76,40
17280,note_on,0,0,0,,,,,,,,0,,,80,45
17280,note_on,0,0,0,,,,,,,,0,,,52,32
17280,note_on,0,0,0,,,,,,,,0,,,59,36
17286,control_change,6,0,0,,,,,,,,0,64,0,,
17351,control_change,65,0,0,,,,,,,,0,64,127,,
17398,note_on,47,0,0,,,,,,,,0,,,59,0
17400,note_on,2,0,0,,,,,,,,0,,,64,35
17510,note_on,110,0,0,,,,,,,,0,,,76,0
17510,note_on,0,0,0,,,,,,,,0,,,80,0
17518,note_on,8,0,0,,,,,,,,0,,,64,0
17520,set_tempo,2,1,0,,,,,,661521,,,,,,
17520,note_on,0,0,0,,,,,,,,0,,,76,34
17520,note_on,0,0,0,,,,,,,,0,,,80,37
17520,note_on,0,0,0,,,,,,,,0,,,71,35
17532,control_change,12,0,0,,,,,,,,0,64,0,,
17577,control_change,45,0,0,,,,,,,,0,64,127,,
17638,note_on,61,0,0,,,,,,,,0,,,80,0
17638,note_on,0,0,0,,,,,,,,0,,,76,0
17640,note_on,2,0,0,,,,,,,,0,,,78,35
17640,note_on,0,0,0,,,,,,,,0,,,71,31
17655,control_change,15,0,0,,,,,,,,0,64,0,,
17750,note_on,95,0,0,,,,,,,,0,,,71,0
17758,note_on,8,0,0,,,,,,,,0,,,71,0
17758,note_on,0,0,0,,,,,,,,0,,,78,0
17760,set_tempo,2,1,0,,,,,,681122,,,,,,
17760,note_on,0,0,0,,,,,,,,0,,,52,0
17760,note_on,0,0,0,,,,,,,,0,,,68,42
17760,note_on,0,0,0,,,,,,,,0,,,76,42
17760,note_on,0,0,0,,,,,,,,0,,,64,36
17760,note_on,0,0,0,,,,,,,,0,,,71,36
17796,control_change,36,0,0,,,,,,,,0,64,127,,
17878,note_on,82,0,0,,,,,,,,0,,,64,0
17880,note_on,2,0,0,,,,,,,,0,,,59,35
17990,note_on,110,0,0,,,,,,,,0,,,68,0
17990,note_on,0,0,0,,,,,,,,0,,,76,0
17998,note_on,8,0,0,,,,,,,,0,,,59,0
18000,set_tempo,2,1,0,,,,,,646482,,,,,,
18000,note_on,0,0,0,,,,,,,,0,,,76,42
18000,note_on,0,0,0,,,,,,,,0,,,68,36
18000,note_on,0,0,0,,,,,,,,0,,,52,35
18011,control_change,11,0,0,,,,,,,,0,64,0,,
18118,note_on,107,0,0,,,,,,,,0,,,68,0
18118,note_on,0,0,0,,,,,,,,0,,,76,0
18120,set_tempo,2,1,0,,,,,,694766,,,,,,
18120,note_on,0,0,0,,,,,,,,0,,,78,37
18120,note_on,0,0,0,,,,,,,,0,,,71,34
18230,note_on,110,0,0,,,,,,,,0,,,52,0
18238,note_on,8,0,0,,,,,,,,0,,,71,0
18238,note_on,0,0,0,,,,,,,,0,,,78,0
18240,set_tempo,2,1,0,,,,,,677124,,,,,,
18240,note_on,0,0,0,,,,,,,,0,,,71,0
18240,note_on,0,0,0,,,,,,,,0,,,76,40
18240,note_on,0,0,0,,,,,,,,0,,,80,45
18240,control_change,0,0,0,,,,,,,,0,64,127,,
18240,note_on,0,0,0,,,,,,,,0,,,59,36
18240,note_on,0,0,0,,,,,,,,0,,,52,36
18358,note_on,118,0,0,,,,,,,,0,,,52,0
18360,note_on,2,0,0,,,,,,,,0,,,64,33
18470,note_on,110,0,0,,,,,,,,0,,,76,0
18470,note_on,0,0,0,,,,,,,,0,,,59,0
18470,note_on,0,0,0,,,,,,,,0,,,80,0
18478,note_on,8,0,0,,,,,,,,0,,,64,0
18480,set_tempo,2,1,0,,,,,,646482,,,,,,
18480,note_on,0,0,0,,,,,,,,0,,,78,43
18480,note_on,0,0,0,,,,,,,,0,,,71,37
18487,control_change,7,0,0,,,,,,,,0,64,0,,
18598,note_on,111,0,0,,,,,,,,0,,,71,0
18598,note_on,0,0,0,,,,,,,,0,,,78,0
18600,set_tempo,2,1,0,,,,,,685323,,,,,,
18600,note_on,0,0,0,,,,,,,,0,,,76,34
18600,note_on,0,0,0,,,,,,,,0,,,80,37
18718,note_on,118,0,0,,,,,,,,0,,,80,0
18718,note_on,0,0,0,,,,,,,,0,,,76,0
18720,set_tempo,2,1,0,,,,,,673174,,,,,,
18720,note_on,0,0,0,,,,,,,,0,,,78,43
18720,note_on,0,0,0,,,,,,,,0,,,81,47
18720,note_on,0,0,0,,,,,,,,0,,,63,32
18720,note_on,0,0,0,,,,,,,,0,,,71,36
18784,control_change,64,0,0,,,,,,,,0,64,127,,
18840,note_on,56,0,0,,,,,,,,0,,,59,33
18950,note_on,110,0,0,,,,,,,,0,,,71,0
18950,note_on,0,0,0,,,,,,,,0,,,63,0
18950,note_on,0,0,0,,,,,,,,0,,,78,0
18950,note_on,0,0,0,,,,,,,,0,,,81,0
18958,note_on,8,0,0,,,,,,,,0,,,59,0
18960,set_tempo,2,1,0,,,,,,646482,,,,,,
18960,note_on,0,0,0,,,,,,,,0,,,71,40
18960,note_on,0,0,0,,,,,,,,0,,,78,45
18974,control_change,14,0,0,,,,,,,,0,64,0,,
19078,note_on,104,0,0,,,,,,,,0,,,78,0
19078,note_on,0,0,0,,,,,,,,0,,,71,0
19080,set_tempo,2,1,0,,,,,,685323,,,,,,
19080,note_on,0,0,0,,,,,,,,0,,,78,36
19080,note_on,0,0,0,,,,,,,,0,,,81,42
19198,note_on,118,0,0,,,,,,,,0,,,81,0
19198,note_on,0,0,0,,,,,,,,0,,,78,0
19200,set_tempo,2,1,0,,,,,,673174,,,,,,
19200,note_on,0,0,0,,,,,,,,0,,,80,44
19200,note_on,0,0,0,,,,,,,,0,,,83,50
19200,note_on,0,0,0,,,,,,,,0,,,52,31
19200,note_on,0,0,0,,,,,,,,0,,,59,35
19200,control_change,0,0,0,,,,,,,,0,64,127,,
19320,note_on,120,0,0,,,,,,,,0,,,64,33
19430,note_on,110,0,0,,,,,,,,0,,,59,0
19430,note_on,0,0,0,,,,,,,,0,,,52,0
19430,note_on,0,0,0,,,,,,,,0,,,80,0
19430,note_on,0,0,0,,,,,,,,0,,,83,0
19438,note_on,8,0,0,,,,,,,,0,,,64,0
19440,set_tempo,2,1,0,,,,,,642880,,,,,,
19440,note_on,0,0,0,,,,,,,,0,,,81,39
19440,note_on,0,0,0,,,,,,,,0,,,78,35
19447,control_change,7,0,0,,,,,,,,0,64,0,,
19504,control_change,57,0,0,,,,,,,,0,64,127,,
19558,note_on,54,0,0,,,,,,,,0,,,78,0
19558,note_on,0,0,0,,,,,,,,0,,,81,0
19560,set_tempo,2,1,0,,,,,,669195,,,,,,
19560,note_on,0,0,0,,,,,,,,0,,,76,32
19560,note_on,0,0,0,,,,,,,,0,,,80,36
19678,note_on,118,0,0,,,,,,,,0,,,80,0
19678,note_on,0,0,0,,,,,,,,0,,,76,0
19680,set_tempo,2,1,0,,,,,,677124,,,,,,
19680,note_on,0,0,0,,,,,,,,0,,,78,44
19680,note_on,0,0,0,,,,,,,,0,,,71,39
19680,note_on,0,0,0,,,,,,,,0,,,66,35
19680,note_on,0,0,0,,,,,,,,0,,,63,31
19687,control_change,7,0,0,,,,,,,,0,64,0,,
19800,note_on,113,0,0,,,,,,,,0,,,59,32
19910,note_on,110,0,0,,,,,,,,0,,,63,0
19910,note_on,0,0,0,,,,,,,,0,,,66,0
19910,note_on,0,0,0,,,,,,,,0,,,78,0
19910,note_on,0,0,0,,,,,,,,0,,,71,0
19918,note_on,8,0,0,,,,,,,,0,,,59,0
19920,set_tempo,2,1,0,,,,,,669195,,,,,,
19920,note_on,0,0,0,,,,,,,,0,,,92,37
19920,note_on,0,0,0,,,,,,,,0,,,95,43
19948,control_change,28,0,0,,,,,,,,0,64,127,,
20038,note_on,90,0,0,,,,,,,,0,,,95,0
20038,note_on,0,0,0,,,,,,,,0,,,92,0
20040,note_on,2,0,0,,,,,,,,0,,,90,35
20040,note_on,0,0,0,,,,,,,,0,,,93,39
20158,note_on,118,0,0,,,,,,,,0,,,93,0
20158,note_on,0,0,0,,,,,,,,0,,,90,0
20160,set_tempo,2,1,0,,,,,,689338,,,,,,
20160,note_on,0,0,0,,,,,,,,0,,,88,42
20160,note_on,0,0,0,,,,,,,,0,,,92,46
20160,note_on,0,0,0,,,,,,,,0,,,59,37
20160,note_on,0,0,0,,,,,,,,0,,,52,34
20170,control_change,10,0,0,,,,,,,,0,64,0,,
20231,control_change,61,0,0,,,,,,,,0,64,127,,
20278,note_on,47,0,0,,,,,,,,0,,,59,0
20280,note_on,2,0,0,,,,,,,,0,,,64,35
20390,note_on,110,0,0,,,,,,,,0,,,88,0
20390,note_on,0,0,0,,,,,,,,0,,,92,0
20398,note_on,8,0,0,,,,,,,,0,,,64,0
20400,set_tempo,2,1,0,,,,,,665336,,,,,,
20400,note_on,0,0,0,,,,,,,,0,,,92,37
20400,note_on,0,0,0,,,,,,,,0,,,88,34
20400,note_on,0,0,0,,,,,,,,0,,,71,32
20414,control_change,14,0,0,,,,,,,,0,64,0,,
20464,control_change,50,0,0,,,,,,,,0,64,127,,
20518,note_on,54,0,0,,,,,,,,0,,,88,0
20518,note_on,0,0,0,,,,,,,,0,,,92,0
20520,note_on,2,0,0,,,,,,,,0,,,83,31
20520,note_on,0,0,0,,,,,,,,0,,,90,35
20630,note_on,110,0,0,,,,,,,,0,,,71,0
20638,note_on,8,0,0,,,,,,,,0,,,90,0
20638,note_on,0,0,0,,,,,,,,0,,,83,0
20640,set_tempo,2,1,0,,,,,,685244,,,,,,
20640,note_on,0,0,0,,,,,,,,0,,,52,0
20640,note_on,0,0,0,,,,,,,,0,,,88,41
20640,note_on,0,0,0,,,,,,,,0,,,80,36
20640,note_on,0,0,0,,,,,,,,0,,,64,37
20640,note_on,0,0,0,,,,,,,,0,,,71,37
20649,control_change,9,0,0,,,,,,,,0,64,0,,
20676,control_change,27,0,0,,,,,,,,0,64,127,,
20758,note_on,82,0,0,,,,,,,,0,,,64,0
20760,note_on,2,0,0,,,,,,,,0,,,59,35
20870,note_on,110,0,0,,,,,,,,0,,,88,0
20870,note_on,0,0,0,,,,,,,,0,,,80,0
20878,note_on,8,0,0,,,,,,,,0,,,59,0
20880,set_tempo,2,1,0,,,,,,661521,,,,,,
20880,note_on,0,0,0,,,,,,,,0,,,80,36
20880,note_on,0,0,0,,,,,,,,0,,,83,42
20880,note_on,0,0,0,,,,,,,,0,,,52,35
20892,control_change,12,0,0,,,,,,,,0,64,0,,
20944,control_change,52,0,0,,,,,,,,0,64,127,,
20998,note_on,54,0,0,,,,,,,,0,,,83,0
20998,note_on,0,0,0,,,,,,,,0,,,80,0
21000,note_on,2,0,0,,,,,,,,0,,,78,34
21000,note_on,0,0,0,,,,,,,,0,,,81,37
21110,note_on,110,0,0,,,,,,,,0,,,52,0
21118,note_on,8,0,0,,,,,,,,0,,,81,0
21118,note_on,0,0,0,,,,,,,,0,,,78,0
21120,set_tempo,2,1,0,,,,,,681122,,,,,,
21120,note_on,0,0,0,,,,,,,,0,,,71,0
21120,note_on,0,0,0,,,,,,,,0,,,80,45
21120,note_on,0,0,0,,,,,,,,0,,,76,40
21120,note_on,0,0,0,,,,,,,,0,,,52,32
21120,note_on,0,0,0,,,,,,,,0,,,59,36
21123,control_change,3,0,0,,,,,,,,0,64,0,,
21198,control_change,75,0,0,,,,,,,,0,64,127,,
21238,note_on,40,0,0,,,,,,,,0,,,59,0
21240,note_on,2,0,0,,,,,,,,0,,,64,35
21350,note_on,110,0,0,,,,,,,,0,,,80,0
21350,note_on,0,0,0,,,,,,,,0,,,76,0
21358,note_on,8,0,0,,,,,,,,0,,,64,0
21360,set_tempo,2,1,0,,,,,,642880,,,,,,
21360,note_on,0,0,0,,,,,,,,0,,,76,34
21360,note_on,0,0,0,,,,,,,,0,,,80,37
21360,note_on,0,0,0,,,,,,,,0,,,71,35
21369,control_change,9,0,0,,,,,,,,0,64,0,,
21431,control_change,62,0,0,,,,,,,,0,64,127,,
21478,note_on,47,0,0,,,,,,,,0,,,80,0
21478,note_on,0,0,0,,,,,,,,0,,,76,0
21480,set_tempo,2,1,0,,,,,,646482,,,,,,
21480,note_on,0,0,0,,,,,,,,0,,,71,31
21480,note_on,0,0,0,,,,,,,,0,,,78,35
21492,control_change,12,0,0,,,,,,,,0,64,0,,
21590,note_on,98,0,0,,,,,,,,0,,,71,0
21598,note_on,8,0,0,,,,,,,,0,,,78,0
21598,note_on,0,0,0,,,,,,,,0,,,71,0
21600,set_tempo,2,1,0,,,,,,673174,,,,,,
21600,note_on,0,0,0,,,,,,,,0,,,52,0
21600,note_on,0,0,0,,,,,,,,0,,,68,36
21600,note_on,0,0,0,,,,,,,,0,,,76,42
21600,note_on,0,0,0,,,,,,,,0,,,64,36
21600,note_on,0,0,0,,,,,,,,0,,,71,36
21657,control_change,57,0,0,,,,,,,,0,64,127,,
21718,note_on,61,0,0,,,,,,,,0,,,64,0
21720,note_on,2,0,0,,,,,,,,0,,,59,35
21830,note_on,110,0,0,,,,,,,,0,,,68,0
21830,note_on,0,0,0,,,,,,,,0,,,76,0
21838,note_on,8,0,0,,,,,,,,0,,,59,0
21840,set_tempo,2,1,0,,,,,,642880,,,,,,
21840,note_on,0,0,0,,,,,,,,0,,,68,36
21840,note_on,0,0,0,,,,,,,,0,,,76,42
21840,note_on,0,0,0,,,,,,,,0,,,52,35
21847,control_change,7,0,0,,,,,,,,0,64,0,,
21958,note_on,111,0,0,,,,,,,,0,,,76,0
21958,note_on,0,0,0,,,,,,,,0,,,68,0
21960,set_tempo,2,1,0,,,,,,650195,,,,,,
21960,note_on,0,0,0,,,,,,,,0,,,71,34
21960,note_on,0,0,0,,,,,,,,0,,,78,37
22070,note_on,110,0,0,,,,,,,,0,,,52,0
22078,note_on,8,0,0,,,,,,,,0,,,78,0
22078,note_on,0,0,0,,,,,,,,0,,,71,0
22080,set_tempo,2,1,0,,,,,,673174,,,,,,
22080,note_on,0,0,0,,,,,,,,0,,,71,0
22080,note_on,0,0,0,,,,,,,,0,,,80,45
22080,note_on,0,0,0,,,,,,,,0,,,76,40
22080,control_change,0,0,0,,,,,,,,0,64,127,,
22080,note_on,0,0,0,,,,,,,,0,,,59,36
22080,note_on,0,0,0,,,,,,,,0,,,52,36
22198,note_on,118,0,0,,,,,,,,0,,,52,0
22200,note_on,2,0,0,,,,,,,,0,,,64,33
22310,note_on,110,0,0,,,,,,,,0,,,80,0
22310,note_on,0,0,0,,,,,,,,0,,,59,0
22310,note_on,0,0,0,,,,,,,,0,,,76,0
22318,note_on,8,0,0,,,,,,,,0,,,64,0
22320,set_tempo,2,1,0,,,,,,657606,,,,,,
22320,note_on,0,0,0,,,,,,,,0,,,78,39
22320,note_on,0,0,0,,,,,,,,0,,,81,44
22340,control_change,20,0,0,,,,,,,,0,64,0,,
22398,control_change,58,0,0,,,,,,,,0,64,127,,
22438,note_on,40,0,0,,,,,,,,0,,,81,0
22438,note_on,0,0,0,,,,,,,,0,,,78,0
22440,set_tempo,2,1,0,,,,,,685323,,,,,,
22440,note_on,0,0,0,,,,,,,,0,,,80,39
22440,note_on,0,0,0,,,,,,,,0,,,76,35
22553,control_change,113,0,0,,,,,,,,0,64,0,,
22558,note_on,5,0,0,,,,,,,,0,,,76,0
22558,note_on,0,0,0,,,,,,,,0,,,80,0
22560,set_tempo,2,1,0,,,,,,653880,,,,,,
22560,note_on,0,0,0,,,,,,,,0,,,78,41
22560,note_on,0,0,0,,,,,,,,0,,,71,36
22560,note_on,0,0,0,,,,,,,,0,,,69,36
22560,note_on,0,0,0,,,,,,,,0,,,63,36
22610,control_change,50,0,0,,,,,,,,0,64,127,,
22680,note_on,70,0,0,,,,,,,,0,,,59,33
22790,note_on,110,0,0,,,,,,,,0,,,63,0
22790,note_on,0,0,0,,,,,,,,0,,,69,0
22790,note_on,0,0,0,,,,,,,,0,,,78,0
22790,note_on,0,0,0,,,,,,,,0,,,71,0
22798,note_on,8,0,0,,,,,,,,0,,,59,0
22800,set_tempo,2,1,0,,,,,,685244,,,,,,
22800,note_on,0,0,0,,,,,,,,0,,,76,40
22800,note_on,0,0,0,,,,,,,,0,,,80,45
22814,control_change,14,0,0,,,,,,,,0,64,0,,
22918,note_on,104,0,0,,,,,,,,0,,,80,0
22918,note_on,0,0,0,,,,,,,,0,,,76,0
22920,set_tempo,2,1,0,,,,,,715222,,,,,,
22920,note_on,0,0,0,,,,,,,,0,,,78,37
22920,note_on,0,0,0,,,,,,,,0,,,71,34
23038,note_on,118,0,0,,,,,,,,0,,,71,0
23038,note_on,0,0,0,,,,,,,,0,,,78,0
23040,set_tempo,2,1,0,,,,,,743126,,,,,,
23040,note_on,0,0,0,,,,,,,,0,,,68,35
23040,note_on,0,0,0,,,,,,,,0,,,76,39
23040,note_on,0,0,0,,,,,,,,0,,,52,39
23093,control_change,53,0,0,,,,,,,,0,64,127,,
23158,note_on,65,0,0,,,,,,,,0,,,52,0
23160,set_tempo,2,1,0,,,,,,693481,,,,,,
23160,note_on,0,0,0,,,,,,,,0,,,59,32
23278,note_on,118,0,0,,,,,,,,0,,,59,0
23280,set_tempo,2,1,0,,,,,,710732,,,,,,
23280,note_on,0,0,0,,,,,,,,0,,,68,34
23398,note_on,118,0,0,,,,,,,,0,,,68,0
23400,note_on,2,0,0,,,,,,,,0,,,64,32
23480,set_tempo,80,1,0,,,,,,680735,,,,,,
23518,note_on,38,0,0,,,,,,,,0,,,64,0
23520,set_tempo,2,1,0,,,,,,747943,,,,,,
23520,note_on,0,0,0,,,,,,,,0,,,76,0
23520,note_on,0,0,0,,,,,,,,0,,,68,0
23520,note_on,0,0,0,,,,,,,,0,,,71,39
23750,note_on,230,0,0,,,,,,,,0,,,71,0
23760,set_tempo,10,1,0,,,,,,650195,,,,,,
23760,note_on,0,0,0,,,,,,,,0,,,56,60
23760,note_on,0,0,0,,,,,,,,0,,,64,66
23760,control_change,0,0,0,,,,,,,,0,64,0,,
23818,note_on,58,0,0,,,,,,,,0,,,64,0
23818,note_on,0,0,0,,,,,,,,0,,,56,0
23880,set_tempo,62,1,0,,,,,,693481,,,,,,
23880,note_on,0,0,0,,,,,,,,0,,,64,55
23880,note_on,0,0,0,,,,,,,,0,,,68,63
23938,note_on,58,0,0,,,,,,,,0,,,68,0
23938,note_on,0,0,0,,,,,,,,0,,,64,0
24000,set_tempo,62,1,0,,,,,,677124,,,,,,
24000,note_on,0,0,0,,,,,,,,0,,,59,65
24000,note_on,0,0,0,,,,,,,,0,,,66,73
24220,note_on,220,0,0,,,,,,,,0,,,66,0
24220,note_on,0,0,0,,,,,,,,0,,,59,0
24240,set_tempo,20,1,0,,,,,,628733,,,,,,
24240,note_on,0,0,0,,,,,,,,0,,,64,60
24240,note_on,0,0,0,,,,,,,,0,,,68,66
24298,note_on,58,0,0,,,,,,,,0,,,68,0
24298,note_on,0,0,0,,,,,,,,0,,,64,0
24360,set_tempo,62,1,0,,,,,,650195,,,,,,
24360,note_on,0,0,0,,,,,,,,0,,,66,57
24360,note_on,0,0,0,,,,,,,,0,,,69,64
24418,note_on,58,0,0,,,,,,,,0,,,69,0
24418,note_on,0,0,0,,,,,,,,0,,,66,0
24480,set_tempo,62,1,0,,,,,,669195,,,,,,
24480,note_on,0,0,0,,,,,,,,0,,,71,72
24480,note_on,0,0,0,,,,,,,,0,,,68,63
24700,note_on,220,0,0,,,,,,,,0,,,68,0
24700,note_on,0,0,0,,,,,,,,0,,,71,0
24720,set_tempo,20,1,0,,,,,,618557,,,,,,
24720,note_on,0,0,0,,,,,,,,0,,,69,62
24720,note_on,0,0,0,,,,,,,,0,,,73,69
24778,note_on,58,0,0,,,,,,,,0,,,73,0
24778,note_on,0,0,0,,,,,,,,0,,,69,0
24840,set_tempo,62,1,0,,,,,,650195,,,,,,
24840,note_on,0,0,0,,,,,,,,0,,,71,64
24840,note_on,0,0,0,,,,,,,,0,,,68,57
24898,note_on,58,0,0,,,,,,,,0,,,68,0
24898,note_on,0,0,0,,,,,,,,0,,,71,0
24960,set_tempo,62,1,0,,,,,,681122,,,,,,
24960,note_on,0,0,0,,,,,,,,0,,,69,74
24960,note_on,0,0,0,,,,,,,,0,,,66,66
25180,note_on,220,0,0,,,,,,,,0,,,66,0
25180,note_on,0,0,0,,,,,,,,0,,,69,0
25200,set_tempo,20,1,0,,,,,,611933,,,,,,
25200,note_on,0,0,0,,,,,,,,0,,,64,61
25200,note_on,0,0,0,,,,,,,,0,,,68,67
25258,note_on,58,0,0,,,,,,,,0,,,68,0
25258,note_on,0,0,0,,,,,,,,0,,,64,0
25320,set_tempo,62,1,0,,,,,,650195,,,,,,
25320,note_on,0,0,0,,,,,,,,0,,,69,64
25320,note_on,0,0,0,,,,,,,,0,,,66,57
25378,note_on,58,0,0,,,,,,,,0,,,66,0
25378,note_on,0,0,0,,,,,,,,0,,,69,0
25440,set_tempo,62,1,0,,,,,,681122,,,,,,
25440,note_on,0,0,0,,,,,,,,0,,,59,66
25440,note_on,0,0,0,,,,,,,,0,,,66,74
25660,set_tempo,220,1,0,,,,,,639318,,,,,,
25660,note_on,0,0,0,,,,,,,,0,,,66,0
25660,note_on,0,0,0,,,,,,,,0,,,59,0
25680,set_tempo,20,1,0,,,,,,653880,,,,,,
25680,note_on,0,0,0,,,,,,,,0,,,56,60
25680,note_on,0,0,0,,,,,,,,0,,,64,66
25738,note_on,58,0,0,,,,,,,,0,,,64,0
25738,note_on,0,0,0,,,,,,,,0,,,56,0
25800,set_tempo,62,1,0,,,,,,677124,,,,,,
25800,note_on,0,0,0,,,,,,,,0,,,64,56
25800,note_on,0,0,0,,,,,,,,0,,,68,63
25858,note_on,58,0,0,,,,,,,,0,,,68,0
25858,note_on,0,0,0,,,,,,,,0,,,64,0
25920,set_tempo,62,1,0,,,,,,689338,,,,,,
25920,note_on,0,0,0,,,,,,,,0,,,59,65
25920,note_on,0,0,0,,,,,,,,0,,,66,73
26140,note_on,220,0,0,,,,,,,,0,,,66,0
26140,note_on,0,0,0,,,,,,,,0,,,59,0
26160,set_tempo,20,1,0,,,,,,611933,,,,,,
26160,note_on,0,0,0,,,,,,,,0,,,64,60
26160,note_on,0,0,0,,,,,,,,0,,,68,66
26218,note_on,58,0,0,,,,,,,,0,,,68,0
26218,note_on,0,0,0,,,,,,,,0,,,64,0
26280,set_tempo,62,1,0,,,,,,669195,,,,,,
26280,note_on,0,0,0,,,,,,,,0,,,69,63
26280,note_on,0,0,0,,,,,,,,0,,,66,56
26338,note_on,58,0,0,,,,,,,,0,,,66,0
26338,note_on,0,0,0,,,,,,,,0,,,69,0
26400,set_tempo,62,1,0,,,,,,657606,,,,,,
26400,note_on,0,0,0,,,,,,,,0,,,68,63
26400,note_on,0,0,0,,,,,,,,0,,,71,72
26620,note_on,220,0,0,,,,,,,,0,,,71,0
26620,note_on,0,0,0,,,,,,,,0,,,68,0
26640,set_tempo,20,1,0,,,,,,639318,,,,,,
26640,note_on,0,0,0,,,,,,,,0,,,73,72
26640,note_on,0,0,0,,,,,,,,0,,,69,63
26698,note_on,58,0,0,,,,,,,,0,,,69,0
26698,note_on,0,0,0,,,,,,,,0,,,73,0
26760,set_tempo,62,1,0,,,,,,685244,,,,,,
26760,note_on,0,0,0,,,,,,,,0,,,71,69
26760,note_on,0,0,0,,,,,,,,0,,,68,62
26818,note_on,58,0,0,,,,,,,,0,,,68,0
26818,note_on,0,0,0,,,,,,,,0,,,71,0
26880,set_tempo,62,1,0,,,,,,829302,,,,,,
26880,note_on,0,0,0,,,,,,,,0,,,66,66
26880,note_on,0,0,0,,,,,,,,0,,,69,74
27100,note_on,220,0,0,,,,,,,,0,,,69,0
27100,note_on,0,0,0,,,,,,,,0,,,66,0
27120,set_tempo,20,1,0,,,,,,1021798,,,,,,
27120,note_on,0,0,0,,,,,,,,0,,,68,66
27120,note_on,0,0,0,,,,,,,,0,,,64,60
27178,note_on,58,0,0,,,,,,,,0,,,64,0
27178,note_on,0,0,0,,,,,,,,0,,,68,0
27240,set_tempo,62,1,0,,,,,,1133144,,,,,,
27240,note_on,0,0,0,,,,,,,,0,,,66,56
27240,note_on,0,0,0,,,,,,,,0,,,69,63
27298,note_on,58,0,0,,,,,,,,0,,,69,0
27298,note_on,0,0,0,,,,,,,,0,,,66,0
27360,set_tempo,62,1,0,,,,,,1816530,,,,,,
27360,note_on,0,0,0,,,,,,,,0,,,59,57
27360,note_on,0,0,0,,,,,,,,0,,,66,64
27540,note_on,180,0,0,,,,,,,,0,,,66,0
27540,note_on,0,0,0,,,,,,,,0,,,59,0
27600,set_tempo,60,1,0,,,,,,669195,,,,,,
27600,note_on,0,0,0,,,,,,,,0,,,92,37
27600,note_on,0,0,0,,,,,,,,0,,,95,43
27646,control_change,46,0,0,,,,,,,,0,64,127,,
27718,note_on,72,0,0,,,,,,,,0,,,95,0
27718,note_on,0,0,0,,,,,,,,0,,,92,0
27720,note_on,2,0,0,,,,,,,,0,,,93,41
27720,note_on,0,0,0,,,,,,,,0,,,90,36
27838,note_on,118,0,0,,,,,,,,0,,,90,0
27838,note_on,0,0,0,,,,,,,,0,,,93,0
27840,set_tempo,2,1,0,,,,,,689338,,,,,,
27840,note_on,0,0,0,,,,,,,,0,,,88,42
27840,note_on,0,0,0,,,,,,,,0,,,92,46
27840,control_change,0,0,0,,,,,,,,0,64,0,,
27840,note_on,0,0,0,,,,,,,,0,,,52,34
27840,note_on,0,0,0,,,,,,,,0,,,59,37
27897,control_change,57,0,0,,,,,,,,0,64,127,,
27958,note_on,61,0,0,,,,,,,,0,,,59,0
27960,note_on,2,0,0,,,,,,,,0,,,64,34
28070,note_on,110,0,0,,,,,,,,0,,,88,0
28070,note_on,0,0,0,,,,,,,,0,,,92,0
28078,note_on,8,0,0,,,,,,,,0,,,64,0
28080,set_tempo,2,1,0,,,,,,665336,,,,,,
28080,note_on,0,0,0,,,,,,,,0,,,92,37
28080,note_on,0,0,0,,,,,,,,0,,,88,34
28080,note_on,0,0,0,,,,,,,,0,,,71,32
28088,control_change,8,0,0,,,,,,,,0,64,0,,
28130,control_change,42,0,0,,,,,,,,0,64,127,,
28198,note_on,68,0,0,,,,,,,,0,,,88,0
28198,note_on,0,0,0,,,,,,,,0,,,92,0
28200,note_on,2,0,0,,,,,,,,0,,,83,31
28200,note_on,0,0,0,,,,,,,,0,,,90,35
28215,control_change,15,0,0,,,,,,,,0,64,0,,
28310,note_on,95,0,0,,,,,,,,0,,,71,0
28318,note_on,8,0,0,,,,,,,,0,,,90,0
28318,note_on,0,0,0,,,,,,,,0,,,83,0
28320,set_tempo,2,1,0,,,,,,685244,,,,,,
28320,note_on,0,0,0,,,,,,,,0,,,52,0
28320,note_on,0,0,0,,,,,,,,0,,,80,36
28320,note_on,0,0,0,,,,,,,,0,,,88,41
28320,note_on,0,0,0,,,,,,,,0,,,71,37
28320,note_on,0,0,0,,,,,,,,0,,,64,37
28363,control_change,43,0,0,,,,,,,,0,64,127,,
28438,note_on,75,0,0,,,,,,,,0,,,64,0
28440,note_on,2,0,0,,,,,,,,0,,,59,34
28550,note_on,110,0,0,,,,,,,,0,,,80,0
28550,note_on,0,0,0,,,,,,,,0,,,88,0
28558,note_on,8,0,0,,,,,,,,0,,,59,0
28560,set_tempo,2,1,0,,,,,,661521,,,,,,
28560,note_on,0,0,0,,,,,,,,0,,,83,42
28560,note_on,0,0,0,,,,,,,,0,,,80,36
28560,note_on,0,0,0,,,,,,,,0,,,52,35
28568,control_change,8,0,0,,,,,,,,0,64,0,,
28617,control_change,49,0,0,,,,,,,,0,64,127,,
28678,note_on,61,0,0,,,,,,,,0,,,80,0
28678,note_on,0,0,0,,,,,,,,0,,,83,0
28680,note_on,2,0,0,,,,,,,,0,,,78,34
28680,note_on,0,0,0,,,,,,,,0,,,81,37
28790,note_on,110,0,0,,,,,,,,0,,,52,0
28798,note_on,8,0,0,,,,,,,,0,,,81,0
28798,note_on,0,0,0,,,,,,,,0,,,78,0
28800,set_tempo,2,1,0,,,,,,685244,,,,,,
28800,note_on,0,0,0,,,,,,,,0,,,71,0
28800,note_on,0,0,0,,,,,,,,0,,,76,40
28800,note_on,0,0,0,,,,,,,,0,,,80,45
28800,note_on,0,0,0,,,,,,,,0,,,52,32
28800,note_on,0,0,0,,,,,,,,0,,,59,36
28808,control_change,8,0,0,,,,,,,,0,64,0,,
28839,control_change,31,0,0,,,,,,,,0,64,127,,
28918,note_on,79,0,0,,,,,,,,0,,,59,0
28920,note_on,2,0,0,,,,,,,,0,,,64,35
29030,note_on,110,0,0,,,,,,,,0,,,76,0
29030,note_on,0,0,0,,,,,,,,0,,,80,0
29038,note_on,8,0,0,,,,,,,,0,,,64,0
29040,set_tempo,2,1,0,,,,,,661521,,,,,,
29040,note_on,0,0,0,,,,,,,,0,,,80,37
29040,note_on,0,0,0,,,,,,,,0,,,76,34
29040,note_on,0,0,0,,,,,,,,0,,,71,35
29047,control_change,7,0,0,,,,,,,,0,64,0,,
29158,note_on,111,0,0,,,,,,,,0,,,76,0
29158,note_on,0,0,0,,,,,,,,0,,,80,0
29160,note_on,2,0,0,,,,,,,,0,,,71,32
29160,note_on,0,0,0,,,,,,,,0,,,78,36
29270,note_on,110,0,0,,,,,,,,0,,,71,0
29278,note_on,8,0,0,,,,,,,,0,,,78,0
29278,note_on,0,0,0,,,,,,,,0,,,71,0
29280,set_tempo,2,1,0,,,,,,681122,,,,,,
29280,note_on,0,0,0,,,,,,,,0,,,52,0
29280,note_on,0,0,0,,,,,,,,0,,,76,42
29280,note_on,0,0,0,,,,,,,,0,,,68,36
29280,note_on,0,0,0,,,,,,,,0,,,71,36
29280,note_on,0,0,0,,,,,,,,0,,,64,36
29312,control_change,32,0,0,,,,,,,,0,64,127,,
29398,note_on,86,0,0,,,,,,,,0,,,64,0
29400,note_on,2,0,0,,,,,,,,0,,,59,35
29510,note_on,110,0,0,,,,,,,,0,,,76,0
29510,note_on,0,0,0,,,,,,,,0,,,68,0
29518,note_on,8,0,0,,,,,,,,0,,,59,0
29520,set_tempo,2,1,0,,,,,,715222,,,,,,
29520,note_on,0,0,0,,,,,,,,0,,,64,42
29520,note_on,0,0,0,,,,,,,,0,,,56,36
29520,note_on,0,0,0,,,,,,,,0,,,52,35
29527,control_change,7,0,0,,,,,,,,0,64,0,,
29578,note_on,51,0,0,,,,,,,,0,,,56,0
29578,note_on,0,0,0,,,,,,,,0,,,64,0
29640,note_on,62,0,0,,,,,,,,0,,,59,33
29640,note_on,0,0,0,,,,,,,,0,,,66,36
29698,note_on,58,0,0,,,,,,,,0,,,66,0
29698,note_on,0,0,0,,,,,,,,0,,,59,0
29750,note_on,52,0,0,,,,,,,,0,,,52,0
29760,set_tempo,10,1,0,,,,,,752823,,,,,,
29760,note_on,0,0,0,,,,,,,,0,,,71,0
29760,note_on,0,0,0,,,,,,,,0,,,68,45
29760,note_on,0,0,0,,,,,,,,0,,,64,40
29990,note_on,230,0,0,,,,,,,,0,,,64,0
29990,note_on,0,0,0,,,,,,,,0,,,68,0
30000,set_tempo,10,1,0,,,,,,841515,,,,,,
30000,note_on,0,0,0,,,,,,,,0,,,66,36
30000,note_on,0,0,0,,,,,,,,0,,,69,42
30058,note_on,58,0,0,,,,,,,,0,,,69,0
30058,note_on,0,0,0,,,,,,,,0,,,66,0
30120,set_tempo,62,1,0,,,,,,841515,,,,,,
30120,note_on,0,0,0,,,,,,,,0,,,64,33
30120,note_on,0,0,0,,,,,,,,0,,,68,36
30178,note_on,58,0,0,,,,,,,,0,,,68,0
30178,note_on,0,0,0,,,,,,,,0,,,64,0
30220,set_tempo,42,1,0,,,,,,853971,,,,,,
30240,note_on,20,0,0,,,,,,,,0,,,59,33
30240,note_on,0,0,0,,,,,,,,0,,,66,36
30470,note_on,230,0,0,,,,,,,,0,,,66,0
30470,note_on,0,0,0,,,,,,,,0,,,59,0
30480,set_tempo,10,1,0,,,,,,1031105,,,,,,
30480,note_on,0,0,0,,,,,,,,0,,,64,36
30480,note_on,0,0,0,,,,,,,,0,,,68,41
30538,note_on,58,0,0,,,,,,,,0,,,68,0
30538,note_on,0,0,0,,,,,,,,0,,,64,0
30600,set_tempo,62,1,0,,,,,,1191895,,,,,,
30600,note_on,0,0,0,,,,,,,,0,,,59,31
30600,note_on,0,0,0,,,,,,,,0,,,66,35
30658,note_on,58,0,0,,,,,,,,0,,,66,0
30658,note_on,0,0,0,,,,,,,,0,,,59,0
30700,set_tempo,42,1,0,,,,,,1049869,,,,,,
30720,note_on,20,0,0,,,,,,,,0,,,64,36
30720,note_on,0,0,0,,,,,,,,0,,,56,32
31200,set_tempo,480,1,0,,,,,,639318,,,,,,
31200,note_on,0,0,0,,,,,,,,0,,,56,0
31200,note_on,0,0,0,,,,,,,,0,,,64,0
31440,set_tempo,240,1,0,,,,,,847697,,,,,,
31440,note_on,0,0,0,,,,,,,,0,,,59,59
31440,note_on,0,0,0,,,,,,,,0,,,71,66
31558,note_on,118,0,0,,,,,,,,0,,,71,0
31558,note_on,0,0,0,,,,,,,,0,,,59,0
31680,key_signature,122,1,0,,,,,G,,,,,,,
31680,set_tempo,0,1,0,,,,,,738280,,,,,,
31680,note_on,0,0,0,,,,,,,,0,,,59,66
31680,note_on,0,0,0,,,,,,,,0,,,64,66
31680,note_on,0,0,0,,,,,,,,0,,,67,66
31680,note_on,0,0,0,,,,,,,,0,,,71,73
31680,note_on,0,0,0,,,,,,,,0,,,40,59
31680,note_on,0,0,0,,,,,,,,0,,,47,66
31860,note_on,180,0,0,,,,,,,,0,,,47,0
31860,note_on,0,0,0,,,,,,,,0,,,40,0
31920,set_tempo,60,1,0,,,,,,635728,,,,,,
31920,note_on,0,0,0,,,,,,,,0,,,67,0
31920,note_on,0,0,0,,,,,,,,0,,,59,0
31920,note_on,0,0,0,,,,,,,,0,,,64,0
31920,note_on,0,0,0,,,,,,,,0,,,71,0
31920,note_on,0,0,0,,,,,,,,0,,,57,66
32010,note_on,90,0,0,,,,,,,,0,,,57,0
32040,set_tempo,30,1,0,,,,,,778513,,,,,,
32040,note_on,0,0,0,,,,,,,,0,,,55,63
32098,note_on,58,0,0,,,,,,,,0,,,55,0
32160,set_tempo,62,1,0,,,,,,710732,,,,,,
32160,note_on,0,0,0,,,,,,,,0,,,57,66
32160,note_on,0,0,0,,,,,,,,0,,,66,66
32160,note_on,0,0,0,,,,,,,,0,,,69,73
32160,note_on,0,0,0,,,,,,,,0,,,39,55
32160,note_on,0,0,0,,,,,,,,0,,,47,62
32340,note_on,180,0,0,,,,,,,,0,,,47,0
32340,note_on,0,0,0,,,,,,,,0,,,39,0
32400,set_tempo,60,1,0,,,,,,639318,,,,,,
32400,note_on,0,0,0,,,,,,,,0,,,57,0
32400,note_on,0,0,0,,,,,,,,0,,,66,0
32400,note_on,0,0,0,,,,,,,,0,,,69,0
32400,note_on,0,0,0,,,,,,,,0,,,55,66
32490,note_on,90,0,0,,,,,,,,0,,,55,0
32520,set_tempo,30,1,0,,,,,,757863,,,,,,
32520,note_on,0,0,0,,,,,,,,0,,,54,62
32578,note_on,58,0,0,,,,,,,,0,,,54,0
32640,set_tempo,62,1,0,,,,,,710732,,,,,,
32640,note_on,0,0,0,,,,,,,,0,,,55,66
32640,note_on,0,0,0,,,,,,,,0,,,64,66
32640,note_on,0,0,0,,,,,,,,0,,,67,73
32640,note_on,0,0,0,,,,,,,,0,,,40,59
32640,note_on,0,0,0,,,,,,,,0,,,47,66
32820,note_on,180,0,0,,,,,,,,0,,,47,0
32820,note_on,0,0,0,,,,,,,,0,,,40,0
32880,set_tempo,60,1,0,,,,,,642880,,,,,,
32880,note_on,0,0,0,,,,,,,,0,,,55,0
32880,note_on,0,0,0,,,,,,,,0,,,64,0
32880,note_on,0,0,0,,,,,,,,0,,,67,0
32880,note_on,0,0,0,,,,,,,,0,,,54,66
32970,note_on,90,0,0,,,,,,,,0,,,54,0
33000,set_tempo,30,1,0,,,,,,747943,,,,,,
33000,note_on,0,0,0,,,,,,,,0,,,52,63
33058,note_on,58,0,0,,,,,,,,0,,,52,0
33120,set_tempo,62,1,0,,,,,,710732,,,,,,
33120,note_on,0,0,0,,,,,,,,0,,,55,70
33120,note_on,0,0,0,,,,,,,,0,,,64,70
33120,note_on,0,0,0,,,,,,,,0,,,67,79
33120,note_on,0,0,0,,,,,,,,0,,,36,54
33120,note_on,0,0,0,,,,,,,,0,,,48,61
33300,note_on,180,0,0,,,,,,,,0,,,48,0
33300,note_on,0,0,0,,,,,,,,0,,,36,0
33360,set_tempo,60,1,0,,,,,,653880,,,,,,
33360,note_on,0,0,0,,,,,,,,0,,,55,0
33360,note_on,0,0,0,,,,,,,,0,,,64,0
33360,note_on,0,0,0,,,,,,,,0,,,67,0
33360,note_on,0,0,0,,,,,,,,0,,,54,66
33450,note_on,90,0,0,,,,,,,,0,,,54,0
33480,set_tempo,30,1,0,,,,,,767951,,,,,,
33480,note_on,0,0,0,,,,,,,,0,,,52,62
33538,note_on,58,0,0,,,,,,,,0,,,52,0
33600,set_tempo,62,1,0,,,,,,710732,,,,,,
33600,note_on,0,0,0,,,,,,,,0,,,55,67
33600,note_on,0,0,0,,,,,,,,0,,,59,67
33600,note_on,0,0,0,,,,,,,,0,,,67,75
33600,note_on,0,0,0,,,,,,,,0,,,64,67
33600,note_on,0,0,0,,,,,,,,0,,,35,57
33600,note_on,0,0,0,,,,,,,,0,,,47,64
33780,note_on,180,0,0,,,,,,,,0,,,47,0
33780,note_on,0,0,0,,,,,,,,0,,,35,0
33840,set_tempo,60,1,0,,,,,,665336,,,,,,
33840,note_on,0,0,0,,,,,,,,0,,,67,0
33840,note_on,0,0,0,,,,,,,,0,,,55,0
33840,note_on,0,0,0,,,,,,,,0,,,59,0
33840,note_on,0,0,0,,,,,,,,0,,,64,0
33840,note_on,0,0,0,,,,,,,,0,,,54,66
33930,note_on,90,0,0,,,,,,,,0,,,54,0
33960,set_tempo,30,1,0,,,,,,762873,,,,,,
33960,note_on,0,0,0,,,,,,,,0,,,52,62
34018,note_on,58,0,0,,,,,,,,0,,,52,0
34080,set_tempo,62,1,0,,,,,,710732,,,,,,
34080,note_on,0,0,0,,,,,,,,0,,,52,65
34080,note_on,0,0,0,,,,,,,,0,,,55,65
34080,note_on,0,0,0,,,,,,,,0,,,61,65
34080,note_on,0,0,0,,,,,,,,0,,,64,72
34080,note_on,0,0,0,,,,,,,,0,,,34,54
34080,note_on,0,0,0,,,,,,,,0,,,46,61
34260,note_on,180,0,0,,,,,,,,0,,,46,0
34260,note_on,0,0,0,,,,,,,,0,,,34,0
34320,set_tempo,60,1,0,,,,,,738280,,,,,,
34320,note_on,0,0,0,,,,,,,,0,,,61,0
34320,note_on,0,0,0,,,,,,,,0,,,52,0
34320,note_on,0,0,0,,,,,,,,0,,,55,0
34320,note_on,0,0,0,,,,,,,,0,,,64,0
34320,note_on,0,0,0,,,,,,,,0,,,51,66
34410,note_on,90,0,0,,,,,,,,0,,,51,0
34440,set_tempo,30,1,0,,,,,,841515,,,,,,
34440,note_on,0,0,0,,,,,,,,0,,,52,62
34530,note_on,90,0,0,,,,,,,,0,,,52,0
34560,set_tempo,30,1,0,,,,,,800213,,,,,,
34560,note_on,0,0,0,,,,,,,,0,,,67,79
34560,note_on,0,0,0,,,,,,,,0,,,64,70
34560,note_on,0,0,0,,,,,,,,0,,,59,70
34560,note_on,0,0,0,,,,,,,,0,,,55,70
34560,note_on,0,0,0,,,,,,,,0,,,35,61
34560,note_on,0,0,0,,,,,,,,0,,,47,69
35040,note_on,480,0,0,,,,,,,,0,,,47,0
35040,note_on,0,0,0,,,,,,,,0,,,64,0
35040,note_on,0,0,0,,,,,,,,0,,,59,0
35040,note_on,0,0,0,,,,,,,,0,,,67,0
35040,note_on,0,0,0,,,,,,,,0,,,35,0
35040,note_on,0,0,0,,,,,,,,0,,,55,0
35040,note_on,0,0,0,,,,,,,,0,,,54,65
35040,note_on,0,0,0,,,,,,,,0,,,63,65
35040,note_on,0,0,0,,,,,,,,0,,,66,72
35040,note_on,0,0,0,,,,,,,,0,,,35,57
35040,note_on,0,0,0,,,,,,,,0,,,47,65
35280,set_tempo,240,1,0,,,,,,767951,,,,,,
35280,note_on,0,0,0,,,,,,,,0,,,47,0
35280,note_on,0,0,0,,,,,,,,0,,,66,0
35280,note_on,0,0,0,,,,,,,,0,,,54,0
35280,note_on,0,0,0,,,,,,,,0,,,63,0
35280,note_on,0,0,0,,,,,,,,0,,,35,0
35280,note_on,0,0,0,,,,,,,,0,,,50,72
35280,note_on,0,0,0,,,,,,,,0,,,62,72
35398,note_on,118,0,0,,,,,,,,0,,,62,0
35398,note_on,0,0,0,,,,,,,,0,,,50,0
35520,set_tempo,122,1,0,,,,,,738280,,,,,,
35520,note_on,0,0,0,,,,,,,,0,,,55,76
35520,note_on,0,0,0,,,,,,,,0,,,59,76
35520,note_on,0,0,0,,,,,,,,0,,,62,76
35520,note_on,0,0,0,,,,,,,,0,,,67,84
35520,note_on,0,0,0,,,,,,,,0,,,31,66
35520,note_on,0,0,0,,,,,,,,0,,,43,73
35700,note_on,180,0,0,,,,,,,,0,,,43,0
35700,note_on,0,0,0,,,,,,,,0,,,31,0
35760,set_tempo,60,1,0,,,,,,650195,,,,,,
35760,note_on,0,0,0,,,,,,,,0,,,62,0
35760,note_on,0,0,0,,,,,,,,0,,,55,0
35760,note_on,0,0,0,,,,,,,,0,,,59,0
35760,note_on,0,0,0,,,,,,,,0,,,67,0
35760,note_on,0,0,0,,,,,,,,0,,,54,66
35818,note_on,58,0,0,,,,,,,,0,,,54,0
35880,set_tempo,62,1,0,,,,,,778513,,,,,,
35880,note_on,0,0,0,,,,,,,,0,,,55,61
35938,note_on,58,0,0,,,,,,,,0,,,55,0
36000,set_tempo,62,1,0,,,,,,710732,,,,,,
36000,note_on,0,0,0,,,,,,,,0,,,62,72
36000,note_on,0,0,0,,,,,,,,0,,,57,72
36000,note_on,0,0,0,,,,,,,,0,,,66,72
36000,note_on,0,0,0,,,,,,,,0,,,69,81
36000,note_on,0,0,0,,,,,,,,0,,,38,59
36000,note_on,0,0,0,,,,,,,,0,,,50,66
36180,note_on,180,0,0,,,,,,,,0,,,50,0
36180,note_on,0,0,0,,,,,,,,0,,,38,0
36240,set_tempo,60,1,0,,,,,,661521,,,,,,
36240,note_on,0,0,0,,,,,,,,0,,,66,0
36240,note_on,0,0,0,,,,,,,,0,,,62,0
36240,note_on,0,0,0,,,,,,,,0,,,57,0
36240,note_on,0,0,0,,,,,,,,0,,,69,0
36240,note_on,0,0,0,,,,,,,,0,,,55,66
36298,note_on,58,0,0,,,,,,,,0,,,55,0
36360,set_tempo,62,1,0,,,,,,757863,,,,,,
36360,note_on,0,0,0,,,,,,,,0,,,57,61
36418,note_on,58,0,0,,,,,,,,0,,,57,0
36480,set_tempo,62,1,0,,,,,,710732,,,,,,
36480,note_on,0,0,0,,,,,,,,0,,,67,66
36480,note_on,0,0,0,,,,,,,,0,,,59,66
36480,note_on,0,0,0,,,,,,,,0,,,62,66
36480,note_on,0,0,0,,,,,,,,0,,,71,73
36480,note_on,0,0,0,,,,,,,,0,,,43,59
36480,note_on,0,0,0,,,,,,,,0,,,55,66
36660,note_on,180,0,0,,,,,,,,0,,,55,0
36660,note_on,0,0,0,,,,,,,,0,,,43,0
36720,set_tempo,60,1,0,,,,,,677124,,,,,,
36720,note_on,0,0,0,,,,,,,,0,,,62,0
36720,note_on,0,0,0,,,,,,,,0,,,67,0
36720,note_on,0,0,0,,,,,,,,0,,,59,0
36720,note_on,0,0,0,,,,,,,,0,,,71,0
36720,note_on,0,0,0,,,,,,,,0,,,57,66
36778,note_on,58,0,0,,,,,,,,0,,,57,0
36840,set_tempo,62,1,0,,,,,,789266,,,,,,
36840,note_on,0,0,0,,,,,,,,0,,,59,62
36898,note_on,58,0,0,,,,,,,,0,,,59,0
36960,set_tempo,62,1,0,,,,,,706381,,,,,,
36960,note_on,0,0,0,,,,,,,,0,,,67,75
36960,note_on,0,0,0,,,,,,,,0,,,60,75
36960,note_on,0,0,0,,,,,,,,0,,,64,75
36960,note_on,0,0,0,,,,,,,,0,,,72,83
36960,note_on,0,0,0,,,,,,,,0,,,36,55
36960,note_on,0,0,0,,,,,,,,0,,,48,62
37140,note_on,180,0,0,,,,,,,,0,,,48,0
37140,note_on,0,0,0,,,,,,,,0,,,36,0
37200,set_tempo,60,1,0,,,,,,661521,,,,,,
37200,note_on,0,0,0,,,,,,,,0,,,64,0
37200,note_on,0,0,0,,,,,,,,0,,,67,0
37200,note_on,0,0,0,,,,,,,,0,,,60,0
37200,note_on,0,0,0,,,,,,,,0,,,72,0
37200,note_on,0,0,0,,,,,,,,0,,,62,66
37258,note_on,58,0,0,,,,,,,,0,,,62,0
37320,set_tempo,62,1,0,,,,,,697756,,,,,,
37320,note_on,0,0,0,,,,,,,,0,,,64,62
37378,note_on,58,0,0,,,,,,,,0,,,64,0
37440,set_tempo,62,1,0,,,,,,685244,,,,,,
37440,note_on,0,0,0,,,,,,,,0,,,55,69
37440,note_on,0,0,0,,,,,,,,0,,,59,69
37440,note_on,0,0,0,,,,,,,,0,,,71,77
37440,note_on,0,0,0,,,,,,,,0,,,62,69
37440,note_on,0,0,0,,,,,,,,0,,,38,57
37440,note_on,0,0,0,,,,,,,,0,,,50,64
37620,note_on,180,0,0,,,,,,,,0,,,50,0
37620,note_on,0,0,0,,,,,,,,0,,,38,0
37680,set_tempo,60,1,0,,,,,,653880,,,,,,
37680,note_on,0,0,0,,,,,,,,0,,,71,0
37680,note_on,0,0,0,,,,,,,,0,,,55,0
37680,note_on,0,0,0,,,,,,,,0,,,59,0
37680,note_on,0,0,0,,,,,,,,0,,,62,0
37680,note_on,0,0,0,,,,,,,,0,,,57,66
37738,note_on,58,0,0,,,,,,,,0,,,57,0
37800,set_tempo,62,1,0,,,,,,738280,,,,,,
37800,note_on,0,0,0,,,,,,,,0,,,59,62
37858,note_on,58,0,0,,,,,,,,0,,,59,0
37920,set_tempo,62,1,0,,,,,,710732,,,,,,
37920,note_on,0,0,0,,,,,,,,0,,,57,67
37920,note_on,0,0,0,,,,,,,,0,,,60,67
37920,note_on,0,0,0,,,,,,,,0,,,66,67
37920,note_on,0,0,0,,,,,,,,0,,,69,76
37920,note_on,0,0,0,,,,,,,,0,,,38,54
37920,note_on,0,0,0,,,,,,,,0,,,50,61
38100,note_on,180,0,0,,,,,,,,0,,,50,0
38100,note_on,0,0,0,,,,,,,,0,,,38,0
38160,set_tempo,60,1,0,,,,,,894055,,,,,,
38160,note_on,0,0,0,,,,,,,,0,,,66,0
38160,note_on,0,0,0,,,,,,,,0,,,57,0
38160,note_on,0,0,0,,,,,,,,0,,,60,0
38160,note_on,0,0,0,,,,,,,,0,,,69,0
38160,note_on,0,0,0,,,,,,,,0,,,59,66
38218,note_on,58,0,0,,,,,,,,0,,,59,0
38280,set_tempo,62,1,0,,,,,,1111111,,,,,,
38280,note_on,0,0,0,,,,,,,,0,,,54,61
38338,note_on,58,0,0,,,,,,,,0,,,54,0
38400,set_tempo,62,1,0,,,,,,778513,,,,,,
38400,note_on,0,0,0,,,,,,,,0,,,67,82
38400,note_on,0,0,0,,,,,,,,0,,,62,73
38400,note_on,0,0,0,,,,,,,,0,,,59,73
38400,note_on,0,0,0,,,,,,,,0,,,55,73
38400,note_on,0,0,0,,,,,,,,0,,,31,65
38400,note_on,0,0,0,,,,,,,,0,,,43,72
38880,note_on,480,0,0,,,,,,,,0,,,43,0
38880,note_on,0,0,0,,,,,,,,0,,,62,0
38880,note_on,0,0,0,,,,,,,,0,,,59,0
38880,note_on,0,0,0,,,,,,,,0,,,67,0
38880,note_on,0,0,0,,,,,,,,0,,,31,0
38880,note_on,0,0,0,,,,,,,,0,,,55,0
39120,set_tempo,240,1,0,,,,,,767951,,,,,,
39120,note_on,0,0,0,,,,,,,,0,,,59,62
39120,note_on,0,0,0,,,,,,,,0,,,71,70
39238,note_on,118,0,0,,,,,,,,0,,,71,0
39238,note_on,0,0,0,,,,,,,,0,,,59,0
39360,set_tempo,122,1,0,,,,,,724200,,,,,,
39360,note_on,0,0,0,,,,,,,,0,,,57,67
39360,note_on,0,0,0,,,,,,,,0,,,66,67
39360,note_on,0,0,0,,,,,,,,0,,,69,76
39360,note_on,0,0,0,,,,,,,,0,,,51,66
39360,note_on,0,0,0,,,,,,,,0,,,39,59
39360,note_on,0,0,0,,,,,,,,0,,,47,59
39540,note_on,180,0,0,,,,,,,,0,,,47,0
39540,note_on,0,0,0,,,,,,,,0,,,51,0
39540,note_on,0,0,0,,,,,,,,0,,,39,0
39600,set_tempo,60,1,0,,,,,,650195,,,,,,
39600,note_on,0,0,0,,,,,,,,0,,,57,0
39600,note_on,0,0,0,,,,,,,,0,,,69,0
39600,note_on,0,0,0,,,,,,,,0,,,66,0
39600,note_on,0,0,0,,,,,,,,0,,,55,63
39658,note_on,58,0,0,,,,,,,,0,,,55,0
39720,set_tempo,62,1,0,,,,,,752823,,,,,,
39720,note_on,0,0,0,,,,,,,,0,,,54,61
39778,note_on,58,0,0,,,,,,,,0,,,54,0
39840,set_tempo,62,1,0,,,,,,715222,,,,,,
39840,note_on,0,0,0,,,,,,,,0,,,64,63
39840,note_on,0,0,0,,,,,,,,0,,,55,63
39840,note_on,0,0,0,,,,,,,,0,,,67,71
39840,note_on,0,0,0,,,,,,,,0,,,47,54
39840,note_on,0,0,0,,,,,,,,0,,,40,54
39840,note_on,0,0,0,,,,,,,,0,,,52,60
40020,note_on,180,0,0,,,,,,,,0,,,52,0
40020,note_on,0,0,0,,,,,,,,0,,,47,0
40020,note_on,0,0,0,,,,,,,,0,,,40,0
40080,set_tempo,60,1,0,,,,,,657606,,,,,,
40080,note_on,0,0,0,,,,,,,,0,,,64,0
40080,note_on,0,0,0,,,,,,,,0,,,67,0
40080,note_on,0,0,0,,,,,,,,0,,,55,0
40080,note_on,0,0,0,,,,,,,,0,,,54,64
40138,note_on,58,0,0,,,,,,,,0,,,54,0
40200,set_tempo,62,1,0,,,,,,733496,,,,,,
40200,note_on,0,0,0,,,,,,,,0,,,52,61
40258,note_on,58,0,0,,,,,,,,0,,,52,0
40320,set_tempo,62,1,0,,,,,,706381,,,,,,
40320,note_on,0,0,0,,,,,,,,0,,,63,72
40320,note_on,0,0,0,,,,,,,,0,,,51,64
40320,note_on,0,0,0,,,,,,,,0,,,59,64
40320,note_on,0,0,0,,,,,,,,0,,,42,54
40320,note_on,0,0,0,,,,,,,,0,,,35,54
40320,note_on,0,0,0,,,,,,,,0,,,47,60
40500,note_on,180,0,0,,,,,,,,0,,,47,0
40500,note_on,0,0,0,,,,,,,,0,,,42,0
40500,note_on,0,0,0,,,,,,,,0,,,35,0
40560,set_tempo,60,1,0,,,,,,544910,,,,,,
40560,note_on,0,0,0,,,,,,,,0,,,63,0
40560,note_on,0,0,0,,,,,,,,0,,,59,0
40560,note_on,0,0,0,,,,,,,,0,,,51,0
40560,note_on,0,0,0,,,,,,,,0,,,47,61
40560,note_on,0,0,0,,,,,,,,0,,,59,69
40650,note_on,90,0,0,,,,,,,,0,,,59,0
40650,note_on,0,0,0,,,,,,,,0,,,47,0
40680,set_tempo,30,1,0,,,,,,602289,,,,,,
40680,note_on,0,0,0,,,,,,,,0,,,48,57
40680,note_on,0,0,0,,,,,,,,0,,,60,65
40770,note_on,90,0,0,,,,,,,,0,,,60,0
40770,note_on,0,0,0,,,,,,,,0,,,48,0
40800,set_tempo,30,1,0,,,,,,685244,,,,,,
40800,note_on,0,0,0,,,,,,,,0,,,47,67
40800,note_on,0,0,0,,,,,,,,0,,,59,76
40918,note_on,118,0,0,,,,,,,,0,,,59,0
40918,note_on,0,0,0,,,,,,,,0,,,47,0
41040,set_tempo,122,1,0,,,,,,743126,,,,,,
41040,note_on,0,0,0,,,,,,,,0,,,59,63
41040,note_on,0,0,0,,,,,,,,0,,,71,71
41158,note_on,118,0,0,,,,,,,,0,,,71,0
41158,note_on,0,0,0,,,,,,,,0,,,59,0
41280,set_tempo,122,1,0,,,,,,715222,,,,,,
41280,note_on,0,0,0,,,,,,,,0,,,57,66
41280,note_on,0,0,0,,,,,,,,0,,,66,66
41280,note_on,0,0,0,,,,,,,,0,,,69,73
41280,note_on,0,0,0,,,,,,,,0,,,51,67
41280,note_on,0,0,0,,,,,,,,0,,,39,60
41280,note_on,0,0,0,,,,,,,,0,,,47,60
41460,note_on,180,0,0,,,,,,,,0,,,47,0
41460,note_on,0,0,0,,,,,,,,0,,,51,0
41460,note_on,0,0,0,,,,,,,,0,,,39,0
41520,set_tempo,60,1,0,,,,,,650195,,,,,,
41520,note_on,0,0,0,,,,,,,,0,,,57,0
41520,note_on,0,0,0,,,,,,,,0,,,69,0
41520,note_on,0,0,0,,,,,,,,0,,,66,0
41520,note_on,0,0,0,,,,,,,,0,,,55,62
41578,note_on,58,0,0,,,,,,,,0,,,55,0
41640,set_tempo,62,1,0,,,,,,752823,,,,,,
41640,note_on,0,0,0,,,,,,,,0,,,54,59
41698,note_on,58,0,0,,,,,,,,0,,,54,0
41760,set_tempo,62,1,0,,,,,,728863,,,,,,
41760,note_on,0,0,0,,,,,,,,0,,,64,63
41760,note_on,0,0,0,,,,,,,,0,,,55,63
41760,note_on,0,0,0,,,,,,,,0,,,67,71
41760,note_on,0,0,0,,,,,,,,0,,,47,54
41760,note_on,0,0,0,,,,,,,,0,,,40,54
41760,note_on,0,0,0,,,,,,,,0,,,52,60
41940,note_on,180,0,0,,,,,,,,0,,,52,0
41940,note_on,0,0,0,,,,,,,,0,,,47,0
41940,note_on,0,0,0,,,,,,,,0,,,40,0
42000,set_tempo,60,1,0,,,,,,639318,,,,,,
42000,note_on,0,0,0,,,,,,,,0,,,64,0
42000,note_on,0,0,0,,,,,,,,0,,,67,0
42000,note_on,0,0,0,,,,,,,,0,,,55,0
42000,note_on,0,0,0,,,,,,,,0,,,54,63
42058,note_on,58,0,0,,,,,,,,0,,,54,0
42120,set_tempo,62,1,0,,,,,,661521,,,,,,
42120,note_on,0,0,0,,,,,,,,0,,,52,60
42178,note_on,58,0,0,,,,,,,,0,,,52,0
42240,set_tempo,62,1,0,,,,,,685244,,,,,,
42240,note_on,0,0,0,,,,,,,,0,,,71,72
42240,note_on,0,0,0,,,,,,,,0,,,59,64
42240,note_on,0,0,0,,,,,,,,0,,,63,64
42240,note_on,0,0,0,,,,,,,,0,,,42,54
42240,note_on,0,0,0,,,,,,,,0,,,35,54
42240,note_on,0,0,0,,,,,,,,0,,,47,60
42420,note_on,180,0,0,,,,,,,,0,,,47,0
42420,note_on,0,0,0,,,,,,,,0,,,42,0
42420,note_on,0,0,0,,,,,,,,0,,,35,0
42480,set_tempo,60,1,0,,,,,,547495,,,,,,
42480,note_on,0,0,0,,,,,,,,0,,,71,0
42480,note_on,0,0,0,,,,,,,,0,,,63,0
42480,note_on,0,0,0,,,,,,,,0,,,59,0
42480,note_on,0,0,0,,,,,,,,0,,,58,66
42570,note_on,90,0,0,,,,,,,,0,,,58,0
42600,set_tempo,30,1,0,,,,,,621891,,,,,,
42600,note_on,0,0,0,,,,,,,,0,,,60,64
42690,note_on,90,0,0,,,,,,,,0,,,60,0
42720,set_tempo,30,1,0,,,,,,719683,,,,,,
42720,note_on,0,0,0,,,,,,,,0,,,59,72
42838,note_on,118,0,0,,,,,,,,0,,,59,0
42960,set_tempo,122,1,0,,,,,,743126,,,,,,
42960,note_on,0,0,0,,,,,,,,0,,,59,62
42960,note_on,0,0,0,,,,,,,,0,,,71,70
43078,note_on,118,0,0,,,,,,,,0,,,71,0
43078,note_on,0,0,0,,,,,,,,0,,,59,0
43200,set_tempo,122,1,0,,,,,,715222,,,,,,
43200,note_on,0,0,0,,,,,,,,0,,,64,72
43200,note_on,0,0,0,,,,,,,,0,,,71,72
43200,note_on,0,0,0,,,,,,,,0,,,76,81
43200,note_on,0,0,0,,,,,,,,0,,,56,71
43200,note_on,0,0,0,,,,,,,,0,,,44,63
43200,note_on,0,0,0,,,,,,,,0,,,52,63
43220,set_tempo,20,1,0,,,,,,725865,,,,,,
43380,note_on,160,0,0,,,,,,,,0,,,52,0
43380,note_on,0,0,0,,,,,,,,0,,,56,0
43380,note_on,0,0,0,,,,,,,,0,,,44,0
43440,set_tempo,60,1,0,,,,,,566465,,,,,,
43440,note_on,0,0,0,,,,,,,,0,,,64,0
43440,note_on,0,0,0,,,,,,,,0,,,76,0
43440,note_on,0,0,0,,,,,,,,0,,,71,0
43440,note_on,0,0,0,,,,,,,,0,,,62,64
43498,note_on,58,0,0,,,,,,,,0,,,62,0
43560,set_tempo,62,1,0,,,,,,657606,,,,,,
43560,note_on,0,0,0,,,,,,,,0,,,59,59
43618,note_on,58,0,0,,,,,,,,0,,,59,0
43680,set_tempo,62,1,0,,,,,,677124,,,,,,
43680,note_on,0,0,0,,,,,,,,0,,,64,60
43680,note_on,0,0,0,,,,,,,,0,,,60,60
43680,note_on,0,0,0,,,,,,,,0,,,72,66
43680,note_on,0,0,0,,,,,,,,0,,,52,54
43680,note_on,0,0,0,,,,,,,,0,,,45,54
43680,note_on,0,0,0,,,,,,,,0,,,57,61
43860,note_on,180,0,0,,,,,,,,0,,,57,0
43860,note_on,0,0,0,,,,,,,,0,,,52,0
43860,note_on,0,0,0,,,,,,,,0,,,45,0
43920,set_tempo,60,1,0,,,,,,558191,,,,,,
43920,note_on,0,0,0,,,,,,,,0,,,64,0
43920,note_on,0,0,0,,,,,,,,0,,,72,0
43920,note_on,0,0,0,,,,,,,,0,,,60,0
43920,note_on,0,0,0,,,,,,,,0,,,59,59
43978,note_on,58,0,0,,,,,,,,0,,,59,0
44040,set_tempo,62,1,0,,,,,,719683,,,,,,
44040,note_on,0,0,0,,,,,,,,0,,,57,55
44098,note_on,58,0,0,,,,,,,,0,,,57,0
44160,set_tempo,62,1,0,,,,,,745805,,,,,,
44160,note_on,0,0,0,,,,,,,,0,,,62,69
44160,note_on,0,0,0,,,,,,,,0,,,69,69
44160,note_on,0,0,0,,,,,,,,0,,,74,77
44160,note_on,0,0,0,,,,,,,,0,,,54,65
44160,note_on,0,0,0,,,,,,,,0,,,42,57
44160,note_on,0,0,0,,,,,,,,0,,,50,57
44340,note_on,180,0,0,,,,,,,,0,,,50,0
44340,note_on,0,0,0,,,,,,,,0,,,54,0
44340,note_on,0,0,0,,,,,,,,0,,,42,0
44400,set_tempo,60,1,0,,,,,,547495,,,,,,
44400,note_on,0,0,0,,,,,,,,0,,,62,0
44400,note_on,0,0,0,,,,,,,,0,,,74,0
44400,note_on,0,0,0,,,,,,,,0,,,69,0
44400,note_on,0,0,0,,,,,,,,0,,,60,63
44458,note_on,58,0,0,,,,,,,,0,,,60,0
44520,set_tempo,62,1,0,,,,,,661521,,,,,,
44520,note_on,0,0,0,,,,,,,,0,,,57,57
44578,note_on,58,0,0,,,,,,,,0,,,57,0
44640,set_tempo,62,1,0,,,,,,708132,,,,,,
44640,note_on,0,0,0,,,,,,,,0,,,62,54
44640,note_on,0,0,0,,,,,,,,0,,,59,54
44640,note_on,0,0,0,,,,,,,,0,,,71,61
44640,note_on,0,0,0,,,,,,,,0,,,50,49
44640,note_on,0,0,0,,,,,,,,0,,,43,49
44640,note_on,0,0,0,,,,,,,,0,,,55,55
44820,note_on,180,0,0,,,,,,,,0,,,55,0
44820,note_on,0,0,0,,,,,,,,0,,,50,0
44820,note_on,0,0,0,,,,,,,,0,,,43,0
44880,set_tempo,60,1,0,,,,,,566465,,,,,,
44880,note_on,0,0,0,,,,,,,,0,,,62,0
44880,note_on,0,0,0,,,,,,,,0,,,71,0
44880,note_on,0,0,0,,,,,,,,0,,,59,0
44880,note_on,0,0,0,,,,,,,,0,,,57,59
44938,note_on,58,0,0,,,,,,,,0,,,57,0
45000,set_tempo,62,1,0,,,,,,702083,,,,,,
45000,note_on,0,0,0,,,,,,,,0,,,55,56
45058,note_on,58,0,0,,,,,,,,0,,,55,0
45120,set_tempo,62,1,0,,,,,,689338,,,,,,
45120,note_on,0,0,0,,,,,,,,0,,,60,70
45120,note_on,0,0,0,,,,,,,,0,,,67,70
45120,note_on,0,0,0,,,,,,,,0,,,72,79
45120,note_on,0,0,0,,,,,,,,0,,,48,57
45120,note_on,0,0,0,,,,,,,,0,,,40,57
45120,note_on,0,0,0,,,,,,,,0,,,52,64
45300,note_on,180,0,0,,,,,,,,0,,,52,0
45300,note_on,0,0,0,,,,,,,,0,,,48,0
45300,note_on,0,0,0,,,,,,,,0,,,40,0
45360,set_tempo,60,1,0,,,,,,592476,,,,,,
45360,note_on,0,0,0,,,,,,,,0,,,60,0
45360,note_on,0,0,0,,,,,,,,0,,,72,0
45360,note_on,0,0,0,,,,,,,,0,,,67,0
45360,note_on,0,0,0,,,,,,,,0,,,59,61
45418,note_on,58,0,0,,,,,,,,0,,,59,0
45460,set_tempo,42,1,0,,,,,,642880,,,,,,
45480,set_tempo,20,1,0,,,,,,639318,,,,,,
45480,note_on,0,0,0,,,,,,,,0,,,55,56
45538,note_on,58,0,0,,,,,,,,0,,,55,0
45600,set_tempo,62,1,0,,,,,,677660,,,,,,
45600,note_on,0,0,0,,,,,,,,0,,,60,55
45600,note_on,0,0,0,,,,,,,,0,,,57,55
45600,note_on,0,0,0,,,,,,,,0,,,69,62
45600,note_on,0,0,0,,,,,,,,0,,,48,46
45600,note_on,0,0,0,,,,,,,,0,,,42,46
45600,note_on,0,0,0,,,,,,,,0,,,54,52
45780,note_on,180,0,0,,,,,,,,0,,,54,0
45780,note_on,0,0,0,,,,,,,,0,,,48,0
45780,note_on,0,0,0,,,,,,,,0,,,42,0
45840,set_tempo,60,1,0,,,,,,592476,,,,,,
45840,note_on,0,0,0,,,,,,,,0,,,60,0
45840,note_on,0,0,0,,,,,,,,0,,,69,0
45840,note_on,0,0,0,,,,,,,,0,,,57,0
45840,note_on,0,0,0,,,,,,,,0,,,55,60
45898,note_on,58,0,0,,,,,,,,0,,,55,0
45960,set_tempo,62,1,0,,,,,,733496,,,,,,
45960,note_on,0,0,0,,,,,,,,0,,,54,56
46018,note_on,58,0,0,,,,,,,,0,,,54,0
46080,set_tempo,62,1,0,,,,,,699545,,,,,,
46080,note_on,0,0,0,,,,,,,,0,,,59,63
46080,note_on,0,0,0,,,,,,,,0,,,66,63
46080,note_on,0,0,0,,,,,,,,0,,,71,71
46080,note_on,0,0,0,,,,,,,,0,,,51,58
46080,note_on,0,0,0,,,,,,,,0,,,39,52
46080,note_on,0,0,0,,,,,,,,0,,,47,52
46260,note_on,180,0,0,,,,,,,,0,,,47,0
46260,note_on,0,0,0,,,,,,,,0,,,51,0
46260,note_on,0,0,0,,,,,,,,0,,,39,0
46320,set_tempo,60,1,0,,,,,,598623,,,,,,
46320,note_on,0,0,0,,,,,,,,0,,,59,0
46320,note_on,0,0,0,,,,,,,,0,,,71,0
46320,note_on,0,0,0,,,,,,,,0,,,66,0
46320,note_on,0,0,0,,,,,,,,0,,,57,61
46378,note_on,58,0,0,,,,,,,,0,,,57,0
46440,set_tempo,62,1,0,,,,,,671216,,,,,,
46440,note_on,0,0,0,,,,,,,,0,,,54,56
46498,note_on,58,0,0,,,,,,,,0,,,54,0
46560,set_tempo,62,1,0,,,,,,653880,,,,,,
46560,note_on,0,0,0,,,,,,,,0,,,59,56
46560,note_on,0,0,0,,,,,,,,0,,,55,56
46560,note_on,0,0,0,,,,,,,,0,,,67,63
46560,note_on,0,0,0,,,,,,,,0,,,47,47
46560,note_on,0,0,0,,,,,,,,0,,,40,47
46560,note_on,0,0,0,,,,,,,,0,,,52,54
46740,note_on,180,0,0,,,,,,,,0,,,52,0
46740,note_on,0,0,0,,,,,,,,0,,,47,0
46740,note_on,0,0,0,,,,,,,,0,,,40,0
46800,set_tempo,60,1,0,,,,,,595533,,,,,,
46800,note_on,0,0,0,,,,,,,,0,,,59,0
46800,note_on,0,0,0,,,,,,,,0,,,67,0
46800,note_on,0,0,0,,,,,,,,0,,,55,0
46800,note_on,0,0,0,,,,,,,,0,,,54,60
46858,note_on,58,0,0,,,,,,,,0,,,54,0
46900,set_tempo,42,1,0,,,,,,806452,,,,,,
46920,note_on,20,0,0,,,,,,,,0,,,52,56
47010,note_on,90,0,0,,,,,,,,0,,,52,0
47040,set_tempo,30,1,0,,,,,,725865,,,,,,
47040,note_on,0,0,0,,,,,,,,0,,,67,56
47040,note_on,0,0,0,,,,,,,,0,,,55,50
47040,note_on,0,0,0,,,,,,,,0,,,60,50
47040,note_on,0,0,0,,,,,,,,0,,,64,50
47040,note_on,0,0,0,,,,,,,,0,,,36,46
47040,note_on,0,0,0,,,,,,,,0,,,48,52
47081,set_tempo,41,1,0,,,,,,715222,,,,,,
47220,note_on,139,0,0,,,,,,,,0,,,48,0
47220,note_on,0,0,0,,,,,,,,0,,,36,0
47280,set_tempo,60,1,0,,,,,,595948,,,,,,
47280,note_on,0,0,0,,,,,,,,0,,,60,0
47280,note_on,0,0,0,,,,,,,,0,,,67,0
47280,note_on,0,0,0,,,,,,,,0,,,55,0
47280,note_on,0,0,0,,,,,,,,0,,,64,0
47280,note_on,0,0,0,,,,,,,,0,,,54,63
47338,note_on,58,0,0,,,,,,,,0,,,54,0
47400,set_tempo,62,1,0,,,,,,789266,,,,,,
47400,note_on,0,0,0,,,,,,,,0,,,52,67
47458,note_on,58,0,0,,,,,,,,0,,,52,0
47520,set_tempo,62,1,0,,,,,,689338,,,,,,
47520,note_on,0,0,0,,,,,,,,0,,,67,71
47520,note_on,0,0,0,,,,,,,,0,,,61,63
47520,note_on,0,0,0,,,,,,,,0,,,55,63
47520,note_on,0,0,0,,,,,,,,0,,,64,63
47520,note_on,0,0,0,,,,,,,,0,,,46,57
47520,note_on,0,0,0,,,,,,,,0,,,34,51
47700,note_on,180,0,0,,,,,,,,0,,,34,0
47700,note_on,0,0,0,,,,,,,,0,,,46,0
47760,set_tempo,60,1,0,,,,,,632244,,,,,,
47760,note_on,0,0,0,,,,,,,,0,,,55,0
47760,note_on,0,0,0,,,,,,,,0,,,67,0
47760,note_on,0,0,0,,,,,,,,0,,,61,0
47760,note_on,0,0,0,,,,,,,,0,,,64,0
47760,note_on,0,0,0,,,,,,,,0,,,54,67
47818,note_on,58,0,0,,,,,,,,0,,,54,0
47880,set_tempo,62,1,0,,,,,,823271,,,,,,
47880,note_on,0,0,0,,,,,,,,0,,,52,63
47938,note_on,58,0,0,,,,,,,,0,,,52,0
48000,set_tempo,62,1,0,,,,,,743126,,,,,,
48000,note_on,0,0,0,,,,,,,,0,,,51,67
48000,note_on,0,0,0,,,,,,,,0,,,59,67
48000,note_on,0,0,0,,,,,,,,0,,,63,75
48000,note_on,0,0,0,,,,,,,,0,,,35,54
48000,note_on,0,0,0,,,,,,,,0,,,47,61
48180,note_on,180,0,0,,,,,,,,0,,,47,0
48180,note_on,0,0,0,,,,,,,,0,,,35,0
48240,set_tempo,60,1,0,,,,,,642880,,,,,,
48240,note_on,0,0,0,,,,,,,,0,,,51,0
48240,note_on,0,0,0,,,,,,,,0,,,59,0
48240,note_on,0,0,0,,,,,,,,0,,,63,0
48240,note_on,0,0,0,,,,,,,,0,,,52,57
48298,note_on,58,0,0,,,,,,,,0,,,52,0
48360,set_tempo,62,1,0,,,,,,743126,,,,,,
48360,note_on,0,0,0,,,,,,,,0,,,54,54
48418,note_on,58,0,0,,,,,,,,0,,,54,0
48480,set_tempo,62,1,0,,,,,,728863,,,,,,
48480,note_on,0,0,0,,,,,,,,0,,,55,55
48480,note_on,0,0,0,,,,,,,,0,,,52,55
48480,note_on,0,0,0,,,,,,,,0,,,64,62
48480,note_on,0,0,0,,,,,,,,0,,,48,49
48480,note_on,0,0,0,,,,,,,,0,,,36,44
48660,note_on,180,0,0,,,,,,,,0,,,36,0
48660,note_on,0,0,0,,,,,,,,0,,,48,0
48720,set_tempo,60,1,0,,,,,,615195,,,,,,
48720,note_on,0,0,0,,,,,,,,0,,,55,0
48720,note_on,0,0,0,,,,,,,,0,,,52,0
48720,note_on,0,0,0,,,,,,,,0,,,64,0
48720,note_on,0,0,0,,,,,,,,0,,,54,55
48778,note_on,58,0,0,,,,,,,,0,,,54,0
48840,set_tempo,62,1,0,,,,,,773196,,,,,,
48840,note_on,0,0,0,,,,,,,,0,,,55,55
48898,note_on,58,0,0,,,,,,,,0,,,55,0
48960,set_tempo,62,1,0,,,,,,677124,,,,,,
48960,note_on,0,0,0,,,,,,,,0,,,60,67
48960,note_on,0,0,0,,,,,,,,0,,,53,60
48960,note_on,0,0,0,,,,,,,,0,,,33,50
48960,note_on,0,0,0,,,,,,,,0,,,45,56
49140,note_on,180,0,0,,,,,,,,0,,,45,0
49140,note_on,0,0,0,,,,,,,,0,,,33,0
49196,note_on,56,0,0,,,,,,,,0,,,60,0
49200,set_tempo,4,1,0,,,,,,639318,,,,,,
49200,note_on,0,0,0,,,,,,,,0,,,53,0
49200,note_on,0,0,0,,,,,,,,0,,,65,47
49200,note_on,0,0,0,,,,,,,,0,,,69,54
49200,note_on,0,0,0,,,,,,,,0,,,60,49
49258,note_on,58,0,0,,,,,,,,0,,,60,0
49258,note_on,0,0,0,,,,,,,,0,,,69,0
49258,note_on,0,0,0,,,,,,,,0,,,65,0
49320,set_tempo,62,1,0,,,,,,794702,,,,,,
49320,note_on,0,0,0,,,,,,,,0,,,60,45
49320,note_on,0,0,0,,,,,,,,0,,,65,51
49320,note_on,0,0,0,,,,,,,,0,,,57,49
49378,note_on,58,0,0,,,,,,,,0,,,57,0
49378,note_on,0,0,0,,,,,,,,0,,,65,0
49378,note_on,0,0,0,,,,,,,,0,,,60,0
49440,set_tempo,62,1,0,,,,,,847697,,,,,,
49440,note_on,0,0,0,,,,,,,,0,,,55,57
49440,note_on,0,0,0,,,,,,,,0,,,59,57
49440,note_on,0,0,0,,,,,,,,0,,,64,65
49440,note_on,0,0,0,,,,,,,,0,,,35,51
49440,note_on,0,0,0,,,,,,,,0,,,47,57
49620,note_on,180,0,0,,,,,,,,0,,,47,0
49620,note_on,0,0,0,,,,,,,,0,,,64,0
49620,note_on,0,0,0,,,,,,,,0,,,55,0
49620,note_on,0,0,0,,,,,,,,0,,,59,0
49620,note_on,0,0,0,,,,,,,,0,,,35,0
49680,set_tempo,60,1,0,,,,,,1031105,,,,,,
49680,note_on,0,0,0,,,,,,,,0,,,59,54
49680,note_on,0,0,0,,,,,,,,0,,,66,60
49680,note_on,0,0,0,,,,,,,,0,,,57,54
49738,note_on,58,0,0,,,,,,,,0,,,57,0
49738,note_on,0,0,0,,,,,,,,0,,,66,0
49738,note_on,0,0,0,,,,,,,,0,,,59,0
49800,set_tempo,62,1,0,,,,,,1271456,,,,,,
49800,note_on,0,0,0,,,,,,,,0,,,59,50
49800,note_on,0,0,0,,,,,,,,0,,,63,56
49800,note_on,0,0,0,,,,,,,,0,,,54,51
49860,note_on,60,0,0,,,,,,,,0,,,54,0
49860,note_on,0,0,0,,,,,,,,0,,,63,0
49860,note_on,0,0,0,,,,,,,,0,,,59,0
49920,key_signature,60,1,0,,,,,E,,,,,,,
49920,set_tempo,0,1,0,,,,,,1346499,,,,,,
49920,note_on,0,0,0,,,,,,,,0,,,55,62
49920,note_on,0,0,0,,,,,,,,0,,,59,62
49920,note_on,0,0,0,,,,,,,,0,,,64,70
49920,note_on,0,0,0,,,,,,,,0,,,40,60
49920,note_on,0,0,0,,,,,,,,0,,,52,67
50400,note_on,480,0,0,,,,,,,,0,,,52,0
50400,note_on,0,0,0,,,,,,,,0,,,64,0
50400,note_on,0,0,0,,,,,,,,0,,,55,0
50400,note_on,0,0,0,,,,,,,,0,,,59,0
50400,note_on,0,0,0,,,,,,,,0,,,40,0
50600,set_tempo,200,1,0,,,,,,1359003,,,,,,
50640,set_tempo,40,1,0,,,,,,675295,,,,,,
50640,note_on,0,0,0,,,,,,,,0,,,92,37
50640,note_on,0,0,0,,,,,,,,0,,,95,43
50690,control_change,50,0,0,,,,,,,,0,64,127,,
50758,note_on,68,0,0,,,,,,,,0,,,95,0
50758,note_on,0,0,0,,,,,,,,0,,,92,0
50760,note_on,2,0,0,,,,,,,,0,,,90,35
50760,note_on,0,0,0,,,,,,,,0,,,93,39
50878,note_on,118,0,0,,,,,,,,0,,,93,0
50878,note_on,0,0,0,,,,,,,,0,,,90,0
50880,set_tempo,2,1,0,,,,,,695652,,,,,,
50880,note_on,0,0,0,,,,,,,,0,,,88,42
50880,note_on,0,0,0,,,,,,,,0,,,92,46
50880,note_on,0,0,0,,,,,,,,0,,,52,34
50880,note_on,0,0,0,,,,,,,,0,,,59,37
50888,control_change,8,0,0,,,,,,,,0,64,0,,
50958,control_change,70,0,0,,,,,,,,0,64,127,,
50998,note_on,40,0,0,,,,,,,,0,,,59,0
51000,note_on,2,0,0,,,,,,,,0,,,64,35
51110,note_on,110,0,0,,,,,,,,0,,,88,0
51110,note_on,0,0,0,,,,,,,,0,,,92,0
51118,note_on,8,0,0,,,,,,,,0,,,64,0
51120,set_tempo,2,1,0,,,,,,671441,,,,,,
51120,note_on,0,0,0,,,,,,,,0,,,88,34
51120,note_on,0,0,0,,,,,,,,0,,,92,37
51120,note_on,0,0,0,,,,,,,,0,,,71,32
51129,control_change,9,0,0,,,,,,,,0,64,0,,
51170,control_change,41,0,0,,,,,,,,0,64,127,,
51238,note_on,68,0,0,,,,,,,,0,,,92,0
51238,note_on,0,0,0,,,,,,,,0,,,88,0
51240,note_on,2,0,0,,,,,,,,0,,,83,31
51240,note_on,0,0,0,,,,,,,,0,,,90,35
51350,note_on,110,0,0,,,,,,,,0,,,71,0
51358,note_on,8,0,0,,,,,,,,0,,,90,0
51358,note_on,0,0,0,,,,,,,,0,,,83,0
51360,set_tempo,2,1,0,,,,,,691483,,,,,,
51360,note_on,0,0,0,,,,,,,,0,,,52,0
51360,note_on,0,0,0,,,,,,,,0,,,80,36
51360,note_on,0,0,0,,,,,,,,0,,,88,41
51360,control_change,0,0,0,,,,,,,,0,64,0,,
51360,note_on,0,0,0,,,,,,,,0,,,64,37
51360,note_on,0,0,0,,,,,,,,0,,,71,37
51403,control_change,43,0,0,,,,,,,,0,64,127,,
51478,note_on,75,0,0,,,,,,,,0,,,64,0
51480,note_on,2,0,0,,,,,,,,0,,,59,36
51590,note_on,110,0,0,,,,,,,,0,,,80,0
51590,note_on,0,0,0,,,,,,,,0,,,88,0
51598,note_on,8,0,0,,,,,,,,0,,,59,0
51600,set_tempo,2,1,0,,,,,,667482,,,,,,
51600,note_on,0,0,0,,,,,,,,0,,,83,42
51600,note_on,0,0,0,,,,,,,,0,,,80,36
51600,note_on,0,0,0,,,,,,,,0,,,52,35
51609,control_change,9,0,0,,,,,,,,0,64,0,,
51664,control_change,55,0,0,,,,,,,,0,64,127,,
51718,note_on,54,0,0,,,,,,,,0,,,80,0
51718,note_on,0,0,0,,,,,,,,0,,,83,0
51720,note_on,2,0,0,,,,,,,,0,,,78,34
51720,note_on,0,0,0,,,,,,,,0,,,81,37
51830,note_on,110,0,0,,,,,,,,0,,,52,0
51838,note_on,8,0,0,,,,,,,,0,,,81,0
51838,note_on,0,0,0,,,,,,,,0,,,78,0
51840,set_tempo,2,1,0,,,,,,691483,,,,,,
51840,note_on,0,0,0,,,,,,,,0,,,71,0
51840,note_on,0,0,0,,,,,,,,0,,,76,40
51840,note_on,0,0,0,,,,,,,,0,,,80,45
51840,control_change,0,0,0,,,,,,,,0,64,0,,
51840,note_on,0,0,0,,,,,,,,0,,,52,32
51840,note_on,0,0,0,,,,,,,,0,,,59,36
51883,control_change,43,0,0,,,,,,,,0,64,127,,
51958,note_on,75,0,0,,,,,,,,0,,,59,0
51960,note_on,2,0,0,,,,,,,,0,,,64,35
52070,note_on,110,0,0,,,,,,,,0,,,76,0
52070,note_on,0,0,0,,,,,,,,0,,,80,0
52078,note_on,8,0,0,,,,,,,,0,,,64,0
52080,set_tempo,2,1,0,,,,,,667482,,,,,,
52080,note_on,0,0,0,,,,,,,,0,,,76,34
52080,note_on,0,0,0,,,,,,,,0,,,80,37
52080,note_on,0,0,0,,,,,,,,0,,,71,35
52089,control_change,9,0,0,,,,,,,,0,64,0,,
52137,control_change,48,0,0,,,,,,,,0,64,127,,
52193,control_change,56,0,0,,,,,,,,0,64,0,,
52198,note_on,5,0,0,,,,,,,,0,,,80,0
52198,note_on,0,0,0,,,,,,,,0,,,76,0
52200,note_on,2,0,0,,,,,,,,0,,,71,31
52200,note_on,0,0,0,,,,,,,,0,,,78,35
52310,note_on,110,0,0,,,,,,,,0,,,71,0
52318,note_on,8,0,0,,,,,,,,0,,,78,0
52318,note_on,0,0,0,,,,,,,,0,,,71,0
52320,set_tempo,2,1,0,,,,,,687364,,,,,,
52320,note_on,0,0,0,,,,,,,,0,,,52,0
52320,note_on,0,0,0,,,,,,,,0,,,68,36
52320,note_on,0,0,0,,,,,,,,0,,,76,42
52320,note_on,0,0,0,,,,,,,,0,,,64,36
52320,note_on,0,0,0,,,,,,,,0,,,71,36
52391,control_change,71,0,0,,,,,,,,0,64,127,,
52438,note_on,47,0,0,,,,,,,,0,,,64,0
52440,note_on,2,0,0,,,,,,,,0,,,59,35
52550,note_on,110,0,0,,,,,,,,0,,,68,0
52550,note_on,0,0,0,,,,,,,,0,,,76,0
52558,note_on,8,0,0,,,,,,,,0,,,59,0
52560,set_tempo,2,1,0,,,,,,652387,,,,,,
52560,note_on,0,0,0,,,,,,,,0,,,68,36
52560,note_on,0,0,0,,,,,,,,0,,,76,42
52560,note_on,0,0,0,,,,,,,,0,,,52,35
52570,control_change,10,0,0,,,,,,,,0,64,0,,
52624,control_change,54,0,0,,,,,,,,0,64,127,,
52678,note_on,54,0,0,,,,,,,,0,,,76,0
52678,note_on,0,0,0,,,,,,,,0,,,68,0
52680,set_tempo,2,1,0,,,,,,701098,,,,,,
52680,note_on,0,0,0,,,,,,,,0,,,71,34
52680,note_on,0,0,0,,,,,,,,0,,,78,37
52692,control_change,12,0,0,,,,,,,,0,64,0,,
52790,note_on,98,0,0,,,,,,,,0,,,52,0
52798,note_on,8,0,0,,,,,,,,0,,,78,0
52798,note_on,0,0,0,,,,,,,,0,,,71,0
52800,set_tempo,2,1,0,,,,,,683293,,,,,,
52800,note_on,0,0,0,,,,,,,,0,,,71,0
52800,note_on,0,0,0,,,,,,,,0,,,76,40
52800,note_on,0,0,0,,,,,,,,0,,,80,45
52800,control_change,0,0,0,,,,,,,,0,64,127,,
52800,note_on,0,0,0,,,,,,,,0,,,52,36
52800,note_on,0,0,0,,,,,,,,0,,,59,32
52918,note_on,118,0,0,,,,,,,,0,,,52,0
52920,note_on,2,0,0,,,,,,,,0,,,64,33
53030,note_on,110,0,0,,,,,,,,0,,,76,0
53030,note_on,0,0,0,,,,,,,,0,,,59,0
53030,note_on,0,0,0,,,,,,,,0,,,80,0
53038,note_on,8,0,0,,,,,,,,0,,,64,0
53040,set_tempo,2,1,0,,,,,,652387,,,,,,
53040,note_on,0,0,0,,,,,,,,0,,,71,37
53040,note_on,0,0,0,,,,,,,,0,,,78,43
53047,control_change,7,0,0,,,,,,,,0,64,0,,
53104,control_change,57,0,0,,,,,,,,0,64,127,,
53158,note_on,54,0,0,,,,,,,,0,,,78,0
53158,note_on,0,0,0,,,,,,,,0,,,71,0
53160,set_tempo,2,1,0,,,,,,691643,,,,,,
53160,note_on,0,0,0,,,,,,,,0,,,76,35
53160,note_on,0,0,0,,,,,,,,0,,,80,39
53176,control_change,16,0,0,,,,,,,,0,64,0,,
53278,note_on,102,0,0,,,,,,,,0,,,80,0
53278,note_on,0,0,0,,,,,,,,0,,,76,0
53280,set_tempo,2,1,0,,,,,,679271,,,,,,
53280,note_on,0,0,0,,,,,,,,0,,,78,43
53280,note_on,0,0,0,,,,,,,,0,,,81,47
53280,note_on,0,0,0,,,,,,,,0,,,71,36
53280,note_on,0,0,0,,,,,,,,0,,,63,32
53344,control_change,64,0,0,,,,,,,,0,64,127,,
53400,note_on,56,0,0,,,,,,,,0,,,59,36
53510,note_on,110,0,0,,,,,,,,0,,,63,0
53510,note_on,0,0,0,,,,,,,,0,,,71,0
53510,note_on,0,0,0,,,,,,,,0,,,78,0
53510,note_on,0,0,0,,,,,,,,0,,,81,0
53518,note_on,8,0,0,,,,,,,,0,,,59,0
53520,set_tempo,2,1,0,,,,,,652387,,,,,,
53520,note_on,0,0,0,,,,,,,,0,,,71,40
53520,note_on,0,0,0,,,,,,,,0,,,78,45
53533,control_change,13,0,0,,,,,,,,0,64,0,,
53584,control_change,51,0,0,,,,,,,,0,64,127,,
53638,note_on,54,0,0,,,,,,,,0,,,78,0
53638,note_on,0,0,0,,,,,,,,0,,,71,0
53640,set_tempo,2,1,0,,,,,,691643,,,,,,
53640,note_on,0,0,0,,,,,,,,0,,,78,36
53640,note_on,0,0,0,,,,,,,,0,,,81,42
53652,control_change,12,0,0,,,,,,,,0,64,0,,
53758,note_on,106,0,0,,,,,,,,0,,,81,0
53758,note_on,0,0,0,,,,,,,,0,,,78,0
53760,set_tempo,2,1,0,,,,,,679271,,,,,,
53760,note_on,0,0,0,,,,,,,,0,,,80,44
53760,note_on,0,0,0,,,,,,,,0,,,83,50
53760,note_on,0,0,0,,,,,,,,0,,,52,31
53760,note_on,0,0,0,,,,,,,,0,,,59,35
53831,control_change,71,0,0,,,,,,,,0,64,127,,
53880,note_on,49,0,0,,,,,,,,0,,,64,33
53990,note_on,110,0,0,,,,,,,,0,,,59,0
53990,note_on,0,0,0,,,,,,,,0,,,52,0
53990,note_on,0,0,0,,,,,,,,0,,,80,0
53990,note_on,0,0,0,,,,,,,,0,,,83,0
53998,note_on,8,0,0,,,,,,,,0,,,64,0
54000,set_tempo,2,1,0,,,,,,648719,,,,,,
54000,note_on,0,0,0,,,,,,,,0,,,78,35
54000,note_on,0,0,0,,,,,,,,0,,,81,39
54007,control_change,7,0,0,,,,,,,,0,64,0,,
54064,control_change,57,0,0,,,,,,,,0,64,127,,
54118,note_on,54,0,0,,,,,,,,0,,,81,0
54118,note_on,0,0,0,,,,,,,,0,,,78,0
54120,set_tempo,2,1,0,,,,,,675295,,,,,,
54120,note_on,0,0,0,,,,,,,,0,,,76,33
54120,note_on,0,0,0,,,,,,,,0,,,80,36
54238,note_on,118,0,0,,,,,,,,0,,,80,0
54238,note_on,0,0,0,,,,,,,,0,,,76,0
54240,set_tempo,2,1,0,,,,,,683293,,,,,,
54240,note_on,0,0,0,,,,,,,,0,,,71,39
54240,note_on,0,0,0,,,,,,,,0,,,78,44
54240,note_on,0,0,0,,,,,,,,0,,,63,31
54240,note_on,0,0,0,,,,,,,,0,,,66,35
54247,control_change,7,0,0,,,,,,,,0,64,0,,
54318,control_change,71,0,0,,,,,,,,0,64,127,,
54360,note_on,42,0,0,,,,,,,,0,,,59,33
54470,note_on,110,0,0,,,,,,,,0,,,66,0
54470,note_on,0,0,0,,,,,,,,0,,,63,0
54470,note_on,0,0,0,,,,,,,,0,,,71,0
54470,note_on,0,0,0,,,,,,,,0,,,78,0
54478,note_on,8,0,0,,,,,,,,0,,,59,0
54480,set_tempo,2,1,0,,,,,,675295,,,,,,
54480,note_on,0,0,0,,,,,,,,0,,,92,37
54480,note_on,0,0,0,,,,,,,,0,,,95,43
54487,control_change,7,0,0,,,,,,,,0,64,0,,
54551,control_change,64,0,0,,,,,,,,0,64,127,,
54598,note_on,47,0,0,,,,,,,,0,,,95,0
54598,note_on,0,0,0,,,,,,,,0,,,92,0
54600,note_on,2,0,0,,,,,,,,0,,,90,35
54600,note_on,0,0,0,,,,,,,,0,,,93,39
54718,note_on,118,0,0,,,,,,,,0,,,93,0
54718,note_on,0,0,0,,,,,,,,0,,,90,0
54720,set_tempo,2,1,0,,,,,,695652,,,,,,
54720,note_on,0,0,0,,,,,,,,0,,,88,42
54720,note_on,0,0,0,,,,,,,,0,,,92,46
54720,control_change,0,0,0,,,,,,,,0,64,0,,
54720,note_on,0,0,0,,,,,,,,0,,,52,34
54720,note_on,0,0,0,,,,,,,,0,,,59,37
54812,control_change,92,0,0,,,,,,,,0,64,127,,
54838,note_on,26,0,0,,,,,,,,0,,,59,0
54840,note_on,2,0,0,,,,,,,,0,,,64,35
54950,note_on,110,0,0,,,,,,,,0,,,88,0
54950,note_on,0,0,0,,,,,,,,0,,,92,0
54958,note_on,8,0,0,,,,,,,,0,,,64,0
54960,set_tempo,2,1,0,,,,,,671441,,,,,,
54960,note_on,0,0,0,,,,,,,,0,,,88,34
54960,note_on,0,0,0,,,,,,,,0,,,92,37
54960,note_on,0,0,0,,,,,,,,0,,,71,32
54975,control_change,15,0,0,,,,,,,,0,64,0,,
55031,control_change,56,0,0,,,,,,,,0,64,127,,
55078,note_on,47,0,0,,,,,,,,0,,,92,0
55078,note_on,0,0,0,,,,,,,,0,,,88,0
55080,note_on,2,0,0,,,,,,,,0,,,83,32
55080,note_on,0,0,0,,,,,,,,0,,,90,36
55086,control_change,6,0,0,,,,,,,,0,64,0,,
55190,note_on,104,0,0,,,,,,,,0,,,71,0
55198,note_on,8,0,0,,,,,,,,0,,,90,0
55198,note_on,0,0,0,,,,,,,,0,,,83,0
55200,set_tempo,2,1,0,,,,,,691483,,,,,,
55200,note_on,0,0,0,,,,,,,,0,,,52,0
55200,note_on,0,0,0,,,,,,,,0,,,80,41
55200,note_on,0,0,0,,,,,,,,0,,,88,41
55200,note_on,0,0,0,,,,,,,,0,,,64,37
55200,note_on,0,0,0,,,,,,,,0,,,71,37
55257,control_change,57,0,0,,,,,,,,0,64,127,,
55318,note_on,61,0,0,,,,,,,,0,,,64,0
55320,note_on,2,0,0,,,,,,,,0,,,59,35
55430,note_on,110,0,0,,,,,,,,0,,,80,0
55430,note_on,0,0,0,,,,,,,,0,,,88,0
55438,note_on,8,0,0,,,,,,,,0,,,59,0
55440,set_tempo,2,1,0,,,,,,653880,,,,,,
55440,note_on,0,0,0,,,,,,,,0,,,83,42
55440,note_on,0,0,0,,,,,,,,0,,,80,36
55440,note_on,0,0,0,,,,,,,,0,,,52,35
55450,control_change,10,0,0,,,,,,,,0,64,0,,
55532,control_change,82,0,0,,,,,,,,0,64,127,,
55558,note_on,26,0,0,,,,,,,,0,,,80,0
55558,note_on,0,0,0,,,,,,,,0,,,83,0
55560,set_tempo,2,1,0,,,,,,669195,,,,,,
55560,note_on,0,0,0,,,,,,,,0,,,78,35
55560,note_on,0,0,0,,,,,,,,0,,,81,39
55670,note_on,110,0,0,,,,,,,,0,,,52,0
55678,note_on,8,0,0,,,,,,,,0,,,81,0
55678,note_on,0,0,0,,,,,,,,0,,,78,0
55680,set_tempo,2,1,0,,,,,,687364,,,,,,
55680,note_on,0,0,0,,,,,,,,0,,,71,0
55680,note_on,0,0,0,,,,,,,,0,,,76,40
55680,note_on,0,0,0,,,,,,,,0,,,80,45
55680,note_on,0,0,0,,,,,,,,0,,,52,32
55680,note_on,0,0,0,,,,,,,,0,,,59,36
55685,control_change,5,0,0,,,,,,,,0,64,0,,
55751,control_change,66,0,0,,,,,,,,0,64,127,,
55798,note_on,47,0,0,,,,,,,,0,,,59,0
55800,note_on,2,0,0,,,,,,,,0,,,64,35
55910,note_on,110,0,0,,,,,,,,0,,,76,0
55910,note_on,0,0,0,,,,,,,,0,,,80,0
55918,note_on,8,0,0,,,,,,,,0,,,64,0
55920,set_tempo,2,1,0,,,,,,648719,,,,,,
55920,note_on,0,0,0,,,,,,,,0,,,76,34
55920,note_on,0,0,0,,,,,,,,0,,,80,37
55920,note_on,0,0,0,,,,,,,,0,,,71,35
55933,control_change,13,0,0,,,,,,,,0,64,0,,
55984,control_change,51,0,0,,,,,,,,0,64,127,,
56038,note_on,54,0,0,,,,,,,,0,,,80,0
56038,note_on,0,0,0,,,,,,,,0,,,76,0
56040,set_tempo,2,1,0,,,,,,652387,,,,,,
56040,note_on,0,0,0,,,,,,,,0,,,71,30
56040,note_on,0,0,0,,,,,,,,0,,,78,34
56047,control_change,7,0,0,,,,,,,,0,64,0,,
56150,note_on,103,0,0,,,,,,,,0,,,71,0
56158,note_on,8,0,0,,,,,,,,0,,,78,0
56158,note_on,0,0,0,,,,,,,,0,,,71,0
56160,set_tempo,2,1,0,,,,,,679271,,,,,,
56160,note_on,0,0,0,,,,,,,,0,,,52,0
56160,note_on,0,0,0,,,,,,,,0,,,68,36
56160,note_on,0,0,0,,,,,,,,0,,,76,42
56160,note_on,0,0,0,,,,,,,,0,,,64,36
56160,note_on,0,0,0,,,,,,,,0,,,71,36
56196,control_change,36,0,0,,,,,,,,0,64,127,,
56278,note_on,82,0,0,,,,,,,,0,,,64,0
56280,note_on,2,0,0,,,,,,,,0,,,59,35
56390,note_on,110,0,0,,,,,,,,0,,,68,0
56390,note_on,0,0,0,,,,,,,,0,,,76,0
56398,note_on,8,0,0,,,,,,,,0,,,59,0
56400,set_tempo,2,1,0,,,,,,648719,,,,,,
56400,note_on,0,0,0,,,,,,,,0,,,68,36
56400,note_on,0,0,0,,,,,,,,0,,,76,42
56400,note_on,0,0,0,,,,,,,,0,,,52,35
56408,control_change,8,0,0,,,,,,,,0,64,0,,
56518,note_on,110,0,0,,,,,,,,0,,,76,0
56518,note_on,0,0,0,,,,,,,,0,,,68,0
56520,set_tempo,2,1,0,,,,,,656096,,,,,,
56520,note_on,0,0,0,,,,,,,,0,,,71,34
56520,note_on,0,0,0,,,,,,,,0,,,78,37
56630,note_on,110,0,0,,,,,,,,0,,,52,0
56638,note_on,8,0,0,,,,,,,,0,,,78,0
56638,note_on,0,0,0,,,,,,,,0,,,71,0
56640,set_tempo,2,1,0,,,,,,679271,,,,,,
56640,note_on,0,0,0,,,,,,,,0,,,71,0
56640,note_on,0,0,0,,,,,,,,0,,,76,40
56640,note_on,0,0,0,,,,,,,,0,,,80,45
56640,control_change,0,0,0,,,,,,,,0,64,127,,
56640,note_on,0,0,0,,,,,,,,0,,,52,36
56640,note_on,0,0,0,,,,,,,,0,,,59,32
56758,note_on,118,0,0,,,,,,,,0,,,52,0
56760,note_on,2,0,0,,,,,,,,0,,,64,33
56870,note_on,110,0,0,,,,,,,,0,,,76,0
56870,note_on,0,0,0,,,,,,,,0,,,59,0
56870,note_on,0,0,0,,,,,,,,0,,,80,0
56878,note_on,8,0,0,,,,,,,,0,,,64,0
56880,set_tempo,2,1,0,,,,,,663717,,,,,,
56880,note_on,0,0,0,,,,,,,,0,,,78,39
56880,note_on,0,0,0,,,,,,,,0,,,81,44
56894,control_change,14,0,0,,,,,,,,0,64,0,,
56944,control_change,50,0,0,,,,,,,,0,64,127,,
56998,note_on,54,0,0,,,,,,,,0,,,81,0
56998,note_on,0,0,0,,,,,,,,0,,,78,0
57000,set_tempo,2,1,0,,,,,,691643,,,,,,
57000,note_on,0,0,0,,,,,,,,0,,,76,35
57000,note_on,0,0,0,,,,,,,,0,,,80,39
57118,note_on,118,0,0,,,,,,,,0,,,80,0
57118,note_on,0,0,0,,,,,,,,0,,,76,0
57120,set_tempo,2,1,0,,,,,,659848,,,,,,
57120,note_on,0,0,0,,,,,,,,0,,,71,36
57120,note_on,0,0,0,,,,,,,,0,,,78,41
57120,note_on,0,0,0,,,,,,,,0,,,69,36
57120,note_on,0,0,0,,,,,,,,0,,,63,32
57128,control_change,8,0,0,,,,,,,,0,64,0,,
57177,control_change,49,0,0,,,,,,,,0,64,127,,
57240,note_on,63,0,0,,,,,,,,0,,,59,33
57350,note_on,110,0,0,,,,,,,,0,,,63,0
57350,note_on,0,0,0,,,,,,,,0,,,69,0
57350,note_on,0,0,0,,,,,,,,0,,,71,0
57350,note_on,0,0,0,,,,,,,,0,,,78,0
57358,note_on,8,0,0,,,,,,,,0,,,59,0
57360,set_tempo,2,1,0,,,,,,691483,,,,,,
57360,note_on,0,0,0,,,,,,,,0,,,76,40
57360,note_on,0,0,0,,,,,,,,0,,,80,45
57370,control_change,10,0,0,,,,,,,,0,64,0,,
57417,control_change,47,0,0,,,,,,,,0,64,127,,
57478,note_on,61,0,0,,,,,,,,0,,,80,0
57478,note_on,0,0,0,,,,,,,,0,,,76,0
57480,set_tempo,2,1,0,,,,,,721674,,,,,,
57480,note_on,0,0,0,,,,,,,,0,,,71,34
57480,note_on,0,0,0,,,,,,,,0,,,78,37
57493,control_change,13,0,0,,,,,,,,0,64,0,,
57598,note_on,105,0,0,,,,,,,,0,,,78,0
57598,note_on,0,0,0,,,,,,,,0,,,71,0
57600,set_tempo,2,1,0,,,,,,702083,,,,,,
57600,note_on,0,0,0,,,,,,,,0,,,68,35
57600,note_on,0,0,0,,,,,,,,0,,,76,39
57600,note_on,0,0,0,,,,,,,,0,,,52,39
57639,control_change,39,0,0,,,,,,,,0,64,127,,
57718,note_on,79,0,0,,,,,,,,0,,,52,0
57720,set_tempo,2,1,0,,,,,,719683,,,,,,
57720,note_on,0,0,0,,,,,,,,0,,,59,32
57838,note_on,118,0,0,,,,,,,,0,,,59,0
57840,set_tempo,2,1,0,,,,,,767951,,,,,,
57840,note_on,0,0,0,,,,,,,,0,,,68,34
57958,note_on,118,0,0,,,,,,,,0,,,68,0
57960,note_on,2,0,0,,,,,,,,0,,,64,32
58078,note_on,118,0,0,,,,,,,,0,,,64,0
58080,set_tempo,2,1,0,,,,,,782881,,,,,,
58080,note_on,0,0,0,,,,,,,,0,,,76,0
58080,note_on,0,0,0,,,,,,,,0,,,68,0
58080,note_on,0,0,0,,,,,,,,0,,,71,39
58306,control_change,226,0,0,,,,,,,,0,64,0,,
58310,note_on,4,0,0,,,,,,,,0,,,71,0
58320,set_tempo,10,1,0,,,,,,702083,,,,,,
58320,note_on,0,0,0,,,,,,,,0,,,56,60
58320,note_on,0,0,0,,,,,,,,0,,,64,66
58378,note_on,58,0,0,,,,,,,,0,,,64,0
58378,note_on,0,0,0,,,,,,,,0,,,56,0
58440,set_tempo,62,1,0,,,,,,738280,,,,,,
58440,note_on,0,0,0,,,,,,,,0,,,64,55
58440,note_on,0,0,0,,,,,,,,0,,,68,63
58498,note_on,58,0,0,,,,,,,,0,,,68,0
58498,note_on,0,0,0,,,,,,,,0,,,64,0
58560,set_tempo,62,1,0,,,,,,689338,,,,,,
58560,note_on,0,0,0,,,,,,,,0,,,59,65
58560,note_on,0,0,0,,,,,,,,0,,,66,73
58780,note_on,220,0,0,,,,,,,,0,,,66,0
58780,note_on,0,0,0,,,,,,,,0,,,59,0
58800,set_tempo,20,1,0,,,,,,628733,,,,,,
58800,note_on,0,0,0,,,,,,,,0,,,64,60
58800,note_on,0,0,0,,,,,,,,0,,,68,66
58858,note_on,58,0,0,,,,,,,,0,,,68,0
58858,note_on,0,0,0,,,,,,,,0,,,64,0
58920,set_tempo,62,1,0,,,,,,650195,,,,,,
58920,note_on,0,0,0,,,,,,,,0,,,66,57
58920,note_on,0,0,0,,,,,,,,0,,,69,64
58978,note_on,58,0,0,,,,,,,,0,,,69,0
58978,note_on,0,0,0,,,,,,,,0,,,66,0
59040,set_tempo,62,1,0,,,,,,669195,,,,,,
59040,note_on,0,0,0,,,,,,,,0,,,68,63
59040,note_on,0,0,0,,,,,,,,0,,,71,72
59260,note_on,220,0,0,,,,,,,,0,,,71,0
59260,note_on,0,0,0,,,,,,,,0,,,68,0
59280,set_tempo,20,1,0,,,,,,618557,,,,,,
59280,note_on,0,0,0,,,,,,,,0,,,69,62
59280,note_on,0,0,0,,,,,,,,0,,,73,69
59338,note_on,58,0,0,,,,,,,,0,,,73,0
59338,note_on,0,0,0,,,,,,,,0,,,69,0
59400,set_tempo,62,1,0,,,,,,650195,,,,,,
59400,note_on,0,0,0,,,,,,,,0,,,68,57
59400,note_on,0,0,0,,,,,,,,0,,,71,64
59458,note_on,58,0,0,,,,,,,,0,,,71,0
59458,note_on,0,0,0,,,,,,,,0,,,68,0
59520,set_tempo,62,1,0,,,,,,681122,,,,,,
59520,note_on,0,0,0,,,,,,,,0,,,66,66
59520,note_on,0,0,0,,,,,,,,0,,,69,74
59740,note_on,220,0,0,,,,,,,,0,,,69,0
59740,note_on,0,0,0,,,,,,,,0,,,66,0
59760,set_tempo,20,1,0,,,,,,611933,,,,,,
59760,note_on,0,0,0,,,,,,,,0,,,64,61
59760,note_on,0,0,0,,,,,,,,0,,,68,67
59818,note_on,58,0,0,,,,,,,,0,,,68,0
59818,note_on,0,0,0,,,,,,,,0,,,64,0
59880,set_tempo,62,1,0,,,,,,650195,,,,,,
59880,note_on,0,0,0,,,,,,,,0,,,66,56
59880,note_on,0,0,0,,,,,,,,0,,,69,63
59938,note_on,58,0,0,,,,,,,,0,,,69,0
59938,note_on,0,0,0,,,,,,,,0,,,66,0
60000,set_tempo,62,1,0,,,,,,704143,,,,,,
60000,note_on,0,0,0,,,,,,,,0,,,59,66
60000,note_on,0,0,0,,,,,,,,0,,,66,74
60220,set_tempo,220,1,0,,,,,,639318,,,,,,
60220,note_on,0,0,0,,,,,,,,0,,,66,0
60220,note_on,0,0,0,,,,,,,,0,,,59,0
60240,set_tempo,20,1,0,,,,,,653880,,,,,,
60240,note_on,0,0,0,,,,,,,,0,,,56,60
60240,note_on,0,0,0,,,,,,,,0,,,64,66
60298,note_on,58,0,0,,,,,,,,0,,,64,0
60298,note_on,0,0,0,,,,,,,,0,,,56,0
60360,set_tempo,62,1,0,,,,,,677124,,,,,,
60360,note_on,0,0,0,,,,,,,,0,,,64,56
60360,note_on,0,0,0,,,,,,,,0,,,68,63
60418,note_on,58,0,0,,,,,,,,0,,,68,0
60418,note_on,0,0,0,,,,,,,,0,,,64,0
60480,set_tempo,62,1,0,,,,,,689338,,,,,,
60480,note_on,0,0,0,,,,,,,,0,,,59,65
60480,note_on,0,0,0,,,,,,,,0,,,66,73
60700,note_on,220,0,0,,,,,,,,0,,,66,0
60700,note_on,0,0,0,,,,,,,,0,,,59,0
60720,set_tempo,20,1,0,,,,,,611933,,,,,,
60720,note_on,0,0,0,,,,,,,,0,,,64,60
60720,note_on,0,0,0,,,,,,,,0,,,68,66
60778,note_on,58,0,0,,,,,,,,0,,,68,0
60778,note_on,0,0,0,,,,,,,,0,,,64,0
60840,set_tempo,62,1,0,,,,,,669195,,,,,,
60840,note_on,0,0,0,,,,,,,,0,,,66,56
60840,note_on,0,0,0,,,,,,,,0,,,69,63
60898,note_on,58,0,0,,,,,,,,0,,,69,0
60898,note_on,0,0,0,,,,,,,,0,,,66,0
60960,set_tempo,62,1,0,,,,,,657606,,,,,,
60960,note_on,0,0,0,,,,,,,,0,,,68,63
60960,note_on,0,0,0,,,,,,,,0,,,71,72
61180,note_on,220,0,0,,,,,,,,0,,,71,0
61180,note_on,0,0,0,,,,,,,,0,,,68,0
61200,set_tempo,20,1,0,,,,,,639318,,,,,,
61200,note_on,0,0,0,,,,,,,,0,,,69,63
61200,note_on,0,0,0,,,,,,,,0,,,73,72
61258,note_on,58,0,0,,,,,,,,0,,,73,0
61258,note_on,0,0,0,,,,,,,,0,,,69,0
61320,set_tempo,62,1,0,,,,,,685244,,,,,,
61320,note_on,0,0,0,,,,,,,,0,,,68,62
61320,note_on,0,0,0,,,,,,,,0,,,71,69
61378,note_on,58,0,0,,,,,,,,0,,,71,0
61378,note_on,0,0,0,,,,,,,,0,,,68,0
61440,set_tempo,62,1,0,,,,,,823271,,,,,,
61440,note_on,0,0,0,,,,,,,,0,,,66,66
61440,note_on,0,0,0,,,,,,,,0,,,69,74
61660,note_on,220,0,0,,,,,,,,0,,,69,0
61660,note_on,0,0,0,,,,,,,,0,,,66,0
61680,set_tempo,20,1,0,,,,,,1012658,,,,,,
61680,note_on,0,0,0,,,,,,,,0,,,64,60
61680,note_on,0,0,0,,,,,,,,0,,,68,66
61738,note_on,58,0,0,,,,,,,,0,,,68,0
61738,note_on,0,0,0,,,,,,,,0,,,64,0
61800,set_tempo,62,1,0,,,,,,1167770,,,,,,
61800,note_on,0,0,0,,,,,,,,0,,,66,55
61800,note_on,0,0,0,,,,,,,,0,,,69,63
61858,note_on,58,0,0,,,,,,,,0,,,69,0
61858,note_on,0,0,0,,,,,,,,0,,,66,0
61920,set_tempo,62,1,0,,,,,,2043597,,,,,,
61920,note_on,0,0,0,,,,,,,,0,,,59,57
61920,note_on,0,0,0,,,,,,,,0,,,66,64
62100,note_on,180,0,0,,,,,,,,0,,,66,0
62100,note_on,0,0,0,,,,,,,,0,,,59,0
62160,set_tempo,60,1,0,,,,,,661521,,,,,,
62160,note_on,0,0,0,,,,,,,,0,,,92,37
62160,note_on,0,0,0,,,,,,,,0,,,95,43
62185,control_change,25,0,0,,,,,,,,0,64,127,,
62278,note_on,93,0,0,,,,,,,,0,,,95,0
62278,note_on,0,0,0,,,,,,,,0,,,92,0
62280,note_on,2,0,0,,,,,,,,0,,,90,35
62280,note_on,0,0,0,,,,,,,,0,,,93,39
62398,note_on,118,0,0,,,,,,,,0,,,93,0
62398,note_on,0,0,0,,,,,,,,0,,,90,0
62400,set_tempo,2,1,0,,,,,,685244,,,,,,
62400,note_on,0,0,0,,,,,,,,0,,,88,42
62400,note_on,0,0,0,,,,,,,,0,,,92,46
62400,note_on,0,0,0,,,,,,,,0,,,52,34
62400,note_on,0,0,0,,,,,,,,0,,,59,37
62408,control_change,8,0,0,,,,,,,,0,64,0,,
62499,control_change,91,0,0,,,,,,,,0,64,127,,
62518,note_on,19,0,0,,,,,,,,0,,,59,0
62520,note_on,2,0,0,,,,,,,,0,,,64,34
62630,note_on,110,0,0,,,,,,,,0,,,88,0
62630,note_on,0,0,0,,,,,,,,0,,,92,0
62638,note_on,8,0,0,,,,,,,,0,,,64,0
62640,set_tempo,2,1,0,,,,,,657606,,,,,,
62640,note_on,0,0,0,,,,,,,,0,,,88,34
62640,note_on,0,0,0,,,,,,,,0,,,92,37
62640,note_on,0,0,0,,,,,,,,0,,,71,32
62647,control_change,7,0,0,,,,,,,,0,64,0,,
62718,control_change,71,0,0,,,,,,,,0,64,127,,
62758,note_on,40,0,0,,,,,,,,0,,,92,0
62758,note_on,0,0,0,,,,,,,,0,,,88,0
62760,note_on,2,0,0,,,,,,,,0,,,83,31
62760,note_on,0,0,0,,,,,,,,0,,,90,35
62870,note_on,110,0,0,,,,,,,,0,,,71,0
62878,note_on,8,0,0,,,,,,,,0,,,90,0
62878,note_on,0,0,0,,,,,,,,0,,,83,0
62880,set_tempo,2,1,0,,,,,,685244,,,,,,
62880,note_on,0,0,0,,,,,,,,0,,,52,0
62880,note_on,0,0,0,,,,,,,,0,,,80,36
62880,note_on,0,0,0,,,,,,,,0,,,88,41
62880,note_on,0,0,0,,,,,,,,0,,,64,37
62880,note_on,0,0,0,,,,,,,,0,,,71,37
62887,control_change,7,0,0,,,,,,,,0,64,0,,
62951,control_change,64,0,0,,,,,,,,0,64,127,,
62998,note_on,47,0,0,,,,,,,,0,,,64,0
63000,note_on,2,0,0,,,,,,,,0,,,59,34
63110,note_on,110,0,0,,,,,,,,0,,,80,0
63110,note_on,0,0,0,,,,,,,,0,,,88,0
63118,note_on,8,0,0,,,,,,,,0,,,59,0
63120,set_tempo,2,1,0,,,,,,653880,,,,,,
63120,note_on,0,0,0,,,,,,,,0,,,83,42
63120,note_on,0,0,0,,,,,,,,0,,,80,36
63120,note_on,0,0,0,,,,,,,,0,,,52,35
63132,control_change,12,0,0,,,,,,,,0,64,0,,
63205,control_change,73,0,0,,,,,,,,0,64,127,,
63238,note_on,33,0,0,,,,,,,,0,,,80,0
63238,note_on,0,0,0,,,,,,,,0,,,83,0
63240,note_on,2,0,0,,,,,,,,0,,,78,34
63240,note_on,0,0,0,,,,,,,,0,,,81,37
63350,note_on,110,0,0,,,,,,,,0,,,52,0
63358,note_on,8,0,0,,,,,,,,0,,,81,0
63358,note_on,0,0,0,,,,,,,,0,,,78,0
63360,set_tempo,2,1,0,,,,,,685244,,,,,,
63360,note_on,0,0,0,,,,,,,,0,,,71,0
63360,note_on,0,0,0,,,,,,,,0,,,76,40
63360,note_on,0,0,0,,,,,,,,0,,,80,45
63360,note_on,0,0,0,,,,,,,,0,,,52,32
63360,note_on,0,0,0,,,,,,,,0,,,59,36
63367,control_change,7,0,0,,,,,,,,0,64,0,,
63403,control_change,36,0,0,,,,,,,,0,64,127,,
63478,note_on,75,0,0,,,,,,,,0,,,59,0
63480,note_on,2,0,0,,,,,,,,0,,,64,35
63590,note_on,110,0,0,,,,,,,,0,,,76,0
63590,note_on,0,0,0,,,,,,,,0,,,80,0
63598,note_on,8,0,0,,,,,,,,0,,,64,0
63600,set_tempo,2,1,0,,,,,,653880,,,,,,
63600,note_on,0,0,0,,,,,,,,0,,,76,34
63600,note_on,0,0,0,,,,,,,,0,,,80,37
63600,note_on,0,0,0,,,,,,,,0,,,71,35
63619,control_change,19,0,0,,,,,,,,0,64,0,,
63650,control_change,31,0,0,,,,,,,,0,64,127,,
63718,note_on,68,0,0,,,,,,,,0,,,80,0
63718,note_on,0,0,0,,,,,,,,0,,,76,0
63720,note_on,2,0,0,,,,,,,,0,,,71,36
63720,note_on,0,0,0,,,,,,,,0,,,78,36
63727,control_change,7,0,0,,,,,,,,0,64,0,,
63830,note_on,103,0,0,,,,,,,,0,,,71,0
63838,note_on,8,0,0,,,,,,,,0,,,78,0
63838,note_on,0,0,0,,,,,,,,0,,,71,0
63840,set_tempo,2,1,0,,,,,,673174,,,,,,
63840,note_on,0,0,0,,,,,,,,0,,,52,0
63840,note_on,0,0,0,,,,,,,,0,,,68,36
63840,note_on,0,0,0,,,,,,,,0,,,76,42
63840,note_on,0,0,0,,,,,,,,0,,,64,36
63840,note_on,0,0,0,,,,,,,,0,,,71,36
63876,control_change,36,0,0,,,,,,,,0,64,127,,
63958,note_on,82,0,0,,,,,,,,0,,,64,0
63960,note_on,2,0,0,,,,,,,,0,,,59,35
64070,note_on,110,0,0,,,,,,,,0,,,68,0
64070,note_on,0,0,0,,,,,,,,0,,,76,0
64078,note_on,8,0,0,,,,,,,,0,,,59,0
64080,set_tempo,2,1,0,,,,,,715222,,,,,,
64080,note_on,0,0,0,,,,,,,,0,,,56,36
64080,note_on,0,0,0,,,,,,,,0,,,64,42
64080,note_on,0,0,0,,,,,,,,0,,,52,35
64090,control_change,10,0,0,,,,,,,,0,64,0,,
64138,note_on,48,0,0,,,,,,,,0,,,64,0
64138,note_on,0,0,0,,,,,,,,0,,,56,0
64200,note_on,62,0,0,,,,,,,,0,,,59,34
64200,note_on,0,0,0,,,,,,,,0,,,66,37
64258,note_on,58,0,0,,,,,,,,0,,,66,0
64258,note_on,0,0,0,,,,,,,,0,,,59,0
64310,note_on,52,0,0,,,,,,,,0,,,52,0
64320,set_tempo,10,1,0,,,,,,752823,,,,,,
64320,note_on,0,0,0,,,,,,,,0,,,71,0
64320,note_on,0,0,0,,,,,,,,0,,,64,40
64320,note_on,0,0,0,,,,,,,,0,,,68,45
64550,note_on,230,0,0,,,,,,,,0,,,68,0
64550,note_on,0,0,0,,,,,,,,0,,,64,0
64560,set_tempo,10,1,0,,,,,,841515,,,,,,
64560,note_on,0,0,0,,,,,,,,0,,,66,36
64560,note_on,0,0,0,,,,,,,,0,,,69,42
64618,note_on,58,0,0,,,,,,,,0,,,69,0
64618,note_on,0,0,0,,,,,,,,0,,,66,0
64680,set_tempo,62,1,0,,,,,,841515,,,,,,
64680,note_on,0,0,0,,,,,,,,0,,,64,32
64680,note_on,0,0,0,,,,,,,,0,,,68,36
64738,note_on,58,0,0,,,,,,,,0,,,68,0
64738,note_on,0,0,0,,,,,,,,0,,,64,0
64780,set_tempo,42,1,0,,,,,,853971,,,,,,
64800,set_tempo,20,1,0,,,,,,930377,,,,,,
64800,note_on,0,0,0,,,,,,,,0,,,59,33
64800,note_on,0,0,0,,,,,,,,0,,,66,36
65030,note_on,230,0,0,,,,,,,,0,,,66,0
65030,note_on,0,0,0,,,,,,,,0,,,59,0
65040,set_tempo,10,1,0,,,,,,1144383,,,,,,
65040,note_on,0,0,0,,,,,,,,0,,,64,36
65040,note_on,0,0,0,,,,,,,,0,,,68,41
65098,note_on,58,0,0,,,,,,,,0,,,68,0
65098,note_on,0,0,0,,,,,,,,0,,,64,0
65160,set_tempo,62,1,0,,,,,,1612037,,,,,,
65160,note_on,0,0,0,,,,,,,,0,,,59,31
65160,note_on,0,0,0,,,,,,,,0,,,66,35
65218,note_on,58,0,0,,,,,,,,0,,,66,0
65218,note_on,0,0,0,,,,,,,,0,,,59,0
65280,set_tempo,62,1,0,,,,,,894055,,,,,,
65280,note_on,0,0,0,,,,,,,,0,,,56,32
65280,note_on,0,0,0,,,,,,,,0,,,64,36
65760,note_on,480,0,0,,,,,,,,0,,,64,0
65760,note_on,0,0,0,,,,,,,,0,,,56,0
66000,note_on,240,0,0,,,,,,,,0,,,64,71
66000,note_on,0,0,0,,,,,,,,0,,,76,79
66000,note_on,0,0,0,,,,,,,,0,,,40,71
66000,note_on,0,0,0,,,,,,,,0,,,52,71
66118,note_on,118,0,0,,,,,,,,0,,,52,0
66118,note_on,0,0,0,,,,,,,,0,,,64,0
66118,note_on,0,0,0,,,,,,,,0,,,76,0
66118,note_on,0,0,0,,,,,,,,0,,,40,0
66240,key_signature,122,1,0,,,,,C,,,,,,,
66240,set_tempo,0,1,0,,,,,,733496,,,,,,
66240,note_on,0,0,0,,,,,,,,0,,,69,79
66240,note_on,0,0,0,,,,,,,,0,,,81,87
66240,note_on,0,0,0,,,,,,,,0,,,45,77
66240,note_on,0,0,0,,,,,,,,0,,,57,77
66960,set_tempo,720,1,0,,,,,,747943,,,,,,
66960,note_on,0,0,0,,,,,,,,0,,,57,0
66960,note_on,0,0,0,,,,,,,,0,,,69,0
66960,note_on,0,0,0,,,,,,,,0,,,81,0
66960,note_on,0,0,0,,,,,,,,0,,,45,0
66960,note_on,0,0,0,,,,,,,,0,,,64,72
66960,note_on,0,0,0,,,,,,,,0,,,76,81
66960,note_on,0,0,0,,,,,,,,0,,,40,72
66960,note_on,0,0,0,,,,,,,,0,,,52,72
67080,note_on,120,0,0,,,,,,,,0,,,52,0
67080,note_on,0,0,0,,,,,,,,0,,,64,0
67080,note_on,0,0,0,,,,,,,,0,,,76,0
67080,note_on,0,0,0,,,,,,,,0,,,40,0
67200,set_tempo,120,1,0,,,,,,762873,,,,,,
67200,note_on,0,0,0,,,,,,,,0,,,60,79
67200,note_on,0,0,0,,,,,,,,0,,,72,87
67200,note_on,0,0,0,,,,,,,,0,,,36,79
67200,note_on,0,0,0,,,,,,,,0,,,48,79
67440,set_tempo,240,1,0,,,,,,894055,,,,,,
67440,note_on,0,0,0,,,,,,,,0,,,48,0
67440,note_on,0,0,0,,,,,,,,0,,,60,0
67440,note_on,0,0,0,,,,,,,,0,,,72,0
67440,note_on,0,0,0,,,,,,,,0,,,36,0
67440,note_on,0,0,0,,,,,,,,0,,,57,74
67440,note_on,0,0,0,,,,,,,,0,,,69,83
67440,note_on,0,0,0,,,,,,,,0,,,33,75
67440,note_on,0,0,0,,,,,,,,0,,,45,75
67680,note_on,240,0,0,,,,,,,,0,,,45,0
67680,note_on,0,0,0,,,,,,,,0,,,57,0
67680,note_on,0,0,0,,,,,,,,0,,,69,0
67680,note_on,0,0,0,,,,,,,,0,,,33,0
67868,set_tempo,188,1,0,,,,,,625261,,,,,,
67920,note_on,52,0,0,,,,,,,,0,,,57,43
67920,note_on,0,0,0,,,,,,,,0,,,48,36
67944,set_tempo,24,1,0,,,,,,621891,,,,,,
67952,control_change,8,0,0,,,,,,,,0,64,127,,
67954,note_on,2,0,0,,,,,,,,0,,,59,43
67954,note_on,0,0,0,,,,,,,,0,,,50,36
67956,note_on,2,0,0,,,,,,,,0,,,48,0
67956,note_on,0,0,0,,,,,,,,0,,,57,0
67988,note_on,32,0,0,,,,,,,,0,,,60,43
67988,note_on,0,0,0,,,,,,,,0,,,52,36
67990,note_on,2,0,0,,,,,,,,0,,,59,0
67990,note_on,0,0,0,,,,,,,,0,,,50,0
68019,set_tempo,29,1,0,,,,,,618557,,,,,,
68022,note_on,3,0,0,,,,,,,,0,,,62,43
68022,note_on,0,0,0,,,,,,,,0,,,53,37
68024,note_on,2,0,0,,,,,,,,0,,,60,0
68024,note_on,0,0,0,,,,,,,,0,,,52,0
68056,note_on,32,0,0,,,,,,,,0,,,64,45
68056,note_on,0,0,0,,,,,,,,0,,,55,38
68058,note_on,2,0,0,,,,,,,,0,,,62,0
68058,note_on,0,0,0,,,,,,,,0,,,53,0
68090,note_on,32,0,0,,,,,,,,0,,,65,45
68090,note_on,0,0,0,,,,,,,,0,,,57,38
68092,note_on,2,0,0,,,,,,,,0,,,64,0
68092,note_on,0,0,0,,,,,,,,0,,,55,0
68095,set_tempo,3,1,0,,,,,,615195,,,,,,
68124,note_on,29,0,0,,,,,,,,0,,,67,45
68124,note_on,0,0,0,,,,,,,,0,,,59,40
68126,note_on,2,0,0,,,,,,,,0,,,65,0
68126,note_on,0,0,0,,,,,,,,0,,,57,0
68146,set_tempo,20,1,0,,,,,,611933,,,,,,
68160,note_on,14,0,0,,,,,,,,0,,,67,0
68160,note_on,0,0,0,,,,,,,,0,,,59,0
68160,note_on,0,0,0,,,,,,,,0,,,69,45
68160,note_on,0,0,0,,,,,,,,0,,,60,41
68194,note_on,34,0,0,,,,,,,,0,,,71,45
68194,note_on,0,0,0,,,,,,,,0,,,62,41
68196,note_on,2,0,0,,,,,,,,0,,,60,0
68196,note_on,0,0,0,,,,,,,,0,,,69,0
68222,set_tempo,26,1,0,,,,,,608704,,,,,,
68228,note_on,6,0,0,,,,,,,,0,,,72,45
68228,note_on,0,0,0,,,,,,,,0,,,64,41
68230,note_on,2,0,0,,,,,,,,0,,,71,0
68230,note_on,0,0,0,,,,,,,,0,,,62,0
68262,note_on,32,0,0,,,,,,,,0,,,74,45
68262,note_on,0,0,0,,,,,,,,0,,,65,41
68264,note_on,2,0,0,,,,,,,,0,,,72,0
68264,note_on,0,0,0,,,,,,,,0,,,64,0
68296,note_on,32,0,0,,,,,,,,0,,,76,47
68296,note_on,0,0,0,,,,,,,,0,,,67,42
68297,set_tempo,1,1,0,,,,,,605449,,,,,,
68298,note_on,1,0,0,,,,,,,,0,,,74,0
68298,note_on,0,0,0,,,,,,,,0,,,65,0
68330,note_on,32,0,0,,,,,,,,0,,,77,48
68330,note_on,0,0,0,,,,,,,,0,,,69,43
68332,note_on,2,0,0,,,,,,,,0,,,76,0
68332,note_on,0,0,0,,,,,,,,0,,,67,0
68364,note_on,32,0,0,,,,,,,,0,,,79,48
68364,note_on,0,0,0,,,,,,,,0,,,71,43
68366,note_on,2,0,0,,,,,,,,0,,,77,0
68366,note_on,0,0,0,,,,,,,,0,,,69,0
68373,set_tempo,7,1,0,,,,,,602289,,,,,,
68400,note_on,27,0,0,,,,,,,,0,,,79,0
68400,note_on,0,0,0,,,,,,,,0,,,71,0
68400,note_on,0,0,0,,,,,,,,0,,,81,47
68400,note_on,0,0,0,,,,,,,,0,,,72,42
68424,set_tempo,24,1,0,,,,,,599101,,,,,,
68434,note_on,10,0,0,,,,,,,,0,,,83,47
68434,note_on,0,0,0,,,,,,,,0,,,74,43
68436,note_on,2,0,0,,,,,,,,0,,,72,0
68436,note_on,0,0,0,,,,,,,,0,,,81,0
68468,note_on,32,0,0,,,,,,,,0,,,84,47
68468,note_on,0,0,0,,,,,,,,0,,,76,43
68470,note_on,2,0,0,,,,,,,,0,,,83,0
68470,note_on,0,0,0,,,,,,,,0,,,74,0
68499,set_tempo,29,1,0,,,,,,595948,,,,,,
68502,note_on,3,0,0,,,,,,,,0,,,86,48
68502,note_on,0,0,0,,,,,,,,0,,,77,43
68504,note_on,2,0,0,,,,,,,,0,,,84,0
68504,note_on,0,0,0,,,,,,,,0,,,76,0
68536,note_on,32,0,0,,,,,,,,0,,,88,48
68536,note_on,0,0,0,,,,,,,,0,,,79,44
68538,note_on,2,0,0,,,,,,,,0,,,86,0
68538,note_on,0,0,0,,,,,,,,0,,,77,0
68570,note_on,32,0,0,,,,,,,,0,,,89,47
68570,note_on,0,0,0,,,,,,,,0,,,81,42
68572,note_on,2,0,0,,,,,,,,0,,,88,0
68572,note_on,0,0,0,,,,,,,,0,,,79,0
68575,set_tempo,3,1,0,,,,,,592885,,,,,,
68604,note_on,29,0,0,,,,,,,,0,,,91,48
68604,note_on,0,0,0,,,,,,,,0,,,83,42
68606,note_on,2,0,0,,,,,,,,0,,,89,0
68606,note_on,0,0,0,,,,,,,,0,,,81,0
68626,set_tempo,20,1,0,,,,,,589855,,,,,,
68640,set_tempo,14,1,0,,,,,,724200,,,,,,
68640,note_on,0,0,0,,,,,,,,0,,,91,0
68640,note_on,0,0,0,,,,,,,,0,,,83,0
68640,note_on,0,0,0,,,,,,,,0,,,93,54
68640,note_on,0,0,0,,,,,,,,0,,,84,48
68649,control_change,9,0,0,,,,,,,,0,64,0,,
68758,note_on,109,0,0,,,,,,,,0,,,84,0
68758,note_on,0,0,0,,,,,,,,0,,,93,0
68880,set_tempo,122,1,0,,,,,,747943,,,,,,
68880,note_on,0,0,0,,,,,,,,0,,,96,54
68880,note_on,0,0,0,,,,,,,,0,,,86,34
68880,note_on,0,0,0,,,,,,,,0,,,89,34
68880,note_on,0,0,0,,,,,,,,0,,,83,32
68880,note_on,0,0,0,,,,,,,,0,,,74,27
68880,note_on,0,0,0,,,,,,,,0,,,77,27
68938,note_on,58,0,0,,,,,,,,0,,,77,0
68938,note_on,0,0,0,,,,,,,,0,,,86,0
68938,note_on,0,0,0,,,,,,,,0,,,89,0
68938,note_on,0,0,0,,,,,,,,0,,,96,0
68938,note_on,0,0,0,,,,,,,,0,,,74,0
68938,note_on,0,0,0,,,,,,,,0,,,83,0
69000,note_on,62,0,0,,,,,,,,0,,,86,34
69000,note_on,0,0,0,,,,,,,,0,,,89,34
69000,note_on,0,0,0,,,,,,,,0,,,95,46
69000,note_on,0,0,0,,,,,,,,0,,,74,27
69000,note_on,0,0,0,,,,,,,,0,,,77,27
69000,note_on,0,0,0,,,,,,,,0,,,83,32
69058,note_on,58,0,0,,,,,,,,0,,,83,0
69058,note_on,0,0,0,,,,,,,,0,,,89,0
69058,note_on,0,0,0,,,,,,,,0,,,95,0
69058,note_on,0,0,0,,,,,,,,0,,,86,0
69058,note_on,0,0,0,,,,,,,,0,,,77,0
69058,note_on,0,0,0,,,,,,,,0,,,74,0
69060,note_on,2,0,0,,,,,,,,0,,,64,36
69118,note_on,58,0,0,,,,,,,,0,,,64,0
69120,set_tempo,2,1,0,,,,,,706381,,,,,,
69120,note_on,0,0,0,,,,,,,,0,,,93,47
69120,note_on,0,0,0,,,,,,,,0,,,84,39
69120,note_on,0,0,0,,,,,,,,0,,,81,36
69120,note_on,0,0,0,,,,,,,,0,,,72,32
69120,note_on,0,0,0,,,,,,,,0,,,76,32
69140,control_change,20,0,0,,,,,,,,0,64,127,,
69160,note_on,20,0,0,,,,,,,,0,,,93,0
69160,note_on,0,0,0,,,,,,,,0,,,95,44
69200,note_on,40,0,0,,,,,,,,0,,,95,0
69200,note_on,0,0,0,,,,,,,,0,,,93,47
69240,note_on,40,0,0,,,,,,,,0,,,93,0
69240,note_on,0,0,0,,,,,,,,0,,,95,44
69280,note_on,40,0,0,,,,,,,,0,,,95,0
69280,note_on,0,0,0,,,,,,,,0,,,93,47
69320,note_on,40,0,0,,,,,,,,0,,,93,0
69320,note_on,0,0,0,,,,,,,,0,,,95,47
69360,note_on,40,0,0,,,,,,,,0,,,95,0
69370,note_on,10,0,0,,,,,,,,0,,,93,44
69420,note_on,50,0,0,,,,,,,,0,,,93,0
69420,note_on,0,0,0,,,,,,,,0,,,92,45
69480,note_on,60,0,0,,,,,,,,0,,,92,0
69480,note_on,0,0,0,,,,,,,,0,,,95,51
69540,note_on,60,0,0,,,,,,,,0,,,95,0
69540,note_on,0,0,0,,,,,,,,0,,,93,47
69600,note_on,60,0,0,,,,,,,,0,,,93,0
69600,note_on,0,0,0,,,,,,,,0,,,76,0
69600,note_on,0,0,0,,,,,,,,0,,,84,0
69600,note_on,0,0,0,,,,,,,,0,,,81,0
69600,note_on,0,0,0,,,,,,,,0,,,72,0
69600,note_on,0,0,0,,,,,,,,0,,,92,43
69600,note_on,0,0,0,,,,,,,,0,,,83,35
69600,note_on,0,0,0,,,,,,,,0,,,71,26
69600,note_on,0,0,0,,,,,,,,0,,,76,26
69600,note_on,0,0,0,,,,,,,,0,,,80,30
69618,control_change,18,0,0,,,,,,,,0,64,0,,
69810,note_on,192,0,0,,,,,,,,0,,,80,0
69810,note_on,0,0,0,,,,,,,,0,,,71,0
69810,note_on,0,0,0,,,,,,,,0,,,92,0
69810,note_on,0,0,0,,,,,,,,0,,,83,0
69810,note_on,0,0,0,,,,,,,,0,,,76,0
69840,set_tempo,30,1,0,,,,,,894055,,,,,,
69840,note_on,0,0,0,,,,,,,,0,,,62,71
69840,note_on,0,0,0,,,,,,,,0,,,74,79
69840,note_on,0,0,0,,,,,,,,0,,,38,71
69840,note_on,0,0,0,,,,,,,,0,,,50,71
69958,note_on,118,0,0,,,,,,,,0,,,50,0
69958,note_on,0,0,0,,,,,,,,0,,,62,0
69958,note_on,0,0,0,,,,,,,,0,,,74,0
69958,note_on,0,0,0,,,,,,,,0,,,38,0
70080,set_tempo,122,1,0,,,,,,733496,,,,,,
70080,note_on,0,0,0,,,,,,,,0,,,65,79
70080,note_on,0,0,0,,,,,,,,0,,,77,87
70080,note_on,0,0,0,,,,,,,,0,,,41,77
70080,note_on,0,0,0,,,,,,,,0,,,53,77
70800,set_tempo,720,1,0,,,,,,715222,,,,,,
70800,note_on,0,0,0,,,,,,,,0,,,53,0
70800,note_on,0,0,0,,,,,,,,0,,,65,0
70800,note_on,0,0,0,,,,,,,,0,,,77,0
70800,note_on,0,0,0,,,,,,,,0,,,41,0
70800,note_on,0,0,0,,,,,,,,0,,,62,72
70800,note_on,0,0,0,,,,,,,,0,,,74,81
70800,note_on,0,0,0,,,,,,,,0,,,38,72
70800,note_on,0,0,0,,,,,,,,0,,,50,72
70920,note_on,120,0,0,,,,,,,,0,,,50,0
70920,note_on,0,0,0,,,,,,,,0,,,62,0
70920,note_on,0,0,0,,,,,,,,0,,,74,0
70920,note_on,0,0,0,,,,,,,,0,,,38,0
71040,set_tempo,120,1,0,,,,,,733496,,,,,,
71040,note_on,0,0,0,,,,,,,,0,,,59,79
71040,note_on,0,0,0,,,,,,,,0,,,71,87
71040,note_on,0,0,0,,,,,,,,0,,,35,79
71040,note_on,0,0,0,,,,,,,,0,,,47,79
71270,note_on,230,0,0,,,,,,,,0,,,47,0
71270,note_on,0,0,0,,,,,,,,0,,,59,0
71270,note_on,0,0,0,,,,,,,,0,,,71,0
71270,note_on,0,0,0,,,,,,,,0,,,35,0
71280,set_tempo,10,1,0,,,,,,894055,,,,,,
71280,note_on,0,0,0,,,,,,,,0,,,56,74
71280,note_on,0,0,0,,,,,,,,0,,,68,83
71280,note_on,0,0,0,,,,,,,,0,,,32,74
71280,note_on,0,0,0,,,,,,,,0,,,44,74
71520,note_on,240,0,0,,,,,,,,0,,,44,0
71520,note_on,0,0,0,,,,,,,,0,,,56,0
71520,note_on,0,0,0,,,,,,,,0,,,68,0
71520,note_on,0,0,0,,,,,,,,0,,,32,0
71740,set_tempo,220,1,0,,,,,,693481,,,,,,
71760,set_tempo,20,1,0,,,,,,715222,,,,,,
71760,note_on,0,0,0,,,,,,,,0,,,59,43
71760,note_on,0,0,0,,,,,,,,0,,,50,36
71776,control_change,16,0,0,,,,,,,,0,64,127,,
71794,note_on,18,0,0,,,,,,,,0,,,60,43
71794,note_on,0,0,0,,,,,,,,0,,,52,36
71796,note_on,2,0,0,,,,,,,,0,,,50,0
71796,note_on,0,0,0,,,,,,,,0,,,59,0
71809,set_tempo,13,1,0,,,,,,635728,,,,,,
71828,note_on,19,0,0,,,,,,,,0,,,62,43
71828,note_on,0,0,0,,,,,,,,0,,,53,36
71830,note_on,2,0,0,,,,,,,,0,,,60,0
71830,note_on,0,0,0,,,,,,,,0,,,52,0
71859,set_tempo,29,1,0,,,,,,632244,,,,,,
71862,note_on,3,0,0,,,,,,,,0,,,64,43
71862,note_on,0,0,0,,,,,,,,0,,,55,37
71864,note_on,2,0,0,,,,,,,,0,,,62,0
71864,note_on,0,0,0,,,,,,,,0,,,53,0
71896,note_on,32,0,0,,,,,,,,0,,,65,44
71896,note_on,0,0,0,,,,,,,,0,,,57,37
71898,note_on,2,0,0,,,,,,,,0,,,64,0
71898,note_on,0,0,0,,,,,,,,0,,,55,0
71910,set_tempo,12,1,0,,,,,,628733,,,,,,
71930,note_on,20,0,0,,,,,,,,0,,,67,45
71930,note_on,0,0,0,,,,,,,,0,,,59,38
71932,note_on,2,0,0,,,,,,,,0,,,65,0
71932,note_on,0,0,0,,,,,,,,0,,,57,0
71960,set_tempo,28,1,0,,,,,,625261,,,,,,
71964,note_on,4,0,0,,,,,,,,0,,,69,45
71964,note_on,0,0,0,,,,,,,,0,,,60,40
71966,note_on,2,0,0,,,,,,,,0,,,67,0
71966,note_on,0,0,0,,,,,,,,0,,,59,0
72000,note_on,34,0,0,,,,,,,,0,,,69,0
72000,note_on,0,0,0,,,,,,,,0,,,60,0
72000,note_on,0,0,0,,,,,,,,0,,,71,45
72000,note_on,0,0,0,,,,,,,,0,,,62,40
72011,set_tempo,11,1,0,,,,,,621891,,,,,,
72034,note_on,23,0,0,,,,,,,,0,,,72,45
72034,note_on,0,0,0,,,,,,,,0,,,64,41
72036,note_on,2,0,0,,,,,,,,0,,,62,0
72036,note_on,0,0,0,,,,,,,,0,,,71,0
72062,set_tempo,26,1,0,,,,,,618557,,,,,,
72068,note_on,6,0,0,,,,,,,,0,,,74,45
72068,note_on,0,0,0,,,,,,,,0,,,65,41
72070,note_on,2,0,0,,,,,,,,0,,,72,0
72070,note_on,0,0,0,,,,,,,,0,,,64,0
72102,note_on,32,0,0,,,,,,,,0,,,76,45
72102,note_on,0,0,0,,,,,,,,0,,,67,41
72104,note_on,2,0,0,,,,,,,,0,,,74,0
72104,note_on,0,0,0,,,,,,,,0,,,65,0
72112,set_tempo,8,1,0,,,,,,615195,,,,,,
72136,note_on,24,0,0,,,,,,,,0,,,77,47
72136,note_on,0,0,0,,,,,,,,0,,,69,42
72138,note_on,2,0,0,,,,,,,,0,,,76,0
72138,note_on,0,0,0,,,,,,,,0,,,67,0
72163,set_tempo,25,1,0,,,,,,611933,,,,,,
72170,note_on,7,0,0,,,,,,,,0,,,79,47
72170,note_on,0,0,0,,,,,,,,0,,,71,43
72172,note_on,2,0,0,,,,,,,,0,,,77,0
72172,note_on,0,0,0,,,,,,,,0,,,69,0
72204,note_on,32,0,0,,,,,,,,0,,,81,48
72204,note_on,0,0,0,,,,,,,,0,,,72,43
72206,note_on,2,0,0,,,,,,,,0,,,79,0
72206,note_on,0,0,0,,,,,,,,0,,,71,0
72213,set_tempo,7,1,0,,,,,,608704,,,,,,
72240,note_on,27,0,0,,,,,,,,0,,,81,0
72240,note_on,0,0,0,,,,,,,,0,,,72,0
72240,note_on,0,0,0,,,,,,,,0,,,83,47
72240,note_on,0,0,0,,,,,,,,0,,,74,42
72264,set_tempo,24,1,0,,,,,,605449,,,,,,
72274,note_on,10,0,0,,,,,,,,0,,,84,47
72274,note_on,0,0,0,,,,,,,,0,,,76,42
72276,note_on,2,0,0,,,,,,,,0,,,74,0
72276,note_on,0,0,0,,,,,,,,0,,,83,0
72308,note_on,32,0,0,,,,,,,,0,,,86,47
72308,note_on,0,0,0,,,,,,,,0,,,77,43
72310,note_on,2,0,0,,,,,,,,0,,,84,0
72310,note_on,0,0,0,,,,,,,,0,,,76,0
72314,set_tempo,4,1,0,,,,,,602289,,,,,,
72342,note_on,28,0,0,,,,,,,,0,,,88,47
72342,note_on,0,0,0,,,,,,,,0,,,79,43
72344,note_on,2,0,0,,,,,,,,0,,,86,0
72344,note_on,0,0,0,,,,,,,,0,,,77,0
72365,set_tempo,21,1,0,,,,,,599101,,,,,,
72376,note_on,11,0,0,,,,,,,,0,,,89,48
72376,note_on,0,0,0,,,,,,,,0,,,81,43
72378,note_on,2,0,0,,,,,,,,0,,,88,0
72378,note_on,0,0,0,,,,,,,,0,,,79,0
72410,note_on,32,0,0,,,,,,,,0,,,91,47
72410,note_on,0,0,0,,,,,,,,0,,,83,42
72412,note_on,2,0,0,,,,,,,,0,,,89,0
72412,note_on,0,0,0,,,,,,,,0,,,81,0
72415,set_tempo,3,1,0,,,,,,595948,,,,,,
72444,note_on,29,0,0,,,,,,,,0,,,93,47
72444,note_on,0,0,0,,,,,,,,0,,,84,42
72446,note_on,2,0,0,,,,,,,,0,,,91,0
72446,note_on,0,0,0,,,,,,,,0,,,83,0
72466,set_tempo,20,1,0,,,,,,592885,,,,,,
72480,set_tempo,14,1,0,,,,,,697756,,,,,,
72480,note_on,0,0,0,,,,,,,,0,,,93,0
72480,note_on,0,0,0,,,,,,,,0,,,84,0
72480,note_on,0,0,0,,,,,,,,0,,,95,53
72480,note_on,0,0,0,,,,,,,,0,,,86,48
72495,control_change,15,0,0,,,,,,,,0,64,0,,
72598,note_on,103,0,0,,,,,,,,0,,,86,0
72598,note_on,0,0,0,,,,,,,,0,,,95,0
72720,set_tempo,122,1,0,,,,,,719683,,,,,,
72720,note_on,0,0,0,,,,,,,,0,,,98,49
72720,note_on,0,0,0,,,,,,,,0,,,89,34
72720,note_on,0,0,0,,,,,,,,0,,,68,27
72720,note_on,0,0,0,,,,,,,,0,,,77,32
72778,note_on,58,0,0,,,,,,,,0,,,77,0
72778,note_on,0,0,0,,,,,,,,0,,,98,0
72778,note_on,0,0,0,,,,,,,,0,,,89,0
72778,note_on,0,0,0,,,,,,,,0,,,68,0
72840,note_on,62,0,0,,,,,,,,0,,,88,34
72840,note_on,0,0,0,,,,,,,,0,,,96,45
72840,note_on,0,0,0,,,,,,,,0,,,76,32
72840,note_on,0,0,0,,,,,,,,0,,,68,27
72898,note_on,58,0,0,,,,,,,,0,,,68,0
72898,note_on,0,0,0,,,,,,,,0,,,88,0
72898,note_on,0,0,0,,,,,,,,0,,,96,0
72898,note_on,0,0,0,,,,,,,,0,,,76,0
72960,set_tempo,62,1,0,,,,,,706381,,,,,,
72960,note_on,0,0,0,,,,,,,,0,,,95,47
72960,note_on,0,0,0,,,,,,,,0,,,86,39
72960,note_on,0,0,0,,,,,,,,0,,,80,36
72960,note_on,0,0,0,,,,,,,,0,,,69,32
72960,note_on,0,0,0,,,,,,,,0,,,77,32
73000,note_on,40,0,0,,,,,,,,0,,,95,0
73000,note_on,0,0,0,,,,,,,,0,,,96,44
73008,control_change,8,0,0,,,,,,,,0,64,127,,
73040,note_on,32,0,0,,,,,,,,0,,,96,0
73040,note_on,0,0,0,,,,,,,,0,,,95,47
73080,note_on,40,0,0,,,,,,,,0,,,95,0
73080,note_on,0,0,0,,,,,,,,0,,,96,44
73120,note_on,40,0,0,,,,,,,,0,,,96,0
73120,note_on,0,0,0,,,,,,,,0,,,95,47
73160,note_on,40,0,0,,,,,,,,0,,,95,0
73160,note_on,0,0,0,,,,,,,,0,,,96,47
73200,note_on,40,0,0,,,,,,,,0,,,96,0
73210,note_on,10,0,0,,,,,,,,0,,,95,44
73260,note_on,50,0,0,,,,,,,,0,,,95,0
73260,note_on,0,0,0,,,,,,,,0,,,93,45
73320,note_on,60,0,0,,,,,,,,0,,,93,0
73320,note_on,0,0,0,,,,,,,,0,,,96,51
73380,note_on,60,0,0,,,,,,,,0,,,96,0
73380,note_on,0,0,0,,,,,,,,0,,,95,47
73440,note_on,60,0,0,,,,,,,,0,,,95,0
73440,note_on,0,0,0,,,,,,,,0,,,77,0
73440,note_on,0,0,0,,,,,,,,0,,,86,0
73440,note_on,0,0,0,,,,,,,,0,,,80,0
73440,note_on,0,0,0,,,,,,,,0,,,69,0
73440,note_on,0,0,0,,,,,,,,0,,,93,43
73440,note_on,0,0,0,,,,,,,,0,,,84,35
73440,note_on,0,0,0,,,,,,,,0,,,69,30
73440,note_on,0,0,0,,,,,,,,0,,,76,30
73440,note_on,0,0,0,,,,,,,,0,,,81,34
73466,control_change,26,0,0,,,,,,,,0,64,0,,
73640,note_on,174,0,0,,,,,,,,0,,,81,0
73640,note_on,0,0,0,,,,,,,,0,,,69,0
73640,note_on,0,0,0,,,,,,,,0,,,93,0
73640,note_on,0,0,0,,,,,,,,0,,,84,0
73640,note_on,0,0,0,,,,,,,,0,,,76,0
73680,note_on,40,0,0,,,,,,,,0,,,100,56
73680,note_on,0,0,0,,,,,,,,0,,,88,51
73738,note_on,58,0,0,,,,,,,,0,,,88,0
73738,note_on,0,0,0,,,,,,,,0,,,100,0
73920,set_tempo,182,1,0,,,,,,677124,,,,,,
73920,note_on,0,0,0,,,,,,,,0,,,105,63
73920,note_on,0,0,0,,,,,,,,0,,,93,55
73978,note_on,58,0,0,,,,,,,,0,,,93,0
73978,note_on,0,0,0,,,,,,,,0,,,105,0
74160,set_tempo,182,1,0,,,,,,635728,,,,,,
74160,note_on,0,0,0,,,,,,,,0,,,64,45
74218,note_on,58,0,0,,,,,,,,0,,,64,0
74220,note_on,2,0,0,,,,,,,,0,,,62,43
74278,note_on,58,0,0,,,,,,,,0,,,62,0
74280,note_on,2,0,0,,,,,,,,0,,,61,45
74310,note_on,30,0,0,,,,,,,,0,,,67,27
74338,note_on,28,0,0,,,,,,,,0,,,61,0
74340,note_on,2,0,0,,,,,,,,0,,,59,44
74340,note_on,0,0,0,,,,,,,,0,,,73,27
74370,note_on,30,0,0,,,,,,,,0,,,76,27
74398,note_on,28,0,0,,,,,,,,0,,,59,0
74400,set_tempo,2,1,0,,,,,,685244,,,,,,
74400,note_on,0,0,0,,,,,,,,0,,,57,50
74400,note_on,0,0,0,,,,,,,,0,,,81,33
74580,note_on,180,0,0,,,,,,,,0,,,81,0
74580,note_on,0,0,0,,,,,,,,0,,,67,0
74580,note_on,0,0,0,,,,,,,,0,,,76,0
74580,note_on,0,0,0,,,,,,,,0,,,73,0
74580,note_on,0,0,0,,,,,,,,0,,,57,0
74640,set_tempo,60,1,0,,,,,,639318,,,,,,
74640,note_on,0,0,0,,,,,,,,0,,,93,44
74698,note_on,58,0,0,,,,,,,,0,,,93,0
74700,note_on,2,0,0,,,,,,,,0,,,91,41
74758,note_on,58,0,0,,,,,,,,0,,,91,0
74760,note_on,2,0,0,,,,,,,,0,,,89,44
74818,note_on,58,0,0,,,,,,,,0,,,89,0
74820,note_on,2,0,0,,,,,,,,0,,,88,40
74878,note_on,58,0,0,,,,,,,,0,,,88,0
74880,set_tempo,2,1,0,,,,,,657606,,,,,,
74880,note_on,0,0,0,,,,,,,,0,,,89,47
75060,note_on,180,0,0,,,,,,,,0,,,89,0
75120,set_tempo,60,1,0,,,,,,635728,,,,,,
75120,note_on,0,0,0,,,,,,,,0,,,69,45
75120,note_on,0,0,0,,,,,,,,0,,,74,27
75120,note_on,0,0,0,,,,,,,,0,,,81,31
75120,note_on,0,0,0,,,,,,,,0,,,77,27
75178,note_on,58,0,0,,,,,,,,0,,,69,0
75180,note_on,2,0,0,,,,,,,,0,,,67,42
75238,note_on,58,0,0,,,,,,,,0,,,67,0
75240,note_on,2,0,0,,,,,,,,0,,,65,45
75298,note_on,58,0,0,,,,,,,,0,,,65,0
75300,note_on,2,0,0,,,,,,,,0,,,74,0
75300,note_on,0,0,0,,,,,,,,0,,,81,0
75300,note_on,0,0,0,,,,,,,,0,,,77,0
75300,note_on,0,0,0,,,,,,,,0,,,64,43
75358,note_on,58,0,0,,,,,,,,0,,,64,0
75360,set_tempo,2,1,0,,,,,,681122,,,,,,
75360,note_on,0,0,0,,,,,,,,0,,,62,49
75360,note_on,0,0,0,,,,,,,,0,,,86,36
75360,note_on,0,0,0,,,,,,,,0,,,81,32
75360,note_on,0,0,0,,,,,,,,0,,,77,32
75540,note_on,180,0,0,,,,,,,,0,,,77,0
75540,note_on,0,0,0,,,,,,,,0,,,62,0
75540,note_on,0,0,0,,,,,,,,0,,,86,0
75540,note_on,0,0,0,,,,,,,,0,,,81,0
75600,set_tempo,60,1,0,,,,,,702083,,,,,,
75600,note_on,0,0,0,,,,,,,,0,,,101,56
75600,note_on,0,0,0,,,,,,,,0,,,93,56
75658,note_on,58,0,0,,,,,,,,0,,,93,0
75658,note_on,0,0,0,,,,,,,,0,,,101,0
75840,set_tempo,182,1,0,,,,,,685244,,,,,,
75840,note_on,0,0,0,,,,,,,,0,,,98,63
75840,note_on,0,0,0,,,,,,,,0,,,89,63
75898,note_on,58,0,0,,,,,,,,0,,,89,0
75898,note_on,0,0,0,,,,,,,,0,,,98,0
76080,set_tempo,182,1,0,,,,,,653880,,,,,,
76080,note_on,0,0,0,,,,,,,,0,,,62,45
76138,note_on,58,0,0,,,,,,,,0,,,62,0
76140,note_on,2,0,0,,,,,,,,0,,,60,43
76198,note_on,58,0,0,,,,,,,,0,,,60,0
76200,note_on,2,0,0,,,,,,,,0,,,59,45
76230,note_on,30,0,0,,,,,,,,0,,,65,27
76258,note_on,28,0,0,,,,,,,,0,,,59,0
76260,note_on,2,0,0,,,,,,,,0,,,57,44
76260,note_on,0,0,0,,,,,,,,0,,,71,27
76290,note_on,30,0,0,,,,,,,,0,,,74,27
76318,note_on,28,0,0,,,,,,,,0,,,57,0
76320,set_tempo,2,1,0,,,,,,715222,,,,,,
76320,note_on,0,0,0,,,,,,,,0,,,55,49
76320,note_on,0,0,0,,,,,,,,0,,,79,34
76500,note_on,180,0,0,,,,,,,,0,,,79,0
76500,note_on,0,0,0,,,,,,,,0,,,65,0
76500,note_on,0,0,0,,,,,,,,0,,,74,0
76500,note_on,0,0,0,,,,,,,,0,,,71,0
76500,note_on,0,0,0,,,,,,,,0,,,55,0
76560,set_tempo,60,1,0,,,,,,611933,,,,,,
76560,note_on,0,0,0,,,,,,,,0,,,91,42
76618,note_on,58,0,0,,,,,,,,0,,,91,0
76620,note_on,2,0,0,,,,,,,,0,,,89,39
76678,note_on,58,0,0,,,,,,,,0,,,89,0
76680,note_on,2,0,0,,,,,,,,0,,,88,42
76738,note_on,58,0,0,,,,,,,,0,,,88,0
76740,note_on,2,0,0,,,,,,,,0,,,86,39
76798,note_on,58,0,0,,,,,,,,0,,,86,0
76800,set_tempo,2,1,0,,,,,,657606,,,,,,
76800,note_on,0,0,0,,,,,,,,0,,,88,45
76980,note_on,180,0,0,,,,,,,,0,,,88,0
77040,set_tempo,60,1,0,,,,,,635728,,,,,,
77040,note_on,0,0,0,,,,,,,,0,,,67,45
77040,note_on,0,0,0,,,,,,,,0,,,72,27
77040,note_on,0,0,0,,,,,,,,0,,,79,31
77040,note_on,0,0,0,,,,,,,,0,,,76,27
77098,note_on,58,0,0,,,,,,,,0,,,67,0
77100,note_on,2,0,0,,,,,,,,0,,,65,43
77158,note_on,58,0,0,,,,,,,,0,,,65,0
77160,note_on,2,0,0,,,,,,,,0,,,64,45
77218,note_on,58,0,0,,,,,,,,0,,,64,0
77220,note_on,2,0,0,,,,,,,,0,,,72,0
77220,note_on,0,0,0,,,,,,,,0,,,79,0
77220,note_on,0,0,0,,,,,,,,0,,,76,0
77220,note_on,0,0,0,,,,,,,,0,,,62,43
77278,note_on,58,0,0,,,,,,,,0,,,62,0
77280,set_tempo,2,1,0,,,,,,681122,,,,,,
77280,note_on,0,0,0,,,,,,,,0,,,60,49
77280,note_on,0,0,0,,,,,,,,0,,,84,36
77280,note_on,0,0,0,,,,,,,,0,,,79,32
77280,note_on,0,0,0,,,,,,,,0,,,76,32
77460,note_on,180,0,0,,,,,,,,0,,,76,0
77460,note_on,0,0,0,,,,,,,,0,,,60,0
77460,note_on,0,0,0,,,,,,,,0,,,84,0
77460,note_on,0,0,0,,,,,,,,0,,,79,0
77520,set_tempo,60,1,0,,,,,,724375,,,,,,
77520,note_on,0,0,0,,,,,,,,0,,,100,60
77520,note_on,0,0,0,,,,,,,,0,,,91,60
77578,note_on,58,0,0,,,,,,,,0,,,91,0
77578,note_on,0,0,0,,,,,,,,0,,,100,0
77760,set_tempo,182,1,0,,,,,,692601,,,,,,
77760,note_on,0,0,0,,,,,,,,0,,,98,64
77760,note_on,0,0,0,,,,,,,,0,,,89,64
77818,note_on,58,0,0,,,,,,,,0,,,89,0
77818,note_on,0,0,0,,,,,,,,0,,,98,0
78000,set_tempo,182,1,0,,,,,,653880,,,,,,
78000,note_on,0,0,0,,,,,,,,0,,,74,46
78058,note_on,58,0,0,,,,,,,,0,,,74,0
78060,note_on,2,0,0,,,,,,,,0,,,72,43
78118,note_on,58,0,0,,,,,,,,0,,,72,0
78120,set_tempo,2,1,0,,,,,,737101,,,,,,
78120,note_on,0,0,0,,,,,,,,0,,,71,46
78178,note_on,58,0,0,,,,,,,,0,,,71,0
78180,note_on,2,0,0,,,,,,,,0,,,69,43
78238,note_on,58,0,0,,,,,,,,0,,,69,0
78240,set_tempo,2,1,0,,,,,,708132,,,,,,
78240,note_on,0,0,0,,,,,,,,0,,,68,52
78240,note_on,0,0,0,,,,,,,,0,,,86,36
78240,note_on,0,0,0,,,,,,,,0,,,83,33
78240,note_on,0,0,0,,,,,,,,0,,,77,33
78420,note_on,180,0,0,,,,,,,,0,,,77,0
78420,note_on,0,0,0,,,,,,,,0,,,68,0
78420,note_on,0,0,0,,,,,,,,0,,,86,0
78420,note_on,0,0,0,,,,,,,,0,,,83,0
78480,set_tempo,60,1,0,,,,,,702083,,,,,,
78480,note_on,0,0,0,,,,,,,,0,,,98,60
78480,note_on,0,0,0,,,,,,,,0,,,89,60
78538,note_on,58,0,0,,,,,,,,0,,,89,0
78538,note_on,0,0,0,,,,,,,,0,,,98,0
78720,set_tempo,182,1,0,,,,,,685244,,,,,,
78720,note_on,0,0,0,,,,,,,,0,,,96,64
78720,note_on,0,0,0,,,,,,,,0,,,88,64
78778,note_on,58,0,0,,,,,,,,0,,,88,0
78778,note_on,0,0,0,,,,,,,,0,,,96,0
78960,set_tempo,182,1,0,,,,,,639318,,,,,,
78960,note_on,0,0,0,,,,,,,,0,,,76,46
79018,note_on,58,0,0,,,,,,,,0,,,76,0
79020,note_on,2,0,0,,,,,,,,0,,,74,43
79078,note_on,58,0,0,,,,,,,,0,,,74,0
79080,note_on,2,0,0,,,,,,,,0,,,72,46
79138,note_on,58,0,0,,,,,,,,0,,,72,0
79140,note_on,2,0,0,,,,,,,,0,,,71,44
79198,note_on,58,0,0,,,,,,,,0,,,71,0
79200,set_tempo,2,1,0,,,,,,673174,,,,,,
79200,note_on,0,0,0,,,,,,,,0,,,69,52
79200,note_on,0,0,0,,,,,,,,0,,,84,36
79200,note_on,0,0,0,,,,,,,,0,,,81,33
79200,note_on,0,0,0,,,,,,,,0,,,76,33
79380,note_on,180,0,0,,,,,,,,0,,,76,0
79380,note_on,0,0,0,,,,,,,,0,,,69,0
79380,note_on,0,0,0,,,,,,,,0,,,84,0
79380,note_on,0,0,0,,,,,,,,0,,,81,0
79440,set_tempo,60,1,0,,,,,,639318,,,,,,
79440,note_on,0,0,0,,,,,,,,0,,,72,46
79498,note_on,58,0,0,,,,,,,,0,,,72,0
79500,note_on,2,0,0,,,,,,,,0,,,71,44
79558,note_on,58,0,0,,,,,,,,0,,,71,0
79560,note_on,2,0,0,,,,,,,,0,,,69,46
79618,note_on,58,0,0,,,,,,,,0,,,69,0
79620,note_on,2,0,0,,,,,,,,0,,,67,45
79678,note_on,58,0,0,,,,,,,,0,,,67,0
79680,set_tempo,2,1,0,,,,,,677124,,,,,,
79680,note_on,0,0,0,,,,,,,,0,,,65,52
79680,note_on,0,0,0,,,,,,,,0,,,84,36
79680,note_on,0,0,0,,,,,,,,0,,,81,33
79680,note_on,0,0,0,,,,,,,,0,,,77,33
79860,note_on,180,0,0,,,,,,,,0,,,77,0
79860,note_on,0,0,0,,,,,,,,0,,,65,0
79860,note_on,0,0,0,,,,,,,,0,,,84,0
79860,note_on,0,0,0,,,,,,,,0,,,81,0
79920,set_tempo,60,1,0,,,,,,642880,,,,,,
79920,note_on,0,0,0,,,,,,,,0,,,69,46
79978,note_on,58,0,0,,,,,,,,0,,,69,0
79980,note_on,2,0,0,,,,,,,,0,,,67,45
80038,note_on,58,0,0,,,,,,,,0,,,67,0
80040,set_tempo,2,1,0,,,,,,665336,,,,,,
80040,note_on,0,0,0,,,,,,,,0,,,65,46
80098,note_on,58,0,0,,,,,,,,0,,,65,0
80100,set_tempo,2,1,0,,,,,,681122,,,,,,
80100,note_on,0,0,0,,,,,,,,0,,,64,44
80158,note_on,58,0,0,,,,,,,,0,,,64,0
80160,set_tempo,2,1,0,,,,,,697756,,,,,,
80160,note_on,0,0,0,,,,,,,,0,,,63,52
80160,note_on,0,0,0,,,,,,,,0,,,77,33
80160,note_on,0,0,0,,,,,,,,0,,,81,36
80160,note_on,0,0,0,,,,,,,,0,,,72,33
80340,note_on,180,0,0,,,,,,,,0,,,72,0
80340,note_on,0,0,0,,,,,,,,0,,,63,0
80340,note_on,0,0,0,,,,,,,,0,,,77,0
80340,note_on,0,0,0,,,,,,,,0,,,81,0
80400,set_tempo,60,1,0,,,,,,646482,,,,,,
80400,note_on,0,0,0,,,,,,,,0,,,96,47
80458,note_on,58,0,0,,,,,,,,0,,,96,0
80460,note_on,2,0,0,,,,,,,,0,,,93,45
80518,note_on,58,0,0,,,,,,,,0,,,93,0
80520,note_on,2,0,0,,,,,,,,0,,,89,47
80578,note_on,58,0,0,,,,,,,,0,,,89,0
80580,note_on,2,0,0,,,,,,,,0,,,87,45
80638,note_on,58,0,0,,,,,,,,0,,,87,0
80640,set_tempo,2,1,0,,,,,,673174,,,,,,
80640,note_on,0,0,0,,,,,,,,0,,,88,53
80640,note_on,0,0,0,,,,,,,,0,,,80,32
80640,note_on,0,0,0,,,,,,,,0,,,64,27
80640,note_on,0,0,0,,,,,,,,0,,,71,27
80820,note_on,180,0,0,,,,,,,,0,,,71,0
80820,note_on,0,0,0,,,,,,,,0,,,88,0
80820,note_on,0,0,0,,,,,,,,0,,,80,0
80820,note_on,0,0,0,,,,,,,,0,,,64,0
80880,set_tempo,60,1,0,,,,,,642880,,,,,,
80880,note_on,0,0,0,,,,,,,,0,,,76,43
80897,control_change,17,0,0,,,,,,,,0,64,127,,
80938,note_on,41,0,0,,,,,,,,0,,,76,0
80940,note_on,2,0,0,,,,,,,,0,,,71,40
80998,note_on,58,0,0,,,,,,,,0,,,71,0
81000,note_on,2,0,0,,,,,,,,0,,,68,44
81058,note_on,58,0,0,,,,,,,,0,,,68,0
81060,note_on,2,0,0,,,,,,,,0,,,71,42
81118,note_on,58,0,0,,,,,,,,0,,,71,0
81120,set_tempo,2,1,0,,,,,,789266,,,,,,
81120,note_on,0,0,0,,,,,,,,0,,,64,47
81128,control_change,8,0,0,,,,,,,,0,64,0,,
81300,note_on,172,0,0,,,,,,,,0,,,64,0
81360,set_tempo,60,1,0,,,,,,969775,,,,,,
81360,note_on,0,0,0,,,,,,,,0,,,67,71
81360,note_on,0,0,0,,,,,,,,0,,,79,79
81360,note_on,0,0,0,,,,,,,,0,,,43,71
81360,note_on,0,0,0,,,,,,,,0,,,55,71
81478,note_on,118,0,0,,,,,,,,0,,,55,0
81478,note_on,0,0,0,,,,,,,,0,,,67,0
81478,note_on,0,0,0,,,,,,,,0,,,79,0
81478,note_on,0,0,0,,,,,,,,0,,,43,0
81600,set_tempo,122,1,0,,,,,,733496,,,,,,
81600,note_on,0,0,0,,,,,,,,0,,,72,79
81600,note_on,0,0,0,,,,,,,,0,,,84,87
81600,note_on,0,0,0,,,,,,,,0,,,48,77
81600,note_on,0,0,0,,,,,,,,0,,,60,77
82320,set_tempo,720,1,0,,,,,,715222,,,,,,
82320,note_on,0,0,0,,,,,,,,0,,,60,0
82320,note_on,0,0,0,,,,,,,,0,,,72,0
82320,note_on,0,0,0,,,,,,,,0,,,84,0
82320,note_on,0,0,0,,,,,,,,0,,,48,0
82320,note_on,0,0,0,,,,,,,,0,,,67,72
82320,note_on,0,0,0,,,,,,,,0,,,79,81
82320,note_on,0,0,0,,,,,,,,0,,,43,72
82320,note_on,0,0,0,,,,,,,,0,,,55,72
82440,note_on,120,0,0,,,,,,,,0,,,55,0
82440,note_on,0,0,0,,,,,,,,0,,,67,0
82440,note_on,0,0,0,,,,,,,,0,,,79,0
82440,note_on,0,0,0,,,,,,,,0,,,43,0
82560,set_tempo,120,1,0,,,,,,673174,,,,,,
82560,note_on,0,0,0,,,,,,,,0,,,64,79
82560,note_on,0,0,0,,,,,,,,0,,,76,87
82560,note_on,0,0,0,,,,,,,,0,,,40,79
82560,note_on,0,0,0,,,,,,,,0,,,52,79
82800,set_tempo,240,1,0,,,,,,894055,,,,,,
82800,note_on,0,0,0,,,,,,,,0,,,52,0
82800,note_on,0,0,0,,,,,,,,0,,,64,0
82800,note_on,0,0,0,,,,,,,,0,,,76,0
82800,note_on,0,0,0,,,,,,,,0,,,40,0
82800,note_on,0,0,0,,,,,,,,0,,,60,75
82800,note_on,0,0,0,,,,,,,,0,,,72,84
82800,note_on,0,0,0,,,,,,,,0,,,36,76
82800,note_on,0,0,0,,,,,,,,0,,,48,76
83040,note_on,240,0,0,,,,,,,,0,,,48,0
83040,note_on,0,0,0,,,,,,,,0,,,60,0
83040,note_on,0,0,0,,,,,,,,0,,,72,0
83040,note_on,0,0,0,,,,,,,,0,,,36,0
83244,set_tempo,204,1,0,,,,,,641574,,,,,,
83280,note_on,36,0,0,,,,,,,,0,,,60,43
83280,note_on,0,0,0,,,,,,,,0,,,52,36
83296,control_change,16,0,0,,,,,,,,0,64,127,,
83314,note_on,18,0,0,,,,,,,,0,,,62,43
83314,note_on,0,0,0,,,,,,,,0,,,53,36
83316,note_on,2,0,0,,,,,,,,0,,,52,0
83316,note_on,0,0,0,,,,,,,,0,,,60,0
83319,set_tempo,3,1,0,,,,,,638298,,,,,,
83348,note_on,29,0,0,,,,,,,,0,,,64,43
83348,note_on,0,0,0,,,,,,,,0,,,55,36
83350,note_on,2,0,0,,,,,,,,0,,,62,0
83350,note_on,0,0,0,,,,,,,,0,,,53,0
83370,set_tempo,20,1,0,,,,,,635122,,,,,,
83382,note_on,12,0,0,,,,,,,,0,,,65,43
83382,note_on,0,0,0,,,,,,,,0,,,57,37
83384,note_on,2,0,0,,,,,,,,0,,,64,0
83384,note_on,0,0,0,,,,,,,,0,,,55,0
83416,note_on,32,0,0,,,,,,,,0,,,67,44
83416,note_on,0,0,0,,,,,,,,0,,,59,37
83418,note_on,2,0,0,,,,,,,,0,,,65,0
83418,note_on,0,0,0,,,,,,,,0,,,57,0
83446,set_tempo,28,1,0,,,,,,631912,,,,,,
83450,note_on,4,0,0,,,,,,,,0,,,69,45
83450,note_on,0,0,0,,,,,,,,0,,,60,38
83452,note_on,2,0,0,,,,,,,,0,,,67,0
83452,note_on,0,0,0,,,,,,,,0,,,59,0
83484,note_on,32,0,0,,,,,,,,0,,,71,45
83484,note_on,0,0,0,,,,,,,,0,,,62,40
83486,note_on,2,0,0,,,,,,,,0,,,69,0
83486,note_on,0,0,0,,,,,,,,0,,,60,0
83496,set_tempo,10,1,0,,,,,,628799,,,,,,
83520,note_on,24,0,0,,,,,,,,0,,,71,0
83520,note_on,0,0,0,,,,,,,,0,,,62,0
83520,note_on,0,0,0,,,,,,,,0,,,72,45
83520,note_on,0,0,0,,,,,,,,0,,,64,40
83554,note_on,34,0,0,,,,,,,,0,,,74,45
83554,note_on,0,0,0,,,,,,,,0,,,65,41
83556,note_on,2,0,0,,,,,,,,0,,,64,0
83556,note_on,0,0,0,,,,,,,,0,,,72,0
83572,set_tempo,16,1,0,,,,,,625652,,,,,,
83588,note_on,16,0,0,,,,,,,,0,,,76,45
83588,note_on,0,0,0,,,,,,,,0,,,67,41
83590,note_on,2,0,0,,,,,,,,0,,,74,0
83590,note_on,0,0,0,,,,,,,,0,,,65,0
83622,note_on,32,0,0,,,,,,,,0,,,77,45
83622,note_on,0,0,0,,,,,,,,0,,,69,41
83623,set_tempo,1,1,0,,,,,,622536,,,,,,
83624,note_on,1,0,0,,,,,,,,0,,,76,0
83624,note_on,0,0,0,,,,,,,,0,,,67,0
83656,note_on,32,0,0,,,,,,,,0,,,79,47
83656,note_on,0,0,0,,,,,,,,0,,,71,42
83658,note_on,2,0,0,,,,,,,,0,,,77,0
83658,note_on,0,0,0,,,,,,,,0,,,69,0
83673,set_tempo,15,1,0,,,,,,619515,,,,,,
83690,note_on,17,0,0,,,,,,,,0,,,81,47
83690,note_on,0,0,0,,,,,,,,0,,,72,43
83692,note_on,2,0,0,,,,,,,,0,,,79,0
83692,note_on,0,0,0,,,,,,,,0,,,71,0
83724,note_on,32,0,0,,,,,,,,0,,,83,48
83724,note_on,0,0,0,,,,,,,,0,,,74,43
83726,note_on,2,0,0,,,,,,,,0,,,81,0
83726,note_on,0,0,0,,,,,,,,0,,,72,0
83749,set_tempo,23,1,0,,,,,,616459,,,,,,
83760,note_on,11,0,0,,,,,,,,0,,,83,0
83760,note_on,0,0,0,,,,,,,,0,,,74,0
83760,note_on,0,0,0,,,,,,,,0,,,84,47
83760,note_on,0,0,0,,,,,,,,0,,,76,42
83794,note_on,34,0,0,,,,,,,,0,,,86,47
83794,note_on,0,0,0,,,,,,,,0,,,77,42
83796,note_on,2,0,0,,,,,,,,0,,,76,0
83796,note_on,0,0,0,,,,,,,,0,,,84,0
83799,set_tempo,3,1,0,,,,,,613497,,,,,,
83828,note_on,29,0,0,,,,,,,,0,,,88,47
83828,note_on,0,0,0,,,,,,,,0,,,79,43
83830,note_on,2,0,0,,,,,,,,0,,,86,0
83830,note_on,0,0,0,,,,,,,,0,,,77,0
83862,note_on,32,0,0,,,,,,,,0,,,89,48
83862,note_on,0,0,0,,,,,,,,0,,,81,43
83864,note_on,2,0,0,,,,,,,,0,,,88,0
83864,note_on,0,0,0,,,,,,,,0,,,79,0
83875,set_tempo,11,1,0,,,,,,610501,,,,,,
83896,note_on,21,0,0,,,,,,,,0,,,91,48
83896,note_on,0,0,0,,,,,,,,0,,,83,43
83898,note_on,2,0,0,,,,,,,,0,,,89,0
83898,note_on,0,0,0,,,,,,,,0,,,81,0
83926,set_tempo,28,1,0,,,,,,607595,,,,,,
83930,note_on,4,0,0,,,,,,,,0,,,93,47
83930,note_on,0,0,0,,,,,,,,0,,,84,42
83932,note_on,2,0,0,,,,,,,,0,,,91,0
83932,note_on,0,0,0,,,,,,,,0,,,83,0
83964,note_on,32,0,0,,,,,,,,0,,,95,48
83964,note_on,0,0,0,,,,,,,,0,,,86,42
83966,note_on,2,0,0,,,,,,,,0,,,93,0
83966,note_on,0,0,0,,,,,,,,0,,,84,0
83976,set_tempo,10,1,0,,,,,,604656,,,,,,
83980,set_tempo,4,1,0,,,,,,661521,,,,,,
84000,set_tempo,20,1,0,,,,,,665336,,,,,,
84000,note_on,0,0,0,,,,,,,,0,,,95,0
84000,note_on,0,0,0,,,,,,,,0,,,86,0
84000,note_on,0,0,0,,,,,,,,0,,,96,53
84000,note_on,0,0,0,,,,,,,,0,,,88,48
84009,control_change,9,0,0,,,,,,,,0,64,0,,
84118,note_on,109,0,0,,,,,,,,0,,,88,0
84118,note_on,0,0,0,,,,,,,,0,,,96,0
84240,set_tempo,122,1,0,,,,,,693481,,,,,,
84240,note_on,0,0,0,,,,,,,,0,,,100,54
84240,note_on,0,0,0,,,,,,,,0,,,89,34
84240,note_on,0,0,0,,,,,,,,0,,,93,34
84240,note_on,0,0,0,,,,,,,,0,,,86,32
84240,note_on,0,0,0,,,,,,,,0,,,77,27
84240,note_on,0,0,0,,,,,,,,0,,,81,27
84298,note_on,58,0,0,,,,,,,,0,,,81,0
84298,note_on,0,0,0,,,,,,,,0,,,89,0
84298,note_on,0,0,0,,,,,,,,0,,,93,0
84298,note_on,0,0,0,,,,,,,,0,,,100,0
84298,note_on,0,0,0,,,,,,,,0,,,77,0
84298,note_on,0,0,0,,,,,,,,0,,,86,0
84360,note_on,62,0,0,,,,,,,,0,,,89,34
84360,note_on,0,0,0,,,,,,,,0,,,93,34
84360,note_on,0,0,0,,,,,,,,0,,,98,45
84360,note_on,0,0,0,,,,,,,,0,,,77,27
84360,note_on,0,0,0,,,,,,,,0,,,81,27
84360,note_on,0,0,0,,,,,,,,0,,,86,32
84418,note_on,58,0,0,,,,,,,,0,,,86,0
84418,note_on,0,0,0,,,,,,,,0,,,93,0
84418,note_on,0,0,0,,,,,,,,0,,,98,0
84418,note_on,0,0,0,,,,,,,,0,,,89,0
84418,note_on,0,0,0,,,,,,,,0,,,81,0
84418,note_on,0,0,0,,,,,,,,0,,,77,0
84420,note_on,2,0,0,,,,,,,,0,,,67,36
84480,set_tempo,60,1,0,,,,,,677124,,,,,,
84480,note_on,0,0,0,,,,,,,,0,,,96,47
84480,note_on,0,0,0,,,,,,,,0,,,88,39
84480,note_on,0,0,0,,,,,,,,0,,,84,36
84480,note_on,0,0,0,,,,,,,,0,,,76,36
84520,note_on,40,0,0,,,,,,,,0,,,96,0
84520,note_on,0,0,0,,,,,,,,0,,,98,44
84521,control_change,1,0,0,,,,,,,,0,64,127,,
84560,note_on,39,0,0,,,,,,,,0,,,98,0
84560,note_on,0,0,0,,,,,,,,0,,,96,47
84600,note_on,40,0,0,,,,,,,,0,,,96,0
84600,note_on,0,0,0,,,,,,,,0,,,98,44
84640,note_on,40,0,0,,,,,,,,0,,,98,0
84640,note_on,0,0,0,,,,,,,,0,,,96,47
84680,note_on,40,0,0,,,,,,,,0,,,96,0
84680,note_on,0,0,0,,,,,,,,0,,,98,47
84720,note_on,40,0,0,,,,,,,,0,,,98,0
84730,note_on,10,0,0,,,,,,,,0,,,96,44
84780,note_on,50,0,0,,,,,,,,0,,,96,0
84780,note_on,0,0,0,,,,,,,,0,,,95,45
84838,note_on,58,0,0,,,,,,,,0,,,95,0
84840,note_on,2,0,0,,,,,,,,0,,,98,51
84898,note_on,58,0,0,,,,,,,,0,,,98,0
84900,note_on,2,0,0,,,,,,,,0,,,96,47
84958,note_on,58,0,0,,,,,,,,0,,,96,0
84960,note_on,2,0,0,,,,,,,,0,,,76,0
84960,note_on,0,0,0,,,,,,,,0,,,67,0
84960,note_on,0,0,0,,,,,,,,0,,,88,0
84960,note_on,0,0,0,,,,,,,,0,,,84,0
84960,note_on,0,0,0,,,,,,,,0,,,95,43
84960,note_on,0,0,0,,,,,,,,0,,,86,39
84960,note_on,0,0,0,,,,,,,,0,,,67,34
84960,note_on,0,0,0,,,,,,,,0,,,74,34
84960,note_on,0,0,0,,,,,,,,0,,,83,34
84973,control_change,13,0,0,,,,,,,,0,64,0,,
85170,note_on,197,0,0,,,,,,,,0,,,83,0
85170,note_on,0,0,0,,,,,,,,0,,,67,0
85170,note_on,0,0,0,,,,,,,,0,,,95,0
85170,note_on,0,0,0,,,,,,,,0,,,86,0
85170,note_on,0,0,0,,,,,,,,0,,,74,0
85200,set_tempo,30,1,0,,,,,,894055,,,,,,
85200,note_on,0,0,0,,,,,,,,0,,,62,63
85200,note_on,0,0,0,,,,,,,,0,,,74,71
85200,note_on,0,0,0,,,,,,,,0,,,38,63
85200,note_on,0,0,0,,,,,,,,0,,,50,63
85318,note_on,118,0,0,,,,,,,,0,,,50,0
85318,note_on,0,0,0,,,,,,,,0,,,62,0
85318,note_on,0,0,0,,,,,,,,0,,,74,0
85318,note_on,0,0,0,,,,,,,,0,,,38,0
85440,set_tempo,122,1,0,,,,,,733496,,,,,,
85440,note_on,0,0,0,,,,,,,,0,,,65,71
85440,note_on,0,0,0,,,,,,,,0,,,77,79
85440,note_on,0,0,0,,,,,,,,0,,,41,70
85440,note_on,0,0,0,,,,,,,,0,,,53,70
86160,set_tempo,720,1,0,,,,,,778513,,,,,,
86160,note_on,0,0,0,,,,,,,,0,,,53,0
86160,note_on,0,0,0,,,,,,,,0,,,65,0
86160,note_on,0,0,0,,,,,,,,0,,,77,0
86160,note_on,0,0,0,,,,,,,,0,,,41,0
86160,note_on,0,0,0,,,,,,,,0,,,62,64
86160,note_on,0,0,0,,,,,,,,0,,,74,72
86160,note_on,0,0,0,,,,,,,,0,,,38,64
86160,note_on,0,0,0,,,,,,,,0,,,50,64
86340,note_on,180,0,0,,,,,,,,0,,,50,0
86340,note_on,0,0,0,,,,,,,,0,,,62,0
86340,note_on,0,0,0,,,,,,,,0,,,74,0
86340,note_on,0,0,0,,,,,,,,0,,,38,0
86400,set_tempo,60,1,0,,,,,,757863,,,,,,
86400,note_on,0,0,0,,,,,,,,0,,,59,71
86400,note_on,0,0,0,,,,,,,,0,,,71,79
86400,note_on,0,0,0,,,,,,,,0,,,35,71
86400,note_on,0,0,0,,,,,,,,0,,,47,71
86640,set_tempo,240,1,0,,,,,,894055,,,,,,
86640,note_on,0,0,0,,,,,,,,0,,,47,0
86640,note_on,0,0,0,,,,,,,,0,,,59,0
86640,note_on,0,0,0,,,,,,,,0,,,71,0
86640,note_on,0,0,0,,,,,,,,0,,,35,0
86640,note_on,0,0,0,,,,,,,,0,,,55,67
86640,note_on,0,0,0,,,,,,,,0,,,67,67
86640,note_on,0,0,0,,,,,,,,0,,,31,67
86640,note_on,0,0,0,,,,,,,,0,,,43,67
86880,note_on,240,0,0,,,,,,,,0,,,43,0
86880,note_on,0,0,0,,,,,,,,0,,,55,0
86880,note_on,0,0,0,,,,,,,,0,,,67,0
86880,note_on,0,0,0,,,,,,,,0,,,31,0
87100,set_tempo,220,1,0,,,,,,693481,,,,,,
87104,set_tempo,4,1,0,,,,,,639318,,,,,,
87120,note_on,16,0,0,,,,,,,,0,,,59,43
87120,note_on,0,0,0,,,,,,,,0,,,50,36
87139,control_change,19,0,0,,,,,,,,0,64,127,,
87154,note_on,15,0,0,,,,,,,,0,,,60,43
87154,note_on,0,0,0,,,,,,,,0,,,52,36
87156,note_on,2,0,0,,,,,,,,0,,,50,0
87156,note_on,0,0,0,,,,,,,,0,,,59,0
87180,set_tempo,24,1,0,,,,,,635728,,,,,,
87188,note_on,8,0,0,,,,,,,,0,,,62,43
87188,note_on,0,0,0,,,,,,,,0,,,53,36
87190,note_on,2,0,0,,,,,,,,0,,,60,0
87190,note_on,0,0,0,,,,,,,,0,,,52,0
87222,note_on,32,0,0,,,,,,,,0,,,64,43
87222,note_on,0,0,0,,,,,,,,0,,,55,37
87224,note_on,2,0,0,,,,,,,,0,,,62,0
87224,note_on,0,0,0,,,,,,,,0,,,53,0
87231,set_tempo,7,1,0,,,,,,632244,,,,,,
87256,note_on,25,0,0,,,,,,,,0,,,65,44
87256,note_on,0,0,0,,,,,,,,0,,,57,37
87258,note_on,2,0,0,,,,,,,,0,,,64,0
87258,note_on,0,0,0,,,,,,,,0,,,55,0
87290,note_on,32,0,0,,,,,,,,0,,,67,45
87290,note_on,0,0,0,,,,,,,,0,,,59,38
87292,note_on,2,0,0,,,,,,,,0,,,65,0
87292,note_on,0,0,0,,,,,,,,0,,,57,0
87306,set_tempo,14,1,0,,,,,,628733,,,,,,
87324,note_on,18,0,0,,,,,,,,0,,,69,45
87324,note_on,0,0,0,,,,,,,,0,,,60,40
87326,note_on,2,0,0,,,,,,,,0,,,67,0
87326,note_on,0,0,0,,,,,,,,0,,,59,0
87357,set_tempo,31,1,0,,,,,,625261,,,,,,
87360,note_on,3,0,0,,,,,,,,0,,,69,0
87360,note_on,0,0,0,,,,,,,,0,,,60,0
87360,note_on,0,0,0,,,,,,,,0,,,71,45
87360,note_on,0,0,0,,,,,,,,0,,,62,40
87394,note_on,34,0,0,,,,,,,,0,,,72,45
87394,note_on,0,0,0,,,,,,,,0,,,64,41
87396,note_on,2,0,0,,,,,,,,0,,,62,0
87396,note_on,0,0,0,,,,,,,,0,,,71,0
87428,note_on,32,0,0,,,,,,,,0,,,74,45
87428,note_on,0,0,0,,,,,,,,0,,,65,41
87430,note_on,2,0,0,,,,,,,,0,,,72,0
87430,note_on,0,0,0,,,,,,,,0,,,64,0
87433,set_tempo,3,1,0,,,,,,621891,,,,,,
87462,note_on,29,0,0,,,,,,,,0,,,76,45
87462,note_on,0,0,0,,,,,,,,0,,,67,41
87464,note_on,2,0,0,,,,,,,,0,,,74,0
87464,note_on,0,0,0,,,,,,,,0,,,65,0
87483,set_tempo,19,1,0,,,,,,618557,,,,,,
87496,note_on,13,0,0,,,,,,,,0,,,77,47
87496,note_on,0,0,0,,,,,,,,0,,,69,42
87498,note_on,2,0,0,,,,,,,,0,,,76,0
87498,note_on,0,0,0,,,,,,,,0,,,67,0
87530,note_on,32,0,0,,,,,,,,0,,,79,47
87530,note_on,0,0,0,,,,,,,,0,,,71,43
87532,note_on,2,0,0,,,,,,,,0,,,77,0
87532,note_on,0,0,0,,,,,,,,0,,,69,0
87559,set_tempo,27,1,0,,,,,,615195,,,,,,
87564,note_on,5,0,0,,,,,,,,0,,,81,48
87564,note_on,0,0,0,,,,,,,,0,,,72,43
87566,note_on,2,0,0,,,,,,,,0,,,79,0
87566,note_on,0,0,0,,,,,,,,0,,,71,0
87600,note_on,34,0,0,,,,,,,,0,,,81,0
87600,note_on,0,0,0,,,,,,,,0,,,72,0
87600,note_on,0,0,0,,,,,,,,0,,,83,47
87600,note_on,0,0,0,,,,,,,,0,,,74,42
87610,set_tempo,10,1,0,,,,,,611933,,,,,,
87634,note_on,24,0,0,,,,,,,,0,,,84,47
87634,note_on,0,0,0,,,,,,,,0,,,76,42
87636,note_on,2,0,0,,,,,,,,0,,,74,0
87636,note_on,0,0,0,,,,,,,,0,,,83,0
87668,note_on,32,0,0,,,,,,,,0,,,86,47
87668,note_on,0,0,0,,,,,,,,0,,,77,43
87670,note_on,2,0,0,,,,,,,,0,,,84,0
87670,note_on,0,0,0,,,,,,,,0,,,76,0
87685,set_tempo,15,1,0,,,,,,608704,,,,,,
87702,note_on,17,0,0,,,,,,,,0,,,88,47
87702,note_on,0,0,0,,,,,,,,0,,,79,43
87704,note_on,2,0,0,,,,,,,,0,,,86,0
87704,note_on,0,0,0,,,,,,,,0,,,77,0
87736,set_tempo,32,1,0,,,,,,605449,,,,,,
87736,note_on,0,0,0,,,,,,,,0,,,89,48
87736,note_on,0,0,0,,,,,,,,0,,,81,43
87738,note_on,2,0,0,,,,,,,,0,,,88,0
87738,note_on,0,0,0,,,,,,,,0,,,79,0
87770,note_on,32,0,0,,,,,,,,0,,,91,47
87770,note_on,0,0,0,,,,,,,,0,,,83,42
87772,note_on,2,0,0,,,,,,,,0,,,89,0
87772,note_on,0,0,0,,,,,,,,0,,,81,0
87786,set_tempo,14,1,0,,,,,,602289,,,,,,
87804,note_on,18,0,0,,,,,,,,0,,,93,47
87804,note_on,0,0,0,,,,,,,,0,,,84,42
87806,note_on,2,0,0,,,,,,,,0,,,91,0
87806,note_on,0,0,0,,,,,,,,0,,,83,0
87820,set_tempo,14,1,0,,,,,,661521,,,,,,
87840,set_tempo,20,1,0,,,,,,697756,,,,,,
87840,note_on,0,0,0,,,,,,,,0,,,93,0
87840,note_on,0,0,0,,,,,,,,0,,,84,0
87840,note_on,0,0,0,,,,,,,,0,,,95,53
87840,note_on,0,0,0,,,,,,,,0,,,86,48
87852,control_change,12,0,0,,,,,,,,0,64,0,,
87958,note_on,106,0,0,,,,,,,,0,,,86,0
87958,note_on,0,0,0,,,,,,,,0,,,95,0
88080,set_tempo,122,1,0,,,,,,719683,,,,,,
88080,note_on,0,0,0,,,,,,,,0,,,101,51
88080,note_on,0,0,0,,,,,,,,0,,,93,34
88080,note_on,0,0,0,,,,,,,,0,,,71,27
88080,note_on,0,0,0,,,,,,,,0,,,81,32
88138,note_on,58,0,0,,,,,,,,0,,,81,0
88138,note_on,0,0,0,,,,,,,,0,,,101,0
88138,note_on,0,0,0,,,,,,,,0,,,93,0
88138,note_on,0,0,0,,,,,,,,0,,,71,0
88200,note_on,62,0,0,,,,,,,,0,,,91,34
88200,note_on,0,0,0,,,,,,,,0,,,100,45
88200,note_on,0,0,0,,,,,,,,0,,,79,32
88200,note_on,0,0,0,,,,,,,,0,,,71,27
88258,note_on,58,0,0,,,,,,,,0,,,71,0
88258,note_on,0,0,0,,,,,,,,0,,,91,0
88258,note_on,0,0,0,,,,,,,,0,,,100,0
88258,note_on,0,0,0,,,,,,,,0,,,79,0
88320,set_tempo,62,1,0,,,,,,706381,,,,,,
88320,note_on,0,0,0,,,,,,,,0,,,98,47
88320,note_on,0,0,0,,,,,,,,0,,,89,39
88320,note_on,0,0,0,,,,,,,,0,,,77,36
88320,note_on,0,0,0,,,,,,,,0,,,71,32
88320,note_on,0,0,0,,,,,,,,0,,,67,32
88360,note_on,40,0,0,,,,,,,,0,,,98,0
88360,note_on,0,0,0,,,,,,,,0,,,100,44
88363,control_change,3,0,0,,,,,,,,0,64,127,,
88400,note_on,37,0,0,,,,,,,,0,,,100,0
88400,note_on,0,0,0,,,,,,,,0,,,98,47
88440,note_on,40,0,0,,,,,,,,0,,,98,0
88440,note_on,0,0,0,,,,,,,,0,,,100,44
88480,note_on,40,0,0,,,,,,,,0,,,100,0
88480,note_on,0,0,0,,,,,,,,0,,,98,47
88520,note_on,40,0,0,,,,,,,,0,,,98,0
88520,note_on,0,0,0,,,,,,,,0,,,100,47
88560,note_on,40,0,0,,,,,,,,0,,,100,0
88570,note_on,10,0,0,,,,,,,,0,,,98,44
88620,note_on,50,0,0,,,,,,,,0,,,98,0
88620,note_on,0,0,0,,,,,,,,0,,,97,45
88678,note_on,58,0,0,,,,,,,,0,,,97,0
88680,note_on,2,0,0,,,,,,,,0,,,100,51
88738,note_on,58,0,0,,,,,,,,0,,,100,0
88740,note_on,2,0,0,,,,,,,,0,,,98,47
88798,note_on,58,0,0,,,,,,,,0,,,98,0
88800,set_tempo,2,1,0,,,,,,689338,,,,,,
88800,note_on,0,0,0,,,,,,,,0,,,67,0
88800,note_on,0,0,0,,,,,,,,0,,,89,0
88800,note_on,0,0,0,,,,,,,,0,,,77,0
88800,note_on,0,0,0,,,,,,,,0,,,71,0
88800,note_on,0,0,0,,,,,,,,0,,,96,43
88800,note_on,0,0,0,,,,,,,,0,,,88,35
88800,note_on,0,0,0,,,,,,,,0,,,72,30
88800,note_on,0,0,0,,,,,,,,0,,,76,34
88816,control_change,16,0,0,,,,,,,,0,64,0,,
89000,note_on,184,0,0,,,,,,,,0,,,76,0
89000,note_on,0,0,0,,,,,,,,0,,,96,0
89000,note_on,0,0,0,,,,,,,,0,,,88,0
89000,note_on,0,0,0,,,,,,,,0,,,72,0
89040,note_on,40,0,0,,,,,,,,0,,,91,65
89098,note_on,58,0,0,,,,,,,,0,,,91,0
89280,set_tempo,182,1,0,,,,,,677124,,,,,,
89280,note_on,0,0,0,,,,,,,,0,,,96,73
89338,note_on,58,0,0,,,,,,,,0,,,96,0
89520,set_tempo,182,1,0,,,,,,635728,,,,,,
89520,note_on,0,0,0,,,,,,,,0,,,67,45
89578,note_on,58,0,0,,,,,,,,0,,,67,0
89580,note_on,2,0,0,,,,,,,,0,,,65,43
89638,note_on,58,0,0,,,,,,,,0,,,65,0
89640,note_on,2,0,0,,,,,,,,0,,,64,45
89670,note_on,30,0,0,,,,,,,,0,,,70,27
89698,note_on,28,0,0,,,,,,,,0,,,64,0
89700,note_on,2,0,0,,,,,,,,0,,,62,43
89700,note_on,0,0,0,,,,,,,,0,,,76,27
89730,note_on,30,0,0,,,,,,,,0,,,79,27
89758,note_on,28,0,0,,,,,,,,0,,,62,0
89760,set_tempo,2,1,0,,,,,,685244,,,,,,
89760,note_on,0,0,0,,,,,,,,0,,,60,50
89760,note_on,0,0,0,,,,,,,,0,,,84,33
89940,note_on,180,0,0,,,,,,,,0,,,84,0
89940,note_on,0,0,0,,,,,,,,0,,,70,0
89940,note_on,0,0,0,,,,,,,,0,,,79,0
89940,note_on,0,0,0,,,,,,,,0,,,76,0
89940,note_on,0,0,0,,,,,,,,0,,,60,0
90000,set_tempo,60,1,0,,,,,,628733,,,,,,
90000,note_on,0,0,0,,,,,,,,0,,,84,43
90058,note_on,58,0,0,,,,,,,,0,,,84,0
90060,note_on,2,0,0,,,,,,,,0,,,88,39
90118,note_on,58,0,0,,,,,,,,0,,,88,0
90120,note_on,2,0,0,,,,,,,,0,,,91,43
90178,note_on,58,0,0,,,,,,,,0,,,91,0
90180,note_on,2,0,0,,,,,,,,0,,,88,39
90238,note_on,58,0,0,,,,,,,,0,,,88,0
90240,set_tempo,2,1,0,,,,,,657606,,,,,,
90240,note_on,0,0,0,,,,,,,,0,,,89,45
90420,note_on,180,0,0,,,,,,,,0,,,89,0
90480,set_tempo,60,1,0,,,,,,635728,,,,,,
90480,note_on,0,0,0,,,,,,,,0,,,72,45
90480,note_on,0,0,0,,,,,,,,0,,,81,31
90480,note_on,0,0,0,,,,,,,,0,,,77,27
90538,note_on,58,0,0,,,,,,,,0,,,72,0
90540,note_on,2,0,0,,,,,,,,0,,,70,42
90598,note_on,58,0,0,,,,,,,,0,,,70,0
90600,note_on,2,0,0,,,,,,,,0,,,69,45
90658,note_on,58,0,0,,,,,,,,0,,,69,0
90660,note_on,2,0,0,,,,,,,,0,,,77,0
90660,note_on,0,0,0,,,,,,,,0,,,81,0
90660,note_on,0,0,0,,,,,,,,0,,,67,43
90718,note_on,58,0,0,,,,,,,,0,,,67,0
90720,set_tempo,2,1,0,,,,,,681122,,,,,,
90720,note_on,0,0,0,,,,,,,,0,,,65,49
90720,note_on,0,0,0,,,,,,,,0,,,72,32
90720,note_on,0,0,0,,,,,,,,0,,,81,36
90720,note_on,0,0,0,,,,,,,,0,,,77,32
90900,note_on,180,0,0,,,,,,,,0,,,77,0
90900,note_on,0,0,0,,,,,,,,0,,,65,0
90900,note_on,0,0,0,,,,,,,,0,,,72,0
90900,note_on,0,0,0,,,,,,,,0,,,81,0
90960,set_tempo,60,1,0,,,,,,702083,,,,,,
90960,note_on,0,0,0,,,,,,,,0,,,101,56
90960,note_on,0,0,0,,,,,,,,0,,,93,51
91018,note_on,58,0,0,,,,,,,,0,,,93,0
91018,note_on,0,0,0,,,,,,,,0,,,101,0
91200,set_tempo,182,1,0,,,,,,685244,,,,,,
91200,note_on,0,0,0,,,,,,,,0,,,98,63
91200,note_on,0,0,0,,,,,,,,0,,,90,55
91258,note_on,58,0,0,,,,,,,,0,,,90,0
91258,note_on,0,0,0,,,,,,,,0,,,98,0
91440,set_tempo,182,1,0,,,,,,653880,,,,,,
91440,note_on,0,0,0,,,,,,,,0,,,69,45
91498,note_on,58,0,0,,,,,,,,0,,,69,0
91500,note_on,2,0,0,,,,,,,,0,,,67,42
91558,note_on,58,0,0,,,,,,,,0,,,67,0
91560,note_on,2,0,0,,,,,,,,0,,,66,45
91590,note_on,30,0,0,,,,,,,,0,,,72,27
91618,note_on,28,0,0,,,,,,,,0,,,66,0
91620,note_on,2,0,0,,,,,,,,0,,,64,43
91620,note_on,0,0,0,,,,,,,,0,,,78,27
91650,note_on,30,0,0,,,,,,,,0,,,81,27
91678,note_on,28,0,0,,,,,,,,0,,,64,0
91680,set_tempo,2,1,0,,,,,,715222,,,,,,
91680,note_on,0,0,0,,,,,,,,0,,,62,49
91680,note_on,0,0,0,,,,,,,,0,,,86,34
91860,note_on,180,0,0,,,,,,,,0,,,86,0
91860,note_on,0,0,0,,,,,,,,0,,,72,0
91860,note_on,0,0,0,,,,,,,,0,,,81,0
91860,note_on,0,0,0,,,,,,,,0,,,78,0
91860,note_on,0,0,0,,,,,,,,0,,,62,0
91920,set_tempo,60,1,0,,,,,,611933,,,,,,
91920,note_on,0,0,0,,,,,,,,0,,,86,49
91978,note_on,58,0,0,,,,,,,,0,,,86,0
91980,note_on,2,0,0,,,,,,,,0,,,90,51
92038,note_on,58,0,0,,,,,,,,0,,,90,0
92040,note_on,2,0,0,,,,,,,,0,,,93,53
92098,note_on,58,0,0,,,,,,,,0,,,93,0
92100,note_on,2,0,0,,,,,,,,0,,,90,50
92158,note_on,58,0,0,,,,,,,,0,,,90,0
92160,set_tempo,2,1,0,,,,,,657606,,,,,,
92160,note_on,0,0,0,,,,,,,,0,,,91,52
92340,note_on,180,0,0,,,,,,,,0,,,91,0
92400,set_tempo,60,1,0,,,,,,615195,,,,,,
92400,note_on,0,0,0,,,,,,,,0,,,74,47
92400,note_on,0,0,0,,,,,,,,0,,,79,30
92400,note_on,0,0,0,,,,,,,,0,,,83,34
92458,note_on,58,0,0,,,,,,,,0,,,74,0
92460,note_on,2,0,0,,,,,,,,0,,,72,44
92518,note_on,58,0,0,,,,,,,,0,,,72,0
92520,note_on,2,0,0,,,,,,,,0,,,71,47
92578,note_on,58,0,0,,,,,,,,0,,,71,0
92580,note_on,2,0,0,,,,,,,,0,,,83,0
92580,note_on,0,0,0,,,,,,,,0,,,79,0
92580,note_on,0,0,0,,,,,,,,0,,,69,44
92638,note_on,58,0,0,,,,,,,,0,,,69,0
92640,set_tempo,2,1,0,,,,,,642880,,,,,,
92640,note_on,0,0,0,,,,,,,,0,,,67,52
92640,note_on,0,0,0,,,,,,,,0,,,83,40
92640,note_on,0,0,0,,,,,,,,0,,,79,35
92640,note_on,0,0,0,,,,,,,,0,,,74,35
92820,note_on,180,0,0,,,,,,,,0,,,74,0
92820,note_on,0,0,0,,,,,,,,0,,,67,0
92820,note_on,0,0,0,,,,,,,,0,,,83,0
92820,note_on,0,0,0,,,,,,,,0,,,79,0
92880,set_tempo,60,1,0,,,,,,669195,,,,,,
92880,note_on,0,0,0,,,,,,,,0,,,103,64
92880,note_on,0,0,0,,,,,,,,0,,,95,57
92938,note_on,58,0,0,,,,,,,,0,,,95,0
92938,note_on,0,0,0,,,,,,,,0,,,103,0
93120,set_tempo,182,1,0,,,,,,685244,,,,,,
93120,note_on,0,0,0,,,,,,,,0,,,100,72
93120,note_on,0,0,0,,,,,,,,0,,,92,63
93178,note_on,58,0,0,,,,,,,,0,,,92,0
93178,note_on,0,0,0,,,,,,,,0,,,100,0
93360,set_tempo,182,1,0,,,,,,646482,,,,,,
93360,note_on,0,0,0,,,,,,,,0,,,71,50
93418,note_on,58,0,0,,,,,,,,0,,,71,0
93420,note_on,2,0,0,,,,,,,,0,,,69,47
93478,note_on,58,0,0,,,,,,,,0,,,69,0
93480,note_on,2,0,0,,,,,,,,0,,,68,50
93510,note_on,30,0,0,,,,,,,,0,,,74,32
93538,note_on,28,0,0,,,,,,,,0,,,68,0
93540,note_on,2,0,0,,,,,,,,0,,,66,46
93540,note_on,0,0,0,,,,,,,,0,,,80,32
93570,note_on,30,0,0,,,,,,,,0,,,83,32
93598,note_on,28,0,0,,,,,,,,0,,,66,0
93600,set_tempo,2,1,0,,,,,,661521,,,,,,
93600,note_on,0,0,0,,,,,,,,0,,,64,54
93600,note_on,0,0,0,,,,,,,,0,,,88,36
93780,note_on,180,0,0,,,,,,,,0,,,88,0
93780,note_on,0,0,0,,,,,,,,0,,,74,0
93780,note_on,0,0,0,,,,,,,,0,,,83,0
93780,note_on,0,0,0,,,,,,,,0,,,80,0
93780,note_on,0,0,0,,,,,,,,0,,,64,0
93840,set_tempo,60,1,0,,,,,,625261,,,,,,
93840,note_on,0,0,0,,,,,,,,0,,,88,54
93863,control_change,23,0,0,,,,,,,,0,64,127,,
93898,note_on,35,0,0,,,,,,,,0,,,88,0
93900,note_on,2,0,0,,,,,,,,0,,,92,54
93958,note_on,58,0,0,,,,,,,,0,,,92,0
93960,note_on,2,0,0,,,,,,,,0,,,95,56
94018,note_on,58,0,0,,,,,,,,0,,,95,0
94020,note_on,2,0,0,,,,,,,,0,,,92,53
94078,note_on,58,0,0,,,,,,,,0,,,92,0
94080,set_tempo,2,1,0,,,,,,657606,,,,,,
94080,note_on,0,0,0,,,,,,,,0,,,93,56
94080,control_change,0,0,0,,,,,,,,0,64,0,,
94260,note_on,180,0,0,,,,,,,,0,,,93,0
94320,set_tempo,60,1,0,,,,,,621891,,,,,,
94320,note_on,0,0,0,,,,,,,,0,,,76,52
94320,note_on,0,0,0,,,,,,,,0,,,84,36
94320,note_on,0,0,0,,,,,,,,0,,,81,33
94378,note_on,58,0,0,,,,,,,,0,,,76,0
94380,note_on,2,0,0,,,,,,,,0,,,74,49
94438,note_on,58,0,0,,,,,,,,0,,,74,0
94440,note_on,2,0,0,,,,,,,,0,,,72,51
94498,note_on,58,0,0,,,,,,,,0,,,72,0
94500,note_on,2,0,0,,,,,,,,0,,,81,0
94500,note_on,0,0,0,,,,,,,,0,,,84,0
94500,note_on,0,0,0,,,,,,,,0,,,71,47
94558,note_on,58,0,0,,,,,,,,0,,,71,0
94560,set_tempo,2,1,0,,,,,,646482,,,,,,
94560,note_on,0,0,0,,,,,,,,0,,,69,54
94560,note_on,0,0,0,,,,,,,,0,,,84,41
94560,note_on,0,0,0,,,,,,,,0,,,81,36
94560,note_on,0,0,0,,,,,,,,0,,,76,36
94740,note_on,180,0,0,,,,,,,,0,,,76,0
94740,note_on,0,0,0,,,,,,,,0,,,69,0
94740,note_on,0,0,0,,,,,,,,0,,,84,0
94740,note_on,0,0,0,,,,,,,,0,,,81,0
94780,set_tempo,40,1,0,,,,,,618557,,,,,,
94800,note_on,20,0,0,,,,,,,,0,,,76,51
94858,note_on,58,0,0,,,,,,,,0,,,76,0
94860,note_on,2,0,0,,,,,,,,0,,,72,47
94918,note_on,58,0,0,,,,,,,,0,,,72,0
94920,note_on,2,0,0,,,,,,,,0,,,69,51
94978,note_on,58,0,0,,,,,,,,0,,,69,0
94980,note_on,2,0,0,,,,,,,,0,,,67,47
95038,note_on,58,0,0,,,,,,,,0,,,67,0
95040,set_tempo,2,1,0,,,,,,646482,,,,,,
95040,note_on,0,0,0,,,,,,,,0,,,65,54
95220,note_on,180,0,0,,,,,,,,0,,,65,0
95280,set_tempo,60,1,0,,,,,,615195,,,,,,
95280,note_on,0,0,0,,,,,,,,0,,,89,50
95280,note_on,0,0,0,,,,,,,,0,,,72,23
95280,note_on,0,0,0,,,,,,,,0,,,77,23
95280,note_on,0,0,0,,,,,,,,0,,,81,26
95330,control_change,50,0,0,,,,,,,,0,64,127,,
95338,note_on,8,0,0,,,,,,,,0,,,89,0
95340,note_on,2,0,0,,,,,,,,0,,,93,47
95398,note_on,58,0,0,,,,,,,,0,,,93,0
95400,note_on,2,0,0,,,,,,,,0,,,96,50
95458,note_on,58,0,0,,,,,,,,0,,,96,0
95460,note_on,2,0,0,,,,,,,,0,,,72,0
95460,note_on,0,0,0,,,,,,,,0,,,77,0
95460,note_on,0,0,0,,,,,,,,0,,,81,0
95460,note_on,0,0,0,,,,,,,,0,,,93,46
95518,note_on,58,0,0,,,,,,,,0,,,93,0
95520,set_tempo,2,1,0,,,,,,642880,,,,,,
95520,note_on,0,0,0,,,,,,,,0,,,89,54
95520,note_on,0,0,0,,,,,,,,0,,,84,27
95520,note_on,0,0,0,,,,,,,,0,,,81,25
95520,note_on,0,0,0,,,,,,,,0,,,77,25
95534,control_change,14,0,0,,,,,,,,0,64,0,,
95700,note_on,166,0,0,,,,,,,,0,,,77,0
95700,note_on,0,0,0,,,,,,,,0,,,89,0
95700,note_on,0,0,0,,,,,,,,0,,,84,0
95700,note_on,0,0,0,,,,,,,,0,,,81,0
95760,set_tempo,60,1,0,,,,,,602289,,,,,,
95760,note_on,0,0,0,,,,,,,,0,,,77,47
95803,control_change,43,0,0,,,,,,,,0,64,127,,
95818,note_on,15,0,0,,,,,,,,0,,,77,0
95820,note_on,2,0,0,,,,,,,,0,,,72,43
95878,note_on,58,0,0,,,,,,,,0,,,72,0
95880,note_on,2,0,0,,,,,,,,0,,,69,47
95938,note_on,58,0,0,,,,,,,,0,,,69,0
95940,note_on,2,0,0,,,,,,,,0,,,65,45
95998,note_on,58,0,0,,,,,,,,0,,,65,0
96000,set_tempo,2,1,0,,,,,,639318,,,,,,
96000,note_on,0,0,0,,,,,,,,0,,,64,54
96000,control_change,0,0,0,,,,,,,,0,64,0,,
96180,note_on,180,0,0,,,,,,,,0,,,64,0
96220,set_tempo,40,1,0,,,,,,618557,,,,,,
96240,set_tempo,20,1,0,,,,,,618557,,,,,,
96240,note_on,0,0,0,,,,,,,,0,,,88,45
96240,note_on,0,0,0,,,,,,,,0,,,72,23
96240,note_on,0,0,0,,,,,,,,0,,,76,23
96240,note_on,0,0,0,,,,,,,,0,,,81,26
96276,control_change,36,0,0,,,,,,,,0,64,127,,
96298,note_on,22,0,0,,,,,,,,0,,,88,0
96300,note_on,2,0,0,,,,,,,,0,,,93,41
96358,note_on,58,0,0,,,,,,,,0,,,93,0
96360,note_on,2,0,0,,,,,,,,0,,,96,45
96418,note_on,58,0,0,,,,,,,,0,,,96,0
96420,note_on,2,0,0,,,,,,,,0,,,72,0
96420,note_on,0,0,0,,,,,,,,0,,,76,0
96420,note_on,0,0,0,,,,,,,,0,,,81,0
96420,note_on,0,0,0,,,,,,,,0,,,93,42
96478,note_on,58,0,0,,,,,,,,0,,,93,0
96480,set_tempo,2,1,0,,,,,,639318,,,,,,
96480,note_on,0,0,0,,,,,,,,0,,,88,49
96480,note_on,0,0,0,,,,,,,,0,,,84,27
96480,note_on,0,0,0,,,,,,,,0,,,81,25
96480,note_on,0,0,0,,,,,,,,0,,,76,25
96487,control_change,7,0,0,,,,,,,,0,64,0,,
96660,note_on,173,0,0,,,,,,,,0,,,76,0
96660,note_on,0,0,0,,,,,,,,0,,,88,0
96660,note_on,0,0,0,,,,,,,,0,,,84,0
96660,note_on,0,0,0,,,,,,,,0,,,81,0
96720,set_tempo,60,1,0,,,,,,620989,,,,,,
96720,note_on,0,0,0,,,,,,,,0,,,76,45
96748,control_change,28,0,0,,,,,,,,0,64,127,,
96778,note_on,30,0,0,,,,,,,,0,,,76,0
96780,note_on,2,0,0,,,,,,,,0,,,72,42
96838,note_on,58,0,0,,,,,,,,0,,,72,0
96840,note_on,2,0,0,,,,,,,,0,,,69,45
96898,note_on,58,0,0,,,,,,,,0,,,69,0
96900,note_on,2,0,0,,,,,,,,0,,,64,42
96958,note_on,58,0,0,,,,,,,,0,,,64,0
96960,set_tempo,2,1,0,,,,,,677660,,,,,,
96960,note_on,0,0,0,,,,,,,,0,,,63,47
96965,control_change,5,0,0,,,,,,,,0,64,0,,
97140,note_on,175,0,0,,,,,,,,0,,,63,0
97180,set_tempo,40,1,0,,,,,,618557,,,,,,
97200,set_tempo,20,1,0,,,,,,625261,,,,,,
97200,note_on,0,0,0,,,,,,,,0,,,87,44
97200,note_on,0,0,0,,,,,,,,0,,,72,23
97200,note_on,0,0,0,,,,,,,,0,,,78,23
97200,note_on,0,0,0,,,,,,,,0,,,81,26
97246,control_change,46,0,0,,,,,,,,0,64,127,,
97258,note_on,12,0,0,,,,,,,,0,,,87,0
97260,note_on,2,0,0,,,,,,,,0,,,93,41
97318,note_on,58,0,0,,,,,,,,0,,,93,0
97320,note_on,2,0,0,,,,,,,,0,,,96,44
97378,note_on,58,0,0,,,,,,,,0,,,96,0
97380,note_on,2,0,0,,,,,,,,0,,,72,0
97380,note_on,0,0,0,,,,,,,,0,,,78,0
97380,note_on,0,0,0,,,,,,,,0,,,81,0
97380,note_on,0,0,0,,,,,,,,0,,,93,40
97438,note_on,58,0,0,,,,,,,,0,,,93,0
97440,set_tempo,2,1,0,,,,,,657606,,,,,,
97440,note_on,0,0,0,,,,,,,,0,,,87,45
97440,note_on,0,0,0,,,,,,,,0,,,84,27
97440,note_on,0,0,0,,,,,,,,0,,,81,25
97440,note_on,0,0,0,,,,,,,,0,,,78,25
97455,control_change,15,0,0,,,,,,,,0,64,0,,
97620,note_on,165,0,0,,,,,,,,0,,,78,0
97620,note_on,0,0,0,,,,,,,,0,,,87,0
97620,note_on,0,0,0,,,,,,,,0,,,84,0
97620,note_on,0,0,0,,,,,,,,0,,,81,0
97680,set_tempo,60,1,0,,,,,,611933,,,,,,
97680,note_on,0,0,0,,,,,,,,0,,,75,45
97720,control_change,40,0,0,,,,,,,,0,64,127,,
97738,note_on,18,0,0,,,,,,,,0,,,75,0
97740,note_on,2,0,0,,,,,,,,0,,,72,41
97798,note_on,58,0,0,,,,,,,,0,,,72,0
97800,note_on,2,0,0,,,,,,,,0,,,69,45
97858,note_on,58,0,0,,,,,,,,0,,,69,0
97860,note_on,2,0,0,,,,,,,,0,,,66,42
97918,note_on,58,0,0,,,,,,,,0,,,66,0
97920,set_tempo,2,1,0,,,,,,646482,,,,,,
97920,note_on,0,0,0,,,,,,,,0,,,64,50
97923,control_change,3,0,0,,,,,,,,0,64,0,,
98100,note_on,177,0,0,,,,,,,,0,,,64,0
98140,set_tempo,40,1,0,,,,,,618557,,,,,,
98160,set_tempo,20,1,0,,,,,,632244,,,,,,
98160,note_on,0,0,0,,,,,,,,0,,,88,44
98160,note_on,0,0,0,,,,,,,,0,,,71,26
98160,note_on,0,0,0,,,,,,,,0,,,76,26
98160,note_on,0,0,0,,,,,,,,0,,,79,29
98203,control_change,43,0,0,,,,,,,,0,64,127,,
98218,note_on,15,0,0,,,,,,,,0,,,88,0
98220,note_on,2,0,0,,,,,,,,0,,,91,40
98278,note_on,58,0,0,,,,,,,,0,,,91,0
98280,note_on,2,0,0,,,,,,,,0,,,95,44
98338,note_on,58,0,0,,,,,,,,0,,,95,0
98340,note_on,2,0,0,,,,,,,,0,,,71,0
98340,note_on,0,0,0,,,,,,,,0,,,76,0
98340,note_on,0,0,0,,,,,,,,0,,,79,0
98340,note_on,0,0,0,,,,,,,,0,,,91,40
98398,note_on,58,0,0,,,,,,,,0,,,91,0
98400,set_tempo,2,1,0,,,,,,681354,,,,,,
98400,note_on,0,0,0,,,,,,,,0,,,88,46
98400,note_on,0,0,0,,,,,,,,0,,,83,32
98400,note_on,0,0,0,,,,,,,,0,,,79,27
98400,note_on,0,0,0,,,,,,,,0,,,76,27
98418,control_change,18,0,0,,,,,,,,0,64,0,,
98580,note_on,162,0,0,,,,,,,,0,,,76,0
98580,note_on,0,0,0,,,,,,,,0,,,88,0
98580,note_on,0,0,0,,,,,,,,0,,,83,0
98580,note_on,0,0,0,,,,,,,,0,,,79,0
98640,set_tempo,60,1,0,,,,,,615195,,,,,,
98640,note_on,0,0,0,,,,,,,,0,,,71,46
98690,control_change,50,0,0,,,,,,,,0,64,127,,
98698,note_on,8,0,0,,,,,,,,0,,,71,0
98700,note_on,2,0,0,,,,,,,,0,,,67,43
98758,note_on,58,0,0,,,,,,,,0,,,67,0
98760,note_on,2,0,0,,,,,,,,0,,,64,46
98818,note_on,58,0,0,,,,,,,,0,,,64,0
98820,note_on,2,0,0,,,,,,,,0,,,62,43
98878,note_on,58,0,0,,,,,,,,0,,,62,0
98880,set_tempo,2,1,0,,,,,,646482,,,,,,
98880,note_on,0,0,0,,,,,,,,0,,,60,51
98883,control_change,3,0,0,,,,,,,,0,64,0,,
99060,note_on,177,0,0,,,,,,,,0,,,60,0
99120,set_tempo,60,1,0,,,,,,602289,,,,,,
99120,note_on,0,0,0,,,,,,,,0,,,84,43
99120,note_on,0,0,0,,,,,,,,0,,,88,49
99120,note_on,0,0,0,,,,,,,,0,,,67,29
99120,note_on,0,0,0,,,,,,,,0,,,76,29
99120,note_on,0,0,0,,,,,,,,0,,,79,33
99159,control_change,39,0,0,,,,,,,,0,64,127,,
99178,note_on,19,0,0,,,,,,,,0,,,88,0
99180,note_on,2,0,0,,,,,,,,0,,,91,45
99238,note_on,58,0,0,,,,,,,,0,,,91,0
99240,note_on,2,0,0,,,,,,,,0,,,96,49
99298,note_on,58,0,0,,,,,,,,0,,,96,0
99300,note_on,2,0,0,,,,,,,,0,,,76,0
99300,note_on,0,0,0,,,,,,,,0,,,79,0
99300,note_on,0,0,0,,,,,,,,0,,,67,0
99300,note_on,0,0,0,,,,,,,,0,,,91,45
99358,note_on,58,0,0,,,,,,,,0,,,91,0
99360,set_tempo,2,1,0,,,,,,625261,,,,,,
99360,note_on,0,0,0,,,,,,,,0,,,84,0
99360,note_on,0,0,0,,,,,,,,0,,,84,43
99360,note_on,0,0,0,,,,,,,,0,,,88,52
99360,note_on,0,0,0,,,,,,,,0,,,72,32
99360,note_on,0,0,0,,,,,,,,0,,,79,36
99360,note_on,0,0,0,,,,,,,,0,,,76,32
99378,control_change,18,0,0,,,,,,,,0,64,0,,
99478,note_on,100,0,0,,,,,,,,0,,,76,0
99478,note_on,0,0,0,,,,,,,,0,,,72,0
99478,note_on,0,0,0,,,,,,,,0,,,84,0
99478,note_on,0,0,0,,,,,,,,0,,,88,0
99478,note_on,0,0,0,,,,,,,,0,,,79,0
99600,set_tempo,122,1,0,,,,,,599101,,,,,,
99600,note_on,0,0,0,,,,,,,,0,,,72,49
99658,note_on,58,0,0,,,,,,,,0,,,72,0
99660,note_on,2,0,0,,,,,,,,0,,,67,45
99660,control_change,0,0,0,,,,,,,,0,64,127,,
99718,note_on,58,0,0,,,,,,,,0,,,67,0
99720,note_on,2,0,0,,,,,,,,0,,,64,49
99778,note_on,58,0,0,,,,,,,,0,,,64,0
99780,note_on,2,0,0,,,,,,,,0,,,60,45
99838,note_on,58,0,0,,,,,,,,0,,,60,0
99840,set_tempo,2,1,0,,,,,,625261,,,,,,
99840,note_on,0,0,0,,,,,,,,0,,,59,53
99859,control_change,19,0,0,,,,,,,,0,64,0,,
100020,note_on,161,0,0,,,,,,,,0,,,59,0
100080,set_tempo,60,1,0,,,,,,608704,,,,,,
100080,note_on,0,0,0,,,,,,,,0,,,83,43
100080,note_on,0,0,0,,,,,,,,0,,,88,49
100080,note_on,0,0,0,,,,,,,,0,,,67,30
100080,note_on,0,0,0,,,,,,,,0,,,76,30
100080,note_on,0,0,0,,,,,,,,0,,,79,34
100119,control_change,39,0,0,,,,,,,,0,64,127,,
100138,note_on,19,0,0,,,,,,,,0,,,88,0
100140,note_on,2,0,0,,,,,,,,0,,,91,45
100198,note_on,58,0,0,,,,,,,,0,,,91,0
100200,note_on,2,0,0,,,,,,,,0,,,95,49
100258,note_on,58,0,0,,,,,,,,0,,,95,0
100260,note_on,2,0,0,,,,,,,,0,,,76,0
100260,note_on,0,0,0,,,,,,,,0,,,79,0
100260,note_on,0,0,0,,,,,,,,0,,,67,0
100260,note_on,0,0,0,,,,,,,,0,,,91,45
100318,note_on,58,0,0,,,,,,,,0,,,91,0
100320,set_tempo,2,1,0,,,,,,635728,,,,,,
100320,note_on,0,0,0,,,,,,,,0,,,83,0
100320,note_on,0,0,0,,,,,,,,0,,,83,43
100320,note_on,0,0,0,,,,,,,,0,,,88,51
100320,note_on,0,0,0,,,,,,,,0,,,71,32
100320,note_on,0,0,0,,,,,,,,0,,,79,36
100320,note_on,0,0,0,,,,,,,,0,,,76,32
100334,control_change,14,0,0,,,,,,,,0,64,0,,
100438,note_on,104,0,0,,,,,,,,0,,,76,0
100438,note_on,0,0,0,,,,,,,,0,,,71,0
100438,note_on,0,0,0,,,,,,,,0,,,83,0
100438,note_on,0,0,0,,,,,,,,0,,,88,0
100438,note_on,0,0,0,,,,,,,,0,,,79,0
100560,set_tempo,122,1,0,,,,,,605449,,,,,,
100560,note_on,0,0,0,,,,,,,,0,,,71,50
100618,note_on,58,0,0,,,,,,,,0,,,71,0
100620,note_on,2,0,0,,,,,,,,0,,,67,45
100631,control_change,11,0,0,,,,,,,,0,64,127,,
100678,note_on,47,0,0,,,,,,,,0,,,67,0
100680,note_on,2,0,0,,,,,,,,0,,,64,50
100738,note_on,58,0,0,,,,,,,,0,,,64,0
100740,note_on,2,0,0,,,,,,,,0,,,59,46
100798,note_on,58,0,0,,,,,,,,0,,,59,0
100800,set_tempo,2,1,0,,,,,,653880,,,,,,
100800,note_on,0,0,0,,,,,,,,0,,,58,54
100800,control_change,0,0,0,,,,,,,,0,64,0,,
100980,note_on,180,0,0,,,,,,,,0,,,58,0
101040,set_tempo,60,1,0,,,,,,661521,,,,,,
101040,note_on,0,0,0,,,,,,,,0,,,82,53
101040,note_on,0,0,0,,,,,,,,0,,,88,53
101040,note_on,0,0,0,,,,,,,,0,,,67,30
101040,note_on,0,0,0,,,,,,,,0,,,76,30
101040,note_on,0,0,0,,,,,,,,0,,,79,34
101060,control_change,20,0,0,,,,,,,,0,64,127,,
101098,note_on,38,0,0,,,,,,,,0,,,88,0
101100,note_on,2,0,0,,,,,,,,0,,,91,49
101158,note_on,58,0,0,,,,,,,,0,,,91,0
101160,note_on,2,0,0,,,,,,,,0,,,94,53
101218,note_on,58,0,0,,,,,,,,0,,,94,0
101220,note_on,2,0,0,,,,,,,,0,,,76,0
101220,note_on,0,0,0,,,,,,,,0,,,79,0
101220,note_on,0,0,0,,,,,,,,0,,,67,0
101220,note_on,0,0,0,,,,,,,,0,,,91,49
101278,note_on,58,0,0,,,,,,,,0,,,91,0
101280,set_tempo,2,1,0,,,,,,639318,,,,,,
101280,note_on,0,0,0,,,,,,,,0,,,82,0
101280,note_on,0,0,0,,,,,,,,0,,,82,56
101280,note_on,0,0,0,,,,,,,,0,,,88,56
101280,note_on,0,0,0,,,,,,,,0,,,73,32
101280,note_on,0,0,0,,,,,,,,0,,,79,36
101280,note_on,0,0,0,,,,,,,,0,,,76,32
101283,control_change,3,0,0,,,,,,,,0,64,0,,
101398,note_on,115,0,0,,,,,,,,0,,,76,0
101398,note_on,0,0,0,,,,,,,,0,,,73,0
101398,note_on,0,0,0,,,,,,,,0,,,82,0
101398,note_on,0,0,0,,,,,,,,0,,,88,0
101398,note_on,0,0,0,,,,,,,,0,,,79,0
101520,set_tempo,122,1,0,,,,,,650195,,,,,,
101520,note_on,0,0,0,,,,,,,,0,,,70,51
101520,note_on,0,0,0,,,,,,,,0,,,73,27
101520,note_on,0,0,0,,,,,,,,0,,,76,27
101520,note_on,0,0,0,,,,,,,,0,,,79,32
101555,control_change,35,0,0,,,,,,,,0,64,127,,
101578,note_on,23,0,0,,,,,,,,0,,,70,0
101580,note_on,2,0,0,,,,,,,,0,,,67,47
101638,note_on,58,0,0,,,,,,,,0,,,67,0
101640,note_on,2,0,0,,,,,,,,0,,,64,51
101698,note_on,58,0,0,,,,,,,,0,,,64,0
101700,note_on,2,0,0,,,,,,,,0,,,73,0
101700,note_on,0,0,0,,,,,,,,0,,,76,0
101700,note_on,0,0,0,,,,,,,,0,,,79,0
101700,note_on,0,0,0,,,,,,,,0,,,61,47
101758,note_on,58,0,0,,,,,,,,0,,,61,0
101760,set_tempo,2,1,0,,,,,,646482,,,,,,
101760,note_on,0,0,0,,,,,,,,0,,,59,54
101760,note_on,0,0,0,,,,,,,,0,,,75,30
101760,note_on,0,0,0,,,,,,,,0,,,78,30
101760,note_on,0,0,0,,,,,,,,0,,,83,34
101761,control_change,1,0,0,,,,,,,,0,64,0,,
101940,note_on,179,0,0,,,,,,,,0,,,83,0
101940,note_on,0,0,0,,,,,,,,0,,,59,0
101940,note_on,0,0,0,,,,,,,,0,,,75,0
101940,note_on,0,0,0,,,,,,,,0,,,78,0
101980,set_tempo,40,1,0,,,,,,618557,,,,,,
102000,set_tempo,20,1,0,,,,,,615195,,,,,,
102000,note_on,0,0,0,,,,,,,,0,,,87,50
102023,control_change,23,0,0,,,,,,,,0,64,127,,
102058,note_on,35,0,0,,,,,,,,0,,,87,0
102060,note_on,2,0,0,,,,,,,,0,,,95,46
102118,note_on,58,0,0,,,,,,,,0,,,95,0
102120,note_on,2,0,0,,,,,,,,0,,,90,50
102178,note_on,58,0,0,,,,,,,,0,,,90,0
102180,note_on,2,0,0,,,,,,,,0,,,87,45
102238,note_on,58,0,0,,,,,,,,0,,,87,0
102240,set_tempo,2,1,0,,,,,,542299,,,,,,
102240,note_on,0,0,0,,,,,,,,0,,,83,53
102240,note_on,0,0,0,,,,,,,,0,,,75,52
102255,control_change,15,0,0,,,,,,,,0,64,0,,
102283,control_change,28,0,0,,,,,,,,0,64,127,,
102295,note_on,12,0,0,,,,,,,,0,,,83,0
102298,note_on,3,0,0,,,,,,,,0,,,75,0
102300,note_on,2,0,0,,,,,,,,0,,,83,45
102340,set_tempo,40,1,0,,,,,,544910,,,,,,
102358,note_on,18,0,0,,,,,,,,0,,,83,0
102360,note_on,2,0,0,,,,,,,,0,,,78,50
102418,note_on,58,0,0,,,,,,,,0,,,78,0
102420,note_on,2,0,0,,,,,,,,0,,,75,46
102440,set_tempo,20,1,0,,,,,,547495,,,,,,
102478,note_on,38,0,0,,,,,,,,0,,,75,0
102480,note_on,2,0,0,,,,,,,,0,,,81,50
102491,control_change,11,0,0,,,,,,,,0,64,0,,
102535,control_change,44,0,0,,,,,,,,0,64,127,,
102538,note_on,3,0,0,,,,,,,,0,,,81,0
102540,set_tempo,2,1,0,,,,,,550105,,,,,,
102540,note_on,0,0,0,,,,,,,,0,,,83,46
102598,note_on,58,0,0,,,,,,,,0,,,83,0
102600,note_on,2,0,0,,,,,,,,0,,,81,50
102640,set_tempo,40,1,0,,,,,,552843,,,,,,
102658,note_on,18,0,0,,,,,,,,0,,,81,0
102660,note_on,2,0,0,,,,,,,,0,,,78,47
102718,note_on,58,0,0,,,,,,,,0,,,78,0
102720,set_tempo,2,1,0,,,,,,555504,,,,,,
102720,note_on,0,0,0,,,,,,,,0,,,76,53
102720,note_on,0,0,0,,,,,,,,0,,,67,51
102740,control_change,20,0,0,,,,,,,,0,64,0,,
102755,control_change,15,0,0,,,,,,,,0,64,127,,
102775,note_on,20,0,0,,,,,,,,0,,,76,0
102778,note_on,3,0,0,,,,,,,,0,,,67,0
102780,note_on,2,0,0,,,,,,,,0,,,76,46
102838,note_on,58,0,0,,,,,,,,0,,,76,0
102840,note_on,2,0,0,,,,,,,,0,,,71,50
102898,note_on,58,0,0,,,,,,,,0,,,71,0
102900,note_on,2,0,0,,,,,,,,0,,,67,46
102958,note_on,58,0,0,,,,,,,,0,,,67,0
102960,set_tempo,2,1,0,,,,,,537249,,,,,,
102960,note_on,0,0,0,,,,,,,,0,,,76,53
102966,control_change,6,0,0,,,,,,,,0,64,0,,
103018,note_on,52,0,0,,,,,,,,0,,,76,0
103020,note_on,2,0,0,,,,,,,,0,,,79,47
103078,note_on,58,0,0,,,,,,,,0,,,79,0
103080,set_tempo,2,1,0,,,,,,539763,,,,,,
103080,note_on,0,0,0,,,,,,,,0,,,76,50
103138,note_on,58,0,0,,,,,,,,0,,,76,0
103140,note_on,2,0,0,,,,,,,,0,,,74,47
103198,note_on,58,0,0,,,,,,,,0,,,74,0
103200,set_tempo,2,1,0,,,,,,542299,,,,,,
103200,note_on,0,0,0,,,,,,,,0,,,72,54
103200,note_on,0,0,0,,,,,,,,0,,,64,53
103237,control_change,37,0,0,,,,,,,,0,64,127,,
103255,note_on,18,0,0,,,,,,,,0,,,72,0
103258,note_on,3,0,0,,,,,,,,0,,,64,0
103260,note_on,2,0,0,,,,,,,,0,,,72,47
103318,note_on,58,0,0,,,,,,,,0,,,72,0
103320,set_tempo,2,1,0,,,,,,544910,,,,,,
103320,note_on,0,0,0,,,,,,,,0,,,67,51
103378,note_on,58,0,0,,,,,,,,0,,,67,0
103380,note_on,2,0,0,,,,,,,,0,,,64,49
103438,note_on,58,0,0,,,,,,,,0,,,64,0
103440,set_tempo,2,1,0,,,,,,547495,,,,,,
103440,note_on,0,0,0,,,,,,,,0,,,72,54
103455,control_change,15,0,0,,,,,,,,0,64,0,,
103498,note_on,43,0,0,,,,,,,,0,,,72,0
103500,note_on,2,0,0,,,,,,,,0,,,76,49
103558,note_on,58,0,0,,,,,,,,0,,,76,0
103560,set_tempo,2,1,0,,,,,,550105,,,,,,
103560,note_on,0,0,0,,,,,,,,0,,,72,52
103618,note_on,58,0,0,,,,,,,,0,,,72,0
103620,note_on,2,0,0,,,,,,,,0,,,70,50
103660,set_tempo,40,1,0,,,,,,552843,,,,,,
103678,note_on,18,0,0,,,,,,,,0,,,70,0
103680,set_tempo,2,1,0,,,,,,555504,,,,,,
103680,note_on,0,0,0,,,,,,,,0,,,71,54
103680,note_on,0,0,0,,,,,,,,0,,,63,54
103720,control_change,40,0,0,,,,,,,,0,64,127,,
103735,note_on,15,0,0,,,,,,,,0,,,71,0
103738,note_on,3,0,0,,,,,,,,0,,,63,0
103740,note_on,2,0,0,,,,,,,,0,,,71,50
103798,note_on,58,0,0,,,,,,,,0,,,71,0
103800,note_on,2,0,0,,,,,,,,0,,,66,52
103858,note_on,58,0,0,,,,,,,,0,,,66,0
103860,note_on,2,0,0,,,,,,,,0,,,63,49
103918,note_on,58,0,0,,,,,,,,0,,,63,0
103920,set_tempo,2,1,0,,,,,,534712,,,,,,
103920,note_on,0,0,0,,,,,,,,0,,,75,54
103978,note_on,58,0,0,,,,,,,,0,,,75,0
103980,note_on,2,0,0,,,,,,,,0,,,83,50
104038,note_on,58,0,0,,,,,,,,0,,,83,0
104040,note_on,2,0,0,,,,,,,,0,,,78,53
104098,note_on,58,0,0,,,,,,,,0,,,78,0
104100,set_tempo,2,1,0,,,,,,537249,,,,,,
104100,note_on,0,0,0,,,,,,,,0,,,75,50
104158,note_on,58,0,0,,,,,,,,0,,,75,0
104160,note_on,2,0,0,,,,,,,,0,,,71,55
104160,note_on,0,0,0,,,,,,,,0,,,63,54
104215,note_on,55,0,0,,,,,,,,0,,,71,0
104218,note_on,3,0,0,,,,,,,,0,,,63,0
104220,note_on,2,0,0,,,,,,,,0,,,71,50
104278,note_on,58,0,0,,,,,,,,0,,,71,0
104280,set_tempo,2,1,0,,,,,,539763,,,,,,
104280,note_on,0,0,0,,,,,,,,0,,,66,54
104338,note_on,58,0,0,,,,,,,,0,,,66,0
104340,note_on,2,0,0,,,,,,,,0,,,63,51
104398,note_on,58,0,0,,,,,,,,0,,,63,0
104400,note_on,2,0,0,,,,,,,,0,,,69,57
104406,control_change,6,0,0,,,,,,,,0,64,0,,
104458,note_on,52,0,0,,,,,,,,0,,,69,0
104460,set_tempo,2,1,0,,,,,,542299,,,,,,
104460,note_on,0,0,0,,,,,,,,0,,,71,52
104518,note_on,58,0,0,,,,,,,,0,,,71,0
104520,note_on,2,0,0,,,,,,,,0,,,69,55
104578,note_on,58,0,0,,,,,,,,0,,,69,0
104580,note_on,2,0,0,,,,,,,,0,,,66,54
104620,set_tempo,40,1,0,,,,,,544910,,,,,,
104638,note_on,18,0,0,,,,,,,,0,,,66,0
104640,set_tempo,2,1,0,,,,,,550105,,,,,,
104640,note_on,0,0,0,,,,,,,,0,,,64,63
104640,note_on,0,0,0,,,,,,,,0,,,55,63
104663,control_change,23,0,0,,,,,,,,0,64,127,,
104695,note_on,32,0,0,,,,,,,,0,,,64,0
104698,note_on,3,0,0,,,,,,,,0,,,55,0
104700,note_on,2,0,0,,,,,,,,0,,,64,55
104758,note_on,58,0,0,,,,,,,,0,,,64,0
104760,note_on,2,0,0,,,,,,,,0,,,59,59
104818,note_on,58,0,0,,,,,,,,0,,,59,0
104820,note_on,2,0,0,,,,,,,,0,,,55,54
104878,note_on,58,0,0,,,,,,,,0,,,55,0
104880,set_tempo,2,1,0,,,,,,529801,,,,,,
104880,note_on,0,0,0,,,,,,,,0,,,64,63
104889,control_change,9,0,0,,,,,,,,0,64,0,,
104938,note_on,49,0,0,,,,,,,,0,,,64,0
104940,note_on,2,0,0,,,,,,,,0,,,67,55
104980,set_tempo,40,1,0,,,,,,532245,,,,,,
104998,note_on,18,0,0,,,,,,,,0,,,67,0
105000,note_on,2,0,0,,,,,,,,0,,,64,60
105058,note_on,58,0,0,,,,,,,,0,,,64,0
105060,set_tempo,2,1,0,,,,,,534712,,,,,,
105060,note_on,0,0,0,,,,,,,,0,,,62,54
105118,note_on,58,0,0,,,,,,,,0,,,62,0
105120,note_on,2,0,0,,,,,,,,0,,,60,64
105120,note_on,0,0,0,,,,,,,,0,,,52,63
105140,control_change,20,0,0,,,,,,,,0,64,127,,
105160,set_tempo,20,1,0,,,,,,537249,,,,,,
105175,note_on,15,0,0,,,,,,,,0,,,60,0
105178,note_on,3,0,0,,,,,,,,0,,,52,0
105180,note_on,2,0,0,,,,,,,,0,,,60,55
105238,note_on,58,0,0,,,,,,,,0,,,60,0
105240,set_tempo,2,1,0,,,,,,539763,,,,,,
105240,note_on,0,0,0,,,,,,,,0,,,55,59
105298,note_on,58,0,0,,,,,,,,0,,,55,0
105300,note_on,2,0,0,,,,,,,,0,,,52,56
105320,set_tempo,20,1,0,,,,,,542299,,,,,,
105358,note_on,38,0,0,,,,,,,,0,,,52,0
105360,note_on,2,0,0,,,,,,,,0,,,60,63
105369,control_change,9,0,0,,,,,,,,0,64,0,,
105418,note_on,49,0,0,,,,,,,,0,,,60,0
105420,set_tempo,2,1,0,,,,,,544910,,,,,,
105420,note_on,0,0,0,,,,,,,,0,,,64,55
105478,note_on,58,0,0,,,,,,,,0,,,64,0
105480,note_on,2,0,0,,,,,,,,0,,,60,60
105500,set_tempo,20,1,0,,,,,,547495,,,,,,
105538,note_on,38,0,0,,,,,,,,0,,,60,0
105540,note_on,2,0,0,,,,,,,,0,,,58,55
105580,set_tempo,40,1,0,,,,,,550105,,,,,,
105598,note_on,18,0,0,,,,,,,,0,,,58,0
105600,note_on,2,0,0,,,,,,,,0,,,59,65
105600,note_on,0,0,0,,,,,,,,0,,,51,66
105650,control_change,50,0,0,,,,,,,,0,64,127,,
105660,note_on,10,0,0,,,,,,,,0,,,55,61
105670,note_on,10,0,0,,,,,,,,0,,,51,0
105720,note_on,50,0,0,,,,,,,,0,,,55,0
105720,note_on,0,0,0,,,,,,,,0,,,54,61
105780,note_on,60,0,0,,,,,,,,0,,,51,59
105790,note_on,10,0,0,,,,,,,,0,,,54,0
105840,set_tempo,50,1,0,,,,,,520111,,,,,,
105840,note_on,0,0,0,,,,,,,,0,,,51,0
105840,note_on,0,0,0,,,,,,,,0,,,47,52
105860,set_tempo,20,1,0,,,,,,544910,,,,,,
105900,set_tempo,40,1,0,,,,,,542299,,,,,,
105900,note_on,0,0,0,,,,,,,,0,,,63,55
105900,note_on,0,0,0,,,,,,,,0,,,54,53
105910,note_on,10,0,0,,,,,,,,0,,,47,0
105910,note_on,0,0,0,,,,,,,,0,,,59,0
105920,set_tempo,10,1,0,,,,,,539763,,,,,,
105960,set_tempo,40,1,0,,,,,,537249,,,,,,
105960,note_on,0,0,0,,,,,,,,0,,,66,56
105960,note_on,0,0,0,,,,,,,,0,,,58,54
105970,note_on,10,0,0,,,,,,,,0,,,63,0
105970,note_on,0,0,0,,,,,,,,0,,,54,0
105980,set_tempo,10,1,0,,,,,,534712,,,,,,
106020,set_tempo,40,1,0,,,,,,532245,,,,,,
106020,note_on,0,0,0,,,,,,,,0,,,58,0
106020,note_on,0,0,0,,,,,,,,0,,,70,57
106020,note_on,0,0,0,,,,,,,,0,,,59,54
106030,note_on,10,0,0,,,,,,,,0,,,66,0
106040,set_tempo,10,1,0,,,,,,529801,,,,,,
106060,set_tempo,20,1,0,,,,,,527287,,,,,,
106080,note_on,20,0,0,,,,,,,,0,,,59,0
106080,note_on,0,0,0,,,,,,,,0,,,70,0
106080,note_on,0,0,0,,,,,,,,0,,,71,59
106080,note_on,0,0,0,,,,,,,,0,,,63,56
106100,set_tempo,20,1,0,,,,,,524888,,,,,,
106120,set_tempo,20,1,0,,,,,,522512,,,,,,
106140,note_on,20,0,0,,,,,,,,0,,,75,60
106140,note_on,0,0,0,,,,,,,,0,,,66,57
106150,note_on,10,0,0,,,,,,,,0,,,63,0
106150,note_on,0,0,0,,,,,,,,0,,,71,0
106160,set_tempo,10,1,0,,,,,,520111,,,,,,
106180,set_tempo,20,1,0,,,,,,517777,,,,,,
106200,set_tempo,20,1,0,,,,,,515464,,,,,,
106200,note_on,0,0,0,,,,,,,,0,,,78,61
106200,note_on,0,0,0,,,,,,,,0,,,70,59
106210,note_on,10,0,0,,,,,,,,0,,,75,0
106210,note_on,0,0,0,,,,,,,,0,,,66,0
106240,set_tempo,30,1,0,,,,,,513128,,,,,,
106260,set_tempo,20,1,0,,,,,,510856,,,,,,
106260,note_on,0,0,0,,,,,,,,0,,,82,62
106260,note_on,0,0,0,,,,,,,,0,,,71,61
106270,note_on,10,0,0,,,,,,,,0,,,78,0
106270,note_on,0,0,0,,,,,,,,0,,,70,0
106300,set_tempo,30,1,0,,,,,,508604,,,,,,
106320,set_tempo,20,1,0,,,,,,506286,,,,,,
106320,note_on,0,0,0,,,,,,,,0,,,82,0
106320,note_on,0,0,0,,,,,,,,0,,,71,0
106320,note_on,0,0,0,,,,,,,,0,,,83,63
106320,note_on,0,0,0,,,,,,,,0,,,75,63
106360,set_tempo,40,1,0,,,,,,504075,,,,,,
106380,set_tempo,20,1,0,,,,,,501882,,,,,,
106380,note_on,0,0,0,,,,,,,,0,,,87,63
106380,note_on,0,0,0,,,,,,,,0,,,78,63
106390,note_on,10,0,0,,,,,,,,0,,,75,0
106390,note_on,0,0,0,,,,,,,,0,,,83,0
106400,set_tempo,10,1,0,,,,,,499667,,,,,,
106440,set_tempo,40,1,0,,,,,,497512,,,,,,
106440,note_on,0,0,0,,,,,,,,0,,,90,65
106440,note_on,0,0,0,,,,,,,,0,,,82,65
106450,note_on,10,0,0,,,,,,,,0,,,87,0
106450,note_on,0,0,0,,,,,,,,0,,,78,0
106460,set_tempo,10,1,0,,,,,,495376,,,,,,
106500,set_tempo,40,1,0,,,,,,493218,,,,,,
106500,note_on,0,0,0,,,,,,,,0,,,94,67
106500,note_on,0,0,0,,,,,,,,0,,,83,66
106510,note_on,10,0,0,,,,,,,,0,,,90,0
106510,note_on,0,0,0,,,,,,,,0,,,82,0
106520,set_tempo,10,1,0,,,,,,491119,,,,,,
106540,set_tempo,20,1,0,,,,,,488998,,,,,,
106560,set_tempo,20,1,0,,,,,,961693,,,,,,
106560,note_on,0,0,0,,,,,,,,0,,,94,0
106560,note_on,0,0,0,,,,,,,,0,,,83,0
106560,note_on,0,0,0,,,,,,,,0,,,95,69
106560,note_on,0,0,0,,,,,,,,0,,,87,69
106586,control_change,26,0,0,,,,,,,,0,64,0,,
106740,note_on,154,0,0,,,,,,,,0,,,87,0
106740,note_on,0,0,0,,,,,,,,0,,,95,0
107280,set_tempo,540,1,0,,,,,,519660,,,,,,
107280,note_on,0,0,0,,,,,,,,0,,,92,37
107280,note_on,0,0,0,,,,,,,,0,,,95,43
107308,control_change,28,0,0,,,,,,,,0,64,127,,
107398,note_on,90,0,0,,,,,,,,0,,,95,0
107398,note_on,0,0,0,,,,,,,,0,,,92,0
107400,note_on,2,0,0,,,,,,,,0,,,90,34
107400,note_on,0,0,0,,,,,,,,0,,,93,37
107518,note_on,118,0,0,,,,,,,,0,,,93,0
107518,note_on,0,0,0,,,,,,,,0,,,90,0
107520,key_signature,2,1,0,,,,,E,,,,,,,
107520,set_tempo,0,1,0,,,,,,488998,,,,,,
107520,note_on,0,0,0,,,,,,,,0,,,88,42
107520,note_on,0,0,0,,,,,,,,0,,,92,46
107520,note_on,0,0,0,,,,,,,,0,,,83,34
107520,note_on,0,0,0,,,,,,,,0,,,76,34
107526,control_change,6,0,0,,,,,,,,0,64,0,,
107598,control_change,72,0,0,,,,,,,,0,64,127,,
107610,note_on,12,0,0,,,,,,,,0,,,76,0
107610,note_on,0,0,0,,,,,,,,0,,,83,0
107640,note_on,30,0,0,,,,,,,,0,,,76,33
107640,note_on,0,0,0,,,,,,,,0,,,83,33
107730,note_on,90,0,0,,,,,,,,0,,,83,0
107730,note_on,0,0,0,,,,,,,,0,,,76,0
107740,note_on,10,0,0,,,,,,,,0,,,92,0
107740,note_on,0,0,0,,,,,,,,0,,,88,0
107756,control_change,16,0,0,,,,,,,,0,64,0,,
107760,note_on,4,0,0,,,,,,,,0,,,88,34
107760,note_on,0,0,0,,,,,,,,0,,,92,37
107831,control_change,71,0,0,,,,,,,,0,64,127,,
107878,note_on,47,0,0,,,,,,,,0,,,92,0
107878,note_on,0,0,0,,,,,,,,0,,,88,0
107880,set_tempo,2,1,0,,,,,,501882,,,,,,
107880,note_on,0,0,0,,,,,,,,0,,,83,31
107880,note_on,0,0,0,,,,,,,,0,,,90,35
107993,control_change,113,0,0,,,,,,,,0,64,0,,
107998,note_on,5,0,0,,,,,,,,0,,,90,0
107998,note_on,0,0,0,,,,,,,,0,,,83,0
108000,set_tempo,2,1,0,,,,,,488998,,,,,,
108000,note_on,0,0,0,,,,,,,,0,,,80,36
108000,note_on,0,0,0,,,,,,,,0,,,88,41
108000,note_on,0,0,0,,,,,,,,0,,,71,34
108000,note_on,0,0,0,,,,,,,,0,,,76,34
108064,control_change,64,0,0,,,,,,,,0,64,127,,
108090,note_on,26,0,0,,,,,,,,0,,,76,0
108090,note_on,0,0,0,,,,,,,,0,,,71,0
108120,note_on,30,0,0,,,,,,,,0,,,71,33
108120,note_on,0,0,0,,,,,,,,0,,,76,33
108210,note_on,90,0,0,,,,,,,,0,,,76,0
108210,note_on,0,0,0,,,,,,,,0,,,71,0
108220,note_on,10,0,0,,,,,,,,0,,,88,0
108220,note_on,0,0,0,,,,,,,,0,,,80,0
108240,note_on,20,0,0,,,,,,,,0,,,83,42
108240,note_on,0,0,0,,,,,,,,0,,,80,36
108262,control_change,22,0,0,,,,,,,,0,64,0,,
108325,control_change,63,0,0,,,,,,,,0,64,127,,
108358,note_on,33,0,0,,,,,,,,0,,,80,0
108358,note_on,0,0,0,,,,,,,,0,,,83,0
108360,set_tempo,2,1,0,,,,,,504075,,,,,,
108360,note_on,0,0,0,,,,,,,,0,,,78,33
108360,note_on,0,0,0,,,,,,,,0,,,81,36
108478,note_on,118,0,0,,,,,,,,0,,,81,0
108478,note_on,0,0,0,,,,,,,,0,,,78,0
108480,set_tempo,2,1,0,,,,,,488998,,,,,,
108480,note_on,0,0,0,,,,,,,,0,,,76,40
108480,note_on,0,0,0,,,,,,,,0,,,80,45
108480,note_on,0,0,0,,,,,,,,0,,,64,34
108480,note_on,0,0,0,,,,,,,,0,,,71,34
108487,control_change,7,0,0,,,,,,,,0,64,0,,
108544,control_change,57,0,0,,,,,,,,0,64,127,,
108570,note_on,26,0,0,,,,,,,,0,,,71,0
108570,note_on,0,0,0,,,,,,,,0,,,64,0
108600,note_on,30,0,0,,,,,,,,0,,,64,31
108600,note_on,0,0,0,,,,,,,,0,,,71,31
108690,note_on,90,0,0,,,,,,,,0,,,71,0
108690,note_on,0,0,0,,,,,,,,0,,,64,0
108700,note_on,10,0,0,,,,,,,,0,,,80,0
108700,note_on,0,0,0,,,,,,,,0,,,76,0
108720,note_on,20,0,0,,,,,,,,0,,,76,34
108720,note_on,0,0,0,,,,,,,,0,,,80,37
108724,control_change,4,0,0,,,,,,,,0,64,0,,
108784,control_change,60,0,0,,,,,,,,0,64,127,,
108838,note_on,54,0,0,,,,,,,,0,,,80,0
108838,note_on,0,0,0,,,,,,,,0,,,76,0
108840,set_tempo,2,1,0,,,,,,499667,,,,,,
108840,note_on,0,0,0,,,,,,,,0,,,71,31
108840,note_on,0,0,0,,,,,,,,0,,,78,35
108859,control_change,19,0,0,,,,,,,,0,64,0,,
108958,note_on,99,0,0,,,,,,,,0,,,78,0
108958,note_on,0,0,0,,,,,,,,0,,,71,0
108960,set_tempo,2,1,0,,,,,,491119,,,,,,
108960,note_on,0,0,0,,,,,,,,0,,,68,36
108960,note_on,0,0,0,,,,,,,,0,,,76,42
108960,note_on,0,0,0,,,,,,,,0,,,64,34
108960,note_on,0,0,0,,,,,,,,0,,,59,34
109024,control_change,64,0,0,,,,,,,,0,64,127,,
109050,note_on,26,0,0,,,,,,,,0,,,59,0
109050,note_on,0,0,0,,,,,,,,0,,,64,0
109080,note_on,30,0,0,,,,,,,,0,,,59,31
109080,note_on,0,0,0,,,,,,,,0,,,64,31
109170,note_on,90,0,0,,,,,,,,0,,,64,0
109170,note_on,0,0,0,,,,,,,,0,,,59,0
109180,note_on,10,0,0,,,,,,,,0,,,76,0
109180,note_on,0,0,0,,,,,,,,0,,,68,0
109200,set_tempo,20,1,0,,,,,,482820,,,,,,
109200,note_on,0,0,0,,,,,,,,0,,,68,36
109200,note_on,0,0,0,,,,,,,,0,,,76,42
109214,control_change,14,0,0,,,,,,,,0,64,0,,
109264,control_change,50,0,0,,,,,,,,0,64,127,,
109318,note_on,54,0,0,,,,,,,,0,,,76,0
109318,note_on,0,0,0,,,,,,,,0,,,68,0
109320,set_tempo,2,1,0,,,,,,493218,,,,,,
109320,note_on,0,0,0,,,,,,,,0,,,71,33
109320,note_on,0,0,0,,,,,,,,0,,,78,36
109337,control_change,17,0,0,,,,,,,,0,64,0,,
109438,note_on,101,0,0,,,,,,,,0,,,78,0
109438,note_on,0,0,0,,,,,,,,0,,,71,0
109440,set_tempo,2,1,0,,,,,,493218,,,,,,
109440,note_on,0,0,0,,,,,,,,0,,,76,40
109440,note_on,0,0,0,,,,,,,,0,,,80,45
109440,note_on,0,0,0,,,,,,,,0,,,52,34
109440,note_on,0,0,0,,,,,,,,0,,,59,34
109504,control_change,64,0,0,,,,,,,,0,64,127,,
109530,note_on,26,0,0,,,,,,,,0,,,59,0
109530,note_on,0,0,0,,,,,,,,0,,,52,0
109560,note_on,30,0,0,,,,,,,,0,,,52,32
109560,note_on,0,0,0,,,,,,,,0,,,59,32
109650,note_on,90,0,0,,,,,,,,0,,,59,0
109650,note_on,0,0,0,,,,,,,,0,,,52,0
109660,note_on,10,0,0,,,,,,,,0,,,80,0
109660,note_on,0,0,0,,,,,,,,0,,,76,0
109680,set_tempo,20,1,0,,,,,,484848,,,,,,
109680,note_on,0,0,0,,,,,,,,0,,,71,37
109680,note_on,0,0,0,,,,,,,,0,,,78,43
109695,control_change,15,0,0,,,,,,,,0,64,0,,
109751,control_change,56,0,0,,,,,,,,0,64,127,,
109798,note_on,47,0,0,,,,,,,,0,,,78,0
109798,note_on,0,0,0,,,,,,,,0,,,71,0
109800,set_tempo,2,1,0,,,,,,499667,,,,,,
109800,note_on,0,0,0,,,,,,,,0,,,76,35
109800,note_on,0,0,0,,,,,,,,0,,,80,39
109816,control_change,16,0,0,,,,,,,,0,64,0,,
109918,note_on,102,0,0,,,,,,,,0,,,80,0
109918,note_on,0,0,0,,,,,,,,0,,,76,0
109920,set_tempo,2,1,0,,,,,,499667,,,,,,
109920,note_on,0,0,0,,,,,,,,0,,,78,43
109920,note_on,0,0,0,,,,,,,,0,,,81,47
109920,note_on,0,0,0,,,,,,,,0,,,71,36
109920,note_on,0,0,0,,,,,,,,0,,,63,36
109970,control_change,50,0,0,,,,,,,,0,64,127,,
110010,note_on,40,0,0,,,,,,,,0,,,63,0
110010,note_on,0,0,0,,,,,,,,0,,,71,0
110040,note_on,30,0,0,,,,,,,,0,,,63,33
110040,note_on,0,0,0,,,,,,,,0,,,71,33
110130,note_on,90,0,0,,,,,,,,0,,,71,0
110130,note_on,0,0,0,,,,,,,,0,,,63,0
110140,note_on,10,0,0,,,,,,,,0,,,81,0
110140,note_on,0,0,0,,,,,,,,0,,,78,0
110160,set_tempo,20,1,0,,,,,,488998,,,,,,
110160,note_on,0,0,0,,,,,,,,0,,,71,40
110160,note_on,0,0,0,,,,,,,,0,,,78,45
110169,control_change,9,0,0,,,,,,,,0,64,0,,
110217,control_change,48,0,0,,,,,,,,0,64,127,,
110278,note_on,61,0,0,,,,,,,,0,,,78,0
110278,note_on,0,0,0,,,,,,,,0,,,71,0
110280,set_tempo,2,1,0,,,,,,508604,,,,,,
110280,note_on,0,0,0,,,,,,,,0,,,78,36
110280,note_on,0,0,0,,,,,,,,0,,,81,41
110294,control_change,14,0,0,,,,,,,,0,64,0,,
110398,note_on,104,0,0,,,,,,,,0,,,81,0
110398,note_on,0,0,0,,,,,,,,0,,,78,0
110400,set_tempo,2,1,0,,,,,,495376,,,,,,
110400,note_on,0,0,0,,,,,,,,0,,,80,44
110400,note_on,0,0,0,,,,,,,,0,,,83,50
110400,note_on,0,0,0,,,,,,,,0,,,52,44
110400,note_on,0,0,0,,,,,,,,0,,,59,44
110450,control_change,50,0,0,,,,,,,,0,64,127,,
110490,note_on,40,0,0,,,,,,,,0,,,59,0
110490,note_on,0,0,0,,,,,,,,0,,,52,0
110520,note_on,30,0,0,,,,,,,,0,,,52,41
110520,note_on,0,0,0,,,,,,,,0,,,59,41
110610,note_on,90,0,0,,,,,,,,0,,,59,0
110610,note_on,0,0,0,,,,,,,,0,,,52,0
110620,note_on,10,0,0,,,,,,,,0,,,83,0
110620,note_on,0,0,0,,,,,,,,0,,,80,0
110640,set_tempo,20,1,0,,,,,,486934,,,,,,
110640,note_on,0,0,0,,,,,,,,0,,,78,35
110640,note_on,0,0,0,,,,,,,,0,,,81,39
110661,control_change,21,0,0,,,,,,,,0,64,0,,
110711,control_change,50,0,0,,,,,,,,0,64,127,,
110758,note_on,47,0,0,,,,,,,,0,,,81,0
110758,note_on,0,0,0,,,,,,,,0,,,78,0
110760,set_tempo,2,1,0,,,,,,499667,,,,,,
110760,note_on,0,0,0,,,,,,,,0,,,76,31
110760,note_on,0,0,0,,,,,,,,0,,,80,35
110878,note_on,118,0,0,,,,,,,,0,,,80,0
110878,note_on,0,0,0,,,,,,,,0,,,76,0
110880,set_tempo,2,1,0,,,,,,565291,,,,,,
110880,note_on,0,0,0,,,,,,,,0,,,71,39
110880,note_on,0,0,0,,,,,,,,0,,,78,44
110880,note_on,0,0,0,,,,,,,,0,,,59,50
110880,note_on,0,0,0,,,,,,,,0,,,71,50
110896,control_change,16,0,0,,,,,,,,0,64,0,,
110951,control_change,55,0,0,,,,,,,,0,64,127,,
110970,note_on,19,0,0,,,,,,,,0,,,71,0
110970,note_on,0,0,0,,,,,,,,0,,,59,0
111000,set_tempo,30,1,0,,,,,,470884,,,,,,
111000,note_on,0,0,0,,,,,,,,0,,,59,45
111000,note_on,0,0,0,,,,,,,,0,,,71,45
111090,note_on,90,0,0,,,,,,,,0,,,71,0
111090,note_on,0,0,0,,,,,,,,0,,,59,0
111100,note_on,10,0,0,,,,,,,,0,,,78,0
111100,note_on,0,0,0,,,,,,,,0,,,71,0
111120,set_tempo,20,1,0,,,,,,484848,,,,,,
111120,note_on,0,0,0,,,,,,,,0,,,92,37
111120,note_on,0,0,0,,,,,,,,0,,,95,43
111150,control_change,30,0,0,,,,,,,,0,64,0,,
111219,control_change,69,0,0,,,,,,,,0,64,127,,
111238,note_on,19,0,0,,,,,,,,0,,,95,0
111238,note_on,0,0,0,,,,,,,,0,,,92,0
111240,note_on,2,0,0,,,,,,,,0,,,90,35
111240,note_on,0,0,0,,,,,,,,0,,,93,39
111358,note_on,118,0,0,,,,,,,,0,,,93,0
111358,note_on,0,0,0,,,,,,,,0,,,90,0
111360,set_tempo,2,1,0,,,,,,478774,,,,,,
111360,note_on,0,0,0,,,,,,,,0,,,88,42
111360,note_on,0,0,0,,,,,,,,0,,,92,46
111360,note_on,0,0,0,,,,,,,,0,,,83,34
111360,note_on,0,0,0,,,,,,,,0,,,76,34
111366,control_change,6,0,0,,,,,,,,0,64,0,,
111424,control_change,58,0,0,,,,,,,,0,64,127,,
111450,note_on,26,0,0,,,,,,,,0,,,76,0
111450,note_on,0,0,0,,,,,,,,0,,,83,0
111480,note_on,30,0,0,,,,,,,,0,,,76,31
111480,note_on,0,0,0,,,,,,,,0,,,83,31
111570,note_on,90,0,0,,,,,,,,0,,,83,0
111570,note_on,0,0,0,,,,,,,,0,,,76,0
111580,note_on,10,0,0,,,,,,,,0,,,92,0
111580,note_on,0,0,0,,,,,,,,0,,,88,0
111600,note_on,20,0,0,,,,,,,,0,,,88,34
111600,note_on,0,0,0,,,,,,,,0,,,92,37
111614,control_change,14,0,0,,,,,,,,0,64,0,,
111671,control_change,57,0,0,,,,,,,,0,64,127,,
111718,note_on,47,0,0,,,,,,,,0,,,92,0
111718,note_on,0,0,0,,,,,,,,0,,,88,0
111720,set_tempo,2,1,0,,,,,,488998,,,,,,
111720,note_on,0,0,0,,,,,,,,0,,,83,30
111720,note_on,0,0,0,,,,,,,,0,,,90,34
111735,control_change,15,0,0,,,,,,,,0,64,0,,
111838,note_on,103,0,0,,,,,,,,0,,,90,0
111838,note_on,0,0,0,,,,,,,,0,,,83,0
111840,set_tempo,2,1,0,,,,,,478774,,,,,,
111840,note_on,0,0,0,,,,,,,,0,,,80,36
111840,note_on,0,0,0,,,,,,,,0,,,88,41
111840,note_on,0,0,0,,,,,,,,0,,,71,34
111840,note_on,0,0,0,,,,,,,,0,,,76,34
111904,control_change,64,0,0,,,,,,,,0,64,127,,
111930,note_on,26,0,0,,,,,,,,0,,,76,0
111930,note_on,0,0,0,,,,,,,,0,,,71,0
111960,note_on,30,0,0,,,,,,,,0,,,71,32
111960,note_on,0,0,0,,,,,,,,0,,,76,32
112050,note_on,90,0,0,,,,,,,,0,,,76,0
112050,note_on,0,0,0,,,,,,,,0,,,71,0
112060,note_on,10,0,0,,,,,,,,0,,,88,0
112060,note_on,0,0,0,,,,,,,,0,,,80,0
112080,note_on,20,0,0,,,,,,,,0,,,83,42
112080,note_on,0,0,0,,,,,,,,0,,,80,36
112095,control_change,15,0,0,,,,,,,,0,64,0,,
112158,control_change,63,0,0,,,,,,,,0,64,127,,
112198,note_on,40,0,0,,,,,,,,0,,,80,0
112198,note_on,0,0,0,,,,,,,,0,,,83,0
112200,set_tempo,2,1,0,,,,,,486934,,,,,,
112200,note_on,0,0,0,,,,,,,,0,,,78,34
112200,note_on,0,0,0,,,,,,,,0,,,81,37
112318,note_on,118,0,0,,,,,,,,0,,,81,0
112318,note_on,0,0,0,,,,,,,,0,,,78,0
112320,set_tempo,2,1,0,,,,,,476796,,,,,,
112320,note_on,0,0,0,,,,,,,,0,,,76,40
112320,note_on,0,0,0,,,,,,,,0,,,80,45
112320,note_on,0,0,0,,,,,,,,0,,,64,34
112320,note_on,0,0,0,,,,,,,,0,,,71,34
112328,control_change,8,0,0,,,,,,,,0,64,0,,
112410,note_on,82,0,0,,,,,,,,0,,,71,0
112410,note_on,0,0,0,,,,,,,,0,,,64,0
112426,control_change,16,0,0,,,,,,,,0,64,127,,
112440,note_on,14,0,0,,,,,,,,0,,,64,32
112440,note_on,0,0,0,,,,,,,,0,,,71,32
112530,note_on,90,0,0,,,,,,,,0,,,71,0
112530,note_on,0,0,0,,,,,,,,0,,,64,0
112540,note_on,10,0,0,,,,,,,,0,,,80,0
112540,note_on,0,0,0,,,,,,,,0,,,76,0
112560,note_on,20,0,0,,,,,,,,0,,,76,34
112560,note_on,0,0,0,,,,,,,,0,,,80,37
112574,control_change,14,0,0,,,,,,,,0,64,0,,
112645,control_change,71,0,0,,,,,,,,0,64,127,,
112678,note_on,33,0,0,,,,,,,,0,,,80,0
112678,note_on,0,0,0,,,,,,,,0,,,76,0
112680,set_tempo,2,1,0,,,,,,495376,,,,,,
112680,note_on,0,0,0,,,,,,,,0,,,71,34
112680,note_on,0,0,0,,,,,,,,0,,,78,37
112683,control_change,3,0,0,,,,,,,,0,64,0,,
112798,note_on,115,0,0,,,,,,,,0,,,78,0
112798,note_on,0,0,0,,,,,,,,0,,,71,0
112800,set_tempo,2,1,0,,,,,,486934,,,,,,
112800,note_on,0,0,0,,,,,,,,0,,,68,36
112800,note_on,0,0,0,,,,,,,,0,,,76,42
112800,note_on,0,0,0,,,,,,,,0,,,59,34
112800,note_on,0,0,0,,,,,,,,0,,,64,34
112828,control_change,28,0,0,,,,,,,,0,64,127,,
112890,note_on,62,0,0,,,,,,,,0,,,64,0
112890,note_on,0,0,0,,,,,,,,0,,,59,0
112920,note_on,30,0,0,,,,,,,,0,,,59,32
112920,note_on,0,0,0,,,,,,,,0,,,64,32
113010,note_on,90,0,0,,,,,,,,0,,,64,0
113010,note_on,0,0,0,,,,,,,,0,,,59,0
113020,note_on,10,0,0,,,,,,,,0,,,76,0
113020,note_on,0,0,0,,,,,,,,0,,,68,0
113040,note_on,20,0,0,,,,,,,,0,,,68,36
113040,note_on,0,0,0,,,,,,,,0,,,76,42
113053,control_change,13,0,0,,,,,,,,0,64,0,,
113104,control_change,51,0,0,,,,,,,,0,64,127,,
113158,note_on,54,0,0,,,,,,,,0,,,76,0
113158,note_on,0,0,0,,,,,,,,0,,,68,0
113160,set_tempo,2,1,0,,,,,,497512,,,,,,
113160,note_on,0,0,0,,,,,,,,0,,,71,34
113160,note_on,0,0,0,,,,,,,,0,,,78,37
113166,control_change,6,0,0,,,,,,,,0,64,0,,
113278,note_on,112,0,0,,,,,,,,0,,,78,0
113278,note_on,0,0,0,,,,,,,,0,,,71,0
113280,set_tempo,2,1,0,,,,,,486934,,,,,,
113280,note_on,0,0,0,,,,,,,,0,,,76,40
113280,note_on,0,0,0,,,,,,,,0,,,80,45
113280,note_on,0,0,0,,,,,,,,0,,,52,35
113280,note_on,0,0,0,,,,,,,,0,,,59,35
113337,control_change,57,0,0,,,,,,,,0,64,127,,
113370,note_on,33,0,0,,,,,,,,0,,,59,0
113370,note_on,0,0,0,,,,,,,,0,,,52,0
113400,note_on,30,0,0,,,,,,,,0,,,52,32
113400,note_on,0,0,0,,,,,,,,0,,,59,32
113490,note_on,90,0,0,,,,,,,,0,,,59,0
113490,note_on,0,0,0,,,,,,,,0,,,52,0
113500,note_on,10,0,0,,,,,,,,0,,,80,0
113500,note_on,0,0,0,,,,,,,,0,,,76,0
113520,set_tempo,20,1,0,,,,,,497512,,,,,,
113520,note_on,0,0,0,,,,,,,,0,,,78,39
113520,note_on,0,0,0,,,,,,,,0,,,81,44
113554,control_change,34,0,0,,,,,,,,0,64,0,,
113619,control_change,65,0,0,,,,,,,,0,64,127,,
113638,note_on,19,0,0,,,,,,,,0,,,81,0
113638,note_on,0,0,0,,,,,,,,0,,,78,0
113640,set_tempo,2,1,0,,,,,,513128,,,,,,
113640,note_on,0,0,0,,,,,,,,0,,,76,35
113640,note_on,0,0,0,,,,,,,,0,,,80,40
113758,note_on,118,0,0,,,,,,,,0,,,80,0
113758,note_on,0,0,0,,,,,,,,0,,,76,0
113760,set_tempo,2,1,0,,,,,,495376,,,,,,
113760,note_on,0,0,0,,,,,,,,0,,,71,36
113760,note_on,0,0,0,,,,,,,,0,,,78,41
113760,note_on,0,0,0,,,,,,,,0,,,63,34
113760,note_on,0,0,0,,,,,,,,0,,,59,34
113779,control_change,19,0,0,,,,,,,,0,64,0,,
113838,control_change,59,0,0,,,,,,,,0,64,127,,
113850,note_on,12,0,0,,,,,,,,0,,,59,0
113850,note_on,0,0,0,,,,,,,,0,,,63,0
113880,note_on,30,0,0,,,,,,,,0,,,59,33
113880,note_on,0,0,0,,,,,,,,0,,,63,33
113970,note_on,90,0,0,,,,,,,,0,,,63,0
113970,note_on,0,0,0,,,,,,,,0,,,59,0
113980,note_on,10,0,0,,,,,,,,0,,,78,0
113980,note_on,0,0,0,,,,,,,,0,,,71,0
114000,set_tempo,20,1,0,,,,,,506286,,,,,,
114000,note_on,0,0,0,,,,,,,,0,,,76,40
114000,note_on,0,0,0,,,,,,,,0,,,80,45
114010,control_change,10,0,0,,,,,,,,0,64,0,,
114071,control_change,61,0,0,,,,,,,,0,64,127,,
114118,note_on,47,0,0,,,,,,,,0,,,80,0
114118,note_on,0,0,0,,,,,,,,0,,,76,0
114120,set_tempo,2,1,0,,,,,,520111,,,,,,
114120,note_on,0,0,0,,,,,,,,0,,,71,33
114120,note_on,0,0,0,,,,,,,,0,,,78,36
114139,control_change,19,0,0,,,,,,,,0,64,0,,
114238,note_on,99,0,0,,,,,,,,0,,,78,0
114238,note_on,0,0,0,,,,,,,,0,,,71,0
114240,set_tempo,2,1,0,,,,,,513128,,,,,,
114240,note_on,0,0,0,,,,,,,,0,,,68,35
114240,note_on,0,0,0,,,,,,,,0,,,76,39
114240,note_on,0,0,0,,,,,,,,0,,,59,45
114240,note_on,0,0,0,,,,,,,,0,,,52,45
114279,control_change,39,0,0,,,,,,,,0,64,127,,
114330,note_on,51,0,0,,,,,,,,0,,,52,0
114330,note_on,0,0,0,,,,,,,,0,,,59,0
114360,set_tempo,30,1,0,,,,,,498380,,,,,,
114360,note_on,0,0,0,,,,,,,,0,,,59,43
114360,note_on,0,0,0,,,,,,,,0,,,52,43
114450,note_on,90,0,0,,,,,,,,0,,,52,0
114450,note_on,0,0,0,,,,,,,,0,,,59,0
114480,set_tempo,30,1,0,,,,,,530786,,,,,,
114480,note_on,0,0,0,,,,,,,,0,,,64,47
114570,note_on,90,0,0,,,,,,,,0,,,64,0
114600,set_tempo,30,1,0,,,,,,562008,,,,,,
114600,note_on,0,0,0,,,,,,,,0,,,64,45
114690,note_on,90,0,0,,,,,,,,0,,,64,0
114720,set_tempo,30,1,0,,,,,,543331,,,,,,
114720,note_on,0,0,0,,,,,,,,0,,,76,0
114720,note_on,0,0,0,,,,,,,,0,,,68,0
114720,note_on,0,0,0,,,,,,,,0,,,71,53
114960,set_tempo,240,1,0,,,,,,475248,,,,,,
114960,note_on,0,0,0,,,,,,,,0,,,71,0
114960,note_on,0,0,0,,,,,,,,0,,,56,53
114960,note_on,0,0,0,,,,,,,,0,,,64,60
114971,control_change,11,0,0,,,,,,,,0,64,0,,
115018,note_on,47,0,0,,,,,,,,0,,,64,0
115018,note_on,0,0,0,,,,,,,,0,,,56,0
115080,set_tempo,62,1,0,,,,,,506971,,,,,,
115080,note_on,0,0,0,,,,,,,,0,,,64,51
115080,note_on,0,0,0,,,,,,,,0,,,68,56
115138,note_on,58,0,0,,,,,,,,0,,,68,0
115138,note_on,0,0,0,,,,,,,,0,,,64,0
115200,set_tempo,62,1,0,,,,,,494927,,,,,,
115200,note_on,0,0,0,,,,,,,,0,,,59,59
115200,note_on,0,0,0,,,,,,,,0,,,66,65
115420,note_on,220,0,0,,,,,,,,0,,,66,0
115420,note_on,0,0,0,,,,,,,,0,,,59,0
115440,set_tempo,20,1,0,,,,,,467035,,,,,,
115440,note_on,0,0,0,,,,,,,,0,,,64,53
115440,note_on,0,0,0,,,,,,,,0,,,68,60
115498,note_on,58,0,0,,,,,,,,0,,,68,0
115498,note_on,0,0,0,,,,,,,,0,,,64,0
115560,set_tempo,62,1,0,,,,,,482820,,,,,,
115560,note_on,0,0,0,,,,,,,,0,,,66,50
115560,note_on,0,0,0,,,,,,,,0,,,69,55
115618,note_on,58,0,0,,,,,,,,0,,,69,0
115618,note_on,0,0,0,,,,,,,,0,,,66,0
115680,set_tempo,62,1,0,,,,,,489197,,,,,,
115680,note_on,0,0,0,,,,,,,,0,,,68,56
115680,note_on,0,0,0,,,,,,,,0,,,71,63
115900,note_on,220,0,0,,,,,,,,0,,,71,0
115900,note_on,0,0,0,,,,,,,,0,,,68,0
115920,set_tempo,20,1,0,,,,,,465152,,,,,,
115920,note_on,0,0,0,,,,,,,,0,,,69,54
115920,note_on,0,0,0,,,,,,,,0,,,73,62
115978,note_on,58,0,0,,,,,,,,0,,,73,0
115978,note_on,0,0,0,,,,,,,,0,,,69,0
116040,set_tempo,62,1,0,,,,,,482820,,,,,,
116040,note_on,0,0,0,,,,,,,,0,,,68,52
116040,note_on,0,0,0,,,,,,,,0,,,71,57
116098,note_on,58,0,0,,,,,,,,0,,,71,0
116098,note_on,0,0,0,,,,,,,,0,,,68,0
116160,set_tempo,62,1,0,,,,,,497925,,,,,,
116160,note_on,0,0,0,,,,,,,,0,,,66,60
116160,note_on,0,0,0,,,,,,,,0,,,69,66
116380,note_on,220,0,0,,,,,,,,0,,,69,0
116380,note_on,0,0,0,,,,,,,,0,,,66,0
116400,set_tempo,20,1,0,,,,,,465152,,,,,,
116400,note_on,0,0,0,,,,,,,,0,,,64,54
116400,note_on,0,0,0,,,,,,,,0,,,68,61
116458,note_on,58,0,0,,,,,,,,0,,,68,0
116458,note_on,0,0,0,,,,,,,,0,,,64,0
116520,set_tempo,62,1,0,,,,,,486934,,,,,,
116520,note_on,0,0,0,,,,,,,,0,,,66,54
116520,note_on,0,0,0,,,,,,,,0,,,69,61
116578,note_on,58,0,0,,,,,,,,0,,,69,0
116578,note_on,0,0,0,,,,,,,,0,,,66,0
116640,set_tempo,62,1,0,,,,,,497925,,,,,,
116640,note_on,0,0,0,,,,,,,,0,,,59,60
116640,note_on,0,0,0,,,,,,,,0,,,66,66
116860,set_tempo,220,1,0,,,,,,467253,,,,,,
116860,note_on,0,0,0,,,,,,,,0,,,66,0
116860,note_on,0,0,0,,,,,,,,0,,,59,0
116880,set_tempo,20,1,0,,,,,,480808,,,,,,
116880,note_on,0,0,0,,,,,,,,0,,,56,53
116880,note_on,0,0,0,,,,,,,,0,,,64,60
116938,note_on,58,0,0,,,,,,,,0,,,64,0
116938,note_on,0,0,0,,,,,,,,0,,,56,0
117000,set_tempo,62,1,0,,,,,,494927,,,,,,
117000,note_on,0,0,0,,,,,,,,0,,,64,50
117000,note_on,0,0,0,,,,,,,,0,,,68,55
117058,note_on,58,0,0,,,,,,,,0,,,68,0
117058,note_on,0,0,0,,,,,,,,0,,,64,0
117120,set_tempo,62,1,0,,,,,,503905,,,,,,
117120,note_on,0,0,0,,,,,,,,0,,,59,59
117120,note_on,0,0,0,,,,,,,,0,,,66,65
117340,note_on,220,0,0,,,,,,,,0,,,66,0
117340,note_on,0,0,0,,,,,,,,0,,,59,0
117360,set_tempo,20,1,0,,,,,,476796,,,,,,
117360,note_on,0,0,0,,,,,,,,0,,,64,53
117360,note_on,0,0,0,,,,,,,,0,,,68,60
117418,note_on,58,0,0,,,,,,,,0,,,68,0
117418,note_on,0,0,0,,,,,,,,0,,,64,0
117480,set_tempo,62,1,0,,,,,,504075,,,,,,
117480,note_on,0,0,0,,,,,,,,0,,,66,49
117480,note_on,0,0,0,,,,,,,,0,,,69,54
117538,note_on,58,0,0,,,,,,,,0,,,69,0
117538,note_on,0,0,0,,,,,,,,0,,,66,0
117600,set_tempo,62,1,0,,,,,,491119,,,,,,
117600,note_on,0,0,0,,,,,,,,0,,,68,56
117600,note_on,0,0,0,,,,,,,,0,,,71,63
117820,note_on,220,0,0,,,,,,,,0,,,71,0
117820,note_on,0,0,0,,,,,,,,0,,,68,0
117840,set_tempo,20,1,0,,,,,,478774,,,,,,
117840,note_on,0,0,0,,,,,,,,0,,,69,56
117840,note_on,0,0,0,,,,,,,,0,,,73,63
117898,note_on,58,0,0,,,,,,,,0,,,73,0
117898,note_on,0,0,0,,,,,,,,0,,,69,0
117960,set_tempo,62,1,0,,,,,,500835,,,,,,
117960,note_on,0,0,0,,,,,,,,0,,,68,53
117960,note_on,0,0,0,,,,,,,,0,,,71,60
118018,note_on,58,0,0,,,,,,,,0,,,71,0
118018,note_on,0,0,0,,,,,,,,0,,,68,0
118080,set_tempo,62,1,0,,,,,,724200,,,,,,
118080,note_on,0,0,0,,,,,,,,0,,,66,60
118080,note_on,0,0,0,,,,,,,,0,,,69,66
118300,note_on,220,0,0,,,,,,,,0,,,69,0
118300,note_on,0,0,0,,,,,,,,0,,,66,0
118320,set_tempo,20,1,0,,,,,,986518,,,,,,
118320,note_on,0,0,0,,,,,,,,0,,,64,53
118320,note_on,0,0,0,,,,,,,,0,,,68,60
118378,note_on,58,0,0,,,,,,,,0,,,68,0
118378,note_on,0,0,0,,,,,,,,0,,,64,0
118440,set_tempo,62,1,0,,,,,,1155847,,,,,,
118440,note_on,0,0,0,,,,,,,,0,,,66,50
118440,note_on,0,0,0,,,,,,,,0,,,69,55
118498,note_on,58,0,0,,,,,,,,0,,,69,0
118498,note_on,0,0,0,,,,,,,,0,,,66,0
118560,set_tempo,62,1,0,,,,,,1494396,,,,,,
118560,note_on,0,0,0,,,,,,,,0,,,59,52
118560,note_on,0,0,0,,,,,,,,0,,,66,57
118740,note_on,180,0,0,,,,,,,,0,,,66,0
118740,note_on,0,0,0,,,,,,,,0,,,59,0
118800,set_tempo,60,1,0,,,,,,478774,,,,,,
118800,note_on,0,0,0,,,,,,,,0,,,92,37
118800,note_on,0,0,0,,,,,,,,0,,,95,43
118828,control_change,28,0,0,,,,,,,,0,64,127,,
118918,note_on,90,0,0,,,,,,,,0,,,95,0
118918,note_on,0,0,0,,,,,,,,0,,,92,0
118920,note_on,2,0,0,,,,,,,,0,,,90,35
118920,note_on,0,0,0,,,,,,,,0,,,93,40
119038,note_on,118,0,0,,,,,,,,0,,,93,0
119038,note_on,0,0,0,,,,,,,,0,,,90,0
119040,set_tempo,2,1,0,,,,,,472851,,,,,,
119040,note_on,0,0,0,,,,,,,,0,,,88,42
119040,note_on,0,0,0,,,,,,,,0,,,92,46
119040,note_on,0,0,0,,,,,,,,0,,,83,34
119040,note_on,0,0,0,,,,,,,,0,,,76,34
119043,control_change,3,0,0,,,,,,,,0,64,0,,
119118,control_change,75,0,0,,,,,,,,0,64,127,,
119130,note_on,12,0,0,,,,,,,,0,,,76,0
119130,note_on,0,0,0,,,,,,,,0,,,83,0
119160,note_on,30,0,0,,,,,,,,0,,,76,32
119160,note_on,0,0,0,,,,,,,,0,,,83,32
119250,note_on,90,0,0,,,,,,,,0,,,83,0
119250,note_on,0,0,0,,,,,,,,0,,,76,0
119260,note_on,10,0,0,,,,,,,,0,,,92,0
119260,note_on,0,0,0,,,,,,,,0,,,88,0
119280,note_on,20,0,0,,,,,,,,0,,,88,34
119280,note_on,0,0,0,,,,,,,,0,,,92,37
119287,control_change,7,0,0,,,,,,,,0,64,0,,
119351,control_change,64,0,0,,,,,,,,0,64,127,,
119398,note_on,47,0,0,,,,,,,,0,,,92,0
119398,note_on,0,0,0,,,,,,,,0,,,88,0
119400,set_tempo,2,1,0,,,,,,484848,,,,,,
119400,note_on,0,0,0,,,,,,,,0,,,83,31
119400,note_on,0,0,0,,,,,,,,0,,,90,35
119518,note_on,118,0,0,,,,,,,,0,,,90,0
119518,note_on,0,0,0,,,,,,,,0,,,83,0
119520,set_tempo,2,1,0,,,,,,472851,,,,,,
119520,note_on,0,0,0,,,,,,,,0,,,80,36
119520,note_on,0,0,0,,,,,,,,0,,,88,41
119520,note_on,0,0,0,,,,,,,,0,,,71,34
119520,note_on,0,0,0,,,,,,,,0,,,76,34
119532,control_change,12,0,0,,,,,,,,0,64,0,,
119584,control_change,52,0,0,,,,,,,,0,64,127,,
119610,note_on,26,0,0,,,,,,,,0,,,76,0
119610,note_on,0,0,0,,,,,,,,0,,,71,0
119640,note_on,30,0,0,,,,,,,,0,,,71,31
119640,note_on,0,0,0,,,,,,,,0,,,76,31
119730,note_on,90,0,0,,,,,,,,0,,,76,0
119730,note_on,0,0,0,,,,,,,,0,,,71,0
119740,note_on,10,0,0,,,,,,,,0,,,88,0
119740,note_on,0,0,0,,,,,,,,0,,,80,0
119760,note_on,20,0,0,,,,,,,,0,,,83,42
119760,note_on,0,0,0,,,,,,,,0,,,80,36
119774,control_change,14,0,0,,,,,,,,0,64,0,,
119838,control_change,64,0,0,,,,,,,,0,64,127,,
119878,note_on,40,0,0,,,,,,,,0,,,80,0
119878,note_on,0,0,0,,,,,,,,0,,,83,0
119880,set_tempo,2,1,0,,,,,,482820,,,,,,
119880,note_on,0,0,0,,,,,,,,0,,,78,35
119880,note_on,0,0,0,,,,,,,,0,,,81,39
119998,note_on,118,0,0,,,,,,,,0,,,81,0
119998,note_on,0,0,0,,,,,,,,0,,,78,0
120000,set_tempo,2,1,0,,,,,,472851,,,,,,
120000,note_on,0,0,0,,,,,,,,0,,,76,40
120000,note_on,0,0,0,,,,,,,,0,,,80,45
120000,note_on,0,0,0,,,,,,,,0,,,64,34
120000,note_on,0,0,0,,,,,,,,0,,,71,34
120006,control_change,6,0,0,,,,,,,,0,64,0,,
120078,control_change,72,0,0,,,,,,,,0,64,127,,
120090,note_on,12,0,0,,,,,,,,0,,,71,0
120090,note_on,0,0,0,,,,,,,,0,,,64,0
120120,note_on,30,0,0,,,,,,,,0,,,64,31
120120,note_on,0,0,0,,,,,,,,0,,,71,31
120210,note_on,90,0,0,,,,,,,,0,,,71,0
120210,note_on,0,0,0,,,,,,,,0,,,64,0
120220,note_on,10,0,0,,,,,,,,0,,,80,0
120220,note_on,0,0,0,,,,,,,,0,,,76,0
120240,note_on,20,0,0,,,,,,,,0,,,76,34
120240,note_on,0,0,0,,,,,,,,0,,,80,37
120247,control_change,7,0,0,,,,,,,,0,64,0,,
120297,control_change,50,0,0,,,,,,,,0,64,127,,
120358,note_on,61,0,0,,,,,,,,0,,,80,0
120358,note_on,0,0,0,,,,,,,,0,,,76,0
120360,set_tempo,2,1,0,,,,,,495376,,,,,,
120360,note_on,0,0,0,,,,,,,,0,,,71,31
120360,note_on,0,0,0,,,,,,,,0,,,78,35
120385,control_change,25,0,0,,,,,,,,0,64,0,,
120478,note_on,93,0,0,,,,,,,,0,,,78,0
120478,note_on,0,0,0,,,,,,,,0,,,71,0
120480,set_tempo,2,1,0,,,,,,486934,,,,,,
120480,note_on,0,0,0,,,,,,,,0,,,68,36
120480,note_on,0,0,0,,,,,,,,0,,,76,42
120480,note_on,0,0,0,,,,,,,,0,,,59,34
120480,note_on,0,0,0,,,,,,,,0,,,64,34
120551,control_change,71,0,0,,,,,,,,0,64,127,,
120570,note_on,19,0,0,,,,,,,,0,,,64,0
120570,note_on,0,0,0,,,,,,,,0,,,59,0
120600,note_on,30,0,0,,,,,,,,0,,,59,32
120600,note_on,0,0,0,,,,,,,,0,,,64,32
120690,note_on,90,0,0,,,,,,,,0,,,64,0
120690,note_on,0,0,0,,,,,,,,0,,,59,0
120700,note_on,10,0,0,,,,,,,,0,,,76,0
120700,note_on,0,0,0,,,,,,,,0,,,68,0
120720,note_on,20,0,0,,,,,,,,0,,,56,36
120720,note_on,0,0,0,,,,,,,,0,,,64,42
120739,control_change,19,0,0,,,,,,,,0,64,0,,
120784,control_change,45,0,0,,,,,,,,0,64,127,,
120838,note_on,54,0,0,,,,,,,,0,,,64,0
120838,note_on,0,0,0,,,,,,,,0,,,56,0
120840,set_tempo,2,1,0,,,,,,497512,,,,,,
120840,note_on,0,0,0,,,,,,,,0,,,59,35
120840,note_on,0,0,0,,,,,,,,0,,,66,39
120856,control_change,16,0,0,,,,,,,,0,64,0,,
120958,note_on,102,0,0,,,,,,,,0,,,66,0
120958,note_on,0,0,0,,,,,,,,0,,,59,0
120960,set_tempo,2,1,0,,,,,,504075,,,,,,
120960,note_on,0,0,0,,,,,,,,0,,,64,40
120960,note_on,0,0,0,,,,,,,,0,,,68,45
120960,note_on,0,0,0,,,,,,,,0,,,52,34
120960,note_on,0,0,0,,,,,,,,0,,,59,34
121003,control_change,43,0,0,,,,,,,,0,64,127,,
121050,note_on,47,0,0,,,,,,,,0,,,59,0
121050,note_on,0,0,0,,,,,,,,0,,,52,0
121080,note_on,30,0,0,,,,,,,,0,,,52,32
121080,note_on,0,0,0,,,,,,,,0,,,59,32
121170,note_on,90,0,0,,,,,,,,0,,,59,0
121170,note_on,0,0,0,,,,,,,,0,,,52,0
121190,note_on,20,0,0,,,,,,,,0,,,68,0
121190,note_on,0,0,0,,,,,,,,0,,,64,0
121200,set_tempo,10,1,0,,,,,,497512,,,,,,
121200,note_on,0,0,0,,,,,,,,0,,,66,39
121200,note_on,0,0,0,,,,,,,,0,,,69,44
121222,control_change,22,0,0,,,,,,,,0,64,0,,
121318,note_on,96,0,0,,,,,,,,0,,,69,0
121318,note_on,0,0,0,,,,,,,,0,,,66,0
121320,set_tempo,2,1,0,,,,,,513128,,,,,,
121320,note_on,0,0,0,,,,,,,,0,,,64,35
121320,note_on,0,0,0,,,,,,,,0,,,68,40
121438,note_on,118,0,0,,,,,,,,0,,,68,0
121438,note_on,0,0,0,,,,,,,,0,,,64,0
121440,set_tempo,2,1,0,,,,,,501882,,,,,,
121440,note_on,0,0,0,,,,,,,,0,,,59,36
121440,note_on,0,0,0,,,,,,,,0,,,66,41
121440,note_on,0,0,0,,,,,,,,0,,,51,34
121440,note_on,0,0,0,,,,,,,,0,,,47,34
121518,control_change,78,0,0,,,,,,,,0,64,127,,
121530,note_on,12,0,0,,,,,,,,0,,,47,0
121530,note_on,0,0,0,,,,,,,,0,,,51,0
121560,note_on,30,0,0,,,,,,,,0,,,47,32
121560,note_on,0,0,0,,,,,,,,0,,,51,32
121650,note_on,90,0,0,,,,,,,,0,,,51,0
121650,note_on,0,0,0,,,,,,,,0,,,47,0
121670,note_on,20,0,0,,,,,,,,0,,,66,0
121670,note_on,0,0,0,,,,,,,,0,,,59,0
121680,set_tempo,10,1,0,,,,,,506286,,,,,,
121680,note_on,0,0,0,,,,,,,,0,,,64,40
121680,note_on,0,0,0,,,,,,,,0,,,68,45
121694,control_change,14,0,0,,,,,,,,0,64,0,,
121798,note_on,104,0,0,,,,,,,,0,,,68,0
121798,note_on,0,0,0,,,,,,,,0,,,64,0
121800,set_tempo,2,1,0,,,,,,520111,,,,,,
121800,note_on,0,0,0,,,,,,,,0,,,59,33
121800,note_on,0,0,0,,,,,,,,0,,,66,36
121918,note_on,118,0,0,,,,,,,,0,,,66,0
121918,note_on,0,0,0,,,,,,,,0,,,59,0
121920,set_tempo,2,1,0,,,,,,527287,,,,,,
121920,note_on,0,0,0,,,,,,,,0,,,56,35
121920,note_on,0,0,0,,,,,,,,0,,,64,39
121920,note_on,0,0,0,,,,,,,,0,,,47,36
121920,note_on,0,0,0,,,,,,,,0,,,40,36
121963,control_change,43,0,0,,,,,,,,0,64,127,,
122010,note_on,47,0,0,,,,,,,,0,,,40,0
122010,note_on,0,0,0,,,,,,,,0,,,47,0
122040,note_on,30,0,0,,,,,,,,0,,,40,35
122040,note_on,0,0,0,,,,,,,,0,,,47,35
122130,note_on,90,0,0,,,,,,,,0,,,47,0
122130,note_on,0,0,0,,,,,,,,0,,,40,0
122160,note_on,30,0,0,,,,,,,,0,,,40,36
122160,note_on,0,0,0,,,,,,,,0,,,47,36
122400,set_tempo,240,1,0,,,,,,510856,,,,,,
122400,note_on,0,0,0,,,,,,,,0,,,47,0
122400,note_on,0,0,0,,,,,,,,0,,,56,0
122400,note_on,0,0,0,,,,,,,,0,,,64,0
122400,note_on,0,0,0,,,,,,,,0,,,40,0
122400,note_on,0,0,0,,,,,,,,0,,,59,34
122400,note_on,0,0,0,,,,,,,,0,,,66,37
122425,control_change,25,0,0,,,,,,,,0,64,0,,
122620,set_tempo,195,1,0,,,,,,534712,,,,,,
122630,note_on,10,0,0,,,,,,,,0,,,66,0
122630,note_on,0,0,0,,,,,,,,0,,,59,0
122640,set_tempo,10,1,0,,,,,,532245,,,,,,
122640,note_on,0,0,0,,,,,,,,0,,,64,36
122640,note_on,0,0,0,,,,,,,,0,,,68,42
122758,note_on,118,0,0,,,,,,,,0,,,68,0
122758,note_on,0,0,0,,,,,,,,0,,,64,0
122760,set_tempo,2,1,0,,,,,,544910,,,,,,
122760,note_on,0,0,0,,,,,,,,0,,,59,32
122760,note_on,0,0,0,,,,,,,,0,,,66,36
122878,note_on,118,0,0,,,,,,,,0,,,66,0
122878,note_on,0,0,0,,,,,,,,0,,,59,0
122880,set_tempo,2,1,0,,,,,,605449,,,,,,
122880,note_on,0,0,0,,,,,,,,0,,,56,33
122880,note_on,0,0,0,,,,,,,,0,,,64,36
122880,note_on,0,0,0,,,,,,,,0,,,47,35
122880,note_on,0,0,0,,,,,,,,0,,,40,35
122958,control_change,78,0,0,,,,,,,,0,64,127,,
122970,note_on,12,0,0,,,,,,,,0,,,40,0
122970,note_on,0,0,0,,,,,,,,0,,,47,0
123000,note_on,30,0,0,,,,,,,,0,,,40,33
123000,note_on,0,0,0,,,,,,,,0,,,47,33
123090,note_on,90,0,0,,,,,,,,0,,,47,0
123090,note_on,0,0,0,,,,,,,,0,,,40,0
123120,note_on,30,0,0,,,,,,,,0,,,40,35
123120,note_on,0,0,0,,,,,,,,0,,,47,35
123360,set_tempo,240,1,0,,,,,,747943,,,,,,
123360,note_on,0,0,0,,,,,,,,0,,,47,0
123360,note_on,0,0,0,,,,,,,,0,,,56,0
123360,note_on,0,0,0,,,,,,,,0,,,64,0
123360,note_on,0,0,0,,,,,,,,0,,,40,0
123360,note_on,0,0,0,,,,,,,,0,,,59,29
123360,note_on,0,0,0,,,,,,,,0,,,66,33
123377,control_change,17,0,0,,,,,,,,0,64,0,,
123590,note_on,213,0,0,,,,,,,,0,,,66,0
123590,note_on,0,0,0,,,,,,,,0,,,59,0
123600,set_tempo,10,1,0,,,,,,937940,,,,,,
123600,note_on,0,0,0,,,,,,,,0,,,64,30
123600,note_on,0,0,0,,,,,,,,0,,,68,34
123718,note_on,118,0,0,,,,,,,,0,,,68,0
123718,note_on,0,0,0,,,,,,,,0,,,64,0
123720,set_tempo,2,1,0,,,,,,1111111,,,,,,
123720,note_on,0,0,0,,,,,,,,0,,,59,26
123720,note_on,0,0,0,,,,,,,,0,,,66,30
123838,note_on,118,0,0,,,,,,,,0,,,66,0
123838,note_on,0,0,0,,,,,,,,0,,,59,0
123840,set_tempo,2,1,0,,,,,,1378993,,,,,,
123840,note_on,0,0,0,,,,,,,,0,,,56,27
123840,note_on,0,0,0,,,,,,,,0,,,64,31
124080,note_on,240,0,0,,,,,,,,0,,,64,0
124080,note_on,0,0,0,,,,,,,,0,,,56,0
124200,set_tempo,120,1,0,,,,,,470884,,,,,,
124200,note_on,0,0,0,,,,,,,,0,,,64,71
124200,note_on,0,0,0,,,,,,,,0,,,68,71
124200,note_on,0,0,0,,,,,,,,0,,,76,79
124200,note_on,0,0,0,,,,,,,,0,,,40,73
124200,note_on,0,0,0,,,,,,,,0,,,47,73
124200,note_on,0,0,0,,,,,,,,0,,,52,73
124250,control_change,50,0,0,,,,,,,,0,64,127,,
124318,note_on,68,0,0,,,,,,,,0,,,52,0
124318,note_on,0,0,0,,,,,,,,0,,,68,0
124318,note_on,0,0,0,,,,,,,,0,,,76,0
124318,note_on,0,0,0,,,,,,,,0,,,64,0
124318,note_on,0,0,0,,,,,,,,0,,,47,0
124318,note_on,0,0,0,,,,,,,,0,,,40,0
124320,set_tempo,2,1,0,,,,,,2336449,,,,,,
124320,note_on,0,0,0,,,,,,,,0,,,64,74
124320,note_on,0,0,0,,,,,,,,0,,,68,74
124320,note_on,0,0,0,,,,,,,,0,,,76,83
124320,note_on,0,0,0,,,,,,,,0,,,40,77
124320,note_on,0,0,0,,,,,,,,0,,,47,77
124320,note_on,0,0,0,,,,,,,,0,,,52,77
124560,note_on,240,0,0,,,,,,,,0,,,52,0
124560,note_on,0,0,0,,,,,,,,0,,,68,0
124560,note_on,0,0,0,,,,,,,,0,,,76,0
124560,note_on,0,0,0,,,,,,,,0,,,64,0
124560,note_on,0,0,0,,,,,,,,0,,,47,0
124560,note_on,0,0,0,,,,,,,,0,,,40,0
124567,control_change,7,0,0,,,,,,,,0,64,0,,
125210,set_tempo,643,1,0,,,,,,2336449,,,,,,
125210,end_of_track,0,1,0,,,,,,,,,,,,
