tick,type,time,meta,track,numerator,denominator,clocks_per_click,notated_32nd_notes_per_beat,key,tempo,program,channel,control,value,note,velocity
0,track_name,0,1,0,,,,,,,,,,,,
0,copyright,0,1,0,,,,,,,,,,,,
0,text,0,1,0,,,,,,,,,,,,
0,text,0,1,0,,,,,,,,,,,,
0,text,0,1,0,,,,,,,,,,,,
0,text,0,1,0,,,,,,,,,,,,
0,text,0,1,0,,,,,,,,,,,,
0,text,0,1,0,,,,,,,,,,,,
0,time_signature,0,1,0,4,4,24,8,,,,,,,,
0,key_signature,0,1,0,,,,,E,,,,,,,
0,set_tempo,0,1,0,,,,,,363592,,,,,,
0,program_change,0,0,0,,,,,,,0,0,,,,
0,control_change,0,0,0,,,,,,,,0,7,100,,
0,control_change,0,0,0,,,,,,,,0,10,64,,
0,control_change,0,0,0,,,,,,,,0,91,127,,
0,text,0,1,0,,,,,,,,,,,,
0,program_change,0,0,0,,,,,,,0,0,,,,
0,control_change,0,0,0,,,,,,,,0,7,100,,
0,control_change,0,0,0,,,,,,,,0,10,64,,
7,control_change,7,0,0,,,,,,,,0,64,0,,
960,set_tempo,953,1,0,,,,,,379363,,,,,,
960,note_on,0,0,0,,,,,,,,0,,,64,58
1020,note_on,60,0,0,,,,,,,,0,,,64,0
1080,note_on,60,0,0,,,,,,,,0,,,68,51
1170,note_on,90,0,0,,,,,,,,0,,,68,0
1200,set_tempo,30,1,0,,,,,,363504,,,,,,
1200,note_on,0,0,0,,,,,,,,0,,,71,46
1290,note_on,90,0,0,,,,,,,,0,,,71,0
1320,note_on,30,0,0,,,,,,,,0,,,76,46
1410,note_on,90,0,0,,,,,,,,0,,,76,0
1440,note_on,30,0,0,,,,,,,,0,,,76,65
1500,note_on,60,0,0,,,,,,,,0,,,76,0
1560,note_on,60,0,0,,,,,,,,0,,,71,51
1650,note_on,90,0,0,,,,,,,,0,,,71,0
1680,set_tempo,30,1,0,,,,,,393056,,,,,,
1680,note_on,0,0,0,,,,,,,,0,,,68,47
1770,note_on,90,0,0,,,,,,,,0,,,68,0
1800,note_on,30,0,0,,,,,,,,0,,,64,47
1890,note_on,90,0,0,,,,,,,,0,,,64,0
1920,set_tempo,30,1,0,,,,,,373111,,,,,,
1920,note_on,0,0,0,,,,,,,,0,,,63,58
1980,note_on,60,0,0,,,,,,,,0,,,63,0
2040,note_on,60,0,0,,,,,,,,0,,,66,51
2130,note_on,90,0,0,,,,,,,,0,,,66,0
2160,set_tempo,30,1,0,,,,,,362341,,,,,,
2160,note_on,0,0,0,,,,,,,,0,,,71,47
2250,note_on,90,0,0,,,,,,,,0,,,71,0
2280,note_on,30,0,0,,,,,,,,0,,,78,43
2370,note_on,90,0,0,,,,,,,,0,,,78,0
2400,note_on,30,0,0,,,,,,,,0,,,78,67
2460,note_on,60,0,0,,,,,,,,0,,,78,0
2520,note_on,60,0,0,,,,,,,,0,,,71,51
2610,note_on,90,0,0,,,,,,,,0,,,71,0
2640,set_tempo,30,1,0,,,,,,379891,,,,,,
2640,note_on,0,0,0,,,,,,,,0,,,66,48
2730,note_on,90,0,0,,,,,,,,0,,,66,0
2760,note_on,30,0,0,,,,,,,,0,,,63,43
2850,note_on,90,0,0,,,,,,,,0,,,63,0
2880,set_tempo,30,1,0,,,,,,369458,,,,,,
2880,note_on,0,0,0,,,,,,,,0,,,64,58
2940,note_on,60,0,0,,,,,,,,0,,,64,0
3000,note_on,60,0,0,,,,,,,,0,,,68,51
3090,note_on,90,0,0,,,,,,,,0,,,68,0
3120,set_tempo,30,1,0,,,,,,362341,,,,,,
3120,note_on,0,0,0,,,,,,,,0,,,71,47
3210,note_on,90,0,0,,,,,,,,0,,,71,0
3240,note_on,30,0,0,,,,,,,,0,,,76,42
3330,note_on,90,0,0,,,,,,,,0,,,76,0
3360,note_on,30,0,0,,,,,,,,0,,,76,70
3420,note_on,60,0,0,,,,,,,,0,,,76,0
3480,note_on,60,0,0,,,,,,,,0,,,71,51
3570,note_on,90,0,0,,,,,,,,0,,,71,0
3600,set_tempo,30,1,0,,,,,,393056,,,,,,
3600,note_on,0,0,0,,,,,,,,0,,,68,48
3690,note_on,90,0,0,,,,,,,,0,,,68,0
3720,note_on,30,0,0,,,,,,,,0,,,64,47
3810,note_on,90,0,0,,,,,,,,0,,,64,0
3840,set_tempo,30,1,0,,,,,,369458,,,,,,
3840,note_on,0,0,0,,,,,,,,0,,,59,58
3900,note_on,60,0,0,,,,,,,,0,,,59,0
3960,note_on,60,0,0,,,,,,,,0,,,66,51
4050,note_on,90,0,0,,,,,,,,0,,,66,0
4080,note_on,30,0,0,,,,,,,,0,,,75,51
4170,note_on,90,0,0,,,,,,,,0,,,75,0
4200,note_on,30,0,0,,,,,,,,0,,,83,48
4290,note_on,90,0,0,,,,,,,,0,,,83,0
4320,note_on,30,0,0,,,,,,,,0,,,83,58
4380,note_on,60,0,0,,,,,,,,0,,,83,0
4440,note_on,60,0,0,,,,,,,,0,,,75,51
4530,note_on,90,0,0,,,,,,,,0,,,75,0
4560,set_tempo,30,1,0,,,,,,415628,,,,,,
4560,note_on,0,0,0,,,,,,,,0,,,66,47
4650,note_on,90,0,0,,,,,,,,0,,,66,0
4680,note_on,30,0,0,,,,,,,,0,,,59,43
4770,note_on,90,0,0,,,,,,,,0,,,59,0
4800,set_tempo,30,1,0,,,,,,373111,,,,,,
4800,note_on,0,0,0,,,,,,,,0,,,64,51
4860,note_on,60,0,0,,,,,,,,0,,,64,0
4920,note_on,60,0,0,,,,,,,,0,,,68,45
5010,note_on,90,0,0,,,,,,,,0,,,68,0
5040,set_tempo,30,1,0,,,,,,365854,,,,,,
5040,note_on,0,0,0,,,,,,,,0,,,71,45
5130,note_on,90,0,0,,,,,,,,0,,,71,0
5160,note_on,30,0,0,,,,,,,,0,,,76,41
5250,note_on,90,0,0,,,,,,,,0,,,76,0
5280,note_on,30,0,0,,,,,,,,0,,,76,56
5340,note_on,60,0,0,,,,,,,,0,,,76,0
5400,note_on,60,0,0,,,,,,,,0,,,71,45
5490,note_on,90,0,0,,,,,,,,0,,,71,0
5520,set_tempo,30,1,0,,,,,,377050,,,,,,
5520,note_on,0,0,0,,,,,,,,0,,,68,44
5610,note_on,90,0,0,,,,,,,,0,,,68,0
5640,note_on,30,0,0,,,,,,,,0,,,64,42
5730,note_on,90,0,0,,,,,,,,0,,,64,0
5760,set_tempo,30,1,0,,,,,,370668,,,,,,
5760,note_on,0,0,0,,,,,,,,0,,,63,51
5820,note_on,60,0,0,,,,,,,,0,,,63,0
5880,note_on,60,0,0,,,,,,,,0,,,66,45
5970,note_on,90,0,0,,,,,,,,0,,,66,0
6000,set_tempo,30,1,0,,,,,,367062,,,,,,
6000,note_on,0,0,0,,,,,,,,0,,,71,45
6090,note_on,90,0,0,,,,,,,,0,,,71,0
6120,note_on,30,0,0,,,,,,,,0,,,78,41
6210,note_on,90,0,0,,,,,,,,0,,,78,0
6240,note_on,30,0,0,,,,,,,,0,,,78,54
6300,note_on,60,0,0,,,,,,,,0,,,78,0
6360,note_on,60,0,0,,,,,,,,0,,,71,45
6450,note_on,90,0,0,,,,,,,,0,,,71,0
6480,set_tempo,30,1,0,,,,,,381291,,,,,,
6480,note_on,0,0,0,,,,,,,,0,,,66,43
6570,note_on,90,0,0,,,,,,,,0,,,66,0
6600,note_on,30,0,0,,,,,,,,0,,,63,40
6690,note_on,90,0,0,,,,,,,,0,,,63,0
6720,set_tempo,30,1,0,,,,,,369458,,,,,,
6720,note_on,0,0,0,,,,,,,,0,,,64,51
6780,note_on,60,0,0,,,,,,,,0,,,64,0
6840,note_on,60,0,0,,,,,,,,0,,,68,45
6930,note_on,90,0,0,,,,,,,,0,,,68,0
6960,set_tempo,30,1,0,,,,,,362341,,,,,,
6960,note_on,0,0,0,,,,,,,,0,,,71,45
7050,note_on,90,0,0,,,,,,,,0,,,71,0
7080,note_on,30,0,0,,,,,,,,0,,,76,40
7170,note_on,90,0,0,,,,,,,,0,,,76,0
7200,note_on,30,0,0,,,,,,,,0,,,76,53
7260,note_on,60,0,0,,,,,,,,0,,,76,0
7320,note_on,60,0,0,,,,,,,,0,,,71,45
7410,note_on,90,0,0,,,,,,,,0,,,71,0
7440,set_tempo,30,1,0,,,,,,379891,,,,,,
7440,note_on,0,0,0,,,,,,,,0,,,68,42
7530,note_on,90,0,0,,,,,,,,0,,,68,0
7560,note_on,30,0,0,,,,,,,,0,,,64,39
7650,note_on,90,0,0,,,,,,,,0,,,64,0
7680,set_tempo,30,1,0,,,,,,368256,,,,,,
7680,note_on,0,0,0,,,,,,,,0,,,59,51
7740,note_on,60,0,0,,,,,,,,0,,,59,0
7800,note_on,60,0,0,,,,,,,,0,,,66,45
7890,note_on,90,0,0,,,,,,,,0,,,66,0
7920,set_tempo,30,1,0,,,,,,362341,,,,,,
7920,note_on,0,0,0,,,,,,,,0,,,75,45
8010,note_on,90,0,0,,,,,,,,0,,,75,0
8040,note_on,30,0,0,,,,,,,,0,,,83,42
8130,note_on,90,0,0,,,,,,,,0,,,83,0
8160,note_on,30,0,0,,,,,,,,0,,,83,56
8220,note_on,60,0,0,,,,,,,,0,,,83,0
8280,note_on,60,0,0,,,,,,,,0,,,75,45
8370,note_on,90,0,0,,,,,,,,0,,,75,0
8400,set_tempo,30,1,0,,,,,,393056,,,,,,
8400,note_on,0,0,0,,,,,,,,0,,,66,39
8490,note_on,90,0,0,,,,,,,,0,,,66,0
8520,note_on,30,0,0,,,,,,,,0,,,59,33
8610,note_on,90,0,0,,,,,,,,0,,,59,0
8640,set_tempo,30,1,0,,,,,,370668,,,,,,
8640,note_on,0,0,0,,,,,,,,0,,,56,53
8700,note_on,60,0,0,,,,,,,,0,,,56,0
8760,note_on,60,0,0,,,,,,,,0,,,64,46
8850,note_on,90,0,0,,,,,,,,0,,,64,0
8880,set_tempo,30,1,0,,,,,,363504,,,,,,
8880,note_on,0,0,0,,,,,,,,0,,,71,47
8970,note_on,90,0,0,,,,,,,,0,,,71,0
9000,note_on,30,0,0,,,,,,,,0,,,80,41
9090,note_on,90,0,0,,,,,,,,0,,,80,0
9120,note_on,30,0,0,,,,,,,,0,,,80,54
9180,note_on,60,0,0,,,,,,,,0,,,80,0
9240,note_on,60,0,0,,,,,,,,0,,,71,48
9330,note_on,90,0,0,,,,,,,,0,,,71,0
9360,set_tempo,30,1,0,,,,,,388576,,,,,,
9360,note_on,0,0,0,,,,,,,,0,,,64,42
9450,note_on,90,0,0,,,,,,,,0,,,64,0
9480,note_on,30,0,0,,,,,,,,0,,,56,39
9570,note_on,90,0,0,,,,,,,,0,,,56,0
9600,set_tempo,30,1,0,,,,,,378453,,,,,,
9600,note_on,0,0,0,,,,,,,,0,,,57,55
9660,note_on,60,0,0,,,,,,,,0,,,57,0
9720,note_on,60,0,0,,,,,,,,0,,,64,49
9810,note_on,90,0,0,,,,,,,,0,,,64,0
9840,set_tempo,30,1,0,,,,,,427746,,,,,,
9840,note_on,0,0,0,,,,,,,,0,,,73,49
9930,note_on,90,0,0,,,,,,,,0,,,73,0
9960,note_on,30,0,0,,,,,,,,0,,,81,46
10050,note_on,90,0,0,,,,,,,,0,,,81,0
10080,set_tempo,30,1,0,,,,,,454511,,,,,,
10080,note_on,0,0,0,,,,,,,,0,,,85,62
10140,note_on,60,0,0,,,,,,,,0,,,85,0
10320,set_tempo,180,1,0,,,,,,565611,,,,,,
10320,note_on,0,0,0,,,,,,,,0,,,88,67
10380,note_on,60,0,0,,,,,,,,0,,,88,0
10560,set_tempo,180,1,0,,,,,,373111,,,,,,
10560,note_on,0,0,0,,,,,,,,0,,,58,53
10620,note_on,60,0,0,,,,,,,,0,,,58,0
10680,note_on,60,0,0,,,,,,,,0,,,66,46
10770,note_on,90,0,0,,,,,,,,0,,,66,0
10800,set_tempo,30,1,0,,,,,,363504,,,,,,
10800,note_on,0,0,0,,,,,,,,0,,,73,47
10890,note_on,90,0,0,,,,,,,,0,,,73,0
10920,note_on,30,0,0,,,,,,,,0,,,82,41
11010,note_on,90,0,0,,,,,,,,0,,,82,0
11040,note_on,30,0,0,,,,,,,,0,,,82,57
11100,note_on,60,0,0,,,,,,,,0,,,82,0
11160,note_on,60,0,0,,,,,,,,0,,,73,48
11250,note_on,90,0,0,,,,,,,,0,,,73,0
11280,set_tempo,30,1,0,,,,,,388576,,,,,,
11280,note_on,0,0,0,,,,,,,,0,,,66,43
11370,note_on,90,0,0,,,,,,,,0,,,66,0
11400,note_on,30,0,0,,,,,,,,0,,,58,42
11490,note_on,90,0,0,,,,,,,,0,,,58,0
11520,set_tempo,30,1,0,,,,,,378453,,,,,,
11520,note_on,0,0,0,,,,,,,,0,,,59,55
11580,note_on,60,0,0,,,,,,,,0,,,59,0
11640,note_on,60,0,0,,,,,,,,0,,,66,49
11730,note_on,90,0,0,,,,,,,,0,,,66,0
11760,set_tempo,30,1,0,,,,,,427746,,,,,,
11760,note_on,0,0,0,,,,,,,,0,,,75,49
11850,note_on,90,0,0,,,,,,,,0,,,75,0
11880,note_on,30,0,0,,,,,,,,0,,,83,48
11970,note_on,90,0,0,,,,,,,,0,,,83,0
12000,set_tempo,30,1,0,,,,,,454511,,,,,,
12000,note_on,0,0,0,,,,,,,,0,,,87,61
12060,note_on,60,0,0,,,,,,,,0,,,87,0
12240,set_tempo,180,1,0,,,,,,562482,,,,,,
12240,note_on,0,0,0,,,,,,,,0,,,90,64
12300,note_on,60,0,0,,,,,,,,0,,,90,0
12480,set_tempo,180,1,0,,,,,,379363,,,,,,
12480,note_on,0,0,0,,,,,,,,0,,,63,57
12540,note_on,60,0,0,,,,,,,,0,,,63,0
12600,note_on,60,0,0,,,,,,,,0,,,71,50
12690,note_on,90,0,0,,,,,,,,0,,,71,0
12720,set_tempo,30,1,0,,,,,,368256,,,,,,
12720,note_on,0,0,0,,,,,,,,0,,,78,43
12810,note_on,90,0,0,,,,,,,,0,,,78,0
12840,note_on,30,0,0,,,,,,,,0,,,87,46
12930,note_on,90,0,0,,,,,,,,0,,,87,0
12960,note_on,30,0,0,,,,,,,,0,,,87,56
13050,note_on,90,0,0,,,,,,,,0,,,87,0
13080,note_on,30,0,0,,,,,,,,0,,,78,51
13170,note_on,90,0,0,,,,,,,,0,,,78,0
13200,set_tempo,30,1,0,,,,,,393056,,,,,,
13200,note_on,0,0,0,,,,,,,,0,,,71,45
13290,note_on,90,0,0,,,,,,,,0,,,71,0
13320,note_on,30,0,0,,,,,,,,0,,,63,42
13410,note_on,90,0,0,,,,,,,,0,,,63,0
13440,set_tempo,30,1,0,,,,,,378096,,,,,,
13440,note_on,0,0,0,,,,,,,,0,,,64,60
13500,note_on,60,0,0,,,,,,,,0,,,64,0
13560,note_on,60,0,0,,,,,,,,0,,,71,53
13650,note_on,90,0,0,,,,,,,,0,,,71,0
13680,set_tempo,30,1,0,,,,,,368256,,,,,,
13680,note_on,0,0,0,,,,,,,,0,,,80,54
13770,note_on,90,0,0,,,,,,,,0,,,80,0
13800,note_on,30,0,0,,,,,,,,0,,,88,51
13890,note_on,90,0,0,,,,,,,,0,,,88,0
13920,note_on,30,0,0,,,,,,,,0,,,88,59
14010,note_on,90,0,0,,,,,,,,0,,,88,0
14040,note_on,30,0,0,,,,,,,,0,,,80,55
14130,note_on,90,0,0,,,,,,,,0,,,80,0
14160,set_tempo,30,1,0,,,,,,393056,,,,,,
14160,note_on,0,0,0,,,,,,,,0,,,71,51
14250,note_on,90,0,0,,,,,,,,0,,,71,0
14280,note_on,30,0,0,,,,,,,,0,,,64,48
14370,note_on,90,0,0,,,,,,,,0,,,64,0
14400,set_tempo,30,1,0,,,,,,375587,,,,,,
14400,note_on,0,0,0,,,,,,,,0,,,66,64
14460,note_on,60,0,0,,,,,,,,0,,,66,0
14520,note_on,60,0,0,,,,,,,,0,,,75,57
14610,note_on,90,0,0,,,,,,,,0,,,75,0
14640,set_tempo,30,1,0,,,,,,367062,,,,,,
14640,note_on,0,0,0,,,,,,,,0,,,83,57
14730,note_on,90,0,0,,,,,,,,0,,,83,0
14760,note_on,30,0,0,,,,,,,,0,,,90,54
14850,note_on,90,0,0,,,,,,,,0,,,90,0
14880,note_on,30,0,0,,,,,,,,0,,,90,64
14970,note_on,90,0,0,,,,,,,,0,,,90,0
15000,note_on,30,0,0,,,,,,,,0,,,83,58
15090,note_on,90,0,0,,,,,,,,0,,,83,0
15120,set_tempo,30,1,0,,,,,,393056,,,,,,
15120,note_on,0,0,0,,,,,,,,0,,,75,54
15210,note_on,90,0,0,,,,,,,,0,,,75,0
15240,note_on,30,0,0,,,,,,,,0,,,66,51
15330,note_on,90,0,0,,,,,,,,0,,,66,0
15360,set_tempo,30,1,0,,,,,,373111,,,,,,
15360,note_on,0,0,0,,,,,,,,0,,,68,68
15420,note_on,60,0,0,,,,,,,,0,,,68,0
15480,note_on,60,0,0,,,,,,,,0,,,76,60
15570,note_on,90,0,0,,,,,,,,0,,,76,0
15600,set_tempo,30,1,0,,,,,,362341,,,,,,
15600,note_on,0,0,0,,,,,,,,0,,,83,61
15690,note_on,90,0,0,,,,,,,,0,,,83,0
15720,note_on,30,0,0,,,,,,,,0,,,92,58
15810,note_on,90,0,0,,,,,,,,0,,,92,0
15840,note_on,30,0,0,,,,,,,,0,,,92,68
15930,note_on,90,0,0,,,,,,,,0,,,92,0
15960,note_on,30,0,0,,,,,,,,0,,,83,63
16050,note_on,90,0,0,,,,,,,,0,,,83,0
16080,set_tempo,30,1,0,,,,,,393056,,,,,,
16080,note_on,0,0,0,,,,,,,,0,,,76,57
16170,note_on,90,0,0,,,,,,,,0,,,76,0
16200,note_on,30,0,0,,,,,,,,0,,,68,54
16290,note_on,90,0,0,,,,,,,,0,,,68,0
16320,set_tempo,30,1,0,,,,,,378096,,,,,,
16320,note_on,0,0,0,,,,,,,,0,,,69,73
16380,note_on,60,0,0,,,,,,,,0,,,69,0
16440,note_on,60,0,0,,,,,,,,0,,,76,64
16530,note_on,90,0,0,,,,,,,,0,,,76,0
16560,set_tempo,30,1,0,,,,,,363504,,,,,,
16560,note_on,0,0,0,,,,,,,,0,,,85,64
16650,note_on,90,0,0,,,,,,,,0,,,85,0
16680,note_on,30,0,0,,,,,,,,0,,,93,61
16770,note_on,90,0,0,,,,,,,,0,,,93,0
16800,note_on,30,0,0,,,,,,,,0,,,93,73
16890,note_on,90,0,0,,,,,,,,0,,,93,0
16920,note_on,30,0,0,,,,,,,,0,,,85,66
17010,note_on,90,0,0,,,,,,,,0,,,85,0
17040,set_tempo,30,1,0,,,,,,415628,,,,,,
17040,note_on,0,0,0,,,,,,,,0,,,76,62
17130,note_on,90,0,0,,,,,,,,0,,,76,0
17160,note_on,30,0,0,,,,,,,,0,,,69,55
17250,note_on,90,0,0,,,,,,,,0,,,69,0
17280,set_tempo,30,1,0,,,,,,375587,,,,,,
17280,note_on,0,0,0,,,,,,,,0,,,70,78
17340,note_on,60,0,0,,,,,,,,0,,,70,0
17400,note_on,60,0,0,,,,,,,,0,,,79,68
17490,note_on,90,0,0,,,,,,,,0,,,79,0
17520,set_tempo,30,1,0,,,,,,362341,,,,,,
17520,note_on,0,0,0,,,,,,,,0,,,88,68
17610,note_on,90,0,0,,,,,,,,0,,,88,0
17640,note_on,30,0,0,,,,,,,,0,,,97,64
17730,note_on,90,0,0,,,,,,,,0,,,97,0
17760,note_on,30,0,0,,,,,,,,0,,,97,74
17850,note_on,90,0,0,,,,,,,,0,,,97,0
17880,note_on,30,0,0,,,,,,,,0,,,88,68
17970,note_on,90,0,0,,,,,,,,0,,,88,0
18000,set_tempo,30,1,0,,,,,,393056,,,,,,
18000,note_on,0,0,0,,,,,,,,0,,,79,63
18090,note_on,90,0,0,,,,,,,,0,,,79,0
18120,note_on,30,0,0,,,,,,,,0,,,70,58
18210,note_on,90,0,0,,,,,,,,0,,,70,0
18240,set_tempo,30,1,0,,,,,,374345,,,,,,
18240,note_on,0,0,0,,,,,,,,0,,,73,78
18300,note_on,60,0,0,,,,,,,,0,,,73,0
18360,note_on,60,0,0,,,,,,,,0,,,82,68
18450,note_on,90,0,0,,,,,,,,0,,,82,0
18480,set_tempo,30,1,0,,,,,,363504,,,,,,
18480,note_on,0,0,0,,,,,,,,0,,,91,68
18570,note_on,90,0,0,,,,,,,,0,,,91,0
18600,note_on,30,0,0,,,,,,,,0,,,100,66
18690,note_on,90,0,0,,,,,,,,0,,,100,0
18720,note_on,30,0,0,,,,,,,,0,,,100,74
18810,note_on,90,0,0,,,,,,,,0,,,100,0
18840,note_on,30,0,0,,,,,,,,0,,,91,68
18930,note_on,90,0,0,,,,,,,,0,,,91,0
18960,set_tempo,30,1,0,,,,,,393056,,,,,,
18960,note_on,0,0,0,,,,,,,,0,,,82,65
19050,note_on,90,0,0,,,,,,,,0,,,82,0
19080,note_on,30,0,0,,,,,,,,0,,,73,62
19170,note_on,90,0,0,,,,,,,,0,,,73,0
19200,set_tempo,30,1,0,,,,,,375587,,,,,,
19200,note_on,0,0,0,,,,,,,,0,,,70,78
19260,note_on,60,0,0,,,,,,,,0,,,70,0
19320,note_on,60,0,0,,,,,,,,0,,,79,68
19410,note_on,90,0,0,,,,,,,,0,,,79,0
19440,set_tempo,30,1,0,,,,,,365854,,,,,,
19440,note_on,0,0,0,,,,,,,,0,,,88,65
19530,note_on,90,0,0,,,,,,,,0,,,88,0
19560,note_on,30,0,0,,,,,,,,0,,,97,68
19650,note_on,90,0,0,,,,,,,,0,,,97,0
19680,note_on,30,0,0,,,,,,,,0,,,97,72
19770,note_on,90,0,0,,,,,,,,0,,,97,0
19800,note_on,30,0,0,,,,,,,,0,,,88,65
19890,note_on,90,0,0,,,,,,,,0,,,88,0
19920,set_tempo,30,1,0,,,,,,393056,,,,,,
19920,note_on,0,0,0,,,,,,,,0,,,79,63
20010,note_on,90,0,0,,,,,,,,0,,,79,0
20040,note_on,30,0,0,,,,,,,,0,,,70,59
20130,note_on,90,0,0,,,,,,,,0,,,70,0
20160,set_tempo,30,1,0,,,,,,374345,,,,,,
20160,note_on,0,0,0,,,,,,,,0,,,67,71
20220,note_on,60,0,0,,,,,,,,0,,,67,0
20280,note_on,60,0,0,,,,,,,,0,,,76,62
20370,note_on,90,0,0,,,,,,,,0,,,76,0
20400,set_tempo,30,1,0,,,,,,368256,,,,,,
20400,note_on,0,0,0,,,,,,,,0,,,85,61
20490,note_on,90,0,0,,,,,,,,0,,,85,0
20520,note_on,30,0,0,,,,,,,,0,,,94,61
20610,note_on,90,0,0,,,,,,,,0,,,94,0
20640,note_on,30,0,0,,,,,,,,0,,,94,65
20730,note_on,90,0,0,,,,,,,,0,,,94,0
20760,note_on,30,0,0,,,,,,,,0,,,85,59
20850,note_on,90,0,0,,,,,,,,0,,,85,0
20880,set_tempo,30,1,0,,,,,,393056,,,,,,
20880,note_on,0,0,0,,,,,,,,0,,,76,48
20970,note_on,90,0,0,,,,,,,,0,,,76,0
21000,note_on,30,0,0,,,,,,,,0,,,67,42
21090,note_on,90,0,0,,,,,,,,0,,,67,0
21120,set_tempo,30,1,0,,,,,,375587,,,,,,
21120,note_on,0,0,0,,,,,,,,0,,,64,64
21180,note_on,60,0,0,,,,,,,,0,,,64,0
21240,note_on,60,0,0,,,,,,,,0,,,73,57
21330,note_on,90,0,0,,,,,,,,0,,,73,0
21360,set_tempo,30,1,0,,,,,,367062,,,,,,
21360,note_on,0,0,0,,,,,,,,0,,,82,57
21450,note_on,90,0,0,,,,,,,,0,,,82,0
21480,note_on,30,0,0,,,,,,,,0,,,91,56
21570,note_on,90,0,0,,,,,,,,0,,,91,0
21600,note_on,30,0,0,,,,,,,,0,,,91,61
21690,note_on,90,0,0,,,,,,,,0,,,91,0
21720,note_on,30,0,0,,,,,,,,0,,,82,54
21810,note_on,90,0,0,,,,,,,,0,,,82,0
21840,set_tempo,30,1,0,,,,,,393056,,,,,,
21840,note_on,0,0,0,,,,,,,,0,,,73,49
21930,note_on,90,0,0,,,,,,,,0,,,73,0
21960,note_on,30,0,0,,,,,,,,0,,,64,40
22050,note_on,90,0,0,,,,,,,,0,,,64,0
22080,set_tempo,30,1,0,,,,,,379363,,,,,,
22080,note_on,0,0,0,,,,,,,,0,,,61,59
22140,note_on,60,0,0,,,,,,,,0,,,61,0
22200,note_on,60,0,0,,,,,,,,0,,,70,53
22290,note_on,90,0,0,,,,,,,,0,,,70,0
22320,set_tempo,30,1,0,,,,,,368256,,,,,,
22320,note_on,0,0,0,,,,,,,,0,,,79,51
22410,note_on,90,0,0,,,,,,,,0,,,79,0
22440,note_on,30,0,0,,,,,,,,0,,,88,51
22530,note_on,90,0,0,,,,,,,,0,,,88,0
22560,note_on,30,0,0,,,,,,,,0,,,88,55
22650,note_on,90,0,0,,,,,,,,0,,,88,0
22680,note_on,30,0,0,,,,,,,,0,,,79,49
22770,note_on,90,0,0,,,,,,,,0,,,79,0
22800,set_tempo,30,1,0,,,,,,393056,,,,,,
22800,note_on,0,0,0,,,,,,,,0,,,70,45
22890,note_on,90,0,0,,,,,,,,0,,,70,0
22920,note_on,30,0,0,,,,,,,,0,,,61,42
23010,note_on,90,0,0,,,,,,,,0,,,61,0
23040,set_tempo,30,1,0,,,,,,378453,,,,,,
23040,note_on,0,0,0,,,,,,,,0,,,59,54
23100,note_on,60,0,0,,,,,,,,0,,,59,0
23160,note_on,60,0,0,,,,,,,,0,,,66,47
23250,note_on,90,0,0,,,,,,,,0,,,66,0
23280,set_tempo,30,1,0,,,,,,427746,,,,,,
23280,note_on,0,0,0,,,,,,,,0,,,75,42
23370,note_on,90,0,0,,,,,,,,0,,,75,0
23400,note_on,30,0,0,,,,,,,,0,,,83,46
23490,note_on,90,0,0,,,,,,,,0,,,83,0
23520,set_tempo,30,1,0,,,,,,454511,,,,,,
23520,note_on,0,0,0,,,,,,,,0,,,87,54
23580,note_on,60,0,0,,,,,,,,0,,,87,0
23760,set_tempo,180,1,0,,,,,,562482,,,,,,
23760,note_on,0,0,0,,,,,,,,0,,,90,60
23820,note_on,60,0,0,,,,,,,,0,,,90,0
24000,set_tempo,180,1,0,,,,,,383240,,,,,,
24000,note_on,0,0,0,,,,,,,,0,,,57,51
24060,note_on,60,0,0,,,,,,,,0,,,57,0
24120,note_on,60,0,0,,,,,,,,0,,,63,45
24210,note_on,90,0,0,,,,,,,,0,,,63,0
24240,set_tempo,30,1,0,,,,,,363504,,,,,,
24240,note_on,0,0,0,,,,,,,,0,,,71,42
24330,note_on,90,0,0,,,,,,,,0,,,71,0
24360,note_on,30,0,0,,,,,,,,0,,,78,40
24450,note_on,90,0,0,,,,,,,,0,,,78,0
24480,note_on,30,0,0,,,,,,,,0,,,78,57
24540,note_on,60,0,0,,,,,,,,0,,,78,0
24600,note_on,60,0,0,,,,,,,,0,,,71,45
24690,note_on,90,0,0,,,,,,,,0,,,71,0
24720,set_tempo,30,1,0,,,,,,393056,,,,,,
24720,note_on,0,0,0,,,,,,,,0,,,63,42
24810,note_on,90,0,0,,,,,,,,0,,,63,0
24840,note_on,30,0,0,,,,,,,,0,,,57,39
24930,note_on,90,0,0,,,,,,,,0,,,57,0
24960,set_tempo,30,1,0,,,,,,378453,,,,,,
24960,note_on,0,0,0,,,,,,,,0,,,56,51
25020,note_on,60,0,0,,,,,,,,0,,,56,0
25080,note_on,60,0,0,,,,,,,,0,,,64,45
25170,note_on,90,0,0,,,,,,,,0,,,64,0
25200,set_tempo,30,1,0,,,,,,427746,,,,,,
25200,note_on,0,0,0,,,,,,,,0,,,71,45
25290,note_on,90,0,0,,,,,,,,0,,,71,0
25320,note_on,30,0,0,,,,,,,,0,,,80,45
25410,note_on,90,0,0,,,,,,,,0,,,80,0
25440,set_tempo,30,1,0,,,,,,454511,,,,,,
25440,note_on,0,0,0,,,,,,,,0,,,83,54
25500,note_on,60,0,0,,,,,,,,0,,,83,0
25680,set_tempo,180,1,0,,,,,,562482,,,,,,
25680,note_on,0,0,0,,,,,,,,0,,,88,60
25740,note_on,60,0,0,,,,,,,,0,,,88,0
25920,set_tempo,180,1,0,,,,,,384541,,,,,,
25920,note_on,0,0,0,,,,,,,,0,,,57,51
25980,note_on,60,0,0,,,,,,,,0,,,57,0
26040,note_on,60,0,0,,,,,,,,0,,,63,45
26130,note_on,90,0,0,,,,,,,,0,,,63,0
26160,set_tempo,30,1,0,,,,,,363504,,,,,,
26160,note_on,0,0,0,,,,,,,,0,,,71,45
26250,note_on,90,0,0,,,,,,,,0,,,71,0
26280,note_on,30,0,0,,,,,,,,0,,,78,39
26370,note_on,90,0,0,,,,,,,,0,,,78,0
26400,set_tempo,30,1,0,,,,,,355030,,,,,,
26400,note_on,0,0,0,,,,,,,,0,,,78,57
26460,note_on,60,0,0,,,,,,,,0,,,78,0
26520,note_on,60,0,0,,,,,,,,0,,,71,45
26610,note_on,90,0,0,,,,,,,,0,,,71,0
26640,set_tempo,30,1,0,,,,,,398671,,,,,,
26640,note_on,0,0,0,,,,,,,,0,,,63,40
26730,note_on,90,0,0,,,,,,,,0,,,63,0
26760,note_on,30,0,0,,,,,,,,0,,,57,38
26850,note_on,90,0,0,,,,,,,,0,,,57,0
26880,set_tempo,30,1,0,,,,,,378453,,,,,,
26880,note_on,0,0,0,,,,,,,,0,,,56,51
26940,note_on,60,0,0,,,,,,,,0,,,56,0
27000,note_on,60,0,0,,,,,,,,0,,,64,45
27090,note_on,90,0,0,,,,,,,,0,,,64,0
27120,set_tempo,30,1,0,,,,,,427746,,,,,,
27120,note_on,0,0,0,,,,,,,,0,,,71,43
27210,note_on,90,0,0,,,,,,,,0,,,71,0
27240,note_on,30,0,0,,,,,,,,0,,,80,45
27330,note_on,90,0,0,,,,,,,,0,,,80,0
27360,set_tempo,30,1,0,,,,,,454511,,,,,,
27360,note_on,0,0,0,,,,,,,,0,,,83,54
27420,note_on,60,0,0,,,,,,,,0,,,83,0
27600,set_tempo,180,1,0,,,,,,562482,,,,,,
27600,note_on,0,0,0,,,,,,,,0,,,88,60
27660,note_on,60,0,0,,,,,,,,0,,,88,0
27840,set_tempo,180,1,0,,,,,,398063,,,,,,
27840,note_on,0,0,0,,,,,,,,0,,,57,75
27900,note_on,60,0,0,,,,,,,,0,,,57,0
28080,set_tempo,180,1,0,,,,,,421852,,,,,,
28080,note_on,0,0,0,,,,,,,,0,,,81,63
28080,note_on,0,0,0,,,,,,,,0,,,76,53
28080,note_on,0,0,0,,,,,,,,0,,,73,53
28080,note_on,0,0,0,,,,,,,,0,,,69,53
28080,note_on,0,0,0,,,,,,,,0,,,61,44
28080,note_on,0,0,0,,,,,,,,0,,,64,44
28140,note_on,60,0,0,,,,,,,,0,,,64,0
28140,note_on,0,0,0,,,,,,,,0,,,76,0
28140,note_on,0,0,0,,,,,,,,0,,,73,0
28140,note_on,0,0,0,,,,,,,,0,,,81,0
28140,note_on,0,0,0,,,,,,,,0,,,61,0
28140,note_on,0,0,0,,,,,,,,0,,,69,0
28320,set_tempo,180,1,0,,,,,,400909,,,,,,
28320,note_on,0,0,0,,,,,,,,0,,,59,82
28380,note_on,60,0,0,,,,,,,,0,,,59,0
28560,set_tempo,180,1,0,,,,,,421852,,,,,,
28560,note_on,0,0,0,,,,,,,,0,,,83,65
28560,note_on,0,0,0,,,,,,,,0,,,80,54
28560,note_on,0,0,0,,,,,,,,0,,,76,54
28560,note_on,0,0,0,,,,,,,,0,,,71,54
28560,note_on,0,0,0,,,,,,,,0,,,68,45
28560,note_on,0,0,0,,,,,,,,0,,,64,45
28620,note_on,60,0,0,,,,,,,,0,,,64,0
28620,note_on,0,0,0,,,,,,,,0,,,80,0
28620,note_on,0,0,0,,,,,,,,0,,,76,0
28620,note_on,0,0,0,,,,,,,,0,,,83,0
28620,note_on,0,0,0,,,,,,,,0,,,68,0
28620,note_on,0,0,0,,,,,,,,0,,,71,0
28800,set_tempo,180,1,0,,,,,,399467,,,,,,
28800,note_on,0,0,0,,,,,,,,0,,,61,81
28860,note_on,60,0,0,,,,,,,,0,,,61,0
29040,set_tempo,180,1,0,,,,,,420256,,,,,,
29040,note_on,0,0,0,,,,,,,,0,,,85,65
29040,note_on,0,0,0,,,,,,,,0,,,81,54
29040,note_on,0,0,0,,,,,,,,0,,,76,54
29040,note_on,0,0,0,,,,,,,,0,,,73,54
29040,note_on,0,0,0,,,,,,,,0,,,69,45
29040,note_on,0,0,0,,,,,,,,0,,,64,45
29100,note_on,60,0,0,,,,,,,,0,,,64,0
29100,note_on,0,0,0,,,,,,,,0,,,81,0
29100,note_on,0,0,0,,,,,,,,0,,,76,0
29100,note_on,0,0,0,,,,,,,,0,,,85,0
29100,note_on,0,0,0,,,,,,,,0,,,69,0
29100,note_on,0,0,0,,,,,,,,0,,,73,0
29280,set_tempo,180,1,0,,,,,,392157,,,,,,
29280,note_on,0,0,0,,,,,,,,0,,,60,81
29340,note_on,60,0,0,,,,,,,,0,,,60,0
29520,set_tempo,180,1,0,,,,,,430108,,,,,,
29520,note_on,0,0,0,,,,,,,,0,,,84,65
29520,note_on,0,0,0,,,,,,,,0,,,79,54
29520,note_on,0,0,0,,,,,,,,0,,,76,54
29520,note_on,0,0,0,,,,,,,,0,,,72,54
29520,note_on,0,0,0,,,,,,,,0,,,70,45
29520,note_on,0,0,0,,,,,,,,0,,,67,45
29520,note_on,0,0,0,,,,,,,,0,,,64,45
29580,note_on,60,0,0,,,,,,,,0,,,64,0
29580,note_on,0,0,0,,,,,,,,0,,,70,0
29580,note_on,0,0,0,,,,,,,,0,,,79,0
29580,note_on,0,0,0,,,,,,,,0,,,76,0
29580,note_on,0,0,0,,,,,,,,0,,,84,0
29580,note_on,0,0,0,,,,,,,,0,,,67,0
29580,note_on,0,0,0,,,,,,,,0,,,72,0
29760,set_tempo,180,1,0,,,,,,399467,,,,,,
29760,note_on,0,0,0,,,,,,,,0,,,59,80
29820,note_on,60,0,0,,,,,,,,0,,,59,0
30000,set_tempo,180,1,0,,,,,,420256,,,,,,
30000,note_on,0,0,0,,,,,,,,0,,,83,65
30000,note_on,0,0,0,,,,,,,,0,,,80,54
30000,note_on,0,0,0,,,,,,,,0,,,76,54
30000,note_on,0,0,0,,,,,,,,0,,,71,54
30000,note_on,0,0,0,,,,,,,,0,,,68,45
30000,note_on,0,0,0,,,,,,,,0,,,64,45
30060,note_on,60,0,0,,,,,,,,0,,,64,0
30060,note_on,0,0,0,,,,,,,,0,,,80,0
30060,note_on,0,0,0,,,,,,,,0,,,76,0
30060,note_on,0,0,0,,,,,,,,0,,,83,0
30060,note_on,0,0,0,,,,,,,,0,,,68,0
30060,note_on,0,0,0,,,,,,,,0,,,71,0
30240,set_tempo,180,1,0,,,,,,400909,,,,,,
30240,note_on,0,0,0,,,,,,,,0,,,59,81
30300,note_on,60,0,0,,,,,,,,0,,,59,0
30480,set_tempo,180,1,0,,,,,,415628,,,,,,
30480,note_on,0,0,0,,,,,,,,0,,,83,65
30480,note_on,0,0,0,,,,,,,,0,,,78,54
30480,note_on,0,0,0,,,,,,,,0,,,75,54
30480,note_on,0,0,0,,,,,,,,0,,,71,54
30480,note_on,0,0,0,,,,,,,,0,,,69,45
30480,note_on,0,0,0,,,,,,,,0,,,66,45
30540,note_on,60,0,0,,,,,,,,0,,,66,0
30540,note_on,0,0,0,,,,,,,,0,,,78,0
30540,note_on,0,0,0,,,,,,,,0,,,75,0
30540,note_on,0,0,0,,,,,,,,0,,,83,0
30540,note_on,0,0,0,,,,,,,,0,,,69,0
30540,note_on,0,0,0,,,,,,,,0,,,71,0
30720,key_signature,180,1,0,,,,,G,,,,,,,
30720,set_tempo,0,1,0,,,,,,406669,,,,,,
30720,note_on,0,0,0,,,,,,,,0,,,64,81
30746,control_change,26,0,0,,,,,,,,0,64,127,,
31200,note_on,454,0,0,,,,,,,,0,,,64,0
31200,note_on,0,0,0,,,,,,,,0,,,88,79
31200,note_on,0,0,0,,,,,,,,0,,,83,66
31200,note_on,0,0,0,,,,,,,,0,,,80,66
31200,note_on,0,0,0,,,,,,,,0,,,76,66
31200,note_on,0,0,0,,,,,,,,0,,,71,55
31200,note_on,0,0,0,,,,,,,,0,,,68,55
31260,note_on,60,0,0,,,,,,,,0,,,68,0
31260,note_on,0,0,0,,,,,,,,0,,,83,0
31260,note_on,0,0,0,,,,,,,,0,,,80,0
31260,note_on,0,0,0,,,,,,,,0,,,88,0
31260,note_on,0,0,0,,,,,,,,0,,,71,0
31260,note_on,0,0,0,,,,,,,,0,,,76,0
31261,set_tempo,1,1,0,,,,,,434814,,,,,,
31277,control_change,16,0,0,,,,,,,,0,64,0,,
31680,set_tempo,403,1,0,,,,,,379363,,,,,,
31680,note_on,0,0,0,,,,,,,,0,,,64,58
31740,note_on,60,0,0,,,,,,,,0,,,64,0
31800,note_on,60,0,0,,,,,,,,0,,,67,51
31890,note_on,90,0,0,,,,,,,,0,,,67,0
31920,set_tempo,30,1,0,,,,,,363504,,,,,,
31920,note_on,0,0,0,,,,,,,,0,,,71,51
32010,note_on,90,0,0,,,,,,,,0,,,71,0
32040,note_on,30,0,0,,,,,,,,0,,,76,43
32130,note_on,90,0,0,,,,,,,,0,,,76,0
32160,note_on,30,0,0,,,,,,,,0,,,76,59
32220,note_on,60,0,0,,,,,,,,0,,,76,0
32280,note_on,60,0,0,,,,,,,,0,,,71,51
32370,note_on,90,0,0,,,,,,,,0,,,71,0
32400,set_tempo,30,1,0,,,,,,393056,,,,,,
32400,note_on,0,0,0,,,,,,,,0,,,67,48
32490,note_on,90,0,0,,,,,,,,0,,,67,0
32520,note_on,30,0,0,,,,,,,,0,,,64,42
32610,note_on,90,0,0,,,,,,,,0,,,64,0
32640,set_tempo,30,1,0,,,,,,373111,,,,,,
32640,note_on,0,0,0,,,,,,,,0,,,63,58
32700,note_on,60,0,0,,,,,,,,0,,,63,0
32760,note_on,60,0,0,,,,,,,,0,,,66,51
32850,note_on,90,0,0,,,,,,,,0,,,66,0
32880,set_tempo,30,1,0,,,,,,362341,,,,,,
32880,note_on,0,0,0,,,,,,,,0,,,71,51
32970,note_on,90,0,0,,,,,,,,0,,,71,0
33000,note_on,30,0,0,,,,,,,,0,,,78,45
33090,note_on,90,0,0,,,,,,,,0,,,78,0
33120,note_on,30,0,0,,,,,,,,0,,,78,62
33180,note_on,60,0,0,,,,,,,,0,,,78,0
33240,note_on,60,0,0,,,,,,,,0,,,71,51
33330,note_on,90,0,0,,,,,,,,0,,,71,0
33360,set_tempo,30,1,0,,,,,,379891,,,,,,
33360,note_on,0,0,0,,,,,,,,0,,,66,48
33450,note_on,90,0,0,,,,,,,,0,,,66,0
33480,note_on,30,0,0,,,,,,,,0,,,63,42
33570,note_on,90,0,0,,,,,,,,0,,,63,0
33600,set_tempo,30,1,0,,,,,,369458,,,,,,
33600,note_on,0,0,0,,,,,,,,0,,,64,58
33660,note_on,60,0,0,,,,,,,,0,,,64,0
33720,note_on,60,0,0,,,,,,,,0,,,67,51
33810,note_on,90,0,0,,,,,,,,0,,,67,0
33840,set_tempo,30,1,0,,,,,,362341,,,,,,
33840,note_on,0,0,0,,,,,,,,0,,,71,51
33930,note_on,90,0,0,,,,,,,,0,,,71,0
33960,note_on,30,0,0,,,,,,,,0,,,76,46
34050,note_on,90,0,0,,,,,,,,0,,,76,0
34080,note_on,30,0,0,,,,,,,,0,,,76,58
34140,note_on,60,0,0,,,,,,,,0,,,76,0
34200,note_on,60,0,0,,,,,,,,0,,,71,51
34290,note_on,90,0,0,,,,,,,,0,,,71,0
34320,set_tempo,30,1,0,,,,,,393056,,,,,,
34320,note_on,0,0,0,,,,,,,,0,,,67,47
34410,note_on,90,0,0,,,,,,,,0,,,67,0
34440,note_on,30,0,0,,,,,,,,0,,,64,42
34530,note_on,90,0,0,,,,,,,,0,,,64,0
34560,set_tempo,30,1,0,,,,,,369458,,,,,,
34560,note_on,0,0,0,,,,,,,,0,,,59,58
34620,note_on,60,0,0,,,,,,,,0,,,59,0
34680,note_on,60,0,0,,,,,,,,0,,,66,51
34770,note_on,90,0,0,,,,,,,,0,,,66,0
34800,note_on,30,0,0,,,,,,,,0,,,75,48
34890,note_on,90,0,0,,,,,,,,0,,,75,0
34920,note_on,30,0,0,,,,,,,,0,,,83,51
35010,note_on,90,0,0,,,,,,,,0,,,83,0
35040,note_on,30,0,0,,,,,,,,0,,,83,61
35100,note_on,60,0,0,,,,,,,,0,,,83,0
35160,note_on,60,0,0,,,,,,,,0,,,75,51
35250,note_on,90,0,0,,,,,,,,0,,,75,0
35280,set_tempo,30,1,0,,,,,,415628,,,,,,
35280,note_on,0,0,0,,,,,,,,0,,,66,46
35370,note_on,90,0,0,,,,,,,,0,,,66,0
35400,note_on,30,0,0,,,,,,,,0,,,59,41
35490,note_on,90,0,0,,,,,,,,0,,,59,0
35520,set_tempo,30,1,0,,,,,,373111,,,,,,
35520,note_on,0,0,0,,,,,,,,0,,,64,51
35580,note_on,60,0,0,,,,,,,,0,,,64,0
35640,note_on,60,0,0,,,,,,,,0,,,67,45
35730,note_on,90,0,0,,,,,,,,0,,,67,0
35760,set_tempo,30,1,0,,,,,,365854,,,,,,
35760,note_on,0,0,0,,,,,,,,0,,,71,45
35850,note_on,90,0,0,,,,,,,,0,,,71,0
35880,note_on,30,0,0,,,,,,,,0,,,76,40
35970,note_on,90,0,0,,,,,,,,0,,,76,0
36000,note_on,30,0,0,,,,,,,,0,,,76,53
36060,note_on,60,0,0,,,,,,,,0,,,76,0
36120,note_on,60,0,0,,,,,,,,0,,,71,45
36210,note_on,90,0,0,,,,,,,,0,,,71,0
36240,set_tempo,30,1,0,,,,,,377050,,,,,,
36240,note_on,0,0,0,,,,,,,,0,,,67,43
36330,note_on,90,0,0,,,,,,,,0,,,67,0
36360,note_on,30,0,0,,,,,,,,0,,,64,39
36450,note_on,90,0,0,,,,,,,,0,,,64,0
36480,set_tempo,30,1,0,,,,,,370668,,,,,,
36480,note_on,0,0,0,,,,,,,,0,,,63,51
36540,note_on,60,0,0,,,,,,,,0,,,63,0
36600,note_on,60,0,0,,,,,,,,0,,,66,45
36690,note_on,90,0,0,,,,,,,,0,,,66,0
36720,set_tempo,30,1,0,,,,,,367062,,,,,,
36720,note_on,0,0,0,,,,,,,,0,,,71,45
36810,note_on,90,0,0,,,,,,,,0,,,71,0
36840,note_on,30,0,0,,,,,,,,0,,,78,41
36930,note_on,90,0,0,,,,,,,,0,,,78,0
36960,note_on,30,0,0,,,,,,,,0,,,78,57
37020,note_on,60,0,0,,,,,,,,0,,,78,0
37080,note_on,60,0,0,,,,,,,,0,,,71,45
37170,note_on,90,0,0,,,,,,,,0,,,71,0
37200,set_tempo,30,1,0,,,,,,381291,,,,,,
37200,note_on,0,0,0,,,,,,,,0,,,66,42
37290,note_on,90,0,0,,,,,,,,0,,,66,0
37320,note_on,30,0,0,,,,,,,,0,,,63,38
37410,note_on,90,0,0,,,,,,,,0,,,63,0
37440,set_tempo,30,1,0,,,,,,369458,,,,,,
37440,note_on,0,0,0,,,,,,,,0,,,64,51
37500,note_on,60,0,0,,,,,,,,0,,,64,0
37560,note_on,60,0,0,,,,,,,,0,,,67,45
37650,note_on,90,0,0,,,,,,,,0,,,67,0
37680,set_tempo,30,1,0,,,,,,362341,,,,,,
37680,note_on,0,0,0,,,,,,,,0,,,71,45
37770,note_on,90,0,0,,,,,,,,0,,,71,0
37800,note_on,30,0,0,,,,,,,,0,,,76,41
37890,note_on,90,0,0,,,,,,,,0,,,76,0
37920,note_on,30,0,0,,,,,,,,0,,,76,51
37980,note_on,60,0,0,,,,,,,,0,,,76,0
38040,note_on,60,0,0,,,,,,,,0,,,71,45
38130,note_on,90,0,0,,,,,,,,0,,,71,0
38160,set_tempo,30,1,0,,,,,,379891,,,,,,
38160,note_on,0,0,0,,,,,,,,0,,,67,41
38250,note_on,90,0,0,,,,,,,,0,,,67,0
38280,note_on,30,0,0,,,,,,,,0,,,64,39
38370,note_on,90,0,0,,,,,,,,0,,,64,0
38400,set_tempo,30,1,0,,,,,,368256,,,,,,
38400,note_on,0,0,0,,,,,,,,0,,,59,51
38460,note_on,60,0,0,,,,,,,,0,,,59,0
38520,note_on,60,0,0,,,,,,,,0,,,66,45
38610,note_on,90,0,0,,,,,,,,0,,,66,0
38640,set_tempo,30,1,0,,,,,,362341,,,,,,
38640,note_on,0,0,0,,,,,,,,0,,,75,40
38730,note_on,90,0,0,,,,,,,,0,,,75,0
38760,note_on,30,0,0,,,,,,,,0,,,83,45
38850,note_on,90,0,0,,,,,,,,0,,,83,0
38880,note_on,30,0,0,,,,,,,,0,,,83,51
38940,note_on,60,0,0,,,,,,,,0,,,83,0
39000,note_on,60,0,0,,,,,,,,0,,,75,45
39090,note_on,90,0,0,,,,,,,,0,,,75,0
39120,set_tempo,30,1,0,,,,,,393056,,,,,,
39120,note_on,0,0,0,,,,,,,,0,,,66,40
39210,note_on,90,0,0,,,,,,,,0,,,66,0
39240,note_on,30,0,0,,,,,,,,0,,,59,37
39330,note_on,90,0,0,,,,,,,,0,,,59,0
39360,set_tempo,30,1,0,,,,,,370668,,,,,,
39360,note_on,0,0,0,,,,,,,,0,,,59,53
39420,note_on,60,0,0,,,,,,,,0,,,59,0
39480,note_on,60,0,0,,,,,,,,0,,,66,46
39570,note_on,90,0,0,,,,,,,,0,,,66,0
39600,set_tempo,30,1,0,,,,,,363504,,,,,,
39600,note_on,0,0,0,,,,,,,,0,,,74,47
39690,note_on,90,0,0,,,,,,,,0,,,74,0
39720,note_on,30,0,0,,,,,,,,0,,,83,47
39810,note_on,90,0,0,,,,,,,,0,,,83,0
39840,note_on,30,0,0,,,,,,,,0,,,83,54
39900,note_on,60,0,0,,,,,,,,0,,,83,0
39960,note_on,60,0,0,,,,,,,,0,,,74,48
40050,note_on,90,0,0,,,,,,,,0,,,74,0
40080,set_tempo,30,1,0,,,,,,388576,,,,,,
40080,note_on,0,0,0,,,,,,,,0,,,66,43
40170,note_on,90,0,0,,,,,,,,0,,,66,0
40200,note_on,30,0,0,,,,,,,,0,,,59,41
40290,note_on,90,0,0,,,,,,,,0,,,59,0
40320,set_tempo,30,1,0,,,,,,368256,,,,,,
40320,note_on,0,0,0,,,,,,,,0,,,57,51
40380,note_on,60,0,0,,,,,,,,0,,,57,0
40440,note_on,60,0,0,,,,,,,,0,,,66,45
40530,note_on,90,0,0,,,,,,,,0,,,66,0
40560,set_tempo,30,1,0,,,,,,362341,,,,,,
40560,note_on,0,0,0,,,,,,,,0,,,74,45
40650,note_on,90,0,0,,,,,,,,0,,,74,0
40680,note_on,30,0,0,,,,,,,,0,,,84,45
40770,note_on,90,0,0,,,,,,,,0,,,84,0
40800,note_on,30,0,0,,,,,,,,0,,,84,51
40860,note_on,60,0,0,,,,,,,,0,,,84,0
40920,note_on,60,0,0,,,,,,,,0,,,74,45
41010,note_on,90,0,0,,,,,,,,0,,,74,0
41040,set_tempo,30,1,0,,,,,,393056,,,,,,
41040,note_on,0,0,0,,,,,,,,0,,,66,40
41130,note_on,90,0,0,,,,,,,,0,,,66,0
41160,note_on,30,0,0,,,,,,,,0,,,57,34
41250,note_on,90,0,0,,,,,,,,0,,,57,0
41280,set_tempo,30,1,0,,,,,,370668,,,,,,
41280,note_on,0,0,0,,,,,,,,0,,,57,53
41340,note_on,60,0,0,,,,,,,,0,,,57,0
41400,note_on,60,0,0,,,,,,,,0,,,66,46
41490,note_on,90,0,0,,,,,,,,0,,,66,0
41520,set_tempo,30,1,0,,,,,,363504,,,,,,
41520,note_on,0,0,0,,,,,,,,0,,,74,45
41610,note_on,90,0,0,,,,,,,,0,,,74,0
41640,note_on,30,0,0,,,,,,,,0,,,81,42
41730,note_on,90,0,0,,,,,,,,0,,,81,0
41760,note_on,30,0,0,,,,,,,,0,,,81,54
41820,note_on,60,0,0,,,,,,,,0,,,81,0
41880,note_on,60,0,0,,,,,,,,0,,,74,48
41970,note_on,90,0,0,,,,,,,,0,,,74,0
42000,set_tempo,30,1,0,,,,,,388576,,,,,,
42000,note_on,0,0,0,,,,,,,,0,,,66,42
42090,note_on,90,0,0,,,,,,,,0,,,66,0
42120,note_on,30,0,0,,,,,,,,0,,,57,38
42210,note_on,90,0,0,,,,,,,,0,,,57,0
42240,set_tempo,30,1,0,,,,,,368256,,,,,,
42240,note_on,0,0,0,,,,,,,,0,,,55,51
42300,note_on,60,0,0,,,,,,,,0,,,55,0
42360,note_on,60,0,0,,,,,,,,0,,,62,45
42450,note_on,90,0,0,,,,,,,,0,,,62,0
42480,set_tempo,30,1,0,,,,,,362341,,,,,,
42480,note_on,0,0,0,,,,,,,,0,,,71,45
42570,note_on,90,0,0,,,,,,,,0,,,71,0
42600,note_on,30,0,0,,,,,,,,0,,,86,51
42690,note_on,90,0,0,,,,,,,,0,,,86,0
42720,note_on,30,0,0,,,,,,,,0,,,86,62
42780,note_on,60,0,0,,,,,,,,0,,,86,0
42840,note_on,60,0,0,,,,,,,,0,,,71,46
42930,note_on,90,0,0,,,,,,,,0,,,71,0
42960,set_tempo,30,1,0,,,,,,393056,,,,,,
42960,note_on,0,0,0,,,,,,,,0,,,62,41
43050,note_on,90,0,0,,,,,,,,0,,,62,0
43080,note_on,30,0,0,,,,,,,,0,,,55,34
43170,note_on,90,0,0,,,,,,,,0,,,55,0
43200,set_tempo,30,1,0,,,,,,370668,,,,,,
43200,note_on,0,0,0,,,,,,,,0,,,55,57
43260,note_on,60,0,0,,,,,,,,0,,,55,0
43320,note_on,60,0,0,,,,,,,,0,,,62,42
43320,note_on,0,0,0,,,,,,,,0,,,71,50
43410,note_on,90,0,0,,,,,,,,0,,,71,0
43410,note_on,0,0,0,,,,,,,,0,,,62,0
43440,set_tempo,30,1,0,,,,,,363504,,,,,,
43440,note_on,0,0,0,,,,,,,,0,,,74,48
43530,note_on,90,0,0,,,,,,,,0,,,74,0
43560,note_on,30,0,0,,,,,,,,0,,,91,60
43650,note_on,90,0,0,,,,,,,,0,,,91,0
43680,note_on,30,0,0,,,,,,,,0,,,91,65
43740,note_on,60,0,0,,,,,,,,0,,,91,0
43800,note_on,60,0,0,,,,,,,,0,,,74,55
43890,note_on,90,0,0,,,,,,,,0,,,74,0
43920,set_tempo,30,1,0,,,,,,388576,,,,,,
43920,note_on,0,0,0,,,,,,,,0,,,62,46
43920,note_on,0,0,0,,,,,,,,0,,,71,46
44010,note_on,90,0,0,,,,,,,,0,,,71,0
44010,note_on,0,0,0,,,,,,,,0,,,62,0
44040,note_on,30,0,0,,,,,,,,0,,,55,45
44130,note_on,90,0,0,,,,,,,,0,,,55,0
44160,set_tempo,30,1,0,,,,,,370668,,,,,,
44160,note_on,0,0,0,,,,,,,,0,,,55,62
44220,note_on,60,0,0,,,,,,,,0,,,55,0
44280,note_on,60,0,0,,,,,,,,0,,,62,46
44280,note_on,0,0,0,,,,,,,,0,,,71,55
44370,note_on,90,0,0,,,,,,,,0,,,71,0
44370,note_on,0,0,0,,,,,,,,0,,,62,0
44400,set_tempo,30,1,0,,,,,,363504,,,,,,
44400,note_on,0,0,0,,,,,,,,0,,,79,57
44490,note_on,90,0,0,,,,,,,,0,,,79,0
44520,note_on,30,0,0,,,,,,,,0,,,95,63
44610,note_on,90,0,0,,,,,,,,0,,,95,0
44640,note_on,30,0,0,,,,,,,,0,,,95,70
44700,note_on,60,0,0,,,,,,,,0,,,95,0
44760,note_on,60,0,0,,,,,,,,0,,,79,59
44850,note_on,90,0,0,,,,,,,,0,,,79,0
44880,set_tempo,30,1,0,,,,,,388576,,,,,,
44880,note_on,0,0,0,,,,,,,,0,,,62,50
44880,note_on,0,0,0,,,,,,,,0,,,71,60
44970,note_on,90,0,0,,,,,,,,0,,,71,0
44970,note_on,0,0,0,,,,,,,,0,,,62,0
45000,note_on,30,0,0,,,,,,,,0,,,55,51
45090,note_on,90,0,0,,,,,,,,0,,,55,0
45120,set_tempo,30,1,0,,,,,,370668,,,,,,
45120,note_on,0,0,0,,,,,,,,0,,,55,66
45180,note_on,60,0,0,,,,,,,,0,,,55,0
45240,note_on,60,0,0,,,,,,,,0,,,62,49
45240,note_on,0,0,0,,,,,,,,0,,,71,59
45330,note_on,90,0,0,,,,,,,,0,,,71,0
45330,note_on,0,0,0,,,,,,,,0,,,62,0
45360,set_tempo,30,1,0,,,,,,363504,,,,,,
45360,note_on,0,0,0,,,,,,,,0,,,83,61
45450,note_on,90,0,0,,,,,,,,0,,,83,0
45480,note_on,30,0,0,,,,,,,,0,,,98,68
45570,note_on,90,0,0,,,,,,,,0,,,98,0
45600,note_on,30,0,0,,,,,,,,0,,,98,78
45660,note_on,60,0,0,,,,,,,,0,,,98,0
45720,note_on,60,0,0,,,,,,,,0,,,83,64
45810,note_on,90,0,0,,,,,,,,0,,,83,0
45840,set_tempo,30,1,0,,,,,,388576,,,,,,
45840,note_on,0,0,0,,,,,,,,0,,,62,55
45840,note_on,0,0,0,,,,,,,,0,,,71,65
45930,note_on,90,0,0,,,,,,,,0,,,71,0
45930,note_on,0,0,0,,,,,,,,0,,,62,0
45960,note_on,30,0,0,,,,,,,,0,,,55,51
46050,note_on,90,0,0,,,,,,,,0,,,55,0
46080,set_tempo,30,1,0,,,,,,373111,,,,,,
46080,note_on,0,0,0,,,,,,,,0,,,60,75
46140,note_on,60,0,0,,,,,,,,0,,,60,0
46200,note_on,60,0,0,,,,,,,,0,,,67,66
46290,note_on,90,0,0,,,,,,,,0,,,67,0
46320,set_tempo,30,1,0,,,,,,362341,,,,,,
46320,note_on,0,0,0,,,,,,,,0,,,76,66
46320,note_on,0,0,0,,,,,,,,0,,,72,56
46410,note_on,90,0,0,,,,,,,,0,,,72,0
46410,note_on,0,0,0,,,,,,,,0,,,76,0
46440,note_on,30,0,0,,,,,,,,0,,,84,59
46530,note_on,90,0,0,,,,,,,,0,,,84,0
46560,set_tempo,30,1,0,,,,,,384541,,,,,,
46560,note_on,0,0,0,,,,,,,,0,,,61,71
46620,note_on,60,0,0,,,,,,,,0,,,61,0
46800,set_tempo,180,1,0,,,,,,429861,,,,,,
46800,note_on,0,0,0,,,,,,,,0,,,88,71
46800,note_on,0,0,0,,,,,,,,0,,,79,60
46800,note_on,0,0,0,,,,,,,,0,,,76,60
46800,note_on,0,0,0,,,,,,,,0,,,69,51
46800,note_on,0,0,0,,,,,,,,0,,,61,51
46860,note_on,60,0,0,,,,,,,,0,,,61,0
46860,note_on,0,0,0,,,,,,,,0,,,76,0
46860,note_on,0,0,0,,,,,,,,0,,,88,0
46860,note_on,0,0,0,,,,,,,,0,,,79,0
46860,note_on,0,0,0,,,,,,,,0,,,69,0
47040,set_tempo,180,1,0,,,,,,371885,,,,,,
47040,note_on,0,0,0,,,,,,,,0,,,62,77
47100,note_on,60,0,0,,,,,,,,0,,,62,0
47160,note_on,60,0,0,,,,,,,,0,,,69,68
47250,note_on,90,0,0,,,,,,,,0,,,69,0
47280,set_tempo,30,1,0,,,,,,361185,,,,,,
47280,note_on,0,0,0,,,,,,,,0,,,74,63
47280,note_on,0,0,0,,,,,,,,0,,,78,63
47370,note_on,90,0,0,,,,,,,,0,,,78,0
47370,note_on,0,0,0,,,,,,,,0,,,74,0
47400,note_on,30,0,0,,,,,,,,0,,,86,68
47490,note_on,90,0,0,,,,,,,,0,,,86,0
47520,set_tempo,30,1,0,,,,,,385852,,,,,,
47520,note_on,0,0,0,,,,,,,,0,,,63,74
47580,note_on,60,0,0,,,,,,,,0,,,63,0
47760,set_tempo,180,1,0,,,,,,420256,,,,,,
47760,note_on,0,0,0,,,,,,,,0,,,90,73
47760,note_on,0,0,0,,,,,,,,0,,,81,62
47760,note_on,0,0,0,,,,,,,,0,,,78,62
47760,note_on,0,0,0,,,,,,,,0,,,71,53
47760,note_on,0,0,0,,,,,,,,0,,,63,53
47820,note_on,60,0,0,,,,,,,,0,,,63,0
47820,note_on,0,0,0,,,,,,,,0,,,78,0
47820,note_on,0,0,0,,,,,,,,0,,,90,0
47820,note_on,0,0,0,,,,,,,,0,,,81,0
47820,note_on,0,0,0,,,,,,,,0,,,71,0
48000,set_tempo,180,1,0,,,,,,371885,,,,,,
48000,note_on,0,0,0,,,,,,,,0,,,64,80
48060,note_on,60,0,0,,,,,,,,0,,,64,0
48120,note_on,60,0,0,,,,,,,,0,,,71,71
48210,note_on,90,0,0,,,,,,,,0,,,71,0
48240,set_tempo,30,1,0,,,,,,361185,,,,,,
48240,note_on,0,0,0,,,,,,,,0,,,76,65
48330,note_on,90,0,0,,,,,,,,0,,,76,0
48360,note_on,30,0,0,,,,,,,,0,,,79,59
48360,note_on,0,0,0,,,,,,,,0,,,88,70
48450,note_on,90,0,0,,,,,,,,0,,,88,0
48450,note_on,0,0,0,,,,,,,,0,,,79,0
48480,set_tempo,30,1,0,,,,,,385852,,,,,,
48480,note_on,0,0,0,,,,,,,,0,,,66,77
48540,note_on,60,0,0,,,,,,,,0,,,66,0
48720,set_tempo,180,1,0,,,,,,420256,,,,,,
48720,note_on,0,0,0,,,,,,,,0,,,90,76
48720,note_on,0,0,0,,,,,,,,0,,,81,64
48720,note_on,0,0,0,,,,,,,,0,,,78,64
48720,note_on,0,0,0,,,,,,,,0,,,74,54
48720,note_on,0,0,0,,,,,,,,0,,,69,54
48780,note_on,60,0,0,,,,,,,,0,,,69,0
48780,note_on,0,0,0,,,,,,,,0,,,78,0
48780,note_on,0,0,0,,,,,,,,0,,,90,0
48780,note_on,0,0,0,,,,,,,,0,,,81,0
48780,note_on,0,0,0,,,,,,,,0,,,74,0
48960,set_tempo,180,1,0,,,,,,385852,,,,,,
48960,note_on,0,0,0,,,,,,,,0,,,67,78
49020,note_on,60,0,0,,,,,,,,0,,,67,0
49200,set_tempo,180,1,0,,,,,,420256,,,,,,
49200,note_on,0,0,0,,,,,,,,0,,,91,78
49200,note_on,0,0,0,,,,,,,,0,,,83,65
49200,note_on,0,0,0,,,,,,,,0,,,79,65
49200,note_on,0,0,0,,,,,,,,0,,,74,55
49200,note_on,0,0,0,,,,,,,,0,,,71,55
49260,note_on,60,0,0,,,,,,,,0,,,71,0
49260,note_on,0,0,0,,,,,,,,0,,,79,0
49260,note_on,0,0,0,,,,,,,,0,,,91,0
49260,note_on,0,0,0,,,,,,,,0,,,83,0
49260,note_on,0,0,0,,,,,,,,0,,,74,0
49440,set_tempo,180,1,0,,,,,,377358,,,,,,
49440,note_on,0,0,0,,,,,,,,0,,,69,80
49500,note_on,60,0,0,,,,,,,,0,,,69,0
49680,set_tempo,180,1,0,,,,,,433213,,,,,,
49680,note_on,0,0,0,,,,,,,,0,,,93,79
49680,note_on,0,0,0,,,,,,,,0,,,86,67
49680,note_on,0,0,0,,,,,,,,0,,,81,67
49680,note_on,0,0,0,,,,,,,,0,,,78,56
49680,note_on,0,0,0,,,,,,,,0,,,74,56
49740,note_on,60,0,0,,,,,,,,0,,,74,0
49740,note_on,0,0,0,,,,,,,,0,,,81,0
49740,note_on,0,0,0,,,,,,,,0,,,93,0
49740,note_on,0,0,0,,,,,,,,0,,,86,0
49740,note_on,0,0,0,,,,,,,,0,,,78,0
49920,set_tempo,180,1,0,,,,,,385852,,,,,,
49920,note_on,0,0,0,,,,,,,,0,,,71,81
49980,note_on,60,0,0,,,,,,,,0,,,71,0
50160,set_tempo,180,1,0,,,,,,420256,,,,,,
50160,note_on,0,0,0,,,,,,,,0,,,95,81
50160,note_on,0,0,0,,,,,,,,0,,,86,68
50160,note_on,0,0,0,,,,,,,,0,,,83,68
50160,note_on,0,0,0,,,,,,,,0,,,79,57
50160,note_on,0,0,0,,,,,,,,0,,,74,57
50220,note_on,60,0,0,,,,,,,,0,,,74,0
50220,note_on,0,0,0,,,,,,,,0,,,83,0
50220,note_on,0,0,0,,,,,,,,0,,,95,0
50220,note_on,0,0,0,,,,,,,,0,,,86,0
50220,note_on,0,0,0,,,,,,,,0,,,79,0
50400,set_tempo,180,1,0,,,,,,385852,,,,,,
50400,note_on,0,0,0,,,,,,,,0,,,72,83
50460,note_on,60,0,0,,,,,,,,0,,,72,0
50640,set_tempo,180,1,0,,,,,,420256,,,,,,
50640,note_on,0,0,0,,,,,,,,0,,,96,82
50640,note_on,0,0,0,,,,,,,,0,,,88,69
50640,note_on,0,0,0,,,,,,,,0,,,84,69
50640,note_on,0,0,0,,,,,,,,0,,,79,59
50640,note_on,0,0,0,,,,,,,,0,,,76,59
50700,note_on,60,0,0,,,,,,,,0,,,76,0
50700,note_on,0,0,0,,,,,,,,0,,,84,0
50700,note_on,0,0,0,,,,,,,,0,,,96,0
50700,note_on,0,0,0,,,,,,,,0,,,88,0
50700,note_on,0,0,0,,,,,,,,0,,,79,0
50880,note_on,180,0,0,,,,,,,,0,,,73,77
50911,control_change,31,0,0,,,,,,,,0,64,127,,
50960,note_on,49,0,0,,,,,,,,0,,,73,0
50960,note_on,0,0,0,,,,,,,,0,,,79,79
51040,note_on,80,0,0,,,,,,,,0,,,79,0
51040,note_on,0,0,0,,,,,,,,0,,,82,81
51120,note_on,80,0,0,,,,,,,,0,,,82,0
51120,note_on,0,0,0,,,,,,,,0,,,88,82
51200,note_on,80,0,0,,,,,,,,0,,,88,0
51200,note_on,0,0,0,,,,,,,,0,,,94,84
51280,note_on,80,0,0,,,,,,,,0,,,94,0
51280,note_on,0,0,0,,,,,,,,0,,,100,86
51360,set_tempo,80,1,0,,,,,,457701,,,,,,
51360,note_on,0,0,0,,,,,,,,0,,,100,0
51360,note_on,0,0,0,,,,,,,,0,,,103,96
51389,control_change,29,0,0,,,,,,,,0,64,0,,
51420,note_on,31,0,0,,,,,,,,0,,,103,0
51600,note_on,180,0,0,,,,,,,,0,,,61,84
51660,note_on,60,0,0,,,,,,,,0,,,61,0
51840,set_tempo,180,1,0,,,,,,373111,,,,,,
51840,note_on,0,0,0,,,,,,,,0,,,62,84
51900,note_on,60,0,0,,,,,,,,0,,,62,0
52000,note_on,100,0,0,,,,,,,,0,,,86,77
52000,note_on,0,0,0,,,,,,,,0,,,83,77
52060,note_on,60,0,0,,,,,,,,0,,,83,0
52060,note_on,0,0,0,,,,,,,,0,,,86,0
52080,set_tempo,20,1,0,,,,,,358895,,,,,,
52160,set_tempo,80,1,0,,,,,,360036,,,,,,
52160,note_on,0,0,0,,,,,,,,0,,,84,75
52160,note_on,0,0,0,,,,,,,,0,,,81,75
52220,note_on,60,0,0,,,,,,,,0,,,81,0
52220,note_on,0,0,0,,,,,,,,0,,,84,0
52240,set_tempo,20,1,0,,,,,,361185,,,,,,
52320,set_tempo,80,1,0,,,,,,362341,,,,,,
52320,note_on,0,0,0,,,,,,,,0,,,83,74
52320,note_on,0,0,0,,,,,,,,0,,,79,74
52320,note_on,0,0,0,,,,,,,,0,,,59,74
52380,note_on,60,0,0,,,,,,,,0,,,59,0
52380,note_on,0,0,0,,,,,,,,0,,,79,0
52380,note_on,0,0,0,,,,,,,,0,,,83,0
52400,set_tempo,20,1,0,,,,,,363504,,,,,,
52480,set_tempo,80,1,0,,,,,,364675,,,,,,
52480,note_on,0,0,0,,,,,,,,0,,,81,72
52480,note_on,0,0,0,,,,,,,,0,,,78,72
52480,note_on,0,0,0,,,,,,,,0,,,60,71
52540,note_on,60,0,0,,,,,,,,0,,,60,0
52540,note_on,0,0,0,,,,,,,,0,,,78,0
52540,note_on,0,0,0,,,,,,,,0,,,81,0
52560,set_tempo,20,1,0,,,,,,365854,,,,,,
52640,set_tempo,80,1,0,,,,,,367062,,,,,,
52640,note_on,0,0,0,,,,,,,,0,,,79,71
52640,note_on,0,0,0,,,,,,,,0,,,76,71
52640,note_on,0,0,0,,,,,,,,0,,,61,68
52680,set_tempo,40,1,0,,,,,,368256,,,,,,
52700,note_on,20,0,0,,,,,,,,0,,,61,0
52700,note_on,0,0,0,,,,,,,,0,,,76,0
52700,note_on,0,0,0,,,,,,,,0,,,79,0
52760,set_tempo,60,1,0,,,,,,369458,,,,,,
52800,note_on,40,0,0,,,,,,,,0,,,74,69
52800,note_on,0,0,0,,,,,,,,0,,,78,69
52800,note_on,0,0,0,,,,,,,,0,,,62,65
52840,set_tempo,40,1,0,,,,,,370668,,,,,,
52860,note_on,20,0,0,,,,,,,,0,,,78,0
52860,note_on,0,0,0,,,,,,,,0,,,74,0
52920,set_tempo,60,1,0,,,,,,371885,,,,,,
52920,note_on,0,0,0,,,,,,,,0,,,62,0
52960,note_on,40,0,0,,,,,,,,0,,,72,67
52960,note_on,0,0,0,,,,,,,,0,,,76,67
53000,set_tempo,40,1,0,,,,,,373111,,,,,,
53020,note_on,20,0,0,,,,,,,,0,,,76,0
53020,note_on,0,0,0,,,,,,,,0,,,72,0
53040,set_tempo,20,1,0,,,,,,374345,,,,,,
53120,set_tempo,80,1,0,,,,,,375587,,,,,,
53120,note_on,0,0,0,,,,,,,,0,,,71,66
53120,note_on,0,0,0,,,,,,,,0,,,74,66
53180,note_on,60,0,0,,,,,,,,0,,,74,0
53180,note_on,0,0,0,,,,,,,,0,,,71,0
53200,set_tempo,20,1,0,,,,,,376837,,,,,,
53280,set_tempo,80,1,0,,,,,,378096,,,,,,
53280,note_on,0,0,0,,,,,,,,0,,,69,64
53280,note_on,0,0,0,,,,,,,,0,,,72,64
53280,note_on,0,0,0,,,,,,,,0,,,74,69
53340,note_on,60,0,0,,,,,,,,0,,,72,0
53340,note_on,0,0,0,,,,,,,,0,,,69,0
53360,set_tempo,20,1,0,,,,,,379363,,,,,,
53400,set_tempo,40,1,0,,,,,,380638,,,,,,
53400,note_on,0,0,0,,,,,,,,0,,,74,0
53440,note_on,40,0,0,,,,,,,,0,,,67,62
53440,note_on,0,0,0,,,,,,,,0,,,71,62
53480,set_tempo,40,1,0,,,,,,381922,,,,,,
53500,note_on,20,0,0,,,,,,,,0,,,71,0
53500,note_on,0,0,0,,,,,,,,0,,,67,0
53560,set_tempo,60,1,0,,,,,,383240,,,,,,
53600,note_on,40,0,0,,,,,,,,0,,,66,61
53600,note_on,0,0,0,,,,,,,,0,,,69,61
53640,set_tempo,40,1,0,,,,,,384541,,,,,,
53660,note_on,20,0,0,,,,,,,,0,,,69,0
53660,note_on,0,0,0,,,,,,,,0,,,66,0
53720,set_tempo,60,1,0,,,,,,385852,,,,,,
53760,set_tempo,40,1,0,,,,,,369458,,,,,,
53760,note_on,0,0,0,,,,,,,,0,,,55,53
53820,note_on,60,0,0,,,,,,,,0,,,55,0
53880,note_on,60,0,0,,,,,,,,0,,,62,46
53970,note_on,90,0,0,,,,,,,,0,,,62,0
54000,note_on,30,0,0,,,,,,,,0,,,71,42
54090,note_on,90,0,0,,,,,,,,0,,,71,0
54120,note_on,30,0,0,,,,,,,,0,,,79,46
54210,note_on,90,0,0,,,,,,,,0,,,79,0
54240,note_on,30,0,0,,,,,,,,0,,,79,55
54300,note_on,60,0,0,,,,,,,,0,,,79,0
54360,note_on,60,0,0,,,,,,,,0,,,71,46
54450,note_on,90,0,0,,,,,,,,0,,,71,0
54480,set_tempo,30,1,0,,,,,,379363,,,,,,
54480,note_on,0,0,0,,,,,,,,0,,,62,45
54570,note_on,90,0,0,,,,,,,,0,,,62,0
54600,note_on,30,0,0,,,,,,,,0,,,55,42
54690,note_on,90,0,0,,,,,,,,0,,,55,0
54720,set_tempo,30,1,0,,,,,,373111,,,,,,
54720,note_on,0,0,0,,,,,,,,0,,,55,51
54780,note_on,60,0,0,,,,,,,,0,,,55,0
54840,note_on,60,0,0,,,,,,,,0,,,63,46
54930,note_on,90,0,0,,,,,,,,0,,,63,0
54960,set_tempo,30,1,0,,,,,,365854,,,,,,
54960,note_on,0,0,0,,,,,,,,0,,,72,48
55050,note_on,90,0,0,,,,,,,,0,,,72,0
55080,note_on,30,0,0,,,,,,,,0,,,78,50
55170,note_on,90,0,0,,,,,,,,0,,,78,0
55200,note_on,30,0,0,,,,,,,,0,,,78,59
55260,note_on,60,0,0,,,,,,,,0,,,78,0
55320,note_on,60,0,0,,,,,,,,0,,,72,54
55410,note_on,90,0,0,,,,,,,,0,,,72,0
55440,set_tempo,30,1,0,,,,,,377050,,,,,,
55440,note_on,0,0,0,,,,,,,,0,,,63,49
55530,note_on,90,0,0,,,,,,,,0,,,63,0
55560,note_on,30,0,0,,,,,,,,0,,,55,42
55650,note_on,90,0,0,,,,,,,,0,,,55,0
55680,set_tempo,30,1,0,,,,,,373111,,,,,,
55680,note_on,0,0,0,,,,,,,,0,,,55,78
55800,note_on,120,0,0,,,,,,,,0,,,55,0
55840,note_on,40,0,0,,,,,,,,0,,,86,74
55840,note_on,0,0,0,,,,,,,,0,,,83,74
55883,control_change,43,0,0,,,,,,,,0,64,127,,
55900,note_on,17,0,0,,,,,,,,0,,,83,0
55900,note_on,0,0,0,,,,,,,,0,,,86,0
55920,set_tempo,20,1,0,,,,,,358895,,,,,,
56000,set_tempo,80,1,0,,,,,,360036,,,,,,
56000,note_on,0,0,0,,,,,,,,0,,,84,72
56000,note_on,0,0,0,,,,,,,,0,,,81,72
56060,note_on,60,0,0,,,,,,,,0,,,81,0
56060,note_on,0,0,0,,,,,,,,0,,,84,0
56080,set_tempo,20,1,0,,,,,,361185,,,,,,
56160,set_tempo,80,1,0,,,,,,362341,,,,,,
56160,note_on,0,0,0,,,,,,,,0,,,83,71
56160,note_on,0,0,0,,,,,,,,0,,,79,71
56160,note_on,0,0,0,,,,,,,,0,,,59,71
56174,control_change,14,0,0,,,,,,,,0,64,0,,
56220,note_on,46,0,0,,,,,,,,0,,,59,0
56220,note_on,0,0,0,,,,,,,,0,,,79,0
56220,note_on,0,0,0,,,,,,,,0,,,83,0
56240,set_tempo,20,1,0,,,,,,363504,,,,,,
56320,set_tempo,80,1,0,,,,,,364675,,,,,,
56320,note_on,0,0,0,,,,,,,,0,,,81,69
56320,note_on,0,0,0,,,,,,,,0,,,78,69
56320,note_on,0,0,0,,,,,,,,0,,,60,68
56380,note_on,60,0,0,,,,,,,,0,,,60,0
56380,note_on,0,0,0,,,,,,,,0,,,78,0
56380,note_on,0,0,0,,,,,,,,0,,,81,0
56400,set_tempo,20,1,0,,,,,,365854,,,,,,
56480,set_tempo,80,1,0,,,,,,367062,,,,,,
56480,note_on,0,0,0,,,,,,,,0,,,79,68
56480,note_on,0,0,0,,,,,,,,0,,,76,68
56480,note_on,0,0,0,,,,,,,,0,,,61,65
56520,set_tempo,40,1,0,,,,,,368256,,,,,,
56540,note_on,20,0,0,,,,,,,,0,,,61,0
56540,note_on,0,0,0,,,,,,,,0,,,76,0
56540,note_on,0,0,0,,,,,,,,0,,,79,0
56600,set_tempo,60,1,0,,,,,,369458,,,,,,
56640,note_on,40,0,0,,,,,,,,0,,,74,66
56640,note_on,0,0,0,,,,,,,,0,,,78,66
56640,note_on,0,0,0,,,,,,,,0,,,62,63
56680,set_tempo,40,1,0,,,,,,370668,,,,,,
56700,note_on,20,0,0,,,,,,,,0,,,78,0
56700,note_on,0,0,0,,,,,,,,0,,,74,0
56760,set_tempo,60,1,0,,,,,,371885,,,,,,
56760,note_on,0,0,0,,,,,,,,0,,,62,0
56800,note_on,40,0,0,,,,,,,,0,,,72,64
56800,note_on,0,0,0,,,,,,,,0,,,76,64
56840,set_tempo,40,1,0,,,,,,373111,,,,,,
56860,note_on,20,0,0,,,,,,,,0,,,76,0
56860,note_on,0,0,0,,,,,,,,0,,,72,0
56880,set_tempo,20,1,0,,,,,,374345,,,,,,
56960,set_tempo,80,1,0,,,,,,375587,,,,,,
56960,note_on,0,0,0,,,,,,,,0,,,71,64
56960,note_on,0,0,0,,,,,,,,0,,,74,64
57020,note_on,60,0,0,,,,,,,,0,,,74,0
57020,note_on,0,0,0,,,,,,,,0,,,71,0
57040,set_tempo,20,1,0,,,,,,376837,,,,,,
57120,set_tempo,80,1,0,,,,,,378096,,,,,,
57120,note_on,0,0,0,,,,,,,,0,,,69,62
57120,note_on,0,0,0,,,,,,,,0,,,72,62
57120,note_on,0,0,0,,,,,,,,0,,,74,66
57180,note_on,60,0,0,,,,,,,,0,,,72,0
57180,note_on,0,0,0,,,,,,,,0,,,69,0
57200,set_tempo,20,1,0,,,,,,379363,,,,,,
57240,set_tempo,40,1,0,,,,,,380638,,,,,,
57240,note_on,0,0,0,,,,,,,,0,,,74,0
57280,note_on,40,0,0,,,,,,,,0,,,67,60
57280,note_on,0,0,0,,,,,,,,0,,,71,60
57320,set_tempo,40,1,0,,,,,,381922,,,,,,
57340,note_on,20,0,0,,,,,,,,0,,,71,0
57340,note_on,0,0,0,,,,,,,,0,,,67,0
57400,set_tempo,60,1,0,,,,,,383240,,,,,,
57440,note_on,40,0,0,,,,,,,,0,,,66,59
57440,note_on,0,0,0,,,,,,,,0,,,69,59
57480,set_tempo,40,1,0,,,,,,384541,,,,,,
57500,note_on,20,0,0,,,,,,,,0,,,69,0
57500,note_on,0,0,0,,,,,,,,0,,,66,0
57560,set_tempo,60,1,0,,,,,,385852,,,,,,
57600,set_tempo,40,1,0,,,,,,369458,,,,,,
57600,note_on,0,0,0,,,,,,,,0,,,55,53
57660,note_on,60,0,0,,,,,,,,0,,,55,0
57720,note_on,60,0,0,,,,,,,,0,,,62,46
57810,note_on,90,0,0,,,,,,,,0,,,62,0
57840,note_on,30,0,0,,,,,,,,0,,,71,42
57930,note_on,90,0,0,,,,,,,,0,,,71,0
57960,note_on,30,0,0,,,,,,,,0,,,79,46
58050,note_on,90,0,0,,,,,,,,0,,,79,0
58080,note_on,30,0,0,,,,,,,,0,,,79,59
58140,note_on,60,0,0,,,,,,,,0,,,79,0
58200,note_on,60,0,0,,,,,,,,0,,,71,46
58290,note_on,90,0,0,,,,,,,,0,,,71,0
58320,set_tempo,30,1,0,,,,,,379363,,,,,,
58320,note_on,0,0,0,,,,,,,,0,,,62,39
58410,note_on,90,0,0,,,,,,,,0,,,62,0
58440,note_on,30,0,0,,,,,,,,0,,,55,37
58530,note_on,90,0,0,,,,,,,,0,,,55,0
58560,set_tempo,30,1,0,,,,,,373111,,,,,,
58560,note_on,0,0,0,,,,,,,,0,,,55,51
58620,note_on,60,0,0,,,,,,,,0,,,55,0
58680,note_on,60,0,0,,,,,,,,0,,,63,46
58770,note_on,90,0,0,,,,,,,,0,,,63,0
58800,set_tempo,30,1,0,,,,,,365854,,,,,,
58800,note_on,0,0,0,,,,,,,,0,,,72,48
58890,note_on,90,0,0,,,,,,,,0,,,72,0
58920,note_on,30,0,0,,,,,,,,0,,,78,50
59010,note_on,90,0,0,,,,,,,,0,,,78,0
59040,note_on,30,0,0,,,,,,,,0,,,78,59
59100,note_on,60,0,0,,,,,,,,0,,,78,0
59160,note_on,60,0,0,,,,,,,,0,,,72,54
59250,note_on,90,0,0,,,,,,,,0,,,72,0
59280,set_tempo,30,1,0,,,,,,377050,,,,,,
59280,note_on,0,0,0,,,,,,,,0,,,63,49
59370,note_on,90,0,0,,,,,,,,0,,,63,0
59400,note_on,30,0,0,,,,,,,,0,,,55,43
59490,note_on,90,0,0,,,,,,,,0,,,55,0
59520,set_tempo,30,1,0,,,,,,412371,,,,,,
59520,note_on,0,0,0,,,,,,,,0,,,55,78
59640,note_on,120,0,0,,,,,,,,0,,,55,0
59680,note_on,40,0,0,,,,,,,,0,,,86,74
59680,note_on,0,0,0,,,,,,,,0,,,83,74
59709,control_change,29,0,0,,,,,,,,0,64,127,,
59740,note_on,31,0,0,,,,,,,,0,,,83,0
59740,note_on,0,0,0,,,,,,,,0,,,86,0
59760,set_tempo,20,1,0,,,,,,349854,,,,,,
59800,set_tempo,40,1,0,,,,,,350877,,,,,,
59840,set_tempo,40,1,0,,,,,,352941,,,,,,
59840,note_on,0,0,0,,,,,,,,0,,,84,72
59840,note_on,0,0,0,,,,,,,,0,,,81,72
59880,set_tempo,40,1,0,,,,,,353982,,,,,,
59900,note_on,20,0,0,,,,,,,,0,,,81,0
59900,note_on,0,0,0,,,,,,,,0,,,84,0
59920,set_tempo,20,1,0,,,,,,356083,,,,,,
59960,set_tempo,40,1,0,,,,,,357143,,,,,,
60000,set_tempo,40,1,0,,,,,,359281,,,,,,
60000,note_on,0,0,0,,,,,,,,0,,,83,71
60000,note_on,0,0,0,,,,,,,,0,,,79,71
60000,note_on,0,0,0,,,,,,,,0,,,59,71
60011,control_change,11,0,0,,,,,,,,0,64,0,,
60040,set_tempo,29,1,0,,,,,,360360,,,,,,
60060,note_on,20,0,0,,,,,,,,0,,,59,0
60060,note_on,0,0,0,,,,,,,,0,,,79,0
60060,note_on,0,0,0,,,,,,,,0,,,83,0
60080,set_tempo,20,1,0,,,,,,362538,,,,,,
60160,set_tempo,80,1,0,,,,,,364675,,,,,,
60160,note_on,0,0,0,,,,,,,,0,,,81,69
60160,note_on,0,0,0,,,,,,,,0,,,78,69
60160,note_on,0,0,0,,,,,,,,0,,,60,68
60220,note_on,60,0,0,,,,,,,,0,,,60,0
60220,note_on,0,0,0,,,,,,,,0,,,78,0
60220,note_on,0,0,0,,,,,,,,0,,,81,0
60240,set_tempo,20,1,0,,,,,,365854,,,,,,
60320,set_tempo,80,1,0,,,,,,367062,,,,,,
60320,note_on,0,0,0,,,,,,,,0,,,79,68
60320,note_on,0,0,0,,,,,,,,0,,,76,68
60320,note_on,0,0,0,,,,,,,,0,,,61,65
60360,set_tempo,40,1,0,,,,,,368256,,,,,,
60380,note_on,20,0,0,,,,,,,,0,,,61,0
60380,note_on,0,0,0,,,,,,,,0,,,76,0
60380,note_on,0,0,0,,,,,,,,0,,,79,0
60440,set_tempo,60,1,0,,,,,,369458,,,,,,
60480,note_on,40,0,0,,,,,,,,0,,,74,66
60480,note_on,0,0,0,,,,,,,,0,,,78,66
60480,note_on,0,0,0,,,,,,,,0,,,62,63
60520,set_tempo,40,1,0,,,,,,370668,,,,,,
60540,note_on,20,0,0,,,,,,,,0,,,78,0
60540,note_on,0,0,0,,,,,,,,0,,,74,0
60600,set_tempo,60,1,0,,,,,,371885,,,,,,
60600,note_on,0,0,0,,,,,,,,0,,,62,0
60640,note_on,40,0,0,,,,,,,,0,,,72,64
60640,note_on,0,0,0,,,,,,,,0,,,76,64
60680,set_tempo,40,1,0,,,,,,373111,,,,,,
60700,note_on,20,0,0,,,,,,,,0,,,76,0
60700,note_on,0,0,0,,,,,,,,0,,,72,0
60720,set_tempo,20,1,0,,,,,,374345,,,,,,
60800,set_tempo,80,1,0,,,,,,375587,,,,,,
60800,note_on,0,0,0,,,,,,,,0,,,71,64
60800,note_on,0,0,0,,,,,,,,0,,,74,64
60860,note_on,60,0,0,,,,,,,,0,,,74,0
60860,note_on,0,0,0,,,,,,,,0,,,71,0
60880,set_tempo,20,1,0,,,,,,376837,,,,,,
60960,set_tempo,80,1,0,,,,,,378096,,,,,,
60960,note_on,0,0,0,,,,,,,,0,,,69,62
60960,note_on,0,0,0,,,,,,,,0,,,72,62
60960,note_on,0,0,0,,,,,,,,0,,,74,66
61020,note_on,60,0,0,,,,,,,,0,,,72,0
61020,note_on,0,0,0,,,,,,,,0,,,69,0
61040,set_tempo,20,1,0,,,,,,379363,,,,,,
61080,set_tempo,40,1,0,,,,,,380638,,,,,,
61080,note_on,0,0,0,,,,,,,,0,,,74,0
61120,note_on,40,0,0,,,,,,,,0,,,67,60
61120,note_on,0,0,0,,,,,,,,0,,,71,60
61160,set_tempo,40,1,0,,,,,,381922,,,,,,
61180,note_on,20,0,0,,,,,,,,0,,,71,0
61180,note_on,0,0,0,,,,,,,,0,,,67,0
61240,set_tempo,60,1,0,,,,,,383240,,,,,,
61280,note_on,40,0,0,,,,,,,,0,,,66,59
61280,note_on,0,0,0,,,,,,,,0,,,69,59
61320,set_tempo,40,1,0,,,,,,384541,,,,,,
61340,note_on,20,0,0,,,,,,,,0,,,69,0
61340,note_on,0,0,0,,,,,,,,0,,,66,0
61400,set_tempo,60,1,0,,,,,,385852,,,,,,
61440,set_tempo,40,1,0,,,,,,369458,,,,,,
61440,note_on,0,0,0,,,,,,,,0,,,55,53
61500,note_on,60,0,0,,,,,,,,0,,,55,0
61560,note_on,60,0,0,,,,,,,,0,,,62,46
61650,note_on,90,0,0,,,,,,,,0,,,62,0
61680,note_on,30,0,0,,,,,,,,0,,,71,46
61770,note_on,90,0,0,,,,,,,,0,,,71,0
61800,note_on,30,0,0,,,,,,,,0,,,79,39
61890,note_on,90,0,0,,,,,,,,0,,,79,0
61920,note_on,30,0,0,,,,,,,,0,,,79,56
61980,note_on,60,0,0,,,,,,,,0,,,79,0
62040,note_on,60,0,0,,,,,,,,0,,,71,46
62130,note_on,90,0,0,,,,,,,,0,,,71,0
62160,set_tempo,30,1,0,,,,,,379363,,,,,,
62160,note_on,0,0,0,,,,,,,,0,,,62,41
62250,note_on,90,0,0,,,,,,,,0,,,62,0
62280,note_on,30,0,0,,,,,,,,0,,,55,34
62370,note_on,90,0,0,,,,,,,,0,,,55,0
62400,set_tempo,30,1,0,,,,,,373111,,,,,,
62400,note_on,0,0,0,,,,,,,,0,,,55,51
62460,note_on,60,0,0,,,,,,,,0,,,55,0
62520,note_on,60,0,0,,,,,,,,0,,,62,46
62610,note_on,90,0,0,,,,,,,,0,,,62,0
62640,set_tempo,30,1,0,,,,,,365854,,,,,,
62640,note_on,0,0,0,,,,,,,,0,,,70,48
62730,note_on,90,0,0,,,,,,,,0,,,70,0
62760,note_on,30,0,0,,,,,,,,0,,,79,50
62850,note_on,90,0,0,,,,,,,,0,,,79,0
62880,note_on,30,0,0,,,,,,,,0,,,79,59
62940,note_on,60,0,0,,,,,,,,0,,,79,0
63000,note_on,60,0,0,,,,,,,,0,,,70,54
63090,note_on,90,0,0,,,,,,,,0,,,70,0
63120,set_tempo,30,1,0,,,,,,377050,,,,,,
63120,note_on,0,0,0,,,,,,,,0,,,62,51
63210,note_on,90,0,0,,,,,,,,0,,,62,0
63240,note_on,30,0,0,,,,,,,,0,,,55,49
63360,set_tempo,120,1,0,,,,,,373111,,,,,,
63360,note_on,0,0,0,,,,,,,,0,,,63,76
63480,note_on,120,0,0,,,,,,,,0,,,63,0
63520,note_on,40,0,0,,,,,,,,0,,,85,70
63520,note_on,0,0,0,,,,,,,,0,,,82,70
63546,control_change,26,0,0,,,,,,,,0,64,127,,
63570,note_on,24,0,0,,,,,,,,0,,,55,0
63580,note_on,10,0,0,,,,,,,,0,,,82,0
63580,note_on,0,0,0,,,,,,,,0,,,85,0
63600,set_tempo,20,1,0,,,,,,363636,,,,,,
63680,note_on,80,0,0,,,,,,,,0,,,84,69
63680,note_on,0,0,0,,,,,,,,0,,,80,69
63740,note_on,60,0,0,,,,,,,,0,,,80,0
63740,note_on,0,0,0,,,,,,,,0,,,84,0
63760,set_tempo,20,1,0,,,,,,364742,,,,,,
63840,note_on,80,0,0,,,,,,,,0,,,82,67
63840,note_on,0,0,0,,,,,,,,0,,,79,67
63840,note_on,0,0,0,,,,,,,,0,,,58,68
63851,control_change,11,0,0,,,,,,,,0,64,0,,
63900,note_on,49,0,0,,,,,,,,0,,,58,0
63900,note_on,0,0,0,,,,,,,,0,,,79,0
63900,note_on,0,0,0,,,,,,,,0,,,82,0
63920,set_tempo,20,1,0,,,,,,365854,,,,,,
64000,note_on,80,0,0,,,,,,,,0,,,79,66
64000,note_on,0,0,0,,,,,,,,0,,,82,66
64000,note_on,0,0,0,,,,,,,,0,,,61,66
64060,note_on,60,0,0,,,,,,,,0,,,61,0
64060,note_on,0,0,0,,,,,,,,0,,,82,0
64060,note_on,0,0,0,,,,,,,,0,,,79,0
64080,set_tempo,20,1,0,,,,,,366972,,,,,,
64160,note_on,80,0,0,,,,,,,,0,,,77,64
64160,note_on,0,0,0,,,,,,,,0,,,80,64
64160,note_on,0,0,0,,,,,,,,0,,,62,65
64220,note_on,60,0,0,,,,,,,,0,,,62,0
64220,note_on,0,0,0,,,,,,,,0,,,80,0
64220,note_on,0,0,0,,,,,,,,0,,,77,0
64240,set_tempo,20,1,0,,,,,,368098,,,,,,
64320,note_on,80,0,0,,,,,,,,0,,,75,63
64320,note_on,0,0,0,,,,,,,,0,,,79,63
64320,note_on,0,0,0,,,,,,,,0,,,63,63
64360,set_tempo,40,1,0,,,,,,369231,,,,,,
64380,note_on,20,0,0,,,,,,,,0,,,79,0
64380,note_on,0,0,0,,,,,,,,0,,,75,0
64440,set_tempo,60,1,0,,,,,,371885,,,,,,
64440,note_on,0,0,0,,,,,,,,0,,,63,0
64480,note_on,40,0,0,,,,,,,,0,,,73,61
64480,note_on,0,0,0,,,,,,,,0,,,77,61
64520,set_tempo,40,1,0,,,,,,373111,,,,,,
64540,note_on,20,0,0,,,,,,,,0,,,77,0
64540,note_on,0,0,0,,,,,,,,0,,,73,0
64560,set_tempo,20,1,0,,,,,,374345,,,,,,
64640,set_tempo,80,1,0,,,,,,375587,,,,,,
64640,note_on,0,0,0,,,,,,,,0,,,72,60
64640,note_on,0,0,0,,,,,,,,0,,,75,60
64700,note_on,60,0,0,,,,,,,,0,,,75,0
64700,note_on,0,0,0,,,,,,,,0,,,72,0
64720,set_tempo,20,1,0,,,,,,376837,,,,,,
64800,set_tempo,80,1,0,,,,,,378096,,,,,,
64800,note_on,0,0,0,,,,,,,,0,,,70,59
64800,note_on,0,0,0,,,,,,,,0,,,73,59
64800,note_on,0,0,0,,,,,,,,0,,,75,65
64860,note_on,60,0,0,,,,,,,,0,,,73,0
64860,note_on,0,0,0,,,,,,,,0,,,70,0
64880,set_tempo,20,1,0,,,,,,379363,,,,,,
64920,set_tempo,40,1,0,,,,,,380638,,,,,,
64920,note_on,0,0,0,,,,,,,,0,,,75,0
64960,note_on,40,0,0,,,,,,,,0,,,68,57
64960,note_on,0,0,0,,,,,,,,0,,,72,57
65000,set_tempo,40,1,0,,,,,,381922,,,,,,
65020,note_on,20,0,0,,,,,,,,0,,,72,0
65020,note_on,0,0,0,,,,,,,,0,,,68,0
65080,set_tempo,60,1,0,,,,,,383240,,,,,,
65120,note_on,40,0,0,,,,,,,,0,,,67,61
65120,note_on,0,0,0,,,,,,,,0,,,70,61
65160,set_tempo,40,1,0,,,,,,384541,,,,,,
65180,note_on,20,0,0,,,,,,,,0,,,70,0
65180,note_on,0,0,0,,,,,,,,0,,,67,0
65240,set_tempo,60,1,0,,,,,,385852,,,,,,
65280,set_tempo,40,1,0,,,,,,369458,,,,,,
65280,note_on,0,0,0,,,,,,,,0,,,56,53
65340,note_on,60,0,0,,,,,,,,0,,,56,0
65400,note_on,60,0,0,,,,,,,,0,,,63,46
65490,note_on,90,0,0,,,,,,,,0,,,63,0
65520,note_on,30,0,0,,,,,,,,0,,,72,46
65610,note_on,90,0,0,,,,,,,,0,,,72,0
65640,note_on,30,0,0,,,,,,,,0,,,80,42
65730,note_on,90,0,0,,,,,,,,0,,,80,0
65760,note_on,30,0,0,,,,,,,,0,,,80,50
65820,note_on,60,0,0,,,,,,,,0,,,80,0
65880,note_on,60,0,0,,,,,,,,0,,,72,46
65970,note_on,90,0,0,,,,,,,,0,,,72,0
66000,set_tempo,30,1,0,,,,,,379363,,,,,,
66000,note_on,0,0,0,,,,,,,,0,,,63,42
66090,note_on,90,0,0,,,,,,,,0,,,63,0
66120,note_on,30,0,0,,,,,,,,0,,,56,37
66210,note_on,90,0,0,,,,,,,,0,,,56,0
66240,set_tempo,30,1,0,,,,,,373111,,,,,,
66240,note_on,0,0,0,,,,,,,,0,,,56,51
66300,note_on,60,0,0,,,,,,,,0,,,56,0
66360,note_on,60,0,0,,,,,,,,0,,,63,46
66450,note_on,90,0,0,,,,,,,,0,,,63,0
66480,set_tempo,30,1,0,,,,,,365854,,,,,,
66480,note_on,0,0,0,,,,,,,,0,,,71,48
66570,note_on,90,0,0,,,,,,,,0,,,71,0
66600,note_on,30,0,0,,,,,,,,0,,,80,45
66690,note_on,90,0,0,,,,,,,,0,,,80,0
66720,note_on,30,0,0,,,,,,,,0,,,80,59
66780,note_on,60,0,0,,,,,,,,0,,,80,0
66840,note_on,60,0,0,,,,,,,,0,,,71,54
66930,note_on,90,0,0,,,,,,,,0,,,71,0
66960,set_tempo,30,1,0,,,,,,377050,,,,,,
66960,note_on,0,0,0,,,,,,,,0,,,63,49
67050,note_on,90,0,0,,,,,,,,0,,,63,0
67080,note_on,30,0,0,,,,,,,,0,,,56,47
67200,set_tempo,120,1,0,,,,,,373111,,,,,,
67200,note_on,0,0,0,,,,,,,,0,,,64,76
67320,note_on,120,0,0,,,,,,,,0,,,64,0
67360,note_on,40,0,0,,,,,,,,0,,,86,70
67360,note_on,0,0,0,,,,,,,,0,,,83,70
67380,control_change,20,0,0,,,,,,,,0,64,127,,
67410,note_on,30,0,0,,,,,,,,0,,,56,0
67420,note_on,10,0,0,,,,,,,,0,,,83,0
67420,note_on,0,0,0,,,,,,,,0,,,86,0
67440,set_tempo,20,1,0,,,,,,358895,,,,,,
67520,set_tempo,80,1,0,,,,,,360036,,,,,,
67520,note_on,0,0,0,,,,,,,,0,,,85,69
67520,note_on,0,0,0,,,,,,,,0,,,81,69
67580,note_on,60,0,0,,,,,,,,0,,,81,0
67580,note_on,0,0,0,,,,,,,,0,,,85,0
67600,set_tempo,20,1,0,,,,,,361185,,,,,,
67680,set_tempo,80,1,0,,,,,,362341,,,,,,
67680,note_on,0,0,0,,,,,,,,0,,,83,67
67680,note_on,0,0,0,,,,,,,,0,,,80,67
67680,note_on,0,0,0,,,,,,,,0,,,59,68
67690,control_change,10,0,0,,,,,,,,0,64,0,,
67740,note_on,50,0,0,,,,,,,,0,,,59,0
67740,note_on,0,0,0,,,,,,,,0,,,80,0
67740,note_on,0,0,0,,,,,,,,0,,,83,0
67760,set_tempo,20,1,0,,,,,,363504,,,,,,
67840,set_tempo,80,1,0,,,,,,364675,,,,,,
67840,note_on,0,0,0,,,,,,,,0,,,80,66
67840,note_on,0,0,0,,,,,,,,0,,,83,66
67840,note_on,0,0,0,,,,,,,,0,,,62,66
67900,note_on,60,0,0,,,,,,,,0,,,62,0
67900,note_on,0,0,0,,,,,,,,0,,,83,0
67900,note_on,0,0,0,,,,,,,,0,,,80,0
67920,set_tempo,20,1,0,,,,,,365854,,,,,,
68000,set_tempo,80,1,0,,,,,,367062,,,,,,
68000,note_on,0,0,0,,,,,,,,0,,,78,64
68000,note_on,0,0,0,,,,,,,,0,,,81,64
68000,note_on,0,0,0,,,,,,,,0,,,63,65
68040,set_tempo,40,1,0,,,,,,368256,,,,,,
68060,note_on,20,0,0,,,,,,,,0,,,63,0
68060,note_on,0,0,0,,,,,,,,0,,,81,0
68060,note_on,0,0,0,,,,,,,,0,,,78,0
68120,set_tempo,60,1,0,,,,,,369458,,,,,,
68160,note_on,40,0,0,,,,,,,,0,,,76,63
68160,note_on,0,0,0,,,,,,,,0,,,80,63
68160,note_on,0,0,0,,,,,,,,0,,,64,63
68200,set_tempo,40,1,0,,,,,,370668,,,,,,
68220,note_on,20,0,0,,,,,,,,0,,,80,0
68220,note_on,0,0,0,,,,,,,,0,,,76,0
68280,set_tempo,60,1,0,,,,,,371885,,,,,,
68280,note_on,0,0,0,,,,,,,,0,,,64,0
68320,note_on,40,0,0,,,,,,,,0,,,74,61
68320,note_on,0,0,0,,,,,,,,0,,,78,61
68360,set_tempo,40,1,0,,,,,,373111,,,,,,
68380,note_on,20,0,0,,,,,,,,0,,,78,0
68380,note_on,0,0,0,,,,,,,,0,,,74,0
68400,set_tempo,20,1,0,,,,,,374345,,,,,,
68480,set_tempo,80,1,0,,,,,,375587,,,,,,
68480,note_on,0,0,0,,,,,,,,0,,,73,60
68480,note_on,0,0,0,,,,,,,,0,,,76,60
68540,note_on,60,0,0,,,,,,,,0,,,76,0
68540,note_on,0,0,0,,,,,,,,0,,,73,0
68560,set_tempo,20,1,0,,,,,,376837,,,,,,
68640,set_tempo,80,1,0,,,,,,378096,,,,,,
68640,note_on,0,0,0,,,,,,,,0,,,71,59
68640,note_on,0,0,0,,,,,,,,0,,,74,59
68640,note_on,0,0,0,,,,,,,,0,,,76,65
68700,note_on,60,0,0,,,,,,,,0,,,74,0
68700,note_on,0,0,0,,,,,,,,0,,,71,0
68720,set_tempo,20,1,0,,,,,,379363,,,,,,
68760,set_tempo,40,1,0,,,,,,380638,,,,,,
68760,note_on,0,0,0,,,,,,,,0,,,76,0
68800,note_on,40,0,0,,,,,,,,0,,,69,57
68800,note_on,0,0,0,,,,,,,,0,,,73,57
68840,set_tempo,40,1,0,,,,,,381922,,,,,,
68860,note_on,20,0,0,,,,,,,,0,,,73,0
68860,note_on,0,0,0,,,,,,,,0,,,69,0
68920,set_tempo,60,1,0,,,,,,383240,,,,,,
68960,note_on,40,0,0,,,,,,,,0,,,68,61
68960,note_on,0,0,0,,,,,,,,0,,,71,61
69000,set_tempo,40,1,0,,,,,,384541,,,,,,
69020,note_on,20,0,0,,,,,,,,0,,,71,0
69020,note_on,0,0,0,,,,,,,,0,,,68,0
69080,set_tempo,60,1,0,,,,,,385852,,,,,,
69120,set_tempo,40,1,0,,,,,,369458,,,,,,
69120,note_on,0,0,0,,,,,,,,0,,,57,53
69180,note_on,60,0,0,,,,,,,,0,,,57,0
69240,note_on,60,0,0,,,,,,,,0,,,64,46
69330,note_on,90,0,0,,,,,,,,0,,,64,0
69360,note_on,30,0,0,,,,,,,,0,,,73,42
69450,note_on,90,0,0,,,,,,,,0,,,73,0
69480,note_on,30,0,0,,,,,,,,0,,,81,46
69570,note_on,90,0,0,,,,,,,,0,,,81,0
69600,note_on,30,0,0,,,,,,,,0,,,81,56
69660,note_on,60,0,0,,,,,,,,0,,,81,0
69720,note_on,60,0,0,,,,,,,,0,,,73,46
69810,note_on,90,0,0,,,,,,,,0,,,73,0
69840,set_tempo,30,1,0,,,,,,379363,,,,,,
69840,note_on,0,0,0,,,,,,,,0,,,64,43
69930,note_on,90,0,0,,,,,,,,0,,,64,0
69960,note_on,30,0,0,,,,,,,,0,,,57,38
70050,note_on,90,0,0,,,,,,,,0,,,57,0
70080,set_tempo,30,1,0,,,,,,373111,,,,,,
70080,note_on,0,0,0,,,,,,,,0,,,57,51
70140,note_on,60,0,0,,,,,,,,0,,,57,0
70200,note_on,60,0,0,,,,,,,,0,,,64,46
70290,note_on,90,0,0,,,,,,,,0,,,64,0
70320,set_tempo,30,1,0,,,,,,365854,,,,,,
70320,note_on,0,0,0,,,,,,,,0,,,72,48
70410,note_on,90,0,0,,,,,,,,0,,,72,0
70440,note_on,30,0,0,,,,,,,,0,,,81,50
70530,note_on,90,0,0,,,,,,,,0,,,81,0
70560,note_on,30,0,0,,,,,,,,0,,,81,59
70620,note_on,60,0,0,,,,,,,,0,,,81,0
70680,note_on,60,0,0,,,,,,,,0,,,72,54
70770,note_on,90,0,0,,,,,,,,0,,,72,0
70800,set_tempo,30,1,0,,,,,,398671,,,,,,
70800,note_on,0,0,0,,,,,,,,0,,,64,51
70890,note_on,90,0,0,,,,,,,,0,,,64,0
70920,note_on,30,0,0,,,,,,,,0,,,57,48
71040,set_tempo,120,1,0,,,,,,382166,,,,,,
71040,note_on,0,0,0,,,,,,,,0,,,65,78
71160,note_on,120,0,0,,,,,,,,0,,,65,0
71200,note_on,40,0,0,,,,,,,,0,,,87,70
71200,note_on,0,0,0,,,,,,,,0,,,84,70
71231,control_change,31,0,0,,,,,,,,0,64,127,,
71250,note_on,19,0,0,,,,,,,,0,,,57,0
71260,note_on,10,0,0,,,,,,,,0,,,84,0
71260,note_on,0,0,0,,,,,,,,0,,,87,0
71280,set_tempo,20,1,0,,,,,,358895,,,,,,
71360,set_tempo,80,1,0,,,,,,360036,,,,,,
71360,note_on,0,0,0,,,,,,,,0,,,86,69
71360,note_on,0,0,0,,,,,,,,0,,,82,69
71420,note_on,60,0,0,,,,,,,,0,,,82,0
71420,note_on,0,0,0,,,,,,,,0,,,86,0
71440,set_tempo,20,1,0,,,,,,361185,,,,,,
71520,set_tempo,80,1,0,,,,,,362341,,,,,,
71520,note_on,0,0,0,,,,,,,,0,,,84,67
71520,note_on,0,0,0,,,,,,,,0,,,81,67
71520,control_change,0,0,0,,,,,,,,0,64,0,,
71520,note_on,0,0,0,,,,,,,,0,,,60,68
71580,note_on,60,0,0,,,,,,,,0,,,60,0
71580,note_on,0,0,0,,,,,,,,0,,,81,0
71580,note_on,0,0,0,,,,,,,,0,,,84,0
71600,set_tempo,20,1,0,,,,,,363504,,,,,,
71680,set_tempo,80,1,0,,,,,,364675,,,,,,
71680,note_on,0,0,0,,,,,,,,0,,,81,66
71680,note_on,0,0,0,,,,,,,,0,,,84,66
71680,note_on,0,0,0,,,,,,,,0,,,63,66
71740,note_on,60,0,0,,,,,,,,0,,,63,0
71740,note_on,0,0,0,,,,,,,,0,,,84,0
71740,note_on,0,0,0,,,,,,,,0,,,81,0
71760,set_tempo,20,1,0,,,,,,365854,,,,,,
71840,set_tempo,80,1,0,,,,,,367062,,,,,,
71840,note_on,0,0,0,,,,,,,,0,,,79,64
71840,note_on,0,0,0,,,,,,,,0,,,82,64
71840,note_on,0,0,0,,,,,,,,0,,,64,65
71880,set_tempo,40,1,0,,,,,,368256,,,,,,
71900,note_on,20,0,0,,,,,,,,0,,,64,0
71900,note_on,0,0,0,,,,,,,,0,,,82,0
71900,note_on,0,0,0,,,,,,,,0,,,79,0
71960,set_tempo,60,1,0,,,,,,369458,,,,,,
72000,note_on,40,0,0,,,,,,,,0,,,77,63
72000,note_on,0,0,0,,,,,,,,0,,,81,63
72000,note_on,0,0,0,,,,,,,,0,,,65,63
72040,set_tempo,40,1,0,,,,,,370668,,,,,,
72060,note_on,20,0,0,,,,,,,,0,,,81,0
72060,note_on,0,0,0,,,,,,,,0,,,77,0
72120,set_tempo,60,1,0,,,,,,371885,,,,,,
72120,note_on,0,0,0,,,,,,,,0,,,65,0
72160,note_on,40,0,0,,,,,,,,0,,,75,61
72160,note_on,0,0,0,,,,,,,,0,,,79,61
72200,set_tempo,40,1,0,,,,,,373111,,,,,,
72220,note_on,20,0,0,,,,,,,,0,,,79,0
72220,note_on,0,0,0,,,,,,,,0,,,75,0
72240,set_tempo,20,1,0,,,,,,374345,,,,,,
72320,set_tempo,80,1,0,,,,,,375587,,,,,,
72320,note_on,0,0,0,,,,,,,,0,,,74,60
72320,note_on,0,0,0,,,,,,,,0,,,77,60
72380,note_on,60,0,0,,,,,,,,0,,,77,0
72380,note_on,0,0,0,,,,,,,,0,,,74,0
72400,set_tempo,20,1,0,,,,,,376837,,,,,,
72480,set_tempo,80,1,0,,,,,,378096,,,,,,
72480,note_on,0,0,0,,,,,,,,0,,,72,59
72480,note_on,0,0,0,,,,,,,,0,,,75,59
72480,note_on,0,0,0,,,,,,,,0,,,77,65
72540,note_on,60,0,0,,,,,,,,0,,,75,0
72540,note_on,0,0,0,,,,,,,,0,,,72,0
72560,set_tempo,20,1,0,,,,,,379363,,,,,,
72600,set_tempo,40,1,0,,,,,,380638,,,,,,
72600,note_on,0,0,0,,,,,,,,0,,,77,0
72640,note_on,40,0,0,,,,,,,,0,,,70,57
72640,note_on,0,0,0,,,,,,,,0,,,74,57
72680,set_tempo,40,1,0,,,,,,381922,,,,,,
72700,note_on,20,0,0,,,,,,,,0,,,74,0
72700,note_on,0,0,0,,,,,,,,0,,,70,0
72760,set_tempo,60,1,0,,,,,,383240,,,,,,
72800,note_on,40,0,0,,,,,,,,0,,,69,61
72800,note_on,0,0,0,,,,,,,,0,,,72,61
72840,set_tempo,40,1,0,,,,,,384541,,,,,,
72860,note_on,20,0,0,,,,,,,,0,,,72,0
72860,note_on,0,0,0,,,,,,,,0,,,69,0
72920,set_tempo,60,1,0,,,,,,385852,,,,,,
72960,set_tempo,40,1,0,,,,,,373111,,,,,,
72960,note_on,0,0,0,,,,,,,,0,,,58,58
73080,note_on,120,0,0,,,,,,,,0,,,58,0
73080,note_on,0,0,0,,,,,,,,0,,,65,51
73170,note_on,90,0,0,,,,,,,,0,,,65,0
73200,set_tempo,30,1,0,,,,,,362341,,,,,,
73200,note_on,0,0,0,,,,,,,,0,,,74,46
73290,note_on,90,0,0,,,,,,,,0,,,74,0
73320,note_on,30,0,0,,,,,,,,0,,,82,51
73410,note_on,90,0,0,,,,,,,,0,,,82,0
73440,note_on,30,0,0,,,,,,,,0,,,82,58
73560,note_on,120,0,0,,,,,,,,0,,,82,0
73560,note_on,0,0,0,,,,,,,,0,,,74,51
73650,note_on,90,0,0,,,,,,,,0,,,74,0
73680,set_tempo,30,1,0,,,,,,379891,,,,,,
73680,note_on,0,0,0,,,,,,,,0,,,65,45
73770,note_on,90,0,0,,,,,,,,0,,,65,0
73800,note_on,30,0,0,,,,,,,,0,,,58,41
73890,note_on,90,0,0,,,,,,,,0,,,58,0
73920,set_tempo,30,1,0,,,,,,369458,,,,,,
73920,note_on,0,0,0,,,,,,,,0,,,58,58
74040,note_on,120,0,0,,,,,,,,0,,,58,0
74040,note_on,0,0,0,,,,,,,,0,,,65,51
74130,note_on,90,0,0,,,,,,,,0,,,65,0
74160,set_tempo,30,1,0,,,,,,362341,,,,,,
74160,note_on,0,0,0,,,,,,,,0,,,73,46
74250,note_on,90,0,0,,,,,,,,0,,,73,0
74280,note_on,30,0,0,,,,,,,,0,,,82,51
74370,note_on,90,0,0,,,,,,,,0,,,82,0
74400,note_on,30,0,0,,,,,,,,0,,,82,58
74520,note_on,120,0,0,,,,,,,,0,,,82,0
74520,note_on,0,0,0,,,,,,,,0,,,73,51
74610,note_on,90,0,0,,,,,,,,0,,,73,0
74640,set_tempo,30,1,0,,,,,,393056,,,,,,
74640,note_on,0,0,0,,,,,,,,0,,,65,47
74730,note_on,90,0,0,,,,,,,,0,,,65,0
74760,note_on,30,0,0,,,,,,,,0,,,58,43
74850,note_on,90,0,0,,,,,,,,0,,,58,0
74880,set_tempo,30,1,0,,,,,,373111,,,,,,
74880,note_on,0,0,0,,,,,,,,0,,,58,58
75000,note_on,120,0,0,,,,,,,,0,,,58,0
75000,note_on,0,0,0,,,,,,,,0,,,66,51
75090,note_on,90,0,0,,,,,,,,0,,,66,0
75120,set_tempo,30,1,0,,,,,,362341,,,,,,
75120,note_on,0,0,0,,,,,,,,0,,,73,47
75210,note_on,90,0,0,,,,,,,,0,,,73,0
75240,note_on,30,0,0,,,,,,,,0,,,82,51
75330,note_on,90,0,0,,,,,,,,0,,,82,0
75360,note_on,30,0,0,,,,,,,,0,,,82,58
75480,note_on,120,0,0,,,,,,,,0,,,82,0
75480,note_on,0,0,0,,,,,,,,0,,,73,51
75570,note_on,90,0,0,,,,,,,,0,,,73,0
75600,set_tempo,30,1,0,,,,,,379891,,,,,,
75600,note_on,0,0,0,,,,,,,,0,,,66,49
75690,note_on,90,0,0,,,,,,,,0,,,66,0
75720,note_on,30,0,0,,,,,,,,0,,,58,43
75810,note_on,90,0,0,,,,,,,,0,,,58,0
75840,set_tempo,30,1,0,,,,,,369458,,,,,,
75840,note_on,0,0,0,,,,,,,,0,,,58,58
75960,note_on,120,0,0,,,,,,,,0,,,58,0
75960,note_on,0,0,0,,,,,,,,0,,,66,51
76050,note_on,90,0,0,,,,,,,,0,,,66,0
76080,set_tempo,30,1,0,,,,,,362341,,,,,,
76080,note_on,0,0,0,,,,,,,,0,,,76,48
76170,note_on,90,0,0,,,,,,,,0,,,76,0
76200,note_on,30,0,0,,,,,,,,0,,,85,51
76290,note_on,90,0,0,,,,,,,,0,,,85,0
76320,note_on,30,0,0,,,,,,,,0,,,85,58
76440,note_on,120,0,0,,,,,,,,0,,,85,0
76440,note_on,0,0,0,,,,,,,,0,,,76,51
76530,note_on,90,0,0,,,,,,,,0,,,76,0
76560,set_tempo,30,1,0,,,,,,393056,,,,,,
76560,note_on,0,0,0,,,,,,,,0,,,66,46
76650,note_on,90,0,0,,,,,,,,0,,,66,0
76680,note_on,30,0,0,,,,,,,,0,,,58,42
76770,note_on,90,0,0,,,,,,,,0,,,58,0
76800,set_tempo,30,1,0,,,,,,373111,,,,,,
76800,note_on,0,0,0,,,,,,,,0,,,59,60
76920,note_on,120,0,0,,,,,,,,0,,,59,0
76920,note_on,0,0,0,,,,,,,,0,,,66,52
77010,note_on,90,0,0,,,,,,,,0,,,66,0
77040,set_tempo,30,1,0,,,,,,362341,,,,,,
77040,note_on,0,0,0,,,,,,,,0,,,75,49
77130,note_on,90,0,0,,,,,,,,0,,,75,0
77160,note_on,30,0,0,,,,,,,,0,,,83,52
77250,note_on,90,0,0,,,,,,,,0,,,83,0
77280,note_on,30,0,0,,,,,,,,0,,,83,60
77400,note_on,120,0,0,,,,,,,,0,,,83,0
77400,note_on,0,0,0,,,,,,,,0,,,75,53
77490,note_on,90,0,0,,,,,,,,0,,,75,0
77520,set_tempo,30,1,0,,,,,,379891,,,,,,
77520,note_on,0,0,0,,,,,,,,0,,,66,46
77610,note_on,90,0,0,,,,,,,,0,,,66,0
77640,note_on,30,0,0,,,,,,,,0,,,59,43
77730,note_on,90,0,0,,,,,,,,0,,,59,0
77760,set_tempo,30,1,0,,,,,,369458,,,,,,
77760,note_on,0,0,0,,,,,,,,0,,,59,62
77880,note_on,120,0,0,,,,,,,,0,,,59,0
77880,note_on,0,0,0,,,,,,,,0,,,66,54
77970,note_on,90,0,0,,,,,,,,0,,,66,0
78000,set_tempo,30,1,0,,,,,,362341,,,,,,
78000,note_on,0,0,0,,,,,,,,0,,,74,50
78090,note_on,90,0,0,,,,,,,,0,,,74,0
78120,note_on,30,0,0,,,,,,,,0,,,83,55
78210,note_on,90,0,0,,,,,,,,0,,,83,0
78240,note_on,30,0,0,,,,,,,,0,,,83,62
78360,note_on,120,0,0,,,,,,,,0,,,83,0
78360,note_on,0,0,0,,,,,,,,0,,,74,55
78450,note_on,90,0,0,,,,,,,,0,,,74,0
78480,set_tempo,30,1,0,,,,,,393056,,,,,,
78480,note_on,0,0,0,,,,,,,,0,,,66,50
78570,note_on,90,0,0,,,,,,,,0,,,66,0
78600,note_on,30,0,0,,,,,,,,0,,,59,46
78690,note_on,90,0,0,,,,,,,,0,,,59,0
78720,set_tempo,30,1,0,,,,,,373111,,,,,,
78720,note_on,0,0,0,,,,,,,,0,,,59,65
78840,note_on,120,0,0,,,,,,,,0,,,59,0
78840,note_on,0,0,0,,,,,,,,0,,,67,56
78930,note_on,90,0,0,,,,,,,,0,,,67,0
78960,set_tempo,30,1,0,,,,,,362341,,,,,,
78960,note_on,0,0,0,,,,,,,,0,,,74,57
79050,note_on,90,0,0,,,,,,,,0,,,74,0
79080,note_on,30,0,0,,,,,,,,0,,,83,50
79170,note_on,90,0,0,,,,,,,,0,,,83,0
79200,set_tempo,30,1,0,,,,,,356083,,,,,,
79200,note_on,0,0,0,,,,,,,,0,,,83,69
79320,note_on,120,0,0,,,,,,,,0,,,83,0
79320,note_on,0,0,0,,,,,,,,0,,,74,58
79410,note_on,90,0,0,,,,,,,,0,,,74,0
79440,set_tempo,30,1,0,,,,,,379891,,,,,,
79440,note_on,0,0,0,,,,,,,,0,,,67,50
79530,note_on,90,0,0,,,,,,,,0,,,67,0
79560,note_on,30,0,0,,,,,,,,0,,,59,46
79650,note_on,90,0,0,,,,,,,,0,,,59,0
79680,set_tempo,30,1,0,,,,,,369458,,,,,,
79680,note_on,0,0,0,,,,,,,,0,,,59,67
79800,note_on,120,0,0,,,,,,,,0,,,59,0
79800,note_on,0,0,0,,,,,,,,0,,,67,59
79890,note_on,90,0,0,,,,,,,,0,,,67,0
79920,set_tempo,30,1,0,,,,,,362341,,,,,,
79920,note_on,0,0,0,,,,,,,,0,,,77,53
80010,note_on,90,0,0,,,,,,,,0,,,77,0
80040,note_on,30,0,0,,,,,,,,0,,,86,59
80130,note_on,90,0,0,,,,,,,,0,,,86,0
80160,set_tempo,30,1,0,,,,,,356083,,,,,,
80160,note_on,0,0,0,,,,,,,,0,,,86,70
80280,note_on,120,0,0,,,,,,,,0,,,86,0
80280,note_on,0,0,0,,,,,,,,0,,,77,59
80370,note_on,90,0,0,,,,,,,,0,,,77,0
80400,set_tempo,30,1,0,,,,,,393056,,,,,,
80400,note_on,0,0,0,,,,,,,,0,,,67,53
80490,note_on,90,0,0,,,,,,,,0,,,67,0
80520,note_on,30,0,0,,,,,,,,0,,,59,48
80610,note_on,90,0,0,,,,,,,,0,,,59,0
80640,set_tempo,30,1,0,,,,,,373111,,,,,,
80640,note_on,0,0,0,,,,,,,,0,,,60,69
80760,note_on,120,0,0,,,,,,,,0,,,60,0
80760,note_on,0,0,0,,,,,,,,0,,,67,60
80850,note_on,90,0,0,,,,,,,,0,,,67,0
80880,set_tempo,30,1,0,,,,,,357143,,,,,,
80880,note_on,0,0,0,,,,,,,,0,,,76,60
80970,note_on,90,0,0,,,,,,,,0,,,76,0
81000,note_on,30,0,0,,,,,,,,0,,,84,56
81090,note_on,90,0,0,,,,,,,,0,,,84,0
81120,set_tempo,30,1,0,,,,,,361446,,,,,,
81120,note_on,0,0,0,,,,,,,,0,,,84,71
81240,note_on,120,0,0,,,,,,,,0,,,84,0
81240,note_on,0,0,0,,,,,,,,0,,,76,62
81330,note_on,90,0,0,,,,,,,,0,,,76,0
81360,set_tempo,30,1,0,,,,,,379891,,,,,,
81360,note_on,0,0,0,,,,,,,,0,,,67,55
81450,note_on,90,0,0,,,,,,,,0,,,67,0
81480,note_on,30,0,0,,,,,,,,0,,,60,50
81570,note_on,90,0,0,,,,,,,,0,,,60,0
81600,set_tempo,30,1,0,,,,,,369458,,,,,,
81600,note_on,0,0,0,,,,,,,,0,,,60,72
81720,note_on,120,0,0,,,,,,,,0,,,60,0
81720,note_on,0,0,0,,,,,,,,0,,,67,63
81810,note_on,90,0,0,,,,,,,,0,,,67,0
81840,set_tempo,30,1,0,,,,,,357143,,,,,,
81840,note_on,0,0,0,,,,,,,,0,,,75,63
81930,note_on,90,0,0,,,,,,,,0,,,75,0
81960,note_on,30,0,0,,,,,,,,0,,,84,58
82050,note_on,90,0,0,,,,,,,,0,,,84,0
82080,set_tempo,30,1,0,,,,,,362538,,,,,,
82080,note_on,0,0,0,,,,,,,,0,,,84,73
82200,note_on,120,0,0,,,,,,,,0,,,84,0
82200,note_on,0,0,0,,,,,,,,0,,,75,64
82290,note_on,90,0,0,,,,,,,,0,,,75,0
82320,set_tempo,30,1,0,,,,,,393056,,,,,,
82320,note_on,0,0,0,,,,,,,,0,,,67,61
82410,note_on,90,0,0,,,,,,,,0,,,67,0
82440,note_on,30,0,0,,,,,,,,0,,,60,56
82530,note_on,90,0,0,,,,,,,,0,,,60,0
82560,set_tempo,30,1,0,,,,,,373111,,,,,,
82560,note_on,0,0,0,,,,,,,,0,,,60,74
82680,note_on,120,0,0,,,,,,,,0,,,60,0
82680,note_on,0,0,0,,,,,,,,0,,,68,64
82770,note_on,90,0,0,,,,,,,,0,,,68,0
82800,set_tempo,30,1,0,,,,,,362341,,,,,,
82800,note_on,0,0,0,,,,,,,,0,,,75,58
82890,note_on,90,0,0,,,,,,,,0,,,75,0
82920,note_on,30,0,0,,,,,,,,0,,,84,66
83010,note_on,90,0,0,,,,,,,,0,,,84,0
83040,note_on,30,0,0,,,,,,,,0,,,84,76
83160,note_on,120,0,0,,,,,,,,0,,,84,0
83160,note_on,0,0,0,,,,,,,,0,,,75,66
83250,note_on,90,0,0,,,,,,,,0,,,75,0
83280,set_tempo,30,1,0,,,,,,379891,,,,,,
83280,note_on,0,0,0,,,,,,,,0,,,68,62
83370,note_on,90,0,0,,,,,,,,0,,,68,0
83400,note_on,30,0,0,,,,,,,,0,,,60,56
83490,note_on,90,0,0,,,,,,,,0,,,60,0
83520,set_tempo,30,1,0,,,,,,374345,,,,,,
83520,note_on,0,0,0,,,,,,,,0,,,60,77
83580,note_on,60,0,0,,,,,,,,0,,,60,0
83640,note_on,60,0,0,,,,,,,,0,,,68,68
83657,control_change,17,0,0,,,,,,,,0,64,127,,
83730,note_on,73,0,0,,,,,,,,0,,,68,0
83760,set_tempo,30,1,0,,,,,,367062,,,,,,
83760,note_on,0,0,0,,,,,,,,0,,,78,63
83850,note_on,90,0,0,,,,,,,,0,,,78,0
83880,note_on,30,0,0,,,,,,,,0,,,87,69
83970,note_on,90,0,0,,,,,,,,0,,,87,0
84000,set_tempo,30,1,0,,,,,,400909,,,,,,
84000,note_on,0,0,0,,,,,,,,0,,,87,78
84060,note_on,60,0,0,,,,,,,,0,,,87,0
84120,note_on,60,0,0,,,,,,,,0,,,78,69
84210,note_on,90,0,0,,,,,,,,0,,,78,0
84240,set_tempo,30,1,0,,,,,,573888,,,,,,
84240,note_on,0,0,0,,,,,,,,0,,,68,61
84330,note_on,90,0,0,,,,,,,,0,,,68,0
84360,note_on,30,0,0,,,,,,,,0,,,60,51
84450,note_on,90,0,0,,,,,,,,0,,,60,0
84480,set_tempo,30,1,0,,,,,,354400,,,,,,
84540,control_change,60,0,0,,,,,,,,0,64,0,,
85440,set_tempo,900,1,0,,,,,,369458,,,,,,
85440,note_on,0,0,0,,,,,,,,0,,,61,58
85560,note_on,120,0,0,,,,,,,,0,,,61,0
85560,note_on,0,0,0,,,,,,,,0,,,65,51
85650,note_on,90,0,0,,,,,,,,0,,,65,0
85680,set_tempo,30,1,0,,,,,,362341,,,,,,
85680,note_on,0,0,0,,,,,,,,0,,,68,51
85770,note_on,90,0,0,,,,,,,,0,,,68,0
85800,note_on,30,0,0,,,,,,,,0,,,77,45
85800,note_on,0,0,0,,,,,,,,0,,,73,45
85890,note_on,90,0,0,,,,,,,,0,,,73,0
85890,note_on,0,0,0,,,,,,,,0,,,77,0
85920,note_on,30,0,0,,,,,,,,0,,,77,61
85920,note_on,0,0,0,,,,,,,,0,,,73,61
85980,note_on,60,0,0,,,,,,,,0,,,73,0
85980,note_on,0,0,0,,,,,,,,0,,,77,0
86040,note_on,60,0,0,,,,,,,,0,,,68,51
86130,note_on,90,0,0,,,,,,,,0,,,68,0
86160,set_tempo,30,1,0,,,,,,393056,,,,,,
86160,note_on,0,0,0,,,,,,,,0,,,65,45
86250,note_on,90,0,0,,,,,,,,0,,,65,0
86280,note_on,30,0,0,,,,,,,,0,,,61,40
86370,note_on,90,0,0,,,,,,,,0,,,61,0
86400,set_tempo,30,1,0,,,,,,373111,,,,,,
86400,note_on,0,0,0,,,,,,,,0,,,60,58
86520,note_on,120,0,0,,,,,,,,0,,,60,0
86520,note_on,0,0,0,,,,,,,,0,,,63,51
86610,note_on,90,0,0,,,,,,,,0,,,63,0
86640,set_tempo,30,1,0,,,,,,362341,,,,,,
86640,note_on,0,0,0,,,,,,,,0,,,68,51
86730,note_on,90,0,0,,,,,,,,0,,,68,0
86760,note_on,30,0,0,,,,,,,,0,,,75,45
86760,note_on,0,0,0,,,,,,,,0,,,78,45
86850,note_on,90,0,0,,,,,,,,0,,,78,0
86850,note_on,0,0,0,,,,,,,,0,,,75,0
86880,note_on,30,0,0,,,,,,,,0,,,78,62
86880,note_on,0,0,0,,,,,,,,0,,,75,62
86940,note_on,60,0,0,,,,,,,,0,,,75,0
86940,note_on,0,0,0,,,,,,,,0,,,78,0
87000,note_on,60,0,0,,,,,,,,0,,,68,51
87090,note_on,90,0,0,,,,,,,,0,,,68,0
87120,set_tempo,30,1,0,,,,,,379891,,,,,,
87120,note_on,0,0,0,,,,,,,,0,,,63,44
87210,note_on,90,0,0,,,,,,,,0,,,63,0
87240,note_on,30,0,0,,,,,,,,0,,,60,39
87330,note_on,90,0,0,,,,,,,,0,,,60,0
87360,set_tempo,30,1,0,,,,,,369458,,,,,,
87360,note_on,0,0,0,,,,,,,,0,,,61,58
87480,note_on,120,0,0,,,,,,,,0,,,61,0
87480,note_on,0,0,0,,,,,,,,0,,,65,51
87570,note_on,90,0,0,,,,,,,,0,,,65,0
87600,set_tempo,30,1,0,,,,,,357143,,,,,,
87600,note_on,0,0,0,,,,,,,,0,,,68,51
87690,note_on,90,0,0,,,,,,,,0,,,68,0
87720,note_on,30,0,0,,,,,,,,0,,,77,46
87720,note_on,0,0,0,,,,,,,,0,,,73,46
87810,note_on,90,0,0,,,,,,,,0,,,73,0
87810,note_on,0,0,0,,,,,,,,0,,,77,0
87840,note_on,30,0,0,,,,,,,,0,,,77,58
87840,note_on,0,0,0,,,,,,,,0,,,73,49
87900,note_on,60,0,0,,,,,,,,0,,,73,0
87900,note_on,0,0,0,,,,,,,,0,,,77,0
87960,note_on,60,0,0,,,,,,,,0,,,68,51
88050,note_on,90,0,0,,,,,,,,0,,,68,0
88080,set_tempo,30,1,0,,,,,,413879,,,,,,
88080,note_on,0,0,0,,,,,,,,0,,,65,45
88170,note_on,90,0,0,,,,,,,,0,,,65,0
88200,note_on,30,0,0,,,,,,,,0,,,61,42
88290,note_on,90,0,0,,,,,,,,0,,,61,0
88320,set_tempo,30,1,0,,,,,,394815,,,,,,
88320,note_on,0,0,0,,,,,,,,0,,,56,58
88440,note_on,120,0,0,,,,,,,,0,,,56,0
88440,note_on,0,0,0,,,,,,,,0,,,63,51
88530,note_on,90,0,0,,,,,,,,0,,,63,0
88560,set_tempo,30,1,0,,,,,,378621,,,,,,
88560,note_on,0,0,0,,,,,,,,0,,,68,51
88650,note_on,90,0,0,,,,,,,,0,,,68,0
88680,note_on,30,0,0,,,,,,,,0,,,72,46
88680,note_on,0,0,0,,,,,,,,0,,,80,46
88770,note_on,90,0,0,,,,,,,,0,,,80,0
88770,note_on,0,0,0,,,,,,,,0,,,72,0
88800,note_on,30,0,0,,,,,,,,0,,,72,49
88800,note_on,0,0,0,,,,,,,,0,,,80,58
88860,note_on,60,0,0,,,,,,,,0,,,80,0
88860,note_on,0,0,0,,,,,,,,0,,,72,0
88920,note_on,60,0,0,,,,,,,,0,,,68,51
89010,note_on,90,0,0,,,,,,,,0,,,68,0
89040,set_tempo,30,1,0,,,,,,387172,,,,,,
89040,note_on,0,0,0,,,,,,,,0,,,63,45
89130,note_on,90,0,0,,,,,,,,0,,,63,0
89160,note_on,30,0,0,,,,,,,,0,,,56,40
89250,note_on,90,0,0,,,,,,,,0,,,56,0
89280,set_tempo,30,1,0,,,,,,375070,,,,,,
89280,note_on,0,0,0,,,,,,,,0,,,61,49
89400,note_on,120,0,0,,,,,,,,0,,,61,0
89400,note_on,0,0,0,,,,,,,,0,,,64,43
89490,note_on,90,0,0,,,,,,,,0,,,64,0
89520,set_tempo,30,1,0,,,,,,367040,,,,,,
89520,note_on,0,0,0,,,,,,,,0,,,68,43
89610,note_on,90,0,0,,,,,,,,0,,,68,0
89640,note_on,30,0,0,,,,,,,,0,,,76,39
89640,note_on,0,0,0,,,,,,,,0,,,73,39
89730,note_on,90,0,0,,,,,,,,0,,,73,0
89730,note_on,0,0,0,,,,,,,,0,,,76,0
89760,note_on,30,0,0,,,,,,,,0,,,76,49
89760,note_on,0,0,0,,,,,,,,0,,,73,41
89820,note_on,60,0,0,,,,,,,,0,,,73,0
89820,note_on,0,0,0,,,,,,,,0,,,76,0
89880,note_on,60,0,0,,,,,,,,0,,,68,43
89970,note_on,90,0,0,,,,,,,,0,,,68,0
90000,set_tempo,30,1,0,,,,,,393056,,,,,,
90000,note_on,0,0,0,,,,,,,,0,,,64,37
90090,note_on,90,0,0,,,,,,,,0,,,64,0
90120,note_on,30,0,0,,,,,,,,0,,,61,33
90210,note_on,90,0,0,,,,,,,,0,,,61,0
90240,set_tempo,30,1,0,,,,,,373111,,,,,,
90240,note_on,0,0,0,,,,,,,,0,,,60,49
90360,note_on,120,0,0,,,,,,,,0,,,60,0
90360,note_on,0,0,0,,,,,,,,0,,,63,43
90450,note_on,90,0,0,,,,,,,,0,,,63,0
90480,set_tempo,30,1,0,,,,,,362341,,,,,,
90480,note_on,0,0,0,,,,,,,,0,,,68,43
90570,note_on,90,0,0,,,,,,,,0,,,68,0
90600,note_on,30,0,0,,,,,,,,0,,,75,39
90600,note_on,0,0,0,,,,,,,,0,,,78,39
90690,note_on,90,0,0,,,,,,,,0,,,78,0
90690,note_on,0,0,0,,,,,,,,0,,,75,0
90720,note_on,30,0,0,,,,,,,,0,,,75,41
90720,note_on,0,0,0,,,,,,,,0,,,78,49
90780,note_on,60,0,0,,,,,,,,0,,,78,0
90780,note_on,0,0,0,,,,,,,,0,,,75,0
90840,note_on,60,0,0,,,,,,,,0,,,68,43
90930,note_on,90,0,0,,,,,,,,0,,,68,0
90960,set_tempo,30,1,0,,,,,,379891,,,,,,
90960,note_on,0,0,0,,,,,,,,0,,,63,39
91050,note_on,90,0,0,,,,,,,,0,,,63,0
91080,note_on,30,0,0,,,,,,,,0,,,60,37
91170,note_on,90,0,0,,,,,,,,0,,,60,0
91200,set_tempo,30,1,0,,,,,,369458,,,,,,
91200,note_on,0,0,0,,,,,,,,0,,,61,49
91320,note_on,120,0,0,,,,,,,,0,,,61,0
91320,note_on,0,0,0,,,,,,,,0,,,64,43
91410,note_on,90,0,0,,,,,,,,0,,,64,0
91440,set_tempo,30,1,0,,,,,,356083,,,,,,
91440,note_on,0,0,0,,,,,,,,0,,,68,43
91530,note_on,90,0,0,,,,,,,,0,,,68,0
91560,note_on,30,0,0,,,,,,,,0,,,76,38
91560,note_on,0,0,0,,,,,,,,0,,,73,38
91650,note_on,90,0,0,,,,,,,,0,,,73,0
91650,note_on,0,0,0,,,,,,,,0,,,76,0
91680,note_on,30,0,0,,,,,,,,0,,,76,49
91680,note_on,0,0,0,,,,,,,,0,,,73,41
91740,note_on,60,0,0,,,,,,,,0,,,73,0
91740,note_on,0,0,0,,,,,,,,0,,,76,0
91800,note_on,60,0,0,,,,,,,,0,,,68,43
91890,note_on,90,0,0,,,,,,,,0,,,68,0
91920,set_tempo,30,1,0,,,,,,393056,,,,,,
91920,note_on,0,0,0,,,,,,,,0,,,64,38
92010,note_on,90,0,0,,,,,,,,0,,,64,0
92040,note_on,30,0,0,,,,,,,,0,,,61,35
92130,note_on,90,0,0,,,,,,,,0,,,61,0
92160,set_tempo,30,1,0,,,,,,373111,,,,,,
92160,note_on,0,0,0,,,,,,,,0,,,56,49
92280,note_on,120,0,0,,,,,,,,0,,,56,0
92280,note_on,0,0,0,,,,,,,,0,,,63,43
92370,note_on,90,0,0,,,,,,,,0,,,63,0
92400,set_tempo,30,1,0,,,,,,362341,,,,,,
92400,note_on,0,0,0,,,,,,,,0,,,68,43
92490,note_on,90,0,0,,,,,,,,0,,,68,0
92520,note_on,30,0,0,,,,,,,,0,,,72,40
92520,note_on,0,0,0,,,,,,,,0,,,80,40
92610,note_on,90,0,0,,,,,,,,0,,,80,0
92610,note_on,0,0,0,,,,,,,,0,,,72,0
92640,set_tempo,30,1,0,,,,,,378621,,,,,,
92640,note_on,0,0,0,,,,,,,,0,,,72,41
92640,note_on,0,0,0,,,,,,,,0,,,80,49
92700,note_on,60,0,0,,,,,,,,0,,,80,0
92700,note_on,0,0,0,,,,,,,,0,,,72,0
92760,note_on,60,0,0,,,,,,,,0,,,68,43
92850,note_on,90,0,0,,,,,,,,0,,,68,0
92880,set_tempo,30,1,0,,,,,,379891,,,,,,
92880,note_on,0,0,0,,,,,,,,0,,,63,39
92970,note_on,90,0,0,,,,,,,,0,,,63,0
93000,note_on,30,0,0,,,,,,,,0,,,56,35
93090,note_on,90,0,0,,,,,,,,0,,,56,0
93120,set_tempo,30,1,0,,,,,,369458,,,,,,
93120,note_on,0,0,0,,,,,,,,0,,,61,49
93240,note_on,120,0,0,,,,,,,,0,,,61,0
93240,note_on,0,0,0,,,,,,,,0,,,64,43
93330,note_on,90,0,0,,,,,,,,0,,,64,0
93360,set_tempo,30,1,0,,,,,,362341,,,,,,
93360,note_on,0,0,0,,,,,,,,0,,,68,43
93450,note_on,90,0,0,,,,,,,,0,,,68,0
93480,note_on,30,0,0,,,,,,,,0,,,76,41
93480,note_on,0,0,0,,,,,,,,0,,,73,41
93570,note_on,90,0,0,,,,,,,,0,,,73,0
93570,note_on,0,0,0,,,,,,,,0,,,76,0
93600,note_on,30,0,0,,,,,,,,0,,,76,50
93600,note_on,0,0,0,,,,,,,,0,,,73,43
93660,note_on,60,0,0,,,,,,,,0,,,73,0
93660,note_on,0,0,0,,,,,,,,0,,,76,0
93720,note_on,60,0,0,,,,,,,,0,,,68,45
93810,note_on,90,0,0,,,,,,,,0,,,68,0
93840,set_tempo,30,1,0,,,,,,393056,,,,,,
93840,note_on,0,0,0,,,,,,,,0,,,64,42
93930,note_on,90,0,0,,,,,,,,0,,,64,0
93960,note_on,30,0,0,,,,,,,,0,,,61,41
94050,note_on,90,0,0,,,,,,,,0,,,61,0
94080,set_tempo,30,1,0,,,,,,373111,,,,,,
94080,note_on,0,0,0,,,,,,,,0,,,59,54
94200,note_on,120,0,0,,,,,,,,0,,,59,0
94200,note_on,0,0,0,,,,,,,,0,,,64,48
94290,note_on,90,0,0,,,,,,,,0,,,64,0
94320,set_tempo,30,1,0,,,,,,362341,,,,,,
94320,note_on,0,0,0,,,,,,,,0,,,68,49
94410,note_on,90,0,0,,,,,,,,0,,,68,0
94440,note_on,30,0,0,,,,,,,,0,,,76,50
94440,note_on,0,0,0,,,,,,,,0,,,74,41
94530,note_on,90,0,0,,,,,,,,0,,,74,0
94530,note_on,0,0,0,,,,,,,,0,,,76,0
94560,note_on,30,0,0,,,,,,,,0,,,74,49
94560,note_on,0,0,0,,,,,,,,0,,,76,58
94620,note_on,60,0,0,,,,,,,,0,,,76,0
94620,note_on,0,0,0,,,,,,,,0,,,74,0
94680,note_on,60,0,0,,,,,,,,0,,,68,52
94770,note_on,90,0,0,,,,,,,,0,,,68,0
94800,set_tempo,30,1,0,,,,,,379891,,,,,,
94800,note_on,0,0,0,,,,,,,,0,,,64,50
94890,note_on,90,0,0,,,,,,,,0,,,64,0
94920,note_on,30,0,0,,,,,,,,0,,,59,46
95010,note_on,90,0,0,,,,,,,,0,,,59,0
95040,set_tempo,30,1,0,,,,,,369458,,,,,,
95040,note_on,0,0,0,,,,,,,,0,,,57,62
95160,note_on,120,0,0,,,,,,,,0,,,57,0
95160,note_on,0,0,0,,,,,,,,0,,,64,56
95250,note_on,90,0,0,,,,,,,,0,,,64,0
95280,set_tempo,30,1,0,,,,,,362341,,,,,,
95280,note_on,0,0,0,,,,,,,,0,,,69,56
95370,note_on,90,0,0,,,,,,,,0,,,69,0
95400,note_on,30,0,0,,,,,,,,0,,,73,47
95400,note_on,0,0,0,,,,,,,,0,,,81,57
95490,note_on,90,0,0,,,,,,,,0,,,81,0
95490,note_on,0,0,0,,,,,,,,0,,,73,0
95520,note_on,30,0,0,,,,,,,,0,,,81,66
95520,note_on,0,0,0,,,,,,,,0,,,73,56
95580,note_on,60,0,0,,,,,,,,0,,,73,0
95580,note_on,0,0,0,,,,,,,,0,,,81,0
95640,note_on,60,0,0,,,,,,,,0,,,69,59
95730,note_on,90,0,0,,,,,,,,0,,,69,0
95760,set_tempo,30,1,0,,,,,,393056,,,,,,
95760,note_on,0,0,0,,,,,,,,0,,,64,55
95850,note_on,90,0,0,,,,,,,,0,,,64,0
95880,note_on,30,0,0,,,,,,,,0,,,57,50
95970,note_on,90,0,0,,,,,,,,0,,,57,0
96000,set_tempo,30,1,0,,,,,,373111,,,,,,
96000,note_on,0,0,0,,,,,,,,0,,,58,69
96120,note_on,120,0,0,,,,,,,,0,,,58,0
96120,note_on,0,0,0,,,,,,,,0,,,67,62
96210,note_on,90,0,0,,,,,,,,0,,,67,0
96240,set_tempo,30,1,0,,,,,,362341,,,,,,
96240,note_on,0,0,0,,,,,,,,0,,,73,63
96330,note_on,90,0,0,,,,,,,,0,,,73,0
96360,note_on,30,0,0,,,,,,,,0,,,85,64
96360,note_on,0,0,0,,,,,,,,0,,,76,54
96450,note_on,90,0,0,,,,,,,,0,,,76,0
96450,note_on,0,0,0,,,,,,,,0,,,85,0
96480,note_on,30,0,0,,,,,,,,0,,,76,62
96480,note_on,0,0,0,,,,,,,,0,,,85,74
96540,note_on,60,0,0,,,,,,,,0,,,85,0
96540,note_on,0,0,0,,,,,,,,0,,,76,0
96600,note_on,60,0,0,,,,,,,,0,,,73,67
96690,note_on,90,0,0,,,,,,,,0,,,73,0
96720,set_tempo,30,1,0,,,,,,379891,,,,,,
96720,note_on,0,0,0,,,,,,,,0,,,67,62
96810,note_on,90,0,0,,,,,,,,0,,,67,0
96840,note_on,30,0,0,,,,,,,,0,,,58,58
96930,note_on,90,0,0,,,,,,,,0,,,58,0
96960,set_tempo,30,1,0,,,,,,381922,,,,,,
96960,note_on,0,0,0,,,,,,,,0,,,59,78
96983,control_change,23,0,0,,,,,,,,0,64,127,,
97020,note_on,37,0,0,,,,,,,,0,,,59,0
97083,control_change,63,0,0,,,,,,,,0,64,0,,
97200,set_tempo,117,1,0,,,,,,399467,,,,,,
97200,note_on,0,0,0,,,,,,,,0,,,83,65
97200,note_on,0,0,0,,,,,,,,0,,,75,54
97200,note_on,0,0,0,,,,,,,,0,,,71,54
97200,note_on,0,0,0,,,,,,,,0,,,63,45
97200,note_on,0,0,0,,,,,,,,0,,,66,45
97220,control_change,20,0,0,,,,,,,,0,64,127,,
97260,note_on,40,0,0,,,,,,,,0,,,66,0
97260,note_on,0,0,0,,,,,,,,0,,,71,0
97260,note_on,0,0,0,,,,,,,,0,,,83,0
97260,note_on,0,0,0,,,,,,,,0,,,75,0
97260,note_on,0,0,0,,,,,,,,0,,,63,0
97274,control_change,14,0,0,,,,,,,,0,64,0,,
97440,set_tempo,166,1,0,,,,,,381679,,,,,,
97440,note_on,0,0,0,,,,,,,,0,,,57,82
97454,control_change,14,0,0,,,,,,,,0,64,127,,
97500,note_on,46,0,0,,,,,,,,0,,,57,0
97560,control_change,60,0,0,,,,,,,,0,64,0,,
97680,set_tempo,120,1,0,,,,,,401633,,,,,,
97680,note_on,0,0,0,,,,,,,,0,,,83,65
97680,note_on,0,0,0,,,,,,,,0,,,78,54
97680,note_on,0,0,0,,,,,,,,0,,,75,54
97680,note_on,0,0,0,,,,,,,,0,,,71,54
97680,note_on,0,0,0,,,,,,,,0,,,66,45
97680,note_on,0,0,0,,,,,,,,0,,,63,45
97714,control_change,34,0,0,,,,,,,,0,64,127,,
97740,note_on,26,0,0,,,,,,,,0,,,63,0
97740,note_on,0,0,0,,,,,,,,0,,,78,0
97740,note_on,0,0,0,,,,,,,,0,,,75,0
97740,note_on,0,0,0,,,,,,,,0,,,83,0
97740,note_on,0,0,0,,,,,,,,0,,,66,0
97740,note_on,0,0,0,,,,,,,,0,,,71,0
97783,control_change,43,0,0,,,,,,,,0,64,0,,
97920,set_tempo,137,1,0,,,,,,380373,,,,,,
97920,note_on,0,0,0,,,,,,,,0,,,56,81
97943,control_change,23,0,0,,,,,,,,0,64,127,,
97980,note_on,37,0,0,,,,,,,,0,,,56,0
98037,control_change,57,0,0,,,,,,,,0,64,0,,
98160,set_tempo,123,1,0,,,,,,400133,,,,,,
98160,note_on,0,0,0,,,,,,,,0,,,80,65
98160,note_on,0,0,0,,,,,,,,0,,,76,54
98160,note_on,0,0,0,,,,,,,,0,,,71,54
98160,note_on,0,0,0,,,,,,,,0,,,68,54
98160,note_on,0,0,0,,,,,,,,0,,,64,45
98160,note_on,0,0,0,,,,,,,,0,,,59,45
98191,control_change,31,0,0,,,,,,,,0,64,127,,
98220,note_on,29,0,0,,,,,,,,0,,,59,0
98220,note_on,0,0,0,,,,,,,,0,,,76,0
98220,note_on,0,0,0,,,,,,,,0,,,71,0
98220,note_on,0,0,0,,,,,,,,0,,,80,0
98220,note_on,0,0,0,,,,,,,,0,,,64,0
98220,note_on,0,0,0,,,,,,,,0,,,68,0
98266,control_change,46,0,0,,,,,,,,0,64,0,,
98400,set_tempo,134,1,0,,,,,,372671,,,,,,
98400,note_on,0,0,0,,,,,,,,0,,,57,81
98420,control_change,20,0,0,,,,,,,,0,64,127,,
98460,note_on,40,0,0,,,,,,,,0,,,57,0
98509,control_change,49,0,0,,,,,,,,0,64,0,,
98640,set_tempo,131,1,0,,,,,,413793,,,,,,
98640,note_on,0,0,0,,,,,,,,0,,,81,65
98640,note_on,0,0,0,,,,,,,,0,,,76,54
98640,note_on,0,0,0,,,,,,,,0,,,73,54
98640,note_on,0,0,0,,,,,,,,0,,,69,54
98640,note_on,0,0,0,,,,,,,,0,,,64,45
98640,note_on,0,0,0,,,,,,,,0,,,61,45
98660,control_change,20,0,0,,,,,,,,0,64,127,,
98700,note_on,40,0,0,,,,,,,,0,,,61,0
98700,note_on,0,0,0,,,,,,,,0,,,76,0
98700,note_on,0,0,0,,,,,,,,0,,,73,0
98700,note_on,0,0,0,,,,,,,,0,,,81,0
98700,note_on,0,0,0,,,,,,,,0,,,64,0
98700,note_on,0,0,0,,,,,,,,0,,,69,0
98754,control_change,54,0,0,,,,,,,,0,64,0,,
98880,set_tempo,126,1,0,,,,,,380373,,,,,,
98880,note_on,0,0,0,,,,,,,,0,,,59,80
98903,control_change,23,0,0,,,,,,,,0,64,127,,
98940,note_on,37,0,0,,,,,,,,0,,,59,0
99000,control_change,60,0,0,,,,,,,,0,64,0,,
99120,set_tempo,120,1,0,,,,,,400133,,,,,,
99120,note_on,0,0,0,,,,,,,,0,,,83,65
99120,note_on,0,0,0,,,,,,,,0,,,80,54
99120,note_on,0,0,0,,,,,,,,0,,,76,54
99120,note_on,0,0,0,,,,,,,,0,,,71,54
99120,note_on,0,0,0,,,,,,,,0,,,68,45
99120,note_on,0,0,0,,,,,,,,0,,,64,45
99137,control_change,17,0,0,,,,,,,,0,64,127,,
99180,note_on,43,0,0,,,,,,,,0,,,64,0
99180,note_on,0,0,0,,,,,,,,0,,,80,0
99180,note_on,0,0,0,,,,,,,,0,,,76,0
99180,note_on,0,0,0,,,,,,,,0,,,83,0
99180,note_on,0,0,0,,,,,,,,0,,,68,0
99180,note_on,0,0,0,,,,,,,,0,,,71,0
99231,control_change,51,0,0,,,,,,,,0,64,0,,
99360,set_tempo,129,1,0,,,,,,381679,,,,,,
99360,note_on,0,0,0,,,,,,,,0,,,59,81
99380,control_change,20,0,0,,,,,,,,0,64,127,,
99420,note_on,40,0,0,,,,,,,,0,,,59,0
99431,control_change,11,0,0,,,,,,,,0,64,0,,
99600,set_tempo,169,1,0,,,,,,395726,,,,,,
99600,note_on,0,0,0,,,,,,,,0,,,83,65
99600,note_on,0,0,0,,,,,,,,0,,,78,54
99600,note_on,0,0,0,,,,,,,,0,,,75,54
99600,note_on,0,0,0,,,,,,,,0,,,71,54
99600,note_on,0,0,0,,,,,,,,0,,,66,45
99600,note_on,0,0,0,,,,,,,,0,,,63,45
99626,control_change,26,0,0,,,,,,,,0,64,127,,
99660,note_on,34,0,0,,,,,,,,0,,,63,0
99660,note_on,0,0,0,,,,,,,,0,,,78,0
99660,note_on,0,0,0,,,,,,,,0,,,75,0
99660,note_on,0,0,0,,,,,,,,0,,,83,0
99660,note_on,0,0,0,,,,,,,,0,,,66,0
99660,note_on,0,0,0,,,,,,,,0,,,71,0
99743,control_change,83,0,0,,,,,,,,0,64,0,,
99840,key_signature,97,1,0,,,,,E,,,,,,,
99840,set_tempo,0,1,0,,,,,,406669,,,,,,
99840,note_on,0,0,0,,,,,,,,0,,,64,81
99896,control_change,56,0,0,,,,,,,,0,64,127,,
100320,note_on,424,0,0,,,,,,,,0,,,64,0
100320,note_on,0,0,0,,,,,,,,0,,,88,79
100320,note_on,0,0,0,,,,,,,,0,,,83,66
100320,note_on,0,0,0,,,,,,,,0,,,80,66
100320,note_on,0,0,0,,,,,,,,0,,,76,66
100320,note_on,0,0,0,,,,,,,,0,,,71,55
100320,note_on,0,0,0,,,,,,,,0,,,68,55
100380,note_on,60,0,0,,,,,,,,0,,,68,0
100380,note_on,0,0,0,,,,,,,,0,,,83,0
100380,note_on,0,0,0,,,,,,,,0,,,80,0
100380,note_on,0,0,0,,,,,,,,0,,,88,0
100380,note_on,0,0,0,,,,,,,,0,,,71,0
100380,note_on,0,0,0,,,,,,,,0,,,76,0
100381,set_tempo,1,1,0,,,,,,434814,,,,,,
100398,control_change,17,0,0,,,,,,,,0,64,0,,
100800,set_tempo,402,1,0,,,,,,372578,,,,,,
100800,note_on,0,0,0,,,,,,,,0,,,64,58
100860,note_on,60,0,0,,,,,,,,0,,,64,0
100920,note_on,60,0,0,,,,,,,,0,,,68,51
101010,note_on,90,0,0,,,,,,,,0,,,68,0
101040,set_tempo,30,1,0,,,,,,361446,,,,,,
101040,note_on,0,0,0,,,,,,,,0,,,71,51
101130,note_on,90,0,0,,,,,,,,0,,,71,0
101160,note_on,30,0,0,,,,,,,,0,,,76,48
101250,note_on,90,0,0,,,,,,,,0,,,76,0
101280,note_on,30,0,0,,,,,,,,0,,,76,58
101340,note_on,60,0,0,,,,,,,,0,,,76,0
101400,note_on,60,0,0,,,,,,,,0,,,71,51
101490,note_on,90,0,0,,,,,,,,0,,,71,0
101520,set_tempo,30,1,0,,,,,,386026,,,,,,
101520,note_on,0,0,0,,,,,,,,0,,,68,48
101610,note_on,90,0,0,,,,,,,,0,,,68,0
101640,note_on,30,0,0,,,,,,,,0,,,64,42
101730,note_on,90,0,0,,,,,,,,0,,,64,0
101760,set_tempo,30,1,0,,,,,,371517,,,,,,
101760,note_on,0,0,0,,,,,,,,0,,,64,58
101820,note_on,60,0,0,,,,,,,,0,,,64,0
101880,note_on,60,0,0,,,,,,,,0,,,69,51
101970,note_on,90,0,0,,,,,,,,0,,,69,0
102000,set_tempo,30,1,0,,,,,,359281,,,,,,
102000,note_on,0,0,0,,,,,,,,0,,,72,51
102090,note_on,90,0,0,,,,,,,,0,,,72,0
102120,note_on,30,0,0,,,,,,,,0,,,76,46
102210,note_on,90,0,0,,,,,,,,0,,,76,0
102240,note_on,30,0,0,,,,,,,,0,,,76,58
102300,note_on,60,0,0,,,,,,,,0,,,76,0
102360,note_on,60,0,0,,,,,,,,0,,,72,51
102450,note_on,90,0,0,,,,,,,,0,,,72,0
102480,set_tempo,30,1,0,,,,,,373088,,,,,,
102480,note_on,0,0,0,,,,,,,,0,,,69,44
102570,note_on,90,0,0,,,,,,,,0,,,69,0
102600,note_on,30,0,0,,,,,,,,0,,,64,42
102690,note_on,90,0,0,,,,,,,,0,,,64,0
102720,set_tempo,30,1,0,,,,,,369231,,,,,,
102720,note_on,0,0,0,,,,,,,,0,,,64,58
102780,note_on,60,0,0,,,,,,,,0,,,64,0
102840,note_on,60,0,0,,,,,,,,0,,,67,51
102930,note_on,90,0,0,,,,,,,,0,,,67,0
102960,set_tempo,30,1,0,,,,,,359281,,,,,,
102960,note_on,0,0,0,,,,,,,,0,,,70,51
103050,note_on,90,0,0,,,,,,,,0,,,70,0
103080,note_on,30,0,0,,,,,,,,0,,,76,48
103170,note_on,90,0,0,,,,,,,,0,,,76,0
103200,note_on,30,0,0,,,,,,,,0,,,76,58
103260,note_on,60,0,0,,,,,,,,0,,,76,0
103320,note_on,60,0,0,,,,,,,,0,,,70,51
103410,note_on,90,0,0,,,,,,,,0,,,70,0
103440,set_tempo,30,1,0,,,,,,386026,,,,,,
103440,note_on,0,0,0,,,,,,,,0,,,67,48
103530,note_on,90,0,0,,,,,,,,0,,,67,0
103560,note_on,30,0,0,,,,,,,,0,,,64,44
103650,note_on,90,0,0,,,,,,,,0,,,64,0
103680,set_tempo,30,1,0,,,,,,366435,,,,,,
103680,note_on,0,0,0,,,,,,,,0,,,64,58
103733,control_change,53,0,0,,,,,,,,0,64,127,,
103740,note_on,7,0,0,,,,,,,,0,,,64,0
103800,note_on,60,0,0,,,,,,,,0,,,68,51
103890,note_on,90,0,0,,,,,,,,0,,,68,0
103920,set_tempo,30,1,0,,,,,,361446,,,,,,
103920,note_on,0,0,0,,,,,,,,0,,,71,51
104010,note_on,90,0,0,,,,,,,,0,,,71,0
104040,note_on,30,0,0,,,,,,,,0,,,76,48
104130,note_on,90,0,0,,,,,,,,0,,,76,0
104160,set_tempo,30,1,0,,,,,,359281,,,,,,
104160,note_on,0,0,0,,,,,,,,0,,,83,73
104160,note_on,0,0,0,,,,,,,,0,,,80,64
104160,note_on,0,0,0,,,,,,,,0,,,64,67
104171,control_change,11,0,0,,,,,,,,0,64,0,,
104220,note_on,49,0,0,,,,,,,,0,,,64,0
104220,note_on,0,0,0,,,,,,,,0,,,80,0
104220,note_on,0,0,0,,,,,,,,0,,,83,0
104280,set_tempo,60,1,0,,,,,,360360,,,,,,
104320,note_on,40,0,0,,,,,,,,0,,,81,65
104320,note_on,0,0,0,,,,,,,,0,,,78,57
104320,note_on,0,0,0,,,,,,,,0,,,66,59
104360,set_tempo,40,1,0,,,,,,361446,,,,,,
104380,note_on,20,0,0,,,,,,,,0,,,66,0
104380,note_on,0,0,0,,,,,,,,0,,,78,0
104380,note_on,0,0,0,,,,,,,,0,,,81,0
104440,set_tempo,60,1,0,,,,,,362538,,,,,,
104480,note_on,40,0,0,,,,,,,,0,,,80,66
104480,note_on,0,0,0,,,,,,,,0,,,76,58
104480,note_on,0,0,0,,,,,,,,0,,,68,60
104540,note_on,60,0,0,,,,,,,,0,,,68,0
104540,note_on,0,0,0,,,,,,,,0,,,76,0
104540,note_on,0,0,0,,,,,,,,0,,,80,0
104560,set_tempo,20,1,0,,,,,,363636,,,,,,
104640,set_tempo,80,1,0,,,,,,364742,,,,,,
104640,note_on,0,0,0,,,,,,,,0,,,81,66
104640,note_on,0,0,0,,,,,,,,0,,,85,75
104640,note_on,0,0,0,,,,,,,,0,,,69,67
104700,note_on,60,0,0,,,,,,,,0,,,85,0
104700,note_on,0,0,0,,,,,,,,0,,,81,0
104720,set_tempo,20,1,0,,,,,,365854,,,,,,
104760,note_on,40,0,0,,,,,,,,0,,,69,0
104800,note_on,40,0,0,,,,,,,,0,,,83,66
104800,note_on,0,0,0,,,,,,,,0,,,80,58
104840,set_tempo,40,1,0,,,,,,366972,,,,,,
104860,note_on,20,0,0,,,,,,,,0,,,80,0
104860,note_on,0,0,0,,,,,,,,0,,,83,0
104920,set_tempo,60,1,0,,,,,,368098,,,,,,
104960,note_on,40,0,0,,,,,,,,0,,,78,58
104960,note_on,0,0,0,,,,,,,,0,,,81,66
105000,set_tempo,40,1,0,,,,,,369231,,,,,,
105020,note_on,20,0,0,,,,,,,,0,,,81,0
105020,note_on,0,0,0,,,,,,,,0,,,78,0
105120,set_tempo,100,1,0,,,,,,370370,,,,,,
105120,note_on,0,0,0,,,,,,,,0,,,76,66
105120,note_on,0,0,0,,,,,,,,0,,,80,75
105120,note_on,0,0,0,,,,,,,,0,,,57,67
105152,control_change,32,0,0,,,,,,,,0,64,127,,
105180,note_on,28,0,0,,,,,,,,0,,,80,0
105180,note_on,0,0,0,,,,,,,,0,,,76,0
105200,set_tempo,20,1,0,,,,,,371517,,,,,,
105240,note_on,40,0,0,,,,,,,,0,,,57,0
105280,set_tempo,40,1,0,,,,,,372671,,,,,,
105280,note_on,0,0,0,,,,,,,,0,,,75,57
105280,note_on,0,0,0,,,,,,,,0,,,78,65
105340,note_on,60,0,0,,,,,,,,0,,,78,0
105340,note_on,0,0,0,,,,,,,,0,,,75,0
105360,note_on,20,0,0,,,,,,,,0,,,58,66
105371,control_change,11,0,0,,,,,,,,0,64,0,,
105400,set_tempo,29,1,0,,,,,,373832,,,,,,
105440,note_on,40,0,0,,,,,,,,0,,,73,57
105440,note_on,0,0,0,,,,,,,,0,,,76,65
105480,set_tempo,40,1,0,,,,,,375000,,,,,,
105480,note_on,0,0,0,,,,,,,,0,,,58,0
105500,note_on,20,0,0,,,,,,,,0,,,76,0
105500,note_on,0,0,0,,,,,,,,0,,,73,0
105560,set_tempo,60,1,0,,,,,,376176,,,,,,
105600,set_tempo,40,1,0,,,,,,368868,,,,,,
105600,note_on,0,0,0,,,,,,,,0,,,59,67
105720,note_on,120,0,0,,,,,,,,0,,,59,0
105720,note_on,0,0,0,,,,,,,,0,,,68,57
105810,note_on,90,0,0,,,,,,,,0,,,68,0
105840,set_tempo,30,1,0,,,,,,360490,,,,,,
105840,note_on,0,0,0,,,,,,,,0,,,76,57
105930,note_on,90,0,0,,,,,,,,0,,,76,0
105960,note_on,30,0,0,,,,,,,,0,,,83,53
106050,note_on,90,0,0,,,,,,,,0,,,83,0
106080,note_on,30,0,0,,,,,,,,0,,,83,65
106170,note_on,90,0,0,,,,,,,,0,,,83,0
106200,note_on,30,0,0,,,,,,,,0,,,76,56
106290,note_on,90,0,0,,,,,,,,0,,,76,0
106320,set_tempo,30,1,0,,,,,,386026,,,,,,
106320,note_on,0,0,0,,,,,,,,0,,,68,48
106410,note_on,90,0,0,,,,,,,,0,,,68,0
106440,note_on,30,0,0,,,,,,,,0,,,59,45
106530,note_on,90,0,0,,,,,,,,0,,,59,0
106560,set_tempo,30,1,0,,,,,,372578,,,,,,
106560,note_on,0,0,0,,,,,,,,0,,,59,64
106680,note_on,120,0,0,,,,,,,,0,,,59,0
106680,note_on,0,0,0,,,,,,,,0,,,66,54
106770,note_on,90,0,0,,,,,,,,0,,,66,0
106800,set_tempo,30,1,0,,,,,,361664,,,,,,
106800,note_on,0,0,0,,,,,,,,0,,,75,54
106890,note_on,90,0,0,,,,,,,,0,,,75,0
106920,note_on,30,0,0,,,,,,,,0,,,83,50
107010,note_on,90,0,0,,,,,,,,0,,,83,0
107040,note_on,30,0,0,,,,,,,,0,,,83,60
107130,note_on,90,0,0,,,,,,,,0,,,83,0
107160,note_on,30,0,0,,,,,,,,0,,,75,54
107250,note_on,90,0,0,,,,,,,,0,,,75,0
107280,set_tempo,30,1,0,,,,,,386026,,,,,,
107280,note_on,0,0,0,,,,,,,,0,,,66,49
107370,note_on,90,0,0,,,,,,,,0,,,66,0
107400,note_on,30,0,0,,,,,,,,0,,,59,46
107490,note_on,90,0,0,,,,,,,,0,,,59,0
107520,set_tempo,30,1,0,,,,,,371678,,,,,,
107520,note_on,0,0,0,,,,,,,,0,,,64,60
107640,note_on,120,0,0,,,,,,,,0,,,64,0
107640,note_on,0,0,0,,,,,,,,0,,,68,53
107730,note_on,90,0,0,,,,,,,,0,,,68,0
107760,set_tempo,30,1,0,,,,,,434814,,,,,,
107760,note_on,0,0,0,,,,,,,,0,,,76,53
107850,note_on,90,0,0,,,,,,,,0,,,76,0
107880,note_on,30,0,0,,,,,,,,0,,,83,52
107970,note_on,90,0,0,,,,,,,,0,,,83,0
108000,set_tempo,30,1,0,,,,,,470625,,,,,,
108000,note_on,0,0,0,,,,,,,,0,,,92,74
108060,note_on,60,0,0,,,,,,,,0,,,92,0
108240,set_tempo,180,1,0,,,,,,597074,,,,,,
108240,note_on,0,0,0,,,,,,,,0,,,88,70
108300,note_on,60,0,0,,,,,,,,0,,,88,0
108480,set_tempo,180,1,0,,,,,,353232,,,,,,
108480,note_on,0,0,0,,,,,,,,0,,,64,57
108600,note_on,120,0,0,,,,,,,,0,,,64,0
108600,note_on,0,0,0,,,,,,,,0,,,71,51
108600,note_on,0,0,0,,,,,,,,0,,,68,43
108690,note_on,90,0,0,,,,,,,,0,,,68,0
108690,note_on,0,0,0,,,,,,,,0,,,71,0
108720,set_tempo,30,1,0,,,,,,342877,,,,,,
108720,note_on,0,0,0,,,,,,,,0,,,76,50
108810,note_on,90,0,0,,,,,,,,0,,,76,0
108840,note_on,30,0,0,,,,,,,,0,,,80,42
108840,note_on,0,0,0,,,,,,,,0,,,88,50
108930,note_on,90,0,0,,,,,,,,0,,,88,0
108930,note_on,0,0,0,,,,,,,,0,,,80,0
108960,note_on,30,0,0,,,,,,,,0,,,80,45
108960,note_on,0,0,0,,,,,,,,0,,,88,54
109050,note_on,90,0,0,,,,,,,,0,,,88,0
109050,note_on,0,0,0,,,,,,,,0,,,80,0
109080,note_on,30,0,0,,,,,,,,0,,,76,48
109170,note_on,90,0,0,,,,,,,,0,,,76,0
109200,set_tempo,30,1,0,,,,,,365988,,,,,,
109200,note_on,0,0,0,,,,,,,,0,,,68,40
109200,note_on,0,0,0,,,,,,,,0,,,71,48
109290,note_on,90,0,0,,,,,,,,0,,,71,0
109290,note_on,0,0,0,,,,,,,,0,,,68,0
109320,note_on,30,0,0,,,,,,,,0,,,64,42
109410,note_on,90,0,0,,,,,,,,0,,,64,0
109440,set_tempo,30,1,0,,,,,,353232,,,,,,
109440,note_on,0,0,0,,,,,,,,0,,,64,57
109560,note_on,120,0,0,,,,,,,,0,,,64,0
109560,note_on,0,0,0,,,,,,,,0,,,72,51
109560,note_on,0,0,0,,,,,,,,0,,,69,43
109650,note_on,90,0,0,,,,,,,,0,,,69,0
109650,note_on,0,0,0,,,,,,,,0,,,72,0
109680,set_tempo,30,1,0,,,,,,342877,,,,,,
109680,note_on,0,0,0,,,,,,,,0,,,76,50
109770,note_on,90,0,0,,,,,,,,0,,,76,0
109800,note_on,30,0,0,,,,,,,,0,,,81,42
109800,note_on,0,0,0,,,,,,,,0,,,88,50
109890,note_on,90,0,0,,,,,,,,0,,,88,0
109890,note_on,0,0,0,,,,,,,,0,,,81,0
109920,note_on,30,0,0,,,,,,,,0,,,81,45
109920,note_on,0,0,0,,,,,,,,0,,,88,54
110010,note_on,90,0,0,,,,,,,,0,,,88,0
110010,note_on,0,0,0,,,,,,,,0,,,81,0
110040,note_on,30,0,0,,,,,,,,0,,,76,48
110130,note_on,90,0,0,,,,,,,,0,,,76,0
110160,set_tempo,30,1,0,,,,,,365988,,,,,,
110160,note_on,0,0,0,,,,,,,,0,,,72,45
110160,note_on,0,0,0,,,,,,,,0,,,69,45
110250,note_on,90,0,0,,,,,,,,0,,,69,0
110250,note_on,0,0,0,,,,,,,,0,,,72,0
110280,note_on,30,0,0,,,,,,,,0,,,64,40
110370,note_on,90,0,0,,,,,,,,0,,,64,0
110400,set_tempo,30,1,0,,,,,,353232,,,,,,
110400,note_on,0,0,0,,,,,,,,0,,,64,57
110520,note_on,120,0,0,,,,,,,,0,,,64,0
110520,note_on,0,0,0,,,,,,,,0,,,70,52
110520,note_on,0,0,0,,,,,,,,0,,,67,43
110610,note_on,90,0,0,,,,,,,,0,,,67,0
110610,note_on,0,0,0,,,,,,,,0,,,70,0
110640,set_tempo,30,1,0,,,,,,338983,,,,,,
110640,note_on,0,0,0,,,,,,,,0,,,76,52
110730,note_on,90,0,0,,,,,,,,0,,,76,0
110760,note_on,30,0,0,,,,,,,,0,,,79,45
110760,note_on,0,0,0,,,,,,,,0,,,88,53
110850,note_on,90,0,0,,,,,,,,0,,,88,0
110850,note_on,0,0,0,,,,,,,,0,,,79,0
110880,note_on,30,0,0,,,,,,,,0,,,79,50
110880,note_on,0,0,0,,,,,,,,0,,,88,59
110970,note_on,90,0,0,,,,,,,,0,,,88,0
110970,note_on,0,0,0,,,,,,,,0,,,79,0
111000,note_on,30,0,0,,,,,,,,0,,,76,54
111090,note_on,90,0,0,,,,,,,,0,,,76,0
111120,set_tempo,30,1,0,,,,,,365988,,,,,,
111120,note_on,0,0,0,,,,,,,,0,,,70,47
111120,note_on,0,0,0,,,,,,,,0,,,67,47
111210,note_on,90,0,0,,,,,,,,0,,,67,0
111210,note_on,0,0,0,,,,,,,,0,,,70,0
111240,note_on,30,0,0,,,,,,,,0,,,64,41
111330,note_on,90,0,0,,,,,,,,0,,,64,0
111360,set_tempo,30,1,0,,,,,,359281,,,,,,
111360,note_on,0,0,0,,,,,,,,0,,,64,70
111480,note_on,120,0,0,,,,,,,,0,,,64,0
111480,note_on,0,0,0,,,,,,,,0,,,71,61
111480,note_on,0,0,0,,,,,,,,0,,,68,61
111570,note_on,90,0,0,,,,,,,,0,,,68,0
111570,note_on,0,0,0,,,,,,,,0,,,71,0
111600,set_tempo,30,1,0,,,,,,337401,,,,,,
111600,note_on,0,0,0,,,,,,,,0,,,76,61
111690,note_on,90,0,0,,,,,,,,0,,,76,0
111720,note_on,30,0,0,,,,,,,,0,,,88,61
111720,note_on,0,0,0,,,,,,,,0,,,80,61
111810,note_on,90,0,0,,,,,,,,0,,,80,0
111810,note_on,0,0,0,,,,,,,,0,,,88,0
111840,set_tempo,30,1,0,,,,,,344828,,,,,,
111840,note_on,0,0,0,,,,,,,,0,,,68,73
111840,note_on,0,0,0,,,,,,,,0,,,64,64
111900,note_on,60,0,0,,,,,,,,0,,,64,0
111900,note_on,0,0,0,,,,,,,,0,,,68,0
112000,note_on,100,0,0,,,,,,,,0,,,69,66
112000,note_on,0,0,0,,,,,,,,0,,,66,58
112000,note_on,0,0,0,,,,,,,,0,,,63,60
112060,note_on,60,0,0,,,,,,,,0,,,63,0
112060,note_on,0,0,0,,,,,,,,0,,,66,0
112060,note_on,0,0,0,,,,,,,,0,,,69,0
112080,set_tempo,20,1,0,,,,,,340677,,,,,,
112160,set_tempo,80,1,0,,,,,,341763,,,,,,
112160,note_on,0,0,0,,,,,,,,0,,,71,68
112160,note_on,0,0,0,,,,,,,,0,,,68,60
112160,note_on,0,0,0,,,,,,,,0,,,62,62
112200,set_tempo,40,1,0,,,,,,342877,,,,,,
112220,note_on,20,0,0,,,,,,,,0,,,62,0
112220,note_on,0,0,0,,,,,,,,0,,,68,0
112220,note_on,0,0,0,,,,,,,,0,,,71,0
112280,set_tempo,60,1,0,,,,,,343997,,,,,,
112320,note_on,40,0,0,,,,,,,,0,,,69,69
112320,note_on,0,0,0,,,,,,,,0,,,73,79
112320,note_on,0,0,0,,,,,,,,0,,,61,71
112360,set_tempo,40,1,0,,,,,,345125,,,,,,
112380,note_on,20,0,0,,,,,,,,0,,,73,0
112380,note_on,0,0,0,,,,,,,,0,,,69,0
112440,set_tempo,60,1,0,,,,,,346260,,,,,,
112440,note_on,0,0,0,,,,,,,,0,,,61,0
112480,note_on,40,0,0,,,,,,,,0,,,75,71
112480,note_on,0,0,0,,,,,,,,0,,,71,62
112520,set_tempo,40,1,0,,,,,,347403,,,,,,
112540,note_on,20,0,0,,,,,,,,0,,,71,0
112540,note_on,0,0,0,,,,,,,,0,,,75,0
112560,set_tempo,20,1,0,,,,,,348554,,,,,,
112640,set_tempo,80,1,0,,,,,,349711,,,,,,
112640,note_on,0,0,0,,,,,,,,0,,,73,64
112640,note_on,0,0,0,,,,,,,,0,,,76,73
112700,note_on,60,0,0,,,,,,,,0,,,76,0
112700,note_on,0,0,0,,,,,,,,0,,,73,0
112720,set_tempo,20,1,0,,,,,,350877,,,,,,
112800,set_tempo,80,1,0,,,,,,352051,,,,,,
112800,note_on,0,0,0,,,,,,,,0,,,75,71
112800,note_on,0,0,0,,,,,,,,0,,,78,81
112800,note_on,0,0,0,,,,,,,,0,,,57,72
112860,note_on,60,0,0,,,,,,,,0,,,78,0
112860,note_on,0,0,0,,,,,,,,0,,,75,0
112880,set_tempo,20,1,0,,,,,,353232,,,,,,
112920,set_tempo,40,1,0,,,,,,354421,,,,,,
112920,note_on,0,0,0,,,,,,,,0,,,57,0
112960,note_on,40,0,0,,,,,,,,0,,,76,65
112960,note_on,0,0,0,,,,,,,,0,,,80,74
113000,set_tempo,40,1,0,,,,,,355619,,,,,,
113020,note_on,20,0,0,,,,,,,,0,,,80,0
113020,note_on,0,0,0,,,,,,,,0,,,76,0
113080,set_tempo,60,1,0,,,,,,356824,,,,,,
113120,note_on,40,0,0,,,,,,,,0,,,78,66
113120,note_on,0,0,0,,,,,,,,0,,,81,76
113160,set_tempo,40,1,0,,,,,,358038,,,,,,
113180,note_on,20,0,0,,,,,,,,0,,,81,0
113180,note_on,0,0,0,,,,,,,,0,,,78,0
113240,set_tempo,60,1,0,,,,,,359260,,,,,,
113280,set_tempo,40,1,0,,,,,,353232,,,,,,
113280,note_on,0,0,0,,,,,,,,0,,,59,65
113400,note_on,120,0,0,,,,,,,,0,,,59,0
113400,note_on,0,0,0,,,,,,,,0,,,71,56
113400,note_on,0,0,0,,,,,,,,0,,,68,47
113490,note_on,90,0,0,,,,,,,,0,,,68,0
113490,note_on,0,0,0,,,,,,,,0,,,71,0
113520,set_tempo,30,1,0,,,,,,342877,,,,,,
113520,note_on,0,0,0,,,,,,,,0,,,76,56
113610,note_on,90,0,0,,,,,,,,0,,,76,0
113640,note_on,30,0,0,,,,,,,,0,,,88,50
113640,note_on,0,0,0,,,,,,,,0,,,80,50
113730,note_on,90,0,0,,,,,,,,0,,,80,0
113730,note_on,0,0,0,,,,,,,,0,,,88,0
113760,note_on,30,0,0,,,,,,,,0,,,80,52
113760,note_on,0,0,0,,,,,,,,0,,,88,62
113850,note_on,90,0,0,,,,,,,,0,,,88,0
113850,note_on,0,0,0,,,,,,,,0,,,80,0
113880,note_on,30,0,0,,,,,,,,0,,,76,56
113970,note_on,90,0,0,,,,,,,,0,,,76,0
114000,set_tempo,30,1,0,,,,,,365988,,,,,,
114000,note_on,0,0,0,,,,,,,,0,,,71,49
114000,note_on,0,0,0,,,,,,,,0,,,68,49
114090,note_on,90,0,0,,,,,,,,0,,,68,0
114090,note_on,0,0,0,,,,,,,,0,,,71,0
114120,note_on,30,0,0,,,,,,,,0,,,59,44
114210,note_on,90,0,0,,,,,,,,0,,,59,0
114240,set_tempo,30,1,0,,,,,,353232,,,,,,
114240,note_on,0,0,0,,,,,,,,0,,,59,64
114360,note_on,120,0,0,,,,,,,,0,,,59,0
114360,note_on,0,0,0,,,,,,,,0,,,71,56
114360,note_on,0,0,0,,,,,,,,0,,,66,47
114450,note_on,90,0,0,,,,,,,,0,,,66,0
114450,note_on,0,0,0,,,,,,,,0,,,71,0
114480,set_tempo,30,1,0,,,,,,342877,,,,,,
114480,note_on,0,0,0,,,,,,,,0,,,75,56
114570,note_on,90,0,0,,,,,,,,0,,,75,0
114600,note_on,30,0,0,,,,,,,,0,,,87,51
114600,note_on,0,0,0,,,,,,,,0,,,78,51
114690,note_on,90,0,0,,,,,,,,0,,,78,0
114690,note_on,0,0,0,,,,,,,,0,,,87,0
114720,note_on,30,0,0,,,,,,,,0,,,78,53
114720,note_on,0,0,0,,,,,,,,0,,,87,63
114810,note_on,90,0,0,,,,,,,,0,,,87,0
114810,note_on,0,0,0,,,,,,,,0,,,78,0
114840,note_on,30,0,0,,,,,,,,0,,,75,57
114930,note_on,90,0,0,,,,,,,,0,,,75,0
114960,set_tempo,30,1,0,,,,,,365988,,,,,,
114960,note_on,0,0,0,,,,,,,,0,,,71,50
114960,note_on,0,0,0,,,,,,,,0,,,66,50
115050,note_on,90,0,0,,,,,,,,0,,,66,0
115050,note_on,0,0,0,,,,,,,,0,,,71,0
115080,note_on,30,0,0,,,,,,,,0,,,59,43
115170,note_on,90,0,0,,,,,,,,0,,,59,0
115200,set_tempo,30,1,0,,,,,,353232,,,,,,
115200,note_on,0,0,0,,,,,,,,0,,,64,65
115320,note_on,120,0,0,,,,,,,,0,,,64,0
115320,note_on,0,0,0,,,,,,,,0,,,71,47
115320,note_on,0,0,0,,,,,,,,0,,,76,56
115320,note_on,0,0,0,,,,,,,,0,,,68,47
115410,note_on,90,0,0,,,,,,,,0,,,68,0
115410,note_on,0,0,0,,,,,,,,0,,,76,0
115410,note_on,0,0,0,,,,,,,,0,,,71,0
115440,set_tempo,30,1,0,,,,,,342877,,,,,,
115440,note_on,0,0,0,,,,,,,,0,,,80,56
115530,note_on,90,0,0,,,,,,,,0,,,80,0
115560,note_on,30,0,0,,,,,,,,0,,,88,51
115560,note_on,0,0,0,,,,,,,,0,,,83,51
115650,note_on,90,0,0,,,,,,,,0,,,83,0
115650,note_on,0,0,0,,,,,,,,0,,,88,0
115680,note_on,30,0,0,,,,,,,,0,,,92,62
115770,note_on,90,0,0,,,,,,,,0,,,92,0
115800,note_on,30,0,0,,,,,,,,0,,,80,56
115890,note_on,90,0,0,,,,,,,,0,,,80,0
115920,set_tempo,30,1,0,,,,,,365988,,,,,,
115920,note_on,0,0,0,,,,,,,,0,,,76,48
115920,note_on,0,0,0,,,,,,,,0,,,68,48
115920,note_on,0,0,0,,,,,,,,0,,,71,48
116010,note_on,90,0,0,,,,,,,,0,,,71,0
116010,note_on,0,0,0,,,,,,,,0,,,68,0
116010,note_on,0,0,0,,,,,,,,0,,,76,0
116040,note_on,30,0,0,,,,,,,,0,,,64,45
116130,note_on,90,0,0,,,,,,,,0,,,64,0
116160,set_tempo,30,1,0,,,,,,353232,,,,,,
116160,note_on,0,0,0,,,,,,,,0,,,64,64
116280,note_on,120,0,0,,,,,,,,0,,,64,0
116280,note_on,0,0,0,,,,,,,,0,,,72,47
116280,note_on,0,0,0,,,,,,,,0,,,76,56
116280,note_on,0,0,0,,,,,,,,0,,,69,47
116370,note_on,90,0,0,,,,,,,,0,,,69,0
116370,note_on,0,0,0,,,,,,,,0,,,76,0
116370,note_on,0,0,0,,,,,,,,0,,,72,0
116400,set_tempo,30,1,0,,,,,,340909,,,,,,
116400,note_on,0,0,0,,,,,,,,0,,,81,56
116490,note_on,90,0,0,,,,,,,,0,,,81,0
116520,note_on,30,0,0,,,,,,,,0,,,88,53
116520,note_on,0,0,0,,,,,,,,0,,,84,53
116610,note_on,90,0,0,,,,,,,,0,,,84,0
116610,note_on,0,0,0,,,,,,,,0,,,88,0
116640,note_on,30,0,0,,,,,,,,0,,,93,63
116730,note_on,90,0,0,,,,,,,,0,,,93,0
116760,note_on,30,0,0,,,,,,,,0,,,81,57
116850,note_on,90,0,0,,,,,,,,0,,,81,0
116880,set_tempo,30,1,0,,,,,,365988,,,,,,
116880,note_on,0,0,0,,,,,,,,0,,,76,51
116880,note_on,0,0,0,,,,,,,,0,,,69,51
116880,note_on,0,0,0,,,,,,,,0,,,72,51
116970,note_on,90,0,0,,,,,,,,0,,,72,0
116970,note_on,0,0,0,,,,,,,,0,,,69,0
116970,note_on,0,0,0,,,,,,,,0,,,76,0
117000,note_on,30,0,0,,,,,,,,0,,,64,47
117090,note_on,90,0,0,,,,,,,,0,,,64,0
117120,set_tempo,30,1,0,,,,,,353232,,,,,,
117120,note_on,0,0,0,,,,,,,,0,,,64,65
117240,note_on,120,0,0,,,,,,,,0,,,64,0
117240,note_on,0,0,0,,,,,,,,0,,,71,47
117240,note_on,0,0,0,,,,,,,,0,,,76,56
117240,note_on,0,0,0,,,,,,,,0,,,68,47
117330,note_on,90,0,0,,,,,,,,0,,,68,0
117330,note_on,0,0,0,,,,,,,,0,,,76,0
117330,note_on,0,0,0,,,,,,,,0,,,71,0
117360,set_tempo,30,1,0,,,,,,338983,,,,,,
117360,note_on,0,0,0,,,,,,,,0,,,80,56
117450,note_on,90,0,0,,,,,,,,0,,,80,0
117480,note_on,30,0,0,,,,,,,,0,,,88,49
117480,note_on,0,0,0,,,,,,,,0,,,83,49
117570,note_on,90,0,0,,,,,,,,0,,,83,0
117570,note_on,0,0,0,,,,,,,,0,,,88,0
117600,note_on,30,0,0,,,,,,,,0,,,92,63
117690,note_on,90,0,0,,,,,,,,0,,,92,0
117720,note_on,30,0,0,,,,,,,,0,,,80,58
117810,note_on,90,0,0,,,,,,,,0,,,80,0
117840,set_tempo,30,1,0,,,,,,365988,,,,,,
117840,note_on,0,0,0,,,,,,,,0,,,76,53
117840,note_on,0,0,0,,,,,,,,0,,,68,53
117840,note_on,0,0,0,,,,,,,,0,,,71,53
117930,note_on,90,0,0,,,,,,,,0,,,71,0
117930,note_on,0,0,0,,,,,,,,0,,,68,0
117930,note_on,0,0,0,,,,,,,,0,,,76,0
117960,note_on,30,0,0,,,,,,,,0,,,64,47
118050,note_on,90,0,0,,,,,,,,0,,,64,0
118080,set_tempo,30,1,0,,,,,,353232,,,,,,
118080,note_on,0,0,0,,,,,,,,0,,,64,69
118200,note_on,120,0,0,,,,,,,,0,,,64,0
118200,note_on,0,0,0,,,,,,,,0,,,72,51
118200,note_on,0,0,0,,,,,,,,0,,,76,61
118200,note_on,0,0,0,,,,,,,,0,,,69,51
118290,note_on,90,0,0,,,,,,,,0,,,69,0
118290,note_on,0,0,0,,,,,,,,0,,,76,0
118290,note_on,0,0,0,,,,,,,,0,,,72,0
118320,set_tempo,30,1,0,,,,,,342877,,,,,,
118320,note_on,0,0,0,,,,,,,,0,,,81,61
118410,note_on,90,0,0,,,,,,,,0,,,81,0
118440,note_on,30,0,0,,,,,,,,0,,,88,56
118440,note_on,0,0,0,,,,,,,,0,,,84,56
118530,note_on,90,0,0,,,,,,,,0,,,84,0
118530,note_on,0,0,0,,,,,,,,0,,,88,0
118560,note_on,30,0,0,,,,,,,,0,,,93,69
118650,note_on,90,0,0,,,,,,,,0,,,93,0
118680,note_on,30,0,0,,,,,,,,0,,,81,64
118770,note_on,90,0,0,,,,,,,,0,,,81,0
118800,set_tempo,30,1,0,,,,,,365988,,,,,,
118800,note_on,0,0,0,,,,,,,,0,,,72,59
118800,note_on,0,0,0,,,,,,,,0,,,69,59
118800,note_on,0,0,0,,,,,,,,0,,,76,59
118890,note_on,90,0,0,,,,,,,,0,,,76,0
118890,note_on,0,0,0,,,,,,,,0,,,69,0
118890,note_on,0,0,0,,,,,,,,0,,,72,0
118920,note_on,30,0,0,,,,,,,,0,,,64,54
119010,note_on,90,0,0,,,,,,,,0,,,64,0
119040,set_tempo,30,1,0,,,,,,353232,,,,,,
119040,note_on,0,0,0,,,,,,,,0,,,64,76
119160,note_on,120,0,0,,,,,,,,0,,,64,0
119160,note_on,0,0,0,,,,,,,,0,,,71,55
119160,note_on,0,0,0,,,,,,,,0,,,76,66
119160,note_on,0,0,0,,,,,,,,0,,,68,55
119250,note_on,90,0,0,,,,,,,,0,,,68,0
119250,note_on,0,0,0,,,,,,,,0,,,76,0
119250,note_on,0,0,0,,,,,,,,0,,,71,0
119280,set_tempo,30,1,0,,,,,,346260,,,,,,
119280,note_on,0,0,0,,,,,,,,0,,,80,66
119370,note_on,90,0,0,,,,,,,,0,,,80,0
119400,note_on,30,0,0,,,,,,,,0,,,83,55
119400,note_on,0,0,0,,,,,,,,0,,,88,66
119490,note_on,90,0,0,,,,,,,,0,,,88,0
119490,note_on,0,0,0,,,,,,,,0,,,83,0
119520,note_on,30,0,0,,,,,,,,0,,,92,74
119610,note_on,90,0,0,,,,,,,,0,,,92,0
119640,note_on,30,0,0,,,,,,,,0,,,80,68
119730,note_on,90,0,0,,,,,,,,0,,,80,0
119760,set_tempo,30,1,0,,,,,,365988,,,,,,
119760,note_on,0,0,0,,,,,,,,0,,,71,61
119850,note_on,90,0,0,,,,,,,,0,,,71,0
119880,note_on,30,0,0,,,,,,,,0,,,68,53
119880,note_on,0,0,0,,,,,,,,0,,,64,53
119970,note_on,90,0,0,,,,,,,,0,,,64,0
119970,note_on,0,0,0,,,,,,,,0,,,68,0
120000,set_tempo,30,1,0,,,,,,352382,,,,,,
120000,note_on,0,0,0,,,,,,,,0,,,61,80
120120,note_on,120,0,0,,,,,,,,0,,,61,0
120120,note_on,0,0,0,,,,,,,,0,,,67,58
120120,note_on,0,0,0,,,,,,,,0,,,70,70
120210,note_on,90,0,0,,,,,,,,0,,,70,0
120210,note_on,0,0,0,,,,,,,,0,,,67,0
120240,set_tempo,30,1,0,,,,,,396066,,,,,,
120240,note_on,0,0,0,,,,,,,,0,,,76,72
120330,note_on,90,0,0,,,,,,,,0,,,76,0
120360,note_on,30,0,0,,,,,,,,0,,,79,65
120360,note_on,0,0,0,,,,,,,,0,,,88,65
120450,note_on,90,0,0,,,,,,,,0,,,88,0
120450,note_on,0,0,0,,,,,,,,0,,,79,0
120480,set_tempo,30,1,0,,,,,,433244,,,,,,
120480,note_on,0,0,0,,,,,,,,0,,,61,78
120540,note_on,60,0,0,,,,,,,,0,,,61,0
120720,set_tempo,180,1,0,,,,,,467836,,,,,,
120720,note_on,0,0,0,,,,,,,,0,,,58,83
120780,note_on,60,0,0,,,,,,,,0,,,58,0
120960,set_tempo,180,1,0,,,,,,373832,,,,,,
120960,note_on,0,0,0,,,,,,,,0,,,59,86
121020,note_on,60,0,0,,,,,,,,0,,,59,0
121120,note_on,100,0,0,,,,,,,,0,,,83,76
121120,note_on,0,0,0,,,,,,,,0,,,80,64
121137,control_change,17,0,0,,,,,,,,0,64,127,,
121180,note_on,43,0,0,,,,,,,,0,,,80,0
121180,note_on,0,0,0,,,,,,,,0,,,83,0
121200,set_tempo,20,1,0,,,,,,366972,,,,,,
121240,set_tempo,40,1,0,,,,,,363636,,,,,,
121280,set_tempo,40,1,0,,,,,,359281,,,,,,
121280,note_on,0,0,0,,,,,,,,0,,,81,75
121280,note_on,0,0,0,,,,,,,,0,,,78,63
121280,control_change,0,0,0,,,,,,,,0,64,0,,
121320,set_tempo,40,1,0,,,,,,356083,,,,,,
121340,note_on,20,0,0,,,,,,,,0,,,78,0
121340,note_on,0,0,0,,,,,,,,0,,,81,0
121360,set_tempo,20,1,0,,,,,,351906,,,,,,
121440,set_tempo,80,1,0,,,,,,345821,,,,,,
121440,note_on,0,0,0,,,,,,,,0,,,80,74
121440,note_on,0,0,0,,,,,,,,0,,,76,62
121440,control_change,0,0,0,,,,,,,,0,64,127,,
121440,note_on,0,0,0,,,,,,,,0,,,68,75
121500,note_on,60,0,0,,,,,,,,0,,,68,0
121500,note_on,0,0,0,,,,,,,,0,,,76,0
121500,note_on,0,0,0,,,,,,,,0,,,80,0
121600,set_tempo,100,1,0,,,,,,346821,,,,,,
121600,note_on,0,0,0,,,,,,,,0,,,75,61
121600,note_on,0,0,0,,,,,,,,0,,,78,72
121600,note_on,0,0,0,,,,,,,,0,,,69,74
121637,control_change,37,0,0,,,,,,,,0,64,0,,
121660,note_on,23,0,0,,,,,,,,0,,,69,0
121660,note_on,0,0,0,,,,,,,,0,,,78,0
121660,note_on,0,0,0,,,,,,,,0,,,75,0
121720,set_tempo,60,1,0,,,,,,347826,,,,,,
121760,note_on,40,0,0,,,,,,,,0,,,73,60
121760,note_on,0,0,0,,,,,,,,0,,,76,71
121760,note_on,0,0,0,,,,,,,,0,,,70,73
121820,note_on,60,0,0,,,,,,,,0,,,70,0
121820,note_on,0,0,0,,,,,,,,0,,,76,0
121820,note_on,0,0,0,,,,,,,,0,,,73,0
121840,set_tempo,20,1,0,,,,,,348837,,,,,,
121920,note_on,80,0,0,,,,,,,,0,,,71,59
121920,note_on,0,0,0,,,,,,,,0,,,75,70
121960,set_tempo,40,1,0,,,,,,349854,,,,,,
121980,note_on,20,0,0,,,,,,,,0,,,75,0
121980,note_on,0,0,0,,,,,,,,0,,,71,0
122080,set_tempo,100,1,0,,,,,,350877,,,,,,
122080,note_on,0,0,0,,,,,,,,0,,,69,58
122080,note_on,0,0,0,,,,,,,,0,,,73,69
122140,note_on,60,0,0,,,,,,,,0,,,73,0
122140,note_on,0,0,0,,,,,,,,0,,,69,0
122240,set_tempo,100,1,0,,,,,,351906,,,,,,
122240,note_on,0,0,0,,,,,,,,0,,,68,57
122240,note_on,0,0,0,,,,,,,,0,,,71,68
122300,note_on,60,0,0,,,,,,,,0,,,71,0
122300,note_on,0,0,0,,,,,,,,0,,,68,0
122360,set_tempo,60,1,0,,,,,,352941,,,,,,
122400,note_on,40,0,0,,,,,,,,0,,,66,56
122400,note_on,0,0,0,,,,,,,,0,,,69,67
122400,note_on,0,0,0,,,,,,,,0,,,59,72
122460,note_on,60,0,0,,,,,,,,0,,,69,0
122460,note_on,0,0,0,,,,,,,,0,,,66,0
122480,set_tempo,20,1,0,,,,,,353982,,,,,,
122520,note_on,40,0,0,,,,,,,,0,,,59,0
122560,note_on,40,0,0,,,,,,,,0,,,64,55
122560,note_on,0,0,0,,,,,,,,0,,,68,65
122600,set_tempo,40,1,0,,,,,,355030,,,,,,
122620,note_on,20,0,0,,,,,,,,0,,,68,0
122620,note_on,0,0,0,,,,,,,,0,,,64,0
122720,set_tempo,100,1,0,,,,,,356083,,,,,,
122720,note_on,0,0,0,,,,,,,,0,,,63,54
122720,note_on,0,0,0,,,,,,,,0,,,66,64
122760,set_tempo,40,1,0,,,,,,358038,,,,,,
122780,note_on,20,0,0,,,,,,,,0,,,66,0
122780,note_on,0,0,0,,,,,,,,0,,,63,0
122840,set_tempo,60,1,0,,,,,,359260,,,,,,
122880,set_tempo,40,1,0,,,,,,343485,,,,,,
122880,note_on,0,0,0,,,,,,,,0,,,64,65
123000,note_on,120,0,0,,,,,,,,0,,,64,0
123000,note_on,0,0,0,,,,,,,,0,,,68,54
123090,note_on,90,0,0,,,,,,,,0,,,68,0
123120,set_tempo,30,1,0,,,,,,335664,,,,,,
123120,note_on,0,0,0,,,,,,,,0,,,71,53
123210,note_on,90,0,0,,,,,,,,0,,,71,0
123240,note_on,30,0,0,,,,,,,,0,,,76,50
123330,note_on,90,0,0,,,,,,,,0,,,76,0
123360,note_on,30,0,0,,,,,,,,0,,,80,63
123450,note_on,90,0,0,,,,,,,,0,,,80,0
123480,note_on,30,0,0,,,,,,,,0,,,71,53
123570,note_on,90,0,0,,,,,,,,0,,,71,0
123600,set_tempo,30,1,0,,,,,,359454,,,,,,
123600,note_on,0,0,0,,,,,,,,0,,,68,48
123690,note_on,90,0,0,,,,,,,,0,,,68,0
123720,note_on,30,0,0,,,,,,,,0,,,64,45
123810,note_on,90,0,0,,,,,,,,0,,,64,0
123840,set_tempo,30,1,0,,,,,,346921,,,,,,
123840,note_on,0,0,0,,,,,,,,0,,,64,64
123960,note_on,120,0,0,,,,,,,,0,,,64,0
123960,note_on,0,0,0,,,,,,,,0,,,69,54
124050,note_on,90,0,0,,,,,,,,0,,,69,0
124080,set_tempo,30,1,0,,,,,,336776,,,,,,
124080,note_on,0,0,0,,,,,,,,0,,,72,54
124170,note_on,90,0,0,,,,,,,,0,,,72,0
124200,note_on,30,0,0,,,,,,,,0,,,76,45
124290,note_on,90,0,0,,,,,,,,0,,,76,0
124320,note_on,30,0,0,,,,,,,,0,,,81,60
124410,note_on,90,0,0,,,,,,,,0,,,81,0
124440,note_on,30,0,0,,,,,,,,0,,,72,54
124530,note_on,90,0,0,,,,,,,,0,,,72,0
124560,set_tempo,30,1,0,,,,,,359454,,,,,,
124560,note_on,0,0,0,,,,,,,,0,,,69,50
124650,note_on,90,0,0,,,,,,,,0,,,69,0
124680,note_on,30,0,0,,,,,,,,0,,,64,41
124770,note_on,90,0,0,,,,,,,,0,,,64,0
124800,set_tempo,30,1,0,,,,,,343485,,,,,,
124800,note_on,0,0,0,,,,,,,,0,,,64,65
124920,note_on,120,0,0,,,,,,,,0,,,64,0
124920,note_on,0,0,0,,,,,,,,0,,,68,54
125010,note_on,90,0,0,,,,,,,,0,,,68,0
125040,set_tempo,30,1,0,,,,,,327869,,,,,,
125040,note_on,0,0,0,,,,,,,,0,,,71,54
125130,note_on,90,0,0,,,,,,,,0,,,71,0
125160,note_on,30,0,0,,,,,,,,0,,,76,46
125250,note_on,90,0,0,,,,,,,,0,,,76,0
125280,note_on,30,0,0,,,,,,,,0,,,80,64
125370,note_on,90,0,0,,,,,,,,0,,,80,0
125400,note_on,30,0,0,,,,,,,,0,,,71,55
125490,note_on,90,0,0,,,,,,,,0,,,71,0
125520,set_tempo,30,1,0,,,,,,359454,,,,,,
125520,note_on,0,0,0,,,,,,,,0,,,68,49
125610,note_on,90,0,0,,,,,,,,0,,,68,0
125640,note_on,30,0,0,,,,,,,,0,,,64,41
125730,note_on,90,0,0,,,,,,,,0,,,64,0
125760,set_tempo,30,1,0,,,,,,346921,,,,,,
125760,note_on,0,0,0,,,,,,,,0,,,64,67
125880,note_on,120,0,0,,,,,,,,0,,,64,0
125880,note_on,0,0,0,,,,,,,,0,,,69,56
125970,note_on,90,0,0,,,,,,,,0,,,69,0
126000,set_tempo,30,1,0,,,,,,330579,,,,,,
126000,note_on,0,0,0,,,,,,,,0,,,72,56
126090,note_on,90,0,0,,,,,,,,0,,,72,0
126120,note_on,30,0,0,,,,,,,,0,,,76,49
126210,note_on,90,0,0,,,,,,,,0,,,76,0
126240,note_on,30,0,0,,,,,,,,0,,,81,65
126330,note_on,90,0,0,,,,,,,,0,,,81,0
126360,note_on,30,0,0,,,,,,,,0,,,72,58
126450,note_on,90,0,0,,,,,,,,0,,,72,0
126480,set_tempo,30,1,0,,,,,,359454,,,,,,
126480,note_on,0,0,0,,,,,,,,0,,,69,49
126570,note_on,90,0,0,,,,,,,,0,,,69,0
126600,note_on,30,0,0,,,,,,,,0,,,64,47
126690,note_on,90,0,0,,,,,,,,0,,,64,0
126720,set_tempo,30,1,0,,,,,,343485,,,,,,
126720,note_on,0,0,0,,,,,,,,0,,,64,72
126840,note_on,120,0,0,,,,,,,,0,,,64,0
126840,note_on,0,0,0,,,,,,,,0,,,68,61
126930,note_on,90,0,0,,,,,,,,0,,,68,0
126960,set_tempo,30,1,0,,,,,,335664,,,,,,
126960,note_on,0,0,0,,,,,,,,0,,,71,61
127050,note_on,90,0,0,,,,,,,,0,,,71,0
127080,note_on,30,0,0,,,,,,,,0,,,76,56
127170,note_on,90,0,0,,,,,,,,0,,,76,0
127200,note_on,30,0,0,,,,,,,,0,,,80,72
127290,note_on,90,0,0,,,,,,,,0,,,80,0
127320,note_on,30,0,0,,,,,,,,0,,,71,62
127410,note_on,90,0,0,,,,,,,,0,,,71,0
127440,set_tempo,30,1,0,,,,,,359454,,,,,,
127440,note_on,0,0,0,,,,,,,,0,,,68,58
127530,note_on,90,0,0,,,,,,,,0,,,68,0
127560,note_on,30,0,0,,,,,,,,0,,,64,53
127650,note_on,90,0,0,,,,,,,,0,,,64,0
127680,set_tempo,30,1,0,,,,,,346081,,,,,,
127680,note_on,0,0,0,,,,,,,,0,,,60,75
127800,note_on,120,0,0,,,,,,,,0,,,60,0
127800,note_on,0,0,0,,,,,,,,0,,,67,63
127890,note_on,90,0,0,,,,,,,,0,,,67,0
127920,set_tempo,30,1,0,,,,,,391160,,,,,,
127920,note_on,0,0,0,,,,,,,,0,,,70,61
128010,note_on,90,0,0,,,,,,,,0,,,70,0
128040,note_on,30,0,0,,,,,,,,0,,,76,64
128130,note_on,90,0,0,,,,,,,,0,,,76,0
128160,set_tempo,30,1,0,,,,,,415628,,,,,,
128160,note_on,0,0,0,,,,,,,,0,,,79,77
128220,note_on,60,0,0,,,,,,,,0,,,79,0
128400,set_tempo,180,1,0,,,,,,528681,,,,,,
128400,note_on,0,0,0,,,,,,,,0,,,76,78
128460,note_on,60,0,0,,,,,,,,0,,,76,0
128640,set_tempo,180,1,0,,,,,,432588,,,,,,
128640,note_on,0,0,0,,,,,,,,0,,,59,78
128700,note_on,60,0,0,,,,,,,,0,,,59,0
128800,set_tempo,100,1,0,,,,,,381485,,,,,,
128800,note_on,0,0,0,,,,,,,,0,,,71,68
128800,note_on,0,0,0,,,,,,,,0,,,76,68
128860,note_on,60,0,0,,,,,,,,0,,,76,0
128860,note_on,0,0,0,,,,,,,,0,,,71,0
128960,note_on,100,0,0,,,,,,,,0,,,68,68
128960,note_on,0,0,0,,,,,,,,0,,,71,68
129020,note_on,60,0,0,,,,,,,,0,,,71,0
129020,note_on,0,0,0,,,,,,,,0,,,68,0
129120,set_tempo,100,1,0,,,,,,352941,,,,,,
129120,note_on,0,0,0,,,,,,,,0,,,83,73
129180,note_on,60,0,0,,,,,,,,0,,,83,0
129280,note_on,100,0,0,,,,,,,,0,,,63,66
129280,note_on,0,0,0,,,,,,,,0,,,59,49
129307,control_change,27,0,0,,,,,,,,0,64,127,,
129340,note_on,33,0,0,,,,,,,,0,,,59,0
129340,note_on,0,0,0,,,,,,,,0,,,63,0
129440,note_on,100,0,0,,,,,,,,0,,,64,68
129440,note_on,0,0,0,,,,,,,,0,,,61,51
129452,control_change,12,0,0,,,,,,,,0,64,0,,
129500,note_on,48,0,0,,,,,,,,0,,,61,0
129500,note_on,0,0,0,,,,,,,,0,,,64,0
129600,note_on,100,0,0,,,,,,,,0,,,63,58
129600,note_on,0,0,0,,,,,,,,0,,,66,79
129640,set_tempo,40,1,0,,,,,,346821,,,,,,
129660,note_on,20,0,0,,,,,,,,0,,,66,0
129660,note_on,0,0,0,,,,,,,,0,,,63,0
129760,note_on,100,0,0,,,,,,,,0,,,68,71
129760,note_on,0,0,0,,,,,,,,0,,,64,60
129760,note_on,0,0,0,,,,,,,,0,,,59,55
129791,control_change,31,0,0,,,,,,,,0,64,127,,
129820,note_on,29,0,0,,,,,,,,0,,,59,0
129820,note_on,0,0,0,,,,,,,,0,,,64,0
129820,note_on,0,0,0,,,,,,,,0,,,68,0
129840,set_tempo,20,1,0,,,,,,347826,,,,,,
129920,note_on,80,0,0,,,,,,,,0,,,66,61
129920,note_on,0,0,0,,,,,,,,0,,,69,72
129920,note_on,0,0,0,,,,,,,,0,,,61,57
129932,control_change,12,0,0,,,,,,,,0,64,0,,
129980,note_on,48,0,0,,,,,,,,0,,,61,0
129980,note_on,0,0,0,,,,,,,,0,,,69,0
129980,note_on,0,0,0,,,,,,,,0,,,66,0
130000,set_tempo,20,1,0,,,,,,348837,,,,,,
130080,note_on,80,0,0,,,,,,,,0,,,68,62
130080,note_on,0,0,0,,,,,,,,0,,,71,74
130080,note_on,0,0,0,,,,,,,,0,,,59,50
130080,note_on,0,0,0,,,,,,,,0,,,63,59
130140,note_on,60,0,0,,,,,,,,0,,,63,0
130140,note_on,0,0,0,,,,,,,,0,,,68,0
130140,note_on,0,0,0,,,,,,,,0,,,71,0
130140,note_on,0,0,0,,,,,,,,0,,,59,0
130160,set_tempo,20,1,0,,,,,,349854,,,,,,
130240,note_on,80,0,0,,,,,,,,0,,,69,63
130240,note_on,0,0,0,,,,,,,,0,,,73,75
130240,note_on,0,0,0,,,,,,,,0,,,64,61
130300,note_on,60,0,0,,,,,,,,0,,,64,0
130300,note_on,0,0,0,,,,,,,,0,,,73,0
130300,note_on,0,0,0,,,,,,,,0,,,69,0
130320,set_tempo,20,1,0,,,,,,350877,,,,,,
130400,note_on,80,0,0,,,,,,,,0,,,71,65
130400,note_on,0,0,0,,,,,,,,0,,,75,77
130400,note_on,0,0,0,,,,,,,,0,,,66,63
130460,note_on,60,0,0,,,,,,,,0,,,66,0
130460,note_on,0,0,0,,,,,,,,0,,,75,0
130460,note_on,0,0,0,,,,,,,,0,,,71,0
130480,set_tempo,20,1,0,,,,,,351906,,,,,,
130520,set_tempo,40,1,0,,,,,,352858,,,,,,
130560,set_tempo,40,1,0,,,,,,326975,,,,,,
130560,note_on,0,0,0,,,,,,,,0,,,76,57
130560,note_on,0,0,0,,,,,,,,0,,,64,54
130560,note_on,0,0,0,,,,,,,,0,,,68,54
130620,note_on,60,0,0,,,,,,,,0,,,68,0
130620,note_on,0,0,0,,,,,,,,0,,,64,0
130620,note_on,0,0,0,,,,,,,,0,,,76,0
130680,note_on,60,0,0,,,,,,,,0,,,80,49
130740,note_on,60,0,0,,,,,,,,0,,,80,0
130800,note_on,60,0,0,,,,,,,,0,,,83,48
130860,note_on,60,0,0,,,,,,,,0,,,83,0
130920,set_tempo,60,1,0,,,,,,333333,,,,,,
130920,note_on,0,0,0,,,,,,,,0,,,76,46
130980,note_on,60,0,0,,,,,,,,0,,,76,0
131040,note_on,60,0,0,,,,,,,,0,,,76,52
131100,note_on,60,0,0,,,,,,,,0,,,76,0
131160,set_tempo,60,1,0,,,,,,326975,,,,,,
131160,note_on,0,0,0,,,,,,,,0,,,83,49
131220,note_on,60,0,0,,,,,,,,0,,,83,0
131280,note_on,60,0,0,,,,,,,,0,,,80,47
131340,note_on,60,0,0,,,,,,,,0,,,80,0
131400,set_tempo,60,1,0,,,,,,362779,,,,,,
131400,note_on,0,0,0,,,,,,,,0,,,76,47
131460,note_on,60,0,0,,,,,,,,0,,,76,0
131520,set_tempo,60,1,0,,,,,,326975,,,,,,
131520,note_on,0,0,0,,,,,,,,0,,,76,57
131520,note_on,0,0,0,,,,,,,,0,,,64,48
131580,note_on,60,0,0,,,,,,,,0,,,64,0
131580,note_on,0,0,0,,,,,,,,0,,,76,0
131640,note_on,60,0,0,,,,,,,,0,,,81,49
131700,note_on,60,0,0,,,,,,,,0,,,81,0
131760,note_on,60,0,0,,,,,,,,0,,,84,48
131820,note_on,60,0,0,,,,,,,,0,,,84,0
131880,set_tempo,60,1,0,,,,,,334262,,,,,,
131880,note_on,0,0,0,,,,,,,,0,,,76,46
131940,note_on,60,0,0,,,,,,,,0,,,76,0
132000,note_on,60,0,0,,,,,,,,0,,,76,53
132060,note_on,60,0,0,,,,,,,,0,,,76,0
132120,set_tempo,60,1,0,,,,,,327869,,,,,,
132120,note_on,0,0,0,,,,,,,,0,,,84,48
132180,note_on,60,0,0,,,,,,,,0,,,84,0
132240,note_on,60,0,0,,,,,,,,0,,,81,47
132300,note_on,60,0,0,,,,,,,,0,,,81,0
132360,set_tempo,60,1,0,,,,,,357505,,,,,,
132360,note_on,0,0,0,,,,,,,,0,,,76,47
132420,note_on,60,0,0,,,,,,,,0,,,76,0
132480,set_tempo,60,1,0,,,,,,326975,,,,,,
132480,note_on,0,0,0,,,,,,,,0,,,76,57
132480,note_on,0,0,0,,,,,,,,0,,,64,48
132540,note_on,60,0,0,,,,,,,,0,,,64,0
132540,note_on,0,0,0,,,,,,,,0,,,76,0
132600,note_on,60,0,0,,,,,,,,0,,,80,49
132660,note_on,60,0,0,,,,,,,,0,,,80,0
132720,note_on,60,0,0,,,,,,,,0,,,83,48
132780,note_on,60,0,0,,,,,,,,0,,,83,0
132840,set_tempo,60,1,0,,,,,,333333,,,,,,
132840,note_on,0,0,0,,,,,,,,0,,,76,48
132900,note_on,60,0,0,,,,,,,,0,,,76,0
132960,note_on,60,0,0,,,,,,,,0,,,76,56
133020,note_on,60,0,0,,,,,,,,0,,,76,0
133080,set_tempo,60,1,0,,,,,,326975,,,,,,
133080,note_on,0,0,0,,,,,,,,0,,,83,47
133140,note_on,60,0,0,,,,,,,,0,,,83,0
133200,note_on,60,0,0,,,,,,,,0,,,80,47
133260,note_on,60,0,0,,,,,,,,0,,,80,0
133320,set_tempo,60,1,0,,,,,,362779,,,,,,
133320,note_on,0,0,0,,,,,,,,0,,,76,47
133380,note_on,60,0,0,,,,,,,,0,,,76,0
133440,set_tempo,60,1,0,,,,,,327869,,,,,,
133440,note_on,0,0,0,,,,,,,,0,,,75,57
133440,note_on,0,0,0,,,,,,,,0,,,64,48
133500,note_on,60,0,0,,,,,,,,0,,,64,0
133500,note_on,0,0,0,,,,,,,,0,,,75,0
133560,note_on,60,0,0,,,,,,,,0,,,78,49
133620,note_on,60,0,0,,,,,,,,0,,,78,0
133680,note_on,60,0,0,,,,,,,,0,,,83,48
133740,note_on,60,0,0,,,,,,,,0,,,83,0
133800,set_tempo,60,1,0,,,,,,335196,,,,,,
133800,note_on,0,0,0,,,,,,,,0,,,76,47
133860,note_on,60,0,0,,,,,,,,0,,,76,0
133920,note_on,60,0,0,,,,,,,,0,,,76,55
133980,note_on,60,0,0,,,,,,,,0,,,76,0
134040,set_tempo,60,1,0,,,,,,327869,,,,,,
134040,note_on,0,0,0,,,,,,,,0,,,83,53
134100,note_on,60,0,0,,,,,,,,0,,,83,0
134160,note_on,60,0,0,,,,,,,,0,,,78,47
134220,note_on,60,0,0,,,,,,,,0,,,78,0
134280,set_tempo,60,1,0,,,,,,359691,,,,,,
134280,note_on,0,0,0,,,,,,,,0,,,75,47
134340,note_on,60,0,0,,,,,,,,0,,,75,0
134400,set_tempo,60,1,0,,,,,,328767,,,,,,
134400,note_on,0,0,0,,,,,,,,0,,,73,57
134400,note_on,0,0,0,,,,,,,,0,,,64,48
134460,note_on,60,0,0,,,,,,,,0,,,64,0
134460,note_on,0,0,0,,,,,,,,0,,,73,0
134520,note_on,60,0,0,,,,,,,,0,,,76,49
134580,note_on,60,0,0,,,,,,,,0,,,76,0
134640,note_on,60,0,0,,,,,,,,0,,,81,48
134700,note_on,60,0,0,,,,,,,,0,,,81,0
134760,set_tempo,60,1,0,,,,,,335196,,,,,,
134760,note_on,0,0,0,,,,,,,,0,,,76,46
134820,note_on,60,0,0,,,,,,,,0,,,76,0
134880,note_on,60,0,0,,,,,,,,0,,,76,56
134940,note_on,60,0,0,,,,,,,,0,,,76,0
135000,set_tempo,60,1,0,,,,,,327869,,,,,,
135000,note_on,0,0,0,,,,,,,,0,,,81,49
135060,note_on,60,0,0,,,,,,,,0,,,81,0
135120,note_on,60,0,0,,,,,,,,0,,,76,47
135180,note_on,60,0,0,,,,,,,,0,,,76,0
135240,set_tempo,60,1,0,,,,,,362779,,,,,,
135240,note_on,0,0,0,,,,,,,,0,,,73,47
135300,note_on,60,0,0,,,,,,,,0,,,73,0
135360,set_tempo,60,1,0,,,,,,326975,,,,,,
135360,note_on,0,0,0,,,,,,,,0,,,71,57
135360,note_on,0,0,0,,,,,,,,0,,,64,48
135420,note_on,60,0,0,,,,,,,,0,,,64,0
135420,note_on,0,0,0,,,,,,,,0,,,71,0
135480,note_on,60,0,0,,,,,,,,0,,,75,49
135540,note_on,60,0,0,,,,,,,,0,,,75,0
135600,note_on,60,0,0,,,,,,,,0,,,80,48
135660,note_on,60,0,0,,,,,,,,0,,,80,0
135720,set_tempo,60,1,0,,,,,,334262,,,,,,
135720,note_on,0,0,0,,,,,,,,0,,,76,47
135780,note_on,60,0,0,,,,,,,,0,,,76,0
135840,note_on,60,0,0,,,,,,,,0,,,76,55
135900,note_on,60,0,0,,,,,,,,0,,,76,0
135960,set_tempo,60,1,0,,,,,,326975,,,,,,
135960,note_on,0,0,0,,,,,,,,0,,,80,49
136020,note_on,60,0,0,,,,,,,,0,,,80,0
136080,note_on,60,0,0,,,,,,,,0,,,75,47
136140,note_on,60,0,0,,,,,,,,0,,,75,0
136200,set_tempo,60,1,0,,,,,,358594,,,,,,
136200,note_on,0,0,0,,,,,,,,0,,,71,43
136260,note_on,60,0,0,,,,,,,,0,,,71,0
136320,set_tempo,60,1,0,,,,,,326975,,,,,,
136320,note_on,0,0,0,,,,,,,,0,,,69,57
136320,note_on,0,0,0,,,,,,,,0,,,64,48
136380,note_on,60,0,0,,,,,,,,0,,,64,0
136380,note_on,0,0,0,,,,,,,,0,,,69,0
136440,note_on,60,0,0,,,,,,,,0,,,73,49
136500,note_on,60,0,0,,,,,,,,0,,,73,0
136560,note_on,60,0,0,,,,,,,,0,,,78,50
136620,note_on,60,0,0,,,,,,,,0,,,78,0
136680,set_tempo,60,1,0,,,,,,334262,,,,,,
136680,note_on,0,0,0,,,,,,,,0,,,76,45
136740,note_on,60,0,0,,,,,,,,0,,,76,0
136800,note_on,60,0,0,,,,,,,,0,,,76,53
136860,note_on,60,0,0,,,,,,,,0,,,76,0
136920,set_tempo,60,1,0,,,,,,326975,,,,,,
136920,note_on,0,0,0,,,,,,,,0,,,78,46
136980,note_on,60,0,0,,,,,,,,0,,,78,0
137040,note_on,60,0,0,,,,,,,,0,,,73,47
137100,note_on,60,0,0,,,,,,,,0,,,73,0
137160,set_tempo,60,1,0,,,,,,362779,,,,,,
137160,note_on,0,0,0,,,,,,,,0,,,69,47
137220,note_on,60,0,0,,,,,,,,0,,,69,0
137280,set_tempo,60,1,0,,,,,,327869,,,,,,
137280,note_on,0,0,0,,,,,,,,0,,,66,57
137340,note_on,60,0,0,,,,,,,,0,,,66,0
137400,note_on,60,0,0,,,,,,,,0,,,69,49
137460,note_on,60,0,0,,,,,,,,0,,,69,0
137520,note_on,60,0,0,,,,,,,,0,,,75,48
137580,note_on,60,0,0,,,,,,,,0,,,75,0
137640,set_tempo,60,1,0,,,,,,334262,,,,,,
137640,note_on,0,0,0,,,,,,,,0,,,76,47
137700,note_on,60,0,0,,,,,,,,0,,,76,0
137760,note_on,60,0,0,,,,,,,,0,,,76,55
137820,note_on,60,0,0,,,,,,,,0,,,76,0
137880,note_on,60,0,0,,,,,,,,0,,,75,47
137920,set_tempo,40,1,0,,,,,,327869,,,,,,
137940,note_on,20,0,0,,,,,,,,0,,,75,0
138000,note_on,60,0,0,,,,,,,,0,,,69,47
138060,note_on,60,0,0,,,,,,,,0,,,69,0
138120,set_tempo,60,1,0,,,,,,356400,,,,,,
138120,note_on,0,0,0,,,,,,,,0,,,66,41
138180,note_on,60,0,0,,,,,,,,0,,,66,0
138240,set_tempo,60,1,0,,,,,,330579,,,,,,
138240,note_on,0,0,0,,,,,,,,0,,,64,57
138260,set_tempo,20,1,0,,,,,,328767,,,,,,
138280,set_tempo,20,1,0,,,,,,326975,,,,,,
138300,set_tempo,20,1,0,,,,,,324324,,,,,,
138300,note_on,0,0,0,,,,,,,,0,,,64,0
138320,set_tempo,20,1,0,,,,,,322581,,,,,,
138340,set_tempo,20,1,0,,,,,,320856,,,,,,
138360,set_tempo,20,1,0,,,,,,318302,,,,,,
138360,note_on,0,0,0,,,,,,,,0,,,68,49
138420,note_on,60,0,0,,,,,,,,0,,,68,0
138480,note_on,60,0,0,,,,,,,,0,,,76,48
138540,note_on,60,0,0,,,,,,,,0,,,76,0
138600,set_tempo,60,1,0,,,,,,335196,,,,,,
138600,note_on,0,0,0,,,,,,,,0,,,76,47
138660,note_on,60,0,0,,,,,,,,0,,,76,0
138720,note_on,60,0,0,,,,,,,,0,,,76,53
138780,note_on,60,0,0,,,,,,,,0,,,76,0
138840,set_tempo,60,1,0,,,,,,320856,,,,,,
138840,note_on,0,0,0,,,,,,,,0,,,76,51
138900,note_on,60,0,0,,,,,,,,0,,,76,0
138960,note_on,60,0,0,,,,,,,,0,,,68,45
139020,note_on,60,0,0,,,,,,,,0,,,68,0
139080,set_tempo,60,1,0,,,,,,356083,,,,,,
139080,note_on,0,0,0,,,,,,,,0,,,64,39
139140,note_on,60,0,0,,,,,,,,0,,,64,0
139180,set_tempo,40,1,0,,,,,,332410,,,,,,
139200,set_tempo,20,1,0,,,,,,331492,,,,,,
139200,note_on,0,0,0,,,,,,,,0,,,65,61
139220,set_tempo,20,1,0,,,,,,329670,,,,,,
139240,set_tempo,20,1,0,,,,,,327869,,,,,,
139260,set_tempo,20,1,0,,,,,,326087,,,,,,
139260,note_on,0,0,0,,,,,,,,0,,,65,0
139280,set_tempo,20,1,0,,,,,,325203,,,,,,
139300,set_tempo,20,1,0,,,,,,323450,,,,,,
139320,set_tempo,20,1,0,,,,,,321716,,,,,,
139320,note_on,0,0,0,,,,,,,,0,,,69,52
139340,set_tempo,20,1,0,,,,,,320000,,,,,,
139380,note_on,40,0,0,,,,,,,,0,,,69,0
139440,note_on,60,0,0,,,,,,,,0,,,75,53
139500,note_on,60,0,0,,,,,,,,0,,,75,0
139560,set_tempo,60,1,0,,,,,,337079,,,,,,
139560,note_on,0,0,0,,,,,,,,0,,,76,51
139620,note_on,60,0,0,,,,,,,,0,,,76,0
139680,note_on,60,0,0,,,,,,,,0,,,76,61
139740,note_on,60,0,0,,,,,,,,0,,,76,0
139800,set_tempo,60,1,0,,,,,,321716,,,,,,
139800,note_on,0,0,0,,,,,,,,0,,,75,54
139860,note_on,60,0,0,,,,,,,,0,,,75,0
139920,note_on,60,0,0,,,,,,,,0,,,69,47
139980,note_on,60,0,0,,,,,,,,0,,,69,0
140040,set_tempo,60,1,0,,,,,,369231,,,,,,
140040,note_on,0,0,0,,,,,,,,0,,,65,46
140100,note_on,60,0,0,,,,,,,,0,,,65,0
140160,set_tempo,60,1,0,,,,,,333333,,,,,,
140160,note_on,0,0,0,,,,,,,,0,,,64,66
140180,set_tempo,20,1,0,,,,,,331492,,,,,,
140200,set_tempo,20,1,0,,,,,,329670,,,,,,
140220,set_tempo,20,1,0,,,,,,327869,,,,,,
140220,note_on,0,0,0,,,,,,,,0,,,64,0
140240,set_tempo,20,1,0,,,,,,326087,,,,,,
140260,set_tempo,20,1,0,,,,,,324324,,,,,,
140280,set_tempo,20,1,0,,,,,,322581,,,,,,
140280,note_on,0,0,0,,,,,,,,0,,,68,57
140300,set_tempo,20,1,0,,,,,,320856,,,,,,
140320,set_tempo,20,1,0,,,,,,319149,,,,,,
140340,note_on,20,0,0,,,,,,,,0,,,68,0
140400,note_on,60,0,0,,,,,,,,0,,,76,56
140460,note_on,60,0,0,,,,,,,,0,,,76,0
140520,set_tempo,60,1,0,,,,,,332410,,,,,,
140520,note_on,0,0,0,,,,,,,,0,,,76,56
140580,note_on,60,0,0,,,,,,,,0,,,76,0
140640,note_on,60,0,0,,,,,,,,0,,,76,63
140700,note_on,60,0,0,,,,,,,,0,,,76,0
140760,set_tempo,60,1,0,,,,,,322581,,,,,,
140760,note_on,0,0,0,,,,,,,,0,,,76,56
140820,note_on,60,0,0,,,,,,,,0,,,76,0
140880,note_on,60,0,0,,,,,,,,0,,,68,53
140940,note_on,60,0,0,,,,,,,,0,,,68,0
141000,set_tempo,60,1,0,,,,,,372393,,,,,,
141000,note_on,0,0,0,,,,,,,,0,,,64,45
141060,note_on,60,0,0,,,,,,,,0,,,64,0
141120,set_tempo,60,1,0,,,,,,335196,,,,,,
141120,note_on,0,0,0,,,,,,,,0,,,65,69
141180,note_on,60,0,0,,,,,,,,0,,,65,0
141240,note_on,60,0,0,,,,,,,,0,,,69,62
141300,note_on,60,0,0,,,,,,,,0,,,69,0
141360,note_on,60,0,0,,,,,,,,0,,,75,62
141420,note_on,60,0,0,,,,,,,,0,,,75,0
141480,note_on,60,0,0,,,,,,,,0,,,76,57
141540,note_on,60,0,0,,,,,,,,0,,,76,0
141600,set_tempo,60,1,0,,,,,,343466,,,,,,
141600,note_on,0,0,0,,,,,,,,0,,,76,65
141660,note_on,60,0,0,,,,,,,,0,,,76,0
141680,set_tempo,20,1,0,,,,,,344570,,,,,,
141720,set_tempo,40,1,0,,,,,,345702,,,,,,
141720,note_on,0,0,0,,,,,,,,0,,,75,59
141780,note_on,60,0,0,,,,,,,,0,,,75,0
141800,set_tempo,20,1,0,,,,,,346821,,,,,,
141840,set_tempo,40,1,0,,,,,,347967,,,,,,
141840,note_on,0,0,0,,,,,,,,0,,,69,57
141880,set_tempo,40,1,0,,,,,,349101,,,,,,
141900,note_on,20,0,0,,,,,,,,0,,,69,0
141960,set_tempo,60,1,0,,,,,,350263,,,,,,
141960,note_on,0,0,0,,,,,,,,0,,,65,49
142000,set_tempo,40,1,0,,,,,,351412,,,,,,
142020,note_on,20,0,0,,,,,,,,0,,,65,0
142040,set_tempo,20,1,0,,,,,,352589,,,,,,
142080,set_tempo,40,1,0,,,,,,352589,,,,,,
142080,note_on,0,0,0,,,,,,,,0,,,64,86
142140,note_on,60,0,0,,,,,,,,0,,,64,0
142320,note_on,180,0,0,,,,,,,,0,,,68,76
142320,note_on,0,0,0,,,,,,,,0,,,76,76
142380,note_on,60,0,0,,,,,,,,0,,,76,0
142380,note_on,0,0,0,,,,,,,,0,,,68,0
142560,set_tempo,180,1,0,,,,,,359346,,,,,,
143040,set_tempo,480,1,0,,,,,,350939,,,,,,
143040,note_on,0,0,0,,,,,,,,0,,,64,86
143100,note_on,60,0,0,,,,,,,,0,,,64,0
143280,note_on,180,0,0,,,,,,,,0,,,68,78
143280,note_on,0,0,0,,,,,,,,0,,,80,78
143280,note_on,0,0,0,,,,,,,,0,,,76,78
143340,note_on,60,0,0,,,,,,,,0,,,76,0
143340,note_on,0,0,0,,,,,,,,0,,,80,0
143340,note_on,0,0,0,,,,,,,,0,,,68,0
143520,set_tempo,180,1,0,,,,,,372740,,,,,,
144000,set_tempo,480,1,0,,,,,,360144,,,,,,
144000,note_on,0,0,0,,,,,,,,0,,,64,64
144012,set_tempo,12,1,0,,,,,,360425,,,,,,
144060,note_on,48,0,0,,,,,,,,0,,,64,0
144120,note_on,60,0,0,,,,,,,,0,,,68,55
144180,note_on,60,0,0,,,,,,,,0,,,68,0
144189,set_tempo,9,1,0,,,,,,361511,,,,,,
144240,note_on,51,0,0,,,,,,,,0,,,76,54
144300,note_on,60,0,0,,,,,,,,0,,,76,0
144340,set_tempo,40,1,0,,,,,,362603,,,,,,
144360,note_on,20,0,0,,,,,,,,0,,,76,51
144420,note_on,60,0,0,,,,,,,,0,,,76,0
144480,note_on,60,0,0,,,,,,,,0,,,76,58
144517,set_tempo,37,1,0,,,,,,363702,,,,,,
144540,note_on,23,0,0,,,,,,,,0,,,76,0
144600,note_on,60,0,0,,,,,,,,0,,,80,50
144660,note_on,60,0,0,,,,,,,,0,,,80,0
144669,set_tempo,9,1,0,,,,,,364808,,,,,,
144720,note_on,51,0,0,,,,,,,,0,,,71,51
144780,note_on,60,0,0,,,,,,,,0,,,71,0
144820,set_tempo,40,1,0,,,,,,365921,,,,,,
144840,set_tempo,20,1,0,,,,,,389358,,,,,,
144840,note_on,0,0,0,,,,,,,,0,,,68,51
144900,note_on,60,0,0,,,,,,,,0,,,68,0
144960,set_tempo,60,1,0,,,,,,370142,,,,,,
144960,note_on,0,0,0,,,,,,,,0,,,64,62
144972,set_tempo,12,1,0,,,,,,372740,,,,,,
145020,note_on,48,0,0,,,,,,,,0,,,64,0
145080,note_on,60,0,0,,,,,,,,0,,,68,53
145098,set_tempo,18,1,0,,,,,,373902,,,,,,
145140,note_on,42,0,0,,,,,,,,0,,,68,0
145200,note_on,60,0,0,,,,,,,,0,,,76,51
145225,set_tempo,25,1,0,,,,,,375070,,,,,,
145260,note_on,35,0,0,,,,,,,,0,,,76,0
145320,note_on,60,0,0,,,,,,,,0,,,76,49
145351,set_tempo,31,1,0,,,,,,376246,,,,,,
145380,note_on,29,0,0,,,,,,,,0,,,76,0
145440,note_on,60,0,0,,,,,,,,0,,,76,57
145452,set_tempo,12,1,0,,,,,,377430,,,,,,
145500,note_on,48,0,0,,,,,,,,0,,,76,0
145560,note_on,60,0,0,,,,,,,,0,,,80,56
145620,note_on,60,0,0,,,,,,,,0,,,80,0
145680,set_tempo,60,1,0,,,,,,482393,,,,,,
145680,note_on,0,0,0,,,,,,,,0,,,71,50
145712,control_change,32,0,0,,,,,,,,0,64,127,,
145740,note_on,28,0,0,,,,,,,,0,,,71,0
145800,set_tempo,60,1,0,,,,,,967742,,,,,,
145800,note_on,0,0,0,,,,,,,,0,,,68,49
145860,note_on,60,0,0,,,,,,,,0,,,68,0
145920,set_tempo,60,1,0,,,,,,670391,,,,,,
145920,note_on,0,0,0,,,,,,,,0,,,64,55
145920,note_on,0,0,0,,,,,,,,0,,,68,55
145920,note_on,0,0,0,,,,,,,,0,,,76,55
146880,note_on,960,0,0,,,,,,,,0,,,76,0
146880,note_on,0,0,0,,,,,,,,0,,,68,0
146880,note_on,0,0,0,,,,,,,,0,,,64,0
147067,control_change,187,0,0,,,,,,,,0,64,0,,
147840,set_tempo,773,1,0,,,,,,600000,,,,,,
147840,end_of_track,0,1,0,,,,,,,,,,,,
