tick,type,time,meta,track,numerator,denominator,clocks_per_click,notated_32nd_notes_per_beat,key,tempo,program,channel,control,value,note,velocity
0,track_name,0,1,0,,,,,,,,,,,,
0,copyright,0,1,0,,,,,,,,,,,,
0,text,0,1,0,,,,,,,,,,,,
0,text,0,1,0,,,,,,,,,,,,
0,text,0,1,0,,,,,,,,,,,,
0,text,0,1,0,,,,,,,,,,,,
0,text,0,1,0,,,,,,,,,,,,
0,text,0,1,0,,,,,,,,,,,,
0,time_signature,0,1,0,2,4,24,8,,,,,,,,
0,key_signature,0,1,0,,,,,C,,,,,,,
0,set_tempo,0,1,0,,,,,,315789,,,,,,
0,program_change,0,0,0,,,,,,,0,0,,,,
0,control_change,0,0,0,,,,,,,,0,7,100,,
0,control_change,0,0,0,,,,,,,,0,10,64,,
0,control_change,0,0,0,,,,,,,,0,91,127,,
0,text,0,1,0,,,,,,,,,,,,
0,program_change,0,0,0,,,,,,,0,0,,,,
0,control_change,0,0,0,,,,,,,,0,7,100,,
0,control_change,0,0,0,,,,,,,,0,10,64,,
7,control_change,7,0,0,,,,,,,,0,64,0,,
720,set_tempo,713,1,0,,,,,,316623,,,,,,
720,note_on,0,0,0,,,,,,,,0,,,45,34
760,note_on,40,0,0,,,,,,,,0,,,52,37
800,note_on,40,0,0,,,,,,,,0,,,57,41
840,note_on,40,0,0,,,,,,,,0,,,60,44
870,note_on,30,0,0,,,,,,,,0,,,64,44
900,note_on,30,0,0,,,,,,,,0,,,69,48
930,note_on,30,0,0,,,,,,,,0,,,72,53
960,time_signature,30,1,0,5,8,12,8,,,,,,,,
960,set_tempo,0,1,0,,,,,,472441,,,,,,
960,note_on,0,0,0,,,,,,,,0,,,81,61
1070,note_on,110,0,0,,,,,,,,0,,,45,0
1080,note_on,10,0,0,,,,,,,,0,,,52,0
1080,note_on,0,0,0,,,,,,,,0,,,69,0
1080,note_on,0,0,0,,,,,,,,0,,,57,0
1080,note_on,0,0,0,,,,,,,,0,,,60,0
1080,note_on,0,0,0,,,,,,,,0,,,64,0
1080,note_on,0,0,0,,,,,,,,0,,,72,0
1080,note_on,0,0,0,,,,,,,,0,,,81,0
1200,set_tempo,120,1,0,,,,,,363636,,,,,,
1320,set_tempo,120,1,0,,,,,,750000,,,,,,
1380,note_on,60,0,0,,,,,,,,0,,,69,48
1435,note_on,55,0,0,,,,,,,,0,,,69,0
1440,set_tempo,5,1,0,,,,,,472441,,,,,,
1440,note_on,0,0,0,,,,,,,,0,,,69,57
1560,note_on,120,0,0,,,,,,,,0,,,69,0
1560,note_on,0,0,0,,,,,,,,0,,,72,54
1680,set_tempo,120,1,0,,,,,,451128,,,,,,
1680,note_on,0,0,0,,,,,,,,0,,,72,0
1680,note_on,0,0,0,,,,,,,,0,,,71,57
1800,note_on,120,0,0,,,,,,,,0,,,71,0
1800,note_on,0,0,0,,,,,,,,0,,,69,54
1920,set_tempo,120,1,0,,,,,,262009,,,,,,
1920,note_on,0,0,0,,,,,,,,0,,,69,0
1920,note_on,0,0,0,,,,,,,,0,,,52,36
1960,note_on,40,0,0,,,,,,,,0,,,59,38
2000,note_on,40,0,0,,,,,,,,0,,,64,42
2040,note_on,40,0,0,,,,,,,,0,,,68,45
2070,note_on,30,0,0,,,,,,,,0,,,71,45
2100,note_on,30,0,0,,,,,,,,0,,,76,49
2130,note_on,30,0,0,,,,,,,,0,,,80,53
2160,set_tempo,30,1,0,,,,,,472441,,,,,,
2160,note_on,0,0,0,,,,,,,,0,,,88,59
2270,note_on,110,0,0,,,,,,,,0,,,52,0
2280,note_on,10,0,0,,,,,,,,0,,,59,0
2280,note_on,0,0,0,,,,,,,,0,,,76,0
2280,note_on,0,0,0,,,,,,,,0,,,64,0
2280,note_on,0,0,0,,,,,,,,0,,,68,0
2280,note_on,0,0,0,,,,,,,,0,,,71,0
2280,note_on,0,0,0,,,,,,,,0,,,80,0
2280,note_on,0,0,0,,,,,,,,0,,,88,0
2400,set_tempo,120,1,0,,,,,,366972,,,,,,
2520,set_tempo,120,1,0,,,,,,750000,,,,,,
2580,note_on,60,0,0,,,,,,,,0,,,64,48
2635,note_on,55,0,0,,,,,,,,0,,,64,0
2640,set_tempo,5,1,0,,,,,,472441,,,,,,
2640,note_on,0,0,0,,,,,,,,0,,,64,57
2760,note_on,120,0,0,,,,,,,,0,,,64,0
2760,note_on,0,0,0,,,,,,,,0,,,68,54
2880,set_tempo,120,1,0,,,,,,451128,,,,,,
2880,note_on,0,0,0,,,,,,,,0,,,68,0
2880,note_on,0,0,0,,,,,,,,0,,,66,57
3000,note_on,120,0,0,,,,,,,,0,,,66,0
3000,note_on,0,0,0,,,,,,,,0,,,64,54
3120,set_tempo,120,1,0,,,,,,261438,,,,,,
3120,note_on,0,0,0,,,,,,,,0,,,64,0
3120,note_on,0,0,0,,,,,,,,0,,,45,33
3160,note_on,40,0,0,,,,,,,,0,,,52,36
3200,note_on,40,0,0,,,,,,,,0,,,57,39
3240,note_on,40,0,0,,,,,,,,0,,,60,42
3270,note_on,30,0,0,,,,,,,,0,,,64,44
3300,note_on,30,0,0,,,,,,,,0,,,69,47
3330,note_on,30,0,0,,,,,,,,0,,,72,51
3360,set_tempo,30,1,0,,,,,,472441,,,,,,
3360,note_on,0,0,0,,,,,,,,0,,,81,59
3470,note_on,110,0,0,,,,,,,,0,,,45,0
3480,note_on,10,0,0,,,,,,,,0,,,52,0
3480,note_on,0,0,0,,,,,,,,0,,,69,0
3480,note_on,0,0,0,,,,,,,,0,,,57,0
3480,note_on,0,0,0,,,,,,,,0,,,60,0
3480,note_on,0,0,0,,,,,,,,0,,,64,0
3480,note_on,0,0,0,,,,,,,,0,,,72,0
3480,note_on,0,0,0,,,,,,,,0,,,81,0
3600,set_tempo,120,1,0,,,,,,373832,,,,,,
3720,set_tempo,120,1,0,,,,,,750000,,,,,,
3780,note_on,60,0,0,,,,,,,,0,,,69,48
3835,note_on,55,0,0,,,,,,,,0,,,69,0
3840,set_tempo,5,1,0,,,,,,472441,,,,,,
3840,note_on,0,0,0,,,,,,,,0,,,69,57
3960,note_on,120,0,0,,,,,,,,0,,,69,0
3960,note_on,0,0,0,,,,,,,,0,,,72,54
4080,note_on,120,0,0,,,,,,,,0,,,72,0
4080,note_on,0,0,0,,,,,,,,0,,,71,57
4200,note_on,120,0,0,,,,,,,,0,,,71,0
4200,note_on,0,0,0,,,,,,,,0,,,69,54
4320,set_tempo,120,1,0,,,,,,254237,,,,,,
4320,note_on,0,0,0,,,,,,,,0,,,69,0
4320,note_on,0,0,0,,,,,,,,0,,,52,38
4360,note_on,40,0,0,,,,,,,,0,,,59,36
4400,note_on,40,0,0,,,,,,,,0,,,64,41
4440,note_on,40,0,0,,,,,,,,0,,,68,45
4470,note_on,30,0,0,,,,,,,,0,,,71,48
4500,note_on,30,0,0,,,,,,,,0,,,80,51
4530,note_on,30,0,0,,,,,,,,0,,,88,54
4560,set_tempo,30,1,0,,,,,,512821,,,,,,
4560,note_on,0,0,0,,,,,,,,0,,,76,63
4670,note_on,110,0,0,,,,,,,,0,,,52,0
4680,note_on,10,0,0,,,,,,,,0,,,71,0
4680,note_on,0,0,0,,,,,,,,0,,,80,0
4680,note_on,0,0,0,,,,,,,,0,,,64,0
4680,note_on,0,0,0,,,,,,,,0,,,68,0
4680,note_on,0,0,0,,,,,,,,0,,,59,0
4680,note_on,0,0,0,,,,,,,,0,,,88,0
5040,note_on,360,0,0,,,,,,,,0,,,76,0
5040,note_on,0,0,0,,,,,,,,0,,,64,62
5160,note_on,120,0,0,,,,,,,,0,,,64,0
5520,set_tempo,360,1,0,,,,,,261438,,,,,,
5520,note_on,0,0,0,,,,,,,,0,,,45,29
5560,note_on,40,0,0,,,,,,,,0,,,52,32
5600,note_on,40,0,0,,,,,,,,0,,,57,33
5640,note_on,40,0,0,,,,,,,,0,,,60,36
5670,note_on,30,0,0,,,,,,,,0,,,64,36
5700,note_on,30,0,0,,,,,,,,0,,,69,40
5730,note_on,30,0,0,,,,,,,,0,,,72,42
5760,set_tempo,30,1,0,,,,,,483871,,,,,,
5760,note_on,0,0,0,,,,,,,,0,,,81,45
5870,note_on,110,0,0,,,,,,,,0,,,45,0
5880,note_on,10,0,0,,,,,,,,0,,,52,0
5880,note_on,0,0,0,,,,,,,,0,,,69,0
5880,note_on,0,0,0,,,,,,,,0,,,57,0
5880,note_on,0,0,0,,,,,,,,0,,,60,0
5880,note_on,0,0,0,,,,,,,,0,,,64,0
5880,note_on,0,0,0,,,,,,,,0,,,72,0
5880,note_on,0,0,0,,,,,,,,0,,,81,0
6000,set_tempo,120,1,0,,,,,,376176,,,,,,
6120,set_tempo,120,1,0,,,,,,750000,,,,,,
6180,note_on,60,0,0,,,,,,,,0,,,69,36
6235,note_on,55,0,0,,,,,,,,0,,,69,0
6240,set_tempo,5,1,0,,,,,,472441,,,,,,
6240,note_on,0,0,0,,,,,,,,0,,,69,43
6360,note_on,120,0,0,,,,,,,,0,,,69,0
6360,note_on,0,0,0,,,,,,,,0,,,72,40
6480,set_tempo,120,1,0,,,,,,451128,,,,,,
6480,note_on,0,0,0,,,,,,,,0,,,72,0
6480,note_on,0,0,0,,,,,,,,0,,,71,43
6600,note_on,120,0,0,,,,,,,,0,,,71,0
6600,note_on,0,0,0,,,,,,,,0,,,69,40
6720,set_tempo,120,1,0,,,,,,261438,,,,,,
6720,note_on,0,0,0,,,,,,,,0,,,69,0
6720,note_on,0,0,0,,,,,,,,0,,,52,28
6760,note_on,40,0,0,,,,,,,,0,,,59,31
6800,note_on,40,0,0,,,,,,,,0,,,64,33
6840,note_on,40,0,0,,,,,,,,0,,,68,36
6870,note_on,30,0,0,,,,,,,,0,,,71,36
6900,note_on,30,0,0,,,,,,,,0,,,76,39
6930,note_on,30,0,0,,,,,,,,0,,,80,41
6960,set_tempo,30,1,0,,,,,,472441,,,,,,
6960,note_on,0,0,0,,,,,,,,0,,,88,44
7070,note_on,110,0,0,,,,,,,,0,,,52,0
7080,note_on,10,0,0,,,,,,,,0,,,59,0
7080,note_on,0,0,0,,,,,,,,0,,,76,0
7080,note_on,0,0,0,,,,,,,,0,,,64,0
7080,note_on,0,0,0,,,,,,,,0,,,68,0
7080,note_on,0,0,0,,,,,,,,0,,,71,0
7080,note_on,0,0,0,,,,,,,,0,,,80,0
7080,note_on,0,0,0,,,,,,,,0,,,88,0
7200,set_tempo,120,1,0,,,,,,377358,,,,,,
7320,set_tempo,120,1,0,,,,,,750000,,,,,,
7380,note_on,60,0,0,,,,,,,,0,,,64,36
7435,note_on,55,0,0,,,,,,,,0,,,64,0
7440,set_tempo,5,1,0,,,,,,472441,,,,,,
7440,note_on,0,0,0,,,,,,,,0,,,64,43
7560,note_on,120,0,0,,,,,,,,0,,,64,0
7560,note_on,0,0,0,,,,,,,,0,,,68,40
7680,set_tempo,120,1,0,,,,,,454545,,,,,,
7680,note_on,0,0,0,,,,,,,,0,,,68,0
7680,note_on,0,0,0,,,,,,,,0,,,66,43
7800,note_on,120,0,0,,,,,,,,0,,,66,0
7800,note_on,0,0,0,,,,,,,,0,,,64,40
7920,set_tempo,120,1,0,,,,,,260870,,,,,,
7920,note_on,0,0,0,,,,,,,,0,,,64,0
7920,note_on,0,0,0,,,,,,,,0,,,45,28
7960,note_on,40,0,0,,,,,,,,0,,,52,31
8000,note_on,40,0,0,,,,,,,,0,,,57,33
8040,note_on,40,0,0,,,,,,,,0,,,60,36
8070,note_on,30,0,0,,,,,,,,0,,,64,36
8100,note_on,30,0,0,,,,,,,,0,,,69,39
8130,note_on,30,0,0,,,,,,,,0,,,72,41
8160,set_tempo,30,1,0,,,,,,472441,,,,,,
8160,note_on,0,0,0,,,,,,,,0,,,81,44
8270,note_on,110,0,0,,,,,,,,0,,,45,0
8280,note_on,10,0,0,,,,,,,,0,,,52,0
8280,note_on,0,0,0,,,,,,,,0,,,69,0
8280,note_on,0,0,0,,,,,,,,0,,,57,0
8280,note_on,0,0,0,,,,,,,,0,,,60,0
8280,note_on,0,0,0,,,,,,,,0,,,64,0
8280,note_on,0,0,0,,,,,,,,0,,,72,0
8280,note_on,0,0,0,,,,,,,,0,,,81,0
8400,set_tempo,120,1,0,,,,,,377358,,,,,,
8520,set_tempo,120,1,0,,,,,,750000,,,,,,
8580,note_on,60,0,0,,,,,,,,0,,,69,36
8635,note_on,55,0,0,,,,,,,,0,,,69,0
8640,set_tempo,5,1,0,,,,,,472441,,,,,,
8640,note_on,0,0,0,,,,,,,,0,,,69,43
8760,note_on,120,0,0,,,,,,,,0,,,69,0
8760,note_on,0,0,0,,,,,,,,0,,,72,40
8880,note_on,120,0,0,,,,,,,,0,,,72,0
8880,note_on,0,0,0,,,,,,,,0,,,71,43
9000,note_on,120,0,0,,,,,,,,0,,,71,0
9000,note_on,0,0,0,,,,,,,,0,,,69,40
9120,set_tempo,120,1,0,,,,,,250000,,,,,,
9120,note_on,0,0,0,,,,,,,,0,,,69,0
9120,note_on,0,0,0,,,,,,,,0,,,52,28
9160,note_on,40,0,0,,,,,,,,0,,,59,31
9200,note_on,40,0,0,,,,,,,,0,,,64,33
9240,note_on,40,0,0,,,,,,,,0,,,68,36
9270,note_on,30,0,0,,,,,,,,0,,,71,36
9300,note_on,30,0,0,,,,,,,,0,,,80,41
9330,note_on,30,0,0,,,,,,,,0,,,88,43
9360,set_tempo,30,1,0,,,,,,512821,,,,,,
9360,note_on,0,0,0,,,,,,,,0,,,76,53
9470,note_on,110,0,0,,,,,,,,0,,,52,0
9480,note_on,10,0,0,,,,,,,,0,,,71,0
9480,note_on,0,0,0,,,,,,,,0,,,80,0
9480,note_on,0,0,0,,,,,,,,0,,,64,0
9480,note_on,0,0,0,,,,,,,,0,,,68,0
9480,note_on,0,0,0,,,,,,,,0,,,59,0
9480,note_on,0,0,0,,,,,,,,0,,,88,0
9840,note_on,360,0,0,,,,,,,,0,,,76,0
9840,note_on,0,0,0,,,,,,,,0,,,64,53
9960,note_on,120,0,0,,,,,,,,0,,,64,0
10320,set_tempo,360,1,0,,,,,,260870,,,,,,
10320,note_on,0,0,0,,,,,,,,0,,,45,34
10360,note_on,40,0,0,,,,,,,,0,,,52,36
10400,note_on,40,0,0,,,,,,,,0,,,57,40
10440,note_on,40,0,0,,,,,,,,0,,,61,43
10470,note_on,30,0,0,,,,,,,,0,,,76,46
10500,note_on,30,0,0,,,,,,,,0,,,81,50
10530,note_on,30,0,0,,,,,,,,0,,,85,53
10560,set_tempo,30,1,0,,,,,,444444,,,,,,
10560,note_on,0,0,0,,,,,,,,0,,,93,61
10670,note_on,110,0,0,,,,,,,,0,,,45,0
10680,note_on,10,0,0,,,,,,,,0,,,52,0
10680,note_on,0,0,0,,,,,,,,0,,,81,0
10680,note_on,0,0,0,,,,,,,,0,,,57,0
10680,note_on,0,0,0,,,,,,,,0,,,61,0
10680,note_on,0,0,0,,,,,,,,0,,,76,0
10680,note_on,0,0,0,,,,,,,,0,,,85,0
10680,note_on,0,0,0,,,,,,,,0,,,93,0
10800,set_tempo,120,1,0,,,,,,357143,,,,,,
10920,set_tempo,120,1,0,,,,,,750000,,,,,,
10980,note_on,60,0,0,,,,,,,,0,,,81,48
11035,note_on,55,0,0,,,,,,,,0,,,81,0
11040,set_tempo,5,1,0,,,,,,472441,,,,,,
11040,note_on,0,0,0,,,,,,,,0,,,81,57
11160,set_tempo,120,1,0,,,,,,454545,,,,,,
11160,note_on,0,0,0,,,,,,,,0,,,81,0
11160,note_on,0,0,0,,,,,,,,0,,,82,54
11280,note_on,120,0,0,,,,,,,,0,,,82,0
11280,note_on,0,0,0,,,,,,,,0,,,81,57
11400,note_on,120,0,0,,,,,,,,0,,,81,0
11400,note_on,0,0,0,,,,,,,,0,,,79,54
11520,set_tempo,120,1,0,,,,,,254237,,,,,,
11520,note_on,0,0,0,,,,,,,,0,,,79,0
11520,note_on,0,0,0,,,,,,,,0,,,50,36
11560,note_on,40,0,0,,,,,,,,0,,,57,37
11600,note_on,40,0,0,,,,,,,,0,,,62,40
11640,set_tempo,40,1,0,,,,,,252101,,,,,,
11640,note_on,0,0,0,,,,,,,,0,,,65,43
11670,note_on,30,0,0,,,,,,,,0,,,69,45
11700,note_on,30,0,0,,,,,,,,0,,,77,49
11730,note_on,30,0,0,,,,,,,,0,,,81,52
11760,set_tempo,30,1,0,,,,,,472441,,,,,,
11760,note_on,0,0,0,,,,,,,,0,,,89,61
11870,note_on,110,0,0,,,,,,,,0,,,50,0
11880,note_on,10,0,0,,,,,,,,0,,,57,0
11880,note_on,0,0,0,,,,,,,,0,,,77,0
11880,note_on,0,0,0,,,,,,,,0,,,62,0
11880,note_on,0,0,0,,,,,,,,0,,,65,0
11880,note_on,0,0,0,,,,,,,,0,,,69,0
11880,note_on,0,0,0,,,,,,,,0,,,81,0
11880,note_on,0,0,0,,,,,,,,0,,,89,0
12000,set_tempo,120,1,0,,,,,,377358,,,,,,
12120,set_tempo,120,1,0,,,,,,750000,,,,,,
12180,note_on,60,0,0,,,,,,,,0,,,74,48
12235,note_on,55,0,0,,,,,,,,0,,,74,0
12240,set_tempo,5,1,0,,,,,,454545,,,,,,
12240,note_on,0,0,0,,,,,,,,0,,,74,57
12360,note_on,120,0,0,,,,,,,,0,,,74,0
12360,note_on,0,0,0,,,,,,,,0,,,77,54
12480,set_tempo,120,1,0,,,,,,454545,,,,,,
12480,note_on,0,0,0,,,,,,,,0,,,77,0
12480,note_on,0,0,0,,,,,,,,0,,,76,57
12600,note_on,120,0,0,,,,,,,,0,,,76,0
12600,note_on,0,0,0,,,,,,,,0,,,74,54
12720,set_tempo,120,1,0,,,,,,261438,,,,,,
12720,note_on,0,0,0,,,,,,,,0,,,74,0
12720,note_on,0,0,0,,,,,,,,0,,,43,35
12760,note_on,40,0,0,,,,,,,,0,,,50,37
12800,note_on,40,0,0,,,,,,,,0,,,55,41
12840,note_on,40,0,0,,,,,,,,0,,,59,45
12870,note_on,30,0,0,,,,,,,,0,,,74,45
12900,note_on,30,0,0,,,,,,,,0,,,79,48
12930,note_on,30,0,0,,,,,,,,0,,,83,52
12960,set_tempo,30,1,0,,,,,,472441,,,,,,
12960,note_on,0,0,0,,,,,,,,0,,,91,61
13070,note_on,110,0,0,,,,,,,,0,,,43,0
13080,note_on,10,0,0,,,,,,,,0,,,50,0
13080,note_on,0,0,0,,,,,,,,0,,,79,0
13080,note_on,0,0,0,,,,,,,,0,,,55,0
13080,note_on,0,0,0,,,,,,,,0,,,59,0
13080,note_on,0,0,0,,,,,,,,0,,,74,0
13080,note_on,0,0,0,,,,,,,,0,,,83,0
13080,note_on,0,0,0,,,,,,,,0,,,91,0
13200,set_tempo,120,1,0,,,,,,357143,,,,,,
13320,set_tempo,120,1,0,,,,,,750000,,,,,,
13380,note_on,60,0,0,,,,,,,,0,,,79,48
13435,note_on,55,0,0,,,,,,,,0,,,79,0
13440,set_tempo,5,1,0,,,,,,451128,,,,,,
13440,note_on,0,0,0,,,,,,,,0,,,79,57
13560,note_on,120,0,0,,,,,,,,0,,,79,0
13560,note_on,0,0,0,,,,,,,,0,,,81,54
13680,set_tempo,120,1,0,,,,,,451128,,,,,,
13680,note_on,0,0,0,,,,,,,,0,,,81,0
13680,note_on,0,0,0,,,,,,,,0,,,79,57
13800,note_on,120,0,0,,,,,,,,0,,,79,0
13800,note_on,0,0,0,,,,,,,,0,,,77,54
13920,set_tempo,120,1,0,,,,,,251046,,,,,,
13920,note_on,0,0,0,,,,,,,,0,,,77,0
13920,note_on,0,0,0,,,,,,,,0,,,48,39
13960,note_on,40,0,0,,,,,,,,0,,,55,39
14000,note_on,40,0,0,,,,,,,,0,,,60,42
14040,note_on,40,0,0,,,,,,,,0,,,64,45
14070,note_on,30,0,0,,,,,,,,0,,,67,45
14100,note_on,30,0,0,,,,,,,,0,,,76,48
14130,note_on,30,0,0,,,,,,,,0,,,79,52
14160,set_tempo,30,1,0,,,,,,472441,,,,,,
14160,note_on,0,0,0,,,,,,,,0,,,88,61
14270,note_on,110,0,0,,,,,,,,0,,,48,0
14280,note_on,10,0,0,,,,,,,,0,,,55,0
14280,note_on,0,0,0,,,,,,,,0,,,76,0
14280,note_on,0,0,0,,,,,,,,0,,,60,0
14280,note_on,0,0,0,,,,,,,,0,,,64,0
14280,note_on,0,0,0,,,,,,,,0,,,67,0
14280,note_on,0,0,0,,,,,,,,0,,,79,0
14280,note_on,0,0,0,,,,,,,,0,,,88,0
14400,set_tempo,120,1,0,,,,,,378549,,,,,,
14520,set_tempo,120,1,0,,,,,,750000,,,,,,
14580,note_on,60,0,0,,,,,,,,0,,,72,48
14635,note_on,55,0,0,,,,,,,,0,,,72,0
14640,set_tempo,5,1,0,,,,,,472441,,,,,,
14640,note_on,0,0,0,,,,,,,,0,,,72,51
14760,note_on,120,0,0,,,,,,,,0,,,72,0
14760,note_on,0,0,0,,,,,,,,0,,,76,48
14880,set_tempo,120,1,0,,,,,,447761,,,,,,
14880,note_on,0,0,0,,,,,,,,0,,,76,0
14880,note_on,0,0,0,,,,,,,,0,,,74,50
15000,note_on,120,0,0,,,,,,,,0,,,74,0
15000,note_on,0,0,0,,,,,,,,0,,,72,47
15120,set_tempo,120,1,0,,,,,,260870,,,,,,
15120,note_on,0,0,0,,,,,,,,0,,,72,0
15120,note_on,0,0,0,,,,,,,,0,,,50,33
15160,note_on,40,0,0,,,,,,,,0,,,53,35
15200,note_on,40,0,0,,,,,,,,0,,,59,37
15240,note_on,40,0,0,,,,,,,,0,,,65,39
15270,note_on,30,0,0,,,,,,,,0,,,71,39
15300,note_on,30,0,0,,,,,,,,0,,,77,42
15330,note_on,30,0,0,,,,,,,,0,,,83,45
15360,set_tempo,30,1,0,,,,,,472441,,,,,,
15360,note_on,0,0,0,,,,,,,,0,,,89,53
15470,note_on,110,0,0,,,,,,,,0,,,50,0
15480,note_on,10,0,0,,,,,,,,0,,,53,0
15480,note_on,0,0,0,,,,,,,,0,,,77,0
15480,note_on,0,0,0,,,,,,,,0,,,59,0
15480,note_on,0,0,0,,,,,,,,0,,,65,0
15480,note_on,0,0,0,,,,,,,,0,,,71,0
15480,note_on,0,0,0,,,,,,,,0,,,83,0
15480,note_on,0,0,0,,,,,,,,0,,,89,0
15600,set_tempo,120,1,0,,,,,,379747,,,,,,
15720,set_tempo,120,1,0,,,,,,750000,,,,,,
15780,note_on,60,0,0,,,,,,,,0,,,71,40
15835,note_on,55,0,0,,,,,,,,0,,,71,0
15840,set_tempo,5,1,0,,,,,,468750,,,,,,
15840,note_on,0,0,0,,,,,,,,0,,,71,47
15960,note_on,120,0,0,,,,,,,,0,,,71,0
15960,note_on,0,0,0,,,,,,,,0,,,74,45
16080,set_tempo,120,1,0,,,,,,468750,,,,,,
16080,note_on,0,0,0,,,,,,,,0,,,74,0
16080,note_on,0,0,0,,,,,,,,0,,,72,47
16200,note_on,120,0,0,,,,,,,,0,,,72,0
16200,note_on,0,0,0,,,,,,,,0,,,71,44
16320,set_tempo,120,1,0,,,,,,262582,,,,,,
16320,note_on,0,0,0,,,,,,,,0,,,71,0
16320,note_on,0,0,0,,,,,,,,0,,,48,32
16400,note_on,80,0,0,,,,,,,,0,,,60,36
16440,note_on,40,0,0,,,,,,,,0,,,64,38
16470,note_on,30,0,0,,,,,,,,0,,,69,36
16500,note_on,30,0,0,,,,,,,,0,,,76,39
16530,note_on,30,0,0,,,,,,,,0,,,81,42
16560,time_signature,30,1,0,4,8,12,8,,,,,,,,
16560,set_tempo,0,1,0,,,,,,472441,,,,,,
16560,note_on,0,0,0,,,,,,,,0,,,88,48
16670,note_on,110,0,0,,,,,,,,0,,,48,0
16680,note_on,10,0,0,,,,,,,,0,,,81,0
16680,note_on,0,0,0,,,,,,,,0,,,64,0
16680,note_on,0,0,0,,,,,,,,0,,,69,0
16680,note_on,0,0,0,,,,,,,,0,,,60,0
16680,note_on,0,0,0,,,,,,,,0,,,88,0
16680,note_on,0,0,0,,,,,,,,0,,,76,0
16800,set_tempo,120,1,0,,,,,,384615,,,,,,
16920,set_tempo,120,1,0,,,,,,750000,,,,,,
16980,note_on,60,0,0,,,,,,,,0,,,69,40
17035,note_on,55,0,0,,,,,,,,0,,,69,0
17040,set_tempo,5,1,0,,,,,,472441,,,,,,
17040,note_on,0,0,0,,,,,,,,0,,,69,48
17160,note_on,120,0,0,,,,,,,,0,,,69,0
17160,note_on,0,0,0,,,,,,,,0,,,72,45
17280,note_on,120,0,0,,,,,,,,0,,,72,0
17280,note_on,0,0,0,,,,,,,,0,,,71,48
17400,set_tempo,120,1,0,,,,,,579710,,,,,,
17400,note_on,0,0,0,,,,,,,,0,,,71,0
17400,note_on,0,0,0,,,,,,,,0,,,69,45
17520,set_tempo,120,1,0,,,,,,489796,,,,,,
17520,note_on,0,0,0,,,,,,,,0,,,69,0
17520,note_on,0,0,0,,,,,,,,0,,,65,52
17520,note_on,0,0,0,,,,,,,,0,,,53,44
17760,set_tempo,240,1,0,,,,,,535714,,,,,,
17880,note_on,120,0,0,,,,,,,,0,,,75,40
17880,note_on,0,0,0,,,,,,,,0,,,63,36
17880,note_on,0,0,0,,,,,,,,0,,,57,36
18000,note_on,120,0,0,,,,,,,,0,,,57,0
18000,note_on,0,0,0,,,,,,,,0,,,75,0
18000,note_on,0,0,0,,,,,,,,0,,,65,0
18000,note_on,0,0,0,,,,,,,,0,,,53,0
18000,note_on,0,0,0,,,,,,,,0,,,63,0
18000,note_on,0,0,0,,,,,,,,0,,,64,46
18000,note_on,0,0,0,,,,,,,,0,,,52,40
18120,note_on,120,0,0,,,,,,,,0,,,76,40
18240,set_tempo,120,1,0,,,,,,521739,,,,,,
18240,note_on,0,0,0,,,,,,,,0,,,76,0
18240,note_on,0,0,0,,,,,,,,0,,,74,46
18360,set_tempo,120,1,0,,,,,,705882,,,,,,
18360,note_on,0,0,0,,,,,,,,0,,,74,0
18360,note_on,0,0,0,,,,,,,,0,,,71,40
18360,note_on,0,0,0,,,,,,,,0,,,62,33
18360,note_on,0,0,0,,,,,,,,0,,,56,33
18480,time_signature,120,1,0,5,8,12,8,,,,,,,,
18480,set_tempo,0,1,0,,,,,,533333,,,,,,
18480,note_on,0,0,0,,,,,,,,0,,,56,0
18480,note_on,0,0,0,,,,,,,,0,,,71,0
18480,note_on,0,0,0,,,,,,,,0,,,64,0
18480,note_on,0,0,0,,,,,,,,0,,,52,0
18480,note_on,0,0,0,,,,,,,,0,,,62,0
18480,note_on,0,0,0,,,,,,,,0,,,64,45
18480,note_on,0,0,0,,,,,,,,0,,,69,45
18480,note_on,0,0,0,,,,,,,,0,,,60,40
18480,note_on,0,0,0,,,,,,,,0,,,57,40
18960,note_on,480,0,0,,,,,,,,0,,,57,0
18960,note_on,0,0,0,,,,,,,,0,,,64,0
18960,note_on,0,0,0,,,,,,,,0,,,69,0
18960,note_on,0,0,0,,,,,,,,0,,,60,0
18960,note_on,0,0,0,,,,,,,,0,,,81,40
18960,note_on,0,0,0,,,,,,,,0,,,72,40
18960,note_on,0,0,0,,,,,,,,0,,,69,33
18960,note_on,0,0,0,,,,,,,,0,,,64,33
19080,note_on,120,0,0,,,,,,,,0,,,64,0
19080,note_on,0,0,0,,,,,,,,0,,,81,0
19080,note_on,0,0,0,,,,,,,,0,,,72,0
19080,note_on,0,0,0,,,,,,,,0,,,69,0
19440,set_tempo,360,1,0,,,,,,357143,,,,,,
19440,note_on,0,0,0,,,,,,,,0,,,45,29
19444,control_change,4,0,0,,,,,,,,0,64,127,,
19480,note_on,36,0,0,,,,,,,,0,,,52,32
19520,note_on,40,0,0,,,,,,,,0,,,57,33
19560,note_on,40,0,0,,,,,,,,0,,,61,36
19590,note_on,30,0,0,,,,,,,,0,,,76,36
19620,note_on,30,0,0,,,,,,,,0,,,81,40
19650,note_on,30,0,0,,,,,,,,0,,,85,42
19680,set_tempo,30,1,0,,,,,,495868,,,,,,
19680,note_on,0,0,0,,,,,,,,0,,,93,45
19790,note_on,110,0,0,,,,,,,,0,,,45,0
19800,note_on,10,0,0,,,,,,,,0,,,52,0
19800,note_on,0,0,0,,,,,,,,0,,,81,0
19800,note_on,0,0,0,,,,,,,,0,,,57,0
19800,note_on,0,0,0,,,,,,,,0,,,61,0
19800,note_on,0,0,0,,,,,,,,0,,,76,0
19800,note_on,0,0,0,,,,,,,,0,,,85,0
19800,note_on,0,0,0,,,,,,,,0,,,93,0
19920,set_tempo,120,1,0,,,,,,447761,,,,,,
19938,control_change,18,0,0,,,,,,,,0,64,0,,
20040,set_tempo,102,1,0,,,,,,560748,,,,,,
20100,note_on,60,0,0,,,,,,,,0,,,81,36
20155,note_on,55,0,0,,,,,,,,0,,,81,0
20160,set_tempo,5,1,0,,,,,,481928,,,,,,
20160,note_on,0,0,0,,,,,,,,0,,,81,43
20160,note_on,0,0,0,,,,,,,,0,,,61,27
20160,note_on,0,0,0,,,,,,,,0,,,64,27
20160,note_on,0,0,0,,,,,,,,0,,,69,32
20280,note_on,120,0,0,,,,,,,,0,,,81,0
20280,note_on,0,0,0,,,,,,,,0,,,82,40
20400,note_on,120,0,0,,,,,,,,0,,,82,0
20400,note_on,0,0,0,,,,,,,,0,,,69,0
20400,note_on,0,0,0,,,,,,,,0,,,64,0
20400,note_on,0,0,0,,,,,,,,0,,,61,0
20400,note_on,0,0,0,,,,,,,,0,,,81,43
20520,note_on,120,0,0,,,,,,,,0,,,81,0
20520,note_on,0,0,0,,,,,,,,0,,,79,40
20640,set_tempo,120,1,0,,,,,,357143,,,,,,
20640,note_on,0,0,0,,,,,,,,0,,,79,0
20640,note_on,0,0,0,,,,,,,,0,,,50,29
20700,note_on,60,0,0,,,,,,,,0,,,57,32
20704,control_change,4,0,0,,,,,,,,0,64,127,,
20760,note_on,56,0,0,,,,,,,,0,,,65,36
20790,note_on,30,0,0,,,,,,,,0,,,69,36
20820,note_on,30,0,0,,,,,,,,0,,,77,40
20850,note_on,30,0,0,,,,,,,,0,,,81,42
20880,set_tempo,30,1,0,,,,,,500000,,,,,,
20880,note_on,0,0,0,,,,,,,,0,,,89,45
20990,note_on,110,0,0,,,,,,,,0,,,50,0
21000,note_on,10,0,0,,,,,,,,0,,,81,0
21000,note_on,0,0,0,,,,,,,,0,,,65,0
21000,note_on,0,0,0,,,,,,,,0,,,69,0
21000,note_on,0,0,0,,,,,,,,0,,,57,0
21000,note_on,0,0,0,,,,,,,,0,,,89,0
21000,note_on,0,0,0,,,,,,,,0,,,77,0
21116,control_change,116,0,0,,,,,,,,0,64,0,,
21120,set_tempo,4,1,0,,,,,,428571,,,,,,
21240,set_tempo,120,1,0,,,,,,560748,,,,,,
21300,note_on,60,0,0,,,,,,,,0,,,74,36
21355,note_on,55,0,0,,,,,,,,0,,,74,0
21360,set_tempo,5,1,0,,,,,,476190,,,,,,
21360,note_on,0,0,0,,,,,,,,0,,,74,43
21360,note_on,0,0,0,,,,,,,,0,,,62,27
21360,note_on,0,0,0,,,,,,,,0,,,65,27
21360,note_on,0,0,0,,,,,,,,0,,,69,32
21480,note_on,120,0,0,,,,,,,,0,,,74,0
21480,note_on,0,0,0,,,,,,,,0,,,77,40
21600,note_on,120,0,0,,,,,,,,0,,,77,0
21600,note_on,0,0,0,,,,,,,,0,,,69,0
21600,note_on,0,0,0,,,,,,,,0,,,65,0
21600,note_on,0,0,0,,,,,,,,0,,,62,0
21600,note_on,0,0,0,,,,,,,,0,,,76,43
21720,note_on,120,0,0,,,,,,,,0,,,76,0
21720,note_on,0,0,0,,,,,,,,0,,,74,40
21840,set_tempo,120,1,0,,,,,,292697,,,,,,
21840,note_on,0,0,0,,,,,,,,0,,,74,0
21840,note_on,0,0,0,,,,,,,,0,,,43,29
21886,control_change,46,0,0,,,,,,,,0,64,127,,
21900,note_on,14,0,0,,,,,,,,0,,,50,32
21960,note_on,60,0,0,,,,,,,,0,,,59,36
21990,note_on,30,0,0,,,,,,,,0,,,74,36
22020,note_on,30,0,0,,,,,,,,0,,,79,40
22050,note_on,30,0,0,,,,,,,,0,,,83,42
22080,set_tempo,30,1,0,,,,,,502092,,,,,,
22080,note_on,0,0,0,,,,,,,,0,,,91,45
22190,note_on,110,0,0,,,,,,,,0,,,43,0
22200,note_on,10,0,0,,,,,,,,0,,,83,0
22200,note_on,0,0,0,,,,,,,,0,,,59,0
22200,note_on,0,0,0,,,,,,,,0,,,74,0
22200,note_on,0,0,0,,,,,,,,0,,,50,0
22200,note_on,0,0,0,,,,,,,,0,,,91,0
22200,note_on,0,0,0,,,,,,,,0,,,79,0
22320,set_tempo,120,1,0,,,,,,428571,,,,,,
22345,control_change,25,0,0,,,,,,,,0,64,0,,
22440,set_tempo,95,1,0,,,,,,588235,,,,,,
22500,note_on,60,0,0,,,,,,,,0,,,79,36
22555,note_on,55,0,0,,,,,,,,0,,,79,0
22560,set_tempo,5,1,0,,,,,,480000,,,,,,
22560,note_on,0,0,0,,,,,,,,0,,,79,43
22560,note_on,0,0,0,,,,,,,,0,,,59,27
22560,note_on,0,0,0,,,,,,,,0,,,62,27
22560,note_on,0,0,0,,,,,,,,0,,,67,32
22680,note_on,120,0,0,,,,,,,,0,,,79,0
22680,note_on,0,0,0,,,,,,,,0,,,81,40
22800,note_on,120,0,0,,,,,,,,0,,,81,0
22800,note_on,0,0,0,,,,,,,,0,,,67,0
22800,note_on,0,0,0,,,,,,,,0,,,62,0
22800,note_on,0,0,0,,,,,,,,0,,,59,0
22800,note_on,0,0,0,,,,,,,,0,,,79,43
22920,note_on,120,0,0,,,,,,,,0,,,79,0
22920,note_on,0,0,0,,,,,,,,0,,,77,40
23040,set_tempo,120,1,0,,,,,,357143,,,,,,
23040,note_on,0,0,0,,,,,,,,0,,,77,0
23040,note_on,0,0,0,,,,,,,,0,,,48,29
23100,note_on,60,0,0,,,,,,,,0,,,55,32
23114,control_change,14,0,0,,,,,,,,0,64,127,,
23160,note_on,46,0,0,,,,,,,,0,,,64,36
23190,note_on,30,0,0,,,,,,,,0,,,67,36
23220,note_on,30,0,0,,,,,,,,0,,,76,40
23250,note_on,30,0,0,,,,,,,,0,,,79,42
23280,set_tempo,30,1,0,,,,,,504202,,,,,,
23280,note_on,0,0,0,,,,,,,,0,,,88,45
23390,note_on,110,0,0,,,,,,,,0,,,48,0
23400,note_on,10,0,0,,,,,,,,0,,,79,0
23400,note_on,0,0,0,,,,,,,,0,,,64,0
23400,note_on,0,0,0,,,,,,,,0,,,67,0
23400,note_on,0,0,0,,,,,,,,0,,,55,0
23400,note_on,0,0,0,,,,,,,,0,,,88,0
23400,note_on,0,0,0,,,,,,,,0,,,76,0
23520,set_tempo,120,1,0,,,,,,428571,,,,,,
23520,control_change,0,0,0,,,,,,,,0,64,0,,
23640,set_tempo,120,1,0,,,,,,542986,,,,,,
23700,note_on,60,0,0,,,,,,,,0,,,72,36
23755,note_on,55,0,0,,,,,,,,0,,,72,0
23760,set_tempo,5,1,0,,,,,,472441,,,,,,
23760,note_on,0,0,0,,,,,,,,0,,,72,46
23760,note_on,0,0,0,,,,,,,,0,,,64,29
23760,note_on,0,0,0,,,,,,,,0,,,67,35
23880,note_on,120,0,0,,,,,,,,0,,,72,0
23880,note_on,0,0,0,,,,,,,,0,,,76,44
24000,note_on,120,0,0,,,,,,,,0,,,76,0
24000,note_on,0,0,0,,,,,,,,0,,,67,0
24000,note_on,0,0,0,,,,,,,,0,,,64,0
24000,note_on,0,0,0,,,,,,,,0,,,74,46
24120,note_on,120,0,0,,,,,,,,0,,,74,0
24120,note_on,0,0,0,,,,,,,,0,,,72,44
24240,set_tempo,120,1,0,,,,,,309294,,,,,,
24240,note_on,0,0,0,,,,,,,,0,,,72,0
24240,note_on,0,0,0,,,,,,,,0,,,50,32
24291,control_change,51,0,0,,,,,,,,0,64,127,,
24300,note_on,9,0,0,,,,,,,,0,,,58,36
24360,note_on,60,0,0,,,,,,,,0,,,65,39
24420,note_on,60,0,0,,,,,,,,0,,,70,40
24450,note_on,30,0,0,,,,,,,,0,,,77,44
24480,set_tempo,30,1,0,,,,,,506329,,,,,,
24480,note_on,0,0,0,,,,,,,,0,,,89,50
24500,note_on,20,0,0,,,,,,,,0,,,58,0
24590,note_on,90,0,0,,,,,,,,0,,,50,0
24600,note_on,10,0,0,,,,,,,,0,,,77,0
24600,note_on,0,0,0,,,,,,,,0,,,70,0
24600,note_on,0,0,0,,,,,,,,0,,,89,0
24600,note_on,0,0,0,,,,,,,,0,,,65,0
24720,set_tempo,120,1,0,,,,,,428571,,,,,,
24741,control_change,21,0,0,,,,,,,,0,64,0,,
24840,set_tempo,99,1,0,,,,,,491803,,,,,,
24900,note_on,60,0,0,,,,,,,,0,,,70,39
24955,note_on,55,0,0,,,,,,,,0,,,70,0
24960,set_tempo,5,1,0,,,,,,472441,,,,,,
24960,note_on,0,0,0,,,,,,,,0,,,70,46
24960,note_on,0,0,0,,,,,,,,0,,,65,35
24960,note_on,0,0,0,,,,,,,,0,,,62,29
25080,note_on,120,0,0,,,,,,,,0,,,70,0
25080,note_on,0,0,0,,,,,,,,0,,,74,44
25200,note_on,120,0,0,,,,,,,,0,,,74,0
25200,note_on,0,0,0,,,,,,,,0,,,62,0
25200,note_on,0,0,0,,,,,,,,0,,,65,0
25200,note_on,0,0,0,,,,,,,,0,,,72,46
25320,note_on,120,0,0,,,,,,,,0,,,72,0
25320,note_on,0,0,0,,,,,,,,0,,,70,44
25440,set_tempo,120,1,0,,,,,,357143,,,,,,
25440,note_on,0,0,0,,,,,,,,0,,,70,0
25440,note_on,0,0,0,,,,,,,,0,,,48,32
25500,note_on,60,0,0,,,,,,,,0,,,60,36
25532,control_change,32,0,0,,,,,,,,0,64,127,,
25560,note_on,28,0,0,,,,,,,,0,,,64,39
25620,note_on,60,0,0,,,,,,,,0,,,69,40
25650,note_on,30,0,0,,,,,,,,0,,,76,44
25680,time_signature,30,1,0,4,8,12,8,,,,,,,,
25680,set_tempo,0,1,0,,,,,,502092,,,,,,
25680,note_on,0,0,0,,,,,,,,0,,,88,50
25700,note_on,20,0,0,,,,,,,,0,,,60,0
25790,note_on,90,0,0,,,,,,,,0,,,48,0
25800,note_on,10,0,0,,,,,,,,0,,,76,0
25800,note_on,0,0,0,,,,,,,,0,,,69,0
25800,note_on,0,0,0,,,,,,,,0,,,88,0
25800,note_on,0,0,0,,,,,,,,0,,,64,0
25909,control_change,109,0,0,,,,,,,,0,64,0,,
25920,set_tempo,11,1,0,,,,,,428571,,,,,,
26040,set_tempo,120,1,0,,,,,,750000,,,,,,
26100,note_on,60,0,0,,,,,,,,0,,,69,37
26155,note_on,55,0,0,,,,,,,,0,,,69,0
26160,set_tempo,5,1,0,,,,,,495868,,,,,,
26160,note_on,0,0,0,,,,,,,,0,,,69,45
26160,note_on,0,0,0,,,,,,,,0,,,64,34
26160,note_on,0,0,0,,,,,,,,0,,,60,28
26280,note_on,120,0,0,,,,,,,,0,,,69,0
26280,note_on,0,0,0,,,,,,,,0,,,72,42
26400,note_on,120,0,0,,,,,,,,0,,,72,0
26400,note_on,0,0,0,,,,,,,,0,,,60,0
26400,note_on,0,0,0,,,,,,,,0,,,64,0
26400,note_on,0,0,0,,,,,,,,0,,,71,45
26520,set_tempo,120,1,0,,,,,,579710,,,,,,
26520,note_on,0,0,0,,,,,,,,0,,,71,0
26520,note_on,0,0,0,,,,,,,,0,,,69,42
26640,set_tempo,120,1,0,,,,,,510638,,,,,,
26640,note_on,0,0,0,,,,,,,,0,,,69,0
26640,note_on,0,0,0,,,,,,,,0,,,65,45
26640,control_change,0,0,0,,,,,,,,0,64,0,,
26640,note_on,0,0,0,,,,,,,,0,,,53,37
26880,set_tempo,240,1,0,,,,,,535714,,,,,,
27000,set_tempo,120,1,0,,,,,,576923,,,,,,
27000,note_on,0,0,0,,,,,,,,0,,,75,37
27000,note_on,0,0,0,,,,,,,,0,,,63,34
27000,note_on,0,0,0,,,,,,,,0,,,57,34
27120,set_tempo,120,1,0,,,,,,618620,,,,,,
27120,note_on,0,0,0,,,,,,,,0,,,57,0
27120,note_on,0,0,0,,,,,,,,0,,,75,0
27120,note_on,0,0,0,,,,,,,,0,,,65,0
27120,note_on,0,0,0,,,,,,,,0,,,53,0
27120,note_on,0,0,0,,,,,,,,0,,,63,0
27120,note_on,0,0,0,,,,,,,,0,,,64,44
27120,note_on,0,0,0,,,,,,,,0,,,52,37
27240,note_on,120,0,0,,,,,,,,0,,,76,37
27360,set_tempo,120,1,0,,,,,,535762,,,,,,
27360,note_on,0,0,0,,,,,,,,0,,,76,0
27360,note_on,0,0,0,,,,,,,,0,,,74,44
27480,set_tempo,120,1,0,,,,,,937647,,,,,,
27480,note_on,0,0,0,,,,,,,,0,,,74,0
27480,note_on,0,0,0,,,,,,,,0,,,71,37
27480,note_on,0,0,0,,,,,,,,0,,,62,31
27480,note_on,0,0,0,,,,,,,,0,,,56,31
27600,set_tempo,120,1,0,,,,,,674233,,,,,,
27600,note_on,0,0,0,,,,,,,,0,,,56,0
27600,note_on,0,0,0,,,,,,,,0,,,71,0
27600,note_on,0,0,0,,,,,,,,0,,,64,0
27600,note_on,0,0,0,,,,,,,,0,,,52,0
27600,note_on,0,0,0,,,,,,,,0,,,62,0
27600,note_on,0,0,0,,,,,,,,0,,,64,43
27600,note_on,0,0,0,,,,,,,,0,,,69,43
27600,note_on,0,0,0,,,,,,,,0,,,60,37
27600,note_on,0,0,0,,,,,,,,0,,,57,37
27791,control_change,191,0,0,,,,,,,,0,64,127,,
28080,set_tempo,289,1,0,,,,,,857143,,,,,,
28080,note_on,0,0,0,,,,,,,,0,,,57,0
28080,note_on,0,0,0,,,,,,,,0,,,64,0
28080,note_on,0,0,0,,,,,,,,0,,,69,0
28080,note_on,0,0,0,,,,,,,,0,,,60,0
28080,note_on,0,0,0,,,,,,,,0,,,81,37
28080,note_on,0,0,0,,,,,,,,0,,,72,37
28080,note_on,0,0,0,,,,,,,,0,,,69,31
28080,note_on,0,0,0,,,,,,,,0,,,64,31
28200,note_on,120,0,0,,,,,,,,0,,,64,0
28200,note_on,0,0,0,,,,,,,,0,,,81,0
28200,note_on,0,0,0,,,,,,,,0,,,72,0
28200,note_on,0,0,0,,,,,,,,0,,,69,0
28264,control_change,64,0,0,,,,,,,,0,64,0,,
28440,set_tempo,176,1,0,,,,,,472441,,,,,,
28480,marker,40,1,0,,,,,,,,,,,,
28480,note_on,0,0,0,,,,,,,,0,,,72,41
28520,note_on,40,0,0,,,,,,,,0,,,72,0
28520,note_on,0,0,0,,,,,,,,0,,,81,45
28560,set_tempo,40,1,0,,,,,,485830,,,,,,
28560,note_on,0,0,0,,,,,,,,0,,,81,0
28560,note_on,0,0,0,,,,,,,,0,,,88,58
28560,note_on,0,0,0,,,,,,,,0,,,57,61
28650,note_on,90,0,0,,,,,,,,0,,,57,0
28650,note_on,0,0,0,,,,,,,,0,,,88,0
28720,note_on,70,0,0,,,,,,,,0,,,84,49
28800,set_tempo,80,1,0,,,,,,451128,,,,,,
28840,note_on,40,0,0,,,,,,,,0,,,84,0
28880,note_on,40,0,0,,,,,,,,0,,,81,49
28920,set_tempo,40,1,0,,,,,,497925,,,,,,
28920,note_on,0,0,0,,,,,,,,0,,,57,48
28980,note_on,60,0,0,,,,,,,,0,,,57,0
29000,note_on,20,0,0,,,,,,,,0,,,81,0
29040,set_tempo,40,1,0,,,,,,478088,,,,,,
29040,note_on,0,0,0,,,,,,,,0,,,76,52
29040,note_on,0,0,0,,,,,,,,0,,,57,57
29160,note_on,120,0,0,,,,,,,,0,,,57,0
29160,note_on,0,0,0,,,,,,,,0,,,76,0
29160,note_on,0,0,0,,,,,,,,0,,,60,54
29200,note_on,40,0,0,,,,,,,,0,,,72,48
29280,note_on,80,0,0,,,,,,,,0,,,60,0
29280,note_on,0,0,0,,,,,,,,0,,,59,57
29320,note_on,40,0,0,,,,,,,,0,,,72,0
29360,note_on,40,0,0,,,,,,,,0,,,69,48
29400,set_tempo,40,1,0,,,,,,504202,,,,,,
29400,note_on,0,0,0,,,,,,,,0,,,59,0
29400,note_on,0,0,0,,,,,,,,0,,,57,54
29440,note_on,40,0,0,,,,,,,,0,,,69,0
29440,note_on,0,0,0,,,,,,,,0,,,68,41
29480,note_on,40,0,0,,,,,,,,0,,,68,0
29480,note_on,0,0,0,,,,,,,,0,,,76,45
29520,set_tempo,40,1,0,,,,,,483871,,,,,,
29520,note_on,0,0,0,,,,,,,,0,,,76,0
29520,note_on,0,0,0,,,,,,,,0,,,57,0
29520,note_on,0,0,0,,,,,,,,0,,,83,61
29520,note_on,0,0,0,,,,,,,,0,,,64,59
29610,note_on,90,0,0,,,,,,,,0,,,64,0
29610,note_on,0,0,0,,,,,,,,0,,,83,0
29680,note_on,70,0,0,,,,,,,,0,,,80,54
29760,set_tempo,80,1,0,,,,,,447761,,,,,,
29800,note_on,40,0,0,,,,,,,,0,,,80,0
29840,note_on,40,0,0,,,,,,,,0,,,76,53
29880,set_tempo,40,1,0,,,,,,500000,,,,,,
29880,note_on,0,0,0,,,,,,,,0,,,52,48
29940,note_on,60,0,0,,,,,,,,0,,,52,0
29960,note_on,20,0,0,,,,,,,,0,,,76,0
30000,set_tempo,40,1,0,,,,,,478088,,,,,,
30000,note_on,0,0,0,,,,,,,,0,,,71,52
30000,note_on,0,0,0,,,,,,,,0,,,52,57
30120,note_on,120,0,0,,,,,,,,0,,,52,0
30120,note_on,0,0,0,,,,,,,,0,,,71,0
30120,note_on,0,0,0,,,,,,,,0,,,55,54
30160,note_on,40,0,0,,,,,,,,0,,,68,45
30240,note_on,80,0,0,,,,,,,,0,,,55,0
30240,note_on,0,0,0,,,,,,,,0,,,53,57
30280,note_on,40,0,0,,,,,,,,0,,,68,0
30320,note_on,40,0,0,,,,,,,,0,,,64,45
30360,set_tempo,40,1,0,,,,,,500000,,,,,,
30360,note_on,0,0,0,,,,,,,,0,,,53,0
30360,note_on,0,0,0,,,,,,,,0,,,52,54
30400,note_on,40,0,0,,,,,,,,0,,,64,0
30400,note_on,0,0,0,,,,,,,,0,,,72,41
30440,note_on,40,0,0,,,,,,,,0,,,72,0
30440,note_on,0,0,0,,,,,,,,0,,,81,45
30480,set_tempo,40,1,0,,,,,,481928,,,,,,
30480,note_on,0,0,0,,,,,,,,0,,,81,0
30480,note_on,0,0,0,,,,,,,,0,,,52,0
30480,note_on,0,0,0,,,,,,,,0,,,88,58
30480,note_on,0,0,0,,,,,,,,0,,,57,61
30480,note_on,0,0,0,,,,,,,,0,,,45,38
30520,note_on,40,0,0,,,,,,,,0,,,52,41
30560,note_on,40,0,0,,,,,,,,0,,,57,45
30570,note_on,10,0,0,,,,,,,,0,,,57,0
30570,note_on,0,0,0,,,,,,,,0,,,88,0
30600,note_on,30,0,0,,,,,,,,0,,,60,48
30640,note_on,40,0,0,,,,,,,,0,,,84,49
30720,set_tempo,80,1,0,,,,,,452830,,,,,,
30740,note_on,20,0,0,,,,,,,,0,,,57,0
30760,note_on,20,0,0,,,,,,,,0,,,84,0
30800,note_on,40,0,0,,,,,,,,0,,,81,49
30830,note_on,30,0,0,,,,,,,,0,,,45,0
30840,set_tempo,10,1,0,,,,,,493827,,,,,,
30840,note_on,0,0,0,,,,,,,,0,,,60,0
30840,note_on,0,0,0,,,,,,,,0,,,52,0
30840,note_on,0,0,0,,,,,,,,0,,,57,48
30900,note_on,60,0,0,,,,,,,,0,,,57,0
30920,note_on,20,0,0,,,,,,,,0,,,81,0
30960,set_tempo,40,1,0,,,,,,478088,,,,,,
30960,note_on,0,0,0,,,,,,,,0,,,76,52
30960,note_on,0,0,0,,,,,,,,0,,,57,57
31080,note_on,120,0,0,,,,,,,,0,,,57,0
31080,note_on,0,0,0,,,,,,,,0,,,76,0
31080,note_on,0,0,0,,,,,,,,0,,,60,54
31120,note_on,40,0,0,,,,,,,,0,,,72,48
31200,note_on,80,0,0,,,,,,,,0,,,60,0
31200,note_on,0,0,0,,,,,,,,0,,,59,57
31240,note_on,40,0,0,,,,,,,,0,,,72,0
31280,note_on,40,0,0,,,,,,,,0,,,69,48
31320,set_tempo,40,1,0,,,,,,618557,,,,,,
31320,note_on,0,0,0,,,,,,,,0,,,59,0
31320,note_on,0,0,0,,,,,,,,0,,,57,54
31400,note_on,80,0,0,,,,,,,,0,,,69,0
31440,set_tempo,40,1,0,,,,,,560748,,,,,,
31440,note_on,0,0,0,,,,,,,,0,,,57,0
31440,note_on,0,0,0,,,,,,,,0,,,64,61
31600,note_on,160,0,0,,,,,,,,0,,,68,49
31600,note_on,0,0,0,,,,,,,,0,,,76,49
31680,set_tempo,80,1,0,,,,,,645161,,,,,,
31720,note_on,40,0,0,,,,,,,,0,,,76,0
31720,note_on,0,0,0,,,,,,,,0,,,68,0
31760,note_on,40,0,0,,,,,,,,0,,,71,46
31760,note_on,0,0,0,,,,,,,,0,,,80,46
31880,note_on,120,0,0,,,,,,,,0,,,80,0
31880,note_on,0,0,0,,,,,,,,0,,,71,0
31920,note_on,40,0,0,,,,,,,,0,,,64,0
31920,note_on,0,0,0,,,,,,,,0,,,88,44
31920,note_on,0,0,0,,,,,,,,0,,,76,44
31920,note_on,0,0,0,,,,,,,,0,,,52,46
32040,note_on,120,0,0,,,,,,,,0,,,52,0
32040,note_on,0,0,0,,,,,,,,0,,,76,0
32040,note_on,0,0,0,,,,,,,,0,,,88,0
32160,set_tempo,120,1,0,,,,,,600000,,,,,,
32280,set_tempo,120,1,0,,,,,,472441,,,,,,
32320,note_on,40,0,0,,,,,,,,0,,,72,32
32360,note_on,40,0,0,,,,,,,,0,,,72,0
32360,note_on,0,0,0,,,,,,,,0,,,81,36
32400,set_tempo,40,1,0,,,,,,485830,,,,,,
32400,note_on,0,0,0,,,,,,,,0,,,81,0
32400,note_on,0,0,0,,,,,,,,0,,,88,46
32400,note_on,0,0,0,,,,,,,,0,,,57,48
32490,note_on,90,0,0,,,,,,,,0,,,57,0
32490,note_on,0,0,0,,,,,,,,0,,,88,0
32560,note_on,70,0,0,,,,,,,,0,,,84,39
32640,set_tempo,80,1,0,,,,,,436364,,,,,,
32680,note_on,40,0,0,,,,,,,,0,,,84,0
32720,note_on,40,0,0,,,,,,,,0,,,81,39
32760,set_tempo,40,1,0,,,,,,497925,,,,,,
32760,note_on,0,0,0,,,,,,,,0,,,57,38
32820,note_on,60,0,0,,,,,,,,0,,,57,0
32840,note_on,20,0,0,,,,,,,,0,,,81,0
32880,set_tempo,40,1,0,,,,,,478088,,,,,,
32880,note_on,0,0,0,,,,,,,,0,,,76,41
32880,note_on,0,0,0,,,,,,,,0,,,57,45
33000,note_on,120,0,0,,,,,,,,0,,,57,0
33000,note_on,0,0,0,,,,,,,,0,,,76,0
33000,note_on,0,0,0,,,,,,,,0,,,60,43
33040,note_on,40,0,0,,,,,,,,0,,,72,38
33120,note_on,80,0,0,,,,,,,,0,,,60,0
33120,note_on,0,0,0,,,,,,,,0,,,59,45
33160,note_on,40,0,0,,,,,,,,0,,,72,0
33200,note_on,40,0,0,,,,,,,,0,,,69,38
33240,set_tempo,40,1,0,,,,,,585366,,,,,,
33240,note_on,0,0,0,,,,,,,,0,,,59,0
33240,note_on,0,0,0,,,,,,,,0,,,57,43
33280,note_on,40,0,0,,,,,,,,0,,,69,0
33280,note_on,0,0,0,,,,,,,,0,,,68,32
33320,note_on,40,0,0,,,,,,,,0,,,68,0
33320,note_on,0,0,0,,,,,,,,0,,,76,36
33360,set_tempo,40,1,0,,,,,,474308,,,,,,
33360,note_on,0,0,0,,,,,,,,0,,,76,0
33360,note_on,0,0,0,,,,,,,,0,,,57,0
33360,note_on,0,0,0,,,,,,,,0,,,83,48
33360,note_on,0,0,0,,,,,,,,0,,,64,46
33450,note_on,90,0,0,,,,,,,,0,,,64,0
33450,note_on,0,0,0,,,,,,,,0,,,83,0
33520,note_on,70,0,0,,,,,,,,0,,,80,43
33600,set_tempo,80,1,0,,,,,,447761,,,,,,
33640,note_on,40,0,0,,,,,,,,0,,,80,0
33680,note_on,40,0,0,,,,,,,,0,,,76,42
33720,set_tempo,40,1,0,,,,,,500000,,,,,,
33720,note_on,0,0,0,,,,,,,,0,,,52,38
33780,note_on,60,0,0,,,,,,,,0,,,52,0
33800,note_on,20,0,0,,,,,,,,0,,,76,0
33840,set_tempo,40,1,0,,,,,,478088,,,,,,
33840,note_on,0,0,0,,,,,,,,0,,,71,41
33840,note_on,0,0,0,,,,,,,,0,,,52,45
33960,note_on,120,0,0,,,,,,,,0,,,52,0
33960,note_on,0,0,0,,,,,,,,0,,,71,0
33960,note_on,0,0,0,,,,,,,,0,,,55,43
34000,note_on,40,0,0,,,,,,,,0,,,68,36
34080,note_on,80,0,0,,,,,,,,0,,,55,0
34080,note_on,0,0,0,,,,,,,,0,,,53,45
34120,note_on,40,0,0,,,,,,,,0,,,68,0
34160,note_on,40,0,0,,,,,,,,0,,,64,36
34200,set_tempo,40,1,0,,,,,,588235,,,,,,
34200,note_on,0,0,0,,,,,,,,0,,,53,0
34200,note_on,0,0,0,,,,,,,,0,,,52,43
34240,note_on,40,0,0,,,,,,,,0,,,64,0
34240,note_on,0,0,0,,,,,,,,0,,,72,32
34280,note_on,40,0,0,,,,,,,,0,,,72,0
34280,note_on,0,0,0,,,,,,,,0,,,81,36
34320,set_tempo,40,1,0,,,,,,481928,,,,,,
34320,note_on,0,0,0,,,,,,,,0,,,81,0
34320,note_on,0,0,0,,,,,,,,0,,,52,0
34320,note_on,0,0,0,,,,,,,,0,,,88,46
34320,note_on,0,0,0,,,,,,,,0,,,57,48
34410,note_on,90,0,0,,,,,,,,0,,,57,0
34410,note_on,0,0,0,,,,,,,,0,,,88,0
34480,note_on,70,0,0,,,,,,,,0,,,84,39
34560,set_tempo,80,1,0,,,,,,452830,,,,,,
34600,note_on,40,0,0,,,,,,,,0,,,84,0
34640,note_on,40,0,0,,,,,,,,0,,,81,39
34680,set_tempo,40,1,0,,,,,,493827,,,,,,
34680,note_on,0,0,0,,,,,,,,0,,,57,38
34740,note_on,60,0,0,,,,,,,,0,,,57,0
34760,note_on,20,0,0,,,,,,,,0,,,81,0
34800,set_tempo,40,1,0,,,,,,478088,,,,,,
34800,note_on,0,0,0,,,,,,,,0,,,76,41
34800,note_on,0,0,0,,,,,,,,0,,,57,45
34920,set_tempo,120,1,0,,,,,,466926,,,,,,
34920,note_on,0,0,0,,,,,,,,0,,,57,0
34920,note_on,0,0,0,,,,,,,,0,,,76,0
34920,note_on,0,0,0,,,,,,,,0,,,60,43
34960,note_on,40,0,0,,,,,,,,0,,,72,38
35040,note_on,80,0,0,,,,,,,,0,,,60,0
35040,note_on,0,0,0,,,,,,,,0,,,59,45
35080,note_on,40,0,0,,,,,,,,0,,,72,0
35120,note_on,40,0,0,,,,,,,,0,,,69,38
35160,set_tempo,40,1,0,,,,,,731707,,,,,,
35160,note_on,0,0,0,,,,,,,,0,,,59,0
35160,note_on,0,0,0,,,,,,,,0,,,57,43
35240,note_on,80,0,0,,,,,,,,0,,,69,0
35280,set_tempo,40,1,0,,,,,,568720,,,,,,
35280,note_on,0,0,0,,,,,,,,0,,,57,0
35280,note_on,0,0,0,,,,,,,,0,,,64,48
35440,note_on,160,0,0,,,,,,,,0,,,68,39
35440,note_on,0,0,0,,,,,,,,0,,,76,39
35520,set_tempo,80,1,0,,,,,,662983,,,,,,
35560,note_on,40,0,0,,,,,,,,0,,,76,0
35560,note_on,0,0,0,,,,,,,,0,,,68,0
35600,note_on,40,0,0,,,,,,,,0,,,71,36
35600,note_on,0,0,0,,,,,,,,0,,,80,36
35720,note_on,120,0,0,,,,,,,,0,,,80,0
35720,note_on,0,0,0,,,,,,,,0,,,71,0
35760,note_on,40,0,0,,,,,,,,0,,,64,0
35760,note_on,0,0,0,,,,,,,,0,,,88,35
35760,note_on,0,0,0,,,,,,,,0,,,76,35
35760,note_on,0,0,0,,,,,,,,0,,,52,36
35880,note_on,120,0,0,,,,,,,,0,,,52,0
35880,note_on,0,0,0,,,,,,,,0,,,76,0
35880,note_on,0,0,0,,,,,,,,0,,,88,0
36000,set_tempo,120,1,0,,,,,,600000,,,,,,
36090,note_on,90,0,0,,,,,,,,0,,,57,39
36120,set_tempo,30,1,0,,,,,,472441,,,,,,
36120,note_on,0,0,0,,,,,,,,0,,,64,41
36150,note_on,30,0,0,,,,,,,,0,,,69,43
36180,note_on,30,0,0,,,,,,,,0,,,81,41
36210,note_on,30,0,0,,,,,,,,0,,,85,45
36240,set_tempo,30,1,0,,,,,,485830,,,,,,
36240,note_on,0,0,0,,,,,,,,0,,,93,58
36330,note_on,90,0,0,,,,,,,,0,,,93,0
36330,note_on,0,0,0,,,,,,,,0,,,64,0
36330,note_on,0,0,0,,,,,,,,0,,,69,0
36330,note_on,0,0,0,,,,,,,,0,,,57,0
36330,note_on,0,0,0,,,,,,,,0,,,85,0
36330,note_on,0,0,0,,,,,,,,0,,,81,0
36400,note_on,70,0,0,,,,,,,,0,,,88,49
36480,set_tempo,80,1,0,,,,,,451128,,,,,,
36520,note_on,40,0,0,,,,,,,,0,,,88,0
36560,note_on,40,0,0,,,,,,,,0,,,85,49
36600,set_tempo,40,1,0,,,,,,497925,,,,,,
36600,note_on,0,0,0,,,,,,,,0,,,69,48
36660,note_on,60,0,0,,,,,,,,0,,,69,0
36680,note_on,20,0,0,,,,,,,,0,,,85,0
36720,set_tempo,40,1,0,,,,,,478088,,,,,,
36720,note_on,0,0,0,,,,,,,,0,,,81,52
36720,note_on,0,0,0,,,,,,,,0,,,69,57
36840,note_on,120,0,0,,,,,,,,0,,,69,0
36840,note_on,0,0,0,,,,,,,,0,,,81,0
36840,note_on,0,0,0,,,,,,,,0,,,70,54
36880,note_on,40,0,0,,,,,,,,0,,,76,48
36960,note_on,80,0,0,,,,,,,,0,,,70,0
36960,note_on,0,0,0,,,,,,,,0,,,69,57
37000,note_on,40,0,0,,,,,,,,0,,,76,0
37040,note_on,40,0,0,,,,,,,,0,,,73,48
37080,set_tempo,40,1,0,,,,,,504202,,,,,,
37080,note_on,0,0,0,,,,,,,,0,,,69,0
37080,note_on,0,0,0,,,,,,,,0,,,67,54
37160,note_on,80,0,0,,,,,,,,0,,,67,0
37160,note_on,0,0,0,,,,,,,,0,,,73,0
37160,note_on,0,0,0,,,,,,,,0,,,50,53
37200,time_signature,40,1,0,5,8,12,8,,,,,,,,
37200,set_tempo,0,1,0,,,,,,483871,,,,,,
37200,note_on,0,0,0,,,,,,,,0,,,65,59
37320,note_on,120,0,0,,,,,,,,0,,,65,0
37320,note_on,0,0,0,,,,,,,,0,,,50,0
37360,note_on,40,0,0,,,,,,,,0,,,69,45
37360,note_on,0,0,0,,,,,,,,0,,,74,54
37440,set_tempo,80,1,0,,,,,,447761,,,,,,
37480,note_on,40,0,0,,,,,,,,0,,,74,0
37480,note_on,0,0,0,,,,,,,,0,,,69,0
37520,note_on,40,0,0,,,,,,,,0,,,74,45
37520,note_on,0,0,0,,,,,,,,0,,,77,53
37560,set_tempo,40,1,0,,,,,,500000,,,,,,
37560,note_on,0,0,0,,,,,,,,0,,,62,48
37620,note_on,60,0,0,,,,,,,,0,,,62,0
37640,note_on,20,0,0,,,,,,,,0,,,77,0
37640,note_on,0,0,0,,,,,,,,0,,,74,0
37680,set_tempo,40,1,0,,,,,,478088,,,,,,
37680,note_on,0,0,0,,,,,,,,0,,,77,44
37680,note_on,0,0,0,,,,,,,,0,,,81,52
37680,note_on,0,0,0,,,,,,,,0,,,62,57
37800,note_on,120,0,0,,,,,,,,0,,,62,0
37800,note_on,0,0,0,,,,,,,,0,,,81,0
37800,note_on,0,0,0,,,,,,,,0,,,77,0
37800,note_on,0,0,0,,,,,,,,0,,,65,54
37840,note_on,40,0,0,,,,,,,,0,,,81,40
37840,note_on,0,0,0,,,,,,,,0,,,86,48
37920,note_on,80,0,0,,,,,,,,0,,,65,0
37920,note_on,0,0,0,,,,,,,,0,,,64,57
37960,note_on,40,0,0,,,,,,,,0,,,86,0
37960,note_on,0,0,0,,,,,,,,0,,,81,0
38000,note_on,40,0,0,,,,,,,,0,,,86,41
38000,note_on,0,0,0,,,,,,,,0,,,89,49
38040,set_tempo,40,1,0,,,,,,365854,,,,,,
38040,note_on,0,0,0,,,,,,,,0,,,64,0
38040,note_on,0,0,0,,,,,,,,0,,,62,54
38120,note_on,80,0,0,,,,,,,,0,,,89,0
38120,note_on,0,0,0,,,,,,,,0,,,86,0
38160,set_tempo,40,1,0,,,,,,260870,,,,,,
38160,note_on,0,0,0,,,,,,,,0,,,62,0
38160,note_on,0,0,0,,,,,,,,0,,,55,37
38208,note_on,48,0,0,,,,,,,,0,,,62,40
38256,note_on,48,0,0,,,,,,,,0,,,67,44
38304,note_on,48,0,0,,,,,,,,0,,,79,47
38352,note_on,48,0,0,,,,,,,,0,,,83,50
38400,time_signature,48,1,0,4,8,12,8,,,,,,,,
38400,set_tempo,0,1,0,,,,,,485830,,,,,,
38400,note_on,0,0,0,,,,,,,,0,,,91,58
38490,note_on,90,0,0,,,,,,,,0,,,91,0
38490,note_on,0,0,0,,,,,,,,0,,,62,0
38490,note_on,0,0,0,,,,,,,,0,,,67,0
38490,note_on,0,0,0,,,,,,,,0,,,55,0
38490,note_on,0,0,0,,,,,,,,0,,,83,0
38490,note_on,0,0,0,,,,,,,,0,,,79,0
38560,note_on,70,0,0,,,,,,,,0,,,86,49
38640,set_tempo,80,1,0,,,,,,451128,,,,,,
38680,note_on,40,0,0,,,,,,,,0,,,86,0
38720,note_on,40,0,0,,,,,,,,0,,,83,49
38760,set_tempo,40,1,0,,,,,,497925,,,,,,
38760,note_on,0,0,0,,,,,,,,0,,,67,48
38820,note_on,60,0,0,,,,,,,,0,,,67,0
38840,note_on,20,0,0,,,,,,,,0,,,83,0
38880,set_tempo,40,1,0,,,,,,478088,,,,,,
38880,note_on,0,0,0,,,,,,,,0,,,79,52
38880,note_on,0,0,0,,,,,,,,0,,,67,57
39000,note_on,120,0,0,,,,,,,,0,,,67,0
39000,note_on,0,0,0,,,,,,,,0,,,79,0
39000,note_on,0,0,0,,,,,,,,0,,,69,54
39040,note_on,40,0,0,,,,,,,,0,,,74,48
39120,note_on,80,0,0,,,,,,,,0,,,69,0
39120,note_on,0,0,0,,,,,,,,0,,,67,57
39160,note_on,40,0,0,,,,,,,,0,,,74,0
39200,note_on,40,0,0,,,,,,,,0,,,71,48
39240,set_tempo,40,1,0,,,,,,504202,,,,,,
39240,note_on,0,0,0,,,,,,,,0,,,67,0
39240,note_on,0,0,0,,,,,,,,0,,,65,54
39320,note_on,80,0,0,,,,,,,,0,,,65,0
39320,note_on,0,0,0,,,,,,,,0,,,71,0
39320,note_on,0,0,0,,,,,,,,0,,,48,53
39360,set_tempo,40,1,0,,,,,,483871,,,,,,
39360,note_on,0,0,0,,,,,,,,0,,,64,59
39480,note_on,120,0,0,,,,,,,,0,,,64,0
39480,note_on,0,0,0,,,,,,,,0,,,48,0
39520,note_on,40,0,0,,,,,,,,0,,,67,45
39520,note_on,0,0,0,,,,,,,,0,,,72,54
39600,set_tempo,80,1,0,,,,,,447761,,,,,,
39640,note_on,40,0,0,,,,,,,,0,,,72,0
39640,note_on,0,0,0,,,,,,,,0,,,67,0
39680,note_on,40,0,0,,,,,,,,0,,,72,45
39680,note_on,0,0,0,,,,,,,,0,,,76,53
39720,set_tempo,40,1,0,,,,,,500000,,,,,,
39720,note_on,0,0,0,,,,,,,,0,,,60,48
39780,note_on,60,0,0,,,,,,,,0,,,60,0
39800,note_on,20,0,0,,,,,,,,0,,,76,0
39800,note_on,0,0,0,,,,,,,,0,,,72,0
39840,set_tempo,40,1,0,,,,,,478088,,,,,,
39840,note_on,0,0,0,,,,,,,,0,,,76,44
39840,note_on,0,0,0,,,,,,,,0,,,79,52
39840,note_on,0,0,0,,,,,,,,0,,,60,57
39960,note_on,120,0,0,,,,,,,,0,,,60,0
39960,note_on,0,0,0,,,,,,,,0,,,79,0
39960,note_on,0,0,0,,,,,,,,0,,,76,0
39960,note_on,0,0,0,,,,,,,,0,,,64,54
40000,note_on,40,0,0,,,,,,,,0,,,79,40
40000,note_on,0,0,0,,,,,,,,0,,,84,48
40080,note_on,80,0,0,,,,,,,,0,,,64,0
40080,note_on,0,0,0,,,,,,,,0,,,62,57
40120,note_on,40,0,0,,,,,,,,0,,,84,0
40120,note_on,0,0,0,,,,,,,,0,,,79,0
40160,note_on,40,0,0,,,,,,,,0,,,84,41
40160,note_on,0,0,0,,,,,,,,0,,,88,49
40200,set_tempo,40,1,0,,,,,,500000,,,,,,
40200,note_on,0,0,0,,,,,,,,0,,,62,0
40200,note_on,0,0,0,,,,,,,,0,,,60,54
40240,set_tempo,40,1,0,,,,,,600000,,,,,,
40260,note_on,20,0,0,,,,,,,,0,,,60,0
40260,note_on,0,0,0,,,,,,,,0,,,50,32
40280,note_on,20,0,0,,,,,,,,0,,,88,0
40280,note_on,0,0,0,,,,,,,,0,,,84,0
40290,note_on,10,0,0,,,,,,,,0,,,56,36
40320,set_tempo,30,1,0,,,,,,495868,,,,,,
40320,note_on,0,0,0,,,,,,,,0,,,83,39
40320,note_on,0,0,0,,,,,,,,0,,,89,46
40320,note_on,0,0,0,,,,,,,,0,,,65,48
40410,note_on,90,0,0,,,,,,,,0,,,65,0
40410,note_on,0,0,0,,,,,,,,0,,,83,0
40410,note_on,0,0,0,,,,,,,,0,,,50,0
40410,note_on,0,0,0,,,,,,,,0,,,56,0
40410,note_on,0,0,0,,,,,,,,0,,,89,0
40480,note_on,70,0,0,,,,,,,,0,,,80,33
40480,note_on,0,0,0,,,,,,,,0,,,86,39
40560,set_tempo,80,1,0,,,,,,451128,,,,,,
40600,note_on,40,0,0,,,,,,,,0,,,86,0
40600,note_on,0,0,0,,,,,,,,0,,,80,0
40640,note_on,40,0,0,,,,,,,,0,,,77,33
40640,note_on,0,0,0,,,,,,,,0,,,83,39
40680,set_tempo,40,1,0,,,,,,497925,,,,,,
40680,note_on,0,0,0,,,,,,,,0,,,59,38
40740,note_on,60,0,0,,,,,,,,0,,,59,0
40760,note_on,20,0,0,,,,,,,,0,,,83,0
40760,note_on,0,0,0,,,,,,,,0,,,77,0
40800,set_tempo,40,1,0,,,,,,478088,,,,,,
40800,note_on,0,0,0,,,,,,,,0,,,74,35
40800,note_on,0,0,0,,,,,,,,0,,,80,41
40800,note_on,0,0,0,,,,,,,,0,,,59,45
40920,note_on,120,0,0,,,,,,,,0,,,59,0
40920,note_on,0,0,0,,,,,,,,0,,,80,0
40920,note_on,0,0,0,,,,,,,,0,,,74,0
40920,note_on,0,0,0,,,,,,,,0,,,62,43
40960,note_on,40,0,0,,,,,,,,0,,,71,32
40960,note_on,0,0,0,,,,,,,,0,,,77,38
41040,note_on,80,0,0,,,,,,,,0,,,62,0
41040,note_on,0,0,0,,,,,,,,0,,,60,45
41080,note_on,40,0,0,,,,,,,,0,,,77,0
41080,note_on,0,0,0,,,,,,,,0,,,71,0
41120,note_on,40,0,0,,,,,,,,0,,,74,38
41160,set_tempo,40,1,0,,,,,,585366,,,,,,
41160,note_on,0,0,0,,,,,,,,0,,,60,0
41160,note_on,0,0,0,,,,,,,,0,,,59,43
41200,note_on,40,0,0,,,,,,,,0,,,74,0
41200,note_on,0,0,0,,,,,,,,0,,,76,32
41220,note_on,20,0,0,,,,,,,,0,,,59,0
41220,note_on,0,0,0,,,,,,,,0,,,48,42
41240,note_on,20,0,0,,,,,,,,0,,,76,0
41240,note_on,0,0,0,,,,,,,,0,,,81,36
41280,set_tempo,40,1,0,,,,,,483871,,,,,,
41280,note_on,0,0,0,,,,,,,,0,,,81,0
41280,note_on,0,0,0,,,,,,,,0,,,48,0
41280,note_on,0,0,0,,,,,,,,0,,,88,48
41280,note_on,0,0,0,,,,,,,,0,,,64,46
41370,note_on,90,0,0,,,,,,,,0,,,64,0
41370,note_on,0,0,0,,,,,,,,0,,,88,0
41440,note_on,70,0,0,,,,,,,,0,,,84,43
41520,set_tempo,80,1,0,,,,,,447761,,,,,,
41560,note_on,40,0,0,,,,,,,,0,,,84,0
41600,note_on,40,0,0,,,,,,,,0,,,81,42
41640,set_tempo,40,1,0,,,,,,500000,,,,,,
41640,note_on,0,0,0,,,,,,,,0,,,57,38
41700,note_on,60,0,0,,,,,,,,0,,,57,0
41720,note_on,20,0,0,,,,,,,,0,,,81,0
41760,set_tempo,40,1,0,,,,,,478088,,,,,,
41760,note_on,0,0,0,,,,,,,,0,,,76,41
41760,note_on,0,0,0,,,,,,,,0,,,57,45
41880,note_on,120,0,0,,,,,,,,0,,,57,0
41880,note_on,0,0,0,,,,,,,,0,,,76,0
41880,note_on,0,0,0,,,,,,,,0,,,60,43
41920,note_on,40,0,0,,,,,,,,0,,,72,38
42000,note_on,80,0,0,,,,,,,,0,,,60,0
42000,note_on,0,0,0,,,,,,,,0,,,59,45
42040,note_on,40,0,0,,,,,,,,0,,,72,0
42080,note_on,40,0,0,,,,,,,,0,,,69,39
42120,set_tempo,40,1,0,,,,,,588235,,,,,,
42120,note_on,0,0,0,,,,,,,,0,,,59,0
42120,note_on,0,0,0,,,,,,,,0,,,57,43
42200,note_on,80,0,0,,,,,,,,0,,,69,0
42240,set_tempo,40,1,0,,,,,,512821,,,,,,
42240,note_on,0,0,0,,,,,,,,0,,,57,0
42240,note_on,0,0,0,,,,,,,,0,,,53,48
42400,note_on,160,0,0,,,,,,,,0,,,63,33
42400,note_on,0,0,0,,,,,,,,0,,,71,39
42520,note_on,120,0,0,,,,,,,,0,,,71,0
42520,note_on,0,0,0,,,,,,,,0,,,63,0
42560,note_on,40,0,0,,,,,,,,0,,,75,36
42560,note_on,0,0,0,,,,,,,,0,,,69,36
42600,set_tempo,40,1,0,,,,,,579710,,,,,,
42600,note_on,0,0,0,,,,,,,,0,,,59,38
42680,note_on,80,0,0,,,,,,,,0,,,69,0
42680,note_on,0,0,0,,,,,,,,0,,,75,0
42720,set_tempo,40,1,0,,,,,,526316,,,,,,
42720,note_on,0,0,0,,,,,,,,0,,,53,0
42720,note_on,0,0,0,,,,,,,,0,,,59,0
42720,note_on,0,0,0,,,,,,,,0,,,52,45
42840,note_on,120,0,0,,,,,,,,0,,,64,43
42880,note_on,40,0,0,,,,,,,,0,,,76,39
42880,note_on,0,0,0,,,,,,,,0,,,68,33
42960,set_tempo,80,1,0,,,,,,558140,,,,,,
42960,note_on,0,0,0,,,,,,,,0,,,64,0
42960,note_on,0,0,0,,,,,,,,0,,,62,45
43000,note_on,40,0,0,,,,,,,,0,,,68,0
43000,note_on,0,0,0,,,,,,,,0,,,76,0
43040,note_on,40,0,0,,,,,,,,0,,,80,36
43040,note_on,0,0,0,,,,,,,,0,,,71,30
43080,set_tempo,40,1,0,,,,,,674157,,,,,,
43080,note_on,0,0,0,,,,,,,,0,,,62,0
43080,note_on,0,0,0,,,,,,,,0,,,59,43
43160,note_on,80,0,0,,,,,,,,0,,,71,0
43160,note_on,0,0,0,,,,,,,,0,,,80,0
43200,set_tempo,40,1,0,,,,,,585366,,,,,,
43200,note_on,0,0,0,,,,,,,,0,,,52,0
43200,note_on,0,0,0,,,,,,,,0,,,59,0
43200,note_on,0,0,0,,,,,,,,0,,,57,48
43360,note_on,160,0,0,,,,,,,,0,,,81,39
43360,note_on,0,0,0,,,,,,,,0,,,72,33
43440,set_tempo,80,1,0,,,,,,789474,,,,,,
43480,note_on,40,0,0,,,,,,,,0,,,72,0
43480,note_on,0,0,0,,,,,,,,0,,,81,0
43520,note_on,40,0,0,,,,,,,,0,,,76,30
43520,note_on,0,0,0,,,,,,,,0,,,84,36
43560,set_tempo,40,1,0,,,,,,944882,,,,,,
43640,note_on,80,0,0,,,,,,,,0,,,84,0
43640,note_on,0,0,0,,,,,,,,0,,,76,0
43680,note_on,40,0,0,,,,,,,,0,,,57,0
43680,note_on,0,0,0,,,,,,,,0,,,81,38
43680,note_on,0,0,0,,,,,,,,0,,,93,45
43680,note_on,0,0,0,,,,,,,,0,,,64,27
43680,note_on,0,0,0,,,,,,,,0,,,72,36
43708,control_change,28,0,0,,,,,,,,0,64,127,,
43800,note_on,92,0,0,,,,,,,,0,,,72,0
43800,note_on,0,0,0,,,,,,,,0,,,81,0
43800,note_on,0,0,0,,,,,,,,0,,,93,0
43800,note_on,0,0,0,,,,,,,,0,,,64,0
43938,control_change,138,0,0,,,,,,,,0,64,0,,
44160,set_tempo,222,1,0,,,,,,475248,,,,,,
44160,marker,0,1,0,,,,,,,,,,,,
44160,note_on,0,0,0,,,,,,,,0,,,41,43
44160,note_on,0,0,0,,,,,,,,0,,,45,51
44280,note_on,120,0,0,,,,,,,,0,,,44,48
44290,note_on,10,0,0,,,,,,,,0,,,45,0
44400,set_tempo,110,1,0,,,,,,463607,,,,,,
44400,note_on,0,0,0,,,,,,,,0,,,45,51
44410,note_on,10,0,0,,,,,,,,0,,,44,0
44520,set_tempo,110,1,0,,,,,,502597,,,,,,
44520,note_on,0,0,0,,,,,,,,0,,,44,48
44530,note_on,10,0,0,,,,,,,,0,,,45,0
44580,set_tempo,50,1,0,,,,,,471291,,,,,,
44580,note_on,0,0,0,,,,,,,,0,,,46,54
44640,set_tempo,60,1,0,,,,,,459841,,,,,,
44640,note_on,0,0,0,,,,,,,,0,,,44,0
44640,note_on,0,0,0,,,,,,,,0,,,41,0
44640,note_on,0,0,0,,,,,,,,0,,,45,58
44650,note_on,10,0,0,,,,,,,,0,,,46,0
44760,note_on,110,0,0,,,,,,,,0,,,47,48
44770,note_on,10,0,0,,,,,,,,0,,,45,0
44880,note_on,110,0,0,,,,,,,,0,,,48,51
44890,note_on,10,0,0,,,,,,,,0,,,47,0
45000,set_tempo,110,1,0,,,,,,477251,,,,,,
45000,note_on,0,0,0,,,,,,,,0,,,50,47
45010,note_on,10,0,0,,,,,,,,0,,,48,0
45120,set_tempo,110,1,0,,,,,,459841,,,,,,
45120,note_on,0,0,0,,,,,,,,0,,,50,0
45120,note_on,0,0,0,,,,,,,,0,,,52,51
45120,note_on,0,0,0,,,,,,,,0,,,40,43
45120,note_on,0,0,0,,,,,,,,0,,,44,43
45240,note_on,120,0,0,,,,,,,,0,,,51,48
45250,note_on,10,0,0,,,,,,,,0,,,52,0
45360,set_tempo,110,1,0,,,,,,452523,,,,,,
45360,note_on,0,0,0,,,,,,,,0,,,52,51
45370,note_on,10,0,0,,,,,,,,0,,,51,0
45480,set_tempo,110,1,0,,,,,,597788,,,,,,
45480,note_on,0,0,0,,,,,,,,0,,,51,48
45490,note_on,10,0,0,,,,,,,,0,,,52,0
45540,set_tempo,50,1,0,,,,,,471291,,,,,,
45540,note_on,0,0,0,,,,,,,,0,,,53,52
45600,set_tempo,60,1,0,,,,,,452523,,,,,,
45600,note_on,0,0,0,,,,,,,,0,,,40,0
45600,note_on,0,0,0,,,,,,,,0,,,51,0
45600,note_on,0,0,0,,,,,,,,0,,,44,0
45600,note_on,0,0,0,,,,,,,,0,,,52,56
45610,note_on,10,0,0,,,,,,,,0,,,53,0
45720,set_tempo,110,1,0,,,,,,445434,,,,,,
45720,note_on,0,0,0,,,,,,,,0,,,50,48
45730,note_on,10,0,0,,,,,,,,0,,,52,0
45840,note_on,110,0,0,,,,,,,,0,,,48,51
45850,note_on,10,0,0,,,,,,,,0,,,50,0
45960,set_tempo,110,1,0,,,,,,540882,,,,,,
45960,note_on,0,0,0,,,,,,,,0,,,47,47
45970,note_on,10,0,0,,,,,,,,0,,,48,0
46080,set_tempo,110,1,0,,,,,,473261,,,,,,
46080,note_on,0,0,0,,,,,,,,0,,,47,0
46080,note_on,0,0,0,,,,,,,,0,,,41,38
46080,note_on,0,0,0,,,,,,,,0,,,45,45
46200,note_on,120,0,0,,,,,,,,0,,,44,43
46210,note_on,10,0,0,,,,,,,,0,,,45,0
46320,set_tempo,110,1,0,,,,,,465513,,,,,,
46320,note_on,0,0,0,,,,,,,,0,,,45,45
46330,note_on,10,0,0,,,,,,,,0,,,44,0
46440,set_tempo,110,1,0,,,,,,604169,,,,,,
46440,note_on,0,0,0,,,,,,,,0,,,44,41
46450,note_on,10,0,0,,,,,,,,0,,,45,0
46500,set_tempo,50,1,0,,,,,,471291,,,,,,
46500,note_on,0,0,0,,,,,,,,0,,,46,48
46560,set_tempo,60,1,0,,,,,,452523,,,,,,
46560,note_on,0,0,0,,,,,,,,0,,,44,0
46560,note_on,0,0,0,,,,,,,,0,,,41,0
46560,note_on,0,0,0,,,,,,,,0,,,45,50
46570,note_on,10,0,0,,,,,,,,0,,,46,0
46680,note_on,110,0,0,,,,,,,,0,,,47,41
46690,note_on,10,0,0,,,,,,,,0,,,45,0
46800,note_on,110,0,0,,,,,,,,0,,,48,44
46810,note_on,10,0,0,,,,,,,,0,,,47,0
46920,set_tempo,110,1,0,,,,,,500375,,,,,,
46920,note_on,0,0,0,,,,,,,,0,,,50,40
46930,note_on,10,0,0,,,,,,,,0,,,48,0
47040,set_tempo,110,1,0,,,,,,485398,,,,,,
47040,note_on,0,0,0,,,,,,,,0,,,50,0
47040,note_on,0,0,0,,,,,,,,0,,,40,36
47040,note_on,0,0,0,,,,,,,,0,,,44,36
47040,note_on,0,0,0,,,,,,,,0,,,52,43
47160,note_on,120,0,0,,,,,,,,0,,,51,40
47170,note_on,10,0,0,,,,,,,,0,,,52,0
47280,set_tempo,110,1,0,,,,,,469337,,,,,,
47280,note_on,0,0,0,,,,,,,,0,,,52,42
47290,note_on,10,0,0,,,,,,,,0,,,51,0
47400,set_tempo,110,1,0,,,,,,1051709,,,,,,
47400,note_on,0,0,0,,,,,,,,0,,,51,39
47410,note_on,10,0,0,,,,,,,,0,,,52,0
47460,set_tempo,50,1,0,,,,,,543478,,,,,,
47460,note_on,0,0,0,,,,,,,,0,,,53,40
47520,set_tempo,60,1,0,,,,,,493827,,,,,,
47520,note_on,0,0,0,,,,,,,,0,,,40,0
47520,note_on,0,0,0,,,,,,,,0,,,51,0
47520,note_on,0,0,0,,,,,,,,0,,,44,0
47520,note_on,0,0,0,,,,,,,,0,,,52,36
47530,note_on,10,0,0,,,,,,,,0,,,53,0
47700,note_on,170,0,0,,,,,,,,0,,,52,0
47880,set_tempo,180,1,0,,,,,,477251,,,,,,
48000,set_tempo,120,1,0,,,,,,475248,,,,,,
48000,note_on,0,0,0,,,,,,,,0,,,53,43
48000,note_on,0,0,0,,,,,,,,0,,,57,51
48120,note_on,120,0,0,,,,,,,,0,,,56,48
48130,note_on,10,0,0,,,,,,,,0,,,57,0
48240,set_tempo,110,1,0,,,,,,463607,,,,,,
48240,note_on,0,0,0,,,,,,,,0,,,57,51
48250,note_on,10,0,0,,,,,,,,0,,,56,0
48360,set_tempo,110,1,0,,,,,,502597,,,,,,
48360,note_on,0,0,0,,,,,,,,0,,,56,48
48370,note_on,10,0,0,,,,,,,,0,,,57,0
48420,set_tempo,50,1,0,,,,,,471291,,,,,,
48420,note_on,0,0,0,,,,,,,,0,,,58,53
48480,set_tempo,60,1,0,,,,,,459841,,,,,,
48480,note_on,0,0,0,,,,,,,,0,,,56,0
48480,note_on,0,0,0,,,,,,,,0,,,53,0
48480,note_on,0,0,0,,,,,,,,0,,,57,56
48490,note_on,10,0,0,,,,,,,,0,,,58,0
48600,note_on,110,0,0,,,,,,,,0,,,59,48
48610,note_on,10,0,0,,,,,,,,0,,,57,0
48720,note_on,110,0,0,,,,,,,,0,,,60,51
48730,note_on,10,0,0,,,,,,,,0,,,59,0
48840,set_tempo,110,1,0,,,,,,477251,,,,,,
48840,note_on,0,0,0,,,,,,,,0,,,62,47
48850,note_on,10,0,0,,,,,,,,0,,,60,0
48960,set_tempo,110,1,0,,,,,,459841,,,,,,
48960,note_on,0,0,0,,,,,,,,0,,,62,0
48960,note_on,0,0,0,,,,,,,,0,,,52,43
48960,note_on,0,0,0,,,,,,,,0,,,56,43
48960,note_on,0,0,0,,,,,,,,0,,,64,51
49080,note_on,120,0,0,,,,,,,,0,,,63,48
49090,note_on,10,0,0,,,,,,,,0,,,64,0
49200,set_tempo,110,1,0,,,,,,452523,,,,,,
49200,note_on,0,0,0,,,,,,,,0,,,64,51
49210,note_on,10,0,0,,,,,,,,0,,,63,0
49320,set_tempo,110,1,0,,,,,,597788,,,,,,
49320,note_on,0,0,0,,,,,,,,0,,,63,48
49330,note_on,10,0,0,,,,,,,,0,,,64,0
49380,set_tempo,50,1,0,,,,,,471291,,,,,,
49380,note_on,0,0,0,,,,,,,,0,,,65,50
49440,set_tempo,60,1,0,,,,,,452523,,,,,,
49440,note_on,0,0,0,,,,,,,,0,,,52,0
49440,note_on,0,0,0,,,,,,,,0,,,63,0
49440,note_on,0,0,0,,,,,,,,0,,,56,0
49440,note_on,0,0,0,,,,,,,,0,,,64,54
49450,note_on,10,0,0,,,,,,,,0,,,65,0
49560,set_tempo,110,1,0,,,,,,445434,,,,,,
49560,note_on,0,0,0,,,,,,,,0,,,62,48
49570,note_on,10,0,0,,,,,,,,0,,,64,0
49680,note_on,110,0,0,,,,,,,,0,,,60,51
49690,note_on,10,0,0,,,,,,,,0,,,62,0
49800,set_tempo,110,1,0,,,,,,540882,,,,,,
49800,note_on,0,0,0,,,,,,,,0,,,59,47
49810,note_on,10,0,0,,,,,,,,0,,,60,0
49920,set_tempo,110,1,0,,,,,,473261,,,,,,
49920,note_on,0,0,0,,,,,,,,0,,,59,0
49920,note_on,0,0,0,,,,,,,,0,,,53,38
49920,note_on,0,0,0,,,,,,,,0,,,57,45
50040,note_on,120,0,0,,,,,,,,0,,,56,43
50050,note_on,10,0,0,,,,,,,,0,,,57,0
50160,set_tempo,110,1,0,,,,,,465513,,,,,,
50160,note_on,0,0,0,,,,,,,,0,,,57,45
50170,note_on,10,0,0,,,,,,,,0,,,56,0
50280,set_tempo,110,1,0,,,,,,604169,,,,,,
50280,note_on,0,0,0,,,,,,,,0,,,56,41
50290,note_on,10,0,0,,,,,,,,0,,,57,0
50340,set_tempo,50,1,0,,,,,,471291,,,,,,
50340,note_on,0,0,0,,,,,,,,0,,,58,48
50400,set_tempo,60,1,0,,,,,,452523,,,,,,
50400,note_on,0,0,0,,,,,,,,0,,,56,0
50400,note_on,0,0,0,,,,,,,,0,,,53,0
50400,note_on,0,0,0,,,,,,,,0,,,57,53
50410,note_on,10,0,0,,,,,,,,0,,,58,0
50520,note_on,110,0,0,,,,,,,,0,,,59,41
50530,note_on,10,0,0,,,,,,,,0,,,57,0
50640,note_on,110,0,0,,,,,,,,0,,,60,44
50650,note_on,10,0,0,,,,,,,,0,,,59,0
50760,set_tempo,110,1,0,,,,,,500375,,,,,,
50760,note_on,0,0,0,,,,,,,,0,,,62,40
50770,note_on,10,0,0,,,,,,,,0,,,60,0
50880,set_tempo,110,1,0,,,,,,483325,,,,,,
50880,note_on,0,0,0,,,,,,,,0,,,62,0
50880,note_on,0,0,0,,,,,,,,0,,,52,36
50880,note_on,0,0,0,,,,,,,,0,,,56,36
50880,note_on,0,0,0,,,,,,,,0,,,64,43
51000,note_on,120,0,0,,,,,,,,0,,,63,40
51010,note_on,10,0,0,,,,,,,,0,,,64,0
51120,set_tempo,110,1,0,,,,,,471291,,,,,,
51120,note_on,0,0,0,,,,,,,,0,,,64,42
51130,note_on,10,0,0,,,,,,,,0,,,63,0
51240,set_tempo,110,1,0,,,,,,1051709,,,,,,
51240,note_on,0,0,0,,,,,,,,0,,,63,39
51250,note_on,10,0,0,,,,,,,,0,,,64,0
51300,set_tempo,50,1,0,,,,,,543478,,,,,,
51300,note_on,0,0,0,,,,,,,,0,,,65,40
51360,set_tempo,60,1,0,,,,,,493827,,,,,,
51360,note_on,0,0,0,,,,,,,,0,,,65,0
51360,note_on,0,0,0,,,,,,,,0,,,63,0
51360,note_on,0,0,0,,,,,,,,0,,,56,0
51360,note_on,0,0,0,,,,,,,,0,,,52,0
51360,note_on,0,0,0,,,,,,,,0,,,64,36
51540,note_on,180,0,0,,,,,,,,0,,,64,0
51720,set_tempo,180,1,0,,,,,,477251,,,,,,
51840,set_tempo,120,1,0,,,,,,475248,,,,,,
51840,note_on,0,0,0,,,,,,,,0,,,61,40
51840,note_on,0,0,0,,,,,,,,0,,,64,43
51840,note_on,0,0,0,,,,,,,,0,,,69,51
51960,note_on,120,0,0,,,,,,,,0,,,68,48
51970,note_on,10,0,0,,,,,,,,0,,,69,0
52080,set_tempo,110,1,0,,,,,,463607,,,,,,
52080,note_on,0,0,0,,,,,,,,0,,,69,51
52090,note_on,10,0,0,,,,,,,,0,,,68,0
52200,set_tempo,110,1,0,,,,,,502597,,,,,,
52200,note_on,0,0,0,,,,,,,,0,,,68,48
52210,note_on,10,0,0,,,,,,,,0,,,69,0
52260,set_tempo,50,1,0,,,,,,471291,,,,,,
52260,note_on,0,0,0,,,,,,,,0,,,70,50
52320,set_tempo,60,1,0,,,,,,459841,,,,,,
52320,note_on,0,0,0,,,,,,,,0,,,61,0
52320,note_on,0,0,0,,,,,,,,0,,,68,0
52320,note_on,0,0,0,,,,,,,,0,,,64,0
52320,note_on,0,0,0,,,,,,,,0,,,69,54
52330,note_on,10,0,0,,,,,,,,0,,,70,0
52440,note_on,110,0,0,,,,,,,,0,,,67,48
52450,note_on,10,0,0,,,,,,,,0,,,69,0
52560,note_on,110,0,0,,,,,,,,0,,,65,51
52570,note_on,10,0,0,,,,,,,,0,,,67,0
52680,set_tempo,110,1,0,,,,,,477251,,,,,,
52680,note_on,0,0,0,,,,,,,,0,,,64,47
52690,note_on,10,0,0,,,,,,,,0,,,65,0
52800,set_tempo,110,1,0,,,,,,459841,,,,,,
52800,note_on,0,0,0,,,,,,,,0,,,64,0
52800,note_on,0,0,0,,,,,,,,0,,,53,43
52800,note_on,0,0,0,,,,,,,,0,,,57,43
52800,note_on,0,0,0,,,,,,,,0,,,62,51
52920,note_on,120,0,0,,,,,,,,0,,,61,48
52930,note_on,10,0,0,,,,,,,,0,,,62,0
53040,set_tempo,110,1,0,,,,,,452523,,,,,,
53040,note_on,0,0,0,,,,,,,,0,,,62,51
53050,note_on,10,0,0,,,,,,,,0,,,61,0
53160,set_tempo,110,1,0,,,,,,597788,,,,,,
53160,note_on,0,0,0,,,,,,,,0,,,61,48
53170,note_on,10,0,0,,,,,,,,0,,,62,0
53220,set_tempo,50,1,0,,,,,,471291,,,,,,
53220,note_on,0,0,0,,,,,,,,0,,,63,47
53280,set_tempo,60,1,0,,,,,,452523,,,,,,
53280,note_on,0,0,0,,,,,,,,0,,,53,0
53280,note_on,0,0,0,,,,,,,,0,,,61,0
53280,note_on,0,0,0,,,,,,,,0,,,57,0
53280,note_on,0,0,0,,,,,,,,0,,,62,54
53290,note_on,10,0,0,,,,,,,,0,,,63,0
53400,set_tempo,110,1,0,,,,,,454339,,,,,,
53400,note_on,0,0,0,,,,,,,,0,,,64,48
53410,note_on,10,0,0,,,,,,,,0,,,62,0
53520,note_on,110,0,0,,,,,,,,0,,,65,51
53530,note_on,10,0,0,,,,,,,,0,,,64,0
53640,set_tempo,110,1,0,,,,,,540882,,,,,,
53640,note_on,0,0,0,,,,,,,,0,,,62,47
53650,note_on,10,0,0,,,,,,,,0,,,65,0
53760,set_tempo,110,1,0,,,,,,473261,,,,,,
53760,note_on,0,0,0,,,,,,,,0,,,62,0
53760,note_on,0,0,0,,,,,,,,0,,,59,39
53760,note_on,0,0,0,,,,,,,,0,,,62,41
53760,note_on,0,0,0,,,,,,,,0,,,67,49
53880,note_on,120,0,0,,,,,,,,0,,,66,47
53890,note_on,10,0,0,,,,,,,,0,,,67,0
54000,set_tempo,110,1,0,,,,,,465513,,,,,,
54000,note_on,0,0,0,,,,,,,,0,,,67,48
54010,note_on,10,0,0,,,,,,,,0,,,66,0
54120,set_tempo,110,1,0,,,,,,604169,,,,,,
54120,note_on,0,0,0,,,,,,,,0,,,66,45
54130,note_on,10,0,0,,,,,,,,0,,,67,0
54180,set_tempo,50,1,0,,,,,,471291,,,,,,
54180,note_on,0,0,0,,,,,,,,0,,,68,51
54240,set_tempo,60,1,0,,,,,,456170,,,,,,
54240,note_on,0,0,0,,,,,,,,0,,,59,0
54240,note_on,0,0,0,,,,,,,,0,,,66,0
54240,note_on,0,0,0,,,,,,,,0,,,62,0
54240,note_on,0,0,0,,,,,,,,0,,,67,54
54250,note_on,10,0,0,,,,,,,,0,,,68,0
54360,note_on,110,0,0,,,,,,,,0,,,65,45
54370,note_on,10,0,0,,,,,,,,0,,,67,0
54480,note_on,110,0,0,,,,,,,,0,,,64,48
54490,note_on,10,0,0,,,,,,,,0,,,65,0
54600,set_tempo,110,1,0,,,,,,500375,,,,,,
54600,note_on,0,0,0,,,,,,,,0,,,62,44
54610,note_on,10,0,0,,,,,,,,0,,,64,0
54720,set_tempo,110,1,0,,,,,,459841,,,,,,
54720,note_on,0,0,0,,,,,,,,0,,,62,0
54720,note_on,0,0,0,,,,,,,,0,,,52,43
54720,note_on,0,0,0,,,,,,,,0,,,55,43
54720,note_on,0,0,0,,,,,,,,0,,,60,51
54840,note_on,120,0,0,,,,,,,,0,,,59,48
54850,note_on,10,0,0,,,,,,,,0,,,60,0
54960,set_tempo,110,1,0,,,,,,452523,,,,,,
54960,note_on,0,0,0,,,,,,,,0,,,60,51
54970,note_on,10,0,0,,,,,,,,0,,,59,0
55080,set_tempo,110,1,0,,,,,,597788,,,,,,
55080,note_on,0,0,0,,,,,,,,0,,,59,48
55090,note_on,10,0,0,,,,,,,,0,,,60,0
55140,set_tempo,50,1,0,,,,,,471291,,,,,,
55140,note_on,0,0,0,,,,,,,,0,,,61,47
55200,set_tempo,60,1,0,,,,,,457980,,,,,,
55200,note_on,0,0,0,,,,,,,,0,,,52,0
55200,note_on,0,0,0,,,,,,,,0,,,59,0
55200,note_on,0,0,0,,,,,,,,0,,,55,0
55200,note_on,0,0,0,,,,,,,,0,,,60,52
55210,note_on,10,0,0,,,,,,,,0,,,61,0
55320,set_tempo,110,1,0,,,,,,452523,,,,,,
55320,note_on,0,0,0,,,,,,,,0,,,62,48
55330,note_on,10,0,0,,,,,,,,0,,,60,0
55440,note_on,110,0,0,,,,,,,,0,,,64,51
55450,note_on,10,0,0,,,,,,,,0,,,62,0
55560,set_tempo,110,1,0,,,,,,540882,,,,,,
55560,note_on,0,0,0,,,,,,,,0,,,60,47
55570,note_on,10,0,0,,,,,,,,0,,,64,0
55680,set_tempo,110,1,0,,,,,,475248,,,,,,
55680,note_on,0,0,0,,,,,,,,0,,,60,0
55680,note_on,0,0,0,,,,,,,,0,,,50,39
55680,note_on,0,0,0,,,,,,,,0,,,56,43
55680,note_on,0,0,0,,,,,,,,0,,,65,51
55800,note_on,120,0,0,,,,,,,,0,,,64,48
55810,note_on,10,0,0,,,,,,,,0,,,65,0
55920,set_tempo,110,1,0,,,,,,463607,,,,,,
55920,note_on,0,0,0,,,,,,,,0,,,65,51
55930,note_on,10,0,0,,,,,,,,0,,,64,0
56040,set_tempo,110,1,0,,,,,,502597,,,,,,
56040,note_on,0,0,0,,,,,,,,0,,,64,48
56050,note_on,10,0,0,,,,,,,,0,,,65,0
56100,set_tempo,50,1,0,,,,,,471291,,,,,,
56100,note_on,0,0,0,,,,,,,,0,,,67,48
56160,set_tempo,60,1,0,,,,,,459841,,,,,,
56160,note_on,0,0,0,,,,,,,,0,,,50,0
56160,note_on,0,0,0,,,,,,,,0,,,64,0
56160,note_on,0,0,0,,,,,,,,0,,,56,0
56160,note_on,0,0,0,,,,,,,,0,,,65,52
56170,note_on,10,0,0,,,,,,,,0,,,67,0
56280,note_on,110,0,0,,,,,,,,0,,,62,48
56290,note_on,10,0,0,,,,,,,,0,,,65,0
56400,note_on,110,0,0,,,,,,,,0,,,60,51
56410,note_on,10,0,0,,,,,,,,0,,,62,0
56520,set_tempo,110,1,0,,,,,,477251,,,,,,
56520,note_on,0,0,0,,,,,,,,0,,,59,47
56530,note_on,10,0,0,,,,,,,,0,,,60,0
56640,set_tempo,110,1,0,,,,,,459841,,,,,,
56640,note_on,0,0,0,,,,,,,,0,,,59,0
56640,note_on,0,0,0,,,,,,,,0,,,48,43
56640,note_on,0,0,0,,,,,,,,0,,,57,43
56640,note_on,0,0,0,,,,,,,,0,,,64,51
56760,note_on,120,0,0,,,,,,,,0,,,63,48
56770,note_on,10,0,0,,,,,,,,0,,,64,0
56880,set_tempo,110,1,0,,,,,,452523,,,,,,
56880,note_on,0,0,0,,,,,,,,0,,,64,51
56890,note_on,10,0,0,,,,,,,,0,,,63,0
57000,set_tempo,110,1,0,,,,,,597788,,,,,,
57000,note_on,0,0,0,,,,,,,,0,,,63,48
57010,note_on,10,0,0,,,,,,,,0,,,64,0
57060,set_tempo,50,1,0,,,,,,471291,,,,,,
57060,note_on,0,0,0,,,,,,,,0,,,65,51
57120,set_tempo,60,1,0,,,,,,457980,,,,,,
57120,note_on,0,0,0,,,,,,,,0,,,48,0
57120,note_on,0,0,0,,,,,,,,0,,,63,0
57120,note_on,0,0,0,,,,,,,,0,,,57,0
57120,note_on,0,0,0,,,,,,,,0,,,64,54
57130,note_on,10,0,0,,,,,,,,0,,,65,0
57240,note_on,110,0,0,,,,,,,,0,,,60,48
57250,note_on,10,0,0,,,,,,,,0,,,64,0
57360,note_on,110,0,0,,,,,,,,0,,,59,51
57370,note_on,10,0,0,,,,,,,,0,,,60,0
57480,set_tempo,110,1,0,,,,,,540882,,,,,,
57480,note_on,0,0,0,,,,,,,,0,,,57,47
57490,note_on,10,0,0,,,,,,,,0,,,59,0
57600,set_tempo,110,1,0,,,,,,473261,,,,,,
57600,note_on,0,0,0,,,,,,,,0,,,57,0
57600,note_on,0,0,0,,,,,,,,0,,,50,36
57600,note_on,0,0,0,,,,,,,,0,,,53,38
57600,note_on,0,0,0,,,,,,,,0,,,58,45
57720,note_on,120,0,0,,,,,,,,0,,,57,43
57730,note_on,10,0,0,,,,,,,,0,,,58,0
57840,set_tempo,110,1,0,,,,,,465513,,,,,,
57840,note_on,0,0,0,,,,,,,,0,,,58,45
57850,note_on,10,0,0,,,,,,,,0,,,57,0
57960,set_tempo,110,1,0,,,,,,604169,,,,,,
57960,note_on,0,0,0,,,,,,,,0,,,57,41
57970,note_on,10,0,0,,,,,,,,0,,,58,0
58020,set_tempo,50,1,0,,,,,,471291,,,,,,
58020,note_on,0,0,0,,,,,,,,0,,,60,47
58080,set_tempo,60,1,0,,,,,,461716,,,,,,
58080,note_on,0,0,0,,,,,,,,0,,,50,0
58080,note_on,0,0,0,,,,,,,,0,,,57,0
58080,note_on,0,0,0,,,,,,,,0,,,53,0
58080,note_on,0,0,0,,,,,,,,0,,,59,51
58080,note_on,0,0,0,,,,,,,,0,,,52,36
58080,note_on,0,0,0,,,,,,,,0,,,56,43
58090,note_on,10,0,0,,,,,,,,0,,,60,0
58200,note_on,110,0,0,,,,,,,,0,,,65,41
58210,note_on,10,0,0,,,,,,,,0,,,59,0
58320,note_on,110,0,0,,,,,,,,0,,,56,0
58320,note_on,0,0,0,,,,,,,,0,,,52,0
58320,note_on,0,0,0,,,,,,,,0,,,64,44
58330,note_on,10,0,0,,,,,,,,0,,,65,0
58440,set_tempo,110,1,0,,,,,,500375,,,,,,
58440,note_on,0,0,0,,,,,,,,0,,,56,40
58450,note_on,10,0,0,,,,,,,,0,,,64,0
58560,set_tempo,110,1,0,,,,,,483325,,,,,,
58560,note_on,0,0,0,,,,,,,,0,,,56,0
58560,note_on,0,0,0,,,,,,,,0,,,57,44
58680,set_tempo,120,1,0,,,,,,507057,,,,,,
58680,note_on,0,0,0,,,,,,,,0,,,56,40
58690,note_on,10,0,0,,,,,,,,0,,,57,0
58800,set_tempo,110,1,0,,,,,,523423,,,,,,
58800,note_on,0,0,0,,,,,,,,0,,,50,41
58800,note_on,0,0,0,,,,,,,,0,,,53,41
58800,note_on,0,0,0,,,,,,,,0,,,57,45
58810,note_on,10,0,0,,,,,,,,0,,,56,0
58860,note_on,50,0,0,,,,,,,,0,,,50,0
58860,note_on,0,0,0,,,,,,,,0,,,53,0
58920,set_tempo,60,1,0,,,,,,597788,,,,,,
58920,note_on,0,0,0,,,,,,,,0,,,56,39
58930,note_on,10,0,0,,,,,,,,0,,,57,0
58980,set_tempo,50,1,0,,,,,,471291,,,,,,
59020,set_tempo,40,1,0,,,,,,463607,,,,,,
59040,note_on,20,0,0,,,,,,,,0,,,56,0
59040,note_on,0,0,0,,,,,,,,0,,,48,41
59040,note_on,0,0,0,,,,,,,,0,,,52,41
59040,note_on,0,0,0,,,,,,,,0,,,57,43
59100,note_on,60,0,0,,,,,,,,0,,,57,0
59100,note_on,0,0,0,,,,,,,,0,,,52,0
59100,note_on,0,0,0,,,,,,,,0,,,48,0
59520,set_tempo,420,1,0,,,,,,475248,,,,,,
59520,note_on,0,0,0,,,,,,,,0,,,45,51
59640,note_on,120,0,0,,,,,,,,0,,,44,48
59650,note_on,10,0,0,,,,,,,,0,,,45,0
59760,set_tempo,110,1,0,,,,,,463607,,,,,,
59760,note_on,0,0,0,,,,,,,,0,,,45,51
59770,note_on,10,0,0,,,,,,,,0,,,44,0
59880,set_tempo,110,1,0,,,,,,502597,,,,,,
59880,note_on,0,0,0,,,,,,,,0,,,44,48
59890,note_on,10,0,0,,,,,,,,0,,,45,0
59940,set_tempo,50,1,0,,,,,,471291,,,,,,
59940,note_on,0,0,0,,,,,,,,0,,,44,0
59940,note_on,0,0,0,,,,,,,,0,,,46,46
60000,set_tempo,60,1,0,,,,,,459841,,,,,,
60000,note_on,0,0,0,,,,,,,,0,,,61,43
60000,note_on,0,0,0,,,,,,,,0,,,52,36
60000,note_on,0,0,0,,,,,,,,0,,,55,36
60000,note_on,0,0,0,,,,,,,,0,,,45,51
60010,note_on,10,0,0,,,,,,,,0,,,46,0
60120,note_on,110,0,0,,,,,,,,0,,,43,48
60130,note_on,10,0,0,,,,,,,,0,,,45,0
60240,note_on,110,0,0,,,,,,,,0,,,41,51
60250,note_on,10,0,0,,,,,,,,0,,,43,0
60360,set_tempo,110,1,0,,,,,,477251,,,,,,
60360,note_on,0,0,0,,,,,,,,0,,,40,47
60370,note_on,10,0,0,,,,,,,,0,,,41,0
60480,set_tempo,110,1,0,,,,,,459841,,,,,,
60480,note_on,0,0,0,,,,,,,,0,,,55,0
60480,note_on,0,0,0,,,,,,,,0,,,61,0
60480,note_on,0,0,0,,,,,,,,0,,,52,0
60480,note_on,0,0,0,,,,,,,,0,,,40,0
60480,note_on,0,0,0,,,,,,,,0,,,38,51
60600,note_on,120,0,0,,,,,,,,0,,,37,48
60610,note_on,10,0,0,,,,,,,,0,,,38,0
60720,set_tempo,110,1,0,,,,,,452523,,,,,,
60720,note_on,0,0,0,,,,,,,,0,,,38,51
60730,note_on,10,0,0,,,,,,,,0,,,37,0
60840,set_tempo,110,1,0,,,,,,597788,,,,,,
60840,note_on,0,0,0,,,,,,,,0,,,37,48
60850,note_on,10,0,0,,,,,,,,0,,,38,0
60900,set_tempo,50,1,0,,,,,,471291,,,,,,
60900,note_on,0,0,0,,,,,,,,0,,,37,0
60900,note_on,0,0,0,,,,,,,,0,,,39,48
60960,set_tempo,60,1,0,,,,,,452523,,,,,,
60960,note_on,0,0,0,,,,,,,,0,,,65,43
60960,note_on,0,0,0,,,,,,,,0,,,53,36
60960,note_on,0,0,0,,,,,,,,0,,,57,36
60960,note_on,0,0,0,,,,,,,,0,,,38,53
60970,note_on,10,0,0,,,,,,,,0,,,39,0
61080,set_tempo,110,1,0,,,,,,445434,,,,,,
61080,note_on,0,0,0,,,,,,,,0,,,40,48
61090,note_on,10,0,0,,,,,,,,0,,,38,0
61200,note_on,110,0,0,,,,,,,,0,,,41,51
61210,note_on,10,0,0,,,,,,,,0,,,40,0
61320,set_tempo,110,1,0,,,,,,540882,,,,,,
61320,note_on,0,0,0,,,,,,,,0,,,38,47
61330,note_on,10,0,0,,,,,,,,0,,,41,0
61440,set_tempo,110,1,0,,,,,,475248,,,,,,
61440,note_on,0,0,0,,,,,,,,0,,,57,0
61440,note_on,0,0,0,,,,,,,,0,,,65,0
61440,note_on,0,0,0,,,,,,,,0,,,53,0
61440,note_on,0,0,0,,,,,,,,0,,,43,51
61450,note_on,10,0,0,,,,,,,,0,,,38,0
61560,note_on,110,0,0,,,,,,,,0,,,42,48
61570,note_on,10,0,0,,,,,,,,0,,,43,0
61680,set_tempo,110,1,0,,,,,,463607,,,,,,
61680,note_on,0,0,0,,,,,,,,0,,,43,51
61690,note_on,10,0,0,,,,,,,,0,,,42,0
61800,set_tempo,110,1,0,,,,,,502597,,,,,,
61800,note_on,0,0,0,,,,,,,,0,,,42,48
61810,note_on,10,0,0,,,,,,,,0,,,43,0
61860,set_tempo,50,1,0,,,,,,471291,,,,,,
61860,note_on,0,0,0,,,,,,,,0,,,42,0
61860,note_on,0,0,0,,,,,,,,0,,,44,49
61920,set_tempo,60,1,0,,,,,,459841,,,,,,
61920,note_on,0,0,0,,,,,,,,0,,,59,43
61920,note_on,0,0,0,,,,,,,,0,,,50,36
61920,note_on,0,0,0,,,,,,,,0,,,53,36
61920,note_on,0,0,0,,,,,,,,0,,,43,51
61930,note_on,10,0,0,,,,,,,,0,,,44,0
62040,note_on,110,0,0,,,,,,,,0,,,41,48
62050,note_on,10,0,0,,,,,,,,0,,,43,0
62160,note_on,110,0,0,,,,,,,,0,,,40,51
62170,note_on,10,0,0,,,,,,,,0,,,41,0
62280,set_tempo,110,1,0,,,,,,477251,,,,,,
62280,note_on,0,0,0,,,,,,,,0,,,38,47
62290,note_on,10,0,0,,,,,,,,0,,,40,0
62400,set_tempo,110,1,0,,,,,,459841,,,,,,
62400,note_on,0,0,0,,,,,,,,0,,,53,0
62400,note_on,0,0,0,,,,,,,,0,,,59,0
62400,note_on,0,0,0,,,,,,,,0,,,50,0
62400,note_on,0,0,0,,,,,,,,0,,,38,0
62400,note_on,0,0,0,,,,,,,,0,,,36,51
62520,note_on,120,0,0,,,,,,,,0,,,35,48
62530,note_on,10,0,0,,,,,,,,0,,,36,0
62640,set_tempo,110,1,0,,,,,,452523,,,,,,
62640,note_on,0,0,0,,,,,,,,0,,,36,51
62650,note_on,10,0,0,,,,,,,,0,,,35,0
62760,set_tempo,110,1,0,,,,,,597788,,,,,,
62760,note_on,0,0,0,,,,,,,,0,,,35,48
62770,note_on,10,0,0,,,,,,,,0,,,36,0
62820,set_tempo,50,1,0,,,,,,471291,,,,,,
62820,note_on,0,0,0,,,,,,,,0,,,35,0
62820,note_on,0,0,0,,,,,,,,0,,,37,47
62880,set_tempo,60,1,0,,,,,,452523,,,,,,
62880,note_on,0,0,0,,,,,,,,0,,,64,43
62880,note_on,0,0,0,,,,,,,,0,,,52,36
62880,note_on,0,0,0,,,,,,,,0,,,55,36
62880,note_on,0,0,0,,,,,,,,0,,,36,52
62890,note_on,10,0,0,,,,,,,,0,,,37,0
63000,set_tempo,110,1,0,,,,,,445434,,,,,,
63000,note_on,0,0,0,,,,,,,,0,,,38,48
63010,note_on,10,0,0,,,,,,,,0,,,36,0
63120,note_on,110,0,0,,,,,,,,0,,,40,51
63130,note_on,10,0,0,,,,,,,,0,,,38,0
63240,set_tempo,110,1,0,,,,,,540882,,,,,,
63240,note_on,0,0,0,,,,,,,,0,,,36,47
63250,note_on,10,0,0,,,,,,,,0,,,40,0
63360,set_tempo,110,1,0,,,,,,475248,,,,,,
63360,note_on,0,0,0,,,,,,,,0,,,55,0
63360,note_on,0,0,0,,,,,,,,0,,,64,0
63360,note_on,0,0,0,,,,,,,,0,,,52,0
63360,note_on,0,0,0,,,,,,,,0,,,41,51
63370,note_on,10,0,0,,,,,,,,0,,,36,0
63480,note_on,110,0,0,,,,,,,,0,,,40,48
63490,note_on,10,0,0,,,,,,,,0,,,41,0
63600,set_tempo,110,1,0,,,,,,463607,,,,,,
63600,note_on,0,0,0,,,,,,,,0,,,41,51
63610,note_on,10,0,0,,,,,,,,0,,,40,0
63720,set_tempo,110,1,0,,,,,,502597,,,,,,
63720,note_on,0,0,0,,,,,,,,0,,,40,48
63730,note_on,10,0,0,,,,,,,,0,,,41,0
63780,set_tempo,50,1,0,,,,,,471291,,,,,,
63780,note_on,0,0,0,,,,,,,,0,,,40,0
63780,note_on,0,0,0,,,,,,,,0,,,43,46
63840,set_tempo,60,1,0,,,,,,459841,,,,,,
63840,note_on,0,0,0,,,,,,,,0,,,59,43
63840,note_on,0,0,0,,,,,,,,0,,,50,36
63840,note_on,0,0,0,,,,,,,,0,,,56,36
63840,note_on,0,0,0,,,,,,,,0,,,41,50
63850,note_on,10,0,0,,,,,,,,0,,,43,0
63960,note_on,110,0,0,,,,,,,,0,,,38,48
63970,note_on,10,0,0,,,,,,,,0,,,41,0
64080,note_on,110,0,0,,,,,,,,0,,,36,51
64090,note_on,10,0,0,,,,,,,,0,,,38,0
64200,set_tempo,110,1,0,,,,,,477251,,,,,,
64200,note_on,0,0,0,,,,,,,,0,,,35,47
64210,note_on,10,0,0,,,,,,,,0,,,36,0
64320,set_tempo,110,1,0,,,,,,459841,,,,,,
64320,note_on,0,0,0,,,,,,,,0,,,56,0
64320,note_on,0,0,0,,,,,,,,0,,,59,0
64320,note_on,0,0,0,,,,,,,,0,,,50,0
64320,note_on,0,0,0,,,,,,,,0,,,40,51
64330,note_on,10,0,0,,,,,,,,0,,,35,0
64440,note_on,110,0,0,,,,,,,,0,,,39,48
64450,note_on,10,0,0,,,,,,,,0,,,40,0
64560,set_tempo,110,1,0,,,,,,452523,,,,,,
64560,note_on,0,0,0,,,,,,,,0,,,40,51
64570,note_on,10,0,0,,,,,,,,0,,,39,0
64680,set_tempo,110,1,0,,,,,,597788,,,,,,
64680,note_on,0,0,0,,,,,,,,0,,,39,48
64690,note_on,10,0,0,,,,,,,,0,,,40,0
64740,set_tempo,50,1,0,,,,,,471291,,,,,,
64740,note_on,0,0,0,,,,,,,,0,,,39,0
64740,note_on,0,0,0,,,,,,,,0,,,41,45
64800,set_tempo,60,1,0,,,,,,452523,,,,,,
64800,note_on,0,0,0,,,,,,,,0,,,60,43
64800,note_on,0,0,0,,,,,,,,0,,,52,36
64800,note_on,0,0,0,,,,,,,,0,,,57,36
64800,note_on,0,0,0,,,,,,,,0,,,40,50
64810,note_on,10,0,0,,,,,,,,0,,,41,0
64920,set_tempo,110,1,0,,,,,,445434,,,,,,
64920,note_on,0,0,0,,,,,,,,0,,,36,48
64930,note_on,10,0,0,,,,,,,,0,,,40,0
65040,note_on,110,0,0,,,,,,,,0,,,35,51
65050,note_on,10,0,0,,,,,,,,0,,,36,0
65160,set_tempo,110,1,0,,,,,,540882,,,,,,
65160,note_on,0,0,0,,,,,,,,0,,,33,47
65170,note_on,10,0,0,,,,,,,,0,,,35,0
65280,set_tempo,110,1,0,,,,,,526362,,,,,,
65280,note_on,0,0,0,,,,,,,,0,,,57,0
65280,note_on,0,0,0,,,,,,,,0,,,60,0
65280,note_on,0,0,0,,,,,,,,0,,,52,0
65280,note_on,0,0,0,,,,,,,,0,,,33,0
65280,note_on,0,0,0,,,,,,,,0,,,62,43
65280,note_on,0,0,0,,,,,,,,0,,,53,36
65280,note_on,0,0,0,,,,,,,,0,,,57,36
65280,note_on,0,0,0,,,,,,,,0,,,35,51
65400,note_on,120,0,0,,,,,,,,0,,,34,48
65410,note_on,10,0,0,,,,,,,,0,,,35,0
65520,set_tempo,110,1,0,,,,,,560800,,,,,,
65520,note_on,0,0,0,,,,,,,,0,,,62,0
65520,note_on,0,0,0,,,,,,,,0,,,63,43
65520,note_on,0,0,0,,,,,,,,0,,,35,51
65530,note_on,10,0,0,,,,,,,,0,,,34,0
65640,note_on,110,0,0,,,,,,,,0,,,34,48
65650,note_on,10,0,0,,,,,,,,0,,,35,0
65760,set_tempo,110,1,0,,,,,,895656,,,,,,
65760,note_on,0,0,0,,,,,,,,0,,,63,0
65760,note_on,0,0,0,,,,,,,,0,,,53,0
65760,note_on,0,0,0,,,,,,,,0,,,57,0
65760,note_on,0,0,0,,,,,,,,0,,,34,0
65760,note_on,0,0,0,,,,,,,,0,,,64,43
65760,note_on,0,0,0,,,,,,,,0,,,52,36
65760,note_on,0,0,0,,,,,,,,0,,,56,36
65760,note_on,0,0,0,,,,,,,,0,,,36,51
65880,set_tempo,120,1,0,,,,,,1714776,,,,,,
65880,note_on,0,0,0,,,,,,,,0,,,35,48
65890,note_on,10,0,0,,,,,,,,0,,,36,0
66000,set_tempo,110,1,0,,,,,,5004170,,,,,,
66000,note_on,0,0,0,,,,,,,,0,,,56,0
66000,note_on,0,0,0,,,,,,,,0,,,64,0
66000,note_on,0,0,0,,,,,,,,0,,,52,0
66000,note_on,0,0,0,,,,,,,,0,,,41,51
66010,note_on,10,0,0,,,,,,,,0,,,35,0
66120,set_tempo,110,1,0,,,,,,540882,,,,,,
66120,note_on,0,0,0,,,,,,,,0,,,40,47
66130,note_on,10,0,0,,,,,,,,0,,,41,0
66240,set_tempo,110,1,0,,,,,,454339,,,,,,
66240,note_on,0,0,0,,,,,,,,0,,,40,0
66240,note_on,0,0,0,,,,,,,,0,,,33,43
66360,note_on,120,0,0,,,,,,,,0,,,33,0
66360,note_on,0,0,0,,,,,,,,0,,,32,40
66480,set_tempo,120,1,0,,,,,,448934,,,,,,
66480,note_on,0,0,0,,,,,,,,0,,,32,0
66480,note_on,0,0,0,,,,,,,,0,,,33,43
66600,set_tempo,120,1,0,,,,,,489596,,,,,,
66600,note_on,0,0,0,,,,,,,,0,,,33,0
66600,note_on,0,0,0,,,,,,,,0,,,32,40
66660,set_tempo,60,1,0,,,,,,471291,,,,,,
66660,note_on,0,0,0,,,,,,,,0,,,32,0
66660,note_on,0,0,0,,,,,,,,0,,,34,36
66720,set_tempo,60,1,0,,,,,,458050,,,,,,
66720,note_on,0,0,0,,,,,,,,0,,,62,36
66720,note_on,0,0,0,,,,,,,,0,,,53,30
66720,note_on,0,0,0,,,,,,,,0,,,57,30
66720,note_on,0,0,0,,,,,,,,0,,,33,43
66730,note_on,10,0,0,,,,,,,,0,,,34,0
66840,note_on,110,0,0,,,,,,,,0,,,33,0
66840,note_on,0,0,0,,,,,,,,0,,,32,40
66960,note_on,120,0,0,,,,,,,,0,,,32,0
66960,note_on,0,0,0,,,,,,,,0,,,57,0
66960,note_on,0,0,0,,,,,,,,0,,,53,0
66960,note_on,0,0,0,,,,,,,,0,,,62,0
66960,note_on,0,0,0,,,,,,,,0,,,33,43
67080,set_tempo,120,1,0,,,,,,491844,,,,,,
67080,note_on,0,0,0,,,,,,,,0,,,33,0
67080,note_on,0,0,0,,,,,,,,0,,,32,40
67200,set_tempo,120,1,0,,,,,,461574,,,,,,
67200,note_on,0,0,0,,,,,,,,0,,,32,0
67200,note_on,0,0,0,,,,,,,,0,,,52,30
67200,note_on,0,0,0,,,,,,,,0,,,57,30
67200,note_on,0,0,0,,,,,,,,0,,,60,36
67200,note_on,0,0,0,,,,,,,,0,,,33,43
67320,note_on,120,0,0,,,,,,,,0,,,33,0
67320,note_on,0,0,0,,,,,,,,0,,,32,39
67440,set_tempo,120,1,0,,,,,,457980,,,,,,
67440,note_on,0,0,0,,,,,,,,0,,,32,0
67440,note_on,0,0,0,,,,,,,,0,,,60,0
67440,note_on,0,0,0,,,,,,,,0,,,57,0
67440,note_on,0,0,0,,,,,,,,0,,,52,0
67440,note_on,0,0,0,,,,,,,,0,,,33,42
67560,set_tempo,120,1,0,,,,,,502597,,,,,,
67560,note_on,0,0,0,,,,,,,,0,,,33,0
67560,note_on,0,0,0,,,,,,,,0,,,32,38
67620,set_tempo,60,1,0,,,,,,471291,,,,,,
67620,note_on,0,0,0,,,,,,,,0,,,32,0
67620,note_on,0,0,0,,,,,,,,0,,,34,40
67680,set_tempo,60,1,0,,,,,,472478,,,,,,
67680,note_on,0,0,0,,,,,,,,0,,,50,26
67680,note_on,0,0,0,,,,,,,,0,,,53,26
67680,note_on,0,0,0,,,,,,,,0,,,57,32
67680,note_on,0,0,0,,,,,,,,0,,,33,38
67690,note_on,10,0,0,,,,,,,,0,,,34,0
67800,note_on,110,0,0,,,,,,,,0,,,33,0
67800,note_on,0,0,0,,,,,,,,0,,,32,35
67920,note_on,120,0,0,,,,,,,,0,,,32,0
67920,note_on,0,0,0,,,,,,,,0,,,57,0
67920,note_on,0,0,0,,,,,,,,0,,,53,0
67920,note_on,0,0,0,,,,,,,,0,,,50,0
67920,note_on,0,0,0,,,,,,,,0,,,33,37
68040,set_tempo,120,1,0,,,,,,512864,,,,,,
68040,note_on,0,0,0,,,,,,,,0,,,33,0
68040,note_on,0,0,0,,,,,,,,0,,,32,33
68160,set_tempo,120,1,0,,,,,,508518,,,,,,
68160,note_on,0,0,0,,,,,,,,0,,,32,0
68160,note_on,0,0,0,,,,,,,,0,,,48,24
68160,note_on,0,0,0,,,,,,,,0,,,52,24
68160,note_on,0,0,0,,,,,,,,0,,,57,29
68160,note_on,0,0,0,,,,,,,,0,,,33,35
68280,note_on,120,0,0,,,,,,,,0,,,33,0
68280,note_on,0,0,0,,,,,,,,0,,,32,31
68400,set_tempo,120,1,0,,,,,,512864,,,,,,
68400,note_on,0,0,0,,,,,,,,0,,,32,0
68400,note_on,0,0,0,,,,,,,,0,,,57,0
68400,note_on,0,0,0,,,,,,,,0,,,52,0
68400,note_on,0,0,0,,,,,,,,0,,,48,0
68400,note_on,0,0,0,,,,,,,,0,,,33,32
68520,set_tempo,120,1,0,,,,,,491844,,,,,,
68520,note_on,0,0,0,,,,,,,,0,,,33,0
68520,note_on,0,0,0,,,,,,,,0,,,32,28
68580,note_on,60,0,0,,,,,,,,0,,,32,0
68580,note_on,0,0,0,,,,,,,,0,,,34,29
68640,set_tempo,60,1,0,,,,,,500042,,,,,,
68640,note_on,0,0,0,,,,,,,,0,,,50,20
68640,note_on,0,0,0,,,,,,,,0,,,53,25
68640,note_on,0,0,0,,,,,,,,0,,,33,29
68650,note_on,10,0,0,,,,,,,,0,,,34,0
68760,note_on,110,0,0,,,,,,,,0,,,33,0
68760,note_on,0,0,0,,,,,,,,0,,,32,27
68880,set_tempo,120,1,0,,,,,,625065,,,,,,
68880,note_on,0,0,0,,,,,,,,0,,,32,0
68880,note_on,0,0,0,,,,,,,,0,,,53,0
68880,note_on,0,0,0,,,,,,,,0,,,50,0
68880,note_on,0,0,0,,,,,,,,0,,,33,27
69000,set_tempo,120,1,0,,,,,,845189,,,,,,
69000,note_on,0,0,0,,,,,,,,0,,,33,0
69000,note_on,0,0,0,,,,,,,,0,,,32,24
69120,set_tempo,120,1,0,,,,,,750094,,,,,,
69120,note_on,0,0,0,,,,,,,,0,,,32,0
69120,note_on,0,0,0,,,,,,,,0,,,48,15
69120,note_on,0,0,0,,,,,,,,0,,,52,15
69120,note_on,0,0,0,,,,,,,,0,,,57,18
69120,note_on,0,0,0,,,,,,,,0,,,33,23
69360,note_on,240,0,0,,,,,,,,0,,,33,0
69360,note_on,0,0,0,,,,,,,,0,,,48,0
69360,note_on,0,0,0,,,,,,,,0,,,52,0
69360,note_on,0,0,0,,,,,,,,0,,,57,0
70080,set_tempo,720,1,0,,,,,,489037,,,,,,
70080,marker,0,1,0,,,,,,,,,,,,
70080,note_on,0,0,0,,,,,,,,0,,,69,70
70080,note_on,0,0,0,,,,,,,,0,,,57,61
70080,note_on,0,0,0,,,,,,,,0,,,36,57
70080,note_on,0,0,0,,,,,,,,0,,,48,69
70114,control_change,34,0,0,,,,,,,,0,64,127,,
70200,note_on,86,0,0,,,,,,,,0,,,57,0
70200,note_on,0,0,0,,,,,,,,0,,,69,0
70200,note_on,0,0,0,,,,,,,,0,,,63,43
70200,note_on,0,0,0,,,,,,,,0,,,66,52
70226,control_change,26,0,0,,,,,,,,0,64,0,,
70260,note_on,34,0,0,,,,,,,,0,,,66,0
70260,note_on,0,0,0,,,,,,,,0,,,63,0
70320,set_tempo,60,1,0,,,,,,564706,,,,,,
70440,set_tempo,120,1,0,,,,,,610128,,,,,,
70440,note_on,0,0,0,,,,,,,,0,,,57,47
70440,note_on,0,0,0,,,,,,,,0,,,69,54
70440,note_on,0,0,0,,,,,,,,0,,,51,41
70440,note_on,0,0,0,,,,,,,,0,,,54,41
70440,note_on,0,0,0,,,,,,,,0,,,60,48
70560,set_tempo,120,1,0,,,,,,516662,,,,,,
70560,note_on,0,0,0,,,,,,,,0,,,60,0
70560,note_on,0,0,0,,,,,,,,0,,,51,0
70560,note_on,0,0,0,,,,,,,,0,,,36,0
70560,note_on,0,0,0,,,,,,,,0,,,57,0
70560,note_on,0,0,0,,,,,,,,0,,,48,0
70560,note_on,0,0,0,,,,,,,,0,,,54,0
70560,note_on,0,0,0,,,,,,,,0,,,69,0
70560,note_on,0,0,0,,,,,,,,0,,,69,66
70560,note_on,0,0,0,,,,,,,,0,,,57,58
70560,note_on,0,0,0,,,,,,,,0,,,51,45
70560,note_on,0,0,0,,,,,,,,0,,,54,45
70560,note_on,0,0,0,,,,,,,,0,,,60,54
70680,note_on,120,0,0,,,,,,,,0,,,60,0
70680,note_on,0,0,0,,,,,,,,0,,,51,0
70680,note_on,0,0,0,,,,,,,,0,,,69,0
70680,note_on,0,0,0,,,,,,,,0,,,57,0
70680,note_on,0,0,0,,,,,,,,0,,,54,0
70680,note_on,0,0,0,,,,,,,,0,,,72,62
70680,note_on,0,0,0,,,,,,,,0,,,60,54
70800,note_on,120,0,0,,,,,,,,0,,,60,0
70800,note_on,0,0,0,,,,,,,,0,,,72,0
70800,note_on,0,0,0,,,,,,,,0,,,71,66
70800,note_on,0,0,0,,,,,,,,0,,,59,58
70800,note_on,0,0,0,,,,,,,,0,,,33,46
70800,note_on,0,0,0,,,,,,,,0,,,45,55
70820,set_tempo,20,1,0,,,,,,521105,,,,,,
70823,control_change,3,0,0,,,,,,,,0,64,127,,
70920,set_tempo,97,1,0,,,,,,537249,,,,,,
70920,note_on,0,0,0,,,,,,,,0,,,59,0
70920,note_on,0,0,0,,,,,,,,0,,,71,0
70920,note_on,0,0,0,,,,,,,,0,,,69,62
70920,note_on,0,0,0,,,,,,,,0,,,57,54
71040,set_tempo,120,1,0,,,,,,518852,,,,,,
71040,note_on,0,0,0,,,,,,,,0,,,57,0
71040,note_on,0,0,0,,,,,,,,0,,,45,0
71040,note_on,0,0,0,,,,,,,,0,,,33,0
71040,note_on,0,0,0,,,,,,,,0,,,69,0
71040,note_on,0,0,0,,,,,,,,0,,,76,70
71040,note_on,0,0,0,,,,,,,,0,,,64,61
71040,note_on,0,0,0,,,,,,,,0,,,32,55
71040,note_on,0,0,0,,,,,,,,0,,,44,66
71051,control_change,11,0,0,,,,,,,,0,64,0,,
71091,control_change,40,0,0,,,,,,,,0,64,127,,
71160,note_on,69,0,0,,,,,,,,0,,,64,0
71160,note_on,0,0,0,,,,,,,,0,,,76,0
71160,note_on,0,0,0,,,,,,,,0,,,68,43
71160,note_on,0,0,0,,,,,,,,0,,,71,52
71220,note_on,60,0,0,,,,,,,,0,,,71,0
71220,note_on,0,0,0,,,,,,,,0,,,68,0
71234,control_change,14,0,0,,,,,,,,0,64,0,,
71280,set_tempo,46,1,0,,,,,,554375,,,,,,
71280,note_on,0,0,0,,,,,,,,0,,,32,0
71280,note_on,0,0,0,,,,,,,,0,,,44,0
71280,note_on,0,0,0,,,,,,,,0,,,35,53
71280,note_on,0,0,0,,,,,,,,0,,,47,64
71400,set_tempo,120,1,0,,,,,,589391,,,,,,
71400,note_on,0,0,0,,,,,,,,0,,,64,47
71400,note_on,0,0,0,,,,,,,,0,,,76,54
71520,set_tempo,120,1,0,,,,,,525578,,,,,,
71520,note_on,0,0,0,,,,,,,,0,,,76,0
71520,note_on,0,0,0,,,,,,,,0,,,35,0
71520,note_on,0,0,0,,,,,,,,0,,,47,0
71520,note_on,0,0,0,,,,,,,,0,,,64,0
71520,note_on,0,0,0,,,,,,,,0,,,76,66
71520,note_on,0,0,0,,,,,,,,0,,,64,58
71520,note_on,0,0,0,,,,,,,,0,,,40,60
71520,note_on,0,0,0,,,,,,,,0,,,44,60
71520,note_on,0,0,0,,,,,,,,0,,,52,72
71640,note_on,120,0,0,,,,,,,,0,,,64,0
71640,note_on,0,0,0,,,,,,,,0,,,76,0
71640,note_on,0,0,0,,,,,,,,0,,,79,62
71640,note_on,0,0,0,,,,,,,,0,,,67,54
71760,note_on,120,0,0,,,,,,,,0,,,67,0
71760,note_on,0,0,0,,,,,,,,0,,,79,0
71760,note_on,0,0,0,,,,,,,,0,,,77,66
71760,note_on,0,0,0,,,,,,,,0,,,65,58
71797,control_change,37,0,0,,,,,,,,0,64,127,,
71880,set_tempo,83,1,0,,,,,,551876,,,,,,
71880,note_on,0,0,0,,,,,,,,0,,,65,0
71880,note_on,0,0,0,,,,,,,,0,,,77,0
71880,note_on,0,0,0,,,,,,,,0,,,76,62
71880,note_on,0,0,0,,,,,,,,0,,,64,54
72000,set_tempo,120,1,0,,,,,,516662,,,,,,
72000,note_on,0,0,0,,,,,,,,0,,,64,0
72000,note_on,0,0,0,,,,,,,,0,,,44,0
72000,note_on,0,0,0,,,,,,,,0,,,52,0
72000,note_on,0,0,0,,,,,,,,0,,,40,0
72000,note_on,0,0,0,,,,,,,,0,,,76,0
72000,note_on,0,0,0,,,,,,,,0,,,69,72
72000,note_on,0,0,0,,,,,,,,0,,,57,63
72000,control_change,0,0,0,,,,,,,,0,64,0,,
72000,note_on,0,0,0,,,,,,,,0,,,36,64
72000,note_on,0,0,0,,,,,,,,0,,,48,77
72034,control_change,34,0,0,,,,,,,,0,64,127,,
72120,note_on,86,0,0,,,,,,,,0,,,57,0
72120,note_on,0,0,0,,,,,,,,0,,,69,0
72120,note_on,0,0,0,,,,,,,,0,,,63,46
72120,note_on,0,0,0,,,,,,,,0,,,66,54
72146,control_change,26,0,0,,,,,,,,0,64,0,,
72180,note_on,34,0,0,,,,,,,,0,,,66,0
72180,note_on,0,0,0,,,,,,,,0,,,63,0
72240,set_tempo,60,1,0,,,,,,516662,,,,,,
72360,set_tempo,120,1,0,,,,,,601082,,,,,,
72360,note_on,0,0,0,,,,,,,,0,,,57,50
72360,note_on,0,0,0,,,,,,,,0,,,69,58
72360,note_on,0,0,0,,,,,,,,0,,,51,43
72360,note_on,0,0,0,,,,,,,,0,,,54,43
72360,note_on,0,0,0,,,,,,,,0,,,60,51
72480,set_tempo,120,1,0,,,,,,516662,,,,,,
72480,note_on,0,0,0,,,,,,,,0,,,60,0
72480,note_on,0,0,0,,,,,,,,0,,,51,0
72480,note_on,0,0,0,,,,,,,,0,,,36,0
72480,note_on,0,0,0,,,,,,,,0,,,57,0
72480,note_on,0,0,0,,,,,,,,0,,,48,0
72480,note_on,0,0,0,,,,,,,,0,,,54,0
72480,note_on,0,0,0,,,,,,,,0,,,69,0
72480,note_on,0,0,0,,,,,,,,0,,,69,68
72480,note_on,0,0,0,,,,,,,,0,,,57,60
72480,note_on,0,0,0,,,,,,,,0,,,51,47
72480,note_on,0,0,0,,,,,,,,0,,,54,47
72480,note_on,0,0,0,,,,,,,,0,,,60,56
72600,note_on,120,0,0,,,,,,,,0,,,60,0
72600,note_on,0,0,0,,,,,,,,0,,,51,0
72600,note_on,0,0,0,,,,,,,,0,,,69,0
72600,note_on,0,0,0,,,,,,,,0,,,57,0
72600,note_on,0,0,0,,,,,,,,0,,,54,0
72600,note_on,0,0,0,,,,,,,,0,,,72,64
72600,note_on,0,0,0,,,,,,,,0,,,60,56
72720,note_on,120,0,0,,,,,,,,0,,,60,0
72720,note_on,0,0,0,,,,,,,,0,,,72,0
72720,note_on,0,0,0,,,,,,,,0,,,71,68
72720,note_on,0,0,0,,,,,,,,0,,,59,60
72720,note_on,0,0,0,,,,,,,,0,,,33,49
72720,note_on,0,0,0,,,,,,,,0,,,45,57
72740,set_tempo,20,1,0,,,,,,521105,,,,,,
72743,control_change,3,0,0,,,,,,,,0,64,127,,
72840,set_tempo,97,1,0,,,,,,537249,,,,,,
72840,note_on,0,0,0,,,,,,,,0,,,59,0
72840,note_on,0,0,0,,,,,,,,0,,,71,0
72840,note_on,0,0,0,,,,,,,,0,,,69,64
72840,note_on,0,0,0,,,,,,,,0,,,57,56
72960,set_tempo,120,1,0,,,,,,532529,,,,,,
72960,note_on,0,0,0,,,,,,,,0,,,57,0
72960,note_on,0,0,0,,,,,,,,0,,,45,0
72960,note_on,0,0,0,,,,,,,,0,,,33,0
72960,note_on,0,0,0,,,,,,,,0,,,69,0
72960,note_on,0,0,0,,,,,,,,0,,,68,72
72960,note_on,0,0,0,,,,,,,,0,,,56,63
72960,note_on,0,0,0,,,,,,,,0,,,35,53
72960,note_on,0,0,0,,,,,,,,0,,,47,63
72971,control_change,11,0,0,,,,,,,,0,64,0,,
73011,control_change,40,0,0,,,,,,,,0,64,127,,
73080,note_on,69,0,0,,,,,,,,0,,,56,0
73080,note_on,0,0,0,,,,,,,,0,,,68,0
73080,note_on,0,0,0,,,,,,,,0,,,59,68
73140,note_on,60,0,0,,,,,,,,0,,,59,0
73154,control_change,14,0,0,,,,,,,,0,64,0,,
73200,set_tempo,46,1,0,,,,,,570017,,,,,,
73200,note_on,0,0,0,,,,,,,,0,,,35,0
73200,note_on,0,0,0,,,,,,,,0,,,47,0
73200,note_on,0,0,0,,,,,,,,0,,,39,59
73200,note_on,0,0,0,,,,,,,,0,,,51,71
73235,control_change,35,0,0,,,,,,,,0,64,127,,
73320,note_on,85,0,0,,,,,,,,0,,,63,64
73440,note_on,120,0,0,,,,,,,,0,,,63,0
73440,note_on,0,0,0,,,,,,,,0,,,51,0
73440,note_on,0,0,0,,,,,,,,0,,,39,0
73440,note_on,0,0,0,,,,,,,,0,,,56,63
73440,note_on,0,0,0,,,,,,,,0,,,65,73
73440,note_on,0,0,0,,,,,,,,0,,,59,63
73440,note_on,0,0,0,,,,,,,,0,,,41,65
73440,note_on,0,0,0,,,,,,,,0,,,53,77
73680,note_on,240,0,0,,,,,,,,0,,,53,0
73680,note_on,0,0,0,,,,,,,,0,,,59,0
73680,note_on,0,0,0,,,,,,,,0,,,56,0
73680,note_on,0,0,0,,,,,,,,0,,,65,0
73680,note_on,0,0,0,,,,,,,,0,,,41,0
73680,note_on,0,0,0,,,,,,,,0,,,64,70
73680,note_on,0,0,0,,,,,,,,0,,,40,63
73680,note_on,0,0,0,,,,,,,,0,,,52,73
73693,control_change,13,0,0,,,,,,,,0,64,0,,
73800,note_on,107,0,0,,,,,,,,0,,,52,0
73800,note_on,0,0,0,,,,,,,,0,,,40,0
73800,note_on,0,0,0,,,,,,,,0,,,64,0
73920,set_tempo,120,1,0,,,,,,516662,,,,,,
73920,note_on,0,0,0,,,,,,,,0,,,81,77
73920,note_on,0,0,0,,,,,,,,0,,,69,66
73920,note_on,0,0,0,,,,,,,,0,,,36,62
73920,note_on,0,0,0,,,,,,,,0,,,48,74
73954,control_change,34,0,0,,,,,,,,0,64,127,,
74040,note_on,86,0,0,,,,,,,,0,,,69,0
74040,note_on,0,0,0,,,,,,,,0,,,81,0
74040,note_on,0,0,0,,,,,,,,0,,,75,48
74040,note_on,0,0,0,,,,,,,,0,,,78,57
74066,control_change,26,0,0,,,,,,,,0,64,0,,
74100,note_on,34,0,0,,,,,,,,0,,,78,0
74100,note_on,0,0,0,,,,,,,,0,,,75,0
74160,set_tempo,60,1,0,,,,,,564706,,,,,,
74280,set_tempo,120,1,0,,,,,,610128,,,,,,
74280,note_on,0,0,0,,,,,,,,0,,,69,52
74280,note_on,0,0,0,,,,,,,,0,,,81,61
74280,note_on,0,0,0,,,,,,,,0,,,51,41
74280,note_on,0,0,0,,,,,,,,0,,,54,41
74280,note_on,0,0,0,,,,,,,,0,,,60,48
74400,set_tempo,120,1,0,,,,,,516662,,,,,,
74400,note_on,0,0,0,,,,,,,,0,,,60,0
74400,note_on,0,0,0,,,,,,,,0,,,51,0
74400,note_on,0,0,0,,,,,,,,0,,,36,0
74400,note_on,0,0,0,,,,,,,,0,,,69,0
74400,note_on,0,0,0,,,,,,,,0,,,48,0
74400,note_on,0,0,0,,,,,,,,0,,,54,0
74400,note_on,0,0,0,,,,,,,,0,,,81,0
74400,note_on,0,0,0,,,,,,,,0,,,81,72
74400,note_on,0,0,0,,,,,,,,0,,,69,63
74400,note_on,0,0,0,,,,,,,,0,,,51,45
74400,note_on,0,0,0,,,,,,,,0,,,54,45
74400,note_on,0,0,0,,,,,,,,0,,,60,54
74520,note_on,120,0,0,,,,,,,,0,,,60,0
74520,note_on,0,0,0,,,,,,,,0,,,51,0
74520,note_on,0,0,0,,,,,,,,0,,,81,0
74520,note_on,0,0,0,,,,,,,,0,,,69,0
74520,note_on,0,0,0,,,,,,,,0,,,54,0
74520,note_on,0,0,0,,,,,,,,0,,,84,67
74520,note_on,0,0,0,,,,,,,,0,,,72,60
74640,note_on,120,0,0,,,,,,,,0,,,72,0
74640,note_on,0,0,0,,,,,,,,0,,,84,0
74640,note_on,0,0,0,,,,,,,,0,,,83,72
74640,note_on,0,0,0,,,,,,,,0,,,71,63
74640,note_on,0,0,0,,,,,,,,0,,,33,46
74640,note_on,0,0,0,,,,,,,,0,,,45,55
74660,set_tempo,20,1,0,,,,,,521105,,,,,,
74663,control_change,3,0,0,,,,,,,,0,64,127,,
74760,set_tempo,97,1,0,,,,,,537249,,,,,,
74760,note_on,0,0,0,,,,,,,,0,,,71,0
74760,note_on,0,0,0,,,,,,,,0,,,83,0
74760,note_on,0,0,0,,,,,,,,0,,,81,67
74760,note_on,0,0,0,,,,,,,,0,,,69,60
74880,set_tempo,120,1,0,,,,,,518852,,,,,,
74880,note_on,0,0,0,,,,,,,,0,,,69,0
74880,note_on,0,0,0,,,,,,,,0,,,45,0
74880,note_on,0,0,0,,,,,,,,0,,,33,0
74880,note_on,0,0,0,,,,,,,,0,,,81,0
74880,note_on,0,0,0,,,,,,,,0,,,88,77
74880,note_on,0,0,0,,,,,,,,0,,,76,66
74880,note_on,0,0,0,,,,,,,,0,,,32,55
74880,note_on,0,0,0,,,,,,,,0,,,44,66
74891,control_change,11,0,0,,,,,,,,0,64,0,,
74931,control_change,40,0,0,,,,,,,,0,64,127,,
75000,note_on,69,0,0,,,,,,,,0,,,76,0
75000,note_on,0,0,0,,,,,,,,0,,,88,0
75000,note_on,0,0,0,,,,,,,,0,,,80,48
75000,note_on,0,0,0,,,,,,,,0,,,83,57
75060,note_on,60,0,0,,,,,,,,0,,,83,0
75060,note_on,0,0,0,,,,,,,,0,,,80,0
75074,control_change,14,0,0,,,,,,,,0,64,0,,
75120,set_tempo,46,1,0,,,,,,554375,,,,,,
75120,note_on,0,0,0,,,,,,,,0,,,32,0
75120,note_on,0,0,0,,,,,,,,0,,,44,0
75120,note_on,0,0,0,,,,,,,,0,,,35,53
75120,note_on,0,0,0,,,,,,,,0,,,47,64
75240,set_tempo,120,1,0,,,,,,589391,,,,,,
75240,note_on,0,0,0,,,,,,,,0,,,76,52
75240,note_on,0,0,0,,,,,,,,0,,,88,61
75360,set_tempo,120,1,0,,,,,,525578,,,,,,
75360,note_on,0,0,0,,,,,,,,0,,,88,0
75360,note_on,0,0,0,,,,,,,,0,,,35,0
75360,note_on,0,0,0,,,,,,,,0,,,47,0
75360,note_on,0,0,0,,,,,,,,0,,,76,0
75360,note_on,0,0,0,,,,,,,,0,,,88,72
75360,note_on,0,0,0,,,,,,,,0,,,76,63
75360,note_on,0,0,0,,,,,,,,0,,,40,60
75360,note_on,0,0,0,,,,,,,,0,,,44,60
75360,note_on,0,0,0,,,,,,,,0,,,52,72
75480,note_on,120,0,0,,,,,,,,0,,,76,0
75480,note_on,0,0,0,,,,,,,,0,,,88,0
75480,note_on,0,0,0,,,,,,,,0,,,91,67
75480,note_on,0,0,0,,,,,,,,0,,,79,60
75600,note_on,120,0,0,,,,,,,,0,,,79,0
75600,note_on,0,0,0,,,,,,,,0,,,91,0
75600,note_on,0,0,0,,,,,,,,0,,,89,72
75600,note_on,0,0,0,,,,,,,,0,,,77,63
75637,control_change,37,0,0,,,,,,,,0,64,127,,
75720,set_tempo,83,1,0,,,,,,551876,,,,,,
75720,note_on,0,0,0,,,,,,,,0,,,77,0
75720,note_on,0,0,0,,,,,,,,0,,,89,0
75720,note_on,0,0,0,,,,,,,,0,,,88,67
75720,note_on,0,0,0,,,,,,,,0,,,76,60
75840,set_tempo,120,1,0,,,,,,516662,,,,,,
75840,note_on,0,0,0,,,,,,,,0,,,76,0
75840,note_on,0,0,0,,,,,,,,0,,,44,0
75840,note_on,0,0,0,,,,,,,,0,,,52,0
75840,note_on,0,0,0,,,,,,,,0,,,40,0
75840,note_on,0,0,0,,,,,,,,0,,,88,0
75840,note_on,0,0,0,,,,,,,,0,,,81,80
75840,note_on,0,0,0,,,,,,,,0,,,69,69
75840,note_on,0,0,0,,,,,,,,0,,,36,64
75840,note_on,0,0,0,,,,,,,,0,,,48,77
75850,control_change,10,0,0,,,,,,,,0,64,0,,
75874,control_change,24,0,0,,,,,,,,0,64,127,,
75960,note_on,86,0,0,,,,,,,,0,,,69,0
75960,note_on,0,0,0,,,,,,,,0,,,81,0
75960,note_on,0,0,0,,,,,,,,0,,,75,50
75960,note_on,0,0,0,,,,,,,,0,,,78,60
75986,control_change,26,0,0,,,,,,,,0,64,0,,
76020,note_on,34,0,0,,,,,,,,0,,,78,0
76020,note_on,0,0,0,,,,,,,,0,,,75,0
76080,set_tempo,60,1,0,,,,,,516662,,,,,,
76200,set_tempo,120,1,0,,,,,,601082,,,,,,
76200,note_on,0,0,0,,,,,,,,0,,,69,54
76200,note_on,0,0,0,,,,,,,,0,,,81,63
76200,note_on,0,0,0,,,,,,,,0,,,51,43
76200,note_on,0,0,0,,,,,,,,0,,,54,43
76200,note_on,0,0,0,,,,,,,,0,,,60,51
76320,set_tempo,120,1,0,,,,,,516662,,,,,,
76320,note_on,0,0,0,,,,,,,,0,,,60,0
76320,note_on,0,0,0,,,,,,,,0,,,51,0
76320,note_on,0,0,0,,,,,,,,0,,,36,0
76320,note_on,0,0,0,,,,,,,,0,,,69,0
76320,note_on,0,0,0,,,,,,,,0,,,48,0
76320,note_on,0,0,0,,,,,,,,0,,,54,0
76320,note_on,0,0,0,,,,,,,,0,,,81,0
76320,note_on,0,0,0,,,,,,,,0,,,81,72
76320,note_on,0,0,0,,,,,,,,0,,,69,63
76320,note_on,0,0,0,,,,,,,,0,,,51,47
76320,note_on,0,0,0,,,,,,,,0,,,54,47
76320,note_on,0,0,0,,,,,,,,0,,,60,56
76440,note_on,120,0,0,,,,,,,,0,,,60,0
76440,note_on,0,0,0,,,,,,,,0,,,51,0
76440,note_on,0,0,0,,,,,,,,0,,,81,0
76440,note_on,0,0,0,,,,,,,,0,,,69,0
76440,note_on,0,0,0,,,,,,,,0,,,54,0
76440,note_on,0,0,0,,,,,,,,0,,,84,67
76440,note_on,0,0,0,,,,,,,,0,,,72,60
76560,note_on,120,0,0,,,,,,,,0,,,72,0
76560,note_on,0,0,0,,,,,,,,0,,,84,0
76560,note_on,0,0,0,,,,,,,,0,,,83,72
76560,note_on,0,0,0,,,,,,,,0,,,71,63
76560,note_on,0,0,0,,,,,,,,0,,,33,49
76560,note_on,0,0,0,,,,,,,,0,,,45,57
76580,set_tempo,20,1,0,,,,,,521105,,,,,,
76583,control_change,3,0,0,,,,,,,,0,64,127,,
76680,set_tempo,97,1,0,,,,,,537249,,,,,,
76680,note_on,0,0,0,,,,,,,,0,,,71,0
76680,note_on,0,0,0,,,,,,,,0,,,83,0
76680,note_on,0,0,0,,,,,,,,0,,,81,67
76680,note_on,0,0,0,,,,,,,,0,,,69,60
76800,set_tempo,120,1,0,,,,,,532529,,,,,,
76800,note_on,0,0,0,,,,,,,,0,,,69,0
76800,note_on,0,0,0,,,,,,,,0,,,45,0
76800,note_on,0,0,0,,,,,,,,0,,,33,0
76800,note_on,0,0,0,,,,,,,,0,,,81,0
76800,note_on,0,0,0,,,,,,,,0,,,80,77
76800,note_on,0,0,0,,,,,,,,0,,,68,66
76800,note_on,0,0,0,,,,,,,,0,,,35,53
76800,note_on,0,0,0,,,,,,,,0,,,47,63
76811,control_change,11,0,0,,,,,,,,0,64,0,,
76851,control_change,40,0,0,,,,,,,,0,64,127,,
76920,note_on,69,0,0,,,,,,,,0,,,68,0
76920,note_on,0,0,0,,,,,,,,0,,,80,0
76920,note_on,0,0,0,,,,,,,,0,,,83,72
76920,note_on,0,0,0,,,,,,,,0,,,71,67
76980,note_on,60,0,0,,,,,,,,0,,,71,0
76980,note_on,0,0,0,,,,,,,,0,,,83,0
76994,control_change,14,0,0,,,,,,,,0,64,0,,
77040,set_tempo,46,1,0,,,,,,570017,,,,,,
77040,note_on,0,0,0,,,,,,,,0,,,35,0
77040,note_on,0,0,0,,,,,,,,0,,,47,0
77040,note_on,0,0,0,,,,,,,,0,,,39,59
77040,note_on,0,0,0,,,,,,,,0,,,51,71
77075,control_change,35,0,0,,,,,,,,0,64,127,,
77160,note_on,85,0,0,,,,,,,,0,,,87,67
77160,note_on,0,0,0,,,,,,,,0,,,75,57
77280,note_on,120,0,0,,,,,,,,0,,,75,0
77280,note_on,0,0,0,,,,,,,,0,,,39,0
77280,note_on,0,0,0,,,,,,,,0,,,51,0
77280,note_on,0,0,0,,,,,,,,0,,,87,0
77280,note_on,0,0,0,,,,,,,,0,,,89,78
77280,note_on,0,0,0,,,,,,,,0,,,77,56
77280,note_on,0,0,0,,,,,,,,0,,,41,65
77280,note_on,0,0,0,,,,,,,,0,,,53,77
77520,note_on,240,0,0,,,,,,,,0,,,53,0
77520,note_on,0,0,0,,,,,,,,0,,,89,0
77520,note_on,0,0,0,,,,,,,,0,,,77,0
77520,note_on,0,0,0,,,,,,,,0,,,41,0
77520,note_on,0,0,0,,,,,,,,0,,,88,73
77520,note_on,0,0,0,,,,,,,,0,,,76,62
77520,note_on,0,0,0,,,,,,,,0,,,40,63
77520,note_on,0,0,0,,,,,,,,0,,,52,73
77533,control_change,13,0,0,,,,,,,,0,64,0,,
77640,note_on,107,0,0,,,,,,,,0,,,52,0
77640,note_on,0,0,0,,,,,,,,0,,,88,0
77640,note_on,0,0,0,,,,,,,,0,,,76,0
77640,note_on,0,0,0,,,,,,,,0,,,40,0
77760,set_tempo,120,1,0,,,,,,516662,,,,,,
77760,note_on,0,0,0,,,,,,,,0,,,81,69
77760,note_on,0,0,0,,,,,,,,0,,,93,81
77760,note_on,0,0,0,,,,,,,,0,,,79,69
77760,note_on,0,0,0,,,,,,,,0,,,45,54
77760,note_on,0,0,0,,,,,,,,0,,,52,54
77760,note_on,0,0,0,,,,,,,,0,,,61,65
77794,control_change,34,0,0,,,,,,,,0,64,127,,
77880,note_on,86,0,0,,,,,,,,0,,,79,0
77880,note_on,0,0,0,,,,,,,,0,,,81,0
77880,note_on,0,0,0,,,,,,,,0,,,93,0
77880,note_on,0,0,0,,,,,,,,0,,,85,50
77880,note_on,0,0,0,,,,,,,,0,,,88,60
77906,control_change,26,0,0,,,,,,,,0,64,0,,
77940,note_on,34,0,0,,,,,,,,0,,,88,0
77940,note_on,0,0,0,,,,,,,,0,,,85,0
78000,set_tempo,60,1,0,,,,,,564706,,,,,,
78120,set_tempo,120,1,0,,,,,,610128,,,,,,
78120,note_on,0,0,0,,,,,,,,0,,,81,54
78120,note_on,0,0,0,,,,,,,,0,,,93,63
78120,note_on,0,0,0,,,,,,,,0,,,61,41
78120,note_on,0,0,0,,,,,,,,0,,,64,41
78120,note_on,0,0,0,,,,,,,,0,,,69,48
78240,set_tempo,120,1,0,,,,,,516662,,,,,,
78240,note_on,0,0,0,,,,,,,,0,,,69,0
78240,note_on,0,0,0,,,,,,,,0,,,45,0
78240,note_on,0,0,0,,,,,,,,0,,,93,0
78240,note_on,0,0,0,,,,,,,,0,,,52,0
78240,note_on,0,0,0,,,,,,,,0,,,61,0
78240,note_on,0,0,0,,,,,,,,0,,,81,0
78240,note_on,0,0,0,,,,,,,,0,,,61,0
78240,note_on,0,0,0,,,,,,,,0,,,64,0
78240,note_on,0,0,0,,,,,,,,0,,,93,76
78240,note_on,0,0,0,,,,,,,,0,,,81,66
78240,note_on,0,0,0,,,,,,,,0,,,61,45
78240,note_on,0,0,0,,,,,,,,0,,,64,45
78240,note_on,0,0,0,,,,,,,,0,,,69,54
78360,note_on,120,0,0,,,,,,,,0,,,69,0
78360,note_on,0,0,0,,,,,,,,0,,,61,0
78360,note_on,0,0,0,,,,,,,,0,,,93,0
78360,note_on,0,0,0,,,,,,,,0,,,81,0
78360,note_on,0,0,0,,,,,,,,0,,,64,0
78360,note_on,0,0,0,,,,,,,,0,,,94,70
78360,note_on,0,0,0,,,,,,,,0,,,82,62
78480,note_on,120,0,0,,,,,,,,0,,,82,0
78480,note_on,0,0,0,,,,,,,,0,,,94,0
78480,note_on,0,0,0,,,,,,,,0,,,93,76
78480,note_on,0,0,0,,,,,,,,0,,,81,66
78480,note_on,0,0,0,,,,,,,,0,,,37,46
78480,note_on,0,0,0,,,,,,,,0,,,52,55
78500,set_tempo,20,1,0,,,,,,521105,,,,,,
78503,control_change,3,0,0,,,,,,,,0,64,127,,
78600,set_tempo,97,1,0,,,,,,537249,,,,,,
78600,note_on,0,0,0,,,,,,,,0,,,81,0
78600,note_on,0,0,0,,,,,,,,0,,,93,0
78600,note_on,0,0,0,,,,,,,,0,,,91,70
78600,note_on,0,0,0,,,,,,,,0,,,79,62
78720,set_tempo,120,1,0,,,,,,518852,,,,,,
78720,note_on,0,0,0,,,,,,,,0,,,79,0
78720,note_on,0,0,0,,,,,,,,0,,,52,0
78720,note_on,0,0,0,,,,,,,,0,,,37,0
78720,note_on,0,0,0,,,,,,,,0,,,91,0
78720,note_on,0,0,0,,,,,,,,0,,,89,81
78720,note_on,0,0,0,,,,,,,,0,,,77,69
78720,note_on,0,0,0,,,,,,,,0,,,38,55
78720,note_on,0,0,0,,,,,,,,0,,,53,66
78731,control_change,11,0,0,,,,,,,,0,64,0,,
78771,control_change,40,0,0,,,,,,,,0,64,127,,
78840,note_on,69,0,0,,,,,,,,0,,,77,0
78840,note_on,0,0,0,,,,,,,,0,,,89,0
78840,note_on,0,0,0,,,,,,,,0,,,81,50
78840,note_on,0,0,0,,,,,,,,0,,,86,60
78900,note_on,60,0,0,,,,,,,,0,,,86,0
78900,note_on,0,0,0,,,,,,,,0,,,81,0
78914,control_change,14,0,0,,,,,,,,0,64,0,,
78960,set_tempo,46,1,0,,,,,,554375,,,,,,
78960,note_on,0,0,0,,,,,,,,0,,,38,0
78960,note_on,0,0,0,,,,,,,,0,,,53,0
78960,note_on,0,0,0,,,,,,,,0,,,40,53
78960,note_on,0,0,0,,,,,,,,0,,,55,64
79080,set_tempo,120,1,0,,,,,,589391,,,,,,
79080,note_on,0,0,0,,,,,,,,0,,,73,54
79080,note_on,0,0,0,,,,,,,,0,,,85,63
79200,set_tempo,120,1,0,,,,,,525578,,,,,,
79200,note_on,0,0,0,,,,,,,,0,,,85,0
79200,note_on,0,0,0,,,,,,,,0,,,40,0
79200,note_on,0,0,0,,,,,,,,0,,,55,0
79200,note_on,0,0,0,,,,,,,,0,,,73,0
79200,note_on,0,0,0,,,,,,,,0,,,86,76
79200,note_on,0,0,0,,,,,,,,0,,,74,66
79200,note_on,0,0,0,,,,,,,,0,,,41,60
79200,note_on,0,0,0,,,,,,,,0,,,56,72
79320,note_on,120,0,0,,,,,,,,0,,,74,0
79320,note_on,0,0,0,,,,,,,,0,,,86,0
79320,note_on,0,0,0,,,,,,,,0,,,89,70
79320,note_on,0,0,0,,,,,,,,0,,,77,62
79440,note_on,120,0,0,,,,,,,,0,,,77,0
79440,note_on,0,0,0,,,,,,,,0,,,56,0
79440,note_on,0,0,0,,,,,,,,0,,,41,0
79440,note_on,0,0,0,,,,,,,,0,,,89,0
79440,note_on,0,0,0,,,,,,,,0,,,87,76
79440,note_on,0,0,0,,,,,,,,0,,,75,66
79440,note_on,0,0,0,,,,,,,,0,,,42,64
79440,note_on,0,0,0,,,,,,,,0,,,57,76
79475,control_change,35,0,0,,,,,,,,0,64,127,,
79560,set_tempo,85,1,0,,,,,,551876,,,,,,
79560,note_on,0,0,0,,,,,,,,0,,,75,0
79560,note_on,0,0,0,,,,,,,,0,,,87,0
79560,note_on,0,0,0,,,,,,,,0,,,86,70
79560,note_on,0,0,0,,,,,,,,0,,,74,62
79680,set_tempo,120,1,0,,,,,,516662,,,,,,
79680,note_on,0,0,0,,,,,,,,0,,,74,0
79680,note_on,0,0,0,,,,,,,,0,,,57,0
79680,note_on,0,0,0,,,,,,,,0,,,42,0
79680,note_on,0,0,0,,,,,,,,0,,,86,0
79680,note_on,0,0,0,,,,,,,,0,,,79,69
79680,note_on,0,0,0,,,,,,,,0,,,91,81
79680,note_on,0,0,0,,,,,,,,0,,,77,69
79680,note_on,0,0,0,,,,,,,,0,,,43,54
79680,note_on,0,0,0,,,,,,,,0,,,50,54
79680,note_on,0,0,0,,,,,,,,0,,,59,65
79686,control_change,6,0,0,,,,,,,,0,64,0,,
79714,control_change,28,0,0,,,,,,,,0,64,127,,
79800,note_on,86,0,0,,,,,,,,0,,,77,0
79800,note_on,0,0,0,,,,,,,,0,,,79,0
79800,note_on,0,0,0,,,,,,,,0,,,91,0
79800,note_on,0,0,0,,,,,,,,0,,,83,50
79800,note_on,0,0,0,,,,,,,,0,,,86,60
79826,control_change,26,0,0,,,,,,,,0,64,0,,
79860,note_on,34,0,0,,,,,,,,0,,,86,0
79860,note_on,0,0,0,,,,,,,,0,,,83,0
79920,set_tempo,60,1,0,,,,,,564706,,,,,,
80040,set_tempo,120,1,0,,,,,,610128,,,,,,
80040,note_on,0,0,0,,,,,,,,0,,,79,54
80040,note_on,0,0,0,,,,,,,,0,,,91,63
80040,note_on,0,0,0,,,,,,,,0,,,59,41
80040,note_on,0,0,0,,,,,,,,0,,,62,41
80040,note_on,0,0,0,,,,,,,,0,,,67,48
80160,set_tempo,120,1,0,,,,,,516662,,,,,,
80160,note_on,0,0,0,,,,,,,,0,,,67,0
80160,note_on,0,0,0,,,,,,,,0,,,43,0
80160,note_on,0,0,0,,,,,,,,0,,,91,0
80160,note_on,0,0,0,,,,,,,,0,,,50,0
80160,note_on,0,0,0,,,,,,,,0,,,59,0
80160,note_on,0,0,0,,,,,,,,0,,,79,0
80160,note_on,0,0,0,,,,,,,,0,,,59,0
80160,note_on,0,0,0,,,,,,,,0,,,62,0
80160,note_on,0,0,0,,,,,,,,0,,,91,76
80160,note_on,0,0,0,,,,,,,,0,,,79,66
80160,note_on,0,0,0,,,,,,,,0,,,59,45
80160,note_on,0,0,0,,,,,,,,0,,,62,45
80160,note_on,0,0,0,,,,,,,,0,,,67,54
80280,note_on,120,0,0,,,,,,,,0,,,67,0
80280,note_on,0,0,0,,,,,,,,0,,,59,0
80280,note_on,0,0,0,,,,,,,,0,,,91,0
80280,note_on,0,0,0,,,,,,,,0,,,79,0
80280,note_on,0,0,0,,,,,,,,0,,,62,0
80280,note_on,0,0,0,,,,,,,,0,,,92,70
80280,note_on,0,0,0,,,,,,,,0,,,80,62
80400,note_on,120,0,0,,,,,,,,0,,,80,0
80400,note_on,0,0,0,,,,,,,,0,,,92,0
80400,note_on,0,0,0,,,,,,,,0,,,91,76
80400,note_on,0,0,0,,,,,,,,0,,,79,66
80400,note_on,0,0,0,,,,,,,,0,,,35,46
80400,note_on,0,0,0,,,,,,,,0,,,50,55
80420,set_tempo,20,1,0,,,,,,521105,,,,,,
80423,control_change,3,0,0,,,,,,,,0,64,127,,
80520,set_tempo,97,1,0,,,,,,537249,,,,,,
80520,note_on,0,0,0,,,,,,,,0,,,79,0
80520,note_on,0,0,0,,,,,,,,0,,,91,0
80520,note_on,0,0,0,,,,,,,,0,,,89,70
80520,note_on,0,0,0,,,,,,,,0,,,77,62
80640,set_tempo,120,1,0,,,,,,518852,,,,,,
80640,note_on,0,0,0,,,,,,,,0,,,77,0
80640,note_on,0,0,0,,,,,,,,0,,,50,0
80640,note_on,0,0,0,,,,,,,,0,,,35,0
80640,note_on,0,0,0,,,,,,,,0,,,89,0
80640,note_on,0,0,0,,,,,,,,0,,,88,81
80640,note_on,0,0,0,,,,,,,,0,,,76,69
80640,note_on,0,0,0,,,,,,,,0,,,36,55
80640,note_on,0,0,0,,,,,,,,0,,,52,66
80651,control_change,11,0,0,,,,,,,,0,64,0,,
80691,control_change,40,0,0,,,,,,,,0,64,127,,
80760,note_on,69,0,0,,,,,,,,0,,,76,0
80760,note_on,0,0,0,,,,,,,,0,,,88,0
80760,note_on,0,0,0,,,,,,,,0,,,79,50
80760,note_on,0,0,0,,,,,,,,0,,,84,60
80820,note_on,60,0,0,,,,,,,,0,,,84,0
80820,note_on,0,0,0,,,,,,,,0,,,79,0
80834,control_change,14,0,0,,,,,,,,0,64,0,,
80880,set_tempo,46,1,0,,,,,,554375,,,,,,
80880,note_on,0,0,0,,,,,,,,0,,,36,0
80880,note_on,0,0,0,,,,,,,,0,,,52,0
80880,note_on,0,0,0,,,,,,,,0,,,38,53
80880,note_on,0,0,0,,,,,,,,0,,,53,64
81000,set_tempo,120,1,0,,,,,,589391,,,,,,
81000,note_on,0,0,0,,,,,,,,0,,,71,54
81000,note_on,0,0,0,,,,,,,,0,,,83,63
81120,set_tempo,120,1,0,,,,,,525578,,,,,,
81120,note_on,0,0,0,,,,,,,,0,,,83,0
81120,note_on,0,0,0,,,,,,,,0,,,38,0
81120,note_on,0,0,0,,,,,,,,0,,,53,0
81120,note_on,0,0,0,,,,,,,,0,,,71,0
81120,note_on,0,0,0,,,,,,,,0,,,84,76
81120,note_on,0,0,0,,,,,,,,0,,,72,66
81120,note_on,0,0,0,,,,,,,,0,,,39,63
81120,note_on,0,0,0,,,,,,,,0,,,54,75
81240,note_on,120,0,0,,,,,,,,0,,,72,0
81240,note_on,0,0,0,,,,,,,,0,,,84,0
81240,note_on,0,0,0,,,,,,,,0,,,87,70
81240,note_on,0,0,0,,,,,,,,0,,,75,62
81360,note_on,120,0,0,,,,,,,,0,,,75,0
81360,note_on,0,0,0,,,,,,,,0,,,54,0
81360,note_on,0,0,0,,,,,,,,0,,,39,0
81360,note_on,0,0,0,,,,,,,,0,,,87,0
81360,note_on,0,0,0,,,,,,,,0,,,85,76
81360,note_on,0,0,0,,,,,,,,0,,,73,66
81360,note_on,0,0,0,,,,,,,,0,,,40,70
81360,note_on,0,0,0,,,,,,,,0,,,55,83
81392,control_change,32,0,0,,,,,,,,0,64,127,,
81480,set_tempo,88,1,0,,,,,,551876,,,,,,
81480,note_on,0,0,0,,,,,,,,0,,,73,0
81480,note_on,0,0,0,,,,,,,,0,,,85,0
81480,note_on,0,0,0,,,,,,,,0,,,84,70
81480,note_on,0,0,0,,,,,,,,0,,,72,62
81600,set_tempo,120,1,0,,,,,,516662,,,,,,
81600,note_on,0,0,0,,,,,,,,0,,,72,0
81600,note_on,0,0,0,,,,,,,,0,,,55,0
81600,note_on,0,0,0,,,,,,,,0,,,40,0
81600,note_on,0,0,0,,,,,,,,0,,,84,0
81600,note_on,0,0,0,,,,,,,,0,,,89,81
81600,note_on,0,0,0,,,,,,,,0,,,77,69
81600,note_on,0,0,0,,,,,,,,0,,,50,62
81600,note_on,0,0,0,,,,,,,,0,,,41,62
81600,note_on,0,0,0,,,,,,,,0,,,47,62
81600,note_on,0,0,0,,,,,,,,0,,,56,74
81607,control_change,7,0,0,,,,,,,,0,64,0,,
81634,control_change,27,0,0,,,,,,,,0,64,127,,
81720,note_on,86,0,0,,,,,,,,0,,,56,0
81720,note_on,0,0,0,,,,,,,,0,,,77,0
81720,note_on,0,0,0,,,,,,,,0,,,50,0
81720,note_on,0,0,0,,,,,,,,0,,,89,0
81720,note_on,0,0,0,,,,,,,,0,,,47,0
81720,note_on,0,0,0,,,,,,,,0,,,41,0
81720,note_on,0,0,0,,,,,,,,0,,,80,50
81720,note_on,0,0,0,,,,,,,,0,,,83,60
81746,control_change,26,0,0,,,,,,,,0,64,0,,
81780,note_on,34,0,0,,,,,,,,0,,,83,0
81780,note_on,0,0,0,,,,,,,,0,,,80,0
81840,set_tempo,60,1,0,,,,,,564706,,,,,,
81960,set_tempo,120,1,0,,,,,,610128,,,,,,
81960,note_on,0,0,0,,,,,,,,0,,,68,47
81960,note_on,0,0,0,,,,,,,,0,,,71,54
81960,note_on,0,0,0,,,,,,,,0,,,62,41
81960,note_on,0,0,0,,,,,,,,0,,,65,48
82080,set_tempo,120,1,0,,,,,,526362,,,,,,
82080,note_on,0,0,0,,,,,,,,0,,,65,0
82080,note_on,0,0,0,,,,,,,,0,,,68,0
82080,note_on,0,0,0,,,,,,,,0,,,71,0
82080,note_on,0,0,0,,,,,,,,0,,,62,0
82080,note_on,0,0,0,,,,,,,,0,,,71,66
82080,note_on,0,0,0,,,,,,,,0,,,68,58
82080,note_on,0,0,0,,,,,,,,0,,,62,45
82080,note_on,0,0,0,,,,,,,,0,,,65,54
82200,set_tempo,120,1,0,,,,,,555607,,,,,,
82200,note_on,0,0,0,,,,,,,,0,,,62,0
82200,note_on,0,0,0,,,,,,,,0,,,71,0
82200,note_on,0,0,0,,,,,,,,0,,,74,62
82200,note_on,0,0,0,,,,,,,,0,,,59,45
82320,set_tempo,120,1,0,,,,,,540589,,,,,,
82320,note_on,0,0,0,,,,,,,,0,,,59,0
82320,note_on,0,0,0,,,,,,,,0,,,74,0
82320,note_on,0,0,0,,,,,,,,0,,,72,66
82320,note_on,0,0,0,,,,,,,,0,,,60,45
82440,set_tempo,120,1,0,,,,,,612307,,,,,,
82440,note_on,0,0,0,,,,,,,,0,,,60,0
82440,note_on,0,0,0,,,,,,,,0,,,72,0
82440,note_on,0,0,0,,,,,,,,0,,,71,62
82440,note_on,0,0,0,,,,,,,,0,,,62,45
82560,set_tempo,120,1,0,,,,,,516662,,,,,,
82560,note_on,0,0,0,,,,,,,,0,,,62,0
82560,note_on,0,0,0,,,,,,,,0,,,65,0
82560,note_on,0,0,0,,,,,,,,0,,,68,0
82560,note_on,0,0,0,,,,,,,,0,,,71,0
82560,note_on,0,0,0,,,,,,,,0,,,88,81
82560,note_on,0,0,0,,,,,,,,0,,,76,69
82560,note_on,0,0,0,,,,,,,,0,,,40,50
82560,note_on,0,0,0,,,,,,,,0,,,48,50
82560,note_on,0,0,0,,,,,,,,0,,,57,60
82594,control_change,34,0,0,,,,,,,,0,64,127,,
82680,note_on,86,0,0,,,,,,,,0,,,57,0
82680,note_on,0,0,0,,,,,,,,0,,,40,0
82680,note_on,0,0,0,,,,,,,,0,,,88,0
82680,note_on,0,0,0,,,,,,,,0,,,76,0
82680,note_on,0,0,0,,,,,,,,0,,,48,0
82680,note_on,0,0,0,,,,,,,,0,,,81,50
82680,note_on,0,0,0,,,,,,,,0,,,84,60
82706,control_change,26,0,0,,,,,,,,0,64,0,,
82740,note_on,34,0,0,,,,,,,,0,,,84,0
82740,note_on,0,0,0,,,,,,,,0,,,81,0
82800,set_tempo,60,1,0,,,,,,564706,,,,,,
82920,set_tempo,120,1,0,,,,,,645231,,,,,,
82920,note_on,0,0,0,,,,,,,,0,,,64,49
82920,note_on,0,0,0,,,,,,,,0,,,69,54
82920,note_on,0,0,0,,,,,,,,0,,,60,45
83040,set_tempo,120,1,0,,,,,,600060,,,,,,
83040,note_on,0,0,0,,,,,,,,0,,,60,0
83040,note_on,0,0,0,,,,,,,,0,,,69,0
83040,note_on,0,0,0,,,,,,,,0,,,64,0
83040,note_on,0,0,0,,,,,,,,0,,,69,61
83040,note_on,0,0,0,,,,,,,,0,,,64,54
83040,note_on,0,0,0,,,,,,,,0,,,60,49
83160,set_tempo,120,1,0,,,,,,550509,,,,,,
83160,note_on,0,0,0,,,,,,,,0,,,60,0
83160,note_on,0,0,0,,,,,,,,0,,,69,0
83160,note_on,0,0,0,,,,,,,,0,,,72,56
83160,note_on,0,0,0,,,,,,,,0,,,57,42
83280,set_tempo,120,1,0,,,,,,560800,,,,,,
83280,note_on,0,0,0,,,,,,,,0,,,57,0
83280,note_on,0,0,0,,,,,,,,0,,,72,0
83280,note_on,0,0,0,,,,,,,,0,,,71,61
83280,note_on,0,0,0,,,,,,,,0,,,59,42
83400,set_tempo,120,1,0,,,,,,583714,,,,,,
83400,note_on,0,0,0,,,,,,,,0,,,59,0
83400,note_on,0,0,0,,,,,,,,0,,,71,0
83400,note_on,0,0,0,,,,,,,,0,,,69,57
83400,note_on,0,0,0,,,,,,,,0,,,60,42
83520,set_tempo,120,1,0,,,,,,645231,,,,,,
83520,note_on,0,0,0,,,,,,,,0,,,60,0
83520,note_on,0,0,0,,,,,,,,0,,,69,0
83520,note_on,0,0,0,,,,,,,,0,,,64,0
83520,note_on,0,0,0,,,,,,,,0,,,62,52
83520,note_on,0,0,0,,,,,,,,0,,,74,62
83520,note_on,0,0,0,,,,,,,,0,,,47,39
83520,note_on,0,0,0,,,,,,,,0,,,53,39
83520,note_on,0,0,0,,,,,,,,0,,,57,46
83640,set_tempo,120,1,0,,,,,,574163,,,,,,
83640,note_on,0,0,0,,,,,,,,0,,,74,0
83640,note_on,0,0,0,,,,,,,,0,,,62,0
83640,note_on,0,0,0,,,,,,,,0,,,65,51
83640,note_on,0,0,0,,,,,,,,0,,,77,60
83760,set_tempo,120,1,0,,,,,,579710,,,,,,
83760,note_on,0,0,0,,,,,,,,0,,,77,0
83760,note_on,0,0,0,,,,,,,,0,,,65,0
83760,note_on,0,0,0,,,,,,,,0,,,64,51
83760,note_on,0,0,0,,,,,,,,0,,,76,60
83880,set_tempo,120,1,0,,,,,,631645,,,,,,
83880,note_on,0,0,0,,,,,,,,0,,,76,0
83880,note_on,0,0,0,,,,,,,,0,,,64,0
83880,note_on,0,0,0,,,,,,,,0,,,63,47
83880,note_on,0,0,0,,,,,,,,0,,,75,56
84000,set_tempo,120,1,0,,,,,,588293,,,,,,
84000,note_on,0,0,0,,,,,,,,0,,,75,0
84000,note_on,0,0,0,,,,,,,,0,,,53,0
84000,note_on,0,0,0,,,,,,,,0,,,57,0
84000,note_on,0,0,0,,,,,,,,0,,,47,0
84000,note_on,0,0,0,,,,,,,,0,,,63,0
84000,note_on,0,0,0,,,,,,,,0,,,64,51
84000,note_on,0,0,0,,,,,,,,0,,,76,60
84000,note_on,0,0,0,,,,,,,,0,,,40,37
84000,note_on,0,0,0,,,,,,,,0,,,56,45
84120,set_tempo,120,1,0,,,,,,638298,,,,,,
84120,note_on,0,0,0,,,,,,,,0,,,76,0
84120,note_on,0,0,0,,,,,,,,0,,,64,0
84120,note_on,0,0,0,,,,,,,,0,,,59,41
84120,note_on,0,0,0,,,,,,,,0,,,71,50
84240,set_tempo,120,1,0,,,,,,659413,,,,,,
84240,note_on,0,0,0,,,,,,,,0,,,71,0
84240,note_on,0,0,0,,,,,,,,0,,,59,0
84240,note_on,0,0,0,,,,,,,,0,,,62,44
84240,note_on,0,0,0,,,,,,,,0,,,74,52
84360,note_on,120,0,0,,,,,,,,0,,,74,0
84360,note_on,0,0,0,,,,,,,,0,,,62,0
84360,note_on,0,0,0,,,,,,,,0,,,60,41
84360,note_on,0,0,0,,,,,,,,0,,,72,50
84480,set_tempo,120,1,0,,,,,,714371,,,,,,
84480,note_on,0,0,0,,,,,,,,0,,,72,0
84480,note_on,0,0,0,,,,,,,,0,,,56,0
84480,note_on,0,0,0,,,,,,,,0,,,40,0
84480,note_on,0,0,0,,,,,,,,0,,,60,0
84480,note_on,0,0,0,,,,,,,,0,,,64,54
84480,note_on,0,0,0,,,,,,,,0,,,59,30
84480,note_on,0,0,0,,,,,,,,0,,,71,40
84480,note_on,0,0,0,,,,,,,,0,,,52,41
84480,note_on,0,0,0,,,,,,,,0,,,45,21
84480,note_on,0,0,0,,,,,,,,0,,,50,41
84480,note_on,0,0,0,,,,,,,,0,,,56,26
84544,control_change,64,0,0,,,,,,,,0,64,127,,
84600,set_tempo,56,1,0,,,,,,638366,,,,,,
84600,note_on,0,0,0,,,,,,,,0,,,52,0
84600,note_on,0,0,0,,,,,,,,0,,,64,0
84600,note_on,0,0,0,,,,,,,,0,,,67,45
84600,note_on,0,0,0,,,,,,,,0,,,55,38
84720,set_tempo,120,1,0,,,,,,705965,,,,,,
84720,note_on,0,0,0,,,,,,,,0,,,55,0
84720,note_on,0,0,0,,,,,,,,0,,,67,0
84720,note_on,0,0,0,,,,,,,,0,,,65,45
84720,note_on,0,0,0,,,,,,,,0,,,53,36
84840,set_tempo,120,1,0,,,,,,822030,,,,,,
84840,note_on,0,0,0,,,,,,,,0,,,53,0
84840,note_on,0,0,0,,,,,,,,0,,,65,0
84840,note_on,0,0,0,,,,,,,,0,,,64,42
84840,note_on,0,0,0,,,,,,,,0,,,52,35
84960,set_tempo,120,1,0,,,,,,1034661,,,,,,
84960,note_on,0,0,0,,,,,,,,0,,,71,0
84960,note_on,0,0,0,,,,,,,,0,,,50,0
84960,note_on,0,0,0,,,,,,,,0,,,59,0
84960,note_on,0,0,0,,,,,,,,0,,,45,0
84960,note_on,0,0,0,,,,,,,,0,,,56,0
84960,note_on,0,0,0,,,,,,,,0,,,57,29
84960,note_on,0,0,0,,,,,,,,0,,,69,35
84960,note_on,0,0,0,,,,,,,,0,,,48,31
84960,note_on,0,0,0,,,,,,,,0,,,45,31
84995,control_change,35,0,0,,,,,,,,0,64,0,,
85080,note_on,85,0,0,,,,,,,,0,,,45,0
85080,note_on,0,0,0,,,,,,,,0,,,52,0
85080,note_on,0,0,0,,,,,,,,0,,,57,0
85080,note_on,0,0,0,,,,,,,,0,,,64,0
85080,note_on,0,0,0,,,,,,,,0,,,48,0
85080,note_on,0,0,0,,,,,,,,0,,,69,0
85200,set_tempo,120,1,0,,,,,,769231,,,,,,
85440,set_tempo,240,1,0,,,,,,655738,,,,,,
85440,marker,0,1,0,,,,,,,,,,,,
85440,note_on,0,0,0,,,,,,,,0,,,81,45
85440,note_on,0,0,0,,,,,,,,0,,,57,36
85440,note_on,0,0,0,,,,,,,,0,,,60,36
85440,note_on,0,0,0,,,,,,,,0,,,69,43
85500,note_on,60,0,0,,,,,,,,0,,,69,0
85500,note_on,0,0,0,,,,,,,,0,,,60,0
85500,note_on,0,0,0,,,,,,,,0,,,57,0
85560,set_tempo,60,1,0,,,,,,540541,,,,,,
85560,note_on,0,0,0,,,,,,,,0,,,93,51
85680,set_tempo,120,1,0,,,,,,563380,,,,,,
85680,note_on,0,0,0,,,,,,,,0,,,81,0
85680,note_on,0,0,0,,,,,,,,0,,,92,51
85680,note_on,0,0,0,,,,,,,,0,,,80,43
85680,note_on,0,0,0,,,,,,,,0,,,64,36
85680,note_on,0,0,0,,,,,,,,0,,,72,43
85700,note_on,20,0,0,,,,,,,,0,,,93,0
85740,note_on,40,0,0,,,,,,,,0,,,64,0
85740,note_on,0,0,0,,,,,,,,0,,,72,0
85800,set_tempo,60,1,0,,,,,,591133,,,,,,
85800,note_on,0,0,0,,,,,,,,0,,,91,50
85800,note_on,0,0,0,,,,,,,,0,,,79,42
85820,note_on,20,0,0,,,,,,,,0,,,80,0
85820,note_on,0,0,0,,,,,,,,0,,,92,0
85920,set_tempo,100,1,0,,,,,,560748,,,,,,
85920,note_on,0,0,0,,,,,,,,0,,,90,50
85920,note_on,0,0,0,,,,,,,,0,,,78,42
85920,note_on,0,0,0,,,,,,,,0,,,62,35
85920,note_on,0,0,0,,,,,,,,0,,,71,42
85940,note_on,20,0,0,,,,,,,,0,,,91,0
85940,note_on,0,0,0,,,,,,,,0,,,79,0
85980,note_on,40,0,0,,,,,,,,0,,,62,0
85980,note_on,0,0,0,,,,,,,,0,,,71,0
86040,note_on,60,0,0,,,,,,,,0,,,89,49
86040,note_on,0,0,0,,,,,,,,0,,,77,41
86060,note_on,20,0,0,,,,,,,,0,,,78,0
86060,note_on,0,0,0,,,,,,,,0,,,90,0
86160,note_on,100,0,0,,,,,,,,0,,,88,49
86160,note_on,0,0,0,,,,,,,,0,,,76,41
86160,note_on,0,0,0,,,,,,,,0,,,60,34
86160,note_on,0,0,0,,,,,,,,0,,,69,40
86180,note_on,20,0,0,,,,,,,,0,,,89,0
86180,note_on,0,0,0,,,,,,,,0,,,77,0
86220,note_on,40,0,0,,,,,,,,0,,,60,0
86220,note_on,0,0,0,,,,,,,,0,,,69,0
86280,set_tempo,60,1,0,,,,,,568720,,,,,,
86280,note_on,0,0,0,,,,,,,,0,,,87,48
86280,note_on,0,0,0,,,,,,,,0,,,75,40
86300,note_on,20,0,0,,,,,,,,0,,,76,0
86300,note_on,0,0,0,,,,,,,,0,,,88,0
86400,note_on,100,0,0,,,,,,,,0,,,87,0
86400,note_on,0,0,0,,,,,,,,0,,,75,0
86400,note_on,0,0,0,,,,,,,,0,,,77,43
86400,note_on,0,0,0,,,,,,,,0,,,89,51
86400,note_on,0,0,0,,,,,,,,0,,,52,36
86400,note_on,0,0,0,,,,,,,,0,,,56,36
86400,note_on,0,0,0,,,,,,,,0,,,64,43
86420,set_tempo,20,1,0,,,,,,540541,,,,,,
86460,note_on,40,0,0,,,,,,,,0,,,64,0
86460,note_on,0,0,0,,,,,,,,0,,,52,0
86460,note_on,0,0,0,,,,,,,,0,,,56,0
86520,set_tempo,60,1,0,,,,,,550459,,,,,,
86520,note_on,0,0,0,,,,,,,,0,,,76,37
86520,note_on,0,0,0,,,,,,,,0,,,88,45
86540,note_on,20,0,0,,,,,,,,0,,,89,0
86540,note_on,0,0,0,,,,,,,,0,,,77,0
86640,set_tempo,100,1,0,,,,,,558140,,,,,,
86640,note_on,0,0,0,,,,,,,,0,,,75,40
86640,note_on,0,0,0,,,,,,,,0,,,87,48
86640,note_on,0,0,0,,,,,,,,0,,,59,33
86640,note_on,0,0,0,,,,,,,,0,,,67,39
86660,note_on,20,0,0,,,,,,,,0,,,76,0
86660,note_on,0,0,0,,,,,,,,0,,,88,0
86700,note_on,40,0,0,,,,,,,,0,,,59,0
86700,note_on,0,0,0,,,,,,,,0,,,67,0
86760,note_on,60,0,0,,,,,,,,0,,,89,45
86760,note_on,0,0,0,,,,,,,,0,,,77,37
86780,note_on,20,0,0,,,,,,,,0,,,87,0
86780,note_on,0,0,0,,,,,,,,0,,,75,0
86880,note_on,100,0,0,,,,,,,,0,,,89,0
86880,note_on,0,0,0,,,,,,,,0,,,77,0
86880,note_on,0,0,0,,,,,,,,0,,,76,40
86880,note_on,0,0,0,,,,,,,,0,,,88,47
86880,note_on,0,0,0,,,,,,,,0,,,57,37
86880,note_on,0,0,0,,,,,,,,0,,,65,45
86940,note_on,60,0,0,,,,,,,,0,,,65,0
86940,note_on,0,0,0,,,,,,,,0,,,57,0
87000,set_tempo,60,1,0,,,,,,563380,,,,,,
87000,note_on,0,0,0,,,,,,,,0,,,83,46
87020,note_on,20,0,0,,,,,,,,0,,,88,0
87120,note_on,100,0,0,,,,,,,,0,,,76,0
87120,note_on,0,0,0,,,,,,,,0,,,71,38
87120,note_on,0,0,0,,,,,,,,0,,,80,45
87120,note_on,0,0,0,,,,,,,,0,,,56,35
87120,note_on,0,0,0,,,,,,,,0,,,64,42
87140,note_on,20,0,0,,,,,,,,0,,,83,0
87180,note_on,40,0,0,,,,,,,,0,,,56,0
87180,note_on,0,0,0,,,,,,,,0,,,64,0
87240,note_on,60,0,0,,,,,,,,0,,,76,45
87260,note_on,20,0,0,,,,,,,,0,,,80,0
87360,set_tempo,100,1,0,,,,,,655738,,,,,,
87360,note_on,0,0,0,,,,,,,,0,,,76,0
87360,note_on,0,0,0,,,,,,,,0,,,71,0
87360,note_on,0,0,0,,,,,,,,0,,,81,45
87360,note_on,0,0,0,,,,,,,,0,,,57,36
87360,note_on,0,0,0,,,,,,,,0,,,60,36
87360,note_on,0,0,0,,,,,,,,0,,,69,43
87420,note_on,60,0,0,,,,,,,,0,,,69,0
87420,note_on,0,0,0,,,,,,,,0,,,60,0
87420,note_on,0,0,0,,,,,,,,0,,,57,0
87480,set_tempo,60,1,0,,,,,,540541,,,,,,
87480,note_on,0,0,0,,,,,,,,0,,,93,51
87600,set_tempo,120,1,0,,,,,,571429,,,,,,
87600,note_on,0,0,0,,,,,,,,0,,,81,0
87600,note_on,0,0,0,,,,,,,,0,,,92,51
87600,note_on,0,0,0,,,,,,,,0,,,80,43
87600,note_on,0,0,0,,,,,,,,0,,,64,36
87600,note_on,0,0,0,,,,,,,,0,,,72,43
87620,note_on,20,0,0,,,,,,,,0,,,93,0
87660,note_on,40,0,0,,,,,,,,0,,,64,0
87660,note_on,0,0,0,,,,,,,,0,,,72,0
87720,set_tempo,60,1,0,,,,,,566038,,,,,,
87720,note_on,0,0,0,,,,,,,,0,,,91,50
87720,note_on,0,0,0,,,,,,,,0,,,79,42
87740,note_on,20,0,0,,,,,,,,0,,,80,0
87740,note_on,0,0,0,,,,,,,,0,,,92,0
87840,set_tempo,100,1,0,,,,,,552995,,,,,,
87840,note_on,0,0,0,,,,,,,,0,,,90,50
87840,note_on,0,0,0,,,,,,,,0,,,78,42
87840,note_on,0,0,0,,,,,,,,0,,,62,35
87840,note_on,0,0,0,,,,,,,,0,,,71,42
87860,note_on,20,0,0,,,,,,,,0,,,91,0
87860,note_on,0,0,0,,,,,,,,0,,,79,0
87900,note_on,40,0,0,,,,,,,,0,,,62,0
87900,note_on,0,0,0,,,,,,,,0,,,71,0
87960,note_on,60,0,0,,,,,,,,0,,,89,49
87960,note_on,0,0,0,,,,,,,,0,,,77,41
87980,note_on,20,0,0,,,,,,,,0,,,78,0
87980,note_on,0,0,0,,,,,,,,0,,,90,0
88080,note_on,100,0,0,,,,,,,,0,,,88,49
88080,note_on,0,0,0,,,,,,,,0,,,76,41
88080,note_on,0,0,0,,,,,,,,0,,,60,34
88080,note_on,0,0,0,,,,,,,,0,,,69,40
88100,note_on,20,0,0,,,,,,,,0,,,89,0
88100,note_on,0,0,0,,,,,,,,0,,,77,0
88140,note_on,40,0,0,,,,,,,,0,,,60,0
88140,note_on,0,0,0,,,,,,,,0,,,69,0
88200,set_tempo,60,1,0,,,,,,568720,,,,,,
88200,note_on,0,0,0,,,,,,,,0,,,87,48
88200,note_on,0,0,0,,,,,,,,0,,,75,40
88220,note_on,20,0,0,,,,,,,,0,,,76,0
88220,note_on,0,0,0,,,,,,,,0,,,88,0
88320,note_on,100,0,0,,,,,,,,0,,,87,0
88320,note_on,0,0,0,,,,,,,,0,,,75,0
88320,note_on,0,0,0,,,,,,,,0,,,77,43
88320,note_on,0,0,0,,,,,,,,0,,,89,51
88320,note_on,0,0,0,,,,,,,,0,,,57,36
88320,note_on,0,0,0,,,,,,,,0,,,60,36
88320,note_on,0,0,0,,,,,,,,0,,,65,43
88340,set_tempo,20,1,0,,,,,,540541,,,,,,
88440,set_tempo,100,1,0,,,,,,550459,,,,,,
88440,note_on,0,0,0,,,,,,,,0,,,65,0
88440,note_on,0,0,0,,,,,,,,0,,,57,0
88440,note_on,0,0,0,,,,,,,,0,,,60,0
88440,note_on,0,0,0,,,,,,,,0,,,76,37
88440,note_on,0,0,0,,,,,,,,0,,,88,45
88460,note_on,20,0,0,,,,,,,,0,,,89,0
88460,note_on,0,0,0,,,,,,,,0,,,77,0
88535,set_tempo,75,1,0,,,,,,536673,,,,,,
88560,note_on,25,0,0,,,,,,,,0,,,75,40
88560,note_on,0,0,0,,,,,,,,0,,,87,48
88580,note_on,20,0,0,,,,,,,,0,,,76,0
88580,note_on,0,0,0,,,,,,,,0,,,88,0
88611,set_tempo,31,1,0,,,,,,541516,,,,,,
88661,set_tempo,50,1,0,,,,,,546448,,,,,,
88680,note_on,19,0,0,,,,,,,,0,,,89,45
88680,note_on,0,0,0,,,,,,,,0,,,77,37
88700,note_on,20,0,0,,,,,,,,0,,,75,0
88700,note_on,0,0,0,,,,,,,,0,,,87,0
88737,set_tempo,37,1,0,,,,,,551471,,,,,,
88788,set_tempo,51,1,0,,,,,,556586,,,,,,
88800,set_tempo,12,1,0,,,,,,631579,,,,,,
88800,note_on,0,0,0,,,,,,,,0,,,76,40
88800,note_on,0,0,0,,,,,,,,0,,,88,47
88800,note_on,0,0,0,,,,,,,,0,,,52,37
88800,note_on,0,0,0,,,,,,,,0,,,56,37
88800,note_on,0,0,0,,,,,,,,0,,,64,45
88820,note_on,20,0,0,,,,,,,,0,,,89,0
88820,note_on,0,0,0,,,,,,,,0,,,77,0
88920,note_on,100,0,0,,,,,,,,0,,,76,0
88920,note_on,0,0,0,,,,,,,,0,,,52,0
88920,note_on,0,0,0,,,,,,,,0,,,88,0
88920,note_on,0,0,0,,,,,,,,0,,,64,0
88920,note_on,0,0,0,,,,,,,,0,,,56,0
89040,note_on,120,0,0,,,,,,,,0,,,76,47
89160,note_on,120,0,0,,,,,,,,0,,,76,0
89280,set_tempo,120,1,0,,,,,,655738,,,,,,
89280,note_on,0,0,0,,,,,,,,0,,,81,45
89280,note_on,0,0,0,,,,,,,,0,,,57,36
89280,note_on,0,0,0,,,,,,,,0,,,60,36
89280,note_on,0,0,0,,,,,,,,0,,,69,43
89340,note_on,60,0,0,,,,,,,,0,,,69,0
89340,note_on,0,0,0,,,,,,,,0,,,60,0
89340,note_on,0,0,0,,,,,,,,0,,,57,0
89400,set_tempo,60,1,0,,,,,,513699,,,,,,
89400,note_on,0,0,0,,,,,,,,0,,,93,51
89520,set_tempo,120,1,0,,,,,,541516,,,,,,
89520,note_on,0,0,0,,,,,,,,0,,,81,0
89520,note_on,0,0,0,,,,,,,,0,,,92,51
89520,note_on,0,0,0,,,,,,,,0,,,80,43
89520,note_on,0,0,0,,,,,,,,0,,,64,36
89520,note_on,0,0,0,,,,,,,,0,,,72,43
89540,note_on,20,0,0,,,,,,,,0,,,93,0
89580,note_on,40,0,0,,,,,,,,0,,,64,0
89580,note_on,0,0,0,,,,,,,,0,,,72,0
89640,set_tempo,60,1,0,,,,,,566038,,,,,,
89640,note_on,0,0,0,,,,,,,,0,,,91,50
89640,note_on,0,0,0,,,,,,,,0,,,79,42
89660,note_on,20,0,0,,,,,,,,0,,,80,0
89660,note_on,0,0,0,,,,,,,,0,,,92,0
89760,set_tempo,100,1,0,,,,,,568720,,,,,,
89760,note_on,0,0,0,,,,,,,,0,,,90,50
89760,note_on,0,0,0,,,,,,,,0,,,78,42
89760,note_on,0,0,0,,,,,,,,0,,,62,35
89760,note_on,0,0,0,,,,,,,,0,,,71,42
89780,note_on,20,0,0,,,,,,,,0,,,91,0
89780,note_on,0,0,0,,,,,,,,0,,,79,0
89820,note_on,40,0,0,,,,,,,,0,,,62,0
89820,note_on,0,0,0,,,,,,,,0,,,71,0
89880,note_on,60,0,0,,,,,,,,0,,,89,49
89880,note_on,0,0,0,,,,,,,,0,,,77,41
89900,note_on,20,0,0,,,,,,,,0,,,78,0
89900,note_on,0,0,0,,,,,,,,0,,,90,0
90000,note_on,100,0,0,,,,,,,,0,,,88,49
90000,note_on,0,0,0,,,,,,,,0,,,76,41
90000,note_on,0,0,0,,,,,,,,0,,,60,34
90000,note_on,0,0,0,,,,,,,,0,,,69,40
90020,note_on,20,0,0,,,,,,,,0,,,89,0
90020,note_on,0,0,0,,,,,,,,0,,,77,0
90060,note_on,40,0,0,,,,,,,,0,,,60,0
90060,note_on,0,0,0,,,,,,,,0,,,69,0
90120,set_tempo,60,1,0,,,,,,568720,,,,,,
90120,note_on,0,0,0,,,,,,,,0,,,87,48
90120,note_on,0,0,0,,,,,,,,0,,,75,40
90140,note_on,20,0,0,,,,,,,,0,,,76,0
90140,note_on,0,0,0,,,,,,,,0,,,88,0
90240,note_on,100,0,0,,,,,,,,0,,,87,0
90240,note_on,0,0,0,,,,,,,,0,,,75,0
90240,note_on,0,0,0,,,,,,,,0,,,77,43
90240,note_on,0,0,0,,,,,,,,0,,,89,51
90240,note_on,0,0,0,,,,,,,,0,,,52,36
90240,note_on,0,0,0,,,,,,,,0,,,56,36
90240,note_on,0,0,0,,,,,,,,0,,,64,43
90260,set_tempo,20,1,0,,,,,,540541,,,,,,
90300,note_on,40,0,0,,,,,,,,0,,,64,0
90300,note_on,0,0,0,,,,,,,,0,,,52,0
90300,note_on,0,0,0,,,,,,,,0,,,56,0
90360,set_tempo,60,1,0,,,,,,550459,,,,,,
90360,note_on,0,0,0,,,,,,,,0,,,76,37
90360,note_on,0,0,0,,,,,,,,0,,,88,45
90380,note_on,20,0,0,,,,,,,,0,,,89,0
90380,note_on,0,0,0,,,,,,,,0,,,77,0
90480,note_on,100,0,0,,,,,,,,0,,,75,40
90480,note_on,0,0,0,,,,,,,,0,,,87,48
90480,note_on,0,0,0,,,,,,,,0,,,59,33
90480,note_on,0,0,0,,,,,,,,0,,,67,39
90500,note_on,20,0,0,,,,,,,,0,,,76,0
90500,note_on,0,0,0,,,,,,,,0,,,88,0
90540,note_on,40,0,0,,,,,,,,0,,,59,0
90540,note_on,0,0,0,,,,,,,,0,,,67,0
90600,note_on,60,0,0,,,,,,,,0,,,89,45
90600,note_on,0,0,0,,,,,,,,0,,,77,37
90620,note_on,20,0,0,,,,,,,,0,,,87,0
90620,note_on,0,0,0,,,,,,,,0,,,75,0
90720,note_on,100,0,0,,,,,,,,0,,,89,0
90720,note_on,0,0,0,,,,,,,,0,,,77,0
90720,note_on,0,0,0,,,,,,,,0,,,76,40
90720,note_on,0,0,0,,,,,,,,0,,,88,47
90720,note_on,0,0,0,,,,,,,,0,,,57,37
90720,note_on,0,0,0,,,,,,,,0,,,65,45
90780,note_on,60,0,0,,,,,,,,0,,,65,0
90780,note_on,0,0,0,,,,,,,,0,,,57,0
90840,set_tempo,60,1,0,,,,,,563380,,,,,,
90840,note_on,0,0,0,,,,,,,,0,,,83,46
90860,note_on,20,0,0,,,,,,,,0,,,88,0
90960,note_on,100,0,0,,,,,,,,0,,,76,0
90960,note_on,0,0,0,,,,,,,,0,,,71,38
90960,note_on,0,0,0,,,,,,,,0,,,80,45
90960,note_on,0,0,0,,,,,,,,0,,,56,35
90960,note_on,0,0,0,,,,,,,,0,,,64,42
90980,note_on,20,0,0,,,,,,,,0,,,83,0
91020,note_on,40,0,0,,,,,,,,0,,,56,0
91020,note_on,0,0,0,,,,,,,,0,,,64,0
91080,note_on,60,0,0,,,,,,,,0,,,76,45
91100,note_on,20,0,0,,,,,,,,0,,,80,0
91200,set_tempo,100,1,0,,,,,,603015,,,,,,
91200,note_on,0,0,0,,,,,,,,0,,,76,0
91200,note_on,0,0,0,,,,,,,,0,,,71,0
91200,note_on,0,0,0,,,,,,,,0,,,81,45
91200,note_on,0,0,0,,,,,,,,0,,,57,36
91200,note_on,0,0,0,,,,,,,,0,,,60,36
91200,note_on,0,0,0,,,,,,,,0,,,69,43
91260,note_on,60,0,0,,,,,,,,0,,,69,0
91260,note_on,0,0,0,,,,,,,,0,,,60,0
91260,note_on,0,0,0,,,,,,,,0,,,57,0
91320,set_tempo,60,1,0,,,,,,540541,,,,,,
91320,note_on,0,0,0,,,,,,,,0,,,93,51
91440,set_tempo,120,1,0,,,,,,531915,,,,,,
91440,note_on,0,0,0,,,,,,,,0,,,81,0
91440,note_on,0,0,0,,,,,,,,0,,,92,51
91440,note_on,0,0,0,,,,,,,,0,,,80,43
91440,note_on,0,0,0,,,,,,,,0,,,64,36
91440,note_on,0,0,0,,,,,,,,0,,,72,43
91460,note_on,20,0,0,,,,,,,,0,,,93,0
91500,note_on,40,0,0,,,,,,,,0,,,64,0
91500,note_on,0,0,0,,,,,,,,0,,,72,0
91560,set_tempo,60,1,0,,,,,,566038,,,,,,
91560,note_on,0,0,0,,,,,,,,0,,,91,50
91560,note_on,0,0,0,,,,,,,,0,,,79,42
91580,note_on,20,0,0,,,,,,,,0,,,80,0
91580,note_on,0,0,0,,,,,,,,0,,,92,0
91680,set_tempo,100,1,0,,,,,,552995,,,,,,
91680,note_on,0,0,0,,,,,,,,0,,,90,50
91680,note_on,0,0,0,,,,,,,,0,,,78,42
91680,note_on,0,0,0,,,,,,,,0,,,62,35
91680,note_on,0,0,0,,,,,,,,0,,,71,42
91700,note_on,20,0,0,,,,,,,,0,,,91,0
91700,note_on,0,0,0,,,,,,,,0,,,79,0
91740,note_on,40,0,0,,,,,,,,0,,,62,0
91740,note_on,0,0,0,,,,,,,,0,,,71,0
91800,note_on,60,0,0,,,,,,,,0,,,89,49
91800,note_on,0,0,0,,,,,,,,0,,,77,41
91820,note_on,20,0,0,,,,,,,,0,,,78,0
91820,note_on,0,0,0,,,,,,,,0,,,90,0
91920,set_tempo,100,1,0,,,,,,561798,,,,,,
91920,note_on,0,0,0,,,,,,,,0,,,88,49
91920,note_on,0,0,0,,,,,,,,0,,,76,41
91920,note_on,0,0,0,,,,,,,,0,,,60,34
91920,note_on,0,0,0,,,,,,,,0,,,69,40
91940,note_on,20,0,0,,,,,,,,0,,,89,0
91940,note_on,0,0,0,,,,,,,,0,,,77,0
91980,note_on,40,0,0,,,,,,,,0,,,60,0
91980,note_on,0,0,0,,,,,,,,0,,,69,0
92040,set_tempo,60,1,0,,,,,,568720,,,,,,
92040,note_on,0,0,0,,,,,,,,0,,,87,48
92040,note_on,0,0,0,,,,,,,,0,,,75,40
92060,note_on,20,0,0,,,,,,,,0,,,76,0
92060,note_on,0,0,0,,,,,,,,0,,,88,0
92160,note_on,100,0,0,,,,,,,,0,,,87,0
92160,note_on,0,0,0,,,,,,,,0,,,75,0
92160,note_on,0,0,0,,,,,,,,0,,,77,43
92160,note_on,0,0,0,,,,,,,,0,,,89,51
92160,note_on,0,0,0,,,,,,,,0,,,57,36
92160,note_on,0,0,0,,,,,,,,0,,,60,36
92160,note_on,0,0,0,,,,,,,,0,,,65,43
92180,set_tempo,20,1,0,,,,,,540541,,,,,,
92280,set_tempo,100,1,0,,,,,,550459,,,,,,
92280,note_on,0,0,0,,,,,,,,0,,,65,0
92280,note_on,0,0,0,,,,,,,,0,,,57,0
92280,note_on,0,0,0,,,,,,,,0,,,60,0
92280,note_on,0,0,0,,,,,,,,0,,,76,37
92280,note_on,0,0,0,,,,,,,,0,,,88,45
92300,note_on,20,0,0,,,,,,,,0,,,89,0
92300,note_on,0,0,0,,,,,,,,0,,,77,0
92400,set_tempo,100,1,0,,,,,,568720,,,,,,
92400,note_on,0,0,0,,,,,,,,0,,,75,40
92400,note_on,0,0,0,,,,,,,,0,,,87,48
92420,note_on,20,0,0,,,,,,,,0,,,76,0
92420,note_on,0,0,0,,,,,,,,0,,,88,0
92520,note_on,100,0,0,,,,,,,,0,,,89,45
92520,note_on,0,0,0,,,,,,,,0,,,77,37
92540,note_on,20,0,0,,,,,,,,0,,,75,0
92540,note_on,0,0,0,,,,,,,,0,,,87,0
92640,set_tempo,100,1,0,,,,,,631579,,,,,,
92640,note_on,0,0,0,,,,,,,,0,,,76,40
92640,note_on,0,0,0,,,,,,,,0,,,88,47
92640,note_on,0,0,0,,,,,,,,0,,,52,37
92640,note_on,0,0,0,,,,,,,,0,,,56,37
92640,note_on,0,0,0,,,,,,,,0,,,64,45
92660,note_on,20,0,0,,,,,,,,0,,,89,0
92660,note_on,0,0,0,,,,,,,,0,,,77,0
92760,note_on,100,0,0,,,,,,,,0,,,76,0
92760,note_on,0,0,0,,,,,,,,0,,,52,0
92760,note_on,0,0,0,,,,,,,,0,,,88,0
92760,note_on,0,0,0,,,,,,,,0,,,64,0
92760,note_on,0,0,0,,,,,,,,0,,,56,0
92880,note_on,120,0,0,,,,,,,,0,,,76,47
93000,note_on,120,0,0,,,,,,,,0,,,76,0
93120,set_tempo,120,1,0,,,,,,652174,,,,,,
93120,note_on,0,0,0,,,,,,,,0,,,81,53
93120,note_on,0,0,0,,,,,,,,0,,,57,42
93120,note_on,0,0,0,,,,,,,,0,,,61,42
93120,note_on,0,0,0,,,,,,,,0,,,69,50
93146,control_change,26,0,0,,,,,,,,0,64,127,,
93180,note_on,34,0,0,,,,,,,,0,,,69,0
93180,note_on,0,0,0,,,,,,,,0,,,61,0
93180,note_on,0,0,0,,,,,,,,0,,,57,0
93240,set_tempo,60,1,0,,,,,,540541,,,,,,
93240,note_on,0,0,0,,,,,,,,0,,,93,60
93360,set_tempo,120,1,0,,,,,,576923,,,,,,
93360,note_on,0,0,0,,,,,,,,0,,,81,0
93360,note_on,0,0,0,,,,,,,,0,,,92,60
93360,note_on,0,0,0,,,,,,,,0,,,80,50
93360,note_on,0,0,0,,,,,,,,0,,,62,42
93360,note_on,0,0,0,,,,,,,,0,,,70,50
93369,control_change,9,0,0,,,,,,,,0,64,0,,
93380,note_on,11,0,0,,,,,,,,0,,,93,0
93420,note_on,40,0,0,,,,,,,,0,,,62,0
93420,note_on,0,0,0,,,,,,,,0,,,70,0
93480,set_tempo,60,1,0,,,,,,591133,,,,,,
93480,note_on,0,0,0,,,,,,,,0,,,91,59
93480,note_on,0,0,0,,,,,,,,0,,,79,49
93500,note_on,20,0,0,,,,,,,,0,,,80,0
93500,note_on,0,0,0,,,,,,,,0,,,92,0
93600,set_tempo,100,1,0,,,,,,560748,,,,,,
93600,note_on,0,0,0,,,,,,,,0,,,90,59
93600,note_on,0,0,0,,,,,,,,0,,,78,49
93600,note_on,0,0,0,,,,,,,,0,,,61,40
93600,note_on,0,0,0,,,,,,,,0,,,69,49
93620,note_on,20,0,0,,,,,,,,0,,,91,0
93620,note_on,0,0,0,,,,,,,,0,,,79,0
93660,note_on,40,0,0,,,,,,,,0,,,61,0
93660,note_on,0,0,0,,,,,,,,0,,,69,0
93720,note_on,60,0,0,,,,,,,,0,,,89,59
93720,note_on,0,0,0,,,,,,,,0,,,77,49
93740,note_on,20,0,0,,,,,,,,0,,,78,0
93740,note_on,0,0,0,,,,,,,,0,,,90,0
93840,note_on,100,0,0,,,,,,,,0,,,88,59
93840,note_on,0,0,0,,,,,,,,0,,,76,49
93840,note_on,0,0,0,,,,,,,,0,,,58,39
93840,note_on,0,0,0,,,,,,,,0,,,67,48
93860,note_on,20,0,0,,,,,,,,0,,,89,0
93860,note_on,0,0,0,,,,,,,,0,,,77,0
93900,note_on,40,0,0,,,,,,,,0,,,58,0
93900,note_on,0,0,0,,,,,,,,0,,,67,0
93960,set_tempo,60,1,0,,,,,,568720,,,,,,
93960,note_on,0,0,0,,,,,,,,0,,,86,58
93960,note_on,0,0,0,,,,,,,,0,,,74,48
93980,note_on,20,0,0,,,,,,,,0,,,76,0
93980,note_on,0,0,0,,,,,,,,0,,,88,0
94080,note_on,100,0,0,,,,,,,,0,,,86,0
94080,note_on,0,0,0,,,,,,,,0,,,74,0
94080,note_on,0,0,0,,,,,,,,0,,,73,50
94080,note_on,0,0,0,,,,,,,,0,,,85,60
94080,note_on,0,0,0,,,,,,,,0,,,57,42
94080,note_on,0,0,0,,,,,,,,0,,,65,50
94100,set_tempo,20,1,0,,,,,,540541,,,,,,
94140,note_on,40,0,0,,,,,,,,0,,,65,0
94140,note_on,0,0,0,,,,,,,,0,,,57,0
94200,set_tempo,60,1,0,,,,,,550459,,,,,,
94200,note_on,0,0,0,,,,,,,,0,,,88,53
94220,note_on,20,0,0,,,,,,,,0,,,85,0
94320,set_tempo,100,1,0,,,,,,558140,,,,,,
94320,note_on,0,0,0,,,,,,,,0,,,73,0
94320,note_on,0,0,0,,,,,,,,0,,,73,48
94320,note_on,0,0,0,,,,,,,,0,,,81,58
94320,note_on,0,0,0,,,,,,,,0,,,55,39
94320,note_on,0,0,0,,,,,,,,0,,,64,47
94340,note_on,20,0,0,,,,,,,,0,,,88,0
94380,note_on,40,0,0,,,,,,,,0,,,55,0
94380,note_on,0,0,0,,,,,,,,0,,,64,0
94440,note_on,60,0,0,,,,,,,,0,,,85,53
94460,note_on,20,0,0,,,,,,,,0,,,81,0
94560,note_on,100,0,0,,,,,,,,0,,,85,0
94560,note_on,0,0,0,,,,,,,,0,,,73,0
94560,note_on,0,0,0,,,,,,,,0,,,74,48
94560,note_on,0,0,0,,,,,,,,0,,,86,57
94560,note_on,0,0,0,,,,,,,,0,,,53,45
94560,note_on,0,0,0,,,,,,,,0,,,62,53
94581,control_change,21,0,0,,,,,,,,0,64,127,,
94620,note_on,39,0,0,,,,,,,,0,,,62,0
94620,note_on,0,0,0,,,,,,,,0,,,53,0
94680,set_tempo,60,1,0,,,,,,563380,,,,,,
94680,note_on,0,0,0,,,,,,,,0,,,81,56
94700,note_on,20,0,0,,,,,,,,0,,,86,0
94800,note_on,100,0,0,,,,,,,,0,,,74,0
94800,note_on,0,0,0,,,,,,,,0,,,69,46
94800,note_on,0,0,0,,,,,,,,0,,,77,55
94800,note_on,0,0,0,,,,,,,,0,,,50,40
94800,note_on,0,0,0,,,,,,,,0,,,65,49
94814,control_change,14,0,0,,,,,,,,0,64,0,,
94820,note_on,6,0,0,,,,,,,,0,,,81,0
94860,note_on,40,0,0,,,,,,,,0,,,50,0
94860,note_on,0,0,0,,,,,,,,0,,,65,0
94888,control_change,28,0,0,,,,,,,,0,64,127,,
94920,note_on,32,0,0,,,,,,,,0,,,74,53
94940,note_on,20,0,0,,,,,,,,0,,,77,0
95040,set_tempo,100,1,0,,,,,,594059,,,,,,
95040,note_on,0,0,0,,,,,,,,0,,,74,0
95040,note_on,0,0,0,,,,,,,,0,,,69,0
95040,note_on,0,0,0,,,,,,,,0,,,79,56
95040,note_on,0,0,0,,,,,,,,0,,,55,45
95040,note_on,0,0,0,,,,,,,,0,,,59,45
95040,note_on,0,0,0,,,,,,,,0,,,67,52
95042,control_change,2,0,0,,,,,,,,0,64,0,,
95100,note_on,58,0,0,,,,,,,,0,,,67,0
95100,note_on,0,0,0,,,,,,,,0,,,59,0
95100,note_on,0,0,0,,,,,,,,0,,,55,0
95106,control_change,6,0,0,,,,,,,,0,64,127,,
95160,set_tempo,54,1,0,,,,,,540541,,,,,,
95160,note_on,0,0,0,,,,,,,,0,,,91,63
95280,set_tempo,120,1,0,,,,,,576923,,,,,,
95280,note_on,0,0,0,,,,,,,,0,,,79,0
95280,note_on,0,0,0,,,,,,,,0,,,90,63
95280,note_on,0,0,0,,,,,,,,0,,,78,52
95280,note_on,0,0,0,,,,,,,,0,,,60,45
95280,note_on,0,0,0,,,,,,,,0,,,68,52
95290,control_change,10,0,0,,,,,,,,0,64,0,,
95300,note_on,10,0,0,,,,,,,,0,,,91,0
95340,note_on,40,0,0,,,,,,,,0,,,60,0
95340,note_on,0,0,0,,,,,,,,0,,,68,0
95400,set_tempo,60,1,0,,,,,,591133,,,,,,
95400,note_on,0,0,0,,,,,,,,0,,,89,62
95400,note_on,0,0,0,,,,,,,,0,,,77,51
95420,note_on,20,0,0,,,,,,,,0,,,78,0
95420,note_on,0,0,0,,,,,,,,0,,,90,0
95520,set_tempo,100,1,0,,,,,,560748,,,,,,
95520,note_on,0,0,0,,,,,,,,0,,,88,62
95520,note_on,0,0,0,,,,,,,,0,,,76,51
95520,note_on,0,0,0,,,,,,,,0,,,59,42
95520,note_on,0,0,0,,,,,,,,0,,,67,51
95540,note_on,20,0,0,,,,,,,,0,,,89,0
95540,note_on,0,0,0,,,,,,,,0,,,77,0
95558,set_tempo,18,1,0,,,,,,536673,,,,,,
95580,note_on,22,0,0,,,,,,,,0,,,59,0
95580,note_on,0,0,0,,,,,,,,0,,,67,0
95640,note_on,60,0,0,,,,,,,,0,,,87,61
95640,note_on,0,0,0,,,,,,,,0,,,75,50
95660,note_on,20,0,0,,,,,,,,0,,,76,0
95660,note_on,0,0,0,,,,,,,,0,,,88,0
95760,note_on,100,0,0,,,,,,,,0,,,86,61
95760,note_on,0,0,0,,,,,,,,0,,,74,50
95760,note_on,0,0,0,,,,,,,,0,,,56,41
95760,note_on,0,0,0,,,,,,,,0,,,65,49
95780,note_on,20,0,0,,,,,,,,0,,,87,0
95780,note_on,0,0,0,,,,,,,,0,,,75,0
95820,note_on,40,0,0,,,,,,,,0,,,56,0
95820,note_on,0,0,0,,,,,,,,0,,,65,0
95880,set_tempo,60,1,0,,,,,,568720,,,,,,
95880,note_on,0,0,0,,,,,,,,0,,,84,59
95880,note_on,0,0,0,,,,,,,,0,,,72,49
95900,note_on,20,0,0,,,,,,,,0,,,74,0
95900,note_on,0,0,0,,,,,,,,0,,,86,0
96000,note_on,100,0,0,,,,,,,,0,,,84,0
96000,note_on,0,0,0,,,,,,,,0,,,72,0
96000,note_on,0,0,0,,,,,,,,0,,,71,52
96000,note_on,0,0,0,,,,,,,,0,,,83,63
96000,note_on,0,0,0,,,,,,,,0,,,55,45
96000,note_on,0,0,0,,,,,,,,0,,,64,52
96020,set_tempo,20,1,0,,,,,,540541,,,,,,
96060,note_on,40,0,0,,,,,,,,0,,,64,0
96060,note_on,0,0,0,,,,,,,,0,,,55,0
96120,set_tempo,60,1,0,,,,,,550459,,,,,,
96120,note_on,0,0,0,,,,,,,,0,,,86,56
96140,note_on,20,0,0,,,,,,,,0,,,83,0
96240,set_tempo,100,1,0,,,,,,558140,,,,,,
96240,note_on,0,0,0,,,,,,,,0,,,71,0
96240,note_on,0,0,0,,,,,,,,0,,,71,49
96240,note_on,0,0,0,,,,,,,,0,,,79,59
96240,note_on,0,0,0,,,,,,,,0,,,53,40
96240,note_on,0,0,0,,,,,,,,0,,,62,49
96260,note_on,20,0,0,,,,,,,,0,,,86,0
96300,note_on,40,0,0,,,,,,,,0,,,53,0
96300,note_on,0,0,0,,,,,,,,0,,,62,0
96360,note_on,60,0,0,,,,,,,,0,,,83,56
96380,note_on,20,0,0,,,,,,,,0,,,79,0
96480,note_on,100,0,0,,,,,,,,0,,,83,0
96480,note_on,0,0,0,,,,,,,,0,,,71,0
96480,note_on,0,0,0,,,,,,,,0,,,72,49
96480,note_on,0,0,0,,,,,,,,0,,,84,59
96480,note_on,0,0,0,,,,,,,,0,,,52,47
96480,note_on,0,0,0,,,,,,,,0,,,60,56
96523,control_change,43,0,0,,,,,,,,0,64,127,,
96540,note_on,17,0,0,,,,,,,,0,,,60,0
96540,note_on,0,0,0,,,,,,,,0,,,52,0
96600,set_tempo,60,1,0,,,,,,563380,,,,,,
96600,note_on,0,0,0,,,,,,,,0,,,79,58
96620,note_on,20,0,0,,,,,,,,0,,,84,0
96720,note_on,100,0,0,,,,,,,,0,,,72,0
96720,note_on,0,0,0,,,,,,,,0,,,67,48
96720,note_on,0,0,0,,,,,,,,0,,,76,57
96720,note_on,0,0,0,,,,,,,,0,,,48,42
96720,note_on,0,0,0,,,,,,,,0,,,64,51
96734,control_change,14,0,0,,,,,,,,0,64,0,,
96740,note_on,6,0,0,,,,,,,,0,,,79,0
96780,note_on,40,0,0,,,,,,,,0,,,48,0
96780,note_on,0,0,0,,,,,,,,0,,,64,0
96780,control_change,0,0,0,,,,,,,,0,64,127,,
96840,set_tempo,60,1,0,,,,,,618557,,,,,,
96840,note_on,0,0,0,,,,,,,,0,,,72,56
96860,note_on,20,0,0,,,,,,,,0,,,76,0
96960,set_tempo,100,1,0,,,,,,833333,,,,,,
96960,note_on,0,0,0,,,,,,,,0,,,72,0
96960,note_on,0,0,0,,,,,,,,0,,,67,0
96960,note_on,0,0,0,,,,,,,,0,,,77,50
96960,note_on,0,0,0,,,,,,,,0,,,59,36
96960,note_on,0,0,0,,,,,,,,0,,,50,36
96960,note_on,0,0,0,,,,,,,,0,,,56,36
96960,note_on,0,0,0,,,,,,,,0,,,65,43
96960,control_change,0,0,0,,,,,,,,0,64,0,,
97020,note_on,60,0,0,,,,,,,,0,,,93,63
97080,set_tempo,60,1,0,,,,,,594059,,,,,,
97080,note_on,0,0,0,,,,,,,,0,,,93,0
97080,note_on,0,0,0,,,,,,,,0,,,59,0
97080,note_on,0,0,0,,,,,,,,0,,,50,0
97080,note_on,0,0,0,,,,,,,,0,,,77,0
97080,note_on,0,0,0,,,,,,,,0,,,65,0
97080,note_on,0,0,0,,,,,,,,0,,,56,0
97200,set_tempo,120,1,0,,,,,,540541,,,,,,
97200,note_on,0,0,0,,,,,,,,0,,,88,51
97200,note_on,0,0,0,,,,,,,,0,,,76,43
97320,set_tempo,120,1,0,,,,,,563380,,,,,,
97320,note_on,0,0,0,,,,,,,,0,,,87,50
97320,note_on,0,0,0,,,,,,,,0,,,75,42
97340,note_on,20,0,0,,,,,,,,0,,,76,0
97340,note_on,0,0,0,,,,,,,,0,,,88,0
97440,set_tempo,100,1,0,,,,,,545455,,,,,,
97440,note_on,0,0,0,,,,,,,,0,,,74,50
97460,note_on,20,0,0,,,,,,,,0,,,87,0
97460,note_on,0,0,0,,,,,,,,0,,,75,0
97560,note_on,100,0,0,,,,,,,,0,,,85,49
97560,note_on,0,0,0,,,,,,,,0,,,73,41
97580,note_on,20,0,0,,,,,,,,0,,,74,0
97680,note_on,100,0,0,,,,,,,,0,,,84,49
97680,note_on,0,0,0,,,,,,,,0,,,72,41
97700,note_on,20,0,0,,,,,,,,0,,,73,0
97700,note_on,0,0,0,,,,,,,,0,,,85,0
97800,set_tempo,100,1,0,,,,,,625000,,,,,,
97800,note_on,0,0,0,,,,,,,,0,,,83,48
97800,note_on,0,0,0,,,,,,,,0,,,71,40
97820,note_on,20,0,0,,,,,,,,0,,,84,0
97820,note_on,0,0,0,,,,,,,,0,,,72,0
97920,set_tempo,100,1,0,,,,,,845070,,,,,,
97920,note_on,0,0,0,,,,,,,,0,,,83,0
97920,note_on,0,0,0,,,,,,,,0,,,71,0
97920,note_on,0,0,0,,,,,,,,0,,,76,54
97920,note_on,0,0,0,,,,,,,,0,,,57,36
97920,note_on,0,0,0,,,,,,,,0,,,48,36
97920,note_on,0,0,0,,,,,,,,0,,,64,43
97980,note_on,60,0,0,,,,,,,,0,,,91,66
98040,set_tempo,60,1,0,,,,,,576923,,,,,,
98040,note_on,0,0,0,,,,,,,,0,,,91,0
98040,note_on,0,0,0,,,,,,,,0,,,48,0
98040,note_on,0,0,0,,,,,,,,0,,,76,0
98040,note_on,0,0,0,,,,,,,,0,,,57,0
98040,note_on,0,0,0,,,,,,,,0,,,64,0
98160,set_tempo,120,1,0,,,,,,542986,,,,,,
98160,note_on,0,0,0,,,,,,,,0,,,87,51
98160,note_on,0,0,0,,,,,,,,0,,,75,43
98280,set_tempo,120,1,0,,,,,,591133,,,,,,
98280,note_on,0,0,0,,,,,,,,0,,,86,50
98280,note_on,0,0,0,,,,,,,,0,,,74,42
98300,note_on,20,0,0,,,,,,,,0,,,75,0
98300,note_on,0,0,0,,,,,,,,0,,,87,0
98400,set_tempo,100,1,0,,,,,,545455,,,,,,
98400,note_on,0,0,0,,,,,,,,0,,,72,50
98420,note_on,20,0,0,,,,,,,,0,,,86,0
98420,note_on,0,0,0,,,,,,,,0,,,74,0
98520,note_on,100,0,0,,,,,,,,0,,,83,49
98520,note_on,0,0,0,,,,,,,,0,,,71,41
98540,note_on,20,0,0,,,,,,,,0,,,72,0
98640,note_on,100,0,0,,,,,,,,0,,,82,49
98640,note_on,0,0,0,,,,,,,,0,,,70,41
98660,note_on,20,0,0,,,,,,,,0,,,71,0
98660,note_on,0,0,0,,,,,,,,0,,,83,0
98760,set_tempo,100,1,0,,,,,,568720,,,,,,
98760,note_on,0,0,0,,,,,,,,0,,,81,48
98760,note_on,0,0,0,,,,,,,,0,,,69,40
98780,note_on,20,0,0,,,,,,,,0,,,82,0
98780,note_on,0,0,0,,,,,,,,0,,,70,0
98880,set_tempo,100,1,0,,,,,,560748,,,,,,
98880,note_on,0,0,0,,,,,,,,0,,,81,0
98880,note_on,0,0,0,,,,,,,,0,,,69,0
98880,note_on,0,0,0,,,,,,,,0,,,57,43
98880,note_on,0,0,0,,,,,,,,0,,,65,50
98940,note_on,60,0,0,,,,,,,,0,,,65,0
98940,note_on,0,0,0,,,,,,,,0,,,57,0
99000,note_on,60,0,0,,,,,,,,0,,,76,49
99000,note_on,0,0,0,,,,,,,,0,,,64,41
99120,note_on,120,0,0,,,,,,,,0,,,75,49
99120,note_on,0,0,0,,,,,,,,0,,,63,41
99140,note_on,20,0,0,,,,,,,,0,,,64,0
99140,note_on,0,0,0,,,,,,,,0,,,76,0
99240,set_tempo,100,1,0,,,,,,568720,,,,,,
99240,note_on,0,0,0,,,,,,,,0,,,74,48
99240,note_on,0,0,0,,,,,,,,0,,,62,40
99260,note_on,20,0,0,,,,,,,,0,,,75,0
99260,note_on,0,0,0,,,,,,,,0,,,63,0
99360,set_tempo,100,1,0,,,,,,560748,,,,,,
99360,note_on,0,0,0,,,,,,,,0,,,74,0
99360,note_on,0,0,0,,,,,,,,0,,,62,0
99360,note_on,0,0,0,,,,,,,,0,,,56,43
99360,note_on,0,0,0,,,,,,,,0,,,64,50
99420,note_on,60,0,0,,,,,,,,0,,,64,0
99420,note_on,0,0,0,,,,,,,,0,,,56,0
99480,note_on,60,0,0,,,,,,,,0,,,72,49
99480,note_on,0,0,0,,,,,,,,0,,,60,41
99600,note_on,120,0,0,,,,,,,,0,,,71,49
99600,note_on,0,0,0,,,,,,,,0,,,59,41
99620,note_on,20,0,0,,,,,,,,0,,,60,0
99620,note_on,0,0,0,,,,,,,,0,,,72,0
99720,set_tempo,100,1,0,,,,,,568720,,,,,,
99720,note_on,0,0,0,,,,,,,,0,,,70,48
99720,note_on,0,0,0,,,,,,,,0,,,58,40
99740,note_on,20,0,0,,,,,,,,0,,,71,0
99740,note_on,0,0,0,,,,,,,,0,,,59,0
99840,set_tempo,100,1,0,,,,,,648649,,,,,,
99840,note_on,0,0,0,,,,,,,,0,,,70,0
99840,note_on,0,0,0,,,,,,,,0,,,58,0
99840,note_on,0,0,0,,,,,,,,0,,,57,52
99960,set_tempo,120,1,0,,,,,,576923,,,,,,
99960,note_on,0,0,0,,,,,,,,0,,,65,50
99960,note_on,0,0,0,,,,,,,,0,,,53,44
99980,note_on,20,0,0,,,,,,,,0,,,57,0
100080,set_tempo,100,1,0,,,,,,574163,,,,,,
100080,note_on,0,0,0,,,,,,,,0,,,64,49
100080,note_on,0,0,0,,,,,,,,0,,,52,44
100100,note_on,20,0,0,,,,,,,,0,,,53,0
100100,note_on,0,0,0,,,,,,,,0,,,65,0
100180,set_tempo,80,1,0,,,,,,576923,,,,,,
100200,note_on,20,0,0,,,,,,,,0,,,63,48
100200,note_on,0,0,0,,,,,,,,0,,,51,43
100220,note_on,20,0,0,,,,,,,,0,,,64,0
100220,note_on,0,0,0,,,,,,,,0,,,52,0
100260,set_tempo,40,1,0,,,,,,579710,,,,,,
100320,note_on,60,0,0,,,,,,,,0,,,62,46
100320,note_on,0,0,0,,,,,,,,0,,,50,42
100340,set_tempo,20,1,0,,,,,,582524,,,,,,
100340,note_on,0,0,0,,,,,,,,0,,,63,0
100340,note_on,0,0,0,,,,,,,,0,,,51,0
100420,set_tempo,80,1,0,,,,,,585366,,,,,,
100440,note_on,20,0,0,,,,,,,,0,,,60,45
100440,note_on,0,0,0,,,,,,,,0,,,48,41
100460,note_on,20,0,0,,,,,,,,0,,,62,0
100460,note_on,0,0,0,,,,,,,,0,,,50,0
100500,set_tempo,40,1,0,,,,,,588235,,,,,,
100560,note_on,60,0,0,,,,,,,,0,,,59,45
100560,note_on,0,0,0,,,,,,,,0,,,47,41
100580,set_tempo,20,1,0,,,,,,591133,,,,,,
100580,note_on,0,0,0,,,,,,,,0,,,60,0
100580,note_on,0,0,0,,,,,,,,0,,,48,0
100660,set_tempo,80,1,0,,,,,,594059,,,,,,
100680,note_on,20,0,0,,,,,,,,0,,,58,44
100680,note_on,0,0,0,,,,,,,,0,,,46,40
100700,note_on,20,0,0,,,,,,,,0,,,59,0
100700,note_on,0,0,0,,,,,,,,0,,,47,0
100740,set_tempo,40,1,0,,,,,,597015,,,,,,
100800,set_tempo,60,1,0,,,,,,655738,,,,,,
100800,marker,0,1,0,,,,,,,,,,,,
100800,note_on,0,0,0,,,,,,,,0,,,58,0
100800,note_on,0,0,0,,,,,,,,0,,,46,0
100800,note_on,0,0,0,,,,,,,,0,,,57,45
100800,note_on,0,0,0,,,,,,,,0,,,45,43
100836,control_change,36,0,0,,,,,,,,0,64,127,,
100920,note_on,84,0,0,,,,,,,,0,,,45,0
100920,note_on,0,0,0,,,,,,,,0,,,57,0
101040,set_tempo,120,1,0,,,,,,563380,,,,,,
101040,note_on,0,0,0,,,,,,,,0,,,89,51
101040,note_on,0,0,0,,,,,,,,0,,,81,43
101160,set_tempo,120,1,0,,,,,,591133,,,,,,
101160,note_on,0,0,0,,,,,,,,0,,,84,50
101160,note_on,0,0,0,,,,,,,,0,,,77,42
101180,note_on,20,0,0,,,,,,,,0,,,81,0
101180,note_on,0,0,0,,,,,,,,0,,,89,0
101280,set_tempo,100,1,0,,,,,,560748,,,,,,
101280,note_on,0,0,0,,,,,,,,0,,,76,45
101280,note_on,0,0,0,,,,,,,,0,,,69,37
101300,note_on,20,0,0,,,,,,,,0,,,84,0
101300,note_on,0,0,0,,,,,,,,0,,,77,0
101400,set_tempo,100,1,0,,,,,,662983,,,,,,
101400,note_on,0,0,0,,,,,,,,0,,,72,44
101400,note_on,0,0,0,,,,,,,,0,,,64,36
101420,note_on,20,0,0,,,,,,,,0,,,76,0
101420,note_on,0,0,0,,,,,,,,0,,,69,0
101520,set_tempo,100,1,0,,,,,,579710,,,,,,
101520,note_on,0,0,0,,,,,,,,0,,,60,47
101520,note_on,0,0,0,,,,,,,,0,,,48,45
101526,control_change,6,0,0,,,,,,,,0,64,0,,
101540,note_on,14,0,0,,,,,,,,0,,,72,0
101540,note_on,0,0,0,,,,,,,,0,,,64,0
101600,note_on,60,0,0,,,,,,,,0,,,60,0
101600,note_on,0,0,0,,,,,,,,0,,,48,0
101600,note_on,0,0,0,,,,,,,,0,,,59,46
101600,note_on,0,0,0,,,,,,,,0,,,47,44
101680,note_on,80,0,0,,,,,,,,0,,,47,0
101680,note_on,0,0,0,,,,,,,,0,,,59,0
101680,note_on,0,0,0,,,,,,,,0,,,57,45
101680,note_on,0,0,0,,,,,,,,0,,,45,42
101760,set_tempo,80,1,0,,,,,,641711,,,,,,
101760,note_on,0,0,0,,,,,,,,0,,,45,0
101760,note_on,0,0,0,,,,,,,,0,,,57,0
101760,note_on,0,0,0,,,,,,,,0,,,56,45
101760,note_on,0,0,0,,,,,,,,0,,,44,43
101840,control_change,80,0,0,,,,,,,,0,64,127,,
101880,note_on,40,0,0,,,,,,,,0,,,44,0
101880,note_on,0,0,0,,,,,,,,0,,,56,0
102000,set_tempo,120,1,0,,,,,,563380,,,,,,
102000,note_on,0,0,0,,,,,,,,0,,,87,51
102000,note_on,0,0,0,,,,,,,,0,,,80,43
102120,set_tempo,120,1,0,,,,,,591133,,,,,,
102120,note_on,0,0,0,,,,,,,,0,,,83,50
102120,note_on,0,0,0,,,,,,,,0,,,75,42
102140,note_on,20,0,0,,,,,,,,0,,,80,0
102140,note_on,0,0,0,,,,,,,,0,,,87,0
102240,set_tempo,100,1,0,,,,,,560748,,,,,,
102240,note_on,0,0,0,,,,,,,,0,,,76,45
102240,note_on,0,0,0,,,,,,,,0,,,68,37
102260,note_on,20,0,0,,,,,,,,0,,,83,0
102260,note_on,0,0,0,,,,,,,,0,,,75,0
102360,set_tempo,100,1,0,,,,,,662983,,,,,,
102360,note_on,0,0,0,,,,,,,,0,,,71,44
102360,note_on,0,0,0,,,,,,,,0,,,64,36
102380,note_on,20,0,0,,,,,,,,0,,,76,0
102380,note_on,0,0,0,,,,,,,,0,,,68,0
102480,set_tempo,100,1,0,,,,,,574163,,,,,,
102480,note_on,0,0,0,,,,,,,,0,,,52,39
102480,note_on,0,0,0,,,,,,,,0,,,40,36
102483,control_change,3,0,0,,,,,,,,0,64,0,,
102500,note_on,17,0,0,,,,,,,,0,,,71,0
102500,note_on,0,0,0,,,,,,,,0,,,64,0
102560,note_on,60,0,0,,,,,,,,0,,,52,0
102560,note_on,0,0,0,,,,,,,,0,,,40,0
102560,note_on,0,0,0,,,,,,,,0,,,54,41
102560,note_on,0,0,0,,,,,,,,0,,,42,39
102600,set_tempo,40,1,0,,,,,,568720,,,,,,
102640,note_on,40,0,0,,,,,,,,0,,,42,0
102640,note_on,0,0,0,,,,,,,,0,,,54,0
102640,note_on,0,0,0,,,,,,,,0,,,56,43
102640,note_on,0,0,0,,,,,,,,0,,,44,42
102720,set_tempo,80,1,0,,,,,,645161,,,,,,
102720,note_on,0,0,0,,,,,,,,0,,,44,0
102720,note_on,0,0,0,,,,,,,,0,,,56,0
102720,note_on,0,0,0,,,,,,,,0,,,57,45
102720,note_on,0,0,0,,,,,,,,0,,,45,43
102800,control_change,80,0,0,,,,,,,,0,64,127,,
102840,note_on,40,0,0,,,,,,,,0,,,45,0
102840,note_on,0,0,0,,,,,,,,0,,,57,0
102960,set_tempo,120,1,0,,,,,,540541,,,,,,
102960,note_on,0,0,0,,,,,,,,0,,,89,51
102960,note_on,0,0,0,,,,,,,,0,,,81,43
103080,set_tempo,120,1,0,,,,,,576923,,,,,,
103080,note_on,0,0,0,,,,,,,,0,,,84,50
103080,note_on,0,0,0,,,,,,,,0,,,77,42
103100,note_on,20,0,0,,,,,,,,0,,,81,0
103100,note_on,0,0,0,,,,,,,,0,,,89,0
103200,set_tempo,100,1,0,,,,,,560748,,,,,,
103200,note_on,0,0,0,,,,,,,,0,,,76,45
103200,note_on,0,0,0,,,,,,,,0,,,69,37
103220,note_on,20,0,0,,,,,,,,0,,,84,0
103220,note_on,0,0,0,,,,,,,,0,,,77,0
103320,set_tempo,100,1,0,,,,,,666667,,,,,,
103320,note_on,0,0,0,,,,,,,,0,,,72,44
103320,note_on,0,0,0,,,,,,,,0,,,64,36
103340,note_on,20,0,0,,,,,,,,0,,,76,0
103340,note_on,0,0,0,,,,,,,,0,,,69,0
103440,set_tempo,100,1,0,,,,,,576923,,,,,,
103440,note_on,0,0,0,,,,,,,,0,,,60,47
103440,note_on,0,0,0,,,,,,,,0,,,48,45
103448,control_change,8,0,0,,,,,,,,0,64,0,,
103460,note_on,12,0,0,,,,,,,,0,,,72,0
103460,note_on,0,0,0,,,,,,,,0,,,64,0
103520,note_on,60,0,0,,,,,,,,0,,,60,0
103520,note_on,0,0,0,,,,,,,,0,,,48,0
103520,note_on,0,0,0,,,,,,,,0,,,59,46
103520,note_on,0,0,0,,,,,,,,0,,,47,44
103600,note_on,80,0,0,,,,,,,,0,,,47,0
103600,note_on,0,0,0,,,,,,,,0,,,59,0
103600,note_on,0,0,0,,,,,,,,0,,,57,45
103600,note_on,0,0,0,,,,,,,,0,,,45,42
103680,set_tempo,80,1,0,,,,,,606061,,,,,,
103680,note_on,0,0,0,,,,,,,,0,,,45,0
103680,note_on,0,0,0,,,,,,,,0,,,57,0
103680,note_on,0,0,0,,,,,,,,0,,,56,45
103680,note_on,0,0,0,,,,,,,,0,,,44,43
103760,control_change,80,0,0,,,,,,,,0,64,127,,
103800,note_on,40,0,0,,,,,,,,0,,,44,0
103800,note_on,0,0,0,,,,,,,,0,,,56,0
103920,set_tempo,120,1,0,,,,,,563380,,,,,,
103920,note_on,0,0,0,,,,,,,,0,,,87,51
103920,note_on,0,0,0,,,,,,,,0,,,80,43
104040,set_tempo,120,1,0,,,,,,591133,,,,,,
104040,note_on,0,0,0,,,,,,,,0,,,83,50
104040,note_on,0,0,0,,,,,,,,0,,,75,42
104060,note_on,20,0,0,,,,,,,,0,,,80,0
104060,note_on,0,0,0,,,,,,,,0,,,87,0
104160,set_tempo,100,1,0,,,,,,560748,,,,,,
104160,note_on,0,0,0,,,,,,,,0,,,76,45
104160,note_on,0,0,0,,,,,,,,0,,,68,37
104180,note_on,20,0,0,,,,,,,,0,,,83,0
104180,note_on,0,0,0,,,,,,,,0,,,75,0
104280,note_on,100,0,0,,,,,,,,0,,,71,44
104280,note_on,0,0,0,,,,,,,,0,,,64,36
104300,note_on,20,0,0,,,,,,,,0,,,76,0
104300,note_on,0,0,0,,,,,,,,0,,,68,0
104400,set_tempo,100,1,0,,,,,,1348315,,,,,,
104403,control_change,3,0,0,,,,,,,,0,64,0,,
104420,note_on,17,0,0,,,,,,,,0,,,71,0
104420,note_on,0,0,0,,,,,,,,0,,,64,0
104460,set_tempo,40,1,0,,,,,,582524,,,,,,
104460,note_on,0,0,0,,,,,,,,0,,,52,75
104460,note_on,0,0,0,,,,,,,,0,,,40,63
104520,note_on,60,0,0,,,,,,,,0,,,40,0
104520,note_on,0,0,0,,,,,,,,0,,,52,0
104520,note_on,0,0,0,,,,,,,,0,,,54,79
104520,note_on,0,0,0,,,,,,,,0,,,42,66
104580,note_on,60,0,0,,,,,,,,0,,,42,0
104580,note_on,0,0,0,,,,,,,,0,,,54,0
104580,note_on,0,0,0,,,,,,,,0,,,56,81
104580,note_on,0,0,0,,,,,,,,0,,,44,70
104640,set_tempo,60,1,0,,,,,,655738,,,,,,
104640,note_on,0,0,0,,,,,,,,0,,,44,0
104640,note_on,0,0,0,,,,,,,,0,,,56,0
104640,note_on,0,0,0,,,,,,,,0,,,57,83
104640,note_on,0,0,0,,,,,,,,0,,,33,72
104640,note_on,0,0,0,,,,,,,,0,,,45,72
104707,control_change,67,0,0,,,,,,,,0,64,127,,
104760,note_on,53,0,0,,,,,,,,0,,,45,0
104760,note_on,0,0,0,,,,,,,,0,,,33,0
104760,note_on,0,0,0,,,,,,,,0,,,57,0
104880,set_tempo,120,1,0,,,,,,563380,,,,,,
104880,note_on,0,0,0,,,,,,,,0,,,89,80
104880,note_on,0,0,0,,,,,,,,0,,,81,67
105000,set_tempo,120,1,0,,,,,,574163,,,,,,
105000,note_on,0,0,0,,,,,,,,0,,,84,79
105000,note_on,0,0,0,,,,,,,,0,,,77,65
105020,note_on,20,0,0,,,,,,,,0,,,81,0
105020,note_on,0,0,0,,,,,,,,0,,,89,0
105120,set_tempo,100,1,0,,,,,,560748,,,,,,
105120,note_on,0,0,0,,,,,,,,0,,,76,70
105120,note_on,0,0,0,,,,,,,,0,,,69,59
105140,note_on,20,0,0,,,,,,,,0,,,84,0
105140,note_on,0,0,0,,,,,,,,0,,,77,0
105240,set_tempo,100,1,0,,,,,,662983,,,,,,
105240,note_on,0,0,0,,,,,,,,0,,,72,68
105240,note_on,0,0,0,,,,,,,,0,,,64,57
105260,note_on,20,0,0,,,,,,,,0,,,76,0
105260,note_on,0,0,0,,,,,,,,0,,,69,0
105360,set_tempo,100,1,0,,,,,,579710,,,,,,
105360,note_on,0,0,0,,,,,,,,0,,,60,81
105360,note_on,0,0,0,,,,,,,,0,,,48,74
105366,control_change,6,0,0,,,,,,,,0,64,0,,
105380,note_on,14,0,0,,,,,,,,0,,,72,0
105380,note_on,0,0,0,,,,,,,,0,,,64,0
105403,control_change,23,0,0,,,,,,,,0,64,127,,
105440,note_on,37,0,0,,,,,,,,0,,,60,0
105440,note_on,0,0,0,,,,,,,,0,,,48,0
105440,note_on,0,0,0,,,,,,,,0,,,59,80
105440,note_on,0,0,0,,,,,,,,0,,,47,72
105520,note_on,80,0,0,,,,,,,,0,,,47,0
105520,note_on,0,0,0,,,,,,,,0,,,59,0
105520,note_on,0,0,0,,,,,,,,0,,,57,77
105520,note_on,0,0,0,,,,,,,,0,,,45,69
105600,set_tempo,80,1,0,,,,,,641711,,,,,,
105600,note_on,0,0,0,,,,,,,,0,,,45,0
105600,note_on,0,0,0,,,,,,,,0,,,57,0
105600,note_on,0,0,0,,,,,,,,0,,,56,81
105600,note_on,0,0,0,,,,,,,,0,,,44,74
105601,control_change,1,0,0,,,,,,,,0,64,0,,
105603,note_on,2,0,0,,,,,,,,0,,,32,74
105680,control_change,77,0,0,,,,,,,,0,64,127,,
105720,note_on,40,0,0,,,,,,,,0,,,44,0
105720,note_on,0,0,0,,,,,,,,0,,,56,0
105723,note_on,3,0,0,,,,,,,,0,,,32,0
105840,set_tempo,117,1,0,,,,,,542986,,,,,,
105840,note_on,0,0,0,,,,,,,,0,,,87,80
105840,note_on,0,0,0,,,,,,,,0,,,80,67
105960,set_tempo,120,1,0,,,,,,568720,,,,,,
105960,note_on,0,0,0,,,,,,,,0,,,83,79
105960,note_on,0,0,0,,,,,,,,0,,,75,65
105980,note_on,20,0,0,,,,,,,,0,,,80,0
105980,note_on,0,0,0,,,,,,,,0,,,87,0
106080,set_tempo,100,1,0,,,,,,560748,,,,,,
106080,note_on,0,0,0,,,,,,,,0,,,76,70
106080,note_on,0,0,0,,,,,,,,0,,,68,59
106100,note_on,20,0,0,,,,,,,,0,,,83,0
106100,note_on,0,0,0,,,,,,,,0,,,75,0
106200,set_tempo,100,1,0,,,,,,670391,,,,,,
106200,note_on,0,0,0,,,,,,,,0,,,71,68
106200,note_on,0,0,0,,,,,,,,0,,,64,57
106220,note_on,20,0,0,,,,,,,,0,,,76,0
106220,note_on,0,0,0,,,,,,,,0,,,68,0
106320,set_tempo,100,1,0,,,,,,574163,,,,,,
106320,note_on,0,0,0,,,,,,,,0,,,52,66
106320,note_on,0,0,0,,,,,,,,0,,,40,64
106323,control_change,3,0,0,,,,,,,,0,64,0,,
106340,note_on,17,0,0,,,,,,,,0,,,71,0
106340,note_on,0,0,0,,,,,,,,0,,,64,0
106386,control_change,46,0,0,,,,,,,,0,64,127,,
106400,note_on,14,0,0,,,,,,,,0,,,52,0
106400,note_on,0,0,0,,,,,,,,0,,,40,0
106400,note_on,0,0,0,,,,,,,,0,,,54,72
106400,note_on,0,0,0,,,,,,,,0,,,42,69
106440,set_tempo,40,1,0,,,,,,568720,,,,,,
106480,note_on,40,0,0,,,,,,,,0,,,42,0
106480,note_on,0,0,0,,,,,,,,0,,,54,0
106480,note_on,0,0,0,,,,,,,,0,,,56,77
106480,note_on,0,0,0,,,,,,,,0,,,44,72
106560,set_tempo,80,1,0,,,,,,615385,,,,,,
106560,note_on,0,0,0,,,,,,,,0,,,44,0
106560,note_on,0,0,0,,,,,,,,0,,,56,0
106560,note_on,0,0,0,,,,,,,,0,,,57,83
106560,note_on,0,0,0,,,,,,,,0,,,33,75
106560,note_on,0,0,0,,,,,,,,0,,,45,75
106566,control_change,6,0,0,,,,,,,,0,64,0,,
106640,control_change,74,0,0,,,,,,,,0,64,127,,
106680,note_on,40,0,0,,,,,,,,0,,,45,0
106680,note_on,0,0,0,,,,,,,,0,,,33,0
106680,note_on,0,0,0,,,,,,,,0,,,57,0
106800,set_tempo,120,1,0,,,,,,579710,,,,,,
106800,note_on,0,0,0,,,,,,,,0,,,89,80
106800,note_on,0,0,0,,,,,,,,0,,,81,67
106920,set_tempo,120,1,0,,,,,,591133,,,,,,
106920,note_on,0,0,0,,,,,,,,0,,,84,79
106920,note_on,0,0,0,,,,,,,,0,,,77,65
106940,note_on,20,0,0,,,,,,,,0,,,81,0
106940,note_on,0,0,0,,,,,,,,0,,,89,0
107040,set_tempo,100,1,0,,,,,,560748,,,,,,
107040,note_on,0,0,0,,,,,,,,0,,,76,70
107040,note_on,0,0,0,,,,,,,,0,,,69,59
107060,note_on,20,0,0,,,,,,,,0,,,84,0
107060,note_on,0,0,0,,,,,,,,0,,,77,0
107160,set_tempo,100,1,0,,,,,,674157,,,,,,
107160,note_on,0,0,0,,,,,,,,0,,,72,68
107160,note_on,0,0,0,,,,,,,,0,,,64,57
107180,note_on,20,0,0,,,,,,,,0,,,76,0
107180,note_on,0,0,0,,,,,,,,0,,,69,0
107280,set_tempo,100,1,0,,,,,,576923,,,,,,
107280,note_on,0,0,0,,,,,,,,0,,,60,77
107280,note_on,0,0,0,,,,,,,,0,,,48,77
107287,control_change,7,0,0,,,,,,,,0,64,0,,
107300,note_on,13,0,0,,,,,,,,0,,,72,0
107300,note_on,0,0,0,,,,,,,,0,,,64,0
107323,control_change,23,0,0,,,,,,,,0,64,127,,
107360,note_on,37,0,0,,,,,,,,0,,,60,0
107360,note_on,0,0,0,,,,,,,,0,,,48,0
107360,note_on,0,0,0,,,,,,,,0,,,59,76
107360,note_on,0,0,0,,,,,,,,0,,,47,75
107440,note_on,80,0,0,,,,,,,,0,,,47,0
107440,note_on,0,0,0,,,,,,,,0,,,59,0
107440,note_on,0,0,0,,,,,,,,0,,,57,74
107440,note_on,0,0,0,,,,,,,,0,,,45,72
107520,set_tempo,80,1,0,,,,,,606061,,,,,,
107520,note_on,0,0,0,,,,,,,,0,,,45,0
107520,note_on,0,0,0,,,,,,,,0,,,57,0
107520,note_on,0,0,0,,,,,,,,0,,,56,73
107520,note_on,0,0,0,,,,,,,,0,,,44,73
107524,note_on,4,0,0,,,,,,,,0,,,32,73
107527,control_change,3,0,0,,,,,,,,0,64,0,,
107600,control_change,73,0,0,,,,,,,,0,64,127,,
107640,note_on,40,0,0,,,,,,,,0,,,44,0
107640,note_on,0,0,0,,,,,,,,0,,,56,0
107644,note_on,4,0,0,,,,,,,,0,,,32,0
107760,set_tempo,116,1,0,,,,,,563380,,,,,,
107760,note_on,0,0,0,,,,,,,,0,,,87,80
107760,note_on,0,0,0,,,,,,,,0,,,80,67
107880,set_tempo,120,1,0,,,,,,591133,,,,,,
107880,note_on,0,0,0,,,,,,,,0,,,83,79
107880,note_on,0,0,0,,,,,,,,0,,,75,65
107900,note_on,20,0,0,,,,,,,,0,,,80,0
107900,note_on,0,0,0,,,,,,,,0,,,87,0
108000,set_tempo,100,1,0,,,,,,538117,,,,,,
108000,note_on,0,0,0,,,,,,,,0,,,76,70
108000,note_on,0,0,0,,,,,,,,0,,,68,59
108020,note_on,20,0,0,,,,,,,,0,,,83,0
108020,note_on,0,0,0,,,,,,,,0,,,75,0
108120,set_tempo,100,1,0,,,,,,563380,,,,,,
108120,note_on,0,0,0,,,,,,,,0,,,71,68
108120,note_on,0,0,0,,,,,,,,0,,,64,57
108140,note_on,20,0,0,,,,,,,,0,,,76,0
108140,note_on,0,0,0,,,,,,,,0,,,68,0
108240,set_tempo,100,1,0,,,,,,1176471,,,,,,
108243,control_change,3,0,0,,,,,,,,0,64,0,,
108260,note_on,17,0,0,,,,,,,,0,,,71,0
108260,note_on,0,0,0,,,,,,,,0,,,64,0
108300,set_tempo,40,1,0,,,,,,582524,,,,,,
108300,note_on,0,0,0,,,,,,,,0,,,57,42
108300,note_on,0,0,0,,,,,,,,0,,,45,37
108360,note_on,60,0,0,,,,,,,,0,,,45,0
108360,note_on,0,0,0,,,,,,,,0,,,57,0
108360,note_on,0,0,0,,,,,,,,0,,,59,44
108360,note_on,0,0,0,,,,,,,,0,,,47,40
108420,note_on,60,0,0,,,,,,,,0,,,47,0
108420,note_on,0,0,0,,,,,,,,0,,,59,0
108420,note_on,0,0,0,,,,,,,,0,,,60,45
108420,note_on,0,0,0,,,,,,,,0,,,48,43
108480,set_tempo,60,1,0,,,,,,655738,,,,,,
108480,note_on,0,0,0,,,,,,,,0,,,48,0
108480,note_on,0,0,0,,,,,,,,0,,,60,0
108480,note_on,0,0,0,,,,,,,,0,,,61,47
108480,note_on,0,0,0,,,,,,,,0,,,37,38
108480,note_on,0,0,0,,,,,,,,0,,,49,45
108547,control_change,67,0,0,,,,,,,,0,64,127,,
108600,note_on,53,0,0,,,,,,,,0,,,49,0
108600,note_on,0,0,0,,,,,,,,0,,,37,0
108600,note_on,0,0,0,,,,,,,,0,,,61,0
108720,set_tempo,120,1,0,,,,,,563380,,,,,,
108720,note_on,0,0,0,,,,,,,,0,,,94,51
108720,note_on,0,0,0,,,,,,,,0,,,88,43
108840,set_tempo,120,1,0,,,,,,591133,,,,,,
108840,note_on,0,0,0,,,,,,,,0,,,91,50
108840,note_on,0,0,0,,,,,,,,0,,,82,42
108860,note_on,20,0,0,,,,,,,,0,,,88,0
108860,note_on,0,0,0,,,,,,,,0,,,94,0
108960,set_tempo,100,1,0,,,,,,560748,,,,,,
108960,note_on,0,0,0,,,,,,,,0,,,81,45
108960,note_on,0,0,0,,,,,,,,0,,,76,37
108980,note_on,20,0,0,,,,,,,,0,,,91,0
108980,note_on,0,0,0,,,,,,,,0,,,82,0
109080,set_tempo,100,1,0,,,,,,670391,,,,,,
109080,note_on,0,0,0,,,,,,,,0,,,79,44
109080,note_on,0,0,0,,,,,,,,0,,,69,36
109100,note_on,20,0,0,,,,,,,,0,,,81,0
109100,note_on,0,0,0,,,,,,,,0,,,76,0
109200,set_tempo,100,1,0,,,,,,579710,,,,,,
109200,note_on,0,0,0,,,,,,,,0,,,57,46
109200,note_on,0,0,0,,,,,,,,0,,,45,48
109204,control_change,4,0,0,,,,,,,,0,64,0,,
109220,note_on,16,0,0,,,,,,,,0,,,79,0
109220,note_on,0,0,0,,,,,,,,0,,,69,0
109280,note_on,60,0,0,,,,,,,,0,,,57,0
109280,note_on,0,0,0,,,,,,,,0,,,45,0
109280,note_on,0,0,0,,,,,,,,0,,,59,50
109280,note_on,0,0,0,,,,,,,,0,,,47,50
109360,note_on,80,0,0,,,,,,,,0,,,47,0
109360,note_on,0,0,0,,,,,,,,0,,,59,0
109360,note_on,0,0,0,,,,,,,,0,,,61,52
109360,note_on,0,0,0,,,,,,,,0,,,49,52
109440,set_tempo,80,1,0,,,,,,641711,,,,,,
109440,note_on,0,0,0,,,,,,,,0,,,49,0
109440,note_on,0,0,0,,,,,,,,0,,,61,0
109440,note_on,0,0,0,,,,,,,,0,,,62,55
109440,note_on,0,0,0,,,,,,,,0,,,38,47
109440,note_on,0,0,0,,,,,,,,0,,,50,54
109520,control_change,80,0,0,,,,,,,,0,64,127,,
109560,note_on,40,0,0,,,,,,,,0,,,50,0
109560,note_on,0,0,0,,,,,,,,0,,,38,0
109560,note_on,0,0,0,,,,,,,,0,,,62,0
109680,set_tempo,120,1,0,,,,,,542986,,,,,,
109680,note_on,0,0,0,,,,,,,,0,,,88,59
109680,note_on,0,0,0,,,,,,,,0,,,81,50
109800,set_tempo,120,1,0,,,,,,563380,,,,,,
109800,note_on,0,0,0,,,,,,,,0,,,86,58
109800,note_on,0,0,0,,,,,,,,0,,,76,49
109820,note_on,20,0,0,,,,,,,,0,,,81,0
109820,note_on,0,0,0,,,,,,,,0,,,88,0
109920,set_tempo,100,1,0,,,,,,560748,,,,,,
109920,note_on,0,0,0,,,,,,,,0,,,77,52
109920,note_on,0,0,0,,,,,,,,0,,,69,43
109940,note_on,20,0,0,,,,,,,,0,,,86,0
109940,note_on,0,0,0,,,,,,,,0,,,76,0
110040,set_tempo,100,1,0,,,,,,666667,,,,,,
110040,note_on,0,0,0,,,,,,,,0,,,74,51
110040,note_on,0,0,0,,,,,,,,0,,,65,42
110060,note_on,20,0,0,,,,,,,,0,,,77,0
110060,note_on,0,0,0,,,,,,,,0,,,69,0
110160,set_tempo,100,1,0,,,,,,574163,,,,,,
110160,note_on,0,0,0,,,,,,,,0,,,64,51
110160,note_on,0,0,0,,,,,,,,0,,,52,45
110163,control_change,3,0,0,,,,,,,,0,64,0,,
110180,note_on,17,0,0,,,,,,,,0,,,74,0
110180,note_on,0,0,0,,,,,,,,0,,,65,0
110240,note_on,60,0,0,,,,,,,,0,,,64,0
110240,note_on,0,0,0,,,,,,,,0,,,52,0
110240,note_on,0,0,0,,,,,,,,0,,,62,53
110240,note_on,0,0,0,,,,,,,,0,,,50,48
110280,set_tempo,40,1,0,,,,,,568720,,,,,,
110320,note_on,40,0,0,,,,,,,,0,,,50,0
110320,note_on,0,0,0,,,,,,,,0,,,62,0
110320,note_on,0,0,0,,,,,,,,0,,,60,54
110320,note_on,0,0,0,,,,,,,,0,,,48,52
110400,set_tempo,80,1,0,,,,,,655738,,,,,,
110400,note_on,0,0,0,,,,,,,,0,,,48,0
110400,note_on,0,0,0,,,,,,,,0,,,60,0
110400,note_on,0,0,0,,,,,,,,0,,,59,57
110400,note_on,0,0,0,,,,,,,,0,,,35,51
110400,note_on,0,0,0,,,,,,,,0,,,47,54
110471,control_change,71,0,0,,,,,,,,0,64,127,,
110520,note_on,49,0,0,,,,,,,,0,,,47,0
110520,note_on,0,0,0,,,,,,,,0,,,35,0
110520,note_on,0,0,0,,,,,,,,0,,,59,0
110640,set_tempo,120,1,0,,,,,,563380,,,,,,
110640,note_on,0,0,0,,,,,,,,0,,,92,63
110640,note_on,0,0,0,,,,,,,,0,,,86,52
110760,set_tempo,120,1,0,,,,,,591133,,,,,,
110760,note_on,0,0,0,,,,,,,,0,,,89,62
110760,note_on,0,0,0,,,,,,,,0,,,80,51
110780,note_on,20,0,0,,,,,,,,0,,,86,0
110780,note_on,0,0,0,,,,,,,,0,,,92,0
110880,set_tempo,100,1,0,,,,,,574163,,,,,,
110880,note_on,0,0,0,,,,,,,,0,,,79,54
110880,note_on,0,0,0,,,,,,,,0,,,74,46
110900,note_on,20,0,0,,,,,,,,0,,,89,0
110900,note_on,0,0,0,,,,,,,,0,,,80,0
111000,set_tempo,100,1,0,,,,,,666667,,,,,,
111000,note_on,0,0,0,,,,,,,,0,,,77,54
111000,note_on,0,0,0,,,,,,,,0,,,67,45
111020,note_on,20,0,0,,,,,,,,0,,,79,0
111020,note_on,0,0,0,,,,,,,,0,,,74,0
111120,set_tempo,100,1,0,,,,,,579710,,,,,,
111120,note_on,0,0,0,,,,,,,,0,,,55,66
111120,note_on,0,0,0,,,,,,,,0,,,43,63
111124,control_change,4,0,0,,,,,,,,0,64,0,,
111140,note_on,16,0,0,,,,,,,,0,,,77,0
111140,note_on,0,0,0,,,,,,,,0,,,67,0
111200,note_on,60,0,0,,,,,,,,0,,,55,0
111200,note_on,0,0,0,,,,,,,,0,,,43,0
111200,note_on,0,0,0,,,,,,,,0,,,57,70
111200,note_on,0,0,0,,,,,,,,0,,,45,65
111280,note_on,80,0,0,,,,,,,,0,,,45,0
111280,note_on,0,0,0,,,,,,,,0,,,57,0
111280,note_on,0,0,0,,,,,,,,0,,,59,73
111280,note_on,0,0,0,,,,,,,,0,,,47,67
111360,set_tempo,80,1,0,,,,,,628272,,,,,,
111360,note_on,0,0,0,,,,,,,,0,,,47,0
111360,note_on,0,0,0,,,,,,,,0,,,59,0
111360,note_on,0,0,0,,,,,,,,0,,,60,76
111360,note_on,0,0,0,,,,,,,,0,,,36,58
111360,note_on,0,0,0,,,,,,,,0,,,48,69
111423,control_change,63,0,0,,,,,,,,0,64,127,,
111480,note_on,57,0,0,,,,,,,,0,,,48,0
111480,note_on,0,0,0,,,,,,,,0,,,36,0
111480,note_on,0,0,0,,,,,,,,0,,,60,0
111600,set_tempo,120,1,0,,,,,,563380,,,,,,
111600,note_on,0,0,0,,,,,,,,0,,,87,72
111600,note_on,0,0,0,,,,,,,,0,,,79,61
111720,set_tempo,120,1,0,,,,,,591133,,,,,,
111720,note_on,0,0,0,,,,,,,,0,,,84,71
111720,note_on,0,0,0,,,,,,,,0,,,75,60
111740,note_on,20,0,0,,,,,,,,0,,,79,0
111740,note_on,0,0,0,,,,,,,,0,,,87,0
111840,set_tempo,100,1,0,,,,,,560748,,,,,,
111840,note_on,0,0,0,,,,,,,,0,,,76,63
111840,note_on,0,0,0,,,,,,,,0,,,67,53
111860,note_on,20,0,0,,,,,,,,0,,,84,0
111860,note_on,0,0,0,,,,,,,,0,,,75,0
111960,set_tempo,100,1,0,,,,,,666667,,,,,,
111960,note_on,0,0,0,,,,,,,,0,,,72,62
111960,note_on,0,0,0,,,,,,,,0,,,64,52
111980,note_on,20,0,0,,,,,,,,0,,,76,0
111980,note_on,0,0,0,,,,,,,,0,,,67,0
112080,set_tempo,100,1,0,,,,,,579710,,,,,,
112080,note_on,0,0,0,,,,,,,,0,,,59,70
112080,note_on,0,0,0,,,,,,,,0,,,47,67
112085,control_change,5,0,0,,,,,,,,0,64,0,,
112100,note_on,15,0,0,,,,,,,,0,,,72,0
112100,note_on,0,0,0,,,,,,,,0,,,64,0
112160,note_on,60,0,0,,,,,,,,0,,,59,0
112160,note_on,0,0,0,,,,,,,,0,,,47,0
112160,note_on,0,0,0,,,,,,,,0,,,60,72
112160,note_on,0,0,0,,,,,,,,0,,,48,70
112240,note_on,80,0,0,,,,,,,,0,,,48,0
112240,note_on,0,0,0,,,,,,,,0,,,60,0
112240,note_on,0,0,0,,,,,,,,0,,,61,74
112240,note_on,0,0,0,,,,,,,,0,,,49,73
112320,set_tempo,80,1,0,,,,,,655738,,,,,,
112320,note_on,0,0,0,,,,,,,,0,,,49,0
112320,note_on,0,0,0,,,,,,,,0,,,61,0
112320,note_on,0,0,0,,,,,,,,0,,,62,77
112320,note_on,0,0,0,,,,,,,,0,,,38,64
112320,note_on,0,0,0,,,,,,,,0,,,50,76
112375,control_change,55,0,0,,,,,,,,0,64,127,,
112440,note_on,65,0,0,,,,,,,,0,,,50,0
112440,note_on,0,0,0,,,,,,,,0,,,38,0
112440,note_on,0,0,0,,,,,,,,0,,,62,0
112560,set_tempo,120,1,0,,,,,,535714,,,,,,
112560,note_on,0,0,0,,,,,,,,0,,,95,77
112560,note_on,0,0,0,,,,,,,,0,,,86,64
112680,set_tempo,120,1,0,,,,,,621762,,,,,,
112680,note_on,0,0,0,,,,,,,,0,,,89,76
112680,note_on,0,0,0,,,,,,,,0,,,83,63
112700,note_on,20,0,0,,,,,,,,0,,,86,0
112700,note_on,0,0,0,,,,,,,,0,,,95,0
112800,set_tempo,100,1,0,,,,,,560748,,,,,,
112800,note_on,0,0,0,,,,,,,,0,,,82,66
112800,note_on,0,0,0,,,,,,,,0,,,74,56
112820,note_on,20,0,0,,,,,,,,0,,,89,0
112820,note_on,0,0,0,,,,,,,,0,,,83,0
112920,set_tempo,100,1,0,,,,,,670391,,,,,,
112920,note_on,0,0,0,,,,,,,,0,,,77,65
112920,note_on,0,0,0,,,,,,,,0,,,70,54
112940,note_on,20,0,0,,,,,,,,0,,,82,0
112940,note_on,0,0,0,,,,,,,,0,,,74,0
113040,set_tempo,100,1,0,,,,,,579710,,,,,,
113040,note_on,0,0,0,,,,,,,,0,,,58,74
113040,note_on,0,0,0,,,,,,,,0,,,46,71
113047,control_change,7,0,0,,,,,,,,0,64,0,,
113060,note_on,13,0,0,,,,,,,,0,,,77,0
113060,note_on,0,0,0,,,,,,,,0,,,70,0
113120,note_on,60,0,0,,,,,,,,0,,,58,0
113120,note_on,0,0,0,,,,,,,,0,,,46,0
113120,note_on,0,0,0,,,,,,,,0,,,60,78
113120,note_on,0,0,0,,,,,,,,0,,,48,74
113200,note_on,80,0,0,,,,,,,,0,,,48,0
113200,note_on,0,0,0,,,,,,,,0,,,60,0
113200,note_on,0,0,0,,,,,,,,0,,,62,81
113200,note_on,0,0,0,,,,,,,,0,,,50,78
113280,set_tempo,80,1,0,,,,,,655738,,,,,,
113280,note_on,0,0,0,,,,,,,,0,,,50,0
113280,note_on,0,0,0,,,,,,,,0,,,62,0
113280,note_on,0,0,0,,,,,,,,0,,,64,84
113280,note_on,0,0,0,,,,,,,,0,,,40,69
113280,note_on,0,0,0,,,,,,,,0,,,52,81
113343,control_change,63,0,0,,,,,,,,0,64,127,,
113400,note_on,57,0,0,,,,,,,,0,,,52,0
113400,note_on,0,0,0,,,,,,,,0,,,40,0
113400,note_on,0,0,0,,,,,,,,0,,,64,0
113520,set_tempo,120,1,0,,,,,,563380,,,,,,
113520,note_on,0,0,0,,,,,,,,0,,,92,84
113520,note_on,0,0,0,,,,,,,,0,,,83,71
113640,set_tempo,120,1,0,,,,,,591133,,,,,,
113640,note_on,0,0,0,,,,,,,,0,,,86,83
113640,note_on,0,0,0,,,,,,,,0,,,80,70
113660,note_on,20,0,0,,,,,,,,0,,,83,0
113660,note_on,0,0,0,,,,,,,,0,,,92,0
113760,set_tempo,100,1,0,,,,,,560748,,,,,,
113760,note_on,0,0,0,,,,,,,,0,,,81,73
113760,note_on,0,0,0,,,,,,,,0,,,72,63
113780,note_on,20,0,0,,,,,,,,0,,,86,0
113780,note_on,0,0,0,,,,,,,,0,,,80,0
113880,set_tempo,100,1,0,,,,,,666667,,,,,,
113880,note_on,0,0,0,,,,,,,,0,,,76,72
113880,note_on,0,0,0,,,,,,,,0,,,69,61
113900,note_on,20,0,0,,,,,,,,0,,,81,0
113900,note_on,0,0,0,,,,,,,,0,,,72,0
113996,control_change,96,0,0,,,,,,,,0,64,0,,
114000,set_tempo,4,1,0,,,,,,579710,,,,,,
114000,note_on,0,0,0,,,,,,,,0,,,65,78
114000,note_on,0,0,0,,,,,,,,0,,,53,76
114020,note_on,20,0,0,,,,,,,,0,,,76,0
114020,note_on,0,0,0,,,,,,,,0,,,69,0
114080,note_on,60,0,0,,,,,,,,0,,,65,0
114080,note_on,0,0,0,,,,,,,,0,,,53,0
114080,note_on,0,0,0,,,,,,,,0,,,64,81
114080,note_on,0,0,0,,,,,,,,0,,,52,79
114160,note_on,80,0,0,,,,,,,,0,,,52,0
114160,note_on,0,0,0,,,,,,,,0,,,64,0
114160,note_on,0,0,0,,,,,,,,0,,,63,84
114160,note_on,0,0,0,,,,,,,,0,,,51,81
114240,set_tempo,80,1,0,,,,,,655738,,,,,,
114240,note_on,0,0,0,,,,,,,,0,,,51,0
114240,note_on,0,0,0,,,,,,,,0,,,63,0
114240,note_on,0,0,0,,,,,,,,0,,,62,87
114240,note_on,0,0,0,,,,,,,,0,,,38,71
114240,note_on,0,0,0,,,,,,,,0,,,50,83
114307,control_change,67,0,0,,,,,,,,0,64,127,,
114360,note_on,53,0,0,,,,,,,,0,,,50,0
114360,note_on,0,0,0,,,,,,,,0,,,38,0
114360,note_on,0,0,0,,,,,,,,0,,,62,0
114480,set_tempo,120,1,0,,,,,,563380,,,,,,
114480,note_on,0,0,0,,,,,,,,0,,,89,84
114480,note_on,0,0,0,,,,,,,,0,,,81,84
114480,note_on,0,0,0,,,,,,,,0,,,47,69
114560,note_on,80,0,0,,,,,,,,0,,,47,0
114560,note_on,0,0,0,,,,,,,,0,,,48,71
114600,set_tempo,40,1,0,,,,,,591133,,,,,,
114600,note_on,0,0,0,,,,,,,,0,,,83,81
114600,note_on,0,0,0,,,,,,,,0,,,77,81
114620,note_on,20,0,0,,,,,,,,0,,,81,0
114620,note_on,0,0,0,,,,,,,,0,,,89,0
114640,note_on,20,0,0,,,,,,,,0,,,48,0
114640,note_on,0,0,0,,,,,,,,0,,,50,73
114720,set_tempo,80,1,0,,,,,,612245,,,,,,
114720,note_on,0,0,0,,,,,,,,0,,,50,0
114720,note_on,0,0,0,,,,,,,,0,,,68,79
114720,note_on,0,0,0,,,,,,,,0,,,76,79
114720,note_on,0,0,0,,,,,,,,0,,,52,72
114720,note_on,0,0,0,,,,,,,,0,,,40,69
114740,note_on,20,0,0,,,,,,,,0,,,83,0
114740,note_on,0,0,0,,,,,,,,0,,,77,0
114840,note_on,100,0,0,,,,,,,,0,,,52,0
114840,note_on,0,0,0,,,,,,,,0,,,40,0
114840,note_on,0,0,0,,,,,,,,0,,,64,76
114840,note_on,0,0,0,,,,,,,,0,,,71,76
114860,note_on,20,0,0,,,,,,,,0,,,76,0
114860,note_on,0,0,0,,,,,,,,0,,,68,0
114956,control_change,96,0,0,,,,,,,,0,64,0,,
114960,set_tempo,4,1,0,,,,,,655738,,,,,,
114960,note_on,0,0,0,,,,,,,,0,,,62,73
114960,note_on,0,0,0,,,,,,,,0,,,50,69
114980,note_on,20,0,0,,,,,,,,0,,,64,0
114980,note_on,0,0,0,,,,,,,,0,,,71,0
115000,set_tempo,20,1,0,,,,,,659341,,,,,,
115020,set_tempo,20,1,0,,,,,,662983,,,,,,
115040,set_tempo,20,1,0,,,,,,666667,,,,,,
115040,note_on,0,0,0,,,,,,,,0,,,62,0
115040,note_on,0,0,0,,,,,,,,0,,,50,0
115040,note_on,0,0,0,,,,,,,,0,,,60,77
115040,note_on,0,0,0,,,,,,,,0,,,48,77
115060,set_tempo,20,1,0,,,,,,670391,,,,,,
115080,set_tempo,20,1,0,,,,,,674157,,,,,,
115100,set_tempo,20,1,0,,,,,,677966,,,,,,
115120,set_tempo,20,1,0,,,,,,681818,,,,,,
115120,note_on,0,0,0,,,,,,,,0,,,48,0
115120,note_on,0,0,0,,,,,,,,0,,,60,0
115120,note_on,0,0,0,,,,,,,,0,,,59,81
115120,note_on,0,0,0,,,,,,,,0,,,47,81
115140,set_tempo,20,1,0,,,,,,685714,,,,,,
115160,set_tempo,20,1,0,,,,,,689655,,,,,,
115180,set_tempo,20,1,0,,,,,,693642,,,,,,
115200,set_tempo,20,1,0,,,,,,674157,,,,,,
115200,note_on,0,0,0,,,,,,,,0,,,47,0
115200,note_on,0,0,0,,,,,,,,0,,,59,0
115200,note_on,0,0,0,,,,,,,,0,,,57,87
115200,note_on,0,0,0,,,,,,,,0,,,33,83
115200,note_on,0,0,0,,,,,,,,0,,,45,83
115292,control_change,92,0,0,,,,,,,,0,64,127,,
115320,note_on,28,0,0,,,,,,,,0,,,45,0
115320,note_on,0,0,0,,,,,,,,0,,,33,0
115320,note_on,0,0,0,,,,,,,,0,,,57,0
115440,set_tempo,120,1,0,,,,,,714371,,,,,,
115440,note_on,0,0,0,,,,,,,,0,,,96,95
115440,note_on,0,0,0,,,,,,,,0,,,88,80
115440,note_on,0,0,0,,,,,,,,0,,,64,70
115440,note_on,0,0,0,,,,,,,,0,,,72,79
115560,set_tempo,120,1,0,,,,,,740832,,,,,,
115560,note_on,0,0,0,,,,,,,,0,,,72,0
115560,note_on,0,0,0,,,,,,,,0,,,64,0
115560,note_on,0,0,0,,,,,,,,0,,,84,92
115580,note_on,20,0,0,,,,,,,,0,,,88,0
115580,note_on,0,0,0,,,,,,,,0,,,96,0
115680,note_on,100,0,0,,,,,,,,0,,,88,80
115680,note_on,0,0,0,,,,,,,,0,,,93,95
115680,note_on,0,0,0,,,,,,,,0,,,60,68
115680,note_on,0,0,0,,,,,,,,0,,,69,79
115700,note_on,20,0,0,,,,,,,,0,,,84,0
115800,note_on,100,0,0,,,,,,,,0,,,60,0
115800,note_on,0,0,0,,,,,,,,0,,,69,0
115800,note_on,0,0,0,,,,,,,,0,,,81,92
115820,note_on,20,0,0,,,,,,,,0,,,93,0
115820,note_on,0,0,0,,,,,,,,0,,,88,0
115881,control_change,61,0,0,,,,,,,,0,64,0,,
115940,note_on,59,0,0,,,,,,,,0,,,81,0
116140,set_tempo,200,1,0,,,,,,585366,,,,,,
116160,marker,20,1,0,,,,,,,,,,,,
116160,note_on,0,0,0,,,,,,,,0,,,100,94
116160,note_on,0,0,0,,,,,,,,0,,,96,80
116160,note_on,0,0,0,,,,,,,,0,,,88,80
116160,note_on,0,0,0,,,,,,,,0,,,33,54
116160,note_on,0,0,0,,,,,,,,0,,,36,63
116220,set_tempo,60,1,0,,,,,,582524,,,,,,
116250,note_on,30,0,0,,,,,,,,0,,,36,0
116250,note_on,0,0,0,,,,,,,,0,,,33,0
116280,set_tempo,30,1,0,,,,,,579710,,,,,,
116280,note_on,0,0,0,,,,,,,,0,,,35,47
116280,note_on,0,0,0,,,,,,,,0,,,38,56
116340,set_tempo,60,1,0,,,,,,576923,,,,,,
116370,note_on,30,0,0,,,,,,,,0,,,38,0
116370,note_on,0,0,0,,,,,,,,0,,,35,0
116400,set_tempo,30,1,0,,,,,,574163,,,,,,
116400,note_on,0,0,0,,,,,,,,0,,,36,54
116400,note_on,0,0,0,,,,,,,,0,,,40,64
116460,set_tempo,60,1,0,,,,,,571429,,,,,,
116490,note_on,30,0,0,,,,,,,,0,,,40,0
116490,note_on,0,0,0,,,,,,,,0,,,36,0
116520,set_tempo,30,1,0,,,,,,568720,,,,,,
116520,note_on,0,0,0,,,,,,,,0,,,38,50
116520,note_on,0,0,0,,,,,,,,0,,,41,59
116580,set_tempo,60,1,0,,,,,,566038,,,,,,
116610,note_on,30,0,0,,,,,,,,0,,,41,0
116610,note_on,0,0,0,,,,,,,,0,,,38,0
116640,set_tempo,30,1,0,,,,,,563380,,,,,,
116640,note_on,0,0,0,,,,,,,,0,,,40,55
116640,note_on,0,0,0,,,,,,,,0,,,44,66
116730,note_on,90,0,0,,,,,,,,0,,,44,0
116730,note_on,0,0,0,,,,,,,,0,,,40,0
116760,note_on,30,0,0,,,,,,,,0,,,41,52
116760,note_on,0,0,0,,,,,,,,0,,,45,61
116850,note_on,90,0,0,,,,,,,,0,,,45,0
116850,note_on,0,0,0,,,,,,,,0,,,41,0
116880,note_on,30,0,0,,,,,,,,0,,,88,0
116880,note_on,0,0,0,,,,,,,,0,,,96,0
116880,note_on,0,0,0,,,,,,,,0,,,100,0
116880,note_on,0,0,0,,,,,,,,0,,,98,71
116880,note_on,0,0,0,,,,,,,,0,,,95,59
116880,note_on,0,0,0,,,,,,,,0,,,86,59
116880,note_on,0,0,0,,,,,,,,0,,,44,50
116880,note_on,0,0,0,,,,,,,,0,,,47,60
116970,note_on,90,0,0,,,,,,,,0,,,47,0
116970,note_on,0,0,0,,,,,,,,0,,,86,0
116970,note_on,0,0,0,,,,,,,,0,,,98,0
116970,note_on,0,0,0,,,,,,,,0,,,95,0
116970,note_on,0,0,0,,,,,,,,0,,,44,0
117000,note_on,30,0,0,,,,,,,,0,,,84,59
117000,note_on,0,0,0,,,,,,,,0,,,93,59
117000,note_on,0,0,0,,,,,,,,0,,,96,71
117000,note_on,0,0,0,,,,,,,,0,,,45,47
117000,note_on,0,0,0,,,,,,,,0,,,48,55
117090,note_on,90,0,0,,,,,,,,0,,,48,0
117090,note_on,0,0,0,,,,,,,,0,,,96,0
117090,note_on,0,0,0,,,,,,,,0,,,84,0
117090,note_on,0,0,0,,,,,,,,0,,,93,0
117090,note_on,0,0,0,,,,,,,,0,,,45,0
117120,set_tempo,30,1,0,,,,,,540541,,,,,,
117120,note_on,0,0,0,,,,,,,,0,,,95,78
117120,note_on,0,0,0,,,,,,,,0,,,92,78
117120,note_on,0,0,0,,,,,,,,0,,,83,65
117120,note_on,0,0,0,,,,,,,,0,,,47,53
117120,note_on,0,0,0,,,,,,,,0,,,50,63
117210,note_on,90,0,0,,,,,,,,0,,,50,0
117210,note_on,0,0,0,,,,,,,,0,,,83,0
117210,note_on,0,0,0,,,,,,,,0,,,95,0
117210,note_on,0,0,0,,,,,,,,0,,,92,0
117210,note_on,0,0,0,,,,,,,,0,,,47,0
117240,note_on,30,0,0,,,,,,,,0,,,81,59
117240,note_on,0,0,0,,,,,,,,0,,,89,59
117240,note_on,0,0,0,,,,,,,,0,,,93,71
117240,note_on,0,0,0,,,,,,,,0,,,48,48
117240,note_on,0,0,0,,,,,,,,0,,,52,56
117330,note_on,90,0,0,,,,,,,,0,,,52,0
117330,note_on,0,0,0,,,,,,,,0,,,93,0
117330,note_on,0,0,0,,,,,,,,0,,,81,0
117330,note_on,0,0,0,,,,,,,,0,,,89,0
117330,note_on,0,0,0,,,,,,,,0,,,48,0
117360,note_on,30,0,0,,,,,,,,0,,,80,63
117360,note_on,0,0,0,,,,,,,,0,,,88,63
117360,note_on,0,0,0,,,,,,,,0,,,92,73
117360,note_on,0,0,0,,,,,,,,0,,,50,53
117360,note_on,0,0,0,,,,,,,,0,,,53,63
117450,note_on,90,0,0,,,,,,,,0,,,53,0
117450,note_on,0,0,0,,,,,,,,0,,,92,0
117450,note_on,0,0,0,,,,,,,,0,,,80,0
117450,note_on,0,0,0,,,,,,,,0,,,88,0
117450,note_on,0,0,0,,,,,,,,0,,,50,0
117480,set_tempo,30,1,0,,,,,,563380,,,,,,
117480,note_on,0,0,0,,,,,,,,0,,,77,59
117480,note_on,0,0,0,,,,,,,,0,,,86,59
117480,note_on,0,0,0,,,,,,,,0,,,89,71
117480,note_on,0,0,0,,,,,,,,0,,,52,48
117480,note_on,0,0,0,,,,,,,,0,,,56,56
117570,note_on,90,0,0,,,,,,,,0,,,56,0
117570,note_on,0,0,0,,,,,,,,0,,,89,0
117570,note_on,0,0,0,,,,,,,,0,,,77,0
117570,note_on,0,0,0,,,,,,,,0,,,86,0
117570,note_on,0,0,0,,,,,,,,0,,,52,0
117600,set_tempo,30,1,0,,,,,,545455,,,,,,
117600,note_on,0,0,0,,,,,,,,0,,,88,73
117600,note_on,0,0,0,,,,,,,,0,,,84,63
117600,note_on,0,0,0,,,,,,,,0,,,76,63
117600,note_on,0,0,0,,,,,,,,0,,,53,53
117600,note_on,0,0,0,,,,,,,,0,,,57,63
117690,note_on,90,0,0,,,,,,,,0,,,57,0
117690,note_on,0,0,0,,,,,,,,0,,,76,0
117690,note_on,0,0,0,,,,,,,,0,,,88,0
117690,note_on,0,0,0,,,,,,,,0,,,84,0
117690,note_on,0,0,0,,,,,,,,0,,,53,0
117720,note_on,30,0,0,,,,,,,,0,,,86,72
117720,note_on,0,0,0,,,,,,,,0,,,83,60
117720,note_on,0,0,0,,,,,,,,0,,,74,60
117720,note_on,0,0,0,,,,,,,,0,,,56,53
117720,note_on,0,0,0,,,,,,,,0,,,59,63
117810,note_on,90,0,0,,,,,,,,0,,,59,0
117810,note_on,0,0,0,,,,,,,,0,,,74,0
117810,note_on,0,0,0,,,,,,,,0,,,86,0
117810,note_on,0,0,0,,,,,,,,0,,,83,0
117810,note_on,0,0,0,,,,,,,,0,,,56,0
117840,note_on,30,0,0,,,,,,,,0,,,84,72
117840,note_on,0,0,0,,,,,,,,0,,,81,62
117840,note_on,0,0,0,,,,,,,,0,,,72,62
117840,note_on,0,0,0,,,,,,,,0,,,57,53
117840,note_on,0,0,0,,,,,,,,0,,,60,63
117930,note_on,90,0,0,,,,,,,,0,,,60,0
117930,note_on,0,0,0,,,,,,,,0,,,72,0
117930,note_on,0,0,0,,,,,,,,0,,,84,0
117930,note_on,0,0,0,,,,,,,,0,,,81,0
117930,note_on,0,0,0,,,,,,,,0,,,57,0
117960,set_tempo,30,1,0,,,,,,588235,,,,,,
117960,note_on,0,0,0,,,,,,,,0,,,71,62
117960,note_on,0,0,0,,,,,,,,0,,,83,72
117960,note_on,0,0,0,,,,,,,,0,,,80,62
117960,note_on,0,0,0,,,,,,,,0,,,59,48
117960,note_on,0,0,0,,,,,,,,0,,,62,57
118050,note_on,90,0,0,,,,,,,,0,,,62,0
118050,note_on,0,0,0,,,,,,,,0,,,80,0
118050,note_on,0,0,0,,,,,,,,0,,,71,0
118050,note_on,0,0,0,,,,,,,,0,,,83,0
118050,note_on,0,0,0,,,,,,,,0,,,59,0
118080,set_tempo,30,1,0,,,,,,542986,,,,,,
118080,note_on,0,0,0,,,,,,,,0,,,84,76
118080,note_on,0,0,0,,,,,,,,0,,,81,64
118080,note_on,0,0,0,,,,,,,,0,,,72,64
118080,note_on,0,0,0,,,,,,,,0,,,60,63
118080,note_on,0,0,0,,,,,,,,0,,,57,53
118120,set_tempo,40,1,0,,,,,,545455,,,,,,
118140,set_tempo,20,1,0,,,,,,547945,,,,,,
118160,set_tempo,20,1,0,,,,,,550459,,,,,,
118170,note_on,10,0,0,,,,,,,,0,,,57,0
118170,note_on,0,0,0,,,,,,,,0,,,60,0
118180,set_tempo,10,1,0,,,,,,552995,,,,,,
118200,set_tempo,20,1,0,,,,,,555556,,,,,,
118200,note_on,0,0,0,,,,,,,,0,,,59,49
118200,note_on,0,0,0,,,,,,,,0,,,62,60
118240,set_tempo,40,1,0,,,,,,558140,,,,,,
118260,set_tempo,20,1,0,,,,,,560748,,,,,,
118280,set_tempo,20,1,0,,,,,,563380,,,,,,
118290,note_on,10,0,0,,,,,,,,0,,,62,0
118290,note_on,0,0,0,,,,,,,,0,,,59,0
118300,set_tempo,10,1,0,,,,,,566038,,,,,,
118320,set_tempo,20,1,0,,,,,,582524,,,,,,
118320,note_on,0,0,0,,,,,,,,0,,,60,53
118320,note_on,0,0,0,,,,,,,,0,,,64,65
118410,note_on,90,0,0,,,,,,,,0,,,64,0
118410,note_on,0,0,0,,,,,,,,0,,,60,0
118440,set_tempo,30,1,0,,,,,,634921,,,,,,
118440,note_on,0,0,0,,,,,,,,0,,,62,58
118440,note_on,0,0,0,,,,,,,,0,,,65,68
118530,note_on,90,0,0,,,,,,,,0,,,65,0
118530,note_on,0,0,0,,,,,,,,0,,,62,0
118560,set_tempo,30,1,0,,,,,,545455,,,,,,
118560,note_on,0,0,0,,,,,,,,0,,,62,60
118560,note_on,0,0,0,,,,,,,,0,,,65,71
118650,note_on,90,0,0,,,,,,,,0,,,65,0
118650,note_on,0,0,0,,,,,,,,0,,,62,0
118680,note_on,30,0,0,,,,,,,,0,,,60,58
118680,note_on,0,0,0,,,,,,,,0,,,64,69
118770,note_on,90,0,0,,,,,,,,0,,,64,0
118770,note_on,0,0,0,,,,,,,,0,,,60,0
118800,note_on,30,0,0,,,,,,,,0,,,72,0
118800,note_on,0,0,0,,,,,,,,0,,,81,0
118800,note_on,0,0,0,,,,,,,,0,,,84,0
118800,note_on,0,0,0,,,,,,,,0,,,86,71
118800,note_on,0,0,0,,,,,,,,0,,,83,59
118800,note_on,0,0,0,,,,,,,,0,,,74,59
118800,note_on,0,0,0,,,,,,,,0,,,59,55
118800,note_on,0,0,0,,,,,,,,0,,,62,66
118821,control_change,21,0,0,,,,,,,,0,64,127,,
118920,set_tempo,99,1,0,,,,,,594059,,,,,,
118920,note_on,0,0,0,,,,,,,,0,,,62,0
118920,note_on,0,0,0,,,,,,,,0,,,74,0
118920,note_on,0,0,0,,,,,,,,0,,,86,0
118920,note_on,0,0,0,,,,,,,,0,,,83,0
118920,note_on,0,0,0,,,,,,,,0,,,59,0
118920,note_on,0,0,0,,,,,,,,0,,,88,71
118920,note_on,0,0,0,,,,,,,,0,,,84,59
118920,note_on,0,0,0,,,,,,,,0,,,76,59
118920,note_on,0,0,0,,,,,,,,0,,,57,52
118920,note_on,0,0,0,,,,,,,,0,,,60,63
118927,control_change,7,0,0,,,,,,,,0,64,0,,
118984,control_change,57,0,0,,,,,,,,0,64,127,,
119040,set_tempo,56,1,0,,,,,,563380,,,,,,
119040,note_on,0,0,0,,,,,,,,0,,,60,0
119040,note_on,0,0,0,,,,,,,,0,,,76,0
119040,note_on,0,0,0,,,,,,,,0,,,88,0
119040,note_on,0,0,0,,,,,,,,0,,,84,0
119040,note_on,0,0,0,,,,,,,,0,,,57,0
119040,note_on,0,0,0,,,,,,,,0,,,74,64
119040,note_on,0,0,0,,,,,,,,0,,,83,76
119040,note_on,0,0,0,,,,,,,,0,,,86,76
119040,note_on,0,0,0,,,,,,,,0,,,59,48
119040,note_on,0,0,0,,,,,,,,0,,,62,56
119053,control_change,13,0,0,,,,,,,,0,64,0,,
119092,control_change,39,0,0,,,,,,,,0,64,127,,
119160,note_on,68,0,0,,,,,,,,0,,,62,0
119160,note_on,0,0,0,,,,,,,,0,,,86,0
119160,note_on,0,0,0,,,,,,,,0,,,74,0
119160,note_on,0,0,0,,,,,,,,0,,,83,0
119160,note_on,0,0,0,,,,,,,,0,,,59,0
119160,note_on,0,0,0,,,,,,,,0,,,84,74
119160,note_on,0,0,0,,,,,,,,0,,,81,63
119160,note_on,0,0,0,,,,,,,,0,,,72,63
119160,note_on,0,0,0,,,,,,,,0,,,60,56
119160,note_on,0,0,0,,,,,,,,0,,,57,46
119166,control_change,6,0,0,,,,,,,,0,64,0,,
119217,control_change,51,0,0,,,,,,,,0,64,127,,
119280,note_on,63,0,0,,,,,,,,0,,,57,0
119280,note_on,0,0,0,,,,,,,,0,,,72,0
119280,note_on,0,0,0,,,,,,,,0,,,84,0
119280,note_on,0,0,0,,,,,,,,0,,,81,0
119280,note_on,0,0,0,,,,,,,,0,,,60,0
119280,note_on,0,0,0,,,,,,,,0,,,83,72
119280,note_on,0,0,0,,,,,,,,0,,,80,60
119280,note_on,0,0,0,,,,,,,,0,,,71,60
119280,note_on,0,0,0,,,,,,,,0,,,59,54
119280,note_on,0,0,0,,,,,,,,0,,,56,45
119291,control_change,11,0,0,,,,,,,,0,64,0,,
119343,control_change,52,0,0,,,,,,,,0,64,127,,
119400,set_tempo,57,1,0,,,,,,588235,,,,,,
119400,note_on,0,0,0,,,,,,,,0,,,56,0
119400,note_on,0,0,0,,,,,,,,0,,,71,0
119400,note_on,0,0,0,,,,,,,,0,,,83,0
119400,note_on,0,0,0,,,,,,,,0,,,80,0
119400,note_on,0,0,0,,,,,,,,0,,,59,0
119400,note_on,0,0,0,,,,,,,,0,,,69,59
119400,note_on,0,0,0,,,,,,,,0,,,77,59
119400,note_on,0,0,0,,,,,,,,0,,,81,71
119400,note_on,0,0,0,,,,,,,,0,,,53,44
119400,note_on,0,0,0,,,,,,,,0,,,57,51
119411,control_change,11,0,0,,,,,,,,0,64,0,,
119457,control_change,46,0,0,,,,,,,,0,64,127,,
119520,note_on,63,0,0,,,,,,,,0,,,57,0
119520,note_on,0,0,0,,,,,,,,0,,,81,0
119520,note_on,0,0,0,,,,,,,,0,,,69,0
119520,note_on,0,0,0,,,,,,,,0,,,77,0
119520,note_on,0,0,0,,,,,,,,0,,,53,0
119520,note_on,0,0,0,,,,,,,,0,,,68,57
119520,note_on,0,0,0,,,,,,,,0,,,76,57
119520,note_on,0,0,0,,,,,,,,0,,,80,68
119520,note_on,0,0,0,,,,,,,,0,,,52,40
119520,note_on,0,0,0,,,,,,,,0,,,56,49
119537,control_change,17,0,0,,,,,,,,0,64,0,,
119675,control_change,138,0,0,,,,,,,,0,64,127,,
119760,set_tempo,85,1,0,,,,,,697674,,,,,,
120000,set_tempo,240,1,0,,,,,,600000,,,,,,
120000,note_on,0,0,0,,,,,,,,0,,,56,0
120000,note_on,0,0,0,,,,,,,,0,,,80,0
120000,note_on,0,0,0,,,,,,,,0,,,68,0
120000,note_on,0,0,0,,,,,,,,0,,,76,0
120000,note_on,0,0,0,,,,,,,,0,,,52,0
120000,note_on,0,0,0,,,,,,,,0,,,100,94
120000,note_on,0,0,0,,,,,,,,0,,,96,80
120000,note_on,0,0,0,,,,,,,,0,,,88,80
120000,note_on,0,0,0,,,,,,,,0,,,33,54
120000,note_on,0,0,0,,,,,,,,0,,,45,63
120008,control_change,8,0,0,,,,,,,,0,64,0,,
120060,set_tempo,52,1,0,,,,,,582524,,,,,,
120090,note_on,30,0,0,,,,,,,,0,,,45,0
120090,note_on,0,0,0,,,,,,,,0,,,33,0
120120,set_tempo,30,1,0,,,,,,579710,,,,,,
120120,note_on,0,0,0,,,,,,,,0,,,35,47
120120,note_on,0,0,0,,,,,,,,0,,,47,56
120180,set_tempo,60,1,0,,,,,,576923,,,,,,
120210,note_on,30,0,0,,,,,,,,0,,,47,0
120210,note_on,0,0,0,,,,,,,,0,,,35,0
120240,set_tempo,30,1,0,,,,,,574163,,,,,,
120240,note_on,0,0,0,,,,,,,,0,,,36,54
120240,note_on,0,0,0,,,,,,,,0,,,48,64
120300,set_tempo,60,1,0,,,,,,571429,,,,,,
120330,note_on,30,0,0,,,,,,,,0,,,48,0
120330,note_on,0,0,0,,,,,,,,0,,,36,0
120360,set_tempo,30,1,0,,,,,,568720,,,,,,
120360,note_on,0,0,0,,,,,,,,0,,,38,50
120360,note_on,0,0,0,,,,,,,,0,,,50,59
120420,set_tempo,60,1,0,,,,,,566038,,,,,,
120450,note_on,30,0,0,,,,,,,,0,,,50,0
120450,note_on,0,0,0,,,,,,,,0,,,38,0
120480,set_tempo,30,1,0,,,,,,563380,,,,,,
120480,note_on,0,0,0,,,,,,,,0,,,40,55
120480,note_on,0,0,0,,,,,,,,0,,,52,66
120570,note_on,90,0,0,,,,,,,,0,,,52,0
120570,note_on,0,0,0,,,,,,,,0,,,40,0
120600,note_on,30,0,0,,,,,,,,0,,,41,52
120600,note_on,0,0,0,,,,,,,,0,,,53,61
120690,note_on,90,0,0,,,,,,,,0,,,53,0
120690,note_on,0,0,0,,,,,,,,0,,,41,0
120720,note_on,30,0,0,,,,,,,,0,,,88,0
120720,note_on,0,0,0,,,,,,,,0,,,96,0
120720,note_on,0,0,0,,,,,,,,0,,,100,0
120720,note_on,0,0,0,,,,,,,,0,,,98,71
120720,note_on,0,0,0,,,,,,,,0,,,95,59
120720,note_on,0,0,0,,,,,,,,0,,,86,59
120720,note_on,0,0,0,,,,,,,,0,,,44,50
120720,note_on,0,0,0,,,,,,,,0,,,56,60
120810,note_on,90,0,0,,,,,,,,0,,,56,0
120810,note_on,0,0,0,,,,,,,,0,,,86,0
120810,note_on,0,0,0,,,,,,,,0,,,98,0
120810,note_on,0,0,0,,,,,,,,0,,,95,0
120810,note_on,0,0,0,,,,,,,,0,,,44,0
120840,note_on,30,0,0,,,,,,,,0,,,84,59
120840,note_on,0,0,0,,,,,,,,0,,,93,59
120840,note_on,0,0,0,,,,,,,,0,,,96,71
120840,note_on,0,0,0,,,,,,,,0,,,45,47
120840,note_on,0,0,0,,,,,,,,0,,,57,55
120930,note_on,90,0,0,,,,,,,,0,,,57,0
120930,note_on,0,0,0,,,,,,,,0,,,96,0
120930,note_on,0,0,0,,,,,,,,0,,,84,0
120930,note_on,0,0,0,,,,,,,,0,,,93,0
120930,note_on,0,0,0,,,,,,,,0,,,45,0
120960,set_tempo,30,1,0,,,,,,540541,,,,,,
120960,note_on,0,0,0,,,,,,,,0,,,95,78
120960,note_on,0,0,0,,,,,,,,0,,,92,78
120960,note_on,0,0,0,,,,,,,,0,,,83,65
120960,note_on,0,0,0,,,,,,,,0,,,47,53
120960,note_on,0,0,0,,,,,,,,0,,,59,63
121050,note_on,90,0,0,,,,,,,,0,,,59,0
121050,note_on,0,0,0,,,,,,,,0,,,83,0
121050,note_on,0,0,0,,,,,,,,0,,,95,0
121050,note_on,0,0,0,,,,,,,,0,,,92,0
121050,note_on,0,0,0,,,,,,,,0,,,47,0
121080,note_on,30,0,0,,,,,,,,0,,,81,59
121080,note_on,0,0,0,,,,,,,,0,,,89,59
121080,note_on,0,0,0,,,,,,,,0,,,93,71
121080,note_on,0,0,0,,,,,,,,0,,,48,48
121080,note_on,0,0,0,,,,,,,,0,,,60,56
121170,note_on,90,0,0,,,,,,,,0,,,60,0
121170,note_on,0,0,0,,,,,,,,0,,,93,0
121170,note_on,0,0,0,,,,,,,,0,,,81,0
121170,note_on,0,0,0,,,,,,,,0,,,89,0
121170,note_on,0,0,0,,,,,,,,0,,,48,0
121200,note_on,30,0,0,,,,,,,,0,,,80,63
121200,note_on,0,0,0,,,,,,,,0,,,88,63
121200,note_on,0,0,0,,,,,,,,0,,,92,73
121200,note_on,0,0,0,,,,,,,,0,,,50,53
121200,note_on,0,0,0,,,,,,,,0,,,62,63
121290,note_on,90,0,0,,,,,,,,0,,,62,0
121290,note_on,0,0,0,,,,,,,,0,,,92,0
121290,note_on,0,0,0,,,,,,,,0,,,80,0
121290,note_on,0,0,0,,,,,,,,0,,,88,0
121290,note_on,0,0,0,,,,,,,,0,,,50,0
121320,set_tempo,30,1,0,,,,,,563380,,,,,,
121320,note_on,0,0,0,,,,,,,,0,,,77,59
121320,note_on,0,0,0,,,,,,,,0,,,86,59
121320,note_on,0,0,0,,,,,,,,0,,,89,71
121320,note_on,0,0,0,,,,,,,,0,,,52,48
121320,note_on,0,0,0,,,,,,,,0,,,64,56
121410,note_on,90,0,0,,,,,,,,0,,,64,0
121410,note_on,0,0,0,,,,,,,,0,,,89,0
121410,note_on,0,0,0,,,,,,,,0,,,77,0
121410,note_on,0,0,0,,,,,,,,0,,,86,0
121410,note_on,0,0,0,,,,,,,,0,,,52,0
121440,set_tempo,30,1,0,,,,,,545455,,,,,,
121440,note_on,0,0,0,,,,,,,,0,,,88,73
121440,note_on,0,0,0,,,,,,,,0,,,84,63
121440,note_on,0,0,0,,,,,,,,0,,,76,63
121440,note_on,0,0,0,,,,,,,,0,,,53,53
121440,note_on,0,0,0,,,,,,,,0,,,65,63
121530,note_on,90,0,0,,,,,,,,0,,,65,0
121530,note_on,0,0,0,,,,,,,,0,,,76,0
121530,note_on,0,0,0,,,,,,,,0,,,88,0
121530,note_on,0,0,0,,,,,,,,0,,,84,0
121530,note_on,0,0,0,,,,,,,,0,,,53,0
121560,note_on,30,0,0,,,,,,,,0,,,86,72
121560,note_on,0,0,0,,,,,,,,0,,,83,62
121560,note_on,0,0,0,,,,,,,,0,,,74,62
121560,note_on,0,0,0,,,,,,,,0,,,56,53
121560,note_on,0,0,0,,,,,,,,0,,,68,63
121650,note_on,90,0,0,,,,,,,,0,,,68,0
121650,note_on,0,0,0,,,,,,,,0,,,74,0
121650,note_on,0,0,0,,,,,,,,0,,,86,0
121650,note_on,0,0,0,,,,,,,,0,,,83,0
121650,note_on,0,0,0,,,,,,,,0,,,56,0
121680,note_on,30,0,0,,,,,,,,0,,,84,74
121680,note_on,0,0,0,,,,,,,,0,,,81,63
121680,note_on,0,0,0,,,,,,,,0,,,72,63
121680,note_on,0,0,0,,,,,,,,0,,,57,53
121680,note_on,0,0,0,,,,,,,,0,,,69,63
121770,note_on,90,0,0,,,,,,,,0,,,69,0
121770,note_on,0,0,0,,,,,,,,0,,,72,0
121770,note_on,0,0,0,,,,,,,,0,,,84,0
121770,note_on,0,0,0,,,,,,,,0,,,81,0
121770,note_on,0,0,0,,,,,,,,0,,,57,0
121800,set_tempo,30,1,0,,,,,,588235,,,,,,
121800,note_on,0,0,0,,,,,,,,0,,,83,73
121800,note_on,0,0,0,,,,,,,,0,,,80,63
121800,note_on,0,0,0,,,,,,,,0,,,59,48
121800,note_on,0,0,0,,,,,,,,0,,,71,57
121890,note_on,90,0,0,,,,,,,,0,,,71,0
121890,note_on,0,0,0,,,,,,,,0,,,83,0
121890,note_on,0,0,0,,,,,,,,0,,,80,0
121890,note_on,0,0,0,,,,,,,,0,,,59,0
121920,set_tempo,30,1,0,,,,,,542986,,,,,,
121920,note_on,0,0,0,,,,,,,,0,,,84,72
121920,note_on,0,0,0,,,,,,,,0,,,81,62
121920,note_on,0,0,0,,,,,,,,0,,,72,62
121920,note_on,0,0,0,,,,,,,,0,,,69,63
121920,note_on,0,0,0,,,,,,,,0,,,57,53
121960,set_tempo,40,1,0,,,,,,545455,,,,,,
121980,set_tempo,20,1,0,,,,,,547945,,,,,,
122000,set_tempo,20,1,0,,,,,,550459,,,,,,
122010,note_on,10,0,0,,,,,,,,0,,,57,0
122010,note_on,0,0,0,,,,,,,,0,,,69,0
122020,set_tempo,10,1,0,,,,,,552995,,,,,,
122040,set_tempo,20,1,0,,,,,,555556,,,,,,
122040,note_on,0,0,0,,,,,,,,0,,,56,49
122040,note_on,0,0,0,,,,,,,,0,,,68,59
122080,set_tempo,40,1,0,,,,,,558140,,,,,,
122100,set_tempo,20,1,0,,,,,,560748,,,,,,
122120,set_tempo,20,1,0,,,,,,563380,,,,,,
122130,note_on,10,0,0,,,,,,,,0,,,68,0
122130,note_on,0,0,0,,,,,,,,0,,,56,0
122140,set_tempo,10,1,0,,,,,,566038,,,,,,
122160,set_tempo,20,1,0,,,,,,568720,,,,,,
122160,note_on,0,0,0,,,,,,,,0,,,53,51
122160,note_on,0,0,0,,,,,,,,0,,,65,62
122180,set_tempo,20,1,0,,,,,,579710,,,,,,
122220,set_tempo,40,1,0,,,,,,582524,,,,,,
122240,set_tempo,20,1,0,,,,,,585366,,,,,,
122250,note_on,10,0,0,,,,,,,,0,,,65,0
122250,note_on,0,0,0,,,,,,,,0,,,53,0
122280,set_tempo,30,1,0,,,,,,588235,,,,,,
122280,note_on,0,0,0,,,,,,,,0,,,52,54
122280,note_on,0,0,0,,,,,,,,0,,,64,63
122370,note_on,90,0,0,,,,,,,,0,,,64,0
122370,note_on,0,0,0,,,,,,,,0,,,52,0
122400,set_tempo,30,1,0,,,,,,545455,,,,,,
122400,note_on,0,0,0,,,,,,,,0,,,53,55
122400,note_on,0,0,0,,,,,,,,0,,,65,65
122490,note_on,90,0,0,,,,,,,,0,,,65,0
122490,note_on,0,0,0,,,,,,,,0,,,53,0
122520,note_on,30,0,0,,,,,,,,0,,,52,54
122520,note_on,0,0,0,,,,,,,,0,,,64,64
122610,note_on,90,0,0,,,,,,,,0,,,64,0
122610,note_on,0,0,0,,,,,,,,0,,,52,0
122640,note_on,30,0,0,,,,,,,,0,,,72,0
122640,note_on,0,0,0,,,,,,,,0,,,81,0
122640,note_on,0,0,0,,,,,,,,0,,,84,0
122640,note_on,0,0,0,,,,,,,,0,,,86,71
122640,note_on,0,0,0,,,,,,,,0,,,83,59
122640,note_on,0,0,0,,,,,,,,0,,,74,59
122640,note_on,0,0,0,,,,,,,,0,,,50,53
122640,note_on,0,0,0,,,,,,,,0,,,62,63
122661,control_change,21,0,0,,,,,,,,0,64,127,,
122760,set_tempo,99,1,0,,,,,,594059,,,,,,
122760,note_on,0,0,0,,,,,,,,0,,,62,0
122760,note_on,0,0,0,,,,,,,,0,,,74,0
122760,note_on,0,0,0,,,,,,,,0,,,86,0
122760,note_on,0,0,0,,,,,,,,0,,,83,0
122760,note_on,0,0,0,,,,,,,,0,,,50,0
122760,note_on,0,0,0,,,,,,,,0,,,88,71
122760,note_on,0,0,0,,,,,,,,0,,,84,59
122760,note_on,0,0,0,,,,,,,,0,,,76,59
122760,note_on,0,0,0,,,,,,,,0,,,60,62
122760,note_on,0,0,0,,,,,,,,0,,,48,51
122767,control_change,7,0,0,,,,,,,,0,64,0,,
122824,control_change,57,0,0,,,,,,,,0,64,127,,
122880,set_tempo,56,1,0,,,,,,563380,,,,,,
122880,note_on,0,0,0,,,,,,,,0,,,48,0
122880,note_on,0,0,0,,,,,,,,0,,,76,0
122880,note_on,0,0,0,,,,,,,,0,,,88,0
122880,note_on,0,0,0,,,,,,,,0,,,84,0
122880,note_on,0,0,0,,,,,,,,0,,,60,0
122880,note_on,0,0,0,,,,,,,,0,,,74,64
122880,note_on,0,0,0,,,,,,,,0,,,86,76
122880,note_on,0,0,0,,,,,,,,0,,,59,56
122880,note_on,0,0,0,,,,,,,,0,,,47,48
122896,control_change,16,0,0,,,,,,,,0,64,0,,
122937,control_change,41,0,0,,,,,,,,0,64,127,,
123000,note_on,63,0,0,,,,,,,,0,,,47,0
123000,note_on,0,0,0,,,,,,,,0,,,74,0
123000,note_on,0,0,0,,,,,,,,0,,,86,0
123000,note_on,0,0,0,,,,,,,,0,,,59,0
123000,note_on,0,0,0,,,,,,,,0,,,84,74
123000,note_on,0,0,0,,,,,,,,0,,,72,63
123000,note_on,0,0,0,,,,,,,,0,,,45,46
123000,note_on,0,0,0,,,,,,,,0,,,57,56
123006,control_change,6,0,0,,,,,,,,0,64,0,,
123057,control_change,51,0,0,,,,,,,,0,64,127,,
123120,note_on,63,0,0,,,,,,,,0,,,57,0
123120,note_on,0,0,0,,,,,,,,0,,,84,0
123120,note_on,0,0,0,,,,,,,,0,,,72,0
123120,note_on,0,0,0,,,,,,,,0,,,45,0
123120,note_on,0,0,0,,,,,,,,0,,,83,72
123120,note_on,0,0,0,,,,,,,,0,,,71,60
123120,note_on,0,0,0,,,,,,,,0,,,44,45
123120,note_on,0,0,0,,,,,,,,0,,,56,54
123131,control_change,11,0,0,,,,,,,,0,64,0,,
123183,control_change,52,0,0,,,,,,,,0,64,127,,
123240,set_tempo,57,1,0,,,,,,588235,,,,,,
123240,note_on,0,0,0,,,,,,,,0,,,56,0
123240,note_on,0,0,0,,,,,,,,0,,,83,0
123240,note_on,0,0,0,,,,,,,,0,,,71,0
123240,note_on,0,0,0,,,,,,,,0,,,44,0
123240,note_on,0,0,0,,,,,,,,0,,,69,59
123240,note_on,0,0,0,,,,,,,,0,,,81,71
123240,note_on,0,0,0,,,,,,,,0,,,65,51
123240,note_on,0,0,0,,,,,,,,0,,,53,44
123251,control_change,11,0,0,,,,,,,,0,64,0,,
123297,control_change,46,0,0,,,,,,,,0,64,127,,
123360,note_on,63,0,0,,,,,,,,0,,,53,0
123360,note_on,0,0,0,,,,,,,,0,,,69,0
123360,note_on,0,0,0,,,,,,,,0,,,81,0
123360,note_on,0,0,0,,,,,,,,0,,,65,0
123360,note_on,0,0,0,,,,,,,,0,,,68,57
123360,note_on,0,0,0,,,,,,,,0,,,80,68
123360,note_on,0,0,0,,,,,,,,0,,,64,49
123360,note_on,0,0,0,,,,,,,,0,,,52,40
123377,control_change,17,0,0,,,,,,,,0,64,0,,
123474,control_change,97,0,0,,,,,,,,0,64,127,,
123840,set_tempo,366,1,0,,,,,,638298,,,,,,
123840,note_on,0,0,0,,,,,,,,0,,,52,0
123840,note_on,0,0,0,,,,,,,,0,,,68,0
123840,note_on,0,0,0,,,,,,,,0,,,80,0
123840,note_on,0,0,0,,,,,,,,0,,,64,0
123840,note_on,0,0,0,,,,,,,,0,,,85,94
123840,note_on,0,0,0,,,,,,,,0,,,76,80
123840,note_on,0,0,0,,,,,,,,0,,,73,80
123840,note_on,0,0,0,,,,,,,,0,,,70,73
123840,control_change,0,0,0,,,,,,,,0,64,0,,
123840,note_on,0,0,0,,,,,,,,0,,,58,62
123930,note_on,90,0,0,,,,,,,,0,,,58,0
123930,note_on,0,0,0,,,,,,,,0,,,70,0
123940,set_tempo,10,1,0,,,,,,571429,,,,,,
123960,note_on,20,0,0,,,,,,,,0,,,69,67
123960,note_on,0,0,0,,,,,,,,0,,,57,56
124000,set_tempo,40,1,0,,,,,,568720,,,,,,
124040,set_tempo,40,1,0,,,,,,566038,,,,,,
124050,note_on,10,0,0,,,,,,,,0,,,57,0
124050,note_on,0,0,0,,,,,,,,0,,,69,0
124080,set_tempo,30,1,0,,,,,,563380,,,,,,
124080,note_on,0,0,0,,,,,,,,0,,,55,55
124080,note_on,0,0,0,,,,,,,,0,,,67,66
124120,set_tempo,40,1,0,,,,,,560748,,,,,,
124170,note_on,50,0,0,,,,,,,,0,,,67,0
124170,note_on,0,0,0,,,,,,,,0,,,55,0
124180,set_tempo,10,1,0,,,,,,558140,,,,,,
124200,note_on,20,0,0,,,,,,,,0,,,52,55
124200,note_on,0,0,0,,,,,,,,0,,,64,66
124220,set_tempo,20,1,0,,,,,,555556,,,,,,
124260,set_tempo,40,1,0,,,,,,552995,,,,,,
124290,note_on,30,0,0,,,,,,,,0,,,64,0
124290,note_on,0,0,0,,,,,,,,0,,,52,0
124300,set_tempo,10,1,0,,,,,,550459,,,,,,
124320,set_tempo,20,1,0,,,,,,563380,,,,,,
124320,note_on,0,0,0,,,,,,,,0,,,76,0
124320,note_on,0,0,0,,,,,,,,0,,,81,90
124320,note_on,0,0,0,,,,,,,,0,,,49,54
124320,note_on,0,0,0,,,,,,,,0,,,61,65
124410,note_on,90,0,0,,,,,,,,0,,,61,0
124410,note_on,0,0,0,,,,,,,,0,,,49,0
124440,note_on,30,0,0,,,,,,,,0,,,85,0
124440,note_on,0,0,0,,,,,,,,0,,,73,0
124440,note_on,0,0,0,,,,,,,,0,,,81,0
124440,note_on,0,0,0,,,,,,,,0,,,46,54
124440,note_on,0,0,0,,,,,,,,0,,,58,64
124530,note_on,90,0,0,,,,,,,,0,,,58,0
124530,note_on,0,0,0,,,,,,,,0,,,46,0
124560,note_on,30,0,0,,,,,,,,0,,,86,79
124560,note_on,0,0,0,,,,,,,,0,,,83,55
124560,note_on,0,0,0,,,,,,,,0,,,74,55
124560,note_on,0,0,0,,,,,,,,0,,,45,54
124560,note_on,0,0,0,,,,,,,,0,,,57,63
124600,control_change,40,0,0,,,,,,,,0,64,127,,
124650,note_on,50,0,0,,,,,,,,0,,,57,0
124650,note_on,0,0,0,,,,,,,,0,,,86,0
124650,note_on,0,0,0,,,,,,,,0,,,74,0
124650,note_on,0,0,0,,,,,,,,0,,,83,0
124680,note_on,30,0,0,,,,,,,,0,,,76,66
124680,note_on,0,0,0,,,,,,,,0,,,85,66
124680,note_on,0,0,0,,,,,,,,0,,,88,79
124680,note_on,0,0,0,,,,,,,,0,,,55,63
124770,note_on,90,0,0,,,,,,,,0,,,55,0
124770,note_on,0,0,0,,,,,,,,0,,,85,0
124770,note_on,0,0,0,,,,,,,,0,,,88,0
124770,note_on,0,0,0,,,,,,,,0,,,76,0
124800,set_tempo,30,1,0,,,,,,540541,,,,,,
124800,note_on,0,0,0,,,,,,,,0,,,45,0
124800,note_on,0,0,0,,,,,,,,0,,,89,81
124800,note_on,0,0,0,,,,,,,,0,,,86,67
124800,note_on,0,0,0,,,,,,,,0,,,77,67
124800,note_on,0,0,0,,,,,,,,0,,,50,53
124800,note_on,0,0,0,,,,,,,,0,,,53,63
124808,control_change,8,0,0,,,,,,,,0,64,0,,
124869,control_change,61,0,0,,,,,,,,0,64,127,,
124890,note_on,21,0,0,,,,,,,,0,,,53,0
124890,note_on,0,0,0,,,,,,,,0,,,77,0
124890,note_on,0,0,0,,,,,,,,0,,,89,0
124890,note_on,0,0,0,,,,,,,,0,,,86,0
124890,note_on,0,0,0,,,,,,,,0,,,50,0
124920,note_on,30,0,0,,,,,,,,0,,,79,71
124920,note_on,0,0,0,,,,,,,,0,,,88,71
124920,note_on,0,0,0,,,,,,,,0,,,91,83
124920,note_on,0,0,0,,,,,,,,0,,,49,54
124920,note_on,0,0,0,,,,,,,,0,,,52,64
125010,note_on,90,0,0,,,,,,,,0,,,52,0
125010,note_on,0,0,0,,,,,,,,0,,,91,0
125010,note_on,0,0,0,,,,,,,,0,,,79,0
125010,note_on,0,0,0,,,,,,,,0,,,88,0
125010,note_on,0,0,0,,,,,,,,0,,,49,0
125040,note_on,30,0,0,,,,,,,,0,,,81,73
125040,note_on,0,0,0,,,,,,,,0,,,89,73
125040,note_on,0,0,0,,,,,,,,0,,,93,86
125040,note_on,0,0,0,,,,,,,,0,,,47,56
125040,note_on,0,0,0,,,,,,,,0,,,50,65
125130,note_on,90,0,0,,,,,,,,0,,,50,0
125130,note_on,0,0,0,,,,,,,,0,,,93,0
125130,note_on,0,0,0,,,,,,,,0,,,81,0
125130,note_on,0,0,0,,,,,,,,0,,,89,0
125130,note_on,0,0,0,,,,,,,,0,,,47,0
125160,set_tempo,30,1,0,,,,,,563380,,,,,,
125160,note_on,0,0,0,,,,,,,,0,,,83,75
125160,note_on,0,0,0,,,,,,,,0,,,91,75
125160,note_on,0,0,0,,,,,,,,0,,,95,87
125160,note_on,0,0,0,,,,,,,,0,,,45,56
125160,note_on,0,0,0,,,,,,,,0,,,49,68
125250,note_on,90,0,0,,,,,,,,0,,,49,0
125250,note_on,0,0,0,,,,,,,,0,,,95,0
125250,note_on,0,0,0,,,,,,,,0,,,83,0
125250,note_on,0,0,0,,,,,,,,0,,,91,0
125250,note_on,0,0,0,,,,,,,,0,,,45,0
125280,set_tempo,30,1,0,,,,,,531020,,,,,,
125280,note_on,0,0,0,,,,,,,,0,,,97,91
125280,note_on,0,0,0,,,,,,,,0,,,93,76
125280,note_on,0,0,0,,,,,,,,0,,,85,76
125280,note_on,0,0,0,,,,,,,,0,,,43,58
125280,note_on,0,0,0,,,,,,,,0,,,47,69
125370,note_on,90,0,0,,,,,,,,0,,,47,0
125370,note_on,0,0,0,,,,,,,,0,,,85,0
125370,note_on,0,0,0,,,,,,,,0,,,97,0
125370,note_on,0,0,0,,,,,,,,0,,,93,0
125370,note_on,0,0,0,,,,,,,,0,,,43,0
125400,note_on,30,0,0,,,,,,,,0,,,98,93
125400,note_on,0,0,0,,,,,,,,0,,,95,78
125400,note_on,0,0,0,,,,,,,,0,,,86,78
125400,note_on,0,0,0,,,,,,,,0,,,41,59
125400,note_on,0,0,0,,,,,,,,0,,,45,71
125490,note_on,90,0,0,,,,,,,,0,,,45,0
125490,note_on,0,0,0,,,,,,,,0,,,86,0
125490,note_on,0,0,0,,,,,,,,0,,,98,0
125490,note_on,0,0,0,,,,,,,,0,,,95,0
125490,note_on,0,0,0,,,,,,,,0,,,41,0
125520,note_on,30,0,0,,,,,,,,0,,,100,97
125520,note_on,0,0,0,,,,,,,,0,,,97,81
125520,note_on,0,0,0,,,,,,,,0,,,88,81
125520,note_on,0,0,0,,,,,,,,0,,,40,63
125520,note_on,0,0,0,,,,,,,,0,,,43,75
125610,note_on,90,0,0,,,,,,,,0,,,43,0
125610,note_on,0,0,0,,,,,,,,0,,,88,0
125610,note_on,0,0,0,,,,,,,,0,,,100,0
125610,note_on,0,0,0,,,,,,,,0,,,97,0
125610,note_on,0,0,0,,,,,,,,0,,,40,0
125640,set_tempo,30,1,0,,,,,,697756,,,,,,
125640,note_on,0,0,0,,,,,,,,0,,,98,83
125640,note_on,0,0,0,,,,,,,,0,,,101,99
125640,note_on,0,0,0,,,,,,,,0,,,89,83
125640,note_on,0,0,0,,,,,,,,0,,,38,65
125640,note_on,0,0,0,,,,,,,,0,,,41,77
125730,note_on,90,0,0,,,,,,,,0,,,41,0
125730,note_on,0,0,0,,,,,,,,0,,,89,0
125730,note_on,0,0,0,,,,,,,,0,,,98,0
125730,note_on,0,0,0,,,,,,,,0,,,101,0
125730,note_on,0,0,0,,,,,,,,0,,,38,0
125760,set_tempo,30,1,0,,,,,,638298,,,,,,
125760,note_on,0,0,0,,,,,,,,0,,,83,94
125760,note_on,0,0,0,,,,,,,,0,,,74,80
125760,note_on,0,0,0,,,,,,,,0,,,71,80
125760,note_on,0,0,0,,,,,,,,0,,,56,62
125760,note_on,0,0,0,,,,,,,,0,,,68,73
125764,control_change,4,0,0,,,,,,,,0,64,0,,
125829,control_change,65,0,0,,,,,,,,0,64,127,,
125850,note_on,21,0,0,,,,,,,,0,,,68,0
125850,note_on,0,0,0,,,,,,,,0,,,56,0
125860,set_tempo,10,1,0,,,,,,571429,,,,,,
125880,note_on,20,0,0,,,,,,,,0,,,55,56
125880,note_on,0,0,0,,,,,,,,0,,,67,67
125920,set_tempo,40,1,0,,,,,,568720,,,,,,
125960,set_tempo,40,1,0,,,,,,566038,,,,,,
125970,note_on,10,0,0,,,,,,,,0,,,67,0
125970,note_on,0,0,0,,,,,,,,0,,,55,0
126000,set_tempo,30,1,0,,,,,,563380,,,,,,
126000,note_on,0,0,0,,,,,,,,0,,,53,55
126000,note_on,0,0,0,,,,,,,,0,,,65,66
126040,set_tempo,40,1,0,,,,,,560748,,,,,,
126090,note_on,50,0,0,,,,,,,,0,,,65,0
126090,note_on,0,0,0,,,,,,,,0,,,53,0
126100,set_tempo,10,1,0,,,,,,558140,,,,,,
126120,note_on,20,0,0,,,,,,,,0,,,50,55
126120,note_on,0,0,0,,,,,,,,0,,,62,66
126140,set_tempo,20,1,0,,,,,,555556,,,,,,
126180,set_tempo,40,1,0,,,,,,552995,,,,,,
126210,note_on,30,0,0,,,,,,,,0,,,62,0
126210,note_on,0,0,0,,,,,,,,0,,,50,0
126220,set_tempo,10,1,0,,,,,,550459,,,,,,
126240,set_tempo,20,1,0,,,,,,563380,,,,,,
126240,note_on,0,0,0,,,,,,,,0,,,74,0
126240,note_on,0,0,0,,,,,,,,0,,,79,90
126240,note_on,0,0,0,,,,,,,,0,,,47,54
126240,note_on,0,0,0,,,,,,,,0,,,59,65
126263,control_change,23,0,0,,,,,,,,0,64,0,,
126330,note_on,67,0,0,,,,,,,,0,,,59,0
126330,note_on,0,0,0,,,,,,,,0,,,47,0
126360,note_on,30,0,0,,,,,,,,0,,,83,0
126360,note_on,0,0,0,,,,,,,,0,,,71,0
126360,note_on,0,0,0,,,,,,,,0,,,79,0
126360,note_on,0,0,0,,,,,,,,0,,,44,54
126360,note_on,0,0,0,,,,,,,,0,,,56,64
126450,note_on,90,0,0,,,,,,,,0,,,56,0
126450,note_on,0,0,0,,,,,,,,0,,,44,0
126480,note_on,30,0,0,,,,,,,,0,,,84,79
126480,note_on,0,0,0,,,,,,,,0,,,81,55
126480,note_on,0,0,0,,,,,,,,0,,,72,55
126480,note_on,0,0,0,,,,,,,,0,,,43,54
126480,note_on,0,0,0,,,,,,,,0,,,55,63
126520,control_change,40,0,0,,,,,,,,0,64,127,,
126570,note_on,50,0,0,,,,,,,,0,,,55,0
126570,note_on,0,0,0,,,,,,,,0,,,84,0
126570,note_on,0,0,0,,,,,,,,0,,,72,0
126570,note_on,0,0,0,,,,,,,,0,,,81,0
126600,note_on,30,0,0,,,,,,,,0,,,74,66
126600,note_on,0,0,0,,,,,,,,0,,,83,66
126600,note_on,0,0,0,,,,,,,,0,,,86,79
126600,note_on,0,0,0,,,,,,,,0,,,53,63
126690,note_on,90,0,0,,,,,,,,0,,,53,0
126690,note_on,0,0,0,,,,,,,,0,,,83,0
126690,note_on,0,0,0,,,,,,,,0,,,86,0
126690,note_on,0,0,0,,,,,,,,0,,,74,0
126720,set_tempo,30,1,0,,,,,,540541,,,,,,
126720,note_on,0,0,0,,,,,,,,0,,,43,0
126720,note_on,0,0,0,,,,,,,,0,,,88,81
126720,note_on,0,0,0,,,,,,,,0,,,84,67
126720,note_on,0,0,0,,,,,,,,0,,,76,67
126720,note_on,0,0,0,,,,,,,,0,,,48,53
126720,note_on,0,0,0,,,,,,,,0,,,52,63
126727,control_change,7,0,0,,,,,,,,0,64,0,,
126805,control_change,78,0,0,,,,,,,,0,64,127,,
126810,note_on,5,0,0,,,,,,,,0,,,52,0
126810,note_on,0,0,0,,,,,,,,0,,,76,0
126810,note_on,0,0,0,,,,,,,,0,,,88,0
126810,note_on,0,0,0,,,,,,,,0,,,84,0
126810,note_on,0,0,0,,,,,,,,0,,,48,0
126840,note_on,30,0,0,,,,,,,,0,,,77,71
126840,note_on,0,0,0,,,,,,,,0,,,86,71
126840,note_on,0,0,0,,,,,,,,0,,,89,83
126840,note_on,0,0,0,,,,,,,,0,,,47,54
126840,note_on,0,0,0,,,,,,,,0,,,50,64
126930,note_on,90,0,0,,,,,,,,0,,,50,0
126930,note_on,0,0,0,,,,,,,,0,,,89,0
126930,note_on,0,0,0,,,,,,,,0,,,77,0
126930,note_on,0,0,0,,,,,,,,0,,,86,0
126930,note_on,0,0,0,,,,,,,,0,,,47,0
126960,note_on,30,0,0,,,,,,,,0,,,79,73
126960,note_on,0,0,0,,,,,,,,0,,,88,73
126960,note_on,0,0,0,,,,,,,,0,,,91,86
126960,note_on,0,0,0,,,,,,,,0,,,45,56
126960,note_on,0,0,0,,,,,,,,0,,,48,65
127050,note_on,90,0,0,,,,,,,,0,,,48,0
127050,note_on,0,0,0,,,,,,,,0,,,91,0
127050,note_on,0,0,0,,,,,,,,0,,,79,0
127050,note_on,0,0,0,,,,,,,,0,,,88,0
127050,note_on,0,0,0,,,,,,,,0,,,45,0
127080,set_tempo,30,1,0,,,,,,563380,,,,,,
127080,note_on,0,0,0,,,,,,,,0,,,81,75
127080,note_on,0,0,0,,,,,,,,0,,,89,75
127080,note_on,0,0,0,,,,,,,,0,,,93,87
127080,note_on,0,0,0,,,,,,,,0,,,43,56
127080,note_on,0,0,0,,,,,,,,0,,,47,68
127170,note_on,90,0,0,,,,,,,,0,,,47,0
127170,note_on,0,0,0,,,,,,,,0,,,93,0
127170,note_on,0,0,0,,,,,,,,0,,,81,0
127170,note_on,0,0,0,,,,,,,,0,,,89,0
127170,note_on,0,0,0,,,,,,,,0,,,43,0
127200,set_tempo,30,1,0,,,,,,545455,,,,,,
127200,note_on,0,0,0,,,,,,,,0,,,95,91
127200,note_on,0,0,0,,,,,,,,0,,,91,76
127200,note_on,0,0,0,,,,,,,,0,,,83,76
127200,note_on,0,0,0,,,,,,,,0,,,45,69
127200,note_on,0,0,0,,,,,,,,0,,,41,58
127290,note_on,90,0,0,,,,,,,,0,,,41,0
127290,note_on,0,0,0,,,,,,,,0,,,83,0
127290,note_on,0,0,0,,,,,,,,0,,,95,0
127290,note_on,0,0,0,,,,,,,,0,,,91,0
127290,note_on,0,0,0,,,,,,,,0,,,45,0
127320,note_on,30,0,0,,,,,,,,0,,,96,93
127320,note_on,0,0,0,,,,,,,,0,,,93,78
127320,note_on,0,0,0,,,,,,,,0,,,84,78
127320,note_on,0,0,0,,,,,,,,0,,,43,71
127320,note_on,0,0,0,,,,,,,,0,,,40,59
127410,note_on,90,0,0,,,,,,,,0,,,40,0
127410,note_on,0,0,0,,,,,,,,0,,,84,0
127410,note_on,0,0,0,,,,,,,,0,,,96,0
127410,note_on,0,0,0,,,,,,,,0,,,93,0
127410,note_on,0,0,0,,,,,,,,0,,,43,0
127440,set_tempo,30,1,0,,,,,,521785,,,,,,
127440,note_on,0,0,0,,,,,,,,0,,,98,97
127440,note_on,0,0,0,,,,,,,,0,,,95,81
127440,note_on,0,0,0,,,,,,,,0,,,86,81
127440,note_on,0,0,0,,,,,,,,0,,,41,75
127440,note_on,0,0,0,,,,,,,,0,,,38,63
127530,note_on,90,0,0,,,,,,,,0,,,38,0
127530,note_on,0,0,0,,,,,,,,0,,,86,0
127530,note_on,0,0,0,,,,,,,,0,,,98,0
127530,note_on,0,0,0,,,,,,,,0,,,95,0
127530,note_on,0,0,0,,,,,,,,0,,,41,0
127560,set_tempo,30,1,0,,,,,,659413,,,,,,
127560,note_on,0,0,0,,,,,,,,0,,,96,83
127560,note_on,0,0,0,,,,,,,,0,,,100,99
127560,note_on,0,0,0,,,,,,,,0,,,88,83
127560,note_on,0,0,0,,,,,,,,0,,,40,77
127560,note_on,0,0,0,,,,,,,,0,,,36,65
127650,note_on,90,0,0,,,,,,,,0,,,36,0
127650,note_on,0,0,0,,,,,,,,0,,,88,0
127650,note_on,0,0,0,,,,,,,,0,,,96,0
127650,note_on,0,0,0,,,,,,,,0,,,100,0
127650,note_on,0,0,0,,,,,,,,0,,,40,0
127680,set_tempo,30,1,0,,,,,,745342,,,,,,
127680,note_on,0,0,0,,,,,,,,0,,,89,79
127680,note_on,0,0,0,,,,,,,,0,,,95,79
127680,note_on,0,0,0,,,,,,,,0,,,92,79
127680,note_on,0,0,0,,,,,,,,0,,,101,93
127680,note_on,0,0,0,,,,,,,,0,,,44,63
127680,note_on,0,0,0,,,,,,,,0,,,47,63
127680,note_on,0,0,0,,,,,,,,0,,,50,74
127680,note_on,0,0,0,,,,,,,,0,,,38,63
127684,control_change,4,0,0,,,,,,,,0,64,0,,
127721,control_change,37,0,0,,,,,,,,0,64,127,,
127770,note_on,49,0,0,,,,,,,,0,,,38,0
127770,note_on,0,0,0,,,,,,,,0,,,89,0
127770,note_on,0,0,0,,,,,,,,0,,,44,0
127770,note_on,0,0,0,,,,,,,,0,,,95,0
127770,note_on,0,0,0,,,,,,,,0,,,92,0
127770,note_on,0,0,0,,,,,,,,0,,,101,0
127770,note_on,0,0,0,,,,,,,,0,,,47,0
127770,note_on,0,0,0,,,,,,,,0,,,50,0
127800,set_tempo,30,1,0,,,,,,533333,,,,,,
127800,note_on,0,0,0,,,,,,,,0,,,86,75
127800,note_on,0,0,0,,,,,,,,0,,,98,90
127800,note_on,0,0,0,,,,,,,,0,,,53,66
127800,note_on,0,0,0,,,,,,,,0,,,41,55
127890,note_on,90,0,0,,,,,,,,0,,,41,0
127890,note_on,0,0,0,,,,,,,,0,,,86,0
127890,note_on,0,0,0,,,,,,,,0,,,98,0
127890,note_on,0,0,0,,,,,,,,0,,,53,0
127920,set_tempo,30,1,0,,,,,,540541,,,,,,
127920,note_on,0,0,0,,,,,,,,0,,,83,72
127920,note_on,0,0,0,,,,,,,,0,,,95,86
127920,note_on,0,0,0,,,,,,,,0,,,44,55
127920,note_on,0,0,0,,,,,,,,0,,,56,66
127933,control_change,13,0,0,,,,,,,,0,64,0,,
127994,control_change,61,0,0,,,,,,,,0,64,127,,
128010,note_on,16,0,0,,,,,,,,0,,,56,0
128010,note_on,0,0,0,,,,,,,,0,,,83,0
128010,note_on,0,0,0,,,,,,,,0,,,95,0
128010,note_on,0,0,0,,,,,,,,0,,,44,0
128040,note_on,30,0,0,,,,,,,,0,,,80,72
128040,note_on,0,0,0,,,,,,,,0,,,92,86
128040,note_on,0,0,0,,,,,,,,0,,,47,55
128040,note_on,0,0,0,,,,,,,,0,,,59,66
128130,note_on,90,0,0,,,,,,,,0,,,59,0
128130,note_on,0,0,0,,,,,,,,0,,,80,0
128130,note_on,0,0,0,,,,,,,,0,,,92,0
128130,note_on,0,0,0,,,,,,,,0,,,47,0
128160,set_tempo,30,1,0,,,,,,568720,,,,,,
128160,note_on,0,0,0,,,,,,,,0,,,77,71
128160,note_on,0,0,0,,,,,,,,0,,,80,71
128160,note_on,0,0,0,,,,,,,,0,,,83,71
128160,note_on,0,0,0,,,,,,,,0,,,89,83
128160,note_on,0,0,0,,,,,,,,0,,,59,60
128160,note_on,0,0,0,,,,,,,,0,,,62,71
128160,note_on,0,0,0,,,,,,,,0,,,50,60
128160,note_on,0,0,0,,,,,,,,0,,,56,60
128164,control_change,4,0,0,,,,,,,,0,64,0,,
128206,control_change,42,0,0,,,,,,,,0,64,127,,
128250,note_on,44,0,0,,,,,,,,0,,,56,0
128250,note_on,0,0,0,,,,,,,,0,,,77,0
128250,note_on,0,0,0,,,,,,,,0,,,59,0
128250,note_on,0,0,0,,,,,,,,0,,,80,0
128250,note_on,0,0,0,,,,,,,,0,,,83,0
128250,note_on,0,0,0,,,,,,,,0,,,89,0
128250,note_on,0,0,0,,,,,,,,0,,,62,0
128250,note_on,0,0,0,,,,,,,,0,,,50,0
128280,note_on,30,0,0,,,,,,,,0,,,75,65
128280,note_on,0,0,0,,,,,,,,0,,,87,77
128280,note_on,0,0,0,,,,,,,,0,,,63,62
128280,note_on,0,0,0,,,,,,,,0,,,51,52
128370,note_on,90,0,0,,,,,,,,0,,,51,0
128370,note_on,0,0,0,,,,,,,,0,,,75,0
128370,note_on,0,0,0,,,,,,,,0,,,87,0
128370,note_on,0,0,0,,,,,,,,0,,,63,0
128400,set_tempo,30,1,0,,,,,,579710,,,,,,
128400,note_on,0,0,0,,,,,,,,0,,,76,70
128400,note_on,0,0,0,,,,,,,,0,,,88,82
128400,note_on,0,0,0,,,,,,,,0,,,52,54
128400,note_on,0,0,0,,,,,,,,0,,,64,65
128412,control_change,12,0,0,,,,,,,,0,64,0,,
128475,control_change,63,0,0,,,,,,,,0,64,127,,
128490,note_on,15,0,0,,,,,,,,0,,,64,0
128490,note_on,0,0,0,,,,,,,,0,,,76,0
128490,note_on,0,0,0,,,,,,,,0,,,88,0
128490,note_on,0,0,0,,,,,,,,0,,,52,0
128520,set_tempo,30,1,0,,,,,,600000,,,,,,
128520,note_on,0,0,0,,,,,,,,0,,,74,74
128520,note_on,0,0,0,,,,,,,,0,,,86,89
128520,note_on,0,0,0,,,,,,,,0,,,65,70
128520,note_on,0,0,0,,,,,,,,0,,,53,59
128610,note_on,90,0,0,,,,,,,,0,,,53,0
128610,note_on,0,0,0,,,,,,,,0,,,74,0
128610,note_on,0,0,0,,,,,,,,0,,,86,0
128610,note_on,0,0,0,,,,,,,,0,,,65,0
128640,set_tempo,30,1,0,,,,,,736196,,,,,,
128640,note_on,0,0,0,,,,,,,,0,,,84,79
128640,note_on,0,0,0,,,,,,,,0,,,90,79
128640,note_on,0,0,0,,,,,,,,0,,,87,79
128640,note_on,0,0,0,,,,,,,,0,,,96,93
128640,note_on,0,0,0,,,,,,,,0,,,33,63
128640,note_on,0,0,0,,,,,,,,0,,,45,74
128640,note_on,0,0,0,,,,,,,,0,,,42,63
128640,note_on,0,0,0,,,,,,,,0,,,39,63
128652,control_change,12,0,0,,,,,,,,0,64,0,,
128685,control_change,33,0,0,,,,,,,,0,64,127,,
128730,note_on,45,0,0,,,,,,,,0,,,39,0
128730,note_on,0,0,0,,,,,,,,0,,,84,0
128730,note_on,0,0,0,,,,,,,,0,,,33,0
128730,note_on,0,0,0,,,,,,,,0,,,90,0
128730,note_on,0,0,0,,,,,,,,0,,,87,0
128730,note_on,0,0,0,,,,,,,,0,,,96,0
128730,note_on,0,0,0,,,,,,,,0,,,45,0
128730,note_on,0,0,0,,,,,,,,0,,,42,0
128760,set_tempo,30,1,0,,,,,,535714,,,,,,
128760,note_on,0,0,0,,,,,,,,0,,,81,75
128760,note_on,0,0,0,,,,,,,,0,,,93,90
128760,note_on,0,0,0,,,,,,,,0,,,36,55
128760,note_on,0,0,0,,,,,,,,0,,,48,66
128850,note_on,90,0,0,,,,,,,,0,,,48,0
128850,note_on,0,0,0,,,,,,,,0,,,81,0
128850,note_on,0,0,0,,,,,,,,0,,,93,0
128850,note_on,0,0,0,,,,,,,,0,,,36,0
128880,set_tempo,30,1,0,,,,,,542986,,,,,,
128880,note_on,0,0,0,,,,,,,,0,,,78,72
128880,note_on,0,0,0,,,,,,,,0,,,90,86
128880,note_on,0,0,0,,,,,,,,0,,,39,55
128880,note_on,0,0,0,,,,,,,,0,,,51,66
128893,control_change,13,0,0,,,,,,,,0,64,0,,
128928,control_change,35,0,0,,,,,,,,0,64,127,,
128970,note_on,42,0,0,,,,,,,,0,,,51,0
128970,note_on,0,0,0,,,,,,,,0,,,78,0
128970,note_on,0,0,0,,,,,,,,0,,,90,0
128970,note_on,0,0,0,,,,,,,,0,,,39,0
129000,note_on,30,0,0,,,,,,,,0,,,75,72
129000,note_on,0,0,0,,,,,,,,0,,,87,86
129000,note_on,0,0,0,,,,,,,,0,,,42,55
129000,note_on,0,0,0,,,,,,,,0,,,54,66
129090,note_on,90,0,0,,,,,,,,0,,,54,0
129090,note_on,0,0,0,,,,,,,,0,,,75,0
129090,note_on,0,0,0,,,,,,,,0,,,87,0
129090,note_on,0,0,0,,,,,,,,0,,,42,0
129120,set_tempo,30,1,0,,,,,,558140,,,,,,
129120,note_on,0,0,0,,,,,,,,0,,,72,71
129120,note_on,0,0,0,,,,,,,,0,,,75,71
129120,note_on,0,0,0,,,,,,,,0,,,78,71
129120,note_on,0,0,0,,,,,,,,0,,,84,83
129120,note_on,0,0,0,,,,,,,,0,,,54,60
129120,note_on,0,0,0,,,,,,,,0,,,57,71
129120,note_on,0,0,0,,,,,,,,0,,,45,60
129120,note_on,0,0,0,,,,,,,,0,,,51,60
129137,control_change,17,0,0,,,,,,,,0,64,0,,
129140,set_tempo,3,1,0,,,,,,571429,,,,,,
129195,control_change,55,0,0,,,,,,,,0,64,127,,
129210,note_on,15,0,0,,,,,,,,0,,,51,0
129210,note_on,0,0,0,,,,,,,,0,,,72,0
129210,note_on,0,0,0,,,,,,,,0,,,54,0
129210,note_on,0,0,0,,,,,,,,0,,,75,0
129210,note_on,0,0,0,,,,,,,,0,,,78,0
129210,note_on,0,0,0,,,,,,,,0,,,84,0
129210,note_on,0,0,0,,,,,,,,0,,,57,0
129210,note_on,0,0,0,,,,,,,,0,,,45,0
129240,set_tempo,30,1,0,,,,,,579710,,,,,,
129240,note_on,0,0,0,,,,,,,,0,,,70,65
129240,note_on,0,0,0,,,,,,,,0,,,82,77
129240,note_on,0,0,0,,,,,,,,0,,,58,62
129240,note_on,0,0,0,,,,,,,,0,,,46,52
129330,note_on,90,0,0,,,,,,,,0,,,46,0
129330,note_on,0,0,0,,,,,,,,0,,,70,0
129330,note_on,0,0,0,,,,,,,,0,,,82,0
129330,note_on,0,0,0,,,,,,,,0,,,58,0
129360,set_tempo,30,1,0,,,,,,579710,,,,,,
129360,note_on,0,0,0,,,,,,,,0,,,71,70
129360,note_on,0,0,0,,,,,,,,0,,,83,82
129360,note_on,0,0,0,,,,,,,,0,,,47,54
129360,note_on,0,0,0,,,,,,,,0,,,59,65
129368,control_change,8,0,0,,,,,,,,0,64,0,,
129406,control_change,38,0,0,,,,,,,,0,64,127,,
129450,note_on,44,0,0,,,,,,,,0,,,59,0
129450,note_on,0,0,0,,,,,,,,0,,,71,0
129450,note_on,0,0,0,,,,,,,,0,,,83,0
129450,note_on,0,0,0,,,,,,,,0,,,47,0
129480,set_tempo,30,1,0,,,,,,600000,,,,,,
129480,note_on,0,0,0,,,,,,,,0,,,69,74
129480,note_on,0,0,0,,,,,,,,0,,,81,89
129480,note_on,0,0,0,,,,,,,,0,,,60,70
129480,note_on,0,0,0,,,,,,,,0,,,48,59
129570,note_on,90,0,0,,,,,,,,0,,,48,0
129570,note_on,0,0,0,,,,,,,,0,,,69,0
129570,note_on,0,0,0,,,,,,,,0,,,81,0
129570,note_on,0,0,0,,,,,,,,0,,,60,0
129600,set_tempo,30,1,0,,,,,,576923,,,,,,
129600,note_on,0,0,0,,,,,,,,0,,,65,66
129600,note_on,0,0,0,,,,,,,,0,,,71,66
129600,note_on,0,0,0,,,,,,,,0,,,69,66
129600,note_on,0,0,0,,,,,,,,0,,,77,79
129600,note_on,0,0,0,,,,,,,,0,,,50,55
129600,note_on,0,0,0,,,,,,,,0,,,57,55
129600,note_on,0,0,0,,,,,,,,0,,,59,66
129608,control_change,8,0,0,,,,,,,,0,64,0,,
129652,control_change,44,0,0,,,,,,,,0,64,127,,
129690,note_on,38,0,0,,,,,,,,0,,,59,0
129690,note_on,0,0,0,,,,,,,,0,,,50,0
129690,note_on,0,0,0,,,,,,,,0,,,71,0
129690,note_on,0,0,0,,,,,,,,0,,,69,0
129690,note_on,0,0,0,,,,,,,,0,,,65,0
129690,note_on,0,0,0,,,,,,,,0,,,57,0
129690,note_on,0,0,0,,,,,,,,0,,,77,0
129720,set_tempo,30,1,0,,,,,,547945,,,,,,
129720,note_on,0,0,0,,,,,,,,0,,,63,63
129720,note_on,0,0,0,,,,,,,,0,,,75,75
129720,note_on,0,0,0,,,,,,,,0,,,51,60
129810,note_on,90,0,0,,,,,,,,0,,,51,0
129810,note_on,0,0,0,,,,,,,,0,,,75,0
129810,note_on,0,0,0,,,,,,,,0,,,63,0
129840,note_on,30,0,0,,,,,,,,0,,,64,61
129840,note_on,0,0,0,,,,,,,,0,,,76,72
129840,note_on,0,0,0,,,,,,,,0,,,52,60
129851,control_change,11,0,0,,,,,,,,0,64,0,,
129893,control_change,42,0,0,,,,,,,,0,64,127,,
129930,note_on,37,0,0,,,,,,,,0,,,52,0
129930,note_on,0,0,0,,,,,,,,0,,,76,0
129930,note_on,0,0,0,,,,,,,,0,,,64,0
129960,set_tempo,30,1,0,,,,,,585366,,,,,,
129960,note_on,0,0,0,,,,,,,,0,,,62,61
129960,note_on,0,0,0,,,,,,,,0,,,74,72
129960,note_on,0,0,0,,,,,,,,0,,,53,60
130050,note_on,90,0,0,,,,,,,,0,,,53,0
130050,note_on,0,0,0,,,,,,,,0,,,74,0
130050,note_on,0,0,0,,,,,,,,0,,,62,0
130080,set_tempo,30,1,0,,,,,,568720,,,,,,
130080,note_on,0,0,0,,,,,,,,0,,,61,60
130080,note_on,0,0,0,,,,,,,,0,,,73,71
130080,note_on,0,0,0,,,,,,,,0,,,52,60
130080,note_on,0,0,0,,,,,,,,0,,,56,60
130080,note_on,0,0,0,,,,,,,,0,,,64,71
130098,control_change,18,0,0,,,,,,,,0,64,0,,
130152,control_change,54,0,0,,,,,,,,0,64,127,,
130170,note_on,18,0,0,,,,,,,,0,,,73,0
130170,note_on,0,0,0,,,,,,,,0,,,61,0
130200,set_tempo,30,1,0,,,,,,588235,,,,,,
130200,note_on,0,0,0,,,,,,,,0,,,59,54
130200,note_on,0,0,0,,,,,,,,0,,,71,65
130290,note_on,90,0,0,,,,,,,,0,,,71,0
130290,note_on,0,0,0,,,,,,,,0,,,59,0
130320,set_tempo,30,1,0,,,,,,659413,,,,,,
130320,note_on,0,0,0,,,,,,,,0,,,64,0
130320,note_on,0,0,0,,,,,,,,0,,,52,0
130320,note_on,0,0,0,,,,,,,,0,,,56,0
130320,note_on,0,0,0,,,,,,,,0,,,60,59
130320,note_on,0,0,0,,,,,,,,0,,,72,70
130320,note_on,0,0,0,,,,,,,,0,,,62,65
130320,note_on,0,0,0,,,,,,,,0,,,56,54
130320,note_on,0,0,0,,,,,,,,0,,,52,54
130331,control_change,11,0,0,,,,,,,,0,64,0,,
130394,control_change,63,0,0,,,,,,,,0,64,127,,
130410,note_on,16,0,0,,,,,,,,0,,,72,0
130410,note_on,0,0,0,,,,,,,,0,,,60,0
130440,set_tempo,30,1,0,,,,,,731797,,,,,,
130440,note_on,0,0,0,,,,,,,,0,,,59,63
130440,note_on,0,0,0,,,,,,,,0,,,71,74
130530,note_on,90,0,0,,,,,,,,0,,,71,0
130530,note_on,0,0,0,,,,,,,,0,,,59,0
130560,set_tempo,30,1,0,,,,,,845189,,,,,,
130560,note_on,0,0,0,,,,,,,,0,,,52,0
130560,note_on,0,0,0,,,,,,,,0,,,62,0
130560,note_on,0,0,0,,,,,,,,0,,,56,0
130560,note_on,0,0,0,,,,,,,,0,,,62,63
130560,note_on,0,0,0,,,,,,,,0,,,65,63
130560,note_on,0,0,0,,,,,,,,0,,,57,63
130560,note_on,0,0,0,,,,,,,,0,,,69,75
130560,note_on,0,0,0,,,,,,,,0,,,45,54
130560,note_on,0,0,0,,,,,,,,0,,,50,54
130560,note_on,0,0,0,,,,,,,,0,,,53,65
130564,control_change,4,0,0,,,,,,,,0,64,0,,
130667,control_change,103,0,0,,,,,,,,0,64,127,,
131040,set_tempo,373,1,0,,,,,,1212121,,,,,,
131040,note_on,0,0,0,,,,,,,,0,,,53,0
131040,note_on,0,0,0,,,,,,,,0,,,65,0
131040,note_on,0,0,0,,,,,,,,0,,,62,0
131040,note_on,0,0,0,,,,,,,,0,,,50,0
131040,note_on,0,0,0,,,,,,,,0,,,60,44
131040,note_on,0,0,0,,,,,,,,0,,,64,52
131040,note_on,0,0,0,,,,,,,,0,,,48,37
131040,note_on,0,0,0,,,,,,,,0,,,52,44
131057,control_change,17,0,0,,,,,,,,0,64,0,,
131280,note_on,223,0,0,,,,,,,,0,,,52,0
131280,note_on,0,0,0,,,,,,,,0,,,64,0
131280,note_on,0,0,0,,,,,,,,0,,,45,0
131280,note_on,0,0,0,,,,,,,,0,,,69,0
131280,note_on,0,0,0,,,,,,,,0,,,57,0
131280,note_on,0,0,0,,,,,,,,0,,,48,0
131280,note_on,0,0,0,,,,,,,,0,,,60,0
131520,set_tempo,240,1,0,,,,,,1153846,,,,,,
131520,marker,0,1,0,,,,,,,,,,,,
131520,note_on,0,0,0,,,,,,,,0,,,88,52
131520,note_on,0,0,0,,,,,,,,0,,,64,44
131546,control_change,26,0,0,,,,,,,,0,64,127,,
131600,set_tempo,54,1,0,,,,,,909091,,,,,,
131600,note_on,0,0,0,,,,,,,,0,,,64,0
131600,note_on,0,0,0,,,,,,,,0,,,88,0
131600,note_on,0,0,0,,,,,,,,0,,,89,45
131600,note_on,0,0,0,,,,,,,,0,,,65,37
131680,note_on,80,0,0,,,,,,,,0,,,65,0
131680,note_on,0,0,0,,,,,,,,0,,,89,0
131680,note_on,0,0,0,,,,,,,,0,,,88,45
131680,note_on,0,0,0,,,,,,,,0,,,64,37
131760,set_tempo,80,1,0,,,,,,1165049,,,,,,
131760,note_on,0,0,0,,,,,,,,0,,,64,0
131760,note_on,0,0,0,,,,,,,,0,,,88,0
131760,note_on,0,0,0,,,,,,,,0,,,84,49
131760,note_on,0,0,0,,,,,,,,0,,,60,41
131774,control_change,14,0,0,,,,,,,,0,64,0,,
131824,control_change,50,0,0,,,,,,,,0,64,127,,
132000,set_tempo,176,1,0,,,,,,937500,,,,,,
132000,note_on,0,0,0,,,,,,,,0,,,72,33
132000,note_on,0,0,0,,,,,,,,0,,,76,33
132000,note_on,0,0,0,,,,,,,,0,,,45,27
132000,note_on,0,0,0,,,,,,,,0,,,52,27
132081,control_change,81,0,0,,,,,,,,0,64,0,,
132120,note_on,39,0,0,,,,,,,,0,,,52,0
132120,note_on,0,0,0,,,,,,,,0,,,76,0
132120,note_on,0,0,0,,,,,,,,0,,,72,0
132120,note_on,0,0,0,,,,,,,,0,,,45,0
132240,set_tempo,120,1,0,,,,,,916031,,,,,,
132240,note_on,0,0,0,,,,,,,,0,,,84,0
132240,note_on,0,0,0,,,,,,,,0,,,60,0
132240,note_on,0,0,0,,,,,,,,0,,,81,48
132240,note_on,0,0,0,,,,,,,,0,,,57,40
132320,set_tempo,80,1,0,,,,,,764331,,,,,,
132320,note_on,0,0,0,,,,,,,,0,,,83,45
132320,note_on,0,0,0,,,,,,,,0,,,59,37
132330,note_on,10,0,0,,,,,,,,0,,,57,0
132330,note_on,0,0,0,,,,,,,,0,,,81,0
132400,note_on,70,0,0,,,,,,,,0,,,81,45
132400,note_on,0,0,0,,,,,,,,0,,,57,37
132410,note_on,10,0,0,,,,,,,,0,,,83,0
132410,note_on,0,0,0,,,,,,,,0,,,59,0
132480,set_tempo,70,1,0,,,,,,745342,,,,,,
132480,note_on,0,0,0,,,,,,,,0,,,83,47
132480,note_on,0,0,0,,,,,,,,0,,,59,40
132490,note_on,10,0,0,,,,,,,,0,,,81,0
132490,note_on,0,0,0,,,,,,,,0,,,57,0
132560,note_on,70,0,0,,,,,,,,0,,,84,45
132560,note_on,0,0,0,,,,,,,,0,,,60,37
132570,note_on,10,0,0,,,,,,,,0,,,83,0
132570,note_on,0,0,0,,,,,,,,0,,,59,0
132640,note_on,70,0,0,,,,,,,,0,,,83,45
132640,note_on,0,0,0,,,,,,,,0,,,59,37
132650,note_on,10,0,0,,,,,,,,0,,,84,0
132650,note_on,0,0,0,,,,,,,,0,,,60,0
132720,note_on,70,0,0,,,,,,,,0,,,80,47
132720,note_on,0,0,0,,,,,,,,0,,,56,40
132730,note_on,10,0,0,,,,,,,,0,,,83,0
132730,note_on,0,0,0,,,,,,,,0,,,59,0
132800,note_on,70,0,0,,,,,,,,0,,,81,44
132800,note_on,0,0,0,,,,,,,,0,,,57,36
132810,note_on,10,0,0,,,,,,,,0,,,80,0
132810,note_on,0,0,0,,,,,,,,0,,,56,0
132880,note_on,70,0,0,,,,,,,,0,,,80,44
132880,note_on,0,0,0,,,,,,,,0,,,56,36
132890,note_on,10,0,0,,,,,,,,0,,,81,0
132890,note_on,0,0,0,,,,,,,,0,,,57,0
132960,set_tempo,70,1,0,,,,,,789474,,,,,,
132960,note_on,0,0,0,,,,,,,,0,,,76,46
132960,note_on,0,0,0,,,,,,,,0,,,52,39
132970,note_on,10,0,0,,,,,,,,0,,,80,0
132970,note_on,0,0,0,,,,,,,,0,,,56,0
133040,note_on,70,0,0,,,,,,,,0,,,77,41
133040,note_on,0,0,0,,,,,,,,0,,,53,35
133050,note_on,10,0,0,,,,,,,,0,,,76,0
133050,note_on,0,0,0,,,,,,,,0,,,52,0
133120,set_tempo,70,1,0,,,,,,1791045,,,,,,
133120,note_on,0,0,0,,,,,,,,0,,,76,42
133120,note_on,0,0,0,,,,,,,,0,,,52,35
133130,note_on,10,0,0,,,,,,,,0,,,77,0
133130,note_on,0,0,0,,,,,,,,0,,,53,0
133200,set_tempo,70,1,0,,,,,,789474,,,,,,
133200,note_on,0,0,0,,,,,,,,0,,,62,30
133200,note_on,0,0,0,,,,,,,,0,,,64,30
133200,note_on,0,0,0,,,,,,,,0,,,71,30
133200,note_on,0,0,0,,,,,,,,0,,,45,25
133200,note_on,0,0,0,,,,,,,,0,,,56,25
133210,note_on,10,0,0,,,,,,,,0,,,76,0
133210,note_on,0,0,0,,,,,,,,0,,,52,0
133320,note_on,110,0,0,,,,,,,,0,,,62,0
133320,note_on,0,0,0,,,,,,,,0,,,71,0
133320,note_on,0,0,0,,,,,,,,0,,,64,0
133320,note_on,0,0,0,,,,,,,,0,,,56,0
133320,note_on,0,0,0,,,,,,,,0,,,45,0
133440,set_tempo,120,1,0,,,,,,1153846,,,,,,
133440,note_on,0,0,0,,,,,,,,0,,,88,52
133440,note_on,0,0,0,,,,,,,,0,,,64,44
133479,control_change,39,0,0,,,,,,,,0,64,127,,
133520,set_tempo,41,1,0,,,,,,916031,,,,,,
133520,note_on,0,0,0,,,,,,,,0,,,64,0
133520,note_on,0,0,0,,,,,,,,0,,,88,0
133520,note_on,0,0,0,,,,,,,,0,,,89,45
133520,note_on,0,0,0,,,,,,,,0,,,65,37
133600,note_on,80,0,0,,,,,,,,0,,,65,0
133600,note_on,0,0,0,,,,,,,,0,,,89,0
133600,note_on,0,0,0,,,,,,,,0,,,88,45
133600,note_on,0,0,0,,,,,,,,0,,,64,37
133680,set_tempo,80,1,0,,,,,,1142857,,,,,,
133680,note_on,0,0,0,,,,,,,,0,,,64,0
133680,note_on,0,0,0,,,,,,,,0,,,88,0
133680,note_on,0,0,0,,,,,,,,0,,,84,49
133680,note_on,0,0,0,,,,,,,,0,,,60,41
133692,control_change,12,0,0,,,,,,,,0,64,0,,
133736,control_change,44,0,0,,,,,,,,0,64,127,,
133920,set_tempo,184,1,0,,,,,,944882,,,,,,
133920,note_on,0,0,0,,,,,,,,0,,,72,37
133920,note_on,0,0,0,,,,,,,,0,,,76,37
133920,note_on,0,0,0,,,,,,,,0,,,45,31
133920,note_on,0,0,0,,,,,,,,0,,,52,31
134012,control_change,92,0,0,,,,,,,,0,64,0,,
134040,note_on,28,0,0,,,,,,,,0,,,52,0
134040,note_on,0,0,0,,,,,,,,0,,,76,0
134040,note_on,0,0,0,,,,,,,,0,,,72,0
134040,note_on,0,0,0,,,,,,,,0,,,45,0
134160,set_tempo,120,1,0,,,,,,789474,,,,,,
134160,note_on,0,0,0,,,,,,,,0,,,84,0
134160,note_on,0,0,0,,,,,,,,0,,,60,0
134160,note_on,0,0,0,,,,,,,,0,,,64,45
134160,note_on,0,0,0,,,,,,,,0,,,60,54
134160,note_on,0,0,0,,,,,,,,0,,,57,45
134188,control_change,28,0,0,,,,,,,,0,64,127,,
134240,note_on,52,0,0,,,,,,,,0,,,57,0
134240,note_on,0,0,0,,,,,,,,0,,,60,0
134240,note_on,0,0,0,,,,,,,,0,,,62,53
134240,note_on,0,0,0,,,,,,,,0,,,59,44
134320,note_on,80,0,0,,,,,,,,0,,,59,0
134320,note_on,0,0,0,,,,,,,,0,,,62,0
134320,note_on,0,0,0,,,,,,,,0,,,60,56
134320,note_on,0,0,0,,,,,,,,0,,,57,46
134400,set_tempo,80,1,0,,,,,,745342,,,,,,
134400,note_on,0,0,0,,,,,,,,0,,,57,0
134400,note_on,0,0,0,,,,,,,,0,,,60,0
134400,note_on,0,0,0,,,,,,,,0,,,64,0
134400,note_on,0,0,0,,,,,,,,0,,,64,51
134400,note_on,0,0,0,,,,,,,,0,,,59,63
134400,note_on,0,0,0,,,,,,,,0,,,56,53
134410,control_change,10,0,0,,,,,,,,0,64,0,,
134434,control_change,24,0,0,,,,,,,,0,64,127,,
134480,note_on,46,0,0,,,,,,,,0,,,56,0
134480,note_on,0,0,0,,,,,,,,0,,,59,0
134480,note_on,0,0,0,,,,,,,,0,,,60,63
134480,note_on,0,0,0,,,,,,,,0,,,57,53
134560,note_on,80,0,0,,,,,,,,0,,,57,0
134560,note_on,0,0,0,,,,,,,,0,,,60,0
134560,note_on,0,0,0,,,,,,,,0,,,59,67
134560,note_on,0,0,0,,,,,,,,0,,,55,56
134640,set_tempo,80,1,0,,,,,,769231,,,,,,
134640,note_on,0,0,0,,,,,,,,0,,,55,0
134640,note_on,0,0,0,,,,,,,,0,,,59,0
134640,note_on,0,0,0,,,,,,,,0,,,64,0
134640,note_on,0,0,0,,,,,,,,0,,,63,56
134640,note_on,0,0,0,,,,,,,,0,,,69,72
134640,note_on,0,0,0,,,,,,,,0,,,54,61
134651,control_change,11,0,0,,,,,,,,0,64,0,,
134680,control_change,29,0,0,,,,,,,,0,64,127,,
134720,note_on,40,0,0,,,,,,,,0,,,54,0
134720,note_on,0,0,0,,,,,,,,0,,,69,0
134720,note_on,0,0,0,,,,,,,,0,,,71,67
134720,note_on,0,0,0,,,,,,,,0,,,55,56
134800,note_on,80,0,0,,,,,,,,0,,,55,0
134800,note_on,0,0,0,,,,,,,,0,,,71,0
134800,note_on,0,0,0,,,,,,,,0,,,69,68
134800,note_on,0,0,0,,,,,,,,0,,,53,57
134880,set_tempo,80,1,0,,,,,,789474,,,,,,
134880,note_on,0,0,0,,,,,,,,0,,,53,0
134880,note_on,0,0,0,,,,,,,,0,,,69,0
134880,note_on,0,0,0,,,,,,,,0,,,63,0
134880,note_on,0,0,0,,,,,,,,0,,,64,56
134880,note_on,0,0,0,,,,,,,,0,,,68,74
134880,note_on,0,0,0,,,,,,,,0,,,52,63
134892,control_change,12,0,0,,,,,,,,0,64,0,,
134911,control_change,19,0,0,,,,,,,,0,64,127,,
134960,note_on,49,0,0,,,,,,,,0,,,52,0
134960,note_on,0,0,0,,,,,,,,0,,,68,0
134960,note_on,0,0,0,,,,,,,,0,,,69,66
134960,note_on,0,0,0,,,,,,,,0,,,53,56
135040,set_tempo,80,1,0,,,,,,1212121,,,,,,
135040,note_on,0,0,0,,,,,,,,0,,,53,0
135040,note_on,0,0,0,,,,,,,,0,,,69,0
135040,note_on,0,0,0,,,,,,,,0,,,68,69
135040,note_on,0,0,0,,,,,,,,0,,,52,56
135120,set_tempo,80,1,0,,,,,,991736,,,,,,
135120,note_on,0,0,0,,,,,,,,0,,,52,0
135120,note_on,0,0,0,,,,,,,,0,,,68,0
135120,note_on,0,0,0,,,,,,,,0,,,64,0
135120,note_on,0,0,0,,,,,,,,0,,,40,72
135130,control_change,10,0,0,,,,,,,,0,64,0,,
135240,note_on,110,0,0,,,,,,,,0,,,40,0
135360,set_tempo,120,1,0,,,,,,1153846,,,,,,
135360,note_on,0,0,0,,,,,,,,0,,,88,52
135360,note_on,0,0,0,,,,,,,,0,,,64,44
135386,control_change,26,0,0,,,,,,,,0,64,127,,
135440,set_tempo,54,1,0,,,,,,909091,,,,,,
135440,note_on,0,0,0,,,,,,,,0,,,64,0
135440,note_on,0,0,0,,,,,,,,0,,,88,0
135440,note_on,0,0,0,,,,,,,,0,,,89,45
135440,note_on,0,0,0,,,,,,,,0,,,65,37
135520,note_on,80,0,0,,,,,,,,0,,,65,0
135520,note_on,0,0,0,,,,,,,,0,,,89,0
135520,note_on,0,0,0,,,,,,,,0,,,88,45
135520,note_on,0,0,0,,,,,,,,0,,,64,37
135600,set_tempo,80,1,0,,,,,,1165049,,,,,,
135600,note_on,0,0,0,,,,,,,,0,,,64,0
135600,note_on,0,0,0,,,,,,,,0,,,88,0
135600,note_on,0,0,0,,,,,,,,0,,,84,49
135600,note_on,0,0,0,,,,,,,,0,,,60,41
135614,control_change,14,0,0,,,,,,,,0,64,0,,
135664,control_change,50,0,0,,,,,,,,0,64,127,,
135840,set_tempo,176,1,0,,,,,,937500,,,,,,
135840,note_on,0,0,0,,,,,,,,0,,,72,33
135840,note_on,0,0,0,,,,,,,,0,,,76,33
135840,note_on,0,0,0,,,,,,,,0,,,45,27
135840,note_on,0,0,0,,,,,,,,0,,,52,27
135921,control_change,81,0,0,,,,,,,,0,64,0,,
135960,note_on,39,0,0,,,,,,,,0,,,52,0
135960,note_on,0,0,0,,,,,,,,0,,,76,0
135960,note_on,0,0,0,,,,,,,,0,,,72,0
135960,note_on,0,0,0,,,,,,,,0,,,45,0
136080,set_tempo,120,1,0,,,,,,916031,,,,,,
136080,note_on,0,0,0,,,,,,,,0,,,84,0
136080,note_on,0,0,0,,,,,,,,0,,,60,0
136080,note_on,0,0,0,,,,,,,,0,,,81,48
136080,note_on,0,0,0,,,,,,,,0,,,57,40
136160,set_tempo,80,1,0,,,,,,764331,,,,,,
136160,note_on,0,0,0,,,,,,,,0,,,83,45
136160,note_on,0,0,0,,,,,,,,0,,,59,37
136170,note_on,10,0,0,,,,,,,,0,,,57,0
136170,note_on,0,0,0,,,,,,,,0,,,81,0
136240,note_on,70,0,0,,,,,,,,0,,,81,45
136240,note_on,0,0,0,,,,,,,,0,,,57,37
136250,note_on,10,0,0,,,,,,,,0,,,83,0
136250,note_on,0,0,0,,,,,,,,0,,,59,0
136320,set_tempo,70,1,0,,,,,,745342,,,,,,
136320,note_on,0,0,0,,,,,,,,0,,,83,47
136320,note_on,0,0,0,,,,,,,,0,,,59,40
136330,note_on,10,0,0,,,,,,,,0,,,81,0
136330,note_on,0,0,0,,,,,,,,0,,,57,0
136400,note_on,70,0,0,,,,,,,,0,,,84,45
136400,note_on,0,0,0,,,,,,,,0,,,60,37
136410,note_on,10,0,0,,,,,,,,0,,,83,0
136410,note_on,0,0,0,,,,,,,,0,,,59,0
136480,note_on,70,0,0,,,,,,,,0,,,83,45
136480,note_on,0,0,0,,,,,,,,0,,,59,37
136490,note_on,10,0,0,,,,,,,,0,,,84,0
136490,note_on,0,0,0,,,,,,,,0,,,60,0
136560,note_on,70,0,0,,,,,,,,0,,,80,47
136560,note_on,0,0,0,,,,,,,,0,,,56,40
136570,note_on,10,0,0,,,,,,,,0,,,83,0
136570,note_on,0,0,0,,,,,,,,0,,,59,0
136640,note_on,70,0,0,,,,,,,,0,,,81,44
136640,note_on,0,0,0,,,,,,,,0,,,57,36
136650,note_on,10,0,0,,,,,,,,0,,,80,0
136650,note_on,0,0,0,,,,,,,,0,,,56,0
136720,note_on,70,0,0,,,,,,,,0,,,80,44
136720,note_on,0,0,0,,,,,,,,0,,,56,36
136730,note_on,10,0,0,,,,,,,,0,,,81,0
136730,note_on,0,0,0,,,,,,,,0,,,57,0
136800,set_tempo,70,1,0,,,,,,789474,,,,,,
136800,note_on,0,0,0,,,,,,,,0,,,76,46
136800,note_on,0,0,0,,,,,,,,0,,,52,39
136810,note_on,10,0,0,,,,,,,,0,,,80,0
136810,note_on,0,0,0,,,,,,,,0,,,56,0
136880,note_on,70,0,0,,,,,,,,0,,,77,41
136880,note_on,0,0,0,,,,,,,,0,,,53,35
136890,note_on,10,0,0,,,,,,,,0,,,76,0
136890,note_on,0,0,0,,,,,,,,0,,,52,0
136960,set_tempo,70,1,0,,,,,,1791045,,,,,,
136960,note_on,0,0,0,,,,,,,,0,,,76,42
136960,note_on,0,0,0,,,,,,,,0,,,52,35
136970,note_on,10,0,0,,,,,,,,0,,,77,0
136970,note_on,0,0,0,,,,,,,,0,,,53,0
137040,set_tempo,70,1,0,,,,,,789474,,,,,,
137040,note_on,0,0,0,,,,,,,,0,,,62,30
137040,note_on,0,0,0,,,,,,,,0,,,64,30
137040,note_on,0,0,0,,,,,,,,0,,,71,30
137040,note_on,0,0,0,,,,,,,,0,,,45,25
137040,note_on,0,0,0,,,,,,,,0,,,56,25
137050,note_on,10,0,0,,,,,,,,0,,,76,0
137050,note_on,0,0,0,,,,,,,,0,,,52,0
137160,note_on,110,0,0,,,,,,,,0,,,62,0
137160,note_on,0,0,0,,,,,,,,0,,,71,0
137160,note_on,0,0,0,,,,,,,,0,,,64,0
137160,note_on,0,0,0,,,,,,,,0,,,56,0
137160,note_on,0,0,0,,,,,,,,0,,,45,0
137280,set_tempo,120,1,0,,,,,,1153846,,,,,,
137280,note_on,0,0,0,,,,,,,,0,,,88,52
137280,note_on,0,0,0,,,,,,,,0,,,64,44
137319,control_change,39,0,0,,,,,,,,0,64,127,,
137360,set_tempo,41,1,0,,,,,,916031,,,,,,
137360,note_on,0,0,0,,,,,,,,0,,,64,0
137360,note_on,0,0,0,,,,,,,,0,,,88,0
137360,note_on,0,0,0,,,,,,,,0,,,89,45
137360,note_on,0,0,0,,,,,,,,0,,,65,37
137440,note_on,80,0,0,,,,,,,,0,,,65,0
137440,note_on,0,0,0,,,,,,,,0,,,89,0
137440,note_on,0,0,0,,,,,,,,0,,,88,45
137440,note_on,0,0,0,,,,,,,,0,,,64,37
137520,set_tempo,80,1,0,,,,,,1142857,,,,,,
137520,note_on,0,0,0,,,,,,,,0,,,64,0
137520,note_on,0,0,0,,,,,,,,0,,,88,0
137520,note_on,0,0,0,,,,,,,,0,,,84,49
137520,note_on,0,0,0,,,,,,,,0,,,60,41
137532,control_change,12,0,0,,,,,,,,0,64,0,,
137576,control_change,44,0,0,,,,,,,,0,64,127,,
137760,set_tempo,184,1,0,,,,,,944882,,,,,,
137760,note_on,0,0,0,,,,,,,,0,,,72,37
137760,note_on,0,0,0,,,,,,,,0,,,76,37
137760,note_on,0,0,0,,,,,,,,0,,,45,31
137760,note_on,0,0,0,,,,,,,,0,,,52,31
137852,control_change,92,0,0,,,,,,,,0,64,0,,
137880,note_on,28,0,0,,,,,,,,0,,,52,0
137880,note_on,0,0,0,,,,,,,,0,,,76,0
137880,note_on,0,0,0,,,,,,,,0,,,72,0
137880,note_on,0,0,0,,,,,,,,0,,,45,0
138000,set_tempo,120,1,0,,,,,,789474,,,,,,
138000,note_on,0,0,0,,,,,,,,0,,,84,0
138000,note_on,0,0,0,,,,,,,,0,,,60,0
138000,note_on,0,0,0,,,,,,,,0,,,64,45
138000,note_on,0,0,0,,,,,,,,0,,,60,54
138000,note_on,0,0,0,,,,,,,,0,,,57,45
138028,control_change,28,0,0,,,,,,,,0,64,127,,
138080,note_on,52,0,0,,,,,,,,0,,,57,0
138080,note_on,0,0,0,,,,,,,,0,,,60,0
138080,note_on,0,0,0,,,,,,,,0,,,62,53
138080,note_on,0,0,0,,,,,,,,0,,,59,44
138160,note_on,80,0,0,,,,,,,,0,,,59,0
138160,note_on,0,0,0,,,,,,,,0,,,62,0
138160,note_on,0,0,0,,,,,,,,0,,,60,56
138160,note_on,0,0,0,,,,,,,,0,,,57,46
138240,set_tempo,80,1,0,,,,,,745342,,,,,,
138240,note_on,0,0,0,,,,,,,,0,,,57,0
138240,note_on,0,0,0,,,,,,,,0,,,60,0
138240,note_on,0,0,0,,,,,,,,0,,,64,0
138240,note_on,0,0,0,,,,,,,,0,,,64,51
138240,note_on,0,0,0,,,,,,,,0,,,59,63
138240,note_on,0,0,0,,,,,,,,0,,,56,53
138250,control_change,10,0,0,,,,,,,,0,64,0,,
138274,control_change,24,0,0,,,,,,,,0,64,127,,
138320,note_on,46,0,0,,,,,,,,0,,,56,0
138320,note_on,0,0,0,,,,,,,,0,,,59,0
138320,note_on,0,0,0,,,,,,,,0,,,60,63
138320,note_on,0,0,0,,,,,,,,0,,,57,53
138400,note_on,80,0,0,,,,,,,,0,,,57,0
138400,note_on,0,0,0,,,,,,,,0,,,60,0
138400,note_on,0,0,0,,,,,,,,0,,,59,67
138400,note_on,0,0,0,,,,,,,,0,,,55,56
138480,set_tempo,80,1,0,,,,,,769231,,,,,,
138480,note_on,0,0,0,,,,,,,,0,,,55,0
138480,note_on,0,0,0,,,,,,,,0,,,59,0
138480,note_on,0,0,0,,,,,,,,0,,,64,0
138480,note_on,0,0,0,,,,,,,,0,,,63,56
138480,note_on,0,0,0,,,,,,,,0,,,69,72
138480,note_on,0,0,0,,,,,,,,0,,,54,61
138491,control_change,11,0,0,,,,,,,,0,64,0,,
138520,control_change,29,0,0,,,,,,,,0,64,127,,
138560,note_on,40,0,0,,,,,,,,0,,,54,0
138560,note_on,0,0,0,,,,,,,,0,,,69,0
138560,note_on,0,0,0,,,,,,,,0,,,71,67
138560,note_on,0,0,0,,,,,,,,0,,,55,56
138640,note_on,80,0,0,,,,,,,,0,,,55,0
138640,note_on,0,0,0,,,,,,,,0,,,71,0
138640,note_on,0,0,0,,,,,,,,0,,,69,68
138640,note_on,0,0,0,,,,,,,,0,,,53,57
138720,set_tempo,80,1,0,,,,,,789474,,,,,,
138720,note_on,0,0,0,,,,,,,,0,,,53,0
138720,note_on,0,0,0,,,,,,,,0,,,69,0
138720,note_on,0,0,0,,,,,,,,0,,,63,0
138720,note_on,0,0,0,,,,,,,,0,,,64,56
138720,note_on,0,0,0,,,,,,,,0,,,68,74
138720,note_on,0,0,0,,,,,,,,0,,,52,63
138732,control_change,12,0,0,,,,,,,,0,64,0,,
138751,control_change,19,0,0,,,,,,,,0,64,127,,
138800,note_on,49,0,0,,,,,,,,0,,,52,0
138800,note_on,0,0,0,,,,,,,,0,,,68,0
138800,note_on,0,0,0,,,,,,,,0,,,69,66
138800,note_on,0,0,0,,,,,,,,0,,,53,56
138880,set_tempo,80,1,0,,,,,,1212121,,,,,,
138880,note_on,0,0,0,,,,,,,,0,,,53,0
138880,note_on,0,0,0,,,,,,,,0,,,69,0
138880,note_on,0,0,0,,,,,,,,0,,,68,69
138880,note_on,0,0,0,,,,,,,,0,,,52,56
138960,set_tempo,80,1,0,,,,,,1008403,,,,,,
138960,note_on,0,0,0,,,,,,,,0,,,52,0
138960,note_on,0,0,0,,,,,,,,0,,,68,0
138960,note_on,0,0,0,,,,,,,,0,,,64,0
138960,note_on,0,0,0,,,,,,,,0,,,40,72
138970,control_change,10,0,0,,,,,,,,0,64,0,,
139080,note_on,110,0,0,,,,,,,,0,,,40,0
139200,set_tempo,120,1,0,,,,,,1153846,,,,,,
139200,note_on,0,0,0,,,,,,,,0,,,88,52
139200,note_on,0,0,0,,,,,,,,0,,,64,44
139226,control_change,26,0,0,,,,,,,,0,64,127,,
139280,set_tempo,54,1,0,,,,,,909091,,,,,,
139280,note_on,0,0,0,,,,,,,,0,,,64,0
139280,note_on,0,0,0,,,,,,,,0,,,88,0
139280,note_on,0,0,0,,,,,,,,0,,,89,45
139280,note_on,0,0,0,,,,,,,,0,,,65,37
139360,note_on,80,0,0,,,,,,,,0,,,65,0
139360,note_on,0,0,0,,,,,,,,0,,,89,0
139360,note_on,0,0,0,,,,,,,,0,,,88,45
139360,note_on,0,0,0,,,,,,,,0,,,64,37
139440,set_tempo,80,1,0,,,,,,1165049,,,,,,
139440,note_on,0,0,0,,,,,,,,0,,,64,0
139440,note_on,0,0,0,,,,,,,,0,,,88,0
139440,note_on,0,0,0,,,,,,,,0,,,85,49
139440,note_on,0,0,0,,,,,,,,0,,,61,41
139454,control_change,14,0,0,,,,,,,,0,64,0,,
139504,control_change,50,0,0,,,,,,,,0,64,127,,
139680,set_tempo,176,1,0,,,,,,937500,,,,,,
139680,note_on,0,0,0,,,,,,,,0,,,73,33
139680,note_on,0,0,0,,,,,,,,0,,,76,33
139680,note_on,0,0,0,,,,,,,,0,,,55,27
139680,note_on,0,0,0,,,,,,,,0,,,45,27
139680,note_on,0,0,0,,,,,,,,0,,,58,27
139761,control_change,81,0,0,,,,,,,,0,64,0,,
139800,note_on,39,0,0,,,,,,,,0,,,58,0
139800,note_on,0,0,0,,,,,,,,0,,,55,0
139800,note_on,0,0,0,,,,,,,,0,,,76,0
139800,note_on,0,0,0,,,,,,,,0,,,73,0
139800,note_on,0,0,0,,,,,,,,0,,,45,0
139920,set_tempo,120,1,0,,,,,,1008403,,,,,,
139920,note_on,0,0,0,,,,,,,,0,,,85,0
139920,note_on,0,0,0,,,,,,,,0,,,61,0
139920,note_on,0,0,0,,,,,,,,0,,,81,48
139920,note_on,0,0,0,,,,,,,,0,,,57,40
140000,set_tempo,80,1,0,,,,,,895522,,,,,,
140000,note_on,0,0,0,,,,,,,,0,,,82,45
140000,note_on,0,0,0,,,,,,,,0,,,58,37
140010,note_on,10,0,0,,,,,,,,0,,,57,0
140010,note_on,0,0,0,,,,,,,,0,,,81,0
140080,note_on,70,0,0,,,,,,,,0,,,81,45
140080,note_on,0,0,0,,,,,,,,0,,,57,37
140090,note_on,10,0,0,,,,,,,,0,,,82,0
140090,note_on,0,0,0,,,,,,,,0,,,58,0
140160,set_tempo,70,1,0,,,,,,909091,,,,,,
140160,note_on,0,0,0,,,,,,,,0,,,86,47
140160,note_on,0,0,0,,,,,,,,0,,,62,40
140170,note_on,10,0,0,,,,,,,,0,,,81,0
140170,note_on,0,0,0,,,,,,,,0,,,57,0
140240,note_on,70,0,0,,,,,,,,0,,,88,45
140240,note_on,0,0,0,,,,,,,,0,,,64,37
140250,note_on,10,0,0,,,,,,,,0,,,86,0
140250,note_on,0,0,0,,,,,,,,0,,,62,0
140320,set_tempo,70,1,0,,,,,,1200000,,,,,,
140320,note_on,0,0,0,,,,,,,,0,,,86,45
140320,note_on,0,0,0,,,,,,,,0,,,62,37
140330,note_on,10,0,0,,,,,,,,0,,,88,0
140330,note_on,0,0,0,,,,,,,,0,,,64,0
140400,set_tempo,70,1,0,,,,,,902256,,,,,,
140400,note_on,0,0,0,,,,,,,,0,,,61,57
140400,note_on,0,0,0,,,,,,,,0,,,69,67
140410,note_on,10,0,0,,,,,,,,0,,,86,0
140410,note_on,0,0,0,,,,,,,,0,,,62,0
140414,control_change,4,0,0,,,,,,,,0,64,127,,
140480,set_tempo,66,1,0,,,,,,810811,,,,,,
140480,note_on,0,0,0,,,,,,,,0,,,64,53
140480,note_on,0,0,0,,,,,,,,0,,,70,62
140560,note_on,80,0,0,,,,,,,,0,,,69,62
140570,note_on,10,0,0,,,,,,,,0,,,70,0
140570,note_on,0,0,0,,,,,,,,0,,,64,0
140640,set_tempo,70,1,0,,,,,,869565,,,,,,
140640,note_on,0,0,0,,,,,,,,0,,,69,0
140640,note_on,0,0,0,,,,,,,,0,,,61,0
140640,note_on,0,0,0,,,,,,,,0,,,57,56
140640,note_on,0,0,0,,,,,,,,0,,,65,65
140650,note_on,10,0,0,,,,,,,,0,,,69,0
140653,control_change,3,0,0,,,,,,,,0,64,0,,
140694,control_change,41,0,0,,,,,,,,0,64,127,,
140720,note_on,26,0,0,,,,,,,,0,,,62,52
140720,note_on,0,0,0,,,,,,,,0,,,67,61
140800,set_tempo,80,1,0,,,,,,3076923,,,,,,
140800,note_on,0,0,0,,,,,,,,0,,,65,61
140810,note_on,10,0,0,,,,,,,,0,,,67,0
140810,note_on,0,0,0,,,,,,,,0,,,62,0
140820,set_tempo,10,1,0,,,,,,991736,,,,,,
140820,note_on,0,0,0,,,,,,,,0,,,57,0
140820,note_on,0,0,0,,,,,,,,0,,,65,0
140820,note_on,0,0,0,,,,,,,,0,,,53,69
140850,note_on,30,0,0,,,,,,,,0,,,57,72
140880,set_tempo,30,1,0,,,,,,789474,,,,,,
140880,note_on,0,0,0,,,,,,,,0,,,62,73
140890,note_on,10,0,0,,,,,,,,0,,,65,0
140891,control_change,1,0,0,,,,,,,,0,64,0,,
141000,note_on,109,0,0,,,,,,,,0,,,53,0
141000,note_on,0,0,0,,,,,,,,0,,,57,0
141000,note_on,0,0,0,,,,,,,,0,,,62,0
141120,set_tempo,120,1,0,,,,,,1153846,,,,,,
141120,note_on,0,0,0,,,,,,,,0,,,86,52
141120,note_on,0,0,0,,,,,,,,0,,,62,44
141148,control_change,28,0,0,,,,,,,,0,64,127,,
141200,set_tempo,52,1,0,,,,,,909091,,,,,,
141200,note_on,0,0,0,,,,,,,,0,,,62,0
141200,note_on,0,0,0,,,,,,,,0,,,86,0
141200,note_on,0,0,0,,,,,,,,0,,,88,45
141200,note_on,0,0,0,,,,,,,,0,,,64,37
141280,note_on,80,0,0,,,,,,,,0,,,64,0
141280,note_on,0,0,0,,,,,,,,0,,,88,0
141280,note_on,0,0,0,,,,,,,,0,,,86,45
141280,note_on,0,0,0,,,,,,,,0,,,62,37
141360,set_tempo,80,1,0,,,,,,1165049,,,,,,
141360,note_on,0,0,0,,,,,,,,0,,,62,0
141360,note_on,0,0,0,,,,,,,,0,,,86,0
141360,note_on,0,0,0,,,,,,,,0,,,83,49
141360,note_on,0,0,0,,,,,,,,0,,,59,41
141374,control_change,14,0,0,,,,,,,,0,64,0,,
141424,control_change,50,0,0,,,,,,,,0,64,127,,
141600,set_tempo,176,1,0,,,,,,937500,,,,,,
141600,note_on,0,0,0,,,,,,,,0,,,71,33
141600,note_on,0,0,0,,,,,,,,0,,,74,33
141600,note_on,0,0,0,,,,,,,,0,,,53,27
141600,note_on,0,0,0,,,,,,,,0,,,43,27
141600,note_on,0,0,0,,,,,,,,0,,,56,27
141681,control_change,81,0,0,,,,,,,,0,64,0,,
141720,note_on,39,0,0,,,,,,,,0,,,56,0
141720,note_on,0,0,0,,,,,,,,0,,,53,0
141720,note_on,0,0,0,,,,,,,,0,,,74,0
141720,note_on,0,0,0,,,,,,,,0,,,71,0
141720,note_on,0,0,0,,,,,,,,0,,,43,0
141840,set_tempo,120,1,0,,,,,,1008403,,,,,,
141840,note_on,0,0,0,,,,,,,,0,,,83,0
141840,note_on,0,0,0,,,,,,,,0,,,59,0
141840,note_on,0,0,0,,,,,,,,0,,,79,48
141840,note_on,0,0,0,,,,,,,,0,,,55,40
141920,set_tempo,80,1,0,,,,,,895522,,,,,,
141920,note_on,0,0,0,,,,,,,,0,,,81,45
141920,note_on,0,0,0,,,,,,,,0,,,57,37
141930,note_on,10,0,0,,,,,,,,0,,,55,0
141930,note_on,0,0,0,,,,,,,,0,,,79,0
142000,note_on,70,0,0,,,,,,,,0,,,79,45
142000,note_on,0,0,0,,,,,,,,0,,,55,37
142010,note_on,10,0,0,,,,,,,,0,,,81,0
142010,note_on,0,0,0,,,,,,,,0,,,57,0
142080,set_tempo,70,1,0,,,,,,909091,,,,,,
142080,note_on,0,0,0,,,,,,,,0,,,84,47
142080,note_on,0,0,0,,,,,,,,0,,,60,40
142090,note_on,10,0,0,,,,,,,,0,,,79,0
142090,note_on,0,0,0,,,,,,,,0,,,55,0
142160,note_on,70,0,0,,,,,,,,0,,,86,45
142160,note_on,0,0,0,,,,,,,,0,,,62,37
142170,note_on,10,0,0,,,,,,,,0,,,84,0
142170,note_on,0,0,0,,,,,,,,0,,,60,0
142240,set_tempo,70,1,0,,,,,,1200000,,,,,,
142240,note_on,0,0,0,,,,,,,,0,,,84,45
142240,note_on,0,0,0,,,,,,,,0,,,60,37
142250,note_on,10,0,0,,,,,,,,0,,,86,0
142250,note_on,0,0,0,,,,,,,,0,,,62,0
142320,set_tempo,70,1,0,,,,,,902256,,,,,,
142320,note_on,0,0,0,,,,,,,,0,,,59,57
142320,note_on,0,0,0,,,,,,,,0,,,67,67
142330,note_on,10,0,0,,,,,,,,0,,,84,0
142330,note_on,0,0,0,,,,,,,,0,,,60,0
142370,control_change,40,0,0,,,,,,,,0,64,127,,
142400,set_tempo,30,1,0,,,,,,810811,,,,,,
142400,note_on,0,0,0,,,,,,,,0,,,62,53
142400,note_on,0,0,0,,,,,,,,0,,,69,62
142480,note_on,80,0,0,,,,,,,,0,,,67,62
142490,note_on,10,0,0,,,,,,,,0,,,69,0
142490,note_on,0,0,0,,,,,,,,0,,,62,0
142560,set_tempo,70,1,0,,,,,,869565,,,,,,
142560,note_on,0,0,0,,,,,,,,0,,,67,0
142560,note_on,0,0,0,,,,,,,,0,,,59,0
142560,note_on,0,0,0,,,,,,,,0,,,55,56
142560,note_on,0,0,0,,,,,,,,0,,,64,65
142570,note_on,10,0,0,,,,,,,,0,,,67,0
142573,control_change,3,0,0,,,,,,,,0,64,0,,
142614,control_change,41,0,0,,,,,,,,0,64,127,,
142640,note_on,26,0,0,,,,,,,,0,,,60,52
142640,note_on,0,0,0,,,,,,,,0,,,65,61
142720,set_tempo,80,1,0,,,,,,3076923,,,,,,
142720,note_on,0,0,0,,,,,,,,0,,,64,61
142730,note_on,10,0,0,,,,,,,,0,,,65,0
142730,note_on,0,0,0,,,,,,,,0,,,60,0
142740,set_tempo,10,1,0,,,,,,991736,,,,,,
142740,note_on,0,0,0,,,,,,,,0,,,55,0
142740,note_on,0,0,0,,,,,,,,0,,,64,0
142740,note_on,0,0,0,,,,,,,,0,,,52,69
142770,note_on,30,0,0,,,,,,,,0,,,55,72
142800,set_tempo,30,1,0,,,,,,1276596,,,,,,
142800,note_on,0,0,0,,,,,,,,0,,,60,73
142810,note_on,10,0,0,,,,,,,,0,,,64,0
142811,control_change,1,0,0,,,,,,,,0,64,0,,
142920,note_on,109,0,0,,,,,,,,0,,,52,0
142920,note_on,0,0,0,,,,,,,,0,,,55,0
142920,note_on,0,0,0,,,,,,,,0,,,60,0
143040,set_tempo,120,1,0,,,,,,1237113,,,,,,
143040,note_on,0,0,0,,,,,,,,0,,,86,52
143040,note_on,0,0,0,,,,,,,,0,,,62,44
143067,control_change,27,0,0,,,,,,,,0,64,127,,
143120,set_tempo,53,1,0,,,,,,1034483,,,,,,
143120,note_on,0,0,0,,,,,,,,0,,,62,0
143120,note_on,0,0,0,,,,,,,,0,,,86,0
143120,note_on,0,0,0,,,,,,,,0,,,88,45
143120,note_on,0,0,0,,,,,,,,0,,,64,37
143200,note_on,80,0,0,,,,,,,,0,,,64,0
143200,note_on,0,0,0,,,,,,,,0,,,88,0
143200,note_on,0,0,0,,,,,,,,0,,,86,45
143200,note_on,0,0,0,,,,,,,,0,,,62,37
143280,set_tempo,80,1,0,,,,,,1318681,,,,,,
143280,note_on,0,0,0,,,,,,,,0,,,62,0
143280,note_on,0,0,0,,,,,,,,0,,,86,0
143280,note_on,0,0,0,,,,,,,,0,,,89,49
143280,note_on,0,0,0,,,,,,,,0,,,65,41
143294,control_change,14,0,0,,,,,,,,0,64,0,,
143344,control_change,50,0,0,,,,,,,,0,64,127,,
143520,set_tempo,176,1,0,,,,,,1690141,,,,,,
143520,note_on,0,0,0,,,,,,,,0,,,77,33
143520,note_on,0,0,0,,,,,,,,0,,,80,33
143520,note_on,0,0,0,,,,,,,,0,,,50,27
143520,note_on,0,0,0,,,,,,,,0,,,59,27
143601,control_change,81,0,0,,,,,,,,0,64,0,,
143640,note_on,39,0,0,,,,,,,,0,,,59,0
143640,note_on,0,0,0,,,,,,,,0,,,80,0
143640,note_on,0,0,0,,,,,,,,0,,,77,0
143640,note_on,0,0,0,,,,,,,,0,,,50,0
143760,set_tempo,120,1,0,,,,,,1008403,,,,,,
143760,note_on,0,0,0,,,,,,,,0,,,89,0
143760,note_on,0,0,0,,,,,,,,0,,,65,0
143760,note_on,0,0,0,,,,,,,,0,,,62,36
143760,note_on,0,0,0,,,,,,,,0,,,65,36
143760,note_on,0,0,0,,,,,,,,0,,,68,43
143760,note_on,0,0,0,,,,,,,,0,,,71,44
143800,note_on,40,0,0,,,,,,,,0,,,71,0
143800,note_on,0,0,0,,,,,,,,0,,,62,0
143800,note_on,0,0,0,,,,,,,,0,,,65,0
143800,note_on,0,0,0,,,,,,,,0,,,68,0
143800,note_on,0,0,0,,,,,,,,0,,,64,33
143800,note_on,0,0,0,,,,,,,,0,,,72,33
143840,set_tempo,40,1,0,,,,,,895522,,,,,,
143840,note_on,0,0,0,,,,,,,,0,,,72,0
143840,note_on,0,0,0,,,,,,,,0,,,64,0
143840,note_on,0,0,0,,,,,,,,0,,,62,33
143840,note_on,0,0,0,,,,,,,,0,,,71,33
143860,note_on,20,0,0,,,,,,,,0,,,71,0
143860,note_on,0,0,0,,,,,,,,0,,,62,0
143940,set_tempo,80,1,0,,,,,,2727273,,,,,,
144000,set_tempo,60,1,0,,,,,,1237113,,,,,,
144000,note_on,0,0,0,,,,,,,,0,,,84,52
144000,note_on,0,0,0,,,,,,,,0,,,60,44
144026,control_change,26,0,0,,,,,,,,0,64,127,,
144080,set_tempo,54,1,0,,,,,,1034483,,,,,,
144080,note_on,0,0,0,,,,,,,,0,,,60,0
144080,note_on,0,0,0,,,,,,,,0,,,84,0
144080,note_on,0,0,0,,,,,,,,0,,,86,45
144080,note_on,0,0,0,,,,,,,,0,,,62,37
144160,note_on,80,0,0,,,,,,,,0,,,62,0
144160,note_on,0,0,0,,,,,,,,0,,,86,0
144160,note_on,0,0,0,,,,,,,,0,,,84,45
144160,note_on,0,0,0,,,,,,,,0,,,60,37
144240,set_tempo,80,1,0,,,,,,1318681,,,,,,
144240,note_on,0,0,0,,,,,,,,0,,,60,0
144240,note_on,0,0,0,,,,,,,,0,,,84,0
144240,note_on,0,0,0,,,,,,,,0,,,88,49
144240,note_on,0,0,0,,,,,,,,0,,,64,41
144254,control_change,14,0,0,,,,,,,,0,64,0,,
144304,control_change,50,0,0,,,,,,,,0,64,127,,
144480,set_tempo,176,1,0,,,,,,1518987,,,,,,
144480,note_on,0,0,0,,,,,,,,0,,,76,33
144480,note_on,0,0,0,,,,,,,,0,,,81,33
144480,note_on,0,0,0,,,,,,,,0,,,48,27
144480,note_on,0,0,0,,,,,,,,0,,,57,27
144561,control_change,81,0,0,,,,,,,,0,64,0,,
144600,note_on,39,0,0,,,,,,,,0,,,57,0
144600,note_on,0,0,0,,,,,,,,0,,,81,0
144600,note_on,0,0,0,,,,,,,,0,,,76,0
144600,note_on,0,0,0,,,,,,,,0,,,48,0
144720,set_tempo,120,1,0,,,,,,1008403,,,,,,
144720,note_on,0,0,0,,,,,,,,0,,,88,0
144720,note_on,0,0,0,,,,,,,,0,,,64,0
144720,note_on,0,0,0,,,,,,,,0,,,60,36
144720,note_on,0,0,0,,,,,,,,0,,,64,43
144720,note_on,0,0,0,,,,,,,,0,,,69,44
144760,note_on,40,0,0,,,,,,,,0,,,69,0
144760,note_on,0,0,0,,,,,,,,0,,,64,0
144760,note_on,0,0,0,,,,,,,,0,,,60,0
144760,note_on,0,0,0,,,,,,,,0,,,62,33
144760,note_on,0,0,0,,,,,,,,0,,,70,33
144800,set_tempo,40,1,0,,,,,,895522,,,,,,
144800,note_on,0,0,0,,,,,,,,0,,,70,0
144800,note_on,0,0,0,,,,,,,,0,,,62,0
144800,note_on,0,0,0,,,,,,,,0,,,60,33
144800,note_on,0,0,0,,,,,,,,0,,,69,33
144820,note_on,20,0,0,,,,,,,,0,,,69,0
144820,note_on,0,0,0,,,,,,,,0,,,60,0
144900,set_tempo,80,1,0,,,,,,3333333,,,,,,
144960,set_tempo,60,1,0,,,,,,902256,,,,,,
144960,note_on,0,0,0,,,,,,,,0,,,65,45
144960,note_on,0,0,0,,,,,,,,0,,,71,45
144960,note_on,0,0,0,,,,,,,,0,,,50,27
145000,note_on,40,0,0,,,,,,,,0,,,71,0
145000,note_on,0,0,0,,,,,,,,0,,,65,0
145000,note_on,0,0,0,,,,,,,,0,,,69,31
145000,note_on,0,0,0,,,,,,,,0,,,72,31
145040,note_on,40,0,0,,,,,,,,0,,,72,0
145040,note_on,0,0,0,,,,,,,,0,,,69,0
145040,note_on,0,0,0,,,,,,,,0,,,65,27
145040,note_on,0,0,0,,,,,,,,0,,,71,27
145060,note_on,20,0,0,,,,,,,,0,,,71,0
145060,note_on,0,0,0,,,,,,,,0,,,65,0
145080,set_tempo,20,1,0,,,,,,1081081,,,,,,
145200,set_tempo,120,1,0,,,,,,923077,,,,,,
145200,note_on,0,0,0,,,,,,,,0,,,50,0
145200,note_on,0,0,0,,,,,,,,0,,,69,47
145200,note_on,0,0,0,,,,,,,,0,,,77,47
145200,note_on,0,0,0,,,,,,,,0,,,65,28
145200,note_on,0,0,0,,,,,,,,0,,,62,28
145240,note_on,40,0,0,,,,,,,,0,,,77,0
145240,note_on,0,0,0,,,,,,,,0,,,69,0
145240,note_on,0,0,0,,,,,,,,0,,,71,32
145240,note_on,0,0,0,,,,,,,,0,,,79,32
145280,note_on,40,0,0,,,,,,,,0,,,79,0
145280,note_on,0,0,0,,,,,,,,0,,,71,0
145280,note_on,0,0,0,,,,,,,,0,,,69,28
145280,note_on,0,0,0,,,,,,,,0,,,77,28
145300,note_on,20,0,0,,,,,,,,0,,,77,0
145300,note_on,0,0,0,,,,,,,,0,,,69,0
145320,set_tempo,20,1,0,,,,,,1061947,,,,,,
145440,set_tempo,120,1,0,,,,,,916031,,,,,,
145440,note_on,0,0,0,,,,,,,,0,,,65,0
145440,note_on,0,0,0,,,,,,,,0,,,62,0
145440,note_on,0,0,0,,,,,,,,0,,,68,49
145440,note_on,0,0,0,,,,,,,,0,,,76,49
145440,note_on,0,0,0,,,,,,,,0,,,52,29
145480,note_on,40,0,0,,,,,,,,0,,,76,0
145480,note_on,0,0,0,,,,,,,,0,,,68,0
145480,note_on,0,0,0,,,,,,,,0,,,77,34
145480,note_on,0,0,0,,,,,,,,0,,,71,34
145520,note_on,40,0,0,,,,,,,,0,,,71,0
145520,note_on,0,0,0,,,,,,,,0,,,77,0
145520,note_on,0,0,0,,,,,,,,0,,,68,30
145520,note_on,0,0,0,,,,,,,,0,,,76,30
145540,note_on,20,0,0,,,,,,,,0,,,76,0
145540,note_on,0,0,0,,,,,,,,0,,,68,0
145560,set_tempo,20,1,0,,,,,,1100917,,,,,,
145680,set_tempo,120,1,0,,,,,,902256,,,,,,
145680,note_on,0,0,0,,,,,,,,0,,,52,0
145680,note_on,0,0,0,,,,,,,,0,,,74,51
145680,note_on,0,0,0,,,,,,,,0,,,83,51
145680,note_on,0,0,0,,,,,,,,0,,,68,31
145680,note_on,0,0,0,,,,,,,,0,,,64,31
145720,note_on,40,0,0,,,,,,,,0,,,83,0
145720,note_on,0,0,0,,,,,,,,0,,,74,0
145720,note_on,0,0,0,,,,,,,,0,,,76,35
145720,note_on,0,0,0,,,,,,,,0,,,84,35
145760,note_on,40,0,0,,,,,,,,0,,,84,0
145760,note_on,0,0,0,,,,,,,,0,,,76,0
145760,note_on,0,0,0,,,,,,,,0,,,74,31
145760,note_on,0,0,0,,,,,,,,0,,,83,31
145780,note_on,20,0,0,,,,,,,,0,,,83,0
145780,note_on,0,0,0,,,,,,,,0,,,74,0
145800,set_tempo,20,1,0,,,,,,1061947,,,,,,
145920,set_tempo,120,1,0,,,,,,909091,,,,,,
145920,note_on,0,0,0,,,,,,,,0,,,68,0
145920,note_on,0,0,0,,,,,,,,0,,,64,0
145920,note_on,0,0,0,,,,,,,,0,,,72,53
145920,note_on,0,0,0,,,,,,,,0,,,81,53
145920,note_on,0,0,0,,,,,,,,0,,,64,32
145920,note_on,0,0,0,,,,,,,,0,,,69,32
145920,note_on,0,0,0,,,,,,,,0,,,57,32
145960,note_on,40,0,0,,,,,,,,0,,,81,0
145960,note_on,0,0,0,,,,,,,,0,,,72,0
145960,note_on,0,0,0,,,,,,,,0,,,76,36
145960,note_on,0,0,0,,,,,,,,0,,,83,36
146000,note_on,40,0,0,,,,,,,,0,,,83,0
146000,note_on,0,0,0,,,,,,,,0,,,76,0
146000,note_on,0,0,0,,,,,,,,0,,,72,32
146000,note_on,0,0,0,,,,,,,,0,,,81,32
146020,note_on,20,0,0,,,,,,,,0,,,81,0
146020,note_on,0,0,0,,,,,,,,0,,,72,0
146040,set_tempo,20,1,0,,,,,,1363636,,,,,,
146160,set_tempo,120,1,0,,,,,,975610,,,,,,
146160,note_on,0,0,0,,,,,,,,0,,,69,0
146160,note_on,0,0,0,,,,,,,,0,,,64,0
146160,note_on,0,0,0,,,,,,,,0,,,57,0
146160,note_on,0,0,0,,,,,,,,0,,,81,45
146160,note_on,0,0,0,,,,,,,,0,,,89,45
146160,note_on,0,0,0,,,,,,,,0,,,38,27
146160,note_on,0,0,0,,,,,,,,0,,,45,27
146200,note_on,40,0,0,,,,,,,,0,,,89,0
146200,note_on,0,0,0,,,,,,,,0,,,81,0
146200,note_on,0,0,0,,,,,,,,0,,,86,31
146200,note_on,0,0,0,,,,,,,,0,,,91,31
146240,note_on,40,0,0,,,,,,,,0,,,91,0
146240,note_on,0,0,0,,,,,,,,0,,,86,0
146240,note_on,0,0,0,,,,,,,,0,,,81,27
146240,note_on,0,0,0,,,,,,,,0,,,89,27
146260,note_on,20,0,0,,,,,,,,0,,,89,0
146260,note_on,0,0,0,,,,,,,,0,,,81,0
146280,set_tempo,20,1,0,,,,,,1690141,,,,,,
146280,note_on,0,0,0,,,,,,,,0,,,38,0
146280,note_on,0,0,0,,,,,,,,0,,,45,0
146400,note_on,120,0,0,,,,,,,,0,,,96,40
146400,note_on,0,0,0,,,,,,,,0,,,88,34
146400,note_on,0,0,0,,,,,,,,0,,,84,34
146400,note_on,0,0,0,,,,,,,,0,,,33,27
146400,note_on,0,0,0,,,,,,,,0,,,45,27
146520,note_on,120,0,0,,,,,,,,0,,,45,0
146520,note_on,0,0,0,,,,,,,,0,,,84,0
146520,note_on,0,0,0,,,,,,,,0,,,96,0
146520,note_on,0,0,0,,,,,,,,0,,,88,0
146520,note_on,0,0,0,,,,,,,,0,,,33,0
146880,set_tempo,360,1,0,,,,,,409836,,,,,,
146880,marker,0,1,0,,,,,,,,,,,,
146880,note_on,0,0,0,,,,,,,,0,,,64,83
146880,note_on,0,0,0,,,,,,,,0,,,57,67
146880,note_on,0,0,0,,,,,,,,0,,,60,67
146880,note_on,0,0,0,,,,,,,,0,,,52,86
146880,note_on,0,0,0,,,,,,,,0,,,45,72
146936,control_change,56,0,0,,,,,,,,0,64,127,,
147000,note_on,64,0,0,,,,,,,,0,,,45,0
147000,note_on,0,0,0,,,,,,,,0,,,60,0
147000,note_on,0,0,0,,,,,,,,0,,,64,0
147000,note_on,0,0,0,,,,,,,,0,,,57,0
147000,note_on,0,0,0,,,,,,,,0,,,52,0
147120,set_tempo,120,1,0,,,,,,328228,,,,,,
147120,note_on,0,0,0,,,,,,,,0,,,48,45
147120,note_on,0,0,0,,,,,,,,0,,,52,54
147152,control_change,32,0,0,,,,,,,,0,64,0,,
147240,note_on,88,0,0,,,,,,,,0,,,52,0
147240,note_on,0,0,0,,,,,,,,0,,,48,0
147240,note_on,0,0,0,,,,,,,,0,,,64,61
147360,note_on,120,0,0,,,,,,,,0,,,64,0
147360,note_on,0,0,0,,,,,,,,0,,,52,54
147360,note_on,0,0,0,,,,,,,,0,,,47,45
147451,control_change,91,0,0,,,,,,,,0,64,127,,
147480,note_on,29,0,0,,,,,,,,0,,,47,0
147480,note_on,0,0,0,,,,,,,,0,,,52,0
147480,note_on,0,0,0,,,,,,,,0,,,64,61
147480,note_on,0,0,0,,,,,,,,0,,,62,51
147600,set_tempo,120,1,0,,,,,,364742,,,,,,
147600,note_on,0,0,0,,,,,,,,0,,,62,0
147600,note_on,0,0,0,,,,,,,,0,,,64,0
147600,note_on,0,0,0,,,,,,,,0,,,52,54
147600,note_on,0,0,0,,,,,,,,0,,,45,45
147619,control_change,19,0,0,,,,,,,,0,64,0,,
147720,note_on,101,0,0,,,,,,,,0,,,45,0
147720,note_on,0,0,0,,,,,,,,0,,,52,0
147720,note_on,0,0,0,,,,,,,,0,,,64,58
147720,note_on,0,0,0,,,,,,,,0,,,60,46
147810,note_on,90,0,0,,,,,,,,0,,,60,0
147810,note_on,0,0,0,,,,,,,,0,,,64,0
147840,set_tempo,30,1,0,,,,,,364078,,,,,,
147840,note_on,0,0,0,,,,,,,,0,,,52,63
147840,note_on,0,0,0,,,,,,,,0,,,44,54
147914,control_change,74,0,0,,,,,,,,0,64,127,,
147960,note_on,46,0,0,,,,,,,,0,,,44,0
147960,note_on,0,0,0,,,,,,,,0,,,52,0
147960,note_on,0,0,0,,,,,,,,0,,,64,68
147960,note_on,0,0,0,,,,,,,,0,,,59,50
148080,set_tempo,120,1,0,,,,,,345224,,,,,,
148080,note_on,0,0,0,,,,,,,,0,,,59,0
148080,note_on,0,0,0,,,,,,,,0,,,64,0
148080,note_on,0,0,0,,,,,,,,0,,,52,57
148080,note_on,0,0,0,,,,,,,,0,,,40,48
148092,control_change,12,0,0,,,,,,,,0,64,0,,
148200,note_on,108,0,0,,,,,,,,0,,,40,0
148200,note_on,0,0,0,,,,,,,,0,,,52,0
148200,note_on,0,0,0,,,,,,,,0,,,71,60
148200,note_on,0,0,0,,,,,,,,0,,,59,45
148200,note_on,0,0,0,,,,,,,,0,,,64,45
148320,set_tempo,120,1,0,,,,,,364078,,,,,,
148320,note_on,0,0,0,,,,,,,,0,,,64,0
148320,note_on,0,0,0,,,,,,,,0,,,59,0
148320,note_on,0,0,0,,,,,,,,0,,,71,0
148320,note_on,0,0,0,,,,,,,,0,,,42,47
148320,note_on,0,0,0,,,,,,,,0,,,52,56
148394,control_change,74,0,0,,,,,,,,0,64,127,,
148440,note_on,46,0,0,,,,,,,,0,,,52,0
148440,note_on,0,0,0,,,,,,,,0,,,42,0
148440,note_on,0,0,0,,,,,,,,0,,,64,53
148440,note_on,0,0,0,,,,,,,,0,,,57,56
148560,set_tempo,120,1,0,,,,,,454580,,,,,,
148560,note_on,0,0,0,,,,,,,,0,,,57,0
148560,note_on,0,0,0,,,,,,,,0,,,64,0
148560,note_on,0,0,0,,,,,,,,0,,,52,56
148560,note_on,0,0,0,,,,,,,,0,,,44,47
148572,control_change,12,0,0,,,,,,,,0,64,0,,
148680,note_on,108,0,0,,,,,,,,0,,,44,0
148680,note_on,0,0,0,,,,,,,,0,,,52,0
148680,note_on,0,0,0,,,,,,,,0,,,64,52
148680,note_on,0,0,0,,,,,,,,0,,,59,54
148770,note_on,90,0,0,,,,,,,,0,,,59,0
148770,note_on,0,0,0,,,,,,,,0,,,64,0
148800,set_tempo,30,1,0,,,,,,393701,,,,,,
148800,note_on,0,0,0,,,,,,,,0,,,64,83
148800,note_on,0,0,0,,,,,,,,0,,,57,67
148800,note_on,0,0,0,,,,,,,,0,,,60,67
148800,note_on,0,0,0,,,,,,,,0,,,52,86
148800,note_on,0,0,0,,,,,,,,0,,,45,72
148856,control_change,56,0,0,,,,,,,,0,64,127,,
148920,note_on,64,0,0,,,,,,,,0,,,45,0
148920,note_on,0,0,0,,,,,,,,0,,,60,0
148920,note_on,0,0,0,,,,,,,,0,,,64,0
148920,note_on,0,0,0,,,,,,,,0,,,57,0
148920,note_on,0,0,0,,,,,,,,0,,,52,0
149040,set_tempo,120,1,0,,,,,,337458,,,,,,
149040,note_on,0,0,0,,,,,,,,0,,,52,54
149040,note_on,0,0,0,,,,,,,,0,,,48,45
149059,control_change,19,0,0,,,,,,,,0,64,0,,
149160,note_on,101,0,0,,,,,,,,0,,,48,0
149160,note_on,0,0,0,,,,,,,,0,,,52,0
149160,note_on,0,0,0,,,,,,,,0,,,64,61
149280,note_on,120,0,0,,,,,,,,0,,,64,0
149280,note_on,0,0,0,,,,,,,,0,,,52,54
149280,note_on,0,0,0,,,,,,,,0,,,47,45
149340,control_change,60,0,0,,,,,,,,0,64,127,,
149400,note_on,60,0,0,,,,,,,,0,,,47,0
149400,note_on,0,0,0,,,,,,,,0,,,52,0
149400,note_on,0,0,0,,,,,,,,0,,,64,61
149400,note_on,0,0,0,,,,,,,,0,,,62,51
149520,set_tempo,120,1,0,,,,,,361882,,,,,,
149520,note_on,0,0,0,,,,,,,,0,,,62,0
149520,note_on,0,0,0,,,,,,,,0,,,64,0
149520,control_change,0,0,0,,,,,,,,0,64,0,,
149520,note_on,0,0,0,,,,,,,,0,,,52,54
149520,note_on,0,0,0,,,,,,,,0,,,45,45
149640,note_on,120,0,0,,,,,,,,0,,,45,0
149640,note_on,0,0,0,,,,,,,,0,,,52,0
149640,note_on,0,0,0,,,,,,,,0,,,64,58
149640,note_on,0,0,0,,,,,,,,0,,,60,46
149730,note_on,90,0,0,,,,,,,,0,,,60,0
149730,note_on,0,0,0,,,,,,,,0,,,64,0
149760,set_tempo,30,1,0,,,,,,377834,,,,,,
149760,note_on,0,0,0,,,,,,,,0,,,52,63
149760,note_on,0,0,0,,,,,,,,0,,,44,54
149834,control_change,74,0,0,,,,,,,,0,64,127,,
149880,note_on,46,0,0,,,,,,,,0,,,44,0
149880,note_on,0,0,0,,,,,,,,0,,,52,0
149880,note_on,0,0,0,,,,,,,,0,,,64,63
149880,note_on,0,0,0,,,,,,,,0,,,59,50
150000,set_tempo,120,1,0,,,,,,351288,,,,,,
150000,note_on,0,0,0,,,,,,,,0,,,59,0
150000,note_on,0,0,0,,,,,,,,0,,,64,0
150000,note_on,0,0,0,,,,,,,,0,,,51,57
150000,note_on,0,0,0,,,,,,,,0,,,41,48
150017,control_change,17,0,0,,,,,,,,0,64,0,,
150120,note_on,103,0,0,,,,,,,,0,,,41,0
150120,note_on,0,0,0,,,,,,,,0,,,51,0
150120,note_on,0,0,0,,,,,,,,0,,,69,61
150120,note_on,0,0,0,,,,,,,,0,,,59,49
150120,note_on,0,0,0,,,,,,,,0,,,63,49
150240,set_tempo,120,1,0,,,,,,391134,,,,,,
150240,note_on,0,0,0,,,,,,,,0,,,63,0
150240,note_on,0,0,0,,,,,,,,0,,,59,0
150240,note_on,0,0,0,,,,,,,,0,,,69,0
150240,note_on,0,0,0,,,,,,,,0,,,52,61
150240,note_on,0,0,0,,,,,,,,0,,,40,51
150309,control_change,69,0,0,,,,,,,,0,64,127,,
150360,note_on,51,0,0,,,,,,,,0,,,40,0
150360,note_on,0,0,0,,,,,,,,0,,,52,0
150360,note_on,0,0,0,,,,,,,,0,,,68,61
150360,note_on,0,0,0,,,,,,,,0,,,64,49
150360,note_on,0,0,0,,,,,,,,0,,,59,49
150480,set_tempo,120,1,0,,,,,,458050,,,,,,
150480,note_on,0,0,0,,,,,,,,0,,,59,0
150480,note_on,0,0,0,,,,,,,,0,,,64,0
150480,note_on,0,0,0,,,,,,,,0,,,68,0
150480,note_on,0,0,0,,,,,,,,0,,,56,56
150480,note_on,0,0,0,,,,,,,,0,,,52,47
150497,control_change,17,0,0,,,,,,,,0,64,0,,
150600,note_on,103,0,0,,,,,,,,0,,,52,0
150600,note_on,0,0,0,,,,,,,,0,,,56,0
150600,note_on,0,0,0,,,,,,,,0,,,64,56
150690,note_on,90,0,0,,,,,,,,0,,,64,0
150720,set_tempo,30,1,0,,,,,,409836,,,,,,
150720,note_on,0,0,0,,,,,,,,0,,,64,71
150720,note_on,0,0,0,,,,,,,,0,,,76,88
150720,note_on,0,0,0,,,,,,,,0,,,69,71
150720,note_on,0,0,0,,,,,,,,0,,,72,71
150720,note_on,0,0,0,,,,,,,,0,,,57,90
150720,note_on,0,0,0,,,,,,,,0,,,45,75
150776,control_change,56,0,0,,,,,,,,0,64,127,,
150840,note_on,64,0,0,,,,,,,,0,,,45,0
150840,note_on,0,0,0,,,,,,,,0,,,76,0
150840,note_on,0,0,0,,,,,,,,0,,,69,0
150840,note_on,0,0,0,,,,,,,,0,,,64,0
150840,note_on,0,0,0,,,,,,,,0,,,57,0
150840,note_on,0,0,0,,,,,,,,0,,,72,0
150960,set_tempo,120,1,0,,,,,,324324,,,,,,
150960,note_on,0,0,0,,,,,,,,0,,,60,59
150960,note_on,0,0,0,,,,,,,,0,,,48,49
150973,control_change,13,0,0,,,,,,,,0,64,0,,
151080,note_on,107,0,0,,,,,,,,0,,,48,0
151080,note_on,0,0,0,,,,,,,,0,,,60,0
151080,note_on,0,0,0,,,,,,,,0,,,64,53
151080,note_on,0,0,0,,,,,,,,0,,,76,66
151200,note_on,120,0,0,,,,,,,,0,,,76,0
151200,note_on,0,0,0,,,,,,,,0,,,64,0
151200,note_on,0,0,0,,,,,,,,0,,,59,59
151200,note_on,0,0,0,,,,,,,,0,,,47,49
151306,control_change,106,0,0,,,,,,,,0,64,127,,
151320,note_on,14,0,0,,,,,,,,0,,,47,0
151320,note_on,0,0,0,,,,,,,,0,,,59,0
151320,note_on,0,0,0,,,,,,,,0,,,74,66
151320,note_on,0,0,0,,,,,,,,0,,,64,53
151324,note_on,4,0,0,,,,,,,,0,,,76,53
151440,set_tempo,116,1,0,,,,,,378549,,,,,,
151440,note_on,0,0,0,,,,,,,,0,,,64,0
151440,note_on,0,0,0,,,,,,,,0,,,74,0
151440,note_on,0,0,0,,,,,,,,0,,,57,59
151440,note_on,0,0,0,,,,,,,,0,,,45,49
151444,note_on,4,0,0,,,,,,,,0,,,76,0
151447,control_change,3,0,0,,,,,,,,0,64,0,,
151560,note_on,113,0,0,,,,,,,,0,,,45,0
151560,note_on,0,0,0,,,,,,,,0,,,57,0
151560,note_on,0,0,0,,,,,,,,0,,,64,50
151560,note_on,0,0,0,,,,,,,,0,,,76,64
151560,note_on,0,0,0,,,,,,,,0,,,72,50
151650,note_on,90,0,0,,,,,,,,0,,,72,0
151650,note_on,0,0,0,,,,,,,,0,,,76,0
151650,note_on,0,0,0,,,,,,,,0,,,64,0
151680,set_tempo,30,1,0,,,,,,368550,,,,,,
151680,note_on,0,0,0,,,,,,,,0,,,56,69
151680,note_on,0,0,0,,,,,,,,0,,,44,58
151754,control_change,74,0,0,,,,,,,,0,64,127,,
151800,note_on,46,0,0,,,,,,,,0,,,44,0
151800,note_on,0,0,0,,,,,,,,0,,,56,0
151800,note_on,0,0,0,,,,,,,,0,,,64,55
151800,note_on,0,0,0,,,,,,,,0,,,76,69
151800,note_on,0,0,0,,,,,,,,0,,,71,55
151920,set_tempo,120,1,0,,,,,,347222,,,,,,
151920,note_on,0,0,0,,,,,,,,0,,,71,0
151920,note_on,0,0,0,,,,,,,,0,,,76,0
151920,note_on,0,0,0,,,,,,,,0,,,64,0
151920,note_on,0,0,0,,,,,,,,0,,,52,63
151920,note_on,0,0,0,,,,,,,,0,,,40,54
151949,control_change,29,0,0,,,,,,,,0,64,0,,
152040,note_on,91,0,0,,,,,,,,0,,,40,0
152040,note_on,0,0,0,,,,,,,,0,,,52,0
152040,note_on,0,0,0,,,,,,,,0,,,83,62
152040,note_on,0,0,0,,,,,,,,0,,,71,48
152160,set_tempo,120,1,0,,,,,,366300,,,,,,
152160,note_on,0,0,0,,,,,,,,0,,,71,0
152160,note_on,0,0,0,,,,,,,,0,,,83,0
152160,note_on,0,0,0,,,,,,,,0,,,54,62
152160,note_on,0,0,0,,,,,,,,0,,,42,51
152234,control_change,74,0,0,,,,,,,,0,64,127,,
152280,note_on,46,0,0,,,,,,,,0,,,42,0
152280,note_on,0,0,0,,,,,,,,0,,,54,0
152280,note_on,0,0,0,,,,,,,,0,,,64,48
152280,note_on,0,0,0,,,,,,,,0,,,76,62
152280,note_on,0,0,0,,,,,,,,0,,,69,53
152400,set_tempo,120,1,0,,,,,,437988,,,,,,
152400,note_on,0,0,0,,,,,,,,0,,,69,0
152400,note_on,0,0,0,,,,,,,,0,,,76,0
152400,note_on,0,0,0,,,,,,,,0,,,64,0
152400,note_on,0,0,0,,,,,,,,0,,,56,62
152400,note_on,0,0,0,,,,,,,,0,,,44,51
152435,control_change,35,0,0,,,,,,,,0,64,0,,
152520,note_on,85,0,0,,,,,,,,0,,,44,0
152520,note_on,0,0,0,,,,,,,,0,,,56,0
152520,note_on,0,0,0,,,,,,,,0,,,64,48
152520,note_on,0,0,0,,,,,,,,0,,,76,62
152520,note_on,0,0,0,,,,,,,,0,,,71,52
152610,note_on,90,0,0,,,,,,,,0,,,71,0
152610,note_on,0,0,0,,,,,,,,0,,,76,0
152610,note_on,0,0,0,,,,,,,,0,,,64,0
152640,set_tempo,30,1,0,,,,,,393701,,,,,,
152640,note_on,0,0,0,,,,,,,,0,,,64,71
152640,note_on,0,0,0,,,,,,,,0,,,76,88
152640,note_on,0,0,0,,,,,,,,0,,,69,71
152640,note_on,0,0,0,,,,,,,,0,,,72,71
152640,note_on,0,0,0,,,,,,,,0,,,57,90
152640,note_on,0,0,0,,,,,,,,0,,,45,75
152696,control_change,56,0,0,,,,,,,,0,64,127,,
152760,note_on,64,0,0,,,,,,,,0,,,45,0
152760,note_on,0,0,0,,,,,,,,0,,,76,0
152760,note_on,0,0,0,,,,,,,,0,,,69,0
152760,note_on,0,0,0,,,,,,,,0,,,64,0
152760,note_on,0,0,0,,,,,,,,0,,,57,0
152760,note_on,0,0,0,,,,,,,,0,,,72,0
152880,set_tempo,120,1,0,,,,,,331492,,,,,,
152880,note_on,0,0,0,,,,,,,,0,,,60,60
152880,note_on,0,0,0,,,,,,,,0,,,48,50
152887,control_change,7,0,0,,,,,,,,0,64,0,,
153000,note_on,113,0,0,,,,,,,,0,,,48,0
153000,note_on,0,0,0,,,,,,,,0,,,60,0
153000,note_on,0,0,0,,,,,,,,0,,,76,68
153000,note_on,0,0,0,,,,,,,,0,,,64,57
153120,note_on,120,0,0,,,,,,,,0,,,64,0
153120,note_on,0,0,0,,,,,,,,0,,,76,0
153120,note_on,0,0,0,,,,,,,,0,,,59,61
153120,note_on,0,0,0,,,,,,,,0,,,47,51
153183,control_change,63,0,0,,,,,,,,0,64,127,,
153240,note_on,57,0,0,,,,,,,,0,,,47,0
153240,note_on,0,0,0,,,,,,,,0,,,59,0
153240,note_on,0,0,0,,,,,,,,0,,,74,70
153240,note_on,0,0,0,,,,,,,,0,,,76,59
153240,note_on,0,0,0,,,,,,,,0,,,64,59
153360,set_tempo,120,1,0,,,,,,361882,,,,,,
153360,note_on,0,0,0,,,,,,,,0,,,64,0
153360,note_on,0,0,0,,,,,,,,0,,,76,0
153360,note_on,0,0,0,,,,,,,,0,,,74,0
153360,control_change,0,0,0,,,,,,,,0,64,0,,
153360,note_on,0,0,0,,,,,,,,0,,,57,63
153360,note_on,0,0,0,,,,,,,,0,,,45,53
153480,note_on,120,0,0,,,,,,,,0,,,45,0
153480,note_on,0,0,0,,,,,,,,0,,,57,0
153480,note_on,0,0,0,,,,,,,,0,,,64,54
153480,note_on,0,0,0,,,,,,,,0,,,76,69
153480,note_on,0,0,0,,,,,,,,0,,,72,54
153570,note_on,90,0,0,,,,,,,,0,,,72,0
153570,note_on,0,0,0,,,,,,,,0,,,76,0
153570,note_on,0,0,0,,,,,,,,0,,,64,0
153600,set_tempo,30,1,0,,,,,,390117,,,,,,
153600,note_on,0,0,0,,,,,,,,0,,,56,74
153600,note_on,0,0,0,,,,,,,,0,,,44,63
153674,control_change,74,0,0,,,,,,,,0,64,127,,
153720,note_on,46,0,0,,,,,,,,0,,,44,0
153720,note_on,0,0,0,,,,,,,,0,,,56,0
153720,note_on,0,0,0,,,,,,,,0,,,64,63
153720,note_on,0,0,0,,,,,,,,0,,,76,78
153720,note_on,0,0,0,,,,,,,,0,,,71,63
153840,set_tempo,120,1,0,,,,,,349243,,,,,,
153840,note_on,0,0,0,,,,,,,,0,,,71,0
153840,note_on,0,0,0,,,,,,,,0,,,76,0
153840,note_on,0,0,0,,,,,,,,0,,,64,0
153840,note_on,0,0,0,,,,,,,,0,,,53,76
153840,note_on,0,0,0,,,,,,,,0,,,41,65
153857,control_change,17,0,0,,,,,,,,0,64,0,,
153960,note_on,103,0,0,,,,,,,,0,,,41,0
153960,note_on,0,0,0,,,,,,,,0,,,53,0
153960,note_on,0,0,0,,,,,,,,0,,,81,77
153960,note_on,0,0,0,,,,,,,,0,,,69,60
153960,note_on,0,0,0,,,,,,,,0,,,75,60
154080,set_tempo,120,1,0,,,,,,375469,,,,,,
154080,note_on,0,0,0,,,,,,,,0,,,75,0
154080,note_on,0,0,0,,,,,,,,0,,,69,0
154080,note_on,0,0,0,,,,,,,,0,,,81,0
154080,note_on,0,0,0,,,,,,,,0,,,52,78
154080,note_on,0,0,0,,,,,,,,0,,,40,64
154154,control_change,74,0,0,,,,,,,,0,64,127,,
154200,note_on,46,0,0,,,,,,,,0,,,40,0
154200,note_on,0,0,0,,,,,,,,0,,,52,0
154200,note_on,0,0,0,,,,,,,,0,,,80,79
154200,note_on,0,0,0,,,,,,,,0,,,76,61
154200,note_on,0,0,0,,,,,,,,0,,,68,61
154320,set_tempo,120,1,0,,,,,,472478,,,,,,
154320,note_on,0,0,0,,,,,,,,0,,,68,0
154320,note_on,0,0,0,,,,,,,,0,,,76,0
154320,note_on,0,0,0,,,,,,,,0,,,80,0
154320,note_on,0,0,0,,,,,,,,0,,,56,67
154320,note_on,0,0,0,,,,,,,,0,,,64,80
154320,note_on,0,0,0,,,,,,,,0,,,59,67
154337,control_change,17,0,0,,,,,,,,0,64,0,,
154440,note_on,103,0,0,,,,,,,,0,,,59,0
154440,note_on,0,0,0,,,,,,,,0,,,64,0
154440,note_on,0,0,0,,,,,,,,0,,,56,0
154440,note_on,0,0,0,,,,,,,,0,,,76,82
154440,note_on,0,0,0,,,,,,,,0,,,68,70
154440,note_on,0,0,0,,,,,,,,0,,,71,70
154530,note_on,90,0,0,,,,,,,,0,,,71,0
154530,note_on,0,0,0,,,,,,,,0,,,68,0
154530,note_on,0,0,0,,,,,,,,0,,,76,0
154560,set_tempo,30,1,0,,,,,,409836,,,,,,
154560,note_on,0,0,0,,,,,,,,0,,,76,94
154560,note_on,0,0,0,,,,,,,,0,,,69,73
154560,note_on,0,0,0,,,,,,,,0,,,73,77
154560,note_on,0,0,0,,,,,,,,0,,,64,73
154560,note_on,0,0,0,,,,,,,,0,,,57,94
154560,note_on,0,0,0,,,,,,,,0,,,45,79
154616,control_change,56,0,0,,,,,,,,0,64,127,,
154680,note_on,64,0,0,,,,,,,,0,,,45,0
154680,note_on,0,0,0,,,,,,,,0,,,69,0
154680,note_on,0,0,0,,,,,,,,0,,,73,0
154680,note_on,0,0,0,,,,,,,,0,,,76,0
154680,note_on,0,0,0,,,,,,,,0,,,57,0
154680,note_on,0,0,0,,,,,,,,0,,,64,0
154800,set_tempo,120,1,0,,,,,,340928,,,,,,
154800,note_on,0,0,0,,,,,,,,0,,,59,62
154800,note_on,0,0,0,,,,,,,,0,,,47,52
154812,control_change,12,0,0,,,,,,,,0,64,0,,
154920,note_on,108,0,0,,,,,,,,0,,,47,0
154920,note_on,0,0,0,,,,,,,,0,,,59,0
154920,note_on,0,0,0,,,,,,,,0,,,64,55
154920,note_on,0,0,0,,,,,,,,0,,,74,55
154920,note_on,0,0,0,,,,,,,,0,,,69,55
154920,note_on,0,0,0,,,,,,,,0,,,76,70
155040,note_on,120,0,0,,,,,,,,0,,,76,0
155040,note_on,0,0,0,,,,,,,,0,,,64,0
155040,note_on,0,0,0,,,,,,,,0,,,74,0
155040,note_on,0,0,0,,,,,,,,0,,,69,0
155040,note_on,0,0,0,,,,,,,,0,,,49,52
155040,note_on,0,0,0,,,,,,,,0,,,61,62
155109,control_change,69,0,0,,,,,,,,0,64,127,,
155160,note_on,51,0,0,,,,,,,,0,,,61,0
155160,note_on,0,0,0,,,,,,,,0,,,49,0
155160,note_on,0,0,0,,,,,,,,0,,,76,65
155160,note_on,0,0,0,,,,,,,,0,,,69,55
155160,note_on,0,0,0,,,,,,,,0,,,64,55
155280,set_tempo,120,1,0,,,,,,408191,,,,,,
155280,note_on,0,0,0,,,,,,,,0,,,64,0
155280,note_on,0,0,0,,,,,,,,0,,,69,0
155280,note_on,0,0,0,,,,,,,,0,,,76,0
155280,note_on,0,0,0,,,,,,,,0,,,57,62
155280,note_on,0,0,0,,,,,,,,0,,,45,52
155286,control_change,6,0,0,,,,,,,,0,64,0,,
155400,note_on,114,0,0,,,,,,,,0,,,45,0
155400,note_on,0,0,0,,,,,,,,0,,,57,0
155400,note_on,0,0,0,,,,,,,,0,,,64,53
155400,note_on,0,0,0,,,,,,,,0,,,76,67
155400,note_on,0,0,0,,,,,,,,0,,,73,53
155490,note_on,90,0,0,,,,,,,,0,,,73,0
155490,note_on,0,0,0,,,,,,,,0,,,76,0
155490,note_on,0,0,0,,,,,,,,0,,,64,0
155520,set_tempo,30,1,0,,,,,,392182,,,,,,
155520,note_on,0,0,0,,,,,,,,0,,,62,72
155520,note_on,0,0,0,,,,,,,,0,,,50,61
155594,control_change,74,0,0,,,,,,,,0,64,127,,
155640,note_on,46,0,0,,,,,,,,0,,,50,0
155640,note_on,0,0,0,,,,,,,,0,,,62,0
155640,note_on,0,0,0,,,,,,,,0,,,74,63
155640,note_on,0,0,0,,,,,,,,0,,,86,78
155640,note_on,0,0,0,,,,,,,,0,,,77,63
155760,set_tempo,120,1,0,,,,,,368121,,,,,,
155760,note_on,0,0,0,,,,,,,,0,,,61,64
155760,note_on,0,0,0,,,,,,,,0,,,70,76
155880,note_on,120,0,0,,,,,,,,0,,,77,0
155880,note_on,0,0,0,,,,,,,,0,,,74,0
155880,note_on,0,0,0,,,,,,,,0,,,86,0
155880,note_on,0,0,0,,,,,,,,0,,,76,59
155880,note_on,0,0,0,,,,,,,,0,,,88,75
155880,note_on,0,0,0,,,,,,,,0,,,79,59
156000,set_tempo,120,1,0,,,,,,387122,,,,,,
156000,note_on,0,0,0,,,,,,,,0,,,61,0
156000,note_on,0,0,0,,,,,,,,0,,,70,0
156000,note_on,0,0,0,,,,,,,,0,,,69,77
156000,note_on,0,0,0,,,,,,,,0,,,62,63
156020,control_change,20,0,0,,,,,,,,0,64,0,,
156074,control_change,54,0,0,,,,,,,,0,64,127,,
156120,note_on,46,0,0,,,,,,,,0,,,88,0
156120,note_on,0,0,0,,,,,,,,0,,,79,0
156120,note_on,0,0,0,,,,,,,,0,,,76,0
156120,note_on,0,0,0,,,,,,,,0,,,77,61
156120,note_on,0,0,0,,,,,,,,0,,,89,78
156120,note_on,0,0,0,,,,,,,,0,,,81,61
156240,set_tempo,120,1,0,,,,,,405433,,,,,,
156240,note_on,0,0,0,,,,,,,,0,,,69,0
156240,note_on,0,0,0,,,,,,,,0,,,62,0
156240,note_on,0,0,0,,,,,,,,0,,,69,79
156240,note_on,0,0,0,,,,,,,,0,,,65,64
156360,note_on,120,0,0,,,,,,,,0,,,89,0
156360,note_on,0,0,0,,,,,,,,0,,,81,0
156360,note_on,0,0,0,,,,,,,,0,,,77,0
156360,note_on,0,0,0,,,,,,,,0,,,74,63
156360,note_on,0,0,0,,,,,,,,0,,,86,80
156360,note_on,0,0,0,,,,,,,,0,,,77,63
156405,control_change,45,0,0,,,,,,,,0,64,0,,
156450,note_on,45,0,0,,,,,,,,0,,,77,0
156450,note_on,0,0,0,,,,,,,,0,,,74,0
156450,note_on,0,0,0,,,,,,,,0,,,86,0
156480,set_tempo,30,1,0,,,,,,403226,,,,,,
156480,note_on,0,0,0,,,,,,,,0,,,69,0
156480,note_on,0,0,0,,,,,,,,0,,,65,0
156480,note_on,0,0,0,,,,,,,,0,,,62,73
156480,note_on,0,0,0,,,,,,,,0,,,74,93
156480,note_on,0,0,0,,,,,,,,0,,,67,73
156480,note_on,0,0,0,,,,,,,,0,,,71,73
156480,note_on,0,0,0,,,,,,,,0,,,55,94
156480,note_on,0,0,0,,,,,,,,0,,,43,79
156536,control_change,56,0,0,,,,,,,,0,64,127,,
156600,note_on,64,0,0,,,,,,,,0,,,43,0
156600,note_on,0,0,0,,,,,,,,0,,,74,0
156600,note_on,0,0,0,,,,,,,,0,,,67,0
156600,note_on,0,0,0,,,,,,,,0,,,62,0
156600,note_on,0,0,0,,,,,,,,0,,,55,0
156600,note_on,0,0,0,,,,,,,,0,,,71,0
156720,set_tempo,120,1,0,,,,,,342877,,,,,,
156720,note_on,0,0,0,,,,,,,,0,,,57,62
156720,note_on,0,0,0,,,,,,,,0,,,45,52
156739,control_change,19,0,0,,,,,,,,0,64,0,,
156840,note_on,101,0,0,,,,,,,,0,,,45,0
156840,note_on,0,0,0,,,,,,,,0,,,57,0
156840,note_on,0,0,0,,,,,,,,0,,,72,58
156840,note_on,0,0,0,,,,,,,,0,,,67,58
156840,note_on,0,0,0,,,,,,,,0,,,74,70
156840,note_on,0,0,0,,,,,,,,0,,,62,58
156960,note_on,120,0,0,,,,,,,,0,,,62,0
156960,note_on,0,0,0,,,,,,,,0,,,72,0
156960,note_on,0,0,0,,,,,,,,0,,,67,0
156960,note_on,0,0,0,,,,,,,,0,,,74,0
156960,note_on,0,0,0,,,,,,,,0,,,59,62
156960,note_on,0,0,0,,,,,,,,0,,,47,52
157066,control_change,106,0,0,,,,,,,,0,64,127,,
157080,note_on,14,0,0,,,,,,,,0,,,47,0
157080,note_on,0,0,0,,,,,,,,0,,,59,0
157080,note_on,0,0,0,,,,,,,,0,,,67,58
157080,note_on,0,0,0,,,,,,,,0,,,74,70
157080,note_on,0,0,0,,,,,,,,0,,,62,58
157200,set_tempo,120,1,0,,,,,,422565,,,,,,
157200,note_on,0,0,0,,,,,,,,0,,,62,0
157200,note_on,0,0,0,,,,,,,,0,,,74,0
157200,note_on,0,0,0,,,,,,,,0,,,67,0
157200,note_on,0,0,0,,,,,,,,0,,,55,62
157200,note_on,0,0,0,,,,,,,,0,,,43,52
157251,control_change,51,0,0,,,,,,,,0,64,0,,
157320,set_tempo,69,1,0,,,,,,425562,,,,,,
157320,note_on,0,0,0,,,,,,,,0,,,43,0
157320,note_on,0,0,0,,,,,,,,0,,,55,0
157320,note_on,0,0,0,,,,,,,,0,,,62,53
157320,note_on,0,0,0,,,,,,,,0,,,74,67
157320,note_on,0,0,0,,,,,,,,0,,,71,53
157410,note_on,90,0,0,,,,,,,,0,,,71,0
157410,note_on,0,0,0,,,,,,,,0,,,74,0
157410,note_on,0,0,0,,,,,,,,0,,,62,0
157440,set_tempo,30,1,0,,,,,,402712,,,,,,
157440,note_on,0,0,0,,,,,,,,0,,,60,75
157440,note_on,0,0,0,,,,,,,,0,,,48,64
157514,control_change,74,0,0,,,,,,,,0,64,127,,
157560,note_on,46,0,0,,,,,,,,0,,,48,0
157560,note_on,0,0,0,,,,,,,,0,,,60,0
157560,note_on,0,0,0,,,,,,,,0,,,76,63
157560,note_on,0,0,0,,,,,,,,0,,,88,79
157560,note_on,0,0,0,,,,,,,,0,,,84,63
157680,set_tempo,120,1,0,,,,,,375023,,,,,,
157680,note_on,0,0,0,,,,,,,,0,,,67,77
157680,note_on,0,0,0,,,,,,,,0,,,62,65
157800,note_on,120,0,0,,,,,,,,0,,,84,0
157800,note_on,0,0,0,,,,,,,,0,,,76,0
157800,note_on,0,0,0,,,,,,,,0,,,88,0
157800,note_on,0,0,0,,,,,,,,0,,,89,76
157800,note_on,0,0,0,,,,,,,,0,,,77,60
157800,note_on,0,0,0,,,,,,,,0,,,84,60
157920,set_tempo,120,1,0,,,,,,397377,,,,,,
157920,note_on,0,0,0,,,,,,,,0,,,67,0
157920,note_on,0,0,0,,,,,,,,0,,,62,0
157920,note_on,0,0,0,,,,,,,,0,,,67,78
157920,note_on,0,0,0,,,,,,,,0,,,64,63
157940,control_change,20,0,0,,,,,,,,0,64,0,,
157994,control_change,54,0,0,,,,,,,,0,64,127,,
158040,note_on,46,0,0,,,,,,,,0,,,77,0
158040,note_on,0,0,0,,,,,,,,0,,,84,0
158040,note_on,0,0,0,,,,,,,,0,,,89,0
158040,note_on,0,0,0,,,,,,,,0,,,91,78
158040,note_on,0,0,0,,,,,,,,0,,,84,62
158040,note_on,0,0,0,,,,,,,,0,,,79,62
158160,set_tempo,120,1,0,,,,,,426136,,,,,,
158160,note_on,0,0,0,,,,,,,,0,,,67,0
158160,note_on,0,0,0,,,,,,,,0,,,64,0
158160,note_on,0,0,0,,,,,,,,0,,,67,79
158160,note_on,0,0,0,,,,,,,,0,,,60,64
158280,note_on,120,0,0,,,,,,,,0,,,84,0
158280,note_on,0,0,0,,,,,,,,0,,,79,0
158280,note_on,0,0,0,,,,,,,,0,,,91,0
158280,note_on,0,0,0,,,,,,,,0,,,88,80
158280,note_on,0,0,0,,,,,,,,0,,,76,65
158280,note_on,0,0,0,,,,,,,,0,,,84,65
158343,control_change,63,0,0,,,,,,,,0,64,0,,
158370,note_on,27,0,0,,,,,,,,0,,,84,0
158370,note_on,0,0,0,,,,,,,,0,,,88,0
158370,note_on,0,0,0,,,,,,,,0,,,76,0
158400,set_tempo,30,1,0,,,,,,393701,,,,,,
158400,note_on,0,0,0,,,,,,,,0,,,67,0
158400,note_on,0,0,0,,,,,,,,0,,,60,0
158400,note_on,0,0,0,,,,,,,,0,,,89,90
158400,note_on,0,0,0,,,,,,,,0,,,80,70
158400,note_on,0,0,0,,,,,,,,0,,,83,75
158400,note_on,0,0,0,,,,,,,,0,,,77,70
158400,note_on,0,0,0,,,,,,,,0,,,62,90
158400,note_on,0,0,0,,,,,,,,0,,,50,75
158456,control_change,56,0,0,,,,,,,,0,64,127,,
158520,note_on,64,0,0,,,,,,,,0,,,50,0
158520,note_on,0,0,0,,,,,,,,0,,,80,0
158520,note_on,0,0,0,,,,,,,,0,,,83,0
158520,note_on,0,0,0,,,,,,,,0,,,89,0
158520,note_on,0,0,0,,,,,,,,0,,,62,0
158520,note_on,0,0,0,,,,,,,,0,,,77,0
158640,set_tempo,120,1,0,,,,,,359303,,,,,,
158640,note_on,0,0,0,,,,,,,,0,,,65,52
158640,note_on,0,0,0,,,,,,,,0,,,68,52
158640,note_on,0,0,0,,,,,,,,0,,,71,62
158760,note_on,120,0,0,,,,,,,,0,,,83,58
158760,note_on,0,0,0,,,,,,,,0,,,80,58
158760,note_on,0,0,0,,,,,,,,0,,,86,70
158760,note_on,0,0,0,,,,,,,,0,,,74,58
158820,note_on,60,0,0,,,,,,,,0,,,71,0
158820,note_on,0,0,0,,,,,,,,0,,,65,0
158820,note_on,0,0,0,,,,,,,,0,,,68,0
158880,note_on,60,0,0,,,,,,,,0,,,64,52
158880,note_on,0,0,0,,,,,,,,0,,,68,52
158880,note_on,0,0,0,,,,,,,,0,,,71,62
158895,control_change,15,0,0,,,,,,,,0,64,0,,
158940,note_on,45,0,0,,,,,,,,0,,,80,0
158940,note_on,0,0,0,,,,,,,,0,,,74,0
158940,note_on,0,0,0,,,,,,,,0,,,83,0
158940,note_on,0,0,0,,,,,,,,0,,,86,0
158946,control_change,6,0,0,,,,,,,,0,64,127,,
159000,note_on,54,0,0,,,,,,,,0,,,76,58
159000,note_on,0,0,0,,,,,,,,0,,,83,58
159000,note_on,0,0,0,,,,,,,,0,,,88,70
159000,note_on,0,0,0,,,,,,,,0,,,80,58
159060,note_on,60,0,0,,,,,,,,0,,,71,0
159060,note_on,0,0,0,,,,,,,,0,,,68,0
159060,note_on,0,0,0,,,,,,,,0,,,64,0
159120,set_tempo,60,1,0,,,,,,375023,,,,,,
159120,note_on,0,0,0,,,,,,,,0,,,62,52
159120,note_on,0,0,0,,,,,,,,0,,,68,52
159120,note_on,0,0,0,,,,,,,,0,,,71,62
159180,note_on,60,0,0,,,,,,,,0,,,83,0
159180,note_on,0,0,0,,,,,,,,0,,,80,0
159180,note_on,0,0,0,,,,,,,,0,,,76,0
159180,note_on,0,0,0,,,,,,,,0,,,88,0
159240,note_on,60,0,0,,,,,,,,0,,,77,53
159240,note_on,0,0,0,,,,,,,,0,,,80,53
159240,note_on,0,0,0,,,,,,,,0,,,89,67
159240,note_on,0,0,0,,,,,,,,0,,,83,53
159300,note_on,60,0,0,,,,,,,,0,,,71,0
159300,note_on,0,0,0,,,,,,,,0,,,68,0
159300,note_on,0,0,0,,,,,,,,0,,,62,0
159360,set_tempo,60,1,0,,,,,,405433,,,,,,
159360,note_on,0,0,0,,,,,,,,0,,,80,0
159360,note_on,0,0,0,,,,,,,,0,,,77,0
159360,note_on,0,0,0,,,,,,,,0,,,89,0
159360,note_on,0,0,0,,,,,,,,0,,,83,0
159360,note_on,0,0,0,,,,,,,,0,,,60,61
159360,note_on,0,0,0,,,,,,,,0,,,72,72
159360,note_on,0,0,0,,,,,,,,0,,,69,61
159368,control_change,8,0,0,,,,,,,,0,64,0,,
159396,control_change,28,0,0,,,,,,,,0,64,127,,
159480,note_on,84,0,0,,,,,,,,0,,,76,60
159480,note_on,0,0,0,,,,,,,,0,,,88,75
159480,note_on,0,0,0,,,,,,,,0,,,81,60
159540,note_on,60,0,0,,,,,,,,0,,,69,0
159540,note_on,0,0,0,,,,,,,,0,,,60,0
159540,note_on,0,0,0,,,,,,,,0,,,72,0
159600,set_tempo,60,1,0,,,,,,368121,,,,,,
159600,note_on,0,0,0,,,,,,,,0,,,65,58
159600,note_on,0,0,0,,,,,,,,0,,,68,69
159600,note_on,0,0,0,,,,,,,,0,,,59,58
159660,note_on,60,0,0,,,,,,,,0,,,76,0
159660,note_on,0,0,0,,,,,,,,0,,,81,0
159660,note_on,0,0,0,,,,,,,,0,,,88,0
159720,note_on,60,0,0,,,,,,,,0,,,80,54
159720,note_on,0,0,0,,,,,,,,0,,,86,67
159720,note_on,0,0,0,,,,,,,,0,,,74,54
159720,note_on,0,0,0,,,,,,,,0,,,77,54
159780,note_on,60,0,0,,,,,,,,0,,,65,0
159780,note_on,0,0,0,,,,,,,,0,,,59,0
159780,note_on,0,0,0,,,,,,,,0,,,68,0
159840,set_tempo,60,1,0,,,,,,392182,,,,,,
159840,note_on,0,0,0,,,,,,,,0,,,57,56
159840,note_on,0,0,0,,,,,,,,0,,,69,67
159840,note_on,0,0,0,,,,,,,,0,,,64,56
159860,control_change,20,0,0,,,,,,,,0,64,0,,
159900,note_on,40,0,0,,,,,,,,0,,,86,0
159900,note_on,0,0,0,,,,,,,,0,,,77,0
159900,note_on,0,0,0,,,,,,,,0,,,80,0
159900,note_on,0,0,0,,,,,,,,0,,,74,0
159914,control_change,14,0,0,,,,,,,,0,64,127,,
159960,note_on,46,0,0,,,,,,,,0,,,76,54
159960,note_on,0,0,0,,,,,,,,0,,,84,67
159960,note_on,0,0,0,,,,,,,,0,,,81,54
159960,note_on,0,0,0,,,,,,,,0,,,72,54
160020,note_on,60,0,0,,,,,,,,0,,,64,0
160020,note_on,0,0,0,,,,,,,,0,,,69,0
160020,note_on,0,0,0,,,,,,,,0,,,57,0
160080,set_tempo,60,1,0,,,,,,441209,,,,,,
160080,note_on,0,0,0,,,,,,,,0,,,61,56
160080,note_on,0,0,0,,,,,,,,0,,,64,67
160080,note_on,0,0,0,,,,,,,,0,,,55,56
160140,note_on,60,0,0,,,,,,,,0,,,84,0
160140,note_on,0,0,0,,,,,,,,0,,,72,0
160140,note_on,0,0,0,,,,,,,,0,,,76,0
160140,note_on,0,0,0,,,,,,,,0,,,81,0
160200,note_on,60,0,0,,,,,,,,0,,,76,56
160200,note_on,0,0,0,,,,,,,,0,,,85,67
160200,note_on,0,0,0,,,,,,,,0,,,73,56
160200,note_on,0,0,0,,,,,,,,0,,,82,56
160260,note_on,60,0,0,,,,,,,,0,,,55,0
160260,note_on,0,0,0,,,,,,,,0,,,64,0
160260,note_on,0,0,0,,,,,,,,0,,,61,0
160320,set_tempo,60,1,0,,,,,,425562,,,,,,
160320,note_on,0,0,0,,,,,,,,0,,,85,0
160320,note_on,0,0,0,,,,,,,,0,,,76,0
160320,note_on,0,0,0,,,,,,,,0,,,73,0
160320,note_on,0,0,0,,,,,,,,0,,,82,0
160320,note_on,0,0,0,,,,,,,,0,,,53,67
160320,note_on,0,0,0,,,,,,,,0,,,65,79
160320,note_on,0,0,0,,,,,,,,0,,,62,67
160332,control_change,12,0,0,,,,,,,,0,64,0,,
160394,control_change,62,0,0,,,,,,,,0,64,127,,
160440,note_on,46,0,0,,,,,,,,0,,,82,66
160440,note_on,0,0,0,,,,,,,,0,,,74,66
160440,note_on,0,0,0,,,,,,,,0,,,86,83
160440,note_on,0,0,0,,,,,,,,0,,,77,66
160500,note_on,60,0,0,,,,,,,,0,,,62,0
160500,note_on,0,0,0,,,,,,,,0,,,53,0
160500,note_on,0,0,0,,,,,,,,0,,,65,0
160560,set_tempo,60,1,0,,,,,,410987,,,,,,
160560,note_on,0,0,0,,,,,,,,0,,,51,65
160560,note_on,0,0,0,,,,,,,,0,,,63,77
160560,note_on,0,0,0,,,,,,,,0,,,60,65
160560,note_on,0,0,0,,,,,,,,0,,,57,65
160620,note_on,60,0,0,,,,,,,,0,,,74,0
160620,note_on,0,0,0,,,,,,,,0,,,77,0
160620,note_on,0,0,0,,,,,,,,0,,,82,0
160620,note_on,0,0,0,,,,,,,,0,,,86,0
160680,note_on,60,0,0,,,,,,,,0,,,89,62
160680,note_on,0,0,0,,,,,,,,0,,,93,78
160680,note_on,0,0,0,,,,,,,,0,,,81,62
160680,note_on,0,0,0,,,,,,,,0,,,84,62
160740,note_on,60,0,0,,,,,,,,0,,,51,0
160740,note_on,0,0,0,,,,,,,,0,,,60,0
160740,note_on,0,0,0,,,,,,,,0,,,57,0
160740,note_on,0,0,0,,,,,,,,0,,,63,0
160800,set_tempo,60,1,0,,,,,,454580,,,,,,
160800,note_on,0,0,0,,,,,,,,0,,,60,66
160800,note_on,0,0,0,,,,,,,,0,,,52,66
160800,note_on,0,0,0,,,,,,,,0,,,64,80
160800,note_on,0,0,0,,,,,,,,0,,,57,66
160820,control_change,20,0,0,,,,,,,,0,64,0,,
160860,note_on,40,0,0,,,,,,,,0,,,89,0
160860,note_on,0,0,0,,,,,,,,0,,,81,0
160860,note_on,0,0,0,,,,,,,,0,,,84,0
160860,note_on,0,0,0,,,,,,,,0,,,93,0
160874,control_change,14,0,0,,,,,,,,0,64,127,,
160920,set_tempo,46,1,0,,,,,,483910,,,,,,
160920,note_on,0,0,0,,,,,,,,0,,,84,65
160920,note_on,0,0,0,,,,,,,,0,,,93,83
160920,note_on,0,0,0,,,,,,,,0,,,88,65
160920,note_on,0,0,0,,,,,,,,0,,,81,65
160980,note_on,60,0,0,,,,,,,,0,,,60,0
160980,note_on,0,0,0,,,,,,,,0,,,64,0
160980,note_on,0,0,0,,,,,,,,0,,,57,0
160980,note_on,0,0,0,,,,,,,,0,,,52,0
161040,set_tempo,60,1,0,,,,,,526362,,,,,,
161040,note_on,0,0,0,,,,,,,,0,,,56,70
161040,note_on,0,0,0,,,,,,,,0,,,59,70
161040,note_on,0,0,0,,,,,,,,0,,,64,85
161040,note_on,0,0,0,,,,,,,,0,,,52,70
161100,note_on,60,0,0,,,,,,,,0,,,84,0
161100,note_on,0,0,0,,,,,,,,0,,,88,0
161100,note_on,0,0,0,,,,,,,,0,,,81,0
161100,note_on,0,0,0,,,,,,,,0,,,93,0
161160,set_tempo,60,1,0,,,,,,714371,,,,,,
161160,note_on,0,0,0,,,,,,,,0,,,83,71
161160,note_on,0,0,0,,,,,,,,0,,,92,87
161160,note_on,0,0,0,,,,,,,,0,,,80,71
161160,note_on,0,0,0,,,,,,,,0,,,88,71
161220,note_on,60,0,0,,,,,,,,0,,,56,0
161220,note_on,0,0,0,,,,,,,,0,,,64,0
161220,note_on,0,0,0,,,,,,,,0,,,52,0
161220,note_on,0,0,0,,,,,,,,0,,,59,0
161280,set_tempo,60,1,0,,,,,,487845,,,,,,
161280,note_on,0,0,0,,,,,,,,0,,,83,0
161280,note_on,0,0,0,,,,,,,,0,,,88,0
161280,note_on,0,0,0,,,,,,,,0,,,92,0
161280,note_on,0,0,0,,,,,,,,0,,,80,0
161280,note_on,0,0,0,,,,,,,,0,,,81,75
161280,note_on,0,0,0,,,,,,,,0,,,84,76
161280,note_on,0,0,0,,,,,,,,0,,,88,78
161280,note_on,0,0,0,,,,,,,,0,,,93,92
161280,note_on,0,0,0,,,,,,,,0,,,45,80
161280,note_on,0,0,0,,,,,,,,0,,,52,80
161280,note_on,0,0,0,,,,,,,,0,,,57,93
161287,control_change,7,0,0,,,,,,,,0,64,0,,
161421,control_change,134,0,0,,,,,,,,0,64,127,,
161760,set_tempo,339,1,0,,,,,,1127820,,,,,,
161760,note_on,0,0,0,,,,,,,,0,,,57,0
161760,note_on,0,0,0,,,,,,,,0,,,45,0
161760,note_on,0,0,0,,,,,,,,0,,,84,0
161760,note_on,0,0,0,,,,,,,,0,,,88,0
161760,note_on,0,0,0,,,,,,,,0,,,81,0
161760,note_on,0,0,0,,,,,,,,0,,,52,0
161760,note_on,0,0,0,,,,,,,,0,,,93,0
161760,note_on,0,0,0,,,,,,,,0,,,72,76
161760,note_on,0,0,0,,,,,,,,0,,,76,76
161760,note_on,0,0,0,,,,,,,,0,,,81,83
161760,note_on,0,0,0,,,,,,,,0,,,64,67
161760,note_on,0,0,0,,,,,,,,0,,,69,77
161760,note_on,0,0,0,,,,,,,,0,,,60,67
161880,note_on,120,0,0,,,,,,,,0,,,60,0
161880,note_on,0,0,0,,,,,,,,0,,,76,0
161880,note_on,0,0,0,,,,,,,,0,,,81,0
161880,note_on,0,0,0,,,,,,,,0,,,72,0
161880,note_on,0,0,0,,,,,,,,0,,,69,0
161880,note_on,0,0,0,,,,,,,,0,,,64,0
161887,control_change,7,0,0,,,,,,,,0,64,0,,
162120,set_tempo,233,1,0,,,,,,544465,,,,,,
162180,marker,60,1,0,,,,,,,,,,,,
162180,note_on,0,0,0,,,,,,,,0,,,76,38
162240,set_tempo,60,1,0,,,,,,460829,,,,,,
162240,note_on,0,0,0,,,,,,,,0,,,84,56
162240,note_on,0,0,0,,,,,,,,0,,,57,38
162300,note_on,60,0,0,,,,,,,,0,,,57,0
162300,note_on,0,0,0,,,,,,,,0,,,84,0
162360,set_tempo,60,1,0,,,,,,471698,,,,,,
162360,note_on,0,0,0,,,,,,,,0,,,81,40
162360,note_on,0,0,0,,,,,,,,0,,,64,32
162420,note_on,60,0,0,,,,,,,,0,,,64,0
162420,note_on,0,0,0,,,,,,,,0,,,81,0
162480,set_tempo,60,1,0,,,,,,487013,,,,,,
162480,note_on,0,0,0,,,,,,,,0,,,76,0
162480,note_on,0,0,0,,,,,,,,0,,,76,41
162480,note_on,0,0,0,,,,,,,,0,,,52,32
162540,note_on,60,0,0,,,,,,,,0,,,52,0
162540,note_on,0,0,0,,,,,,,,0,,,76,0
162600,set_tempo,60,1,0,,,,,,503356,,,,,,
162600,note_on,0,0,0,,,,,,,,0,,,72,36
162600,note_on,0,0,0,,,,,,,,0,,,64,32
162660,note_on,60,0,0,,,,,,,,0,,,64,0
162660,note_on,0,0,0,,,,,,,,0,,,72,0
162720,set_tempo,60,1,0,,,,,,549451,,,,,,
162720,note_on,0,0,0,,,,,,,,0,,,69,36
162720,note_on,0,0,0,,,,,,,,0,,,60,34
162780,note_on,60,0,0,,,,,,,,0,,,60,0
162780,note_on,0,0,0,,,,,,,,0,,,69,0
162840,set_tempo,60,1,0,,,,,,487013,,,,,,
162840,note_on,0,0,0,,,,,,,,0,,,76,38
162840,note_on,0,0,0,,,,,,,,0,,,64,31
162900,note_on,60,0,0,,,,,,,,0,,,64,0
162900,note_on,0,0,0,,,,,,,,0,,,76,0
162960,set_tempo,60,1,0,,,,,,512821,,,,,,
162960,note_on,0,0,0,,,,,,,,0,,,72,38
162960,note_on,0,0,0,,,,,,,,0,,,57,29
163020,note_on,60,0,0,,,,,,,,0,,,57,0
163020,note_on,0,0,0,,,,,,,,0,,,72,0
163080,set_tempo,60,1,0,,,,,,571429,,,,,,
163080,note_on,0,0,0,,,,,,,,0,,,69,38
163080,note_on,0,0,0,,,,,,,,0,,,64,30
163125,note_on,45,0,0,,,,,,,,0,,,69,0
163140,note_on,15,0,0,,,,,,,,0,,,64,0
163140,note_on,0,0,0,,,,,,,,0,,,76,38
163200,set_tempo,60,1,0,,,,,,464396,,,,,,
163200,note_on,0,0,0,,,,,,,,0,,,83,64
163200,note_on,0,0,0,,,,,,,,0,,,56,38
163260,note_on,60,0,0,,,,,,,,0,,,56,0
163260,note_on,0,0,0,,,,,,,,0,,,83,0
163320,set_tempo,60,1,0,,,,,,475436,,,,,,
163320,note_on,0,0,0,,,,,,,,0,,,80,40
163320,note_on,0,0,0,,,,,,,,0,,,64,32
163380,note_on,60,0,0,,,,,,,,0,,,64,0
163380,note_on,0,0,0,,,,,,,,0,,,80,0
163440,set_tempo,60,1,0,,,,,,598802,,,,,,
163440,note_on,0,0,0,,,,,,,,0,,,76,0
163440,note_on,0,0,0,,,,,,,,0,,,76,41
163440,note_on,0,0,0,,,,,,,,0,,,52,32
163500,note_on,60,0,0,,,,,,,,0,,,52,0
163500,note_on,0,0,0,,,,,,,,0,,,76,0
163560,set_tempo,60,1,0,,,,,,503356,,,,,,
163560,note_on,0,0,0,,,,,,,,0,,,86,41
163560,note_on,0,0,0,,,,,,,,0,,,64,32
163620,note_on,60,0,0,,,,,,,,0,,,64,0
163620,note_on,0,0,0,,,,,,,,0,,,86,0
163680,set_tempo,60,1,0,,,,,,483871,,,,,,
163680,note_on,0,0,0,,,,,,,,0,,,83,45
163680,note_on,0,0,0,,,,,,,,0,,,56,38
163740,note_on,60,0,0,,,,,,,,0,,,56,0
163740,note_on,0,0,0,,,,,,,,0,,,83,0
163800,note_on,60,0,0,,,,,,,,0,,,76,41
163800,note_on,0,0,0,,,,,,,,0,,,64,32
163860,note_on,60,0,0,,,,,,,,0,,,64,0
163860,note_on,0,0,0,,,,,,,,0,,,76,0
163920,set_tempo,60,1,0,,,,,,550509,,,,,,
163920,note_on,0,0,0,,,,,,,,0,,,80,38
163920,note_on,0,0,0,,,,,,,,0,,,59,29
163980,note_on,60,0,0,,,,,,,,0,,,59,0
163980,note_on,0,0,0,,,,,,,,0,,,80,0
164040,set_tempo,60,1,0,,,,,,594059,,,,,,
164040,note_on,0,0,0,,,,,,,,0,,,76,38
164040,note_on,0,0,0,,,,,,,,0,,,64,30
164087,note_on,47,0,0,,,,,,,,0,,,76,0
164100,set_tempo,13,1,0,,,,,,540541,,,,,,
164100,note_on,0,0,0,,,,,,,,0,,,64,0
164100,note_on,0,0,0,,,,,,,,0,,,76,38
164160,set_tempo,60,1,0,,,,,,460829,,,,,,
164160,note_on,0,0,0,,,,,,,,0,,,84,61
164160,note_on,0,0,0,,,,,,,,0,,,57,38
164220,note_on,60,0,0,,,,,,,,0,,,57,0
164220,note_on,0,0,0,,,,,,,,0,,,84,0
164280,set_tempo,60,1,0,,,,,,479233,,,,,,
164280,note_on,0,0,0,,,,,,,,0,,,81,40
164280,note_on,0,0,0,,,,,,,,0,,,64,32
164340,note_on,60,0,0,,,,,,,,0,,,64,0
164340,note_on,0,0,0,,,,,,,,0,,,81,0
164400,set_tempo,60,1,0,,,,,,575816,,,,,,
164400,note_on,0,0,0,,,,,,,,0,,,76,0
164400,note_on,0,0,0,,,,,,,,0,,,76,41
164400,note_on,0,0,0,,,,,,,,0,,,52,32
164460,note_on,60,0,0,,,,,,,,0,,,52,0
164460,note_on,0,0,0,,,,,,,,0,,,76,0
164520,set_tempo,60,1,0,,,,,,507614,,,,,,
164520,note_on,0,0,0,,,,,,,,0,,,72,41
164520,note_on,0,0,0,,,,,,,,0,,,64,32
164580,note_on,60,0,0,,,,,,,,0,,,64,0
164580,note_on,0,0,0,,,,,,,,0,,,72,0
164640,set_tempo,60,1,0,,,,,,483871,,,,,,
164640,note_on,0,0,0,,,,,,,,0,,,69,39
164640,note_on,0,0,0,,,,,,,,0,,,60,36
164700,note_on,60,0,0,,,,,,,,0,,,60,0
164700,note_on,0,0,0,,,,,,,,0,,,69,0
164760,note_on,60,0,0,,,,,,,,0,,,76,45
164760,note_on,0,0,0,,,,,,,,0,,,64,32
164820,note_on,60,0,0,,,,,,,,0,,,64,0
164820,note_on,0,0,0,,,,,,,,0,,,76,0
164880,set_tempo,60,1,0,,,,,,512821,,,,,,
164880,note_on,0,0,0,,,,,,,,0,,,72,40
164880,note_on,0,0,0,,,,,,,,0,,,57,29
164940,note_on,60,0,0,,,,,,,,0,,,57,0
164940,note_on,0,0,0,,,,,,,,0,,,72,0
165000,set_tempo,60,1,0,,,,,,594059,,,,,,
165000,note_on,0,0,0,,,,,,,,0,,,69,38
165000,note_on,0,0,0,,,,,,,,0,,,64,30
165044,note_on,44,0,0,,,,,,,,0,,,69,0
165060,note_on,16,0,0,,,,,,,,0,,,64,0
165060,note_on,0,0,0,,,,,,,,0,,,76,38
165120,set_tempo,60,1,0,,,,,,499168,,,,,,
165120,note_on,0,0,0,,,,,,,,0,,,83,59
165120,note_on,0,0,0,,,,,,,,0,,,56,38
165180,note_on,60,0,0,,,,,,,,0,,,56,0
165180,note_on,0,0,0,,,,,,,,0,,,83,0
165240,note_on,60,0,0,,,,,,,,0,,,80,40
165240,note_on,0,0,0,,,,,,,,0,,,64,32
165300,note_on,60,0,0,,,,,,,,0,,,64,0
165300,note_on,0,0,0,,,,,,,,0,,,80,0
165360,set_tempo,60,1,0,,,,,,570342,,,,,,
165360,note_on,0,0,0,,,,,,,,0,,,76,0
165360,note_on,0,0,0,,,,,,,,0,,,76,37
165360,note_on,0,0,0,,,,,,,,0,,,52,32
165420,note_on,60,0,0,,,,,,,,0,,,52,0
165420,note_on,0,0,0,,,,,,,,0,,,76,0
165480,set_tempo,60,1,0,,,,,,520833,,,,,,
165480,note_on,0,0,0,,,,,,,,0,,,76,31
165480,note_on,0,0,0,,,,,,,,0,,,64,32
165540,note_on,60,0,0,,,,,,,,0,,,64,0
165540,note_on,0,0,0,,,,,,,,0,,,76,0
165600,set_tempo,60,1,0,,,,,,504202,,,,,,
165600,note_on,0,0,0,,,,,,,,0,,,71,38
165600,note_on,0,0,0,,,,,,,,0,,,56,35
165660,note_on,60,0,0,,,,,,,,0,,,56,0
165660,note_on,0,0,0,,,,,,,,0,,,71,0
165720,set_tempo,60,1,0,,,,,,600000,,,,,,
165720,note_on,0,0,0,,,,,,,,0,,,68,34
165720,note_on,0,0,0,,,,,,,,0,,,59,29
165780,note_on,60,0,0,,,,,,,,0,,,59,0
165780,note_on,0,0,0,,,,,,,,0,,,68,0
165840,set_tempo,60,1,0,,,,,,779322,,,,,,
165840,note_on,0,0,0,,,,,,,,0,,,64,39
166020,set_tempo,180,1,0,,,,,,544465,,,,,,
166020,note_on,0,0,0,,,,,,,,0,,,84,38
166050,note_on,30,0,0,,,,,,,,0,,,88,38
166080,set_tempo,30,1,0,,,,,,460829,,,,,,
166080,note_on,0,0,0,,,,,,,,0,,,64,0
166080,note_on,0,0,0,,,,,,,,0,,,96,59
166080,note_on,0,0,0,,,,,,,,0,,,57,38
166140,note_on,60,0,0,,,,,,,,0,,,57,0
166140,note_on,0,0,0,,,,,,,,0,,,96,0
166200,set_tempo,60,1,0,,,,,,479233,,,,,,
166200,note_on,0,0,0,,,,,,,,0,,,93,40
166200,note_on,0,0,0,,,,,,,,0,,,64,32
166260,note_on,60,0,0,,,,,,,,0,,,64,0
166260,note_on,0,0,0,,,,,,,,0,,,93,0
166316,note_on,56,0,0,,,,,,,,0,,,88,0
166320,note_on,4,0,0,,,,,,,,0,,,84,0
166320,note_on,0,0,0,,,,,,,,0,,,88,41
166320,note_on,0,0,0,,,,,,,,0,,,52,32
166380,note_on,60,0,0,,,,,,,,0,,,52,0
166380,note_on,0,0,0,,,,,,,,0,,,88,0
166440,set_tempo,60,1,0,,,,,,503356,,,,,,
166440,note_on,0,0,0,,,,,,,,0,,,84,36
166440,note_on,0,0,0,,,,,,,,0,,,64,32
166500,note_on,60,0,0,,,,,,,,0,,,64,0
166500,note_on,0,0,0,,,,,,,,0,,,84,0
166560,set_tempo,60,1,0,,,,,,549451,,,,,,
166560,note_on,0,0,0,,,,,,,,0,,,81,36
166560,note_on,0,0,0,,,,,,,,0,,,60,34
166620,note_on,60,0,0,,,,,,,,0,,,60,0
166620,note_on,0,0,0,,,,,,,,0,,,81,0
166680,set_tempo,60,1,0,,,,,,487013,,,,,,
166680,note_on,0,0,0,,,,,,,,0,,,88,38
166680,note_on,0,0,0,,,,,,,,0,,,64,31
166740,note_on,60,0,0,,,,,,,,0,,,64,0
166740,note_on,0,0,0,,,,,,,,0,,,88,0
166800,set_tempo,60,1,0,,,,,,512821,,,,,,
166800,note_on,0,0,0,,,,,,,,0,,,84,38
166800,note_on,0,0,0,,,,,,,,0,,,57,29
166860,note_on,60,0,0,,,,,,,,0,,,57,0
166860,note_on,0,0,0,,,,,,,,0,,,84,0
166920,set_tempo,60,1,0,,,,,,571429,,,,,,
166920,note_on,0,0,0,,,,,,,,0,,,81,38
166920,note_on,0,0,0,,,,,,,,0,,,64,30
166971,note_on,51,0,0,,,,,,,,0,,,81,0
166980,note_on,9,0,0,,,,,,,,0,,,64,0
166980,note_on,0,0,0,,,,,,,,0,,,83,38
167010,note_on,30,0,0,,,,,,,,0,,,88,38
167040,set_tempo,30,1,0,,,,,,479233,,,,,,
167040,note_on,0,0,0,,,,,,,,0,,,95,59
167040,note_on,0,0,0,,,,,,,,0,,,56,38
167100,note_on,60,0,0,,,,,,,,0,,,56,0
167100,note_on,0,0,0,,,,,,,,0,,,95,0
167160,set_tempo,60,1,0,,,,,,495050,,,,,,
167160,note_on,0,0,0,,,,,,,,0,,,92,40
167160,note_on,0,0,0,,,,,,,,0,,,64,32
167220,note_on,60,0,0,,,,,,,,0,,,64,0
167220,note_on,0,0,0,,,,,,,,0,,,92,0
167274,note_on,54,0,0,,,,,,,,0,,,88,0
167280,set_tempo,6,1,0,,,,,,598802,,,,,,
167280,note_on,0,0,0,,,,,,,,0,,,83,0
167280,note_on,0,0,0,,,,,,,,0,,,88,41
167280,note_on,0,0,0,,,,,,,,0,,,52,32
167340,note_on,60,0,0,,,,,,,,0,,,52,0
167340,note_on,0,0,0,,,,,,,,0,,,88,0
167400,set_tempo,60,1,0,,,,,,503356,,,,,,
167400,note_on,0,0,0,,,,,,,,0,,,98,41
167400,note_on,0,0,0,,,,,,,,0,,,64,32
167460,note_on,60,0,0,,,,,,,,0,,,64,0
167460,note_on,0,0,0,,,,,,,,0,,,98,0
167520,set_tempo,60,1,0,,,,,,483871,,,,,,
167520,note_on,0,0,0,,,,,,,,0,,,95,45
167520,note_on,0,0,0,,,,,,,,0,,,56,38
167580,note_on,60,0,0,,,,,,,,0,,,56,0
167580,note_on,0,0,0,,,,,,,,0,,,95,0
167640,note_on,60,0,0,,,,,,,,0,,,88,41
167640,note_on,0,0,0,,,,,,,,0,,,64,32
167700,note_on,60,0,0,,,,,,,,0,,,64,0
167700,note_on,0,0,0,,,,,,,,0,,,88,0
167760,set_tempo,60,1,0,,,,,,571483,,,,,,
167760,note_on,0,0,0,,,,,,,,0,,,92,38
167760,note_on,0,0,0,,,,,,,,0,,,59,29
167820,note_on,60,0,0,,,,,,,,0,,,59,0
167820,note_on,0,0,0,,,,,,,,0,,,92,0
167880,set_tempo,60,1,0,,,,,,594059,,,,,,
167880,note_on,0,0,0,,,,,,,,0,,,88,38
167880,note_on,0,0,0,,,,,,,,0,,,64,30
167932,note_on,52,0,0,,,,,,,,0,,,88,0
167940,set_tempo,8,1,0,,,,,,540541,,,,,,
167940,note_on,0,0,0,,,,,,,,0,,,64,0
167940,note_on,0,0,0,,,,,,,,0,,,84,38
167970,note_on,30,0,0,,,,,,,,0,,,88,38
168000,set_tempo,30,1,0,,,,,,495050,,,,,,
168000,note_on,0,0,0,,,,,,,,0,,,96,62
168000,note_on,0,0,0,,,,,,,,0,,,57,38
168060,note_on,60,0,0,,,,,,,,0,,,57,0
168060,note_on,0,0,0,,,,,,,,0,,,96,0
168120,note_on,60,0,0,,,,,,,,0,,,93,40
168120,note_on,0,0,0,,,,,,,,0,,,64,32
168180,note_on,60,0,0,,,,,,,,0,,,64,0
168180,note_on,0,0,0,,,,,,,,0,,,93,0
168236,note_on,56,0,0,,,,,,,,0,,,88,0
168240,set_tempo,4,1,0,,,,,,575816,,,,,,
168240,note_on,0,0,0,,,,,,,,0,,,84,0
168240,note_on,0,0,0,,,,,,,,0,,,88,41
168240,note_on,0,0,0,,,,,,,,0,,,52,32
168300,note_on,60,0,0,,,,,,,,0,,,52,0
168300,note_on,0,0,0,,,,,,,,0,,,88,0
168360,set_tempo,60,1,0,,,,,,507614,,,,,,
168360,note_on,0,0,0,,,,,,,,0,,,84,41
168360,note_on,0,0,0,,,,,,,,0,,,64,32
168420,note_on,60,0,0,,,,,,,,0,,,64,0
168420,note_on,0,0,0,,,,,,,,0,,,84,0
168480,set_tempo,60,1,0,,,,,,483871,,,,,,
168480,note_on,0,0,0,,,,,,,,0,,,81,39
168480,note_on,0,0,0,,,,,,,,0,,,60,36
168540,note_on,60,0,0,,,,,,,,0,,,60,0
168540,note_on,0,0,0,,,,,,,,0,,,81,0
168600,note_on,60,0,0,,,,,,,,0,,,88,45
168600,note_on,0,0,0,,,,,,,,0,,,64,32
168660,note_on,60,0,0,,,,,,,,0,,,64,0
168660,note_on,0,0,0,,,,,,,,0,,,88,0
168720,set_tempo,60,1,0,,,,,,512821,,,,,,
168720,note_on,0,0,0,,,,,,,,0,,,84,40
168720,note_on,0,0,0,,,,,,,,0,,,57,29
168780,note_on,60,0,0,,,,,,,,0,,,57,0
168780,note_on,0,0,0,,,,,,,,0,,,84,0
168840,set_tempo,60,1,0,,,,,,594059,,,,,,
168840,note_on,0,0,0,,,,,,,,0,,,81,38
168840,note_on,0,0,0,,,,,,,,0,,,64,30
168888,note_on,48,0,0,,,,,,,,0,,,81,0
168900,note_on,12,0,0,,,,,,,,0,,,64,0
168900,note_on,0,0,0,,,,,,,,0,,,83,38
168930,note_on,30,0,0,,,,,,,,0,,,88,38
168960,set_tempo,30,1,0,,,,,,490998,,,,,,
168960,note_on,0,0,0,,,,,,,,0,,,95,62
168960,note_on,0,0,0,,,,,,,,0,,,56,38
169020,note_on,60,0,0,,,,,,,,0,,,56,0
169020,note_on,0,0,0,,,,,,,,0,,,95,0
169080,note_on,60,0,0,,,,,,,,0,,,92,40
169080,note_on,0,0,0,,,,,,,,0,,,64,32
169140,note_on,60,0,0,,,,,,,,0,,,64,0
169140,note_on,0,0,0,,,,,,,,0,,,92,0
169195,note_on,55,0,0,,,,,,,,0,,,88,0
169200,set_tempo,5,1,0,,,,,,570342,,,,,,
169200,note_on,0,0,0,,,,,,,,0,,,83,0
169200,note_on,0,0,0,,,,,,,,0,,,88,37
169200,note_on,0,0,0,,,,,,,,0,,,52,32
169260,note_on,60,0,0,,,,,,,,0,,,52,0
169260,note_on,0,0,0,,,,,,,,0,,,88,0
169320,set_tempo,60,1,0,,,,,,520833,,,,,,
169320,note_on,0,0,0,,,,,,,,0,,,83,31
169320,note_on,0,0,0,,,,,,,,0,,,64,32
169380,note_on,60,0,0,,,,,,,,0,,,64,0
169380,note_on,0,0,0,,,,,,,,0,,,83,0
169440,set_tempo,60,1,0,,,,,,504202,,,,,,
169440,note_on,0,0,0,,,,,,,,0,,,80,37
169440,note_on,0,0,0,,,,,,,,0,,,59,33
169500,note_on,60,0,0,,,,,,,,0,,,59,0
169500,note_on,0,0,0,,,,,,,,0,,,80,0
169560,set_tempo,60,1,0,,,,,,600000,,,,,,
169560,note_on,0,0,0,,,,,,,,0,,,71,31
169560,note_on,0,0,0,,,,,,,,0,,,68,26
169620,note_on,60,0,0,,,,,,,,0,,,68,0
169620,note_on,0,0,0,,,,,,,,0,,,71,0
169680,set_tempo,60,1,0,,,,,,681896,,,,,,
169680,note_on,0,0,0,,,,,,,,0,,,76,37
169680,note_on,0,0,0,,,,,,,,0,,,64,32
169850,note_on,170,0,0,,,,,,,,0,,,76,0
169860,set_tempo,10,1,0,,,,,,544465,,,,,,
169860,note_on,0,0,0,,,,,,,,0,,,76,49
169920,set_tempo,60,1,0,,,,,,460829,,,,,,
169920,note_on,0,0,0,,,,,,,,0,,,64,0
169920,note_on,0,0,0,,,,,,,,0,,,88,70
169920,note_on,0,0,0,,,,,,,,0,,,61,49
170040,set_tempo,120,1,0,,,,,,468019,,,,,,
170040,note_on,0,0,0,,,,,,,,0,,,61,0
170040,note_on,0,0,0,,,,,,,,0,,,88,0
170040,note_on,0,0,0,,,,,,,,0,,,85,52
170040,note_on,0,0,0,,,,,,,,0,,,69,41
170160,set_tempo,120,1,0,,,,,,479233,,,,,,
170160,note_on,0,0,0,,,,,,,,0,,,69,0
170160,note_on,0,0,0,,,,,,,,0,,,85,0
170160,note_on,0,0,0,,,,,,,,0,,,76,0
170160,note_on,0,0,0,,,,,,,,0,,,81,53
170160,note_on,0,0,0,,,,,,,,0,,,57,41
170280,set_tempo,120,1,0,,,,,,503356,,,,,,
170280,note_on,0,0,0,,,,,,,,0,,,57,0
170280,note_on,0,0,0,,,,,,,,0,,,81,0
170280,note_on,0,0,0,,,,,,,,0,,,76,46
170280,note_on,0,0,0,,,,,,,,0,,,69,41
170400,set_tempo,120,1,0,,,,,,516351,,,,,,
170400,note_on,0,0,0,,,,,,,,0,,,69,0
170400,note_on,0,0,0,,,,,,,,0,,,76,0
170400,note_on,0,0,0,,,,,,,,0,,,73,44
170460,note_on,60,0,0,,,,,,,,0,,,73,0
170520,set_tempo,60,1,0,,,,,,487013,,,,,,
170520,note_on,0,0,0,,,,,,,,0,,,69,51
170640,set_tempo,120,1,0,,,,,,512821,,,,,,
170640,note_on,0,0,0,,,,,,,,0,,,69,0
170640,note_on,0,0,0,,,,,,,,0,,,67,54
170760,set_tempo,120,1,0,,,,,,530035,,,,,,
170760,note_on,0,0,0,,,,,,,,0,,,67,0
170760,note_on,0,0,0,,,,,,,,0,,,64,56
170880,set_tempo,120,1,0,,,,,,480000,,,,,,
170880,note_on,0,0,0,,,,,,,,0,,,64,0
170880,note_on,0,0,0,,,,,,,,0,,,65,63
170880,note_on,0,0,0,,,,,,,,0,,,50,54
170880,note_on,0,0,0,,,,,,,,0,,,57,54
170940,note_on,60,0,0,,,,,,,,0,,,65,0
171000,set_tempo,60,1,0,,,,,,525394,,,,,,
171000,note_on,0,0,0,,,,,,,,0,,,62,57
171060,note_on,60,0,0,,,,,,,,0,,,62,0
171120,set_tempo,60,1,0,,,,,,490998,,,,,,
171120,note_on,0,0,0,,,,,,,,0,,,57,0
171120,note_on,0,0,0,,,,,,,,0,,,50,0
171120,note_on,0,0,0,,,,,,,,0,,,86,61
171180,note_on,60,0,0,,,,,,,,0,,,86,0
171240,set_tempo,60,1,0,,,,,,503356,,,,,,
171240,note_on,0,0,0,,,,,,,,0,,,81,57
171300,note_on,60,0,0,,,,,,,,0,,,81,0
171360,set_tempo,60,1,0,,,,,,483871,,,,,,
171360,note_on,0,0,0,,,,,,,,0,,,77,56
171420,note_on,60,0,0,,,,,,,,0,,,77,0
171480,note_on,60,0,0,,,,,,,,0,,,74,49
171540,note_on,60,0,0,,,,,,,,0,,,74,0
171600,set_tempo,60,1,0,,,,,,512821,,,,,,
171600,note_on,0,0,0,,,,,,,,0,,,65,53
171660,note_on,60,0,0,,,,,,,,0,,,65,0
171720,set_tempo,60,1,0,,,,,,594059,,,,,,
171720,note_on,0,0,0,,,,,,,,0,,,62,53
171774,note_on,54,0,0,,,,,,,,0,,,62,0
171780,set_tempo,6,1,0,,,,,,544465,,,,,,
171780,note_on,0,0,0,,,,,,,,0,,,79,46
171840,set_tempo,60,1,0,,,,,,480000,,,,,,
171840,note_on,0,0,0,,,,,,,,0,,,86,70
171840,note_on,0,0,0,,,,,,,,0,,,59,46
171960,note_on,120,0,0,,,,,,,,0,,,59,0
171960,note_on,0,0,0,,,,,,,,0,,,86,0
171960,note_on,0,0,0,,,,,,,,0,,,83,49
171960,note_on,0,0,0,,,,,,,,0,,,67,38
172080,note_on,120,0,0,,,,,,,,0,,,67,0
172080,note_on,0,0,0,,,,,,,,0,,,83,0
172080,note_on,0,0,0,,,,,,,,0,,,79,0
172080,note_on,0,0,0,,,,,,,,0,,,79,50
172080,note_on,0,0,0,,,,,,,,0,,,55,38
172200,set_tempo,120,1,0,,,,,,503356,,,,,,
172200,note_on,0,0,0,,,,,,,,0,,,55,0
172200,note_on,0,0,0,,,,,,,,0,,,79,0
172200,note_on,0,0,0,,,,,,,,0,,,77,44
172200,note_on,0,0,0,,,,,,,,0,,,67,38
172320,set_tempo,120,1,0,,,,,,516351,,,,,,
172320,note_on,0,0,0,,,,,,,,0,,,67,0
172320,note_on,0,0,0,,,,,,,,0,,,77,0
172320,note_on,0,0,0,,,,,,,,0,,,74,41
172380,note_on,60,0,0,,,,,,,,0,,,74,0
172440,set_tempo,60,1,0,,,,,,487013,,,,,,
172440,note_on,0,0,0,,,,,,,,0,,,71,48
172560,set_tempo,120,1,0,,,,,,512821,,,,,,
172560,note_on,0,0,0,,,,,,,,0,,,71,0
172560,note_on,0,0,0,,,,,,,,0,,,65,51
172680,set_tempo,120,1,0,,,,,,530035,,,,,,
172680,note_on,0,0,0,,,,,,,,0,,,65,0
172680,note_on,0,0,0,,,,,,,,0,,,62,53
172800,set_tempo,120,1,0,,,,,,480000,,,,,,
172800,note_on,0,0,0,,,,,,,,0,,,62,0
172800,note_on,0,0,0,,,,,,,,0,,,64,60
172800,note_on,0,0,0,,,,,,,,0,,,48,51
172800,note_on,0,0,0,,,,,,,,0,,,55,51
172860,note_on,60,0,0,,,,,,,,0,,,64,0
172920,set_tempo,60,1,0,,,,,,525394,,,,,,
172920,note_on,0,0,0,,,,,,,,0,,,60,54
172980,note_on,60,0,0,,,,,,,,0,,,60,0
173040,set_tempo,60,1,0,,,,,,490998,,,,,,
173040,note_on,0,0,0,,,,,,,,0,,,55,0
173040,note_on,0,0,0,,,,,,,,0,,,48,0
173040,note_on,0,0,0,,,,,,,,0,,,84,57
173100,note_on,60,0,0,,,,,,,,0,,,84,0
173160,set_tempo,60,1,0,,,,,,503356,,,,,,
173160,note_on,0,0,0,,,,,,,,0,,,79,54
173220,note_on,60,0,0,,,,,,,,0,,,79,0
173280,set_tempo,60,1,0,,,,,,483871,,,,,,
173280,note_on,0,0,0,,,,,,,,0,,,76,53
173340,note_on,60,0,0,,,,,,,,0,,,76,0
173400,note_on,60,0,0,,,,,,,,0,,,72,46
173460,note_on,60,0,0,,,,,,,,0,,,72,0
173520,set_tempo,60,1,0,,,,,,512821,,,,,,
173520,note_on,0,0,0,,,,,,,,0,,,64,50
173580,note_on,60,0,0,,,,,,,,0,,,64,0
173640,set_tempo,60,1,0,,,,,,740832,,,,,,
173640,note_on,0,0,0,,,,,,,,0,,,60,45
173700,note_on,60,0,0,,,,,,,,0,,,60,0
173760,set_tempo,60,1,0,,,,,,490998,,,,,,
173760,note_on,0,0,0,,,,,,,,0,,,83,54
173760,note_on,0,0,0,,,,,,,,0,,,65,38
173760,note_on,0,0,0,,,,,,,,0,,,56,32
173760,note_on,0,0,0,,,,,,,,0,,,62,32
173820,note_on,60,0,0,,,,,,,,0,,,83,0
173880,note_on,60,0,0,,,,,,,,0,,,81,53
173880,note_on,0,0,0,,,,,,,,0,,,89,40
173940,note_on,60,0,0,,,,,,,,0,,,89,0
173940,note_on,0,0,0,,,,,,,,0,,,81,0
174000,note_on,60,0,0,,,,,,,,0,,,62,0
174000,note_on,0,0,0,,,,,,,,0,,,56,0
174000,note_on,0,0,0,,,,,,,,0,,,65,0
174000,note_on,0,0,0,,,,,,,,0,,,80,53
174041,set_tempo,41,1,0,,,,,,468019,,,,,,
174060,note_on,19,0,0,,,,,,,,0,,,80,0
174120,note_on,60,0,0,,,,,,,,0,,,77,52
174120,note_on,0,0,0,,,,,,,,0,,,86,40
174180,note_on,60,0,0,,,,,,,,0,,,86,0
174180,note_on,0,0,0,,,,,,,,0,,,77,0
174218,set_tempo,38,1,0,,,,,,471698,,,,,,
174240,note_on,22,0,0,,,,,,,,0,,,76,53
174300,note_on,60,0,0,,,,,,,,0,,,76,0
174360,note_on,60,0,0,,,,,,,,0,,,74,51
174360,note_on,0,0,0,,,,,,,,0,,,83,38
174370,set_tempo,10,1,0,,,,,,475436,,,,,,
174420,note_on,50,0,0,,,,,,,,0,,,83,0
174420,note_on,0,0,0,,,,,,,,0,,,74,0
174480,note_on,60,0,0,,,,,,,,0,,,72,52
174540,note_on,60,0,0,,,,,,,,0,,,72,0
174547,set_tempo,7,1,0,,,,,,479233,,,,,,
174600,note_on,53,0,0,,,,,,,,0,,,71,51
174600,note_on,0,0,0,,,,,,,,0,,,80,37
174660,note_on,60,0,0,,,,,,,,0,,,80,0
174660,note_on,0,0,0,,,,,,,,0,,,71,0
174698,set_tempo,38,1,0,,,,,,483092,,,,,,
174720,note_on,22,0,0,,,,,,,,0,,,69,51
174720,note_on,0,0,0,,,,,,,,0,,,64,38
174720,note_on,0,0,0,,,,,,,,0,,,60,32
174780,note_on,60,0,0,,,,,,,,0,,,69,0
174840,note_on,60,0,0,,,,,,,,0,,,67,50
174840,note_on,0,0,0,,,,,,,,0,,,76,40
174900,note_on,60,0,0,,,,,,,,0,,,76,0
174900,note_on,0,0,0,,,,,,,,0,,,67,0
174960,note_on,60,0,0,,,,,,,,0,,,60,0
174960,note_on,0,0,0,,,,,,,,0,,,64,0
174960,note_on,0,0,0,,,,,,,,0,,,65,45
175020,note_on,60,0,0,,,,,,,,0,,,65,0
175080,note_on,60,0,0,,,,,,,,0,,,64,45
175080,note_on,0,0,0,,,,,,,,0,,,72,39
175140,note_on,60,0,0,,,,,,,,0,,,72,0
175140,note_on,0,0,0,,,,,,,,0,,,64,0
175200,note_on,60,0,0,,,,,,,,0,,,62,45
175260,note_on,60,0,0,,,,,,,,0,,,62,0
175320,note_on,60,0,0,,,,,,,,0,,,60,45
175320,note_on,0,0,0,,,,,,,,0,,,69,38
175380,note_on,60,0,0,,,,,,,,0,,,69,0
175380,note_on,0,0,0,,,,,,,,0,,,60,0
175440,note_on,60,0,0,,,,,,,,0,,,59,45
175500,note_on,60,0,0,,,,,,,,0,,,59,0
175560,set_tempo,60,1,0,,,,,,544465,,,,,,
175560,note_on,0,0,0,,,,,,,,0,,,57,44
175560,note_on,0,0,0,,,,,,,,0,,,64,36
175620,note_on,60,0,0,,,,,,,,0,,,64,0
175620,note_on,0,0,0,,,,,,,,0,,,57,0
175680,set_tempo,60,1,0,,,,,,483092,,,,,,
175680,note_on,0,0,0,,,,,,,,0,,,65,45
175740,note_on,60,0,0,,,,,,,,0,,,65,0
175800,note_on,60,0,0,,,,,,,,0,,,50,45
175860,note_on,60,0,0,,,,,,,,0,,,50,0
175920,note_on,60,0,0,,,,,,,,0,,,81,50
175920,note_on,0,0,0,,,,,,,,0,,,71,42
175980,note_on,60,0,0,,,,,,,,0,,,71,0
175980,note_on,0,0,0,,,,,,,,0,,,81,0
176040,note_on,60,0,0,,,,,,,,0,,,77,45
176040,note_on,0,0,0,,,,,,,,0,,,74,37
176100,note_on,60,0,0,,,,,,,,0,,,74,0
176100,note_on,0,0,0,,,,,,,,0,,,77,0
176160,note_on,60,0,0,,,,,,,,0,,,68,45
176220,note_on,60,0,0,,,,,,,,0,,,68,0
176280,note_on,60,0,0,,,,,,,,0,,,52,45
176340,note_on,60,0,0,,,,,,,,0,,,52,0
176400,set_tempo,60,1,0,,,,,,507614,,,,,,
176400,note_on,0,0,0,,,,,,,,0,,,83,50
176400,note_on,0,0,0,,,,,,,,0,,,71,42
176460,note_on,60,0,0,,,,,,,,0,,,71,0
176460,note_on,0,0,0,,,,,,,,0,,,83,0
176520,note_on,60,0,0,,,,,,,,0,,,80,44
176520,note_on,0,0,0,,,,,,,,0,,,74,36
176580,note_on,60,0,0,,,,,,,,0,,,74,0
176580,note_on,0,0,0,,,,,,,,0,,,80,0
176640,set_tempo,60,1,0,,,,,,575816,,,,,,
176640,note_on,0,0,0,,,,,,,,0,,,81,45
176640,note_on,0,0,0,,,,,,,,0,,,72,37
176700,note_on,60,0,0,,,,,,,,0,,,72,0
176700,note_on,0,0,0,,,,,,,,0,,,81,0
176760,set_tempo,60,1,0,,,,,,672646,,,,,,
176760,note_on,0,0,0,,,,,,,,0,,,69,42
176760,note_on,0,0,0,,,,,,,,0,,,64,35
176820,note_on,60,0,0,,,,,,,,0,,,64,0
176820,note_on,0,0,0,,,,,,,,0,,,69,0
176880,set_tempo,60,1,0,,,,,,797872,,,,,,
176880,note_on,0,0,0,,,,,,,,0,,,60,42
176940,note_on,60,0,0,,,,,,,,0,,,60,0
177000,set_tempo,60,1,0,,,,,,1171875,,,,,,
177000,note_on,0,0,0,,,,,,,,0,,,57,37
177060,note_on,60,0,0,,,,,,,,0,,,57,0
177120,note_on,60,0,0,,,,,,,,0,,,45,38
177360,note_on,240,0,0,,,,,,,,0,,,45,0
177590,set_tempo,230,1,0,,,,,,751880,,,,,,
177600,time_signature,10,1,0,8,8,12,8,,,,,,,,
177600,set_tempo,0,1,0,,,,,,593296,,,,,,
177600,marker,0,1,0,,,,,,,,,,,,
177600,note_on,0,0,0,,,,,,,,0,,,93,55
177600,note_on,0,0,0,,,,,,,,0,,,81,38
177600,note_on,0,0,0,,,,,,,,0,,,84,38
177600,note_on,0,0,0,,,,,,,,0,,,69,38
177600,note_on,0,0,0,,,,,,,,0,,,76,17
177642,control_change,42,0,0,,,,,,,,0,64,127,,
177650,set_tempo,8,1,0,,,,,,585938,,,,,,
177680,note_on,30,0,0,,,,,,,,0,,,76,0
177680,note_on,0,0,0,,,,,,,,0,,,77,17
177690,set_tempo,10,1,0,,,,,,578815,,,,,,
177730,set_tempo,40,1,0,,,,,,571810,,,,,,
177760,note_on,30,0,0,,,,,,,,0,,,77,0
177760,note_on,0,0,0,,,,,,,,0,,,76,18
177790,set_tempo,30,1,0,,,,,,564972,,,,,,
177830,set_tempo,40,1,0,,,,,,558347,,,,,,
177840,note_on,10,0,0,,,,,,,,0,,,76,0
177840,note_on,0,0,0,,,,,,,,0,,,77,18
177870,set_tempo,30,1,0,,,,,,564972,,,,,,
177920,note_on,50,0,0,,,,,,,,0,,,77,0
177920,note_on,0,0,0,,,,,,,,0,,,76,18
177950,set_tempo,30,1,0,,,,,,558347,,,,,,
178000,note_on,50,0,0,,,,,,,,0,,,76,0
178000,note_on,0,0,0,,,,,,,,0,,,77,18
178030,set_tempo,30,1,0,,,,,,551826,,,,,,
178080,note_on,50,0,0,,,,,,,,0,,,77,0
178080,note_on,0,0,0,,,,,,,,0,,,76,18
178090,set_tempo,10,1,0,,,,,,545455,,,,,,
178160,note_on,70,0,0,,,,,,,,0,,,76,0
178160,note_on,0,0,0,,,,,,,,0,,,77,20
178240,note_on,80,0,0,,,,,,,,0,,,77,0
178240,note_on,0,0,0,,,,,,,,0,,,76,20
178320,note_on,80,0,0,,,,,,,,0,,,76,0
178320,note_on,0,0,0,,,,,,,,0,,,77,22
178370,set_tempo,50,1,0,,,,,,551826,,,,,,
178400,note_on,30,0,0,,,,,,,,0,,,77,0
178400,note_on,0,0,0,,,,,,,,0,,,76,23
178410,set_tempo,10,1,0,,,,,,558347,,,,,,
178430,set_tempo,20,1,0,,,,,,564972,,,,,,
178450,set_tempo,20,1,0,,,,,,571810,,,,,,
178470,set_tempo,20,1,0,,,,,,578815,,,,,,
178480,note_on,10,0,0,,,,,,,,0,,,76,0
178480,note_on,0,0,0,,,,,,,,0,,,77,23
178490,set_tempo,10,1,0,,,,,,585938,,,,,,
178510,set_tempo,20,1,0,,,,,,593296,,,,,,
178530,set_tempo,20,1,0,,,,,,600841,,,,,,
178550,set_tempo,20,1,0,,,,,,608581,,,,,,
178560,note_on,10,0,0,,,,,,,,0,,,77,0
178560,note_on,0,0,0,,,,,,,,0,,,76,22
178610,set_tempo,50,1,0,,,,,,648579,,,,,,
178640,note_on,30,0,0,,,,,,,,0,,,76,0
178640,note_on,0,0,0,,,,,,,,0,,,77,22
178670,set_tempo,30,1,0,,,,,,608581,,,,,,
178720,note_on,50,0,0,,,,,,,,0,,,77,0
178720,note_on,0,0,0,,,,,,,,0,,,76,22
178730,set_tempo,10,1,0,,,,,,600841,,,,,,
178770,set_tempo,40,1,0,,,,,,593296,,,,,,
178800,note_on,30,0,0,,,,,,,,0,,,76,0
178800,note_on,0,0,0,,,,,,,,0,,,77,22
178810,set_tempo,10,1,0,,,,,,585938,,,,,,
178830,set_tempo,20,1,0,,,,,,585938,,,,,,
178870,set_tempo,40,1,0,,,,,,593296,,,,,,
178880,note_on,10,0,0,,,,,,,,0,,,77,0
178880,note_on,0,0,0,,,,,,,,0,,,76,22
178910,set_tempo,30,1,0,,,,,,593296,,,,,,
178930,set_tempo,20,1,0,,,,,,600841,,,,,,
178950,set_tempo,20,1,0,,,,,,616459,,,,,,
178960,note_on,10,0,0,,,,,,,,0,,,76,0
178960,note_on,0,0,0,,,,,,,,0,,,77,22
178970,set_tempo,10,1,0,,,,,,632978,,,,,,
178990,set_tempo,20,1,0,,,,,,650336,,,,,,
179030,set_tempo,40,1,0,,,,,,624610,,,,,,
179040,note_on,10,0,0,,,,,,,,0,,,77,0
179040,note_on,0,0,0,,,,,,,,0,,,93,0
179040,note_on,0,0,0,,,,,,,,0,,,88,52
179040,note_on,0,0,0,,,,,,,,0,,,76,22
179050,set_tempo,10,1,0,,,,,,632978,,,,,,
179120,note_on,70,0,0,,,,,,,,0,,,76,0
179120,note_on,0,0,0,,,,,,,,0,,,77,22
179170,set_tempo,50,1,0,,,,,,571810,,,,,,
179200,note_on,30,0,0,,,,,,,,0,,,77,0
179200,note_on,0,0,0,,,,,,,,0,,,76,22
179210,set_tempo,10,1,0,,,,,,593296,,,,,,
179230,set_tempo,20,1,0,,,,,,600841,,,,,,
179250,set_tempo,20,1,0,,,,,,608581,,,,,,
179270,set_tempo,20,1,0,,,,,,616459,,,,,,
179280,note_on,10,0,0,,,,,,,,0,,,76,0
179280,note_on,0,0,0,,,,,,,,0,,,88,0
179280,note_on,0,0,0,,,,,,,,0,,,96,54
179280,note_on,0,0,0,,,,,,,,0,,,77,22
179290,set_tempo,10,1,0,,,,,,632978,,,,,,
179350,set_tempo,60,1,0,,,,,,578815,,,,,,
179360,note_on,10,0,0,,,,,,,,0,,,77,0
179360,note_on,0,0,0,,,,,,,,0,,,76,22
179390,set_tempo,30,1,0,,,,,,585938,,,,,,
179410,set_tempo,20,1,0,,,,,,593296,,,,,,
179430,set_tempo,20,1,0,,,,,,600841,,,,,,
179440,note_on,10,0,0,,,,,,,,0,,,76,0
179440,note_on,0,0,0,,,,,,,,0,,,77,22
179470,set_tempo,30,1,0,,,,,,608581,,,,,,
179490,set_tempo,20,1,0,,,,,,616459,,,,,,
179510,set_tempo,20,1,0,,,,,,624610,,,,,,
179520,note_on,10,0,0,,,,,,,,0,,,77,0
179520,note_on,0,0,0,,,,,,,,0,,,69,0
179520,note_on,0,0,0,,,,,,,,0,,,81,0
179520,note_on,0,0,0,,,,,,,,0,,,84,0
179520,note_on,0,0,0,,,,,,,,0,,,96,0
179520,note_on,0,0,0,,,,,,,,0,,,95,54
179520,note_on,0,0,0,,,,,,,,0,,,83,37
179520,note_on,0,0,0,,,,,,,,0,,,88,37
179520,note_on,0,0,0,,,,,,,,0,,,69,38
179520,note_on,0,0,0,,,,,,,,0,,,74,38
179520,note_on,0,0,0,,,,,,,,0,,,76,21
179553,control_change,33,0,0,,,,,,,,0,64,0,,
179584,control_change,31,0,0,,,,,,,,0,64,127,,
179600,note_on,16,0,0,,,,,,,,0,,,76,0
179600,note_on,0,0,0,,,,,,,,0,,,77,21
179680,note_on,80,0,0,,,,,,,,0,,,77,0
179680,note_on,0,0,0,,,,,,,,0,,,76,21
179710,set_tempo,30,1,0,,,,,,593296,,,,,,
179750,set_tempo,40,1,0,,,,,,585938,,,,,,
179760,note_on,10,0,0,,,,,,,,0,,,76,0
179760,note_on,0,0,0,,,,,,,,0,,,95,0
179760,note_on,0,0,0,,,,,,,,0,,,93,52
179760,note_on,0,0,0,,,,,,,,0,,,77,22
179790,set_tempo,30,1,0,,,,,,578815,,,,,,
179830,set_tempo,40,1,0,,,,,,571810,,,,,,
179840,note_on,10,0,0,,,,,,,,0,,,77,0
179840,note_on,0,0,0,,,,,,,,0,,,76,22
179870,set_tempo,30,1,0,,,,,,564972,,,,,,
179910,set_tempo,40,1,0,,,,,,558347,,,,,,
179920,note_on,10,0,0,,,,,,,,0,,,76,0
179920,note_on,0,0,0,,,,,,,,0,,,77,22
179950,set_tempo,30,1,0,,,,,,551826,,,,,,
179990,set_tempo,40,1,0,,,,,,545455,,,,,,
180000,note_on,10,0,0,,,,,,,,0,,,77,0
180000,note_on,0,0,0,,,,,,,,0,,,93,0
180000,note_on,0,0,0,,,,,,,,0,,,92,51
180000,note_on,0,0,0,,,,,,,,0,,,76,23
180030,set_tempo,30,1,0,,,,,,539229,,,,,,
180070,set_tempo,40,1,0,,,,,,545455,,,,,,
180080,note_on,10,0,0,,,,,,,,0,,,76,0
180080,note_on,0,0,0,,,,,,,,0,,,77,24
180110,set_tempo,30,1,0,,,,,,551826,,,,,,
180130,set_tempo,20,1,0,,,,,,558347,,,,,,
180160,note_on,30,0,0,,,,,,,,0,,,77,0
180160,note_on,0,0,0,,,,,,,,0,,,76,24
180170,set_tempo,10,1,0,,,,,,564972,,,,,,
180210,set_tempo,40,1,0,,,,,,571810,,,,,,
180230,set_tempo,20,1,0,,,,,,578815,,,,,,
180240,note_on,10,0,0,,,,,,,,0,,,76,0
180240,note_on,0,0,0,,,,,,,,0,,,92,0
180240,note_on,0,0,0,,,,,,,,0,,,90,49
180240,note_on,0,0,0,,,,,,,,0,,,77,25
180320,note_on,80,0,0,,,,,,,,0,,,77,0
180320,note_on,0,0,0,,,,,,,,0,,,76,26
180400,note_on,80,0,0,,,,,,,,0,,,76,0
180400,note_on,0,0,0,,,,,,,,0,,,77,29
180450,set_tempo,50,1,0,,,,,,600841,,,,,,
180480,note_on,30,0,0,,,,,,,,0,,,77,0
180480,note_on,0,0,0,,,,,,,,0,,,90,0
180480,note_on,0,0,0,,,,,,,,0,,,88,51
180480,note_on,0,0,0,,,,,,,,0,,,76,31
180501,control_change,21,0,0,,,,,,,,0,64,0,,
180510,set_tempo,9,1,0,,,,,,593296,,,,,,
180560,note_on,50,0,0,,,,,,,,0,,,76,0
180560,note_on,0,0,0,,,,,,,,0,,,77,30
180570,set_tempo,10,1,0,,,,,,585938,,,,,,
180576,control_change,6,0,0,,,,,,,,0,64,127,,
180610,set_tempo,34,1,0,,,,,,578815,,,,,,
180640,note_on,30,0,0,,,,,,,,0,,,77,0
180640,note_on,0,0,0,,,,,,,,0,,,76,29
180670,set_tempo,30,1,0,,,,,,571810,,,,,,
180720,note_on,50,0,0,,,,,,,,0,,,76,0
180720,note_on,0,0,0,,,,,,,,0,,,88,0
180720,note_on,0,0,0,,,,,,,,0,,,90,49
180720,note_on,0,0,0,,,,,,,,0,,,77,29
180730,set_tempo,10,1,0,,,,,,564972,,,,,,
180770,set_tempo,40,1,0,,,,,,558347,,,,,,
180800,note_on,30,0,0,,,,,,,,0,,,77,0
180800,note_on,0,0,0,,,,,,,,0,,,76,29
180850,set_tempo,50,1,0,,,,,,564972,,,,,,
180880,note_on,30,0,0,,,,,,,,0,,,76,0
180880,note_on,0,0,0,,,,,,,,0,,,77,27
180910,set_tempo,30,1,0,,,,,,571810,,,,,,
180960,note_on,50,0,0,,,,,,,,0,,,77,0
180960,note_on,0,0,0,,,,,,,,0,,,90,0
180960,note_on,0,0,0,,,,,,,,0,,,92,52
180960,note_on,0,0,0,,,,,,,,0,,,76,25
180970,set_tempo,10,1,0,,,,,,564972,,,,,,
180990,set_tempo,20,1,0,,,,,,571810,,,,,,
181010,set_tempo,20,1,0,,,,,,578815,,,,,,
181030,set_tempo,20,1,0,,,,,,593296,,,,,,
181040,note_on,10,0,0,,,,,,,,0,,,76,0
181040,note_on,0,0,0,,,,,,,,0,,,77,25
181050,set_tempo,10,1,0,,,,,,600841,,,,,,
181070,set_tempo,20,1,0,,,,,,608581,,,,,,
181090,set_tempo,20,1,0,,,,,,624610,,,,,,
181110,set_tempo,20,1,0,,,,,,632978,,,,,,
181120,note_on,10,0,0,,,,,,,,0,,,77,0
181120,note_on,0,0,0,,,,,,,,0,,,76,25
181130,set_tempo,10,1,0,,,,,,641574,,,,,,
181150,set_tempo,20,1,0,,,,,,659413,,,,,,
181170,set_tempo,20,1,0,,,,,,668747,,,,,,
181190,set_tempo,20,1,0,,,,,,688152,,,,,,
181200,note_on,10,0,0,,,,,,,,0,,,76,0
181200,note_on,0,0,0,,,,,,,,0,,,92,0
181200,note_on,0,0,0,,,,,,,,0,,,88,54
181200,note_on,0,0,0,,,,,,,,0,,,77,25
181210,set_tempo,10,1,0,,,,,,606980,,,,,,
181230,set_tempo,20,1,0,,,,,,641574,,,,,,
181280,note_on,50,0,0,,,,,,,,0,,,77,0
181280,note_on,0,0,0,,,,,,,,0,,,76,25
181360,note_on,80,0,0,,,,,,,,0,,,76,0
181360,note_on,0,0,0,,,,,,,,0,,,77,23
181430,set_tempo,70,1,0,,,,,,608581,,,,,,
181434,set_tempo,4,1,0,,,,,,688152,,,,,,
181440,note_on,6,0,0,,,,,,,,0,,,77,0
181440,note_on,0,0,0,,,,,,,,0,,,88,0
181440,note_on,0,0,0,,,,,,,,0,,,74,0
181440,note_on,0,0,0,,,,,,,,0,,,83,0
181440,note_on,0,0,0,,,,,,,,0,,,88,0
181440,note_on,0,0,0,,,,,,,,0,,,69,0
181440,note_on,0,0,0,,,,,,,,0,,,93,57
181440,note_on,0,0,0,,,,,,,,0,,,84,39
181440,note_on,0,0,0,,,,,,,,0,,,88,39
181440,note_on,0,0,0,,,,,,,,0,,,72,38
181440,note_on,0,0,0,,,,,,,,0,,,69,38
181440,note_on,0,0,0,,,,,,,,0,,,76,19
181454,set_tempo,14,1,0,,,,,,641574,,,,,,
181460,control_change,6,0,0,,,,,,,,0,64,0,,
181474,set_tempo,14,1,0,,,,,,624610,,,,,,
181494,set_tempo,20,1,0,,,,,,600841,,,,,,
181503,control_change,9,0,0,,,,,,,,0,64,127,,
181514,set_tempo,11,1,0,,,,,,593296,,,,,,
181520,note_on,6,0,0,,,,,,,,0,,,76,0
181520,note_on,0,0,0,,,,,,,,0,,,77,23
181534,set_tempo,14,1,0,,,,,,585938,,,,,,
181554,set_tempo,20,1,0,,,,,,578815,,,,,,
181574,set_tempo,20,1,0,,,,,,571810,,,,,,
181600,note_on,26,0,0,,,,,,,,0,,,77,0
181600,note_on,0,0,0,,,,,,,,0,,,76,24
181610,set_tempo,10,1,0,,,,,,585938,,,,,,
181650,set_tempo,40,1,0,,,,,,578815,,,,,,
181674,set_tempo,24,1,0,,,,,,585938,,,,,,
181680,note_on,6,0,0,,,,,,,,0,,,76,0
181680,note_on,0,0,0,,,,,,,,0,,,77,24
181694,set_tempo,14,1,0,,,,,,571810,,,,,,
181714,set_tempo,20,1,0,,,,,,551826,,,,,,
181734,set_tempo,20,1,0,,,,,,545455,,,,,,
181760,note_on,26,0,0,,,,,,,,0,,,77,0
181760,note_on,0,0,0,,,,,,,,0,,,76,25
181774,set_tempo,14,1,0,,,,,,539229,,,,,,
181794,set_tempo,20,1,0,,,,,,539229,,,,,,
181840,note_on,46,0,0,,,,,,,,0,,,76,0
181840,note_on,0,0,0,,,,,,,,0,,,77,25
181854,set_tempo,14,1,0,,,,,,571810,,,,,,
181874,set_tempo,20,1,0,,,,,,578815,,,,,,
181914,set_tempo,40,1,0,,,,,,564972,,,,,,
181920,note_on,6,0,0,,,,,,,,0,,,77,0
181920,note_on,0,0,0,,,,,,,,0,,,76,25
181934,set_tempo,14,1,0,,,,,,558347,,,,,,
181954,set_tempo,20,1,0,,,,,,551826,,,,,,
181974,set_tempo,20,1,0,,,,,,545455,,,,,,
182000,note_on,26,0,0,,,,,,,,0,,,76,0
182000,note_on,0,0,0,,,,,,,,0,,,77,26
182034,set_tempo,34,1,0,,,,,,539229,,,,,,
182054,set_tempo,20,1,0,,,,,,539229,,,,,,
182080,note_on,26,0,0,,,,,,,,0,,,77,0
182080,note_on,0,0,0,,,,,,,,0,,,76,26
182094,set_tempo,14,1,0,,,,,,558347,,,,,,
182160,note_on,66,0,0,,,,,,,,0,,,76,0
182160,note_on,0,0,0,,,,,,,,0,,,77,26
182174,set_tempo,14,1,0,,,,,,578815,,,,,,
182240,note_on,66,0,0,,,,,,,,0,,,77,0
182240,note_on,0,0,0,,,,,,,,0,,,76,28
182280,note_on,40,0,0,,,,,,,,0,,,95,47
182294,set_tempo,14,1,0,,,,,,551826,,,,,,
182320,note_on,26,0,0,,,,,,,,0,,,95,0
182320,note_on,0,0,0,,,,,,,,0,,,76,0
182320,note_on,0,0,0,,,,,,,,0,,,93,42
182320,note_on,0,0,0,,,,,,,,0,,,77,28
182360,note_on,40,0,0,,,,,,,,0,,,93,0
182360,note_on,0,0,0,,,,,,,,0,,,92,42
182370,set_tempo,10,1,0,,,,,,551826,,,,,,
182400,note_on,30,0,0,,,,,,,,0,,,92,0
182400,note_on,0,0,0,,,,,,,,0,,,77,0
182400,note_on,0,0,0,,,,,,,,0,,,93,0
182400,note_on,0,0,0,,,,,,,,0,,,93,58
182400,note_on,0,0,0,,,,,,,,0,,,76,28
182413,control_change,13,0,0,,,,,,,,0,64,0,,
182451,control_change,38,0,0,,,,,,,,0,64,127,,
182480,note_on,29,0,0,,,,,,,,0,,,76,0
182480,note_on,0,0,0,,,,,,,,0,,,77,29
182560,note_on,80,0,0,,,,,,,,0,,,77,0
182560,note_on,0,0,0,,,,,,,,0,,,76,29
182640,note_on,80,0,0,,,,,,,,0,,,76,0
182640,note_on,0,0,0,,,,,,,,0,,,93,0
182640,note_on,0,0,0,,,,,,,,0,,,95,54
182640,note_on,0,0,0,,,,,,,,0,,,77,29
182720,note_on,80,0,0,,,,,,,,0,,,77,0
182720,note_on,0,0,0,,,,,,,,0,,,76,29
182800,note_on,80,0,0,,,,,,,,0,,,76,0
182800,note_on,0,0,0,,,,,,,,0,,,77,29
182870,set_tempo,70,1,0,,,,,,558347,,,,,,
182880,note_on,10,0,0,,,,,,,,0,,,77,0
182880,note_on,0,0,0,,,,,,,,0,,,95,0
182880,note_on,0,0,0,,,,,,,,0,,,96,55
182880,note_on,0,0,0,,,,,,,,0,,,76,29
182960,note_on,80,0,0,,,,,,,,0,,,76,0
182960,note_on,0,0,0,,,,,,,,0,,,77,29
183040,note_on,80,0,0,,,,,,,,0,,,77,0
183040,note_on,0,0,0,,,,,,,,0,,,76,27
183110,set_tempo,70,1,0,,,,,,558347,,,,,,
183120,set_tempo,10,1,0,,,,,,571810,,,,,,
183120,note_on,0,0,0,,,,,,,,0,,,76,0
183120,note_on,0,0,0,,,,,,,,0,,,96,0
183120,note_on,0,0,0,,,,,,,,0,,,98,58
183120,note_on,0,0,0,,,,,,,,0,,,77,25
183140,set_tempo,20,1,0,,,,,,578815,,,,,,
183160,set_tempo,20,1,0,,,,,,585938,,,,,,
183180,set_tempo,20,1,0,,,,,,593296,,,,,,
183200,set_tempo,20,1,0,,,,,,608581,,,,,,
183200,note_on,0,0,0,,,,,,,,0,,,77,0
183200,note_on,0,0,0,,,,,,,,0,,,76,25
183220,set_tempo,20,1,0,,,,,,616459,,,,,,
183240,set_tempo,20,1,0,,,,,,624610,,,,,,
183260,set_tempo,20,1,0,,,,,,632978,,,,,,
183280,set_tempo,20,1,0,,,,,,650336,,,,,,
183280,note_on,0,0,0,,,,,,,,0,,,76,0
183280,note_on,0,0,0,,,,,,,,0,,,77,25
183300,set_tempo,20,1,0,,,,,,659413,,,,,,
183320,set_tempo,20,1,0,,,,,,668747,,,,,,
183340,set_tempo,20,1,0,,,,,,678349,,,,,,
183360,set_tempo,20,1,0,,,,,,698324,,,,,,
183360,note_on,0,0,0,,,,,,,,0,,,77,0
183360,note_on,0,0,0,,,,,,,,0,,,88,0
183360,note_on,0,0,0,,,,,,,,0,,,72,0
183360,note_on,0,0,0,,,,,,,,0,,,84,0
183360,note_on,0,0,0,,,,,,,,0,,,98,0
183360,note_on,0,0,0,,,,,,,,0,,,69,0
183360,note_on,0,0,0,,,,,,,,0,,,86,41
183360,note_on,0,0,0,,,,,,,,0,,,99,62
183360,note_on,0,0,0,,,,,,,,0,,,92,41
183360,note_on,0,0,0,,,,,,,,0,,,71,38
183360,note_on,0,0,0,,,,,,,,0,,,69,38
183360,note_on,0,0,0,,,,,,,,0,,,76,26
183371,control_change,11,0,0,,,,,,,,0,64,0,,
183410,set_tempo,39,1,0,,,,,,558347,,,,,,
183424,control_change,14,0,0,,,,,,,,0,64,127,,
183440,note_on,16,0,0,,,,,,,,0,,,76,0
183440,note_on,0,0,0,,,,,,,,0,,,77,22
183470,set_tempo,30,1,0,,,,,,551826,,,,,,
183520,note_on,50,0,0,,,,,,,,0,,,77,0
183520,note_on,0,0,0,,,,,,,,0,,,76,23
183530,set_tempo,10,1,0,,,,,,545455,,,,,,
183600,note_on,70,0,0,,,,,,,,0,,,76,0
183600,note_on,0,0,0,,,,,,,,0,,,77,24
183610,set_tempo,10,1,0,,,,,,539229,,,,,,
183670,set_tempo,60,1,0,,,,,,533191,,,,,,
183680,note_on,10,0,0,,,,,,,,0,,,77,0
183680,note_on,0,0,0,,,,,,,,0,,,76,24
183730,set_tempo,50,1,0,,,,,,527241,,,,,,
183760,note_on,30,0,0,,,,,,,,0,,,76,0
183760,note_on,0,0,0,,,,,,,,0,,,77,24
183790,set_tempo,30,1,0,,,,,,521422,,,,,,
183840,note_on,50,0,0,,,,,,,,0,,,77,0
183840,note_on,0,0,0,,,,,,,,0,,,76,26
183890,set_tempo,50,1,0,,,,,,527241,,,,,,
183920,note_on,30,0,0,,,,,,,,0,,,76,0
183920,note_on,0,0,0,,,,,,,,0,,,77,28
183970,set_tempo,50,1,0,,,,,,533191,,,,,,
184000,note_on,30,0,0,,,,,,,,0,,,77,0
184000,note_on,0,0,0,,,,,,,,0,,,76,28
184050,set_tempo,50,1,0,,,,,,539229,,,,,,
184080,note_on,30,0,0,,,,,,,,0,,,76,0
184080,note_on,0,0,0,,,,,,,,0,,,99,0
184080,note_on,0,0,0,,,,,,,,0,,,100,54
184080,note_on,0,0,0,,,,,,,,0,,,77,30
184090,set_tempo,10,1,0,,,,,,545455,,,,,,
184110,set_tempo,20,1,0,,,,,,551826,,,,,,
184130,set_tempo,20,1,0,,,,,,558347,,,,,,
184150,set_tempo,20,1,0,,,,,,564972,,,,,,
184160,note_on,10,0,0,,,,,,,,0,,,77,0
184160,note_on,0,0,0,,,,,,,,0,,,76,31
184170,set_tempo,10,1,0,,,,,,571810,,,,,,
184190,set_tempo,20,1,0,,,,,,578815,,,,,,
184210,set_tempo,20,1,0,,,,,,585938,,,,,,
184230,set_tempo,20,1,0,,,,,,585938,,,,,,
184240,note_on,10,0,0,,,,,,,,0,,,76,0
184240,note_on,0,0,0,,,,,,,,0,,,77,31
184250,set_tempo,10,1,0,,,,,,641574,,,,,,
184270,set_tempo,20,1,0,,,,,,708801,,,,,,
184290,set_tempo,20,1,0,,,,,,805261,,,,,,
184310,set_tempo,20,1,0,,,,,,564972,,,,,,
184320,note_on,10,0,0,,,,,,,,0,,,77,0
184320,note_on,0,0,0,,,,,,,,0,,,100,0
184320,note_on,0,0,0,,,,,,,,0,,,88,55
184320,note_on,0,0,0,,,,,,,,0,,,76,30
184330,set_tempo,10,1,0,,,,,,593296,,,,,,
184344,control_change,14,0,0,,,,,,,,0,64,0,,
184370,set_tempo,26,1,0,,,,,,585938,,,,,,
184400,note_on,30,0,0,,,,,,,,0,,,76,0
184400,note_on,0,0,0,,,,,,,,0,,,77,30
184410,set_tempo,10,1,0,,,,,,578815,,,,,,
184415,control_change,5,0,0,,,,,,,,0,64,127,,
184430,set_tempo,15,1,0,,,,,,571810,,,,,,
184470,set_tempo,40,1,0,,,,,,564972,,,,,,
184480,note_on,10,0,0,,,,,,,,0,,,77,0
184480,note_on,0,0,0,,,,,,,,0,,,76,30
184510,set_tempo,30,1,0,,,,,,558347,,,,,,
184530,set_tempo,20,1,0,,,,,,551826,,,,,,
184560,note_on,30,0,0,,,,,,,,0,,,76,0
184560,note_on,0,0,0,,,,,,,,0,,,77,30
184570,set_tempo,10,1,0,,,,,,545455,,,,,,
184590,set_tempo,20,1,0,,,,,,539229,,,,,,
184640,note_on,50,0,0,,,,,,,,0,,,77,0
184640,note_on,0,0,0,,,,,,,,0,,,76,29
184650,set_tempo,10,1,0,,,,,,545455,,,,,,
184710,set_tempo,60,1,0,,,,,,551826,,,,,,
184720,note_on,10,0,0,,,,,,,,0,,,76,0
184720,note_on,0,0,0,,,,,,,,0,,,77,26
184770,set_tempo,50,1,0,,,,,,558347,,,,,,
184800,note_on,30,0,0,,,,,,,,0,,,77,0
184800,note_on,0,0,0,,,,,,,,0,,,76,26
184810,set_tempo,10,1,0,,,,,,564972,,,,,,
184850,set_tempo,40,1,0,,,,,,558347,,,,,,
184870,set_tempo,20,1,0,,,,,,551826,,,,,,
184880,note_on,10,0,0,,,,,,,,0,,,76,0
184880,note_on,0,0,0,,,,,,,,0,,,77,25
184930,set_tempo,50,1,0,,,,,,558347,,,,,,
184960,note_on,30,0,0,,,,,,,,0,,,77,0
184960,note_on,0,0,0,,,,,,,,0,,,76,24
184990,set_tempo,30,1,0,,,,,,564972,,,,,,
185040,note_on,50,0,0,,,,,,,,0,,,76,0
185040,note_on,0,0,0,,,,,,,,0,,,77,24
185050,set_tempo,10,1,0,,,,,,571810,,,,,,
185074,set_tempo,24,1,0,,,,,,571810,,,,,,
185094,set_tempo,20,1,0,,,,,,578815,,,,,,
185114,set_tempo,20,1,0,,,,,,585938,,,,,,
185120,note_on,6,0,0,,,,,,,,0,,,77,0
185120,note_on,0,0,0,,,,,,,,0,,,76,23
185134,set_tempo,14,1,0,,,,,,593296,,,,,,
185154,set_tempo,20,1,0,,,,,,632978,,,,,,
185174,set_tempo,20,1,0,,,,,,659413,,,,,,
185194,set_tempo,20,1,0,,,,,,698324,,,,,,
185200,note_on,6,0,0,,,,,,,,0,,,76,0
185200,note_on,0,0,0,,,,,,,,0,,,77,21
185214,set_tempo,14,1,0,,,,,,730638,,,,,,
185234,set_tempo,20,1,0,,,,,,778715,,,,,,
185274,set_tempo,40,1,0,,,,,,766088,,,,,,
185280,note_on,6,0,0,,,,,,,,0,,,77,0
185280,note_on,0,0,0,,,,,,,,0,,,88,0
185280,note_on,0,0,0,,,,,,,,0,,,71,0
185280,note_on,0,0,0,,,,,,,,0,,,86,0
185280,note_on,0,0,0,,,,,,,,0,,,92,0
185280,note_on,0,0,0,,,,,,,,0,,,69,0
185280,note_on,0,0,0,,,,,,,,0,,,84,38
185280,note_on,0,0,0,,,,,,,,0,,,93,55
185280,note_on,0,0,0,,,,,,,,0,,,81,38
185280,note_on,0,0,0,,,,,,,,0,,,69,38
185280,control_change,0,0,0,,,,,,,,0,64,0,,
185280,note_on,0,0,0,,,,,,,,0,,,76,21
185294,set_tempo,14,1,0,,,,,,719511,,,,,,
185314,set_tempo,20,1,0,,,,,,668747,,,,,,
185322,control_change,8,0,0,,,,,,,,0,64,127,,
185334,set_tempo,12,1,0,,,,,,632978,,,,,,
185354,set_tempo,20,1,0,,,,,,593296,,,,,,
185360,note_on,6,0,0,,,,,,,,0,,,76,0
185360,note_on,0,0,0,,,,,,,,0,,,77,21
185374,set_tempo,14,1,0,,,,,,558347,,,,,,
185410,set_tempo,36,1,0,,,,,,571810,,,,,,
185440,note_on,30,0,0,,,,,,,,0,,,77,0
185440,note_on,0,0,0,,,,,,,,0,,,76,21
185470,set_tempo,30,1,0,,,,,,564972,,,,,,
185510,set_tempo,40,1,0,,,,,,558347,,,,,,
185520,note_on,10,0,0,,,,,,,,0,,,76,0
185520,note_on,0,0,0,,,,,,,,0,,,77,22
185550,set_tempo,30,1,0,,,,,,564972,,,,,,
185600,note_on,50,0,0,,,,,,,,0,,,77,0
185600,note_on,0,0,0,,,,,,,,0,,,76,24
185630,set_tempo,30,1,0,,,,,,558347,,,,,,
185680,note_on,50,0,0,,,,,,,,0,,,76,0
185680,note_on,0,0,0,,,,,,,,0,,,77,24
185710,set_tempo,30,1,0,,,,,,551826,,,,,,
185760,note_on,50,0,0,,,,,,,,0,,,77,0
185760,note_on,0,0,0,,,,,,,,0,,,76,25
185770,set_tempo,10,1,0,,,,,,545455,,,,,,
185840,note_on,70,0,0,,,,,,,,0,,,76,0
185840,note_on,0,0,0,,,,,,,,0,,,77,26
185920,note_on,80,0,0,,,,,,,,0,,,77,0
185920,note_on,0,0,0,,,,,,,,0,,,76,26
186000,note_on,80,0,0,,,,,,,,0,,,76,0
186000,note_on,0,0,0,,,,,,,,0,,,77,28
186050,set_tempo,50,1,0,,,,,,551826,,,,,,
186080,note_on,30,0,0,,,,,,,,0,,,77,0
186080,note_on,0,0,0,,,,,,,,0,,,76,28
186090,set_tempo,10,1,0,,,,,,558347,,,,,,
186110,set_tempo,20,1,0,,,,,,564972,,,,,,
186130,set_tempo,20,1,0,,,,,,571810,,,,,,
186150,set_tempo,20,1,0,,,,,,578815,,,,,,
186160,note_on,10,0,0,,,,,,,,0,,,76,0
186160,note_on,0,0,0,,,,,,,,0,,,77,28
186170,set_tempo,10,1,0,,,,,,585938,,,,,,
186190,set_tempo,20,1,0,,,,,,593296,,,,,,
186210,set_tempo,20,1,0,,,,,,600841,,,,,,
186230,set_tempo,20,1,0,,,,,,608581,,,,,,
186240,note_on,10,0,0,,,,,,,,0,,,77,0
186240,note_on,0,0,0,,,,,,,,0,,,76,27
186290,set_tempo,50,1,0,,,,,,648579,,,,,,
186320,note_on,30,0,0,,,,,,,,0,,,76,0
186320,note_on,0,0,0,,,,,,,,0,,,77,27
186350,set_tempo,30,1,0,,,,,,608581,,,,,,
186400,note_on,50,0,0,,,,,,,,0,,,77,0
186400,note_on,0,0,0,,,,,,,,0,,,76,27
186410,set_tempo,10,1,0,,,,,,600841,,,,,,
186450,set_tempo,40,1,0,,,,,,593296,,,,,,
186480,note_on,30,0,0,,,,,,,,0,,,76,0
186480,note_on,0,0,0,,,,,,,,0,,,77,27
186490,set_tempo,10,1,0,,,,,,585938,,,,,,
186510,set_tempo,20,1,0,,,,,,585938,,,,,,
186550,set_tempo,40,1,0,,,,,,593296,,,,,,
186560,note_on,10,0,0,,,,,,,,0,,,77,0
186560,note_on,0,0,0,,,,,,,,0,,,76,25
186590,set_tempo,30,1,0,,,,,,593296,,,,,,
186610,set_tempo,20,1,0,,,,,,600841,,,,,,
186630,set_tempo,20,1,0,,,,,,616459,,,,,,
186640,note_on,10,0,0,,,,,,,,0,,,76,0
186640,note_on,0,0,0,,,,,,,,0,,,77,23
186650,set_tempo,10,1,0,,,,,,632978,,,,,,
186670,set_tempo,20,1,0,,,,,,650336,,,,,,
186710,set_tempo,40,1,0,,,,,,624610,,,,,,
186720,note_on,10,0,0,,,,,,,,0,,,77,0
186720,note_on,0,0,0,,,,,,,,0,,,93,0
186720,note_on,0,0,0,,,,,,,,0,,,88,56
186720,note_on,0,0,0,,,,,,,,0,,,76,23
186730,set_tempo,10,1,0,,,,,,632978,,,,,,
186800,note_on,70,0,0,,,,,,,,0,,,76,0
186800,note_on,0,0,0,,,,,,,,0,,,77,23
186850,set_tempo,50,1,0,,,,,,571810,,,,,,
186880,note_on,30,0,0,,,,,,,,0,,,77,0
186880,note_on,0,0,0,,,,,,,,0,,,76,23
186890,set_tempo,10,1,0,,,,,,593296,,,,,,
186910,set_tempo,20,1,0,,,,,,600841,,,,,,
186930,set_tempo,20,1,0,,,,,,608581,,,,,,
186950,set_tempo,20,1,0,,,,,,616459,,,,,,
186960,note_on,10,0,0,,,,,,,,0,,,76,0
186960,note_on,0,0,0,,,,,,,,0,,,88,0
186960,note_on,0,0,0,,,,,,,,0,,,96,55
186960,note_on,0,0,0,,,,,,,,0,,,77,23
186970,set_tempo,10,1,0,,,,,,632978,,,,,,
187030,set_tempo,60,1,0,,,,,,578815,,,,,,
187040,note_on,10,0,0,,,,,,,,0,,,77,0
187040,note_on,0,0,0,,,,,,,,0,,,76,23
187070,set_tempo,30,1,0,,,,,,585938,,,,,,
187090,set_tempo,20,1,0,,,,,,593296,,,,,,
187110,set_tempo,20,1,0,,,,,,600841,,,,,,
187120,note_on,10,0,0,,,,,,,,0,,,76,0
187120,note_on,0,0,0,,,,,,,,0,,,77,23
187150,set_tempo,30,1,0,,,,,,608581,,,,,,
187170,set_tempo,20,1,0,,,,,,616459,,,,,,
187190,set_tempo,20,1,0,,,,,,624610,,,,,,
187200,note_on,10,0,0,,,,,,,,0,,,77,0
187200,note_on,0,0,0,,,,,,,,0,,,69,0
187200,note_on,0,0,0,,,,,,,,0,,,84,0
187200,note_on,0,0,0,,,,,,,,0,,,81,0
187200,note_on,0,0,0,,,,,,,,0,,,96,0
187200,note_on,0,0,0,,,,,,,,0,,,95,54
187200,note_on,0,0,0,,,,,,,,0,,,83,37
187200,note_on,0,0,0,,,,,,,,0,,,88,37
187200,note_on,0,0,0,,,,,,,,0,,,69,38
187200,note_on,0,0,0,,,,,,,,0,,,74,38
187200,note_on,0,0,0,,,,,,,,0,,,76,23
187233,control_change,33,0,0,,,,,,,,0,64,0,,
187264,control_change,31,0,0,,,,,,,,0,64,127,,
187280,note_on,16,0,0,,,,,,,,0,,,76,0
187280,note_on,0,0,0,,,,,,,,0,,,77,23
187360,note_on,80,0,0,,,,,,,,0,,,77,0
187360,note_on,0,0,0,,,,,,,,0,,,76,23
187390,set_tempo,30,1,0,,,,,,593296,,,,,,
187430,set_tempo,40,1,0,,,,,,585938,,,,,,
187440,note_on,10,0,0,,,,,,,,0,,,76,0
187440,note_on,0,0,0,,,,,,,,0,,,95,0
187440,note_on,0,0,0,,,,,,,,0,,,93,51
187440,note_on,0,0,0,,,,,,,,0,,,77,23
187470,set_tempo,30,1,0,,,,,,578815,,,,,,
187510,set_tempo,40,1,0,,,,,,571810,,,,,,
187520,note_on,10,0,0,,,,,,,,0,,,77,0
187520,note_on,0,0,0,,,,,,,,0,,,76,25
187550,set_tempo,30,1,0,,,,,,564972,,,,,,
187590,set_tempo,40,1,0,,,,,,558347,,,,,,
187600,note_on,10,0,0,,,,,,,,0,,,76,0
187600,note_on,0,0,0,,,,,,,,0,,,77,22
187630,set_tempo,30,1,0,,,,,,551826,,,,,,
187670,set_tempo,40,1,0,,,,,,545455,,,,,,
187680,note_on,10,0,0,,,,,,,,0,,,77,0
187680,note_on,0,0,0,,,,,,,,0,,,93,0
187680,note_on,0,0,0,,,,,,,,0,,,92,51
187680,note_on,0,0,0,,,,,,,,0,,,76,22
187710,set_tempo,30,1,0,,,,,,539229,,,,,,
187750,set_tempo,40,1,0,,,,,,545455,,,,,,
187760,note_on,10,0,0,,,,,,,,0,,,76,0
187760,note_on,0,0,0,,,,,,,,0,,,77,22
187790,set_tempo,30,1,0,,,,,,551826,,,,,,
187810,set_tempo,20,1,0,,,,,,558347,,,,,,
187840,note_on,30,0,0,,,,,,,,0,,,77,0
187840,note_on,0,0,0,,,,,,,,0,,,76,22
187850,set_tempo,10,1,0,,,,,,564972,,,,,,
187890,set_tempo,40,1,0,,,,,,571810,,,,,,
187910,set_tempo,20,1,0,,,,,,578815,,,,,,
187920,note_on,10,0,0,,,,,,,,0,,,76,0
187920,note_on,0,0,0,,,,,,,,0,,,92,0
187920,note_on,0,0,0,,,,,,,,0,,,90,51
187920,note_on,0,0,0,,,,,,,,0,,,77,23
188000,note_on,80,0,0,,,,,,,,0,,,77,0
188000,note_on,0,0,0,,,,,,,,0,,,76,25
188080,note_on,80,0,0,,,,,,,,0,,,76,0
188080,note_on,0,0,0,,,,,,,,0,,,77,26
188130,set_tempo,50,1,0,,,,,,600841,,,,,,
188160,note_on,30,0,0,,,,,,,,0,,,77,0
188160,note_on,0,0,0,,,,,,,,0,,,90,0
188160,note_on,0,0,0,,,,,,,,0,,,88,52
188160,note_on,0,0,0,,,,,,,,0,,,76,27
188181,control_change,21,0,0,,,,,,,,0,64,0,,
188190,set_tempo,9,1,0,,,,,,593296,,,,,,
188240,note_on,50,0,0,,,,,,,,0,,,76,0
188240,note_on,0,0,0,,,,,,,,0,,,77,27
188250,set_tempo,10,1,0,,,,,,585938,,,,,,
188256,control_change,6,0,0,,,,,,,,0,64,127,,
188290,set_tempo,34,1,0,,,,,,578815,,,,,,
188320,note_on,30,0,0,,,,,,,,0,,,77,0
188320,note_on,0,0,0,,,,,,,,0,,,76,27
188350,set_tempo,30,1,0,,,,,,571810,,,,,,
188400,note_on,50,0,0,,,,,,,,0,,,76,0
188400,note_on,0,0,0,,,,,,,,0,,,88,0
188400,note_on,0,0,0,,,,,,,,0,,,90,51
188400,note_on,0,0,0,,,,,,,,0,,,77,27
188410,set_tempo,10,1,0,,,,,,564972,,,,,,
188450,set_tempo,40,1,0,,,,,,558347,,,,,,
188480,note_on,30,0,0,,,,,,,,0,,,77,0
188480,note_on,0,0,0,,,,,,,,0,,,76,27
188530,set_tempo,50,1,0,,,,,,564972,,,,,,
188560,note_on,30,0,0,,,,,,,,0,,,76,0
188560,note_on,0,0,0,,,,,,,,0,,,77,27
188590,set_tempo,30,1,0,,,,,,571810,,,,,,
188640,note_on,50,0,0,,,,,,,,0,,,77,0
188640,note_on,0,0,0,,,,,,,,0,,,90,0
188640,note_on,0,0,0,,,,,,,,0,,,92,52
188640,note_on,0,0,0,,,,,,,,0,,,76,26
188650,set_tempo,10,1,0,,,,,,564972,,,,,,
188670,set_tempo,20,1,0,,,,,,571810,,,,,,
188690,set_tempo,20,1,0,,,,,,578815,,,,,,
188710,set_tempo,20,1,0,,,,,,593296,,,,,,
188720,note_on,10,0,0,,,,,,,,0,,,76,0
188720,note_on,0,0,0,,,,,,,,0,,,77,25
188730,set_tempo,10,1,0,,,,,,600841,,,,,,
188750,set_tempo,20,1,0,,,,,,608581,,,,,,
188770,set_tempo,20,1,0,,,,,,624610,,,,,,
188790,set_tempo,20,1,0,,,,,,632978,,,,,,
188800,note_on,10,0,0,,,,,,,,0,,,77,0
188800,note_on,0,0,0,,,,,,,,0,,,76,25
188810,set_tempo,10,1,0,,,,,,641574,,,,,,
188830,set_tempo,20,1,0,,,,,,659413,,,,,,
188850,set_tempo,20,1,0,,,,,,668747,,,,,,
188870,set_tempo,20,1,0,,,,,,688152,,,,,,
188880,note_on,10,0,0,,,,,,,,0,,,76,0
188880,note_on,0,0,0,,,,,,,,0,,,92,0
188880,note_on,0,0,0,,,,,,,,0,,,88,54
188880,note_on,0,0,0,,,,,,,,0,,,77,25
188890,set_tempo,10,1,0,,,,,,606980,,,,,,
188910,set_tempo,20,1,0,,,,,,641574,,,,,,
188960,note_on,50,0,0,,,,,,,,0,,,77,0
188960,note_on,0,0,0,,,,,,,,0,,,76,24
189040,note_on,80,0,0,,,,,,,,0,,,76,0
189040,note_on,0,0,0,,,,,,,,0,,,77,19
189110,set_tempo,70,1,0,,,,,,608581,,,,,,
189114,set_tempo,4,1,0,,,,,,668747,,,,,,
189120,note_on,6,0,0,,,,,,,,0,,,77,0
189120,note_on,0,0,0,,,,,,,,0,,,88,0
189120,note_on,0,0,0,,,,,,,,0,,,74,0
189120,note_on,0,0,0,,,,,,,,0,,,83,0
189120,note_on,0,0,0,,,,,,,,0,,,88,0
189120,note_on,0,0,0,,,,,,,,0,,,69,0
189120,note_on,0,0,0,,,,,,,,0,,,84,39
189120,note_on,0,0,0,,,,,,,,0,,,88,39
189120,note_on,0,0,0,,,,,,,,0,,,93,57
189120,note_on,0,0,0,,,,,,,,0,,,69,38
189120,note_on,0,0,0,,,,,,,,0,,,72,38
189120,note_on,0,0,0,,,,,,,,0,,,76,17
189134,set_tempo,14,1,0,,,,,,659413,,,,,,
189140,control_change,6,0,0,,,,,,,,0,64,0,,
189154,set_tempo,14,1,0,,,,,,650336,,,,,,
189174,set_tempo,20,1,0,,,,,,641574,,,,,,
189183,control_change,9,0,0,,,,,,,,0,64,127,,
189194,set_tempo,11,1,0,,,,,,632978,,,,,,
189200,note_on,6,0,0,,,,,,,,0,,,76,0
189200,note_on,0,0,0,,,,,,,,0,,,77,18
189214,set_tempo,14,1,0,,,,,,624610,,,,,,
189234,set_tempo,20,1,0,,,,,,616459,,,,,,
189254,set_tempo,20,1,0,,,,,,608581,,,,,,
189274,set_tempo,20,1,0,,,,,,600841,,,,,,
189280,note_on,6,0,0,,,,,,,,0,,,77,0
189280,note_on,0,0,0,,,,,,,,0,,,76,18
189294,set_tempo,14,1,0,,,,,,593296,,,,,,
189314,set_tempo,20,1,0,,,,,,585938,,,,,,
189334,set_tempo,20,1,0,,,,,,578815,,,,,,
189354,set_tempo,20,1,0,,,,,,571810,,,,,,
189360,note_on,6,0,0,,,,,,,,0,,,76,0
189360,note_on,0,0,0,,,,,,,,0,,,77,20
189374,set_tempo,14,1,0,,,,,,564972,,,,,,
189440,note_on,66,0,0,,,,,,,,0,,,77,0
189440,note_on,0,0,0,,,,,,,,0,,,76,20
189520,note_on,80,0,0,,,,,,,,0,,,76,0
189520,note_on,0,0,0,,,,,,,,0,,,77,22
189534,set_tempo,14,1,0,,,,,,558347,,,,,,
189600,note_on,66,0,0,,,,,,,,0,,,77,0
189600,note_on,0,0,0,,,,,,,,0,,,76,24
189680,note_on,80,0,0,,,,,,,,0,,,76,0
189680,note_on,0,0,0,,,,,,,,0,,,77,25
189694,set_tempo,14,1,0,,,,,,564972,,,,,,
189754,set_tempo,60,1,0,,,,,,571810,,,,,,
189760,note_on,6,0,0,,,,,,,,0,,,77,0
189760,note_on,0,0,0,,,,,,,,0,,,76,26
189814,set_tempo,54,1,0,,,,,,539229,,,,,,
189840,note_on,26,0,0,,,,,,,,0,,,76,0
189840,note_on,0,0,0,,,,,,,,0,,,77,29
189920,note_on,80,0,0,,,,,,,,0,,,77,0
189920,note_on,0,0,0,,,,,,,,0,,,76,29
189960,note_on,40,0,0,,,,,,,,0,,,95,47
190000,note_on,40,0,0,,,,,,,,0,,,95,0
190000,note_on,0,0,0,,,,,,,,0,,,76,0
190000,note_on,0,0,0,,,,,,,,0,,,93,42
190000,note_on,0,0,0,,,,,,,,0,,,77,30
190014,set_tempo,14,1,0,,,,,,558347,,,,,,
190040,note_on,26,0,0,,,,,,,,0,,,93,0
190040,note_on,0,0,0,,,,,,,,0,,,92,42
190050,set_tempo,10,1,0,,,,,,551826,,,,,,
190080,note_on,30,0,0,,,,,,,,0,,,92,0
190080,note_on,0,0,0,,,,,,,,0,,,77,0
190080,note_on,0,0,0,,,,,,,,0,,,93,0
190080,note_on,0,0,0,,,,,,,,0,,,93,58
190080,note_on,0,0,0,,,,,,,,0,,,76,25
190093,control_change,13,0,0,,,,,,,,0,64,0,,
190131,control_change,38,0,0,,,,,,,,0,64,127,,
190160,note_on,29,0,0,,,,,,,,0,,,76,0
190160,note_on,0,0,0,,,,,,,,0,,,77,25
190240,note_on,80,0,0,,,,,,,,0,,,77,0
190240,note_on,0,0,0,,,,,,,,0,,,76,25
190320,note_on,80,0,0,,,,,,,,0,,,76,0
190320,note_on,0,0,0,,,,,,,,0,,,93,0
190320,note_on,0,0,0,,,,,,,,0,,,95,54
190320,note_on,0,0,0,,,,,,,,0,,,77,25
190400,note_on,80,0,0,,,,,,,,0,,,77,0
190400,note_on,0,0,0,,,,,,,,0,,,76,25
190480,note_on,80,0,0,,,,,,,,0,,,76,0
190480,note_on,0,0,0,,,,,,,,0,,,77,25
190550,set_tempo,70,1,0,,,,,,558347,,,,,,
190560,note_on,10,0,0,,,,,,,,0,,,77,0
190560,note_on,0,0,0,,,,,,,,0,,,95,0
190560,note_on,0,0,0,,,,,,,,0,,,96,55
190560,note_on,0,0,0,,,,,,,,0,,,76,25
190640,note_on,80,0,0,,,,,,,,0,,,76,0
190640,note_on,0,0,0,,,,,,,,0,,,77,25
190720,note_on,80,0,0,,,,,,,,0,,,77,0
190720,note_on,0,0,0,,,,,,,,0,,,76,25
190790,set_tempo,70,1,0,,,,,,558347,,,,,,
190800,note_on,10,0,0,,,,,,,,0,,,76,0
190800,note_on,0,0,0,,,,,,,,0,,,96,0
190800,note_on,0,0,0,,,,,,,,0,,,98,57
190800,note_on,0,0,0,,,,,,,,0,,,77,25
190810,set_tempo,10,1,0,,,,,,564972,,,,,,
190830,set_tempo,20,1,0,,,,,,571810,,,,,,
190850,set_tempo,20,1,0,,,,,,578815,,,,,,
190870,set_tempo,20,1,0,,,,,,585938,,,,,,
190880,note_on,10,0,0,,,,,,,,0,,,77,0
190880,note_on,0,0,0,,,,,,,,0,,,76,25
190890,set_tempo,10,1,0,,,,,,593296,,,,,,
190910,set_tempo,20,1,0,,,,,,600841,,,,,,
190930,set_tempo,20,1,0,,,,,,616459,,,,,,
190950,set_tempo,20,1,0,,,,,,632978,,,,,,
190960,note_on,10,0,0,,,,,,,,0,,,76,0
190960,note_on,0,0,0,,,,,,,,0,,,77,24
190970,set_tempo,10,1,0,,,,,,650336,,,,,,
190990,set_tempo,20,1,0,,,,,,668747,,,,,,
191010,set_tempo,20,1,0,,,,,,564972,,,,,,
191040,note_on,30,0,0,,,,,,,,0,,,77,0
191040,note_on,0,0,0,,,,,,,,0,,,88,0
191040,note_on,0,0,0,,,,,,,,0,,,69,0
191040,note_on,0,0,0,,,,,,,,0,,,84,0
191040,note_on,0,0,0,,,,,,,,0,,,98,0
191040,note_on,0,0,0,,,,,,,,0,,,72,0
191040,note_on,0,0,0,,,,,,,,0,,,86,41
191040,note_on,0,0,0,,,,,,,,0,,,99,59
191040,note_on,0,0,0,,,,,,,,0,,,92,41
191040,note_on,0,0,0,,,,,,,,0,,,71,38
191040,note_on,0,0,0,,,,,,,,0,,,69,38
191040,note_on,0,0,0,,,,,,,,0,,,76,26
191051,control_change,11,0,0,,,,,,,,0,64,0,,
191090,set_tempo,39,1,0,,,,,,558347,,,,,,
191104,control_change,14,0,0,,,,,,,,0,64,127,,
191120,note_on,16,0,0,,,,,,,,0,,,76,0
191120,note_on,0,0,0,,,,,,,,0,,,77,23
191150,set_tempo,30,1,0,,,,,,551826,,,,,,
191200,note_on,50,0,0,,,,,,,,0,,,77,0
191200,note_on,0,0,0,,,,,,,,0,,,76,24
191210,set_tempo,10,1,0,,,,,,545455,,,,,,
191280,note_on,70,0,0,,,,,,,,0,,,76,0
191280,note_on,0,0,0,,,,,,,,0,,,77,26
191290,set_tempo,10,1,0,,,,,,539229,,,,,,
191350,set_tempo,60,1,0,,,,,,533191,,,,,,
191360,note_on,10,0,0,,,,,,,,0,,,77,0
191360,note_on,0,0,0,,,,,,,,0,,,76,28
191410,set_tempo,50,1,0,,,,,,527241,,,,,,
191440,note_on,30,0,0,,,,,,,,0,,,76,0
191440,note_on,0,0,0,,,,,,,,0,,,77,29
191470,set_tempo,30,1,0,,,,,,521422,,,,,,
191520,note_on,50,0,0,,,,,,,,0,,,77,0
191520,note_on,0,0,0,,,,,,,,0,,,76,29
191570,set_tempo,50,1,0,,,,,,527241,,,,,,
191600,note_on,30,0,0,,,,,,,,0,,,76,0
191600,note_on,0,0,0,,,,,,,,0,,,77,29
191650,set_tempo,50,1,0,,,,,,533191,,,,,,
191680,note_on,30,0,0,,,,,,,,0,,,77,0
191680,note_on,0,0,0,,,,,,,,0,,,76,29
191730,set_tempo,50,1,0,,,,,,539229,,,,,,
191760,note_on,30,0,0,,,,,,,,0,,,76,0
191760,note_on,0,0,0,,,,,,,,0,,,99,0
191760,note_on,0,0,0,,,,,,,,0,,,100,54
191760,note_on,0,0,0,,,,,,,,0,,,77,29
191770,set_tempo,10,1,0,,,,,,545455,,,,,,
191790,set_tempo,20,1,0,,,,,,551826,,,,,,
191810,set_tempo,20,1,0,,,,,,558347,,,,,,
191830,set_tempo,20,1,0,,,,,,564972,,,,,,
191840,note_on,10,0,0,,,,,,,,0,,,77,0
191840,note_on,0,0,0,,,,,,,,0,,,76,29
191850,set_tempo,10,1,0,,,,,,571810,,,,,,
191870,set_tempo,20,1,0,,,,,,578815,,,,,,
191890,set_tempo,20,1,0,,,,,,585938,,,,,,
191910,set_tempo,20,1,0,,,,,,585938,,,,,,
191920,note_on,10,0,0,,,,,,,,0,,,76,0
191920,note_on,0,0,0,,,,,,,,0,,,77,26
191930,set_tempo,10,1,0,,,,,,641574,,,,,,
191950,set_tempo,20,1,0,,,,,,708801,,,,,,
191970,set_tempo,20,1,0,,,,,,805261,,,,,,
191990,set_tempo,20,1,0,,,,,,564972,,,,,,
192000,note_on,10,0,0,,,,,,,,0,,,77,0
192000,note_on,0,0,0,,,,,,,,0,,,100,0
192000,note_on,0,0,0,,,,,,,,0,,,88,55
192000,note_on,0,0,0,,,,,,,,0,,,76,27
192010,set_tempo,10,1,0,,,,,,593296,,,,,,
192024,control_change,14,0,0,,,,,,,,0,64,0,,
192050,set_tempo,26,1,0,,,,,,585938,,,,,,
192080,note_on,30,0,0,,,,,,,,0,,,76,0
192080,note_on,0,0,0,,,,,,,,0,,,77,26
192090,set_tempo,10,1,0,,,,,,578815,,,,,,
192095,control_change,5,0,0,,,,,,,,0,64,127,,
192110,set_tempo,15,1,0,,,,,,571810,,,,,,
192150,set_tempo,40,1,0,,,,,,564972,,,,,,
192160,note_on,10,0,0,,,,,,,,0,,,77,0
192160,note_on,0,0,0,,,,,,,,0,,,76,26
192190,set_tempo,30,1,0,,,,,,558347,,,,,,
192210,set_tempo,20,1,0,,,,,,551826,,,,,,
192240,note_on,30,0,0,,,,,,,,0,,,76,0
192240,note_on,0,0,0,,,,,,,,0,,,77,26
192250,set_tempo,10,1,0,,,,,,545455,,,,,,
192270,set_tempo,20,1,0,,,,,,539229,,,,,,
192320,note_on,50,0,0,,,,,,,,0,,,77,0
192320,note_on,0,0,0,,,,,,,,0,,,76,26
192330,set_tempo,10,1,0,,,,,,545455,,,,,,
192390,set_tempo,60,1,0,,,,,,551826,,,,,,
192400,note_on,10,0,0,,,,,,,,0,,,76,0
192400,note_on,0,0,0,,,,,,,,0,,,77,26
192450,set_tempo,50,1,0,,,,,,558347,,,,,,
192480,note_on,30,0,0,,,,,,,,0,,,77,0
192480,note_on,0,0,0,,,,,,,,0,,,76,26
192490,set_tempo,10,1,0,,,,,,564972,,,,,,
192530,set_tempo,40,1,0,,,,,,558347,,,,,,
192550,set_tempo,20,1,0,,,,,,551826,,,,,,
192560,note_on,10,0,0,,,,,,,,0,,,76,0
192560,note_on,0,0,0,,,,,,,,0,,,77,23
192610,set_tempo,50,1,0,,,,,,558347,,,,,,
192640,note_on,30,0,0,,,,,,,,0,,,77,0
192640,note_on,0,0,0,,,,,,,,0,,,76,21
192670,set_tempo,30,1,0,,,,,,564972,,,,,,
192708,set_tempo,38,1,0,,,,,,564972,,,,,,
192720,note_on,12,0,0,,,,,,,,0,,,76,0
192720,note_on,0,0,0,,,,,,,,0,,,77,18
192748,set_tempo,28,1,0,,,,,,571810,,,,,,
192768,set_tempo,20,1,0,,,,,,578815,,,,,,
192788,set_tempo,20,1,0,,,,,,585938,,,,,,
192800,note_on,12,0,0,,,,,,,,0,,,77,0
192800,note_on,0,0,0,,,,,,,,0,,,76,18
192808,set_tempo,8,1,0,,,,,,593296,,,,,,
192828,set_tempo,20,1,0,,,,,,608581,,,,,,
192848,set_tempo,20,1,0,,,,,,641574,,,,,,
192868,set_tempo,20,1,0,,,,,,742115,,,,,,
192880,note_on,12,0,0,,,,,,,,0,,,76,0
192880,note_on,0,0,0,,,,,,,,0,,,77,18
192888,set_tempo,8,1,0,,,,,,914077,,,,,,
192908,set_tempo,20,1,0,,,,,,1189768,,,,,,
192928,set_tempo,20,1,0,,,,,,678349,,,,,,
192948,set_tempo,20,1,0,,,,,,650336,,,,,,
192954,set_tempo,6,1,0,,,,,,914077,,,,,,
192960,note_on,6,0,0,,,,,,,,0,,,77,0
192960,note_on,0,0,0,,,,,,,,0,,,88,0
192960,note_on,0,0,0,,,,,,,,0,,,71,0
192960,note_on,0,0,0,,,,,,,,0,,,86,0
192960,note_on,0,0,0,,,,,,,,0,,,92,0
192960,note_on,0,0,0,,,,,,,,0,,,69,0
192960,note_on,0,0,0,,,,,,,,0,,,93,55
192960,note_on,0,0,0,,,,,,,,0,,,79,38
192960,note_on,0,0,0,,,,,,,,0,,,85,38
192960,note_on,0,0,0,,,,,,,,0,,,69,38
192960,note_on,0,0,0,,,,,,,,0,,,76,23
192967,control_change,7,0,0,,,,,,,,0,64,0,,
192974,set_tempo,7,1,0,,,,,,819113,,,,,,
192994,set_tempo,20,1,0,,,,,,730638,,,,,,
193002,control_change,8,0,0,,,,,,,,0,64,127,,
193014,set_tempo,12,1,0,,,,,,632978,,,,,,
193034,set_tempo,20,1,0,,,,,,624610,,,,,,
193054,set_tempo,20,1,0,,,,,,616459,,,,,,
193074,set_tempo,20,1,0,,,,,,608581,,,,,,
193080,note_on,6,0,0,,,,,,,,0,,,76,0
193080,note_on,0,0,0,,,,,,,,0,,,77,16
193094,set_tempo,14,1,0,,,,,,600841,,,,,,
193114,set_tempo,20,1,0,,,,,,585938,,,,,,
193134,set_tempo,20,1,0,,,,,,578815,,,,,,
193154,set_tempo,20,1,0,,,,,,571810,,,,,,
193174,set_tempo,20,1,0,,,,,,564972,,,,,,
193194,set_tempo,20,1,0,,,,,,551826,,,,,,
193200,note_on,6,0,0,,,,,,,,0,,,77,0
193200,note_on,0,0,0,,,,,,,,0,,,76,16
193230,set_tempo,30,1,0,,,,,,564972,,,,,,
193310,set_tempo,80,1,0,,,,,,558347,,,,,,
193320,note_on,10,0,0,,,,,,,,0,,,76,0
193320,note_on,0,0,0,,,,,,,,0,,,77,16
193390,set_tempo,70,1,0,,,,,,551826,,,,,,
193440,note_on,50,0,0,,,,,,,,0,,,77,0
193440,note_on,0,0,0,,,,,,,,0,,,76,17
193450,set_tempo,10,1,0,,,,,,545455,,,,,,
193560,note_on,110,0,0,,,,,,,,0,,,76,0
193560,note_on,0,0,0,,,,,,,,0,,,77,17
193680,note_on,120,0,0,,,,,,,,0,,,77,0
193680,note_on,0,0,0,,,,,,,,0,,,76,18
193730,set_tempo,50,1,0,,,,,,551826,,,,,,
193770,set_tempo,40,1,0,,,,,,558347,,,,,,
193790,set_tempo,20,1,0,,,,,,564972,,,,,,
193800,note_on,10,0,0,,,,,,,,0,,,76,0
193800,note_on,0,0,0,,,,,,,,0,,,77,18
193810,set_tempo,10,1,0,,,,,,571810,,,,,,
193830,set_tempo,20,1,0,,,,,,578815,,,,,,
193850,set_tempo,20,1,0,,,,,,585938,,,,,,
193870,set_tempo,20,1,0,,,,,,593296,,,,,,
193890,set_tempo,20,1,0,,,,,,600841,,,,,,
193910,set_tempo,20,1,0,,,,,,608581,,,,,,
193920,note_on,10,0,0,,,,,,,,0,,,77,0
193920,note_on,0,0,0,,,,,,,,0,,,69,0
193920,note_on,0,0,0,,,,,,,,0,,,76,30
194160,set_tempo,240,1,0,,,,,,564972,,,,,,
194160,note_on,0,0,0,,,,,,,,0,,,93,0
194160,note_on,0,0,0,,,,,,,,0,,,100,49
194400,note_on,240,0,0,,,,,,,,0,,,100,0
194400,note_on,0,0,0,,,,,,,,0,,,76,0
194400,note_on,0,0,0,,,,,,,,0,,,97,49
194640,set_tempo,240,1,0,,,,,,533191,,,,,,
194640,note_on,0,0,0,,,,,,,,0,,,97,0
194640,note_on,0,0,0,,,,,,,,0,,,93,53
194880,set_tempo,240,1,0,,,,,,533191,,,,,,
194880,note_on,0,0,0,,,,,,,,0,,,93,0
194880,note_on,0,0,0,,,,,,,,0,,,85,0
194880,note_on,0,0,0,,,,,,,,0,,,79,0
194880,note_on,0,0,0,,,,,,,,0,,,91,54
194895,control_change,15,0,0,,,,,,,,0,64,0,,
195040,control_change,145,0,0,,,,,,,,0,64,127,,
195120,note_on,80,0,0,,,,,,,,0,,,91,0
195120,note_on,0,0,0,,,,,,,,0,,,88,52
195360,note_on,240,0,0,,,,,,,,0,,,88,0
195360,note_on,0,0,0,,,,,,,,0,,,85,51
195600,set_tempo,240,1,0,,,,,,551826,,,,,,
195600,note_on,0,0,0,,,,,,,,0,,,85,0
195600,note_on,0,0,0,,,,,,,,0,,,81,50
195840,note_on,240,0,0,,,,,,,,0,,,81,0
195840,note_on,0,0,0,,,,,,,,0,,,79,50
195861,control_change,21,0,0,,,,,,,,0,64,0,,
196057,control_change,196,0,0,,,,,,,,0,64,127,,
196080,note_on,23,0,0,,,,,,,,0,,,79,0
196080,note_on,0,0,0,,,,,,,,0,,,77,49
196320,note_on,240,0,0,,,,,,,,0,,,77,0
196320,note_on,0,0,0,,,,,,,,0,,,89,53
196320,note_on,0,0,0,,,,,,,,0,,,86,45
196320,note_on,0,0,0,,,,,,,,0,,,81,45
196320,note_on,0,0,0,,,,,,,,0,,,76,48
196530,set_tempo,210,1,0,,,,,,668747,,,,,,
196550,set_tempo,20,1,0,,,,,,688152,,,,,,
196560,note_on,10,0,0,,,,,,,,0,,,76,0
196560,note_on,0,0,0,,,,,,,,0,,,89,0
196560,note_on,0,0,0,,,,,,,,0,,,86,0
196560,note_on,0,0,0,,,,,,,,0,,,81,0
196560,note_on,0,0,0,,,,,,,,0,,,74,46
196570,set_tempo,10,1,0,,,,,,606980,,,,,,
196590,set_tempo,20,1,0,,,,,,641574,,,,,,
196594,set_tempo,4,1,0,,,,,,641574,,,,,,
196654,set_tempo,60,1,0,,,,,,650336,,,,,,
196694,set_tempo,40,1,0,,,,,,659413,,,,,,
196714,set_tempo,20,1,0,,,,,,805261,,,,,,
196734,set_tempo,20,1,0,,,,,,848536,,,,,,
196790,set_tempo,56,1,0,,,,,,608581,,,,,,
196794,set_tempo,4,1,0,,,,,,753958,,,,,,
196800,note_on,6,0,0,,,,,,,,0,,,74,0
196800,note_on,0,0,0,,,,,,,,0,,,91,55
196800,note_on,0,0,0,,,,,,,,0,,,79,38
196800,note_on,0,0,0,,,,,,,,0,,,86,38
196800,note_on,0,0,0,,,,,,,,0,,,71,38
196800,note_on,0,0,0,,,,,,,,0,,,77,24
196807,control_change,7,0,0,,,,,,,,0,64,0,,
196814,set_tempo,7,1,0,,,,,,678349,,,,,,
196834,set_tempo,20,1,0,,,,,,608581,,,,,,
196842,control_change,8,0,0,,,,,,,,0,64,127,,
196854,set_tempo,12,1,0,,,,,,551826,,,,,,
196890,set_tempo,36,1,0,,,,,,578815,,,,,,
196920,note_on,30,0,0,,,,,,,,0,,,77,0
196920,note_on,0,0,0,,,,,,,,0,,,76,16
196930,set_tempo,10,1,0,,,,,,571810,,,,,,
196990,set_tempo,60,1,0,,,,,,564972,,,,,,
197030,set_tempo,40,1,0,,,,,,558347,,,,,,
197040,note_on,10,0,0,,,,,,,,0,,,76,0
197040,note_on,0,0,0,,,,,,,,0,,,77,16
197070,set_tempo,30,1,0,,,,,,564972,,,,,,
197150,set_tempo,80,1,0,,,,,,558347,,,,,,
197160,note_on,10,0,0,,,,,,,,0,,,77,0
197160,note_on,0,0,0,,,,,,,,0,,,76,16
197230,set_tempo,70,1,0,,,,,,551826,,,,,,
197280,note_on,50,0,0,,,,,,,,0,,,76,0
197280,note_on,0,0,0,,,,,,,,0,,,77,17
197290,set_tempo,10,1,0,,,,,,545455,,,,,,
197400,note_on,110,0,0,,,,,,,,0,,,77,0
197400,note_on,0,0,0,,,,,,,,0,,,76,17
197520,note_on,120,0,0,,,,,,,,0,,,76,0
197520,note_on,0,0,0,,,,,,,,0,,,77,18
197570,set_tempo,50,1,0,,,,,,551826,,,,,,
197610,set_tempo,40,1,0,,,,,,558347,,,,,,
197630,set_tempo,20,1,0,,,,,,564972,,,,,,
197640,note_on,10,0,0,,,,,,,,0,,,77,0
197640,note_on,0,0,0,,,,,,,,0,,,76,18
197650,set_tempo,10,1,0,,,,,,571810,,,,,,
197670,set_tempo,20,1,0,,,,,,578815,,,,,,
197690,set_tempo,20,1,0,,,,,,585938,,,,,,
197710,set_tempo,20,1,0,,,,,,593296,,,,,,
197730,set_tempo,20,1,0,,,,,,600841,,,,,,
197750,set_tempo,20,1,0,,,,,,608581,,,,,,
197760,note_on,10,0,0,,,,,,,,0,,,76,0
197760,note_on,0,0,0,,,,,,,,0,,,71,0
197760,note_on,0,0,0,,,,,,,,0,,,77,30
197810,set_tempo,50,1,0,,,,,,648579,,,,,,
197870,set_tempo,60,1,0,,,,,,608581,,,,,,
197930,set_tempo,60,1,0,,,,,,600841,,,,,,
197970,set_tempo,40,1,0,,,,,,593296,,,,,,
198000,note_on,30,0,0,,,,,,,,0,,,91,0
198000,note_on,0,0,0,,,,,,,,0,,,98,49
198010,set_tempo,10,1,0,,,,,,585938,,,,,,
198030,set_tempo,20,1,0,,,,,,585938,,,,,,
198070,set_tempo,40,1,0,,,,,,593296,,,,,,
198240,set_tempo,170,1,0,,,,,,564972,,,,,,
198240,note_on,0,0,0,,,,,,,,0,,,98,0
198240,note_on,0,0,0,,,,,,,,0,,,77,0
198240,note_on,0,0,0,,,,,,,,0,,,95,49
198480,note_on,240,0,0,,,,,,,,0,,,95,0
198480,note_on,0,0,0,,,,,,,,0,,,91,53
198720,note_on,240,0,0,,,,,,,,0,,,91,0
198720,note_on,0,0,0,,,,,,,,0,,,86,0
198720,note_on,0,0,0,,,,,,,,0,,,79,0
198720,note_on,0,0,0,,,,,,,,0,,,89,54
198737,control_change,17,0,0,,,,,,,,0,64,0,,
198854,control_change,117,0,0,,,,,,,,0,64,127,,
198960,set_tempo,106,1,0,,,,,,539229,,,,,,
198960,note_on,0,0,0,,,,,,,,0,,,89,0
198960,note_on,0,0,0,,,,,,,,0,,,86,52
199200,note_on,240,0,0,,,,,,,,0,,,86,0
199200,note_on,0,0,0,,,,,,,,0,,,83,51
199440,note_on,240,0,0,,,,,,,,0,,,83,0
199440,note_on,0,0,0,,,,,,,,0,,,79,50
199680,set_tempo,240,1,0,,,,,,551826,,,,,,
199680,note_on,0,0,0,,,,,,,,0,,,79,0
199680,note_on,0,0,0,,,,,,,,0,,,77,50
199695,control_change,15,0,0,,,,,,,,0,64,0,,
199814,control_change,119,0,0,,,,,,,,0,64,127,,
199920,note_on,106,0,0,,,,,,,,0,,,77,0
199920,note_on,0,0,0,,,,,,,,0,,,76,49
200050,set_tempo,130,1,0,,,,,,564972,,,,,,
200110,set_tempo,60,1,0,,,,,,571810,,,,,,
200160,note_on,50,0,0,,,,,,,,0,,,76,0
200160,note_on,0,0,0,,,,,,,,0,,,88,53
200160,note_on,0,0,0,,,,,,,,0,,,84,45
200160,note_on,0,0,0,,,,,,,,0,,,79,45
200160,note_on,0,0,0,,,,,,,,0,,,74,48
200170,set_tempo,10,1,0,,,,,,564972,,,,,,
200190,set_tempo,20,1,0,,,,,,571810,,,,,,
200210,set_tempo,20,1,0,,,,,,578815,,,,,,
200230,set_tempo,20,1,0,,,,,,593296,,,,,,
200250,set_tempo,20,1,0,,,,,,600841,,,,,,
200270,set_tempo,20,1,0,,,,,,608581,,,,,,
200290,set_tempo,20,1,0,,,,,,624610,,,,,,
200310,set_tempo,20,1,0,,,,,,632978,,,,,,
200330,set_tempo,20,1,0,,,,,,641574,,,,,,
200350,set_tempo,20,1,0,,,,,,659413,,,,,,
200370,set_tempo,20,1,0,,,,,,668747,,,,,,
200390,set_tempo,20,1,0,,,,,,688152,,,,,,
200400,note_on,10,0,0,,,,,,,,0,,,74,0
200400,note_on,0,0,0,,,,,,,,0,,,88,0
200400,note_on,0,0,0,,,,,,,,0,,,84,0
200400,note_on,0,0,0,,,,,,,,0,,,79,0
200400,note_on,0,0,0,,,,,,,,0,,,72,46
200410,set_tempo,10,1,0,,,,,,606980,,,,,,
200430,set_tempo,20,1,0,,,,,,641574,,,,,,
200494,set_tempo,64,1,0,,,,,,632978,,,,,,
200514,set_tempo,20,1,0,,,,,,659413,,,,,,
200534,set_tempo,20,1,0,,,,,,688152,,,,,,
200554,set_tempo,20,1,0,,,,,,730638,,,,,,
200630,set_tempo,76,1,0,,,,,,608581,,,,,,
200634,set_tempo,4,1,0,,,,,,708801,,,,,,
200640,note_on,6,0,0,,,,,,,,0,,,72,0
200640,note_on,0,0,0,,,,,,,,0,,,89,55
200640,note_on,0,0,0,,,,,,,,0,,,83,38
200640,note_on,0,0,0,,,,,,,,0,,,68,36
200640,note_on,0,0,0,,,,,,,,0,,,74,38
200640,note_on,0,0,0,,,,,,,,0,,,77,23
200654,set_tempo,14,1,0,,,,,,678349,,,,,,
200655,control_change,1,0,0,,,,,,,,0,64,0,,
200674,set_tempo,19,1,0,,,,,,641574,,,,,,
200682,control_change,8,0,0,,,,,,,,0,64,127,,
200694,set_tempo,12,1,0,,,,,,608581,,,,,,
200714,set_tempo,20,1,0,,,,,,578815,,,,,,
200730,set_tempo,16,1,0,,,,,,578815,,,,,,
200760,note_on,30,0,0,,,,,,,,0,,,77,0
200760,note_on,0,0,0,,,,,,,,0,,,76,19
200770,set_tempo,10,1,0,,,,,,571810,,,,,,
200830,set_tempo,60,1,0,,,,,,564972,,,,,,
200870,set_tempo,40,1,0,,,,,,558347,,,,,,
200880,note_on,10,0,0,,,,,,,,0,,,76,0
200880,note_on,0,0,0,,,,,,,,0,,,77,16
200910,set_tempo,30,1,0,,,,,,564972,,,,,,
200990,set_tempo,80,1,0,,,,,,558347,,,,,,
201000,note_on,10,0,0,,,,,,,,0,,,77,0
201000,note_on,0,0,0,,,,,,,,0,,,76,16
201070,set_tempo,70,1,0,,,,,,551826,,,,,,
201120,note_on,50,0,0,,,,,,,,0,,,76,0
201120,note_on,0,0,0,,,,,,,,0,,,77,17
201130,set_tempo,10,1,0,,,,,,545455,,,,,,
201240,note_on,110,0,0,,,,,,,,0,,,77,0
201240,note_on,0,0,0,,,,,,,,0,,,76,17
201360,note_on,120,0,0,,,,,,,,0,,,76,0
201360,note_on,0,0,0,,,,,,,,0,,,77,18
201410,set_tempo,50,1,0,,,,,,551826,,,,,,
201450,set_tempo,40,1,0,,,,,,558347,,,,,,
201470,set_tempo,20,1,0,,,,,,564972,,,,,,
201480,note_on,10,0,0,,,,,,,,0,,,77,0
201480,note_on,0,0,0,,,,,,,,0,,,76,18
201490,set_tempo,10,1,0,,,,,,571810,,,,,,
201510,set_tempo,20,1,0,,,,,,578815,,,,,,
201530,set_tempo,20,1,0,,,,,,585938,,,,,,
201550,set_tempo,20,1,0,,,,,,593296,,,,,,
201570,set_tempo,20,1,0,,,,,,600841,,,,,,
201590,set_tempo,20,1,0,,,,,,608581,,,,,,
201600,note_on,10,0,0,,,,,,,,0,,,76,0
201600,note_on,0,0,0,,,,,,,,0,,,74,0
201600,note_on,0,0,0,,,,,,,,0,,,68,0
201600,note_on,0,0,0,,,,,,,,0,,,77,30
201650,set_tempo,50,1,0,,,,,,648579,,,,,,
201710,set_tempo,60,1,0,,,,,,608581,,,,,,
201840,set_tempo,130,1,0,,,,,,558347,,,,,,
201840,note_on,0,0,0,,,,,,,,0,,,83,0
201840,note_on,0,0,0,,,,,,,,0,,,89,0
201840,note_on,0,0,0,,,,,,,,0,,,86,49
202080,note_on,240,0,0,,,,,,,,0,,,86,0
202080,note_on,0,0,0,,,,,,,,0,,,77,0
202080,note_on,0,0,0,,,,,,,,0,,,83,49
202320,note_on,240,0,0,,,,,,,,0,,,83,0
202320,note_on,0,0,0,,,,,,,,0,,,81,53
202560,note_on,240,0,0,,,,,,,,0,,,81,0
202560,note_on,0,0,0,,,,,,,,0,,,80,49
202578,control_change,18,0,0,,,,,,,,0,64,0,,
202674,control_change,96,0,0,,,,,,,,0,64,127,,
202680,set_tempo,6,1,0,,,,,,571810,,,,,,
202800,set_tempo,120,1,0,,,,,,545455,,,,,,
202800,note_on,0,0,0,,,,,,,,0,,,80,0
202800,note_on,0,0,0,,,,,,,,0,,,76,49
203040,set_tempo,240,1,0,,,,,,551826,,,,,,
203040,note_on,0,0,0,,,,,,,,0,,,76,0
203040,note_on,0,0,0,,,,,,,,0,,,74,45
203040,note_on,0,0,0,,,,,,,,0,,,88,49
203040,note_on,0,0,0,,,,,,,,0,,,80,41
203057,control_change,17,0,0,,,,,,,,0,64,0,,
203280,set_tempo,223,1,0,,,,,,624610,,,,,,
203280,note_on,0,0,0,,,,,,,,0,,,80,0
203280,note_on,0,0,0,,,,,,,,0,,,88,0
203280,note_on,0,0,0,,,,,,,,0,,,74,0
203280,note_on,0,0,0,,,,,,,,0,,,71,45
203520,set_tempo,240,1,0,,,,,,571810,,,,,,
203520,note_on,0,0,0,,,,,,,,0,,,71,0
203520,note_on,0,0,0,,,,,,,,0,,,72,47
203520,note_on,0,0,0,,,,,,,,0,,,88,47
203520,note_on,0,0,0,,,,,,,,0,,,81,40
203760,note_on,240,0,0,,,,,,,,0,,,81,0
203760,note_on,0,0,0,,,,,,,,0,,,88,0
203760,note_on,0,0,0,,,,,,,,0,,,72,0
203760,note_on,0,0,0,,,,,,,,0,,,76,49
204000,set_tempo,240,1,0,,,,,,551826,,,,,,
204000,note_on,0,0,0,,,,,,,,0,,,76,0
204000,note_on,0,0,0,,,,,,,,0,,,81,49
204000,note_on,0,0,0,,,,,,,,0,,,88,47
204000,note_on,0,0,0,,,,,,,,0,,,85,40
204057,control_change,57,0,0,,,,,,,,0,64,127,,
204240,note_on,183,0,0,,,,,,,,0,,,85,0
204240,note_on,0,0,0,,,,,,,,0,,,88,0
204240,note_on,0,0,0,,,,,,,,0,,,81,0
204240,note_on,0,0,0,,,,,,,,0,,,79,49
204480,set_tempo,240,1,0,,,,,,571810,,,,,,
204480,note_on,0,0,0,,,,,,,,0,,,79,0
204480,note_on,0,0,0,,,,,,,,0,,,77,49
204480,note_on,0,0,0,,,,,,,,0,,,89,49
204480,note_on,0,0,0,,,,,,,,0,,,86,41
204498,control_change,18,0,0,,,,,,,,0,64,0,,
204526,control_change,28,0,0,,,,,,,,0,64,127,,
204720,note_on,194,0,0,,,,,,,,0,,,86,0
204720,note_on,0,0,0,,,,,,,,0,,,89,0
204720,note_on,0,0,0,,,,,,,,0,,,77,0
204720,note_on,0,0,0,,,,,,,,0,,,86,47
204960,note_on,240,0,0,,,,,,,,0,,,86,0
204960,note_on,0,0,0,,,,,,,,0,,,83,47
204973,control_change,13,0,0,,,,,,,,0,64,0,,
205034,control_change,61,0,0,,,,,,,,0,64,127,,
205200,note_on,166,0,0,,,,,,,,0,,,83,0
205200,note_on,0,0,0,,,,,,,,0,,,81,47
205440,set_tempo,240,1,0,,,,,,650336,,,,,,
205440,note_on,0,0,0,,,,,,,,0,,,81,0
205440,note_on,0,0,0,,,,,,,,0,,,80,49
205440,note_on,0,0,0,,,,,,,,0,,,76,36
205440,note_on,0,0,0,,,,,,,,0,,,86,44
205458,control_change,18,0,0,,,,,,,,0,64,0,,
205497,control_change,39,0,0,,,,,,,,0,64,127,,
205680,note_on,183,0,0,,,,,,,,0,,,86,0
205680,note_on,0,0,0,,,,,,,,0,,,76,0
205680,note_on,0,0,0,,,,,,,,0,,,80,0
205680,note_on,0,0,0,,,,,,,,0,,,95,49
205920,note_on,240,0,0,,,,,,,,0,,,95,0
205920,note_on,0,0,0,,,,,,,,0,,,92,45
206160,set_tempo,240,1,0,,,,,,708801,,,,,,
206160,note_on,0,0,0,,,,,,,,0,,,92,0
206160,note_on,0,0,0,,,,,,,,0,,,88,39
206280,set_tempo,120,1,0,,,,,,848536,,,,,,
206340,note_on,60,0,0,,,,,,,,0,,,88,0
206340,note_on,0,0,0,,,,,,,,0,,,92,38
206400,set_tempo,60,1,0,,,,,,605449,,,,,,
206400,note_on,0,0,0,,,,,,,,0,,,92,0
206400,note_on,0,0,0,,,,,,,,0,,,93,38
206400,note_on,0,0,0,,,,,,,,0,,,84,40
206400,note_on,0,0,0,,,,,,,,0,,,81,34
206415,control_change,15,0,0,,,,,,,,0,64,0,,
206530,control_change,115,0,0,,,,,,,,0,64,127,,
207360,set_tempo,830,1,0,,,,,,715222,,,,,,
207360,note_on,0,0,0,,,,,,,,0,,,93,0
207360,note_on,0,0,0,,,,,,,,0,,,81,27
207600,note_on,240,0,0,,,,,,,,0,,,81,0
207829,control_change,229,0,0,,,,,,,,0,64,0,,
208080,set_tempo,251,1,0,,,,,,515730,,,,,,
208080,marker,0,1,0,,,,,,,,,,,,
208080,note_on,0,0,0,,,,,,,,0,,,40,69
208160,note_on,80,0,0,,,,,,,,0,,,40,0
208160,note_on,0,0,0,,,,,,,,0,,,42,74
208240,note_on,80,0,0,,,,,,,,0,,,42,0
208240,note_on,0,0,0,,,,,,,,0,,,44,79
208320,set_tempo,80,1,0,,,,,,443295,,,,,,
208320,note_on,0,0,0,,,,,,,,0,,,44,0
208320,note_on,0,0,0,,,,,,,,0,,,81,0
208320,note_on,0,0,0,,,,,,,,0,,,84,0
208320,note_on,0,0,0,,,,,,,,0,,,45,81
208320,note_on,0,0,0,,,,,,,,0,,,33,69
208357,control_change,37,0,0,,,,,,,,0,64,127,,
208400,note_on,43,0,0,,,,,,,,0,,,52,69
208480,note_on,80,0,0,,,,,,,,0,,,52,0
208480,note_on,0,0,0,,,,,,,,0,,,57,69
208560,note_on,80,0,0,,,,,,,,0,,,57,0
208560,note_on,0,0,0,,,,,,,,0,,,64,78
208560,note_on,0,0,0,,,,,,,,0,,,60,66
208560,note_on,0,0,0,,,,,,,,0,,,57,79
208640,note_on,80,0,0,,,,,,,,0,,,60,0
208640,note_on,0,0,0,,,,,,,,0,,,64,0
208640,note_on,0,0,0,,,,,,,,0,,,64,67
208720,note_on,80,0,0,,,,,,,,0,,,64,0
208720,note_on,0,0,0,,,,,,,,0,,,69,67
208800,set_tempo,80,1,0,,,,,,541516,,,,,,
208800,note_on,0,0,0,,,,,,,,0,,,69,0
208800,note_on,0,0,0,,,,,,,,0,,,45,0
208800,note_on,0,0,0,,,,,,,,0,,,33,0
208800,note_on,0,0,0,,,,,,,,0,,,57,0
208800,note_on,0,0,0,,,,,,,,0,,,76,79
208800,note_on,0,0,0,,,,,,,,0,,,72,67
208800,note_on,0,0,0,,,,,,,,0,,,48,82
208800,note_on,0,0,0,,,,,,,,0,,,36,69
208872,note_on,72,0,0,,,,,,,,0,,,72,0
208872,note_on,0,0,0,,,,,,,,0,,,76,0
208880,note_on,8,0,0,,,,,,,,0,,,76,69
208960,note_on,80,0,0,,,,,,,,0,,,76,0
208960,note_on,0,0,0,,,,,,,,0,,,81,68
209040,note_on,80,0,0,,,,,,,,0,,,81,0
209040,note_on,0,0,0,,,,,,,,0,,,88,79
209040,note_on,0,0,0,,,,,,,,0,,,84,67
209040,note_on,0,0,0,,,,,,,,0,,,60,79
209112,note_on,72,0,0,,,,,,,,0,,,84,0
209112,note_on,0,0,0,,,,,,,,0,,,88,0
209120,note_on,8,0,0,,,,,,,,0,,,88,71
209200,note_on,80,0,0,,,,,,,,0,,,88,0
209200,note_on,0,0,0,,,,,,,,0,,,93,71
209280,set_tempo,80,1,0,,,,,,556586,,,,,,
209280,note_on,0,0,0,,,,,,,,0,,,93,0
209280,note_on,0,0,0,,,,,,,,0,,,36,0
209280,note_on,0,0,0,,,,,,,,0,,,48,0
209280,note_on,0,0,0,,,,,,,,0,,,60,0
209280,note_on,0,0,0,,,,,,,,0,,,100,79
209280,note_on,0,0,0,,,,,,,,0,,,98,67
209280,note_on,0,0,0,,,,,,,,0,,,47,82
209280,note_on,0,0,0,,,,,,,,0,,,35,69
209288,control_change,8,0,0,,,,,,,,0,64,0,,
209312,control_change,24,0,0,,,,,,,,0,64,127,,
209360,note_on,48,0,0,,,,,,,,0,,,98,0
209360,note_on,0,0,0,,,,,,,,0,,,100,0
209360,note_on,0,0,0,,,,,,,,0,,,92,70
209440,note_on,80,0,0,,,,,,,,0,,,92,0
209440,note_on,0,0,0,,,,,,,,0,,,88,70
209512,note_on,72,0,0,,,,,,,,0,,,88,0
209520,note_on,8,0,0,,,,,,,,0,,,88,79
209520,note_on,0,0,0,,,,,,,,0,,,86,67
209520,note_on,0,0,0,,,,,,,,0,,,59,77
209600,note_on,80,0,0,,,,,,,,0,,,86,0
209600,note_on,0,0,0,,,,,,,,0,,,88,0
209600,note_on,0,0,0,,,,,,,,0,,,80,70
209680,note_on,80,0,0,,,,,,,,0,,,80,0
209680,note_on,0,0,0,,,,,,,,0,,,76,67
209752,note_on,72,0,0,,,,,,,,0,,,76,0
209760,set_tempo,8,1,0,,,,,,583658,,,,,,
209760,note_on,0,0,0,,,,,,,,0,,,35,0
209760,note_on,0,0,0,,,,,,,,0,,,47,0
209760,note_on,0,0,0,,,,,,,,0,,,59,0
209760,note_on,0,0,0,,,,,,,,0,,,76,73
209760,note_on,0,0,0,,,,,,,,0,,,72,61
209760,note_on,0,0,0,,,,,,,,0,,,45,81
209760,note_on,0,0,0,,,,,,,,0,,,33,69
209766,control_change,6,0,0,,,,,,,,0,64,0,,
209792,control_change,26,0,0,,,,,,,,0,64,127,,
209840,note_on,48,0,0,,,,,,,,0,,,72,0
209840,note_on,0,0,0,,,,,,,,0,,,76,0
209840,note_on,0,0,0,,,,,,,,0,,,69,69
209920,note_on,80,0,0,,,,,,,,0,,,69,0
209920,note_on,0,0,0,,,,,,,,0,,,64,64
209992,note_on,72,0,0,,,,,,,,0,,,64,0
210000,note_on,8,0,0,,,,,,,,0,,,64,63
210000,note_on,0,0,0,,,,,,,,0,,,60,53
210000,note_on,0,0,0,,,,,,,,0,,,57,77
210179,set_tempo,179,1,0,,,,,,813008,,,,,,
210240,set_tempo,61,1,0,,,,,,607287,,,,,,
210240,note_on,0,0,0,,,,,,,,0,,,57,0
210240,note_on,0,0,0,,,,,,,,0,,,64,0
210240,note_on,0,0,0,,,,,,,,0,,,33,0
210240,note_on,0,0,0,,,,,,,,0,,,45,0
210240,note_on,0,0,0,,,,,,,,0,,,60,0
210240,note_on,0,0,0,,,,,,,,0,,,64,71
210240,note_on,0,0,0,,,,,,,,0,,,56,60
210240,note_on,0,0,0,,,,,,,,0,,,59,60
210254,control_change,14,0,0,,,,,,,,0,64,0,,
210294,control_change,40,0,0,,,,,,,,0,64,127,,
210320,note_on,26,0,0,,,,,,,,0,,,32,58
210360,note_on,40,0,0,,,,,,,,0,,,59,0
210360,note_on,0,0,0,,,,,,,,0,,,64,0
210360,note_on,0,0,0,,,,,,,,0,,,56,0
210400,note_on,40,0,0,,,,,,,,0,,,32,0
210400,note_on,0,0,0,,,,,,,,0,,,35,59
210480,set_tempo,80,1,0,,,,,,541516,,,,,,
210480,note_on,0,0,0,,,,,,,,0,,,35,0
210480,note_on,0,0,0,,,,,,,,0,,,88,84
210480,note_on,0,0,0,,,,,,,,0,,,83,71
210480,note_on,0,0,0,,,,,,,,0,,,80,71
210480,note_on,0,0,0,,,,,,,,0,,,76,71
210480,note_on,0,0,0,,,,,,,,0,,,40,60
210560,note_on,80,0,0,,,,,,,,0,,,40,0
210560,note_on,0,0,0,,,,,,,,0,,,44,61
210640,note_on,80,0,0,,,,,,,,0,,,44,0
210640,note_on,0,0,0,,,,,,,,0,,,47,62
210720,note_on,80,0,0,,,,,,,,0,,,47,0
210720,note_on,0,0,0,,,,,,,,0,,,52,64
210800,note_on,80,0,0,,,,,,,,0,,,52,0
210800,note_on,0,0,0,,,,,,,,0,,,56,63
210880,note_on,80,0,0,,,,,,,,0,,,56,0
210880,note_on,0,0,0,,,,,,,,0,,,59,66
210960,note_on,80,0,0,,,,,,,,0,,,59,0
210960,note_on,0,0,0,,,,,,,,0,,,76,0
210960,note_on,0,0,0,,,,,,,,0,,,88,0
210960,note_on,0,0,0,,,,,,,,0,,,83,0
210960,note_on,0,0,0,,,,,,,,0,,,80,0
210960,note_on,0,0,0,,,,,,,,0,,,91,84
210960,note_on,0,0,0,,,,,,,,0,,,86,71
210960,note_on,0,0,0,,,,,,,,0,,,83,71
210960,note_on,0,0,0,,,,,,,,0,,,79,71
210960,note_on,0,0,0,,,,,,,,0,,,64,67
210975,control_change,15,0,0,,,,,,,,0,64,0,,
211009,control_change,34,0,0,,,,,,,,0,64,127,,
211040,note_on,31,0,0,,,,,,,,0,,,64,0
211040,note_on,0,0,0,,,,,,,,0,,,68,68
211120,note_on,80,0,0,,,,,,,,0,,,68,0
211120,note_on,0,0,0,,,,,,,,0,,,71,69
211200,note_on,80,0,0,,,,,,,,0,,,71,0
211200,note_on,0,0,0,,,,,,,,0,,,76,73
211280,note_on,80,0,0,,,,,,,,0,,,76,0
211280,note_on,0,0,0,,,,,,,,0,,,71,70
211360,note_on,80,0,0,,,,,,,,0,,,71,0
211360,note_on,0,0,0,,,,,,,,0,,,68,70
211440,set_tempo,80,1,0,,,,,,561798,,,,,,
211440,note_on,0,0,0,,,,,,,,0,,,68,0
211440,note_on,0,0,0,,,,,,,,0,,,79,0
211440,note_on,0,0,0,,,,,,,,0,,,91,0
211440,note_on,0,0,0,,,,,,,,0,,,86,0
211440,note_on,0,0,0,,,,,,,,0,,,83,0
211440,note_on,0,0,0,,,,,,,,0,,,89,84
211440,note_on,0,0,0,,,,,,,,0,,,86,71
211440,note_on,0,0,0,,,,,,,,0,,,83,71
211440,note_on,0,0,0,,,,,,,,0,,,77,71
211440,note_on,0,0,0,,,,,,,,0,,,64,69
211455,control_change,15,0,0,,,,,,,,0,64,0,,
211492,control_change,37,0,0,,,,,,,,0,64,127,,
211520,note_on,28,0,0,,,,,,,,0,,,64,0
211520,note_on,0,0,0,,,,,,,,0,,,59,69
211600,note_on,80,0,0,,,,,,,,0,,,59,0
211600,note_on,0,0,0,,,,,,,,0,,,56,68
211680,note_on,80,0,0,,,,,,,,0,,,56,0
211680,note_on,0,0,0,,,,,,,,0,,,52,67
211760,note_on,80,0,0,,,,,,,,0,,,52,0
211760,note_on,0,0,0,,,,,,,,0,,,47,66
211840,note_on,80,0,0,,,,,,,,0,,,47,0
211840,note_on,0,0,0,,,,,,,,0,,,44,64
211920,note_on,80,0,0,,,,,,,,0,,,44,0
211920,note_on,0,0,0,,,,,,,,0,,,77,0
211920,note_on,0,0,0,,,,,,,,0,,,89,0
211920,note_on,0,0,0,,,,,,,,0,,,86,0
211920,note_on,0,0,0,,,,,,,,0,,,83,0
211920,note_on,0,0,0,,,,,,,,0,,,88,79
211920,note_on,0,0,0,,,,,,,,0,,,86,67
211920,note_on,0,0,0,,,,,,,,0,,,83,67
211920,note_on,0,0,0,,,,,,,,0,,,76,67
211920,note_on,0,0,0,,,,,,,,0,,,40,63
212000,note_on,80,0,0,,,,,,,,0,,,40,0
212000,note_on,0,0,0,,,,,,,,0,,,35,62
212079,set_tempo,79,1,0,,,,,,884956,,,,,,
212080,note_on,1,0,0,,,,,,,,0,,,35,0
212080,note_on,0,0,0,,,,,,,,0,,,32,61
212160,note_on,80,0,0,,,,,,,,0,,,32,0
212160,note_on,0,0,0,,,,,,,,0,,,83,0
212160,note_on,0,0,0,,,,,,,,0,,,88,0
212160,note_on,0,0,0,,,,,,,,0,,,86,0
212160,note_on,0,0,0,,,,,,,,0,,,76,0
212160,note_on,0,0,0,,,,,,,,0,,,33,69
212160,note_on,0,0,0,,,,,,,,0,,,45,81
212177,control_change,17,0,0,,,,,,,,0,64,0,,
212179,set_tempo,2,1,0,,,,,,561798,,,,,,
212235,control_change,56,0,0,,,,,,,,0,64,127,,
212240,note_on,5,0,0,,,,,,,,0,,,52,69
212320,note_on,80,0,0,,,,,,,,0,,,52,0
212320,note_on,0,0,0,,,,,,,,0,,,57,69
212400,note_on,80,0,0,,,,,,,,0,,,57,0
212400,note_on,0,0,0,,,,,,,,0,,,64,78
212400,note_on,0,0,0,,,,,,,,0,,,60,66
212400,note_on,0,0,0,,,,,,,,0,,,57,79
212472,note_on,72,0,0,,,,,,,,0,,,60,0
212472,note_on,0,0,0,,,,,,,,0,,,64,0
212480,note_on,8,0,0,,,,,,,,0,,,64,67
212560,note_on,80,0,0,,,,,,,,0,,,64,0
212560,note_on,0,0,0,,,,,,,,0,,,69,67
212640,set_tempo,80,1,0,,,,,,541516,,,,,,
212640,note_on,0,0,0,,,,,,,,0,,,69,0
212640,note_on,0,0,0,,,,,,,,0,,,33,0
212640,note_on,0,0,0,,,,,,,,0,,,45,0
212640,note_on,0,0,0,,,,,,,,0,,,57,0
212640,note_on,0,0,0,,,,,,,,0,,,76,79
212640,note_on,0,0,0,,,,,,,,0,,,72,67
212640,note_on,0,0,0,,,,,,,,0,,,48,82
212640,note_on,0,0,0,,,,,,,,0,,,36,69
212712,note_on,72,0,0,,,,,,,,0,,,72,0
212712,note_on,0,0,0,,,,,,,,0,,,76,0
212720,note_on,8,0,0,,,,,,,,0,,,76,69
212800,note_on,80,0,0,,,,,,,,0,,,76,0
212800,note_on,0,0,0,,,,,,,,0,,,81,68
212880,note_on,80,0,0,,,,,,,,0,,,81,0
212880,note_on,0,0,0,,,,,,,,0,,,88,79
212880,note_on,0,0,0,,,,,,,,0,,,84,67
212880,note_on,0,0,0,,,,,,,,0,,,60,79
212960,note_on,80,0,0,,,,,,,,0,,,84,0
212960,note_on,0,0,0,,,,,,,,0,,,88,0
212960,note_on,0,0,0,,,,,,,,0,,,88,71
213040,note_on,80,0,0,,,,,,,,0,,,88,0
213040,note_on,0,0,0,,,,,,,,0,,,93,71
213120,note_on,80,0,0,,,,,,,,0,,,93,0
213120,note_on,0,0,0,,,,,,,,0,,,36,0
213120,note_on,0,0,0,,,,,,,,0,,,48,0
213120,note_on,0,0,0,,,,,,,,0,,,60,0
213120,note_on,0,0,0,,,,,,,,0,,,100,79
213120,note_on,0,0,0,,,,,,,,0,,,98,67
213120,note_on,0,0,0,,,,,,,,0,,,47,82
213120,note_on,0,0,0,,,,,,,,0,,,35,69
213127,control_change,7,0,0,,,,,,,,0,64,0,,
213152,control_change,25,0,0,,,,,,,,0,64,127,,
213200,note_on,48,0,0,,,,,,,,0,,,98,0
213200,note_on,0,0,0,,,,,,,,0,,,100,0
213200,note_on,0,0,0,,,,,,,,0,,,92,70
213240,set_tempo,40,1,0,,,,,,561798,,,,,,
213280,note_on,40,0,0,,,,,,,,0,,,92,0
213280,note_on,0,0,0,,,,,,,,0,,,88,70
213352,note_on,72,0,0,,,,,,,,0,,,88,0
213360,note_on,8,0,0,,,,,,,,0,,,88,79
213360,note_on,0,0,0,,,,,,,,0,,,86,67
213360,note_on,0,0,0,,,,,,,,0,,,59,77
213440,note_on,80,0,0,,,,,,,,0,,,86,0
213440,note_on,0,0,0,,,,,,,,0,,,88,0
213440,note_on,0,0,0,,,,,,,,0,,,80,70
213520,note_on,80,0,0,,,,,,,,0,,,80,0
213520,note_on,0,0,0,,,,,,,,0,,,76,67
213592,note_on,72,0,0,,,,,,,,0,,,76,0
213600,set_tempo,8,1,0,,,,,,583658,,,,,,
213600,note_on,0,0,0,,,,,,,,0,,,35,0
213600,note_on,0,0,0,,,,,,,,0,,,47,0
213600,note_on,0,0,0,,,,,,,,0,,,59,0
213600,note_on,0,0,0,,,,,,,,0,,,76,73
213600,note_on,0,0,0,,,,,,,,0,,,72,61
213600,note_on,0,0,0,,,,,,,,0,,,45,81
213600,note_on,0,0,0,,,,,,,,0,,,33,69
213606,control_change,6,0,0,,,,,,,,0,64,0,,
213632,control_change,26,0,0,,,,,,,,0,64,127,,
213680,note_on,48,0,0,,,,,,,,0,,,72,0
213680,note_on,0,0,0,,,,,,,,0,,,76,0
213680,note_on,0,0,0,,,,,,,,0,,,69,69
213760,note_on,80,0,0,,,,,,,,0,,,69,0
213760,note_on,0,0,0,,,,,,,,0,,,64,64
213832,note_on,72,0,0,,,,,,,,0,,,64,0
213840,note_on,8,0,0,,,,,,,,0,,,64,63
213840,note_on,0,0,0,,,,,,,,0,,,60,53
213840,note_on,0,0,0,,,,,,,,0,,,57,77
214019,set_tempo,179,1,0,,,,,,847458,,,,,,
214080,time_signature,61,1,0,9,8,12,8,,,,,,,,
214080,note_on,0,0,0,,,,,,,,0,,,57,0
214080,note_on,0,0,0,,,,,,,,0,,,64,0
214080,note_on,0,0,0,,,,,,,,0,,,33,0
214080,note_on,0,0,0,,,,,,,,0,,,45,0
214080,note_on,0,0,0,,,,,,,,0,,,60,0
214080,note_on,0,0,0,,,,,,,,0,,,64,71
214080,note_on,0,0,0,,,,,,,,0,,,56,50
214080,note_on,0,0,0,,,,,,,,0,,,52,70
214080,note_on,0,0,0,,,,,,,,0,,,40,59
214080,note_on,0,0,0,,,,,,,,0,,,47,59
214091,control_change,11,0,0,,,,,,,,0,64,0,,
214099,set_tempo,8,1,0,,,,,,561798,,,,,,
214119,set_tempo,20,1,0,,,,,,619835,,,,,,
214132,control_change,13,0,0,,,,,,,,0,64,127,,
214199,set_tempo,67,1,0,,,,,,496689,,,,,,
214200,note_on,1,0,0,,,,,,,,0,,,47,0
214200,note_on,0,0,0,,,,,,,,0,,,52,0
214200,note_on,0,0,0,,,,,,,,0,,,64,0
214200,note_on,0,0,0,,,,,,,,0,,,56,0
214200,note_on,0,0,0,,,,,,,,0,,,40,0
214200,note_on,0,0,0,,,,,,,,0,,,76,59
214200,note_on,0,0,0,,,,,,,,0,,,64,49
214200,note_on,0,0,0,,,,,,,,0,,,52,51
214279,set_tempo,79,1,0,,,,,,492611,,,,,,
214320,note_on,41,0,0,,,,,,,,0,,,52,0
214320,note_on,0,0,0,,,,,,,,0,,,64,0
214320,note_on,0,0,0,,,,,,,,0,,,76,0
214320,note_on,0,0,0,,,,,,,,0,,,77,61
214320,note_on,0,0,0,,,,,,,,0,,,65,50
214320,note_on,0,0,0,,,,,,,,0,,,53,52
214339,set_tempo,19,1,0,,,,,,488599,,,,,,
214399,set_tempo,60,1,0,,,,,,484653,,,,,,
214440,note_on,41,0,0,,,,,,,,0,,,53,0
214440,note_on,0,0,0,,,,,,,,0,,,65,0
214440,note_on,0,0,0,,,,,,,,0,,,77,0
214440,note_on,0,0,0,,,,,,,,0,,,78,63
214440,note_on,0,0,0,,,,,,,,0,,,66,52
214440,note_on,0,0,0,,,,,,,,0,,,54,55
214479,set_tempo,39,1,0,,,,,,480769,,,,,,
214539,set_tempo,60,1,0,,,,,,476948,,,,,,
214560,note_on,21,0,0,,,,,,,,0,,,54,0
214560,note_on,0,0,0,,,,,,,,0,,,66,0
214560,note_on,0,0,0,,,,,,,,0,,,78,0
214560,note_on,0,0,0,,,,,,,,0,,,79,66
214560,note_on,0,0,0,,,,,,,,0,,,67,56
214560,note_on,0,0,0,,,,,,,,0,,,55,57
214599,set_tempo,39,1,0,,,,,,473186,,,,,,
214679,set_tempo,80,1,0,,,,,,469484,,,,,,
214680,note_on,1,0,0,,,,,,,,0,,,55,0
214680,note_on,0,0,0,,,,,,,,0,,,67,0
214680,note_on,0,0,0,,,,,,,,0,,,79,0
214680,note_on,0,0,0,,,,,,,,0,,,80,68
214680,note_on,0,0,0,,,,,,,,0,,,68,58
214680,note_on,0,0,0,,,,,,,,0,,,56,59
214739,set_tempo,59,1,0,,,,,,465839,,,,,,
214799,set_tempo,60,1,0,,,,,,462250,,,,,,
214800,note_on,1,0,0,,,,,,,,0,,,56,0
214800,note_on,0,0,0,,,,,,,,0,,,68,0
214800,note_on,0,0,0,,,,,,,,0,,,80,0
214800,note_on,0,0,0,,,,,,,,0,,,81,71
214800,note_on,0,0,0,,,,,,,,0,,,69,60
214800,note_on,0,0,0,,,,,,,,0,,,57,61
214859,set_tempo,59,1,0,,,,,,458716,,,,,,
214920,note_on,61,0,0,,,,,,,,0,,,57,0
214920,note_on,0,0,0,,,,,,,,0,,,69,0
214920,note_on,0,0,0,,,,,,,,0,,,81,0
214920,note_on,0,0,0,,,,,,,,0,,,82,73
214920,note_on,0,0,0,,,,,,,,0,,,70,61
214920,note_on,0,0,0,,,,,,,,0,,,58,62
214979,set_tempo,59,1,0,,,,,,465839,,,,,,
215040,note_on,61,0,0,,,,,,,,0,,,58,0
215040,note_on,0,0,0,,,,,,,,0,,,70,0
215040,note_on,0,0,0,,,,,,,,0,,,82,0
215040,note_on,0,0,0,,,,,,,,0,,,83,75
215040,note_on,0,0,0,,,,,,,,0,,,71,64
215040,note_on,0,0,0,,,,,,,,0,,,59,64
215160,note_on,120,0,0,,,,,,,,0,,,59,0
215160,note_on,0,0,0,,,,,,,,0,,,71,0
215160,note_on,0,0,0,,,,,,,,0,,,83,0
215160,note_on,0,0,0,,,,,,,,0,,,84,78
215160,note_on,0,0,0,,,,,,,,0,,,72,66
215160,note_on,0,0,0,,,,,,,,0,,,60,67
215280,note_on,120,0,0,,,,,,,,0,,,60,0
215280,note_on,0,0,0,,,,,,,,0,,,72,0
215280,note_on,0,0,0,,,,,,,,0,,,84,0
215280,note_on,0,0,0,,,,,,,,0,,,85,81
215280,note_on,0,0,0,,,,,,,,0,,,73,68
215280,note_on,0,0,0,,,,,,,,0,,,61,69
215400,note_on,120,0,0,,,,,,,,0,,,61,0
215400,note_on,0,0,0,,,,,,,,0,,,73,0
215400,note_on,0,0,0,,,,,,,,0,,,85,0
215400,note_on,0,0,0,,,,,,,,0,,,86,84
215400,note_on,0,0,0,,,,,,,,0,,,74,70
215400,note_on,0,0,0,,,,,,,,0,,,62,71
215419,set_tempo,19,1,0,,,,,,469484,,,,,,
215439,set_tempo,20,1,0,,,,,,469484,,,,,,
215479,set_tempo,40,1,0,,,,,,473186,,,,,,
215499,set_tempo,20,1,0,,,,,,476948,,,,,,
215520,note_on,21,0,0,,,,,,,,0,,,62,0
215520,note_on,0,0,0,,,,,,,,0,,,74,0
215520,note_on,0,0,0,,,,,,,,0,,,86,0
215520,note_on,0,0,0,,,,,,,,0,,,87,88
215520,note_on,0,0,0,,,,,,,,0,,,75,73
215520,note_on,0,0,0,,,,,,,,0,,,63,73
215539,set_tempo,19,1,0,,,,,,480769,,,,,,
215559,set_tempo,20,1,0,,,,,,484653,,,,,,
215599,set_tempo,40,1,0,,,,,,488599,,,,,,
215619,set_tempo,20,1,0,,,,,,492611,,,,,,
215640,note_on,21,0,0,,,,,,,,0,,,63,0
215640,note_on,0,0,0,,,,,,,,0,,,75,0
215640,note_on,0,0,0,,,,,,,,0,,,87,0
215640,note_on,0,0,0,,,,,,,,0,,,88,92
215640,note_on,0,0,0,,,,,,,,0,,,76,78
215640,note_on,0,0,0,,,,,,,,0,,,64,75
215659,set_tempo,19,1,0,,,,,,496689,,,,,,
215679,set_tempo,20,1,0,,,,,,500835,,,,,,
215719,set_tempo,40,1,0,,,,,,505051,,,,,,
215739,set_tempo,20,1,0,,,,,,509338,,,,,,
215760,note_on,21,0,0,,,,,,,,0,,,64,0
215760,note_on,0,0,0,,,,,,,,0,,,76,0
215760,note_on,0,0,0,,,,,,,,0,,,88,0
215760,note_on,0,0,0,,,,,,,,0,,,89,96
215760,note_on,0,0,0,,,,,,,,0,,,77,81
215760,note_on,0,0,0,,,,,,,,0,,,65,73
215819,set_tempo,59,1,0,,,,,,522648,,,,,,
215879,set_tempo,60,1,0,,,,,,527241,,,,,,
215880,set_tempo,1,1,0,,,,,,1255230,,,,,,
215880,note_on,0,0,0,,,,,,,,0,,,65,0
215880,note_on,0,0,0,,,,,,,,0,,,77,0
215880,note_on,0,0,0,,,,,,,,0,,,89,0
215880,note_on,0,0,0,,,,,,,,0,,,88,82
215880,note_on,0,0,0,,,,,,,,0,,,76,69
215880,note_on,0,0,0,,,,,,,,0,,,64,67
215953,control_change,73,0,0,,,,,,,,0,64,0,,
215970,note_on,17,0,0,,,,,,,,0,,,64,0
215970,note_on,0,0,0,,,,,,,,0,,,76,0
215970,note_on,0,0,0,,,,,,,,0,,,88,0
216000,set_tempo,30,1,0,,,,,,653595,,,,,,
216000,note_on,0,0,0,,,,,,,,0,,,40,69
216080,note_on,80,0,0,,,,,,,,0,,,40,0
216080,note_on,0,0,0,,,,,,,,0,,,42,74
216160,note_on,80,0,0,,,,,,,,0,,,42,0
216160,note_on,0,0,0,,,,,,,,0,,,44,79
216240,time_signature,80,1,0,8,8,12,8,,,,,,,,
216240,set_tempo,0,1,0,,,,,,561798,,,,,,
216240,note_on,0,0,0,,,,,,,,0,,,44,0
216240,note_on,0,0,0,,,,,,,,0,,,45,81
216240,note_on,0,0,0,,,,,,,,0,,,33,69
216277,control_change,37,0,0,,,,,,,,0,64,127,,
216320,note_on,43,0,0,,,,,,,,0,,,52,69
216400,note_on,80,0,0,,,,,,,,0,,,52,0
216400,note_on,0,0,0,,,,,,,,0,,,57,69
216480,note_on,80,0,0,,,,,,,,0,,,57,0
216480,note_on,0,0,0,,,,,,,,0,,,64,78
216480,note_on,0,0,0,,,,,,,,0,,,60,66
216480,note_on,0,0,0,,,,,,,,0,,,57,79
216552,note_on,72,0,0,,,,,,,,0,,,60,0
216552,note_on,0,0,0,,,,,,,,0,,,64,0
216560,note_on,8,0,0,,,,,,,,0,,,64,67
216640,note_on,80,0,0,,,,,,,,0,,,64,0
216640,note_on,0,0,0,,,,,,,,0,,,69,67
216720,set_tempo,80,1,0,,,,,,541516,,,,,,
216720,note_on,0,0,0,,,,,,,,0,,,69,0
216720,note_on,0,0,0,,,,,,,,0,,,45,0
216720,note_on,0,0,0,,,,,,,,0,,,33,0
216720,note_on,0,0,0,,,,,,,,0,,,57,0
216720,note_on,0,0,0,,,,,,,,0,,,76,79
216720,note_on,0,0,0,,,,,,,,0,,,72,67
216720,note_on,0,0,0,,,,,,,,0,,,48,82
216720,note_on,0,0,0,,,,,,,,0,,,36,69
216792,note_on,72,0,0,,,,,,,,0,,,72,0
216792,note_on,0,0,0,,,,,,,,0,,,76,0
216800,note_on,8,0,0,,,,,,,,0,,,76,69
216880,note_on,80,0,0,,,,,,,,0,,,76,0
216880,note_on,0,0,0,,,,,,,,0,,,81,68
216960,note_on,80,0,0,,,,,,,,0,,,81,0
216960,note_on,0,0,0,,,,,,,,0,,,88,79
216960,note_on,0,0,0,,,,,,,,0,,,84,67
216960,note_on,0,0,0,,,,,,,,0,,,60,79
217032,note_on,72,0,0,,,,,,,,0,,,84,0
217032,note_on,0,0,0,,,,,,,,0,,,88,0
217040,note_on,8,0,0,,,,,,,,0,,,88,71
217120,note_on,80,0,0,,,,,,,,0,,,88,0
217120,note_on,0,0,0,,,,,,,,0,,,93,71
217200,set_tempo,80,1,0,,,,,,556586,,,,,,
217200,note_on,0,0,0,,,,,,,,0,,,93,0
217200,note_on,0,0,0,,,,,,,,0,,,36,0
217200,note_on,0,0,0,,,,,,,,0,,,48,0
217200,note_on,0,0,0,,,,,,,,0,,,60,0
217200,note_on,0,0,0,,,,,,,,0,,,100,79
217200,note_on,0,0,0,,,,,,,,0,,,98,67
217200,note_on,0,0,0,,,,,,,,0,,,47,82
217200,note_on,0,0,0,,,,,,,,0,,,35,69
217211,control_change,11,0,0,,,,,,,,0,64,0,,
217232,control_change,21,0,0,,,,,,,,0,64,127,,
217280,note_on,48,0,0,,,,,,,,0,,,98,0
217280,note_on,0,0,0,,,,,,,,0,,,100,0
217280,note_on,0,0,0,,,,,,,,0,,,92,70
217360,note_on,80,0,0,,,,,,,,0,,,92,0
217360,note_on,0,0,0,,,,,,,,0,,,88,70
217440,note_on,80,0,0,,,,,,,,0,,,88,0
217440,note_on,0,0,0,,,,,,,,0,,,88,79
217440,note_on,0,0,0,,,,,,,,0,,,86,67
217440,note_on,0,0,0,,,,,,,,0,,,59,77
217520,note_on,80,0,0,,,,,,,,0,,,86,0
217520,note_on,0,0,0,,,,,,,,0,,,88,0
217520,note_on,0,0,0,,,,,,,,0,,,80,70
217600,note_on,80,0,0,,,,,,,,0,,,80,0
217600,note_on,0,0,0,,,,,,,,0,,,76,67
217672,note_on,72,0,0,,,,,,,,0,,,76,0
217680,set_tempo,8,1,0,,,,,,583658,,,,,,
217680,note_on,0,0,0,,,,,,,,0,,,35,0
217680,note_on,0,0,0,,,,,,,,0,,,47,0
217680,note_on,0,0,0,,,,,,,,0,,,59,0
217680,note_on,0,0,0,,,,,,,,0,,,76,73
217680,note_on,0,0,0,,,,,,,,0,,,72,61
217680,note_on,0,0,0,,,,,,,,0,,,45,81
217680,note_on,0,0,0,,,,,,,,0,,,33,69
217686,control_change,6,0,0,,,,,,,,0,64,0,,
217712,control_change,26,0,0,,,,,,,,0,64,127,,
217760,note_on,48,0,0,,,,,,,,0,,,72,0
217760,note_on,0,0,0,,,,,,,,0,,,76,0
217760,note_on,0,0,0,,,,,,,,0,,,69,69
217840,note_on,80,0,0,,,,,,,,0,,,69,0
217840,note_on,0,0,0,,,,,,,,0,,,64,64
217912,note_on,72,0,0,,,,,,,,0,,,64,0
217920,note_on,8,0,0,,,,,,,,0,,,64,63
217920,note_on,0,0,0,,,,,,,,0,,,60,53
217920,note_on,0,0,0,,,,,,,,0,,,57,77
218099,set_tempo,179,1,0,,,,,,813008,,,,,,
218160,set_tempo,61,1,0,,,,,,607287,,,,,,
218160,note_on,0,0,0,,,,,,,,0,,,57,0
218160,note_on,0,0,0,,,,,,,,0,,,64,0
218160,note_on,0,0,0,,,,,,,,0,,,33,0
218160,note_on,0,0,0,,,,,,,,0,,,45,0
218160,note_on,0,0,0,,,,,,,,0,,,60,0
218160,note_on,0,0,0,,,,,,,,0,,,64,71
218160,note_on,0,0,0,,,,,,,,0,,,56,60
218160,note_on,0,0,0,,,,,,,,0,,,59,60
218176,control_change,16,0,0,,,,,,,,0,64,0,,
218214,control_change,38,0,0,,,,,,,,0,64,127,,
218240,note_on,26,0,0,,,,,,,,0,,,32,58
218280,note_on,40,0,0,,,,,,,,0,,,59,0
218280,note_on,0,0,0,,,,,,,,0,,,64,0
218280,note_on,0,0,0,,,,,,,,0,,,56,0
218320,note_on,40,0,0,,,,,,,,0,,,32,0
218320,note_on,0,0,0,,,,,,,,0,,,35,59
218400,set_tempo,80,1,0,,,,,,541516,,,,,,
218400,note_on,0,0,0,,,,,,,,0,,,35,0
218400,note_on,0,0,0,,,,,,,,0,,,88,84
218400,note_on,0,0,0,,,,,,,,0,,,83,71
218400,note_on,0,0,0,,,,,,,,0,,,80,71
218400,note_on,0,0,0,,,,,,,,0,,,76,71
218400,note_on,0,0,0,,,,,,,,0,,,40,60
218480,note_on,80,0,0,,,,,,,,0,,,40,0
218480,note_on,0,0,0,,,,,,,,0,,,44,61
218560,note_on,80,0,0,,,,,,,,0,,,44,0
218560,note_on,0,0,0,,,,,,,,0,,,47,62
218640,note_on,80,0,0,,,,,,,,0,,,47,0
218640,note_on,0,0,0,,,,,,,,0,,,52,64
218720,note_on,80,0,0,,,,,,,,0,,,52,0
218720,note_on,0,0,0,,,,,,,,0,,,56,63
218800,note_on,80,0,0,,,,,,,,0,,,56,0
218800,note_on,0,0,0,,,,,,,,0,,,59,66
218880,note_on,80,0,0,,,,,,,,0,,,59,0
218880,note_on,0,0,0,,,,,,,,0,,,76,0
218880,note_on,0,0,0,,,,,,,,0,,,88,0
218880,note_on,0,0,0,,,,,,,,0,,,83,0
218880,note_on,0,0,0,,,,,,,,0,,,80,0
218880,note_on,0,0,0,,,,,,,,0,,,91,84
218880,note_on,0,0,0,,,,,,,,0,,,86,71
218880,note_on,0,0,0,,,,,,,,0,,,83,71
218880,note_on,0,0,0,,,,,,,,0,,,79,71
218880,note_on,0,0,0,,,,,,,,0,,,64,67
218892,control_change,12,0,0,,,,,,,,0,64,0,,
218923,control_change,31,0,0,,,,,,,,0,64,127,,
218960,note_on,37,0,0,,,,,,,,0,,,64,0
218960,note_on,0,0,0,,,,,,,,0,,,68,68
219040,note_on,80,0,0,,,,,,,,0,,,68,0
219040,note_on,0,0,0,,,,,,,,0,,,71,69
219120,note_on,80,0,0,,,,,,,,0,,,71,0
219120,note_on,0,0,0,,,,,,,,0,,,76,73
219200,note_on,80,0,0,,,,,,,,0,,,76,0
219200,note_on,0,0,0,,,,,,,,0,,,71,70
219280,note_on,80,0,0,,,,,,,,0,,,71,0
219280,note_on,0,0,0,,,,,,,,0,,,68,70
219360,set_tempo,80,1,0,,,,,,561798,,,,,,
219360,note_on,0,0,0,,,,,,,,0,,,68,0
219360,note_on,0,0,0,,,,,,,,0,,,79,0
219360,note_on,0,0,0,,,,,,,,0,,,91,0
219360,note_on,0,0,0,,,,,,,,0,,,86,0
219360,note_on,0,0,0,,,,,,,,0,,,83,0
219360,note_on,0,0,0,,,,,,,,0,,,89,84
219360,note_on,0,0,0,,,,,,,,0,,,86,71
219360,note_on,0,0,0,,,,,,,,0,,,83,71
219360,note_on,0,0,0,,,,,,,,0,,,77,71
219360,note_on,0,0,0,,,,,,,,0,,,64,69
219372,control_change,12,0,0,,,,,,,,0,64,0,,
219409,control_change,37,0,0,,,,,,,,0,64,127,,
219440,note_on,31,0,0,,,,,,,,0,,,64,0
219440,note_on,0,0,0,,,,,,,,0,,,59,69
219520,note_on,80,0,0,,,,,,,,0,,,59,0
219520,note_on,0,0,0,,,,,,,,0,,,56,68
219600,note_on,80,0,0,,,,,,,,0,,,56,0
219600,note_on,0,0,0,,,,,,,,0,,,52,67
219680,note_on,80,0,0,,,,,,,,0,,,52,0
219680,note_on,0,0,0,,,,,,,,0,,,47,66
219760,note_on,80,0,0,,,,,,,,0,,,47,0
219760,note_on,0,0,0,,,,,,,,0,,,44,64
219840,note_on,80,0,0,,,,,,,,0,,,44,0
219840,note_on,0,0,0,,,,,,,,0,,,77,0
219840,note_on,0,0,0,,,,,,,,0,,,89,0
219840,note_on,0,0,0,,,,,,,,0,,,86,0
219840,note_on,0,0,0,,,,,,,,0,,,83,0
219840,note_on,0,0,0,,,,,,,,0,,,88,79
219840,note_on,0,0,0,,,,,,,,0,,,86,67
219840,note_on,0,0,0,,,,,,,,0,,,83,67
219840,note_on,0,0,0,,,,,,,,0,,,76,67
219840,note_on,0,0,0,,,,,,,,0,,,40,63
219920,note_on,80,0,0,,,,,,,,0,,,40,0
219920,note_on,0,0,0,,,,,,,,0,,,35,62
219999,set_tempo,79,1,0,,,,,,884956,,,,,,
220000,note_on,1,0,0,,,,,,,,0,,,35,0
220000,note_on,0,0,0,,,,,,,,0,,,32,61
220080,note_on,80,0,0,,,,,,,,0,,,32,0
220080,note_on,0,0,0,,,,,,,,0,,,83,0
220080,note_on,0,0,0,,,,,,,,0,,,88,0
220080,note_on,0,0,0,,,,,,,,0,,,86,0
220080,note_on,0,0,0,,,,,,,,0,,,76,0
220080,note_on,0,0,0,,,,,,,,0,,,33,69
220080,note_on,0,0,0,,,,,,,,0,,,45,81
220097,control_change,17,0,0,,,,,,,,0,64,0,,
220099,set_tempo,2,1,0,,,,,,561798,,,,,,
220155,control_change,56,0,0,,,,,,,,0,64,127,,
220160,note_on,5,0,0,,,,,,,,0,,,52,69
220240,note_on,80,0,0,,,,,,,,0,,,52,0
220240,note_on,0,0,0,,,,,,,,0,,,57,69
220320,note_on,80,0,0,,,,,,,,0,,,57,0
220320,note_on,0,0,0,,,,,,,,0,,,64,78
220320,note_on,0,0,0,,,,,,,,0,,,60,66
220320,note_on,0,0,0,,,,,,,,0,,,57,79
220392,note_on,72,0,0,,,,,,,,0,,,60,0
220392,note_on,0,0,0,,,,,,,,0,,,64,0
220400,note_on,8,0,0,,,,,,,,0,,,64,67
220480,note_on,80,0,0,,,,,,,,0,,,64,0
220480,note_on,0,0,0,,,,,,,,0,,,69,67
220560,set_tempo,80,1,0,,,,,,541516,,,,,,
220560,note_on,0,0,0,,,,,,,,0,,,69,0
220560,note_on,0,0,0,,,,,,,,0,,,33,0
220560,note_on,0,0,0,,,,,,,,0,,,45,0
220560,note_on,0,0,0,,,,,,,,0,,,57,0
220560,note_on,0,0,0,,,,,,,,0,,,76,79
220560,note_on,0,0,0,,,,,,,,0,,,72,67
220560,note_on,0,0,0,,,,,,,,0,,,48,82
220560,note_on,0,0,0,,,,,,,,0,,,36,69
220632,note_on,72,0,0,,,,,,,,0,,,72,0
220632,note_on,0,0,0,,,,,,,,0,,,76,0
220640,note_on,8,0,0,,,,,,,,0,,,76,69
220720,note_on,80,0,0,,,,,,,,0,,,76,0
220720,note_on,0,0,0,,,,,,,,0,,,81,68
220800,note_on,80,0,0,,,,,,,,0,,,81,0
220800,note_on,0,0,0,,,,,,,,0,,,88,79
220800,note_on,0,0,0,,,,,,,,0,,,84,67
220800,note_on,0,0,0,,,,,,,,0,,,60,79
220872,note_on,72,0,0,,,,,,,,0,,,84,0
220872,note_on,0,0,0,,,,,,,,0,,,88,0
220880,note_on,8,0,0,,,,,,,,0,,,88,71
220960,note_on,80,0,0,,,,,,,,0,,,88,0
220960,note_on,0,0,0,,,,,,,,0,,,93,71
221040,note_on,80,0,0,,,,,,,,0,,,93,0
221040,note_on,0,0,0,,,,,,,,0,,,36,0
221040,note_on,0,0,0,,,,,,,,0,,,48,0
221040,note_on,0,0,0,,,,,,,,0,,,60,0
221040,note_on,0,0,0,,,,,,,,0,,,100,79
221040,note_on,0,0,0,,,,,,,,0,,,98,67
221040,note_on,0,0,0,,,,,,,,0,,,47,82
221040,note_on,0,0,0,,,,,,,,0,,,35,69
221047,control_change,7,0,0,,,,,,,,0,64,0,,
221072,control_change,25,0,0,,,,,,,,0,64,127,,
221120,note_on,48,0,0,,,,,,,,0,,,98,0
221120,note_on,0,0,0,,,,,,,,0,,,100,0
221120,note_on,0,0,0,,,,,,,,0,,,92,70
221160,set_tempo,40,1,0,,,,,,561798,,,,,,
221200,note_on,40,0,0,,,,,,,,0,,,92,0
221200,note_on,0,0,0,,,,,,,,0,,,88,70
221272,note_on,72,0,0,,,,,,,,0,,,88,0
221280,note_on,8,0,0,,,,,,,,0,,,88,79
221280,note_on,0,0,0,,,,,,,,0,,,86,67
221280,note_on,0,0,0,,,,,,,,0,,,59,77
221360,note_on,80,0,0,,,,,,,,0,,,86,0
221360,note_on,0,0,0,,,,,,,,0,,,88,0
221360,note_on,0,0,0,,,,,,,,0,,,80,70
221440,note_on,80,0,0,,,,,,,,0,,,80,0
221440,note_on,0,0,0,,,,,,,,0,,,76,67
221512,note_on,72,0,0,,,,,,,,0,,,76,0
221520,set_tempo,8,1,0,,,,,,583658,,,,,,
221520,note_on,0,0,0,,,,,,,,0,,,35,0
221520,note_on,0,0,0,,,,,,,,0,,,47,0
221520,note_on,0,0,0,,,,,,,,0,,,59,0
221520,note_on,0,0,0,,,,,,,,0,,,76,73
221520,note_on,0,0,0,,,,,,,,0,,,72,61
221520,note_on,0,0,0,,,,,,,,0,,,45,81
221520,note_on,0,0,0,,,,,,,,0,,,33,69
221526,control_change,6,0,0,,,,,,,,0,64,0,,
221552,control_change,26,0,0,,,,,,,,0,64,127,,
221600,note_on,48,0,0,,,,,,,,0,,,72,0
221600,note_on,0,0,0,,,,,,,,0,,,76,0
221600,note_on,0,0,0,,,,,,,,0,,,69,69
221680,note_on,80,0,0,,,,,,,,0,,,69,0
221680,note_on,0,0,0,,,,,,,,0,,,64,64
221752,note_on,72,0,0,,,,,,,,0,,,64,0
221760,note_on,8,0,0,,,,,,,,0,,,64,63
221760,note_on,0,0,0,,,,,,,,0,,,60,53
221760,note_on,0,0,0,,,,,,,,0,,,57,77
221939,set_tempo,179,1,0,,,,,,847458,,,,,,
222000,note_on,61,0,0,,,,,,,,0,,,57,0
222000,note_on,0,0,0,,,,,,,,0,,,64,0
222000,note_on,0,0,0,,,,,,,,0,,,33,0
222000,note_on,0,0,0,,,,,,,,0,,,45,0
222000,note_on,0,0,0,,,,,,,,0,,,60,0
222000,note_on,0,0,0,,,,,,,,0,,,64,71
222000,note_on,0,0,0,,,,,,,,0,,,56,50
222000,note_on,0,0,0,,,,,,,,0,,,52,70
222000,note_on,0,0,0,,,,,,,,0,,,40,59
222000,note_on,0,0,0,,,,,,,,0,,,47,59
222011,control_change,11,0,0,,,,,,,,0,64,0,,
222019,set_tempo,8,1,0,,,,,,561798,,,,,,
222039,set_tempo,20,1,0,,,,,,619835,,,,,,
222086,control_change,47,0,0,,,,,,,,0,64,127,,
222119,set_tempo,33,1,0,,,,,,496689,,,,,,
222120,note_on,1,0,0,,,,,,,,0,,,47,0
222120,note_on,0,0,0,,,,,,,,0,,,52,0
222120,note_on,0,0,0,,,,,,,,0,,,64,0
222120,note_on,0,0,0,,,,,,,,0,,,56,0
222120,note_on,0,0,0,,,,,,,,0,,,40,0
222120,note_on,0,0,0,,,,,,,,0,,,76,59
222120,note_on,0,0,0,,,,,,,,0,,,64,49
222120,note_on,0,0,0,,,,,,,,0,,,52,51
222199,set_tempo,79,1,0,,,,,,492611,,,,,,
222240,note_on,41,0,0,,,,,,,,0,,,52,0
222240,note_on,0,0,0,,,,,,,,0,,,64,0
222240,note_on,0,0,0,,,,,,,,0,,,76,0
222240,note_on,0,0,0,,,,,,,,0,,,77,61
222240,note_on,0,0,0,,,,,,,,0,,,65,50
222240,note_on,0,0,0,,,,,,,,0,,,53,52
222259,set_tempo,19,1,0,,,,,,488599,,,,,,
222319,set_tempo,60,1,0,,,,,,484653,,,,,,
222360,note_on,41,0,0,,,,,,,,0,,,53,0
222360,note_on,0,0,0,,,,,,,,0,,,65,0
222360,note_on,0,0,0,,,,,,,,0,,,77,0
222360,note_on,0,0,0,,,,,,,,0,,,78,63
222360,note_on,0,0,0,,,,,,,,0,,,66,52
222360,note_on,0,0,0,,,,,,,,0,,,54,55
222399,set_tempo,39,1,0,,,,,,480769,,,,,,
222459,set_tempo,60,1,0,,,,,,476948,,,,,,
222480,note_on,21,0,0,,,,,,,,0,,,54,0
222480,note_on,0,0,0,,,,,,,,0,,,66,0
222480,note_on,0,0,0,,,,,,,,0,,,78,0
222480,note_on,0,0,0,,,,,,,,0,,,79,66
222480,note_on,0,0,0,,,,,,,,0,,,67,56
222480,note_on,0,0,0,,,,,,,,0,,,55,57
222519,set_tempo,39,1,0,,,,,,473186,,,,,,
222599,set_tempo,80,1,0,,,,,,469484,,,,,,
222600,note_on,1,0,0,,,,,,,,0,,,55,0
222600,note_on,0,0,0,,,,,,,,0,,,67,0
222600,note_on,0,0,0,,,,,,,,0,,,79,0
222600,note_on,0,0,0,,,,,,,,0,,,80,68
222600,note_on,0,0,0,,,,,,,,0,,,68,58
222600,note_on,0,0,0,,,,,,,,0,,,56,59
222659,set_tempo,59,1,0,,,,,,465839,,,,,,
222719,set_tempo,60,1,0,,,,,,462250,,,,,,
222720,note_on,1,0,0,,,,,,,,0,,,56,0
222720,note_on,0,0,0,,,,,,,,0,,,68,0
222720,note_on,0,0,0,,,,,,,,0,,,80,0
222720,note_on,0,0,0,,,,,,,,0,,,81,71
222720,note_on,0,0,0,,,,,,,,0,,,69,60
222720,note_on,0,0,0,,,,,,,,0,,,57,61
222779,set_tempo,59,1,0,,,,,,458716,,,,,,
222840,note_on,61,0,0,,,,,,,,0,,,57,0
222840,note_on,0,0,0,,,,,,,,0,,,69,0
222840,note_on,0,0,0,,,,,,,,0,,,81,0
222840,note_on,0,0,0,,,,,,,,0,,,82,73
222840,note_on,0,0,0,,,,,,,,0,,,70,61
222840,note_on,0,0,0,,,,,,,,0,,,58,62
222899,set_tempo,59,1,0,,,,,,465839,,,,,,
222960,note_on,61,0,0,,,,,,,,0,,,58,0
222960,note_on,0,0,0,,,,,,,,0,,,70,0
222960,note_on,0,0,0,,,,,,,,0,,,82,0
222960,note_on,0,0,0,,,,,,,,0,,,83,75
222960,note_on,0,0,0,,,,,,,,0,,,71,64
222960,note_on,0,0,0,,,,,,,,0,,,59,64
223080,note_on,120,0,0,,,,,,,,0,,,59,0
223080,note_on,0,0,0,,,,,,,,0,,,71,0
223080,note_on,0,0,0,,,,,,,,0,,,83,0
223080,note_on,0,0,0,,,,,,,,0,,,84,78
223080,note_on,0,0,0,,,,,,,,0,,,72,66
223080,note_on,0,0,0,,,,,,,,0,,,60,67
223200,note_on,120,0,0,,,,,,,,0,,,60,0
223200,note_on,0,0,0,,,,,,,,0,,,72,0
223200,note_on,0,0,0,,,,,,,,0,,,84,0
223200,note_on,0,0,0,,,,,,,,0,,,85,81
223200,note_on,0,0,0,,,,,,,,0,,,73,68
223200,note_on,0,0,0,,,,,,,,0,,,61,69
223320,note_on,120,0,0,,,,,,,,0,,,61,0
223320,note_on,0,0,0,,,,,,,,0,,,73,0
223320,note_on,0,0,0,,,,,,,,0,,,85,0
223320,note_on,0,0,0,,,,,,,,0,,,86,84
223320,note_on,0,0,0,,,,,,,,0,,,74,70
223320,note_on,0,0,0,,,,,,,,0,,,62,71
223339,set_tempo,19,1,0,,,,,,469484,,,,,,
223359,set_tempo,20,1,0,,,,,,469484,,,,,,
223399,set_tempo,40,1,0,,,,,,473186,,,,,,
223419,set_tempo,20,1,0,,,,,,476948,,,,,,
223440,note_on,21,0,0,,,,,,,,0,,,62,0
223440,note_on,0,0,0,,,,,,,,0,,,74,0
223440,note_on,0,0,0,,,,,,,,0,,,86,0
223440,note_on,0,0,0,,,,,,,,0,,,87,88
223440,note_on,0,0,0,,,,,,,,0,,,75,73
223440,note_on,0,0,0,,,,,,,,0,,,63,73
223459,set_tempo,19,1,0,,,,,,480769,,,,,,
223479,set_tempo,20,1,0,,,,,,484653,,,,,,
223519,set_tempo,40,1,0,,,,,,488599,,,,,,
223539,set_tempo,20,1,0,,,,,,492611,,,,,,
223560,note_on,21,0,0,,,,,,,,0,,,63,0
223560,note_on,0,0,0,,,,,,,,0,,,75,0
223560,note_on,0,0,0,,,,,,,,0,,,87,0
223560,note_on,0,0,0,,,,,,,,0,,,88,92
223560,note_on,0,0,0,,,,,,,,0,,,76,78
223560,note_on,0,0,0,,,,,,,,0,,,64,75
223579,set_tempo,19,1,0,,,,,,496689,,,,,,
223599,set_tempo,20,1,0,,,,,,500835,,,,,,
223639,set_tempo,40,1,0,,,,,,505051,,,,,,
223659,set_tempo,20,1,0,,,,,,509338,,,,,,
223680,note_on,21,0,0,,,,,,,,0,,,64,0
223680,note_on,0,0,0,,,,,,,,0,,,76,0
223680,note_on,0,0,0,,,,,,,,0,,,88,0
223680,note_on,0,0,0,,,,,,,,0,,,89,96
223680,note_on,0,0,0,,,,,,,,0,,,77,81
223680,note_on,0,0,0,,,,,,,,0,,,65,73
223739,set_tempo,59,1,0,,,,,,522648,,,,,,
223799,set_tempo,60,1,0,,,,,,527241,,,,,,
223800,set_tempo,1,1,0,,,,,,1612903,,,,,,
223800,note_on,0,0,0,,,,,,,,0,,,65,0
223800,note_on,0,0,0,,,,,,,,0,,,77,0
223800,note_on,0,0,0,,,,,,,,0,,,89,0
223800,note_on,0,0,0,,,,,,,,0,,,88,82
223800,note_on,0,0,0,,,,,,,,0,,,76,69
223800,note_on,0,0,0,,,,,,,,0,,,64,67
223835,control_change,35,0,0,,,,,,,,0,64,0,,
223920,set_tempo,85,1,0,,,,,,884956,,,,,,
223920,note_on,0,0,0,,,,,,,,0,,,64,0
223920,note_on,0,0,0,,,,,,,,0,,,76,0
223920,note_on,0,0,0,,,,,,,,0,,,88,0
223920,note_on,0,0,0,,,,,,,,0,,,57,70
223920,note_on,0,0,0,,,,,,,,0,,,49,59
223920,note_on,0,0,0,,,,,,,,0,,,52,59
223939,set_tempo,19,1,0,,,,,,561798,,,,,,
223995,control_change,56,0,0,,,,,,,,0,64,127,,
224000,note_on,5,0,0,,,,,,,,0,,,61,59
224080,note_on,80,0,0,,,,,,,,0,,,61,0
224080,note_on,0,0,0,,,,,,,,0,,,64,59
224160,note_on,80,0,0,,,,,,,,0,,,64,0
224160,note_on,0,0,0,,,,,,,,0,,,52,0
224160,note_on,0,0,0,,,,,,,,0,,,49,0
224160,note_on,0,0,0,,,,,,,,0,,,57,0
224160,note_on,0,0,0,,,,,,,,0,,,69,69
224160,note_on,0,0,0,,,,,,,,0,,,37,67
224232,note_on,72,0,0,,,,,,,,0,,,69,0
224240,note_on,8,0,0,,,,,,,,0,,,69,59
224320,note_on,80,0,0,,,,,,,,0,,,69,0
224320,note_on,0,0,0,,,,,,,,0,,,73,59
224400,set_tempo,80,1,0,,,,,,541516,,,,,,
224400,note_on,0,0,0,,,,,,,,0,,,73,0
224400,note_on,0,0,0,,,,,,,,0,,,37,0
224400,note_on,0,0,0,,,,,,,,0,,,82,71
224400,note_on,0,0,0,,,,,,,,0,,,79,60
224400,note_on,0,0,0,,,,,,,,0,,,58,72
224400,note_on,0,0,0,,,,,,,,0,,,49,60
224400,note_on,0,0,0,,,,,,,,0,,,55,60
224472,note_on,72,0,0,,,,,,,,0,,,79,0
224472,note_on,0,0,0,,,,,,,,0,,,82,0
224480,note_on,8,0,0,,,,,,,,0,,,82,62
224560,note_on,80,0,0,,,,,,,,0,,,82,0
224560,note_on,0,0,0,,,,,,,,0,,,85,62
224640,note_on,80,0,0,,,,,,,,0,,,85,0
224640,note_on,0,0,0,,,,,,,,0,,,49,0
224640,note_on,0,0,0,,,,,,,,0,,,58,0
224640,note_on,0,0,0,,,,,,,,0,,,55,0
224640,note_on,0,0,0,,,,,,,,0,,,94,74
224640,note_on,0,0,0,,,,,,,,0,,,91,62
224640,note_on,0,0,0,,,,,,,,0,,,45,67
224720,note_on,80,0,0,,,,,,,,0,,,91,0
224720,note_on,0,0,0,,,,,,,,0,,,94,0
224720,note_on,0,0,0,,,,,,,,0,,,85,66
224800,note_on,80,0,0,,,,,,,,0,,,85,0
224800,note_on,0,0,0,,,,,,,,0,,,82,66
224880,note_on,80,0,0,,,,,,,,0,,,82,0
224880,note_on,0,0,0,,,,,,,,0,,,45,0
224880,note_on,0,0,0,,,,,,,,0,,,93,72
224880,note_on,0,0,0,,,,,,,,0,,,89,60
224880,note_on,0,0,0,,,,,,,,0,,,57,74
224880,note_on,0,0,0,,,,,,,,0,,,49,62
224880,note_on,0,0,0,,,,,,,,0,,,53,62
224887,control_change,7,0,0,,,,,,,,0,64,0,,
224912,control_change,25,0,0,,,,,,,,0,64,127,,
224960,note_on,48,0,0,,,,,,,,0,,,89,0
224960,note_on,0,0,0,,,,,,,,0,,,93,0
224960,note_on,0,0,0,,,,,,,,0,,,85,64
225000,set_tempo,40,1,0,,,,,,561798,,,,,,
225040,note_on,40,0,0,,,,,,,,0,,,85,0
225040,note_on,0,0,0,,,,,,,,0,,,81,64
225120,note_on,80,0,0,,,,,,,,0,,,81,0
225120,note_on,0,0,0,,,,,,,,0,,,49,0
225120,note_on,0,0,0,,,,,,,,0,,,57,0
225120,note_on,0,0,0,,,,,,,,0,,,53,0
225120,note_on,0,0,0,,,,,,,,0,,,81,70
225120,note_on,0,0,0,,,,,,,,0,,,77,59
225120,note_on,0,0,0,,,,,,,,0,,,37,67
225200,note_on,80,0,0,,,,,,,,0,,,77,0
225200,note_on,0,0,0,,,,,,,,0,,,81,0
225200,note_on,0,0,0,,,,,,,,0,,,73,70
225280,note_on,80,0,0,,,,,,,,0,,,73,0
225280,note_on,0,0,0,,,,,,,,0,,,69,62
225360,set_tempo,80,1,0,,,,,,583658,,,,,,
225360,note_on,0,0,0,,,,,,,,0,,,69,0
225360,note_on,0,0,0,,,,,,,,0,,,37,0
225360,note_on,0,0,0,,,,,,,,0,,,79,61
225360,note_on,0,0,0,,,,,,,,0,,,76,44
225360,note_on,0,0,0,,,,,,,,0,,,55,77
225360,note_on,0,0,0,,,,,,,,0,,,49,59
225360,note_on,0,0,0,,,,,,,,0,,,52,64
225366,control_change,6,0,0,,,,,,,,0,64,0,,
225392,control_change,26,0,0,,,,,,,,0,64,127,,
225440,note_on,48,0,0,,,,,,,,0,,,76,0
225440,note_on,0,0,0,,,,,,,,0,,,79,0
225440,note_on,0,0,0,,,,,,,,0,,,70,68
225520,note_on,80,0,0,,,,,,,,0,,,70,0
225520,note_on,0,0,0,,,,,,,,0,,,69,63
225600,note_on,80,0,0,,,,,,,,0,,,69,0
225600,note_on,0,0,0,,,,,,,,0,,,49,0
225600,note_on,0,0,0,,,,,,,,0,,,55,0
225600,note_on,0,0,0,,,,,,,,0,,,52,0
225600,note_on,0,0,0,,,,,,,,0,,,67,62
225600,note_on,0,0,0,,,,,,,,0,,,64,52
225600,note_on,0,0,0,,,,,,,,0,,,45,69
225680,note_on,80,0,0,,,,,,,,0,,,64,0
225680,note_on,0,0,0,,,,,,,,0,,,67,0
225680,note_on,0,0,0,,,,,,,,0,,,58,61
225760,note_on,80,0,0,,,,,,,,0,,,58,0
225760,note_on,0,0,0,,,,,,,,0,,,57,59
225779,set_tempo,19,1,0,,,,,,847458,,,,,,
225840,set_tempo,61,1,0,,,,,,636943,,,,,,
225840,note_on,0,0,0,,,,,,,,0,,,57,0
225840,note_on,0,0,0,,,,,,,,0,,,45,0
225840,note_on,0,0,0,,,,,,,,0,,,62,66
225840,note_on,0,0,0,,,,,,,,0,,,65,75
225840,note_on,0,0,0,,,,,,,,0,,,53,75
225840,note_on,0,0,0,,,,,,,,0,,,38,63
225851,control_change,11,0,0,,,,,,,,0,64,0,,
225912,set_tempo,61,1,0,,,,,,537634,,,,,,
225960,note_on,48,0,0,,,,,,,,0,,,38,0
225960,note_on,0,0,0,,,,,,,,0,,,62,0
225960,note_on,0,0,0,,,,,,,,0,,,65,0
225960,note_on,0,0,0,,,,,,,,0,,,53,0
226040,set_tempo,80,1,0,,,,,,532860,,,,,,
226080,note_on,40,0,0,,,,,,,,0,,,73,53
226080,note_on,0,0,0,,,,,,,,0,,,67,53
226080,note_on,0,0,0,,,,,,,,0,,,64,45
226080,note_on,0,0,0,,,,,,,,0,,,55,38
226080,note_on,0,0,0,,,,,,,,0,,,58,38
226160,note_on,80,0,0,,,,,,,,0,,,74,52
226168,set_tempo,8,1,0,,,,,,528169,,,,,,
226170,note_on,2,0,0,,,,,,,,0,,,73,0
226200,note_on,30,0,0,,,,,,,,0,,,58,0
226200,note_on,0,0,0,,,,,,,,0,,,55,0
226200,note_on,0,0,0,,,,,,,,0,,,64,0
226240,note_on,40,0,0,,,,,,,,0,,,76,53
226250,note_on,10,0,0,,,,,,,,0,,,74,0
226296,set_tempo,46,1,0,,,,,,523560,,,,,,
226320,note_on,24,0,0,,,,,,,,0,,,67,0
226320,note_on,0,0,0,,,,,,,,0,,,77,55
226320,note_on,0,0,0,,,,,,,,0,,,74,55
226320,note_on,0,0,0,,,,,,,,0,,,65,47
226320,note_on,0,0,0,,,,,,,,0,,,57,39
226320,note_on,0,0,0,,,,,,,,0,,,62,39
226330,note_on,10,0,0,,,,,,,,0,,,76,0
226400,note_on,70,0,0,,,,,,,,0,,,79,56
226410,note_on,10,0,0,,,,,,,,0,,,77,0
226424,set_tempo,14,1,0,,,,,,519031,,,,,,
226440,note_on,16,0,0,,,,,,,,0,,,65,0
226440,note_on,0,0,0,,,,,,,,0,,,57,0
226440,note_on,0,0,0,,,,,,,,0,,,62,0
226480,note_on,40,0,0,,,,,,,,0,,,81,57
226490,note_on,10,0,0,,,,,,,,0,,,79,0
226552,set_tempo,62,1,0,,,,,,514580,,,,,,
226560,note_on,8,0,0,,,,,,,,0,,,74,0
226560,note_on,0,0,0,,,,,,,,0,,,85,58
226560,note_on,0,0,0,,,,,,,,0,,,79,58
226560,note_on,0,0,0,,,,,,,,0,,,76,48
226560,note_on,0,0,0,,,,,,,,0,,,67,40
226560,note_on,0,0,0,,,,,,,,0,,,70,40
226570,note_on,10,0,0,,,,,,,,0,,,81,0
226640,note_on,70,0,0,,,,,,,,0,,,86,59
226650,note_on,10,0,0,,,,,,,,0,,,85,0
226680,set_tempo,30,1,0,,,,,,510204,,,,,,
226680,note_on,0,0,0,,,,,,,,0,,,76,0
226680,note_on,0,0,0,,,,,,,,0,,,67,0
226680,note_on,0,0,0,,,,,,,,0,,,70,0
226712,set_tempo,32,1,0,,,,,,505902,,,,,,
226720,note_on,8,0,0,,,,,,,,0,,,88,59
226730,note_on,10,0,0,,,,,,,,0,,,86,0
226744,set_tempo,14,1,0,,,,,,501672,,,,,,
226776,set_tempo,32,1,0,,,,,,497512,,,,,,
226800,note_on,24,0,0,,,,,,,,0,,,79,0
226800,note_on,0,0,0,,,,,,,,0,,,89,60
226800,note_on,0,0,0,,,,,,,,0,,,86,60
226800,note_on,0,0,0,,,,,,,,0,,,77,49
226800,note_on,0,0,0,,,,,,,,0,,,69,41
226800,note_on,0,0,0,,,,,,,,0,,,74,41
226808,set_tempo,8,1,0,,,,,,493421,,,,,,
226810,note_on,2,0,0,,,,,,,,0,,,88,0
226840,set_tempo,30,1,0,,,,,,485437,,,,,,
226872,set_tempo,32,1,0,,,,,,481541,,,,,,
226880,note_on,8,0,0,,,,,,,,0,,,91,61
226890,note_on,10,0,0,,,,,,,,0,,,89,0
226904,set_tempo,14,1,0,,,,,,477707,,,,,,
226920,note_on,16,0,0,,,,,,,,0,,,77,0
226920,note_on,0,0,0,,,,,,,,0,,,69,0
226920,note_on,0,0,0,,,,,,,,0,,,74,0
226936,set_tempo,16,1,0,,,,,,473934,,,,,,
226960,note_on,24,0,0,,,,,,,,0,,,93,62
226968,set_tempo,8,1,0,,,,,,466563,,,,,,
226970,note_on,2,0,0,,,,,,,,0,,,91,0
227040,note_on,70,0,0,,,,,,,,0,,,86,0
227040,note_on,0,0,0,,,,,,,,0,,,97,62
227040,note_on,0,0,0,,,,,,,,0,,,91,62
227040,note_on,0,0,0,,,,,,,,0,,,88,51
227040,note_on,0,0,0,,,,,,,,0,,,82,42
227040,note_on,0,0,0,,,,,,,,0,,,79,42
227050,note_on,10,0,0,,,,,,,,0,,,93,0
227070,set_tempo,20,1,0,,,,,,475436,,,,,,
227110,set_tempo,40,1,0,,,,,,479233,,,,,,
227120,note_on,10,0,0,,,,,,,,0,,,98,63
227130,note_on,10,0,0,,,,,,,,0,,,97,0
227150,set_tempo,20,1,0,,,,,,483092,,,,,,
227160,note_on,10,0,0,,,,,,,,0,,,88,0
227160,note_on,0,0,0,,,,,,,,0,,,82,0
227160,note_on,0,0,0,,,,,,,,0,,,79,0
227170,set_tempo,10,1,0,,,,,,487013,,,,,,
227200,note_on,30,0,0,,,,,,,,0,,,100,64
227210,set_tempo,10,1,0,,,,,,490998,,,,,,
227210,note_on,0,0,0,,,,,,,,0,,,98,0
227250,set_tempo,40,1,0,,,,,,495050,,,,,,
227270,set_tempo,20,1,0,,,,,,499168,,,,,,
227280,note_on,10,0,0,,,,,,,,0,,,91,0
227280,note_on,0,0,0,,,,,,,,0,,,101,66
227280,note_on,0,0,0,,,,,,,,0,,,98,66
227280,note_on,0,0,0,,,,,,,,0,,,93,66
227280,note_on,0,0,0,,,,,,,,0,,,89,53
227280,note_on,0,0,0,,,,,,,,0,,,81,45
227280,note_on,0,0,0,,,,,,,,0,,,86,45
227290,note_on,10,0,0,,,,,,,,0,,,100,0
227310,set_tempo,20,1,0,,,,,,503356,,,,,,
227317,control_change,7,0,0,,,,,,,,0,64,127,,
227330,set_tempo,13,1,0,,,,,,507614,,,,,,
227400,note_on,70,0,0,,,,,,,,0,,,81,0
227400,note_on,0,0,0,,,,,,,,0,,,98,0
227400,note_on,0,0,0,,,,,,,,0,,,93,0
227400,note_on,0,0,0,,,,,,,,0,,,101,0
227400,note_on,0,0,0,,,,,,,,0,,,86,0
227400,note_on,0,0,0,,,,,,,,0,,,89,0
227546,control_change,146,0,0,,,,,,,,0,64,0,,
227760,set_tempo,214,1,0,,,,,,884956,,,,,,
227760,note_on,0,0,0,,,,,,,,0,,,55,70
227760,note_on,0,0,0,,,,,,,,0,,,47,59
227760,note_on,0,0,0,,,,,,,,0,,,50,59
227779,set_tempo,19,1,0,,,,,,561798,,,,,,
227829,control_change,50,0,0,,,,,,,,0,64,127,,
227840,note_on,11,0,0,,,,,,,,0,,,59,59
227920,note_on,80,0,0,,,,,,,,0,,,59,0
227920,note_on,0,0,0,,,,,,,,0,,,62,59
228000,note_on,80,0,0,,,,,,,,0,,,62,0
228000,note_on,0,0,0,,,,,,,,0,,,50,0
228000,note_on,0,0,0,,,,,,,,0,,,47,0
228000,note_on,0,0,0,,,,,,,,0,,,55,0
228000,note_on,0,0,0,,,,,,,,0,,,67,69
228000,note_on,0,0,0,,,,,,,,0,,,35,67
228072,note_on,72,0,0,,,,,,,,0,,,67,0
228080,note_on,8,0,0,,,,,,,,0,,,67,59
228160,note_on,80,0,0,,,,,,,,0,,,67,0
228160,note_on,0,0,0,,,,,,,,0,,,71,59
228240,set_tempo,80,1,0,,,,,,541516,,,,,,
228240,note_on,0,0,0,,,,,,,,0,,,71,0
228240,note_on,0,0,0,,,,,,,,0,,,35,0
228240,note_on,0,0,0,,,,,,,,0,,,80,71
228240,note_on,0,0,0,,,,,,,,0,,,77,60
228240,note_on,0,0,0,,,,,,,,0,,,56,72
228240,note_on,0,0,0,,,,,,,,0,,,47,60
228240,note_on,0,0,0,,,,,,,,0,,,53,60
228312,note_on,72,0,0,,,,,,,,0,,,77,0
228312,note_on,0,0,0,,,,,,,,0,,,80,0
228320,note_on,8,0,0,,,,,,,,0,,,80,62
228400,note_on,80,0,0,,,,,,,,0,,,80,0
228400,note_on,0,0,0,,,,,,,,0,,,83,62
228480,note_on,80,0,0,,,,,,,,0,,,83,0
228480,note_on,0,0,0,,,,,,,,0,,,47,0
228480,note_on,0,0,0,,,,,,,,0,,,56,0
228480,note_on,0,0,0,,,,,,,,0,,,53,0
228480,note_on,0,0,0,,,,,,,,0,,,92,74
228480,note_on,0,0,0,,,,,,,,0,,,89,62
228480,note_on,0,0,0,,,,,,,,0,,,43,67
228560,note_on,80,0,0,,,,,,,,0,,,89,0
228560,note_on,0,0,0,,,,,,,,0,,,92,0
228560,note_on,0,0,0,,,,,,,,0,,,83,66
228640,note_on,80,0,0,,,,,,,,0,,,83,0
228640,note_on,0,0,0,,,,,,,,0,,,80,66
228720,note_on,80,0,0,,,,,,,,0,,,80,0
228720,note_on,0,0,0,,,,,,,,0,,,43,0
228720,note_on,0,0,0,,,,,,,,0,,,91,72
228720,note_on,0,0,0,,,,,,,,0,,,88,60
228720,note_on,0,0,0,,,,,,,,0,,,55,74
228720,note_on,0,0,0,,,,,,,,0,,,47,62
228720,note_on,0,0,0,,,,,,,,0,,,52,62
228727,control_change,7,0,0,,,,,,,,0,64,0,,
228752,control_change,25,0,0,,,,,,,,0,64,127,,
228800,note_on,48,0,0,,,,,,,,0,,,88,0
228800,note_on,0,0,0,,,,,,,,0,,,91,0
228800,note_on,0,0,0,,,,,,,,0,,,83,64
228840,set_tempo,40,1,0,,,,,,561798,,,,,,
228880,note_on,40,0,0,,,,,,,,0,,,83,0
228880,note_on,0,0,0,,,,,,,,0,,,79,64
228960,note_on,80,0,0,,,,,,,,0,,,79,0
228960,note_on,0,0,0,,,,,,,,0,,,47,0
228960,note_on,0,0,0,,,,,,,,0,,,55,0
228960,note_on,0,0,0,,,,,,,,0,,,52,0
228960,note_on,0,0,0,,,,,,,,0,,,79,70
228960,note_on,0,0,0,,,,,,,,0,,,76,59
228960,note_on,0,0,0,,,,,,,,0,,,35,67
229040,note_on,80,0,0,,,,,,,,0,,,76,0
229040,note_on,0,0,0,,,,,,,,0,,,79,0
229040,note_on,0,0,0,,,,,,,,0,,,71,68
229120,note_on,80,0,0,,,,,,,,0,,,71,0
229120,note_on,0,0,0,,,,,,,,0,,,67,62
229200,set_tempo,80,1,0,,,,,,583658,,,,,,
229200,note_on,0,0,0,,,,,,,,0,,,67,0
229200,note_on,0,0,0,,,,,,,,0,,,35,0
229200,note_on,0,0,0,,,,,,,,0,,,77,61
229200,note_on,0,0,0,,,,,,,,0,,,74,44
229200,note_on,0,0,0,,,,,,,,0,,,53,77
229200,note_on,0,0,0,,,,,,,,0,,,47,59
229200,note_on,0,0,0,,,,,,,,0,,,50,64
229206,control_change,6,0,0,,,,,,,,0,64,0,,
229232,control_change,26,0,0,,,,,,,,0,64,127,,
229280,note_on,48,0,0,,,,,,,,0,,,74,0
229280,note_on,0,0,0,,,,,,,,0,,,77,0
229280,note_on,0,0,0,,,,,,,,0,,,68,68
229360,note_on,80,0,0,,,,,,,,0,,,68,0
229360,note_on,0,0,0,,,,,,,,0,,,67,63
229440,note_on,80,0,0,,,,,,,,0,,,67,0
229440,note_on,0,0,0,,,,,,,,0,,,47,0
229440,note_on,0,0,0,,,,,,,,0,,,53,0
229440,note_on,0,0,0,,,,,,,,0,,,50,0
229440,note_on,0,0,0,,,,,,,,0,,,65,62
229440,note_on,0,0,0,,,,,,,,0,,,62,52
229440,note_on,0,0,0,,,,,,,,0,,,43,69
229520,note_on,80,0,0,,,,,,,,0,,,62,0
229520,note_on,0,0,0,,,,,,,,0,,,65,0
229520,note_on,0,0,0,,,,,,,,0,,,56,61
229600,note_on,80,0,0,,,,,,,,0,,,56,0
229600,note_on,0,0,0,,,,,,,,0,,,55,59
229619,set_tempo,19,1,0,,,,,,847458,,,,,,
229680,set_tempo,61,1,0,,,,,,636943,,,,,,
229680,note_on,0,0,0,,,,,,,,0,,,55,0
229680,note_on,0,0,0,,,,,,,,0,,,43,0
229680,note_on,0,0,0,,,,,,,,0,,,60,63
229680,note_on,0,0,0,,,,,,,,0,,,64,75
229680,note_on,0,0,0,,,,,,,,0,,,52,71
229680,note_on,0,0,0,,,,,,,,0,,,36,63
229691,control_change,11,0,0,,,,,,,,0,64,0,,
229752,set_tempo,61,1,0,,,,,,537634,,,,,,
229800,note_on,48,0,0,,,,,,,,0,,,36,0
229800,note_on,0,0,0,,,,,,,,0,,,60,0
229800,note_on,0,0,0,,,,,,,,0,,,64,0
229800,note_on,0,0,0,,,,,,,,0,,,52,0
229880,set_tempo,80,1,0,,,,,,532860,,,,,,
229920,note_on,40,0,0,,,,,,,,0,,,71,53
229920,note_on,0,0,0,,,,,,,,0,,,65,53
229920,note_on,0,0,0,,,,,,,,0,,,62,45
229920,note_on,0,0,0,,,,,,,,0,,,53,38
229920,note_on,0,0,0,,,,,,,,0,,,56,38
230000,note_on,80,0,0,,,,,,,,0,,,72,52
230008,set_tempo,8,1,0,,,,,,528169,,,,,,
230010,note_on,2,0,0,,,,,,,,0,,,71,0
230040,note_on,30,0,0,,,,,,,,0,,,56,0
230040,note_on,0,0,0,,,,,,,,0,,,53,0
230040,note_on,0,0,0,,,,,,,,0,,,62,0
230080,note_on,40,0,0,,,,,,,,0,,,74,53
230090,note_on,10,0,0,,,,,,,,0,,,72,0
230136,set_tempo,46,1,0,,,,,,523560,,,,,,
230160,note_on,24,0,0,,,,,,,,0,,,65,0
230160,note_on,0,0,0,,,,,,,,0,,,76,55
230160,note_on,0,0,0,,,,,,,,0,,,72,55
230160,note_on,0,0,0,,,,,,,,0,,,64,47
230160,note_on,0,0,0,,,,,,,,0,,,55,39
230160,note_on,0,0,0,,,,,,,,0,,,60,39
230170,note_on,10,0,0,,,,,,,,0,,,74,0
230240,note_on,70,0,0,,,,,,,,0,,,77,56
230250,note_on,10,0,0,,,,,,,,0,,,76,0
230264,set_tempo,14,1,0,,,,,,519031,,,,,,
230280,note_on,16,0,0,,,,,,,,0,,,64,0
230280,note_on,0,0,0,,,,,,,,0,,,55,0
230280,note_on,0,0,0,,,,,,,,0,,,60,0
230320,note_on,40,0,0,,,,,,,,0,,,79,57
230330,note_on,10,0,0,,,,,,,,0,,,77,0
230392,set_tempo,62,1,0,,,,,,514580,,,,,,
230400,note_on,8,0,0,,,,,,,,0,,,72,0
230400,note_on,0,0,0,,,,,,,,0,,,83,58
230400,note_on,0,0,0,,,,,,,,0,,,77,58
230400,note_on,0,0,0,,,,,,,,0,,,68,40
230400,note_on,0,0,0,,,,,,,,0,,,74,48
230400,note_on,0,0,0,,,,,,,,0,,,65,40
230410,note_on,10,0,0,,,,,,,,0,,,79,0
230480,note_on,70,0,0,,,,,,,,0,,,84,59
230490,note_on,10,0,0,,,,,,,,0,,,83,0
230520,set_tempo,30,1,0,,,,,,510204,,,,,,
230520,note_on,0,0,0,,,,,,,,0,,,68,0
230520,note_on,0,0,0,,,,,,,,0,,,74,0
230520,note_on,0,0,0,,,,,,,,0,,,65,0
230552,set_tempo,32,1,0,,,,,,505902,,,,,,
230560,note_on,8,0,0,,,,,,,,0,,,86,59
230570,note_on,10,0,0,,,,,,,,0,,,84,0
230584,set_tempo,14,1,0,,,,,,501672,,,,,,
230616,set_tempo,32,1,0,,,,,,497512,,,,,,
230640,note_on,24,0,0,,,,,,,,0,,,77,0
230640,note_on,0,0,0,,,,,,,,0,,,88,60
230640,note_on,0,0,0,,,,,,,,0,,,84,60
230640,note_on,0,0,0,,,,,,,,0,,,76,49
230640,note_on,0,0,0,,,,,,,,0,,,67,41
230640,note_on,0,0,0,,,,,,,,0,,,72,41
230648,set_tempo,8,1,0,,,,,,493421,,,,,,
230650,note_on,2,0,0,,,,,,,,0,,,86,0
230680,set_tempo,30,1,0,,,,,,485437,,,,,,
230712,set_tempo,32,1,0,,,,,,481541,,,,,,
230720,note_on,8,0,0,,,,,,,,0,,,89,61
230730,note_on,10,0,0,,,,,,,,0,,,88,0
230744,set_tempo,14,1,0,,,,,,477707,,,,,,
230760,note_on,16,0,0,,,,,,,,0,,,76,0
230760,note_on,0,0,0,,,,,,,,0,,,67,0
230760,note_on,0,0,0,,,,,,,,0,,,72,0
230776,set_tempo,16,1,0,,,,,,473934,,,,,,
230800,note_on,24,0,0,,,,,,,,0,,,91,62
230808,set_tempo,8,1,0,,,,,,466563,,,,,,
230810,note_on,2,0,0,,,,,,,,0,,,89,0
230880,note_on,70,0,0,,,,,,,,0,,,84,0
230880,note_on,0,0,0,,,,,,,,0,,,95,62
230880,note_on,0,0,0,,,,,,,,0,,,89,62
230880,note_on,0,0,0,,,,,,,,0,,,86,51
230880,note_on,0,0,0,,,,,,,,0,,,80,42
230880,note_on,0,0,0,,,,,,,,0,,,77,42
230890,note_on,10,0,0,,,,,,,,0,,,91,0
230910,set_tempo,20,1,0,,,,,,475436,,,,,,
230950,set_tempo,40,1,0,,,,,,479233,,,,,,
230960,note_on,10,0,0,,,,,,,,0,,,96,63
230970,note_on,10,0,0,,,,,,,,0,,,95,0
230990,set_tempo,20,1,0,,,,,,483092,,,,,,
231000,note_on,10,0,0,,,,,,,,0,,,86,0
231000,note_on,0,0,0,,,,,,,,0,,,80,0
231000,note_on,0,0,0,,,,,,,,0,,,77,0
231010,set_tempo,10,1,0,,,,,,487013,,,,,,
231040,note_on,30,0,0,,,,,,,,0,,,98,64
231050,set_tempo,10,1,0,,,,,,490998,,,,,,
231050,note_on,0,0,0,,,,,,,,0,,,96,0
231090,set_tempo,40,1,0,,,,,,495050,,,,,,
231120,set_tempo,30,1,0,,,,,,619835,,,,,,
231120,note_on,0,0,0,,,,,,,,0,,,89,0
231120,note_on,0,0,0,,,,,,,,0,,,100,66
231120,note_on,0,0,0,,,,,,,,0,,,96,66
231120,note_on,0,0,0,,,,,,,,0,,,91,66
231120,note_on,0,0,0,,,,,,,,0,,,88,53
231120,note_on,0,0,0,,,,,,,,0,,,79,45
231120,note_on,0,0,0,,,,,,,,0,,,84,45
231130,note_on,10,0,0,,,,,,,,0,,,98,0
231143,control_change,13,0,0,,,,,,,,0,64,127,,
231240,note_on,97,0,0,,,,,,,,0,,,79,0
231240,note_on,0,0,0,,,,,,,,0,,,96,0
231240,note_on,0,0,0,,,,,,,,0,,,91,0
231240,note_on,0,0,0,,,,,,,,0,,,100,0
231240,note_on,0,0,0,,,,,,,,0,,,84,0
231240,note_on,0,0,0,,,,,,,,0,,,88,0
231279,control_change,39,0,0,,,,,,,,0,64,0,,
231360,set_tempo,81,1,0,,,,,,535714,,,,,,
231360,note_on,0,0,0,,,,,,,,0,,,60,67
231360,note_on,0,0,0,,,,,,,,0,,,48,61
231396,control_change,36,0,0,,,,,,,,0,64,127,,
231440,note_on,44,0,0,,,,,,,,0,,,48,0
231440,note_on,0,0,0,,,,,,,,0,,,60,0
231440,note_on,0,0,0,,,,,,,,0,,,62,70
231440,note_on,0,0,0,,,,,,,,0,,,50,66
231480,set_tempo,40,1,0,,,,,,540541,,,,,,
231520,note_on,40,0,0,,,,,,,,0,,,50,0
231520,note_on,0,0,0,,,,,,,,0,,,62,0
231520,note_on,0,0,0,,,,,,,,0,,,64,71
231520,note_on,0,0,0,,,,,,,,0,,,52,69
231600,set_tempo,80,1,0,,,,,,606061,,,,,,
231600,note_on,0,0,0,,,,,,,,0,,,52,0
231600,note_on,0,0,0,,,,,,,,0,,,64,0
231600,note_on,0,0,0,,,,,,,,0,,,65,85
231600,note_on,0,0,0,,,,,,,,0,,,53,74
231600,note_on,0,0,0,,,,,,,,0,,,41,74
231610,control_change,10,0,0,,,,,,,,0,64,0,,
231692,control_change,82,0,0,,,,,,,,0,64,127,,
231720,set_tempo,28,1,0,,,,,,551471,,,,,,
231840,set_tempo,120,1,0,,,,,,546448,,,,,,
231840,note_on,0,0,0,,,,,,,,0,,,41,0
231840,note_on,0,0,0,,,,,,,,0,,,53,0
231840,note_on,0,0,0,,,,,,,,0,,,65,0
231840,note_on,0,0,0,,,,,,,,0,,,89,74
231840,note_on,0,0,0,,,,,,,,0,,,77,62
231840,note_on,0,0,0,,,,,,,,0,,,68,69
231840,note_on,0,0,0,,,,,,,,0,,,62,58
231840,note_on,0,0,0,,,,,,,,0,,,59,58
232080,set_tempo,240,1,0,,,,,,595238,,,,,,
232080,note_on,0,0,0,,,,,,,,0,,,59,0
232080,note_on,0,0,0,,,,,,,,0,,,68,0
232080,note_on,0,0,0,,,,,,,,0,,,89,0
232080,note_on,0,0,0,,,,,,,,0,,,77,0
232080,note_on,0,0,0,,,,,,,,0,,,62,0
232080,note_on,0,0,0,,,,,,,,0,,,83,77
232080,note_on,0,0,0,,,,,,,,0,,,71,64
232080,note_on,0,0,0,,,,,,,,0,,,68,69
232080,note_on,0,0,0,,,,,,,,0,,,62,59
232080,note_on,0,0,0,,,,,,,,0,,,59,59
232320,set_tempo,240,1,0,,,,,,546448,,,,,,
232320,note_on,0,0,0,,,,,,,,0,,,59,0
232320,note_on,0,0,0,,,,,,,,0,,,68,0
232320,note_on,0,0,0,,,,,,,,0,,,83,0
232320,note_on,0,0,0,,,,,,,,0,,,71,0
232320,note_on,0,0,0,,,,,,,,0,,,62,0
232320,note_on,0,0,0,,,,,,,,0,,,59,68
232320,control_change,0,0,0,,,,,,,,0,64,0,,
232320,note_on,0,0,0,,,,,,,,0,,,35,60
232320,note_on,0,0,0,,,,,,,,0,,,47,72
232373,control_change,53,0,0,,,,,,,,0,64,127,,
232400,note_on,27,0,0,,,,,,,,0,,,59,0
232400,note_on,0,0,0,,,,,,,,0,,,60,71
232440,set_tempo,40,1,0,,,,,,540541,,,,,,
232480,note_on,40,0,0,,,,,,,,0,,,60,0
232480,note_on,0,0,0,,,,,,,,0,,,62,73
232560,set_tempo,80,1,0,,,,,,606061,,,,,,
232560,note_on,0,0,0,,,,,,,,0,,,62,0
232560,note_on,0,0,0,,,,,,,,0,,,47,0
232560,note_on,0,0,0,,,,,,,,0,,,35,0
232560,note_on,0,0,0,,,,,,,,0,,,63,85
232560,note_on,0,0,0,,,,,,,,0,,,51,79
232560,note_on,0,0,0,,,,,,,,0,,,39,79
232570,control_change,10,0,0,,,,,,,,0,64,0,,
232641,control_change,71,0,0,,,,,,,,0,64,127,,
232680,set_tempo,39,1,0,,,,,,541516,,,,,,
232800,set_tempo,120,1,0,,,,,,530973,,,,,,
232800,note_on,0,0,0,,,,,,,,0,,,39,0
232800,note_on,0,0,0,,,,,,,,0,,,51,0
232800,note_on,0,0,0,,,,,,,,0,,,63,0
232800,note_on,0,0,0,,,,,,,,0,,,87,77
232800,note_on,0,0,0,,,,,,,,0,,,75,64
232800,note_on,0,0,0,,,,,,,,0,,,66,69
232800,note_on,0,0,0,,,,,,,,0,,,60,59
232800,note_on,0,0,0,,,,,,,,0,,,57,59
232860,set_tempo,60,1,0,,,,,,541516,,,,,,
233040,set_tempo,180,1,0,,,,,,601202,,,,,,
233040,note_on,0,0,0,,,,,,,,0,,,57,0
233040,note_on,0,0,0,,,,,,,,0,,,66,0
233040,note_on,0,0,0,,,,,,,,0,,,87,0
233040,note_on,0,0,0,,,,,,,,0,,,75,0
233040,note_on,0,0,0,,,,,,,,0,,,60,0
233040,note_on,0,0,0,,,,,,,,0,,,81,78
233040,note_on,0,0,0,,,,,,,,0,,,69,66
233040,note_on,0,0,0,,,,,,,,0,,,66,68
233040,note_on,0,0,0,,,,,,,,0,,,60,58
233040,note_on,0,0,0,,,,,,,,0,,,57,55
233280,set_tempo,240,1,0,,,,,,535714,,,,,,
233280,note_on,0,0,0,,,,,,,,0,,,57,0
233280,note_on,0,0,0,,,,,,,,0,,,66,0
233280,note_on,0,0,0,,,,,,,,0,,,81,0
233280,note_on,0,0,0,,,,,,,,0,,,69,0
233280,note_on,0,0,0,,,,,,,,0,,,60,0
233280,note_on,0,0,0,,,,,,,,0,,,57,69
233280,control_change,0,0,0,,,,,,,,0,64,0,,
233280,note_on,0,0,0,,,,,,,,0,,,33,62
233280,note_on,0,0,0,,,,,,,,0,,,45,74
233337,control_change,57,0,0,,,,,,,,0,64,127,,
233360,note_on,23,0,0,,,,,,,,0,,,57,0
233360,note_on,0,0,0,,,,,,,,0,,,59,72
233400,set_tempo,40,1,0,,,,,,540541,,,,,,
233440,note_on,40,0,0,,,,,,,,0,,,59,0
233440,note_on,0,0,0,,,,,,,,0,,,60,75
233520,set_tempo,80,1,0,,,,,,606061,,,,,,
233520,note_on,0,0,0,,,,,,,,0,,,60,0
233520,note_on,0,0,0,,,,,,,,0,,,45,0
233520,note_on,0,0,0,,,,,,,,0,,,33,0
233520,note_on,0,0,0,,,,,,,,0,,,61,89
233520,note_on,0,0,0,,,,,,,,0,,,49,79
233520,note_on,0,0,0,,,,,,,,0,,,37,79
233531,control_change,11,0,0,,,,,,,,0,64,0,,
233626,control_change,95,0,0,,,,,,,,0,64,127,,
233640,set_tempo,14,1,0,,,,,,536673,,,,,,
233760,set_tempo,120,1,0,,,,,,530973,,,,,,
233760,note_on,0,0,0,,,,,,,,0,,,37,0
233760,note_on,0,0,0,,,,,,,,0,,,49,0
233760,note_on,0,0,0,,,,,,,,0,,,61,0
233760,note_on,0,0,0,,,,,,,,0,,,85,78
233760,note_on,0,0,0,,,,,,,,0,,,73,66
233760,note_on,0,0,0,,,,,,,,0,,,64,71
233760,note_on,0,0,0,,,,,,,,0,,,58,60
233760,note_on,0,0,0,,,,,,,,0,,,55,60
234000,set_tempo,240,1,0,,,,,,576923,,,,,,
234000,note_on,0,0,0,,,,,,,,0,,,55,0
234000,note_on,0,0,0,,,,,,,,0,,,64,0
234000,note_on,0,0,0,,,,,,,,0,,,85,0
234000,note_on,0,0,0,,,,,,,,0,,,73,0
234000,note_on,0,0,0,,,,,,,,0,,,58,0
234000,note_on,0,0,0,,,,,,,,0,,,79,79
234000,note_on,0,0,0,,,,,,,,0,,,67,68
234000,note_on,0,0,0,,,,,,,,0,,,64,72
234000,note_on,0,0,0,,,,,,,,0,,,58,60
234000,note_on,0,0,0,,,,,,,,0,,,55,60
234240,set_tempo,240,1,0,,,,,,555556,,,,,,
234240,note_on,0,0,0,,,,,,,,0,,,55,0
234240,note_on,0,0,0,,,,,,,,0,,,64,0
234240,note_on,0,0,0,,,,,,,,0,,,79,0
234240,note_on,0,0,0,,,,,,,,0,,,67,0
234240,note_on,0,0,0,,,,,,,,0,,,58,0
234240,note_on,0,0,0,,,,,,,,0,,,55,70
234240,control_change,0,0,0,,,,,,,,0,64,0,,
234240,note_on,0,0,0,,,,,,,,0,,,31,63
234240,note_on,0,0,0,,,,,,,,0,,,43,75
234320,note_on,80,0,0,,,,,,,,0,,,55,0
234320,note_on,0,0,0,,,,,,,,0,,,56,74
234335,control_change,15,0,0,,,,,,,,0,64,127,,
234360,set_tempo,25,1,0,,,,,,540541,,,,,,
234400,note_on,40,0,0,,,,,,,,0,,,56,0
234400,note_on,0,0,0,,,,,,,,0,,,58,77
234480,set_tempo,80,1,0,,,,,,606061,,,,,,
234480,note_on,0,0,0,,,,,,,,0,,,58,0
234480,note_on,0,0,0,,,,,,,,0,,,43,0
234480,note_on,0,0,0,,,,,,,,0,,,31,0
234480,note_on,0,0,0,,,,,,,,0,,,59,88
234480,note_on,0,0,0,,,,,,,,0,,,47,83
234480,note_on,0,0,0,,,,,,,,0,,,35,83
234490,control_change,10,0,0,,,,,,,,0,64,0,,
234563,control_change,73,0,0,,,,,,,,0,64,127,,
234600,set_tempo,37,1,0,,,,,,560748,,,,,,
234720,note_on,120,0,0,,,,,,,,0,,,35,0
234720,note_on,0,0,0,,,,,,,,0,,,47,0
234720,note_on,0,0,0,,,,,,,,0,,,59,0
234720,note_on,0,0,0,,,,,,,,0,,,83,79
234720,note_on,0,0,0,,,,,,,,0,,,71,68
234720,note_on,0,0,0,,,,,,,,0,,,62,72
234720,note_on,0,0,0,,,,,,,,0,,,56,61
234720,note_on,0,0,0,,,,,,,,0,,,53,61
234960,set_tempo,240,1,0,,,,,,576923,,,,,,
234960,note_on,0,0,0,,,,,,,,0,,,53,0
234960,note_on,0,0,0,,,,,,,,0,,,62,0
234960,note_on,0,0,0,,,,,,,,0,,,83,0
234960,note_on,0,0,0,,,,,,,,0,,,71,0
234960,note_on,0,0,0,,,,,,,,0,,,56,0
234960,note_on,0,0,0,,,,,,,,0,,,77,81
234960,note_on,0,0,0,,,,,,,,0,,,65,69
234960,note_on,0,0,0,,,,,,,,0,,,62,73
234960,note_on,0,0,0,,,,,,,,0,,,56,62
234960,note_on,0,0,0,,,,,,,,0,,,53,62
235186,set_tempo,226,1,0,,,,,,555556,,,,,,
235200,note_on,14,0,0,,,,,,,,0,,,53,0
235200,note_on,0,0,0,,,,,,,,0,,,62,0
235200,note_on,0,0,0,,,,,,,,0,,,77,0
235200,note_on,0,0,0,,,,,,,,0,,,65,0
235200,note_on,0,0,0,,,,,,,,0,,,56,0
235200,note_on,0,0,0,,,,,,,,0,,,53,71
235200,note_on,0,0,0,,,,,,,,0,,,29,64
235200,note_on,0,0,0,,,,,,,,0,,,41,78
235212,control_change,12,0,0,,,,,,,,0,64,0,,
235257,control_change,45,0,0,,,,,,,,0,64,127,,
235280,note_on,23,0,0,,,,,,,,0,,,53,0
235280,note_on,0,0,0,,,,,,,,0,,,56,75
235282,set_tempo,2,1,0,,,,,,560748,,,,,,
235346,set_tempo,64,1,0,,,,,,566038,,,,,,
235360,note_on,14,0,0,,,,,,,,0,,,56,0
235360,note_on,0,0,0,,,,,,,,0,,,58,78
235440,set_tempo,80,1,0,,,,,,606061,,,,,,
235440,note_on,0,0,0,,,,,,,,0,,,58,0
235440,note_on,0,0,0,,,,,,,,0,,,41,0
235440,note_on,0,0,0,,,,,,,,0,,,29,0
235440,note_on,0,0,0,,,,,,,,0,,,59,91
235440,note_on,0,0,0,,,,,,,,0,,,47,85
235440,note_on,0,0,0,,,,,,,,0,,,35,85
235442,set_tempo,2,1,0,,,,,,618557,,,,,,
235452,control_change,10,0,0,,,,,,,,0,64,0,,
235483,control_change,31,0,0,,,,,,,,0,64,127,,
235560,set_tempo,77,1,0,,,,,,571429,,,,,,
235680,note_on,120,0,0,,,,,,,,0,,,35,0
235680,note_on,0,0,0,,,,,,,,0,,,47,0
235680,note_on,0,0,0,,,,,,,,0,,,59,0
235680,note_on,0,0,0,,,,,,,,0,,,83,81
235680,note_on,0,0,0,,,,,,,,0,,,71,69
235680,note_on,0,0,0,,,,,,,,0,,,62,74
235680,note_on,0,0,0,,,,,,,,0,,,57,62
235680,note_on,0,0,0,,,,,,,,0,,,53,62
235920,set_tempo,240,1,0,,,,,,576923,,,,,,
235920,note_on,0,0,0,,,,,,,,0,,,53,0
235920,note_on,0,0,0,,,,,,,,0,,,62,0
235920,note_on,0,0,0,,,,,,,,0,,,83,0
235920,note_on,0,0,0,,,,,,,,0,,,71,0
235920,note_on,0,0,0,,,,,,,,0,,,57,0
235920,note_on,0,0,0,,,,,,,,0,,,77,83
235920,note_on,0,0,0,,,,,,,,0,,,65,70
235920,note_on,0,0,0,,,,,,,,0,,,62,75
235920,note_on,0,0,0,,,,,,,,0,,,57,63
235920,note_on,0,0,0,,,,,,,,0,,,53,63
236140,set_tempo,220,1,0,,,,,,585366,,,,,,
236146,set_tempo,6,1,0,,,,,,566038,,,,,,
236160,note_on,14,0,0,,,,,,,,0,,,53,0
236160,note_on,0,0,0,,,,,,,,0,,,62,0
236160,note_on,0,0,0,,,,,,,,0,,,77,0
236160,note_on,0,0,0,,,,,,,,0,,,65,0
236160,note_on,0,0,0,,,,,,,,0,,,57,0
236160,note_on,0,0,0,,,,,,,,0,,,53,73
236160,control_change,0,0,0,,,,,,,,0,64,0,,
236160,note_on,0,0,0,,,,,,,,0,,,29,67
236160,note_on,0,0,0,,,,,,,,0,,,41,79
236178,set_tempo,18,1,0,,,,,,571429,,,,,,
236186,control_change,8,0,0,,,,,,,,0,64,127,,
236210,set_tempo,24,1,0,,,,,,576923,,,,,,
236240,note_on,30,0,0,,,,,,,,0,,,53,0
236240,note_on,0,0,0,,,,,,,,0,,,57,78
236242,set_tempo,2,1,0,,,,,,588235,,,,,,
236274,set_tempo,32,1,0,,,,,,594059,,,,,,
236306,set_tempo,32,1,0,,,,,,606061,,,,,,
236320,note_on,14,0,0,,,,,,,,0,,,57,0
236320,note_on,0,0,0,,,,,,,,0,,,58,79
236400,set_tempo,80,1,0,,,,,,606061,,,,,,
236400,note_on,0,0,0,,,,,,,,0,,,58,0
236400,note_on,0,0,0,,,,,,,,0,,,41,0
236400,note_on,0,0,0,,,,,,,,0,,,29,0
236400,note_on,0,0,0,,,,,,,,0,,,59,94
236400,note_on,0,0,0,,,,,,,,0,,,47,86
236400,note_on,0,0,0,,,,,,,,0,,,35,86
236402,set_tempo,2,1,0,,,,,,666667,,,,,,
236413,control_change,11,0,0,,,,,,,,0,64,0,,
236492,control_change,79,0,0,,,,,,,,0,64,127,,
236520,set_tempo,28,1,0,,,,,,595238,,,,,,
236640,note_on,120,0,0,,,,,,,,0,,,35,0
236640,note_on,0,0,0,,,,,,,,0,,,47,0
236640,note_on,0,0,0,,,,,,,,0,,,59,0
236640,note_on,0,0,0,,,,,,,,0,,,83,83
236640,note_on,0,0,0,,,,,,,,0,,,71,70
236640,note_on,0,0,0,,,,,,,,0,,,63,77
236640,note_on,0,0,0,,,,,,,,0,,,57,64
236640,note_on,0,0,0,,,,,,,,0,,,53,64
236880,set_tempo,240,1,0,,,,,,653595,,,,,,
236880,note_on,0,0,0,,,,,,,,0,,,53,0
236880,note_on,0,0,0,,,,,,,,0,,,63,0
236880,note_on,0,0,0,,,,,,,,0,,,83,0
236880,note_on,0,0,0,,,,,,,,0,,,71,0
236880,note_on,0,0,0,,,,,,,,0,,,57,0
236880,note_on,0,0,0,,,,,,,,0,,,77,84
236880,note_on,0,0,0,,,,,,,,0,,,65,71
236880,note_on,0,0,0,,,,,,,,0,,,63,77
236880,note_on,0,0,0,,,,,,,,0,,,57,64
236880,note_on,0,0,0,,,,,,,,0,,,53,64
237120,note_on,240,0,0,,,,,,,,0,,,53,0
237120,note_on,0,0,0,,,,,,,,0,,,63,0
237120,note_on,0,0,0,,,,,,,,0,,,77,0
237120,note_on,0,0,0,,,,,,,,0,,,65,0
237120,note_on,0,0,0,,,,,,,,0,,,57,0
237120,note_on,0,0,0,,,,,,,,0,,,57,92
237120,control_change,0,0,0,,,,,,,,0,64,0,,
237120,note_on,0,0,0,,,,,,,,0,,,45,79
237142,set_tempo,22,1,0,,,,,,666667,,,,,,
237162,set_tempo,20,1,0,,,,,,681818,,,,,,
237182,set_tempo,20,1,0,,,,,,697674,,,,,,
237189,control_change,7,0,0,,,,,,,,0,64,127,,
237200,note_on,11,0,0,,,,,,,,0,,,45,0
237200,note_on,0,0,0,,,,,,,,0,,,57,0
237200,note_on,0,0,0,,,,,,,,0,,,55,95
237200,note_on,0,0,0,,,,,,,,0,,,43,82
237202,set_tempo,2,1,0,,,,,,714286,,,,,,
237222,set_tempo,20,1,0,,,,,,731707,,,,,,
237242,set_tempo,20,1,0,,,,,,750000,,,,,,
237262,set_tempo,20,1,0,,,,,,769231,,,,,,
237280,note_on,18,0,0,,,,,,,,0,,,43,0
237280,note_on,0,0,0,,,,,,,,0,,,55,0
237280,note_on,0,0,0,,,,,,,,0,,,53,99
237280,note_on,0,0,0,,,,,,,,0,,,41,85
237282,set_tempo,2,1,0,,,,,,789474,,,,,,
237302,set_tempo,20,1,0,,,,,,810811,,,,,,
237322,set_tempo,20,1,0,,,,,,833333,,,,,,
237330,set_tempo,8,1,0,,,,,,659341,,,,,,
237360,set_tempo,30,1,0,,,,,,613497,,,,,,
237360,note_on,0,0,0,,,,,,,,0,,,41,0
237360,note_on,0,0,0,,,,,,,,0,,,53,0
237360,note_on,0,0,0,,,,,,,,0,,,52,106
237360,note_on,0,0,0,,,,,,,,0,,,40,89
237372,control_change,12,0,0,,,,,,,,0,64,0,,
237475,control_change,103,0,0,,,,,,,,0,64,127,,
237600,note_on,125,0,0,,,,,,,,0,,,40,0
237600,note_on,0,0,0,,,,,,,,0,,,52,0
237840,set_tempo,240,1,0,,,,,,771208,,,,,,
237840,note_on,0,0,0,,,,,,,,0,,,83,90
237840,note_on,0,0,0,,,,,,,,0,,,81,90
237840,note_on,0,0,0,,,,,,,,0,,,76,77
237840,note_on,0,0,0,,,,,,,,0,,,71,77
237840,note_on,0,0,0,,,,,,,,0,,,64,80
237840,note_on,0,0,0,,,,,,,,0,,,59,80
237840,note_on,0,0,0,,,,,,,,0,,,57,68
237840,note_on,0,0,0,,,,,,,,0,,,52,68
238080,note_on,240,0,0,,,,,,,,0,,,52,0
238080,note_on,0,0,0,,,,,,,,0,,,83,0
238080,note_on,0,0,0,,,,,,,,0,,,64,0
238080,note_on,0,0,0,,,,,,,,0,,,81,0
238080,note_on,0,0,0,,,,,,,,0,,,76,0
238080,note_on,0,0,0,,,,,,,,0,,,71,0
238080,note_on,0,0,0,,,,,,,,0,,,59,0
238080,note_on,0,0,0,,,,,,,,0,,,57,0
238320,set_tempo,240,1,0,,,,,,724638,,,,,,
238320,note_on,0,0,0,,,,,,,,0,,,64,96
238320,note_on,0,0,0,,,,,,,,0,,,52,89
238320,note_on,0,0,0,,,,,,,,0,,,40,74
238335,control_change,15,0,0,,,,,,,,0,64,0,,
238492,control_change,157,0,0,,,,,,,,0,64,127,,
238560,note_on,68,0,0,,,,,,,,0,,,40,0
238560,note_on,0,0,0,,,,,,,,0,,,52,0
238560,note_on,0,0,0,,,,,,,,0,,,64,0
238800,set_tempo,240,1,0,,,,,,884956,,,,,,
238800,note_on,0,0,0,,,,,,,,0,,,88,89
238800,note_on,0,0,0,,,,,,,,0,,,83,89
238800,note_on,0,0,0,,,,,,,,0,,,80,75
238800,note_on,0,0,0,,,,,,,,0,,,76,75
238800,note_on,0,0,0,,,,,,,,0,,,64,80
238800,note_on,0,0,0,,,,,,,,0,,,59,80
238800,note_on,0,0,0,,,,,,,,0,,,56,68
238800,note_on,0,0,0,,,,,,,,0,,,52,68
239040,note_on,240,0,0,,,,,,,,0,,,52,0
239040,note_on,0,0,0,,,,,,,,0,,,88,0
239040,note_on,0,0,0,,,,,,,,0,,,64,0
239040,note_on,0,0,0,,,,,,,,0,,,83,0
239040,note_on,0,0,0,,,,,,,,0,,,80,0
239040,note_on,0,0,0,,,,,,,,0,,,76,0
239040,note_on,0,0,0,,,,,,,,0,,,59,0
239040,note_on,0,0,0,,,,,,,,0,,,56,0
239280,set_tempo,240,1,0,,,,,,543478,,,,,,
239280,note_on,0,0,0,,,,,,,,0,,,45,88
239280,note_on,0,0,0,,,,,,,,0,,,33,73
239280,note_on,0,0,0,,,,,,,,0,,,36,73
239283,note_on,3,0,0,,,,,,,,0,,,40,73
239287,control_change,4,0,0,,,,,,,,0,64,0,,
239297,control_change,10,0,0,,,,,,,,0,64,0,,
239299,set_tempo,2,1,0,,,,,,561798,,,,,,
239330,control_change,31,0,0,,,,,,,,0,64,127,,
239360,note_on,30,0,0,,,,,,,,0,,,52,59
239400,set_tempo,40,1,0,,,,,,538600,,,,,,
239440,note_on,40,0,0,,,,,,,,0,,,52,0
239440,note_on,0,0,0,,,,,,,,0,,,57,59
239520,note_on,80,0,0,,,,,,,,0,,,57,0
239520,note_on,0,0,0,,,,,,,,0,,,36,0
239520,note_on,0,0,0,,,,,,,,0,,,45,0
239520,note_on,0,0,0,,,,,,,,0,,,33,0
239520,note_on,0,0,0,,,,,,,,0,,,64,69
239520,note_on,0,0,0,,,,,,,,0,,,60,69
239523,note_on,3,0,0,,,,,,,,0,,,40,0
239592,note_on,69,0,0,,,,,,,,0,,,60,0
239592,note_on,0,0,0,,,,,,,,0,,,64,0
239600,note_on,8,0,0,,,,,,,,0,,,64,59
239640,note_on,40,0,0,,,,,,,,0,,,57,78
239680,note_on,40,0,0,,,,,,,,0,,,64,0
239680,note_on,0,0,0,,,,,,,,0,,,69,59
239760,set_tempo,80,1,0,,,,,,524476,,,,,,
239760,note_on,0,0,0,,,,,,,,0,,,69,0
239760,note_on,0,0,0,,,,,,,,0,,,57,0
239760,note_on,0,0,0,,,,,,,,0,,,76,71
239760,note_on,0,0,0,,,,,,,,0,,,72,60
239760,note_on,0,0,0,,,,,,,,0,,,57,82
239832,note_on,72,0,0,,,,,,,,0,,,72,0
239832,note_on,0,0,0,,,,,,,,0,,,76,0
239840,note_on,8,0,0,,,,,,,,0,,,76,62
239880,note_on,40,0,0,,,,,,,,0,,,57,0
239880,note_on,0,0,0,,,,,,,,0,,,60,79
239920,note_on,40,0,0,,,,,,,,0,,,76,0
239920,note_on,0,0,0,,,,,,,,0,,,81,62
240000,note_on,80,0,0,,,,,,,,0,,,81,0
240000,note_on,0,0,0,,,,,,,,0,,,60,0
240000,note_on,0,0,0,,,,,,,,0,,,88,74
240000,note_on,0,0,0,,,,,,,,0,,,84,62
240000,note_on,0,0,0,,,,,,,,0,,,59,83
240072,note_on,72,0,0,,,,,,,,0,,,84,0
240072,note_on,0,0,0,,,,,,,,0,,,88,0
240080,note_on,8,0,0,,,,,,,,0,,,88,66
240120,set_tempo,40,1,0,,,,,,585938,,,,,,
240120,note_on,0,0,0,,,,,,,,0,,,59,0
240120,note_on,0,0,0,,,,,,,,0,,,57,79
240160,note_on,40,0,0,,,,,,,,0,,,88,0
240160,note_on,0,0,0,,,,,,,,0,,,93,66
240240,set_tempo,80,1,0,,,,,,563910,,,,,,
240240,note_on,0,0,0,,,,,,,,0,,,93,0
240240,note_on,0,0,0,,,,,,,,0,,,57,0
240240,note_on,0,0,0,,,,,,,,0,,,100,72
240240,note_on,0,0,0,,,,,,,,0,,,96,60
240240,note_on,0,0,0,,,,,,,,0,,,64,85
240247,control_change,7,0,0,,,,,,,,0,64,0,,
240290,control_change,43,0,0,,,,,,,,0,64,127,,
240320,note_on,30,0,0,,,,,,,,0,,,96,0
240320,note_on,0,0,0,,,,,,,,0,,,100,0
240320,note_on,0,0,0,,,,,,,,0,,,93,64
240360,set_tempo,40,1,0,,,,,,538600,,,,,,
240400,note_on,40,0,0,,,,,,,,0,,,93,0
240400,note_on,0,0,0,,,,,,,,0,,,88,64
240472,note_on,72,0,0,,,,,,,,0,,,88,0
240480,note_on,8,0,0,,,,,,,,0,,,64,0
240480,note_on,0,0,0,,,,,,,,0,,,88,70
240480,note_on,0,0,0,,,,,,,,0,,,84,59
240560,note_on,80,0,0,,,,,,,,0,,,84,0
240560,note_on,0,0,0,,,,,,,,0,,,88,0
240560,note_on,0,0,0,,,,,,,,0,,,81,66
240600,note_on,40,0,0,,,,,,,,0,,,40,80
240640,note_on,40,0,0,,,,,,,,0,,,81,0
240640,note_on,0,0,0,,,,,,,,0,,,76,62
240712,note_on,72,0,0,,,,,,,,0,,,76,0
240720,set_tempo,8,1,0,,,,,,558659,,,,,,
240720,note_on,0,0,0,,,,,,,,0,,,40,0
240720,note_on,0,0,0,,,,,,,,0,,,76,61
240720,note_on,0,0,0,,,,,,,,0,,,72,44
240720,note_on,0,0,0,,,,,,,,0,,,40,85
240726,control_change,6,0,0,,,,,,,,0,64,0,,
240780,control_change,54,0,0,,,,,,,,0,64,127,,
240800,note_on,20,0,0,,,,,,,,0,,,72,0
240800,note_on,0,0,0,,,,,,,,0,,,76,0
240800,note_on,0,0,0,,,,,,,,0,,,69,68
240840,note_on,40,0,0,,,,,,,,0,,,40,0
240840,note_on,0,0,0,,,,,,,,0,,,43,80
240880,note_on,40,0,0,,,,,,,,0,,,69,0
240880,note_on,0,0,0,,,,,,,,0,,,64,63
240952,note_on,72,0,0,,,,,,,,0,,,64,0
240960,set_tempo,8,1,0,,,,,,572519,,,,,,
240960,note_on,0,0,0,,,,,,,,0,,,43,0
240960,note_on,0,0,0,,,,,,,,0,,,64,62
240960,note_on,0,0,0,,,,,,,,0,,,60,52
240960,note_on,0,0,0,,,,,,,,0,,,41,86
240990,set_tempo,30,1,0,,,,,,578035,,,,,,
241005,set_tempo,15,1,0,,,,,,583658,,,,,,
241020,set_tempo,15,1,0,,,,,,589391,,,,,,
241035,set_tempo,15,1,0,,,,,,595238,,,,,,
241040,note_on,5,0,0,,,,,,,,0,,,60,0
241040,note_on,0,0,0,,,,,,,,0,,,64,0
241040,note_on,0,0,0,,,,,,,,0,,,57,61
241050,set_tempo,10,1,0,,,,,,601202,,,,,,
241065,set_tempo,15,1,0,,,,,,607287,,,,,,
241080,note_on,15,0,0,,,,,,,,0,,,41,0
241080,note_on,0,0,0,,,,,,,,0,,,40,80
241095,set_tempo,15,1,0,,,,,,613497,,,,,,
241110,set_tempo,15,1,0,,,,,,619835,,,,,,
241120,note_on,10,0,0,,,,,,,,0,,,57,0
241120,note_on,0,0,0,,,,,,,,0,,,52,59
241125,set_tempo,5,1,0,,,,,,626305,,,,,,
241140,set_tempo,15,1,0,,,,,,632911,,,,,,
241155,set_tempo,15,1,0,,,,,,639659,,,,,,
241170,set_tempo,15,1,0,,,,,,646552,,,,,,
241200,set_tempo,30,1,0,,,,,,543478,,,,,,
241200,note_on,0,0,0,,,,,,,,0,,,52,0
241200,note_on,0,0,0,,,,,,,,0,,,40,0
241200,note_on,0,0,0,,,,,,,,0,,,45,88
241200,note_on,0,0,0,,,,,,,,0,,,33,73
241200,note_on,0,0,0,,,,,,,,0,,,37,73
241203,note_on,3,0,0,,,,,,,,0,,,40,73
241205,control_change,2,0,0,,,,,,,,0,64,0,,
241219,set_tempo,14,1,0,,,,,,561798,,,,,,
241257,control_change,38,0,0,,,,,,,,0,64,127,,
241280,note_on,23,0,0,,,,,,,,0,,,52,59
241320,set_tempo,40,1,0,,,,,,538600,,,,,,
241360,note_on,40,0,0,,,,,,,,0,,,52,0
241360,note_on,0,0,0,,,,,,,,0,,,57,59
241440,set_tempo,80,1,0,,,,,,529101,,,,,,
241440,note_on,0,0,0,,,,,,,,0,,,57,0
241440,note_on,0,0,0,,,,,,,,0,,,37,0
241440,note_on,0,0,0,,,,,,,,0,,,45,0
241440,note_on,0,0,0,,,,,,,,0,,,33,0
241440,note_on,0,0,0,,,,,,,,0,,,64,69
241440,note_on,0,0,0,,,,,,,,0,,,61,69
241443,note_on,3,0,0,,,,,,,,0,,,40,0
241512,note_on,69,0,0,,,,,,,,0,,,61,0
241512,note_on,0,0,0,,,,,,,,0,,,64,0
241520,note_on,8,0,0,,,,,,,,0,,,64,59
241560,note_on,40,0,0,,,,,,,,0,,,57,79
241600,note_on,40,0,0,,,,,,,,0,,,64,0
241600,note_on,0,0,0,,,,,,,,0,,,69,59
241680,note_on,80,0,0,,,,,,,,0,,,69,0
241680,note_on,0,0,0,,,,,,,,0,,,57,0
241680,note_on,0,0,0,,,,,,,,0,,,76,71
241680,note_on,0,0,0,,,,,,,,0,,,73,60
241680,note_on,0,0,0,,,,,,,,0,,,57,83
241752,note_on,72,0,0,,,,,,,,0,,,73,0
241752,note_on,0,0,0,,,,,,,,0,,,76,0
241760,note_on,8,0,0,,,,,,,,0,,,76,62
241800,note_on,40,0,0,,,,,,,,0,,,57,0
241800,note_on,0,0,0,,,,,,,,0,,,60,78
241840,note_on,40,0,0,,,,,,,,0,,,76,0
241840,note_on,0,0,0,,,,,,,,0,,,81,62
241920,note_on,80,0,0,,,,,,,,0,,,81,0
241920,note_on,0,0,0,,,,,,,,0,,,60,0
241920,note_on,0,0,0,,,,,,,,0,,,88,74
241920,note_on,0,0,0,,,,,,,,0,,,85,62
241920,note_on,0,0,0,,,,,,,,0,,,58,82
241992,note_on,72,0,0,,,,,,,,0,,,85,0
241992,note_on,0,0,0,,,,,,,,0,,,88,0
242000,note_on,8,0,0,,,,,,,,0,,,88,66
242040,set_tempo,40,1,0,,,,,,569260,,,,,,
242040,note_on,0,0,0,,,,,,,,0,,,58,0
242040,note_on,0,0,0,,,,,,,,0,,,57,79
242080,note_on,40,0,0,,,,,,,,0,,,88,0
242080,note_on,0,0,0,,,,,,,,0,,,93,66
242160,note_on,80,0,0,,,,,,,,0,,,93,0
242160,note_on,0,0,0,,,,,,,,0,,,57,0
242160,note_on,0,0,0,,,,,,,,0,,,100,72
242160,note_on,0,0,0,,,,,,,,0,,,97,60
242160,note_on,0,0,0,,,,,,,,0,,,67,83
242169,control_change,9,0,0,,,,,,,,0,64,0,,
242203,control_change,34,0,0,,,,,,,,0,64,127,,
242240,note_on,37,0,0,,,,,,,,0,,,97,0
242240,note_on,0,0,0,,,,,,,,0,,,100,0
242240,note_on,0,0,0,,,,,,,,0,,,93,64
242280,set_tempo,40,1,0,,,,,,543478,,,,,,
242320,note_on,40,0,0,,,,,,,,0,,,93,0
242320,note_on,0,0,0,,,,,,,,0,,,88,64
242392,note_on,72,0,0,,,,,,,,0,,,88,0
242400,note_on,8,0,0,,,,,,,,0,,,67,0
242400,note_on,0,0,0,,,,,,,,0,,,88,70
242400,note_on,0,0,0,,,,,,,,0,,,85,59
242480,note_on,80,0,0,,,,,,,,0,,,85,0
242480,note_on,0,0,0,,,,,,,,0,,,88,0
242480,note_on,0,0,0,,,,,,,,0,,,81,66
242520,note_on,40,0,0,,,,,,,,0,,,45,81
242560,note_on,40,0,0,,,,,,,,0,,,81,0
242560,note_on,0,0,0,,,,,,,,0,,,76,62
242632,note_on,72,0,0,,,,,,,,0,,,76,0
242640,set_tempo,8,1,0,,,,,,583658,,,,,,
242640,note_on,0,0,0,,,,,,,,0,,,45,0
242640,note_on,0,0,0,,,,,,,,0,,,76,61
242640,note_on,0,0,0,,,,,,,,0,,,73,44
242640,note_on,0,0,0,,,,,,,,0,,,45,86
242648,control_change,8,0,0,,,,,,,,0,64,0,,
242700,control_change,52,0,0,,,,,,,,0,64,127,,
242720,note_on,20,0,0,,,,,,,,0,,,73,0
242720,note_on,0,0,0,,,,,,,,0,,,76,0
242720,note_on,0,0,0,,,,,,,,0,,,69,68
242760,set_tempo,40,1,0,,,,,,558659,,,,,,
242760,note_on,0,0,0,,,,,,,,0,,,45,0
242760,note_on,0,0,0,,,,,,,,0,,,48,81
242800,note_on,40,0,0,,,,,,,,0,,,69,0
242800,note_on,0,0,0,,,,,,,,0,,,64,63
242865,set_tempo,65,1,0,,,,,,567108,,,,,,
242872,note_on,7,0,0,,,,,,,,0,,,64,0
242880,note_on,8,0,0,,,,,,,,0,,,48,0
242880,note_on,0,0,0,,,,,,,,0,,,64,62
242880,note_on,0,0,0,,,,,,,,0,,,61,52
242880,note_on,0,0,0,,,,,,,,0,,,46,86
242895,set_tempo,15,1,0,,,,,,572519,,,,,,
242925,set_tempo,30,1,0,,,,,,578035,,,,,,
242955,set_tempo,30,1,0,,,,,,583658,,,,,,
242960,note_on,5,0,0,,,,,,,,0,,,61,0
242960,note_on,0,0,0,,,,,,,,0,,,64,0
242960,note_on,0,0,0,,,,,,,,0,,,57,61
242985,set_tempo,25,1,0,,,,,,589391,,,,,,
243000,set_tempo,15,1,0,,,,,,595238,,,,,,
243000,note_on,0,0,0,,,,,,,,0,,,46,0
243000,note_on,0,0,0,,,,,,,,0,,,45,79
243030,set_tempo,30,1,0,,,,,,601202,,,,,,
243040,note_on,10,0,0,,,,,,,,0,,,57,0
243040,note_on,0,0,0,,,,,,,,0,,,52,59
243060,set_tempo,20,1,0,,,,,,607287,,,,,,
243090,set_tempo,30,1,0,,,,,,613497,,,,,,
243105,set_tempo,15,1,0,,,,,,619835,,,,,,
243120,set_tempo,15,1,0,,,,,,543478,,,,,,
243120,note_on,0,0,0,,,,,,,,0,,,52,0
243120,note_on,0,0,0,,,,,,,,0,,,45,0
243120,note_on,0,0,0,,,,,,,,0,,,45,73
243120,note_on,0,0,0,,,,,,,,0,,,50,88
243120,note_on,0,0,0,,,,,,,,0,,,38,73
243120,note_on,0,0,0,,,,,,,,0,,,41,73
243127,control_change,7,0,0,,,,,,,,0,64,0,,
243139,set_tempo,12,1,0,,,,,,561798,,,,,,
243198,control_change,59,0,0,,,,,,,,0,64,127,,
243200,note_on,2,0,0,,,,,,,,0,,,53,59
243280,note_on,80,0,0,,,,,,,,0,,,53,0
243280,note_on,0,0,0,,,,,,,,0,,,57,59
243360,note_on,80,0,0,,,,,,,,0,,,57,0
243360,note_on,0,0,0,,,,,,,,0,,,41,0
243360,note_on,0,0,0,,,,,,,,0,,,45,0
243360,note_on,0,0,0,,,,,,,,0,,,50,0
243360,note_on,0,0,0,,,,,,,,0,,,38,0
243360,note_on,0,0,0,,,,,,,,0,,,65,69
243360,note_on,0,0,0,,,,,,,,0,,,62,69
243432,note_on,72,0,0,,,,,,,,0,,,62,0
243432,note_on,0,0,0,,,,,,,,0,,,65,0
243440,note_on,8,0,0,,,,,,,,0,,,65,59
243480,note_on,40,0,0,,,,,,,,0,,,57,79
243520,note_on,40,0,0,,,,,,,,0,,,65,0
243520,note_on,0,0,0,,,,,,,,0,,,69,59
243600,set_tempo,80,1,0,,,,,,541516,,,,,,
243600,note_on,0,0,0,,,,,,,,0,,,69,0
243600,note_on,0,0,0,,,,,,,,0,,,57,0
243600,note_on,0,0,0,,,,,,,,0,,,77,71
243600,note_on,0,0,0,,,,,,,,0,,,74,60
243600,note_on,0,0,0,,,,,,,,0,,,57,83
243672,note_on,72,0,0,,,,,,,,0,,,74,0
243672,note_on,0,0,0,,,,,,,,0,,,77,0
243680,note_on,8,0,0,,,,,,,,0,,,77,62
243720,set_tempo,40,1,0,,,,,,524476,,,,,,
243720,note_on,0,0,0,,,,,,,,0,,,57,0
243720,note_on,0,0,0,,,,,,,,0,,,60,77
243760,note_on,40,0,0,,,,,,,,0,,,77,0
243760,note_on,0,0,0,,,,,,,,0,,,81,62
243840,note_on,80,0,0,,,,,,,,0,,,81,0
243840,note_on,0,0,0,,,,,,,,0,,,60,0
243840,note_on,0,0,0,,,,,,,,0,,,89,74
243840,note_on,0,0,0,,,,,,,,0,,,86,62
243840,note_on,0,0,0,,,,,,,,0,,,58,82
243912,note_on,72,0,0,,,,,,,,0,,,86,0
243912,note_on,0,0,0,,,,,,,,0,,,89,0
243920,note_on,8,0,0,,,,,,,,0,,,89,66
243960,note_on,40,0,0,,,,,,,,0,,,58,0
243960,note_on,0,0,0,,,,,,,,0,,,57,73
244000,note_on,40,0,0,,,,,,,,0,,,89,0
244000,note_on,0,0,0,,,,,,,,0,,,93,66
244080,note_on,80,0,0,,,,,,,,0,,,93,0
244080,note_on,0,0,0,,,,,,,,0,,,57,0
244080,note_on,0,0,0,,,,,,,,0,,,101,72
244080,note_on,0,0,0,,,,,,,,0,,,98,60
244080,note_on,0,0,0,,,,,,,,0,,,65,85
244087,control_change,7,0,0,,,,,,,,0,64,0,,
244116,control_change,29,0,0,,,,,,,,0,64,127,,
244160,note_on,44,0,0,,,,,,,,0,,,98,0
244160,note_on,0,0,0,,,,,,,,0,,,101,0
244160,note_on,0,0,0,,,,,,,,0,,,93,64
244200,set_tempo,40,1,0,,,,,,543478,,,,,,
244240,note_on,40,0,0,,,,,,,,0,,,93,0
244240,note_on,0,0,0,,,,,,,,0,,,89,64
244312,note_on,72,0,0,,,,,,,,0,,,89,0
244320,note_on,8,0,0,,,,,,,,0,,,65,0
244320,note_on,0,0,0,,,,,,,,0,,,89,70
244320,note_on,0,0,0,,,,,,,,0,,,86,59
244400,note_on,80,0,0,,,,,,,,0,,,86,0
244400,note_on,0,0,0,,,,,,,,0,,,89,0
244400,note_on,0,0,0,,,,,,,,0,,,81,66
244440,note_on,40,0,0,,,,,,,,0,,,38,81
244480,note_on,40,0,0,,,,,,,,0,,,81,0
244480,note_on,0,0,0,,,,,,,,0,,,77,62
244552,note_on,72,0,0,,,,,,,,0,,,77,0
244560,set_tempo,8,1,0,,,,,,563910,,,,,,
244560,note_on,0,0,0,,,,,,,,0,,,38,0
244560,note_on,0,0,0,,,,,,,,0,,,77,61
244560,note_on,0,0,0,,,,,,,,0,,,74,44
244560,note_on,0,0,0,,,,,,,,0,,,38,89
244562,control_change,2,0,0,,,,,,,,0,64,0,,
244606,control_change,44,0,0,,,,,,,,0,64,127,,
244640,note_on,34,0,0,,,,,,,,0,,,74,0
244640,note_on,0,0,0,,,,,,,,0,,,77,0
244640,note_on,0,0,0,,,,,,,,0,,,69,68
244680,note_on,40,0,0,,,,,,,,0,,,38,0
244680,note_on,0,0,0,,,,,,,,0,,,37,82
244720,note_on,40,0,0,,,,,,,,0,,,69,0
244720,note_on,0,0,0,,,,,,,,0,,,65,63
244792,note_on,72,0,0,,,,,,,,0,,,65,0
244800,note_on,8,0,0,,,,,,,,0,,,37,0
244800,note_on,0,0,0,,,,,,,,0,,,65,64
244800,note_on,0,0,0,,,,,,,,0,,,62,64
244800,note_on,0,0,0,,,,,,,,0,,,38,88
244880,note_on,80,0,0,,,,,,,,0,,,62,0
244880,note_on,0,0,0,,,,,,,,0,,,65,0
244880,note_on,0,0,0,,,,,,,,0,,,57,64
244920,note_on,40,0,0,,,,,,,,0,,,38,0
244920,note_on,0,0,0,,,,,,,,0,,,40,80
244960,note_on,40,0,0,,,,,,,,0,,,57,0
244960,note_on,0,0,0,,,,,,,,0,,,53,67
245040,set_tempo,80,1,0,,,,,,527241,,,,,,
245040,note_on,0,0,0,,,,,,,,0,,,53,0
245040,note_on,0,0,0,,,,,,,,0,,,40,0
245040,note_on,0,0,0,,,,,,,,0,,,53,89
245040,note_on,0,0,0,,,,,,,,0,,,41,74
245050,control_change,10,0,0,,,,,,,,0,64,0,,
245155,control_change,105,0,0,,,,,,,,0,64,127,,
245280,set_tempo,125,1,0,,,,,,583658,,,,,,
245280,note_on,0,0,0,,,,,,,,0,,,83,85
245280,note_on,0,0,0,,,,,,,,0,,,71,71
245280,note_on,0,0,0,,,,,,,,0,,,74,71
245280,note_on,0,0,0,,,,,,,,0,,,65,80
245280,note_on,0,0,0,,,,,,,,0,,,56,68
245280,note_on,0,0,0,,,,,,,,0,,,62,68
245520,set_tempo,240,1,0,,,,,,541516,,,,,,
245520,note_on,0,0,0,,,,,,,,0,,,62,0
245520,note_on,0,0,0,,,,,,,,0,,,53,0
245520,note_on,0,0,0,,,,,,,,0,,,74,0
245520,note_on,0,0,0,,,,,,,,0,,,41,0
245520,note_on,0,0,0,,,,,,,,0,,,83,0
245520,note_on,0,0,0,,,,,,,,0,,,71,0
245520,note_on,0,0,0,,,,,,,,0,,,65,0
245520,note_on,0,0,0,,,,,,,,0,,,56,0
245520,note_on,0,0,0,,,,,,,,0,,,56,89
245520,note_on,0,0,0,,,,,,,,0,,,44,75
245760,set_tempo,240,1,0,,,,,,589391,,,,,,
245760,note_on,0,0,0,,,,,,,,0,,,86,85
245760,note_on,0,0,0,,,,,,,,0,,,74,71
245760,note_on,0,0,0,,,,,,,,0,,,77,71
245760,note_on,0,0,0,,,,,,,,0,,,68,81
245760,note_on,0,0,0,,,,,,,,0,,,65,69
245760,note_on,0,0,0,,,,,,,,0,,,59,69
246000,set_tempo,240,1,0,,,,,,546448,,,,,,
246000,note_on,0,0,0,,,,,,,,0,,,59,0
246000,note_on,0,0,0,,,,,,,,0,,,56,0
246000,note_on,0,0,0,,,,,,,,0,,,77,0
246000,note_on,0,0,0,,,,,,,,0,,,44,0
246000,note_on,0,0,0,,,,,,,,0,,,86,0
246000,note_on,0,0,0,,,,,,,,0,,,74,0
246000,note_on,0,0,0,,,,,,,,0,,,68,0
246000,note_on,0,0,0,,,,,,,,0,,,65,0
246000,note_on,0,0,0,,,,,,,,0,,,59,89
246000,note_on,0,0,0,,,,,,,,0,,,47,74
246015,control_change,15,0,0,,,,,,,,0,64,0,,
246172,control_change,157,0,0,,,,,,,,0,64,127,,
246240,set_tempo,68,1,0,,,,,,563910,,,,,,
246240,note_on,0,0,0,,,,,,,,0,,,89,85
246240,note_on,0,0,0,,,,,,,,0,,,77,71
246240,note_on,0,0,0,,,,,,,,0,,,80,71
246240,note_on,0,0,0,,,,,,,,0,,,71,80
246240,note_on,0,0,0,,,,,,,,0,,,68,68
246240,note_on,0,0,0,,,,,,,,0,,,62,68
246480,set_tempo,240,1,0,,,,,,529101,,,,,,
246480,note_on,0,0,0,,,,,,,,0,,,62,0
246480,note_on,0,0,0,,,,,,,,0,,,59,0
246480,note_on,0,0,0,,,,,,,,0,,,80,0
246480,note_on,0,0,0,,,,,,,,0,,,47,0
246480,note_on,0,0,0,,,,,,,,0,,,89,0
246480,note_on,0,0,0,,,,,,,,0,,,77,0
246480,note_on,0,0,0,,,,,,,,0,,,71,0
246480,note_on,0,0,0,,,,,,,,0,,,68,0
246480,note_on,0,0,0,,,,,,,,0,,,52,90
246480,note_on,0,0,0,,,,,,,,0,,,40,77
246720,set_tempo,240,1,0,,,,,,619835,,,,,,
246720,note_on,0,0,0,,,,,,,,0,,,88,85
246720,note_on,0,0,0,,,,,,,,0,,,76,71
246720,note_on,0,0,0,,,,,,,,0,,,80,71
246720,note_on,0,0,0,,,,,,,,0,,,64,83
246720,note_on,0,0,0,,,,,,,,0,,,59,70
246720,note_on,0,0,0,,,,,,,,0,,,56,70
246960,set_tempo,240,1,0,,,,,,543478,,,,,,
246960,note_on,0,0,0,,,,,,,,0,,,56,0
246960,note_on,0,0,0,,,,,,,,0,,,52,0
246960,note_on,0,0,0,,,,,,,,0,,,80,0
246960,note_on,0,0,0,,,,,,,,0,,,40,0
246960,note_on,0,0,0,,,,,,,,0,,,88,0
246960,note_on,0,0,0,,,,,,,,0,,,76,0
246960,note_on,0,0,0,,,,,,,,0,,,64,0
246960,note_on,0,0,0,,,,,,,,0,,,59,0
246960,note_on,0,0,0,,,,,,,,0,,,45,88
246960,note_on,0,0,0,,,,,,,,0,,,33,73
246960,note_on,0,0,0,,,,,,,,0,,,36,73
246963,note_on,3,0,0,,,,,,,,0,,,40,73
246968,control_change,5,0,0,,,,,,,,0,64,0,,
246977,control_change,9,0,0,,,,,,,,0,64,0,,
246979,set_tempo,2,1,0,,,,,,561798,,,,,,
247010,control_change,31,0,0,,,,,,,,0,64,127,,
247040,note_on,30,0,0,,,,,,,,0,,,52,59
247080,set_tempo,40,1,0,,,,,,538600,,,,,,
247120,note_on,40,0,0,,,,,,,,0,,,52,0
247120,note_on,0,0,0,,,,,,,,0,,,57,59
247200,note_on,80,0,0,,,,,,,,0,,,57,0
247200,note_on,0,0,0,,,,,,,,0,,,36,0
247200,note_on,0,0,0,,,,,,,,0,,,45,0
247200,note_on,0,0,0,,,,,,,,0,,,33,0
247200,note_on,0,0,0,,,,,,,,0,,,64,69
247200,note_on,0,0,0,,,,,,,,0,,,60,69
247203,note_on,3,0,0,,,,,,,,0,,,40,0
247272,note_on,69,0,0,,,,,,,,0,,,60,0
247272,note_on,0,0,0,,,,,,,,0,,,64,0
247280,note_on,8,0,0,,,,,,,,0,,,64,59
247320,note_on,40,0,0,,,,,,,,0,,,57,79
247360,note_on,40,0,0,,,,,,,,0,,,64,0
247360,note_on,0,0,0,,,,,,,,0,,,69,59
247440,set_tempo,80,1,0,,,,,,524476,,,,,,
247440,note_on,0,0,0,,,,,,,,0,,,69,0
247440,note_on,0,0,0,,,,,,,,0,,,57,0
247440,note_on,0,0,0,,,,,,,,0,,,76,71
247440,note_on,0,0,0,,,,,,,,0,,,72,60
247440,note_on,0,0,0,,,,,,,,0,,,57,84
247512,note_on,72,0,0,,,,,,,,0,,,72,0
247512,note_on,0,0,0,,,,,,,,0,,,76,0
247520,note_on,8,0,0,,,,,,,,0,,,76,62
247560,note_on,40,0,0,,,,,,,,0,,,57,0
247560,note_on,0,0,0,,,,,,,,0,,,60,79
247600,note_on,40,0,0,,,,,,,,0,,,76,0
247600,note_on,0,0,0,,,,,,,,0,,,81,62
247680,note_on,80,0,0,,,,,,,,0,,,81,0
247680,note_on,0,0,0,,,,,,,,0,,,60,0
247680,note_on,0,0,0,,,,,,,,0,,,88,74
247680,note_on,0,0,0,,,,,,,,0,,,84,62
247680,note_on,0,0,0,,,,,,,,0,,,59,86
247752,note_on,72,0,0,,,,,,,,0,,,84,0
247752,note_on,0,0,0,,,,,,,,0,,,88,0
247760,note_on,8,0,0,,,,,,,,0,,,88,66
247800,set_tempo,40,1,0,,,,,,558659,,,,,,
247800,note_on,0,0,0,,,,,,,,0,,,59,0
247800,note_on,0,0,0,,,,,,,,0,,,57,79
247840,note_on,40,0,0,,,,,,,,0,,,88,0
247840,note_on,0,0,0,,,,,,,,0,,,93,66
247920,set_tempo,80,1,0,,,,,,543478,,,,,,
247920,note_on,0,0,0,,,,,,,,0,,,93,0
247920,note_on,0,0,0,,,,,,,,0,,,57,0
247920,note_on,0,0,0,,,,,,,,0,,,100,72
247920,note_on,0,0,0,,,,,,,,0,,,96,60
247920,note_on,0,0,0,,,,,,,,0,,,64,88
247928,control_change,8,0,0,,,,,,,,0,64,0,,
247963,control_change,35,0,0,,,,,,,,0,64,127,,
248000,note_on,37,0,0,,,,,,,,0,,,96,0
248000,note_on,0,0,0,,,,,,,,0,,,100,0
248000,note_on,0,0,0,,,,,,,,0,,,93,64
248040,set_tempo,40,1,0,,,,,,538600,,,,,,
248080,note_on,40,0,0,,,,,,,,0,,,93,0
248080,note_on,0,0,0,,,,,,,,0,,,88,64
248152,note_on,72,0,0,,,,,,,,0,,,88,0
248160,note_on,8,0,0,,,,,,,,0,,,64,0
248160,note_on,0,0,0,,,,,,,,0,,,88,70
248160,note_on,0,0,0,,,,,,,,0,,,84,59
248240,note_on,80,0,0,,,,,,,,0,,,84,0
248240,note_on,0,0,0,,,,,,,,0,,,88,0
248240,note_on,0,0,0,,,,,,,,0,,,81,66
248280,note_on,40,0,0,,,,,,,,0,,,40,80
248320,note_on,40,0,0,,,,,,,,0,,,81,0
248320,note_on,0,0,0,,,,,,,,0,,,76,62
248392,note_on,72,0,0,,,,,,,,0,,,76,0
248400,set_tempo,8,1,0,,,,,,558659,,,,,,
248400,note_on,0,0,0,,,,,,,,0,,,40,0
248400,note_on,0,0,0,,,,,,,,0,,,76,61
248400,note_on,0,0,0,,,,,,,,0,,,72,44
248400,note_on,0,0,0,,,,,,,,0,,,40,85
248404,control_change,4,0,0,,,,,,,,0,64,0,,
248460,control_change,56,0,0,,,,,,,,0,64,127,,
248480,note_on,20,0,0,,,,,,,,0,,,72,0
248480,note_on,0,0,0,,,,,,,,0,,,76,0
248480,note_on,0,0,0,,,,,,,,0,,,69,68
248520,note_on,40,0,0,,,,,,,,0,,,40,0
248520,note_on,0,0,0,,,,,,,,0,,,43,80
248560,note_on,40,0,0,,,,,,,,0,,,69,0
248560,note_on,0,0,0,,,,,,,,0,,,64,63
248632,note_on,72,0,0,,,,,,,,0,,,64,0
248640,set_tempo,8,1,0,,,,,,556586,,,,,,
248640,note_on,0,0,0,,,,,,,,0,,,43,0
248640,note_on,0,0,0,,,,,,,,0,,,64,62
248640,note_on,0,0,0,,,,,,,,0,,,60,52
248640,note_on,0,0,0,,,,,,,,0,,,41,86
248670,set_tempo,30,1,0,,,,,,561798,,,,,,
248685,set_tempo,15,1,0,,,,,,567108,,,,,,
248700,set_tempo,15,1,0,,,,,,572519,,,,,,
248715,set_tempo,15,1,0,,,,,,578035,,,,,,
248720,note_on,5,0,0,,,,,,,,0,,,60,0
248720,note_on,0,0,0,,,,,,,,0,,,64,0
248720,note_on,0,0,0,,,,,,,,0,,,57,61
248745,set_tempo,25,1,0,,,,,,583658,,,,,,
248760,set_tempo,15,1,0,,,,,,589391,,,,,,
248760,note_on,0,0,0,,,,,,,,0,,,41,0
248760,note_on,0,0,0,,,,,,,,0,,,40,80
248775,set_tempo,15,1,0,,,,,,595238,,,,,,
248790,set_tempo,15,1,0,,,,,,601202,,,,,,
248800,note_on,10,0,0,,,,,,,,0,,,57,0
248800,note_on,0,0,0,,,,,,,,0,,,52,59
248820,set_tempo,20,1,0,,,,,,607287,,,,,,
248835,set_tempo,15,1,0,,,,,,613497,,,,,,
248850,set_tempo,15,1,0,,,,,,619835,,,,,,
248865,set_tempo,15,1,0,,,,,,626305,,,,,,
248880,set_tempo,15,1,0,,,,,,543478,,,,,,
248880,note_on,0,0,0,,,,,,,,0,,,52,0
248880,note_on,0,0,0,,,,,,,,0,,,40,0
248880,note_on,0,0,0,,,,,,,,0,,,45,88
248880,note_on,0,0,0,,,,,,,,0,,,33,73
248880,note_on,0,0,0,,,,,,,,0,,,37,73
248883,note_on,3,0,0,,,,,,,,0,,,40,73
248885,control_change,2,0,0,,,,,,,,0,64,0,,
248899,set_tempo,14,1,0,,,,,,561798,,,,,,
248937,control_change,38,0,0,,,,,,,,0,64,127,,
248960,note_on,23,0,0,,,,,,,,0,,,52,59
249000,set_tempo,40,1,0,,,,,,538600,,,,,,
249040,note_on,40,0,0,,,,,,,,0,,,52,0
249040,note_on,0,0,0,,,,,,,,0,,,57,59
249120,set_tempo,80,1,0,,,,,,529101,,,,,,
249120,note_on,0,0,0,,,,,,,,0,,,57,0
249120,note_on,0,0,0,,,,,,,,0,,,37,0
249120,note_on,0,0,0,,,,,,,,0,,,45,0
249120,note_on,0,0,0,,,,,,,,0,,,33,0
249120,note_on,0,0,0,,,,,,,,0,,,64,69
249120,note_on,0,0,0,,,,,,,,0,,,61,69
249123,note_on,3,0,0,,,,,,,,0,,,40,0
249192,note_on,69,0,0,,,,,,,,0,,,61,0
249192,note_on,0,0,0,,,,,,,,0,,,64,0
249200,note_on,8,0,0,,,,,,,,0,,,64,59
249240,note_on,40,0,0,,,,,,,,0,,,57,79
249280,note_on,40,0,0,,,,,,,,0,,,64,0
249280,note_on,0,0,0,,,,,,,,0,,,69,59
249360,note_on,80,0,0,,,,,,,,0,,,69,0
249360,note_on,0,0,0,,,,,,,,0,,,57,0
249360,note_on,0,0,0,,,,,,,,0,,,76,71
249360,note_on,0,0,0,,,,,,,,0,,,73,60
249360,note_on,0,0,0,,,,,,,,0,,,57,83
249432,note_on,72,0,0,,,,,,,,0,,,73,0
249432,note_on,0,0,0,,,,,,,,0,,,76,0
249440,note_on,8,0,0,,,,,,,,0,,,76,62
249480,note_on,40,0,0,,,,,,,,0,,,57,0
249480,note_on,0,0,0,,,,,,,,0,,,60,79
249520,note_on,40,0,0,,,,,,,,0,,,76,0
249520,note_on,0,0,0,,,,,,,,0,,,81,62
249600,note_on,80,0,0,,,,,,,,0,,,81,0
249600,note_on,0,0,0,,,,,,,,0,,,60,0
249600,note_on,0,0,0,,,,,,,,0,,,88,74
249600,note_on,0,0,0,,,,,,,,0,,,85,62
249600,note_on,0,0,0,,,,,,,,0,,,58,82
249672,note_on,72,0,0,,,,,,,,0,,,85,0
249672,note_on,0,0,0,,,,,,,,0,,,88,0
249680,note_on,8,0,0,,,,,,,,0,,,88,66
249720,set_tempo,40,1,0,,,,,,569260,,,,,,
249720,note_on,0,0,0,,,,,,,,0,,,58,0
249720,note_on,0,0,0,,,,,,,,0,,,57,78
249760,note_on,40,0,0,,,,,,,,0,,,88,0
249760,note_on,0,0,0,,,,,,,,0,,,93,66
249840,note_on,80,0,0,,,,,,,,0,,,93,0
249840,note_on,0,0,0,,,,,,,,0,,,57,0
249840,note_on,0,0,0,,,,,,,,0,,,100,72
249840,note_on,0,0,0,,,,,,,,0,,,97,60
249840,note_on,0,0,0,,,,,,,,0,,,67,84
249853,control_change,13,0,0,,,,,,,,0,64,0,,
249900,control_change,47,0,0,,,,,,,,0,64,127,,
249920,note_on,20,0,0,,,,,,,,0,,,97,0
249920,note_on,0,0,0,,,,,,,,0,,,100,0
249920,note_on,0,0,0,,,,,,,,0,,,93,64
249960,set_tempo,40,1,0,,,,,,543478,,,,,,
250000,note_on,40,0,0,,,,,,,,0,,,93,0
250000,note_on,0,0,0,,,,,,,,0,,,88,64
250072,note_on,72,0,0,,,,,,,,0,,,88,0
250080,note_on,8,0,0,,,,,,,,0,,,67,0
250080,note_on,0,0,0,,,,,,,,0,,,88,70
250080,note_on,0,0,0,,,,,,,,0,,,85,59
250160,note_on,80,0,0,,,,,,,,0,,,85,0
250160,note_on,0,0,0,,,,,,,,0,,,88,0
250160,note_on,0,0,0,,,,,,,,0,,,81,66
250200,note_on,40,0,0,,,,,,,,0,,,45,81
250240,note_on,40,0,0,,,,,,,,0,,,81,0
250240,note_on,0,0,0,,,,,,,,0,,,76,62
250312,note_on,72,0,0,,,,,,,,0,,,76,0
250320,set_tempo,8,1,0,,,,,,583658,,,,,,
250320,note_on,0,0,0,,,,,,,,0,,,45,0
250320,note_on,0,0,0,,,,,,,,0,,,76,61
250320,note_on,0,0,0,,,,,,,,0,,,73,44
250320,note_on,0,0,0,,,,,,,,0,,,45,86
250326,control_change,6,0,0,,,,,,,,0,64,0,,
250363,control_change,37,0,0,,,,,,,,0,64,127,,
250400,note_on,37,0,0,,,,,,,,0,,,73,0
250400,note_on,0,0,0,,,,,,,,0,,,76,0
250400,note_on,0,0,0,,,,,,,,0,,,69,68
250440,set_tempo,40,1,0,,,,,,558659,,,,,,
250440,note_on,0,0,0,,,,,,,,0,,,45,0
250440,note_on,0,0,0,,,,,,,,0,,,48,81
250480,note_on,40,0,0,,,,,,,,0,,,69,0
250480,note_on,0,0,0,,,,,,,,0,,,64,63
250552,note_on,72,0,0,,,,,,,,0,,,64,0
250560,set_tempo,8,1,0,,,,,,595238,,,,,,
250560,note_on,0,0,0,,,,,,,,0,,,48,0
250560,note_on,0,0,0,,,,,,,,0,,,64,62
250560,note_on,0,0,0,,,,,,,,0,,,61,52
250560,note_on,0,0,0,,,,,,,,0,,,46,86
250575,set_tempo,15,1,0,,,,,,589391,,,,,,
250605,set_tempo,30,1,0,,,,,,595238,,,,,,
250635,set_tempo,30,1,0,,,,,,601202,,,,,,
250640,note_on,5,0,0,,,,,,,,0,,,61,0
250640,note_on,0,0,0,,,,,,,,0,,,64,0
250640,note_on,0,0,0,,,,,,,,0,,,57,61
250650,set_tempo,10,1,0,,,,,,607287,,,,,,
250680,set_tempo,30,1,0,,,,,,613497,,,,,,
250680,note_on,0,0,0,,,,,,,,0,,,46,0
250680,note_on,0,0,0,,,,,,,,0,,,45,79
250710,set_tempo,30,1,0,,,,,,619835,,,,,,
250720,note_on,10,0,0,,,,,,,,0,,,57,0
250720,note_on,0,0,0,,,,,,,,0,,,52,59
250725,set_tempo,5,1,0,,,,,,626305,,,,,,
250755,set_tempo,30,1,0,,,,,,632911,,,,,,
250785,set_tempo,30,1,0,,,,,,639659,,,,,,
250800,set_tempo,15,1,0,,,,,,646552,,,,,,
250800,set_tempo,0,1,0,,,,,,543478,,,,,,
250800,note_on,0,0,0,,,,,,,,0,,,52,0
250800,note_on,0,0,0,,,,,,,,0,,,45,0
250800,note_on,0,0,0,,,,,,,,0,,,45,73
250800,note_on,0,0,0,,,,,,,,0,,,50,88
250800,note_on,0,0,0,,,,,,,,0,,,38,73
250800,note_on,0,0,0,,,,,,,,0,,,41,73
250807,control_change,7,0,0,,,,,,,,0,64,0,,
250819,set_tempo,12,1,0,,,,,,561798,,,,,,
250878,control_change,59,0,0,,,,,,,,0,64,127,,
250880,note_on,2,0,0,,,,,,,,0,,,53,59
250960,note_on,80,0,0,,,,,,,,0,,,53,0
250960,note_on,0,0,0,,,,,,,,0,,,57,59
251040,note_on,80,0,0,,,,,,,,0,,,57,0
251040,note_on,0,0,0,,,,,,,,0,,,41,0
251040,note_on,0,0,0,,,,,,,,0,,,45,0
251040,note_on,0,0,0,,,,,,,,0,,,50,0
251040,note_on,0,0,0,,,,,,,,0,,,38,0
251040,note_on,0,0,0,,,,,,,,0,,,65,69
251040,note_on,0,0,0,,,,,,,,0,,,62,69
251112,note_on,72,0,0,,,,,,,,0,,,62,0
251112,note_on,0,0,0,,,,,,,,0,,,65,0
251120,note_on,8,0,0,,,,,,,,0,,,65,59
251160,note_on,40,0,0,,,,,,,,0,,,57,80
251200,note_on,40,0,0,,,,,,,,0,,,65,0
251200,note_on,0,0,0,,,,,,,,0,,,69,59
251280,set_tempo,80,1,0,,,,,,541516,,,,,,
251280,note_on,0,0,0,,,,,,,,0,,,69,0
251280,note_on,0,0,0,,,,,,,,0,,,57,0
251280,note_on,0,0,0,,,,,,,,0,,,77,71
251280,note_on,0,0,0,,,,,,,,0,,,74,60
251280,note_on,0,0,0,,,,,,,,0,,,57,83
251352,note_on,72,0,0,,,,,,,,0,,,74,0
251352,note_on,0,0,0,,,,,,,,0,,,77,0
251360,note_on,8,0,0,,,,,,,,0,,,77,62
251400,set_tempo,40,1,0,,,,,,524476,,,,,,
251400,note_on,0,0,0,,,,,,,,0,,,57,0
251400,note_on,0,0,0,,,,,,,,0,,,60,79
251440,note_on,40,0,0,,,,,,,,0,,,77,0
251440,note_on,0,0,0,,,,,,,,0,,,81,62
251520,note_on,80,0,0,,,,,,,,0,,,81,0
251520,note_on,0,0,0,,,,,,,,0,,,60,0
251520,note_on,0,0,0,,,,,,,,0,,,89,74
251520,note_on,0,0,0,,,,,,,,0,,,86,62
251520,note_on,0,0,0,,,,,,,,0,,,58,83
251592,note_on,72,0,0,,,,,,,,0,,,86,0
251592,note_on,0,0,0,,,,,,,,0,,,89,0
251600,note_on,8,0,0,,,,,,,,0,,,89,66
251640,set_tempo,40,1,0,,,,,,569260,,,,,,
251640,note_on,0,0,0,,,,,,,,0,,,58,0
251640,note_on,0,0,0,,,,,,,,0,,,57,77
251680,note_on,40,0,0,,,,,,,,0,,,89,0
251680,note_on,0,0,0,,,,,,,,0,,,93,66
251760,set_tempo,80,1,0,,,,,,538600,,,,,,
251760,note_on,0,0,0,,,,,,,,0,,,93,0
251760,note_on,0,0,0,,,,,,,,0,,,57,0
251760,note_on,0,0,0,,,,,,,,0,,,101,72
251760,note_on,0,0,0,,,,,,,,0,,,98,60
251760,note_on,0,0,0,,,,,,,,0,,,65,82
251770,control_change,10,0,0,,,,,,,,0,64,0,,
251813,control_change,43,0,0,,,,,,,,0,64,127,,
251840,note_on,27,0,0,,,,,,,,0,,,98,0
251840,note_on,0,0,0,,,,,,,,0,,,101,0
251840,note_on,0,0,0,,,,,,,,0,,,93,64
251880,set_tempo,40,1,0,,,,,,543478,,,,,,
251920,note_on,40,0,0,,,,,,,,0,,,93,0
251920,note_on,0,0,0,,,,,,,,0,,,89,64
251992,note_on,72,0,0,,,,,,,,0,,,89,0
252000,note_on,8,0,0,,,,,,,,0,,,65,0
252000,note_on,0,0,0,,,,,,,,0,,,89,70
252000,note_on,0,0,0,,,,,,,,0,,,86,59
252080,note_on,80,0,0,,,,,,,,0,,,86,0
252080,note_on,0,0,0,,,,,,,,0,,,89,0
252080,note_on,0,0,0,,,,,,,,0,,,81,66
252120,note_on,40,0,0,,,,,,,,0,,,38,81
252160,note_on,40,0,0,,,,,,,,0,,,81,0
252160,note_on,0,0,0,,,,,,,,0,,,77,62
252232,note_on,72,0,0,,,,,,,,0,,,77,0
252240,set_tempo,8,1,0,,,,,,563910,,,,,,
252240,note_on,0,0,0,,,,,,,,0,,,38,0
252240,note_on,0,0,0,,,,,,,,0,,,77,61
252240,note_on,0,0,0,,,,,,,,0,,,74,44
252240,note_on,0,0,0,,,,,,,,0,,,38,89
252254,control_change,14,0,0,,,,,,,,0,64,0,,
252320,note_on,66,0,0,,,,,,,,0,,,74,0
252320,note_on,0,0,0,,,,,,,,0,,,77,0
252320,note_on,0,0,0,,,,,,,,0,,,69,68
252328,control_change,8,0,0,,,,,,,,0,64,127,,
252360,note_on,32,0,0,,,,,,,,0,,,38,0
252360,note_on,0,0,0,,,,,,,,0,,,37,82
252400,note_on,40,0,0,,,,,,,,0,,,69,0
252400,note_on,0,0,0,,,,,,,,0,,,65,63
252472,note_on,72,0,0,,,,,,,,0,,,65,0
252480,note_on,8,0,0,,,,,,,,0,,,37,0
252480,note_on,0,0,0,,,,,,,,0,,,65,64
252480,note_on,0,0,0,,,,,,,,0,,,62,64
252480,note_on,0,0,0,,,,,,,,0,,,38,88
252490,set_tempo,10,1,0,,,,,,583658,,,,,,
252560,note_on,70,0,0,,,,,,,,0,,,62,0
252560,note_on,0,0,0,,,,,,,,0,,,65,0
252560,note_on,0,0,0,,,,,,,,0,,,57,64
252600,note_on,40,0,0,,,,,,,,0,,,38,0
252600,note_on,0,0,0,,,,,,,,0,,,40,80
252640,note_on,40,0,0,,,,,,,,0,,,57,0
252640,note_on,0,0,0,,,,,,,,0,,,53,67
252720,set_tempo,80,1,0,,,,,,543478,,,,,,
252720,note_on,0,0,0,,,,,,,,0,,,53,0
252720,note_on,0,0,0,,,,,,,,0,,,40,0
252720,note_on,0,0,0,,,,,,,,0,,,53,89
252720,note_on,0,0,0,,,,,,,,0,,,41,74
252730,control_change,10,0,0,,,,,,,,0,64,0,,
252835,control_change,105,0,0,,,,,,,,0,64,127,,
252960,set_tempo,125,1,0,,,,,,563910,,,,,,
252960,note_on,0,0,0,,,,,,,,0,,,83,85
252960,note_on,0,0,0,,,,,,,,0,,,71,71
252960,note_on,0,0,0,,,,,,,,0,,,74,71
252960,note_on,0,0,0,,,,,,,,0,,,65,80
252960,note_on,0,0,0,,,,,,,,0,,,56,68
252960,note_on,0,0,0,,,,,,,,0,,,62,68
253197,note_on,237,0,0,,,,,,,,0,,,56,0
253200,set_tempo,3,1,0,,,,,,538600,,,,,,
253200,note_on,0,0,0,,,,,,,,0,,,53,0
253200,note_on,0,0,0,,,,,,,,0,,,74,0
253200,note_on,0,0,0,,,,,,,,0,,,41,0
253200,note_on,0,0,0,,,,,,,,0,,,83,0
253200,note_on,0,0,0,,,,,,,,0,,,71,0
253200,note_on,0,0,0,,,,,,,,0,,,65,0
253200,note_on,0,0,0,,,,,,,,0,,,62,0
253200,note_on,0,0,0,,,,,,,,0,,,56,89
253200,note_on,0,0,0,,,,,,,,0,,,44,75
253440,set_tempo,240,1,0,,,,,,580271,,,,,,
253440,note_on,0,0,0,,,,,,,,0,,,86,85
253440,note_on,0,0,0,,,,,,,,0,,,74,71
253440,note_on,0,0,0,,,,,,,,0,,,77,71
253440,note_on,0,0,0,,,,,,,,0,,,68,81
253440,note_on,0,0,0,,,,,,,,0,,,65,69
253440,note_on,0,0,0,,,,,,,,0,,,59,69
253677,note_on,237,0,0,,,,,,,,0,,,59,0
253680,set_tempo,3,1,0,,,,,,616016,,,,,,
253680,note_on,0,0,0,,,,,,,,0,,,56,0
253680,note_on,0,0,0,,,,,,,,0,,,77,0
253680,note_on,0,0,0,,,,,,,,0,,,44,0
253680,note_on,0,0,0,,,,,,,,0,,,86,0
253680,note_on,0,0,0,,,,,,,,0,,,74,0
253680,note_on,0,0,0,,,,,,,,0,,,68,0
253680,note_on,0,0,0,,,,,,,,0,,,65,0
253680,note_on,0,0,0,,,,,,,,0,,,59,89
253680,note_on,0,0,0,,,,,,,,0,,,47,74
253695,control_change,15,0,0,,,,,,,,0,64,0,,
253852,control_change,157,0,0,,,,,,,,0,64,127,,
253920,set_tempo,68,1,0,,,,,,656455,,,,,,
253920,note_on,0,0,0,,,,,,,,0,,,89,85
253920,note_on,0,0,0,,,,,,,,0,,,77,71
253920,note_on,0,0,0,,,,,,,,0,,,80,71
253920,note_on,0,0,0,,,,,,,,0,,,71,80
253920,note_on,0,0,0,,,,,,,,0,,,68,68
253920,note_on,0,0,0,,,,,,,,0,,,62,68
254160,set_tempo,240,1,0,,,,,,707547,,,,,,
254160,note_on,0,0,0,,,,,,,,0,,,62,0
254160,note_on,0,0,0,,,,,,,,0,,,59,0
254160,note_on,0,0,0,,,,,,,,0,,,80,0
254160,note_on,0,0,0,,,,,,,,0,,,47,0
254160,note_on,0,0,0,,,,,,,,0,,,89,0
254160,note_on,0,0,0,,,,,,,,0,,,77,0
254160,note_on,0,0,0,,,,,,,,0,,,71,0
254160,note_on,0,0,0,,,,,,,,0,,,68,0
254160,note_on,0,0,0,,,,,,,,0,,,52,90
254160,note_on,0,0,0,,,,,,,,0,,,40,77
254400,set_tempo,240,1,0,,,,,,859599,,,,,,
254400,note_on,0,0,0,,,,,,,,0,,,88,85
254400,note_on,0,0,0,,,,,,,,0,,,76,71
254400,note_on,0,0,0,,,,,,,,0,,,80,71
254400,note_on,0,0,0,,,,,,,,0,,,64,83
254400,note_on,0,0,0,,,,,,,,0,,,59,70
254400,note_on,0,0,0,,,,,,,,0,,,56,70
254640,key_signature,240,1,0,,,,,A,,,,,,,
254640,set_tempo,0,1,0,,,,,,2205882,,,,,,
254640,note_on,0,0,0,,,,,,,,0,,,56,0
254640,note_on,0,0,0,,,,,,,,0,,,52,0
254640,note_on,0,0,0,,,,,,,,0,,,80,0
254640,note_on,0,0,0,,,,,,,,0,,,40,0
254640,note_on,0,0,0,,,,,,,,0,,,88,0
254640,note_on,0,0,0,,,,,,,,0,,,76,0
254640,note_on,0,0,0,,,,,,,,0,,,64,0
254640,note_on,0,0,0,,,,,,,,0,,,59,0
254640,note_on,0,0,0,,,,,,,,0,,,45,97
254640,note_on,0,0,0,,,,,,,,0,,,33,88
254640,control_change,0,0,0,,,,,,,,0,64,0,,
254679,control_change,39,0,0,,,,,,,,0,64,127,,
254699,set_tempo,20,1,0,,,,,,697674,,,,,,
254719,set_tempo,20,1,0,,,,,,666667,,,,,,
254720,note_on,1,0,0,,,,,,,,0,,,49,67
254720,note_on,0,0,0,,,,,,,,0,,,37,61
254739,set_tempo,19,1,0,,,,,,638298,,,,,,
254759,set_tempo,20,1,0,,,,,,606061,,,,,,
254779,set_tempo,20,1,0,,,,,,582524,,,,,,
254799,set_tempo,20,1,0,,,,,,555556,,,,,,
254800,note_on,1,0,0,,,,,,,,0,,,37,0
254800,note_on,0,0,0,,,,,,,,0,,,49,0
254800,note_on,0,0,0,,,,,,,,0,,,52,69
254800,note_on,0,0,0,,,,,,,,0,,,40,62
254868,set_tempo,68,1,0,,,,,,580271,,,,,,
254880,note_on,12,0,0,,,,,,,,0,,,40,0
254880,note_on,0,0,0,,,,,,,,0,,,52,0
254880,note_on,0,0,0,,,,,,,,0,,,57,69
254880,note_on,0,0,0,,,,,,,,0,,,45,63
254960,note_on,80,0,0,,,,,,,,0,,,45,0
254960,note_on,0,0,0,,,,,,,,0,,,57,0
254960,note_on,0,0,0,,,,,,,,0,,,61,71
254960,note_on,0,0,0,,,,,,,,0,,,49,63
254996,set_tempo,36,1,0,,,,,,574713,,,,,,
255040,note_on,44,0,0,,,,,,,,0,,,49,0
255040,note_on,0,0,0,,,,,,,,0,,,61,0
255040,note_on,0,0,0,,,,,,,,0,,,64,72
255040,note_on,0,0,0,,,,,,,,0,,,52,64
255120,note_on,80,0,0,,,,,,,,0,,,52,0
255120,note_on,0,0,0,,,,,,,,0,,,64,0
255120,note_on,0,0,0,,,,,,,,0,,,69,74
255120,note_on,0,0,0,,,,,,,,0,,,57,66
255124,set_tempo,4,1,0,,,,,,569260,,,,,,
255200,note_on,76,0,0,,,,,,,,0,,,57,0
255200,note_on,0,0,0,,,,,,,,0,,,69,0
255200,note_on,0,0,0,,,,,,,,0,,,73,77
255200,note_on,0,0,0,,,,,,,,0,,,61,67
255252,set_tempo,52,1,0,,,,,,563910,,,,,,
255280,note_on,28,0,0,,,,,,,,0,,,61,0
255280,note_on,0,0,0,,,,,,,,0,,,73,0
255280,note_on,0,0,0,,,,,,,,0,,,76,78
255280,note_on,0,0,0,,,,,,,,0,,,64,68
255360,note_on,80,0,0,,,,,,,,0,,,64,0
255360,note_on,0,0,0,,,,,,,,0,,,76,0
255360,note_on,0,0,0,,,,,,,,0,,,81,79
255360,note_on,0,0,0,,,,,,,,0,,,69,69
255380,set_tempo,20,1,0,,,,,,558659,,,,,,
255440,note_on,60,0,0,,,,,,,,0,,,69,0
255440,note_on,0,0,0,,,,,,,,0,,,81,0
255440,note_on,0,0,0,,,,,,,,0,,,85,80
255440,note_on,0,0,0,,,,,,,,0,,,73,69
255508,set_tempo,68,1,0,,,,,,553506,,,,,,
255520,note_on,12,0,0,,,,,,,,0,,,73,0
255520,note_on,0,0,0,,,,,,,,0,,,85,0
255520,note_on,0,0,0,,,,,,,,0,,,88,82
255520,note_on,0,0,0,,,,,,,,0,,,76,69
255540,set_tempo,20,1,0,,,,,,553506,,,,,,
255600,set_tempo,60,1,0,,,,,,680272,,,,,,
255600,note_on,0,0,0,,,,,,,,0,,,76,0
255600,note_on,0,0,0,,,,,,,,0,,,45,0
255600,note_on,0,0,0,,,,,,,,0,,,33,0
255600,note_on,0,0,0,,,,,,,,0,,,88,0
255600,note_on,0,0,0,,,,,,,,0,,,93,95
255600,note_on,0,0,0,,,,,,,,0,,,81,80
255680,set_tempo,80,1,0,,,,,,544465,,,,,,
255680,note_on,0,0,0,,,,,,,,0,,,81,0
255680,note_on,0,0,0,,,,,,,,0,,,93,0
255680,note_on,0,0,0,,,,,,,,0,,,88,84
255680,note_on,0,0,0,,,,,,,,0,,,76,70
255760,note_on,80,0,0,,,,,,,,0,,,76,0
255760,note_on,0,0,0,,,,,,,,0,,,88,0
255760,note_on,0,0,0,,,,,,,,0,,,85,84
255760,note_on,0,0,0,,,,,,,,0,,,73,70
255796,set_tempo,36,1,0,,,,,,563910,,,,,,
255840,note_on,44,0,0,,,,,,,,0,,,73,0
255840,note_on,0,0,0,,,,,,,,0,,,85,0
255840,note_on,0,0,0,,,,,,,,0,,,81,83
255840,note_on,0,0,0,,,,,,,,0,,,69,69
255920,note_on,80,0,0,,,,,,,,0,,,69,0
255920,note_on,0,0,0,,,,,,,,0,,,81,0
255920,note_on,0,0,0,,,,,,,,0,,,76,81
255920,note_on,0,0,0,,,,,,,,0,,,64,69
255924,set_tempo,4,1,0,,,,,,569260,,,,,,
256000,note_on,76,0,0,,,,,,,,0,,,64,0
256000,note_on,0,0,0,,,,,,,,0,,,76,0
256000,note_on,0,0,0,,,,,,,,0,,,73,80
256000,note_on,0,0,0,,,,,,,,0,,,61,68
256052,set_tempo,52,1,0,,,,,,574713,,,,,,
256080,note_on,28,0,0,,,,,,,,0,,,61,0
256080,note_on,0,0,0,,,,,,,,0,,,73,0
256080,note_on,0,0,0,,,,,,,,0,,,69,79
256080,note_on,0,0,0,,,,,,,,0,,,57,67
256160,note_on,80,0,0,,,,,,,,0,,,57,0
256160,note_on,0,0,0,,,,,,,,0,,,69,0
256160,note_on,0,0,0,,,,,,,,0,,,64,78
256160,note_on,0,0,0,,,,,,,,0,,,52,66
256180,set_tempo,20,1,0,,,,,,580271,,,,,,
256240,note_on,60,0,0,,,,,,,,0,,,52,0
256240,note_on,0,0,0,,,,,,,,0,,,64,0
256240,note_on,0,0,0,,,,,,,,0,,,61,75
256240,note_on,0,0,0,,,,,,,,0,,,49,64
256308,set_tempo,68,1,0,,,,,,572519,,,,,,
256320,note_on,12,0,0,,,,,,,,0,,,49,0
256320,note_on,0,0,0,,,,,,,,0,,,61,0
256320,note_on,0,0,0,,,,,,,,0,,,57,74
256320,note_on,0,0,0,,,,,,,,0,,,45,63
256340,set_tempo,20,1,0,,,,,,578035,,,,,,
256356,set_tempo,16,1,0,,,,,,583658,,,,,,
256388,set_tempo,32,1,0,,,,,,589391,,,,,,
256400,note_on,12,0,0,,,,,,,,0,,,45,0
256400,note_on,0,0,0,,,,,,,,0,,,57,0
256400,note_on,0,0,0,,,,,,,,0,,,52,72
256400,note_on,0,0,0,,,,,,,,0,,,40,63
256404,set_tempo,4,1,0,,,,,,595238,,,,,,
256420,set_tempo,16,1,0,,,,,,601202,,,,,,
256452,set_tempo,32,1,0,,,,,,607287,,,,,,
256468,set_tempo,16,1,0,,,,,,613497,,,,,,
256480,note_on,12,0,0,,,,,,,,0,,,40,0
256480,note_on,0,0,0,,,,,,,,0,,,52,0
256480,note_on,0,0,0,,,,,,,,0,,,49,71
256480,note_on,0,0,0,,,,,,,,0,,,37,61
256500,set_tempo,20,1,0,,,,,,619835,,,,,,
256516,set_tempo,16,1,0,,,,,,626305,,,,,,
256532,set_tempo,16,1,0,,,,,,632911,,,,,,
256560,set_tempo,28,1,0,,,,,,1675978,,,,,,
256560,note_on,0,0,0,,,,,,,,0,,,37,0
256560,note_on,0,0,0,,,,,,,,0,,,49,0
256560,note_on,0,0,0,,,,,,,,0,,,45,99
256560,note_on,0,0,0,,,,,,,,0,,,33,85
256579,control_change,19,0,0,,,,,,,,0,64,0,,
256617,control_change,38,0,0,,,,,,,,0,64,127,,
256640,note_on,23,0,0,,,,,,,,0,,,49,68
256640,note_on,0,0,0,,,,,,,,0,,,37,56
256644,set_tempo,4,1,0,,,,,,559701,,,,,,
256692,set_tempo,48,1,0,,,,,,554529,,,,,,
256720,note_on,28,0,0,,,,,,,,0,,,37,0
256720,note_on,0,0,0,,,,,,,,0,,,49,0
256720,note_on,0,0,0,,,,,,,,0,,,52,69
256720,note_on,0,0,0,,,,,,,,0,,,40,58
256724,set_tempo,4,1,0,,,,,,549451,,,,,,
256756,set_tempo,32,1,0,,,,,,544465,,,,,,
256800,note_on,44,0,0,,,,,,,,0,,,40,0
256800,note_on,0,0,0,,,,,,,,0,,,52,0
256800,note_on,0,0,0,,,,,,,,0,,,57,71
256800,note_on,0,0,0,,,,,,,,0,,,45,59
256820,set_tempo,20,1,0,,,,,,536673,,,,,,
256880,note_on,60,0,0,,,,,,,,0,,,45,0
256880,note_on,0,0,0,,,,,,,,0,,,57,0
256880,note_on,0,0,0,,,,,,,,0,,,61,72
256880,note_on,0,0,0,,,,,,,,0,,,49,60
256884,set_tempo,4,1,0,,,,,,531915,,,,,,
256948,set_tempo,64,1,0,,,,,,527241,,,,,,
256960,note_on,12,0,0,,,,,,,,0,,,49,0
256960,note_on,0,0,0,,,,,,,,0,,,61,0
256960,note_on,0,0,0,,,,,,,,0,,,64,74
256960,note_on,0,0,0,,,,,,,,0,,,52,62
257012,set_tempo,52,1,0,,,,,,522648,,,,,,
257040,note_on,28,0,0,,,,,,,,0,,,52,0
257040,note_on,0,0,0,,,,,,,,0,,,64,0
257040,note_on,0,0,0,,,,,,,,0,,,69,77
257040,note_on,0,0,0,,,,,,,,0,,,57,64
257076,set_tempo,36,1,0,,,,,,518135,,,,,,
257120,note_on,44,0,0,,,,,,,,0,,,57,0
257120,note_on,0,0,0,,,,,,,,0,,,69,0
257120,note_on,0,0,0,,,,,,,,0,,,73,79
257120,note_on,0,0,0,,,,,,,,0,,,61,67
257140,set_tempo,20,1,0,,,,,,513699,,,,,,
257200,note_on,60,0,0,,,,,,,,0,,,61,0
257200,note_on,0,0,0,,,,,,,,0,,,73,0
257200,note_on,0,0,0,,,,,,,,0,,,76,80
257200,note_on,0,0,0,,,,,,,,0,,,64,69
257204,set_tempo,4,1,0,,,,,,509338,,,,,,
257268,set_tempo,64,1,0,,,,,,704225,,,,,,
257280,note_on,12,0,0,,,,,,,,0,,,64,0
257280,note_on,0,0,0,,,,,,,,0,,,76,0
257280,note_on,0,0,0,,,,,,,,0,,,81,82
257280,note_on,0,0,0,,,,,,,,0,,,69,70
257300,set_tempo,20,1,0,,,,,,696056,,,,,,
257332,set_tempo,32,1,0,,,,,,688073,,,,,,
257340,note_on,8,0,0,,,,,,,,0,,,69,0
257340,note_on,0,0,0,,,,,,,,0,,,81,0
257340,note_on,0,0,0,,,,,,,,0,,,85,83
257340,note_on,0,0,0,,,,,,,,0,,,73,71
257348,set_tempo,8,1,0,,,,,,680272,,,,,,
257380,set_tempo,32,1,0,,,,,,672646,,,,,,
257396,set_tempo,16,1,0,,,,,,665188,,,,,,
257400,note_on,4,0,0,,,,,,,,0,,,73,0
257400,note_on,0,0,0,,,,,,,,0,,,85,0
257400,note_on,0,0,0,,,,,,,,0,,,88,85
257400,note_on,0,0,0,,,,,,,,0,,,76,72
257428,set_tempo,28,1,0,,,,,,657895,,,,,,
257460,set_tempo,32,1,0,,,,,,650759,,,,,,
257460,note_on,0,0,0,,,,,,,,0,,,76,0
257460,note_on,0,0,0,,,,,,,,0,,,88,0
257460,note_on,0,0,0,,,,,,,,0,,,93,86
257460,note_on,0,0,0,,,,,,,,0,,,81,74
257476,set_tempo,16,1,0,,,,,,643777,,,,,,
257508,set_tempo,32,1,0,,,,,,636943,,,,,,
257520,set_tempo,12,1,0,,,,,,808625,,,,,,
257520,note_on,0,0,0,,,,,,,,0,,,81,0
257520,note_on,0,0,0,,,,,,,,0,,,45,0
257520,note_on,0,0,0,,,,,,,,0,,,33,0
257520,note_on,0,0,0,,,,,,,,0,,,93,0
257520,note_on,0,0,0,,,,,,,,0,,,97,88
257520,note_on,0,0,0,,,,,,,,0,,,85,75
257580,note_on,60,0,0,,,,,,,,0,,,85,0
257580,note_on,0,0,0,,,,,,,,0,,,97,0
257580,note_on,0,0,0,,,,,,,,0,,,93,86
257580,note_on,0,0,0,,,,,,,,0,,,81,74
257600,set_tempo,20,1,0,,,,,,665188,,,,,,
257636,set_tempo,36,1,0,,,,,,657895,,,,,,
257640,note_on,4,0,0,,,,,,,,0,,,81,0
257640,note_on,0,0,0,,,,,,,,0,,,93,0
257640,note_on,0,0,0,,,,,,,,0,,,88,86
257640,note_on,0,0,0,,,,,,,,0,,,76,73
257668,set_tempo,28,1,0,,,,,,665188,,,,,,
257684,set_tempo,16,1,0,,,,,,672646,,,,,,
257700,note_on,16,0,0,,,,,,,,0,,,76,0
257700,note_on,0,0,0,,,,,,,,0,,,88,0
257700,note_on,0,0,0,,,,,,,,0,,,85,84
257700,note_on,0,0,0,,,,,,,,0,,,73,72
257716,set_tempo,16,1,0,,,,,,680272,,,,,,
257732,set_tempo,16,1,0,,,,,,688073,,,,,,
257748,set_tempo,16,1,0,,,,,,492611,,,,,,
257760,note_on,12,0,0,,,,,,,,0,,,73,0
257760,note_on,0,0,0,,,,,,,,0,,,85,0
257760,note_on,0,0,0,,,,,,,,0,,,81,82
257760,note_on,0,0,0,,,,,,,,0,,,69,70
257796,set_tempo,36,1,0,,,,,,496689,,,,,,
257828,set_tempo,32,1,0,,,,,,500835,,,,,,
257840,note_on,12,0,0,,,,,,,,0,,,69,0
257840,note_on,0,0,0,,,,,,,,0,,,81,0
257840,note_on,0,0,0,,,,,,,,0,,,76,81
257840,note_on,0,0,0,,,,,,,,0,,,64,69
257876,set_tempo,36,1,0,,,,,,505051,,,,,,
257908,set_tempo,32,1,0,,,,,,509338,,,,,,
257920,note_on,12,0,0,,,,,,,,0,,,64,0
257920,note_on,0,0,0,,,,,,,,0,,,76,0
257920,note_on,0,0,0,,,,,,,,0,,,73,79
257920,note_on,0,0,0,,,,,,,,0,,,61,69
257940,set_tempo,20,1,0,,,,,,513699,,,,,,
257988,set_tempo,48,1,0,,,,,,518135,,,,,,
258000,note_on,12,0,0,,,,,,,,0,,,61,0
258000,note_on,0,0,0,,,,,,,,0,,,73,0
258000,note_on,0,0,0,,,,,,,,0,,,69,79
258000,note_on,0,0,0,,,,,,,,0,,,57,67
258020,set_tempo,20,1,0,,,,,,522648,,,,,,
258068,set_tempo,48,1,0,,,,,,527241,,,,,,
258080,note_on,12,0,0,,,,,,,,0,,,57,0
258080,note_on,0,0,0,,,,,,,,0,,,69,0
258080,note_on,0,0,0,,,,,,,,0,,,64,77
258080,note_on,0,0,0,,,,,,,,0,,,52,64
258100,set_tempo,20,1,0,,,,,,531915,,,,,,
258132,set_tempo,32,1,0,,,,,,536673,,,,,,
258160,note_on,28,0,0,,,,,,,,0,,,52,0
258160,note_on,0,0,0,,,,,,,,0,,,64,0
258160,note_on,0,0,0,,,,,,,,0,,,61,74
258160,note_on,0,0,0,,,,,,,,0,,,49,63
258180,set_tempo,20,1,0,,,,,,541516,,,,,,
258212,set_tempo,32,1,0,,,,,,546448,,,,,,
258240,note_on,28,0,0,,,,,,,,0,,,49,0
258240,note_on,0,0,0,,,,,,,,0,,,61,0
258240,note_on,0,0,0,,,,,,,,0,,,57,73
258240,note_on,0,0,0,,,,,,,,0,,,45,61
258260,set_tempo,20,1,0,,,,,,551471,,,,,,
258292,set_tempo,32,1,0,,,,,,556586,,,,,,
258320,note_on,28,0,0,,,,,,,,0,,,45,0
258320,note_on,0,0,0,,,,,,,,0,,,57,0
258320,note_on,0,0,0,,,,,,,,0,,,52,71
258320,note_on,0,0,0,,,,,,,,0,,,40,60
258324,set_tempo,4,1,0,,,,,,561798,,,,,,
258372,set_tempo,48,1,0,,,,,,567108,,,,,,
258400,note_on,28,0,0,,,,,,,,0,,,40,0
258400,note_on,0,0,0,,,,,,,,0,,,52,0
258400,note_on,0,0,0,,,,,,,,0,,,49,70
258400,note_on,0,0,0,,,,,,,,0,,,37,59
258404,set_tempo,4,1,0,,,,,,572519,,,,,,
258436,set_tempo,32,1,0,,,,,,578035,,,,,,
258468,set_tempo,32,1,0,,,,,,589391,,,,,,
258480,time_signature,12,1,0,10,8,12,8,,,,,,,,
258480,set_tempo,0,1,0,,,,,,1612903,,,,,,
258480,note_on,0,0,0,,,,,,,,0,,,37,0
258480,note_on,0,0,0,,,,,,,,0,,,49,0
258480,note_on,0,0,0,,,,,,,,0,,,45,97
258480,note_on,0,0,0,,,,,,,,0,,,33,88
258486,control_change,6,0,0,,,,,,,,0,64,0,,
258519,control_change,33,0,0,,,,,,,,0,64,127,,
258548,set_tempo,29,1,0,,,,,,591716,,,,,,
258552,set_tempo,4,1,0,,,,,,559701,,,,,,
258560,note_on,8,0,0,,,,,,,,0,,,49,71
258560,note_on,0,0,0,,,,,,,,0,,,37,59
258569,set_tempo,9,1,0,,,,,,525394,,,,,,
258640,note_on,71,0,0,,,,,,,,0,,,37,0
258640,note_on,0,0,0,,,,,,,,0,,,49,0
258640,note_on,0,0,0,,,,,,,,0,,,52,69
258640,note_on,0,0,0,,,,,,,,0,,,40,59
258665,set_tempo,25,1,0,,,,,,520833,,,,,,
258720,note_on,55,0,0,,,,,,,,0,,,40,0
258720,note_on,0,0,0,,,,,,,,0,,,52,0
258720,note_on,0,0,0,,,,,,,,0,,,57,70
258720,note_on,0,0,0,,,,,,,,0,,,45,61
258745,set_tempo,25,1,0,,,,,,516351,,,,,,
258800,note_on,55,0,0,,,,,,,,0,,,45,0
258800,note_on,0,0,0,,,,,,,,0,,,57,0
258800,note_on,0,0,0,,,,,,,,0,,,61,71
258800,note_on,0,0,0,,,,,,,,0,,,49,62
258825,set_tempo,25,1,0,,,,,,511945,,,,,,
258880,note_on,55,0,0,,,,,,,,0,,,49,0
258880,note_on,0,0,0,,,,,,,,0,,,61,0
258880,note_on,0,0,0,,,,,,,,0,,,64,73
258880,note_on,0,0,0,,,,,,,,0,,,52,63
258921,set_tempo,41,1,0,,,,,,507614,,,,,,
258960,note_on,39,0,0,,,,,,,,0,,,52,0
258960,note_on,0,0,0,,,,,,,,0,,,64,0
258960,note_on,0,0,0,,,,,,,,0,,,69,75
258960,note_on,0,0,0,,,,,,,,0,,,57,66
259001,set_tempo,41,1,0,,,,,,503356,,,,,,
259040,note_on,39,0,0,,,,,,,,0,,,57,0
259040,note_on,0,0,0,,,,,,,,0,,,69,0
259040,note_on,0,0,0,,,,,,,,0,,,73,77
259040,note_on,0,0,0,,,,,,,,0,,,61,67
259081,set_tempo,41,1,0,,,,,,499168,,,,,,
259120,note_on,39,0,0,,,,,,,,0,,,61,0
259120,note_on,0,0,0,,,,,,,,0,,,73,0
259120,note_on,0,0,0,,,,,,,,0,,,76,79
259120,note_on,0,0,0,,,,,,,,0,,,64,69
259177,set_tempo,57,1,0,,,,,,495050,,,,,,
259200,note_on,23,0,0,,,,,,,,0,,,64,0
259200,note_on,0,0,0,,,,,,,,0,,,76,0
259200,note_on,0,0,0,,,,,,,,0,,,81,80
259200,note_on,0,0,0,,,,,,,,0,,,69,69
259257,set_tempo,57,1,0,,,,,,490998,,,,,,
259280,note_on,23,0,0,,,,,,,,0,,,69,0
259280,note_on,0,0,0,,,,,,,,0,,,81,0
259280,note_on,0,0,0,,,,,,,,0,,,85,81
259280,note_on,0,0,0,,,,,,,,0,,,73,71
259337,set_tempo,57,1,0,,,,,,487013,,,,,,
259360,note_on,23,0,0,,,,,,,,0,,,73,0
259360,note_on,0,0,0,,,,,,,,0,,,85,0
259360,note_on,0,0,0,,,,,,,,0,,,88,86
259360,note_on,0,0,0,,,,,,,,0,,,76,72
259417,set_tempo,57,1,0,,,,,,483092,,,,,,
259440,note_on,23,0,0,,,,,,,,0,,,76,0
259440,note_on,0,0,0,,,,,,,,0,,,45,0
259440,note_on,0,0,0,,,,,,,,0,,,33,0
259440,note_on,0,0,0,,,,,,,,0,,,88,0
259440,note_on,0,0,0,,,,,,,,0,,,93,89
259440,note_on,0,0,0,,,,,,,,0,,,81,74
259534,set_tempo,94,1,0,,,,,,618557,,,,,,
259534,set_tempo,0,1,0,,,,,,808625,,,,,,
259536,note_on,2,0,0,,,,,,,,0,,,81,0
259536,note_on,0,0,0,,,,,,,,0,,,93,0
259536,note_on,0,0,0,,,,,,,,0,,,97,89
259536,note_on,0,0,0,,,,,,,,0,,,85,75
259539,set_tempo,3,1,0,,,,,,831025,,,,,,
259620,set_tempo,81,1,0,,,,,,660793,,,,,,
259632,note_on,12,0,0,,,,,,,,0,,,85,0
259632,note_on,0,0,0,,,,,,,,0,,,97,0
259632,note_on,0,0,0,,,,,,,,0,,,101,92
259632,note_on,0,0,0,,,,,,,,0,,,89,78
259674,set_tempo,42,1,0,,,,,,540541,,,,,,
259680,set_tempo,6,1,0,,,,,,601202,,,,,,
259683,set_tempo,3,1,0,,,,,,587084,,,,,,
259728,note_on,45,0,0,,,,,,,,0,,,89,0
259728,note_on,0,0,0,,,,,,,,0,,,101,0
259728,note_on,0,0,0,,,,,,,,0,,,100,91
259728,note_on,0,0,0,,,,,,,,0,,,88,77
259801,set_tempo,73,1,0,,,,,,503356,,,,,,
259817,set_tempo,16,1,0,,,,,,475436,,,,,,
259824,note_on,7,0,0,,,,,,,,0,,,88,0
259824,note_on,0,0,0,,,,,,,,0,,,100,0
259824,note_on,0,0,0,,,,,,,,0,,,97,89
259824,note_on,0,0,0,,,,,,,,0,,,85,77
259865,set_tempo,41,1,0,,,,,,479233,,,,,,
259897,set_tempo,32,1,0,,,,,,483092,,,,,,
259920,note_on,23,0,0,,,,,,,,0,,,85,0
259920,note_on,0,0,0,,,,,,,,0,,,97,0
259924,note_on,4,0,0,,,,,,,,0,,,93,88
259924,note_on,0,0,0,,,,,,,,0,,,81,74
259929,set_tempo,5,1,0,,,,,,487013,,,,,,
259977,set_tempo,48,1,0,,,,,,490998,,,,,,
260004,note_on,27,0,0,,,,,,,,0,,,81,0
260004,note_on,0,0,0,,,,,,,,0,,,93,0
260004,note_on,0,0,0,,,,,,,,0,,,88,84
260004,note_on,0,0,0,,,,,,,,0,,,76,72
260009,set_tempo,5,1,0,,,,,,495050,,,,,,
260041,set_tempo,32,1,0,,,,,,499168,,,,,,
260084,note_on,43,0,0,,,,,,,,0,,,76,0
260084,note_on,0,0,0,,,,,,,,0,,,88,0
260084,note_on,0,0,0,,,,,,,,0,,,85,83
260084,note_on,0,0,0,,,,,,,,0,,,73,71
260089,set_tempo,5,1,0,,,,,,503356,,,,,,
260121,set_tempo,32,1,0,,,,,,507614,,,,,,
260153,set_tempo,32,1,0,,,,,,511945,,,,,,
260164,note_on,11,0,0,,,,,,,,0,,,73,0
260164,note_on,0,0,0,,,,,,,,0,,,85,0
260164,note_on,0,0,0,,,,,,,,0,,,81,82
260164,note_on,0,0,0,,,,,,,,0,,,69,69
260201,set_tempo,37,1,0,,,,,,516351,,,,,,
260233,set_tempo,32,1,0,,,,,,520833,,,,,,
260244,note_on,11,0,0,,,,,,,,0,,,69,0
260244,note_on,0,0,0,,,,,,,,0,,,81,0
260244,note_on,0,0,0,,,,,,,,0,,,76,81
260244,note_on,0,0,0,,,,,,,,0,,,64,69
260265,set_tempo,21,1,0,,,,,,525394,,,,,,
260297,set_tempo,32,1,0,,,,,,530035,,,,,,
260324,note_on,27,0,0,,,,,,,,0,,,64,0
260324,note_on,0,0,0,,,,,,,,0,,,76,0
260324,note_on,0,0,0,,,,,,,,0,,,73,79
260324,note_on,0,0,0,,,,,,,,0,,,61,67
260345,set_tempo,21,1,0,,,,,,534759,,,,,,
260377,set_tempo,32,1,0,,,,,,539568,,,,,,
260404,note_on,27,0,0,,,,,,,,0,,,61,0
260404,note_on,0,0,0,,,,,,,,0,,,73,0
260404,note_on,0,0,0,,,,,,,,0,,,69,79
260404,note_on,0,0,0,,,,,,,,0,,,57,66
260409,set_tempo,5,1,0,,,,,,544465,,,,,,
260457,set_tempo,48,1,0,,,,,,549451,,,,,,
260484,note_on,27,0,0,,,,,,,,0,,,57,0
260484,note_on,0,0,0,,,,,,,,0,,,69,0
260484,note_on,0,0,0,,,,,,,,0,,,64,78
260484,note_on,0,0,0,,,,,,,,0,,,52,63
260489,set_tempo,5,1,0,,,,,,554529,,,,,,
260521,set_tempo,32,1,0,,,,,,559701,,,,,,
260564,note_on,43,0,0,,,,,,,,0,,,52,0
260564,note_on,0,0,0,,,,,,,,0,,,64,0
260564,note_on,0,0,0,,,,,,,,0,,,61,77
260564,note_on,0,0,0,,,,,,,,0,,,49,62
260569,set_tempo,5,1,0,,,,,,564972,,,,,,
260601,set_tempo,32,1,0,,,,,,570342,,,,,,
260633,set_tempo,32,1,0,,,,,,575816,,,,,,
260644,note_on,11,0,0,,,,,,,,0,,,49,0
260644,note_on,0,0,0,,,,,,,,0,,,61,0
260644,note_on,0,0,0,,,,,,,,0,,,57,75
260644,note_on,0,0,0,,,,,,,,0,,,45,60
260681,set_tempo,37,1,0,,,,,,581395,,,,,,
260713,set_tempo,32,1,0,,,,,,587084,,,,,,
260724,note_on,11,0,0,,,,,,,,0,,,45,0
260724,note_on,0,0,0,,,,,,,,0,,,57,0
260724,note_on,0,0,0,,,,,,,,0,,,52,74
260724,note_on,0,0,0,,,,,,,,0,,,40,59
260745,set_tempo,21,1,0,,,,,,592885,,,,,,
260777,set_tempo,32,1,0,,,,,,598802,,,,,,
260792,set_tempo,15,1,0,,,,,,613497,,,,,,
260804,note_on,12,0,0,,,,,,,,0,,,40,0
260804,note_on,0,0,0,,,,,,,,0,,,52,0
260804,note_on,0,0,0,,,,,,,,0,,,49,73
260804,note_on,0,0,0,,,,,,,,0,,,37,58
260824,set_tempo,20,1,0,,,,,,619835,,,,,,
260840,set_tempo,16,1,0,,,,,,626305,,,,,,
260856,set_tempo,16,1,0,,,,,,632911,,,,,,
260880,time_signature,24,1,0,8,8,12,8,,,,,,,,
260880,set_tempo,0,1,0,,,,,,892857,,,,,,
260880,note_on,0,0,0,,,,,,,,0,,,45,77
260880,control_change,0,0,0,,,,,,,,0,64,0,,
260880,note_on,0,0,0,,,,,,,,0,,,33,67
260884,note_on,4,0,0,,,,,,,,0,,,37,0
260884,note_on,0,0,0,,,,,,,,0,,,49,0
260940,note_on,56,0,0,,,,,,,,0,,,46,69
260940,note_on,0,0,0,,,,,,,,0,,,34,59
260958,note_on,18,0,0,,,,,,,,0,,,45,0
260958,note_on,0,0,0,,,,,,,,0,,,33,0
260960,set_tempo,2,1,0,,,,,,636943,,,,,,
260980,set_tempo,20,1,0,,,,,,610998,,,,,,
261000,set_tempo,20,1,0,,,,,,598802,,,,,,
261000,note_on,0,0,0,,,,,,,,0,,,45,77
261000,note_on,0,0,0,,,,,,,,0,,,33,64
261018,note_on,18,0,0,,,,,,,,0,,,46,0
261018,note_on,0,0,0,,,,,,,,0,,,34,0
261020,set_tempo,2,1,0,,,,,,592885,,,,,,
261040,set_tempo,20,1,0,,,,,,587084,,,,,,
261060,set_tempo,20,1,0,,,,,,581395,,,,,,
261060,note_on,0,0,0,,,,,,,,0,,,46,70
261060,note_on,0,0,0,,,,,,,,0,,,34,58
261078,note_on,18,0,0,,,,,,,,0,,,45,0
261078,note_on,0,0,0,,,,,,,,0,,,33,0
261080,set_tempo,2,1,0,,,,,,575816,,,,,,
261100,set_tempo,20,1,0,,,,,,570342,,,,,,
261120,note_on,20,0,0,,,,,,,,0,,,45,79
261120,note_on,0,0,0,,,,,,,,0,,,33,64
261138,note_on,18,0,0,,,,,,,,0,,,46,0
261138,note_on,0,0,0,,,,,,,,0,,,34,0
261140,set_tempo,2,1,0,,,,,,587084,,,,,,
261160,set_tempo,20,1,0,,,,,,592885,,,,,,
261180,note_on,20,0,0,,,,,,,,0,,,46,69
261180,note_on,0,0,0,,,,,,,,0,,,34,58
261198,note_on,18,0,0,,,,,,,,0,,,45,0
261198,note_on,0,0,0,,,,,,,,0,,,33,0
261240,note_on,42,0,0,,,,,,,,0,,,45,77
261240,note_on,0,0,0,,,,,,,,0,,,33,64
261258,note_on,18,0,0,,,,,,,,0,,,46,0
261258,note_on,0,0,0,,,,,,,,0,,,34,0
261280,set_tempo,22,1,0,,,,,,587084,,,,,,
261300,set_tempo,20,1,0,,,,,,575816,,,,,,
261300,note_on,0,0,0,,,,,,,,0,,,46,70
261300,note_on,0,0,0,,,,,,,,0,,,34,58
261318,note_on,18,0,0,,,,,,,,0,,,45,0
261318,note_on,0,0,0,,,,,,,,0,,,33,0
261320,set_tempo,2,1,0,,,,,,570342,,,,,,
261340,set_tempo,20,1,0,,,,,,564972,,,,,,
261360,note_on,20,0,0,,,,,,,,0,,,45,78
261360,note_on,0,0,0,,,,,,,,0,,,33,64
261378,note_on,18,0,0,,,,,,,,0,,,46,0
261378,note_on,0,0,0,,,,,,,,0,,,34,0
261400,set_tempo,22,1,0,,,,,,570342,,,,,,
261420,set_tempo,20,1,0,,,,,,598802,,,,,,
261420,note_on,0,0,0,,,,,,,,0,,,46,69
261420,note_on,0,0,0,,,,,,,,0,,,34,58
261438,note_on,18,0,0,,,,,,,,0,,,45,0
261438,note_on,0,0,0,,,,,,,,0,,,33,0
261480,note_on,42,0,0,,,,,,,,0,,,45,73
261480,note_on,0,0,0,,,,,,,,0,,,33,66
261498,note_on,18,0,0,,,,,,,,0,,,46,0
261498,note_on,0,0,0,,,,,,,,0,,,34,0
261500,set_tempo,2,1,0,,,,,,587084,,,,,,
261520,set_tempo,20,1,0,,,,,,570342,,,,,,
261540,set_tempo,20,1,0,,,,,,564972,,,,,,
261540,note_on,0,0,0,,,,,,,,0,,,46,70
261540,note_on,0,0,0,,,,,,,,0,,,34,59
261558,note_on,18,0,0,,,,,,,,0,,,45,0
261558,note_on,0,0,0,,,,,,,,0,,,33,0
261560,set_tempo,2,1,0,,,,,,554529,,,,,,
261600,note_on,40,0,0,,,,,,,,0,,,45,75
261600,note_on,0,0,0,,,,,,,,0,,,33,66
261618,note_on,18,0,0,,,,,,,,0,,,46,0
261618,note_on,0,0,0,,,,,,,,0,,,34,0
261620,set_tempo,2,1,0,,,,,,549451,,,,,,
261640,set_tempo,20,1,0,,,,,,554529,,,,,,
261660,set_tempo,20,1,0,,,,,,581395,,,,,,
261660,note_on,0,0,0,,,,,,,,0,,,46,70
261660,note_on,0,0,0,,,,,,,,0,,,34,60
261678,note_on,18,0,0,,,,,,,,0,,,45,0
261678,note_on,0,0,0,,,,,,,,0,,,33,0
261680,set_tempo,2,1,0,,,,,,592885,,,,,,
261720,set_tempo,40,1,0,,,,,,587084,,,,,,
261720,note_on,0,0,0,,,,,,,,0,,,45,77
261720,note_on,0,0,0,,,,,,,,0,,,33,66
261738,note_on,18,0,0,,,,,,,,0,,,46,0
261738,note_on,0,0,0,,,,,,,,0,,,34,0
261740,set_tempo,2,1,0,,,,,,570342,,,,,,
261760,set_tempo,20,1,0,,,,,,564972,,,,,,
261780,set_tempo,20,1,0,,,,,,554529,,,,,,
261780,note_on,0,0,0,,,,,,,,0,,,46,74
261780,note_on,0,0,0,,,,,,,,0,,,34,59
261798,note_on,18,0,0,,,,,,,,0,,,45,0
261798,note_on,0,0,0,,,,,,,,0,,,33,0
261840,note_on,42,0,0,,,,,,,,0,,,45,79
261840,note_on,0,0,0,,,,,,,,0,,,33,62
261858,note_on,18,0,0,,,,,,,,0,,,46,0
261858,note_on,0,0,0,,,,,,,,0,,,34,0
261860,set_tempo,2,1,0,,,,,,592885,,,,,,
261866,control_change,6,0,0,,,,,,,,0,64,127,,
261880,set_tempo,14,1,0,,,,,,598802,,,,,,
261900,set_tempo,20,1,0,,,,,,604839,,,,,,
261900,note_on,0,0,0,,,,,,,,0,,,45,0
261900,note_on,0,0,0,,,,,,,,0,,,33,0
261900,note_on,0,0,0,,,,,,,,0,,,46,79
261900,note_on,0,0,0,,,,,,,,0,,,34,64
261960,set_tempo,60,1,0,,,,,,598802,,,,,,
261960,note_on,0,0,0,,,,,,,,0,,,34,0
261960,note_on,0,0,0,,,,,,,,0,,,46,0
261960,note_on,0,0,0,,,,,,,,0,,,47,80
261960,note_on,0,0,0,,,,,,,,0,,,35,67
261980,set_tempo,20,1,0,,,,,,587084,,,,,,
262016,set_tempo,36,1,0,,,,,,643777,,,,,,
262020,note_on,4,0,0,,,,,,,,0,,,35,0
262020,note_on,0,0,0,,,,,,,,0,,,47,0
262020,note_on,0,0,0,,,,,,,,0,,,48,83
262020,note_on,0,0,0,,,,,,,,0,,,36,69
262048,set_tempo,28,1,0,,,,,,617284,,,,,,
262080,note_on,32,0,0,,,,,,,,0,,,36,0
262080,note_on,0,0,0,,,,,,,,0,,,48,0
262080,note_on,0,0,0,,,,,,,,0,,,49,85
262080,note_on,0,0,0,,,,,,,,0,,,37,71
262112,set_tempo,32,1,0,,,,,,623701,,,,,,
262140,note_on,28,0,0,,,,,,,,0,,,37,0
262140,note_on,0,0,0,,,,,,,,0,,,49,0
262140,note_on,0,0,0,,,,,,,,0,,,50,88
262140,note_on,0,0,0,,,,,,,,0,,,38,73
262176,set_tempo,36,1,0,,,,,,630252,,,,,,
262200,note_on,24,0,0,,,,,,,,0,,,38,0
262200,note_on,0,0,0,,,,,,,,0,,,50,0
262200,note_on,0,0,0,,,,,,,,0,,,51,89
262200,note_on,0,0,0,,,,,,,,0,,,39,75
262208,set_tempo,8,1,0,,,,,,636943,,,,,,
262260,note_on,52,0,0,,,,,,,,0,,,39,0
262260,note_on,0,0,0,,,,,,,,0,,,51,0
262260,note_on,0,0,0,,,,,,,,0,,,52,91
262260,note_on,0,0,0,,,,,,,,0,,,40,78
262272,set_tempo,12,1,0,,,,,,643777,,,,,,
262320,note_on,48,0,0,,,,,,,,0,,,40,0
262320,note_on,0,0,0,,,,,,,,0,,,52,0
262320,note_on,0,0,0,,,,,,,,0,,,53,94
262320,note_on,0,0,0,,,,,,,,0,,,41,80
262336,set_tempo,16,1,0,,,,,,650759,,,,,,
262368,set_tempo,32,1,0,,,,,,657895,,,,,,
262380,note_on,12,0,0,,,,,,,,0,,,41,0
262380,note_on,0,0,0,,,,,,,,0,,,53,0
262380,note_on,0,0,0,,,,,,,,0,,,52,96
262380,note_on,0,0,0,,,,,,,,0,,,40,81
262432,set_tempo,52,1,0,,,,,,650759,,,,,,
262440,note_on,8,0,0,,,,,,,,0,,,40,0
262440,note_on,0,0,0,,,,,,,,0,,,52,0
262440,note_on,0,0,0,,,,,,,,0,,,51,97
262440,note_on,0,0,0,,,,,,,,0,,,39,80
262464,set_tempo,24,1,0,,,,,,643777,,,,,,
262496,set_tempo,32,1,0,,,,,,636943,,,,,,
262500,note_on,4,0,0,,,,,,,,0,,,39,0
262500,note_on,0,0,0,,,,,,,,0,,,51,0
262500,note_on,0,0,0,,,,,,,,0,,,50,96
262500,note_on,0,0,0,,,,,,,,0,,,38,80
262528,set_tempo,28,1,0,,,,,,630252,,,,,,
262560,note_on,32,0,0,,,,,,,,0,,,38,0
262560,note_on,0,0,0,,,,,,,,0,,,50,0
262560,note_on,0,0,0,,,,,,,,0,,,49,94
262560,note_on,0,0,0,,,,,,,,0,,,37,79
262592,set_tempo,32,1,0,,,,,,623701,,,,,,
262620,note_on,28,0,0,,,,,,,,0,,,37,0
262620,note_on,0,0,0,,,,,,,,0,,,49,0
262620,note_on,0,0,0,,,,,,,,0,,,48,93
262620,note_on,0,0,0,,,,,,,,0,,,36,79
262624,set_tempo,4,1,0,,,,,,617284,,,,,,
262656,set_tempo,32,1,0,,,,,,610998,,,,,,
262680,note_on,24,0,0,,,,,,,,0,,,36,0
262680,note_on,0,0,0,,,,,,,,0,,,48,0
262680,note_on,0,0,0,,,,,,,,0,,,47,92
262680,note_on,0,0,0,,,,,,,,0,,,35,79
262688,set_tempo,8,1,0,,,,,,604839,,,,,,
262740,note_on,52,0,0,,,,,,,,0,,,35,0
262740,note_on,0,0,0,,,,,,,,0,,,47,0
262740,note_on,0,0,0,,,,,,,,0,,,46,90
262740,note_on,0,0,0,,,,,,,,0,,,34,78
262800,set_tempo,60,1,0,,,,,,490998,,,,,,
262800,note_on,0,0,0,,,,,,,,0,,,34,0
262800,note_on,0,0,0,,,,,,,,0,,,46,0
262800,note_on,0,0,0,,,,,,,,0,,,45,105
262800,control_change,0,0,0,,,,,,,,0,64,0,,
262800,note_on,0,0,0,,,,,,,,0,,,33,89
262934,control_change,134,0,0,,,,,,,,0,64,127,,
263040,note_on,106,0,0,,,,,,,,0,,,33,0
263040,note_on,0,0,0,,,,,,,,0,,,45,0
263280,set_tempo,240,1,0,,,,,,546448,,,,,,
263280,note_on,0,0,0,,,,,,,,0,,,81,99
263280,note_on,0,0,0,,,,,,,,0,,,76,99
263280,note_on,0,0,0,,,,,,,,0,,,73,83
263280,note_on,0,0,0,,,,,,,,0,,,69,83
263280,note_on,0,0,0,,,,,,,,0,,,57,84
263280,note_on,0,0,0,,,,,,,,0,,,52,77
263280,note_on,0,0,0,,,,,,,,0,,,49,70
263280,note_on,0,0,0,,,,,,,,0,,,45,70
263520,note_on,240,0,0,,,,,,,,0,,,45,0
263520,note_on,0,0,0,,,,,,,,0,,,81,0
263520,note_on,0,0,0,,,,,,,,0,,,57,0
263520,note_on,0,0,0,,,,,,,,0,,,76,0
263520,note_on,0,0,0,,,,,,,,0,,,73,0
263520,note_on,0,0,0,,,,,,,,0,,,69,0
263520,note_on,0,0,0,,,,,,,,0,,,52,0
263520,note_on,0,0,0,,,,,,,,0,,,49,0
263760,note_on,240,0,0,,,,,,,,0,,,93,99
263760,note_on,0,0,0,,,,,,,,0,,,88,99
263760,note_on,0,0,0,,,,,,,,0,,,85,83
263760,note_on,0,0,0,,,,,,,,0,,,81,83
263760,note_on,0,0,0,,,,,,,,0,,,69,84
263760,note_on,0,0,0,,,,,,,,0,,,64,77
263760,note_on,0,0,0,,,,,,,,0,,,61,70
263760,note_on,0,0,0,,,,,,,,0,,,57,70
264000,note_on,240,0,0,,,,,,,,0,,,57,0
264000,note_on,0,0,0,,,,,,,,0,,,93,0
264000,note_on,0,0,0,,,,,,,,0,,,69,0
264000,note_on,0,0,0,,,,,,,,0,,,88,0
264000,note_on,0,0,0,,,,,,,,0,,,85,0
264000,note_on,0,0,0,,,,,,,,0,,,81,0
264000,note_on,0,0,0,,,,,,,,0,,,64,0
264000,note_on,0,0,0,,,,,,,,0,,,61,0
264414,control_change,414,0,0,,,,,,,,0,64,0,,
264720,set_tempo,306,1,0,,,,,,598802,,,,,,
264840,set_tempo,120,1,0,,,,,,598802,,,,,,
264840,end_of_track,0,1,0,,,,,,,,,,,,
