tick,type,time,meta,track,numerator,denominator,clocks_per_click,notated_32nd_notes_per_beat,key,tempo,program,channel,control,value,note,velocity
0,track_name,0,1,0,,,,,,,,,,,,
0,copyright,0,1,0,,,,,,,,,,,,
0,text,0,1,0,,,,,,,,,,,,
0,text,0,1,0,,,,,,,,,,,,
0,text,0,1,0,,,,,,,,,,,,
0,text,0,1,0,,,,,,,,,,,,
0,text,0,1,0,,,,,,,,,,,,
0,text,0,1,0,,,,,,,,,,,,
0,text,0,1,0,,,,,,,,,,,,
0,text,0,1,0,,,,,,,,,,,,
0,text,0,1,0,,,,,,,,,,,,
0,text,0,1,0,,,,,,,,,,,,
0,time_signature,0,1,0,4,4,24,8,,,,,,,,
0,key_signature,0,1,0,,,,,Eb,,,,,,,
0,set_tempo,0,1,0,,,,,,600000,,,,,,
0,marker,0,1,0,,,,,,,,,,,,
0,program_change,0,0,0,,,,,,,0,0,,,,
0,control_change,0,0,0,,,,,,,,0,7,100,,
0,control_change,0,0,0,,,,,,,,0,10,64,,
0,control_change,0,0,0,,,,,,,,0,91,127,,
0,text,0,1,0,,,,,,,,,,,,
0,program_change,0,0,0,,,,,,,0,0,,,,
0,control_change,0,0,0,,,,,,,,0,7,100,,
0,control_change,0,0,0,,,,,,,,0,10,64,,
0,control_change,0,0,0,,,,,,,,0,64,0,,
1840,control_change,1840,0,0,,,,,,,,0,91,127,,
1840,control_change,0,0,0,,,,,,,,0,64,0,,
1840,control_change,0,0,0,,,,,,,,0,91,127,,
1860,set_tempo,20,1,0,,,,,,794702,,,,,,
1860,note_on,0,0,0,,,,,,,,0,,,63,71
1910,note_on,50,0,0,,,,,,,,0,,,63,0
1920,set_tempo,10,1,0,,,,,,794702,,,,,,
1920,note_on,0,0,0,,,,,,,,0,,,63,74
3770,note_on,1850,0,0,,,,,,,,0,,,63,0
3780,note_on,10,0,0,,,,,,,,0,,,68,66
3780,note_on,0,0,0,,,,,,,,0,,,66,56
3780,note_on,0,0,0,,,,,,,,0,,,60,56
3780,note_on,0,0,0,,,,,,,,0,,,63,57
3830,note_on,50,0,0,,,,,,,,0,,,63,0
3830,note_on,0,0,0,,,,,,,,0,,,68,0
3830,note_on,0,0,0,,,,,,,,0,,,66,0
3830,note_on,0,0,0,,,,,,,,0,,,60,0
3840,note_on,10,0,0,,,,,,,,0,,,60,59
3840,note_on,0,0,0,,,,,,,,0,,,66,59
3840,note_on,0,0,0,,,,,,,,0,,,68,71
3840,note_on,0,0,0,,,,,,,,0,,,63,59
5690,note_on,1850,0,0,,,,,,,,0,,,63,0
5690,note_on,0,0,0,,,,,,,,0,,,60,0
5690,note_on,0,0,0,,,,,,,,0,,,66,0
5690,note_on,0,0,0,,,,,,,,0,,,68,0
5700,note_on,10,0,0,,,,,,,,0,,,69,66
5700,note_on,0,0,0,,,,,,,,0,,,66,56
5700,note_on,0,0,0,,,,,,,,0,,,59,56
5700,note_on,0,0,0,,,,,,,,0,,,63,56
5750,note_on,50,0,0,,,,,,,,0,,,63,0
5750,note_on,0,0,0,,,,,,,,0,,,69,0
5750,note_on,0,0,0,,,,,,,,0,,,66,0
5750,note_on,0,0,0,,,,,,,,0,,,59,0
5760,set_tempo,10,1,0,,,,,,851064,,,,,,
5760,note_on,0,0,0,,,,,,,,0,,,69,70
5760,note_on,0,0,0,,,,,,,,0,,,66,58
5760,note_on,0,0,0,,,,,,,,0,,,59,58
5760,note_on,0,0,0,,,,,,,,0,,,63,58
6210,note_on,450,0,0,,,,,,,,0,,,63,0
6210,note_on,0,0,0,,,,,,,,0,,,69,0
6210,note_on,0,0,0,,,,,,,,0,,,66,0
6210,note_on,0,0,0,,,,,,,,0,,,59,0
6240,set_tempo,30,1,0,,,,,,888889,,,,,,
6240,note_on,0,0,0,,,,,,,,0,,,59,60
6240,note_on,0,0,0,,,,,,,,0,,,69,72
6240,note_on,0,0,0,,,,,,,,0,,,66,60
6240,note_on,0,0,0,,,,,,,,0,,,63,62
6690,note_on,450,0,0,,,,,,,,0,,,63,0
6690,note_on,0,0,0,,,,,,,,0,,,59,0
6690,note_on,0,0,0,,,,,,,,0,,,69,0
6690,note_on,0,0,0,,,,,,,,0,,,66,0
6720,set_tempo,30,1,0,,,,,,916031,,,,,,
6720,note_on,0,0,0,,,,,,,,0,,,65,63
6720,note_on,0,0,0,,,,,,,,0,,,69,74
6720,note_on,0,0,0,,,,,,,,0,,,62,54
6720,note_on,0,0,0,,,,,,,,0,,,53,54
7170,note_on,450,0,0,,,,,,,,0,,,53,0
7170,note_on,0,0,0,,,,,,,,0,,,65,0
7170,note_on,0,0,0,,,,,,,,0,,,69,0
7170,note_on,0,0,0,,,,,,,,0,,,62,0
7200,note_on,30,0,0,,,,,,,,0,,,63,63
7200,note_on,0,0,0,,,,,,,,0,,,69,74
7200,note_on,0,0,0,,,,,,,,0,,,53,54
7200,note_on,0,0,0,,,,,,,,0,,,60,64
7440,set_tempo,240,1,0,,,,,,1121495,,,,,,
7460,set_tempo,20,1,0,,,,,,1142857,,,,,,
7480,set_tempo,20,1,0,,,,,,1165049,,,,,,
7500,set_tempo,20,1,0,,,,,,1188119,,,,,,
7520,set_tempo,20,1,0,,,,,,1212121,,,,,,
7520,note_on,0,0,0,,,,,,,,0,,,60,0
7520,note_on,0,0,0,,,,,,,,0,,,63,0
7520,note_on,0,0,0,,,,,,,,0,,,69,0
7520,note_on,0,0,0,,,,,,,,0,,,53,0
7530,note_on,10,0,0,,,,,,,,0,,,46,65
7540,set_tempo,10,1,0,,,,,,1237113,,,,,,
7560,set_tempo,20,1,0,,,,,,1263158,,,,,,
7560,note_on,0,0,0,,,,,,,,0,,,53,58
7580,set_tempo,20,1,0,,,,,,1290323,,,,,,
7590,note_on,10,0,0,,,,,,,,0,,,58,58
7600,set_tempo,10,1,0,,,,,,1318681,,,,,,
7620,set_tempo,20,1,0,,,,,,1348315,,,,,,
7620,note_on,0,0,0,,,,,,,,0,,,62,63
7627,control_change,7,0,0,,,,,,,,0,64,127,,
7640,set_tempo,13,1,0,,,,,,1379310,,,,,,
7650,note_on,10,0,0,,,,,,,,0,,,65,63
7660,set_tempo,10,1,0,,,,,,1411765,,,,,,
7680,set_tempo,20,1,0,,,,,,1263158,,,,,,
7680,note_on,0,0,0,,,,,,,,0,,,70,72
8640,set_tempo,960,1,0,,,,,,1818182,,,,,,
8640,note_on,0,0,0,,,,,,,,0,,,70,0
8640,note_on,0,0,0,,,,,,,,0,,,53,0
8640,note_on,0,0,0,,,,,,,,0,,,58,0
8640,note_on,0,0,0,,,,,,,,0,,,46,0
8640,note_on,0,0,0,,,,,,,,0,,,65,0
8640,note_on,0,0,0,,,,,,,,0,,,62,0
8640,note_on,0,0,0,,,,,,,,0,,,70,36
8640,note_on,0,0,0,,,,,,,,0,,,74,41
8672,note_on,32,0,0,,,,,,,,0,,,74,0
8672,note_on,0,0,0,,,,,,,,0,,,70,0
8674,note_on,2,0,0,,,,,,,,0,,,62,36
8674,note_on,0,0,0,,,,,,,,0,,,65,36
8700,set_tempo,26,1,0,,,,,,1791045,,,,,,
8706,note_on,6,0,0,,,,,,,,0,,,65,0
8706,note_on,0,0,0,,,,,,,,0,,,62,0
8708,note_on,2,0,0,,,,,,,,0,,,70,36
8708,note_on,0,0,0,,,,,,,,0,,,74,36
8708,note_on,0,0,0,,,,,,,,0,,,77,41
8740,note_on,32,0,0,,,,,,,,0,,,77,0
8740,note_on,0,0,0,,,,,,,,0,,,74,0
8740,note_on,0,0,0,,,,,,,,0,,,70,0
8742,note_on,2,0,0,,,,,,,,0,,,70,36
8742,note_on,0,0,0,,,,,,,,0,,,65,36
8760,set_tempo,18,1,0,,,,,,1764706,,,,,,
8774,note_on,14,0,0,,,,,,,,0,,,65,0
8774,note_on,0,0,0,,,,,,,,0,,,70,0
8776,note_on,2,0,0,,,,,,,,0,,,82,41
8776,note_on,0,0,0,,,,,,,,0,,,74,36
8776,note_on,0,0,0,,,,,,,,0,,,77,36
8808,note_on,32,0,0,,,,,,,,0,,,77,0
8808,note_on,0,0,0,,,,,,,,0,,,74,0
8808,note_on,0,0,0,,,,,,,,0,,,82,0
8810,note_on,2,0,0,,,,,,,,0,,,70,36
8810,note_on,0,0,0,,,,,,,,0,,,74,36
8820,set_tempo,10,1,0,,,,,,1739130,,,,,,
8840,set_tempo,20,1,0,,,,,,1500000,,,,,,
8840,note_on,0,0,0,,,,,,,,0,,,74,0
8840,note_on,0,0,0,,,,,,,,0,,,70,0
8844,note_on,4,0,0,,,,,,,,0,,,77,36
8844,note_on,0,0,0,,,,,,,,0,,,82,36
8844,note_on,0,0,0,,,,,,,,0,,,86,41
8850,set_tempo,6,1,0,,,,,,1481481,,,,,,
8860,set_tempo,10,1,0,,,,,,1463415,,,,,,
8865,set_tempo,5,1,0,,,,,,1445783,,,,,,
8874,note_on,9,0,0,,,,,,,,0,,,86,0
8874,note_on,0,0,0,,,,,,,,0,,,82,0
8874,note_on,0,0,0,,,,,,,,0,,,77,0
8875,set_tempo,1,1,0,,,,,,1428571,,,,,,
8878,note_on,3,0,0,,,,,,,,0,,,74,36
8878,note_on,0,0,0,,,,,,,,0,,,77,36
8885,set_tempo,7,1,0,,,,,,1411765,,,,,,
8890,set_tempo,5,1,0,,,,,,1395349,,,,,,
8900,set_tempo,10,1,0,,,,,,1379310,,,,,,
8908,note_on,8,0,0,,,,,,,,0,,,77,0
8908,note_on,0,0,0,,,,,,,,0,,,74,0
8910,set_tempo,2,1,0,,,,,,1363636,,,,,,
8912,note_on,2,0,0,,,,,,,,0,,,82,36
8912,note_on,0,0,0,,,,,,,,0,,,86,36
8912,note_on,0,0,0,,,,,,,,0,,,89,41
8915,set_tempo,3,1,0,,,,,,1348315,,,,,,
8925,set_tempo,10,1,0,,,,,,1333333,,,,,,
8935,set_tempo,10,1,0,,,,,,1318681,,,,,,
8940,set_tempo,5,1,0,,,,,,1304348,,,,,,
8942,note_on,2,0,0,,,,,,,,0,,,89,0
8942,note_on,0,0,0,,,,,,,,0,,,86,0
8942,note_on,0,0,0,,,,,,,,0,,,82,0
8946,note_on,4,0,0,,,,,,,,0,,,77,36
8946,note_on,0,0,0,,,,,,,,0,,,82,36
8950,set_tempo,4,1,0,,,,,,1290323,,,,,,
8955,set_tempo,5,1,0,,,,,,1276596,,,,,,
8960,set_tempo,5,1,0,,,,,,1153846,,,,,,
8976,note_on,16,0,0,,,,,,,,0,,,82,0
8976,note_on,0,0,0,,,,,,,,0,,,77,0
8980,set_tempo,4,1,0,,,,,,1111111,,,,,,
8980,note_on,0,0,0,,,,,,,,0,,,94,43
8980,note_on,0,0,0,,,,,,,,0,,,86,37
8980,note_on,0,0,0,,,,,,,,0,,,89,37
9000,set_tempo,20,1,0,,,,,,1071429,,,,,,
9010,note_on,10,0,0,,,,,,,,0,,,89,0
9010,note_on,0,0,0,,,,,,,,0,,,86,0
9010,note_on,0,0,0,,,,,,,,0,,,94,0
9014,note_on,4,0,0,,,,,,,,0,,,82,39
9014,note_on,0,0,0,,,,,,,,0,,,86,39
9020,set_tempo,6,1,0,,,,,,1034483,,,,,,
9040,set_tempo,20,1,0,,,,,,1000000,,,,,,
9044,note_on,4,0,0,,,,,,,,0,,,86,0
9044,note_on,0,0,0,,,,,,,,0,,,82,0
9048,note_on,4,0,0,,,,,,,,0,,,98,45
9048,note_on,0,0,0,,,,,,,,0,,,94,41
9048,note_on,0,0,0,,,,,,,,0,,,89,41
9060,set_tempo,12,1,0,,,,,,967742,,,,,,
9078,note_on,18,0,0,,,,,,,,0,,,89,0
9078,note_on,0,0,0,,,,,,,,0,,,94,0
9078,note_on,0,0,0,,,,,,,,0,,,98,0
9080,set_tempo,2,1,0,,,,,,937500,,,,,,
9082,note_on,2,0,0,,,,,,,,0,,,86,43
9082,note_on,0,0,0,,,,,,,,0,,,89,48
9100,set_tempo,18,1,0,,,,,,902256,,,,,,
9112,note_on,12,0,0,,,,,,,,0,,,89,0
9112,note_on,0,0,0,,,,,,,,0,,,86,0
9120,set_tempo,8,1,0,,,,,,1764706,,,,,,
9120,note_on,0,0,0,,,,,,,,0,,,94,44
9120,note_on,0,0,0,,,,,,,,0,,,98,49
9120,note_on,0,0,0,,,,,,,,0,,,101,44
9480,control_change,360,0,0,,,,,,,,0,64,0,,
9600,set_tempo,120,1,0,,,,,,1935484,,,,,,
9600,note_on,0,0,0,,,,,,,,0,,,101,0
9600,note_on,0,0,0,,,,,,,,0,,,98,0
9600,note_on,0,0,0,,,,,,,,0,,,94,0
9600,note_on,0,0,0,,,,,,,,0,,,94,36
9600,note_on,0,0,0,,,,,,,,0,,,97,41
9600,note_on,0,0,0,,,,,,,,0,,,88,36
9680,set_tempo,80,1,0,,,,,,1643836,,,,,,
9680,note_on,0,0,0,,,,,,,,0,,,88,0
9680,note_on,0,0,0,,,,,,,,0,,,97,0
9680,note_on,0,0,0,,,,,,,,0,,,94,0
9680,note_on,0,0,0,,,,,,,,0,,,91,33
9680,note_on,0,0,0,,,,,,,,0,,,99,37
9760,set_tempo,80,1,0,,,,,,1445783,,,,,,
9760,note_on,0,0,0,,,,,,,,0,,,99,0
9760,note_on,0,0,0,,,,,,,,0,,,91,0
9760,note_on,0,0,0,,,,,,,,0,,,89,35
9760,note_on,0,0,0,,,,,,,,0,,,98,38
9830,note_on,70,0,0,,,,,,,,0,,,98,0
9830,note_on,0,0,0,,,,,,,,0,,,89,0
9840,set_tempo,10,1,0,,,,,,1395349,,,,,,
9840,note_on,0,0,0,,,,,,,,0,,,93,41
9840,note_on,0,0,0,,,,,,,,0,,,89,36
9840,note_on,0,0,0,,,,,,,,0,,,85,36
9920,set_tempo,80,1,0,,,,,,1043478,,,,,,
9920,note_on,0,0,0,,,,,,,,0,,,85,0
9920,note_on,0,0,0,,,,,,,,0,,,89,0
9920,note_on,0,0,0,,,,,,,,0,,,93,0
9920,note_on,0,0,0,,,,,,,,0,,,87,33
9920,note_on,0,0,0,,,,,,,,0,,,96,37
10000,set_tempo,80,1,0,,,,,,1000000,,,,,,
10000,note_on,0,0,0,,,,,,,,0,,,96,0
10000,note_on,0,0,0,,,,,,,,0,,,87,0
10000,note_on,0,0,0,,,,,,,,0,,,86,33
10000,note_on,0,0,0,,,,,,,,0,,,94,37
10070,note_on,70,0,0,,,,,,,,0,,,94,0
10070,note_on,0,0,0,,,,,,,,0,,,86,0
10080,set_tempo,10,1,0,,,,,,967742,,,,,,
10080,note_on,0,0,0,,,,,,,,0,,,88,41
10080,note_on,0,0,0,,,,,,,,0,,,85,36
10080,note_on,0,0,0,,,,,,,,0,,,82,36
10160,set_tempo,80,1,0,,,,,,816327,,,,,,
10160,note_on,0,0,0,,,,,,,,0,,,82,0
10160,note_on,0,0,0,,,,,,,,0,,,85,0
10160,note_on,0,0,0,,,,,,,,0,,,88,0
10160,note_on,0,0,0,,,,,,,,0,,,86,35
10160,note_on,0,0,0,,,,,,,,0,,,91,38
10240,set_tempo,80,1,0,,,,,,774194,,,,,,
10240,note_on,0,0,0,,,,,,,,0,,,91,0
10240,note_on,0,0,0,,,,,,,,0,,,86,0
10240,note_on,0,0,0,,,,,,,,0,,,82,35
10240,note_on,0,0,0,,,,,,,,0,,,89,38
10310,note_on,70,0,0,,,,,,,,0,,,89,0
10310,note_on,0,0,0,,,,,,,,0,,,82,0
10320,set_tempo,10,1,0,,,,,,794702,,,,,,
10320,note_on,0,0,0,,,,,,,,0,,,76,36
10320,note_on,0,0,0,,,,,,,,0,,,82,36
10320,note_on,0,0,0,,,,,,,,0,,,85,41
10400,set_tempo,80,1,0,,,,,,750000,,,,,,
10400,note_on,0,0,0,,,,,,,,0,,,85,0
10400,note_on,0,0,0,,,,,,,,0,,,82,0
10400,note_on,0,0,0,,,,,,,,0,,,76,0
10400,note_on,0,0,0,,,,,,,,0,,,79,33
10400,note_on,0,0,0,,,,,,,,0,,,87,37
10480,set_tempo,80,1,0,,,,,,705882,,,,,,
10480,note_on,0,0,0,,,,,,,,0,,,87,0
10480,note_on,0,0,0,,,,,,,,0,,,79,0
10480,note_on,0,0,0,,,,,,,,0,,,77,35
10480,note_on,0,0,0,,,,,,,,0,,,86,38
10550,note_on,70,0,0,,,,,,,,0,,,86,0
10550,note_on,0,0,0,,,,,,,,0,,,77,0
10560,set_tempo,10,1,0,,,,,,648649,,,,,,
10560,note_on,0,0,0,,,,,,,,0,,,81,41
10560,note_on,0,0,0,,,,,,,,0,,,77,36
10560,note_on,0,0,0,,,,,,,,0,,,73,36
10640,set_tempo,80,1,0,,,,,,609137,,,,,,
10640,note_on,0,0,0,,,,,,,,0,,,73,0
10640,note_on,0,0,0,,,,,,,,0,,,77,0
10640,note_on,0,0,0,,,,,,,,0,,,81,0
10640,note_on,0,0,0,,,,,,,,0,,,75,33
10640,note_on,0,0,0,,,,,,,,0,,,84,37
10720,note_on,80,0,0,,,,,,,,0,,,84,0
10720,note_on,0,0,0,,,,,,,,0,,,75,0
10720,note_on,0,0,0,,,,,,,,0,,,74,35
10720,note_on,0,0,0,,,,,,,,0,,,82,38
10790,note_on,70,0,0,,,,,,,,0,,,82,0
10790,note_on,0,0,0,,,,,,,,0,,,74,0
10800,set_tempo,10,1,0,,,,,,625000,,,,,,
10800,note_on,0,0,0,,,,,,,,0,,,76,43
10800,note_on,0,0,0,,,,,,,,0,,,73,37
10800,note_on,0,0,0,,,,,,,,0,,,70,37
10880,set_tempo,80,1,0,,,,,,574163,,,,,,
10880,note_on,0,0,0,,,,,,,,0,,,70,0
10880,note_on,0,0,0,,,,,,,,0,,,73,0
10880,note_on,0,0,0,,,,,,,,0,,,76,0
10880,note_on,0,0,0,,,,,,,,0,,,74,36
10880,note_on,0,0,0,,,,,,,,0,,,79,41
10960,note_on,80,0,0,,,,,,,,0,,,79,0
10960,note_on,0,0,0,,,,,,,,0,,,74,0
10960,note_on,0,0,0,,,,,,,,0,,,77,42
10960,note_on,0,0,0,,,,,,,,0,,,70,36
11030,note_on,70,0,0,,,,,,,,0,,,70,0
11030,note_on,0,0,0,,,,,,,,0,,,77,0
11040,set_tempo,10,1,0,,,,,,591133,,,,,,
11040,note_on,0,0,0,,,,,,,,0,,,64,39
11040,note_on,0,0,0,,,,,,,,0,,,73,45
11040,note_on,0,0,0,,,,,,,,0,,,70,39
11120,set_tempo,80,1,0,,,,,,563380,,,,,,
11120,note_on,0,0,0,,,,,,,,0,,,70,0
11120,note_on,0,0,0,,,,,,,,0,,,73,0
11120,note_on,0,0,0,,,,,,,,0,,,64,0
11120,note_on,0,0,0,,,,,,,,0,,,67,36
11120,note_on,0,0,0,,,,,,,,0,,,75,42
11200,note_on,80,0,0,,,,,,,,0,,,75,0
11200,note_on,0,0,0,,,,,,,,0,,,67,0
11200,note_on,0,0,0,,,,,,,,0,,,65,36
11200,note_on,0,0,0,,,,,,,,0,,,74,41
11264,set_tempo,64,1,0,,,,,,579710,,,,,,
11270,note_on,6,0,0,,,,,,,,0,,,74,0
11270,note_on,0,0,0,,,,,,,,0,,,65,0
11280,note_on,10,0,0,,,,,,,,0,,,69,46
11280,note_on,0,0,0,,,,,,,,0,,,65,42
11280,note_on,0,0,0,,,,,,,,0,,,61,42
11360,set_tempo,80,1,0,,,,,,550459,,,,,,
11360,note_on,0,0,0,,,,,,,,0,,,61,0
11360,note_on,0,0,0,,,,,,,,0,,,65,0
11360,note_on,0,0,0,,,,,,,,0,,,69,0
11360,note_on,0,0,0,,,,,,,,0,,,63,38
11360,note_on,0,0,0,,,,,,,,0,,,72,44
11440,note_on,80,0,0,,,,,,,,0,,,72,0
11440,note_on,0,0,0,,,,,,,,0,,,63,0
11440,note_on,0,0,0,,,,,,,,0,,,62,39
11440,note_on,0,0,0,,,,,,,,0,,,70,45
11510,note_on,70,0,0,,,,,,,,0,,,70,0
11510,note_on,0,0,0,,,,,,,,0,,,62,0
11520,set_tempo,10,1,0,,,,,,558140,,,,,,
11520,note_on,0,0,0,,,,,,,,0,,,64,49
11520,note_on,0,0,0,,,,,,,,0,,,58,44
11520,note_on,0,0,0,,,,,,,,0,,,61,44
11600,set_tempo,80,1,0,,,,,,528634,,,,,,
11600,note_on,0,0,0,,,,,,,,0,,,61,0
11600,note_on,0,0,0,,,,,,,,0,,,58,0
11600,note_on,0,0,0,,,,,,,,0,,,64,0
11600,note_on,0,0,0,,,,,,,,0,,,62,41
11600,note_on,0,0,0,,,,,,,,0,,,67,45
11680,note_on,80,0,0,,,,,,,,0,,,67,0
11680,note_on,0,0,0,,,,,,,,0,,,62,0
11680,note_on,0,0,0,,,,,,,,0,,,58,41
11680,note_on,0,0,0,,,,,,,,0,,,65,45
11750,note_on,70,0,0,,,,,,,,0,,,65,0
11750,note_on,0,0,0,,,,,,,,0,,,58,0
11760,set_tempo,10,1,0,,,,,,545455,,,,,,
11760,note_on,0,0,0,,,,,,,,0,,,52,49
11760,note_on,0,0,0,,,,,,,,0,,,61,55
11760,note_on,0,0,0,,,,,,,,0,,,58,49
11840,set_tempo,80,1,0,,,,,,521739,,,,,,
11840,note_on,0,0,0,,,,,,,,0,,,58,0
11840,note_on,0,0,0,,,,,,,,0,,,61,0
11840,note_on,0,0,0,,,,,,,,0,,,52,0
11840,note_on,0,0,0,,,,,,,,0,,,55,45
11840,note_on,0,0,0,,,,,,,,0,,,63,52
11920,note_on,80,0,0,,,,,,,,0,,,63,0
11920,note_on,0,0,0,,,,,,,,0,,,55,0
11920,note_on,0,0,0,,,,,,,,0,,,53,45
11920,note_on,0,0,0,,,,,,,,0,,,62,52
11990,note_on,70,0,0,,,,,,,,0,,,62,0
11990,note_on,0,0,0,,,,,,,,0,,,53,0
12000,set_tempo,10,1,0,,,,,,558140,,,,,,
12000,note_on,0,0,0,,,,,,,,0,,,57,58
12000,note_on,0,0,0,,,,,,,,0,,,53,52
12000,note_on,0,0,0,,,,,,,,0,,,49,52
12026,control_change,26,0,0,,,,,,,,0,64,127,,
12080,set_tempo,54,1,0,,,,,,526316,,,,,,
12080,note_on,0,0,0,,,,,,,,0,,,49,0
12080,note_on,0,0,0,,,,,,,,0,,,53,0
12080,note_on,0,0,0,,,,,,,,0,,,57,0
12080,note_on,0,0,0,,,,,,,,0,,,60,54
12080,note_on,0,0,0,,,,,,,,0,,,51,48
12160,note_on,80,0,0,,,,,,,,0,,,51,0
12160,note_on,0,0,0,,,,,,,,0,,,60,0
12160,note_on,0,0,0,,,,,,,,0,,,50,48
12160,note_on,0,0,0,,,,,,,,0,,,58,54
12230,note_on,70,0,0,,,,,,,,0,,,58,0
12230,note_on,0,0,0,,,,,,,,0,,,50,0
12240,set_tempo,10,1,0,,,,,,571429,,,,,,
12240,note_on,0,0,0,,,,,,,,0,,,52,63
12240,note_on,0,0,0,,,,,,,,0,,,49,55
12240,note_on,0,0,0,,,,,,,,0,,,46,55
12320,set_tempo,80,1,0,,,,,,533333,,,,,,
12320,note_on,0,0,0,,,,,,,,0,,,46,0
12320,note_on,0,0,0,,,,,,,,0,,,49,0
12320,note_on,0,0,0,,,,,,,,0,,,52,0
12320,note_on,0,0,0,,,,,,,,0,,,50,53
12320,note_on,0,0,0,,,,,,,,0,,,55,59
12400,note_on,80,0,0,,,,,,,,0,,,55,0
12400,note_on,0,0,0,,,,,,,,0,,,50,0
12400,note_on,0,0,0,,,,,,,,0,,,46,53
12400,note_on,0,0,0,,,,,,,,0,,,53,59
12470,note_on,70,0,0,,,,,,,,0,,,53,0
12470,note_on,0,0,0,,,,,,,,0,,,46,0
12480,set_tempo,10,1,0,,,,,,574163,,,,,,
12480,note_on,0,0,0,,,,,,,,0,,,49,69
12480,note_on,0,0,0,,,,,,,,0,,,46,62
12480,note_on,0,0,0,,,,,,,,0,,,40,62
12560,set_tempo,80,1,0,,,,,,588235,,,,,,
12560,note_on,0,0,0,,,,,,,,0,,,40,0
12560,note_on,0,0,0,,,,,,,,0,,,46,0
12560,note_on,0,0,0,,,,,,,,0,,,49,0
12560,note_on,0,0,0,,,,,,,,0,,,43,55
12560,note_on,0,0,0,,,,,,,,0,,,51,63
12640,set_tempo,80,1,0,,,,,,615385,,,,,,
12640,note_on,0,0,0,,,,,,,,0,,,51,0
12640,note_on,0,0,0,,,,,,,,0,,,43,0
12640,note_on,0,0,0,,,,,,,,0,,,41,55
12640,note_on,0,0,0,,,,,,,,0,,,50,63
12710,note_on,70,0,0,,,,,,,,0,,,50,0
12710,note_on,0,0,0,,,,,,,,0,,,41,0
12720,set_tempo,10,1,0,,,,,,1237113,,,,,,
12720,note_on,0,0,0,,,,,,,,0,,,34,82
12740,control_change,20,0,0,,,,,,,,0,64,0,,
12960,set_tempo,220,1,0,,,,,,1081081,,,,,,
12960,note_on,0,0,0,,,,,,,,0,,,34,0
12960,note_on,0,0,0,,,,,,,,0,,,34,46
12980,set_tempo,20,1,0,,,,,,1081081,,,,,,
12989,control_change,9,0,0,,,,,,,,0,64,127,,
12996,note_on,7,0,0,,,,,,,,0,,,34,0
12996,note_on,0,0,0,,,,,,,,0,,,36,43
13000,set_tempo,4,1,0,,,,,,1071429,,,,,,
13020,set_tempo,20,1,0,,,,,,1061947,,,,,,
13032,note_on,12,0,0,,,,,,,,0,,,36,0
13032,note_on,0,0,0,,,,,,,,0,,,34,48
13040,set_tempo,8,1,0,,,,,,1052632,,,,,,
13060,set_tempo,20,1,0,,,,,,1043478,,,,,,
13068,note_on,8,0,0,,,,,,,,0,,,34,0
13068,note_on,0,0,0,,,,,,,,0,,,36,48
13080,set_tempo,12,1,0,,,,,,1034483,,,,,,
13100,set_tempo,20,1,0,,,,,,1025641,,,,,,
13104,note_on,4,0,0,,,,,,,,0,,,36,0
13104,note_on,0,0,0,,,,,,,,0,,,34,56
13120,set_tempo,16,1,0,,,,,,1016949,,,,,,
13140,set_tempo,20,1,0,,,,,,1008403,,,,,,
13140,note_on,0,0,0,,,,,,,,0,,,34,0
13140,note_on,0,0,0,,,,,,,,0,,,36,52
13160,set_tempo,20,1,0,,,,,,1000000,,,,,,
13176,note_on,16,0,0,,,,,,,,0,,,36,0
13176,note_on,0,0,0,,,,,,,,0,,,34,61
13180,set_tempo,4,1,0,,,,,,991736,,,,,,
13200,set_tempo,20,1,0,,,,,,983607,,,,,,
13212,note_on,12,0,0,,,,,,,,0,,,34,0
13212,note_on,0,0,0,,,,,,,,0,,,36,58
13220,set_tempo,8,1,0,,,,,,975610,,,,,,
13240,set_tempo,20,1,0,,,,,,967742,,,,,,
13248,note_on,8,0,0,,,,,,,,0,,,36,0
13248,note_on,0,0,0,,,,,,,,0,,,34,68
13260,set_tempo,12,1,0,,,,,,960000,,,,,,
13280,set_tempo,20,1,0,,,,,,952381,,,,,,
13284,note_on,4,0,0,,,,,,,,0,,,34,0
13284,note_on,0,0,0,,,,,,,,0,,,36,66
13320,note_on,36,0,0,,,,,,,,0,,,36,0
13320,note_on,0,0,0,,,,,,,,0,,,34,73
13360,set_tempo,40,1,0,,,,,,1061947,,,,,,
13360,note_on,0,0,0,,,,,,,,0,,,34,0
13360,note_on,0,0,0,,,,,,,,0,,,33,79
13380,set_tempo,20,1,0,,,,,,1090909,,,,,,
13400,set_tempo,20,1,0,,,,,,1121495,,,,,,
13400,note_on,0,0,0,,,,,,,,0,,,33,0
13400,note_on,0,0,0,,,,,,,,0,,,34,70
13420,set_tempo,20,1,0,,,,,,1153846,,,,,,
13440,time_signature,20,1,0,2,4,24,8,,,,,,,,
13440,set_tempo,0,1,0,,,,,,1481481,,,,,,
13440,note_on,0,0,0,,,,,,,,0,,,34,0
13440,control_change,0,0,0,,,,,,,,0,64,0,,
13440,note_on,0,0,0,,,,,,,,0,,,46,77
13500,note_on,60,0,0,,,,,,,,0,,,46,0
13613,control_change,113,0,0,,,,,,,,0,64,127,,
13620,set_tempo,7,1,0,,,,,,1538462,,,,,,
13620,note_on,0,0,0,,,,,,,,0,,,62,54
13630,note_on,10,0,0,,,,,,,,0,,,70,54
13640,note_on,10,0,0,,,,,,,,0,,,77,54
13650,note_on,10,0,0,,,,,,,,0,,,80,53
13660,note_on,10,0,0,,,,,,,,0,,,86,57
13670,note_on,10,0,0,,,,,,,,0,,,89,60
13680,set_tempo,10,1,0,,,,,,1463415,,,,,,
13680,note_on,0,0,0,,,,,,,,0,,,94,64
13736,control_change,56,0,0,,,,,,,,0,64,0,,
13800,note_on,64,0,0,,,,,,,,0,,,94,0
13800,note_on,0,0,0,,,,,,,,0,,,86,0
13800,note_on,0,0,0,,,,,,,,0,,,70,0
13800,note_on,0,0,0,,,,,,,,0,,,77,0
13800,note_on,0,0,0,,,,,,,,0,,,62,0
13800,note_on,0,0,0,,,,,,,,0,,,89,0
13800,note_on,0,0,0,,,,,,,,0,,,80,0
13920,set_tempo,120,1,0,,,,,,1411765,,,,,,
13920,note_on,0,0,0,,,,,,,,0,,,58,66
14400,time_signature,480,1,0,4,4,24,8,,,,,,,,
14400,set_tempo,0,1,0,,,,,,1846154,,,,,,
14880,set_tempo,480,1,0,,,,,,816327,,,,,,
14880,marker,0,1,0,,,,,,,,,,,,
14880,note_on,0,0,0,,,,,,,,0,,,58,0
14880,note_on,0,0,0,,,,,,,,0,,,81,41
14900,set_tempo,20,1,0,,,,,,833102,,,,,,
14919,note_on,19,0,0,,,,,,,,0,,,81,0
14924,note_on,5,0,0,,,,,,,,0,,,82,36
14963,note_on,39,0,0,,,,,,,,0,,,82,0
14968,note_on,5,0,0,,,,,,,,0,,,87,38
15000,set_tempo,32,1,0,,,,,,800427,,,,,,
15007,note_on,7,0,0,,,,,,,,0,,,87,0
15012,note_on,5,0,0,,,,,,,,0,,,84,36
15051,note_on,39,0,0,,,,,,,,0,,,84,0
15056,note_on,5,0,0,,,,,,,,0,,,82,36
15095,note_on,39,0,0,,,,,,,,0,,,82,0
15100,note_on,5,0,0,,,,,,,,0,,,80,36
15139,note_on,39,0,0,,,,,,,,0,,,80,0
15144,note_on,5,0,0,,,,,,,,0,,,79,33
15183,note_on,39,0,0,,,,,,,,0,,,79,0
15188,note_on,5,0,0,,,,,,,,0,,,77,37
15227,note_on,39,0,0,,,,,,,,0,,,77,0
15232,note_on,5,0,0,,,,,,,,0,,,75,37
15271,note_on,39,0,0,,,,,,,,0,,,75,0
15276,note_on,5,0,0,,,,,,,,0,,,74,36
15315,note_on,39,0,0,,,,,,,,0,,,74,0
15320,note_on,5,0,0,,,,,,,,0,,,72,36
15355,note_on,35,0,0,,,,,,,,0,,,72,0
15360,set_tempo,5,1,0,,,,,,1034483,,,,,,
15360,note_on,0,0,0,,,,,,,,0,,,70,41
15450,note_on,90,0,0,,,,,,,,0,,,70,0
15600,set_tempo,150,1,0,,,,,,1100917,,,,,,
15600,note_on,0,0,0,,,,,,,,0,,,55,27
15600,note_on,0,0,0,,,,,,,,0,,,58,27
15600,note_on,0,0,0,,,,,,,,0,,,63,30
15600,note_on,0,0,0,,,,,,,,0,,,46,27
15600,note_on,0,0,0,,,,,,,,0,,,39,27
15690,note_on,90,0,0,,,,,,,,0,,,39,0
15690,note_on,0,0,0,,,,,,,,0,,,63,0
15690,note_on,0,0,0,,,,,,,,0,,,55,0
15690,note_on,0,0,0,,,,,,,,0,,,58,0
15690,note_on,0,0,0,,,,,,,,0,,,46,0
15840,set_tempo,150,1,0,,,,,,1111111,,,,,,
15840,note_on,0,0,0,,,,,,,,0,,,65,32
15840,note_on,0,0,0,,,,,,,,0,,,58,28
15840,note_on,0,0,0,,,,,,,,0,,,56,28
15840,note_on,0,0,0,,,,,,,,0,,,46,27
15840,note_on,0,0,0,,,,,,,,0,,,39,27
15930,note_on,90,0,0,,,,,,,,0,,,39,0
15930,note_on,0,0,0,,,,,,,,0,,,56,0
15930,note_on,0,0,0,,,,,,,,0,,,65,0
15930,note_on,0,0,0,,,,,,,,0,,,58,0
15930,note_on,0,0,0,,,,,,,,0,,,46,0
16080,set_tempo,150,1,0,,,,,,1165049,,,,,,
16080,note_on,0,0,0,,,,,,,,0,,,66,31
16080,note_on,0,0,0,,,,,,,,0,,,57,27
16080,note_on,0,0,0,,,,,,,,0,,,58,27
16080,note_on,0,0,0,,,,,,,,0,,,46,27
16080,note_on,0,0,0,,,,,,,,0,,,39,27
16170,note_on,90,0,0,,,,,,,,0,,,39,0
16170,note_on,0,0,0,,,,,,,,0,,,58,0
16170,note_on,0,0,0,,,,,,,,0,,,66,0
16170,note_on,0,0,0,,,,,,,,0,,,57,0
16170,note_on,0,0,0,,,,,,,,0,,,46,0
16320,set_tempo,150,1,0,,,,,,1331262,,,,,,
16320,note_on,0,0,0,,,,,,,,0,,,58,29
16320,note_on,0,0,0,,,,,,,,0,,,67,33
16320,note_on,0,0,0,,,,,,,,0,,,46,29
16320,note_on,0,0,0,,,,,,,,0,,,39,29
16321,set_tempo,1,1,0,,,,,,1304348,,,,,,
16362,control_change,41,0,0,,,,,,,,0,64,127,,
16560,note_on,198,0,0,,,,,,,,0,,,67,0
16560,note_on,0,0,0,,,,,,,,0,,,58,0
16560,note_on,0,0,0,,,,,,,,0,,,55,27
16560,note_on,0,0,0,,,,,,,,0,,,63,30
16576,control_change,16,0,0,,,,,,,,0,64,0,,
16680,note_on,104,0,0,,,,,,,,0,,,63,0
16680,note_on,0,0,0,,,,,,,,0,,,55,0
16800,set_tempo,120,1,0,,,,,,851064,,,,,,
16800,note_on,0,0,0,,,,,,,,0,,,46,0
16800,note_on,0,0,0,,,,,,,,0,,,39,0
16800,note_on,0,0,0,,,,,,,,0,,,81,41
16829,note_on,29,0,0,,,,,,,,0,,,81,0
16834,note_on,5,0,0,,,,,,,,0,,,82,36
16863,note_on,29,0,0,,,,,,,,0,,,82,0
16868,note_on,5,0,0,,,,,,,,0,,,91,36
16897,note_on,29,0,0,,,,,,,,0,,,91,0
16900,set_tempo,3,1,0,,,,,,821918,,,,,,
16902,note_on,2,0,0,,,,,,,,0,,,89,36
16931,note_on,29,0,0,,,,,,,,0,,,89,0
16936,note_on,5,0,0,,,,,,,,0,,,87,36
16965,note_on,29,0,0,,,,,,,,0,,,87,0
16970,note_on,5,0,0,,,,,,,,0,,,86,36
16999,note_on,29,0,0,,,,,,,,0,,,86,0
17004,note_on,5,0,0,,,,,,,,0,,,84,36
17033,note_on,29,0,0,,,,,,,,0,,,84,0
17038,note_on,5,0,0,,,,,,,,0,,,82,36
17067,note_on,29,0,0,,,,,,,,0,,,82,0
17072,note_on,5,0,0,,,,,,,,0,,,80,36
17101,note_on,29,0,0,,,,,,,,0,,,80,0
17106,note_on,5,0,0,,,,,,,,0,,,79,33
17135,note_on,29,0,0,,,,,,,,0,,,79,0
17140,note_on,5,0,0,,,,,,,,0,,,77,37
17169,note_on,29,0,0,,,,,,,,0,,,77,0
17174,note_on,5,0,0,,,,,,,,0,,,75,37
17203,note_on,29,0,0,,,,,,,,0,,,75,0
17208,note_on,5,0,0,,,,,,,,0,,,74,36
17237,note_on,29,0,0,,,,,,,,0,,,74,0
17242,note_on,5,0,0,,,,,,,,0,,,72,36
17275,note_on,33,0,0,,,,,,,,0,,,72,0
17280,set_tempo,5,1,0,,,,,,1081081,,,,,,
17280,note_on,0,0,0,,,,,,,,0,,,70,41
17370,note_on,90,0,0,,,,,,,,0,,,70,0
17520,set_tempo,150,1,0,,,,,,1132075,,,,,,
17520,note_on,0,0,0,,,,,,,,0,,,63,26
17520,note_on,0,0,0,,,,,,,,0,,,55,26
17520,note_on,0,0,0,,,,,,,,0,,,58,26
17520,note_on,0,0,0,,,,,,,,0,,,46,27
17520,note_on,0,0,0,,,,,,,,0,,,39,27
17610,note_on,90,0,0,,,,,,,,0,,,39,0
17610,note_on,0,0,0,,,,,,,,0,,,58,0
17610,note_on,0,0,0,,,,,,,,0,,,63,0
17610,note_on,0,0,0,,,,,,,,0,,,55,0
17610,note_on,0,0,0,,,,,,,,0,,,46,0
17760,set_tempo,150,1,0,,,,,,1250000,,,,,,
17760,note_on,0,0,0,,,,,,,,0,,,56,28
17760,note_on,0,0,0,,,,,,,,0,,,62,28
17760,note_on,0,0,0,,,,,,,,0,,,65,32
17760,note_on,0,0,0,,,,,,,,0,,,39,29
17760,note_on,0,0,0,,,,,,,,0,,,46,29
17850,note_on,90,0,0,,,,,,,,0,,,46,0
17850,note_on,0,0,0,,,,,,,,0,,,65,0
17850,note_on,0,0,0,,,,,,,,0,,,56,0
17850,note_on,0,0,0,,,,,,,,0,,,62,0
17850,note_on,0,0,0,,,,,,,,0,,,39,0
18000,set_tempo,150,1,0,,,,,,1411765,,,,,,
18000,note_on,0,0,0,,,,,,,,0,,,58,27
18000,note_on,0,0,0,,,,,,,,0,,,67,30
18000,note_on,0,0,0,,,,,,,,0,,,39,27
18000,note_on,0,0,0,,,,,,,,0,,,46,27
18090,note_on,90,0,0,,,,,,,,0,,,46,0
18090,note_on,0,0,0,,,,,,,,0,,,58,0
18090,note_on,0,0,0,,,,,,,,0,,,67,0
18090,note_on,0,0,0,,,,,,,,0,,,39,0
18240,set_tempo,150,1,0,,,,,,1690141,,,,,,
18240,note_on,0,0,0,,,,,,,,0,,,55,27
18240,note_on,0,0,0,,,,,,,,0,,,63,30
18240,note_on,0,0,0,,,,,,,,0,,,39,27
18240,note_on,0,0,0,,,,,,,,0,,,46,27
18700,note_on,460,0,0,,,,,,,,0,,,46,0
18700,note_on,0,0,0,,,,,,,,0,,,55,0
18700,note_on,0,0,0,,,,,,,,0,,,63,0
18700,note_on,0,0,0,,,,,,,,0,,,39,0
18720,set_tempo,20,1,0,,,,,,937500,,,,,,
18720,note_on,0,0,0,,,,,,,,0,,,93,41
18750,note_on,30,0,0,,,,,,,,0,,,93,0
18752,note_on,2,0,0,,,,,,,,0,,,94,36
18782,note_on,30,0,0,,,,,,,,0,,,94,0
18784,note_on,2,0,0,,,,,,,,0,,,99,38
18808,note_on,24,0,0,,,,,,,,0,,,99,0
18810,note_on,2,0,0,,,,,,,,0,,,96,36
18834,note_on,24,0,0,,,,,,,,0,,,96,0
18836,note_on,2,0,0,,,,,,,,0,,,94,36
18860,note_on,24,0,0,,,,,,,,0,,,94,0
18862,note_on,2,0,0,,,,,,,,0,,,92,36
18886,note_on,24,0,0,,,,,,,,0,,,92,0
18888,note_on,2,0,0,,,,,,,,0,,,91,33
18912,note_on,24,0,0,,,,,,,,0,,,91,0
18914,note_on,2,0,0,,,,,,,,0,,,89,37
18938,note_on,24,0,0,,,,,,,,0,,,89,0
18940,note_on,2,0,0,,,,,,,,0,,,87,37
18964,note_on,24,0,0,,,,,,,,0,,,87,0
18966,note_on,2,0,0,,,,,,,,0,,,86,36
18990,note_on,24,0,0,,,,,,,,0,,,86,0
18992,note_on,2,0,0,,,,,,,,0,,,84,36
19016,note_on,24,0,0,,,,,,,,0,,,84,0
19018,note_on,2,0,0,,,,,,,,0,,,82,36
19042,note_on,24,0,0,,,,,,,,0,,,82,0
19044,note_on,2,0,0,,,,,,,,0,,,80,36
19068,note_on,24,0,0,,,,,,,,0,,,80,0
19070,note_on,2,0,0,,,,,,,,0,,,79,36
19094,note_on,24,0,0,,,,,,,,0,,,79,0
19096,note_on,2,0,0,,,,,,,,0,,,77,36
19120,note_on,24,0,0,,,,,,,,0,,,77,0
19122,note_on,2,0,0,,,,,,,,0,,,75,36
19146,note_on,24,0,0,,,,,,,,0,,,75,0
19148,note_on,2,0,0,,,,,,,,0,,,74,36
19172,note_on,24,0,0,,,,,,,,0,,,74,0
19176,note_on,4,0,0,,,,,,,,0,,,72,36
19200,set_tempo,24,1,0,,,,,,1061947,,,,,,
19200,note_on,0,0,0,,,,,,,,0,,,72,0
19200,note_on,0,0,0,,,,,,,,0,,,70,41
19290,note_on,90,0,0,,,,,,,,0,,,70,0
19420,set_tempo,130,1,0,,,,,,1153846,,,,,,
19440,set_tempo,20,1,0,,,,,,1111111,,,,,,
19440,note_on,0,0,0,,,,,,,,0,,,63,33
19440,note_on,0,0,0,,,,,,,,0,,,58,29
19440,note_on,0,0,0,,,,,,,,0,,,55,29
19440,note_on,0,0,0,,,,,,,,0,,,39,29
19440,note_on,0,0,0,,,,,,,,0,,,46,29
19530,note_on,90,0,0,,,,,,,,0,,,46,0
19530,note_on,0,0,0,,,,,,,,0,,,55,0
19530,note_on,0,0,0,,,,,,,,0,,,63,0
19530,note_on,0,0,0,,,,,,,,0,,,58,0
19530,note_on,0,0,0,,,,,,,,0,,,39,0
19680,set_tempo,150,1,0,,,,,,1153846,,,,,,
19680,note_on,0,0,0,,,,,,,,0,,,65,36
19680,note_on,0,0,0,,,,,,,,0,,,58,31
19680,note_on,0,0,0,,,,,,,,0,,,56,31
19680,note_on,0,0,0,,,,,,,,0,,,39,32
19680,note_on,0,0,0,,,,,,,,0,,,46,32
19770,note_on,90,0,0,,,,,,,,0,,,46,0
19770,note_on,0,0,0,,,,,,,,0,,,56,0
19770,note_on,0,0,0,,,,,,,,0,,,65,0
19770,note_on,0,0,0,,,,,,,,0,,,58,0
19770,note_on,0,0,0,,,,,,,,0,,,39,0
19920,set_tempo,150,1,0,,,,,,1263158,,,,,,
19920,note_on,0,0,0,,,,,,,,0,,,66,35
19920,note_on,0,0,0,,,,,,,,0,,,58,30
19920,note_on,0,0,0,,,,,,,,0,,,57,30
19920,note_on,0,0,0,,,,,,,,0,,,39,30
19920,note_on,0,0,0,,,,,,,,0,,,46,30
20010,note_on,90,0,0,,,,,,,,0,,,46,0
20010,note_on,0,0,0,,,,,,,,0,,,57,0
20010,note_on,0,0,0,,,,,,,,0,,,66,0
20010,note_on,0,0,0,,,,,,,,0,,,58,0
20010,note_on,0,0,0,,,,,,,,0,,,39,0
20160,set_tempo,150,1,0,,,,,,1395349,,,,,,
20160,note_on,0,0,0,,,,,,,,0,,,58,32
20160,note_on,0,0,0,,,,,,,,0,,,67,36
20160,note_on,0,0,0,,,,,,,,0,,,39,32
20160,note_on,0,0,0,,,,,,,,0,,,46,32
20199,control_change,39,0,0,,,,,,,,0,64,127,,
20400,set_tempo,201,1,0,,,,,,1690141,,,,,,
20400,note_on,0,0,0,,,,,,,,0,,,67,0
20400,note_on,0,0,0,,,,,,,,0,,,58,0
20400,note_on,0,0,0,,,,,,,,0,,,55,29
20400,note_on,0,0,0,,,,,,,,0,,,63,33
20413,control_change,13,0,0,,,,,,,,0,64,0,,
20520,note_on,107,0,0,,,,,,,,0,,,63,0
20520,note_on,0,0,0,,,,,,,,0,,,55,0
20640,set_tempo,120,1,0,,,,,,1212121,,,,,,
20640,note_on,0,0,0,,,,,,,,0,,,39,0
20640,note_on,0,0,0,,,,,,,,0,,,46,0
20640,note_on,0,0,0,,,,,,,,0,,,93,41
20669,note_on,29,0,0,,,,,,,,0,,,93,0
20671,note_on,2,0,0,,,,,,,,0,,,94,36
20700,note_on,29,0,0,,,,,,,,0,,,94,0
20702,note_on,2,0,0,,,,,,,,0,,,103,36
20722,note_on,20,0,0,,,,,,,,0,,,103,0
20724,note_on,2,0,0,,,,,,,,0,,,101,36
20744,note_on,20,0,0,,,,,,,,0,,,101,0
20746,note_on,2,0,0,,,,,,,,0,,,99,36
20766,note_on,20,0,0,,,,,,,,0,,,99,0
20768,note_on,2,0,0,,,,,,,,0,,,98,36
20788,note_on,20,0,0,,,,,,,,0,,,98,0
20790,note_on,2,0,0,,,,,,,,0,,,96,36
20810,note_on,20,0,0,,,,,,,,0,,,96,0
20812,note_on,2,0,0,,,,,,,,0,,,94,36
20832,note_on,20,0,0,,,,,,,,0,,,94,0
20834,note_on,2,0,0,,,,,,,,0,,,92,36
20854,note_on,20,0,0,,,,,,,,0,,,92,0
20856,note_on,2,0,0,,,,,,,,0,,,91,33
20876,note_on,20,0,0,,,,,,,,0,,,91,0
20878,note_on,2,0,0,,,,,,,,0,,,89,37
20898,note_on,20,0,0,,,,,,,,0,,,89,0
20900,note_on,2,0,0,,,,,,,,0,,,87,37
20920,note_on,20,0,0,,,,,,,,0,,,87,0
20922,note_on,2,0,0,,,,,,,,0,,,86,36
20942,note_on,20,0,0,,,,,,,,0,,,86,0
20944,note_on,2,0,0,,,,,,,,0,,,84,36
20964,note_on,20,0,0,,,,,,,,0,,,84,0
20966,note_on,2,0,0,,,,,,,,0,,,82,36
20986,note_on,20,0,0,,,,,,,,0,,,82,0
20988,note_on,2,0,0,,,,,,,,0,,,80,36
21008,note_on,20,0,0,,,,,,,,0,,,80,0
21010,note_on,2,0,0,,,,,,,,0,,,79,36
21030,note_on,20,0,0,,,,,,,,0,,,79,0
21032,note_on,2,0,0,,,,,,,,0,,,77,36
21052,note_on,20,0,0,,,,,,,,0,,,77,0
21054,note_on,2,0,0,,,,,,,,0,,,75,36
21074,note_on,20,0,0,,,,,,,,0,,,75,0
21076,note_on,2,0,0,,,,,,,,0,,,74,36
21096,note_on,20,0,0,,,,,,,,0,,,74,0
21098,note_on,2,0,0,,,,,,,,0,,,72,36
21118,note_on,20,0,0,,,,,,,,0,,,72,0
21120,set_tempo,2,1,0,,,,,,1081081,,,,,,
21120,note_on,0,0,0,,,,,,,,0,,,70,41
21210,note_on,90,0,0,,,,,,,,0,,,70,0
21360,set_tempo,150,1,0,,,,,,1165049,,,,,,
21360,note_on,0,0,0,,,,,,,,0,,,63,36
21360,note_on,0,0,0,,,,,,,,0,,,58,32
21360,note_on,0,0,0,,,,,,,,0,,,55,32
21360,note_on,0,0,0,,,,,,,,0,,,39,31
21360,note_on,0,0,0,,,,,,,,0,,,46,31
21450,note_on,90,0,0,,,,,,,,0,,,46,0
21450,note_on,0,0,0,,,,,,,,0,,,55,0
21450,note_on,0,0,0,,,,,,,,0,,,63,0
21450,note_on,0,0,0,,,,,,,,0,,,58,0
21450,note_on,0,0,0,,,,,,,,0,,,39,0
21600,set_tempo,150,1,0,,,,,,1237113,,,,,,
21600,note_on,0,0,0,,,,,,,,0,,,56,33
21600,note_on,0,0,0,,,,,,,,0,,,62,33
21600,note_on,0,0,0,,,,,,,,0,,,65,37
21600,note_on,0,0,0,,,,,,,,0,,,39,32
21600,note_on,0,0,0,,,,,,,,0,,,47,32
21690,note_on,90,0,0,,,,,,,,0,,,47,0
21690,note_on,0,0,0,,,,,,,,0,,,65,0
21690,note_on,0,0,0,,,,,,,,0,,,56,0
21690,note_on,0,0,0,,,,,,,,0,,,62,0
21690,note_on,0,0,0,,,,,,,,0,,,39,0
21840,set_tempo,150,1,0,,,,,,1538462,,,,,,
21840,note_on,0,0,0,,,,,,,,0,,,62,32
21840,note_on,0,0,0,,,,,,,,0,,,56,32
21840,note_on,0,0,0,,,,,,,,0,,,67,36
21840,note_on,0,0,0,,,,,,,,0,,,46,31
21840,note_on,0,0,0,,,,,,,,0,,,39,31
21930,note_on,90,0,0,,,,,,,,0,,,39,0
21930,note_on,0,0,0,,,,,,,,0,,,67,0
21930,note_on,0,0,0,,,,,,,,0,,,62,0
21930,note_on,0,0,0,,,,,,,,0,,,56,0
21930,note_on,0,0,0,,,,,,,,0,,,46,0
22080,set_tempo,150,1,0,,,,,,1666667,,,,,,
22080,note_on,0,0,0,,,,,,,,0,,,55,30
22080,note_on,0,0,0,,,,,,,,0,,,63,35
22080,note_on,0,0,0,,,,,,,,0,,,39,29
22080,note_on,0,0,0,,,,,,,,0,,,51,29
22080,note_on,0,0,0,,,,,,,,0,,,46,29
22540,note_on,460,0,0,,,,,,,,0,,,46,0
22540,note_on,0,0,0,,,,,,,,0,,,39,0
22540,note_on,0,0,0,,,,,,,,0,,,55,0
22540,note_on,0,0,0,,,,,,,,0,,,63,0
22540,note_on,0,0,0,,,,,,,,0,,,51,0
22560,set_tempo,20,1,0,,,,,,779221,,,,,,
22560,note_on,0,0,0,,,,,,,,0,,,46,53
22591,control_change,31,0,0,,,,,,,,0,64,127,,
22599,note_on,8,0,0,,,,,,,,0,,,46,0
22600,note_on,1,0,0,,,,,,,,0,,,45,53
22639,note_on,39,0,0,,,,,,,,0,,,45,0
22640,note_on,1,0,0,,,,,,,,0,,,44,53
22679,note_on,39,0,0,,,,,,,,0,,,44,0
22680,note_on,1,0,0,,,,,,,,0,,,43,53
22719,note_on,39,0,0,,,,,,,,0,,,43,0
22720,note_on,1,0,0,,,,,,,,0,,,42,53
22759,note_on,39,0,0,,,,,,,,0,,,42,0
22760,note_on,1,0,0,,,,,,,,0,,,41,53
22799,note_on,39,0,0,,,,,,,,0,,,41,0
22800,note_on,1,0,0,,,,,,,,0,,,40,55
22839,note_on,39,0,0,,,,,,,,0,,,40,0
22840,note_on,1,0,0,,,,,,,,0,,,39,57
22879,note_on,39,0,0,,,,,,,,0,,,39,0
22880,note_on,1,0,0,,,,,,,,0,,,38,59
22919,note_on,39,0,0,,,,,,,,0,,,38,0
22920,note_on,1,0,0,,,,,,,,0,,,37,62
22959,note_on,39,0,0,,,,,,,,0,,,37,0
22960,note_on,1,0,0,,,,,,,,0,,,36,63
22999,note_on,39,0,0,,,,,,,,0,,,36,0
23000,note_on,1,0,0,,,,,,,,0,,,35,65
23039,note_on,39,0,0,,,,,,,,0,,,35,0
23040,set_tempo,1,1,0,,,,,,1132075,,,,,,
23040,note_on,0,0,0,,,,,,,,0,,,34,80
23042,control_change,2,0,0,,,,,,,,0,64,0,,
23100,note_on,58,0,0,,,,,,,,0,,,34,0
23280,set_tempo,180,1,0,,,,,,1090909,,,,,,
23280,note_on,0,0,0,,,,,,,,0,,,62,50
23280,note_on,0,0,0,,,,,,,,0,,,58,45
23280,note_on,0,0,0,,,,,,,,0,,,46,41
23280,note_on,0,0,0,,,,,,,,0,,,53,41
23370,note_on,90,0,0,,,,,,,,0,,,53,0
23370,note_on,0,0,0,,,,,,,,0,,,62,0
23370,note_on,0,0,0,,,,,,,,0,,,58,0
23370,note_on,0,0,0,,,,,,,,0,,,46,0
23520,set_tempo,150,1,0,,,,,,1132075,,,,,,
23520,note_on,0,0,0,,,,,,,,0,,,60,50
23520,note_on,0,0,0,,,,,,,,0,,,58,50
23520,note_on,0,0,0,,,,,,,,0,,,63,56
23520,note_on,0,0,0,,,,,,,,0,,,54,45
23520,note_on,0,0,0,,,,,,,,0,,,46,45
23610,note_on,90,0,0,,,,,,,,0,,,46,0
23610,note_on,0,0,0,,,,,,,,0,,,63,0
23610,note_on,0,0,0,,,,,,,,0,,,60,0
23610,note_on,0,0,0,,,,,,,,0,,,58,0
23610,note_on,0,0,0,,,,,,,,0,,,54,0
23760,set_tempo,150,1,0,,,,,,1200000,,,,,,
23760,note_on,0,0,0,,,,,,,,0,,,58,45
23760,note_on,0,0,0,,,,,,,,0,,,61,45
23760,note_on,0,0,0,,,,,,,,0,,,64,51
23760,note_on,0,0,0,,,,,,,,0,,,46,43
23760,note_on,0,0,0,,,,,,,,0,,,55,43
23850,note_on,90,0,0,,,,,,,,0,,,55,0
23850,note_on,0,0,0,,,,,,,,0,,,64,0
23850,note_on,0,0,0,,,,,,,,0,,,58,0
23850,note_on,0,0,0,,,,,,,,0,,,61,0
23850,note_on,0,0,0,,,,,,,,0,,,46,0
24000,set_tempo,150,1,0,,,,,,1304348,,,,,,
24000,note_on,0,0,0,,,,,,,,0,,,62,45
24000,note_on,0,0,0,,,,,,,,0,,,65,52
24000,control_change,0,0,0,,,,,,,,0,64,127,,
24000,note_on,0,0,0,,,,,,,,0,,,46,45
24000,note_on,0,0,0,,,,,,,,0,,,58,45
24238,note_on,238,0,0,,,,,,,,0,,,58,0
24240,set_tempo,2,1,0,,,,,,1445783,,,,,,
24240,note_on,0,0,0,,,,,,,,0,,,62,0
24240,note_on,0,0,0,,,,,,,,0,,,65,0
24240,note_on,0,0,0,,,,,,,,0,,,58,44
24240,note_on,0,0,0,,,,,,,,0,,,62,49
24240,note_on,0,0,0,,,,,,,,0,,,53,44
24253,control_change,13,0,0,,,,,,,,0,64,0,,
24360,note_on,107,0,0,,,,,,,,0,,,53,0
24360,note_on,0,0,0,,,,,,,,0,,,62,0
24360,note_on,0,0,0,,,,,,,,0,,,58,0
24480,set_tempo,120,1,0,,,,,,839161,,,,,,
24480,note_on,0,0,0,,,,,,,,0,,,46,0
24480,note_on,0,0,0,,,,,,,,0,,,34,55
24501,control_change,21,0,0,,,,,,,,0,64,127,,
24516,note_on,15,0,0,,,,,,,,0,,,34,0
24517,note_on,1,0,0,,,,,,,,0,,,36,56
24553,note_on,36,0,0,,,,,,,,0,,,36,0
24554,note_on,1,0,0,,,,,,,,0,,,38,57
24590,note_on,36,0,0,,,,,,,,0,,,38,0
24591,note_on,1,0,0,,,,,,,,0,,,39,59
24627,note_on,36,0,0,,,,,,,,0,,,39,0
24628,note_on,1,0,0,,,,,,,,0,,,41,60
24664,note_on,36,0,0,,,,,,,,0,,,41,0
24665,note_on,1,0,0,,,,,,,,0,,,43,62
24701,note_on,36,0,0,,,,,,,,0,,,43,0
24702,note_on,1,0,0,,,,,,,,0,,,45,63
24738,note_on,36,0,0,,,,,,,,0,,,45,0
24739,note_on,1,0,0,,,,,,,,0,,,46,63
24775,note_on,36,0,0,,,,,,,,0,,,46,0
24776,note_on,1,0,0,,,,,,,,0,,,48,64
24812,note_on,36,0,0,,,,,,,,0,,,48,0
24813,note_on,1,0,0,,,,,,,,0,,,50,65
24849,note_on,36,0,0,,,,,,,,0,,,50,0
24850,note_on,1,0,0,,,,,,,,0,,,51,67
24886,note_on,36,0,0,,,,,,,,0,,,51,0
24887,note_on,1,0,0,,,,,,,,0,,,52,69
24923,note_on,36,0,0,,,,,,,,0,,,52,0
24924,note_on,1,0,0,,,,,,,,0,,,55,70
24959,note_on,35,0,0,,,,,,,,0,,,55,0
24960,set_tempo,1,1,0,,,,,,1165049,,,,,,
24960,note_on,0,0,0,,,,,,,,0,,,53,63
24970,control_change,10,0,0,,,,,,,,0,64,0,,
25200,set_tempo,230,1,0,,,,,,1132075,,,,,,
25200,note_on,0,0,0,,,,,,,,0,,,62,49
25200,note_on,0,0,0,,,,,,,,0,,,58,44
25200,note_on,0,0,0,,,,,,,,0,,,41,41
25200,note_on,0,0,0,,,,,,,,0,,,46,41
25290,note_on,90,0,0,,,,,,,,0,,,46,0
25290,note_on,0,0,0,,,,,,,,0,,,58,0
25290,note_on,0,0,0,,,,,,,,0,,,41,0
25290,note_on,0,0,0,,,,,,,,0,,,62,0
25440,set_tempo,150,1,0,,,,,,1188119,,,,,,
25440,note_on,0,0,0,,,,,,,,0,,,57,46
25440,note_on,0,0,0,,,,,,,,0,,,63,53
25440,note_on,0,0,0,,,,,,,,0,,,48,44
25440,note_on,0,0,0,,,,,,,,0,,,41,44
25530,note_on,90,0,0,,,,,,,,0,,,41,0
25530,note_on,0,0,0,,,,,,,,0,,,63,0
25530,note_on,0,0,0,,,,,,,,0,,,48,0
25530,note_on,0,0,0,,,,,,,,0,,,57,0
25660,set_tempo,130,1,0,,,,,,1363636,,,,,,
25680,set_tempo,20,1,0,,,,,,1304348,,,,,,
25680,note_on,0,0,0,,,,,,,,0,,,57,45
25680,note_on,0,0,0,,,,,,,,0,,,65,50
25680,note_on,0,0,0,,,,,,,,0,,,50,43
25680,note_on,0,0,0,,,,,,,,0,,,41,43
25770,note_on,90,0,0,,,,,,,,0,,,41,0
25770,note_on,0,0,0,,,,,,,,0,,,65,0
25770,note_on,0,0,0,,,,,,,,0,,,50,0
25770,note_on,0,0,0,,,,,,,,0,,,57,0
25920,set_tempo,150,1,0,,,,,,1481481,,,,,,
25920,note_on,0,0,0,,,,,,,,0,,,58,45
25920,note_on,0,0,0,,,,,,,,0,,,62,51
25920,note_on,0,0,0,,,,,,,,0,,,46,44
25958,control_change,38,0,0,,,,,,,,0,64,127,,
26160,note_on,202,0,0,,,,,,,,0,,,53,0
26160,note_on,0,0,0,,,,,,,,0,,,34,48
26171,control_change,11,0,0,,,,,,,,0,64,0,,
26280,note_on,109,0,0,,,,,,,,0,,,34,0
26380,note_on,100,0,0,,,,,,,,0,,,58,0
26380,note_on,0,0,0,,,,,,,,0,,,62,0
26400,set_tempo,20,1,0,,,,,,697674,,,,,,
26400,note_on,0,0,0,,,,,,,,0,,,46,0
26400,note_on,0,0,0,,,,,,,,0,,,70,58
26439,note_on,39,0,0,,,,,,,,0,,,70,0
26440,note_on,1,0,0,,,,,,,,0,,,69,58
26479,note_on,39,0,0,,,,,,,,0,,,69,0
26480,note_on,1,0,0,,,,,,,,0,,,68,58
26519,note_on,39,0,0,,,,,,,,0,,,68,0
26520,note_on,1,0,0,,,,,,,,0,,,67,58
26559,note_on,39,0,0,,,,,,,,0,,,67,0
26560,note_on,1,0,0,,,,,,,,0,,,66,58
26599,note_on,39,0,0,,,,,,,,0,,,66,0
26600,note_on,1,0,0,,,,,,,,0,,,65,58
26639,note_on,39,0,0,,,,,,,,0,,,65,0
26640,note_on,1,0,0,,,,,,,,0,,,64,60
26679,note_on,39,0,0,,,,,,,,0,,,64,0
26680,note_on,1,0,0,,,,,,,,0,,,63,63
26719,note_on,39,0,0,,,,,,,,0,,,63,0
26720,note_on,1,0,0,,,,,,,,0,,,62,64
26759,note_on,39,0,0,,,,,,,,0,,,62,0
26760,note_on,1,0,0,,,,,,,,0,,,61,67
26799,note_on,39,0,0,,,,,,,,0,,,61,0
26800,note_on,1,0,0,,,,,,,,0,,,60,70
26839,note_on,39,0,0,,,,,,,,0,,,60,0
26840,note_on,1,0,0,,,,,,,,0,,,59,72
26879,note_on,39,0,0,,,,,,,,0,,,59,0
26880,set_tempo,1,1,0,,,,,,1000000,,,,,,
26880,note_on,0,0,0,,,,,,,,0,,,58,87
26940,note_on,60,0,0,,,,,,,,0,,,58,0
27120,set_tempo,180,1,0,,,,,,1090909,,,,,,
27120,note_on,0,0,0,,,,,,,,0,,,74,53
27120,note_on,0,0,0,,,,,,,,0,,,62,46
27120,note_on,0,0,0,,,,,,,,0,,,70,46
27120,note_on,0,0,0,,,,,,,,0,,,53,44
27120,note_on,0,0,0,,,,,,,,0,,,58,44
27120,note_on,0,0,0,,,,,,,,0,,,46,44
27210,note_on,90,0,0,,,,,,,,0,,,46,0
27210,note_on,0,0,0,,,,,,,,0,,,62,0
27210,note_on,0,0,0,,,,,,,,0,,,70,0
27210,note_on,0,0,0,,,,,,,,0,,,74,0
27210,note_on,0,0,0,,,,,,,,0,,,58,0
27210,note_on,0,0,0,,,,,,,,0,,,53,0
27360,set_tempo,150,1,0,,,,,,1111111,,,,,,
27360,note_on,0,0,0,,,,,,,,0,,,63,51
27360,note_on,0,0,0,,,,,,,,0,,,75,57
27360,note_on,0,0,0,,,,,,,,0,,,70,51
27360,note_on,0,0,0,,,,,,,,0,,,60,48
27360,note_on,0,0,0,,,,,,,,0,,,54,48
27360,note_on,0,0,0,,,,,,,,0,,,46,48
27450,note_on,90,0,0,,,,,,,,0,,,46,0
27450,note_on,0,0,0,,,,,,,,0,,,75,0
27450,note_on,0,0,0,,,,,,,,0,,,70,0
27450,note_on,0,0,0,,,,,,,,0,,,63,0
27450,note_on,0,0,0,,,,,,,,0,,,54,0
27450,note_on,0,0,0,,,,,,,,0,,,60,0
27600,set_tempo,150,1,0,,,,,,1200000,,,,,,
27600,note_on,0,0,0,,,,,,,,0,,,76,54
27600,note_on,0,0,0,,,,,,,,0,,,70,48
27600,note_on,0,0,0,,,,,,,,0,,,64,48
27600,note_on,0,0,0,,,,,,,,0,,,55,45
27600,note_on,0,0,0,,,,,,,,0,,,46,45
27600,note_on,0,0,0,,,,,,,,0,,,61,48
27690,note_on,90,0,0,,,,,,,,0,,,61,0
27690,note_on,0,0,0,,,,,,,,0,,,70,0
27690,note_on,0,0,0,,,,,,,,0,,,64,0
27690,note_on,0,0,0,,,,,,,,0,,,76,0
27690,note_on,0,0,0,,,,,,,,0,,,46,0
27690,note_on,0,0,0,,,,,,,,0,,,55,0
27840,set_tempo,150,1,0,,,,,,1304348,,,,,,
27840,note_on,0,0,0,,,,,,,,0,,,70,45
27840,note_on,0,0,0,,,,,,,,0,,,65,45
27840,note_on,0,0,0,,,,,,,,0,,,77,55
27840,note_on,0,0,0,,,,,,,,0,,,53,46
27840,note_on,0,0,0,,,,,,,,0,,,46,46
27840,note_on,0,0,0,,,,,,,,0,,,62,53
27873,control_change,33,0,0,,,,,,,,0,64,127,,
28080,set_tempo,207,1,0,,,,,,1428571,,,,,,
28080,note_on,0,0,0,,,,,,,,0,,,62,0
28080,note_on,0,0,0,,,,,,,,0,,,77,0
28080,note_on,0,0,0,,,,,,,,0,,,74,52
28080,note_on,0,0,0,,,,,,,,0,,,58,52
28103,control_change,23,0,0,,,,,,,,0,64,0,,
28200,note_on,97,0,0,,,,,,,,0,,,58,0
28200,note_on,0,0,0,,,,,,,,0,,,74,0
28300,note_on,100,0,0,,,,,,,,0,,,70,0
28300,note_on,0,0,0,,,,,,,,0,,,65,0
28320,set_tempo,20,1,0,,,,,,909091,,,,,,
28320,note_on,0,0,0,,,,,,,,0,,,53,0
28320,note_on,0,0,0,,,,,,,,0,,,46,0
28320,note_on,0,0,0,,,,,,,,0,,,46,49
28356,note_on,36,0,0,,,,,,,,0,,,46,0
28357,note_on,1,0,0,,,,,,,,0,,,48,50
28393,note_on,36,0,0,,,,,,,,0,,,48,0
28394,note_on,1,0,0,,,,,,,,0,,,50,51
28430,note_on,36,0,0,,,,,,,,0,,,50,0
28431,note_on,1,0,0,,,,,,,,0,,,51,53
28467,note_on,36,0,0,,,,,,,,0,,,51,0
28468,note_on,1,0,0,,,,,,,,0,,,53,54
28504,note_on,36,0,0,,,,,,,,0,,,53,0
28505,note_on,1,0,0,,,,,,,,0,,,55,55
28541,note_on,36,0,0,,,,,,,,0,,,55,0
28542,note_on,1,0,0,,,,,,,,0,,,57,55
28578,note_on,36,0,0,,,,,,,,0,,,57,0
28579,note_on,1,0,0,,,,,,,,0,,,58,56
28615,note_on,36,0,0,,,,,,,,0,,,58,0
28616,note_on,1,0,0,,,,,,,,0,,,60,57
28652,note_on,36,0,0,,,,,,,,0,,,60,0
28653,note_on,1,0,0,,,,,,,,0,,,62,58
28689,note_on,36,0,0,,,,,,,,0,,,62,0
28690,note_on,1,0,0,,,,,,,,0,,,63,60
28726,note_on,36,0,0,,,,,,,,0,,,63,0
28727,note_on,1,0,0,,,,,,,,0,,,64,62
28763,note_on,36,0,0,,,,,,,,0,,,64,0
28764,note_on,1,0,0,,,,,,,,0,,,67,63
28799,note_on,35,0,0,,,,,,,,0,,,67,0
28800,set_tempo,1,1,0,,,,,,1445783,,,,,,
28800,note_on,0,0,0,,,,,,,,0,,,65,55
29040,set_tempo,240,1,0,,,,,,1411765,,,,,,
29040,note_on,0,0,0,,,,,,,,0,,,74,42
29040,note_on,0,0,0,,,,,,,,0,,,68,36
29040,note_on,0,0,0,,,,,,,,0,,,53,35
29040,note_on,0,0,0,,,,,,,,0,,,59,35
29280,set_tempo,240,1,0,,,,,,1395349,,,,,,
29280,note_on,0,0,0,,,,,,,,0,,,59,0
29280,note_on,0,0,0,,,,,,,,0,,,68,0
29280,note_on,0,0,0,,,,,,,,0,,,53,0
29280,note_on,0,0,0,,,,,,,,0,,,74,0
29280,note_on,0,0,0,,,,,,,,0,,,69,41
29280,note_on,0,0,0,,,,,,,,0,,,75,45
29280,note_on,0,0,0,,,,,,,,0,,,53,36
29280,note_on,0,0,0,,,,,,,,0,,,60,36
29360,note_on,80,0,0,,,,,,,,0,,,65,0
29360,note_on,0,0,0,,,,,,,,0,,,65,43
29440,set_tempo,80,1,0,,,,,,1481481,,,,,,
29440,note_on,0,0,0,,,,,,,,0,,,65,0
29440,note_on,0,0,0,,,,,,,,0,,,67,37
29520,set_tempo,80,1,0,,,,,,1600000,,,,,,
29520,note_on,0,0,0,,,,,,,,0,,,67,0
29520,note_on,0,0,0,,,,,,,,0,,,53,0
29520,note_on,0,0,0,,,,,,,,0,,,69,0
29520,note_on,0,0,0,,,,,,,,0,,,75,0
29520,note_on,0,0,0,,,,,,,,0,,,60,0
29520,note_on,0,0,0,,,,,,,,0,,,72,36
29520,note_on,0,0,0,,,,,,,,0,,,63,43
29520,note_on,0,0,0,,,,,,,,0,,,77,41
29520,note_on,0,0,0,,,,,,,,0,,,53,32
29520,note_on,0,0,0,,,,,,,,0,,,65,36
29520,note_on,0,0,0,,,,,,,,0,,,57,32
29600,set_tempo,80,1,0,,,,,,1643836,,,,,,
29600,note_on,0,0,0,,,,,,,,0,,,63,0
29600,note_on,0,0,0,,,,,,,,0,,,60,39
29680,set_tempo,80,1,0,,,,,,2608696,,,,,,
29680,note_on,0,0,0,,,,,,,,0,,,60,0
29680,note_on,0,0,0,,,,,,,,0,,,62,38
29700,note_on,20,0,0,,,,,,,,0,,,62,0
29700,note_on,0,0,0,,,,,,,,0,,,65,0
29700,note_on,0,0,0,,,,,,,,0,,,46,32
29710,note_on,10,0,0,,,,,,,,0,,,53,32
29720,note_on,10,0,0,,,,,,,,0,,,62,36
29730,note_on,10,0,0,,,,,,,,0,,,58,36
29740,note_on,10,0,0,,,,,,,,0,,,65,36
29750,note_on,10,0,0,,,,,,,,0,,,70,36
29760,set_tempo,10,1,0,,,,,,1621622,,,,,,
29760,note_on,0,0,0,,,,,,,,0,,,53,0
29760,note_on,0,0,0,,,,,,,,0,,,77,0
29760,note_on,0,0,0,,,,,,,,0,,,72,0
29760,note_on,0,0,0,,,,,,,,0,,,57,0
29760,note_on,0,0,0,,,,,,,,0,,,74,38
30220,set_tempo,460,1,0,,,,,,1121495,,,,,,
30220,note_on,0,0,0,,,,,,,,0,,,74,0
30220,note_on,0,0,0,,,,,,,,0,,,58,0
30220,note_on,0,0,0,,,,,,,,0,,,53,0
30220,note_on,0,0,0,,,,,,,,0,,,70,0
30220,note_on,0,0,0,,,,,,,,0,,,46,0
30220,note_on,0,0,0,,,,,,,,0,,,62,0
30220,note_on,0,0,0,,,,,,,,0,,,65,0
30240,set_tempo,20,1,0,,,,,,1061947,,,,,,
30240,note_on,0,0,0,,,,,,,,0,,,82,46
30240,note_on,0,0,0,,,,,,,,0,,,73,46
30240,note_on,0,0,0,,,,,,,,0,,,77,46
30261,control_change,21,0,0,,,,,,,,0,64,127,,
30330,note_on,69,0,0,,,,,,,,0,,,77,0
30330,note_on,0,0,0,,,,,,,,0,,,73,0
30330,note_on,0,0,0,,,,,,,,0,,,82,0
30330,note_on,0,0,0,,,,,,,,0,,,81,38
30360,set_tempo,30,1,0,,,,,,952381,,,,,,
30360,note_on,0,0,0,,,,,,,,0,,,81,0
30360,note_on,0,0,0,,,,,,,,0,,,80,38
30360,note_on,0,0,0,,,,,,,,0,,,72,38
30405,note_on,45,0,0,,,,,,,,0,,,72,0
30405,note_on,0,0,0,,,,,,,,0,,,80,0
30405,note_on,0,0,0,,,,,,,,0,,,79,39
30405,note_on,0,0,0,,,,,,,,0,,,74,39
30405,note_on,0,0,0,,,,,,,,0,,,71,39
30420,set_tempo,15,1,0,,,,,,944882,,,,,,
30450,note_on,30,0,0,,,,,,,,0,,,71,0
30450,note_on,0,0,0,,,,,,,,0,,,74,0
30450,note_on,0,0,0,,,,,,,,0,,,79,0
30450,note_on,0,0,0,,,,,,,,0,,,70,41
30450,note_on,0,0,0,,,,,,,,0,,,78,41
30460,set_tempo,10,1,0,,,,,,937500,,,,,,
30495,note_on,35,0,0,,,,,,,,0,,,78,0
30495,note_on,0,0,0,,,,,,,,0,,,70,0
30495,note_on,0,0,0,,,,,,,,0,,,77,42
30495,note_on,0,0,0,,,,,,,,0,,,72,42
30495,note_on,0,0,0,,,,,,,,0,,,69,42
30500,set_tempo,5,1,0,,,,,,930233,,,,,,
30540,set_tempo,40,1,0,,,,,,923077,,,,,,
30540,note_on,0,0,0,,,,,,,,0,,,69,0
30540,note_on,0,0,0,,,,,,,,0,,,72,0
30540,note_on,0,0,0,,,,,,,,0,,,77,0
30540,note_on,0,0,0,,,,,,,,0,,,76,43
30540,note_on,0,0,0,,,,,,,,0,,,68,43
30580,set_tempo,40,1,0,,,,,,916031,,,,,,
30585,note_on,5,0,0,,,,,,,,0,,,68,0
30585,note_on,0,0,0,,,,,,,,0,,,76,0
30585,note_on,0,0,0,,,,,,,,0,,,75,44
30585,note_on,0,0,0,,,,,,,,0,,,70,44
30585,note_on,0,0,0,,,,,,,,0,,,67,44
30620,set_tempo,35,1,0,,,,,,909091,,,,,,
30630,note_on,10,0,0,,,,,,,,0,,,67,0
30630,note_on,0,0,0,,,,,,,,0,,,70,0
30630,note_on,0,0,0,,,,,,,,0,,,75,0
30630,note_on,0,0,0,,,,,,,,0,,,74,45
30630,note_on,0,0,0,,,,,,,,0,,,66,45
30660,set_tempo,30,1,0,,,,,,902256,,,,,,
30675,note_on,15,0,0,,,,,,,,0,,,66,0
30675,note_on,0,0,0,,,,,,,,0,,,74,0
30675,note_on,0,0,0,,,,,,,,0,,,65,46
30675,note_on,0,0,0,,,,,,,,0,,,68,46
30675,note_on,0,0,0,,,,,,,,0,,,73,46
30700,set_tempo,25,1,0,,,,,,895522,,,,,,
30720,set_tempo,20,1,0,,,,,,983607,,,,,,
30720,note_on,0,0,0,,,,,,,,0,,,73,0
30720,note_on,0,0,0,,,,,,,,0,,,68,0
30720,note_on,0,0,0,,,,,,,,0,,,65,0
30720,note_on,0,0,0,,,,,,,,0,,,64,48
30720,note_on,0,0,0,,,,,,,,0,,,72,48
30720,note_on,0,0,0,,,,,,,,0,,,67,48
30726,control_change,6,0,0,,,,,,,,0,64,0,,
30780,note_on,54,0,0,,,,,,,,0,,,67,0
30780,note_on,0,0,0,,,,,,,,0,,,72,0
30780,note_on,0,0,0,,,,,,,,0,,,64,0
30960,set_tempo,180,1,0,,,,,,930233,,,,,,
30960,note_on,0,0,0,,,,,,,,0,,,58,37
30960,note_on,0,0,0,,,,,,,,0,,,64,43
30960,note_on,0,0,0,,,,,,,,0,,,55,37
30960,note_on,0,0,0,,,,,,,,0,,,48,51
31000,note_on,40,0,0,,,,,,,,0,,,48,0
31000,note_on,0,0,0,,,,,,,,0,,,49,53
31020,set_tempo,20,1,0,,,,,,923077,,,,,,
31040,note_on,20,0,0,,,,,,,,0,,,49,0
31040,note_on,0,0,0,,,,,,,,0,,,48,54
31050,note_on,10,0,0,,,,,,,,0,,,55,0
31050,note_on,0,0,0,,,,,,,,0,,,58,0
31050,note_on,0,0,0,,,,,,,,0,,,64,0
31080,set_tempo,30,1,0,,,,,,916031,,,,,,
31080,note_on,0,0,0,,,,,,,,0,,,48,0
31080,note_on,0,0,0,,,,,,,,0,,,47,56
31120,note_on,40,0,0,,,,,,,,0,,,47,0
31120,note_on,0,0,0,,,,,,,,0,,,46,57
31140,set_tempo,20,1,0,,,,,,909091,,,,,,
31160,note_on,20,0,0,,,,,,,,0,,,46,0
31160,note_on,0,0,0,,,,,,,,0,,,45,58
31180,set_tempo,20,1,0,,,,,,902256,,,,,,
31200,set_tempo,20,1,0,,,,,,1043478,,,,,,
31200,note_on,0,0,0,,,,,,,,0,,,45,0
31200,note_on,0,0,0,,,,,,,,0,,,56,41
31200,note_on,0,0,0,,,,,,,,0,,,65,45
31200,note_on,0,0,0,,,,,,,,0,,,61,41
31200,note_on,0,0,0,,,,,,,,0,,,44,60
31290,note_on,90,0,0,,,,,,,,0,,,44,0
31290,note_on,0,0,0,,,,,,,,0,,,56,0
31290,note_on,0,0,0,,,,,,,,0,,,65,0
31290,note_on,0,0,0,,,,,,,,0,,,61,0
31440,set_tempo,150,1,0,,,,,,975610,,,,,,
31440,note_on,0,0,0,,,,,,,,0,,,59,37
31440,note_on,0,0,0,,,,,,,,0,,,62,37
31440,note_on,0,0,0,,,,,,,,0,,,68,43
31440,note_on,0,0,0,,,,,,,,0,,,41,52
31460,set_tempo,20,1,0,,,,,,983607,,,,,,
31474,note_on,14,0,0,,,,,,,,0,,,41,0
31474,note_on,0,0,0,,,,,,,,0,,,42,51
31480,set_tempo,6,1,0,,,,,,991736,,,,,,
31500,set_tempo,20,1,0,,,,,,1000000,,,,,,
31508,note_on,8,0,0,,,,,,,,0,,,42,0
31508,note_on,0,0,0,,,,,,,,0,,,41,50
31520,set_tempo,12,1,0,,,,,,1016949,,,,,,
31530,note_on,10,0,0,,,,,,,,0,,,68,0
31530,note_on,0,0,0,,,,,,,,0,,,59,0
31530,note_on,0,0,0,,,,,,,,0,,,62,0
31540,set_tempo,10,1,0,,,,,,1025641,,,,,,
31542,note_on,2,0,0,,,,,,,,0,,,41,0
31542,note_on,0,0,0,,,,,,,,0,,,40,50
31560,set_tempo,18,1,0,,,,,,1034483,,,,,,
31576,note_on,16,0,0,,,,,,,,0,,,40,0
31576,note_on,0,0,0,,,,,,,,0,,,39,49
31580,set_tempo,4,1,0,,,,,,1043478,,,,,,
31600,set_tempo,20,1,0,,,,,,1061947,,,,,,
31610,note_on,10,0,0,,,,,,,,0,,,39,0
31610,note_on,0,0,0,,,,,,,,0,,,38,48
31640,set_tempo,30,1,0,,,,,,1290323,,,,,,
31645,note_on,5,0,0,,,,,,,,0,,,38,0
31645,note_on,0,0,0,,,,,,,,0,,,37,46
31680,set_tempo,35,1,0,,,,,,1165049,,,,,,
31680,note_on,0,0,0,,,,,,,,0,,,37,0
31680,note_on,0,0,0,,,,,,,,0,,,67,43
31680,note_on,0,0,0,,,,,,,,0,,,64,37
31680,note_on,0,0,0,,,,,,,,0,,,36,41
31768,control_change,88,0,0,,,,,,,,0,64,127,,
31920,set_tempo,152,1,0,,,,,,1237113,,,,,,
31920,note_on,0,0,0,,,,,,,,0,,,36,0
31920,note_on,0,0,0,,,,,,,,0,,,64,0
31920,note_on,0,0,0,,,,,,,,0,,,67,0
31920,note_on,0,0,0,,,,,,,,0,,,55,32
31920,note_on,0,0,0,,,,,,,,0,,,60,36
31920,note_on,0,0,0,,,,,,,,0,,,52,36
31930,control_change,10,0,0,,,,,,,,0,64,0,,
32010,note_on,80,0,0,,,,,,,,0,,,52,0
32010,note_on,0,0,0,,,,,,,,0,,,60,0
32010,note_on,0,0,0,,,,,,,,0,,,55,0
32160,set_tempo,150,1,0,,,,,,1061947,,,,,,
32160,note_on,0,0,0,,,,,,,,0,,,77,50
32160,note_on,0,0,0,,,,,,,,0,,,73,50
32160,note_on,0,0,0,,,,,,,,0,,,82,50
32191,control_change,31,0,0,,,,,,,,0,64,127,,
32250,note_on,59,0,0,,,,,,,,0,,,82,0
32250,note_on,0,0,0,,,,,,,,0,,,73,0
32250,note_on,0,0,0,,,,,,,,0,,,77,0
32250,note_on,0,0,0,,,,,,,,0,,,81,41
32280,set_tempo,30,1,0,,,,,,916031,,,,,,
32280,note_on,0,0,0,,,,,,,,0,,,81,0
32280,note_on,0,0,0,,,,,,,,0,,,72,42
32280,note_on,0,0,0,,,,,,,,0,,,80,42
32325,note_on,45,0,0,,,,,,,,0,,,80,0
32325,note_on,0,0,0,,,,,,,,0,,,72,0
32325,note_on,0,0,0,,,,,,,,0,,,79,43
32325,note_on,0,0,0,,,,,,,,0,,,74,43
32325,note_on,0,0,0,,,,,,,,0,,,71,43
32360,set_tempo,35,1,0,,,,,,909091,,,,,,
32370,note_on,10,0,0,,,,,,,,0,,,71,0
32370,note_on,0,0,0,,,,,,,,0,,,74,0
32370,note_on,0,0,0,,,,,,,,0,,,79,0
32370,note_on,0,0,0,,,,,,,,0,,,78,44
32370,note_on,0,0,0,,,,,,,,0,,,70,44
32415,note_on,45,0,0,,,,,,,,0,,,70,0
32415,note_on,0,0,0,,,,,,,,0,,,78,0
32415,note_on,0,0,0,,,,,,,,0,,,77,45
32415,note_on,0,0,0,,,,,,,,0,,,72,45
32415,note_on,0,0,0,,,,,,,,0,,,69,45
32420,set_tempo,5,1,0,,,,,,902256,,,,,,
32460,note_on,40,0,0,,,,,,,,0,,,69,0
32460,note_on,0,0,0,,,,,,,,0,,,72,0
32460,note_on,0,0,0,,,,,,,,0,,,77,0
32460,note_on,0,0,0,,,,,,,,0,,,76,45
32460,note_on,0,0,0,,,,,,,,0,,,68,45
32500,set_tempo,40,1,0,,,,,,895522,,,,,,
32505,note_on,5,0,0,,,,,,,,0,,,68,0
32505,note_on,0,0,0,,,,,,,,0,,,76,0
32505,note_on,0,0,0,,,,,,,,0,,,67,46
32505,note_on,0,0,0,,,,,,,,0,,,70,46
32505,note_on,0,0,0,,,,,,,,0,,,75,46
32550,note_on,45,0,0,,,,,,,,0,,,75,0
32550,note_on,0,0,0,,,,,,,,0,,,70,0
32550,note_on,0,0,0,,,,,,,,0,,,67,0
32550,note_on,0,0,0,,,,,,,,0,,,74,49
32550,note_on,0,0,0,,,,,,,,0,,,66,49
32560,set_tempo,10,1,0,,,,,,888889,,,,,,
32595,note_on,35,0,0,,,,,,,,0,,,66,0
32595,note_on,0,0,0,,,,,,,,0,,,74,0
32595,note_on,0,0,0,,,,,,,,0,,,68,50
32595,note_on,0,0,0,,,,,,,,0,,,73,50
32595,note_on,0,0,0,,,,,,,,0,,,65,50
32620,set_tempo,25,1,0,,,,,,882353,,,,,,
32640,set_tempo,20,1,0,,,,,,983607,,,,,,
32640,note_on,0,0,0,,,,,,,,0,,,65,0
32640,note_on,0,0,0,,,,,,,,0,,,73,0
32640,note_on,0,0,0,,,,,,,,0,,,68,0
32640,note_on,0,0,0,,,,,,,,0,,,64,51
32640,note_on,0,0,0,,,,,,,,0,,,67,51
32640,note_on,0,0,0,,,,,,,,0,,,72,51
32648,control_change,8,0,0,,,,,,,,0,64,0,,
32700,note_on,52,0,0,,,,,,,,0,,,72,0
32700,note_on,0,0,0,,,,,,,,0,,,67,0
32700,note_on,0,0,0,,,,,,,,0,,,64,0
32880,set_tempo,180,1,0,,,,,,930233,,,,,,
32880,note_on,0,0,0,,,,,,,,0,,,64,37
32880,note_on,0,0,0,,,,,,,,0,,,67,37
32880,note_on,0,0,0,,,,,,,,0,,,76,43
32880,note_on,0,0,0,,,,,,,,0,,,70,37
32880,note_on,0,0,0,,,,,,,,0,,,48,51
32880,note_on,0,0,0,,,,,,,,0,,,60,51
32920,note_on,40,0,0,,,,,,,,0,,,60,0
32920,note_on,0,0,0,,,,,,,,0,,,61,53
32940,set_tempo,20,1,0,,,,,,923077,,,,,,
32960,note_on,20,0,0,,,,,,,,0,,,61,0
32960,note_on,0,0,0,,,,,,,,0,,,60,54
32970,note_on,10,0,0,,,,,,,,0,,,70,0
32970,note_on,0,0,0,,,,,,,,0,,,76,0
32970,note_on,0,0,0,,,,,,,,0,,,64,0
32970,note_on,0,0,0,,,,,,,,0,,,67,0
33000,set_tempo,30,1,0,,,,,,916031,,,,,,
33000,note_on,0,0,0,,,,,,,,0,,,60,0
33000,note_on,0,0,0,,,,,,,,0,,,59,56
33040,note_on,40,0,0,,,,,,,,0,,,59,0
33040,note_on,0,0,0,,,,,,,,0,,,58,57
33060,set_tempo,20,1,0,,,,,,909091,,,,,,
33080,note_on,20,0,0,,,,,,,,0,,,58,0
33080,note_on,0,0,0,,,,,,,,0,,,57,58
33100,set_tempo,20,1,0,,,,,,902256,,,,,,
33120,set_tempo,20,1,0,,,,,,1008403,,,,,,
33120,note_on,0,0,0,,,,,,,,0,,,57,0
33120,note_on,0,0,0,,,,,,,,0,,,48,0
33120,note_on,0,0,0,,,,,,,,0,,,65,42
33120,note_on,0,0,0,,,,,,,,0,,,73,42
33120,note_on,0,0,0,,,,,,,,0,,,77,46
33120,note_on,0,0,0,,,,,,,,0,,,68,42
33120,note_on,0,0,0,,,,,,,,0,,,44,60
33120,note_on,0,0,0,,,,,,,,0,,,56,60
33210,note_on,90,0,0,,,,,,,,0,,,56,0
33210,note_on,0,0,0,,,,,,,,0,,,73,0
33210,note_on,0,0,0,,,,,,,,0,,,77,0
33210,note_on,0,0,0,,,,,,,,0,,,65,0
33210,note_on,0,0,0,,,,,,,,0,,,44,0
33210,note_on,0,0,0,,,,,,,,0,,,68,0
33360,set_tempo,150,1,0,,,,,,1043478,,,,,,
33360,note_on,0,0,0,,,,,,,,0,,,68,37
33360,note_on,0,0,0,,,,,,,,0,,,71,37
33360,note_on,0,0,0,,,,,,,,0,,,80,43
33360,note_on,0,0,0,,,,,,,,0,,,74,37
33360,note_on,0,0,0,,,,,,,,0,,,41,52
33360,note_on,0,0,0,,,,,,,,0,,,53,52
33394,note_on,34,0,0,,,,,,,,0,,,53,0
33394,note_on,0,0,0,,,,,,,,0,,,55,51
33400,set_tempo,6,1,0,,,,,,1052632,,,,,,
33420,set_tempo,20,1,0,,,,,,1061947,,,,,,
33428,note_on,8,0,0,,,,,,,,0,,,55,0
33428,note_on,0,0,0,,,,,,,,0,,,53,50
33450,note_on,22,0,0,,,,,,,,0,,,74,0
33450,note_on,0,0,0,,,,,,,,0,,,80,0
33450,note_on,0,0,0,,,,,,,,0,,,68,0
33450,note_on,0,0,0,,,,,,,,0,,,71,0
33460,set_tempo,10,1,0,,,,,,1071429,,,,,,
33462,note_on,2,0,0,,,,,,,,0,,,53,0
33462,note_on,0,0,0,,,,,,,,0,,,52,50
33480,set_tempo,18,1,0,,,,,,1081081,,,,,,
33496,note_on,16,0,0,,,,,,,,0,,,52,0
33496,note_on,0,0,0,,,,,,,,0,,,51,49
33520,set_tempo,24,1,0,,,,,,1090909,,,,,,
33530,note_on,10,0,0,,,,,,,,0,,,51,0
33530,note_on,0,0,0,,,,,,,,0,,,50,48
33540,set_tempo,10,1,0,,,,,,1100917,,,,,,
33560,set_tempo,20,1,0,,,,,,1237113,,,,,,
33565,note_on,5,0,0,,,,,,,,0,,,50,0
33565,note_on,0,0,0,,,,,,,,0,,,49,46
33600,set_tempo,35,1,0,,,,,,1165049,,,,,,
33600,note_on,0,0,0,,,,,,,,0,,,49,0
33600,note_on,0,0,0,,,,,,,,0,,,41,0
33600,note_on,0,0,0,,,,,,,,0,,,76,37
33600,note_on,0,0,0,,,,,,,,0,,,79,43
33600,note_on,0,0,0,,,,,,,,0,,,67,37
33600,note_on,0,0,0,,,,,,,,0,,,48,41
33600,note_on,0,0,0,,,,,,,,0,,,36,41
33668,control_change,68,0,0,,,,,,,,0,64,127,,
33840,set_tempo,172,1,0,,,,,,1276596,,,,,,
33840,note_on,0,0,0,,,,,,,,0,,,36,0
33840,note_on,0,0,0,,,,,,,,0,,,67,0
33840,note_on,0,0,0,,,,,,,,0,,,76,0
33840,note_on,0,0,0,,,,,,,,0,,,79,0
33840,note_on,0,0,0,,,,,,,,0,,,48,0
33840,note_on,0,0,0,,,,,,,,0,,,72,36
33840,note_on,0,0,0,,,,,,,,0,,,64,36
33840,note_on,0,0,0,,,,,,,,0,,,55,36
33843,control_change,3,0,0,,,,,,,,0,64,0,,
33930,note_on,87,0,0,,,,,,,,0,,,55,0
33930,note_on,0,0,0,,,,,,,,0,,,64,0
33930,note_on,0,0,0,,,,,,,,0,,,72,0
34080,set_tempo,150,1,0,,,,,,975610,,,,,,
34080,note_on,0,0,0,,,,,,,,0,,,68,50
34080,note_on,0,0,0,,,,,,,,0,,,65,50
34080,note_on,0,0,0,,,,,,,,0,,,72,50
34080,note_on,0,0,0,,,,,,,,0,,,80,50
34098,control_change,18,0,0,,,,,,,,0,64,127,,
34128,note_on,30,0,0,,,,,,,,0,,,80,0
34128,note_on,0,0,0,,,,,,,,0,,,65,0
34128,note_on,0,0,0,,,,,,,,0,,,64,45
34128,note_on,0,0,0,,,,,,,,0,,,79,48
34176,note_on,48,0,0,,,,,,,,0,,,79,0
34176,note_on,0,0,0,,,,,,,,0,,,64,0
34176,note_on,0,0,0,,,,,,,,0,,,63,45
34176,note_on,0,0,0,,,,,,,,0,,,78,49
34180,set_tempo,4,1,0,,,,,,923077,,,,,,
34220,set_tempo,40,1,0,,,,,,916031,,,,,,
34224,note_on,4,0,0,,,,,,,,0,,,78,0
34224,note_on,0,0,0,,,,,,,,0,,,63,0
34224,note_on,0,0,0,,,,,,,,0,,,62,46
34224,note_on,0,0,0,,,,,,,,0,,,77,50
34260,set_tempo,36,1,0,,,,,,909091,,,,,,
34272,note_on,12,0,0,,,,,,,,0,,,77,0
34272,note_on,0,0,0,,,,,,,,0,,,62,0
34272,note_on,0,0,0,,,,,,,,0,,,61,49
34272,note_on,0,0,0,,,,,,,,0,,,76,52
34300,set_tempo,28,1,0,,,,,,902256,,,,,,
34320,note_on,20,0,0,,,,,,,,0,,,76,0
34320,note_on,0,0,0,,,,,,,,0,,,61,0
34320,note_on,0,0,0,,,,,,,,0,,,60,50
34320,note_on,0,0,0,,,,,,,,0,,,75,54
34340,set_tempo,20,1,0,,,,,,895522,,,,,,
34368,note_on,28,0,0,,,,,,,,0,,,75,0
34368,note_on,0,0,0,,,,,,,,0,,,60,0
34368,note_on,0,0,0,,,,,,,,0,,,59,51
34368,note_on,0,0,0,,,,,,,,0,,,74,55
34380,set_tempo,12,1,0,,,,,,888889,,,,,,
34416,note_on,36,0,0,,,,,,,,0,,,74,0
34416,note_on,0,0,0,,,,,,,,0,,,59,0
34416,note_on,0,0,0,,,,,,,,0,,,58,53
34416,note_on,0,0,0,,,,,,,,0,,,73,56
34420,set_tempo,4,1,0,,,,,,882353,,,,,,
34460,set_tempo,40,1,0,,,,,,875912,,,,,,
34464,note_on,4,0,0,,,,,,,,0,,,73,0
34464,note_on,0,0,0,,,,,,,,0,,,58,0
34464,note_on,0,0,0,,,,,,,,0,,,57,54
34464,note_on,0,0,0,,,,,,,,0,,,72,58
34500,set_tempo,36,1,0,,,,,,869565,,,,,,
34512,note_on,12,0,0,,,,,,,,0,,,72,0
34512,note_on,0,0,0,,,,,,,,0,,,57,0
34512,note_on,0,0,0,,,,,,,,0,,,56,55
34512,note_on,0,0,0,,,,,,,,0,,,71,59
34540,set_tempo,28,1,0,,,,,,863309,,,,,,
34560,set_tempo,20,1,0,,,,,,983607,,,,,,
34560,note_on,0,0,0,,,,,,,,0,,,71,0
34560,note_on,0,0,0,,,,,,,,0,,,68,0
34560,note_on,0,0,0,,,,,,,,0,,,72,0
34560,note_on,0,0,0,,,,,,,,0,,,56,0
34560,note_on,0,0,0,,,,,,,,0,,,65,57
34560,note_on,0,0,0,,,,,,,,0,,,62,57
34560,note_on,0,0,0,,,,,,,,0,,,68,62
34560,note_on,0,0,0,,,,,,,,0,,,70,62
34570,control_change,10,0,0,,,,,,,,0,64,0,,
34620,note_on,50,0,0,,,,,,,,0,,,70,0
34620,note_on,0,0,0,,,,,,,,0,,,65,0
34620,note_on,0,0,0,,,,,,,,0,,,62,0
34620,note_on,0,0,0,,,,,,,,0,,,68,0
34800,set_tempo,180,1,0,,,,,,930233,,,,,,
34800,note_on,0,0,0,,,,,,,,0,,,56,41
34800,note_on,0,0,0,,,,,,,,0,,,62,45
34800,note_on,0,0,0,,,,,,,,0,,,53,41
34800,note_on,0,0,0,,,,,,,,0,,,46,51
34840,note_on,40,0,0,,,,,,,,0,,,46,0
34840,note_on,0,0,0,,,,,,,,0,,,47,53
34860,set_tempo,20,1,0,,,,,,923077,,,,,,
34880,note_on,20,0,0,,,,,,,,0,,,47,0
34880,note_on,0,0,0,,,,,,,,0,,,46,54
34890,note_on,10,0,0,,,,,,,,0,,,53,0
34890,note_on,0,0,0,,,,,,,,0,,,56,0
34890,note_on,0,0,0,,,,,,,,0,,,62,0
34920,set_tempo,30,1,0,,,,,,916031,,,,,,
34920,note_on,0,0,0,,,,,,,,0,,,46,0
34920,note_on,0,0,0,,,,,,,,0,,,45,56
34960,note_on,40,0,0,,,,,,,,0,,,45,0
34960,note_on,0,0,0,,,,,,,,0,,,44,57
34980,set_tempo,20,1,0,,,,,,909091,,,,,,
35000,note_on,20,0,0,,,,,,,,0,,,44,0
35000,note_on,0,0,0,,,,,,,,0,,,43,58
35020,set_tempo,20,1,0,,,,,,902256,,,,,,
35040,set_tempo,20,1,0,,,,,,952381,,,,,,
35040,note_on,0,0,0,,,,,,,,0,,,43,0
35040,note_on,0,0,0,,,,,,,,0,,,54,45
35040,note_on,0,0,0,,,,,,,,0,,,63,45
35040,note_on,0,0,0,,,,,,,,0,,,59,45
35040,note_on,0,0,0,,,,,,,,0,,,42,60
35130,note_on,90,0,0,,,,,,,,0,,,42,0
35130,note_on,0,0,0,,,,,,,,0,,,54,0
35130,note_on,0,0,0,,,,,,,,0,,,63,0
35130,note_on,0,0,0,,,,,,,,0,,,59,0
35280,set_tempo,150,1,0,,,,,,1008403,,,,,,
35280,note_on,0,0,0,,,,,,,,0,,,57,42
35280,note_on,0,0,0,,,,,,,,0,,,60,42
35280,note_on,0,0,0,,,,,,,,0,,,66,46
35280,note_on,0,0,0,,,,,,,,0,,,39,57
35314,note_on,34,0,0,,,,,,,,0,,,39,0
35314,note_on,0,0,0,,,,,,,,0,,,41,57
35320,set_tempo,6,1,0,,,,,,1016949,,,,,,
35348,note_on,28,0,0,,,,,,,,0,,,41,0
35348,note_on,0,0,0,,,,,,,,0,,,39,56
35360,set_tempo,12,1,0,,,,,,1025641,,,,,,
35370,note_on,10,0,0,,,,,,,,0,,,66,0
35370,note_on,0,0,0,,,,,,,,0,,,57,0
35370,note_on,0,0,0,,,,,,,,0,,,60,0
35380,set_tempo,10,1,0,,,,,,1034483,,,,,,
35382,note_on,2,0,0,,,,,,,,0,,,39,0
35382,note_on,0,0,0,,,,,,,,0,,,38,55
35416,note_on,34,0,0,,,,,,,,0,,,38,0
35416,note_on,0,0,0,,,,,,,,0,,,37,55
35420,set_tempo,4,1,0,,,,,,1043478,,,,,,
35450,note_on,30,0,0,,,,,,,,0,,,37,0
35450,note_on,0,0,0,,,,,,,,0,,,36,54
35460,set_tempo,10,1,0,,,,,,1052632,,,,,,
35480,set_tempo,20,1,0,,,,,,1276596,,,,,,
35485,note_on,5,0,0,,,,,,,,0,,,36,0
35485,note_on,0,0,0,,,,,,,,0,,,35,54
35500,set_tempo,15,1,0,,,,,,1034483,,,,,,
35520,set_tempo,20,1,0,,,,,,1176471,,,,,,
35520,note_on,0,0,0,,,,,,,,0,,,35,0
35520,note_on,0,0,0,,,,,,,,0,,,65,51
35520,note_on,0,0,0,,,,,,,,0,,,62,45
35520,note_on,0,0,0,,,,,,,,0,,,34,53
35760,set_tempo,240,1,0,,,,,,1333333,,,,,,
35760,note_on,0,0,0,,,,,,,,0,,,34,0
35760,note_on,0,0,0,,,,,,,,0,,,62,0
35760,note_on,0,0,0,,,,,,,,0,,,65,0
35760,note_on,0,0,0,,,,,,,,0,,,53,38
35760,note_on,0,0,0,,,,,,,,0,,,58,44
35760,note_on,0,0,0,,,,,,,,0,,,50,49
35850,note_on,90,0,0,,,,,,,,0,,,50,0
35850,note_on,0,0,0,,,,,,,,0,,,58,0
35850,note_on,0,0,0,,,,,,,,0,,,53,0
36000,set_tempo,150,1,0,,,,,,909091,,,,,,
36000,note_on,0,0,0,,,,,,,,0,,,68,50
36000,note_on,0,0,0,,,,,,,,0,,,64,50
36000,note_on,0,0,0,,,,,,,,0,,,80,50
36000,note_on,0,0,0,,,,,,,,0,,,71,50
36010,control_change,10,0,0,,,,,,,,0,64,127,,
36048,note_on,38,0,0,,,,,,,,0,,,80,0
36048,note_on,0,0,0,,,,,,,,0,,,64,0
36048,note_on,0,0,0,,,,,,,,0,,,63,45
36048,note_on,0,0,0,,,,,,,,0,,,79,48
36096,note_on,48,0,0,,,,,,,,0,,,79,0
36096,note_on,0,0,0,,,,,,,,0,,,63,0
36096,note_on,0,0,0,,,,,,,,0,,,62,45
36096,note_on,0,0,0,,,,,,,,0,,,78,49
36100,set_tempo,4,1,0,,,,,,902256,,,,,,
36144,note_on,44,0,0,,,,,,,,0,,,78,0
36144,note_on,0,0,0,,,,,,,,0,,,62,0
36144,note_on,0,0,0,,,,,,,,0,,,61,46
36144,note_on,0,0,0,,,,,,,,0,,,77,50
36192,note_on,48,0,0,,,,,,,,0,,,77,0
36192,note_on,0,0,0,,,,,,,,0,,,61,0
36192,note_on,0,0,0,,,,,,,,0,,,60,49
36192,note_on,0,0,0,,,,,,,,0,,,76,52
36200,set_tempo,8,1,0,,,,,,895522,,,,,,
36240,note_on,40,0,0,,,,,,,,0,,,76,0
36240,note_on,0,0,0,,,,,,,,0,,,60,0
36240,note_on,0,0,0,,,,,,,,0,,,59,50
36240,note_on,0,0,0,,,,,,,,0,,,75,54
36280,set_tempo,40,1,0,,,,,,888889,,,,,,
36288,note_on,8,0,0,,,,,,,,0,,,75,0
36288,note_on,0,0,0,,,,,,,,0,,,59,0
36288,note_on,0,0,0,,,,,,,,0,,,58,51
36288,note_on,0,0,0,,,,,,,,0,,,74,55
36336,note_on,48,0,0,,,,,,,,0,,,74,0
36336,note_on,0,0,0,,,,,,,,0,,,58,0
36336,note_on,0,0,0,,,,,,,,0,,,57,53
36336,note_on,0,0,0,,,,,,,,0,,,73,56
36380,set_tempo,44,1,0,,,,,,882353,,,,,,
36384,note_on,4,0,0,,,,,,,,0,,,73,0
36384,note_on,0,0,0,,,,,,,,0,,,57,0
36384,note_on,0,0,0,,,,,,,,0,,,56,54
36384,note_on,0,0,0,,,,,,,,0,,,72,58
36432,note_on,48,0,0,,,,,,,,0,,,72,0
36432,note_on,0,0,0,,,,,,,,0,,,56,0
36432,note_on,0,0,0,,,,,,,,0,,,59,55
36432,note_on,0,0,0,,,,,,,,0,,,71,59
36460,set_tempo,28,1,0,,,,,,875912,,,,,,
36480,set_tempo,20,1,0,,,,,,983607,,,,,,
36480,note_on,0,0,0,,,,,,,,0,,,71,0
36480,note_on,0,0,0,,,,,,,,0,,,71,0
36480,note_on,0,0,0,,,,,,,,0,,,68,0
36480,note_on,0,0,0,,,,,,,,0,,,59,0
36480,note_on,0,0,0,,,,,,,,0,,,62,57
36480,note_on,0,0,0,,,,,,,,0,,,65,57
36480,note_on,0,0,0,,,,,,,,0,,,68,62
36480,note_on,0,0,0,,,,,,,,0,,,70,62
36485,control_change,5,0,0,,,,,,,,0,64,0,,
36540,note_on,55,0,0,,,,,,,,0,,,70,0
36540,note_on,0,0,0,,,,,,,,0,,,62,0
36540,note_on,0,0,0,,,,,,,,0,,,65,0
36540,note_on,0,0,0,,,,,,,,0,,,68,0
36690,note_on,150,0,0,,,,,,,,0,,,46,59
36720,set_tempo,30,1,0,,,,,,1025641,,,,,,
36720,note_on,0,0,0,,,,,,,,0,,,74,52
36720,note_on,0,0,0,,,,,,,,0,,,68,45
36720,note_on,0,0,0,,,,,,,,0,,,62,45
36720,note_on,0,0,0,,,,,,,,0,,,65,45
36720,note_on,0,0,0,,,,,,,,0,,,58,59
36760,note_on,40,0,0,,,,,,,,0,,,58,0
36760,note_on,0,0,0,,,,,,,,0,,,59,60
36800,note_on,40,0,0,,,,,,,,0,,,59,0
36800,note_on,0,0,0,,,,,,,,0,,,58,62
36810,note_on,10,0,0,,,,,,,,0,,,65,0
36810,note_on,0,0,0,,,,,,,,0,,,62,0
36810,note_on,0,0,0,,,,,,,,0,,,68,0
36810,note_on,0,0,0,,,,,,,,0,,,74,0
36840,note_on,30,0,0,,,,,,,,0,,,58,0
36840,note_on,0,0,0,,,,,,,,0,,,57,62
36880,note_on,40,0,0,,,,,,,,0,,,57,0
36880,note_on,0,0,0,,,,,,,,0,,,56,63
36920,note_on,40,0,0,,,,,,,,0,,,56,0
36920,note_on,0,0,0,,,,,,,,0,,,55,63
36960,set_tempo,40,1,0,,,,,,991736,,,,,,
36960,note_on,0,0,0,,,,,,,,0,,,55,0
36960,note_on,0,0,0,,,,,,,,0,,,46,0
36960,note_on,0,0,0,,,,,,,,0,,,75,67
36960,note_on,0,0,0,,,,,,,,0,,,66,60
36960,note_on,0,0,0,,,,,,,,0,,,63,60
36960,note_on,0,0,0,,,,,,,,0,,,71,60
36960,note_on,0,0,0,,,,,,,,0,,,42,63
36960,note_on,0,0,0,,,,,,,,0,,,54,63
37050,note_on,90,0,0,,,,,,,,0,,,54,0
37050,note_on,0,0,0,,,,,,,,0,,,66,0
37050,note_on,0,0,0,,,,,,,,0,,,63,0
37050,note_on,0,0,0,,,,,,,,0,,,75,0
37050,note_on,0,0,0,,,,,,,,0,,,42,0
37050,note_on,0,0,0,,,,,,,,0,,,71,0
37170,note_on,120,0,0,,,,,,,,0,,,39,64
37200,set_tempo,30,1,0,,,,,,1034483,,,,,,
37200,note_on,0,0,0,,,,,,,,0,,,72,60
37200,note_on,0,0,0,,,,,,,,0,,,78,67
37200,note_on,0,0,0,,,,,,,,0,,,69,60
37200,note_on,0,0,0,,,,,,,,0,,,66,60
37200,note_on,0,0,0,,,,,,,,0,,,51,64
37220,set_tempo,20,1,0,,,,,,1043478,,,,,,
37234,note_on,14,0,0,,,,,,,,0,,,51,0
37234,note_on,0,0,0,,,,,,,,0,,,53,64
37240,set_tempo,6,1,0,,,,,,1052632,,,,,,
37260,set_tempo,20,1,0,,,,,,1061947,,,,,,
37268,note_on,8,0,0,,,,,,,,0,,,53,0
37268,note_on,0,0,0,,,,,,,,0,,,51,64
37280,set_tempo,12,1,0,,,,,,1071429,,,,,,
37290,note_on,10,0,0,,,,,,,,0,,,66,0
37290,note_on,0,0,0,,,,,,,,0,,,69,0
37290,note_on,0,0,0,,,,,,,,0,,,78,0
37290,note_on,0,0,0,,,,,,,,0,,,72,0
37300,set_tempo,10,1,0,,,,,,1081081,,,,,,
37302,note_on,2,0,0,,,,,,,,0,,,51,0
37302,note_on,0,0,0,,,,,,,,0,,,50,64
37320,set_tempo,18,1,0,,,,,,1090909,,,,,,
37336,note_on,16,0,0,,,,,,,,0,,,50,0
37336,note_on,0,0,0,,,,,,,,0,,,49,64
37340,set_tempo,4,1,0,,,,,,1100917,,,,,,
37360,set_tempo,20,1,0,,,,,,1111111,,,,,,
37370,note_on,10,0,0,,,,,,,,0,,,49,0
37370,note_on,0,0,0,,,,,,,,0,,,48,64
37380,set_tempo,10,1,0,,,,,,1132075,,,,,,
37400,set_tempo,20,1,0,,,,,,1304348,,,,,,
37405,note_on,5,0,0,,,,,,,,0,,,48,0
37405,note_on,0,0,0,,,,,,,,0,,,47,64
37415,note_on,10,0,0,,,,,,,,0,,,34,62
37420,note_on,5,0,0,,,,,,,,0,,,46,77
37425,note_on,5,0,0,,,,,,,,0,,,65,63
37430,note_on,5,0,0,,,,,,,,0,,,70,63
37435,note_on,5,0,0,,,,,,,,0,,,74,63
37440,set_tempo,5,1,0,,,,,,1333333,,,,,,
37440,note_on,0,0,0,,,,,,,,0,,,47,0
37440,note_on,0,0,0,,,,,,,,0,,,39,0
37440,note_on,0,0,0,,,,,,,,0,,,82,79
37495,control_change,55,0,0,,,,,,,,0,64,127,,
37680,note_on,185,0,0,,,,,,,,0,,,82,0
37680,note_on,0,0,0,,,,,,,,0,,,74,0
37680,note_on,0,0,0,,,,,,,,0,,,65,0
37680,note_on,0,0,0,,,,,,,,0,,,70,0
37680,note_on,0,0,0,,,,,,,,0,,,34,0
37680,note_on,0,0,0,,,,,,,,0,,,58,65
37680,note_on,0,0,0,,,,,,,,0,,,50,52
37680,note_on,0,0,0,,,,,,,,0,,,53,52
37694,control_change,14,0,0,,,,,,,,0,64,0,,
37770,note_on,76,0,0,,,,,,,,0,,,53,0
37770,note_on,0,0,0,,,,,,,,0,,,50,0
37770,note_on,0,0,0,,,,,,,,0,,,58,0
37900,note_on,130,0,0,,,,,,,,0,,,46,0
37920,set_tempo,20,1,0,,,,,,1395349,,,,,,
37920,marker,0,1,0,,,,,,,,,,,,
37920,note_on,0,0,0,,,,,,,,0,,,70,72
37920,note_on,0,0,0,,,,,,,,0,,,82,80
37949,control_change,29,0,0,,,,,,,,0,64,127,,
37960,note_on,11,0,0,,,,,,,,0,,,70,0
37980,note_on,20,0,0,,,,,,,,0,,,82,0
37980,note_on,0,0,0,,,,,,,,0,,,81,63
37980,note_on,0,0,0,,,,,,,,0,,,93,70
38000,set_tempo,20,1,0,,,,,,930233,,,,,,
38000,note_on,0,0,0,,,,,,,,0,,,93,0
38000,note_on,0,0,0,,,,,,,,0,,,81,0
38000,note_on,0,0,0,,,,,,,,0,,,80,69
38000,note_on,0,0,0,,,,,,,,0,,,68,62
38040,set_tempo,40,1,0,,,,,,923077,,,,,,
38040,note_on,0,0,0,,,,,,,,0,,,91,71
38040,note_on,0,0,0,,,,,,,,0,,,79,63
38051,note_on,11,0,0,,,,,,,,0,,,68,0
38051,note_on,0,0,0,,,,,,,,0,,,80,0
38080,set_tempo,29,1,0,,,,,,916031,,,,,,
38080,note_on,0,0,0,,,,,,,,0,,,78,71
38080,note_on,0,0,0,,,,,,,,0,,,66,63
38092,note_on,12,0,0,,,,,,,,0,,,91,0
38092,note_on,0,0,0,,,,,,,,0,,,79,0
38120,set_tempo,28,1,0,,,,,,909091,,,,,,
38120,note_on,0,0,0,,,,,,,,0,,,89,73
38120,note_on,0,0,0,,,,,,,,0,,,77,65
38133,note_on,13,0,0,,,,,,,,0,,,78,0
38133,note_on,0,0,0,,,,,,,,0,,,66,0
38160,set_tempo,27,1,0,,,,,,902256,,,,,,
38160,note_on,0,0,0,,,,,,,,0,,,64,65
38160,note_on,0,0,0,,,,,,,,0,,,76,73
38174,note_on,14,0,0,,,,,,,,0,,,89,0
38174,note_on,0,0,0,,,,,,,,0,,,77,0
38200,set_tempo,26,1,0,,,,,,895522,,,,,,
38200,note_on,0,0,0,,,,,,,,0,,,87,76
38200,note_on,0,0,0,,,,,,,,0,,,75,67
38215,note_on,15,0,0,,,,,,,,0,,,64,0
38215,note_on,0,0,0,,,,,,,,0,,,76,0
38240,set_tempo,25,1,0,,,,,,888889,,,,,,
38240,note_on,0,0,0,,,,,,,,0,,,62,67
38240,note_on,0,0,0,,,,,,,,0,,,74,76
38256,note_on,16,0,0,,,,,,,,0,,,87,0
38256,note_on,0,0,0,,,,,,,,0,,,75,0
38280,set_tempo,24,1,0,,,,,,882353,,,,,,
38280,note_on,0,0,0,,,,,,,,0,,,73,70
38280,note_on,0,0,0,,,,,,,,0,,,85,78
38297,note_on,17,0,0,,,,,,,,0,,,62,0
38297,note_on,0,0,0,,,,,,,,0,,,74,0
38320,set_tempo,23,1,0,,,,,,875912,,,,,,
38320,note_on,0,0,0,,,,,,,,0,,,60,70
38320,note_on,0,0,0,,,,,,,,0,,,72,78
38338,note_on,18,0,0,,,,,,,,0,,,73,0
38338,note_on,0,0,0,,,,,,,,0,,,85,0
38360,set_tempo,22,1,0,,,,,,869565,,,,,,
38360,note_on,0,0,0,,,,,,,,0,,,83,81
38360,note_on,0,0,0,,,,,,,,0,,,71,72
38379,note_on,19,0,0,,,,,,,,0,,,60,0
38379,note_on,0,0,0,,,,,,,,0,,,72,0
38400,set_tempo,21,1,0,,,,,,1081081,,,,,,
38400,note_on,0,0,0,,,,,,,,0,,,70,84
38400,note_on,0,0,0,,,,,,,,0,,,58,76
38414,control_change,14,0,0,,,,,,,,0,64,0,,
38420,note_on,6,0,0,,,,,,,,0,,,83,0
38420,note_on,0,0,0,,,,,,,,0,,,71,0
38520,note_on,100,0,0,,,,,,,,0,,,70,0
38520,note_on,0,0,0,,,,,,,,0,,,58,0
38640,set_tempo,120,1,0,,,,,,1212121,,,,,,
38640,note_on,0,0,0,,,,,,,,0,,,50,63
38640,note_on,0,0,0,,,,,,,,0,,,62,70
38640,note_on,0,0,0,,,,,,,,0,,,58,63
38640,note_on,0,0,0,,,,,,,,0,,,53,63
38640,note_on,0,0,0,,,,,,,,0,,,34,63
38640,note_on,0,0,0,,,,,,,,0,,,46,63
38640,note_on,0,0,0,,,,,,,,0,,,41,63
38695,control_change,55,0,0,,,,,,,,0,64,127,,
38880,set_tempo,185,1,0,,,,,,1395349,,,,,,
38880,note_on,0,0,0,,,,,,,,0,,,41,0
38880,note_on,0,0,0,,,,,,,,0,,,34,0
38880,note_on,0,0,0,,,,,,,,0,,,62,0
38880,note_on,0,0,0,,,,,,,,0,,,58,0
38880,note_on,0,0,0,,,,,,,,0,,,50,0
38880,note_on,0,0,0,,,,,,,,0,,,46,0
38880,note_on,0,0,0,,,,,,,,0,,,53,0
38880,note_on,0,0,0,,,,,,,,0,,,86,80
38880,note_on,0,0,0,,,,,,,,0,,,74,72
38892,control_change,12,0,0,,,,,,,,0,64,0,,
38920,note_on,28,0,0,,,,,,,,0,,,74,0
38926,control_change,6,0,0,,,,,,,,0,64,127,,
38940,note_on,14,0,0,,,,,,,,0,,,86,0
38940,note_on,0,0,0,,,,,,,,0,,,85,63
38940,note_on,0,0,0,,,,,,,,0,,,97,70
38960,set_tempo,20,1,0,,,,,,930233,,,,,,
38960,note_on,0,0,0,,,,,,,,0,,,97,0
38960,note_on,0,0,0,,,,,,,,0,,,85,0
38960,note_on,0,0,0,,,,,,,,0,,,84,69
38960,note_on,0,0,0,,,,,,,,0,,,72,62
39000,set_tempo,40,1,0,,,,,,923077,,,,,,
39000,note_on,0,0,0,,,,,,,,0,,,95,71
39000,note_on,0,0,0,,,,,,,,0,,,83,63
39011,note_on,11,0,0,,,,,,,,0,,,72,0
39011,note_on,0,0,0,,,,,,,,0,,,84,0
39040,set_tempo,29,1,0,,,,,,916031,,,,,,
39040,note_on,0,0,0,,,,,,,,0,,,82,71
39040,note_on,0,0,0,,,,,,,,0,,,70,63
39052,note_on,12,0,0,,,,,,,,0,,,95,0
39052,note_on,0,0,0,,,,,,,,0,,,83,0
39080,set_tempo,28,1,0,,,,,,909091,,,,,,
39080,note_on,0,0,0,,,,,,,,0,,,93,73
39080,note_on,0,0,0,,,,,,,,0,,,81,65
39093,note_on,13,0,0,,,,,,,,0,,,82,0
39093,note_on,0,0,0,,,,,,,,0,,,70,0
39120,set_tempo,27,1,0,,,,,,902256,,,,,,
39120,note_on,0,0,0,,,,,,,,0,,,80,73
39120,note_on,0,0,0,,,,,,,,0,,,68,65
39134,note_on,14,0,0,,,,,,,,0,,,93,0
39134,note_on,0,0,0,,,,,,,,0,,,81,0
39160,set_tempo,26,1,0,,,,,,895522,,,,,,
39160,note_on,0,0,0,,,,,,,,0,,,91,76
39160,note_on,0,0,0,,,,,,,,0,,,79,67
39175,note_on,15,0,0,,,,,,,,0,,,80,0
39175,note_on,0,0,0,,,,,,,,0,,,68,0
39200,set_tempo,25,1,0,,,,,,888889,,,,,,
39200,note_on,0,0,0,,,,,,,,0,,,78,76
39200,note_on,0,0,0,,,,,,,,0,,,66,67
39216,note_on,16,0,0,,,,,,,,0,,,91,0
39216,note_on,0,0,0,,,,,,,,0,,,79,0
39240,set_tempo,24,1,0,,,,,,882353,,,,,,
39240,note_on,0,0,0,,,,,,,,0,,,89,78
39240,note_on,0,0,0,,,,,,,,0,,,77,70
39257,note_on,17,0,0,,,,,,,,0,,,78,0
39257,note_on,0,0,0,,,,,,,,0,,,66,0
39280,set_tempo,23,1,0,,,,,,875912,,,,,,
39280,note_on,0,0,0,,,,,,,,0,,,64,70
39280,note_on,0,0,0,,,,,,,,0,,,76,78
39298,note_on,18,0,0,,,,,,,,0,,,89,0
39298,note_on,0,0,0,,,,,,,,0,,,77,0
39320,set_tempo,22,1,0,,,,,,869565,,,,,,
39320,note_on,0,0,0,,,,,,,,0,,,75,72
39320,note_on,0,0,0,,,,,,,,0,,,87,81
39339,note_on,19,0,0,,,,,,,,0,,,64,0
39339,note_on,0,0,0,,,,,,,,0,,,76,0
39360,set_tempo,21,1,0,,,,,,1081081,,,,,,
39360,note_on,0,0,0,,,,,,,,0,,,74,84
39360,note_on,0,0,0,,,,,,,,0,,,62,76
39370,control_change,10,0,0,,,,,,,,0,64,0,,
39380,note_on,10,0,0,,,,,,,,0,,,75,0
39380,note_on,0,0,0,,,,,,,,0,,,87,0
39480,note_on,100,0,0,,,,,,,,0,,,74,0
39480,note_on,0,0,0,,,,,,,,0,,,62,0
39600,note_on,120,0,0,,,,,,,,0,,,65,70
39600,note_on,0,0,0,,,,,,,,0,,,53,63
39600,note_on,0,0,0,,,,,,,,0,,,58,63
39600,note_on,0,0,0,,,,,,,,0,,,62,63
39600,note_on,0,0,0,,,,,,,,0,,,41,63
39600,note_on,0,0,0,,,,,,,,0,,,34,63
39600,note_on,0,0,0,,,,,,,,0,,,50,63
39632,control_change,32,0,0,,,,,,,,0,64,127,,
39840,set_tempo,208,1,0,,,,,,1463415,,,,,,
39840,note_on,0,0,0,,,,,,,,0,,,50,0
39840,note_on,0,0,0,,,,,,,,0,,,41,0
39840,note_on,0,0,0,,,,,,,,0,,,53,0
39840,note_on,0,0,0,,,,,,,,0,,,58,0
39840,note_on,0,0,0,,,,,,,,0,,,65,0
39840,note_on,0,0,0,,,,,,,,0,,,34,0
39840,note_on,0,0,0,,,,,,,,0,,,62,0
39840,note_on,0,0,0,,,,,,,,0,,,89,74
39840,note_on,0,0,0,,,,,,,,0,,,77,66
39846,control_change,6,0,0,,,,,,,,0,64,0,,
39880,note_on,34,0,0,,,,,,,,0,,,77,0
39880,note_on,0,0,0,,,,,,,,0,,,89,0
39880,note_on,0,0,0,,,,,,,,0,,,88,59
39880,note_on,0,0,0,,,,,,,,0,,,100,66
39920,set_tempo,40,1,0,,,,,,916031,,,,,,
39920,note_on,0,0,0,,,,,,,,0,,,100,0
39920,note_on,0,0,0,,,,,,,,0,,,88,0
39920,note_on,0,0,0,,,,,,,,0,,,87,74
39920,note_on,0,0,0,,,,,,,,0,,,75,66
39960,set_tempo,40,1,0,,,,,,909091,,,,,,
39960,note_on,0,0,0,,,,,,,,0,,,75,0
39960,note_on,0,0,0,,,,,,,,0,,,87,0
39960,note_on,0,0,0,,,,,,,,0,,,98,66
39960,note_on,0,0,0,,,,,,,,0,,,86,59
39980,set_tempo,20,1,0,,,,,,902256,,,,,,
40000,set_tempo,20,1,0,,,,,,895522,,,,,,
40000,note_on,0,0,0,,,,,,,,0,,,86,0
40000,note_on,0,0,0,,,,,,,,0,,,98,0
40000,note_on,0,0,0,,,,,,,,0,,,85,76
40000,note_on,0,0,0,,,,,,,,0,,,73,67
40020,set_tempo,20,1,0,,,,,,888889,,,,,,
40040,set_tempo,20,1,0,,,,,,882353,,,,,,
40040,note_on,0,0,0,,,,,,,,0,,,73,0
40040,note_on,0,0,0,,,,,,,,0,,,85,0
40040,note_on,0,0,0,,,,,,,,0,,,96,67
40040,note_on,0,0,0,,,,,,,,0,,,84,60
40080,set_tempo,40,1,0,,,,,,875912,,,,,,
40080,note_on,0,0,0,,,,,,,,0,,,84,0
40080,note_on,0,0,0,,,,,,,,0,,,96,0
40080,note_on,0,0,0,,,,,,,,0,,,83,77
40080,note_on,0,0,0,,,,,,,,0,,,71,69
40100,set_tempo,20,1,0,,,,,,869565,,,,,,
40120,note_on,20,0,0,,,,,,,,0,,,71,0
40120,note_on,0,0,0,,,,,,,,0,,,83,0
40120,note_on,0,0,0,,,,,,,,0,,,94,67
40120,note_on,0,0,0,,,,,,,,0,,,82,60
40160,note_on,40,0,0,,,,,,,,0,,,82,0
40160,note_on,0,0,0,,,,,,,,0,,,94,0
40160,note_on,0,0,0,,,,,,,,0,,,81,78
40160,note_on,0,0,0,,,,,,,,0,,,69,70
40200,note_on,40,0,0,,,,,,,,0,,,69,0
40200,note_on,0,0,0,,,,,,,,0,,,81,0
40200,note_on,0,0,0,,,,,,,,0,,,92,69
40200,note_on,0,0,0,,,,,,,,0,,,80,62
40240,note_on,40,0,0,,,,,,,,0,,,80,0
40240,note_on,0,0,0,,,,,,,,0,,,92,0
40240,note_on,0,0,0,,,,,,,,0,,,67,71
40240,note_on,0,0,0,,,,,,,,0,,,79,79
40280,note_on,40,0,0,,,,,,,,0,,,79,0
40280,note_on,0,0,0,,,,,,,,0,,,67,0
40280,note_on,0,0,0,,,,,,,,0,,,78,62
40280,note_on,0,0,0,,,,,,,,0,,,90,69
40320,note_on,40,0,0,,,,,,,,0,,,90,0
40320,note_on,0,0,0,,,,,,,,0,,,78,0
40320,note_on,0,0,0,,,,,,,,0,,,65,71
40320,note_on,0,0,0,,,,,,,,0,,,77,79
40360,note_on,40,0,0,,,,,,,,0,,,77,0
40360,note_on,0,0,0,,,,,,,,0,,,65,0
40360,note_on,0,0,0,,,,,,,,0,,,88,70
40360,note_on,0,0,0,,,,,,,,0,,,76,63
40400,note_on,40,0,0,,,,,,,,0,,,76,0
40400,note_on,0,0,0,,,,,,,,0,,,88,0
40400,note_on,0,0,0,,,,,,,,0,,,63,72
40400,note_on,0,0,0,,,,,,,,0,,,75,80
40440,note_on,40,0,0,,,,,,,,0,,,75,0
40440,note_on,0,0,0,,,,,,,,0,,,63,0
40440,note_on,0,0,0,,,,,,,,0,,,86,70
40440,note_on,0,0,0,,,,,,,,0,,,74,63
40480,note_on,40,0,0,,,,,,,,0,,,74,0
40480,note_on,0,0,0,,,,,,,,0,,,86,0
40480,note_on,0,0,0,,,,,,,,0,,,61,72
40480,note_on,0,0,0,,,,,,,,0,,,73,81
40520,note_on,40,0,0,,,,,,,,0,,,61,0
40520,note_on,0,0,0,,,,,,,,0,,,84,71
40520,note_on,0,0,0,,,,,,,,0,,,72,63
40525,note_on,5,0,0,,,,,,,,0,,,73,0
40560,note_on,35,0,0,,,,,,,,0,,,71,82
40560,note_on,0,0,0,,,,,,,,0,,,59,73
40565,note_on,5,0,0,,,,,,,,0,,,72,0
40565,note_on,0,0,0,,,,,,,,0,,,84,0
40600,note_on,35,0,0,,,,,,,,0,,,82,71
40600,note_on,0,0,0,,,,,,,,0,,,70,63
40605,note_on,5,0,0,,,,,,,,0,,,59,0
40610,note_on,5,0,0,,,,,,,,0,,,71,0
40640,note_on,30,0,0,,,,,,,,0,,,69,82
40640,note_on,0,0,0,,,,,,,,0,,,57,73
40650,note_on,10,0,0,,,,,,,,0,,,82,0
40650,note_on,0,0,0,,,,,,,,0,,,70,0
40680,note_on,30,0,0,,,,,,,,0,,,80,72
40680,note_on,0,0,0,,,,,,,,0,,,68,64
40690,note_on,10,0,0,,,,,,,,0,,,69,0
40690,note_on,0,0,0,,,,,,,,0,,,57,0
40720,note_on,30,0,0,,,,,,,,0,,,67,83
40720,note_on,0,0,0,,,,,,,,0,,,55,73
40730,note_on,10,0,0,,,,,,,,0,,,80,0
40730,note_on,0,0,0,,,,,,,,0,,,68,0
40760,note_on,30,0,0,,,,,,,,0,,,78,72
40760,note_on,0,0,0,,,,,,,,0,,,66,64
40770,note_on,10,0,0,,,,,,,,0,,,67,0
40770,note_on,0,0,0,,,,,,,,0,,,55,0
40800,set_tempo,30,1,0,,,,,,869565,,,,,,
40800,note_on,0,0,0,,,,,,,,0,,,65,84
40800,note_on,0,0,0,,,,,,,,0,,,53,74
40810,note_on,10,0,0,,,,,,,,0,,,78,0
40810,note_on,0,0,0,,,,,,,,0,,,66,0
40832,control_change,22,0,0,,,,,,,,0,64,127,,
40840,note_on,8,0,0,,,,,,,,0,,,64,64
40840,note_on,0,0,0,,,,,,,,0,,,76,72
40850,note_on,10,0,0,,,,,,,,0,,,65,0
40850,note_on,0,0,0,,,,,,,,0,,,53,0
40880,set_tempo,30,1,0,,,,,,875912,,,,,,
40880,note_on,0,0,0,,,,,,,,0,,,63,85
40880,note_on,0,0,0,,,,,,,,0,,,51,76
40890,note_on,10,0,0,,,,,,,,0,,,64,0
40890,note_on,0,0,0,,,,,,,,0,,,76,0
40920,note_on,30,0,0,,,,,,,,0,,,74,72
40920,note_on,0,0,0,,,,,,,,0,,,62,64
40931,note_on,11,0,0,,,,,,,,0,,,63,0
40931,note_on,0,0,0,,,,,,,,0,,,51,0
40960,set_tempo,29,1,0,,,,,,882353,,,,,,
40960,note_on,0,0,0,,,,,,,,0,,,61,86
40960,note_on,0,0,0,,,,,,,,0,,,49,77
40972,note_on,12,0,0,,,,,,,,0,,,74,0
40972,note_on,0,0,0,,,,,,,,0,,,62,0
41000,note_on,28,0,0,,,,,,,,0,,,60,65
41000,note_on,0,0,0,,,,,,,,0,,,72,73
41013,note_on,13,0,0,,,,,,,,0,,,61,0
41013,note_on,0,0,0,,,,,,,,0,,,49,0
41040,set_tempo,27,1,0,,,,,,888889,,,,,,
41040,note_on,0,0,0,,,,,,,,0,,,47,77
41040,note_on,0,0,0,,,,,,,,0,,,59,86
41054,note_on,14,0,0,,,,,,,,0,,,60,0
41054,note_on,0,0,0,,,,,,,,0,,,72,0
41080,note_on,26,0,0,,,,,,,,0,,,70,73
41080,note_on,0,0,0,,,,,,,,0,,,58,65
41095,note_on,15,0,0,,,,,,,,0,,,47,0
41095,note_on,0,0,0,,,,,,,,0,,,59,0
41120,set_tempo,25,1,0,,,,,,895522,,,,,,
41120,note_on,0,0,0,,,,,,,,0,,,57,87
41120,note_on,0,0,0,,,,,,,,0,,,45,78
41136,note_on,16,0,0,,,,,,,,0,,,70,0
41136,note_on,0,0,0,,,,,,,,0,,,58,0
41160,note_on,24,0,0,,,,,,,,0,,,68,73
41160,note_on,0,0,0,,,,,,,,0,,,56,65
41177,note_on,17,0,0,,,,,,,,0,,,57,0
41177,note_on,0,0,0,,,,,,,,0,,,45,0
41200,set_tempo,23,1,0,,,,,,902256,,,,,,
41200,note_on,0,0,0,,,,,,,,0,,,41,79
41200,note_on,0,0,0,,,,,,,,0,,,53,88
41218,note_on,18,0,0,,,,,,,,0,,,68,0
41218,note_on,0,0,0,,,,,,,,0,,,56,0
41240,note_on,22,0,0,,,,,,,,0,,,62,73
41240,note_on,0,0,0,,,,,,,,0,,,50,65
41259,note_on,19,0,0,,,,,,,,0,,,41,0
41259,note_on,0,0,0,,,,,,,,0,,,53,0
41280,set_tempo,21,1,0,,,,,,909091,,,,,,
41280,control_change,0,0,0,,,,,,,,0,64,0,,
41280,note_on,0,0,0,,,,,,,,0,,,46,94
41280,note_on,0,0,0,,,,,,,,0,,,34,84
41300,note_on,20,0,0,,,,,,,,0,,,62,0
41300,note_on,0,0,0,,,,,,,,0,,,50,0
41353,control_change,53,0,0,,,,,,,,0,64,127,,
41520,set_tempo,167,1,0,,,,,,909091,,,,,,
41520,note_on,0,0,0,,,,,,,,0,,,46,0
41520,note_on,0,0,0,,,,,,,,0,,,34,0
41520,note_on,0,0,0,,,,,,,,0,,,45,74
41520,note_on,0,0,0,,,,,,,,0,,,33,74
41532,control_change,12,0,0,,,,,,,,0,64,0,,
41560,set_tempo,28,1,0,,,,,,902256,,,,,,
41560,note_on,0,0,0,,,,,,,,0,,,33,0
41560,note_on,0,0,0,,,,,,,,0,,,45,0
41560,note_on,0,0,0,,,,,,,,0,,,46,72
41560,note_on,0,0,0,,,,,,,,0,,,34,72
41580,set_tempo,20,1,0,,,,,,895522,,,,,,
41600,note_on,20,0,0,,,,,,,,0,,,34,0
41600,note_on,0,0,0,,,,,,,,0,,,46,0
41600,note_on,0,0,0,,,,,,,,0,,,50,72
41600,note_on,0,0,0,,,,,,,,0,,,38,72
41620,set_tempo,20,1,0,,,,,,888889,,,,,,
41640,set_tempo,20,1,0,,,,,,882353,,,,,,
41640,note_on,0,0,0,,,,,,,,0,,,53,73
41640,note_on,0,0,0,,,,,,,,0,,,41,73
41645,note_on,5,0,0,,,,,,,,0,,,38,0
41645,note_on,0,0,0,,,,,,,,0,,,50,0
41660,set_tempo,15,1,0,,,,,,875912,,,,,,
41680,note_on,20,0,0,,,,,,,,0,,,56,73
41680,note_on,0,0,0,,,,,,,,0,,,44,73
41686,note_on,6,0,0,,,,,,,,0,,,53,0
41686,note_on,0,0,0,,,,,,,,0,,,41,0
41700,set_tempo,14,1,0,,,,,,869565,,,,,,
41720,set_tempo,20,1,0,,,,,,863309,,,,,,
41720,note_on,0,0,0,,,,,,,,0,,,58,74
41720,note_on,0,0,0,,,,,,,,0,,,46,74
41727,note_on,7,0,0,,,,,,,,0,,,56,0
41727,note_on,0,0,0,,,,,,,,0,,,44,0
41740,set_tempo,13,1,0,,,,,,857143,,,,,,
41760,set_tempo,20,1,0,,,,,,857143,,,,,,
41760,note_on,0,0,0,,,,,,,,0,,,62,74
41760,note_on,0,0,0,,,,,,,,0,,,50,74
41768,note_on,8,0,0,,,,,,,,0,,,58,0
41768,note_on,0,0,0,,,,,,,,0,,,46,0
41800,note_on,32,0,0,,,,,,,,0,,,65,76
41800,note_on,0,0,0,,,,,,,,0,,,53,76
41809,note_on,9,0,0,,,,,,,,0,,,62,0
41809,note_on,0,0,0,,,,,,,,0,,,50,0
41810,control_change,1,0,0,,,,,,,,0,64,127,,
41840,note_on,30,0,0,,,,,,,,0,,,68,76
41840,note_on,0,0,0,,,,,,,,0,,,56,76
41850,note_on,10,0,0,,,,,,,,0,,,65,0
41850,note_on,0,0,0,,,,,,,,0,,,53,0
41880,note_on,30,0,0,,,,,,,,0,,,68,0
41880,note_on,0,0,0,,,,,,,,0,,,56,0
41880,note_on,0,0,0,,,,,,,,0,,,70,77
41880,note_on,0,0,0,,,,,,,,0,,,58,77
41920,set_tempo,40,1,0,,,,,,863309,,,,,,
41920,note_on,0,0,0,,,,,,,,0,,,58,0
41920,note_on,0,0,0,,,,,,,,0,,,70,0
41920,note_on,0,0,0,,,,,,,,0,,,74,77
41920,note_on,0,0,0,,,,,,,,0,,,62,77
41960,note_on,40,0,0,,,,,,,,0,,,62,0
41960,note_on,0,0,0,,,,,,,,0,,,74,0
41960,note_on,0,0,0,,,,,,,,0,,,77,77
41960,note_on,0,0,0,,,,,,,,0,,,65,77
42000,note_on,40,0,0,,,,,,,,0,,,65,0
42000,note_on,0,0,0,,,,,,,,0,,,77,0
42000,note_on,0,0,0,,,,,,,,0,,,80,78
42000,note_on,0,0,0,,,,,,,,0,,,68,78
42048,note_on,48,0,0,,,,,,,,0,,,68,0
42048,note_on,0,0,0,,,,,,,,0,,,80,0
42048,note_on,0,0,0,,,,,,,,0,,,82,78
42048,note_on,0,0,0,,,,,,,,0,,,70,78
42080,set_tempo,32,1,0,,,,,,869565,,,,,,
42096,note_on,16,0,0,,,,,,,,0,,,70,0
42096,note_on,0,0,0,,,,,,,,0,,,82,0
42096,note_on,0,0,0,,,,,,,,0,,,86,79
42096,note_on,0,0,0,,,,,,,,0,,,74,79
42144,note_on,48,0,0,,,,,,,,0,,,74,0
42144,note_on,0,0,0,,,,,,,,0,,,86,0
42144,note_on,0,0,0,,,,,,,,0,,,89,80
42144,note_on,0,0,0,,,,,,,,0,,,77,80
42192,note_on,48,0,0,,,,,,,,0,,,77,0
42192,note_on,0,0,0,,,,,,,,0,,,89,0
42192,note_on,0,0,0,,,,,,,,0,,,92,80
42192,note_on,0,0,0,,,,,,,,0,,,80,80
42220,set_tempo,28,1,0,,,,,,875912,,,,,,
42240,set_tempo,20,1,0,,,,,,1000000,,,,,,
42240,note_on,0,0,0,,,,,,,,0,,,80,0
42240,note_on,0,0,0,,,,,,,,0,,,92,0
42240,note_on,0,0,0,,,,,,,,0,,,93,81
42240,note_on,0,0,0,,,,,,,,0,,,81,81
42248,control_change,8,0,0,,,,,,,,0,64,0,,
42265,note_on,17,0,0,,,,,,,,0,,,81,0
42265,note_on,0,0,0,,,,,,,,0,,,93,0
42274,note_on,9,0,0,,,,,,,,0,,,96,78
42274,note_on,0,0,0,,,,,,,,0,,,84,78
42300,set_tempo,26,1,0,,,,,,991736,,,,,,
42304,note_on,4,0,0,,,,,,,,0,,,84,0
42304,note_on,0,0,0,,,,,,,,0,,,96,0
42308,note_on,4,0,0,,,,,,,,0,,,94,77
42308,note_on,0,0,0,,,,,,,,0,,,82,77
42338,note_on,30,0,0,,,,,,,,0,,,82,0
42338,note_on,0,0,0,,,,,,,,0,,,94,0
42342,note_on,4,0,0,,,,,,,,0,,,92,77
42342,note_on,0,0,0,,,,,,,,0,,,80,77
42360,set_tempo,18,1,0,,,,,,983607,,,,,,
42372,note_on,12,0,0,,,,,,,,0,,,80,0
42372,note_on,0,0,0,,,,,,,,0,,,92,0
42376,note_on,4,0,0,,,,,,,,0,,,89,77
42376,note_on,0,0,0,,,,,,,,0,,,77,77
42406,note_on,30,0,0,,,,,,,,0,,,77,0
42406,note_on,0,0,0,,,,,,,,0,,,89,0
42410,note_on,4,0,0,,,,,,,,0,,,86,77
42410,note_on,0,0,0,,,,,,,,0,,,74,77
42420,set_tempo,10,1,0,,,,,,975610,,,,,,
42440,note_on,20,0,0,,,,,,,,0,,,74,0
42440,note_on,0,0,0,,,,,,,,0,,,86,0
42444,note_on,4,0,0,,,,,,,,0,,,82,77
42444,note_on,0,0,0,,,,,,,,0,,,70,77
42474,note_on,30,0,0,,,,,,,,0,,,70,0
42474,note_on,0,0,0,,,,,,,,0,,,82,0
42480,set_tempo,6,1,0,,,,,,967742,,,,,,
42480,note_on,0,0,0,,,,,,,,0,,,81,81
42480,note_on,0,0,0,,,,,,,,0,,,69,81
42510,note_on,30,0,0,,,,,,,,0,,,69,0
42510,note_on,0,0,0,,,,,,,,0,,,81,0
42514,note_on,4,0,0,,,,,,,,0,,,84,78
42514,note_on,0,0,0,,,,,,,,0,,,72,78
42548,note_on,34,0,0,,,,,,,,0,,,72,0
42548,note_on,0,0,0,,,,,,,,0,,,84,0
42548,note_on,0,0,0,,,,,,,,0,,,82,77
42548,note_on,0,0,0,,,,,,,,0,,,70,77
42582,note_on,34,0,0,,,,,,,,0,,,70,0
42582,note_on,0,0,0,,,,,,,,0,,,82,0
42582,note_on,0,0,0,,,,,,,,0,,,80,77
42582,note_on,0,0,0,,,,,,,,0,,,68,77
42616,note_on,34,0,0,,,,,,,,0,,,68,0
42616,note_on,0,0,0,,,,,,,,0,,,80,0
42616,note_on,0,0,0,,,,,,,,0,,,77,77
42616,note_on,0,0,0,,,,,,,,0,,,65,77
42650,note_on,34,0,0,,,,,,,,0,,,65,0
42650,note_on,0,0,0,,,,,,,,0,,,77,0
42650,note_on,0,0,0,,,,,,,,0,,,74,77
42650,note_on,0,0,0,,,,,,,,0,,,62,77
42684,note_on,34,0,0,,,,,,,,0,,,62,0
42684,note_on,0,0,0,,,,,,,,0,,,74,0
42684,note_on,0,0,0,,,,,,,,0,,,70,77
42684,note_on,0,0,0,,,,,,,,0,,,58,77
42718,note_on,34,0,0,,,,,,,,0,,,58,0
42718,note_on,0,0,0,,,,,,,,0,,,70,0
42720,note_on,2,0,0,,,,,,,,0,,,69,81
42720,note_on,0,0,0,,,,,,,,0,,,57,81
42750,note_on,30,0,0,,,,,,,,0,,,57,0
42750,note_on,0,0,0,,,,,,,,0,,,69,0
42754,note_on,4,0,0,,,,,,,,0,,,72,78
42754,note_on,0,0,0,,,,,,,,0,,,60,78
42788,note_on,34,0,0,,,,,,,,0,,,60,0
42788,note_on,0,0,0,,,,,,,,0,,,72,0
42788,note_on,0,0,0,,,,,,,,0,,,70,77
42788,note_on,0,0,0,,,,,,,,0,,,58,77
42822,note_on,34,0,0,,,,,,,,0,,,58,0
42822,note_on,0,0,0,,,,,,,,0,,,70,0
42822,note_on,0,0,0,,,,,,,,0,,,68,77
42822,note_on,0,0,0,,,,,,,,0,,,56,77
42856,note_on,34,0,0,,,,,,,,0,,,56,0
42856,note_on,0,0,0,,,,,,,,0,,,68,0
42856,note_on,0,0,0,,,,,,,,0,,,65,77
42856,note_on,0,0,0,,,,,,,,0,,,53,77
42890,note_on,34,0,0,,,,,,,,0,,,53,0
42890,note_on,0,0,0,,,,,,,,0,,,65,0
42890,note_on,0,0,0,,,,,,,,0,,,62,77
42890,note_on,0,0,0,,,,,,,,0,,,50,77
42924,note_on,34,0,0,,,,,,,,0,,,50,0
42924,note_on,0,0,0,,,,,,,,0,,,62,0
42924,note_on,0,0,0,,,,,,,,0,,,58,76
42924,note_on,0,0,0,,,,,,,,0,,,46,76
42958,note_on,34,0,0,,,,,,,,0,,,46,0
42958,note_on,0,0,0,,,,,,,,0,,,58,0
42960,set_tempo,2,1,0,,,,,,857143,,,,,,
42960,note_on,0,0,0,,,,,,,,0,,,57,78
42960,note_on,0,0,0,,,,,,,,0,,,45,78
43000,set_tempo,40,1,0,,,,,,863309,,,,,,
43008,note_on,8,0,0,,,,,,,,0,,,58,80
43008,note_on,0,0,0,,,,,,,,0,,,46,80
43010,note_on,2,0,0,,,,,,,,0,,,45,0
43010,note_on,0,0,0,,,,,,,,0,,,57,0
43040,set_tempo,30,1,0,,,,,,869565,,,,,,
43056,note_on,16,0,0,,,,,,,,0,,,62,83
43056,note_on,0,0,0,,,,,,,,0,,,50,83
43058,note_on,2,0,0,,,,,,,,0,,,58,0
43058,note_on,0,0,0,,,,,,,,0,,,46,0
43060,set_tempo,2,1,0,,,,,,875912,,,,,,
43100,set_tempo,40,1,0,,,,,,882353,,,,,,
43104,note_on,4,0,0,,,,,,,,0,,,65,85
43104,note_on,0,0,0,,,,,,,,0,,,53,85
43106,note_on,2,0,0,,,,,,,,0,,,62,0
43106,note_on,0,0,0,,,,,,,,0,,,50,0
43120,set_tempo,14,1,0,,,,,,888889,,,,,,
43152,note_on,32,0,0,,,,,,,,0,,,68,88
43152,note_on,0,0,0,,,,,,,,0,,,56,88
43159,note_on,7,0,0,,,,,,,,0,,,65,0
43159,note_on,0,0,0,,,,,,,,0,,,53,0
43160,set_tempo,1,1,0,,,,,,895522,,,,,,
43180,set_tempo,20,1,0,,,,,,902256,,,,,,
43200,time_signature,20,1,0,3,4,24,8,,,,,,,,
43200,set_tempo,0,1,0,,,,,,7058824,,,,,,
43200,marker,0,1,0,,,,,,,,,,,,
43200,note_on,0,0,0,,,,,,,,0,,,68,0
43200,note_on,0,0,0,,,,,,,,0,,,56,0
43200,note_on,0,0,0,,,,,,,,0,,,57,92
43200,note_on,0,0,0,,,,,,,,0,,,45,73
43230,note_on,30,0,0,,,,,,,,0,,,45,0
43230,note_on,0,0,0,,,,,,,,0,,,57,0
43237,note_on,7,0,0,,,,,,,,0,,,58,64
43237,note_on,0,0,0,,,,,,,,0,,,70,81
43240,set_tempo,3,1,0,,,,,,1714286,,,,,,
43250,note_on,10,0,0,,,,,,,,0,,,70,0
43250,note_on,0,0,0,,,,,,,,0,,,58,0
43250,note_on,0,0,0,,,,,,,,0,,,51,66
43250,note_on,0,0,0,,,,,,,,0,,,63,84
43260,set_tempo,10,1,0,,,,,,1690141,,,,,,
43262,control_change,2,0,0,,,,,,,,0,64,127,,
43275,note_on,13,0,0,,,,,,,,0,,,74,73
43275,note_on,0,0,0,,,,,,,,0,,,62,58
43280,set_tempo,5,1,0,,,,,,1643836,,,,,,
43287,note_on,7,0,0,,,,,,,,0,,,63,0
43287,note_on,0,0,0,,,,,,,,0,,,51,0
43300,set_tempo,13,1,0,,,,,,1600000,,,,,,
43300,note_on,0,0,0,,,,,,,,0,,,61,85
43300,note_on,0,0,0,,,,,,,,0,,,49,67
43312,note_on,12,0,0,,,,,,,,0,,,74,0
43312,note_on,0,0,0,,,,,,,,0,,,62,0
43320,set_tempo,8,1,0,,,,,,1558442,,,,,,
43325,note_on,5,0,0,,,,,,,,0,,,72,74
43325,note_on,0,0,0,,,,,,,,0,,,60,59
43337,note_on,12,0,0,,,,,,,,0,,,61,0
43337,note_on,0,0,0,,,,,,,,0,,,49,0
43340,set_tempo,3,1,0,,,,,,1518987,,,,,,
43350,note_on,10,0,0,,,,,,,,0,,,59,87
43350,note_on,0,0,0,,,,,,,,0,,,47,70
43360,set_tempo,10,1,0,,,,,,1500000,,,,,,
43362,note_on,2,0,0,,,,,,,,0,,,72,0
43362,note_on,0,0,0,,,,,,,,0,,,60,0
43375,note_on,13,0,0,,,,,,,,0,,,70,77
43375,note_on,0,0,0,,,,,,,,0,,,58,62
43380,set_tempo,5,1,0,,,,,,1463415,,,,,,
43387,note_on,7,0,0,,,,,,,,0,,,59,0
43387,note_on,0,0,0,,,,,,,,0,,,47,0
43400,set_tempo,13,1,0,,,,,,1428571,,,,,,
43400,note_on,0,0,0,,,,,,,,0,,,57,90
43400,note_on,0,0,0,,,,,,,,0,,,45,72
43412,note_on,12,0,0,,,,,,,,0,,,70,0
43412,note_on,0,0,0,,,,,,,,0,,,58,0
43420,set_tempo,8,1,0,,,,,,1395349,,,,,,
43425,note_on,5,0,0,,,,,,,,0,,,68,79
43425,note_on,0,0,0,,,,,,,,0,,,56,63
43437,note_on,12,0,0,,,,,,,,0,,,57,0
43437,note_on,0,0,0,,,,,,,,0,,,45,0
43440,set_tempo,3,1,0,,,,,,1363636,,,,,,
43450,note_on,10,0,0,,,,,,,,0,,,43,72
43450,note_on,0,0,0,,,,,,,,0,,,55,90
43460,set_tempo,10,1,0,,,,,,1333333,,,,,,
43462,note_on,2,0,0,,,,,,,,0,,,68,0
43462,note_on,0,0,0,,,,,,,,0,,,56,0
43475,note_on,13,0,0,,,,,,,,0,,,66,81
43475,note_on,0,0,0,,,,,,,,0,,,54,64
43480,set_tempo,5,1,0,,,,,,1318681,,,,,,
43487,note_on,7,0,0,,,,,,,,0,,,43,0
43487,note_on,0,0,0,,,,,,,,0,,,55,0
43500,set_tempo,13,1,0,,,,,,1290323,,,,,,
43500,note_on,0,0,0,,,,,,,,0,,,41,73
43500,note_on,0,0,0,,,,,,,,0,,,53,92
43512,note_on,12,0,0,,,,,,,,0,,,66,0
43512,note_on,0,0,0,,,,,,,,0,,,54,0
43520,set_tempo,8,1,0,,,,,,1263158,,,,,,
43525,note_on,5,0,0,,,,,,,,0,,,64,82
43525,note_on,0,0,0,,,,,,,,0,,,52,65
43537,note_on,12,0,0,,,,,,,,0,,,41,0
43537,note_on,0,0,0,,,,,,,,0,,,53,0
43540,set_tempo,3,1,0,,,,,,1237113,,,,,,
43550,note_on,10,0,0,,,,,,,,0,,,39,73
43550,note_on,0,0,0,,,,,,,,0,,,51,93
43560,set_tempo,10,1,0,,,,,,1212121,,,,,,
43562,note_on,2,0,0,,,,,,,,0,,,64,0
43562,note_on,0,0,0,,,,,,,,0,,,52,0
43575,note_on,13,0,0,,,,,,,,0,,,62,84
43575,note_on,0,0,0,,,,,,,,0,,,50,66
43580,set_tempo,5,1,0,,,,,,1200000,,,,,,
43587,note_on,7,0,0,,,,,,,,0,,,39,0
43587,note_on,0,0,0,,,,,,,,0,,,51,0
43600,set_tempo,13,1,0,,,,,,1176471,,,,,,
43600,note_on,0,0,0,,,,,,,,0,,,37,95
43600,note_on,0,0,0,,,,,,,,0,,,49,95
43612,note_on,12,0,0,,,,,,,,0,,,62,0
43612,note_on,0,0,0,,,,,,,,0,,,50,0
43620,set_tempo,8,1,0,,,,,,1153846,,,,,,
43625,note_on,5,0,0,,,,,,,,0,,,48,69
43625,note_on,0,0,0,,,,,,,,0,,,60,86
43637,note_on,12,0,0,,,,,,,,0,,,37,0
43637,note_on,0,0,0,,,,,,,,0,,,49,0
43640,set_tempo,3,1,0,,,,,,1132075,,,,,,
43650,note_on,10,0,0,,,,,,,,0,,,47,97
43650,note_on,0,0,0,,,,,,,,0,,,35,97
43660,set_tempo,10,1,0,,,,,,1111111,,,,,,
43662,note_on,2,0,0,,,,,,,,0,,,48,0
43662,note_on,0,0,0,,,,,,,,0,,,60,0
43680,set_tempo,18,1,0,,,,,,1000000,,,,,,
43680,note_on,0,0,0,,,,,,,,0,,,46,92
43680,note_on,0,0,0,,,,,,,,0,,,34,74
43685,control_change,5,0,0,,,,,,,,0,64,0,,
43695,note_on,10,0,0,,,,,,,,0,,,47,0
43695,note_on,0,0,0,,,,,,,,0,,,35,0
43770,note_on,75,0,0,,,,,,,,0,,,46,0
43770,note_on,0,0,0,,,,,,,,0,,,34,0
43920,set_tempo,150,1,0,,,,,,1090909,,,,,,
43920,note_on,0,0,0,,,,,,,,0,,,63,64
43920,note_on,0,0,0,,,,,,,,0,,,67,64
43920,note_on,0,0,0,,,,,,,,0,,,75,81
43920,note_on,0,0,0,,,,,,,,0,,,51,63
43920,note_on,0,0,0,,,,,,,,0,,,46,63
43920,note_on,0,0,0,,,,,,,,0,,,39,63
44020,note_on,100,0,0,,,,,,,,0,,,39,0
44020,note_on,0,0,0,,,,,,,,0,,,67,0
44020,note_on,0,0,0,,,,,,,,0,,,75,0
44020,note_on,0,0,0,,,,,,,,0,,,63,0
44020,note_on,0,0,0,,,,,,,,0,,,46,0
44020,note_on,0,0,0,,,,,,,,0,,,51,0
44160,set_tempo,140,1,0,,,,,,1121495,,,,,,
44160,note_on,0,0,0,,,,,,,,0,,,65,70
44160,note_on,0,0,0,,,,,,,,0,,,68,70
44160,note_on,0,0,0,,,,,,,,0,,,77,87
44160,note_on,0,0,0,,,,,,,,0,,,53,65
44160,note_on,0,0,0,,,,,,,,0,,,46,65
44160,note_on,0,0,0,,,,,,,,0,,,39,65
44260,note_on,100,0,0,,,,,,,,0,,,39,0
44260,note_on,0,0,0,,,,,,,,0,,,68,0
44260,note_on,0,0,0,,,,,,,,0,,,77,0
44260,note_on,0,0,0,,,,,,,,0,,,65,0
44260,note_on,0,0,0,,,,,,,,0,,,46,0
44260,note_on,0,0,0,,,,,,,,0,,,53,0
44400,set_tempo,140,1,0,,,,,,1188119,,,,,,
44400,note_on,0,0,0,,,,,,,,0,,,66,64
44400,note_on,0,0,0,,,,,,,,0,,,69,64
44400,note_on,0,0,0,,,,,,,,0,,,78,81
44400,note_on,0,0,0,,,,,,,,0,,,39,63
44400,note_on,0,0,0,,,,,,,,0,,,46,63
44400,note_on,0,0,0,,,,,,,,0,,,54,63
44500,note_on,100,0,0,,,,,,,,0,,,54,0
44500,note_on,0,0,0,,,,,,,,0,,,69,0
44500,note_on,0,0,0,,,,,,,,0,,,78,0
44500,note_on,0,0,0,,,,,,,,0,,,66,0
44500,note_on,0,0,0,,,,,,,,0,,,46,0
44500,note_on,0,0,0,,,,,,,,0,,,39,0
44640,time_signature,140,1,0,4,4,24,8,,,,,,,,
44640,set_tempo,0,1,0,,,,,,1290323,,,,,,
44640,note_on,0,0,0,,,,,,,,0,,,70,70
44640,note_on,0,0,0,,,,,,,,0,,,67,70
44640,note_on,0,0,0,,,,,,,,0,,,79,87
44640,note_on,0,0,0,,,,,,,,0,,,55,82
44640,note_on,0,0,0,,,,,,,,0,,,46,65
44640,note_on,0,0,0,,,,,,,,0,,,39,65
44706,control_change,66,0,0,,,,,,,,0,64,127,,
44880,set_tempo,174,1,0,,,,,,1165049,,,,,,
44880,note_on,0,0,0,,,,,,,,0,,,55,0
44880,note_on,0,0,0,,,,,,,,0,,,79,0
44880,note_on,0,0,0,,,,,,,,0,,,70,0
44880,note_on,0,0,0,,,,,,,,0,,,67,0
44880,note_on,0,0,0,,,,,,,,0,,,63,64
44880,note_on,0,0,0,,,,,,,,0,,,75,80
44880,note_on,0,0,0,,,,,,,,0,,,51,79
44891,control_change,11,0,0,,,,,,,,0,64,0,,
45000,note_on,109,0,0,,,,,,,,0,,,51,0
45000,note_on,0,0,0,,,,,,,,0,,,63,0
45000,note_on,0,0,0,,,,,,,,0,,,75,0
45120,set_tempo,120,1,0,,,,,,1714286,,,,,,
45120,note_on,0,0,0,,,,,,,,0,,,39,0
45120,note_on,0,0,0,,,,,,,,0,,,46,0
45120,note_on,0,0,0,,,,,,,,0,,,57,85
45120,note_on,0,0,0,,,,,,,,0,,,45,85
45131,control_change,11,0,0,,,,,,,,0,64,127,,
45165,note_on,34,0,0,,,,,,,,0,,,45,0
45165,note_on,0,0,0,,,,,,,,0,,,57,0
45171,note_on,6,0,0,,,,,,,,0,,,58,77
45171,note_on,0,0,0,,,,,,,,0,,,70,77
45180,set_tempo,9,1,0,,,,,,1263158,,,,,,
45188,note_on,8,0,0,,,,,,,,0,,,70,0
45188,note_on,0,0,0,,,,,,,,0,,,58,0
45188,note_on,0,0,0,,,,,,,,0,,,55,81
45188,note_on,0,0,0,,,,,,,,0,,,67,81
45200,set_tempo,12,1,0,,,,,,1250000,,,,,,
45220,set_tempo,20,1,0,,,,,,1224490,,,,,,
45222,note_on,2,0,0,,,,,,,,0,,,65,70
45222,note_on,0,0,0,,,,,,,,0,,,77,70
45239,note_on,17,0,0,,,,,,,,0,,,67,0
45239,note_on,0,0,0,,,,,,,,0,,,55,0
45240,set_tempo,1,1,0,,,,,,1200000,,,,,,
45256,note_on,16,0,0,,,,,,,,0,,,63,83
45256,note_on,0,0,0,,,,,,,,0,,,51,83
45260,set_tempo,4,1,0,,,,,,1176471,,,,,,
45273,note_on,13,0,0,,,,,,,,0,,,65,0
45273,note_on,0,0,0,,,,,,,,0,,,77,0
45280,set_tempo,7,1,0,,,,,,1153846,,,,,,
45290,note_on,10,0,0,,,,,,,,0,,,62,72
45290,note_on,0,0,0,,,,,,,,0,,,74,72
45300,set_tempo,10,1,0,,,,,,1142857,,,,,,
45307,note_on,7,0,0,,,,,,,,0,,,63,0
45307,note_on,0,0,0,,,,,,,,0,,,51,0
45320,set_tempo,13,1,0,,,,,,1121495,,,,,,
45324,note_on,4,0,0,,,,,,,,0,,,60,85
45324,note_on,0,0,0,,,,,,,,0,,,48,85
45340,set_tempo,16,1,0,,,,,,1100917,,,,,,
45341,note_on,1,0,0,,,,,,,,0,,,62,0
45341,note_on,0,0,0,,,,,,,,0,,,74,0
45358,note_on,17,0,0,,,,,,,,0,,,58,74
45358,note_on,0,0,0,,,,,,,,0,,,70,74
45360,set_tempo,2,1,0,,,,,,1081081,,,,,,
45375,note_on,15,0,0,,,,,,,,0,,,60,0
45375,note_on,0,0,0,,,,,,,,0,,,48,0
45380,set_tempo,5,1,0,,,,,,1061947,,,,,,
45392,note_on,12,0,0,,,,,,,,0,,,56,87
45392,note_on,0,0,0,,,,,,,,0,,,44,87
45400,set_tempo,8,1,0,,,,,,1052632,,,,,,
45409,note_on,9,0,0,,,,,,,,0,,,58,0
45409,note_on,0,0,0,,,,,,,,0,,,70,0
45420,set_tempo,11,1,0,,,,,,1034483,,,,,,
45426,note_on,6,0,0,,,,,,,,0,,,55,76
45426,note_on,0,0,0,,,,,,,,0,,,67,76
45440,set_tempo,14,1,0,,,,,,1016949,,,,,,
45443,note_on,3,0,0,,,,,,,,0,,,56,0
45443,note_on,0,0,0,,,,,,,,0,,,44,0
45460,set_tempo,17,1,0,,,,,,1000000,,,,,,
45460,note_on,0,0,0,,,,,,,,0,,,53,90
45460,note_on,0,0,0,,,,,,,,0,,,41,90
45477,note_on,17,0,0,,,,,,,,0,,,55,0
45477,note_on,0,0,0,,,,,,,,0,,,67,0
45480,set_tempo,3,1,0,,,,,,983607,,,,,,
45494,note_on,14,0,0,,,,,,,,0,,,51,79
45494,note_on,0,0,0,,,,,,,,0,,,63,79
45500,set_tempo,6,1,0,,,,,,975610,,,,,,
45511,note_on,11,0,0,,,,,,,,0,,,53,0
45511,note_on,0,0,0,,,,,,,,0,,,41,0
45520,set_tempo,9,1,0,,,,,,960000,,,,,,
45528,note_on,8,0,0,,,,,,,,0,,,38,92
45528,note_on,0,0,0,,,,,,,,0,,,50,92
45540,set_tempo,12,1,0,,,,,,944882,,,,,,
45545,note_on,5,0,0,,,,,,,,0,,,51,0
45545,note_on,0,0,0,,,,,,,,0,,,63,0
45560,set_tempo,15,1,0,,,,,,930233,,,,,,
45562,note_on,2,0,0,,,,,,,,0,,,48,81
45562,note_on,0,0,0,,,,,,,,0,,,60,81
45579,note_on,17,0,0,,,,,,,,0,,,38,0
45579,note_on,0,0,0,,,,,,,,0,,,50,0
45580,set_tempo,1,1,0,,,,,,916031,,,,,,
45600,set_tempo,20,1,0,,,,,,991736,,,,,,
45600,note_on,0,0,0,,,,,,,,0,,,34,92
45600,note_on,0,0,0,,,,,,,,0,,,46,92
45609,control_change,9,0,0,,,,,,,,0,64,0,,
45619,note_on,10,0,0,,,,,,,,0,,,48,0
45619,note_on,0,0,0,,,,,,,,0,,,60,0
45690,note_on,71,0,0,,,,,,,,0,,,34,0
45690,note_on,0,0,0,,,,,,,,0,,,46,0
45840,set_tempo,150,1,0,,,,,,1153846,,,,,,
45840,note_on,0,0,0,,,,,,,,0,,,63,71
45840,note_on,0,0,0,,,,,,,,0,,,67,71
45840,note_on,0,0,0,,,,,,,,0,,,75,79
45840,note_on,0,0,0,,,,,,,,0,,,39,66
45840,note_on,0,0,0,,,,,,,,0,,,51,66
45840,note_on,0,0,0,,,,,,,,0,,,46,66
45940,note_on,100,0,0,,,,,,,,0,,,46,0
45940,note_on,0,0,0,,,,,,,,0,,,67,0
45940,note_on,0,0,0,,,,,,,,0,,,75,0
45940,note_on,0,0,0,,,,,,,,0,,,63,0
45940,note_on,0,0,0,,,,,,,,0,,,51,0
45940,note_on,0,0,0,,,,,,,,0,,,39,0
46080,set_tempo,140,1,0,,,,,,1200000,,,,,,
46080,note_on,0,0,0,,,,,,,,0,,,65,76
46080,note_on,0,0,0,,,,,,,,0,,,68,76
46080,note_on,0,0,0,,,,,,,,0,,,77,85
46080,note_on,0,0,0,,,,,,,,0,,,53,71
46080,note_on,0,0,0,,,,,,,,0,,,39,71
46080,note_on,0,0,0,,,,,,,,0,,,47,71
46080,note_on,0,0,0,,,,,,,,0,,,50,71
46180,note_on,100,0,0,,,,,,,,0,,,50,0
46180,note_on,0,0,0,,,,,,,,0,,,39,0
46180,note_on,0,0,0,,,,,,,,0,,,68,0
46180,note_on,0,0,0,,,,,,,,0,,,77,0
46180,note_on,0,0,0,,,,,,,,0,,,65,0
46180,note_on,0,0,0,,,,,,,,0,,,47,0
46180,note_on,0,0,0,,,,,,,,0,,,53,0
46320,set_tempo,140,1,0,,,,,,1379310,,,,,,
46320,note_on,0,0,0,,,,,,,,0,,,67,71
46320,note_on,0,0,0,,,,,,,,0,,,70,71
46320,note_on,0,0,0,,,,,,,,0,,,79,79
46320,note_on,0,0,0,,,,,,,,0,,,39,66
46320,note_on,0,0,0,,,,,,,,0,,,46,66
46320,note_on,0,0,0,,,,,,,,0,,,55,66
46420,note_on,100,0,0,,,,,,,,0,,,55,0
46420,note_on,0,0,0,,,,,,,,0,,,70,0
46420,note_on,0,0,0,,,,,,,,0,,,79,0
46420,note_on,0,0,0,,,,,,,,0,,,67,0
46420,note_on,0,0,0,,,,,,,,0,,,46,0
46420,note_on,0,0,0,,,,,,,,0,,,39,0
46560,set_tempo,140,1,0,,,,,,1224490,,,,,,
46560,note_on,0,0,0,,,,,,,,0,,,63,66
46560,note_on,0,0,0,,,,,,,,0,,,67,66
46560,note_on,0,0,0,,,,,,,,0,,,75,74
46560,note_on,0,0,0,,,,,,,,0,,,51,64
46560,note_on,0,0,0,,,,,,,,0,,,46,64
46560,note_on,0,0,0,,,,,,,,0,,,39,64
47020,note_on,460,0,0,,,,,,,,0,,,39,0
47020,note_on,0,0,0,,,,,,,,0,,,67,0
47020,note_on,0,0,0,,,,,,,,0,,,75,0
47020,note_on,0,0,0,,,,,,,,0,,,63,0
47020,note_on,0,0,0,,,,,,,,0,,,46,0
47020,note_on,0,0,0,,,,,,,,0,,,51,0
47040,set_tempo,20,1,0,,,,,,1043478,,,,,,
47040,note_on,0,0,0,,,,,,,,0,,,93,41
47070,note_on,30,0,0,,,,,,,,0,,,93,0
47072,note_on,2,0,0,,,,,,,,0,,,94,36
47100,set_tempo,28,1,0,,,,,,902256,,,,,,
47102,note_on,2,0,0,,,,,,,,0,,,94,0
47104,note_on,2,0,0,,,,,,,,0,,,99,38
47128,note_on,24,0,0,,,,,,,,0,,,99,0
47130,note_on,2,0,0,,,,,,,,0,,,96,36
47154,note_on,24,0,0,,,,,,,,0,,,96,0
47156,note_on,2,0,0,,,,,,,,0,,,94,36
47180,set_tempo,24,1,0,,,,,,895522,,,,,,
47180,note_on,0,0,0,,,,,,,,0,,,94,0
47182,note_on,2,0,0,,,,,,,,0,,,92,36
47206,note_on,24,0,0,,,,,,,,0,,,92,0
47208,note_on,2,0,0,,,,,,,,0,,,91,33
47232,note_on,24,0,0,,,,,,,,0,,,91,0
47234,note_on,2,0,0,,,,,,,,0,,,89,37
47240,set_tempo,6,1,0,,,,,,888889,,,,,,
47258,note_on,18,0,0,,,,,,,,0,,,89,0
47260,note_on,2,0,0,,,,,,,,0,,,87,37
47284,note_on,24,0,0,,,,,,,,0,,,87,0
47286,note_on,2,0,0,,,,,,,,0,,,86,36
47300,set_tempo,14,1,0,,,,,,882353,,,,,,
47310,note_on,10,0,0,,,,,,,,0,,,86,0
47312,note_on,2,0,0,,,,,,,,0,,,84,36
47336,note_on,24,0,0,,,,,,,,0,,,84,0
47338,note_on,2,0,0,,,,,,,,0,,,82,36
47362,note_on,24,0,0,,,,,,,,0,,,82,0
47364,note_on,2,0,0,,,,,,,,0,,,80,36
47380,set_tempo,16,1,0,,,,,,875912,,,,,,
47388,note_on,8,0,0,,,,,,,,0,,,80,0
47390,note_on,2,0,0,,,,,,,,0,,,79,36
47414,note_on,24,0,0,,,,,,,,0,,,79,0
47416,note_on,2,0,0,,,,,,,,0,,,77,36
47440,set_tempo,24,1,0,,,,,,869565,,,,,,
47440,note_on,0,0,0,,,,,,,,0,,,77,0
47442,note_on,2,0,0,,,,,,,,0,,,75,36
47466,note_on,24,0,0,,,,,,,,0,,,75,0
47468,note_on,2,0,0,,,,,,,,0,,,74,36
47492,note_on,24,0,0,,,,,,,,0,,,74,0
47496,note_on,4,0,0,,,,,,,,0,,,72,36
47500,set_tempo,4,1,0,,,,,,863309,,,,,,
47520,set_tempo,20,1,0,,,,,,1100917,,,,,,
47520,note_on,0,0,0,,,,,,,,0,,,72,0
47520,note_on,0,0,0,,,,,,,,0,,,70,41
47610,note_on,90,0,0,,,,,,,,0,,,70,0
47740,set_tempo,130,1,0,,,,,,1153846,,,,,,
47760,set_tempo,20,1,0,,,,,,1153846,,,,,,
47760,note_on,0,0,0,,,,,,,,0,,,55,29
47760,note_on,0,0,0,,,,,,,,0,,,58,29
47760,note_on,0,0,0,,,,,,,,0,,,63,33
47760,note_on,0,0,0,,,,,,,,0,,,51,29
47850,note_on,90,0,0,,,,,,,,0,,,51,0
47850,note_on,0,0,0,,,,,,,,0,,,55,0
47850,note_on,0,0,0,,,,,,,,0,,,58,0
47850,note_on,0,0,0,,,,,,,,0,,,63,0
48000,set_tempo,150,1,0,,,,,,1224490,,,,,,
48000,note_on,0,0,0,,,,,,,,0,,,56,31
48000,note_on,0,0,0,,,,,,,,0,,,59,31
48000,note_on,0,0,0,,,,,,,,0,,,65,36
48000,note_on,0,0,0,,,,,,,,0,,,50,32
48090,note_on,90,0,0,,,,,,,,0,,,50,0
48090,note_on,0,0,0,,,,,,,,0,,,56,0
48090,note_on,0,0,0,,,,,,,,0,,,59,0
48090,note_on,0,0,0,,,,,,,,0,,,65,0
48240,set_tempo,150,1,0,,,,,,1333333,,,,,,
48240,note_on,0,0,0,,,,,,,,0,,,57,30
48240,note_on,0,0,0,,,,,,,,0,,,60,30
48240,note_on,0,0,0,,,,,,,,0,,,66,35
48240,note_on,0,0,0,,,,,,,,0,,,38,30
48330,note_on,90,0,0,,,,,,,,0,,,38,0
48330,note_on,0,0,0,,,,,,,,0,,,57,0
48330,note_on,0,0,0,,,,,,,,0,,,60,0
48330,note_on,0,0,0,,,,,,,,0,,,66,0
48480,set_tempo,150,1,0,,,,,,1395349,,,,,,
48480,note_on,0,0,0,,,,,,,,0,,,59,30
48480,note_on,0,0,0,,,,,,,,0,,,67,35
48480,note_on,0,0,0,,,,,,,,0,,,43,29
48480,note_on,0,0,0,,,,,,,,0,,,50,29
48532,control_change,52,0,0,,,,,,,,0,64,127,,
48720,set_tempo,188,1,0,,,,,,1690141,,,,,,
48720,note_on,0,0,0,,,,,,,,0,,,50,0
48720,note_on,0,0,0,,,,,,,,0,,,59,0
48720,note_on,0,0,0,,,,,,,,0,,,67,0
48720,note_on,0,0,0,,,,,,,,0,,,55,28
48720,note_on,0,0,0,,,,,,,,0,,,62,32
48720,note_on,0,0,0,,,,,,,,0,,,47,27
48723,control_change,3,0,0,,,,,,,,0,64,0,,
48840,note_on,117,0,0,,,,,,,,0,,,47,0
48840,note_on,0,0,0,,,,,,,,0,,,62,0
48840,note_on,0,0,0,,,,,,,,0,,,55,0
48960,set_tempo,120,1,0,,,,,,1071429,,,,,,
48960,note_on,0,0,0,,,,,,,,0,,,43,0
48960,note_on,0,0,0,,,,,,,,0,,,94,27
48960,note_on,0,0,0,,,,,,,,0,,,90,27
48990,note_on,30,0,0,,,,,,,,0,,,90,0
48990,note_on,0,0,0,,,,,,,,0,,,94,0
48990,note_on,0,0,0,,,,,,,,0,,,95,27
48990,note_on,0,0,0,,,,,,,,0,,,91,27
49020,note_on,30,0,0,,,,,,,,0,,,91,0
49020,note_on,0,0,0,,,,,,,,0,,,95,0
49020,note_on,0,0,0,,,,,,,,0,,,103,29
49020,note_on,0,0,0,,,,,,,,0,,,95,29
49050,note_on,30,0,0,,,,,,,,0,,,95,0
49050,note_on,0,0,0,,,,,,,,0,,,103,0
49050,note_on,0,0,0,,,,,,,,0,,,102,29
49050,note_on,0,0,0,,,,,,,,0,,,93,29
49080,set_tempo,30,1,0,,,,,,991736,,,,,,
49080,note_on,0,0,0,,,,,,,,0,,,93,0
49080,note_on,0,0,0,,,,,,,,0,,,102,0
49080,note_on,0,0,0,,,,,,,,0,,,100,29
49080,note_on,0,0,0,,,,,,,,0,,,91,29
49110,note_on,30,0,0,,,,,,,,0,,,91,0
49110,note_on,0,0,0,,,,,,,,0,,,100,0
49110,note_on,0,0,0,,,,,,,,0,,,98,29
49110,note_on,0,0,0,,,,,,,,0,,,90,29
49140,set_tempo,30,1,0,,,,,,983607,,,,,,
49140,note_on,0,0,0,,,,,,,,0,,,90,0
49140,note_on,0,0,0,,,,,,,,0,,,98,0
49140,note_on,0,0,0,,,,,,,,0,,,96,29
49140,note_on,0,0,0,,,,,,,,0,,,88,29
49170,note_on,30,0,0,,,,,,,,0,,,88,0
49170,note_on,0,0,0,,,,,,,,0,,,96,0
49170,note_on,0,0,0,,,,,,,,0,,,95,28
49170,note_on,0,0,0,,,,,,,,0,,,86,28
49200,set_tempo,30,1,0,,,,,,975610,,,,,,
49200,note_on,0,0,0,,,,,,,,0,,,86,0
49200,note_on,0,0,0,,,,,,,,0,,,95,0
49200,note_on,0,0,0,,,,,,,,0,,,93,28
49200,note_on,0,0,0,,,,,,,,0,,,84,28
49230,note_on,30,0,0,,,,,,,,0,,,84,0
49230,note_on,0,0,0,,,,,,,,0,,,93,0
49230,note_on,0,0,0,,,,,,,,0,,,91,28
49230,note_on,0,0,0,,,,,,,,0,,,83,28
49260,set_tempo,30,1,0,,,,,,967742,,,,,,
49260,note_on,0,0,0,,,,,,,,0,,,83,0
49260,note_on,0,0,0,,,,,,,,0,,,91,0
49260,note_on,0,0,0,,,,,,,,0,,,90,28
49260,note_on,0,0,0,,,,,,,,0,,,81,28
49290,note_on,30,0,0,,,,,,,,0,,,81,0
49290,note_on,0,0,0,,,,,,,,0,,,90,0
49290,note_on,0,0,0,,,,,,,,0,,,88,28
49290,note_on,0,0,0,,,,,,,,0,,,79,28
49320,set_tempo,30,1,0,,,,,,960000,,,,,,
49320,note_on,0,0,0,,,,,,,,0,,,79,0
49320,note_on,0,0,0,,,,,,,,0,,,88,0
49320,note_on,0,0,0,,,,,,,,0,,,86,27
49320,note_on,0,0,0,,,,,,,,0,,,78,27
49350,note_on,30,0,0,,,,,,,,0,,,78,0
49350,note_on,0,0,0,,,,,,,,0,,,86,0
49350,note_on,0,0,0,,,,,,,,0,,,84,27
49350,note_on,0,0,0,,,,,,,,0,,,76,27
49380,set_tempo,30,1,0,,,,,,952381,,,,,,
49380,note_on,0,0,0,,,,,,,,0,,,76,0
49380,note_on,0,0,0,,,,,,,,0,,,84,0
49380,note_on,0,0,0,,,,,,,,0,,,83,27
49380,note_on,0,0,0,,,,,,,,0,,,74,27
49410,note_on,30,0,0,,,,,,,,0,,,74,0
49410,note_on,0,0,0,,,,,,,,0,,,83,0
49410,note_on,0,0,0,,,,,,,,0,,,81,27
49410,note_on,0,0,0,,,,,,,,0,,,72,27
49420,set_tempo,10,1,0,,,,,,944882,,,,,,
49440,set_tempo,20,1,0,,,,,,1200000,,,,,,
49440,note_on,0,0,0,,,,,,,,0,,,72,0
49440,note_on,0,0,0,,,,,,,,0,,,81,0
49440,note_on,0,0,0,,,,,,,,0,,,79,27
49440,note_on,0,0,0,,,,,,,,0,,,71,27
49530,note_on,90,0,0,,,,,,,,0,,,71,0
49530,note_on,0,0,0,,,,,,,,0,,,79,0
49680,set_tempo,150,1,0,,,,,,1290323,,,,,,
49680,note_on,0,0,0,,,,,,,,0,,,60,32
49680,note_on,0,0,0,,,,,,,,0,,,64,32
49680,note_on,0,0,0,,,,,,,,0,,,67,36
49680,note_on,0,0,0,,,,,,,,0,,,48,28
49900,note_on,220,0,0,,,,,,,,0,,,48,0
49900,note_on,0,0,0,,,,,,,,0,,,60,0
49900,note_on,0,0,0,,,,,,,,0,,,64,0
49900,note_on,0,0,0,,,,,,,,0,,,67,0
49920,set_tempo,20,1,0,,,,,,1395349,,,,,,
49920,note_on,0,0,0,,,,,,,,0,,,60,32
49920,note_on,0,0,0,,,,,,,,0,,,68,36
49920,note_on,0,0,0,,,,,,,,0,,,65,32
49920,note_on,0,0,0,,,,,,,,0,,,41,31
50120,note_on,200,0,0,,,,,,,,0,,,41,0
50120,note_on,0,0,0,,,,,,,,0,,,60,0
50120,note_on,0,0,0,,,,,,,,0,,,68,0
50120,note_on,0,0,0,,,,,,,,0,,,65,0
50160,set_tempo,40,1,0,,,,,,1764706,,,,,,
50160,note_on,0,0,0,,,,,,,,0,,,56,30
50160,note_on,0,0,0,,,,,,,,0,,,62,30
50160,note_on,0,0,0,,,,,,,,0,,,70,35
50160,note_on,0,0,0,,,,,,,,0,,,46,30
50160,note_on,0,0,0,,,,,,,,0,,,34,30
50380,note_on,220,0,0,,,,,,,,0,,,34,0
50380,note_on,0,0,0,,,,,,,,0,,,70,0
50380,note_on,0,0,0,,,,,,,,0,,,56,0
50380,note_on,0,0,0,,,,,,,,0,,,62,0
50380,note_on,0,0,0,,,,,,,,0,,,46,0
50400,set_tempo,20,1,0,,,,,,1967213,,,,,,
50400,note_on,0,0,0,,,,,,,,0,,,55,29
50400,note_on,0,0,0,,,,,,,,0,,,63,29
50400,note_on,0,0,0,,,,,,,,0,,,70,33
50400,note_on,0,0,0,,,,,,,,0,,,46,30
50400,note_on,0,0,0,,,,,,,,0,,,39,30
50850,note_on,450,0,0,,,,,,,,0,,,39,0
50850,note_on,0,0,0,,,,,,,,0,,,70,0
50850,note_on,0,0,0,,,,,,,,0,,,55,0
50850,note_on,0,0,0,,,,,,,,0,,,63,0
50850,note_on,0,0,0,,,,,,,,0,,,46,0
50880,set_tempo,30,1,0,,,,,,779221,,,,,,
50880,marker,0,1,0,,,,,,,,,,,,
50880,note_on,0,0,0,,,,,,,,0,,,43,73
50880,note_on,0,0,0,,,,,,,,0,,,55,82
51240,note_on,360,0,0,,,,,,,,0,,,55,0
51240,note_on,0,0,0,,,,,,,,0,,,43,0
51240,note_on,0,0,0,,,,,,,,0,,,39,71
51240,note_on,0,0,0,,,,,,,,0,,,51,79
51360,set_tempo,120,1,0,,,,,,681818,,,,,,
51360,note_on,0,0,0,,,,,,,,0,,,51,0
51360,note_on,0,0,0,,,,,,,,0,,,39,0
51360,note_on,0,0,0,,,,,,,,0,,,36,73
51360,note_on,0,0,0,,,,,,,,0,,,48,82
51395,control_change,35,0,0,,,,,,,,0,64,127,,
51480,set_tempo,85,1,0,,,,,,662983,,,,,,
51480,note_on,0,0,0,,,,,,,,0,,,48,0
51480,note_on,0,0,0,,,,,,,,0,,,36,0
51480,note_on,0,0,0,,,,,,,,0,,,35,70
51480,note_on,0,0,0,,,,,,,,0,,,47,78
51514,control_change,34,0,0,,,,,,,,0,64,0,,
51600,note_on,86,0,0,,,,,,,,0,,,47,0
51600,note_on,0,0,0,,,,,,,,0,,,35,0
51600,note_on,0,0,0,,,,,,,,0,,,55,79
51600,note_on,0,0,0,,,,,,,,0,,,36,70
51600,note_on,0,0,0,,,,,,,,0,,,48,78
51690,note_on,90,0,0,,,,,,,,0,,,48,0
51690,note_on,0,0,0,,,,,,,,0,,,36,0
51720,note_on,30,0,0,,,,,,,,0,,,55,0
51720,note_on,0,0,0,,,,,,,,0,,,38,70
51720,note_on,0,0,0,,,,,,,,0,,,50,78
51810,note_on,90,0,0,,,,,,,,0,,,50,0
51810,note_on,0,0,0,,,,,,,,0,,,38,0
51840,set_tempo,30,1,0,,,,,,666667,,,,,,
51840,note_on,0,0,0,,,,,,,,0,,,60,82
51840,note_on,0,0,0,,,,,,,,0,,,39,73
51840,note_on,0,0,0,,,,,,,,0,,,51,82
51851,control_change,11,0,0,,,,,,,,0,64,127,,
51960,set_tempo,109,1,0,,,,,,641711,,,,,,
51960,note_on,0,0,0,,,,,,,,0,,,51,0
51960,note_on,0,0,0,,,,,,,,0,,,39,0
51960,note_on,0,0,0,,,,,,,,0,,,38,70
51960,note_on,0,0,0,,,,,,,,0,,,50,78
51980,control_change,20,0,0,,,,,,,,0,64,0,,
52080,note_on,100,0,0,,,,,,,,0,,,50,0
52080,note_on,0,0,0,,,,,,,,0,,,38,0
52080,note_on,0,0,0,,,,,,,,0,,,67,78
52080,note_on,0,0,0,,,,,,,,0,,,39,70
52080,note_on,0,0,0,,,,,,,,0,,,51,78
52170,note_on,90,0,0,,,,,,,,0,,,51,0
52170,note_on,0,0,0,,,,,,,,0,,,39,0
52200,note_on,30,0,0,,,,,,,,0,,,41,70
52200,note_on,0,0,0,,,,,,,,0,,,53,78
52290,note_on,90,0,0,,,,,,,,0,,,53,0
52290,note_on,0,0,0,,,,,,,,0,,,41,0
52320,set_tempo,30,1,0,,,,,,634921,,,,,,
52320,note_on,0,0,0,,,,,,,,0,,,67,0
52320,note_on,0,0,0,,,,,,,,0,,,62,82
52320,note_on,0,0,0,,,,,,,,0,,,43,73
52320,note_on,0,0,0,,,,,,,,0,,,55,82
52377,control_change,57,0,0,,,,,,,,0,64,127,,
52440,set_tempo,63,1,0,,,,,,618557,,,,,,
52440,note_on,0,0,0,,,,,,,,0,,,55,0
52440,note_on,0,0,0,,,,,,,,0,,,43,0
52440,note_on,0,0,0,,,,,,,,0,,,42,71
52440,note_on,0,0,0,,,,,,,,0,,,54,79
52463,control_change,23,0,0,,,,,,,,0,64,0,,
52560,note_on,97,0,0,,,,,,,,0,,,54,0
52560,note_on,0,0,0,,,,,,,,0,,,42,0
52560,note_on,0,0,0,,,,,,,,0,,,60,0
52560,note_on,0,0,0,,,,,,,,0,,,59,79
52560,note_on,0,0,0,,,,,,,,0,,,43,71
52560,note_on,0,0,0,,,,,,,,0,,,55,79
52650,note_on,90,0,0,,,,,,,,0,,,55,0
52650,note_on,0,0,0,,,,,,,,0,,,43,0
52680,note_on,30,0,0,,,,,,,,0,,,45,71
52680,note_on,0,0,0,,,,,,,,0,,,57,79
52770,note_on,90,0,0,,,,,,,,0,,,57,0
52770,note_on,0,0,0,,,,,,,,0,,,45,0
52797,note_on,27,0,0,,,,,,,,0,,,59,0
52800,set_tempo,3,1,0,,,,,,625000,,,,,,
52800,note_on,0,0,0,,,,,,,,0,,,74,82
52800,note_on,0,0,0,,,,,,,,0,,,47,76
52800,note_on,0,0,0,,,,,,,,0,,,59,85
52829,control_change,29,0,0,,,,,,,,0,64,127,,
52920,set_tempo,91,1,0,,,,,,606061,,,,,,
52920,note_on,0,0,0,,,,,,,,0,,,59,0
52920,note_on,0,0,0,,,,,,,,0,,,47,0
52920,note_on,0,0,0,,,,,,,,0,,,45,71
52920,note_on,0,0,0,,,,,,,,0,,,57,79
52932,control_change,12,0,0,,,,,,,,0,64,0,,
53040,note_on,108,0,0,,,,,,,,0,,,57,0
53040,note_on,0,0,0,,,,,,,,0,,,45,0
53040,note_on,0,0,0,,,,,,,,0,,,62,0
53040,note_on,0,0,0,,,,,,,,0,,,65,79
53040,note_on,0,0,0,,,,,,,,0,,,47,71
53040,note_on,0,0,0,,,,,,,,0,,,59,79
53130,note_on,90,0,0,,,,,,,,0,,,59,0
53130,note_on,0,0,0,,,,,,,,0,,,47,0
53160,note_on,30,0,0,,,,,,,,0,,,65,0
53160,note_on,0,0,0,,,,,,,,0,,,43,71
53160,note_on,0,0,0,,,,,,,,0,,,55,79
53250,note_on,90,0,0,,,,,,,,0,,,55,0
53250,note_on,0,0,0,,,,,,,,0,,,43,0
53280,set_tempo,30,1,0,,,,,,606061,,,,,,
53280,note_on,0,0,0,,,,,,,,0,,,63,81
53280,note_on,0,0,0,,,,,,,,0,,,48,79
53280,note_on,0,0,0,,,,,,,,0,,,60,88
53315,control_change,35,0,0,,,,,,,,0,64,127,,
53400,set_tempo,85,1,0,,,,,,588235,,,,,,
53400,note_on,0,0,0,,,,,,,,0,,,60,0
53400,note_on,0,0,0,,,,,,,,0,,,48,0
53400,note_on,0,0,0,,,,,,,,0,,,47,72
53400,note_on,0,0,0,,,,,,,,0,,,59,80
53417,control_change,17,0,0,,,,,,,,0,64,0,,
53520,note_on,103,0,0,,,,,,,,0,,,59,0
53520,note_on,0,0,0,,,,,,,,0,,,47,0
53520,note_on,0,0,0,,,,,,,,0,,,74,0
53520,note_on,0,0,0,,,,,,,,0,,,67,83
53520,note_on,0,0,0,,,,,,,,0,,,48,72
53520,note_on,0,0,0,,,,,,,,0,,,60,80
53610,note_on,90,0,0,,,,,,,,0,,,60,0
53610,note_on,0,0,0,,,,,,,,0,,,48,0
53640,note_on,30,0,0,,,,,,,,0,,,67,0
53640,note_on,0,0,0,,,,,,,,0,,,50,72
53640,note_on,0,0,0,,,,,,,,0,,,62,80
53730,note_on,90,0,0,,,,,,,,0,,,62,0
53730,note_on,0,0,0,,,,,,,,0,,,50,0
53740,set_tempo,10,1,0,,,,,,574163,,,,,,
53758,note_on,18,0,0,,,,,,,,0,,,63,0
53760,set_tempo,2,1,0,,,,,,597015,,,,,,
53760,note_on,0,0,0,,,,,,,,0,,,79,86
53760,note_on,0,0,0,,,,,,,,0,,,51,83
53760,note_on,0,0,0,,,,,,,,0,,,63,92
53777,control_change,17,0,0,,,,,,,,0,64,127,,
53880,set_tempo,103,1,0,,,,,,568720,,,,,,
53880,note_on,0,0,0,,,,,,,,0,,,63,0
53880,note_on,0,0,0,,,,,,,,0,,,51,0
53880,note_on,0,0,0,,,,,,,,0,,,50,72
53880,note_on,0,0,0,,,,,,,,0,,,62,81
53891,control_change,11,0,0,,,,,,,,0,64,0,,
54000,note_on,109,0,0,,,,,,,,0,,,62,0
54000,note_on,0,0,0,,,,,,,,0,,,50,0
54000,note_on,0,0,0,,,,,,,,0,,,72,77
54000,note_on,0,0,0,,,,,,,,0,,,51,72
54000,note_on,0,0,0,,,,,,,,0,,,63,81
54090,note_on,90,0,0,,,,,,,,0,,,63,0
54090,note_on,0,0,0,,,,,,,,0,,,51,0
54120,note_on,30,0,0,,,,,,,,0,,,72,0
54120,note_on,0,0,0,,,,,,,,0,,,79,0
54120,note_on,0,0,0,,,,,,,,0,,,80,72
54120,note_on,0,0,0,,,,,,,,0,,,53,72
54120,note_on,0,0,0,,,,,,,,0,,,65,81
54210,note_on,90,0,0,,,,,,,,0,,,65,0
54210,note_on,0,0,0,,,,,,,,0,,,53,0
54240,set_tempo,30,1,0,,,,,,674157,,,,,,
54240,note_on,0,0,0,,,,,,,,0,,,80,0
54240,note_on,0,0,0,,,,,,,,0,,,74,77
54240,note_on,0,0,0,,,,,,,,0,,,72,77
54240,note_on,0,0,0,,,,,,,,0,,,55,83
54240,note_on,0,0,0,,,,,,,,0,,,67,92
54314,control_change,74,0,0,,,,,,,,0,64,127,,
54360,note_on,46,0,0,,,,,,,,0,,,67,0
54360,note_on,0,0,0,,,,,,,,0,,,55,0
54480,set_tempo,120,1,0,,,,,,769231,,,,,,
54480,note_on,0,0,0,,,,,,,,0,,,72,0
54480,note_on,0,0,0,,,,,,,,0,,,62,64
54480,note_on,0,0,0,,,,,,,,0,,,71,72
54480,note_on,0,0,0,,,,,,,,0,,,43,73
54480,note_on,0,0,0,,,,,,,,0,,,50,73
54480,note_on,0,0,0,,,,,,,,0,,,59,82
54660,note_on,180,0,0,,,,,,,,0,,,59,0
54660,note_on,0,0,0,,,,,,,,0,,,43,0
54660,note_on,0,0,0,,,,,,,,0,,,50,0
54720,set_tempo,60,1,0,,,,,,710059,,,,,,
54720,note_on,0,0,0,,,,,,,,0,,,74,0
54720,note_on,0,0,0,,,,,,,,0,,,71,0
54720,note_on,0,0,0,,,,,,,,0,,,62,0
54720,note_on,0,0,0,,,,,,,,0,,,91,85
54720,note_on,0,0,0,,,,,,,,0,,,86,76
54720,note_on,0,0,0,,,,,,,,0,,,83,76
54720,note_on,0,0,0,,,,,,,,0,,,79,76
54720,note_on,0,0,0,,,,,,,,0,,,55,76
54720,note_on,0,0,0,,,,,,,,0,,,59,76
54720,note_on,0,0,0,,,,,,,,0,,,62,76
54720,note_on,0,0,0,,,,,,,,0,,,67,85
54960,set_tempo,240,1,0,,,,,,697918,,,,,,
55080,set_tempo,120,1,0,,,,,,641094,,,,,,
55080,note_on,0,0,0,,,,,,,,0,,,67,0
55080,note_on,0,0,0,,,,,,,,0,,,91,0
55080,note_on,0,0,0,,,,,,,,0,,,55,0
55080,note_on,0,0,0,,,,,,,,0,,,86,0
55080,note_on,0,0,0,,,,,,,,0,,,83,0
55080,note_on,0,0,0,,,,,,,,0,,,79,0
55080,note_on,0,0,0,,,,,,,,0,,,59,0
55080,note_on,0,0,0,,,,,,,,0,,,62,0
55080,note_on,0,0,0,,,,,,,,0,,,91,76
55080,note_on,0,0,0,,,,,,,,0,,,79,67
55108,control_change,28,0,0,,,,,,,,0,64,0,,
55170,note_on,62,0,0,,,,,,,,0,,,79,0
55170,note_on,0,0,0,,,,,,,,0,,,91,0
55200,set_tempo,30,1,0,,,,,,624090,,,,,,
55200,note_on,0,0,0,,,,,,,,0,,,80,71
55200,note_on,0,0,0,,,,,,,,0,,,92,79
55290,note_on,90,0,0,,,,,,,,0,,,92,0
55290,note_on,0,0,0,,,,,,,,0,,,80,0
55320,set_tempo,30,1,0,,,,,,595770,,,,,,
55320,note_on,0,0,0,,,,,,,,0,,,79,67
55320,note_on,0,0,0,,,,,,,,0,,,91,76
55410,note_on,90,0,0,,,,,,,,0,,,91,0
55410,note_on,0,0,0,,,,,,,,0,,,79,0
55440,note_on,30,0,0,,,,,,,,0,,,80,67
55440,note_on,0,0,0,,,,,,,,0,,,92,76
55440,note_on,0,0,0,,,,,,,,0,,,53,55
55440,note_on,0,0,0,,,,,,,,0,,,62,62
55440,note_on,0,0,0,,,,,,,,0,,,59,62
55530,note_on,90,0,0,,,,,,,,0,,,92,0
55530,note_on,0,0,0,,,,,,,,0,,,80,0
55560,set_tempo,30,1,0,,,,,,608026,,,,,,
55560,note_on,0,0,0,,,,,,,,0,,,74,67
55560,note_on,0,0,0,,,,,,,,0,,,86,76
55650,note_on,90,0,0,,,,,,,,0,,,86,0
55650,note_on,0,0,0,,,,,,,,0,,,74,0
55680,set_tempo,30,1,0,,,,,,614376,,,,,,
55680,note_on,0,0,0,,,,,,,,0,,,53,0
55680,note_on,0,0,0,,,,,,,,0,,,91,79
55680,note_on,0,0,0,,,,,,,,0,,,79,71
55680,note_on,0,0,0,,,,,,,,0,,,67,67
55680,note_on,0,0,0,,,,,,,,0,,,51,60
55770,note_on,90,0,0,,,,,,,,0,,,79,0
55770,note_on,0,0,0,,,,,,,,0,,,91,0
55800,set_tempo,30,1,0,,,,,,581058,,,,,,
55800,note_on,0,0,0,,,,,,,,0,,,78,67
55800,note_on,0,0,0,,,,,,,,0,,,90,76
55890,note_on,90,0,0,,,,,,,,0,,,90,0
55890,note_on,0,0,0,,,,,,,,0,,,78,0
55920,note_on,30,0,0,,,,,,,,0,,,59,0
55920,note_on,0,0,0,,,,,,,,0,,,67,0
55920,note_on,0,0,0,,,,,,,,0,,,62,0
55920,note_on,0,0,0,,,,,,,,0,,,79,67
55920,note_on,0,0,0,,,,,,,,0,,,91,76
55920,note_on,0,0,0,,,,,,,,0,,,60,69
56010,note_on,90,0,0,,,,,,,,0,,,91,0
56010,note_on,0,0,0,,,,,,,,0,,,79,0
56040,set_tempo,30,1,0,,,,,,595770,,,,,,
56040,note_on,0,0,0,,,,,,,,0,,,84,76
56040,note_on,0,0,0,,,,,,,,0,,,72,67
56130,note_on,90,0,0,,,,,,,,0,,,72,0
56130,note_on,0,0,0,,,,,,,,0,,,84,0
56160,set_tempo,30,1,0,,,,,,608026,,,,,,
56160,note_on,0,0,0,,,,,,,,0,,,51,0
56160,note_on,0,0,0,,,,,,,,0,,,60,0
56160,note_on,0,0,0,,,,,,,,0,,,89,79
56160,note_on,0,0,0,,,,,,,,0,,,77,71
56250,note_on,90,0,0,,,,,,,,0,,,77,0
56250,note_on,0,0,0,,,,,,,,0,,,89,0
56280,set_tempo,30,1,0,,,,,,578202,,,,,,
56280,note_on,0,0,0,,,,,,,,0,,,76,69
56280,note_on,0,0,0,,,,,,,,0,,,88,77
56370,note_on,90,0,0,,,,,,,,0,,,88,0
56370,note_on,0,0,0,,,,,,,,0,,,76,0
56400,note_on,30,0,0,,,,,,,,0,,,77,69
56400,note_on,0,0,0,,,,,,,,0,,,89,77
56400,note_on,0,0,0,,,,,,,,0,,,50,55
56400,note_on,0,0,0,,,,,,,,0,,,59,55
56400,note_on,0,0,0,,,,,,,,0,,,56,62
56490,note_on,90,0,0,,,,,,,,0,,,89,0
56490,note_on,0,0,0,,,,,,,,0,,,77,0
56520,set_tempo,30,1,0,,,,,,595770,,,,,,
56520,note_on,0,0,0,,,,,,,,0,,,71,69
56520,note_on,0,0,0,,,,,,,,0,,,83,77
56610,note_on,90,0,0,,,,,,,,0,,,83,0
56610,note_on,0,0,0,,,,,,,,0,,,71,0
56640,note_on,30,0,0,,,,,,,,0,,,59,0
56640,note_on,0,0,0,,,,,,,,0,,,50,0
56640,note_on,0,0,0,,,,,,,,0,,,75,71
56640,note_on,0,0,0,,,,,,,,0,,,87,79
56640,note_on,0,0,0,,,,,,,,0,,,63,67
56640,note_on,0,0,0,,,,,,,,0,,,48,60
56730,note_on,90,0,0,,,,,,,,0,,,87,0
56730,note_on,0,0,0,,,,,,,,0,,,75,0
56760,set_tempo,30,1,0,,,,,,592710,,,,,,
56760,note_on,0,0,0,,,,,,,,0,,,74,67
56760,note_on,0,0,0,,,,,,,,0,,,86,76
56761,set_tempo,1,1,0,,,,,,603015,,,,,,
56850,note_on,89,0,0,,,,,,,,0,,,86,0
56850,note_on,0,0,0,,,,,,,,0,,,74,0
56880,note_on,30,0,0,,,,,,,,0,,,48,0
56880,note_on,0,0,0,,,,,,,,0,,,63,0
56880,note_on,0,0,0,,,,,,,,0,,,56,0
56880,note_on,0,0,0,,,,,,,,0,,,75,67
56880,note_on,0,0,0,,,,,,,,0,,,87,76
56880,note_on,0,0,0,,,,,,,,0,,,51,56
56880,note_on,0,0,0,,,,,,,,0,,,55,56
56880,note_on,0,0,0,,,,,,,,0,,,60,63
56970,note_on,90,0,0,,,,,,,,0,,,87,0
56970,note_on,0,0,0,,,,,,,,0,,,75,0
57000,set_tempo,30,1,0,,,,,,677966,,,,,,
57000,note_on,0,0,0,,,,,,,,0,,,72,67
57000,note_on,0,0,0,,,,,,,,0,,,84,76
57000,note_on,0,0,0,,,,,,,,0,,,44,56
57090,note_on,90,0,0,,,,,,,,0,,,84,0
57090,note_on,0,0,0,,,,,,,,0,,,72,0
57120,set_tempo,30,1,0,,,,,,597967,,,,,,
57120,note_on,0,0,0,,,,,,,,0,,,55,0
57120,note_on,0,0,0,,,,,,,,0,,,60,0
57120,note_on,0,0,0,,,,,,,,0,,,51,0
57120,note_on,0,0,0,,,,,,,,0,,,72,67
57120,note_on,0,0,0,,,,,,,,0,,,84,76
57120,note_on,0,0,0,,,,,,,,0,,,63,60
57120,note_on,0,0,0,,,,,,,,0,,,67,67
57240,set_tempo,120,1,0,,,,,,607226,,,,,,
57240,note_on,0,0,0,,,,,,,,0,,,67,0
57240,note_on,0,0,0,,,,,,,,0,,,84,0
57240,note_on,0,0,0,,,,,,,,0,,,63,0
57240,note_on,0,0,0,,,,,,,,0,,,72,0
57240,note_on,0,0,0,,,,,,,,0,,,70,64
57240,note_on,0,0,0,,,,,,,,0,,,82,72
57240,note_on,0,0,0,,,,,,,,0,,,62,57
57240,note_on,0,0,0,,,,,,,,0,,,65,64
57340,note_on,100,0,0,,,,,,,,0,,,65,0
57340,note_on,0,0,0,,,,,,,,0,,,82,0
57340,note_on,0,0,0,,,,,,,,0,,,62,0
57340,note_on,0,0,0,,,,,,,,0,,,70,0
57360,set_tempo,20,1,0,,,,,,585366,,,,,,
57360,note_on,0,0,0,,,,,,,,0,,,70,64
57360,note_on,0,0,0,,,,,,,,0,,,82,72
57360,note_on,0,0,0,,,,,,,,0,,,62,57
57360,note_on,0,0,0,,,,,,,,0,,,65,64
57480,set_tempo,120,1,0,,,,,,607226,,,,,,
57480,note_on,0,0,0,,,,,,,,0,,,65,0
57480,note_on,0,0,0,,,,,,,,0,,,82,0
57480,note_on,0,0,0,,,,,,,,0,,,62,0
57480,note_on,0,0,0,,,,,,,,0,,,70,0
57480,note_on,0,0,0,,,,,,,,0,,,68,64
57480,note_on,0,0,0,,,,,,,,0,,,80,72
57480,note_on,0,0,0,,,,,,,,0,,,60,57
57480,note_on,0,0,0,,,,,,,,0,,,63,64
57580,set_tempo,100,1,0,,,,,,597967,,,,,,
57580,note_on,0,0,0,,,,,,,,0,,,63,0
57580,note_on,0,0,0,,,,,,,,0,,,80,0
57580,note_on,0,0,0,,,,,,,,0,,,60,0
57580,note_on,0,0,0,,,,,,,,0,,,68,0
57600,set_tempo,20,1,0,,,,,,588235,,,,,,
57600,note_on,0,0,0,,,,,,,,0,,,68,69
57600,note_on,0,0,0,,,,,,,,0,,,80,77
57600,note_on,0,0,0,,,,,,,,0,,,60,62
57600,note_on,0,0,0,,,,,,,,0,,,63,69
57720,set_tempo,120,1,0,,,,,,607226,,,,,,
57720,note_on,0,0,0,,,,,,,,0,,,63,0
57720,note_on,0,0,0,,,,,,,,0,,,80,0
57720,note_on,0,0,0,,,,,,,,0,,,60,0
57720,note_on,0,0,0,,,,,,,,0,,,68,0
57720,note_on,0,0,0,,,,,,,,0,,,67,64
57720,note_on,0,0,0,,,,,,,,0,,,79,72
57720,note_on,0,0,0,,,,,,,,0,,,58,57
57720,note_on,0,0,0,,,,,,,,0,,,62,64
57820,note_on,100,0,0,,,,,,,,0,,,62,0
57820,note_on,0,0,0,,,,,,,,0,,,79,0
57820,note_on,0,0,0,,,,,,,,0,,,58,0
57820,note_on,0,0,0,,,,,,,,0,,,67,0
57840,set_tempo,20,1,0,,,,,,594943,,,,,,
57840,note_on,0,0,0,,,,,,,,0,,,67,64
57840,note_on,0,0,0,,,,,,,,0,,,79,72
57840,note_on,0,0,0,,,,,,,,0,,,58,57
57840,note_on,0,0,0,,,,,,,,0,,,62,64
57960,set_tempo,120,1,0,,,,,,607226,,,,,,
57960,note_on,0,0,0,,,,,,,,0,,,62,0
57960,note_on,0,0,0,,,,,,,,0,,,79,0
57960,note_on,0,0,0,,,,,,,,0,,,58,0
57960,note_on,0,0,0,,,,,,,,0,,,67,0
57960,note_on,0,0,0,,,,,,,,0,,,66,64
57960,note_on,0,0,0,,,,,,,,0,,,78,72
57960,note_on,0,0,0,,,,,,,,0,,,56,57
57960,note_on,0,0,0,,,,,,,,0,,,60,64
58060,note_on,100,0,0,,,,,,,,0,,,60,0
58060,note_on,0,0,0,,,,,,,,0,,,78,0
58060,note_on,0,0,0,,,,,,,,0,,,56,0
58060,note_on,0,0,0,,,,,,,,0,,,66,0
58080,note_on,20,0,0,,,,,,,,0,,,44,0
58080,note_on,0,0,0,,,,,,,,0,,,66,67
58080,note_on,0,0,0,,,,,,,,0,,,78,76
58080,note_on,0,0,0,,,,,,,,0,,,60,67
58080,note_on,0,0,0,,,,,,,,0,,,56,60
58101,set_tempo,21,1,0,,,,,,618557,,,,,,
58200,set_tempo,99,1,0,,,,,,603015,,,,,,
58200,note_on,0,0,0,,,,,,,,0,,,56,0
58200,note_on,0,0,0,,,,,,,,0,,,66,0
58200,note_on,0,0,0,,,,,,,,0,,,78,0
58200,note_on,0,0,0,,,,,,,,0,,,60,0
58200,note_on,0,0,0,,,,,,,,0,,,67,66
58200,note_on,0,0,0,,,,,,,,0,,,79,74
58200,note_on,0,0,0,,,,,,,,0,,,55,59
58200,note_on,0,0,0,,,,,,,,0,,,59,66
58290,note_on,90,0,0,,,,,,,,0,,,59,0
58290,note_on,0,0,0,,,,,,,,0,,,67,0
58290,note_on,0,0,0,,,,,,,,0,,,79,0
58290,note_on,0,0,0,,,,,,,,0,,,55,0
58320,set_tempo,30,1,0,,,,,,731707,,,,,,
58320,note_on,0,0,0,,,,,,,,0,,,91,95
58320,note_on,0,0,0,,,,,,,,0,,,79,85
58320,note_on,0,0,0,,,,,,,,0,,,43,70
58320,note_on,0,0,0,,,,,,,,0,,,55,78
58440,note_on,120,0,0,,,,,,,,0,,,55,0
58440,note_on,0,0,0,,,,,,,,0,,,91,0
58440,note_on,0,0,0,,,,,,,,0,,,79,0
58440,note_on,0,0,0,,,,,,,,0,,,43,0
58540,set_tempo,100,1,0,,,,,,667408,,,,,,
58560,set_tempo,20,1,0,,,,,,670391,,,,,,
58560,note_on,0,0,0,,,,,,,,0,,,55,73
58560,note_on,0,0,0,,,,,,,,0,,,67,82
58920,note_on,360,0,0,,,,,,,,0,,,67,0
58920,note_on,0,0,0,,,,,,,,0,,,55,0
58920,note_on,0,0,0,,,,,,,,0,,,51,71
58920,note_on,0,0,0,,,,,,,,0,,,63,79
59040,set_tempo,120,1,0,,,,,,641711,,,,,,
59040,note_on,0,0,0,,,,,,,,0,,,63,0
59040,note_on,0,0,0,,,,,,,,0,,,51,0
59040,note_on,0,0,0,,,,,,,,0,,,48,73
59040,note_on,0,0,0,,,,,,,,0,,,60,82
59160,set_tempo,120,1,0,,,,,,618557,,,,,,
59160,note_on,0,0,0,,,,,,,,0,,,60,0
59160,note_on,0,0,0,,,,,,,,0,,,48,0
59160,note_on,0,0,0,,,,,,,,0,,,47,70
59160,note_on,0,0,0,,,,,,,,0,,,59,78
59220,set_tempo,60,1,0,,,,,,615385,,,,,,
59280,set_tempo,60,1,0,,,,,,612245,,,,,,
59280,note_on,0,0,0,,,,,,,,0,,,59,0
59280,note_on,0,0,0,,,,,,,,0,,,47,0
59280,note_on,0,0,0,,,,,,,,0,,,48,70
59280,note_on,0,0,0,,,,,,,,0,,,60,78
59280,note_on,0,0,0,,,,,,,,0,,,31,71
59340,set_tempo,60,1,0,,,,,,609137,,,,,,
59370,note_on,30,0,0,,,,,,,,0,,,60,0
59370,note_on,0,0,0,,,,,,,,0,,,48,0
59400,set_tempo,30,1,0,,,,,,606061,,,,,,
59400,note_on,0,0,0,,,,,,,,0,,,31,0
59400,note_on,0,0,0,,,,,,,,0,,,50,70
59400,note_on,0,0,0,,,,,,,,0,,,62,78
59460,set_tempo,60,1,0,,,,,,603015,,,,,,
59490,note_on,30,0,0,,,,,,,,0,,,62,0
59490,note_on,0,0,0,,,,,,,,0,,,50,0
59500,set_tempo,10,1,0,,,,,,600000,,,,,,
59520,set_tempo,20,1,0,,,,,,625000,,,,,,
59520,note_on,0,0,0,,,,,,,,0,,,51,73
59520,note_on,0,0,0,,,,,,,,0,,,63,82
59520,note_on,0,0,0,,,,,,,,0,,,36,73
59640,set_tempo,120,1,0,,,,,,606061,,,,,,
59640,note_on,0,0,0,,,,,,,,0,,,63,0
59640,note_on,0,0,0,,,,,,,,0,,,51,0
59640,note_on,0,0,0,,,,,,,,0,,,50,70
59640,note_on,0,0,0,,,,,,,,0,,,62,78
59760,note_on,120,0,0,,,,,,,,0,,,62,0
59760,note_on,0,0,0,,,,,,,,0,,,50,0
59760,note_on,0,0,0,,,,,,,,0,,,51,70
59760,note_on,0,0,0,,,,,,,,0,,,63,78
59760,note_on,0,0,0,,,,,,,,0,,,43,70
59850,note_on,90,0,0,,,,,,,,0,,,63,0
59850,note_on,0,0,0,,,,,,,,0,,,51,0
59880,note_on,30,0,0,,,,,,,,0,,,53,70
59880,note_on,0,0,0,,,,,,,,0,,,65,78
59970,note_on,90,0,0,,,,,,,,0,,,65,0
59970,note_on,0,0,0,,,,,,,,0,,,53,0
60000,set_tempo,30,1,0,,,,,,610936,,,,,,
60000,note_on,0,0,0,,,,,,,,0,,,43,0
60000,note_on,0,0,0,,,,,,,,0,,,55,73
60000,note_on,0,0,0,,,,,,,,0,,,67,82
60000,note_on,0,0,0,,,,,,,,0,,,38,73
60120,set_tempo,120,1,0,,,,,,595179,,,,,,
60120,note_on,0,0,0,,,,,,,,0,,,67,0
60120,note_on,0,0,0,,,,,,,,0,,,55,0
60120,note_on,0,0,0,,,,,,,,0,,,54,71
60120,note_on,0,0,0,,,,,,,,0,,,66,79
60240,note_on,120,0,0,,,,,,,,0,,,66,0
60240,note_on,0,0,0,,,,,,,,0,,,54,0
60240,note_on,0,0,0,,,,,,,,0,,,36,0
60240,note_on,0,0,0,,,,,,,,0,,,55,71
60240,note_on,0,0,0,,,,,,,,0,,,67,79
60240,note_on,0,0,0,,,,,,,,0,,,35,71
60330,note_on,90,0,0,,,,,,,,0,,,67,0
60330,note_on,0,0,0,,,,,,,,0,,,55,0
60360,note_on,30,0,0,,,,,,,,0,,,57,71
60360,note_on,0,0,0,,,,,,,,0,,,69,79
60450,note_on,90,0,0,,,,,,,,0,,,69,0
60450,note_on,0,0,0,,,,,,,,0,,,57,0
60480,set_tempo,30,1,0,,,,,,601383,,,,,,
60480,note_on,0,0,0,,,,,,,,0,,,35,0
60480,note_on,0,0,0,,,,,,,,0,,,59,76
60480,note_on,0,0,0,,,,,,,,0,,,71,85
60480,note_on,0,0,0,,,,,,,,0,,,50,73
60600,set_tempo,120,1,0,,,,,,583147,,,,,,
60600,note_on,0,0,0,,,,,,,,0,,,71,0
60600,note_on,0,0,0,,,,,,,,0,,,59,0
60600,note_on,0,0,0,,,,,,,,0,,,57,71
60600,note_on,0,0,0,,,,,,,,0,,,69,79
60720,note_on,120,0,0,,,,,,,,0,,,69,0
60720,note_on,0,0,0,,,,,,,,0,,,57,0
60720,note_on,0,0,0,,,,,,,,0,,,38,0
60720,note_on,0,0,0,,,,,,,,0,,,59,71
60720,note_on,0,0,0,,,,,,,,0,,,71,79
60720,note_on,0,0,0,,,,,,,,0,,,41,71
60810,note_on,90,0,0,,,,,,,,0,,,71,0
60810,note_on,0,0,0,,,,,,,,0,,,59,0
60840,note_on,30,0,0,,,,,,,,0,,,41,0
60840,note_on,0,0,0,,,,,,,,0,,,55,71
60840,note_on,0,0,0,,,,,,,,0,,,67,79
60930,note_on,90,0,0,,,,,,,,0,,,67,0
60930,note_on,0,0,0,,,,,,,,0,,,55,0
60960,set_tempo,30,1,0,,,,,,591133,,,,,,
60960,note_on,0,0,0,,,,,,,,0,,,60,79
60960,note_on,0,0,0,,,,,,,,0,,,72,88
60960,note_on,0,0,0,,,,,,,,0,,,39,64
61080,set_tempo,120,1,0,,,,,,574163,,,,,,
61080,note_on,0,0,0,,,,,,,,0,,,72,0
61080,note_on,0,0,0,,,,,,,,0,,,60,0
61080,note_on,0,0,0,,,,,,,,0,,,59,72
61080,note_on,0,0,0,,,,,,,,0,,,71,80
61200,note_on,120,0,0,,,,,,,,0,,,71,0
61200,note_on,0,0,0,,,,,,,,0,,,59,0
61200,note_on,0,0,0,,,,,,,,0,,,50,0
61200,note_on,0,0,0,,,,,,,,0,,,60,72
61200,note_on,0,0,0,,,,,,,,0,,,72,80
61200,note_on,0,0,0,,,,,,,,0,,,43,73
61290,note_on,90,0,0,,,,,,,,0,,,72,0
61290,note_on,0,0,0,,,,,,,,0,,,60,0
61320,note_on,30,0,0,,,,,,,,0,,,43,0
61320,note_on,0,0,0,,,,,,,,0,,,62,72
61320,note_on,0,0,0,,,,,,,,0,,,74,80
61410,note_on,90,0,0,,,,,,,,0,,,74,0
61410,note_on,0,0,0,,,,,,,,0,,,62,0
61420,set_tempo,10,1,0,,,,,,552435,,,,,,
61440,set_tempo,20,1,0,,,,,,574438,,,,,,
61440,note_on,0,0,0,,,,,,,,0,,,63,83
61440,note_on,0,0,0,,,,,,,,0,,,75,92
61440,note_on,0,0,0,,,,,,,,0,,,55,77
61560,set_tempo,120,1,0,,,,,,547196,,,,,,
61560,note_on,0,0,0,,,,,,,,0,,,75,0
61560,note_on,0,0,0,,,,,,,,0,,,63,0
61560,note_on,0,0,0,,,,,,,,0,,,62,72
61560,note_on,0,0,0,,,,,,,,0,,,74,81
61680,note_on,120,0,0,,,,,,,,0,,,74,0
61680,note_on,0,0,0,,,,,,,,0,,,62,0
61680,note_on,0,0,0,,,,,,,,0,,,39,0
61680,note_on,0,0,0,,,,,,,,0,,,63,72
61680,note_on,0,0,0,,,,,,,,0,,,75,81
61680,note_on,0,0,0,,,,,,,,0,,,48,69
61770,note_on,90,0,0,,,,,,,,0,,,75,0
61770,note_on,0,0,0,,,,,,,,0,,,63,0
61800,note_on,30,0,0,,,,,,,,0,,,55,0
61800,note_on,0,0,0,,,,,,,,0,,,48,0
61800,note_on,0,0,0,,,,,,,,0,,,65,72
61800,note_on,0,0,0,,,,,,,,0,,,77,81
61800,note_on,0,0,0,,,,,,,,0,,,56,64
61890,note_on,90,0,0,,,,,,,,0,,,77,0
61890,note_on,0,0,0,,,,,,,,0,,,65,0
61920,set_tempo,30,1,0,,,,,,645161,,,,,,
61920,note_on,0,0,0,,,,,,,,0,,,56,0
61920,note_on,0,0,0,,,,,,,,0,,,67,83
61920,note_on,0,0,0,,,,,,,,0,,,79,92
61920,note_on,0,0,0,,,,,,,,0,,,48,69
61920,note_on,0,0,0,,,,,,,,0,,,50,77
62040,note_on,120,0,0,,,,,,,,0,,,79,0
62040,note_on,0,0,0,,,,,,,,0,,,67,0
62160,set_tempo,120,1,0,,,,,,736196,,,,,,
62160,note_on,0,0,0,,,,,,,,0,,,48,0
62160,note_on,0,0,0,,,,,,,,0,,,55,93
62160,note_on,0,0,0,,,,,,,,0,,,47,72
62340,note_on,180,0,0,,,,,,,,0,,,55,0
62400,set_tempo,60,1,0,,,,,,710059,,,,,,
62400,note_on,0,0,0,,,,,,,,0,,,47,0
62400,note_on,0,0,0,,,,,,,,0,,,50,0
62400,note_on,0,0,0,,,,,,,,0,,,67,85
62400,note_on,0,0,0,,,,,,,,0,,,59,67
62400,note_on,0,0,0,,,,,,,,0,,,62,67
62400,note_on,0,0,0,,,,,,,,0,,,55,67
62640,set_tempo,240,1,0,,,,,,677583,,,,,,
62760,set_tempo,120,1,0,,,,,,641711,,,,,,
62760,note_on,0,0,0,,,,,,,,0,,,55,0
62760,note_on,0,0,0,,,,,,,,0,,,67,0
62760,note_on,0,0,0,,,,,,,,0,,,59,0
62760,note_on,0,0,0,,,,,,,,0,,,62,0
62760,note_on,0,0,0,,,,,,,,0,,,55,60
62760,note_on,0,0,0,,,,,,,,0,,,67,76
62850,note_on,90,0,0,,,,,,,,0,,,67,0
62850,note_on,0,0,0,,,,,,,,0,,,55,0
62880,set_tempo,30,1,0,,,,,,632378,,,,,,
62880,note_on,0,0,0,,,,,,,,0,,,56,63
62880,note_on,0,0,0,,,,,,,,0,,,68,79
62970,note_on,90,0,0,,,,,,,,0,,,68,0
62970,note_on,0,0,0,,,,,,,,0,,,56,0
63000,set_tempo,30,1,0,,,,,,598563,,,,,,
63000,note_on,0,0,0,,,,,,,,0,,,67,76
63000,note_on,0,0,0,,,,,,,,0,,,55,60
63090,note_on,90,0,0,,,,,,,,0,,,55,0
63090,note_on,0,0,0,,,,,,,,0,,,67,0
63120,note_on,30,0,0,,,,,,,,0,,,71,57
63120,note_on,0,0,0,,,,,,,,0,,,83,72
63120,note_on,0,0,0,,,,,,,,0,,,77,72
63120,note_on,0,0,0,,,,,,,,0,,,68,76
63120,note_on,0,0,0,,,,,,,,0,,,56,60
63170,control_change,50,0,0,,,,,,,,0,64,127,,
63210,note_on,40,0,0,,,,,,,,0,,,56,0
63210,note_on,0,0,0,,,,,,,,0,,,68,0
63240,set_tempo,30,1,0,,,,,,606551,,,,,,
63240,note_on,0,0,0,,,,,,,,0,,,62,76
63240,note_on,0,0,0,,,,,,,,0,,,50,60
63330,note_on,90,0,0,,,,,,,,0,,,50,0
63330,note_on,0,0,0,,,,,,,,0,,,62,0
63360,set_tempo,30,1,0,,,,,,594059,,,,,,
63360,note_on,0,0,0,,,,,,,,0,,,77,0
63360,note_on,0,0,0,,,,,,,,0,,,83,0
63360,note_on,0,0,0,,,,,,,,0,,,71,0
63360,note_on,0,0,0,,,,,,,,0,,,83,64
63360,note_on,0,0,0,,,,,,,,0,,,87,81
63360,note_on,0,0,0,,,,,,,,0,,,75,64
63360,note_on,0,0,0,,,,,,,,0,,,55,63
63360,note_on,0,0,0,,,,,,,,0,,,67,79
63378,control_change,18,0,0,,,,,,,,0,64,0,,
63427,control_change,49,0,0,,,,,,,,0,64,127,,
63450,note_on,23,0,0,,,,,,,,0,,,67,0
63450,note_on,0,0,0,,,,,,,,0,,,55,0
63480,set_tempo,30,1,0,,,,,,587142,,,,,,
63480,note_on,0,0,0,,,,,,,,0,,,54,60
63480,note_on,0,0,0,,,,,,,,0,,,66,76
63570,note_on,90,0,0,,,,,,,,0,,,66,0
63570,note_on,0,0,0,,,,,,,,0,,,54,0
63600,note_on,30,0,0,,,,,,,,0,,,75,0
63600,note_on,0,0,0,,,,,,,,0,,,87,0
63600,note_on,0,0,0,,,,,,,,0,,,83,0
63600,note_on,0,0,0,,,,,,,,0,,,72,56
63600,note_on,0,0,0,,,,,,,,0,,,75,56
63600,note_on,0,0,0,,,,,,,,0,,,84,71
63600,note_on,0,0,0,,,,,,,,0,,,55,60
63600,note_on,0,0,0,,,,,,,,0,,,67,76
63611,control_change,11,0,0,,,,,,,,0,64,0,,
63671,control_change,60,0,0,,,,,,,,0,64,127,,
63690,note_on,19,0,0,,,,,,,,0,,,67,0
63690,note_on,0,0,0,,,,,,,,0,,,55,0
63720,set_tempo,30,1,0,,,,,,594295,,,,,,
63720,note_on,0,0,0,,,,,,,,0,,,60,76
63720,note_on,0,0,0,,,,,,,,0,,,48,60
63810,note_on,90,0,0,,,,,,,,0,,,48,0
63810,note_on,0,0,0,,,,,,,,0,,,60,0
63819,control_change,9,0,0,,,,,,,,0,64,0,,
63840,set_tempo,21,1,0,,,,,,606551,,,,,,
63840,note_on,0,0,0,,,,,,,,0,,,84,0
63840,note_on,0,0,0,,,,,,,,0,,,75,0
63840,note_on,0,0,0,,,,,,,,0,,,72,0
63840,note_on,0,0,0,,,,,,,,0,,,65,79
63840,note_on,0,0,0,,,,,,,,0,,,53,63
63930,note_on,90,0,0,,,,,,,,0,,,53,0
63930,note_on,0,0,0,,,,,,,,0,,,65,0
63960,set_tempo,30,1,0,,,,,,581621,,,,,,
63960,note_on,0,0,0,,,,,,,,0,,,52,62
63960,note_on,0,0,0,,,,,,,,0,,,64,77
64050,note_on,90,0,0,,,,,,,,0,,,64,0
64050,note_on,0,0,0,,,,,,,,0,,,52,0
64080,note_on,30,0,0,,,,,,,,0,,,74,60
64080,note_on,0,0,0,,,,,,,,0,,,86,76
64080,note_on,0,0,0,,,,,,,,0,,,80,60
64080,note_on,0,0,0,,,,,,,,0,,,65,77
64080,note_on,0,0,0,,,,,,,,0,,,53,62
64098,control_change,18,0,0,,,,,,,,0,64,127,,
64170,note_on,72,0,0,,,,,,,,0,,,53,0
64170,note_on,0,0,0,,,,,,,,0,,,65,0
64200,set_tempo,30,1,0,,,,,,594295,,,,,,
64200,note_on,0,0,0,,,,,,,,0,,,47,62
64200,note_on,0,0,0,,,,,,,,0,,,59,77
64290,note_on,90,0,0,,,,,,,,0,,,59,0
64290,note_on,0,0,0,,,,,,,,0,,,47,0
64320,set_tempo,30,1,0,,,,,,585366,,,,,,
64320,note_on,0,0,0,,,,,,,,0,,,80,0
64320,note_on,0,0,0,,,,,,,,0,,,86,0
64320,note_on,0,0,0,,,,,,,,0,,,74,0
64320,note_on,0,0,0,,,,,,,,0,,,91,82
64320,note_on,0,0,0,,,,,,,,0,,,86,65
64320,note_on,0,0,0,,,,,,,,0,,,79,65
64320,note_on,0,0,0,,,,,,,,0,,,63,79
64320,note_on,0,0,0,,,,,,,,0,,,51,63
64330,control_change,10,0,0,,,,,,,,0,64,0,,
64377,control_change,47,0,0,,,,,,,,0,64,127,,
64410,note_on,33,0,0,,,,,,,,0,,,51,0
64410,note_on,0,0,0,,,,,,,,0,,,63,0
64440,set_tempo,30,1,0,,,,,,573504,,,,,,
64440,note_on,0,0,0,,,,,,,,0,,,62,76
64440,note_on,0,0,0,,,,,,,,0,,,50,60
64530,note_on,90,0,0,,,,,,,,0,,,50,0
64530,note_on,0,0,0,,,,,,,,0,,,62,0
64560,note_on,30,0,0,,,,,,,,0,,,79,0
64560,note_on,0,0,0,,,,,,,,0,,,86,0
64560,note_on,0,0,0,,,,,,,,0,,,91,0
64560,note_on,0,0,0,,,,,,,,0,,,72,58
64560,note_on,0,0,0,,,,,,,,0,,,79,58
64560,note_on,0,0,0,,,,,,,,0,,,84,73
64560,note_on,0,0,0,,,,,,,,0,,,63,76
64560,note_on,0,0,0,,,,,,,,0,,,51,60
64568,control_change,8,0,0,,,,,,,,0,64,0,,
64613,control_change,45,0,0,,,,,,,,0,64,127,,
64620,set_tempo,7,1,0,,,,,,570831,,,,,,
64650,note_on,30,0,0,,,,,,,,0,,,51,0
64650,note_on,0,0,0,,,,,,,,0,,,63,0
64680,note_on,30,0,0,,,,,,,,0,,,60,76
64680,note_on,0,0,0,,,,,,,,0,,,48,60
64770,note_on,90,0,0,,,,,,,,0,,,48,0
64770,note_on,0,0,0,,,,,,,,0,,,60,0
64780,set_tempo,10,1,0,,,,,,568236,,,,,,
64800,note_on,20,0,0,,,,,,,,0,,,84,0
64800,note_on,0,0,0,,,,,,,,0,,,79,0
64800,note_on,0,0,0,,,,,,,,0,,,72,0
64800,note_on,0,0,0,,,,,,,,0,,,46,60
64800,note_on,0,0,0,,,,,,,,0,,,58,76
64812,control_change,12,0,0,,,,,,,,0,64,0,,
64890,note_on,78,0,0,,,,,,,,0,,,58,0
64890,note_on,0,0,0,,,,,,,,0,,,46,0
64920,note_on,30,0,0,,,,,,,,0,,,44,57
64920,note_on,0,0,0,,,,,,,,0,,,56,72
64940,set_tempo,20,1,0,,,,,,565611,,,,,,
65010,note_on,70,0,0,,,,,,,,0,,,56,0
65010,note_on,0,0,0,,,,,,,,0,,,44,0
65040,set_tempo,30,1,0,,,,,,578871,,,,,,
65040,note_on,0,0,0,,,,,,,,0,,,80,67
65040,note_on,0,0,0,,,,,,,,0,,,84,67
65040,note_on,0,0,0,,,,,,,,0,,,92,85
65040,note_on,0,0,0,,,,,,,,0,,,43,57
65040,note_on,0,0,0,,,,,,,,0,,,55,72
65130,note_on,90,0,0,,,,,,,,0,,,55,0
65130,note_on,0,0,0,,,,,,,,0,,,43,0
65160,note_on,30,0,0,,,,,,,,0,,,41,57
65160,note_on,0,0,0,,,,,,,,0,,,53,72
65250,note_on,90,0,0,,,,,,,,0,,,53,0
65250,note_on,0,0,0,,,,,,,,0,,,41,0
65280,set_tempo,30,1,0,,,,,,587142,,,,,,
65280,note_on,0,0,0,,,,,,,,0,,,92,0
65280,note_on,0,0,0,,,,,,,,0,,,84,0
65280,note_on,0,0,0,,,,,,,,0,,,80,0
65280,note_on,0,0,0,,,,,,,,0,,,79,73
65280,note_on,0,0,0,,,,,,,,0,,,84,73
65280,note_on,0,0,0,,,,,,,,0,,,91,92
65280,note_on,0,0,0,,,,,,,,0,,,39,62
65280,note_on,0,0,0,,,,,,,,0,,,51,77
65370,note_on,90,0,0,,,,,,,,0,,,51,0
65370,note_on,0,0,0,,,,,,,,0,,,39,0
65400,note_on,30,0,0,,,,,,,,0,,,55,72
65400,note_on,0,0,0,,,,,,,,0,,,43,57
65490,note_on,90,0,0,,,,,,,,0,,,43,0
65490,note_on,0,0,0,,,,,,,,0,,,55,0
65520,set_tempo,30,1,0,,,,,,595711,,,,,,
65520,note_on,0,0,0,,,,,,,,0,,,91,0
65520,note_on,0,0,0,,,,,,,,0,,,84,0
65520,note_on,0,0,0,,,,,,,,0,,,79,0
65520,note_on,0,0,0,,,,,,,,0,,,95,86
65520,note_on,0,0,0,,,,,,,,0,,,91,69
65520,note_on,0,0,0,,,,,,,,0,,,83,69
65520,note_on,0,0,0,,,,,,,,0,,,41,57
65520,note_on,0,0,0,,,,,,,,0,,,53,72
65560,set_tempo,40,1,0,,,,,,598563,,,,,,
65580,set_tempo,20,1,0,,,,,,601504,,,,,,
65610,note_on,30,0,0,,,,,,,,0,,,53,0
65610,note_on,0,0,0,,,,,,,,0,,,41,0
65620,set_tempo,10,1,0,,,,,,604412,,,,,,
65640,set_tempo,20,1,0,,,,,,607410,,,,,,
65640,note_on,0,0,0,,,,,,,,0,,,50,72
65640,note_on,0,0,0,,,,,,,,0,,,38,57
65660,set_tempo,20,1,0,,,,,,610438,,,,,,
65700,set_tempo,40,1,0,,,,,,613434,,,,,,
65700,note_on,0,0,0,,,,,,,,0,,,95,0
65700,note_on,0,0,0,,,,,,,,0,,,83,0
65700,note_on,0,0,0,,,,,,,,0,,,91,0
65720,set_tempo,20,1,0,,,,,,616523,,,,,,
65730,note_on,10,0,0,,,,,,,,0,,,38,0
65740,set_tempo,10,1,0,,,,,,619579,,,,,,
65740,note_on,0,0,0,,,,,,,,0,,,50,0
65741,set_tempo,1,1,0,,,,,,603015,,,,,,
65760,set_tempo,19,1,0,,,,,,614314,,,,,,
65760,note_on,0,0,0,,,,,,,,0,,,84,77
65760,note_on,0,0,0,,,,,,,,0,,,87,77
65760,note_on,0,0,0,,,,,,,,0,,,96,97
65760,note_on,0,0,0,,,,,,,,0,,,47,76
65760,note_on,0,0,0,,,,,,,,0,,,35,60
65880,note_on,120,0,0,,,,,,,,0,,,35,0
65880,note_on,0,0,0,,,,,,,,0,,,47,0
65880,note_on,0,0,0,,,,,,,,0,,,48,74
65880,note_on,0,0,0,,,,,,,,0,,,36,59
65940,note_on,60,0,0,,,,,,,,0,,,84,0
65940,note_on,0,0,0,,,,,,,,0,,,96,0
65940,note_on,0,0,0,,,,,,,,0,,,87,0
65980,note_on,40,0,0,,,,,,,,0,,,48,0
65980,note_on,0,0,0,,,,,,,,0,,,36,0
66000,set_tempo,20,1,0,,,,,,764331,,,,,,
66000,note_on,0,0,0,,,,,,,,0,,,63,65
66000,note_on,0,0,0,,,,,,,,0,,,67,65
66000,note_on,0,0,0,,,,,,,,0,,,72,82
66000,note_on,0,0,0,,,,,,,,0,,,55,65
66000,note_on,0,0,0,,,,,,,,0,,,51,65
66000,note_on,0,0,0,,,,,,,,0,,,60,82
66180,note_on,180,0,0,,,,,,,,0,,,60,0
66180,note_on,0,0,0,,,,,,,,0,,,67,0
66180,note_on,0,0,0,,,,,,,,0,,,72,0
66180,note_on,0,0,0,,,,,,,,0,,,63,0
66180,note_on,0,0,0,,,,,,,,0,,,51,0
66180,note_on,0,0,0,,,,,,,,0,,,55,0
66240,set_tempo,60,1,0,,,,,,648438,,,,,,
66240,note_on,0,0,0,,,,,,,,0,,,58,81
66240,note_on,0,0,0,,,,,,,,0,,,70,90
66240,note_on,0,0,0,,,,,,,,0,,,34,78
66240,note_on,0,0,0,,,,,,,,0,,,46,87
66480,note_on,240,0,0,,,,,,,,0,,,62,66
66480,note_on,0,0,0,,,,,,,,0,,,65,66
66480,note_on,0,0,0,,,,,,,,0,,,41,59
66480,note_on,0,0,0,,,,,,,,0,,,44,66
66600,set_tempo,120,1,0,,,,,,604778,,,,,,
66600,note_on,0,0,0,,,,,,,,0,,,46,0
66600,note_on,0,0,0,,,,,,,,0,,,34,0
66600,note_on,0,0,0,,,,,,,,0,,,58,0
66600,note_on,0,0,0,,,,,,,,0,,,70,0
66600,note_on,0,0,0,,,,,,,,0,,,58,70
66600,note_on,0,0,0,,,,,,,,0,,,70,78
66600,note_on,0,0,0,,,,,,,,0,,,34,70
66600,note_on,0,0,0,,,,,,,,0,,,46,78
66720,note_on,120,0,0,,,,,,,,0,,,46,0
66720,note_on,0,0,0,,,,,,,,0,,,44,0
66720,note_on,0,0,0,,,,,,,,0,,,58,0
66720,note_on,0,0,0,,,,,,,,0,,,65,0
66720,note_on,0,0,0,,,,,,,,0,,,41,0
66720,note_on,0,0,0,,,,,,,,0,,,62,0
66720,note_on,0,0,0,,,,,,,,0,,,70,0
66720,note_on,0,0,0,,,,,,,,0,,,34,0
66720,note_on,0,0,0,,,,,,,,0,,,58,73
66720,note_on,0,0,0,,,,,,,,0,,,70,82
66720,note_on,0,0,0,,,,,,,,0,,,34,73
66720,note_on,0,0,0,,,,,,,,0,,,46,82
66840,set_tempo,120,1,0,,,,,,583601,,,,,,
66840,note_on,0,0,0,,,,,,,,0,,,46,0
66840,note_on,0,0,0,,,,,,,,0,,,58,0
66840,note_on,0,0,0,,,,,,,,0,,,70,0
66840,note_on,0,0,0,,,,,,,,0,,,34,0
66840,note_on,0,0,0,,,,,,,,0,,,57,64
66840,note_on,0,0,0,,,,,,,,0,,,69,72
66840,note_on,0,0,0,,,,,,,,0,,,33,62
66840,note_on,0,0,0,,,,,,,,0,,,45,69
66960,note_on,120,0,0,,,,,,,,0,,,45,0
66960,note_on,0,0,0,,,,,,,,0,,,57,0
66960,note_on,0,0,0,,,,,,,,0,,,69,0
66960,note_on,0,0,0,,,,,,,,0,,,33,0
66960,note_on,0,0,0,,,,,,,,0,,,58,66
66960,note_on,0,0,0,,,,,,,,0,,,70,74
66960,note_on,0,0,0,,,,,,,,0,,,34,64
66960,note_on,0,0,0,,,,,,,,0,,,46,72
67080,note_on,120,0,0,,,,,,,,0,,,46,0
67080,note_on,0,0,0,,,,,,,,0,,,58,0
67080,note_on,0,0,0,,,,,,,,0,,,70,0
67080,note_on,0,0,0,,,,,,,,0,,,34,0
67080,note_on,0,0,0,,,,,,,,0,,,62,69
67080,note_on,0,0,0,,,,,,,,0,,,74,77
67080,note_on,0,0,0,,,,,,,,0,,,38,67
67080,note_on,0,0,0,,,,,,,,0,,,50,76
67200,set_tempo,120,1,0,,,,,,595533,,,,,,
67200,note_on,0,0,0,,,,,,,,0,,,50,0
67200,note_on,0,0,0,,,,,,,,0,,,62,0
67200,note_on,0,0,0,,,,,,,,0,,,74,0
67200,note_on,0,0,0,,,,,,,,0,,,38,0
67200,note_on,0,0,0,,,,,,,,0,,,65,71
67200,note_on,0,0,0,,,,,,,,0,,,77,79
67200,note_on,0,0,0,,,,,,,,0,,,41,70
67200,note_on,0,0,0,,,,,,,,0,,,53,78
67320,set_tempo,120,1,0,,,,,,569368,,,,,,
67320,note_on,0,0,0,,,,,,,,0,,,53,0
67320,note_on,0,0,0,,,,,,,,0,,,65,0
67320,note_on,0,0,0,,,,,,,,0,,,77,0
67320,note_on,0,0,0,,,,,,,,0,,,41,0
67320,note_on,0,0,0,,,,,,,,0,,,70,72
67320,note_on,0,0,0,,,,,,,,0,,,82,81
67320,note_on,0,0,0,,,,,,,,0,,,46,72
67320,note_on,0,0,0,,,,,,,,0,,,58,81
67324,control_change,4,0,0,,,,,,,,0,64,127,,
67440,note_on,116,0,0,,,,,,,,0,,,58,0
67440,note_on,0,0,0,,,,,,,,0,,,70,0
67440,note_on,0,0,0,,,,,,,,0,,,82,0
67440,note_on,0,0,0,,,,,,,,0,,,46,0
67440,note_on,0,0,0,,,,,,,,0,,,74,73
67440,note_on,0,0,0,,,,,,,,0,,,86,83
67440,note_on,0,0,0,,,,,,,,0,,,50,74
67440,note_on,0,0,0,,,,,,,,0,,,62,84
67560,set_tempo,120,1,0,,,,,,558451,,,,,,
67560,note_on,0,0,0,,,,,,,,0,,,62,0
67560,note_on,0,0,0,,,,,,,,0,,,74,0
67560,note_on,0,0,0,,,,,,,,0,,,86,0
67560,note_on,0,0,0,,,,,,,,0,,,50,0
67560,note_on,0,0,0,,,,,,,,0,,,77,76
67560,note_on,0,0,0,,,,,,,,0,,,89,85
67560,note_on,0,0,0,,,,,,,,0,,,53,77
67560,note_on,0,0,0,,,,,,,,0,,,65,86
67661,set_tempo,101,1,0,,,,,,574163,,,,,,
67680,set_tempo,19,1,0,,,,,,588235,,,,,,
67680,note_on,0,0,0,,,,,,,,0,,,65,0
67680,note_on,0,0,0,,,,,,,,0,,,77,0
67680,note_on,0,0,0,,,,,,,,0,,,89,0
67680,note_on,0,0,0,,,,,,,,0,,,53,0
67680,note_on,0,0,0,,,,,,,,0,,,80,78
67680,note_on,0,0,0,,,,,,,,0,,,92,87
67680,note_on,0,0,0,,,,,,,,0,,,68,90
67680,note_on,0,0,0,,,,,,,,0,,,56,80
67688,control_change,8,0,0,,,,,,,,0,64,0,,
67740,control_change,52,0,0,,,,,,,,0,64,127,,
67800,note_on,60,0,0,,,,,,,,0,,,56,0
67800,note_on,0,0,0,,,,,,,,0,,,80,0
67800,note_on,0,0,0,,,,,,,,0,,,92,0
67800,note_on,0,0,0,,,,,,,,0,,,68,0
67800,note_on,0,0,0,,,,,,,,0,,,77,73
67800,note_on,0,0,0,,,,,,,,0,,,89,82
67800,note_on,0,0,0,,,,,,,,0,,,53,73
67800,note_on,0,0,0,,,,,,,,0,,,65,82
67920,set_tempo,120,1,0,,,,,,727273,,,,,,
67920,note_on,0,0,0,,,,,,,,0,,,65,0
67920,note_on,0,0,0,,,,,,,,0,,,77,0
67920,note_on,0,0,0,,,,,,,,0,,,89,0
67920,note_on,0,0,0,,,,,,,,0,,,53,0
67920,note_on,0,0,0,,,,,,,,0,,,86,70
67920,note_on,0,0,0,,,,,,,,0,,,74,63
67920,note_on,0,0,0,,,,,,,,0,,,77,63
67920,note_on,0,0,0,,,,,,,,0,,,50,63
67920,note_on,0,0,0,,,,,,,,0,,,56,63
67920,note_on,0,0,0,,,,,,,,0,,,58,63
67920,note_on,0,0,0,,,,,,,,0,,,62,71
68046,control_change,126,0,0,,,,,,,,0,64,0,,
68100,note_on,54,0,0,,,,,,,,0,,,62,0
68100,note_on,0,0,0,,,,,,,,0,,,56,0
68100,note_on,0,0,0,,,,,,,,0,,,74,0
68100,note_on,0,0,0,,,,,,,,0,,,77,0
68100,note_on,0,0,0,,,,,,,,0,,,86,0
68100,note_on,0,0,0,,,,,,,,0,,,58,0
68100,note_on,0,0,0,,,,,,,,0,,,50,0
68160,set_tempo,60,1,0,,,,,,648438,,,,,,
68160,note_on,0,0,0,,,,,,,,0,,,58,81
68160,note_on,0,0,0,,,,,,,,0,,,70,90
68160,note_on,0,0,0,,,,,,,,0,,,34,78
68160,note_on,0,0,0,,,,,,,,0,,,46,87
68400,note_on,240,0,0,,,,,,,,0,,,62,59
68400,note_on,0,0,0,,,,,,,,0,,,65,66
68400,note_on,0,0,0,,,,,,,,0,,,41,59
68400,note_on,0,0,0,,,,,,,,0,,,44,66
68520,set_tempo,120,1,0,,,,,,591133,,,,,,
68520,note_on,0,0,0,,,,,,,,0,,,46,0
68520,note_on,0,0,0,,,,,,,,0,,,34,0
68520,note_on,0,0,0,,,,,,,,0,,,58,0
68520,note_on,0,0,0,,,,,,,,0,,,70,0
68520,note_on,0,0,0,,,,,,,,0,,,58,70
68520,note_on,0,0,0,,,,,,,,0,,,70,78
68520,note_on,0,0,0,,,,,,,,0,,,34,70
68520,note_on,0,0,0,,,,,,,,0,,,46,78
68640,note_on,120,0,0,,,,,,,,0,,,46,0
68640,note_on,0,0,0,,,,,,,,0,,,44,0
68640,note_on,0,0,0,,,,,,,,0,,,58,0
68640,note_on,0,0,0,,,,,,,,0,,,65,0
68640,note_on,0,0,0,,,,,,,,0,,,41,0
68640,note_on,0,0,0,,,,,,,,0,,,62,0
68640,note_on,0,0,0,,,,,,,,0,,,70,0
68640,note_on,0,0,0,,,,,,,,0,,,34,0
68640,note_on,0,0,0,,,,,,,,0,,,58,73
68640,note_on,0,0,0,,,,,,,,0,,,70,82
68640,note_on,0,0,0,,,,,,,,0,,,34,73
68640,note_on,0,0,0,,,,,,,,0,,,46,82
68760,set_tempo,120,1,0,,,,,,574163,,,,,,
68760,note_on,0,0,0,,,,,,,,0,,,46,0
68760,note_on,0,0,0,,,,,,,,0,,,58,0
68760,note_on,0,0,0,,,,,,,,0,,,70,0
68760,note_on,0,0,0,,,,,,,,0,,,34,0
68760,note_on,0,0,0,,,,,,,,0,,,57,64
68760,note_on,0,0,0,,,,,,,,0,,,69,72
68760,note_on,0,0,0,,,,,,,,0,,,33,62
68760,note_on,0,0,0,,,,,,,,0,,,45,69
68880,note_on,120,0,0,,,,,,,,0,,,45,0
68880,note_on,0,0,0,,,,,,,,0,,,57,0
68880,note_on,0,0,0,,,,,,,,0,,,69,0
68880,note_on,0,0,0,,,,,,,,0,,,33,0
68880,note_on,0,0,0,,,,,,,,0,,,58,66
68880,note_on,0,0,0,,,,,,,,0,,,70,74
68880,note_on,0,0,0,,,,,,,,0,,,34,64
68880,note_on,0,0,0,,,,,,,,0,,,46,72
69000,note_on,120,0,0,,,,,,,,0,,,46,0
69000,note_on,0,0,0,,,,,,,,0,,,58,0
69000,note_on,0,0,0,,,,,,,,0,,,70,0
69000,note_on,0,0,0,,,,,,,,0,,,34,0
69000,note_on,0,0,0,,,,,,,,0,,,62,69
69000,note_on,0,0,0,,,,,,,,0,,,74,77
69000,note_on,0,0,0,,,,,,,,0,,,38,67
69000,note_on,0,0,0,,,,,,,,0,,,50,76
69120,set_tempo,120,1,0,,,,,,588235,,,,,,
69120,note_on,0,0,0,,,,,,,,0,,,50,0
69120,note_on,0,0,0,,,,,,,,0,,,62,0
69120,note_on,0,0,0,,,,,,,,0,,,74,0
69120,note_on,0,0,0,,,,,,,,0,,,38,0
69120,note_on,0,0,0,,,,,,,,0,,,65,71
69120,note_on,0,0,0,,,,,,,,0,,,77,79
69120,note_on,0,0,0,,,,,,,,0,,,41,70
69120,note_on,0,0,0,,,,,,,,0,,,53,78
69240,set_tempo,120,1,0,,,,,,594059,,,,,,
69240,note_on,0,0,0,,,,,,,,0,,,53,0
69240,note_on,0,0,0,,,,,,,,0,,,65,0
69240,note_on,0,0,0,,,,,,,,0,,,77,0
69240,note_on,0,0,0,,,,,,,,0,,,41,0
69240,note_on,0,0,0,,,,,,,,0,,,70,72
69240,note_on,0,0,0,,,,,,,,0,,,82,81
69240,note_on,0,0,0,,,,,,,,0,,,46,72
69240,note_on,0,0,0,,,,,,,,0,,,58,81
69272,control_change,32,0,0,,,,,,,,0,64,127,,
69360,set_tempo,88,1,0,,,,,,603015,,,,,,
69360,note_on,0,0,0,,,,,,,,0,,,58,0
69360,note_on,0,0,0,,,,,,,,0,,,70,0
69360,note_on,0,0,0,,,,,,,,0,,,82,0
69360,note_on,0,0,0,,,,,,,,0,,,46,0
69360,note_on,0,0,0,,,,,,,,0,,,74,73
69360,note_on,0,0,0,,,,,,,,0,,,86,83
69360,note_on,0,0,0,,,,,,,,0,,,50,74
69360,note_on,0,0,0,,,,,,,,0,,,62,84
69420,set_tempo,60,1,0,,,,,,606061,,,,,,
69480,set_tempo,60,1,0,,,,,,609137,,,,,,
69480,note_on,0,0,0,,,,,,,,0,,,62,0
69480,note_on,0,0,0,,,,,,,,0,,,74,0
69480,note_on,0,0,0,,,,,,,,0,,,86,0
69480,note_on,0,0,0,,,,,,,,0,,,50,0
69480,note_on,0,0,0,,,,,,,,0,,,77,76
69480,note_on,0,0,0,,,,,,,,0,,,89,85
69480,note_on,0,0,0,,,,,,,,0,,,53,77
69480,note_on,0,0,0,,,,,,,,0,,,65,86
69540,set_tempo,60,1,0,,,,,,612245,,,,,,
69580,set_tempo,40,1,0,,,,,,615385,,,,,,
69581,set_tempo,1,1,0,,,,,,574163,,,,,,
69600,set_tempo,19,1,0,,,,,,641711,,,,,,
69600,note_on,0,0,0,,,,,,,,0,,,65,0
69600,note_on,0,0,0,,,,,,,,0,,,77,0
69600,note_on,0,0,0,,,,,,,,0,,,89,0
69600,note_on,0,0,0,,,,,,,,0,,,53,0
69600,note_on,0,0,0,,,,,,,,0,,,80,78
69600,note_on,0,0,0,,,,,,,,0,,,92,87
69600,note_on,0,0,0,,,,,,,,0,,,68,90
69600,note_on,0,0,0,,,,,,,,0,,,56,80
69619,control_change,19,0,0,,,,,,,,0,64,0,,
69660,control_change,41,0,0,,,,,,,,0,64,127,,
69720,set_tempo,60,1,0,,,,,,718563,,,,,,
69720,note_on,0,0,0,,,,,,,,0,,,56,0
69720,note_on,0,0,0,,,,,,,,0,,,80,0
69720,note_on,0,0,0,,,,,,,,0,,,92,0
69720,note_on,0,0,0,,,,,,,,0,,,68,0
69720,note_on,0,0,0,,,,,,,,0,,,77,73
69720,note_on,0,0,0,,,,,,,,0,,,89,82
69720,note_on,0,0,0,,,,,,,,0,,,53,73
69720,note_on,0,0,0,,,,,,,,0,,,65,82
69810,note_on,90,0,0,,,,,,,,0,,,65,0
69810,note_on,0,0,0,,,,,,,,0,,,77,0
69810,note_on,0,0,0,,,,,,,,0,,,89,0
69810,note_on,0,0,0,,,,,,,,0,,,53,0
69840,set_tempo,30,1,0,,,,,,779221,,,,,,
69840,note_on,0,0,0,,,,,,,,0,,,83,70
69840,note_on,0,0,0,,,,,,,,0,,,74,63
69840,note_on,0,0,0,,,,,,,,0,,,71,63
69840,note_on,0,0,0,,,,,,,,0,,,47,63
69840,note_on,0,0,0,,,,,,,,0,,,53,63
69840,note_on,0,0,0,,,,,,,,0,,,56,63
69840,note_on,0,0,0,,,,,,,,0,,,59,71
69851,control_change,11,0,0,,,,,,,,0,64,0,,
70020,note_on,169,0,0,,,,,,,,0,,,59,0
70020,note_on,0,0,0,,,,,,,,0,,,53,0
70020,note_on,0,0,0,,,,,,,,0,,,74,0
70020,note_on,0,0,0,,,,,,,,0,,,71,0
70020,note_on,0,0,0,,,,,,,,0,,,83,0
70020,note_on,0,0,0,,,,,,,,0,,,56,0
70020,note_on,0,0,0,,,,,,,,0,,,47,0
70080,set_tempo,60,1,0,,,,,,718563,,,,,,
70080,note_on,0,0,0,,,,,,,,0,,,67,82
70080,note_on,0,0,0,,,,,,,,0,,,79,91
70080,note_on,0,0,0,,,,,,,,0,,,43,90
70080,note_on,0,0,0,,,,,,,,0,,,55,90
70440,set_tempo,360,1,0,,,,,,674157,,,,,,
70440,note_on,0,0,0,,,,,,,,0,,,55,0
70440,note_on,0,0,0,,,,,,,,0,,,67,0
70440,note_on,0,0,0,,,,,,,,0,,,79,0
70440,note_on,0,0,0,,,,,,,,0,,,43,0
70440,note_on,0,0,0,,,,,,,,0,,,63,70
70440,note_on,0,0,0,,,,,,,,0,,,75,78
70440,note_on,0,0,0,,,,,,,,0,,,39,70
70440,note_on,0,0,0,,,,,,,,0,,,51,70
70560,set_tempo,120,1,0,,,,,,655738,,,,,,
70560,note_on,0,0,0,,,,,,,,0,,,51,0
70560,note_on,0,0,0,,,,,,,,0,,,63,0
70560,note_on,0,0,0,,,,,,,,0,,,75,0
70560,note_on,0,0,0,,,,,,,,0,,,39,0
70560,note_on,0,0,0,,,,,,,,0,,,60,73
70560,note_on,0,0,0,,,,,,,,0,,,72,83
70560,note_on,0,0,0,,,,,,,,0,,,36,73
70560,note_on,0,0,0,,,,,,,,0,,,48,73
70650,note_on,90,0,0,,,,,,,,0,,,48,0
70650,note_on,0,0,0,,,,,,,,0,,,60,0
70650,note_on,0,0,0,,,,,,,,0,,,72,0
70650,note_on,0,0,0,,,,,,,,0,,,36,0
70680,set_tempo,30,1,0,,,,,,645161,,,,,,
70680,note_on,0,0,0,,,,,,,,0,,,59,70
70680,note_on,0,0,0,,,,,,,,0,,,71,78
70680,note_on,0,0,0,,,,,,,,0,,,35,70
70680,note_on,0,0,0,,,,,,,,0,,,47,70
70770,note_on,90,0,0,,,,,,,,0,,,47,0
70770,note_on,0,0,0,,,,,,,,0,,,59,0
70770,note_on,0,0,0,,,,,,,,0,,,71,0
70770,note_on,0,0,0,,,,,,,,0,,,35,0
70800,set_tempo,30,1,0,,,,,,625000,,,,,,
70800,note_on,0,0,0,,,,,,,,0,,,63,51
70800,note_on,0,0,0,,,,,,,,0,,,67,51
70800,note_on,0,0,0,,,,,,,,0,,,60,70
70800,note_on,0,0,0,,,,,,,,0,,,72,78
70800,note_on,0,0,0,,,,,,,,0,,,39,51
70800,note_on,0,0,0,,,,,,,,0,,,43,51
70800,note_on,0,0,0,,,,,,,,0,,,36,70
70800,note_on,0,0,0,,,,,,,,0,,,48,70
70920,note_on,120,0,0,,,,,,,,0,,,48,0
70920,note_on,0,0,0,,,,,,,,0,,,36,0
70920,note_on,0,0,0,,,,,,,,0,,,60,0
70920,note_on,0,0,0,,,,,,,,0,,,72,0
70920,note_on,0,0,0,,,,,,,,0,,,62,70
70920,note_on,0,0,0,,,,,,,,0,,,74,78
70920,note_on,0,0,0,,,,,,,,0,,,38,70
70920,note_on,0,0,0,,,,,,,,0,,,50,70
70980,note_on,60,0,0,,,,,,,,0,,,39,0
70980,note_on,0,0,0,,,,,,,,0,,,43,0
70980,note_on,0,0,0,,,,,,,,0,,,63,0
70980,note_on,0,0,0,,,,,,,,0,,,67,0
71040,set_tempo,60,1,0,,,,,,638298,,,,,,
71040,note_on,0,0,0,,,,,,,,0,,,62,0
71040,note_on,0,0,0,,,,,,,,0,,,50,0
71040,note_on,0,0,0,,,,,,,,0,,,74,0
71040,note_on,0,0,0,,,,,,,,0,,,38,0
71040,note_on,0,0,0,,,,,,,,0,,,67,54
71040,note_on,0,0,0,,,,,,,,0,,,72,54
71040,note_on,0,0,0,,,,,,,,0,,,63,72
71040,note_on,0,0,0,,,,,,,,0,,,75,81
71040,note_on,0,0,0,,,,,,,,0,,,43,54
71040,note_on,0,0,0,,,,,,,,0,,,48,54
71040,note_on,0,0,0,,,,,,,,0,,,39,72
71040,note_on,0,0,0,,,,,,,,0,,,51,72
71130,note_on,90,0,0,,,,,,,,0,,,51,0
71130,note_on,0,0,0,,,,,,,,0,,,39,0
71130,note_on,0,0,0,,,,,,,,0,,,63,0
71130,note_on,0,0,0,,,,,,,,0,,,75,0
71160,set_tempo,30,1,0,,,,,,628272,,,,,,
71160,note_on,0,0,0,,,,,,,,0,,,62,70
71160,note_on,0,0,0,,,,,,,,0,,,74,78
71160,note_on,0,0,0,,,,,,,,0,,,38,70
71160,note_on,0,0,0,,,,,,,,0,,,50,70
71250,note_on,90,0,0,,,,,,,,0,,,50,0
71250,note_on,0,0,0,,,,,,,,0,,,38,0
71250,note_on,0,0,0,,,,,,,,0,,,62,0
71250,note_on,0,0,0,,,,,,,,0,,,74,0
71280,set_tempo,30,1,0,,,,,,615385,,,,,,
71280,note_on,0,0,0,,,,,,,,0,,,63,70
71280,note_on,0,0,0,,,,,,,,0,,,75,78
71280,note_on,0,0,0,,,,,,,,0,,,39,70
71280,note_on,0,0,0,,,,,,,,0,,,51,70
71400,note_on,120,0,0,,,,,,,,0,,,51,0
71400,note_on,0,0,0,,,,,,,,0,,,39,0
71400,note_on,0,0,0,,,,,,,,0,,,63,0
71400,note_on,0,0,0,,,,,,,,0,,,75,0
71400,note_on,0,0,0,,,,,,,,0,,,65,70
71400,note_on,0,0,0,,,,,,,,0,,,77,78
71400,note_on,0,0,0,,,,,,,,0,,,41,70
71400,note_on,0,0,0,,,,,,,,0,,,53,70
71520,set_tempo,120,1,0,,,,,,634921,,,,,,
71520,note_on,0,0,0,,,,,,,,0,,,53,0
71520,note_on,0,0,0,,,,,,,,0,,,48,0
71520,note_on,0,0,0,,,,,,,,0,,,65,0
71520,note_on,0,0,0,,,,,,,,0,,,72,0
71520,note_on,0,0,0,,,,,,,,0,,,43,0
71520,note_on,0,0,0,,,,,,,,0,,,67,0
71520,note_on,0,0,0,,,,,,,,0,,,77,0
71520,note_on,0,0,0,,,,,,,,0,,,41,0
71520,note_on,0,0,0,,,,,,,,0,,,74,54
71520,note_on,0,0,0,,,,,,,,0,,,72,54
71520,note_on,0,0,0,,,,,,,,0,,,67,72
71520,note_on,0,0,0,,,,,,,,0,,,79,81
71520,note_on,0,0,0,,,,,,,,0,,,50,54
71520,note_on,0,0,0,,,,,,,,0,,,48,54
71520,note_on,0,0,0,,,,,,,,0,,,43,72
71520,note_on,0,0,0,,,,,,,,0,,,55,72
71610,note_on,90,0,0,,,,,,,,0,,,55,0
71610,note_on,0,0,0,,,,,,,,0,,,43,0
71610,note_on,0,0,0,,,,,,,,0,,,67,0
71610,note_on,0,0,0,,,,,,,,0,,,79,0
71640,set_tempo,30,1,0,,,,,,612245,,,,,,
71640,note_on,0,0,0,,,,,,,,0,,,66,70
71640,note_on,0,0,0,,,,,,,,0,,,78,78
71640,note_on,0,0,0,,,,,,,,0,,,42,70
71640,note_on,0,0,0,,,,,,,,0,,,54,70
71700,note_on,60,0,0,,,,,,,,0,,,50,0
71700,note_on,0,0,0,,,,,,,,0,,,48,0
71700,note_on,0,0,0,,,,,,,,0,,,74,0
71700,note_on,0,0,0,,,,,,,,0,,,72,0
71740,note_on,40,0,0,,,,,,,,0,,,66,0
71740,note_on,0,0,0,,,,,,,,0,,,54,0
71740,note_on,0,0,0,,,,,,,,0,,,78,0
71740,note_on,0,0,0,,,,,,,,0,,,42,0
71760,set_tempo,20,1,0,,,,,,597015,,,,,,
71760,note_on,0,0,0,,,,,,,,0,,,71,54
71760,note_on,0,0,0,,,,,,,,0,,,74,54
71760,note_on,0,0,0,,,,,,,,0,,,67,70
71760,note_on,0,0,0,,,,,,,,0,,,79,78
71760,note_on,0,0,0,,,,,,,,0,,,47,54
71760,note_on,0,0,0,,,,,,,,0,,,50,54
71760,note_on,0,0,0,,,,,,,,0,,,43,70
71760,note_on,0,0,0,,,,,,,,0,,,55,70
71880,note_on,120,0,0,,,,,,,,0,,,55,0
71880,note_on,0,0,0,,,,,,,,0,,,43,0
71880,note_on,0,0,0,,,,,,,,0,,,67,0
71880,note_on,0,0,0,,,,,,,,0,,,79,0
71880,note_on,0,0,0,,,,,,,,0,,,81,78
71880,note_on,0,0,0,,,,,,,,0,,,69,70
71880,note_on,0,0,0,,,,,,,,0,,,57,70
71880,note_on,0,0,0,,,,,,,,0,,,45,70
71940,note_on,60,0,0,,,,,,,,0,,,47,0
71940,note_on,0,0,0,,,,,,,,0,,,50,0
71940,note_on,0,0,0,,,,,,,,0,,,71,0
71940,note_on,0,0,0,,,,,,,,0,,,74,0
72000,set_tempo,60,1,0,,,,,,615385,,,,,,
72000,note_on,0,0,0,,,,,,,,0,,,81,0
72000,note_on,0,0,0,,,,,,,,0,,,45,0
72000,note_on,0,0,0,,,,,,,,0,,,69,0
72000,note_on,0,0,0,,,,,,,,0,,,57,0
72000,note_on,0,0,0,,,,,,,,0,,,71,74
72000,note_on,0,0,0,,,,,,,,0,,,83,84
72000,note_on,0,0,0,,,,,,,,0,,,47,74
72000,note_on,0,0,0,,,,,,,,0,,,59,74
72090,note_on,90,0,0,,,,,,,,0,,,59,0
72090,note_on,0,0,0,,,,,,,,0,,,71,0
72090,note_on,0,0,0,,,,,,,,0,,,83,0
72090,note_on,0,0,0,,,,,,,,0,,,47,0
72120,set_tempo,30,1,0,,,,,,591133,,,,,,
72120,note_on,0,0,0,,,,,,,,0,,,69,70
72120,note_on,0,0,0,,,,,,,,0,,,81,78
72120,note_on,0,0,0,,,,,,,,0,,,45,70
72120,note_on,0,0,0,,,,,,,,0,,,57,70
72230,note_on,110,0,0,,,,,,,,0,,,57,0
72230,note_on,0,0,0,,,,,,,,0,,,69,0
72230,note_on,0,0,0,,,,,,,,0,,,81,0
72230,note_on,0,0,0,,,,,,,,0,,,45,0
72240,note_on,10,0,0,,,,,,,,0,,,74,54
72240,note_on,0,0,0,,,,,,,,0,,,77,54
72240,note_on,0,0,0,,,,,,,,0,,,71,70
72240,note_on,0,0,0,,,,,,,,0,,,83,78
72240,note_on,0,0,0,,,,,,,,0,,,50,54
72240,note_on,0,0,0,,,,,,,,0,,,53,54
72240,note_on,0,0,0,,,,,,,,0,,,47,70
72240,note_on,0,0,0,,,,,,,,0,,,59,70
72360,note_on,120,0,0,,,,,,,,0,,,59,0
72360,note_on,0,0,0,,,,,,,,0,,,47,0
72360,note_on,0,0,0,,,,,,,,0,,,71,0
72360,note_on,0,0,0,,,,,,,,0,,,83,0
72360,note_on,0,0,0,,,,,,,,0,,,67,70
72360,note_on,0,0,0,,,,,,,,0,,,79,78
72360,note_on,0,0,0,,,,,,,,0,,,43,70
72360,note_on,0,0,0,,,,,,,,0,,,55,70
72420,note_on,60,0,0,,,,,,,,0,,,50,0
72420,note_on,0,0,0,,,,,,,,0,,,53,0
72420,note_on,0,0,0,,,,,,,,0,,,74,0
72420,note_on,0,0,0,,,,,,,,0,,,77,0
72480,set_tempo,60,1,0,,,,,,600000,,,,,,
72480,note_on,0,0,0,,,,,,,,0,,,67,0
72480,note_on,0,0,0,,,,,,,,0,,,55,0
72480,note_on,0,0,0,,,,,,,,0,,,79,0
72480,note_on,0,0,0,,,,,,,,0,,,43,0
72480,note_on,0,0,0,,,,,,,,0,,,75,60
72480,note_on,0,0,0,,,,,,,,0,,,72,79
72480,note_on,0,0,0,,,,,,,,0,,,84,88
72480,note_on,0,0,0,,,,,,,,0,,,51,60
72480,note_on,0,0,0,,,,,,,,0,,,48,79
72480,note_on,0,0,0,,,,,,,,0,,,60,79
72580,note_on,100,0,0,,,,,,,,0,,,60,0
72580,note_on,0,0,0,,,,,,,,0,,,72,0
72580,note_on,0,0,0,,,,,,,,0,,,84,0
72580,note_on,0,0,0,,,,,,,,0,,,48,0
72600,set_tempo,20,1,0,,,,,,582524,,,,,,
72600,note_on,0,0,0,,,,,,,,0,,,71,69
72600,note_on,0,0,0,,,,,,,,0,,,83,77
72600,note_on,0,0,0,,,,,,,,0,,,47,69
72600,note_on,0,0,0,,,,,,,,0,,,59,69
72660,note_on,60,0,0,,,,,,,,0,,,75,0
72660,note_on,0,0,0,,,,,,,,0,,,51,0
72720,note_on,60,0,0,,,,,,,,0,,,47,0
72720,note_on,0,0,0,,,,,,,,0,,,83,0
72720,note_on,0,0,0,,,,,,,,0,,,59,0
72720,note_on,0,0,0,,,,,,,,0,,,71,0
72720,note_on,0,0,0,,,,,,,,0,,,79,60
72720,note_on,0,0,0,,,,,,,,0,,,75,60
72720,note_on,0,0,0,,,,,,,,0,,,72,70
72720,note_on,0,0,0,,,,,,,,0,,,84,78
72720,note_on,0,0,0,,,,,,,,0,,,55,60
72720,note_on,0,0,0,,,,,,,,0,,,51,60
72720,note_on,0,0,0,,,,,,,,0,,,48,70
72720,note_on,0,0,0,,,,,,,,0,,,60,70
72840,note_on,120,0,0,,,,,,,,0,,,60,0
72840,note_on,0,0,0,,,,,,,,0,,,48,0
72840,note_on,0,0,0,,,,,,,,0,,,72,0
72840,note_on,0,0,0,,,,,,,,0,,,84,0
72840,note_on,0,0,0,,,,,,,,0,,,74,72
72840,note_on,0,0,0,,,,,,,,0,,,86,80
72840,note_on,0,0,0,,,,,,,,0,,,50,72
72840,note_on,0,0,0,,,,,,,,0,,,62,72
72900,note_on,60,0,0,,,,,,,,0,,,55,0
72900,note_on,0,0,0,,,,,,,,0,,,51,0
72900,note_on,0,0,0,,,,,,,,0,,,79,0
72900,note_on,0,0,0,,,,,,,,0,,,75,0
72960,set_tempo,60,1,0,,,,,,600000,,,,,,
72960,note_on,0,0,0,,,,,,,,0,,,74,0
72960,note_on,0,0,0,,,,,,,,0,,,62,0
72960,note_on,0,0,0,,,,,,,,0,,,86,0
72960,note_on,0,0,0,,,,,,,,0,,,50,0
72960,note_on,0,0,0,,,,,,,,0,,,84,63
72960,note_on,0,0,0,,,,,,,,0,,,79,63
72960,note_on,0,0,0,,,,,,,,0,,,75,81
72960,note_on,0,0,0,,,,,,,,0,,,87,90
72960,note_on,0,0,0,,,,,,,,0,,,60,63
72960,note_on,0,0,0,,,,,,,,0,,,55,63
72960,note_on,0,0,0,,,,,,,,0,,,51,81
72960,note_on,0,0,0,,,,,,,,0,,,63,81
73060,note_on,100,0,0,,,,,,,,0,,,63,0
73060,note_on,0,0,0,,,,,,,,0,,,51,0
73060,note_on,0,0,0,,,,,,,,0,,,75,0
73060,note_on,0,0,0,,,,,,,,0,,,87,0
73080,set_tempo,20,1,0,,,,,,566038,,,,,,
73080,note_on,0,0,0,,,,,,,,0,,,74,70
73080,note_on,0,0,0,,,,,,,,0,,,86,78
73080,note_on,0,0,0,,,,,,,,0,,,50,70
73080,note_on,0,0,0,,,,,,,,0,,,62,70
73140,note_on,60,0,0,,,,,,,,0,,,60,0
73140,note_on,0,0,0,,,,,,,,0,,,55,0
73140,note_on,0,0,0,,,,,,,,0,,,84,0
73140,note_on,0,0,0,,,,,,,,0,,,79,0
73200,note_on,60,0,0,,,,,,,,0,,,74,0
73200,note_on,0,0,0,,,,,,,,0,,,62,0
73200,note_on,0,0,0,,,,,,,,0,,,86,0
73200,note_on,0,0,0,,,,,,,,0,,,50,0
73200,note_on,0,0,0,,,,,,,,0,,,80,63
73200,note_on,0,0,0,,,,,,,,0,,,84,63
73200,note_on,0,0,0,,,,,,,,0,,,75,72
73200,note_on,0,0,0,,,,,,,,0,,,87,81
73200,note_on,0,0,0,,,,,,,,0,,,56,63
73200,note_on,0,0,0,,,,,,,,0,,,60,63
73200,note_on,0,0,0,,,,,,,,0,,,51,72
73200,note_on,0,0,0,,,,,,,,0,,,63,72
73320,note_on,120,0,0,,,,,,,,0,,,63,0
73320,note_on,0,0,0,,,,,,,,0,,,51,0
73320,note_on,0,0,0,,,,,,,,0,,,75,0
73320,note_on,0,0,0,,,,,,,,0,,,87,0
73320,note_on,0,0,0,,,,,,,,0,,,77,73
73320,note_on,0,0,0,,,,,,,,0,,,89,83
73320,note_on,0,0,0,,,,,,,,0,,,53,73
73320,note_on,0,0,0,,,,,,,,0,,,65,73
73380,note_on,60,0,0,,,,,,,,0,,,56,0
73380,note_on,0,0,0,,,,,,,,0,,,60,0
73380,note_on,0,0,0,,,,,,,,0,,,80,0
73380,note_on,0,0,0,,,,,,,,0,,,84,0
73440,set_tempo,60,1,0,,,,,,677966,,,,,,
73440,note_on,0,0,0,,,,,,,,0,,,77,0
73440,note_on,0,0,0,,,,,,,,0,,,65,0
73440,note_on,0,0,0,,,,,,,,0,,,89,0
73440,note_on,0,0,0,,,,,,,,0,,,53,0
73440,note_on,0,0,0,,,,,,,,0,,,83,81
73440,note_on,0,0,0,,,,,,,,0,,,79,81
73440,note_on,0,0,0,,,,,,,,0,,,91,89
73440,note_on,0,0,0,,,,,,,,0,,,59,81
73440,note_on,0,0,0,,,,,,,,0,,,55,81
73440,note_on,0,0,0,,,,,,,,0,,,67,81
73560,note_on,120,0,0,,,,,,,,0,,,67,0
73560,note_on,0,0,0,,,,,,,,0,,,79,0
73560,note_on,0,0,0,,,,,,,,0,,,91,0
73560,note_on,0,0,0,,,,,,,,0,,,83,0
73560,note_on,0,0,0,,,,,,,,0,,,55,0
73560,note_on,0,0,0,,,,,,,,0,,,59,0
73680,set_tempo,120,1,0,,,,,,736196,,,,,,
73680,note_on,0,0,0,,,,,,,,0,,,59,69
73680,note_on,0,0,0,,,,,,,,0,,,62,69
73680,note_on,0,0,0,,,,,,,,0,,,67,77
73680,note_on,0,0,0,,,,,,,,0,,,43,69
73680,note_on,0,0,0,,,,,,,,0,,,50,69
73680,note_on,0,0,0,,,,,,,,0,,,55,69
73860,note_on,180,0,0,,,,,,,,0,,,55,0
73860,note_on,0,0,0,,,,,,,,0,,,62,0
73860,note_on,0,0,0,,,,,,,,0,,,67,0
73860,note_on,0,0,0,,,,,,,,0,,,59,0
73860,note_on,0,0,0,,,,,,,,0,,,50,0
73860,note_on,0,0,0,,,,,,,,0,,,43,0
73920,set_tempo,60,1,0,,,,,,714286,,,,,,
73920,note_on,0,0,0,,,,,,,,0,,,91,85
73920,note_on,0,0,0,,,,,,,,0,,,83,76
73920,note_on,0,0,0,,,,,,,,0,,,86,76
73920,note_on,0,0,0,,,,,,,,0,,,79,76
73920,note_on,0,0,0,,,,,,,,0,,,67,80
73920,note_on,0,0,0,,,,,,,,0,,,62,72
73920,note_on,0,0,0,,,,,,,,0,,,59,72
73920,note_on,0,0,0,,,,,,,,0,,,55,72
74160,set_tempo,240,1,0,,,,,,701754,,,,,,
74280,set_tempo,120,1,0,,,,,,710059,,,,,,
74280,note_on,0,0,0,,,,,,,,0,,,55,0
74280,note_on,0,0,0,,,,,,,,0,,,91,0
74280,note_on,0,0,0,,,,,,,,0,,,67,0
74280,note_on,0,0,0,,,,,,,,0,,,83,0
74280,note_on,0,0,0,,,,,,,,0,,,86,0
74280,note_on,0,0,0,,,,,,,,0,,,79,0
74280,note_on,0,0,0,,,,,,,,0,,,62,0
74280,note_on,0,0,0,,,,,,,,0,,,59,0
74280,note_on,0,0,0,,,,,,,,0,,,79,73
74280,note_on,0,0,0,,,,,,,,0,,,91,83
74280,note_on,0,0,0,,,,,,,,0,,,43,64
74280,note_on,0,0,0,,,,,,,,0,,,55,72
74400,set_tempo,120,1,0,,,,,,681818,,,,,,
74400,note_on,0,0,0,,,,,,,,0,,,55,0
74400,note_on,0,0,0,,,,,,,,0,,,79,0
74400,note_on,0,0,0,,,,,,,,0,,,91,0
74400,note_on,0,0,0,,,,,,,,0,,,43,0
74400,note_on,0,0,0,,,,,,,,0,,,86,77
74400,note_on,0,0,0,,,,,,,,0,,,80,77
74400,note_on,0,0,0,,,,,,,,0,,,92,86
74400,note_on,0,0,0,,,,,,,,0,,,41,66
74400,note_on,0,0,0,,,,,,,,0,,,47,66
74400,note_on,0,0,0,,,,,,,,0,,,53,74
74520,set_tempo,120,1,0,,,,,,666667,,,,,,
74520,note_on,0,0,0,,,,,,,,0,,,53,0
74520,note_on,0,0,0,,,,,,,,0,,,80,0
74520,note_on,0,0,0,,,,,,,,0,,,92,0
74520,note_on,0,0,0,,,,,,,,0,,,86,0
74520,note_on,0,0,0,,,,,,,,0,,,47,0
74520,note_on,0,0,0,,,,,,,,0,,,41,0
74520,note_on,0,0,0,,,,,,,,0,,,91,83
74520,note_on,0,0,0,,,,,,,,0,,,79,73
74520,note_on,0,0,0,,,,,,,,0,,,40,64
74520,note_on,0,0,0,,,,,,,,0,,,52,72
74640,set_tempo,120,1,0,,,,,,659341,,,,,,
74640,note_on,0,0,0,,,,,,,,0,,,52,0
74640,note_on,0,0,0,,,,,,,,0,,,91,0
74640,note_on,0,0,0,,,,,,,,0,,,79,0
74640,note_on,0,0,0,,,,,,,,0,,,40,0
74640,note_on,0,0,0,,,,,,,,0,,,86,77
74640,note_on,0,0,0,,,,,,,,0,,,92,83
74640,note_on,0,0,0,,,,,,,,0,,,80,73
74640,note_on,0,0,0,,,,,,,,0,,,41,64
74640,note_on,0,0,0,,,,,,,,0,,,47,64
74640,note_on,0,0,0,,,,,,,,0,,,53,72
74760,set_tempo,120,1,0,,,,,,645161,,,,,,
74760,note_on,0,0,0,,,,,,,,0,,,53,0
74760,note_on,0,0,0,,,,,,,,0,,,92,0
74760,note_on,0,0,0,,,,,,,,0,,,80,0
74760,note_on,0,0,0,,,,,,,,0,,,86,0
74760,note_on,0,0,0,,,,,,,,0,,,47,0
74760,note_on,0,0,0,,,,,,,,0,,,41,0
74760,note_on,0,0,0,,,,,,,,0,,,86,83
74760,note_on,0,0,0,,,,,,,,0,,,74,73
74760,note_on,0,0,0,,,,,,,,0,,,47,64
74760,note_on,0,0,0,,,,,,,,0,,,59,72
74880,set_tempo,120,1,0,,,,,,634921,,,,,,
74880,note_on,0,0,0,,,,,,,,0,,,59,0
74880,note_on,0,0,0,,,,,,,,0,,,86,0
74880,note_on,0,0,0,,,,,,,,0,,,74,0
74880,note_on,0,0,0,,,,,,,,0,,,47,0
74880,note_on,0,0,0,,,,,,,,0,,,79,77
74880,note_on,0,0,0,,,,,,,,0,,,91,86
74880,note_on,0,0,0,,,,,,,,0,,,39,66
74880,note_on,0,0,0,,,,,,,,0,,,51,74
75000,set_tempo,120,1,0,,,,,,628272,,,,,,
75000,note_on,0,0,0,,,,,,,,0,,,51,0
75000,note_on,0,0,0,,,,,,,,0,,,79,0
75000,note_on,0,0,0,,,,,,,,0,,,91,0
75000,note_on,0,0,0,,,,,,,,0,,,39,0
75000,note_on,0,0,0,,,,,,,,0,,,78,73
75000,note_on,0,0,0,,,,,,,,0,,,90,83
75000,note_on,0,0,0,,,,,,,,0,,,38,64
75000,note_on,0,0,0,,,,,,,,0,,,50,72
75120,note_on,120,0,0,,,,,,,,0,,,50,0
75120,note_on,0,0,0,,,,,,,,0,,,78,0
75120,note_on,0,0,0,,,,,,,,0,,,90,0
75120,note_on,0,0,0,,,,,,,,0,,,38,0
75120,note_on,0,0,0,,,,,,,,0,,,84,73
75120,note_on,0,0,0,,,,,,,,0,,,79,73
75120,note_on,0,0,0,,,,,,,,0,,,91,83
75120,note_on,0,0,0,,,,,,,,0,,,39,64
75120,note_on,0,0,0,,,,,,,,0,,,48,72
75120,note_on,0,0,0,,,,,,,,0,,,51,72
75240,set_tempo,120,1,0,,,,,,641711,,,,,,
75240,note_on,0,0,0,,,,,,,,0,,,51,0
75240,note_on,0,0,0,,,,,,,,0,,,79,0
75240,note_on,0,0,0,,,,,,,,0,,,91,0
75240,note_on,0,0,0,,,,,,,,0,,,84,0
75240,note_on,0,0,0,,,,,,,,0,,,48,0
75240,note_on,0,0,0,,,,,,,,0,,,39,0
75240,note_on,0,0,0,,,,,,,,0,,,84,83
75240,note_on,0,0,0,,,,,,,,0,,,72,73
75240,note_on,0,0,0,,,,,,,,0,,,44,64
75240,note_on,0,0,0,,,,,,,,0,,,56,72
75360,set_tempo,120,1,0,,,,,,618557,,,,,,
75360,note_on,0,0,0,,,,,,,,0,,,56,0
75360,note_on,0,0,0,,,,,,,,0,,,84,0
75360,note_on,0,0,0,,,,,,,,0,,,72,0
75360,note_on,0,0,0,,,,,,,,0,,,44,0
75360,note_on,0,0,0,,,,,,,,0,,,84,77
75360,note_on,0,0,0,,,,,,,,0,,,89,86
75360,note_on,0,0,0,,,,,,,,0,,,77,77
75360,note_on,0,0,0,,,,,,,,0,,,38,66
75360,note_on,0,0,0,,,,,,,,0,,,44,66
75360,note_on,0,0,0,,,,,,,,0,,,50,74
75480,set_tempo,120,1,0,,,,,,603015,,,,,,
75480,note_on,0,0,0,,,,,,,,0,,,50,0
75480,note_on,0,0,0,,,,,,,,0,,,89,0
75480,note_on,0,0,0,,,,,,,,0,,,77,0
75480,note_on,0,0,0,,,,,,,,0,,,84,0
75480,note_on,0,0,0,,,,,,,,0,,,44,0
75480,note_on,0,0,0,,,,,,,,0,,,38,0
75480,note_on,0,0,0,,,,,,,,0,,,76,74
75480,note_on,0,0,0,,,,,,,,0,,,88,84
75480,note_on,0,0,0,,,,,,,,0,,,37,64
75480,note_on,0,0,0,,,,,,,,0,,,49,72
75600,note_on,120,0,0,,,,,,,,0,,,49,0
75600,note_on,0,0,0,,,,,,,,0,,,76,0
75600,note_on,0,0,0,,,,,,,,0,,,88,0
75600,note_on,0,0,0,,,,,,,,0,,,37,0
75600,note_on,0,0,0,,,,,,,,0,,,83,74
75600,note_on,0,0,0,,,,,,,,0,,,89,84
75600,note_on,0,0,0,,,,,,,,0,,,77,74
75600,note_on,0,0,0,,,,,,,,0,,,38,64
75600,note_on,0,0,0,,,,,,,,0,,,43,64
75600,note_on,0,0,0,,,,,,,,0,,,50,72
75690,note_on,90,0,0,,,,,,,,0,,,50,0
75690,note_on,0,0,0,,,,,,,,0,,,89,0
75690,note_on,0,0,0,,,,,,,,0,,,77,0
75690,note_on,0,0,0,,,,,,,,0,,,83,0
75690,note_on,0,0,0,,,,,,,,0,,,43,0
75690,note_on,0,0,0,,,,,,,,0,,,38,0
75720,set_tempo,30,1,0,,,,,,618557,,,,,,
75720,note_on,0,0,0,,,,,,,,0,,,71,74
75720,note_on,0,0,0,,,,,,,,0,,,83,84
75720,note_on,0,0,0,,,,,,,,0,,,43,64
75720,note_on,0,0,0,,,,,,,,0,,,55,72
75840,set_tempo,120,1,0,,,,,,591133,,,,,,
75840,note_on,0,0,0,,,,,,,,0,,,55,0
75840,note_on,0,0,0,,,,,,,,0,,,71,0
75840,note_on,0,0,0,,,,,,,,0,,,83,0
75840,note_on,0,0,0,,,,,,,,0,,,43,0
75840,note_on,0,0,0,,,,,,,,0,,,87,86
75840,note_on,0,0,0,,,,,,,,0,,,75,77
75840,note_on,0,0,0,,,,,,,,0,,,36,66
75840,note_on,0,0,0,,,,,,,,0,,,48,74
75960,set_tempo,120,1,0,,,,,,582524,,,,,,
75960,note_on,0,0,0,,,,,,,,0,,,48,0
75960,note_on,0,0,0,,,,,,,,0,,,87,0
75960,note_on,0,0,0,,,,,,,,0,,,75,0
75960,note_on,0,0,0,,,,,,,,0,,,36,0
75960,note_on,0,0,0,,,,,,,,0,,,86,83
75960,note_on,0,0,0,,,,,,,,0,,,74,73
75960,note_on,0,0,0,,,,,,,,0,,,35,64
75960,note_on,0,0,0,,,,,,,,0,,,47,72
76040,set_tempo,80,1,0,,,,,,579710,,,,,,
76080,note_on,40,0,0,,,,,,,,0,,,47,0
76080,note_on,0,0,0,,,,,,,,0,,,86,0
76080,note_on,0,0,0,,,,,,,,0,,,74,0
76080,note_on,0,0,0,,,,,,,,0,,,35,0
76080,note_on,0,0,0,,,,,,,,0,,,79,73
76080,note_on,0,0,0,,,,,,,,0,,,87,83
76080,note_on,0,0,0,,,,,,,,0,,,75,73
76080,note_on,0,0,0,,,,,,,,0,,,36,64
76080,note_on,0,0,0,,,,,,,,0,,,43,64
76080,note_on,0,0,0,,,,,,,,0,,,48,72
76120,set_tempo,40,1,0,,,,,,576923,,,,,,
76170,note_on,50,0,0,,,,,,,,0,,,48,0
76170,note_on,0,0,0,,,,,,,,0,,,87,0
76170,note_on,0,0,0,,,,,,,,0,,,75,0
76170,note_on,0,0,0,,,,,,,,0,,,79,0
76170,note_on,0,0,0,,,,,,,,0,,,43,0
76170,note_on,0,0,0,,,,,,,,0,,,36,0
76200,set_tempo,30,1,0,,,,,,574163,,,,,,
76200,note_on,0,0,0,,,,,,,,0,,,84,83
76200,note_on,0,0,0,,,,,,,,0,,,72,73
76200,note_on,0,0,0,,,,,,,,0,,,39,64
76200,note_on,0,0,0,,,,,,,,0,,,51,72
76280,set_tempo,80,1,0,,,,,,571429,,,,,,
76320,note_on,40,0,0,,,,,,,,0,,,51,0
76320,note_on,0,0,0,,,,,,,,0,,,84,0
76320,note_on,0,0,0,,,,,,,,0,,,72,0
76320,note_on,0,0,0,,,,,,,,0,,,39,0
76320,note_on,0,0,0,,,,,,,,0,,,74,77
76320,note_on,0,0,0,,,,,,,,0,,,70,77
76320,note_on,0,0,0,,,,,,,,0,,,82,86
76320,note_on,0,0,0,,,,,,,,0,,,41,66
76320,note_on,0,0,0,,,,,,,,0,,,53,74
76360,set_tempo,40,1,0,,,,,,568720,,,,,,
76410,note_on,50,0,0,,,,,,,,0,,,82,0
76410,note_on,0,0,0,,,,,,,,0,,,74,0
76410,note_on,0,0,0,,,,,,,,0,,,70,0
76440,set_tempo,30,1,0,,,,,,566038,,,,,,
76440,note_on,0,0,0,,,,,,,,0,,,72,73
76440,note_on,0,0,0,,,,,,,,0,,,68,73
76440,note_on,0,0,0,,,,,,,,0,,,80,83
76500,set_tempo,60,1,0,,,,,,563380,,,,,,
76530,note_on,30,0,0,,,,,,,,0,,,80,0
76530,note_on,0,0,0,,,,,,,,0,,,72,0
76530,note_on,0,0,0,,,,,,,,0,,,68,0
76560,set_tempo,30,1,0,,,,,,578871,,,,,,
76560,note_on,0,0,0,,,,,,,,0,,,41,0
76560,note_on,0,0,0,,,,,,,,0,,,53,0
76560,note_on,0,0,0,,,,,,,,0,,,67,73
76560,note_on,0,0,0,,,,,,,,0,,,79,83
76560,note_on,0,0,0,,,,,,,,0,,,51,64
76560,note_on,0,0,0,,,,,,,,0,,,63,72
76650,note_on,90,0,0,,,,,,,,0,,,63,0
76650,note_on,0,0,0,,,,,,,,0,,,67,0
76650,note_on,0,0,0,,,,,,,,0,,,79,0
76650,note_on,0,0,0,,,,,,,,0,,,51,0
76680,note_on,30,0,0,,,,,,,,0,,,65,73
76680,note_on,0,0,0,,,,,,,,0,,,77,83
76680,note_on,0,0,0,,,,,,,,0,,,50,64
76680,note_on,0,0,0,,,,,,,,0,,,62,72
76770,note_on,90,0,0,,,,,,,,0,,,62,0
76770,note_on,0,0,0,,,,,,,,0,,,65,0
76770,note_on,0,0,0,,,,,,,,0,,,77,0
76770,note_on,0,0,0,,,,,,,,0,,,50,0
76800,set_tempo,30,1,0,,,,,,587142,,,,,,
76800,note_on,0,0,0,,,,,,,,0,,,63,78
76800,note_on,0,0,0,,,,,,,,0,,,75,87
76800,note_on,0,0,0,,,,,,,,0,,,48,67
76800,note_on,0,0,0,,,,,,,,0,,,60,76
76890,note_on,90,0,0,,,,,,,,0,,,60,0
76890,note_on,0,0,0,,,,,,,,0,,,63,0
76890,note_on,0,0,0,,,,,,,,0,,,75,0
76890,note_on,0,0,0,,,,,,,,0,,,48,0
76920,note_on,30,0,0,,,,,,,,0,,,79,83
76920,note_on,0,0,0,,,,,,,,0,,,67,73
76920,note_on,0,0,0,,,,,,,,0,,,43,64
76920,note_on,0,0,0,,,,,,,,0,,,55,72
77010,note_on,90,0,0,,,,,,,,0,,,55,0
77010,note_on,0,0,0,,,,,,,,0,,,79,0
77010,note_on,0,0,0,,,,,,,,0,,,67,0
77010,note_on,0,0,0,,,,,,,,0,,,43,0
77040,set_tempo,30,1,0,,,,,,595711,,,,,,
77040,note_on,0,0,0,,,,,,,,0,,,71,83
77040,note_on,0,0,0,,,,,,,,0,,,65,73
77040,note_on,0,0,0,,,,,,,,0,,,77,83
77040,note_on,0,0,0,,,,,,,,0,,,44,64
77040,note_on,0,0,0,,,,,,,,0,,,56,72
77080,set_tempo,40,1,0,,,,,,598563,,,,,,
77100,set_tempo,20,1,0,,,,,,601504,,,,,,
77130,note_on,30,0,0,,,,,,,,0,,,56,0
77130,note_on,0,0,0,,,,,,,,0,,,77,0
77130,note_on,0,0,0,,,,,,,,0,,,71,0
77130,note_on,0,0,0,,,,,,,,0,,,65,0
77130,note_on,0,0,0,,,,,,,,0,,,44,0
77140,set_tempo,10,1,0,,,,,,604412,,,,,,
77160,set_tempo,20,1,0,,,,,,607410,,,,,,
77160,note_on,0,0,0,,,,,,,,0,,,74,83
77160,note_on,0,0,0,,,,,,,,0,,,62,73
77160,note_on,0,0,0,,,,,,,,0,,,43,64
77160,note_on,0,0,0,,,,,,,,0,,,55,72
77180,set_tempo,20,1,0,,,,,,610438,,,,,,
77220,set_tempo,40,1,0,,,,,,613434,,,,,,
77240,set_tempo,20,1,0,,,,,,616523,,,,,,
77250,note_on,10,0,0,,,,,,,,0,,,62,0
77260,set_tempo,10,1,0,,,,,,619579,,,,,,
77260,note_on,0,0,0,,,,,,,,0,,,74,0
77260,note_on,0,0,0,,,,,,,,0,,,43,0
77260,note_on,0,0,0,,,,,,,,0,,,55,0
77261,set_tempo,1,1,0,,,,,,603015,,,,,,
77280,set_tempo,19,1,0,,,,,,621762,,,,,,
77280,note_on,0,0,0,,,,,,,,0,,,71,83
77280,note_on,0,0,0,,,,,,,,0,,,59,73
77280,note_on,0,0,0,,,,,,,,0,,,35,64
77280,note_on,0,0,0,,,,,,,,0,,,47,72
77400,set_tempo,120,1,0,,,,,,645161,,,,,,
77400,note_on,0,0,0,,,,,,,,0,,,47,0
77400,note_on,0,0,0,,,,,,,,0,,,71,0
77400,note_on,0,0,0,,,,,,,,0,,,59,0
77400,note_on,0,0,0,,,,,,,,0,,,35,0
77400,note_on,0,0,0,,,,,,,,0,,,72,82
77400,note_on,0,0,0,,,,,,,,0,,,60,73
77400,note_on,0,0,0,,,,,,,,0,,,36,63
77400,note_on,0,0,0,,,,,,,,0,,,48,71
77490,note_on,90,0,0,,,,,,,,0,,,48,0
77490,note_on,0,0,0,,,,,,,,0,,,72,0
77490,note_on,0,0,0,,,,,,,,0,,,60,0
77490,note_on,0,0,0,,,,,,,,0,,,36,0
77520,set_tempo,30,1,0,,,,,,634384,,,,,,
77520,note_on,0,0,0,,,,,,,,0,,,72,81
77520,note_on,0,0,0,,,,,,,,0,,,79,81
77520,note_on,0,0,0,,,,,,,,0,,,75,81
77520,note_on,0,0,0,,,,,,,,0,,,84,90
77520,note_on,0,0,0,,,,,,,,0,,,48,70
77520,note_on,0,0,0,,,,,,,,0,,,51,70
77520,note_on,0,0,0,,,,,,,,0,,,55,70
77520,note_on,0,0,0,,,,,,,,0,,,60,78
77700,note_on,180,0,0,,,,,,,,0,,,60,0
77700,note_on,0,0,0,,,,,,,,0,,,72,0
77700,note_on,0,0,0,,,,,,,,0,,,48,0
77700,note_on,0,0,0,,,,,,,,0,,,79,0
77700,note_on,0,0,0,,,,,,,,0,,,75,0
77700,note_on,0,0,0,,,,,,,,0,,,84,0
77700,note_on,0,0,0,,,,,,,,0,,,51,0
77700,note_on,0,0,0,,,,,,,,0,,,55,0
77760,set_tempo,60,1,0,,,,,,600000,,,,,,
78180,note_on,420,0,0,,,,,,,,0,,,63,78
78240,set_tempo,60,1,0,,,,,,550459,,,,,,
78240,note_on,0,0,0,,,,,,,,0,,,63,0
78240,note_on,0,0,0,,,,,,,,0,,,63,82
79200,set_tempo,960,1,0,,,,,,1081081,,,,,,
79200,note_on,0,0,0,,,,,,,,0,,,63,0
79200,note_on,0,0,0,,,,,,,,0,,,71,78
79200,note_on,0,0,0,,,,,,,,0,,,59,70
79200,note_on,0,0,0,,,,,,,,0,,,35,69
79200,note_on,0,0,0,,,,,,,,0,,,47,77
79320,set_tempo,120,1,0,,,,,,1111111,,,,,,
79320,note_on,0,0,0,,,,,,,,0,,,47,0
79320,note_on,0,0,0,,,,,,,,0,,,71,0
79320,note_on,0,0,0,,,,,,,,0,,,59,0
79320,note_on,0,0,0,,,,,,,,0,,,35,0
79320,note_on,0,0,0,,,,,,,,0,,,72,72
79320,note_on,0,0,0,,,,,,,,0,,,60,64
79320,note_on,0,0,0,,,,,,,,0,,,36,63
79320,note_on,0,0,0,,,,,,,,0,,,48,71
79410,note_on,90,0,0,,,,,,,,0,,,48,0
79410,note_on,0,0,0,,,,,,,,0,,,72,0
79410,note_on,0,0,0,,,,,,,,0,,,60,0
79410,note_on,0,0,0,,,,,,,,0,,,36,0
79440,set_tempo,30,1,0,,,,,,634384,,,,,,
79440,note_on,0,0,0,,,,,,,,0,,,80,55
79440,note_on,0,0,0,,,,,,,,0,,,78,55
79440,note_on,0,0,0,,,,,,,,0,,,75,55
79440,note_on,0,0,0,,,,,,,,0,,,87,62
79440,note_on,0,0,0,,,,,,,,0,,,56,55
79440,note_on,0,0,0,,,,,,,,0,,,48,55
79440,note_on,0,0,0,,,,,,,,0,,,54,55
79440,note_on,0,0,0,,,,,,,,0,,,63,63
79620,note_on,180,0,0,,,,,,,,0,,,63,0
79620,note_on,0,0,0,,,,,,,,0,,,80,0
79620,note_on,0,0,0,,,,,,,,0,,,56,0
79620,note_on,0,0,0,,,,,,,,0,,,78,0
79620,note_on,0,0,0,,,,,,,,0,,,75,0
79620,note_on,0,0,0,,,,,,,,0,,,87,0
79620,note_on,0,0,0,,,,,,,,0,,,48,0
79620,note_on,0,0,0,,,,,,,,0,,,54,0
80100,set_tempo,480,1,0,,,,,,600000,,,,,,
80100,note_on,0,0,0,,,,,,,,0,,,68,60
80100,note_on,0,0,0,,,,,,,,0,,,66,54
80100,note_on,0,0,0,,,,,,,,0,,,60,54
80100,note_on,0,0,0,,,,,,,,0,,,63,56
80160,set_tempo,60,1,0,,,,,,530973,,,,,,
80160,note_on,0,0,0,,,,,,,,0,,,63,0
80160,note_on,0,0,0,,,,,,,,0,,,68,0
80160,note_on,0,0,0,,,,,,,,0,,,66,0
80160,note_on,0,0,0,,,,,,,,0,,,60,0
80160,note_on,0,0,0,,,,,,,,0,,,68,67
80160,note_on,0,0,0,,,,,,,,0,,,60,60
80160,note_on,0,0,0,,,,,,,,0,,,66,60
80160,note_on,0,0,0,,,,,,,,0,,,63,62
81120,set_tempo,960,1,0,,,,,,701754,,,,,,
81120,note_on,0,0,0,,,,,,,,0,,,63,0
81120,note_on,0,0,0,,,,,,,,0,,,68,0
81120,note_on,0,0,0,,,,,,,,0,,,60,0
81120,note_on,0,0,0,,,,,,,,0,,,66,0
81120,note_on,0,0,0,,,,,,,,0,,,63,45
81120,note_on,0,0,0,,,,,,,,0,,,66,45
81120,note_on,0,0,0,,,,,,,,0,,,69,50
81120,note_on,0,0,0,,,,,,,,0,,,35,54
81120,note_on,0,0,0,,,,,,,,0,,,47,60
81180,note_on,60,0,0,,,,,,,,0,,,47,0
81180,note_on,0,0,0,,,,,,,,0,,,35,0
81240,set_tempo,60,1,0,,,,,,727273,,,,,,
81240,note_on,0,0,0,,,,,,,,0,,,36,51
81240,note_on,0,0,0,,,,,,,,0,,,48,57
81300,note_on,60,0,0,,,,,,,,0,,,48,0
81300,note_on,0,0,0,,,,,,,,0,,,36,0
81360,set_tempo,60,1,0,,,,,,666667,,,,,,
81360,note_on,0,0,0,,,,,,,,0,,,42,46
81360,note_on,0,0,0,,,,,,,,0,,,54,53
81540,note_on,180,0,0,,,,,,,,0,,,54,0
81540,note_on,0,0,0,,,,,,,,0,,,42,0
81600,set_tempo,60,1,0,,,,,,754717,,,,,,
81600,note_on,0,0,0,,,,,,,,0,,,63,0
81600,note_on,0,0,0,,,,,,,,0,,,66,0
81600,note_on,0,0,0,,,,,,,,0,,,69,0
81600,note_on,0,0,0,,,,,,,,0,,,71,51
81600,note_on,0,0,0,,,,,,,,0,,,83,57
81600,note_on,0,0,0,,,,,,,,0,,,69,51
81600,note_on,0,0,0,,,,,,,,0,,,66,45
81600,note_on,0,0,0,,,,,,,,0,,,63,45
81660,note_on,60,0,0,,,,,,,,0,,,83,0
81660,note_on,0,0,0,,,,,,,,0,,,71,0
81720,set_tempo,60,1,0,,,,,,784314,,,,,,
81720,note_on,0,0,0,,,,,,,,0,,,72,48
81720,note_on,0,0,0,,,,,,,,0,,,84,54
81780,note_on,60,0,0,,,,,,,,0,,,84,0
81780,note_on,0,0,0,,,,,,,,0,,,72,0
81840,set_tempo,60,1,0,,,,,,662983,,,,,,
81840,note_on,0,0,0,,,,,,,,0,,,78,46
81840,note_on,0,0,0,,,,,,,,0,,,90,53
82020,note_on,180,0,0,,,,,,,,0,,,90,0
82020,note_on,0,0,0,,,,,,,,0,,,78,0
82080,set_tempo,60,1,0,,,,,,779221,,,,,,
82080,note_on,0,0,0,,,,,,,,0,,,66,0
82080,note_on,0,0,0,,,,,,,,0,,,69,0
82080,note_on,0,0,0,,,,,,,,0,,,63,0
82080,note_on,0,0,0,,,,,,,,0,,,76,48
82080,note_on,0,0,0,,,,,,,,0,,,88,54
82080,note_on,0,0,0,,,,,,,,0,,,62,44
82080,note_on,0,0,0,,,,,,,,0,,,65,44
82080,note_on,0,0,0,,,,,,,,0,,,69,49
82140,note_on,60,0,0,,,,,,,,0,,,88,0
82140,note_on,0,0,0,,,,,,,,0,,,76,0
82200,set_tempo,60,1,0,,,,,,930233,,,,,,
82200,note_on,0,0,0,,,,,,,,0,,,77,45
82200,note_on,0,0,0,,,,,,,,0,,,89,50
82260,note_on,60,0,0,,,,,,,,0,,,89,0
82260,note_on,0,0,0,,,,,,,,0,,,77,0
82320,set_tempo,60,1,0,,,,,,714286,,,,,,
82320,note_on,0,0,0,,,,,,,,0,,,101,49
82320,note_on,0,0,0,,,,,,,,0,,,89,44
82500,note_on,180,0,0,,,,,,,,0,,,89,0
82500,note_on,0,0,0,,,,,,,,0,,,101,0
82560,set_tempo,60,1,0,,,,,,1016949,,,,,,
82560,note_on,0,0,0,,,,,,,,0,,,65,0
82560,note_on,0,0,0,,,,,,,,0,,,62,0
82560,note_on,0,0,0,,,,,,,,0,,,69,0
82560,note_on,0,0,0,,,,,,,,0,,,60,41
82560,note_on,0,0,0,,,,,,,,0,,,63,41
82560,note_on,0,0,0,,,,,,,,0,,,69,52
82560,note_on,0,0,0,,,,,,,,0,,,40,45
82560,note_on,0,0,0,,,,,,,,0,,,52,58
82620,note_on,60,0,0,,,,,,,,0,,,52,0
82620,note_on,0,0,0,,,,,,,,0,,,40,0
82680,set_tempo,60,1,0,,,,,,1276596,,,,,,
82680,note_on,0,0,0,,,,,,,,0,,,41,45
82680,note_on,0,0,0,,,,,,,,0,,,53,57
82770,note_on,90,0,0,,,,,,,,0,,,53,0
82770,note_on,0,0,0,,,,,,,,0,,,41,0
82800,set_tempo,30,1,0,,,,,,1518987,,,,,,
82800,note_on,0,0,0,,,,,,,,0,,,65,53
82800,note_on,0,0,0,,,,,,,,0,,,53,42
83040,set_tempo,240,1,0,,,,,,1200000,,,,,,
83040,note_on,0,0,0,,,,,,,,0,,,53,0
83040,note_on,0,0,0,,,,,,,,0,,,69,0
83040,note_on,0,0,0,,,,,,,,0,,,60,0
83040,note_on,0,0,0,,,,,,,,0,,,63,0
83040,note_on,0,0,0,,,,,,,,0,,,65,0
83040,note_on,0,0,0,,,,,,,,0,,,58,42
83040,note_on,0,0,0,,,,,,,,0,,,62,42
83040,note_on,0,0,0,,,,,,,,0,,,70,53
83500,set_tempo,460,1,0,,,,,,1147447,,,,,,
83520,set_tempo,20,1,0,,,,,,588408,,,,,,
83520,note_on,0,0,0,,,,,,,,0,,,34,48
83520,note_on,0,0,0,,,,,,,,0,,,46,54
83760,note_on,240,0,0,,,,,,,,0,,,41,46
83760,note_on,0,0,0,,,,,,,,0,,,44,46
83880,set_tempo,120,1,0,,,,,,565185,,,,,,
83880,note_on,0,0,0,,,,,,,,0,,,46,0
83880,note_on,0,0,0,,,,,,,,0,,,34,0
83880,note_on,0,0,0,,,,,,,,0,,,34,48
83880,note_on,0,0,0,,,,,,,,0,,,46,48
83970,note_on,90,0,0,,,,,,,,0,,,46,0
83970,note_on,0,0,0,,,,,,,,0,,,34,0
84000,note_on,30,0,0,,,,,,,,0,,,44,0
84000,note_on,0,0,0,,,,,,,,0,,,70,0
84000,note_on,0,0,0,,,,,,,,0,,,58,0
84000,note_on,0,0,0,,,,,,,,0,,,62,0
84000,note_on,0,0,0,,,,,,,,0,,,41,0
84000,note_on,0,0,0,,,,,,,,0,,,34,45
84000,note_on,0,0,0,,,,,,,,0,,,46,50
84060,note_on,60,0,0,,,,,,,,0,,,46,0
84060,note_on,0,0,0,,,,,,,,0,,,34,0
84120,set_tempo,60,1,0,,,,,,548948,,,,,,
84120,note_on,0,0,0,,,,,,,,0,,,33,45
84120,note_on,0,0,0,,,,,,,,0,,,45,52
84180,note_on,60,0,0,,,,,,,,0,,,45,0
84180,note_on,0,0,0,,,,,,,,0,,,33,0
84240,note_on,60,0,0,,,,,,,,0,,,34,45
84240,note_on,0,0,0,,,,,,,,0,,,46,52
84300,note_on,60,0,0,,,,,,,,0,,,46,0
84300,note_on,0,0,0,,,,,,,,0,,,34,0
84360,note_on,60,0,0,,,,,,,,0,,,38,46
84360,note_on,0,0,0,,,,,,,,0,,,50,53
84420,note_on,60,0,0,,,,,,,,0,,,50,0
84420,note_on,0,0,0,,,,,,,,0,,,38,0
84480,set_tempo,60,1,0,,,,,,562430,,,,,,
84480,note_on,0,0,0,,,,,,,,0,,,41,49
84480,note_on,0,0,0,,,,,,,,0,,,53,55
84540,note_on,60,0,0,,,,,,,,0,,,53,0
84540,note_on,0,0,0,,,,,,,,0,,,41,0
84600,set_tempo,60,1,0,,,,,,568020,,,,,,
84600,note_on,0,0,0,,,,,,,,0,,,46,51
84600,note_on,0,0,0,,,,,,,,0,,,58,57
84660,note_on,60,0,0,,,,,,,,0,,,58,0
84660,note_on,0,0,0,,,,,,,,0,,,46,0
84720,set_tempo,60,1,0,,,,,,576535,,,,,,
84720,note_on,0,0,0,,,,,,,,0,,,50,51
84720,note_on,0,0,0,,,,,,,,0,,,62,57
84780,set_tempo,60,1,0,,,,,,579486,,,,,,
84780,note_on,0,0,0,,,,,,,,0,,,62,0
84780,note_on,0,0,0,,,,,,,,0,,,50,0
84840,set_tempo,60,1,0,,,,,,582411,,,,,,
84840,note_on,0,0,0,,,,,,,,0,,,53,52
84840,note_on,0,0,0,,,,,,,,0,,,65,58
84900,set_tempo,60,1,0,,,,,,585366,,,,,,
84900,note_on,0,0,0,,,,,,,,0,,,65,0
84900,note_on,0,0,0,,,,,,,,0,,,53,0
84940,set_tempo,40,1,0,,,,,,588408,,,,,,
84941,set_tempo,1,1,0,,,,,,548948,,,,,,
84960,set_tempo,19,1,0,,,,,,568720,,,,,,
84960,note_on,0,0,0,,,,,,,,0,,,68,60
84960,note_on,0,0,0,,,,,,,,0,,,56,54
85020,note_on,60,0,0,,,,,,,,0,,,56,0
85020,note_on,0,0,0,,,,,,,,0,,,68,0
85080,set_tempo,60,1,0,,,,,,591133,,,,,,
85080,note_on,0,0,0,,,,,,,,0,,,53,51
85080,note_on,0,0,0,,,,,,,,0,,,65,57
85140,note_on,60,0,0,,,,,,,,0,,,65,0
85140,note_on,0,0,0,,,,,,,,0,,,53,0
85200,set_tempo,60,1,0,,,,,,645161,,,,,,
85200,note_on,0,0,0,,,,,,,,0,,,50,44
85200,note_on,0,0,0,,,,,,,,0,,,62,49
85320,note_on,120,0,0,,,,,,,,0,,,62,0
85320,note_on,0,0,0,,,,,,,,0,,,50,0
85440,set_tempo,120,1,0,,,,,,588408,,,,,,
85440,note_on,0,0,0,,,,,,,,0,,,58,45
85440,note_on,0,0,0,,,,,,,,0,,,70,52
85680,note_on,240,0,0,,,,,,,,0,,,62,45
85680,note_on,0,0,0,,,,,,,,0,,,65,45
85680,note_on,0,0,0,,,,,,,,0,,,68,45
85800,set_tempo,120,1,0,,,,,,565185,,,,,,
85800,note_on,0,0,0,,,,,,,,0,,,70,0
85800,note_on,0,0,0,,,,,,,,0,,,58,0
85800,note_on,0,0,0,,,,,,,,0,,,58,41
85800,note_on,0,0,0,,,,,,,,0,,,70,45
85890,note_on,90,0,0,,,,,,,,0,,,70,0
85890,note_on,0,0,0,,,,,,,,0,,,58,0
85920,note_on,30,0,0,,,,,,,,0,,,68,0
85920,note_on,0,0,0,,,,,,,,0,,,62,0
85920,note_on,0,0,0,,,,,,,,0,,,65,0
85920,note_on,0,0,0,,,,,,,,0,,,58,43
85920,note_on,0,0,0,,,,,,,,0,,,70,48
85980,note_on,60,0,0,,,,,,,,0,,,70,0
85980,note_on,0,0,0,,,,,,,,0,,,58,0
86040,set_tempo,60,1,0,,,,,,548948,,,,,,
86040,note_on,0,0,0,,,,,,,,0,,,57,45
86040,note_on,0,0,0,,,,,,,,0,,,69,50
86100,note_on,60,0,0,,,,,,,,0,,,69,0
86100,note_on,0,0,0,,,,,,,,0,,,57,0
86160,note_on,60,0,0,,,,,,,,0,,,58,45
86160,note_on,0,0,0,,,,,,,,0,,,70,51
86220,note_on,60,0,0,,,,,,,,0,,,70,0
86220,note_on,0,0,0,,,,,,,,0,,,58,0
86280,note_on,60,0,0,,,,,,,,0,,,62,45
86280,note_on,0,0,0,,,,,,,,0,,,74,51
86340,note_on,60,0,0,,,,,,,,0,,,74,0
86340,note_on,0,0,0,,,,,,,,0,,,62,0
86400,set_tempo,60,1,0,,,,,,562430,,,,,,
86400,note_on,0,0,0,,,,,,,,0,,,65,46
86400,note_on,0,0,0,,,,,,,,0,,,77,53
86460,note_on,60,0,0,,,,,,,,0,,,77,0
86460,note_on,0,0,0,,,,,,,,0,,,65,0
86520,set_tempo,60,1,0,,,,,,568020,,,,,,
86520,note_on,0,0,0,,,,,,,,0,,,70,49
86520,note_on,0,0,0,,,,,,,,0,,,82,55
86580,note_on,60,0,0,,,,,,,,0,,,82,0
86580,note_on,0,0,0,,,,,,,,0,,,70,0
86640,set_tempo,60,1,0,,,,,,576535,,,,,,
86640,note_on,0,0,0,,,,,,,,0,,,74,49
86640,note_on,0,0,0,,,,,,,,0,,,86,55
86700,set_tempo,60,1,0,,,,,,579486,,,,,,
86700,note_on,0,0,0,,,,,,,,0,,,86,0
86700,note_on,0,0,0,,,,,,,,0,,,74,0
86760,set_tempo,60,1,0,,,,,,582411,,,,,,
86760,note_on,0,0,0,,,,,,,,0,,,77,50
86760,note_on,0,0,0,,,,,,,,0,,,89,56
86820,set_tempo,60,1,0,,,,,,585366,,,,,,
86820,note_on,0,0,0,,,,,,,,0,,,89,0
86820,note_on,0,0,0,,,,,,,,0,,,77,0
86860,set_tempo,40,1,0,,,,,,588408,,,,,,
86861,set_tempo,1,1,0,,,,,,548948,,,,,,
86880,set_tempo,19,1,0,,,,,,555556,,,,,,
86880,note_on,0,0,0,,,,,,,,0,,,92,58
86880,note_on,0,0,0,,,,,,,,0,,,80,52
86940,note_on,60,0,0,,,,,,,,0,,,80,0
86940,note_on,0,0,0,,,,,,,,0,,,92,0
87000,set_tempo,60,1,0,,,,,,591133,,,,,,
87000,note_on,0,0,0,,,,,,,,0,,,77,49
87000,note_on,0,0,0,,,,,,,,0,,,89,55
87060,note_on,60,0,0,,,,,,,,0,,,89,0
87060,note_on,0,0,0,,,,,,,,0,,,77,0
87120,set_tempo,60,1,0,,,,,,634921,,,,,,
87120,note_on,0,0,0,,,,,,,,0,,,74,42
87120,note_on,0,0,0,,,,,,,,0,,,86,46
87180,note_on,60,0,0,,,,,,,,0,,,68,38
87240,note_on,60,0,0,,,,,,,,0,,,68,0
87240,note_on,0,0,0,,,,,,,,0,,,86,0
87240,note_on,0,0,0,,,,,,,,0,,,74,0
87240,note_on,0,0,0,,,,,,,,0,,,62,39
87300,note_on,60,0,0,,,,,,,,0,,,62,0
87300,note_on,0,0,0,,,,,,,,0,,,53,42
87360,set_tempo,60,1,0,,,,,,588235,,,,,,
87360,note_on,0,0,0,,,,,,,,0,,,53,0
87360,note_on,0,0,0,,,,,,,,0,,,46,44
87600,note_on,240,0,0,,,,,,,,0,,,46,0
87840,set_tempo,240,1,0,,,,,,555556,,,,,,
87840,note_on,0,0,0,,,,,,,,0,,,92,48
87840,note_on,0,0,0,,,,,,,,0,,,80,43
87900,note_on,60,0,0,,,,,,,,0,,,80,0
87900,note_on,0,0,0,,,,,,,,0,,,92,0
87960,set_tempo,60,1,0,,,,,,591133,,,,,,
87960,note_on,0,0,0,,,,,,,,0,,,77,38
87960,note_on,0,0,0,,,,,,,,0,,,89,44
88020,note_on,60,0,0,,,,,,,,0,,,89,0
88020,note_on,0,0,0,,,,,,,,0,,,77,0
88080,set_tempo,60,1,0,,,,,,634921,,,,,,
88080,note_on,0,0,0,,,,,,,,0,,,71,35
88080,note_on,0,0,0,,,,,,,,0,,,83,38
88140,note_on,60,0,0,,,,,,,,0,,,56,35
88200,note_on,60,0,0,,,,,,,,0,,,56,0
88200,note_on,0,0,0,,,,,,,,0,,,83,0
88200,note_on,0,0,0,,,,,,,,0,,,71,0
88200,note_on,0,0,0,,,,,,,,0,,,53,36
88260,note_on,60,0,0,,,,,,,,0,,,53,0
88260,note_on,0,0,0,,,,,,,,0,,,47,38
88320,set_tempo,60,1,0,,,,,,588235,,,,,,
88320,note_on,0,0,0,,,,,,,,0,,,47,0
88320,note_on,0,0,0,,,,,,,,0,,,39,39
88560,note_on,240,0,0,,,,,,,,0,,,39,0
88800,set_tempo,240,1,0,,,,,,552995,,,,,,
88800,note_on,0,0,0,,,,,,,,0,,,92,36
88860,note_on,60,0,0,,,,,,,,0,,,92,0
88860,note_on,0,0,0,,,,,,,,0,,,89,36
88920,note_on,60,0,0,,,,,,,,0,,,89,0
88920,note_on,0,0,0,,,,,,,,0,,,83,36
88980,note_on,60,0,0,,,,,,,,0,,,83,0
88980,note_on,0,0,0,,,,,,,,0,,,82,36
89040,note_on,60,0,0,,,,,,,,0,,,82,0
89040,note_on,0,0,0,,,,,,,,0,,,80,36
89100,note_on,60,0,0,,,,,,,,0,,,80,0
89100,note_on,0,0,0,,,,,,,,0,,,77,36
89160,note_on,60,0,0,,,,,,,,0,,,77,0
89160,note_on,0,0,0,,,,,,,,0,,,71,36
89220,note_on,60,0,0,,,,,,,,0,,,71,0
89220,note_on,0,0,0,,,,,,,,0,,,70,36
89280,note_on,60,0,0,,,,,,,,0,,,70,0
89280,note_on,0,0,0,,,,,,,,0,,,68,36
89340,note_on,60,0,0,,,,,,,,0,,,68,0
89340,note_on,0,0,0,,,,,,,,0,,,65,36
89400,note_on,60,0,0,,,,,,,,0,,,65,0
89400,note_on,0,0,0,,,,,,,,0,,,59,36
89460,note_on,60,0,0,,,,,,,,0,,,59,0
89460,note_on,0,0,0,,,,,,,,0,,,58,36
89520,set_tempo,60,1,0,,,,,,552995,,,,,,
89520,note_on,0,0,0,,,,,,,,0,,,58,0
89520,note_on,0,0,0,,,,,,,,0,,,56,36
89580,set_tempo,60,1,0,,,,,,555556,,,,,,
89580,note_on,0,0,0,,,,,,,,0,,,56,0
89580,note_on,0,0,0,,,,,,,,0,,,53,36
89620,set_tempo,40,1,0,,,,,,558140,,,,,,
89640,note_on,20,0,0,,,,,,,,0,,,53,0
89640,note_on,0,0,0,,,,,,,,0,,,47,36
89680,set_tempo,40,1,0,,,,,,560748,,,,,,
89700,note_on,20,0,0,,,,,,,,0,,,47,0
89700,note_on,0,0,0,,,,,,,,0,,,46,36
89720,set_tempo,20,1,0,,,,,,563380,,,,,,
89760,set_tempo,40,1,0,,,,,,628272,,,,,,
89760,note_on,0,0,0,,,,,,,,0,,,46,0
89760,note_on,0,0,0,,,,,,,,0,,,38,36
89880,note_on,120,0,0,,,,,,,,0,,,38,0
90120,set_tempo,240,1,0,,,,,,1153846,,,,,,
90163,control_change,43,0,0,,,,,,,,0,64,127,,
90170,note_on,7,0,0,,,,,,,,0,,,62,31
90180,note_on,10,0,0,,,,,,,,0,,,69,32
90190,note_on,10,0,0,,,,,,,,0,,,72,33
90200,note_on,10,0,0,,,,,,,,0,,,78,35
90210,note_on,10,0,0,,,,,,,,0,,,81,36
90220,note_on,10,0,0,,,,,,,,0,,,84,36
90230,note_on,10,0,0,,,,,,,,0,,,90,37
90240,set_tempo,10,1,0,,,,,,689655,,,,,,
90240,note_on,0,0,0,,,,,,,,0,,,93,38
90249,control_change,9,0,0,,,,,,,,0,64,0,,
90480,note_on,231,0,0,,,,,,,,0,,,93,0
90480,note_on,0,0,0,,,,,,,,0,,,62,0
90480,note_on,0,0,0,,,,,,,,0,,,81,0
90480,note_on,0,0,0,,,,,,,,0,,,69,0
90480,note_on,0,0,0,,,,,,,,0,,,72,0
90480,note_on,0,0,0,,,,,,,,0,,,78,0
90480,note_on,0,0,0,,,,,,,,0,,,84,0
90480,note_on,0,0,0,,,,,,,,0,,,90,0
90600,set_tempo,120,1,0,,,,,,1518987,,,,,,
90660,note_on,60,0,0,,,,,,,,0,,,58,32
90663,control_change,3,0,0,,,,,,,,0,64,127,,
90670,note_on,7,0,0,,,,,,,,0,,,65,33
90680,note_on,10,0,0,,,,,,,,0,,,68,35
90690,note_on,10,0,0,,,,,,,,0,,,74,36
90700,note_on,10,0,0,,,,,,,,0,,,80,36
90710,note_on,10,0,0,,,,,,,,0,,,86,37
90720,set_tempo,10,1,0,,,,,,670391,,,,,,
90720,note_on,0,0,0,,,,,,,,0,,,94,38
90767,control_change,47,0,0,,,,,,,,0,64,0,,
90960,note_on,193,0,0,,,,,,,,0,,,94,0
90960,note_on,0,0,0,,,,,,,,0,,,80,0
90960,note_on,0,0,0,,,,,,,,0,,,65,0
90960,note_on,0,0,0,,,,,,,,0,,,68,0
90960,note_on,0,0,0,,,,,,,,0,,,58,0
90960,note_on,0,0,0,,,,,,,,0,,,86,0
90960,note_on,0,0,0,,,,,,,,0,,,74,0
91140,note_on,180,0,0,,,,,,,,0,,,58,30
91163,control_change,23,0,0,,,,,,,,0,64,127,,
91174,set_tempo,11,1,0,,,,,,785958,,,,,,
91200,set_tempo,26,1,0,,,,,,837404,,,,,,
91200,note_on,0,0,0,,,,,,,,0,,,58,0
91200,note_on,0,0,0,,,,,,,,0,,,58,32
91224,set_tempo,24,1,0,,,,,,832524,,,,,,
91240,note_on,16,0,0,,,,,,,,0,,,59,31
91252,set_tempo,12,1,0,,,,,,822820,,,,,,
91260,note_on,8,0,0,,,,,,,,0,,,58,0
91264,set_tempo,4,1,0,,,,,,813229,,,,,,
91280,set_tempo,16,1,0,,,,,,808516,,,,,,
91280,note_on,0,0,0,,,,,,,,0,,,58,33
91292,set_tempo,12,1,0,,,,,,799361,,,,,,
91300,note_on,8,0,0,,,,,,,,0,,,59,0
91304,set_tempo,4,1,0,,,,,,790306,,,,,,
91320,set_tempo,16,1,0,,,,,,785958,,,,,,
91320,note_on,0,0,0,,,,,,,,0,,,59,31
91332,set_tempo,12,1,0,,,,,,863185,,,,,,
91340,note_on,8,0,0,,,,,,,,0,,,58,0
91360,note_on,20,0,0,,,,,,,,0,,,58,33
91372,set_tempo,12,1,0,,,,,,808516,,,,,,
91380,note_on,8,0,0,,,,,,,,0,,,59,0
91384,set_tempo,4,1,0,,,,,,799361,,,,,,
91400,set_tempo,16,1,0,,,,,,785958,,,,,,
91400,note_on,0,0,0,,,,,,,,0,,,59,32
91420,note_on,20,0,0,,,,,,,,0,,,58,0
91440,note_on,20,0,0,,,,,,,,0,,,58,35
91460,note_on,20,0,0,,,,,,,,0,,,59,0
91464,set_tempo,4,1,0,,,,,,803859,,,,,,
91480,set_tempo,16,1,0,,,,,,817996,,,,,,
91480,note_on,0,0,0,,,,,,,,0,,,59,32
91500,note_on,20,0,0,,,,,,,,0,,,58,0
91520,note_on,20,0,0,,,,,,,,0,,,58,35
91540,note_on,20,0,0,,,,,,,,0,,,59,0
91560,note_on,20,0,0,,,,,,,,0,,,59,32
91580,note_on,20,0,0,,,,,,,,0,,,58,0
91600,set_tempo,20,1,0,,,,,,813229,,,,,,
91600,note_on,0,0,0,,,,,,,,0,,,58,36
91612,set_tempo,12,1,0,,,,,,794807,,,,,,
91620,note_on,8,0,0,,,,,,,,0,,,59,0
91624,set_tempo,4,1,0,,,,,,790306,,,,,,
91640,note_on,16,0,0,,,,,,,,0,,,59,33
91652,set_tempo,12,1,0,,,,,,785958,,,,,,
91660,note_on,8,0,0,,,,,,,,0,,,58,0
91664,set_tempo,4,1,0,,,,,,781555,,,,,,
91680,set_tempo,16,1,0,,,,,,777403,,,,,,
91680,note_on,0,0,0,,,,,,,,0,,,58,36
91692,set_tempo,12,1,0,,,,,,772997,,,,,,
91700,note_on,8,0,0,,,,,,,,0,,,59,0
91704,set_tempo,4,1,0,,,,,,764623,,,,,,
91720,note_on,16,0,0,,,,,,,,0,,,59,33
91732,set_tempo,12,1,0,,,,,,756430,,,,,,
91740,note_on,8,0,0,,,,,,,,0,,,58,0
91744,set_tempo,4,1,0,,,,,,752351,,,,,,
91760,set_tempo,16,1,0,,,,,,740375,,,,,,
91760,note_on,0,0,0,,,,,,,,0,,,58,36
91772,set_tempo,12,1,0,,,,,,736558,,,,,,
91780,note_on,8,0,0,,,,,,,,0,,,59,0
91800,note_on,20,0,0,,,,,,,,0,,,59,33
91812,set_tempo,12,1,0,,,,,,740375,,,,,,
91820,note_on,8,0,0,,,,,,,,0,,,58,0
91824,set_tempo,4,1,0,,,,,,744417,,,,,,
91840,set_tempo,16,1,0,,,,,,764623,,,,,,
91840,note_on,0,0,0,,,,,,,,0,,,58,36
91860,note_on,20,0,0,,,,,,,,0,,,59,0
91880,note_on,20,0,0,,,,,,,,0,,,59,32
91900,note_on,20,0,0,,,,,,,,0,,,58,0
91920,set_tempo,20,1,0,,,,,,756430,,,,,,
91920,note_on,0,0,0,,,,,,,,0,,,58,36
91932,set_tempo,12,1,0,,,,,,744417,,,,,,
91940,note_on,8,0,0,,,,,,,,0,,,59,0
91944,set_tempo,4,1,0,,,,,,736558,,,,,,
91950,note_on,6,0,0,,,,,,,,0,,,59,32
91960,set_tempo,10,1,0,,,,,,732690,,,,,,
91965,note_on,5,0,0,,,,,,,,0,,,58,0
91972,set_tempo,7,1,0,,,,,,725163,,,,,,
91980,note_on,8,0,0,,,,,,,,0,,,58,35
91984,set_tempo,4,1,0,,,,,,721414,,,,,,
91995,note_on,11,0,0,,,,,,,,0,,,59,0
92000,set_tempo,5,1,0,,,,,,717789,,,,,,
92012,set_tempo,12,1,0,,,,,,714116,,,,,,
92024,set_tempo,12,1,0,,,,,,710564,,,,,,
92040,set_tempo,16,1,0,,,,,,706964,,,,,,
92040,note_on,0,0,0,,,,,,,,0,,,58,0
92040,note_on,0,0,0,,,,,,,,0,,,57,32
92048,control_change,8,0,0,,,,,,,,0,64,0,,
92052,set_tempo,4,1,0,,,,,,760456,,,,,,
92064,set_tempo,12,1,0,,,,,,777403,,,,,,
92080,set_tempo,16,1,0,,,,,,790306,,,,,,
92100,note_on,20,0,0,,,,,,,,0,,,58,32
92120,note_on,20,0,0,,,,,,,,0,,,57,0
92160,set_tempo,40,1,0,,,,,,774693,,,,,,
92160,note_on,0,0,0,,,,,,,,0,,,58,0
92160,note_on,0,0,0,,,,,,,,0,,,59,36
92168,set_tempo,8,1,0,,,,,,770812,,,,,,
92180,set_tempo,12,1,0,,,,,,767067,,,,,,
92188,set_tempo,8,1,0,,,,,,759590,,,,,,
92193,control_change,5,0,0,,,,,,,,0,64,127,,
92200,note_on,7,0,0,,,,,,,,0,,,60,35
92208,set_tempo,8,1,0,,,,,,755953,,,,,,
92220,set_tempo,12,1,0,,,,,,752351,,,,,,
92220,note_on,0,0,0,,,,,,,,0,,,59,0
92228,set_tempo,8,1,0,,,,,,745156,,,,,,
92240,note_on,12,0,0,,,,,,,,0,,,59,36
92260,note_on,20,0,0,,,,,,,,0,,,60,0
92268,set_tempo,8,1,0,,,,,,763456,,,,,,
92280,set_tempo,12,1,0,,,,,,768836,,,,,,
92280,note_on,0,0,0,,,,,,,,0,,,60,35
92292,set_tempo,12,1,0,,,,,,764623,,,,,,
92300,note_on,8,0,0,,,,,,,,0,,,59,0
92304,set_tempo,4,1,0,,,,,,756430,,,,,,
92320,set_tempo,16,1,0,,,,,,748410,,,,,,
92320,note_on,0,0,0,,,,,,,,0,,,59,36
92332,set_tempo,12,1,0,,,,,,740375,,,,,,
92340,note_on,8,0,0,,,,,,,,0,,,60,0
92344,set_tempo,4,1,0,,,,,,728952,,,,,,
92360,set_tempo,16,1,0,,,,,,721414,,,,,,
92360,note_on,0,0,0,,,,,,,,0,,,60,35
92372,set_tempo,12,1,0,,,,,,714116,,,,,,
92380,note_on,8,0,0,,,,,,,,0,,,59,0
92384,set_tempo,4,1,0,,,,,,710564,,,,,,
92400,note_on,16,0,0,,,,,,,,0,,,59,36
92420,note_on,20,0,0,,,,,,,,0,,,60,0
92430,note_on,10,0,0,,,,,,,,0,,,60,35
92445,note_on,15,0,0,,,,,,,,0,,,59,0
92460,note_on,15,0,0,,,,,,,,0,,,59,37
92464,set_tempo,4,1,0,,,,,,728952,,,,,,
92475,note_on,11,0,0,,,,,,,,0,,,60,0
92480,set_tempo,5,1,0,,,,,,744417,,,,,,
92504,set_tempo,24,1,0,,,,,,748410,,,,,,
92520,note_on,16,0,0,,,,,,,,0,,,59,0
92520,note_on,0,0,0,,,,,,,,0,,,58,36
92532,set_tempo,12,1,0,,,,,,764623,,,,,,
92544,set_tempo,12,1,0,,,,,,817996,,,,,,
92580,note_on,36,0,0,,,,,,,,0,,,59,36
92600,note_on,20,0,0,,,,,,,,0,,,58,0
92612,set_tempo,12,1,0,,,,,,803859,,,,,,
92640,time_signature,28,1,0,5,4,24,8,,,,,,,,
92640,set_tempo,0,1,0,,,,,,772997,,,,,,
92640,note_on,0,0,0,,,,,,,,0,,,59,0
92640,note_on,0,0,0,,,,,,,,0,,,60,39
92640,control_change,0,0,0,,,,,,,,0,64,0,,
92652,set_tempo,12,1,0,,,,,,764623,,,,,,
92677,control_change,25,0,0,,,,,,,,0,64,127,,
92680,set_tempo,3,1,0,,,,,,756430,,,,,,
92680,note_on,0,0,0,,,,,,,,0,,,61,36
92692,set_tempo,12,1,0,,,,,,752351,,,,,,
92700,note_on,8,0,0,,,,,,,,0,,,60,0
92704,set_tempo,4,1,0,,,,,,725163,,,,,,
92720,set_tempo,16,1,0,,,,,,721414,,,,,,
92720,note_on,0,0,0,,,,,,,,0,,,60,39
92732,set_tempo,12,1,0,,,,,,717789,,,,,,
92740,note_on,8,0,0,,,,,,,,0,,,61,0
92744,set_tempo,4,1,0,,,,,,714116,,,,,,
92760,set_tempo,16,1,0,,,,,,710564,,,,,,
92760,note_on,0,0,0,,,,,,,,0,,,61,36
92780,note_on,20,0,0,,,,,,,,0,,,60,0
92800,note_on,20,0,0,,,,,,,,0,,,60,39
92812,set_tempo,12,1,0,,,,,,717789,,,,,,
92820,note_on,8,0,0,,,,,,,,0,,,61,0
92824,set_tempo,4,1,0,,,,,,725163,,,,,,
92840,set_tempo,16,1,0,,,,,,744417,,,,,,
92840,note_on,0,0,0,,,,,,,,0,,,61,36
92860,note_on,20,0,0,,,,,,,,0,,,60,0
92880,note_on,20,0,0,,,,,,,,0,,,60,39
92900,note_on,20,0,0,,,,,,,,0,,,61,0
92910,note_on,10,0,0,,,,,,,,0,,,61,36
92920,set_tempo,10,1,0,,,,,,740375,,,,,,
92925,note_on,5,0,0,,,,,,,,0,,,60,0
92932,set_tempo,7,1,0,,,,,,732690,,,,,,
92940,note_on,8,0,0,,,,,,,,0,,,60,41
92944,set_tempo,4,1,0,,,,,,721414,,,,,,
92955,note_on,11,0,0,,,,,,,,0,,,61,0
92960,set_tempo,5,1,0,,,,,,717789,,,,,,
92972,set_tempo,12,1,0,,,,,,703482,,,,,,
92984,set_tempo,12,1,0,,,,,,699953,,,,,,
93000,set_tempo,16,1,0,,,,,,689655,,,,,,
93000,note_on,0,0,0,,,,,,,,0,,,60,0
93000,note_on,0,0,0,,,,,,,,0,,,59,37
93012,set_tempo,12,1,0,,,,,,686342,,,,,,
93024,set_tempo,12,1,0,,,,,,676361,,,,,,
93052,set_tempo,28,1,0,,,,,,781555,,,,,,
93060,note_on,8,0,0,,,,,,,,0,,,60,37
93080,note_on,20,0,0,,,,,,,,0,,,59,0
93092,set_tempo,12,1,0,,,,,,777403,,,,,,
93104,set_tempo,12,1,0,,,,,,768836,,,,,,
93117,control_change,13,0,0,,,,,,,,0,64,0,,
93120,set_tempo,3,1,0,,,,,,764623,,,,,,
93120,note_on,0,0,0,,,,,,,,0,,,60,0
93120,note_on,0,0,0,,,,,,,,0,,,61,41
93132,set_tempo,12,1,0,,,,,,764623,,,,,,
93144,control_change,12,0,0,,,,,,,,0,64,127,,
93144,set_tempo,0,1,0,,,,,,756430,,,,,,
93160,set_tempo,16,1,0,,,,,,748410,,,,,,
93160,note_on,0,0,0,,,,,,,,0,,,62,37
93172,set_tempo,12,1,0,,,,,,717789,,,,,,
93180,note_on,8,0,0,,,,,,,,0,,,61,0
93184,set_tempo,4,1,0,,,,,,710564,,,,,,
93200,set_tempo,16,1,0,,,,,,706964,,,,,,
93200,note_on,0,0,0,,,,,,,,0,,,61,42
93212,set_tempo,12,1,0,,,,,,703482,,,,,,
93220,note_on,8,0,0,,,,,,,,0,,,62,0
93224,set_tempo,4,1,0,,,,,,706964,,,,,,
93240,set_tempo,16,1,0,,,,,,748410,,,,,,
93240,note_on,0,0,0,,,,,,,,0,,,62,37
93252,set_tempo,12,1,0,,,,,,760456,,,,,,
93260,note_on,8,0,0,,,,,,,,0,,,61,0
93280,note_on,20,0,0,,,,,,,,0,,,61,43
93300,note_on,20,0,0,,,,,,,,0,,,62,0
93320,set_tempo,20,1,0,,,,,,756430,,,,,,
93320,note_on,0,0,0,,,,,,,,0,,,62,38
93332,set_tempo,12,1,0,,,,,,714116,,,,,,
93340,note_on,8,0,0,,,,,,,,0,,,61,0
93344,set_tempo,4,1,0,,,,,,710564,,,,,,
93360,set_tempo,16,1,0,,,,,,706964,,,,,,
93360,note_on,0,0,0,,,,,,,,0,,,61,44
93380,note_on,20,0,0,,,,,,,,0,,,62,0
93390,note_on,10,0,0,,,,,,,,0,,,62,39
93400,set_tempo,10,1,0,,,,,,714116,,,,,,
93405,note_on,5,0,0,,,,,,,,0,,,61,0
93412,set_tempo,7,1,0,,,,,,721414,,,,,,
93420,note_on,8,0,0,,,,,,,,0,,,61,44
93424,set_tempo,4,1,0,,,,,,750000,,,,,,
93435,note_on,11,0,0,,,,,,,,0,,,62,0
93450,note_on,15,0,0,,,,,,,,0,,,62,39
93464,set_tempo,14,1,0,,,,,,754717,,,,,,
93465,note_on,1,0,0,,,,,,,,0,,,61,0
93480,note_on,15,0,0,,,,,,,,0,,,61,44
93495,note_on,15,0,0,,,,,,,,0,,,62,0
93504,set_tempo,9,1,0,,,,,,759494,,,,,,
93510,note_on,6,0,0,,,,,,,,0,,,62,41
93525,note_on,15,0,0,,,,,,,,0,,,61,0
93540,note_on,15,0,0,,,,,,,,0,,,61,45
93544,set_tempo,4,1,0,,,,,,764331,,,,,,
93555,note_on,11,0,0,,,,,,,,0,,,62,0
93570,note_on,15,0,0,,,,,,,,0,,,62,41
93572,set_tempo,2,1,0,,,,,,769231,,,,,,
93580,set_tempo,8,1,0,,,,,,782473,,,,,,
93585,note_on,5,0,0,,,,,,,,0,,,61,0
93588,set_tempo,3,1,0,,,,,,752351,,,,,,
93590,set_tempo,2,1,0,,,,,,789474,,,,,,
93600,set_tempo,10,1,0,,,,,,750000,,,,,,
93600,note_on,0,0,0,,,,,,,,0,,,61,45
93615,note_on,15,0,0,,,,,,,,0,,,62,0
93624,set_tempo,9,1,0,,,,,,745342,,,,,,
93640,set_tempo,16,1,0,,,,,,736196,,,,,,
93640,note_on,0,0,0,,,,,,,,0,,,62,41
93652,set_tempo,12,1,0,,,,,,731707,,,,,,
93660,note_on,8,0,0,,,,,,,,0,,,61,0
93664,set_tempo,4,1,0,,,,,,722892,,,,,,
93680,set_tempo,16,1,0,,,,,,714286,,,,,,
93680,note_on,0,0,0,,,,,,,,0,,,61,45
93700,note_on,20,0,0,,,,,,,,0,,,62,0
93704,set_tempo,4,1,0,,,,,,714286,,,,,,
93720,set_tempo,16,1,0,,,,,,718563,,,,,,
93720,note_on,0,0,0,,,,,,,,0,,,62,39
93732,set_tempo,12,1,0,,,,,,727273,,,,,,
93740,note_on,8,0,0,,,,,,,,0,,,61,0
93744,set_tempo,4,1,0,,,,,,736196,,,,,,
93760,set_tempo,16,1,0,,,,,,745342,,,,,,
93760,note_on,0,0,0,,,,,,,,0,,,61,45
93772,set_tempo,12,1,0,,,,,,750000,,,,,,
93780,note_on,8,0,0,,,,,,,,0,,,62,0
93784,set_tempo,4,1,0,,,,,,745342,,,,,,
93800,set_tempo,16,1,0,,,,,,740741,,,,,,
93800,note_on,0,0,0,,,,,,,,0,,,62,39
93812,set_tempo,12,1,0,,,,,,736196,,,,,,
93820,note_on,8,0,0,,,,,,,,0,,,61,0
93824,set_tempo,4,1,0,,,,,,731707,,,,,,
93840,set_tempo,16,1,0,,,,,,727273,,,,,,
93840,note_on,0,0,0,,,,,,,,0,,,61,44
93852,set_tempo,12,1,0,,,,,,722892,,,,,,
93860,note_on,8,0,0,,,,,,,,0,,,62,0
93864,set_tempo,4,1,0,,,,,,718563,,,,,,
93870,note_on,6,0,0,,,,,,,,0,,,62,38
93880,set_tempo,10,1,0,,,,,,718563,,,,,,
93885,note_on,5,0,0,,,,,,,,0,,,61,0
93892,set_tempo,7,1,0,,,,,,714286,,,,,,
93900,note_on,8,0,0,,,,,,,,0,,,61,43
93904,set_tempo,4,1,0,,,,,,710059,,,,,,
93915,note_on,11,0,0,,,,,,,,0,,,62,0
93930,note_on,15,0,0,,,,,,,,0,,,62,37
93945,note_on,15,0,0,,,,,,,,0,,,61,0
93960,note_on,15,0,0,,,,,,,,0,,,61,41
93975,note_on,15,0,0,,,,,,,,0,,,62,0
93990,note_on,15,0,0,,,,,,,,0,,,62,37
94005,note_on,15,0,0,,,,,,,,0,,,61,0
94020,note_on,15,0,0,,,,,,,,0,,,61,41
94024,set_tempo,4,1,0,,,,,,740741,,,,,,
94035,note_on,11,0,0,,,,,,,,0,,,62,0
94040,set_tempo,5,1,0,,,,,,750000,,,,,,
94050,note_on,10,0,0,,,,,,,,0,,,62,36
94052,set_tempo,2,1,0,,,,,,754717,,,,,,
94064,set_tempo,12,1,0,,,,,,764331,,,,,,
94065,note_on,1,0,0,,,,,,,,0,,,61,0
94080,set_tempo,15,1,0,,,,,,769231,,,,,,
94080,note_on,0,0,0,,,,,,,,0,,,61,41
94092,set_tempo,12,1,0,,,,,,789474,,,,,,
94095,note_on,3,0,0,,,,,,,,0,,,62,0
94104,set_tempo,9,1,0,,,,,,794702,,,,,,
94120,note_on,16,0,0,,,,,,,,0,,,62,36
94140,note_on,20,0,0,,,,,,,,0,,,61,0
94160,note_on,20,0,0,,,,,,,,0,,,61,38
94180,note_on,20,0,0,,,,,,,,0,,,62,0
94200,note_on,20,0,0,,,,,,,,0,,,62,35
94220,note_on,20,0,0,,,,,,,,0,,,61,0
94240,set_tempo,20,1,0,,,,,,789474,,,,,,
94240,note_on,0,0,0,,,,,,,,0,,,61,36
94260,note_on,20,0,0,,,,,,,,0,,,62,0
94264,set_tempo,4,1,0,,,,,,784314,,,,,,
94280,set_tempo,16,1,0,,,,,,779221,,,,,,
94280,note_on,0,0,0,,,,,,,,0,,,62,33
94292,set_tempo,12,1,0,,,,,,774194,,,,,,
94300,note_on,8,0,0,,,,,,,,0,,,61,0
94320,set_tempo,20,1,0,,,,,,1061947,,,,,,
94320,note_on,0,0,0,,,,,,,,0,,,61,36
94340,note_on,20,0,0,,,,,,,,0,,,62,0
94350,note_on,10,0,0,,,,,,,,0,,,62,32
94365,note_on,15,0,0,,,,,,,,0,,,61,0
94380,note_on,15,0,0,,,,,,,,0,,,61,33
94395,note_on,15,0,0,,,,,,,,0,,,62,0
94424,set_tempo,29,1,0,,,,,,967742,,,,,,
94440,set_tempo,16,1,0,,,,,,1967213,,,,,,
94440,note_on,0,0,0,,,,,,,,0,,,61,0
94440,note_on,0,0,0,,,,,,,,0,,,60,29
94480,set_tempo,40,1,0,,,,,,2500000,,,,,,
94480,control_change,0,0,0,,,,,,,,0,64,0,,
94500,note_on,20,0,0,,,,,,,,0,,,60,0
94500,note_on,0,0,0,,,,,,,,0,,,61,26
94560,note_on,60,0,0,,,,,,,,0,,,61,0
94560,note_on,0,0,0,,,,,,,,0,,,62,24
94680,note_on,120,0,0,,,,,,,,0,,,62,0
94800,set_tempo,120,1,0,,,,,,857143,,,,,,
95040,time_signature,240,1,0,4,4,24,8,,,,,,,,
95520,set_tempo,480,1,0,,,,,,750000,,,,,,
95520,marker,0,1,0,,,,,,,,,,,,
95520,note_on,0,0,0,,,,,,,,0,,,81,41
95559,note_on,39,0,0,,,,,,,,0,,,81,0
95564,note_on,5,0,0,,,,,,,,0,,,82,36
95603,note_on,39,0,0,,,,,,,,0,,,82,0
95608,note_on,5,0,0,,,,,,,,0,,,87,38
95640,set_tempo,32,1,0,,,,,,710059,,,,,,
95647,note_on,7,0,0,,,,,,,,0,,,87,0
95652,note_on,5,0,0,,,,,,,,0,,,84,36
95691,note_on,39,0,0,,,,,,,,0,,,84,0
95696,note_on,5,0,0,,,,,,,,0,,,82,36
95735,note_on,39,0,0,,,,,,,,0,,,82,0
95740,note_on,5,0,0,,,,,,,,0,,,80,36
95779,note_on,39,0,0,,,,,,,,0,,,80,0
95784,note_on,5,0,0,,,,,,,,0,,,79,33
95823,note_on,39,0,0,,,,,,,,0,,,79,0
95828,note_on,5,0,0,,,,,,,,0,,,77,37
95867,note_on,39,0,0,,,,,,,,0,,,77,0
95872,note_on,5,0,0,,,,,,,,0,,,75,37
95911,note_on,39,0,0,,,,,,,,0,,,75,0
95916,note_on,5,0,0,,,,,,,,0,,,74,36
95955,note_on,39,0,0,,,,,,,,0,,,74,0
95960,note_on,5,0,0,,,,,,,,0,,,72,36
95995,note_on,35,0,0,,,,,,,,0,,,72,0
96000,set_tempo,5,1,0,,,,,,1052632,,,,,,
96000,note_on,0,0,0,,,,,,,,0,,,70,41
96090,note_on,90,0,0,,,,,,,,0,,,70,0
96240,set_tempo,150,1,0,,,,,,1111111,,,,,,
96240,note_on,0,0,0,,,,,,,,0,,,55,27
96240,note_on,0,0,0,,,,,,,,0,,,58,27
96240,note_on,0,0,0,,,,,,,,0,,,63,30
96240,note_on,0,0,0,,,,,,,,0,,,39,27
96240,note_on,0,0,0,,,,,,,,0,,,46,27
96330,note_on,90,0,0,,,,,,,,0,,,46,0
96330,note_on,0,0,0,,,,,,,,0,,,63,0
96330,note_on,0,0,0,,,,,,,,0,,,55,0
96330,note_on,0,0,0,,,,,,,,0,,,58,0
96330,note_on,0,0,0,,,,,,,,0,,,39,0
96480,set_tempo,150,1,0,,,,,,1142857,,,,,,
96480,note_on,0,0,0,,,,,,,,0,,,56,28
96480,note_on,0,0,0,,,,,,,,0,,,58,28
96480,note_on,0,0,0,,,,,,,,0,,,65,32
96480,note_on,0,0,0,,,,,,,,0,,,39,27
96480,note_on,0,0,0,,,,,,,,0,,,46,27
96570,note_on,90,0,0,,,,,,,,0,,,46,0
96570,note_on,0,0,0,,,,,,,,0,,,65,0
96570,note_on,0,0,0,,,,,,,,0,,,56,0
96570,note_on,0,0,0,,,,,,,,0,,,58,0
96570,note_on,0,0,0,,,,,,,,0,,,39,0
96720,set_tempo,150,1,0,,,,,,1200000,,,,,,
96720,note_on,0,0,0,,,,,,,,0,,,57,27
96720,note_on,0,0,0,,,,,,,,0,,,58,27
96720,note_on,0,0,0,,,,,,,,0,,,66,31
96720,note_on,0,0,0,,,,,,,,0,,,39,27
96720,note_on,0,0,0,,,,,,,,0,,,46,27
96810,note_on,90,0,0,,,,,,,,0,,,46,0
96810,note_on,0,0,0,,,,,,,,0,,,66,0
96810,note_on,0,0,0,,,,,,,,0,,,57,0
96810,note_on,0,0,0,,,,,,,,0,,,58,0
96810,note_on,0,0,0,,,,,,,,0,,,39,0
96960,set_tempo,150,1,0,,,,,,1331262,,,,,,
96960,note_on,0,0,0,,,,,,,,0,,,58,29
96960,note_on,0,0,0,,,,,,,,0,,,67,33
96960,note_on,0,0,0,,,,,,,,0,,,39,29
96960,note_on,0,0,0,,,,,,,,0,,,46,29
96961,set_tempo,1,1,0,,,,,,1304348,,,,,,
97009,control_change,48,0,0,,,,,,,,0,64,127,,
97200,note_on,191,0,0,,,,,,,,0,,,67,0
97200,note_on,0,0,0,,,,,,,,0,,,58,0
97200,note_on,0,0,0,,,,,,,,0,,,55,27
97200,note_on,0,0,0,,,,,,,,0,,,63,30
97202,control_change,2,0,0,,,,,,,,0,64,0,,
97320,note_on,118,0,0,,,,,,,,0,,,63,0
97320,note_on,0,0,0,,,,,,,,0,,,55,0
97440,set_tempo,120,1,0,,,,,,851064,,,,,,
97440,note_on,0,0,0,,,,,,,,0,,,39,0
97440,note_on,0,0,0,,,,,,,,0,,,46,0
97440,note_on,0,0,0,,,,,,,,0,,,81,41
97469,note_on,29,0,0,,,,,,,,0,,,81,0
97474,note_on,5,0,0,,,,,,,,0,,,82,36
97503,note_on,29,0,0,,,,,,,,0,,,82,0
97508,note_on,5,0,0,,,,,,,,0,,,91,36
97537,note_on,29,0,0,,,,,,,,0,,,91,0
97540,set_tempo,3,1,0,,,,,,821918,,,,,,
97542,note_on,2,0,0,,,,,,,,0,,,89,36
97571,note_on,29,0,0,,,,,,,,0,,,89,0
97576,note_on,5,0,0,,,,,,,,0,,,87,36
97605,note_on,29,0,0,,,,,,,,0,,,87,0
97610,note_on,5,0,0,,,,,,,,0,,,86,36
97639,note_on,29,0,0,,,,,,,,0,,,86,0
97644,note_on,5,0,0,,,,,,,,0,,,84,36
97673,note_on,29,0,0,,,,,,,,0,,,84,0
97678,note_on,5,0,0,,,,,,,,0,,,82,36
97707,note_on,29,0,0,,,,,,,,0,,,82,0
97712,note_on,5,0,0,,,,,,,,0,,,80,36
97741,note_on,29,0,0,,,,,,,,0,,,80,0
97746,note_on,5,0,0,,,,,,,,0,,,79,33
97775,note_on,29,0,0,,,,,,,,0,,,79,0
97780,note_on,5,0,0,,,,,,,,0,,,77,37
97809,note_on,29,0,0,,,,,,,,0,,,77,0
97814,note_on,5,0,0,,,,,,,,0,,,75,37
97843,note_on,29,0,0,,,,,,,,0,,,75,0
97848,note_on,5,0,0,,,,,,,,0,,,74,36
97877,note_on,29,0,0,,,,,,,,0,,,74,0
97882,note_on,5,0,0,,,,,,,,0,,,72,36
97915,note_on,33,0,0,,,,,,,,0,,,72,0
97920,set_tempo,5,1,0,,,,,,1081081,,,,,,
97920,note_on,0,0,0,,,,,,,,0,,,70,41
98010,note_on,90,0,0,,,,,,,,0,,,70,0
98160,set_tempo,150,1,0,,,,,,1132075,,,,,,
98160,note_on,0,0,0,,,,,,,,0,,,55,26
98160,note_on,0,0,0,,,,,,,,0,,,58,26
98160,note_on,0,0,0,,,,,,,,0,,,63,29
98160,note_on,0,0,0,,,,,,,,0,,,39,27
98160,note_on,0,0,0,,,,,,,,0,,,46,27
98250,note_on,90,0,0,,,,,,,,0,,,46,0
98250,note_on,0,0,0,,,,,,,,0,,,63,0
98250,note_on,0,0,0,,,,,,,,0,,,55,0
98250,note_on,0,0,0,,,,,,,,0,,,58,0
98250,note_on,0,0,0,,,,,,,,0,,,39,0
98400,set_tempo,150,1,0,,,,,,1250000,,,,,,
98400,note_on,0,0,0,,,,,,,,0,,,56,28
98400,note_on,0,0,0,,,,,,,,0,,,62,28
98400,note_on,0,0,0,,,,,,,,0,,,65,32
98400,note_on,0,0,0,,,,,,,,0,,,39,29
98400,note_on,0,0,0,,,,,,,,0,,,46,29
98490,note_on,90,0,0,,,,,,,,0,,,46,0
98490,note_on,0,0,0,,,,,,,,0,,,65,0
98490,note_on,0,0,0,,,,,,,,0,,,56,0
98490,note_on,0,0,0,,,,,,,,0,,,62,0
98490,note_on,0,0,0,,,,,,,,0,,,39,0
98640,set_tempo,150,1,0,,,,,,1411765,,,,,,
98640,note_on,0,0,0,,,,,,,,0,,,58,27
98640,note_on,0,0,0,,,,,,,,0,,,67,30
98640,note_on,0,0,0,,,,,,,,0,,,39,27
98640,note_on,0,0,0,,,,,,,,0,,,46,27
98730,note_on,90,0,0,,,,,,,,0,,,46,0
98730,note_on,0,0,0,,,,,,,,0,,,58,0
98730,note_on,0,0,0,,,,,,,,0,,,67,0
98730,note_on,0,0,0,,,,,,,,0,,,39,0
98880,set_tempo,150,1,0,,,,,,1690141,,,,,,
98880,note_on,0,0,0,,,,,,,,0,,,55,27
98880,note_on,0,0,0,,,,,,,,0,,,63,30
98880,note_on,0,0,0,,,,,,,,0,,,39,27
98880,note_on,0,0,0,,,,,,,,0,,,46,27
99340,note_on,460,0,0,,,,,,,,0,,,46,0
99340,note_on,0,0,0,,,,,,,,0,,,55,0
99340,note_on,0,0,0,,,,,,,,0,,,63,0
99340,note_on,0,0,0,,,,,,,,0,,,39,0
99360,set_tempo,20,1,0,,,,,,960000,,,,,,
99360,note_on,0,0,0,,,,,,,,0,,,93,41
99390,note_on,30,0,0,,,,,,,,0,,,93,0
99392,note_on,2,0,0,,,,,,,,0,,,94,36
99422,note_on,30,0,0,,,,,,,,0,,,94,0
99424,note_on,2,0,0,,,,,,,,0,,,99,38
99448,note_on,24,0,0,,,,,,,,0,,,99,0
99450,note_on,2,0,0,,,,,,,,0,,,96,36
99474,note_on,24,0,0,,,,,,,,0,,,96,0
99476,note_on,2,0,0,,,,,,,,0,,,94,36
99500,note_on,24,0,0,,,,,,,,0,,,94,0
99502,note_on,2,0,0,,,,,,,,0,,,92,36
99526,note_on,24,0,0,,,,,,,,0,,,92,0
99528,note_on,2,0,0,,,,,,,,0,,,91,33
99552,note_on,24,0,0,,,,,,,,0,,,91,0
99554,note_on,2,0,0,,,,,,,,0,,,89,37
99578,note_on,24,0,0,,,,,,,,0,,,89,0
99580,note_on,2,0,0,,,,,,,,0,,,87,37
99604,note_on,24,0,0,,,,,,,,0,,,87,0
99606,note_on,2,0,0,,,,,,,,0,,,86,36
99630,note_on,24,0,0,,,,,,,,0,,,86,0
99632,note_on,2,0,0,,,,,,,,0,,,84,36
99656,note_on,24,0,0,,,,,,,,0,,,84,0
99658,note_on,2,0,0,,,,,,,,0,,,82,36
99682,note_on,24,0,0,,,,,,,,0,,,82,0
99684,note_on,2,0,0,,,,,,,,0,,,80,36
99708,note_on,24,0,0,,,,,,,,0,,,80,0
99710,note_on,2,0,0,,,,,,,,0,,,79,36
99734,note_on,24,0,0,,,,,,,,0,,,79,0
99736,note_on,2,0,0,,,,,,,,0,,,77,36
99760,note_on,24,0,0,,,,,,,,0,,,77,0
99762,note_on,2,0,0,,,,,,,,0,,,75,36
99786,note_on,24,0,0,,,,,,,,0,,,75,0
99788,note_on,2,0,0,,,,,,,,0,,,74,36
99812,note_on,24,0,0,,,,,,,,0,,,74,0
99816,note_on,4,0,0,,,,,,,,0,,,72,36
99840,set_tempo,24,1,0,,,,,,1061947,,,,,,
99840,note_on,0,0,0,,,,,,,,0,,,72,0
99840,note_on,0,0,0,,,,,,,,0,,,70,41
99930,note_on,90,0,0,,,,,,,,0,,,70,0
100060,set_tempo,130,1,0,,,,,,1153846,,,,,,
100080,set_tempo,20,1,0,,,,,,1111111,,,,,,
100080,note_on,0,0,0,,,,,,,,0,,,55,29
100080,note_on,0,0,0,,,,,,,,0,,,58,29
100080,note_on,0,0,0,,,,,,,,0,,,63,33
100080,note_on,0,0,0,,,,,,,,0,,,39,29
100080,note_on,0,0,0,,,,,,,,0,,,46,29
100170,note_on,90,0,0,,,,,,,,0,,,46,0
100170,note_on,0,0,0,,,,,,,,0,,,63,0
100170,note_on,0,0,0,,,,,,,,0,,,55,0
100170,note_on,0,0,0,,,,,,,,0,,,58,0
100170,note_on,0,0,0,,,,,,,,0,,,39,0
100320,set_tempo,150,1,0,,,,,,1153846,,,,,,
100320,note_on,0,0,0,,,,,,,,0,,,56,31
100320,note_on,0,0,0,,,,,,,,0,,,58,31
100320,note_on,0,0,0,,,,,,,,0,,,65,36
100320,note_on,0,0,0,,,,,,,,0,,,39,32
100320,note_on,0,0,0,,,,,,,,0,,,46,32
100410,note_on,90,0,0,,,,,,,,0,,,46,0
100410,note_on,0,0,0,,,,,,,,0,,,65,0
100410,note_on,0,0,0,,,,,,,,0,,,56,0
100410,note_on,0,0,0,,,,,,,,0,,,58,0
100410,note_on,0,0,0,,,,,,,,0,,,39,0
100560,set_tempo,150,1,0,,,,,,1263158,,,,,,
100560,note_on,0,0,0,,,,,,,,0,,,57,30
100560,note_on,0,0,0,,,,,,,,0,,,58,30
100560,note_on,0,0,0,,,,,,,,0,,,66,35
100560,note_on,0,0,0,,,,,,,,0,,,39,30
100560,note_on,0,0,0,,,,,,,,0,,,46,30
100650,note_on,90,0,0,,,,,,,,0,,,46,0
100650,note_on,0,0,0,,,,,,,,0,,,66,0
100650,note_on,0,0,0,,,,,,,,0,,,57,0
100650,note_on,0,0,0,,,,,,,,0,,,58,0
100650,note_on,0,0,0,,,,,,,,0,,,39,0
100800,set_tempo,150,1,0,,,,,,1395349,,,,,,
100800,note_on,0,0,0,,,,,,,,0,,,58,32
100800,note_on,0,0,0,,,,,,,,0,,,67,36
100800,note_on,0,0,0,,,,,,,,0,,,39,32
100800,note_on,0,0,0,,,,,,,,0,,,46,32
100851,control_change,51,0,0,,,,,,,,0,64,127,,
101040,set_tempo,189,1,0,,,,,,1690141,,,,,,
101040,note_on,0,0,0,,,,,,,,0,,,67,0
101040,note_on,0,0,0,,,,,,,,0,,,58,0
101040,note_on,0,0,0,,,,,,,,0,,,55,29
101040,note_on,0,0,0,,,,,,,,0,,,63,33
101056,control_change,16,0,0,,,,,,,,0,64,0,,
101160,note_on,104,0,0,,,,,,,,0,,,63,0
101160,note_on,0,0,0,,,,,,,,0,,,55,0
101280,set_tempo,120,1,0,,,,,,1165049,,,,,,
101280,note_on,0,0,0,,,,,,,,0,,,39,0
101280,note_on,0,0,0,,,,,,,,0,,,46,0
101280,note_on,0,0,0,,,,,,,,0,,,93,41
101309,note_on,29,0,0,,,,,,,,0,,,93,0
101311,note_on,2,0,0,,,,,,,,0,,,94,36
101340,note_on,29,0,0,,,,,,,,0,,,94,0
101342,note_on,2,0,0,,,,,,,,0,,,103,36
101360,set_tempo,18,1,0,,,,,,1153846,,,,,,
101362,note_on,2,0,0,,,,,,,,0,,,103,0
101364,note_on,2,0,0,,,,,,,,0,,,101,36
101384,note_on,20,0,0,,,,,,,,0,,,101,0
101386,note_on,2,0,0,,,,,,,,0,,,99,36
101406,note_on,20,0,0,,,,,,,,0,,,99,0
101408,note_on,2,0,0,,,,,,,,0,,,98,36
101428,note_on,20,0,0,,,,,,,,0,,,98,0
101430,note_on,2,0,0,,,,,,,,0,,,96,36
101440,set_tempo,10,1,0,,,,,,1142857,,,,,,
101450,note_on,10,0,0,,,,,,,,0,,,96,0
101452,note_on,2,0,0,,,,,,,,0,,,94,36
101472,note_on,20,0,0,,,,,,,,0,,,94,0
101474,note_on,2,0,0,,,,,,,,0,,,92,36
101494,note_on,20,0,0,,,,,,,,0,,,92,0
101496,note_on,2,0,0,,,,,,,,0,,,91,33
101516,note_on,20,0,0,,,,,,,,0,,,91,0
101518,note_on,2,0,0,,,,,,,,0,,,89,37
101520,set_tempo,2,1,0,,,,,,1132075,,,,,,
101538,note_on,18,0,0,,,,,,,,0,,,89,0
101540,note_on,2,0,0,,,,,,,,0,,,87,37
101560,set_tempo,20,1,0,,,,,,1121495,,,,,,
101560,note_on,0,0,0,,,,,,,,0,,,87,0
101562,note_on,2,0,0,,,,,,,,0,,,86,36
101582,note_on,20,0,0,,,,,,,,0,,,86,0
101584,note_on,2,0,0,,,,,,,,0,,,84,36
101604,note_on,20,0,0,,,,,,,,0,,,84,0
101606,note_on,2,0,0,,,,,,,,0,,,82,36
101620,set_tempo,14,1,0,,,,,,1132075,,,,,,
101626,note_on,6,0,0,,,,,,,,0,,,82,0
101628,note_on,2,0,0,,,,,,,,0,,,80,36
101648,note_on,20,0,0,,,,,,,,0,,,80,0
101650,note_on,2,0,0,,,,,,,,0,,,79,36
101660,set_tempo,10,1,0,,,,,,1142857,,,,,,
101670,note_on,10,0,0,,,,,,,,0,,,79,0
101672,note_on,2,0,0,,,,,,,,0,,,77,36
101692,note_on,20,0,0,,,,,,,,0,,,77,0
101694,note_on,2,0,0,,,,,,,,0,,,75,36
101700,set_tempo,6,1,0,,,,,,1153846,,,,,,
101714,note_on,14,0,0,,,,,,,,0,,,75,0
101716,note_on,2,0,0,,,,,,,,0,,,74,36
101736,note_on,20,0,0,,,,,,,,0,,,74,0
101738,note_on,2,0,0,,,,,,,,0,,,72,36
101740,set_tempo,2,1,0,,,,,,1165049,,,,,,
101758,note_on,18,0,0,,,,,,,,0,,,72,0
101760,set_tempo,2,1,0,,,,,,1081081,,,,,,
101760,note_on,0,0,0,,,,,,,,0,,,70,41
101850,note_on,90,0,0,,,,,,,,0,,,70,0
102000,set_tempo,150,1,0,,,,,,1138088,,,,,,
102000,note_on,0,0,0,,,,,,,,0,,,55,32
102000,note_on,0,0,0,,,,,,,,0,,,58,32
102000,note_on,0,0,0,,,,,,,,0,,,63,36
102000,note_on,0,0,0,,,,,,,,0,,,39,31
102000,note_on,0,0,0,,,,,,,,0,,,46,31
102090,note_on,90,0,0,,,,,,,,0,,,46,0
102090,note_on,0,0,0,,,,,,,,0,,,63,0
102090,note_on,0,0,0,,,,,,,,0,,,55,0
102090,note_on,0,0,0,,,,,,,,0,,,58,0
102090,note_on,0,0,0,,,,,,,,0,,,39,0
102240,set_tempo,150,1,0,,,,,,1304348,,,,,,
102240,note_on,0,0,0,,,,,,,,0,,,56,33
102240,note_on,0,0,0,,,,,,,,0,,,62,33
102240,note_on,0,0,0,,,,,,,,0,,,65,37
102240,note_on,0,0,0,,,,,,,,0,,,39,32
102240,note_on,0,0,0,,,,,,,,0,,,47,32
102330,note_on,90,0,0,,,,,,,,0,,,47,0
102330,note_on,0,0,0,,,,,,,,0,,,65,0
102330,note_on,0,0,0,,,,,,,,0,,,56,0
102330,note_on,0,0,0,,,,,,,,0,,,62,0
102330,note_on,0,0,0,,,,,,,,0,,,39,0
102480,set_tempo,150,1,0,,,,,,1538462,,,,,,
102480,note_on,0,0,0,,,,,,,,0,,,62,32
102480,note_on,0,0,0,,,,,,,,0,,,56,32
102480,note_on,0,0,0,,,,,,,,0,,,67,36
102480,note_on,0,0,0,,,,,,,,0,,,39,31
102480,note_on,0,0,0,,,,,,,,0,,,46,31
102570,note_on,90,0,0,,,,,,,,0,,,46,0
102570,note_on,0,0,0,,,,,,,,0,,,67,0
102570,note_on,0,0,0,,,,,,,,0,,,62,0
102570,note_on,0,0,0,,,,,,,,0,,,56,0
102570,note_on,0,0,0,,,,,,,,0,,,39,0
102720,set_tempo,150,1,0,,,,,,1666667,,,,,,
102720,note_on,0,0,0,,,,,,,,0,,,55,30
102720,note_on,0,0,0,,,,,,,,0,,,63,35
102720,note_on,0,0,0,,,,,,,,0,,,51,29
102720,note_on,0,0,0,,,,,,,,0,,,39,29
102720,note_on,0,0,0,,,,,,,,0,,,46,29
103180,note_on,460,0,0,,,,,,,,0,,,46,0
103180,note_on,0,0,0,,,,,,,,0,,,51,0
103180,note_on,0,0,0,,,,,,,,0,,,55,0
103180,note_on,0,0,0,,,,,,,,0,,,63,0
103180,note_on,0,0,0,,,,,,,,0,,,39,0
103200,set_tempo,20,1,0,,,,,,774194,,,,,,
103200,note_on,0,0,0,,,,,,,,0,,,46,53
103229,control_change,29,0,0,,,,,,,,0,64,127,,
103239,note_on,10,0,0,,,,,,,,0,,,46,0
103240,note_on,1,0,0,,,,,,,,0,,,45,53
103279,note_on,39,0,0,,,,,,,,0,,,45,0
103280,set_tempo,1,1,0,,,,,,769231,,,,,,
103280,note_on,0,0,0,,,,,,,,0,,,44,53
103319,note_on,39,0,0,,,,,,,,0,,,44,0
103320,note_on,1,0,0,,,,,,,,0,,,43,53
103359,note_on,39,0,0,,,,,,,,0,,,43,0
103360,set_tempo,1,1,0,,,,,,764331,,,,,,
103360,note_on,0,0,0,,,,,,,,0,,,42,53
103399,note_on,39,0,0,,,,,,,,0,,,42,0
103400,note_on,1,0,0,,,,,,,,0,,,41,53
103439,note_on,39,0,0,,,,,,,,0,,,41,0
103440,set_tempo,1,1,0,,,,,,759494,,,,,,
103440,note_on,0,0,0,,,,,,,,0,,,40,56
103479,note_on,39,0,0,,,,,,,,0,,,40,0
103480,note_on,1,0,0,,,,,,,,0,,,39,58
103519,note_on,39,0,0,,,,,,,,0,,,39,0
103520,set_tempo,1,1,0,,,,,,754717,,,,,,
103520,note_on,0,0,0,,,,,,,,0,,,38,60
103559,note_on,39,0,0,,,,,,,,0,,,38,0
103560,note_on,1,0,0,,,,,,,,0,,,37,63
103599,note_on,39,0,0,,,,,,,,0,,,37,0
103600,set_tempo,1,1,0,,,,,,750000,,,,,,
103600,note_on,0,0,0,,,,,,,,0,,,36,64
103639,note_on,39,0,0,,,,,,,,0,,,36,0
103640,note_on,1,0,0,,,,,,,,0,,,35,66
103660,set_tempo,20,1,0,,,,,,745342,,,,,,
103679,note_on,19,0,0,,,,,,,,0,,,35,0
103680,set_tempo,1,1,0,,,,,,1132075,,,,,,
103680,note_on,0,0,0,,,,,,,,0,,,34,83
103687,control_change,7,0,0,,,,,,,,0,64,0,,
103740,note_on,53,0,0,,,,,,,,0,,,34,0
103920,set_tempo,180,1,0,,,,,,1090909,,,,,,
103920,note_on,0,0,0,,,,,,,,0,,,62,50
103920,note_on,0,0,0,,,,,,,,0,,,58,45
103920,note_on,0,0,0,,,,,,,,0,,,53,41
103920,note_on,0,0,0,,,,,,,,0,,,46,41
104010,note_on,90,0,0,,,,,,,,0,,,46,0
104010,note_on,0,0,0,,,,,,,,0,,,62,0
104010,note_on,0,0,0,,,,,,,,0,,,58,0
104010,note_on,0,0,0,,,,,,,,0,,,53,0
104160,set_tempo,150,1,0,,,,,,1132075,,,,,,
104160,note_on,0,0,0,,,,,,,,0,,,58,50
104160,note_on,0,0,0,,,,,,,,0,,,60,50
104160,note_on,0,0,0,,,,,,,,0,,,63,56
104160,note_on,0,0,0,,,,,,,,0,,,46,45
104160,note_on,0,0,0,,,,,,,,0,,,54,45
104250,note_on,90,0,0,,,,,,,,0,,,54,0
104250,note_on,0,0,0,,,,,,,,0,,,63,0
104250,note_on,0,0,0,,,,,,,,0,,,58,0
104250,note_on,0,0,0,,,,,,,,0,,,60,0
104250,note_on,0,0,0,,,,,,,,0,,,46,0
104400,set_tempo,150,1,0,,,,,,1200000,,,,,,
104400,note_on,0,0,0,,,,,,,,0,,,58,45
104400,note_on,0,0,0,,,,,,,,0,,,61,45
104400,note_on,0,0,0,,,,,,,,0,,,64,51
104400,note_on,0,0,0,,,,,,,,0,,,55,43
104400,note_on,0,0,0,,,,,,,,0,,,46,43
104490,note_on,90,0,0,,,,,,,,0,,,46,0
104490,note_on,0,0,0,,,,,,,,0,,,64,0
104490,note_on,0,0,0,,,,,,,,0,,,58,0
104490,note_on,0,0,0,,,,,,,,0,,,61,0
104490,note_on,0,0,0,,,,,,,,0,,,55,0
104640,set_tempo,150,1,0,,,,,,1304348,,,,,,
104640,note_on,0,0,0,,,,,,,,0,,,62,45
104640,note_on,0,0,0,,,,,,,,0,,,65,52
104640,note_on,0,0,0,,,,,,,,0,,,58,45
104640,note_on,0,0,0,,,,,,,,0,,,46,45
104678,control_change,38,0,0,,,,,,,,0,64,127,,
104878,note_on,200,0,0,,,,,,,,0,,,58,0
104880,set_tempo,2,1,0,,,,,,1445783,,,,,,
104880,note_on,0,0,0,,,,,,,,0,,,62,0
104880,note_on,0,0,0,,,,,,,,0,,,65,0
104880,note_on,0,0,0,,,,,,,,0,,,58,44
104880,note_on,0,0,0,,,,,,,,0,,,62,49
104880,note_on,0,0,0,,,,,,,,0,,,53,44
104886,control_change,6,0,0,,,,,,,,0,64,0,,
105000,note_on,114,0,0,,,,,,,,0,,,53,0
105000,note_on,0,0,0,,,,,,,,0,,,62,0
105000,note_on,0,0,0,,,,,,,,0,,,58,0
105120,set_tempo,120,1,0,,,,,,839161,,,,,,
105120,note_on,0,0,0,,,,,,,,0,,,46,0
105120,note_on,0,0,0,,,,,,,,0,,,34,55
105145,control_change,25,0,0,,,,,,,,0,64,127,,
105156,note_on,11,0,0,,,,,,,,0,,,34,0
105157,note_on,1,0,0,,,,,,,,0,,,36,56
105193,note_on,36,0,0,,,,,,,,0,,,36,0
105194,note_on,1,0,0,,,,,,,,0,,,38,57
105230,note_on,36,0,0,,,,,,,,0,,,38,0
105231,note_on,1,0,0,,,,,,,,0,,,39,59
105267,note_on,36,0,0,,,,,,,,0,,,39,0
105268,note_on,1,0,0,,,,,,,,0,,,41,60
105304,note_on,36,0,0,,,,,,,,0,,,41,0
105305,note_on,1,0,0,,,,,,,,0,,,43,62
105341,note_on,36,0,0,,,,,,,,0,,,43,0
105342,note_on,1,0,0,,,,,,,,0,,,45,63
105378,note_on,36,0,0,,,,,,,,0,,,45,0
105379,note_on,1,0,0,,,,,,,,0,,,46,63
105415,note_on,36,0,0,,,,,,,,0,,,46,0
105416,note_on,1,0,0,,,,,,,,0,,,48,64
105452,note_on,36,0,0,,,,,,,,0,,,48,0
105453,note_on,1,0,0,,,,,,,,0,,,50,65
105489,note_on,36,0,0,,,,,,,,0,,,50,0
105490,note_on,1,0,0,,,,,,,,0,,,51,67
105526,note_on,36,0,0,,,,,,,,0,,,51,0
105527,note_on,1,0,0,,,,,,,,0,,,52,69
105563,note_on,36,0,0,,,,,,,,0,,,52,0
105564,note_on,1,0,0,,,,,,,,0,,,55,70
105599,note_on,35,0,0,,,,,,,,0,,,55,0
105600,set_tempo,1,1,0,,,,,,1165049,,,,,,
105600,note_on,0,0,0,,,,,,,,0,,,53,63
105613,control_change,13,0,0,,,,,,,,0,64,0,,
105840,set_tempo,227,1,0,,,,,,1132075,,,,,,
105840,note_on,0,0,0,,,,,,,,0,,,62,49
105840,note_on,0,0,0,,,,,,,,0,,,58,44
105840,note_on,0,0,0,,,,,,,,0,,,46,41
105840,note_on,0,0,0,,,,,,,,0,,,41,41
105930,note_on,90,0,0,,,,,,,,0,,,41,0
105930,note_on,0,0,0,,,,,,,,0,,,58,0
105930,note_on,0,0,0,,,,,,,,0,,,46,0
105930,note_on,0,0,0,,,,,,,,0,,,62,0
106080,set_tempo,150,1,0,,,,,,1188119,,,,,,
106080,note_on,0,0,0,,,,,,,,0,,,57,46
106080,note_on,0,0,0,,,,,,,,0,,,63,53
106080,note_on,0,0,0,,,,,,,,0,,,41,44
106080,note_on,0,0,0,,,,,,,,0,,,48,44
106170,note_on,90,0,0,,,,,,,,0,,,48,0
106170,note_on,0,0,0,,,,,,,,0,,,63,0
106170,note_on,0,0,0,,,,,,,,0,,,41,0
106170,note_on,0,0,0,,,,,,,,0,,,57,0
106300,set_tempo,130,1,0,,,,,,1363636,,,,,,
106320,set_tempo,20,1,0,,,,,,1304348,,,,,,
106320,note_on,0,0,0,,,,,,,,0,,,57,45
106320,note_on,0,0,0,,,,,,,,0,,,65,50
106320,note_on,0,0,0,,,,,,,,0,,,50,43
106320,note_on,0,0,0,,,,,,,,0,,,41,43
106410,note_on,90,0,0,,,,,,,,0,,,41,0
106410,note_on,0,0,0,,,,,,,,0,,,65,0
106410,note_on,0,0,0,,,,,,,,0,,,50,0
106410,note_on,0,0,0,,,,,,,,0,,,57,0
106560,set_tempo,150,1,0,,,,,,1481481,,,,,,
106560,note_on,0,0,0,,,,,,,,0,,,62,51
106560,note_on,0,0,0,,,,,,,,0,,,58,45
106560,note_on,0,0,0,,,,,,,,0,,,46,44
106601,control_change,41,0,0,,,,,,,,0,64,127,,
106800,note_on,199,0,0,,,,,,,,0,,,53,0
106800,note_on,0,0,0,,,,,,,,0,,,34,48
106814,control_change,14,0,0,,,,,,,,0,64,0,,
106920,note_on,106,0,0,,,,,,,,0,,,34,0
107020,note_on,100,0,0,,,,,,,,0,,,62,0
107020,note_on,0,0,0,,,,,,,,0,,,58,0
107040,set_tempo,20,1,0,,,,,,693642,,,,,,
107040,note_on,0,0,0,,,,,,,,0,,,46,0
107040,note_on,0,0,0,,,,,,,,0,,,70,58
107056,control_change,16,0,0,,,,,,,,0,64,127,,
107079,note_on,23,0,0,,,,,,,,0,,,70,0
107080,note_on,1,0,0,,,,,,,,0,,,69,58
107119,note_on,39,0,0,,,,,,,,0,,,69,0
107120,set_tempo,1,1,0,,,,,,689655,,,,,,
107120,note_on,0,0,0,,,,,,,,0,,,68,58
107159,note_on,39,0,0,,,,,,,,0,,,68,0
107160,note_on,1,0,0,,,,,,,,0,,,67,58
107199,note_on,39,0,0,,,,,,,,0,,,67,0
107200,set_tempo,1,1,0,,,,,,685714,,,,,,
107200,note_on,0,0,0,,,,,,,,0,,,66,58
107239,note_on,39,0,0,,,,,,,,0,,,66,0
107240,note_on,1,0,0,,,,,,,,0,,,65,58
107279,note_on,39,0,0,,,,,,,,0,,,65,0
107280,set_tempo,1,1,0,,,,,,681818,,,,,,
107280,note_on,0,0,0,,,,,,,,0,,,64,60
107319,note_on,39,0,0,,,,,,,,0,,,64,0
107320,note_on,1,0,0,,,,,,,,0,,,63,63
107359,note_on,39,0,0,,,,,,,,0,,,63,0
107360,set_tempo,1,1,0,,,,,,677966,,,,,,
107360,note_on,0,0,0,,,,,,,,0,,,62,65
107399,note_on,39,0,0,,,,,,,,0,,,62,0
107400,note_on,1,0,0,,,,,,,,0,,,61,69
107439,note_on,39,0,0,,,,,,,,0,,,61,0
107440,set_tempo,1,1,0,,,,,,674157,,,,,,
107440,note_on,0,0,0,,,,,,,,0,,,60,72
107479,note_on,39,0,0,,,,,,,,0,,,60,0
107480,note_on,1,0,0,,,,,,,,0,,,59,73
107500,set_tempo,20,1,0,,,,,,670391,,,,,,
107519,note_on,19,0,0,,,,,,,,0,,,59,0
107520,set_tempo,1,1,0,,,,,,1000000,,,,,,
107520,note_on,0,0,0,,,,,,,,0,,,58,87
107538,control_change,18,0,0,,,,,,,,0,64,0,,
107580,note_on,42,0,0,,,,,,,,0,,,58,0
107760,set_tempo,180,1,0,,,,,,1090909,,,,,,
107760,note_on,0,0,0,,,,,,,,0,,,74,53
107760,note_on,0,0,0,,,,,,,,0,,,62,42
107760,note_on,0,0,0,,,,,,,,0,,,70,42
107760,note_on,0,0,0,,,,,,,,0,,,58,38
107760,note_on,0,0,0,,,,,,,,0,,,53,38
107760,note_on,0,0,0,,,,,,,,0,,,46,38
107850,note_on,90,0,0,,,,,,,,0,,,46,0
107850,note_on,0,0,0,,,,,,,,0,,,62,0
107850,note_on,0,0,0,,,,,,,,0,,,70,0
107850,note_on,0,0,0,,,,,,,,0,,,74,0
107850,note_on,0,0,0,,,,,,,,0,,,53,0
107850,note_on,0,0,0,,,,,,,,0,,,58,0
108000,set_tempo,150,1,0,,,,,,1111111,,,,,,
108000,note_on,0,0,0,,,,,,,,0,,,70,45
108000,note_on,0,0,0,,,,,,,,0,,,75,57
108000,note_on,0,0,0,,,,,,,,0,,,63,45
108000,note_on,0,0,0,,,,,,,,0,,,60,43
108000,note_on,0,0,0,,,,,,,,0,,,46,43
108000,note_on,0,0,0,,,,,,,,0,,,54,43
108090,note_on,90,0,0,,,,,,,,0,,,54,0
108090,note_on,0,0,0,,,,,,,,0,,,75,0
108090,note_on,0,0,0,,,,,,,,0,,,63,0
108090,note_on,0,0,0,,,,,,,,0,,,70,0
108090,note_on,0,0,0,,,,,,,,0,,,46,0
108090,note_on,0,0,0,,,,,,,,0,,,60,0
108240,set_tempo,150,1,0,,,,,,1188119,,,,,,
108240,note_on,0,0,0,,,,,,,,0,,,64,43
108240,note_on,0,0,0,,,,,,,,0,,,70,43
108240,note_on,0,0,0,,,,,,,,0,,,76,54
108240,note_on,0,0,0,,,,,,,,0,,,61,43
108240,note_on,0,0,0,,,,,,,,0,,,55,41
108240,note_on,0,0,0,,,,,,,,0,,,46,41
108330,note_on,90,0,0,,,,,,,,0,,,46,0
108330,note_on,0,0,0,,,,,,,,0,,,70,0
108330,note_on,0,0,0,,,,,,,,0,,,76,0
108330,note_on,0,0,0,,,,,,,,0,,,64,0
108330,note_on,0,0,0,,,,,,,,0,,,55,0
108330,note_on,0,0,0,,,,,,,,0,,,61,0
108480,set_tempo,150,1,0,,,,,,1304348,,,,,,
108480,note_on,0,0,0,,,,,,,,0,,,65,41
108480,note_on,0,0,0,,,,,,,,0,,,70,41
108480,note_on,0,0,0,,,,,,,,0,,,77,55
108480,note_on,0,0,0,,,,,,,,0,,,53,42
108480,note_on,0,0,0,,,,,,,,0,,,62,42
108480,note_on,0,0,0,,,,,,,,0,,,46,42
108720,set_tempo,240,1,0,,,,,,1428571,,,,,,
108720,note_on,0,0,0,,,,,,,,0,,,62,0
108720,note_on,0,0,0,,,,,,,,0,,,77,0
108720,note_on,0,0,0,,,,,,,,0,,,74,52
108720,note_on,0,0,0,,,,,,,,0,,,58,41
108840,note_on,120,0,0,,,,,,,,0,,,58,0
108840,note_on,0,0,0,,,,,,,,0,,,74,0
108940,note_on,100,0,0,,,,,,,,0,,,65,0
108940,note_on,0,0,0,,,,,,,,0,,,70,0
108960,set_tempo,20,1,0,,,,,,909091,,,,,,
108960,note_on,0,0,0,,,,,,,,0,,,53,0
108960,note_on,0,0,0,,,,,,,,0,,,46,0
108960,note_on,0,0,0,,,,,,,,0,,,46,49
108996,note_on,36,0,0,,,,,,,,0,,,46,0
108997,note_on,1,0,0,,,,,,,,0,,,48,50
109033,note_on,36,0,0,,,,,,,,0,,,48,0
109034,note_on,1,0,0,,,,,,,,0,,,50,51
109070,note_on,36,0,0,,,,,,,,0,,,50,0
109071,note_on,1,0,0,,,,,,,,0,,,51,53
109107,note_on,36,0,0,,,,,,,,0,,,51,0
109108,note_on,1,0,0,,,,,,,,0,,,53,54
109144,note_on,36,0,0,,,,,,,,0,,,53,0
109145,note_on,1,0,0,,,,,,,,0,,,55,55
109181,note_on,36,0,0,,,,,,,,0,,,55,0
109182,note_on,1,0,0,,,,,,,,0,,,57,55
109218,note_on,36,0,0,,,,,,,,0,,,57,0
109219,note_on,1,0,0,,,,,,,,0,,,58,56
109255,note_on,36,0,0,,,,,,,,0,,,58,0
109256,note_on,1,0,0,,,,,,,,0,,,60,57
109292,note_on,36,0,0,,,,,,,,0,,,60,0
109293,note_on,1,0,0,,,,,,,,0,,,62,58
109329,note_on,36,0,0,,,,,,,,0,,,62,0
109330,note_on,1,0,0,,,,,,,,0,,,63,60
109366,note_on,36,0,0,,,,,,,,0,,,63,0
109367,note_on,1,0,0,,,,,,,,0,,,64,62
109403,note_on,36,0,0,,,,,,,,0,,,64,0
109404,note_on,1,0,0,,,,,,,,0,,,67,63
109439,note_on,35,0,0,,,,,,,,0,,,67,0
109440,set_tempo,1,1,0,,,,,,1445783,,,,,,
109440,note_on,0,0,0,,,,,,,,0,,,65,55
109680,set_tempo,240,1,0,,,,,,1411765,,,,,,
109680,note_on,0,0,0,,,,,,,,0,,,74,42
109680,note_on,0,0,0,,,,,,,,0,,,68,36
109680,note_on,0,0,0,,,,,,,,0,,,53,35
109680,note_on,0,0,0,,,,,,,,0,,,59,35
109920,set_tempo,240,1,0,,,,,,1395349,,,,,,
109920,note_on,0,0,0,,,,,,,,0,,,59,0
109920,note_on,0,0,0,,,,,,,,0,,,68,0
109920,note_on,0,0,0,,,,,,,,0,,,53,0
109920,note_on,0,0,0,,,,,,,,0,,,74,0
109920,note_on,0,0,0,,,,,,,,0,,,69,41
109920,note_on,0,0,0,,,,,,,,0,,,75,45
109920,note_on,0,0,0,,,,,,,,0,,,60,36
109920,note_on,0,0,0,,,,,,,,0,,,53,36
110000,note_on,80,0,0,,,,,,,,0,,,65,0
110000,note_on,0,0,0,,,,,,,,0,,,65,43
110080,set_tempo,80,1,0,,,,,,1481481,,,,,,
110080,note_on,0,0,0,,,,,,,,0,,,65,0
110080,note_on,0,0,0,,,,,,,,0,,,67,33
110160,set_tempo,80,1,0,,,,,,1600000,,,,,,
110160,note_on,0,0,0,,,,,,,,0,,,67,0
110160,note_on,0,0,0,,,,,,,,0,,,60,0
110160,note_on,0,0,0,,,,,,,,0,,,69,0
110160,note_on,0,0,0,,,,,,,,0,,,75,0
110160,note_on,0,0,0,,,,,,,,0,,,53,0
110160,note_on,0,0,0,,,,,,,,0,,,63,43
110160,note_on,0,0,0,,,,,,,,0,,,77,41
110160,note_on,0,0,0,,,,,,,,0,,,72,41
110160,note_on,0,0,0,,,,,,,,0,,,65,36
110160,note_on,0,0,0,,,,,,,,0,,,53,32
110160,note_on,0,0,0,,,,,,,,0,,,57,32
110240,set_tempo,80,1,0,,,,,,1643836,,,,,,
110240,note_on,0,0,0,,,,,,,,0,,,63,0
110240,note_on,0,0,0,,,,,,,,0,,,60,39
110320,set_tempo,80,1,0,,,,,,2608696,,,,,,
110320,note_on,0,0,0,,,,,,,,0,,,60,0
110320,note_on,0,0,0,,,,,,,,0,,,62,38
110340,note_on,20,0,0,,,,,,,,0,,,62,0
110340,note_on,0,0,0,,,,,,,,0,,,46,32
110350,note_on,10,0,0,,,,,,,,0,,,53,32
110360,note_on,10,0,0,,,,,,,,0,,,62,36
110370,note_on,10,0,0,,,,,,,,0,,,58,32
110380,note_on,10,0,0,,,,,,,,0,,,65,32
110390,note_on,10,0,0,,,,,,,,0,,,70,32
110400,set_tempo,10,1,0,,,,,,1621622,,,,,,
110400,note_on,0,0,0,,,,,,,,0,,,72,0
110400,note_on,0,0,0,,,,,,,,0,,,53,0
110400,note_on,0,0,0,,,,,,,,0,,,77,0
110400,note_on,0,0,0,,,,,,,,0,,,65,0
110400,note_on,0,0,0,,,,,,,,0,,,57,0
110400,note_on,0,0,0,,,,,,,,0,,,74,38
110860,set_tempo,460,1,0,,,,,,1121495,,,,,,
110860,note_on,0,0,0,,,,,,,,0,,,74,0
110860,note_on,0,0,0,,,,,,,,0,,,62,0
110860,note_on,0,0,0,,,,,,,,0,,,46,0
110860,note_on,0,0,0,,,,,,,,0,,,65,0
110860,note_on,0,0,0,,,,,,,,0,,,70,0
110860,note_on,0,0,0,,,,,,,,0,,,53,0
110860,note_on,0,0,0,,,,,,,,0,,,58,0
110880,set_tempo,20,1,0,,,,,,1061947,,,,,,
110880,note_on,0,0,0,,,,,,,,0,,,77,46
110880,note_on,0,0,0,,,,,,,,0,,,73,46
110880,note_on,0,0,0,,,,,,,,0,,,82,46
110905,control_change,25,0,0,,,,,,,,0,64,127,,
110970,note_on,65,0,0,,,,,,,,0,,,82,0
110970,note_on,0,0,0,,,,,,,,0,,,73,0
110970,note_on,0,0,0,,,,,,,,0,,,77,0
110970,note_on,0,0,0,,,,,,,,0,,,81,38
111000,set_tempo,30,1,0,,,,,,930233,,,,,,
111000,note_on,0,0,0,,,,,,,,0,,,81,0
111000,note_on,0,0,0,,,,,,,,0,,,80,38
111000,note_on,0,0,0,,,,,,,,0,,,72,38
111040,set_tempo,40,1,0,,,,,,923077,,,,,,
111045,note_on,5,0,0,,,,,,,,0,,,72,0
111045,note_on,0,0,0,,,,,,,,0,,,80,0
111045,note_on,0,0,0,,,,,,,,0,,,79,39
111045,note_on,0,0,0,,,,,,,,0,,,74,39
111045,note_on,0,0,0,,,,,,,,0,,,71,39
111080,set_tempo,35,1,0,,,,,,916031,,,,,,
111090,note_on,10,0,0,,,,,,,,0,,,71,0
111090,note_on,0,0,0,,,,,,,,0,,,74,0
111090,note_on,0,0,0,,,,,,,,0,,,79,0
111090,note_on,0,0,0,,,,,,,,0,,,78,41
111090,note_on,0,0,0,,,,,,,,0,,,70,41
111120,set_tempo,30,1,0,,,,,,909091,,,,,,
111135,note_on,15,0,0,,,,,,,,0,,,70,0
111135,note_on,0,0,0,,,,,,,,0,,,78,0
111135,note_on,0,0,0,,,,,,,,0,,,77,42
111135,note_on,0,0,0,,,,,,,,0,,,72,42
111135,note_on,0,0,0,,,,,,,,0,,,69,42
111160,set_tempo,25,1,0,,,,,,902256,,,,,,
111180,note_on,20,0,0,,,,,,,,0,,,69,0
111180,note_on,0,0,0,,,,,,,,0,,,72,0
111180,note_on,0,0,0,,,,,,,,0,,,77,0
111180,note_on,0,0,0,,,,,,,,0,,,76,43
111180,note_on,0,0,0,,,,,,,,0,,,68,43
111200,set_tempo,20,1,0,,,,,,895522,,,,,,
111225,note_on,25,0,0,,,,,,,,0,,,68,0
111225,note_on,0,0,0,,,,,,,,0,,,76,0
111225,note_on,0,0,0,,,,,,,,0,,,75,44
111225,note_on,0,0,0,,,,,,,,0,,,70,44
111225,note_on,0,0,0,,,,,,,,0,,,67,44
111240,set_tempo,15,1,0,,,,,,888889,,,,,,
111270,note_on,30,0,0,,,,,,,,0,,,67,0
111270,note_on,0,0,0,,,,,,,,0,,,70,0
111270,note_on,0,0,0,,,,,,,,0,,,75,0
111270,note_on,0,0,0,,,,,,,,0,,,74,45
111270,note_on,0,0,0,,,,,,,,0,,,66,45
111280,set_tempo,10,1,0,,,,,,882353,,,,,,
111315,note_on,35,0,0,,,,,,,,0,,,66,0
111315,note_on,0,0,0,,,,,,,,0,,,74,0
111315,note_on,0,0,0,,,,,,,,0,,,73,46
111315,note_on,0,0,0,,,,,,,,0,,,68,46
111315,note_on,0,0,0,,,,,,,,0,,,65,46
111320,set_tempo,5,1,0,,,,,,875912,,,,,,
111340,set_tempo,20,1,0,,,,,,869565,,,,,,
111360,set_tempo,20,1,0,,,,,,983607,,,,,,
111360,note_on,0,0,0,,,,,,,,0,,,65,0
111360,note_on,0,0,0,,,,,,,,0,,,68,0
111360,note_on,0,0,0,,,,,,,,0,,,73,0
111360,note_on,0,0,0,,,,,,,,0,,,64,48
111360,note_on,0,0,0,,,,,,,,0,,,67,48
111360,note_on,0,0,0,,,,,,,,0,,,72,48
111368,control_change,8,0,0,,,,,,,,0,64,0,,
111420,note_on,52,0,0,,,,,,,,0,,,72,0
111420,note_on,0,0,0,,,,,,,,0,,,67,0
111420,note_on,0,0,0,,,,,,,,0,,,64,0
111600,set_tempo,180,1,0,,,,,,930233,,,,,,
111600,note_on,0,0,0,,,,,,,,0,,,55,37
111600,note_on,0,0,0,,,,,,,,0,,,64,43
111600,note_on,0,0,0,,,,,,,,0,,,58,37
111600,note_on,0,0,0,,,,,,,,0,,,48,51
111640,note_on,40,0,0,,,,,,,,0,,,48,0
111640,note_on,0,0,0,,,,,,,,0,,,49,53
111660,set_tempo,20,1,0,,,,,,923077,,,,,,
111680,note_on,20,0,0,,,,,,,,0,,,49,0
111680,note_on,0,0,0,,,,,,,,0,,,48,54
111690,note_on,10,0,0,,,,,,,,0,,,58,0
111690,note_on,0,0,0,,,,,,,,0,,,55,0
111690,note_on,0,0,0,,,,,,,,0,,,64,0
111720,set_tempo,30,1,0,,,,,,916031,,,,,,
111720,note_on,0,0,0,,,,,,,,0,,,48,0
111720,note_on,0,0,0,,,,,,,,0,,,47,56
111760,note_on,40,0,0,,,,,,,,0,,,47,0
111760,note_on,0,0,0,,,,,,,,0,,,46,57
111780,set_tempo,20,1,0,,,,,,909091,,,,,,
111800,note_on,20,0,0,,,,,,,,0,,,46,0
111800,note_on,0,0,0,,,,,,,,0,,,45,58
111820,set_tempo,20,1,0,,,,,,902256,,,,,,
111840,set_tempo,20,1,0,,,,,,1043478,,,,,,
111840,note_on,0,0,0,,,,,,,,0,,,45,0
111840,note_on,0,0,0,,,,,,,,0,,,61,41
111840,note_on,0,0,0,,,,,,,,0,,,65,45
111840,note_on,0,0,0,,,,,,,,0,,,56,41
111840,note_on,0,0,0,,,,,,,,0,,,44,60
111930,note_on,90,0,0,,,,,,,,0,,,44,0
111930,note_on,0,0,0,,,,,,,,0,,,61,0
111930,note_on,0,0,0,,,,,,,,0,,,65,0
111930,note_on,0,0,0,,,,,,,,0,,,56,0
112080,set_tempo,150,1,0,,,,,,975610,,,,,,
112080,note_on,0,0,0,,,,,,,,0,,,59,37
112080,note_on,0,0,0,,,,,,,,0,,,62,37
112080,note_on,0,0,0,,,,,,,,0,,,68,43
112080,note_on,0,0,0,,,,,,,,0,,,41,52
112100,set_tempo,20,1,0,,,,,,983607,,,,,,
112114,note_on,14,0,0,,,,,,,,0,,,41,0
112114,note_on,0,0,0,,,,,,,,0,,,43,51
112120,set_tempo,6,1,0,,,,,,991736,,,,,,
112140,set_tempo,20,1,0,,,,,,1000000,,,,,,
112148,note_on,8,0,0,,,,,,,,0,,,43,0
112148,note_on,0,0,0,,,,,,,,0,,,41,50
112160,set_tempo,12,1,0,,,,,,1016949,,,,,,
112170,note_on,10,0,0,,,,,,,,0,,,68,0
112170,note_on,0,0,0,,,,,,,,0,,,59,0
112170,note_on,0,0,0,,,,,,,,0,,,62,0
112180,set_tempo,10,1,0,,,,,,1025641,,,,,,
112182,note_on,2,0,0,,,,,,,,0,,,41,0
112182,note_on,0,0,0,,,,,,,,0,,,40,50
112200,set_tempo,18,1,0,,,,,,1034483,,,,,,
112216,note_on,16,0,0,,,,,,,,0,,,40,0
112216,note_on,0,0,0,,,,,,,,0,,,39,49
112220,set_tempo,4,1,0,,,,,,1043478,,,,,,
112240,set_tempo,20,1,0,,,,,,1061947,,,,,,
112250,note_on,10,0,0,,,,,,,,0,,,39,0
112250,note_on,0,0,0,,,,,,,,0,,,38,48
112280,set_tempo,30,1,0,,,,,,1290323,,,,,,
112285,note_on,5,0,0,,,,,,,,0,,,38,0
112285,note_on,0,0,0,,,,,,,,0,,,37,46
112320,set_tempo,35,1,0,,,,,,1165049,,,,,,
112320,note_on,0,0,0,,,,,,,,0,,,37,0
112320,note_on,0,0,0,,,,,,,,0,,,67,43
112320,note_on,0,0,0,,,,,,,,0,,,64,37
112320,note_on,0,0,0,,,,,,,,0,,,36,45
112560,set_tempo,240,1,0,,,,,,1237113,,,,,,
112560,note_on,0,0,0,,,,,,,,0,,,36,0
112560,note_on,0,0,0,,,,,,,,0,,,64,0
112560,note_on,0,0,0,,,,,,,,0,,,67,0
112560,note_on,0,0,0,,,,,,,,0,,,55,32
112560,note_on,0,0,0,,,,,,,,0,,,60,36
112560,note_on,0,0,0,,,,,,,,0,,,52,39
112650,note_on,90,0,0,,,,,,,,0,,,52,0
112650,note_on,0,0,0,,,,,,,,0,,,60,0
112650,note_on,0,0,0,,,,,,,,0,,,55,0
112800,set_tempo,150,1,0,,,,,,1061947,,,,,,
112800,note_on,0,0,0,,,,,,,,0,,,89,50
112800,note_on,0,0,0,,,,,,,,0,,,85,50
112800,note_on,0,0,0,,,,,,,,0,,,94,50
112820,control_change,20,0,0,,,,,,,,0,64,127,,
112890,note_on,70,0,0,,,,,,,,0,,,94,0
112890,note_on,0,0,0,,,,,,,,0,,,85,0
112890,note_on,0,0,0,,,,,,,,0,,,89,0
112890,note_on,0,0,0,,,,,,,,0,,,93,41
112920,set_tempo,30,1,0,,,,,,895522,,,,,,
112920,note_on,0,0,0,,,,,,,,0,,,93,0
112920,note_on,0,0,0,,,,,,,,0,,,92,42
112920,note_on,0,0,0,,,,,,,,0,,,84,42
112965,note_on,45,0,0,,,,,,,,0,,,84,0
112965,note_on,0,0,0,,,,,,,,0,,,92,0
112965,note_on,0,0,0,,,,,,,,0,,,91,43
112965,note_on,0,0,0,,,,,,,,0,,,86,43
112965,note_on,0,0,0,,,,,,,,0,,,83,43
112980,set_tempo,15,1,0,,,,,,888889,,,,,,
113010,note_on,30,0,0,,,,,,,,0,,,83,0
113010,note_on,0,0,0,,,,,,,,0,,,86,0
113010,note_on,0,0,0,,,,,,,,0,,,91,0
113010,note_on,0,0,0,,,,,,,,0,,,90,44
113010,note_on,0,0,0,,,,,,,,0,,,82,44
113040,set_tempo,30,1,0,,,,,,882353,,,,,,
113055,note_on,15,0,0,,,,,,,,0,,,82,0
113055,note_on,0,0,0,,,,,,,,0,,,90,0
113055,note_on,0,0,0,,,,,,,,0,,,89,45
113055,note_on,0,0,0,,,,,,,,0,,,84,45
113055,note_on,0,0,0,,,,,,,,0,,,81,45
113100,set_tempo,45,1,0,,,,,,875912,,,,,,
113100,note_on,0,0,0,,,,,,,,0,,,81,0
113100,note_on,0,0,0,,,,,,,,0,,,84,0
113100,note_on,0,0,0,,,,,,,,0,,,89,0
113100,note_on,0,0,0,,,,,,,,0,,,88,45
113100,note_on,0,0,0,,,,,,,,0,,,80,45
113145,note_on,45,0,0,,,,,,,,0,,,80,0
113145,note_on,0,0,0,,,,,,,,0,,,88,0
113145,note_on,0,0,0,,,,,,,,0,,,87,46
113145,note_on,0,0,0,,,,,,,,0,,,82,46
113145,note_on,0,0,0,,,,,,,,0,,,79,46
113160,set_tempo,15,1,0,,,,,,869565,,,,,,
113190,note_on,30,0,0,,,,,,,,0,,,79,0
113190,note_on,0,0,0,,,,,,,,0,,,82,0
113190,note_on,0,0,0,,,,,,,,0,,,87,0
113190,note_on,0,0,0,,,,,,,,0,,,86,49
113190,note_on,0,0,0,,,,,,,,0,,,78,49
113220,set_tempo,30,1,0,,,,,,863309,,,,,,
113235,note_on,15,0,0,,,,,,,,0,,,78,0
113235,note_on,0,0,0,,,,,,,,0,,,86,0
113235,note_on,0,0,0,,,,,,,,0,,,85,50
113235,note_on,0,0,0,,,,,,,,0,,,80,50
113235,note_on,0,0,0,,,,,,,,0,,,77,50
113260,set_tempo,25,1,0,,,,,,857143,,,,,,
113280,set_tempo,20,1,0,,,,,,975610,,,,,,
113280,note_on,0,0,0,,,,,,,,0,,,77,0
113280,note_on,0,0,0,,,,,,,,0,,,80,0
113280,note_on,0,0,0,,,,,,,,0,,,85,0
113280,note_on,0,0,0,,,,,,,,0,,,76,51
113280,note_on,0,0,0,,,,,,,,0,,,79,51
113280,note_on,0,0,0,,,,,,,,0,,,84,51
113291,control_change,11,0,0,,,,,,,,0,64,0,,
113340,note_on,49,0,0,,,,,,,,0,,,84,0
113340,note_on,0,0,0,,,,,,,,0,,,79,0
113340,note_on,0,0,0,,,,,,,,0,,,76,0
113520,set_tempo,180,1,0,,,,,,930233,,,,,,
113520,note_on,0,0,0,,,,,,,,0,,,64,37
113520,note_on,0,0,0,,,,,,,,0,,,67,37
113520,note_on,0,0,0,,,,,,,,0,,,76,43
113520,note_on,0,0,0,,,,,,,,0,,,70,37
113520,note_on,0,0,0,,,,,,,,0,,,48,51
113520,note_on,0,0,0,,,,,,,,0,,,60,51
113560,note_on,40,0,0,,,,,,,,0,,,60,0
113560,note_on,0,0,0,,,,,,,,0,,,61,53
113580,set_tempo,20,1,0,,,,,,923077,,,,,,
113600,note_on,20,0,0,,,,,,,,0,,,61,0
113600,note_on,0,0,0,,,,,,,,0,,,60,54
113610,note_on,10,0,0,,,,,,,,0,,,70,0
113610,note_on,0,0,0,,,,,,,,0,,,76,0
113610,note_on,0,0,0,,,,,,,,0,,,64,0
113610,note_on,0,0,0,,,,,,,,0,,,67,0
113640,set_tempo,30,1,0,,,,,,916031,,,,,,
113640,note_on,0,0,0,,,,,,,,0,,,60,0
113640,note_on,0,0,0,,,,,,,,0,,,59,56
113680,note_on,40,0,0,,,,,,,,0,,,59,0
113680,note_on,0,0,0,,,,,,,,0,,,58,57
113700,set_tempo,20,1,0,,,,,,909091,,,,,,
113720,note_on,20,0,0,,,,,,,,0,,,58,0
113720,note_on,0,0,0,,,,,,,,0,,,57,58
113740,set_tempo,20,1,0,,,,,,902256,,,,,,
113760,set_tempo,20,1,0,,,,,,1008403,,,,,,
113760,note_on,0,0,0,,,,,,,,0,,,57,0
113760,note_on,0,0,0,,,,,,,,0,,,48,0
113760,note_on,0,0,0,,,,,,,,0,,,65,42
113760,note_on,0,0,0,,,,,,,,0,,,73,42
113760,note_on,0,0,0,,,,,,,,0,,,77,46
113760,note_on,0,0,0,,,,,,,,0,,,68,42
113760,note_on,0,0,0,,,,,,,,0,,,44,54
113760,note_on,0,0,0,,,,,,,,0,,,56,60
113850,note_on,90,0,0,,,,,,,,0,,,56,0
113850,note_on,0,0,0,,,,,,,,0,,,73,0
113850,note_on,0,0,0,,,,,,,,0,,,77,0
113850,note_on,0,0,0,,,,,,,,0,,,65,0
113850,note_on,0,0,0,,,,,,,,0,,,44,0
113850,note_on,0,0,0,,,,,,,,0,,,68,0
114000,set_tempo,150,1,0,,,,,,1043478,,,,,,
114000,note_on,0,0,0,,,,,,,,0,,,68,37
114000,note_on,0,0,0,,,,,,,,0,,,71,37
114000,note_on,0,0,0,,,,,,,,0,,,74,37
114000,note_on,0,0,0,,,,,,,,0,,,80,43
114000,note_on,0,0,0,,,,,,,,0,,,41,52
114000,note_on,0,0,0,,,,,,,,0,,,53,52
114034,note_on,34,0,0,,,,,,,,0,,,53,0
114034,note_on,0,0,0,,,,,,,,0,,,55,51
114040,set_tempo,6,1,0,,,,,,1052632,,,,,,
114060,set_tempo,20,1,0,,,,,,1061947,,,,,,
114068,note_on,8,0,0,,,,,,,,0,,,55,0
114068,note_on,0,0,0,,,,,,,,0,,,53,50
114090,note_on,22,0,0,,,,,,,,0,,,80,0
114090,note_on,0,0,0,,,,,,,,0,,,74,0
114090,note_on,0,0,0,,,,,,,,0,,,68,0
114090,note_on,0,0,0,,,,,,,,0,,,71,0
114100,set_tempo,10,1,0,,,,,,1071429,,,,,,
114102,note_on,2,0,0,,,,,,,,0,,,53,0
114102,note_on,0,0,0,,,,,,,,0,,,52,50
114120,set_tempo,18,1,0,,,,,,1081081,,,,,,
114136,note_on,16,0,0,,,,,,,,0,,,52,0
114136,note_on,0,0,0,,,,,,,,0,,,51,49
114160,set_tempo,24,1,0,,,,,,1090909,,,,,,
114170,note_on,10,0,0,,,,,,,,0,,,51,0
114170,note_on,0,0,0,,,,,,,,0,,,50,48
114180,set_tempo,10,1,0,,,,,,1100917,,,,,,
114200,set_tempo,20,1,0,,,,,,1237113,,,,,,
114205,note_on,5,0,0,,,,,,,,0,,,50,0
114205,note_on,0,0,0,,,,,,,,0,,,49,46
114240,set_tempo,35,1,0,,,,,,1165049,,,,,,
114240,note_on,0,0,0,,,,,,,,0,,,49,0
114240,note_on,0,0,0,,,,,,,,0,,,41,0
114240,note_on,0,0,0,,,,,,,,0,,,67,37
114240,note_on,0,0,0,,,,,,,,0,,,79,43
114240,note_on,0,0,0,,,,,,,,0,,,76,37
114240,note_on,0,0,0,,,,,,,,0,,,36,41
114240,note_on,0,0,0,,,,,,,,0,,,48,45
114480,set_tempo,240,1,0,,,,,,1276596,,,,,,
114480,note_on,0,0,0,,,,,,,,0,,,48,0
114480,note_on,0,0,0,,,,,,,,0,,,76,0
114480,note_on,0,0,0,,,,,,,,0,,,67,0
114480,note_on,0,0,0,,,,,,,,0,,,79,0
114480,note_on,0,0,0,,,,,,,,0,,,36,0
114480,note_on,0,0,0,,,,,,,,0,,,72,36
114480,note_on,0,0,0,,,,,,,,0,,,55,36
114480,note_on,0,0,0,,,,,,,,0,,,64,39
114570,note_on,90,0,0,,,,,,,,0,,,64,0
114570,note_on,0,0,0,,,,,,,,0,,,55,0
114570,note_on,0,0,0,,,,,,,,0,,,72,0
114720,set_tempo,150,1,0,,,,,,944882,,,,,,
114720,note_on,0,0,0,,,,,,,,0,,,68,50
114720,note_on,0,0,0,,,,,,,,0,,,65,50
114720,note_on,0,0,0,,,,,,,,0,,,72,50
114720,note_on,0,0,0,,,,,,,,0,,,80,50
114731,control_change,11,0,0,,,,,,,,0,64,127,,
114768,note_on,37,0,0,,,,,,,,0,,,80,0
114768,note_on,0,0,0,,,,,,,,0,,,65,0
114768,note_on,0,0,0,,,,,,,,0,,,64,45
114768,note_on,0,0,0,,,,,,,,0,,,79,48
114816,note_on,48,0,0,,,,,,,,0,,,79,0
114816,note_on,0,0,0,,,,,,,,0,,,64,0
114816,note_on,0,0,0,,,,,,,,0,,,63,45
114816,note_on,0,0,0,,,,,,,,0,,,78,49
114820,set_tempo,4,1,0,,,,,,923077,,,,,,
114840,set_tempo,20,1,0,,,,,,895522,,,,,,
114864,note_on,24,0,0,,,,,,,,0,,,78,0
114864,note_on,0,0,0,,,,,,,,0,,,63,0
114864,note_on,0,0,0,,,,,,,,0,,,62,46
114864,note_on,0,0,0,,,,,,,,0,,,77,50
114880,set_tempo,16,1,0,,,,,,888889,,,,,,
114912,note_on,32,0,0,,,,,,,,0,,,77,0
114912,note_on,0,0,0,,,,,,,,0,,,62,0
114912,note_on,0,0,0,,,,,,,,0,,,61,49
114912,note_on,0,0,0,,,,,,,,0,,,76,52
114920,set_tempo,8,1,0,,,,,,882353,,,,,,
114960,set_tempo,40,1,0,,,,,,875912,,,,,,
114960,note_on,0,0,0,,,,,,,,0,,,76,0
114960,note_on,0,0,0,,,,,,,,0,,,61,0
114960,note_on,0,0,0,,,,,,,,0,,,60,50
114960,note_on,0,0,0,,,,,,,,0,,,75,54
114980,set_tempo,20,1,0,,,,,,869565,,,,,,
115008,note_on,28,0,0,,,,,,,,0,,,75,0
115008,note_on,0,0,0,,,,,,,,0,,,60,0
115008,note_on,0,0,0,,,,,,,,0,,,59,51
115008,note_on,0,0,0,,,,,,,,0,,,74,55
115020,set_tempo,12,1,0,,,,,,863309,,,,,,
115056,note_on,36,0,0,,,,,,,,0,,,74,0
115056,note_on,0,0,0,,,,,,,,0,,,59,0
115056,note_on,0,0,0,,,,,,,,0,,,58,53
115056,note_on,0,0,0,,,,,,,,0,,,73,56
115060,set_tempo,4,1,0,,,,,,857143,,,,,,
115080,set_tempo,20,1,0,,,,,,851064,,,,,,
115104,note_on,24,0,0,,,,,,,,0,,,73,0
115104,note_on,0,0,0,,,,,,,,0,,,58,0
115104,note_on,0,0,0,,,,,,,,0,,,57,54
115104,note_on,0,0,0,,,,,,,,0,,,72,58
115120,set_tempo,16,1,0,,,,,,845070,,,,,,
115152,note_on,32,0,0,,,,,,,,0,,,72,0
115152,note_on,0,0,0,,,,,,,,0,,,57,0
115152,note_on,0,0,0,,,,,,,,0,,,56,55
115152,note_on,0,0,0,,,,,,,,0,,,71,59
115160,set_tempo,8,1,0,,,,,,839161,,,,,,
115180,set_tempo,20,1,0,,,,,,833333,,,,,,
115200,set_tempo,20,1,0,,,,,,983607,,,,,,
115200,note_on,0,0,0,,,,,,,,0,,,71,0
115200,note_on,0,0,0,,,,,,,,0,,,68,0
115200,note_on,0,0,0,,,,,,,,0,,,72,0
115200,note_on,0,0,0,,,,,,,,0,,,56,0
115200,note_on,0,0,0,,,,,,,,0,,,62,57
115200,note_on,0,0,0,,,,,,,,0,,,65,57
115200,note_on,0,0,0,,,,,,,,0,,,70,62
115200,note_on,0,0,0,,,,,,,,0,,,68,62
115212,control_change,12,0,0,,,,,,,,0,64,0,,
115260,note_on,48,0,0,,,,,,,,0,,,68,0
115260,note_on,0,0,0,,,,,,,,0,,,62,0
115260,note_on,0,0,0,,,,,,,,0,,,65,0
115260,note_on,0,0,0,,,,,,,,0,,,70,0
115440,set_tempo,180,1,0,,,,,,930233,,,,,,
115440,note_on,0,0,0,,,,,,,,0,,,53,41
115440,note_on,0,0,0,,,,,,,,0,,,62,45
115440,note_on,0,0,0,,,,,,,,0,,,56,41
115440,note_on,0,0,0,,,,,,,,0,,,46,51
115480,note_on,40,0,0,,,,,,,,0,,,46,0
115480,note_on,0,0,0,,,,,,,,0,,,47,53
115500,set_tempo,20,1,0,,,,,,923077,,,,,,
115520,note_on,20,0,0,,,,,,,,0,,,47,0
115520,note_on,0,0,0,,,,,,,,0,,,46,54
115530,note_on,10,0,0,,,,,,,,0,,,56,0
115530,note_on,0,0,0,,,,,,,,0,,,53,0
115530,note_on,0,0,0,,,,,,,,0,,,62,0
115560,set_tempo,30,1,0,,,,,,916031,,,,,,
115560,note_on,0,0,0,,,,,,,,0,,,46,0
115560,note_on,0,0,0,,,,,,,,0,,,45,56
115600,note_on,40,0,0,,,,,,,,0,,,45,0
115600,note_on,0,0,0,,,,,,,,0,,,44,57
115620,set_tempo,20,1,0,,,,,,909091,,,,,,
115640,note_on,20,0,0,,,,,,,,0,,,44,0
115640,note_on,0,0,0,,,,,,,,0,,,43,58
115660,set_tempo,20,1,0,,,,,,902256,,,,,,
115680,set_tempo,20,1,0,,,,,,952381,,,,,,
115680,note_on,0,0,0,,,,,,,,0,,,43,0
115680,note_on,0,0,0,,,,,,,,0,,,59,45
115680,note_on,0,0,0,,,,,,,,0,,,63,51
115680,note_on,0,0,0,,,,,,,,0,,,54,45
115680,note_on,0,0,0,,,,,,,,0,,,42,60
115770,note_on,90,0,0,,,,,,,,0,,,42,0
115770,note_on,0,0,0,,,,,,,,0,,,59,0
115770,note_on,0,0,0,,,,,,,,0,,,63,0
115770,note_on,0,0,0,,,,,,,,0,,,54,0
115920,set_tempo,150,1,0,,,,,,1008403,,,,,,
115920,note_on,0,0,0,,,,,,,,0,,,57,42
115920,note_on,0,0,0,,,,,,,,0,,,60,42
115920,note_on,0,0,0,,,,,,,,0,,,66,46
115920,note_on,0,0,0,,,,,,,,0,,,39,57
115954,note_on,34,0,0,,,,,,,,0,,,39,0
115954,note_on,0,0,0,,,,,,,,0,,,41,57
115960,set_tempo,6,1,0,,,,,,1016949,,,,,,
115988,note_on,28,0,0,,,,,,,,0,,,41,0
115988,note_on,0,0,0,,,,,,,,0,,,39,56
116000,set_tempo,12,1,0,,,,,,1025641,,,,,,
116010,note_on,10,0,0,,,,,,,,0,,,66,0
116010,note_on,0,0,0,,,,,,,,0,,,57,0
116010,note_on,0,0,0,,,,,,,,0,,,60,0
116020,set_tempo,10,1,0,,,,,,1034483,,,,,,
116022,note_on,2,0,0,,,,,,,,0,,,39,0
116022,note_on,0,0,0,,,,,,,,0,,,38,55
116056,note_on,34,0,0,,,,,,,,0,,,38,0
116056,note_on,0,0,0,,,,,,,,0,,,37,55
116060,set_tempo,4,1,0,,,,,,1043478,,,,,,
116090,note_on,30,0,0,,,,,,,,0,,,37,0
116090,note_on,0,0,0,,,,,,,,0,,,36,54
116100,set_tempo,10,1,0,,,,,,1052632,,,,,,
116120,set_tempo,20,1,0,,,,,,1276596,,,,,,
116125,note_on,5,0,0,,,,,,,,0,,,36,0
116125,note_on,0,0,0,,,,,,,,0,,,35,54
116140,set_tempo,15,1,0,,,,,,1034483,,,,,,
116160,set_tempo,20,1,0,,,,,,1176471,,,,,,
116160,note_on,0,0,0,,,,,,,,0,,,35,0
116160,note_on,0,0,0,,,,,,,,0,,,65,51
116160,note_on,0,0,0,,,,,,,,0,,,62,45
116160,note_on,0,0,0,,,,,,,,0,,,34,53
116400,set_tempo,240,1,0,,,,,,1333333,,,,,,
116400,note_on,0,0,0,,,,,,,,0,,,34,0
116400,note_on,0,0,0,,,,,,,,0,,,62,0
116400,note_on,0,0,0,,,,,,,,0,,,65,0
116400,note_on,0,0,0,,,,,,,,0,,,53,38
116400,note_on,0,0,0,,,,,,,,0,,,58,44
116400,note_on,0,0,0,,,,,,,,0,,,50,49
116490,note_on,90,0,0,,,,,,,,0,,,50,0
116490,note_on,0,0,0,,,,,,,,0,,,58,0
116490,note_on,0,0,0,,,,,,,,0,,,53,0
116640,set_tempo,150,1,0,,,,,,909091,,,,,,
116640,note_on,0,0,0,,,,,,,,0,,,68,50
116640,note_on,0,0,0,,,,,,,,0,,,64,50
116640,note_on,0,0,0,,,,,,,,0,,,71,50
116640,note_on,0,0,0,,,,,,,,0,,,80,50
116658,control_change,18,0,0,,,,,,,,0,64,127,,
116688,note_on,30,0,0,,,,,,,,0,,,80,0
116688,note_on,0,0,0,,,,,,,,0,,,64,0
116688,note_on,0,0,0,,,,,,,,0,,,63,45
116688,note_on,0,0,0,,,,,,,,0,,,79,48
116736,note_on,48,0,0,,,,,,,,0,,,79,0
116736,note_on,0,0,0,,,,,,,,0,,,63,0
116736,note_on,0,0,0,,,,,,,,0,,,62,45
116736,note_on,0,0,0,,,,,,,,0,,,78,49
116740,set_tempo,4,1,0,,,,,,902256,,,,,,
116784,note_on,44,0,0,,,,,,,,0,,,78,0
116784,note_on,0,0,0,,,,,,,,0,,,62,0
116784,note_on,0,0,0,,,,,,,,0,,,61,46
116784,note_on,0,0,0,,,,,,,,0,,,77,50
116832,note_on,48,0,0,,,,,,,,0,,,77,0
116832,note_on,0,0,0,,,,,,,,0,,,61,0
116832,note_on,0,0,0,,,,,,,,0,,,60,49
116832,note_on,0,0,0,,,,,,,,0,,,76,52
116840,set_tempo,8,1,0,,,,,,895522,,,,,,
116880,note_on,40,0,0,,,,,,,,0,,,76,0
116880,note_on,0,0,0,,,,,,,,0,,,60,0
116880,note_on,0,0,0,,,,,,,,0,,,59,50
116880,note_on,0,0,0,,,,,,,,0,,,75,54
116920,set_tempo,40,1,0,,,,,,888889,,,,,,
116928,note_on,8,0,0,,,,,,,,0,,,75,0
116928,note_on,0,0,0,,,,,,,,0,,,59,0
116928,note_on,0,0,0,,,,,,,,0,,,58,51
116928,note_on,0,0,0,,,,,,,,0,,,74,55
116976,note_on,48,0,0,,,,,,,,0,,,74,0
116976,note_on,0,0,0,,,,,,,,0,,,58,0
116976,note_on,0,0,0,,,,,,,,0,,,57,53
116976,note_on,0,0,0,,,,,,,,0,,,73,56
117020,set_tempo,44,1,0,,,,,,882353,,,,,,
117024,note_on,4,0,0,,,,,,,,0,,,73,0
117024,note_on,0,0,0,,,,,,,,0,,,57,0
117024,note_on,0,0,0,,,,,,,,0,,,56,54
117024,note_on,0,0,0,,,,,,,,0,,,72,58
117072,note_on,48,0,0,,,,,,,,0,,,72,0
117072,note_on,0,0,0,,,,,,,,0,,,56,0
117072,note_on,0,0,0,,,,,,,,0,,,59,55
117072,note_on,0,0,0,,,,,,,,0,,,71,59
117100,set_tempo,28,1,0,,,,,,875912,,,,,,
117120,set_tempo,20,1,0,,,,,,983607,,,,,,
117120,note_on,0,0,0,,,,,,,,0,,,71,0
117120,note_on,0,0,0,,,,,,,,0,,,68,0
117120,note_on,0,0,0,,,,,,,,0,,,71,0
117120,note_on,0,0,0,,,,,,,,0,,,59,0
117120,note_on,0,0,0,,,,,,,,0,,,62,57
117120,note_on,0,0,0,,,,,,,,0,,,65,57
117120,note_on,0,0,0,,,,,,,,0,,,70,62
117120,note_on,0,0,0,,,,,,,,0,,,68,62
117131,control_change,11,0,0,,,,,,,,0,64,0,,
117180,note_on,49,0,0,,,,,,,,0,,,68,0
117180,note_on,0,0,0,,,,,,,,0,,,62,0
117180,note_on,0,0,0,,,,,,,,0,,,65,0
117180,note_on,0,0,0,,,,,,,,0,,,70,0
117330,note_on,150,0,0,,,,,,,,0,,,46,53
117360,set_tempo,30,1,0,,,,,,1025641,,,,,,
117360,note_on,0,0,0,,,,,,,,0,,,62,45
117360,note_on,0,0,0,,,,,,,,0,,,65,45
117360,note_on,0,0,0,,,,,,,,0,,,74,52
117360,note_on,0,0,0,,,,,,,,0,,,68,45
117360,note_on,0,0,0,,,,,,,,0,,,58,59
117400,note_on,40,0,0,,,,,,,,0,,,58,0
117400,note_on,0,0,0,,,,,,,,0,,,59,60
117440,note_on,40,0,0,,,,,,,,0,,,59,0
117440,note_on,0,0,0,,,,,,,,0,,,58,62
117450,note_on,10,0,0,,,,,,,,0,,,68,0
117450,note_on,0,0,0,,,,,,,,0,,,74,0
117450,note_on,0,0,0,,,,,,,,0,,,65,0
117450,note_on,0,0,0,,,,,,,,0,,,62,0
117480,note_on,30,0,0,,,,,,,,0,,,58,0
117480,note_on,0,0,0,,,,,,,,0,,,57,62
117520,note_on,40,0,0,,,,,,,,0,,,57,0
117520,note_on,0,0,0,,,,,,,,0,,,56,63
117560,note_on,40,0,0,,,,,,,,0,,,56,0
117560,note_on,0,0,0,,,,,,,,0,,,55,63
117600,set_tempo,40,1,0,,,,,,991736,,,,,,
117600,note_on,0,0,0,,,,,,,,0,,,55,0
117600,note_on,0,0,0,,,,,,,,0,,,46,0
117600,note_on,0,0,0,,,,,,,,0,,,63,60
117600,note_on,0,0,0,,,,,,,,0,,,71,60
117600,note_on,0,0,0,,,,,,,,0,,,75,67
117600,note_on,0,0,0,,,,,,,,0,,,66,60
117600,note_on,0,0,0,,,,,,,,0,,,42,56
117600,note_on,0,0,0,,,,,,,,0,,,54,63
117690,note_on,90,0,0,,,,,,,,0,,,54,0
117690,note_on,0,0,0,,,,,,,,0,,,71,0
117690,note_on,0,0,0,,,,,,,,0,,,75,0
117690,note_on,0,0,0,,,,,,,,0,,,63,0
117690,note_on,0,0,0,,,,,,,,0,,,42,0
117690,note_on,0,0,0,,,,,,,,0,,,66,0
117810,note_on,120,0,0,,,,,,,,0,,,39,57
117840,set_tempo,30,1,0,,,,,,1034483,,,,,,
117840,note_on,0,0,0,,,,,,,,0,,,66,60
117840,note_on,0,0,0,,,,,,,,0,,,69,60
117840,note_on,0,0,0,,,,,,,,0,,,72,60
117840,note_on,0,0,0,,,,,,,,0,,,78,67
117840,note_on,0,0,0,,,,,,,,0,,,51,64
117860,set_tempo,20,1,0,,,,,,1043478,,,,,,
117874,note_on,14,0,0,,,,,,,,0,,,51,0
117874,note_on,0,0,0,,,,,,,,0,,,53,64
117880,set_tempo,6,1,0,,,,,,1052632,,,,,,
117900,set_tempo,20,1,0,,,,,,1061947,,,,,,
117908,note_on,8,0,0,,,,,,,,0,,,53,0
117908,note_on,0,0,0,,,,,,,,0,,,51,64
117920,set_tempo,12,1,0,,,,,,1071429,,,,,,
117930,note_on,10,0,0,,,,,,,,0,,,78,0
117930,note_on,0,0,0,,,,,,,,0,,,72,0
117930,note_on,0,0,0,,,,,,,,0,,,69,0
117930,note_on,0,0,0,,,,,,,,0,,,66,0
117940,set_tempo,10,1,0,,,,,,1081081,,,,,,
117942,note_on,2,0,0,,,,,,,,0,,,51,0
117942,note_on,0,0,0,,,,,,,,0,,,50,64
117960,set_tempo,18,1,0,,,,,,1090909,,,,,,
117976,note_on,16,0,0,,,,,,,,0,,,50,0
117976,note_on,0,0,0,,,,,,,,0,,,49,64
117980,set_tempo,4,1,0,,,,,,1100917,,,,,,
118000,set_tempo,20,1,0,,,,,,1111111,,,,,,
118010,note_on,10,0,0,,,,,,,,0,,,49,0
118010,note_on,0,0,0,,,,,,,,0,,,48,64
118020,set_tempo,10,1,0,,,,,,1132075,,,,,,
118040,set_tempo,20,1,0,,,,,,1304348,,,,,,
118045,note_on,5,0,0,,,,,,,,0,,,48,0
118045,note_on,0,0,0,,,,,,,,0,,,47,64
118055,note_on,10,0,0,,,,,,,,0,,,34,69
118060,note_on,5,0,0,,,,,,,,0,,,46,77
118065,note_on,5,0,0,,,,,,,,0,,,65,63
118070,note_on,5,0,0,,,,,,,,0,,,70,63
118075,note_on,5,0,0,,,,,,,,0,,,74,63
118080,set_tempo,5,1,0,,,,,,1333333,,,,,,
118080,note_on,0,0,0,,,,,,,,0,,,47,0
118080,note_on,0,0,0,,,,,,,,0,,,39,0
118080,note_on,0,0,0,,,,,,,,0,,,82,79
118320,note_on,240,0,0,,,,,,,,0,,,82,0
118320,note_on,0,0,0,,,,,,,,0,,,74,0
118320,note_on,0,0,0,,,,,,,,0,,,65,0
118320,note_on,0,0,0,,,,,,,,0,,,70,0
118320,note_on,0,0,0,,,,,,,,0,,,34,0
118320,note_on,0,0,0,,,,,,,,0,,,58,65
118320,note_on,0,0,0,,,,,,,,0,,,53,65
118320,note_on,0,0,0,,,,,,,,0,,,50,58
118410,note_on,90,0,0,,,,,,,,0,,,50,0
118410,note_on,0,0,0,,,,,,,,0,,,53,0
118410,note_on,0,0,0,,,,,,,,0,,,58,0
118540,note_on,130,0,0,,,,,,,,0,,,46,0
118560,set_tempo,20,1,0,,,,,,1395349,,,,,,
118560,marker,0,1,0,,,,,,,,,,,,
118560,note_on,0,0,0,,,,,,,,0,,,70,72
118560,note_on,0,0,0,,,,,,,,0,,,82,80
118595,control_change,35,0,0,,,,,,,,0,64,127,,
118600,note_on,5,0,0,,,,,,,,0,,,70,0
118620,note_on,20,0,0,,,,,,,,0,,,82,0
118620,note_on,0,0,0,,,,,,,,0,,,81,63
118620,note_on,0,0,0,,,,,,,,0,,,93,70
118640,set_tempo,20,1,0,,,,,,930233,,,,,,
118640,note_on,0,0,0,,,,,,,,0,,,93,0
118640,note_on,0,0,0,,,,,,,,0,,,81,0
118640,note_on,0,0,0,,,,,,,,0,,,68,69
118640,note_on,0,0,0,,,,,,,,0,,,80,69
118680,set_tempo,40,1,0,,,,,,923077,,,,,,
118680,note_on,0,0,0,,,,,,,,0,,,91,71
118680,note_on,0,0,0,,,,,,,,0,,,79,63
118691,note_on,11,0,0,,,,,,,,0,,,80,0
118691,note_on,0,0,0,,,,,,,,0,,,68,0
118720,set_tempo,29,1,0,,,,,,916031,,,,,,
118720,note_on,0,0,0,,,,,,,,0,,,66,63
118720,note_on,0,0,0,,,,,,,,0,,,78,71
118732,note_on,12,0,0,,,,,,,,0,,,91,0
118732,note_on,0,0,0,,,,,,,,0,,,79,0
118760,set_tempo,28,1,0,,,,,,909091,,,,,,
118760,note_on,0,0,0,,,,,,,,0,,,89,73
118760,note_on,0,0,0,,,,,,,,0,,,77,65
118773,note_on,13,0,0,,,,,,,,0,,,66,0
118773,note_on,0,0,0,,,,,,,,0,,,78,0
118800,set_tempo,27,1,0,,,,,,902256,,,,,,
118800,note_on,0,0,0,,,,,,,,0,,,64,65
118800,note_on,0,0,0,,,,,,,,0,,,76,73
118814,note_on,14,0,0,,,,,,,,0,,,89,0
118814,note_on,0,0,0,,,,,,,,0,,,77,0
118840,set_tempo,26,1,0,,,,,,895522,,,,,,
118840,note_on,0,0,0,,,,,,,,0,,,87,76
118840,note_on,0,0,0,,,,,,,,0,,,75,67
118855,note_on,15,0,0,,,,,,,,0,,,64,0
118855,note_on,0,0,0,,,,,,,,0,,,76,0
118880,set_tempo,25,1,0,,,,,,888889,,,,,,
118880,note_on,0,0,0,,,,,,,,0,,,62,67
118880,note_on,0,0,0,,,,,,,,0,,,74,76
118896,note_on,16,0,0,,,,,,,,0,,,87,0
118896,note_on,0,0,0,,,,,,,,0,,,75,0
118920,set_tempo,24,1,0,,,,,,882353,,,,,,
118920,note_on,0,0,0,,,,,,,,0,,,85,79
118920,note_on,0,0,0,,,,,,,,0,,,73,71
118937,note_on,17,0,0,,,,,,,,0,,,62,0
118937,note_on,0,0,0,,,,,,,,0,,,74,0
118960,set_tempo,23,1,0,,,,,,875912,,,,,,
118960,note_on,0,0,0,,,,,,,,0,,,60,71
118960,note_on,0,0,0,,,,,,,,0,,,72,79
118978,note_on,18,0,0,,,,,,,,0,,,85,0
118978,note_on,0,0,0,,,,,,,,0,,,73,0
119000,set_tempo,22,1,0,,,,,,869565,,,,,,
119000,note_on,0,0,0,,,,,,,,0,,,83,82
119000,note_on,0,0,0,,,,,,,,0,,,71,73
119019,note_on,19,0,0,,,,,,,,0,,,60,0
119019,note_on,0,0,0,,,,,,,,0,,,72,0
119040,set_tempo,21,1,0,,,,,,1081081,,,,,,
119040,note_on,0,0,0,,,,,,,,0,,,58,81
119040,note_on,0,0,0,,,,,,,,0,,,70,90
119052,control_change,12,0,0,,,,,,,,0,64,0,,
119060,note_on,8,0,0,,,,,,,,0,,,83,0
119060,note_on,0,0,0,,,,,,,,0,,,71,0
119160,note_on,100,0,0,,,,,,,,0,,,58,0
119160,note_on,0,0,0,,,,,,,,0,,,70,0
119280,set_tempo,120,1,0,,,,,,1212121,,,,,,
119280,note_on,0,0,0,,,,,,,,0,,,50,64
119280,note_on,0,0,0,,,,,,,,0,,,53,64
119280,note_on,0,0,0,,,,,,,,0,,,58,64
119280,note_on,0,0,0,,,,,,,,0,,,62,72
119280,note_on,0,0,0,,,,,,,,0,,,34,64
119280,note_on,0,0,0,,,,,,,,0,,,41,64
119280,note_on,0,0,0,,,,,,,,0,,,46,64
119306,control_change,26,0,0,,,,,,,,0,64,127,,
119520,set_tempo,214,1,0,,,,,,1395349,,,,,,
119520,note_on,0,0,0,,,,,,,,0,,,46,0
119520,note_on,0,0,0,,,,,,,,0,,,34,0
119520,note_on,0,0,0,,,,,,,,0,,,53,0
119520,note_on,0,0,0,,,,,,,,0,,,58,0
119520,note_on,0,0,0,,,,,,,,0,,,50,0
119520,note_on,0,0,0,,,,,,,,0,,,41,0
119520,note_on,0,0,0,,,,,,,,0,,,62,0
119520,note_on,0,0,0,,,,,,,,0,,,74,72
119520,note_on,0,0,0,,,,,,,,0,,,86,80
119531,control_change,11,0,0,,,,,,,,0,64,0,,
119563,control_change,32,0,0,,,,,,,,0,64,127,,
119580,note_on,17,0,0,,,,,,,,0,,,86,0
119580,note_on,0,0,0,,,,,,,,0,,,74,0
119580,note_on,0,0,0,,,,,,,,0,,,85,63
119580,note_on,0,0,0,,,,,,,,0,,,97,70
119600,set_tempo,20,1,0,,,,,,930233,,,,,,
119600,note_on,0,0,0,,,,,,,,0,,,97,0
119600,note_on,0,0,0,,,,,,,,0,,,85,0
119600,note_on,0,0,0,,,,,,,,0,,,72,62
119600,note_on,0,0,0,,,,,,,,0,,,84,69
119640,set_tempo,40,1,0,,,,,,923077,,,,,,
119640,note_on,0,0,0,,,,,,,,0,,,95,71
119640,note_on,0,0,0,,,,,,,,0,,,83,63
119651,note_on,11,0,0,,,,,,,,0,,,84,0
119651,note_on,0,0,0,,,,,,,,0,,,72,0
119680,set_tempo,29,1,0,,,,,,916031,,,,,,
119680,note_on,0,0,0,,,,,,,,0,,,70,63
119680,note_on,0,0,0,,,,,,,,0,,,82,71
119692,note_on,12,0,0,,,,,,,,0,,,95,0
119692,note_on,0,0,0,,,,,,,,0,,,83,0
119720,set_tempo,28,1,0,,,,,,909091,,,,,,
119720,note_on,0,0,0,,,,,,,,0,,,93,73
119720,note_on,0,0,0,,,,,,,,0,,,81,65
119733,note_on,13,0,0,,,,,,,,0,,,70,0
119733,note_on,0,0,0,,,,,,,,0,,,82,0
119760,set_tempo,27,1,0,,,,,,902256,,,,,,
119760,note_on,0,0,0,,,,,,,,0,,,68,65
119760,note_on,0,0,0,,,,,,,,0,,,80,73
119774,note_on,14,0,0,,,,,,,,0,,,93,0
119774,note_on,0,0,0,,,,,,,,0,,,81,0
119800,set_tempo,26,1,0,,,,,,895522,,,,,,
119800,note_on,0,0,0,,,,,,,,0,,,91,76
119800,note_on,0,0,0,,,,,,,,0,,,79,67
119815,note_on,15,0,0,,,,,,,,0,,,68,0
119815,note_on,0,0,0,,,,,,,,0,,,80,0
119840,set_tempo,25,1,0,,,,,,888889,,,,,,
119840,note_on,0,0,0,,,,,,,,0,,,66,67
119840,note_on,0,0,0,,,,,,,,0,,,78,76
119856,note_on,16,0,0,,,,,,,,0,,,91,0
119856,note_on,0,0,0,,,,,,,,0,,,79,0
119880,set_tempo,24,1,0,,,,,,882353,,,,,,
119880,note_on,0,0,0,,,,,,,,0,,,89,79
119880,note_on,0,0,0,,,,,,,,0,,,77,71
119897,note_on,17,0,0,,,,,,,,0,,,66,0
119897,note_on,0,0,0,,,,,,,,0,,,78,0
119920,set_tempo,23,1,0,,,,,,875912,,,,,,
119920,note_on,0,0,0,,,,,,,,0,,,64,71
119920,note_on,0,0,0,,,,,,,,0,,,76,79
119938,note_on,18,0,0,,,,,,,,0,,,89,0
119938,note_on,0,0,0,,,,,,,,0,,,77,0
119960,set_tempo,22,1,0,,,,,,869565,,,,,,
119960,note_on,0,0,0,,,,,,,,0,,,87,82
119960,note_on,0,0,0,,,,,,,,0,,,75,73
119979,note_on,19,0,0,,,,,,,,0,,,64,0
119979,note_on,0,0,0,,,,,,,,0,,,76,0
120000,set_tempo,21,1,0,,,,,,1081081,,,,,,
120000,note_on,0,0,0,,,,,,,,0,,,62,81
120000,note_on,0,0,0,,,,,,,,0,,,74,90
120008,control_change,8,0,0,,,,,,,,0,64,0,,
120020,note_on,12,0,0,,,,,,,,0,,,87,0
120020,note_on,0,0,0,,,,,,,,0,,,75,0
120120,note_on,100,0,0,,,,,,,,0,,,62,0
120120,note_on,0,0,0,,,,,,,,0,,,74,0
120240,note_on,120,0,0,,,,,,,,0,,,65,72
120240,note_on,0,0,0,,,,,,,,0,,,53,64
120240,note_on,0,0,0,,,,,,,,0,,,58,64
120240,note_on,0,0,0,,,,,,,,0,,,62,64
120240,note_on,0,0,0,,,,,,,,0,,,34,64
120240,note_on,0,0,0,,,,,,,,0,,,41,64
120240,note_on,0,0,0,,,,,,,,0,,,50,64
120292,control_change,52,0,0,,,,,,,,0,64,127,,
120480,set_tempo,188,1,0,,,,,,1463415,,,,,,
120480,note_on,0,0,0,,,,,,,,0,,,50,0
120480,note_on,0,0,0,,,,,,,,0,,,34,0
120480,note_on,0,0,0,,,,,,,,0,,,53,0
120480,note_on,0,0,0,,,,,,,,0,,,58,0
120480,note_on,0,0,0,,,,,,,,0,,,65,0
120480,note_on,0,0,0,,,,,,,,0,,,41,0
120480,note_on,0,0,0,,,,,,,,0,,,62,0
120480,note_on,0,0,0,,,,,,,,0,,,77,66
120480,note_on,0,0,0,,,,,,,,0,,,89,74
120492,control_change,12,0,0,,,,,,,,0,64,0,,
120520,note_on,28,0,0,,,,,,,,0,,,89,0
120520,note_on,0,0,0,,,,,,,,0,,,77,0
120520,note_on,0,0,0,,,,,,,,0,,,88,59
120520,note_on,0,0,0,,,,,,,,0,,,100,66
120560,set_tempo,40,1,0,,,,,,916031,,,,,,
120560,note_on,0,0,0,,,,,,,,0,,,100,0
120560,note_on,0,0,0,,,,,,,,0,,,88,0
120560,note_on,0,0,0,,,,,,,,0,,,75,66
120560,note_on,0,0,0,,,,,,,,0,,,87,74
120600,set_tempo,40,1,0,,,,,,909091,,,,,,
120600,note_on,0,0,0,,,,,,,,0,,,87,0
120600,note_on,0,0,0,,,,,,,,0,,,75,0
120600,note_on,0,0,0,,,,,,,,0,,,98,66
120600,note_on,0,0,0,,,,,,,,0,,,86,59
120620,set_tempo,20,1,0,,,,,,902256,,,,,,
120640,set_tempo,20,1,0,,,,,,895522,,,,,,
120640,note_on,0,0,0,,,,,,,,0,,,86,0
120640,note_on,0,0,0,,,,,,,,0,,,98,0
120640,note_on,0,0,0,,,,,,,,0,,,73,67
120640,note_on,0,0,0,,,,,,,,0,,,85,76
120660,set_tempo,20,1,0,,,,,,888889,,,,,,
120680,set_tempo,20,1,0,,,,,,882353,,,,,,
120680,note_on,0,0,0,,,,,,,,0,,,85,0
120680,note_on,0,0,0,,,,,,,,0,,,73,0
120680,note_on,0,0,0,,,,,,,,0,,,96,67
120680,note_on,0,0,0,,,,,,,,0,,,84,60
120720,set_tempo,40,1,0,,,,,,875912,,,,,,
120720,note_on,0,0,0,,,,,,,,0,,,84,0
120720,note_on,0,0,0,,,,,,,,0,,,96,0
120720,note_on,0,0,0,,,,,,,,0,,,71,69
120720,note_on,0,0,0,,,,,,,,0,,,83,77
120740,set_tempo,20,1,0,,,,,,869565,,,,,,
120760,note_on,20,0,0,,,,,,,,0,,,83,0
120760,note_on,0,0,0,,,,,,,,0,,,71,0
120760,note_on,0,0,0,,,,,,,,0,,,94,67
120760,note_on,0,0,0,,,,,,,,0,,,82,60
120800,note_on,40,0,0,,,,,,,,0,,,82,0
120800,note_on,0,0,0,,,,,,,,0,,,94,0
120800,note_on,0,0,0,,,,,,,,0,,,69,70
120800,note_on,0,0,0,,,,,,,,0,,,81,78
120840,note_on,40,0,0,,,,,,,,0,,,81,0
120840,note_on,0,0,0,,,,,,,,0,,,69,0
120840,note_on,0,0,0,,,,,,,,0,,,92,69
120840,note_on,0,0,0,,,,,,,,0,,,80,62
120880,note_on,40,0,0,,,,,,,,0,,,80,0
120880,note_on,0,0,0,,,,,,,,0,,,92,0
120880,note_on,0,0,0,,,,,,,,0,,,67,71
120880,note_on,0,0,0,,,,,,,,0,,,79,79
120920,note_on,40,0,0,,,,,,,,0,,,79,0
120920,note_on,0,0,0,,,,,,,,0,,,67,0
120920,note_on,0,0,0,,,,,,,,0,,,90,69
120920,note_on,0,0,0,,,,,,,,0,,,78,62
120960,note_on,40,0,0,,,,,,,,0,,,78,0
120960,note_on,0,0,0,,,,,,,,0,,,90,0
120960,note_on,0,0,0,,,,,,,,0,,,65,71
120960,note_on,0,0,0,,,,,,,,0,,,77,79
121000,note_on,40,0,0,,,,,,,,0,,,77,0
121000,note_on,0,0,0,,,,,,,,0,,,65,0
121000,note_on,0,0,0,,,,,,,,0,,,76,63
121000,note_on,0,0,0,,,,,,,,0,,,88,70
121040,note_on,40,0,0,,,,,,,,0,,,88,0
121040,note_on,0,0,0,,,,,,,,0,,,76,0
121040,note_on,0,0,0,,,,,,,,0,,,63,72
121040,note_on,0,0,0,,,,,,,,0,,,75,80
121080,note_on,40,0,0,,,,,,,,0,,,75,0
121080,note_on,0,0,0,,,,,,,,0,,,63,0
121080,note_on,0,0,0,,,,,,,,0,,,86,70
121080,note_on,0,0,0,,,,,,,,0,,,74,63
121120,note_on,40,0,0,,,,,,,,0,,,74,0
121120,note_on,0,0,0,,,,,,,,0,,,86,0
121120,note_on,0,0,0,,,,,,,,0,,,61,72
121120,note_on,0,0,0,,,,,,,,0,,,73,81
121160,note_on,40,0,0,,,,,,,,0,,,61,0
121160,note_on,0,0,0,,,,,,,,0,,,84,71
121160,note_on,0,0,0,,,,,,,,0,,,72,63
121165,note_on,5,0,0,,,,,,,,0,,,73,0
121200,note_on,35,0,0,,,,,,,,0,,,59,73
121200,note_on,0,0,0,,,,,,,,0,,,71,82
121205,note_on,5,0,0,,,,,,,,0,,,72,0
121205,note_on,0,0,0,,,,,,,,0,,,84,0
121240,note_on,35,0,0,,,,,,,,0,,,82,71
121240,note_on,0,0,0,,,,,,,,0,,,70,63
121245,note_on,5,0,0,,,,,,,,0,,,59,0
121250,note_on,5,0,0,,,,,,,,0,,,71,0
121280,note_on,30,0,0,,,,,,,,0,,,57,73
121280,note_on,0,0,0,,,,,,,,0,,,69,82
121290,note_on,10,0,0,,,,,,,,0,,,82,0
121290,note_on,0,0,0,,,,,,,,0,,,70,0
121320,note_on,30,0,0,,,,,,,,0,,,80,72
121320,note_on,0,0,0,,,,,,,,0,,,68,64
121330,note_on,10,0,0,,,,,,,,0,,,57,0
121330,note_on,0,0,0,,,,,,,,0,,,69,0
121360,note_on,30,0,0,,,,,,,,0,,,55,73
121360,note_on,0,0,0,,,,,,,,0,,,67,83
121370,note_on,10,0,0,,,,,,,,0,,,80,0
121370,note_on,0,0,0,,,,,,,,0,,,68,0
121400,note_on,30,0,0,,,,,,,,0,,,78,72
121400,note_on,0,0,0,,,,,,,,0,,,66,64
121410,note_on,10,0,0,,,,,,,,0,,,55,0
121410,note_on,0,0,0,,,,,,,,0,,,67,0
121440,set_tempo,30,1,0,,,,,,869565,,,,,,
121440,note_on,0,0,0,,,,,,,,0,,,53,74
121440,note_on,0,0,0,,,,,,,,0,,,65,84
121450,note_on,10,0,0,,,,,,,,0,,,78,0
121450,note_on,0,0,0,,,,,,,,0,,,66,0
121454,control_change,4,0,0,,,,,,,,0,64,127,,
121480,note_on,26,0,0,,,,,,,,0,,,64,64
121480,note_on,0,0,0,,,,,,,,0,,,76,72
121490,note_on,10,0,0,,,,,,,,0,,,53,0
121490,note_on,0,0,0,,,,,,,,0,,,65,0
121520,set_tempo,30,1,0,,,,,,875912,,,,,,
121520,note_on,0,0,0,,,,,,,,0,,,51,76
121520,note_on,0,0,0,,,,,,,,0,,,63,85
121530,note_on,10,0,0,,,,,,,,0,,,64,0
121530,note_on,0,0,0,,,,,,,,0,,,76,0
121560,note_on,30,0,0,,,,,,,,0,,,74,72
121560,note_on,0,0,0,,,,,,,,0,,,62,64
121571,note_on,11,0,0,,,,,,,,0,,,51,0
121571,note_on,0,0,0,,,,,,,,0,,,63,0
121600,set_tempo,29,1,0,,,,,,882353,,,,,,
121600,note_on,0,0,0,,,,,,,,0,,,49,77
121600,note_on,0,0,0,,,,,,,,0,,,61,86
121612,note_on,12,0,0,,,,,,,,0,,,74,0
121612,note_on,0,0,0,,,,,,,,0,,,62,0
121640,note_on,28,0,0,,,,,,,,0,,,72,73
121640,note_on,0,0,0,,,,,,,,0,,,60,65
121653,note_on,13,0,0,,,,,,,,0,,,49,0
121653,note_on,0,0,0,,,,,,,,0,,,61,0
121680,set_tempo,27,1,0,,,,,,888889,,,,,,
121680,note_on,0,0,0,,,,,,,,0,,,47,77
121680,note_on,0,0,0,,,,,,,,0,,,59,86
121694,note_on,14,0,0,,,,,,,,0,,,72,0
121694,note_on,0,0,0,,,,,,,,0,,,60,0
121720,note_on,26,0,0,,,,,,,,0,,,70,73
121720,note_on,0,0,0,,,,,,,,0,,,58,65
121735,note_on,15,0,0,,,,,,,,0,,,47,0
121735,note_on,0,0,0,,,,,,,,0,,,59,0
121760,set_tempo,25,1,0,,,,,,895522,,,,,,
121760,note_on,0,0,0,,,,,,,,0,,,45,78
121760,note_on,0,0,0,,,,,,,,0,,,57,87
121776,note_on,16,0,0,,,,,,,,0,,,70,0
121776,note_on,0,0,0,,,,,,,,0,,,58,0
121800,note_on,24,0,0,,,,,,,,0,,,68,73
121800,note_on,0,0,0,,,,,,,,0,,,56,65
121817,note_on,17,0,0,,,,,,,,0,,,45,0
121817,note_on,0,0,0,,,,,,,,0,,,57,0
121840,set_tempo,23,1,0,,,,,,902256,,,,,,
121840,note_on,0,0,0,,,,,,,,0,,,41,79
121840,note_on,0,0,0,,,,,,,,0,,,53,88
121858,note_on,18,0,0,,,,,,,,0,,,68,0
121858,note_on,0,0,0,,,,,,,,0,,,56,0
121880,note_on,22,0,0,,,,,,,,0,,,62,73
121880,note_on,0,0,0,,,,,,,,0,,,50,65
121899,note_on,19,0,0,,,,,,,,0,,,41,0
121899,note_on,0,0,0,,,,,,,,0,,,53,0
121920,set_tempo,21,1,0,,,,,,909091,,,,,,
121920,note_on,0,0,0,,,,,,,,0,,,34,84
121920,note_on,0,0,0,,,,,,,,0,,,46,94
121929,control_change,9,0,0,,,,,,,,0,64,0,,
121940,note_on,11,0,0,,,,,,,,0,,,62,0
121940,note_on,0,0,0,,,,,,,,0,,,50,0
121985,control_change,45,0,0,,,,,,,,0,64,127,,
122140,set_tempo,155,1,0,,,,,,895522,,,,,,
122160,note_on,20,0,0,,,,,,,,0,,,34,0
122160,note_on,0,0,0,,,,,,,,0,,,46,0
122160,note_on,0,0,0,,,,,,,,0,,,45,74
122160,note_on,0,0,0,,,,,,,,0,,,33,74
122170,control_change,10,0,0,,,,,,,,0,64,0,,
122180,set_tempo,10,1,0,,,,,,882353,,,,,,
122200,note_on,20,0,0,,,,,,,,0,,,33,0
122200,note_on,0,0,0,,,,,,,,0,,,45,0
122200,note_on,0,0,0,,,,,,,,0,,,46,72
122200,note_on,0,0,0,,,,,,,,0,,,34,72
122220,set_tempo,20,1,0,,,,,,875912,,,,,,
122240,set_tempo,20,1,0,,,,,,869565,,,,,,
122240,note_on,0,0,0,,,,,,,,0,,,34,0
122240,note_on,0,0,0,,,,,,,,0,,,46,0
122240,note_on,0,0,0,,,,,,,,0,,,50,72
122240,note_on,0,0,0,,,,,,,,0,,,38,72
122280,set_tempo,40,1,0,,,,,,863309,,,,,,
122280,note_on,0,0,0,,,,,,,,0,,,53,73
122280,note_on,0,0,0,,,,,,,,0,,,41,73
122285,note_on,5,0,0,,,,,,,,0,,,38,0
122285,note_on,0,0,0,,,,,,,,0,,,50,0
122320,set_tempo,35,1,0,,,,,,857143,,,,,,
122320,note_on,0,0,0,,,,,,,,0,,,56,73
122320,note_on,0,0,0,,,,,,,,0,,,44,73
122326,note_on,6,0,0,,,,,,,,0,,,53,0
122326,note_on,0,0,0,,,,,,,,0,,,41,0
122340,set_tempo,14,1,0,,,,,,845070,,,,,,
122360,note_on,20,0,0,,,,,,,,0,,,58,74
122360,note_on,0,0,0,,,,,,,,0,,,46,74
122367,note_on,7,0,0,,,,,,,,0,,,56,0
122367,note_on,0,0,0,,,,,,,,0,,,44,0
122400,set_tempo,33,1,0,,,,,,833333,,,,,,
122400,note_on,0,0,0,,,,,,,,0,,,62,74
122400,note_on,0,0,0,,,,,,,,0,,,50,74
122408,note_on,8,0,0,,,,,,,,0,,,58,0
122408,note_on,0,0,0,,,,,,,,0,,,46,0
122431,control_change,23,0,0,,,,,,,,0,64,127,,
122440,note_on,9,0,0,,,,,,,,0,,,65,76
122440,note_on,0,0,0,,,,,,,,0,,,53,76
122449,note_on,9,0,0,,,,,,,,0,,,62,0
122449,note_on,0,0,0,,,,,,,,0,,,50,0
122480,note_on,31,0,0,,,,,,,,0,,,68,76
122480,note_on,0,0,0,,,,,,,,0,,,56,76
122490,note_on,10,0,0,,,,,,,,0,,,65,0
122490,note_on,0,0,0,,,,,,,,0,,,53,0
122520,note_on,30,0,0,,,,,,,,0,,,68,0
122520,note_on,0,0,0,,,,,,,,0,,,56,0
122520,note_on,0,0,0,,,,,,,,0,,,70,77
122520,note_on,0,0,0,,,,,,,,0,,,58,77
122560,note_on,40,0,0,,,,,,,,0,,,58,0
122560,note_on,0,0,0,,,,,,,,0,,,70,0
122560,note_on,0,0,0,,,,,,,,0,,,74,77
122560,note_on,0,0,0,,,,,,,,0,,,62,77
122600,note_on,40,0,0,,,,,,,,0,,,62,0
122600,note_on,0,0,0,,,,,,,,0,,,74,0
122600,note_on,0,0,0,,,,,,,,0,,,77,77
122600,note_on,0,0,0,,,,,,,,0,,,65,77
122640,note_on,40,0,0,,,,,,,,0,,,65,0
122640,note_on,0,0,0,,,,,,,,0,,,77,0
122640,note_on,0,0,0,,,,,,,,0,,,80,78
122640,note_on,0,0,0,,,,,,,,0,,,68,78
122680,set_tempo,40,1,0,,,,,,839161,,,,,,
122688,note_on,8,0,0,,,,,,,,0,,,68,0
122688,note_on,0,0,0,,,,,,,,0,,,80,0
122688,note_on,0,0,0,,,,,,,,0,,,82,78
122688,note_on,0,0,0,,,,,,,,0,,,70,78
122736,note_on,48,0,0,,,,,,,,0,,,70,0
122736,note_on,0,0,0,,,,,,,,0,,,82,0
122736,note_on,0,0,0,,,,,,,,0,,,86,79
122736,note_on,0,0,0,,,,,,,,0,,,74,79
122740,set_tempo,4,1,0,,,,,,845070,,,,,,
122784,note_on,44,0,0,,,,,,,,0,,,74,0
122784,note_on,0,0,0,,,,,,,,0,,,86,0
122784,note_on,0,0,0,,,,,,,,0,,,89,80
122784,note_on,0,0,0,,,,,,,,0,,,77,80
122832,note_on,48,0,0,,,,,,,,0,,,77,0
122832,note_on,0,0,0,,,,,,,,0,,,89,0
122832,note_on,0,0,0,,,,,,,,0,,,92,80
122832,note_on,0,0,0,,,,,,,,0,,,80,80
122880,set_tempo,48,1,0,,,,,,1000000,,,,,,
122880,note_on,0,0,0,,,,,,,,0,,,80,0
122880,note_on,0,0,0,,,,,,,,0,,,92,0
122880,note_on,0,0,0,,,,,,,,0,,,93,81
122880,note_on,0,0,0,,,,,,,,0,,,81,81
122889,control_change,9,0,0,,,,,,,,0,64,0,,
122905,note_on,16,0,0,,,,,,,,0,,,81,0
122905,note_on,0,0,0,,,,,,,,0,,,93,0
122914,note_on,9,0,0,,,,,,,,0,,,96,78
122914,note_on,0,0,0,,,,,,,,0,,,84,78
122940,set_tempo,26,1,0,,,,,,991736,,,,,,
122944,note_on,4,0,0,,,,,,,,0,,,84,0
122944,note_on,0,0,0,,,,,,,,0,,,96,0
122948,note_on,4,0,0,,,,,,,,0,,,94,77
122948,note_on,0,0,0,,,,,,,,0,,,82,77
122978,note_on,30,0,0,,,,,,,,0,,,82,0
122978,note_on,0,0,0,,,,,,,,0,,,94,0
122982,note_on,4,0,0,,,,,,,,0,,,92,77
122982,note_on,0,0,0,,,,,,,,0,,,80,77
123000,set_tempo,18,1,0,,,,,,983607,,,,,,
123012,note_on,12,0,0,,,,,,,,0,,,80,0
123012,note_on,0,0,0,,,,,,,,0,,,92,0
123016,note_on,4,0,0,,,,,,,,0,,,89,77
123016,note_on,0,0,0,,,,,,,,0,,,77,77
123020,set_tempo,4,1,0,,,,,,975610,,,,,,
123040,set_tempo,20,1,0,,,,,,967742,,,,,,
123046,note_on,6,0,0,,,,,,,,0,,,77,0
123046,note_on,0,0,0,,,,,,,,0,,,89,0
123050,note_on,4,0,0,,,,,,,,0,,,86,77
123050,note_on,0,0,0,,,,,,,,0,,,74,77
123060,set_tempo,10,1,0,,,,,,960000,,,,,,
123080,note_on,20,0,0,,,,,,,,0,,,74,0
123080,note_on,0,0,0,,,,,,,,0,,,86,0
123084,note_on,4,0,0,,,,,,,,0,,,82,77
123084,note_on,0,0,0,,,,,,,,0,,,70,77
123114,note_on,30,0,0,,,,,,,,0,,,70,0
123114,note_on,0,0,0,,,,,,,,0,,,82,0
123120,set_tempo,6,1,0,,,,,,952381,,,,,,
123120,note_on,0,0,0,,,,,,,,0,,,81,81
123120,note_on,0,0,0,,,,,,,,0,,,69,81
123150,note_on,30,0,0,,,,,,,,0,,,69,0
123150,note_on,0,0,0,,,,,,,,0,,,81,0
123154,note_on,4,0,0,,,,,,,,0,,,84,78
123154,note_on,0,0,0,,,,,,,,0,,,72,78
123160,set_tempo,6,1,0,,,,,,944882,,,,,,
123188,note_on,28,0,0,,,,,,,,0,,,72,0
123188,note_on,0,0,0,,,,,,,,0,,,84,0
123188,note_on,0,0,0,,,,,,,,0,,,82,77
123188,note_on,0,0,0,,,,,,,,0,,,70,77
123222,note_on,34,0,0,,,,,,,,0,,,70,0
123222,note_on,0,0,0,,,,,,,,0,,,82,0
123222,note_on,0,0,0,,,,,,,,0,,,80,77
123222,note_on,0,0,0,,,,,,,,0,,,68,77
123256,note_on,34,0,0,,,,,,,,0,,,68,0
123256,note_on,0,0,0,,,,,,,,0,,,80,0
123256,note_on,0,0,0,,,,,,,,0,,,77,77
123256,note_on,0,0,0,,,,,,,,0,,,65,77
123290,note_on,34,0,0,,,,,,,,0,,,65,0
123290,note_on,0,0,0,,,,,,,,0,,,77,0
123290,note_on,0,0,0,,,,,,,,0,,,74,77
123290,note_on,0,0,0,,,,,,,,0,,,62,77
123324,note_on,34,0,0,,,,,,,,0,,,62,0
123324,note_on,0,0,0,,,,,,,,0,,,74,0
123324,note_on,0,0,0,,,,,,,,0,,,70,77
123324,note_on,0,0,0,,,,,,,,0,,,58,77
123358,note_on,34,0,0,,,,,,,,0,,,58,0
123358,note_on,0,0,0,,,,,,,,0,,,70,0
123360,note_on,2,0,0,,,,,,,,0,,,69,81
123360,note_on,0,0,0,,,,,,,,0,,,57,81
123390,note_on,30,0,0,,,,,,,,0,,,57,0
123390,note_on,0,0,0,,,,,,,,0,,,69,0
123394,note_on,4,0,0,,,,,,,,0,,,72,78
123394,note_on,0,0,0,,,,,,,,0,,,60,78
123428,note_on,34,0,0,,,,,,,,0,,,60,0
123428,note_on,0,0,0,,,,,,,,0,,,72,0
123428,note_on,0,0,0,,,,,,,,0,,,70,77
123428,note_on,0,0,0,,,,,,,,0,,,58,77
123462,note_on,34,0,0,,,,,,,,0,,,58,0
123462,note_on,0,0,0,,,,,,,,0,,,70,0
123462,note_on,0,0,0,,,,,,,,0,,,68,77
123462,note_on,0,0,0,,,,,,,,0,,,56,77
123496,note_on,34,0,0,,,,,,,,0,,,56,0
123496,note_on,0,0,0,,,,,,,,0,,,68,0
123496,note_on,0,0,0,,,,,,,,0,,,65,77
123496,note_on,0,0,0,,,,,,,,0,,,53,77
123530,note_on,34,0,0,,,,,,,,0,,,53,0
123530,note_on,0,0,0,,,,,,,,0,,,65,0
123530,note_on,0,0,0,,,,,,,,0,,,62,77
123530,note_on,0,0,0,,,,,,,,0,,,50,77
123564,note_on,34,0,0,,,,,,,,0,,,50,0
123564,note_on,0,0,0,,,,,,,,0,,,62,0
123564,note_on,0,0,0,,,,,,,,0,,,58,76
123564,note_on,0,0,0,,,,,,,,0,,,46,76
123598,note_on,34,0,0,,,,,,,,0,,,46,0
123598,note_on,0,0,0,,,,,,,,0,,,58,0
123600,set_tempo,2,1,0,,,,,,857143,,,,,,
123600,note_on,0,0,0,,,,,,,,0,,,57,78
123600,note_on,0,0,0,,,,,,,,0,,,45,78
123640,set_tempo,40,1,0,,,,,,863309,,,,,,
123648,note_on,8,0,0,,,,,,,,0,,,58,80
123648,note_on,0,0,0,,,,,,,,0,,,46,80
123650,note_on,2,0,0,,,,,,,,0,,,45,0
123650,note_on,0,0,0,,,,,,,,0,,,57,0
123680,set_tempo,30,1,0,,,,,,869565,,,,,,
123696,note_on,16,0,0,,,,,,,,0,,,62,83
123696,note_on,0,0,0,,,,,,,,0,,,50,83
123698,note_on,2,0,0,,,,,,,,0,,,58,0
123698,note_on,0,0,0,,,,,,,,0,,,46,0
123700,set_tempo,2,1,0,,,,,,875912,,,,,,
123740,set_tempo,40,1,0,,,,,,882353,,,,,,
123744,note_on,4,0,0,,,,,,,,0,,,65,85
123744,note_on,0,0,0,,,,,,,,0,,,53,85
123746,note_on,2,0,0,,,,,,,,0,,,62,0
123746,note_on,0,0,0,,,,,,,,0,,,50,0
123760,set_tempo,14,1,0,,,,,,888889,,,,,,
123792,note_on,32,0,0,,,,,,,,0,,,68,88
123792,note_on,0,0,0,,,,,,,,0,,,56,88
123799,note_on,7,0,0,,,,,,,,0,,,65,0
123799,note_on,0,0,0,,,,,,,,0,,,53,0
123800,set_tempo,1,1,0,,,,,,895522,,,,,,
123820,set_tempo,20,1,0,,,,,,902256,,,,,,
123840,time_signature,20,1,0,3,4,24,8,,,,,,,,
123840,set_tempo,0,1,0,,,,,,7058824,,,,,,
123840,marker,0,1,0,,,,,,,,,,,,
123840,note_on,0,0,0,,,,,,,,0,,,68,0
123840,note_on,0,0,0,,,,,,,,0,,,56,0
123840,note_on,0,0,0,,,,,,,,0,,,45,73
123840,note_on,0,0,0,,,,,,,,0,,,57,92
123870,note_on,30,0,0,,,,,,,,0,,,57,0
123870,note_on,0,0,0,,,,,,,,0,,,45,0
123871,control_change,1,0,0,,,,,,,,0,64,127,,
123877,note_on,6,0,0,,,,,,,,0,,,58,77
123877,note_on,0,0,0,,,,,,,,0,,,70,91
123880,set_tempo,3,1,0,,,,,,1714286,,,,,,
123890,note_on,10,0,0,,,,,,,,0,,,70,0
123890,note_on,0,0,0,,,,,,,,0,,,58,0
123890,note_on,0,0,0,,,,,,,,0,,,51,59
123890,note_on,0,0,0,,,,,,,,0,,,63,75
123900,set_tempo,10,1,0,,,,,,1690141,,,,,,
123915,note_on,15,0,0,,,,,,,,0,,,74,74
123915,note_on,0,0,0,,,,,,,,0,,,62,74
123920,set_tempo,5,1,0,,,,,,1643836,,,,,,
123927,note_on,7,0,0,,,,,,,,0,,,63,0
123927,note_on,0,0,0,,,,,,,,0,,,51,0
123940,set_tempo,13,1,0,,,,,,1600000,,,,,,
123940,note_on,0,0,0,,,,,,,,0,,,49,60
123940,note_on,0,0,0,,,,,,,,0,,,61,76
123952,note_on,12,0,0,,,,,,,,0,,,74,0
123952,note_on,0,0,0,,,,,,,,0,,,62,0
123960,set_tempo,8,1,0,,,,,,1558442,,,,,,
123965,note_on,5,0,0,,,,,,,,0,,,72,77
123965,note_on,0,0,0,,,,,,,,0,,,60,64
123977,note_on,12,0,0,,,,,,,,0,,,49,0
123977,note_on,0,0,0,,,,,,,,0,,,61,0
123980,set_tempo,3,1,0,,,,,,1518987,,,,,,
123990,note_on,10,0,0,,,,,,,,0,,,47,63
123990,note_on,0,0,0,,,,,,,,0,,,59,78
124000,set_tempo,10,1,0,,,,,,1500000,,,,,,
124002,note_on,2,0,0,,,,,,,,0,,,72,0
124002,note_on,0,0,0,,,,,,,,0,,,60,0
124015,note_on,13,0,0,,,,,,,,0,,,70,78
124015,note_on,0,0,0,,,,,,,,0,,,58,65
124020,set_tempo,5,1,0,,,,,,1463415,,,,,,
124027,note_on,7,0,0,,,,,,,,0,,,47,0
124027,note_on,0,0,0,,,,,,,,0,,,59,0
124040,set_tempo,13,1,0,,,,,,1428571,,,,,,
124040,note_on,0,0,0,,,,,,,,0,,,45,64
124040,note_on,0,0,0,,,,,,,,0,,,57,81
124052,note_on,12,0,0,,,,,,,,0,,,70,0
124052,note_on,0,0,0,,,,,,,,0,,,58,0
124060,set_tempo,8,1,0,,,,,,1395349,,,,,,
124065,note_on,5,0,0,,,,,,,,0,,,68,81
124065,note_on,0,0,0,,,,,,,,0,,,56,68
124077,note_on,12,0,0,,,,,,,,0,,,45,0
124077,note_on,0,0,0,,,,,,,,0,,,57,0
124080,set_tempo,3,1,0,,,,,,1363636,,,,,,
124090,note_on,10,0,0,,,,,,,,0,,,43,65
124090,note_on,0,0,0,,,,,,,,0,,,55,81
124100,set_tempo,10,1,0,,,,,,1333333,,,,,,
124102,note_on,2,0,0,,,,,,,,0,,,68,0
124102,note_on,0,0,0,,,,,,,,0,,,56,0
124115,note_on,13,0,0,,,,,,,,0,,,66,81
124115,note_on,0,0,0,,,,,,,,0,,,54,69
124120,set_tempo,5,1,0,,,,,,1318681,,,,,,
124127,note_on,7,0,0,,,,,,,,0,,,43,0
124127,note_on,0,0,0,,,,,,,,0,,,55,0
124140,set_tempo,13,1,0,,,,,,1290323,,,,,,
124140,note_on,0,0,0,,,,,,,,0,,,41,66
124140,note_on,0,0,0,,,,,,,,0,,,53,84
124152,note_on,12,0,0,,,,,,,,0,,,66,0
124152,note_on,0,0,0,,,,,,,,0,,,54,0
124160,set_tempo,8,1,0,,,,,,1263158,,,,,,
124165,note_on,5,0,0,,,,,,,,0,,,64,84
124165,note_on,0,0,0,,,,,,,,0,,,52,72
124177,note_on,12,0,0,,,,,,,,0,,,41,0
124177,note_on,0,0,0,,,,,,,,0,,,53,0
124180,set_tempo,3,1,0,,,,,,1237113,,,,,,
124190,note_on,10,0,0,,,,,,,,0,,,39,69
124190,note_on,0,0,0,,,,,,,,0,,,51,87
124200,set_tempo,10,1,0,,,,,,1212121,,,,,,
124202,note_on,2,0,0,,,,,,,,0,,,64,0
124202,note_on,0,0,0,,,,,,,,0,,,52,0
124215,note_on,13,0,0,,,,,,,,0,,,62,86
124215,note_on,0,0,0,,,,,,,,0,,,50,72
124220,set_tempo,5,1,0,,,,,,1200000,,,,,,
124227,note_on,7,0,0,,,,,,,,0,,,39,0
124227,note_on,0,0,0,,,,,,,,0,,,51,0
124240,set_tempo,13,1,0,,,,,,1176471,,,,,,
124240,note_on,0,0,0,,,,,,,,0,,,49,89
124240,note_on,0,0,0,,,,,,,,0,,,37,89
124252,note_on,12,0,0,,,,,,,,0,,,62,0
124252,note_on,0,0,0,,,,,,,,0,,,50,0
124260,set_tempo,8,1,0,,,,,,1153846,,,,,,
124265,note_on,5,0,0,,,,,,,,0,,,48,73
124265,note_on,0,0,0,,,,,,,,0,,,60,88
124277,note_on,12,0,0,,,,,,,,0,,,49,0
124277,note_on,0,0,0,,,,,,,,0,,,37,0
124280,set_tempo,3,1,0,,,,,,1132075,,,,,,
124290,note_on,10,0,0,,,,,,,,0,,,35,72
124290,note_on,0,0,0,,,,,,,,0,,,47,90
124300,set_tempo,10,1,0,,,,,,1111111,,,,,,
124302,note_on,2,0,0,,,,,,,,0,,,48,0
124302,note_on,0,0,0,,,,,,,,0,,,60,0
124320,set_tempo,18,1,0,,,,,,1000000,,,,,,
124320,note_on,0,0,0,,,,,,,,0,,,34,69
124320,note_on,0,0,0,,,,,,,,0,,,46,87
124332,control_change,12,0,0,,,,,,,,0,64,0,,
124335,note_on,3,0,0,,,,,,,,0,,,35,0
124335,note_on,0,0,0,,,,,,,,0,,,47,0
124410,note_on,75,0,0,,,,,,,,0,,,34,0
124410,note_on,0,0,0,,,,,,,,0,,,46,0
124560,set_tempo,150,1,0,,,,,,1090909,,,,,,
124560,note_on,0,0,0,,,,,,,,0,,,63,72
124560,note_on,0,0,0,,,,,,,,0,,,67,72
124560,note_on,0,0,0,,,,,,,,0,,,75,81
124560,note_on,0,0,0,,,,,,,,0,,,51,71
124560,note_on,0,0,0,,,,,,,,0,,,39,71
124560,note_on,0,0,0,,,,,,,,0,,,46,71
124660,note_on,100,0,0,,,,,,,,0,,,46,0
124660,note_on,0,0,0,,,,,,,,0,,,67,0
124660,note_on,0,0,0,,,,,,,,0,,,75,0
124660,note_on,0,0,0,,,,,,,,0,,,63,0
124660,note_on,0,0,0,,,,,,,,0,,,39,0
124660,note_on,0,0,0,,,,,,,,0,,,51,0
124800,set_tempo,140,1,0,,,,,,1121495,,,,,,
124800,note_on,0,0,0,,,,,,,,0,,,65,78
124800,note_on,0,0,0,,,,,,,,0,,,68,78
124800,note_on,0,0,0,,,,,,,,0,,,77,87
124800,note_on,0,0,0,,,,,,,,0,,,53,73
124800,note_on,0,0,0,,,,,,,,0,,,39,73
124800,note_on,0,0,0,,,,,,,,0,,,46,73
124900,note_on,100,0,0,,,,,,,,0,,,46,0
124900,note_on,0,0,0,,,,,,,,0,,,68,0
124900,note_on,0,0,0,,,,,,,,0,,,77,0
124900,note_on,0,0,0,,,,,,,,0,,,65,0
124900,note_on,0,0,0,,,,,,,,0,,,39,0
124900,note_on,0,0,0,,,,,,,,0,,,53,0
125040,set_tempo,140,1,0,,,,,,1188119,,,,,,
125040,note_on,0,0,0,,,,,,,,0,,,66,72
125040,note_on,0,0,0,,,,,,,,0,,,69,72
125040,note_on,0,0,0,,,,,,,,0,,,78,81
125040,note_on,0,0,0,,,,,,,,0,,,54,71
125040,note_on,0,0,0,,,,,,,,0,,,39,71
125040,note_on,0,0,0,,,,,,,,0,,,46,71
125140,note_on,100,0,0,,,,,,,,0,,,46,0
125140,note_on,0,0,0,,,,,,,,0,,,69,0
125140,note_on,0,0,0,,,,,,,,0,,,78,0
125140,note_on,0,0,0,,,,,,,,0,,,66,0
125140,note_on,0,0,0,,,,,,,,0,,,39,0
125140,note_on,0,0,0,,,,,,,,0,,,54,0
125280,time_signature,140,1,0,4,4,24,8,,,,,,,,
125280,set_tempo,0,1,0,,,,,,1290323,,,,,,
125280,note_on,0,0,0,,,,,,,,0,,,70,78
125280,note_on,0,0,0,,,,,,,,0,,,67,78
125280,note_on,0,0,0,,,,,,,,0,,,79,87
125280,note_on,0,0,0,,,,,,,,0,,,55,73
125280,note_on,0,0,0,,,,,,,,0,,,39,73
125280,note_on,0,0,0,,,,,,,,0,,,46,73
125520,set_tempo,240,1,0,,,,,,1165049,,,,,,
125520,note_on,0,0,0,,,,,,,,0,,,55,0
125520,note_on,0,0,0,,,,,,,,0,,,79,0
125520,note_on,0,0,0,,,,,,,,0,,,70,0
125520,note_on,0,0,0,,,,,,,,0,,,67,0
125520,note_on,0,0,0,,,,,,,,0,,,63,72
125520,note_on,0,0,0,,,,,,,,0,,,75,80
125520,note_on,0,0,0,,,,,,,,0,,,51,71
125640,note_on,120,0,0,,,,,,,,0,,,51,0
125640,note_on,0,0,0,,,,,,,,0,,,63,0
125640,note_on,0,0,0,,,,,,,,0,,,75,0
125760,set_tempo,120,1,0,,,,,,1714286,,,,,,
125760,note_on,0,0,0,,,,,,,,0,,,46,0
125760,note_on,0,0,0,,,,,,,,0,,,39,0
125760,note_on,0,0,0,,,,,,,,0,,,45,71
125760,note_on,0,0,0,,,,,,,,0,,,57,80
125766,control_change,6,0,0,,,,,,,,0,64,127,,
125805,note_on,39,0,0,,,,,,,,0,,,57,0
125805,note_on,0,0,0,,,,,,,,0,,,45,0
125811,note_on,6,0,0,,,,,,,,0,,,58,72
125811,note_on,0,0,0,,,,,,,,0,,,70,81
125820,set_tempo,9,1,0,,,,,,1263158,,,,,,
125828,note_on,8,0,0,,,,,,,,0,,,70,0
125828,note_on,0,0,0,,,,,,,,0,,,58,0
125828,note_on,0,0,0,,,,,,,,0,,,55,67
125828,note_on,0,0,0,,,,,,,,0,,,67,76
125840,set_tempo,12,1,0,,,,,,1250000,,,,,,
125860,set_tempo,20,1,0,,,,,,1224490,,,,,,
125862,note_on,2,0,0,,,,,,,,0,,,65,65
125862,note_on,0,0,0,,,,,,,,0,,,77,72
125879,note_on,17,0,0,,,,,,,,0,,,67,0
125879,note_on,0,0,0,,,,,,,,0,,,55,0
125880,set_tempo,1,1,0,,,,,,1200000,,,,,,
125896,note_on,16,0,0,,,,,,,,0,,,51,68
125896,note_on,0,0,0,,,,,,,,0,,,63,78
125900,set_tempo,4,1,0,,,,,,1176471,,,,,,
125913,note_on,13,0,0,,,,,,,,0,,,65,0
125913,note_on,0,0,0,,,,,,,,0,,,77,0
125920,set_tempo,7,1,0,,,,,,1153846,,,,,,
125930,note_on,10,0,0,,,,,,,,0,,,62,67
125930,note_on,0,0,0,,,,,,,,0,,,74,75
125940,set_tempo,10,1,0,,,,,,1142857,,,,,,
125947,note_on,7,0,0,,,,,,,,0,,,51,0
125947,note_on,0,0,0,,,,,,,,0,,,63,0
125960,set_tempo,13,1,0,,,,,,1121495,,,,,,
125964,note_on,4,0,0,,,,,,,,0,,,48,72
125964,note_on,0,0,0,,,,,,,,0,,,60,81
125980,set_tempo,16,1,0,,,,,,1100917,,,,,,
125981,note_on,1,0,0,,,,,,,,0,,,62,0
125981,note_on,0,0,0,,,,,,,,0,,,74,0
125998,note_on,17,0,0,,,,,,,,0,,,58,70
125998,note_on,0,0,0,,,,,,,,0,,,70,80
126000,set_tempo,2,1,0,,,,,,1081081,,,,,,
126015,note_on,15,0,0,,,,,,,,0,,,48,0
126015,note_on,0,0,0,,,,,,,,0,,,60,0
126020,set_tempo,5,1,0,,,,,,1061947,,,,,,
126032,note_on,12,0,0,,,,,,,,0,,,44,75
126032,note_on,0,0,0,,,,,,,,0,,,56,84
126040,set_tempo,8,1,0,,,,,,1052632,,,,,,
126049,note_on,9,0,0,,,,,,,,0,,,58,0
126049,note_on,0,0,0,,,,,,,,0,,,70,0
126060,set_tempo,11,1,0,,,,,,1034483,,,,,,
126066,note_on,6,0,0,,,,,,,,0,,,55,72
126066,note_on,0,0,0,,,,,,,,0,,,67,81
126080,set_tempo,14,1,0,,,,,,1016949,,,,,,
126083,note_on,3,0,0,,,,,,,,0,,,44,0
126083,note_on,0,0,0,,,,,,,,0,,,56,0
126100,set_tempo,17,1,0,,,,,,1000000,,,,,,
126100,note_on,0,0,0,,,,,,,,0,,,41,78
126100,note_on,0,0,0,,,,,,,,0,,,53,86
126117,note_on,17,0,0,,,,,,,,0,,,55,0
126117,note_on,0,0,0,,,,,,,,0,,,67,0
126120,set_tempo,3,1,0,,,,,,983607,,,,,,
126134,note_on,14,0,0,,,,,,,,0,,,51,77
126134,note_on,0,0,0,,,,,,,,0,,,63,86
126140,set_tempo,6,1,0,,,,,,975610,,,,,,
126151,note_on,11,0,0,,,,,,,,0,,,41,0
126151,note_on,0,0,0,,,,,,,,0,,,53,0
126160,set_tempo,9,1,0,,,,,,960000,,,,,,
126168,note_on,8,0,0,,,,,,,,0,,,38,80
126168,note_on,0,0,0,,,,,,,,0,,,50,89
126180,set_tempo,12,1,0,,,,,,944882,,,,,,
126185,note_on,5,0,0,,,,,,,,0,,,51,0
126185,note_on,0,0,0,,,,,,,,0,,,63,0
126200,set_tempo,15,1,0,,,,,,930233,,,,,,
126202,note_on,2,0,0,,,,,,,,0,,,48,78
126202,note_on,0,0,0,,,,,,,,0,,,60,88
126219,note_on,17,0,0,,,,,,,,0,,,38,0
126219,note_on,0,0,0,,,,,,,,0,,,50,0
126220,set_tempo,1,1,0,,,,,,916031,,,,,,
126240,set_tempo,20,1,0,,,,,,991736,,,,,,
126240,note_on,0,0,0,,,,,,,,0,,,34,81
126240,note_on,0,0,0,,,,,,,,0,,,46,90
126248,control_change,8,0,0,,,,,,,,0,64,0,,
126259,note_on,11,0,0,,,,,,,,0,,,48,0
126259,note_on,0,0,0,,,,,,,,0,,,60,0
126330,note_on,71,0,0,,,,,,,,0,,,34,0
126330,note_on,0,0,0,,,,,,,,0,,,46,0
126480,set_tempo,150,1,0,,,,,,1153846,,,,,,
126480,note_on,0,0,0,,,,,,,,0,,,63,71
126480,note_on,0,0,0,,,,,,,,0,,,67,71
126480,note_on,0,0,0,,,,,,,,0,,,75,79
126480,note_on,0,0,0,,,,,,,,0,,,51,74
126480,note_on,0,0,0,,,,,,,,0,,,39,66
126480,note_on,0,0,0,,,,,,,,0,,,46,66
126580,note_on,100,0,0,,,,,,,,0,,,46,0
126580,note_on,0,0,0,,,,,,,,0,,,67,0
126580,note_on,0,0,0,,,,,,,,0,,,75,0
126580,note_on,0,0,0,,,,,,,,0,,,63,0
126580,note_on,0,0,0,,,,,,,,0,,,39,0
126580,note_on,0,0,0,,,,,,,,0,,,51,0
126720,set_tempo,140,1,0,,,,,,1200000,,,,,,
126720,note_on,0,0,0,,,,,,,,0,,,65,76
126720,note_on,0,0,0,,,,,,,,0,,,68,76
126720,note_on,0,0,0,,,,,,,,0,,,77,85
126720,note_on,0,0,0,,,,,,,,0,,,50,79
126720,note_on,0,0,0,,,,,,,,0,,,53,79
126720,note_on,0,0,0,,,,,,,,0,,,39,71
126720,note_on,0,0,0,,,,,,,,0,,,47,71
126820,note_on,100,0,0,,,,,,,,0,,,47,0
126820,note_on,0,0,0,,,,,,,,0,,,53,0
126820,note_on,0,0,0,,,,,,,,0,,,68,0
126820,note_on,0,0,0,,,,,,,,0,,,77,0
126820,note_on,0,0,0,,,,,,,,0,,,65,0
126820,note_on,0,0,0,,,,,,,,0,,,39,0
126820,note_on,0,0,0,,,,,,,,0,,,50,0
126960,set_tempo,140,1,0,,,,,,1379310,,,,,,
126960,note_on,0,0,0,,,,,,,,0,,,67,71
126960,note_on,0,0,0,,,,,,,,0,,,70,71
126960,note_on,0,0,0,,,,,,,,0,,,79,79
126960,note_on,0,0,0,,,,,,,,0,,,55,74
126960,note_on,0,0,0,,,,,,,,0,,,39,66
126960,note_on,0,0,0,,,,,,,,0,,,46,66
127060,note_on,100,0,0,,,,,,,,0,,,46,0
127060,note_on,0,0,0,,,,,,,,0,,,70,0
127060,note_on,0,0,0,,,,,,,,0,,,79,0
127060,note_on,0,0,0,,,,,,,,0,,,67,0
127060,note_on,0,0,0,,,,,,,,0,,,39,0
127060,note_on,0,0,0,,,,,,,,0,,,55,0
127200,set_tempo,140,1,0,,,,,,1224490,,,,,,
127200,note_on,0,0,0,,,,,,,,0,,,67,66
127200,note_on,0,0,0,,,,,,,,0,,,63,66
127200,note_on,0,0,0,,,,,,,,0,,,75,74
127200,note_on,0,0,0,,,,,,,,0,,,51,72
127200,note_on,0,0,0,,,,,,,,0,,,39,64
127200,note_on,0,0,0,,,,,,,,0,,,46,64
127660,note_on,460,0,0,,,,,,,,0,,,46,0
127660,note_on,0,0,0,,,,,,,,0,,,63,0
127660,note_on,0,0,0,,,,,,,,0,,,75,0
127660,note_on,0,0,0,,,,,,,,0,,,67,0
127660,note_on,0,0,0,,,,,,,,0,,,39,0
127660,note_on,0,0,0,,,,,,,,0,,,51,0
127680,set_tempo,20,1,0,,,,,,1043478,,,,,,
127680,note_on,0,0,0,,,,,,,,0,,,93,41
127710,note_on,30,0,0,,,,,,,,0,,,93,0
127712,note_on,2,0,0,,,,,,,,0,,,94,36
127740,set_tempo,28,1,0,,,,,,902256,,,,,,
127742,note_on,2,0,0,,,,,,,,0,,,94,0
127744,note_on,2,0,0,,,,,,,,0,,,99,38
127768,note_on,24,0,0,,,,,,,,0,,,99,0
127770,note_on,2,0,0,,,,,,,,0,,,96,36
127794,note_on,24,0,0,,,,,,,,0,,,96,0
127796,note_on,2,0,0,,,,,,,,0,,,94,36
127820,set_tempo,24,1,0,,,,,,895522,,,,,,
127820,note_on,0,0,0,,,,,,,,0,,,94,0
127822,note_on,2,0,0,,,,,,,,0,,,92,36
127846,note_on,24,0,0,,,,,,,,0,,,92,0
127848,note_on,2,0,0,,,,,,,,0,,,91,33
127872,note_on,24,0,0,,,,,,,,0,,,91,0
127874,note_on,2,0,0,,,,,,,,0,,,89,37
127880,set_tempo,6,1,0,,,,,,888889,,,,,,
127898,note_on,18,0,0,,,,,,,,0,,,89,0
127900,note_on,2,0,0,,,,,,,,0,,,87,37
127924,note_on,24,0,0,,,,,,,,0,,,87,0
127926,note_on,2,0,0,,,,,,,,0,,,86,36
127940,set_tempo,14,1,0,,,,,,882353,,,,,,
127950,note_on,10,0,0,,,,,,,,0,,,86,0
127952,note_on,2,0,0,,,,,,,,0,,,84,36
127976,note_on,24,0,0,,,,,,,,0,,,84,0
127978,note_on,2,0,0,,,,,,,,0,,,82,36
128002,note_on,24,0,0,,,,,,,,0,,,82,0
128004,note_on,2,0,0,,,,,,,,0,,,80,36
128020,set_tempo,16,1,0,,,,,,875912,,,,,,
128028,note_on,8,0,0,,,,,,,,0,,,80,0
128030,note_on,2,0,0,,,,,,,,0,,,79,36
128054,note_on,24,0,0,,,,,,,,0,,,79,0
128056,note_on,2,0,0,,,,,,,,0,,,77,36
128080,set_tempo,24,1,0,,,,,,869565,,,,,,
128080,note_on,0,0,0,,,,,,,,0,,,77,0
128082,note_on,2,0,0,,,,,,,,0,,,75,36
128106,note_on,24,0,0,,,,,,,,0,,,75,0
128108,note_on,2,0,0,,,,,,,,0,,,74,36
128132,note_on,24,0,0,,,,,,,,0,,,74,0
128136,note_on,4,0,0,,,,,,,,0,,,72,36
128140,set_tempo,4,1,0,,,,,,863309,,,,,,
128160,set_tempo,20,1,0,,,,,,1100917,,,,,,
128160,note_on,0,0,0,,,,,,,,0,,,72,0
128160,note_on,0,0,0,,,,,,,,0,,,70,41
128250,note_on,90,0,0,,,,,,,,0,,,70,0
128380,set_tempo,130,1,0,,,,,,1153846,,,,,,
128400,set_tempo,20,1,0,,,,,,1153846,,,,,,
128400,note_on,0,0,0,,,,,,,,0,,,55,29
128400,note_on,0,0,0,,,,,,,,0,,,58,29
128400,note_on,0,0,0,,,,,,,,0,,,63,33
128400,note_on,0,0,0,,,,,,,,0,,,51,29
128490,note_on,90,0,0,,,,,,,,0,,,51,0
128490,note_on,0,0,0,,,,,,,,0,,,55,0
128490,note_on,0,0,0,,,,,,,,0,,,58,0
128490,note_on,0,0,0,,,,,,,,0,,,63,0
128640,set_tempo,150,1,0,,,,,,1224490,,,,,,
128640,note_on,0,0,0,,,,,,,,0,,,56,31
128640,note_on,0,0,0,,,,,,,,0,,,59,31
128640,note_on,0,0,0,,,,,,,,0,,,65,36
128640,note_on,0,0,0,,,,,,,,0,,,50,32
128730,note_on,90,0,0,,,,,,,,0,,,50,0
128730,note_on,0,0,0,,,,,,,,0,,,56,0
128730,note_on,0,0,0,,,,,,,,0,,,59,0
128730,note_on,0,0,0,,,,,,,,0,,,65,0
128880,set_tempo,150,1,0,,,,,,1333333,,,,,,
128880,note_on,0,0,0,,,,,,,,0,,,57,30
128880,note_on,0,0,0,,,,,,,,0,,,60,30
128880,note_on,0,0,0,,,,,,,,0,,,66,35
128880,note_on,0,0,0,,,,,,,,0,,,38,30
128970,note_on,90,0,0,,,,,,,,0,,,38,0
128970,note_on,0,0,0,,,,,,,,0,,,57,0
128970,note_on,0,0,0,,,,,,,,0,,,60,0
128970,note_on,0,0,0,,,,,,,,0,,,66,0
129120,set_tempo,150,1,0,,,,,,1395349,,,,,,
129120,note_on,0,0,0,,,,,,,,0,,,59,30
129120,note_on,0,0,0,,,,,,,,0,,,67,35
129120,note_on,0,0,0,,,,,,,,0,,,43,29
129120,note_on,0,0,0,,,,,,,,0,,,50,29
129153,control_change,33,0,0,,,,,,,,0,64,127,,
129360,set_tempo,207,1,0,,,,,,1690141,,,,,,
129360,note_on,0,0,0,,,,,,,,0,,,50,0
129360,note_on,0,0,0,,,,,,,,0,,,59,0
129360,note_on,0,0,0,,,,,,,,0,,,67,0
129360,note_on,0,0,0,,,,,,,,0,,,55,28
129360,note_on,0,0,0,,,,,,,,0,,,62,32
129360,note_on,0,0,0,,,,,,,,0,,,47,27
129372,control_change,12,0,0,,,,,,,,0,64,0,,
129480,note_on,108,0,0,,,,,,,,0,,,47,0
129480,note_on,0,0,0,,,,,,,,0,,,62,0
129480,note_on,0,0,0,,,,,,,,0,,,55,0
129600,set_tempo,120,1,0,,,,,,1071429,,,,,,
129600,note_on,0,0,0,,,,,,,,0,,,43,0
129600,note_on,0,0,0,,,,,,,,0,,,94,27
129600,note_on,0,0,0,,,,,,,,0,,,90,27
129630,note_on,30,0,0,,,,,,,,0,,,90,0
129630,note_on,0,0,0,,,,,,,,0,,,94,0
129630,note_on,0,0,0,,,,,,,,0,,,95,27
129630,note_on,0,0,0,,,,,,,,0,,,91,27
129660,note_on,30,0,0,,,,,,,,0,,,91,0
129660,note_on,0,0,0,,,,,,,,0,,,95,0
129660,note_on,0,0,0,,,,,,,,0,,,103,29
129660,note_on,0,0,0,,,,,,,,0,,,95,29
129690,note_on,30,0,0,,,,,,,,0,,,95,0
129690,note_on,0,0,0,,,,,,,,0,,,103,0
129690,note_on,0,0,0,,,,,,,,0,,,102,29
129690,note_on,0,0,0,,,,,,,,0,,,93,29
129720,set_tempo,30,1,0,,,,,,991736,,,,,,
129720,note_on,0,0,0,,,,,,,,0,,,93,0
129720,note_on,0,0,0,,,,,,,,0,,,102,0
129720,note_on,0,0,0,,,,,,,,0,,,100,29
129720,note_on,0,0,0,,,,,,,,0,,,91,29
129750,note_on,30,0,0,,,,,,,,0,,,91,0
129750,note_on,0,0,0,,,,,,,,0,,,100,0
129750,note_on,0,0,0,,,,,,,,0,,,98,29
129750,note_on,0,0,0,,,,,,,,0,,,90,29
129780,set_tempo,30,1,0,,,,,,983607,,,,,,
129780,note_on,0,0,0,,,,,,,,0,,,90,0
129780,note_on,0,0,0,,,,,,,,0,,,98,0
129780,note_on,0,0,0,,,,,,,,0,,,96,29
129780,note_on,0,0,0,,,,,,,,0,,,88,29
129810,note_on,30,0,0,,,,,,,,0,,,88,0
129810,note_on,0,0,0,,,,,,,,0,,,96,0
129810,note_on,0,0,0,,,,,,,,0,,,95,28
129810,note_on,0,0,0,,,,,,,,0,,,86,28
129840,set_tempo,30,1,0,,,,,,975610,,,,,,
129840,note_on,0,0,0,,,,,,,,0,,,86,0
129840,note_on,0,0,0,,,,,,,,0,,,95,0
129840,note_on,0,0,0,,,,,,,,0,,,93,28
129840,note_on,0,0,0,,,,,,,,0,,,84,28
129870,note_on,30,0,0,,,,,,,,0,,,84,0
129870,note_on,0,0,0,,,,,,,,0,,,93,0
129870,note_on,0,0,0,,,,,,,,0,,,91,28
129870,note_on,0,0,0,,,,,,,,0,,,83,28
129900,set_tempo,30,1,0,,,,,,967742,,,,,,
129900,note_on,0,0,0,,,,,,,,0,,,83,0
129900,note_on,0,0,0,,,,,,,,0,,,91,0
129900,note_on,0,0,0,,,,,,,,0,,,90,28
129900,note_on,0,0,0,,,,,,,,0,,,81,28
129930,note_on,30,0,0,,,,,,,,0,,,81,0
129930,note_on,0,0,0,,,,,,,,0,,,90,0
129930,note_on,0,0,0,,,,,,,,0,,,88,28
129930,note_on,0,0,0,,,,,,,,0,,,79,28
129960,set_tempo,30,1,0,,,,,,960000,,,,,,
129960,note_on,0,0,0,,,,,,,,0,,,79,0
129960,note_on,0,0,0,,,,,,,,0,,,88,0
129960,note_on,0,0,0,,,,,,,,0,,,86,27
129960,note_on,0,0,0,,,,,,,,0,,,78,27
129990,note_on,30,0,0,,,,,,,,0,,,78,0
129990,note_on,0,0,0,,,,,,,,0,,,86,0
129990,note_on,0,0,0,,,,,,,,0,,,84,27
129990,note_on,0,0,0,,,,,,,,0,,,76,27
130020,set_tempo,30,1,0,,,,,,952381,,,,,,
130020,note_on,0,0,0,,,,,,,,0,,,76,0
130020,note_on,0,0,0,,,,,,,,0,,,84,0
130020,note_on,0,0,0,,,,,,,,0,,,83,27
130020,note_on,0,0,0,,,,,,,,0,,,74,27
130050,note_on,30,0,0,,,,,,,,0,,,74,0
130050,note_on,0,0,0,,,,,,,,0,,,83,0
130050,note_on,0,0,0,,,,,,,,0,,,81,27
130050,note_on,0,0,0,,,,,,,,0,,,72,27
130060,set_tempo,10,1,0,,,,,,944882,,,,,,
130080,set_tempo,20,1,0,,,,,,1200000,,,,,,
130080,note_on,0,0,0,,,,,,,,0,,,72,0
130080,note_on,0,0,0,,,,,,,,0,,,81,0
130080,note_on,0,0,0,,,,,,,,0,,,79,27
130080,note_on,0,0,0,,,,,,,,0,,,71,27
130170,note_on,90,0,0,,,,,,,,0,,,71,0
130170,note_on,0,0,0,,,,,,,,0,,,79,0
130320,set_tempo,150,1,0,,,,,,1363636,,,,,,
130320,note_on,0,0,0,,,,,,,,0,,,60,32
130320,note_on,0,0,0,,,,,,,,0,,,64,32
130320,note_on,0,0,0,,,,,,,,0,,,67,36
130320,note_on,0,0,0,,,,,,,,0,,,48,32
130540,note_on,220,0,0,,,,,,,,0,,,48,0
130540,note_on,0,0,0,,,,,,,,0,,,60,0
130540,note_on,0,0,0,,,,,,,,0,,,64,0
130540,note_on,0,0,0,,,,,,,,0,,,67,0
130560,set_tempo,20,1,0,,,,,,1481481,,,,,,
130560,note_on,0,0,0,,,,,,,,0,,,60,32
130560,note_on,0,0,0,,,,,,,,0,,,68,36
130560,note_on,0,0,0,,,,,,,,0,,,65,32
130560,note_on,0,0,0,,,,,,,,0,,,41,36
130760,note_on,200,0,0,,,,,,,,0,,,41,0
130760,note_on,0,0,0,,,,,,,,0,,,60,0
130760,note_on,0,0,0,,,,,,,,0,,,68,0
130760,note_on,0,0,0,,,,,,,,0,,,65,0
130800,set_tempo,40,1,0,,,,,,1935484,,,,,,
130800,note_on,0,0,0,,,,,,,,0,,,56,30
130800,note_on,0,0,0,,,,,,,,0,,,62,30
130800,note_on,0,0,0,,,,,,,,0,,,70,35
130800,note_on,0,0,0,,,,,,,,0,,,34,35
130800,note_on,0,0,0,,,,,,,,0,,,46,35
131020,note_on,220,0,0,,,,,,,,0,,,46,0
131020,note_on,0,0,0,,,,,,,,0,,,70,0
131020,note_on,0,0,0,,,,,,,,0,,,56,0
131020,note_on,0,0,0,,,,,,,,0,,,62,0
131020,note_on,0,0,0,,,,,,,,0,,,34,0
131040,set_tempo,20,1,0,,,,,,1967213,,,,,,
131040,note_on,0,0,0,,,,,,,,0,,,55,29
131040,note_on,0,0,0,,,,,,,,0,,,63,29
131040,note_on,0,0,0,,,,,,,,0,,,70,33
131040,note_on,0,0,0,,,,,,,,0,,,39,35
131040,note_on,0,0,0,,,,,,,,0,,,46,35
131490,note_on,450,0,0,,,,,,,,0,,,46,0
131490,note_on,0,0,0,,,,,,,,0,,,70,0
131490,note_on,0,0,0,,,,,,,,0,,,55,0
131490,note_on,0,0,0,,,,,,,,0,,,63,0
131490,note_on,0,0,0,,,,,,,,0,,,39,0
131520,set_tempo,30,1,0,,,,,,1000000,,,,,,
131520,marker,0,1,0,,,,,,,,,,,,
131520,note_on,0,0,0,,,,,,,,0,,,57,39
131559,note_on,39,0,0,,,,,,,,0,,,57,0
131560,note_on,1,0,0,,,,,,,,0,,,58,43
131599,note_on,39,0,0,,,,,,,,0,,,58,0
131600,set_tempo,1,1,0,,,,,,967742,,,,,,
131600,note_on,0,0,0,,,,,,,,0,,,63,44
131639,note_on,39,0,0,,,,,,,,0,,,63,0
131640,set_tempo,1,1,0,,,,,,975610,,,,,,
131640,note_on,0,0,0,,,,,,,,0,,,62,43
131679,note_on,39,0,0,,,,,,,,0,,,62,0
131680,set_tempo,1,1,0,,,,,,983607,,,,,,
131680,note_on,0,0,0,,,,,,,,0,,,60,43
131700,set_tempo,20,1,0,,,,,,991736,,,,,,
131719,note_on,19,0,0,,,,,,,,0,,,60,0
131720,note_on,1,0,0,,,,,,,,0,,,58,42
131740,set_tempo,20,1,0,,,,,,1000000,,,,,,
131759,note_on,19,0,0,,,,,,,,0,,,58,0
131760,set_tempo,1,1,0,,,,,,1008403,,,,,,
131760,note_on,0,0,0,,,,,,,,0,,,56,41
131799,note_on,39,0,0,,,,,,,,0,,,56,0
131800,set_tempo,1,1,0,,,,,,1016949,,,,,,
131800,note_on,0,0,0,,,,,,,,0,,,55,41
131839,note_on,39,0,0,,,,,,,,0,,,55,0
131840,set_tempo,1,1,0,,,,,,1025641,,,,,,
131840,note_on,0,0,0,,,,,,,,0,,,53,39
131860,set_tempo,20,1,0,,,,,,1034483,,,,,,
131879,note_on,19,0,0,,,,,,,,0,,,53,0
131880,note_on,1,0,0,,,,,,,,0,,,51,39
131900,set_tempo,20,1,0,,,,,,1043478,,,,,,
131919,note_on,19,0,0,,,,,,,,0,,,51,0
131920,set_tempo,1,1,0,,,,,,1052632,,,,,,
131920,note_on,0,0,0,,,,,,,,0,,,50,39
131959,note_on,39,0,0,,,,,,,,0,,,50,0
131960,set_tempo,1,1,0,,,,,,1061947,,,,,,
131960,note_on,0,0,0,,,,,,,,0,,,48,39
131980,set_tempo,20,1,0,,,,,,1071429,,,,,,
131999,note_on,19,0,0,,,,,,,,0,,,48,0
132000,set_tempo,1,1,0,,,,,,1666667,,,,,,
132000,note_on,0,0,0,,,,,,,,0,,,47,42
132240,set_tempo,240,1,0,,,,,,1237113,,,,,,
132240,note_on,0,0,0,,,,,,,,0,,,87,38
132240,note_on,0,0,0,,,,,,,,0,,,83,35
132240,note_on,0,0,0,,,,,,,,0,,,75,35
132240,note_on,0,0,0,,,,,,,,0,,,39,25
132240,note_on,0,0,0,,,,,,,,0,,,45,25
132240,note_on,0,0,0,,,,,,,,0,,,54,28
132440,note_on,200,0,0,,,,,,,,0,,,54,0
132440,note_on,0,0,0,,,,,,,,0,,,39,0
132440,note_on,0,0,0,,,,,,,,0,,,87,0
132440,note_on,0,0,0,,,,,,,,0,,,83,0
132440,note_on,0,0,0,,,,,,,,0,,,75,0
132440,note_on,0,0,0,,,,,,,,0,,,45,0
132480,set_tempo,40,1,0,,,,,,1263158,,,,,,
132480,note_on,0,0,0,,,,,,,,0,,,89,41
132480,note_on,0,0,0,,,,,,,,0,,,83,36
132480,note_on,0,0,0,,,,,,,,0,,,75,36
132480,note_on,0,0,0,,,,,,,,0,,,39,27
132480,note_on,0,0,0,,,,,,,,0,,,45,27
132480,note_on,0,0,0,,,,,,,,0,,,54,31
132680,note_on,200,0,0,,,,,,,,0,,,54,0
132680,note_on,0,0,0,,,,,,,,0,,,39,0
132680,note_on,0,0,0,,,,,,,,0,,,89,0
132680,note_on,0,0,0,,,,,,,,0,,,83,0
132680,note_on,0,0,0,,,,,,,,0,,,75,0
132680,note_on,0,0,0,,,,,,,,0,,,45,0
132720,set_tempo,40,1,0,,,,,,1304348,,,,,,
132720,note_on,0,0,0,,,,,,,,0,,,90,43
132720,note_on,0,0,0,,,,,,,,0,,,83,37
132720,note_on,0,0,0,,,,,,,,0,,,75,37
132720,note_on,0,0,0,,,,,,,,0,,,39,27
132720,note_on,0,0,0,,,,,,,,0,,,45,27
132720,note_on,0,0,0,,,,,,,,0,,,54,31
132900,set_tempo,180,1,0,,,,,,2000000,,,,,,
132900,note_on,0,0,0,,,,,,,,0,,,54,0
132900,note_on,0,0,0,,,,,,,,0,,,39,0
132900,note_on,0,0,0,,,,,,,,0,,,90,0
132900,note_on,0,0,0,,,,,,,,0,,,83,0
132900,note_on,0,0,0,,,,,,,,0,,,75,0
132900,note_on,0,0,0,,,,,,,,0,,,45,0
132910,note_on,10,0,0,,,,,,,,0,,,39,29
132920,note_on,10,0,0,,,,,,,,0,,,46,33
132930,note_on,10,0,0,,,,,,,,0,,,55,33
132949,note_on,19,0,0,,,,,,,,0,,,75,35
132950,note_on,1,0,0,,,,,,,,0,,,82,35
132960,set_tempo,10,1,0,,,,,,1363636,,,,,,
132960,note_on,0,0,0,,,,,,,,0,,,47,0
132960,note_on,0,0,0,,,,,,,,0,,,91,38
133200,set_tempo,240,1,0,,,,,,1558442,,,,,,
133200,note_on,0,0,0,,,,,,,,0,,,91,0
133200,note_on,0,0,0,,,,,,,,0,,,46,0
133200,note_on,0,0,0,,,,,,,,0,,,39,0
133200,note_on,0,0,0,,,,,,,,0,,,55,0
133200,note_on,0,0,0,,,,,,,,0,,,87,36
133320,note_on,120,0,0,,,,,,,,0,,,87,0
133440,set_tempo,120,1,0,,,,,,1090909,,,,,,
133440,note_on,0,0,0,,,,,,,,0,,,82,0
133440,note_on,0,0,0,,,,,,,,0,,,57,37
133449,note_on,9,0,0,,,,,,,,0,,,75,0
133469,note_on,20,0,0,,,,,,,,0,,,57,0
133474,note_on,5,0,0,,,,,,,,0,,,58,41
133500,set_tempo,26,1,0,,,,,,1016949,,,,,,
133503,note_on,3,0,0,,,,,,,,0,,,58,0
133508,note_on,5,0,0,,,,,,,,0,,,67,42
133537,note_on,29,0,0,,,,,,,,0,,,67,0
133542,note_on,5,0,0,,,,,,,,0,,,65,42
133560,set_tempo,18,1,0,,,,,,1025641,,,,,,
133571,note_on,11,0,0,,,,,,,,0,,,65,0
133576,note_on,5,0,0,,,,,,,,0,,,63,42
133600,set_tempo,24,1,0,,,,,,1034483,,,,,,
133605,note_on,5,0,0,,,,,,,,0,,,63,0
133610,note_on,5,0,0,,,,,,,,0,,,62,42
133639,note_on,29,0,0,,,,,,,,0,,,62,0
133640,set_tempo,1,1,0,,,,,,1043478,,,,,,
133644,note_on,4,0,0,,,,,,,,0,,,60,41
133673,note_on,29,0,0,,,,,,,,0,,,60,0
133678,note_on,5,0,0,,,,,,,,0,,,58,41
133680,set_tempo,2,1,0,,,,,,1052632,,,,,,
133707,note_on,27,0,0,,,,,,,,0,,,58,0
133712,note_on,5,0,0,,,,,,,,0,,,56,41
133720,set_tempo,8,1,0,,,,,,1061947,,,,,,
133741,note_on,21,0,0,,,,,,,,0,,,56,0
133746,note_on,5,0,0,,,,,,,,0,,,55,41
133760,set_tempo,14,1,0,,,,,,1071429,,,,,,
133775,note_on,15,0,0,,,,,,,,0,,,55,0
133780,note_on,5,0,0,,,,,,,,0,,,53,39
133800,set_tempo,20,1,0,,,,,,1081081,,,,,,
133809,note_on,9,0,0,,,,,,,,0,,,53,0
133814,note_on,5,0,0,,,,,,,,0,,,51,39
133840,set_tempo,26,1,0,,,,,,1090909,,,,,,
133843,note_on,3,0,0,,,,,,,,0,,,51,0
133848,note_on,5,0,0,,,,,,,,0,,,50,39
133877,note_on,29,0,0,,,,,,,,0,,,50,0
133880,set_tempo,3,1,0,,,,,,1100917,,,,,,
133882,note_on,2,0,0,,,,,,,,0,,,48,37
133915,note_on,33,0,0,,,,,,,,0,,,48,0
133920,set_tempo,5,1,0,,,,,,1690141,,,,,,
133920,note_on,0,0,0,,,,,,,,0,,,46,41
134160,set_tempo,240,1,0,,,,,,1481481,,,,,,
134160,note_on,0,0,0,,,,,,,,0,,,58,33
134160,note_on,0,0,0,,,,,,,,0,,,61,33
134160,note_on,0,0,0,,,,,,,,0,,,67,37
134160,note_on,0,0,0,,,,,,,,0,,,40,35
134400,set_tempo,240,1,0,,,,,,1600000,,,,,,
134400,note_on,0,0,0,,,,,,,,0,,,40,0
134400,note_on,0,0,0,,,,,,,,0,,,61,0
134400,note_on,0,0,0,,,,,,,,0,,,67,0
134400,note_on,0,0,0,,,,,,,,0,,,58,0
134400,note_on,0,0,0,,,,,,,,0,,,58,36
134400,note_on,0,0,0,,,,,,,,0,,,60,36
134400,note_on,0,0,0,,,,,,,,0,,,68,39
134400,note_on,0,0,0,,,,,,,,0,,,41,37
134620,note_on,220,0,0,,,,,,,,0,,,41,0
134620,note_on,0,0,0,,,,,,,,0,,,60,0
134620,note_on,0,0,0,,,,,,,,0,,,68,0
134620,note_on,0,0,0,,,,,,,,0,,,58,0
134640,set_tempo,20,1,0,,,,,,1818182,,,,,,
134640,note_on,0,0,0,,,,,,,,0,,,68,35
134640,note_on,0,0,0,,,,,,,,0,,,72,39
134640,note_on,0,0,0,,,,,,,,0,,,58,29
134640,note_on,0,0,0,,,,,,,,0,,,62,29
134640,note_on,0,0,0,,,,,,,,0,,,34,33
134820,set_tempo,180,1,0,,,,,,2222222,,,,,,
134820,note_on,0,0,0,,,,,,,,0,,,72,0
134820,note_on,0,0,0,,,,,,,,0,,,68,0
134820,note_on,0,0,0,,,,,,,,0,,,67,30
134820,note_on,0,0,0,,,,,,,,0,,,70,35
134880,set_tempo,60,1,0,,,,,,1518987,,,,,,
134880,note_on,0,0,0,,,,,,,,0,,,70,0
134880,note_on,0,0,0,,,,,,,,0,,,34,0
134880,note_on,0,0,0,,,,,,,,0,,,62,0
134880,note_on,0,0,0,,,,,,,,0,,,58,0
134880,note_on,0,0,0,,,,,,,,0,,,67,0
134880,note_on,0,0,0,,,,,,,,0,,,63,29
134880,note_on,0,0,0,,,,,,,,0,,,67,33
134880,note_on,0,0,0,,,,,,,,0,,,39,32
135360,set_tempo,480,1,0,,,,,,1000000,,,,,,
135360,note_on,0,0,0,,,,,,,,0,,,39,0
135360,note_on,0,0,0,,,,,,,,0,,,46,0
135360,note_on,0,0,0,,,,,,,,0,,,63,0
135360,note_on,0,0,0,,,,,,,,0,,,67,0
135360,note_on,0,0,0,,,,,,,,0,,,93,36
135390,note_on,30,0,0,,,,,,,,0,,,93,0
135392,note_on,2,0,0,,,,,,,,0,,,94,32
135422,note_on,30,0,0,,,,,,,,0,,,94,0
135424,note_on,2,0,0,,,,,,,,0,,,99,35
135440,set_tempo,16,1,0,,,,,,967742,,,,,,
135448,note_on,8,0,0,,,,,,,,0,,,99,0
135450,note_on,2,0,0,,,,,,,,0,,,96,32
135474,note_on,24,0,0,,,,,,,,0,,,96,0
135476,note_on,2,0,0,,,,,,,,0,,,94,32
135480,set_tempo,4,1,0,,,,,,975610,,,,,,
135500,note_on,20,0,0,,,,,,,,0,,,94,0
135502,note_on,2,0,0,,,,,,,,0,,,92,31
135520,set_tempo,18,1,0,,,,,,983607,,,,,,
135526,note_on,6,0,0,,,,,,,,0,,,92,0
135528,note_on,2,0,0,,,,,,,,0,,,91,29
135540,set_tempo,12,1,0,,,,,,991736,,,,,,
135552,note_on,12,0,0,,,,,,,,0,,,91,0
135554,note_on,2,0,0,,,,,,,,0,,,89,33
135578,note_on,24,0,0,,,,,,,,0,,,89,0
135580,set_tempo,2,1,0,,,,,,1000000,,,,,,
135580,note_on,0,0,0,,,,,,,,0,,,87,33
135600,set_tempo,20,1,0,,,,,,1008403,,,,,,
135604,note_on,4,0,0,,,,,,,,0,,,87,0
135606,note_on,2,0,0,,,,,,,,0,,,86,32
135630,note_on,24,0,0,,,,,,,,0,,,86,0
135632,note_on,2,0,0,,,,,,,,0,,,84,32
135640,set_tempo,8,1,0,,,,,,1016949,,,,,,
135656,note_on,16,0,0,,,,,,,,0,,,84,0
135658,note_on,2,0,0,,,,,,,,0,,,82,32
135680,set_tempo,22,1,0,,,,,,1025641,,,,,,
135682,note_on,2,0,0,,,,,,,,0,,,82,0
135684,note_on,2,0,0,,,,,,,,0,,,80,32
135700,set_tempo,16,1,0,,,,,,1034483,,,,,,
135708,note_on,8,0,0,,,,,,,,0,,,80,0
135710,note_on,2,0,0,,,,,,,,0,,,79,32
135734,note_on,24,0,0,,,,,,,,0,,,79,0
135736,note_on,2,0,0,,,,,,,,0,,,77,32
135740,set_tempo,4,1,0,,,,,,1043478,,,,,,
135760,set_tempo,20,1,0,,,,,,1052632,,,,,,
135760,note_on,0,0,0,,,,,,,,0,,,77,0
135762,note_on,2,0,0,,,,,,,,0,,,75,32
135786,note_on,24,0,0,,,,,,,,0,,,75,0
135788,note_on,2,0,0,,,,,,,,0,,,74,32
135800,set_tempo,12,1,0,,,,,,1061947,,,,,,
135812,note_on,12,0,0,,,,,,,,0,,,74,0
135816,note_on,4,0,0,,,,,,,,0,,,72,32
135820,set_tempo,4,1,0,,,,,,1071429,,,,,,
135840,set_tempo,20,1,0,,,,,,1463415,,,,,,
135840,note_on,0,0,0,,,,,,,,0,,,72,0
135840,note_on,0,0,0,,,,,,,,0,,,71,36
136080,set_tempo,240,1,0,,,,,,1250000,,,,,,
136080,note_on,0,0,0,,,,,,,,0,,,69,35
136080,note_on,0,0,0,,,,,,,,0,,,75,35
136080,note_on,0,0,0,,,,,,,,0,,,83,38
136080,note_on,0,0,0,,,,,,,,0,,,59,31
136080,note_on,0,0,0,,,,,,,,0,,,66,36
136280,note_on,200,0,0,,,,,,,,0,,,66,0
136280,note_on,0,0,0,,,,,,,,0,,,69,0
136280,note_on,0,0,0,,,,,,,,0,,,75,0
136280,note_on,0,0,0,,,,,,,,0,,,83,0
136280,note_on,0,0,0,,,,,,,,0,,,59,0
136320,set_tempo,40,1,0,,,,,,1212121,,,,,,
136320,note_on,0,0,0,,,,,,,,0,,,69,35
136320,note_on,0,0,0,,,,,,,,0,,,83,41
136320,note_on,0,0,0,,,,,,,,0,,,76,36
136320,note_on,0,0,0,,,,,,,,0,,,59,31
136320,note_on,0,0,0,,,,,,,,0,,,64,36
136520,note_on,200,0,0,,,,,,,,0,,,64,0
136520,note_on,0,0,0,,,,,,,,0,,,69,0
136520,note_on,0,0,0,,,,,,,,0,,,83,0
136520,note_on,0,0,0,,,,,,,,0,,,76,0
136520,note_on,0,0,0,,,,,,,,0,,,59,0
136560,set_tempo,40,1,0,,,,,,1250000,,,,,,
136560,note_on,0,0,0,,,,,,,,0,,,69,37
136560,note_on,0,0,0,,,,,,,,0,,,78,37
136560,note_on,0,0,0,,,,,,,,0,,,83,43
136560,note_on,0,0,0,,,,,,,,0,,,59,31
136560,note_on,0,0,0,,,,,,,,0,,,63,36
136740,note_on,180,0,0,,,,,,,,0,,,63,0
136740,note_on,0,0,0,,,,,,,,0,,,69,0
136740,note_on,0,0,0,,,,,,,,0,,,78,0
136740,note_on,0,0,0,,,,,,,,0,,,83,0
136760,note_on,20,0,0,,,,,,,,0,,,59,0
136800,set_tempo,40,1,0,,,,,,1318681,,,,,,
136800,note_on,0,0,0,,,,,,,,0,,,71,0
136800,note_on,0,0,0,,,,,,,,0,,,80,39
136800,note_on,0,0,0,,,,,,,,0,,,83,45
136800,note_on,0,0,0,,,,,,,,0,,,64,36
136800,note_on,0,0,0,,,,,,,,0,,,68,39
137040,set_tempo,240,1,0,,,,,,1558442,,,,,,
137040,note_on,0,0,0,,,,,,,,0,,,68,0
137040,note_on,0,0,0,,,,,,,,0,,,80,0
137040,note_on,0,0,0,,,,,,,,0,,,83,0
137040,note_on,0,0,0,,,,,,,,0,,,64,0
137040,note_on,0,0,0,,,,,,,,0,,,92,44
137040,note_on,0,0,0,,,,,,,,0,,,88,38
137040,note_on,0,0,0,,,,,,,,0,,,71,29
137040,note_on,0,0,0,,,,,,,,0,,,76,33
137160,note_on,120,0,0,,,,,,,,0,,,76,0
137160,note_on,0,0,0,,,,,,,,0,,,92,0
137160,note_on,0,0,0,,,,,,,,0,,,88,0
137160,note_on,0,0,0,,,,,,,,0,,,71,0
137280,set_tempo,120,1,0,,,,,,1000000,,,,,,
137280,note_on,0,0,0,,,,,,,,0,,,70,36
137312,note_on,32,0,0,,,,,,,,0,,,70,0
137312,note_on,0,0,0,,,,,,,,0,,,71,32
137344,note_on,32,0,0,,,,,,,,0,,,71,0
137344,note_on,0,0,0,,,,,,,,0,,,80,36
137360,set_tempo,16,1,0,,,,,,967742,,,,,,
137376,note_on,16,0,0,,,,,,,,0,,,80,0
137376,note_on,0,0,0,,,,,,,,0,,,78,35
137400,set_tempo,24,1,0,,,,,,975610,,,,,,
137408,note_on,8,0,0,,,,,,,,0,,,78,0
137408,note_on,0,0,0,,,,,,,,0,,,76,33
137440,set_tempo,32,1,0,,,,,,983607,,,,,,
137440,note_on,0,0,0,,,,,,,,0,,,76,0
137440,note_on,0,0,0,,,,,,,,0,,,75,33
137460,set_tempo,20,1,0,,,,,,991736,,,,,,
137472,note_on,12,0,0,,,,,,,,0,,,75,0
137472,note_on,0,0,0,,,,,,,,0,,,73,32
137500,set_tempo,28,1,0,,,,,,1000000,,,,,,
137504,note_on,4,0,0,,,,,,,,0,,,73,0
137504,note_on,0,0,0,,,,,,,,0,,,71,32
137520,set_tempo,16,1,0,,,,,,1008403,,,,,,
137536,note_on,16,0,0,,,,,,,,0,,,71,0
137536,note_on,0,0,0,,,,,,,,0,,,69,32
137560,set_tempo,24,1,0,,,,,,1016949,,,,,,
137568,note_on,8,0,0,,,,,,,,0,,,69,0
137568,note_on,0,0,0,,,,,,,,0,,,68,32
137600,set_tempo,32,1,0,,,,,,1025641,,,,,,
137600,note_on,0,0,0,,,,,,,,0,,,68,0
137600,note_on,0,0,0,,,,,,,,0,,,66,32
137620,set_tempo,20,1,0,,,,,,1034483,,,,,,
137632,note_on,12,0,0,,,,,,,,0,,,66,0
137632,note_on,0,0,0,,,,,,,,0,,,64,32
137660,set_tempo,28,1,0,,,,,,1043478,,,,,,
137664,note_on,4,0,0,,,,,,,,0,,,64,0
137664,note_on,0,0,0,,,,,,,,0,,,63,32
137680,set_tempo,16,1,0,,,,,,1052632,,,,,,
137696,note_on,16,0,0,,,,,,,,0,,,63,0
137696,note_on,0,0,0,,,,,,,,0,,,61,32
137720,set_tempo,24,1,0,,,,,,1061947,,,,,,
137728,note_on,8,0,0,,,,,,,,0,,,61,0
137728,note_on,0,0,0,,,,,,,,0,,,59,32
137740,set_tempo,12,1,0,,,,,,1071429,,,,,,
137760,set_tempo,20,1,0,,,,,,1690141,,,,,,
137760,note_on,0,0,0,,,,,,,,0,,,59,0
137760,note_on,0,0,0,,,,,,,,0,,,58,35
138000,set_tempo,240,1,0,,,,,,1578947,,,,,,
138000,note_on,0,0,0,,,,,,,,0,,,61,31
138000,note_on,0,0,0,,,,,,,,0,,,67,31
138000,note_on,0,0,0,,,,,,,,0,,,70,36
138000,note_on,0,0,0,,,,,,,,0,,,52,32
138240,set_tempo,240,1,0,,,,,,1714286,,,,,,
138240,note_on,0,0,0,,,,,,,,0,,,52,0
138240,note_on,0,0,0,,,,,,,,0,,,67,0
138240,note_on,0,0,0,,,,,,,,0,,,70,0
138240,note_on,0,0,0,,,,,,,,0,,,61,0
138240,note_on,0,0,0,,,,,,,,0,,,62,33
138240,note_on,0,0,0,,,,,,,,0,,,68,33
138240,note_on,0,0,0,,,,,,,,0,,,70,37
138240,note_on,0,0,0,,,,,,,,0,,,53,36
138360,set_tempo,120,1,0,,,,,,1578947,,,,,,
138390,note_on,30,0,0,,,,,,,,0,,,62,30
138400,set_tempo,10,1,0,,,,,,1558442,,,,,,
138420,note_on,20,0,0,,,,,,,,0,,,68,27
138440,set_tempo,20,1,0,,,,,,1538462,,,,,,
138450,note_on,10,0,0,,,,,,,,0,,,74,31
138460,note_on,10,0,0,,,,,,,,0,,,53,0
138460,note_on,0,0,0,,,,,,,,0,,,70,0
138460,note_on,0,0,0,,,,,,,,0,,,68,0
138460,note_on,0,0,0,,,,,,,,0,,,62,0
138468,set_tempo,8,1,0,,,,,,1518987,,,,,,
138480,set_tempo,12,1,0,,,,,,2068966,,,,,,
138480,note_on,0,0,0,,,,,,,,0,,,74,0
138480,note_on,0,0,0,,,,,,,,0,,,72,36
138480,note_on,0,0,0,,,,,,,,0,,,46,31
138660,set_tempo,180,1,0,,,,,,2727273,,,,,,
138660,note_on,0,0,0,,,,,,,,0,,,72,0
138660,note_on,0,0,0,,,,,,,,0,,,70,32
138720,set_tempo,60,1,0,,,,,,1518987,,,,,,
138720,note_on,0,0,0,,,,,,,,0,,,70,0
138720,note_on,0,0,0,,,,,,,,0,,,46,0
138720,note_on,0,0,0,,,,,,,,0,,,58,0
138720,note_on,0,0,0,,,,,,,,0,,,62,0
138720,note_on,0,0,0,,,,,,,,0,,,68,0
138720,note_on,0,0,0,,,,,,,,0,,,70,31
138720,note_on,0,0,0,,,,,,,,0,,,63,27
138720,note_on,0,0,0,,,,,,,,0,,,67,27
138720,note_on,0,0,0,,,,,,,,0,,,51,27
139180,note_on,460,0,0,,,,,,,,0,,,51,0
139180,note_on,0,0,0,,,,,,,,0,,,70,0
139180,note_on,0,0,0,,,,,,,,0,,,63,0
139180,note_on,0,0,0,,,,,,,,0,,,67,0
139200,set_tempo,20,1,0,,,,,,1090909,,,,,,
139200,note_on,0,0,0,,,,,,,,0,,,57,36
139229,note_on,29,0,0,,,,,,,,0,,,57,0
139234,note_on,5,0,0,,,,,,,,0,,,58,38
139260,set_tempo,26,1,0,,,,,,1016949,,,,,,
139263,note_on,3,0,0,,,,,,,,0,,,58,0
139268,note_on,5,0,0,,,,,,,,0,,,67,38
139297,note_on,29,0,0,,,,,,,,0,,,67,0
139302,note_on,5,0,0,,,,,,,,0,,,65,38
139320,set_tempo,18,1,0,,,,,,1025641,,,,,,
139331,note_on,11,0,0,,,,,,,,0,,,65,0
139336,note_on,5,0,0,,,,,,,,0,,,63,38
139360,set_tempo,24,1,0,,,,,,1034483,,,,,,
139365,note_on,5,0,0,,,,,,,,0,,,63,0
139370,note_on,5,0,0,,,,,,,,0,,,62,38
139399,note_on,29,0,0,,,,,,,,0,,,62,0
139400,set_tempo,1,1,0,,,,,,1043478,,,,,,
139404,note_on,4,0,0,,,,,,,,0,,,60,38
139433,note_on,29,0,0,,,,,,,,0,,,60,0
139438,note_on,5,0,0,,,,,,,,0,,,58,38
139440,set_tempo,2,1,0,,,,,,1052632,,,,,,
139467,note_on,27,0,0,,,,,,,,0,,,58,0
139472,note_on,5,0,0,,,,,,,,0,,,56,38
139480,set_tempo,8,1,0,,,,,,1061947,,,,,,
139501,note_on,21,0,0,,,,,,,,0,,,56,0
139506,note_on,5,0,0,,,,,,,,0,,,55,38
139520,set_tempo,14,1,0,,,,,,1071429,,,,,,
139535,note_on,15,0,0,,,,,,,,0,,,55,0
139540,note_on,5,0,0,,,,,,,,0,,,53,37
139560,set_tempo,20,1,0,,,,,,1081081,,,,,,
139569,note_on,9,0,0,,,,,,,,0,,,53,0
139574,note_on,5,0,0,,,,,,,,0,,,51,37
139600,set_tempo,26,1,0,,,,,,1090909,,,,,,
139603,note_on,3,0,0,,,,,,,,0,,,51,0
139608,note_on,5,0,0,,,,,,,,0,,,50,37
139637,note_on,29,0,0,,,,,,,,0,,,50,0
139640,set_tempo,3,1,0,,,,,,1100917,,,,,,
139642,note_on,2,0,0,,,,,,,,0,,,48,36
139675,note_on,33,0,0,,,,,,,,0,,,48,0
139680,set_tempo,5,1,0,,,,,,1690141,,,,,,
139680,note_on,0,0,0,,,,,,,,0,,,46,38
139920,set_tempo,240,1,0,,,,,,1578947,,,,,,
139920,note_on,0,0,0,,,,,,,,0,,,55,32
139920,note_on,0,0,0,,,,,,,,0,,,58,32
139920,note_on,0,0,0,,,,,,,,0,,,61,36
139920,note_on,0,0,0,,,,,,,,0,,,40,33
140160,set_tempo,240,1,0,,,,,,1739130,,,,,,
140160,note_on,0,0,0,,,,,,,,0,,,40,0
140160,note_on,0,0,0,,,,,,,,0,,,58,0
140160,note_on,0,0,0,,,,,,,,0,,,61,0
140160,note_on,0,0,0,,,,,,,,0,,,55,0
140160,note_on,0,0,0,,,,,,,,0,,,56,33
140160,note_on,0,0,0,,,,,,,,0,,,58,33
140160,note_on,0,0,0,,,,,,,,0,,,62,37
140160,note_on,0,0,0,,,,,,,,0,,,41,36
140380,note_on,220,0,0,,,,,,,,0,,,41,0
140380,note_on,0,0,0,,,,,,,,0,,,58,0
140380,note_on,0,0,0,,,,,,,,0,,,62,0
140380,note_on,0,0,0,,,,,,,,0,,,56,0
140400,set_tempo,20,1,0,,,,,,2264151,,,,,,
140400,note_on,0,0,0,,,,,,,,0,,,56,31
140400,note_on,0,0,0,,,,,,,,0,,,60,36
140400,note_on,0,0,0,,,,,,,,0,,,62,31
140400,note_on,0,0,0,,,,,,,,0,,,34,31
140580,set_tempo,180,1,0,,,,,,3333333,,,,,,
140580,note_on,0,0,0,,,,,,,,0,,,60,0
140580,note_on,0,0,0,,,,,,,,0,,,56,0
140580,note_on,0,0,0,,,,,,,,0,,,55,27
140580,note_on,0,0,0,,,,,,,,0,,,58,31
140640,set_tempo,60,1,0,,,,,,1518987,,,,,,
140640,note_on,0,0,0,,,,,,,,0,,,58,0
140640,note_on,0,0,0,,,,,,,,0,,,34,0
140640,note_on,0,0,0,,,,,,,,0,,,55,0
140640,note_on,0,0,0,,,,,,,,0,,,62,0
140640,note_on,0,0,0,,,,,,,,0,,,55,27
140640,note_on,0,0,0,,,,,,,,0,,,51,27
140640,note_on,0,0,0,,,,,,,,0,,,63,30
140640,note_on,0,0,0,,,,,,,,0,,,39,26
141084,set_tempo,444,1,0,,,,,,1465559,,,,,,
141120,set_tempo,36,1,0,,,,,,1188119,,,,,,
141120,note_on,0,0,0,,,,,,,,0,,,39,0
141120,note_on,0,0,0,,,,,,,,0,,,51,0
141120,note_on,0,0,0,,,,,,,,0,,,46,0
141120,note_on,0,0,0,,,,,,,,0,,,55,0
141120,note_on,0,0,0,,,,,,,,0,,,63,0
141120,note_on,0,0,0,,,,,,,,0,,,93,36
141159,note_on,39,0,0,,,,,,,,0,,,93,0
141164,note_on,5,0,0,,,,,,,,0,,,94,31
141180,set_tempo,16,1,0,,,,,,1072194,,,,,,
141203,note_on,23,0,0,,,,,,,,0,,,94,0
141208,note_on,5,0,0,,,,,,,,0,,,99,36
141240,set_tempo,32,1,0,,,,,,1062323,,,,,,
141247,note_on,7,0,0,,,,,,,,0,,,99,0
141252,note_on,5,0,0,,,,,,,,0,,,96,36
141291,note_on,39,0,0,,,,,,,,0,,,96,0
141296,note_on,5,0,0,,,,,,,,0,,,94,35
141300,set_tempo,4,1,0,,,,,,1052632,,,,,,
141335,note_on,35,0,0,,,,,,,,0,,,94,0
141340,note_on,5,0,0,,,,,,,,0,,,92,33
141360,set_tempo,20,1,0,,,,,,1043115,,,,,,
141379,note_on,19,0,0,,,,,,,,0,,,92,0
141384,note_on,5,0,0,,,,,,,,0,,,91,32
141420,set_tempo,36,1,0,,,,,,1033770,,,,,,
141423,note_on,3,0,0,,,,,,,,0,,,91,0
141428,note_on,5,0,0,,,,,,,,0,,,89,33
141467,note_on,39,0,0,,,,,,,,0,,,89,0
141472,note_on,5,0,0,,,,,,,,0,,,87,33
141480,set_tempo,8,1,0,,,,,,1024590,,,,,,
141511,note_on,31,0,0,,,,,,,,0,,,87,0
141516,note_on,5,0,0,,,,,,,,0,,,86,32
141540,set_tempo,24,1,0,,,,,,1015744,,,,,,
141555,note_on,15,0,0,,,,,,,,0,,,86,0
141560,note_on,5,0,0,,,,,,,,0,,,84,32
141580,set_tempo,20,1,0,,,,,,1006880,,,,,,
141592,control_change,12,0,0,,,,,,,,0,64,0,,
141595,note_on,3,0,0,,,,,,,,0,,,84,0
141600,set_tempo,5,1,0,,,,,,949067,,,,,,
141600,note_on,0,0,0,,,,,,,,0,,,81,33
141620,control_change,20,0,0,,,,,,,,0,64,1,,
141625,set_tempo,5,1,0,,,,,,983607,,,,,,
141632,note_on,7,0,0,,,,,,,,0,,,81,0
141632,control_change,0,0,0,,,,,,,,0,64,2,,
141637,note_on,5,0,0,,,,,,,,0,,,82,35
141644,control_change,7,0,0,,,,,,,,0,64,3,,
141660,control_change,16,0,0,,,,,,,,0,64,4,,
141669,note_on,9,0,0,,,,,,,,0,,,82,0
141672,control_change,3,0,0,,,,,,,,0,64,5,,
141674,note_on,2,0,0,,,,,,,,0,,,91,36
141680,set_tempo,6,1,0,,,,,,975610,,,,,,
141684,control_change,4,0,0,,,,,,,,0,64,6,,
141700,control_change,16,0,0,,,,,,,,0,64,7,,
141706,note_on,6,0,0,,,,,,,,0,,,91,0
141711,note_on,5,0,0,,,,,,,,0,,,87,36
141712,control_change,1,0,0,,,,,,,,0,64,8,,
141724,control_change,12,0,0,,,,,,,,0,64,9,,
141740,set_tempo,16,1,0,,,,,,967742,,,,,,
141743,note_on,3,0,0,,,,,,,,0,,,87,0
141748,note_on,5,0,0,,,,,,,,0,,,86,37
141752,control_change,4,0,0,,,,,,,,0,64,10,,
141764,control_change,12,0,0,,,,,,,,0,64,11,,
141780,note_on,16,0,0,,,,,,,,0,,,86,0
141780,control_change,0,0,0,,,,,,,,0,64,12,,
141785,note_on,5,0,0,,,,,,,,0,,,84,38
141792,control_change,7,0,0,,,,,,,,0,64,13,,
141800,set_tempo,8,1,0,,,,,,960000,,,,,,
141804,control_change,4,0,0,,,,,,,,0,64,14,,
141817,note_on,13,0,0,,,,,,,,0,,,84,0
141820,control_change,3,0,0,,,,,,,,0,64,15,,
141822,note_on,2,0,0,,,,,,,,0,,,82,39
141832,control_change,10,0,0,,,,,,,,0,64,16,,
141844,control_change,12,0,0,,,,,,,,0,64,17,,
141854,note_on,10,0,0,,,,,,,,0,,,82,0
141859,note_on,5,0,0,,,,,,,,0,,,80,38
141860,set_tempo,1,1,0,,,,,,952381,,,,,,
141860,control_change,0,0,0,,,,,,,,0,64,18,,
141872,control_change,12,0,0,,,,,,,,0,64,19,,
141891,note_on,19,0,0,,,,,,,,0,,,80,0
141896,note_on,5,0,0,,,,,,,,0,,,79,39
141900,control_change,4,0,0,,,,,,,,0,64,20,,
141912,control_change,12,0,0,,,,,,,,0,64,21,,
141924,control_change,12,0,0,,,,,,,,0,64,22,,
141928,note_on,4,0,0,,,,,,,,0,,,79,0
141933,note_on,5,0,0,,,,,,,,0,,,77,41
141940,set_tempo,7,1,0,,,,,,944882,,,,,,
141940,control_change,0,0,0,,,,,,,,0,64,23,,
141952,control_change,12,0,0,,,,,,,,0,64,24,,
141964,control_change,12,0,0,,,,,,,,0,64,25,,
141965,note_on,1,0,0,,,,,,,,0,,,77,0
141970,note_on,5,0,0,,,,,,,,0,,,75,42
141980,control_change,10,0,0,,,,,,,,0,64,26,,
141992,control_change,12,0,0,,,,,,,,0,64,27,,
142000,set_tempo,8,1,0,,,,,,937500,,,,,,
142002,note_on,2,0,0,,,,,,,,0,,,75,0
142004,control_change,2,0,0,,,,,,,,0,64,28,,
142007,note_on,3,0,0,,,,,,,,0,,,74,43
142032,control_change,25,0,0,,,,,,,,0,64,29,,
142039,note_on,7,0,0,,,,,,,,0,,,74,0
142044,control_change,5,0,0,,,,,,,,0,64,30,,
142044,note_on,0,0,0,,,,,,,,0,,,72,45
142060,set_tempo,16,1,0,,,,,,930233,,,,,,
142060,control_change,0,0,0,,,,,,,,0,64,31,,
142076,note_on,16,0,0,,,,,,,,0,,,72,0
142080,set_tempo,4,1,0,,,,,,863309,,,,,,
142080,note_on,0,0,0,,,,,,,,0,,,69,44
142119,note_on,39,0,0,,,,,,,,0,,,69,0
142124,note_on,5,0,0,,,,,,,,0,,,70,45
142163,note_on,39,0,0,,,,,,,,0,,,70,0
142168,note_on,5,0,0,,,,,,,,0,,,75,46
142200,set_tempo,32,1,0,,,,,,857143,,,,,,
142207,note_on,7,0,0,,,,,,,,0,,,75,0
142212,note_on,5,0,0,,,,,,,,0,,,72,49
142220,set_tempo,8,1,0,,,,,,851064,,,,,,
142251,note_on,31,0,0,,,,,,,,0,,,72,0
142256,note_on,5,0,0,,,,,,,,0,,,70,51
142280,set_tempo,24,1,0,,,,,,845070,,,,,,
142295,note_on,15,0,0,,,,,,,,0,,,70,0
142300,note_on,5,0,0,,,,,,,,0,,,68,53
142339,note_on,39,0,0,,,,,,,,0,,,68,0
142340,set_tempo,1,1,0,,,,,,839161,,,,,,
142344,note_on,4,0,0,,,,,,,,0,,,67,55
142383,note_on,39,0,0,,,,,,,,0,,,67,0
142388,note_on,5,0,0,,,,,,,,0,,,65,55
142420,set_tempo,32,1,0,,,,,,833333,,,,,,
142427,note_on,7,0,0,,,,,,,,0,,,65,0
142432,note_on,5,0,0,,,,,,,,0,,,63,57
142471,note_on,39,0,0,,,,,,,,0,,,63,0
142476,note_on,5,0,0,,,,,,,,0,,,62,59
142480,set_tempo,4,1,0,,,,,,827586,,,,,,
142515,note_on,35,0,0,,,,,,,,0,,,62,0
142520,set_tempo,5,1,0,,,,,,833333,,,,,,
142520,note_on,0,0,0,,,,,,,,0,,,60,62
142555,note_on,35,0,0,,,,,,,,0,,,60,0
142560,note_on,5,0,0,,,,,,,,0,,,57,53
142592,note_on,32,0,0,,,,,,,,0,,,57,0
142594,control_change,2,0,0,,,,,,,,0,64,127,,
142597,note_on,3,0,0,,,,,,,,0,,,58,54
142629,note_on,32,0,0,,,,,,,,0,,,58,0
142634,note_on,5,0,0,,,,,,,,0,,,67,56
142660,set_tempo,26,1,0,,,,,,827586,,,,,,
142666,note_on,6,0,0,,,,,,,,0,,,67,0
142671,note_on,5,0,0,,,,,,,,0,,,63,57
142703,note_on,32,0,0,,,,,,,,0,,,63,0
142708,note_on,5,0,0,,,,,,,,0,,,62,59
142740,note_on,32,0,0,,,,,,,,0,,,62,0
142745,note_on,5,0,0,,,,,,,,0,,,60,60
142777,note_on,32,0,0,,,,,,,,0,,,60,0
142780,set_tempo,3,1,0,,,,,,821918,,,,,,
142782,note_on,2,0,0,,,,,,,,0,,,58,63
142814,note_on,32,0,0,,,,,,,,0,,,58,0
142819,note_on,5,0,0,,,,,,,,0,,,56,62
142851,note_on,32,0,0,,,,,,,,0,,,56,0
142856,note_on,5,0,0,,,,,,,,0,,,55,63
142888,note_on,32,0,0,,,,,,,,0,,,55,0
142893,note_on,5,0,0,,,,,,,,0,,,53,65
142920,set_tempo,27,1,0,,,,,,816327,,,,,,
142925,note_on,5,0,0,,,,,,,,0,,,53,0
142930,note_on,5,0,0,,,,,,,,0,,,51,67
142962,note_on,32,0,0,,,,,,,,0,,,51,0
142967,note_on,5,0,0,,,,,,,,0,,,50,69
142999,note_on,32,0,0,,,,,,,,0,,,50,0
143004,note_on,5,0,0,,,,,,,,0,,,48,71
143036,note_on,32,0,0,,,,,,,,0,,,48,0
143040,set_tempo,4,1,0,,,,,,1333333,,,,,,
143040,note_on,0,0,0,,,,,,,,0,,,46,86
143059,control_change,19,0,0,,,,,,,,0,64,0,,
143280,note_on,221,0,0,,,,,,,,0,,,63,69
143280,note_on,0,0,0,,,,,,,,0,,,58,62
143280,note_on,0,0,0,,,,,,,,0,,,55,62
143280,note_on,0,0,0,,,,,,,,0,,,51,62
143280,note_on,0,0,0,,,,,,,,0,,,37,62
143280,note_on,0,0,0,,,,,,,,0,,,39,62
143520,note_on,240,0,0,,,,,,,,0,,,39,0
143520,note_on,0,0,0,,,,,,,,0,,,51,0
143520,note_on,0,0,0,,,,,,,,0,,,63,0
143520,note_on,0,0,0,,,,,,,,0,,,58,0
143520,note_on,0,0,0,,,,,,,,0,,,46,0
143520,note_on,0,0,0,,,,,,,,0,,,37,0
143520,note_on,0,0,0,,,,,,,,0,,,55,0
143520,note_on,0,0,0,,,,,,,,0,,,47,81
143760,set_tempo,240,1,0,,,,,,1428571,,,,,,
143760,note_on,0,0,0,,,,,,,,0,,,63,67
143760,note_on,0,0,0,,,,,,,,0,,,59,60
143760,note_on,0,0,0,,,,,,,,0,,,54,60
143760,note_on,0,0,0,,,,,,,,0,,,51,60
143760,note_on,0,0,0,,,,,,,,0,,,35,60
143760,note_on,0,0,0,,,,,,,,0,,,39,60
144000,set_tempo,240,1,0,,,,,,1578947,,,,,,
144000,note_on,0,0,0,,,,,,,,0,,,39,0
144000,note_on,0,0,0,,,,,,,,0,,,51,0
144000,note_on,0,0,0,,,,,,,,0,,,63,0
144000,note_on,0,0,0,,,,,,,,0,,,59,0
144000,note_on,0,0,0,,,,,,,,0,,,47,0
144000,note_on,0,0,0,,,,,,,,0,,,35,0
144000,note_on,0,0,0,,,,,,,,0,,,54,0
144000,note_on,0,0,0,,,,,,,,0,,,63,67
144000,note_on,0,0,0,,,,,,,,0,,,59,61
144000,note_on,0,0,0,,,,,,,,0,,,56,61
144000,note_on,0,0,0,,,,,,,,0,,,51,61
144000,note_on,0,0,0,,,,,,,,0,,,32,61
144000,note_on,0,0,0,,,,,,,,0,,,39,61
144000,note_on,0,0,0,,,,,,,,0,,,47,72
144240,set_tempo,240,1,0,,,,,,1846154,,,,,,
144240,note_on,0,0,0,,,,,,,,0,,,47,0
144240,note_on,0,0,0,,,,,,,,0,,,32,0
144240,note_on,0,0,0,,,,,,,,0,,,59,0
144240,note_on,0,0,0,,,,,,,,0,,,56,0
144240,note_on,0,0,0,,,,,,,,0,,,63,0
144240,note_on,0,0,0,,,,,,,,0,,,39,0
144240,note_on,0,0,0,,,,,,,,0,,,51,0
144240,note_on,0,0,0,,,,,,,,0,,,65,67
144240,note_on,0,0,0,,,,,,,,0,,,59,61
144240,note_on,0,0,0,,,,,,,,0,,,56,61
144240,note_on,0,0,0,,,,,,,,0,,,53,61
144240,note_on,0,0,0,,,,,,,,0,,,32,61
144240,note_on,0,0,0,,,,,,,,0,,,39,61
144240,note_on,0,0,0,,,,,,,,0,,,44,72
144480,set_tempo,240,1,0,,,,,,1600000,,,,,,
144480,note_on,0,0,0,,,,,,,,0,,,44,0
144480,note_on,0,0,0,,,,,,,,0,,,32,0
144480,note_on,0,0,0,,,,,,,,0,,,59,0
144480,note_on,0,0,0,,,,,,,,0,,,56,0
144480,note_on,0,0,0,,,,,,,,0,,,65,0
144480,note_on,0,0,0,,,,,,,,0,,,39,0
144480,note_on,0,0,0,,,,,,,,0,,,53,0
144480,note_on,0,0,0,,,,,,,,0,,,55,67
144480,note_on,0,0,0,,,,,,,,0,,,58,67
144480,note_on,0,0,0,,,,,,,,0,,,63,67
144480,note_on,0,0,0,,,,,,,,0,,,67,75
144480,note_on,0,0,0,,,,,,,,0,,,27,61
144480,note_on,0,0,0,,,,,,,,0,,,34,61
144480,note_on,0,0,0,,,,,,,,0,,,39,69
144907,control_change,427,0,0,,,,,,,,0,64,127,,
145440,set_tempo,533,1,0,,,,,,2000000,,,,,,
145440,note_on,0,0,0,,,,,,,,0,,,39,0
145440,note_on,0,0,0,,,,,,,,0,,,27,0
145440,note_on,0,0,0,,,,,,,,0,,,58,0
145440,note_on,0,0,0,,,,,,,,0,,,63,0
145440,note_on,0,0,0,,,,,,,,0,,,55,0
145440,note_on,0,0,0,,,,,,,,0,,,34,0
145440,note_on,0,0,0,,,,,,,,0,,,67,0
145440,note_on,0,0,0,,,,,,,,0,,,55,65
145440,note_on,0,0,0,,,,,,,,0,,,58,65
145440,note_on,0,0,0,,,,,,,,0,,,63,65
145440,note_on,0,0,0,,,,,,,,0,,,67,73
145440,note_on,0,0,0,,,,,,,,0,,,27,61
145440,note_on,0,0,0,,,,,,,,0,,,34,61
145440,note_on,0,0,0,,,,,,,,0,,,39,69
145920,set_tempo,480,1,0,,,,,,2352941,,,,,,
145920,note_on,0,0,0,,,,,,,,0,,,39,0
145920,note_on,0,0,0,,,,,,,,0,,,27,0
145920,note_on,0,0,0,,,,,,,,0,,,58,0
145920,note_on,0,0,0,,,,,,,,0,,,63,0
145920,note_on,0,0,0,,,,,,,,0,,,55,0
145920,note_on,0,0,0,,,,,,,,0,,,34,0
145920,note_on,0,0,0,,,,,,,,0,,,67,0
145920,note_on,0,0,0,,,,,,,,0,,,55,65
145920,note_on,0,0,0,,,,,,,,0,,,58,65
145920,note_on,0,0,0,,,,,,,,0,,,63,65
145920,note_on,0,0,0,,,,,,,,0,,,67,73
145920,note_on,0,0,0,,,,,,,,0,,,27,61
145920,note_on,0,0,0,,,,,,,,0,,,34,61
145920,note_on,0,0,0,,,,,,,,0,,,39,69
146400,note_on,480,0,0,,,,,,,,0,,,39,0
146400,note_on,0,0,0,,,,,,,,0,,,27,0
146400,note_on,0,0,0,,,,,,,,0,,,58,0
146400,note_on,0,0,0,,,,,,,,0,,,63,0
146400,note_on,0,0,0,,,,,,,,0,,,55,0
146400,note_on,0,0,0,,,,,,,,0,,,34,0
146400,note_on,0,0,0,,,,,,,,0,,,67,0
146400,note_on,0,0,0,,,,,,,,0,,,55,65
146400,note_on,0,0,0,,,,,,,,0,,,58,65
146400,note_on,0,0,0,,,,,,,,0,,,63,65
146400,note_on,0,0,0,,,,,,,,0,,,67,73
146400,note_on,0,0,0,,,,,,,,0,,,27,61
146400,note_on,0,0,0,,,,,,,,0,,,34,61
146400,note_on,0,0,0,,,,,,,,0,,,39,69
148320,marker,1920,1,0,,,,,,,,,,,,
148320,note_on,0,0,0,,,,,,,,0,,,39,0
148320,note_on,0,0,0,,,,,,,,0,,,27,0
148320,note_on,0,0,0,,,,,,,,0,,,58,0
148320,note_on,0,0,0,,,,,,,,0,,,63,0
148320,note_on,0,0,0,,,,,,,,0,,,55,0
148320,note_on,0,0,0,,,,,,,,0,,,34,0
148320,note_on,0,0,0,,,,,,,,0,,,67,0
148534,control_change,214,0,0,,,,,,,,0,64,0,,
148534,end_of_track,0,1,0,,,,,,,,,,,,
