tick,type,time,meta,track,numerator,denominator,clocks_per_click,notated_32nd_notes_per_beat,key,tempo,program,channel,control,value,note,velocity
0,track_name,0,1,0,,,,,,,,,,,,
0,copyright,0,1,0,,,,,,,,,,,,
0,text,0,1,0,,,,,,,,,,,,
0,text,0,1,0,,,,,,,,,,,,
0,text,0,1,0,,,,,,,,,,,,
0,text,0,1,0,,,,,,,,,,,,
0,text,0,1,0,,,,,,,,,,,,
0,text,0,1,0,,,,,,,,,,,,
0,time_signature,0,1,0,6,4,24,8,,,,,,,,
0,key_signature,0,1,0,,,,,Bb,,,,,,,
0,set_tempo,0,1,0,,,,,,1379310,,,,,,
0,program_change,0,0,0,,,,,,,0,0,,,,
0,control_change,0,0,0,,,,,,,,0,7,100,,
0,control_change,0,0,0,,,,,,,,0,10,64,,
0,control_change,0,0,0,,,,,,,,0,91,127,,
0,text,0,1,0,,,,,,,,,,,,
0,program_change,0,0,0,,,,,,,0,0,,,,
0,control_change,0,0,0,,,,,,,,0,7,100,,
0,control_change,0,0,0,,,,,,,,0,10,64,,
0,program_change,0,0,0,,,,,,,0,0,,,,
0,control_change,0,0,0,,,,,,,,0,7,100,,
0,control_change,0,0,0,,,,,,,,0,10,64,,
0,note_on,0,0,0,,,,,,,,0,,,31,80
0,program_change,0,0,0,,,,,,,0,0,,,,
0,control_change,0,0,0,,,,,,,,0,7,100,,
0,control_change,0,0,0,,,,,,,,0,10,64,,
1,marker,1,1,0,,,,,,,,,,,,
40,control_change,39,0,0,,,,,,,,0,64,127,,
480,set_tempo,440,1,0,,,,,,1379310,,,,,,
480,note_on,0,0,0,,,,,,,,0,,,31,0
480,note_on,0,0,0,,,,,,,,0,,,34,55
540,note_on,60,0,0,,,,,,,,0,,,34,0
540,note_on,0,0,0,,,,,,,,0,,,38,58
560,set_tempo,20,1,0,,,,,,1363636,,,,,,
600,set_tempo,40,1,0,,,,,,1348315,,,,,,
600,note_on,0,0,0,,,,,,,,0,,,38,0
600,note_on,0,0,0,,,,,,,,0,,,43,61
640,set_tempo,40,1,0,,,,,,1212121,,,,,,
652,set_tempo,12,1,0,,,,,,1200000,,,,,,
660,note_on,8,0,0,,,,,,,,0,,,43,0
660,note_on,0,0,0,,,,,,,,0,,,46,63
664,set_tempo,4,1,0,,,,,,1176471,,,,,,
680,set_tempo,16,1,0,,,,,,1165049,,,,,,
692,set_tempo,12,1,0,,,,,,1142857,,,,,,
704,set_tempo,12,1,0,,,,,,1121495,,,,,,
720,set_tempo,16,1,0,,,,,,1250000,,,,,,
720,note_on,0,0,0,,,,,,,,0,,,46,0
720,note_on,0,0,0,,,,,,,,0,,,50,66
732,set_tempo,12,1,0,,,,,,1090909,,,,,,
772,set_tempo,40,1,0,,,,,,1081081,,,,,,
780,note_on,8,0,0,,,,,,,,0,,,50,0
780,note_on,0,0,0,,,,,,,,0,,,55,68
800,set_tempo,20,1,0,,,,,,1071429,,,,,,
824,set_tempo,24,1,0,,,,,,1061947,,,,,,
840,note_on,16,0,0,,,,,,,,0,,,55,0
840,note_on,0,0,0,,,,,,,,0,,,58,68
852,set_tempo,12,1,0,,,,,,1052632,,,,,,
880,set_tempo,28,1,0,,,,,,1043478,,,,,,
900,note_on,20,0,0,,,,,,,,0,,,58,0
900,note_on,0,0,0,,,,,,,,0,,,62,71
904,set_tempo,4,1,0,,,,,,1034483,,,,,,
932,set_tempo,28,1,0,,,,,,1025641,,,,,,
960,set_tempo,28,1,0,,,,,,1428571,,,,,,
960,note_on,0,0,0,,,,,,,,0,,,62,0
960,note_on,0,0,0,,,,,,,,0,,,67,77
973,control_change,13,0,0,,,,,,,,0,64,0,,
1131,control_change,158,0,0,,,,,,,,0,64,127,,
1424,set_tempo,293,1,0,,,,,,1428571,,,,,,
1452,set_tempo,28,1,0,,,,,,1411765,,,,,,
1464,set_tempo,12,1,0,,,,,,1395349,,,,,,
1480,set_tempo,16,1,0,,,,,,1379310,,,,,,
1492,set_tempo,12,1,0,,,,,,1363636,,,,,,
1500,note_on,8,0,0,,,,,,,,0,,,67,0
1500,note_on,0,0,0,,,,,,,,0,,,66,60
1504,set_tempo,4,1,0,,,,,,1348315,,,,,,
1520,set_tempo,16,1,0,,,,,,1333333,,,,,,
1532,set_tempo,12,1,0,,,,,,1318681,,,,,,
1544,set_tempo,12,1,0,,,,,,1304348,,,,,,
1560,set_tempo,16,1,0,,,,,,1290323,,,,,,
1560,note_on,0,0,0,,,,,,,,0,,,66,0
1560,note_on,0,0,0,,,,,,,,0,,,63,61
1572,set_tempo,12,1,0,,,,,,1276596,,,,,,
1584,set_tempo,12,1,0,,,,,,1263158,,,,,,
1600,set_tempo,16,1,0,,,,,,1250000,,,,,,
1612,set_tempo,12,1,0,,,,,,1237113,,,,,,
1620,note_on,8,0,0,,,,,,,,0,,,63,0
1620,note_on,0,0,0,,,,,,,,0,,,62,62
1624,set_tempo,4,1,0,,,,,,1224490,,,,,,
1640,set_tempo,16,1,0,,,,,,1212121,,,,,,
1652,set_tempo,12,1,0,,,,,,1200000,,,,,,
1664,set_tempo,12,1,0,,,,,,1188119,,,,,,
1680,set_tempo,16,1,0,,,,,,1176471,,,,,,
1680,note_on,0,0,0,,,,,,,,0,,,62,0
1680,note_on,0,0,0,,,,,,,,0,,,60,62
1692,set_tempo,12,1,0,,,,,,1165049,,,,,,
1704,set_tempo,12,1,0,,,,,,1153846,,,,,,
1720,set_tempo,16,1,0,,,,,,1142857,,,,,,
1732,set_tempo,12,1,0,,,,,,1132075,,,,,,
1740,note_on,8,0,0,,,,,,,,0,,,60,0
1740,note_on,0,0,0,,,,,,,,0,,,58,63
1744,set_tempo,4,1,0,,,,,,1121495,,,,,,
1760,set_tempo,16,1,0,,,,,,1111111,,,,,,
1772,set_tempo,12,1,0,,,,,,1100917,,,,,,
1784,set_tempo,12,1,0,,,,,,1090909,,,,,,
1800,set_tempo,16,1,0,,,,,,1081081,,,,,,
1800,note_on,0,0,0,,,,,,,,0,,,58,0
1800,note_on,0,0,0,,,,,,,,0,,,57,63
1812,set_tempo,12,1,0,,,,,,1071429,,,,,,
1824,set_tempo,12,1,0,,,,,,1061947,,,,,,
1840,set_tempo,16,1,0,,,,,,1052632,,,,,,
1852,set_tempo,12,1,0,,,,,,1043478,,,,,,
1860,note_on,8,0,0,,,,,,,,0,,,57,0
1860,note_on,0,0,0,,,,,,,,0,,,55,63
1864,set_tempo,4,1,0,,,,,,1034483,,,,,,
1880,set_tempo,16,1,0,,,,,,1025641,,,,,,
1892,set_tempo,12,1,0,,,,,,1016949,,,,,,
1904,set_tempo,12,1,0,,,,,,1008403,,,,,,
1920,set_tempo,16,1,0,,,,,,944882,,,,,,
1920,note_on,0,0,0,,,,,,,,0,,,55,0
1920,note_on,0,0,0,,,,,,,,0,,,54,64
1944,set_tempo,24,1,0,,,,,,937500,,,,,,
1960,set_tempo,16,1,0,,,,,,930233,,,,,,
1972,set_tempo,12,1,0,,,,,,923077,,,,,,
1980,note_on,8,0,0,,,,,,,,0,,,54,0
1980,note_on,0,0,0,,,,,,,,0,,,51,63
1984,set_tempo,4,1,0,,,,,,916031,,,,,,
2000,set_tempo,16,1,0,,,,,,909091,,,,,,
2012,set_tempo,12,1,0,,,,,,902256,,,,,,
2024,set_tempo,12,1,0,,,,,,895522,,,,,,
2040,set_tempo,16,1,0,,,,,,888889,,,,,,
2040,note_on,0,0,0,,,,,,,,0,,,51,0
2040,note_on,0,0,0,,,,,,,,0,,,50,63
2052,set_tempo,12,1,0,,,,,,882353,,,,,,
2080,set_tempo,28,1,0,,,,,,875912,,,,,,
2092,set_tempo,12,1,0,,,,,,869565,,,,,,
2100,note_on,8,0,0,,,,,,,,0,,,50,0
2100,note_on,0,0,0,,,,,,,,0,,,48,64
2104,set_tempo,4,1,0,,,,,,863309,,,,,,
2120,set_tempo,16,1,0,,,,,,857143,,,,,,
2132,set_tempo,12,1,0,,,,,,851064,,,,,,
2144,set_tempo,12,1,0,,,,,,845070,,,,,,
2160,set_tempo,16,1,0,,,,,,839161,,,,,,
2160,note_on,0,0,0,,,,,,,,0,,,48,0
2160,note_on,0,0,0,,,,,,,,0,,,46,64
2172,set_tempo,12,1,0,,,,,,833333,,,,,,
2184,set_tempo,12,1,0,,,,,,827586,,,,,,
2200,set_tempo,16,1,0,,,,,,821918,,,,,,
2220,note_on,20,0,0,,,,,,,,0,,,46,0
2220,note_on,0,0,0,,,,,,,,0,,,45,65
2224,set_tempo,4,1,0,,,,,,816327,,,,,,
2240,set_tempo,16,1,0,,,,,,810811,,,,,,
2252,set_tempo,12,1,0,,,,,,805369,,,,,,
2264,set_tempo,12,1,0,,,,,,800000,,,,,,
2280,set_tempo,16,1,0,,,,,,794702,,,,,,
2280,note_on,0,0,0,,,,,,,,0,,,45,0
2280,note_on,0,0,0,,,,,,,,0,,,43,66
2292,set_tempo,12,1,0,,,,,,789474,,,,,,
2304,set_tempo,12,1,0,,,,,,784314,,,,,,
2320,set_tempo,16,1,0,,,,,,779221,,,,,,
2332,set_tempo,12,1,0,,,,,,774194,,,,,,
2340,note_on,8,0,0,,,,,,,,0,,,43,0
2340,note_on,0,0,0,,,,,,,,0,,,42,67
2344,set_tempo,4,1,0,,,,,,769231,,,,,,
2400,note_on,56,0,0,,,,,,,,0,,,42,0
2400,note_on,0,0,0,,,,,,,,0,,,39,68
2460,note_on,60,0,0,,,,,,,,0,,,39,0
2460,note_on,0,0,0,,,,,,,,0,,,38,69
2480,set_tempo,20,1,0,,,,,,764331,,,,,,
2520,note_on,40,0,0,,,,,,,,0,,,38,0
2520,note_on,0,0,0,,,,,,,,0,,,36,70
2580,note_on,60,0,0,,,,,,,,0,,,36,0
2580,note_on,0,0,0,,,,,,,,0,,,34,70
2612,set_tempo,32,1,0,,,,,,759494,,,,,,
2640,note_on,28,0,0,,,,,,,,0,,,34,0
2640,note_on,0,0,0,,,,,,,,0,,,33,71
2700,note_on,60,0,0,,,,,,,,0,,,33,0
2700,note_on,0,0,0,,,,,,,,0,,,46,79
2700,note_on,0,0,0,,,,,,,,0,,,31,74
2717,control_change,17,0,0,,,,,,,,0,64,0,,
2744,set_tempo,27,1,0,,,,,,754717,,,,,,
2800,control_change,56,0,0,,,,,,,,0,64,127,,
2880,time_signature,80,1,0,8,4,24,8,,,,,,,,
2880,set_tempo,0,1,0,,,,,,1290323,,,,,,
3344,set_tempo,464,1,0,,,,,,1016949,,,,,,
3360,set_tempo,16,1,0,,,,,,1237113,,,,,,
3372,set_tempo,12,1,0,,,,,,975610,,,,,,
3384,set_tempo,12,1,0,,,,,,960000,,,,,,
3400,set_tempo,16,1,0,,,,,,937500,,,,,,
3412,set_tempo,12,1,0,,,,,,923077,,,,,,
3424,set_tempo,12,1,0,,,,,,902256,,,,,,
3440,set_tempo,16,1,0,,,,,,888889,,,,,,
3440,note_on,0,0,0,,,,,,,,0,,,31,0
3440,note_on,0,0,0,,,,,,,,0,,,46,0
3440,note_on,0,0,0,,,,,,,,0,,,50,60
3440,note_on,0,0,0,,,,,,,,0,,,34,54
3452,set_tempo,12,1,0,,,,,,869565,,,,,,
3464,set_tempo,12,1,0,,,,,,851064,,,,,,
3480,set_tempo,16,1,0,,,,,,839161,,,,,,
3492,set_tempo,12,1,0,,,,,,827586,,,,,,
3504,set_tempo,12,1,0,,,,,,816327,,,,,,
3520,set_tempo,16,1,0,,,,,,805369,,,,,,
3520,note_on,0,0,0,,,,,,,,0,,,34,0
3520,note_on,0,0,0,,,,,,,,0,,,50,0
3520,note_on,0,0,0,,,,,,,,0,,,55,62
3520,note_on,0,0,0,,,,,,,,0,,,38,55
3532,set_tempo,12,1,0,,,,,,794702,,,,,,
3544,set_tempo,12,1,0,,,,,,784314,,,,,,
3560,set_tempo,16,1,0,,,,,,769231,,,,,,
3572,set_tempo,12,1,0,,,,,,759494,,,,,,
3584,set_tempo,12,1,0,,,,,,750000,,,,,,
3600,set_tempo,16,1,0,,,,,,740741,,,,,,
3600,note_on,0,0,0,,,,,,,,0,,,38,0
3600,note_on,0,0,0,,,,,,,,0,,,55,0
3600,note_on,0,0,0,,,,,,,,0,,,58,63
3600,note_on,0,0,0,,,,,,,,0,,,43,56
3612,set_tempo,12,1,0,,,,,,731707,,,,,,
3624,set_tempo,12,1,0,,,,,,722892,,,,,,
3640,set_tempo,16,1,0,,,,,,710059,,,,,,
3652,set_tempo,12,1,0,,,,,,701754,,,,,,
3664,set_tempo,12,1,0,,,,,,693642,,,,,,
3680,set_tempo,16,1,0,,,,,,685714,,,,,,
3680,note_on,0,0,0,,,,,,,,0,,,43,0
3680,note_on,0,0,0,,,,,,,,0,,,58,0
3680,note_on,0,0,0,,,,,,,,0,,,62,64
3680,note_on,0,0,0,,,,,,,,0,,,46,58
3692,set_tempo,12,1,0,,,,,,677966,,,,,,
3704,set_tempo,12,1,0,,,,,,670391,,,,,,
3720,set_tempo,16,1,0,,,,,,659341,,,,,,
3732,set_tempo,12,1,0,,,,,,655738,,,,,,
3744,set_tempo,12,1,0,,,,,,652174,,,,,,
3760,note_on,16,0,0,,,,,,,,0,,,46,0
3760,note_on,0,0,0,,,,,,,,0,,,62,0
3760,note_on,0,0,0,,,,,,,,0,,,67,65
3760,note_on,0,0,0,,,,,,,,0,,,50,59
3772,set_tempo,12,1,0,,,,,,645161,,,,,,
3812,set_tempo,40,1,0,,,,,,641711,,,,,,
3840,note_on,28,0,0,,,,,,,,0,,,50,0
3840,note_on,0,0,0,,,,,,,,0,,,67,0
3840,note_on,0,0,0,,,,,,,,0,,,70,67
3840,note_on,0,0,0,,,,,,,,0,,,55,60
3852,set_tempo,12,1,0,,,,,,638298,,,,,,
3892,set_tempo,40,1,0,,,,,,634921,,,,,,
3920,note_on,28,0,0,,,,,,,,0,,,55,0
3920,note_on,0,0,0,,,,,,,,0,,,70,0
3920,note_on,0,0,0,,,,,,,,0,,,74,68
3920,note_on,0,0,0,,,,,,,,0,,,58,62
3932,set_tempo,12,1,0,,,,,,631579,,,,,,
3972,set_tempo,40,1,0,,,,,,628272,,,,,,
4000,note_on,28,0,0,,,,,,,,0,,,58,0
4000,note_on,0,0,0,,,,,,,,0,,,74,0
4000,note_on,0,0,0,,,,,,,,0,,,79,70
4000,note_on,0,0,0,,,,,,,,0,,,62,63
4012,set_tempo,12,1,0,,,,,,625000,,,,,,
4052,set_tempo,40,1,0,,,,,,621762,,,,,,
4080,note_on,28,0,0,,,,,,,,0,,,62,0
4080,note_on,0,0,0,,,,,,,,0,,,79,0
4080,note_on,0,0,0,,,,,,,,0,,,82,71
4080,note_on,0,0,0,,,,,,,,0,,,67,64
4092,set_tempo,12,1,0,,,,,,618557,,,,,,
4132,set_tempo,40,1,0,,,,,,615385,,,,,,
4160,note_on,28,0,0,,,,,,,,0,,,67,0
4160,note_on,0,0,0,,,,,,,,0,,,82,0
4160,note_on,0,0,0,,,,,,,,0,,,86,72
4160,note_on,0,0,0,,,,,,,,0,,,70,65
4172,set_tempo,12,1,0,,,,,,612245,,,,,,
4212,set_tempo,40,1,0,,,,,,609137,,,,,,
4240,set_tempo,28,1,0,,,,,,606061,,,,,,
4240,note_on,0,0,0,,,,,,,,0,,,70,0
4240,note_on,0,0,0,,,,,,,,0,,,86,0
4240,note_on,0,0,0,,,,,,,,0,,,91,77
4240,note_on,0,0,0,,,,,,,,0,,,74,67
4320,set_tempo,80,1,0,,,,,,1212121,,,,,,
4320,note_on,0,0,0,,,,,,,,0,,,74,0
4320,note_on,0,0,0,,,,,,,,0,,,91,0
4320,note_on,0,0,0,,,,,,,,0,,,94,80
4320,note_on,0,0,0,,,,,,,,0,,,79,75
4334,control_change,14,0,0,,,,,,,,0,64,0,,
4526,control_change,192,0,0,,,,,,,,0,64,127,,
4840,set_tempo,314,1,0,,,,,,1061947,,,,,,
4860,note_on,20,0,0,,,,,,,,0,,,79,0
4860,note_on,0,0,0,,,,,,,,0,,,94,0
4860,note_on,0,0,0,,,,,,,,0,,,93,58
4860,note_on,0,0,0,,,,,,,,0,,,78,50
4864,set_tempo,4,1,0,,,,,,1052632,,,,,,
4880,set_tempo,16,1,0,,,,,,1043478,,,,,,
4904,set_tempo,24,1,0,,,,,,1034483,,,,,,
4920,set_tempo,16,1,0,,,,,,1025641,,,,,,
4920,note_on,0,0,0,,,,,,,,0,,,78,0
4920,note_on,0,0,0,,,,,,,,0,,,93,0
4920,note_on,0,0,0,,,,,,,,0,,,91,59
4920,note_on,0,0,0,,,,,,,,0,,,75,51
4960,set_tempo,40,1,0,,,,,,1008403,,,,,,
4972,set_tempo,12,1,0,,,,,,1000000,,,,,,
4980,note_on,8,0,0,,,,,,,,0,,,75,0
4980,note_on,0,0,0,,,,,,,,0,,,91,0
4980,note_on,0,0,0,,,,,,,,0,,,90,59
4980,note_on,0,0,0,,,,,,,,0,,,74,51
4984,set_tempo,4,1,0,,,,,,991736,,,,,,
5000,set_tempo,16,1,0,,,,,,983607,,,,,,
5012,set_tempo,12,1,0,,,,,,975610,,,,,,
5024,set_tempo,12,1,0,,,,,,967742,,,,,,
5040,set_tempo,16,1,0,,,,,,960000,,,,,,
5040,note_on,0,0,0,,,,,,,,0,,,74,0
5040,note_on,0,0,0,,,,,,,,0,,,90,0
5040,note_on,0,0,0,,,,,,,,0,,,87,60
5040,note_on,0,0,0,,,,,,,,0,,,72,52
5052,set_tempo,12,1,0,,,,,,952381,,,,,,
5064,set_tempo,12,1,0,,,,,,944882,,,,,,
5080,set_tempo,16,1,0,,,,,,937500,,,,,,
5092,set_tempo,12,1,0,,,,,,930233,,,,,,
5100,note_on,8,0,0,,,,,,,,0,,,72,0
5100,note_on,0,0,0,,,,,,,,0,,,87,0
5100,note_on,0,0,0,,,,,,,,0,,,86,60
5100,note_on,0,0,0,,,,,,,,0,,,70,52
5104,set_tempo,4,1,0,,,,,,923077,,,,,,
5120,set_tempo,16,1,0,,,,,,916031,,,,,,
5132,set_tempo,12,1,0,,,,,,902256,,,,,,
5144,set_tempo,12,1,0,,,,,,895522,,,,,,
5160,set_tempo,16,1,0,,,,,,888889,,,,,,
5160,note_on,0,0,0,,,,,,,,0,,,70,0
5160,note_on,0,0,0,,,,,,,,0,,,86,0
5160,note_on,0,0,0,,,,,,,,0,,,84,61
5160,note_on,0,0,0,,,,,,,,0,,,69,53
5172,set_tempo,12,1,0,,,,,,882353,,,,,,
5184,set_tempo,12,1,0,,,,,,875912,,,,,,
5200,set_tempo,16,1,0,,,,,,869565,,,,,,
5212,set_tempo,12,1,0,,,,,,863309,,,,,,
5220,note_on,8,0,0,,,,,,,,0,,,69,0
5220,note_on,0,0,0,,,,,,,,0,,,84,0
5220,note_on,0,0,0,,,,,,,,0,,,82,62
5220,note_on,0,0,0,,,,,,,,0,,,67,54
5224,set_tempo,4,1,0,,,,,,857143,,,,,,
5240,set_tempo,16,1,0,,,,,,851064,,,,,,
5252,set_tempo,12,1,0,,,,,,845070,,,,,,
5264,set_tempo,12,1,0,,,,,,839161,,,,,,
5280,set_tempo,16,1,0,,,,,,833333,,,,,,
5280,note_on,0,0,0,,,,,,,,0,,,67,0
5280,note_on,0,0,0,,,,,,,,0,,,82,0
5280,note_on,0,0,0,,,,,,,,0,,,81,62
5280,note_on,0,0,0,,,,,,,,0,,,66,54
5292,set_tempo,12,1,0,,,,,,827586,,,,,,
5304,set_tempo,12,1,0,,,,,,821918,,,,,,
5320,set_tempo,16,1,0,,,,,,816327,,,,,,
5332,set_tempo,12,1,0,,,,,,810811,,,,,,
5340,note_on,8,0,0,,,,,,,,0,,,66,0
5340,note_on,0,0,0,,,,,,,,0,,,81,0
5340,note_on,0,0,0,,,,,,,,0,,,79,63
5340,note_on,0,0,0,,,,,,,,0,,,63,54
5344,set_tempo,4,1,0,,,,,,805369,,,,,,
5360,set_tempo,16,1,0,,,,,,800000,,,,,,
5372,set_tempo,12,1,0,,,,,,789474,,,,,,
5384,set_tempo,12,1,0,,,,,,784314,,,,,,
5400,set_tempo,16,1,0,,,,,,779221,,,,,,
5400,note_on,0,0,0,,,,,,,,0,,,63,0
5400,note_on,0,0,0,,,,,,,,0,,,79,0
5400,note_on,0,0,0,,,,,,,,0,,,78,63
5400,note_on,0,0,0,,,,,,,,0,,,62,54
5412,set_tempo,12,1,0,,,,,,774194,,,,,,
5424,set_tempo,12,1,0,,,,,,769231,,,,,,
5440,set_tempo,16,1,0,,,,,,764331,,,,,,
5452,set_tempo,12,1,0,,,,,,754717,,,,,,
5460,note_on,8,0,0,,,,,,,,0,,,62,0
5460,note_on,0,0,0,,,,,,,,0,,,78,0
5460,note_on,0,0,0,,,,,,,,0,,,75,63
5460,note_on,0,0,0,,,,,,,,0,,,60,55
5464,set_tempo,4,1,0,,,,,,750000,,,,,,
5480,set_tempo,16,1,0,,,,,,745342,,,,,,
5492,set_tempo,12,1,0,,,,,,740741,,,,,,
5504,set_tempo,12,1,0,,,,,,736196,,,,,,
5520,set_tempo,16,1,0,,,,,,731707,,,,,,
5520,note_on,0,0,0,,,,,,,,0,,,60,0
5520,note_on,0,0,0,,,,,,,,0,,,75,0
5520,note_on,0,0,0,,,,,,,,0,,,74,63
5520,note_on,0,0,0,,,,,,,,0,,,58,56
5532,set_tempo,12,1,0,,,,,,722892,,,,,,
5544,set_tempo,12,1,0,,,,,,718563,,,,,,
5560,set_tempo,16,1,0,,,,,,714286,,,,,,
5572,set_tempo,12,1,0,,,,,,710059,,,,,,
5580,note_on,8,0,0,,,,,,,,0,,,58,0
5580,note_on,0,0,0,,,,,,,,0,,,74,0
5580,note_on,0,0,0,,,,,,,,0,,,72,64
5580,note_on,0,0,0,,,,,,,,0,,,57,56
5584,set_tempo,4,1,0,,,,,,705882,,,,,,
5600,set_tempo,16,1,0,,,,,,701754,,,,,,
5612,set_tempo,12,1,0,,,,,,693642,,,,,,
5624,set_tempo,12,1,0,,,,,,689655,,,,,,
5640,set_tempo,16,1,0,,,,,,685714,,,,,,
5640,note_on,0,0,0,,,,,,,,0,,,57,0
5640,note_on,0,0,0,,,,,,,,0,,,72,0
5640,note_on,0,0,0,,,,,,,,0,,,70,64
5640,note_on,0,0,0,,,,,,,,0,,,55,57
5652,set_tempo,12,1,0,,,,,,681818,,,,,,
5664,set_tempo,12,1,0,,,,,,677966,,,,,,
5680,set_tempo,16,1,0,,,,,,674157,,,,,,
5692,set_tempo,12,1,0,,,,,,666667,,,,,,
5700,note_on,8,0,0,,,,,,,,0,,,55,0
5700,note_on,0,0,0,,,,,,,,0,,,70,0
5700,note_on,0,0,0,,,,,,,,0,,,69,65
5700,note_on,0,0,0,,,,,,,,0,,,54,57
5704,set_tempo,4,1,0,,,,,,662983,,,,,,
5720,set_tempo,16,1,0,,,,,,659341,,,,,,
5732,set_tempo,12,1,0,,,,,,655738,,,,,,
5744,set_tempo,12,1,0,,,,,,652174,,,,,,
5760,set_tempo,16,1,0,,,,,,652174,,,,,,
5760,note_on,0,0,0,,,,,,,,0,,,54,0
5760,note_on,0,0,0,,,,,,,,0,,,69,0
5760,note_on,0,0,0,,,,,,,,0,,,67,65
5760,note_on,0,0,0,,,,,,,,0,,,51,58
5820,note_on,60,0,0,,,,,,,,0,,,51,0
5820,note_on,0,0,0,,,,,,,,0,,,67,0
5820,note_on,0,0,0,,,,,,,,0,,,66,66
5820,note_on,0,0,0,,,,,,,,0,,,50,58
5824,set_tempo,4,1,0,,,,,,648649,,,,,,
5880,note_on,56,0,0,,,,,,,,0,,,50,0
5880,note_on,0,0,0,,,,,,,,0,,,66,0
5880,note_on,0,0,0,,,,,,,,0,,,63,66
5880,note_on,0,0,0,,,,,,,,0,,,48,59
5892,set_tempo,12,1,0,,,,,,645161,,,,,,
5940,note_on,48,0,0,,,,,,,,0,,,48,0
5940,note_on,0,0,0,,,,,,,,0,,,63,0
5940,note_on,0,0,0,,,,,,,,0,,,62,67
5940,note_on,0,0,0,,,,,,,,0,,,46,60
5944,set_tempo,4,1,0,,,,,,641711,,,,,,
6000,note_on,56,0,0,,,,,,,,0,,,46,0
6000,note_on,0,0,0,,,,,,,,0,,,62,0
6000,note_on,0,0,0,,,,,,,,0,,,60,68
6000,note_on,0,0,0,,,,,,,,0,,,45,60
6012,set_tempo,12,1,0,,,,,,638298,,,,,,
6060,note_on,48,0,0,,,,,,,,0,,,45,0
6060,note_on,0,0,0,,,,,,,,0,,,60,0
6060,note_on,0,0,0,,,,,,,,0,,,58,68
6060,note_on,0,0,0,,,,,,,,0,,,43,61
6064,set_tempo,4,1,0,,,,,,634921,,,,,,
6120,note_on,56,0,0,,,,,,,,0,,,43,0
6120,note_on,0,0,0,,,,,,,,0,,,58,0
6120,note_on,0,0,0,,,,,,,,0,,,57,69
6120,note_on,0,0,0,,,,,,,,0,,,42,61
6132,set_tempo,12,1,0,,,,,,631579,,,,,,
6180,note_on,48,0,0,,,,,,,,0,,,42,0
6180,note_on,0,0,0,,,,,,,,0,,,57,0
6180,note_on,0,0,0,,,,,,,,0,,,55,69
6180,note_on,0,0,0,,,,,,,,0,,,39,62
6184,set_tempo,4,1,0,,,,,,628272,,,,,,
6240,note_on,56,0,0,,,,,,,,0,,,39,0
6240,note_on,0,0,0,,,,,,,,0,,,55,0
6240,note_on,0,0,0,,,,,,,,0,,,54,70
6240,note_on,0,0,0,,,,,,,,0,,,38,63
6252,set_tempo,12,1,0,,,,,,625000,,,,,,
6300,note_on,48,0,0,,,,,,,,0,,,38,0
6300,note_on,0,0,0,,,,,,,,0,,,54,0
6300,note_on,0,0,0,,,,,,,,0,,,51,70
6300,note_on,0,0,0,,,,,,,,0,,,36,63
6304,set_tempo,4,1,0,,,,,,621762,,,,,,
6360,note_on,56,0,0,,,,,,,,0,,,36,0
6360,note_on,0,0,0,,,,,,,,0,,,51,0
6360,note_on,0,0,0,,,,,,,,0,,,50,71
6360,note_on,0,0,0,,,,,,,,0,,,34,63
6372,set_tempo,12,1,0,,,,,,618557,,,,,,
6420,note_on,48,0,0,,,,,,,,0,,,34,0
6420,note_on,0,0,0,,,,,,,,0,,,50,0
6420,note_on,0,0,0,,,,,,,,0,,,48,71
6420,note_on,0,0,0,,,,,,,,0,,,33,63
6424,set_tempo,4,1,0,,,,,,615385,,,,,,
6480,note_on,56,0,0,,,,,,,,0,,,33,0
6480,note_on,0,0,0,,,,,,,,0,,,48,0
6480,note_on,0,0,0,,,,,,,,0,,,46,72
6480,note_on,0,0,0,,,,,,,,0,,,38,64
6492,set_tempo,12,1,0,,,,,,612245,,,,,,
6540,note_on,48,0,0,,,,,,,,0,,,38,0
6540,note_on,0,0,0,,,,,,,,0,,,46,0
6540,note_on,0,0,0,,,,,,,,0,,,45,72
6540,note_on,0,0,0,,,,,,,,0,,,36,64
6544,set_tempo,4,1,0,,,,,,609137,,,,,,
6600,note_on,56,0,0,,,,,,,,0,,,36,0
6600,note_on,0,0,0,,,,,,,,0,,,45,0
6600,note_on,0,0,0,,,,,,,,0,,,43,80
6600,note_on,0,0,0,,,,,,,,0,,,31,73
6600,note_on,0,0,0,,,,,,,,0,,,34,73
6612,set_tempo,12,1,0,,,,,,606061,,,,,,
6617,control_change,5,0,0,,,,,,,,0,64,0,,
6664,set_tempo,47,1,0,,,,,,603015,,,,,,
6720,set_tempo,56,1,0,,,,,,1290323,,,,,,
6743,control_change,23,0,0,,,,,,,,0,64,127,,
7184,set_tempo,441,1,0,,,,,,1016949,,,,,,
7200,set_tempo,16,1,0,,,,,,1237113,,,,,,
7212,set_tempo,12,1,0,,,,,,975610,,,,,,
7224,set_tempo,12,1,0,,,,,,960000,,,,,,
7240,set_tempo,16,1,0,,,,,,937500,,,,,,
7252,set_tempo,12,1,0,,,,,,923077,,,,,,
7260,note_on,8,0,0,,,,,,,,0,,,34,0
7260,note_on,0,0,0,,,,,,,,0,,,31,0
7260,note_on,0,0,0,,,,,,,,0,,,43,0
7260,note_on,0,0,0,,,,,,,,0,,,46,60
7260,note_on,0,0,0,,,,,,,,0,,,38,54
7264,set_tempo,4,1,0,,,,,,902256,,,,,,
7280,set_tempo,16,1,0,,,,,,888889,,,,,,
7292,set_tempo,12,1,0,,,,,,869565,,,,,,
7304,set_tempo,12,1,0,,,,,,851064,,,,,,
7320,set_tempo,16,1,0,,,,,,839161,,,,,,
7320,note_on,0,0,0,,,,,,,,0,,,38,0
7320,note_on,0,0,0,,,,,,,,0,,,46,0
7320,note_on,0,0,0,,,,,,,,0,,,50,62
7320,note_on,0,0,0,,,,,,,,0,,,43,55
7332,set_tempo,12,1,0,,,,,,827586,,,,,,
7344,set_tempo,12,1,0,,,,,,816327,,,,,,
7360,set_tempo,16,1,0,,,,,,805369,,,,,,
7372,set_tempo,12,1,0,,,,,,794702,,,,,,
7380,note_on,8,0,0,,,,,,,,0,,,43,0
7380,note_on,0,0,0,,,,,,,,0,,,50,0
7380,note_on,0,0,0,,,,,,,,0,,,55,63
7380,note_on,0,0,0,,,,,,,,0,,,46,56
7384,set_tempo,4,1,0,,,,,,784314,,,,,,
7400,set_tempo,16,1,0,,,,,,769231,,,,,,
7412,set_tempo,12,1,0,,,,,,759494,,,,,,
7424,set_tempo,12,1,0,,,,,,750000,,,,,,
7440,set_tempo,16,1,0,,,,,,740741,,,,,,
7440,note_on,0,0,0,,,,,,,,0,,,46,0
7440,note_on,0,0,0,,,,,,,,0,,,55,0
7440,note_on,0,0,0,,,,,,,,0,,,58,64
7440,note_on,0,0,0,,,,,,,,0,,,50,58
7452,set_tempo,12,1,0,,,,,,731707,,,,,,
7464,set_tempo,12,1,0,,,,,,722892,,,,,,
7480,set_tempo,16,1,0,,,,,,710059,,,,,,
7492,set_tempo,12,1,0,,,,,,701754,,,,,,
7500,note_on,8,0,0,,,,,,,,0,,,50,0
7500,note_on,0,0,0,,,,,,,,0,,,58,0
7500,note_on,0,0,0,,,,,,,,0,,,62,65
7500,note_on,0,0,0,,,,,,,,0,,,55,59
7504,set_tempo,4,1,0,,,,,,693642,,,,,,
7520,set_tempo,16,1,0,,,,,,685714,,,,,,
7532,set_tempo,12,1,0,,,,,,677966,,,,,,
7544,set_tempo,12,1,0,,,,,,670391,,,,,,
7560,set_tempo,16,1,0,,,,,,659341,,,,,,
7560,note_on,0,0,0,,,,,,,,0,,,55,0
7560,note_on,0,0,0,,,,,,,,0,,,62,0
7560,note_on,0,0,0,,,,,,,,0,,,67,67
7560,note_on,0,0,0,,,,,,,,0,,,58,60
7572,set_tempo,12,1,0,,,,,,655738,,,,,,
7584,set_tempo,12,1,0,,,,,,652174,,,,,,
7612,set_tempo,28,1,0,,,,,,645161,,,,,,
7620,note_on,8,0,0,,,,,,,,0,,,58,0
7620,note_on,0,0,0,,,,,,,,0,,,67,0
7620,note_on,0,0,0,,,,,,,,0,,,70,68
7620,note_on,0,0,0,,,,,,,,0,,,62,62
7652,set_tempo,32,1,0,,,,,,641711,,,,,,
7680,note_on,28,0,0,,,,,,,,0,,,62,0
7680,note_on,0,0,0,,,,,,,,0,,,70,0
7680,note_on,0,0,0,,,,,,,,0,,,74,70
7680,note_on,0,0,0,,,,,,,,0,,,67,63
7692,set_tempo,12,1,0,,,,,,638298,,,,,,
7732,set_tempo,40,1,0,,,,,,634921,,,,,,
7740,note_on,8,0,0,,,,,,,,0,,,67,0
7740,note_on,0,0,0,,,,,,,,0,,,74,0
7740,note_on,0,0,0,,,,,,,,0,,,79,71
7740,note_on,0,0,0,,,,,,,,0,,,70,64
7772,set_tempo,32,1,0,,,,,,631579,,,,,,
7800,note_on,28,0,0,,,,,,,,0,,,70,0
7800,note_on,0,0,0,,,,,,,,0,,,79,0
7800,note_on,0,0,0,,,,,,,,0,,,82,72
7800,note_on,0,0,0,,,,,,,,0,,,74,65
7812,set_tempo,12,1,0,,,,,,628272,,,,,,
7852,set_tempo,40,1,0,,,,,,625000,,,,,,
7860,note_on,8,0,0,,,,,,,,0,,,74,0
7860,note_on,0,0,0,,,,,,,,0,,,82,0
7860,note_on,0,0,0,,,,,,,,0,,,86,73
7860,note_on,0,0,0,,,,,,,,0,,,79,64
7892,set_tempo,32,1,0,,,,,,621762,,,,,,
7920,note_on,28,0,0,,,,,,,,0,,,79,0
7920,note_on,0,0,0,,,,,,,,0,,,86,0
7920,note_on,0,0,0,,,,,,,,0,,,91,75
7920,note_on,0,0,0,,,,,,,,0,,,82,66
7932,set_tempo,12,1,0,,,,,,618557,,,,,,
7972,set_tempo,40,1,0,,,,,,615385,,,,,,
7980,note_on,8,0,0,,,,,,,,0,,,82,0
7980,note_on,0,0,0,,,,,,,,0,,,91,0
7980,note_on,0,0,0,,,,,,,,0,,,94,78
7980,note_on,0,0,0,,,,,,,,0,,,86,68
8012,set_tempo,32,1,0,,,,,,612245,,,,,,
8040,note_on,28,0,0,,,,,,,,0,,,86,0
8040,note_on,0,0,0,,,,,,,,0,,,98,80
8040,note_on,0,0,0,,,,,,,,0,,,91,75
8052,set_tempo,12,1,0,,,,,,609137,,,,,,
8080,set_tempo,28,1,0,,,,,,606061,,,,,,
8160,set_tempo,80,1,0,,,,,,1212121,,,,,,
8174,control_change,14,0,0,,,,,,,,0,64,0,,
8277,control_change,103,0,0,,,,,,,,0,64,127,,
8680,set_tempo,403,1,0,,,,,,1061947,,,,,,
8700,note_on,20,0,0,,,,,,,,0,,,91,0
8700,note_on,0,0,0,,,,,,,,0,,,98,0
8700,note_on,0,0,0,,,,,,,,0,,,94,0
8700,note_on,0,0,0,,,,,,,,0,,,96,58
8700,note_on,0,0,0,,,,,,,,0,,,87,50
8704,set_tempo,4,1,0,,,,,,1052632,,,,,,
8720,set_tempo,16,1,0,,,,,,1043478,,,,,,
8744,set_tempo,24,1,0,,,,,,1034483,,,,,,
8760,set_tempo,16,1,0,,,,,,1025641,,,,,,
8760,note_on,0,0,0,,,,,,,,0,,,87,0
8760,note_on,0,0,0,,,,,,,,0,,,96,0
8760,note_on,0,0,0,,,,,,,,0,,,94,58
8760,note_on,0,0,0,,,,,,,,0,,,86,50
8800,set_tempo,40,1,0,,,,,,1008403,,,,,,
8812,set_tempo,12,1,0,,,,,,1000000,,,,,,
8820,note_on,8,0,0,,,,,,,,0,,,86,0
8820,note_on,0,0,0,,,,,,,,0,,,94,0
8820,note_on,0,0,0,,,,,,,,0,,,93,58
8820,note_on,0,0,0,,,,,,,,0,,,84,50
8824,set_tempo,4,1,0,,,,,,991736,,,,,,
8840,set_tempo,16,1,0,,,,,,983607,,,,,,
8852,set_tempo,12,1,0,,,,,,975610,,,,,,
8864,set_tempo,12,1,0,,,,,,967742,,,,,,
8880,set_tempo,16,1,0,,,,,,960000,,,,,,
8880,note_on,0,0,0,,,,,,,,0,,,84,0
8880,note_on,0,0,0,,,,,,,,0,,,93,0
8880,note_on,0,0,0,,,,,,,,0,,,91,59
8880,note_on,0,0,0,,,,,,,,0,,,82,51
8892,set_tempo,12,1,0,,,,,,952381,,,,,,
8904,set_tempo,12,1,0,,,,,,944882,,,,,,
8920,set_tempo,16,1,0,,,,,,937500,,,,,,
8932,set_tempo,12,1,0,,,,,,930233,,,,,,
8940,note_on,8,0,0,,,,,,,,0,,,82,0
8940,note_on,0,0,0,,,,,,,,0,,,91,0
8940,note_on,0,0,0,,,,,,,,0,,,90,59
8940,note_on,0,0,0,,,,,,,,0,,,81,51
8944,set_tempo,4,1,0,,,,,,923077,,,,,,
8960,set_tempo,16,1,0,,,,,,916031,,,,,,
8972,set_tempo,12,1,0,,,,,,902256,,,,,,
8984,set_tempo,12,1,0,,,,,,895522,,,,,,
9000,set_tempo,16,1,0,,,,,,888889,,,,,,
9000,note_on,0,0,0,,,,,,,,0,,,81,0
9000,note_on,0,0,0,,,,,,,,0,,,90,0
9000,note_on,0,0,0,,,,,,,,0,,,87,60
9000,note_on,0,0,0,,,,,,,,0,,,79,52
9012,set_tempo,12,1,0,,,,,,882353,,,,,,
9024,set_tempo,12,1,0,,,,,,875912,,,,,,
9040,set_tempo,16,1,0,,,,,,869565,,,,,,
9052,set_tempo,12,1,0,,,,,,863309,,,,,,
9060,note_on,8,0,0,,,,,,,,0,,,79,0
9060,note_on,0,0,0,,,,,,,,0,,,87,0
9060,note_on,0,0,0,,,,,,,,0,,,86,60
9060,note_on,0,0,0,,,,,,,,0,,,78,52
9064,set_tempo,4,1,0,,,,,,857143,,,,,,
9080,set_tempo,16,1,0,,,,,,851064,,,,,,
9092,set_tempo,12,1,0,,,,,,845070,,,,,,
9104,set_tempo,12,1,0,,,,,,839161,,,,,,
9120,set_tempo,16,1,0,,,,,,833333,,,,,,
9120,note_on,0,0,0,,,,,,,,0,,,78,0
9120,note_on,0,0,0,,,,,,,,0,,,86,0
9120,note_on,0,0,0,,,,,,,,0,,,84,61
9120,note_on,0,0,0,,,,,,,,0,,,75,53
9132,set_tempo,12,1,0,,,,,,827586,,,,,,
9144,set_tempo,12,1,0,,,,,,821918,,,,,,
9160,set_tempo,16,1,0,,,,,,816327,,,,,,
9172,set_tempo,12,1,0,,,,,,810811,,,,,,
9180,note_on,8,0,0,,,,,,,,0,,,75,0
9180,note_on,0,0,0,,,,,,,,0,,,84,0
9180,note_on,0,0,0,,,,,,,,0,,,82,62
9180,note_on,0,0,0,,,,,,,,0,,,74,54
9184,set_tempo,4,1,0,,,,,,805369,,,,,,
9200,set_tempo,16,1,0,,,,,,800000,,,,,,
9212,set_tempo,12,1,0,,,,,,789474,,,,,,
9224,set_tempo,12,1,0,,,,,,784314,,,,,,
9240,set_tempo,16,1,0,,,,,,779221,,,,,,
9240,note_on,0,0,0,,,,,,,,0,,,74,0
9240,note_on,0,0,0,,,,,,,,0,,,82,0
9240,note_on,0,0,0,,,,,,,,0,,,81,62
9240,note_on,0,0,0,,,,,,,,0,,,72,54
9252,set_tempo,12,1,0,,,,,,774194,,,,,,
9264,set_tempo,12,1,0,,,,,,769231,,,,,,
9280,set_tempo,16,1,0,,,,,,764331,,,,,,
9292,set_tempo,12,1,0,,,,,,754717,,,,,,
9300,note_on,8,0,0,,,,,,,,0,,,72,0
9300,note_on,0,0,0,,,,,,,,0,,,81,0
9300,note_on,0,0,0,,,,,,,,0,,,79,63
9300,note_on,0,0,0,,,,,,,,0,,,70,54
9304,set_tempo,4,1,0,,,,,,750000,,,,,,
9320,set_tempo,16,1,0,,,,,,745342,,,,,,
9332,set_tempo,12,1,0,,,,,,740741,,,,,,
9344,set_tempo,12,1,0,,,,,,736196,,,,,,
9360,set_tempo,16,1,0,,,,,,731707,,,,,,
9360,note_on,0,0,0,,,,,,,,0,,,70,0
9360,note_on,0,0,0,,,,,,,,0,,,79,0
9360,note_on,0,0,0,,,,,,,,0,,,78,63
9360,note_on,0,0,0,,,,,,,,0,,,69,54
9372,set_tempo,12,1,0,,,,,,722892,,,,,,
9384,set_tempo,12,1,0,,,,,,718563,,,,,,
9400,set_tempo,16,1,0,,,,,,714286,,,,,,
9412,set_tempo,12,1,0,,,,,,710059,,,,,,
9420,note_on,8,0,0,,,,,,,,0,,,69,0
9420,note_on,0,0,0,,,,,,,,0,,,78,0
9420,note_on,0,0,0,,,,,,,,0,,,75,63
9420,note_on,0,0,0,,,,,,,,0,,,67,55
9424,set_tempo,4,1,0,,,,,,705882,,,,,,
9440,set_tempo,16,1,0,,,,,,701754,,,,,,
9452,set_tempo,12,1,0,,,,,,693642,,,,,,
9464,set_tempo,12,1,0,,,,,,689655,,,,,,
9480,set_tempo,16,1,0,,,,,,685714,,,,,,
9480,note_on,0,0,0,,,,,,,,0,,,67,0
9480,note_on,0,0,0,,,,,,,,0,,,75,0
9480,note_on,0,0,0,,,,,,,,0,,,74,63
9480,note_on,0,0,0,,,,,,,,0,,,66,56
9492,set_tempo,12,1,0,,,,,,681818,,,,,,
9504,set_tempo,12,1,0,,,,,,677966,,,,,,
9520,set_tempo,16,1,0,,,,,,674157,,,,,,
9532,set_tempo,12,1,0,,,,,,666667,,,,,,
9540,note_on,8,0,0,,,,,,,,0,,,66,0
9540,note_on,0,0,0,,,,,,,,0,,,74,0
9540,note_on,0,0,0,,,,,,,,0,,,72,64
9540,note_on,0,0,0,,,,,,,,0,,,63,56
9544,set_tempo,4,1,0,,,,,,662983,,,,,,
9560,set_tempo,16,1,0,,,,,,659341,,,,,,
9572,set_tempo,12,1,0,,,,,,655738,,,,,,
9584,set_tempo,12,1,0,,,,,,652174,,,,,,
9600,set_tempo,16,1,0,,,,,,652174,,,,,,
9600,note_on,0,0,0,,,,,,,,0,,,63,0
9600,note_on,0,0,0,,,,,,,,0,,,72,0
9600,note_on,0,0,0,,,,,,,,0,,,70,64
9600,note_on,0,0,0,,,,,,,,0,,,62,57
9660,note_on,60,0,0,,,,,,,,0,,,62,0
9660,note_on,0,0,0,,,,,,,,0,,,70,0
9660,note_on,0,0,0,,,,,,,,0,,,69,65
9660,note_on,0,0,0,,,,,,,,0,,,60,57
9664,set_tempo,4,1,0,,,,,,648649,,,,,,
9720,note_on,56,0,0,,,,,,,,0,,,60,0
9720,note_on,0,0,0,,,,,,,,0,,,69,0
9720,note_on,0,0,0,,,,,,,,0,,,67,65
9720,note_on,0,0,0,,,,,,,,0,,,58,58
9732,set_tempo,12,1,0,,,,,,645161,,,,,,
9780,note_on,48,0,0,,,,,,,,0,,,58,0
9780,note_on,0,0,0,,,,,,,,0,,,67,0
9780,note_on,0,0,0,,,,,,,,0,,,66,66
9780,note_on,0,0,0,,,,,,,,0,,,57,58
9784,set_tempo,4,1,0,,,,,,641711,,,,,,
9840,note_on,56,0,0,,,,,,,,0,,,57,0
9840,note_on,0,0,0,,,,,,,,0,,,66,0
9840,note_on,0,0,0,,,,,,,,0,,,63,66
9840,note_on,0,0,0,,,,,,,,0,,,55,59
9852,set_tempo,12,1,0,,,,,,638298,,,,,,
9900,note_on,48,0,0,,,,,,,,0,,,55,0
9900,note_on,0,0,0,,,,,,,,0,,,63,0
9900,note_on,0,0,0,,,,,,,,0,,,62,67
9900,note_on,0,0,0,,,,,,,,0,,,54,60
9904,set_tempo,4,1,0,,,,,,634921,,,,,,
9960,note_on,56,0,0,,,,,,,,0,,,54,0
9960,note_on,0,0,0,,,,,,,,0,,,62,0
9960,note_on,0,0,0,,,,,,,,0,,,60,68
9960,note_on,0,0,0,,,,,,,,0,,,51,60
9972,set_tempo,12,1,0,,,,,,631579,,,,,,
10020,note_on,48,0,0,,,,,,,,0,,,51,0
10020,note_on,0,0,0,,,,,,,,0,,,60,0
10020,note_on,0,0,0,,,,,,,,0,,,58,68
10020,note_on,0,0,0,,,,,,,,0,,,50,61
10024,set_tempo,4,1,0,,,,,,628272,,,,,,
10080,note_on,56,0,0,,,,,,,,0,,,50,0
10080,note_on,0,0,0,,,,,,,,0,,,58,0
10080,note_on,0,0,0,,,,,,,,0,,,57,69
10080,note_on,0,0,0,,,,,,,,0,,,48,61
10092,set_tempo,12,1,0,,,,,,625000,,,,,,
10140,note_on,48,0,0,,,,,,,,0,,,48,0
10140,note_on,0,0,0,,,,,,,,0,,,57,0
10140,note_on,0,0,0,,,,,,,,0,,,55,69
10140,note_on,0,0,0,,,,,,,,0,,,46,62
10144,set_tempo,4,1,0,,,,,,621762,,,,,,
10200,note_on,56,0,0,,,,,,,,0,,,46,0
10200,note_on,0,0,0,,,,,,,,0,,,55,0
10200,note_on,0,0,0,,,,,,,,0,,,54,70
10200,note_on,0,0,0,,,,,,,,0,,,45,61
10212,set_tempo,12,1,0,,,,,,618557,,,,,,
10260,note_on,48,0,0,,,,,,,,0,,,45,0
10260,note_on,0,0,0,,,,,,,,0,,,54,0
10260,note_on,0,0,0,,,,,,,,0,,,51,69
10260,note_on,0,0,0,,,,,,,,0,,,43,62
10264,set_tempo,4,1,0,,,,,,615385,,,,,,
10320,note_on,56,0,0,,,,,,,,0,,,43,0
10320,note_on,0,0,0,,,,,,,,0,,,51,0
10320,note_on,0,0,0,,,,,,,,0,,,50,70
10320,note_on,0,0,0,,,,,,,,0,,,42,63
10332,set_tempo,12,1,0,,,,,,612245,,,,,,
10380,note_on,48,0,0,,,,,,,,0,,,42,0
10380,note_on,0,0,0,,,,,,,,0,,,50,0
10380,note_on,0,0,0,,,,,,,,0,,,48,72
10380,note_on,0,0,0,,,,,,,,0,,,39,63
10384,set_tempo,4,1,0,,,,,,609137,,,,,,
10440,note_on,56,0,0,,,,,,,,0,,,39,0
10440,note_on,0,0,0,,,,,,,,0,,,48,0
10440,note_on,0,0,0,,,,,,,,0,,,46,73
10440,note_on,0,0,0,,,,,,,,0,,,38,65
10452,set_tempo,12,1,0,,,,,,606061,,,,,,
10500,note_on,48,0,0,,,,,,,,0,,,38,0
10500,note_on,0,0,0,,,,,,,,0,,,46,0
10500,note_on,0,0,0,,,,,,,,0,,,45,74
10500,note_on,0,0,0,,,,,,,,0,,,36,66
10504,set_tempo,4,1,0,,,,,,603015,,,,,,
10560,time_signature,56,1,0,7,4,24,8,,,,,,,,
10560,set_tempo,0,1,0,,,,,,1200000,,,,,,
10560,note_on,0,0,0,,,,,,,,0,,,36,0
10560,note_on,0,0,0,,,,,,,,0,,,45,0
10560,note_on,0,0,0,,,,,,,,0,,,43,80
10560,note_on,0,0,0,,,,,,,,0,,,31,73
10560,note_on,0,0,0,,,,,,,,0,,,34,73
10587,control_change,27,0,0,,,,,,,,0,64,0,,
10674,control_change,87,0,0,,,,,,,,0,64,127,,
11040,set_tempo,366,1,0,,,,,,1081081,,,,,,
11052,set_tempo,12,1,0,,,,,,1071429,,,,,,
11064,set_tempo,12,1,0,,,,,,1061947,,,,,,
11080,set_tempo,16,1,0,,,,,,1052632,,,,,,
11092,set_tempo,12,1,0,,,,,,1043478,,,,,,
11100,note_on,8,0,0,,,,,,,,0,,,34,0
11100,note_on,0,0,0,,,,,,,,0,,,31,0
11100,note_on,0,0,0,,,,,,,,0,,,43,0
11100,note_on,0,0,0,,,,,,,,0,,,44,61
11100,note_on,0,0,0,,,,,,,,0,,,35,43
11104,set_tempo,4,1,0,,,,,,1034483,,,,,,
11120,set_tempo,16,1,0,,,,,,1025641,,,,,,
11132,set_tempo,12,1,0,,,,,,1016949,,,,,,
11144,set_tempo,12,1,0,,,,,,1000000,,,,,,
11160,set_tempo,16,1,0,,,,,,991736,,,,,,
11160,note_on,0,0,0,,,,,,,,0,,,35,0
11160,note_on,0,0,0,,,,,,,,0,,,44,0
11160,note_on,0,0,0,,,,,,,,0,,,45,61
11160,note_on,0,0,0,,,,,,,,0,,,36,44
11172,set_tempo,12,1,0,,,,,,983607,,,,,,
11184,set_tempo,12,1,0,,,,,,975610,,,,,,
11200,set_tempo,16,1,0,,,,,,967742,,,,,,
11212,set_tempo,12,1,0,,,,,,960000,,,,,,
11220,note_on,8,0,0,,,,,,,,0,,,36,0
11220,note_on,0,0,0,,,,,,,,0,,,45,0
11220,note_on,0,0,0,,,,,,,,0,,,46,62
11220,note_on,0,0,0,,,,,,,,0,,,37,44
11224,set_tempo,4,1,0,,,,,,952381,,,,,,
11240,set_tempo,16,1,0,,,,,,944882,,,,,,
11252,set_tempo,12,1,0,,,,,,930233,,,,,,
11264,set_tempo,12,1,0,,,,,,923077,,,,,,
11280,set_tempo,16,1,0,,,,,,916031,,,,,,
11280,note_on,0,0,0,,,,,,,,0,,,37,0
11280,note_on,0,0,0,,,,,,,,0,,,46,0
11280,note_on,0,0,0,,,,,,,,0,,,47,63
11280,note_on,0,0,0,,,,,,,,0,,,38,45
11292,set_tempo,12,1,0,,,,,,909091,,,,,,
11304,set_tempo,12,1,0,,,,,,902256,,,,,,
11320,set_tempo,16,1,0,,,,,,895522,,,,,,
11332,set_tempo,12,1,0,,,,,,888889,,,,,,
11340,note_on,8,0,0,,,,,,,,0,,,38,0
11340,note_on,0,0,0,,,,,,,,0,,,47,0
11340,note_on,0,0,0,,,,,,,,0,,,48,63
11340,note_on,0,0,0,,,,,,,,0,,,39,45
11344,set_tempo,4,1,0,,,,,,882353,,,,,,
11360,set_tempo,16,1,0,,,,,,869565,,,,,,
11372,set_tempo,12,1,0,,,,,,863309,,,,,,
11384,set_tempo,12,1,0,,,,,,857143,,,,,,
11400,set_tempo,16,1,0,,,,,,851064,,,,,,
11400,note_on,0,0,0,,,,,,,,0,,,39,0
11400,note_on,0,0,0,,,,,,,,0,,,48,0
11400,note_on,0,0,0,,,,,,,,0,,,49,63
11400,note_on,0,0,0,,,,,,,,0,,,40,46
11412,set_tempo,12,1,0,,,,,,845070,,,,,,
11424,set_tempo,12,1,0,,,,,,839161,,,,,,
11440,set_tempo,16,1,0,,,,,,833333,,,,,,
11452,set_tempo,12,1,0,,,,,,827586,,,,,,
11460,note_on,8,0,0,,,,,,,,0,,,40,0
11460,note_on,0,0,0,,,,,,,,0,,,49,0
11460,note_on,0,0,0,,,,,,,,0,,,50,64
11460,note_on,0,0,0,,,,,,,,0,,,41,46
11464,set_tempo,4,1,0,,,,,,816327,,,,,,
11480,set_tempo,16,1,0,,,,,,810811,,,,,,
11492,set_tempo,12,1,0,,,,,,805369,,,,,,
11504,set_tempo,12,1,0,,,,,,800000,,,,,,
11520,set_tempo,16,1,0,,,,,,794702,,,,,,
11520,note_on,0,0,0,,,,,,,,0,,,41,0
11520,note_on,0,0,0,,,,,,,,0,,,50,0
11520,note_on,0,0,0,,,,,,,,0,,,51,64
11520,note_on,0,0,0,,,,,,,,0,,,42,47
11532,set_tempo,12,1,0,,,,,,789474,,,,,,
11544,set_tempo,12,1,0,,,,,,784314,,,,,,
11560,set_tempo,16,1,0,,,,,,779221,,,,,,
11572,set_tempo,12,1,0,,,,,,769231,,,,,,
11580,note_on,8,0,0,,,,,,,,0,,,42,0
11580,note_on,0,0,0,,,,,,,,0,,,51,0
11580,note_on,0,0,0,,,,,,,,0,,,52,65
11580,note_on,0,0,0,,,,,,,,0,,,43,48
11584,set_tempo,4,1,0,,,,,,764331,,,,,,
11600,set_tempo,16,1,0,,,,,,759494,,,,,,
11612,set_tempo,12,1,0,,,,,,754717,,,,,,
11624,set_tempo,12,1,0,,,,,,750000,,,,,,
11640,set_tempo,16,1,0,,,,,,745342,,,,,,
11640,note_on,0,0,0,,,,,,,,0,,,43,0
11640,note_on,0,0,0,,,,,,,,0,,,52,0
11640,note_on,0,0,0,,,,,,,,0,,,53,66
11640,note_on,0,0,0,,,,,,,,0,,,44,49
11652,set_tempo,12,1,0,,,,,,740741,,,,,,
11664,set_tempo,12,1,0,,,,,,736196,,,,,,
11680,set_tempo,16,1,0,,,,,,727273,,,,,,
11692,set_tempo,12,1,0,,,,,,722892,,,,,,
11700,note_on,8,0,0,,,,,,,,0,,,44,0
11700,note_on,0,0,0,,,,,,,,0,,,53,0
11700,note_on,0,0,0,,,,,,,,0,,,54,66
11700,note_on,0,0,0,,,,,,,,0,,,45,49
11704,set_tempo,4,1,0,,,,,,718563,,,,,,
11720,set_tempo,16,1,0,,,,,,714286,,,,,,
11732,set_tempo,12,1,0,,,,,,710059,,,,,,
11744,set_tempo,12,1,0,,,,,,705882,,,,,,
11760,set_tempo,16,1,0,,,,,,701754,,,,,,
11760,note_on,0,0,0,,,,,,,,0,,,45,0
11760,note_on,0,0,0,,,,,,,,0,,,54,0
11760,note_on,0,0,0,,,,,,,,0,,,55,67
11760,note_on,0,0,0,,,,,,,,0,,,46,50
11772,set_tempo,12,1,0,,,,,,697674,,,,,,
11784,set_tempo,12,1,0,,,,,,689655,,,,,,
11800,set_tempo,16,1,0,,,,,,685714,,,,,,
11812,set_tempo,12,1,0,,,,,,681818,,,,,,
11820,note_on,8,0,0,,,,,,,,0,,,46,0
11820,note_on,0,0,0,,,,,,,,0,,,55,0
11820,note_on,0,0,0,,,,,,,,0,,,56,68
11820,note_on,0,0,0,,,,,,,,0,,,47,51
11824,set_tempo,4,1,0,,,,,,677966,,,,,,
11840,set_tempo,16,1,0,,,,,,674157,,,,,,
11852,set_tempo,12,1,0,,,,,,670391,,,,,,
11864,set_tempo,12,1,0,,,,,,666667,,,,,,
11880,set_tempo,16,1,0,,,,,,662983,,,,,,
11880,note_on,0,0,0,,,,,,,,0,,,47,0
11880,note_on,0,0,0,,,,,,,,0,,,56,0
11880,note_on,0,0,0,,,,,,,,0,,,57,68
11880,note_on,0,0,0,,,,,,,,0,,,48,52
11892,set_tempo,12,1,0,,,,,,655738,,,,,,
11904,set_tempo,12,1,0,,,,,,652174,,,,,,
11920,set_tempo,16,1,0,,,,,,648649,,,,,,
11932,set_tempo,12,1,0,,,,,,645161,,,,,,
11940,note_on,8,0,0,,,,,,,,0,,,48,0
11940,note_on,0,0,0,,,,,,,,0,,,57,0
11940,note_on,0,0,0,,,,,,,,0,,,58,69
11940,note_on,0,0,0,,,,,,,,0,,,49,52
11944,set_tempo,4,1,0,,,,,,641711,,,,,,
11960,set_tempo,16,1,0,,,,,,638298,,,,,,
11972,set_tempo,12,1,0,,,,,,634921,,,,,,
11984,set_tempo,12,1,0,,,,,,631579,,,,,,
12000,set_tempo,16,1,0,,,,,,625000,,,,,,
12000,note_on,0,0,0,,,,,,,,0,,,49,0
12000,note_on,0,0,0,,,,,,,,0,,,58,0
12000,note_on,0,0,0,,,,,,,,0,,,59,69
12000,note_on,0,0,0,,,,,,,,0,,,50,53
12060,note_on,60,0,0,,,,,,,,0,,,50,0
12060,note_on,0,0,0,,,,,,,,0,,,59,0
12060,note_on,0,0,0,,,,,,,,0,,,60,70
12060,note_on,0,0,0,,,,,,,,0,,,51,54
12120,note_on,60,0,0,,,,,,,,0,,,51,0
12120,note_on,0,0,0,,,,,,,,0,,,60,0
12120,note_on,0,0,0,,,,,,,,0,,,61,71
12120,note_on,0,0,0,,,,,,,,0,,,52,54
12180,note_on,60,0,0,,,,,,,,0,,,52,0
12180,note_on,0,0,0,,,,,,,,0,,,61,0
12180,note_on,0,0,0,,,,,,,,0,,,62,72
12180,note_on,0,0,0,,,,,,,,0,,,53,54
12240,note_on,60,0,0,,,,,,,,0,,,53,0
12240,note_on,0,0,0,,,,,,,,0,,,62,0
12240,note_on,0,0,0,,,,,,,,0,,,63,72
12240,note_on,0,0,0,,,,,,,,0,,,54,55
12300,note_on,60,0,0,,,,,,,,0,,,54,0
12300,note_on,0,0,0,,,,,,,,0,,,63,0
12300,note_on,0,0,0,,,,,,,,0,,,64,72
12300,note_on,0,0,0,,,,,,,,0,,,55,56
12360,note_on,60,0,0,,,,,,,,0,,,55,0
12360,note_on,0,0,0,,,,,,,,0,,,64,0
12360,note_on,0,0,0,,,,,,,,0,,,65,72
12360,note_on,0,0,0,,,,,,,,0,,,56,57
12420,note_on,60,0,0,,,,,,,,0,,,56,0
12420,note_on,0,0,0,,,,,,,,0,,,65,0
12420,note_on,0,0,0,,,,,,,,0,,,66,73
12420,note_on,0,0,0,,,,,,,,0,,,57,57
12480,set_tempo,60,1,0,,,,,,618557,,,,,,
12480,note_on,0,0,0,,,,,,,,0,,,57,0
12480,note_on,0,0,0,,,,,,,,0,,,66,0
12480,note_on,0,0,0,,,,,,,,0,,,67,76
12480,note_on,0,0,0,,,,,,,,0,,,58,53
12540,note_on,60,0,0,,,,,,,,0,,,58,0
12540,note_on,0,0,0,,,,,,,,0,,,67,0
12540,note_on,0,0,0,,,,,,,,0,,,66,75
12540,note_on,0,0,0,,,,,,,,0,,,57,53
12600,set_tempo,60,1,0,,,,,,615385,,,,,,
12600,note_on,0,0,0,,,,,,,,0,,,57,0
12600,note_on,0,0,0,,,,,,,,0,,,66,0
12600,note_on,0,0,0,,,,,,,,0,,,65,74
12600,note_on,0,0,0,,,,,,,,0,,,56,52
12660,note_on,60,0,0,,,,,,,,0,,,56,0
12660,note_on,0,0,0,,,,,,,,0,,,65,0
12660,note_on,0,0,0,,,,,,,,0,,,64,72
12660,note_on,0,0,0,,,,,,,,0,,,55,51
12704,set_tempo,44,1,0,,,,,,612245,,,,,,
12720,note_on,16,0,0,,,,,,,,0,,,55,0
12720,note_on,0,0,0,,,,,,,,0,,,64,0
12720,note_on,0,0,0,,,,,,,,0,,,63,72
12720,note_on,0,0,0,,,,,,,,0,,,54,51
12780,note_on,60,0,0,,,,,,,,0,,,54,0
12780,note_on,0,0,0,,,,,,,,0,,,63,0
12780,note_on,0,0,0,,,,,,,,0,,,62,71
12780,note_on,0,0,0,,,,,,,,0,,,53,50
12812,set_tempo,32,1,0,,,,,,609137,,,,,,
12840,note_on,28,0,0,,,,,,,,0,,,53,0
12840,note_on,0,0,0,,,,,,,,0,,,62,0
12840,note_on,0,0,0,,,,,,,,0,,,61,70
12840,note_on,0,0,0,,,,,,,,0,,,52,49
12900,note_on,60,0,0,,,,,,,,0,,,52,0
12900,note_on,0,0,0,,,,,,,,0,,,61,0
12900,note_on,0,0,0,,,,,,,,0,,,60,68
12900,note_on,0,0,0,,,,,,,,0,,,51,49
12920,set_tempo,20,1,0,,,,,,606061,,,,,,
12960,note_on,40,0,0,,,,,,,,0,,,51,0
12960,note_on,0,0,0,,,,,,,,0,,,60,0
12960,note_on,0,0,0,,,,,,,,0,,,59,66
12960,note_on,0,0,0,,,,,,,,0,,,50,46
12972,set_tempo,12,1,0,,,,,,609137,,,,,,
13020,note_on,48,0,0,,,,,,,,0,,,50,0
13020,note_on,0,0,0,,,,,,,,0,,,59,0
13020,note_on,0,0,0,,,,,,,,0,,,58,67
13020,note_on,0,0,0,,,,,,,,0,,,49,47
13024,set_tempo,4,1,0,,,,,,612245,,,,,,
13064,set_tempo,40,1,0,,,,,,615385,,,,,,
13080,note_on,16,0,0,,,,,,,,0,,,49,0
13080,note_on,0,0,0,,,,,,,,0,,,58,0
13080,note_on,0,0,0,,,,,,,,0,,,57,68
13080,note_on,0,0,0,,,,,,,,0,,,48,48
13120,set_tempo,40,1,0,,,,,,618557,,,,,,
13140,note_on,20,0,0,,,,,,,,0,,,48,0
13140,note_on,0,0,0,,,,,,,,0,,,57,0
13140,note_on,0,0,0,,,,,,,,0,,,56,69
13140,note_on,0,0,0,,,,,,,,0,,,47,50
13160,set_tempo,20,1,0,,,,,,621762,,,,,,
13200,note_on,40,0,0,,,,,,,,0,,,47,0
13200,note_on,0,0,0,,,,,,,,0,,,56,0
13200,note_on,0,0,0,,,,,,,,0,,,55,70
13200,note_on,0,0,0,,,,,,,,0,,,46,51
13212,set_tempo,12,1,0,,,,,,625000,,,,,,
13252,set_tempo,40,1,0,,,,,,628272,,,,,,
13260,note_on,8,0,0,,,,,,,,0,,,46,0
13260,note_on,0,0,0,,,,,,,,0,,,55,0
13260,note_on,0,0,0,,,,,,,,0,,,54,71
13260,note_on,0,0,0,,,,,,,,0,,,45,53
13304,set_tempo,44,1,0,,,,,,631579,,,,,,
13320,note_on,16,0,0,,,,,,,,0,,,45,0
13320,note_on,0,0,0,,,,,,,,0,,,54,0
13320,note_on,0,0,0,,,,,,,,0,,,53,72
13320,note_on,0,0,0,,,,,,,,0,,,44,54
13360,set_tempo,40,1,0,,,,,,634921,,,,,,
13380,note_on,20,0,0,,,,,,,,0,,,44,0
13380,note_on,0,0,0,,,,,,,,0,,,53,0
13380,note_on,0,0,0,,,,,,,,0,,,52,73
13380,note_on,0,0,0,,,,,,,,0,,,43,55
13400,set_tempo,20,1,0,,,,,,638298,,,,,,
13440,note_on,40,0,0,,,,,,,,0,,,43,0
13440,note_on,0,0,0,,,,,,,,0,,,52,0
13440,note_on,0,0,0,,,,,,,,0,,,51,74
13440,note_on,0,0,0,,,,,,,,0,,,42,59
13452,set_tempo,12,1,0,,,,,,641711,,,,,,
13492,set_tempo,40,1,0,,,,,,645161,,,,,,
13500,note_on,8,0,0,,,,,,,,0,,,42,0
13500,note_on,0,0,0,,,,,,,,0,,,51,0
13500,note_on,0,0,0,,,,,,,,0,,,50,75
13500,note_on,0,0,0,,,,,,,,0,,,41,60
13544,set_tempo,44,1,0,,,,,,648649,,,,,,
13560,note_on,16,0,0,,,,,,,,0,,,41,0
13560,note_on,0,0,0,,,,,,,,0,,,50,0
13560,note_on,0,0,0,,,,,,,,0,,,49,77
13560,note_on,0,0,0,,,,,,,,0,,,40,62
13584,set_tempo,24,1,0,,,,,,652174,,,,,,
13620,note_on,36,0,0,,,,,,,,0,,,40,0
13620,note_on,0,0,0,,,,,,,,0,,,49,0
13620,note_on,0,0,0,,,,,,,,0,,,48,79
13620,note_on,0,0,0,,,,,,,,0,,,39,63
13640,set_tempo,20,1,0,,,,,,655738,,,,,,
13680,note_on,40,0,0,,,,,,,,0,,,39,0
13680,note_on,0,0,0,,,,,,,,0,,,48,0
13680,note_on,0,0,0,,,,,,,,0,,,47,80
13680,note_on,0,0,0,,,,,,,,0,,,38,64
13692,set_tempo,12,1,0,,,,,,659341,,,,,,
13732,set_tempo,40,1,0,,,,,,662983,,,,,,
13740,note_on,8,0,0,,,,,,,,0,,,38,0
13740,note_on,0,0,0,,,,,,,,0,,,47,0
13740,note_on,0,0,0,,,,,,,,0,,,46,81
13740,note_on,0,0,0,,,,,,,,0,,,37,66
13784,set_tempo,44,1,0,,,,,,666667,,,,,,
13800,note_on,16,0,0,,,,,,,,0,,,37,0
13800,note_on,0,0,0,,,,,,,,0,,,46,0
13800,note_on,0,0,0,,,,,,,,0,,,45,83
13800,note_on,0,0,0,,,,,,,,0,,,36,67
13824,set_tempo,24,1,0,,,,,,670391,,,,,,
13860,note_on,36,0,0,,,,,,,,0,,,36,0
13860,note_on,0,0,0,,,,,,,,0,,,45,0
13860,note_on,0,0,0,,,,,,,,0,,,44,85
13860,note_on,0,0,0,,,,,,,,0,,,35,69
13920,set_tempo,60,1,0,,,,,,1008403,,,,,,
13920,note_on,0,0,0,,,,,,,,0,,,35,0
13920,note_on,0,0,0,,,,,,,,0,,,44,0
13920,note_on,0,0,0,,,,,,,,0,,,43,97
13920,note_on,0,0,0,,,,,,,,0,,,31,79
13920,note_on,0,0,0,,,,,,,,0,,,34,79
14040,note_on,120,0,0,,,,,,,,0,,,34,0
14040,note_on,0,0,0,,,,,,,,0,,,31,0
14040,note_on,0,0,0,,,,,,,,0,,,43,0
14089,control_change,49,0,0,,,,,,,,0,64,0,,
14400,note_on,311,0,0,,,,,,,,0,,,103,96
14400,note_on,0,0,0,,,,,,,,0,,,98,81
14400,note_on,0,0,0,,,,,,,,0,,,94,69
14400,note_on,0,0,0,,,,,,,,0,,,91,69
14400,note_on,0,0,0,,,,,,,,0,,,67,76
14400,note_on,0,0,0,,,,,,,,0,,,62,63
14400,note_on,0,0,0,,,,,,,,0,,,58,63
14400,note_on,0,0,0,,,,,,,,0,,,55,54
14442,control_change,42,0,0,,,,,,,,0,64,127,,
14520,note_on,78,0,0,,,,,,,,0,,,55,0
14520,note_on,0,0,0,,,,,,,,0,,,103,0
14520,note_on,0,0,0,,,,,,,,0,,,67,0
14520,note_on,0,0,0,,,,,,,,0,,,98,0
14520,note_on,0,0,0,,,,,,,,0,,,94,0
14520,note_on,0,0,0,,,,,,,,0,,,91,0
14520,note_on,0,0,0,,,,,,,,0,,,62,0
14520,note_on,0,0,0,,,,,,,,0,,,58,0
15134,control_change,614,0,0,,,,,,,,0,64,0,,
15360,set_tempo,226,1,0,,,,,,600000,,,,,,
17040,set_tempo,1680,1,0,,,,,,745342,,,,,,
17044,set_tempo,4,1,0,,,,,,750000,,,,,,
17052,set_tempo,8,1,0,,,,,,754717,,,,,,
17060,set_tempo,8,1,0,,,,,,759494,,,,,,
17064,set_tempo,4,1,0,,,,,,764331,,,,,,
17072,set_tempo,8,1,0,,,,,,769231,,,,,,
17080,set_tempo,8,1,0,,,,,,774194,,,,,,
17084,set_tempo,4,1,0,,,,,,779221,,,,,,
17092,set_tempo,8,1,0,,,,,,784314,,,,,,
17100,set_tempo,8,1,0,,,,,,789474,,,,,,
17100,note_on,0,0,0,,,,,,,,0,,,43,37
17104,set_tempo,4,1,0,,,,,,794702,,,,,,
17112,set_tempo,8,1,0,,,,,,800000,,,,,,
17120,set_tempo,8,1,0,,,,,,810811,,,,,,
17124,set_tempo,4,1,0,,,,,,816327,,,,,,
17132,set_tempo,8,1,0,,,,,,821918,,,,,,
17140,set_tempo,8,1,0,,,,,,827586,,,,,,
17144,set_tempo,4,1,0,,,,,,833333,,,,,,
17152,set_tempo,8,1,0,,,,,,839161,,,,,,
17160,set_tempo,8,1,0,,,,,,839161,,,,,,
17160,note_on,0,0,0,,,,,,,,0,,,50,42
17164,set_tempo,4,1,0,,,,,,845070,,,,,,
17172,set_tempo,8,1,0,,,,,,857143,,,,,,
17180,set_tempo,8,1,0,,,,,,869565,,,,,,
17184,set_tempo,4,1,0,,,,,,882353,,,,,,
17192,set_tempo,8,1,0,,,,,,895522,,,,,,
17200,set_tempo,8,1,0,,,,,,902256,,,,,,
17204,set_tempo,4,1,0,,,,,,916031,,,,,,
17212,set_tempo,8,1,0,,,,,,930233,,,,,,
17220,set_tempo,8,1,0,,,,,,944882,,,,,,
17220,note_on,0,0,0,,,,,,,,0,,,58,47
17224,set_tempo,4,1,0,,,,,,960000,,,,,,
17232,set_tempo,8,1,0,,,,,,967742,,,,,,
17240,set_tempo,8,1,0,,,,,,983607,,,,,,
17244,set_tempo,4,1,0,,,,,,869565,,,,,,
17280,time_signature,36,1,0,6,4,24,8,,,,,,,,
17280,set_tempo,0,1,0,,,,,,833333,,,,,,
17280,marker,0,1,0,,,,,,,,,,,,
17280,note_on,0,0,0,,,,,,,,0,,,62,50
17284,set_tempo,4,1,0,,,,,,827244,,,,,,
17291,control_change,7,0,0,,,,,,,,0,64,127,,
17324,set_tempo,33,1,0,,,,,,821355,,,,,,
17340,note_on,16,0,0,,,,,,,,0,,,58,0
17340,note_on,0,0,0,,,,,,,,0,,,55,32
17364,set_tempo,24,1,0,,,,,,815550,,,,,,
17392,set_tempo,28,1,0,,,,,,809826,,,,,,
17400,note_on,8,0,0,,,,,,,,0,,,55,0
17400,note_on,0,0,0,,,,,,,,0,,,58,40
17432,set_tempo,32,1,0,,,,,,804182,,,,,,
17460,note_on,28,0,0,,,,,,,,0,,,58,0
17460,note_on,0,0,0,,,,,,,,0,,,55,31
17472,set_tempo,12,1,0,,,,,,798616,,,,,,
17500,set_tempo,28,1,0,,,,,,793021,,,,,,
17520,note_on,20,0,0,,,,,,,,0,,,55,0
17520,note_on,0,0,0,,,,,,,,0,,,58,40
17540,set_tempo,20,1,0,,,,,,787608,,,,,,
17580,set_tempo,40,1,0,,,,,,782269,,,,,,
17580,note_on,0,0,0,,,,,,,,0,,,58,0
17580,note_on,0,0,0,,,,,,,,0,,,55,31
17620,set_tempo,40,1,0,,,,,,777001,,,,,,
17640,note_on,20,0,0,,,,,,,,0,,,55,0
17640,note_on,0,0,0,,,,,,,,0,,,58,40
17644,set_tempo,4,1,0,,,,,,771803,,,,,,
17684,set_tempo,40,1,0,,,,,,766675,,,,,,
17700,note_on,16,0,0,,,,,,,,0,,,58,0
17700,note_on,0,0,0,,,,,,,,0,,,55,32
17724,set_tempo,24,1,0,,,,,,761518,,,,,,
17752,set_tempo,28,1,0,,,,,,751597,,,,,,
17760,note_on,8,0,0,,,,,,,,0,,,55,0
17760,note_on,0,0,0,,,,,,,,0,,,58,41
17820,note_on,60,0,0,,,,,,,,0,,,58,0
17820,note_on,0,0,0,,,,,,,,0,,,55,33
17872,set_tempo,52,1,0,,,,,,746733,,,,,,
17880,note_on,8,0,0,,,,,,,,0,,,55,0
17880,note_on,0,0,0,,,,,,,,0,,,58,41
17940,note_on,60,0,0,,,,,,,,0,,,58,0
17940,note_on,0,0,0,,,,,,,,0,,,55,33
17980,set_tempo,40,1,0,,,,,,741931,,,,,,
18000,note_on,20,0,0,,,,,,,,0,,,55,0
18000,note_on,0,0,0,,,,,,,,0,,,58,42
18060,note_on,60,0,0,,,,,,,,0,,,58,0
18060,note_on,0,0,0,,,,,,,,0,,,55,33
18084,set_tempo,24,1,0,,,,,,737101,,,,,,
18120,note_on,36,0,0,,,,,,,,0,,,55,0
18120,note_on,0,0,0,,,,,,,,0,,,58,42
18180,note_on,60,0,0,,,,,,,,0,,,58,0
18180,note_on,0,0,0,,,,,,,,0,,,43,0
18180,note_on,0,0,0,,,,,,,,0,,,50,0
18180,note_on,0,0,0,,,,,,,,0,,,55,34
18192,set_tempo,12,1,0,,,,,,732422,,,,,,
18224,set_tempo,32,1,0,,,,,,740010,,,,,,
18240,note_on,16,0,0,,,,,,,,0,,,55,0
18240,note_on,0,0,0,,,,,,,,0,,,58,42
18300,note_on,60,0,0,,,,,,,,0,,,58,0
18300,note_on,0,0,0,,,,,,,,0,,,55,34
18344,set_tempo,44,1,0,,,,,,744509,,,,,,
18360,note_on,16,0,0,,,,,,,,0,,,55,0
18360,note_on,0,0,0,,,,,,,,0,,,58,43
18420,note_on,60,0,0,,,,,,,,0,,,58,0
18420,note_on,0,0,0,,,,,,,,0,,,55,34
18464,set_tempo,44,1,0,,,,,,748970,,,,,,
18480,note_on,16,0,0,,,,,,,,0,,,55,0
18480,note_on,0,0,0,,,,,,,,0,,,58,43
18540,note_on,60,0,0,,,,,,,,0,,,58,0
18540,note_on,0,0,0,,,,,,,,0,,,55,34
18584,set_tempo,44,1,0,,,,,,753580,,,,,,
18600,note_on,16,0,0,,,,,,,,0,,,55,0
18600,note_on,0,0,0,,,,,,,,0,,,58,44
18660,note_on,60,0,0,,,,,,,,0,,,58,0
18660,note_on,0,0,0,,,,,,,,0,,,55,35
18692,set_tempo,32,1,0,,,,,,758246,,,,,,
18704,set_tempo,12,1,0,,,,,,758246,,,,,,
18720,note_on,16,0,0,,,,,,,,0,,,55,0
18720,note_on,0,0,0,,,,,,,,0,,,62,0
18720,note_on,0,0,0,,,,,,,,0,,,67,56
18720,note_on,0,0,0,,,,,,,,0,,,63,48
18732,set_tempo,12,1,0,,,,,,753580,,,,,,
18733,control_change,1,0,0,,,,,,,,0,64,0,,
18760,set_tempo,27,1,0,,,,,,748970,,,,,,
18773,control_change,13,0,0,,,,,,,,0,64,127,,
18780,note_on,7,0,0,,,,,,,,0,,,63,0
18780,note_on,0,0,0,,,,,,,,0,,,55,36
18784,set_tempo,4,1,0,,,,,,744509,,,,,,
18812,set_tempo,28,1,0,,,,,,740010,,,,,,
18840,set_tempo,28,1,0,,,,,,735565,,,,,,
18840,note_on,0,0,0,,,,,,,,0,,,55,0
18840,note_on,0,0,0,,,,,,,,0,,,63,44
18852,set_tempo,12,1,0,,,,,,731261,,,,,,
18900,note_on,48,0,0,,,,,,,,0,,,63,0
18900,note_on,0,0,0,,,,,,,,0,,,55,33
18960,note_on,60,0,0,,,,,,,,0,,,55,0
18960,note_on,0,0,0,,,,,,,,0,,,63,40
19020,note_on,60,0,0,,,,,,,,0,,,63,0
19020,note_on,0,0,0,,,,,,,,0,,,55,45
19024,set_tempo,4,1,0,,,,,,735565,,,,,,
19080,note_on,56,0,0,,,,,,,,0,,,55,0
19080,note_on,0,0,0,,,,,,,,0,,,63,34
19104,set_tempo,24,1,0,,,,,,735565,,,,,,
19132,set_tempo,28,1,0,,,,,,740010,,,,,,
19140,note_on,8,0,0,,,,,,,,0,,,63,0
19140,note_on,0,0,0,,,,,,,,0,,,55,40
19160,set_tempo,20,1,0,,,,,,744509,,,,,,
19184,set_tempo,24,1,0,,,,,,748970,,,,,,
19200,set_tempo,16,1,0,,,,,,753580,,,,,,
19200,note_on,0,0,0,,,,,,,,0,,,55,0
19200,note_on,0,0,0,,,,,,,,0,,,67,0
19200,note_on,0,0,0,,,,,,,,0,,,66,54
19200,note_on,0,0,0,,,,,,,,0,,,62,47
19210,control_change,10,0,0,,,,,,,,0,64,0,,
19246,control_change,36,0,0,,,,,,,,0,64,127,,
19252,set_tempo,6,1,0,,,,,,748970,,,,,,
19260,note_on,8,0,0,,,,,,,,0,,,62,0
19260,note_on,0,0,0,,,,,,,,0,,,55,34
19292,set_tempo,32,1,0,,,,,,744509,,,,,,
19320,note_on,28,0,0,,,,,,,,0,,,55,0
19320,note_on,0,0,0,,,,,,,,0,,,62,43
19332,set_tempo,12,1,0,,,,,,740010,,,,,,
19372,set_tempo,40,1,0,,,,,,735565,,,,,,
19380,note_on,8,0,0,,,,,,,,0,,,62,0
19380,note_on,0,0,0,,,,,,,,0,,,55,35
19440,set_tempo,60,1,0,,,,,,740010,,,,,,
19440,note_on,0,0,0,,,,,,,,0,,,55,0
19440,note_on,0,0,0,,,,,,,,0,,,62,40
19492,set_tempo,52,1,0,,,,,,744509,,,,,,
19500,note_on,8,0,0,,,,,,,,0,,,62,0
19500,note_on,0,0,0,,,,,,,,0,,,55,35
19560,set_tempo,60,1,0,,,,,,748970,,,,,,
19560,note_on,0,0,0,,,,,,,,0,,,55,0
19560,note_on,0,0,0,,,,,,,,0,,,62,44
19612,set_tempo,52,1,0,,,,,,753580,,,,,,
19620,note_on,8,0,0,,,,,,,,0,,,62,0
19620,note_on,0,0,0,,,,,,,,0,,,55,40
19664,set_tempo,44,1,0,,,,,,758246,,,,,,
19680,note_on,16,0,0,,,,,,,,0,,,55,0
19680,note_on,0,0,0,,,,,,,,0,,,66,0
19680,note_on,0,0,0,,,,,,,,0,,,63,54
19680,note_on,0,0,0,,,,,,,,0,,,60,47
19694,control_change,14,0,0,,,,,,,,0,64,0,,
19720,set_tempo,26,1,0,,,,,,753580,,,,,,
19733,control_change,13,0,0,,,,,,,,0,64,127,,
19740,note_on,7,0,0,,,,,,,,0,,,60,0
19740,note_on,0,0,0,,,,,,,,0,,,55,33
19772,set_tempo,32,1,0,,,,,,748970,,,,,,
19800,note_on,28,0,0,,,,,,,,0,,,55,0
19800,note_on,0,0,0,,,,,,,,0,,,60,43
19824,set_tempo,24,1,0,,,,,,744509,,,,,,
19860,note_on,36,0,0,,,,,,,,0,,,60,0
19860,note_on,0,0,0,,,,,,,,0,,,55,34
19864,set_tempo,4,1,0,,,,,,740010,,,,,,
19880,set_tempo,16,1,0,,,,,,736196,,,,,,
19896,set_tempo,16,1,0,,,,,,745342,,,,,,
19908,set_tempo,12,1,0,,,,,,754717,,,,,,
19920,set_tempo,12,1,0,,,,,,764331,,,,,,
19920,note_on,0,0,0,,,,,,,,0,,,55,0
19920,note_on,0,0,0,,,,,,,,0,,,60,42
19936,set_tempo,16,1,0,,,,,,774194,,,,,,
19948,set_tempo,12,1,0,,,,,,784314,,,,,,
19960,set_tempo,12,1,0,,,,,,794702,,,,,,
19976,set_tempo,16,1,0,,,,,,805369,,,,,,
19980,note_on,4,0,0,,,,,,,,0,,,60,0
19980,note_on,0,0,0,,,,,,,,0,,,55,33
19988,set_tempo,8,1,0,,,,,,816327,,,,,,
20000,set_tempo,12,1,0,,,,,,827586,,,,,,
20016,set_tempo,16,1,0,,,,,,839161,,,,,,
20028,set_tempo,12,1,0,,,,,,851064,,,,,,
20040,set_tempo,12,1,0,,,,,,863309,,,,,,
20040,note_on,0,0,0,,,,,,,,0,,,55,0
20040,note_on,0,0,0,,,,,,,,0,,,60,42
20056,set_tempo,16,1,0,,,,,,875912,,,,,,
20068,set_tempo,12,1,0,,,,,,888889,,,,,,
20080,set_tempo,12,1,0,,,,,,902256,,,,,,
20096,set_tempo,16,1,0,,,,,,916031,,,,,,
20100,note_on,4,0,0,,,,,,,,0,,,60,0
20100,note_on,0,0,0,,,,,,,,0,,,55,34
20108,set_tempo,8,1,0,,,,,,930233,,,,,,
20120,set_tempo,12,1,0,,,,,,944882,,,,,,
20136,set_tempo,16,1,0,,,,,,967742,,,,,,
20160,set_tempo,24,1,0,,,,,,772599,,,,,,
20160,note_on,0,0,0,,,,,,,,0,,,55,0
20160,note_on,0,0,0,,,,,,,,0,,,63,0
20160,note_on,0,0,0,,,,,,,,0,,,62,50
20160,note_on,0,0,0,,,,,,,,0,,,58,44
20178,control_change,18,0,0,,,,,,,,0,64,0,,
20200,set_tempo,22,1,0,,,,,,782371,,,,,,
20220,note_on,20,0,0,,,,,,,,0,,,58,0
20220,control_change,0,0,0,,,,,,,,0,64,127,,
20220,note_on,0,0,0,,,,,,,,0,,,55,32
20240,set_tempo,20,1,0,,,,,,777403,,,,,,
20280,note_on,40,0,0,,,,,,,,0,,,55,0
20280,note_on,0,0,0,,,,,,,,0,,,58,40
20292,set_tempo,12,1,0,,,,,,772599,,,,,,
20332,set_tempo,40,1,0,,,,,,767754,,,,,,
20340,note_on,8,0,0,,,,,,,,0,,,58,0
20340,note_on,0,0,0,,,,,,,,0,,,55,31
20372,set_tempo,32,1,0,,,,,,762970,,,,,,
20400,note_on,28,0,0,,,,,,,,0,,,55,0
20400,note_on,0,0,0,,,,,,,,0,,,58,40
20424,set_tempo,24,1,0,,,,,,758246,,,,,,
20460,note_on,36,0,0,,,,,,,,0,,,58,0
20460,note_on,0,0,0,,,,,,,,0,,,55,31
20464,set_tempo,4,1,0,,,,,,753580,,,,,,
20504,set_tempo,40,1,0,,,,,,748970,,,,,,
20520,note_on,16,0,0,,,,,,,,0,,,55,0
20520,note_on,0,0,0,,,,,,,,0,,,58,40
20560,set_tempo,40,1,0,,,,,,744509,,,,,,
20580,note_on,20,0,0,,,,,,,,0,,,58,0
20580,note_on,0,0,0,,,,,,,,0,,,55,31
20600,set_tempo,20,1,0,,,,,,740010,,,,,,
20640,set_tempo,40,1,0,,,,,,735565,,,,,,
20640,note_on,0,0,0,,,,,,,,0,,,55,0
20640,note_on,0,0,0,,,,,,,,0,,,58,40
20700,note_on,60,0,0,,,,,,,,0,,,58,0
20700,note_on,0,0,0,,,,,,,,0,,,55,31
20760,note_on,60,0,0,,,,,,,,0,,,55,0
20760,note_on,0,0,0,,,,,,,,0,,,58,39
20820,note_on,60,0,0,,,,,,,,0,,,58,0
20820,note_on,0,0,0,,,,,,,,0,,,55,30
20880,note_on,60,0,0,,,,,,,,0,,,55,0
20880,note_on,0,0,0,,,,,,,,0,,,58,37
20940,note_on,60,0,0,,,,,,,,0,,,58,0
20940,note_on,0,0,0,,,,,,,,0,,,55,29
21000,note_on,60,0,0,,,,,,,,0,,,55,0
21000,note_on,0,0,0,,,,,,,,0,,,58,36
21060,note_on,60,0,0,,,,,,,,0,,,58,0
21060,note_on,0,0,0,,,,,,,,0,,,55,29
21104,set_tempo,44,1,0,,,,,,740010,,,,,,
21120,note_on,16,0,0,,,,,,,,0,,,55,0
21120,note_on,0,0,0,,,,,,,,0,,,58,32
21180,note_on,60,0,0,,,,,,,,0,,,58,0
21180,note_on,0,0,0,,,,,,,,0,,,55,28
21224,set_tempo,44,1,0,,,,,,744509,,,,,,
21240,note_on,16,0,0,,,,,,,,0,,,55,0
21240,note_on,0,0,0,,,,,,,,0,,,58,36
21300,note_on,60,0,0,,,,,,,,0,,,58,0
21300,note_on,0,0,0,,,,,,,,0,,,55,29
21344,set_tempo,44,1,0,,,,,,748970,,,,,,
21360,note_on,16,0,0,,,,,,,,0,,,55,0
21360,note_on,0,0,0,,,,,,,,0,,,58,37
21420,note_on,60,0,0,,,,,,,,0,,,58,0
21420,note_on,0,0,0,,,,,,,,0,,,55,30
21464,set_tempo,44,1,0,,,,,,753580,,,,,,
21480,note_on,16,0,0,,,,,,,,0,,,55,0
21480,note_on,0,0,0,,,,,,,,0,,,58,39
21540,set_tempo,60,1,0,,,,,,1147886,,,,,,
21540,note_on,0,0,0,,,,,,,,0,,,58,0
21540,note_on,0,0,0,,,,,,,,0,,,55,31
21560,note_on,20,0,0,,,,,,,,0,,,55,0
21560,note_on,0,0,0,,,,,,,,0,,,53,35
21580,note_on,20,0,0,,,,,,,,0,,,57,48
21600,note_on,20,0,0,,,,,,,,0,,,62,0
21600,note_on,0,0,0,,,,,,,,0,,,62,56
21612,set_tempo,12,1,0,,,,,,753580,,,,,,
21613,control_change,1,0,0,,,,,,,,0,64,0,,
21640,set_tempo,27,1,0,,,,,,748970,,,,,,
21653,control_change,13,0,0,,,,,,,,0,64,127,,
21660,note_on,7,0,0,,,,,,,,0,,,57,0
21660,note_on,0,0,0,,,,,,,,0,,,53,0
21660,note_on,0,0,0,,,,,,,,0,,,53,36
21664,set_tempo,4,1,0,,,,,,744509,,,,,,
21692,set_tempo,28,1,0,,,,,,740010,,,,,,
21720,set_tempo,28,1,0,,,,,,735565,,,,,,
21720,note_on,0,0,0,,,,,,,,0,,,53,0
21720,note_on,0,0,0,,,,,,,,0,,,57,44
21732,set_tempo,12,1,0,,,,,,731261,,,,,,
21780,note_on,48,0,0,,,,,,,,0,,,57,0
21780,note_on,0,0,0,,,,,,,,0,,,53,33
21840,note_on,60,0,0,,,,,,,,0,,,53,0
21840,note_on,0,0,0,,,,,,,,0,,,57,40
21900,note_on,60,0,0,,,,,,,,0,,,57,0
21900,note_on,0,0,0,,,,,,,,0,,,53,45
21904,set_tempo,4,1,0,,,,,,735565,,,,,,
21960,note_on,56,0,0,,,,,,,,0,,,53,0
21960,note_on,0,0,0,,,,,,,,0,,,57,34
21984,set_tempo,24,1,0,,,,,,735565,,,,,,
22012,set_tempo,28,1,0,,,,,,740010,,,,,,
22020,set_tempo,8,1,0,,,,,,1116695,,,,,,
22020,note_on,0,0,0,,,,,,,,0,,,57,0
22020,note_on,0,0,0,,,,,,,,0,,,53,40
22040,note_on,20,0,0,,,,,,,,0,,,53,0
22040,note_on,0,0,0,,,,,,,,0,,,51,39
22060,note_on,20,0,0,,,,,,,,0,,,55,47
22080,set_tempo,20,1,0,,,,,,753580,,,,,,
22080,note_on,0,0,0,,,,,,,,0,,,62,0
22080,note_on,0,0,0,,,,,,,,0,,,60,54
22090,control_change,10,0,0,,,,,,,,0,64,0,,
22126,control_change,36,0,0,,,,,,,,0,64,127,,
22132,set_tempo,6,1,0,,,,,,748970,,,,,,
22140,note_on,8,0,0,,,,,,,,0,,,55,0
22140,note_on,0,0,0,,,,,,,,0,,,51,0
22140,note_on,0,0,0,,,,,,,,0,,,51,34
22172,set_tempo,32,1,0,,,,,,744509,,,,,,
22200,note_on,28,0,0,,,,,,,,0,,,51,0
22200,note_on,0,0,0,,,,,,,,0,,,55,43
22212,set_tempo,12,1,0,,,,,,740010,,,,,,
22252,set_tempo,40,1,0,,,,,,735565,,,,,,
22260,note_on,8,0,0,,,,,,,,0,,,55,0
22260,note_on,0,0,0,,,,,,,,0,,,51,35
22320,set_tempo,60,1,0,,,,,,740010,,,,,,
22320,note_on,0,0,0,,,,,,,,0,,,51,0
22320,note_on,0,0,0,,,,,,,,0,,,55,40
22372,set_tempo,52,1,0,,,,,,744509,,,,,,
22380,note_on,8,0,0,,,,,,,,0,,,55,0
22380,note_on,0,0,0,,,,,,,,0,,,51,35
22440,set_tempo,60,1,0,,,,,,748970,,,,,,
22440,note_on,0,0,0,,,,,,,,0,,,51,0
22440,note_on,0,0,0,,,,,,,,0,,,55,44
22492,set_tempo,52,1,0,,,,,,753580,,,,,,
22500,set_tempo,8,1,0,,,,,,1137441,,,,,,
22500,note_on,0,0,0,,,,,,,,0,,,55,0
22500,note_on,0,0,0,,,,,,,,0,,,51,40
22520,note_on,20,0,0,,,,,,,,0,,,51,0
22520,note_on,0,0,0,,,,,,,,0,,,50,39
22540,note_on,20,0,0,,,,,,,,0,,,53,47
22560,set_tempo,20,1,0,,,,,,772599,,,,,,
22560,note_on,0,0,0,,,,,,,,0,,,60,0
22560,note_on,0,0,0,,,,,,,,0,,,58,54
22574,control_change,14,0,0,,,,,,,,0,64,0,,
22600,set_tempo,26,1,0,,,,,,753580,,,,,,
22613,control_change,13,0,0,,,,,,,,0,64,127,,
22620,note_on,7,0,0,,,,,,,,0,,,53,0
22620,note_on,0,0,0,,,,,,,,0,,,50,0
22620,note_on,0,0,0,,,,,,,,0,,,50,33
22652,set_tempo,32,1,0,,,,,,748970,,,,,,
22680,note_on,28,0,0,,,,,,,,0,,,50,0
22680,note_on,0,0,0,,,,,,,,0,,,53,43
22704,set_tempo,24,1,0,,,,,,744509,,,,,,
22740,note_on,36,0,0,,,,,,,,0,,,53,0
22740,note_on,0,0,0,,,,,,,,0,,,50,34
22744,set_tempo,4,1,0,,,,,,740010,,,,,,
22800,set_tempo,56,1,0,,,,,,744509,,,,,,
22800,note_on,0,0,0,,,,,,,,0,,,50,0
22800,note_on,0,0,0,,,,,,,,0,,,53,42
22840,set_tempo,40,1,0,,,,,,748970,,,,,,
22860,note_on,20,0,0,,,,,,,,0,,,53,0
22860,note_on,0,0,0,,,,,,,,0,,,50,33
22892,set_tempo,32,1,0,,,,,,753580,,,,,,
22920,note_on,28,0,0,,,,,,,,0,,,50,0
22920,note_on,0,0,0,,,,,,,,0,,,53,42
22932,set_tempo,12,1,0,,,,,,758246,,,,,,
22972,set_tempo,40,1,0,,,,,,762970,,,,,,
22980,set_tempo,8,1,0,,,,,,1279863,,,,,,
22980,note_on,0,0,0,,,,,,,,0,,,53,0
22980,note_on,0,0,0,,,,,,,,0,,,50,34
23000,note_on,20,0,0,,,,,,,,0,,,50,0
23000,note_on,0,0,0,,,,,,,,0,,,48,32
23020,note_on,20,0,0,,,,,,,,0,,,51,44
23040,set_tempo,20,1,0,,,,,,772599,,,,,,
23040,note_on,0,0,0,,,,,,,,0,,,58,0
23040,note_on,0,0,0,,,,,,,,0,,,57,50
23058,control_change,18,0,0,,,,,,,,0,64,0,,
23078,control_change,20,0,0,,,,,,,,0,64,127,,
23080,set_tempo,2,1,0,,,,,,782371,,,,,,
23100,note_on,20,0,0,,,,,,,,0,,,51,0
23100,note_on,0,0,0,,,,,,,,0,,,48,0
23100,note_on,0,0,0,,,,,,,,0,,,48,32
23120,set_tempo,20,1,0,,,,,,777403,,,,,,
23160,note_on,40,0,0,,,,,,,,0,,,48,0
23160,note_on,0,0,0,,,,,,,,0,,,51,40
23172,set_tempo,12,1,0,,,,,,772599,,,,,,
23212,set_tempo,40,1,0,,,,,,767754,,,,,,
23220,note_on,8,0,0,,,,,,,,0,,,51,0
23220,note_on,0,0,0,,,,,,,,0,,,48,32
23252,set_tempo,32,1,0,,,,,,762970,,,,,,
23280,note_on,28,0,0,,,,,,,,0,,,48,0
23280,note_on,0,0,0,,,,,,,,0,,,51,42
23304,set_tempo,24,1,0,,,,,,758246,,,,,,
23340,note_on,36,0,0,,,,,,,,0,,,51,0
23340,note_on,0,0,0,,,,,,,,0,,,48,33
23344,set_tempo,4,1,0,,,,,,753580,,,,,,
23384,set_tempo,40,1,0,,,,,,748970,,,,,,
23400,note_on,16,0,0,,,,,,,,0,,,48,0
23400,note_on,0,0,0,,,,,,,,0,,,51,43
23440,set_tempo,40,1,0,,,,,,744509,,,,,,
23460,note_on,20,0,0,,,,,,,,0,,,51,0
23460,note_on,0,0,0,,,,,,,,0,,,48,33
23480,set_tempo,20,1,0,,,,,,740010,,,,,,
23520,set_tempo,40,1,0,,,,,,735565,,,,,,
23520,note_on,0,0,0,,,,,,,,0,,,48,0
23520,note_on,0,0,0,,,,,,,,0,,,51,44
23580,note_on,60,0,0,,,,,,,,0,,,51,0
23580,note_on,0,0,0,,,,,,,,0,,,48,35
23640,note_on,60,0,0,,,,,,,,0,,,48,0
23640,note_on,0,0,0,,,,,,,,0,,,51,45
23700,note_on,60,0,0,,,,,,,,0,,,51,0
23700,note_on,0,0,0,,,,,,,,0,,,48,36
23760,note_on,60,0,0,,,,,,,,0,,,48,0
23760,note_on,0,0,0,,,,,,,,0,,,51,45
23820,note_on,60,0,0,,,,,,,,0,,,51,0
23820,note_on,0,0,0,,,,,,,,0,,,48,36
23880,note_on,60,0,0,,,,,,,,0,,,48,0
23880,note_on,0,0,0,,,,,,,,0,,,51,46
23940,note_on,60,0,0,,,,,,,,0,,,51,0
23940,note_on,0,0,0,,,,,,,,0,,,48,37
23984,set_tempo,44,1,0,,,,,,740010,,,,,,
24000,note_on,16,0,0,,,,,,,,0,,,48,0
24000,note_on,0,0,0,,,,,,,,0,,,51,48
24060,note_on,60,0,0,,,,,,,,0,,,51,0
24060,note_on,0,0,0,,,,,,,,0,,,48,38
24104,set_tempo,44,1,0,,,,,,744509,,,,,,
24120,note_on,16,0,0,,,,,,,,0,,,48,0
24120,note_on,0,0,0,,,,,,,,0,,,51,48
24180,note_on,60,0,0,,,,,,,,0,,,51,0
24180,note_on,0,0,0,,,,,,,,0,,,48,39
24224,set_tempo,44,1,0,,,,,,748970,,,,,,
24240,note_on,16,0,0,,,,,,,,0,,,48,0
24240,note_on,0,0,0,,,,,,,,0,,,51,50
24300,note_on,60,0,0,,,,,,,,0,,,51,0
24300,note_on,0,0,0,,,,,,,,0,,,48,40
24344,set_tempo,44,1,0,,,,,,753580,,,,,,
24360,note_on,16,0,0,,,,,,,,0,,,48,0
24360,note_on,0,0,0,,,,,,,,0,,,51,51
24404,set_tempo,44,1,0,,,,,,762970,,,,,,
24420,note_on,16,0,0,,,,,,,,0,,,51,0
24420,note_on,0,0,0,,,,,,,,0,,,48,41
24432,set_tempo,12,1,0,,,,,,767754,,,,,,
24460,set_tempo,28,1,0,,,,,,777001,,,,,,
24480,note_on,20,0,0,,,,,,,,0,,,48,0
24480,note_on,0,0,0,,,,,,,,0,,,57,0
24480,note_on,0,0,0,,,,,,,,0,,,60,72
24480,note_on,0,0,0,,,,,,,,0,,,51,57
24493,control_change,13,0,0,,,,,,,,0,64,0,,
24500,set_tempo,7,1,0,,,,,,771803,,,,,,
24533,control_change,33,0,0,,,,,,,,0,64,127,,
24540,set_tempo,7,1,0,,,,,,766675,,,,,,
24540,note_on,0,0,0,,,,,,,,0,,,51,0
24540,note_on,0,0,0,,,,,,,,0,,,48,39
24560,set_tempo,20,1,0,,,,,,761518,,,,,,
24600,set_tempo,40,1,0,,,,,,756525,,,,,,
24600,note_on,0,0,0,,,,,,,,0,,,48,0
24600,note_on,0,0,0,,,,,,,,0,,,51,51
24640,set_tempo,40,1,0,,,,,,751597,,,,,,
24660,set_tempo,20,1,0,,,,,,746733,,,,,,
24660,note_on,0,0,0,,,,,,,,0,,,51,0
24660,note_on,0,0,0,,,,,,,,0,,,48,36
24720,note_on,60,0,0,,,,,,,,0,,,48,0
24720,note_on,0,0,0,,,,,,,,0,,,51,44
24780,note_on,60,0,0,,,,,,,,0,,,51,0
24780,note_on,0,0,0,,,,,,,,0,,,48,48
24840,note_on,60,0,0,,,,,,,,0,,,48,0
24840,note_on,0,0,0,,,,,,,,0,,,51,36
24860,set_tempo,20,1,0,,,,,,751597,,,,,,
24864,set_tempo,4,1,0,,,,,,735565,,,,,,
24892,set_tempo,28,1,0,,,,,,740010,,,,,,
24900,set_tempo,8,1,0,,,,,,1116695,,,,,,
24900,note_on,0,0,0,,,,,,,,0,,,51,0
24900,note_on,0,0,0,,,,,,,,0,,,48,43
24920,note_on,20,0,0,,,,,,,,0,,,48,0
24920,note_on,0,0,0,,,,,,,,0,,,49,42
24940,note_on,20,0,0,,,,,,,,0,,,52,52
24960,set_tempo,20,1,0,,,,,,753580,,,,,,
24960,note_on,0,0,0,,,,,,,,0,,,60,0
24960,note_on,0,0,0,,,,,,,,0,,,57,67
24970,control_change,10,0,0,,,,,,,,0,64,0,,
25006,control_change,36,0,0,,,,,,,,0,64,127,,
25012,set_tempo,6,1,0,,,,,,748970,,,,,,
25020,note_on,8,0,0,,,,,,,,0,,,52,0
25020,note_on,0,0,0,,,,,,,,0,,,49,0
25020,note_on,0,0,0,,,,,,,,0,,,49,36
25052,set_tempo,32,1,0,,,,,,744509,,,,,,
25080,note_on,28,0,0,,,,,,,,0,,,49,0
25080,note_on,0,0,0,,,,,,,,0,,,52,45
25092,set_tempo,12,1,0,,,,,,740010,,,,,,
25132,set_tempo,40,1,0,,,,,,735565,,,,,,
25140,note_on,8,0,0,,,,,,,,0,,,52,0
25140,note_on,0,0,0,,,,,,,,0,,,49,36
25200,set_tempo,60,1,0,,,,,,740010,,,,,,
25200,note_on,0,0,0,,,,,,,,0,,,49,0
25200,note_on,0,0,0,,,,,,,,0,,,52,44
25252,set_tempo,52,1,0,,,,,,744509,,,,,,
25260,note_on,8,0,0,,,,,,,,0,,,52,0
25260,note_on,0,0,0,,,,,,,,0,,,49,38
25320,set_tempo,60,1,0,,,,,,748970,,,,,,
25320,note_on,0,0,0,,,,,,,,0,,,49,0
25320,note_on,0,0,0,,,,,,,,0,,,52,45
25372,set_tempo,52,1,0,,,,,,753580,,,,,,
25380,set_tempo,8,1,0,,,,,,772599,,,,,,
25380,note_on,0,0,0,,,,,,,,0,,,52,0
25380,note_on,0,0,0,,,,,,,,0,,,49,41
25404,set_tempo,24,1,0,,,,,,777403,,,,,,
25432,set_tempo,28,1,0,,,,,,782371,,,,,,
25440,set_tempo,8,1,0,,,,,,772599,,,,,,
25440,note_on,0,0,0,,,,,,,,0,,,49,0
25440,note_on,0,0,0,,,,,,,,0,,,57,0
25440,note_on,0,0,0,,,,,,,,0,,,55,61
25440,note_on,0,0,0,,,,,,,,0,,,52,52
25454,control_change,14,0,0,,,,,,,,0,64,0,,
25480,set_tempo,26,1,0,,,,,,753580,,,,,,
25493,control_change,13,0,0,,,,,,,,0,64,127,,
25500,note_on,7,0,0,,,,,,,,0,,,52,0
25500,note_on,0,0,0,,,,,,,,0,,,49,34
25532,set_tempo,32,1,0,,,,,,748970,,,,,,
25560,note_on,28,0,0,,,,,,,,0,,,49,0
25560,note_on,0,0,0,,,,,,,,0,,,52,44
25584,set_tempo,24,1,0,,,,,,744509,,,,,,
25620,note_on,36,0,0,,,,,,,,0,,,52,0
25620,note_on,0,0,0,,,,,,,,0,,,49,35
25624,set_tempo,4,1,0,,,,,,740010,,,,,,
25680,set_tempo,56,1,0,,,,,,744509,,,,,,
25680,note_on,0,0,0,,,,,,,,0,,,49,0
25680,note_on,0,0,0,,,,,,,,0,,,52,42
25720,set_tempo,40,1,0,,,,,,748970,,,,,,
25740,note_on,20,0,0,,,,,,,,0,,,52,0
25740,note_on,0,0,0,,,,,,,,0,,,49,33
25772,set_tempo,32,1,0,,,,,,753580,,,,,,
25800,note_on,28,0,0,,,,,,,,0,,,49,0
25800,note_on,0,0,0,,,,,,,,0,,,52,42
25812,set_tempo,12,1,0,,,,,,758246,,,,,,
25852,set_tempo,40,1,0,,,,,,762970,,,,,,
25860,set_tempo,8,1,0,,,,,,1240695,,,,,,
25860,note_on,0,0,0,,,,,,,,0,,,52,0
25860,note_on,0,0,0,,,,,,,,0,,,49,34
25880,note_on,20,0,0,,,,,,,,0,,,49,0
25880,note_on,0,0,0,,,,,,,,0,,,50,44
25900,note_on,20,0,0,,,,,,,,0,,,55,44
25920,set_tempo,20,1,0,,,,,,772599,,,,,,
25920,note_on,0,0,0,,,,,,,,0,,,55,0
25920,note_on,0,0,0,,,,,,,,0,,,58,60
25938,control_change,18,0,0,,,,,,,,0,64,0,,
25960,set_tempo,22,1,0,,,,,,782371,,,,,,
25980,note_on,20,0,0,,,,,,,,0,,,55,0
25980,note_on,0,0,0,,,,,,,,0,,,50,0
25980,control_change,0,0,0,,,,,,,,0,64,127,,
25980,note_on,0,0,0,,,,,,,,0,,,50,32
26000,set_tempo,20,1,0,,,,,,777403,,,,,,
26040,note_on,40,0,0,,,,,,,,0,,,50,0
26040,note_on,0,0,0,,,,,,,,0,,,55,40
26052,set_tempo,12,1,0,,,,,,772599,,,,,,
26092,set_tempo,40,1,0,,,,,,767754,,,,,,
26100,note_on,8,0,0,,,,,,,,0,,,55,0
26100,note_on,0,0,0,,,,,,,,0,,,50,32
26132,set_tempo,32,1,0,,,,,,762970,,,,,,
26160,note_on,28,0,0,,,,,,,,0,,,50,0
26160,note_on,0,0,0,,,,,,,,0,,,55,42
26184,set_tempo,24,1,0,,,,,,758246,,,,,,
26220,note_on,36,0,0,,,,,,,,0,,,55,0
26220,note_on,0,0,0,,,,,,,,0,,,50,33
26224,set_tempo,4,1,0,,,,,,753580,,,,,,
26264,set_tempo,40,1,0,,,,,,748970,,,,,,
26280,note_on,16,0,0,,,,,,,,0,,,50,0
26280,note_on,0,0,0,,,,,,,,0,,,55,43
26320,set_tempo,40,1,0,,,,,,744509,,,,,,
26340,note_on,20,0,0,,,,,,,,0,,,55,0
26340,note_on,0,0,0,,,,,,,,0,,,50,33
26360,set_tempo,20,1,0,,,,,,740010,,,,,,
26392,set_tempo,32,1,0,,,,,,727802,,,,,,
26400,note_on,8,0,0,,,,,,,,0,,,50,0
26400,note_on,0,0,0,,,,,,,,0,,,55,44
26432,set_tempo,32,1,0,,,,,,723240,,,,,,
26460,note_on,28,0,0,,,,,,,,0,,,55,0
26460,note_on,0,0,0,,,,,,,,0,,,50,35
26472,set_tempo,12,1,0,,,,,,718735,,,,,,
26520,note_on,48,0,0,,,,,,,,0,,,50,0
26520,note_on,0,0,0,,,,,,,,0,,,55,43
26524,set_tempo,4,1,0,,,,,,723240,,,,,,
26564,set_tempo,40,1,0,,,,,,727802,,,,,,
26580,note_on,16,0,0,,,,,,,,0,,,55,0
26580,note_on,0,0,0,,,,,,,,0,,,50,34
26604,set_tempo,24,1,0,,,,,,727802,,,,,,
26632,set_tempo,28,1,0,,,,,,723240,,,,,,
26640,note_on,8,0,0,,,,,,,,0,,,50,0
26640,note_on,0,0,0,,,,,,,,0,,,55,42
26660,set_tempo,20,1,0,,,,,,718735,,,,,,
26672,set_tempo,12,1,0,,,,,,714286,,,,,,
26700,set_tempo,28,1,0,,,,,,709807,,,,,,
26700,note_on,0,0,0,,,,,,,,0,,,55,0
26700,note_on,0,0,0,,,,,,,,0,,,50,33
26712,set_tempo,12,1,0,,,,,,709807,,,,,,
26752,set_tempo,40,1,0,,,,,,714286,,,,,,
26760,note_on,8,0,0,,,,,,,,0,,,50,0
26760,note_on,0,0,0,,,,,,,,0,,,55,41
26780,set_tempo,20,1,0,,,,,,718735,,,,,,
26820,set_tempo,40,1,0,,,,,,723240,,,,,,
26820,note_on,0,0,0,,,,,,,,0,,,55,0
26820,note_on,0,0,0,,,,,,,,0,,,50,32
26844,set_tempo,24,1,0,,,,,,727802,,,,,,
26864,set_tempo,20,1,0,,,,,,740010,,,,,,
26880,note_on,16,0,0,,,,,,,,0,,,50,0
26880,note_on,0,0,0,,,,,,,,0,,,58,0
26880,note_on,0,0,0,,,,,,,,0,,,57,48
26880,note_on,0,0,0,,,,,,,,0,,,54,40
26894,control_change,14,0,0,,,,,,,,0,64,0,,
26923,control_change,29,0,0,,,,,,,,0,64,127,,
26940,note_on,17,0,0,,,,,,,,0,,,54,0
26940,note_on,0,0,0,,,,,,,,0,,,50,32
26984,set_tempo,44,1,0,,,,,,744509,,,,,,
27000,note_on,16,0,0,,,,,,,,0,,,50,0
27000,note_on,0,0,0,,,,,,,,0,,,54,40
27060,note_on,60,0,0,,,,,,,,0,,,54,0
27060,note_on,0,0,0,,,,,,,,0,,,50,32
27104,set_tempo,44,1,0,,,,,,748970,,,,,,
27120,note_on,16,0,0,,,,,,,,0,,,50,0
27120,note_on,0,0,0,,,,,,,,0,,,54,40
27180,note_on,60,0,0,,,,,,,,0,,,54,0
27180,note_on,0,0,0,,,,,,,,0,,,50,32
27224,set_tempo,44,1,0,,,,,,753580,,,,,,
27240,note_on,16,0,0,,,,,,,,0,,,50,0
27240,note_on,0,0,0,,,,,,,,0,,,54,40
27300,set_tempo,60,1,0,,,,,,1147886,,,,,,
27300,note_on,0,0,0,,,,,,,,0,,,54,0
27300,note_on,0,0,0,,,,,,,,0,,,50,32
27320,note_on,20,0,0,,,,,,,,0,,,50,0
27320,note_on,0,0,0,,,,,,,,0,,,48,35
27340,note_on,20,0,0,,,,,,,,0,,,51,48
27360,note_on,20,0,0,,,,,,,,0,,,57,0
27360,note_on,0,0,0,,,,,,,,0,,,57,56
27364,set_tempo,4,1,0,,,,,,761518,,,,,,
27373,control_change,9,0,0,,,,,,,,0,64,0,,
27404,set_tempo,31,1,0,,,,,,756525,,,,,,
27413,control_change,9,0,0,,,,,,,,0,64,127,,
27420,note_on,7,0,0,,,,,,,,0,,,51,0
27420,note_on,0,0,0,,,,,,,,0,,,48,0
27420,note_on,0,0,0,,,,,,,,0,,,48,36
27432,set_tempo,12,1,0,,,,,,751597,,,,,,
27460,set_tempo,28,1,0,,,,,,746733,,,,,,
27480,note_on,20,0,0,,,,,,,,0,,,48,0
27480,note_on,0,0,0,,,,,,,,0,,,51,44
27484,set_tempo,4,1,0,,,,,,741931,,,,,,
27512,set_tempo,28,1,0,,,,,,737101,,,,,,
27540,set_tempo,28,1,0,,,,,,732422,,,,,,
27540,note_on,0,0,0,,,,,,,,0,,,51,0
27540,note_on,0,0,0,,,,,,,,0,,,48,33
27592,set_tempo,52,1,0,,,,,,737101,,,,,,
27600,note_on,8,0,0,,,,,,,,0,,,48,0
27600,note_on,0,0,0,,,,,,,,0,,,51,40
27632,set_tempo,32,1,0,,,,,,741931,,,,,,
27660,note_on,28,0,0,,,,,,,,0,,,51,0
27660,note_on,0,0,0,,,,,,,,0,,,48,45
27672,set_tempo,12,1,0,,,,,,746733,,,,,,
27712,set_tempo,40,1,0,,,,,,751597,,,,,,
27720,note_on,8,0,0,,,,,,,,0,,,48,0
27720,note_on,0,0,0,,,,,,,,0,,,51,34
27752,set_tempo,32,1,0,,,,,,756525,,,,,,
27772,set_tempo,20,1,0,,,,,,740010,,,,,,
27780,set_tempo,8,1,0,,,,,,1116695,,,,,,
27780,note_on,0,0,0,,,,,,,,0,,,51,0
27780,note_on,0,0,0,,,,,,,,0,,,48,40
27800,note_on,20,0,0,,,,,,,,0,,,48,0
27800,note_on,0,0,0,,,,,,,,0,,,46,39
27820,note_on,20,0,0,,,,,,,,0,,,50,47
27832,set_tempo,12,1,0,,,,,,771803,,,,,,
27840,note_on,8,0,0,,,,,,,,0,,,57,0
27840,note_on,0,0,0,,,,,,,,0,,,55,54
27850,control_change,10,0,0,,,,,,,,0,64,0,,
27872,set_tempo,22,1,0,,,,,,766675,,,,,,
27886,control_change,14,0,0,,,,,,,,0,64,127,,
27900,set_tempo,14,1,0,,,,,,761518,,,,,,
27900,note_on,0,0,0,,,,,,,,0,,,50,0
27900,note_on,0,0,0,,,,,,,,0,,,46,0
27900,note_on,0,0,0,,,,,,,,0,,,46,34
27924,set_tempo,24,1,0,,,,,,756525,,,,,,
27952,set_tempo,28,1,0,,,,,,751597,,,,,,
27960,note_on,8,0,0,,,,,,,,0,,,46,0
27960,note_on,0,0,0,,,,,,,,0,,,50,43
27980,set_tempo,20,1,0,,,,,,746733,,,,,,
28004,set_tempo,24,1,0,,,,,,741931,,,,,,
28012,set_tempo,8,1,0,,,,,,735565,,,,,,
28020,note_on,8,0,0,,,,,,,,0,,,50,0
28020,note_on,0,0,0,,,,,,,,0,,,46,35
28032,set_tempo,12,1,0,,,,,,737101,,,,,,
28060,set_tempo,28,1,0,,,,,,741931,,,,,,
28080,note_on,20,0,0,,,,,,,,0,,,46,0
28080,note_on,0,0,0,,,,,,,,0,,,50,40
28084,set_tempo,4,1,0,,,,,,746733,,,,,,
28112,set_tempo,28,1,0,,,,,,751597,,,,,,
28140,set_tempo,28,1,0,,,,,,756525,,,,,,
28140,note_on,0,0,0,,,,,,,,0,,,50,0
28140,note_on,0,0,0,,,,,,,,0,,,46,35
28164,set_tempo,24,1,0,,,,,,761518,,,,,,
28192,set_tempo,28,1,0,,,,,,766675,,,,,,
28200,note_on,8,0,0,,,,,,,,0,,,46,0
28200,note_on,0,0,0,,,,,,,,0,,,50,44
28220,set_tempo,20,1,0,,,,,,771803,,,,,,
28244,set_tempo,24,1,0,,,,,,777001,,,,,,
28252,set_tempo,8,1,0,,,,,,753580,,,,,,
28260,set_tempo,8,1,0,,,,,,1137441,,,,,,
28260,note_on,0,0,0,,,,,,,,0,,,50,0
28260,note_on,0,0,0,,,,,,,,0,,,46,40
28280,note_on,20,0,0,,,,,,,,0,,,46,0
28280,note_on,0,0,0,,,,,,,,0,,,45,39
28300,note_on,20,0,0,,,,,,,,0,,,50,47
28312,set_tempo,12,1,0,,,,,,777001,,,,,,
28320,note_on,8,0,0,,,,,,,,0,,,55,0
28320,note_on,0,0,0,,,,,,,,0,,,54,54
28334,control_change,14,0,0,,,,,,,,0,64,0,,
28352,set_tempo,18,1,0,,,,,,771803,,,,,,
28373,control_change,21,0,0,,,,,,,,0,64,127,,
28380,note_on,7,0,0,,,,,,,,0,,,50,0
28380,note_on,0,0,0,,,,,,,,0,,,45,0
28380,note_on,0,0,0,,,,,,,,0,,,45,33
28392,set_tempo,12,1,0,,,,,,766675,,,,,,
28432,set_tempo,40,1,0,,,,,,761518,,,,,,
28440,note_on,8,0,0,,,,,,,,0,,,45,0
28440,note_on,0,0,0,,,,,,,,0,,,50,43
28472,set_tempo,32,1,0,,,,,,756525,,,,,,
28500,note_on,28,0,0,,,,,,,,0,,,50,0
28500,note_on,0,0,0,,,,,,,,0,,,45,34
28512,set_tempo,12,1,0,,,,,,751597,,,,,,
28540,set_tempo,28,1,0,,,,,,756525,,,,,,
28560,note_on,20,0,0,,,,,,,,0,,,45,0
28560,note_on,0,0,0,,,,,,,,0,,,50,42
28564,set_tempo,4,1,0,,,,,,761518,,,,,,
28592,set_tempo,28,1,0,,,,,,766675,,,,,,
28620,set_tempo,28,1,0,,,,,,771803,,,,,,
28620,note_on,0,0,0,,,,,,,,0,,,50,0
28620,note_on,0,0,0,,,,,,,,0,,,45,33
28644,set_tempo,24,1,0,,,,,,777001,,,,,,
28672,set_tempo,28,1,0,,,,,,782269,,,,,,
28680,note_on,8,0,0,,,,,,,,0,,,45,0
28680,note_on,0,0,0,,,,,,,,0,,,50,42
28700,set_tempo,20,1,0,,,,,,787608,,,,,,
28724,set_tempo,24,1,0,,,,,,793021,,,,,,
28732,set_tempo,8,1,0,,,,,,762970,,,,,,
28740,set_tempo,8,1,0,,,,,,1742666,,,,,,
28740,note_on,0,0,0,,,,,,,,0,,,50,0
28740,note_on,0,0,0,,,,,,,,0,,,45,32
28755,note_on,15,0,0,,,,,,,,0,,,45,0
28755,note_on,0,0,0,,,,,,,,0,,,43,40
28770,note_on,15,0,0,,,,,,,,0,,,50,40
28784,set_tempo,14,1,0,,,,,,833333,,,,,,
28785,note_on,1,0,0,,,,,,,,0,,,58,40
28800,set_tempo,15,1,0,,,,,,833333,,,,,,
28800,note_on,0,0,0,,,,,,,,0,,,54,0
28800,note_on,0,0,0,,,,,,,,0,,,62,50
28800,control_change,0,0,0,,,,,,,,0,64,0,,
28844,set_tempo,44,1,0,,,,,,821355,,,,,,
28860,note_on,16,0,0,,,,,,,,0,,,58,0
28860,note_on,0,0,0,,,,,,,,0,,,55,32
28878,control_change,18,0,0,,,,,,,,0,64,127,,
28884,set_tempo,6,1,0,,,,,,815550,,,,,,
28912,set_tempo,28,1,0,,,,,,809826,,,,,,
28920,note_on,8,0,0,,,,,,,,0,,,55,0
28920,note_on,0,0,0,,,,,,,,0,,,58,40
28952,set_tempo,32,1,0,,,,,,804182,,,,,,
28980,note_on,28,0,0,,,,,,,,0,,,58,0
28980,note_on,0,0,0,,,,,,,,0,,,55,31
28992,set_tempo,12,1,0,,,,,,798616,,,,,,
29020,set_tempo,28,1,0,,,,,,793021,,,,,,
29040,note_on,20,0,0,,,,,,,,0,,,55,0
29040,note_on,0,0,0,,,,,,,,0,,,58,40
29060,set_tempo,20,1,0,,,,,,787608,,,,,,
29100,set_tempo,40,1,0,,,,,,782269,,,,,,
29100,note_on,0,0,0,,,,,,,,0,,,58,0
29100,note_on,0,0,0,,,,,,,,0,,,55,31
29140,set_tempo,40,1,0,,,,,,777001,,,,,,
29160,note_on,20,0,0,,,,,,,,0,,,55,0
29160,note_on,0,0,0,,,,,,,,0,,,58,40
29164,set_tempo,4,1,0,,,,,,771803,,,,,,
29204,set_tempo,40,1,0,,,,,,766675,,,,,,
29220,note_on,16,0,0,,,,,,,,0,,,58,0
29220,note_on,0,0,0,,,,,,,,0,,,55,31
29244,set_tempo,24,1,0,,,,,,761518,,,,,,
29272,set_tempo,28,1,0,,,,,,745342,,,,,,
29280,note_on,8,0,0,,,,,,,,0,,,55,0
29280,note_on,0,0,0,,,,,,,,0,,,58,41
29340,set_tempo,60,1,0,,,,,,740741,,,,,,
29340,note_on,0,0,0,,,,,,,,0,,,58,0
29340,note_on,0,0,0,,,,,,,,0,,,55,33
29400,note_on,60,0,0,,,,,,,,0,,,55,0
29400,note_on,0,0,0,,,,,,,,0,,,58,41
29404,set_tempo,4,1,0,,,,,,736196,,,,,,
29460,note_on,56,0,0,,,,,,,,0,,,58,0
29460,note_on,0,0,0,,,,,,,,0,,,55,33
29472,set_tempo,12,1,0,,,,,,731707,,,,,,
29520,note_on,48,0,0,,,,,,,,0,,,55,0
29520,note_on,0,0,0,,,,,,,,0,,,58,42
29540,set_tempo,20,1,0,,,,,,727273,,,,,,
29580,note_on,40,0,0,,,,,,,,0,,,58,0
29580,note_on,0,0,0,,,,,,,,0,,,55,33
29604,set_tempo,24,1,0,,,,,,722892,,,,,,
29640,note_on,36,0,0,,,,,,,,0,,,55,0
29640,note_on,0,0,0,,,,,,,,0,,,58,42
29672,set_tempo,32,1,0,,,,,,718563,,,,,,
29700,note_on,28,0,0,,,,,,,,0,,,58,0
29700,note_on,0,0,0,,,,,,,,0,,,55,34
29724,set_tempo,24,1,0,,,,,,710059,,,,,,
29760,note_on,36,0,0,,,,,,,,0,,,55,0
29760,note_on,0,0,0,,,,,,,,0,,,50,0
29760,note_on,0,0,0,,,,,,,,0,,,58,42
29775,note_on,15,0,0,,,,,,,,0,,,43,0
29780,set_tempo,5,1,0,,,,,,714286,,,,,,
29820,note_on,40,0,0,,,,,,,,0,,,58,0
29820,note_on,0,0,0,,,,,,,,0,,,55,34
29832,set_tempo,12,1,0,,,,,,718563,,,,,,
29880,note_on,48,0,0,,,,,,,,0,,,55,0
29880,note_on,0,0,0,,,,,,,,0,,,58,43
29884,set_tempo,4,1,0,,,,,,722892,,,,,,
29924,set_tempo,40,1,0,,,,,,727273,,,,,,
29940,note_on,16,0,0,,,,,,,,0,,,58,0
29940,note_on,0,0,0,,,,,,,,0,,,55,34
29980,set_tempo,40,1,0,,,,,,731707,,,,,,
30000,note_on,20,0,0,,,,,,,,0,,,55,0
30000,note_on,0,0,0,,,,,,,,0,,,58,43
30032,set_tempo,32,1,0,,,,,,736196,,,,,,
30060,note_on,28,0,0,,,,,,,,0,,,58,0
30060,note_on,0,0,0,,,,,,,,0,,,55,34
30072,set_tempo,12,1,0,,,,,,740741,,,,,,
30120,note_on,48,0,0,,,,,,,,0,,,55,0
30120,note_on,0,0,0,,,,,,,,0,,,58,44
30124,set_tempo,4,1,0,,,,,,745342,,,,,,
30180,set_tempo,56,1,0,,,,,,750000,,,,,,
30180,note_on,0,0,0,,,,,,,,0,,,58,0
30180,note_on,0,0,0,,,,,,,,0,,,55,35
30220,set_tempo,40,1,0,,,,,,754717,,,,,,
30224,set_tempo,4,1,0,,,,,,758246,,,,,,
30240,note_on,16,0,0,,,,,,,,0,,,55,0
30240,note_on,0,0,0,,,,,,,,0,,,62,0
30240,note_on,0,0,0,,,,,,,,0,,,62,68
30240,note_on,0,0,0,,,,,,,,0,,,59,53
30252,set_tempo,12,1,0,,,,,,753580,,,,,,
30253,control_change,1,0,0,,,,,,,,0,64,0,,
30280,set_tempo,27,1,0,,,,,,748970,,,,,,
30293,control_change,13,0,0,,,,,,,,0,64,127,,
30300,note_on,7,0,0,,,,,,,,0,,,59,0
30300,note_on,0,0,0,,,,,,,,0,,,55,39
30304,set_tempo,4,1,0,,,,,,744509,,,,,,
30332,set_tempo,28,1,0,,,,,,740010,,,,,,
30360,set_tempo,28,1,0,,,,,,735565,,,,,,
30360,note_on,0,0,0,,,,,,,,0,,,55,0
30360,note_on,0,0,0,,,,,,,,0,,,59,47
30372,set_tempo,12,1,0,,,,,,731261,,,,,,
30420,note_on,48,0,0,,,,,,,,0,,,59,0
30420,note_on,0,0,0,,,,,,,,0,,,55,36
30480,note_on,60,0,0,,,,,,,,0,,,55,0
30480,note_on,0,0,0,,,,,,,,0,,,59,44
30540,note_on,60,0,0,,,,,,,,0,,,59,0
30540,note_on,0,0,0,,,,,,,,0,,,55,50
30544,set_tempo,4,1,0,,,,,,735565,,,,,,
30600,note_on,56,0,0,,,,,,,,0,,,55,0
30600,note_on,0,0,0,,,,,,,,0,,,59,37
30624,set_tempo,24,1,0,,,,,,735565,,,,,,
30652,set_tempo,28,1,0,,,,,,740010,,,,,,
30660,note_on,8,0,0,,,,,,,,0,,,59,0
30660,note_on,0,0,0,,,,,,,,0,,,55,45
30680,set_tempo,20,1,0,,,,,,744509,,,,,,
30704,set_tempo,24,1,0,,,,,,748970,,,,,,
30720,set_tempo,16,1,0,,,,,,753580,,,,,,
30720,note_on,0,0,0,,,,,,,,0,,,55,0
30720,note_on,0,0,0,,,,,,,,0,,,62,0
30720,note_on,0,0,0,,,,,,,,0,,,63,72
30720,note_on,0,0,0,,,,,,,,0,,,60,59
30730,control_change,10,0,0,,,,,,,,0,64,0,,
30766,control_change,36,0,0,,,,,,,,0,64,127,,
30772,set_tempo,6,1,0,,,,,,748970,,,,,,
30780,note_on,8,0,0,,,,,,,,0,,,60,0
30780,note_on,0,0,0,,,,,,,,0,,,55,44
30812,set_tempo,32,1,0,,,,,,744509,,,,,,
30840,note_on,28,0,0,,,,,,,,0,,,55,0
30840,note_on,0,0,0,,,,,,,,0,,,60,53
30852,set_tempo,12,1,0,,,,,,740010,,,,,,
30892,set_tempo,40,1,0,,,,,,735565,,,,,,
30900,note_on,8,0,0,,,,,,,,0,,,60,0
30900,note_on,0,0,0,,,,,,,,0,,,55,42
30960,set_tempo,60,1,0,,,,,,740010,,,,,,
30960,note_on,0,0,0,,,,,,,,0,,,55,0
30960,note_on,0,0,0,,,,,,,,0,,,60,50
31012,set_tempo,52,1,0,,,,,,744509,,,,,,
31020,note_on,8,0,0,,,,,,,,0,,,60,0
31020,note_on,0,0,0,,,,,,,,0,,,55,44
31080,set_tempo,60,1,0,,,,,,748970,,,,,,
31080,note_on,0,0,0,,,,,,,,0,,,55,0
31080,note_on,0,0,0,,,,,,,,0,,,60,50
31132,set_tempo,52,1,0,,,,,,753580,,,,,,
31140,note_on,8,0,0,,,,,,,,0,,,60,0
31140,note_on,0,0,0,,,,,,,,0,,,55,46
31184,set_tempo,44,1,0,,,,,,758246,,,,,,
31200,note_on,16,0,0,,,,,,,,0,,,55,0
31200,note_on,0,0,0,,,,,,,,0,,,63,0
31200,note_on,0,0,0,,,,,,,,0,,,60,66
31200,note_on,0,0,0,,,,,,,,0,,,63,66
31200,note_on,0,0,0,,,,,,,,0,,,58,61
31214,control_change,14,0,0,,,,,,,,0,64,0,,
31240,set_tempo,26,1,0,,,,,,753580,,,,,,
31253,control_change,13,0,0,,,,,,,,0,64,127,,
31260,note_on,7,0,0,,,,,,,,0,,,58,0
31260,note_on,0,0,0,,,,,,,,0,,,54,44
31292,set_tempo,32,1,0,,,,,,748970,,,,,,
31320,note_on,28,0,0,,,,,,,,0,,,54,0
31320,note_on,0,0,0,,,,,,,,0,,,58,55
31344,set_tempo,24,1,0,,,,,,744509,,,,,,
31380,note_on,36,0,0,,,,,,,,0,,,58,0
31380,note_on,0,0,0,,,,,,,,0,,,54,44
31384,set_tempo,4,1,0,,,,,,740010,,,,,,
31414,set_tempo,30,1,0,,,,,,736196,,,,,,
31430,set_tempo,16,1,0,,,,,,740741,,,,,,
31440,note_on,10,0,0,,,,,,,,0,,,54,0
31440,note_on,0,0,0,,,,,,,,0,,,58,52
31442,set_tempo,2,1,0,,,,,,745342,,,,,,
31454,set_tempo,12,1,0,,,,,,754717,,,,,,
31470,set_tempo,16,1,0,,,,,,759494,,,,,,
31482,set_tempo,12,1,0,,,,,,764331,,,,,,
31494,set_tempo,12,1,0,,,,,,774194,,,,,,
31500,note_on,6,0,0,,,,,,,,0,,,58,0
31500,note_on,0,0,0,,,,,,,,0,,,54,38
31510,set_tempo,10,1,0,,,,,,779221,,,,,,
31522,set_tempo,12,1,0,,,,,,789474,,,,,,
31534,set_tempo,12,1,0,,,,,,805369,,,,,,
31550,set_tempo,16,1,0,,,,,,827586,,,,,,
31560,note_on,10,0,0,,,,,,,,0,,,54,0
31560,note_on,0,0,0,,,,,,,,0,,,58,49
31562,set_tempo,2,1,0,,,,,,851064,,,,,,
31574,set_tempo,12,1,0,,,,,,875912,,,,,,
31590,set_tempo,16,1,0,,,,,,902256,,,,,,
31602,set_tempo,12,1,0,,,,,,923077,,,,,,
31614,set_tempo,12,1,0,,,,,,952381,,,,,,
31620,note_on,6,0,0,,,,,,,,0,,,58,0
31620,note_on,0,0,0,,,,,,,,0,,,54,40
31630,set_tempo,10,1,0,,,,,,983607,,,,,,
31642,set_tempo,12,1,0,,,,,,1016949,,,,,,
31654,set_tempo,12,1,0,,,,,,1052632,,,,,,
31670,set_tempo,16,1,0,,,,,,769231,,,,,,
31680,note_on,10,0,0,,,,,,,,0,,,54,0
31680,note_on,0,0,0,,,,,,,,0,,,63,0
31680,note_on,0,0,0,,,,,,,,0,,,60,0
31680,note_on,0,0,0,,,,,,,,0,,,60,61
31680,note_on,0,0,0,,,,,,,,0,,,63,61
31680,note_on,0,0,0,,,,,,,,0,,,57,44
31698,control_change,18,0,0,,,,,,,,0,64,0,,
31710,set_tempo,12,1,0,,,,,,764331,,,,,,
31740,note_on,30,0,0,,,,,,,,0,,,57,0
31740,control_change,0,0,0,,,,,,,,0,64,127,,
31740,note_on,0,0,0,,,,,,,,0,,,53,32
31750,set_tempo,10,1,0,,,,,,759494,,,,,,
31790,set_tempo,40,1,0,,,,,,754717,,,,,,
31800,note_on,10,0,0,,,,,,,,0,,,53,0
31800,note_on,0,0,0,,,,,,,,0,,,57,40
31830,set_tempo,30,1,0,,,,,,750000,,,,,,
31854,set_tempo,24,1,0,,,,,,745342,,,,,,
31860,note_on,6,0,0,,,,,,,,0,,,57,0
31860,note_on,0,0,0,,,,,,,,0,,,53,31
31894,set_tempo,34,1,0,,,,,,740741,,,,,,
31920,note_on,26,0,0,,,,,,,,0,,,53,0
31920,note_on,0,0,0,,,,,,,,0,,,57,40
31934,set_tempo,14,1,0,,,,,,736196,,,,,,
31974,set_tempo,40,1,0,,,,,,731707,,,,,,
31980,note_on,6,0,0,,,,,,,,0,,,57,0
31980,note_on,0,0,0,,,,,,,,0,,,53,31
32002,set_tempo,22,1,0,,,,,,727273,,,,,,
32040,note_on,38,0,0,,,,,,,,0,,,53,0
32040,note_on,0,0,0,,,,,,,,0,,,57,40
32042,set_tempo,2,1,0,,,,,,722892,,,,,,
32082,set_tempo,40,1,0,,,,,,718563,,,,,,
32100,note_on,18,0,0,,,,,,,,0,,,57,0
32100,note_on,0,0,0,,,,,,,,0,,,53,31
32122,set_tempo,22,1,0,,,,,,714286,,,,,,
32134,set_tempo,12,1,0,,,,,,714286,,,,,,
32160,note_on,26,0,0,,,,,,,,0,,,53,0
32160,note_on,0,0,0,,,,,,,,0,,,57,40
32220,note_on,60,0,0,,,,,,,,0,,,57,0
32220,note_on,0,0,0,,,,,,,,0,,,53,32
32270,set_tempo,50,1,0,,,,,,718563,,,,,,
32280,note_on,10,0,0,,,,,,,,0,,,53,0
32280,note_on,0,0,0,,,,,,,,0,,,57,40
32340,note_on,60,0,0,,,,,,,,0,,,57,0
32340,note_on,0,0,0,,,,,,,,0,,,53,32
32390,set_tempo,50,1,0,,,,,,722892,,,,,,
32400,note_on,10,0,0,,,,,,,,0,,,53,0
32400,note_on,0,0,0,,,,,,,,0,,,57,40
32460,note_on,60,0,0,,,,,,,,0,,,57,0
32460,note_on,0,0,0,,,,,,,,0,,,53,32
32510,set_tempo,50,1,0,,,,,,727273,,,,,,
32520,note_on,10,0,0,,,,,,,,0,,,53,0
32520,note_on,0,0,0,,,,,,,,0,,,57,40
32580,note_on,60,0,0,,,,,,,,0,,,57,0
32580,note_on,0,0,0,,,,,,,,0,,,53,32
32630,set_tempo,50,1,0,,,,,,731707,,,,,,
32640,note_on,10,0,0,,,,,,,,0,,,53,0
32640,note_on,0,0,0,,,,,,,,0,,,57,40
32700,note_on,60,0,0,,,,,,,,0,,,57,0
32700,note_on,0,0,0,,,,,,,,0,,,53,32
32744,set_tempo,44,1,0,,,,,,744509,,,,,,
32760,note_on,16,0,0,,,,,,,,0,,,53,0
32760,note_on,0,0,0,,,,,,,,0,,,57,40
32820,note_on,60,0,0,,,,,,,,0,,,57,0
32820,note_on,0,0,0,,,,,,,,0,,,53,33
32864,set_tempo,44,1,0,,,,,,748970,,,,,,
32880,note_on,16,0,0,,,,,,,,0,,,53,0
32880,note_on,0,0,0,,,,,,,,0,,,57,42
32940,note_on,60,0,0,,,,,,,,0,,,57,0
32940,note_on,0,0,0,,,,,,,,0,,,53,34
32984,set_tempo,44,1,0,,,,,,753580,,,,,,
33000,note_on,16,0,0,,,,,,,,0,,,53,0
33000,note_on,0,0,0,,,,,,,,0,,,57,43
33040,set_tempo,40,1,0,,,,,,761518,,,,,,
33060,note_on,20,0,0,,,,,,,,0,,,57,0
33060,note_on,0,0,0,,,,,,,,0,,,53,35
33120,note_on,60,0,0,,,,,,,,0,,,53,0
33120,note_on,0,0,0,,,,,,,,0,,,63,0
33120,note_on,0,0,0,,,,,,,,0,,,60,0
33120,note_on,0,0,0,,,,,,,,0,,,60,56
33120,note_on,0,0,0,,,,,,,,0,,,63,56
33120,note_on,0,0,0,,,,,,,,0,,,57,48
33132,set_tempo,12,1,0,,,,,,753580,,,,,,
33133,control_change,1,0,0,,,,,,,,0,64,0,,
33160,set_tempo,27,1,0,,,,,,748970,,,,,,
33173,control_change,13,0,0,,,,,,,,0,64,127,,
33180,note_on,7,0,0,,,,,,,,0,,,57,0
33180,note_on,0,0,0,,,,,,,,0,,,54,36
33184,set_tempo,4,1,0,,,,,,744509,,,,,,
33212,set_tempo,28,1,0,,,,,,740010,,,,,,
33240,set_tempo,28,1,0,,,,,,735565,,,,,,
33240,note_on,0,0,0,,,,,,,,0,,,54,0
33240,note_on,0,0,0,,,,,,,,0,,,57,44
33252,set_tempo,12,1,0,,,,,,731261,,,,,,
33300,note_on,48,0,0,,,,,,,,0,,,57,0
33300,note_on,0,0,0,,,,,,,,0,,,54,33
33360,note_on,60,0,0,,,,,,,,0,,,54,0
33360,note_on,0,0,0,,,,,,,,0,,,57,40
33420,note_on,60,0,0,,,,,,,,0,,,57,0
33420,note_on,0,0,0,,,,,,,,0,,,54,45
33424,set_tempo,4,1,0,,,,,,735565,,,,,,
33480,note_on,56,0,0,,,,,,,,0,,,54,0
33480,note_on,0,0,0,,,,,,,,0,,,57,34
33504,set_tempo,24,1,0,,,,,,735565,,,,,,
33532,set_tempo,28,1,0,,,,,,756525,,,,,,
33540,note_on,8,0,0,,,,,,,,0,,,57,0
33540,note_on,0,0,0,,,,,,,,0,,,54,40
33600,set_tempo,60,1,0,,,,,,753580,,,,,,
33600,note_on,0,0,0,,,,,,,,0,,,54,0
33600,note_on,0,0,0,,,,,,,,0,,,63,0
33600,note_on,0,0,0,,,,,,,,0,,,60,0
33600,note_on,0,0,0,,,,,,,,0,,,62,54
33600,note_on,0,0,0,,,,,,,,0,,,58,47
33610,control_change,10,0,0,,,,,,,,0,64,0,,
33646,control_change,36,0,0,,,,,,,,0,64,127,,
33652,set_tempo,6,1,0,,,,,,748970,,,,,,
33660,note_on,8,0,0,,,,,,,,0,,,58,0
33660,note_on,0,0,0,,,,,,,,0,,,55,34
33692,set_tempo,32,1,0,,,,,,744509,,,,,,
33720,note_on,28,0,0,,,,,,,,0,,,55,0
33720,note_on,0,0,0,,,,,,,,0,,,58,43
33732,set_tempo,12,1,0,,,,,,740010,,,,,,
33772,set_tempo,40,1,0,,,,,,735565,,,,,,
33780,note_on,8,0,0,,,,,,,,0,,,58,0
33780,note_on,0,0,0,,,,,,,,0,,,55,35
33840,set_tempo,60,1,0,,,,,,740010,,,,,,
33840,note_on,0,0,0,,,,,,,,0,,,55,0
33840,note_on,0,0,0,,,,,,,,0,,,58,40
33892,set_tempo,52,1,0,,,,,,744509,,,,,,
33900,note_on,8,0,0,,,,,,,,0,,,58,0
33900,note_on,0,0,0,,,,,,,,0,,,55,35
33960,set_tempo,60,1,0,,,,,,748970,,,,,,
33960,note_on,0,0,0,,,,,,,,0,,,55,0
33960,note_on,0,0,0,,,,,,,,0,,,58,44
33984,set_tempo,24,1,0,,,,,,751597,,,,,,
34000,set_tempo,16,1,0,,,,,,756525,,,,,,
34012,set_tempo,12,1,0,,,,,,766675,,,,,,
34020,note_on,8,0,0,,,,,,,,0,,,58,0
34020,note_on,0,0,0,,,,,,,,0,,,55,40
34024,set_tempo,4,1,0,,,,,,777001,,,,,,
34040,set_tempo,16,1,0,,,,,,782269,,,,,,
34052,set_tempo,12,1,0,,,,,,793021,,,,,,
34064,set_tempo,12,1,0,,,,,,804182,,,,,,
34080,set_tempo,16,1,0,,,,,,772599,,,,,,
34080,note_on,0,0,0,,,,,,,,0,,,55,0
34080,note_on,0,0,0,,,,,,,,0,,,62,0
34080,note_on,0,0,0,,,,,,,,0,,,62,54
34080,note_on,0,0,0,,,,,,,,0,,,56,47
34094,control_change,14,0,0,,,,,,,,0,64,0,,
34120,set_tempo,26,1,0,,,,,,753580,,,,,,
34133,control_change,13,0,0,,,,,,,,0,64,127,,
34140,note_on,7,0,0,,,,,,,,0,,,53,33
34160,note_on,20,0,0,,,,,,,,0,,,56,0
34172,set_tempo,12,1,0,,,,,,748970,,,,,,
34200,note_on,28,0,0,,,,,,,,0,,,53,0
34200,note_on,0,0,0,,,,,,,,0,,,56,43
34224,set_tempo,24,1,0,,,,,,744509,,,,,,
34260,note_on,36,0,0,,,,,,,,0,,,56,0
34260,note_on,0,0,0,,,,,,,,0,,,53,34
34264,set_tempo,4,1,0,,,,,,740010,,,,,,
34310,set_tempo,46,1,0,,,,,,736196,,,,,,
34320,note_on,10,0,0,,,,,,,,0,,,53,0
34320,note_on,0,0,0,,,,,,,,0,,,56,42
34322,set_tempo,2,1,0,,,,,,740741,,,,,,
34334,set_tempo,12,1,0,,,,,,750000,,,,,,
34350,set_tempo,16,1,0,,,,,,759494,,,,,,
34362,set_tempo,12,1,0,,,,,,769231,,,,,,
34374,set_tempo,12,1,0,,,,,,779221,,,,,,
34380,note_on,6,0,0,,,,,,,,0,,,56,0
34380,note_on,0,0,0,,,,,,,,0,,,53,33
34390,set_tempo,10,1,0,,,,,,784314,,,,,,
34402,set_tempo,12,1,0,,,,,,794702,,,,,,
34414,set_tempo,12,1,0,,,,,,805369,,,,,,
34430,set_tempo,16,1,0,,,,,,816327,,,,,,
34440,note_on,10,0,0,,,,,,,,0,,,53,0
34440,note_on,0,0,0,,,,,,,,0,,,56,42
34442,set_tempo,2,1,0,,,,,,827586,,,,,,
34454,set_tempo,12,1,0,,,,,,839161,,,,,,
34500,set_tempo,46,1,0,,,,,,1279863,,,,,,
34500,note_on,0,0,0,,,,,,,,0,,,56,0
34500,note_on,0,0,0,,,,,,,,0,,,53,34
34520,note_on,20,0,0,,,,,,,,0,,,53,0
34520,note_on,0,0,0,,,,,,,,0,,,51,32
34540,note_on,20,0,0,,,,,,,,0,,,55,44
34560,set_tempo,20,1,0,,,,,,772599,,,,,,
34560,note_on,0,0,0,,,,,,,,0,,,62,0
34560,note_on,0,0,0,,,,,,,,0,,,60,50
34578,control_change,18,0,0,,,,,,,,0,64,0,,
34600,set_tempo,22,1,0,,,,,,782371,,,,,,
34620,note_on,20,0,0,,,,,,,,0,,,55,0
34620,note_on,0,0,0,,,,,,,,0,,,51,0
34620,control_change,0,0,0,,,,,,,,0,64,127,,
34620,note_on,0,0,0,,,,,,,,0,,,51,32
34640,set_tempo,20,1,0,,,,,,777403,,,,,,
34680,note_on,40,0,0,,,,,,,,0,,,51,0
34680,note_on,0,0,0,,,,,,,,0,,,55,40
34692,set_tempo,12,1,0,,,,,,772599,,,,,,
34732,set_tempo,40,1,0,,,,,,767754,,,,,,
34740,note_on,8,0,0,,,,,,,,0,,,55,0
34740,note_on,0,0,0,,,,,,,,0,,,51,32
34772,set_tempo,32,1,0,,,,,,762970,,,,,,
34800,note_on,28,0,0,,,,,,,,0,,,51,0
34800,note_on,0,0,0,,,,,,,,0,,,55,42
34824,set_tempo,24,1,0,,,,,,758246,,,,,,
34860,note_on,36,0,0,,,,,,,,0,,,55,0
34860,note_on,0,0,0,,,,,,,,0,,,51,33
34864,set_tempo,4,1,0,,,,,,753580,,,,,,
34904,set_tempo,40,1,0,,,,,,748970,,,,,,
34920,note_on,16,0,0,,,,,,,,0,,,51,0
34920,note_on,0,0,0,,,,,,,,0,,,55,43
34960,set_tempo,40,1,0,,,,,,744509,,,,,,
34980,note_on,20,0,0,,,,,,,,0,,,55,0
34980,note_on,0,0,0,,,,,,,,0,,,51,33
35000,set_tempo,20,1,0,,,,,,740010,,,,,,
35040,set_tempo,40,1,0,,,,,,735565,,,,,,
35040,note_on,0,0,0,,,,,,,,0,,,51,0
35040,note_on,0,0,0,,,,,,,,0,,,55,44
35100,note_on,60,0,0,,,,,,,,0,,,55,0
35100,note_on,0,0,0,,,,,,,,0,,,51,35
35160,note_on,60,0,0,,,,,,,,0,,,51,0
35160,note_on,0,0,0,,,,,,,,0,,,55,45
35220,note_on,60,0,0,,,,,,,,0,,,55,0
35220,note_on,0,0,0,,,,,,,,0,,,51,36
35280,note_on,60,0,0,,,,,,,,0,,,51,0
35280,note_on,0,0,0,,,,,,,,0,,,55,45
35340,note_on,60,0,0,,,,,,,,0,,,55,0
35340,note_on,0,0,0,,,,,,,,0,,,51,36
35400,note_on,60,0,0,,,,,,,,0,,,51,0
35400,note_on,0,0,0,,,,,,,,0,,,55,46
35460,note_on,60,0,0,,,,,,,,0,,,55,0
35460,note_on,0,0,0,,,,,,,,0,,,51,37
35504,set_tempo,44,1,0,,,,,,740010,,,,,,
35520,note_on,16,0,0,,,,,,,,0,,,51,0
35520,note_on,0,0,0,,,,,,,,0,,,55,48
35580,note_on,60,0,0,,,,,,,,0,,,55,0
35580,note_on,0,0,0,,,,,,,,0,,,51,38
35624,set_tempo,44,1,0,,,,,,744509,,,,,,
35640,note_on,16,0,0,,,,,,,,0,,,51,0
35640,note_on,0,0,0,,,,,,,,0,,,55,48
35700,note_on,60,0,0,,,,,,,,0,,,55,0
35700,note_on,0,0,0,,,,,,,,0,,,51,39
35744,set_tempo,44,1,0,,,,,,748970,,,,,,
35760,note_on,16,0,0,,,,,,,,0,,,51,0
35760,note_on,0,0,0,,,,,,,,0,,,55,50
35820,note_on,60,0,0,,,,,,,,0,,,55,0
35820,note_on,0,0,0,,,,,,,,0,,,51,40
35864,set_tempo,44,1,0,,,,,,753580,,,,,,
35880,note_on,16,0,0,,,,,,,,0,,,51,0
35880,note_on,0,0,0,,,,,,,,0,,,55,51
35924,set_tempo,44,1,0,,,,,,762970,,,,,,
35940,note_on,16,0,0,,,,,,,,0,,,55,0
35940,note_on,0,0,0,,,,,,,,0,,,51,41
35952,set_tempo,12,1,0,,,,,,767754,,,,,,
35980,set_tempo,28,1,0,,,,,,777001,,,,,,
36000,note_on,20,0,0,,,,,,,,0,,,51,0
36000,note_on,0,0,0,,,,,,,,0,,,60,0
36000,note_on,0,0,0,,,,,,,,0,,,61,72
36000,note_on,0,0,0,,,,,,,,0,,,55,57
36013,control_change,13,0,0,,,,,,,,0,64,0,,
36020,set_tempo,7,1,0,,,,,,771803,,,,,,
36053,control_change,33,0,0,,,,,,,,0,64,127,,
36060,set_tempo,7,1,0,,,,,,766675,,,,,,
36060,note_on,0,0,0,,,,,,,,0,,,55,0
36060,note_on,0,0,0,,,,,,,,0,,,52,39
36080,set_tempo,20,1,0,,,,,,761518,,,,,,
36120,set_tempo,40,1,0,,,,,,756525,,,,,,
36120,note_on,0,0,0,,,,,,,,0,,,52,0
36120,note_on,0,0,0,,,,,,,,0,,,55,51
36160,set_tempo,40,1,0,,,,,,751597,,,,,,
36180,set_tempo,20,1,0,,,,,,746733,,,,,,
36180,note_on,0,0,0,,,,,,,,0,,,55,0
36180,note_on,0,0,0,,,,,,,,0,,,52,36
36240,note_on,60,0,0,,,,,,,,0,,,52,0
36240,note_on,0,0,0,,,,,,,,0,,,55,44
36300,note_on,60,0,0,,,,,,,,0,,,55,0
36300,note_on,0,0,0,,,,,,,,0,,,52,48
36360,note_on,60,0,0,,,,,,,,0,,,52,0
36360,note_on,0,0,0,,,,,,,,0,,,55,36
36373,set_tempo,13,1,0,,,,,,751597,,,,,,
36420,note_on,47,0,0,,,,,,,,0,,,55,0
36420,note_on,0,0,0,,,,,,,,0,,,52,43
36426,set_tempo,6,1,0,,,,,,756525,,,,,,
36476,set_tempo,50,1,0,,,,,,761518,,,,,,
36480,set_tempo,4,1,0,,,,,,753580,,,,,,
36480,note_on,0,0,0,,,,,,,,0,,,52,0
36480,note_on,0,0,0,,,,,,,,0,,,61,0
36480,note_on,0,0,0,,,,,,,,0,,,60,67
36480,note_on,0,0,0,,,,,,,,0,,,55,52
36490,control_change,10,0,0,,,,,,,,0,64,0,,
36526,control_change,36,0,0,,,,,,,,0,64,127,,
36532,set_tempo,6,1,0,,,,,,748970,,,,,,
36540,note_on,8,0,0,,,,,,,,0,,,52,36
36560,note_on,20,0,0,,,,,,,,0,,,55,0
36572,set_tempo,12,1,0,,,,,,744509,,,,,,
36600,note_on,28,0,0,,,,,,,,0,,,52,0
36600,note_on,0,0,0,,,,,,,,0,,,55,45
36612,set_tempo,12,1,0,,,,,,740010,,,,,,
36652,set_tempo,40,1,0,,,,,,735565,,,,,,
36660,note_on,8,0,0,,,,,,,,0,,,55,0
36660,note_on,0,0,0,,,,,,,,0,,,52,36
36720,set_tempo,60,1,0,,,,,,740010,,,,,,
36720,note_on,0,0,0,,,,,,,,0,,,52,0
36720,note_on,0,0,0,,,,,,,,0,,,55,44
36772,set_tempo,52,1,0,,,,,,744509,,,,,,
36780,note_on,8,0,0,,,,,,,,0,,,55,0
36780,note_on,0,0,0,,,,,,,,0,,,52,38
36840,set_tempo,60,1,0,,,,,,748970,,,,,,
36840,note_on,0,0,0,,,,,,,,0,,,52,0
36840,note_on,0,0,0,,,,,,,,0,,,55,45
36892,set_tempo,52,1,0,,,,,,753580,,,,,,
36900,set_tempo,8,1,0,,,,,,772599,,,,,,
36900,note_on,0,0,0,,,,,,,,0,,,55,0
36900,note_on,0,0,0,,,,,,,,0,,,52,41
36924,set_tempo,24,1,0,,,,,,777403,,,,,,
36952,set_tempo,28,1,0,,,,,,782371,,,,,,
36960,set_tempo,8,1,0,,,,,,772599,,,,,,
36960,note_on,0,0,0,,,,,,,,0,,,52,0
36960,note_on,0,0,0,,,,,,,,0,,,60,0
36960,note_on,0,0,0,,,,,,,,0,,,58,61
36960,note_on,0,0,0,,,,,,,,0,,,55,52
36974,control_change,14,0,0,,,,,,,,0,64,0,,
37000,set_tempo,26,1,0,,,,,,753580,,,,,,
37013,control_change,13,0,0,,,,,,,,0,64,127,,
37020,note_on,7,0,0,,,,,,,,0,,,55,0
37020,note_on,0,0,0,,,,,,,,0,,,52,34
37052,set_tempo,32,1,0,,,,,,748970,,,,,,
37080,note_on,28,0,0,,,,,,,,0,,,52,0
37080,note_on,0,0,0,,,,,,,,0,,,55,44
37104,set_tempo,24,1,0,,,,,,744509,,,,,,
37140,note_on,36,0,0,,,,,,,,0,,,55,0
37140,note_on,0,0,0,,,,,,,,0,,,52,35
37144,set_tempo,4,1,0,,,,,,740010,,,,,,
37200,set_tempo,56,1,0,,,,,,744509,,,,,,
37200,note_on,0,0,0,,,,,,,,0,,,52,0
37200,note_on,0,0,0,,,,,,,,0,,,55,42
37240,set_tempo,40,1,0,,,,,,748970,,,,,,
37260,note_on,20,0,0,,,,,,,,0,,,55,0
37260,note_on,0,0,0,,,,,,,,0,,,52,33
37292,set_tempo,32,1,0,,,,,,753580,,,,,,
37320,note_on,28,0,0,,,,,,,,0,,,52,0
37320,note_on,0,0,0,,,,,,,,0,,,55,42
37332,set_tempo,12,1,0,,,,,,758246,,,,,,
37372,set_tempo,40,1,0,,,,,,762970,,,,,,
37373,set_tempo,1,1,0,,,,,,756525,,,,,,
37380,note_on,7,0,0,,,,,,,,0,,,55,0
37380,note_on,0,0,0,,,,,,,,0,,,52,33
37436,set_tempo,56,1,0,,,,,,761518,,,,,,
37440,note_on,4,0,0,,,,,,,,0,,,52,0
37440,note_on,0,0,0,,,,,,,,0,,,58,0
37440,note_on,0,0,0,,,,,,,,0,,,60,61
37440,note_on,0,0,0,,,,,,,,0,,,57,46
37449,control_change,9,0,0,,,,,,,,0,64,0,,
37460,set_tempo,11,1,0,,,,,,761518,,,,,,
37474,control_change,14,0,0,,,,,,,,0,64,127,,
37500,note_on,26,0,0,,,,,,,,0,,,57,0
37500,note_on,0,0,0,,,,,,,,0,,,53,37
37560,note_on,60,0,0,,,,,,,,0,,,53,0
37560,note_on,0,0,0,,,,,,,,0,,,57,46
37580,set_tempo,20,1,0,,,,,,756525,,,,,,
37620,note_on,40,0,0,,,,,,,,0,,,57,0
37620,note_on,0,0,0,,,,,,,,0,,,53,36
37680,note_on,60,0,0,,,,,,,,0,,,53,0
37680,note_on,0,0,0,,,,,,,,0,,,57,45
37700,set_tempo,20,1,0,,,,,,751597,,,,,,
37740,note_on,40,0,0,,,,,,,,0,,,57,0
37740,note_on,0,0,0,,,,,,,,0,,,53,34
37800,note_on,60,0,0,,,,,,,,0,,,53,0
37800,note_on,0,0,0,,,,,,,,0,,,57,45
37820,set_tempo,20,1,0,,,,,,746733,,,,,,
37860,note_on,40,0,0,,,,,,,,0,,,57,0
37860,note_on,0,0,0,,,,,,,,0,,,53,36
37880,note_on,20,0,0,,,,,,,,0,,,53,0
37880,note_on,0,0,0,,,,,,,,0,,,51,36
37900,note_on,20,0,0,,,,,,,,0,,,57,45
37920,set_tempo,20,1,0,,,,,,741931,,,,,,
37920,note_on,0,0,0,,,,,,,,0,,,60,0
37920,note_on,0,0,0,,,,,,,,0,,,65,64
37980,note_on,60,0,0,,,,,,,,0,,,57,0
37980,note_on,0,0,0,,,,,,,,0,,,51,0
37980,note_on,0,0,0,,,,,,,,0,,,51,38
38040,note_on,60,0,0,,,,,,,,0,,,51,0
38040,note_on,0,0,0,,,,,,,,0,,,57,47
38100,note_on,60,0,0,,,,,,,,0,,,57,0
38100,note_on,0,0,0,,,,,,,,0,,,51,44
38160,note_on,60,0,0,,,,,,,,0,,,51,0
38160,note_on,0,0,0,,,,,,,,0,,,57,48
38220,note_on,60,0,0,,,,,,,,0,,,57,0
38220,note_on,0,0,0,,,,,,,,0,,,51,38
38280,note_on,60,0,0,,,,,,,,0,,,51,0
38280,note_on,0,0,0,,,,,,,,0,,,57,45
38340,set_tempo,60,1,0,,,,,,1161665,,,,,,
38340,note_on,0,0,0,,,,,,,,0,,,57,0
38340,note_on,0,0,0,,,,,,,,0,,,51,37
38360,note_on,20,0,0,,,,,,,,0,,,51,0
38360,note_on,0,0,0,,,,,,,,0,,,50,40
38380,note_on,20,0,0,,,,,,,,0,,,58,46
38400,set_tempo,20,1,0,,,,,,746733,,,,,,
38400,note_on,0,0,0,,,,,,,,0,,,65,0
38400,note_on,0,0,0,,,,,,,,0,,,65,63
38411,control_change,11,0,0,,,,,,,,0,64,0,,
38460,note_on,49,0,0,,,,,,,,0,,,58,0
38460,note_on,0,0,0,,,,,,,,0,,,50,0
38460,note_on,0,0,0,,,,,,,,0,,,50,38
38471,control_change,11,0,0,,,,,,,,0,64,127,,
38520,note_on,49,0,0,,,,,,,,0,,,50,0
38520,note_on,0,0,0,,,,,,,,0,,,58,46
38580,note_on,60,0,0,,,,,,,,0,,,58,0
38580,note_on,0,0,0,,,,,,,,0,,,50,38
38640,note_on,60,0,0,,,,,,,,0,,,50,0
38640,note_on,0,0,0,,,,,,,,0,,,58,47
38700,note_on,60,0,0,,,,,,,,0,,,58,0
38700,note_on,0,0,0,,,,,,,,0,,,50,39
38760,note_on,60,0,0,,,,,,,,0,,,50,0
38760,note_on,0,0,0,,,,,,,,0,,,58,47
38820,set_tempo,60,1,0,,,,,,1055038,,,,,,
38820,note_on,0,0,0,,,,,,,,0,,,58,0
38820,note_on,0,0,0,,,,,,,,0,,,50,39
38840,note_on,20,0,0,,,,,,,,0,,,50,0
38840,note_on,0,0,0,,,,,,,,0,,,54,42
38860,note_on,20,0,0,,,,,,,,0,,,57,47
38880,set_tempo,20,1,0,,,,,,746733,,,,,,
38880,note_on,0,0,0,,,,,,,,0,,,65,0
38880,note_on,0,0,0,,,,,,,,0,,,60,66
38891,control_change,11,0,0,,,,,,,,0,64,0,,
38900,set_tempo,9,1,0,,,,,,746733,,,,,,
38940,note_on,40,0,0,,,,,,,,0,,,57,0
38940,note_on,0,0,0,,,,,,,,0,,,54,0
38940,control_change,0,0,0,,,,,,,,0,64,127,,
38940,note_on,0,0,0,,,,,,,,0,,,54,39
38960,set_tempo,20,1,0,,,,,,741931,,,,,,
39000,set_tempo,40,1,0,,,,,,737101,,,,,,
39000,note_on,0,0,0,,,,,,,,0,,,54,0
39000,note_on,0,0,0,,,,,,,,0,,,57,48
39060,set_tempo,60,1,0,,,,,,732422,,,,,,
39060,note_on,0,0,0,,,,,,,,0,,,57,0
39060,note_on,0,0,0,,,,,,,,0,,,54,39
39100,set_tempo,40,1,0,,,,,,727802,,,,,,
39120,note_on,20,0,0,,,,,,,,0,,,54,0
39120,note_on,0,0,0,,,,,,,,0,,,57,48
39140,set_tempo,20,1,0,,,,,,732422,,,,,,
39180,set_tempo,40,1,0,,,,,,737101,,,,,,
39180,note_on,0,0,0,,,,,,,,0,,,57,0
39180,note_on,0,0,0,,,,,,,,0,,,54,40
39220,set_tempo,40,1,0,,,,,,741931,,,,,,
39240,note_on,20,0,0,,,,,,,,0,,,54,0
39240,note_on,0,0,0,,,,,,,,0,,,57,49
39260,set_tempo,20,1,0,,,,,,746733,,,,,,
39300,set_tempo,40,1,0,,,,,,1064774,,,,,,
39300,note_on,0,0,0,,,,,,,,0,,,57,0
39300,note_on,0,0,0,,,,,,,,0,,,54,40
39320,note_on,20,0,0,,,,,,,,0,,,54,0
39320,note_on,0,0,0,,,,,,,,0,,,53,43
39340,note_on,20,0,0,,,,,,,,0,,,58,49
39360,set_tempo,20,1,0,,,,,,756525,,,,,,
39360,note_on,0,0,0,,,,,,,,0,,,60,0
39360,note_on,0,0,0,,,,,,,,0,,,62,67
39372,control_change,12,0,0,,,,,,,,0,64,0,,
39400,set_tempo,28,1,0,,,,,,751597,,,,,,
39420,note_on,20,0,0,,,,,,,,0,,,58,0
39420,note_on,0,0,0,,,,,,,,0,,,53,0
39420,note_on,0,0,0,,,,,,,,0,,,53,40
39429,control_change,9,0,0,,,,,,,,0,64,127,,
39460,set_tempo,31,1,0,,,,,,746733,,,,,,
39480,note_on,20,0,0,,,,,,,,0,,,53,0
39480,note_on,0,0,0,,,,,,,,0,,,58,50
39520,set_tempo,40,1,0,,,,,,741931,,,,,,
39540,note_on,20,0,0,,,,,,,,0,,,58,0
39540,note_on,0,0,0,,,,,,,,0,,,53,40
39580,set_tempo,40,1,0,,,,,,737101,,,,,,
39600,note_on,20,0,0,,,,,,,,0,,,53,0
39600,note_on,0,0,0,,,,,,,,0,,,58,50
39620,set_tempo,20,1,0,,,,,,741931,,,,,,
39640,set_tempo,20,1,0,,,,,,746733,,,,,,
39660,set_tempo,20,1,0,,,,,,751597,,,,,,
39660,note_on,0,0,0,,,,,,,,0,,,58,0
39660,note_on,0,0,0,,,,,,,,0,,,53,41
39680,set_tempo,20,1,0,,,,,,756525,,,,,,
39700,set_tempo,20,1,0,,,,,,761518,,,,,,
39720,note_on,20,0,0,,,,,,,,0,,,53,0
39720,note_on,0,0,0,,,,,,,,0,,,58,51
39780,set_tempo,60,1,0,,,,,,1150086,,,,,,
39780,note_on,0,0,0,,,,,,,,0,,,58,0
39780,note_on,0,0,0,,,,,,,,0,,,53,42
39800,note_on,20,0,0,,,,,,,,0,,,53,0
39800,note_on,0,0,0,,,,,,,,0,,,51,44
39820,note_on,20,0,0,,,,,,,,0,,,57,51
39840,set_tempo,20,1,0,,,,,,727802,,,,,,
39840,note_on,0,0,0,,,,,,,,0,,,62,0
39840,note_on,0,0,0,,,,,,,,0,,,65,67
39900,note_on,60,0,0,,,,,,,,0,,,57,0
39900,note_on,0,0,0,,,,,,,,0,,,51,0
39900,note_on,0,0,0,,,,,,,,0,,,51,44
39960,note_on,60,0,0,,,,,,,,0,,,51,0
39960,note_on,0,0,0,,,,,,,,0,,,57,52
40020,note_on,60,0,0,,,,,,,,0,,,57,0
40020,note_on,0,0,0,,,,,,,,0,,,51,43
40080,note_on,60,0,0,,,,,,,,0,,,51,0
40080,note_on,0,0,0,,,,,,,,0,,,57,52
40140,note_on,60,0,0,,,,,,,,0,,,57,0
40140,note_on,0,0,0,,,,,,,,0,,,51,43
40200,note_on,60,0,0,,,,,,,,0,,,51,0
40200,note_on,0,0,0,,,,,,,,0,,,57,53
40260,set_tempo,60,1,0,,,,,,1017639,,,,,,
40260,note_on,0,0,0,,,,,,,,0,,,57,0
40260,note_on,0,0,0,,,,,,,,0,,,51,43
40280,note_on,20,0,0,,,,,,,,0,,,51,0
40280,note_on,0,0,0,,,,,,,,0,,,50,46
40300,note_on,20,0,0,,,,,,,,0,,,58,53
40320,set_tempo,20,1,0,,,,,,723240,,,,,,
40320,note_on,0,0,0,,,,,,,,0,,,65,0
40320,note_on,0,0,0,,,,,,,,0,,,65,69
40339,control_change,19,0,0,,,,,,,,0,64,0,,
40356,control_change,17,0,0,,,,,,,,0,64,127,,
40380,note_on,24,0,0,,,,,,,,0,,,58,0
40380,note_on,0,0,0,,,,,,,,0,,,50,0
40380,note_on,0,0,0,,,,,,,,0,,,50,44
40420,set_tempo,40,1,0,,,,,,718735,,,,,,
40440,note_on,20,0,0,,,,,,,,0,,,50,0
40440,note_on,0,0,0,,,,,,,,0,,,58,52
40500,note_on,60,0,0,,,,,,,,0,,,58,0
40500,note_on,0,0,0,,,,,,,,0,,,50,43
40520,set_tempo,20,1,0,,,,,,714286,,,,,,
40560,note_on,40,0,0,,,,,,,,0,,,50,0
40560,note_on,0,0,0,,,,,,,,0,,,58,52
40620,set_tempo,60,1,0,,,,,,709807,,,,,,
40620,note_on,0,0,0,,,,,,,,0,,,58,0
40620,note_on,0,0,0,,,,,,,,0,,,50,44
40680,note_on,60,0,0,,,,,,,,0,,,50,0
40680,note_on,0,0,0,,,,,,,,0,,,58,52
40720,set_tempo,40,1,0,,,,,,705467,,,,,,
40740,note_on,20,0,0,,,,,,,,0,,,58,0
40740,note_on,0,0,0,,,,,,,,0,,,50,44
40800,set_tempo,60,1,0,,,,,,701180,,,,,,
40800,note_on,0,0,0,,,,,,,,0,,,50,0
40800,note_on,0,0,0,,,,,,,,0,,,65,0
40800,note_on,0,0,0,,,,,,,,0,,,66,74
40800,note_on,0,0,0,,,,,,,,0,,,58,52
40810,control_change,10,0,0,,,,,,,,0,64,0,,
40834,control_change,24,0,0,,,,,,,,0,64,127,,
40860,note_on,26,0,0,,,,,,,,0,,,58,0
40860,note_on,0,0,0,,,,,,,,0,,,50,44
40900,set_tempo,40,1,0,,,,,,696945,,,,,,
40920,note_on,20,0,0,,,,,,,,0,,,50,0
40920,note_on,0,0,0,,,,,,,,0,,,58,52
40960,set_tempo,40,1,0,,,,,,701180,,,,,,
40980,note_on,20,0,0,,,,,,,,0,,,58,0
40980,note_on,0,0,0,,,,,,,,0,,,50,44
41000,set_tempo,20,1,0,,,,,,705467,,,,,,
41040,set_tempo,40,1,0,,,,,,709807,,,,,,
41040,note_on,0,0,0,,,,,,,,0,,,50,0
41040,note_on,0,0,0,,,,,,,,0,,,58,52
41080,set_tempo,40,1,0,,,,,,714286,,,,,,
41100,note_on,20,0,0,,,,,,,,0,,,58,0
41100,note_on,0,0,0,,,,,,,,0,,,50,45
41120,set_tempo,20,1,0,,,,,,718735,,,,,,
41160,note_on,40,0,0,,,,,,,,0,,,50,0
41160,note_on,0,0,0,,,,,,,,0,,,58,52
41220,set_tempo,60,1,0,,,,,,895522,,,,,,
41220,note_on,0,0,0,,,,,,,,0,,,58,0
41220,note_on,0,0,0,,,,,,,,0,,,50,45
41240,note_on,20,0,0,,,,,,,,0,,,50,0
41240,note_on,0,0,0,,,,,,,,0,,,51,48
41260,note_on,20,0,0,,,,,,,,0,,,58,53
41280,set_tempo,20,1,0,,,,,,737101,,,,,,
41280,note_on,0,0,0,,,,,,,,0,,,66,0
41280,note_on,0,0,0,,,,,,,,0,,,67,72
41290,control_change,10,0,0,,,,,,,,0,64,0,,
41308,control_change,18,0,0,,,,,,,,0,64,127,,
41340,note_on,32,0,0,,,,,,,,0,,,58,0
41340,note_on,0,0,0,,,,,,,,0,,,51,0
41340,note_on,0,0,0,,,,,,,,0,,,51,45
41380,set_tempo,40,1,0,,,,,,732422,,,,,,
41400,note_on,20,0,0,,,,,,,,0,,,51,0
41400,note_on,0,0,0,,,,,,,,0,,,58,53
41460,note_on,60,0,0,,,,,,,,0,,,58,0
41460,note_on,0,0,0,,,,,,,,0,,,51,45
41480,set_tempo,20,1,0,,,,,,727802,,,,,,
41520,note_on,40,0,0,,,,,,,,0,,,51,0
41520,note_on,0,0,0,,,,,,,,0,,,58,52
41580,set_tempo,60,1,0,,,,,,723240,,,,,,
41580,note_on,0,0,0,,,,,,,,0,,,58,0
41580,note_on,0,0,0,,,,,,,,0,,,51,45
41640,note_on,60,0,0,,,,,,,,0,,,51,0
41640,note_on,0,0,0,,,,,,,,0,,,58,54
41660,set_tempo,20,1,0,,,,,,718735,,,,,,
41700,note_on,40,0,0,,,,,,,,0,,,58,0
41700,note_on,0,0,0,,,,,,,,0,,,51,46
41760,note_on,60,0,0,,,,,,,,0,,,51,0
41760,note_on,0,0,0,,,,,,,,0,,,67,0
41760,note_on,0,0,0,,,,,,,,0,,,67,75
41760,note_on,0,0,0,,,,,,,,0,,,61,54
41760,note_on,0,0,0,,,,,,,,0,,,58,54
41766,control_change,6,0,0,,,,,,,,0,64,0,,
41792,control_change,26,0,0,,,,,,,,0,64,127,,
41820,note_on,28,0,0,,,,,,,,0,,,58,0
41820,note_on,0,0,0,,,,,,,,0,,,61,0
41820,note_on,0,0,0,,,,,,,,0,,,52,47
41860,set_tempo,40,1,0,,,,,,723240,,,,,,
41880,note_on,20,0,0,,,,,,,,0,,,52,0
41880,note_on,0,0,0,,,,,,,,0,,,61,55
41880,note_on,0,0,0,,,,,,,,0,,,58,55
41940,note_on,60,0,0,,,,,,,,0,,,58,0
41940,note_on,0,0,0,,,,,,,,0,,,61,0
41940,note_on,0,0,0,,,,,,,,0,,,52,47
42000,note_on,60,0,0,,,,,,,,0,,,52,0
42000,note_on,0,0,0,,,,,,,,0,,,61,56
42000,note_on,0,0,0,,,,,,,,0,,,58,56
42060,set_tempo,60,1,0,,,,,,727802,,,,,,
42060,note_on,0,0,0,,,,,,,,0,,,58,0
42060,note_on,0,0,0,,,,,,,,0,,,61,0
42060,note_on,0,0,0,,,,,,,,0,,,52,47
42120,note_on,60,0,0,,,,,,,,0,,,52,0
42120,note_on,0,0,0,,,,,,,,0,,,61,57
42120,note_on,0,0,0,,,,,,,,0,,,58,57
42180,set_tempo,60,1,0,,,,,,912686,,,,,,
42180,note_on,0,0,0,,,,,,,,0,,,58,0
42180,note_on,0,0,0,,,,,,,,0,,,61,0
42180,note_on,0,0,0,,,,,,,,0,,,52,48
42220,set_tempo,40,1,0,,,,,,737101,,,,,,
42240,note_on,20,0,0,,,,,,,,0,,,52,0
42240,note_on,0,0,0,,,,,,,,0,,,67,0
42240,note_on,0,0,0,,,,,,,,0,,,70,75
42240,note_on,0,0,0,,,,,,,,0,,,61,59
42240,note_on,0,0,0,,,,,,,,0,,,64,59
42253,control_change,13,0,0,,,,,,,,0,64,0,,
42273,control_change,20,0,0,,,,,,,,0,64,127,,
42300,note_on,27,0,0,,,,,,,,0,,,64,0
42300,note_on,0,0,0,,,,,,,,0,,,61,0
42300,note_on,0,0,0,,,,,,,,0,,,55,50
42360,note_on,60,0,0,,,,,,,,0,,,55,0
42360,note_on,0,0,0,,,,,,,,0,,,61,59
42360,note_on,0,0,0,,,,,,,,0,,,64,59
42420,note_on,60,0,0,,,,,,,,0,,,64,0
42420,note_on,0,0,0,,,,,,,,0,,,61,0
42420,note_on,0,0,0,,,,,,,,0,,,55,50
42480,set_tempo,60,1,0,,,,,,732422,,,,,,
42480,note_on,0,0,0,,,,,,,,0,,,55,0
42480,note_on,0,0,0,,,,,,,,0,,,61,60
42480,note_on,0,0,0,,,,,,,,0,,,64,60
42500,set_tempo,20,1,0,,,,,,727273,,,,,,
42540,note_on,40,0,0,,,,,,,,0,,,64,0
42540,note_on,0,0,0,,,,,,,,0,,,61,0
42540,note_on,0,0,0,,,,,,,,0,,,55,51
42560,set_tempo,20,1,0,,,,,,722892,,,,,,
42600,set_tempo,40,1,0,,,,,,718563,,,,,,
42600,note_on,0,0,0,,,,,,,,0,,,55,0
42600,note_on,0,0,0,,,,,,,,0,,,61,60
42600,note_on,0,0,0,,,,,,,,0,,,64,60
42640,set_tempo,40,1,0,,,,,,714286,,,,,,
42660,note_on,20,0,0,,,,,,,,0,,,64,0
42660,note_on,0,0,0,,,,,,,,0,,,61,0
42660,note_on,0,0,0,,,,,,,,0,,,55,51
42680,set_tempo,20,1,0,,,,,,710059,,,,,,
42720,set_tempo,40,1,0,,,,,,705882,,,,,,
42720,note_on,0,0,0,,,,,,,,0,,,55,0
42720,note_on,0,0,0,,,,,,,,0,,,70,0
42720,note_on,0,0,0,,,,,,,,0,,,73,78
42720,note_on,0,0,0,,,,,,,,0,,,64,60
42720,note_on,0,0,0,,,,,,,,0,,,67,60
42732,control_change,12,0,0,,,,,,,,0,64,0,,
42740,set_tempo,8,1,0,,,,,,727802,,,,,,
42764,control_change,24,0,0,,,,,,,,0,64,127,,
42780,note_on,16,0,0,,,,,,,,0,,,67,0
42780,note_on,0,0,0,,,,,,,,0,,,64,0
42780,note_on,0,0,0,,,,,,,,0,,,58,52
42820,set_tempo,40,1,0,,,,,,732422,,,,,,
42840,note_on,20,0,0,,,,,,,,0,,,58,0
42840,note_on,0,0,0,,,,,,,,0,,,64,61
42840,note_on,0,0,0,,,,,,,,0,,,67,61
42880,set_tempo,40,1,0,,,,,,737101,,,,,,
42900,note_on,20,0,0,,,,,,,,0,,,67,0
42900,note_on,0,0,0,,,,,,,,0,,,64,0
42900,note_on,0,0,0,,,,,,,,0,,,58,51
42940,set_tempo,40,1,0,,,,,,741931,,,,,,
42960,note_on,20,0,0,,,,,,,,0,,,58,0
42960,note_on,0,0,0,,,,,,,,0,,,64,62
42960,note_on,0,0,0,,,,,,,,0,,,67,62
43020,set_tempo,60,1,0,,,,,,746733,,,,,,
43020,note_on,0,0,0,,,,,,,,0,,,67,0
43020,note_on,0,0,0,,,,,,,,0,,,64,0
43020,note_on,0,0,0,,,,,,,,0,,,58,56
43080,set_tempo,60,1,0,,,,,,751597,,,,,,
43080,note_on,0,0,0,,,,,,,,0,,,58,0
43080,note_on,0,0,0,,,,,,,,0,,,64,64
43080,note_on,0,0,0,,,,,,,,0,,,67,64
43100,set_tempo,20,1,0,,,,,,745342,,,,,,
43120,set_tempo,20,1,0,,,,,,764331,,,,,,
43140,set_tempo,20,1,0,,,,,,784314,,,,,,
43140,note_on,0,0,0,,,,,,,,0,,,67,0
43140,note_on,0,0,0,,,,,,,,0,,,64,0
43140,note_on,0,0,0,,,,,,,,0,,,58,51
43160,set_tempo,20,1,0,,,,,,805369,,,,,,
43180,set_tempo,20,1,0,,,,,,827586,,,,,,
43200,set_tempo,20,1,0,,,,,,751597,,,,,,
43200,note_on,0,0,0,,,,,,,,0,,,58,0
43200,note_on,0,0,0,,,,,,,,0,,,73,0
43200,note_on,0,0,0,,,,,,,,0,,,74,81
43200,note_on,0,0,0,,,,,,,,0,,,65,64
43208,control_change,8,0,0,,,,,,,,0,64,0,,
43260,note_on,52,0,0,,,,,,,,0,,,65,0
43260,note_on,0,0,0,,,,,,,,0,,,58,52
43274,control_change,14,0,0,,,,,,,,0,64,127,,
43280,set_tempo,6,1,0,,,,,,746733,,,,,,
43320,note_on,40,0,0,,,,,,,,0,,,58,0
43320,note_on,0,0,0,,,,,,,,0,,,65,63
43340,set_tempo,20,1,0,,,,,,741931,,,,,,
43380,note_on,40,0,0,,,,,,,,0,,,65,0
43380,note_on,0,0,0,,,,,,,,0,,,58,52
43400,set_tempo,20,1,0,,,,,,737101,,,,,,
43440,note_on,40,0,0,,,,,,,,0,,,58,0
43440,note_on,0,0,0,,,,,,,,0,,,65,63
43460,set_tempo,20,1,0,,,,,,732422,,,,,,
43500,note_on,40,0,0,,,,,,,,0,,,65,0
43500,note_on,0,0,0,,,,,,,,0,,,58,53
43560,note_on,60,0,0,,,,,,,,0,,,58,0
43560,note_on,0,0,0,,,,,,,,0,,,65,63
43620,note_on,60,0,0,,,,,,,,0,,,65,0
43620,note_on,0,0,0,,,,,,,,0,,,58,52
43680,note_on,60,0,0,,,,,,,,0,,,58,0
43680,note_on,0,0,0,,,,,,,,0,,,74,0
43680,note_on,0,0,0,,,,,,,,0,,,70,74
43680,note_on,0,0,0,,,,,,,,0,,,62,63
43700,set_tempo,20,1,0,,,,,,737101,,,,,,
43740,note_on,40,0,0,,,,,,,,0,,,62,0
43740,note_on,0,0,0,,,,,,,,0,,,53,52
43800,note_on,60,0,0,,,,,,,,0,,,53,0
43800,note_on,0,0,0,,,,,,,,0,,,62,62
43860,note_on,60,0,0,,,,,,,,0,,,62,0
43860,note_on,0,0,0,,,,,,,,0,,,53,51
43920,note_on,60,0,0,,,,,,,,0,,,53,0
43920,note_on,0,0,0,,,,,,,,0,,,62,61
43980,note_on,60,0,0,,,,,,,,0,,,62,0
43980,note_on,0,0,0,,,,,,,,0,,,53,50
44040,note_on,60,0,0,,,,,,,,0,,,53,0
44040,note_on,0,0,0,,,,,,,,0,,,62,60
44100,note_on,60,0,0,,,,,,,,0,,,62,0
44100,note_on,0,0,0,,,,,,,,0,,,53,50
44120,set_tempo,20,1,0,,,,,,727802,,,,,,
44160,note_on,40,0,0,,,,,,,,0,,,53,0
44160,note_on,0,0,0,,,,,,,,0,,,70,0
44160,note_on,0,0,0,,,,,,,,0,,,65,70
44160,note_on,0,0,0,,,,,,,,0,,,58,56
44177,control_change,17,0,0,,,,,,,,0,64,0,,
44217,control_change,40,0,0,,,,,,,,0,64,127,,
44220,set_tempo,3,1,0,,,,,,732422,,,,,,
44220,note_on,0,0,0,,,,,,,,0,,,58,0
44220,note_on,0,0,0,,,,,,,,0,,,50,46
44280,note_on,60,0,0,,,,,,,,0,,,50,0
44280,note_on,0,0,0,,,,,,,,0,,,58,55
44300,set_tempo,20,1,0,,,,,,737101,,,,,,
44340,note_on,40,0,0,,,,,,,,0,,,58,0
44340,note_on,0,0,0,,,,,,,,0,,,50,45
44380,set_tempo,40,1,0,,,,,,741931,,,,,,
44400,note_on,20,0,0,,,,,,,,0,,,50,0
44400,note_on,0,0,0,,,,,,,,0,,,58,55
44460,note_on,60,0,0,,,,,,,,0,,,58,0
44460,note_on,0,0,0,,,,,,,,0,,,50,45
44480,set_tempo,20,1,0,,,,,,746733,,,,,,
44520,note_on,40,0,0,,,,,,,,0,,,50,0
44520,note_on,0,0,0,,,,,,,,0,,,58,54
44560,set_tempo,40,1,0,,,,,,751597,,,,,,
44580,note_on,20,0,0,,,,,,,,0,,,58,0
44580,note_on,0,0,0,,,,,,,,0,,,50,45
44620,set_tempo,40,1,0,,,,,,746733,,,,,,
44640,note_on,20,0,0,,,,,,,,0,,,50,0
44640,note_on,0,0,0,,,,,,,,0,,,59,54
44652,control_change,12,0,0,,,,,,,,0,64,0,,
44680,set_tempo,28,1,0,,,,,,741931,,,,,,
44686,control_change,6,0,0,,,,,,,,0,64,127,,
44700,note_on,14,0,0,,,,,,,,0,,,59,0
44700,note_on,0,0,0,,,,,,,,0,,,50,44
44720,set_tempo,20,1,0,,,,,,737101,,,,,,
44760,set_tempo,40,1,0,,,,,,732422,,,,,,
44760,note_on,0,0,0,,,,,,,,0,,,50,0
44760,note_on,0,0,0,,,,,,,,0,,,59,54
44800,set_tempo,40,1,0,,,,,,727802,,,,,,
44820,note_on,20,0,0,,,,,,,,0,,,59,0
44820,note_on,0,0,0,,,,,,,,0,,,50,44
44840,set_tempo,20,1,0,,,,,,723240,,,,,,
44860,set_tempo,20,1,0,,,,,,723240,,,,,,
44880,note_on,20,0,0,,,,,,,,0,,,50,0
44880,note_on,0,0,0,,,,,,,,0,,,59,53
44900,set_tempo,20,1,0,,,,,,727802,,,,,,
44920,set_tempo,20,1,0,,,,,,732422,,,,,,
44940,set_tempo,20,1,0,,,,,,737101,,,,,,
44940,note_on,0,0,0,,,,,,,,0,,,59,0
44940,note_on,0,0,0,,,,,,,,0,,,50,44
44960,set_tempo,20,1,0,,,,,,741931,,,,,,
44980,set_tempo,20,1,0,,,,,,746733,,,,,,
45000,note_on,20,0,0,,,,,,,,0,,,50,0
45000,note_on,0,0,0,,,,,,,,0,,,59,52
45060,set_tempo,60,1,0,,,,,,864678,,,,,,
45060,note_on,0,0,0,,,,,,,,0,,,59,0
45060,note_on,0,0,0,,,,,,,,0,,,50,43
45100,set_tempo,40,1,0,,,,,,756525,,,,,,
45120,note_on,20,0,0,,,,,,,,0,,,50,0
45120,note_on,0,0,0,,,,,,,,0,,,65,0
45120,note_on,0,0,0,,,,,,,,0,,,65,63
45120,note_on,0,0,0,,,,,,,,0,,,60,52
45135,control_change,15,0,0,,,,,,,,0,64,0,,
45171,control_change,36,0,0,,,,,,,,0,64,127,,
45180,note_on,9,0,0,,,,,,,,0,,,60,0
45180,note_on,0,0,0,,,,,,,,0,,,51,43
45200,set_tempo,20,1,0,,,,,,751597,,,,,,
45240,note_on,40,0,0,,,,,,,,0,,,51,0
45240,note_on,0,0,0,,,,,,,,0,,,60,51
45280,set_tempo,40,1,0,,,,,,746733,,,,,,
45300,note_on,20,0,0,,,,,,,,0,,,60,0
45300,note_on,0,0,0,,,,,,,,0,,,51,42
45360,set_tempo,60,1,0,,,,,,751597,,,,,,
45360,note_on,0,0,0,,,,,,,,0,,,51,0
45360,note_on,0,0,0,,,,,,,,0,,,60,50
45420,note_on,60,0,0,,,,,,,,0,,,60,0
45420,note_on,0,0,0,,,,,,,,0,,,51,41
45440,set_tempo,20,1,0,,,,,,756525,,,,,,
45480,note_on,40,0,0,,,,,,,,0,,,51,0
45480,note_on,0,0,0,,,,,,,,0,,,60,50
45520,set_tempo,40,1,0,,,,,,761518,,,,,,
45540,note_on,20,0,0,,,,,,,,0,,,60,0
45540,note_on,0,0,0,,,,,,,,0,,,51,41
45600,set_tempo,60,1,0,,,,,,754717,,,,,,
45600,note_on,0,0,0,,,,,,,,0,,,51,0
45600,note_on,0,0,0,,,,,,,,0,,,57,50
45660,note_on,60,0,0,,,,,,,,0,,,57,0
45660,note_on,0,0,0,,,,,,,,0,,,48,40
45680,set_tempo,20,1,0,,,,,,759494,,,,,,
45720,note_on,40,0,0,,,,,,,,0,,,48,0
45720,note_on,0,0,0,,,,,,,,0,,,57,49
45740,set_tempo,20,1,0,,,,,,764331,,,,,,
45780,note_on,40,0,0,,,,,,,,0,,,57,0
45780,note_on,0,0,0,,,,,,,,0,,,48,40
45800,set_tempo,20,1,0,,,,,,769231,,,,,,
45840,note_on,40,0,0,,,,,,,,0,,,48,0
45840,note_on,0,0,0,,,,,,,,0,,,57,48
45880,set_tempo,40,1,0,,,,,,774194,,,,,,
45900,note_on,20,0,0,,,,,,,,0,,,57,0
45900,note_on,0,0,0,,,,,,,,0,,,48,39
45940,set_tempo,40,1,0,,,,,,779221,,,,,,
45960,note_on,20,0,0,,,,,,,,0,,,48,0
45960,note_on,0,0,0,,,,,,,,0,,,57,47
46000,set_tempo,40,1,0,,,,,,784314,,,,,,
46020,note_on,20,0,0,,,,,,,,0,,,57,0
46020,note_on,0,0,0,,,,,,,,0,,,48,39
46044,set_tempo,24,1,0,,,,,,833333,,,,,,
46080,set_tempo,36,1,0,,,,,,772599,,,,,,
46080,note_on,0,0,0,,,,,,,,0,,,48,0
46080,note_on,0,0,0,,,,,,,,0,,,65,0
46080,note_on,0,0,0,,,,,,,,0,,,46,50
46080,note_on,0,0,0,,,,,,,,0,,,58,50
46080,note_on,0,0,0,,,,,,,,0,,,50,40
46090,control_change,10,0,0,,,,,,,,0,64,0,,
46120,set_tempo,30,1,0,,,,,,782371,,,,,,
46140,note_on,20,0,0,,,,,,,,0,,,50,0
46140,control_change,0,0,0,,,,,,,,0,64,127,,
46140,note_on,0,0,0,,,,,,,,0,,,53,32
46160,set_tempo,20,1,0,,,,,,777403,,,,,,
46200,note_on,40,0,0,,,,,,,,0,,,53,0
46200,note_on,0,0,0,,,,,,,,0,,,50,40
46212,set_tempo,12,1,0,,,,,,772599,,,,,,
46252,set_tempo,40,1,0,,,,,,767754,,,,,,
46260,note_on,8,0,0,,,,,,,,0,,,50,0
46260,note_on,0,0,0,,,,,,,,0,,,53,32
46292,set_tempo,32,1,0,,,,,,762970,,,,,,
46320,note_on,28,0,0,,,,,,,,0,,,53,0
46320,note_on,0,0,0,,,,,,,,0,,,50,42
46344,set_tempo,24,1,0,,,,,,758246,,,,,,
46380,note_on,36,0,0,,,,,,,,0,,,50,0
46380,note_on,0,0,0,,,,,,,,0,,,53,34
46384,set_tempo,4,1,0,,,,,,753580,,,,,,
46424,set_tempo,40,1,0,,,,,,748970,,,,,,
46440,note_on,16,0,0,,,,,,,,0,,,53,0
46440,note_on,0,0,0,,,,,,,,0,,,50,44
46480,set_tempo,40,1,0,,,,,,744509,,,,,,
46500,note_on,20,0,0,,,,,,,,0,,,50,0
46500,note_on,0,0,0,,,,,,,,0,,,53,34
46520,set_tempo,20,1,0,,,,,,740010,,,,,,
46560,set_tempo,40,1,0,,,,,,735565,,,,,,
46560,note_on,0,0,0,,,,,,,,0,,,53,0
46560,note_on,0,0,0,,,,,,,,0,,,50,44
46620,note_on,60,0,0,,,,,,,,0,,,50,0
46620,note_on,0,0,0,,,,,,,,0,,,53,32
46680,note_on,60,0,0,,,,,,,,0,,,53,0
46680,note_on,0,0,0,,,,,,,,0,,,50,43
46740,note_on,60,0,0,,,,,,,,0,,,50,0
46740,note_on,0,0,0,,,,,,,,0,,,53,35
46800,note_on,60,0,0,,,,,,,,0,,,53,0
46800,note_on,0,0,0,,,,,,,,0,,,50,45
46860,note_on,60,0,0,,,,,,,,0,,,50,0
46860,note_on,0,0,0,,,,,,,,0,,,53,35
46920,note_on,60,0,0,,,,,,,,0,,,53,0
46920,note_on,0,0,0,,,,,,,,0,,,50,46
46980,note_on,60,0,0,,,,,,,,0,,,50,0
46980,note_on,0,0,0,,,,,,,,0,,,53,35
47024,set_tempo,44,1,0,,,,,,740010,,,,,,
47040,note_on,16,0,0,,,,,,,,0,,,53,0
47040,note_on,0,0,0,,,,,,,,0,,,50,47
47100,note_on,60,0,0,,,,,,,,0,,,50,0
47100,note_on,0,0,0,,,,,,,,0,,,53,36
47144,set_tempo,44,1,0,,,,,,744509,,,,,,
47160,note_on,16,0,0,,,,,,,,0,,,53,0
47160,note_on,0,0,0,,,,,,,,0,,,50,45
47220,note_on,60,0,0,,,,,,,,0,,,50,0
47220,note_on,0,0,0,,,,,,,,0,,,53,34
47264,set_tempo,44,1,0,,,,,,748970,,,,,,
47280,note_on,16,0,0,,,,,,,,0,,,53,0
47280,note_on,0,0,0,,,,,,,,0,,,50,45
47340,note_on,60,0,0,,,,,,,,0,,,50,0
47340,note_on,0,0,0,,,,,,,,0,,,53,34
47384,set_tempo,44,1,0,,,,,,753580,,,,,,
47400,note_on,16,0,0,,,,,,,,0,,,53,0
47400,note_on,0,0,0,,,,,,,,0,,,50,45
47444,set_tempo,44,1,0,,,,,,762970,,,,,,
47460,note_on,16,0,0,,,,,,,,0,,,50,0
47460,note_on,0,0,0,,,,,,,,0,,,53,34
47472,set_tempo,12,1,0,,,,,,767754,,,,,,
47480,note_on,8,0,0,,,,,,,,0,,,58,0
47480,note_on,0,0,0,,,,,,,,0,,,46,0
47480,note_on,0,0,0,,,,,,,,0,,,46,45
47500,set_tempo,20,1,0,,,,,,777001,,,,,,
47500,note_on,0,0,0,,,,,,,,0,,,53,43
47520,note_on,20,0,0,,,,,,,,0,,,53,0
47520,note_on,0,0,0,,,,,,,,0,,,62,51
47520,note_on,0,0,0,,,,,,,,0,,,56,45
47533,control_change,13,0,0,,,,,,,,0,64,0,,
47540,set_tempo,7,1,0,,,,,,771803,,,,,,
47573,control_change,33,0,0,,,,,,,,0,64,127,,
47580,set_tempo,7,1,0,,,,,,766675,,,,,,
47580,note_on,0,0,0,,,,,,,,0,,,56,0
47580,note_on,0,0,0,,,,,,,,0,,,53,36
47600,set_tempo,20,1,0,,,,,,761518,,,,,,
47640,set_tempo,40,1,0,,,,,,756525,,,,,,
47640,note_on,0,0,0,,,,,,,,0,,,53,0
47640,note_on,0,0,0,,,,,,,,0,,,56,44
47680,set_tempo,40,1,0,,,,,,751597,,,,,,
47700,set_tempo,20,1,0,,,,,,746733,,,,,,
47700,note_on,0,0,0,,,,,,,,0,,,56,0
47700,note_on,0,0,0,,,,,,,,0,,,53,32
47760,note_on,60,0,0,,,,,,,,0,,,53,0
47760,note_on,0,0,0,,,,,,,,0,,,56,44
47820,note_on,60,0,0,,,,,,,,0,,,56,0
47820,note_on,0,0,0,,,,,,,,0,,,53,36
47880,note_on,60,0,0,,,,,,,,0,,,53,0
47880,note_on,0,0,0,,,,,,,,0,,,56,44
47900,set_tempo,20,1,0,,,,,,751597,,,,,,
47904,set_tempo,4,1,0,,,,,,735565,,,,,,
47932,set_tempo,28,1,0,,,,,,740010,,,,,,
47940,set_tempo,8,1,0,,,,,,1116695,,,,,,
47940,note_on,0,0,0,,,,,,,,0,,,56,0
47940,note_on,0,0,0,,,,,,,,0,,,53,35
47960,note_on,20,0,0,,,,,,,,0,,,46,0
47960,note_on,0,0,0,,,,,,,,0,,,62,0
47960,note_on,0,0,0,,,,,,,,0,,,53,0
47960,note_on,0,0,0,,,,,,,,0,,,46,47
48000,set_tempo,40,1,0,,,,,,753580,,,,,,
48000,note_on,0,0,0,,,,,,,,0,,,53,0
48000,note_on,0,0,0,,,,,,,,0,,,63,56
48000,note_on,0,0,0,,,,,,,,0,,,55,46
48010,control_change,10,0,0,,,,,,,,0,64,0,,
48046,control_change,36,0,0,,,,,,,,0,64,127,,
48052,set_tempo,6,1,0,,,,,,748970,,,,,,
48060,note_on,8,0,0,,,,,,,,0,,,55,0
48060,note_on,0,0,0,,,,,,,,0,,,51,38
48092,set_tempo,32,1,0,,,,,,744509,,,,,,
48120,note_on,28,0,0,,,,,,,,0,,,51,0
48120,note_on,0,0,0,,,,,,,,0,,,55,48
48132,set_tempo,12,1,0,,,,,,740010,,,,,,
48172,set_tempo,40,1,0,,,,,,735565,,,,,,
48180,note_on,8,0,0,,,,,,,,0,,,55,0
48180,note_on,0,0,0,,,,,,,,0,,,51,36
48240,set_tempo,60,1,0,,,,,,740010,,,,,,
48240,note_on,0,0,0,,,,,,,,0,,,51,0
48240,note_on,0,0,0,,,,,,,,0,,,55,48
48292,set_tempo,52,1,0,,,,,,744509,,,,,,
48300,note_on,8,0,0,,,,,,,,0,,,55,0
48300,note_on,0,0,0,,,,,,,,0,,,51,40
48360,set_tempo,60,1,0,,,,,,748970,,,,,,
48360,note_on,0,0,0,,,,,,,,0,,,51,0
48360,note_on,0,0,0,,,,,,,,0,,,55,49
48412,set_tempo,52,1,0,,,,,,753580,,,,,,
48420,set_tempo,8,1,0,,,,,,772599,,,,,,
48420,note_on,0,0,0,,,,,,,,0,,,55,0
48420,note_on,0,0,0,,,,,,,,0,,,51,41
48440,note_on,20,0,0,,,,,,,,0,,,63,0
48440,note_on,0,0,0,,,,,,,,0,,,46,0
48440,note_on,0,0,0,,,,,,,,0,,,46,50
48444,set_tempo,4,1,0,,,,,,777403,,,,,,
48472,set_tempo,28,1,0,,,,,,782371,,,,,,
48480,set_tempo,8,1,0,,,,,,772599,,,,,,
48480,note_on,0,0,0,,,,,,,,0,,,51,0
48480,note_on,0,0,0,,,,,,,,0,,,63,61
48480,note_on,0,0,0,,,,,,,,0,,,54,49
48494,control_change,14,0,0,,,,,,,,0,64,0,,
48520,set_tempo,26,1,0,,,,,,753580,,,,,,
48533,control_change,13,0,0,,,,,,,,0,64,127,,
48540,note_on,7,0,0,,,,,,,,0,,,54,0
48540,note_on,0,0,0,,,,,,,,0,,,49,34
48572,set_tempo,32,1,0,,,,,,748970,,,,,,
48600,note_on,28,0,0,,,,,,,,0,,,49,0
48600,note_on,0,0,0,,,,,,,,0,,,54,50
48624,set_tempo,24,1,0,,,,,,744509,,,,,,
48660,note_on,36,0,0,,,,,,,,0,,,54,0
48660,note_on,0,0,0,,,,,,,,0,,,49,35
48664,set_tempo,4,1,0,,,,,,740010,,,,,,
48720,set_tempo,56,1,0,,,,,,744509,,,,,,
48720,note_on,0,0,0,,,,,,,,0,,,49,0
48720,note_on,0,0,0,,,,,,,,0,,,54,49
48760,set_tempo,40,1,0,,,,,,748970,,,,,,
48780,note_on,20,0,0,,,,,,,,0,,,54,0
48780,note_on,0,0,0,,,,,,,,0,,,49,38
48812,set_tempo,32,1,0,,,,,,753580,,,,,,
48840,note_on,28,0,0,,,,,,,,0,,,49,0
48840,note_on,0,0,0,,,,,,,,0,,,54,48
48852,set_tempo,12,1,0,,,,,,758246,,,,,,
48892,set_tempo,40,1,0,,,,,,762970,,,,,,
48900,set_tempo,8,1,0,,,,,,1240695,,,,,,
48900,note_on,0,0,0,,,,,,,,0,,,54,0
48900,note_on,0,0,0,,,,,,,,0,,,49,34
48920,note_on,20,0,0,,,,,,,,0,,,63,0
48920,note_on,0,0,0,,,,,,,,0,,,46,0
48920,note_on,0,0,0,,,,,,,,0,,,45,54
48960,set_tempo,40,1,0,,,,,,772599,,,,,,
48960,note_on,0,0,0,,,,,,,,0,,,49,0
48960,note_on,0,0,0,,,,,,,,0,,,63,63
48960,note_on,0,0,0,,,,,,,,0,,,54,51
48978,control_change,18,0,0,,,,,,,,0,64,0,,
49000,set_tempo,22,1,0,,,,,,782371,,,,,,
49020,control_change,20,0,0,,,,,,,,0,64,127,,
49020,note_on,0,0,0,,,,,,,,0,,,48,32
49040,set_tempo,20,1,0,,,,,,777403,,,,,,
49080,note_on,40,0,0,,,,,,,,0,,,48,0
49080,note_on,0,0,0,,,,,,,,0,,,54,0
49080,note_on,0,0,0,,,,,,,,0,,,54,40
49092,set_tempo,12,1,0,,,,,,772599,,,,,,
49132,set_tempo,40,1,0,,,,,,767754,,,,,,
49140,note_on,8,0,0,,,,,,,,0,,,48,32
49172,set_tempo,32,1,0,,,,,,762970,,,,,,
49200,note_on,28,0,0,,,,,,,,0,,,48,0
49200,note_on,0,0,0,,,,,,,,0,,,54,0
49200,note_on,0,0,0,,,,,,,,0,,,54,42
49224,set_tempo,24,1,0,,,,,,758246,,,,,,
49260,note_on,36,0,0,,,,,,,,0,,,48,33
49264,set_tempo,4,1,0,,,,,,753580,,,,,,
49304,set_tempo,40,1,0,,,,,,748970,,,,,,
49320,note_on,16,0,0,,,,,,,,0,,,48,0
49320,note_on,0,0,0,,,,,,,,0,,,54,0
49320,note_on,0,0,0,,,,,,,,0,,,54,43
49360,set_tempo,40,1,0,,,,,,744509,,,,,,
49380,note_on,20,0,0,,,,,,,,0,,,48,34
49400,set_tempo,20,1,0,,,,,,740010,,,,,,
49432,set_tempo,32,1,0,,,,,,727802,,,,,,
49440,note_on,8,0,0,,,,,,,,0,,,48,0
49440,note_on,0,0,0,,,,,,,,0,,,54,0
49440,note_on,0,0,0,,,,,,,,0,,,53,46
49446,control_change,6,0,0,,,,,,,,0,64,0,,
49471,control_change,25,0,0,,,,,,,,0,64,127,,
49472,set_tempo,1,1,0,,,,,,723240,,,,,,
49500,note_on,28,0,0,,,,,,,,0,,,48,37
49512,set_tempo,12,1,0,,,,,,718735,,,,,,
49560,note_on,48,0,0,,,,,,,,0,,,48,0
49560,note_on,0,0,0,,,,,,,,0,,,53,0
49560,note_on,0,0,0,,,,,,,,0,,,53,42
49564,set_tempo,4,1,0,,,,,,723240,,,,,,
49604,set_tempo,40,1,0,,,,,,727802,,,,,,
49620,note_on,16,0,0,,,,,,,,0,,,48,32
49644,set_tempo,24,1,0,,,,,,727802,,,,,,
49672,set_tempo,28,1,0,,,,,,723240,,,,,,
49680,note_on,8,0,0,,,,,,,,0,,,48,0
49680,note_on,0,0,0,,,,,,,,0,,,53,0
49680,note_on,0,0,0,,,,,,,,0,,,53,40
49700,set_tempo,20,1,0,,,,,,718735,,,,,,
49712,set_tempo,12,1,0,,,,,,714286,,,,,,
49740,set_tempo,28,1,0,,,,,,709807,,,,,,
49740,note_on,0,0,0,,,,,,,,0,,,48,32
49752,set_tempo,12,1,0,,,,,,709807,,,,,,
49792,set_tempo,40,1,0,,,,,,714286,,,,,,
49800,note_on,8,0,0,,,,,,,,0,,,48,0
49800,note_on,0,0,0,,,,,,,,0,,,53,0
49800,note_on,0,0,0,,,,,,,,0,,,53,40
49860,set_tempo,60,1,0,,,,,,1045478,,,,,,
49860,note_on,0,0,0,,,,,,,,0,,,48,32
49880,note_on,20,0,0,,,,,,,,0,,,63,0
49880,note_on,0,0,0,,,,,,,,0,,,45,0
49880,note_on,0,0,0,,,,,,,,0,,,46,51
49904,set_tempo,24,1,0,,,,,,740010,,,,,,
49920,note_on,16,0,0,,,,,,,,0,,,53,0
49920,note_on,0,0,0,,,,,,,,0,,,48,0
49920,note_on,0,0,0,,,,,,,,0,,,62,61
49920,note_on,0,0,0,,,,,,,,0,,,53,40
49934,control_change,14,0,0,,,,,,,,0,64,0,,
49963,control_change,29,0,0,,,,,,,,0,64,127,,
49980,note_on,17,0,0,,,,,,,,0,,,53,0
49980,note_on,0,0,0,,,,,,,,0,,,50,32
50024,set_tempo,44,1,0,,,,,,744509,,,,,,
50040,note_on,16,0,0,,,,,,,,0,,,50,0
50040,note_on,0,0,0,,,,,,,,0,,,53,40
50100,note_on,60,0,0,,,,,,,,0,,,53,0
50100,note_on,0,0,0,,,,,,,,0,,,50,32
50144,set_tempo,44,1,0,,,,,,748970,,,,,,
50160,note_on,16,0,0,,,,,,,,0,,,50,0
50160,note_on,0,0,0,,,,,,,,0,,,53,40
50220,note_on,60,0,0,,,,,,,,0,,,53,0
50220,note_on,0,0,0,,,,,,,,0,,,50,32
50264,set_tempo,44,1,0,,,,,,753580,,,,,,
50280,note_on,16,0,0,,,,,,,,0,,,50,0
50280,note_on,0,0,0,,,,,,,,0,,,53,40
50340,set_tempo,60,1,0,,,,,,1147886,,,,,,
50340,note_on,0,0,0,,,,,,,,0,,,53,0
50360,note_on,20,0,0,,,,,,,,0,,,62,0
50360,note_on,0,0,0,,,,,,,,0,,,46,0
50360,note_on,0,0,0,,,,,,,,0,,,46,44
50380,note_on,20,0,0,,,,,,,,0,,,53,44
50400,note_on,20,0,0,,,,,,,,0,,,62,48
50400,note_on,0,0,0,,,,,,,,0,,,56,41
50404,set_tempo,4,1,0,,,,,,761518,,,,,,
50413,control_change,9,0,0,,,,,,,,0,64,0,,
50444,set_tempo,31,1,0,,,,,,756525,,,,,,
50453,control_change,9,0,0,,,,,,,,0,64,127,,
50460,note_on,7,0,0,,,,,,,,0,,,56,0
50460,note_on,0,0,0,,,,,,,,0,,,53,31
50472,set_tempo,12,1,0,,,,,,751597,,,,,,
50500,set_tempo,28,1,0,,,,,,746733,,,,,,
50520,note_on,20,0,0,,,,,,,,0,,,53,0
50520,note_on,0,0,0,,,,,,,,0,,,56,40
50524,set_tempo,4,1,0,,,,,,741931,,,,,,
50552,set_tempo,28,1,0,,,,,,737101,,,,,,
50580,set_tempo,28,1,0,,,,,,732422,,,,,,
50580,note_on,0,0,0,,,,,,,,0,,,56,0
50580,note_on,0,0,0,,,,,,,,0,,,53,33
50632,set_tempo,52,1,0,,,,,,737101,,,,,,
50640,note_on,8,0,0,,,,,,,,0,,,53,0
50640,note_on,0,0,0,,,,,,,,0,,,56,40
50672,set_tempo,32,1,0,,,,,,741931,,,,,,
50700,note_on,28,0,0,,,,,,,,0,,,56,0
50700,note_on,0,0,0,,,,,,,,0,,,53,34
50712,set_tempo,12,1,0,,,,,,746733,,,,,,
50752,set_tempo,40,1,0,,,,,,751597,,,,,,
50760,note_on,8,0,0,,,,,,,,0,,,53,0
50760,note_on,0,0,0,,,,,,,,0,,,56,41
50792,set_tempo,32,1,0,,,,,,756525,,,,,,
50812,set_tempo,20,1,0,,,,,,740010,,,,,,
50820,set_tempo,8,1,0,,,,,,1116695,,,,,,
50820,note_on,0,0,0,,,,,,,,0,,,56,0
50820,note_on,0,0,0,,,,,,,,0,,,53,34
50840,note_on,20,0,0,,,,,,,,0,,,46,0
50840,note_on,0,0,0,,,,,,,,0,,,62,0
50840,note_on,0,0,0,,,,,,,,0,,,53,0
50840,note_on,0,0,0,,,,,,,,0,,,46,46
50872,set_tempo,32,1,0,,,,,,771803,,,,,,
50880,note_on,8,0,0,,,,,,,,0,,,53,0
50880,note_on,0,0,0,,,,,,,,0,,,63,55
50880,note_on,0,0,0,,,,,,,,0,,,55,45
50890,control_change,10,0,0,,,,,,,,0,64,0,,
50912,set_tempo,22,1,0,,,,,,766675,,,,,,
50926,control_change,14,0,0,,,,,,,,0,64,127,,
50940,set_tempo,14,1,0,,,,,,761518,,,,,,
50940,note_on,0,0,0,,,,,,,,0,,,51,38
50960,note_on,20,0,0,,,,,,,,0,,,55,0
50964,set_tempo,4,1,0,,,,,,756525,,,,,,
50992,set_tempo,28,1,0,,,,,,751597,,,,,,
51000,note_on,8,0,0,,,,,,,,0,,,51,0
51000,note_on,0,0,0,,,,,,,,0,,,55,45
51020,set_tempo,20,1,0,,,,,,746733,,,,,,
51044,set_tempo,24,1,0,,,,,,741931,,,,,,
51052,set_tempo,8,1,0,,,,,,735565,,,,,,
51060,note_on,8,0,0,,,,,,,,0,,,55,0
51060,note_on,0,0,0,,,,,,,,0,,,51,35
51072,set_tempo,12,1,0,,,,,,737101,,,,,,
51100,set_tempo,28,1,0,,,,,,741931,,,,,,
51120,note_on,20,0,0,,,,,,,,0,,,51,0
51120,note_on,0,0,0,,,,,,,,0,,,55,45
51124,set_tempo,4,1,0,,,,,,746733,,,,,,
51152,set_tempo,28,1,0,,,,,,751597,,,,,,
51180,set_tempo,28,1,0,,,,,,756525,,,,,,
51180,note_on,0,0,0,,,,,,,,0,,,55,0
51180,note_on,0,0,0,,,,,,,,0,,,51,35
51204,set_tempo,24,1,0,,,,,,761518,,,,,,
51232,set_tempo,28,1,0,,,,,,766675,,,,,,
51240,note_on,8,0,0,,,,,,,,0,,,51,0
51240,note_on,0,0,0,,,,,,,,0,,,55,47
51260,set_tempo,20,1,0,,,,,,771803,,,,,,
51284,set_tempo,24,1,0,,,,,,777001,,,,,,
51292,set_tempo,8,1,0,,,,,,753580,,,,,,
51300,set_tempo,8,1,0,,,,,,1137441,,,,,,
51300,note_on,0,0,0,,,,,,,,0,,,55,0
51300,note_on,0,0,0,,,,,,,,0,,,51,35
51320,note_on,20,0,0,,,,,,,,0,,,63,0
51320,note_on,0,0,0,,,,,,,,0,,,46,0
51320,note_on,0,0,0,,,,,,,,0,,,46,54
51352,set_tempo,32,1,0,,,,,,777001,,,,,,
51360,note_on,8,0,0,,,,,,,,0,,,51,0
51360,note_on,0,0,0,,,,,,,,0,,,63,62
51360,note_on,0,0,0,,,,,,,,0,,,54,47
51374,control_change,14,0,0,,,,,,,,0,64,0,,
51392,set_tempo,18,1,0,,,,,,771803,,,,,,
51413,control_change,21,0,0,,,,,,,,0,64,127,,
51420,note_on,7,0,0,,,,,,,,0,,,49,33
51432,set_tempo,12,1,0,,,,,,766675,,,,,,
51440,note_on,8,0,0,,,,,,,,0,,,54,0
51472,set_tempo,32,1,0,,,,,,761518,,,,,,
51480,note_on,8,0,0,,,,,,,,0,,,49,0
51480,note_on,0,0,0,,,,,,,,0,,,54,43
51512,set_tempo,32,1,0,,,,,,756525,,,,,,
51540,note_on,28,0,0,,,,,,,,0,,,54,0
51540,note_on,0,0,0,,,,,,,,0,,,49,34
51552,set_tempo,12,1,0,,,,,,751597,,,,,,
51580,set_tempo,28,1,0,,,,,,756525,,,,,,
51600,note_on,20,0,0,,,,,,,,0,,,49,0
51600,note_on,0,0,0,,,,,,,,0,,,54,42
51604,set_tempo,4,1,0,,,,,,761518,,,,,,
51632,set_tempo,28,1,0,,,,,,766675,,,,,,
51660,set_tempo,28,1,0,,,,,,771803,,,,,,
51660,note_on,0,0,0,,,,,,,,0,,,54,0
51660,note_on,0,0,0,,,,,,,,0,,,49,33
51684,set_tempo,24,1,0,,,,,,777001,,,,,,
51712,set_tempo,28,1,0,,,,,,782269,,,,,,
51720,note_on,8,0,0,,,,,,,,0,,,49,0
51720,note_on,0,0,0,,,,,,,,0,,,54,42
51740,set_tempo,20,1,0,,,,,,787608,,,,,,
51764,set_tempo,24,1,0,,,,,,793021,,,,,,
51772,set_tempo,8,1,0,,,,,,762970,,,,,,
51780,set_tempo,8,1,0,,,,,,1742666,,,,,,
51780,note_on,0,0,0,,,,,,,,0,,,54,0
51780,note_on,0,0,0,,,,,,,,0,,,49,33
51800,note_on,20,0,0,,,,,,,,0,,,63,0
51800,note_on,0,0,0,,,,,,,,0,,,46,0
51800,note_on,0,0,0,,,,,,,,0,,,45,54
51840,set_tempo,40,1,0,,,,,,772599,,,,,,
51840,note_on,0,0,0,,,,,,,,0,,,49,0
51840,note_on,0,0,0,,,,,,,,0,,,63,63
51840,note_on,0,0,0,,,,,,,,0,,,54,51
51858,control_change,18,0,0,,,,,,,,0,64,0,,
51880,set_tempo,22,1,0,,,,,,782371,,,,,,
51900,control_change,20,0,0,,,,,,,,0,64,127,,
51900,note_on,0,0,0,,,,,,,,0,,,48,32
51920,set_tempo,20,1,0,,,,,,777403,,,,,,
51960,note_on,40,0,0,,,,,,,,0,,,48,0
51960,note_on,0,0,0,,,,,,,,0,,,54,0
51960,note_on,0,0,0,,,,,,,,0,,,54,40
51972,set_tempo,12,1,0,,,,,,772599,,,,,,
52012,set_tempo,40,1,0,,,,,,767754,,,,,,
52020,note_on,8,0,0,,,,,,,,0,,,48,31
52052,set_tempo,32,1,0,,,,,,762970,,,,,,
52080,note_on,28,0,0,,,,,,,,0,,,48,0
52080,note_on,0,0,0,,,,,,,,0,,,54,0
52080,note_on,0,0,0,,,,,,,,0,,,54,44
52104,set_tempo,24,1,0,,,,,,758246,,,,,,
52140,note_on,36,0,0,,,,,,,,0,,,48,34
52144,set_tempo,4,1,0,,,,,,753580,,,,,,
52184,set_tempo,40,1,0,,,,,,748970,,,,,,
52200,note_on,16,0,0,,,,,,,,0,,,48,0
52200,note_on,0,0,0,,,,,,,,0,,,54,0
52200,note_on,0,0,0,,,,,,,,0,,,54,43
52240,set_tempo,40,1,0,,,,,,744509,,,,,,
52260,note_on,20,0,0,,,,,,,,0,,,48,36
52280,set_tempo,20,1,0,,,,,,740010,,,,,,
52312,set_tempo,32,1,0,,,,,,727802,,,,,,
52320,note_on,8,0,0,,,,,,,,0,,,48,0
52320,note_on,0,0,0,,,,,,,,0,,,54,0
52320,note_on,0,0,0,,,,,,,,0,,,53,46
52326,control_change,6,0,0,,,,,,,,0,64,0,,
52351,control_change,25,0,0,,,,,,,,0,64,127,,
52352,set_tempo,1,1,0,,,,,,723240,,,,,,
52380,note_on,28,0,0,,,,,,,,0,,,48,36
52392,set_tempo,12,1,0,,,,,,718735,,,,,,
52440,note_on,48,0,0,,,,,,,,0,,,48,0
52440,note_on,0,0,0,,,,,,,,0,,,53,0
52440,note_on,0,0,0,,,,,,,,0,,,53,41
52444,set_tempo,4,1,0,,,,,,723240,,,,,,
52484,set_tempo,40,1,0,,,,,,727802,,,,,,
52500,note_on,16,0,0,,,,,,,,0,,,48,32
52524,set_tempo,24,1,0,,,,,,727802,,,,,,
52552,set_tempo,28,1,0,,,,,,723240,,,,,,
52560,note_on,8,0,0,,,,,,,,0,,,48,0
52560,note_on,0,0,0,,,,,,,,0,,,53,0
52560,note_on,0,0,0,,,,,,,,0,,,53,40
52580,set_tempo,20,1,0,,,,,,718735,,,,,,
52592,set_tempo,12,1,0,,,,,,714286,,,,,,
52620,set_tempo,28,1,0,,,,,,709807,,,,,,
52620,note_on,0,0,0,,,,,,,,0,,,48,32
52632,set_tempo,12,1,0,,,,,,709807,,,,,,
52672,set_tempo,40,1,0,,,,,,714286,,,,,,
52680,note_on,8,0,0,,,,,,,,0,,,48,0
52680,note_on,0,0,0,,,,,,,,0,,,53,0
52680,note_on,0,0,0,,,,,,,,0,,,53,40
52740,set_tempo,60,1,0,,,,,,1045478,,,,,,
52740,note_on,0,0,0,,,,,,,,0,,,48,32
52760,note_on,20,0,0,,,,,,,,0,,,63,0
52760,note_on,0,0,0,,,,,,,,0,,,45,0
52760,note_on,0,0,0,,,,,,,,0,,,46,51
52784,set_tempo,24,1,0,,,,,,740010,,,,,,
52800,note_on,16,0,0,,,,,,,,0,,,53,0
52800,note_on,0,0,0,,,,,,,,0,,,48,0
52800,note_on,0,0,0,,,,,,,,0,,,62,61
52800,note_on,0,0,0,,,,,,,,0,,,53,40
52814,control_change,14,0,0,,,,,,,,0,64,0,,
52843,control_change,29,0,0,,,,,,,,0,64,127,,
52880,note_on,37,0,0,,,,,,,,0,,,53,0
52880,note_on,0,0,0,,,,,,,,0,,,50,32
52904,set_tempo,24,1,0,,,,,,744509,,,,,,
52960,note_on,56,0,0,,,,,,,,0,,,50,0
52960,note_on,0,0,0,,,,,,,,0,,,53,40
53024,set_tempo,64,1,0,,,,,,748970,,,,,,
53040,note_on,16,0,0,,,,,,,,0,,,53,0
53040,note_on,0,0,0,,,,,,,,0,,,50,32
53120,note_on,80,0,0,,,,,,,,0,,,50,0
53120,note_on,0,0,0,,,,,,,,0,,,53,40
53144,set_tempo,24,1,0,,,,,,753580,,,,,,
53200,note_on,56,0,0,,,,,,,,0,,,53,0
53200,note_on,0,0,0,,,,,,,,0,,,50,32
53220,set_tempo,20,1,0,,,,,,1147886,,,,,,
53280,set_tempo,60,1,0,,,,,,709807,,,,,,
53280,note_on,0,0,0,,,,,,,,0,,,50,0
53280,note_on,0,0,0,,,,,,,,0,,,62,0
53280,note_on,0,0,0,,,,,,,,0,,,46,0
53280,note_on,0,0,0,,,,,,,,0,,,56,52
53280,note_on,0,0,0,,,,,,,,0,,,58,61
53280,note_on,0,0,0,,,,,,,,0,,,53,45
53290,control_change,10,0,0,,,,,,,,0,64,0,,
53329,control_change,39,0,0,,,,,,,,0,64,127,,
53360,note_on,31,0,0,,,,,,,,0,,,53,0
53360,note_on,0,0,0,,,,,,,,0,,,50,38
53440,note_on,80,0,0,,,,,,,,0,,,50,0
53440,note_on,0,0,0,,,,,,,,0,,,53,45
53520,note_on,80,0,0,,,,,,,,0,,,53,0
53520,note_on,0,0,0,,,,,,,,0,,,50,38
53600,note_on,80,0,0,,,,,,,,0,,,50,0
53600,note_on,0,0,0,,,,,,,,0,,,53,45
53680,note_on,80,0,0,,,,,,,,0,,,53,0
53680,note_on,0,0,0,,,,,,,,0,,,50,38
53760,note_on,80,0,0,,,,,,,,0,,,50,0
53760,note_on,0,0,0,,,,,,,,0,,,58,0
53760,note_on,0,0,0,,,,,,,,0,,,56,0
53760,note_on,0,0,0,,,,,,,,0,,,58,61
53760,note_on,0,0,0,,,,,,,,0,,,55,45
53775,control_change,15,0,0,,,,,,,,0,64,0,,
53820,control_change,45,0,0,,,,,,,,0,64,127,,
53840,note_on,20,0,0,,,,,,,,0,,,55,0
53840,note_on,0,0,0,,,,,,,,0,,,51,38
53920,note_on,80,0,0,,,,,,,,0,,,51,0
53920,note_on,0,0,0,,,,,,,,0,,,55,45
54000,note_on,80,0,0,,,,,,,,0,,,55,0
54000,note_on,0,0,0,,,,,,,,0,,,51,38
54080,note_on,80,0,0,,,,,,,,0,,,51,0
54080,note_on,0,0,0,,,,,,,,0,,,55,45
54160,note_on,80,0,0,,,,,,,,0,,,55,0
54160,note_on,0,0,0,,,,,,,,0,,,51,37
54240,set_tempo,80,1,0,,,,,,693642,,,,,,
54240,note_on,0,0,0,,,,,,,,0,,,51,0
54240,note_on,0,0,0,,,,,,,,0,,,58,0
54240,note_on,0,0,0,,,,,,,,0,,,58,50
54240,note_on,0,0,0,,,,,,,,0,,,60,63
54240,note_on,0,0,0,,,,,,,,0,,,55,48
54253,control_change,13,0,0,,,,,,,,0,64,0,,
54294,control_change,41,0,0,,,,,,,,0,64,127,,
54320,note_on,26,0,0,,,,,,,,0,,,55,0
54320,note_on,0,0,0,,,,,,,,0,,,52,39
54400,set_tempo,80,1,0,,,,,,689655,,,,,,
54400,note_on,0,0,0,,,,,,,,0,,,52,0
54400,note_on,0,0,0,,,,,,,,0,,,55,48
54480,note_on,80,0,0,,,,,,,,0,,,55,0
54480,note_on,0,0,0,,,,,,,,0,,,52,41
54520,set_tempo,40,1,0,,,,,,685714,,,,,,
54560,note_on,40,0,0,,,,,,,,0,,,52,0
54560,note_on,0,0,0,,,,,,,,0,,,55,48
54640,set_tempo,80,1,0,,,,,,681818,,,,,,
54640,note_on,0,0,0,,,,,,,,0,,,55,0
54640,note_on,0,0,0,,,,,,,,0,,,52,41
54720,note_on,80,0,0,,,,,,,,0,,,52,0
54720,note_on,0,0,0,,,,,,,,0,,,60,0
54720,note_on,0,0,0,,,,,,,,0,,,58,0
54720,note_on,0,0,0,,,,,,,,0,,,60,63
54720,note_on,0,0,0,,,,,,,,0,,,57,48
54728,control_change,8,0,0,,,,,,,,0,64,0,,
54757,control_change,29,0,0,,,,,,,,0,64,127,,
54760,set_tempo,3,1,0,,,,,,677966,,,,,,
54800,note_on,40,0,0,,,,,,,,0,,,57,0
54800,note_on,0,0,0,,,,,,,,0,,,53,39
54880,note_on,80,0,0,,,,,,,,0,,,53,0
54880,note_on,0,0,0,,,,,,,,0,,,57,48
54960,note_on,80,0,0,,,,,,,,0,,,57,0
54960,note_on,0,0,0,,,,,,,,0,,,53,41
55040,note_on,80,0,0,,,,,,,,0,,,53,0
55040,note_on,0,0,0,,,,,,,,0,,,57,48
55120,note_on,80,0,0,,,,,,,,0,,,57,0
55120,note_on,0,0,0,,,,,,,,0,,,53,41
55198,note_on,78,0,0,,,,,,,,0,,,60,0
55200,set_tempo,2,1,0,,,,,,662983,,,,,,
55200,note_on,0,0,0,,,,,,,,0,,,53,0
55200,note_on,0,0,0,,,,,,,,0,,,60,53
55200,note_on,0,0,0,,,,,,,,0,,,62,66
55200,note_on,0,0,0,,,,,,,,0,,,57,50
55206,control_change,6,0,0,,,,,,,,0,64,0,,
55243,control_change,37,0,0,,,,,,,,0,64,127,,
55280,note_on,37,0,0,,,,,,,,0,,,57,0
55280,note_on,0,0,0,,,,,,,,0,,,54,41
55360,note_on,80,0,0,,,,,,,,0,,,54,0
55360,note_on,0,0,0,,,,,,,,0,,,57,50
55440,note_on,80,0,0,,,,,,,,0,,,57,0
55440,note_on,0,0,0,,,,,,,,0,,,54,43
55520,note_on,80,0,0,,,,,,,,0,,,54,0
55520,note_on,0,0,0,,,,,,,,0,,,57,50
55600,note_on,80,0,0,,,,,,,,0,,,57,0
55600,note_on,0,0,0,,,,,,,,0,,,54,43
55680,set_tempo,80,1,0,,,,,,674157,,,,,,
55680,note_on,0,0,0,,,,,,,,0,,,54,0
55680,note_on,0,0,0,,,,,,,,0,,,62,0
55680,note_on,0,0,0,,,,,,,,0,,,60,0
55680,note_on,0,0,0,,,,,,,,0,,,62,66
55680,note_on,0,0,0,,,,,,,,0,,,58,50
55688,control_change,8,0,0,,,,,,,,0,64,0,,
55726,control_change,38,0,0,,,,,,,,0,64,127,,
55760,note_on,34,0,0,,,,,,,,0,,,58,0
55760,note_on,0,0,0,,,,,,,,0,,,55,41
55840,note_on,80,0,0,,,,,,,,0,,,55,0
55840,note_on,0,0,0,,,,,,,,0,,,58,50
55920,note_on,80,0,0,,,,,,,,0,,,58,0
55920,note_on,0,0,0,,,,,,,,0,,,55,43
56000,note_on,80,0,0,,,,,,,,0,,,55,0
56000,note_on,0,0,0,,,,,,,,0,,,58,51
56080,note_on,80,0,0,,,,,,,,0,,,58,0
56080,note_on,0,0,0,,,,,,,,0,,,55,43
56160,set_tempo,80,1,0,,,,,,652174,,,,,,
56160,note_on,0,0,0,,,,,,,,0,,,55,0
56160,note_on,0,0,0,,,,,,,,0,,,62,0
56160,note_on,0,0,0,,,,,,,,0,,,65,69
56160,note_on,0,0,0,,,,,,,,0,,,63,54
56160,note_on,0,0,0,,,,,,,,0,,,60,53
56172,control_change,12,0,0,,,,,,,,0,64,0,,
56237,control_change,65,0,0,,,,,,,,0,64,127,,
56240,note_on,3,0,0,,,,,,,,0,,,60,0
56240,note_on,0,0,0,,,,,,,,0,,,57,43
56320,note_on,80,0,0,,,,,,,,0,,,57,0
56320,note_on,0,0,0,,,,,,,,0,,,60,53
56400,note_on,80,0,0,,,,,,,,0,,,60,0
56400,note_on,0,0,0,,,,,,,,0,,,57,45
56480,note_on,80,0,0,,,,,,,,0,,,57,0
56480,note_on,0,0,0,,,,,,,,0,,,60,53
56560,note_on,80,0,0,,,,,,,,0,,,60,0
56560,note_on,0,0,0,,,,,,,,0,,,57,45
56640,note_on,80,0,0,,,,,,,,0,,,57,0
56640,note_on,0,0,0,,,,,,,,0,,,63,0
56640,note_on,0,0,0,,,,,,,,0,,,65,0
56640,note_on,0,0,0,,,,,,,,0,,,65,69
56640,note_on,0,0,0,,,,,,,,0,,,62,53
56652,control_change,12,0,0,,,,,,,,0,64,0,,
56714,control_change,62,0,0,,,,,,,,0,64,127,,
56720,note_on,6,0,0,,,,,,,,0,,,62,0
56720,note_on,0,0,0,,,,,,,,0,,,58,44
56800,note_on,80,0,0,,,,,,,,0,,,58,0
56800,note_on,0,0,0,,,,,,,,0,,,62,53
56880,note_on,80,0,0,,,,,,,,0,,,62,0
56880,note_on,0,0,0,,,,,,,,0,,,58,45
56960,note_on,80,0,0,,,,,,,,0,,,58,0
56960,note_on,0,0,0,,,,,,,,0,,,62,53
57040,note_on,80,0,0,,,,,,,,0,,,62,0
57040,note_on,0,0,0,,,,,,,,0,,,58,46
57118,note_on,78,0,0,,,,,,,,0,,,65,0
57120,set_tempo,2,1,0,,,,,,659341,,,,,,
57120,note_on,0,0,0,,,,,,,,0,,,58,0
57120,note_on,0,0,0,,,,,,,,0,,,65,57
57120,note_on,0,0,0,,,,,,,,0,,,69,72
57120,note_on,0,0,0,,,,,,,,0,,,63,55
57131,control_change,11,0,0,,,,,,,,0,64,0,,
57165,control_change,34,0,0,,,,,,,,0,64,127,,
57200,note_on,35,0,0,,,,,,,,0,,,63,0
57200,note_on,0,0,0,,,,,,,,0,,,60,46
57280,note_on,80,0,0,,,,,,,,0,,,60,0
57280,note_on,0,0,0,,,,,,,,0,,,63,55
57360,note_on,80,0,0,,,,,,,,0,,,63,0
57360,note_on,0,0,0,,,,,,,,0,,,60,48
57440,note_on,80,0,0,,,,,,,,0,,,60,0
57440,note_on,0,0,0,,,,,,,,0,,,63,55
57520,note_on,80,0,0,,,,,,,,0,,,63,0
57520,note_on,0,0,0,,,,,,,,0,,,60,48
57600,note_on,80,0,0,,,,,,,,0,,,60,0
57600,note_on,0,0,0,,,,,,,,0,,,69,0
57600,note_on,0,0,0,,,,,,,,0,,,65,0
57600,note_on,0,0,0,,,,,,,,0,,,70,72
57600,note_on,0,0,0,,,,,,,,0,,,65,56
57608,control_change,8,0,0,,,,,,,,0,64,0,,
57641,control_change,33,0,0,,,,,,,,0,64,127,,
57680,note_on,39,0,0,,,,,,,,0,,,65,0
57680,note_on,0,0,0,,,,,,,,0,,,62,46
57760,note_on,80,0,0,,,,,,,,0,,,62,0
57760,note_on,0,0,0,,,,,,,,0,,,65,56
57840,note_on,80,0,0,,,,,,,,0,,,65,0
57840,note_on,0,0,0,,,,,,,,0,,,62,48
57920,note_on,80,0,0,,,,,,,,0,,,62,0
57920,note_on,0,0,0,,,,,,,,0,,,65,56
58000,note_on,80,0,0,,,,,,,,0,,,65,0
58000,note_on,0,0,0,,,,,,,,0,,,62,48
58078,note_on,78,0,0,,,,,,,,0,,,70,0
58080,set_tempo,2,1,0,,,,,,648649,,,,,,
58080,note_on,0,0,0,,,,,,,,0,,,62,0
58080,note_on,0,0,0,,,,,,,,0,,,70,72
58080,note_on,0,0,0,,,,,,,,0,,,66,56
58090,control_change,10,0,0,,,,,,,,0,64,0,,
58113,control_change,23,0,0,,,,,,,,0,64,127,,
58160,note_on,47,0,0,,,,,,,,0,,,66,0
58160,note_on,0,0,0,,,,,,,,0,,,63,46
58240,note_on,80,0,0,,,,,,,,0,,,63,0
58240,note_on,0,0,0,,,,,,,,0,,,66,56
58320,note_on,80,0,0,,,,,,,,0,,,66,0
58320,note_on,0,0,0,,,,,,,,0,,,63,49
58400,note_on,80,0,0,,,,,,,,0,,,63,0
58400,note_on,0,0,0,,,,,,,,0,,,66,56
58480,note_on,80,0,0,,,,,,,,0,,,66,0
58480,note_on,0,0,0,,,,,,,,0,,,63,49
58560,set_tempo,80,1,0,,,,,,662983,,,,,,
58560,note_on,0,0,0,,,,,,,,0,,,63,0
58560,note_on,0,0,0,,,,,,,,0,,,70,0
58560,note_on,0,0,0,,,,,,,,0,,,70,61
58560,note_on,0,0,0,,,,,,,,0,,,72,76
58560,note_on,0,0,0,,,,,,,,0,,,67,56
58571,control_change,11,0,0,,,,,,,,0,64,0,,
58603,control_change,32,0,0,,,,,,,,0,64,127,,
58640,note_on,37,0,0,,,,,,,,0,,,67,0
58640,note_on,0,0,0,,,,,,,,0,,,64,47
58720,note_on,80,0,0,,,,,,,,0,,,64,0
58720,note_on,0,0,0,,,,,,,,0,,,67,57
58800,note_on,80,0,0,,,,,,,,0,,,67,0
58800,note_on,0,0,0,,,,,,,,0,,,64,49
58880,note_on,80,0,0,,,,,,,,0,,,64,0
58880,note_on,0,0,0,,,,,,,,0,,,67,57
58960,note_on,80,0,0,,,,,,,,0,,,67,0
58960,note_on,0,0,0,,,,,,,,0,,,64,49
59040,set_tempo,80,1,0,,,,,,676437,,,,,,
59040,note_on,0,0,0,,,,,,,,0,,,64,0
59040,note_on,0,0,0,,,,,,,,0,,,72,0
59040,note_on,0,0,0,,,,,,,,0,,,70,0
59040,note_on,0,0,0,,,,,,,,0,,,73,75
59040,note_on,0,0,0,,,,,,,,0,,,67,46
59040,note_on,0,0,0,,,,,,,,0,,,70,59
59052,control_change,12,0,0,,,,,,,,0,64,0,,
59088,control_change,36,0,0,,,,,,,,0,64,127,,
59120,note_on,32,0,0,,,,,,,,0,,,70,0
59120,note_on,0,0,0,,,,,,,,0,,,67,0
59120,note_on,0,0,0,,,,,,,,0,,,64,47
59200,note_on,80,0,0,,,,,,,,0,,,64,0
59200,note_on,0,0,0,,,,,,,,0,,,67,46
59200,note_on,0,0,0,,,,,,,,0,,,70,59
59280,note_on,80,0,0,,,,,,,,0,,,70,0
59280,note_on,0,0,0,,,,,,,,0,,,67,0
59280,note_on,0,0,0,,,,,,,,0,,,64,49
59360,note_on,80,0,0,,,,,,,,0,,,64,0
59360,note_on,0,0,0,,,,,,,,0,,,67,46
59360,note_on,0,0,0,,,,,,,,0,,,70,59
59440,note_on,80,0,0,,,,,,,,0,,,70,0
59440,note_on,0,0,0,,,,,,,,0,,,67,0
59440,note_on,0,0,0,,,,,,,,0,,,64,50
59520,set_tempo,80,1,0,,,,,,684463,,,,,,
59520,note_on,0,0,0,,,,,,,,0,,,64,0
59520,note_on,0,0,0,,,,,,,,0,,,73,0
59520,note_on,0,0,0,,,,,,,,0,,,79,78
59520,note_on,0,0,0,,,,,,,,0,,,70,46
59520,note_on,0,0,0,,,,,,,,0,,,73,59
59600,note_on,80,0,0,,,,,,,,0,,,73,0
59600,note_on,0,0,0,,,,,,,,0,,,70,0
59600,note_on,0,0,0,,,,,,,,0,,,64,49
59680,note_on,80,0,0,,,,,,,,0,,,64,0
59680,note_on,0,0,0,,,,,,,,0,,,70,46
59680,note_on,0,0,0,,,,,,,,0,,,73,59
59760,note_on,80,0,0,,,,,,,,0,,,73,0
59760,note_on,0,0,0,,,,,,,,0,,,70,0
59760,note_on,0,0,0,,,,,,,,0,,,64,52
59840,note_on,80,0,0,,,,,,,,0,,,64,0
59840,note_on,0,0,0,,,,,,,,0,,,70,46
59840,note_on,0,0,0,,,,,,,,0,,,73,59
59920,note_on,80,0,0,,,,,,,,0,,,73,0
59920,note_on,0,0,0,,,,,,,,0,,,70,0
59920,note_on,0,0,0,,,,,,,,0,,,64,52
60000,set_tempo,80,1,0,,,,,,696945,,,,,,
60000,note_on,0,0,0,,,,,,,,0,,,64,0
60000,note_on,0,0,0,,,,,,,,0,,,79,0
60000,note_on,0,0,0,,,,,,,,0,,,82,79
60000,note_on,0,0,0,,,,,,,,0,,,73,48
60000,note_on,0,0,0,,,,,,,,0,,,76,61
60080,note_on,80,0,0,,,,,,,,0,,,76,0
60080,note_on,0,0,0,,,,,,,,0,,,73,0
60080,note_on,0,0,0,,,,,,,,0,,,67,49
60160,note_on,80,0,0,,,,,,,,0,,,67,0
60160,note_on,0,0,0,,,,,,,,0,,,73,48
60160,note_on,0,0,0,,,,,,,,0,,,76,61
60240,note_on,80,0,0,,,,,,,,0,,,76,0
60240,note_on,0,0,0,,,,,,,,0,,,73,0
60240,note_on,0,0,0,,,,,,,,0,,,67,52
60320,note_on,80,0,0,,,,,,,,0,,,67,0
60320,note_on,0,0,0,,,,,,,,0,,,73,48
60320,note_on,0,0,0,,,,,,,,0,,,76,61
60400,note_on,80,0,0,,,,,,,,0,,,76,0
60400,note_on,0,0,0,,,,,,,,0,,,73,0
60400,note_on,0,0,0,,,,,,,,0,,,67,52
60480,set_tempo,80,1,0,,,,,,714286,,,,,,
60480,note_on,0,0,0,,,,,,,,0,,,67,0
60480,note_on,0,0,0,,,,,,,,0,,,82,0
60480,note_on,0,0,0,,,,,,,,0,,,77,76
60480,note_on,0,0,0,,,,,,,,0,,,70,46
60480,note_on,0,0,0,,,,,,,,0,,,74,59
60498,control_change,18,0,0,,,,,,,,0,64,0,,
60500,set_tempo,2,1,0,,,,,,696945,,,,,,
60533,control_change,33,0,0,,,,,,,,0,64,127,,
60560,note_on,27,0,0,,,,,,,,0,,,74,0
60560,note_on,0,0,0,,,,,,,,0,,,70,0
60560,note_on,0,0,0,,,,,,,,0,,,65,49
60640,note_on,80,0,0,,,,,,,,0,,,65,0
60640,note_on,0,0,0,,,,,,,,0,,,70,46
60640,note_on,0,0,0,,,,,,,,0,,,74,58
60720,note_on,80,0,0,,,,,,,,0,,,74,0
60720,note_on,0,0,0,,,,,,,,0,,,70,0
60720,note_on,0,0,0,,,,,,,,0,,,65,50
60800,note_on,80,0,0,,,,,,,,0,,,65,0
60800,note_on,0,0,0,,,,,,,,0,,,70,45
60800,note_on,0,0,0,,,,,,,,0,,,74,57
60880,note_on,80,0,0,,,,,,,,0,,,74,0
60880,note_on,0,0,0,,,,,,,,0,,,70,0
60880,note_on,0,0,0,,,,,,,,0,,,65,50
60960,set_tempo,80,1,0,,,,,,714286,,,,,,
60960,note_on,0,0,0,,,,,,,,0,,,65,0
60960,note_on,0,0,0,,,,,,,,0,,,77,0
60960,note_on,0,0,0,,,,,,,,0,,,74,72
60960,note_on,0,0,0,,,,,,,,0,,,65,45
60960,note_on,0,0,0,,,,,,,,0,,,70,57
61040,note_on,80,0,0,,,,,,,,0,,,70,0
61040,note_on,0,0,0,,,,,,,,0,,,65,0
61040,note_on,0,0,0,,,,,,,,0,,,62,47
61120,note_on,80,0,0,,,,,,,,0,,,62,0
61120,note_on,0,0,0,,,,,,,,0,,,65,45
61120,note_on,0,0,0,,,,,,,,0,,,70,57
61200,note_on,80,0,0,,,,,,,,0,,,70,0
61200,note_on,0,0,0,,,,,,,,0,,,65,0
61200,note_on,0,0,0,,,,,,,,0,,,62,49
61280,note_on,80,0,0,,,,,,,,0,,,62,0
61280,note_on,0,0,0,,,,,,,,0,,,65,45
61280,note_on,0,0,0,,,,,,,,0,,,70,56
61360,note_on,80,0,0,,,,,,,,0,,,70,0
61360,note_on,0,0,0,,,,,,,,0,,,65,0
61360,note_on,0,0,0,,,,,,,,0,,,62,49
61440,set_tempo,80,1,0,,,,,,741931,,,,,,
61440,note_on,0,0,0,,,,,,,,0,,,62,0
61440,note_on,0,0,0,,,,,,,,0,,,74,0
61440,note_on,0,0,0,,,,,,,,0,,,70,70
61440,note_on,0,0,0,,,,,,,,0,,,62,44
61440,note_on,0,0,0,,,,,,,,0,,,65,55
61520,note_on,80,0,0,,,,,,,,0,,,65,0
61520,note_on,0,0,0,,,,,,,,0,,,62,0
61520,note_on,0,0,0,,,,,,,,0,,,58,46
61600,note_on,80,0,0,,,,,,,,0,,,58,0
61600,note_on,0,0,0,,,,,,,,0,,,62,44
61600,note_on,0,0,0,,,,,,,,0,,,65,54
61680,note_on,80,0,0,,,,,,,,0,,,65,0
61680,note_on,0,0,0,,,,,,,,0,,,62,0
61680,note_on,0,0,0,,,,,,,,0,,,58,47
61760,note_on,80,0,0,,,,,,,,0,,,58,0
61760,note_on,0,0,0,,,,,,,,0,,,62,43
61760,note_on,0,0,0,,,,,,,,0,,,65,54
61840,note_on,80,0,0,,,,,,,,0,,,65,0
61840,note_on,0,0,0,,,,,,,,0,,,62,0
61840,note_on,0,0,0,,,,,,,,0,,,58,47
61920,note_on,80,0,0,,,,,,,,0,,,58,0
61920,note_on,0,0,0,,,,,,,,0,,,70,0
61920,note_on,0,0,0,,,,,,,,0,,,65,70
61920,note_on,0,0,0,,,,,,,,0,,,58,44
61920,note_on,0,0,0,,,,,,,,0,,,62,54
62000,note_on,80,0,0,,,,,,,,0,,,62,0
62000,note_on,0,0,0,,,,,,,,0,,,58,0
62000,note_on,0,0,0,,,,,,,,0,,,53,45
62080,note_on,80,0,0,,,,,,,,0,,,53,0
62080,note_on,0,0,0,,,,,,,,0,,,58,43
62080,note_on,0,0,0,,,,,,,,0,,,62,54
62160,note_on,80,0,0,,,,,,,,0,,,62,0
62160,note_on,0,0,0,,,,,,,,0,,,58,0
62160,note_on,0,0,0,,,,,,,,0,,,53,47
62240,note_on,80,0,0,,,,,,,,0,,,53,0
62240,note_on,0,0,0,,,,,,,,0,,,58,43
62240,note_on,0,0,0,,,,,,,,0,,,62,54
62320,note_on,80,0,0,,,,,,,,0,,,62,0
62320,note_on,0,0,0,,,,,,,,0,,,58,0
62320,note_on,0,0,0,,,,,,,,0,,,53,46
62360,set_tempo,40,1,0,,,,,,1419782,,,,,,
62360,note_on,0,0,0,,,,,,,,0,,,53,0
62360,note_on,0,0,0,,,,,,,,0,,,57,43
62380,note_on,20,0,0,,,,,,,,0,,,60,51
62400,set_tempo,20,1,0,,,,,,727802,,,,,,
62400,note_on,0,0,0,,,,,,,,0,,,65,0
62400,note_on,0,0,0,,,,,,,,0,,,66,64
62412,control_change,12,0,0,,,,,,,,0,64,0,,
62467,control_change,55,0,0,,,,,,,,0,64,127,,
62480,note_on,13,0,0,,,,,,,,0,,,60,0
62480,note_on,0,0,0,,,,,,,,0,,,57,0
62480,note_on,0,0,0,,,,,,,,0,,,51,45
62560,note_on,80,0,0,,,,,,,,0,,,51,0
62560,note_on,0,0,0,,,,,,,,0,,,57,52
62560,note_on,0,0,0,,,,,,,,0,,,60,52
62640,note_on,80,0,0,,,,,,,,0,,,60,0
62640,note_on,0,0,0,,,,,,,,0,,,57,0
62640,note_on,0,0,0,,,,,,,,0,,,51,46
62720,note_on,80,0,0,,,,,,,,0,,,51,0
62720,note_on,0,0,0,,,,,,,,0,,,57,50
62720,note_on,0,0,0,,,,,,,,0,,,60,50
62800,note_on,80,0,0,,,,,,,,0,,,60,0
62800,note_on,0,0,0,,,,,,,,0,,,57,0
62800,note_on,0,0,0,,,,,,,,0,,,51,45
62880,set_tempo,80,1,0,,,,,,741931,,,,,,
62880,note_on,0,0,0,,,,,,,,0,,,51,0
62880,note_on,0,0,0,,,,,,,,0,,,66,0
62880,note_on,0,0,0,,,,,,,,0,,,57,61
62880,note_on,0,0,0,,,,,,,,0,,,48,38
62880,note_on,0,0,0,,,,,,,,0,,,51,48
62887,control_change,7,0,0,,,,,,,,0,64,0,,
62919,control_change,32,0,0,,,,,,,,0,64,127,,
62960,note_on,41,0,0,,,,,,,,0,,,51,0
62960,note_on,0,0,0,,,,,,,,0,,,48,0
62960,note_on,0,0,0,,,,,,,,0,,,41,40
63040,note_on,80,0,0,,,,,,,,0,,,41,0
63040,note_on,0,0,0,,,,,,,,0,,,48,38
63040,note_on,0,0,0,,,,,,,,0,,,51,48
63120,note_on,80,0,0,,,,,,,,0,,,51,0
63120,note_on,0,0,0,,,,,,,,0,,,48,0
63120,note_on,0,0,0,,,,,,,,0,,,41,41
63200,note_on,80,0,0,,,,,,,,0,,,41,0
63200,note_on,0,0,0,,,,,,,,0,,,48,38
63200,note_on,0,0,0,,,,,,,,0,,,51,48
63280,note_on,80,0,0,,,,,,,,0,,,51,0
63280,note_on,0,0,0,,,,,,,,0,,,48,0
63280,note_on,0,0,0,,,,,,,,0,,,41,41
63360,note_on,80,0,0,,,,,,,,0,,,41,0
63360,note_on,0,0,0,,,,,,,,0,,,57,0
63360,note_on,0,0,0,,,,,,,,0,,,58,60
63360,note_on,0,0,0,,,,,,,,0,,,50,45
63367,control_change,7,0,0,,,,,,,,0,64,0,,
63413,control_change,46,0,0,,,,,,,,0,64,127,,
63440,note_on,27,0,0,,,,,,,,0,,,50,0
63440,note_on,0,0,0,,,,,,,,0,,,46,37
63520,note_on,80,0,0,,,,,,,,0,,,46,0
63520,note_on,0,0,0,,,,,,,,0,,,50,45
63600,note_on,80,0,0,,,,,,,,0,,,50,0
63600,note_on,0,0,0,,,,,,,,0,,,46,36
63680,note_on,80,0,0,,,,,,,,0,,,46,0
63680,note_on,0,0,0,,,,,,,,0,,,50,44
63760,note_on,80,0,0,,,,,,,,0,,,50,0
63760,note_on,0,0,0,,,,,,,,0,,,46,35
63800,set_tempo,40,1,0,,,,,,714286,,,,,,
63840,note_on,40,0,0,,,,,,,,0,,,46,0
63840,note_on,0,0,0,,,,,,,,0,,,58,0
63840,note_on,0,0,0,,,,,,,,0,,,57,58
63840,note_on,0,0,0,,,,,,,,0,,,50,44
63852,control_change,12,0,0,,,,,,,,0,64,0,,
63896,control_change,44,0,0,,,,,,,,0,64,127,,
63920,note_on,24,0,0,,,,,,,,0,,,50,0
63920,note_on,0,0,0,,,,,,,,0,,,46,35
64000,note_on,80,0,0,,,,,,,,0,,,46,0
64000,note_on,0,0,0,,,,,,,,0,,,50,43
64080,note_on,80,0,0,,,,,,,,0,,,50,0
64080,note_on,0,0,0,,,,,,,,0,,,46,35
64160,note_on,80,0,0,,,,,,,,0,,,46,0
64160,note_on,0,0,0,,,,,,,,0,,,50,43
64240,set_tempo,80,1,0,,,,,,718735,,,,,,
64240,note_on,0,0,0,,,,,,,,0,,,50,0
64240,note_on,0,0,0,,,,,,,,0,,,46,34
64320,note_on,80,0,0,,,,,,,,0,,,46,0
64320,note_on,0,0,0,,,,,,,,0,,,57,0
64320,note_on,0,0,0,,,,,,,,0,,,56,57
64320,note_on,0,0,0,,,,,,,,0,,,50,42
64329,control_change,9,0,0,,,,,,,,0,64,0,,
64369,control_change,40,0,0,,,,,,,,0,64,127,,
64400,note_on,31,0,0,,,,,,,,0,,,50,0
64400,note_on,0,0,0,,,,,,,,0,,,46,34
64480,note_on,80,0,0,,,,,,,,0,,,46,0
64480,note_on,0,0,0,,,,,,,,0,,,50,42
64560,note_on,80,0,0,,,,,,,,0,,,50,0
64560,note_on,0,0,0,,,,,,,,0,,,46,34
64640,set_tempo,80,1,0,,,,,,723240,,,,,,
64640,note_on,0,0,0,,,,,,,,0,,,46,0
64640,note_on,0,0,0,,,,,,,,0,,,50,41
64720,note_on,80,0,0,,,,,,,,0,,,50,0
64720,note_on,0,0,0,,,,,,,,0,,,46,30
64800,note_on,80,0,0,,,,,,,,0,,,46,0
64800,note_on,0,0,0,,,,,,,,0,,,56,0
64800,note_on,0,0,0,,,,,,,,0,,,55,55
64800,note_on,0,0,0,,,,,,,,0,,,51,41
64814,control_change,14,0,0,,,,,,,,0,64,0,,
64856,control_change,42,0,0,,,,,,,,0,64,127,,
64880,note_on,24,0,0,,,,,,,,0,,,51,0
64880,note_on,0,0,0,,,,,,,,0,,,46,32
64960,note_on,80,0,0,,,,,,,,0,,,46,0
64960,note_on,0,0,0,,,,,,,,0,,,51,40
65040,set_tempo,80,1,0,,,,,,727802,,,,,,
65040,note_on,0,0,0,,,,,,,,0,,,51,0
65040,note_on,0,0,0,,,,,,,,0,,,46,30
65120,note_on,80,0,0,,,,,,,,0,,,46,0
65120,note_on,0,0,0,,,,,,,,0,,,51,40
65200,note_on,80,0,0,,,,,,,,0,,,51,0
65200,note_on,0,0,0,,,,,,,,0,,,46,30
65280,note_on,80,0,0,,,,,,,,0,,,46,0
65280,note_on,0,0,0,,,,,,,,0,,,55,0
65280,note_on,0,0,0,,,,,,,,0,,,54,54
65280,note_on,0,0,0,,,,,,,,0,,,51,39
65292,control_change,12,0,0,,,,,,,,0,64,0,,
65360,note_on,68,0,0,,,,,,,,0,,,51,0
65360,note_on,0,0,0,,,,,,,,0,,,45,31
65365,control_change,5,0,0,,,,,,,,0,64,127,,
65440,set_tempo,75,1,0,,,,,,732422,,,,,,
65440,note_on,0,0,0,,,,,,,,0,,,45,0
65440,note_on,0,0,0,,,,,,,,0,,,51,39
65520,note_on,80,0,0,,,,,,,,0,,,51,0
65520,note_on,0,0,0,,,,,,,,0,,,45,29
65600,note_on,80,0,0,,,,,,,,0,,,45,0
65600,note_on,0,0,0,,,,,,,,0,,,51,38
65680,note_on,80,0,0,,,,,,,,0,,,51,0
65680,note_on,0,0,0,,,,,,,,0,,,45,29
65760,note_on,80,0,0,,,,,,,,0,,,45,0
65760,note_on,0,0,0,,,,,,,,0,,,54,0
65760,note_on,0,0,0,,,,,,,,0,,,53,53
65760,note_on,0,0,0,,,,,,,,0,,,51,38
65771,control_change,11,0,0,,,,,,,,0,64,0,,
65824,control_change,53,0,0,,,,,,,,0,64,127,,
65840,set_tempo,16,1,0,,,,,,737101,,,,,,
65840,note_on,0,0,0,,,,,,,,0,,,51,0
65840,note_on,0,0,0,,,,,,,,0,,,45,29
65920,note_on,80,0,0,,,,,,,,0,,,45,0
65920,note_on,0,0,0,,,,,,,,0,,,51,37
66000,note_on,80,0,0,,,,,,,,0,,,51,0
66000,note_on,0,0,0,,,,,,,,0,,,45,29
66080,note_on,80,0,0,,,,,,,,0,,,45,0
66080,note_on,0,0,0,,,,,,,,0,,,51,37
66160,set_tempo,80,1,0,,,,,,723240,,,,,,
66160,note_on,0,0,0,,,,,,,,0,,,51,0
66160,note_on,0,0,0,,,,,,,,0,,,45,29
66200,set_tempo,40,1,0,,,,,,727802,,,,,,
66240,note_on,40,0,0,,,,,,,,0,,,45,0
66240,note_on,0,0,0,,,,,,,,0,,,53,0
66240,note_on,0,0,0,,,,,,,,0,,,53,53
66240,note_on,0,0,0,,,,,,,,0,,,51,39
66249,control_change,9,0,0,,,,,,,,0,64,0,,
66251,control_change,2,0,0,,,,,,,,0,64,0,,
66289,control_change,38,0,0,,,,,,,,0,64,127,,
66320,note_on,31,0,0,,,,,,,,0,,,51,0
66320,note_on,0,0,0,,,,,,,,0,,,46,32
66400,note_on,80,0,0,,,,,,,,0,,,46,0
66400,note_on,0,0,0,,,,,,,,0,,,51,39
66480,note_on,80,0,0,,,,,,,,0,,,51,0
66480,note_on,0,0,0,,,,,,,,0,,,46,32
66560,note_on,80,0,0,,,,,,,,0,,,46,0
66560,note_on,0,0,0,,,,,,,,0,,,51,38
66640,note_on,80,0,0,,,,,,,,0,,,51,0
66640,note_on,0,0,0,,,,,,,,0,,,46,28
66720,set_tempo,80,1,0,,,,,,732422,,,,,,
66720,note_on,0,0,0,,,,,,,,0,,,46,0
66720,note_on,0,0,0,,,,,,,,0,,,51,38
66800,note_on,80,0,0,,,,,,,,0,,,51,0
66800,note_on,0,0,0,,,,,,,,0,,,46,30
66880,note_on,80,0,0,,,,,,,,0,,,46,0
66880,note_on,0,0,0,,,,,,,,0,,,51,37
66960,note_on,80,0,0,,,,,,,,0,,,51,0
66960,note_on,0,0,0,,,,,,,,0,,,46,28
67040,note_on,80,0,0,,,,,,,,0,,,46,0
67040,note_on,0,0,0,,,,,,,,0,,,51,37
67120,note_on,80,0,0,,,,,,,,0,,,51,0
67120,note_on,0,0,0,,,,,,,,0,,,46,28
67200,set_tempo,80,1,0,,,,,,737101,,,,,,
67200,note_on,0,0,0,,,,,,,,0,,,46,0
67200,note_on,0,0,0,,,,,,,,0,,,53,0
67200,note_on,0,0,0,,,,,,,,0,,,53,50
67200,note_on,0,0,0,,,,,,,,0,,,50,36
67212,control_change,12,0,0,,,,,,,,0,64,0,,
67280,note_on,68,0,0,,,,,,,,0,,,50,0
67280,note_on,0,0,0,,,,,,,,0,,,46,29
67285,control_change,5,0,0,,,,,,,,0,64,127,,
67360,note_on,75,0,0,,,,,,,,0,,,46,0
67360,note_on,0,0,0,,,,,,,,0,,,50,36
67440,note_on,80,0,0,,,,,,,,0,,,50,0
67440,note_on,0,0,0,,,,,,,,0,,,46,27
67520,note_on,80,0,0,,,,,,,,0,,,46,0
67520,note_on,0,0,0,,,,,,,,0,,,50,36
67600,note_on,80,0,0,,,,,,,,0,,,50,0
67600,note_on,0,0,0,,,,,,,,0,,,46,27
67680,set_tempo,80,1,0,,,,,,741931,,,,,,
67680,note_on,0,0,0,,,,,,,,0,,,46,0
67680,note_on,0,0,0,,,,,,,,0,,,50,36
67760,note_on,80,0,0,,,,,,,,0,,,50,0
67760,note_on,0,0,0,,,,,,,,0,,,46,27
67840,note_on,80,0,0,,,,,,,,0,,,46,0
67840,note_on,0,0,0,,,,,,,,0,,,50,35
67920,note_on,80,0,0,,,,,,,,0,,,50,0
67920,note_on,0,0,0,,,,,,,,0,,,46,27
68000,note_on,80,0,0,,,,,,,,0,,,46,0
68000,note_on,0,0,0,,,,,,,,0,,,50,35
68080,note_on,80,0,0,,,,,,,,0,,,50,0
68080,note_on,0,0,0,,,,,,,,0,,,46,27
68160,set_tempo,80,1,0,,,,,,746733,,,,,,
68160,note_on,0,0,0,,,,,,,,0,,,46,0
68160,note_on,0,0,0,,,,,,,,0,,,53,0
68160,note_on,0,0,0,,,,,,,,0,,,50,66
68160,note_on,0,0,0,,,,,,,,0,,,62,66
68160,note_on,0,0,0,,,,,,,,0,,,54,50
68160,note_on,0,0,0,,,,,,,,0,,,48,50
68173,control_change,13,0,0,,,,,,,,0,64,0,,
68224,control_change,51,0,0,,,,,,,,0,64,127,,
68240,note_on,16,0,0,,,,,,,,0,,,48,0
68240,note_on,0,0,0,,,,,,,,0,,,45,42
68320,note_on,80,0,0,,,,,,,,0,,,45,0
68320,note_on,0,0,0,,,,,,,,0,,,48,50
68400,note_on,80,0,0,,,,,,,,0,,,48,0
68400,note_on,0,0,0,,,,,,,,0,,,45,44
68480,note_on,80,0,0,,,,,,,,0,,,45,0
68480,note_on,0,0,0,,,,,,,,0,,,48,51
68560,note_on,80,0,0,,,,,,,,0,,,48,0
68560,note_on,0,0,0,,,,,,,,0,,,45,45
68640,set_tempo,80,1,0,,,,,,779221,,,,,,
68640,note_on,0,0,0,,,,,,,,0,,,45,0
68640,note_on,0,0,0,,,,,,,,0,,,48,52
68720,note_on,80,0,0,,,,,,,,0,,,48,0
68720,note_on,0,0,0,,,,,,,,0,,,45,46
68800,note_on,80,0,0,,,,,,,,0,,,45,0
68800,note_on,0,0,0,,,,,,,,0,,,48,53
68880,set_tempo,80,1,0,,,,,,864678,,,,,,
68880,note_on,0,0,0,,,,,,,,0,,,48,0
68880,note_on,0,0,0,,,,,,,,0,,,50,0
68880,note_on,0,0,0,,,,,,,,0,,,62,0
68880,note_on,0,0,0,,,,,,,,0,,,50,67
68880,note_on,0,0,0,,,,,,,,0,,,62,67
68880,note_on,0,0,0,,,,,,,,0,,,45,46
68960,note_on,80,0,0,,,,,,,,0,,,45,0
68960,note_on,0,0,0,,,,,,,,0,,,48,54
69040,note_on,80,0,0,,,,,,,,0,,,48,0
69040,note_on,0,0,0,,,,,,,,0,,,45,47
69100,set_tempo,60,1,0,,,,,,745342,,,,,,
69120,note_on,20,0,0,,,,,,,,0,,,45,0
69120,note_on,0,0,0,,,,,,,,0,,,54,0
69120,note_on,0,0,0,,,,,,,,0,,,50,0
69120,note_on,0,0,0,,,,,,,,0,,,62,0
69120,note_on,0,0,0,,,,,,,,0,,,50,53
69120,note_on,0,0,0,,,,,,,,0,,,59,53
69120,note_on,0,0,0,,,,,,,,0,,,31,50
69120,note_on,0,0,0,,,,,,,,0,,,35,50
69120,note_on,0,0,0,,,,,,,,0,,,38,50
69120,note_on,0,0,0,,,,,,,,0,,,43,60
69131,control_change,11,0,0,,,,,,,,0,64,0,,
69180,set_tempo,49,1,0,,,,,,740741,,,,,,
69180,note_on,0,0,0,,,,,,,,0,,,59,0
69180,note_on,0,0,0,,,,,,,,0,,,50,0
69180,note_on,0,0,0,,,,,,,,0,,,62,45
69180,control_change,0,0,0,,,,,,,,0,64,127,,
69240,note_on,60,0,0,,,,,,,,0,,,62,0
69240,note_on,0,0,0,,,,,,,,0,,,50,53
69240,note_on,0,0,0,,,,,,,,0,,,59,53
69260,set_tempo,20,1,0,,,,,,736196,,,,,,
69300,note_on,40,0,0,,,,,,,,0,,,59,0
69300,note_on,0,0,0,,,,,,,,0,,,50,0
69300,note_on,0,0,0,,,,,,,,0,,,62,46
69340,set_tempo,40,1,0,,,,,,731707,,,,,,
69360,note_on,20,0,0,,,,,,,,0,,,62,0
69360,note_on,0,0,0,,,,,,,,0,,,50,52
69360,note_on,0,0,0,,,,,,,,0,,,59,52
69400,set_tempo,40,1,0,,,,,,727273,,,,,,
69420,note_on,20,0,0,,,,,,,,0,,,59,0
69420,note_on,0,0,0,,,,,,,,0,,,50,0
69420,note_on,0,0,0,,,,,,,,0,,,62,45
69480,set_tempo,60,1,0,,,,,,722892,,,,,,
69480,note_on,0,0,0,,,,,,,,0,,,62,0
69480,note_on,0,0,0,,,,,,,,0,,,50,51
69480,note_on,0,0,0,,,,,,,,0,,,59,51
69540,note_on,60,0,0,,,,,,,,0,,,59,0
69540,note_on,0,0,0,,,,,,,,0,,,50,0
69540,note_on,0,0,0,,,,,,,,0,,,62,46
69560,set_tempo,20,1,0,,,,,,718563,,,,,,
69600,note_on,40,0,0,,,,,,,,0,,,62,0
69600,note_on,0,0,0,,,,,,,,0,,,50,51
69600,note_on,0,0,0,,,,,,,,0,,,59,51
69620,set_tempo,20,1,0,,,,,,714286,,,,,,
69660,note_on,40,0,0,,,,,,,,0,,,59,0
69660,note_on,0,0,0,,,,,,,,0,,,50,0
69660,note_on,0,0,0,,,,,,,,0,,,62,44
69700,set_tempo,40,1,0,,,,,,710059,,,,,,
69720,note_on,20,0,0,,,,,,,,0,,,62,0
69720,note_on,0,0,0,,,,,,,,0,,,50,50
69720,note_on,0,0,0,,,,,,,,0,,,59,50
69780,set_tempo,60,1,0,,,,,,705882,,,,,,
69780,note_on,0,0,0,,,,,,,,0,,,59,0
69780,note_on,0,0,0,,,,,,,,0,,,50,0
69780,note_on,0,0,0,,,,,,,,0,,,62,45
69840,set_tempo,60,1,0,,,,,,701754,,,,,,
69840,note_on,0,0,0,,,,,,,,0,,,62,0
69840,note_on,0,0,0,,,,,,,,0,,,50,50
69840,note_on,0,0,0,,,,,,,,0,,,59,50
69900,note_on,60,0,0,,,,,,,,0,,,59,0
69900,note_on,0,0,0,,,,,,,,0,,,50,0
69900,note_on,0,0,0,,,,,,,,0,,,62,44
69960,note_on,60,0,0,,,,,,,,0,,,62,0
69960,note_on,0,0,0,,,,,,,,0,,,50,49
69960,note_on,0,0,0,,,,,,,,0,,,59,49
69980,set_tempo,20,1,0,,,,,,701754,,,,,,
70020,note_on,40,0,0,,,,,,,,0,,,59,0
70020,note_on,0,0,0,,,,,,,,0,,,50,0
70020,note_on,0,0,0,,,,,,,,0,,,62,45
70060,set_tempo,40,1,0,,,,,,705882,,,,,,
70080,note_on,20,0,0,,,,,,,,0,,,62,0
70080,note_on,0,0,0,,,,,,,,0,,,31,0
70080,note_on,0,0,0,,,,,,,,0,,,35,0
70080,note_on,0,0,0,,,,,,,,0,,,43,0
70080,note_on,0,0,0,,,,,,,,0,,,38,0
70080,note_on,0,0,0,,,,,,,,0,,,50,49
70080,note_on,0,0,0,,,,,,,,0,,,59,49
70140,set_tempo,60,1,0,,,,,,710059,,,,,,
70140,note_on,0,0,0,,,,,,,,0,,,59,0
70140,note_on,0,0,0,,,,,,,,0,,,50,0
70140,note_on,0,0,0,,,,,,,,0,,,62,42
70200,set_tempo,60,1,0,,,,,,714286,,,,,,
70200,note_on,0,0,0,,,,,,,,0,,,62,0
70200,note_on,0,0,0,,,,,,,,0,,,50,48
70200,note_on,0,0,0,,,,,,,,0,,,59,48
70260,note_on,60,0,0,,,,,,,,0,,,59,0
70260,note_on,0,0,0,,,,,,,,0,,,50,0
70260,note_on,0,0,0,,,,,,,,0,,,62,43
70280,set_tempo,20,1,0,,,,,,718563,,,,,,
70320,note_on,40,0,0,,,,,,,,0,,,62,0
70320,note_on,0,0,0,,,,,,,,0,,,50,48
70320,note_on,0,0,0,,,,,,,,0,,,59,48
70360,set_tempo,40,1,0,,,,,,722892,,,,,,
70380,note_on,20,0,0,,,,,,,,0,,,59,0
70380,note_on,0,0,0,,,,,,,,0,,,50,0
70380,note_on,0,0,0,,,,,,,,0,,,62,42
70420,set_tempo,40,1,0,,,,,,727273,,,,,,
70440,note_on,20,0,0,,,,,,,,0,,,62,0
70440,note_on,0,0,0,,,,,,,,0,,,50,47
70440,note_on,0,0,0,,,,,,,,0,,,59,47
70500,set_tempo,60,1,0,,,,,,731707,,,,,,
70500,note_on,0,0,0,,,,,,,,0,,,59,0
70500,note_on,0,0,0,,,,,,,,0,,,50,0
70500,note_on,0,0,0,,,,,,,,0,,,62,43
70560,set_tempo,60,1,0,,,,,,736196,,,,,,
70560,note_on,0,0,0,,,,,,,,0,,,62,0
70560,note_on,0,0,0,,,,,,,,0,,,67,71
70560,note_on,0,0,0,,,,,,,,0,,,79,71
70560,note_on,0,0,0,,,,,,,,0,,,47,64
70571,control_change,11,0,0,,,,,,,,0,64,0,,
70603,control_change,32,0,0,,,,,,,,0,64,127,,
70640,note_on,37,0,0,,,,,,,,0,,,47,0
70640,note_on,0,0,0,,,,,,,,0,,,55,55
70720,note_on,80,0,0,,,,,,,,0,,,55,0
70720,note_on,0,0,0,,,,,,,,0,,,47,63
70800,note_on,80,0,0,,,,,,,,0,,,47,0
70800,note_on,0,0,0,,,,,,,,0,,,55,53
70880,note_on,80,0,0,,,,,,,,0,,,55,0
70880,note_on,0,0,0,,,,,,,,0,,,47,63
70960,note_on,80,0,0,,,,,,,,0,,,47,0
70960,note_on,0,0,0,,,,,,,,0,,,55,55
71040,note_on,80,0,0,,,,,,,,0,,,55,0
71040,note_on,0,0,0,,,,,,,,0,,,79,0
71040,note_on,0,0,0,,,,,,,,0,,,67,0
71040,note_on,0,0,0,,,,,,,,0,,,66,69
71040,note_on,0,0,0,,,,,,,,0,,,78,69
71040,note_on,0,0,0,,,,,,,,0,,,48,63
71050,control_change,10,0,0,,,,,,,,0,64,0,,
71091,control_change,41,0,0,,,,,,,,0,64,127,,
71120,note_on,29,0,0,,,,,,,,0,,,48,0
71120,note_on,0,0,0,,,,,,,,0,,,57,55
71200,note_on,80,0,0,,,,,,,,0,,,57,0
71200,note_on,0,0,0,,,,,,,,0,,,48,63
71280,note_on,80,0,0,,,,,,,,0,,,48,0
71280,note_on,0,0,0,,,,,,,,0,,,57,53
71360,note_on,80,0,0,,,,,,,,0,,,57,0
71360,note_on,0,0,0,,,,,,,,0,,,48,62
71440,note_on,80,0,0,,,,,,,,0,,,48,0
71440,note_on,0,0,0,,,,,,,,0,,,57,53
71520,set_tempo,80,1,0,,,,,,766675,,,,,,
71520,note_on,0,0,0,,,,,,,,0,,,57,0
71520,note_on,0,0,0,,,,,,,,0,,,78,0
71520,note_on,0,0,0,,,,,,,,0,,,66,0
71520,note_on,0,0,0,,,,,,,,0,,,65,67
71520,note_on,0,0,0,,,,,,,,0,,,77,67
71520,note_on,0,0,0,,,,,,,,0,,,50,62
71529,control_change,9,0,0,,,,,,,,0,64,0,,
71563,control_change,34,0,0,,,,,,,,0,64,127,,
71600,note_on,37,0,0,,,,,,,,0,,,50,0
71600,note_on,0,0,0,,,,,,,,0,,,59,54
71680,note_on,80,0,0,,,,,,,,0,,,59,0
71680,note_on,0,0,0,,,,,,,,0,,,50,63
71760,note_on,80,0,0,,,,,,,,0,,,50,0
71760,note_on,0,0,0,,,,,,,,0,,,59,57
71840,note_on,80,0,0,,,,,,,,0,,,59,0
71840,note_on,0,0,0,,,,,,,,0,,,50,64
71920,note_on,80,0,0,,,,,,,,0,,,50,0
71920,note_on,0,0,0,,,,,,,,0,,,59,59
72000,set_tempo,80,1,0,,,,,,732422,,,,,,
72000,note_on,0,0,0,,,,,,,,0,,,59,0
72000,note_on,0,0,0,,,,,,,,0,,,77,0
72000,note_on,0,0,0,,,,,,,,0,,,65,0
72000,note_on,0,0,0,,,,,,,,0,,,63,66
72000,note_on,0,0,0,,,,,,,,0,,,75,66
72000,note_on,0,0,0,,,,,,,,0,,,51,67
72009,control_change,9,0,0,,,,,,,,0,64,0,,
72043,control_change,34,0,0,,,,,,,,0,64,127,,
72080,note_on,37,0,0,,,,,,,,0,,,51,0
72080,note_on,0,0,0,,,,,,,,0,,,60,54
72160,note_on,80,0,0,,,,,,,,0,,,60,0
72160,note_on,0,0,0,,,,,,,,0,,,51,60
72240,note_on,80,0,0,,,,,,,,0,,,51,0
72240,note_on,0,0,0,,,,,,,,0,,,60,52
72320,note_on,80,0,0,,,,,,,,0,,,60,0
72320,note_on,0,0,0,,,,,,,,0,,,51,60
72400,note_on,80,0,0,,,,,,,,0,,,51,0
72400,note_on,0,0,0,,,,,,,,0,,,60,52
72480,set_tempo,80,1,0,,,,,,751597,,,,,,
72480,note_on,0,0,0,,,,,,,,0,,,60,0
72480,note_on,0,0,0,,,,,,,,0,,,75,0
72480,note_on,0,0,0,,,,,,,,0,,,63,0
72480,note_on,0,0,0,,,,,,,,0,,,68,59
72480,note_on,0,0,0,,,,,,,,0,,,71,65
72480,note_on,0,0,0,,,,,,,,0,,,74,65
72480,note_on,0,0,0,,,,,,,,0,,,53,59
72494,control_change,14,0,0,,,,,,,,0,64,0,,
72520,control_change,26,0,0,,,,,,,,0,64,127,,
72560,note_on,40,0,0,,,,,,,,0,,,53,0
72560,note_on,0,0,0,,,,,,,,0,,,62,53
72640,note_on,80,0,0,,,,,,,,0,,,62,0
72640,note_on,0,0,0,,,,,,,,0,,,53,58
72720,note_on,80,0,0,,,,,,,,0,,,53,0
72720,note_on,0,0,0,,,,,,,,0,,,62,51
72800,note_on,80,0,0,,,,,,,,0,,,62,0
72800,note_on,0,0,0,,,,,,,,0,,,53,58
72880,note_on,80,0,0,,,,,,,,0,,,53,0
72880,note_on,0,0,0,,,,,,,,0,,,62,51
72960,note_on,80,0,0,,,,,,,,0,,,62,0
72960,note_on,0,0,0,,,,,,,,0,,,74,0
72960,note_on,0,0,0,,,,,,,,0,,,71,0
72960,note_on,0,0,0,,,,,,,,0,,,68,0
72960,note_on,0,0,0,,,,,,,,0,,,67,63
72960,note_on,0,0,0,,,,,,,,0,,,72,63
72960,note_on,0,0,0,,,,,,,,0,,,55,57
72971,control_change,11,0,0,,,,,,,,0,64,0,,
72997,control_change,26,0,0,,,,,,,,0,64,127,,
73040,note_on,43,0,0,,,,,,,,0,,,55,0
73040,note_on,0,0,0,,,,,,,,0,,,63,51
73120,note_on,80,0,0,,,,,,,,0,,,63,0
73120,note_on,0,0,0,,,,,,,,0,,,55,56
73200,note_on,80,0,0,,,,,,,,0,,,55,0
73200,note_on,0,0,0,,,,,,,,0,,,63,50
73280,note_on,80,0,0,,,,,,,,0,,,63,0
73280,note_on,0,0,0,,,,,,,,0,,,55,57
73360,note_on,80,0,0,,,,,,,,0,,,55,0
73360,note_on,0,0,0,,,,,,,,0,,,63,51
73440,set_tempo,80,1,0,,,,,,714286,,,,,,
73440,note_on,0,0,0,,,,,,,,0,,,63,0
73440,note_on,0,0,0,,,,,,,,0,,,72,0
73440,note_on,0,0,0,,,,,,,,0,,,67,0
73440,note_on,0,0,0,,,,,,,,0,,,63,63
73440,note_on,0,0,0,,,,,,,,0,,,55,63
73440,note_on,0,0,0,,,,,,,,0,,,27,55
73440,note_on,0,0,0,,,,,,,,0,,,39,66
73457,control_change,17,0,0,,,,,,,,0,64,0,,
73511,control_change,54,0,0,,,,,,,,0,64,127,,
73520,note_on,9,0,0,,,,,,,,0,,,55,0
73520,note_on,0,0,0,,,,,,,,0,,,63,0
73520,note_on,0,0,0,,,,,,,,0,,,67,51
73560,set_tempo,40,1,0,,,,,,710059,,,,,,
73600,note_on,40,0,0,,,,,,,,0,,,67,0
73600,note_on,0,0,0,,,,,,,,0,,,63,58
73600,note_on,0,0,0,,,,,,,,0,,,55,58
73680,set_tempo,80,1,0,,,,,,705882,,,,,,
73680,note_on,0,0,0,,,,,,,,0,,,55,0
73680,note_on,0,0,0,,,,,,,,0,,,63,0
73680,note_on,0,0,0,,,,,,,,0,,,67,52
73760,note_on,80,0,0,,,,,,,,0,,,67,0
73760,note_on,0,0,0,,,,,,,,0,,,55,60
73760,note_on,0,0,0,,,,,,,,0,,,63,60
73800,set_tempo,40,1,0,,,,,,701754,,,,,,
73840,note_on,40,0,0,,,,,,,,0,,,63,0
73840,note_on,0,0,0,,,,,,,,0,,,55,0
73840,note_on,0,0,0,,,,,,,,0,,,67,54
73920,set_tempo,80,1,0,,,,,,697674,,,,,,
73920,note_on,0,0,0,,,,,,,,0,,,67,0
73920,note_on,0,0,0,,,,,,,,0,,,27,0
73920,note_on,0,0,0,,,,,,,,0,,,39,0
73920,note_on,0,0,0,,,,,,,,0,,,62,66
73920,note_on,0,0,0,,,,,,,,0,,,53,66
73920,note_on,0,0,0,,,,,,,,0,,,29,56
73920,note_on,0,0,0,,,,,,,,0,,,41,67
73939,control_change,19,0,0,,,,,,,,0,64,0,,
73994,control_change,55,0,0,,,,,,,,0,64,127,,
74000,note_on,6,0,0,,,,,,,,0,,,53,0
74000,note_on,0,0,0,,,,,,,,0,,,62,0
74000,note_on,0,0,0,,,,,,,,0,,,65,55
74080,note_on,80,0,0,,,,,,,,0,,,65,0
74080,note_on,0,0,0,,,,,,,,0,,,62,62
74080,note_on,0,0,0,,,,,,,,0,,,53,62
74160,note_on,80,0,0,,,,,,,,0,,,53,0
74160,note_on,0,0,0,,,,,,,,0,,,62,0
74160,note_on,0,0,0,,,,,,,,0,,,65,56
74240,note_on,80,0,0,,,,,,,,0,,,65,0
74240,note_on,0,0,0,,,,,,,,0,,,53,63
74240,note_on,0,0,0,,,,,,,,0,,,62,63
74320,note_on,80,0,0,,,,,,,,0,,,62,0
74320,note_on,0,0,0,,,,,,,,0,,,53,0
74320,note_on,0,0,0,,,,,,,,0,,,65,57
74400,note_on,80,0,0,,,,,,,,0,,,65,0
74400,note_on,0,0,0,,,,,,,,0,,,29,0
74400,note_on,0,0,0,,,,,,,,0,,,41,0
74400,note_on,0,0,0,,,,,,,,0,,,60,70
74400,note_on,0,0,0,,,,,,,,0,,,51,70
74400,note_on,0,0,0,,,,,,,,0,,,30,57
74400,note_on,0,0,0,,,,,,,,0,,,42,69
74406,control_change,6,0,0,,,,,,,,0,64,0,,
74431,control_change,25,0,0,,,,,,,,0,64,127,,
74480,note_on,49,0,0,,,,,,,,0,,,51,0
74480,note_on,0,0,0,,,,,,,,0,,,60,0
74480,note_on,0,0,0,,,,,,,,0,,,63,58
74560,note_on,80,0,0,,,,,,,,0,,,63,0
74560,note_on,0,0,0,,,,,,,,0,,,60,65
74560,note_on,0,0,0,,,,,,,,0,,,51,65
74640,set_tempo,80,1,0,,,,,,787608,,,,,,
74640,note_on,0,0,0,,,,,,,,0,,,51,0
74640,note_on,0,0,0,,,,,,,,0,,,42,0
74640,note_on,0,0,0,,,,,,,,0,,,30,0
74640,note_on,0,0,0,,,,,,,,0,,,60,0
74640,note_on,0,0,0,,,,,,,,0,,,63,60
74720,note_on,80,0,0,,,,,,,,0,,,63,0
74720,note_on,0,0,0,,,,,,,,0,,,51,67
74720,note_on,0,0,0,,,,,,,,0,,,60,67
74760,set_tempo,40,1,0,,,,,,1197844,,,,,,
74760,note_on,0,0,0,,,,,,,,0,,,31,58
74790,note_on,30,0,0,,,,,,,,0,,,31,0
74790,note_on,0,0,0,,,,,,,,0,,,35,62
74800,note_on,10,0,0,,,,,,,,0,,,60,0
74800,note_on,0,0,0,,,,,,,,0,,,51,0
74800,note_on,0,0,0,,,,,,,,0,,,63,62
74820,note_on,20,0,0,,,,,,,,0,,,35,0
74820,note_on,0,0,0,,,,,,,,0,,,38,66
74850,note_on,30,0,0,,,,,,,,0,,,38,0
74850,note_on,0,0,0,,,,,,,,0,,,43,70
74880,set_tempo,30,1,0,,,,,,727802,,,,,,
74880,note_on,0,0,0,,,,,,,,0,,,43,0
74880,note_on,0,0,0,,,,,,,,0,,,63,0
74880,note_on,0,0,0,,,,,,,,0,,,50,53
74880,note_on,0,0,0,,,,,,,,0,,,59,53
74880,note_on,0,0,0,,,,,,,,0,,,71,80
74880,note_on,0,0,0,,,,,,,,0,,,74,80
74887,control_change,7,0,0,,,,,,,,0,64,0,,
74923,control_change,36,0,0,,,,,,,,0,64,127,,
74940,note_on,17,0,0,,,,,,,,0,,,59,0
74940,note_on,0,0,0,,,,,,,,0,,,50,0
74940,note_on,0,0,0,,,,,,,,0,,,62,45
74960,set_tempo,20,1,0,,,,,,723240,,,,,,
75000,note_on,40,0,0,,,,,,,,0,,,62,0
75000,note_on,0,0,0,,,,,,,,0,,,50,53
75000,note_on,0,0,0,,,,,,,,0,,,59,53
75020,set_tempo,20,1,0,,,,,,718735,,,,,,
75060,note_on,40,0,0,,,,,,,,0,,,59,0
75060,note_on,0,0,0,,,,,,,,0,,,50,0
75060,note_on,0,0,0,,,,,,,,0,,,62,48
75080,set_tempo,20,1,0,,,,,,714286,,,,,,
75120,note_on,40,0,0,,,,,,,,0,,,62,0
75120,note_on,0,0,0,,,,,,,,0,,,50,54
75120,note_on,0,0,0,,,,,,,,0,,,59,54
75140,set_tempo,20,1,0,,,,,,709807,,,,,,
75180,note_on,40,0,0,,,,,,,,0,,,59,0
75180,note_on,0,0,0,,,,,,,,0,,,50,0
75180,note_on,0,0,0,,,,,,,,0,,,62,47
75220,set_tempo,40,1,0,,,,,,705467,,,,,,
75240,note_on,20,0,0,,,,,,,,0,,,62,0
75240,note_on,0,0,0,,,,,,,,0,,,50,54
75240,note_on,0,0,0,,,,,,,,0,,,59,54
75280,set_tempo,40,1,0,,,,,,701180,,,,,,
75300,note_on,20,0,0,,,,,,,,0,,,59,0
75300,note_on,0,0,0,,,,,,,,0,,,50,0
75300,note_on,0,0,0,,,,,,,,0,,,62,50
75340,set_tempo,40,1,0,,,,,,696945,,,,,,
75360,note_on,20,0,0,,,,,,,,0,,,62,0
75360,note_on,0,0,0,,,,,,,,0,,,50,54
75360,note_on,0,0,0,,,,,,,,0,,,59,54
75400,set_tempo,40,1,0,,,,,,684463,,,,,,
75420,note_on,20,0,0,,,,,,,,0,,,59,0
75420,note_on,0,0,0,,,,,,,,0,,,50,0
75420,note_on,0,0,0,,,,,,,,0,,,62,47
75480,note_on,60,0,0,,,,,,,,0,,,62,0
75480,note_on,0,0,0,,,,,,,,0,,,50,55
75480,note_on,0,0,0,,,,,,,,0,,,59,55
75540,set_tempo,60,1,0,,,,,,688547,,,,,,
75540,note_on,0,0,0,,,,,,,,0,,,59,0
75540,note_on,0,0,0,,,,,,,,0,,,50,0
75540,note_on,0,0,0,,,,,,,,0,,,62,50
75600,note_on,60,0,0,,,,,,,,0,,,62,0
75600,note_on,0,0,0,,,,,,,,0,,,50,56
75600,note_on,0,0,0,,,,,,,,0,,,59,56
75660,set_tempo,60,1,0,,,,,,692761,,,,,,
75660,note_on,0,0,0,,,,,,,,0,,,59,0
75660,note_on,0,0,0,,,,,,,,0,,,50,0
75660,note_on,0,0,0,,,,,,,,0,,,62,50
75720,note_on,60,0,0,,,,,,,,0,,,62,0
75720,note_on,0,0,0,,,,,,,,0,,,50,56
75720,note_on,0,0,0,,,,,,,,0,,,59,56
75780,set_tempo,60,1,0,,,,,,696945,,,,,,
75780,note_on,0,0,0,,,,,,,,0,,,59,0
75780,note_on,0,0,0,,,,,,,,0,,,50,0
75780,note_on,0,0,0,,,,,,,,0,,,62,52
75840,note_on,60,0,0,,,,,,,,0,,,62,0
75840,note_on,0,0,0,,,,,,,,0,,,50,57
75840,note_on,0,0,0,,,,,,,,0,,,59,57
75900,set_tempo,60,1,0,,,,,,701180,,,,,,
75900,note_on,0,0,0,,,,,,,,0,,,59,0
75900,note_on,0,0,0,,,,,,,,0,,,50,0
75900,note_on,0,0,0,,,,,,,,0,,,62,49
75960,note_on,60,0,0,,,,,,,,0,,,62,0
75960,note_on,0,0,0,,,,,,,,0,,,50,56
75960,note_on,0,0,0,,,,,,,,0,,,59,56
76020,set_tempo,60,1,0,,,,,,705467,,,,,,
76020,note_on,0,0,0,,,,,,,,0,,,59,0
76020,note_on,0,0,0,,,,,,,,0,,,50,0
76020,note_on,0,0,0,,,,,,,,0,,,62,50
76080,note_on,60,0,0,,,,,,,,0,,,62,0
76080,note_on,0,0,0,,,,,,,,0,,,50,54
76080,note_on,0,0,0,,,,,,,,0,,,59,54
76140,set_tempo,60,1,0,,,,,,709807,,,,,,
76140,note_on,0,0,0,,,,,,,,0,,,59,0
76140,note_on,0,0,0,,,,,,,,0,,,50,0
76140,note_on,0,0,0,,,,,,,,0,,,62,48
76200,note_on,60,0,0,,,,,,,,0,,,62,0
76200,note_on,0,0,0,,,,,,,,0,,,50,54
76200,note_on,0,0,0,,,,,,,,0,,,59,54
76260,set_tempo,60,1,0,,,,,,714286,,,,,,
76260,note_on,0,0,0,,,,,,,,0,,,59,0
76260,note_on,0,0,0,,,,,,,,0,,,50,0
76260,note_on,0,0,0,,,,,,,,0,,,62,48
76320,set_tempo,60,1,0,,,,,,657102,,,,,,
76320,note_on,0,0,0,,,,,,,,0,,,62,0
76320,note_on,0,0,0,,,,,,,,0,,,71,0
76320,note_on,0,0,0,,,,,,,,0,,,74,0
76320,note_on,0,0,0,,,,,,,,0,,,53,74
76334,control_change,14,0,0,,,,,,,,0,64,0,,
76371,control_change,37,0,0,,,,,,,,0,64,127,,
76400,note_on,29,0,0,,,,,,,,0,,,56,54
76440,note_on,40,0,0,,,,,,,,0,,,53,0
76480,note_on,40,0,0,,,,,,,,0,,,56,0
76480,note_on,0,0,0,,,,,,,,0,,,53,60
76560,set_tempo,80,1,0,,,,,,638842,,,,,,
76560,note_on,0,0,0,,,,,,,,0,,,53,0
76560,note_on,0,0,0,,,,,,,,0,,,59,54
76560,note_on,0,0,0,,,,,,,,0,,,62,54
76560,note_on,0,0,0,,,,,,,,0,,,71,65
76560,note_on,0,0,0,,,,,,,,0,,,56,54
76640,note_on,80,0,0,,,,,,,,0,,,56,0
76640,note_on,0,0,0,,,,,,,,0,,,53,60
76720,note_on,80,0,0,,,,,,,,0,,,53,0
76720,note_on,0,0,0,,,,,,,,0,,,56,54
76800,note_on,80,0,0,,,,,,,,0,,,56,0
76800,note_on,0,0,0,,,,,,,,0,,,51,75
76811,control_change,11,0,0,,,,,,,,0,64,0,,
76840,control_change,29,0,0,,,,,,,,0,64,127,,
76880,note_on,40,0,0,,,,,,,,0,,,55,52
76920,note_on,40,0,0,,,,,,,,0,,,51,0
76960,note_on,40,0,0,,,,,,,,0,,,55,0
76960,note_on,0,0,0,,,,,,,,0,,,51,57
77040,note_on,80,0,0,,,,,,,,0,,,51,0
77040,note_on,0,0,0,,,,,,,,0,,,59,0
77040,note_on,0,0,0,,,,,,,,0,,,62,0
77040,note_on,0,0,0,,,,,,,,0,,,71,0
77040,note_on,0,0,0,,,,,,,,0,,,60,59
77040,note_on,0,0,0,,,,,,,,0,,,63,59
77040,note_on,0,0,0,,,,,,,,0,,,72,71
77040,note_on,0,0,0,,,,,,,,0,,,55,53
77120,note_on,80,0,0,,,,,,,,0,,,55,0
77120,note_on,0,0,0,,,,,,,,0,,,51,57
77200,note_on,80,0,0,,,,,,,,0,,,51,0
77200,note_on,0,0,0,,,,,,,,0,,,55,54
77240,set_tempo,40,1,0,,,,,,649702,,,,,,
77260,set_tempo,20,1,0,,,,,,634921,,,,,,
77280,note_on,20,0,0,,,,,,,,0,,,55,0
77280,note_on,0,0,0,,,,,,,,0,,,44,76
77301,control_change,21,0,0,,,,,,,,0,64,0,,
77331,control_change,30,0,0,,,,,,,,0,64,127,,
77360,note_on,29,0,0,,,,,,,,0,,,53,56
77400,note_on,40,0,0,,,,,,,,0,,,44,0
77420,set_tempo,20,1,0,,,,,,631579,,,,,,
77440,note_on,20,0,0,,,,,,,,0,,,53,0
77440,note_on,0,0,0,,,,,,,,0,,,44,61
77520,note_on,80,0,0,,,,,,,,0,,,44,0
77520,note_on,0,0,0,,,,,,,,0,,,60,0
77520,note_on,0,0,0,,,,,,,,0,,,63,0
77520,note_on,0,0,0,,,,,,,,0,,,72,0
77520,note_on,0,0,0,,,,,,,,0,,,62,60
77520,note_on,0,0,0,,,,,,,,0,,,65,60
77520,note_on,0,0,0,,,,,,,,0,,,74,72
77520,note_on,0,0,0,,,,,,,,0,,,53,55
77580,set_tempo,60,1,0,,,,,,628272,,,,,,
77600,note_on,20,0,0,,,,,,,,0,,,53,0
77600,note_on,0,0,0,,,,,,,,0,,,44,61
77680,note_on,80,0,0,,,,,,,,0,,,44,0
77680,note_on,0,0,0,,,,,,,,0,,,53,61
77740,set_tempo,60,1,0,,,,,,625000,,,,,,
77760,note_on,20,0,0,,,,,,,,0,,,53,0
77760,note_on,0,0,0,,,,,,,,0,,,43,77
77772,control_change,12,0,0,,,,,,,,0,64,0,,
77794,control_change,22,0,0,,,,,,,,0,64,127,,
77840,note_on,46,0,0,,,,,,,,0,,,51,54
77880,note_on,40,0,0,,,,,,,,0,,,43,0
77900,set_tempo,20,1,0,,,,,,621762,,,,,,
77920,note_on,20,0,0,,,,,,,,0,,,51,0
77920,note_on,0,0,0,,,,,,,,0,,,43,60
78000,note_on,80,0,0,,,,,,,,0,,,43,0
78000,note_on,0,0,0,,,,,,,,0,,,62,0
78000,note_on,0,0,0,,,,,,,,0,,,65,0
78000,note_on,0,0,0,,,,,,,,0,,,74,0
78000,note_on,0,0,0,,,,,,,,0,,,63,63
78000,note_on,0,0,0,,,,,,,,0,,,67,63
78000,note_on,0,0,0,,,,,,,,0,,,75,74
78000,note_on,0,0,0,,,,,,,,0,,,51,56
78060,set_tempo,60,1,0,,,,,,618557,,,,,,
78080,note_on,20,0,0,,,,,,,,0,,,51,0
78080,note_on,0,0,0,,,,,,,,0,,,43,61
78160,note_on,80,0,0,,,,,,,,0,,,43,0
78160,note_on,0,0,0,,,,,,,,0,,,51,55
78220,set_tempo,60,1,0,,,,,,615385,,,,,,
78240,note_on,20,0,0,,,,,,,,0,,,51,0
78240,note_on,0,0,0,,,,,,,,0,,,41,77
78250,control_change,10,0,0,,,,,,,,0,64,0,,
78291,control_change,41,0,0,,,,,,,,0,64,127,,
78320,note_on,29,0,0,,,,,,,,0,,,50,58
78360,note_on,40,0,0,,,,,,,,0,,,41,0
78400,note_on,40,0,0,,,,,,,,0,,,50,0
78400,note_on,0,0,0,,,,,,,,0,,,41,63
78440,set_tempo,40,1,0,,,,,,612245,,,,,,
78480,note_on,40,0,0,,,,,,,,0,,,41,0
78480,note_on,0,0,0,,,,,,,,0,,,63,0
78480,note_on,0,0,0,,,,,,,,0,,,67,0
78480,note_on,0,0,0,,,,,,,,0,,,75,0
78480,note_on,0,0,0,,,,,,,,0,,,65,64
78480,note_on,0,0,0,,,,,,,,0,,,74,64
78480,note_on,0,0,0,,,,,,,,0,,,77,76
78480,note_on,0,0,0,,,,,,,,0,,,50,57
78560,note_on,80,0,0,,,,,,,,0,,,50,0
78560,note_on,0,0,0,,,,,,,,0,,,41,63
78640,set_tempo,80,1,0,,,,,,609137,,,,,,
78640,note_on,0,0,0,,,,,,,,0,,,41,0
78640,note_on,0,0,0,,,,,,,,0,,,50,56
78720,note_on,80,0,0,,,,,,,,0,,,50,0
78720,note_on,0,0,0,,,,,,,,0,,,39,79
78730,control_change,10,0,0,,,,,,,,0,64,0,,
78766,control_change,36,0,0,,,,,,,,0,64,127,,
78800,note_on,34,0,0,,,,,,,,0,,,48,59
78840,note_on,40,0,0,,,,,,,,0,,,39,0
78860,set_tempo,20,1,0,,,,,,606061,,,,,,
78880,note_on,20,0,0,,,,,,,,0,,,48,0
78880,note_on,0,0,0,,,,,,,,0,,,39,63
78960,note_on,80,0,0,,,,,,,,0,,,39,0
78960,note_on,0,0,0,,,,,,,,0,,,65,0
78960,note_on,0,0,0,,,,,,,,0,,,74,0
78960,note_on,0,0,0,,,,,,,,0,,,77,0
78960,note_on,0,0,0,,,,,,,,0,,,67,67
78960,note_on,0,0,0,,,,,,,,0,,,75,67
78960,note_on,0,0,0,,,,,,,,0,,,79,79
78960,note_on,0,0,0,,,,,,,,0,,,48,60
79040,note_on,80,0,0,,,,,,,,0,,,48,0
79040,note_on,0,0,0,,,,,,,,0,,,39,64
79060,set_tempo,20,1,0,,,,,,603015,,,,,,
79120,note_on,60,0,0,,,,,,,,0,,,39,0
79120,note_on,0,0,0,,,,,,,,0,,,48,59
79200,note_on,80,0,0,,,,,,,,0,,,48,0
79200,note_on,0,0,0,,,,,,,,0,,,38,80
79213,control_change,13,0,0,,,,,,,,0,64,0,,
79260,control_change,47,0,0,,,,,,,,0,64,127,,
79280,set_tempo,20,1,0,,,,,,600000,,,,,,
79280,note_on,0,0,0,,,,,,,,0,,,47,60
79320,note_on,40,0,0,,,,,,,,0,,,38,0
79360,note_on,40,0,0,,,,,,,,0,,,47,0
79360,note_on,0,0,0,,,,,,,,0,,,38,65
79440,note_on,80,0,0,,,,,,,,0,,,38,0
79440,note_on,0,0,0,,,,,,,,0,,,67,0
79440,note_on,0,0,0,,,,,,,,0,,,75,0
79440,note_on,0,0,0,,,,,,,,0,,,79,0
79440,note_on,0,0,0,,,,,,,,0,,,67,70
79440,note_on,0,0,0,,,,,,,,0,,,77,70
79440,note_on,0,0,0,,,,,,,,0,,,79,82
79440,note_on,0,0,0,,,,,,,,0,,,47,59
79480,set_tempo,40,1,0,,,,,,597015,,,,,,
79520,note_on,40,0,0,,,,,,,,0,,,47,0
79520,note_on,0,0,0,,,,,,,,0,,,38,64
79600,note_on,80,0,0,,,,,,,,0,,,38,0
79600,note_on,0,0,0,,,,,,,,0,,,47,62
79680,set_tempo,80,1,0,,,,,,594059,,,,,,
79680,note_on,0,0,0,,,,,,,,0,,,47,0
79680,note_on,0,0,0,,,,,,,,0,,,36,81
79680,note_on,0,0,0,,,,,,,,0,,,39,75
79688,control_change,8,0,0,,,,,,,,0,64,0,,
79754,control_change,66,0,0,,,,,,,,0,64,127,,
79760,set_tempo,6,1,0,,,,,,614943,,,,,,
79760,note_on,0,0,0,,,,,,,,0,,,39,0
79760,note_on,0,0,0,,,,,,,,0,,,48,62
79840,note_on,80,0,0,,,,,,,,0,,,48,0
79840,note_on,0,0,0,,,,,,,,0,,,39,66
79920,note_on,80,0,0,,,,,,,,0,,,39,0
79920,note_on,0,0,0,,,,,,,,0,,,79,0
79920,note_on,0,0,0,,,,,,,,0,,,67,0
79920,note_on,0,0,0,,,,,,,,0,,,77,0
79920,note_on,0,0,0,,,,,,,,0,,,87,90
79920,note_on,0,0,0,,,,,,,,0,,,79,76
79920,note_on,0,0,0,,,,,,,,0,,,75,76
79920,note_on,0,0,0,,,,,,,,0,,,48,61
79960,set_tempo,40,1,0,,,,,,608458,,,,,,
80000,note_on,40,0,0,,,,,,,,0,,,48,0
80000,note_on,0,0,0,,,,,,,,0,,,39,65
80080,note_on,80,0,0,,,,,,,,0,,,39,0
80080,note_on,0,0,0,,,,,,,,0,,,48,61
80120,set_tempo,40,1,0,,,,,,611683,,,,,,
80160,note_on,40,0,0,,,,,,,,0,,,48,0
80160,note_on,0,0,0,,,,,,,,0,,,36,0
80160,note_on,0,0,0,,,,,,,,0,,,34,81
80160,note_on,0,0,0,,,,,,,,0,,,40,77
80168,control_change,8,0,0,,,,,,,,0,64,0,,
80189,control_change,21,0,0,,,,,,,,0,64,127,,
80240,set_tempo,51,1,0,,,,,,614943,,,,,,
80240,note_on,0,0,0,,,,,,,,0,,,40,0
80240,note_on,0,0,0,,,,,,,,0,,,46,63
80280,set_tempo,40,1,0,,,,,,624935,,,,,,
80320,note_on,40,0,0,,,,,,,,0,,,46,0
80320,note_on,0,0,0,,,,,,,,0,,,34,0
80320,note_on,0,0,0,,,,,,,,0,,,34,67
80320,note_on,0,0,0,,,,,,,,0,,,40,67
80360,set_tempo,40,1,0,,,,,,645995,,,,,,
80400,set_tempo,40,1,0,,,,,,782269,,,,,,
80400,note_on,0,0,0,,,,,,,,0,,,40,0
80400,note_on,0,0,0,,,,,,,,0,,,87,0
80400,note_on,0,0,0,,,,,,,,0,,,75,0
80400,note_on,0,0,0,,,,,,,,0,,,79,0
80400,note_on,0,0,0,,,,,,,,0,,,86,91
80400,note_on,0,0,0,,,,,,,,0,,,80,76
80400,note_on,0,0,0,,,,,,,,0,,,74,76
80400,note_on,0,0,0,,,,,,,,0,,,46,63
80480,note_on,80,0,0,,,,,,,,0,,,46,0
80480,note_on,0,0,0,,,,,,,,0,,,34,0
80480,note_on,0,0,0,,,,,,,,0,,,34,67
80480,note_on,0,0,0,,,,,,,,0,,,40,66
80560,note_on,80,0,0,,,,,,,,0,,,40,0
80560,note_on,0,0,0,,,,,,,,0,,,46,63
80600,set_tempo,40,1,0,,,,,,672495,,,,,,
80640,set_tempo,40,1,0,,,,,,680426,,,,,,
80640,note_on,0,0,0,,,,,,,,0,,,46,0
80640,note_on,0,0,0,,,,,,,,0,,,34,0
80640,note_on,0,0,0,,,,,,,,0,,,74,0
80640,note_on,0,0,0,,,,,,,,0,,,80,0
80640,note_on,0,0,0,,,,,,,,0,,,86,0
80640,note_on,0,0,0,,,,,,,,0,,,85,95
80640,note_on,0,0,0,,,,,,,,0,,,81,80
80640,note_on,0,0,0,,,,,,,,0,,,73,80
80640,note_on,0,0,0,,,,,,,,0,,,33,79
80640,note_on,0,0,0,,,,,,,,0,,,40,79
80640,note_on,0,0,0,,,,,,,,0,,,45,79
80651,control_change,11,0,0,,,,,,,,0,64,0,,
80880,note_on,229,0,0,,,,,,,,0,,,45,0
80880,note_on,0,0,0,,,,,,,,0,,,81,0
80880,note_on,0,0,0,,,,,,,,0,,,73,0
80880,note_on,0,0,0,,,,,,,,0,,,85,0
80880,note_on,0,0,0,,,,,,,,0,,,40,0
80880,note_on,0,0,0,,,,,,,,0,,,33,0
81120,set_tempo,240,1,0,,,,,,740741,,,,,,
81120,note_on,0,0,0,,,,,,,,0,,,52,55
81120,note_on,0,0,0,,,,,,,,0,,,61,55
81160,set_tempo,40,1,0,,,,,,736196,,,,,,
81166,control_change,6,0,0,,,,,,,,0,64,127,,
81180,set_tempo,14,1,0,,,,,,731707,,,,,,
81180,note_on,0,0,0,,,,,,,,0,,,61,0
81180,note_on,0,0,0,,,,,,,,0,,,52,0
81180,note_on,0,0,0,,,,,,,,0,,,64,47
81220,set_tempo,40,1,0,,,,,,727273,,,,,,
81240,set_tempo,20,1,0,,,,,,722892,,,,,,
81240,note_on,0,0,0,,,,,,,,0,,,64,0
81240,note_on,0,0,0,,,,,,,,0,,,52,54
81240,note_on,0,0,0,,,,,,,,0,,,61,54
81280,set_tempo,40,1,0,,,,,,718563,,,,,,
81300,set_tempo,20,1,0,,,,,,714286,,,,,,
81300,note_on,0,0,0,,,,,,,,0,,,61,0
81300,note_on,0,0,0,,,,,,,,0,,,52,0
81300,note_on,0,0,0,,,,,,,,0,,,64,49
81340,set_tempo,40,1,0,,,,,,710059,,,,,,
81360,set_tempo,20,1,0,,,,,,705882,,,,,,
81360,note_on,0,0,0,,,,,,,,0,,,64,0
81360,note_on,0,0,0,,,,,,,,0,,,52,54
81360,note_on,0,0,0,,,,,,,,0,,,61,54
81400,set_tempo,40,1,0,,,,,,701754,,,,,,
81420,set_tempo,20,1,0,,,,,,697674,,,,,,
81420,note_on,0,0,0,,,,,,,,0,,,61,0
81420,note_on,0,0,0,,,,,,,,0,,,52,0
81420,note_on,0,0,0,,,,,,,,0,,,64,47
81440,set_tempo,20,1,0,,,,,,693642,,,,,,
81460,set_tempo,20,1,0,,,,,,705882,,,,,,
81480,note_on,20,0,0,,,,,,,,0,,,64,0
81480,note_on,0,0,0,,,,,,,,0,,,52,54
81480,note_on,0,0,0,,,,,,,,0,,,61,54
81540,note_on,60,0,0,,,,,,,,0,,,61,0
81540,note_on,0,0,0,,,,,,,,0,,,52,0
81540,note_on,0,0,0,,,,,,,,0,,,64,49
81560,set_tempo,20,1,0,,,,,,701754,,,,,,
81600,note_on,40,0,0,,,,,,,,0,,,64,0
81600,note_on,0,0,0,,,,,,,,0,,,52,54
81600,note_on,0,0,0,,,,,,,,0,,,61,54
81620,set_tempo,20,1,0,,,,,,705882,,,,,,
81660,note_on,40,0,0,,,,,,,,0,,,61,0
81660,note_on,0,0,0,,,,,,,,0,,,52,0
81660,note_on,0,0,0,,,,,,,,0,,,64,45
81680,set_tempo,20,1,0,,,,,,710059,,,,,,
81720,set_tempo,40,1,0,,,,,,714286,,,,,,
81720,note_on,0,0,0,,,,,,,,0,,,64,0
81720,note_on,0,0,0,,,,,,,,0,,,52,53
81720,note_on,0,0,0,,,,,,,,0,,,61,53
81780,set_tempo,60,1,0,,,,,,718563,,,,,,
81780,note_on,0,0,0,,,,,,,,0,,,61,0
81780,note_on,0,0,0,,,,,,,,0,,,52,0
81780,note_on,0,0,0,,,,,,,,0,,,64,46
81840,set_tempo,60,1,0,,,,,,722892,,,,,,
81840,note_on,0,0,0,,,,,,,,0,,,64,0
81840,note_on,0,0,0,,,,,,,,0,,,52,53
81840,note_on,0,0,0,,,,,,,,0,,,61,53
81880,set_tempo,40,1,0,,,,,,727273,,,,,,
81900,note_on,20,0,0,,,,,,,,0,,,61,0
81900,note_on,0,0,0,,,,,,,,0,,,52,0
81900,note_on,0,0,0,,,,,,,,0,,,64,45
81940,set_tempo,40,1,0,,,,,,731707,,,,,,
81960,note_on,20,0,0,,,,,,,,0,,,64,0
81960,note_on,0,0,0,,,,,,,,0,,,52,52
81960,note_on,0,0,0,,,,,,,,0,,,61,52
82000,set_tempo,40,1,0,,,,,,736196,,,,,,
82020,note_on,20,0,0,,,,,,,,0,,,61,0
82020,note_on,0,0,0,,,,,,,,0,,,52,0
82020,note_on,0,0,0,,,,,,,,0,,,64,46
82040,set_tempo,20,1,0,,,,,,740741,,,,,,
82080,set_tempo,40,1,0,,,,,,746733,,,,,,
82080,note_on,0,0,0,,,,,,,,0,,,64,0
82080,note_on,0,0,0,,,,,,,,0,,,69,71
82080,note_on,0,0,0,,,,,,,,0,,,81,71
82080,note_on,0,0,0,,,,,,,,0,,,49,64
82091,control_change,11,0,0,,,,,,,,0,64,0,,
82143,control_change,52,0,0,,,,,,,,0,64,127,,
82160,note_on,17,0,0,,,,,,,,0,,,49,0
82160,note_on,0,0,0,,,,,,,,0,,,57,55
82240,note_on,80,0,0,,,,,,,,0,,,57,0
82240,note_on,0,0,0,,,,,,,,0,,,49,63
82320,note_on,80,0,0,,,,,,,,0,,,49,0
82320,note_on,0,0,0,,,,,,,,0,,,57,53
82400,note_on,80,0,0,,,,,,,,0,,,57,0
82400,note_on,0,0,0,,,,,,,,0,,,49,63
82480,note_on,80,0,0,,,,,,,,0,,,49,0
82480,note_on,0,0,0,,,,,,,,0,,,57,55
82560,set_tempo,80,1,0,,,,,,731707,,,,,,
82560,note_on,0,0,0,,,,,,,,0,,,57,0
82560,note_on,0,0,0,,,,,,,,0,,,81,0
82560,note_on,0,0,0,,,,,,,,0,,,69,0
82560,note_on,0,0,0,,,,,,,,0,,,68,69
82560,note_on,0,0,0,,,,,,,,0,,,80,69
82560,note_on,0,0,0,,,,,,,,0,,,50,63
82570,control_change,10,0,0,,,,,,,,0,64,0,,
82611,control_change,41,0,0,,,,,,,,0,64,127,,
82640,note_on,29,0,0,,,,,,,,0,,,50,0
82640,note_on,0,0,0,,,,,,,,0,,,59,55
82720,note_on,80,0,0,,,,,,,,0,,,59,0
82720,note_on,0,0,0,,,,,,,,0,,,50,63
82800,note_on,80,0,0,,,,,,,,0,,,50,0
82800,note_on,0,0,0,,,,,,,,0,,,59,53
82880,note_on,80,0,0,,,,,,,,0,,,59,0
82880,note_on,0,0,0,,,,,,,,0,,,50,62
82960,note_on,80,0,0,,,,,,,,0,,,50,0
82960,note_on,0,0,0,,,,,,,,0,,,59,53
83040,set_tempo,80,1,0,,,,,,766675,,,,,,
83040,note_on,0,0,0,,,,,,,,0,,,59,0
83040,note_on,0,0,0,,,,,,,,0,,,80,0
83040,note_on,0,0,0,,,,,,,,0,,,68,0
83040,note_on,0,0,0,,,,,,,,0,,,67,67
83040,note_on,0,0,0,,,,,,,,0,,,79,67
83040,note_on,0,0,0,,,,,,,,0,,,52,62
83049,control_change,9,0,0,,,,,,,,0,64,0,,
83083,control_change,34,0,0,,,,,,,,0,64,127,,
83120,note_on,37,0,0,,,,,,,,0,,,52,0
83120,note_on,0,0,0,,,,,,,,0,,,61,54
83200,note_on,80,0,0,,,,,,,,0,,,61,0
83200,note_on,0,0,0,,,,,,,,0,,,52,61
83280,note_on,80,0,0,,,,,,,,0,,,52,0
83280,note_on,0,0,0,,,,,,,,0,,,61,53
83360,note_on,80,0,0,,,,,,,,0,,,61,0
83360,note_on,0,0,0,,,,,,,,0,,,52,62
83440,note_on,80,0,0,,,,,,,,0,,,52,0
83440,note_on,0,0,0,,,,,,,,0,,,61,54
83520,set_tempo,80,1,0,,,,,,718563,,,,,,
83520,note_on,0,0,0,,,,,,,,0,,,61,0
83520,note_on,0,0,0,,,,,,,,0,,,79,0
83520,note_on,0,0,0,,,,,,,,0,,,67,0
83520,note_on,0,0,0,,,,,,,,0,,,65,66
83520,note_on,0,0,0,,,,,,,,0,,,77,66
83520,note_on,0,0,0,,,,,,,,0,,,53,65
83529,control_change,9,0,0,,,,,,,,0,64,0,,
83563,control_change,34,0,0,,,,,,,,0,64,127,,
83600,note_on,37,0,0,,,,,,,,0,,,53,0
83600,note_on,0,0,0,,,,,,,,0,,,62,55
83680,note_on,80,0,0,,,,,,,,0,,,62,0
83680,note_on,0,0,0,,,,,,,,0,,,53,60
83760,note_on,80,0,0,,,,,,,,0,,,53,0
83760,note_on,0,0,0,,,,,,,,0,,,62,52
83840,note_on,80,0,0,,,,,,,,0,,,62,0
83840,note_on,0,0,0,,,,,,,,0,,,53,60
83920,note_on,80,0,0,,,,,,,,0,,,53,0
83920,note_on,0,0,0,,,,,,,,0,,,62,52
84000,set_tempo,80,1,0,,,,,,740741,,,,,,
84000,note_on,0,0,0,,,,,,,,0,,,62,0
84000,note_on,0,0,0,,,,,,,,0,,,77,0
84000,note_on,0,0,0,,,,,,,,0,,,65,0
84000,note_on,0,0,0,,,,,,,,0,,,70,59
84000,note_on,0,0,0,,,,,,,,0,,,73,65
84000,note_on,0,0,0,,,,,,,,0,,,76,65
84000,note_on,0,0,0,,,,,,,,0,,,55,59
84014,control_change,14,0,0,,,,,,,,0,64,0,,
84040,control_change,26,0,0,,,,,,,,0,64,127,,
84080,note_on,40,0,0,,,,,,,,0,,,55,0
84080,note_on,0,0,0,,,,,,,,0,,,64,53
84160,note_on,80,0,0,,,,,,,,0,,,64,0
84160,note_on,0,0,0,,,,,,,,0,,,55,58
84240,note_on,80,0,0,,,,,,,,0,,,55,0
84240,note_on,0,0,0,,,,,,,,0,,,64,51
84320,note_on,80,0,0,,,,,,,,0,,,64,0
84320,note_on,0,0,0,,,,,,,,0,,,55,58
84400,note_on,80,0,0,,,,,,,,0,,,55,0
84400,note_on,0,0,0,,,,,,,,0,,,64,51
84480,set_tempo,80,1,0,,,,,,745342,,,,,,
84480,note_on,0,0,0,,,,,,,,0,,,64,0
84480,note_on,0,0,0,,,,,,,,0,,,76,0
84480,note_on,0,0,0,,,,,,,,0,,,73,0
84480,note_on,0,0,0,,,,,,,,0,,,70,0
84480,note_on,0,0,0,,,,,,,,0,,,69,63
84480,note_on,0,0,0,,,,,,,,0,,,74,63
84480,note_on,0,0,0,,,,,,,,0,,,57,57
84491,control_change,11,0,0,,,,,,,,0,64,0,,
84517,control_change,26,0,0,,,,,,,,0,64,127,,
84560,note_on,43,0,0,,,,,,,,0,,,57,0
84560,note_on,0,0,0,,,,,,,,0,,,65,51
84640,note_on,80,0,0,,,,,,,,0,,,65,0
84640,note_on,0,0,0,,,,,,,,0,,,57,56
84720,note_on,80,0,0,,,,,,,,0,,,57,0
84720,note_on,0,0,0,,,,,,,,0,,,65,50
84800,note_on,80,0,0,,,,,,,,0,,,65,0
84800,note_on,0,0,0,,,,,,,,0,,,57,57
84880,note_on,80,0,0,,,,,,,,0,,,57,0
84880,note_on,0,0,0,,,,,,,,0,,,65,51
84960,set_tempo,80,1,0,,,,,,718735,,,,,,
84960,note_on,0,0,0,,,,,,,,0,,,65,0
84960,note_on,0,0,0,,,,,,,,0,,,74,0
84960,note_on,0,0,0,,,,,,,,0,,,69,0
84960,note_on,0,0,0,,,,,,,,0,,,65,63
84960,note_on,0,0,0,,,,,,,,0,,,57,63
84960,note_on,0,0,0,,,,,,,,0,,,29,55
84960,note_on,0,0,0,,,,,,,,0,,,41,66
84977,control_change,17,0,0,,,,,,,,0,64,0,,
85031,control_change,54,0,0,,,,,,,,0,64,127,,
85040,note_on,9,0,0,,,,,,,,0,,,57,0
85040,note_on,0,0,0,,,,,,,,0,,,65,0
85040,note_on,0,0,0,,,,,,,,0,,,69,51
85120,note_on,80,0,0,,,,,,,,0,,,69,0
85120,note_on,0,0,0,,,,,,,,0,,,65,58
85120,note_on,0,0,0,,,,,,,,0,,,57,58
85200,note_on,80,0,0,,,,,,,,0,,,57,0
85200,note_on,0,0,0,,,,,,,,0,,,65,0
85200,note_on,0,0,0,,,,,,,,0,,,69,52
85280,note_on,80,0,0,,,,,,,,0,,,69,0
85280,note_on,0,0,0,,,,,,,,0,,,57,60
85280,note_on,0,0,0,,,,,,,,0,,,65,60
85360,note_on,80,0,0,,,,,,,,0,,,65,0
85360,note_on,0,0,0,,,,,,,,0,,,57,0
85360,note_on,0,0,0,,,,,,,,0,,,69,54
85400,set_tempo,40,1,0,,,,,,727802,,,,,,
85440,set_tempo,40,1,0,,,,,,701180,,,,,,
85440,note_on,0,0,0,,,,,,,,0,,,69,0
85440,note_on,0,0,0,,,,,,,,0,,,29,0
85440,note_on,0,0,0,,,,,,,,0,,,41,0
85440,note_on,0,0,0,,,,,,,,0,,,64,66
85440,note_on,0,0,0,,,,,,,,0,,,55,66
85440,note_on,0,0,0,,,,,,,,0,,,31,56
85440,note_on,0,0,0,,,,,,,,0,,,43,67
85459,control_change,19,0,0,,,,,,,,0,64,0,,
85514,control_change,55,0,0,,,,,,,,0,64,127,,
85520,note_on,6,0,0,,,,,,,,0,,,55,0
85520,note_on,0,0,0,,,,,,,,0,,,64,0
85520,note_on,0,0,0,,,,,,,,0,,,67,55
85600,note_on,80,0,0,,,,,,,,0,,,67,0
85600,note_on,0,0,0,,,,,,,,0,,,64,62
85600,note_on,0,0,0,,,,,,,,0,,,55,62
85680,note_on,80,0,0,,,,,,,,0,,,55,0
85680,note_on,0,0,0,,,,,,,,0,,,64,0
85680,note_on,0,0,0,,,,,,,,0,,,67,56
85760,note_on,80,0,0,,,,,,,,0,,,67,0
85760,note_on,0,0,0,,,,,,,,0,,,55,63
85760,note_on,0,0,0,,,,,,,,0,,,64,63
85840,note_on,80,0,0,,,,,,,,0,,,64,0
85840,note_on,0,0,0,,,,,,,,0,,,55,0
85840,note_on,0,0,0,,,,,,,,0,,,67,57
85920,note_on,80,0,0,,,,,,,,0,,,67,0
85920,note_on,0,0,0,,,,,,,,0,,,31,0
85920,note_on,0,0,0,,,,,,,,0,,,43,0
85920,note_on,0,0,0,,,,,,,,0,,,62,70
85920,note_on,0,0,0,,,,,,,,0,,,53,70
85920,note_on,0,0,0,,,,,,,,0,,,32,57
85920,note_on,0,0,0,,,,,,,,0,,,44,69
85926,control_change,6,0,0,,,,,,,,0,64,0,,
85969,control_change,43,0,0,,,,,,,,0,64,127,,
86000,note_on,31,0,0,,,,,,,,0,,,53,0
86000,note_on,0,0,0,,,,,,,,0,,,62,0
86000,note_on,0,0,0,,,,,,,,0,,,65,58
86080,note_on,80,0,0,,,,,,,,0,,,65,0
86080,note_on,0,0,0,,,,,,,,0,,,62,65
86080,note_on,0,0,0,,,,,,,,0,,,53,65
86160,set_tempo,80,1,0,,,,,,787608,,,,,,
86160,note_on,0,0,0,,,,,,,,0,,,53,0
86160,note_on,0,0,0,,,,,,,,0,,,44,0
86160,note_on,0,0,0,,,,,,,,0,,,32,0
86160,note_on,0,0,0,,,,,,,,0,,,62,0
86160,note_on,0,0,0,,,,,,,,0,,,65,60
86240,note_on,80,0,0,,,,,,,,0,,,65,0
86240,note_on,0,0,0,,,,,,,,0,,,53,67
86240,note_on,0,0,0,,,,,,,,0,,,62,67
86280,set_tempo,40,1,0,,,,,,1197844,,,,,,
86280,note_on,0,0,0,,,,,,,,0,,,33,58
86310,note_on,30,0,0,,,,,,,,0,,,33,0
86310,note_on,0,0,0,,,,,,,,0,,,37,62
86320,note_on,10,0,0,,,,,,,,0,,,62,0
86320,note_on,0,0,0,,,,,,,,0,,,53,0
86320,note_on,0,0,0,,,,,,,,0,,,65,62
86340,note_on,20,0,0,,,,,,,,0,,,37,0
86340,note_on,0,0,0,,,,,,,,0,,,40,66
86370,note_on,30,0,0,,,,,,,,0,,,40,0
86370,note_on,0,0,0,,,,,,,,0,,,45,70
86400,set_tempo,30,1,0,,,,,,727802,,,,,,
86400,note_on,0,0,0,,,,,,,,0,,,45,0
86400,note_on,0,0,0,,,,,,,,0,,,65,0
86400,note_on,0,0,0,,,,,,,,0,,,52,53
86400,note_on,0,0,0,,,,,,,,0,,,61,53
86400,note_on,0,0,0,,,,,,,,0,,,73,80
86400,note_on,0,0,0,,,,,,,,0,,,76,80
86413,control_change,13,0,0,,,,,,,,0,64,0,,
86443,control_change,30,0,0,,,,,,,,0,64,127,,
86460,note_on,17,0,0,,,,,,,,0,,,61,0
86460,note_on,0,0,0,,,,,,,,0,,,52,0
86460,note_on,0,0,0,,,,,,,,0,,,64,45
86480,set_tempo,20,1,0,,,,,,723240,,,,,,
86520,note_on,40,0,0,,,,,,,,0,,,64,0
86520,note_on,0,0,0,,,,,,,,0,,,52,53
86520,note_on,0,0,0,,,,,,,,0,,,61,53
86540,set_tempo,20,1,0,,,,,,718735,,,,,,
86580,note_on,40,0,0,,,,,,,,0,,,61,0
86580,note_on,0,0,0,,,,,,,,0,,,52,0
86580,note_on,0,0,0,,,,,,,,0,,,64,48
86600,set_tempo,20,1,0,,,,,,714286,,,,,,
86640,note_on,40,0,0,,,,,,,,0,,,64,0
86640,note_on,0,0,0,,,,,,,,0,,,52,54
86640,note_on,0,0,0,,,,,,,,0,,,61,54
86660,set_tempo,20,1,0,,,,,,709807,,,,,,
86700,note_on,40,0,0,,,,,,,,0,,,61,0
86700,note_on,0,0,0,,,,,,,,0,,,52,0
86700,note_on,0,0,0,,,,,,,,0,,,64,47
86740,set_tempo,40,1,0,,,,,,705467,,,,,,
86760,note_on,20,0,0,,,,,,,,0,,,64,0
86760,note_on,0,0,0,,,,,,,,0,,,52,54
86760,note_on,0,0,0,,,,,,,,0,,,61,54
86800,set_tempo,40,1,0,,,,,,701180,,,,,,
86820,note_on,20,0,0,,,,,,,,0,,,61,0
86820,note_on,0,0,0,,,,,,,,0,,,52,0
86820,note_on,0,0,0,,,,,,,,0,,,64,50
86860,set_tempo,40,1,0,,,,,,696945,,,,,,
86880,note_on,20,0,0,,,,,,,,0,,,64,0
86880,note_on,0,0,0,,,,,,,,0,,,52,54
86880,note_on,0,0,0,,,,,,,,0,,,61,54
86920,set_tempo,40,1,0,,,,,,684463,,,,,,
86940,note_on,20,0,0,,,,,,,,0,,,61,0
86940,note_on,0,0,0,,,,,,,,0,,,52,0
86940,note_on,0,0,0,,,,,,,,0,,,64,47
87000,note_on,60,0,0,,,,,,,,0,,,64,0
87000,note_on,0,0,0,,,,,,,,0,,,52,55
87000,note_on,0,0,0,,,,,,,,0,,,61,55
87060,set_tempo,60,1,0,,,,,,688547,,,,,,
87060,note_on,0,0,0,,,,,,,,0,,,61,0
87060,note_on,0,0,0,,,,,,,,0,,,52,0
87060,note_on,0,0,0,,,,,,,,0,,,64,50
87120,note_on,60,0,0,,,,,,,,0,,,64,0
87120,note_on,0,0,0,,,,,,,,0,,,52,56
87120,note_on,0,0,0,,,,,,,,0,,,61,56
87180,set_tempo,60,1,0,,,,,,692761,,,,,,
87180,note_on,0,0,0,,,,,,,,0,,,61,0
87180,note_on,0,0,0,,,,,,,,0,,,52,0
87180,note_on,0,0,0,,,,,,,,0,,,64,50
87240,note_on,60,0,0,,,,,,,,0,,,64,0
87240,note_on,0,0,0,,,,,,,,0,,,52,56
87240,note_on,0,0,0,,,,,,,,0,,,61,56
87300,set_tempo,60,1,0,,,,,,696945,,,,,,
87300,note_on,0,0,0,,,,,,,,0,,,61,0
87300,note_on,0,0,0,,,,,,,,0,,,52,0
87300,note_on,0,0,0,,,,,,,,0,,,64,52
87360,note_on,60,0,0,,,,,,,,0,,,64,0
87360,note_on,0,0,0,,,,,,,,0,,,52,57
87360,note_on,0,0,0,,,,,,,,0,,,61,57
87420,set_tempo,60,1,0,,,,,,701180,,,,,,
87420,note_on,0,0,0,,,,,,,,0,,,61,0
87420,note_on,0,0,0,,,,,,,,0,,,52,0
87420,note_on,0,0,0,,,,,,,,0,,,64,49
87480,note_on,60,0,0,,,,,,,,0,,,64,0
87480,note_on,0,0,0,,,,,,,,0,,,52,56
87480,note_on,0,0,0,,,,,,,,0,,,61,56
87540,set_tempo,60,1,0,,,,,,705467,,,,,,
87540,note_on,0,0,0,,,,,,,,0,,,61,0
87540,note_on,0,0,0,,,,,,,,0,,,52,0
87540,note_on,0,0,0,,,,,,,,0,,,64,50
87600,note_on,60,0,0,,,,,,,,0,,,64,0
87600,note_on,0,0,0,,,,,,,,0,,,52,54
87600,note_on,0,0,0,,,,,,,,0,,,61,54
87660,set_tempo,60,1,0,,,,,,709807,,,,,,
87660,note_on,0,0,0,,,,,,,,0,,,61,0
87660,note_on,0,0,0,,,,,,,,0,,,52,0
87660,note_on,0,0,0,,,,,,,,0,,,64,48
87720,note_on,60,0,0,,,,,,,,0,,,64,0
87720,note_on,0,0,0,,,,,,,,0,,,52,54
87720,note_on,0,0,0,,,,,,,,0,,,61,54
87780,set_tempo,60,1,0,,,,,,714286,,,,,,
87780,note_on,0,0,0,,,,,,,,0,,,61,0
87780,note_on,0,0,0,,,,,,,,0,,,52,0
87780,note_on,0,0,0,,,,,,,,0,,,64,49
87840,set_tempo,60,1,0,,,,,,657102,,,,,,
87840,note_on,0,0,0,,,,,,,,0,,,64,0
87840,note_on,0,0,0,,,,,,,,0,,,73,0
87840,note_on,0,0,0,,,,,,,,0,,,76,0
87840,note_on,0,0,0,,,,,,,,0,,,55,74
87854,control_change,14,0,0,,,,,,,,0,64,0,,
87891,control_change,37,0,0,,,,,,,,0,64,127,,
87920,note_on,29,0,0,,,,,,,,0,,,58,54
87960,note_on,40,0,0,,,,,,,,0,,,55,0
88000,note_on,40,0,0,,,,,,,,0,,,58,0
88000,note_on,0,0,0,,,,,,,,0,,,55,60
88080,set_tempo,80,1,0,,,,,,638842,,,,,,
88080,note_on,0,0,0,,,,,,,,0,,,55,0
88080,note_on,0,0,0,,,,,,,,0,,,61,54
88080,note_on,0,0,0,,,,,,,,0,,,64,54
88080,note_on,0,0,0,,,,,,,,0,,,73,65
88080,note_on,0,0,0,,,,,,,,0,,,58,53
88160,note_on,80,0,0,,,,,,,,0,,,58,0
88160,note_on,0,0,0,,,,,,,,0,,,55,60
88240,note_on,80,0,0,,,,,,,,0,,,55,0
88240,note_on,0,0,0,,,,,,,,0,,,58,54
88320,note_on,80,0,0,,,,,,,,0,,,58,0
88320,note_on,0,0,0,,,,,,,,0,,,53,75
88331,control_change,11,0,0,,,,,,,,0,64,0,,
88360,control_change,29,0,0,,,,,,,,0,64,127,,
88400,note_on,40,0,0,,,,,,,,0,,,57,52
88440,note_on,40,0,0,,,,,,,,0,,,53,0
88480,note_on,40,0,0,,,,,,,,0,,,57,0
88480,note_on,0,0,0,,,,,,,,0,,,53,57
88560,note_on,80,0,0,,,,,,,,0,,,53,0
88560,note_on,0,0,0,,,,,,,,0,,,61,0
88560,note_on,0,0,0,,,,,,,,0,,,64,0
88560,note_on,0,0,0,,,,,,,,0,,,73,0
88560,note_on,0,0,0,,,,,,,,0,,,62,59
88560,note_on,0,0,0,,,,,,,,0,,,65,59
88560,note_on,0,0,0,,,,,,,,0,,,74,71
88560,note_on,0,0,0,,,,,,,,0,,,57,51
88640,note_on,80,0,0,,,,,,,,0,,,57,0
88640,note_on,0,0,0,,,,,,,,0,,,53,57
88720,note_on,80,0,0,,,,,,,,0,,,53,0
88720,note_on,0,0,0,,,,,,,,0,,,57,53
88760,set_tempo,40,1,0,,,,,,649702,,,,,,
88800,note_on,40,0,0,,,,,,,,0,,,57,0
88800,note_on,0,0,0,,,,,,,,0,,,46,76
88821,control_change,21,0,0,,,,,,,,0,64,0,,
88840,set_tempo,19,1,0,,,,,,638842,,,,,,
88851,control_change,11,0,0,,,,,,,,0,64,127,,
88880,note_on,29,0,0,,,,,,,,0,,,55,55
88920,note_on,40,0,0,,,,,,,,0,,,46,0
88960,note_on,40,0,0,,,,,,,,0,,,55,0
88960,note_on,0,0,0,,,,,,,,0,,,46,61
89040,note_on,80,0,0,,,,,,,,0,,,46,0
89040,note_on,0,0,0,,,,,,,,0,,,62,0
89040,note_on,0,0,0,,,,,,,,0,,,65,0
89040,note_on,0,0,0,,,,,,,,0,,,74,0
89040,note_on,0,0,0,,,,,,,,0,,,64,60
89040,note_on,0,0,0,,,,,,,,0,,,67,60
89040,note_on,0,0,0,,,,,,,,0,,,76,72
89040,note_on,0,0,0,,,,,,,,0,,,55,54
89120,set_tempo,80,1,0,,,,,,635324,,,,,,
89120,note_on,0,0,0,,,,,,,,0,,,55,0
89120,note_on,0,0,0,,,,,,,,0,,,46,61
89200,note_on,80,0,0,,,,,,,,0,,,46,0
89200,note_on,0,0,0,,,,,,,,0,,,55,54
89280,note_on,80,0,0,,,,,,,,0,,,55,0
89280,note_on,0,0,0,,,,,,,,0,,,45,77
89292,control_change,12,0,0,,,,,,,,0,64,0,,
89314,control_change,22,0,0,,,,,,,,0,64,127,,
89360,set_tempo,46,1,0,,,,,,631845,,,,,,
89360,note_on,0,0,0,,,,,,,,0,,,53,54
89400,note_on,40,0,0,,,,,,,,0,,,45,0
89440,note_on,40,0,0,,,,,,,,0,,,53,0
89440,note_on,0,0,0,,,,,,,,0,,,45,60
89520,note_on,80,0,0,,,,,,,,0,,,45,0
89520,note_on,0,0,0,,,,,,,,0,,,64,0
89520,note_on,0,0,0,,,,,,,,0,,,67,0
89520,note_on,0,0,0,,,,,,,,0,,,76,0
89520,note_on,0,0,0,,,,,,,,0,,,65,63
89520,note_on,0,0,0,,,,,,,,0,,,69,63
89520,note_on,0,0,0,,,,,,,,0,,,77,74
89520,note_on,0,0,0,,,,,,,,0,,,53,54
89600,note_on,80,0,0,,,,,,,,0,,,53,0
89600,note_on,0,0,0,,,,,,,,0,,,45,61
89640,set_tempo,40,1,0,,,,,,628404,,,,,,
89680,note_on,40,0,0,,,,,,,,0,,,45,0
89680,note_on,0,0,0,,,,,,,,0,,,53,55
89760,note_on,80,0,0,,,,,,,,0,,,53,0
89760,note_on,0,0,0,,,,,,,,0,,,43,78
89770,control_change,10,0,0,,,,,,,,0,64,0,,
89811,control_change,41,0,0,,,,,,,,0,64,127,,
89840,note_on,29,0,0,,,,,,,,0,,,52,57
89880,set_tempo,40,1,0,,,,,,624935,,,,,,
89880,note_on,0,0,0,,,,,,,,0,,,43,0
89920,note_on,40,0,0,,,,,,,,0,,,52,0
89920,note_on,0,0,0,,,,,,,,0,,,43,63
90000,note_on,80,0,0,,,,,,,,0,,,43,0
90000,note_on,0,0,0,,,,,,,,0,,,65,0
90000,note_on,0,0,0,,,,,,,,0,,,69,0
90000,note_on,0,0,0,,,,,,,,0,,,77,0
90000,note_on,0,0,0,,,,,,,,0,,,67,65
90000,note_on,0,0,0,,,,,,,,0,,,76,65
90000,note_on,0,0,0,,,,,,,,0,,,79,77
90000,note_on,0,0,0,,,,,,,,0,,,52,56
90080,note_on,80,0,0,,,,,,,,0,,,52,0
90080,note_on,0,0,0,,,,,,,,0,,,43,63
90160,set_tempo,80,1,0,,,,,,621568,,,,,,
90160,note_on,0,0,0,,,,,,,,0,,,43,0
90160,note_on,0,0,0,,,,,,,,0,,,52,57
90240,note_on,80,0,0,,,,,,,,0,,,52,0
90240,note_on,0,0,0,,,,,,,,0,,,41,80
90250,control_change,10,0,0,,,,,,,,0,64,0,,
90286,control_change,36,0,0,,,,,,,,0,64,127,,
90320,note_on,34,0,0,,,,,,,,0,,,50,58
90360,note_on,40,0,0,,,,,,,,0,,,41,0
90400,set_tempo,40,1,0,,,,,,618238,,,,,,
90400,note_on,0,0,0,,,,,,,,0,,,50,0
90400,note_on,0,0,0,,,,,,,,0,,,41,63
90480,note_on,80,0,0,,,,,,,,0,,,41,0
90480,note_on,0,0,0,,,,,,,,0,,,67,0
90480,note_on,0,0,0,,,,,,,,0,,,76,0
90480,note_on,0,0,0,,,,,,,,0,,,79,0
90480,note_on,0,0,0,,,,,,,,0,,,69,69
90480,note_on,0,0,0,,,,,,,,0,,,77,69
90480,note_on,0,0,0,,,,,,,,0,,,81,81
90480,note_on,0,0,0,,,,,,,,0,,,50,58
90560,note_on,80,0,0,,,,,,,,0,,,50,0
90560,note_on,0,0,0,,,,,,,,0,,,41,64
90640,note_on,80,0,0,,,,,,,,0,,,41,0
90640,note_on,0,0,0,,,,,,,,0,,,50,60
90680,set_tempo,40,1,0,,,,,,614943,,,,,,
90720,note_on,40,0,0,,,,,,,,0,,,50,0
90720,note_on,0,0,0,,,,,,,,0,,,40,81
90733,control_change,13,0,0,,,,,,,,0,64,0,,
90780,control_change,47,0,0,,,,,,,,0,64,127,,
90800,note_on,20,0,0,,,,,,,,0,,,49,61
90840,note_on,40,0,0,,,,,,,,0,,,40,0
90880,note_on,40,0,0,,,,,,,,0,,,49,0
90880,note_on,0,0,0,,,,,,,,0,,,40,65
90920,set_tempo,40,1,0,,,,,,611683,,,,,,
90960,note_on,40,0,0,,,,,,,,0,,,40,0
90960,note_on,0,0,0,,,,,,,,0,,,69,0
90960,note_on,0,0,0,,,,,,,,0,,,77,0
90960,note_on,0,0,0,,,,,,,,0,,,81,0
90960,note_on,0,0,0,,,,,,,,0,,,69,72
90960,note_on,0,0,0,,,,,,,,0,,,79,72
90960,note_on,0,0,0,,,,,,,,0,,,81,84
90960,note_on,0,0,0,,,,,,,,0,,,49,59
91040,note_on,80,0,0,,,,,,,,0,,,49,0
91040,note_on,0,0,0,,,,,,,,0,,,40,64
91120,note_on,80,0,0,,,,,,,,0,,,40,0
91120,note_on,0,0,0,,,,,,,,0,,,49,60
91160,set_tempo,40,1,0,,,,,,608458,,,,,,
91200,note_on,40,0,0,,,,,,,,0,,,49,0
91200,note_on,0,0,0,,,,,,,,0,,,38,82
91200,note_on,0,0,0,,,,,,,,0,,,45,75
91200,note_on,0,0,0,,,,,,,,0,,,41,64
91208,control_change,8,0,0,,,,,,,,0,64,0,,
91274,control_change,66,0,0,,,,,,,,0,64,127,,
91280,set_tempo,6,1,0,,,,,,614943,,,,,,
91280,note_on,0,0,0,,,,,,,,0,,,41,0
91280,note_on,0,0,0,,,,,,,,0,,,45,0
91280,note_on,0,0,0,,,,,,,,0,,,50,63
91359,note_on,79,0,0,,,,,,,,0,,,38,0
91360,note_on,1,0,0,,,,,,,,0,,,50,0
91360,note_on,0,0,0,,,,,,,,0,,,45,57
91360,note_on,0,0,0,,,,,,,,0,,,38,57
91360,note_on,0,0,0,,,,,,,,0,,,41,66
91440,note_on,80,0,0,,,,,,,,0,,,41,0
91440,note_on,0,0,0,,,,,,,,0,,,79,0
91440,note_on,0,0,0,,,,,,,,0,,,81,0
91440,note_on,0,0,0,,,,,,,,0,,,69,0
91440,note_on,0,0,0,,,,,,,,0,,,38,0
91440,note_on,0,0,0,,,,,,,,0,,,45,0
91440,note_on,0,0,0,,,,,,,,0,,,89,94
91440,note_on,0,0,0,,,,,,,,0,,,81,79
91440,note_on,0,0,0,,,,,,,,0,,,77,77
91440,note_on,0,0,0,,,,,,,,0,,,50,62
91480,set_tempo,40,1,0,,,,,,608458,,,,,,
91520,note_on,40,0,0,,,,,,,,0,,,50,0
91520,note_on,0,0,0,,,,,,,,0,,,45,63
91520,note_on,0,0,0,,,,,,,,0,,,38,63
91520,note_on,0,0,0,,,,,,,,0,,,41,65
91600,note_on,80,0,0,,,,,,,,0,,,41,0
91600,note_on,0,0,0,,,,,,,,0,,,45,0
91600,note_on,0,0,0,,,,,,,,0,,,38,0
91600,note_on,0,0,0,,,,,,,,0,,,50,62
91640,set_tempo,40,1,0,,,,,,611683,,,,,,
91680,note_on,40,0,0,,,,,,,,0,,,50,0
91680,note_on,0,0,0,,,,,,,,0,,,37,84
91680,note_on,0,0,0,,,,,,,,0,,,45,77
91680,note_on,0,0,0,,,,,,,,0,,,40,77
91688,control_change,8,0,0,,,,,,,,0,64,0,,
91709,control_change,21,0,0,,,,,,,,0,64,127,,
91760,set_tempo,51,1,0,,,,,,614943,,,,,,
91760,note_on,0,0,0,,,,,,,,0,,,40,0
91760,note_on,0,0,0,,,,,,,,0,,,45,0
91760,note_on,0,0,0,,,,,,,,0,,,49,63
91800,set_tempo,40,1,0,,,,,,624935,,,,,,
91840,note_on,40,0,0,,,,,,,,0,,,49,0
91840,note_on,0,0,0,,,,,,,,0,,,37,0
91840,note_on,0,0,0,,,,,,,,0,,,45,67
91840,note_on,0,0,0,,,,,,,,0,,,37,67
91840,note_on,0,0,0,,,,,,,,0,,,40,67
91880,set_tempo,40,1,0,,,,,,645995,,,,,,
91920,set_tempo,40,1,0,,,,,,782269,,,,,,
91920,note_on,0,0,0,,,,,,,,0,,,40,0
91920,note_on,0,0,0,,,,,,,,0,,,89,0
91920,note_on,0,0,0,,,,,,,,0,,,77,0
91920,note_on,0,0,0,,,,,,,,0,,,81,0
91920,note_on,0,0,0,,,,,,,,0,,,37,0
91920,note_on,0,0,0,,,,,,,,0,,,45,0
91920,note_on,0,0,0,,,,,,,,0,,,88,94
91920,note_on,0,0,0,,,,,,,,0,,,81,78
91920,note_on,0,0,0,,,,,,,,0,,,76,74
91920,note_on,0,0,0,,,,,,,,0,,,49,62
92000,note_on,80,0,0,,,,,,,,0,,,49,0
92000,note_on,0,0,0,,,,,,,,0,,,40,66
92000,note_on,0,0,0,,,,,,,,0,,,37,67
92000,note_on,0,0,0,,,,,,,,0,,,45,66
92080,note_on,80,0,0,,,,,,,,0,,,45,0
92080,note_on,0,0,0,,,,,,,,0,,,40,0
92080,note_on,0,0,0,,,,,,,,0,,,37,0
92080,note_on,0,0,0,,,,,,,,0,,,49,63
92100,set_tempo,20,1,0,,,,,,1017639,,,,,,
92100,note_on,0,0,0,,,,,,,,0,,,36,79
92130,note_on,30,0,0,,,,,,,,0,,,36,0
92130,note_on,0,0,0,,,,,,,,0,,,48,79
92160,set_tempo,30,1,0,,,,,,714456,,,,,,
92160,note_on,0,0,0,,,,,,,,0,,,48,0
92160,note_on,0,0,0,,,,,,,,0,,,49,0
92160,note_on,0,0,0,,,,,,,,0,,,81,0
92160,note_on,0,0,0,,,,,,,,0,,,88,0
92160,note_on,0,0,0,,,,,,,,0,,,76,0
92160,note_on,0,0,0,,,,,,,,0,,,75,65
92160,note_on,0,0,0,,,,,,,,0,,,77,65
92160,note_on,0,0,0,,,,,,,,0,,,81,78
92160,note_on,0,0,0,,,,,,,,0,,,60,92
92169,control_change,9,0,0,,,,,,,,0,64,0,,
92191,control_change,22,0,0,,,,,,,,0,64,127,,
92220,note_on,29,0,0,,,,,,,,0,,,81,0
92220,note_on,0,0,0,,,,,,,,0,,,75,0
92220,note_on,0,0,0,,,,,,,,0,,,77,0
92220,note_on,0,0,0,,,,,,,,0,,,87,65
92280,note_on,60,0,0,,,,,,,,0,,,87,0
92280,note_on,0,0,0,,,,,,,,0,,,75,55
92280,note_on,0,0,0,,,,,,,,0,,,77,55
92280,note_on,0,0,0,,,,,,,,0,,,81,65
92340,note_on,60,0,0,,,,,,,,0,,,81,0
92340,note_on,0,0,0,,,,,,,,0,,,77,0
92340,note_on,0,0,0,,,,,,,,0,,,75,0
92340,note_on,0,0,0,,,,,,,,0,,,87,63
92360,set_tempo,20,1,0,,,,,,709807,,,,,,
92400,note_on,40,0,0,,,,,,,,0,,,87,0
92400,note_on,0,0,0,,,,,,,,0,,,75,54
92400,note_on,0,0,0,,,,,,,,0,,,77,54
92400,note_on,0,0,0,,,,,,,,0,,,81,64
92460,note_on,60,0,0,,,,,,,,0,,,81,0
92460,note_on,0,0,0,,,,,,,,0,,,77,0
92460,note_on,0,0,0,,,,,,,,0,,,75,0
92460,note_on,0,0,0,,,,,,,,0,,,87,63
92520,set_tempo,60,1,0,,,,,,705219,,,,,,
92520,note_on,0,0,0,,,,,,,,0,,,87,0
92520,note_on,0,0,0,,,,,,,,0,,,75,54
92520,note_on,0,0,0,,,,,,,,0,,,77,54
92520,note_on,0,0,0,,,,,,,,0,,,81,64
92580,note_on,60,0,0,,,,,,,,0,,,81,0
92580,note_on,0,0,0,,,,,,,,0,,,77,0
92580,note_on,0,0,0,,,,,,,,0,,,75,0
92580,note_on,0,0,0,,,,,,,,0,,,87,63
92640,note_on,60,0,0,,,,,,,,0,,,87,0
92640,note_on,0,0,0,,,,,,,,0,,,75,56
92640,note_on,0,0,0,,,,,,,,0,,,77,56
92640,note_on,0,0,0,,,,,,,,0,,,81,68
92660,set_tempo,20,1,0,,,,,,705882,,,,,,
92680,set_tempo,20,1,0,,,,,,701754,,,,,,
92700,set_tempo,20,1,0,,,,,,697674,,,,,,
92700,note_on,0,0,0,,,,,,,,0,,,81,0
92700,note_on,0,0,0,,,,,,,,0,,,77,0
92700,note_on,0,0,0,,,,,,,,0,,,75,0
92700,note_on,0,0,0,,,,,,,,0,,,87,61
92720,set_tempo,20,1,0,,,,,,693642,,,,,,
92740,set_tempo,20,1,0,,,,,,689655,,,,,,
92760,set_tempo,20,1,0,,,,,,685714,,,,,,
92760,note_on,0,0,0,,,,,,,,0,,,87,0
92760,note_on,0,0,0,,,,,,,,0,,,75,49
92760,note_on,0,0,0,,,,,,,,0,,,77,49
92760,note_on,0,0,0,,,,,,,,0,,,81,58
92780,set_tempo,20,1,0,,,,,,681818,,,,,,
92800,set_tempo,20,1,0,,,,,,677966,,,,,,
92820,set_tempo,20,1,0,,,,,,674157,,,,,,
92820,note_on,0,0,0,,,,,,,,0,,,81,0
92820,note_on,0,0,0,,,,,,,,0,,,77,0
92820,note_on,0,0,0,,,,,,,,0,,,75,0
92820,note_on,0,0,0,,,,,,,,0,,,87,58
92840,set_tempo,20,1,0,,,,,,670391,,,,,,
92860,set_tempo,20,1,0,,,,,,662983,,,,,,
92880,set_tempo,20,1,0,,,,,,670391,,,,,,
92880,note_on,0,0,0,,,,,,,,0,,,87,0
92880,note_on,0,0,0,,,,,,,,0,,,75,48
92880,note_on,0,0,0,,,,,,,,0,,,77,48
92880,note_on,0,0,0,,,,,,,,0,,,81,57
92900,set_tempo,20,1,0,,,,,,677966,,,,,,
92920,set_tempo,20,1,0,,,,,,685714,,,,,,
92940,note_on,20,0,0,,,,,,,,0,,,81,0
92940,note_on,0,0,0,,,,,,,,0,,,77,0
92940,note_on,0,0,0,,,,,,,,0,,,75,0
92940,note_on,0,0,0,,,,,,,,0,,,87,58
93000,note_on,60,0,0,,,,,,,,0,,,87,0
93000,note_on,0,0,0,,,,,,,,0,,,75,47
93000,note_on,0,0,0,,,,,,,,0,,,77,47
93000,note_on,0,0,0,,,,,,,,0,,,81,57
93040,set_tempo,40,1,0,,,,,,700771,,,,,,
93060,note_on,20,0,0,,,,,,,,0,,,81,0
93060,note_on,0,0,0,,,,,,,,0,,,77,0
93060,note_on,0,0,0,,,,,,,,0,,,75,0
93060,note_on,0,0,0,,,,,,,,0,,,87,59
93060,note_on,0,0,0,,,,,,,,0,,,35,79
93090,note_on,30,0,0,,,,,,,,0,,,35,0
93090,note_on,0,0,0,,,,,,,,0,,,47,79
93103,control_change,13,0,0,,,,,,,,0,64,0,,
93120,set_tempo,17,1,0,,,,,,666815,,,,,,
93120,note_on,0,0,0,,,,,,,,0,,,47,0
93120,note_on,0,0,0,,,,,,,,0,,,87,0
93120,note_on,0,0,0,,,,,,,,0,,,60,0
93120,note_on,0,0,0,,,,,,,,0,,,75,61
93120,note_on,0,0,0,,,,,,,,0,,,77,61
93120,note_on,0,0,0,,,,,,,,0,,,81,72
93120,note_on,0,0,0,,,,,,,,0,,,59,92
93120,control_change,0,0,0,,,,,,,,0,64,127,,
93180,note_on,60,0,0,,,,,,,,0,,,81,0
93180,note_on,0,0,0,,,,,,,,0,,,75,0
93180,note_on,0,0,0,,,,,,,,0,,,77,0
93180,note_on,0,0,0,,,,,,,,0,,,87,62
93240,note_on,60,0,0,,,,,,,,0,,,87,0
93240,note_on,0,0,0,,,,,,,,0,,,75,50
93240,note_on,0,0,0,,,,,,,,0,,,77,50
93240,note_on,0,0,0,,,,,,,,0,,,81,60
93300,note_on,60,0,0,,,,,,,,0,,,81,0
93300,note_on,0,0,0,,,,,,,,0,,,77,0
93300,note_on,0,0,0,,,,,,,,0,,,75,0
93300,note_on,0,0,0,,,,,,,,0,,,87,62
93360,note_on,60,0,0,,,,,,,,0,,,87,0
93360,note_on,0,0,0,,,,,,,,0,,,75,50
93360,note_on,0,0,0,,,,,,,,0,,,77,50
93360,note_on,0,0,0,,,,,,,,0,,,81,60
93420,note_on,60,0,0,,,,,,,,0,,,81,0
93420,note_on,0,0,0,,,,,,,,0,,,77,0
93420,note_on,0,0,0,,,,,,,,0,,,75,0
93420,note_on,0,0,0,,,,,,,,0,,,87,62
93480,note_on,60,0,0,,,,,,,,0,,,87,0
93480,note_on,0,0,0,,,,,,,,0,,,75,50
93480,note_on,0,0,0,,,,,,,,0,,,77,50
93480,note_on,0,0,0,,,,,,,,0,,,81,60
93540,note_on,60,0,0,,,,,,,,0,,,81,0
93540,note_on,0,0,0,,,,,,,,0,,,77,0
93540,note_on,0,0,0,,,,,,,,0,,,75,0
93540,note_on,0,0,0,,,,,,,,0,,,87,62
93600,set_tempo,60,1,0,,,,,,650971,,,,,,
93600,note_on,0,0,0,,,,,,,,0,,,87,0
93600,note_on,0,0,0,,,,,,,,0,,,59,0
93600,note_on,0,0,0,,,,,,,,0,,,81,83
93600,note_on,0,0,0,,,,,,,,0,,,75,55
93600,note_on,0,0,0,,,,,,,,0,,,77,66
93600,note_on,0,0,0,,,,,,,,0,,,60,75
93600,note_on,0,0,0,,,,,,,,0,,,72,75
93605,control_change,5,0,0,,,,,,,,0,64,0,,
93655,control_change,50,0,0,,,,,,,,0,64,127,,
93680,note_on,25,0,0,,,,,,,,0,,,77,0
93680,note_on,0,0,0,,,,,,,,0,,,75,0
93680,note_on,0,0,0,,,,,,,,0,,,87,61
93758,note_on,78,0,0,,,,,,,,0,,,81,0
93760,note_on,2,0,0,,,,,,,,0,,,87,0
93760,note_on,0,0,0,,,,,,,,0,,,75,55
93760,note_on,0,0,0,,,,,,,,0,,,77,55
93760,note_on,0,0,0,,,,,,,,0,,,81,66
93840,note_on,80,0,0,,,,,,,,0,,,81,0
93840,note_on,0,0,0,,,,,,,,0,,,75,0
93840,note_on,0,0,0,,,,,,,,0,,,77,0
93840,note_on,0,0,0,,,,,,,,0,,,87,61
93920,note_on,80,0,0,,,,,,,,0,,,87,0
93920,note_on,0,0,0,,,,,,,,0,,,75,56
93920,note_on,0,0,0,,,,,,,,0,,,77,56
93920,note_on,0,0,0,,,,,,,,0,,,81,67
94000,note_on,80,0,0,,,,,,,,0,,,81,0
94000,note_on,0,0,0,,,,,,,,0,,,75,0
94000,note_on,0,0,0,,,,,,,,0,,,77,0
94000,note_on,0,0,0,,,,,,,,0,,,87,62
94080,set_tempo,80,1,0,,,,,,666815,,,,,,
94080,note_on,0,0,0,,,,,,,,0,,,87,0
94080,note_on,0,0,0,,,,,,,,0,,,72,0
94080,note_on,0,0,0,,,,,,,,0,,,60,0
94080,note_on,0,0,0,,,,,,,,0,,,83,88
94080,note_on,0,0,0,,,,,,,,0,,,75,57
94080,note_on,0,0,0,,,,,,,,0,,,77,68
94080,note_on,0,0,0,,,,,,,,0,,,59,79
94080,note_on,0,0,0,,,,,,,,0,,,71,79
94092,control_change,12,0,0,,,,,,,,0,64,0,,
94152,control_change,60,0,0,,,,,,,,0,64,127,,
94160,note_on,8,0,0,,,,,,,,0,,,77,0
94160,note_on,0,0,0,,,,,,,,0,,,75,0
94160,note_on,0,0,0,,,,,,,,0,,,87,63
94238,note_on,78,0,0,,,,,,,,0,,,83,0
94240,note_on,2,0,0,,,,,,,,0,,,87,0
94240,note_on,0,0,0,,,,,,,,0,,,75,58
94240,note_on,0,0,0,,,,,,,,0,,,77,58
94240,note_on,0,0,0,,,,,,,,0,,,83,69
94320,note_on,80,0,0,,,,,,,,0,,,83,0
94320,note_on,0,0,0,,,,,,,,0,,,75,0
94320,note_on,0,0,0,,,,,,,,0,,,77,0
94320,note_on,0,0,0,,,,,,,,0,,,87,63
94400,note_on,80,0,0,,,,,,,,0,,,87,0
94400,note_on,0,0,0,,,,,,,,0,,,75,58
94400,note_on,0,0,0,,,,,,,,0,,,77,58
94400,note_on,0,0,0,,,,,,,,0,,,83,69
94480,note_on,80,0,0,,,,,,,,0,,,83,0
94480,note_on,0,0,0,,,,,,,,0,,,75,0
94480,note_on,0,0,0,,,,,,,,0,,,77,0
94480,note_on,0,0,0,,,,,,,,0,,,87,63
94560,note_on,80,0,0,,,,,,,,0,,,87,0
94560,note_on,0,0,0,,,,,,,,0,,,71,0
94560,note_on,0,0,0,,,,,,,,0,,,59,0
94560,note_on,0,0,0,,,,,,,,0,,,84,91
94560,note_on,0,0,0,,,,,,,,0,,,75,59
94560,note_on,0,0,0,,,,,,,,0,,,77,70
94560,note_on,0,0,0,,,,,,,,0,,,57,82
94560,note_on,0,0,0,,,,,,,,0,,,69,82
94578,control_change,18,0,0,,,,,,,,0,64,0,,
94629,control_change,51,0,0,,,,,,,,0,64,127,,
94640,note_on,11,0,0,,,,,,,,0,,,77,0
94640,note_on,0,0,0,,,,,,,,0,,,75,0
94640,note_on,0,0,0,,,,,,,,0,,,87,64
94718,note_on,78,0,0,,,,,,,,0,,,84,0
94720,note_on,2,0,0,,,,,,,,0,,,87,0
94720,note_on,0,0,0,,,,,,,,0,,,75,60
94720,note_on,0,0,0,,,,,,,,0,,,77,60
94720,note_on,0,0,0,,,,,,,,0,,,84,71
94800,note_on,80,0,0,,,,,,,,0,,,84,0
94800,note_on,0,0,0,,,,,,,,0,,,75,0
94800,note_on,0,0,0,,,,,,,,0,,,77,0
94800,note_on,0,0,0,,,,,,,,0,,,87,64
94837,set_tempo,37,1,0,,,,,,714456,,,,,,
94880,note_on,43,0,0,,,,,,,,0,,,87,0
94880,note_on,0,0,0,,,,,,,,0,,,75,61
94880,note_on,0,0,0,,,,,,,,0,,,77,61
94880,note_on,0,0,0,,,,,,,,0,,,84,72
94960,note_on,80,0,0,,,,,,,,0,,,84,0
94960,note_on,0,0,0,,,,,,,,0,,,75,0
94960,note_on,0,0,0,,,,,,,,0,,,77,0
94960,note_on,0,0,0,,,,,,,,0,,,87,65
95040,set_tempo,80,1,0,,,,,,647179,,,,,,
95040,note_on,0,0,0,,,,,,,,0,,,87,0
95040,note_on,0,0,0,,,,,,,,0,,,69,0
95040,note_on,0,0,0,,,,,,,,0,,,57,0
95040,note_on,0,0,0,,,,,,,,0,,,76,62
95040,note_on,0,0,0,,,,,,,,0,,,80,72
95040,note_on,0,0,0,,,,,,,,0,,,64,82
95040,note_on,0,0,0,,,,,,,,0,,,56,76
95045,control_change,5,0,0,,,,,,,,0,64,0,,
95074,control_change,29,0,0,,,,,,,,0,64,127,,
95120,note_on,46,0,0,,,,,,,,0,,,80,0
95120,note_on,0,0,0,,,,,,,,0,,,76,0
95120,note_on,0,0,0,,,,,,,,0,,,88,67
95160,note_on,40,0,0,,,,,,,,0,,,56,0
95200,note_on,40,0,0,,,,,,,,0,,,88,0
95200,note_on,0,0,0,,,,,,,,0,,,76,63
95200,note_on,0,0,0,,,,,,,,0,,,80,63
95280,set_tempo,80,1,0,,,,,,670841,,,,,,
95280,note_on,0,0,0,,,,,,,,0,,,80,0
95280,note_on,0,0,0,,,,,,,,0,,,76,0
95280,note_on,0,0,0,,,,,,,,0,,,88,67
95280,note_on,0,0,0,,,,,,,,0,,,40,63
95360,note_on,80,0,0,,,,,,,,0,,,88,0
95360,note_on,0,0,0,,,,,,,,0,,,76,63
95360,note_on,0,0,0,,,,,,,,0,,,80,63
95400,note_on,40,0,0,,,,,,,,0,,,40,0
95440,note_on,40,0,0,,,,,,,,0,,,80,0
95440,note_on,0,0,0,,,,,,,,0,,,76,0
95440,note_on,0,0,0,,,,,,,,0,,,88,68
95520,set_tempo,80,1,0,,,,,,582129,,,,,,
95520,note_on,0,0,0,,,,,,,,0,,,88,0
95520,note_on,0,0,0,,,,,,,,0,,,64,0
95520,note_on,0,0,0,,,,,,,,0,,,84,91
95520,note_on,0,0,0,,,,,,,,0,,,75,62
95520,note_on,0,0,0,,,,,,,,0,,,63,84
95520,note_on,0,0,0,,,,,,,,0,,,60,74
95529,control_change,9,0,0,,,,,,,,0,64,0,,
95563,control_change,34,0,0,,,,,,,,0,64,127,,
95600,note_on,37,0,0,,,,,,,,0,,,75,0
95600,note_on,0,0,0,,,,,,,,0,,,87,67
95640,note_on,40,0,0,,,,,,,,0,,,60,0
95678,note_on,38,0,0,,,,,,,,0,,,84,0
95680,note_on,2,0,0,,,,,,,,0,,,87,0
95680,note_on,0,0,0,,,,,,,,0,,,75,63
95680,note_on,0,0,0,,,,,,,,0,,,84,63
95760,set_tempo,80,1,0,,,,,,643363,,,,,,
95760,note_on,0,0,0,,,,,,,,0,,,84,0
95760,note_on,0,0,0,,,,,,,,0,,,75,0
95760,note_on,0,0,0,,,,,,,,0,,,87,67
95760,note_on,0,0,0,,,,,,,,0,,,52,63
95840,note_on,80,0,0,,,,,,,,0,,,87,0
95840,note_on,0,0,0,,,,,,,,0,,,75,63
95840,note_on,0,0,0,,,,,,,,0,,,84,63
95880,note_on,40,0,0,,,,,,,,0,,,52,0
95920,note_on,40,0,0,,,,,,,,0,,,84,0
95920,note_on,0,0,0,,,,,,,,0,,,75,0
95920,note_on,0,0,0,,,,,,,,0,,,87,68
96000,set_tempo,80,1,0,,,,,,601202,,,,,,
96000,note_on,0,0,0,,,,,,,,0,,,87,0
96000,note_on,0,0,0,,,,,,,,0,,,63,0
96000,note_on,0,0,0,,,,,,,,0,,,83,90
96000,note_on,0,0,0,,,,,,,,0,,,74,62
96000,note_on,0,0,0,,,,,,,,0,,,62,83
96000,note_on,0,0,0,,,,,,,,0,,,59,75
96006,control_change,6,0,0,,,,,,,,0,64,0,,
96031,control_change,25,0,0,,,,,,,,0,64,127,,
96080,note_on,49,0,0,,,,,,,,0,,,74,0
96080,note_on,0,0,0,,,,,,,,0,,,86,67
96120,note_on,40,0,0,,,,,,,,0,,,59,0
96158,note_on,38,0,0,,,,,,,,0,,,83,0
96160,note_on,2,0,0,,,,,,,,0,,,86,0
96160,note_on,0,0,0,,,,,,,,0,,,74,63
96160,note_on,0,0,0,,,,,,,,0,,,83,63
96240,set_tempo,80,1,0,,,,,,643363,,,,,,
96240,note_on,0,0,0,,,,,,,,0,,,83,0
96240,note_on,0,0,0,,,,,,,,0,,,74,0
96240,note_on,0,0,0,,,,,,,,0,,,86,67
96240,note_on,0,0,0,,,,,,,,0,,,40,64
96320,note_on,80,0,0,,,,,,,,0,,,86,0
96320,note_on,0,0,0,,,,,,,,0,,,74,63
96320,note_on,0,0,0,,,,,,,,0,,,83,63
96360,note_on,40,0,0,,,,,,,,0,,,40,0
96400,note_on,40,0,0,,,,,,,,0,,,83,0
96400,note_on,0,0,0,,,,,,,,0,,,74,0
96400,note_on,0,0,0,,,,,,,,0,,,86,68
96480,set_tempo,80,1,0,,,,,,621568,,,,,,
96480,note_on,0,0,0,,,,,,,,0,,,86,0
96480,note_on,0,0,0,,,,,,,,0,,,62,0
96480,note_on,0,0,0,,,,,,,,0,,,82,90
96480,note_on,0,0,0,,,,,,,,0,,,73,62
96480,note_on,0,0,0,,,,,,,,0,,,61,82
96480,note_on,0,0,0,,,,,,,,0,,,58,75
96489,control_change,9,0,0,,,,,,,,0,64,0,,
96520,control_change,31,0,0,,,,,,,,0,64,127,,
96560,note_on,40,0,0,,,,,,,,0,,,73,0
96560,note_on,0,0,0,,,,,,,,0,,,85,67
96600,note_on,40,0,0,,,,,,,,0,,,58,0
96638,note_on,38,0,0,,,,,,,,0,,,82,0
96640,note_on,2,0,0,,,,,,,,0,,,85,0
96640,note_on,0,0,0,,,,,,,,0,,,73,63
96640,note_on,0,0,0,,,,,,,,0,,,82,63
96720,set_tempo,80,1,0,,,,,,647179,,,,,,
96720,note_on,0,0,0,,,,,,,,0,,,82,0
96720,note_on,0,0,0,,,,,,,,0,,,73,0
96720,note_on,0,0,0,,,,,,,,0,,,85,67
96720,note_on,0,0,0,,,,,,,,0,,,52,64
96800,note_on,80,0,0,,,,,,,,0,,,85,0
96800,note_on,0,0,0,,,,,,,,0,,,73,63
96800,note_on,0,0,0,,,,,,,,0,,,82,63
96840,note_on,40,0,0,,,,,,,,0,,,52,0
96880,note_on,40,0,0,,,,,,,,0,,,82,0
96880,note_on,0,0,0,,,,,,,,0,,,73,0
96880,note_on,0,0,0,,,,,,,,0,,,85,68
96960,set_tempo,80,1,0,,,,,,625065,,,,,,
96960,note_on,0,0,0,,,,,,,,0,,,85,0
96960,note_on,0,0,0,,,,,,,,0,,,61,0
96960,note_on,0,0,0,,,,,,,,0,,,81,88
96960,note_on,0,0,0,,,,,,,,0,,,72,62
96960,note_on,0,0,0,,,,,,,,0,,,60,81
96960,note_on,0,0,0,,,,,,,,0,,,51,77
96960,note_on,0,0,0,,,,,,,,0,,,57,77
96971,control_change,11,0,0,,,,,,,,0,64,0,,
97023,control_change,52,0,0,,,,,,,,0,64,127,,
97040,note_on,17,0,0,,,,,,,,0,,,72,0
97040,note_on,0,0,0,,,,,,,,0,,,84,67
97080,note_on,40,0,0,,,,,,,,0,,,51,0
97080,note_on,0,0,0,,,,,,,,0,,,57,0
97118,note_on,38,0,0,,,,,,,,0,,,81,0
97120,note_on,2,0,0,,,,,,,,0,,,84,0
97120,note_on,0,0,0,,,,,,,,0,,,72,63
97120,note_on,0,0,0,,,,,,,,0,,,81,63
97200,set_tempo,80,1,0,,,,,,650971,,,,,,
97200,note_on,0,0,0,,,,,,,,0,,,81,0
97200,note_on,0,0,0,,,,,,,,0,,,72,0
97200,note_on,0,0,0,,,,,,,,0,,,84,67
97200,note_on,0,0,0,,,,,,,,0,,,40,64
97280,note_on,80,0,0,,,,,,,,0,,,84,0
97280,note_on,0,0,0,,,,,,,,0,,,72,63
97280,note_on,0,0,0,,,,,,,,0,,,81,63
97320,note_on,40,0,0,,,,,,,,0,,,40,0
97360,note_on,40,0,0,,,,,,,,0,,,81,0
97360,note_on,0,0,0,,,,,,,,0,,,72,0
97360,note_on,0,0,0,,,,,,,,0,,,84,68
97440,set_tempo,80,1,0,,,,,,628667,,,,,,
97440,note_on,0,0,0,,,,,,,,0,,,84,0
97440,note_on,0,0,0,,,,,,,,0,,,60,0
97440,note_on,0,0,0,,,,,,,,0,,,80,87
97440,note_on,0,0,0,,,,,,,,0,,,71,62
97440,note_on,0,0,0,,,,,,,,0,,,59,81
97440,note_on,0,0,0,,,,,,,,0,,,52,67
97440,note_on,0,0,0,,,,,,,,0,,,56,80
97450,control_change,10,0,0,,,,,,,,0,64,0,,
97489,control_change,39,0,0,,,,,,,,0,64,127,,
97520,note_on,31,0,0,,,,,,,,0,,,71,0
97520,note_on,0,0,0,,,,,,,,0,,,83,67
97560,note_on,40,0,0,,,,,,,,0,,,52,0
97560,note_on,0,0,0,,,,,,,,0,,,56,0
97598,note_on,38,0,0,,,,,,,,0,,,80,0
97600,note_on,2,0,0,,,,,,,,0,,,83,0
97600,note_on,0,0,0,,,,,,,,0,,,71,63
97600,note_on,0,0,0,,,,,,,,0,,,80,63
97680,set_tempo,80,1,0,,,,,,650971,,,,,,
97680,note_on,0,0,0,,,,,,,,0,,,80,0
97680,note_on,0,0,0,,,,,,,,0,,,71,0
97680,note_on,0,0,0,,,,,,,,0,,,83,67
97760,note_on,80,0,0,,,,,,,,0,,,83,0
97760,note_on,0,0,0,,,,,,,,0,,,71,63
97760,note_on,0,0,0,,,,,,,,0,,,80,63
97840,note_on,80,0,0,,,,,,,,0,,,80,0
97840,note_on,0,0,0,,,,,,,,0,,,71,0
97840,note_on,0,0,0,,,,,,,,0,,,83,68
97860,set_tempo,20,1,0,,,,,,973710,,,,,,
97860,note_on,0,0,0,,,,,,,,0,,,59,0
97860,note_on,0,0,0,,,,,,,,0,,,37,79
97890,note_on,30,0,0,,,,,,,,0,,,37,0
97890,note_on,0,0,0,,,,,,,,0,,,49,79
97920,set_tempo,30,1,0,,,,,,714456,,,,,,
97920,note_on,0,0,0,,,,,,,,0,,,49,0
97920,note_on,0,0,0,,,,,,,,0,,,83,0
97920,note_on,0,0,0,,,,,,,,0,,,76,65
97920,note_on,0,0,0,,,,,,,,0,,,79,65
97920,note_on,0,0,0,,,,,,,,0,,,82,78
97920,note_on,0,0,0,,,,,,,,0,,,61,92
97927,control_change,7,0,0,,,,,,,,0,64,0,,
97940,set_tempo,13,1,0,,,,,,710059,,,,,,
97951,control_change,11,0,0,,,,,,,,0,64,127,,
97960,set_tempo,9,1,0,,,,,,705882,,,,,,
97980,set_tempo,20,1,0,,,,,,701754,,,,,,
97980,note_on,0,0,0,,,,,,,,0,,,82,0
97980,note_on,0,0,0,,,,,,,,0,,,76,0
97980,note_on,0,0,0,,,,,,,,0,,,79,0
97980,note_on,0,0,0,,,,,,,,0,,,88,65
98000,set_tempo,20,1,0,,,,,,697674,,,,,,
98020,set_tempo,20,1,0,,,,,,693642,,,,,,
98040,set_tempo,20,1,0,,,,,,689655,,,,,,
98040,note_on,0,0,0,,,,,,,,0,,,88,0
98040,note_on,0,0,0,,,,,,,,0,,,76,55
98040,note_on,0,0,0,,,,,,,,0,,,79,55
98040,note_on,0,0,0,,,,,,,,0,,,82,65
98060,set_tempo,20,1,0,,,,,,685714,,,,,,
98080,set_tempo,20,1,0,,,,,,681818,,,,,,
98100,set_tempo,20,1,0,,,,,,677966,,,,,,
98100,note_on,0,0,0,,,,,,,,0,,,82,0
98100,note_on,0,0,0,,,,,,,,0,,,79,0
98100,note_on,0,0,0,,,,,,,,0,,,76,0
98100,note_on,0,0,0,,,,,,,,0,,,88,63
98120,set_tempo,20,1,0,,,,,,670391,,,,,,
98160,set_tempo,40,1,0,,,,,,674157,,,,,,
98160,note_on,0,0,0,,,,,,,,0,,,88,0
98160,note_on,0,0,0,,,,,,,,0,,,76,54
98160,note_on,0,0,0,,,,,,,,0,,,79,54
98160,note_on,0,0,0,,,,,,,,0,,,82,64
98200,set_tempo,40,1,0,,,,,,677966,,,,,,
98220,note_on,20,0,0,,,,,,,,0,,,82,0
98220,note_on,0,0,0,,,,,,,,0,,,79,0
98220,note_on,0,0,0,,,,,,,,0,,,76,0
98220,note_on,0,0,0,,,,,,,,0,,,88,63
98240,set_tempo,20,1,0,,,,,,681818,,,,,,
98280,set_tempo,40,1,0,,,,,,685714,,,,,,
98280,note_on,0,0,0,,,,,,,,0,,,88,0
98280,note_on,0,0,0,,,,,,,,0,,,76,54
98280,note_on,0,0,0,,,,,,,,0,,,79,54
98280,note_on,0,0,0,,,,,,,,0,,,82,64
98320,set_tempo,40,1,0,,,,,,689655,,,,,,
98340,note_on,20,0,0,,,,,,,,0,,,82,0
98340,note_on,0,0,0,,,,,,,,0,,,79,0
98340,note_on,0,0,0,,,,,,,,0,,,76,0
98340,note_on,0,0,0,,,,,,,,0,,,88,63
98400,note_on,60,0,0,,,,,,,,0,,,88,0
98400,note_on,0,0,0,,,,,,,,0,,,76,56
98400,note_on,0,0,0,,,,,,,,0,,,79,56
98400,note_on,0,0,0,,,,,,,,0,,,82,68
98460,note_on,60,0,0,,,,,,,,0,,,82,0
98460,note_on,0,0,0,,,,,,,,0,,,79,0
98460,note_on,0,0,0,,,,,,,,0,,,76,0
98460,note_on,0,0,0,,,,,,,,0,,,88,61
98480,set_tempo,20,1,0,,,,,,700771,,,,,,
98520,note_on,40,0,0,,,,,,,,0,,,88,0
98520,note_on,0,0,0,,,,,,,,0,,,76,49
98520,note_on,0,0,0,,,,,,,,0,,,79,49
98520,note_on,0,0,0,,,,,,,,0,,,82,58
98580,note_on,60,0,0,,,,,,,,0,,,82,0
98580,note_on,0,0,0,,,,,,,,0,,,79,0
98580,note_on,0,0,0,,,,,,,,0,,,76,0
98580,note_on,0,0,0,,,,,,,,0,,,88,58
98640,set_tempo,60,1,0,,,,,,696379,,,,,,
98640,note_on,0,0,0,,,,,,,,0,,,88,0
98640,note_on,0,0,0,,,,,,,,0,,,76,48
98640,note_on,0,0,0,,,,,,,,0,,,79,48
98640,note_on,0,0,0,,,,,,,,0,,,82,57
98700,note_on,60,0,0,,,,,,,,0,,,82,0
98700,note_on,0,0,0,,,,,,,,0,,,79,0
98700,note_on,0,0,0,,,,,,,,0,,,76,0
98700,note_on,0,0,0,,,,,,,,0,,,88,58
98760,note_on,60,0,0,,,,,,,,0,,,88,0
98760,note_on,0,0,0,,,,,,,,0,,,76,47
98760,note_on,0,0,0,,,,,,,,0,,,79,47
98760,note_on,0,0,0,,,,,,,,0,,,82,57
98800,set_tempo,40,1,0,,,,,,700771,,,,,,
98820,note_on,20,0,0,,,,,,,,0,,,82,0
98820,note_on,0,0,0,,,,,,,,0,,,79,0
98820,note_on,0,0,0,,,,,,,,0,,,76,0
98820,note_on,0,0,0,,,,,,,,0,,,88,59
98820,note_on,0,0,0,,,,,,,,0,,,36,79
98850,note_on,30,0,0,,,,,,,,0,,,36,0
98850,note_on,0,0,0,,,,,,,,0,,,48,79
98853,control_change,3,0,0,,,,,,,,0,64,0,,
98880,set_tempo,27,1,0,,,,,,666815,,,,,,
98880,note_on,0,0,0,,,,,,,,0,,,48,0
98880,note_on,0,0,0,,,,,,,,0,,,88,0
98880,note_on,0,0,0,,,,,,,,0,,,61,0
98880,note_on,0,0,0,,,,,,,,0,,,76,61
98880,note_on,0,0,0,,,,,,,,0,,,79,61
98880,note_on,0,0,0,,,,,,,,0,,,82,72
98880,note_on,0,0,0,,,,,,,,0,,,60,92
98880,control_change,0,0,0,,,,,,,,0,64,127,,
98940,note_on,60,0,0,,,,,,,,0,,,82,0
98940,note_on,0,0,0,,,,,,,,0,,,76,0
98940,note_on,0,0,0,,,,,,,,0,,,79,0
98940,note_on,0,0,0,,,,,,,,0,,,88,62
99000,note_on,60,0,0,,,,,,,,0,,,88,0
99000,note_on,0,0,0,,,,,,,,0,,,76,50
99000,note_on,0,0,0,,,,,,,,0,,,79,50
99000,note_on,0,0,0,,,,,,,,0,,,82,60
99060,note_on,60,0,0,,,,,,,,0,,,82,0
99060,note_on,0,0,0,,,,,,,,0,,,79,0
99060,note_on,0,0,0,,,,,,,,0,,,76,0
99060,note_on,0,0,0,,,,,,,,0,,,88,62
99120,note_on,60,0,0,,,,,,,,0,,,88,0
99120,note_on,0,0,0,,,,,,,,0,,,76,50
99120,note_on,0,0,0,,,,,,,,0,,,79,50
99120,note_on,0,0,0,,,,,,,,0,,,82,60
99180,note_on,60,0,0,,,,,,,,0,,,82,0
99180,note_on,0,0,0,,,,,,,,0,,,79,0
99180,note_on,0,0,0,,,,,,,,0,,,76,0
99180,note_on,0,0,0,,,,,,,,0,,,88,62
99240,note_on,60,0,0,,,,,,,,0,,,88,0
99240,note_on,0,0,0,,,,,,,,0,,,76,50
99240,note_on,0,0,0,,,,,,,,0,,,79,50
99240,note_on,0,0,0,,,,,,,,0,,,82,60
99300,note_on,60,0,0,,,,,,,,0,,,82,0
99300,note_on,0,0,0,,,,,,,,0,,,79,0
99300,note_on,0,0,0,,,,,,,,0,,,76,0
99300,note_on,0,0,0,,,,,,,,0,,,88,62
99360,set_tempo,60,1,0,,,,,,650971,,,,,,
99360,note_on,0,0,0,,,,,,,,0,,,88,0
99360,note_on,0,0,0,,,,,,,,0,,,60,0
99360,note_on,0,0,0,,,,,,,,0,,,82,83
99360,note_on,0,0,0,,,,,,,,0,,,76,55
99360,note_on,0,0,0,,,,,,,,0,,,79,66
99360,note_on,0,0,0,,,,,,,,0,,,61,75
99360,note_on,0,0,0,,,,,,,,0,,,73,75
99365,control_change,5,0,0,,,,,,,,0,64,0,,
99391,control_change,26,0,0,,,,,,,,0,64,127,,
99440,note_on,49,0,0,,,,,,,,0,,,79,0
99440,note_on,0,0,0,,,,,,,,0,,,76,0
99440,note_on,0,0,0,,,,,,,,0,,,88,61
99518,note_on,78,0,0,,,,,,,,0,,,82,0
99520,note_on,2,0,0,,,,,,,,0,,,88,0
99520,note_on,0,0,0,,,,,,,,0,,,76,55
99520,note_on,0,0,0,,,,,,,,0,,,79,55
99520,note_on,0,0,0,,,,,,,,0,,,82,66
99600,note_on,80,0,0,,,,,,,,0,,,82,0
99600,note_on,0,0,0,,,,,,,,0,,,76,0
99600,note_on,0,0,0,,,,,,,,0,,,79,0
99600,note_on,0,0,0,,,,,,,,0,,,88,61
99680,note_on,80,0,0,,,,,,,,0,,,88,0
99680,note_on,0,0,0,,,,,,,,0,,,76,56
99680,note_on,0,0,0,,,,,,,,0,,,79,56
99680,note_on,0,0,0,,,,,,,,0,,,82,67
99760,note_on,80,0,0,,,,,,,,0,,,82,0
99760,note_on,0,0,0,,,,,,,,0,,,76,0
99760,note_on,0,0,0,,,,,,,,0,,,79,0
99760,note_on,0,0,0,,,,,,,,0,,,88,62
99840,set_tempo,80,1,0,,,,,,666815,,,,,,
99840,note_on,0,0,0,,,,,,,,0,,,88,0
99840,note_on,0,0,0,,,,,,,,0,,,73,0
99840,note_on,0,0,0,,,,,,,,0,,,61,0
99840,note_on,0,0,0,,,,,,,,0,,,84,88
99840,note_on,0,0,0,,,,,,,,0,,,76,57
99840,note_on,0,0,0,,,,,,,,0,,,79,68
99840,note_on,0,0,0,,,,,,,,0,,,60,79
99840,note_on,0,0,0,,,,,,,,0,,,72,79
99847,control_change,7,0,0,,,,,,,,0,64,0,,
99880,control_change,33,0,0,,,,,,,,0,64,127,,
99920,note_on,40,0,0,,,,,,,,0,,,79,0
99920,note_on,0,0,0,,,,,,,,0,,,76,0
99920,note_on,0,0,0,,,,,,,,0,,,88,63
99998,note_on,78,0,0,,,,,,,,0,,,84,0
100000,note_on,2,0,0,,,,,,,,0,,,88,0
100000,note_on,0,0,0,,,,,,,,0,,,76,58
100000,note_on,0,0,0,,,,,,,,0,,,79,58
100000,note_on,0,0,0,,,,,,,,0,,,84,69
100080,note_on,80,0,0,,,,,,,,0,,,84,0
100080,note_on,0,0,0,,,,,,,,0,,,76,0
100080,note_on,0,0,0,,,,,,,,0,,,79,0
100080,note_on,0,0,0,,,,,,,,0,,,88,63
100160,note_on,80,0,0,,,,,,,,0,,,88,0
100160,note_on,0,0,0,,,,,,,,0,,,76,58
100160,note_on,0,0,0,,,,,,,,0,,,79,58
100160,note_on,0,0,0,,,,,,,,0,,,84,69
100240,note_on,80,0,0,,,,,,,,0,,,84,0
100240,note_on,0,0,0,,,,,,,,0,,,76,0
100240,note_on,0,0,0,,,,,,,,0,,,79,0
100240,note_on,0,0,0,,,,,,,,0,,,88,63
100320,note_on,80,0,0,,,,,,,,0,,,88,0
100320,note_on,0,0,0,,,,,,,,0,,,72,0
100320,note_on,0,0,0,,,,,,,,0,,,60,0
100320,note_on,0,0,0,,,,,,,,0,,,85,91
100320,note_on,0,0,0,,,,,,,,0,,,76,59
100320,note_on,0,0,0,,,,,,,,0,,,79,70
100320,note_on,0,0,0,,,,,,,,0,,,58,82
100320,note_on,0,0,0,,,,,,,,0,,,70,82
100338,control_change,18,0,0,,,,,,,,0,64,0,,
100389,control_change,51,0,0,,,,,,,,0,64,127,,
100400,note_on,11,0,0,,,,,,,,0,,,79,0
100400,note_on,0,0,0,,,,,,,,0,,,76,0
100400,note_on,0,0,0,,,,,,,,0,,,88,64
100478,note_on,78,0,0,,,,,,,,0,,,85,0
100480,note_on,2,0,0,,,,,,,,0,,,88,0
100480,note_on,0,0,0,,,,,,,,0,,,76,60
100480,note_on,0,0,0,,,,,,,,0,,,79,60
100480,note_on,0,0,0,,,,,,,,0,,,85,71
100560,note_on,80,0,0,,,,,,,,0,,,85,0
100560,note_on,0,0,0,,,,,,,,0,,,76,0
100560,note_on,0,0,0,,,,,,,,0,,,79,0
100560,note_on,0,0,0,,,,,,,,0,,,88,64
100597,set_tempo,37,1,0,,,,,,714456,,,,,,
100640,note_on,43,0,0,,,,,,,,0,,,88,0
100640,note_on,0,0,0,,,,,,,,0,,,76,61
100640,note_on,0,0,0,,,,,,,,0,,,79,61
100640,note_on,0,0,0,,,,,,,,0,,,85,72
100720,note_on,80,0,0,,,,,,,,0,,,85,0
100720,note_on,0,0,0,,,,,,,,0,,,76,0
100720,note_on,0,0,0,,,,,,,,0,,,79,0
100720,note_on,0,0,0,,,,,,,,0,,,88,65
100800,set_tempo,80,1,0,,,,,,647179,,,,,,
100800,note_on,0,0,0,,,,,,,,0,,,88,0
100800,note_on,0,0,0,,,,,,,,0,,,70,0
100800,note_on,0,0,0,,,,,,,,0,,,58,0
100800,note_on,0,0,0,,,,,,,,0,,,77,62
100800,note_on,0,0,0,,,,,,,,0,,,81,72
100800,note_on,0,0,0,,,,,,,,0,,,65,82
100800,note_on,0,0,0,,,,,,,,0,,,57,73
100807,control_change,7,0,0,,,,,,,,0,64,0,,
100834,control_change,27,0,0,,,,,,,,0,64,127,,
100880,note_on,46,0,0,,,,,,,,0,,,81,0
100880,note_on,0,0,0,,,,,,,,0,,,77,0
100880,note_on,0,0,0,,,,,,,,0,,,89,67
100920,note_on,40,0,0,,,,,,,,0,,,57,0
100960,note_on,40,0,0,,,,,,,,0,,,89,0
100960,note_on,0,0,0,,,,,,,,0,,,77,63
100960,note_on,0,0,0,,,,,,,,0,,,81,63
101040,set_tempo,80,1,0,,,,,,670841,,,,,,
101040,note_on,0,0,0,,,,,,,,0,,,81,0
101040,note_on,0,0,0,,,,,,,,0,,,77,0
101040,note_on,0,0,0,,,,,,,,0,,,89,67
101040,note_on,0,0,0,,,,,,,,0,,,41,63
101120,note_on,80,0,0,,,,,,,,0,,,89,0
101120,note_on,0,0,0,,,,,,,,0,,,77,63
101120,note_on,0,0,0,,,,,,,,0,,,81,63
101160,note_on,40,0,0,,,,,,,,0,,,41,0
101200,note_on,40,0,0,,,,,,,,0,,,81,0
101200,note_on,0,0,0,,,,,,,,0,,,77,0
101200,note_on,0,0,0,,,,,,,,0,,,89,68
101280,set_tempo,80,1,0,,,,,,611185,,,,,,
101280,note_on,0,0,0,,,,,,,,0,,,89,0
101280,note_on,0,0,0,,,,,,,,0,,,65,0
101280,note_on,0,0,0,,,,,,,,0,,,85,91
101280,note_on,0,0,0,,,,,,,,0,,,76,62
101280,note_on,0,0,0,,,,,,,,0,,,64,84
101280,note_on,0,0,0,,,,,,,,0,,,61,76
101289,control_change,9,0,0,,,,,,,,0,64,0,,
101323,control_change,34,0,0,,,,,,,,0,64,127,,
101360,note_on,37,0,0,,,,,,,,0,,,76,0
101360,note_on,0,0,0,,,,,,,,0,,,88,67
101400,note_on,40,0,0,,,,,,,,0,,,61,0
101438,note_on,38,0,0,,,,,,,,0,,,85,0
101440,note_on,2,0,0,,,,,,,,0,,,88,0
101440,note_on,0,0,0,,,,,,,,0,,,76,63
101440,note_on,0,0,0,,,,,,,,0,,,85,63
101520,set_tempo,80,1,0,,,,,,643363,,,,,,
101520,note_on,0,0,0,,,,,,,,0,,,85,0
101520,note_on,0,0,0,,,,,,,,0,,,76,0
101520,note_on,0,0,0,,,,,,,,0,,,88,67
101520,note_on,0,0,0,,,,,,,,0,,,53,63
101600,note_on,80,0,0,,,,,,,,0,,,88,0
101600,note_on,0,0,0,,,,,,,,0,,,76,63
101600,note_on,0,0,0,,,,,,,,0,,,85,63
101640,note_on,40,0,0,,,,,,,,0,,,53,0
101680,note_on,40,0,0,,,,,,,,0,,,85,0
101680,note_on,0,0,0,,,,,,,,0,,,76,0
101680,note_on,0,0,0,,,,,,,,0,,,88,68
101760,set_tempo,80,1,0,,,,,,618111,,,,,,
101760,note_on,0,0,0,,,,,,,,0,,,88,0
101760,note_on,0,0,0,,,,,,,,0,,,64,0
101760,note_on,0,0,0,,,,,,,,0,,,84,90
101760,note_on,0,0,0,,,,,,,,0,,,75,62
101760,note_on,0,0,0,,,,,,,,0,,,63,83
101760,note_on,0,0,0,,,,,,,,0,,,60,72
101766,control_change,6,0,0,,,,,,,,0,64,0,,
101791,control_change,25,0,0,,,,,,,,0,64,127,,
101840,note_on,49,0,0,,,,,,,,0,,,75,0
101840,note_on,0,0,0,,,,,,,,0,,,87,67
101880,note_on,40,0,0,,,,,,,,0,,,60,0
101918,note_on,38,0,0,,,,,,,,0,,,84,0
101920,note_on,2,0,0,,,,,,,,0,,,87,0
101920,note_on,0,0,0,,,,,,,,0,,,75,63
101920,note_on,0,0,0,,,,,,,,0,,,84,63
102000,set_tempo,80,1,0,,,,,,643363,,,,,,
102000,note_on,0,0,0,,,,,,,,0,,,84,0
102000,note_on,0,0,0,,,,,,,,0,,,75,0
102000,note_on,0,0,0,,,,,,,,0,,,87,67
102000,note_on,0,0,0,,,,,,,,0,,,41,64
102080,note_on,80,0,0,,,,,,,,0,,,87,0
102080,note_on,0,0,0,,,,,,,,0,,,75,63
102080,note_on,0,0,0,,,,,,,,0,,,84,63
102120,note_on,40,0,0,,,,,,,,0,,,41,0
102160,note_on,40,0,0,,,,,,,,0,,,84,0
102160,note_on,0,0,0,,,,,,,,0,,,75,0
102160,note_on,0,0,0,,,,,,,,0,,,87,68
102240,set_tempo,80,1,0,,,,,,621568,,,,,,
102240,note_on,0,0,0,,,,,,,,0,,,87,0
102240,note_on,0,0,0,,,,,,,,0,,,63,0
102240,note_on,0,0,0,,,,,,,,0,,,83,90
102240,note_on,0,0,0,,,,,,,,0,,,74,62
102240,note_on,0,0,0,,,,,,,,0,,,62,82
102240,note_on,0,0,0,,,,,,,,0,,,59,72
102249,control_change,9,0,0,,,,,,,,0,64,0,,
102280,control_change,31,0,0,,,,,,,,0,64,127,,
102320,note_on,40,0,0,,,,,,,,0,,,74,0
102320,note_on,0,0,0,,,,,,,,0,,,86,67
102360,note_on,40,0,0,,,,,,,,0,,,59,0
102398,note_on,38,0,0,,,,,,,,0,,,83,0
102400,note_on,2,0,0,,,,,,,,0,,,86,0
102400,note_on,0,0,0,,,,,,,,0,,,74,63
102400,note_on,0,0,0,,,,,,,,0,,,83,63
102480,set_tempo,80,1,0,,,,,,647179,,,,,,
102480,note_on,0,0,0,,,,,,,,0,,,83,0
102480,note_on,0,0,0,,,,,,,,0,,,74,0
102480,note_on,0,0,0,,,,,,,,0,,,86,67
102480,note_on,0,0,0,,,,,,,,0,,,53,64
102560,note_on,80,0,0,,,,,,,,0,,,86,0
102560,note_on,0,0,0,,,,,,,,0,,,74,63
102560,note_on,0,0,0,,,,,,,,0,,,83,63
102600,note_on,40,0,0,,,,,,,,0,,,53,0
102640,note_on,40,0,0,,,,,,,,0,,,83,0
102640,note_on,0,0,0,,,,,,,,0,,,74,0
102640,note_on,0,0,0,,,,,,,,0,,,86,68
102720,set_tempo,80,1,0,,,,,,625065,,,,,,
102720,note_on,0,0,0,,,,,,,,0,,,86,0
102720,note_on,0,0,0,,,,,,,,0,,,62,0
102720,note_on,0,0,0,,,,,,,,0,,,82,88
102720,note_on,0,0,0,,,,,,,,0,,,73,62
102720,note_on,0,0,0,,,,,,,,0,,,61,81
102720,note_on,0,0,0,,,,,,,,0,,,52,62
102720,note_on,0,0,0,,,,,,,,0,,,58,72
102731,control_change,11,0,0,,,,,,,,0,64,0,,
102783,control_change,52,0,0,,,,,,,,0,64,127,,
102800,note_on,17,0,0,,,,,,,,0,,,73,0
102800,note_on,0,0,0,,,,,,,,0,,,85,67
102840,note_on,40,0,0,,,,,,,,0,,,52,0
102840,note_on,0,0,0,,,,,,,,0,,,58,0
102878,note_on,38,0,0,,,,,,,,0,,,82,0
102880,note_on,2,0,0,,,,,,,,0,,,85,0
102880,note_on,0,0,0,,,,,,,,0,,,73,63
102880,note_on,0,0,0,,,,,,,,0,,,82,63
102960,set_tempo,80,1,0,,,,,,650971,,,,,,
102960,note_on,0,0,0,,,,,,,,0,,,82,0
102960,note_on,0,0,0,,,,,,,,0,,,73,0
102960,note_on,0,0,0,,,,,,,,0,,,85,67
102960,note_on,0,0,0,,,,,,,,0,,,41,64
103040,note_on,80,0,0,,,,,,,,0,,,85,0
103040,note_on,0,0,0,,,,,,,,0,,,73,63
103040,note_on,0,0,0,,,,,,,,0,,,82,63
103080,note_on,40,0,0,,,,,,,,0,,,41,0
103120,note_on,40,0,0,,,,,,,,0,,,82,0
103120,note_on,0,0,0,,,,,,,,0,,,73,0
103120,note_on,0,0,0,,,,,,,,0,,,85,68
103200,set_tempo,80,1,0,,,,,,628667,,,,,,
103200,note_on,0,0,0,,,,,,,,0,,,85,0
103200,note_on,0,0,0,,,,,,,,0,,,61,0
103200,note_on,0,0,0,,,,,,,,0,,,81,87
103200,note_on,0,0,0,,,,,,,,0,,,72,62
103200,note_on,0,0,0,,,,,,,,0,,,60,81
103200,note_on,0,0,0,,,,,,,,0,,,53,62
103200,note_on,0,0,0,,,,,,,,0,,,57,72
103210,control_change,10,0,0,,,,,,,,0,64,0,,
103249,control_change,39,0,0,,,,,,,,0,64,127,,
103280,note_on,31,0,0,,,,,,,,0,,,72,0
103280,note_on,0,0,0,,,,,,,,0,,,84,67
103320,note_on,40,0,0,,,,,,,,0,,,53,0
103320,note_on,0,0,0,,,,,,,,0,,,57,0
103358,note_on,38,0,0,,,,,,,,0,,,81,0
103360,note_on,2,0,0,,,,,,,,0,,,84,0
103360,note_on,0,0,0,,,,,,,,0,,,72,63
103360,note_on,0,0,0,,,,,,,,0,,,81,63
103440,set_tempo,80,1,0,,,,,,650971,,,,,,
103440,note_on,0,0,0,,,,,,,,0,,,81,0
103440,note_on,0,0,0,,,,,,,,0,,,72,0
103440,note_on,0,0,0,,,,,,,,0,,,84,67
103520,note_on,80,0,0,,,,,,,,0,,,84,0
103520,note_on,0,0,0,,,,,,,,0,,,72,63
103520,note_on,0,0,0,,,,,,,,0,,,81,63
103600,note_on,80,0,0,,,,,,,,0,,,81,0
103600,note_on,0,0,0,,,,,,,,0,,,72,0
103600,note_on,0,0,0,,,,,,,,0,,,84,68
103620,set_tempo,20,1,0,,,,,,973710,,,,,,
103620,note_on,0,0,0,,,,,,,,0,,,39,79
103650,note_on,30,0,0,,,,,,,,0,,,39,0
103650,note_on,0,0,0,,,,,,,,0,,,51,79
103680,set_tempo,30,1,0,,,,,,710059,,,,,,
103680,note_on,0,0,0,,,,,,,,0,,,51,0
103680,note_on,0,0,0,,,,,,,,0,,,84,0
103680,note_on,0,0,0,,,,,,,,0,,,60,0
103680,note_on,0,0,0,,,,,,,,0,,,78,65
103680,note_on,0,0,0,,,,,,,,0,,,81,65
103680,note_on,0,0,0,,,,,,,,0,,,84,78
103680,note_on,0,0,0,,,,,,,,0,,,63,92
103680,control_change,0,0,0,,,,,,,,0,64,0,,
103700,set_tempo,20,1,0,,,,,,705882,,,,,,
103711,control_change,11,0,0,,,,,,,,0,64,127,,
103720,set_tempo,9,1,0,,,,,,697674,,,,,,
103740,set_tempo,20,1,0,,,,,,689655,,,,,,
103740,note_on,0,0,0,,,,,,,,0,,,84,0
103740,note_on,0,0,0,,,,,,,,0,,,78,0
103740,note_on,0,0,0,,,,,,,,0,,,81,0
103740,note_on,0,0,0,,,,,,,,0,,,90,65
103760,set_tempo,20,1,0,,,,,,681818,,,,,,
103780,set_tempo,20,1,0,,,,,,674157,,,,,,
103800,set_tempo,20,1,0,,,,,,666667,,,,,,
103800,note_on,0,0,0,,,,,,,,0,,,90,0
103800,note_on,0,0,0,,,,,,,,0,,,78,55
103800,note_on,0,0,0,,,,,,,,0,,,81,55
103800,note_on,0,0,0,,,,,,,,0,,,84,65
103820,set_tempo,20,1,0,,,,,,655738,,,,,,
103860,set_tempo,40,1,0,,,,,,659341,,,,,,
103860,note_on,0,0,0,,,,,,,,0,,,84,0
103860,note_on,0,0,0,,,,,,,,0,,,81,0
103860,note_on,0,0,0,,,,,,,,0,,,78,0
103860,note_on,0,0,0,,,,,,,,0,,,90,63
103900,set_tempo,40,1,0,,,,,,662983,,,,,,
103920,set_tempo,20,1,0,,,,,,666667,,,,,,
103920,note_on,0,0,0,,,,,,,,0,,,90,0
103920,note_on,0,0,0,,,,,,,,0,,,78,55
103920,note_on,0,0,0,,,,,,,,0,,,81,55
103920,note_on,0,0,0,,,,,,,,0,,,84,65
103960,set_tempo,40,1,0,,,,,,670391,,,,,,
103980,set_tempo,20,1,0,,,,,,674157,,,,,,
103980,note_on,0,0,0,,,,,,,,0,,,84,0
103980,note_on,0,0,0,,,,,,,,0,,,81,0
103980,note_on,0,0,0,,,,,,,,0,,,78,0
103980,note_on,0,0,0,,,,,,,,0,,,90,64
104020,set_tempo,40,1,0,,,,,,677966,,,,,,
104040,set_tempo,20,1,0,,,,,,681818,,,,,,
104040,note_on,0,0,0,,,,,,,,0,,,90,0
104040,note_on,0,0,0,,,,,,,,0,,,78,55
104040,note_on,0,0,0,,,,,,,,0,,,81,55
104040,note_on,0,0,0,,,,,,,,0,,,84,65
104080,set_tempo,40,1,0,,,,,,685714,,,,,,
104100,set_tempo,20,1,0,,,,,,689655,,,,,,
104100,note_on,0,0,0,,,,,,,,0,,,84,0
104100,note_on,0,0,0,,,,,,,,0,,,81,0
104100,note_on,0,0,0,,,,,,,,0,,,78,0
104100,note_on,0,0,0,,,,,,,,0,,,90,64
104140,set_tempo,40,1,0,,,,,,693642,,,,,,
104160,set_tempo,20,1,0,,,,,,697674,,,,,,
104160,note_on,0,0,0,,,,,,,,0,,,90,0
104160,note_on,0,0,0,,,,,,,,0,,,78,58
104160,note_on,0,0,0,,,,,,,,0,,,81,58
104160,note_on,0,0,0,,,,,,,,0,,,84,70
104200,set_tempo,40,1,0,,,,,,693642,,,,,,
104220,set_tempo,20,1,0,,,,,,689655,,,,,,
104220,note_on,0,0,0,,,,,,,,0,,,84,0
104220,note_on,0,0,0,,,,,,,,0,,,81,0
104220,note_on,0,0,0,,,,,,,,0,,,78,0
104220,note_on,0,0,0,,,,,,,,0,,,90,63
104240,set_tempo,20,1,0,,,,,,685714,,,,,,
104280,set_tempo,40,1,0,,,,,,681818,,,,,,
104280,note_on,0,0,0,,,,,,,,0,,,90,0
104280,note_on,0,0,0,,,,,,,,0,,,78,51
104280,note_on,0,0,0,,,,,,,,0,,,81,51
104280,note_on,0,0,0,,,,,,,,0,,,84,61
104300,set_tempo,20,1,0,,,,,,677966,,,,,,
104320,set_tempo,20,1,0,,,,,,674157,,,,,,
104340,set_tempo,20,1,0,,,,,,670391,,,,,,
104340,note_on,0,0,0,,,,,,,,0,,,84,0
104340,note_on,0,0,0,,,,,,,,0,,,81,0
104340,note_on,0,0,0,,,,,,,,0,,,78,0
104340,note_on,0,0,0,,,,,,,,0,,,90,61
104360,set_tempo,20,1,0,,,,,,674157,,,,,,
104380,set_tempo,20,1,0,,,,,,677966,,,,,,
104400,set_tempo,20,1,0,,,,,,681818,,,,,,
104400,note_on,0,0,0,,,,,,,,0,,,90,0
104400,note_on,0,0,0,,,,,,,,0,,,78,50
104400,note_on,0,0,0,,,,,,,,0,,,81,50
104400,note_on,0,0,0,,,,,,,,0,,,84,60
104420,set_tempo,20,1,0,,,,,,685714,,,,,,
104440,set_tempo,20,1,0,,,,,,689655,,,,,,
104460,set_tempo,20,1,0,,,,,,693642,,,,,,
104460,note_on,0,0,0,,,,,,,,0,,,84,0
104460,note_on,0,0,0,,,,,,,,0,,,81,0
104460,note_on,0,0,0,,,,,,,,0,,,78,0
104460,note_on,0,0,0,,,,,,,,0,,,90,61
104520,note_on,60,0,0,,,,,,,,0,,,90,0
104520,note_on,0,0,0,,,,,,,,0,,,78,50
104520,note_on,0,0,0,,,,,,,,0,,,81,50
104520,note_on,0,0,0,,,,,,,,0,,,84,60
104560,set_tempo,40,1,0,,,,,,700771,,,,,,
104580,note_on,20,0,0,,,,,,,,0,,,84,0
104580,note_on,0,0,0,,,,,,,,0,,,81,0
104580,note_on,0,0,0,,,,,,,,0,,,78,0
104580,note_on,0,0,0,,,,,,,,0,,,90,62
104580,note_on,0,0,0,,,,,,,,0,,,38,79
104610,note_on,30,0,0,,,,,,,,0,,,38,0
104610,note_on,0,0,0,,,,,,,,0,,,50,79
104615,control_change,5,0,0,,,,,,,,0,64,0,,
104640,set_tempo,25,1,0,,,,,,666815,,,,,,
104640,note_on,0,0,0,,,,,,,,0,,,50,0
104640,note_on,0,0,0,,,,,,,,0,,,90,0
104640,note_on,0,0,0,,,,,,,,0,,,63,0
104640,note_on,0,0,0,,,,,,,,0,,,78,61
104640,note_on,0,0,0,,,,,,,,0,,,81,61
104640,note_on,0,0,0,,,,,,,,0,,,84,72
104640,note_on,0,0,0,,,,,,,,0,,,62,92
104640,control_change,0,0,0,,,,,,,,0,64,127,,
104660,set_tempo,20,1,0,,,,,,662983,,,,,,
104700,set_tempo,40,1,0,,,,,,659341,,,,,,
104700,note_on,0,0,0,,,,,,,,0,,,84,0
104700,note_on,0,0,0,,,,,,,,0,,,78,0
104700,note_on,0,0,0,,,,,,,,0,,,81,0
104700,note_on,0,0,0,,,,,,,,0,,,90,62
104740,set_tempo,40,1,0,,,,,,655738,,,,,,
104760,note_on,20,0,0,,,,,,,,0,,,90,0
104760,note_on,0,0,0,,,,,,,,0,,,78,50
104760,note_on,0,0,0,,,,,,,,0,,,81,50
104760,note_on,0,0,0,,,,,,,,0,,,84,60
104780,set_tempo,20,1,0,,,,,,652174,,,,,,
104800,set_tempo,20,1,0,,,,,,648649,,,,,,
104820,note_on,20,0,0,,,,,,,,0,,,84,0
104820,note_on,0,0,0,,,,,,,,0,,,81,0
104820,note_on,0,0,0,,,,,,,,0,,,78,0
104820,note_on,0,0,0,,,,,,,,0,,,90,62
104880,note_on,60,0,0,,,,,,,,0,,,90,0
104880,note_on,0,0,0,,,,,,,,0,,,78,50
104880,note_on,0,0,0,,,,,,,,0,,,81,50
104880,note_on,0,0,0,,,,,,,,0,,,84,60
104900,set_tempo,20,1,0,,,,,,652174,,,,,,
104940,note_on,40,0,0,,,,,,,,0,,,84,0
104940,note_on,0,0,0,,,,,,,,0,,,81,0
104940,note_on,0,0,0,,,,,,,,0,,,78,0
104940,note_on,0,0,0,,,,,,,,0,,,90,62
104980,set_tempo,40,1,0,,,,,,655738,,,,,,
105000,note_on,20,0,0,,,,,,,,0,,,90,0
105000,note_on,0,0,0,,,,,,,,0,,,78,50
105000,note_on,0,0,0,,,,,,,,0,,,81,50
105000,note_on,0,0,0,,,,,,,,0,,,84,60
105060,note_on,60,0,0,,,,,,,,0,,,84,0
105060,note_on,0,0,0,,,,,,,,0,,,81,0
105060,note_on,0,0,0,,,,,,,,0,,,78,0
105060,note_on,0,0,0,,,,,,,,0,,,90,62
105080,set_tempo,20,1,0,,,,,,659341,,,,,,
105120,note_on,40,0,0,,,,,,,,0,,,90,0
105120,note_on,0,0,0,,,,,,,,0,,,62,0
105120,note_on,0,0,0,,,,,,,,0,,,84,83
105120,note_on,0,0,0,,,,,,,,0,,,78,55
105120,note_on,0,0,0,,,,,,,,0,,,81,66
105120,note_on,0,0,0,,,,,,,,0,,,63,75
105120,note_on,0,0,0,,,,,,,,0,,,75,75
105125,control_change,5,0,0,,,,,,,,0,64,0,,
105140,set_tempo,15,1,0,,,,,,662983,,,,,,
105151,control_change,11,0,0,,,,,,,,0,64,127,,
105180,set_tempo,29,1,0,,,,,,659341,,,,,,
105200,note_on,20,0,0,,,,,,,,0,,,81,0
105200,note_on,0,0,0,,,,,,,,0,,,78,0
105200,note_on,0,0,0,,,,,,,,0,,,90,61
105220,set_tempo,20,1,0,,,,,,655738,,,,,,
105260,set_tempo,40,1,0,,,,,,652174,,,,,,
105278,note_on,18,0,0,,,,,,,,0,,,84,0
105280,set_tempo,2,1,0,,,,,,648649,,,,,,
105280,note_on,0,0,0,,,,,,,,0,,,90,0
105280,note_on,0,0,0,,,,,,,,0,,,78,55
105280,note_on,0,0,0,,,,,,,,0,,,81,55
105280,note_on,0,0,0,,,,,,,,0,,,84,66
105320,set_tempo,40,1,0,,,,,,645161,,,,,,
105360,set_tempo,40,1,0,,,,,,641711,,,,,,
105360,note_on,0,0,0,,,,,,,,0,,,84,0
105360,note_on,0,0,0,,,,,,,,0,,,78,0
105360,note_on,0,0,0,,,,,,,,0,,,81,0
105360,note_on,0,0,0,,,,,,,,0,,,90,61
105380,set_tempo,20,1,0,,,,,,638298,,,,,,
105440,set_tempo,60,1,0,,,,,,641711,,,,,,
105440,note_on,0,0,0,,,,,,,,0,,,90,0
105440,note_on,0,0,0,,,,,,,,0,,,78,56
105440,note_on,0,0,0,,,,,,,,0,,,81,56
105440,note_on,0,0,0,,,,,,,,0,,,84,67
105480,set_tempo,40,1,0,,,,,,645161,,,,,,
105520,set_tempo,40,1,0,,,,,,648649,,,,,,
105520,note_on,0,0,0,,,,,,,,0,,,84,0
105520,note_on,0,0,0,,,,,,,,0,,,78,0
105520,note_on,0,0,0,,,,,,,,0,,,81,0
105520,note_on,0,0,0,,,,,,,,0,,,90,62
105560,set_tempo,40,1,0,,,,,,652174,,,,,,
105600,set_tempo,40,1,0,,,,,,645161,,,,,,
105600,note_on,0,0,0,,,,,,,,0,,,90,0
105600,note_on,0,0,0,,,,,,,,0,,,75,0
105600,note_on,0,0,0,,,,,,,,0,,,63,0
105600,note_on,0,0,0,,,,,,,,0,,,86,88
105600,note_on,0,0,0,,,,,,,,0,,,78,57
105600,note_on,0,0,0,,,,,,,,0,,,81,68
105600,note_on,0,0,0,,,,,,,,0,,,62,79
105600,note_on,0,0,0,,,,,,,,0,,,74,79
105607,control_change,7,0,0,,,,,,,,0,64,0,,
105640,control_change,33,0,0,,,,,,,,0,64,127,,
105680,note_on,40,0,0,,,,,,,,0,,,81,0
105680,note_on,0,0,0,,,,,,,,0,,,78,0
105680,note_on,0,0,0,,,,,,,,0,,,90,63
105700,set_tempo,20,1,0,,,,,,648649,,,,,,
105758,note_on,58,0,0,,,,,,,,0,,,86,0
105760,note_on,2,0,0,,,,,,,,0,,,90,0
105760,note_on,0,0,0,,,,,,,,0,,,78,58
105760,note_on,0,0,0,,,,,,,,0,,,81,58
105760,note_on,0,0,0,,,,,,,,0,,,86,69
105780,set_tempo,20,1,0,,,,,,652174,,,,,,
105840,note_on,60,0,0,,,,,,,,0,,,86,0
105840,note_on,0,0,0,,,,,,,,0,,,78,0
105840,note_on,0,0,0,,,,,,,,0,,,81,0
105840,note_on,0,0,0,,,,,,,,0,,,90,63
105860,set_tempo,20,1,0,,,,,,655738,,,,,,
105920,note_on,60,0,0,,,,,,,,0,,,90,0
105920,note_on,0,0,0,,,,,,,,0,,,78,58
105920,note_on,0,0,0,,,,,,,,0,,,81,58
105920,note_on,0,0,0,,,,,,,,0,,,86,69
105940,set_tempo,20,1,0,,,,,,659341,,,,,,
106000,note_on,60,0,0,,,,,,,,0,,,86,0
106000,note_on,0,0,0,,,,,,,,0,,,78,0
106000,note_on,0,0,0,,,,,,,,0,,,81,0
106000,note_on,0,0,0,,,,,,,,0,,,90,63
106040,set_tempo,40,1,0,,,,,,662983,,,,,,
106080,note_on,40,0,0,,,,,,,,0,,,90,0
106080,note_on,0,0,0,,,,,,,,0,,,74,0
106080,note_on,0,0,0,,,,,,,,0,,,62,0
106080,note_on,0,0,0,,,,,,,,0,,,87,91
106080,note_on,0,0,0,,,,,,,,0,,,78,59
106080,note_on,0,0,0,,,,,,,,0,,,81,70
106080,note_on,0,0,0,,,,,,,,0,,,60,82
106080,note_on,0,0,0,,,,,,,,0,,,72,82
106098,control_change,18,0,0,,,,,,,,0,64,0,,
106120,set_tempo,22,1,0,,,,,,666667,,,,,,
106149,control_change,29,0,0,,,,,,,,0,64,127,,
106160,note_on,11,0,0,,,,,,,,0,,,81,0
106160,note_on,0,0,0,,,,,,,,0,,,78,0
106160,note_on,0,0,0,,,,,,,,0,,,90,64
106200,set_tempo,40,1,0,,,,,,670391,,,,,,
106238,note_on,38,0,0,,,,,,,,0,,,87,0
106240,note_on,2,0,0,,,,,,,,0,,,90,0
106240,note_on,0,0,0,,,,,,,,0,,,78,60
106240,note_on,0,0,0,,,,,,,,0,,,81,60
106240,note_on,0,0,0,,,,,,,,0,,,87,71
106280,set_tempo,40,1,0,,,,,,674157,,,,,,
106320,note_on,40,0,0,,,,,,,,0,,,87,0
106320,note_on,0,0,0,,,,,,,,0,,,78,0
106320,note_on,0,0,0,,,,,,,,0,,,81,0
106320,note_on,0,0,0,,,,,,,,0,,,90,64
106357,set_tempo,37,1,0,,,,,,714456,,,,,,
106400,note_on,43,0,0,,,,,,,,0,,,90,0
106400,note_on,0,0,0,,,,,,,,0,,,78,61
106400,note_on,0,0,0,,,,,,,,0,,,81,61
106400,note_on,0,0,0,,,,,,,,0,,,87,72
106480,note_on,80,0,0,,,,,,,,0,,,87,0
106480,note_on,0,0,0,,,,,,,,0,,,78,0
106480,note_on,0,0,0,,,,,,,,0,,,81,0
106480,note_on,0,0,0,,,,,,,,0,,,90,65
106560,set_tempo,80,1,0,,,,,,601202,,,,,,
106560,note_on,0,0,0,,,,,,,,0,,,90,0
106560,note_on,0,0,0,,,,,,,,0,,,72,0
106560,note_on,0,0,0,,,,,,,,0,,,60,0
106560,note_on,0,0,0,,,,,,,,0,,,79,62
106560,note_on,0,0,0,,,,,,,,0,,,83,72
106560,note_on,0,0,0,,,,,,,,0,,,59,75
106560,note_on,0,0,0,,,,,,,,0,,,67,82
106560,note_on,0,0,0,,,,,,,,0,,,55,72
106563,control_change,3,0,0,,,,,,,,0,64,0,,
106594,control_change,31,0,0,,,,,,,,0,64,127,,
106640,note_on,46,0,0,,,,,,,,0,,,83,0
106640,note_on,0,0,0,,,,,,,,0,,,79,0
106640,note_on,0,0,0,,,,,,,,0,,,91,91
106680,note_on,40,0,0,,,,,,,,0,,,55,0
106720,note_on,40,0,0,,,,,,,,0,,,79,63
106720,note_on,0,0,0,,,,,,,,0,,,83,63
106798,note_on,78,0,0,,,,,,,,0,,,91,0
106800,set_tempo,2,1,0,,,,,,647179,,,,,,
106800,note_on,0,0,0,,,,,,,,0,,,79,0
106800,note_on,0,0,0,,,,,,,,0,,,83,0
106800,note_on,0,0,0,,,,,,,,0,,,91,67
106800,note_on,0,0,0,,,,,,,,0,,,43,63
106880,note_on,80,0,0,,,,,,,,0,,,79,63
106880,note_on,0,0,0,,,,,,,,0,,,83,63
106920,note_on,40,0,0,,,,,,,,0,,,43,0
106960,note_on,40,0,0,,,,,,,,0,,,79,0
106960,note_on,0,0,0,,,,,,,,0,,,91,0
106960,note_on,0,0,0,,,,,,,,0,,,83,0
106960,note_on,0,0,0,,,,,,,,0,,,91,68
107040,set_tempo,80,1,0,,,,,,594707,,,,,,
107040,note_on,0,0,0,,,,,,,,0,,,91,0
107040,note_on,0,0,0,,,,,,,,0,,,67,0
107040,note_on,0,0,0,,,,,,,,0,,,59,0
107040,note_on,0,0,0,,,,,,,,0,,,86,62
107040,note_on,0,0,0,,,,,,,,0,,,79,62
107040,note_on,0,0,0,,,,,,,,0,,,77,62
107040,note_on,0,0,0,,,,,,,,0,,,65,84
107040,note_on,0,0,0,,,,,,,,0,,,59,63
107040,note_on,0,0,0,,,,,,,,0,,,62,72
107049,control_change,9,0,0,,,,,,,,0,64,0,,
107083,control_change,34,0,0,,,,,,,,0,64,127,,
107100,note_on,17,0,0,,,,,,,,0,,,86,0
107120,note_on,20,0,0,,,,,,,,0,,,79,0
107120,note_on,0,0,0,,,,,,,,0,,,77,0
107120,note_on,0,0,0,,,,,,,,0,,,89,90
107160,note_on,40,0,0,,,,,,,,0,,,62,0
107160,note_on,0,0,0,,,,,,,,0,,,59,0
107200,note_on,40,0,0,,,,,,,,0,,,79,62
107200,note_on,0,0,0,,,,,,,,0,,,77,63
107200,note_on,0,0,0,,,,,,,,0,,,86,63
107278,note_on,78,0,0,,,,,,,,0,,,89,0
107280,set_tempo,2,1,0,,,,,,643363,,,,,,
107280,note_on,0,0,0,,,,,,,,0,,,77,0
107280,note_on,0,0,0,,,,,,,,0,,,86,0
107280,note_on,0,0,0,,,,,,,,0,,,79,0
107280,note_on,0,0,0,,,,,,,,0,,,89,67
107280,note_on,0,0,0,,,,,,,,0,,,47,63
107360,note_on,80,0,0,,,,,,,,0,,,79,63
107360,note_on,0,0,0,,,,,,,,0,,,77,63
107360,note_on,0,0,0,,,,,,,,0,,,86,63
107400,note_on,40,0,0,,,,,,,,0,,,47,0
107440,note_on,40,0,0,,,,,,,,0,,,89,0
107440,note_on,0,0,0,,,,,,,,0,,,79,0
107440,note_on,0,0,0,,,,,,,,0,,,77,0
107440,note_on,0,0,0,,,,,,,,0,,,86,0
107440,note_on,0,0,0,,,,,,,,0,,,89,68
107520,set_tempo,80,1,0,,,,,,601202,,,,,,
107520,note_on,0,0,0,,,,,,,,0,,,89,0
107520,note_on,0,0,0,,,,,,,,0,,,65,0
107520,note_on,0,0,0,,,,,,,,0,,,75,62
107520,note_on,0,0,0,,,,,,,,0,,,79,62
107520,note_on,0,0,0,,,,,,,,0,,,63,83
107520,note_on,0,0,0,,,,,,,,0,,,60,72
107526,control_change,6,0,0,,,,,,,,0,64,0,,
107551,control_change,25,0,0,,,,,,,,0,64,127,,
107600,note_on,49,0,0,,,,,,,,0,,,79,0
107600,note_on,0,0,0,,,,,,,,0,,,75,0
107600,note_on,0,0,0,,,,,,,,0,,,87,90
107640,note_on,40,0,0,,,,,,,,0,,,60,0
107680,note_on,40,0,0,,,,,,,,0,,,75,63
107680,note_on,0,0,0,,,,,,,,0,,,79,63
107758,note_on,78,0,0,,,,,,,,0,,,87,0
107760,set_tempo,2,1,0,,,,,,643363,,,,,,
107760,note_on,0,0,0,,,,,,,,0,,,79,0
107760,note_on,0,0,0,,,,,,,,0,,,75,0
107760,note_on,0,0,0,,,,,,,,0,,,87,67
107760,note_on,0,0,0,,,,,,,,0,,,48,64
107840,note_on,80,0,0,,,,,,,,0,,,75,63
107840,note_on,0,0,0,,,,,,,,0,,,79,63
107880,note_on,40,0,0,,,,,,,,0,,,48,0
107920,note_on,40,0,0,,,,,,,,0,,,75,0
107920,note_on,0,0,0,,,,,,,,0,,,79,0
107920,note_on,0,0,0,,,,,,,,0,,,87,0
107920,note_on,0,0,0,,,,,,,,0,,,87,68
108000,set_tempo,80,1,0,,,,,,582129,,,,,,
108000,note_on,0,0,0,,,,,,,,0,,,87,0
108000,note_on,0,0,0,,,,,,,,0,,,63,0
108000,note_on,0,0,0,,,,,,,,0,,,72,62
108000,note_on,0,0,0,,,,,,,,0,,,75,62
108000,note_on,0,0,0,,,,,,,,0,,,60,82
108000,note_on,0,0,0,,,,,,,,0,,,58,72
108009,control_change,9,0,0,,,,,,,,0,64,0,,
108040,control_change,31,0,0,,,,,,,,0,64,127,,
108080,note_on,40,0,0,,,,,,,,0,,,75,0
108080,note_on,0,0,0,,,,,,,,0,,,72,0
108080,note_on,0,0,0,,,,,,,,0,,,84,88
108120,note_on,40,0,0,,,,,,,,0,,,58,0
108160,note_on,40,0,0,,,,,,,,0,,,72,63
108160,note_on,0,0,0,,,,,,,,0,,,75,63
108238,note_on,78,0,0,,,,,,,,0,,,84,0
108240,set_tempo,2,1,0,,,,,,597907,,,,,,
108240,note_on,0,0,0,,,,,,,,0,,,75,0
108240,note_on,0,0,0,,,,,,,,0,,,72,0
108240,note_on,0,0,0,,,,,,,,0,,,84,67
108240,note_on,0,0,0,,,,,,,,0,,,46,64
108320,note_on,80,0,0,,,,,,,,0,,,72,63
108320,note_on,0,0,0,,,,,,,,0,,,75,63
108360,note_on,40,0,0,,,,,,,,0,,,46,0
108400,note_on,40,0,0,,,,,,,,0,,,72,0
108400,note_on,0,0,0,,,,,,,,0,,,75,0
108400,note_on,0,0,0,,,,,,,,0,,,84,0
108400,note_on,0,0,0,,,,,,,,0,,,84,68
108480,set_tempo,80,1,0,,,,,,601202,,,,,,
108480,note_on,0,0,0,,,,,,,,0,,,84,0
108480,note_on,0,0,0,,,,,,,,0,,,60,0
108480,note_on,0,0,0,,,,,,,,0,,,75,62
108480,note_on,0,0,0,,,,,,,,0,,,79,62
108480,note_on,0,0,0,,,,,,,,0,,,63,81
108480,note_on,0,0,0,,,,,,,,0,,,57,62
108480,note_on,0,0,0,,,,,,,,0,,,60,72
108491,control_change,11,0,0,,,,,,,,0,64,0,,
108543,control_change,52,0,0,,,,,,,,0,64,127,,
108560,note_on,17,0,0,,,,,,,,0,,,79,0
108560,note_on,0,0,0,,,,,,,,0,,,75,0
108560,note_on,0,0,0,,,,,,,,0,,,87,87
108600,note_on,40,0,0,,,,,,,,0,,,57,0
108600,note_on,0,0,0,,,,,,,,0,,,60,0
108640,note_on,40,0,0,,,,,,,,0,,,75,63
108640,note_on,0,0,0,,,,,,,,0,,,79,63
108718,note_on,78,0,0,,,,,,,,0,,,87,0
108720,set_tempo,2,1,0,,,,,,635930,,,,,,
108720,note_on,0,0,0,,,,,,,,0,,,79,0
108720,note_on,0,0,0,,,,,,,,0,,,75,0
108720,note_on,0,0,0,,,,,,,,0,,,87,67
108720,note_on,0,0,0,,,,,,,,0,,,45,64
108800,note_on,80,0,0,,,,,,,,0,,,75,63
108800,note_on,0,0,0,,,,,,,,0,,,79,63
108840,note_on,40,0,0,,,,,,,,0,,,45,0
108880,note_on,40,0,0,,,,,,,,0,,,75,0
108880,note_on,0,0,0,,,,,,,,0,,,79,0
108880,note_on,0,0,0,,,,,,,,0,,,87,0
108880,note_on,0,0,0,,,,,,,,0,,,87,68
108960,set_tempo,80,1,0,,,,,,611185,,,,,,
108960,note_on,0,0,0,,,,,,,,0,,,87,0
108960,note_on,0,0,0,,,,,,,,0,,,63,0
108960,note_on,0,0,0,,,,,,,,0,,,72,62
108960,note_on,0,0,0,,,,,,,,0,,,75,62
108960,note_on,0,0,0,,,,,,,,0,,,60,81
108960,note_on,0,0,0,,,,,,,,0,,,55,62
108960,note_on,0,0,0,,,,,,,,0,,,57,72
108970,control_change,10,0,0,,,,,,,,0,64,0,,
109009,control_change,39,0,0,,,,,,,,0,64,127,,
109040,note_on,31,0,0,,,,,,,,0,,,75,0
109040,note_on,0,0,0,,,,,,,,0,,,72,0
109040,note_on,0,0,0,,,,,,,,0,,,84,87
109080,note_on,40,0,0,,,,,,,,0,,,55,0
109080,note_on,0,0,0,,,,,,,,0,,,57,0
109120,note_on,40,0,0,,,,,,,,0,,,72,63
109120,note_on,0,0,0,,,,,,,,0,,,75,63
109198,note_on,78,0,0,,,,,,,,0,,,84,0
109200,set_tempo,2,1,0,,,,,,650971,,,,,,
109200,note_on,0,0,0,,,,,,,,0,,,75,0
109200,note_on,0,0,0,,,,,,,,0,,,72,0
109200,note_on,0,0,0,,,,,,,,0,,,84,67
109200,note_on,0,0,0,,,,,,,,0,,,43,64
109280,note_on,80,0,0,,,,,,,,0,,,72,63
109280,note_on,0,0,0,,,,,,,,0,,,75,63
109320,note_on,40,0,0,,,,,,,,0,,,43,0
109360,note_on,40,0,0,,,,,,,,0,,,72,0
109360,note_on,0,0,0,,,,,,,,0,,,75,0
109360,note_on,0,0,0,,,,,,,,0,,,84,0
109360,note_on,0,0,0,,,,,,,,0,,,84,68
109400,set_tempo,40,1,0,,,,,,632311,,,,,,
109440,set_tempo,40,1,0,,,,,,585195,,,,,,
109440,note_on,0,0,0,,,,,,,,0,,,84,0
109440,note_on,0,0,0,,,,,,,,0,,,60,0
109440,note_on,0,0,0,,,,,,,,0,,,77,62
109440,note_on,0,0,0,,,,,,,,0,,,81,72
109440,note_on,0,0,0,,,,,,,,0,,,57,75
109440,note_on,0,0,0,,,,,,,,0,,,65,82
109440,note_on,0,0,0,,,,,,,,0,,,53,72
109444,control_change,4,0,0,,,,,,,,0,64,0,,
109474,control_change,30,0,0,,,,,,,,0,64,127,,
109520,note_on,46,0,0,,,,,,,,0,,,81,0
109520,note_on,0,0,0,,,,,,,,0,,,77,0
109520,note_on,0,0,0,,,,,,,,0,,,89,91
109560,note_on,40,0,0,,,,,,,,0,,,53,0
109600,note_on,40,0,0,,,,,,,,0,,,77,63
109600,note_on,0,0,0,,,,,,,,0,,,81,63
109678,note_on,78,0,0,,,,,,,,0,,,89,0
109680,set_tempo,2,1,0,,,,,,604473,,,,,,
109680,note_on,0,0,0,,,,,,,,0,,,77,0
109680,note_on,0,0,0,,,,,,,,0,,,81,0
109680,note_on,0,0,0,,,,,,,,0,,,89,67
109680,note_on,0,0,0,,,,,,,,0,,,41,63
109760,note_on,80,0,0,,,,,,,,0,,,77,63
109760,note_on,0,0,0,,,,,,,,0,,,81,63
109800,note_on,40,0,0,,,,,,,,0,,,41,0
109840,note_on,40,0,0,,,,,,,,0,,,77,0
109840,note_on,0,0,0,,,,,,,,0,,,89,0
109840,note_on,0,0,0,,,,,,,,0,,,81,0
109840,note_on,0,0,0,,,,,,,,0,,,89,68
109920,set_tempo,80,1,0,,,,,,597907,,,,,,
109920,note_on,0,0,0,,,,,,,,0,,,89,0
109920,note_on,0,0,0,,,,,,,,0,,,65,0
109920,note_on,0,0,0,,,,,,,,0,,,57,0
109920,note_on,0,0,0,,,,,,,,0,,,84,62
109920,note_on,0,0,0,,,,,,,,0,,,75,62
109920,note_on,0,0,0,,,,,,,,0,,,63,84
109920,note_on,0,0,0,,,,,,,,0,,,57,63
109920,note_on,0,0,0,,,,,,,,0,,,60,72
109929,control_change,9,0,0,,,,,,,,0,64,0,,
109963,control_change,34,0,0,,,,,,,,0,64,127,,
110000,note_on,37,0,0,,,,,,,,0,,,75,0
110000,note_on,0,0,0,,,,,,,,0,,,84,0
110000,note_on,0,0,0,,,,,,,,0,,,87,90
110040,note_on,40,0,0,,,,,,,,0,,,57,0
110040,note_on,0,0,0,,,,,,,,0,,,60,0
110080,note_on,40,0,0,,,,,,,,0,,,75,63
110080,note_on,0,0,0,,,,,,,,0,,,84,63
110158,note_on,78,0,0,,,,,,,,0,,,87,0
110160,set_tempo,2,1,0,,,,,,614628,,,,,,
110160,note_on,0,0,0,,,,,,,,0,,,84,0
110160,note_on,0,0,0,,,,,,,,0,,,75,0
110160,note_on,0,0,0,,,,,,,,0,,,87,67
110160,note_on,0,0,0,,,,,,,,0,,,45,63
110240,note_on,80,0,0,,,,,,,,0,,,75,63
110240,note_on,0,0,0,,,,,,,,0,,,84,63
110280,note_on,40,0,0,,,,,,,,0,,,45,0
110320,note_on,40,0,0,,,,,,,,0,,,75,0
110320,note_on,0,0,0,,,,,,,,0,,,84,0
110320,note_on,0,0,0,,,,,,,,0,,,87,0
110320,note_on,0,0,0,,,,,,,,0,,,87,68
110400,set_tempo,80,1,0,,,,,,579039,,,,,,
110400,note_on,0,0,0,,,,,,,,0,,,87,0
110400,note_on,0,0,0,,,,,,,,0,,,63,0
110400,note_on,0,0,0,,,,,,,,0,,,74,62
110400,note_on,0,0,0,,,,,,,,0,,,77,62
110400,note_on,0,0,0,,,,,,,,0,,,62,83
110400,note_on,0,0,0,,,,,,,,0,,,58,72
110406,control_change,6,0,0,,,,,,,,0,64,0,,
110431,control_change,25,0,0,,,,,,,,0,64,127,,
110480,note_on,49,0,0,,,,,,,,0,,,77,0
110480,note_on,0,0,0,,,,,,,,0,,,74,0
110480,note_on,0,0,0,,,,,,,,0,,,86,90
110520,note_on,40,0,0,,,,,,,,0,,,58,0
110560,note_on,40,0,0,,,,,,,,0,,,74,63
110560,note_on,0,0,0,,,,,,,,0,,,77,63
110638,note_on,78,0,0,,,,,,,,0,,,86,0
110640,set_tempo,2,1,0,,,,,,594707,,,,,,
110640,note_on,0,0,0,,,,,,,,0,,,77,0
110640,note_on,0,0,0,,,,,,,,0,,,74,0
110640,note_on,0,0,0,,,,,,,,0,,,86,67
110640,note_on,0,0,0,,,,,,,,0,,,46,64
110720,note_on,80,0,0,,,,,,,,0,,,74,63
110720,note_on,0,0,0,,,,,,,,0,,,77,63
110760,note_on,40,0,0,,,,,,,,0,,,46,0
110800,note_on,40,0,0,,,,,,,,0,,,74,0
110800,note_on,0,0,0,,,,,,,,0,,,77,0
110800,note_on,0,0,0,,,,,,,,0,,,86,0
110800,note_on,0,0,0,,,,,,,,0,,,86,68
110880,set_tempo,80,1,0,,,,,,597907,,,,,,
110880,note_on,0,0,0,,,,,,,,0,,,86,0
110880,note_on,0,0,0,,,,,,,,0,,,62,0
110880,note_on,0,0,0,,,,,,,,0,,,70,62
110880,note_on,0,0,0,,,,,,,,0,,,74,62
110880,note_on,0,0,0,,,,,,,,0,,,58,82
110880,note_on,0,0,0,,,,,,,,0,,,57,72
110889,control_change,9,0,0,,,,,,,,0,64,0,,
110920,control_change,31,0,0,,,,,,,,0,64,127,,
110960,note_on,40,0,0,,,,,,,,0,,,74,0
110960,note_on,0,0,0,,,,,,,,0,,,70,0
110960,note_on,0,0,0,,,,,,,,0,,,82,88
111000,note_on,40,0,0,,,,,,,,0,,,57,0
111040,note_on,40,0,0,,,,,,,,0,,,70,63
111040,note_on,0,0,0,,,,,,,,0,,,74,63
111118,note_on,78,0,0,,,,,,,,0,,,82,0
111120,set_tempo,2,1,0,,,,,,628667,,,,,,
111120,note_on,0,0,0,,,,,,,,0,,,74,0
111120,note_on,0,0,0,,,,,,,,0,,,70,0
111120,note_on,0,0,0,,,,,,,,0,,,82,67
111120,note_on,0,0,0,,,,,,,,0,,,45,64
111200,note_on,80,0,0,,,,,,,,0,,,70,63
111200,note_on,0,0,0,,,,,,,,0,,,74,63
111240,note_on,40,0,0,,,,,,,,0,,,45,0
111280,note_on,40,0,0,,,,,,,,0,,,70,0
111280,note_on,0,0,0,,,,,,,,0,,,74,0
111280,note_on,0,0,0,,,,,,,,0,,,82,0
111280,note_on,0,0,0,,,,,,,,0,,,82,68
111360,set_tempo,80,1,0,,,,,,601202,,,,,,
111360,note_on,0,0,0,,,,,,,,0,,,82,0
111360,note_on,0,0,0,,,,,,,,0,,,58,0
111360,note_on,0,0,0,,,,,,,,0,,,74,62
111360,note_on,0,0,0,,,,,,,,0,,,77,62
111360,note_on,0,0,0,,,,,,,,0,,,62,81
111360,note_on,0,0,0,,,,,,,,0,,,55,62
111360,note_on,0,0,0,,,,,,,,0,,,58,72
111371,control_change,11,0,0,,,,,,,,0,64,0,,
111423,control_change,52,0,0,,,,,,,,0,64,127,,
111440,note_on,17,0,0,,,,,,,,0,,,77,0
111440,note_on,0,0,0,,,,,,,,0,,,74,0
111440,note_on,0,0,0,,,,,,,,0,,,86,87
111480,note_on,40,0,0,,,,,,,,0,,,55,0
111480,note_on,0,0,0,,,,,,,,0,,,58,0
111520,note_on,40,0,0,,,,,,,,0,,,74,63
111520,note_on,0,0,0,,,,,,,,0,,,77,63
111598,note_on,78,0,0,,,,,,,,0,,,86,0
111600,set_tempo,2,1,0,,,,,,632311,,,,,,
111600,note_on,0,0,0,,,,,,,,0,,,77,0
111600,note_on,0,0,0,,,,,,,,0,,,74,0
111600,note_on,0,0,0,,,,,,,,0,,,86,67
111600,note_on,0,0,0,,,,,,,,0,,,43,64
111680,note_on,80,0,0,,,,,,,,0,,,74,63
111680,note_on,0,0,0,,,,,,,,0,,,77,63
111720,note_on,40,0,0,,,,,,,,0,,,43,0
111760,note_on,40,0,0,,,,,,,,0,,,74,0
111760,note_on,0,0,0,,,,,,,,0,,,77,0
111760,note_on,0,0,0,,,,,,,,0,,,86,0
111760,note_on,0,0,0,,,,,,,,0,,,86,68
111840,set_tempo,80,1,0,,,,,,607841,,,,,,
111840,note_on,0,0,0,,,,,,,,0,,,86,0
111840,note_on,0,0,0,,,,,,,,0,,,62,0
111840,note_on,0,0,0,,,,,,,,0,,,70,62
111840,note_on,0,0,0,,,,,,,,0,,,74,62
111840,note_on,0,0,0,,,,,,,,0,,,58,81
111840,note_on,0,0,0,,,,,,,,0,,,53,62
111840,note_on,0,0,0,,,,,,,,0,,,57,72
111850,control_change,10,0,0,,,,,,,,0,64,0,,
111889,control_change,39,0,0,,,,,,,,0,64,127,,
111920,note_on,31,0,0,,,,,,,,0,,,74,0
111920,note_on,0,0,0,,,,,,,,0,,,70,0
111920,note_on,0,0,0,,,,,,,,0,,,82,87
111960,note_on,40,0,0,,,,,,,,0,,,53,0
111960,note_on,0,0,0,,,,,,,,0,,,57,0
112000,note_on,40,0,0,,,,,,,,0,,,70,63
112000,note_on,0,0,0,,,,,,,,0,,,74,63
112078,note_on,78,0,0,,,,,,,,0,,,82,0
112080,set_tempo,2,1,0,,,,,,650971,,,,,,
112080,note_on,0,0,0,,,,,,,,0,,,74,0
112080,note_on,0,0,0,,,,,,,,0,,,70,0
112080,note_on,0,0,0,,,,,,,,0,,,82,67
112080,note_on,0,0,0,,,,,,,,0,,,41,64
112160,note_on,80,0,0,,,,,,,,0,,,70,63
112160,note_on,0,0,0,,,,,,,,0,,,74,63
112200,note_on,40,0,0,,,,,,,,0,,,41,0
112240,note_on,40,0,0,,,,,,,,0,,,70,0
112240,note_on,0,0,0,,,,,,,,0,,,74,0
112240,note_on,0,0,0,,,,,,,,0,,,82,0
112240,note_on,0,0,0,,,,,,,,0,,,82,68
112280,set_tempo,40,1,0,,,,,,632311,,,,,,
112320,set_tempo,40,1,0,,,,,,591483,,,,,,
112320,note_on,0,0,0,,,,,,,,0,,,82,0
112320,note_on,0,0,0,,,,,,,,0,,,58,0
112320,note_on,0,0,0,,,,,,,,0,,,75,62
112320,note_on,0,0,0,,,,,,,,0,,,79,72
112320,note_on,0,0,0,,,,,,,,0,,,55,75
112320,note_on,0,0,0,,,,,,,,0,,,63,82
112320,note_on,0,0,0,,,,,,,,0,,,51,72
112320,control_change,0,0,0,,,,,,,,0,64,0,,
112354,control_change,34,0,0,,,,,,,,0,64,127,,
112400,note_on,46,0,0,,,,,,,,0,,,79,0
112400,note_on,0,0,0,,,,,,,,0,,,75,0
112400,note_on,0,0,0,,,,,,,,0,,,87,91
112440,note_on,40,0,0,,,,,,,,0,,,51,0
112480,note_on,40,0,0,,,,,,,,0,,,75,63
112480,note_on,0,0,0,,,,,,,,0,,,79,63
112558,note_on,78,0,0,,,,,,,,0,,,87,0
112560,set_tempo,2,1,0,,,,,,607841,,,,,,
112560,note_on,0,0,0,,,,,,,,0,,,75,0
112560,note_on,0,0,0,,,,,,,,0,,,79,0
112560,note_on,0,0,0,,,,,,,,0,,,87,67
112560,note_on,0,0,0,,,,,,,,0,,,39,63
112640,note_on,80,0,0,,,,,,,,0,,,75,63
112640,note_on,0,0,0,,,,,,,,0,,,79,63
112680,note_on,40,0,0,,,,,,,,0,,,39,0
112720,note_on,40,0,0,,,,,,,,0,,,75,0
112720,note_on,0,0,0,,,,,,,,0,,,87,0
112720,note_on,0,0,0,,,,,,,,0,,,79,0
112720,note_on,0,0,0,,,,,,,,0,,,87,68
112800,set_tempo,80,1,0,,,,,,588293,,,,,,
112800,note_on,0,0,0,,,,,,,,0,,,87,0
112800,note_on,0,0,0,,,,,,,,0,,,63,0
112800,note_on,0,0,0,,,,,,,,0,,,55,0
112800,note_on,0,0,0,,,,,,,,0,,,82,62
112800,note_on,0,0,0,,,,,,,,0,,,74,62
112800,note_on,0,0,0,,,,,,,,0,,,62,84
112800,note_on,0,0,0,,,,,,,,0,,,55,63
112800,note_on,0,0,0,,,,,,,,0,,,58,72
112809,control_change,9,0,0,,,,,,,,0,64,0,,
112843,control_change,34,0,0,,,,,,,,0,64,127,,
112880,note_on,37,0,0,,,,,,,,0,,,74,0
112880,note_on,0,0,0,,,,,,,,0,,,82,0
112880,note_on,0,0,0,,,,,,,,0,,,86,90
112920,note_on,40,0,0,,,,,,,,0,,,55,0
112920,note_on,0,0,0,,,,,,,,0,,,58,0
112960,note_on,40,0,0,,,,,,,,0,,,74,63
112960,note_on,0,0,0,,,,,,,,0,,,82,63
113038,note_on,78,0,0,,,,,,,,0,,,86,0
113040,set_tempo,2,1,0,,,,,,604473,,,,,,
113040,note_on,0,0,0,,,,,,,,0,,,82,0
113040,note_on,0,0,0,,,,,,,,0,,,74,0
113040,note_on,0,0,0,,,,,,,,0,,,86,67
113040,note_on,0,0,0,,,,,,,,0,,,43,63
113120,note_on,80,0,0,,,,,,,,0,,,74,63
113120,note_on,0,0,0,,,,,,,,0,,,82,63
113160,note_on,40,0,0,,,,,,,,0,,,43,0
113200,note_on,40,0,0,,,,,,,,0,,,74,0
113200,note_on,0,0,0,,,,,,,,0,,,82,0
113200,note_on,0,0,0,,,,,,,,0,,,86,0
113200,note_on,0,0,0,,,,,,,,0,,,86,68
113280,set_tempo,80,1,0,,,,,,585195,,,,,,
113280,note_on,0,0,0,,,,,,,,0,,,86,0
113280,note_on,0,0,0,,,,,,,,0,,,62,0
113280,note_on,0,0,0,,,,,,,,0,,,72,62
113280,note_on,0,0,0,,,,,,,,0,,,75,62
113280,note_on,0,0,0,,,,,,,,0,,,60,83
113280,note_on,0,0,0,,,,,,,,0,,,57,72
113286,control_change,6,0,0,,,,,,,,0,64,0,,
113311,control_change,25,0,0,,,,,,,,0,64,127,,
113360,note_on,49,0,0,,,,,,,,0,,,75,0
113360,note_on,0,0,0,,,,,,,,0,,,72,0
113360,note_on,0,0,0,,,,,,,,0,,,84,90
113400,note_on,40,0,0,,,,,,,,0,,,57,0
113440,note_on,40,0,0,,,,,,,,0,,,72,63
113440,note_on,0,0,0,,,,,,,,0,,,75,63
113518,note_on,78,0,0,,,,,,,,0,,,84,0
113520,set_tempo,2,1,0,,,,,,611185,,,,,,
113520,note_on,0,0,0,,,,,,,,0,,,75,0
113520,note_on,0,0,0,,,,,,,,0,,,72,0
113520,note_on,0,0,0,,,,,,,,0,,,84,67
113520,note_on,0,0,0,,,,,,,,0,,,45,64
113600,note_on,80,0,0,,,,,,,,0,,,72,63
113600,note_on,0,0,0,,,,,,,,0,,,75,63
113640,note_on,40,0,0,,,,,,,,0,,,45,0
113680,note_on,40,0,0,,,,,,,,0,,,72,0
113680,note_on,0,0,0,,,,,,,,0,,,75,0
113680,note_on,0,0,0,,,,,,,,0,,,84,0
113680,note_on,0,0,0,,,,,,,,0,,,84,68
113760,set_tempo,80,1,0,,,,,,604473,,,,,,
113760,note_on,0,0,0,,,,,,,,0,,,84,0
113760,note_on,0,0,0,,,,,,,,0,,,60,0
113760,note_on,0,0,0,,,,,,,,0,,,69,62
113760,note_on,0,0,0,,,,,,,,0,,,72,62
113760,note_on,0,0,0,,,,,,,,0,,,57,82
113760,note_on,0,0,0,,,,,,,,0,,,55,72
113769,control_change,9,0,0,,,,,,,,0,64,0,,
113800,control_change,31,0,0,,,,,,,,0,64,127,,
113840,note_on,40,0,0,,,,,,,,0,,,72,0
113840,note_on,0,0,0,,,,,,,,0,,,69,0
113840,note_on,0,0,0,,,,,,,,0,,,81,88
113880,note_on,40,0,0,,,,,,,,0,,,55,0
113920,note_on,40,0,0,,,,,,,,0,,,69,63
113920,note_on,0,0,0,,,,,,,,0,,,72,63
113998,note_on,78,0,0,,,,,,,,0,,,81,0
114000,set_tempo,2,1,0,,,,,,628667,,,,,,
114000,note_on,0,0,0,,,,,,,,0,,,72,0
114000,note_on,0,0,0,,,,,,,,0,,,69,0
114000,note_on,0,0,0,,,,,,,,0,,,81,67
114000,note_on,0,0,0,,,,,,,,0,,,43,64
114080,note_on,80,0,0,,,,,,,,0,,,69,63
114080,note_on,0,0,0,,,,,,,,0,,,72,63
114120,note_on,40,0,0,,,,,,,,0,,,43,0
114160,note_on,40,0,0,,,,,,,,0,,,69,0
114160,note_on,0,0,0,,,,,,,,0,,,72,0
114160,note_on,0,0,0,,,,,,,,0,,,81,0
114160,note_on,0,0,0,,,,,,,,0,,,81,68
114240,set_tempo,80,1,0,,,,,,601202,,,,,,
114240,note_on,0,0,0,,,,,,,,0,,,81,0
114240,note_on,0,0,0,,,,,,,,0,,,57,0
114240,note_on,0,0,0,,,,,,,,0,,,72,62
114240,note_on,0,0,0,,,,,,,,0,,,75,62
114240,note_on,0,0,0,,,,,,,,0,,,60,81
114240,note_on,0,0,0,,,,,,,,0,,,54,62
114240,note_on,0,0,0,,,,,,,,0,,,57,72
114251,control_change,11,0,0,,,,,,,,0,64,0,,
114303,control_change,52,0,0,,,,,,,,0,64,127,,
114320,note_on,17,0,0,,,,,,,,0,,,75,0
114320,note_on,0,0,0,,,,,,,,0,,,72,0
114320,note_on,0,0,0,,,,,,,,0,,,84,87
114360,note_on,40,0,0,,,,,,,,0,,,54,0
114360,note_on,0,0,0,,,,,,,,0,,,57,0
114400,note_on,40,0,0,,,,,,,,0,,,72,63
114400,note_on,0,0,0,,,,,,,,0,,,75,63
114478,note_on,78,0,0,,,,,,,,0,,,84,0
114480,set_tempo,2,1,0,,,,,,628667,,,,,,
114480,note_on,0,0,0,,,,,,,,0,,,75,0
114480,note_on,0,0,0,,,,,,,,0,,,72,0
114480,note_on,0,0,0,,,,,,,,0,,,84,67
114480,note_on,0,0,0,,,,,,,,0,,,42,64
114560,note_on,80,0,0,,,,,,,,0,,,72,63
114560,note_on,0,0,0,,,,,,,,0,,,75,63
114600,note_on,40,0,0,,,,,,,,0,,,42,0
114640,note_on,40,0,0,,,,,,,,0,,,72,0
114640,note_on,0,0,0,,,,,,,,0,,,75,0
114640,note_on,0,0,0,,,,,,,,0,,,84,0
114640,note_on,0,0,0,,,,,,,,0,,,84,68
114720,set_tempo,80,1,0,,,,,,604473,,,,,,
114720,note_on,0,0,0,,,,,,,,0,,,84,0
114720,note_on,0,0,0,,,,,,,,0,,,60,0
114720,note_on,0,0,0,,,,,,,,0,,,69,62
114720,note_on,0,0,0,,,,,,,,0,,,72,62
114720,note_on,0,0,0,,,,,,,,0,,,57,81
114720,note_on,0,0,0,,,,,,,,0,,,51,62
114720,note_on,0,0,0,,,,,,,,0,,,55,72
114730,control_change,10,0,0,,,,,,,,0,64,0,,
114769,control_change,39,0,0,,,,,,,,0,64,127,,
114800,note_on,31,0,0,,,,,,,,0,,,72,0
114800,note_on,0,0,0,,,,,,,,0,,,69,0
114800,note_on,0,0,0,,,,,,,,0,,,81,87
114840,note_on,40,0,0,,,,,,,,0,,,51,0
114840,note_on,0,0,0,,,,,,,,0,,,55,0
114880,note_on,40,0,0,,,,,,,,0,,,69,63
114880,note_on,0,0,0,,,,,,,,0,,,72,63
114958,note_on,78,0,0,,,,,,,,0,,,81,0
114960,set_tempo,2,1,0,,,,,,650971,,,,,,
114960,note_on,0,0,0,,,,,,,,0,,,72,0
114960,note_on,0,0,0,,,,,,,,0,,,69,0
114960,note_on,0,0,0,,,,,,,,0,,,81,67
114960,note_on,0,0,0,,,,,,,,0,,,39,64
115040,note_on,80,0,0,,,,,,,,0,,,69,63
115040,note_on,0,0,0,,,,,,,,0,,,72,63
115080,note_on,40,0,0,,,,,,,,0,,,39,0
115120,note_on,40,0,0,,,,,,,,0,,,69,0
115120,note_on,0,0,0,,,,,,,,0,,,72,0
115120,note_on,0,0,0,,,,,,,,0,,,81,0
115120,note_on,0,0,0,,,,,,,,0,,,81,68
115160,set_tempo,40,1,0,,,,,,632311,,,,,,
115200,set_tempo,40,1,0,,,,,,604473,,,,,,
115200,note_on,0,0,0,,,,,,,,0,,,81,0
115200,note_on,0,0,0,,,,,,,,0,,,57,0
115200,note_on,0,0,0,,,,,,,,0,,,74,62
115200,note_on,0,0,0,,,,,,,,0,,,78,72
115200,note_on,0,0,0,,,,,,,,0,,,54,75
115200,note_on,0,0,0,,,,,,,,0,,,62,82
115200,note_on,0,0,0,,,,,,,,0,,,50,72
115208,control_change,8,0,0,,,,,,,,0,64,0,,
115234,control_change,26,0,0,,,,,,,,0,64,127,,
115280,note_on,46,0,0,,,,,,,,0,,,78,0
115280,note_on,0,0,0,,,,,,,,0,,,74,0
115280,note_on,0,0,0,,,,,,,,0,,,86,91
115320,note_on,40,0,0,,,,,,,,0,,,50,0
115360,note_on,40,0,0,,,,,,,,0,,,74,63
115360,note_on,0,0,0,,,,,,,,0,,,78,63
115438,note_on,78,0,0,,,,,,,,0,,,86,0
115440,set_tempo,2,1,0,,,,,,632311,,,,,,
115440,note_on,0,0,0,,,,,,,,0,,,74,0
115440,note_on,0,0,0,,,,,,,,0,,,78,0
115440,note_on,0,0,0,,,,,,,,0,,,86,67
115440,note_on,0,0,0,,,,,,,,0,,,38,63
115520,note_on,80,0,0,,,,,,,,0,,,74,63
115520,note_on,0,0,0,,,,,,,,0,,,78,63
115560,note_on,40,0,0,,,,,,,,0,,,38,0
115600,note_on,40,0,0,,,,,,,,0,,,74,0
115600,note_on,0,0,0,,,,,,,,0,,,86,0
115600,note_on,0,0,0,,,,,,,,0,,,78,0
115600,note_on,0,0,0,,,,,,,,0,,,86,68
115680,set_tempo,80,1,0,,,,,,601202,,,,,,
115680,note_on,0,0,0,,,,,,,,0,,,86,0
115680,note_on,0,0,0,,,,,,,,0,,,62,0
115680,note_on,0,0,0,,,,,,,,0,,,54,0
115680,note_on,0,0,0,,,,,,,,0,,,81,62
115680,note_on,0,0,0,,,,,,,,0,,,72,62
115680,note_on,0,0,0,,,,,,,,0,,,60,84
115680,note_on,0,0,0,,,,,,,,0,,,54,63
115680,note_on,0,0,0,,,,,,,,0,,,57,72
115689,control_change,9,0,0,,,,,,,,0,64,0,,
115723,control_change,34,0,0,,,,,,,,0,64,127,,
115760,note_on,37,0,0,,,,,,,,0,,,72,0
115760,note_on,0,0,0,,,,,,,,0,,,81,0
115760,note_on,0,0,0,,,,,,,,0,,,84,90
115800,note_on,40,0,0,,,,,,,,0,,,54,0
115800,note_on,0,0,0,,,,,,,,0,,,57,0
115840,note_on,40,0,0,,,,,,,,0,,,72,63
115840,note_on,0,0,0,,,,,,,,0,,,81,63
115918,note_on,78,0,0,,,,,,,,0,,,84,0
115920,set_tempo,2,1,0,,,,,,643363,,,,,,
115920,note_on,0,0,0,,,,,,,,0,,,81,0
115920,note_on,0,0,0,,,,,,,,0,,,72,0
115920,note_on,0,0,0,,,,,,,,0,,,84,67
115920,note_on,0,0,0,,,,,,,,0,,,42,63
116000,note_on,80,0,0,,,,,,,,0,,,72,63
116000,note_on,0,0,0,,,,,,,,0,,,81,63
116040,note_on,40,0,0,,,,,,,,0,,,42,0
116080,note_on,40,0,0,,,,,,,,0,,,72,0
116080,note_on,0,0,0,,,,,,,,0,,,81,0
116080,note_on,0,0,0,,,,,,,,0,,,84,0
116080,note_on,0,0,0,,,,,,,,0,,,84,68
116160,set_tempo,80,1,0,,,,,,618111,,,,,,
116160,note_on,0,0,0,,,,,,,,0,,,84,0
116160,note_on,0,0,0,,,,,,,,0,,,60,0
116160,note_on,0,0,0,,,,,,,,0,,,70,62
116160,note_on,0,0,0,,,,,,,,0,,,79,62
116160,note_on,0,0,0,,,,,,,,0,,,58,83
116160,note_on,0,0,0,,,,,,,,0,,,55,72
116166,control_change,6,0,0,,,,,,,,0,64,0,,
116191,control_change,25,0,0,,,,,,,,0,64,127,,
116240,note_on,49,0,0,,,,,,,,0,,,79,0
116240,note_on,0,0,0,,,,,,,,0,,,70,0
116240,note_on,0,0,0,,,,,,,,0,,,82,90
116280,note_on,40,0,0,,,,,,,,0,,,55,0
116320,note_on,40,0,0,,,,,,,,0,,,70,63
116320,note_on,0,0,0,,,,,,,,0,,,79,63
116398,note_on,78,0,0,,,,,,,,0,,,82,0
116400,set_tempo,2,1,0,,,,,,643363,,,,,,
116400,note_on,0,0,0,,,,,,,,0,,,79,0
116400,note_on,0,0,0,,,,,,,,0,,,70,0
116400,note_on,0,0,0,,,,,,,,0,,,82,67
116400,note_on,0,0,0,,,,,,,,0,,,43,64
116480,note_on,80,0,0,,,,,,,,0,,,70,63
116480,note_on,0,0,0,,,,,,,,0,,,79,63
116520,note_on,40,0,0,,,,,,,,0,,,43,0
116560,note_on,40,0,0,,,,,,,,0,,,70,0
116560,note_on,0,0,0,,,,,,,,0,,,79,0
116560,note_on,0,0,0,,,,,,,,0,,,82,0
116560,note_on,0,0,0,,,,,,,,0,,,82,68
116640,set_tempo,80,1,0,,,,,,621568,,,,,,
116640,note_on,0,0,0,,,,,,,,0,,,82,0
116640,note_on,0,0,0,,,,,,,,0,,,58,0
116640,note_on,0,0,0,,,,,,,,0,,,74,62
116640,note_on,0,0,0,,,,,,,,0,,,81,62
116640,note_on,0,0,0,,,,,,,,0,,,62,82
116640,note_on,0,0,0,,,,,,,,0,,,53,70
116640,note_on,0,0,0,,,,,,,,0,,,57,72
116649,control_change,9,0,0,,,,,,,,0,64,0,,
116680,control_change,31,0,0,,,,,,,,0,64,127,,
116720,note_on,40,0,0,,,,,,,,0,,,81,0
116720,note_on,0,0,0,,,,,,,,0,,,74,0
116720,note_on,0,0,0,,,,,,,,0,,,86,88
116760,note_on,40,0,0,,,,,,,,0,,,53,0
116760,note_on,0,0,0,,,,,,,,0,,,57,0
116800,note_on,40,0,0,,,,,,,,0,,,74,63
116800,note_on,0,0,0,,,,,,,,0,,,81,63
116878,note_on,78,0,0,,,,,,,,0,,,86,0
116880,set_tempo,2,1,0,,,,,,647179,,,,,,
116880,note_on,0,0,0,,,,,,,,0,,,81,0
116880,note_on,0,0,0,,,,,,,,0,,,74,0
116880,note_on,0,0,0,,,,,,,,0,,,86,67
116880,note_on,0,0,0,,,,,,,,0,,,41,64
116960,note_on,80,0,0,,,,,,,,0,,,74,63
116960,note_on,0,0,0,,,,,,,,0,,,81,63
117000,note_on,40,0,0,,,,,,,,0,,,41,0
117040,note_on,40,0,0,,,,,,,,0,,,74,0
117040,note_on,0,0,0,,,,,,,,0,,,81,0
117040,note_on,0,0,0,,,,,,,,0,,,86,0
117040,note_on,0,0,0,,,,,,,,0,,,86,68
117120,set_tempo,80,1,0,,,,,,625065,,,,,,
117120,note_on,0,0,0,,,,,,,,0,,,86,0
117120,note_on,0,0,0,,,,,,,,0,,,62,0
117120,note_on,0,0,0,,,,,,,,0,,,74,62
117120,note_on,0,0,0,,,,,,,,0,,,79,62
117120,note_on,0,0,0,,,,,,,,0,,,62,81
117120,note_on,0,0,0,,,,,,,,0,,,51,62
117120,note_on,0,0,0,,,,,,,,0,,,55,72
117131,control_change,11,0,0,,,,,,,,0,64,0,,
117183,control_change,52,0,0,,,,,,,,0,64,127,,
117200,note_on,17,0,0,,,,,,,,0,,,79,0
117200,note_on,0,0,0,,,,,,,,0,,,74,0
117200,note_on,0,0,0,,,,,,,,0,,,86,87
117240,note_on,40,0,0,,,,,,,,0,,,51,0
117240,note_on,0,0,0,,,,,,,,0,,,55,0
117280,note_on,40,0,0,,,,,,,,0,,,74,63
117280,note_on,0,0,0,,,,,,,,0,,,79,63
117358,note_on,78,0,0,,,,,,,,0,,,86,0
117360,set_tempo,2,1,0,,,,,,650971,,,,,,
117360,note_on,0,0,0,,,,,,,,0,,,79,0
117360,note_on,0,0,0,,,,,,,,0,,,74,0
117360,note_on,0,0,0,,,,,,,,0,,,86,67
117360,note_on,0,0,0,,,,,,,,0,,,39,64
117440,note_on,80,0,0,,,,,,,,0,,,74,63
117440,note_on,0,0,0,,,,,,,,0,,,79,63
117480,note_on,40,0,0,,,,,,,,0,,,39,0
117520,note_on,40,0,0,,,,,,,,0,,,74,0
117520,note_on,0,0,0,,,,,,,,0,,,79,0
117520,note_on,0,0,0,,,,,,,,0,,,86,0
117520,note_on,0,0,0,,,,,,,,0,,,86,68
117600,set_tempo,80,1,0,,,,,,628667,,,,,,
117600,note_on,0,0,0,,,,,,,,0,,,86,0
117600,note_on,0,0,0,,,,,,,,0,,,62,0
117600,note_on,0,0,0,,,,,,,,0,,,73,62
117600,note_on,0,0,0,,,,,,,,0,,,79,62
117600,note_on,0,0,0,,,,,,,,0,,,61,81
117600,note_on,0,0,0,,,,,,,,0,,,51,62
117600,note_on,0,0,0,,,,,,,,0,,,55,72
117610,control_change,10,0,0,,,,,,,,0,64,0,,
117649,control_change,39,0,0,,,,,,,,0,64,127,,
117680,note_on,31,0,0,,,,,,,,0,,,79,0
117680,note_on,0,0,0,,,,,,,,0,,,73,0
117680,note_on,0,0,0,,,,,,,,0,,,85,87
117720,note_on,40,0,0,,,,,,,,0,,,51,0
117720,note_on,0,0,0,,,,,,,,0,,,55,0
117760,note_on,40,0,0,,,,,,,,0,,,73,63
117760,note_on,0,0,0,,,,,,,,0,,,79,63
117838,note_on,78,0,0,,,,,,,,0,,,85,0
117840,set_tempo,2,1,0,,,,,,650971,,,,,,
117840,note_on,0,0,0,,,,,,,,0,,,79,0
117840,note_on,0,0,0,,,,,,,,0,,,73,0
117840,note_on,0,0,0,,,,,,,,0,,,85,67
117920,note_on,80,0,0,,,,,,,,0,,,73,63
117920,note_on,0,0,0,,,,,,,,0,,,79,63
118000,note_on,80,0,0,,,,,,,,0,,,79,0
118000,note_on,0,0,0,,,,,,,,0,,,73,0
118000,note_on,0,0,0,,,,,,,,0,,,85,0
118000,note_on,0,0,0,,,,,,,,0,,,85,68
118040,set_tempo,40,1,0,,,,,,632311,,,,,,
118080,set_tempo,40,1,0,,,,,,604473,,,,,,
118080,note_on,0,0,0,,,,,,,,0,,,85,0
118080,note_on,0,0,0,,,,,,,,0,,,61,0
118080,note_on,0,0,0,,,,,,,,0,,,74,62
118080,note_on,0,0,0,,,,,,,,0,,,78,72
118080,note_on,0,0,0,,,,,,,,0,,,38,79
118080,note_on,0,0,0,,,,,,,,0,,,45,79
118080,note_on,0,0,0,,,,,,,,0,,,50,79
118085,control_change,5,0,0,,,,,,,,0,64,0,,
118086,control_change,1,0,0,,,,,,,,0,64,0,,
118114,control_change,28,0,0,,,,,,,,0,64,127,,
118160,note_on,46,0,0,,,,,,,,0,,,78,0
118160,note_on,0,0,0,,,,,,,,0,,,74,0
118160,note_on,0,0,0,,,,,,,,0,,,86,67
118240,note_on,80,0,0,,,,,,,,0,,,86,0
118240,note_on,0,0,0,,,,,,,,0,,,74,63
118320,set_tempo,80,1,0,,,,,,632311,,,,,,
118320,note_on,0,0,0,,,,,,,,0,,,74,0
118320,note_on,0,0,0,,,,,,,,0,,,86,67
118400,note_on,80,0,0,,,,,,,,0,,,86,0
118400,note_on,0,0,0,,,,,,,,0,,,74,63
118480,note_on,80,0,0,,,,,,,,0,,,74,0
118480,note_on,0,0,0,,,,,,,,0,,,86,67
118560,set_tempo,80,1,0,,,,,,601202,,,,,,
118560,note_on,0,0,0,,,,,,,,0,,,86,0
118560,note_on,0,0,0,,,,,,,,0,,,50,0
118560,note_on,0,0,0,,,,,,,,0,,,38,0
118560,note_on,0,0,0,,,,,,,,0,,,45,0
118560,note_on,0,0,0,,,,,,,,0,,,74,61
118560,note_on,0,0,0,,,,,,,,0,,,50,71
118560,note_on,0,0,0,,,,,,,,0,,,62,71
118569,control_change,9,0,0,,,,,,,,0,64,0,,
118603,control_change,34,0,0,,,,,,,,0,64,127,,
118640,note_on,37,0,0,,,,,,,,0,,,74,0
118640,note_on,0,0,0,,,,,,,,0,,,86,62
118720,note_on,80,0,0,,,,,,,,0,,,86,0
118720,note_on,0,0,0,,,,,,,,0,,,74,61
118800,set_tempo,80,1,0,,,,,,643363,,,,,,
118800,note_on,0,0,0,,,,,,,,0,,,74,0
118800,note_on,0,0,0,,,,,,,,0,,,86,65
118860,note_on,60,0,0,,,,,,,,0,,,86,0
118880,note_on,20,0,0,,,,,,,,0,,,74,62
118960,note_on,80,0,0,,,,,,,,0,,,74,0
118960,note_on,0,0,0,,,,,,,,0,,,86,65
118980,note_on,20,0,0,,,,,,,,0,,,62,0
118980,note_on,0,0,0,,,,,,,,0,,,50,0
118980,note_on,0,0,0,,,,,,,,0,,,55,61
119010,note_on,30,0,0,,,,,,,,0,,,62,68
119040,set_tempo,30,1,0,,,,,,618111,,,,,,
119040,note_on,0,0,0,,,,,,,,0,,,86,0
119040,note_on,0,0,0,,,,,,,,0,,,74,69
119040,note_on,0,0,0,,,,,,,,0,,,82,69
119040,note_on,0,0,0,,,,,,,,0,,,70,72
119046,control_change,6,0,0,,,,,,,,0,64,0,,
119071,control_change,25,0,0,,,,,,,,0,64,127,,
119120,note_on,49,0,0,,,,,,,,0,,,82,0
119120,note_on,0,0,0,,,,,,,,0,,,74,0
119120,note_on,0,0,0,,,,,,,,0,,,86,61
119200,note_on,80,0,0,,,,,,,,0,,,86,0
119200,note_on,0,0,0,,,,,,,,0,,,74,59
119280,set_tempo,80,1,0,,,,,,643363,,,,,,
119280,note_on,0,0,0,,,,,,,,0,,,74,0
119280,note_on,0,0,0,,,,,,,,0,,,86,63
119360,note_on,80,0,0,,,,,,,,0,,,86,0
119360,note_on,0,0,0,,,,,,,,0,,,74,59
119440,note_on,80,0,0,,,,,,,,0,,,74,0
119440,note_on,0,0,0,,,,,,,,0,,,86,63
119460,note_on,20,0,0,,,,,,,,0,,,55,0
119460,note_on,0,0,0,,,,,,,,0,,,70,0
119460,note_on,0,0,0,,,,,,,,0,,,62,0
119460,note_on,0,0,0,,,,,,,,0,,,58,62
119490,note_on,30,0,0,,,,,,,,0,,,67,67
119520,set_tempo,30,1,0,,,,,,621568,,,,,,
119520,note_on,0,0,0,,,,,,,,0,,,86,0
119520,note_on,0,0,0,,,,,,,,0,,,74,73
119529,control_change,9,0,0,,,,,,,,0,64,0,,
119560,control_change,31,0,0,,,,,,,,0,64,127,,
119600,note_on,40,0,0,,,,,,,,0,,,86,57
119678,note_on,78,0,0,,,,,,,,0,,,74,0
119680,note_on,2,0,0,,,,,,,,0,,,86,0
119680,note_on,0,0,0,,,,,,,,0,,,74,56
119760,set_tempo,80,1,0,,,,,,647179,,,,,,
119760,note_on,0,0,0,,,,,,,,0,,,74,0
119760,note_on,0,0,0,,,,,,,,0,,,86,60
119840,note_on,80,0,0,,,,,,,,0,,,86,0
119840,note_on,0,0,0,,,,,,,,0,,,74,55
119920,note_on,80,0,0,,,,,,,,0,,,74,0
119920,note_on,0,0,0,,,,,,,,0,,,86,60
119940,note_on,20,0,0,,,,,,,,0,,,67,0
119940,note_on,0,0,0,,,,,,,,0,,,58,0
119940,note_on,0,0,0,,,,,,,,0,,,57,48
119960,note_on,20,0,0,,,,,,,,0,,,62,54
119980,note_on,20,0,0,,,,,,,,0,,,66,61
120000,set_tempo,20,1,0,,,,,,625065,,,,,,
120000,note_on,0,0,0,,,,,,,,0,,,86,0
120000,note_on,0,0,0,,,,,,,,0,,,72,66
120011,control_change,11,0,0,,,,,,,,0,64,0,,
120063,control_change,52,0,0,,,,,,,,0,64,127,,
120080,note_on,17,0,0,,,,,,,,0,,,84,58
120158,note_on,78,0,0,,,,,,,,0,,,72,0
120160,note_on,2,0,0,,,,,,,,0,,,84,0
120160,note_on,0,0,0,,,,,,,,0,,,72,54
120240,set_tempo,80,1,0,,,,,,650971,,,,,,
120240,note_on,0,0,0,,,,,,,,0,,,72,0
120240,note_on,0,0,0,,,,,,,,0,,,84,57
120320,note_on,80,0,0,,,,,,,,0,,,84,0
120320,note_on,0,0,0,,,,,,,,0,,,72,54
120400,note_on,80,0,0,,,,,,,,0,,,72,0
120400,note_on,0,0,0,,,,,,,,0,,,84,57
120420,note_on,20,0,0,,,,,,,,0,,,57,0
120420,note_on,0,0,0,,,,,,,,0,,,66,0
120420,note_on,0,0,0,,,,,,,,0,,,62,0
120420,note_on,0,0,0,,,,,,,,0,,,55,55
120450,note_on,30,0,0,,,,,,,,0,,,62,62
120480,set_tempo,30,1,0,,,,,,628667,,,,,,
120480,note_on,0,0,0,,,,,,,,0,,,84,0
120480,note_on,0,0,0,,,,,,,,0,,,70,68
120490,control_change,10,0,0,,,,,,,,0,64,0,,
120529,control_change,39,0,0,,,,,,,,0,64,127,,
120560,note_on,31,0,0,,,,,,,,0,,,82,55
120638,note_on,78,0,0,,,,,,,,0,,,70,0
120640,note_on,2,0,0,,,,,,,,0,,,82,0
120640,note_on,0,0,0,,,,,,,,0,,,70,51
120720,set_tempo,80,1,0,,,,,,650971,,,,,,
120720,note_on,0,0,0,,,,,,,,0,,,70,0
120720,note_on,0,0,0,,,,,,,,0,,,82,55
120800,note_on,80,0,0,,,,,,,,0,,,82,0
120800,note_on,0,0,0,,,,,,,,0,,,70,51
120880,note_on,80,0,0,,,,,,,,0,,,70,0
120880,note_on,0,0,0,,,,,,,,0,,,82,54
120900,note_on,20,0,0,,,,,,,,0,,,62,0
120900,note_on,0,0,0,,,,,,,,0,,,55,0
120900,note_on,0,0,0,,,,,,,,0,,,54,56
120930,note_on,30,0,0,,,,,,,,0,,,62,60
120960,set_tempo,30,1,0,,,,,,625065,,,,,,
120960,note_on,0,0,0,,,,,,,,0,,,82,0
120960,note_on,0,0,0,,,,,,,,0,,,69,66
120974,control_change,14,0,0,,,,,,,,0,64,0,,
121023,control_change,49,0,0,,,,,,,,0,64,127,,
121040,note_on,17,0,0,,,,,,,,0,,,81,58
121118,note_on,78,0,0,,,,,,,,0,,,69,0
121120,note_on,2,0,0,,,,,,,,0,,,81,0
121120,note_on,0,0,0,,,,,,,,0,,,69,54
121200,set_tempo,80,1,0,,,,,,650971,,,,,,
121200,note_on,0,0,0,,,,,,,,0,,,69,0
121200,note_on,0,0,0,,,,,,,,0,,,81,56
121280,note_on,80,0,0,,,,,,,,0,,,81,0
121280,note_on,0,0,0,,,,,,,,0,,,69,53
121360,note_on,80,0,0,,,,,,,,0,,,69,0
121360,note_on,0,0,0,,,,,,,,0,,,81,55
121380,note_on,20,0,0,,,,,,,,0,,,62,0
121380,note_on,0,0,0,,,,,,,,0,,,54,0
121380,note_on,0,0,0,,,,,,,,0,,,51,54
121410,note_on,30,0,0,,,,,,,,0,,,62,59
121440,set_tempo,30,1,0,,,,,,628667,,,,,,
121440,note_on,0,0,0,,,,,,,,0,,,81,0
121440,note_on,0,0,0,,,,,,,,0,,,67,65
121450,control_change,10,0,0,,,,,,,,0,64,0,,
121489,control_change,39,0,0,,,,,,,,0,64,127,,
121520,note_on,31,0,0,,,,,,,,0,,,79,54
121598,note_on,78,0,0,,,,,,,,0,,,67,0
121600,note_on,2,0,0,,,,,,,,0,,,79,0
121600,note_on,0,0,0,,,,,,,,0,,,67,50
121680,set_tempo,80,1,0,,,,,,650971,,,,,,
121680,note_on,0,0,0,,,,,,,,0,,,67,0
121680,note_on,0,0,0,,,,,,,,0,,,79,54
121760,note_on,80,0,0,,,,,,,,0,,,79,0
121760,note_on,0,0,0,,,,,,,,0,,,67,49
121840,note_on,80,0,0,,,,,,,,0,,,67,0
121840,note_on,0,0,0,,,,,,,,0,,,79,52
121860,note_on,20,0,0,,,,,,,,0,,,62,0
121860,note_on,0,0,0,,,,,,,,0,,,51,0
121860,note_on,0,0,0,,,,,,,,0,,,50,54
121890,note_on,30,0,0,,,,,,,,0,,,57,57
121920,set_tempo,30,1,0,,,,,,625065,,,,,,
121920,note_on,0,0,0,,,,,,,,0,,,79,0
121920,note_on,0,0,0,,,,,,,,0,,,66,63
121931,control_change,11,0,0,,,,,,,,0,64,0,,
121983,control_change,52,0,0,,,,,,,,0,64,127,,
122000,note_on,17,0,0,,,,,,,,0,,,78,54
122078,note_on,78,0,0,,,,,,,,0,,,66,0
122080,note_on,2,0,0,,,,,,,,0,,,78,0
122080,note_on,0,0,0,,,,,,,,0,,,66,51
122160,set_tempo,80,1,0,,,,,,650971,,,,,,
122160,note_on,0,0,0,,,,,,,,0,,,66,0
122160,note_on,0,0,0,,,,,,,,0,,,78,53
122240,note_on,80,0,0,,,,,,,,0,,,78,0
122240,note_on,0,0,0,,,,,,,,0,,,66,51
122320,note_on,80,0,0,,,,,,,,0,,,66,0
122320,note_on,0,0,0,,,,,,,,0,,,78,53
122340,note_on,20,0,0,,,,,,,,0,,,57,0
122340,note_on,0,0,0,,,,,,,,0,,,50,0
122340,note_on,0,0,0,,,,,,,,0,,,48,42
122360,note_on,20,0,0,,,,,,,,0,,,54,46
122380,note_on,20,0,0,,,,,,,,0,,,57,51
122400,set_tempo,20,1,0,,,,,,628667,,,,,,
122400,note_on,0,0,0,,,,,,,,0,,,78,0
122400,note_on,0,0,0,,,,,,,,0,,,63,62
122410,control_change,10,0,0,,,,,,,,0,64,0,,
122449,control_change,39,0,0,,,,,,,,0,64,127,,
122480,note_on,31,0,0,,,,,,,,0,,,75,51
122558,note_on,78,0,0,,,,,,,,0,,,63,0
122560,note_on,2,0,0,,,,,,,,0,,,75,0
122560,note_on,0,0,0,,,,,,,,0,,,63,47
122640,set_tempo,80,1,0,,,,,,650971,,,,,,
122640,note_on,0,0,0,,,,,,,,0,,,63,0
122640,note_on,0,0,0,,,,,,,,0,,,75,51
122720,note_on,80,0,0,,,,,,,,0,,,75,0
122720,note_on,0,0,0,,,,,,,,0,,,63,47
122800,note_on,80,0,0,,,,,,,,0,,,63,0
122800,note_on,0,0,0,,,,,,,,0,,,75,50
122820,note_on,20,0,0,,,,,,,,0,,,48,0
122820,note_on,0,0,0,,,,,,,,0,,,57,0
122820,note_on,0,0,0,,,,,,,,0,,,54,0
122820,note_on,0,0,0,,,,,,,,0,,,46,48
122850,note_on,30,0,0,,,,,,,,0,,,55,53
122880,set_tempo,30,1,0,,,,,,625065,,,,,,
122880,note_on,0,0,0,,,,,,,,0,,,75,0
122880,note_on,0,0,0,,,,,,,,0,,,62,58
122891,control_change,11,0,0,,,,,,,,0,64,0,,
122943,control_change,52,0,0,,,,,,,,0,64,127,,
122960,note_on,17,0,0,,,,,,,,0,,,74,52
123038,note_on,78,0,0,,,,,,,,0,,,62,0
123040,note_on,2,0,0,,,,,,,,0,,,74,0
123040,note_on,0,0,0,,,,,,,,0,,,62,48
123120,set_tempo,80,1,0,,,,,,650971,,,,,,
123120,note_on,0,0,0,,,,,,,,0,,,62,0
123120,note_on,0,0,0,,,,,,,,0,,,74,51
123200,note_on,80,0,0,,,,,,,,0,,,74,0
123200,note_on,0,0,0,,,,,,,,0,,,62,47
123280,note_on,80,0,0,,,,,,,,0,,,62,0
123280,note_on,0,0,0,,,,,,,,0,,,74,51
123300,note_on,20,0,0,,,,,,,,0,,,55,0
123300,note_on,0,0,0,,,,,,,,0,,,46,0
123300,note_on,0,0,0,,,,,,,,0,,,43,50
123330,note_on,30,0,0,,,,,,,,0,,,50,52
123360,set_tempo,30,1,0,,,,,,628667,,,,,,
123360,note_on,0,0,0,,,,,,,,0,,,74,0
123360,note_on,0,0,0,,,,,,,,0,,,58,59
123370,control_change,10,0,0,,,,,,,,0,64,0,,
123409,control_change,39,0,0,,,,,,,,0,64,127,,
123440,note_on,31,0,0,,,,,,,,0,,,62,49
123440,note_on,0,0,0,,,,,,,,0,,,70,49
123518,note_on,78,0,0,,,,,,,,0,,,58,0
123520,note_on,2,0,0,,,,,,,,0,,,62,0
123520,note_on,0,0,0,,,,,,,,0,,,70,0
123520,note_on,0,0,0,,,,,,,,0,,,58,45
123600,set_tempo,80,1,0,,,,,,650971,,,,,,
123600,note_on,0,0,0,,,,,,,,0,,,58,0
123600,note_on,0,0,0,,,,,,,,0,,,62,47
123600,note_on,0,0,0,,,,,,,,0,,,70,48
123680,note_on,80,0,0,,,,,,,,0,,,70,0
123680,note_on,0,0,0,,,,,,,,0,,,62,0
123680,note_on,0,0,0,,,,,,,,0,,,58,45
123760,note_on,80,0,0,,,,,,,,0,,,58,0
123760,note_on,0,0,0,,,,,,,,0,,,62,46
123760,note_on,0,0,0,,,,,,,,0,,,70,46
123780,note_on,20,0,0,,,,,,,,0,,,50,0
123780,note_on,0,0,0,,,,,,,,0,,,43,0
123780,note_on,0,0,0,,,,,,,,0,,,42,47
123810,note_on,30,0,0,,,,,,,,0,,,50,50
123828,set_tempo,18,1,0,,,,,,614628,,,,,,
123840,note_on,12,0,0,,,,,,,,0,,,62,0
123840,note_on,0,0,0,,,,,,,,0,,,70,0
123840,note_on,0,0,0,,,,,,,,0,,,57,55
123851,control_change,11,0,0,,,,,,,,0,64,0,,
123900,set_tempo,49,1,0,,,,,,618111,,,,,,
123903,control_change,3,0,0,,,,,,,,0,64,127,,
123920,note_on,17,0,0,,,,,,,,0,,,62,45
123920,note_on,0,0,0,,,,,,,,0,,,69,49
123968,set_tempo,48,1,0,,,,,,621568,,,,,,
123998,note_on,30,0,0,,,,,,,,0,,,57,0
124000,note_on,2,0,0,,,,,,,,0,,,62,0
124000,note_on,0,0,0,,,,,,,,0,,,69,0
124000,note_on,0,0,0,,,,,,,,0,,,57,45
124040,set_tempo,40,1,0,,,,,,625065,,,,,,
124080,note_on,40,0,0,,,,,,,,0,,,57,0
124080,note_on,0,0,0,,,,,,,,0,,,62,44
124080,note_on,0,0,0,,,,,,,,0,,,69,47
124108,set_tempo,28,1,0,,,,,,628667,,,,,,
124160,note_on,52,0,0,,,,,,,,0,,,69,0
124160,note_on,0,0,0,,,,,,,,0,,,62,0
124160,note_on,0,0,0,,,,,,,,0,,,57,44
124180,set_tempo,20,1,0,,,,,,632311,,,,,,
124240,note_on,60,0,0,,,,,,,,0,,,57,0
124240,note_on,0,0,0,,,,,,,,0,,,62,43
124240,note_on,0,0,0,,,,,,,,0,,,69,45
124248,set_tempo,8,1,0,,,,,,635930,,,,,,
124260,note_on,12,0,0,,,,,,,,0,,,42,0
124260,note_on,0,0,0,,,,,,,,0,,,50,0
124260,note_on,0,0,0,,,,,,,,0,,,39,44
124290,note_on,30,0,0,,,,,,,,0,,,50,48
124308,set_tempo,18,1,0,,,,,,639659,,,,,,
124320,note_on,12,0,0,,,,,,,,0,,,62,0
124320,note_on,0,0,0,,,,,,,,0,,,69,0
124320,note_on,0,0,0,,,,,,,,0,,,55,54
124330,control_change,10,0,0,,,,,,,,0,64,0,,
124369,control_change,39,0,0,,,,,,,,0,64,127,,
124380,set_tempo,11,1,0,,,,,,643363,,,,,,
124400,note_on,20,0,0,,,,,,,,0,,,62,38
124400,note_on,0,0,0,,,,,,,,0,,,67,44
124448,set_tempo,48,1,0,,,,,,647179,,,,,,
124478,note_on,30,0,0,,,,,,,,0,,,55,0
124480,note_on,2,0,0,,,,,,,,0,,,62,0
124480,note_on,0,0,0,,,,,,,,0,,,67,0
124480,note_on,0,0,0,,,,,,,,0,,,55,40
124520,set_tempo,40,1,0,,,,,,650971,,,,,,
124560,note_on,40,0,0,,,,,,,,0,,,55,0
124560,note_on,0,0,0,,,,,,,,0,,,62,38
124560,note_on,0,0,0,,,,,,,,0,,,67,44
124588,set_tempo,28,1,0,,,,,,654879,,,,,,
124640,note_on,52,0,0,,,,,,,,0,,,67,0
124640,note_on,0,0,0,,,,,,,,0,,,62,0
124640,note_on,0,0,0,,,,,,,,0,,,55,38
124660,set_tempo,20,1,0,,,,,,658762,,,,,,
124720,set_tempo,60,1,0,,,,,,662764,,,,,,
124720,note_on,0,0,0,,,,,,,,0,,,55,0
124720,note_on,0,0,0,,,,,,,,0,,,62,37
124720,note_on,0,0,0,,,,,,,,0,,,67,42
124740,note_on,20,0,0,,,,,,,,0,,,39,0
124740,note_on,0,0,0,,,,,,,,0,,,50,0
124740,note_on,0,0,0,,,,,,,,0,,,38,43
124770,note_on,30,0,0,,,,,,,,0,,,45,45
124788,set_tempo,18,1,0,,,,,,666815,,,,,,
124800,note_on,12,0,0,,,,,,,,0,,,62,0
124800,note_on,0,0,0,,,,,,,,0,,,67,0
124800,note_on,0,0,0,,,,,,,,0,,,54,50
124811,control_change,11,0,0,,,,,,,,0,64,0,,
124860,set_tempo,49,1,0,,,,,,670841,,,,,,
124863,control_change,3,0,0,,,,,,,,0,64,127,,
124880,note_on,17,0,0,,,,,,,,0,,,62,36
124880,note_on,0,0,0,,,,,,,,0,,,66,44
124928,set_tempo,48,1,0,,,,,,674916,,,,,,
124958,note_on,30,0,0,,,,,,,,0,,,54,0
124960,note_on,2,0,0,,,,,,,,0,,,62,0
124960,note_on,0,0,0,,,,,,,,0,,,66,0
124960,note_on,0,0,0,,,,,,,,0,,,54,40
125000,set_tempo,40,1,0,,,,,,679117,,,,,,
125040,note_on,40,0,0,,,,,,,,0,,,54,0
125040,note_on,0,0,0,,,,,,,,0,,,62,36
125040,note_on,0,0,0,,,,,,,,0,,,66,41
125068,set_tempo,28,1,0,,,,,,683371,,,,,,
125120,note_on,52,0,0,,,,,,,,0,,,66,0
125120,note_on,0,0,0,,,,,,,,0,,,62,0
125120,note_on,0,0,0,,,,,,,,0,,,54,39
125128,set_tempo,8,1,0,,,,,,687600,,,,,,
125200,set_tempo,72,1,0,,,,,,691962,,,,,,
125200,note_on,0,0,0,,,,,,,,0,,,54,0
125200,note_on,0,0,0,,,,,,,,0,,,62,34
125200,note_on,0,0,0,,,,,,,,0,,,66,41
125220,note_on,20,0,0,,,,,,,,0,,,38,0
125220,note_on,0,0,0,,,,,,,,0,,,45,0
125220,note_on,0,0,0,,,,,,,,0,,,36,32
125240,note_on,20,0,0,,,,,,,,0,,,42,36
125260,note_on,20,0,0,,,,,,,,0,,,45,39
125268,set_tempo,8,1,0,,,,,,696379,,,,,,
125280,note_on,12,0,0,,,,,,,,0,,,62,0
125280,note_on,0,0,0,,,,,,,,0,,,66,0
125280,note_on,0,0,0,,,,,,,,0,,,51,47
125290,control_change,10,0,0,,,,,,,,0,64,0,,
125329,control_change,39,0,0,,,,,,,,0,64,127,,
125340,set_tempo,11,1,0,,,,,,700771,,,,,,
125360,note_on,20,0,0,,,,,,,,0,,,54,33
125360,note_on,0,0,0,,,,,,,,0,,,57,34
125360,note_on,0,0,0,,,,,,,,0,,,63,39
125408,set_tempo,48,1,0,,,,,,705219,,,,,,
125438,note_on,30,0,0,,,,,,,,0,,,51,0
125440,note_on,2,0,0,,,,,,,,0,,,57,0
125440,note_on,0,0,0,,,,,,,,0,,,54,0
125440,note_on,0,0,0,,,,,,,,0,,,63,0
125440,note_on,0,0,0,,,,,,,,0,,,51,36
125480,set_tempo,40,1,0,,,,,,709807,,,,,,
125520,note_on,40,0,0,,,,,,,,0,,,51,0
125520,note_on,0,0,0,,,,,,,,0,,,54,33
125520,note_on,0,0,0,,,,,,,,0,,,57,33
125520,note_on,0,0,0,,,,,,,,0,,,63,38
125548,set_tempo,28,1,0,,,,,,714456,,,,,,
125600,note_on,52,0,0,,,,,,,,0,,,63,0
125600,note_on,0,0,0,,,,,,,,0,,,54,0
125600,note_on,0,0,0,,,,,,,,0,,,57,0
125600,note_on,0,0,0,,,,,,,,0,,,51,35
125608,set_tempo,8,1,0,,,,,,719080,,,,,,
125680,set_tempo,72,1,0,,,,,,723764,,,,,,
125680,note_on,0,0,0,,,,,,,,0,,,51,0
125680,note_on,0,0,0,,,,,,,,0,,,54,33
125680,note_on,0,0,0,,,,,,,,0,,,57,33
125680,note_on,0,0,0,,,,,,,,0,,,63,36
125700,note_on,20,0,0,,,,,,,,0,,,42,0
125700,note_on,0,0,0,,,,,,,,0,,,45,0
125700,note_on,0,0,0,,,,,,,,0,,,36,0
125700,note_on,0,0,0,,,,,,,,0,,,34,31
125730,note_on,30,0,0,,,,,,,,0,,,43,34
125748,set_tempo,18,1,0,,,,,,728597,,,,,,
125760,note_on,12,0,0,,,,,,,,0,,,54,0
125760,note_on,0,0,0,,,,,,,,0,,,63,0
125760,note_on,0,0,0,,,,,,,,0,,,57,0
125760,note_on,0,0,0,,,,,,,,0,,,50,44
125771,control_change,11,0,0,,,,,,,,0,64,0,,
125820,set_tempo,49,1,0,,,,,,733496,,,,,,
125823,control_change,3,0,0,,,,,,,,0,64,127,,
125840,note_on,17,0,0,,,,,,,,0,,,55,33
125840,note_on,0,0,0,,,,,,,,0,,,58,33
125840,note_on,0,0,0,,,,,,,,0,,,62,38
125888,set_tempo,48,1,0,,,,,,738371,,,,,,
125918,note_on,30,0,0,,,,,,,,0,,,50,0
125920,note_on,2,0,0,,,,,,,,0,,,58,0
125920,note_on,0,0,0,,,,,,,,0,,,55,0
125920,note_on,0,0,0,,,,,,,,0,,,62,0
125920,note_on,0,0,0,,,,,,,,0,,,50,35
125960,set_tempo,40,1,0,,,,,,743310,,,,,,
126000,note_on,40,0,0,,,,,,,,0,,,50,0
126000,note_on,0,0,0,,,,,,,,0,,,55,32
126000,note_on,0,0,0,,,,,,,,0,,,58,32
126000,note_on,0,0,0,,,,,,,,0,,,62,37
126020,set_tempo,20,1,0,,,,,,748503,,,,,,
126080,note_on,60,0,0,,,,,,,,0,,,62,0
126080,note_on,0,0,0,,,,,,,,0,,,55,0
126080,note_on,0,0,0,,,,,,,,0,,,58,0
126080,note_on,0,0,0,,,,,,,,0,,,50,34
126088,set_tempo,8,1,0,,,,,,753580,,,,,,
126160,set_tempo,72,1,0,,,,,,758725,,,,,,
126160,note_on,0,0,0,,,,,,,,0,,,50,0
126160,note_on,0,0,0,,,,,,,,0,,,55,32
126160,note_on,0,0,0,,,,,,,,0,,,58,32
126160,note_on,0,0,0,,,,,,,,0,,,62,36
126180,note_on,20,0,0,,,,,,,,0,,,43,0
126180,note_on,0,0,0,,,,,,,,0,,,34,0
126180,note_on,0,0,0,,,,,,,,0,,,33,28
126200,note_on,20,0,0,,,,,,,,0,,,38,31
126220,note_on,20,0,0,,,,,,,,0,,,42,36
126228,set_tempo,8,1,0,,,,,,763942,,,,,,
126240,note_on,12,0,0,,,,,,,,0,,,58,0
126240,note_on,0,0,0,,,,,,,,0,,,62,0
126240,note_on,0,0,0,,,,,,,,0,,,55,0
126240,note_on,0,0,0,,,,,,,,0,,,48,43
126250,control_change,10,0,0,,,,,,,,0,64,0,,
126289,control_change,39,0,0,,,,,,,,0,64,127,,
126300,set_tempo,11,1,0,,,,,,769428,,,,,,
126320,note_on,20,0,0,,,,,,,,0,,,60,34
126320,note_on,0,0,0,,,,,,,,0,,,54,35
126320,note_on,0,0,0,,,,,,,,0,,,62,35
126368,set_tempo,48,1,0,,,,,,774793,,,,,,
126400,note_on,32,0,0,,,,,,,,0,,,62,0
126400,note_on,0,0,0,,,,,,,,0,,,60,0
126400,note_on,0,0,0,,,,,,,,0,,,54,0
126400,note_on,0,0,0,,,,,,,,0,,,50,32
126428,set_tempo,28,1,0,,,,,,780234,,,,,,
126480,note_on,52,0,0,,,,,,,,0,,,50,0
126480,note_on,0,0,0,,,,,,,,0,,,60,27
126480,note_on,0,0,0,,,,,,,,0,,,54,28
126480,note_on,0,0,0,,,,,,,,0,,,62,34
126560,note_on,80,0,0,,,,,,,,0,,,62,0
126560,note_on,0,0,0,,,,,,,,0,,,60,0
126560,note_on,0,0,0,,,,,,,,0,,,54,0
126560,note_on,0,0,0,,,,,,,,0,,,50,32
126640,note_on,80,0,0,,,,,,,,0,,,50,0
126640,note_on,0,0,0,,,,,,,,0,,,60,27
126640,note_on,0,0,0,,,,,,,,0,,,54,27
126640,note_on,0,0,0,,,,,,,,0,,,62,33
126660,note_on,20,0,0,,,,,,,,0,,,48,0
126660,note_on,0,0,0,,,,,,,,0,,,33,0
126660,note_on,0,0,0,,,,,,,,0,,,42,0
126660,note_on,0,0,0,,,,,,,,0,,,38,0
126660,note_on,0,0,0,,,,,,,,0,,,31,34
126680,set_tempo,20,1,0,,,,,,727802,,,,,,
126690,note_on,10,0,0,,,,,,,,0,,,38,37
126720,note_on,30,0,0,,,,,,,,0,,,62,0
126720,note_on,0,0,0,,,,,,,,0,,,54,0
126720,note_on,0,0,0,,,,,,,,0,,,60,0
126720,note_on,0,0,0,,,,,,,,0,,,46,44
126728,control_change,8,0,0,,,,,,,,0,64,0,,
126740,note_on,12,0,0,,,,,,,,0,,,50,40
126760,note_on,20,0,0,,,,,,,,0,,,55,43
126780,note_on,20,0,0,,,,,,,,0,,,58,44
126800,note_on,20,0,0,,,,,,,,0,,,62,46
126846,control_change,46,0,0,,,,,,,,0,64,127,,
126880,set_tempo,34,1,0,,,,,,723240,,,,,,
127040,set_tempo,160,1,0,,,,,,718735,,,,,,
127200,set_tempo,160,1,0,,,,,,696945,,,,,,
127200,note_on,0,0,0,,,,,,,,0,,,62,0
127200,note_on,0,0,0,,,,,,,,0,,,55,0
127200,note_on,0,0,0,,,,,,,,0,,,31,0
127200,note_on,0,0,0,,,,,,,,0,,,46,0
127200,note_on,0,0,0,,,,,,,,0,,,38,0
127200,note_on,0,0,0,,,,,,,,0,,,58,0
127200,note_on,0,0,0,,,,,,,,0,,,50,0
127200,note_on,0,0,0,,,,,,,,0,,,70,45
127220,control_change,20,0,0,,,,,,,,0,64,0,,
127260,control_change,40,0,0,,,,,,,,0,64,127,,
127280,note_on,20,0,0,,,,,,,,0,,,70,0
127280,note_on,0,0,0,,,,,,,,0,,,86,37
127320,set_tempo,40,1,0,,,,,,692761,,,,,,
127360,note_on,40,0,0,,,,,,,,0,,,86,0
127360,note_on,0,0,0,,,,,,,,0,,,74,40
127440,set_tempo,80,1,0,,,,,,688547,,,,,,
127440,note_on,0,0,0,,,,,,,,0,,,74,0
127440,note_on,0,0,0,,,,,,,,0,,,86,38
127520,set_tempo,80,1,0,,,,,,684463,,,,,,
127520,note_on,0,0,0,,,,,,,,0,,,86,0
127520,note_on,0,0,0,,,,,,,,0,,,79,41
127600,note_on,80,0,0,,,,,,,,0,,,79,0
127600,note_on,0,0,0,,,,,,,,0,,,86,39
127640,set_tempo,40,1,0,,,,,,680426,,,,,,
127680,note_on,40,0,0,,,,,,,,0,,,86,0
127680,note_on,0,0,0,,,,,,,,0,,,82,47
127720,set_tempo,40,1,0,,,,,,676437,,,,,,
127760,note_on,40,0,0,,,,,,,,0,,,82,0
127760,note_on,0,0,0,,,,,,,,0,,,86,39
127840,note_on,80,0,0,,,,,,,,0,,,86,0
127840,note_on,0,0,0,,,,,,,,0,,,79,43
127880,set_tempo,40,1,0,,,,,,680426,,,,,,
127920,note_on,40,0,0,,,,,,,,0,,,79,0
127920,note_on,0,0,0,,,,,,,,0,,,86,43
128000,note_on,80,0,0,,,,,,,,0,,,86,0
128000,note_on,0,0,0,,,,,,,,0,,,74,44
128040,set_tempo,40,1,0,,,,,,684463,,,,,,
128080,note_on,40,0,0,,,,,,,,0,,,74,0
128080,note_on,0,0,0,,,,,,,,0,,,86,41
128120,set_tempo,40,1,0,,,,,,684463,,,,,,
128130,note_on,10,0,0,,,,,,,,0,,,55,40
128160,note_on,30,0,0,,,,,,,,0,,,86,0
128160,note_on,0,0,0,,,,,,,,0,,,75,50
128160,note_on,0,0,0,,,,,,,,0,,,67,54
128171,control_change,11,0,0,,,,,,,,0,64,0,,
128211,control_change,40,0,0,,,,,,,,0,64,127,,
128240,note_on,29,0,0,,,,,,,,0,,,75,0
128240,note_on,0,0,0,,,,,,,,0,,,91,43
128280,set_tempo,40,1,0,,,,,,680426,,,,,,
128320,note_on,40,0,0,,,,,,,,0,,,91,0
128320,note_on,0,0,0,,,,,,,,0,,,79,45
128400,set_tempo,80,1,0,,,,,,676437,,,,,,
128400,note_on,0,0,0,,,,,,,,0,,,79,0
128400,note_on,0,0,0,,,,,,,,0,,,91,42
128480,note_on,80,0,0,,,,,,,,0,,,91,0
128480,note_on,0,0,0,,,,,,,,0,,,87,45
128520,set_tempo,40,1,0,,,,,,672495,,,,,,
128560,note_on,40,0,0,,,,,,,,0,,,87,0
128560,note_on,0,0,0,,,,,,,,0,,,91,42
128610,note_on,50,0,0,,,,,,,,0,,,55,41
128640,set_tempo,30,1,0,,,,,,668598,,,,,,
128640,note_on,0,0,0,,,,,,,,0,,,91,0
128640,note_on,0,0,0,,,,,,,,0,,,55,0
128640,note_on,0,0,0,,,,,,,,0,,,67,0
128640,note_on,0,0,0,,,,,,,,0,,,74,50
128640,note_on,0,0,0,,,,,,,,0,,,66,58
128654,control_change,14,0,0,,,,,,,,0,64,0,,
128697,control_change,43,0,0,,,,,,,,0,64,127,,
128720,note_on,23,0,0,,,,,,,,0,,,74,0
128720,note_on,0,0,0,,,,,,,,0,,,90,42
128800,note_on,80,0,0,,,,,,,,0,,,90,0
128800,note_on,0,0,0,,,,,,,,0,,,78,45
128880,note_on,80,0,0,,,,,,,,0,,,78,0
128880,note_on,0,0,0,,,,,,,,0,,,90,42
128960,note_on,80,0,0,,,,,,,,0,,,90,0
128960,note_on,0,0,0,,,,,,,,0,,,86,45
129040,note_on,80,0,0,,,,,,,,0,,,86,0
129040,note_on,0,0,0,,,,,,,,0,,,90,42
129090,note_on,50,0,0,,,,,,,,0,,,55,43
129120,set_tempo,30,1,0,,,,,,664673,,,,,,
129120,note_on,0,0,0,,,,,,,,0,,,90,0
129120,note_on,0,0,0,,,,,,,,0,,,55,0
129120,note_on,0,0,0,,,,,,,,0,,,66,0
129120,note_on,0,0,0,,,,,,,,0,,,72,50
129120,note_on,0,0,0,,,,,,,,0,,,63,59
129131,control_change,11,0,0,,,,,,,,0,64,0,,
129160,control_change,29,0,0,,,,,,,,0,64,127,,
129200,note_on,40,0,0,,,,,,,,0,,,72,0
129200,note_on,0,0,0,,,,,,,,0,,,87,42
129240,set_tempo,40,1,0,,,,,,668598,,,,,,
129280,note_on,40,0,0,,,,,,,,0,,,87,0
129280,note_on,0,0,0,,,,,,,,0,,,75,45
129320,set_tempo,40,1,0,,,,,,672495,,,,,,
129360,note_on,40,0,0,,,,,,,,0,,,75,0
129360,note_on,0,0,0,,,,,,,,0,,,87,43
129400,set_tempo,40,1,0,,,,,,676437,,,,,,
129440,note_on,40,0,0,,,,,,,,0,,,87,0
129440,note_on,0,0,0,,,,,,,,0,,,79,45
129480,set_tempo,40,1,0,,,,,,680426,,,,,,
129520,note_on,40,0,0,,,,,,,,0,,,79,0
129520,note_on,0,0,0,,,,,,,,0,,,87,41
129560,set_tempo,40,1,0,,,,,,684463,,,,,,
129600,set_tempo,40,1,0,,,,,,684463,,,,,,
129600,note_on,0,0,0,,,,,,,,0,,,87,0
129600,note_on,0,0,0,,,,,,,,0,,,63,0
129600,note_on,0,0,0,,,,,,,,0,,,55,0
129600,note_on,0,0,0,,,,,,,,0,,,70,50
129600,note_on,0,0,0,,,,,,,,0,,,62,53
129600,note_on,0,0,0,,,,,,,,0,,,55,45
129620,control_change,20,0,0,,,,,,,,0,64,0,,
129656,control_change,36,0,0,,,,,,,,0,64,127,,
129680,note_on,24,0,0,,,,,,,,0,,,70,0
129680,note_on,0,0,0,,,,,,,,0,,,86,42
129760,note_on,80,0,0,,,,,,,,0,,,86,0
129760,note_on,0,0,0,,,,,,,,0,,,74,45
129840,note_on,80,0,0,,,,,,,,0,,,74,0
129840,note_on,0,0,0,,,,,,,,0,,,86,43
129920,note_on,80,0,0,,,,,,,,0,,,86,0
129920,note_on,0,0,0,,,,,,,,0,,,79,45
130000,note_on,80,0,0,,,,,,,,0,,,79,0
130000,note_on,0,0,0,,,,,,,,0,,,86,41
130080,set_tempo,80,1,0,,,,,,696945,,,,,,
130080,note_on,0,0,0,,,,,,,,0,,,86,0
130080,note_on,0,0,0,,,,,,,,0,,,55,0
130080,note_on,0,0,0,,,,,,,,0,,,82,50
130160,note_on,80,0,0,,,,,,,,0,,,82,0
130160,note_on,0,0,0,,,,,,,,0,,,86,42
130200,set_tempo,40,1,0,,,,,,692761,,,,,,
130240,note_on,40,0,0,,,,,,,,0,,,86,0
130240,note_on,0,0,0,,,,,,,,0,,,79,45
130320,set_tempo,80,1,0,,,,,,688547,,,,,,
130320,note_on,0,0,0,,,,,,,,0,,,79,0
130320,note_on,0,0,0,,,,,,,,0,,,86,42
130400,set_tempo,80,1,0,,,,,,684463,,,,,,
130400,note_on,0,0,0,,,,,,,,0,,,86,0
130400,note_on,0,0,0,,,,,,,,0,,,74,45
130480,note_on,80,0,0,,,,,,,,0,,,74,0
130480,note_on,0,0,0,,,,,,,,0,,,86,42
130520,set_tempo,40,1,0,,,,,,680426,,,,,,
130560,note_on,40,0,0,,,,,,,,0,,,86,0
130560,note_on,0,0,0,,,,,,,,0,,,70,50
130600,set_tempo,40,1,0,,,,,,676437,,,,,,
130640,note_on,40,0,0,,,,,,,,0,,,70,0
130640,note_on,0,0,0,,,,,,,,0,,,86,42
130720,note_on,80,0,0,,,,,,,,0,,,86,0
130720,note_on,0,0,0,,,,,,,,0,,,74,45
130760,set_tempo,40,1,0,,,,,,680426,,,,,,
130800,note_on,40,0,0,,,,,,,,0,,,74,0
130800,note_on,0,0,0,,,,,,,,0,,,86,45
130880,note_on,80,0,0,,,,,,,,0,,,86,0
130880,note_on,0,0,0,,,,,,,,0,,,79,45
130920,set_tempo,40,1,0,,,,,,684463,,,,,,
130960,note_on,40,0,0,,,,,,,,0,,,79,0
130960,note_on,0,0,0,,,,,,,,0,,,86,42
131000,set_tempo,40,1,0,,,,,,684463,,,,,,
131040,note_on,40,0,0,,,,,,,,0,,,86,0
131040,note_on,0,0,0,,,,,,,,0,,,62,0
131040,note_on,0,0,0,,,,,,,,0,,,69,50
131040,note_on,0,0,0,,,,,,,,0,,,65,54
131051,control_change,11,0,0,,,,,,,,0,64,0,,
131091,control_change,40,0,0,,,,,,,,0,64,127,,
131120,note_on,29,0,0,,,,,,,,0,,,69,0
131120,note_on,0,0,0,,,,,,,,0,,,86,43
131160,set_tempo,40,1,0,,,,,,680426,,,,,,
131200,note_on,40,0,0,,,,,,,,0,,,86,0
131200,note_on,0,0,0,,,,,,,,0,,,74,45
131280,set_tempo,80,1,0,,,,,,676437,,,,,,
131280,note_on,0,0,0,,,,,,,,0,,,74,0
131280,note_on,0,0,0,,,,,,,,0,,,86,42
131360,note_on,80,0,0,,,,,,,,0,,,86,0
131360,note_on,0,0,0,,,,,,,,0,,,77,45
131400,set_tempo,40,1,0,,,,,,672495,,,,,,
131440,note_on,40,0,0,,,,,,,,0,,,77,0
131440,note_on,0,0,0,,,,,,,,0,,,86,42
131520,set_tempo,80,1,0,,,,,,668598,,,,,,
131520,note_on,0,0,0,,,,,,,,0,,,86,0
131520,note_on,0,0,0,,,,,,,,0,,,65,0
131520,note_on,0,0,0,,,,,,,,0,,,67,50
131520,note_on,0,0,0,,,,,,,,0,,,63,57
131534,control_change,14,0,0,,,,,,,,0,64,0,,
131577,control_change,43,0,0,,,,,,,,0,64,127,,
131600,note_on,23,0,0,,,,,,,,0,,,67,0
131600,note_on,0,0,0,,,,,,,,0,,,84,42
131680,note_on,80,0,0,,,,,,,,0,,,84,0
131680,note_on,0,0,0,,,,,,,,0,,,72,45
131760,note_on,80,0,0,,,,,,,,0,,,72,0
131760,note_on,0,0,0,,,,,,,,0,,,84,42
131840,note_on,80,0,0,,,,,,,,0,,,84,0
131840,note_on,0,0,0,,,,,,,,0,,,75,45
131920,note_on,80,0,0,,,,,,,,0,,,75,0
131920,note_on,0,0,0,,,,,,,,0,,,84,42
132000,set_tempo,80,1,0,,,,,,664673,,,,,,
132000,note_on,0,0,0,,,,,,,,0,,,84,0
132000,note_on,0,0,0,,,,,,,,0,,,63,0
132000,note_on,0,0,0,,,,,,,,0,,,65,50
132000,note_on,0,0,0,,,,,,,,0,,,62,57
132011,control_change,11,0,0,,,,,,,,0,64,0,,
132040,control_change,29,0,0,,,,,,,,0,64,127,,
132080,note_on,40,0,0,,,,,,,,0,,,65,0
132080,note_on,0,0,0,,,,,,,,0,,,82,42
132120,set_tempo,40,1,0,,,,,,668598,,,,,,
132160,note_on,40,0,0,,,,,,,,0,,,82,0
132160,note_on,0,0,0,,,,,,,,0,,,70,45
132200,set_tempo,40,1,0,,,,,,672495,,,,,,
132240,note_on,40,0,0,,,,,,,,0,,,70,0
132240,note_on,0,0,0,,,,,,,,0,,,82,43
132280,set_tempo,40,1,0,,,,,,676437,,,,,,
132320,note_on,40,0,0,,,,,,,,0,,,82,0
132320,note_on,0,0,0,,,,,,,,0,,,74,45
132360,set_tempo,40,1,0,,,,,,680426,,,,,,
132400,note_on,40,0,0,,,,,,,,0,,,74,0
132400,note_on,0,0,0,,,,,,,,0,,,82,41
132440,set_tempo,40,1,0,,,,,,684463,,,,,,
132480,set_tempo,40,1,0,,,,,,684463,,,,,,
132480,note_on,0,0,0,,,,,,,,0,,,82,0
132480,note_on,0,0,0,,,,,,,,0,,,62,0
132480,note_on,0,0,0,,,,,,,,0,,,63,50
132480,note_on,0,0,0,,,,,,,,0,,,60,53
132499,control_change,19,0,0,,,,,,,,0,64,0,,
132536,control_change,37,0,0,,,,,,,,0,64,127,,
132560,note_on,24,0,0,,,,,,,,0,,,63,0
132560,note_on,0,0,0,,,,,,,,0,,,81,42
132640,note_on,80,0,0,,,,,,,,0,,,81,0
132640,note_on,0,0,0,,,,,,,,0,,,69,45
132720,note_on,80,0,0,,,,,,,,0,,,69,0
132720,note_on,0,0,0,,,,,,,,0,,,81,43
132800,note_on,80,0,0,,,,,,,,0,,,81,0
132800,note_on,0,0,0,,,,,,,,0,,,72,45
132880,note_on,80,0,0,,,,,,,,0,,,72,0
132880,note_on,0,0,0,,,,,,,,0,,,81,41
132940,set_tempo,60,1,0,,,,,,693642,,,,,,
132960,note_on,20,0,0,,,,,,,,0,,,81,0
132960,note_on,0,0,0,,,,,,,,0,,,75,50
133000,set_tempo,40,1,0,,,,,,689655,,,,,,
133040,set_tempo,40,1,0,,,,,,685714,,,,,,
133040,note_on,0,0,0,,,,,,,,0,,,75,0
133040,note_on,0,0,0,,,,,,,,0,,,81,42
133080,set_tempo,40,1,0,,,,,,681818,,,,,,
133120,note_on,40,0,0,,,,,,,,0,,,81,0
133120,note_on,0,0,0,,,,,,,,0,,,72,45
133140,set_tempo,20,1,0,,,,,,677966,,,,,,
133180,set_tempo,40,1,0,,,,,,674157,,,,,,
133200,note_on,20,0,0,,,,,,,,0,,,72,0
133200,note_on,0,0,0,,,,,,,,0,,,81,42
133220,set_tempo,20,1,0,,,,,,670391,,,,,,
133260,set_tempo,40,1,0,,,,,,666667,,,,,,
133280,note_on,20,0,0,,,,,,,,0,,,81,0
133280,note_on,0,0,0,,,,,,,,0,,,69,45
133320,set_tempo,40,1,0,,,,,,662983,,,,,,
133360,set_tempo,40,1,0,,,,,,659341,,,,,,
133360,note_on,0,0,0,,,,,,,,0,,,69,0
133360,note_on,0,0,0,,,,,,,,0,,,81,42
133400,set_tempo,40,1,0,,,,,,655738,,,,,,
133440,set_tempo,40,1,0,,,,,,652174,,,,,,
133440,note_on,0,0,0,,,,,,,,0,,,81,0
133440,note_on,0,0,0,,,,,,,,0,,,63,50
133480,set_tempo,40,1,0,,,,,,652174,,,,,,
133520,set_tempo,40,1,0,,,,,,655738,,,,,,
133520,note_on,0,0,0,,,,,,,,0,,,63,0
133520,note_on,0,0,0,,,,,,,,0,,,81,42
133560,set_tempo,40,1,0,,,,,,659341,,,,,,
133600,set_tempo,40,1,0,,,,,,662983,,,,,,
133600,note_on,0,0,0,,,,,,,,0,,,81,0
133600,note_on,0,0,0,,,,,,,,0,,,69,45
133620,set_tempo,20,1,0,,,,,,666667,,,,,,
133640,set_tempo,20,1,0,,,,,,680426,,,,,,
133680,set_tempo,40,1,0,,,,,,676437,,,,,,
133680,note_on,0,0,0,,,,,,,,0,,,69,0
133680,note_on,0,0,0,,,,,,,,0,,,81,45
133720,set_tempo,40,1,0,,,,,,692761,,,,,,
133760,set_tempo,40,1,0,,,,,,709807,,,,,,
133760,note_on,0,0,0,,,,,,,,0,,,81,0
133760,note_on,0,0,0,,,,,,,,0,,,72,45
133800,set_tempo,40,1,0,,,,,,732422,,,,,,
133840,set_tempo,40,1,0,,,,,,751597,,,,,,
133840,note_on,0,0,0,,,,,,,,0,,,72,0
133840,note_on,0,0,0,,,,,,,,0,,,81,42
133880,set_tempo,40,1,0,,,,,,777001,,,,,,
133920,set_tempo,40,1,0,,,,,,692761,,,,,,
133920,note_on,0,0,0,,,,,,,,0,,,81,0
133920,note_on,0,0,0,,,,,,,,0,,,60,0
133920,note_on,0,0,0,,,,,,,,0,,,69,59
133920,note_on,0,0,0,,,,,,,,0,,,48,49
133920,note_on,0,0,0,,,,,,,,0,,,63,59
133931,control_change,11,0,0,,,,,,,,0,64,0,,
133971,control_change,40,0,0,,,,,,,,0,64,127,,
134000,note_on,29,0,0,,,,,,,,0,,,69,0
134000,note_on,0,0,0,,,,,,,,0,,,84,43
134040,set_tempo,40,1,0,,,,,,680426,,,,,,
134080,note_on,40,0,0,,,,,,,,0,,,84,0
134080,note_on,0,0,0,,,,,,,,0,,,72,50
134160,set_tempo,80,1,0,,,,,,676437,,,,,,
134160,note_on,0,0,0,,,,,,,,0,,,72,0
134160,note_on,0,0,0,,,,,,,,0,,,84,42
134240,note_on,80,0,0,,,,,,,,0,,,84,0
134240,note_on,0,0,0,,,,,,,,0,,,75,47
134280,set_tempo,40,1,0,,,,,,672495,,,,,,
134320,note_on,40,0,0,,,,,,,,0,,,75,0
134320,note_on,0,0,0,,,,,,,,0,,,84,42
134398,note_on,78,0,0,,,,,,,,0,,,63,0
134400,set_tempo,2,1,0,,,,,,668598,,,,,,
134400,note_on,0,0,0,,,,,,,,0,,,84,0
134400,note_on,0,0,0,,,,,,,,0,,,48,0
134400,note_on,0,0,0,,,,,,,,0,,,63,50
134400,note_on,0,0,0,,,,,,,,0,,,48,48
134400,note_on,0,0,0,,,,,,,,0,,,60,57
134414,control_change,14,0,0,,,,,,,,0,64,0,,
134457,control_change,43,0,0,,,,,,,,0,64,127,,
134480,note_on,23,0,0,,,,,,,,0,,,63,0
134480,note_on,0,0,0,,,,,,,,0,,,81,42
134560,note_on,80,0,0,,,,,,,,0,,,81,0
134560,note_on,0,0,0,,,,,,,,0,,,69,45
134640,note_on,80,0,0,,,,,,,,0,,,69,0
134640,note_on,0,0,0,,,,,,,,0,,,81,42
134720,note_on,80,0,0,,,,,,,,0,,,81,0
134720,note_on,0,0,0,,,,,,,,0,,,72,45
134800,note_on,80,0,0,,,,,,,,0,,,72,0
134800,note_on,0,0,0,,,,,,,,0,,,81,42
134880,set_tempo,80,1,0,,,,,,664673,,,,,,
134880,note_on,0,0,0,,,,,,,,0,,,81,0
134880,note_on,0,0,0,,,,,,,,0,,,60,0
134880,note_on,0,0,0,,,,,,,,0,,,48,0
134880,note_on,0,0,0,,,,,,,,0,,,64,50
134880,note_on,0,0,0,,,,,,,,0,,,49,48
134880,note_on,0,0,0,,,,,,,,0,,,58,57
134891,control_change,11,0,0,,,,,,,,0,64,0,,
134920,control_change,29,0,0,,,,,,,,0,64,127,,
134960,note_on,40,0,0,,,,,,,,0,,,64,0
134960,note_on,0,0,0,,,,,,,,0,,,79,42
135000,set_tempo,40,1,0,,,,,,668598,,,,,,
135040,note_on,40,0,0,,,,,,,,0,,,79,0
135040,note_on,0,0,0,,,,,,,,0,,,70,45
135080,set_tempo,40,1,0,,,,,,672495,,,,,,
135120,set_tempo,40,1,0,,,,,,676437,,,,,,
135120,note_on,0,0,0,,,,,,,,0,,,70,0
135120,note_on,0,0,0,,,,,,,,0,,,79,43
135160,set_tempo,40,1,0,,,,,,696945,,,,,,
135200,set_tempo,40,1,0,,,,,,723240,,,,,,
135200,note_on,0,0,0,,,,,,,,0,,,79,0
135200,note_on,0,0,0,,,,,,,,0,,,76,45
135240,set_tempo,40,1,0,,,,,,751597,,,,,,
135280,set_tempo,40,1,0,,,,,,782269,,,,,,
135280,note_on,0,0,0,,,,,,,,0,,,76,0
135280,note_on,0,0,0,,,,,,,,0,,,79,41
135320,set_tempo,40,1,0,,,,,,777001,,,,,,
135360,set_tempo,40,1,0,,,,,,684463,,,,,,
135360,note_on,0,0,0,,,,,,,,0,,,79,0
135360,note_on,0,0,0,,,,,,,,0,,,58,0
135360,note_on,0,0,0,,,,,,,,0,,,49,0
135360,note_on,0,0,0,,,,,,,,0,,,67,58
135360,note_on,0,0,0,,,,,,,,0,,,50,48
135360,note_on,0,0,0,,,,,,,,0,,,58,48
135360,note_on,0,0,0,,,,,,,,0,,,62,57
135377,control_change,17,0,0,,,,,,,,0,64,0,,
135416,control_change,39,0,0,,,,,,,,0,64,127,,
135440,note_on,24,0,0,,,,,,,,0,,,67,0
135440,note_on,0,0,0,,,,,,,,0,,,82,46
135520,note_on,80,0,0,,,,,,,,0,,,82,0
135520,note_on,0,0,0,,,,,,,,0,,,70,50
135600,note_on,80,0,0,,,,,,,,0,,,70,0
135600,note_on,0,0,0,,,,,,,,0,,,82,43
135680,note_on,80,0,0,,,,,,,,0,,,82,0
135680,note_on,0,0,0,,,,,,,,0,,,74,45
135760,note_on,80,0,0,,,,,,,,0,,,74,0
135760,note_on,0,0,0,,,,,,,,0,,,82,41
135840,set_tempo,80,1,0,,,,,,696945,,,,,,
135840,note_on,0,0,0,,,,,,,,0,,,82,0
135840,note_on,0,0,0,,,,,,,,0,,,79,50
135920,note_on,80,0,0,,,,,,,,0,,,79,0
135920,note_on,0,0,0,,,,,,,,0,,,82,42
135960,set_tempo,40,1,0,,,,,,692761,,,,,,
136000,note_on,40,0,0,,,,,,,,0,,,82,0
136000,note_on,0,0,0,,,,,,,,0,,,74,45
136080,set_tempo,80,1,0,,,,,,688547,,,,,,
136080,note_on,0,0,0,,,,,,,,0,,,74,0
136080,note_on,0,0,0,,,,,,,,0,,,82,42
136160,set_tempo,80,1,0,,,,,,684463,,,,,,
136160,note_on,0,0,0,,,,,,,,0,,,82,0
136160,note_on,0,0,0,,,,,,,,0,,,70,45
136240,note_on,80,0,0,,,,,,,,0,,,70,0
136240,note_on,0,0,0,,,,,,,,0,,,82,42
136280,set_tempo,40,1,0,,,,,,680426,,,,,,
136320,note_on,40,0,0,,,,,,,,0,,,82,0
136320,note_on,0,0,0,,,,,,,,0,,,50,0
136320,note_on,0,0,0,,,,,,,,0,,,58,0
136320,note_on,0,0,0,,,,,,,,0,,,66,50
136320,note_on,0,0,0,,,,,,,,0,,,50,48
136320,note_on,0,0,0,,,,,,,,0,,,57,48
136334,control_change,14,0,0,,,,,,,,0,64,0,,
136360,set_tempo,26,1,0,,,,,,676437,,,,,,
136391,control_change,31,0,0,,,,,,,,0,64,127,,
136400,note_on,9,0,0,,,,,,,,0,,,66,0
136400,note_on,0,0,0,,,,,,,,0,,,81,42
136480,note_on,80,0,0,,,,,,,,0,,,81,0
136480,note_on,0,0,0,,,,,,,,0,,,69,45
136520,set_tempo,40,1,0,,,,,,680426,,,,,,
136560,note_on,40,0,0,,,,,,,,0,,,69,0
136560,note_on,0,0,0,,,,,,,,0,,,81,45
136640,note_on,80,0,0,,,,,,,,0,,,81,0
136640,note_on,0,0,0,,,,,,,,0,,,74,45
136680,set_tempo,40,1,0,,,,,,684463,,,,,,
136720,note_on,40,0,0,,,,,,,,0,,,74,0
136720,note_on,0,0,0,,,,,,,,0,,,81,42
136760,set_tempo,40,1,0,,,,,,684463,,,,,,
136800,note_on,40,0,0,,,,,,,,0,,,81,0
136800,note_on,0,0,0,,,,,,,,0,,,57,0
136800,note_on,0,0,0,,,,,,,,0,,,50,0
136800,note_on,0,0,0,,,,,,,,0,,,62,0
136800,note_on,0,0,0,,,,,,,,0,,,66,50
136800,note_on,0,0,0,,,,,,,,0,,,60,45
136800,note_on,0,0,0,,,,,,,,0,,,63,54
136811,control_change,11,0,0,,,,,,,,0,64,0,,
136851,control_change,40,0,0,,,,,,,,0,64,127,,
136880,note_on,29,0,0,,,,,,,,0,,,66,0
136880,note_on,0,0,0,,,,,,,,0,,,81,43
136920,set_tempo,40,1,0,,,,,,680426,,,,,,
136960,note_on,40,0,0,,,,,,,,0,,,81,0
136960,note_on,0,0,0,,,,,,,,0,,,69,45
137040,set_tempo,80,1,0,,,,,,676437,,,,,,
137040,note_on,0,0,0,,,,,,,,0,,,69,0
137040,note_on,0,0,0,,,,,,,,0,,,81,42
137120,note_on,80,0,0,,,,,,,,0,,,81,0
137120,note_on,0,0,0,,,,,,,,0,,,75,45
137160,set_tempo,40,1,0,,,,,,672495,,,,,,
137200,note_on,40,0,0,,,,,,,,0,,,75,0
137200,note_on,0,0,0,,,,,,,,0,,,81,42
137280,set_tempo,80,1,0,,,,,,668598,,,,,,
137280,note_on,0,0,0,,,,,,,,0,,,81,0
137280,note_on,0,0,0,,,,,,,,0,,,63,0
137280,note_on,0,0,0,,,,,,,,0,,,60,0
137280,note_on,0,0,0,,,,,,,,0,,,67,50
137280,note_on,0,0,0,,,,,,,,0,,,58,48
137280,note_on,0,0,0,,,,,,,,0,,,62,57
137294,control_change,14,0,0,,,,,,,,0,64,0,,
137337,control_change,43,0,0,,,,,,,,0,64,127,,
137360,note_on,23,0,0,,,,,,,,0,,,67,0
137360,note_on,0,0,0,,,,,,,,0,,,79,42
137440,note_on,80,0,0,,,,,,,,0,,,79,0
137440,note_on,0,0,0,,,,,,,,0,,,70,45
137520,note_on,80,0,0,,,,,,,,0,,,70,0
137520,note_on,0,0,0,,,,,,,,0,,,79,42
137600,note_on,80,0,0,,,,,,,,0,,,79,0
137600,note_on,0,0,0,,,,,,,,0,,,74,45
137680,note_on,80,0,0,,,,,,,,0,,,74,0
137680,note_on,0,0,0,,,,,,,,0,,,79,42
137760,set_tempo,80,1,0,,,,,,664673,,,,,,
137760,note_on,0,0,0,,,,,,,,0,,,79,0
137760,note_on,0,0,0,,,,,,,,0,,,62,0
137760,note_on,0,0,0,,,,,,,,0,,,58,0
137760,note_on,0,0,0,,,,,,,,0,,,66,50
137760,note_on,0,0,0,,,,,,,,0,,,57,40
137760,note_on,0,0,0,,,,,,,,0,,,60,40
137760,note_on,0,0,0,,,,,,,,0,,,62,57
137771,control_change,11,0,0,,,,,,,,0,64,0,,
137820,control_change,49,0,0,,,,,,,,0,64,127,,
137840,note_on,20,0,0,,,,,,,,0,,,66,0
137840,note_on,0,0,0,,,,,,,,0,,,78,42
137880,set_tempo,40,1,0,,,,,,668598,,,,,,
137920,note_on,40,0,0,,,,,,,,0,,,78,0
137920,note_on,0,0,0,,,,,,,,0,,,69,45
137960,set_tempo,40,1,0,,,,,,672495,,,,,,
138000,note_on,40,0,0,,,,,,,,0,,,69,0
138000,note_on,0,0,0,,,,,,,,0,,,78,43
138040,set_tempo,40,1,0,,,,,,676437,,,,,,
138080,note_on,40,0,0,,,,,,,,0,,,78,0
138080,note_on,0,0,0,,,,,,,,0,,,74,45
138120,set_tempo,40,1,0,,,,,,680426,,,,,,
138160,note_on,40,0,0,,,,,,,,0,,,74,0
138160,note_on,0,0,0,,,,,,,,0,,,78,41
138200,set_tempo,40,1,0,,,,,,684463,,,,,,
138240,set_tempo,40,1,0,,,,,,684463,,,,,,
138240,note_on,0,0,0,,,,,,,,0,,,78,0
138240,note_on,0,0,0,,,,,,,,0,,,62,0
138240,note_on,0,0,0,,,,,,,,0,,,60,0
138240,note_on,0,0,0,,,,,,,,0,,,57,0
138240,note_on,0,0,0,,,,,,,,0,,,65,55
138240,note_on,0,0,0,,,,,,,,0,,,56,48
138240,note_on,0,0,0,,,,,,,,0,,,59,48
138240,note_on,0,0,0,,,,,,,,0,,,62,57
138264,control_change,24,0,0,,,,,,,,0,64,0,,
138296,control_change,32,0,0,,,,,,,,0,64,127,,
138320,note_on,24,0,0,,,,,,,,0,,,77,46
138400,note_on,80,0,0,,,,,,,,0,,,77,0
138400,note_on,0,0,0,,,,,,,,0,,,68,50
138480,note_on,80,0,0,,,,,,,,0,,,68,0
138480,note_on,0,0,0,,,,,,,,0,,,77,43
138560,note_on,80,0,0,,,,,,,,0,,,77,0
138560,note_on,0,0,0,,,,,,,,0,,,71,45
138640,note_on,80,0,0,,,,,,,,0,,,71,0
138640,note_on,0,0,0,,,,,,,,0,,,77,41
138720,set_tempo,80,1,0,,,,,,696945,,,,,,
138720,note_on,0,0,0,,,,,,,,0,,,77,0
138720,note_on,0,0,0,,,,,,,,0,,,74,50
138800,note_on,80,0,0,,,,,,,,0,,,74,0
138800,note_on,0,0,0,,,,,,,,0,,,77,42
138840,set_tempo,40,1,0,,,,,,692761,,,,,,
138880,note_on,40,0,0,,,,,,,,0,,,77,0
138880,note_on,0,0,0,,,,,,,,0,,,71,45
138960,set_tempo,80,1,0,,,,,,688547,,,,,,
138960,note_on,0,0,0,,,,,,,,0,,,71,0
138960,note_on,0,0,0,,,,,,,,0,,,77,42
139040,set_tempo,80,1,0,,,,,,684463,,,,,,
139040,note_on,0,0,0,,,,,,,,0,,,77,0
139040,note_on,0,0,0,,,,,,,,0,,,68,45
139120,note_on,80,0,0,,,,,,,,0,,,68,0
139120,note_on,0,0,0,,,,,,,,0,,,77,42
139160,set_tempo,40,1,0,,,,,,680426,,,,,,
139200,note_on,40,0,0,,,,,,,,0,,,77,0
139200,note_on,0,0,0,,,,,,,,0,,,59,0
139200,note_on,0,0,0,,,,,,,,0,,,65,0
139200,note_on,0,0,0,,,,,,,,0,,,56,0
139200,note_on,0,0,0,,,,,,,,0,,,62,0
139200,note_on,0,0,0,,,,,,,,0,,,64,50
139200,note_on,0,0,0,,,,,,,,0,,,55,48
139214,control_change,14,0,0,,,,,,,,0,64,0,,
139240,set_tempo,26,1,0,,,,,,676437,,,,,,
139271,control_change,31,0,0,,,,,,,,0,64,127,,
139280,note_on,9,0,0,,,,,,,,0,,,76,42
139360,note_on,80,0,0,,,,,,,,0,,,76,0
139360,note_on,0,0,0,,,,,,,,0,,,67,45
139400,set_tempo,40,1,0,,,,,,680426,,,,,,
139440,set_tempo,40,1,0,,,,,,657102,,,,,,
139440,note_on,0,0,0,,,,,,,,0,,,67,0
139440,note_on,0,0,0,,,,,,,,0,,,76,45
139520,note_on,80,0,0,,,,,,,,0,,,76,0
139520,note_on,0,0,0,,,,,,,,0,,,72,45
139600,note_on,80,0,0,,,,,,,,0,,,72,0
139600,note_on,0,0,0,,,,,,,,0,,,76,42
139640,set_tempo,40,1,0,,,,,,684463,,,,,,
139680,set_tempo,40,1,0,,,,,,624935,,,,,,
139680,note_on,0,0,0,,,,,,,,0,,,76,0
139680,note_on,0,0,0,,,,,,,,0,,,55,0
139680,note_on,0,0,0,,,,,,,,0,,,64,0
139680,note_on,0,0,0,,,,,,,,0,,,63,60
139680,note_on,0,0,0,,,,,,,,0,,,67,58
139691,control_change,11,0,0,,,,,,,,0,64,0,,
139731,control_change,40,0,0,,,,,,,,0,64,127,,
139760,note_on,29,0,0,,,,,,,,0,,,75,43
139840,note_on,80,0,0,,,,,,,,0,,,75,0
139840,note_on,0,0,0,,,,,,,,0,,,67,45
139920,note_on,80,0,0,,,,,,,,0,,,67,0
139920,note_on,0,0,0,,,,,,,,0,,,75,42
140000,note_on,80,0,0,,,,,,,,0,,,75,0
140000,note_on,0,0,0,,,,,,,,0,,,72,45
140040,set_tempo,40,1,0,,,,,,672495,,,,,,
140080,note_on,40,0,0,,,,,,,,0,,,72,0
140080,note_on,0,0,0,,,,,,,,0,,,75,42
140160,set_tempo,80,1,0,,,,,,653381,,,,,,
140160,note_on,0,0,0,,,,,,,,0,,,75,0
140160,note_on,0,0,0,,,,,,,,0,,,67,0
140160,note_on,0,0,0,,,,,,,,0,,,63,0
140160,note_on,0,0,0,,,,,,,,0,,,62,56
140160,note_on,0,0,0,,,,,,,,0,,,65,54
140174,control_change,14,0,0,,,,,,,,0,64,0,,
140217,control_change,43,0,0,,,,,,,,0,64,127,,
140240,note_on,23,0,0,,,,,,,,0,,,74,42
140320,note_on,80,0,0,,,,,,,,0,,,74,0
140320,note_on,0,0,0,,,,,,,,0,,,67,45
140400,note_on,80,0,0,,,,,,,,0,,,67,0
140400,note_on,0,0,0,,,,,,,,0,,,74,42
140480,note_on,80,0,0,,,,,,,,0,,,74,0
140480,note_on,0,0,0,,,,,,,,0,,,71,45
140560,note_on,80,0,0,,,,,,,,0,,,71,0
140560,note_on,0,0,0,,,,,,,,0,,,74,42
140640,set_tempo,80,1,0,,,,,,664673,,,,,,
140640,note_on,0,0,0,,,,,,,,0,,,74,0
140640,note_on,0,0,0,,,,,,,,0,,,65,0
140640,note_on,0,0,0,,,,,,,,0,,,62,0
140640,note_on,0,0,0,,,,,,,,0,,,63,58
140640,note_on,0,0,0,,,,,,,,0,,,55,48
140640,note_on,0,0,0,,,,,,,,0,,,60,54
140651,control_change,11,0,0,,,,,,,,0,64,0,,
140700,control_change,49,0,0,,,,,,,,0,64,127,,
140720,note_on,20,0,0,,,,,,,,0,,,75,42
140760,set_tempo,40,1,0,,,,,,668598,,,,,,
140800,note_on,40,0,0,,,,,,,,0,,,75,0
140800,note_on,0,0,0,,,,,,,,0,,,67,45
140840,set_tempo,40,1,0,,,,,,672495,,,,,,
140880,note_on,40,0,0,,,,,,,,0,,,67,0
140880,note_on,0,0,0,,,,,,,,0,,,75,43
140920,set_tempo,40,1,0,,,,,,676437,,,,,,
140960,note_on,40,0,0,,,,,,,,0,,,75,0
140960,note_on,0,0,0,,,,,,,,0,,,72,45
141000,set_tempo,40,1,0,,,,,,680426,,,,,,
141040,note_on,40,0,0,,,,,,,,0,,,72,0
141040,note_on,0,0,0,,,,,,,,0,,,75,41
141080,set_tempo,40,1,0,,,,,,684463,,,,,,
141120,set_tempo,40,1,0,,,,,,684463,,,,,,
141120,note_on,0,0,0,,,,,,,,0,,,75,0
141120,note_on,0,0,0,,,,,,,,0,,,63,0
141120,note_on,0,0,0,,,,,,,,0,,,55,0
141120,note_on,0,0,0,,,,,,,,0,,,60,0
141120,note_on,0,0,0,,,,,,,,0,,,63,55
141120,note_on,0,0,0,,,,,,,,0,,,54,48
141120,note_on,0,0,0,,,,,,,,0,,,60,57
141143,control_change,23,0,0,,,,,,,,0,64,0,,
141176,control_change,33,0,0,,,,,,,,0,64,127,,
141200,note_on,24,0,0,,,,,,,,0,,,75,46
141280,note_on,80,0,0,,,,,,,,0,,,75,0
141280,note_on,0,0,0,,,,,,,,0,,,67,50
141360,note_on,80,0,0,,,,,,,,0,,,67,0
141360,note_on,0,0,0,,,,,,,,0,,,75,43
141440,note_on,80,0,0,,,,,,,,0,,,75,0
141440,note_on,0,0,0,,,,,,,,0,,,68,45
141520,note_on,80,0,0,,,,,,,,0,,,68,0
141520,note_on,0,0,0,,,,,,,,0,,,75,41
141600,set_tempo,80,1,0,,,,,,696945,,,,,,
141600,note_on,0,0,0,,,,,,,,0,,,75,0
141600,note_on,0,0,0,,,,,,,,0,,,72,50
141680,note_on,80,0,0,,,,,,,,0,,,72,0
141680,note_on,0,0,0,,,,,,,,0,,,75,42
141720,set_tempo,40,1,0,,,,,,692761,,,,,,
141760,note_on,40,0,0,,,,,,,,0,,,75,0
141760,note_on,0,0,0,,,,,,,,0,,,67,45
141840,set_tempo,80,1,0,,,,,,688547,,,,,,
141840,note_on,0,0,0,,,,,,,,0,,,67,0
141840,note_on,0,0,0,,,,,,,,0,,,75,42
141920,set_tempo,80,1,0,,,,,,684463,,,,,,
141920,note_on,0,0,0,,,,,,,,0,,,75,0
141920,note_on,0,0,0,,,,,,,,0,,,68,45
142000,note_on,80,0,0,,,,,,,,0,,,68,0
142000,note_on,0,0,0,,,,,,,,0,,,75,42
142040,set_tempo,40,1,0,,,,,,680426,,,,,,
142080,note_on,40,0,0,,,,,,,,0,,,75,0
142080,note_on,0,0,0,,,,,,,,0,,,63,0
142080,note_on,0,0,0,,,,,,,,0,,,54,0
142080,note_on,0,0,0,,,,,,,,0,,,63,50
142080,note_on,0,0,0,,,,,,,,0,,,53,48
142094,control_change,14,0,0,,,,,,,,0,64,0,,
142120,set_tempo,26,1,0,,,,,,676437,,,,,,
142151,control_change,31,0,0,,,,,,,,0,64,127,,
142160,note_on,9,0,0,,,,,,,,0,,,75,42
142240,note_on,80,0,0,,,,,,,,0,,,75,0
142240,note_on,0,0,0,,,,,,,,0,,,68,45
142320,note_on,80,0,0,,,,,,,,0,,,68,0
142320,note_on,0,0,0,,,,,,,,0,,,75,45
142400,note_on,80,0,0,,,,,,,,0,,,75,0
142400,note_on,0,0,0,,,,,,,,0,,,69,45
142480,note_on,80,0,0,,,,,,,,0,,,69,0
142480,note_on,0,0,0,,,,,,,,0,,,75,42
142520,set_tempo,40,1,0,,,,,,649702,,,,,,
142560,note_on,40,0,0,,,,,,,,0,,,75,0
142560,note_on,0,0,0,,,,,,,,0,,,60,0
142560,note_on,0,0,0,,,,,,,,0,,,63,0
142560,note_on,0,0,0,,,,,,,,0,,,53,0
142560,note_on,0,0,0,,,,,,,,0,,,63,56
142560,note_on,0,0,0,,,,,,,,0,,,72,42
142560,note_on,0,0,0,,,,,,,,0,,,54,48
142560,note_on,0,0,0,,,,,,,,0,,,60,54
142571,control_change,11,0,0,,,,,,,,0,64,0,,
142611,control_change,40,0,0,,,,,,,,0,64,127,,
142640,set_tempo,29,1,0,,,,,,653381,,,,,,
142640,note_on,0,0,0,,,,,,,,0,,,72,0
142640,note_on,0,0,0,,,,,,,,0,,,75,43
142720,note_on,80,0,0,,,,,,,,0,,,75,0
142720,note_on,0,0,0,,,,,,,,0,,,68,45
142760,set_tempo,40,1,0,,,,,,657102,,,,,,
142800,note_on,40,0,0,,,,,,,,0,,,68,0
142800,note_on,0,0,0,,,,,,,,0,,,75,42
142880,set_tempo,80,1,0,,,,,,660866,,,,,,
142880,note_on,0,0,0,,,,,,,,0,,,75,0
142880,note_on,0,0,0,,,,,,,,0,,,69,45
142960,note_on,80,0,0,,,,,,,,0,,,69,0
142960,note_on,0,0,0,,,,,,,,0,,,75,42
143000,set_tempo,40,1,0,,,,,,664673,,,,,,
143040,set_tempo,40,1,0,,,,,,668598,,,,,,
143040,note_on,0,0,0,,,,,,,,0,,,75,0
143040,note_on,0,0,0,,,,,,,,0,,,60,0
143040,note_on,0,0,0,,,,,,,,0,,,54,0
143040,note_on,0,0,0,,,,,,,,0,,,63,0
143040,note_on,0,0,0,,,,,,,,0,,,62,53
143040,note_on,0,0,0,,,,,,,,0,,,55,45
143040,note_on,0,0,0,,,,,,,,0,,,58,51
143054,control_change,14,0,0,,,,,,,,0,64,0,,
143097,control_change,43,0,0,,,,,,,,0,64,127,,
143120,note_on,23,0,0,,,,,,,,0,,,74,42
143200,note_on,80,0,0,,,,,,,,0,,,74,0
143200,note_on,0,0,0,,,,,,,,0,,,69,45
143280,note_on,80,0,0,,,,,,,,0,,,69,0
143280,note_on,0,0,0,,,,,,,,0,,,74,42
143360,note_on,80,0,0,,,,,,,,0,,,74,0
143360,note_on,0,0,0,,,,,,,,0,,,70,45
143440,note_on,80,0,0,,,,,,,,0,,,70,0
143440,note_on,0,0,0,,,,,,,,0,,,74,42
143520,set_tempo,80,1,0,,,,,,664673,,,,,,
143520,note_on,0,0,0,,,,,,,,0,,,74,0
143520,note_on,0,0,0,,,,,,,,0,,,62,0
143520,note_on,0,0,0,,,,,,,,0,,,55,0
143520,note_on,0,0,0,,,,,,,,0,,,58,0
143520,note_on,0,0,0,,,,,,,,0,,,62,54
143520,note_on,0,0,0,,,,,,,,0,,,71,42
143520,note_on,0,0,0,,,,,,,,0,,,53,45
143520,note_on,0,0,0,,,,,,,,0,,,56,51
143531,control_change,11,0,0,,,,,,,,0,64,0,,
143580,control_change,49,0,0,,,,,,,,0,64,127,,
143600,note_on,20,0,0,,,,,,,,0,,,71,0
143600,note_on,0,0,0,,,,,,,,0,,,74,42
143640,set_tempo,40,1,0,,,,,,668598,,,,,,
143680,note_on,40,0,0,,,,,,,,0,,,74,0
143680,note_on,0,0,0,,,,,,,,0,,,67,45
143720,set_tempo,40,1,0,,,,,,672495,,,,,,
143760,note_on,40,0,0,,,,,,,,0,,,67,0
143760,note_on,0,0,0,,,,,,,,0,,,74,43
143800,set_tempo,40,1,0,,,,,,676437,,,,,,
143840,note_on,40,0,0,,,,,,,,0,,,74,0
143840,note_on,0,0,0,,,,,,,,0,,,68,45
143880,set_tempo,40,1,0,,,,,,680426,,,,,,
143920,note_on,40,0,0,,,,,,,,0,,,68,0
143920,note_on,0,0,0,,,,,,,,0,,,74,41
143960,set_tempo,40,1,0,,,,,,684463,,,,,,
144000,set_tempo,40,1,0,,,,,,668598,,,,,,
144000,note_on,0,0,0,,,,,,,,0,,,74,0
144000,note_on,0,0,0,,,,,,,,0,,,56,0
144000,note_on,0,0,0,,,,,,,,0,,,53,0
144000,note_on,0,0,0,,,,,,,,0,,,62,0
144000,note_on,0,0,0,,,,,,,,0,,,62,53
144000,note_on,0,0,0,,,,,,,,0,,,52,45
144000,note_on,0,0,0,,,,,,,,0,,,55,51
144014,control_change,14,0,0,,,,,,,,0,64,0,,
144057,control_change,43,0,0,,,,,,,,0,64,127,,
144080,note_on,23,0,0,,,,,,,,0,,,74,42
144160,note_on,80,0,0,,,,,,,,0,,,74,0
144160,note_on,0,0,0,,,,,,,,0,,,67,45
144240,note_on,80,0,0,,,,,,,,0,,,67,0
144240,note_on,0,0,0,,,,,,,,0,,,74,42
144320,note_on,80,0,0,,,,,,,,0,,,74,0
144320,note_on,0,0,0,,,,,,,,0,,,69,45
144400,note_on,80,0,0,,,,,,,,0,,,69,0
144400,note_on,0,0,0,,,,,,,,0,,,74,42
144480,set_tempo,80,1,0,,,,,,684463,,,,,,
144480,note_on,0,0,0,,,,,,,,0,,,74,0
144480,note_on,0,0,0,,,,,,,,0,,,62,0
144480,note_on,0,0,0,,,,,,,,0,,,52,0
144480,note_on,0,0,0,,,,,,,,0,,,55,0
144480,note_on,0,0,0,,,,,,,,0,,,61,50
144480,note_on,0,0,0,,,,,,,,0,,,70,42
144480,note_on,0,0,0,,,,,,,,0,,,51,40
144480,note_on,0,0,0,,,,,,,,0,,,55,45
144491,control_change,11,0,0,,,,,,,,0,64,0,,
144540,control_change,49,0,0,,,,,,,,0,64,127,,
144560,note_on,20,0,0,,,,,,,,0,,,70,0
144560,note_on,0,0,0,,,,,,,,0,,,73,42
144640,note_on,80,0,0,,,,,,,,0,,,73,0
144640,note_on,0,0,0,,,,,,,,0,,,66,45
144680,set_tempo,40,1,0,,,,,,680426,,,,,,
144720,set_tempo,40,1,0,,,,,,684463,,,,,,
144720,note_on,0,0,0,,,,,,,,0,,,66,0
144720,note_on,0,0,0,,,,,,,,0,,,73,43
144760,set_tempo,40,1,0,,,,,,692761,,,,,,
144800,set_tempo,40,1,0,,,,,,696945,,,,,,
144800,note_on,0,0,0,,,,,,,,0,,,73,0
144800,note_on,0,0,0,,,,,,,,0,,,67,45
144840,set_tempo,40,1,0,,,,,,705467,,,,,,
144880,set_tempo,40,1,0,,,,,,714286,,,,,,
144880,note_on,0,0,0,,,,,,,,0,,,67,0
144880,note_on,0,0,0,,,,,,,,0,,,73,41
144920,set_tempo,40,1,0,,,,,,684463,,,,,,
144960,set_tempo,40,1,0,,,,,,680426,,,,,,
144960,note_on,0,0,0,,,,,,,,0,,,73,0
144960,note_on,0,0,0,,,,,,,,0,,,55,0
144960,note_on,0,0,0,,,,,,,,0,,,51,0
144960,note_on,0,0,0,,,,,,,,0,,,61,0
144960,note_on,0,0,0,,,,,,,,0,,,62,50
144960,note_on,0,0,0,,,,,,,,0,,,50,43
144960,note_on,0,0,0,,,,,,,,0,,,58,48
144974,control_change,14,0,0,,,,,,,,0,64,0,,
145017,control_change,43,0,0,,,,,,,,0,64,127,,
145040,note_on,23,0,0,,,,,,,,0,,,74,39
145120,note_on,80,0,0,,,,,,,,0,,,74,0
145120,note_on,0,0,0,,,,,,,,0,,,66,42
145200,note_on,80,0,0,,,,,,,,0,,,66,0
145200,note_on,0,0,0,,,,,,,,0,,,74,39
145280,note_on,80,0,0,,,,,,,,0,,,74,0
145280,note_on,0,0,0,,,,,,,,0,,,67,41
145360,note_on,80,0,0,,,,,,,,0,,,67,0
145360,note_on,0,0,0,,,,,,,,0,,,74,38
145438,note_on,78,0,0,,,,,,,,0,,,58,0
145440,set_tempo,2,1,0,,,,,,664673,,,,,,
145440,note_on,0,0,0,,,,,,,,0,,,74,0
145440,note_on,0,0,0,,,,,,,,0,,,62,0
145440,note_on,0,0,0,,,,,,,,0,,,58,50
145440,note_on,0,0,0,,,,,,,,0,,,55,46
145451,control_change,11,0,0,,,,,,,,0,64,0,,
145500,control_change,49,0,0,,,,,,,,0,64,127,,
145520,note_on,20,0,0,,,,,,,,0,,,70,37
145560,set_tempo,40,1,0,,,,,,668598,,,,,,
145600,note_on,40,0,0,,,,,,,,0,,,70,0
145600,note_on,0,0,0,,,,,,,,0,,,61,40
145640,set_tempo,40,1,0,,,,,,676437,,,,,,
145680,set_tempo,40,1,0,,,,,,684463,,,,,,
145680,note_on,0,0,0,,,,,,,,0,,,61,0
145680,note_on,0,0,0,,,,,,,,0,,,70,38
145720,set_tempo,40,1,0,,,,,,692761,,,,,,
145760,set_tempo,40,1,0,,,,,,701180,,,,,,
145760,note_on,0,0,0,,,,,,,,0,,,70,0
145760,note_on,0,0,0,,,,,,,,0,,,62,39
145800,set_tempo,40,1,0,,,,,,709807,,,,,,
145840,set_tempo,40,1,0,,,,,,718735,,,,,,
145840,note_on,0,0,0,,,,,,,,0,,,62,0
145840,note_on,0,0,0,,,,,,,,0,,,70,36
145880,set_tempo,40,1,0,,,,,,732422,,,,,,
145920,set_tempo,40,1,0,,,,,,688547,,,,,,
145920,note_on,0,0,0,,,,,,,,0,,,70,0
145920,note_on,0,0,0,,,,,,,,0,,,50,0
145920,note_on,0,0,0,,,,,,,,0,,,58,0
145920,note_on,0,0,0,,,,,,,,0,,,55,0
145920,note_on,0,0,0,,,,,,,,0,,,60,45
145920,note_on,0,0,0,,,,,,,,0,,,50,39
145920,note_on,0,0,0,,,,,,,,0,,,57,45
145934,control_change,14,0,0,,,,,,,,0,64,0,,
145977,control_change,43,0,0,,,,,,,,0,64,127,,
146000,note_on,23,0,0,,,,,,,,0,,,72,36
146080,note_on,80,0,0,,,,,,,,0,,,72,0
146080,note_on,0,0,0,,,,,,,,0,,,63,38
146160,note_on,80,0,0,,,,,,,,0,,,63,0
146160,note_on,0,0,0,,,,,,,,0,,,72,36
146240,note_on,80,0,0,,,,,,,,0,,,72,0
146240,note_on,0,0,0,,,,,,,,0,,,62,37
146320,note_on,80,0,0,,,,,,,,0,,,62,0
146320,note_on,0,0,0,,,,,,,,0,,,72,35
146360,set_tempo,40,1,0,,,,,,696945,,,,,,
146398,note_on,38,0,0,,,,,,,,0,,,57,0
146400,note_on,2,0,0,,,,,,,,0,,,72,0
146400,note_on,0,0,0,,,,,,,,0,,,60,0
146400,note_on,0,0,0,,,,,,,,0,,,57,45
146400,note_on,0,0,0,,,,,,,,0,,,54,42
146411,control_change,11,0,0,,,,,,,,0,64,0,,
146440,set_tempo,29,1,0,,,,,,701180,,,,,,
146460,control_change,20,0,0,,,,,,,,0,64,127,,
146480,note_on,20,0,0,,,,,,,,0,,,69,35
146520,set_tempo,40,1,0,,,,,,705467,,,,,,
146560,note_on,40,0,0,,,,,,,,0,,,69,0
146560,note_on,0,0,0,,,,,,,,0,,,63,36
146640,set_tempo,80,1,0,,,,,,705467,,,,,,
146640,note_on,0,0,0,,,,,,,,0,,,63,0
146640,note_on,0,0,0,,,,,,,,0,,,69,35
146680,set_tempo,40,1,0,,,,,,718735,,,,,,
146720,set_tempo,40,1,0,,,,,,732422,,,,,,
146720,note_on,0,0,0,,,,,,,,0,,,69,0
146720,note_on,0,0,0,,,,,,,,0,,,62,36
146760,set_tempo,40,1,0,,,,,,746733,,,,,,
146800,set_tempo,40,1,0,,,,,,761518,,,,,,
146800,note_on,0,0,0,,,,,,,,0,,,62,0
146800,note_on,0,0,0,,,,,,,,0,,,69,33
146840,set_tempo,40,1,0,,,,,,777001,,,,,,
146880,set_tempo,40,1,0,,,,,,688547,,,,,,
146880,note_on,0,0,0,,,,,,,,0,,,69,0
146880,note_on,0,0,0,,,,,,,,0,,,50,0
146880,note_on,0,0,0,,,,,,,,0,,,57,0
146880,note_on,0,0,0,,,,,,,,0,,,54,0
146880,note_on,0,0,0,,,,,,,,0,,,58,45
146880,note_on,0,0,0,,,,,,,,0,,,31,36
146880,note_on,0,0,0,,,,,,,,0,,,43,44
146894,control_change,14,0,0,,,,,,,,0,64,0,,
146937,control_change,43,0,0,,,,,,,,0,64,127,,
146960,note_on,23,0,0,,,,,,,,0,,,67,30
146960,note_on,0,0,0,,,,,,,,0,,,70,36
147040,note_on,80,0,0,,,,,,,,0,,,70,0
147040,note_on,0,0,0,,,,,,,,0,,,67,0
147040,note_on,0,0,0,,,,,,,,0,,,61,38
147120,note_on,80,0,0,,,,,,,,0,,,61,0
147120,note_on,0,0,0,,,,,,,,0,,,67,29
147120,note_on,0,0,0,,,,,,,,0,,,70,36
147200,note_on,80,0,0,,,,,,,,0,,,70,0
147200,note_on,0,0,0,,,,,,,,0,,,67,0
147200,note_on,0,0,0,,,,,,,,0,,,62,37
147280,note_on,80,0,0,,,,,,,,0,,,62,0
147280,note_on,0,0,0,,,,,,,,0,,,67,29
147280,note_on,0,0,0,,,,,,,,0,,,70,36
147320,set_tempo,40,1,0,,,,,,696945,,,,,,
147358,note_on,38,0,0,,,,,,,,0,,,58,0
147360,set_tempo,2,1,0,,,,,,648649,,,,,,
147360,note_on,0,0,0,,,,,,,,0,,,67,0
147360,note_on,0,0,0,,,,,,,,0,,,31,0
147360,note_on,0,0,0,,,,,,,,0,,,43,0
147360,note_on,0,0,0,,,,,,,,0,,,70,0
147360,note_on,0,0,0,,,,,,,,0,,,62,47
147360,note_on,0,0,0,,,,,,,,0,,,50,34
147360,note_on,0,0,0,,,,,,,,0,,,55,34
147360,note_on,0,0,0,,,,,,,,0,,,58,40
147371,control_change,11,0,0,,,,,,,,0,64,0,,
147420,control_change,49,0,0,,,,,,,,0,64,127,,
147440,note_on,20,0,0,,,,,,,,0,,,70,30
147440,note_on,0,0,0,,,,,,,,0,,,74,36
147520,note_on,80,0,0,,,,,,,,0,,,74,0
147520,note_on,0,0,0,,,,,,,,0,,,70,0
147520,note_on,0,0,0,,,,,,,,0,,,66,43
147600,note_on,80,0,0,,,,,,,,0,,,66,0
147600,note_on,0,0,0,,,,,,,,0,,,70,28
147600,note_on,0,0,0,,,,,,,,0,,,74,36
147680,note_on,80,0,0,,,,,,,,0,,,74,0
147680,note_on,0,0,0,,,,,,,,0,,,70,0
147680,note_on,0,0,0,,,,,,,,0,,,67,43
147760,note_on,80,0,0,,,,,,,,0,,,67,0
147760,note_on,0,0,0,,,,,,,,0,,,70,31
147760,note_on,0,0,0,,,,,,,,0,,,74,36
147838,note_on,78,0,0,,,,,,,,0,,,58,0
147840,set_tempo,2,1,0,,,,,,668598,,,,,,
147840,note_on,0,0,0,,,,,,,,0,,,50,0
147840,note_on,0,0,0,,,,,,,,0,,,55,0
147840,note_on,0,0,0,,,,,,,,0,,,62,0
147840,note_on,0,0,0,,,,,,,,0,,,74,0
147840,note_on,0,0,0,,,,,,,,0,,,70,0
147840,note_on,0,0,0,,,,,,,,0,,,58,50
147840,note_on,0,0,0,,,,,,,,0,,,31,40
147840,note_on,0,0,0,,,,,,,,0,,,43,47
147854,control_change,14,0,0,,,,,,,,0,64,0,,
147897,control_change,43,0,0,,,,,,,,0,64,127,,
147920,note_on,23,0,0,,,,,,,,0,,,67,34
147920,note_on,0,0,0,,,,,,,,0,,,70,39
148000,note_on,80,0,0,,,,,,,,0,,,70,0
148000,note_on,0,0,0,,,,,,,,0,,,67,0
148000,note_on,0,0,0,,,,,,,,0,,,61,42
148080,note_on,80,0,0,,,,,,,,0,,,61,0
148080,note_on,0,0,0,,,,,,,,0,,,67,33
148080,note_on,0,0,0,,,,,,,,0,,,70,40
148160,note_on,80,0,0,,,,,,,,0,,,70,0
148160,note_on,0,0,0,,,,,,,,0,,,67,0
148160,note_on,0,0,0,,,,,,,,0,,,62,42
148240,note_on,80,0,0,,,,,,,,0,,,62,0
148240,note_on,0,0,0,,,,,,,,0,,,67,33
148240,note_on,0,0,0,,,,,,,,0,,,70,39
148318,note_on,78,0,0,,,,,,,,0,,,58,0
148320,set_tempo,2,1,0,,,,,,655738,,,,,,
148320,note_on,0,0,0,,,,,,,,0,,,67,0
148320,note_on,0,0,0,,,,,,,,0,,,31,0
148320,note_on,0,0,0,,,,,,,,0,,,43,0
148320,note_on,0,0,0,,,,,,,,0,,,70,0
148320,note_on,0,0,0,,,,,,,,0,,,62,54
148320,note_on,0,0,0,,,,,,,,0,,,50,38
148320,note_on,0,0,0,,,,,,,,0,,,55,38
148320,note_on,0,0,0,,,,,,,,0,,,58,45
148331,control_change,11,0,0,,,,,,,,0,64,0,,
148380,control_change,49,0,0,,,,,,,,0,64,127,,
148400,note_on,20,0,0,,,,,,,,0,,,70,34
148400,note_on,0,0,0,,,,,,,,0,,,74,41
148480,note_on,80,0,0,,,,,,,,0,,,74,0
148480,note_on,0,0,0,,,,,,,,0,,,70,0
148480,note_on,0,0,0,,,,,,,,0,,,66,47
148560,set_tempo,80,1,0,,,,,,701180,,,,,,
148560,note_on,0,0,0,,,,,,,,0,,,66,0
148560,note_on,0,0,0,,,,,,,,0,,,70,32
148560,note_on,0,0,0,,,,,,,,0,,,74,41
148640,note_on,80,0,0,,,,,,,,0,,,74,0
148640,note_on,0,0,0,,,,,,,,0,,,70,0
148640,note_on,0,0,0,,,,,,,,0,,,67,49
148720,note_on,80,0,0,,,,,,,,0,,,67,0
148720,note_on,0,0,0,,,,,,,,0,,,70,34
148720,note_on,0,0,0,,,,,,,,0,,,74,40
148800,set_tempo,80,1,0,,,,,,645995,,,,,,
148800,note_on,0,0,0,,,,,,,,0,,,74,0
148800,note_on,0,0,0,,,,,,,,0,,,50,0
148800,note_on,0,0,0,,,,,,,,0,,,55,0
148800,note_on,0,0,0,,,,,,,,0,,,62,0
148800,note_on,0,0,0,,,,,,,,0,,,70,0
148800,note_on,0,0,0,,,,,,,,0,,,58,0
148800,note_on,0,0,0,,,,,,,,0,,,62,55
148800,note_on,0,0,0,,,,,,,,0,,,31,44
148800,note_on,0,0,0,,,,,,,,0,,,43,53
148814,control_change,14,0,0,,,,,,,,0,64,0,,
148857,control_change,43,0,0,,,,,,,,0,64,127,,
148880,note_on,23,0,0,,,,,,,,0,,,71,36
148880,note_on,0,0,0,,,,,,,,0,,,74,43
148960,note_on,80,0,0,,,,,,,,0,,,74,0
148960,note_on,0,0,0,,,,,,,,0,,,71,0
148960,note_on,0,0,0,,,,,,,,0,,,66,47
149040,note_on,80,0,0,,,,,,,,0,,,66,0
149040,note_on,0,0,0,,,,,,,,0,,,71,36
149040,note_on,0,0,0,,,,,,,,0,,,74,45
149120,note_on,80,0,0,,,,,,,,0,,,74,0
149120,note_on,0,0,0,,,,,,,,0,,,71,0
149120,note_on,0,0,0,,,,,,,,0,,,67,46
149200,note_on,80,0,0,,,,,,,,0,,,67,0
149200,note_on,0,0,0,,,,,,,,0,,,71,37
149200,note_on,0,0,0,,,,,,,,0,,,74,44
149278,note_on,78,0,0,,,,,,,,0,,,62,0
149280,note_on,2,0,0,,,,,,,,0,,,71,0
149280,note_on,0,0,0,,,,,,,,0,,,31,0
149280,note_on,0,0,0,,,,,,,,0,,,43,0
149280,note_on,0,0,0,,,,,,,,0,,,74,0
149280,note_on,0,0,0,,,,,,,,0,,,65,61
149280,note_on,0,0,0,,,,,,,,0,,,55,42
149280,note_on,0,0,0,,,,,,,,0,,,53,42
149280,note_on,0,0,0,,,,,,,,0,,,59,42
149280,note_on,0,0,0,,,,,,,,0,,,62,50
149291,control_change,11,0,0,,,,,,,,0,64,0,,
149340,control_change,49,0,0,,,,,,,,0,64,127,,
149360,note_on,20,0,0,,,,,,,,0,,,74,37
149360,note_on,0,0,0,,,,,,,,0,,,77,45
149440,note_on,80,0,0,,,,,,,,0,,,77,0
149440,note_on,0,0,0,,,,,,,,0,,,74,0
149440,note_on,0,0,0,,,,,,,,0,,,68,50
149520,set_tempo,80,1,0,,,,,,746733,,,,,,
149520,note_on,0,0,0,,,,,,,,0,,,68,0
149520,note_on,0,0,0,,,,,,,,0,,,74,36
149520,note_on,0,0,0,,,,,,,,0,,,77,45
149600,note_on,80,0,0,,,,,,,,0,,,77,0
149600,note_on,0,0,0,,,,,,,,0,,,74,0
149600,note_on,0,0,0,,,,,,,,0,,,67,51
149680,note_on,80,0,0,,,,,,,,0,,,67,0
149680,note_on,0,0,0,,,,,,,,0,,,74,37
149680,note_on,0,0,0,,,,,,,,0,,,77,45
149760,set_tempo,80,1,0,,,,,,668598,,,,,,
149760,note_on,0,0,0,,,,,,,,0,,,77,0
149760,note_on,0,0,0,,,,,,,,0,,,62,0
149760,note_on,0,0,0,,,,,,,,0,,,55,0
149760,note_on,0,0,0,,,,,,,,0,,,53,0
149760,note_on,0,0,0,,,,,,,,0,,,65,0
149760,note_on,0,0,0,,,,,,,,0,,,74,0
149760,note_on,0,0,0,,,,,,,,0,,,59,0
149760,note_on,0,0,0,,,,,,,,0,,,67,62
149760,note_on,0,0,0,,,,,,,,0,,,31,50
149760,note_on,0,0,0,,,,,,,,0,,,43,60
149774,control_change,14,0,0,,,,,,,,0,64,0,,
149817,control_change,43,0,0,,,,,,,,0,64,127,,
149840,note_on,23,0,0,,,,,,,,0,,,75,41
149840,note_on,0,0,0,,,,,,,,0,,,79,49
149920,note_on,80,0,0,,,,,,,,0,,,79,0
149920,note_on,0,0,0,,,,,,,,0,,,75,0
149920,note_on,0,0,0,,,,,,,,0,,,71,52
150000,set_tempo,80,1,0,,,,,,641711,,,,,,
150000,note_on,0,0,0,,,,,,,,0,,,71,0
150000,note_on,0,0,0,,,,,,,,0,,,75,40
150000,note_on,0,0,0,,,,,,,,0,,,79,49
150080,note_on,80,0,0,,,,,,,,0,,,79,0
150080,note_on,0,0,0,,,,,,,,0,,,75,0
150080,note_on,0,0,0,,,,,,,,0,,,72,50
150160,note_on,80,0,0,,,,,,,,0,,,72,0
150160,note_on,0,0,0,,,,,,,,0,,,75,39
150160,note_on,0,0,0,,,,,,,,0,,,79,46
150220,set_tempo,60,1,0,,,,,,648649,,,,,,
150240,set_tempo,20,1,0,,,,,,652174,,,,,,
150240,note_on,0,0,0,,,,,,,,0,,,79,0
150240,note_on,0,0,0,,,,,,,,0,,,43,0
150240,note_on,0,0,0,,,,,,,,0,,,67,0
150240,note_on,0,0,0,,,,,,,,0,,,31,0
150240,note_on,0,0,0,,,,,,,,0,,,75,0
150240,note_on,0,0,0,,,,,,,,0,,,63,63
150240,note_on,0,0,0,,,,,,,,0,,,51,45
150240,note_on,0,0,0,,,,,,,,0,,,55,45
150240,note_on,0,0,0,,,,,,,,0,,,60,53
150251,control_change,11,0,0,,,,,,,,0,64,0,,
150260,set_tempo,9,1,0,,,,,,655738,,,,,,
150280,set_tempo,20,1,0,,,,,,659341,,,,,,
150300,set_tempo,20,1,0,,,,,,662983,,,,,,
150300,control_change,0,0,0,,,,,,,,0,64,127,,
150320,set_tempo,20,1,0,,,,,,666667,,,,,,
150320,note_on,0,0,0,,,,,,,,0,,,72,39
150320,note_on,0,0,0,,,,,,,,0,,,75,46
150340,set_tempo,20,1,0,,,,,,670391,,,,,,
150360,set_tempo,20,1,0,,,,,,674157,,,,,,
150380,set_tempo,20,1,0,,,,,,677966,,,,,,
150400,set_tempo,20,1,0,,,,,,681818,,,,,,
150400,note_on,0,0,0,,,,,,,,0,,,75,0
150400,note_on,0,0,0,,,,,,,,0,,,72,0
150400,note_on,0,0,0,,,,,,,,0,,,66,51
150420,set_tempo,20,1,0,,,,,,685714,,,,,,
150480,set_tempo,60,1,0,,,,,,751597,,,,,,
150480,note_on,0,0,0,,,,,,,,0,,,66,0
150480,note_on,0,0,0,,,,,,,,0,,,72,36
150480,note_on,0,0,0,,,,,,,,0,,,75,45
150560,note_on,80,0,0,,,,,,,,0,,,75,0
150560,note_on,0,0,0,,,,,,,,0,,,72,0
150560,note_on,0,0,0,,,,,,,,0,,,67,51
150640,note_on,80,0,0,,,,,,,,0,,,67,0
150640,note_on,0,0,0,,,,,,,,0,,,72,37
150640,note_on,0,0,0,,,,,,,,0,,,75,45
150720,set_tempo,80,1,0,,,,,,684463,,,,,,
150720,note_on,0,0,0,,,,,,,,0,,,75,0
150720,note_on,0,0,0,,,,,,,,0,,,51,0
150720,note_on,0,0,0,,,,,,,,0,,,55,0
150720,note_on,0,0,0,,,,,,,,0,,,63,0
150720,note_on,0,0,0,,,,,,,,0,,,72,0
150720,note_on,0,0,0,,,,,,,,0,,,60,0
150720,note_on,0,0,0,,,,,,,,0,,,62,58
150720,note_on,0,0,0,,,,,,,,0,,,38,55
150734,control_change,14,0,0,,,,,,,,0,64,0,,
150777,control_change,43,0,0,,,,,,,,0,64,127,,
150800,note_on,23,0,0,,,,,,,,0,,,70,37
150800,note_on,0,0,0,,,,,,,,0,,,74,45
150880,note_on,80,0,0,,,,,,,,0,,,74,0
150880,note_on,0,0,0,,,,,,,,0,,,70,0
150880,note_on,0,0,0,,,,,,,,0,,,66,48
150960,note_on,80,0,0,,,,,,,,0,,,66,0
150960,note_on,0,0,0,,,,,,,,0,,,70,36
150960,note_on,0,0,0,,,,,,,,0,,,74,44
151040,note_on,80,0,0,,,,,,,,0,,,74,0
151040,note_on,0,0,0,,,,,,,,0,,,70,0
151040,note_on,0,0,0,,,,,,,,0,,,67,45
151120,note_on,80,0,0,,,,,,,,0,,,67,0
151120,note_on,0,0,0,,,,,,,,0,,,70,36
151120,note_on,0,0,0,,,,,,,,0,,,74,42
151200,set_tempo,80,1,0,,,,,,696945,,,,,,
151200,note_on,0,0,0,,,,,,,,0,,,74,0
151200,note_on,0,0,0,,,,,,,,0,,,62,0
151200,note_on,0,0,0,,,,,,,,0,,,38,0
151200,note_on,0,0,0,,,,,,,,0,,,70,0
151200,note_on,0,0,0,,,,,,,,0,,,58,56
151200,note_on,0,0,0,,,,,,,,0,,,50,39
151200,note_on,0,0,0,,,,,,,,0,,,55,46
151211,control_change,11,0,0,,,,,,,,0,64,0,,
151260,control_change,49,0,0,,,,,,,,0,64,127,,
151280,note_on,20,0,0,,,,,,,,0,,,67,34
151280,note_on,0,0,0,,,,,,,,0,,,70,41
151360,note_on,80,0,0,,,,,,,,0,,,70,0
151360,note_on,0,0,0,,,,,,,,0,,,67,0
151360,note_on,0,0,0,,,,,,,,0,,,61,46
151440,set_tempo,80,1,0,,,,,,746733,,,,,,
151440,note_on,0,0,0,,,,,,,,0,,,61,0
151440,note_on,0,0,0,,,,,,,,0,,,67,32
151440,note_on,0,0,0,,,,,,,,0,,,70,41
151520,note_on,80,0,0,,,,,,,,0,,,70,0
151520,note_on,0,0,0,,,,,,,,0,,,67,0
151520,note_on,0,0,0,,,,,,,,0,,,62,45
151600,note_on,80,0,0,,,,,,,,0,,,62,0
151600,note_on,0,0,0,,,,,,,,0,,,67,32
151600,note_on,0,0,0,,,,,,,,0,,,70,38
151680,set_tempo,80,1,0,,,,,,705467,,,,,,
151680,note_on,0,0,0,,,,,,,,0,,,70,0
151680,note_on,0,0,0,,,,,,,,0,,,55,0
151680,note_on,0,0,0,,,,,,,,0,,,58,0
151680,note_on,0,0,0,,,,,,,,0,,,50,0
151680,note_on,0,0,0,,,,,,,,0,,,67,0
151680,note_on,0,0,0,,,,,,,,0,,,60,52
151680,note_on,0,0,0,,,,,,,,0,,,50,36
151680,note_on,0,0,0,,,,,,,,0,,,57,47
151694,control_change,14,0,0,,,,,,,,0,64,0,,
151737,control_change,43,0,0,,,,,,,,0,64,127,,
151760,note_on,23,0,0,,,,,,,,0,,,69,34
151760,note_on,0,0,0,,,,,,,,0,,,72,40
151840,note_on,80,0,0,,,,,,,,0,,,72,0
151840,note_on,0,0,0,,,,,,,,0,,,69,0
151840,note_on,0,0,0,,,,,,,,0,,,63,42
151920,note_on,80,0,0,,,,,,,,0,,,63,0
151920,note_on,0,0,0,,,,,,,,0,,,69,32
151920,note_on,0,0,0,,,,,,,,0,,,72,39
152000,note_on,80,0,0,,,,,,,,0,,,72,0
152000,note_on,0,0,0,,,,,,,,0,,,69,0
152000,note_on,0,0,0,,,,,,,,0,,,62,40
152080,note_on,80,0,0,,,,,,,,0,,,62,0
152080,note_on,0,0,0,,,,,,,,0,,,69,30
152080,note_on,0,0,0,,,,,,,,0,,,72,36
152158,note_on,78,0,0,,,,,,,,0,,,57,0
152160,set_tempo,2,1,0,,,,,,718735,,,,,,
152160,note_on,0,0,0,,,,,,,,0,,,69,0
152160,note_on,0,0,0,,,,,,,,0,,,60,0
152160,note_on,0,0,0,,,,,,,,0,,,50,0
152160,note_on,0,0,0,,,,,,,,0,,,72,0
152160,note_on,0,0,0,,,,,,,,0,,,57,50
152160,note_on,0,0,0,,,,,,,,0,,,50,34
152160,note_on,0,0,0,,,,,,,,0,,,54,41
152171,control_change,11,0,0,,,,,,,,0,64,0,,
152200,set_tempo,29,1,0,,,,,,718735,,,,,,
152220,control_change,20,0,0,,,,,,,,0,64,127,,
152240,note_on,20,0,0,,,,,,,,0,,,66,30
152240,note_on,0,0,0,,,,,,,,0,,,69,36
152280,set_tempo,40,1,0,,,,,,723240,,,,,,
152320,set_tempo,40,1,0,,,,,,727802,,,,,,
152320,note_on,0,0,0,,,,,,,,0,,,69,0
152320,note_on,0,0,0,,,,,,,,0,,,66,0
152320,note_on,0,0,0,,,,,,,,0,,,63,42
152400,set_tempo,80,1,0,,,,,,732422,,,,,,
152400,note_on,0,0,0,,,,,,,,0,,,63,0
152400,note_on,0,0,0,,,,,,,,0,,,66,27
152400,note_on,0,0,0,,,,,,,,0,,,69,36
152440,set_tempo,40,1,0,,,,,,737101,,,,,,
152480,set_tempo,40,1,0,,,,,,746733,,,,,,
152480,note_on,0,0,0,,,,,,,,0,,,69,0
152480,note_on,0,0,0,,,,,,,,0,,,66,0
152480,note_on,0,0,0,,,,,,,,0,,,62,41
152520,set_tempo,40,1,0,,,,,,756525,,,,,,
152560,set_tempo,40,1,0,,,,,,766675,,,,,,
152560,note_on,0,0,0,,,,,,,,0,,,62,0
152560,note_on,0,0,0,,,,,,,,0,,,66,28
152560,note_on,0,0,0,,,,,,,,0,,,69,34
152600,set_tempo,40,1,0,,,,,,723240,,,,,,
152640,set_tempo,40,1,0,,,,,,718735,,,,,,
152640,note_on,0,0,0,,,,,,,,0,,,69,0
152640,note_on,0,0,0,,,,,,,,0,,,54,0
152640,note_on,0,0,0,,,,,,,,0,,,57,0
152640,note_on,0,0,0,,,,,,,,0,,,50,0
152640,note_on,0,0,0,,,,,,,,0,,,66,0
152640,note_on,0,0,0,,,,,,,,0,,,58,45
152640,note_on,0,0,0,,,,,,,,0,,,31,36
152640,note_on,0,0,0,,,,,,,,0,,,43,44
152654,control_change,14,0,0,,,,,,,,0,64,0,,
152680,set_tempo,26,1,0,,,,,,714286,,,,,,
152697,control_change,17,0,0,,,,,,,,0,64,127,,
152720,set_tempo,23,1,0,,,,,,709807,,,,,,
152720,note_on,0,0,0,,,,,,,,0,,,67,30
152720,note_on,0,0,0,,,,,,,,0,,,70,36
152760,set_tempo,40,1,0,,,,,,701180,,,,,,
152800,set_tempo,40,1,0,,,,,,696945,,,,,,
152800,note_on,0,0,0,,,,,,,,0,,,70,0
152800,note_on,0,0,0,,,,,,,,0,,,67,0
152800,note_on,0,0,0,,,,,,,,0,,,61,38
152840,set_tempo,40,1,0,,,,,,692761,,,,,,
152880,set_tempo,40,1,0,,,,,,684463,,,,,,
152880,note_on,0,0,0,,,,,,,,0,,,61,0
152880,note_on,0,0,0,,,,,,,,0,,,67,29
152880,note_on,0,0,0,,,,,,,,0,,,70,36
152960,note_on,80,0,0,,,,,,,,0,,,70,0
152960,note_on,0,0,0,,,,,,,,0,,,67,0
152960,note_on,0,0,0,,,,,,,,0,,,62,37
153040,note_on,80,0,0,,,,,,,,0,,,62,0
153040,note_on,0,0,0,,,,,,,,0,,,67,29
153040,note_on,0,0,0,,,,,,,,0,,,70,36
153080,set_tempo,40,1,0,,,,,,696945,,,,,,
153118,note_on,38,0,0,,,,,,,,0,,,58,0
153120,set_tempo,2,1,0,,,,,,670391,,,,,,
153120,note_on,0,0,0,,,,,,,,0,,,67,0
153120,note_on,0,0,0,,,,,,,,0,,,31,0
153120,note_on,0,0,0,,,,,,,,0,,,43,0
153120,note_on,0,0,0,,,,,,,,0,,,70,0
153120,note_on,0,0,0,,,,,,,,0,,,62,48
153120,note_on,0,0,0,,,,,,,,0,,,50,34
153120,note_on,0,0,0,,,,,,,,0,,,55,34
153120,note_on,0,0,0,,,,,,,,0,,,58,40
153131,control_change,11,0,0,,,,,,,,0,64,0,,
153140,set_tempo,9,1,0,,,,,,666667,,,,,,
153160,set_tempo,20,1,0,,,,,,662983,,,,,,
153180,set_tempo,20,1,0,,,,,,659341,,,,,,
153180,control_change,0,0,0,,,,,,,,0,64,127,,
153200,set_tempo,20,1,0,,,,,,655738,,,,,,
153200,note_on,0,0,0,,,,,,,,0,,,70,30
153200,note_on,0,0,0,,,,,,,,0,,,74,36
153220,set_tempo,20,1,0,,,,,,652174,,,,,,
153240,set_tempo,20,1,0,,,,,,648649,,,,,,
153260,set_tempo,20,1,0,,,,,,645161,,,,,,
153280,set_tempo,20,1,0,,,,,,641711,,,,,,
153280,note_on,0,0,0,,,,,,,,0,,,74,0
153280,note_on,0,0,0,,,,,,,,0,,,70,0
153280,note_on,0,0,0,,,,,,,,0,,,66,43
153300,set_tempo,20,1,0,,,,,,638298,,,,,,
153320,set_tempo,20,1,0,,,,,,634921,,,,,,
153360,note_on,40,0,0,,,,,,,,0,,,66,0
153360,note_on,0,0,0,,,,,,,,0,,,70,28
153360,note_on,0,0,0,,,,,,,,0,,,74,36
153400,set_tempo,40,1,0,,,,,,638298,,,,,,
153440,note_on,40,0,0,,,,,,,,0,,,74,0
153440,note_on,0,0,0,,,,,,,,0,,,70,0
153440,note_on,0,0,0,,,,,,,,0,,,67,43
153480,set_tempo,40,1,0,,,,,,641711,,,,,,
153520,note_on,40,0,0,,,,,,,,0,,,67,0
153520,note_on,0,0,0,,,,,,,,0,,,70,31
153520,note_on,0,0,0,,,,,,,,0,,,74,36
153540,set_tempo,20,1,0,,,,,,645161,,,,,,
153598,note_on,58,0,0,,,,,,,,0,,,58,0
153600,set_tempo,2,1,0,,,,,,680426,,,,,,
153600,note_on,0,0,0,,,,,,,,0,,,50,0
153600,note_on,0,0,0,,,,,,,,0,,,55,0
153600,note_on,0,0,0,,,,,,,,0,,,62,0
153600,note_on,0,0,0,,,,,,,,0,,,74,0
153600,note_on,0,0,0,,,,,,,,0,,,70,0
153600,note_on,0,0,0,,,,,,,,0,,,58,50
153600,note_on,0,0,0,,,,,,,,0,,,31,40
153600,note_on,0,0,0,,,,,,,,0,,,43,47
153614,control_change,14,0,0,,,,,,,,0,64,0,,
153620,set_tempo,6,1,0,,,,,,674157,,,,,,
153657,control_change,37,0,0,,,,,,,,0,64,127,,
153680,note_on,23,0,0,,,,,,,,0,,,67,34
153680,note_on,0,0,0,,,,,,,,0,,,70,39
153700,set_tempo,20,1,0,,,,,,670391,,,,,,
153760,set_tempo,60,1,0,,,,,,666667,,,,,,
153760,note_on,0,0,0,,,,,,,,0,,,70,0
153760,note_on,0,0,0,,,,,,,,0,,,67,0
153760,note_on,0,0,0,,,,,,,,0,,,61,42
153840,set_tempo,80,1,0,,,,,,662983,,,,,,
153840,note_on,0,0,0,,,,,,,,0,,,61,0
153840,note_on,0,0,0,,,,,,,,0,,,67,33
153840,note_on,0,0,0,,,,,,,,0,,,70,40
153900,set_tempo,60,1,0,,,,,,659341,,,,,,
153920,note_on,20,0,0,,,,,,,,0,,,70,0
153920,note_on,0,0,0,,,,,,,,0,,,67,0
153920,note_on,0,0,0,,,,,,,,0,,,62,42
153980,set_tempo,60,1,0,,,,,,655738,,,,,,
154000,note_on,20,0,0,,,,,,,,0,,,62,0
154000,note_on,0,0,0,,,,,,,,0,,,67,33
154000,note_on,0,0,0,,,,,,,,0,,,70,39
154040,set_tempo,40,1,0,,,,,,652174,,,,,,
154078,note_on,38,0,0,,,,,,,,0,,,58,0
154080,note_on,2,0,0,,,,,,,,0,,,67,0
154080,note_on,0,0,0,,,,,,,,0,,,31,0
154080,note_on,0,0,0,,,,,,,,0,,,43,0
154080,note_on,0,0,0,,,,,,,,0,,,70,0
154080,note_on,0,0,0,,,,,,,,0,,,62,54
154080,note_on,0,0,0,,,,,,,,0,,,50,38
154080,note_on,0,0,0,,,,,,,,0,,,55,38
154080,note_on,0,0,0,,,,,,,,0,,,58,45
154091,control_change,11,0,0,,,,,,,,0,64,0,,
154100,set_tempo,9,1,0,,,,,,648649,,,,,,
154140,control_change,40,0,0,,,,,,,,0,64,127,,
154160,note_on,20,0,0,,,,,,,,0,,,70,34
154160,note_on,0,0,0,,,,,,,,0,,,74,41
154240,note_on,80,0,0,,,,,,,,0,,,74,0
154240,note_on,0,0,0,,,,,,,,0,,,70,0
154240,note_on,0,0,0,,,,,,,,0,,,66,46
154320,set_tempo,80,1,0,,,,,,701180,,,,,,
154320,note_on,0,0,0,,,,,,,,0,,,66,0
154320,note_on,0,0,0,,,,,,,,0,,,70,32
154320,note_on,0,0,0,,,,,,,,0,,,74,41
154400,note_on,80,0,0,,,,,,,,0,,,74,0
154400,note_on,0,0,0,,,,,,,,0,,,70,0
154400,note_on,0,0,0,,,,,,,,0,,,67,47
154480,note_on,80,0,0,,,,,,,,0,,,67,0
154480,note_on,0,0,0,,,,,,,,0,,,70,34
154480,note_on,0,0,0,,,,,,,,0,,,74,40
154560,set_tempo,80,1,0,,,,,,660866,,,,,,
154560,note_on,0,0,0,,,,,,,,0,,,74,0
154560,note_on,0,0,0,,,,,,,,0,,,50,0
154560,note_on,0,0,0,,,,,,,,0,,,55,0
154560,note_on,0,0,0,,,,,,,,0,,,62,0
154560,note_on,0,0,0,,,,,,,,0,,,70,0
154560,note_on,0,0,0,,,,,,,,0,,,58,0
154560,note_on,0,0,0,,,,,,,,0,,,62,55
154560,note_on,0,0,0,,,,,,,,0,,,31,44
154560,note_on,0,0,0,,,,,,,,0,,,43,53
154574,control_change,14,0,0,,,,,,,,0,64,0,,
154617,control_change,43,0,0,,,,,,,,0,64,127,,
154640,note_on,23,0,0,,,,,,,,0,,,71,36
154640,note_on,0,0,0,,,,,,,,0,,,74,43
154720,note_on,80,0,0,,,,,,,,0,,,74,0
154720,note_on,0,0,0,,,,,,,,0,,,71,0
154720,note_on,0,0,0,,,,,,,,0,,,66,47
154800,set_tempo,80,1,0,,,,,,631845,,,,,,
154800,note_on,0,0,0,,,,,,,,0,,,66,0
154800,note_on,0,0,0,,,,,,,,0,,,71,36
154800,note_on,0,0,0,,,,,,,,0,,,74,45
154880,note_on,80,0,0,,,,,,,,0,,,74,0
154880,note_on,0,0,0,,,,,,,,0,,,71,0
154880,note_on,0,0,0,,,,,,,,0,,,67,46
154960,note_on,80,0,0,,,,,,,,0,,,67,0
154960,note_on,0,0,0,,,,,,,,0,,,71,37
154960,note_on,0,0,0,,,,,,,,0,,,74,44
155038,note_on,78,0,0,,,,,,,,0,,,62,0
155040,note_on,2,0,0,,,,,,,,0,,,71,0
155040,note_on,0,0,0,,,,,,,,0,,,31,0
155040,note_on,0,0,0,,,,,,,,0,,,43,0
155040,note_on,0,0,0,,,,,,,,0,,,74,0
155040,note_on,0,0,0,,,,,,,,0,,,65,61
155040,note_on,0,0,0,,,,,,,,0,,,55,42
155040,note_on,0,0,0,,,,,,,,0,,,53,42
155040,note_on,0,0,0,,,,,,,,0,,,59,42
155040,note_on,0,0,0,,,,,,,,0,,,62,50
155051,control_change,11,0,0,,,,,,,,0,64,0,,
155100,control_change,49,0,0,,,,,,,,0,64,127,,
155120,note_on,20,0,0,,,,,,,,0,,,74,37
155120,note_on,0,0,0,,,,,,,,0,,,77,45
155200,note_on,80,0,0,,,,,,,,0,,,77,0
155200,note_on,0,0,0,,,,,,,,0,,,74,0
155200,note_on,0,0,0,,,,,,,,0,,,68,50
155280,set_tempo,80,1,0,,,,,,746733,,,,,,
155280,note_on,0,0,0,,,,,,,,0,,,68,0
155280,note_on,0,0,0,,,,,,,,0,,,74,36
155280,note_on,0,0,0,,,,,,,,0,,,77,45
155360,note_on,80,0,0,,,,,,,,0,,,77,0
155360,note_on,0,0,0,,,,,,,,0,,,74,0
155360,note_on,0,0,0,,,,,,,,0,,,67,52
155440,note_on,80,0,0,,,,,,,,0,,,67,0
155440,note_on,0,0,0,,,,,,,,0,,,74,37
155440,note_on,0,0,0,,,,,,,,0,,,77,45
155520,set_tempo,80,1,0,,,,,,641711,,,,,,
155520,note_on,0,0,0,,,,,,,,0,,,77,0
155520,note_on,0,0,0,,,,,,,,0,,,62,0
155520,note_on,0,0,0,,,,,,,,0,,,55,0
155520,note_on,0,0,0,,,,,,,,0,,,53,0
155520,note_on,0,0,0,,,,,,,,0,,,65,0
155520,note_on,0,0,0,,,,,,,,0,,,74,0
155520,note_on,0,0,0,,,,,,,,0,,,59,0
155520,note_on,0,0,0,,,,,,,,0,,,67,62
155520,note_on,0,0,0,,,,,,,,0,,,31,50
155520,note_on,0,0,0,,,,,,,,0,,,43,60
155534,control_change,14,0,0,,,,,,,,0,64,0,,
155577,control_change,43,0,0,,,,,,,,0,64,127,,
155600,note_on,23,0,0,,,,,,,,0,,,75,41
155600,note_on,0,0,0,,,,,,,,0,,,79,49
155680,note_on,80,0,0,,,,,,,,0,,,79,0
155680,note_on,0,0,0,,,,,,,,0,,,75,0
155680,note_on,0,0,0,,,,,,,,0,,,71,52
155760,note_on,80,0,0,,,,,,,,0,,,71,0
155760,note_on,0,0,0,,,,,,,,0,,,75,40
155760,note_on,0,0,0,,,,,,,,0,,,79,49
155840,note_on,80,0,0,,,,,,,,0,,,79,0
155840,note_on,0,0,0,,,,,,,,0,,,75,0
155840,note_on,0,0,0,,,,,,,,0,,,72,50
155920,note_on,80,0,0,,,,,,,,0,,,72,0
155920,note_on,0,0,0,,,,,,,,0,,,75,39
155920,note_on,0,0,0,,,,,,,,0,,,79,46
156000,set_tempo,80,1,0,,,,,,648649,,,,,,
156000,note_on,0,0,0,,,,,,,,0,,,79,0
156000,note_on,0,0,0,,,,,,,,0,,,43,0
156000,note_on,0,0,0,,,,,,,,0,,,67,0
156000,note_on,0,0,0,,,,,,,,0,,,31,0
156000,note_on,0,0,0,,,,,,,,0,,,75,0
156000,note_on,0,0,0,,,,,,,,0,,,63,63
156000,note_on,0,0,0,,,,,,,,0,,,51,45
156000,note_on,0,0,0,,,,,,,,0,,,55,45
156000,note_on,0,0,0,,,,,,,,0,,,60,53
156011,control_change,11,0,0,,,,,,,,0,64,0,,
156040,set_tempo,29,1,0,,,,,,652174,,,,,,
156060,set_tempo,20,1,0,,,,,,655738,,,,,,
156060,control_change,0,0,0,,,,,,,,0,64,127,,
156080,note_on,20,0,0,,,,,,,,0,,,72,39
156080,note_on,0,0,0,,,,,,,,0,,,75,46
156100,set_tempo,20,1,0,,,,,,659341,,,,,,
156120,set_tempo,20,1,0,,,,,,662983,,,,,,
156160,set_tempo,40,1,0,,,,,,666667,,,,,,
156160,note_on,0,0,0,,,,,,,,0,,,75,0
156160,note_on,0,0,0,,,,,,,,0,,,72,0
156160,note_on,0,0,0,,,,,,,,0,,,66,52
156180,set_tempo,20,1,0,,,,,,670391,,,,,,
156240,set_tempo,60,1,0,,,,,,709807,,,,,,
156240,note_on,0,0,0,,,,,,,,0,,,66,0
156240,note_on,0,0,0,,,,,,,,0,,,72,36
156240,note_on,0,0,0,,,,,,,,0,,,75,45
156320,note_on,80,0,0,,,,,,,,0,,,75,0
156320,note_on,0,0,0,,,,,,,,0,,,72,0
156320,note_on,0,0,0,,,,,,,,0,,,67,50
156400,note_on,80,0,0,,,,,,,,0,,,67,0
156400,note_on,0,0,0,,,,,,,,0,,,72,37
156400,note_on,0,0,0,,,,,,,,0,,,75,45
156480,set_tempo,80,1,0,,,,,,680426,,,,,,
156480,note_on,0,0,0,,,,,,,,0,,,75,0
156480,note_on,0,0,0,,,,,,,,0,,,51,0
156480,note_on,0,0,0,,,,,,,,0,,,55,0
156480,note_on,0,0,0,,,,,,,,0,,,63,0
156480,note_on,0,0,0,,,,,,,,0,,,72,0
156480,note_on,0,0,0,,,,,,,,0,,,60,0
156480,note_on,0,0,0,,,,,,,,0,,,62,58
156480,note_on,0,0,0,,,,,,,,0,,,38,55
156494,control_change,14,0,0,,,,,,,,0,64,0,,
156537,control_change,43,0,0,,,,,,,,0,64,127,,
156560,note_on,23,0,0,,,,,,,,0,,,70,37
156560,note_on,0,0,0,,,,,,,,0,,,74,45
156640,note_on,80,0,0,,,,,,,,0,,,74,0
156640,note_on,0,0,0,,,,,,,,0,,,70,0
156640,note_on,0,0,0,,,,,,,,0,,,66,48
156720,note_on,80,0,0,,,,,,,,0,,,66,0
156720,note_on,0,0,0,,,,,,,,0,,,70,36
156720,note_on,0,0,0,,,,,,,,0,,,74,44
156800,note_on,80,0,0,,,,,,,,0,,,74,0
156800,note_on,0,0,0,,,,,,,,0,,,70,0
156800,note_on,0,0,0,,,,,,,,0,,,67,45
156880,note_on,80,0,0,,,,,,,,0,,,67,0
156880,note_on,0,0,0,,,,,,,,0,,,70,36
156880,note_on,0,0,0,,,,,,,,0,,,74,42
156960,set_tempo,80,1,0,,,,,,696945,,,,,,
156960,note_on,0,0,0,,,,,,,,0,,,74,0
156960,note_on,0,0,0,,,,,,,,0,,,62,0
156960,note_on,0,0,0,,,,,,,,0,,,38,0
156960,note_on,0,0,0,,,,,,,,0,,,70,0
156960,note_on,0,0,0,,,,,,,,0,,,58,56
156960,note_on,0,0,0,,,,,,,,0,,,50,39
156960,note_on,0,0,0,,,,,,,,0,,,55,46
156971,control_change,11,0,0,,,,,,,,0,64,0,,
157020,control_change,49,0,0,,,,,,,,0,64,127,,
157040,note_on,20,0,0,,,,,,,,0,,,67,34
157040,note_on,0,0,0,,,,,,,,0,,,70,41
157120,note_on,80,0,0,,,,,,,,0,,,70,0
157120,note_on,0,0,0,,,,,,,,0,,,67,0
157120,note_on,0,0,0,,,,,,,,0,,,61,47
157200,set_tempo,80,1,0,,,,,,746733,,,,,,
157200,note_on,0,0,0,,,,,,,,0,,,61,0
157200,note_on,0,0,0,,,,,,,,0,,,67,32
157200,note_on,0,0,0,,,,,,,,0,,,70,41
157280,note_on,80,0,0,,,,,,,,0,,,70,0
157280,note_on,0,0,0,,,,,,,,0,,,67,0
157280,note_on,0,0,0,,,,,,,,0,,,62,47
157360,note_on,80,0,0,,,,,,,,0,,,62,0
157360,note_on,0,0,0,,,,,,,,0,,,67,32
157360,note_on,0,0,0,,,,,,,,0,,,70,38
157440,set_tempo,80,1,0,,,,,,705467,,,,,,
157440,note_on,0,0,0,,,,,,,,0,,,70,0
157440,note_on,0,0,0,,,,,,,,0,,,55,0
157440,note_on,0,0,0,,,,,,,,0,,,58,0
157440,note_on,0,0,0,,,,,,,,0,,,50,0
157440,note_on,0,0,0,,,,,,,,0,,,67,0
157440,note_on,0,0,0,,,,,,,,0,,,60,52
157440,note_on,0,0,0,,,,,,,,0,,,50,36
157440,note_on,0,0,0,,,,,,,,0,,,57,47
157454,control_change,14,0,0,,,,,,,,0,64,0,,
157497,control_change,43,0,0,,,,,,,,0,64,127,,
157520,note_on,23,0,0,,,,,,,,0,,,69,34
157520,note_on,0,0,0,,,,,,,,0,,,72,40
157600,note_on,80,0,0,,,,,,,,0,,,72,0
157600,note_on,0,0,0,,,,,,,,0,,,69,0
157600,note_on,0,0,0,,,,,,,,0,,,63,42
157680,note_on,80,0,0,,,,,,,,0,,,63,0
157680,note_on,0,0,0,,,,,,,,0,,,69,32
157680,note_on,0,0,0,,,,,,,,0,,,72,39
157760,note_on,80,0,0,,,,,,,,0,,,72,0
157760,note_on,0,0,0,,,,,,,,0,,,69,0
157760,note_on,0,0,0,,,,,,,,0,,,62,40
157840,note_on,80,0,0,,,,,,,,0,,,62,0
157840,note_on,0,0,0,,,,,,,,0,,,69,30
157840,note_on,0,0,0,,,,,,,,0,,,72,36
157918,note_on,78,0,0,,,,,,,,0,,,57,0
157920,set_tempo,2,1,0,,,,,,718735,,,,,,
157920,note_on,0,0,0,,,,,,,,0,,,69,0
157920,note_on,0,0,0,,,,,,,,0,,,60,0
157920,note_on,0,0,0,,,,,,,,0,,,50,0
157920,note_on,0,0,0,,,,,,,,0,,,72,0
157920,note_on,0,0,0,,,,,,,,0,,,57,50
157920,note_on,0,0,0,,,,,,,,0,,,50,34
157920,note_on,0,0,0,,,,,,,,0,,,54,41
157931,control_change,11,0,0,,,,,,,,0,64,0,,
157980,control_change,49,0,0,,,,,,,,0,64,127,,
158000,note_on,20,0,0,,,,,,,,0,,,66,30
158000,note_on,0,0,0,,,,,,,,0,,,69,36
158080,note_on,80,0,0,,,,,,,,0,,,69,0
158080,note_on,0,0,0,,,,,,,,0,,,66,0
158080,note_on,0,0,0,,,,,,,,0,,,63,42
158160,note_on,80,0,0,,,,,,,,0,,,63,0
158160,note_on,0,0,0,,,,,,,,0,,,66,27
158160,note_on,0,0,0,,,,,,,,0,,,69,36
158240,note_on,80,0,0,,,,,,,,0,,,69,0
158240,note_on,0,0,0,,,,,,,,0,,,66,0
158240,note_on,0,0,0,,,,,,,,0,,,62,41
158320,note_on,80,0,0,,,,,,,,0,,,62,0
158320,note_on,0,0,0,,,,,,,,0,,,66,28
158320,note_on,0,0,0,,,,,,,,0,,,69,34
158400,set_tempo,80,1,0,,,,,,684463,,,,,,
158400,note_on,0,0,0,,,,,,,,0,,,69,0
158400,note_on,0,0,0,,,,,,,,0,,,54,0
158400,note_on,0,0,0,,,,,,,,0,,,57,0
158400,note_on,0,0,0,,,,,,,,0,,,50,0
158400,note_on,0,0,0,,,,,,,,0,,,66,0
158400,note_on,0,0,0,,,,,,,,0,,,62,51
158400,note_on,0,0,0,,,,,,,,0,,,67,51
158400,note_on,0,0,0,,,,,,,,0,,,58,45
158414,control_change,14,0,0,,,,,,,,0,64,0,,
158446,control_change,32,0,0,,,,,,,,0,64,127,,
158480,note_on,34,0,0,,,,,,,,0,,,58,0
158480,note_on,0,0,0,,,,,,,,0,,,55,39
158560,note_on,80,0,0,,,,,,,,0,,,55,0
158560,note_on,0,0,0,,,,,,,,0,,,58,44
158640,note_on,80,0,0,,,,,,,,0,,,58,0
158640,note_on,0,0,0,,,,,,,,0,,,55,41
158720,note_on,80,0,0,,,,,,,,0,,,55,0
158720,note_on,0,0,0,,,,,,,,0,,,58,49
158800,note_on,80,0,0,,,,,,,,0,,,58,0
158800,note_on,0,0,0,,,,,,,,0,,,55,46
158860,set_tempo,60,1,0,,,,,,670391,,,,,,
158880,note_on,20,0,0,,,,,,,,0,,,55,0
158880,note_on,0,0,0,,,,,,,,0,,,67,0
158880,note_on,0,0,0,,,,,,,,0,,,62,0
158880,note_on,0,0,0,,,,,,,,0,,,62,56
158880,note_on,0,0,0,,,,,,,,0,,,65,56
158880,note_on,0,0,0,,,,,,,,0,,,59,53
158892,control_change,12,0,0,,,,,,,,0,64,0,,
158915,control_change,23,0,0,,,,,,,,0,64,127,,
158960,note_on,45,0,0,,,,,,,,0,,,59,0
158960,note_on,0,0,0,,,,,,,,0,,,55,47
159000,set_tempo,40,1,0,,,,,,666667,,,,,,
159040,note_on,40,0,0,,,,,,,,0,,,55,0
159040,note_on,0,0,0,,,,,,,,0,,,59,53
159120,set_tempo,80,1,0,,,,,,662983,,,,,,
159120,note_on,0,0,0,,,,,,,,0,,,59,0
159120,note_on,0,0,0,,,,,,,,0,,,55,50
159200,note_on,80,0,0,,,,,,,,0,,,55,0
159200,note_on,0,0,0,,,,,,,,0,,,59,54
159240,set_tempo,40,1,0,,,,,,659341,,,,,,
159280,note_on,40,0,0,,,,,,,,0,,,59,0
159280,note_on,0,0,0,,,,,,,,0,,,55,50
159320,set_tempo,40,1,0,,,,,,662983,,,,,,
159360,note_on,40,0,0,,,,,,,,0,,,55,0
159360,note_on,0,0,0,,,,,,,,0,,,65,0
159360,note_on,0,0,0,,,,,,,,0,,,62,0
159360,note_on,0,0,0,,,,,,,,0,,,64,62
159360,note_on,0,0,0,,,,,,,,0,,,60,59
159370,control_change,10,0,0,,,,,,,,0,64,0,,
159423,control_change,53,0,0,,,,,,,,0,64,127,,
159440,note_on,17,0,0,,,,,,,,0,,,60,0
159440,note_on,0,0,0,,,,,,,,0,,,55,52
159460,set_tempo,20,1,0,,,,,,659341,,,,,,
159520,note_on,60,0,0,,,,,,,,0,,,55,0
159520,note_on,0,0,0,,,,,,,,0,,,60,54
159580,set_tempo,60,1,0,,,,,,655738,,,,,,
159600,note_on,20,0,0,,,,,,,,0,,,60,0
159600,note_on,0,0,0,,,,,,,,0,,,55,45
159680,note_on,80,0,0,,,,,,,,0,,,55,0
159680,note_on,0,0,0,,,,,,,,0,,,60,51
159720,set_tempo,40,1,0,,,,,,652174,,,,,,
159760,note_on,40,0,0,,,,,,,,0,,,60,0
159760,note_on,0,0,0,,,,,,,,0,,,55,44
159840,set_tempo,80,1,0,,,,,,648649,,,,,,
159840,note_on,0,0,0,,,,,,,,0,,,55,0
159840,note_on,0,0,0,,,,,,,,0,,,64,0
159840,note_on,0,0,0,,,,,,,,0,,,91,72
159840,note_on,0,0,0,,,,,,,,0,,,79,62
159840,note_on,0,0,0,,,,,,,,0,,,63,58
159840,note_on,0,0,0,,,,,,,,0,,,60,64
159862,control_change,22,0,0,,,,,,,,0,64,0,,
159897,control_change,35,0,0,,,,,,,,0,64,127,,
159920,note_on,23,0,0,,,,,,,,0,,,60,0
159920,note_on,0,0,0,,,,,,,,0,,,55,50
160000,note_on,80,0,0,,,,,,,,0,,,55,0
160000,note_on,0,0,0,,,,,,,,0,,,60,60
160080,note_on,80,0,0,,,,,,,,0,,,60,0
160080,note_on,0,0,0,,,,,,,,0,,,55,50
160160,note_on,80,0,0,,,,,,,,0,,,55,0
160160,note_on,0,0,0,,,,,,,,0,,,60,56
160200,set_tempo,40,1,0,,,,,,746733,,,,,,
160240,note_on,40,0,0,,,,,,,,0,,,60,0
160240,note_on,0,0,0,,,,,,,,0,,,55,46
160320,set_tempo,80,1,0,,,,,,660866,,,,,,
160320,note_on,0,0,0,,,,,,,,0,,,91,0
160320,note_on,0,0,0,,,,,,,,0,,,63,0
160320,note_on,0,0,0,,,,,,,,0,,,79,0
160320,note_on,0,0,0,,,,,,,,0,,,78,59
160320,note_on,0,0,0,,,,,,,,0,,,90,70
160320,note_on,0,0,0,,,,,,,,0,,,66,58
160320,note_on,0,0,0,,,,,,,,0,,,57,51
160320,note_on,0,0,0,,,,,,,,0,,,63,63
160326,control_change,6,0,0,,,,,,,,0,64,0,,
160354,control_change,28,0,0,,,,,,,,0,64,127,,
160400,note_on,46,0,0,,,,,,,,0,,,63,0
160400,note_on,0,0,0,,,,,,,,0,,,60,48
160480,note_on,80,0,0,,,,,,,,0,,,60,0
160480,note_on,0,0,0,,,,,,,,0,,,63,56
160560,note_on,80,0,0,,,,,,,,0,,,63,0
160560,note_on,0,0,0,,,,,,,,0,,,60,48
160640,note_on,80,0,0,,,,,,,,0,,,60,0
160640,note_on,0,0,0,,,,,,,,0,,,63,54
160720,note_on,80,0,0,,,,,,,,0,,,63,0
160720,note_on,0,0,0,,,,,,,,0,,,60,45
160800,note_on,80,0,0,,,,,,,,0,,,60,0
160800,note_on,0,0,0,,,,,,,,0,,,63,52
160880,note_on,80,0,0,,,,,,,,0,,,63,0
160880,note_on,0,0,0,,,,,,,,0,,,60,39
160960,note_on,80,0,0,,,,,,,,0,,,60,0
160960,note_on,0,0,0,,,,,,,,0,,,63,47
161040,set_tempo,80,1,0,,,,,,680426,,,,,,
161040,note_on,0,0,0,,,,,,,,0,,,63,0
161040,note_on,0,0,0,,,,,,,,0,,,78,0
161040,note_on,0,0,0,,,,,,,,0,,,90,0
161040,note_on,0,0,0,,,,,,,,0,,,75,57
161040,note_on,0,0,0,,,,,,,,0,,,87,67
161040,note_on,0,0,0,,,,,,,,0,,,60,38
161120,note_on,80,0,0,,,,,,,,0,,,60,0
161120,note_on,0,0,0,,,,,,,,0,,,63,45
161200,note_on,80,0,0,,,,,,,,0,,,63,0
161200,note_on,0,0,0,,,,,,,,0,,,60,37
161280,set_tempo,80,1,0,,,,,,684463,,,,,,
161280,note_on,0,0,0,,,,,,,,0,,,60,0
161280,note_on,0,0,0,,,,,,,,0,,,66,0
161280,note_on,0,0,0,,,,,,,,0,,,55,0
161280,note_on,0,0,0,,,,,,,,0,,,57,0
161280,note_on,0,0,0,,,,,,,,0,,,87,0
161280,note_on,0,0,0,,,,,,,,0,,,75,0
161280,note_on,0,0,0,,,,,,,,0,,,74,50
161280,note_on,0,0,0,,,,,,,,0,,,86,60
161280,note_on,0,0,0,,,,,,,,0,,,62,51
161280,note_on,0,0,0,,,,,,,,0,,,67,51
161280,note_on,0,0,0,,,,,,,,0,,,58,45
161294,control_change,14,0,0,,,,,,,,0,64,0,,
161326,control_change,32,0,0,,,,,,,,0,64,127,,
161360,note_on,34,0,0,,,,,,,,0,,,58,0
161360,note_on,0,0,0,,,,,,,,0,,,55,39
161440,note_on,80,0,0,,,,,,,,0,,,55,0
161440,note_on,0,0,0,,,,,,,,0,,,58,44
161520,note_on,80,0,0,,,,,,,,0,,,58,0
161520,note_on,0,0,0,,,,,,,,0,,,55,41
161600,note_on,80,0,0,,,,,,,,0,,,55,0
161600,note_on,0,0,0,,,,,,,,0,,,58,49
161680,note_on,80,0,0,,,,,,,,0,,,58,0
161680,note_on,0,0,0,,,,,,,,0,,,55,46
161760,set_tempo,80,1,0,,,,,,672495,,,,,,
161760,note_on,0,0,0,,,,,,,,0,,,55,0
161760,note_on,0,0,0,,,,,,,,0,,,67,0
161760,note_on,0,0,0,,,,,,,,0,,,74,0
161760,note_on,0,0,0,,,,,,,,0,,,86,0
161760,note_on,0,0,0,,,,,,,,0,,,62,0
161760,note_on,0,0,0,,,,,,,,0,,,62,56
161760,note_on,0,0,0,,,,,,,,0,,,65,56
161760,note_on,0,0,0,,,,,,,,0,,,59,53
161772,control_change,12,0,0,,,,,,,,0,64,0,,
161780,set_tempo,8,1,0,,,,,,670391,,,,,,
161795,control_change,15,0,0,,,,,,,,0,64,127,,
161840,note_on,45,0,0,,,,,,,,0,,,59,0
161840,note_on,0,0,0,,,,,,,,0,,,55,47
161880,set_tempo,40,1,0,,,,,,666667,,,,,,
161920,note_on,40,0,0,,,,,,,,0,,,55,0
161920,note_on,0,0,0,,,,,,,,0,,,59,53
161980,set_tempo,60,1,0,,,,,,662983,,,,,,
162000,note_on,20,0,0,,,,,,,,0,,,59,0
162000,note_on,0,0,0,,,,,,,,0,,,55,50
162060,set_tempo,60,1,0,,,,,,659341,,,,,,
162080,note_on,20,0,0,,,,,,,,0,,,55,0
162080,note_on,0,0,0,,,,,,,,0,,,59,54
162160,set_tempo,80,1,0,,,,,,655738,,,,,,
162160,note_on,0,0,0,,,,,,,,0,,,59,0
162160,note_on,0,0,0,,,,,,,,0,,,55,50
162240,set_tempo,80,1,0,,,,,,655738,,,,,,
162240,note_on,0,0,0,,,,,,,,0,,,55,0
162240,note_on,0,0,0,,,,,,,,0,,,65,0
162240,note_on,0,0,0,,,,,,,,0,,,62,0
162240,note_on,0,0,0,,,,,,,,0,,,64,62
162240,note_on,0,0,0,,,,,,,,0,,,60,59
162250,control_change,10,0,0,,,,,,,,0,64,0,,
162303,control_change,53,0,0,,,,,,,,0,64,127,,
162320,note_on,17,0,0,,,,,,,,0,,,60,0
162320,note_on,0,0,0,,,,,,,,0,,,55,52
162400,set_tempo,80,1,0,,,,,,652174,,,,,,
162400,note_on,0,0,0,,,,,,,,0,,,55,0
162400,note_on,0,0,0,,,,,,,,0,,,60,54
162480,note_on,80,0,0,,,,,,,,0,,,60,0
162480,note_on,0,0,0,,,,,,,,0,,,55,45
162560,set_tempo,80,1,0,,,,,,648649,,,,,,
162560,note_on,0,0,0,,,,,,,,0,,,55,0
162560,note_on,0,0,0,,,,,,,,0,,,60,51
162640,note_on,80,0,0,,,,,,,,0,,,60,0
162640,note_on,0,0,0,,,,,,,,0,,,55,44
162720,set_tempo,80,1,0,,,,,,645161,,,,,,
162720,note_on,0,0,0,,,,,,,,0,,,55,0
162720,note_on,0,0,0,,,,,,,,0,,,64,0
162720,note_on,0,0,0,,,,,,,,0,,,67,59
162720,note_on,0,0,0,,,,,,,,0,,,79,70
162720,note_on,0,0,0,,,,,,,,0,,,63,58
162720,note_on,0,0,0,,,,,,,,0,,,60,64
162743,control_change,23,0,0,,,,,,,,0,64,0,,
162777,control_change,34,0,0,,,,,,,,0,64,127,,
162800,note_on,23,0,0,,,,,,,,0,,,60,0
162800,note_on,0,0,0,,,,,,,,0,,,55,50
162880,note_on,80,0,0,,,,,,,,0,,,55,0
162880,note_on,0,0,0,,,,,,,,0,,,60,60
162960,note_on,80,0,0,,,,,,,,0,,,60,0
162960,note_on,0,0,0,,,,,,,,0,,,55,50
163040,note_on,80,0,0,,,,,,,,0,,,55,0
163040,note_on,0,0,0,,,,,,,,0,,,60,56
163080,set_tempo,40,1,0,,,,,,746733,,,,,,
163120,note_on,40,0,0,,,,,,,,0,,,60,0
163120,note_on,0,0,0,,,,,,,,0,,,55,46
163200,set_tempo,80,1,0,,,,,,660866,,,,,,
163200,note_on,0,0,0,,,,,,,,0,,,67,0
163200,note_on,0,0,0,,,,,,,,0,,,63,0
163200,note_on,0,0,0,,,,,,,,0,,,79,0
163200,note_on,0,0,0,,,,,,,,0,,,66,56
163200,note_on,0,0,0,,,,,,,,0,,,78,67
163200,note_on,0,0,0,,,,,,,,0,,,57,63
163206,control_change,6,0,0,,,,,,,,0,64,0,,
163234,control_change,28,0,0,,,,,,,,0,64,127,,
163280,note_on,46,0,0,,,,,,,,0,,,57,0
163280,note_on,0,0,0,,,,,,,,0,,,60,48
163360,note_on,80,0,0,,,,,,,,0,,,60,0
163360,note_on,0,0,0,,,,,,,,0,,,57,56
163440,note_on,80,0,0,,,,,,,,0,,,57,0
163440,note_on,0,0,0,,,,,,,,0,,,60,48
163520,note_on,80,0,0,,,,,,,,0,,,60,0
163520,note_on,0,0,0,,,,,,,,0,,,57,54
163600,note_on,80,0,0,,,,,,,,0,,,57,0
163600,note_on,0,0,0,,,,,,,,0,,,60,45
163680,note_on,80,0,0,,,,,,,,0,,,60,0
163680,note_on,0,0,0,,,,,,,,0,,,57,52
163760,note_on,80,0,0,,,,,,,,0,,,57,0
163760,note_on,0,0,0,,,,,,,,0,,,60,39
163840,note_on,80,0,0,,,,,,,,0,,,60,0
163840,note_on,0,0,0,,,,,,,,0,,,57,47
163920,set_tempo,80,1,0,,,,,,680426,,,,,,
163920,note_on,0,0,0,,,,,,,,0,,,57,0
163920,note_on,0,0,0,,,,,,,,0,,,78,0
163920,note_on,0,0,0,,,,,,,,0,,,66,0
163920,note_on,0,0,0,,,,,,,,0,,,63,54
163920,note_on,0,0,0,,,,,,,,0,,,75,64
163920,note_on,0,0,0,,,,,,,,0,,,60,38
164000,note_on,80,0,0,,,,,,,,0,,,60,0
164000,note_on,0,0,0,,,,,,,,0,,,57,45
164080,note_on,80,0,0,,,,,,,,0,,,57,0
164080,note_on,0,0,0,,,,,,,,0,,,60,37
164160,set_tempo,80,1,0,,,,,,705467,,,,,,
164160,note_on,0,0,0,,,,,,,,0,,,60,0
164160,note_on,0,0,0,,,,,,,,0,,,55,0
164160,note_on,0,0,0,,,,,,,,0,,,63,0
164160,note_on,0,0,0,,,,,,,,0,,,75,0
164160,note_on,0,0,0,,,,,,,,0,,,74,60
164160,note_on,0,0,0,,,,,,,,0,,,62,50
164160,note_on,0,0,0,,,,,,,,0,,,55,51
164160,note_on,0,0,0,,,,,,,,0,,,46,45
164174,control_change,14,0,0,,,,,,,,0,64,0,,
164206,control_change,32,0,0,,,,,,,,0,64,127,,
164240,note_on,34,0,0,,,,,,,,0,,,46,0
164240,note_on,0,0,0,,,,,,,,0,,,43,39
164320,note_on,80,0,0,,,,,,,,0,,,43,0
164320,note_on,0,0,0,,,,,,,,0,,,46,44
164400,note_on,80,0,0,,,,,,,,0,,,46,0
164400,note_on,0,0,0,,,,,,,,0,,,43,41
164480,note_on,80,0,0,,,,,,,,0,,,43,0
164480,note_on,0,0,0,,,,,,,,0,,,46,49
164560,note_on,80,0,0,,,,,,,,0,,,46,0
164560,note_on,0,0,0,,,,,,,,0,,,43,46
164640,set_tempo,80,1,0,,,,,,692761,,,,,,
164640,note_on,0,0,0,,,,,,,,0,,,43,0
164640,note_on,0,0,0,,,,,,,,0,,,55,0
164640,note_on,0,0,0,,,,,,,,0,,,62,0
164640,note_on,0,0,0,,,,,,,,0,,,74,0
164640,note_on,0,0,0,,,,,,,,0,,,74,70
164640,note_on,0,0,0,,,,,,,,0,,,67,59
164640,note_on,0,0,0,,,,,,,,0,,,62,59
164640,note_on,0,0,0,,,,,,,,0,,,53,56
164640,note_on,0,0,0,,,,,,,,0,,,47,53
164652,control_change,12,0,0,,,,,,,,0,64,0,,
164675,control_change,23,0,0,,,,,,,,0,64,127,,
164720,note_on,45,0,0,,,,,,,,0,,,47,0
164720,note_on,0,0,0,,,,,,,,0,,,43,47
164800,note_on,80,0,0,,,,,,,,0,,,43,0
164800,note_on,0,0,0,,,,,,,,0,,,47,53
164880,note_on,80,0,0,,,,,,,,0,,,47,0
164880,note_on,0,0,0,,,,,,,,0,,,43,50
164960,note_on,80,0,0,,,,,,,,0,,,43,0
164960,note_on,0,0,0,,,,,,,,0,,,47,54
165040,note_on,80,0,0,,,,,,,,0,,,47,0
165040,note_on,0,0,0,,,,,,,,0,,,43,50
165120,set_tempo,80,1,0,,,,,,676437,,,,,,
165120,note_on,0,0,0,,,,,,,,0,,,43,0
165120,note_on,0,0,0,,,,,,,,0,,,53,0
165120,note_on,0,0,0,,,,,,,,0,,,74,0
165120,note_on,0,0,0,,,,,,,,0,,,67,0
165120,note_on,0,0,0,,,,,,,,0,,,62,0
165120,note_on,0,0,0,,,,,,,,0,,,67,56
165120,note_on,0,0,0,,,,,,,,0,,,74,67
165120,note_on,0,0,0,,,,,,,,0,,,62,56
165120,note_on,0,0,0,,,,,,,,0,,,55,62
165120,note_on,0,0,0,,,,,,,,0,,,52,59
165130,control_change,10,0,0,,,,,,,,0,64,0,,
165183,control_change,53,0,0,,,,,,,,0,64,127,,
165200,note_on,17,0,0,,,,,,,,0,,,52,0
165200,note_on,0,0,0,,,,,,,,0,,,43,52
165240,set_tempo,40,1,0,,,,,,672495,,,,,,
165280,note_on,40,0,0,,,,,,,,0,,,43,0
165280,note_on,0,0,0,,,,,,,,0,,,52,54
165360,set_tempo,80,1,0,,,,,,668598,,,,,,
165360,note_on,0,0,0,,,,,,,,0,,,52,0
165360,note_on,0,0,0,,,,,,,,0,,,43,46
165440,note_on,80,0,0,,,,,,,,0,,,43,0
165440,note_on,0,0,0,,,,,,,,0,,,52,52
165480,set_tempo,40,1,0,,,,,,664673,,,,,,
165520,note_on,40,0,0,,,,,,,,0,,,52,0
165520,note_on,0,0,0,,,,,,,,0,,,43,45
165600,note_on,80,0,0,,,,,,,,0,,,43,0
165600,note_on,0,0,0,,,,,,,,0,,,52,52
165680,note_on,80,0,0,,,,,,,,0,,,52,0
165680,note_on,0,0,0,,,,,,,,0,,,43,41
165760,note_on,80,0,0,,,,,,,,0,,,43,0
165760,note_on,0,0,0,,,,,,,,0,,,52,50
165840,note_on,80,0,0,,,,,,,,0,,,52,0
165840,note_on,0,0,0,,,,,,,,0,,,43,43
165920,note_on,80,0,0,,,,,,,,0,,,43,0
165920,note_on,0,0,0,,,,,,,,0,,,52,50
166000,note_on,80,0,0,,,,,,,,0,,,52,0
166000,note_on,0,0,0,,,,,,,,0,,,43,41
166080,set_tempo,80,1,0,,,,,,688547,,,,,,
166080,note_on,0,0,0,,,,,,,,0,,,43,0
166080,note_on,0,0,0,,,,,,,,0,,,55,0
166080,note_on,0,0,0,,,,,,,,0,,,55,63
166080,note_on,0,0,0,,,,,,,,0,,,51,57
166086,control_change,6,0,0,,,,,,,,0,64,0,,
166114,control_change,28,0,0,,,,,,,,0,64,127,,
166160,note_on,46,0,0,,,,,,,,0,,,51,0
166160,note_on,0,0,0,,,,,,,,0,,,43,45
166240,note_on,80,0,0,,,,,,,,0,,,43,0
166240,note_on,0,0,0,,,,,,,,0,,,51,53
166320,note_on,80,0,0,,,,,,,,0,,,51,0
166320,note_on,0,0,0,,,,,,,,0,,,43,46
166400,note_on,80,0,0,,,,,,,,0,,,43,0
166400,note_on,0,0,0,,,,,,,,0,,,51,54
166480,note_on,80,0,0,,,,,,,,0,,,51,0
166480,note_on,0,0,0,,,,,,,,0,,,43,45
166560,set_tempo,80,1,0,,,,,,714286,,,,,,
166560,note_on,0,0,0,,,,,,,,0,,,43,0
166560,note_on,0,0,0,,,,,,,,0,,,67,0
166560,note_on,0,0,0,,,,,,,,0,,,62,0
166560,note_on,0,0,0,,,,,,,,0,,,74,0
166560,note_on,0,0,0,,,,,,,,0,,,67,63
166560,note_on,0,0,0,,,,,,,,0,,,72,73
166560,note_on,0,0,0,,,,,,,,0,,,60,63
166560,note_on,0,0,0,,,,,,,,0,,,51,54
166640,note_on,80,0,0,,,,,,,,0,,,51,0
166640,note_on,0,0,0,,,,,,,,0,,,43,42
166720,note_on,80,0,0,,,,,,,,0,,,43,0
166720,note_on,0,0,0,,,,,,,,0,,,51,52
166800,note_on,80,0,0,,,,,,,,0,,,51,0
166800,note_on,0,0,0,,,,,,,,0,,,43,42
166880,note_on,80,0,0,,,,,,,,0,,,43,0
166880,note_on,0,0,0,,,,,,,,0,,,51,51
166960,set_tempo,80,1,0,,,,,,991736,,,,,,
166960,note_on,0,0,0,,,,,,,,0,,,51,0
166960,note_on,0,0,0,,,,,,,,0,,,43,44
167000,note_on,40,0,0,,,,,,,,0,,,43,44
167020,note_on,20,0,0,,,,,,,,0,,,50,45
167040,key_signature,20,1,0,,,,,G,,,,,,,
167040,set_tempo,0,1,0,,,,,,714286,,,,,,
167040,note_on,0,0,0,,,,,,,,0,,,43,0
167040,note_on,0,0,0,,,,,,,,0,,,72,0
167040,note_on,0,0,0,,,,,,,,0,,,55,0
167040,note_on,0,0,0,,,,,,,,0,,,60,0
167040,note_on,0,0,0,,,,,,,,0,,,67,0
167040,note_on,0,0,0,,,,,,,,0,,,59,63
167040,note_on,0,0,0,,,,,,,,0,,,67,63
167040,note_on,0,0,0,,,,,,,,0,,,55,49
167044,control_change,4,0,0,,,,,,,,0,64,0,,
167096,control_change,52,0,0,,,,,,,,0,64,127,,
167120,note_on,24,0,0,,,,,,,,0,,,67,0
167120,note_on,0,0,0,,,,,,,,0,,,59,0
167120,note_on,0,0,0,,,,,,,,0,,,71,51
167200,note_on,80,0,0,,,,,,,,0,,,71,0
167200,note_on,0,0,0,,,,,,,,0,,,59,54
167200,note_on,0,0,0,,,,,,,,0,,,67,54
167280,note_on,80,0,0,,,,,,,,0,,,67,0
167280,note_on,0,0,0,,,,,,,,0,,,55,0
167280,note_on,0,0,0,,,,,,,,0,,,43,0
167280,note_on,0,0,0,,,,,,,,0,,,50,0
167280,note_on,0,0,0,,,,,,,,0,,,59,0
167280,note_on,0,0,0,,,,,,,,0,,,71,49
167360,note_on,80,0,0,,,,,,,,0,,,71,0
167360,note_on,0,0,0,,,,,,,,0,,,59,54
167360,note_on,0,0,0,,,,,,,,0,,,67,54
167440,note_on,80,0,0,,,,,,,,0,,,67,0
167440,note_on,0,0,0,,,,,,,,0,,,59,0
167440,note_on,0,0,0,,,,,,,,0,,,71,50
167520,set_tempo,80,1,0,,,,,,701180,,,,,,
167520,note_on,0,0,0,,,,,,,,0,,,71,0
167520,note_on,0,0,0,,,,,,,,0,,,67,74
167520,note_on,0,0,0,,,,,,,,0,,,59,62
167520,note_on,0,0,0,,,,,,,,0,,,43,42
167520,note_on,0,0,0,,,,,,,,0,,,47,42
167520,note_on,0,0,0,,,,,,,,0,,,55,50
167600,note_on,80,0,0,,,,,,,,0,,,59,0
167600,note_on,0,0,0,,,,,,,,0,,,71,50
167678,note_on,78,0,0,,,,,,,,0,,,67,0
167680,note_on,2,0,0,,,,,,,,0,,,71,0
167680,note_on,0,0,0,,,,,,,,0,,,59,54
167680,note_on,0,0,0,,,,,,,,0,,,67,54
167760,note_on,80,0,0,,,,,,,,0,,,67,0
167760,note_on,0,0,0,,,,,,,,0,,,59,0
167760,note_on,0,0,0,,,,,,,,0,,,71,50
167840,note_on,80,0,0,,,,,,,,0,,,71,0
167840,note_on,0,0,0,,,,,,,,0,,,59,54
167840,note_on,0,0,0,,,,,,,,0,,,67,54
167920,note_on,80,0,0,,,,,,,,0,,,67,0
167920,note_on,0,0,0,,,,,,,,0,,,59,0
167920,note_on,0,0,0,,,,,,,,0,,,71,50
168000,set_tempo,80,1,0,,,,,,710059,,,,,,
168000,note_on,0,0,0,,,,,,,,0,,,71,0
168000,note_on,0,0,0,,,,,,,,0,,,47,0
168000,note_on,0,0,0,,,,,,,,0,,,43,0
168000,note_on,0,0,0,,,,,,,,0,,,55,0
168000,note_on,0,0,0,,,,,,,,0,,,66,66
168000,note_on,0,0,0,,,,,,,,0,,,59,63
168000,note_on,0,0,0,,,,,,,,0,,,67,63
168000,note_on,0,0,0,,,,,,,,0,,,42,43
168000,note_on,0,0,0,,,,,,,,0,,,47,43
168000,note_on,0,0,0,,,,,,,,0,,,54,51
168080,note_on,80,0,0,,,,,,,,0,,,67,0
168080,note_on,0,0,0,,,,,,,,0,,,59,0
168080,note_on,0,0,0,,,,,,,,0,,,71,50
168160,note_on,80,0,0,,,,,,,,0,,,71,0
168160,note_on,0,0,0,,,,,,,,0,,,59,54
168160,note_on,0,0,0,,,,,,,,0,,,67,54
168240,note_on,80,0,0,,,,,,,,0,,,67,0
168240,note_on,0,0,0,,,,,,,,0,,,59,0
168240,note_on,0,0,0,,,,,,,,0,,,71,52
168320,note_on,80,0,0,,,,,,,,0,,,71,0
168320,note_on,0,0,0,,,,,,,,0,,,59,55
168320,note_on,0,0,0,,,,,,,,0,,,67,55
168400,note_on,80,0,0,,,,,,,,0,,,67,0
168400,note_on,0,0,0,,,,,,,,0,,,59,0
168400,note_on,0,0,0,,,,,,,,0,,,71,51
168480,set_tempo,80,1,0,,,,,,710059,,,,,,
168480,note_on,0,0,0,,,,,,,,0,,,71,0
168480,note_on,0,0,0,,,,,,,,0,,,47,0
168480,note_on,0,0,0,,,,,,,,0,,,66,0
168480,note_on,0,0,0,,,,,,,,0,,,54,0
168480,note_on,0,0,0,,,,,,,,0,,,42,0
168480,note_on,0,0,0,,,,,,,,0,,,64,64
168480,note_on,0,0,0,,,,,,,,0,,,59,64
168480,note_on,0,0,0,,,,,,,,0,,,67,64
168480,note_on,0,0,0,,,,,,,,0,,,40,44
168480,note_on,0,0,0,,,,,,,,0,,,47,44
168480,note_on,0,0,0,,,,,,,,0,,,52,52
168560,note_on,80,0,0,,,,,,,,0,,,67,0
168560,note_on,0,0,0,,,,,,,,0,,,59,0
168560,note_on,0,0,0,,,,,,,,0,,,71,52
168640,note_on,80,0,0,,,,,,,,0,,,71,0
168640,note_on,0,0,0,,,,,,,,0,,,59,56
168640,note_on,0,0,0,,,,,,,,0,,,67,56
168680,set_tempo,40,1,0,,,,,,714286,,,,,,
168720,note_on,40,0,0,,,,,,,,0,,,67,0
168720,note_on,0,0,0,,,,,,,,0,,,59,0
168720,note_on,0,0,0,,,,,,,,0,,,71,51
168800,note_on,80,0,0,,,,,,,,0,,,71,0
168800,note_on,0,0,0,,,,,,,,0,,,59,56
168800,note_on,0,0,0,,,,,,,,0,,,67,56
168880,set_tempo,80,1,0,,,,,,718563,,,,,,
168880,note_on,0,0,0,,,,,,,,0,,,67,0
168880,note_on,0,0,0,,,,,,,,0,,,59,0
168880,note_on,0,0,0,,,,,,,,0,,,71,53
168960,note_on,80,0,0,,,,,,,,0,,,71,0
168960,note_on,0,0,0,,,,,,,,0,,,47,0
168960,note_on,0,0,0,,,,,,,,0,,,64,0
168960,note_on,0,0,0,,,,,,,,0,,,52,0
168960,note_on,0,0,0,,,,,,,,0,,,40,0
168960,note_on,0,0,0,,,,,,,,0,,,62,65
168960,note_on,0,0,0,,,,,,,,0,,,59,65
168960,note_on,0,0,0,,,,,,,,0,,,67,65
168960,note_on,0,0,0,,,,,,,,0,,,38,45
168960,note_on,0,0,0,,,,,,,,0,,,47,45
168960,note_on,0,0,0,,,,,,,,0,,,50,53
169040,set_tempo,80,1,0,,,,,,722892,,,,,,
169040,note_on,0,0,0,,,,,,,,0,,,67,0
169040,note_on,0,0,0,,,,,,,,0,,,59,0
169040,note_on,0,0,0,,,,,,,,0,,,71,53
169120,note_on,80,0,0,,,,,,,,0,,,71,0
169120,note_on,0,0,0,,,,,,,,0,,,59,56
169120,note_on,0,0,0,,,,,,,,0,,,67,56
169200,note_on,80,0,0,,,,,,,,0,,,67,0
169200,note_on,0,0,0,,,,,,,,0,,,59,0
169200,note_on,0,0,0,,,,,,,,0,,,71,52
169240,set_tempo,40,1,0,,,,,,727273,,,,,,
169280,note_on,40,0,0,,,,,,,,0,,,71,0
169280,note_on,0,0,0,,,,,,,,0,,,59,57
169280,note_on,0,0,0,,,,,,,,0,,,67,57
169360,note_on,80,0,0,,,,,,,,0,,,67,0
169360,note_on,0,0,0,,,,,,,,0,,,59,0
169360,note_on,0,0,0,,,,,,,,0,,,71,53
169400,set_tempo,40,1,0,,,,,,731707,,,,,,
169440,set_tempo,40,1,0,,,,,,751597,,,,,,
169440,note_on,0,0,0,,,,,,,,0,,,71,0
169440,note_on,0,0,0,,,,,,,,0,,,47,0
169440,note_on,0,0,0,,,,,,,,0,,,62,0
169440,note_on,0,0,0,,,,,,,,0,,,50,0
169440,note_on,0,0,0,,,,,,,,0,,,38,0
169440,note_on,0,0,0,,,,,,,,0,,,59,68
169440,note_on,0,0,0,,,,,,,,0,,,67,64
169440,note_on,0,0,0,,,,,,,,0,,,35,45
169440,note_on,0,0,0,,,,,,,,0,,,47,54
169520,note_on,80,0,0,,,,,,,,0,,,67,0
169520,note_on,0,0,0,,,,,,,,0,,,71,53
169598,note_on,78,0,0,,,,,,,,0,,,59,0
169600,note_on,2,0,0,,,,,,,,0,,,71,0
169600,note_on,0,0,0,,,,,,,,0,,,59,57
169600,note_on,0,0,0,,,,,,,,0,,,67,57
169680,note_on,80,0,0,,,,,,,,0,,,67,0
169680,note_on,0,0,0,,,,,,,,0,,,59,0
169680,note_on,0,0,0,,,,,,,,0,,,71,54
169760,note_on,80,0,0,,,,,,,,0,,,71,0
169760,note_on,0,0,0,,,,,,,,0,,,59,57
169760,note_on,0,0,0,,,,,,,,0,,,67,57
169840,note_on,80,0,0,,,,,,,,0,,,67,0
169840,note_on,0,0,0,,,,,,,,0,,,59,0
169840,note_on,0,0,0,,,,,,,,0,,,71,54
169920,set_tempo,80,1,0,,,,,,731707,,,,,,
169920,note_on,0,0,0,,,,,,,,0,,,71,0
169920,note_on,0,0,0,,,,,,,,0,,,35,0
169920,note_on,0,0,0,,,,,,,,0,,,47,0
169920,note_on,0,0,0,,,,,,,,0,,,55,65
169920,note_on,0,0,0,,,,,,,,0,,,31,45
169920,note_on,0,0,0,,,,,,,,0,,,35,45
169920,note_on,0,0,0,,,,,,,,0,,,43,53
169931,control_change,11,0,0,,,,,,,,0,64,0,,
169973,control_change,42,0,0,,,,,,,,0,64,127,,
170000,note_on,27,0,0,,,,,,,,0,,,59,54
170078,note_on,78,0,0,,,,,,,,0,,,55,0
170080,note_on,2,0,0,,,,,,,,0,,,59,0
170080,note_on,0,0,0,,,,,,,,0,,,55,59
170160,note_on,80,0,0,,,,,,,,0,,,55,0
170160,note_on,0,0,0,,,,,,,,0,,,59,54
170240,note_on,80,0,0,,,,,,,,0,,,59,0
170240,note_on,0,0,0,,,,,,,,0,,,55,59
170320,note_on,80,0,0,,,,,,,,0,,,55,0
170320,note_on,0,0,0,,,,,,,,0,,,59,54
170400,set_tempo,80,1,0,,,,,,727273,,,,,,
170400,note_on,0,0,0,,,,,,,,0,,,59,0
170400,note_on,0,0,0,,,,,,,,0,,,31,0
170400,note_on,0,0,0,,,,,,,,0,,,35,0
170400,note_on,0,0,0,,,,,,,,0,,,43,0
170400,note_on,0,0,0,,,,,,,,0,,,54,66
170400,note_on,0,0,0,,,,,,,,0,,,55,66
170400,note_on,0,0,0,,,,,,,,0,,,31,45
170400,note_on,0,0,0,,,,,,,,0,,,35,45
170400,note_on,0,0,0,,,,,,,,0,,,42,54
170480,set_tempo,80,1,0,,,,,,731707,,,,,,
170480,note_on,0,0,0,,,,,,,,0,,,55,0
170480,note_on,0,0,0,,,,,,,,0,,,59,55
170560,set_tempo,80,1,0,,,,,,736196,,,,,,
170560,note_on,0,0,0,,,,,,,,0,,,59,0
170560,note_on,0,0,0,,,,,,,,0,,,55,59
170640,set_tempo,80,1,0,,,,,,740741,,,,,,
170640,note_on,0,0,0,,,,,,,,0,,,55,0
170640,note_on,0,0,0,,,,,,,,0,,,59,55
170720,set_tempo,80,1,0,,,,,,745342,,,,,,
170720,note_on,0,0,0,,,,,,,,0,,,59,0
170720,note_on,0,0,0,,,,,,,,0,,,55,60
170800,set_tempo,80,1,0,,,,,,750000,,,,,,
170800,note_on,0,0,0,,,,,,,,0,,,55,0
170800,note_on,0,0,0,,,,,,,,0,,,59,54
170880,set_tempo,80,1,0,,,,,,754717,,,,,,
170880,note_on,0,0,0,,,,,,,,0,,,59,0
170880,note_on,0,0,0,,,,,,,,0,,,42,0
170880,note_on,0,0,0,,,,,,,,0,,,54,0
170880,note_on,0,0,0,,,,,,,,0,,,31,0
170880,note_on,0,0,0,,,,,,,,0,,,35,0
170880,note_on,0,0,0,,,,,,,,0,,,52,68
170880,note_on,0,0,0,,,,,,,,0,,,55,68
170880,note_on,0,0,0,,,,,,,,0,,,31,47
170880,note_on,0,0,0,,,,,,,,0,,,35,47
170880,note_on,0,0,0,,,,,,,,0,,,40,56
170960,set_tempo,80,1,0,,,,,,759494,,,,,,
170960,note_on,0,0,0,,,,,,,,0,,,55,0
170960,note_on,0,0,0,,,,,,,,0,,,59,55
171040,set_tempo,80,1,0,,,,,,764331,,,,,,
171040,note_on,0,0,0,,,,,,,,0,,,59,0
171040,note_on,0,0,0,,,,,,,,0,,,55,60
171120,set_tempo,80,1,0,,,,,,769231,,,,,,
171120,note_on,0,0,0,,,,,,,,0,,,55,0
171120,note_on,0,0,0,,,,,,,,0,,,59,54
171200,set_tempo,80,1,0,,,,,,774194,,,,,,
171200,note_on,0,0,0,,,,,,,,0,,,59,0
171200,note_on,0,0,0,,,,,,,,0,,,55,60
171280,set_tempo,80,1,0,,,,,,779221,,,,,,
171280,note_on,0,0,0,,,,,,,,0,,,55,0
171280,note_on,0,0,0,,,,,,,,0,,,59,55
171360,set_tempo,80,1,0,,,,,,784314,,,,,,
171360,note_on,0,0,0,,,,,,,,0,,,59,0
171360,note_on,0,0,0,,,,,,,,0,,,40,0
171360,note_on,0,0,0,,,,,,,,0,,,52,0
171360,note_on,0,0,0,,,,,,,,0,,,31,0
171360,note_on,0,0,0,,,,,,,,0,,,35,0
171360,note_on,0,0,0,,,,,,,,0,,,51,69
171360,note_on,0,0,0,,,,,,,,0,,,55,70
171360,note_on,0,0,0,,,,,,,,0,,,31,49
171360,note_on,0,0,0,,,,,,,,0,,,35,49
171360,note_on,0,0,0,,,,,,,,0,,,39,58
171440,set_tempo,80,1,0,,,,,,789474,,,,,,
171440,note_on,0,0,0,,,,,,,,0,,,55,0
171440,note_on,0,0,0,,,,,,,,0,,,59,55
171520,set_tempo,80,1,0,,,,,,794702,,,,,,
171520,note_on,0,0,0,,,,,,,,0,,,59,0
171520,note_on,0,0,0,,,,,,,,0,,,55,61
171600,set_tempo,80,1,0,,,,,,800000,,,,,,
171600,note_on,0,0,0,,,,,,,,0,,,55,0
171600,note_on,0,0,0,,,,,,,,0,,,59,56
171680,set_tempo,80,1,0,,,,,,805369,,,,,,
171680,note_on,0,0,0,,,,,,,,0,,,59,0
171680,note_on,0,0,0,,,,,,,,0,,,55,62
171760,set_tempo,80,1,0,,,,,,810811,,,,,,
171760,note_on,0,0,0,,,,,,,,0,,,55,0
171760,note_on,0,0,0,,,,,,,,0,,,59,56
171840,set_tempo,80,1,0,,,,,,869565,,,,,,
171840,note_on,0,0,0,,,,,,,,0,,,59,0
171840,note_on,0,0,0,,,,,,,,0,,,39,0
171840,note_on,0,0,0,,,,,,,,0,,,51,0
171840,note_on,0,0,0,,,,,,,,0,,,31,0
171840,note_on,0,0,0,,,,,,,,0,,,35,0
171840,note_on,0,0,0,,,,,,,,0,,,50,71
171840,note_on,0,0,0,,,,,,,,0,,,55,70
171840,note_on,0,0,0,,,,,,,,0,,,31,51
171840,note_on,0,0,0,,,,,,,,0,,,35,51
171840,note_on,0,0,0,,,,,,,,0,,,38,61
171920,note_on,80,0,0,,,,,,,,0,,,55,0
171920,note_on,0,0,0,,,,,,,,0,,,59,56
172000,note_on,80,0,0,,,,,,,,0,,,59,0
172000,note_on,0,0,0,,,,,,,,0,,,55,62
172080,note_on,80,0,0,,,,,,,,0,,,55,0
172080,note_on,0,0,0,,,,,,,,0,,,59,56
172160,note_on,80,0,0,,,,,,,,0,,,59,0
172160,note_on,0,0,0,,,,,,,,0,,,55,62
172240,note_on,80,0,0,,,,,,,,0,,,55,0
172240,note_on,0,0,0,,,,,,,,0,,,59,57
172320,set_tempo,80,1,0,,,,,,923077,,,,,,
172320,note_on,0,0,0,,,,,,,,0,,,59,0
172320,note_on,0,0,0,,,,,,,,0,,,38,0
172320,note_on,0,0,0,,,,,,,,0,,,50,0
172320,note_on,0,0,0,,,,,,,,0,,,31,0
172320,note_on,0,0,0,,,,,,,,0,,,35,0
172320,note_on,0,0,0,,,,,,,,0,,,47,72
172320,note_on,0,0,0,,,,,,,,0,,,55,72
172320,note_on,0,0,0,,,,,,,,0,,,31,53
172320,note_on,0,0,0,,,,,,,,0,,,35,63
172360,set_tempo,40,1,0,,,,,,923077,,,,,,
172400,set_tempo,40,1,0,,,,,,937500,,,,,,
172400,note_on,0,0,0,,,,,,,,0,,,55,0
172400,note_on,0,0,0,,,,,,,,0,,,59,58
172440,set_tempo,40,1,0,,,,,,960000,,,,,,
172480,set_tempo,40,1,0,,,,,,983607,,,,,,
172480,note_on,0,0,0,,,,,,,,0,,,59,0
172480,note_on,0,0,0,,,,,,,,0,,,55,63
172520,set_tempo,40,1,0,,,,,,1000000,,,,,,
172560,set_tempo,40,1,0,,,,,,1025641,,,,,,
172560,note_on,0,0,0,,,,,,,,0,,,55,0
172560,note_on,0,0,0,,,,,,,,0,,,59,57
172600,set_tempo,40,1,0,,,,,,1052632,,,,,,
172620,set_tempo,20,1,0,,,,,,1043478,,,,,,
172640,set_tempo,20,1,0,,,,,,1071429,,,,,,
172640,note_on,0,0,0,,,,,,,,0,,,59,0
172640,note_on,0,0,0,,,,,,,,0,,,55,63
172660,set_tempo,20,1,0,,,,,,1100917,,,,,,
172680,set_tempo,20,1,0,,,,,,1132075,,,,,,
172700,set_tempo,20,1,0,,,,,,1165049,,,,,,
172720,set_tempo,20,1,0,,,,,,1200000,,,,,,
172720,note_on,0,0,0,,,,,,,,0,,,55,0
172720,note_on,0,0,0,,,,,,,,0,,,59,59
172740,set_tempo,20,1,0,,,,,,1237113,,,,,,
172760,set_tempo,20,1,0,,,,,,1276596,,,,,,
172780,set_tempo,20,1,0,,,,,,1318681,,,,,,
172800,set_tempo,20,1,0,,,,,,1363636,,,,,,
172800,marker,0,1,0,,,,,,,,,,,,
172800,note_on,0,0,0,,,,,,,,0,,,59,0
172800,note_on,0,0,0,,,,,,,,0,,,35,0
172800,note_on,0,0,0,,,,,,,,0,,,31,0
172800,note_on,0,0,0,,,,,,,,0,,,47,0
172800,control_change,0,0,0,,,,,,,,0,91,127,,
172800,text,0,1,0,,,,,,,,,,,,
172800,note_on,0,0,0,,,,,,,,0,,,31,80
172800,control_change,0,0,0,,,,,,,,0,64,0,,
172843,control_change,43,0,0,,,,,,,,0,64,127,,
173280,set_tempo,437,1,0,,,,,,1379310,,,,,,
173280,note_on,0,0,0,,,,,,,,0,,,31,0
173280,note_on,0,0,0,,,,,,,,0,,,35,55
173340,note_on,60,0,0,,,,,,,,0,,,35,0
173340,note_on,0,0,0,,,,,,,,0,,,38,58
173360,set_tempo,20,1,0,,,,,,1363636,,,,,,
173400,set_tempo,40,1,0,,,,,,1348315,,,,,,
173400,note_on,0,0,0,,,,,,,,0,,,38,0
173400,note_on,0,0,0,,,,,,,,0,,,43,61
173440,set_tempo,40,1,0,,,,,,1212121,,,,,,
173452,set_tempo,12,1,0,,,,,,1200000,,,,,,
173460,note_on,8,0,0,,,,,,,,0,,,43,0
173460,note_on,0,0,0,,,,,,,,0,,,47,63
173464,set_tempo,4,1,0,,,,,,1176471,,,,,,
173480,set_tempo,16,1,0,,,,,,1165049,,,,,,
173492,set_tempo,12,1,0,,,,,,1142857,,,,,,
173504,set_tempo,12,1,0,,,,,,1121495,,,,,,
173520,set_tempo,16,1,0,,,,,,1250000,,,,,,
173520,note_on,0,0,0,,,,,,,,0,,,47,0
173520,note_on,0,0,0,,,,,,,,0,,,50,66
173532,set_tempo,12,1,0,,,,,,1090909,,,,,,
173572,set_tempo,40,1,0,,,,,,1081081,,,,,,
173580,note_on,8,0,0,,,,,,,,0,,,50,0
173580,note_on,0,0,0,,,,,,,,0,,,55,68
173600,set_tempo,20,1,0,,,,,,1071429,,,,,,
173624,set_tempo,24,1,0,,,,,,1061947,,,,,,
173640,note_on,16,0,0,,,,,,,,0,,,55,0
173640,note_on,0,0,0,,,,,,,,0,,,59,68
173652,set_tempo,12,1,0,,,,,,1052632,,,,,,
173680,set_tempo,28,1,0,,,,,,1043478,,,,,,
173700,note_on,20,0,0,,,,,,,,0,,,59,0
173700,note_on,0,0,0,,,,,,,,0,,,62,71
173704,set_tempo,4,1,0,,,,,,1034483,,,,,,
173732,set_tempo,28,1,0,,,,,,1025641,,,,,,
173760,set_tempo,28,1,0,,,,,,1428571,,,,,,
173760,note_on,0,0,0,,,,,,,,0,,,62,0
173760,note_on,0,0,0,,,,,,,,0,,,67,77
173773,control_change,13,0,0,,,,,,,,0,64,0,,
173931,control_change,158,0,0,,,,,,,,0,64,127,,
174224,set_tempo,293,1,0,,,,,,1428571,,,,,,
174252,set_tempo,28,1,0,,,,,,1411765,,,,,,
174264,set_tempo,12,1,0,,,,,,1395349,,,,,,
174280,set_tempo,16,1,0,,,,,,1379310,,,,,,
174292,set_tempo,12,1,0,,,,,,1363636,,,,,,
174300,note_on,8,0,0,,,,,,,,0,,,67,0
174300,note_on,0,0,0,,,,,,,,0,,,66,60
174304,set_tempo,4,1,0,,,,,,1348315,,,,,,
174320,set_tempo,16,1,0,,,,,,1333333,,,,,,
174332,set_tempo,12,1,0,,,,,,1318681,,,,,,
174344,set_tempo,12,1,0,,,,,,1304348,,,,,,
174360,set_tempo,16,1,0,,,,,,1290323,,,,,,
174360,note_on,0,0,0,,,,,,,,0,,,66,0
174360,note_on,0,0,0,,,,,,,,0,,,64,61
174372,set_tempo,12,1,0,,,,,,1276596,,,,,,
174384,set_tempo,12,1,0,,,,,,1263158,,,,,,
174400,set_tempo,16,1,0,,,,,,1250000,,,,,,
174412,set_tempo,12,1,0,,,,,,1237113,,,,,,
174420,note_on,8,0,0,,,,,,,,0,,,64,0
174420,note_on,0,0,0,,,,,,,,0,,,62,62
174424,set_tempo,4,1,0,,,,,,1224490,,,,,,
174440,set_tempo,16,1,0,,,,,,1212121,,,,,,
174452,set_tempo,12,1,0,,,,,,1200000,,,,,,
174464,set_tempo,12,1,0,,,,,,1188119,,,,,,
174480,set_tempo,16,1,0,,,,,,1176471,,,,,,
174480,note_on,0,0,0,,,,,,,,0,,,62,0
174480,note_on,0,0,0,,,,,,,,0,,,60,62
174492,set_tempo,12,1,0,,,,,,1165049,,,,,,
174504,set_tempo,12,1,0,,,,,,1153846,,,,,,
174520,set_tempo,16,1,0,,,,,,1142857,,,,,,
174532,set_tempo,12,1,0,,,,,,1132075,,,,,,
174540,note_on,8,0,0,,,,,,,,0,,,60,0
174540,note_on,0,0,0,,,,,,,,0,,,59,63
174544,set_tempo,4,1,0,,,,,,1121495,,,,,,
174560,set_tempo,16,1,0,,,,,,1111111,,,,,,
174572,set_tempo,12,1,0,,,,,,1100917,,,,,,
174584,set_tempo,12,1,0,,,,,,1090909,,,,,,
174600,set_tempo,16,1,0,,,,,,1081081,,,,,,
174600,note_on,0,0,0,,,,,,,,0,,,59,0
174600,note_on,0,0,0,,,,,,,,0,,,57,63
174612,set_tempo,12,1,0,,,,,,1071429,,,,,,
174624,set_tempo,12,1,0,,,,,,1061947,,,,,,
174640,set_tempo,16,1,0,,,,,,1052632,,,,,,
174652,set_tempo,12,1,0,,,,,,1043478,,,,,,
174660,note_on,8,0,0,,,,,,,,0,,,57,0
174660,note_on,0,0,0,,,,,,,,0,,,55,63
174664,set_tempo,4,1,0,,,,,,1034483,,,,,,
174680,set_tempo,16,1,0,,,,,,1025641,,,,,,
174692,set_tempo,12,1,0,,,,,,1016949,,,,,,
174700,set_tempo,8,1,0,,,,,,1008403,,,,,,
174720,set_tempo,20,1,0,,,,,,1000000,,,,,,
174720,note_on,0,0,0,,,,,,,,0,,,55,0
174720,note_on,0,0,0,,,,,,,,0,,,54,64
174740,set_tempo,20,1,0,,,,,,983607,,,,,,
174760,set_tempo,20,1,0,,,,,,975610,,,,,,
174780,set_tempo,20,1,0,,,,,,960000,,,,,,
174780,note_on,0,0,0,,,,,,,,0,,,54,0
174780,note_on,0,0,0,,,,,,,,0,,,52,63
174800,set_tempo,20,1,0,,,,,,952381,,,,,,
174820,set_tempo,20,1,0,,,,,,937500,,,,,,
174840,set_tempo,20,1,0,,,,,,930233,,,,,,
174840,note_on,0,0,0,,,,,,,,0,,,52,0
174840,note_on,0,0,0,,,,,,,,0,,,50,63
174860,set_tempo,20,1,0,,,,,,916031,,,,,,
174880,set_tempo,20,1,0,,,,,,909091,,,,,,
174900,set_tempo,20,1,0,,,,,,895522,,,,,,
174900,note_on,0,0,0,,,,,,,,0,,,50,0
174900,note_on,0,0,0,,,,,,,,0,,,48,64
174920,set_tempo,20,1,0,,,,,,888889,,,,,,
174940,set_tempo,20,1,0,,,,,,875912,,,,,,
174960,set_tempo,20,1,0,,,,,,863309,,,,,,
174960,note_on,0,0,0,,,,,,,,0,,,48,0
174960,note_on,0,0,0,,,,,,,,0,,,47,64
174980,set_tempo,20,1,0,,,,,,857143,,,,,,
175000,set_tempo,20,1,0,,,,,,845070,,,,,,
175020,set_tempo,20,1,0,,,,,,839161,,,,,,
175020,note_on,0,0,0,,,,,,,,0,,,47,0
175020,note_on,0,0,0,,,,,,,,0,,,45,65
175040,set_tempo,20,1,0,,,,,,827586,,,,,,
175060,set_tempo,20,1,0,,,,,,821918,,,,,,
175080,set_tempo,20,1,0,,,,,,810811,,,,,,
175080,note_on,0,0,0,,,,,,,,0,,,45,0
175080,note_on,0,0,0,,,,,,,,0,,,43,66
175100,set_tempo,20,1,0,,,,,,805369,,,,,,
175120,set_tempo,20,1,0,,,,,,794702,,,,,,
175140,set_tempo,20,1,0,,,,,,789474,,,,,,
175140,note_on,0,0,0,,,,,,,,0,,,43,0
175140,note_on,0,0,0,,,,,,,,0,,,42,67
175160,set_tempo,20,1,0,,,,,,779221,,,,,,
175180,set_tempo,20,1,0,,,,,,769231,,,,,,
175200,note_on,20,0,0,,,,,,,,0,,,42,0
175200,note_on,0,0,0,,,,,,,,0,,,40,68
175260,note_on,60,0,0,,,,,,,,0,,,40,0
175260,note_on,0,0,0,,,,,,,,0,,,38,69
175280,set_tempo,20,1,0,,,,,,764331,,,,,,
175320,note_on,40,0,0,,,,,,,,0,,,38,0
175320,note_on,0,0,0,,,,,,,,0,,,36,70
175380,note_on,60,0,0,,,,,,,,0,,,36,0
175380,note_on,0,0,0,,,,,,,,0,,,35,70
175412,set_tempo,32,1,0,,,,,,759494,,,,,,
175440,note_on,28,0,0,,,,,,,,0,,,35,0
175440,note_on,0,0,0,,,,,,,,0,,,33,71
175500,note_on,60,0,0,,,,,,,,0,,,33,0
175500,note_on,0,0,0,,,,,,,,0,,,47,79
175500,note_on,0,0,0,,,,,,,,0,,,31,74
175517,control_change,17,0,0,,,,,,,,0,64,0,,
175544,set_tempo,27,1,0,,,,,,754717,,,,,,
175610,control_change,66,0,0,,,,,,,,0,64,127,,
175680,time_signature,70,1,0,8,4,24,8,,,,,,,,
175680,set_tempo,0,1,0,,,,,,1290323,,,,,,
176144,set_tempo,464,1,0,,,,,,1016949,,,,,,
176160,set_tempo,16,1,0,,,,,,1237113,,,,,,
176172,set_tempo,12,1,0,,,,,,975610,,,,,,
176184,set_tempo,12,1,0,,,,,,960000,,,,,,
176200,set_tempo,16,1,0,,,,,,937500,,,,,,
176212,set_tempo,12,1,0,,,,,,923077,,,,,,
176224,set_tempo,12,1,0,,,,,,902256,,,,,,
176240,set_tempo,16,1,0,,,,,,888889,,,,,,
176240,note_on,0,0,0,,,,,,,,0,,,31,0
176240,note_on,0,0,0,,,,,,,,0,,,47,0
176240,note_on,0,0,0,,,,,,,,0,,,50,60
176240,note_on,0,0,0,,,,,,,,0,,,35,54
176252,set_tempo,12,1,0,,,,,,869565,,,,,,
176264,set_tempo,12,1,0,,,,,,851064,,,,,,
176280,set_tempo,16,1,0,,,,,,839161,,,,,,
176292,set_tempo,12,1,0,,,,,,827586,,,,,,
176304,set_tempo,12,1,0,,,,,,816327,,,,,,
176320,set_tempo,16,1,0,,,,,,805369,,,,,,
176320,note_on,0,0,0,,,,,,,,0,,,35,0
176320,note_on,0,0,0,,,,,,,,0,,,50,0
176320,note_on,0,0,0,,,,,,,,0,,,55,62
176320,note_on,0,0,0,,,,,,,,0,,,38,55
176332,set_tempo,12,1,0,,,,,,794702,,,,,,
176344,set_tempo,12,1,0,,,,,,784314,,,,,,
176360,set_tempo,16,1,0,,,,,,769231,,,,,,
176372,set_tempo,12,1,0,,,,,,759494,,,,,,
176384,set_tempo,12,1,0,,,,,,750000,,,,,,
176400,set_tempo,16,1,0,,,,,,740741,,,,,,
176400,note_on,0,0,0,,,,,,,,0,,,38,0
176400,note_on,0,0,0,,,,,,,,0,,,55,0
176400,note_on,0,0,0,,,,,,,,0,,,59,63
176400,note_on,0,0,0,,,,,,,,0,,,43,56
176412,set_tempo,12,1,0,,,,,,731707,,,,,,
176424,set_tempo,12,1,0,,,,,,722892,,,,,,
176440,set_tempo,16,1,0,,,,,,710059,,,,,,
176452,set_tempo,12,1,0,,,,,,701754,,,,,,
176464,set_tempo,12,1,0,,,,,,693642,,,,,,
176480,set_tempo,16,1,0,,,,,,685714,,,,,,
176480,note_on,0,0,0,,,,,,,,0,,,43,0
176480,note_on,0,0,0,,,,,,,,0,,,59,0
176480,note_on,0,0,0,,,,,,,,0,,,62,64
176480,note_on,0,0,0,,,,,,,,0,,,47,58
176492,set_tempo,12,1,0,,,,,,677966,,,,,,
176504,set_tempo,12,1,0,,,,,,670391,,,,,,
176520,set_tempo,16,1,0,,,,,,659341,,,,,,
176532,set_tempo,12,1,0,,,,,,655738,,,,,,
176540,set_tempo,8,1,0,,,,,,648649,,,,,,
176560,note_on,20,0,0,,,,,,,,0,,,47,0
176560,note_on,0,0,0,,,,,,,,0,,,62,0
176560,note_on,0,0,0,,,,,,,,0,,,67,65
176560,note_on,0,0,0,,,,,,,,0,,,50,59
176580,set_tempo,20,1,0,,,,,,645161,,,,,,
176600,set_tempo,20,1,0,,,,,,641711,,,,,,
176640,set_tempo,40,1,0,,,,,,638298,,,,,,
176640,note_on,0,0,0,,,,,,,,0,,,50,0
176640,note_on,0,0,0,,,,,,,,0,,,67,0
176640,note_on,0,0,0,,,,,,,,0,,,71,67
176640,note_on,0,0,0,,,,,,,,0,,,55,60
176660,set_tempo,20,1,0,,,,,,634921,,,,,,
176680,set_tempo,20,1,0,,,,,,631579,,,,,,
176720,set_tempo,40,1,0,,,,,,628272,,,,,,
176720,note_on,0,0,0,,,,,,,,0,,,55,0
176720,note_on,0,0,0,,,,,,,,0,,,71,0
176720,note_on,0,0,0,,,,,,,,0,,,74,68
176720,note_on,0,0,0,,,,,,,,0,,,59,62
176740,set_tempo,20,1,0,,,,,,625000,,,,,,
176780,set_tempo,40,1,0,,,,,,621762,,,,,,
176800,set_tempo,20,1,0,,,,,,618557,,,,,,
176800,note_on,0,0,0,,,,,,,,0,,,59,0
176800,note_on,0,0,0,,,,,,,,0,,,74,0
176800,note_on,0,0,0,,,,,,,,0,,,79,70
176800,note_on,0,0,0,,,,,,,,0,,,62,63
176820,set_tempo,20,1,0,,,,,,615385,,,,,,
176860,set_tempo,40,1,0,,,,,,612245,,,,,,
176880,set_tempo,20,1,0,,,,,,609137,,,,,,
176880,note_on,0,0,0,,,,,,,,0,,,62,0
176880,note_on,0,0,0,,,,,,,,0,,,79,0
176880,note_on,0,0,0,,,,,,,,0,,,83,71
176880,note_on,0,0,0,,,,,,,,0,,,67,64
176920,set_tempo,40,1,0,,,,,,606061,,,,,,
176940,set_tempo,20,1,0,,,,,,603015,,,,,,
176960,set_tempo,20,1,0,,,,,,600000,,,,,,
176960,note_on,0,0,0,,,,,,,,0,,,67,0
176960,note_on,0,0,0,,,,,,,,0,,,83,0
176960,note_on,0,0,0,,,,,,,,0,,,86,72
176960,note_on,0,0,0,,,,,,,,0,,,71,65
177000,set_tempo,40,1,0,,,,,,597015,,,,,,
177020,set_tempo,20,1,0,,,,,,594059,,,,,,
177040,note_on,20,0,0,,,,,,,,0,,,71,0
177040,note_on,0,0,0,,,,,,,,0,,,86,0
177040,note_on,0,0,0,,,,,,,,0,,,91,77
177040,note_on,0,0,0,,,,,,,,0,,,74,67
177060,set_tempo,20,1,0,,,,,,591133,,,,,,
177080,set_tempo,20,1,0,,,,,,588235,,,,,,
177100,set_tempo,20,1,0,,,,,,585366,,,,,,
177120,set_tempo,20,1,0,,,,,,1212121,,,,,,
177120,note_on,0,0,0,,,,,,,,0,,,74,0
177120,note_on,0,0,0,,,,,,,,0,,,91,0
177120,note_on,0,0,0,,,,,,,,0,,,95,80
177120,note_on,0,0,0,,,,,,,,0,,,79,75
177134,control_change,14,0,0,,,,,,,,0,64,0,,
177326,control_change,192,0,0,,,,,,,,0,64,127,,
177600,set_tempo,274,1,0,,,,,,1081081,,,,,,
177640,set_tempo,40,1,0,,,,,,1071429,,,,,,
177660,set_tempo,20,1,0,,,,,,1061947,,,,,,
177660,note_on,0,0,0,,,,,,,,0,,,79,0
177660,note_on,0,0,0,,,,,,,,0,,,95,0
177660,note_on,0,0,0,,,,,,,,0,,,93,58
177660,note_on,0,0,0,,,,,,,,0,,,78,50
177680,set_tempo,20,1,0,,,,,,1052632,,,,,,
177700,set_tempo,20,1,0,,,,,,1043478,,,,,,
177720,note_on,20,0,0,,,,,,,,0,,,78,0
177720,note_on,0,0,0,,,,,,,,0,,,93,0
177720,note_on,0,0,0,,,,,,,,0,,,91,59
177720,note_on,0,0,0,,,,,,,,0,,,76,51
177740,set_tempo,20,1,0,,,,,,1034483,,,,,,
177760,set_tempo,20,1,0,,,,,,1025641,,,,,,
177780,set_tempo,20,1,0,,,,,,1016949,,,,,,
177780,note_on,0,0,0,,,,,,,,0,,,76,0
177780,note_on,0,0,0,,,,,,,,0,,,91,0
177780,note_on,0,0,0,,,,,,,,0,,,90,59
177780,note_on,0,0,0,,,,,,,,0,,,74,51
177800,set_tempo,20,1,0,,,,,,1008403,,,,,,
177840,set_tempo,40,1,0,,,,,,1000000,,,,,,
177840,note_on,0,0,0,,,,,,,,0,,,74,0
177840,note_on,0,0,0,,,,,,,,0,,,90,0
177840,note_on,0,0,0,,,,,,,,0,,,88,60
177840,note_on,0,0,0,,,,,,,,0,,,72,52
177860,set_tempo,20,1,0,,,,,,991736,,,,,,
177880,set_tempo,20,1,0,,,,,,983607,,,,,,
177900,set_tempo,20,1,0,,,,,,975610,,,,,,
177900,note_on,0,0,0,,,,,,,,0,,,72,0
177900,note_on,0,0,0,,,,,,,,0,,,88,0
177900,note_on,0,0,0,,,,,,,,0,,,86,60
177900,note_on,0,0,0,,,,,,,,0,,,71,52
177940,set_tempo,40,1,0,,,,,,967742,,,,,,
177960,set_tempo,20,1,0,,,,,,960000,,,,,,
177960,note_on,0,0,0,,,,,,,,0,,,71,0
177960,note_on,0,0,0,,,,,,,,0,,,86,0
177960,note_on,0,0,0,,,,,,,,0,,,84,61
177960,note_on,0,0,0,,,,,,,,0,,,69,53
177980,set_tempo,20,1,0,,,,,,952381,,,,,,
178000,set_tempo,20,1,0,,,,,,944882,,,,,,
178020,set_tempo,20,1,0,,,,,,930233,,,,,,
178020,note_on,0,0,0,,,,,,,,0,,,69,0
178020,note_on,0,0,0,,,,,,,,0,,,84,0
178020,note_on,0,0,0,,,,,,,,0,,,83,62
178020,note_on,0,0,0,,,,,,,,0,,,67,54
178040,set_tempo,20,1,0,,,,,,916031,,,,,,
178060,set_tempo,20,1,0,,,,,,902256,,,,,,
178080,set_tempo,20,1,0,,,,,,888889,,,,,,
178080,note_on,0,0,0,,,,,,,,0,,,67,0
178080,note_on,0,0,0,,,,,,,,0,,,83,0
178080,note_on,0,0,0,,,,,,,,0,,,81,62
178080,note_on,0,0,0,,,,,,,,0,,,66,54
178100,set_tempo,20,1,0,,,,,,869565,,,,,,
178120,set_tempo,20,1,0,,,,,,857143,,,,,,
178140,set_tempo,20,1,0,,,,,,845070,,,,,,
178140,note_on,0,0,0,,,,,,,,0,,,66,0
178140,note_on,0,0,0,,,,,,,,0,,,81,0
178140,note_on,0,0,0,,,,,,,,0,,,79,63
178140,note_on,0,0,0,,,,,,,,0,,,64,54
178160,set_tempo,20,1,0,,,,,,833333,,,,,,
178180,set_tempo,20,1,0,,,,,,816327,,,,,,
178200,set_tempo,20,1,0,,,,,,805369,,,,,,
178200,note_on,0,0,0,,,,,,,,0,,,64,0
178200,note_on,0,0,0,,,,,,,,0,,,79,0
178200,note_on,0,0,0,,,,,,,,0,,,78,63
178200,note_on,0,0,0,,,,,,,,0,,,62,54
178220,set_tempo,20,1,0,,,,,,794702,,,,,,
178240,set_tempo,20,1,0,,,,,,784314,,,,,,
178260,set_tempo,20,1,0,,,,,,769231,,,,,,
178260,note_on,0,0,0,,,,,,,,0,,,62,0
178260,note_on,0,0,0,,,,,,,,0,,,78,0
178260,note_on,0,0,0,,,,,,,,0,,,76,63
178260,note_on,0,0,0,,,,,,,,0,,,60,55
178280,set_tempo,20,1,0,,,,,,759494,,,,,,
178300,set_tempo,20,1,0,,,,,,750000,,,,,,
178320,set_tempo,20,1,0,,,,,,740741,,,,,,
178320,note_on,0,0,0,,,,,,,,0,,,60,0
178320,note_on,0,0,0,,,,,,,,0,,,76,0
178320,note_on,0,0,0,,,,,,,,0,,,74,63
178320,note_on,0,0,0,,,,,,,,0,,,59,56
178340,set_tempo,20,1,0,,,,,,727273,,,,,,
178360,set_tempo,20,1,0,,,,,,718563,,,,,,
178380,set_tempo,20,1,0,,,,,,710059,,,,,,
178380,note_on,0,0,0,,,,,,,,0,,,59,0
178380,note_on,0,0,0,,,,,,,,0,,,74,0
178380,note_on,0,0,0,,,,,,,,0,,,72,64
178380,note_on,0,0,0,,,,,,,,0,,,57,56
178400,set_tempo,20,1,0,,,,,,701754,,,,,,
178420,set_tempo,20,1,0,,,,,,689655,,,,,,
178440,set_tempo,20,1,0,,,,,,681818,,,,,,
178440,note_on,0,0,0,,,,,,,,0,,,57,0
178440,note_on,0,0,0,,,,,,,,0,,,72,0
178440,note_on,0,0,0,,,,,,,,0,,,71,64
178440,note_on,0,0,0,,,,,,,,0,,,55,57
178460,set_tempo,20,1,0,,,,,,674157,,,,,,
178480,set_tempo,20,1,0,,,,,,666667,,,,,,
178500,set_tempo,20,1,0,,,,,,655738,,,,,,
178500,note_on,0,0,0,,,,,,,,0,,,55,0
178500,note_on,0,0,0,,,,,,,,0,,,71,0
178500,note_on,0,0,0,,,,,,,,0,,,69,65
178500,note_on,0,0,0,,,,,,,,0,,,54,57
178504,set_tempo,4,1,0,,,,,,662983,,,,,,
178520,set_tempo,16,1,0,,,,,,659341,,,,,,
178532,set_tempo,12,1,0,,,,,,655738,,,,,,
178540,set_tempo,8,1,0,,,,,,648649,,,,,,
178560,note_on,20,0,0,,,,,,,,0,,,54,0
178560,note_on,0,0,0,,,,,,,,0,,,69,0
178560,note_on,0,0,0,,,,,,,,0,,,67,65
178560,note_on,0,0,0,,,,,,,,0,,,52,58
178600,set_tempo,40,1,0,,,,,,645161,,,,,,
178620,note_on,20,0,0,,,,,,,,0,,,52,0
178620,note_on,0,0,0,,,,,,,,0,,,67,0
178620,note_on,0,0,0,,,,,,,,0,,,66,66
178620,note_on,0,0,0,,,,,,,,0,,,50,58
178640,set_tempo,20,1,0,,,,,,641711,,,,,,
178680,note_on,40,0,0,,,,,,,,0,,,50,0
178680,note_on,0,0,0,,,,,,,,0,,,66,0
178680,note_on,0,0,0,,,,,,,,0,,,64,66
178680,note_on,0,0,0,,,,,,,,0,,,48,59
178700,set_tempo,20,1,0,,,,,,638298,,,,,,
178740,set_tempo,40,1,0,,,,,,634921,,,,,,
178740,note_on,0,0,0,,,,,,,,0,,,48,0
178740,note_on,0,0,0,,,,,,,,0,,,64,0
178740,note_on,0,0,0,,,,,,,,0,,,62,67
178740,note_on,0,0,0,,,,,,,,0,,,47,60
178780,set_tempo,40,1,0,,,,,,631579,,,,,,
178800,note_on,20,0,0,,,,,,,,0,,,47,0
178800,note_on,0,0,0,,,,,,,,0,,,62,0
178800,note_on,0,0,0,,,,,,,,0,,,60,68
178800,note_on,0,0,0,,,,,,,,0,,,45,60
178840,set_tempo,40,1,0,,,,,,628272,,,,,,
178860,note_on,20,0,0,,,,,,,,0,,,45,0
178860,note_on,0,0,0,,,,,,,,0,,,60,0
178860,note_on,0,0,0,,,,,,,,0,,,59,68
178860,note_on,0,0,0,,,,,,,,0,,,43,61
178880,set_tempo,20,1,0,,,,,,625000,,,,,,
178920,note_on,40,0,0,,,,,,,,0,,,43,0
178920,note_on,0,0,0,,,,,,,,0,,,59,0
178920,note_on,0,0,0,,,,,,,,0,,,57,69
178920,note_on,0,0,0,,,,,,,,0,,,42,61
178940,set_tempo,20,1,0,,,,,,621762,,,,,,
178980,set_tempo,40,1,0,,,,,,618557,,,,,,
178980,note_on,0,0,0,,,,,,,,0,,,42,0
178980,note_on,0,0,0,,,,,,,,0,,,57,0
178980,note_on,0,0,0,,,,,,,,0,,,55,69
178980,note_on,0,0,0,,,,,,,,0,,,40,62
179020,set_tempo,40,1,0,,,,,,615385,,,,,,
179040,note_on,20,0,0,,,,,,,,0,,,40,0
179040,note_on,0,0,0,,,,,,,,0,,,55,0
179040,note_on,0,0,0,,,,,,,,0,,,54,70
179040,note_on,0,0,0,,,,,,,,0,,,38,63
179080,set_tempo,40,1,0,,,,,,612245,,,,,,
179100,note_on,20,0,0,,,,,,,,0,,,38,0
179100,note_on,0,0,0,,,,,,,,0,,,54,0
179100,note_on,0,0,0,,,,,,,,0,,,52,70
179100,note_on,0,0,0,,,,,,,,0,,,36,63
179120,set_tempo,20,1,0,,,,,,609137,,,,,,
179160,note_on,40,0,0,,,,,,,,0,,,36,0
179160,note_on,0,0,0,,,,,,,,0,,,52,0
179160,note_on,0,0,0,,,,,,,,0,,,50,71
179160,note_on,0,0,0,,,,,,,,0,,,35,63
179180,set_tempo,20,1,0,,,,,,606061,,,,,,
179220,set_tempo,40,1,0,,,,,,603015,,,,,,
179220,note_on,0,0,0,,,,,,,,0,,,35,0
179220,note_on,0,0,0,,,,,,,,0,,,50,0
179220,note_on,0,0,0,,,,,,,,0,,,48,71
179220,note_on,0,0,0,,,,,,,,0,,,33,63
179260,set_tempo,40,1,0,,,,,,600000,,,,,,
179280,note_on,20,0,0,,,,,,,,0,,,33,0
179280,note_on,0,0,0,,,,,,,,0,,,48,0
179280,note_on,0,0,0,,,,,,,,0,,,47,72
179280,note_on,0,0,0,,,,,,,,0,,,38,64
179320,set_tempo,40,1,0,,,,,,597015,,,,,,
179340,note_on,20,0,0,,,,,,,,0,,,38,0
179340,note_on,0,0,0,,,,,,,,0,,,47,0
179340,note_on,0,0,0,,,,,,,,0,,,45,72
179340,note_on,0,0,0,,,,,,,,0,,,36,64
179360,set_tempo,20,1,0,,,,,,594059,,,,,,
179400,note_on,40,0,0,,,,,,,,0,,,36,0
179400,note_on,0,0,0,,,,,,,,0,,,45,0
179400,note_on,0,0,0,,,,,,,,0,,,43,80
179400,note_on,0,0,0,,,,,,,,0,,,31,73
179400,note_on,0,0,0,,,,,,,,0,,,35,73
179417,control_change,17,0,0,,,,,,,,0,64,0,,
179420,set_tempo,3,1,0,,,,,,591133,,,,,,
179460,set_tempo,40,1,0,,,,,,588235,,,,,,
179500,set_tempo,40,1,0,,,,,,585366,,,,,,
179520,set_tempo,20,1,0,,,,,,1290323,,,,,,
179543,control_change,23,0,0,,,,,,,,0,64,127,,
179980,set_tempo,437,1,0,,,,,,1052632,,,,,,
180000,set_tempo,20,1,0,,,,,,1025641,,,,,,
180020,set_tempo,20,1,0,,,,,,1000000,,,,,,
180040,set_tempo,20,1,0,,,,,,975610,,,,,,
180060,set_tempo,20,1,0,,,,,,952381,,,,,,
180060,note_on,0,0,0,,,,,,,,0,,,35,0
180060,note_on,0,0,0,,,,,,,,0,,,31,0
180060,note_on,0,0,0,,,,,,,,0,,,43,0
180060,note_on,0,0,0,,,,,,,,0,,,47,60
180060,note_on,0,0,0,,,,,,,,0,,,38,54
180080,set_tempo,20,1,0,,,,,,930233,,,,,,
180100,set_tempo,20,1,0,,,,,,902256,,,,,,
180120,set_tempo,20,1,0,,,,,,882353,,,,,,
180120,note_on,0,0,0,,,,,,,,0,,,38,0
180120,note_on,0,0,0,,,,,,,,0,,,47,0
180120,note_on,0,0,0,,,,,,,,0,,,50,62
180120,note_on,0,0,0,,,,,,,,0,,,43,55
180140,set_tempo,20,1,0,,,,,,863309,,,,,,
180160,set_tempo,20,1,0,,,,,,845070,,,,,,
180180,set_tempo,20,1,0,,,,,,827586,,,,,,
180180,note_on,0,0,0,,,,,,,,0,,,43,0
180180,note_on,0,0,0,,,,,,,,0,,,50,0
180180,note_on,0,0,0,,,,,,,,0,,,55,63
180180,note_on,0,0,0,,,,,,,,0,,,47,56
180200,set_tempo,20,1,0,,,,,,805369,,,,,,
180220,set_tempo,20,1,0,,,,,,789474,,,,,,
180240,set_tempo,20,1,0,,,,,,774194,,,,,,
180240,note_on,0,0,0,,,,,,,,0,,,47,0
180240,note_on,0,0,0,,,,,,,,0,,,55,0
180240,note_on,0,0,0,,,,,,,,0,,,59,64
180240,note_on,0,0,0,,,,,,,,0,,,50,58
180260,set_tempo,20,1,0,,,,,,759494,,,,,,
180280,set_tempo,20,1,0,,,,,,745342,,,,,,
180300,set_tempo,20,1,0,,,,,,731707,,,,,,
180300,note_on,0,0,0,,,,,,,,0,,,50,0
180300,note_on,0,0,0,,,,,,,,0,,,59,0
180300,note_on,0,0,0,,,,,,,,0,,,62,65
180300,note_on,0,0,0,,,,,,,,0,,,55,59
180320,set_tempo,20,1,0,,,,,,714286,,,,,,
180340,set_tempo,20,1,0,,,,,,701754,,,,,,
180360,set_tempo,20,1,0,,,,,,689655,,,,,,
180360,note_on,0,0,0,,,,,,,,0,,,55,0
180360,note_on,0,0,0,,,,,,,,0,,,62,0
180360,note_on,0,0,0,,,,,,,,0,,,67,67
180360,note_on,0,0,0,,,,,,,,0,,,59,60
180380,set_tempo,20,1,0,,,,,,677966,,,,,,
180400,set_tempo,20,1,0,,,,,,666667,,,,,,
180420,set_tempo,20,1,0,,,,,,652174,,,,,,
180420,note_on,0,0,0,,,,,,,,0,,,59,0
180420,note_on,0,0,0,,,,,,,,0,,,67,0
180420,note_on,0,0,0,,,,,,,,0,,,71,68
180420,note_on,0,0,0,,,,,,,,0,,,62,62
180460,set_tempo,40,1,0,,,,,,648649,,,,,,
180480,set_tempo,20,1,0,,,,,,645161,,,,,,
180480,note_on,0,0,0,,,,,,,,0,,,62,0
180480,note_on,0,0,0,,,,,,,,0,,,71,0
180480,note_on,0,0,0,,,,,,,,0,,,74,70
180480,note_on,0,0,0,,,,,,,,0,,,67,63
180500,set_tempo,20,1,0,,,,,,641711,,,,,,
180520,set_tempo,20,1,0,,,,,,638298,,,,,,
180540,note_on,20,0,0,,,,,,,,0,,,67,0
180540,note_on,0,0,0,,,,,,,,0,,,74,0
180540,note_on,0,0,0,,,,,,,,0,,,79,71
180540,note_on,0,0,0,,,,,,,,0,,,71,64
180560,set_tempo,20,1,0,,,,,,634921,,,,,,
180580,set_tempo,20,1,0,,,,,,631579,,,,,,
180600,set_tempo,20,1,0,,,,,,628272,,,,,,
180600,note_on,0,0,0,,,,,,,,0,,,71,0
180600,note_on,0,0,0,,,,,,,,0,,,79,0
180600,note_on,0,0,0,,,,,,,,0,,,83,72
180600,note_on,0,0,0,,,,,,,,0,,,74,65
180620,set_tempo,20,1,0,,,,,,625000,,,,,,
180660,set_tempo,40,1,0,,,,,,621762,,,,,,
180660,note_on,0,0,0,,,,,,,,0,,,74,0
180660,note_on,0,0,0,,,,,,,,0,,,83,0
180660,note_on,0,0,0,,,,,,,,0,,,86,73
180660,note_on,0,0,0,,,,,,,,0,,,79,64
180680,set_tempo,20,1,0,,,,,,618557,,,,,,
180700,set_tempo,20,1,0,,,,,,615385,,,,,,
180720,set_tempo,20,1,0,,,,,,612245,,,,,,
180720,note_on,0,0,0,,,,,,,,0,,,79,0
180720,note_on,0,0,0,,,,,,,,0,,,86,0
180720,note_on,0,0,0,,,,,,,,0,,,91,75
180720,note_on,0,0,0,,,,,,,,0,,,83,66
180760,set_tempo,40,1,0,,,,,,609137,,,,,,
180780,set_tempo,20,1,0,,,,,,606061,,,,,,
180780,note_on,0,0,0,,,,,,,,0,,,83,0
180780,note_on,0,0,0,,,,,,,,0,,,91,0
180780,note_on,0,0,0,,,,,,,,0,,,95,78
180780,note_on,0,0,0,,,,,,,,0,,,86,68
180800,set_tempo,20,1,0,,,,,,603015,,,,,,
180820,set_tempo,20,1,0,,,,,,600000,,,,,,
180840,note_on,20,0,0,,,,,,,,0,,,86,0
180840,note_on,0,0,0,,,,,,,,0,,,98,80
180840,note_on,0,0,0,,,,,,,,0,,,91,75
180860,set_tempo,20,1,0,,,,,,597015,,,,,,
180880,set_tempo,20,1,0,,,,,,594059,,,,,,
180900,set_tempo,20,1,0,,,,,,591133,,,,,,
180920,set_tempo,20,1,0,,,,,,588235,,,,,,
180940,set_tempo,20,1,0,,,,,,585366,,,,,,
180960,set_tempo,20,1,0,,,,,,1212121,,,,,,
180974,control_change,14,0,0,,,,,,,,0,64,0,,
181077,control_change,103,0,0,,,,,,,,0,64,127,,
181460,set_tempo,383,1,0,,,,,,1090909,,,,,,
181500,set_tempo,40,1,0,,,,,,1081081,,,,,,
181500,note_on,0,0,0,,,,,,,,0,,,91,0
181500,note_on,0,0,0,,,,,,,,0,,,98,0
181500,note_on,0,0,0,,,,,,,,0,,,95,0
181500,note_on,0,0,0,,,,,,,,0,,,96,58
181500,note_on,0,0,0,,,,,,,,0,,,88,50
181520,set_tempo,20,1,0,,,,,,1071429,,,,,,
181540,set_tempo,20,1,0,,,,,,1061947,,,,,,
181560,note_on,20,0,0,,,,,,,,0,,,88,0
181560,note_on,0,0,0,,,,,,,,0,,,96,0
181560,note_on,0,0,0,,,,,,,,0,,,95,58
181560,note_on,0,0,0,,,,,,,,0,,,86,50
181580,set_tempo,20,1,0,,,,,,1052632,,,,,,
181600,set_tempo,20,1,0,,,,,,1043478,,,,,,
181620,set_tempo,20,1,0,,,,,,1034483,,,,,,
181620,note_on,0,0,0,,,,,,,,0,,,86,0
181620,note_on,0,0,0,,,,,,,,0,,,95,0
181620,note_on,0,0,0,,,,,,,,0,,,93,58
181620,note_on,0,0,0,,,,,,,,0,,,84,50
181640,set_tempo,20,1,0,,,,,,1025641,,,,,,
181660,set_tempo,20,1,0,,,,,,1008403,,,,,,
181680,set_tempo,20,1,0,,,,,,991736,,,,,,
181680,note_on,0,0,0,,,,,,,,0,,,84,0
181680,note_on,0,0,0,,,,,,,,0,,,93,0
181680,note_on,0,0,0,,,,,,,,0,,,91,59
181680,note_on,0,0,0,,,,,,,,0,,,83,51
181700,set_tempo,20,1,0,,,,,,983607,,,,,,
181720,set_tempo,20,1,0,,,,,,967742,,,,,,
181740,set_tempo,20,1,0,,,,,,952381,,,,,,
181740,note_on,0,0,0,,,,,,,,0,,,83,0
181740,note_on,0,0,0,,,,,,,,0,,,91,0
181740,note_on,0,0,0,,,,,,,,0,,,90,59
181740,note_on,0,0,0,,,,,,,,0,,,81,51
181760,set_tempo,20,1,0,,,,,,937500,,,,,,
181780,set_tempo,20,1,0,,,,,,930233,,,,,,
181800,set_tempo,20,1,0,,,,,,916031,,,,,,
181800,note_on,0,0,0,,,,,,,,0,,,81,0
181800,note_on,0,0,0,,,,,,,,0,,,90,0
181800,note_on,0,0,0,,,,,,,,0,,,88,60
181800,note_on,0,0,0,,,,,,,,0,,,79,52
181820,set_tempo,20,1,0,,,,,,902256,,,,,,
181840,set_tempo,20,1,0,,,,,,888889,,,,,,
181860,set_tempo,20,1,0,,,,,,882353,,,,,,
181860,note_on,0,0,0,,,,,,,,0,,,79,0
181860,note_on,0,0,0,,,,,,,,0,,,88,0
181860,note_on,0,0,0,,,,,,,,0,,,86,60
181860,note_on,0,0,0,,,,,,,,0,,,78,52
181880,set_tempo,20,1,0,,,,,,869565,,,,,,
181900,set_tempo,20,1,0,,,,,,857143,,,,,,
181920,set_tempo,20,1,0,,,,,,845070,,,,,,
181920,note_on,0,0,0,,,,,,,,0,,,78,0
181920,note_on,0,0,0,,,,,,,,0,,,86,0
181920,note_on,0,0,0,,,,,,,,0,,,84,61
181920,note_on,0,0,0,,,,,,,,0,,,76,53
181940,set_tempo,20,1,0,,,,,,839161,,,,,,
181960,set_tempo,20,1,0,,,,,,827586,,,,,,
181980,set_tempo,20,1,0,,,,,,816327,,,,,,
181980,note_on,0,0,0,,,,,,,,0,,,76,0
181980,note_on,0,0,0,,,,,,,,0,,,84,0
181980,note_on,0,0,0,,,,,,,,0,,,83,62
181980,note_on,0,0,0,,,,,,,,0,,,74,54
182000,set_tempo,20,1,0,,,,,,805369,,,,,,
182020,set_tempo,20,1,0,,,,,,800000,,,,,,
182040,set_tempo,20,1,0,,,,,,789474,,,,,,
182040,note_on,0,0,0,,,,,,,,0,,,74,0
182040,note_on,0,0,0,,,,,,,,0,,,83,0
182040,note_on,0,0,0,,,,,,,,0,,,81,62
182040,note_on,0,0,0,,,,,,,,0,,,72,54
182060,set_tempo,20,1,0,,,,,,779221,,,,,,
182080,set_tempo,20,1,0,,,,,,774194,,,,,,
182100,set_tempo,20,1,0,,,,,,764331,,,,,,
182100,note_on,0,0,0,,,,,,,,0,,,72,0
182100,note_on,0,0,0,,,,,,,,0,,,81,0
182100,note_on,0,0,0,,,,,,,,0,,,79,63
182100,note_on,0,0,0,,,,,,,,0,,,71,54
182120,set_tempo,20,1,0,,,,,,754717,,,,,,
182140,set_tempo,20,1,0,,,,,,745342,,,,,,
182160,set_tempo,20,1,0,,,,,,740741,,,,,,
182160,note_on,0,0,0,,,,,,,,0,,,71,0
182160,note_on,0,0,0,,,,,,,,0,,,79,0
182160,note_on,0,0,0,,,,,,,,0,,,78,63
182160,note_on,0,0,0,,,,,,,,0,,,69,54
182180,set_tempo,20,1,0,,,,,,731707,,,,,,
182200,set_tempo,20,1,0,,,,,,722892,,,,,,
182220,set_tempo,20,1,0,,,,,,714286,,,,,,
182220,note_on,0,0,0,,,,,,,,0,,,69,0
182220,note_on,0,0,0,,,,,,,,0,,,78,0
182220,note_on,0,0,0,,,,,,,,0,,,76,63
182220,note_on,0,0,0,,,,,,,,0,,,67,55
182240,set_tempo,20,1,0,,,,,,710059,,,,,,
182260,set_tempo,20,1,0,,,,,,701754,,,,,,
182280,set_tempo,20,1,0,,,,,,693642,,,,,,
182280,note_on,0,0,0,,,,,,,,0,,,67,0
182280,note_on,0,0,0,,,,,,,,0,,,76,0
182280,note_on,0,0,0,,,,,,,,0,,,74,63
182280,note_on,0,0,0,,,,,,,,0,,,66,56
182300,set_tempo,20,1,0,,,,,,685714,,,,,,
182320,set_tempo,20,1,0,,,,,,681818,,,,,,
182340,set_tempo,20,1,0,,,,,,674157,,,,,,
182340,note_on,0,0,0,,,,,,,,0,,,66,0
182340,note_on,0,0,0,,,,,,,,0,,,74,0
182340,note_on,0,0,0,,,,,,,,0,,,72,64
182340,note_on,0,0,0,,,,,,,,0,,,64,56
182360,set_tempo,20,1,0,,,,,,659341,,,,,,
182400,set_tempo,40,1,0,,,,,,655738,,,,,,
182400,note_on,0,0,0,,,,,,,,0,,,64,0
182400,note_on,0,0,0,,,,,,,,0,,,72,0
182400,note_on,0,0,0,,,,,,,,0,,,71,64
182400,note_on,0,0,0,,,,,,,,0,,,62,57
182440,set_tempo,40,1,0,,,,,,652174,,,,,,
182460,note_on,20,0,0,,,,,,,,0,,,62,0
182460,note_on,0,0,0,,,,,,,,0,,,71,0
182460,note_on,0,0,0,,,,,,,,0,,,69,65
182460,note_on,0,0,0,,,,,,,,0,,,60,57
182480,set_tempo,20,1,0,,,,,,648649,,,,,,
182520,set_tempo,40,1,0,,,,,,645161,,,,,,
182520,note_on,0,0,0,,,,,,,,0,,,60,0
182520,note_on,0,0,0,,,,,,,,0,,,69,0
182520,note_on,0,0,0,,,,,,,,0,,,67,65
182520,note_on,0,0,0,,,,,,,,0,,,59,58
182560,set_tempo,40,1,0,,,,,,641711,,,,,,
182580,note_on,20,0,0,,,,,,,,0,,,59,0
182580,note_on,0,0,0,,,,,,,,0,,,67,0
182580,note_on,0,0,0,,,,,,,,0,,,66,66
182580,note_on,0,0,0,,,,,,,,0,,,57,58
182600,set_tempo,20,1,0,,,,,,638298,,,,,,
182620,set_tempo,20,1,0,,,,,,634921,,,,,,
182640,note_on,20,0,0,,,,,,,,0,,,57,0
182640,note_on,0,0,0,,,,,,,,0,,,66,0
182640,note_on,0,0,0,,,,,,,,0,,,64,66
182640,note_on,0,0,0,,,,,,,,0,,,55,59
182660,set_tempo,20,1,0,,,,,,631579,,,,,,
182700,set_tempo,40,1,0,,,,,,628272,,,,,,
182700,note_on,0,0,0,,,,,,,,0,,,55,0
182700,note_on,0,0,0,,,,,,,,0,,,64,0
182700,note_on,0,0,0,,,,,,,,0,,,62,67
182700,note_on,0,0,0,,,,,,,,0,,,54,60
182740,set_tempo,40,1,0,,,,,,625000,,,,,,
182760,note_on,20,0,0,,,,,,,,0,,,54,0
182760,note_on,0,0,0,,,,,,,,0,,,62,0
182760,note_on,0,0,0,,,,,,,,0,,,60,68
182760,note_on,0,0,0,,,,,,,,0,,,52,60
182780,set_tempo,20,1,0,,,,,,621762,,,,,,
182820,set_tempo,40,1,0,,,,,,618557,,,,,,
182820,note_on,0,0,0,,,,,,,,0,,,52,0
182820,note_on,0,0,0,,,,,,,,0,,,60,0
182820,note_on,0,0,0,,,,,,,,0,,,59,68
182820,note_on,0,0,0,,,,,,,,0,,,50,61
182860,set_tempo,40,1,0,,,,,,615385,,,,,,
182880,set_tempo,20,1,0,,,,,,612245,,,,,,
182880,note_on,0,0,0,,,,,,,,0,,,50,0
182880,note_on,0,0,0,,,,,,,,0,,,59,0
182880,note_on,0,0,0,,,,,,,,0,,,57,69
182880,note_on,0,0,0,,,,,,,,0,,,48,61
182940,set_tempo,60,1,0,,,,,,609137,,,,,,
182940,note_on,0,0,0,,,,,,,,0,,,48,0
182940,note_on,0,0,0,,,,,,,,0,,,57,0
182940,note_on,0,0,0,,,,,,,,0,,,55,69
182940,note_on,0,0,0,,,,,,,,0,,,47,62
183000,set_tempo,60,1,0,,,,,,606061,,,,,,
183000,note_on,0,0,0,,,,,,,,0,,,47,0
183000,note_on,0,0,0,,,,,,,,0,,,55,0
183000,note_on,0,0,0,,,,,,,,0,,,54,70
183000,note_on,0,0,0,,,,,,,,0,,,45,61
183060,set_tempo,60,1,0,,,,,,603015,,,,,,
183060,note_on,0,0,0,,,,,,,,0,,,45,0
183060,note_on,0,0,0,,,,,,,,0,,,54,0
183060,note_on,0,0,0,,,,,,,,0,,,52,69
183060,note_on,0,0,0,,,,,,,,0,,,43,62
183120,set_tempo,60,1,0,,,,,,600000,,,,,,
183120,note_on,0,0,0,,,,,,,,0,,,43,0
183120,note_on,0,0,0,,,,,,,,0,,,52,0
183120,note_on,0,0,0,,,,,,,,0,,,50,70
183120,note_on,0,0,0,,,,,,,,0,,,42,63
183180,set_tempo,60,1,0,,,,,,597015,,,,,,
183180,note_on,0,0,0,,,,,,,,0,,,42,0
183180,note_on,0,0,0,,,,,,,,0,,,50,0
183180,note_on,0,0,0,,,,,,,,0,,,48,72
183180,note_on,0,0,0,,,,,,,,0,,,40,63
183240,set_tempo,60,1,0,,,,,,594059,,,,,,
183240,note_on,0,0,0,,,,,,,,0,,,40,0
183240,note_on,0,0,0,,,,,,,,0,,,48,0
183240,note_on,0,0,0,,,,,,,,0,,,47,73
183240,note_on,0,0,0,,,,,,,,0,,,38,65
183300,set_tempo,60,1,0,,,,,,591133,,,,,,
183300,note_on,0,0,0,,,,,,,,0,,,38,0
183300,note_on,0,0,0,,,,,,,,0,,,47,0
183300,note_on,0,0,0,,,,,,,,0,,,45,74
183300,note_on,0,0,0,,,,,,,,0,,,36,66
183340,set_tempo,40,1,0,,,,,,588235,,,,,,
183360,time_signature,20,1,0,7,4,24,8,,,,,,,,
183360,set_tempo,0,1,0,,,,,,1200000,,,,,,
183360,note_on,0,0,0,,,,,,,,0,,,36,0
183360,note_on,0,0,0,,,,,,,,0,,,45,0
183360,note_on,0,0,0,,,,,,,,0,,,43,80
183360,note_on,0,0,0,,,,,,,,0,,,31,73
183360,note_on,0,0,0,,,,,,,,0,,,35,73
183377,control_change,17,0,0,,,,,,,,0,64,0,,
183474,control_change,97,0,0,,,,,,,,0,64,127,,
183840,set_tempo,366,1,0,,,,,,1081081,,,,,,
183852,set_tempo,12,1,0,,,,,,1071429,,,,,,
183864,set_tempo,12,1,0,,,,,,1061947,,,,,,
183880,set_tempo,16,1,0,,,,,,1052632,,,,,,
183892,set_tempo,12,1,0,,,,,,1043478,,,,,,
183900,note_on,8,0,0,,,,,,,,0,,,35,0
183900,note_on,0,0,0,,,,,,,,0,,,31,0
183900,note_on,0,0,0,,,,,,,,0,,,43,0
183900,note_on,0,0,0,,,,,,,,0,,,44,61
183900,note_on,0,0,0,,,,,,,,0,,,36,43
183904,set_tempo,4,1,0,,,,,,1034483,,,,,,
183920,set_tempo,16,1,0,,,,,,1025641,,,,,,
183932,set_tempo,12,1,0,,,,,,1016949,,,,,,
183944,set_tempo,12,1,0,,,,,,1000000,,,,,,
183960,set_tempo,16,1,0,,,,,,991736,,,,,,
183960,note_on,0,0,0,,,,,,,,0,,,36,0
183960,note_on,0,0,0,,,,,,,,0,,,44,0
183960,note_on,0,0,0,,,,,,,,0,,,45,61
183960,note_on,0,0,0,,,,,,,,0,,,37,44
183972,set_tempo,12,1,0,,,,,,983607,,,,,,
183984,set_tempo,12,1,0,,,,,,975610,,,,,,
184000,set_tempo,16,1,0,,,,,,967742,,,,,,
184012,set_tempo,12,1,0,,,,,,960000,,,,,,
184020,note_on,8,0,0,,,,,,,,0,,,37,0
184020,note_on,0,0,0,,,,,,,,0,,,45,0
184020,note_on,0,0,0,,,,,,,,0,,,46,62
184020,note_on,0,0,0,,,,,,,,0,,,38,44
184024,set_tempo,4,1,0,,,,,,952381,,,,,,
184040,set_tempo,16,1,0,,,,,,944882,,,,,,
184052,set_tempo,12,1,0,,,,,,930233,,,,,,
184064,set_tempo,12,1,0,,,,,,923077,,,,,,
184080,set_tempo,16,1,0,,,,,,916031,,,,,,
184080,note_on,0,0,0,,,,,,,,0,,,38,0
184080,note_on,0,0,0,,,,,,,,0,,,46,0
184080,note_on,0,0,0,,,,,,,,0,,,47,63
184080,note_on,0,0,0,,,,,,,,0,,,39,45
184092,set_tempo,12,1,0,,,,,,909091,,,,,,
184104,set_tempo,12,1,0,,,,,,902256,,,,,,
184120,set_tempo,16,1,0,,,,,,895522,,,,,,
184132,set_tempo,12,1,0,,,,,,888889,,,,,,
184140,note_on,8,0,0,,,,,,,,0,,,39,0
184140,note_on,0,0,0,,,,,,,,0,,,47,0
184140,note_on,0,0,0,,,,,,,,0,,,48,63
184140,note_on,0,0,0,,,,,,,,0,,,40,45
184144,set_tempo,4,1,0,,,,,,882353,,,,,,
184160,set_tempo,16,1,0,,,,,,869565,,,,,,
184172,set_tempo,12,1,0,,,,,,863309,,,,,,
184184,set_tempo,12,1,0,,,,,,857143,,,,,,
184200,set_tempo,16,1,0,,,,,,851064,,,,,,
184200,note_on,0,0,0,,,,,,,,0,,,40,0
184200,note_on,0,0,0,,,,,,,,0,,,48,0
184200,note_on,0,0,0,,,,,,,,0,,,49,63
184200,note_on,0,0,0,,,,,,,,0,,,41,46
184212,set_tempo,12,1,0,,,,,,845070,,,,,,
184224,set_tempo,12,1,0,,,,,,839161,,,,,,
184240,set_tempo,16,1,0,,,,,,833333,,,,,,
184252,set_tempo,12,1,0,,,,,,827586,,,,,,
184260,note_on,8,0,0,,,,,,,,0,,,41,0
184260,note_on,0,0,0,,,,,,,,0,,,49,0
184260,note_on,0,0,0,,,,,,,,0,,,50,64
184260,note_on,0,0,0,,,,,,,,0,,,42,46
184264,set_tempo,4,1,0,,,,,,816327,,,,,,
184280,set_tempo,16,1,0,,,,,,810811,,,,,,
184292,set_tempo,12,1,0,,,,,,805369,,,,,,
184300,set_tempo,8,1,0,,,,,,805369,,,,,,
184320,set_tempo,20,1,0,,,,,,800000,,,,,,
184320,note_on,0,0,0,,,,,,,,0,,,42,0
184320,note_on,0,0,0,,,,,,,,0,,,50,0
184320,note_on,0,0,0,,,,,,,,0,,,51,64
184320,note_on,0,0,0,,,,,,,,0,,,43,47
184340,set_tempo,20,1,0,,,,,,789474,,,,,,
184360,set_tempo,20,1,0,,,,,,784314,,,,,,
184380,set_tempo,20,1,0,,,,,,774194,,,,,,
184380,note_on,0,0,0,,,,,,,,0,,,43,0
184380,note_on,0,0,0,,,,,,,,0,,,51,0
184380,note_on,0,0,0,,,,,,,,0,,,52,65
184380,note_on,0,0,0,,,,,,,,0,,,44,48
184400,set_tempo,20,1,0,,,,,,769231,,,,,,
184420,set_tempo,20,1,0,,,,,,759494,,,,,,
184440,set_tempo,20,1,0,,,,,,750000,,,,,,
184440,note_on,0,0,0,,,,,,,,0,,,44,0
184440,note_on,0,0,0,,,,,,,,0,,,52,0
184440,note_on,0,0,0,,,,,,,,0,,,53,66
184440,note_on,0,0,0,,,,,,,,0,,,45,49
184460,set_tempo,20,1,0,,,,,,745342,,,,,,
184480,set_tempo,20,1,0,,,,,,736196,,,,,,
184500,set_tempo,20,1,0,,,,,,731707,,,,,,
184500,note_on,0,0,0,,,,,,,,0,,,45,0
184500,note_on,0,0,0,,,,,,,,0,,,53,0
184500,note_on,0,0,0,,,,,,,,0,,,54,66
184500,note_on,0,0,0,,,,,,,,0,,,46,49
184520,set_tempo,20,1,0,,,,,,722892,,,,,,
184540,set_tempo,20,1,0,,,,,,714286,,,,,,
184560,set_tempo,20,1,0,,,,,,710059,,,,,,
184560,note_on,0,0,0,,,,,,,,0,,,46,0
184560,note_on,0,0,0,,,,,,,,0,,,54,0
184560,note_on,0,0,0,,,,,,,,0,,,55,67
184560,note_on,0,0,0,,,,,,,,0,,,47,50
184580,set_tempo,20,1,0,,,,,,701754,,,,,,
184600,set_tempo,20,1,0,,,,,,697674,,,,,,
184620,set_tempo,20,1,0,,,,,,689655,,,,,,
184620,note_on,0,0,0,,,,,,,,0,,,47,0
184620,note_on,0,0,0,,,,,,,,0,,,55,0
184620,note_on,0,0,0,,,,,,,,0,,,56,68
184620,note_on,0,0,0,,,,,,,,0,,,48,51
184640,set_tempo,20,1,0,,,,,,685714,,,,,,
184660,set_tempo,20,1,0,,,,,,677966,,,,,,
184680,set_tempo,20,1,0,,,,,,670391,,,,,,
184680,note_on,0,0,0,,,,,,,,0,,,48,0
184680,note_on,0,0,0,,,,,,,,0,,,56,0
184680,note_on,0,0,0,,,,,,,,0,,,57,68
184680,note_on,0,0,0,,,,,,,,0,,,49,52
184700,set_tempo,20,1,0,,,,,,666667,,,,,,
184720,set_tempo,20,1,0,,,,,,659341,,,,,,
184740,set_tempo,20,1,0,,,,,,655738,,,,,,
184740,note_on,0,0,0,,,,,,,,0,,,49,0
184740,note_on,0,0,0,,,,,,,,0,,,57,0
184740,note_on,0,0,0,,,,,,,,0,,,58,69
184740,note_on,0,0,0,,,,,,,,0,,,50,52
184760,set_tempo,20,1,0,,,,,,648649,,,,,,
184780,set_tempo,20,1,0,,,,,,641711,,,,,,
184784,set_tempo,4,1,0,,,,,,631579,,,,,,
184800,set_tempo,16,1,0,,,,,,638298,,,,,,
184800,note_on,0,0,0,,,,,,,,0,,,50,0
184800,note_on,0,0,0,,,,,,,,0,,,58,0
184800,note_on,0,0,0,,,,,,,,0,,,59,69
184800,note_on,0,0,0,,,,,,,,0,,,51,53
184860,set_tempo,60,1,0,,,,,,634921,,,,,,
184860,note_on,0,0,0,,,,,,,,0,,,51,0
184860,note_on,0,0,0,,,,,,,,0,,,59,0
184860,note_on,0,0,0,,,,,,,,0,,,60,70
184860,note_on,0,0,0,,,,,,,,0,,,52,54
184920,set_tempo,60,1,0,,,,,,631579,,,,,,
184920,note_on,0,0,0,,,,,,,,0,,,52,0
184920,note_on,0,0,0,,,,,,,,0,,,60,0
184920,note_on,0,0,0,,,,,,,,0,,,61,71
184920,note_on,0,0,0,,,,,,,,0,,,53,54
184960,set_tempo,40,1,0,,,,,,628272,,,,,,
184980,note_on,20,0,0,,,,,,,,0,,,53,0
184980,note_on,0,0,0,,,,,,,,0,,,61,0
184980,note_on,0,0,0,,,,,,,,0,,,62,72
184980,note_on,0,0,0,,,,,,,,0,,,54,54
185020,set_tempo,40,1,0,,,,,,625000,,,,,,
185040,note_on,20,0,0,,,,,,,,0,,,54,0
185040,note_on,0,0,0,,,,,,,,0,,,62,0
185040,note_on,0,0,0,,,,,,,,0,,,63,72
185040,note_on,0,0,0,,,,,,,,0,,,55,55
185080,set_tempo,40,1,0,,,,,,621762,,,,,,
185100,note_on,20,0,0,,,,,,,,0,,,55,0
185100,note_on,0,0,0,,,,,,,,0,,,63,0
185100,note_on,0,0,0,,,,,,,,0,,,64,72
185100,note_on,0,0,0,,,,,,,,0,,,56,56
185120,set_tempo,20,1,0,,,,,,618557,,,,,,
185160,note_on,40,0,0,,,,,,,,0,,,56,0
185160,note_on,0,0,0,,,,,,,,0,,,64,0
185160,note_on,0,0,0,,,,,,,,0,,,65,72
185160,note_on,0,0,0,,,,,,,,0,,,57,57
185180,set_tempo,20,1,0,,,,,,615385,,,,,,
185220,note_on,40,0,0,,,,,,,,0,,,57,0
185220,note_on,0,0,0,,,,,,,,0,,,65,0
185220,note_on,0,0,0,,,,,,,,0,,,66,73
185220,note_on,0,0,0,,,,,,,,0,,,58,57
185240,set_tempo,20,1,0,,,,,,612245,,,,,,
185260,set_tempo,20,1,0,,,,,,606061,,,,,,
185280,note_on,20,0,0,,,,,,,,0,,,58,0
185280,note_on,0,0,0,,,,,,,,0,,,66,0
185280,note_on,0,0,0,,,,,,,,0,,,67,76
185280,note_on,0,0,0,,,,,,,,0,,,59,53
185340,note_on,60,0,0,,,,,,,,0,,,59,0
185340,note_on,0,0,0,,,,,,,,0,,,67,0
185340,note_on,0,0,0,,,,,,,,0,,,66,75
185340,note_on,0,0,0,,,,,,,,0,,,58,53
185360,set_tempo,20,1,0,,,,,,603015,,,,,,
185400,note_on,40,0,0,,,,,,,,0,,,58,0
185400,note_on,0,0,0,,,,,,,,0,,,66,0
185400,note_on,0,0,0,,,,,,,,0,,,65,74
185400,note_on,0,0,0,,,,,,,,0,,,57,52
185440,set_tempo,40,1,0,,,,,,600000,,,,,,
185460,note_on,20,0,0,,,,,,,,0,,,57,0
185460,note_on,0,0,0,,,,,,,,0,,,65,0
185460,note_on,0,0,0,,,,,,,,0,,,64,72
185460,note_on,0,0,0,,,,,,,,0,,,56,51
185520,set_tempo,60,1,0,,,,,,597015,,,,,,
185520,note_on,0,0,0,,,,,,,,0,,,56,0
185520,note_on,0,0,0,,,,,,,,0,,,64,0
185520,note_on,0,0,0,,,,,,,,0,,,63,72
185520,note_on,0,0,0,,,,,,,,0,,,55,51
185580,note_on,60,0,0,,,,,,,,0,,,55,0
185580,note_on,0,0,0,,,,,,,,0,,,63,0
185580,note_on,0,0,0,,,,,,,,0,,,62,71
185580,note_on,0,0,0,,,,,,,,0,,,54,50
185600,set_tempo,20,1,0,,,,,,594059,,,,,,
185640,note_on,40,0,0,,,,,,,,0,,,54,0
185640,note_on,0,0,0,,,,,,,,0,,,62,0
185640,note_on,0,0,0,,,,,,,,0,,,61,70
185640,note_on,0,0,0,,,,,,,,0,,,53,49
185680,set_tempo,40,1,0,,,,,,591133,,,,,,
185700,note_on,20,0,0,,,,,,,,0,,,53,0
185700,note_on,0,0,0,,,,,,,,0,,,61,0
185700,note_on,0,0,0,,,,,,,,0,,,60,68
185700,note_on,0,0,0,,,,,,,,0,,,52,49
185760,set_tempo,60,1,0,,,,,,588235,,,,,,
185760,note_on,0,0,0,,,,,,,,0,,,52,0
185760,note_on,0,0,0,,,,,,,,0,,,60,0
185760,note_on,0,0,0,,,,,,,,0,,,59,66
185760,note_on,0,0,0,,,,,,,,0,,,51,46
185800,set_tempo,40,1,0,,,,,,591133,,,,,,
185820,note_on,20,0,0,,,,,,,,0,,,51,0
185820,note_on,0,0,0,,,,,,,,0,,,59,0
185820,note_on,0,0,0,,,,,,,,0,,,58,67
185820,note_on,0,0,0,,,,,,,,0,,,50,47
185840,set_tempo,20,1,0,,,,,,594059,,,,,,
185880,set_tempo,40,1,0,,,,,,597015,,,,,,
185880,note_on,0,0,0,,,,,,,,0,,,50,0
185880,note_on,0,0,0,,,,,,,,0,,,58,0
185880,note_on,0,0,0,,,,,,,,0,,,57,68
185880,note_on,0,0,0,,,,,,,,0,,,49,48
185920,set_tempo,40,1,0,,,,,,600000,,,,,,
185940,note_on,20,0,0,,,,,,,,0,,,49,0
185940,note_on,0,0,0,,,,,,,,0,,,57,0
185940,note_on,0,0,0,,,,,,,,0,,,56,69
185940,note_on,0,0,0,,,,,,,,0,,,48,50
185960,set_tempo,20,1,0,,,,,,603015,,,,,,
186000,set_tempo,40,1,0,,,,,,606061,,,,,,
186000,note_on,0,0,0,,,,,,,,0,,,48,0
186000,note_on,0,0,0,,,,,,,,0,,,56,0
186000,note_on,0,0,0,,,,,,,,0,,,55,70
186000,note_on,0,0,0,,,,,,,,0,,,47,51
186040,set_tempo,40,1,0,,,,,,609137,,,,,,
186060,set_tempo,20,1,0,,,,,,612245,,,,,,
186060,note_on,0,0,0,,,,,,,,0,,,47,0
186060,note_on,0,0,0,,,,,,,,0,,,55,0
186060,note_on,0,0,0,,,,,,,,0,,,54,71
186060,note_on,0,0,0,,,,,,,,0,,,46,53
186100,set_tempo,40,1,0,,,,,,615385,,,,,,
186120,note_on,20,0,0,,,,,,,,0,,,46,0
186120,note_on,0,0,0,,,,,,,,0,,,54,0
186120,note_on,0,0,0,,,,,,,,0,,,53,72
186120,note_on,0,0,0,,,,,,,,0,,,45,54
186140,set_tempo,20,1,0,,,,,,618557,,,,,,
186180,set_tempo,40,1,0,,,,,,621762,,,,,,
186180,note_on,0,0,0,,,,,,,,0,,,45,0
186180,note_on,0,0,0,,,,,,,,0,,,53,0
186180,note_on,0,0,0,,,,,,,,0,,,52,73
186180,note_on,0,0,0,,,,,,,,0,,,44,55
186220,set_tempo,40,1,0,,,,,,625000,,,,,,
186240,note_on,20,0,0,,,,,,,,0,,,44,0
186240,note_on,0,0,0,,,,,,,,0,,,52,0
186240,note_on,0,0,0,,,,,,,,0,,,51,74
186240,note_on,0,0,0,,,,,,,,0,,,43,59
186260,set_tempo,20,1,0,,,,,,628272,,,,,,
186300,set_tempo,40,1,0,,,,,,631579,,,,,,
186300,note_on,0,0,0,,,,,,,,0,,,43,0
186300,note_on,0,0,0,,,,,,,,0,,,51,0
186300,note_on,0,0,0,,,,,,,,0,,,50,75
186300,note_on,0,0,0,,,,,,,,0,,,42,60
186340,set_tempo,40,1,0,,,,,,634921,,,,,,
186360,set_tempo,20,1,0,,,,,,638298,,,,,,
186360,note_on,0,0,0,,,,,,,,0,,,42,0
186360,note_on,0,0,0,,,,,,,,0,,,50,0
186360,note_on,0,0,0,,,,,,,,0,,,49,77
186360,note_on,0,0,0,,,,,,,,0,,,41,62
186400,set_tempo,40,1,0,,,,,,641711,,,,,,
186420,note_on,20,0,0,,,,,,,,0,,,41,0
186420,note_on,0,0,0,,,,,,,,0,,,49,0
186420,note_on,0,0,0,,,,,,,,0,,,48,79
186420,note_on,0,0,0,,,,,,,,0,,,40,63
186440,set_tempo,20,1,0,,,,,,645161,,,,,,
186480,set_tempo,40,1,0,,,,,,648649,,,,,,
186480,note_on,0,0,0,,,,,,,,0,,,40,0
186480,note_on,0,0,0,,,,,,,,0,,,48,0
186480,note_on,0,0,0,,,,,,,,0,,,47,80
186480,note_on,0,0,0,,,,,,,,0,,,39,64
186520,set_tempo,40,1,0,,,,,,652174,,,,,,
186540,note_on,20,0,0,,,,,,,,0,,,39,0
186540,note_on,0,0,0,,,,,,,,0,,,47,0
186540,note_on,0,0,0,,,,,,,,0,,,46,81
186540,note_on,0,0,0,,,,,,,,0,,,38,66
186560,set_tempo,20,1,0,,,,,,655738,,,,,,
186600,set_tempo,40,1,0,,,,,,659341,,,,,,
186600,note_on,0,0,0,,,,,,,,0,,,38,0
186600,note_on,0,0,0,,,,,,,,0,,,46,0
186600,note_on,0,0,0,,,,,,,,0,,,45,83
186600,note_on,0,0,0,,,,,,,,0,,,37,67
186640,set_tempo,40,1,0,,,,,,662983,,,,,,
186660,set_tempo,20,1,0,,,,,,666667,,,,,,
186660,note_on,0,0,0,,,,,,,,0,,,37,0
186660,note_on,0,0,0,,,,,,,,0,,,45,0
186660,note_on,0,0,0,,,,,,,,0,,,44,85
186660,note_on,0,0,0,,,,,,,,0,,,36,69
186720,set_tempo,60,1,0,,,,,,1008403,,,,,,
186720,note_on,0,0,0,,,,,,,,0,,,36,0
186720,note_on,0,0,0,,,,,,,,0,,,44,0
186720,note_on,0,0,0,,,,,,,,0,,,43,97
186720,note_on,0,0,0,,,,,,,,0,,,31,79
186720,note_on,0,0,0,,,,,,,,0,,,35,79
186840,note_on,120,0,0,,,,,,,,0,,,35,0
186840,note_on,0,0,0,,,,,,,,0,,,31,0
186840,note_on,0,0,0,,,,,,,,0,,,43,0
186889,control_change,49,0,0,,,,,,,,0,64,0,,
187200,note_on,311,0,0,,,,,,,,0,,,103,101
187200,note_on,0,0,0,,,,,,,,0,,,98,86
187200,note_on,0,0,0,,,,,,,,0,,,95,72
187200,note_on,0,0,0,,,,,,,,0,,,91,72
187200,note_on,0,0,0,,,,,,,,0,,,67,81
187200,note_on,0,0,0,,,,,,,,0,,,62,67
187200,note_on,0,0,0,,,,,,,,0,,,59,67
187200,note_on,0,0,0,,,,,,,,0,,,55,56
187242,control_change,42,0,0,,,,,,,,0,64,127,,
187320,note_on,78,0,0,,,,,,,,0,,,55,0
187320,note_on,0,0,0,,,,,,,,0,,,103,0
187320,note_on,0,0,0,,,,,,,,0,,,67,0
187320,note_on,0,0,0,,,,,,,,0,,,98,0
187320,note_on,0,0,0,,,,,,,,0,,,95,0
187320,note_on,0,0,0,,,,,,,,0,,,91,0
187320,note_on,0,0,0,,,,,,,,0,,,62,0
187320,note_on,0,0,0,,,,,,,,0,,,59,0
187934,control_change,614,0,0,,,,,,,,0,64,0,,
188640,set_tempo,706,1,0,,,,,,1200000,,,,,,
188640,end_of_track,0,1,0,,,,,,,,,,,,
